<?xml version="1.0" encoding="UTF-8" standalone="no"?>
<!DOCTYPE svg PUBLIC "-//W3C//DTD SVG 1.1//EN"
 "http://www.w3.org/Graphics/SVG/1.1/DTD/svg11.dtd">
<!-- Generated by graphviz version 2.26.3 (20100126.1600)
 -->
<!-- Title: src/analysis/utils/A2GeoAcceptance.cc Pages: 1 -->
<svg width="981pt" height="334pt"
 viewBox="0.00 0.00 981.00 334.00" xmlns="http://www.w3.org/2000/svg" xmlns:xlink="http://www.w3.org/1999/xlink">
<g id="graph1" class="graph" transform="scale(1 1) rotate(0) translate(4 330)">
<title>src/analysis/utils/A2GeoAcceptance.cc</title>
<polygon fill="white" stroke="white" points="-4,5 -4,-330 978,-330 978,5 -4,5"/>
<!-- Node0 -->
<g id="node1" class="node"><title>Node0</title>
<polygon fill="#bfbfbf" stroke="black" points="577.5,-291 577.5,-325 692.5,-325 692.5,-291 577.5,-291"/>
<text text-anchor="start" x="585.5" y="-312" font-family="Helvetica,sans-Serif" font-size="10.00">src/analysis/utils</text>
<text text-anchor="middle" x="635" y="-299" font-family="Helvetica,sans-Serif" font-size="10.00">/A2GeoAcceptance.cc</text>
</g>
<!-- Node1 -->
<g id="node3" class="node"><title>Node1</title>
<a xlink:href="_a2_geo_acceptance_8h.html" target="_top" xlink:title="A2GeoAcceptance.h">
<polygon fill="white" stroke="black" points="518.5,-232.5 518.5,-253.5 625.5,-253.5 625.5,-232.5 518.5,-232.5"/>
<text text-anchor="middle" x="572" y="-240.5" font-family="Helvetica,sans-Serif" font-size="10.00">A2GeoAcceptance.h</text>
</a>
</g>
<!-- Node0&#45;&gt;Node1 -->
<g id="edge2" class="edge"><title>Node0&#45;&gt;Node1</title>
<path fill="none" stroke="midnightblue" d="M618.447,-290.922C609.561,-281.754 598.609,-270.454 589.572,-261.129"/>
<polygon fill="midnightblue" stroke="midnightblue" points="591.991,-258.597 582.518,-253.852 586.965,-263.469 591.991,-258.597"/>
</g>
<!-- Node16 -->
<g id="node35" class="node"><title>Node16</title>
<a xlink:href="base_2std__ext_2math_8h.html" target="_top" xlink:title="base/std_ext/math.h">
<polygon fill="white" stroke="black" points="668,-116.5 668,-137.5 774,-137.5 774,-116.5 668,-116.5"/>
<text text-anchor="middle" x="721" y="-124.5" font-family="Helvetica,sans-Serif" font-size="10.00">base/std_ext/math.h</text>
</a>
</g>
<!-- Node0&#45;&gt;Node16 -->
<g id="edge54" class="edge"><title>Node0&#45;&gt;Node16</title>
<path fill="none" stroke="midnightblue" d="M643.091,-290.972C658.998,-257.492 694.282,-183.232 711.363,-147.282"/>
<polygon fill="midnightblue" stroke="midnightblue" points="714.723,-148.366 715.853,-137.832 708.401,-145.362 714.723,-148.366"/>
</g>
<!-- Node2 -->
<g id="node5" class="node"><title>Node2</title>
<a xlink:href="interval_8h.html" target="_top" xlink:title="base/interval.h">
<polygon fill="white" stroke="black" points="196,-174.5 196,-195.5 276,-195.5 276,-174.5 196,-174.5"/>
<text text-anchor="middle" x="236" y="-182.5" font-family="Helvetica,sans-Serif" font-size="10.00">base/interval.h</text>
</a>
</g>
<!-- Node1&#45;&gt;Node2 -->
<g id="edge4" class="edge"><title>Node1&#45;&gt;Node2</title>
<path fill="none" stroke="midnightblue" d="M518.388,-233.746C454.504,-222.718 348.593,-204.436 286.235,-193.671"/>
<polygon fill="midnightblue" stroke="midnightblue" points="286.69,-190.198 276.24,-191.946 285.499,-197.096 286.69,-190.198"/>
</g>
<!-- Node10 -->
<g id="node21" class="node"><title>Node10</title>
<a xlink:href="_detector__t_8h.html" target="_top" xlink:title="base/Detector_t.h">
<polygon fill="white" stroke="black" points="524.5,-174.5 524.5,-195.5 619.5,-195.5 619.5,-174.5 524.5,-174.5"/>
<text text-anchor="middle" x="572" y="-182.5" font-family="Helvetica,sans-Serif" font-size="10.00">base/Detector_t.h</text>
</a>
</g>
<!-- Node1&#45;&gt;Node10 -->
<g id="edge20" class="edge"><title>Node1&#45;&gt;Node10</title>
<path fill="none" stroke="midnightblue" d="M572,-232.362C572,-224.922 572,-214.743 572,-205.728"/>
<polygon fill="midnightblue" stroke="midnightblue" points="575.5,-205.571 572,-195.571 568.5,-205.571 575.5,-205.571"/>
</g>
<!-- Node3 -->
<g id="node7" class="node"><title>Node3</title>
<a xlink:href="types_8h.html" target="_top" xlink:title="types.h">
<polygon fill="white" stroke="black" points="111.5,-116.5 111.5,-137.5 160.5,-137.5 160.5,-116.5 111.5,-116.5"/>
<text text-anchor="middle" x="136" y="-124.5" font-family="Helvetica,sans-Serif" font-size="10.00">types.h</text>
</a>
</g>
<!-- Node2&#45;&gt;Node3 -->
<g id="edge6" class="edge"><title>Node2&#45;&gt;Node3</title>
<path fill="none" stroke="midnightblue" d="M217.658,-174.362C202.434,-165.532 180.559,-152.844 163.28,-142.822"/>
<polygon fill="midnightblue" stroke="midnightblue" points="164.632,-139.56 154.225,-137.571 161.12,-145.615 164.632,-139.56"/>
</g>
<!-- Node4 -->
<g id="node9" class="node"><title>Node4</title>
<polygon fill="white" stroke="#bfbfbf" points="0,-116.5 0,-137.5 56,-137.5 56,-116.5 0,-116.5"/>
<text text-anchor="middle" x="28" y="-124.5" font-family="Helvetica,sans-Serif" font-size="10.00">algorithm</text>
</g>
<!-- Node2&#45;&gt;Node4 -->
<g id="edge8" class="edge"><title>Node2&#45;&gt;Node4</title>
<path fill="none" stroke="midnightblue" d="M198.333,-174.497C160.879,-164.053 103.728,-148.116 66.1174,-137.629"/>
<polygon fill="midnightblue" stroke="midnightblue" points="66.6329,-134.139 56.0602,-134.824 64.7527,-140.882 66.6329,-134.139"/>
</g>
<!-- Node5 -->
<g id="node11" class="node"><title>Node5</title>
<polygon fill="white" stroke="#bfbfbf" points="351.5,-116.5 351.5,-137.5 410.5,-137.5 410.5,-116.5 351.5,-116.5"/>
<text text-anchor="middle" x="381" y="-124.5" font-family="Helvetica,sans-Serif" font-size="10.00">stdexcept</text>
</g>
<!-- Node2&#45;&gt;Node5 -->
<g id="edge10" class="edge"><title>Node2&#45;&gt;Node5</title>
<path fill="none" stroke="midnightblue" d="M262.258,-174.497C285.416,-165.234 319.375,-151.65 345.052,-141.379"/>
<polygon fill="midnightblue" stroke="midnightblue" points="346.462,-144.585 354.447,-137.621 343.862,-138.086 346.462,-144.585"/>
</g>
<!-- Node6 -->
<g id="node13" class="node"><title>Node6</title>
<polygon fill="white" stroke="#bfbfbf" points="388,-58.5 388,-79.5 428,-79.5 428,-58.5 388,-58.5"/>
<text text-anchor="middle" x="408" y="-66.5" font-family="Helvetica,sans-Serif" font-size="10.00">limits</text>
</g>
<!-- Node2&#45;&gt;Node6 -->
<g id="edge12" class="edge"><title>Node2&#45;&gt;Node6</title>
<path fill="none" stroke="midnightblue" d="M251.873,-174.295C282.08,-153.923 348.002,-109.464 383.763,-85.3457"/>
<polygon fill="midnightblue" stroke="midnightblue" points="385.832,-88.1724 392.165,-79.6792 381.918,-82.3689 385.832,-88.1724"/>
</g>
<!-- Node7 -->
<g id="node15" class="node"><title>Node7</title>
<polygon fill="white" stroke="#bfbfbf" points="177.5,-116.5 177.5,-137.5 226.5,-137.5 226.5,-116.5 177.5,-116.5"/>
<text text-anchor="middle" x="202" y="-124.5" font-family="Helvetica,sans-Serif" font-size="10.00">istream</text>
</g>
<!-- Node2&#45;&gt;Node7 -->
<g id="edge14" class="edge"><title>Node2&#45;&gt;Node7</title>
<path fill="none" stroke="midnightblue" d="M229.764,-174.362C225.163,-166.513 218.775,-155.616 213.286,-146.253"/>
<polygon fill="midnightblue" stroke="midnightblue" points="216.273,-144.428 208.197,-137.571 210.234,-147.968 216.273,-144.428"/>
</g>
<!-- Node8 -->
<g id="node17" class="node"><title>Node8</title>
<polygon fill="white" stroke="#bfbfbf" points="244,-116.5 244,-137.5 296,-137.5 296,-116.5 244,-116.5"/>
<text text-anchor="middle" x="270" y="-124.5" font-family="Helvetica,sans-Serif" font-size="10.00">sstream</text>
</g>
<!-- Node2&#45;&gt;Node8 -->
<g id="edge16" class="edge"><title>Node2&#45;&gt;Node8</title>
<path fill="none" stroke="midnightblue" d="M242.236,-174.362C246.837,-166.513 253.225,-155.616 258.714,-146.253"/>
<polygon fill="midnightblue" stroke="midnightblue" points="261.766,-147.968 263.803,-137.571 255.727,-144.428 261.766,-147.968"/>
</g>
<!-- Node9 -->
<g id="node19" class="node"><title>Node9</title>
<polygon fill="white" stroke="#bfbfbf" points="720,-0.5 720,-21.5 764,-21.5 764,-0.5 720,-0.5"/>
<text text-anchor="middle" x="742" y="-8.5" font-family="Helvetica,sans-Serif" font-size="10.00">cmath</text>
</g>
<!-- Node2&#45;&gt;Node9 -->
<g id="edge18" class="edge"><title>Node2&#45;&gt;Node9</title>
<path fill="none" stroke="midnightblue" d="M195.864,-179.263C146.996,-170.61 74.3111,-151.344 103,-116 141.941,-68.0254 585.242,-25.0139 709.69,-13.8211"/>
<polygon fill="midnightblue" stroke="midnightblue" points="710.091,-17.2992 719.74,-12.9241 709.469,-10.3269 710.091,-17.2992"/>
</g>
<!-- Node10&#45;&gt;Node5 -->
<g id="edge46" class="edge"><title>Node10&#45;&gt;Node5</title>
<path fill="none" stroke="midnightblue" d="M537.411,-174.497C504.438,-164.484 454.838,-149.422 420.366,-138.954"/>
<polygon fill="midnightblue" stroke="midnightblue" points="421.216,-135.554 410.63,-135.998 419.182,-142.252 421.216,-135.554"/>
</g>
<!-- Node11 -->
<g id="node23" class="node"><title>Node11</title>
<a xlink:href="bitflag_8h.html" target="_top" xlink:title="base/bitflag.h">
<polygon fill="white" stroke="black" points="898.5,-116.5 898.5,-137.5 973.5,-137.5 973.5,-116.5 898.5,-116.5"/>
<text text-anchor="middle" x="936" y="-124.5" font-family="Helvetica,sans-Serif" font-size="10.00">base/bitflag.h</text>
</a>
</g>
<!-- Node10&#45;&gt;Node11 -->
<g id="edge22" class="edge"><title>Node10&#45;&gt;Node11</title>
<path fill="none" stroke="midnightblue" d="M619.736,-179.174C679.953,-171.547 786.873,-157.089 888.242,-138.021"/>
<polygon fill="midnightblue" stroke="midnightblue" points="889.177,-141.406 898.348,-136.101 887.871,-134.529 889.177,-141.406"/>
</g>
<!-- Node13 -->
<g id="node27" class="node"><title>Node13</title>
<a xlink:href="vec3_8h.html" target="_top" xlink:title="base/vec/vec3.h">
<polygon fill="white" stroke="black" points="791.5,-116.5 791.5,-137.5 880.5,-137.5 880.5,-116.5 791.5,-116.5"/>
<text text-anchor="middle" x="836" y="-124.5" font-family="Helvetica,sans-Serif" font-size="10.00">base/vec/vec3.h</text>
</a>
</g>
<!-- Node10&#45;&gt;Node13 -->
<g id="edge26" class="edge"><title>Node10&#45;&gt;Node13</title>
<path fill="none" stroke="midnightblue" d="M619.503,-174.564C664.961,-164.577 733.486,-149.522 781.225,-139.034"/>
<polygon fill="midnightblue" stroke="midnightblue" points="782.064,-142.433 791.08,-136.869 780.562,-135.596 782.064,-142.433"/>
</g>
<!-- Node10&#45;&gt;Node16 -->
<g id="edge36" class="edge"><title>Node10&#45;&gt;Node16</title>
<path fill="none" stroke="midnightblue" d="M598.983,-174.497C622.853,-165.205 657.894,-151.565 684.307,-141.283"/>
<polygon fill="midnightblue" stroke="midnightblue" points="685.917,-144.412 693.967,-137.523 683.378,-137.889 685.917,-144.412"/>
</g>
<!-- Node17 -->
<g id="node39" class="node"><title>Node17</title>
<polygon fill="white" stroke="#bfbfbf" points="530,-58.5 530,-79.5 574,-79.5 574,-58.5 530,-58.5"/>
<text text-anchor="middle" x="552" y="-66.5" font-family="Helvetica,sans-Serif" font-size="10.00">vector</text>
</g>
<!-- Node10&#45;&gt;Node17 -->
<g id="edge52" class="edge"><title>Node10&#45;&gt;Node17</title>
<path fill="none" stroke="midnightblue" d="M524.287,-178.256C499.802,-172.112 472.031,-160.381 457,-138 437.76,-109.353 485.51,-88.4198 520.064,-77.526"/>
<polygon fill="midnightblue" stroke="midnightblue" points="521.261,-80.8211 529.834,-74.5956 519.25,-74.1162 521.261,-80.8211"/>
</g>
<!-- Node18 -->
<g id="node41" class="node"><title>Node18</title>
<polygon fill="white" stroke="#bfbfbf" points="466,-116.5 466,-137.5 512,-137.5 512,-116.5 466,-116.5"/>
<text text-anchor="middle" x="489" y="-124.5" font-family="Helvetica,sans-Serif" font-size="10.00">cstdint</text>
</g>
<!-- Node10&#45;&gt;Node18 -->
<g id="edge44" class="edge"><title>Node10&#45;&gt;Node18</title>
<path fill="none" stroke="midnightblue" d="M556.777,-174.362C544.375,-165.696 526.654,-153.313 512.443,-143.382"/>
<polygon fill="midnightblue" stroke="midnightblue" points="514.329,-140.43 504.127,-137.571 510.319,-146.168 514.329,-140.43"/>
</g>
<!-- Node19 -->
<g id="node44" class="node"><title>Node19</title>
<polygon fill="white" stroke="#bfbfbf" points="529.5,-116.5 529.5,-137.5 570.5,-137.5 570.5,-116.5 529.5,-116.5"/>
<text text-anchor="middle" x="550" y="-124.5" font-family="Helvetica,sans-Serif" font-size="10.00">string</text>
</g>
<!-- Node10&#45;&gt;Node19 -->
<g id="edge48" class="edge"><title>Node10&#45;&gt;Node19</title>
<path fill="none" stroke="midnightblue" d="M567.965,-174.362C565.081,-166.758 561.112,-156.294 557.637,-147.135"/>
<polygon fill="midnightblue" stroke="midnightblue" points="560.829,-145.679 554.01,-137.571 554.284,-148.162 560.829,-145.679"/>
</g>
<!-- Node20 -->
<g id="node46" class="node"><title>Node20</title>
<polygon fill="white" stroke="#bfbfbf" points="588,-116.5 588,-137.5 650,-137.5 650,-116.5 588,-116.5"/>
<text text-anchor="middle" x="619" y="-124.5" font-family="Helvetica,sans-Serif" font-size="10.00">type_traits</text>
</g>
<!-- Node10&#45;&gt;Node20 -->
<g id="edge50" class="edge"><title>Node10&#45;&gt;Node20</title>
<path fill="none" stroke="midnightblue" d="M580.621,-174.362C587.18,-166.268 596.366,-154.932 604.106,-145.38"/>
<polygon fill="midnightblue" stroke="midnightblue" points="606.858,-147.544 610.434,-137.571 601.419,-143.136 606.858,-147.544"/>
</g>
<!-- Node12 -->
<g id="node25" class="node"><title>Node12</title>
<polygon fill="white" stroke="#bfbfbf" points="916.5,-58.5 916.5,-79.5 957.5,-79.5 957.5,-58.5 916.5,-58.5"/>
<text text-anchor="middle" x="937" y="-66.5" font-family="Helvetica,sans-Serif" font-size="10.00">bitset</text>
</g>
<!-- Node11&#45;&gt;Node12 -->
<g id="edge24" class="edge"><title>Node11&#45;&gt;Node12</title>
<path fill="none" stroke="midnightblue" d="M936.183,-116.362C936.312,-108.922 936.487,-98.7427 936.643,-89.7276"/>
<polygon fill="midnightblue" stroke="midnightblue" points="940.145,-89.6295 936.818,-79.5707 933.146,-89.5088 940.145,-89.6295"/>
</g>
<!-- Node13&#45;&gt;Node9 -->
<g id="edge34" class="edge"><title>Node13&#45;&gt;Node9</title>
<path fill="none" stroke="midnightblue" d="M848.075,-116.403C862.577,-102.37 883.378,-77.1629 870,-58 858.763,-41.904 808.367,-26.9379 774.263,-18.3929"/>
<polygon fill="midnightblue" stroke="midnightblue" points="774.809,-14.9234 764.264,-15.953 773.149,-21.7239 774.809,-14.9234"/>
</g>
<!-- Node14 -->
<g id="node29" class="node"><title>Node14</title>
<a xlink:href="vec2_8h.html" target="_top" xlink:title="vec2.h">
<polygon fill="white" stroke="black" points="745,-58.5 745,-79.5 791,-79.5 791,-58.5 745,-58.5"/>
<text text-anchor="middle" x="768" y="-66.5" font-family="Helvetica,sans-Serif" font-size="10.00">vec2.h</text>
</a>
</g>
<!-- Node13&#45;&gt;Node14 -->
<g id="edge28" class="edge"><title>Node13&#45;&gt;Node14</title>
<path fill="none" stroke="midnightblue" d="M823.528,-116.362C813.655,-107.941 799.667,-96.0105 788.202,-86.2308"/>
<polygon fill="midnightblue" stroke="midnightblue" points="790.273,-83.3972 780.393,-79.5707 785.73,-88.7231 790.273,-83.3972"/>
</g>
<!-- Node15 -->
<g id="node32" class="node"><title>Node15</title>
<polygon fill="white" stroke="#bfbfbf" points="809,-58.5 809,-79.5 861,-79.5 861,-58.5 809,-58.5"/>
<text text-anchor="middle" x="835" y="-66.5" font-family="Helvetica,sans-Serif" font-size="10.00">ostream</text>
</g>
<!-- Node13&#45;&gt;Node15 -->
<g id="edge32" class="edge"><title>Node13&#45;&gt;Node15</title>
<path fill="none" stroke="midnightblue" d="M835.817,-116.362C835.688,-108.922 835.513,-98.7427 835.357,-89.7276"/>
<polygon fill="midnightblue" stroke="midnightblue" points="838.854,-89.5088 835.182,-79.5707 831.855,-89.6295 838.854,-89.5088"/>
</g>
<!-- Node14&#45;&gt;Node9 -->
<g id="edge30" class="edge"><title>Node14&#45;&gt;Node9</title>
<path fill="none" stroke="midnightblue" d="M763.231,-58.3619C759.786,-50.6766 755.031,-40.0686 750.894,-30.8399"/>
<polygon fill="midnightblue" stroke="midnightblue" points="754.023,-29.264 746.739,-21.5707 747.635,-32.1275 754.023,-29.264"/>
</g>
<!-- Node16&#45;&gt;Node6 -->
<g id="edge40" class="edge"><title>Node16&#45;&gt;Node6</title>
<path fill="none" stroke="midnightblue" d="M667.904,-117.161C601.819,-104.915 491.208,-84.4188 438.164,-74.5895"/>
<polygon fill="midnightblue" stroke="midnightblue" points="438.524,-71.0967 428.054,-72.716 437.249,-77.9796 438.524,-71.0967"/>
</g>
<!-- Node16&#45;&gt;Node9 -->
<g id="edge38" class="edge"><title>Node16&#45;&gt;Node9</title>
<path fill="none" stroke="midnightblue" d="M722.938,-116.295C726.407,-97.1314 733.735,-56.654 738.227,-31.8434"/>
<polygon fill="midnightblue" stroke="midnightblue" points="741.729,-32.1428 740.067,-21.6792 734.841,-30.8957 741.729,-32.1428"/>
</g>
<!-- Node16&#45;&gt;Node17 -->
<g id="edge42" class="edge"><title>Node16&#45;&gt;Node17</title>
<path fill="none" stroke="midnightblue" d="M690.395,-116.497C660.228,-106.143 614.333,-90.3923 583.769,-79.9029"/>
<polygon fill="midnightblue" stroke="midnightblue" points="584.631,-76.4984 574.036,-76.5627 582.359,-83.1194 584.631,-76.4984"/>
</g>
</g>
</svg>
