<?xml version="1.0" encoding="UTF-8" standalone="no"?>
<!DOCTYPE svg PUBLIC "-//W3C//DTD SVG 1.1//EN"
 "http://www.w3.org/Graphics/SVG/1.1/DTD/svg11.dtd">
<!-- Generated by graphviz version 2.26.3 (20100126.1600)
 -->
<!-- Title: src/analysis/utils/A2GeoAcceptance.h Pages: 1 -->
<svg width="956pt" height="276pt"
 viewBox="0.00 0.00 955.58 276.00" xmlns="http://www.w3.org/2000/svg" xmlns:xlink="http://www.w3.org/1999/xlink">
<g id="graph1" class="graph" transform="scale(1 1) rotate(0) translate(4 272)">
<title>src/analysis/utils/A2GeoAcceptance.h</title>
<polygon fill="white" stroke="white" points="-4,5 -4,-272 952.577,-272 952.577,5 -4,5"/>
<!-- Node0 -->
<g id="node1" class="node"><title>Node0</title>
<polygon fill="#bfbfbf" stroke="black" points="395.577,-233 395.577,-267 505.577,-267 505.577,-233 395.577,-233"/>
<text text-anchor="start" x="403.577" y="-254" font-family="Helvetica,sans-Serif" font-size="10.00">src/analysis/utils</text>
<text text-anchor="middle" x="450.577" y="-241" font-family="Helvetica,sans-Serif" font-size="10.00">/A2GeoAcceptance.h</text>
</g>
<!-- Node1 -->
<g id="node3" class="node"><title>Node1</title>
<a xlink:href="interval_8h.html" target="_top" xlink:title="base/interval.h">
<polygon fill="white" stroke="black" points="174.577,-174.5 174.577,-195.5 254.577,-195.5 254.577,-174.5 174.577,-174.5"/>
<text text-anchor="middle" x="214.577" y="-182.5" font-family="Helvetica,sans-Serif" font-size="10.00">base/interval.h</text>
</a>
</g>
<!-- Node0&#45;&gt;Node1 -->
<g id="edge2" class="edge"><title>Node0&#45;&gt;Node1</title>
<path fill="none" stroke="midnightblue" d="M395.543,-234.842C355.284,-223.754 301.194,-208.856 262.661,-198.244"/>
<polygon fill="midnightblue" stroke="midnightblue" points="263.295,-194.788 252.725,-195.507 261.437,-201.537 263.295,-194.788"/>
</g>
<!-- Node9 -->
<g id="node19" class="node"><title>Node9</title>
<a xlink:href="_detector__t_8h.html" target="_top" xlink:title="base/Detector_t.h">
<polygon fill="white" stroke="black" points="607.077,-174.5 607.077,-195.5 702.077,-195.5 702.077,-174.5 607.077,-174.5"/>
<text text-anchor="middle" x="654.577" y="-182.5" font-family="Helvetica,sans-Serif" font-size="10.00">base/Detector_t.h</text>
</a>
</g>
<!-- Node0&#45;&gt;Node9 -->
<g id="edge18" class="edge"><title>Node0&#45;&gt;Node9</title>
<path fill="none" stroke="midnightblue" d="M504.176,-232.922C537.73,-222.231 580.382,-208.641 611.689,-198.665"/>
<polygon fill="midnightblue" stroke="midnightblue" points="612.963,-201.933 621.429,-195.562 610.838,-195.263 612.963,-201.933"/>
</g>
<!-- Node2 -->
<g id="node5" class="node"><title>Node2</title>
<a xlink:href="types_8h.html" target="_top" xlink:title="types.h">
<polygon fill="white" stroke="black" points="157.077,-116.5 157.077,-137.5 206.077,-137.5 206.077,-116.5 157.077,-116.5"/>
<text text-anchor="middle" x="181.577" y="-124.5" font-family="Helvetica,sans-Serif" font-size="10.00">types.h</text>
</a>
</g>
<!-- Node1&#45;&gt;Node2 -->
<g id="edge4" class="edge"><title>Node1&#45;&gt;Node2</title>
<path fill="none" stroke="midnightblue" d="M208.524,-174.362C204.105,-166.595 197.988,-155.843 192.698,-146.546"/>
<polygon fill="midnightblue" stroke="midnightblue" points="195.579,-144.531 187.591,-137.571 189.495,-147.993 195.579,-144.531"/>
</g>
<!-- Node3 -->
<g id="node7" class="node"><title>Node3</title>
<polygon fill="white" stroke="#bfbfbf" points="83.5771,-116.5 83.5771,-137.5 139.577,-137.5 139.577,-116.5 83.5771,-116.5"/>
<text text-anchor="middle" x="111.577" y="-124.5" font-family="Helvetica,sans-Serif" font-size="10.00">algorithm</text>
</g>
<!-- Node1&#45;&gt;Node3 -->
<g id="edge6" class="edge"><title>Node1&#45;&gt;Node3</title>
<path fill="none" stroke="midnightblue" d="M195.685,-174.362C179.859,-165.45 157.055,-152.609 139.182,-142.545"/>
<polygon fill="midnightblue" stroke="midnightblue" points="140.78,-139.428 130.349,-137.571 137.345,-145.527 140.78,-139.428"/>
</g>
<!-- Node4 -->
<g id="node9" class="node"><title>Node4</title>
<polygon fill="white" stroke="#bfbfbf" points="289.077,-116.5 289.077,-137.5 348.077,-137.5 348.077,-116.5 289.077,-116.5"/>
<text text-anchor="middle" x="318.577" y="-124.5" font-family="Helvetica,sans-Serif" font-size="10.00">stdexcept</text>
</g>
<!-- Node1&#45;&gt;Node4 -->
<g id="edge8" class="edge"><title>Node1&#45;&gt;Node4</title>
<path fill="none" stroke="midnightblue" d="M233.652,-174.362C249.632,-165.45 272.658,-152.609 290.704,-142.545"/>
<polygon fill="midnightblue" stroke="midnightblue" points="292.594,-145.498 299.623,-137.571 289.184,-139.385 292.594,-145.498"/>
</g>
<!-- Node5 -->
<g id="node11" class="node"><title>Node5</title>
<polygon fill="white" stroke="#bfbfbf" points="594.577,-58.5 594.577,-79.5 634.577,-79.5 634.577,-58.5 594.577,-58.5"/>
<text text-anchor="middle" x="614.577" y="-66.5" font-family="Helvetica,sans-Serif" font-size="10.00">limits</text>
</g>
<!-- Node1&#45;&gt;Node5 -->
<g id="edge10" class="edge"><title>Node1&#45;&gt;Node5</title>
<path fill="none" stroke="midnightblue" d="M254.588,-182.978C332.955,-178.452 503.485,-165.661 554.577,-138 575.816,-126.501 593.002,-104.3 603.451,-88.178"/>
<polygon fill="midnightblue" stroke="midnightblue" points="606.525,-89.8618 608.804,-79.5151 600.57,-86.182 606.525,-89.8618"/>
</g>
<!-- Node6 -->
<g id="node13" class="node"><title>Node6</title>
<polygon fill="white" stroke="#bfbfbf" points="223.077,-116.5 223.077,-137.5 272.077,-137.5 272.077,-116.5 223.077,-116.5"/>
<text text-anchor="middle" x="247.577" y="-124.5" font-family="Helvetica,sans-Serif" font-size="10.00">istream</text>
</g>
<!-- Node1&#45;&gt;Node6 -->
<g id="edge12" class="edge"><title>Node1&#45;&gt;Node6</title>
<path fill="none" stroke="midnightblue" d="M220.63,-174.362C225.049,-166.595 231.167,-155.843 236.456,-146.546"/>
<polygon fill="midnightblue" stroke="midnightblue" points="239.66,-147.993 241.563,-137.571 233.575,-144.531 239.66,-147.993"/>
</g>
<!-- Node7 -->
<g id="node15" class="node"><title>Node7</title>
<polygon fill="white" stroke="#bfbfbf" points="13.5771,-116.5 13.5771,-137.5 65.5771,-137.5 65.5771,-116.5 13.5771,-116.5"/>
<text text-anchor="middle" x="39.5771" y="-124.5" font-family="Helvetica,sans-Serif" font-size="10.00">sstream</text>
</g>
<!-- Node1&#45;&gt;Node7 -->
<g id="edge14" class="edge"><title>Node1&#45;&gt;Node7</title>
<path fill="none" stroke="midnightblue" d="M182.886,-174.497C152.579,-164.452 106.94,-149.326 75.344,-138.854"/>
<polygon fill="midnightblue" stroke="midnightblue" points="76.2095,-135.454 65.6162,-135.63 74.0073,-142.098 76.2095,-135.454"/>
</g>
<!-- Node8 -->
<g id="node17" class="node"><title>Node8</title>
<polygon fill="white" stroke="#bfbfbf" points="435.577,-0.5 435.577,-21.5 479.577,-21.5 479.577,-0.5 435.577,-0.5"/>
<text text-anchor="middle" x="457.577" y="-8.5" font-family="Helvetica,sans-Serif" font-size="10.00">cmath</text>
</g>
<!-- Node1&#45;&gt;Node8 -->
<g id="edge16" class="edge"><title>Node1&#45;&gt;Node8</title>
<path fill="none" stroke="midnightblue" d="M174.223,-181.841C119.296,-176.608 25.4217,-164.026 4.57709,-138 -1.53536,-130.368 -1.50637,-123.655 4.57709,-116 57.5363,-49.3614 330.617,-21.2618 425.248,-13.4258"/>
<polygon fill="midnightblue" stroke="midnightblue" points="425.685,-16.902 435.371,-12.6091 425.122,-9.92468 425.685,-16.902"/>
</g>
<!-- Node9&#45;&gt;Node4 -->
<g id="edge44" class="edge"><title>Node9&#45;&gt;Node4</title>
<path fill="none" stroke="midnightblue" d="M607.007,-179.367C549.916,-172.194 451.168,-158.474 358.203,-138.182"/>
<polygon fill="midnightblue" stroke="midnightblue" points="358.877,-134.747 348.357,-136.003 357.364,-141.581 358.877,-134.747"/>
</g>
<!-- Node10 -->
<g id="node21" class="node"><title>Node10</title>
<a xlink:href="bitflag_8h.html" target="_top" xlink:title="base/bitflag.h">
<polygon fill="white" stroke="black" points="365.077,-116.5 365.077,-137.5 440.077,-137.5 440.077,-116.5 365.077,-116.5"/>
<text text-anchor="middle" x="402.577" y="-124.5" font-family="Helvetica,sans-Serif" font-size="10.00">base/bitflag.h</text>
</a>
</g>
<!-- Node9&#45;&gt;Node10 -->
<g id="edge20" class="edge"><title>Node9&#45;&gt;Node10</title>
<path fill="none" stroke="midnightblue" d="M607.911,-174.498C568.34,-165.561 509.806,-152.263 450.189,-138.363"/>
<polygon fill="midnightblue" stroke="midnightblue" points="450.759,-134.902 440.225,-136.036 449.167,-141.719 450.759,-134.902"/>
</g>
<!-- Node12 -->
<g id="node25" class="node"><title>Node12</title>
<a xlink:href="vec3_8h.html" target="_top" xlink:title="base/vec/vec3.h">
<polygon fill="white" stroke="black" points="457.077,-116.5 457.077,-137.5 546.077,-137.5 546.077,-116.5 457.077,-116.5"/>
<text text-anchor="middle" x="501.577" y="-124.5" font-family="Helvetica,sans-Serif" font-size="10.00">base/vec/vec3.h</text>
</a>
</g>
<!-- Node9&#45;&gt;Node12 -->
<g id="edge24" class="edge"><title>Node9&#45;&gt;Node12</title>
<path fill="none" stroke="midnightblue" d="M626.87,-174.497C602.251,-165.164 566.06,-151.445 538.897,-141.147"/>
<polygon fill="midnightblue" stroke="midnightblue" points="539.928,-137.795 529.336,-137.523 537.446,-144.341 539.928,-137.795"/>
</g>
<!-- Node15 -->
<g id="node33" class="node"><title>Node15</title>
<a xlink:href="base_2std__ext_2math_8h.html" target="_top" xlink:title="base/std_ext/math.h">
<polygon fill="white" stroke="black" points="601.577,-116.5 601.577,-137.5 707.577,-137.5 707.577,-116.5 601.577,-116.5"/>
<text text-anchor="middle" x="654.577" y="-124.5" font-family="Helvetica,sans-Serif" font-size="10.00">base/std_ext/math.h</text>
</a>
</g>
<!-- Node9&#45;&gt;Node15 -->
<g id="edge34" class="edge"><title>Node9&#45;&gt;Node15</title>
<path fill="none" stroke="midnightblue" d="M654.577,-174.362C654.577,-166.922 654.577,-156.743 654.577,-147.728"/>
<polygon fill="midnightblue" stroke="midnightblue" points="658.077,-147.571 654.577,-137.571 651.077,-147.571 658.077,-147.571"/>
</g>
<!-- Node16 -->
<g id="node37" class="node"><title>Node16</title>
<polygon fill="white" stroke="#bfbfbf" points="705.577,-58.5 705.577,-79.5 749.577,-79.5 749.577,-58.5 705.577,-58.5"/>
<text text-anchor="middle" x="727.577" y="-66.5" font-family="Helvetica,sans-Serif" font-size="10.00">vector</text>
</g>
<!-- Node9&#45;&gt;Node16 -->
<g id="edge50" class="edge"><title>Node9&#45;&gt;Node16</title>
<path fill="none" stroke="midnightblue" d="M675.842,-174.438C689.724,-166.395 706.992,-153.986 716.577,-138 725.24,-123.552 727.741,-104.474 728.216,-90.0409"/>
<polygon fill="midnightblue" stroke="midnightblue" points="731.717,-89.6477 728.242,-79.6391 724.717,-89.6303 731.717,-89.6477"/>
</g>
<!-- Node17 -->
<g id="node39" class="node"><title>Node17</title>
<polygon fill="white" stroke="#bfbfbf" points="763.577,-116.5 763.577,-137.5 809.577,-137.5 809.577,-116.5 763.577,-116.5"/>
<text text-anchor="middle" x="786.577" y="-124.5" font-family="Helvetica,sans-Serif" font-size="10.00">cstdint</text>
</g>
<!-- Node9&#45;&gt;Node17 -->
<g id="edge42" class="edge"><title>Node9&#45;&gt;Node17</title>
<path fill="none" stroke="midnightblue" d="M678.481,-174.497C699.638,-165.201 730.699,-151.553 754.102,-141.269"/>
<polygon fill="midnightblue" stroke="midnightblue" points="755.547,-144.458 763.294,-137.231 752.731,-138.049 755.547,-144.458"/>
</g>
<!-- Node18 -->
<g id="node42" class="node"><title>Node18</title>
<polygon fill="white" stroke="#bfbfbf" points="827.077,-116.5 827.077,-137.5 868.077,-137.5 868.077,-116.5 827.077,-116.5"/>
<text text-anchor="middle" x="847.577" y="-124.5" font-family="Helvetica,sans-Serif" font-size="10.00">string</text>
</g>
<!-- Node9&#45;&gt;Node18 -->
<g id="edge46" class="edge"><title>Node9&#45;&gt;Node18</title>
<path fill="none" stroke="midnightblue" d="M694.966,-174.435C726.187,-166.042 770.649,-153.603 817.372,-138.242"/>
<polygon fill="midnightblue" stroke="midnightblue" points="818.671,-141.499 827.058,-135.025 816.464,-134.855 818.671,-141.499"/>
</g>
<!-- Node19 -->
<g id="node44" class="node"><title>Node19</title>
<polygon fill="white" stroke="#bfbfbf" points="885.577,-116.5 885.577,-137.5 947.577,-137.5 947.577,-116.5 885.577,-116.5"/>
<text text-anchor="middle" x="916.577" y="-124.5" font-family="Helvetica,sans-Serif" font-size="10.00">type_traits</text>
</g>
<!-- Node9&#45;&gt;Node19 -->
<g id="edge48" class="edge"><title>Node9&#45;&gt;Node19</title>
<path fill="none" stroke="midnightblue" d="M702.399,-175.734C745.284,-167.232 810.142,-153.901 875.168,-138.253"/>
<polygon fill="midnightblue" stroke="midnightblue" points="876.287,-141.583 885.18,-135.825 874.637,-134.78 876.287,-141.583"/>
</g>
<!-- Node11 -->
<g id="node23" class="node"><title>Node11</title>
<polygon fill="white" stroke="#bfbfbf" points="364.077,-58.5 364.077,-79.5 405.077,-79.5 405.077,-58.5 364.077,-58.5"/>
<text text-anchor="middle" x="384.577" y="-66.5" font-family="Helvetica,sans-Serif" font-size="10.00">bitset</text>
</g>
<!-- Node10&#45;&gt;Node11 -->
<g id="edge22" class="edge"><title>Node10&#45;&gt;Node11</title>
<path fill="none" stroke="midnightblue" d="M399.276,-116.362C396.916,-108.758 393.668,-98.294 390.826,-89.1349"/>
<polygon fill="midnightblue" stroke="midnightblue" points="394.164,-88.0839 387.858,-79.5707 387.479,-90.1587 394.164,-88.0839"/>
</g>
<!-- Node12&#45;&gt;Node8 -->
<g id="edge32" class="edge"><title>Node12&#45;&gt;Node8</title>
<path fill="none" stroke="midnightblue" d="M484.16,-116.225C472.53,-107.93 458.197,-95.3089 451.577,-80 444.959,-64.697 447.271,-45.7293 450.78,-31.5559"/>
<polygon fill="midnightblue" stroke="midnightblue" points="454.187,-32.3688 453.569,-21.7921 447.457,-30.4462 454.187,-32.3688"/>
</g>
<!-- Node13 -->
<g id="node27" class="node"><title>Node13</title>
<a xlink:href="vec2_8h.html" target="_top" xlink:title="vec2.h">
<polygon fill="white" stroke="black" points="460.577,-58.5 460.577,-79.5 506.577,-79.5 506.577,-58.5 460.577,-58.5"/>
<text text-anchor="middle" x="483.577" y="-66.5" font-family="Helvetica,sans-Serif" font-size="10.00">vec2.h</text>
</a>
</g>
<!-- Node12&#45;&gt;Node13 -->
<g id="edge26" class="edge"><title>Node12&#45;&gt;Node13</title>
<path fill="none" stroke="midnightblue" d="M498.276,-116.362C495.916,-108.758 492.668,-98.294 489.826,-89.1349"/>
<polygon fill="midnightblue" stroke="midnightblue" points="493.164,-88.0839 486.858,-79.5707 486.479,-90.1587 493.164,-88.0839"/>
</g>
<!-- Node14 -->
<g id="node30" class="node"><title>Node14</title>
<polygon fill="white" stroke="#bfbfbf" points="524.577,-58.5 524.577,-79.5 576.577,-79.5 576.577,-58.5 524.577,-58.5"/>
<text text-anchor="middle" x="550.577" y="-66.5" font-family="Helvetica,sans-Serif" font-size="10.00">ostream</text>
</g>
<!-- Node12&#45;&gt;Node14 -->
<g id="edge30" class="edge"><title>Node12&#45;&gt;Node14</title>
<path fill="none" stroke="midnightblue" d="M510.564,-116.362C517.403,-108.268 526.98,-96.9318 535.05,-87.3796"/>
<polygon fill="midnightblue" stroke="midnightblue" points="537.867,-89.4683 541.647,-79.5707 532.52,-84.9508 537.867,-89.4683"/>
</g>
<!-- Node13&#45;&gt;Node8 -->
<g id="edge28" class="edge"><title>Node13&#45;&gt;Node8</title>
<path fill="none" stroke="midnightblue" d="M478.808,-58.3619C475.363,-50.6766 470.608,-40.0686 466.471,-30.8399"/>
<polygon fill="midnightblue" stroke="midnightblue" points="469.6,-29.264 462.316,-21.5707 463.212,-32.1275 469.6,-29.264"/>
</g>
<!-- Node15&#45;&gt;Node5 -->
<g id="edge38" class="edge"><title>Node15&#45;&gt;Node5</title>
<path fill="none" stroke="midnightblue" d="M647.24,-116.362C641.771,-108.431 634.155,-97.3885 627.653,-87.9606"/>
<polygon fill="midnightblue" stroke="midnightblue" points="630.426,-85.8157 621.867,-79.5707 624.663,-89.7899 630.426,-85.8157"/>
</g>
<!-- Node15&#45;&gt;Node8 -->
<g id="edge36" class="edge"><title>Node15&#45;&gt;Node8</title>
<path fill="none" stroke="midnightblue" d="M656.167,-116.377C657.769,-101.374 658.229,-74.0246 643.577,-58 623.1,-35.6049 537.537,-21.2787 489.918,-14.881"/>
<polygon fill="midnightblue" stroke="midnightblue" points="490.178,-11.3854 479.81,-13.5654 489.275,-18.3268 490.178,-11.3854"/>
</g>
<!-- Node15&#45;&gt;Node16 -->
<g id="edge40" class="edge"><title>Node15&#45;&gt;Node16</title>
<path fill="none" stroke="midnightblue" d="M667.966,-116.362C678.668,-107.859 693.873,-95.7785 706.248,-85.9466"/>
<polygon fill="midnightblue" stroke="midnightblue" points="708.62,-88.5318 714.273,-79.5707 704.266,-83.0511 708.62,-88.5318"/>
</g>
</g>
</svg>
