<?xml version="1.0" encoding="UTF-8" standalone="no"?>
<!DOCTYPE svg PUBLIC "-//W3C//DTD SVG 1.1//EN"
 "http://www.w3.org/Graphics/SVG/1.1/DTD/svg11.dtd">
<!-- Generated by graphviz version 2.26.3 (20100126.1600)
 -->
<!-- Title: src/analysis/slowcontrol/processors/AcquScalerProcessor.h Pages: 1 -->
<svg width="1214pt" height="332pt"
 viewBox="0.00 0.00 1214.00 332.00" xmlns="http://www.w3.org/2000/svg" xmlns:xlink="http://www.w3.org/1999/xlink">
<g id="graph1" class="graph" transform="scale(1 1) rotate(0) translate(4 328)">
<title>src/analysis/slowcontrol/processors/AcquScalerProcessor.h</title>
<polygon fill="white" stroke="white" points="-4,5 -4,-328 1211,-328 1211,5 -4,5"/>
<!-- Node58 -->
<g id="node1" class="node"><title>Node58</title>
<polygon fill="#bfbfbf" stroke="black" points="472.5,-289 472.5,-323 645.5,-323 645.5,-289 472.5,-289"/>
<text text-anchor="start" x="480.5" y="-310" font-family="Helvetica,sans-Serif" font-size="10.00">src/analysis/slowcontrol</text>
<text text-anchor="middle" x="559" y="-297" font-family="Helvetica,sans-Serif" font-size="10.00">/processors/AcquScalerProcessor.h</text>
</g>
<!-- Node59 -->
<g id="node3" class="node"><title>Node59</title>
<a xlink:href="_acqu_scaler_processor_8cc.html" target="_top" xlink:title="src/analysis/slowcontrol\l/processors/AcquScalerProcessor.cc">
<polygon fill="white" stroke="black" points="61.5,-217 61.5,-251 240.5,-251 240.5,-217 61.5,-217"/>
<text text-anchor="start" x="69.5" y="-238" font-family="Helvetica,sans-Serif" font-size="10.00">src/analysis/slowcontrol</text>
<text text-anchor="middle" x="151" y="-225" font-family="Helvetica,sans-Serif" font-size="10.00">/processors/AcquScalerProcessor.cc</text>
</a>
</g>
<!-- Node58&#45;&gt;Node59 -->
<g id="edge2" class="edge"><title>Node58&#45;&gt;Node59</title>
<path fill="none" stroke="midnightblue" d="M462.408,-289.409C401.223,-278.842 320.443,-264.783 249,-252 246.276,-251.513 243.509,-251.016 240.716,-250.512"/>
<polygon fill="midnightblue" stroke="midnightblue" points="461.99,-292.889 472.44,-291.141 463.181,-285.991 461.99,-292.889"/>
</g>
<!-- Node60 -->
<g id="node5" class="node"><title>Node60</title>
<a xlink:href="_beampolmon_8h.html" target="_top" xlink:title="src/analysis/slowcontrol\l/processors/Beampolmon.h">
<polygon fill="white" stroke="black" points="258,-217 258,-251 394,-251 394,-217 258,-217"/>
<text text-anchor="start" x="266" y="-238" font-family="Helvetica,sans-Serif" font-size="10.00">src/analysis/slowcontrol</text>
<text text-anchor="middle" x="326" y="-225" font-family="Helvetica,sans-Serif" font-size="10.00">/processors/Beampolmon.h</text>
</a>
</g>
<!-- Node58&#45;&gt;Node60 -->
<g id="edge4" class="edge"><title>Node58&#45;&gt;Node60</title>
<path fill="none" stroke="midnightblue" d="M494,-285.914C458.517,-274.949 415.053,-261.519 381.225,-251.065"/>
<polygon fill="midnightblue" stroke="midnightblue" points="493.195,-289.329 503.782,-288.937 495.261,-282.641 493.195,-289.329"/>
</g>
<!-- Node73 -->
<g id="node32" class="node"><title>Node73</title>
<a xlink:href="_e_p_t___scalers_8h.html" target="_top" xlink:title="src/analysis/slowcontrol\l/processors/EPT_Scalers.h">
<polygon fill="white" stroke="black" points="411.5,-217 411.5,-251 548.5,-251 548.5,-217 411.5,-217"/>
<text text-anchor="start" x="419.5" y="-238" font-family="Helvetica,sans-Serif" font-size="10.00">src/analysis/slowcontrol</text>
<text text-anchor="middle" x="480" y="-225" font-family="Helvetica,sans-Serif" font-size="10.00">/processors/EPT_Scalers.h</text>
</a>
</g>
<!-- Node58&#45;&gt;Node73 -->
<g id="edge32" class="edge"><title>Node58&#45;&gt;Node73</title>
<path fill="none" stroke="midnightblue" d="M532.566,-281.908C521.523,-271.844 508.945,-260.38 498.861,-251.19"/>
<polygon fill="midnightblue" stroke="midnightblue" points="530.53,-284.788 540.278,-288.937 535.245,-279.614 530.53,-284.788"/>
</g>
<!-- Node74 -->
<g id="node35" class="node"><title>Node74</title>
<a xlink:href="_exp_trigger_8h.html" target="_top" xlink:title="src/analysis/slowcontrol\l/processors/ExpTrigger.h">
<polygon fill="white" stroke="black" points="730,-217 730,-251 856,-251 856,-217 730,-217"/>
<text text-anchor="start" x="738" y="-238" font-family="Helvetica,sans-Serif" font-size="10.00">src/analysis/slowcontrol</text>
<text text-anchor="middle" x="793" y="-225" font-family="Helvetica,sans-Serif" font-size="10.00">/processors/ExpTrigger.h</text>
</a>
</g>
<!-- Node58&#45;&gt;Node74 -->
<g id="edge36" class="edge"><title>Node58&#45;&gt;Node74</title>
<path fill="none" stroke="midnightblue" d="M624.279,-285.914C659.914,-274.949 703.565,-261.519 737.538,-251.065"/>
<polygon fill="midnightblue" stroke="midnightblue" points="622.983,-282.651 614.455,-288.937 625.042,-289.341 622.983,-282.651"/>
</g>
<!-- Node76 -->
<g id="node40" class="node"><title>Node76</title>
<a xlink:href="processors_2_pair_spec_8h.html" target="_top" xlink:title="src/analysis/slowcontrol\l/processors/PairSpec.h">
<polygon fill="white" stroke="black" points="874,-217 874,-251 996,-251 996,-217 874,-217"/>
<text text-anchor="start" x="882" y="-238" font-family="Helvetica,sans-Serif" font-size="10.00">src/analysis/slowcontrol</text>
<text text-anchor="middle" x="935" y="-225" font-family="Helvetica,sans-Serif" font-size="10.00">/processors/PairSpec.h</text>
</a>
</g>
<!-- Node58&#45;&gt;Node76 -->
<g id="edge42" class="edge"><title>Node58&#45;&gt;Node76</title>
<path fill="none" stroke="midnightblue" d="M655.647,-290.902C716.05,-280.982 795.328,-267.082 865,-252 867.943,-251.363 870.95,-250.687 873.982,-249.985"/>
<polygon fill="midnightblue" stroke="midnightblue" points="655.045,-287.454 645.74,-292.521 656.174,-294.362 655.045,-287.454"/>
</g>
<!-- Node78 -->
<g id="node45" class="node"><title>Node78</title>
<a xlink:href="_tagger___scalers_8h.html" target="_top" xlink:title="src/analysis/slowcontrol\l/processors/Tagger_Scalers.h">
<polygon fill="white" stroke="black" points="565.5,-217 565.5,-251 712.5,-251 712.5,-217 565.5,-217"/>
<text text-anchor="start" x="573.5" y="-238" font-family="Helvetica,sans-Serif" font-size="10.00">src/analysis/slowcontrol</text>
<text text-anchor="middle" x="639" y="-225" font-family="Helvetica,sans-Serif" font-size="10.00">/processors/Tagger_Scalers.h</text>
</a>
</g>
<!-- Node58&#45;&gt;Node78 -->
<g id="edge48" class="edge"><title>Node58&#45;&gt;Node78</title>
<path fill="none" stroke="midnightblue" d="M585.443,-282.201C596.704,-272.067 609.59,-260.469 619.9,-251.19"/>
<polygon fill="midnightblue" stroke="midnightblue" points="583.05,-279.646 577.959,-288.937 587.733,-284.849 583.05,-279.646"/>
</g>
<!-- Node61 -->
<g id="node7" class="node"><title>Node61</title>
<a xlink:href="_beampolmon_8cc.html" target="_top" xlink:title="src/analysis/slowcontrol\l/processors/Beampolmon.cc">
<polygon fill="white" stroke="black" points="255.5,-145 255.5,-179 396.5,-179 396.5,-145 255.5,-145"/>
<text text-anchor="start" x="263.5" y="-166" font-family="Helvetica,sans-Serif" font-size="10.00">src/analysis/slowcontrol</text>
<text text-anchor="middle" x="326" y="-153" font-family="Helvetica,sans-Serif" font-size="10.00">/processors/Beampolmon.cc</text>
</a>
</g>
<!-- Node60&#45;&gt;Node61 -->
<g id="edge6" class="edge"><title>Node60&#45;&gt;Node61</title>
<path fill="none" stroke="midnightblue" d="M326,-206.719C326,-197.572 326,-187.625 326,-179.441"/>
<polygon fill="midnightblue" stroke="midnightblue" points="322.5,-206.937 326,-216.937 329.5,-206.937 322.5,-206.937"/>
</g>
<!-- Node62 -->
<g id="node9" class="node"><title>Node62</title>
<a xlink:href="_slow_control_processors_8h.html" target="_top" xlink:title="src/analysis/slowcontrol\l/SlowControlProcessors.h">
<polygon fill="white" stroke="black" points="573.5,-145 573.5,-179 704.5,-179 704.5,-145 573.5,-145"/>
<text text-anchor="start" x="581.5" y="-166" font-family="Helvetica,sans-Serif" font-size="10.00">src/analysis/slowcontrol</text>
<text text-anchor="middle" x="639" y="-153" font-family="Helvetica,sans-Serif" font-size="10.00">/SlowControlProcessors.h</text>
</a>
</g>
<!-- Node60&#45;&gt;Node62 -->
<g id="edge8" class="edge"><title>Node60&#45;&gt;Node62</title>
<path fill="none" stroke="midnightblue" d="M404.139,-215.741C467.137,-201.184 528.407,-187.179 573.365,-176.931"/>
<polygon fill="midnightblue" stroke="midnightblue" points="402.971,-212.419 394.016,-218.082 404.548,-219.239 402.971,-212.419"/>
</g>
<!-- Node63 -->
<g id="node11" class="node"><title>Node63</title>
<a xlink:href="_slow_control_manager_8h.html" target="_top" xlink:title="src/analysis/slowcontrol\l/SlowControlManager.h">
<polygon fill="white" stroke="black" points="148,-73 148,-107 270,-107 270,-73 148,-73"/>
<text text-anchor="start" x="156" y="-94" font-family="Helvetica,sans-Serif" font-size="10.00">src/analysis/slowcontrol</text>
<text text-anchor="middle" x="209" y="-81" font-family="Helvetica,sans-Serif" font-size="10.00">/SlowControlManager.h</text>
</a>
</g>
<!-- Node62&#45;&gt;Node63 -->
<g id="edge10" class="edge"><title>Node62&#45;&gt;Node63</title>
<path fill="none" stroke="midnightblue" d="M563.259,-149.698C496.962,-138.881 398.061,-122.625 312,-108 298.488,-105.704 283.987,-103.196 270.256,-100.802"/>
<polygon fill="midnightblue" stroke="midnightblue" points="562.772,-153.165 573.205,-151.32 563.899,-146.256 562.772,-153.165"/>
</g>
<!-- Node66 -->
<g id="node17" class="node"><title>Node66</title>
<a xlink:href="_test_slow_control_manager_8cc.html" target="_top" xlink:title="test/analysis/TestSlowControl\lManager.cc">
<polygon fill="white" stroke="black" points="266,-1 266,-35 414,-35 414,-1 266,-1"/>
<text text-anchor="start" x="274" y="-22" font-family="Helvetica,sans-Serif" font-size="10.00">test/analysis/TestSlowControl</text>
<text text-anchor="middle" x="340" y="-9" font-family="Helvetica,sans-Serif" font-size="10.00">Manager.cc</text>
</a>
</g>
<!-- Node62&#45;&gt;Node66 -->
<g id="edge30" class="edge"><title>Node62&#45;&gt;Node66</title>
<path fill="none" stroke="midnightblue" d="M563.127,-158.45C485.73,-153.092 373.115,-139.906 345,-108 327.515,-88.1576 330.937,-55.2908 335.282,-35.2433"/>
<polygon fill="midnightblue" stroke="midnightblue" points="563.119,-161.957 573.329,-159.125 563.582,-154.972 563.119,-161.957"/>
</g>
<!-- Node67 -->
<g id="node19" class="node"><title>Node67</title>
<a xlink:href="_slow_control_processors_8cc.html" target="_top" xlink:title="src/analysis/slowcontrol\l/SlowControlProcessors.cc">
<polygon fill="white" stroke="black" points="354,-73 354,-107 490,-107 490,-73 354,-73"/>
<text text-anchor="start" x="362" y="-94" font-family="Helvetica,sans-Serif" font-size="10.00">src/analysis/slowcontrol</text>
<text text-anchor="middle" x="422" y="-81" font-family="Helvetica,sans-Serif" font-size="10.00">/SlowControlProcessors.cc</text>
</a>
</g>
<!-- Node62&#45;&gt;Node67 -->
<g id="edge18" class="edge"><title>Node62&#45;&gt;Node67</title>
<path fill="none" stroke="midnightblue" d="M578.04,-141.774C545.071,-130.835 504.803,-117.474 473.432,-107.065"/>
<polygon fill="midnightblue" stroke="midnightblue" points="576.981,-145.11 587.574,-144.937 579.185,-138.466 576.981,-145.11"/>
</g>
<!-- Node68 -->
<g id="node21" class="node"><title>Node68</title>
<a xlink:href="_beam_8cc.html" target="_top" xlink:title="src/analysis/slowcontrol\l/variables/Beam.cc">
<polygon fill="white" stroke="black" points="508,-73 508,-107 630,-107 630,-73 508,-73"/>
<text text-anchor="start" x="516" y="-94" font-family="Helvetica,sans-Serif" font-size="10.00">src/analysis/slowcontrol</text>
<text text-anchor="middle" x="569" y="-81" font-family="Helvetica,sans-Serif" font-size="10.00">/variables/Beam.cc</text>
</a>
</g>
<!-- Node62&#45;&gt;Node68 -->
<g id="edge20" class="edge"><title>Node62&#45;&gt;Node68</title>
<path fill="none" stroke="midnightblue" d="M615.346,-137.671C605.706,-127.755 594.779,-116.515 585.956,-107.441"/>
<polygon fill="midnightblue" stroke="midnightblue" points="612.931,-140.207 622.411,-144.937 617.95,-135.327 612.931,-140.207"/>
</g>
<!-- Node69 -->
<g id="node23" class="node"><title>Node69</title>
<a xlink:href="_clocks_8cc.html" target="_top" xlink:title="src/analysis/slowcontrol\l/variables/Clocks.cc">
<polygon fill="white" stroke="black" points="648,-73 648,-107 770,-107 770,-73 648,-73"/>
<text text-anchor="start" x="656" y="-94" font-family="Helvetica,sans-Serif" font-size="10.00">src/analysis/slowcontrol</text>
<text text-anchor="middle" x="709" y="-81" font-family="Helvetica,sans-Serif" font-size="10.00">/variables/Clocks.cc</text>
</a>
</g>
<!-- Node62&#45;&gt;Node69 -->
<g id="edge22" class="edge"><title>Node62&#45;&gt;Node69</title>
<path fill="none" stroke="midnightblue" d="M662.654,-137.671C672.294,-127.755 683.221,-116.515 692.044,-107.441"/>
<polygon fill="midnightblue" stroke="midnightblue" points="660.05,-135.327 655.589,-144.937 665.069,-140.207 660.05,-135.327"/>
</g>
<!-- Node70 -->
<g id="node25" class="node"><title>Node70</title>
<a xlink:href="variables_2_pair_spec_8cc.html" target="_top" xlink:title="src/analysis/slowcontrol\l/variables/Pairspec.cc">
<polygon fill="white" stroke="black" points="788,-73 788,-107 910,-107 910,-73 788,-73"/>
<text text-anchor="start" x="796" y="-94" font-family="Helvetica,sans-Serif" font-size="10.00">src/analysis/slowcontrol</text>
<text text-anchor="middle" x="849" y="-81" font-family="Helvetica,sans-Serif" font-size="10.00">/variables/Pairspec.cc</text>
</a>
</g>
<!-- Node62&#45;&gt;Node70 -->
<g id="edge24" class="edge"><title>Node62&#45;&gt;Node70</title>
<path fill="none" stroke="midnightblue" d="M698.405,-141.633C730.233,-130.72 768.998,-117.429 799.227,-107.065"/>
<polygon fill="midnightblue" stroke="midnightblue" points="697.091,-138.383 688.767,-144.937 699.362,-145.005 697.091,-138.383"/>
</g>
<!-- Node71 -->
<g id="node27" class="node"><title>Node71</title>
<a xlink:href="_tagger_scalers_8cc.html" target="_top" xlink:title="src/analysis/slowcontrol\l/variables/TaggerScalers.cc">
<polygon fill="white" stroke="black" points="928,-73 928,-107 1066,-107 1066,-73 928,-73"/>
<text text-anchor="start" x="936" y="-94" font-family="Helvetica,sans-Serif" font-size="10.00">src/analysis/slowcontrol</text>
<text text-anchor="middle" x="997" y="-81" font-family="Helvetica,sans-Serif" font-size="10.00">/variables/TaggerScalers.cc</text>
</a>
</g>
<!-- Node62&#45;&gt;Node71 -->
<g id="edge26" class="edge"><title>Node62&#45;&gt;Node71</title>
<path fill="none" stroke="midnightblue" d="M714.768,-144.459C715.516,-144.304 716.26,-144.151 717,-144 806.346,-125.741 829.654,-126.259 919,-108 921.859,-107.416 924.775,-106.806 927.717,-106.179"/>
<polygon fill="midnightblue" stroke="midnightblue" points="713.969,-141.05 704.91,-146.544 715.418,-147.899 713.969,-141.05"/>
</g>
<!-- Node72 -->
<g id="node29" class="node"><title>Node72</title>
<a xlink:href="analysis_2slowcontrol_2variables_2_trigger_8cc.html" target="_top" xlink:title="src/analysis/slowcontrol\l/variables/Trigger.cc">
<polygon fill="white" stroke="black" points="1084,-73 1084,-107 1206,-107 1206,-73 1084,-73"/>
<text text-anchor="start" x="1092" y="-94" font-family="Helvetica,sans-Serif" font-size="10.00">src/analysis/slowcontrol</text>
<text text-anchor="middle" x="1145" y="-81" font-family="Helvetica,sans-Serif" font-size="10.00">/variables/Trigger.cc</text>
</a>
</g>
<!-- Node62&#45;&gt;Node72 -->
<g id="edge28" class="edge"><title>Node62&#45;&gt;Node72</title>
<path fill="none" stroke="midnightblue" d="M714.753,-144.378C715.505,-144.249 716.254,-144.123 717,-144 874.781,-117.969 917.556,-135.993 1075,-108 1077.84,-107.495 1080.74,-106.935 1083.66,-106.335"/>
<polygon fill="midnightblue" stroke="midnightblue" points="714.052,-140.948 704.844,-146.188 715.31,-147.834 714.052,-140.948"/>
</g>
<!-- Node64 -->
<g id="node13" class="node"><title>Node64</title>
<a xlink:href="_physics_manager_8cc.html" target="_top" xlink:title="src/analysis/physics\l/PhysicsManager.cc">
<polygon fill="white" stroke="black" points="142,-1 142,-35 248,-35 248,-1 142,-1"/>
<text text-anchor="start" x="150" y="-22" font-family="Helvetica,sans-Serif" font-size="10.00">src/analysis/physics</text>
<text text-anchor="middle" x="195" y="-9" font-family="Helvetica,sans-Serif" font-size="10.00">/PhysicsManager.cc</text>
</a>
</g>
<!-- Node63&#45;&gt;Node64 -->
<g id="edge12" class="edge"><title>Node63&#45;&gt;Node64</title>
<path fill="none" stroke="midnightblue" d="M203.753,-63.0173C201.959,-53.7884 200,-43.7144 198.391,-35.4407"/>
<polygon fill="midnightblue" stroke="midnightblue" points="200.338,-63.7889 205.682,-72.937 207.209,-62.4528 200.338,-63.7889"/>
</g>
<!-- Node65 -->
<g id="node15" class="node"><title>Node65</title>
<a xlink:href="_slow_control_manager_8cc.html" target="_top" xlink:title="src/analysis/slowcontrol\l/SlowControlManager.cc">
<polygon fill="white" stroke="black" points="0,-1 0,-35 124,-35 124,-1 0,-1"/>
<text text-anchor="start" x="8" y="-22" font-family="Helvetica,sans-Serif" font-size="10.00">src/analysis/slowcontrol</text>
<text text-anchor="middle" x="62" y="-9" font-family="Helvetica,sans-Serif" font-size="10.00">/SlowControlManager.cc</text>
</a>
</g>
<!-- Node63&#45;&gt;Node65 -->
<g id="edge14" class="edge"><title>Node63&#45;&gt;Node65</title>
<path fill="none" stroke="midnightblue" d="M165.095,-68.4954C143.272,-57.8069 117.272,-45.0718 96.8413,-35.0651"/>
<polygon fill="midnightblue" stroke="midnightblue" points="163.643,-71.6815 174.163,-72.937 166.722,-65.3951 163.643,-71.6815"/>
</g>
<!-- Node63&#45;&gt;Node66 -->
<g id="edge16" class="edge"><title>Node63&#45;&gt;Node66</title>
<path fill="none" stroke="midnightblue" d="M248.876,-68.0832C268.086,-57.5254 290.786,-45.049 308.724,-35.19"/>
<polygon fill="midnightblue" stroke="midnightblue" points="247.123,-65.0531 240.045,-72.937 250.495,-71.1876 247.123,-65.0531"/>
</g>
<!-- Node73&#45;&gt;Node62 -->
<g id="edge34" class="edge"><title>Node73&#45;&gt;Node62</title>
<path fill="none" stroke="midnightblue" d="M526.858,-212.781C550.59,-202.035 579.019,-189.161 601.314,-179.065"/>
<polygon fill="midnightblue" stroke="midnightblue" points="525.347,-209.624 517.681,-216.937 528.234,-216 525.347,-209.624"/>
</g>
<!-- Node74&#45;&gt;Node62 -->
<g id="edge40" class="edge"><title>Node74&#45;&gt;Node62</title>
<path fill="none" stroke="midnightblue" d="M747.31,-212.638C724.386,-201.921 696.999,-189.117 675.5,-179.065"/>
<polygon fill="midnightblue" stroke="midnightblue" points="745.963,-215.872 756.504,-216.937 748.928,-209.531 745.963,-215.872"/>
</g>
<!-- Node75 -->
<g id="node37" class="node"><title>Node75</title>
<a xlink:href="_exp_trigger_8cc.html" target="_top" xlink:title="src/analysis/slowcontrol\l/processors/ExpTrigger.cc">
<polygon fill="white" stroke="black" points="725.5,-145 725.5,-179 856.5,-179 856.5,-145 725.5,-145"/>
<text text-anchor="start" x="733.5" y="-166" font-family="Helvetica,sans-Serif" font-size="10.00">src/analysis/slowcontrol</text>
<text text-anchor="middle" x="791" y="-153" font-family="Helvetica,sans-Serif" font-size="10.00">/processors/ExpTrigger.cc</text>
</a>
</g>
<!-- Node74&#45;&gt;Node75 -->
<g id="edge38" class="edge"><title>Node74&#45;&gt;Node75</title>
<path fill="none" stroke="midnightblue" d="M792.242,-206.719C791.988,-197.572 791.712,-187.625 791.484,-179.441"/>
<polygon fill="midnightblue" stroke="midnightblue" points="788.75,-207.038 792.526,-216.937 795.747,-206.844 788.75,-207.038"/>
</g>
<!-- Node76&#45;&gt;Node62 -->
<g id="edge46" class="edge"><title>Node76&#45;&gt;Node62</title>
<path fill="none" stroke="midnightblue" d="M864.017,-215.774C804.753,-201.12 747.581,-187.499 704.836,-177.416"/>
<polygon fill="midnightblue" stroke="midnightblue" points="863.384,-219.223 873.932,-218.231 865.067,-212.429 863.384,-219.223"/>
</g>
<!-- Node77 -->
<g id="node42" class="node"><title>Node77</title>
<a xlink:href="processors_2_pair_spec_8cc.html" target="_top" xlink:title="src/analysis/slowcontrol\l/processors/PairSpec.cc">
<polygon fill="white" stroke="black" points="874,-145 874,-179 998,-179 998,-145 874,-145"/>
<text text-anchor="start" x="882" y="-166" font-family="Helvetica,sans-Serif" font-size="10.00">src/analysis/slowcontrol</text>
<text text-anchor="middle" x="936" y="-153" font-family="Helvetica,sans-Serif" font-size="10.00">/processors/PairSpec.cc</text>
</a>
</g>
<!-- Node76&#45;&gt;Node77 -->
<g id="edge44" class="edge"><title>Node76&#45;&gt;Node77</title>
<path fill="none" stroke="midnightblue" d="M935.379,-206.719C935.506,-197.572 935.644,-187.625 935.758,-179.441"/>
<polygon fill="midnightblue" stroke="midnightblue" points="931.876,-206.889 935.237,-216.937 938.876,-206.987 931.876,-206.889"/>
</g>
<!-- Node78&#45;&gt;Node62 -->
<g id="edge50" class="edge"><title>Node78&#45;&gt;Node62</title>
<path fill="none" stroke="midnightblue" d="M639,-206.719C639,-197.572 639,-187.625 639,-179.441"/>
<polygon fill="midnightblue" stroke="midnightblue" points="635.5,-206.937 639,-216.937 642.5,-206.937 635.5,-206.937"/>
</g>
</g>
</svg>
