<?xml version="1.0" encoding="UTF-8" standalone="no"?>
<!DOCTYPE svg PUBLIC "-//W3C//DTD SVG 1.1//EN"
 "http://www.w3.org/Graphics/SVG/1.1/DTD/svg11.dtd">
<!-- Generated by graphviz version 2.26.3 (20100126.1600)
 -->
<!-- Title: src/analysis/input/ant/AntReader.h Pages: 1 -->
<svg width="2234pt" height="376pt"
 viewBox="0.00 0.00 2234.41 376.00" xmlns="http://www.w3.org/2000/svg" xmlns:xlink="http://www.w3.org/1999/xlink">
<g id="graph1" class="graph" transform="scale(1 1) rotate(0) translate(4 372)">
<title>src/analysis/input/ant/AntReader.h</title>
<polygon fill="white" stroke="white" points="-4,5 -4,-372 2231.41,-372 2231.41,5 -4,5"/>
<!-- Node0 -->
<g id="node1" class="node"><title>Node0</title>
<polygon fill="#bfbfbf" stroke="black" points="762.908,-333 762.908,-367 855.908,-367 855.908,-333 762.908,-333"/>
<text text-anchor="start" x="770.908" y="-354" font-family="Helvetica,sans-Serif" font-size="10.00">src/analysis/input</text>
<text text-anchor="middle" x="809.408" y="-341" font-family="Helvetica,sans-Serif" font-size="10.00">/ant/AntReader.h</text>
</g>
<!-- Node1 -->
<g id="node3" class="node"><title>Node1</title>
<a xlink:href="_data_reader_8h.html" target="_top" xlink:title="analysis/input/DataReader.h">
<polygon fill="white" stroke="black" points="313.408,-267.5 313.408,-288.5 453.408,-288.5 453.408,-267.5 313.408,-267.5"/>
<text text-anchor="middle" x="383.408" y="-275.5" font-family="Helvetica,sans-Serif" font-size="10.00">analysis/input/DataReader.h</text>
</a>
</g>
<!-- Node0&#45;&gt;Node1 -->
<g id="edge2" class="edge"><title>Node0&#45;&gt;Node1</title>
<path fill="none" stroke="midnightblue" d="M762.6,-342.089C688.406,-329.549 543.25,-305.016 455.636,-290.208"/>
<polygon fill="midnightblue" stroke="midnightblue" points="456.214,-286.756 445.77,-288.54 455.047,-293.658 456.214,-286.756"/>
</g>
<!-- Node5 -->
<g id="node11" class="node"><title>Node5</title>
<polygon fill="white" stroke="#bfbfbf" points="185.408,-58.5 185.408,-79.5 237.408,-79.5 237.408,-58.5 185.408,-58.5"/>
<text text-anchor="middle" x="211.408" y="-66.5" font-family="Helvetica,sans-Serif" font-size="10.00">memory</text>
</g>
<!-- Node0&#45;&gt;Node5 -->
<g id="edge134" class="edge"><title>Node0&#45;&gt;Node5</title>
<path fill="none" stroke="midnightblue" d="M762.766,-347.393C673.278,-341.867 471.535,-326.87 304.408,-296 181.435,-273.286 118.442,-314.754 32.4078,-224 -0.932488,-188.831 -12.5545,-154.088 17.4078,-116 36.6613,-91.525 124.491,-78.2508 175.125,-72.5131"/>
<polygon fill="midnightblue" stroke="midnightblue" points="175.765,-75.9642 185.327,-71.4018 175.007,-69.0053 175.765,-75.9642"/>
</g>
<!-- Node7 -->
<g id="node15" class="node"><title>Node7</title>
<a xlink:href="_unpacker_8h.html" target="_top" xlink:title="unpacker/Unpacker.h">
<polygon fill="white" stroke="black" points="1026.41,-123.5 1026.41,-144.5 1136.41,-144.5 1136.41,-123.5 1026.41,-123.5"/>
<text text-anchor="middle" x="1081.41" y="-131.5" font-family="Helvetica,sans-Serif" font-size="10.00">unpacker/Unpacker.h</text>
</a>
</g>
<!-- Node0&#45;&gt;Node7 -->
<g id="edge14" class="edge"><title>Node0&#45;&gt;Node7</title>
<path fill="none" stroke="midnightblue" d="M831.207,-332.689C882.331,-292.091 1009.44,-191.154 1060.08,-150.933"/>
<polygon fill="midnightblue" stroke="midnightblue" points="1062.42,-153.545 1068.08,-144.586 1058.07,-148.064 1062.42,-153.545"/>
</g>
<!-- Node8 -->
<g id="node17" class="node"><title>Node8</title>
<polygon fill="white" stroke="#bfbfbf" points="1181.91,-58.5 1181.91,-79.5 1222.91,-79.5 1222.91,-58.5 1181.91,-58.5"/>
<text text-anchor="middle" x="1202.41" y="-66.5" font-family="Helvetica,sans-Serif" font-size="10.00">string</text>
</g>
<!-- Node0&#45;&gt;Node8 -->
<g id="edge136" class="edge"><title>Node0&#45;&gt;Node8</title>
<path fill="none" stroke="midnightblue" d="M856.087,-337.299C933.728,-313.79 1089.36,-256.144 1175.41,-152 1190.2,-134.104 1196.95,-107.902 1200,-89.7446"/>
<polygon fill="midnightblue" stroke="midnightblue" points="1203.49,-90.0209 1201.45,-79.6249 1196.56,-89.0258 1203.49,-90.0209"/>
</g>
<!-- Node9 -->
<g id="node20" class="node"><title>Node9</title>
<a xlink:href="_reconstruct__traits_8h.html" target="_top" xlink:title="reconstruct/Reconstruct\l_traits.h">
<polygon fill="white" stroke="black" points="670.408,-261 670.408,-295 792.408,-295 792.408,-261 670.408,-261"/>
<text text-anchor="start" x="678.408" y="-282" font-family="Helvetica,sans-Serif" font-size="10.00">reconstruct/Reconstruct</text>
<text text-anchor="middle" x="731.408" y="-269" font-family="Helvetica,sans-Serif" font-size="10.00">_traits.h</text>
</a>
</g>
<!-- Node0&#45;&gt;Node9 -->
<g id="edge20" class="edge"><title>Node0&#45;&gt;Node9</title>
<path fill="none" stroke="midnightblue" d="M790.923,-332.937C780.99,-323.768 768.575,-312.308 757.658,-302.231"/>
<polygon fill="midnightblue" stroke="midnightblue" points="759.752,-299.401 750.03,-295.19 755.004,-304.545 759.752,-299.401"/>
</g>
<!-- Node29 -->
<g id="node74" class="node"><title>Node29</title>
<a xlink:href="_wrap_t_file_8h.html" target="_top" xlink:title="base/WrapTFile.h">
<polygon fill="white" stroke="black" points="1606.41,-195.5 1606.41,-216.5 1700.41,-216.5 1700.41,-195.5 1606.41,-195.5"/>
<text text-anchor="middle" x="1653.41" y="-203.5" font-family="Helvetica,sans-Serif" font-size="10.00">base/WrapTFile.h</text>
</a>
</g>
<!-- Node0&#45;&gt;Node29 -->
<g id="edge88" class="edge"><title>Node0&#45;&gt;Node29</title>
<path fill="none" stroke="midnightblue" d="M855.958,-344.916C931.739,-336.396 1086.39,-317.986 1216.41,-296 1354.25,-272.693 1514.92,-237.519 1597.73,-218.793"/>
<polygon fill="midnightblue" stroke="midnightblue" points="1598.7,-222.162 1607.68,-216.538 1597.15,-215.335 1598.7,-222.162"/>
</g>
<!-- Node2 -->
<g id="node5" class="node"><title>Node2</title>
<a xlink:href="input_2event__t_8h.html" target="_top" xlink:title="event_t.h">
<polygon fill="white" stroke="black" points="40.9078,-195.5 40.9078,-216.5 97.9078,-216.5 97.9078,-195.5 40.9078,-195.5"/>
<text text-anchor="middle" x="69.4078" y="-203.5" font-family="Helvetica,sans-Serif" font-size="10.00">event_t.h</text>
</a>
</g>
<!-- Node1&#45;&gt;Node2 -->
<g id="edge4" class="edge"><title>Node1&#45;&gt;Node2</title>
<path fill="none" stroke="midnightblue" d="M315.446,-267.466C261.031,-258.266 183.056,-243.356 116.408,-224 112.553,-222.881 108.569,-221.583 104.625,-220.208"/>
<polygon fill="midnightblue" stroke="midnightblue" points="105.596,-216.836 95.0025,-216.686 103.19,-223.41 105.596,-216.836"/>
</g>
<!-- Node3 -->
<g id="node7" class="node"><title>Node3</title>
<a xlink:href="_t_event_8h.html" target="_top" xlink:title="tree/TEvent.h">
<polygon fill="white" stroke="black" points="26.4078,-123.5 26.4078,-144.5 102.408,-144.5 102.408,-123.5 26.4078,-123.5"/>
<text text-anchor="middle" x="64.4078" y="-131.5" font-family="Helvetica,sans-Serif" font-size="10.00">tree/TEvent.h</text>
</a>
</g>
<!-- Node2&#45;&gt;Node3 -->
<g id="edge6" class="edge"><title>Node2&#45;&gt;Node3</title>
<path fill="none" stroke="midnightblue" d="M68.6701,-195.376C67.9315,-184.741 66.7755,-168.095 65.8536,-154.82"/>
<polygon fill="midnightblue" stroke="midnightblue" points="69.3331,-154.401 65.1486,-144.667 62.3499,-154.886 69.3331,-154.401"/>
</g>
<!-- Node4 -->
<g id="node9" class="node"><title>Node4</title>
<polygon fill="white" stroke="#bfbfbf" points="36.4078,-58.5 36.4078,-79.5 92.4078,-79.5 92.4078,-58.5 36.4078,-58.5"/>
<text text-anchor="middle" x="64.4078" y="-66.5" font-family="Helvetica,sans-Serif" font-size="10.00">Rtypes.h</text>
</g>
<!-- Node3&#45;&gt;Node4 -->
<g id="edge8" class="edge"><title>Node3&#45;&gt;Node4</title>
<path fill="none" stroke="midnightblue" d="M64.4078,-123.267C64.4078,-114.18 64.4078,-100.892 64.4078,-89.7395"/>
<polygon fill="midnightblue" stroke="midnightblue" points="67.9079,-89.5337 64.4078,-79.5337 60.9079,-89.5337 67.9079,-89.5337"/>
</g>
<!-- Node3&#45;&gt;Node5 -->
<g id="edge10" class="edge"><title>Node3&#45;&gt;Node5</title>
<path fill="none" stroke="midnightblue" d="M88.3531,-123.412C112.806,-112.6 150.955,-95.7308 178.294,-83.6422"/>
<polygon fill="midnightblue" stroke="midnightblue" points="179.742,-86.8287 187.473,-79.5835 176.912,-80.4266 179.742,-86.8287"/>
</g>
<!-- Node6 -->
<g id="node13" class="node"><title>Node6</title>
<polygon fill="white" stroke="#bfbfbf" points="900.908,-58.5 900.908,-79.5 959.908,-79.5 959.908,-58.5 900.908,-58.5"/>
<text text-anchor="middle" x="930.408" y="-66.5" font-family="Helvetica,sans-Serif" font-size="10.00">stdexcept</text>
</g>
<!-- Node3&#45;&gt;Node6 -->
<g id="edge12" class="edge"><title>Node3&#45;&gt;Node6</title>
<path fill="none" stroke="midnightblue" d="M102.523,-127.475C126.759,-123.562 158.842,-118.813 187.408,-116 496.285,-85.5814 581.182,-130.97 890.53,-80.0011"/>
<polygon fill="midnightblue" stroke="midnightblue" points="891.4,-83.4045 900.687,-78.3065 890.248,-76.4999 891.4,-83.4045"/>
</g>
<!-- Node7&#45;&gt;Node5 -->
<g id="edge18" class="edge"><title>Node7&#45;&gt;Node5</title>
<path fill="none" stroke="midnightblue" d="M1026.14,-127.847C991.018,-124.077 944.582,-119.35 903.408,-116 644.216,-94.9142 578.592,-101.179 319.408,-80 295.464,-78.0435 268.59,-75.3082 247.638,-73.0548"/>
<polygon fill="midnightblue" stroke="midnightblue" points="247.889,-69.5615 237.569,-71.96 247.132,-76.5205 247.889,-69.5615"/>
</g>
<!-- Node7&#45;&gt;Node8 -->
<g id="edge16" class="edge"><title>Node7&#45;&gt;Node8</title>
<path fill="none" stroke="midnightblue" d="M1101.12,-123.412C1120.81,-112.836 1151.28,-96.4645 1173.66,-84.4408"/>
<polygon fill="midnightblue" stroke="midnightblue" points="1175.55,-87.3992 1182.71,-79.5835 1172.24,-81.2326 1175.55,-87.3992"/>
</g>
<!-- Node9&#45;&gt;Node5 -->
<g id="edge80" class="edge"><title>Node9&#45;&gt;Node5</title>
<path fill="none" stroke="midnightblue" d="M670.25,-273.754C533.385,-263.995 212.977,-239.605 195.408,-224 159.129,-191.776 165.12,-162.373 179.408,-116 182.567,-105.747 188.812,-95.7278 194.952,-87.5925"/>
<polygon fill="midnightblue" stroke="midnightblue" points="197.862,-89.5603 201.424,-79.5822 192.417,-85.1612 197.862,-89.5603"/>
</g>
<!-- Node10 -->
<g id="node22" class="node"><title>Node10</title>
<a xlink:href="_detector__t_8h.html" target="_top" xlink:title="base/Detector_t.h">
<polygon fill="white" stroke="black" points="724.908,-195.5 724.908,-216.5 819.908,-216.5 819.908,-195.5 724.908,-195.5"/>
<text text-anchor="middle" x="772.408" y="-203.5" font-family="Helvetica,sans-Serif" font-size="10.00">base/Detector_t.h</text>
</a>
</g>
<!-- Node9&#45;&gt;Node10 -->
<g id="edge22" class="edge"><title>Node9&#45;&gt;Node10</title>
<path fill="none" stroke="midnightblue" d="M741.124,-260.937C747.132,-250.387 754.866,-236.805 761.141,-225.785"/>
<polygon fill="midnightblue" stroke="midnightblue" points="764.293,-227.323 766.2,-216.901 758.21,-223.859 764.293,-227.323"/>
</g>
<!-- Node22 -->
<g id="node51" class="node"><title>Node22</title>
<a xlink:href="mapped__vectors_8h.html" target="_top" xlink:title="base/std_ext/mapped\l_vectors.h">
<polygon fill="white" stroke="black" points="204.408,-189 204.408,-223 314.408,-223 314.408,-189 204.408,-189"/>
<text text-anchor="start" x="212.408" y="-210" font-family="Helvetica,sans-Serif" font-size="10.00">base/std_ext/mapped</text>
<text text-anchor="middle" x="259.408" y="-197" font-family="Helvetica,sans-Serif" font-size="10.00">_vectors.h</text>
</a>
</g>
<!-- Node9&#45;&gt;Node22 -->
<g id="edge56" class="edge"><title>Node9&#45;&gt;Node22</title>
<path fill="none" stroke="midnightblue" d="M670.265,-272.154C590.97,-264.037 448.58,-247.634 328.408,-224 327.144,-223.751 325.868,-223.493 324.585,-223.227"/>
<polygon fill="midnightblue" stroke="midnightblue" points="325.151,-219.768 314.633,-221.04 323.649,-226.605 325.151,-219.768"/>
</g>
<!-- Node24 -->
<g id="node56" class="node"><title>Node24</title>
<polygon fill="white" stroke="#bfbfbf" points="327.908,-58.5 327.908,-79.5 356.908,-79.5 356.908,-58.5 327.908,-58.5"/>
<text text-anchor="middle" x="342.408" y="-66.5" font-family="Helvetica,sans-Serif" font-size="10.00">list</text>
</g>
<!-- Node9&#45;&gt;Node24 -->
<g id="edge84" class="edge"><title>Node9&#45;&gt;Node24</title>
<path fill="none" stroke="midnightblue" d="M670.372,-264.796C576.538,-243.292 403.274,-198.425 361.408,-152 346.087,-135.011 342.346,-108.23 341.784,-89.705"/>
<polygon fill="midnightblue" stroke="midnightblue" points="345.284,-89.636 341.762,-79.6434 338.284,-89.6508 345.284,-89.636"/>
</g>
<!-- Node25 -->
<g id="node61" class="node"><title>Node25</title>
<a xlink:href="shared__ptr__container_8h.html" target="_top" xlink:title="base/std_ext/shared\l_ptr_container.h">
<polygon fill="white" stroke="black" points="1267.91,-117 1267.91,-151 1372.91,-151 1372.91,-117 1267.91,-117"/>
<text text-anchor="start" x="1275.91" y="-138" font-family="Helvetica,sans-Serif" font-size="10.00">base/std_ext/shared</text>
<text text-anchor="middle" x="1320.41" y="-125" font-family="Helvetica,sans-Serif" font-size="10.00">_ptr_container.h</text>
</a>
</g>
<!-- Node9&#45;&gt;Node25 -->
<g id="edge70" class="edge"><title>Node9&#45;&gt;Node25</title>
<path fill="none" stroke="midnightblue" d="M792.498,-263.064C905.049,-235.548 1144.02,-177.124 1257.74,-149.321"/>
<polygon fill="midnightblue" stroke="midnightblue" points="1258.8,-152.664 1267.69,-146.889 1257.14,-145.864 1258.8,-152.664"/>
</g>
<!-- Node26 -->
<g id="node65" class="node"><title>Node26</title>
<polygon fill="white" stroke="#bfbfbf" points="2028.91,-58.5 2028.91,-79.5 2087.91,-79.5 2087.91,-58.5 2028.91,-58.5"/>
<text text-anchor="middle" x="2058.41" y="-66.5" font-family="Helvetica,sans-Serif" font-size="10.00">functional</text>
</g>
<!-- Node9&#45;&gt;Node26 -->
<g id="edge86" class="edge"><title>Node9&#45;&gt;Node26</title>
<path fill="none" stroke="midnightblue" d="M792.635,-275.802C977.907,-268.962 1530.75,-247.128 1709.41,-224 1867.34,-203.555 1959.75,-275.402 2060.41,-152 2074.57,-134.633 2070.79,-107.745 2065.64,-89.307"/>
<polygon fill="midnightblue" stroke="midnightblue" points="2068.92,-88.0515 2062.58,-79.5636 2062.24,-90.1531 2068.92,-88.0515"/>
</g>
<!-- Node28 -->
<g id="node70" class="node"><title>Node28</title>
<polygon fill="white" stroke="#bfbfbf" points="672.908,-195.5 672.908,-216.5 707.908,-216.5 707.908,-195.5 672.908,-195.5"/>
<text text-anchor="middle" x="690.408" y="-203.5" font-family="Helvetica,sans-Serif" font-size="10.00">map</text>
</g>
<!-- Node9&#45;&gt;Node28 -->
<g id="edge82" class="edge"><title>Node9&#45;&gt;Node28</title>
<path fill="none" stroke="midnightblue" d="M721.691,-260.937C715.684,-250.387 707.95,-236.805 701.674,-225.785"/>
<polygon fill="midnightblue" stroke="midnightblue" points="704.605,-223.859 696.615,-216.901 698.522,-227.323 704.605,-223.859"/>
</g>
<!-- Node10&#45;&gt;Node6 -->
<g id="edge48" class="edge"><title>Node10&#45;&gt;Node6</title>
<path fill="none" stroke="midnightblue" d="M819.942,-196.859C847.719,-189.227 881.509,-175.641 903.408,-152 919.344,-134.796 925.879,-108.06 928.557,-89.6043"/>
<polygon fill="midnightblue" stroke="midnightblue" points="932.042,-89.9298 929.752,-79.5856 925.092,-89.1006 932.042,-89.9298"/>
</g>
<!-- Node10&#45;&gt;Node8 -->
<g id="edge50" class="edge"><title>Node10&#45;&gt;Node8</title>
<path fill="none" stroke="midnightblue" d="M820,-203.82C907.971,-199.034 1091.93,-185.261 1145.41,-152 1169.17,-137.22 1185.51,-108.466 1194.41,-88.9959"/>
<polygon fill="midnightblue" stroke="midnightblue" points="1197.63,-90.3519 1198.39,-79.7837 1191.21,-87.5767 1197.63,-90.3519"/>
</g>
<!-- Node11 -->
<g id="node24" class="node"><title>Node11</title>
<a xlink:href="bitflag_8h.html" target="_top" xlink:title="base/bitflag.h">
<polygon fill="white" stroke="black" points="449.908,-123.5 449.908,-144.5 524.908,-144.5 524.908,-123.5 449.908,-123.5"/>
<text text-anchor="middle" x="487.408" y="-131.5" font-family="Helvetica,sans-Serif" font-size="10.00">base/bitflag.h</text>
</a>
</g>
<!-- Node10&#45;&gt;Node11 -->
<g id="edge24" class="edge"><title>Node10&#45;&gt;Node11</title>
<path fill="none" stroke="midnightblue" d="M741.787,-195.446C733.598,-192.819 724.714,-190.144 716.408,-188 636.147,-167.282 612.988,-175.196 533.408,-152 529.536,-150.871 525.534,-149.55 521.58,-148.145"/>
<polygon fill="midnightblue" stroke="midnightblue" points="522.547,-144.769 511.955,-144.54 520.093,-151.325 522.547,-144.769"/>
</g>
<!-- Node13 -->
<g id="node28" class="node"><title>Node13</title>
<a xlink:href="vec3_8h.html" target="_top" xlink:title="base/vec/vec3.h">
<polygon fill="white" stroke="black" points="681.908,-123.5 681.908,-144.5 770.908,-144.5 770.908,-123.5 681.908,-123.5"/>
<text text-anchor="middle" x="726.408" y="-131.5" font-family="Helvetica,sans-Serif" font-size="10.00">base/vec/vec3.h</text>
</a>
</g>
<!-- Node10&#45;&gt;Node13 -->
<g id="edge28" class="edge"><title>Node10&#45;&gt;Node13</title>
<path fill="none" stroke="midnightblue" d="M765.62,-195.376C758.554,-184.316 747.334,-166.753 738.702,-153.243"/>
<polygon fill="midnightblue" stroke="midnightblue" points="741.557,-151.21 733.223,-144.667 735.658,-154.979 741.557,-151.21"/>
</g>
<!-- Node17 -->
<g id="node37" class="node"><title>Node17</title>
<a xlink:href="base_2std__ext_2math_8h.html" target="_top" xlink:title="base/std_ext/math.h">
<polygon fill="white" stroke="black" points="788.408,-123.5 788.408,-144.5 894.408,-144.5 894.408,-123.5 788.408,-123.5"/>
<text text-anchor="middle" x="841.408" y="-131.5" font-family="Helvetica,sans-Serif" font-size="10.00">base/std_ext/math.h</text>
</a>
</g>
<!-- Node10&#45;&gt;Node17 -->
<g id="edge38" class="edge"><title>Node10&#45;&gt;Node17</title>
<path fill="none" stroke="midnightblue" d="M782.589,-195.376C793.494,-183.997 810.995,-165.735 824.077,-152.085"/>
<polygon fill="midnightblue" stroke="midnightblue" points="826.793,-154.309 831.185,-144.667 821.739,-149.466 826.793,-154.309"/>
</g>
<!-- Node19 -->
<g id="node42" class="node"><title>Node19</title>
<polygon fill="white" stroke="#bfbfbf" points="977.408,-58.5 977.408,-79.5 1021.41,-79.5 1021.41,-58.5 977.408,-58.5"/>
<text text-anchor="middle" x="999.408" y="-66.5" font-family="Helvetica,sans-Serif" font-size="10.00">vector</text>
</g>
<!-- Node10&#45;&gt;Node19 -->
<g id="edge54" class="edge"><title>Node10&#45;&gt;Node19</title>
<path fill="none" stroke="midnightblue" d="M820.313,-198.687C872.836,-189.746 952.576,-173.158 974.408,-152 991.222,-135.705 996.833,-108.558 998.647,-89.7693"/>
<polygon fill="midnightblue" stroke="midnightblue" points="1002.15,-89.7854 999.343,-79.5703 995.17,-89.3089 1002.15,-89.7854"/>
</g>
<!-- Node20 -->
<g id="node44" class="node"><title>Node20</title>
<polygon fill="white" stroke="#bfbfbf" points="542.408,-123.5 542.408,-144.5 588.408,-144.5 588.408,-123.5 542.408,-123.5"/>
<text text-anchor="middle" x="565.408" y="-131.5" font-family="Helvetica,sans-Serif" font-size="10.00">cstdint</text>
</g>
<!-- Node10&#45;&gt;Node20 -->
<g id="edge46" class="edge"><title>Node10&#45;&gt;Node20</title>
<path fill="none" stroke="midnightblue" d="M739.548,-195.407C731.952,-192.967 723.9,-190.387 716.408,-188 665.782,-171.87 651.764,-171.675 602.408,-152 600.027,-151.051 597.587,-150.015 595.151,-148.934"/>
<polygon fill="midnightblue" stroke="midnightblue" points="596.453,-145.679 585.91,-144.637 593.502,-152.027 596.453,-145.679"/>
</g>
<!-- Node21 -->
<g id="node48" class="node"><title>Node21</title>
<polygon fill="white" stroke="#bfbfbf" points="370.408,-123.5 370.408,-144.5 432.408,-144.5 432.408,-123.5 370.408,-123.5"/>
<text text-anchor="middle" x="401.408" y="-131.5" font-family="Helvetica,sans-Serif" font-size="10.00">type_traits</text>
</g>
<!-- Node10&#45;&gt;Node21 -->
<g id="edge52" class="edge"><title>Node10&#45;&gt;Node21</title>
<path fill="none" stroke="midnightblue" d="M743.039,-195.459C734.534,-192.708 725.177,-189.966 716.408,-188 596.13,-161.03 559.99,-185.652 441.408,-152 438.008,-151.035 434.527,-149.829 431.105,-148.5"/>
<polygon fill="midnightblue" stroke="midnightblue" points="432.309,-145.209 421.736,-144.53 429.577,-151.654 432.309,-145.209"/>
</g>
<!-- Node12 -->
<g id="node26" class="node"><title>Node12</title>
<polygon fill="white" stroke="#bfbfbf" points="466.908,-58.5 466.908,-79.5 507.908,-79.5 507.908,-58.5 466.908,-58.5"/>
<text text-anchor="middle" x="487.408" y="-66.5" font-family="Helvetica,sans-Serif" font-size="10.00">bitset</text>
</g>
<!-- Node11&#45;&gt;Node12 -->
<g id="edge26" class="edge"><title>Node11&#45;&gt;Node12</title>
<path fill="none" stroke="midnightblue" d="M487.408,-123.267C487.408,-114.18 487.408,-100.892 487.408,-89.7395"/>
<polygon fill="midnightblue" stroke="midnightblue" points="490.908,-89.5337 487.408,-79.5337 483.908,-89.5337 490.908,-89.5337"/>
</g>
<!-- Node14 -->
<g id="node30" class="node"><title>Node14</title>
<a xlink:href="vec2_8h.html" target="_top" xlink:title="vec2.h">
<polygon fill="white" stroke="black" points="703.408,-58.5 703.408,-79.5 749.408,-79.5 749.408,-58.5 703.408,-58.5"/>
<text text-anchor="middle" x="726.408" y="-66.5" font-family="Helvetica,sans-Serif" font-size="10.00">vec2.h</text>
</a>
</g>
<!-- Node13&#45;&gt;Node14 -->
<g id="edge30" class="edge"><title>Node13&#45;&gt;Node14</title>
<path fill="none" stroke="midnightblue" d="M726.408,-123.267C726.408,-114.18 726.408,-100.892 726.408,-89.7395"/>
<polygon fill="midnightblue" stroke="midnightblue" points="729.908,-89.5337 726.408,-79.5337 722.908,-89.5337 729.908,-89.5337"/>
</g>
<!-- Node15 -->
<g id="node32" class="node"><title>Node15</title>
<polygon fill="white" stroke="#bfbfbf" points="774.408,-0.5 774.408,-21.5 818.408,-21.5 818.408,-0.5 774.408,-0.5"/>
<text text-anchor="middle" x="796.408" y="-8.5" font-family="Helvetica,sans-Serif" font-size="10.00">cmath</text>
</g>
<!-- Node13&#45;&gt;Node15 -->
<g id="edge36" class="edge"><title>Node13&#45;&gt;Node15</title>
<path fill="none" stroke="midnightblue" d="M732.883,-123.301C739.419,-112.448 749.757,-95.1384 758.408,-80 767.799,-63.5662 778.143,-44.7334 785.665,-30.8993"/>
<polygon fill="midnightblue" stroke="midnightblue" points="788.9,-32.2746 790.589,-21.8152 782.746,-28.9389 788.9,-32.2746"/>
</g>
<!-- Node16 -->
<g id="node34" class="node"><title>Node16</title>
<polygon fill="white" stroke="#bfbfbf" points="633.408,-58.5 633.408,-79.5 685.408,-79.5 685.408,-58.5 633.408,-58.5"/>
<text text-anchor="middle" x="659.408" y="-66.5" font-family="Helvetica,sans-Serif" font-size="10.00">ostream</text>
</g>
<!-- Node13&#45;&gt;Node16 -->
<g id="edge34" class="edge"><title>Node13&#45;&gt;Node16</title>
<path fill="none" stroke="midnightblue" d="M715.344,-123.267C705.1,-113.328 689.675,-98.3635 677.616,-86.6645"/>
<polygon fill="midnightblue" stroke="midnightblue" points="679.88,-83.9848 670.266,-79.5337 675.006,-89.009 679.88,-83.9848"/>
</g>
<!-- Node14&#45;&gt;Node15 -->
<g id="edge32" class="edge"><title>Node14&#45;&gt;Node15</title>
<path fill="none" stroke="midnightblue" d="M739.247,-58.3619C749.41,-49.9408 763.809,-38.0105 775.612,-28.2308"/>
<polygon fill="midnightblue" stroke="midnightblue" points="778.183,-30.6459 783.65,-21.5707 773.717,-25.2558 778.183,-30.6459"/>
</g>
<!-- Node17&#45;&gt;Node15 -->
<g id="edge40" class="edge"><title>Node17&#45;&gt;Node15</title>
<path fill="none" stroke="midnightblue" d="M837.414,-123.085C829.89,-102.518 813.506,-57.7354 803.881,-31.4262"/>
<polygon fill="midnightblue" stroke="midnightblue" points="807.051,-29.904 800.328,-21.7153 800.477,-32.3091 807.051,-29.904"/>
</g>
<!-- Node18 -->
<g id="node40" class="node"><title>Node18</title>
<polygon fill="white" stroke="#bfbfbf" points="843.408,-58.5 843.408,-79.5 883.408,-79.5 883.408,-58.5 843.408,-58.5"/>
<text text-anchor="middle" x="863.408" y="-66.5" font-family="Helvetica,sans-Serif" font-size="10.00">limits</text>
</g>
<!-- Node17&#45;&gt;Node18 -->
<g id="edge42" class="edge"><title>Node17&#45;&gt;Node18</title>
<path fill="none" stroke="midnightblue" d="M845.041,-123.267C848.18,-113.991 852.802,-100.336 856.623,-89.0453"/>
<polygon fill="midnightblue" stroke="midnightblue" points="859.952,-90.128 859.843,-79.5337 853.321,-87.8838 859.952,-90.128"/>
</g>
<!-- Node17&#45;&gt;Node19 -->
<g id="edge44" class="edge"><title>Node17&#45;&gt;Node19</title>
<path fill="none" stroke="midnightblue" d="M867.145,-123.412C894.642,-112.1 938.253,-94.1586 967.813,-81.9979"/>
<polygon fill="midnightblue" stroke="midnightblue" points="969.339,-85.1548 977.255,-78.1134 966.676,-78.6812 969.339,-85.1548"/>
</g>
<!-- Node22&#45;&gt;Node5 -->
<g id="edge66" class="edge"><title>Node22&#45;&gt;Node5</title>
<path fill="none" stroke="midnightblue" d="M224.122,-188.821C209.994,-179.945 195.234,-167.652 187.408,-152 177.107,-131.397 187.8,-105.646 198.007,-88.337"/>
<polygon fill="midnightblue" stroke="midnightblue" points="201.098,-89.9966 203.491,-79.6754 195.184,-86.252 201.098,-89.9966"/>
</g>
<!-- Node22&#45;&gt;Node19 -->
<g id="edge64" class="edge"><title>Node22&#45;&gt;Node19</title>
<path fill="none" stroke="midnightblue" d="M314.481,-203.337C460.451,-196.004 849.793,-174.559 903.408,-152 936.992,-137.869 967.247,-107.358 984.46,-87.5275"/>
<polygon fill="midnightblue" stroke="midnightblue" points="987.238,-89.662 991.01,-79.7612 981.887,-85.1491 987.238,-89.662"/>
</g>
<!-- Node22&#45;&gt;Node21 -->
<g id="edge68" class="edge"><title>Node22&#45;&gt;Node21</title>
<path fill="none" stroke="midnightblue" d="M293.06,-188.937C316.847,-176.876 348.453,-160.85 371.387,-149.222"/>
<polygon fill="midnightblue" stroke="midnightblue" points="372.992,-152.332 380.329,-144.688 369.827,-146.089 372.992,-152.332"/>
</g>
<!-- Node23 -->
<g id="node53" class="node"><title>Node23</title>
<a xlink:href="memory_8h.html" target="_top" xlink:title="base/std_ext/memory.h">
<polygon fill="white" stroke="black" points="195.908,-123.5 195.908,-144.5 314.908,-144.5 314.908,-123.5 195.908,-123.5"/>
<text text-anchor="middle" x="255.408" y="-131.5" font-family="Helvetica,sans-Serif" font-size="10.00">base/std_ext/memory.h</text>
</a>
</g>
<!-- Node22&#45;&gt;Node23 -->
<g id="edge58" class="edge"><title>Node22&#45;&gt;Node23</title>
<path fill="none" stroke="midnightblue" d="M258.46,-188.937C257.897,-178.814 257.18,-165.898 256.582,-155.133"/>
<polygon fill="midnightblue" stroke="midnightblue" points="260.063,-154.691 256.013,-144.901 253.074,-155.08 260.063,-154.691"/>
</g>
<!-- Node23&#45;&gt;Node5 -->
<g id="edge60" class="edge"><title>Node23&#45;&gt;Node5</title>
<path fill="none" stroke="midnightblue" d="M248.142,-123.267C241.671,-113.707 232.052,-99.4964 224.28,-88.0152"/>
<polygon fill="midnightblue" stroke="midnightblue" points="227.042,-85.8528 218.538,-79.5337 221.246,-89.7768 227.042,-85.8528"/>
</g>
<!-- Node23&#45;&gt;Node24 -->
<g id="edge62" class="edge"><title>Node23&#45;&gt;Node24</title>
<path fill="none" stroke="midnightblue" d="M269.774,-123.267C283.457,-113.044 304.256,-97.5043 320.096,-85.6699"/>
<polygon fill="midnightblue" stroke="midnightblue" points="322.393,-88.3229 328.309,-79.5337 318.203,-82.7151 322.393,-88.3229"/>
</g>
<!-- Node25&#45;&gt;Node5 -->
<g id="edge74" class="edge"><title>Node25&#45;&gt;Node5</title>
<path fill="none" stroke="midnightblue" d="M1267.64,-127.754C1232.95,-123.849 1186.53,-119.008 1145.41,-116 778.928,-89.1896 685.901,-106.628 319.408,-80 295.448,-78.2591 268.573,-75.5248 247.626,-73.2179"/>
<polygon fill="midnightblue" stroke="midnightblue" points="247.886,-69.7253 237.559,-72.0921 247.108,-76.6819 247.886,-69.7253"/>
</g>
<!-- Node25&#45;&gt;Node19 -->
<g id="edge72" class="edge"><title>Node25&#45;&gt;Node19</title>
<path fill="none" stroke="midnightblue" d="M1267.55,-119.165C1263.12,-118.048 1258.69,-116.977 1254.41,-116 1174.88,-97.8597 1080.18,-81.8518 1031.62,-74.0463"/>
<polygon fill="midnightblue" stroke="midnightblue" points="1032.13,-70.5833 1021.71,-72.463 1031.03,-77.4958 1032.13,-70.5833"/>
</g>
<!-- Node25&#45;&gt;Node26 -->
<g id="edge76" class="edge"><title>Node25&#45;&gt;Node26</title>
<path fill="none" stroke="midnightblue" d="M1372.91,-123.38C1387.88,-120.644 1404.24,-117.931 1419.41,-116 1645.08,-87.2678 1918,-74.447 2018.65,-70.4521"/>
<polygon fill="midnightblue" stroke="midnightblue" points="2018.82,-73.9481 2028.68,-70.0608 2018.55,-66.9534 2018.82,-73.9481"/>
</g>
<!-- Node27 -->
<g id="node67" class="node"><title>Node27</title>
<polygon fill="white" stroke="#bfbfbf" points="1490.41,-58.5 1490.41,-79.5 1546.41,-79.5 1546.41,-58.5 1490.41,-58.5"/>
<text text-anchor="middle" x="1518.41" y="-66.5" font-family="Helvetica,sans-Serif" font-size="10.00">algorithm</text>
</g>
<!-- Node25&#45;&gt;Node27 -->
<g id="edge78" class="edge"><title>Node25&#45;&gt;Node27</title>
<path fill="none" stroke="midnightblue" d="M1372.43,-116.922C1406.3,-105.804 1449.71,-91.5509 1480.37,-81.4884"/>
<polygon fill="midnightblue" stroke="midnightblue" points="1481.83,-84.6916 1490.24,-78.2471 1479.65,-78.0408 1481.83,-84.6916"/>
</g>
<!-- Node29&#45;&gt;Node5 -->
<g id="edge122" class="edge"><title>Node29&#45;&gt;Node5</title>
<path fill="none" stroke="midnightblue" d="M1606.25,-205.599C1417.1,-203.707 719.278,-193.925 630.408,-152 610.777,-142.739 616.71,-125.927 597.408,-116 581.926,-108.038 340.726,-82.3865 247.655,-72.7264"/>
<polygon fill="midnightblue" stroke="midnightblue" points="247.883,-69.2314 237.576,-71.6827 247.162,-76.1941 247.883,-69.2314"/>
</g>
<!-- Node29&#45;&gt;Node6 -->
<g id="edge130" class="edge"><title>Node29&#45;&gt;Node6</title>
<path fill="none" stroke="midnightblue" d="M1606.25,-202.144C1531.86,-195.478 1383.02,-179.777 1259.41,-152 1207.57,-140.351 1196.85,-129.313 1145.41,-116 1070.73,-96.6709 1048.11,-98.9552 970.023,-80.263"/>
<polygon fill="midnightblue" stroke="midnightblue" points="970.761,-76.8407 960.217,-77.8767 969.106,-83.6422 970.761,-76.8407"/>
</g>
<!-- Node29&#45;&gt;Node8 -->
<g id="edge124" class="edge"><title>Node29&#45;&gt;Node8</title>
<path fill="none" stroke="midnightblue" d="M1606,-202.424C1556.82,-197.081 1478.92,-183.941 1419.41,-152 1398.91,-140.998 1401.74,-127.308 1381.41,-116 1333.62,-89.42 1270.25,-77.4083 1233.15,-72.3424"/>
<polygon fill="midnightblue" stroke="midnightblue" points="1233.33,-68.8374 1222.97,-71.0379 1232.44,-75.7806 1233.33,-68.8374"/>
</g>
<!-- Node29&#45;&gt;Node24 -->
<g id="edge126" class="edge"><title>Node29&#45;&gt;Node24</title>
<path fill="none" stroke="midnightblue" d="M1606.2,-205.145C1422.43,-201.577 760.627,-186.436 673.408,-152 650.225,-142.847 653.07,-126.377 630.408,-116 583.359,-94.4567 428.004,-77.3671 367.158,-71.3416"/>
<polygon fill="midnightblue" stroke="midnightblue" points="367.236,-67.8328 356.944,-70.3467 366.557,-74.7998 367.236,-67.8328"/>
</g>
<!-- Node29&#45;&gt;Node26 -->
<g id="edge132" class="edge"><title>Node29&#45;&gt;Node26</title>
<path fill="none" stroke="midnightblue" d="M1700.52,-202.307C1797.55,-194.286 2012.67,-174.2 2037.41,-152 2054.79,-136.399 2058.75,-108.673 2059.21,-89.5883"/>
<polygon fill="midnightblue" stroke="midnightblue" points="2062.71,-89.4872 2059.15,-79.5071 2055.71,-89.5267 2062.71,-89.4872"/>
</g>
<!-- Node30 -->
<g id="node76" class="node"><title>Node30</title>
<a xlink:href="string_8h.html" target="_top" xlink:title="base/std_ext/string.h">
<polygon fill="white" stroke="black" points="1428.41,-123.5 1428.41,-144.5 1536.41,-144.5 1536.41,-123.5 1428.41,-123.5"/>
<text text-anchor="middle" x="1482.41" y="-131.5" font-family="Helvetica,sans-Serif" font-size="10.00">base/std_ext/string.h</text>
</a>
</g>
<!-- Node29&#45;&gt;Node30 -->
<g id="edge90" class="edge"><title>Node29&#45;&gt;Node30</title>
<path fill="none" stroke="midnightblue" d="M1628.18,-195.376C1598.67,-182.951 1549.67,-162.319 1516.72,-148.446"/>
<polygon fill="midnightblue" stroke="midnightblue" points="1518.04,-145.205 1507.46,-144.55 1515.32,-151.657 1518.04,-145.205"/>
</g>
<!-- Node32 -->
<g id="node83" class="node"><title>Node32</title>
<a xlink:href="misc_8h.html" target="_top" xlink:title="base/std_ext/misc.h">
<polygon fill="white" stroke="black" points="2121.91,-123.5 2121.91,-144.5 2226.91,-144.5 2226.91,-123.5 2121.91,-123.5"/>
<text text-anchor="middle" x="2174.41" y="-131.5" font-family="Helvetica,sans-Serif" font-size="10.00">base/std_ext/misc.h</text>
</a>
</g>
<!-- Node29&#45;&gt;Node32 -->
<g id="edge100" class="edge"><title>Node29&#45;&gt;Node32</title>
<path fill="none" stroke="midnightblue" d="M1700.71,-200.539C1778.14,-191.453 1936.69,-172.22 2070.41,-152 2083.76,-149.981 2098.05,-147.632 2111.62,-145.311"/>
<polygon fill="midnightblue" stroke="midnightblue" points="2112.58,-148.697 2121.84,-143.547 2111.39,-141.8 2112.58,-148.697"/>
</g>
<!-- Node34 -->
<g id="node90" class="node"><title>Node34</title>
<polygon fill="white" stroke="#bfbfbf" points="1553.91,-123.5 1553.91,-144.5 1600.91,-144.5 1600.91,-123.5 1553.91,-123.5"/>
<text text-anchor="middle" x="1577.41" y="-131.5" font-family="Helvetica,sans-Serif" font-size="10.00">TFile.h</text>
</g>
<!-- Node29&#45;&gt;Node34 -->
<g id="edge110" class="edge"><title>Node29&#45;&gt;Node34</title>
<path fill="none" stroke="midnightblue" d="M1642.19,-195.376C1630.07,-183.89 1610.54,-165.393 1596.09,-151.703"/>
<polygon fill="midnightblue" stroke="midnightblue" points="1598.33,-149.004 1588.67,-144.667 1593.52,-154.086 1598.33,-149.004"/>
</g>
<!-- Node35 -->
<g id="node92" class="node"><title>Node35</title>
<polygon fill="white" stroke="#bfbfbf" points="1617.91,-123.5 1617.91,-144.5 1688.91,-144.5 1688.91,-123.5 1617.91,-123.5"/>
<text text-anchor="middle" x="1653.41" y="-131.5" font-family="Helvetica,sans-Serif" font-size="10.00">TDirectory.h</text>
</g>
<!-- Node29&#45;&gt;Node35 -->
<g id="edge112" class="edge"><title>Node29&#45;&gt;Node35</title>
<path fill="none" stroke="midnightblue" d="M1653.41,-195.376C1653.41,-184.741 1653.41,-168.095 1653.41,-154.82"/>
<polygon fill="midnightblue" stroke="midnightblue" points="1656.91,-154.667 1653.41,-144.667 1649.91,-154.667 1656.91,-154.667"/>
</g>
<!-- Node36 -->
<g id="node94" class="node"><title>Node36</title>
<polygon fill="white" stroke="#bfbfbf" points="1706.41,-123.5 1706.41,-144.5 1758.41,-144.5 1758.41,-123.5 1706.41,-123.5"/>
<text text-anchor="middle" x="1732.41" y="-131.5" font-family="Helvetica,sans-Serif" font-size="10.00">TError.h</text>
</g>
<!-- Node29&#45;&gt;Node36 -->
<g id="edge114" class="edge"><title>Node29&#45;&gt;Node36</title>
<path fill="none" stroke="midnightblue" d="M1665.06,-195.376C1677.67,-183.89 1697.96,-165.393 1712.98,-151.703"/>
<polygon fill="midnightblue" stroke="midnightblue" points="1715.67,-153.99 1720.7,-144.667 1710.95,-148.817 1715.67,-153.99"/>
</g>
<!-- Node37 -->
<g id="node96" class="node"><title>Node37</title>
<polygon fill="white" stroke="#bfbfbf" points="1775.91,-123.5 1775.91,-144.5 1822.91,-144.5 1822.91,-123.5 1775.91,-123.5"/>
<text text-anchor="middle" x="1799.41" y="-131.5" font-family="Helvetica,sans-Serif" font-size="10.00">TList.h</text>
</g>
<!-- Node29&#45;&gt;Node37 -->
<g id="edge116" class="edge"><title>Node29&#45;&gt;Node37</title>
<path fill="none" stroke="midnightblue" d="M1677.22,-195.308C1700.45,-184.742 1736.67,-167.898 1767.41,-152 1768.96,-151.195 1770.56,-150.355 1772.16,-149.497"/>
<polygon fill="midnightblue" stroke="midnightblue" points="1774.17,-152.384 1781.25,-144.503 1770.8,-146.248 1774.17,-152.384"/>
</g>
<!-- Node38 -->
<g id="node98" class="node"><title>Node38</title>
<polygon fill="white" stroke="#bfbfbf" points="1840.41,-123.5 1840.41,-144.5 1914.41,-144.5 1914.41,-123.5 1840.41,-123.5"/>
<text text-anchor="middle" x="1877.41" y="-131.5" font-family="Helvetica,sans-Serif" font-size="10.00">TCollection.h</text>
</g>
<!-- Node29&#45;&gt;Node38 -->
<g id="edge118" class="edge"><title>Node29&#45;&gt;Node38</title>
<path fill="none" stroke="midnightblue" d="M1691.19,-195.471C1727.41,-185.157 1783.5,-168.61 1831.41,-152 1834.75,-150.841 1838.21,-149.588 1841.66,-148.302"/>
<polygon fill="midnightblue" stroke="midnightblue" points="1843.17,-151.472 1851.27,-144.638 1840.68,-144.932 1843.17,-151.472"/>
</g>
<!-- Node39 -->
<g id="node100" class="node"><title>Node39</title>
<polygon fill="white" stroke="#bfbfbf" points="1932.41,-123.5 1932.41,-144.5 1980.41,-144.5 1980.41,-123.5 1932.41,-123.5"/>
<text text-anchor="middle" x="1956.41" y="-131.5" font-family="Helvetica,sans-Serif" font-size="10.00">TKey.h</text>
</g>
<!-- Node29&#45;&gt;Node39 -->
<g id="edge120" class="edge"><title>Node29&#45;&gt;Node39</title>
<path fill="none" stroke="midnightblue" d="M1700.43,-200.963C1755.23,-194.104 1847.92,-179.415 1923.41,-152 1925.69,-151.173 1928,-150.207 1930.28,-149.16"/>
<polygon fill="midnightblue" stroke="midnightblue" points="1932.06,-152.186 1939.4,-144.549 1928.9,-145.939 1932.06,-152.186"/>
</g>
<!-- Node40 -->
<g id="node105" class="node"><title>Node40</title>
<polygon fill="white" stroke="#bfbfbf" points="1998.41,-123.5 1998.41,-144.5 2028.41,-144.5 2028.41,-123.5 1998.41,-123.5"/>
<text text-anchor="middle" x="2013.41" y="-131.5" font-family="Helvetica,sans-Serif" font-size="10.00">set</text>
</g>
<!-- Node29&#45;&gt;Node40 -->
<g id="edge128" class="edge"><title>Node29&#45;&gt;Node40</title>
<path fill="none" stroke="midnightblue" d="M1700.48,-201.255C1780.21,-192.751 1938.15,-173.758 1989.41,-152 1990.59,-151.496 1991.78,-150.922 1992.94,-150.295"/>
<polygon fill="midnightblue" stroke="midnightblue" points="1994.95,-153.162 2001.42,-144.768 1991.13,-147.299 1994.95,-153.162"/>
</g>
<!-- Node30&#45;&gt;Node8 -->
<g id="edge92" class="edge"><title>Node30&#45;&gt;Node8</title>
<path fill="none" stroke="midnightblue" d="M1443.64,-123.447C1434.1,-120.931 1423.9,-118.308 1414.41,-116 1350.04,-100.353 1274.16,-84.0442 1232.9,-75.3529"/>
<polygon fill="midnightblue" stroke="midnightblue" points="1233.44,-71.8913 1222.94,-73.2618 1232,-78.7419 1233.44,-71.8913"/>
</g>
<!-- Node30&#45;&gt;Node19 -->
<g id="edge98" class="edge"><title>Node30&#45;&gt;Node19</title>
<path fill="none" stroke="midnightblue" d="M1428.25,-123.792C1413.11,-121.092 1396.64,-118.293 1381.41,-116 1252.16,-96.5459 1097.4,-79.3806 1031.57,-72.3646"/>
<polygon fill="midnightblue" stroke="midnightblue" points="1031.74,-68.8628 1021.43,-71.2886 1031,-75.8238 1031.74,-68.8628"/>
</g>
<!-- Node30&#45;&gt;Node27 -->
<g id="edge96" class="edge"><title>Node30&#45;&gt;Node27</title>
<path fill="none" stroke="midnightblue" d="M1488.35,-123.267C1493.59,-113.801 1501.36,-99.7773 1507.69,-88.3571"/>
<polygon fill="midnightblue" stroke="midnightblue" points="1510.79,-89.9774 1512.57,-79.5337 1504.67,-86.5859 1510.79,-89.9774"/>
</g>
<!-- Node31 -->
<g id="node79" class="node"><title>Node31</title>
<polygon fill="white" stroke="#bfbfbf" points="1420.41,-58.5 1420.41,-79.5 1472.41,-79.5 1472.41,-58.5 1420.41,-58.5"/>
<text text-anchor="middle" x="1446.41" y="-66.5" font-family="Helvetica,sans-Serif" font-size="10.00">sstream</text>
</g>
<!-- Node30&#45;&gt;Node31 -->
<g id="edge94" class="edge"><title>Node30&#45;&gt;Node31</title>
<path fill="none" stroke="midnightblue" d="M1476.46,-123.267C1471.22,-113.801 1463.45,-99.7773 1457.13,-88.3571"/>
<polygon fill="midnightblue" stroke="midnightblue" points="1460.15,-86.5859 1452.24,-79.5337 1454.03,-89.9774 1460.15,-86.5859"/>
</g>
<!-- Node32&#45;&gt;Node15 -->
<g id="edge106" class="edge"><title>Node32&#45;&gt;Node15</title>
<path fill="none" stroke="midnightblue" d="M2167.55,-123.444C2155.55,-106.049 2128.91,-71.9073 2096.41,-58 2036.39,-32.3207 1023.99,-14.6828 828.821,-11.5128"/>
<polygon fill="midnightblue" stroke="midnightblue" points="828.695,-8.0104 818.64,-11.3486 828.582,-15.0095 828.695,-8.0104"/>
</g>
<!-- Node32&#45;&gt;Node26 -->
<g id="edge104" class="edge"><title>Node32&#45;&gt;Node26</title>
<path fill="none" stroke="midnightblue" d="M2155.51,-123.412C2136.72,-112.883 2107.68,-96.6106 2086.25,-84.6021"/>
<polygon fill="midnightblue" stroke="midnightblue" points="2087.73,-81.4186 2077.3,-79.5835 2084.31,-87.5252 2087.73,-81.4186"/>
</g>
<!-- Node32&#45;&gt;Node27 -->
<g id="edge102" class="edge"><title>Node32&#45;&gt;Node27</title>
<path fill="none" stroke="midnightblue" d="M2121.77,-126.58C2096.32,-123.12 2065.3,-119.094 2037.41,-116 1857.86,-96.0833 1642.66,-78.6429 1556.65,-71.9323"/>
<polygon fill="midnightblue" stroke="midnightblue" points="1556.82,-68.4347 1546.58,-71.1492 1556.28,-75.4136 1556.82,-68.4347"/>
</g>
<!-- Node33 -->
<g id="node88" class="node"><title>Node33</title>
<polygon fill="white" stroke="#bfbfbf" points="2147.91,-58.5 2147.91,-79.5 2200.91,-79.5 2200.91,-58.5 2147.91,-58.5"/>
<text text-anchor="middle" x="2174.41" y="-66.5" font-family="Helvetica,sans-Serif" font-size="10.00">cxxabi.h</text>
</g>
<!-- Node32&#45;&gt;Node33 -->
<g id="edge108" class="edge"><title>Node32&#45;&gt;Node33</title>
<path fill="none" stroke="midnightblue" d="M2174.41,-123.267C2174.41,-114.18 2174.41,-100.892 2174.41,-89.7395"/>
<polygon fill="midnightblue" stroke="midnightblue" points="2177.91,-89.5337 2174.41,-79.5337 2170.91,-89.5337 2177.91,-89.5337"/>
</g>
</g>
</svg>
