<?xml version="1.0" encoding="UTF-8" standalone="no"?>
<!DOCTYPE svg PUBLIC "-//W3C//DTD SVG 1.1//EN"
 "http://www.w3.org/Graphics/SVG/1.1/DTD/svg11.dtd">
<!-- Generated by graphviz version 2.26.3 (20100126.1600)
 -->
<!-- Title: progs/Ant&#45;hadd.cc Pages: 1 -->
<svg width="1373pt" height="218pt"
 viewBox="0.00 0.00 1373.00 218.00" xmlns="http://www.w3.org/2000/svg" xmlns:xlink="http://www.w3.org/1999/xlink">
<g id="graph1" class="graph" transform="scale(1 1) rotate(0) translate(4 214)">
<title>progs/Ant&#45;hadd.cc</title>
<polygon fill="white" stroke="white" points="-4,5 -4,-214 1370,-214 1370,5 -4,5"/>
<!-- Node0 -->
<g id="node1" class="node"><title>Node0</title>
<polygon fill="#bfbfbf" stroke="black" points="667,-188.5 667,-209.5 763,-209.5 763,-188.5 667,-188.5"/>
<text text-anchor="middle" x="715" y="-196.5" font-family="Helvetica,sans-Serif" font-size="10.00">progs/Ant&#45;hadd.cc</text>
</g>
<!-- Node1 -->
<g id="node3" class="node"><title>Node1</title>
<polygon fill="white" stroke="#bfbfbf" points="0,-123.5 0,-144.5 88,-144.5 88,-123.5 0,-123.5"/>
<text text-anchor="middle" x="44" y="-131.5" font-family="Helvetica,sans-Serif" font-size="10.00">tclap/CmdLine.h</text>
</g>
<!-- Node0&#45;&gt;Node1 -->
<g id="edge2" class="edge"><title>Node0&#45;&gt;Node1</title>
<path fill="none" stroke="midnightblue" d="M666.827,-196.904C541.207,-191.187 205.847,-174.252 97,-152 91.5851,-150.893 85.9603,-149.389 80.486,-147.72"/>
<polygon fill="midnightblue" stroke="midnightblue" points="81.4652,-144.358 70.8728,-144.586 79.2956,-151.013 81.4652,-144.358"/>
</g>
<!-- Node2 -->
<g id="node5" class="node"><title>Node2</title>
<a xlink:href="_logger_8h.html" target="_top" xlink:title="base/Logger.h">
<polygon fill="white" stroke="black" points="106,-123.5 106,-144.5 184,-144.5 184,-123.5 106,-123.5"/>
<text text-anchor="middle" x="145" y="-131.5" font-family="Helvetica,sans-Serif" font-size="10.00">base/Logger.h</text>
</a>
</g>
<!-- Node0&#45;&gt;Node2 -->
<g id="edge4" class="edge"><title>Node0&#45;&gt;Node2</title>
<path fill="none" stroke="midnightblue" d="M666.759,-196.079C556.123,-189.141 286.826,-170.843 198,-152 192.593,-150.853 186.973,-149.327 181.501,-147.648"/>
<polygon fill="midnightblue" stroke="midnightblue" points="182.482,-144.286 171.889,-144.507 180.308,-150.94 182.482,-144.286"/>
</g>
<!-- Node4 -->
<g id="node9" class="node"><title>Node4</title>
<a xlink:href="string_8h.html" target="_top" xlink:title="base/std_ext/string.h">
<polygon fill="white" stroke="black" points="599,-123.5 599,-144.5 707,-144.5 707,-123.5 599,-123.5"/>
<text text-anchor="middle" x="653" y="-131.5" font-family="Helvetica,sans-Serif" font-size="10.00">base/std_ext/string.h</text>
</a>
</g>
<!-- Node0&#45;&gt;Node4 -->
<g id="edge8" class="edge"><title>Node0&#45;&gt;Node4</title>
<path fill="none" stroke="midnightblue" d="M704.762,-188.267C695.372,-178.423 681.28,-163.648 670.169,-152"/>
<polygon fill="midnightblue" stroke="midnightblue" points="672.482,-149.354 663.048,-144.534 667.417,-154.186 672.482,-149.354"/>
</g>
<!-- Node5 -->
<g id="node11" class="node"><title>Node5</title>
<polygon fill="white" stroke="#bfbfbf" points="277.5,-58.5 277.5,-79.5 318.5,-79.5 318.5,-58.5 277.5,-58.5"/>
<text text-anchor="middle" x="298" y="-66.5" font-family="Helvetica,sans-Serif" font-size="10.00">string</text>
</g>
<!-- Node0&#45;&gt;Node5 -->
<g id="edge64" class="edge"><title>Node0&#45;&gt;Node5</title>
<path fill="none" stroke="midnightblue" d="M666.957,-194.917C592.315,-188.033 452.356,-172.803 407,-152 384.653,-141.75 384.42,-131.077 365,-116 351.231,-105.31 335.271,-94.071 322.382,-85.2651"/>
<polygon fill="midnightblue" stroke="midnightblue" points="324.257,-82.3072 314.015,-79.5939 320.329,-88.1017 324.257,-82.3072"/>
</g>
<!-- Node9 -->
<g id="node19" class="node"><title>Node9</title>
<a xlink:href="memory_8h.html" target="_top" xlink:title="base/std_ext/memory.h">
<polygon fill="white" stroke="black" points="513.5,-58.5 513.5,-79.5 632.5,-79.5 632.5,-58.5 513.5,-58.5"/>
<text text-anchor="middle" x="573" y="-66.5" font-family="Helvetica,sans-Serif" font-size="10.00">base/std_ext/memory.h</text>
</a>
</g>
<!-- Node0&#45;&gt;Node9 -->
<g id="edge18" class="edge"><title>Node0&#45;&gt;Node9</title>
<path fill="none" stroke="midnightblue" d="M666.95,-192.429C640.517,-186.321 609.267,-174.571 590,-152 575.291,-134.768 572.128,-108.224 571.942,-89.813"/>
<polygon fill="midnightblue" stroke="midnightblue" points="575.446,-89.6199 572.134,-79.5561 568.447,-89.4887 575.446,-89.6199"/>
</g>
<!-- Node11 -->
<g id="node23" class="node"><title>Node11</title>
<polygon fill="white" stroke="#bfbfbf" points="353.5,-0.5 353.5,-21.5 382.5,-21.5 382.5,-0.5 353.5,-0.5"/>
<text text-anchor="middle" x="368" y="-8.5" font-family="Helvetica,sans-Serif" font-size="10.00">list</text>
</g>
<!-- Node0&#45;&gt;Node11 -->
<g id="edge62" class="edge"><title>Node0&#45;&gt;Node11</title>
<path fill="none" stroke="midnightblue" d="M666.785,-197.917C550.1,-194.798 259.936,-183.882 231,-152 201.617,-119.625 228.274,-88.0824 260,-58 283.654,-35.5714 319.727,-22.8509 343.58,-16.4449"/>
<polygon fill="midnightblue" stroke="midnightblue" points="344.442,-19.8372 353.287,-14.0047 342.735,-13.0484 344.442,-19.8372"/>
</g>
<!-- Node12 -->
<g id="node25" class="node"><title>Node12</title>
<a xlink:href="_progress_counter_8h.html" target="_top" xlink:title="base/ProgressCounter.h">
<polygon fill="white" stroke="black" points="416,-123.5 416,-144.5 538,-144.5 538,-123.5 416,-123.5"/>
<text text-anchor="middle" x="477" y="-131.5" font-family="Helvetica,sans-Serif" font-size="10.00">base/ProgressCounter.h</text>
</a>
</g>
<!-- Node0&#45;&gt;Node12 -->
<g id="edge24" class="edge"><title>Node0&#45;&gt;Node12</title>
<path fill="none" stroke="midnightblue" d="M676.497,-188.484C635.278,-177.227 569.803,-159.345 525.192,-147.162"/>
<polygon fill="midnightblue" stroke="midnightblue" points="526.017,-143.759 515.448,-144.501 524.173,-150.512 526.017,-143.759"/>
</g>
<!-- Node15 -->
<g id="node34" class="node"><title>Node15</title>
<a xlink:href="system_8h.html" target="_top" xlink:title="base/std_ext/system.h">
<polygon fill="white" stroke="black" points="240,-123.5 240,-144.5 356,-144.5 356,-123.5 240,-123.5"/>
<text text-anchor="middle" x="298" y="-131.5" font-family="Helvetica,sans-Serif" font-size="10.00">base/std_ext/system.h</text>
</a>
</g>
<!-- Node0&#45;&gt;Node15 -->
<g id="edge36" class="edge"><title>Node0&#45;&gt;Node15</title>
<path fill="none" stroke="midnightblue" d="M666.88,-194.055C600.125,-186.824 475.795,-172.021 371,-152 363.337,-150.536 355.274,-148.775 347.414,-146.934"/>
<polygon fill="midnightblue" stroke="midnightblue" points="348.154,-143.513 337.613,-144.578 346.518,-150.319 348.154,-143.513"/>
</g>
<!-- Node16 -->
<g id="node38" class="node"><title>Node16</title>
<a xlink:href="hadd_8h.html" target="_top" xlink:title="root&#45;addons/analysis\l_codes/hadd.h">
<polygon fill="white" stroke="black" points="724.5,-117 724.5,-151 831.5,-151 831.5,-117 724.5,-117"/>
<text text-anchor="start" x="732.5" y="-138" font-family="Helvetica,sans-Serif" font-size="10.00">root&#45;addons/analysis</text>
<text text-anchor="middle" x="778" y="-125" font-family="Helvetica,sans-Serif" font-size="10.00">_codes/hadd.h</text>
</a>
</g>
<!-- Node0&#45;&gt;Node16 -->
<g id="edge42" class="edge"><title>Node0&#45;&gt;Node16</title>
<path fill="none" stroke="midnightblue" d="M725.403,-188.267C733.278,-180.142 744.407,-168.659 754.402,-158.347"/>
<polygon fill="midnightblue" stroke="midnightblue" points="756.97,-160.726 761.417,-151.11 751.944,-155.855 756.97,-160.726"/>
</g>
<!-- Node18 -->
<g id="node44" class="node"><title>Node18</title>
<polygon fill="white" stroke="#bfbfbf" points="848.5,-123.5 848.5,-144.5 913.5,-144.5 913.5,-123.5 848.5,-123.5"/>
<text text-anchor="middle" x="881" y="-131.5" font-family="Helvetica,sans-Serif" font-size="10.00">TSystem.h</text>
</g>
<!-- Node0&#45;&gt;Node18 -->
<g id="edge50" class="edge"><title>Node0&#45;&gt;Node18</title>
<path fill="none" stroke="midnightblue" d="M744.472,-188.429C769.913,-179.182 807.576,-165.202 840,-152 842.545,-150.964 845.168,-149.871 847.8,-148.756"/>
<polygon fill="midnightblue" stroke="midnightblue" points="849.444,-151.859 857.244,-144.689 846.676,-145.43 849.444,-151.859"/>
</g>
<!-- Node19 -->
<g id="node46" class="node"><title>Node19</title>
<polygon fill="white" stroke="#bfbfbf" points="930.5,-123.5 930.5,-144.5 989.5,-144.5 989.5,-123.5 930.5,-123.5"/>
<text text-anchor="middle" x="960" y="-131.5" font-family="Helvetica,sans-Serif" font-size="10.00">TROOT.h</text>
</g>
<!-- Node0&#45;&gt;Node19 -->
<g id="edge52" class="edge"><title>Node0&#45;&gt;Node19</title>
<path fill="none" stroke="midnightblue" d="M763.101,-191.168C805.595,-183.525 868.884,-170.361 922,-152 924.781,-151.039 927.629,-149.934 930.453,-148.754"/>
<polygon fill="midnightblue" stroke="midnightblue" points="932.135,-151.836 939.834,-144.557 929.276,-145.446 932.135,-151.836"/>
</g>
<!-- Node20 -->
<g id="node48" class="node"><title>Node20</title>
<polygon fill="white" stroke="#bfbfbf" points="1006.5,-123.5 1006.5,-144.5 1081.5,-144.5 1081.5,-123.5 1006.5,-123.5"/>
<text text-anchor="middle" x="1044" y="-131.5" font-family="Helvetica,sans-Serif" font-size="10.00">TInterpreter.h</text>
</g>
<!-- Node0&#45;&gt;Node20 -->
<g id="edge54" class="edge"><title>Node0&#45;&gt;Node20</title>
<path fill="none" stroke="midnightblue" d="M763.228,-194.092C820.087,-187.596 917.092,-174.286 998,-152 1001.89,-150.929 1005.9,-149.644 1009.86,-148.26"/>
<polygon fill="midnightblue" stroke="midnightblue" points="1011.34,-151.444 1019.49,-144.68 1008.9,-144.883 1011.34,-151.444"/>
</g>
<!-- Node21 -->
<g id="node50" class="node"><title>Node21</title>
<polygon fill="white" stroke="#bfbfbf" points="1098.5,-123.5 1098.5,-144.5 1175.5,-144.5 1175.5,-123.5 1098.5,-123.5"/>
<text text-anchor="middle" x="1137" y="-131.5" font-family="Helvetica,sans-Serif" font-size="10.00">TFileMerger.h</text>
</g>
<!-- Node0&#45;&gt;Node21 -->
<g id="edge56" class="edge"><title>Node0&#45;&gt;Node21</title>
<path fill="none" stroke="midnightblue" d="M763.035,-196.685C835.036,-192.388 974.792,-180.831 1090,-152 1094.2,-150.95 1098.53,-149.633 1102.78,-148.192"/>
<polygon fill="midnightblue" stroke="midnightblue" points="1104.28,-151.373 1112.48,-144.67 1101.89,-144.794 1104.28,-151.373"/>
</g>
<!-- Node22 -->
<g id="node52" class="node"><title>Node22</title>
<polygon fill="white" stroke="#bfbfbf" points="1192.5,-123.5 1192.5,-144.5 1239.5,-144.5 1239.5,-123.5 1192.5,-123.5"/>
<text text-anchor="middle" x="1216" y="-131.5" font-family="Helvetica,sans-Serif" font-size="10.00">TFile.h</text>
</g>
<!-- Node0&#45;&gt;Node22 -->
<g id="edge58" class="edge"><title>Node0&#45;&gt;Node22</title>
<path fill="none" stroke="midnightblue" d="M763.242,-196.677C866.632,-191.291 1106.46,-176.508 1184,-152 1186.45,-151.227 1188.91,-150.252 1191.34,-149.157"/>
<polygon fill="midnightblue" stroke="midnightblue" points="1193.03,-152.22 1200.31,-144.521 1189.82,-146.001 1193.03,-152.22"/>
</g>
<!-- Node23 -->
<g id="node54" class="node"><title>Node23</title>
<polygon fill="white" stroke="#bfbfbf" points="1257,-123.5 1257,-144.5 1313,-144.5 1313,-123.5 1257,-123.5"/>
<text text-anchor="middle" x="1285" y="-131.5" font-family="Helvetica,sans-Serif" font-size="10.00">TClass.h</text>
</g>
<!-- Node0&#45;&gt;Node23 -->
<g id="edge60" class="edge"><title>Node0&#45;&gt;Node23</title>
<path fill="none" stroke="midnightblue" d="M763.23,-196.991C876.615,-191.908 1157.36,-177.121 1248,-152 1251.17,-151.122 1254.39,-149.979 1257.55,-148.694"/>
<polygon fill="midnightblue" stroke="midnightblue" points="1259.04,-151.859 1266.7,-144.536 1256.15,-145.486 1259.04,-151.859"/>
</g>
<!-- Node24 -->
<g id="node58" class="node"><title>Node24</title>
<polygon fill="white" stroke="#bfbfbf" points="1330.5,-123.5 1330.5,-144.5 1365.5,-144.5 1365.5,-123.5 1330.5,-123.5"/>
<text text-anchor="middle" x="1348" y="-131.5" font-family="Helvetica,sans-Serif" font-size="10.00">map</text>
</g>
<!-- Node0&#45;&gt;Node24 -->
<g id="edge66" class="edge"><title>Node0&#45;&gt;Node24</title>
<path fill="none" stroke="midnightblue" d="M763.226,-198.5C888.079,-196.692 1219.29,-188.495 1322,-152 1323.64,-151.419 1325.26,-150.706 1326.86,-149.904"/>
<polygon fill="midnightblue" stroke="midnightblue" points="1328.81,-152.815 1335.52,-144.615 1325.16,-146.842 1328.81,-152.815"/>
</g>
<!-- Node3 -->
<g id="node7" class="node"><title>Node3</title>
<polygon fill="white" stroke="#bfbfbf" points="95.5,-58.5 95.5,-79.5 184.5,-79.5 184.5,-58.5 95.5,-58.5"/>
<text text-anchor="middle" x="140" y="-66.5" font-family="Helvetica,sans-Serif" font-size="10.00">easylogging++.h</text>
</g>
<!-- Node2&#45;&gt;Node3 -->
<g id="edge6" class="edge"><title>Node2&#45;&gt;Node3</title>
<path fill="none" stroke="midnightblue" d="M144.174,-123.267C143.475,-114.18 142.453,-100.892 141.595,-89.7395"/>
<polygon fill="midnightblue" stroke="midnightblue" points="145.067,-89.2358 140.81,-79.5337 138.088,-89.7727 145.067,-89.2358"/>
</g>
<!-- Node4&#45;&gt;Node5 -->
<g id="edge10" class="edge"><title>Node4&#45;&gt;Node5</title>
<path fill="none" stroke="midnightblue" d="M598.813,-124.734C582.193,-121.909 563.847,-118.809 547,-116 452.42,-100.231 424.475,-105.335 328.558,-80.0665"/>
<polygon fill="midnightblue" stroke="midnightblue" points="329.31,-76.6446 318.745,-77.4393 327.499,-83.4065 329.31,-76.6446"/>
</g>
<!-- Node6 -->
<g id="node13" class="node"><title>Node6</title>
<polygon fill="white" stroke="#bfbfbf" points="650,-58.5 650,-79.5 702,-79.5 702,-58.5 650,-58.5"/>
<text text-anchor="middle" x="676" y="-66.5" font-family="Helvetica,sans-Serif" font-size="10.00">sstream</text>
</g>
<!-- Node4&#45;&gt;Node6 -->
<g id="edge12" class="edge"><title>Node4&#45;&gt;Node6</title>
<path fill="none" stroke="midnightblue" d="M656.798,-123.267C660.08,-113.991 664.912,-100.336 668.907,-89.0453"/>
<polygon fill="midnightblue" stroke="midnightblue" points="672.236,-90.1285 672.273,-79.5337 665.637,-87.7934 672.236,-90.1285"/>
</g>
<!-- Node7 -->
<g id="node15" class="node"><title>Node7</title>
<polygon fill="white" stroke="#bfbfbf" points="720,-58.5 720,-79.5 776,-79.5 776,-58.5 720,-58.5"/>
<text text-anchor="middle" x="748" y="-66.5" font-family="Helvetica,sans-Serif" font-size="10.00">algorithm</text>
</g>
<!-- Node4&#45;&gt;Node7 -->
<g id="edge14" class="edge"><title>Node4&#45;&gt;Node7</title>
<path fill="none" stroke="midnightblue" d="M668.687,-123.267C683.766,-112.949 706.761,-97.216 724.115,-85.3421"/>
<polygon fill="midnightblue" stroke="midnightblue" points="726.328,-88.0692 732.605,-79.5337 722.375,-82.292 726.328,-88.0692"/>
</g>
<!-- Node8 -->
<g id="node17" class="node"><title>Node8</title>
<polygon fill="white" stroke="#bfbfbf" points="794,-58.5 794,-79.5 838,-79.5 838,-58.5 794,-58.5"/>
<text text-anchor="middle" x="816" y="-66.5" font-family="Helvetica,sans-Serif" font-size="10.00">vector</text>
</g>
<!-- Node4&#45;&gt;Node8 -->
<g id="edge16" class="edge"><title>Node4&#45;&gt;Node8</title>
<path fill="none" stroke="midnightblue" d="M679.552,-123.412C708.286,-111.953 754.079,-93.6926 784.583,-81.5282"/>
<polygon fill="midnightblue" stroke="midnightblue" points="785.917,-84.7644 793.909,-77.8092 783.324,-78.2623 785.917,-84.7644"/>
</g>
<!-- Node10 -->
<g id="node21" class="node"><title>Node10</title>
<polygon fill="white" stroke="#bfbfbf" points="693,-0.5 693,-21.5 745,-21.5 745,-0.5 693,-0.5"/>
<text text-anchor="middle" x="719" y="-8.5" font-family="Helvetica,sans-Serif" font-size="10.00">memory</text>
</g>
<!-- Node9&#45;&gt;Node10 -->
<g id="edge20" class="edge"><title>Node9&#45;&gt;Node10</title>
<path fill="none" stroke="midnightblue" d="M599.439,-58.4966C622.902,-49.1759 657.378,-35.4799 683.287,-25.1872"/>
<polygon fill="midnightblue" stroke="midnightblue" points="684.756,-28.37 692.757,-21.4252 682.171,-21.8645 684.756,-28.37"/>
</g>
<!-- Node9&#45;&gt;Node11 -->
<g id="edge22" class="edge"><title>Node9&#45;&gt;Node11</title>
<path fill="none" stroke="midnightblue" d="M535.876,-58.4966C494.468,-46.7813 428.631,-28.1541 392.954,-18.0602"/>
<polygon fill="midnightblue" stroke="midnightblue" points="393.486,-14.5733 382.911,-15.2187 391.58,-21.3089 393.486,-14.5733"/>
</g>
<!-- Node12&#45;&gt;Node5 -->
<g id="edge32" class="edge"><title>Node12&#45;&gt;Node5</title>
<path fill="none" stroke="midnightblue" d="M447.346,-123.492C419.001,-113.411 374.829,-97.6062 328.238,-80.4245"/>
<polygon fill="midnightblue" stroke="midnightblue" points="329.172,-77.0383 318.579,-76.8551 326.746,-83.6043 329.172,-77.0383"/>
</g>
<!-- Node12&#45;&gt;Node9 -->
<g id="edge26" class="edge"><title>Node12&#45;&gt;Node9</title>
<path fill="none" stroke="midnightblue" d="M492.852,-123.267C508.09,-112.949 531.327,-97.216 548.864,-85.3421"/>
<polygon fill="midnightblue" stroke="midnightblue" points="551.124,-88.0385 557.443,-79.5337 547.2,-82.2421 551.124,-88.0385"/>
</g>
<!-- Node12&#45;&gt;Node11 -->
<g id="edge34" class="edge"><title>Node12&#45;&gt;Node11</title>
<path fill="none" stroke="midnightblue" d="M478.578,-123.267C480.305,-107.403 481.175,-77.4751 467,-58 449.231,-33.5885 415.449,-21.3813 392.334,-15.6284"/>
<polygon fill="midnightblue" stroke="midnightblue" points="393.087,-12.2102 382.561,-13.4187 391.543,-19.0378 393.087,-12.2102"/>
</g>
<!-- Node13 -->
<g id="node28" class="node"><title>Node13</title>
<polygon fill="white" stroke="#bfbfbf" points="336,-58.5 336,-79.5 382,-79.5 382,-58.5 336,-58.5"/>
<text text-anchor="middle" x="359" y="-66.5" font-family="Helvetica,sans-Serif" font-size="10.00">chrono</text>
</g>
<!-- Node12&#45;&gt;Node13 -->
<g id="edge28" class="edge"><title>Node12&#45;&gt;Node13</title>
<path fill="none" stroke="midnightblue" d="M457.779,-123.412C438.579,-112.836 408.859,-96.4645 387.031,-84.4408"/>
<polygon fill="midnightblue" stroke="midnightblue" points="388.661,-81.3428 378.213,-79.5835 385.283,-87.4741 388.661,-81.3428"/>
</g>
<!-- Node14 -->
<g id="node30" class="node"><title>Node14</title>
<polygon fill="white" stroke="#bfbfbf" points="399.5,-58.5 399.5,-79.5 458.5,-79.5 458.5,-58.5 399.5,-58.5"/>
<text text-anchor="middle" x="429" y="-66.5" font-family="Helvetica,sans-Serif" font-size="10.00">functional</text>
</g>
<!-- Node12&#45;&gt;Node14 -->
<g id="edge30" class="edge"><title>Node12&#45;&gt;Node14</title>
<path fill="none" stroke="midnightblue" d="M469.074,-123.267C461.944,-113.612 451.312,-99.2145 442.791,-87.675"/>
<polygon fill="midnightblue" stroke="midnightblue" points="445.535,-85.4989 436.779,-79.5337 439.904,-89.6572 445.535,-85.4989"/>
</g>
<!-- Node15&#45;&gt;Node5 -->
<g id="edge40" class="edge"><title>Node15&#45;&gt;Node5</title>
<path fill="none" stroke="midnightblue" d="M298,-123.267C298,-114.18 298,-100.892 298,-89.7395"/>
<polygon fill="midnightblue" stroke="midnightblue" points="301.5,-89.5337 298,-79.5337 294.5,-89.5337 301.5,-89.5337"/>
</g>
<!-- Node15&#45;&gt;Node11 -->
<g id="edge38" class="edge"><title>Node15&#45;&gt;Node11</title>
<path fill="none" stroke="midnightblue" d="M288.041,-123.308C275.052,-108.01 255.491,-79.367 269,-58 285.223,-32.3397 319.683,-20.408 343.344,-15.0598"/>
<polygon fill="midnightblue" stroke="midnightblue" points="344.241,-18.4494 353.351,-13.0402 342.856,-11.5878 344.241,-18.4494"/>
</g>
<!-- Node16&#45;&gt;Node8 -->
<g id="edge48" class="edge"><title>Node16&#45;&gt;Node8</title>
<path fill="none" stroke="midnightblue" d="M787.984,-116.922C793.076,-108.212 799.293,-97.5782 804.575,-88.5423"/>
<polygon fill="midnightblue" stroke="midnightblue" points="807.63,-90.2515 809.656,-79.8521 801.587,-86.7186 807.63,-90.2515"/>
</g>
<!-- Node16&#45;&gt;Node10 -->
<g id="edge46" class="edge"><title>Node16&#45;&gt;Node10</title>
<path fill="none" stroke="midnightblue" d="M811.563,-116.974C835.982,-102.244 862.302,-79.9191 847,-58 836.193,-42.5197 789.165,-28.0845 755.245,-19.4014"/>
<polygon fill="midnightblue" stroke="midnightblue" points="755.744,-15.9186 745.194,-16.8965 754.051,-22.7108 755.744,-15.9186"/>
</g>
<!-- Node17 -->
<g id="node40" class="node"><title>Node17</title>
<polygon fill="white" stroke="#bfbfbf" points="893.5,-58.5 893.5,-79.5 964.5,-79.5 964.5,-58.5 893.5,-58.5"/>
<text text-anchor="middle" x="929" y="-66.5" font-family="Helvetica,sans-Serif" font-size="10.00">TDirectory.h</text>
</g>
<!-- Node16&#45;&gt;Node17 -->
<g id="edge44" class="edge"><title>Node16&#45;&gt;Node17</title>
<path fill="none" stroke="midnightblue" d="M817.673,-116.922C841.681,-106.588 871.981,-93.5448 894.906,-83.6762"/>
<polygon fill="midnightblue" stroke="midnightblue" points="896.439,-86.8271 904.24,-79.6584 893.671,-80.3975 896.439,-86.8271"/>
</g>
</g>
</svg>
