<?xml version="1.0" encoding="UTF-8" standalone="no"?>
<!DOCTYPE svg PUBLIC "-//W3C//DTD SVG 1.1//EN"
 "http://www.w3.org/Graphics/SVG/1.1/DTD/svg11.dtd">
<!-- Generated by graphviz version 2.26.3 (20100126.1600)
 -->
<!-- Title: progs/Ant&#45;chain.cc Pages: 1 -->
<svg width="1949pt" height="320pt"
 viewBox="0.00 0.00 1949.00 320.00" xmlns="http://www.w3.org/2000/svg" xmlns:xlink="http://www.w3.org/1999/xlink">
<g id="graph1" class="graph" transform="scale(1 1) rotate(0) translate(4 316)">
<title>progs/Ant&#45;chain.cc</title>
<polygon fill="white" stroke="white" points="-4,5 -4,-316 1946,-316 1946,5 -4,5"/>
<!-- Node0 -->
<g id="node1" class="node"><title>Node0</title>
<polygon fill="#bfbfbf" stroke="black" points="908,-290.5 908,-311.5 1006,-311.5 1006,-290.5 908,-290.5"/>
<text text-anchor="middle" x="957" y="-298.5" font-family="Helvetica,sans-Serif" font-size="10.00">progs/Ant&#45;chain.cc</text>
</g>
<!-- Node1 -->
<g id="node3" class="node"><title>Node1</title>
<a xlink:href="_logger_8h.html" target="_top" xlink:title="base/Logger.h">
<polygon fill="white" stroke="black" points="5,-232.5 5,-253.5 83,-253.5 83,-232.5 5,-232.5"/>
<text text-anchor="middle" x="44" y="-240.5" font-family="Helvetica,sans-Serif" font-size="10.00">base/Logger.h</text>
</a>
</g>
<!-- Node0&#45;&gt;Node1 -->
<g id="edge2" class="edge"><title>Node0&#45;&gt;Node1</title>
<path fill="none" stroke="midnightblue" d="M907.937,-299.439C752.344,-294.32 270.285,-277.106 93.1572,-253.913"/>
<polygon fill="midnightblue" stroke="midnightblue" points="93.5719,-250.437 83.191,-252.556 92.6271,-257.373 93.5719,-250.437"/>
</g>
<!-- Node3 -->
<g id="node7" class="node"><title>Node3</title>
<polygon fill="white" stroke="#bfbfbf" points="101,-232.5 101,-253.5 189,-253.5 189,-232.5 101,-232.5"/>
<text text-anchor="middle" x="145" y="-240.5" font-family="Helvetica,sans-Serif" font-size="10.00">tclap/CmdLine.h</text>
</g>
<!-- Node0&#45;&gt;Node3 -->
<g id="edge6" class="edge"><title>Node0&#45;&gt;Node3</title>
<path fill="none" stroke="midnightblue" d="M907.843,-300.064C787.287,-297.306 467.502,-287.193 203,-254 201.742,-253.842 200.469,-253.674 199.187,-253.496"/>
<polygon fill="midnightblue" stroke="midnightblue" points="199.656,-250.027 189.243,-251.982 198.602,-256.948 199.656,-250.027"/>
</g>
<!-- Node4 -->
<g id="node9" class="node"><title>Node4</title>
<a xlink:href="_wrap_t_file_8h.html" target="_top" xlink:title="base/WrapTFile.h">
<polygon fill="white" stroke="black" points="1184,-174.5 1184,-195.5 1278,-195.5 1278,-174.5 1184,-174.5"/>
<text text-anchor="middle" x="1231" y="-182.5" font-family="Helvetica,sans-Serif" font-size="10.00">base/WrapTFile.h</text>
</a>
</g>
<!-- Node0&#45;&gt;Node4 -->
<g id="edge8" class="edge"><title>Node0&#45;&gt;Node4</title>
<path fill="none" stroke="midnightblue" d="M982.286,-290.295C1031.65,-269.395 1140.9,-223.145 1196.72,-199.513"/>
<polygon fill="midnightblue" stroke="midnightblue" points="1198.33,-202.633 1206.17,-195.512 1195.6,-196.187 1198.33,-202.633"/>
</g>
<!-- Node5 -->
<g id="node11" class="node"><title>Node5</title>
<a xlink:href="string_8h.html" target="_top" xlink:title="base/std_ext/string.h">
<polygon fill="white" stroke="black" points="1243,-58.5 1243,-79.5 1351,-79.5 1351,-58.5 1243,-58.5"/>
<text text-anchor="middle" x="1297" y="-66.5" font-family="Helvetica,sans-Serif" font-size="10.00">base/std_ext/string.h</text>
</a>
</g>
<!-- Node0&#45;&gt;Node5 -->
<g id="edge54" class="edge"><title>Node0&#45;&gt;Node5</title>
<path fill="none" stroke="midnightblue" d="M1006.23,-295.362C1074.93,-285.415 1200.81,-259.428 1287,-196 1319.18,-172.32 1339.48,-154.267 1328,-116 1324.95,-105.824 1318.9,-95.8172 1312.95,-87.6697"/>
<polygon fill="midnightblue" stroke="midnightblue" points="1315.59,-85.3662 1306.68,-79.6387 1310.07,-89.6745 1315.59,-85.3662"/>
</g>
<!-- Node6 -->
<g id="node13" class="node"><title>Node6</title>
<polygon fill="white" stroke="#bfbfbf" points="272.5,-0.5 272.5,-21.5 313.5,-21.5 313.5,-0.5 272.5,-0.5"/>
<text text-anchor="middle" x="293" y="-8.5" font-family="Helvetica,sans-Serif" font-size="10.00">string</text>
</g>
<!-- Node0&#45;&gt;Node6 -->
<g id="edge106" class="edge"><title>Node0&#45;&gt;Node6</title>
<path fill="none" stroke="midnightblue" d="M907.873,-298.501C742.598,-289.447 217,-255.141 217,-185 217,-185 217,-185 217,-127 217,-86.5104 249.797,-49.1585 272.302,-28.2949"/>
<polygon fill="midnightblue" stroke="midnightblue" points="274.64,-30.8993 279.762,-21.6247 269.974,-25.681 274.64,-30.8993"/>
</g>
<!-- Node11 -->
<g id="node24" class="node"><title>Node11</title>
<polygon fill="white" stroke="#bfbfbf" points="1633.5,-58.5 1633.5,-79.5 1692.5,-79.5 1692.5,-58.5 1633.5,-58.5"/>
<text text-anchor="middle" x="1663" y="-66.5" font-family="Helvetica,sans-Serif" font-size="10.00">functional</text>
</g>
<!-- Node0&#45;&gt;Node11 -->
<g id="edge110" class="edge"><title>Node0&#45;&gt;Node11</title>
<path fill="none" stroke="midnightblue" d="M1006.01,-299.52C1167.94,-293.444 1680.66,-264.358 1770,-138 1790.91,-108.426 1741.22,-88.4426 1702.73,-77.8883"/>
<polygon fill="midnightblue" stroke="midnightblue" points="1703.3,-74.42 1692.74,-75.2846 1701.54,-81.1937 1703.3,-74.42"/>
</g>
<!-- Node15 -->
<g id="node32" class="node"><title>Node15</title>
<polygon fill="white" stroke="#bfbfbf" points="1690.5,-116.5 1690.5,-137.5 1761.5,-137.5 1761.5,-116.5 1690.5,-116.5"/>
<text text-anchor="middle" x="1726" y="-124.5" font-family="Helvetica,sans-Serif" font-size="10.00">TDirectory.h</text>
</g>
<!-- Node0&#45;&gt;Node15 -->
<g id="edge100" class="edge"><title>Node0&#45;&gt;Node15</title>
<path fill="none" stroke="midnightblue" d="M1006.22,-299.471C1086.22,-296.119 1249.04,-285.683 1383,-254 1501.24,-226.034 1634.35,-168.922 1694.04,-141.858"/>
<polygon fill="midnightblue" stroke="midnightblue" points="1695.67,-144.963 1703.32,-137.628 1692.77,-138.595 1695.67,-144.963"/>
</g>
<!-- Node21 -->
<g id="node45" class="node"><title>Node21</title>
<polygon fill="white" stroke="#bfbfbf" points="820.5,-116.5 820.5,-137.5 849.5,-137.5 849.5,-116.5 820.5,-116.5"/>
<text text-anchor="middle" x="835" y="-124.5" font-family="Helvetica,sans-Serif" font-size="10.00">list</text>
</g>
<!-- Node0&#45;&gt;Node21 -->
<g id="edge108" class="edge"><title>Node0&#45;&gt;Node21</title>
<path fill="none" stroke="midnightblue" d="M949.552,-290.377C929.521,-261.809 874.276,-183.017 848.532,-146.3"/>
<polygon fill="midnightblue" stroke="midnightblue" points="851.269,-144.106 842.662,-137.928 845.537,-148.125 851.269,-144.106"/>
</g>
<!-- Node24 -->
<g id="node53" class="node"><title>Node24</title>
<a xlink:href="system_8h.html" target="_top" xlink:title="base/std_ext/system.h">
<polygon fill="white" stroke="black" points="245,-174.5 245,-195.5 361,-195.5 361,-174.5 245,-174.5"/>
<text text-anchor="middle" x="303" y="-182.5" font-family="Helvetica,sans-Serif" font-size="10.00">base/std_ext/system.h</text>
</a>
</g>
<!-- Node0&#45;&gt;Node24 -->
<g id="edge56" class="edge"><title>Node0&#45;&gt;Node24</title>
<path fill="none" stroke="midnightblue" d="M907.812,-294.946C843.685,-286.822 728.125,-271.385 630,-254 534.013,-236.993 423.171,-212.59 358.316,-197.823"/>
<polygon fill="midnightblue" stroke="midnightblue" points="358.84,-194.353 348.312,-195.539 357.282,-201.177 358.84,-194.353"/>
</g>
<!-- Node25 -->
<g id="node57" class="node"><title>Node25</title>
<a xlink:href="memory_8h.html" target="_top" xlink:title="base/std_ext/memory.h">
<polygon fill="white" stroke="black" points="897.5,-174.5 897.5,-195.5 1016.5,-195.5 1016.5,-174.5 897.5,-174.5"/>
<text text-anchor="middle" x="957" y="-182.5" font-family="Helvetica,sans-Serif" font-size="10.00">base/std_ext/memory.h</text>
</a>
</g>
<!-- Node0&#45;&gt;Node25 -->
<g id="edge62" class="edge"><title>Node0&#45;&gt;Node25</title>
<path fill="none" stroke="midnightblue" d="M957,-290.295C957,-271.131 957,-230.654 957,-205.843"/>
<polygon fill="midnightblue" stroke="midnightblue" points="960.5,-205.679 957,-195.679 953.5,-205.679 960.5,-205.679"/>
</g>
<!-- Node26 -->
<g id="node61" class="node"><title>Node26</title>
<a xlink:href="_t_ant_header_8h.html" target="_top" xlink:title="tree/TAntHeader.h">
<polygon fill="white" stroke="black" points="638.5,-232.5 638.5,-253.5 735.5,-253.5 735.5,-232.5 638.5,-232.5"/>
<text text-anchor="middle" x="687" y="-240.5" font-family="Helvetica,sans-Serif" font-size="10.00">tree/TAntHeader.h</text>
</a>
</g>
<!-- Node0&#45;&gt;Node26 -->
<g id="edge68" class="edge"><title>Node0&#45;&gt;Node26</title>
<path fill="none" stroke="midnightblue" d="M908.105,-290.497C862.421,-280.683 794.16,-266.02 745.583,-255.585"/>
<polygon fill="midnightblue" stroke="midnightblue" points="746.043,-252.104 735.531,-253.425 744.573,-258.947 746.043,-252.104"/>
</g>
<!-- Node37 -->
<g id="node89" class="node"><title>Node37</title>
<polygon fill="white" stroke="#bfbfbf" points="1817,-232.5 1817,-253.5 1873,-253.5 1873,-232.5 1817,-232.5"/>
<text text-anchor="middle" x="1845" y="-240.5" font-family="Helvetica,sans-Serif" font-size="10.00">TChain.h</text>
</g>
<!-- Node0&#45;&gt;Node37 -->
<g id="edge102" class="edge"><title>Node0&#45;&gt;Node37</title>
<path fill="none" stroke="midnightblue" d="M1006.11,-299.567C1162.51,-294.801 1647.78,-278.385 1803,-254 1804.26,-253.803 1805.53,-253.583 1806.81,-253.346"/>
<polygon fill="midnightblue" stroke="midnightblue" points="1807.65,-256.747 1816.7,-251.236 1806.19,-249.901 1807.65,-256.747"/>
</g>
<!-- Node38 -->
<g id="node91" class="node"><title>Node38</title>
<polygon fill="white" stroke="#bfbfbf" points="1891,-232.5 1891,-253.5 1941,-253.5 1941,-232.5 1891,-232.5"/>
<text text-anchor="middle" x="1916" y="-240.5" font-family="Helvetica,sans-Serif" font-size="10.00">TTree.h</text>
</g>
<!-- Node0&#45;&gt;Node38 -->
<g id="edge104" class="edge"><title>Node0&#45;&gt;Node38</title>
<path fill="none" stroke="midnightblue" d="M1006.04,-300.201C1168.98,-297.286 1692.13,-285.776 1880.86,-253.709"/>
<polygon fill="midnightblue" stroke="midnightblue" points="1881.71,-257.115 1890.94,-251.918 1880.48,-250.223 1881.71,-257.115"/>
</g>
<!-- Node2 -->
<g id="node5" class="node"><title>Node2</title>
<polygon fill="white" stroke="#bfbfbf" points="-0.5,-174.5 -0.5,-195.5 88.5,-195.5 88.5,-174.5 -0.5,-174.5"/>
<text text-anchor="middle" x="44" y="-182.5" font-family="Helvetica,sans-Serif" font-size="10.00">easylogging++.h</text>
</g>
<!-- Node1&#45;&gt;Node2 -->
<g id="edge4" class="edge"><title>Node1&#45;&gt;Node2</title>
<path fill="none" stroke="midnightblue" d="M44,-232.362C44,-224.922 44,-214.743 44,-205.728"/>
<polygon fill="midnightblue" stroke="midnightblue" points="47.5001,-205.571 44,-195.571 40.5001,-205.571 47.5001,-205.571"/>
</g>
<!-- Node4&#45;&gt;Node5 -->
<g id="edge10" class="edge"><title>Node4&#45;&gt;Node5</title>
<path fill="none" stroke="midnightblue" d="M1265.37,-174.333C1282.62,-167.043 1301.94,-155.47 1312,-138 1320.75,-122.809 1315.04,-103.059 1308.3,-88.5838"/>
<polygon fill="midnightblue" stroke="midnightblue" points="1311.33,-86.8116 1303.63,-79.5258 1305.1,-90.0182 1311.33,-86.8116"/>
</g>
<!-- Node4&#45;&gt;Node6 -->
<g id="edge44" class="edge"><title>Node4&#45;&gt;Node6</title>
<path fill="none" stroke="midnightblue" d="M1183.63,-177.055C1144.69,-169.623 1088.55,-156.823 1042,-138 1023.91,-130.684 1022.43,-122.429 1004,-116 874.618,-70.8568 443.861,-25.8838 324.12,-14.0203"/>
<polygon fill="midnightblue" stroke="midnightblue" points="324.128,-10.5043 313.833,-13.007 323.442,-17.4706 324.128,-10.5043"/>
</g>
<!-- Node10 -->
<g id="node21" class="node"><title>Node10</title>
<a xlink:href="misc_8h.html" target="_top" xlink:title="base/std_ext/misc.h">
<polygon fill="white" stroke="black" points="1396.5,-116.5 1396.5,-137.5 1501.5,-137.5 1501.5,-116.5 1396.5,-116.5"/>
<text text-anchor="middle" x="1449" y="-124.5" font-family="Helvetica,sans-Serif" font-size="10.00">base/std_ext/misc.h</text>
</a>
</g>
<!-- Node4&#45;&gt;Node10 -->
<g id="edge20" class="edge"><title>Node4&#45;&gt;Node10</title>
<path fill="none" stroke="midnightblue" d="M1270.48,-174.497C1306.63,-164.877 1360.3,-150.598 1399.35,-140.209"/>
<polygon fill="midnightblue" stroke="midnightblue" points="1400.68,-143.477 1409.45,-137.523 1398.88,-136.712 1400.68,-143.477"/>
</g>
<!-- Node4&#45;&gt;Node11 -->
<g id="edge52" class="edge"><title>Node4&#45;&gt;Node11</title>
<path fill="none" stroke="midnightblue" d="M1278.09,-182.583C1380.52,-176.91 1616.62,-161.427 1644,-138 1657.75,-126.235 1662.01,-105.523 1663.12,-89.8519"/>
<polygon fill="midnightblue" stroke="midnightblue" points="1666.63,-89.6439 1663.46,-79.5323 1659.63,-89.4095 1666.63,-89.6439"/>
</g>
<!-- Node14 -->
<g id="node30" class="node"><title>Node14</title>
<polygon fill="white" stroke="#bfbfbf" points="1518.5,-116.5 1518.5,-137.5 1565.5,-137.5 1565.5,-116.5 1518.5,-116.5"/>
<text text-anchor="middle" x="1542" y="-124.5" font-family="Helvetica,sans-Serif" font-size="10.00">TFile.h</text>
</g>
<!-- Node4&#45;&gt;Node14 -->
<g id="edge30" class="edge"><title>Node4&#45;&gt;Node14</title>
<path fill="none" stroke="midnightblue" d="M1278.39,-179.43C1332.22,-172.569 1422.75,-159.419 1508.48,-138.109"/>
<polygon fill="midnightblue" stroke="midnightblue" points="1509.53,-141.453 1518.37,-135.609 1507.81,-134.667 1509.53,-141.453"/>
</g>
<!-- Node4&#45;&gt;Node15 -->
<g id="edge32" class="edge"><title>Node4&#45;&gt;Node15</title>
<path fill="none" stroke="midnightblue" d="M1278.11,-181.838C1359.74,-175.96 1532.56,-161.741 1677,-138 1678.08,-137.823 1679.16,-137.638 1680.26,-137.444"/>
<polygon fill="midnightblue" stroke="midnightblue" points="1681.07,-140.852 1690.23,-135.532 1679.75,-133.977 1681.07,-140.852"/>
</g>
<!-- Node16 -->
<g id="node34" class="node"><title>Node16</title>
<polygon fill="white" stroke="#bfbfbf" points="1583,-116.5 1583,-137.5 1635,-137.5 1635,-116.5 1583,-116.5"/>
<text text-anchor="middle" x="1609" y="-124.5" font-family="Helvetica,sans-Serif" font-size="10.00">TError.h</text>
</g>
<!-- Node4&#45;&gt;Node16 -->
<g id="edge34" class="edge"><title>Node4&#45;&gt;Node16</title>
<path fill="none" stroke="midnightblue" d="M1278.05,-181.082C1342.61,-175.151 1462.32,-162.173 1572.78,-137.99"/>
<polygon fill="midnightblue" stroke="midnightblue" points="1573.76,-141.359 1582.76,-135.769 1572.23,-134.526 1573.76,-141.359"/>
</g>
<!-- Node17 -->
<g id="node36" class="node"><title>Node17</title>
<polygon fill="white" stroke="#bfbfbf" points="1050.5,-116.5 1050.5,-137.5 1097.5,-137.5 1097.5,-116.5 1050.5,-116.5"/>
<text text-anchor="middle" x="1074" y="-124.5" font-family="Helvetica,sans-Serif" font-size="10.00">TList.h</text>
</g>
<!-- Node4&#45;&gt;Node17 -->
<g id="edge36" class="edge"><title>Node4&#45;&gt;Node17</title>
<path fill="none" stroke="midnightblue" d="M1202.57,-174.497C1175.69,-164.568 1135.38,-149.675 1107.08,-139.219"/>
<polygon fill="midnightblue" stroke="midnightblue" points="1108.2,-135.904 1097.61,-135.721 1105.78,-142.47 1108.2,-135.904"/>
</g>
<!-- Node18 -->
<g id="node38" class="node"><title>Node18</title>
<polygon fill="white" stroke="#bfbfbf" points="1115,-116.5 1115,-137.5 1189,-137.5 1189,-116.5 1115,-116.5"/>
<text text-anchor="middle" x="1152" y="-124.5" font-family="Helvetica,sans-Serif" font-size="10.00">TCollection.h</text>
</g>
<!-- Node4&#45;&gt;Node18 -->
<g id="edge38" class="edge"><title>Node4&#45;&gt;Node18</title>
<path fill="none" stroke="midnightblue" d="M1216.51,-174.362C1204.82,-165.777 1188.16,-153.546 1174.7,-143.664"/>
<polygon fill="midnightblue" stroke="midnightblue" points="1176.53,-140.667 1166.4,-137.571 1172.39,-146.31 1176.53,-140.667"/>
</g>
<!-- Node19 -->
<g id="node40" class="node"><title>Node19</title>
<polygon fill="white" stroke="#bfbfbf" points="1207,-116.5 1207,-137.5 1255,-137.5 1255,-116.5 1207,-116.5"/>
<text text-anchor="middle" x="1231" y="-124.5" font-family="Helvetica,sans-Serif" font-size="10.00">TKey.h</text>
</g>
<!-- Node4&#45;&gt;Node19 -->
<g id="edge40" class="edge"><title>Node4&#45;&gt;Node19</title>
<path fill="none" stroke="midnightblue" d="M1231,-174.362C1231,-166.922 1231,-156.743 1231,-147.728"/>
<polygon fill="midnightblue" stroke="midnightblue" points="1234.5,-147.571 1231,-137.571 1227.5,-147.571 1234.5,-147.571"/>
</g>
<!-- Node20 -->
<g id="node42" class="node"><title>Node20</title>
<polygon fill="white" stroke="#bfbfbf" points="943,-116.5 943,-137.5 995,-137.5 995,-116.5 943,-116.5"/>
<text text-anchor="middle" x="969" y="-124.5" font-family="Helvetica,sans-Serif" font-size="10.00">memory</text>
</g>
<!-- Node4&#45;&gt;Node20 -->
<g id="edge42" class="edge"><title>Node4&#45;&gt;Node20</title>
<path fill="none" stroke="midnightblue" d="M1183.61,-175.82C1138.54,-166.887 1068.91,-152.566 1009,-138 1007.74,-137.694 1006.46,-137.376 1005.17,-137.05"/>
<polygon fill="midnightblue" stroke="midnightblue" points="1005.75,-133.585 995.192,-134.444 1003.98,-140.358 1005.75,-133.585"/>
</g>
<!-- Node4&#45;&gt;Node21 -->
<g id="edge46" class="edge"><title>Node4&#45;&gt;Node21</title>
<path fill="none" stroke="midnightblue" d="M1183.99,-180.968C1101.74,-173.614 934.079,-157.222 859.68,-137.708"/>
<polygon fill="midnightblue" stroke="midnightblue" points="860.394,-134.273 849.82,-134.934 858.498,-141.011 860.394,-134.273"/>
</g>
<!-- Node22 -->
<g id="node47" class="node"><title>Node22</title>
<polygon fill="white" stroke="#bfbfbf" points="1273,-116.5 1273,-137.5 1303,-137.5 1303,-116.5 1273,-116.5"/>
<text text-anchor="middle" x="1288" y="-124.5" font-family="Helvetica,sans-Serif" font-size="10.00">set</text>
</g>
<!-- Node4&#45;&gt;Node22 -->
<g id="edge48" class="edge"><title>Node4&#45;&gt;Node22</title>
<path fill="none" stroke="midnightblue" d="M1241.45,-174.362C1249.57,-166.104 1261,-154.472 1270.5,-144.803"/>
<polygon fill="midnightblue" stroke="midnightblue" points="1273.1,-147.156 1277.61,-137.571 1268.11,-142.25 1273.1,-147.156"/>
</g>
<!-- Node23 -->
<g id="node49" class="node"><title>Node23</title>
<polygon fill="white" stroke="#bfbfbf" points="866.5,-116.5 866.5,-137.5 925.5,-137.5 925.5,-116.5 866.5,-116.5"/>
<text text-anchor="middle" x="896" y="-124.5" font-family="Helvetica,sans-Serif" font-size="10.00">stdexcept</text>
</g>
<!-- Node4&#45;&gt;Node23 -->
<g id="edge50" class="edge"><title>Node4&#45;&gt;Node23</title>
<path fill="none" stroke="midnightblue" d="M1183.85,-179.386C1126.99,-172.209 1028.41,-158.463 935.609,-138.18"/>
<polygon fill="midnightblue" stroke="midnightblue" points="936.3,-134.748 925.78,-136.001 934.786,-141.582 936.3,-134.748"/>
</g>
<!-- Node5&#45;&gt;Node6 -->
<g id="edge12" class="edge"><title>Node5&#45;&gt;Node6</title>
<path fill="none" stroke="midnightblue" d="M1242.66,-65.8611C1059.24,-55.2647 466.439,-21.0194 323.99,-12.7902"/>
<polygon fill="midnightblue" stroke="midnightblue" points="323.974,-9.28357 313.788,-12.2009 323.57,-16.2719 323.974,-9.28357"/>
</g>
<!-- Node7 -->
<g id="node15" class="node"><title>Node7</title>
<polygon fill="white" stroke="#bfbfbf" points="1226,-0.5 1226,-21.5 1278,-21.5 1278,-0.5 1226,-0.5"/>
<text text-anchor="middle" x="1252" y="-8.5" font-family="Helvetica,sans-Serif" font-size="10.00">sstream</text>
</g>
<!-- Node5&#45;&gt;Node7 -->
<g id="edge14" class="edge"><title>Node5&#45;&gt;Node7</title>
<path fill="none" stroke="midnightblue" d="M1288.75,-58.3619C1282.53,-50.3496 1273.85,-39.1605 1266.49,-29.6696"/>
<polygon fill="midnightblue" stroke="midnightblue" points="1269.1,-27.326 1260.2,-21.5707 1263.57,-31.617 1269.1,-27.326"/>
</g>
<!-- Node8 -->
<g id="node17" class="node"><title>Node8</title>
<polygon fill="white" stroke="#bfbfbf" points="1400,-0.5 1400,-21.5 1456,-21.5 1456,-0.5 1400,-0.5"/>
<text text-anchor="middle" x="1428" y="-8.5" font-family="Helvetica,sans-Serif" font-size="10.00">algorithm</text>
</g>
<!-- Node5&#45;&gt;Node8 -->
<g id="edge16" class="edge"><title>Node5&#45;&gt;Node8</title>
<path fill="none" stroke="midnightblue" d="M1320.72,-58.4966C1341.37,-49.3562 1371.52,-36.0082 1394.6,-25.7883"/>
<polygon fill="midnightblue" stroke="midnightblue" points="1396.28,-28.8701 1404.01,-21.6212 1393.45,-22.4694 1396.28,-28.8701"/>
</g>
<!-- Node9 -->
<g id="node19" class="node"><title>Node9</title>
<polygon fill="white" stroke="#bfbfbf" points="1296,-0.5 1296,-21.5 1340,-21.5 1340,-0.5 1296,-0.5"/>
<text text-anchor="middle" x="1318" y="-8.5" font-family="Helvetica,sans-Serif" font-size="10.00">vector</text>
</g>
<!-- Node5&#45;&gt;Node9 -->
<g id="edge18" class="edge"><title>Node5&#45;&gt;Node9</title>
<path fill="none" stroke="midnightblue" d="M1300.85,-58.3619C1303.6,-50.7584 1307.39,-40.294 1310.71,-31.1349"/>
<polygon fill="midnightblue" stroke="midnightblue" points="1314.06,-32.1649 1314.17,-21.5707 1307.48,-29.7818 1314.06,-32.1649"/>
</g>
<!-- Node10&#45;&gt;Node8 -->
<g id="edge22" class="edge"><title>Node10&#45;&gt;Node8</title>
<path fill="none" stroke="midnightblue" d="M1447.06,-116.295C1443.59,-97.1314 1436.26,-56.654 1431.77,-31.8434"/>
<polygon fill="midnightblue" stroke="midnightblue" points="1435.16,-30.8957 1429.93,-21.6792 1428.27,-32.1428 1435.16,-30.8957"/>
</g>
<!-- Node10&#45;&gt;Node11 -->
<g id="edge24" class="edge"><title>Node10&#45;&gt;Node11</title>
<path fill="none" stroke="midnightblue" d="M1487.75,-116.497C1526.23,-106.068 1584.92,-90.163 1623.61,-79.675"/>
<polygon fill="midnightblue" stroke="midnightblue" points="1624.74,-82.995 1633.48,-77.0009 1622.91,-76.2388 1624.74,-82.995"/>
</g>
<!-- Node12 -->
<g id="node26" class="node"><title>Node12</title>
<polygon fill="white" stroke="#bfbfbf" points="1477,-58.5 1477,-79.5 1521,-79.5 1521,-58.5 1477,-58.5"/>
<text text-anchor="middle" x="1499" y="-66.5" font-family="Helvetica,sans-Serif" font-size="10.00">cmath</text>
</g>
<!-- Node10&#45;&gt;Node12 -->
<g id="edge26" class="edge"><title>Node10&#45;&gt;Node12</title>
<path fill="none" stroke="midnightblue" d="M1458.17,-116.362C1465.15,-108.268 1474.92,-96.9318 1483.16,-87.3796"/>
<polygon fill="midnightblue" stroke="midnightblue" points="1486.01,-89.4301 1489.89,-79.5707 1480.71,-84.8595 1486.01,-89.4301"/>
</g>
<!-- Node13 -->
<g id="node28" class="node"><title>Node13</title>
<polygon fill="white" stroke="#bfbfbf" points="1368.5,-58.5 1368.5,-79.5 1421.5,-79.5 1421.5,-58.5 1368.5,-58.5"/>
<text text-anchor="middle" x="1395" y="-66.5" font-family="Helvetica,sans-Serif" font-size="10.00">cxxabi.h</text>
</g>
<!-- Node10&#45;&gt;Node13 -->
<g id="edge28" class="edge"><title>Node10&#45;&gt;Node13</title>
<path fill="none" stroke="midnightblue" d="M1439.1,-116.362C1431.48,-108.186 1420.79,-96.7025 1411.84,-87.0907"/>
<polygon fill="midnightblue" stroke="midnightblue" points="1414.22,-84.5046 1404.84,-79.5707 1409.09,-89.2746 1414.22,-84.5046"/>
</g>
<!-- Node24&#45;&gt;Node6 -->
<g id="edge60" class="edge"><title>Node24&#45;&gt;Node6</title>
<path fill="none" stroke="midnightblue" d="M295.716,-174.372C289.901,-165.201 282.214,-151.362 279,-138 270.684,-103.431 273.871,-93.1837 279,-58 280.313,-48.9958 282.969,-39.3181 285.619,-31.0986"/>
<polygon fill="midnightblue" stroke="midnightblue" points="288.934,-32.2223 288.87,-21.6276 282.313,-29.9496 288.934,-32.2223"/>
</g>
<!-- Node24&#45;&gt;Node21 -->
<g id="edge58" class="edge"><title>Node24&#45;&gt;Node21</title>
<path fill="none" stroke="midnightblue" d="M361.277,-182.207C472.343,-176.475 711.401,-162.064 810.247,-137.641"/>
<polygon fill="midnightblue" stroke="midnightblue" points="811.428,-140.949 820.202,-135.01 809.64,-134.181 811.428,-140.949"/>
</g>
<!-- Node25&#45;&gt;Node20 -->
<g id="edge64" class="edge"><title>Node25&#45;&gt;Node20</title>
<path fill="none" stroke="midnightblue" d="M959.201,-174.362C960.757,-166.84 962.893,-156.519 964.773,-147.431"/>
<polygon fill="midnightblue" stroke="midnightblue" points="968.214,-148.072 966.813,-137.571 961.359,-146.654 968.214,-148.072"/>
</g>
<!-- Node25&#45;&gt;Node21 -->
<g id="edge66" class="edge"><title>Node25&#45;&gt;Node21</title>
<path fill="none" stroke="midnightblue" d="M934.58,-174.378C916.312,-165.719 889.629,-153.06 858.833,-138.39"/>
<polygon fill="midnightblue" stroke="midnightblue" points="860.131,-135.132 849.598,-133.989 857.119,-141.451 860.131,-135.132"/>
</g>
<!-- Node26&#45;&gt;Node6 -->
<g id="edge98" class="edge"><title>Node26&#45;&gt;Node6</title>
<path fill="none" stroke="midnightblue" d="M638.215,-233.718C553.602,-216.744 384.495,-178.685 341,-138 310.59,-109.554 299.293,-59.8897 295.211,-31.8376"/>
<polygon fill="midnightblue" stroke="midnightblue" points="298.64,-31.0625 293.904,-21.5856 291.697,-31.948 298.64,-31.0625"/>
</g>
<!-- Node27 -->
<g id="node63" class="node"><title>Node27</title>
<a xlink:href="_t_i_d_8h.html" target="_top" xlink:title="TID.h">
<polygon fill="white" stroke="black" points="631.5,-174.5 631.5,-195.5 672.5,-195.5 672.5,-174.5 631.5,-174.5"/>
<text text-anchor="middle" x="652" y="-182.5" font-family="Helvetica,sans-Serif" font-size="10.00">TID.h</text>
</a>
</g>
<!-- Node26&#45;&gt;Node27 -->
<g id="edge70" class="edge"><title>Node26&#45;&gt;Node27</title>
<path fill="none" stroke="midnightblue" d="M680.58,-232.362C675.844,-224.513 669.268,-213.616 663.618,-204.253"/>
<polygon fill="midnightblue" stroke="midnightblue" points="666.542,-202.324 658.379,-195.571 660.549,-205.941 666.542,-202.324"/>
</g>
<!-- Node36 -->
<g id="node85" class="node"><title>Node36</title>
<polygon fill="white" stroke="#bfbfbf" points="690,-174.5 690,-195.5 752,-195.5 752,-174.5 690,-174.5"/>
<text text-anchor="middle" x="721" y="-182.5" font-family="Helvetica,sans-Serif" font-size="10.00">TNamed.h</text>
</g>
<!-- Node26&#45;&gt;Node36 -->
<g id="edge96" class="edge"><title>Node26&#45;&gt;Node36</title>
<path fill="none" stroke="midnightblue" d="M693.236,-232.362C697.837,-224.513 704.225,-213.616 709.714,-204.253"/>
<polygon fill="midnightblue" stroke="midnightblue" points="712.766,-205.968 714.803,-195.571 706.727,-202.428 712.766,-205.968"/>
</g>
<!-- Node27&#45;&gt;Node21 -->
<g id="edge90" class="edge"><title>Node27&#45;&gt;Node21</title>
<path fill="none" stroke="midnightblue" d="M672.51,-176.946C675.347,-175.913 678.236,-174.902 681,-174 735.488,-156.223 753.596,-158.778 810.581,-138.13"/>
<polygon fill="midnightblue" stroke="midnightblue" points="811.913,-141.369 820.072,-134.61 809.479,-134.806 811.913,-141.369"/>
</g>
<!-- Node27&#45;&gt;Node23 -->
<g id="edge88" class="edge"><title>Node27&#45;&gt;Node23</title>
<path fill="none" stroke="midnightblue" d="M672.772,-176.66C675.517,-175.694 678.31,-174.778 681,-174 755.103,-152.563 778.249,-156.791 856.383,-138.253"/>
<polygon fill="midnightblue" stroke="midnightblue" points="857.296,-141.633 866.191,-135.877 855.648,-134.83 857.296,-141.633"/>
</g>
<!-- Node28 -->
<g id="node65" class="node"><title>Node28</title>
<polygon fill="white" stroke="#bfbfbf" points="359,-116.5 359,-137.5 415,-137.5 415,-116.5 359,-116.5"/>
<text text-anchor="middle" x="387" y="-124.5" font-family="Helvetica,sans-Serif" font-size="10.00">Rtypes.h</text>
</g>
<!-- Node27&#45;&gt;Node28 -->
<g id="edge72" class="edge"><title>Node27&#45;&gt;Node28</title>
<path fill="none" stroke="midnightblue" d="M631.429,-181.371C592.864,-174.438 506.913,-158.376 425.159,-138.146"/>
<polygon fill="midnightblue" stroke="midnightblue" points="425.763,-134.69 415.213,-135.659 424.065,-141.48 425.763,-134.69"/>
</g>
<!-- Node29 -->
<g id="node67" class="node"><title>Node29</title>
<a xlink:href="base_2std__ext_2_time_8h.html" target="_top" xlink:title="base/std_ext/time.h">
<polygon fill="white" stroke="black" points="432.5,-116.5 432.5,-137.5 535.5,-137.5 535.5,-116.5 432.5,-116.5"/>
<text text-anchor="middle" x="484" y="-124.5" font-family="Helvetica,sans-Serif" font-size="10.00">base/std_ext/time.h</text>
</a>
</g>
<!-- Node27&#45;&gt;Node29 -->
<g id="edge74" class="edge"><title>Node27&#45;&gt;Node29</title>
<path fill="none" stroke="midnightblue" d="M631.4,-177.888C604.764,-168.692 557.796,-152.477 524.029,-140.82"/>
<polygon fill="midnightblue" stroke="midnightblue" points="525.043,-137.467 514.448,-137.512 522.758,-144.084 525.043,-137.467"/>
</g>
<!-- Node31 -->
<g id="node72" class="node"><title>Node31</title>
<polygon fill="white" stroke="#bfbfbf" points="361.5,-58.5 361.5,-79.5 402.5,-79.5 402.5,-58.5 361.5,-58.5"/>
<text text-anchor="middle" x="382" y="-66.5" font-family="Helvetica,sans-Serif" font-size="10.00">ctime</text>
</g>
<!-- Node27&#45;&gt;Node31 -->
<g id="edge94" class="edge"><title>Node27&#45;&gt;Node31</title>
<path fill="none" stroke="midnightblue" d="M631.316,-183.323C566.167,-177.832 368.422,-159.511 350,-138 337.245,-123.106 350.055,-102.274 363.063,-87.404"/>
<polygon fill="midnightblue" stroke="midnightblue" points="365.872,-89.5251 370.149,-79.832 360.761,-84.7421 365.872,-89.5251"/>
</g>
<!-- Node32 -->
<g id="node74" class="node"><title>Node32</title>
<polygon fill="white" stroke="#bfbfbf" points="553,-116.5 553,-137.5 615,-137.5 615,-116.5 553,-116.5"/>
<text text-anchor="middle" x="584" y="-124.5" font-family="Helvetica,sans-Serif" font-size="10.00">type_traits</text>
</g>
<!-- Node27&#45;&gt;Node32 -->
<g id="edge82" class="edge"><title>Node27&#45;&gt;Node32</title>
<path fill="none" stroke="midnightblue" d="M639.528,-174.362C629.655,-165.941 615.667,-154.011 604.202,-144.231"/>
<polygon fill="midnightblue" stroke="midnightblue" points="606.273,-141.397 596.393,-137.571 601.73,-146.723 606.273,-141.397"/>
</g>
<!-- Node33 -->
<g id="node76" class="node"><title>Node33</title>
<polygon fill="white" stroke="#bfbfbf" points="633,-116.5 633,-137.5 671,-137.5 671,-116.5 633,-116.5"/>
<text text-anchor="middle" x="652" y="-124.5" font-family="Helvetica,sans-Serif" font-size="10.00">tuple</text>
</g>
<!-- Node27&#45;&gt;Node33 -->
<g id="edge84" class="edge"><title>Node27&#45;&gt;Node33</title>
<path fill="none" stroke="midnightblue" d="M652,-174.362C652,-166.922 652,-156.743 652,-147.728"/>
<polygon fill="midnightblue" stroke="midnightblue" points="655.5,-147.571 652,-137.571 648.5,-147.571 655.5,-147.571"/>
</g>
<!-- Node34 -->
<g id="node78" class="node"><title>Node34</title>
<polygon fill="white" stroke="#bfbfbf" points="689,-116.5 689,-137.5 735,-137.5 735,-116.5 689,-116.5"/>
<text text-anchor="middle" x="712" y="-124.5" font-family="Helvetica,sans-Serif" font-size="10.00">cstdint</text>
</g>
<!-- Node27&#45;&gt;Node34 -->
<g id="edge86" class="edge"><title>Node27&#45;&gt;Node34</title>
<path fill="none" stroke="midnightblue" d="M663.005,-174.362C671.547,-166.104 683.58,-154.472 693.583,-144.803"/>
<polygon fill="midnightblue" stroke="midnightblue" points="696.308,-147.037 701.065,-137.571 691.442,-142.004 696.308,-147.037"/>
</g>
<!-- Node35 -->
<g id="node82" class="node"><title>Node35</title>
<polygon fill="white" stroke="#bfbfbf" points="753,-116.5 753,-137.5 803,-137.5 803,-116.5 753,-116.5"/>
<text text-anchor="middle" x="778" y="-124.5" font-family="Helvetica,sans-Serif" font-size="10.00">iomanip</text>
</g>
<!-- Node27&#45;&gt;Node35 -->
<g id="edge92" class="edge"><title>Node27&#45;&gt;Node35</title>
<path fill="none" stroke="midnightblue" d="M672.525,-175.552C692.294,-166.452 722.509,-152.544 745.54,-141.942"/>
<polygon fill="midnightblue" stroke="midnightblue" points="747.299,-144.985 754.919,-137.624 744.372,-138.627 747.299,-144.985"/>
</g>
<!-- Node29&#45;&gt;Node5 -->
<g id="edge76" class="edge"><title>Node29&#45;&gt;Node5</title>
<path fill="none" stroke="midnightblue" d="M535.651,-117.128C538.47,-116.715 541.267,-116.335 544,-116 797.802,-84.9259 1102.39,-73.9132 1232.73,-70.4353"/>
<polygon fill="midnightblue" stroke="midnightblue" points="1233.02,-73.9289 1242.93,-70.1691 1232.84,-66.9313 1233.02,-73.9289"/>
</g>
<!-- Node30 -->
<g id="node70" class="node"><title>Node30</title>
<polygon fill="white" stroke="#bfbfbf" points="461,-58.5 461,-79.5 507,-79.5 507,-58.5 461,-58.5"/>
<text text-anchor="middle" x="484" y="-66.5" font-family="Helvetica,sans-Serif" font-size="10.00">cstring</text>
</g>
<!-- Node29&#45;&gt;Node30 -->
<g id="edge78" class="edge"><title>Node29&#45;&gt;Node30</title>
<path fill="none" stroke="midnightblue" d="M484,-116.362C484,-108.922 484,-98.7427 484,-89.7276"/>
<polygon fill="midnightblue" stroke="midnightblue" points="487.5,-89.5706 484,-79.5707 480.5,-89.5707 487.5,-89.5706"/>
</g>
<!-- Node29&#45;&gt;Node31 -->
<g id="edge80" class="edge"><title>Node29&#45;&gt;Node31</title>
<path fill="none" stroke="midnightblue" d="M465.292,-116.362C449.619,-107.45 427.036,-94.6087 409.337,-84.5447"/>
<polygon fill="midnightblue" stroke="midnightblue" points="411.013,-81.4712 400.59,-79.5707 407.553,-87.5562 411.013,-81.4712"/>
</g>
</g>
</svg>
