<?xml version="1.0" encoding="UTF-8" standalone="no"?>
<!DOCTYPE svg PUBLIC "-//W3C//DTD SVG 1.1//EN"
 "http://www.w3.org/Graphics/SVG/1.1/DTD/svg11.dtd">
<!-- Generated by graphviz version 2.26.3 (20100126.1600)
 -->
<!-- Title: progs/Ant&#45;calib&#45;editor.cc Pages: 1 -->
<svg width="1025pt" height="450pt"
 viewBox="0.00 0.00 1024.99 450.00" xmlns="http://www.w3.org/2000/svg" xmlns:xlink="http://www.w3.org/1999/xlink">
<g id="graph1" class="graph" transform="scale(1 1) rotate(0) translate(4 446)">
<title>progs/Ant&#45;calib&#45;editor.cc</title>
<polygon fill="white" stroke="white" points="-4,5 -4,-446 1021.99,-446 1021.99,5 -4,5"/>
<!-- Node0 -->
<g id="node1" class="node"><title>Node0</title>
<polygon fill="#bfbfbf" stroke="black" points="697.993,-420.5 697.993,-441.5 819.993,-441.5 819.993,-420.5 697.993,-420.5"/>
<text text-anchor="middle" x="758.993" y="-428.5" font-family="Helvetica,sans-Serif" font-size="10.00">progs/Ant&#45;calib&#45;editor.cc</text>
</g>
<!-- Node1 -->
<g id="node3" class="node"><title>Node1</title>
<a xlink:href="_editor_window_8h.html" target="_top" xlink:title="calibration/gui/EditorWindow.h">
<polygon fill="white" stroke="black" points="452.493,-362.5 452.493,-383.5 601.493,-383.5 601.493,-362.5 452.493,-362.5"/>
<text text-anchor="middle" x="526.993" y="-370.5" font-family="Helvetica,sans-Serif" font-size="10.00">calibration/gui/EditorWindow.h</text>
</a>
</g>
<!-- Node0&#45;&gt;Node1 -->
<g id="edge2" class="edge"><title>Node0&#45;&gt;Node1</title>
<path fill="none" stroke="midnightblue" d="M716.98,-420.497C678.257,-410.816 620.656,-396.416 579.035,-386.01"/>
<polygon fill="midnightblue" stroke="midnightblue" points="579.636,-382.553 569.086,-383.523 577.938,-389.344 579.636,-382.553"/>
</g>
<!-- Node12 -->
<g id="node25" class="node"><title>Node12</title>
<polygon fill="white" stroke="#bfbfbf" points="201.993,-58.5 201.993,-79.5 247.993,-79.5 247.993,-58.5 201.993,-58.5"/>
<text text-anchor="middle" x="224.993" y="-66.5" font-family="Helvetica,sans-Serif" font-size="10.00">cstring</text>
</g>
<!-- Node0&#45;&gt;Node12 -->
<g id="edge78" class="edge"><title>Node0&#45;&gt;Node12</title>
<path fill="none" stroke="midnightblue" d="M697.925,-428.068C517.762,-418.61 0.993416,-385.351 0.993416,-315 0.993416,-315 0.993416,-315 0.993416,-185 0.993416,-153.192 -2.98025,-137.999 19.9934,-116 44.3576,-92.6693 140.344,-78.5329 191.872,-72.4724"/>
<polygon fill="midnightblue" stroke="midnightblue" points="192.312,-75.9451 201.851,-71.3345 191.519,-68.9901 192.312,-75.9451"/>
</g>
<!-- Node27 -->
<g id="node61" class="node"><title>Node27</title>
<a xlink:href="_logger_8h.html" target="_top" xlink:title="base/Logger.h">
<polygon fill="white" stroke="black" points="618.993,-362.5 618.993,-383.5 696.993,-383.5 696.993,-362.5 618.993,-362.5"/>
<text text-anchor="middle" x="657.993" y="-370.5" font-family="Helvetica,sans-Serif" font-size="10.00">base/Logger.h</text>
</a>
</g>
<!-- Node0&#45;&gt;Node27 -->
<g id="edge66" class="edge"><title>Node0&#45;&gt;Node27</title>
<path fill="none" stroke="midnightblue" d="M740.468,-420.362C725.092,-411.532 702.998,-398.844 685.546,-388.822"/>
<polygon fill="midnightblue" stroke="midnightblue" points="686.816,-385.515 676.401,-383.571 683.33,-391.586 686.816,-385.515"/>
</g>
<!-- Node29 -->
<g id="node65" class="node"><title>Node29</title>
<polygon fill="white" stroke="#bfbfbf" points="714.993,-362.5 714.993,-383.5 802.993,-383.5 802.993,-362.5 714.993,-362.5"/>
<text text-anchor="middle" x="758.993" y="-370.5" font-family="Helvetica,sans-Serif" font-size="10.00">tclap/CmdLine.h</text>
</g>
<!-- Node0&#45;&gt;Node29 -->
<g id="edge70" class="edge"><title>Node0&#45;&gt;Node29</title>
<path fill="none" stroke="midnightblue" d="M758.993,-420.362C758.993,-412.922 758.993,-402.743 758.993,-393.728"/>
<polygon fill="midnightblue" stroke="midnightblue" points="762.494,-393.571 758.993,-383.571 755.494,-393.571 762.494,-393.571"/>
</g>
<!-- Node30 -->
<g id="node67" class="node"><title>Node30</title>
<polygon fill="white" stroke="#bfbfbf" points="820.493,-362.5 820.493,-383.5 869.493,-383.5 869.493,-362.5 820.493,-362.5"/>
<text text-anchor="middle" x="844.993" y="-370.5" font-family="Helvetica,sans-Serif" font-size="10.00">TRint.h</text>
</g>
<!-- Node0&#45;&gt;Node30 -->
<g id="edge72" class="edge"><title>Node0&#45;&gt;Node30</title>
<path fill="none" stroke="midnightblue" d="M774.767,-420.362C787.617,-411.696 805.978,-399.313 820.703,-389.382"/>
<polygon fill="midnightblue" stroke="midnightblue" points="822.986,-392.064 829.32,-383.571 819.072,-386.26 822.986,-392.064"/>
</g>
<!-- Node31 -->
<g id="node69" class="node"><title>Node31</title>
<polygon fill="white" stroke="#bfbfbf" points="886.493,-362.5 886.493,-383.5 945.493,-383.5 945.493,-362.5 886.493,-362.5"/>
<text text-anchor="middle" x="915.993" y="-370.5" font-family="Helvetica,sans-Serif" font-size="10.00">TROOT.h</text>
</g>
<!-- Node0&#45;&gt;Node31 -->
<g id="edge74" class="edge"><title>Node0&#45;&gt;Node31</title>
<path fill="none" stroke="midnightblue" d="M787.425,-420.497C812.799,-411.123 850.15,-397.324 878.064,-387.012"/>
<polygon fill="midnightblue" stroke="midnightblue" points="879.341,-390.272 887.509,-383.523 876.915,-383.705 879.341,-390.272"/>
</g>
<!-- Node32 -->
<g id="node71" class="node"><title>Node32</title>
<polygon fill="white" stroke="#bfbfbf" points="962.993,-362.5 962.993,-383.5 1016.99,-383.5 1016.99,-362.5 962.993,-362.5"/>
<text text-anchor="middle" x="989.993" y="-370.5" font-family="Helvetica,sans-Serif" font-size="10.00">iostream</text>
</g>
<!-- Node0&#45;&gt;Node32 -->
<g id="edge76" class="edge"><title>Node0&#45;&gt;Node32</title>
<path fill="none" stroke="midnightblue" d="M806.083,-420.485C843.537,-411.933 897.474,-399.199 953.226,-384.107"/>
<polygon fill="midnightblue" stroke="midnightblue" points="954.19,-387.471 962.917,-381.464 952.349,-380.718 954.19,-387.471"/>
</g>
<!-- Node2 -->
<g id="node5" class="node"><title>Node2</title>
<a xlink:href="_editor_8h.html" target="_top" xlink:title="calibration/Editor.h">
<polygon fill="white" stroke="black" points="608.993,-304.5 608.993,-325.5 706.993,-325.5 706.993,-304.5 608.993,-304.5"/>
<text text-anchor="middle" x="657.993" y="-312.5" font-family="Helvetica,sans-Serif" font-size="10.00">calibration/Editor.h</text>
</a>
</g>
<!-- Node1&#45;&gt;Node2 -->
<g id="edge4" class="edge"><title>Node1&#45;&gt;Node2</title>
<path fill="none" stroke="midnightblue" d="M550.717,-362.497C571.361,-353.356 601.509,-340.008 624.592,-329.788"/>
<polygon fill="midnightblue" stroke="midnightblue" points="626.277,-332.87 634.004,-325.621 623.443,-326.469 626.277,-332.87"/>
</g>
<!-- Node8 -->
<g id="node17" class="node"><title>Node8</title>
<polygon fill="white" stroke="#bfbfbf" points="704.493,-0.5 704.493,-21.5 745.493,-21.5 745.493,-0.5 704.493,-0.5"/>
<text text-anchor="middle" x="724.993" y="-8.5" font-family="Helvetica,sans-Serif" font-size="10.00">string</text>
</g>
<!-- Node1&#45;&gt;Node8 -->
<g id="edge62" class="edge"><title>Node1&#45;&gt;Node8</title>
<path fill="none" stroke="midnightblue" d="M601.551,-362.857C683.946,-351.339 806.158,-333.213 813.993,-326 839.609,-302.419 832.993,-284.817 832.993,-250 832.993,-250 832.993,-250 832.993,-127 832.993,-80.7939 786.524,-45.294 754.548,-26.3362"/>
<polygon fill="midnightblue" stroke="midnightblue" points="755.982,-23.1247 745.562,-21.2112 752.514,-29.2054 755.982,-23.1247"/>
</g>
<!-- Node21 -->
<g id="node47" class="node"><title>Node21</title>
<a xlink:href="_indicator__traits_8h.html" target="_top" xlink:title="calibration/gui/Indicator\l_traits.h">
<polygon fill="white" stroke="black" points="233.493,-233 233.493,-267 350.493,-267 350.493,-233 233.493,-233"/>
<text text-anchor="start" x="241.493" y="-254" font-family="Helvetica,sans-Serif" font-size="10.00">calibration/gui/Indicator</text>
<text text-anchor="middle" x="291.993" y="-241" font-family="Helvetica,sans-Serif" font-size="10.00">_traits.h</text>
</a>
</g>
<!-- Node1&#45;&gt;Node21 -->
<g id="edge50" class="edge"><title>Node1&#45;&gt;Node21</title>
<path fill="none" stroke="midnightblue" d="M522.301,-362.418C515.017,-347.21 499.549,-319.322 477.993,-304 443.672,-279.605 398.422,-266.155 361.147,-258.78"/>
<polygon fill="midnightblue" stroke="midnightblue" points="361.334,-255.254 350.861,-256.857 360.047,-262.135 361.334,-255.254"/>
</g>
<!-- Node22 -->
<g id="node50" class="node"><title>Node22</title>
<polygon fill="white" stroke="#bfbfbf" points="524.993,-304.5 524.993,-325.5 590.993,-325.5 590.993,-304.5 524.993,-304.5"/>
<text text-anchor="middle" x="557.993" y="-312.5" font-family="Helvetica,sans-Serif" font-size="10.00">TGFrame.h</text>
</g>
<!-- Node1&#45;&gt;Node22 -->
<g id="edge54" class="edge"><title>Node1&#45;&gt;Node22</title>
<path fill="none" stroke="midnightblue" d="M532.679,-362.362C536.831,-354.595 542.578,-343.843 547.547,-334.546"/>
<polygon fill="midnightblue" stroke="midnightblue" points="550.717,-336.04 552.344,-325.571 544.543,-332.74 550.717,-336.04"/>
</g>
<!-- Node23 -->
<g id="node52" class="node"><title>Node23</title>
<polygon fill="white" stroke="#bfbfbf" points="724.993,-304.5 724.993,-325.5 804.993,-325.5 804.993,-304.5 724.993,-304.5"/>
<text text-anchor="middle" x="764.993" y="-312.5" font-family="Helvetica,sans-Serif" font-size="10.00">KeySymbols.h</text>
</g>
<!-- Node1&#45;&gt;Node23 -->
<g id="edge56" class="edge"><title>Node1&#45;&gt;Node23</title>
<path fill="none" stroke="midnightblue" d="M570.093,-362.497C610.894,-352.554 672.124,-337.632 715.039,-327.174"/>
<polygon fill="midnightblue" stroke="midnightblue" points="716.1,-330.518 724.987,-324.75 714.442,-323.717 716.1,-330.518"/>
</g>
<!-- Node24 -->
<g id="node54" class="node"><title>Node24</title>
<polygon fill="white" stroke="#bfbfbf" points="282.493,-304.5 282.493,-325.5 347.493,-325.5 347.493,-304.5 282.493,-304.5"/>
<text text-anchor="middle" x="314.993" y="-312.5" font-family="Helvetica,sans-Serif" font-size="10.00">TCanvas.h</text>
</g>
<!-- Node1&#45;&gt;Node24 -->
<g id="edge58" class="edge"><title>Node1&#45;&gt;Node24</title>
<path fill="none" stroke="midnightblue" d="M488.602,-362.497C451.58,-352.368 395.673,-337.073 357.365,-326.592"/>
<polygon fill="midnightblue" stroke="midnightblue" points="358.113,-323.168 347.543,-323.905 356.265,-329.92 358.113,-323.168"/>
</g>
<!-- Node25 -->
<g id="node56" class="node"><title>Node25</title>
<polygon fill="white" stroke="#bfbfbf" points="364.493,-304.5 364.493,-325.5 399.493,-325.5 399.493,-304.5 364.493,-304.5"/>
<text text-anchor="middle" x="381.993" y="-312.5" font-family="Helvetica,sans-Serif" font-size="10.00">map</text>
</g>
<!-- Node1&#45;&gt;Node25 -->
<g id="edge60" class="edge"><title>Node1&#45;&gt;Node25</title>
<path fill="none" stroke="midnightblue" d="M499.505,-362.36C477.32,-353.725 445.086,-341.073 409.273,-326.472"/>
<polygon fill="midnightblue" stroke="midnightblue" points="410.172,-323.059 399.592,-322.513 407.523,-329.538 410.172,-323.059"/>
</g>
<!-- Node26 -->
<g id="node59" class="node"><title>Node26</title>
<polygon fill="white" stroke="#bfbfbf" points="416.993,-304.5 416.993,-325.5 468.993,-325.5 468.993,-304.5 416.993,-304.5"/>
<text text-anchor="middle" x="442.993" y="-312.5" font-family="Helvetica,sans-Serif" font-size="10.00">memory</text>
</g>
<!-- Node1&#45;&gt;Node26 -->
<g id="edge64" class="edge"><title>Node1&#45;&gt;Node26</title>
<path fill="none" stroke="midnightblue" d="M511.587,-362.362C499.035,-353.696 481.101,-341.313 466.719,-331.382"/>
<polygon fill="midnightblue" stroke="midnightblue" points="468.52,-328.372 458.303,-325.571 464.543,-334.133 468.52,-328.372"/>
</g>
<!-- Node3 -->
<g id="node7" class="node"><title>Node3</title>
<a xlink:href="_t_calibration_data_8h.html" target="_top" xlink:title="tree/TCalibrationData.h">
<polygon fill="white" stroke="black" points="601.993,-239.5 601.993,-260.5 719.993,-260.5 719.993,-239.5 601.993,-239.5"/>
<text text-anchor="middle" x="660.993" y="-247.5" font-family="Helvetica,sans-Serif" font-size="10.00">tree/TCalibrationData.h</text>
</a>
</g>
<!-- Node2&#45;&gt;Node3 -->
<g id="edge6" class="edge"><title>Node2&#45;&gt;Node3</title>
<path fill="none" stroke="midnightblue" d="M658.489,-304.267C658.908,-295.18 659.521,-281.892 660.036,-270.74"/>
<polygon fill="midnightblue" stroke="midnightblue" points="663.542,-270.684 660.507,-260.534 656.55,-270.362 663.542,-270.684"/>
</g>
<!-- Node4 -->
<g id="node9" class="node"><title>Node4</title>
<a xlink:href="_t_i_d_8h.html" target="_top" xlink:title="TID.h">
<polygon fill="white" stroke="black" points="320.493,-174.5 320.493,-195.5 361.493,-195.5 361.493,-174.5 320.493,-174.5"/>
<text text-anchor="middle" x="340.993" y="-182.5" font-family="Helvetica,sans-Serif" font-size="10.00">TID.h</text>
</a>
</g>
<!-- Node3&#45;&gt;Node4 -->
<g id="edge8" class="edge"><title>Node3&#45;&gt;Node4</title>
<path fill="none" stroke="midnightblue" d="M609.224,-239.484C541.922,-225.814 426.522,-202.373 371.676,-191.232"/>
<polygon fill="midnightblue" stroke="midnightblue" points="372.352,-187.798 361.855,-189.238 370.958,-194.658 372.352,-187.798"/>
</g>
<!-- Node3&#45;&gt;Node8 -->
<g id="edge46" class="edge"><title>Node3&#45;&gt;Node8</title>
<path fill="none" stroke="midnightblue" d="M663.826,-239.422C673.654,-202.72 706.399,-80.439 719.503,-31.5028"/>
<polygon fill="midnightblue" stroke="midnightblue" points="722.915,-32.292 722.121,-21.7269 716.153,-30.4812 722.915,-32.292"/>
</g>
<!-- Node13 -->
<g id="node27" class="node"><title>Node13</title>
<polygon fill="white" stroke="#bfbfbf" points="615.493,-58.5 615.493,-79.5 656.493,-79.5 656.493,-58.5 615.493,-58.5"/>
<text text-anchor="middle" x="635.993" y="-66.5" font-family="Helvetica,sans-Serif" font-size="10.00">ctime</text>
</g>
<!-- Node3&#45;&gt;Node13 -->
<g id="edge48" class="edge"><title>Node3&#45;&gt;Node13</title>
<path fill="none" stroke="midnightblue" d="M659.541,-239.486C655.52,-210.37 644.183,-128.292 638.843,-89.6301"/>
<polygon fill="midnightblue" stroke="midnightblue" points="642.285,-88.9697 637.45,-79.5427 635.351,-89.9276 642.285,-88.9697"/>
</g>
<!-- Node20 -->
<g id="node42" class="node"><title>Node20</title>
<a xlink:href="_git_info_8h.html" target="_top" xlink:title="base/GitInfo.h">
<polygon fill="white" stroke="black" points="726.993,-174.5 726.993,-195.5 804.993,-195.5 804.993,-174.5 726.993,-174.5"/>
<text text-anchor="middle" x="765.993" y="-182.5" font-family="Helvetica,sans-Serif" font-size="10.00">base/GitInfo.h</text>
</a>
</g>
<!-- Node3&#45;&gt;Node20 -->
<g id="edge42" class="edge"><title>Node3&#45;&gt;Node20</title>
<path fill="none" stroke="midnightblue" d="M678.332,-239.267C695.228,-228.807 721.115,-212.782 740.383,-200.854"/>
<polygon fill="midnightblue" stroke="midnightblue" points="742.317,-203.773 748.977,-195.534 738.633,-197.821 742.317,-203.773"/>
</g>
<!-- Node5 -->
<g id="node11" class="node"><title>Node5</title>
<polygon fill="white" stroke="#bfbfbf" points="28.9934,-116.5 28.9934,-137.5 84.9934,-137.5 84.9934,-116.5 28.9934,-116.5"/>
<text text-anchor="middle" x="56.9934" y="-124.5" font-family="Helvetica,sans-Serif" font-size="10.00">Rtypes.h</text>
</g>
<!-- Node4&#45;&gt;Node5 -->
<g id="edge10" class="edge"><title>Node4&#45;&gt;Node5</title>
<path fill="none" stroke="midnightblue" d="M320.349,-181.796C279.247,-175.263 184.131,-159.383 94.9207,-138.056"/>
<polygon fill="midnightblue" stroke="midnightblue" points="95.738,-134.653 85.1953,-135.704 94.092,-141.457 95.738,-134.653"/>
</g>
<!-- Node6 -->
<g id="node13" class="node"><title>Node6</title>
<a xlink:href="base_2std__ext_2_time_8h.html" target="_top" xlink:title="base/std_ext/time.h">
<polygon fill="white" stroke="black" points="492.493,-116.5 492.493,-137.5 595.493,-137.5 595.493,-116.5 492.493,-116.5"/>
<text text-anchor="middle" x="543.993" y="-124.5" font-family="Helvetica,sans-Serif" font-size="10.00">base/std_ext/time.h</text>
</a>
</g>
<!-- Node4&#45;&gt;Node6 -->
<g id="edge12" class="edge"><title>Node4&#45;&gt;Node6</title>
<path fill="none" stroke="midnightblue" d="M361.575,-179.119C393.183,-170.089 454.498,-152.57 497.277,-140.348"/>
<polygon fill="midnightblue" stroke="midnightblue" points="498.26,-143.707 506.913,-137.594 496.336,-136.976 498.26,-143.707"/>
</g>
<!-- Node4&#45;&gt;Node13 -->
<g id="edge40" class="edge"><title>Node4&#45;&gt;Node13</title>
<path fill="none" stroke="midnightblue" d="M361.632,-183.742C416.765,-180.01 565.88,-167.379 603.993,-138 619.374,-126.145 627.643,-105.14 631.896,-89.4096"/>
<polygon fill="midnightblue" stroke="midnightblue" points="635.335,-90.0775 634.237,-79.5397 628.524,-88.4621 635.335,-90.0775"/>
</g>
<!-- Node14 -->
<g id="node29" class="node"><title>Node14</title>
<polygon fill="white" stroke="#bfbfbf" points="412.993,-116.5 412.993,-137.5 474.993,-137.5 474.993,-116.5 412.993,-116.5"/>
<text text-anchor="middle" x="443.993" y="-124.5" font-family="Helvetica,sans-Serif" font-size="10.00">type_traits</text>
</g>
<!-- Node4&#45;&gt;Node14 -->
<g id="edge28" class="edge"><title>Node4&#45;&gt;Node14</title>
<path fill="none" stroke="midnightblue" d="M359.885,-174.362C375.711,-165.45 398.516,-152.609 416.388,-142.545"/>
<polygon fill="midnightblue" stroke="midnightblue" points="418.225,-145.527 425.221,-137.571 414.791,-139.428 418.225,-145.527"/>
</g>
<!-- Node15 -->
<g id="node31" class="node"><title>Node15</title>
<polygon fill="white" stroke="#bfbfbf" points="102.993,-116.5 102.993,-137.5 140.993,-137.5 140.993,-116.5 102.993,-116.5"/>
<text text-anchor="middle" x="121.993" y="-124.5" font-family="Helvetica,sans-Serif" font-size="10.00">tuple</text>
</g>
<!-- Node4&#45;&gt;Node15 -->
<g id="edge30" class="edge"><title>Node4&#45;&gt;Node15</title>
<path fill="none" stroke="midnightblue" d="M320.393,-180.872C286.763,-173.935 217.874,-158.898 151,-138.035"/>
<polygon fill="midnightblue" stroke="midnightblue" points="151.742,-134.599 141.152,-134.915 149.628,-141.272 151.742,-134.599"/>
</g>
<!-- Node16 -->
<g id="node33" class="node"><title>Node16</title>
<polygon fill="white" stroke="#bfbfbf" points="158.993,-116.5 158.993,-137.5 204.993,-137.5 204.993,-116.5 158.993,-116.5"/>
<text text-anchor="middle" x="181.993" y="-124.5" font-family="Helvetica,sans-Serif" font-size="10.00">cstdint</text>
</g>
<!-- Node4&#45;&gt;Node16 -->
<g id="edge32" class="edge"><title>Node4&#45;&gt;Node16</title>
<path fill="none" stroke="midnightblue" d="M320.207,-177.418C293.394,-167.637 246.449,-150.512 214.799,-138.967"/>
<polygon fill="midnightblue" stroke="midnightblue" points="215.699,-135.57 205.105,-135.431 213.3,-142.146 215.699,-135.57"/>
</g>
<!-- Node17 -->
<g id="node35" class="node"><title>Node17</title>
<polygon fill="white" stroke="#bfbfbf" points="222.493,-116.5 222.493,-137.5 281.493,-137.5 281.493,-116.5 222.493,-116.5"/>
<text text-anchor="middle" x="251.993" y="-124.5" font-family="Helvetica,sans-Serif" font-size="10.00">stdexcept</text>
</g>
<!-- Node4&#45;&gt;Node17 -->
<g id="edge34" class="edge"><title>Node4&#45;&gt;Node17</title>
<path fill="none" stroke="midnightblue" d="M324.669,-174.362C311.246,-165.614 292.011,-153.079 276.701,-143.101"/>
<polygon fill="midnightblue" stroke="midnightblue" points="278.503,-140.098 268.214,-137.571 274.681,-145.963 278.503,-140.098"/>
</g>
<!-- Node18 -->
<g id="node37" class="node"><title>Node18</title>
<polygon fill="white" stroke="#bfbfbf" points="298.493,-116.5 298.493,-137.5 327.493,-137.5 327.493,-116.5 298.493,-116.5"/>
<text text-anchor="middle" x="312.993" y="-124.5" font-family="Helvetica,sans-Serif" font-size="10.00">list</text>
</g>
<!-- Node4&#45;&gt;Node18 -->
<g id="edge36" class="edge"><title>Node4&#45;&gt;Node18</title>
<path fill="none" stroke="midnightblue" d="M335.858,-174.362C332.148,-166.677 327.027,-156.069 322.571,-146.84"/>
<polygon fill="midnightblue" stroke="midnightblue" points="325.596,-145.055 318.096,-137.571 319.292,-148.098 325.596,-145.055"/>
</g>
<!-- Node19 -->
<g id="node39" class="node"><title>Node19</title>
<polygon fill="white" stroke="#bfbfbf" points="344.993,-116.5 344.993,-137.5 394.993,-137.5 394.993,-116.5 344.993,-116.5"/>
<text text-anchor="middle" x="369.993" y="-124.5" font-family="Helvetica,sans-Serif" font-size="10.00">iomanip</text>
</g>
<!-- Node4&#45;&gt;Node19 -->
<g id="edge38" class="edge"><title>Node4&#45;&gt;Node19</title>
<path fill="none" stroke="midnightblue" d="M346.312,-174.362C350.196,-166.595 355.572,-155.843 360.221,-146.546"/>
<polygon fill="midnightblue" stroke="midnightblue" points="363.366,-148.08 364.708,-137.571 357.105,-144.95 363.366,-148.08"/>
</g>
<!-- Node7 -->
<g id="node15" class="node"><title>Node7</title>
<a xlink:href="string_8h.html" target="_top" xlink:title="base/std_ext/string.h">
<polygon fill="white" stroke="black" points="489.993,-58.5 489.993,-79.5 597.993,-79.5 597.993,-58.5 489.993,-58.5"/>
<text text-anchor="middle" x="543.993" y="-66.5" font-family="Helvetica,sans-Serif" font-size="10.00">base/std_ext/string.h</text>
</a>
</g>
<!-- Node6&#45;&gt;Node7 -->
<g id="edge14" class="edge"><title>Node6&#45;&gt;Node7</title>
<path fill="none" stroke="midnightblue" d="M543.993,-116.362C543.993,-108.922 543.993,-98.7427 543.993,-89.7276"/>
<polygon fill="midnightblue" stroke="midnightblue" points="547.494,-89.5706 543.993,-79.5707 540.494,-89.5707 547.494,-89.5706"/>
</g>
<!-- Node6&#45;&gt;Node12 -->
<g id="edge24" class="edge"><title>Node6&#45;&gt;Node12</title>
<path fill="none" stroke="midnightblue" d="M492.284,-117.514C489.48,-117.001 486.702,-116.494 483.993,-116 402.947,-101.217 307.611,-83.9476 258.3,-75.0242"/>
<polygon fill="midnightblue" stroke="midnightblue" points="258.676,-71.5355 248.213,-73.199 257.43,-78.4237 258.676,-71.5355"/>
</g>
<!-- Node6&#45;&gt;Node13 -->
<g id="edge26" class="edge"><title>Node6&#45;&gt;Node13</title>
<path fill="none" stroke="midnightblue" d="M560.868,-116.362C574.744,-107.614 594.627,-95.0786 610.453,-85.1015"/>
<polygon fill="midnightblue" stroke="midnightblue" points="612.633,-87.8645 619.226,-79.5707 608.9,-81.943 612.633,-87.8645"/>
</g>
<!-- Node7&#45;&gt;Node8 -->
<g id="edge16" class="edge"><title>Node7&#45;&gt;Node8</title>
<path fill="none" stroke="midnightblue" d="M576.771,-58.4966C610.232,-47.7744 661.76,-31.2625 694.405,-20.8017"/>
<polygon fill="midnightblue" stroke="midnightblue" points="695.839,-24.0177 704.294,-17.633 693.703,-17.3516 695.839,-24.0177"/>
</g>
<!-- Node9 -->
<g id="node19" class="node"><title>Node9</title>
<polygon fill="white" stroke="#bfbfbf" points="583.993,-0.5 583.993,-21.5 635.993,-21.5 635.993,-0.5 583.993,-0.5"/>
<text text-anchor="middle" x="609.993" y="-8.5" font-family="Helvetica,sans-Serif" font-size="10.00">sstream</text>
</g>
<!-- Node7&#45;&gt;Node9 -->
<g id="edge18" class="edge"><title>Node7&#45;&gt;Node9</title>
<path fill="none" stroke="midnightblue" d="M556.099,-58.3619C565.681,-49.9408 579.257,-38.0105 590.386,-28.2308"/>
<polygon fill="midnightblue" stroke="midnightblue" points="592.763,-30.8009 597.965,-21.5707 588.143,-25.5427 592.763,-30.8009"/>
</g>
<!-- Node10 -->
<g id="node21" class="node"><title>Node10</title>
<polygon fill="white" stroke="#bfbfbf" points="447.993,-0.5 447.993,-21.5 503.993,-21.5 503.993,-0.5 447.993,-0.5"/>
<text text-anchor="middle" x="475.993" y="-8.5" font-family="Helvetica,sans-Serif" font-size="10.00">algorithm</text>
</g>
<!-- Node7&#45;&gt;Node10 -->
<g id="edge20" class="edge"><title>Node7&#45;&gt;Node10</title>
<path fill="none" stroke="midnightblue" d="M531.521,-58.3619C521.648,-49.9408 507.661,-38.0105 496.195,-28.2308"/>
<polygon fill="midnightblue" stroke="midnightblue" points="498.266,-25.3972 488.387,-21.5707 493.724,-30.7231 498.266,-25.3972"/>
</g>
<!-- Node11 -->
<g id="node23" class="node"><title>Node11</title>
<polygon fill="white" stroke="#bfbfbf" points="521.993,-0.5 521.993,-21.5 565.993,-21.5 565.993,-0.5 521.993,-0.5"/>
<text text-anchor="middle" x="543.993" y="-8.5" font-family="Helvetica,sans-Serif" font-size="10.00">vector</text>
</g>
<!-- Node7&#45;&gt;Node11 -->
<g id="edge22" class="edge"><title>Node7&#45;&gt;Node11</title>
<path fill="none" stroke="midnightblue" d="M543.993,-58.3619C543.993,-50.9219 543.993,-40.7427 543.993,-31.7276"/>
<polygon fill="midnightblue" stroke="midnightblue" points="547.494,-31.5706 543.993,-21.5707 540.494,-31.5707 547.494,-31.5706"/>
</g>
<!-- Node20&#45;&gt;Node8 -->
<g id="edge44" class="edge"><title>Node20&#45;&gt;Node8</title>
<path fill="none" stroke="midnightblue" d="M763.49,-174.377C756.844,-146.172 738.663,-69.0121 729.876,-31.7203"/>
<polygon fill="midnightblue" stroke="midnightblue" points="733.269,-30.8584 727.568,-21.9277 726.455,-32.4639 733.269,-30.8584"/>
</g>
<!-- Node21&#45;&gt;Node5 -->
<g id="edge52" class="edge"><title>Node21&#45;&gt;Node5</title>
<path fill="none" stroke="midnightblue" d="M259.318,-232.897C213.377,-208.852 130.393,-165.418 86.3308,-142.355"/>
<polygon fill="midnightblue" stroke="midnightblue" points="87.773,-139.16 77.2901,-137.623 84.5269,-145.362 87.773,-139.16"/>
</g>
<!-- Node28 -->
<g id="node63" class="node"><title>Node28</title>
<polygon fill="white" stroke="#bfbfbf" points="860.493,-304.5 860.493,-325.5 949.493,-325.5 949.493,-304.5 860.493,-304.5"/>
<text text-anchor="middle" x="904.993" y="-312.5" font-family="Helvetica,sans-Serif" font-size="10.00">easylogging++.h</text>
</g>
<!-- Node27&#45;&gt;Node28 -->
<g id="edge68" class="edge"><title>Node27&#45;&gt;Node28</title>
<path fill="none" stroke="midnightblue" d="M697.131,-363.81C738.446,-354.108 803.887,-338.742 850.294,-327.844"/>
<polygon fill="midnightblue" stroke="midnightblue" points="851.25,-331.215 860.185,-325.522 849.65,-324.4 851.25,-331.215"/>
</g>
</g>
</svg>
