<?xml version="1.0" encoding="UTF-8" standalone="no"?>
<!DOCTYPE svg PUBLIC "-//W3C//DTD SVG 1.1//EN"
 "http://www.w3.org/Graphics/SVG/1.1/DTD/svg11.dtd">
<!-- Generated by graphviz version 2.26.3 (20100126.1600)
 -->
<!-- Title: progs/Ant&#45;treeTool.cc Pages: 1 -->
<svg width="1516pt" height="262pt"
 viewBox="0.00 0.00 1516.00 262.00" xmlns="http://www.w3.org/2000/svg" xmlns:xlink="http://www.w3.org/1999/xlink">
<g id="graph1" class="graph" transform="scale(1 1) rotate(0) translate(4 258)">
<title>progs/Ant&#45;treeTool.cc</title>
<polygon fill="white" stroke="white" points="-4,5 -4,-258 1513,-258 1513,5 -4,5"/>
<!-- Node0 -->
<g id="node1" class="node"><title>Node0</title>
<polygon fill="#bfbfbf" stroke="black" points="378,-232.5 378,-253.5 488,-253.5 488,-232.5 378,-232.5"/>
<text text-anchor="middle" x="433" y="-240.5" font-family="Helvetica,sans-Serif" font-size="10.00">progs/Ant&#45;treeTool.cc</text>
</g>
<!-- Node1 -->
<g id="node3" class="node"><title>Node1</title>
<a xlink:href="_logger_8h.html" target="_top" xlink:title="base/Logger.h">
<polygon fill="white" stroke="black" points="103,-174.5 103,-195.5 181,-195.5 181,-174.5 103,-174.5"/>
<text text-anchor="middle" x="142" y="-182.5" font-family="Helvetica,sans-Serif" font-size="10.00">base/Logger.h</text>
</a>
</g>
<!-- Node0&#45;&gt;Node1 -->
<g id="edge2" class="edge"><title>Node0&#45;&gt;Node1</title>
<path fill="none" stroke="midnightblue" d="M380.302,-232.497C326.56,-221.785 243.827,-205.295 191.335,-194.833"/>
<polygon fill="midnightblue" stroke="midnightblue" points="191.749,-191.347 181.257,-192.824 190.38,-198.212 191.749,-191.347"/>
</g>
<!-- Node3 -->
<g id="node7" class="node"><title>Node3</title>
<polygon fill="white" stroke="#bfbfbf" points="263,-174.5 263,-195.5 351,-195.5 351,-174.5 263,-174.5"/>
<text text-anchor="middle" x="307" y="-182.5" font-family="Helvetica,sans-Serif" font-size="10.00">tclap/CmdLine.h</text>
</g>
<!-- Node0&#45;&gt;Node3 -->
<g id="edge6" class="edge"><title>Node0&#45;&gt;Node3</title>
<path fill="none" stroke="midnightblue" d="M410.182,-232.497C390.414,-223.397 361.587,-210.127 339.424,-199.925"/>
<polygon fill="midnightblue" stroke="midnightblue" points="340.621,-196.623 330.074,-195.621 337.694,-202.982 340.621,-196.623"/>
</g>
<!-- Node4 -->
<g id="node9" class="node"><title>Node4</title>
<polygon fill="white" stroke="#bfbfbf" points="369,-174.5 369,-195.5 423,-195.5 423,-174.5 369,-174.5"/>
<text text-anchor="middle" x="396" y="-182.5" font-family="Helvetica,sans-Serif" font-size="10.00">iostream</text>
</g>
<!-- Node0&#45;&gt;Node4 -->
<g id="edge8" class="edge"><title>Node0&#45;&gt;Node4</title>
<path fill="none" stroke="midnightblue" d="M426.214,-232.362C421.207,-224.513 414.255,-213.616 408.282,-204.253"/>
<polygon fill="midnightblue" stroke="midnightblue" points="411.072,-202.119 402.743,-195.571 405.171,-205.884 411.072,-202.119"/>
</g>
<!-- Node5 -->
<g id="node11" class="node"><title>Node5</title>
<a xlink:href="_wrap_t_file_8h.html" target="_top" xlink:title="base/WrapTFile.h">
<polygon fill="white" stroke="black" points="965,-174.5 965,-195.5 1059,-195.5 1059,-174.5 965,-174.5"/>
<text text-anchor="middle" x="1012" y="-182.5" font-family="Helvetica,sans-Serif" font-size="10.00">base/WrapTFile.h</text>
</a>
</g>
<!-- Node0&#45;&gt;Node5 -->
<g id="edge10" class="edge"><title>Node0&#45;&gt;Node5</title>
<path fill="none" stroke="midnightblue" d="M488.255,-237.465C598.172,-226.454 843.238,-201.905 954.76,-190.734"/>
<polygon fill="midnightblue" stroke="midnightblue" points="955.205,-194.207 964.806,-189.728 954.507,-187.242 955.205,-194.207"/>
</g>
<!-- Node25 -->
<g id="node54" class="node"><title>Node25</title>
<polygon fill="white" stroke="#bfbfbf" points="1077,-174.5 1077,-195.5 1127,-195.5 1127,-174.5 1077,-174.5"/>
<text text-anchor="middle" x="1102" y="-182.5" font-family="Helvetica,sans-Serif" font-size="10.00">TTree.h</text>
</g>
<!-- Node0&#45;&gt;Node25 -->
<g id="edge56" class="edge"><title>Node0&#45;&gt;Node25</title>
<path fill="none" stroke="midnightblue" d="M488.238,-240.608C617.956,-234.725 940.032,-218.503 1067.04,-195.717"/>
<polygon fill="midnightblue" stroke="midnightblue" points="1067.75,-199.146 1076.93,-193.851 1066.45,-192.267 1067.75,-199.146"/>
</g>
<!-- Node26 -->
<g id="node56" class="node"><title>Node26</title>
<a xlink:href="_t_i_d_8h.html" target="_top" xlink:title="tree/TID.h">
<polygon fill="white" stroke="black" points="440.5,-174.5 440.5,-195.5 501.5,-195.5 501.5,-174.5 440.5,-174.5"/>
<text text-anchor="middle" x="471" y="-182.5" font-family="Helvetica,sans-Serif" font-size="10.00">tree/TID.h</text>
</a>
</g>
<!-- Node0&#45;&gt;Node26 -->
<g id="edge58" class="edge"><title>Node0&#45;&gt;Node26</title>
<path fill="none" stroke="midnightblue" d="M439.97,-232.362C445.166,-224.431 452.401,-213.389 458.578,-203.961"/>
<polygon fill="midnightblue" stroke="midnightblue" points="461.522,-205.853 464.074,-195.571 455.666,-202.017 461.522,-205.853"/>
</g>
<!-- Node2 -->
<g id="node5" class="node"><title>Node2</title>
<polygon fill="white" stroke="#bfbfbf" points="-0.5,-116.5 -0.5,-137.5 88.5,-137.5 88.5,-116.5 -0.5,-116.5"/>
<text text-anchor="middle" x="44" y="-124.5" font-family="Helvetica,sans-Serif" font-size="10.00">easylogging++.h</text>
</g>
<!-- Node1&#45;&gt;Node2 -->
<g id="edge4" class="edge"><title>Node1&#45;&gt;Node2</title>
<path fill="none" stroke="midnightblue" d="M124.025,-174.362C109.106,-165.532 87.6674,-152.844 70.7344,-142.822"/>
<polygon fill="midnightblue" stroke="midnightblue" points="72.2492,-139.652 61.8608,-137.571 68.6839,-145.676 72.2492,-139.652"/>
</g>
<!-- Node6 -->
<g id="node13" class="node"><title>Node6</title>
<a xlink:href="string_8h.html" target="_top" xlink:title="base/std_ext/string.h">
<polygon fill="white" stroke="black" points="1045,-58.5 1045,-79.5 1153,-79.5 1153,-58.5 1045,-58.5"/>
<text text-anchor="middle" x="1099" y="-66.5" font-family="Helvetica,sans-Serif" font-size="10.00">base/std_ext/string.h</text>
</a>
</g>
<!-- Node5&#45;&gt;Node6 -->
<g id="edge12" class="edge"><title>Node5&#45;&gt;Node6</title>
<path fill="none" stroke="midnightblue" d="M1050.84,-174.495C1081.22,-165.4 1119.81,-151.602 1129,-138 1139.64,-122.259 1128.5,-102.131 1116.9,-87.6818"/>
<polygon fill="midnightblue" stroke="midnightblue" points="1119.37,-85.1816 1110.18,-79.907 1114.07,-89.7604 1119.37,-85.1816"/>
</g>
<!-- Node7 -->
<g id="node15" class="node"><title>Node7</title>
<polygon fill="white" stroke="#bfbfbf" points="1139.5,-0.5 1139.5,-21.5 1180.5,-21.5 1180.5,-0.5 1139.5,-0.5"/>
<text text-anchor="middle" x="1160" y="-8.5" font-family="Helvetica,sans-Serif" font-size="10.00">string</text>
</g>
<!-- Node5&#45;&gt;Node7 -->
<g id="edge46" class="edge"><title>Node5&#45;&gt;Node7</title>
<path fill="none" stroke="midnightblue" d="M1054.69,-174.45C1088.59,-165.273 1132.33,-151.382 1145,-138 1172.09,-109.393 1168.83,-59.4264 1164.28,-31.4551"/>
<polygon fill="midnightblue" stroke="midnightblue" points="1167.72,-30.7842 1162.47,-21.5802 1160.83,-32.0477 1167.72,-30.7842"/>
</g>
<!-- Node11 -->
<g id="node23" class="node"><title>Node11</title>
<a xlink:href="misc_8h.html" target="_top" xlink:title="base/std_ext/misc.h">
<polygon fill="white" stroke="black" points="1213.5,-116.5 1213.5,-137.5 1318.5,-137.5 1318.5,-116.5 1213.5,-116.5"/>
<text text-anchor="middle" x="1266" y="-124.5" font-family="Helvetica,sans-Serif" font-size="10.00">base/std_ext/misc.h</text>
</a>
</g>
<!-- Node5&#45;&gt;Node11 -->
<g id="edge22" class="edge"><title>Node5&#45;&gt;Node11</title>
<path fill="none" stroke="midnightblue" d="M1058,-174.497C1100.66,-164.755 1164.26,-150.233 1209.89,-139.813"/>
<polygon fill="midnightblue" stroke="midnightblue" points="1210.95,-143.161 1219.92,-137.523 1209.39,-136.337 1210.95,-143.161"/>
</g>
<!-- Node12 -->
<g id="node26" class="node"><title>Node12</title>
<polygon fill="white" stroke="#bfbfbf" points="1383.5,-58.5 1383.5,-79.5 1442.5,-79.5 1442.5,-58.5 1383.5,-58.5"/>
<text text-anchor="middle" x="1413" y="-66.5" font-family="Helvetica,sans-Serif" font-size="10.00">functional</text>
</g>
<!-- Node5&#45;&gt;Node12 -->
<g id="edge54" class="edge"><title>Node5&#45;&gt;Node12</title>
<path fill="none" stroke="midnightblue" d="M1059.02,-175.566C1062.05,-175.018 1065.07,-174.491 1068,-174 1182.62,-154.792 1220.28,-184.02 1327,-138 1354.49,-126.145 1380.49,-103.02 1396.56,-86.821"/>
<polygon fill="midnightblue" stroke="midnightblue" points="1399.19,-89.1333 1403.62,-79.5051 1394.16,-84.2746 1399.19,-89.1333"/>
</g>
<!-- Node15 -->
<g id="node32" class="node"><title>Node15</title>
<polygon fill="white" stroke="#bfbfbf" points="1373.5,-116.5 1373.5,-137.5 1420.5,-137.5 1420.5,-116.5 1373.5,-116.5"/>
<text text-anchor="middle" x="1397" y="-124.5" font-family="Helvetica,sans-Serif" font-size="10.00">TFile.h</text>
</g>
<!-- Node5&#45;&gt;Node15 -->
<g id="edge32" class="edge"><title>Node5&#45;&gt;Node15</title>
<path fill="none" stroke="midnightblue" d="M1059.01,-175.513C1062.05,-174.978 1065.06,-174.469 1068,-174 1197.13,-153.385 1232,-164.724 1360,-138 1361.08,-137.774 1362.18,-137.531 1363.28,-137.275"/>
<polygon fill="midnightblue" stroke="midnightblue" points="1364.46,-140.586 1373.26,-134.69 1362.71,-133.809 1364.46,-140.586"/>
</g>
<!-- Node16 -->
<g id="node34" class="node"><title>Node16</title>
<polygon fill="white" stroke="#bfbfbf" points="1437.5,-116.5 1437.5,-137.5 1508.5,-137.5 1508.5,-116.5 1437.5,-116.5"/>
<text text-anchor="middle" x="1473" y="-124.5" font-family="Helvetica,sans-Serif" font-size="10.00">TDirectory.h</text>
</g>
<!-- Node5&#45;&gt;Node16 -->
<g id="edge34" class="edge"><title>Node5&#45;&gt;Node16</title>
<path fill="none" stroke="midnightblue" d="M1059.3,-175.382C1062.24,-174.886 1065.16,-174.42 1068,-174 1224.24,-150.918 1268.35,-165.02 1426.96,-138.175"/>
<polygon fill="midnightblue" stroke="midnightblue" points="1427.81,-141.58 1437.07,-136.435 1426.62,-134.681 1427.81,-141.58"/>
</g>
<!-- Node17 -->
<g id="node36" class="node"><title>Node17</title>
<polygon fill="white" stroke="#bfbfbf" points="728,-116.5 728,-137.5 780,-137.5 780,-116.5 728,-116.5"/>
<text text-anchor="middle" x="754" y="-124.5" font-family="Helvetica,sans-Serif" font-size="10.00">TError.h</text>
</g>
<!-- Node5&#45;&gt;Node17 -->
<g id="edge36" class="edge"><title>Node5&#45;&gt;Node17</title>
<path fill="none" stroke="midnightblue" d="M964.705,-176.41C921.477,-168.25 855.624,-155.047 789.976,-138.092"/>
<polygon fill="midnightblue" stroke="midnightblue" points="790.854,-134.704 780.294,-135.564 789.085,-141.477 790.854,-134.704"/>
</g>
<!-- Node18 -->
<g id="node38" class="node"><title>Node18</title>
<polygon fill="white" stroke="#bfbfbf" points="797.5,-116.5 797.5,-137.5 844.5,-137.5 844.5,-116.5 797.5,-116.5"/>
<text text-anchor="middle" x="821" y="-124.5" font-family="Helvetica,sans-Serif" font-size="10.00">TList.h</text>
</g>
<!-- Node5&#45;&gt;Node18 -->
<g id="edge38" class="edge"><title>Node5&#45;&gt;Node18</title>
<path fill="none" stroke="midnightblue" d="M974.593,-174.442C944.365,-165.799 900.51,-153.01 854.306,-138.343"/>
<polygon fill="midnightblue" stroke="midnightblue" points="855.318,-134.992 844.727,-135.285 853.189,-141.66 855.318,-134.992"/>
</g>
<!-- Node19 -->
<g id="node40" class="node"><title>Node19</title>
<polygon fill="white" stroke="#bfbfbf" points="862,-116.5 862,-137.5 936,-137.5 936,-116.5 862,-116.5"/>
<text text-anchor="middle" x="899" y="-124.5" font-family="Helvetica,sans-Serif" font-size="10.00">TCollection.h</text>
</g>
<!-- Node5&#45;&gt;Node19 -->
<g id="edge40" class="edge"><title>Node5&#45;&gt;Node19</title>
<path fill="none" stroke="midnightblue" d="M991.537,-174.497C973.967,-165.479 948.418,-152.365 928.615,-142.201"/>
<polygon fill="midnightblue" stroke="midnightblue" points="930.188,-139.074 919.693,-137.621 926.991,-145.301 930.188,-139.074"/>
</g>
<!-- Node20 -->
<g id="node42" class="node"><title>Node20</title>
<polygon fill="white" stroke="#bfbfbf" points="954,-116.5 954,-137.5 1002,-137.5 1002,-116.5 954,-116.5"/>
<text text-anchor="middle" x="978" y="-124.5" font-family="Helvetica,sans-Serif" font-size="10.00">TKey.h</text>
</g>
<!-- Node5&#45;&gt;Node20 -->
<g id="edge42" class="edge"><title>Node5&#45;&gt;Node20</title>
<path fill="none" stroke="midnightblue" d="M1005.76,-174.362C1001.16,-166.513 994.775,-155.616 989.286,-146.253"/>
<polygon fill="midnightblue" stroke="midnightblue" points="992.273,-144.428 984.197,-137.571 986.234,-147.968 992.273,-144.428"/>
</g>
<!-- Node21 -->
<g id="node44" class="node"><title>Node21</title>
<polygon fill="white" stroke="#bfbfbf" points="1020,-116.5 1020,-137.5 1072,-137.5 1072,-116.5 1020,-116.5"/>
<text text-anchor="middle" x="1046" y="-124.5" font-family="Helvetica,sans-Serif" font-size="10.00">memory</text>
</g>
<!-- Node5&#45;&gt;Node21 -->
<g id="edge44" class="edge"><title>Node5&#45;&gt;Node21</title>
<path fill="none" stroke="midnightblue" d="M1018.24,-174.362C1022.84,-166.513 1029.23,-155.616 1034.71,-146.253"/>
<polygon fill="midnightblue" stroke="midnightblue" points="1037.77,-147.968 1039.8,-137.571 1031.73,-144.428 1037.77,-147.968"/>
</g>
<!-- Node22 -->
<g id="node47" class="node"><title>Node22</title>
<polygon fill="white" stroke="#bfbfbf" points="681.5,-116.5 681.5,-137.5 710.5,-137.5 710.5,-116.5 681.5,-116.5"/>
<text text-anchor="middle" x="696" y="-124.5" font-family="Helvetica,sans-Serif" font-size="10.00">list</text>
</g>
<!-- Node5&#45;&gt;Node22 -->
<g id="edge48" class="edge"><title>Node5&#45;&gt;Node22</title>
<path fill="none" stroke="midnightblue" d="M964.873,-181.624C908.238,-176.655 810.516,-165.173 720.635,-137.901"/>
<polygon fill="midnightblue" stroke="midnightblue" points="721.431,-134.484 710.843,-134.857 719.353,-141.168 721.431,-134.484"/>
</g>
<!-- Node23 -->
<g id="node49" class="node"><title>Node23</title>
<polygon fill="white" stroke="#bfbfbf" points="1090,-116.5 1090,-137.5 1120,-137.5 1120,-116.5 1090,-116.5"/>
<text text-anchor="middle" x="1105" y="-124.5" font-family="Helvetica,sans-Serif" font-size="10.00">set</text>
</g>
<!-- Node5&#45;&gt;Node23 -->
<g id="edge50" class="edge"><title>Node5&#45;&gt;Node23</title>
<path fill="none" stroke="midnightblue" d="M1029.06,-174.362C1043.61,-165.286 1064.7,-152.133 1080.96,-141.99"/>
<polygon fill="midnightblue" stroke="midnightblue" points="1083.26,-144.681 1089.9,-136.419 1079.56,-138.742 1083.26,-144.681"/>
</g>
<!-- Node24 -->
<g id="node51" class="node"><title>Node24</title>
<polygon fill="white" stroke="#bfbfbf" points="605.5,-116.5 605.5,-137.5 664.5,-137.5 664.5,-116.5 605.5,-116.5"/>
<text text-anchor="middle" x="635" y="-124.5" font-family="Helvetica,sans-Serif" font-size="10.00">stdexcept</text>
</g>
<!-- Node5&#45;&gt;Node24 -->
<g id="edge52" class="edge"><title>Node5&#45;&gt;Node24</title>
<path fill="none" stroke="midnightblue" d="M964.742,-180.619C900.818,-174.217 783.159,-160.75 674.573,-138.13"/>
<polygon fill="midnightblue" stroke="midnightblue" points="675.276,-134.701 664.768,-136.056 673.828,-141.549 675.276,-134.701"/>
</g>
<!-- Node6&#45;&gt;Node7 -->
<g id="edge14" class="edge"><title>Node6&#45;&gt;Node7</title>
<path fill="none" stroke="midnightblue" d="M1110.19,-58.3619C1118.96,-50.0226 1131.35,-38.2418 1141.58,-28.5162"/>
<polygon fill="midnightblue" stroke="midnightblue" points="1144.05,-30.9978 1148.88,-21.5707 1139.22,-25.9248 1144.05,-30.9978"/>
</g>
<!-- Node8 -->
<g id="node17" class="node"><title>Node8</title>
<polygon fill="white" stroke="#bfbfbf" points="1070,-0.5 1070,-21.5 1122,-21.5 1122,-0.5 1070,-0.5"/>
<text text-anchor="middle" x="1096" y="-8.5" font-family="Helvetica,sans-Serif" font-size="10.00">sstream</text>
</g>
<!-- Node6&#45;&gt;Node8 -->
<g id="edge16" class="edge"><title>Node6&#45;&gt;Node8</title>
<path fill="none" stroke="midnightblue" d="M1098.45,-58.3619C1098.06,-50.9219 1097.54,-40.7427 1097.07,-31.7276"/>
<polygon fill="midnightblue" stroke="midnightblue" points="1100.56,-31.3765 1096.55,-21.5707 1093.57,-31.7381 1100.56,-31.3765"/>
</g>
<!-- Node9 -->
<g id="node19" class="node"><title>Node9</title>
<polygon fill="white" stroke="#bfbfbf" points="1198,-0.5 1198,-21.5 1254,-21.5 1254,-0.5 1198,-0.5"/>
<text text-anchor="middle" x="1226" y="-8.5" font-family="Helvetica,sans-Serif" font-size="10.00">algorithm</text>
</g>
<!-- Node6&#45;&gt;Node9 -->
<g id="edge18" class="edge"><title>Node6&#45;&gt;Node9</title>
<path fill="none" stroke="midnightblue" d="M1122,-58.4966C1142.01,-49.3562 1171.24,-36.0082 1193.62,-25.7883"/>
<polygon fill="midnightblue" stroke="midnightblue" points="1195.1,-28.9592 1202.74,-21.6212 1192.19,-22.5918 1195.1,-28.9592"/>
</g>
<!-- Node10 -->
<g id="node21" class="node"><title>Node10</title>
<polygon fill="white" stroke="#bfbfbf" points="1008,-0.5 1008,-21.5 1052,-21.5 1052,-0.5 1008,-0.5"/>
<text text-anchor="middle" x="1030" y="-8.5" font-family="Helvetica,sans-Serif" font-size="10.00">vector</text>
</g>
<!-- Node6&#45;&gt;Node10 -->
<g id="edge20" class="edge"><title>Node6&#45;&gt;Node10</title>
<path fill="none" stroke="midnightblue" d="M1086.34,-58.3619C1076.33,-49.9408 1062.13,-38.0105 1050.5,-28.2308"/>
<polygon fill="midnightblue" stroke="midnightblue" points="1052.48,-25.326 1042.58,-21.5707 1047.98,-30.6844 1052.48,-25.326"/>
</g>
<!-- Node11&#45;&gt;Node9 -->
<g id="edge24" class="edge"><title>Node11&#45;&gt;Node9</title>
<path fill="none" stroke="midnightblue" d="M1260.03,-116.458C1254.94,-107.115 1247.71,-92.9789 1243,-80 1237.28,-64.2615 1232.85,-45.8174 1229.95,-31.9599"/>
<polygon fill="midnightblue" stroke="midnightblue" points="1233.34,-31.0893 1227.95,-21.9691 1226.48,-32.4612 1233.34,-31.0893"/>
</g>
<!-- Node11&#45;&gt;Node12 -->
<g id="edge26" class="edge"><title>Node11&#45;&gt;Node12</title>
<path fill="none" stroke="midnightblue" d="M1292.62,-116.497C1316.1,-107.234 1350.53,-93.6499 1376.56,-83.3793"/>
<polygon fill="midnightblue" stroke="midnightblue" points="1378.06,-86.5473 1386.08,-79.6212 1375.49,-80.0358 1378.06,-86.5473"/>
</g>
<!-- Node13 -->
<g id="node28" class="node"><title>Node13</title>
<polygon fill="white" stroke="#bfbfbf" points="1252,-58.5 1252,-79.5 1296,-79.5 1296,-58.5 1252,-58.5"/>
<text text-anchor="middle" x="1274" y="-66.5" font-family="Helvetica,sans-Serif" font-size="10.00">cmath</text>
</g>
<!-- Node11&#45;&gt;Node13 -->
<g id="edge28" class="edge"><title>Node11&#45;&gt;Node13</title>
<path fill="none" stroke="midnightblue" d="M1267.47,-116.362C1268.49,-108.922 1269.9,-98.7427 1271.14,-89.7276"/>
<polygon fill="midnightblue" stroke="midnightblue" points="1274.64,-89.9551 1272.54,-79.5707 1267.71,-88.9986 1274.64,-89.9551"/>
</g>
<!-- Node14 -->
<g id="node30" class="node"><title>Node14</title>
<polygon fill="white" stroke="#bfbfbf" points="1313.5,-58.5 1313.5,-79.5 1366.5,-79.5 1366.5,-58.5 1313.5,-58.5"/>
<text text-anchor="middle" x="1340" y="-66.5" font-family="Helvetica,sans-Serif" font-size="10.00">cxxabi.h</text>
</g>
<!-- Node11&#45;&gt;Node14 -->
<g id="edge30" class="edge"><title>Node11&#45;&gt;Node14</title>
<path fill="none" stroke="midnightblue" d="M1279.57,-116.362C1290.42,-107.859 1305.83,-95.7785 1318.38,-85.9466"/>
<polygon fill="midnightblue" stroke="midnightblue" points="1320.8,-88.4942 1326.51,-79.5707 1316.48,-82.9848 1320.8,-88.4942"/>
</g>
<!-- Node26&#45;&gt;Node22 -->
<g id="edge78" class="edge"><title>Node26&#45;&gt;Node22</title>
<path fill="none" stroke="midnightblue" d="M501.702,-180.005C539.928,-173.326 607.194,-160.058 671.623,-138.015"/>
<polygon fill="midnightblue" stroke="midnightblue" points="672.821,-141.304 681.105,-134.699 670.51,-134.697 672.821,-141.304"/>
</g>
<!-- Node26&#45;&gt;Node24 -->
<g id="edge76" class="edge"><title>Node26&#45;&gt;Node24</title>
<path fill="none" stroke="midnightblue" d="M500.699,-174.497C527.32,-165.082 566.562,-151.204 595.761,-140.877"/>
<polygon fill="midnightblue" stroke="midnightblue" points="596.984,-144.157 605.245,-137.523 594.65,-137.558 596.984,-144.157"/>
</g>
<!-- Node27 -->
<g id="node58" class="node"><title>Node27</title>
<polygon fill="white" stroke="#bfbfbf" points="332,-116.5 332,-137.5 388,-137.5 388,-116.5 332,-116.5"/>
<text text-anchor="middle" x="360" y="-124.5" font-family="Helvetica,sans-Serif" font-size="10.00">Rtypes.h</text>
</g>
<!-- Node26&#45;&gt;Node27 -->
<g id="edge60" class="edge"><title>Node26&#45;&gt;Node27</title>
<path fill="none" stroke="midnightblue" d="M450.899,-174.497C433.718,-165.519 408.77,-152.484 389.355,-142.339"/>
<polygon fill="midnightblue" stroke="midnightblue" points="390.811,-139.15 380.327,-137.621 387.569,-145.354 390.811,-139.15"/>
</g>
<!-- Node28 -->
<g id="node60" class="node"><title>Node28</title>
<a xlink:href="base_2std__ext_2_time_8h.html" target="_top" xlink:title="base/std_ext/time.h">
<polygon fill="white" stroke="black" points="211.5,-116.5 211.5,-137.5 314.5,-137.5 314.5,-116.5 211.5,-116.5"/>
<text text-anchor="middle" x="263" y="-124.5" font-family="Helvetica,sans-Serif" font-size="10.00">base/std_ext/time.h</text>
</a>
</g>
<!-- Node26&#45;&gt;Node28 -->
<g id="edge62" class="edge"><title>Node26&#45;&gt;Node28</title>
<path fill="none" stroke="midnightblue" d="M440.346,-176.343C437.525,-175.549 434.71,-174.759 432,-174 391.03,-162.525 344.444,-149.577 310.575,-140.181"/>
<polygon fill="midnightblue" stroke="midnightblue" points="311.506,-136.807 300.934,-137.507 309.635,-143.552 311.506,-136.807"/>
</g>
<!-- Node30 -->
<g id="node65" class="node"><title>Node30</title>
<polygon fill="white" stroke="#bfbfbf" points="172.5,-58.5 172.5,-79.5 213.5,-79.5 213.5,-58.5 172.5,-58.5"/>
<text text-anchor="middle" x="193" y="-66.5" font-family="Helvetica,sans-Serif" font-size="10.00">ctime</text>
</g>
<!-- Node26&#45;&gt;Node30 -->
<g id="edge82" class="edge"><title>Node26&#45;&gt;Node30</title>
<path fill="none" stroke="midnightblue" d="M440.43,-176.006C437.591,-175.284 434.749,-174.602 432,-174 381.677,-162.989 239.207,-174.644 203,-138 190.677,-125.529 189.098,-105.081 190.049,-89.6756"/>
<polygon fill="midnightblue" stroke="midnightblue" points="193.551,-89.836 191.072,-79.5353 186.586,-89.1336 193.551,-89.836"/>
</g>
<!-- Node31 -->
<g id="node67" class="node"><title>Node31</title>
<polygon fill="white" stroke="#bfbfbf" points="406,-116.5 406,-137.5 468,-137.5 468,-116.5 406,-116.5"/>
<text text-anchor="middle" x="437" y="-124.5" font-family="Helvetica,sans-Serif" font-size="10.00">type_traits</text>
</g>
<!-- Node26&#45;&gt;Node31 -->
<g id="edge70" class="edge"><title>Node26&#45;&gt;Node31</title>
<path fill="none" stroke="midnightblue" d="M464.764,-174.362C460.163,-166.513 453.775,-155.616 448.286,-146.253"/>
<polygon fill="midnightblue" stroke="midnightblue" points="451.273,-144.428 443.197,-137.571 445.234,-147.968 451.273,-144.428"/>
</g>
<!-- Node32 -->
<g id="node69" class="node"><title>Node32</title>
<polygon fill="white" stroke="#bfbfbf" points="486,-116.5 486,-137.5 524,-137.5 524,-116.5 486,-116.5"/>
<text text-anchor="middle" x="505" y="-124.5" font-family="Helvetica,sans-Serif" font-size="10.00">tuple</text>
</g>
<!-- Node26&#45;&gt;Node32 -->
<g id="edge72" class="edge"><title>Node26&#45;&gt;Node32</title>
<path fill="none" stroke="midnightblue" d="M477.236,-174.362C481.837,-166.513 488.225,-155.616 493.714,-146.253"/>
<polygon fill="midnightblue" stroke="midnightblue" points="496.766,-147.968 498.803,-137.571 490.727,-144.428 496.766,-147.968"/>
</g>
<!-- Node33 -->
<g id="node71" class="node"><title>Node33</title>
<polygon fill="white" stroke="#bfbfbf" points="542,-116.5 542,-137.5 588,-137.5 588,-116.5 542,-116.5"/>
<text text-anchor="middle" x="565" y="-124.5" font-family="Helvetica,sans-Serif" font-size="10.00">cstdint</text>
</g>
<!-- Node26&#45;&gt;Node33 -->
<g id="edge74" class="edge"><title>Node26&#45;&gt;Node33</title>
<path fill="none" stroke="midnightblue" d="M488.241,-174.362C502.552,-165.532 523.115,-152.844 539.357,-142.822"/>
<polygon fill="midnightblue" stroke="midnightblue" points="541.196,-145.8 547.868,-137.571 537.52,-139.843 541.196,-145.8"/>
</g>
<!-- Node34 -->
<g id="node75" class="node"><title>Node34</title>
<polygon fill="white" stroke="#bfbfbf" points="106,-116.5 106,-137.5 156,-137.5 156,-116.5 106,-116.5"/>
<text text-anchor="middle" x="131" y="-124.5" font-family="Helvetica,sans-Serif" font-size="10.00">iomanip</text>
</g>
<!-- Node26&#45;&gt;Node34 -->
<g id="edge80" class="edge"><title>Node26&#45;&gt;Node34</title>
<path fill="none" stroke="midnightblue" d="M440.442,-175.949C437.601,-175.239 434.755,-174.575 432,-174 316.94,-149.989 285.06,-162.011 170,-138 168.722,-137.733 167.424,-137.447 166.116,-137.146"/>
<polygon fill="midnightblue" stroke="midnightblue" points="166.6,-133.66 156.049,-134.616 164.894,-140.448 166.6,-133.66"/>
</g>
<!-- Node28&#45;&gt;Node6 -->
<g id="edge64" class="edge"><title>Node28&#45;&gt;Node6</title>
<path fill="none" stroke="midnightblue" d="M314.65,-117.122C317.47,-116.71 320.267,-116.332 323,-116 585.796,-84.0705 901.426,-73.4781 1034.66,-70.2702"/>
<polygon fill="midnightblue" stroke="midnightblue" points="1034.79,-73.7684 1044.7,-70.0343 1034.62,-66.7703 1034.79,-73.7684"/>
</g>
<!-- Node29 -->
<g id="node63" class="node"><title>Node29</title>
<polygon fill="white" stroke="#bfbfbf" points="240,-58.5 240,-79.5 286,-79.5 286,-58.5 240,-58.5"/>
<text text-anchor="middle" x="263" y="-66.5" font-family="Helvetica,sans-Serif" font-size="10.00">cstring</text>
</g>
<!-- Node28&#45;&gt;Node29 -->
<g id="edge66" class="edge"><title>Node28&#45;&gt;Node29</title>
<path fill="none" stroke="midnightblue" d="M263,-116.362C263,-108.922 263,-98.7427 263,-89.7276"/>
<polygon fill="midnightblue" stroke="midnightblue" points="266.5,-89.5706 263,-79.5707 259.5,-89.5707 266.5,-89.5706"/>
</g>
<!-- Node28&#45;&gt;Node30 -->
<g id="edge68" class="edge"><title>Node28&#45;&gt;Node30</title>
<path fill="none" stroke="midnightblue" d="M250.161,-116.362C239.998,-107.941 225.599,-96.0105 213.796,-86.2308"/>
<polygon fill="midnightblue" stroke="midnightblue" points="215.691,-83.2558 205.758,-79.5707 211.225,-88.6459 215.691,-83.2558"/>
</g>
</g>
</svg>
