<?xml version="1.0" encoding="UTF-8" standalone="no"?>
<!DOCTYPE svg PUBLIC "-//W3C//DTD SVG 1.1//EN"
 "http://www.w3.org/Graphics/SVG/1.1/DTD/svg11.dtd">
<!-- Generated by graphviz version 2.26.3 (20100126.1600)
 -->
<!-- Title: src/base/Array2D.h Pages: 1 -->
<svg width="844pt" height="102pt"
 viewBox="0.00 0.00 844.00 102.00" xmlns="http://www.w3.org/2000/svg" xmlns:xlink="http://www.w3.org/1999/xlink">
<g id="graph1" class="graph" transform="scale(1 1) rotate(0) translate(4 98)">
<title>src/base/Array2D.h</title>
<polygon fill="white" stroke="white" points="-4,5 -4,-98 841,-98 841,5 -4,5"/>
<!-- Node10 -->
<g id="node1" class="node"><title>Node10</title>
<polygon fill="#bfbfbf" stroke="black" points="357.5,-72.5 357.5,-93.5 458.5,-93.5 458.5,-72.5 357.5,-72.5"/>
<text text-anchor="middle" x="408" y="-80.5" font-family="Helvetica,sans-Serif" font-size="10.00">src/base/Array2D.h</text>
</g>
<!-- Node11 -->
<g id="node3" class="node"><title>Node11</title>
<a xlink:href="_ant-_e_corr_8cc.html" target="_top" xlink:title="progs/Ant&#45;ECorr.cc">
<polygon fill="white" stroke="black" points="-0.5,-7.5 -0.5,-28.5 100.5,-28.5 100.5,-7.5 -0.5,-7.5"/>
<text text-anchor="middle" x="50" y="-15.5" font-family="Helvetica,sans-Serif" font-size="10.00">progs/Ant&#45;ECorr.cc</text>
</a>
</g>
<!-- Node10&#45;&gt;Node11 -->
<g id="edge2" class="edge"><title>Node10&#45;&gt;Node11</title>
<path fill="none" stroke="midnightblue" d="M347.146,-75.9754C286.389,-68.368 190.571,-54.7568 109,-36 100.024,-33.9361 90.4209,-31.2275 81.6242,-28.5403"/>
<polygon fill="midnightblue" stroke="midnightblue" points="346.975,-79.4808 357.329,-77.2352 347.834,-72.5338 346.975,-79.4808"/>
</g>
<!-- Node12 -->
<g id="node5" class="node"><title>Node12</title>
<a xlink:href="_ant-make_sigmas_8cc.html" target="_top" xlink:title="progs/Ant&#45;makeSigmas.cc">
<polygon fill="white" stroke="black" points="118,-7.5 118,-28.5 250,-28.5 250,-7.5 118,-7.5"/>
<text text-anchor="middle" x="184" y="-15.5" font-family="Helvetica,sans-Serif" font-size="10.00">progs/Ant&#45;makeSigmas.cc</text>
</a>
</g>
<!-- Node10&#45;&gt;Node12 -->
<g id="edge4" class="edge"><title>Node10&#45;&gt;Node12</title>
<path fill="none" stroke="midnightblue" d="M361.828,-69.6018C319.947,-57.4488 259.029,-39.7718 220.472,-28.5835"/>
<polygon fill="midnightblue" stroke="midnightblue" points="360.933,-72.9864 371.512,-72.412 362.884,-66.2637 360.933,-72.9864"/>
</g>
<!-- Node13 -->
<g id="node7" class="node"><title>Node13</title>
<a xlink:href="_ant-mcsmearing_8cc.html" target="_top" xlink:title="progs/Ant&#45;mcsmearing.cc">
<polygon fill="white" stroke="black" points="268,-7.5 268,-28.5 396,-28.5 396,-7.5 268,-7.5"/>
<text text-anchor="middle" x="332" y="-15.5" font-family="Helvetica,sans-Serif" font-size="10.00">progs/Ant&#45;mcsmearing.cc</text>
</a>
</g>
<!-- Node10&#45;&gt;Node13 -->
<g id="edge6" class="edge"><title>Node10&#45;&gt;Node13</title>
<path fill="none" stroke="midnightblue" d="M387.85,-65.7667C374.008,-53.9281 356.077,-38.5923 344.316,-28.5337"/>
<polygon fill="midnightblue" stroke="midnightblue" points="385.576,-68.4267 395.45,-72.2666 390.125,-63.107 385.576,-68.4267"/>
</g>
<!-- Node14 -->
<g id="node9" class="node"><title>Node14</title>
<a xlink:href="_interpolated_8cc.html" target="_top" xlink:title="src/analysis/utils\l/uncertainties/Interpolated.cc">
<polygon fill="white" stroke="black" points="413.5,-1 413.5,-35 556.5,-35 556.5,-1 413.5,-1"/>
<text text-anchor="start" x="421.5" y="-22" font-family="Helvetica,sans-Serif" font-size="10.00">src/analysis/utils</text>
<text text-anchor="middle" x="485" y="-9" font-family="Helvetica,sans-Serif" font-size="10.00">/uncertainties/Interpolated.cc</text>
</a>
</g>
<!-- Node10&#45;&gt;Node14 -->
<g id="edge8" class="edge"><title>Node10&#45;&gt;Node14</title>
<path fill="none" stroke="midnightblue" d="M428.677,-65.545C439.859,-56.1062 453.614,-44.4949 464.731,-35.1099"/>
<polygon fill="midnightblue" stroke="midnightblue" points="426.099,-63.1415 420.715,-72.2666 430.614,-68.4905 426.099,-63.1415"/>
</g>
<!-- Node15 -->
<g id="node11" class="node"><title>Node15</title>
<a xlink:href="_array2_d_8cc.html" target="_top" xlink:title="src/base/Array2D.cc">
<polygon fill="white" stroke="black" points="573.5,-7.5 573.5,-28.5 680.5,-28.5 680.5,-7.5 573.5,-7.5"/>
<text text-anchor="middle" x="627" y="-15.5" font-family="Helvetica,sans-Serif" font-size="10.00">src/base/Array2D.cc</text>
</a>
</g>
<!-- Node10&#45;&gt;Node15 -->
<g id="edge10" class="edge"><title>Node10&#45;&gt;Node15</title>
<path fill="none" stroke="midnightblue" d="M453.401,-69.5248C494.339,-57.3743 553.725,-39.7482 591.342,-28.5835"/>
<polygon fill="midnightblue" stroke="midnightblue" points="452.264,-66.2112 443.674,-72.412 454.256,-72.9219 452.264,-66.2112"/>
</g>
<!-- Node16 -->
<g id="node13" class="node"><title>Node16</title>
<a xlink:href="_clipped_interpolator_wrapper_8cc.html" target="_top" xlink:title="src/base/ClippedInterpolator\lWrapper.cc">
<polygon fill="white" stroke="black" points="697.5,-1 697.5,-35 836.5,-35 836.5,-1 697.5,-1"/>
<text text-anchor="start" x="705.5" y="-22" font-family="Helvetica,sans-Serif" font-size="10.00">src/base/ClippedInterpolator</text>
<text text-anchor="middle" x="767" y="-9" font-family="Helvetica,sans-Serif" font-size="10.00">Wrapper.cc</text>
</a>
</g>
<!-- Node10&#45;&gt;Node16 -->
<g id="edge12" class="edge"><title>Node10&#45;&gt;Node16</title>
<path fill="none" stroke="midnightblue" d="M468.611,-73.9573C525.653,-65.1883 613.373,-51.0362 689,-36 691.726,-35.458 694.502,-34.8908 697.304,-34.3057"/>
<polygon fill="midnightblue" stroke="midnightblue" points="468.033,-70.505 458.677,-75.4776 469.092,-77.4244 468.033,-70.505"/>
</g>
</g>
</svg>
