<?xml version="1.0" encoding="UTF-8" standalone="no"?>
<!DOCTYPE svg PUBLIC "-//W3C//DTD SVG 1.1//EN"
 "http://www.w3.org/Graphics/SVG/1.1/DTD/svg11.dtd">
<!-- Generated by graphviz version 2.26.3 (20100126.1600)
 -->
<!-- Title: src/base/math_functions/AsymGaus.cc Pages: 1 -->
<svg width="212pt" height="102pt"
 viewBox="0.00 0.00 212.00 102.00" xmlns="http://www.w3.org/2000/svg" xmlns:xlink="http://www.w3.org/1999/xlink">
<g id="graph1" class="graph" transform="scale(1 1) rotate(0) translate(4 98)">
<title>src/base/math_functions/AsymGaus.cc</title>
<polygon fill="white" stroke="white" points="-4,5 -4,-98 209,-98 209,5 -4,5"/>
<!-- Node0 -->
<g id="node1" class="node"><title>Node0</title>
<polygon fill="#bfbfbf" stroke="black" points="51,-59 51,-93 175,-93 175,-59 51,-59"/>
<text text-anchor="start" x="59" y="-80" font-family="Helvetica,sans-Serif" font-size="10.00">src/base/math_functions</text>
<text text-anchor="middle" x="113" y="-67" font-family="Helvetica,sans-Serif" font-size="10.00">/AsymGaus.cc</text>
</g>
<!-- Node1 -->
<g id="node3" class="node"><title>Node1</title>
<a xlink:href="_asym_gaus_8h.html" target="_top" xlink:title="AsymGaus.h">
<polygon fill="white" stroke="black" points="0,-0.5 0,-21.5 74,-21.5 74,-0.5 0,-0.5"/>
<text text-anchor="middle" x="37" y="-8.5" font-family="Helvetica,sans-Serif" font-size="10.00">AsymGaus.h</text>
</a>
</g>
<!-- Node0&#45;&gt;Node1 -->
<g id="edge2" class="edge"><title>Node0&#45;&gt;Node1</title>
<path fill="none" stroke="midnightblue" d="M93.0319,-58.922C82.0975,-49.5702 68.57,-38.0007 57.5462,-28.5724"/>
<polygon fill="midnightblue" stroke="midnightblue" points="59.5631,-25.6919 49.6886,-21.8521 55.0133,-31.0117 59.5631,-25.6919"/>
</g>
<!-- Node2 -->
<g id="node5" class="node"><title>Node2</title>
<polygon fill="white" stroke="#bfbfbf" points="92,-0.5 92,-21.5 134,-21.5 134,-0.5 92,-0.5"/>
<text text-anchor="middle" x="113" y="-8.5" font-family="Helvetica,sans-Serif" font-size="10.00">TF1.h</text>
</g>
<!-- Node0&#45;&gt;Node2 -->
<g id="edge4" class="edge"><title>Node0&#45;&gt;Node2</title>
<path fill="none" stroke="midnightblue" d="M113,-58.922C113,-50.6704 113,-40.6922 113,-31.9818"/>
<polygon fill="midnightblue" stroke="midnightblue" points="116.5,-31.8521 113,-21.8521 109.5,-31.8521 116.5,-31.8521"/>
</g>
<!-- Node3 -->
<g id="node7" class="node"><title>Node3</title>
<polygon fill="white" stroke="#bfbfbf" points="151.5,-0.5 151.5,-21.5 204.5,-21.5 204.5,-0.5 151.5,-0.5"/>
<text text-anchor="middle" x="178" y="-8.5" font-family="Helvetica,sans-Serif" font-size="10.00">TMath.h</text>
</g>
<!-- Node0&#45;&gt;Node3 -->
<g id="edge6" class="edge"><title>Node0&#45;&gt;Node3</title>
<path fill="none" stroke="midnightblue" d="M130.078,-58.922C139.246,-49.7536 150.546,-38.4535 159.871,-29.1294"/>
<polygon fill="midnightblue" stroke="midnightblue" points="162.552,-31.3981 167.148,-21.8521 157.602,-26.4483 162.552,-31.3981"/>
</g>
</g>
</svg>
