<?xml version="1.0" encoding="UTF-8" standalone="no"?>
<!DOCTYPE svg PUBLIC "-//W3C//DTD SVG 1.1//EN"
 "http://www.w3.org/Graphics/SVG/1.1/DTD/svg11.dtd">
<!-- Generated by graphviz version 2.26.3 (20100126.1600)
 -->
<!-- Title: src/base/math_functions/AsymGaus.h Pages: 1 -->
<svg width="412pt" height="116pt"
 viewBox="0.00 0.00 412.00 116.00" xmlns="http://www.w3.org/2000/svg" xmlns:xlink="http://www.w3.org/1999/xlink">
<g id="graph1" class="graph" transform="scale(1 1) rotate(0) translate(4 112)">
<title>src/base/math_functions/AsymGaus.h</title>
<polygon fill="white" stroke="white" points="-4,5 -4,-112 409,-112 409,5 -4,5"/>
<!-- Node1 -->
<g id="node1" class="node"><title>Node1</title>
<polygon fill="#bfbfbf" stroke="black" points="141,-73 141,-107 265,-107 265,-73 141,-73"/>
<text text-anchor="start" x="149" y="-94" font-family="Helvetica,sans-Serif" font-size="10.00">src/base/math_functions</text>
<text text-anchor="middle" x="203" y="-81" font-family="Helvetica,sans-Serif" font-size="10.00">/AsymGaus.h</text>
</g>
<!-- Node2 -->
<g id="node3" class="node"><title>Node2</title>
<a xlink:href="_asym_gaus_8cc.html" target="_top" xlink:title="src/base/math_functions\l/AsymGaus.cc">
<polygon fill="white" stroke="black" points="0,-1 0,-35 124,-35 124,-1 0,-1"/>
<text text-anchor="start" x="8" y="-22" font-family="Helvetica,sans-Serif" font-size="10.00">src/base/math_functions</text>
<text text-anchor="middle" x="62" y="-9" font-family="Helvetica,sans-Serif" font-size="10.00">/AsymGaus.cc</text>
</a>
</g>
<!-- Node1&#45;&gt;Node2 -->
<g id="edge2" class="edge"><title>Node1&#45;&gt;Node2</title>
<path fill="none" stroke="midnightblue" d="M160.64,-68.3694C139.846,-57.7514 115.146,-45.1383 95.6638,-35.19"/>
<polygon fill="midnightblue" stroke="midnightblue" points="159.087,-71.5063 169.585,-72.937 162.271,-65.2721 159.087,-71.5063"/>
</g>
<!-- Node3 -->
<g id="node5" class="node"><title>Node3</title>
<a xlink:href="root-addons_2analysis__codes_2math_8cc.html" target="_top" xlink:title="src/root&#45;addons/analysis\l_codes/Math.cc">
<polygon fill="white" stroke="black" points="141.5,-1 141.5,-35 264.5,-35 264.5,-1 141.5,-1"/>
<text text-anchor="start" x="149.5" y="-22" font-family="Helvetica,sans-Serif" font-size="10.00">src/root&#45;addons/analysis</text>
<text text-anchor="middle" x="203" y="-9" font-family="Helvetica,sans-Serif" font-size="10.00">_codes/Math.cc</text>
</a>
</g>
<!-- Node1&#45;&gt;Node3 -->
<g id="edge4" class="edge"><title>Node1&#45;&gt;Node3</title>
<path fill="none" stroke="midnightblue" d="M203,-62.7193C203,-53.572 203,-43.6255 203,-35.4407"/>
<polygon fill="midnightblue" stroke="midnightblue" points="199.5,-62.937 203,-72.937 206.5,-62.937 199.5,-62.937"/>
</g>
<!-- Node4 -->
<g id="node7" class="node"><title>Node4</title>
<a xlink:href="_omega_8cc.html" target="_top" xlink:title="src/root&#45;addons/analysis\l_codes/Omega.cc">
<polygon fill="white" stroke="black" points="281.5,-1 281.5,-35 404.5,-35 404.5,-1 281.5,-1"/>
<text text-anchor="start" x="289.5" y="-22" font-family="Helvetica,sans-Serif" font-size="10.00">src/root&#45;addons/analysis</text>
<text text-anchor="middle" x="343" y="-9" font-family="Helvetica,sans-Serif" font-size="10.00">_codes/Omega.cc</text>
</a>
</g>
<!-- Node1&#45;&gt;Node4 -->
<g id="edge6" class="edge"><title>Node1&#45;&gt;Node4</title>
<path fill="none" stroke="midnightblue" d="M245.338,-68.2264C265.925,-57.6383 290.318,-45.0936 309.575,-35.19"/>
<polygon fill="midnightblue" stroke="midnightblue" points="243.47,-65.251 236.178,-72.937 246.672,-71.476 243.47,-65.251"/>
</g>
</g>
</svg>
