<?xml version="1.0" encoding="UTF-8" standalone="no"?>
<!DOCTYPE svg PUBLIC "-//W3C//DTD SVG 1.1//EN"
 "http://www.w3.org/Graphics/SVG/1.1/DTD/svg11.dtd">
<!-- Generated by graphviz version 2.26.3 (20100126.1600)
 -->
<!-- Title: src/base/BinSettings.cc Pages: 1 -->
<svg width="468pt" height="204pt"
 viewBox="0.00 0.00 468.00 204.00" xmlns="http://www.w3.org/2000/svg" xmlns:xlink="http://www.w3.org/1999/xlink">
<g id="graph1" class="graph" transform="scale(1 1) rotate(0) translate(4 200)">
<title>src/base/BinSettings.cc</title>
<polygon fill="white" stroke="white" points="-4,5 -4,-200 465,-200 465,5 -4,5"/>
<!-- Node0 -->
<g id="node1" class="node"><title>Node0</title>
<polygon fill="#bfbfbf" stroke="black" points="307.5,-174.5 307.5,-195.5 428.5,-195.5 428.5,-174.5 307.5,-174.5"/>
<text text-anchor="middle" x="368" y="-182.5" font-family="Helvetica,sans-Serif" font-size="10.00">src/base/BinSettings.cc</text>
</g>
<!-- Node1 -->
<g id="node3" class="node"><title>Node1</title>
<a xlink:href="_bin_settings_8h.html" target="_top" xlink:title="BinSettings.h">
<polygon fill="white" stroke="black" points="116.5,-116.5 116.5,-137.5 191.5,-137.5 191.5,-116.5 116.5,-116.5"/>
<text text-anchor="middle" x="154" y="-124.5" font-family="Helvetica,sans-Serif" font-size="10.00">BinSettings.h</text>
</a>
</g>
<!-- Node0&#45;&gt;Node1 -->
<g id="edge2" class="edge"><title>Node0&#45;&gt;Node1</title>
<path fill="none" stroke="midnightblue" d="M329.246,-174.497C293.423,-164.787 240.083,-150.331 201.666,-139.919"/>
<polygon fill="midnightblue" stroke="midnightblue" points="202.314,-136.468 191.747,-137.231 200.483,-143.225 202.314,-136.468"/>
</g>
<!-- Node9 -->
<g id="node19" class="node"><title>Node9</title>
<polygon fill="white" stroke="#bfbfbf" points="416,-0.5 416,-21.5 460,-21.5 460,-0.5 416,-0.5"/>
<text text-anchor="middle" x="438" y="-8.5" font-family="Helvetica,sans-Serif" font-size="10.00">cmath</text>
</g>
<!-- Node0&#45;&gt;Node9 -->
<g id="edge28" class="edge"><title>Node0&#45;&gt;Node9</title>
<path fill="none" stroke="midnightblue" d="M370.36,-174.048C373.477,-160.271 379.463,-135.998 387,-116 398.6,-85.2228 415.99,-51.2677 427.166,-30.5341"/>
<polygon fill="midnightblue" stroke="midnightblue" points="430.245,-32.1983 431.961,-21.7433 424.1,-28.8464 430.245,-32.1983"/>
</g>
<!-- Node12 -->
<g id="node28" class="node"><title>Node12</title>
<polygon fill="white" stroke="#bfbfbf" points="395.5,-116.5 395.5,-137.5 446.5,-137.5 446.5,-116.5 395.5,-116.5"/>
<text text-anchor="middle" x="421" y="-124.5" font-family="Helvetica,sans-Serif" font-size="10.00">numeric</text>
</g>
<!-- Node0&#45;&gt;Node12 -->
<g id="edge30" class="edge"><title>Node0&#45;&gt;Node12</title>
<path fill="none" stroke="midnightblue" d="M377.721,-174.362C385.192,-166.186 395.686,-154.702 404.469,-145.091"/>
<polygon fill="midnightblue" stroke="midnightblue" points="407.179,-147.314 411.341,-137.571 402.011,-142.592 407.179,-147.314"/>
</g>
<!-- Node2 -->
<g id="node5" class="node"><title>Node2</title>
<a xlink:href="interval_8h.html" target="_top" xlink:title="base/interval.h">
<polygon fill="white" stroke="black" points="209,-58.5 209,-79.5 289,-79.5 289,-58.5 209,-58.5"/>
<text text-anchor="middle" x="249" y="-66.5" font-family="Helvetica,sans-Serif" font-size="10.00">base/interval.h</text>
</a>
</g>
<!-- Node1&#45;&gt;Node2 -->
<g id="edge4" class="edge"><title>Node1&#45;&gt;Node2</title>
<path fill="none" stroke="midnightblue" d="M171.424,-116.362C185.887,-107.532 206.669,-94.844 223.084,-84.8224"/>
<polygon fill="midnightblue" stroke="midnightblue" points="224.975,-87.7688 231.686,-79.5707 221.327,-81.7943 224.975,-87.7688"/>
</g>
<!-- Node5 -->
<g id="node11" class="node"><title>Node5</title>
<polygon fill="white" stroke="#bfbfbf" points="71.5,-0.5 71.5,-21.5 130.5,-21.5 130.5,-0.5 71.5,-0.5"/>
<text text-anchor="middle" x="101" y="-8.5" font-family="Helvetica,sans-Serif" font-size="10.00">stdexcept</text>
</g>
<!-- Node1&#45;&gt;Node5 -->
<g id="edge22" class="edge"><title>Node1&#45;&gt;Node5</title>
<path fill="none" stroke="midnightblue" d="M158.787,-116.092C164.238,-101.938 171.262,-76.8286 162,-58 155.605,-44.999 143.692,-34.5825 132.079,-26.8922"/>
<polygon fill="midnightblue" stroke="midnightblue" points="133.709,-23.7861 123.354,-21.5452 130.052,-29.7546 133.709,-23.7861"/>
</g>
<!-- Node7 -->
<g id="node15" class="node"><title>Node7</title>
<polygon fill="white" stroke="#bfbfbf" points="-0.5,-0.5 -0.5,-21.5 48.5,-21.5 48.5,-0.5 -0.5,-0.5"/>
<text text-anchor="middle" x="24" y="-8.5" font-family="Helvetica,sans-Serif" font-size="10.00">istream</text>
</g>
<!-- Node1&#45;&gt;Node7 -->
<g id="edge24" class="edge"><title>Node1&#45;&gt;Node7</title>
<path fill="none" stroke="midnightblue" d="M116.353,-117.47C83.9509,-108.458 40.764,-94.2296 30,-80 19.7104,-66.3976 18.9813,-46.6856 20.3771,-31.8104"/>
<polygon fill="midnightblue" stroke="midnightblue" points="23.8914,-31.9325 21.7354,-21.5594 16.9521,-31.0129 23.8914,-31.9325"/>
</g>
<!-- Node10 -->
<g id="node21" class="node"><title>Node10</title>
<polygon fill="white" stroke="#bfbfbf" points="39,-58.5 39,-79.5 83,-79.5 83,-58.5 39,-58.5"/>
<text text-anchor="middle" x="61" y="-66.5" font-family="Helvetica,sans-Serif" font-size="10.00">vector</text>
</g>
<!-- Node1&#45;&gt;Node10 -->
<g id="edge20" class="edge"><title>Node1&#45;&gt;Node10</title>
<path fill="none" stroke="midnightblue" d="M136.942,-116.362C122.915,-107.614 102.816,-95.0786 86.8179,-85.1015"/>
<polygon fill="midnightblue" stroke="midnightblue" points="88.2868,-81.8927 77.9495,-79.5707 84.5825,-87.8323 88.2868,-81.8927"/>
</g>
<!-- Node11 -->
<g id="node25" class="node"><title>Node11</title>
<polygon fill="white" stroke="#bfbfbf" points="101,-58.5 101,-79.5 153,-79.5 153,-58.5 101,-58.5"/>
<text text-anchor="middle" x="127" y="-66.5" font-family="Helvetica,sans-Serif" font-size="10.00">ostream</text>
</g>
<!-- Node1&#45;&gt;Node11 -->
<g id="edge26" class="edge"><title>Node1&#45;&gt;Node11</title>
<path fill="none" stroke="midnightblue" d="M149.048,-116.362C145.47,-108.677 140.532,-98.0686 136.236,-88.8399"/>
<polygon fill="midnightblue" stroke="midnightblue" points="139.314,-87.1594 131.921,-79.5707 132.968,-90.1136 139.314,-87.1594"/>
</g>
<!-- Node3 -->
<g id="node7" class="node"><title>Node3</title>
<a xlink:href="types_8h.html" target="_top" xlink:title="types.h">
<polygon fill="white" stroke="black" points="349.5,-0.5 349.5,-21.5 398.5,-21.5 398.5,-0.5 349.5,-0.5"/>
<text text-anchor="middle" x="374" y="-8.5" font-family="Helvetica,sans-Serif" font-size="10.00">types.h</text>
</a>
</g>
<!-- Node2&#45;&gt;Node3 -->
<g id="edge6" class="edge"><title>Node2&#45;&gt;Node3</title>
<path fill="none" stroke="midnightblue" d="M271.637,-58.4966C291.248,-49.397 319.846,-36.1273 341.833,-25.9253"/>
<polygon fill="midnightblue" stroke="midnightblue" points="343.512,-29.0051 351.109,-21.6212 340.565,-22.6554 343.512,-29.0051"/>
</g>
<!-- Node4 -->
<g id="node9" class="node"><title>Node4</title>
<polygon fill="white" stroke="#bfbfbf" points="148,-0.5 148,-21.5 204,-21.5 204,-0.5 148,-0.5"/>
<text text-anchor="middle" x="176" y="-8.5" font-family="Helvetica,sans-Serif" font-size="10.00">algorithm</text>
</g>
<!-- Node2&#45;&gt;Node4 -->
<g id="edge8" class="edge"><title>Node2&#45;&gt;Node4</title>
<path fill="none" stroke="midnightblue" d="M235.611,-58.3619C224.909,-49.859 209.704,-37.7785 197.329,-27.9466"/>
<polygon fill="midnightblue" stroke="midnightblue" points="199.311,-25.0511 189.304,-21.5707 194.957,-30.5318 199.311,-25.0511"/>
</g>
<!-- Node2&#45;&gt;Node5 -->
<g id="edge10" class="edge"><title>Node2&#45;&gt;Node5</title>
<path fill="none" stroke="midnightblue" d="M222.198,-58.4966C198.562,-49.2337 163.9,-35.6499 137.692,-25.3793"/>
<polygon fill="midnightblue" stroke="midnightblue" points="138.69,-22.0113 128.102,-21.6212 136.136,-28.5287 138.69,-22.0113"/>
</g>
<!-- Node6 -->
<g id="node13" class="node"><title>Node6</title>
<polygon fill="white" stroke="#bfbfbf" points="222,-0.5 222,-21.5 262,-21.5 262,-0.5 222,-0.5"/>
<text text-anchor="middle" x="242" y="-8.5" font-family="Helvetica,sans-Serif" font-size="10.00">limits</text>
</g>
<!-- Node2&#45;&gt;Node6 -->
<g id="edge12" class="edge"><title>Node2&#45;&gt;Node6</title>
<path fill="none" stroke="midnightblue" d="M247.716,-58.3619C246.818,-50.9219 245.59,-40.7427 244.502,-31.7276"/>
<polygon fill="midnightblue" stroke="midnightblue" points="247.949,-31.0792 243.276,-21.5707 240.999,-31.918 247.949,-31.0792"/>
</g>
<!-- Node2&#45;&gt;Node7 -->
<g id="edge14" class="edge"><title>Node2&#45;&gt;Node7</title>
<path fill="none" stroke="midnightblue" d="M208.643,-59.1408C170.912,-49.8428 113.035,-35.3751 63,-22 61.5558,-21.6139 60.0826,-21.2162 58.5952,-20.8113"/>
<polygon fill="midnightblue" stroke="midnightblue" points="59.3005,-17.3751 48.7295,-18.0852 57.436,-24.1222 59.3005,-17.3751"/>
</g>
<!-- Node8 -->
<g id="node17" class="node"><title>Node8</title>
<polygon fill="white" stroke="#bfbfbf" points="280,-0.5 280,-21.5 332,-21.5 332,-0.5 280,-0.5"/>
<text text-anchor="middle" x="306" y="-8.5" font-family="Helvetica,sans-Serif" font-size="10.00">sstream</text>
</g>
<!-- Node2&#45;&gt;Node8 -->
<g id="edge16" class="edge"><title>Node2&#45;&gt;Node8</title>
<path fill="none" stroke="midnightblue" d="M259.455,-58.3619C267.57,-50.1043 279.001,-38.4725 288.504,-28.8029"/>
<polygon fill="midnightblue" stroke="midnightblue" points="291.099,-31.1562 295.612,-21.5707 286.106,-26.2497 291.099,-31.1562"/>
</g>
<!-- Node2&#45;&gt;Node9 -->
<g id="edge18" class="edge"><title>Node2&#45;&gt;Node9</title>
<path fill="none" stroke="midnightblue" d="M286.52,-58.4325C316.57,-49.8364 360.001,-37.1183 406.128,-22.1868"/>
<polygon fill="midnightblue" stroke="midnightblue" points="407.272,-25.4951 415.696,-19.0698 405.104,-18.8394 407.272,-25.4951"/>
</g>
</g>
</svg>
