<?xml version="1.0" encoding="UTF-8" standalone="no"?>
<!DOCTYPE svg PUBLIC "-//W3C//DTD SVG 1.1//EN"
 "http://www.w3.org/Graphics/SVG/1.1/DTD/svg11.dtd">
<!-- Generated by graphviz version 2.26.3 (20100126.1600)
 -->
<!-- Title: src/calibration/gui/CalCanvas.h Pages: 1 -->
<svg width="1866pt" height="116pt"
 viewBox="0.00 0.00 1866.00 116.00" xmlns="http://www.w3.org/2000/svg" xmlns:xlink="http://www.w3.org/1999/xlink">
<g id="graph1" class="graph" transform="scale(1 1) rotate(0) translate(4 112)">
<title>src/calibration/gui/CalCanvas.h</title>
<polygon fill="white" stroke="white" points="-4,5 -4,-112 1863,-112 1863,5 -4,5"/>
<!-- Node20 -->
<g id="node1" class="node"><title>Node20</title>
<polygon fill="#bfbfbf" stroke="black" points="824.5,-73 824.5,-107 917.5,-107 917.5,-73 824.5,-73"/>
<text text-anchor="start" x="832.5" y="-94" font-family="Helvetica,sans-Serif" font-size="10.00">src/calibration/gui</text>
<text text-anchor="middle" x="871" y="-81" font-family="Helvetica,sans-Serif" font-size="10.00">/CalCanvas.h</text>
</g>
<!-- Node21 -->
<g id="node3" class="node"><title>Node21</title>
<a xlink:href="_cal_canvas_8cc.html" target="_top" xlink:title="src/calibration/gui\l/CalCanvas.cc">
<polygon fill="white" stroke="black" points="-0.5,-1 -0.5,-35 92.5,-35 92.5,-1 -0.5,-1"/>
<text text-anchor="start" x="7.5" y="-22" font-family="Helvetica,sans-Serif" font-size="10.00">src/calibration/gui</text>
<text text-anchor="middle" x="46" y="-9" font-family="Helvetica,sans-Serif" font-size="10.00">/CalCanvas.cc</text>
</a>
</g>
<!-- Node20&#45;&gt;Node21 -->
<g id="edge2" class="edge"><title>Node20&#45;&gt;Node21</title>
<path fill="none" stroke="midnightblue" d="M814.303,-87.8356C660.496,-81.6753 237.759,-62.7485 101,-36 98.2392,-35.46 95.4243,-34.8228 92.6003,-34.1161"/>
<polygon fill="midnightblue" stroke="midnightblue" points="814.341,-91.3398 824.472,-88.2399 814.619,-84.3453 814.341,-91.3398"/>
</g>
<!-- Node22 -->
<g id="node5" class="node"><title>Node22</title>
<a xlink:href="_manager_8cc.html" target="_top" xlink:title="src/calibration/gui\l/Manager.cc">
<polygon fill="white" stroke="black" points="109.5,-1 109.5,-35 202.5,-35 202.5,-1 109.5,-1"/>
<text text-anchor="start" x="117.5" y="-22" font-family="Helvetica,sans-Serif" font-size="10.00">src/calibration/gui</text>
<text text-anchor="middle" x="156" y="-9" font-family="Helvetica,sans-Serif" font-size="10.00">/Manager.cc</text>
</a>
</g>
<!-- Node20&#45;&gt;Node22 -->
<g id="edge4" class="edge"><title>Node20&#45;&gt;Node22</title>
<path fill="none" stroke="midnightblue" d="M813.974,-87.0566C675.752,-79.6447 325.779,-59.1428 211,-36 208.242,-35.444 205.43,-34.7943 202.608,-34.078"/>
<polygon fill="midnightblue" stroke="midnightblue" points="814.166,-90.5717 824.338,-87.609 814.539,-83.5816 814.166,-90.5717"/>
</g>
<!-- Node23 -->
<g id="node7" class="node"><title>Node23</title>
<a xlink:href="_manager_window_8cc.html" target="_top" xlink:title="src/calibration/gui\l/ManagerWindow.cc">
<polygon fill="white" stroke="black" points="220,-1 220,-35 326,-35 326,-1 220,-1"/>
<text text-anchor="start" x="228" y="-22" font-family="Helvetica,sans-Serif" font-size="10.00">src/calibration/gui</text>
<text text-anchor="middle" x="273" y="-9" font-family="Helvetica,sans-Serif" font-size="10.00">/ManagerWindow.cc</text>
</a>
</g>
<!-- Node20&#45;&gt;Node23 -->
<g id="edge6" class="edge"><title>Node20&#45;&gt;Node23</title>
<path fill="none" stroke="midnightblue" d="M814.32,-87.6841C715.978,-82.913 507.702,-69.4794 335,-36 332.139,-35.4454 329.22,-34.8178 326.283,-34.1377"/>
<polygon fill="midnightblue" stroke="midnightblue" points="814.187,-91.1816 824.342,-88.1586 814.518,-84.1895 814.187,-91.1816"/>
</g>
<!-- Node24 -->
<g id="node9" class="node"><title>Node24</title>
<a xlink:href="calibration_2modules_2_c_b___energy_8cc.html" target="_top" xlink:title="src/calibration/modules\l/CB_Energy.cc">
<polygon fill="white" stroke="black" points="343.5,-1 343.5,-35 460.5,-35 460.5,-1 343.5,-1"/>
<text text-anchor="start" x="351.5" y="-22" font-family="Helvetica,sans-Serif" font-size="10.00">src/calibration/modules</text>
<text text-anchor="middle" x="402" y="-9" font-family="Helvetica,sans-Serif" font-size="10.00">/CB_Energy.cc</text>
</a>
</g>
<!-- Node20&#45;&gt;Node24 -->
<g id="edge8" class="edge"><title>Node20&#45;&gt;Node24</title>
<path fill="none" stroke="midnightblue" d="M814.126,-84.6942C735.894,-76.8666 590.91,-60.458 469,-36 466.284,-35.4551 463.515,-34.8628 460.725,-34.236"/>
<polygon fill="midnightblue" stroke="midnightblue" points="813.955,-88.1943 824.251,-85.6966 814.645,-81.2283 813.955,-88.1943"/>
</g>
<!-- Node25 -->
<g id="node11" class="node"><title>Node25</title>
<a xlink:href="calibration_2modules_2_c_b___source_calib_8cc.html" target="_top" xlink:title="src/calibration/modules\l/CB_SourceCalib.cc">
<polygon fill="white" stroke="black" points="477.5,-1 477.5,-35 594.5,-35 594.5,-1 477.5,-1"/>
<text text-anchor="start" x="485.5" y="-22" font-family="Helvetica,sans-Serif" font-size="10.00">src/calibration/modules</text>
<text text-anchor="middle" x="536" y="-9" font-family="Helvetica,sans-Serif" font-size="10.00">/CB_SourceCalib.cc</text>
</a>
</g>
<!-- Node20&#45;&gt;Node25 -->
<g id="edge10" class="edge"><title>Node20&#45;&gt;Node25</title>
<path fill="none" stroke="midnightblue" d="M814.191,-79.6399C759.787,-69.4623 675.492,-53.0228 603,-36 600.303,-35.3667 597.55,-34.7019 594.773,-34.0164"/>
<polygon fill="midnightblue" stroke="midnightblue" points="813.854,-83.1374 824.326,-81.5282 815.137,-76.2558 813.854,-83.1374"/>
</g>
<!-- Node26 -->
<g id="node13" class="node"><title>Node26</title>
<a xlink:href="calibration_2modules_2_c_b___time_walk_8cc.html" target="_top" xlink:title="src/calibration/modules\l/CB_TimeWalk.cc">
<polygon fill="white" stroke="black" points="611.5,-1 611.5,-35 728.5,-35 728.5,-1 611.5,-1"/>
<text text-anchor="start" x="619.5" y="-22" font-family="Helvetica,sans-Serif" font-size="10.00">src/calibration/modules</text>
<text text-anchor="middle" x="670" y="-9" font-family="Helvetica,sans-Serif" font-size="10.00">/CB_TimeWalk.cc</text>
</a>
</g>
<!-- Node20&#45;&gt;Node26 -->
<g id="edge12" class="edge"><title>Node20&#45;&gt;Node26</title>
<path fill="none" stroke="midnightblue" d="M814.727,-69.8424C784.196,-58.906 746.863,-45.533 717.762,-35.1086"/>
<polygon fill="midnightblue" stroke="midnightblue" points="813.787,-73.2234 824.381,-73.3008 816.147,-66.6335 813.787,-73.2234"/>
</g>
<!-- Node27 -->
<g id="node15" class="node"><title>Node27</title>
<a xlink:href="_energy___g_u_i_8cc.html" target="_top" xlink:title="src/calibration/modules\l/Energy_GUI.cc">
<polygon fill="white" stroke="black" points="745.5,-1 745.5,-35 862.5,-35 862.5,-1 745.5,-1"/>
<text text-anchor="start" x="753.5" y="-22" font-family="Helvetica,sans-Serif" font-size="10.00">src/calibration/modules</text>
<text text-anchor="middle" x="804" y="-9" font-family="Helvetica,sans-Serif" font-size="10.00">/Energy_GUI.cc</text>
</a>
</g>
<!-- Node20&#45;&gt;Node27 -->
<g id="edge14" class="edge"><title>Node20&#45;&gt;Node27</title>
<path fill="none" stroke="midnightblue" d="M848.088,-65.3785C838.928,-55.5349 828.591,-44.4262 820.23,-35.4407"/>
<polygon fill="midnightblue" stroke="midnightblue" points="845.747,-68.0006 855.122,-72.937 850.872,-63.232 845.747,-68.0006"/>
</g>
<!-- Node28 -->
<g id="node17" class="node"><title>Node28</title>
<a xlink:href="calibration_2modules_2_p_i_d___energy_8cc.html" target="_top" xlink:title="src/calibration/modules\l/PID_Energy.cc">
<polygon fill="white" stroke="black" points="879.5,-1 879.5,-35 996.5,-35 996.5,-1 879.5,-1"/>
<text text-anchor="start" x="887.5" y="-22" font-family="Helvetica,sans-Serif" font-size="10.00">src/calibration/modules</text>
<text text-anchor="middle" x="938" y="-9" font-family="Helvetica,sans-Serif" font-size="10.00">/PID_Energy.cc</text>
</a>
</g>
<!-- Node20&#45;&gt;Node28 -->
<g id="edge16" class="edge"><title>Node20&#45;&gt;Node28</title>
<path fill="none" stroke="midnightblue" d="M893.912,-65.3785C903.072,-55.5349 913.409,-44.4262 921.77,-35.4407"/>
<polygon fill="midnightblue" stroke="midnightblue" points="891.128,-63.232 886.878,-72.937 896.253,-68.0006 891.128,-63.232"/>
</g>
<!-- Node29 -->
<g id="node19" class="node"><title>Node29</title>
<a xlink:href="calibration_2modules_2_p_i_d___phi_angle_8cc.html" target="_top" xlink:title="src/calibration/modules\l/PID_PhiAngle.cc">
<polygon fill="white" stroke="black" points="1013.5,-1 1013.5,-35 1130.5,-35 1130.5,-1 1013.5,-1"/>
<text text-anchor="start" x="1021.5" y="-22" font-family="Helvetica,sans-Serif" font-size="10.00">src/calibration/modules</text>
<text text-anchor="middle" x="1072" y="-9" font-family="Helvetica,sans-Serif" font-size="10.00">/PID_PhiAngle.cc</text>
</a>
</g>
<!-- Node20&#45;&gt;Node29 -->
<g id="edge18" class="edge"><title>Node20&#45;&gt;Node29</title>
<path fill="none" stroke="midnightblue" d="M927.273,-69.8424C957.804,-58.906 995.137,-45.533 1024.24,-35.1086"/>
<polygon fill="midnightblue" stroke="midnightblue" points="925.853,-66.6335 917.619,-73.3008 928.213,-73.2234 925.853,-66.6335"/>
</g>
<!-- Node30 -->
<g id="node21" class="node"><title>Node30</title>
<a xlink:href="calibration_2modules_2_t_a_p_s___energy_8cc.html" target="_top" xlink:title="src/calibration/modules\l/TAPS_Energy.cc">
<polygon fill="white" stroke="black" points="1147.5,-1 1147.5,-35 1264.5,-35 1264.5,-1 1147.5,-1"/>
<text text-anchor="start" x="1155.5" y="-22" font-family="Helvetica,sans-Serif" font-size="10.00">src/calibration/modules</text>
<text text-anchor="middle" x="1206" y="-9" font-family="Helvetica,sans-Serif" font-size="10.00">/TAPS_Energy.cc</text>
</a>
</g>
<!-- Node20&#45;&gt;Node30 -->
<g id="edge20" class="edge"><title>Node20&#45;&gt;Node30</title>
<path fill="none" stroke="midnightblue" d="M927.809,-79.6399C982.213,-69.4623 1066.51,-53.0228 1139,-36 1141.7,-35.3667 1144.45,-34.7019 1147.23,-34.0164"/>
<polygon fill="midnightblue" stroke="midnightblue" points="926.863,-76.2558 917.674,-81.5282 928.146,-83.1374 926.863,-76.2558"/>
</g>
<!-- Node31 -->
<g id="node23" class="node"><title>Node31</title>
<a xlink:href="calibration_2modules_2_t_a_p_s___short_energy_8cc.html" target="_top" xlink:title="src/calibration/modules\l/TAPS_ShortEnergy.cc">
<polygon fill="white" stroke="black" points="1281.5,-1 1281.5,-35 1400.5,-35 1400.5,-1 1281.5,-1"/>
<text text-anchor="start" x="1289.5" y="-22" font-family="Helvetica,sans-Serif" font-size="10.00">src/calibration/modules</text>
<text text-anchor="middle" x="1341" y="-9" font-family="Helvetica,sans-Serif" font-size="10.00">/TAPS_ShortEnergy.cc</text>
</a>
</g>
<!-- Node20&#45;&gt;Node31 -->
<g id="edge22" class="edge"><title>Node20&#45;&gt;Node31</title>
<path fill="none" stroke="midnightblue" d="M927.861,-84.6292C1006.08,-76.727 1151.04,-60.2331 1273,-36 1275.75,-35.4526 1278.56,-34.8582 1281.39,-34.2298"/>
<polygon fill="midnightblue" stroke="midnightblue" points="927.34,-81.1638 917.738,-85.6416 928.037,-88.1291 927.34,-81.1638"/>
</g>
<!-- Node32 -->
<g id="node25" class="node"><title>Node32</title>
<a xlink:href="_t_a_p_s___to_f_8cc.html" target="_top" xlink:title="src/calibration/modules\l/TAPS_ToF.cc">
<polygon fill="white" stroke="black" points="1417.5,-1 1417.5,-35 1534.5,-35 1534.5,-1 1417.5,-1"/>
<text text-anchor="start" x="1425.5" y="-22" font-family="Helvetica,sans-Serif" font-size="10.00">src/calibration/modules</text>
<text text-anchor="middle" x="1476" y="-9" font-family="Helvetica,sans-Serif" font-size="10.00">/TAPS_ToF.cc</text>
</a>
</g>
<!-- Node20&#45;&gt;Node32 -->
<g id="edge24" class="edge"><title>Node20&#45;&gt;Node32</title>
<path fill="none" stroke="midnightblue" d="M927.822,-87.3354C1026.43,-82.0367 1235.32,-67.8276 1409,-36 1411.72,-35.5006 1414.5,-34.9457 1417.3,-34.3493"/>
<polygon fill="midnightblue" stroke="midnightblue" points="927.576,-83.8434 917.774,-87.8649 927.944,-90.8337 927.576,-83.8434"/>
</g>
<!-- Node33 -->
<g id="node27" class="node"><title>Node33</title>
<a xlink:href="calibration_2modules_2_time_8cc.html" target="_top" xlink:title="src/calibration/modules\l/Time.cc">
<polygon fill="white" stroke="black" points="1551.5,-1 1551.5,-35 1668.5,-35 1668.5,-1 1551.5,-1"/>
<text text-anchor="start" x="1559.5" y="-22" font-family="Helvetica,sans-Serif" font-size="10.00">src/calibration/modules</text>
<text text-anchor="middle" x="1610" y="-9" font-family="Helvetica,sans-Serif" font-size="10.00">/Time.cc</text>
</a>
</g>
<!-- Node20&#45;&gt;Node33 -->
<g id="edge26" class="edge"><title>Node20&#45;&gt;Node33</title>
<path fill="none" stroke="midnightblue" d="M927.905,-88.9183C1044.25,-85.9417 1317.42,-75.0295 1543,-36 1545.73,-35.5277 1548.51,-34.995 1551.31,-34.4165"/>
<polygon fill="midnightblue" stroke="midnightblue" points="927.716,-85.4218 917.805,-89.1667 927.888,-92.4197 927.716,-85.4218"/>
</g>
<!-- Node34 -->
<g id="node29" class="node"><title>Node34</title>
<a xlink:href="_test_g_u_i_manager_8cc.html" target="_top" xlink:title="test/calibration/TestGUIManager.cc">
<polygon fill="white" stroke="black" points="1686,-7.5 1686,-28.5 1858,-28.5 1858,-7.5 1686,-7.5"/>
<text text-anchor="middle" x="1772" y="-15.5" font-family="Helvetica,sans-Serif" font-size="10.00">test/calibration/TestGUIManager.cc</text>
</a>
</g>
<!-- Node20&#45;&gt;Node34 -->
<g id="edge28" class="edge"><title>Node20&#45;&gt;Node34</title>
<path fill="none" stroke="midnightblue" d="M927.795,-88.5436C1059.79,-84.6471 1397.31,-71.735 1677,-36 1691.82,-34.1066 1707.82,-31.3541 1722.38,-28.5688"/>
<polygon fill="midnightblue" stroke="midnightblue" points="927.424,-85.0528 917.529,-88.8406 927.626,-92.0499 927.424,-85.0528"/>
</g>
</g>
</svg>
