<?xml version="1.0" encoding="UTF-8" standalone="no"?>
<!DOCTYPE svg PUBLIC "-//W3C//DTD SVG 1.1//EN"
 "http://www.w3.org/Graphics/SVG/1.1/DTD/svg11.dtd">
<!-- Generated by graphviz version 2.26.3 (20100126.1600)
 -->
<!-- Title: src/calibration/modules/CalibType.h Pages: 1 -->
<svg width="1614pt" height="260pt"
 viewBox="0.00 0.00 1614.00 260.00" xmlns="http://www.w3.org/2000/svg" xmlns:xlink="http://www.w3.org/1999/xlink">
<g id="graph1" class="graph" transform="scale(1 1) rotate(0) translate(4 256)">
<title>src/calibration/modules/CalibType.h</title>
<polygon fill="white" stroke="white" points="-4,5 -4,-256 1611,-256 1611,5 -4,5"/>
<!-- Node49 -->
<g id="node1" class="node"><title>Node49</title>
<polygon fill="#bfbfbf" stroke="black" points="758.5,-217 758.5,-251 875.5,-251 875.5,-217 758.5,-217"/>
<text text-anchor="start" x="766.5" y="-238" font-family="Helvetica,sans-Serif" font-size="10.00">src/calibration/modules</text>
<text text-anchor="middle" x="817" y="-225" font-family="Helvetica,sans-Serif" font-size="10.00">/CalibType.h</text>
</g>
<!-- Node50 -->
<g id="node3" class="node"><title>Node50</title>
<a xlink:href="_calib_type_8cc.html" target="_top" xlink:title="src/calibration/modules\l/CalibType.cc">
<polygon fill="white" stroke="black" points="624.5,-145 624.5,-179 741.5,-179 741.5,-145 624.5,-145"/>
<text text-anchor="start" x="632.5" y="-166" font-family="Helvetica,sans-Serif" font-size="10.00">src/calibration/modules</text>
<text text-anchor="middle" x="683" y="-153" font-family="Helvetica,sans-Serif" font-size="10.00">/CalibType.cc</text>
</a>
</g>
<!-- Node49&#45;&gt;Node50 -->
<g id="edge2" class="edge"><title>Node49&#45;&gt;Node50</title>
<path fill="none" stroke="midnightblue" d="M776.21,-212.083C756.561,-201.525 733.341,-189.049 714.993,-179.19"/>
<polygon fill="midnightblue" stroke="midnightblue" points="774.778,-215.287 785.244,-216.937 778.092,-209.121 774.778,-215.287"/>
</g>
<!-- Node51 -->
<g id="node5" class="node"><title>Node51</title>
<a xlink:href="_energy_8h.html" target="_top" xlink:title="src/calibration/modules\l/Energy.h">
<polygon fill="white" stroke="black" points="758.5,-145 758.5,-179 875.5,-179 875.5,-145 758.5,-145"/>
<text text-anchor="start" x="766.5" y="-166" font-family="Helvetica,sans-Serif" font-size="10.00">src/calibration/modules</text>
<text text-anchor="middle" x="817" y="-153" font-family="Helvetica,sans-Serif" font-size="10.00">/Energy.h</text>
</a>
</g>
<!-- Node49&#45;&gt;Node51 -->
<g id="edge4" class="edge"><title>Node49&#45;&gt;Node51</title>
<path fill="none" stroke="midnightblue" d="M817,-206.719C817,-197.572 817,-187.625 817,-179.441"/>
<polygon fill="midnightblue" stroke="midnightblue" points="813.5,-206.937 817,-216.937 820.5,-206.937 813.5,-206.937"/>
</g>
<!-- Node71 -->
<g id="node66" class="node"><title>Node71</title>
<a xlink:href="_energy___g_u_i_8h.html" target="_top" xlink:title="src/calibration/modules\l/Energy_GUI.h">
<polygon fill="white" stroke="black" points="1270.5,-145 1270.5,-179 1387.5,-179 1387.5,-145 1270.5,-145"/>
<text text-anchor="start" x="1278.5" y="-166" font-family="Helvetica,sans-Serif" font-size="10.00">src/calibration/modules</text>
<text text-anchor="middle" x="1329" y="-153" font-family="Helvetica,sans-Serif" font-size="10.00">/Energy_GUI.h</text>
</a>
</g>
<!-- Node49&#45;&gt;Node71 -->
<g id="edge86" class="edge"><title>Node49&#45;&gt;Node71</title>
<path fill="none" stroke="midnightblue" d="M885.864,-224.316C987.231,-210.061 1174.87,-183.675 1270.17,-170.274"/>
<polygon fill="midnightblue" stroke="midnightblue" points="885.148,-220.882 875.733,-225.741 886.123,-227.814 885.148,-220.882"/>
</g>
<!-- Node52 -->
<g id="node7" class="node"><title>Node52</title>
<a xlink:href="calibration_2modules_2_c_b___energy_8h.html" target="_top" xlink:title="src/calibration/modules\l/CB_Energy.h">
<polygon fill="white" stroke="black" points="423.5,-73 423.5,-107 540.5,-107 540.5,-73 423.5,-73"/>
<text text-anchor="start" x="431.5" y="-94" font-family="Helvetica,sans-Serif" font-size="10.00">src/calibration/modules</text>
<text text-anchor="middle" x="482" y="-81" font-family="Helvetica,sans-Serif" font-size="10.00">/CB_Energy.h</text>
</a>
</g>
<!-- Node51&#45;&gt;Node52 -->
<g id="edge6" class="edge"><title>Node51&#45;&gt;Node52</title>
<path fill="none" stroke="midnightblue" d="M748.298,-143.714C659.672,-124.432 634.457,-127.096 549,-108 546.296,-107.396 543.538,-106.755 540.756,-106.089"/>
<polygon fill="midnightblue" stroke="midnightblue" points="747.724,-147.171 758.244,-145.911 749.234,-140.336 747.724,-147.171"/>
</g>
<!-- Node60 -->
<g id="node23" class="node"><title>Node60</title>
<a xlink:href="calibration_2modules_2_c_b___source_calib_8h.html" target="_top" xlink:title="src/calibration/modules\l/CB_SourceCalib.h">
<polygon fill="white" stroke="black" points="140.5,-73 140.5,-107 257.5,-107 257.5,-73 140.5,-73"/>
<text text-anchor="start" x="148.5" y="-94" font-family="Helvetica,sans-Serif" font-size="10.00">src/calibration/modules</text>
<text text-anchor="middle" x="199" y="-81" font-family="Helvetica,sans-Serif" font-size="10.00">/CB_SourceCalib.h</text>
</a>
</g>
<!-- Node51&#45;&gt;Node60 -->
<g id="edge22" class="edge"><title>Node51&#45;&gt;Node60</title>
<path fill="none" stroke="midnightblue" d="M748.337,-144.01C672.387,-132.62 383.456,-106.418 257.791,-95.2087"/>
<polygon fill="midnightblue" stroke="midnightblue" points="747.864,-147.479 758.298,-145.643 748.996,-140.571 747.864,-147.479"/>
</g>
<!-- Node62 -->
<g id="node28" class="node"><title>Node62</title>
<a xlink:href="_energy_8cc.html" target="_top" xlink:title="src/calibration/modules\l/Energy.cc">
<polygon fill="white" stroke="black" points="557.5,-73 557.5,-107 674.5,-107 674.5,-73 557.5,-73"/>
<text text-anchor="start" x="565.5" y="-94" font-family="Helvetica,sans-Serif" font-size="10.00">src/calibration/modules</text>
<text text-anchor="middle" x="616" y="-81" font-family="Helvetica,sans-Serif" font-size="10.00">/Energy.cc</text>
</a>
</g>
<!-- Node51&#45;&gt;Node62 -->
<g id="edge28" class="edge"><title>Node51&#45;&gt;Node62</title>
<path fill="none" stroke="midnightblue" d="M759.747,-141.491C729.357,-130.606 692.449,-117.385 663.64,-107.065"/>
<polygon fill="midnightblue" stroke="midnightblue" points="758.771,-144.86 769.366,-144.937 761.132,-138.27 758.771,-144.86"/>
</g>
<!-- Node63 -->
<g id="node30" class="node"><title>Node63</title>
<a xlink:href="calibration_2modules_2_p_i_d___energy_8h.html" target="_top" xlink:title="src/calibration/modules\l/PID_Energy.h">
<polygon fill="white" stroke="black" points="1093.5,-73 1093.5,-107 1210.5,-107 1210.5,-73 1093.5,-73"/>
<text text-anchor="start" x="1101.5" y="-94" font-family="Helvetica,sans-Serif" font-size="10.00">src/calibration/modules</text>
<text text-anchor="middle" x="1152" y="-81" font-family="Helvetica,sans-Serif" font-size="10.00">/PID_Energy.h</text>
</a>
</g>
<!-- Node51&#45;&gt;Node63 -->
<g id="edge30" class="edge"><title>Node51&#45;&gt;Node63</title>
<path fill="none" stroke="midnightblue" d="M885.384,-149.465C939.694,-139.21 1017.47,-123.858 1085,-108 1087.7,-107.367 1090.45,-106.702 1093.23,-106.016"/>
<polygon fill="midnightblue" stroke="midnightblue" points="884.704,-146.031 875.523,-151.319 885.998,-152.91 884.704,-146.031"/>
</g>
<!-- Node65 -->
<g id="node39" class="node"><title>Node65</title>
<a xlink:href="calibration_2modules_2_t_a_p_s___energy_8h.html" target="_top" xlink:title="src/calibration/modules\l/TAPS_Energy.h">
<polygon fill="white" stroke="black" points="959.5,-73 959.5,-107 1076.5,-107 1076.5,-73 959.5,-73"/>
<text text-anchor="start" x="967.5" y="-94" font-family="Helvetica,sans-Serif" font-size="10.00">src/calibration/modules</text>
<text text-anchor="middle" x="1018" y="-81" font-family="Helvetica,sans-Serif" font-size="10.00">/TAPS_Energy.h</text>
</a>
</g>
<!-- Node51&#45;&gt;Node65 -->
<g id="edge44" class="edge"><title>Node51&#45;&gt;Node65</title>
<path fill="none" stroke="midnightblue" d="M874.253,-141.491C904.643,-130.606 941.551,-117.385 970.36,-107.065"/>
<polygon fill="midnightblue" stroke="midnightblue" points="872.868,-138.27 864.634,-144.937 875.229,-144.86 872.868,-138.27"/>
</g>
<!-- Node67 -->
<g id="node48" class="node"><title>Node67</title>
<a xlink:href="calibration_2modules_2_t_a_p_s___short_energy_8h.html" target="_top" xlink:title="src/calibration/modules\l/TAPS_ShortEnergy.h">
<polygon fill="white" stroke="black" points="691.5,-73 691.5,-107 808.5,-107 808.5,-73 691.5,-73"/>
<text text-anchor="start" x="699.5" y="-94" font-family="Helvetica,sans-Serif" font-size="10.00">src/calibration/modules</text>
<text text-anchor="middle" x="750" y="-81" font-family="Helvetica,sans-Serif" font-size="10.00">/TAPS_ShortEnergy.h</text>
</a>
</g>
<!-- Node51&#45;&gt;Node67 -->
<g id="edge58" class="edge"><title>Node51&#45;&gt;Node67</title>
<path fill="none" stroke="midnightblue" d="M794.088,-137.379C784.928,-127.535 774.591,-116.426 766.23,-107.441"/>
<polygon fill="midnightblue" stroke="midnightblue" points="791.747,-140.001 801.122,-144.937 796.872,-135.232 791.747,-140.001"/>
</g>
<!-- Node69 -->
<g id="node57" class="node"><title>Node69</title>
<a xlink:href="calibration_2modules_2_t_a_p_s_veto___energy_8h.html" target="_top" xlink:title="src/calibration/modules\l/TAPSVeto_Energy.h">
<polygon fill="white" stroke="black" points="825.5,-73 825.5,-107 942.5,-107 942.5,-73 825.5,-73"/>
<text text-anchor="start" x="833.5" y="-94" font-family="Helvetica,sans-Serif" font-size="10.00">src/calibration/modules</text>
<text text-anchor="middle" x="884" y="-81" font-family="Helvetica,sans-Serif" font-size="10.00">/TAPSVeto_Energy.h</text>
</a>
</g>
<!-- Node51&#45;&gt;Node69 -->
<g id="edge72" class="edge"><title>Node51&#45;&gt;Node69</title>
<path fill="none" stroke="midnightblue" d="M839.912,-137.379C849.072,-127.535 859.409,-116.426 867.77,-107.441"/>
<polygon fill="midnightblue" stroke="midnightblue" points="837.128,-135.232 832.878,-144.937 842.253,-140.001 837.128,-135.232"/>
</g>
<!-- Node53 -->
<g id="node9" class="node"><title>Node53</title>
<a xlink:href="calibration_2modules_2_c_b___energy_8cc.html" target="_top" xlink:title="src/calibration/modules\l/CB_Energy.cc">
<polygon fill="white" stroke="black" points="281.5,-1 281.5,-35 398.5,-35 398.5,-1 281.5,-1"/>
<text text-anchor="start" x="289.5" y="-22" font-family="Helvetica,sans-Serif" font-size="10.00">src/calibration/modules</text>
<text text-anchor="middle" x="340" y="-9" font-family="Helvetica,sans-Serif" font-size="10.00">/CB_Energy.cc</text>
</a>
</g>
<!-- Node52&#45;&gt;Node53 -->
<g id="edge8" class="edge"><title>Node52&#45;&gt;Node53</title>
<path fill="none" stroke="midnightblue" d="M439.34,-68.3694C418.399,-57.7514 393.523,-45.1383 373.903,-35.19"/>
<polygon fill="midnightblue" stroke="midnightblue" points="437.846,-71.5363 448.348,-72.937 441.012,-65.293 437.846,-71.5363"/>
</g>
<!-- Node54 -->
<g id="node11" class="node"><title>Node54</title>
<a xlink:href="_setup__2007___base_8cc.html" target="_top" xlink:title="src/expconfig/setups\l/Setup_2007_Base.cc">
<polygon fill="white" stroke="black" points="697.5,-1 697.5,-35 810.5,-35 810.5,-1 697.5,-1"/>
<text text-anchor="start" x="705.5" y="-22" font-family="Helvetica,sans-Serif" font-size="10.00">src/expconfig/setups</text>
<text text-anchor="middle" x="754" y="-9" font-family="Helvetica,sans-Serif" font-size="10.00">/Setup_2007_Base.cc</text>
</a>
</g>
<!-- Node52&#45;&gt;Node54 -->
<g id="edge10" class="edge"><title>Node52&#45;&gt;Node54</title>
<path fill="none" stroke="midnightblue" d="M550.739,-71.5577C612.788,-55.3311 629.959,-51.7645 689,-36 691.715,-35.275 694.492,-34.5278 697.296,-33.7688"/>
<polygon fill="midnightblue" stroke="midnightblue" points="549.601,-68.2376 540.817,-74.1602 551.377,-75.0086 549.601,-68.2376"/>
</g>
<!-- Node55 -->
<g id="node13" class="node"><title>Node55</title>
<a xlink:href="_setup__2014___e_p_t_8cc.html" target="_top" xlink:title="src/expconfig/setups\l/Setup_2014_EPT.cc">
<polygon fill="white" stroke="black" points="828,-1 828,-35 938,-35 938,-1 828,-1"/>
<text text-anchor="start" x="836" y="-22" font-family="Helvetica,sans-Serif" font-size="10.00">src/expconfig/setups</text>
<text text-anchor="middle" x="883" y="-9" font-family="Helvetica,sans-Serif" font-size="10.00">/Setup_2014_EPT.cc</text>
</a>
</g>
<!-- Node52&#45;&gt;Node55 -->
<g id="edge12" class="edge"><title>Node52&#45;&gt;Node55</title>
<path fill="none" stroke="midnightblue" d="M550.576,-71.8196C669.494,-48.8629 703.559,-59.8051 819,-36 821.939,-35.3939 824.941,-34.7253 827.964,-34.013"/>
<polygon fill="midnightblue" stroke="midnightblue" points="549.859,-68.3934 540.724,-73.7607 551.212,-75.2614 549.859,-68.3934"/>
</g>
<!-- Node56 -->
<g id="node15" class="node"><title>Node56</title>
<a xlink:href="_setup__2015__01___pion_8cc.html" target="_top" xlink:title="src/expconfig/setups\l/Setup_2015_01_Pion.cc">
<polygon fill="white" stroke="black" points="955.5,-1 955.5,-35 1080.5,-35 1080.5,-1 955.5,-1"/>
<text text-anchor="start" x="963.5" y="-22" font-family="Helvetica,sans-Serif" font-size="10.00">src/expconfig/setups</text>
<text text-anchor="middle" x="1018" y="-9" font-family="Helvetica,sans-Serif" font-size="10.00">/Setup_2015_01_Pion.cc</text>
</a>
</g>
<!-- Node52&#45;&gt;Node56 -->
<g id="edge14" class="edge"><title>Node52&#45;&gt;Node56</title>
<path fill="none" stroke="midnightblue" d="M550.755,-71.8521C725.684,-41.7549 775.175,-65.362 947,-36 949.758,-35.5288 952.566,-35.0056 955.395,-34.4429"/>
<polygon fill="midnightblue" stroke="midnightblue" points="549.941,-68.4413 540.697,-73.6174 551.152,-75.3359 549.941,-68.4413"/>
</g>
<!-- Node57 -->
<g id="node17" class="node"><title>Node57</title>
<a xlink:href="_setup__2017__03_8cc.html" target="_top" xlink:title="src/expconfig/setups\l/Setup_2017_03.cc">
<polygon fill="white" stroke="black" points="1097.5,-1 1097.5,-35 1204.5,-35 1204.5,-1 1097.5,-1"/>
<text text-anchor="start" x="1105.5" y="-22" font-family="Helvetica,sans-Serif" font-size="10.00">src/expconfig/setups</text>
<text text-anchor="middle" x="1151" y="-9" font-family="Helvetica,sans-Serif" font-size="10.00">/Setup_2017_03.cc</text>
</a>
</g>
<!-- Node52&#45;&gt;Node57 -->
<g id="edge16" class="edge"><title>Node52&#45;&gt;Node57</title>
<path fill="none" stroke="midnightblue" d="M550.657,-71.9063C788.117,-33.8261 855.361,-77.2037 1089,-36 1091.76,-35.5133 1094.57,-34.9501 1097.4,-34.3298"/>
<polygon fill="midnightblue" stroke="midnightblue" points="549.987,-68.4692 540.683,-73.5373 551.117,-75.3775 549.987,-68.4692"/>
</g>
<!-- Node58 -->
<g id="node19" class="node"><title>Node58</title>
<a xlink:href="_setup___c_b_source_calib_8cc.html" target="_top" xlink:title="src/expconfig/setups\l/Setup_CBSourceCalib.cc">
<polygon fill="white" stroke="black" points="133.5,-1 133.5,-35 264.5,-35 264.5,-1 133.5,-1"/>
<text text-anchor="start" x="141.5" y="-22" font-family="Helvetica,sans-Serif" font-size="10.00">src/expconfig/setups</text>
<text text-anchor="middle" x="199" y="-9" font-family="Helvetica,sans-Serif" font-size="10.00">/Setup_CBSourceCalib.cc</text>
</a>
</g>
<!-- Node52&#45;&gt;Node58 -->
<g id="edge18" class="edge"><title>Node52&#45;&gt;Node58</title>
<path fill="none" stroke="midnightblue" d="M413.639,-72.6077C368.407,-61.1001 309.425,-46.094 264.739,-34.7251"/>
<polygon fill="midnightblue" stroke="midnightblue" points="412.808,-76.0078 423.362,-75.0816 414.534,-69.2239 412.808,-76.0078"/>
</g>
<!-- Node59 -->
<g id="node21" class="node"><title>Node59</title>
<a xlink:href="expconfig__helpers_8cc.html" target="_top" xlink:title="test/expconfig_helpers.cc">
<polygon fill="white" stroke="black" points="552,-7.5 552,-28.5 680,-28.5 680,-7.5 552,-7.5"/>
<text text-anchor="middle" x="616" y="-15.5" font-family="Helvetica,sans-Serif" font-size="10.00">test/expconfig_helpers.cc</text>
</a>
</g>
<!-- Node52&#45;&gt;Node59 -->
<g id="edge20" class="edge"><title>Node52&#45;&gt;Node59</title>
<path fill="none" stroke="midnightblue" d="M522.77,-68.0937C547.075,-55.0344 576.848,-39.0368 596.108,-28.688"/>
<polygon fill="midnightblue" stroke="midnightblue" points="520.908,-65.1207 513.756,-72.937 524.222,-71.2869 520.908,-65.1207"/>
</g>
<!-- Node60&#45;&gt;Node58 -->
<g id="edge26" class="edge"><title>Node60&#45;&gt;Node58</title>
<path fill="none" stroke="midnightblue" d="M199,-62.7193C199,-53.572 199,-43.6255 199,-35.4407"/>
<polygon fill="midnightblue" stroke="midnightblue" points="195.5,-62.937 199,-72.937 202.5,-62.937 195.5,-62.937"/>
</g>
<!-- Node61 -->
<g id="node25" class="node"><title>Node61</title>
<a xlink:href="calibration_2modules_2_c_b___source_calib_8cc.html" target="_top" xlink:title="src/calibration/modules\l/CB_SourceCalib.cc">
<polygon fill="white" stroke="black" points="-0.5,-1 -0.5,-35 116.5,-35 116.5,-1 -0.5,-1"/>
<text text-anchor="start" x="7.5" y="-22" font-family="Helvetica,sans-Serif" font-size="10.00">src/calibration/modules</text>
<text text-anchor="middle" x="58" y="-9" font-family="Helvetica,sans-Serif" font-size="10.00">/CB_SourceCalib.cc</text>
</a>
</g>
<!-- Node60&#45;&gt;Node61 -->
<g id="edge24" class="edge"><title>Node60&#45;&gt;Node61</title>
<path fill="none" stroke="midnightblue" d="M156.64,-68.3694C135.846,-57.7514 111.146,-45.1383 91.6638,-35.19"/>
<polygon fill="midnightblue" stroke="midnightblue" points="155.087,-71.5063 165.585,-72.937 158.271,-65.2721 155.087,-71.5063"/>
</g>
<!-- Node63&#45;&gt;Node54 -->
<g id="edge34" class="edge"><title>Node63&#45;&gt;Node54</title>
<path fill="none" stroke="midnightblue" d="M1083.21,-71.7736C966.219,-49.0776 932.671,-59.3189 819,-36 816.247,-35.4353 813.439,-34.8182 810.61,-34.1636"/>
<polygon fill="midnightblue" stroke="midnightblue" points="1082.79,-75.258 1093.27,-73.7673 1084.14,-68.3914 1082.79,-75.258"/>
</g>
<!-- Node63&#45;&gt;Node55 -->
<g id="edge36" class="edge"><title>Node63&#45;&gt;Node55</title>
<path fill="none" stroke="midnightblue" d="M1083.38,-71.5826C1022.1,-55.433 1005.19,-51.7718 947,-36 944.104,-35.215 941.135,-34.4037 938.14,-33.5797"/>
<polygon fill="midnightblue" stroke="midnightblue" points="1082.62,-75.0013 1093.18,-74.1718 1084.41,-68.2335 1082.62,-75.0013"/>
</g>
<!-- Node63&#45;&gt;Node56 -->
<g id="edge38" class="edge"><title>Node63&#45;&gt;Node56</title>
<path fill="none" stroke="midnightblue" d="M1111.21,-68.0832C1091.56,-57.5254 1068.34,-45.049 1049.99,-35.19"/>
<polygon fill="midnightblue" stroke="midnightblue" points="1109.78,-71.2869 1120.24,-72.937 1113.09,-65.1207 1109.78,-71.2869"/>
</g>
<!-- Node63&#45;&gt;Node57 -->
<g id="edge40" class="edge"><title>Node63&#45;&gt;Node57</title>
<path fill="none" stroke="midnightblue" d="M1151.62,-62.7193C1151.49,-53.572 1151.36,-43.6255 1151.24,-35.4407"/>
<polygon fill="midnightblue" stroke="midnightblue" points="1148.12,-62.9866 1151.76,-72.937 1155.12,-62.8893 1148.12,-62.9866"/>
</g>
<!-- Node63&#45;&gt;Node59 -->
<g id="edge42" class="edge"><title>Node63&#45;&gt;Node59</title>
<path fill="none" stroke="midnightblue" d="M1083.29,-71.8591C909.207,-41.8418 860.057,-64.6954 689,-36 677.543,-34.078 665.229,-31.3168 654.038,-28.5323"/>
<polygon fill="midnightblue" stroke="midnightblue" points="1082.85,-75.3343 1093.3,-73.619 1084.06,-68.4401 1082.85,-75.3343"/>
</g>
<!-- Node64 -->
<g id="node32" class="node"><title>Node64</title>
<a xlink:href="calibration_2modules_2_p_i_d___energy_8cc.html" target="_top" xlink:title="src/calibration/modules\l/PID_Energy.cc">
<polygon fill="white" stroke="black" points="1489.5,-1 1489.5,-35 1606.5,-35 1606.5,-1 1489.5,-1"/>
<text text-anchor="start" x="1497.5" y="-22" font-family="Helvetica,sans-Serif" font-size="10.00">src/calibration/modules</text>
<text text-anchor="middle" x="1548" y="-9" font-family="Helvetica,sans-Serif" font-size="10.00">/PID_Energy.cc</text>
</a>
</g>
<!-- Node63&#45;&gt;Node64 -->
<g id="edge32" class="edge"><title>Node63&#45;&gt;Node64</title>
<path fill="none" stroke="midnightblue" d="M1220.65,-71.7963C1336,-49.2595 1368.94,-58.6573 1481,-36 1483.72,-35.451 1486.48,-34.8553 1489.27,-34.2258"/>
<polygon fill="midnightblue" stroke="midnightblue" points="1219.85,-68.3875 1210.73,-73.7742 1221.22,-75.2526 1219.85,-68.3875"/>
</g>
<!-- Node65&#45;&gt;Node54 -->
<g id="edge48" class="edge"><title>Node65&#45;&gt;Node54</title>
<path fill="none" stroke="midnightblue" d="M949.182,-71.4199C910.847,-61.0461 862.26,-47.8592 819,-36 816.29,-35.257 813.516,-34.4951 810.716,-33.7244"/>
<polygon fill="midnightblue" stroke="midnightblue" points="948.635,-74.8977 959.202,-74.1306 950.463,-68.1406 948.635,-74.8977"/>
</g>
<!-- Node65&#45;&gt;Node55 -->
<g id="edge50" class="edge"><title>Node65&#45;&gt;Node55</title>
<path fill="none" stroke="midnightblue" d="M977.175,-68.2264C957.322,-57.6383 933.801,-45.0936 915.231,-35.19"/>
<polygon fill="midnightblue" stroke="midnightblue" points="975.536,-71.3193 986.007,-72.937 978.83,-65.1428 975.536,-71.3193"/>
</g>
<!-- Node65&#45;&gt;Node56 -->
<g id="edge52" class="edge"><title>Node65&#45;&gt;Node56</title>
<path fill="none" stroke="midnightblue" d="M1018,-62.7193C1018,-53.572 1018,-43.6255 1018,-35.4407"/>
<polygon fill="midnightblue" stroke="midnightblue" points="1014.5,-62.937 1018,-72.937 1021.5,-62.937 1014.5,-62.937"/>
</g>
<!-- Node65&#45;&gt;Node57 -->
<g id="edge54" class="edge"><title>Node65&#45;&gt;Node57</title>
<path fill="none" stroke="midnightblue" d="M1058.49,-68.0832C1077.99,-57.5254 1101.03,-45.049 1119.25,-35.19"/>
<polygon fill="midnightblue" stroke="midnightblue" points="1056.65,-65.0983 1049.52,-72.937 1059.98,-71.2542 1056.65,-65.0983"/>
</g>
<!-- Node65&#45;&gt;Node59 -->
<g id="edge56" class="edge"><title>Node65&#45;&gt;Node59</title>
<path fill="none" stroke="midnightblue" d="M949.347,-71.7937C834.015,-49.196 801.286,-57.4959 689,-36 678.103,-33.9138 666.394,-31.2286 655.614,-28.5721"/>
<polygon fill="midnightblue" stroke="midnightblue" points="948.782,-75.2498 959.273,-73.7742 950.151,-68.3851 948.782,-75.2498"/>
</g>
<!-- Node66 -->
<g id="node41" class="node"><title>Node66</title>
<a xlink:href="calibration_2modules_2_t_a_p_s___energy_8cc.html" target="_top" xlink:title="src/calibration/modules\l/TAPS_Energy.cc">
<polygon fill="white" stroke="black" points="1355.5,-1 1355.5,-35 1472.5,-35 1472.5,-1 1355.5,-1"/>
<text text-anchor="start" x="1363.5" y="-22" font-family="Helvetica,sans-Serif" font-size="10.00">src/calibration/modules</text>
<text text-anchor="middle" x="1414" y="-9" font-family="Helvetica,sans-Serif" font-size="10.00">/TAPS_Energy.cc</text>
</a>
</g>
<!-- Node65&#45;&gt;Node66 -->
<g id="edge46" class="edge"><title>Node65&#45;&gt;Node66</title>
<path fill="none" stroke="midnightblue" d="M1086.65,-71.7963C1202,-49.2595 1234.94,-58.6573 1347,-36 1349.72,-35.451 1352.48,-34.8553 1355.27,-34.2258"/>
<polygon fill="midnightblue" stroke="midnightblue" points="1085.85,-68.3875 1076.73,-73.7742 1087.22,-75.2526 1085.85,-68.3875"/>
</g>
<!-- Node67&#45;&gt;Node54 -->
<g id="edge62" class="edge"><title>Node67&#45;&gt;Node54</title>
<path fill="none" stroke="midnightblue" d="M751.516,-62.7193C752.024,-53.572 752.576,-43.6255 753.031,-35.4407"/>
<polygon fill="midnightblue" stroke="midnightblue" points="748.008,-62.7582 750.948,-72.937 754.997,-63.1466 748.008,-62.7582"/>
</g>
<!-- Node67&#45;&gt;Node55 -->
<g id="edge64" class="edge"><title>Node67&#45;&gt;Node55</title>
<path fill="none" stroke="midnightblue" d="M790.485,-68.0832C809.988,-57.5254 833.034,-45.049 851.246,-35.19"/>
<polygon fill="midnightblue" stroke="midnightblue" points="788.647,-65.0983 781.519,-72.937 791.979,-71.2542 788.647,-65.0983"/>
</g>
<!-- Node67&#45;&gt;Node56 -->
<g id="edge66" class="edge"><title>Node67&#45;&gt;Node56</title>
<path fill="none" stroke="midnightblue" d="M818.698,-71.5439C860.756,-60.2446 914.175,-45.8934 955.12,-34.8932"/>
<polygon fill="midnightblue" stroke="midnightblue" points="817.563,-68.2245 808.814,-74.1993 819.379,-74.9848 817.563,-68.2245"/>
</g>
<!-- Node67&#45;&gt;Node57 -->
<g id="edge68" class="edge"><title>Node67&#45;&gt;Node57</title>
<path fill="none" stroke="midnightblue" d="M818.643,-71.8092C938.388,-48.7855 972.809,-60.4098 1089,-36 1091.74,-35.4239 1094.54,-34.7887 1097.36,-34.1113"/>
<polygon fill="midnightblue" stroke="midnightblue" points="817.862,-68.3958 808.724,-73.7574 819.211,-75.2646 817.862,-68.3958"/>
</g>
<!-- Node67&#45;&gt;Node59 -->
<g id="edge70" class="edge"><title>Node67&#45;&gt;Node59</title>
<path fill="none" stroke="midnightblue" d="M709.23,-68.0937C684.925,-55.0344 655.152,-39.0368 635.892,-28.688"/>
<polygon fill="midnightblue" stroke="midnightblue" points="707.778,-71.2869 718.244,-72.937 711.092,-65.1207 707.778,-71.2869"/>
</g>
<!-- Node68 -->
<g id="node50" class="node"><title>Node68</title>
<a xlink:href="calibration_2modules_2_t_a_p_s___short_energy_8cc.html" target="_top" xlink:title="src/calibration/modules\l/TAPS_ShortEnergy.cc">
<polygon fill="white" stroke="black" points="415.5,-1 415.5,-35 534.5,-35 534.5,-1 415.5,-1"/>
<text text-anchor="start" x="423.5" y="-22" font-family="Helvetica,sans-Serif" font-size="10.00">src/calibration/modules</text>
<text text-anchor="middle" x="475" y="-9" font-family="Helvetica,sans-Serif" font-size="10.00">/TAPS_ShortEnergy.cc</text>
</a>
</g>
<!-- Node67&#45;&gt;Node68 -->
<g id="edge60" class="edge"><title>Node67&#45;&gt;Node68</title>
<path fill="none" stroke="midnightblue" d="M681.262,-71.5553C619.221,-55.2983 602.13,-51.4282 543,-36 540.282,-35.2909 537.504,-34.5639 534.698,-33.8279"/>
<polygon fill="midnightblue" stroke="midnightblue" points="680.622,-75.006 691.183,-74.1602 682.4,-68.2355 680.622,-75.006"/>
</g>
<!-- Node69&#45;&gt;Node54 -->
<g id="edge76" class="edge"><title>Node69&#45;&gt;Node54</title>
<path fill="none" stroke="midnightblue" d="M844.428,-68.0832C825.365,-57.5254 802.839,-45.049 785.038,-35.19"/>
<polygon fill="midnightblue" stroke="midnightblue" points="842.748,-71.1537 853.192,-72.937 846.14,-65.0302 842.748,-71.1537"/>
</g>
<!-- Node69&#45;&gt;Node55 -->
<g id="edge78" class="edge"><title>Node69&#45;&gt;Node55</title>
<path fill="none" stroke="midnightblue" d="M883.621,-62.7193C883.494,-53.572 883.356,-43.6255 883.242,-35.4407"/>
<polygon fill="midnightblue" stroke="midnightblue" points="880.124,-62.9866 883.763,-72.937 887.124,-62.8893 880.124,-62.9866"/>
</g>
<!-- Node69&#45;&gt;Node56 -->
<g id="edge80" class="edge"><title>Node69&#45;&gt;Node56</title>
<path fill="none" stroke="midnightblue" d="M924.79,-68.0832C944.439,-57.5254 967.659,-45.049 986.007,-35.19"/>
<polygon fill="midnightblue" stroke="midnightblue" points="922.908,-65.1207 915.756,-72.937 926.222,-71.2869 922.908,-65.1207"/>
</g>
<!-- Node69&#45;&gt;Node57 -->
<g id="edge82" class="edge"><title>Node69&#45;&gt;Node57</title>
<path fill="none" stroke="midnightblue" d="M952.62,-71.5844C1013.91,-55.4568 1030.88,-52.0157 1089,-36 1091.7,-35.2557 1094.47,-34.485 1097.26,-33.7003"/>
<polygon fill="midnightblue" stroke="midnightblue" points="951.595,-68.235 942.82,-74.1718 953.382,-75.0031 951.595,-68.235"/>
</g>
<!-- Node69&#45;&gt;Node59 -->
<g id="edge84" class="edge"><title>Node69&#45;&gt;Node59</title>
<path fill="none" stroke="midnightblue" d="M815.262,-71.5332C764.478,-57.8897 697.148,-39.801 655.208,-28.5336"/>
<polygon fill="midnightblue" stroke="midnightblue" points="814.621,-74.9848 825.186,-74.1993 816.437,-68.2245 814.621,-74.9848"/>
</g>
<!-- Node70 -->
<g id="node59" class="node"><title>Node70</title>
<a xlink:href="calibration_2modules_2_t_a_p_s_veto___energy_8cc.html" target="_top" xlink:title="src/calibration/modules\l/TAPSVeto_Energy.cc">
<polygon fill="white" stroke="black" points="1221.5,-1 1221.5,-35 1338.5,-35 1338.5,-1 1221.5,-1"/>
<text text-anchor="start" x="1229.5" y="-22" font-family="Helvetica,sans-Serif" font-size="10.00">src/calibration/modules</text>
<text text-anchor="middle" x="1280" y="-9" font-family="Helvetica,sans-Serif" font-size="10.00">/TAPSVeto_Energy.cc</text>
</a>
</g>
<!-- Node69&#45;&gt;Node70 -->
<g id="edge74" class="edge"><title>Node69&#45;&gt;Node70</title>
<path fill="none" stroke="midnightblue" d="M952.654,-71.7963C1068,-49.2595 1100.94,-58.6573 1213,-36 1215.72,-35.451 1218.48,-34.8553 1221.27,-34.2258"/>
<polygon fill="midnightblue" stroke="midnightblue" points="951.85,-68.3875 942.727,-73.7742 953.218,-75.2526 951.85,-68.3875"/>
</g>
<!-- Node71&#45;&gt;Node64 -->
<g id="edge90" class="edge"><title>Node71&#45;&gt;Node64</title>
<path fill="none" stroke="midnightblue" d="M1363.34,-139.419C1407.32,-110.501 1482.56,-61.0305 1522.05,-35.0619"/>
<polygon fill="midnightblue" stroke="midnightblue" points="1361.41,-136.497 1354.98,-144.916 1365.26,-142.346 1361.41,-136.497"/>
</g>
<!-- Node71&#45;&gt;Node66 -->
<g id="edge92" class="edge"><title>Node71&#45;&gt;Node66</title>
<path fill="none" stroke="midnightblue" d="M1349.27,-136.544C1355.9,-127.733 1363.08,-117.644 1369,-108 1383.99,-83.5845 1398.24,-53.5153 1406.55,-35.0564"/>
<polygon fill="midnightblue" stroke="midnightblue" points="1346.44,-134.479 1343.14,-144.545 1352,-138.737 1346.44,-134.479"/>
</g>
<!-- Node71&#45;&gt;Node67 -->
<g id="edge94" class="edge"><title>Node71&#45;&gt;Node67</title>
<path fill="none" stroke="midnightblue" d="M1260.06,-158.184C1161.27,-151.935 974.016,-137.184 817,-108 814.276,-107.494 811.501,-106.933 808.706,-106.332"/>
<polygon fill="midnightblue" stroke="midnightblue" points="1260.01,-161.688 1270.21,-158.816 1260.45,-154.701 1260.01,-161.688"/>
</g>
<!-- Node71&#45;&gt;Node70 -->
<g id="edge96" class="edge"><title>Node71&#45;&gt;Node70</title>
<path fill="none" stroke="midnightblue" d="M1345.36,-136.218C1354.92,-117.649 1363.28,-92.3821 1353,-72 1345.05,-56.2342 1330.09,-43.9276 1315.76,-35.071"/>
<polygon fill="midnightblue" stroke="midnightblue" points="1342.28,-134.557 1340.5,-145 1348.4,-137.949 1342.28,-134.557"/>
</g>
<!-- Node72 -->
<g id="node68" class="node"><title>Node72</title>
<a xlink:href="_energy___g_u_i_8cc.html" target="_top" xlink:title="src/calibration/modules\l/Energy_GUI.cc">
<polygon fill="white" stroke="black" points="1227.5,-73 1227.5,-107 1344.5,-107 1344.5,-73 1227.5,-73"/>
<text text-anchor="start" x="1235.5" y="-94" font-family="Helvetica,sans-Serif" font-size="10.00">src/calibration/modules</text>
<text text-anchor="middle" x="1286" y="-81" font-family="Helvetica,sans-Serif" font-size="10.00">/Energy_GUI.cc</text>
</a>
</g>
<!-- Node71&#45;&gt;Node72 -->
<g id="edge88" class="edge"><title>Node71&#45;&gt;Node72</title>
<path fill="none" stroke="midnightblue" d="M1313.59,-136.203C1307.89,-126.658 1301.57,-116.07 1296.42,-107.441"/>
<polygon fill="midnightblue" stroke="midnightblue" points="1310.68,-138.146 1318.81,-144.937 1316.69,-134.557 1310.68,-138.146"/>
</g>
</g>
</svg>
