<?xml version="1.0" encoding="UTF-8" standalone="no"?>
<!DOCTYPE svg PUBLIC "-//W3C//DTD SVG 1.1//EN"
 "http://www.w3.org/Graphics/SVG/1.1/DTD/svg11.dtd">
<!-- Generated by graphviz version 2.26.3 (20100126.1600)
 -->
<!-- Title: src/reconstruct/CandidateBuilder.h Pages: 1 -->
<svg width="2928pt" height="550pt"
 viewBox="0.00 0.00 2927.73 550.00" xmlns="http://www.w3.org/2000/svg" xmlns:xlink="http://www.w3.org/1999/xlink">
<g id="graph1" class="graph" transform="scale(1 1) rotate(0) translate(4 546)">
<title>src/reconstruct/CandidateBuilder.h</title>
<polygon fill="white" stroke="white" points="-4,5 -4,-546 2924.73,-546 2924.73,5 -4,5"/>
<!-- Node0 -->
<g id="node1" class="node"><title>Node0</title>
<polygon fill="#bfbfbf" stroke="black" points="2717.71,-507 2717.71,-541 2846.71,-541 2846.71,-507 2717.71,-507"/>
<text text-anchor="start" x="2725.71" y="-528" font-family="Helvetica,sans-Serif" font-size="10.00">src/reconstruct/Candidate</text>
<text text-anchor="middle" x="2782.21" y="-515" font-family="Helvetica,sans-Serif" font-size="10.00">Builder.h</text>
</g>
<!-- Node1 -->
<g id="node3" class="node"><title>Node1</title>
<a xlink:href="_reconstruct__traits_8h.html" target="_top" xlink:title="Reconstruct_traits.h">
<polygon fill="white" stroke="black" points="2519.71,-325.5 2519.71,-346.5 2624.71,-346.5 2624.71,-325.5 2519.71,-325.5"/>
<text text-anchor="middle" x="2572.21" y="-333.5" font-family="Helvetica,sans-Serif" font-size="10.00">Reconstruct_traits.h</text>
</a>
</g>
<!-- Node0&#45;&gt;Node1 -->
<g id="edge2" class="edge"><title>Node0&#45;&gt;Node1</title>
<path fill="none" stroke="midnightblue" d="M2763.2,-506.985C2723.53,-471.469 2632.26,-389.762 2591.96,-353.679"/>
<polygon fill="midnightblue" stroke="midnightblue" points="2594.17,-350.963 2584.39,-346.901 2589.5,-356.179 2594.17,-350.963"/>
</g>
<!-- Node18 -->
<g id="node40" class="node"><title>Node18</title>
<polygon fill="white" stroke="#bfbfbf" points="2546.21,-116.5 2546.21,-137.5 2598.21,-137.5 2598.21,-116.5 2546.21,-116.5"/>
<text text-anchor="middle" x="2572.21" y="-124.5" font-family="Helvetica,sans-Serif" font-size="10.00">memory</text>
</g>
<!-- Node0&#45;&gt;Node18 -->
<g id="edge268" class="edge"><title>Node0&#45;&gt;Node18</title>
<path fill="none" stroke="midnightblue" d="M2809,-506.903C2838.32,-485.862 2881.21,-447.189 2881.21,-401 2881.21,-401 2881.21,-401 2881.21,-264 2881.21,-204.841 2689.53,-153.886 2608.11,-134.909"/>
<polygon fill="midnightblue" stroke="midnightblue" points="2608.82,-131.482 2598.29,-132.652 2607.25,-138.304 2608.82,-131.482"/>
</g>
<!-- Node19 -->
<g id="node42" class="node"><title>Node19</title>
<polygon fill="white" stroke="#bfbfbf" points="2674.71,-116.5 2674.71,-137.5 2703.71,-137.5 2703.71,-116.5 2674.71,-116.5"/>
<text text-anchor="middle" x="2689.21" y="-124.5" font-family="Helvetica,sans-Serif" font-size="10.00">list</text>
</g>
<!-- Node0&#45;&gt;Node19 -->
<g id="edge266" class="edge"><title>Node0&#45;&gt;Node19</title>
<path fill="none" stroke="midnightblue" d="M2839.34,-506.953C2859.27,-498.575 2880.35,-486.609 2895.21,-470 2916.86,-445.802 2919.21,-433.469 2919.21,-401 2919.21,-401 2919.21,-401 2919.21,-264 2919.21,-222.602 2925.01,-202.737 2895.21,-174 2869.37,-149.084 2762.65,-134.796 2713.81,-129.447"/>
<polygon fill="midnightblue" stroke="midnightblue" points="2714.1,-125.958 2703.78,-128.386 2713.36,-132.919 2714.1,-125.958"/>
</g>
<!-- Node23 -->
<g id="node56" class="node"><title>Node23</title>
<polygon fill="white" stroke="#bfbfbf" points="2780.71,-253.5 2780.71,-274.5 2815.71,-274.5 2815.71,-253.5 2780.71,-253.5"/>
<text text-anchor="middle" x="2798.21" y="-261.5" font-family="Helvetica,sans-Serif" font-size="10.00">map</text>
</g>
<!-- Node0&#45;&gt;Node23 -->
<g id="edge264" class="edge"><title>Node0&#45;&gt;Node23</title>
<path fill="none" stroke="midnightblue" d="M2783.26,-506.941C2786.08,-461.034 2793.84,-334.972 2796.92,-284.901"/>
<polygon fill="midnightblue" stroke="midnightblue" points="2800.43,-284.853 2797.55,-274.657 2793.45,-284.423 2800.43,-284.853"/>
</g>
<!-- Node24 -->
<g id="node60" class="node"><title>Node24</title>
<a xlink:href="_t_candidate_8h.html" target="_top" xlink:title="tree/TCandidate.h">
<polygon fill="white" stroke="black" points="605.709,-390.5 605.709,-411.5 700.709,-411.5 700.709,-390.5 605.709,-390.5"/>
<text text-anchor="middle" x="653.209" y="-398.5" font-family="Helvetica,sans-Serif" font-size="10.00">tree/TCandidate.h</text>
</a>
</g>
<!-- Node0&#45;&gt;Node24 -->
<g id="edge70" class="edge"><title>Node0&#45;&gt;Node24</title>
<path fill="none" stroke="midnightblue" d="M2717.69,-521.746C2465.85,-512.672 1524.75,-476.181 752.209,-412 738.819,-410.888 724.437,-409.437 710.9,-407.956"/>
<polygon fill="midnightblue" stroke="midnightblue" points="711.069,-404.454 700.743,-406.823 710.293,-411.411 711.069,-404.454"/>
</g>
<!-- Node25 -->
<g id="node62" class="node"><title>Node25</title>
<a xlink:href="_t_cluster_8h.html" target="_top" xlink:title="TCluster.h">
<polygon fill="white" stroke="black" points="410.209,-325.5 410.209,-346.5 472.209,-346.5 472.209,-325.5 410.209,-325.5"/>
<text text-anchor="middle" x="441.209" y="-333.5" font-family="Helvetica,sans-Serif" font-size="10.00">TCluster.h</text>
</a>
</g>
<!-- Node0&#45;&gt;Node25 -->
<g id="edge112" class="edge"><title>Node0&#45;&gt;Node25</title>
<path fill="none" stroke="midnightblue" d="M2717.48,-522.964C2506.11,-519.317 1817.06,-505.327 1248.21,-470 958.288,-451.995 877.079,-489.788 597.209,-412 548.282,-398.401 496.152,-369.761 466.25,-351.782"/>
<polygon fill="midnightblue" stroke="midnightblue" points="468.071,-348.794 457.712,-346.574 464.426,-354.77 468.071,-348.794"/>
</g>
<!-- Node29 -->
<g id="node87" class="node"><title>Node29</title>
<a xlink:href="_exp_config_8h.html" target="_top" xlink:title="expconfig/ExpConfig.h">
<polygon fill="white" stroke="black" points="2421.21,-448.5 2421.21,-469.5 2537.21,-469.5 2537.21,-448.5 2421.21,-448.5"/>
<text text-anchor="middle" x="2479.21" y="-456.5" font-family="Helvetica,sans-Serif" font-size="10.00">expconfig/ExpConfig.h</text>
</a>
</g>
<!-- Node0&#45;&gt;Node29 -->
<g id="edge114" class="edge"><title>Node0&#45;&gt;Node29</title>
<path fill="none" stroke="midnightblue" d="M2717.58,-510.136C2664.46,-498.74 2589.82,-482.729 2538.28,-471.672"/>
<polygon fill="midnightblue" stroke="midnightblue" points="2538.81,-468.205 2528.29,-469.53 2537.34,-475.05 2538.81,-468.205"/>
</g>
<!-- Node2 -->
<g id="node5" class="node"><title>Node2</title>
<a xlink:href="_detector__t_8h.html" target="_top" xlink:title="base/Detector_t.h">
<polygon fill="white" stroke="black" points="655.709,-181.5 655.709,-202.5 750.709,-202.5 750.709,-181.5 655.709,-181.5"/>
<text text-anchor="middle" x="703.209" y="-189.5" font-family="Helvetica,sans-Serif" font-size="10.00">base/Detector_t.h</text>
</a>
</g>
<!-- Node1&#45;&gt;Node2 -->
<g id="edge4" class="edge"><title>Node1&#45;&gt;Node2</title>
<path fill="none" stroke="midnightblue" d="M2519.6,-328.749C2489.41,-324.884 2450.75,-320.435 2416.21,-318 2107.98,-296.27 1331.79,-327.814 1026.21,-282 921.177,-266.253 801.798,-227.239 741.868,-206.12"/>
<polygon fill="midnightblue" stroke="midnightblue" points="742.673,-202.692 732.079,-202.642 740.33,-209.288 742.673,-202.692"/>
</g>
<!-- Node16 -->
<g id="node36" class="node"><title>Node16</title>
<a xlink:href="mapped__vectors_8h.html" target="_top" xlink:title="base/std_ext/mapped\l_vectors.h">
<polygon fill="white" stroke="black" points="2463.21,-247 2463.21,-281 2573.21,-281 2573.21,-247 2463.21,-247"/>
<text text-anchor="start" x="2471.21" y="-268" font-family="Helvetica,sans-Serif" font-size="10.00">base/std_ext/mapped</text>
<text text-anchor="middle" x="2518.21" y="-255" font-family="Helvetica,sans-Serif" font-size="10.00">_vectors.h</text>
</a>
</g>
<!-- Node1&#45;&gt;Node16 -->
<g id="edge38" class="edge"><title>Node1&#45;&gt;Node16</title>
<path fill="none" stroke="midnightblue" d="M2564.24,-325.376C2557.14,-315.905 2546.46,-301.666 2537.17,-289.286"/>
<polygon fill="midnightblue" stroke="midnightblue" points="2539.83,-286.994 2531.03,-281.094 2534.23,-291.194 2539.83,-286.994"/>
</g>
<!-- Node1&#45;&gt;Node18 -->
<g id="edge62" class="edge"><title>Node1&#45;&gt;Node18</title>
<path fill="none" stroke="midnightblue" d="M2577.59,-325.215C2585.76,-307.146 2598.69,-270.344 2582.21,-246 2558.06,-210.326 2516.36,-245.674 2492.21,-210 2483.24,-196.751 2484.26,-187.887 2492.21,-174 2501.77,-157.288 2519.85,-145.935 2536.4,-138.58"/>
<polygon fill="midnightblue" stroke="midnightblue" points="2537.96,-141.724 2545.9,-134.702 2535.31,-135.244 2537.96,-141.724"/>
</g>
<!-- Node1&#45;&gt;Node19 -->
<g id="edge66" class="edge"><title>Node1&#45;&gt;Node19</title>
<path fill="none" stroke="midnightblue" d="M2589.58,-325.462C2618.79,-306.588 2676.76,-263.902 2699.21,-210 2707.62,-189.807 2702.66,-164.621 2697.16,-147.321"/>
<polygon fill="midnightblue" stroke="midnightblue" points="2700.39,-145.961 2693.78,-137.684 2693.79,-148.279 2700.39,-145.961"/>
</g>
<!-- Node20 -->
<g id="node47" class="node"><title>Node20</title>
<a xlink:href="shared__ptr__container_8h.html" target="_top" xlink:title="base/std_ext/shared\l_ptr_container.h">
<polygon fill="white" stroke="black" points="2036.71,-175 2036.71,-209 2141.71,-209 2141.71,-175 2036.71,-175"/>
<text text-anchor="start" x="2044.71" y="-196" font-family="Helvetica,sans-Serif" font-size="10.00">base/std_ext/shared</text>
<text text-anchor="middle" x="2089.21" y="-183" font-family="Helvetica,sans-Serif" font-size="10.00">_ptr_container.h</text>
</a>
</g>
<!-- Node1&#45;&gt;Node20 -->
<g id="edge52" class="edge"><title>Node1&#45;&gt;Node20</title>
<path fill="none" stroke="midnightblue" d="M2536.69,-325.411C2455.23,-301.124 2254.07,-241.15 2151.5,-210.572"/>
<polygon fill="midnightblue" stroke="midnightblue" points="2152.48,-207.21 2141.89,-207.707 2150.48,-213.918 2152.48,-207.21"/>
</g>
<!-- Node21 -->
<g id="node51" class="node"><title>Node21</title>
<polygon fill="white" stroke="#bfbfbf" points="2488.71,-58.5 2488.71,-79.5 2547.71,-79.5 2547.71,-58.5 2488.71,-58.5"/>
<text text-anchor="middle" x="2518.21" y="-66.5" font-family="Helvetica,sans-Serif" font-size="10.00">functional</text>
</g>
<!-- Node1&#45;&gt;Node21 -->
<g id="edge68" class="edge"><title>Node1&#45;&gt;Node21</title>
<path fill="none" stroke="midnightblue" d="M2603.09,-325.326C2625.24,-316.45 2654.69,-302.026 2675.21,-282 2729.3,-229.202 2760.46,-174.182 2712.21,-116 2692.81,-92.6044 2608.91,-79.2034 2558.01,-73.0848"/>
<polygon fill="midnightblue" stroke="midnightblue" points="2558.33,-69.5984 2547.99,-71.923 2557.52,-76.5518 2558.33,-69.5984"/>
</g>
<!-- Node1&#45;&gt;Node23 -->
<g id="edge64" class="edge"><title>Node1&#45;&gt;Node23</title>
<path fill="none" stroke="midnightblue" d="M2623.92,-325.485C2663.93,-316.448 2720.26,-301.747 2767.21,-282 2769.06,-281.222 2770.93,-280.354 2772.8,-279.432"/>
<polygon fill="midnightblue" stroke="midnightblue" points="2774.75,-282.359 2781.88,-274.526 2771.42,-276.2 2774.75,-282.359"/>
</g>
<!-- Node3 -->
<g id="node7" class="node"><title>Node3</title>
<a xlink:href="bitflag_8h.html" target="_top" xlink:title="base/bitflag.h">
<polygon fill="white" stroke="black" points="349.709,-116.5 349.709,-137.5 424.709,-137.5 424.709,-116.5 349.709,-116.5"/>
<text text-anchor="middle" x="387.209" y="-124.5" font-family="Helvetica,sans-Serif" font-size="10.00">base/bitflag.h</text>
</a>
</g>
<!-- Node2&#45;&gt;Node3 -->
<g id="edge6" class="edge"><title>Node2&#45;&gt;Node3</title>
<path fill="none" stroke="midnightblue" d="M655.299,-182.978C603.293,-173.06 517.559,-156.346 434.668,-138.272"/>
<polygon fill="midnightblue" stroke="midnightblue" points="435.355,-134.84 424.838,-136.119 433.858,-141.678 435.355,-134.84"/>
</g>
<!-- Node5 -->
<g id="node11" class="node"><title>Node5</title>
<a xlink:href="vec3_8h.html" target="_top" xlink:title="base/vec/vec3.h">
<polygon fill="white" stroke="black" points="15.7087,-116.5 15.7087,-137.5 104.709,-137.5 104.709,-116.5 15.7087,-116.5"/>
<text text-anchor="middle" x="60.2087" y="-124.5" font-family="Helvetica,sans-Serif" font-size="10.00">base/vec/vec3.h</text>
</a>
</g>
<!-- Node2&#45;&gt;Node5 -->
<g id="edge10" class="edge"><title>Node2&#45;&gt;Node5</title>
<path fill="none" stroke="midnightblue" d="M655.583,-186.984C620.618,-183.324 571.968,-178.275 529.209,-174 363.487,-157.431 321.837,-155.48 156.209,-138 142.914,-136.597 128.595,-135.001 115.176,-133.469"/>
<polygon fill="midnightblue" stroke="midnightblue" points="115.456,-129.979 105.122,-132.314 114.657,-136.933 115.456,-129.979"/>
</g>
<!-- Node9 -->
<g id="node20" class="node"><title>Node9</title>
<a xlink:href="base_2std__ext_2math_8h.html" target="_top" xlink:title="base/std_ext/math.h">
<polygon fill="white" stroke="black" points="442.209,-116.5 442.209,-137.5 548.209,-137.5 548.209,-116.5 442.209,-116.5"/>
<text text-anchor="middle" x="495.209" y="-124.5" font-family="Helvetica,sans-Serif" font-size="10.00">base/std_ext/math.h</text>
</a>
</g>
<!-- Node2&#45;&gt;Node9 -->
<g id="edge20" class="edge"><title>Node2&#45;&gt;Node9</title>
<path fill="none" stroke="midnightblue" d="M669.327,-181.412C633.821,-170.316 577.905,-152.843 539.055,-140.702"/>
<polygon fill="midnightblue" stroke="midnightblue" points="539.665,-137.226 529.076,-137.584 537.577,-143.907 539.665,-137.226"/>
</g>
<!-- Node11 -->
<g id="node25" class="node"><title>Node11</title>
<polygon fill="white" stroke="#bfbfbf" points="770.209,-58.5 770.209,-79.5 814.209,-79.5 814.209,-58.5 770.209,-58.5"/>
<text text-anchor="middle" x="792.209" y="-66.5" font-family="Helvetica,sans-Serif" font-size="10.00">vector</text>
</g>
<!-- Node2&#45;&gt;Node11 -->
<g id="edge36" class="edge"><title>Node2&#45;&gt;Node11</title>
<path fill="none" stroke="midnightblue" d="M692.337,-181.249C678.147,-165.879 656.736,-137.148 671.209,-116 681.602,-100.813 727.984,-85.8737 760.204,-77.0479"/>
<polygon fill="midnightblue" stroke="midnightblue" points="761.345,-80.3659 770.103,-74.4046 759.539,-73.6028 761.345,-80.3659"/>
</g>
<!-- Node12 -->
<g id="node27" class="node"><title>Node12</title>
<polygon fill="white" stroke="#bfbfbf" points="680.209,-116.5 680.209,-137.5 726.209,-137.5 726.209,-116.5 680.209,-116.5"/>
<text text-anchor="middle" x="703.209" y="-124.5" font-family="Helvetica,sans-Serif" font-size="10.00">cstdint</text>
</g>
<!-- Node2&#45;&gt;Node12 -->
<g id="edge28" class="edge"><title>Node2&#45;&gt;Node12</title>
<path fill="none" stroke="midnightblue" d="M703.209,-181.267C703.209,-172.18 703.209,-158.892 703.209,-147.74"/>
<polygon fill="midnightblue" stroke="midnightblue" points="706.709,-147.534 703.209,-137.534 699.709,-147.534 706.709,-147.534"/>
</g>
<!-- Node13 -->
<g id="node29" class="node"><title>Node13</title>
<polygon fill="white" stroke="#bfbfbf" points="1303.71,-116.5 1303.71,-137.5 1362.71,-137.5 1362.71,-116.5 1303.71,-116.5"/>
<text text-anchor="middle" x="1333.21" y="-124.5" font-family="Helvetica,sans-Serif" font-size="10.00">stdexcept</text>
</g>
<!-- Node2&#45;&gt;Node13 -->
<g id="edge30" class="edge"><title>Node2&#45;&gt;Node13</title>
<path fill="none" stroke="midnightblue" d="M750.718,-188.12C846.616,-180.123 1070.13,-160.643 1257.21,-138 1269.08,-136.563 1281.97,-134.782 1293.7,-133.075"/>
<polygon fill="midnightblue" stroke="midnightblue" points="1294.27,-136.528 1303.66,-131.604 1293.25,-129.603 1294.27,-136.528"/>
</g>
<!-- Node14 -->
<g id="node31" class="node"><title>Node14</title>
<polygon fill="white" stroke="#bfbfbf" points="1996.71,-58.5 1996.71,-79.5 2037.71,-79.5 2037.71,-58.5 1996.71,-58.5"/>
<text text-anchor="middle" x="2017.21" y="-66.5" font-family="Helvetica,sans-Serif" font-size="10.00">string</text>
</g>
<!-- Node2&#45;&gt;Node14 -->
<g id="edge32" class="edge"><title>Node2&#45;&gt;Node14</title>
<path fill="none" stroke="midnightblue" d="M751.11,-188.328C804.706,-184.325 894.134,-177.964 971.209,-174 1027.17,-171.122 1931.48,-167.363 1979.21,-138 1996.6,-127.301 2006.63,-105.614 2011.97,-89.3931"/>
<polygon fill="midnightblue" stroke="midnightblue" points="2015.36,-90.2756 2014.83,-79.6938 2008.65,-88.2941 2015.36,-90.2756"/>
</g>
<!-- Node15 -->
<g id="node33" class="node"><title>Node15</title>
<polygon fill="white" stroke="#bfbfbf" points="1186.21,-116.5 1186.21,-137.5 1248.21,-137.5 1248.21,-116.5 1186.21,-116.5"/>
<text text-anchor="middle" x="1217.21" y="-124.5" font-family="Helvetica,sans-Serif" font-size="10.00">type_traits</text>
</g>
<!-- Node2&#45;&gt;Node15 -->
<g id="edge34" class="edge"><title>Node2&#45;&gt;Node15</title>
<path fill="none" stroke="midnightblue" d="M750.984,-186.35C831.24,-176.8 998.191,-156.675 1139.21,-138 1151.16,-136.417 1164.13,-134.62 1176.01,-132.943"/>
<polygon fill="midnightblue" stroke="midnightblue" points="1176.69,-136.381 1186.1,-131.51 1175.71,-129.45 1176.69,-136.381"/>
</g>
<!-- Node4 -->
<g id="node9" class="node"><title>Node4</title>
<polygon fill="white" stroke="#bfbfbf" points="366.709,-58.5 366.709,-79.5 407.709,-79.5 407.709,-58.5 366.709,-58.5"/>
<text text-anchor="middle" x="387.209" y="-66.5" font-family="Helvetica,sans-Serif" font-size="10.00">bitset</text>
</g>
<!-- Node3&#45;&gt;Node4 -->
<g id="edge8" class="edge"><title>Node3&#45;&gt;Node4</title>
<path fill="none" stroke="midnightblue" d="M387.209,-116.362C387.209,-108.922 387.209,-98.7427 387.209,-89.7276"/>
<polygon fill="midnightblue" stroke="midnightblue" points="390.709,-89.5706 387.209,-79.5707 383.709,-89.5707 390.709,-89.5706"/>
</g>
<!-- Node6 -->
<g id="node13" class="node"><title>Node6</title>
<a xlink:href="vec2_8h.html" target="_top" xlink:title="vec2.h">
<polygon fill="white" stroke="black" points="38.2087,-58.5 38.2087,-79.5 84.2087,-79.5 84.2087,-58.5 38.2087,-58.5"/>
<text text-anchor="middle" x="61.2087" y="-66.5" font-family="Helvetica,sans-Serif" font-size="10.00">vec2.h</text>
</a>
</g>
<!-- Node5&#45;&gt;Node6 -->
<g id="edge12" class="edge"><title>Node5&#45;&gt;Node6</title>
<path fill="none" stroke="midnightblue" d="M60.3921,-116.362C60.5204,-108.922 60.6959,-98.7427 60.8513,-89.7276"/>
<polygon fill="midnightblue" stroke="midnightblue" points="64.3534,-89.6295 61.0264,-79.5707 57.3545,-89.5088 64.3534,-89.6295"/>
</g>
<!-- Node7 -->
<g id="node15" class="node"><title>Node7</title>
<polygon fill="white" stroke="#bfbfbf" points="269.209,-0.5 269.209,-21.5 313.209,-21.5 313.209,-0.5 269.209,-0.5"/>
<text text-anchor="middle" x="291.209" y="-8.5" font-family="Helvetica,sans-Serif" font-size="10.00">cmath</text>
</g>
<!-- Node5&#45;&gt;Node7 -->
<g id="edge18" class="edge"><title>Node5&#45;&gt;Node7</title>
<path fill="none" stroke="midnightblue" d="M68.8626,-116.273C81.6213,-101.144 106.933,-73.6411 134.209,-58 174.075,-35.1392 226.134,-22.416 259.13,-16.1385"/>
<polygon fill="midnightblue" stroke="midnightblue" points="259.919,-19.5525 269.133,-14.3222 258.669,-12.6651 259.919,-19.5525"/>
</g>
<!-- Node8 -->
<g id="node17" class="node"><title>Node8</title>
<polygon fill="white" stroke="#bfbfbf" points="143.209,-58.5 143.209,-79.5 195.209,-79.5 195.209,-58.5 143.209,-58.5"/>
<text text-anchor="middle" x="169.209" y="-66.5" font-family="Helvetica,sans-Serif" font-size="10.00">ostream</text>
</g>
<!-- Node5&#45;&gt;Node8 -->
<g id="edge16" class="edge"><title>Node5&#45;&gt;Node8</title>
<path fill="none" stroke="midnightblue" d="M79.9478,-116.497C96.8188,-107.519 121.317,-94.4835 140.382,-84.3387"/>
<polygon fill="midnightblue" stroke="midnightblue" points="142.064,-87.4086 149.248,-79.6212 138.776,-81.2289 142.064,-87.4086"/>
</g>
<!-- Node6&#45;&gt;Node7 -->
<g id="edge14" class="edge"><title>Node6&#45;&gt;Node7</title>
<path fill="none" stroke="midnightblue" d="M84.2706,-62.3568C89.5018,-60.8885 95.0392,-59.3647 100.209,-58 155.891,-43.3007 221.099,-27.5714 259.118,-18.5483"/>
<polygon fill="midnightblue" stroke="midnightblue" points="260.165,-21.8973 269.089,-16.1876 258.552,-15.0856 260.165,-21.8973"/>
</g>
<!-- Node9&#45;&gt;Node7 -->
<g id="edge22" class="edge"><title>Node9&#45;&gt;Node7</title>
<path fill="none" stroke="midnightblue" d="M485.425,-116.319C471.356,-101.494 444.031,-74.6316 416.209,-58 386.694,-40.3567 349.423,-27.3814 323.289,-19.5871"/>
<polygon fill="midnightblue" stroke="midnightblue" points="324.093,-16.1763 313.514,-16.7583 322.147,-22.9004 324.093,-16.1763"/>
</g>
<!-- Node10 -->
<g id="node23" class="node"><title>Node10</title>
<polygon fill="white" stroke="#bfbfbf" points="502.209,-58.5 502.209,-79.5 542.209,-79.5 542.209,-58.5 502.209,-58.5"/>
<text text-anchor="middle" x="522.209" y="-66.5" font-family="Helvetica,sans-Serif" font-size="10.00">limits</text>
</g>
<!-- Node9&#45;&gt;Node10 -->
<g id="edge24" class="edge"><title>Node9&#45;&gt;Node10</title>
<path fill="none" stroke="midnightblue" d="M500.161,-116.362C503.739,-108.677 508.677,-98.0686 512.973,-88.8399"/>
<polygon fill="midnightblue" stroke="midnightblue" points="516.241,-90.1136 517.288,-79.5707 509.894,-87.1594 516.241,-90.1136"/>
</g>
<!-- Node9&#45;&gt;Node11 -->
<g id="edge26" class="edge"><title>Node9&#45;&gt;Node11</title>
<path fill="none" stroke="midnightblue" d="M548.306,-116.631C609.836,-104.615 709.26,-85.1988 760.071,-75.276"/>
<polygon fill="midnightblue" stroke="midnightblue" points="761.001,-78.6606 770.145,-73.3087 759.66,-71.7903 761.001,-78.6606"/>
</g>
<!-- Node16&#45;&gt;Node11 -->
<g id="edge46" class="edge"><title>Node16&#45;&gt;Node11</title>
<path fill="none" stroke="midnightblue" d="M2463.19,-262.547C2191.76,-255.322 1006.95,-223.09 971.209,-210 900.963,-184.275 836.825,-119.619 808.1,-87.5837"/>
<polygon fill="midnightblue" stroke="midnightblue" points="810.505,-85.0187 801.269,-79.828 805.252,-89.6456 810.505,-85.0187"/>
</g>
<!-- Node16&#45;&gt;Node15 -->
<g id="edge50" class="edge"><title>Node16&#45;&gt;Node15</title>
<path fill="none" stroke="midnightblue" d="M2463.08,-262.303C2285.54,-256.619 1729.89,-237.077 1552.21,-210 1487.42,-200.126 1472.82,-189.792 1409.21,-174 1357.23,-161.096 1297.28,-146.459 1258.39,-136.997"/>
<polygon fill="midnightblue" stroke="midnightblue" points="1259.03,-133.552 1248.48,-134.589 1257.37,-140.353 1259.03,-133.552"/>
</g>
<!-- Node17 -->
<g id="node38" class="node"><title>Node17</title>
<a xlink:href="memory_8h.html" target="_top" xlink:title="base/std_ext/memory.h">
<polygon fill="white" stroke="black" points="2500.71,-181.5 2500.71,-202.5 2619.71,-202.5 2619.71,-181.5 2500.71,-181.5"/>
<text text-anchor="middle" x="2560.21" y="-189.5" font-family="Helvetica,sans-Serif" font-size="10.00">base/std_ext/memory.h</text>
</a>
</g>
<!-- Node16&#45;&gt;Node17 -->
<g id="edge40" class="edge"><title>Node16&#45;&gt;Node17</title>
<path fill="none" stroke="midnightblue" d="M2528.16,-246.937C2534.32,-236.387 2542.24,-222.805 2548.67,-211.785"/>
<polygon fill="midnightblue" stroke="midnightblue" points="2551.83,-213.302 2553.85,-202.901 2545.79,-209.775 2551.83,-213.302"/>
</g>
<!-- Node16&#45;&gt;Node18 -->
<g id="edge48" class="edge"><title>Node16&#45;&gt;Node18</title>
<path fill="none" stroke="midnightblue" d="M2491.02,-246.915C2478.86,-237.64 2465.81,-224.995 2459.21,-210 2452.76,-195.357 2450.33,-187.31 2459.21,-174 2468.24,-160.462 2506.92,-146.297 2536.54,-137.103"/>
<polygon fill="midnightblue" stroke="midnightblue" points="2537.62,-140.432 2546.18,-134.184 2535.59,-133.732 2537.62,-140.432"/>
</g>
<!-- Node17&#45;&gt;Node18 -->
<g id="edge42" class="edge"><title>Node17&#45;&gt;Node18</title>
<path fill="none" stroke="midnightblue" d="M2562.19,-181.267C2563.89,-172.085 2566.37,-158.615 2568.44,-147.392"/>
<polygon fill="midnightblue" stroke="midnightblue" points="2571.89,-148.003 2570.26,-137.534 2565.01,-146.732 2571.89,-148.003"/>
</g>
<!-- Node17&#45;&gt;Node19 -->
<g id="edge44" class="edge"><title>Node17&#45;&gt;Node19</title>
<path fill="none" stroke="midnightblue" d="M2581.22,-181.412C2604.31,-169.777 2641.32,-151.128 2665.45,-138.97"/>
<polygon fill="midnightblue" stroke="midnightblue" points="2667.27,-141.975 2674.62,-134.35 2664.12,-135.724 2667.27,-141.975"/>
</g>
<!-- Node20&#45;&gt;Node11 -->
<g id="edge54" class="edge"><title>Node20&#45;&gt;Node11</title>
<path fill="none" stroke="midnightblue" d="M2036.63,-183.961C2011.19,-180.36 1980.17,-176.395 1952.21,-174 1753.88,-157.018 1248.37,-193.486 1057.21,-138 1038.47,-132.56 1037.44,-122.956 1019.21,-116 952.545,-90.5663 869.347,-77.8187 824.486,-72.3842"/>
<polygon fill="midnightblue" stroke="midnightblue" points="824.802,-68.8974 814.464,-71.2154 823.992,-75.8503 824.802,-68.8974"/>
</g>
<!-- Node20&#45;&gt;Node18 -->
<g id="edge56" class="edge"><title>Node20&#45;&gt;Node18</title>
<path fill="none" stroke="midnightblue" d="M2141.98,-176.753C2146.43,-175.727 2150.89,-174.79 2155.21,-174 2320.79,-143.746 2366.66,-168.429 2532.21,-138 2533.48,-137.766 2534.78,-137.51 2536.08,-137.237"/>
<polygon fill="midnightblue" stroke="midnightblue" points="2537.18,-140.574 2546.11,-134.875 2535.57,-133.761 2537.18,-140.574"/>
</g>
<!-- Node20&#45;&gt;Node21 -->
<g id="edge58" class="edge"><title>Node20&#45;&gt;Node21</title>
<path fill="none" stroke="midnightblue" d="M2141.99,-176.797C2146.44,-175.761 2150.89,-174.809 2155.21,-174 2230.76,-159.842 2440.58,-187.703 2499.21,-138 2513.01,-126.298 2517.26,-105.576 2518.36,-89.8867"/>
<polygon fill="midnightblue" stroke="midnightblue" points="2521.86,-89.6598 2518.69,-79.5522 2514.87,-89.4342 2521.86,-89.6598"/>
</g>
<!-- Node22 -->
<g id="node53" class="node"><title>Node22</title>
<polygon fill="white" stroke="#bfbfbf" points="1625.21,-58.5 1625.21,-79.5 1681.21,-79.5 1681.21,-58.5 1625.21,-58.5"/>
<text text-anchor="middle" x="1653.21" y="-66.5" font-family="Helvetica,sans-Serif" font-size="10.00">algorithm</text>
</g>
<!-- Node20&#45;&gt;Node22 -->
<g id="edge60" class="edge"><title>Node20&#45;&gt;Node22</title>
<path fill="none" stroke="midnightblue" d="M2099.54,-174.999C2108.4,-157.97 2117.67,-132.048 2103.21,-116 2075.82,-85.6041 1794.96,-73.5531 1691.34,-70.1198"/>
<polygon fill="midnightblue" stroke="midnightblue" points="1691.41,-66.6205 1681.31,-69.7961 1691.19,-73.6169 1691.41,-66.6205"/>
</g>
<!-- Node24&#45;&gt;Node2 -->
<g id="edge100" class="edge"><title>Node24&#45;&gt;Node2</title>
<path fill="none" stroke="midnightblue" d="M655.757,-390.348C663.664,-357.297 687.875,-256.093 698.324,-212.418"/>
<polygon fill="midnightblue" stroke="midnightblue" points="701.743,-213.17 700.666,-202.63 694.935,-211.541 701.743,-213.17"/>
</g>
<!-- Node24&#45;&gt;Node11 -->
<g id="edge102" class="edge"><title>Node24&#45;&gt;Node11</title>
<path fill="none" stroke="midnightblue" d="M647.949,-390.287C637.304,-367.584 614.209,-312.717 614.209,-264 614.209,-264 614.209,-264 614.209,-192 614.209,-121.892 708.823,-88.6314 760.091,-75.7551"/>
<polygon fill="midnightblue" stroke="midnightblue" points="761.114,-79.1093 770.025,-73.3786 759.485,-72.3014 761.114,-79.1093"/>
</g>
<!-- Node24&#45;&gt;Node18 -->
<g id="edge108" class="edge"><title>Node24&#45;&gt;Node18</title>
<path fill="none" stroke="midnightblue" d="M700.736,-399.048C819.523,-393.946 1138.87,-378.862 1404.21,-354 1661.08,-329.931 1728.3,-337.716 1980.21,-282 2082.31,-259.416 2104.87,-242.674 2204.21,-210 2251.87,-194.323 2262.57,-186.315 2311.21,-174 2402.16,-150.974 2427.04,-155.535 2519.21,-138 2524.69,-136.957 2530.48,-135.806 2536.14,-134.654"/>
<polygon fill="midnightblue" stroke="midnightblue" points="2537.01,-138.048 2546.09,-132.6 2535.59,-131.193 2537.01,-138.048"/>
</g>
<!-- Node24&#45;&gt;Node22 -->
<g id="edge110" class="edge"><title>Node24&#45;&gt;Node22</title>
<path fill="none" stroke="midnightblue" d="M700.715,-397.229C863.705,-383.665 1390.21,-334.399 1390.21,-264 1390.21,-264 1390.21,-264 1390.21,-192 1390.21,-157.183 1383.93,-139.937 1409.21,-116 1438.3,-88.4536 1553.64,-76.1372 1614.75,-71.4521"/>
<polygon fill="midnightblue" stroke="midnightblue" points="1615.06,-74.9384 1624.78,-70.7142 1614.55,-67.9572 1615.06,-74.9384"/>
</g>
<!-- Node24&#45;&gt;Node25 -->
<g id="edge72" class="edge"><title>Node24&#45;&gt;Node25</title>
<path fill="none" stroke="midnightblue" d="M618.675,-390.412C581.251,-378.937 521.579,-360.642 481.905,-348.478"/>
<polygon fill="midnightblue" stroke="midnightblue" points="482.861,-345.11 472.275,-345.525 480.809,-351.803 482.861,-345.11"/>
</g>
<!-- Node27 -->
<g id="node67" class="node"><title>Node27</title>
<polygon fill="white" stroke="#bfbfbf" points="470.209,-181.5 470.209,-202.5 520.209,-202.5 520.209,-181.5 470.209,-181.5"/>
<text text-anchor="middle" x="495.209" y="-189.5" font-family="Helvetica,sans-Serif" font-size="10.00">iomanip</text>
</g>
<!-- Node24&#45;&gt;Node27 -->
<g id="edge104" class="edge"><title>Node24&#45;&gt;Node27</title>
<path fill="none" stroke="midnightblue" d="M637.495,-390.206C625.882,-381.553 610.385,-368.494 600.209,-354 570.522,-311.716 587.084,-288.151 557.209,-246 546.948,-231.523 532.032,-218.372 519.403,-208.674"/>
<polygon fill="midnightblue" stroke="midnightblue" points="521.23,-205.672 511.109,-202.537 517.066,-211.299 521.23,-205.672"/>
</g>
<!-- Node28 -->
<g id="node69" class="node"><title>Node28</title>
<polygon fill="white" stroke="#bfbfbf" points="239.209,-58.5 239.209,-79.5 291.209,-79.5 291.209,-58.5 239.209,-58.5"/>
<text text-anchor="middle" x="265.209" y="-66.5" font-family="Helvetica,sans-Serif" font-size="10.00">sstream</text>
</g>
<!-- Node24&#45;&gt;Node28 -->
<g id="edge106" class="edge"><title>Node24&#45;&gt;Node28</title>
<path fill="none" stroke="midnightblue" d="M605.439,-398.314C553.377,-393.989 468.519,-382.793 401.209,-354 350.856,-332.461 336.708,-323.703 301.209,-282 257.48,-230.629 258.773,-205.232 253.209,-138 252.402,-128.256 251.99,-125.702 253.209,-116 254.318,-107.169 256.557,-97.619 258.803,-89.4488"/>
<polygon fill="midnightblue" stroke="midnightblue" points="262.213,-90.2604 261.667,-79.6797 255.495,-88.2916 262.213,-90.2604"/>
</g>
<!-- Node25&#45;&gt;Node2 -->
<g id="edge82" class="edge"><title>Node25&#45;&gt;Node2</title>
<path fill="none" stroke="midnightblue" d="M466.059,-325.439C489.831,-315.101 526.503,-298.538 557.209,-282 601.208,-258.302 650.269,-226.993 678.842,-208.239"/>
<polygon fill="midnightblue" stroke="midnightblue" points="680.946,-211.044 687.367,-202.617 677.092,-205.2 680.946,-211.044"/>
</g>
<!-- Node25&#45;&gt;Node5 -->
<g id="edge88" class="edge"><title>Node25&#45;&gt;Node5</title>
<path fill="none" stroke="midnightblue" d="M409.859,-331.667C351.884,-323.248 230.52,-303.598 194.209,-282 136.61,-247.74 91.2135,-179.956 71.2555,-146.548"/>
<polygon fill="midnightblue" stroke="midnightblue" points="74.1677,-144.594 66.1016,-137.725 68.1233,-148.125 74.1677,-144.594"/>
</g>
<!-- Node25&#45;&gt;Node7 -->
<g id="edge92" class="edge"><title>Node25&#45;&gt;Node7</title>
<path fill="none" stroke="midnightblue" d="M409.752,-332.668C343.616,-325.271 192.526,-306.205 147.209,-282 68.4741,-239.947 40.786,-220.705 7.20869,-138 -6.66271,-103.833 0.836246,-81.5543 29.2087,-58 63.7447,-29.3287 196.734,-17.107 258.87,-12.8796"/>
<polygon fill="midnightblue" stroke="midnightblue" points="259.159,-16.3682 268.91,-12.2245 258.703,-9.3831 259.159,-16.3682"/>
</g>
<!-- Node25&#45;&gt;Node9 -->
<g id="edge84" class="edge"><title>Node25&#45;&gt;Node9</title>
<path fill="none" stroke="midnightblue" d="M409.831,-327.775C387.207,-320.022 358.273,-305.927 344.209,-282 336.101,-268.207 339.646,-261.336 344.209,-246 355.106,-209.372 362.19,-198.865 391.209,-174 408.07,-159.552 430.099,-148.747 449.54,-141.164"/>
<polygon fill="midnightblue" stroke="midnightblue" points="450.982,-144.362 459.134,-137.594 448.541,-137.801 450.982,-144.362"/>
</g>
<!-- Node25&#45;&gt;Node11 -->
<g id="edge90" class="edge"><title>Node25&#45;&gt;Node11</title>
<path fill="none" stroke="midnightblue" d="M431.891,-325.319C423.578,-315.025 412.001,-298.605 407.209,-282 402.772,-266.627 402.149,-261.179 407.209,-246 419.858,-208.053 429.197,-197.985 461.209,-174 497.676,-146.676 515.524,-156.408 557.209,-138 576.846,-129.328 580.091,-123.492 600.209,-116 654.739,-95.6931 721.263,-81.6678 759.971,-74.5114"/>
<polygon fill="midnightblue" stroke="midnightblue" points="760.901,-77.9001 770.118,-72.6756 759.655,-71.0119 760.901,-77.9001"/>
</g>
<!-- Node25&#45;&gt;Node18 -->
<g id="edge98" class="edge"><title>Node25&#45;&gt;Node18</title>
<path fill="none" stroke="midnightblue" d="M472.274,-335.811C655.873,-334.546 1600.72,-325.964 1887.21,-282 2007,-263.617 2036.07,-250.726 2150.21,-210 2187.31,-196.761 2193.25,-184.557 2231.21,-174 2355.49,-139.432 2391.95,-159.124 2519.21,-138 2524.71,-137.086 2530.52,-136.005 2536.18,-134.882"/>
<polygon fill="midnightblue" stroke="midnightblue" points="2537.04,-138.279 2546.14,-132.845 2535.64,-131.421 2537.04,-138.279"/>
</g>
<!-- Node25&#45;&gt;Node20 -->
<g id="edge86" class="edge"><title>Node25&#45;&gt;Node20</title>
<path fill="none" stroke="midnightblue" d="M472.299,-335.906C649.986,-335.198 1538.4,-329.311 1807.21,-282 1890.29,-267.378 1982.76,-234.506 2038.43,-212.798"/>
<polygon fill="midnightblue" stroke="midnightblue" points="2040.03,-215.933 2048.05,-209.016 2037.46,-209.418 2040.03,-215.933"/>
</g>
<!-- Node26 -->
<g id="node64" class="node"><title>Node26</title>
<a xlink:href="_t_detector_read_hit_8h.html" target="_top" xlink:title="tree/TDetectorReadHit.h">
<polygon fill="white" stroke="black" points="424.209,-253.5 424.209,-274.5 548.209,-274.5 548.209,-253.5 424.209,-253.5"/>
<text text-anchor="middle" x="486.209" y="-261.5" font-family="Helvetica,sans-Serif" font-size="10.00">tree/TDetectorReadHit.h</text>
</a>
</g>
<!-- Node25&#45;&gt;Node26 -->
<g id="edge74" class="edge"><title>Node25&#45;&gt;Node26</title>
<path fill="none" stroke="midnightblue" d="M447.849,-325.376C454.761,-314.316 465.738,-296.753 474.182,-283.243"/>
<polygon fill="midnightblue" stroke="midnightblue" points="477.21,-285.002 479.542,-274.667 471.274,-281.292 477.21,-285.002"/>
</g>
<!-- Node25&#45;&gt;Node27 -->
<g id="edge94" class="edge"><title>Node25&#45;&gt;Node27</title>
<path fill="none" stroke="midnightblue" d="M433.255,-325.484C421.17,-308.119 401.011,-272.712 415.209,-246 424.897,-227.772 443.785,-214.583 460.776,-205.804"/>
<polygon fill="midnightblue" stroke="midnightblue" points="462.466,-208.875 469.95,-201.376 459.423,-202.571 462.466,-208.875"/>
</g>
<!-- Node25&#45;&gt;Node28 -->
<g id="edge96" class="edge"><title>Node25&#45;&gt;Node28</title>
<path fill="none" stroke="midnightblue" d="M410.107,-325.742C387.416,-317.001 357.102,-302.561 336.209,-282 284.481,-231.094 276.849,-208.399 259.209,-138 255.242,-122.17 257.168,-103.731 259.853,-89.8994"/>
<polygon fill="midnightblue" stroke="midnightblue" points="263.315,-90.4533 262.071,-79.9317 256.482,-88.9326 263.315,-90.4533"/>
</g>
<!-- Node26&#45;&gt;Node2 -->
<g id="edge76" class="edge"><title>Node26&#45;&gt;Node2</title>
<path fill="none" stroke="midnightblue" d="M518.228,-253.376C556.319,-240.737 619.999,-219.609 661.804,-205.738"/>
<polygon fill="midnightblue" stroke="midnightblue" points="663.023,-209.021 671.412,-202.55 660.818,-202.377 663.023,-209.021"/>
</g>
<!-- Node26&#45;&gt;Node27 -->
<g id="edge78" class="edge"><title>Node26&#45;&gt;Node27</title>
<path fill="none" stroke="midnightblue" d="M487.537,-253.376C488.866,-242.741 490.947,-226.095 492.606,-212.82"/>
<polygon fill="midnightblue" stroke="midnightblue" points="496.108,-213.024 493.875,-202.667 489.162,-212.156 496.108,-213.024"/>
</g>
<!-- Node26&#45;&gt;Node28 -->
<g id="edge80" class="edge"><title>Node26&#45;&gt;Node28</title>
<path fill="none" stroke="midnightblue" d="M446.659,-253.366C396.091,-237.475 310.291,-202.285 270.209,-138 261.296,-123.706 260.648,-104.364 261.885,-89.7958"/>
<polygon fill="midnightblue" stroke="midnightblue" points="265.374,-90.0944 263.092,-79.7483 258.424,-89.2594 265.374,-90.0944"/>
</g>
<!-- Node29&#45;&gt;Node1 -->
<g id="edge118" class="edge"><title>Node29&#45;&gt;Node1</title>
<path fill="none" stroke="midnightblue" d="M2487.46,-448.085C2503.36,-427.061 2538.39,-380.733 2558.07,-354.7"/>
<polygon fill="midnightblue" stroke="midnightblue" points="2560.87,-356.803 2564.11,-346.715 2555.28,-352.581 2560.87,-356.803"/>
</g>
<!-- Node29&#45;&gt;Node2 -->
<g id="edge116" class="edge"><title>Node29&#45;&gt;Node2</title>
<path fill="none" stroke="midnightblue" d="M2421.04,-458.128C2144.61,-453.605 971.261,-430.038 828.209,-354 768.539,-322.283 728.529,-248.256 711.907,-212.308"/>
<polygon fill="midnightblue" stroke="midnightblue" points="714.954,-210.548 707.672,-202.853 708.566,-213.41 714.954,-210.548"/>
</g>
<!-- Node29&#45;&gt;Node18 -->
<g id="edge258" class="edge"><title>Node29&#45;&gt;Node18</title>
<path fill="none" stroke="midnightblue" d="M2473.64,-448.485C2453.3,-408.513 2387.43,-263.748 2449.21,-174 2459.41,-159.175 2503.6,-144.806 2536.1,-135.941"/>
<polygon fill="midnightblue" stroke="midnightblue" points="2537.42,-139.212 2546.19,-133.262 2535.62,-132.447 2537.42,-139.212"/>
</g>
<!-- Node29&#45;&gt;Node19 -->
<g id="edge260" class="edge"><title>Node29&#45;&gt;Node19</title>
<path fill="none" stroke="midnightblue" d="M2537.46,-448.766C2618.72,-430.979 2763.01,-385.8 2824.21,-282 2859.99,-221.319 2760.32,-162.059 2712.82,-138.108"/>
<polygon fill="midnightblue" stroke="midnightblue" points="2714.32,-134.947 2703.8,-133.672 2711.23,-141.228 2714.32,-134.947"/>
</g>
<!-- Node29&#45;&gt;Node23 -->
<g id="edge262" class="edge"><title>Node29&#45;&gt;Node23</title>
<path fill="none" stroke="midnightblue" d="M2496.81,-448.238C2549.97,-415.743 2709.06,-318.497 2772.08,-279.972"/>
<polygon fill="midnightblue" stroke="midnightblue" points="2773.95,-282.93 2780.66,-274.729 2770.3,-276.958 2773.95,-282.93"/>
</g>
<!-- Node30 -->
<g id="node91" class="node"><title>Node30</title>
<a xlink:href="_calibration_8h.html" target="_top" xlink:title="calibration/Calibration.h">
<polygon fill="white" stroke="black" points="2288.71,-390.5 2288.71,-411.5 2407.71,-411.5 2407.71,-390.5 2288.71,-390.5"/>
<text text-anchor="middle" x="2348.21" y="-398.5" font-family="Helvetica,sans-Serif" font-size="10.00">calibration/Calibration.h</text>
</a>
</g>
<!-- Node29&#45;&gt;Node30 -->
<g id="edge120" class="edge"><title>Node29&#45;&gt;Node30</title>
<path fill="none" stroke="midnightblue" d="M2455.49,-448.497C2434.84,-439.356 2404.69,-426.008 2381.61,-415.788"/>
<polygon fill="midnightblue" stroke="midnightblue" points="2382.76,-412.469 2372.2,-411.621 2379.92,-418.87 2382.76,-412.469"/>
</g>
<!-- Node53 -->
<g id="node172" class="node"><title>Node53</title>
<a xlink:href="piecewise__interval_8h.html" target="_top" xlink:title="base/piecewise_interval.h">
<polygon fill="white" stroke="black" points="1034.71,-253.5 1034.71,-274.5 1163.71,-274.5 1163.71,-253.5 1034.71,-253.5"/>
<text text-anchor="middle" x="1099.21" y="-261.5" font-family="Helvetica,sans-Serif" font-size="10.00">base/piecewise_interval.h</text>
</a>
</g>
<!-- Node29&#45;&gt;Node53 -->
<g id="edge236" class="edge"><title>Node29&#45;&gt;Node53</title>
<path fill="none" stroke="midnightblue" d="M2420.79,-450.746C2200.43,-419.607 1419.62,-309.276 1173.85,-274.547"/>
<polygon fill="midnightblue" stroke="midnightblue" points="1174.33,-271.081 1163.94,-273.147 1173.35,-278.012 1174.33,-271.081"/>
</g>
<!-- Node30&#45;&gt;Node1 -->
<g id="edge122" class="edge"><title>Node30&#45;&gt;Node1</title>
<path fill="none" stroke="midnightblue" d="M2384.7,-390.412C2423.26,-379.222 2484.18,-361.545 2526.05,-349.393"/>
<polygon fill="midnightblue" stroke="midnightblue" points="2527.11,-352.732 2535.74,-346.584 2525.16,-346.009 2527.11,-352.732"/>
</g>
<!-- Node30&#45;&gt;Node11 -->
<g id="edge234" class="edge"><title>Node30&#45;&gt;Node11</title>
<path fill="none" stroke="midnightblue" d="M2288.7,-398.021C2064.53,-386.429 1271.31,-341.992 1026.21,-282 944.517,-262.005 914.048,-265.898 851.209,-210 815.186,-177.956 800.577,-120.375 795.131,-89.6455"/>
<polygon fill="midnightblue" stroke="midnightblue" points="798.564,-88.951 793.516,-79.636 791.654,-90.0658 798.564,-88.951"/>
</g>
<!-- Node31 -->
<g id="node94" class="node"><title>Node31</title>
<a xlink:href="_manager__traits_8h.html" target="_top" xlink:title="calibration/gui/Manager\l_traits.h">
<polygon fill="white" stroke="black" points="2174.71,-319 2174.71,-353 2291.71,-353 2291.71,-319 2174.71,-319"/>
<text text-anchor="start" x="2182.71" y="-340" font-family="Helvetica,sans-Serif" font-size="10.00">calibration/gui/Manager</text>
<text text-anchor="middle" x="2233.21" y="-327" font-family="Helvetica,sans-Serif" font-size="10.00">_traits.h</text>
</a>
</g>
<!-- Node30&#45;&gt;Node31 -->
<g id="edge124" class="edge"><title>Node30&#45;&gt;Node31</title>
<path fill="none" stroke="midnightblue" d="M2329.48,-390.412C2314.09,-381.716 2291.78,-369.104 2272.5,-358.211"/>
<polygon fill="midnightblue" stroke="midnightblue" points="2274.04,-355.061 2263.62,-353.187 2270.6,-361.155 2274.04,-355.061"/>
</g>
<!-- Node52 -->
<g id="node164" class="node"><title>Node52</title>
<a xlink:href="_options_list_8h.html" target="_top" xlink:title="base/OptionsList.h">
<polygon fill="white" stroke="black" points="2309.21,-325.5 2309.21,-346.5 2407.21,-346.5 2407.21,-325.5 2309.21,-325.5"/>
<text text-anchor="middle" x="2358.21" y="-333.5" font-family="Helvetica,sans-Serif" font-size="10.00">base/OptionsList.h</text>
</a>
</g>
<!-- Node30&#45;&gt;Node52 -->
<g id="edge222" class="edge"><title>Node30&#45;&gt;Node52</title>
<path fill="none" stroke="midnightblue" d="M2349.86,-390.267C2351.26,-381.18 2353.3,-367.892 2355.02,-356.74"/>
<polygon fill="midnightblue" stroke="midnightblue" points="2358.53,-356.95 2356.59,-346.534 2351.61,-355.885 2358.53,-356.95"/>
</g>
<!-- Node31&#45;&gt;Node14 -->
<g id="edge214" class="edge"><title>Node31&#45;&gt;Node14</title>
<path fill="none" stroke="midnightblue" d="M2174.52,-333.15C2049.17,-326.574 1763.81,-308.821 1729.21,-282 1702.2,-261.063 1708.31,-243.628 1702.21,-210 1699.35,-194.257 1691.41,-185.809 1702.21,-174 1762.58,-107.968 2042.84,-204.032 2103.21,-138 2109.81,-130.784 2108.2,-124.41 2103.21,-116 2099.93,-110.477 2070.62,-95.1241 2047.11,-83.4551"/>
<polygon fill="midnightblue" stroke="midnightblue" points="2048.65,-80.3112 2038.13,-79.0345 2045.55,-86.5914 2048.65,-80.3112"/>
</g>
<!-- Node31&#45;&gt;Node18 -->
<g id="edge218" class="edge"><title>Node31&#45;&gt;Node18</title>
<path fill="none" stroke="midnightblue" d="M2241.28,-318.848C2258.01,-285.285 2299.85,-210.989 2358.21,-174 2362,-171.6 2476.34,-147.229 2536.3,-134.561"/>
<polygon fill="midnightblue" stroke="midnightblue" points="2537.06,-137.977 2546.12,-132.487 2535.62,-131.128 2537.06,-137.977"/>
</g>
<!-- Node31&#45;&gt;Node19 -->
<g id="edge216" class="edge"><title>Node31&#45;&gt;Node19</title>
<path fill="none" stroke="midnightblue" d="M2291.92,-319.697C2294.71,-319.088 2297.49,-318.518 2300.21,-318 2369.42,-304.824 2555.44,-319.308 2615.21,-282 2662.69,-252.365 2680.32,-182.869 2686.35,-147.89"/>
<polygon fill="midnightblue" stroke="midnightblue" points="2689.84,-148.261 2687.93,-137.84 2682.92,-147.178 2689.84,-148.261"/>
</g>
<!-- Node31&#45;&gt;Node21 -->
<g id="edge220" class="edge"><title>Node31&#45;&gt;Node21</title>
<path fill="none" stroke="midnightblue" d="M2291.93,-319.742C2294.72,-319.121 2297.49,-318.536 2300.21,-318 2424.17,-293.553 2475.47,-349.61 2582.21,-282 2598.25,-271.84 2622.88,-228.225 2628.21,-210 2640.21,-168.91 2635.31,-148.291 2607.21,-116 2593.95,-100.764 2574.52,-89.7042 2557.19,-82.1561"/>
<polygon fill="midnightblue" stroke="midnightblue" points="2558.42,-78.8753 2547.84,-78.3198 2555.76,-85.352 2558.42,-78.8753"/>
</g>
<!-- Node32 -->
<g id="node96" class="node"><title>Node32</title>
<a xlink:href="interval_8h.html" target="_top" xlink:title="base/interval.h">
<polygon fill="white" stroke="black" points="1118.21,-181.5 1118.21,-202.5 1198.21,-202.5 1198.21,-181.5 1118.21,-181.5"/>
<text text-anchor="middle" x="1158.21" y="-189.5" font-family="Helvetica,sans-Serif" font-size="10.00">base/interval.h</text>
</a>
</g>
<!-- Node31&#45;&gt;Node32 -->
<g id="edge126" class="edge"><title>Node31&#45;&gt;Node32</title>
<path fill="none" stroke="midnightblue" d="M2174.35,-332.673C2066.21,-326.128 1828.77,-309.752 1630.21,-282 1475.4,-260.363 1294.33,-222.181 1208.39,-203.268"/>
<polygon fill="midnightblue" stroke="midnightblue" points="1208.91,-199.798 1198.39,-201.059 1207.4,-206.634 1208.91,-199.798"/>
</g>
<!-- Node35 -->
<g id="node107" class="node"><title>Node35</title>
<a xlink:href="_wrap_t_file_8h.html" target="_top" xlink:title="base/WrapTFile.h">
<polygon fill="white" stroke="black" points="1561.21,-181.5 1561.21,-202.5 1655.21,-202.5 1655.21,-181.5 1561.21,-181.5"/>
<text text-anchor="middle" x="1608.21" y="-189.5" font-family="Helvetica,sans-Serif" font-size="10.00">base/WrapTFile.h</text>
</a>
</g>
<!-- Node31&#45;&gt;Node35 -->
<g id="edge142" class="edge"><title>Node31&#45;&gt;Node35</title>
<path fill="none" stroke="midnightblue" d="M2174.47,-333.201C2038.8,-326.335 1711.96,-307.354 1669.21,-282 1642.42,-266.113 1624.82,-233.318 1615.7,-212.009"/>
<polygon fill="midnightblue" stroke="midnightblue" points="1618.89,-210.557 1611.9,-202.596 1612.4,-213.179 1618.89,-210.557"/>
</g>
<!-- Node46 -->
<g id="node141" class="node"><title>Node46</title>
<a xlink:href="_t_i_d_8h.html" target="_top" xlink:title="tree/TID.h">
<polygon fill="white" stroke="black" points="1737.71,-253.5 1737.71,-274.5 1798.71,-274.5 1798.71,-253.5 1737.71,-253.5"/>
<text text-anchor="middle" x="1768.21" y="-261.5" font-family="Helvetica,sans-Serif" font-size="10.00">tree/TID.h</text>
</a>
</g>
<!-- Node31&#45;&gt;Node46 -->
<g id="edge188" class="edge"><title>Node31&#45;&gt;Node46</title>
<path fill="none" stroke="midnightblue" d="M2174.32,-326.881C2078.46,-312.039 1891.14,-283.035 1808.75,-270.277"/>
<polygon fill="midnightblue" stroke="midnightblue" points="1809.18,-266.803 1798.77,-268.732 1808.11,-273.721 1809.18,-266.803"/>
</g>
<!-- Node32&#45;&gt;Node7 -->
<g id="edge140" class="edge"><title>Node32&#45;&gt;Node7</title>
<path fill="none" stroke="midnightblue" d="M1159.99,-181.215C1163.57,-155.356 1168.45,-89.6297 1132.21,-58 1101.2,-30.9442 474.403,-15.1281 323.621,-11.7057"/>
<polygon fill="midnightblue" stroke="midnightblue" points="323.288,-8.19749 313.212,-11.4721 323.131,-15.1957 323.288,-8.19749"/>
</g>
<!-- Node32&#45;&gt;Node10 -->
<g id="edge134" class="edge"><title>Node32&#45;&gt;Node10</title>
<path fill="none" stroke="midnightblue" d="M1132.31,-181.438C1124.94,-178.719 1116.84,-176 1109.21,-174 1012.52,-148.651 985.658,-155.285 887.209,-138 762.615,-116.125 614.665,-87.2627 552.298,-74.9634"/>
<polygon fill="midnightblue" stroke="midnightblue" points="552.844,-71.5035 542.355,-72.9996 551.487,-78.3709 552.844,-71.5035"/>
</g>
<!-- Node32&#45;&gt;Node13 -->
<g id="edge132" class="edge"><title>Node32&#45;&gt;Node13</title>
<path fill="none" stroke="midnightblue" d="M1186.71,-181.412C1216.21,-170.458 1262.43,-153.288 1295.06,-141.17"/>
<polygon fill="midnightblue" stroke="midnightblue" points="1296.56,-144.346 1304.71,-137.584 1294.12,-137.784 1296.56,-144.346"/>
</g>
<!-- Node32&#45;&gt;Node22 -->
<g id="edge130" class="edge"><title>Node32&#45;&gt;Node22</title>
<path fill="none" stroke="midnightblue" d="M1178.01,-181.389C1198.06,-170.605 1229.9,-153.349 1257.21,-138 1274.22,-128.438 1276.73,-122.281 1295.21,-116 1353.86,-96.0648 1535.31,-78.8989 1615,-72.1071"/>
<polygon fill="midnightblue" stroke="midnightblue" points="1615.43,-75.5835 1625.1,-71.2557 1614.84,-68.6082 1615.43,-75.5835"/>
</g>
<!-- Node32&#45;&gt;Node28 -->
<g id="edge138" class="edge"><title>Node32&#45;&gt;Node28</title>
<path fill="none" stroke="midnightblue" d="M1133.96,-181.432C1126.2,-178.502 1117.47,-175.67 1109.21,-174 941.741,-140.15 499.103,-203.273 341.209,-138 315.543,-127.39 292.963,-104.129 279.221,-87.5507"/>
<polygon fill="midnightblue" stroke="midnightblue" points="281.844,-85.2266 272.872,-79.5928 276.373,-89.5925 281.844,-85.2266"/>
</g>
<!-- Node33 -->
<g id="node98" class="node"><title>Node33</title>
<a xlink:href="types_8h.html" target="_top" xlink:title="types.h">
<polygon fill="white" stroke="black" points="895.709,-116.5 895.709,-137.5 944.709,-137.5 944.709,-116.5 895.709,-116.5"/>
<text text-anchor="middle" x="920.209" y="-124.5" font-family="Helvetica,sans-Serif" font-size="10.00">types.h</text>
</a>
</g>
<!-- Node32&#45;&gt;Node33 -->
<g id="edge128" class="edge"><title>Node32&#45;&gt;Node33</title>
<path fill="none" stroke="midnightblue" d="M1131.45,-181.484C1124.29,-178.857 1116.5,-176.173 1109.21,-174 1044.08,-154.605 1023.54,-156.999 954.996,-138.323"/>
<polygon fill="midnightblue" stroke="midnightblue" points="955.569,-134.849 944.997,-135.543 953.694,-141.594 955.569,-134.849"/>
</g>
<!-- Node34 -->
<g id="node103" class="node"><title>Node34</title>
<polygon fill="white" stroke="#bfbfbf" points="961.709,-116.5 961.709,-137.5 1010.71,-137.5 1010.71,-116.5 961.709,-116.5"/>
<text text-anchor="middle" x="986.209" y="-124.5" font-family="Helvetica,sans-Serif" font-size="10.00">istream</text>
</g>
<!-- Node32&#45;&gt;Node34 -->
<g id="edge136" class="edge"><title>Node32&#45;&gt;Node34</title>
<path fill="none" stroke="midnightblue" d="M1130.19,-181.412C1100.17,-170.067 1052.5,-152.053 1020.32,-139.891"/>
<polygon fill="midnightblue" stroke="midnightblue" points="1021.46,-136.579 1010.87,-136.318 1018.98,-143.127 1021.46,-136.579"/>
</g>
<!-- Node35&#45;&gt;Node13 -->
<g id="edge184" class="edge"><title>Node35&#45;&gt;Node13</title>
<path fill="none" stroke="midnightblue" d="M1564.59,-181.495C1554.3,-179.027 1543.37,-176.413 1533.21,-174 1477.66,-160.808 1413.39,-145.738 1373.02,-136.296"/>
<polygon fill="midnightblue" stroke="midnightblue" points="1373.57,-132.832 1363.04,-133.963 1371.98,-139.648 1373.57,-132.832"/>
</g>
<!-- Node35&#45;&gt;Node14 -->
<g id="edge178" class="edge"><title>Node35&#45;&gt;Node14</title>
<path fill="none" stroke="midnightblue" d="M1639.91,-181.454C1649.26,-178.669 1659.57,-175.911 1669.21,-174 1744.39,-159.093 1958.9,-193.06 2012.21,-138 2024.31,-125.502 2024.32,-105.058 2022.04,-89.6606"/>
<polygon fill="midnightblue" stroke="midnightblue" points="2025.42,-88.7006 2020.12,-79.5266 2018.55,-90.0032 2025.42,-88.7006"/>
</g>
<!-- Node35&#45;&gt;Node18 -->
<g id="edge176" class="edge"><title>Node35&#45;&gt;Node18</title>
<path fill="none" stroke="midnightblue" d="M1655.34,-181.598C1670.26,-178.676 1686.86,-175.806 1702.21,-174 2054.36,-132.549 2146.3,-172.464 2499.21,-138 2511.25,-136.825 2524.33,-135.021 2536.05,-133.212"/>
<polygon fill="midnightblue" stroke="midnightblue" points="2536.61,-136.667 2545.94,-131.637 2535.51,-129.754 2536.61,-136.667"/>
</g>
<!-- Node35&#45;&gt;Node19 -->
<g id="edge180" class="edge"><title>Node35&#45;&gt;Node19</title>
<path fill="none" stroke="midnightblue" d="M1655.33,-181.547C1670.25,-178.623 1686.86,-175.765 1702.21,-174 2102.11,-128.018 2206.18,-172.798 2607.21,-138 2626.39,-136.335 2647.97,-133.398 2664.18,-130.977"/>
<polygon fill="midnightblue" stroke="midnightblue" points="2665.09,-134.378 2674.44,-129.405 2664.03,-127.459 2665.09,-134.378"/>
</g>
<!-- Node35&#45;&gt;Node21 -->
<g id="edge186" class="edge"><title>Node35&#45;&gt;Node21</title>
<path fill="none" stroke="midnightblue" d="M1655.35,-181.703C1670.27,-178.786 1686.87,-175.893 1702.21,-174 1842.92,-156.629 2203.37,-178.628 2339.21,-138 2357.91,-132.408 2359.42,-124.016 2377.21,-116 2410.56,-100.973 2450.22,-88.1743 2478.97,-79.7451"/>
<polygon fill="midnightblue" stroke="midnightblue" points="2480.02,-83.0855 2488.66,-76.9493 2478.08,-76.3601 2480.02,-83.0855"/>
</g>
<!-- Node36 -->
<g id="node109" class="node"><title>Node36</title>
<a xlink:href="string_8h.html" target="_top" xlink:title="base/std_ext/string.h">
<polygon fill="white" stroke="black" points="1862.21,-116.5 1862.21,-137.5 1970.21,-137.5 1970.21,-116.5 1862.21,-116.5"/>
<text text-anchor="middle" x="1916.21" y="-124.5" font-family="Helvetica,sans-Serif" font-size="10.00">base/std_ext/string.h</text>
</a>
</g>
<!-- Node35&#45;&gt;Node36 -->
<g id="edge144" class="edge"><title>Node35&#45;&gt;Node36</title>
<path fill="none" stroke="midnightblue" d="M1641.61,-181.497C1650.53,-178.87 1660.19,-176.182 1669.21,-174 1703.12,-165.792 1790.98,-149.509 1852.2,-138.436"/>
<polygon fill="midnightblue" stroke="midnightblue" points="1852.95,-141.859 1862.17,-136.637 1851.7,-134.97 1852.95,-141.859"/>
</g>
<!-- Node37 -->
<g id="node115" class="node"><title>Node37</title>
<a xlink:href="misc_8h.html" target="_top" xlink:title="base/std_ext/misc.h">
<polygon fill="white" stroke="black" points="2225.71,-116.5 2225.71,-137.5 2330.71,-137.5 2330.71,-116.5 2225.71,-116.5"/>
<text text-anchor="middle" x="2278.21" y="-124.5" font-family="Helvetica,sans-Serif" font-size="10.00">base/std_ext/misc.h</text>
</a>
</g>
<!-- Node35&#45;&gt;Node37 -->
<g id="edge154" class="edge"><title>Node35&#45;&gt;Node37</title>
<path fill="none" stroke="midnightblue" d="M1655.38,-181.936C1670.3,-179.03 1686.9,-176.085 1702.21,-174 1799.97,-160.691 2087.49,-140.091 2215.5,-131.258"/>
<polygon fill="midnightblue" stroke="midnightblue" points="2215.8,-134.745 2225.54,-130.567 2215.32,-127.762 2215.8,-134.745"/>
</g>
<!-- Node39 -->
<g id="node122" class="node"><title>Node39</title>
<polygon fill="white" stroke="#bfbfbf" points="1417.71,-116.5 1417.71,-137.5 1464.71,-137.5 1464.71,-116.5 1417.71,-116.5"/>
<text text-anchor="middle" x="1441.21" y="-124.5" font-family="Helvetica,sans-Serif" font-size="10.00">TFile.h</text>
</g>
<!-- Node35&#45;&gt;Node39 -->
<g id="edge164" class="edge"><title>Node35&#45;&gt;Node39</title>
<path fill="none" stroke="midnightblue" d="M1581.01,-181.412C1551.9,-170.083 1505.71,-152.106 1474.46,-139.944"/>
<polygon fill="midnightblue" stroke="midnightblue" points="1475.47,-136.581 1464.89,-136.216 1472.94,-143.104 1475.47,-136.581"/>
</g>
<!-- Node40 -->
<g id="node124" class="node"><title>Node40</title>
<polygon fill="white" stroke="#bfbfbf" points="1481.71,-116.5 1481.71,-137.5 1552.71,-137.5 1552.71,-116.5 1481.71,-116.5"/>
<text text-anchor="middle" x="1517.21" y="-124.5" font-family="Helvetica,sans-Serif" font-size="10.00">TDirectory.h</text>
</g>
<!-- Node35&#45;&gt;Node40 -->
<g id="edge166" class="edge"><title>Node35&#45;&gt;Node40</title>
<path fill="none" stroke="midnightblue" d="M1593.18,-181.267C1578.87,-171.044 1557.11,-155.504 1540.55,-143.67"/>
<polygon fill="midnightblue" stroke="midnightblue" points="1542.13,-140.498 1531.96,-137.534 1538.06,-146.194 1542.13,-140.498"/>
</g>
<!-- Node41 -->
<g id="node126" class="node"><title>Node41</title>
<polygon fill="white" stroke="#bfbfbf" points="1570.21,-116.5 1570.21,-137.5 1622.21,-137.5 1622.21,-116.5 1570.21,-116.5"/>
<text text-anchor="middle" x="1596.21" y="-124.5" font-family="Helvetica,sans-Serif" font-size="10.00">TError.h</text>
</g>
<!-- Node35&#45;&gt;Node41 -->
<g id="edge168" class="edge"><title>Node35&#45;&gt;Node41</title>
<path fill="none" stroke="midnightblue" d="M1606.23,-181.267C1604.53,-172.085 1602.05,-158.615 1599.97,-147.392"/>
<polygon fill="midnightblue" stroke="midnightblue" points="1603.41,-146.732 1598.15,-137.534 1596.53,-148.003 1603.41,-146.732"/>
</g>
<!-- Node42 -->
<g id="node128" class="node"><title>Node42</title>
<polygon fill="white" stroke="#bfbfbf" points="1639.71,-116.5 1639.71,-137.5 1686.71,-137.5 1686.71,-116.5 1639.71,-116.5"/>
<text text-anchor="middle" x="1663.21" y="-124.5" font-family="Helvetica,sans-Serif" font-size="10.00">TList.h</text>
</g>
<!-- Node35&#45;&gt;Node42 -->
<g id="edge170" class="edge"><title>Node35&#45;&gt;Node42</title>
<path fill="none" stroke="midnightblue" d="M1617.29,-181.267C1625.54,-171.517 1637.88,-156.932 1647.69,-145.336"/>
<polygon fill="midnightblue" stroke="midnightblue" points="1650.51,-147.428 1654.3,-137.534 1645.16,-142.907 1650.51,-147.428"/>
</g>
<!-- Node43 -->
<g id="node130" class="node"><title>Node43</title>
<polygon fill="white" stroke="#bfbfbf" points="1704.21,-116.5 1704.21,-137.5 1778.21,-137.5 1778.21,-116.5 1704.21,-116.5"/>
<text text-anchor="middle" x="1741.21" y="-124.5" font-family="Helvetica,sans-Serif" font-size="10.00">TCollection.h</text>
</g>
<!-- Node35&#45;&gt;Node43 -->
<g id="edge172" class="edge"><title>Node35&#45;&gt;Node43</title>
<path fill="none" stroke="midnightblue" d="M1629.87,-181.412C1651.71,-170.741 1685.61,-154.172 1710.27,-142.12"/>
<polygon fill="midnightblue" stroke="midnightblue" points="1712.11,-145.119 1719.55,-137.584 1709.03,-138.83 1712.11,-145.119"/>
</g>
<!-- Node44 -->
<g id="node132" class="node"><title>Node44</title>
<polygon fill="white" stroke="#bfbfbf" points="1796.21,-116.5 1796.21,-137.5 1844.21,-137.5 1844.21,-116.5 1796.21,-116.5"/>
<text text-anchor="middle" x="1820.21" y="-124.5" font-family="Helvetica,sans-Serif" font-size="10.00">TKey.h</text>
</g>
<!-- Node35&#45;&gt;Node44 -->
<g id="edge174" class="edge"><title>Node35&#45;&gt;Node44</title>
<path fill="none" stroke="midnightblue" d="M1643.63,-181.445C1683.91,-169.425 1748.09,-150.198 1786.1,-138.285"/>
<polygon fill="midnightblue" stroke="midnightblue" points="1787.6,-141.48 1796.08,-135.13 1785.49,-134.805 1787.6,-141.48"/>
</g>
<!-- Node45 -->
<g id="node137" class="node"><title>Node45</title>
<polygon fill="white" stroke="#bfbfbf" points="2064.21,-116.5 2064.21,-137.5 2094.21,-137.5 2094.21,-116.5 2064.21,-116.5"/>
<text text-anchor="middle" x="2079.21" y="-124.5" font-family="Helvetica,sans-Serif" font-size="10.00">set</text>
</g>
<!-- Node35&#45;&gt;Node45 -->
<g id="edge182" class="edge"><title>Node35&#45;&gt;Node45</title>
<path fill="none" stroke="midnightblue" d="M1639.58,-181.484C1649.01,-178.666 1659.45,-175.882 1669.21,-174 1836.22,-141.782 1884.54,-176.507 2050.21,-138 2051.65,-137.665 2053.12,-137.275 2054.59,-136.845"/>
<polygon fill="midnightblue" stroke="midnightblue" points="2055.76,-140.144 2064.1,-133.608 2053.5,-133.518 2055.76,-140.144"/>
</g>
<!-- Node36&#45;&gt;Node11 -->
<g id="edge152" class="edge"><title>Node36&#45;&gt;Node11</title>
<path fill="none" stroke="midnightblue" d="M1861.98,-117.075C1859.02,-116.676 1856.08,-116.313 1853.21,-116 1800.89,-110.297 997.703,-77.3719 824.83,-70.3266"/>
<polygon fill="midnightblue" stroke="midnightblue" points="824.725,-66.8195 814.591,-69.9096 824.44,-73.8137 824.725,-66.8195"/>
</g>
<!-- Node36&#45;&gt;Node14 -->
<g id="edge146" class="edge"><title>Node36&#45;&gt;Node14</title>
<path fill="none" stroke="midnightblue" d="M1934.73,-116.362C1950.11,-107.532 1972.2,-94.844 1989.66,-84.8224"/>
<polygon fill="midnightblue" stroke="midnightblue" points="1991.87,-87.5857 1998.8,-79.5707 1988.39,-81.5154 1991.87,-87.5857"/>
</g>
<!-- Node36&#45;&gt;Node22 -->
<g id="edge150" class="edge"><title>Node36&#45;&gt;Node22</title>
<path fill="none" stroke="midnightblue" d="M1868.58,-116.497C1817.8,-105.298 1738.38,-87.783 1691.5,-77.4435"/>
<polygon fill="midnightblue" stroke="midnightblue" points="1691.96,-73.9624 1681.44,-75.2266 1690.45,-80.7981 1691.96,-73.9624"/>
</g>
<!-- Node36&#45;&gt;Node28 -->
<g id="edge148" class="edge"><title>Node36&#45;&gt;Node28</title>
<path fill="none" stroke="midnightblue" d="M1861.98,-117.005C1859.02,-116.623 1856.08,-116.284 1853.21,-116 1191.79,-50.6602 1021.18,-127.086 358.209,-80 339.541,-78.6741 318.858,-76.3166 301.746,-74.1233"/>
<polygon fill="midnightblue" stroke="midnightblue" points="301.975,-70.6232 291.604,-72.7895 301.062,-77.5635 301.975,-70.6232"/>
</g>
<!-- Node37&#45;&gt;Node7 -->
<g id="edge160" class="edge"><title>Node37&#45;&gt;Node7</title>
<path fill="none" stroke="midnightblue" d="M2251.25,-116.45C2208.54,-100.321 2122.36,-70.1272 2046.21,-58 1870,-29.9375 547.76,-13.8886 323.487,-11.355"/>
<polygon fill="midnightblue" stroke="midnightblue" points="323.4,-7.85388 313.362,-11.2414 323.322,-14.8534 323.4,-7.85388"/>
</g>
<!-- Node37&#45;&gt;Node21 -->
<g id="edge158" class="edge"><title>Node37&#45;&gt;Node21</title>
<path fill="none" stroke="midnightblue" d="M2321.67,-116.497C2366.44,-105.677 2435.6,-88.9627 2478.82,-78.5188"/>
<polygon fill="midnightblue" stroke="midnightblue" points="2479.79,-81.8854 2488.69,-76.1342 2478.15,-75.0812 2479.79,-81.8854"/>
</g>
<!-- Node37&#45;&gt;Node22 -->
<g id="edge156" class="edge"><title>Node37&#45;&gt;Node22</title>
<path fill="none" stroke="midnightblue" d="M2225.46,-122.105C2102.42,-110.687 1798.76,-82.5072 1691.49,-72.5528"/>
<polygon fill="midnightblue" stroke="midnightblue" points="1691.72,-69.0593 1681.44,-71.6202 1691.08,-76.0294 1691.72,-69.0593"/>
</g>
<!-- Node38 -->
<g id="node120" class="node"><title>Node38</title>
<polygon fill="white" stroke="#bfbfbf" points="2251.71,-58.5 2251.71,-79.5 2304.71,-79.5 2304.71,-58.5 2251.71,-58.5"/>
<text text-anchor="middle" x="2278.21" y="-66.5" font-family="Helvetica,sans-Serif" font-size="10.00">cxxabi.h</text>
</g>
<!-- Node37&#45;&gt;Node38 -->
<g id="edge162" class="edge"><title>Node37&#45;&gt;Node38</title>
<path fill="none" stroke="midnightblue" d="M2278.21,-116.362C2278.21,-108.922 2278.21,-98.7427 2278.21,-89.7276"/>
<polygon fill="midnightblue" stroke="midnightblue" points="2281.71,-89.5706 2278.21,-79.5707 2274.71,-89.5707 2281.71,-89.5706"/>
</g>
<!-- Node46&#45;&gt;Node12 -->
<g id="edge204" class="edge"><title>Node46&#45;&gt;Node12</title>
<path fill="none" stroke="midnightblue" d="M1737.44,-263.548C1601.92,-261.339 1057.7,-250.091 892.209,-210 831.461,-195.283 765.759,-162.093 730.052,-142.433"/>
<polygon fill="midnightblue" stroke="midnightblue" points="731.661,-139.323 721.223,-137.509 728.252,-145.436 731.661,-139.323"/>
</g>
<!-- Node46&#45;&gt;Node13 -->
<g id="edge206" class="edge"><title>Node46&#45;&gt;Node13</title>
<path fill="none" stroke="midnightblue" d="M1737.49,-257.513C1695.32,-248.338 1617.31,-230.398 1552.21,-210 1485.8,-189.192 1410.29,-159.104 1367.54,-141.448"/>
<polygon fill="midnightblue" stroke="midnightblue" points="1368.74,-138.158 1358.16,-137.558 1366.06,-144.623 1368.74,-138.158"/>
</g>
<!-- Node46&#45;&gt;Node15 -->
<g id="edge200" class="edge"><title>Node46&#45;&gt;Node15</title>
<path fill="none" stroke="midnightblue" d="M1737.58,-260.599C1680.44,-253.859 1553.97,-237.072 1450.21,-210 1378.01,-191.165 1296.49,-159.663 1251.55,-141.365"/>
<polygon fill="midnightblue" stroke="midnightblue" points="1252.85,-138.114 1242.27,-137.56 1250.19,-144.591 1252.85,-138.114"/>
</g>
<!-- Node46&#45;&gt;Node19 -->
<g id="edge208" class="edge"><title>Node46&#45;&gt;Node19</title>
<path fill="none" stroke="midnightblue" d="M1798.93,-259.789C1863.83,-250.863 2019.68,-229.276 2150.21,-210 2348.84,-180.668 2588.27,-142.975 2664.59,-130.902"/>
<polygon fill="midnightblue" stroke="midnightblue" points="2665.31,-134.331 2674.64,-129.311 2664.22,-127.418 2665.31,-134.331"/>
</g>
<!-- Node46&#45;&gt;Node27 -->
<g id="edge210" class="edge"><title>Node46&#45;&gt;Node27</title>
<path fill="none" stroke="midnightblue" d="M1737.4,-263.304C1605.9,-260.167 1078.76,-245.902 647.209,-210 607.175,-206.669 561.417,-200.995 530.656,-196.907"/>
<polygon fill="midnightblue" stroke="midnightblue" points="530.812,-193.397 520.435,-195.534 529.88,-200.334 530.812,-193.397"/>
</g>
<!-- Node47 -->
<g id="node143" class="node"><title>Node47</title>
<polygon fill="white" stroke="#bfbfbf" points="1767.21,-181.5 1767.21,-202.5 1823.21,-202.5 1823.21,-181.5 1767.21,-181.5"/>
<text text-anchor="middle" x="1795.21" y="-189.5" font-family="Helvetica,sans-Serif" font-size="10.00">Rtypes.h</text>
</g>
<!-- Node46&#45;&gt;Node47 -->
<g id="edge190" class="edge"><title>Node46&#45;&gt;Node47</title>
<path fill="none" stroke="midnightblue" d="M1772.19,-253.376C1776.22,-242.635 1782.55,-225.761 1787.55,-212.422"/>
<polygon fill="midnightblue" stroke="midnightblue" points="1790.97,-213.26 1791.21,-202.667 1784.42,-210.802 1790.97,-213.26"/>
</g>
<!-- Node48 -->
<g id="node145" class="node"><title>Node48</title>
<a xlink:href="base_2std__ext_2_time_8h.html" target="_top" xlink:title="base/std_ext/time.h">
<polygon fill="white" stroke="black" points="1840.71,-181.5 1840.71,-202.5 1943.71,-202.5 1943.71,-181.5 1840.71,-181.5"/>
<text text-anchor="middle" x="1892.21" y="-189.5" font-family="Helvetica,sans-Serif" font-size="10.00">base/std_ext/time.h</text>
</a>
</g>
<!-- Node46&#45;&gt;Node48 -->
<g id="edge192" class="edge"><title>Node46&#45;&gt;Node48</title>
<path fill="none" stroke="midnightblue" d="M1786.51,-253.376C1807.2,-241.359 1841.12,-221.665 1864.94,-207.834"/>
<polygon fill="midnightblue" stroke="midnightblue" points="1866.95,-210.716 1873.84,-202.667 1863.43,-204.662 1866.95,-210.716"/>
</g>
<!-- Node50 -->
<g id="node150" class="node"><title>Node50</title>
<polygon fill="white" stroke="#bfbfbf" points="2449.71,-116.5 2449.71,-137.5 2490.71,-137.5 2490.71,-116.5 2449.71,-116.5"/>
<text text-anchor="middle" x="2470.21" y="-124.5" font-family="Helvetica,sans-Serif" font-size="10.00">ctime</text>
</g>
<!-- Node46&#45;&gt;Node50 -->
<g id="edge212" class="edge"><title>Node46&#45;&gt;Node50</title>
<path fill="none" stroke="midnightblue" d="M1798.97,-256.55C1835.91,-247.246 1899.47,-230.085 1952.21,-210 1987.14,-196.697 1992.13,-183.777 2028.21,-174 2202.92,-126.65 2259.6,-177.221 2439.72,-137.836"/>
<polygon fill="midnightblue" stroke="midnightblue" points="2440.52,-141.243 2449.51,-135.634 2438.99,-134.414 2440.52,-141.243"/>
</g>
<!-- Node51 -->
<g id="node153" class="node"><title>Node51</title>
<polygon fill="white" stroke="#bfbfbf" points="1711.21,-181.5 1711.21,-202.5 1749.21,-202.5 1749.21,-181.5 1711.21,-181.5"/>
<text text-anchor="middle" x="1730.21" y="-189.5" font-family="Helvetica,sans-Serif" font-size="10.00">tuple</text>
</g>
<!-- Node46&#45;&gt;Node51 -->
<g id="edge202" class="edge"><title>Node46&#45;&gt;Node51</title>
<path fill="none" stroke="midnightblue" d="M1762.6,-253.376C1756.82,-242.422 1747.67,-225.09 1740.57,-211.634"/>
<polygon fill="midnightblue" stroke="midnightblue" points="1743.6,-209.878 1735.84,-202.667 1737.41,-213.145 1743.6,-209.878"/>
</g>
<!-- Node48&#45;&gt;Node36 -->
<g id="edge194" class="edge"><title>Node48&#45;&gt;Node36</title>
<path fill="none" stroke="midnightblue" d="M1896.17,-181.267C1899.6,-171.991 1904.64,-158.336 1908.81,-147.045"/>
<polygon fill="midnightblue" stroke="midnightblue" points="1912.14,-148.127 1912.32,-137.534 1905.57,-145.702 1912.14,-148.127"/>
</g>
<!-- Node49 -->
<g id="node148" class="node"><title>Node49</title>
<polygon fill="white" stroke="#bfbfbf" points="2386.21,-116.5 2386.21,-137.5 2432.21,-137.5 2432.21,-116.5 2386.21,-116.5"/>
<text text-anchor="middle" x="2409.21" y="-124.5" font-family="Helvetica,sans-Serif" font-size="10.00">cstring</text>
</g>
<!-- Node48&#45;&gt;Node49 -->
<g id="edge196" class="edge"><title>Node48&#45;&gt;Node49</title>
<path fill="none" stroke="midnightblue" d="M1925.67,-181.468C1935.72,-178.649 1946.84,-175.87 1957.21,-174 2139.41,-141.157 2190.33,-172.556 2372.21,-138 2373.47,-137.761 2374.75,-137.496 2376.03,-137.211"/>
<polygon fill="midnightblue" stroke="midnightblue" points="2377.06,-140.559 2385.9,-134.708 2375.34,-133.774 2377.06,-140.559"/>
</g>
<!-- Node48&#45;&gt;Node50 -->
<g id="edge198" class="edge"><title>Node48&#45;&gt;Node50</title>
<path fill="none" stroke="midnightblue" d="M1925.32,-181.482C1935.46,-178.628 1946.71,-175.826 1957.21,-174 2166.51,-137.599 2228.75,-183.311 2439.69,-137.829"/>
<polygon fill="midnightblue" stroke="midnightblue" points="2440.5,-141.233 2449.52,-135.667 2439,-134.397 2440.5,-141.233"/>
</g>
<!-- Node52&#45;&gt;Node14 -->
<g id="edge224" class="edge"><title>Node52&#45;&gt;Node14</title>
<path fill="none" stroke="midnightblue" d="M2348.71,-325.103C2318.24,-290.682 2219.16,-182.623 2119.21,-116 2112.75,-111.695 2074.87,-94.5632 2047.15,-82.2257"/>
<polygon fill="midnightblue" stroke="midnightblue" points="2048.39,-78.9501 2037.84,-78.0906 2045.55,-85.3478 2048.39,-78.9501"/>
</g>
<!-- Node52&#45;&gt;Node18 -->
<g id="edge226" class="edge"><title>Node52&#45;&gt;Node18</title>
<path fill="none" stroke="midnightblue" d="M2356.24,-325.248C2351.66,-296.571 2343.48,-217.498 2383.21,-174 2388.43,-168.283 2482.96,-146.68 2536.31,-134.855"/>
<polygon fill="midnightblue" stroke="midnightblue" points="2537.07,-138.272 2546.08,-132.697 2535.56,-131.437 2537.07,-138.272"/>
</g>
<!-- Node52&#45;&gt;Node23 -->
<g id="edge228" class="edge"><title>Node52&#45;&gt;Node23</title>
<path fill="none" stroke="midnightblue" d="M2407.4,-327.95C2499.97,-312.802 2697.32,-280.509 2770.31,-268.565"/>
<polygon fill="midnightblue" stroke="midnightblue" points="2771.23,-271.961 2780.54,-266.892 2770.1,-265.052 2771.23,-271.961"/>
</g>
<!-- Node52&#45;&gt;Node28 -->
<g id="edge232" class="edge"><title>Node52&#45;&gt;Node28</title>
<path fill="none" stroke="midnightblue" d="M2329.67,-325.431C2320.41,-322.463 2309.99,-319.609 2300.21,-318 1672.44,-214.735 1496.63,-387.351 869.209,-282 712.846,-255.745 683.459,-210.68 529.209,-174 431.111,-150.673 388.293,-195.133 305.209,-138 288.269,-126.351 277.523,-105.004 271.485,-89.127"/>
<polygon fill="midnightblue" stroke="midnightblue" points="274.775,-87.9316 268.179,-79.6403 268.165,-90.2351 274.775,-87.9316"/>
</g>
<!-- Node52&#45;&gt;Node45 -->
<g id="edge230" class="edge"><title>Node52&#45;&gt;Node45</title>
<path fill="none" stroke="midnightblue" d="M2324.2,-325.424C2243.51,-300.001 2045.88,-235.665 2028.21,-210 2019.13,-196.822 2021.79,-188.654 2028.21,-174 2033.93,-160.948 2045.26,-149.918 2055.79,-141.83"/>
<polygon fill="midnightblue" stroke="midnightblue" points="2057.85,-144.66 2063.95,-135.993 2053.78,-138.969 2057.85,-144.66"/>
</g>
<!-- Node53&#45;&gt;Node11 -->
<g id="edge256" class="edge"><title>Node53&#45;&gt;Node11</title>
<path fill="none" stroke="midnightblue" d="M1041.04,-253.454C988.617,-243.127 916.196,-226.571 892.209,-210 846.954,-178.736 815.241,-119.966 800.877,-89.1"/>
<polygon fill="midnightblue" stroke="midnightblue" points="803.976,-87.46 796.676,-79.7822 797.595,-90.3371 803.976,-87.46"/>
</g>
<!-- Node53&#45;&gt;Node32 -->
<g id="edge238" class="edge"><title>Node53&#45;&gt;Node32</title>
<path fill="none" stroke="midnightblue" d="M1107.91,-253.376C1117.15,-242.103 1131.92,-224.075 1143.07,-210.468"/>
<polygon fill="midnightblue" stroke="midnightblue" points="1145.84,-212.621 1149.47,-202.667 1140.42,-208.184 1145.84,-212.621"/>
</g>
<!-- Node54 -->
<g id="node175" class="node"><title>Node54</title>
<a xlink:href="printable_8h.html" target="_top" xlink:title="base/std_ext/printable.h">
<polygon fill="white" stroke="black" points="979.709,-181.5 979.709,-202.5 1100.71,-202.5 1100.71,-181.5 979.709,-181.5"/>
<text text-anchor="middle" x="1040.21" y="-189.5" font-family="Helvetica,sans-Serif" font-size="10.00">base/std_ext/printable.h</text>
</a>
</g>
<!-- Node53&#45;&gt;Node54 -->
<g id="edge240" class="edge"><title>Node53&#45;&gt;Node54</title>
<path fill="none" stroke="midnightblue" d="M1090.5,-253.376C1081.27,-242.103 1066.49,-224.075 1055.34,-210.468"/>
<polygon fill="midnightblue" stroke="midnightblue" points="1058,-208.184 1048.95,-202.667 1052.58,-212.621 1058,-208.184"/>
</g>
<!-- Node54&#45;&gt;Node8 -->
<g id="edge254" class="edge"><title>Node54&#45;&gt;Node8</title>
<path fill="none" stroke="midnightblue" d="M979.411,-188.155C809.57,-177.329 340.376,-146.806 308.209,-138 265.903,-126.419 221.189,-101.662 194.24,-85.1709"/>
<polygon fill="midnightblue" stroke="midnightblue" points="195.821,-82.0322 185.482,-79.7179 192.121,-87.9745 195.821,-82.0322"/>
</g>
<!-- Node54&#45;&gt;Node15 -->
<g id="edge252" class="edge"><title>Node54&#45;&gt;Node15</title>
<path fill="none" stroke="midnightblue" d="M1069.04,-181.412C1098.87,-170.458 1145.63,-153.288 1178.62,-141.17"/>
<polygon fill="midnightblue" stroke="midnightblue" points="1180.21,-144.316 1188.39,-137.584 1177.8,-137.745 1180.21,-144.316"/>
</g>
<!-- Node55 -->
<g id="node177" class="node"><title>Node55</title>
<a xlink:href="container_8h.html" target="_top" xlink:title="container.h">
<polygon fill="white" stroke="black" points="1065.71,-116.5 1065.71,-137.5 1130.71,-137.5 1130.71,-116.5 1065.71,-116.5"/>
<text text-anchor="middle" x="1098.21" y="-124.5" font-family="Helvetica,sans-Serif" font-size="10.00">container.h</text>
</a>
</g>
<!-- Node54&#45;&gt;Node55 -->
<g id="edge242" class="edge"><title>Node54&#45;&gt;Node55</title>
<path fill="none" stroke="midnightblue" d="M1049.79,-181.267C1058.57,-171.423 1071.75,-156.648 1082.15,-145"/>
<polygon fill="midnightblue" stroke="midnightblue" points="1084.76,-147.325 1088.81,-137.534 1079.54,-142.665 1084.76,-147.325"/>
</g>
<!-- Node55&#45;&gt;Node11 -->
<g id="edge244" class="edge"><title>Node55&#45;&gt;Node11</title>
<path fill="none" stroke="midnightblue" d="M1065.59,-118.962C1061.1,-117.926 1056.55,-116.91 1052.21,-116 970.651,-98.8909 873.912,-82.3955 824.611,-74.2589"/>
<polygon fill="midnightblue" stroke="midnightblue" points="824.984,-70.7734 814.549,-72.6059 823.849,-77.6808 824.984,-70.7734"/>
</g>
<!-- Node55&#45;&gt;Node14 -->
<g id="edge250" class="edge"><title>Node55&#45;&gt;Node14</title>
<path fill="none" stroke="midnightblue" d="M1130.81,-121.845C1145.03,-119.757 1161.91,-117.491 1177.21,-116 1492.7,-85.2618 1876.97,-72.8623 1986.66,-69.7991"/>
<polygon fill="midnightblue" stroke="midnightblue" points="1986.79,-73.2969 1996.69,-69.5238 1986.6,-66.2995 1986.79,-73.2969"/>
</g>
<!-- Node55&#45;&gt;Node22 -->
<g id="edge246" class="edge"><title>Node55&#45;&gt;Node22</title>
<path fill="none" stroke="midnightblue" d="M1130.84,-122.158C1145.07,-120.125 1161.95,-117.815 1177.21,-116 1339.58,-96.6874 1533.78,-79.2777 1614.79,-72.2695"/>
<polygon fill="midnightblue" stroke="midnightblue" points="1615.34,-75.7351 1625,-71.3892 1614.74,-68.761 1615.34,-75.7351"/>
</g>
<!-- Node56 -->
<g id="node181" class="node"><title>Node56</title>
<polygon fill="white" stroke="#bfbfbf" points="1072.71,-58.5 1072.71,-79.5 1123.71,-79.5 1123.71,-58.5 1072.71,-58.5"/>
<text text-anchor="middle" x="1098.21" y="-66.5" font-family="Helvetica,sans-Serif" font-size="10.00">numeric</text>
</g>
<!-- Node55&#45;&gt;Node56 -->
<g id="edge248" class="edge"><title>Node55&#45;&gt;Node56</title>
<path fill="none" stroke="midnightblue" d="M1098.21,-116.362C1098.21,-108.922 1098.21,-98.7427 1098.21,-89.7276"/>
<polygon fill="midnightblue" stroke="midnightblue" points="1101.71,-89.5706 1098.21,-79.5707 1094.71,-89.5707 1101.71,-89.5706"/>
</g>
</g>
</svg>
