<?xml version="1.0" encoding="UTF-8" standalone="no"?>
<!DOCTYPE svg PUBLIC "-//W3C//DTD SVG 1.1//EN"
 "http://www.w3.org/Graphics/SVG/1.1/DTD/svg11.dtd">
<!-- Generated by graphviz version 2.26.3 (20100126.1600)
 -->
<!-- Title: src/expconfig/detectors/Cherenkov.h Pages: 1 -->
<svg width="126pt" height="188pt"
 viewBox="0.00 0.00 126.00 188.00" xmlns="http://www.w3.org/2000/svg" xmlns:xlink="http://www.w3.org/1999/xlink">
<g id="graph1" class="graph" transform="scale(1 1) rotate(0) translate(4 184)">
<title>src/expconfig/detectors/Cherenkov.h</title>
<polygon fill="white" stroke="white" points="-4,5 -4,-184 123,-184 123,5 -4,5"/>
<!-- Node56 -->
<g id="node1" class="node"><title>Node56</title>
<polygon fill="#bfbfbf" stroke="black" points="-0.5,-145 -0.5,-179 118.5,-179 118.5,-145 -0.5,-145"/>
<text text-anchor="start" x="7.5" y="-166" font-family="Helvetica,sans-Serif" font-size="10.00">src/expconfig/detectors</text>
<text text-anchor="middle" x="59" y="-153" font-family="Helvetica,sans-Serif" font-size="10.00">/Cherenkov.h</text>
</g>
<!-- Node57 -->
<g id="node3" class="node"><title>Node57</title>
<a xlink:href="_setup__2017__03_8h.html" target="_top" xlink:title="src/expconfig/setups\l/Setup_2017_03.h">
<polygon fill="white" stroke="black" points="5.5,-73 5.5,-107 112.5,-107 112.5,-73 5.5,-73"/>
<text text-anchor="start" x="13.5" y="-94" font-family="Helvetica,sans-Serif" font-size="10.00">src/expconfig/setups</text>
<text text-anchor="middle" x="59" y="-81" font-family="Helvetica,sans-Serif" font-size="10.00">/Setup_2017_03.h</text>
</a>
</g>
<!-- Node56&#45;&gt;Node57 -->
<g id="edge2" class="edge"><title>Node56&#45;&gt;Node57</title>
<path fill="none" stroke="midnightblue" d="M59,-134.719C59,-125.572 59,-115.625 59,-107.441"/>
<polygon fill="midnightblue" stroke="midnightblue" points="55.5001,-134.937 59,-144.937 62.5001,-134.937 55.5001,-134.937"/>
</g>
<!-- Node58 -->
<g id="node5" class="node"><title>Node58</title>
<a xlink:href="_setup__2017__03_8cc.html" target="_top" xlink:title="src/expconfig/setups\l/Setup_2017_03.cc">
<polygon fill="white" stroke="black" points="5.5,-1 5.5,-35 112.5,-35 112.5,-1 5.5,-1"/>
<text text-anchor="start" x="13.5" y="-22" font-family="Helvetica,sans-Serif" font-size="10.00">src/expconfig/setups</text>
<text text-anchor="middle" x="59" y="-9" font-family="Helvetica,sans-Serif" font-size="10.00">/Setup_2017_03.cc</text>
</a>
</g>
<!-- Node57&#45;&gt;Node58 -->
<g id="edge4" class="edge"><title>Node57&#45;&gt;Node58</title>
<path fill="none" stroke="midnightblue" d="M59,-62.7193C59,-53.572 59,-43.6255 59,-35.4407"/>
<polygon fill="midnightblue" stroke="midnightblue" points="55.5001,-62.937 59,-72.937 62.5001,-62.937 55.5001,-62.937"/>
</g>
</g>
</svg>
