<?xml version="1.0" encoding="UTF-8" standalone="no"?>
<!DOCTYPE svg PUBLIC "-//W3C//DTD SVG 1.1//EN"
 "http://www.w3.org/Graphics/SVG/1.1/DTD/svg11.dtd">
<!-- Generated by graphviz version 2.26.3 (20100126.1600)
 -->
<!-- Title: src/analysis/slowcontrol/variables/Clocks.h Pages: 1 -->
<svg width="1854pt" height="200pt"
 viewBox="0.00 0.00 1854.00 200.00" xmlns="http://www.w3.org/2000/svg" xmlns:xlink="http://www.w3.org/1999/xlink">
<g id="graph1" class="graph" transform="scale(1 1) rotate(0) translate(4 196)">
<title>src/analysis/slowcontrol/variables/Clocks.h</title>
<polygon fill="white" stroke="white" points="-4,5 -4,-196 1851,-196 1851,5 -4,5"/>
<!-- Node58 -->
<g id="node1" class="node"><title>Node58</title>
<polygon fill="#bfbfbf" stroke="black" points="951,-157 951,-191 1073,-191 1073,-157 951,-157"/>
<text text-anchor="start" x="959" y="-178" font-family="Helvetica,sans-Serif" font-size="10.00">src/analysis/slowcontrol</text>
<text text-anchor="middle" x="1012" y="-165" font-family="Helvetica,sans-Serif" font-size="10.00">/variables/Clocks.h</text>
</g>
<!-- Node59 -->
<g id="node3" class="node"><title>Node59</title>
<a xlink:href="_slow_control_variables_8h.html" target="_top" xlink:title="src/analysis/slowcontrol\l/SlowControlVariables.h">
<polygon fill="white" stroke="black" points="881,-85 881,-119 1003,-119 1003,-85 881,-85"/>
<text text-anchor="start" x="889" y="-106" font-family="Helvetica,sans-Serif" font-size="10.00">src/analysis/slowcontrol</text>
<text text-anchor="middle" x="942" y="-93" font-family="Helvetica,sans-Serif" font-size="10.00">/SlowControlVariables.h</text>
</a>
</g>
<!-- Node58&#45;&gt;Node59 -->
<g id="edge2" class="edge"><title>Node58&#45;&gt;Node59</title>
<path fill="none" stroke="midnightblue" d="M988.346,-149.671C978.706,-139.755 967.779,-128.515 958.956,-119.441"/>
<polygon fill="midnightblue" stroke="midnightblue" points="985.931,-152.207 995.411,-156.937 990.95,-147.327 985.931,-152.207"/>
</g>
<!-- Node73 -->
<g id="node31" class="node"><title>Node73</title>
<a xlink:href="_clocks_8cc.html" target="_top" xlink:title="src/analysis/slowcontrol\l/variables/Clocks.cc">
<polygon fill="white" stroke="black" points="1021,-85 1021,-119 1143,-119 1143,-85 1021,-85"/>
<text text-anchor="start" x="1029" y="-106" font-family="Helvetica,sans-Serif" font-size="10.00">src/analysis/slowcontrol</text>
<text text-anchor="middle" x="1082" y="-93" font-family="Helvetica,sans-Serif" font-size="10.00">/variables/Clocks.cc</text>
</a>
</g>
<!-- Node58&#45;&gt;Node73 -->
<g id="edge30" class="edge"><title>Node58&#45;&gt;Node73</title>
<path fill="none" stroke="midnightblue" d="M1035.65,-149.671C1045.29,-139.755 1056.22,-128.515 1065.04,-119.441"/>
<polygon fill="midnightblue" stroke="midnightblue" points="1033.05,-147.327 1028.59,-156.937 1038.07,-152.207 1033.05,-147.327"/>
</g>
<!-- Node60 -->
<g id="node5" class="node"><title>Node60</title>
<a xlink:href="_debug_physics_8cc.html" target="_top" xlink:title="src/analysis/physics\l/common/DebugPhysics.cc">
<polygon fill="white" stroke="black" points="-0.5,-7 -0.5,-41 136.5,-41 136.5,-7 -0.5,-7"/>
<text text-anchor="start" x="7.5" y="-28" font-family="Helvetica,sans-Serif" font-size="10.00">src/analysis/physics</text>
<text text-anchor="middle" x="68" y="-15" font-family="Helvetica,sans-Serif" font-size="10.00">/common/DebugPhysics.cc</text>
</a>
</g>
<!-- Node59&#45;&gt;Node60 -->
<g id="edge4" class="edge"><title>Node59&#45;&gt;Node60</title>
<path fill="none" stroke="midnightblue" d="M870.791,-99.3161C702.343,-92.6214 283.185,-73.8452 145,-48 135.778,-46.2752 126.109,-43.8094 116.859,-41.1084"/>
<polygon fill="midnightblue" stroke="midnightblue" points="870.665,-102.814 880.796,-99.7112 870.942,-95.8192 870.665,-102.814"/>
</g>
<!-- Node61 -->
<g id="node7" class="node"><title>Node61</title>
<a xlink:href="_extract_scalers_8cc.html" target="_top" xlink:title="src/analysis/physics\l/common/ExtractScalers.cc">
<polygon fill="white" stroke="black" points="154,-7 154,-41 292,-41 292,-7 154,-7"/>
<text text-anchor="start" x="162" y="-28" font-family="Helvetica,sans-Serif" font-size="10.00">src/analysis/physics</text>
<text text-anchor="middle" x="223" y="-15" font-family="Helvetica,sans-Serif" font-size="10.00">/common/ExtractScalers.cc</text>
</a>
</g>
<!-- Node59&#45;&gt;Node61 -->
<g id="edge6" class="edge"><title>Node59&#45;&gt;Node61</title>
<path fill="none" stroke="midnightblue" d="M870.945,-97.9421C727.652,-89.4419 408.541,-68.8241 301,-48 291.82,-46.2223 282.188,-43.766 272.949,-41.0992"/>
<polygon fill="midnightblue" stroke="midnightblue" points="870.764,-101.437 880.953,-98.533 871.177,-94.4495 870.764,-101.437"/>
</g>
<!-- Node62 -->
<g id="node9" class="node"><title>Node62</title>
<a xlink:href="_photon_flux_8cc.html" target="_top" xlink:title="src/analysis/physics\l/common/PhotonFlux.cc">
<polygon fill="white" stroke="black" points="309.5,-7 309.5,-41 432.5,-41 432.5,-7 309.5,-7"/>
<text text-anchor="start" x="317.5" y="-28" font-family="Helvetica,sans-Serif" font-size="10.00">src/analysis/physics</text>
<text text-anchor="middle" x="371" y="-15" font-family="Helvetica,sans-Serif" font-size="10.00">/common/PhotonFlux.cc</text>
</a>
</g>
<!-- Node59&#45;&gt;Node62 -->
<g id="edge8" class="edge"><title>Node59&#45;&gt;Node62</title>
<path fill="none" stroke="midnightblue" d="M870.674,-99.3097C772.77,-94.4886 591.728,-81.5212 441,-48 432.848,-46.1871 424.324,-43.7476 416.14,-41.1166"/>
<polygon fill="midnightblue" stroke="midnightblue" points="870.595,-102.81 880.751,-99.7915 870.929,-95.8178 870.595,-102.81"/>
</g>
<!-- Node63 -->
<g id="node11" class="node"><title>Node63</title>
<a xlink:href="_process_tagg_eff_8cc.html" target="_top" xlink:title="src/analysis/physics\l/common/ProcessTaggEff.cc">
<polygon fill="white" stroke="black" points="450,-7 450,-41 594,-41 594,-7 450,-7"/>
<text text-anchor="start" x="458" y="-28" font-family="Helvetica,sans-Serif" font-size="10.00">src/analysis/physics</text>
<text text-anchor="middle" x="522" y="-15" font-family="Helvetica,sans-Serif" font-size="10.00">/common/ProcessTaggEff.cc</text>
</a>
</g>
<!-- Node59&#45;&gt;Node63 -->
<g id="edge10" class="edge"><title>Node59&#45;&gt;Node63</title>
<path fill="none" stroke="midnightblue" d="M870.609,-93.3749C801.648,-84.3987 694.492,-68.7489 603,-48 594.275,-46.0213 585.109,-43.6229 576.207,-41.1171"/>
<polygon fill="midnightblue" stroke="midnightblue" points="870.554,-96.8967 880.919,-94.7043 871.449,-89.9542 870.554,-96.8967"/>
</g>
<!-- Node64 -->
<g id="node13" class="node"><title>Node64</title>
<a xlink:href="debug_scalers_8cc.html" target="_top" xlink:title="src/analysis/physics\l/misc/debugScalers.cc">
<polygon fill="white" stroke="black" points="612,-7 612,-41 728,-41 728,-7 612,-7"/>
<text text-anchor="start" x="620" y="-28" font-family="Helvetica,sans-Serif" font-size="10.00">src/analysis/physics</text>
<text text-anchor="middle" x="670" y="-15" font-family="Helvetica,sans-Serif" font-size="10.00">/misc/debugScalers.cc</text>
</a>
</g>
<!-- Node59&#45;&gt;Node64 -->
<g id="edge12" class="edge"><title>Node59&#45;&gt;Node64</title>
<path fill="none" stroke="midnightblue" d="M870.771,-84.847C831.145,-74.9024 781.072,-61.6701 737,-48 730.155,-45.877 722.973,-43.484 715.957,-41.0524"/>
<polygon fill="midnightblue" stroke="midnightblue" points="870.06,-88.2769 880.61,-87.3027 871.755,-81.4852 870.06,-88.2769"/>
</g>
<!-- Node65 -->
<g id="node15" class="node"><title>Node65</title>
<a xlink:href="debug_tagg_eff_8cc.html" target="_top" xlink:title="src/analysis/physics\l/misc/debugTaggEff.cc">
<polygon fill="white" stroke="black" points="746,-7 746,-41 864,-41 864,-7 746,-7"/>
<text text-anchor="start" x="754" y="-28" font-family="Helvetica,sans-Serif" font-size="10.00">src/analysis/physics</text>
<text text-anchor="middle" x="805" y="-15" font-family="Helvetica,sans-Serif" font-size="10.00">/misc/debugTaggEff.cc</text>
</a>
</g>
<!-- Node59&#45;&gt;Node65 -->
<g id="edge14" class="edge"><title>Node59&#45;&gt;Node65</title>
<path fill="none" stroke="midnightblue" d="M903.007,-79.7995C881.406,-67.5015 854.967,-52.4483 834.995,-41.0775"/>
<polygon fill="midnightblue" stroke="midnightblue" points="901.513,-82.9764 911.935,-84.8826 904.976,-76.8932 901.513,-82.9764"/>
</g>
<!-- Node66 -->
<g id="node17" class="node"><title>Node66</title>
<a xlink:href="single_pi0_8cc.html" target="_top" xlink:title="src/analysis/physics\l/production/singlePi0.cc">
<polygon fill="white" stroke="black" points="881.5,-7 881.5,-41 1002.5,-41 1002.5,-7 881.5,-7"/>
<text text-anchor="start" x="889.5" y="-28" font-family="Helvetica,sans-Serif" font-size="10.00">src/analysis/physics</text>
<text text-anchor="middle" x="942" y="-15" font-family="Helvetica,sans-Serif" font-size="10.00">/production/singlePi0.cc</text>
</a>
</g>
<!-- Node59&#45;&gt;Node66 -->
<g id="edge16" class="edge"><title>Node59&#45;&gt;Node66</title>
<path fill="none" stroke="midnightblue" d="M942,-74.6102C942,-63.5188 942,-51.0489 942,-41.2623"/>
<polygon fill="midnightblue" stroke="midnightblue" points="938.5,-74.6892 942,-84.6893 945.5,-74.6893 938.5,-74.6892"/>
</g>
<!-- Node67 -->
<g id="node19" class="node"><title>Node67</title>
<a xlink:href="triple_pi0_8cc.html" target="_top" xlink:title="src/analysis/physics\l/production/triplePi0.cc">
<polygon fill="white" stroke="black" points="1020,-7 1020,-41 1136,-41 1136,-7 1020,-7"/>
<text text-anchor="start" x="1028" y="-28" font-family="Helvetica,sans-Serif" font-size="10.00">src/analysis/physics</text>
<text text-anchor="middle" x="1078" y="-15" font-family="Helvetica,sans-Serif" font-size="10.00">/production/triplePi0.cc</text>
</a>
</g>
<!-- Node59&#45;&gt;Node67 -->
<g id="edge18" class="edge"><title>Node59&#45;&gt;Node67</title>
<path fill="none" stroke="midnightblue" d="M980.709,-79.7995C1002.15,-67.5015 1028.4,-52.4483 1048.22,-41.0775"/>
<polygon fill="midnightblue" stroke="midnightblue" points="978.779,-76.8713 971.846,-84.8826 982.262,-82.9435 978.779,-76.8713"/>
</g>
<!-- Node68 -->
<g id="node21" class="node"><title>Node68</title>
<a xlink:href="cross__section_8cc.html" target="_top" xlink:title="src/analysis/physics\l/scratch/collicott/cross\l_section.cc">
<polygon fill="white" stroke="black" points="1154,-0.5 1154,-47.5 1270,-47.5 1270,-0.5 1154,-0.5"/>
<text text-anchor="start" x="1162" y="-34.5" font-family="Helvetica,sans-Serif" font-size="10.00">src/analysis/physics</text>
<text text-anchor="start" x="1162" y="-21.5" font-family="Helvetica,sans-Serif" font-size="10.00">/scratch/collicott/cross</text>
<text text-anchor="middle" x="1212" y="-8.5" font-family="Helvetica,sans-Serif" font-size="10.00">_section.cc</text>
</a>
</g>
<!-- Node59&#45;&gt;Node68 -->
<g id="edge20" class="edge"><title>Node59&#45;&gt;Node68</title>
<path fill="none" stroke="midnightblue" d="M1012.99,-83.4296C1066.25,-69.4429 1132.11,-52.0141 1145,-48 1147.95,-47.0813 1150.96,-46.1132 1154,-45.114"/>
<polygon fill="midnightblue" stroke="midnightblue" points="1011.99,-80.0732 1003.2,-85.9972 1013.76,-86.8439 1011.99,-80.0732"/>
</g>
<!-- Node69 -->
<g id="node23" class="node"><title>Node69</title>
<a xlink:href="det__eff_8cc.html" target="_top" xlink:title="src/analysis/physics\l/scratch/collicott/det\l_eff.cc">
<polygon fill="white" stroke="black" points="1288,-0.5 1288,-47.5 1394,-47.5 1394,-0.5 1288,-0.5"/>
<text text-anchor="start" x="1296" y="-34.5" font-family="Helvetica,sans-Serif" font-size="10.00">src/analysis/physics</text>
<text text-anchor="start" x="1296" y="-21.5" font-family="Helvetica,sans-Serif" font-size="10.00">/scratch/collicott/det</text>
<text text-anchor="middle" x="1341" y="-8.5" font-family="Helvetica,sans-Serif" font-size="10.00">_eff.cc</text>
</a>
</g>
<!-- Node59&#45;&gt;Node69 -->
<g id="edge22" class="edge"><title>Node59&#45;&gt;Node69</title>
<path fill="none" stroke="midnightblue" d="M1013.51,-83.8468C1131.41,-61.9324 1166.2,-77.0036 1279,-48 1281.91,-47.2527 1284.86,-46.4096 1287.83,-45.4979"/>
<polygon fill="midnightblue" stroke="midnightblue" points="1012.53,-80.4703 1003.37,-85.7844 1013.85,-87.346 1012.53,-80.4703"/>
</g>
<!-- Node70 -->
<g id="node25" class="node"><title>Node70</title>
<a xlink:href="_slow_control_manager_8cc.html" target="_top" xlink:title="src/analysis/slowcontrol\l/SlowControlManager.cc">
<polygon fill="white" stroke="black" points="1412,-7 1412,-41 1536,-41 1536,-7 1412,-7"/>
<text text-anchor="start" x="1420" y="-28" font-family="Helvetica,sans-Serif" font-size="10.00">src/analysis/slowcontrol</text>
<text text-anchor="middle" x="1474" y="-15" font-family="Helvetica,sans-Serif" font-size="10.00">/SlowControlManager.cc</text>
</a>
</g>
<!-- Node59&#45;&gt;Node70 -->
<g id="edge24" class="edge"><title>Node59&#45;&gt;Node70</title>
<path fill="none" stroke="midnightblue" d="M1013.26,-83.947C1185.78,-55.2654 1235.45,-83.5182 1403,-48 1411.4,-46.2191 1420.19,-43.7613 1428.61,-41.094"/>
<polygon fill="midnightblue" stroke="midnightblue" points="1012.61,-80.5068 1003.34,-85.6356 1013.79,-87.4075 1012.61,-80.5068"/>
</g>
<!-- Node71 -->
<g id="node27" class="node"><title>Node71</title>
<a xlink:href="_slow_control_variables_8cc.html" target="_top" xlink:title="src/analysis/slowcontrol\l/SlowControlVariables.cc">
<polygon fill="white" stroke="black" points="1553.5,-7 1553.5,-41 1680.5,-41 1680.5,-7 1553.5,-7"/>
<text text-anchor="start" x="1561.5" y="-28" font-family="Helvetica,sans-Serif" font-size="10.00">src/analysis/slowcontrol</text>
<text text-anchor="middle" x="1617" y="-15" font-family="Helvetica,sans-Serif" font-size="10.00">/SlowControlVariables.cc</text>
</a>
</g>
<!-- Node59&#45;&gt;Node71 -->
<g id="edge26" class="edge"><title>Node59&#45;&gt;Node71</title>
<path fill="none" stroke="midnightblue" d="M1013.55,-83.9328C1248.3,-47.6056 1315.35,-93.2613 1545,-48 1553.79,-46.2675 1562.99,-43.762 1571.76,-41.0164"/>
<polygon fill="midnightblue" stroke="midnightblue" points="1012.66,-80.53 1003.33,-85.5494 1013.75,-87.444 1012.66,-80.53"/>
</g>
<!-- Node72 -->
<g id="node29" class="node"><title>Node72</title>
<a xlink:href="_test_slow_control_manager_8cc.html" target="_top" xlink:title="test/analysis/TestSlowControl\lManager.cc">
<polygon fill="white" stroke="black" points="1698,-7 1698,-41 1846,-41 1846,-7 1698,-7"/>
<text text-anchor="start" x="1706" y="-28" font-family="Helvetica,sans-Serif" font-size="10.00">test/analysis/TestSlowControl</text>
<text text-anchor="middle" x="1772" y="-15" font-family="Helvetica,sans-Serif" font-size="10.00">Manager.cc</text>
</a>
</g>
<!-- Node59&#45;&gt;Node72 -->
<g id="edge28" class="edge"><title>Node59&#45;&gt;Node72</title>
<path fill="none" stroke="midnightblue" d="M1013.56,-83.9472C1311.69,-39.5869 1395.23,-97.6123 1689,-48 1699.06,-46.3015 1709.63,-43.8119 1719.73,-41.0714"/>
<polygon fill="midnightblue" stroke="midnightblue" points="1012.68,-80.5404 1003.32,-85.4987 1013.73,-87.4614 1012.68,-80.5404"/>
</g>
</g>
</svg>
