<?xml version="1.0" encoding="UTF-8" standalone="no"?>
<!DOCTYPE svg PUBLIC "-//W3C//DTD SVG 1.1//EN"
 "http://www.w3.org/Graphics/SVG/1.1/DTD/svg11.dtd">
<!-- Generated by graphviz version 2.26.3 (20100126.1600)
 -->
<!-- Title: src/analysis/utils/ClusterTools.h Pages: 1 -->
<svg width="650pt" height="276pt"
 viewBox="0.00 0.00 650.00 276.00" xmlns="http://www.w3.org/2000/svg" xmlns:xlink="http://www.w3.org/1999/xlink">
<g id="graph1" class="graph" transform="scale(1 1) rotate(0) translate(4 272)">
<title>src/analysis/utils/ClusterTools.h</title>
<polygon fill="white" stroke="white" points="-4,5 -4,-272 647,-272 647,5 -4,5"/>
<!-- Node0 -->
<g id="node1" class="node"><title>Node0</title>
<polygon fill="#bfbfbf" stroke="black" points="425,-233 425,-267 515,-267 515,-233 425,-233"/>
<text text-anchor="start" x="433" y="-254" font-family="Helvetica,sans-Serif" font-size="10.00">src/analysis/utils</text>
<text text-anchor="middle" x="470" y="-241" font-family="Helvetica,sans-Serif" font-size="10.00">/ClusterTools.h</text>
</g>
<!-- Node1 -->
<g id="node3" class="node"><title>Node1</title>
<a xlink:href="_detector__t_8h.html" target="_top" xlink:title="base/Detector_t.h">
<polygon fill="white" stroke="black" points="331.5,-174.5 331.5,-195.5 426.5,-195.5 426.5,-174.5 331.5,-174.5"/>
<text text-anchor="middle" x="379" y="-182.5" font-family="Helvetica,sans-Serif" font-size="10.00">base/Detector_t.h</text>
</a>
</g>
<!-- Node0&#45;&gt;Node1 -->
<g id="edge2" class="edge"><title>Node0&#45;&gt;Node1</title>
<path fill="none" stroke="midnightblue" d="M446.091,-232.922C432.527,-223.233 415.63,-211.165 402.187,-201.562"/>
<polygon fill="midnightblue" stroke="midnightblue" points="404.093,-198.623 393.922,-195.658 400.025,-204.319 404.093,-198.623"/>
</g>
<!-- Node15 -->
<g id="node34" class="node"><title>Node15</title>
<polygon fill="white" stroke="#bfbfbf" points="444,-174.5 444,-195.5 496,-195.5 496,-174.5 444,-174.5"/>
<text text-anchor="middle" x="470" y="-182.5" font-family="Helvetica,sans-Serif" font-size="10.00">memory</text>
</g>
<!-- Node0&#45;&gt;Node15 -->
<g id="edge36" class="edge"><title>Node0&#45;&gt;Node15</title>
<path fill="none" stroke="midnightblue" d="M470,-232.922C470,-224.67 470,-214.692 470,-205.982"/>
<polygon fill="midnightblue" stroke="midnightblue" points="473.5,-205.852 470,-195.852 466.5,-205.852 473.5,-205.852"/>
</g>
<!-- Node16 -->
<g id="node36" class="node"><title>Node16</title>
<polygon fill="white" stroke="#bfbfbf" points="513.5,-174.5 513.5,-195.5 548.5,-195.5 548.5,-174.5 513.5,-174.5"/>
<text text-anchor="middle" x="531" y="-182.5" font-family="Helvetica,sans-Serif" font-size="10.00">map</text>
</g>
<!-- Node0&#45;&gt;Node16 -->
<g id="edge38" class="edge"><title>Node0&#45;&gt;Node16</title>
<path fill="none" stroke="midnightblue" d="M486.027,-232.922C494.545,-223.845 505.024,-212.679 513.723,-203.41"/>
<polygon fill="midnightblue" stroke="midnightblue" points="516.525,-205.539 520.816,-195.852 511.42,-200.749 516.525,-205.539"/>
</g>
<!-- Node2 -->
<g id="node5" class="node"><title>Node2</title>
<a xlink:href="bitflag_8h.html" target="_top" xlink:title="base/bitflag.h">
<polygon fill="white" stroke="black" points="-0.5,-116.5 -0.5,-137.5 74.5,-137.5 74.5,-116.5 -0.5,-116.5"/>
<text text-anchor="middle" x="37" y="-124.5" font-family="Helvetica,sans-Serif" font-size="10.00">base/bitflag.h</text>
</a>
</g>
<!-- Node1&#45;&gt;Node2 -->
<g id="edge4" class="edge"><title>Node1&#45;&gt;Node2</title>
<path fill="none" stroke="midnightblue" d="M331.456,-177.481C275.004,-168.472 178.036,-152.743 95,-138 91.6179,-137.4 88.1272,-136.768 84.6144,-136.123"/>
<polygon fill="midnightblue" stroke="midnightblue" points="85.1985,-132.672 74.7276,-134.288 83.9208,-139.554 85.1985,-132.672"/>
</g>
<!-- Node4 -->
<g id="node9" class="node"><title>Node4</title>
<a xlink:href="vec3_8h.html" target="_top" xlink:title="base/vec/vec3.h">
<polygon fill="white" stroke="black" points="103.5,-116.5 103.5,-137.5 192.5,-137.5 192.5,-116.5 103.5,-116.5"/>
<text text-anchor="middle" x="148" y="-124.5" font-family="Helvetica,sans-Serif" font-size="10.00">base/vec/vec3.h</text>
</a>
</g>
<!-- Node1&#45;&gt;Node4 -->
<g id="edge8" class="edge"><title>Node1&#45;&gt;Node4</title>
<path fill="none" stroke="midnightblue" d="M337.168,-174.497C298.612,-164.816 241.259,-150.416 199.818,-140.01"/>
<polygon fill="midnightblue" stroke="midnightblue" points="200.462,-136.564 189.911,-137.523 198.757,-143.353 200.462,-136.564"/>
</g>
<!-- Node8 -->
<g id="node18" class="node"><title>Node8</title>
<a xlink:href="base_2std__ext_2math_8h.html" target="_top" xlink:title="base/std_ext/math.h">
<polygon fill="white" stroke="black" points="220,-116.5 220,-137.5 326,-137.5 326,-116.5 220,-116.5"/>
<text text-anchor="middle" x="273" y="-124.5" font-family="Helvetica,sans-Serif" font-size="10.00">base/std_ext/math.h</text>
</a>
</g>
<!-- Node1&#45;&gt;Node8 -->
<g id="edge18" class="edge"><title>Node1&#45;&gt;Node8</title>
<path fill="none" stroke="midnightblue" d="M359.558,-174.362C343.196,-165.409 319.587,-152.491 301.157,-142.406"/>
<polygon fill="midnightblue" stroke="midnightblue" points="302.771,-139.3 292.319,-137.571 299.411,-145.441 302.771,-139.3"/>
</g>
<!-- Node10 -->
<g id="node23" class="node"><title>Node10</title>
<polygon fill="white" stroke="#bfbfbf" points="337,-58.5 337,-79.5 381,-79.5 381,-58.5 337,-58.5"/>
<text text-anchor="middle" x="359" y="-66.5" font-family="Helvetica,sans-Serif" font-size="10.00">vector</text>
</g>
<!-- Node1&#45;&gt;Node10 -->
<g id="edge34" class="edge"><title>Node1&#45;&gt;Node10</title>
<path fill="none" stroke="midnightblue" d="M377.154,-174.295C373.85,-155.131 366.871,-114.654 362.594,-89.8434"/>
<polygon fill="midnightblue" stroke="midnightblue" points="365.99,-88.9391 360.841,-79.6792 359.091,-90.1285 365.99,-88.9391"/>
</g>
<!-- Node11 -->
<g id="node25" class="node"><title>Node11</title>
<polygon fill="white" stroke="#bfbfbf" points="382,-116.5 382,-137.5 428,-137.5 428,-116.5 382,-116.5"/>
<text text-anchor="middle" x="405" y="-124.5" font-family="Helvetica,sans-Serif" font-size="10.00">cstdint</text>
</g>
<!-- Node1&#45;&gt;Node11 -->
<g id="edge26" class="edge"><title>Node1&#45;&gt;Node11</title>
<path fill="none" stroke="midnightblue" d="M383.769,-174.362C387.214,-166.677 391.969,-156.069 396.106,-146.84"/>
<polygon fill="midnightblue" stroke="midnightblue" points="399.365,-148.127 400.261,-137.571 392.977,-145.264 399.365,-148.127"/>
</g>
<!-- Node12 -->
<g id="node27" class="node"><title>Node12</title>
<polygon fill="white" stroke="#bfbfbf" points="445.5,-116.5 445.5,-137.5 504.5,-137.5 504.5,-116.5 445.5,-116.5"/>
<text text-anchor="middle" x="475" y="-124.5" font-family="Helvetica,sans-Serif" font-size="10.00">stdexcept</text>
</g>
<!-- Node1&#45;&gt;Node12 -->
<g id="edge28" class="edge"><title>Node1&#45;&gt;Node12</title>
<path fill="none" stroke="midnightblue" d="M396.608,-174.362C411.223,-165.532 432.224,-152.844 448.811,-142.822"/>
<polygon fill="midnightblue" stroke="midnightblue" points="450.754,-145.738 457.504,-137.571 447.135,-139.746 450.754,-145.738"/>
</g>
<!-- Node13 -->
<g id="node29" class="node"><title>Node13</title>
<polygon fill="white" stroke="#bfbfbf" points="521.5,-116.5 521.5,-137.5 562.5,-137.5 562.5,-116.5 521.5,-116.5"/>
<text text-anchor="middle" x="542" y="-124.5" font-family="Helvetica,sans-Serif" font-size="10.00">string</text>
</g>
<!-- Node1&#45;&gt;Node13 -->
<g id="edge30" class="edge"><title>Node1&#45;&gt;Node13</title>
<path fill="none" stroke="midnightblue" d="M409.68,-174.485C434.924,-165.779 471.857,-152.918 511.995,-138.318"/>
<polygon fill="midnightblue" stroke="midnightblue" points="513.234,-141.592 521.429,-134.876 510.835,-135.016 513.234,-141.592"/>
</g>
<!-- Node14 -->
<g id="node31" class="node"><title>Node14</title>
<polygon fill="white" stroke="#bfbfbf" points="580,-116.5 580,-137.5 642,-137.5 642,-116.5 580,-116.5"/>
<text text-anchor="middle" x="611" y="-124.5" font-family="Helvetica,sans-Serif" font-size="10.00">type_traits</text>
</g>
<!-- Node1&#45;&gt;Node14 -->
<g id="edge32" class="edge"><title>Node1&#45;&gt;Node14</title>
<path fill="none" stroke="midnightblue" d="M423.705,-174.435C460.468,-165.662 514.17,-152.653 569.583,-138.325"/>
<polygon fill="midnightblue" stroke="midnightblue" points="570.78,-141.631 579.58,-135.731 569.021,-134.855 570.78,-141.631"/>
</g>
<!-- Node3 -->
<g id="node7" class="node"><title>Node3</title>
<polygon fill="white" stroke="#bfbfbf" points="10.5,-58.5 10.5,-79.5 51.5,-79.5 51.5,-58.5 10.5,-58.5"/>
<text text-anchor="middle" x="31" y="-66.5" font-family="Helvetica,sans-Serif" font-size="10.00">bitset</text>
</g>
<!-- Node2&#45;&gt;Node3 -->
<g id="edge6" class="edge"><title>Node2&#45;&gt;Node3</title>
<path fill="none" stroke="midnightblue" d="M35.8995,-116.362C35.1299,-108.922 34.0768,-98.7427 33.1442,-89.7276"/>
<polygon fill="midnightblue" stroke="midnightblue" points="36.604,-89.1574 32.0935,-79.5707 29.6412,-89.8777 36.604,-89.1574"/>
</g>
<!-- Node5 -->
<g id="node11" class="node"><title>Node5</title>
<a xlink:href="vec2_8h.html" target="_top" xlink:title="vec2.h">
<polygon fill="white" stroke="black" points="69,-58.5 69,-79.5 115,-79.5 115,-58.5 69,-58.5"/>
<text text-anchor="middle" x="92" y="-66.5" font-family="Helvetica,sans-Serif" font-size="10.00">vec2.h</text>
</a>
</g>
<!-- Node4&#45;&gt;Node5 -->
<g id="edge10" class="edge"><title>Node4&#45;&gt;Node5</title>
<path fill="none" stroke="midnightblue" d="M137.729,-116.362C129.756,-108.104 118.525,-96.4725 109.189,-86.8029"/>
<polygon fill="midnightblue" stroke="midnightblue" points="111.67,-84.3336 102.206,-79.5707 106.634,-89.1958 111.67,-84.3336"/>
</g>
<!-- Node6 -->
<g id="node13" class="node"><title>Node6</title>
<polygon fill="white" stroke="#bfbfbf" points="121,-0.5 121,-21.5 165,-21.5 165,-0.5 121,-0.5"/>
<text text-anchor="middle" x="143" y="-8.5" font-family="Helvetica,sans-Serif" font-size="10.00">cmath</text>
</g>
<!-- Node4&#45;&gt;Node6 -->
<g id="edge16" class="edge"><title>Node4&#45;&gt;Node6</title>
<path fill="none" stroke="midnightblue" d="M147.539,-116.295C146.713,-97.1314 144.968,-56.654 143.898,-31.8434"/>
<polygon fill="midnightblue" stroke="midnightblue" points="147.388,-31.5192 143.46,-21.6792 140.394,-31.8207 147.388,-31.5192"/>
</g>
<!-- Node7 -->
<g id="node15" class="node"><title>Node7</title>
<polygon fill="white" stroke="#bfbfbf" points="171,-58.5 171,-79.5 223,-79.5 223,-58.5 171,-58.5"/>
<text text-anchor="middle" x="197" y="-66.5" font-family="Helvetica,sans-Serif" font-size="10.00">ostream</text>
</g>
<!-- Node4&#45;&gt;Node7 -->
<g id="edge14" class="edge"><title>Node4&#45;&gt;Node7</title>
<path fill="none" stroke="midnightblue" d="M156.987,-116.362C163.825,-108.268 173.402,-96.9318 181.472,-87.3796"/>
<polygon fill="midnightblue" stroke="midnightblue" points="184.29,-89.4683 188.07,-79.5707 178.942,-84.9508 184.29,-89.4683"/>
</g>
<!-- Node5&#45;&gt;Node6 -->
<g id="edge12" class="edge"><title>Node5&#45;&gt;Node6</title>
<path fill="none" stroke="midnightblue" d="M101.354,-58.3619C108.543,-50.1861 118.641,-38.7025 127.093,-29.0907"/>
<polygon fill="midnightblue" stroke="midnightblue" points="129.73,-31.3916 133.705,-21.5707 124.473,-26.7692 129.73,-31.3916"/>
</g>
<!-- Node8&#45;&gt;Node6 -->
<g id="edge20" class="edge"><title>Node8&#45;&gt;Node6</title>
<path fill="none" stroke="midnightblue" d="M268.907,-116.447C262.775,-101.774 249.974,-75.0921 232,-58 215.578,-42.3836 192.953,-30.5274 174.625,-22.6294"/>
<polygon fill="midnightblue" stroke="midnightblue" points="175.799,-19.328 165.22,-18.7558 173.134,-25.8005 175.799,-19.328"/>
</g>
<!-- Node9 -->
<g id="node21" class="node"><title>Node9</title>
<polygon fill="white" stroke="#bfbfbf" points="279,-58.5 279,-79.5 319,-79.5 319,-58.5 279,-58.5"/>
<text text-anchor="middle" x="299" y="-66.5" font-family="Helvetica,sans-Serif" font-size="10.00">limits</text>
</g>
<!-- Node8&#45;&gt;Node9 -->
<g id="edge22" class="edge"><title>Node8&#45;&gt;Node9</title>
<path fill="none" stroke="midnightblue" d="M277.769,-116.362C281.214,-108.677 285.969,-98.0686 290.106,-88.8399"/>
<polygon fill="midnightblue" stroke="midnightblue" points="293.365,-90.1275 294.261,-79.5707 286.977,-87.264 293.365,-90.1275"/>
</g>
<!-- Node8&#45;&gt;Node10 -->
<g id="edge24" class="edge"><title>Node8&#45;&gt;Node10</title>
<path fill="none" stroke="midnightblue" d="M288.774,-116.362C301.624,-107.696 319.985,-95.3126 334.71,-85.3819"/>
<polygon fill="midnightblue" stroke="midnightblue" points="336.993,-88.0639 343.326,-79.5707 333.079,-82.2604 336.993,-88.0639"/>
</g>
</g>
</svg>
