<?xml version="1.0" encoding="UTF-8" standalone="no"?>
<!DOCTYPE svg PUBLIC "-//W3C//DTD SVG 1.1//EN"
 "http://www.w3.org/Graphics/SVG/1.1/DTD/svg11.dtd">
<!-- Generated by graphviz version 2.26.3 (20100126.1600)
 -->
<!-- Title: src/analysis/utils/Combinatorics.h Pages: 1 -->
<svg width="392pt" height="160pt"
 viewBox="0.00 0.00 392.00 160.00" xmlns="http://www.w3.org/2000/svg" xmlns:xlink="http://www.w3.org/1999/xlink">
<g id="graph1" class="graph" transform="scale(1 1) rotate(0) translate(4 156)">
<title>src/analysis/utils/Combinatorics.h</title>
<polygon fill="white" stroke="white" points="-4,5 -4,-156 389,-156 389,5 -4,5"/>
<!-- Node0 -->
<g id="node1" class="node"><title>Node0</title>
<polygon fill="#bfbfbf" stroke="black" points="205.5,-117 205.5,-151 296.5,-151 296.5,-117 205.5,-117"/>
<text text-anchor="start" x="213.5" y="-138" font-family="Helvetica,sans-Serif" font-size="10.00">src/analysis/utils</text>
<text text-anchor="middle" x="251" y="-125" font-family="Helvetica,sans-Serif" font-size="10.00">/Combinatorics.h</text>
</g>
<!-- Node1 -->
<g id="node3" class="node"><title>Node1</title>
<a xlink:href="container_8h.html" target="_top" xlink:title="base/std_ext/container.h">
<polygon fill="white" stroke="black" points="59,-58.5 59,-79.5 183,-79.5 183,-58.5 59,-58.5"/>
<text text-anchor="middle" x="121" y="-66.5" font-family="Helvetica,sans-Serif" font-size="10.00">base/std_ext/container.h</text>
</a>
</g>
<!-- Node0&#45;&gt;Node1 -->
<g id="edge2" class="edge"><title>Node0&#45;&gt;Node1</title>
<path fill="none" stroke="midnightblue" d="M216.844,-116.922C196.544,-106.772 171.019,-94.0097 151.416,-84.2079"/>
<polygon fill="midnightblue" stroke="midnightblue" points="152.826,-81.0001 142.317,-79.6584 149.696,-87.2611 152.826,-81.0001"/>
</g>
<!-- Node2 -->
<g id="node5" class="node"><title>Node2</title>
<polygon fill="white" stroke="#bfbfbf" points="200,-0.5 200,-21.5 244,-21.5 244,-0.5 200,-0.5"/>
<text text-anchor="middle" x="222" y="-8.5" font-family="Helvetica,sans-Serif" font-size="10.00">vector</text>
</g>
<!-- Node0&#45;&gt;Node2 -->
<g id="edge20" class="edge"><title>Node0&#45;&gt;Node2</title>
<path fill="none" stroke="midnightblue" d="M243.034,-116.857C238.515,-106.419 233.148,-92.692 230,-80 226.098,-64.2719 224.089,-46.0442 223.059,-32.2744"/>
<polygon fill="midnightblue" stroke="midnightblue" points="226.528,-31.6688 222.406,-21.909 219.542,-32.1095 226.528,-31.6688"/>
</g>
<!-- Node6 -->
<g id="node13" class="node"><title>Node6</title>
<a xlink:href="base_2std__ext_2math_8h.html" target="_top" xlink:title="base/std_ext/math.h">
<polygon fill="white" stroke="black" points="239,-58.5 239,-79.5 345,-79.5 345,-58.5 239,-58.5"/>
<text text-anchor="middle" x="292" y="-66.5" font-family="Helvetica,sans-Serif" font-size="10.00">base/std_ext/math.h</text>
</a>
</g>
<!-- Node0&#45;&gt;Node6 -->
<g id="edge12" class="edge"><title>Node0&#45;&gt;Node6</title>
<path fill="none" stroke="midnightblue" d="M261.772,-116.922C267.266,-108.212 273.974,-97.5782 279.673,-88.5423"/>
<polygon fill="midnightblue" stroke="midnightblue" points="282.78,-90.1774 285.155,-79.8521 276.859,-86.4428 282.78,-90.1774"/>
</g>
<!-- Node7 -->
<g id="node15" class="node"><title>Node7</title>
<polygon fill="white" stroke="#bfbfbf" points="340,-0.5 340,-21.5 384,-21.5 384,-0.5 340,-0.5"/>
<text text-anchor="middle" x="362" y="-8.5" font-family="Helvetica,sans-Serif" font-size="10.00">cmath</text>
</g>
<!-- Node0&#45;&gt;Node7 -->
<g id="edge22" class="edge"><title>Node0&#45;&gt;Node7</title>
<path fill="none" stroke="midnightblue" d="M296.502,-121.07C317.383,-112.758 340.458,-99.7241 354,-80 363.573,-66.0568 365.058,-46.6815 364.444,-32.0109"/>
<polygon fill="midnightblue" stroke="midnightblue" points="367.921,-31.5792 363.664,-21.8773 360.942,-32.1163 367.921,-31.5792"/>
</g>
<!-- Node1&#45;&gt;Node2 -->
<g id="edge4" class="edge"><title>Node1&#45;&gt;Node2</title>
<path fill="none" stroke="midnightblue" d="M139.525,-58.3619C154.901,-49.532 176.996,-36.844 194.447,-26.8224"/>
<polygon fill="midnightblue" stroke="midnightblue" points="196.664,-29.5857 203.592,-21.5707 193.178,-23.5154 196.664,-29.5857"/>
</g>
<!-- Node3 -->
<g id="node7" class="node"><title>Node3</title>
<polygon fill="white" stroke="#bfbfbf" points="126,-0.5 126,-21.5 182,-21.5 182,-0.5 126,-0.5"/>
<text text-anchor="middle" x="154" y="-8.5" font-family="Helvetica,sans-Serif" font-size="10.00">algorithm</text>
</g>
<!-- Node1&#45;&gt;Node3 -->
<g id="edge6" class="edge"><title>Node1&#45;&gt;Node3</title>
<path fill="none" stroke="midnightblue" d="M127.053,-58.3619C131.472,-50.5949 137.59,-39.8426 142.879,-30.5458"/>
<polygon fill="midnightblue" stroke="midnightblue" points="146.082,-31.9932 147.986,-21.5707 139.998,-28.5315 146.082,-31.9932"/>
</g>
<!-- Node4 -->
<g id="node9" class="node"><title>Node4</title>
<polygon fill="white" stroke="#bfbfbf" points="-0.5,-0.5 -0.5,-21.5 50.5,-21.5 50.5,-0.5 -0.5,-0.5"/>
<text text-anchor="middle" x="25" y="-8.5" font-family="Helvetica,sans-Serif" font-size="10.00">numeric</text>
</g>
<!-- Node1&#45;&gt;Node4 -->
<g id="edge8" class="edge"><title>Node1&#45;&gt;Node4</title>
<path fill="none" stroke="midnightblue" d="M103.392,-58.3619C88.7771,-49.532 67.7762,-36.844 51.1888,-26.8224"/>
<polygon fill="midnightblue" stroke="midnightblue" points="52.8653,-23.7461 42.4963,-21.5707 49.2455,-29.7376 52.8653,-23.7461"/>
</g>
<!-- Node5 -->
<g id="node11" class="node"><title>Node5</title>
<polygon fill="white" stroke="#bfbfbf" points="67.5,-0.5 67.5,-21.5 108.5,-21.5 108.5,-0.5 67.5,-0.5"/>
<text text-anchor="middle" x="88" y="-8.5" font-family="Helvetica,sans-Serif" font-size="10.00">string</text>
</g>
<!-- Node1&#45;&gt;Node5 -->
<g id="edge10" class="edge"><title>Node1&#45;&gt;Node5</title>
<path fill="none" stroke="midnightblue" d="M114.947,-58.3619C110.528,-50.5949 104.41,-39.8426 99.1209,-30.5458"/>
<polygon fill="midnightblue" stroke="midnightblue" points="102.002,-28.5315 94.0143,-21.5707 95.9176,-31.9932 102.002,-28.5315"/>
</g>
<!-- Node6&#45;&gt;Node2 -->
<g id="edge18" class="edge"><title>Node6&#45;&gt;Node2</title>
<path fill="none" stroke="midnightblue" d="M279.161,-58.3619C268.998,-49.9408 254.599,-38.0105 242.796,-28.2308"/>
<polygon fill="midnightblue" stroke="midnightblue" points="244.691,-25.2558 234.758,-21.5707 240.225,-30.6459 244.691,-25.2558"/>
</g>
<!-- Node6&#45;&gt;Node7 -->
<g id="edge14" class="edge"><title>Node6&#45;&gt;Node7</title>
<path fill="none" stroke="midnightblue" d="M304.839,-58.3619C315.002,-49.9408 329.401,-38.0105 341.204,-28.2308"/>
<polygon fill="midnightblue" stroke="midnightblue" points="343.775,-30.6459 349.242,-21.5707 339.309,-25.2558 343.775,-30.6459"/>
</g>
<!-- Node8 -->
<g id="node17" class="node"><title>Node8</title>
<polygon fill="white" stroke="#bfbfbf" points="272,-0.5 272,-21.5 312,-21.5 312,-0.5 272,-0.5"/>
<text text-anchor="middle" x="292" y="-8.5" font-family="Helvetica,sans-Serif" font-size="10.00">limits</text>
</g>
<!-- Node6&#45;&gt;Node8 -->
<g id="edge16" class="edge"><title>Node6&#45;&gt;Node8</title>
<path fill="none" stroke="midnightblue" d="M292,-58.3619C292,-50.9219 292,-40.7427 292,-31.7276"/>
<polygon fill="midnightblue" stroke="midnightblue" points="295.5,-31.5706 292,-21.5707 288.5,-31.5707 295.5,-31.5706"/>
</g>
</g>
</svg>
