<?xml version="1.0" encoding="UTF-8" standalone="no"?>
<!DOCTYPE svg PUBLIC "-//W3C//DTD SVG 1.1//EN"
 "http://www.w3.org/Graphics/SVG/1.1/DTD/svg11.dtd">
<!-- Generated by graphviz version 2.26.3 (20100126.1600)
 -->
<!-- Title: src/base/math_functions/CrystalBall.cc Pages: 1 -->
<svg width="202pt" height="102pt"
 viewBox="0.00 0.00 202.00 102.00" xmlns="http://www.w3.org/2000/svg" xmlns:xlink="http://www.w3.org/1999/xlink">
<g id="graph1" class="graph" transform="scale(1 1) rotate(0) translate(4 98)">
<title>src/base/math_functions/CrystalBall.cc</title>
<polygon fill="white" stroke="white" points="-4,5 -4,-98 199,-98 199,5 -4,5"/>
<!-- Node0 -->
<g id="node1" class="node"><title>Node0</title>
<polygon fill="#bfbfbf" stroke="black" points="49,-59 49,-93 173,-93 173,-59 49,-59"/>
<text text-anchor="start" x="57" y="-80" font-family="Helvetica,sans-Serif" font-size="10.00">src/base/math_functions</text>
<text text-anchor="middle" x="111" y="-67" font-family="Helvetica,sans-Serif" font-size="10.00">/CrystalBall.cc</text>
</g>
<!-- Node1 -->
<g id="node3" class="node"><title>Node1</title>
<a xlink:href="_crystal_ball_8h.html" target="_top" xlink:title="CrystalBall.h">
<polygon fill="white" stroke="black" points="-0.5,-0.5 -0.5,-21.5 72.5,-21.5 72.5,-0.5 -0.5,-0.5"/>
<text text-anchor="middle" x="36" y="-8.5" font-family="Helvetica,sans-Serif" font-size="10.00">CrystalBall.h</text>
</a>
</g>
<!-- Node0&#45;&gt;Node1 -->
<g id="edge2" class="edge"><title>Node0&#45;&gt;Node1</title>
<path fill="none" stroke="midnightblue" d="M91.2946,-58.922C80.5041,-49.5702 67.1546,-38.0007 56.2758,-28.5724"/>
<polygon fill="midnightblue" stroke="midnightblue" points="58.3708,-25.7565 48.5216,-21.8521 53.7863,-31.0463 58.3708,-25.7565"/>
</g>
<!-- Node2 -->
<g id="node5" class="node"><title>Node2</title>
<polygon fill="white" stroke="#bfbfbf" points="90,-0.5 90,-21.5 132,-21.5 132,-0.5 90,-0.5"/>
<text text-anchor="middle" x="111" y="-8.5" font-family="Helvetica,sans-Serif" font-size="10.00">TF1.h</text>
</g>
<!-- Node0&#45;&gt;Node2 -->
<g id="edge4" class="edge"><title>Node0&#45;&gt;Node2</title>
<path fill="none" stroke="midnightblue" d="M111,-58.922C111,-50.6704 111,-40.6922 111,-31.9818"/>
<polygon fill="midnightblue" stroke="midnightblue" points="114.5,-31.8521 111,-21.8521 107.5,-31.8521 114.5,-31.8521"/>
</g>
<!-- Node3 -->
<g id="node7" class="node"><title>Node3</title>
<polygon fill="white" stroke="#bfbfbf" points="150,-0.5 150,-21.5 194,-21.5 194,-0.5 150,-0.5"/>
<text text-anchor="middle" x="172" y="-8.5" font-family="Helvetica,sans-Serif" font-size="10.00">cmath</text>
</g>
<!-- Node0&#45;&gt;Node3 -->
<g id="edge6" class="edge"><title>Node0&#45;&gt;Node3</title>
<path fill="none" stroke="midnightblue" d="M127.027,-58.922C135.545,-49.8453 146.024,-38.6793 154.723,-29.4097"/>
<polygon fill="midnightblue" stroke="midnightblue" points="157.525,-31.5391 161.816,-21.8521 152.42,-26.7489 157.525,-31.5391"/>
</g>
</g>
</svg>
