<?xml version="1.0" encoding="UTF-8" standalone="no"?>
<!DOCTYPE svg PUBLIC "-//W3C//DTD SVG 1.1//EN"
 "http://www.w3.org/Graphics/SVG/1.1/DTD/svg11.dtd">
<!-- Generated by graphviz version 2.26.3 (20100126.1600)
 -->
<!-- Title: src/analysis/plot/CutTree.h Pages: 1 -->
<svg width="1338pt" height="114pt"
 viewBox="0.00 0.00 1338.00 114.00" xmlns="http://www.w3.org/2000/svg" xmlns:xlink="http://www.w3.org/1999/xlink">
<g id="graph1" class="graph" transform="scale(1 1) rotate(0) translate(4 110)">
<title>src/analysis/plot/CutTree.h</title>
<polygon fill="white" stroke="white" points="-4,5 -4,-110 1335,-110 1335,5 -4,5"/>
<!-- Node32 -->
<g id="node1" class="node"><title>Node32</title>
<polygon fill="#bfbfbf" stroke="black" points="591,-84.5 591,-105.5 725,-105.5 725,-84.5 591,-84.5"/>
<text text-anchor="middle" x="658" y="-92.5" font-family="Helvetica,sans-Serif" font-size="10.00">src/analysis/plot/CutTree.h</text>
</g>
<!-- Node33 -->
<g id="node3" class="node"><title>Node33</title>
<a xlink:href="_p_i_d_efficiency_check_8cc.html" target="_top" xlink:title="src/analysis/physics\l/check/PIDEfficiencyCheck.cc">
<polygon fill="white" stroke="black" points="0,-7 0,-41 152,-41 152,-7 0,-7"/>
<text text-anchor="start" x="8" y="-28" font-family="Helvetica,sans-Serif" font-size="10.00">src/analysis/physics</text>
<text text-anchor="middle" x="76" y="-15" font-family="Helvetica,sans-Serif" font-size="10.00">/check/PIDEfficiencyCheck.cc</text>
</a>
</g>
<!-- Node32&#45;&gt;Node33 -->
<g id="edge2" class="edge"><title>Node32&#45;&gt;Node33</title>
<path fill="none" stroke="midnightblue" d="M580.6,-92.0178C482.325,-87.2412 307.875,-75.4464 161,-48 151.203,-46.1692 140.901,-43.7208 130.982,-41.0865"/>
<polygon fill="midnightblue" stroke="midnightblue" points="580.588,-95.5211 590.743,-92.4989 580.92,-88.529 580.588,-95.5211"/>
</g>
<!-- Node34 -->
<g id="node5" class="node"><title>Node34</title>
<a xlink:href="_meson_dalitz_decays__plot_8cc.html" target="_top" xlink:title="src/analysis/physics\l/common/MesonDalitzDecays\l_plot.cc">
<polygon fill="white" stroke="black" points="169.5,-0.5 169.5,-47.5 318.5,-47.5 318.5,-0.5 169.5,-0.5"/>
<text text-anchor="start" x="177.5" y="-34.5" font-family="Helvetica,sans-Serif" font-size="10.00">src/analysis/physics</text>
<text text-anchor="start" x="177.5" y="-21.5" font-family="Helvetica,sans-Serif" font-size="10.00">/common/MesonDalitzDecays</text>
<text text-anchor="middle" x="244" y="-8.5" font-family="Helvetica,sans-Serif" font-size="10.00">_plot.cc</text>
</a>
</g>
<!-- Node32&#45;&gt;Node34 -->
<g id="edge4" class="edge"><title>Node32&#45;&gt;Node34</title>
<path fill="none" stroke="midnightblue" d="M580.827,-87.1485C513.397,-79.5511 413.098,-66.4651 327,-48 324.213,-47.4024 321.383,-46.7612 318.531,-46.0864"/>
<polygon fill="midnightblue" stroke="midnightblue" points="580.62,-90.6469 590.946,-88.2751 581.394,-83.6899 580.62,-90.6469"/>
</g>
<!-- Node35 -->
<g id="node7" class="node"><title>Node35</title>
<a xlink:href="_etap_dalitz__plot_8cc.html" target="_top" xlink:title="src/analysis/physics\l/etaprime/EtapDalitz\l_plot.cc">
<polygon fill="white" stroke="black" points="336,-0.5 336,-47.5 442,-47.5 442,-0.5 336,-0.5"/>
<text text-anchor="start" x="344" y="-34.5" font-family="Helvetica,sans-Serif" font-size="10.00">src/analysis/physics</text>
<text text-anchor="start" x="344" y="-21.5" font-family="Helvetica,sans-Serif" font-size="10.00">/etaprime/EtapDalitz</text>
<text text-anchor="middle" x="389" y="-8.5" font-family="Helvetica,sans-Serif" font-size="10.00">_plot.cc</text>
</a>
</g>
<!-- Node32&#45;&gt;Node35 -->
<g id="edge6" class="edge"><title>Node32&#45;&gt;Node35</title>
<path fill="none" stroke="midnightblue" d="M591.335,-82.4432C550.444,-74.1064 497.237,-62.1157 451,-48 448.13,-47.1238 445.203,-46.178 442.261,-45.1857"/>
<polygon fill="midnightblue" stroke="midnightblue" points="590.693,-85.8842 601.188,-84.4301 592.077,-79.0223 590.693,-85.8842"/>
</g>
<!-- Node36 -->
<g id="node9" class="node"><title>Node36</title>
<a xlink:href="_etap_omega_g__plot_8cc.html" target="_top" xlink:title="src/analysis/physics\l/etaprime/EtapOmegaG\l_plot.cc">
<polygon fill="white" stroke="black" points="459.5,-0.5 459.5,-47.5 578.5,-47.5 578.5,-0.5 459.5,-0.5"/>
<text text-anchor="start" x="467.5" y="-34.5" font-family="Helvetica,sans-Serif" font-size="10.00">src/analysis/physics</text>
<text text-anchor="start" x="467.5" y="-21.5" font-family="Helvetica,sans-Serif" font-size="10.00">/etaprime/EtapOmegaG</text>
<text text-anchor="middle" x="519" y="-8.5" font-family="Helvetica,sans-Serif" font-size="10.00">_plot.cc</text>
</a>
</g>
<!-- Node32&#45;&gt;Node36 -->
<g id="edge8" class="edge"><title>Node32&#45;&gt;Node36</title>
<path fill="none" stroke="midnightblue" d="M628.164,-79.7601C609.854,-70.4073 586.022,-58.2341 565.299,-47.6489"/>
<polygon fill="midnightblue" stroke="midnightblue" points="626.693,-82.9386 637.19,-84.3706 629.877,-76.7047 626.693,-82.9386"/>
</g>
<!-- Node37 -->
<g id="node11" class="node"><title>Node37</title>
<a xlink:href="_omega___eta_g_8cc.html" target="_top" xlink:title="src/analysis/physics\l/omega/Omega_EtaG.cc">
<polygon fill="white" stroke="black" points="595.5,-7 595.5,-41 720.5,-41 720.5,-7 595.5,-7"/>
<text text-anchor="start" x="603.5" y="-28" font-family="Helvetica,sans-Serif" font-size="10.00">src/analysis/physics</text>
<text text-anchor="middle" x="658" y="-15" font-family="Helvetica,sans-Serif" font-size="10.00">/omega/Omega_EtaG.cc</text>
</a>
</g>
<!-- Node32&#45;&gt;Node37 -->
<g id="edge10" class="edge"><title>Node32&#45;&gt;Node37</title>
<path fill="none" stroke="midnightblue" d="M658,-73.9138C658,-63.499 658,-51.0904 658,-41.2508"/>
<polygon fill="midnightblue" stroke="midnightblue" points="654.5,-74.2166 658,-84.2166 661.5,-74.2167 654.5,-74.2166"/>
</g>
<!-- Node38 -->
<g id="node13" class="node"><title>Node38</title>
<a xlink:href="single_pi0_plots_8cc.html" target="_top" xlink:title="src/analysis/physics\l/production/singlePi0Plots.cc">
<polygon fill="white" stroke="black" points="737.5,-7 737.5,-41 880.5,-41 880.5,-7 737.5,-7"/>
<text text-anchor="start" x="745.5" y="-28" font-family="Helvetica,sans-Serif" font-size="10.00">src/analysis/physics</text>
<text text-anchor="middle" x="809" y="-15" font-family="Helvetica,sans-Serif" font-size="10.00">/production/singlePi0Plots.cc</text>
</a>
</g>
<!-- Node32&#45;&gt;Node38 -->
<g id="edge12" class="edge"><title>Node32&#45;&gt;Node38</title>
<path fill="none" stroke="midnightblue" d="M689.735,-80.0782C713.982,-68.6775 747.426,-52.9521 772.73,-41.0543"/>
<polygon fill="midnightblue" stroke="midnightblue" points="688.166,-76.9481 680.606,-84.3706 691.145,-83.2828 688.166,-76.9481"/>
</g>
<!-- Node39 -->
<g id="node15" class="node"><title>Node39</title>
<a xlink:href="triple_pi0_8cc.html" target="_top" xlink:title="src/analysis/physics\l/production/triplePi0.cc">
<polygon fill="white" stroke="black" points="898,-7 898,-41 1014,-41 1014,-7 898,-7"/>
<text text-anchor="start" x="906" y="-28" font-family="Helvetica,sans-Serif" font-size="10.00">src/analysis/physics</text>
<text text-anchor="middle" x="956" y="-15" font-family="Helvetica,sans-Serif" font-size="10.00">/production/triplePi0.cc</text>
</a>
</g>
<!-- Node32&#45;&gt;Node39 -->
<g id="edge14" class="edge"><title>Node32&#45;&gt;Node39</title>
<path fill="none" stroke="midnightblue" d="M732.417,-82.6573C778.007,-74.4064 837.329,-62.4309 889,-48 896.259,-45.9726 903.863,-43.5487 911.235,-41.0324"/>
<polygon fill="midnightblue" stroke="midnightblue" points="731.545,-79.2577 722.318,-84.4649 732.778,-86.1482 731.545,-79.2577"/>
</g>
<!-- Node40 -->
<g id="node17" class="node"><title>Node40</title>
<a xlink:href="triple_pi0_plots_8cc.html" target="_top" xlink:title="src/analysis/physics\l/production/triplePi0Plots.cc">
<polygon fill="white" stroke="black" points="1031.5,-7 1031.5,-41 1170.5,-41 1170.5,-7 1031.5,-7"/>
<text text-anchor="start" x="1039.5" y="-28" font-family="Helvetica,sans-Serif" font-size="10.00">src/analysis/physics</text>
<text text-anchor="middle" x="1101" y="-15" font-family="Helvetica,sans-Serif" font-size="10.00">/production/triplePi0Plots.cc</text>
</a>
</g>
<!-- Node32&#45;&gt;Node40 -->
<g id="edge16" class="edge"><title>Node32&#45;&gt;Node40</title>
<path fill="none" stroke="midnightblue" d="M735.399,-88.8899C809.732,-82.1172 924.895,-69.2471 1023,-48 1031.86,-46.0807 1041.17,-43.621 1050.14,-41.0111"/>
<polygon fill="midnightblue" stroke="midnightblue" points="734.834,-85.4263 725.187,-89.8053 735.459,-92.3984 734.834,-85.4263"/>
</g>
<!-- Node41 -->
<g id="node19" class="node"><title>Node41</title>
<a xlink:href="physics_2tunings_2_trigger_simulation_8cc.html" target="_top" xlink:title="src/analysis/physics\l/tunings/TriggerSimulation.cc">
<polygon fill="white" stroke="black" points="1187.5,-7 1187.5,-41 1330.5,-41 1330.5,-7 1187.5,-7"/>
<text text-anchor="start" x="1195.5" y="-28" font-family="Helvetica,sans-Serif" font-size="10.00">src/analysis/physics</text>
<text text-anchor="middle" x="1259" y="-15" font-family="Helvetica,sans-Serif" font-size="10.00">/tunings/TriggerSimulation.cc</text>
</a>
</g>
<!-- Node32&#45;&gt;Node41 -->
<g id="edge18" class="edge"><title>Node32&#45;&gt;Node41</title>
<path fill="none" stroke="midnightblue" d="M735.467,-92.877C837.834,-88.9663 1023.39,-78.0421 1179,-48 1188.4,-46.1859 1198.27,-43.7119 1207.74,-41.039"/>
<polygon fill="midnightblue" stroke="midnightblue" points="735.083,-89.3887 725.219,-93.2556 735.342,-96.3839 735.083,-89.3887"/>
</g>
</g>
</svg>
