<?xml version="1.0" encoding="UTF-8" standalone="no"?>
<!DOCTYPE svg PUBLIC "-//W3C//DTD SVG 1.1//EN"
 "http://www.w3.org/Graphics/SVG/1.1/DTD/svg11.dtd">
<!-- Generated by graphviz version 2.26.3 (20100126.1600)
 -->
<!-- Title: src/analysis/physics/common/DataOverview.h Pages: 1 -->
<svg width="144pt" height="116pt"
 viewBox="0.00 0.00 144.00 116.00" xmlns="http://www.w3.org/2000/svg" xmlns:xlink="http://www.w3.org/1999/xlink">
<g id="graph1" class="graph" transform="scale(1 1) rotate(0) translate(4 112)">
<title>src/analysis/physics/common/DataOverview.h</title>
<polygon fill="white" stroke="white" points="-4,5 -4,-112 141,-112 141,5 -4,5"/>
<!-- Node88 -->
<g id="node1" class="node"><title>Node88</title>
<polygon fill="#bfbfbf" stroke="black" points="2.5,-73 2.5,-107 133.5,-107 133.5,-73 2.5,-73"/>
<text text-anchor="start" x="10.5" y="-94" font-family="Helvetica,sans-Serif" font-size="10.00">src/analysis/physics</text>
<text text-anchor="middle" x="68" y="-81" font-family="Helvetica,sans-Serif" font-size="10.00">/common/DataOverview.h</text>
</g>
<!-- Node89 -->
<g id="node3" class="node"><title>Node89</title>
<a xlink:href="_data_overview_8cc.html" target="_top" xlink:title="src/analysis/physics\l/common/DataOverview.cc">
<polygon fill="white" stroke="black" points="0,-1 0,-35 136,-35 136,-1 0,-1"/>
<text text-anchor="start" x="8" y="-22" font-family="Helvetica,sans-Serif" font-size="10.00">src/analysis/physics</text>
<text text-anchor="middle" x="68" y="-9" font-family="Helvetica,sans-Serif" font-size="10.00">/common/DataOverview.cc</text>
</a>
</g>
<!-- Node88&#45;&gt;Node89 -->
<g id="edge2" class="edge"><title>Node88&#45;&gt;Node89</title>
<path fill="none" stroke="midnightblue" d="M68,-62.7193C68,-53.572 68,-43.6255 68,-35.4407"/>
<polygon fill="midnightblue" stroke="midnightblue" points="64.5001,-62.937 68,-72.937 71.5001,-62.937 64.5001,-62.937"/>
</g>
</g>
</svg>
