<?xml version="1.0" encoding="UTF-8" standalone="no"?>
<!DOCTYPE svg PUBLIC "-//W3C//DTD SVG 1.1//EN"
 "http://www.w3.org/Graphics/SVG/1.1/DTD/svg11.dtd">
<!-- Generated by graphviz version 2.26.3 (20100126.1600)
 -->
<!-- Title: src/calibration/DataBase.h Pages: 1 -->
<svg width="1280pt" height="102pt"
 viewBox="0.00 0.00 1280.00 102.00" xmlns="http://www.w3.org/2000/svg" xmlns:xlink="http://www.w3.org/1999/xlink">
<g id="graph1" class="graph" transform="scale(1 1) rotate(0) translate(4 98)">
<title>src/calibration/DataBase.h</title>
<polygon fill="white" stroke="white" points="-4,5 -4,-98 1277,-98 1277,5 -4,5"/>
<!-- Node51 -->
<g id="node1" class="node"><title>Node51</title>
<polygon fill="#bfbfbf" stroke="black" points="579,-72.5 579,-93.5 711,-93.5 711,-72.5 579,-72.5"/>
<text text-anchor="middle" x="645" y="-80.5" font-family="Helvetica,sans-Serif" font-size="10.00">src/calibration/DataBase.h</text>
</g>
<!-- Node52 -->
<g id="node3" class="node"><title>Node52</title>
<a xlink:href="_ant-calib-dump_8cc.html" target="_top" xlink:title="progs/Ant&#45;calib&#45;dump.cc">
<polygon fill="white" stroke="black" points="0,-7.5 0,-28.5 122,-28.5 122,-7.5 0,-7.5"/>
<text text-anchor="middle" x="61" y="-15.5" font-family="Helvetica,sans-Serif" font-size="10.00">progs/Ant&#45;calib&#45;dump.cc</text>
</a>
</g>
<!-- Node51&#45;&gt;Node52 -->
<g id="edge2" class="edge"><title>Node51&#45;&gt;Node52</title>
<path fill="none" stroke="midnightblue" d="M568.744,-79.854C467.938,-74.8239 285.08,-62.6771 131,-36 119.996,-34.0948 108.183,-31.3387 97.4526,-28.5537"/>
<polygon fill="midnightblue" stroke="midnightblue" points="568.676,-83.3548 578.835,-80.3474 569.018,-76.3631 568.676,-83.3548"/>
</g>
<!-- Node53 -->
<g id="node5" class="node"><title>Node53</title>
<a xlink:href="_ant-calib-readin_8cc.html" target="_top" xlink:title="progs/Ant&#45;calib&#45;readin.cc">
<polygon fill="white" stroke="black" points="139.5,-7.5 139.5,-28.5 264.5,-28.5 264.5,-7.5 139.5,-7.5"/>
<text text-anchor="middle" x="202" y="-15.5" font-family="Helvetica,sans-Serif" font-size="10.00">progs/Ant&#45;calib&#45;readin.cc</text>
</a>
</g>
<!-- Node51&#45;&gt;Node53 -->
<g id="edge4" class="edge"><title>Node51&#45;&gt;Node53</title>
<path fill="none" stroke="midnightblue" d="M568.4,-76.0931C492.888,-68.6342 374.407,-55.1857 273,-36 262.255,-33.967 250.716,-31.2686 240.13,-28.5812"/>
<polygon fill="midnightblue" stroke="midnightblue" points="568.471,-79.6166 578.764,-77.1058 569.152,-72.6498 568.471,-79.6166"/>
</g>
<!-- Node54 -->
<g id="node7" class="node"><title>Node54</title>
<a xlink:href="_ant-calib-smooth_8cc.html" target="_top" xlink:title="progs/Ant&#45;calib&#45;smooth.cc">
<polygon fill="white" stroke="black" points="281.5,-7.5 281.5,-28.5 412.5,-28.5 412.5,-7.5 281.5,-7.5"/>
<text text-anchor="middle" x="347" y="-15.5" font-family="Helvetica,sans-Serif" font-size="10.00">progs/Ant&#45;calib&#45;smooth.cc</text>
</a>
</g>
<!-- Node51&#45;&gt;Node54 -->
<g id="edge6" class="edge"><title>Node51&#45;&gt;Node54</title>
<path fill="none" stroke="midnightblue" d="M582.492,-70.4388C537.5,-61.2625 475.404,-48.3211 421,-36 410.684,-33.6637 399.589,-31.0297 389.209,-28.5123"/>
<polygon fill="midnightblue" stroke="midnightblue" points="581.899,-73.8898 592.396,-72.4544 583.295,-67.0304 581.899,-73.8898"/>
</g>
<!-- Node55 -->
<g id="node9" class="node"><title>Node55</title>
<a xlink:href="_ant-calib-viewer_8cc.html" target="_top" xlink:title="progs/Ant&#45;calib&#45;viewer.cc">
<polygon fill="white" stroke="black" points="429.5,-7.5 429.5,-28.5 556.5,-28.5 556.5,-7.5 429.5,-7.5"/>
<text text-anchor="middle" x="493" y="-15.5" font-family="Helvetica,sans-Serif" font-size="10.00">progs/Ant&#45;calib&#45;viewer.cc</text>
</a>
</g>
<!-- Node51&#45;&gt;Node55 -->
<g id="edge8" class="edge"><title>Node51&#45;&gt;Node55</title>
<path fill="none" stroke="midnightblue" d="M610.748,-68.3527C582.476,-56.2628 543.029,-39.3942 517.749,-28.5835"/>
<polygon fill="midnightblue" stroke="midnightblue" points="609.67,-71.6981 620.24,-72.412 612.422,-65.2619 609.67,-71.6981"/>
</g>
<!-- Node56 -->
<g id="node11" class="node"><title>Node56</title>
<a xlink:href="_ant-smooth_tagg_eff_8cc.html" target="_top" xlink:title="progs/Ant&#45;smoothTaggEff.cc">
<polygon fill="white" stroke="black" points="574,-7.5 574,-28.5 716,-28.5 716,-7.5 574,-7.5"/>
<text text-anchor="middle" x="645" y="-15.5" font-family="Helvetica,sans-Serif" font-size="10.00">progs/Ant&#45;smoothTaggEff.cc</text>
</a>
</g>
<!-- Node51&#45;&gt;Node56 -->
<g id="edge10" class="edge"><title>Node51&#45;&gt;Node56</title>
<path fill="none" stroke="midnightblue" d="M645,-62.0142C645,-50.8307 645,-37.5583 645,-28.5337"/>
<polygon fill="midnightblue" stroke="midnightblue" points="641.5,-62.2665 645,-72.2666 648.5,-62.2666 641.5,-62.2665"/>
</g>
<!-- Node57 -->
<g id="node13" class="node"><title>Node57</title>
<a xlink:href="_ant_8cc.html" target="_top" xlink:title="Main Ant executable. ">
<polygon fill="white" stroke="black" points="734,-7.5 734,-28.5 806,-28.5 806,-7.5 734,-7.5"/>
<text text-anchor="middle" x="770" y="-15.5" font-family="Helvetica,sans-Serif" font-size="10.00">progs/Ant.cc</text>
</a>
</g>
<!-- Node51&#45;&gt;Node57 -->
<g id="edge12" class="edge"><title>Node51&#45;&gt;Node57</title>
<path fill="none" stroke="midnightblue" d="M674.395,-67.7148C697.547,-55.6754 729.221,-39.2053 749.647,-28.5835"/>
<polygon fill="midnightblue" stroke="midnightblue" points="672.619,-64.6931 665.362,-72.412 675.849,-70.9036 672.619,-64.6931"/>
</g>
<!-- Node58 -->
<g id="node15" class="node"><title>Node58</title>
<a xlink:href="_data_base_8cc.html" target="_top" xlink:title="src/calibration/DataBase.cc">
<polygon fill="white" stroke="black" points="823.5,-7.5 823.5,-28.5 960.5,-28.5 960.5,-7.5 823.5,-7.5"/>
<text text-anchor="middle" x="892" y="-15.5" font-family="Helvetica,sans-Serif" font-size="10.00">src/calibration/DataBase.cc</text>
</a>
</g>
<!-- Node51&#45;&gt;Node58 -->
<g id="edge14" class="edge"><title>Node51&#45;&gt;Node58</title>
<path fill="none" stroke="midnightblue" d="M694.785,-69.8986C741.108,-57.7083 809.253,-39.7754 852.098,-28.5005"/>
<polygon fill="midnightblue" stroke="midnightblue" points="693.739,-66.5546 684.959,-72.4844 695.521,-73.3241 693.739,-66.5546"/>
</g>
<!-- Node59 -->
<g id="node17" class="node"><title>Node59</title>
<a xlink:href="_data_manager_8cc.html" target="_top" xlink:title="src/calibration/DataManager.cc">
<polygon fill="white" stroke="black" points="978,-7.5 978,-28.5 1130,-28.5 1130,-7.5 978,-7.5"/>
<text text-anchor="middle" x="1054" y="-15.5" font-family="Helvetica,sans-Serif" font-size="10.00">src/calibration/DataManager.cc</text>
</a>
</g>
<!-- Node51&#45;&gt;Node59 -->
<g id="edge16" class="edge"><title>Node51&#45;&gt;Node59</title>
<path fill="none" stroke="midnightblue" d="M721.57,-73.3121C787.365,-64.6487 884.679,-51.0277 969,-36 981.326,-33.8033 994.594,-31.1389 1006.9,-28.541"/>
<polygon fill="midnightblue" stroke="midnightblue" points="720.748,-69.8898 711.288,-74.6594 721.658,-76.8304 720.748,-69.8898"/>
</g>
<!-- Node60 -->
<g id="node19" class="node"><title>Node60</title>
<a xlink:href="_test_data_manager_8cc.html" target="_top" xlink:title="test/calibration/TestData\lManager.cc">
<polygon fill="white" stroke="black" points="1148,-1 1148,-35 1272,-35 1272,-1 1148,-1"/>
<text text-anchor="start" x="1156" y="-22" font-family="Helvetica,sans-Serif" font-size="10.00">test/calibration/TestData</text>
<text text-anchor="middle" x="1210" y="-9" font-family="Helvetica,sans-Serif" font-size="10.00">Manager.cc</text>
</a>
</g>
<!-- Node51&#45;&gt;Node60 -->
<g id="edge18" class="edge"><title>Node51&#45;&gt;Node60</title>
<path fill="none" stroke="midnightblue" d="M721.41,-79.3725C818.898,-73.9122 992.452,-61.3933 1139,-36 1141.88,-35.5006 1144.82,-34.9457 1147.78,-34.3493"/>
<polygon fill="midnightblue" stroke="midnightblue" points="721.143,-75.8819 711.35,-79.926 721.527,-82.8713 721.143,-75.8819"/>
</g>
</g>
</svg>
