<?xml version="1.0" encoding="UTF-8" standalone="no"?>
<!DOCTYPE svg PUBLIC "-//W3C//DTD SVG 1.1//EN"
 "http://www.w3.org/Graphics/SVG/1.1/DTD/svg11.dtd">
<!-- Generated by graphviz version 2.26.3 (20100126.1600)
 -->
<!-- Title: src/expconfig/detectors/EPT.h Pages: 1 -->
<svg width="1914pt" height="368pt"
 viewBox="0.00 0.00 1914.00 368.00" xmlns="http://www.w3.org/2000/svg" xmlns:xlink="http://www.w3.org/1999/xlink">
<g id="graph1" class="graph" transform="scale(1 1) rotate(0) translate(4 364)">
<title>src/expconfig/detectors/EPT.h</title>
<polygon fill="white" stroke="white" points="-4,5 -4,-364 1911,-364 1911,5 -4,5"/>
<!-- Node56 -->
<g id="node1" class="node"><title>Node56</title>
<polygon fill="#bfbfbf" stroke="black" points="811.5,-325 811.5,-359 930.5,-359 930.5,-325 811.5,-325"/>
<text text-anchor="start" x="819.5" y="-346" font-family="Helvetica,sans-Serif" font-size="10.00">src/expconfig/detectors</text>
<text text-anchor="middle" x="871" y="-333" font-family="Helvetica,sans-Serif" font-size="10.00">/EPT.h</text>
</g>
<!-- Node57 -->
<g id="node3" class="node"><title>Node57</title>
<a xlink:href="tagg_eff_classes_8cc.html" target="_top" xlink:title="progs/detail/taggEffClasses.cc">
<polygon fill="white" stroke="black" points="-0.5,-253.5 -0.5,-274.5 150.5,-274.5 150.5,-253.5 -0.5,-253.5"/>
<text text-anchor="middle" x="75" y="-261.5" font-family="Helvetica,sans-Serif" font-size="10.00">progs/detail/taggEffClasses.cc</text>
</a>
</g>
<!-- Node56&#45;&gt;Node57 -->
<g id="edge2" class="edge"><title>Node56&#45;&gt;Node57</title>
<path fill="none" stroke="midnightblue" d="M800.997,-338.501C646.617,-330.489 280.972,-309.817 159,-288 141.233,-284.822 121.833,-279.413 106.158,-274.533"/>
<polygon fill="midnightblue" stroke="midnightblue" points="801.131,-342.012 811.298,-339.033 801.492,-335.022 801.131,-342.012"/>
</g>
<!-- Node58 -->
<g id="node5" class="node"><title>Node58</title>
<a xlink:href="_etap_omega_g__plot_8cc.html" target="_top" xlink:title="src/analysis/physics\l/etaprime/EtapOmegaG\l_plot.cc">
<polygon fill="white" stroke="black" points="167.5,-240.5 167.5,-287.5 286.5,-287.5 286.5,-240.5 167.5,-240.5"/>
<text text-anchor="start" x="175.5" y="-274.5" font-family="Helvetica,sans-Serif" font-size="10.00">src/analysis/physics</text>
<text text-anchor="start" x="175.5" y="-261.5" font-family="Helvetica,sans-Serif" font-size="10.00">/etaprime/EtapOmegaG</text>
<text text-anchor="middle" x="227" y="-248.5" font-family="Helvetica,sans-Serif" font-size="10.00">_plot.cc</text>
</a>
</g>
<!-- Node56&#45;&gt;Node58 -->
<g id="edge4" class="edge"><title>Node56&#45;&gt;Node58</title>
<path fill="none" stroke="midnightblue" d="M801.006,-340.399C692.59,-336.798 477.989,-325.186 300,-288 295.691,-287.1 291.279,-286.033 286.864,-284.857"/>
<polygon fill="midnightblue" stroke="midnightblue" points="801.055,-343.902 811.162,-340.723 801.279,-336.906 801.055,-343.902"/>
</g>
<!-- Node59 -->
<g id="node7" class="node"><title>Node59</title>
<a xlink:href="single_pi0_plots_8cc.html" target="_top" xlink:title="src/analysis/physics\l/production/singlePi0Plots.cc">
<polygon fill="white" stroke="black" points="703.5,-79 703.5,-113 846.5,-113 846.5,-79 703.5,-79"/>
<text text-anchor="start" x="711.5" y="-100" font-family="Helvetica,sans-Serif" font-size="10.00">src/analysis/physics</text>
<text text-anchor="middle" x="775" y="-87" font-family="Helvetica,sans-Serif" font-size="10.00">/production/singlePi0Plots.cc</text>
</a>
</g>
<!-- Node56&#45;&gt;Node59 -->
<g id="edge6" class="edge"><title>Node56&#45;&gt;Node59</title>
<path fill="none" stroke="midnightblue" d="M859.379,-315.294C855.67,-306.618 851.597,-296.927 848,-288 822.147,-223.829 793.555,-146.656 781.222,-113.038"/>
<polygon fill="midnightblue" stroke="midnightblue" points="856.2,-316.76 863.367,-324.562 862.63,-313.993 856.2,-316.76"/>
</g>
<!-- Node60 -->
<g id="node9" class="node"><title>Node60</title>
<a xlink:href="triple_pi0_plots_8cc.html" target="_top" xlink:title="src/analysis/physics\l/production/triplePi0Plots.cc">
<polygon fill="white" stroke="black" points="115.5,-79 115.5,-113 254.5,-113 254.5,-79 115.5,-79"/>
<text text-anchor="start" x="123.5" y="-100" font-family="Helvetica,sans-Serif" font-size="10.00">src/analysis/physics</text>
<text text-anchor="middle" x="185" y="-87" font-family="Helvetica,sans-Serif" font-size="10.00">/production/triplePi0Plots.cc</text>
</a>
</g>
<!-- Node56&#45;&gt;Node60 -->
<g id="edge8" class="edge"><title>Node56&#45;&gt;Node60</title>
<path fill="none" stroke="midnightblue" d="M801.171,-334.789C694.746,-321.51 487.987,-286.586 333,-204 283.594,-177.674 232.168,-136.499 204.852,-113.336"/>
<polygon fill="midnightblue" stroke="midnightblue" points="800.801,-338.269 811.152,-336.007 801.65,-331.321 800.801,-338.269"/>
</g>
<!-- Node61 -->
<g id="node11" class="node"><title>Node61</title>
<a xlink:href="src_2analysis_2physics_2scratch_2wolfes_2tools_2tools_8h.html" target="_top" xlink:title="src/analysis/physics\l/scratch/wolfes/tools\l/tools.h">
<polygon fill="white" stroke="black" points="572.5,-240.5 572.5,-287.5 679.5,-287.5 679.5,-240.5 572.5,-240.5"/>
<text text-anchor="start" x="580.5" y="-274.5" font-family="Helvetica,sans-Serif" font-size="10.00">src/analysis/physics</text>
<text text-anchor="start" x="580.5" y="-261.5" font-family="Helvetica,sans-Serif" font-size="10.00">/scratch/wolfes/tools</text>
<text text-anchor="middle" x="626" y="-248.5" font-family="Helvetica,sans-Serif" font-size="10.00">/tools.h</text>
</a>
</g>
<!-- Node56&#45;&gt;Node61 -->
<g id="edge10" class="edge"><title>Node56&#45;&gt;Node61</title>
<path fill="none" stroke="midnightblue" d="M807.955,-321.928C768.258,-309.29 717.564,-293.151 679.772,-281.119"/>
<polygon fill="midnightblue" stroke="midnightblue" points="806.946,-325.28 817.536,-324.979 809.07,-318.61 806.946,-325.28"/>
</g>
<!-- Node68 -->
<g id="node29" class="node"><title>Node68</title>
<a xlink:href="_e_p_t___scalers_8h.html" target="_top" xlink:title="src/analysis/slowcontrol\l/processors/EPT_Scalers.h">
<polygon fill="white" stroke="black" points="856.5,-247 856.5,-281 993.5,-281 993.5,-247 856.5,-247"/>
<text text-anchor="start" x="864.5" y="-268" font-family="Helvetica,sans-Serif" font-size="10.00">src/analysis/slowcontrol</text>
<text text-anchor="middle" x="925" y="-255" font-family="Helvetica,sans-Serif" font-size="10.00">/processors/EPT_Scalers.h</text>
</a>
</g>
<!-- Node56&#45;&gt;Node68 -->
<g id="edge32" class="edge"><title>Node56&#45;&gt;Node68</title>
<path fill="none" stroke="midnightblue" d="M888.783,-316.314C896.746,-304.812 905.925,-291.553 913.049,-281.262"/>
<polygon fill="midnightblue" stroke="midnightblue" points="885.799,-314.475 882.984,-324.689 891.554,-318.46 885.799,-314.475"/>
</g>
<!-- Node80 -->
<g id="node54" class="node"><title>Node80</title>
<a xlink:href="_e_p_t__2014__elements_8h.html" target="_top" xlink:title="src/expconfig/detectors\l/detail/EPT_2014_elements.h">
<polygon fill="white" stroke="black" points="1034.5,-247 1034.5,-281 1179.5,-281 1179.5,-247 1034.5,-247"/>
<text text-anchor="start" x="1042.5" y="-268" font-family="Helvetica,sans-Serif" font-size="10.00">src/expconfig/detectors</text>
<text text-anchor="middle" x="1107" y="-255" font-family="Helvetica,sans-Serif" font-size="10.00">/detail/EPT_2014_elements.h</text>
</a>
</g>
<!-- Node56&#45;&gt;Node80 -->
<g id="edge58" class="edge"><title>Node56&#45;&gt;Node80</title>
<path fill="none" stroke="midnightblue" d="M932.458,-321.688C970.587,-309.086 1019.03,-293.075 1055.2,-281.119"/>
<polygon fill="midnightblue" stroke="midnightblue" points="930.896,-318.518 922.5,-324.979 933.093,-325.164 930.896,-318.518"/>
</g>
<!-- Node81 -->
<g id="node56" class="node"><title>Node81</title>
<a xlink:href="_e_p_t_8cc.html" target="_top" xlink:title="src/expconfig/detectors\l/EPT.cc">
<polygon fill="white" stroke="black" points="1155.5,-163 1155.5,-197 1274.5,-197 1274.5,-163 1155.5,-163"/>
<text text-anchor="start" x="1163.5" y="-184" font-family="Helvetica,sans-Serif" font-size="10.00">src/expconfig/detectors</text>
<text text-anchor="middle" x="1215" y="-171" font-family="Helvetica,sans-Serif" font-size="10.00">/EPT.cc</text>
</a>
</g>
<!-- Node56&#45;&gt;Node81 -->
<g id="edge62" class="edge"><title>Node56&#45;&gt;Node81</title>
<path fill="none" stroke="midnightblue" d="M940.546,-338.855C1022.77,-333.691 1152.91,-320.508 1188,-288 1213.38,-264.488 1216.47,-221.054 1216.03,-197.053"/>
<polygon fill="midnightblue" stroke="midnightblue" points="940.289,-335.364 930.518,-339.46 940.711,-342.351 940.289,-335.364"/>
</g>
<!-- Node82 -->
<g id="node59" class="node"><title>Node82</title>
<a xlink:href="_setup__2014___e_p_t_8h.html" target="_top" xlink:title="src/expconfig/setups\l/Setup_2014_EPT.h">
<polygon fill="white" stroke="black" points="1397.5,-247 1397.5,-281 1504.5,-281 1504.5,-247 1397.5,-247"/>
<text text-anchor="start" x="1405.5" y="-268" font-family="Helvetica,sans-Serif" font-size="10.00">src/expconfig/setups</text>
<text text-anchor="middle" x="1451" y="-255" font-family="Helvetica,sans-Serif" font-size="10.00">/Setup_2014_EPT.h</text>
</a>
</g>
<!-- Node56&#45;&gt;Node82 -->
<g id="edge64" class="edge"><title>Node56&#45;&gt;Node82</title>
<path fill="none" stroke="midnightblue" d="M940.553,-332.646C1057.69,-316.893 1291.85,-285.403 1397.32,-271.219"/>
<polygon fill="midnightblue" stroke="midnightblue" points="940.059,-329.181 930.615,-333.983 940.992,-336.119 940.059,-329.181"/>
</g>
<!-- Node87 -->
<g id="node69" class="node"><title>Node87</title>
<a xlink:href="expconfig__helpers_8cc.html" target="_top" xlink:title="test/expconfig_helpers.cc">
<polygon fill="white" stroke="black" points="1522,-253.5 1522,-274.5 1650,-274.5 1650,-253.5 1522,-253.5"/>
<text text-anchor="middle" x="1586" y="-261.5" font-family="Helvetica,sans-Serif" font-size="10.00">test/expconfig_helpers.cc</text>
</a>
</g>
<!-- Node56&#45;&gt;Node87 -->
<g id="edge74" class="edge"><title>Node56&#45;&gt;Node87</title>
<path fill="none" stroke="midnightblue" d="M941.027,-338.182C1084.03,-330.044 1405.2,-309.939 1513,-288 1528.56,-284.834 1545.42,-279.425 1559.02,-274.543"/>
<polygon fill="midnightblue" stroke="midnightblue" points="940.418,-334.71 930.632,-338.77 940.814,-341.699 940.418,-334.71"/>
</g>
<!-- Node61&#45;&gt;Node59 -->
<g id="edge18" class="edge"><title>Node61&#45;&gt;Node59</title>
<path fill="none" stroke="midnightblue" d="M689.267,-248.905C713.995,-239.866 740.358,-225.746 757,-204 777.332,-177.432 778.216,-136.348 776.782,-113.265"/>
<polygon fill="midnightblue" stroke="midnightblue" points="687.858,-245.688 679.533,-252.242 690.128,-252.309 687.858,-245.688"/>
</g>
<!-- Node62 -->
<g id="node13" class="node"><title>Node62</title>
<a xlink:href="single_pi0_8h.html" target="_top" xlink:title="src/analysis/physics\l/production/singlePi0.h">
<polygon fill="white" stroke="black" points="632,-163 632,-197 748,-197 748,-163 632,-163"/>
<text text-anchor="start" x="640" y="-184" font-family="Helvetica,sans-Serif" font-size="10.00">src/analysis/physics</text>
<text text-anchor="middle" x="690" y="-171" font-family="Helvetica,sans-Serif" font-size="10.00">/production/singlePi0.h</text>
</a>
</g>
<!-- Node61&#45;&gt;Node62 -->
<g id="edge12" class="edge"><title>Node61&#45;&gt;Node62</title>
<path fill="none" stroke="midnightblue" d="M650.248,-232.175C659.287,-220.311 669.205,-207.294 676.872,-197.23"/>
<polygon fill="midnightblue" stroke="midnightblue" points="647.445,-230.078 644.169,-240.154 653.013,-234.32 647.445,-230.078"/>
</g>
<!-- Node64 -->
<g id="node19" class="node"><title>Node64</title>
<a xlink:href="triple_pi0_8h.html" target="_top" xlink:title="src/analysis/physics\l/production/triplePi0.h">
<polygon fill="white" stroke="black" points="341.5,-163 341.5,-197 452.5,-197 452.5,-163 341.5,-163"/>
<text text-anchor="start" x="349.5" y="-184" font-family="Helvetica,sans-Serif" font-size="10.00">src/analysis/physics</text>
<text text-anchor="middle" x="397" y="-171" font-family="Helvetica,sans-Serif" font-size="10.00">/production/triplePi0.h</text>
</a>
</g>
<!-- Node61&#45;&gt;Node64 -->
<g id="edge20" class="edge"><title>Node61&#45;&gt;Node64</title>
<path fill="none" stroke="midnightblue" d="M562.908,-240.857C525.072,-226.978 477.784,-209.633 443.385,-197.014"/>
<polygon fill="midnightblue" stroke="midnightblue" points="561.716,-244.148 572.31,-244.306 564.127,-237.576 561.716,-244.148"/>
</g>
<!-- Node66 -->
<g id="node24" class="node"><title>Node66</title>
<a xlink:href="_proton_vertex_test_8cc.html" target="_top" xlink:title="src/analysis/physics\l/scratch/wolfes/ProtonVertex\lTest.cc">
<polygon fill="white" stroke="black" points="405.5,-72.5 405.5,-119.5 548.5,-119.5 548.5,-72.5 405.5,-72.5"/>
<text text-anchor="start" x="413.5" y="-106.5" font-family="Helvetica,sans-Serif" font-size="10.00">src/analysis/physics</text>
<text text-anchor="start" x="413.5" y="-93.5" font-family="Helvetica,sans-Serif" font-size="10.00">/scratch/wolfes/ProtonVertex</text>
<text text-anchor="middle" x="477" y="-80.5" font-family="Helvetica,sans-Serif" font-size="10.00">Test.cc</text>
</a>
</g>
<!-- Node61&#45;&gt;Node66 -->
<g id="edge28" class="edge"><title>Node61&#45;&gt;Node66</title>
<path fill="none" stroke="midnightblue" d="M562.951,-247.379C539.631,-238.21 515.006,-224.404 499,-204 479.985,-179.761 476.186,-143.293 475.985,-119.566"/>
<polygon fill="midnightblue" stroke="midnightblue" points="561.897,-250.721 572.49,-250.91 564.327,-244.156 561.897,-250.721"/>
</g>
<!-- Node67 -->
<g id="node27" class="node"><title>Node67</title>
<a xlink:href="tools_8cc.html" target="_top" xlink:title="src/analysis/physics\l/scratch/wolfes/tools\l/tools.cc">
<polygon fill="white" stroke="black" points="507.5,-156.5 507.5,-203.5 614.5,-203.5 614.5,-156.5 507.5,-156.5"/>
<text text-anchor="start" x="515.5" y="-190.5" font-family="Helvetica,sans-Serif" font-size="10.00">src/analysis/physics</text>
<text text-anchor="start" x="515.5" y="-177.5" font-family="Helvetica,sans-Serif" font-size="10.00">/scratch/wolfes/tools</text>
<text text-anchor="middle" x="561" y="-164.5" font-family="Helvetica,sans-Serif" font-size="10.00">/tools.cc</text>
</a>
</g>
<!-- Node61&#45;&gt;Node67 -->
<g id="edge30" class="edge"><title>Node61&#45;&gt;Node67</title>
<path fill="none" stroke="midnightblue" d="M601.302,-232.082C593.985,-222.626 586.107,-212.445 579.274,-203.615"/>
<polygon fill="midnightblue" stroke="midnightblue" points="598.66,-234.387 607.547,-240.154 604.196,-230.103 598.66,-234.387"/>
</g>
<!-- Node62&#45;&gt;Node59 -->
<g id="edge16" class="edge"><title>Node62&#45;&gt;Node59</title>
<path fill="none" stroke="midnightblue" d="M714.897,-155.396C728.648,-141.807 745.385,-125.267 757.701,-113.095"/>
<polygon fill="midnightblue" stroke="midnightblue" points="712.265,-153.077 707.612,-162.595 717.185,-158.055 712.265,-153.077"/>
</g>
<!-- Node63 -->
<g id="node15" class="node"><title>Node63</title>
<a xlink:href="single_pi0_8cc.html" target="_top" xlink:title="src/analysis/physics\l/production/singlePi0.cc">
<polygon fill="white" stroke="black" points="565.5,-79 565.5,-113 686.5,-113 686.5,-79 565.5,-79"/>
<text text-anchor="start" x="573.5" y="-100" font-family="Helvetica,sans-Serif" font-size="10.00">src/analysis/physics</text>
<text text-anchor="middle" x="626" y="-87" font-family="Helvetica,sans-Serif" font-size="10.00">/production/singlePi0.cc</text>
</a>
</g>
<!-- Node62&#45;&gt;Node63 -->
<g id="edge14" class="edge"><title>Node62&#45;&gt;Node63</title>
<path fill="none" stroke="midnightblue" d="M670.676,-154.638C660.435,-141.196 648.127,-125.041 639.025,-113.095"/>
<polygon fill="midnightblue" stroke="midnightblue" points="667.895,-156.762 676.739,-162.595 673.463,-152.52 667.895,-156.762"/>
</g>
<!-- Node64&#45;&gt;Node60 -->
<g id="edge24" class="edge"><title>Node64&#45;&gt;Node60</title>
<path fill="none" stroke="midnightblue" d="M344.516,-159.204C308.669,-145.001 261.754,-126.412 228.096,-113.076"/>
<polygon fill="midnightblue" stroke="midnightblue" points="343.257,-162.47 353.843,-162.9 345.836,-155.963 343.257,-162.47"/>
</g>
<!-- Node65 -->
<g id="node21" class="node"><title>Node65</title>
<a xlink:href="triple_pi0_8cc.html" target="_top" xlink:title="src/analysis/physics\l/production/triplePi0.cc">
<polygon fill="white" stroke="black" points="272,-79 272,-113 388,-113 388,-79 272,-79"/>
<text text-anchor="start" x="280" y="-100" font-family="Helvetica,sans-Serif" font-size="10.00">src/analysis/physics</text>
<text text-anchor="middle" x="330" y="-87" font-family="Helvetica,sans-Serif" font-size="10.00">/production/triplePi0.cc</text>
</a>
</g>
<!-- Node64&#45;&gt;Node65 -->
<g id="edge22" class="edge"><title>Node64&#45;&gt;Node65</title>
<path fill="none" stroke="midnightblue" d="M376.771,-154.638C366.049,-141.196 353.164,-125.041 343.635,-113.095"/>
<polygon fill="midnightblue" stroke="midnightblue" points="374.146,-156.96 383.118,-162.595 379.618,-152.595 374.146,-156.96"/>
</g>
<!-- Node64&#45;&gt;Node66 -->
<g id="edge26" class="edge"><title>Node64&#45;&gt;Node66</title>
<path fill="none" stroke="midnightblue" d="M420.614,-155.206C431.282,-144.004 443.83,-130.828 454.378,-119.753"/>
<polygon fill="midnightblue" stroke="midnightblue" points="417.938,-152.94 413.576,-162.595 423.007,-157.768 417.938,-152.94"/>
</g>
<!-- Node69 -->
<g id="node31" class="node"><title>Node69</title>
<a xlink:href="_slow_control_processors_8h.html" target="_top" xlink:title="src/analysis/slowcontrol\l/SlowControlProcessors.h">
<polygon fill="white" stroke="black" points="1007.5,-163 1007.5,-197 1138.5,-197 1138.5,-163 1007.5,-163"/>
<text text-anchor="start" x="1015.5" y="-184" font-family="Helvetica,sans-Serif" font-size="10.00">src/analysis/slowcontrol</text>
<text text-anchor="middle" x="1073" y="-171" font-family="Helvetica,sans-Serif" font-size="10.00">/SlowControlProcessors.h</text>
</a>
</g>
<!-- Node68&#45;&gt;Node69 -->
<g id="edge34" class="edge"><title>Node68&#45;&gt;Node69</title>
<path fill="none" stroke="midnightblue" d="M964.077,-241.821C988.788,-227.796 1020.24,-209.945 1042.99,-197.035"/>
<polygon fill="midnightblue" stroke="midnightblue" points="962.276,-238.819 955.307,-246.799 965.732,-244.906 962.276,-238.819"/>
</g>
<!-- Node70 -->
<g id="node33" class="node"><title>Node70</title>
<a xlink:href="_slow_control_manager_8h.html" target="_top" xlink:title="src/analysis/slowcontrol\l/SlowControlManager.h">
<polygon fill="white" stroke="black" points="1300,-79 1300,-113 1422,-113 1422,-79 1300,-79"/>
<text text-anchor="start" x="1308" y="-100" font-family="Helvetica,sans-Serif" font-size="10.00">src/analysis/slowcontrol</text>
<text text-anchor="middle" x="1361" y="-87" font-family="Helvetica,sans-Serif" font-size="10.00">/SlowControlManager.h</text>
</a>
</g>
<!-- Node69&#45;&gt;Node70 -->
<g id="edge36" class="edge"><title>Node69&#45;&gt;Node70</title>
<path fill="none" stroke="midnightblue" d="M1133.89,-159.885C1138.32,-158.536 1142.72,-157.227 1147,-156 1210.41,-137.813 1227.74,-138.715 1291,-120 1298.15,-117.886 1305.65,-115.498 1312.97,-113.069"/>
<polygon fill="midnightblue" stroke="midnightblue" points="1132.73,-156.582 1124.21,-162.887 1134.8,-163.268 1132.73,-156.582"/>
</g>
<!-- Node73 -->
<g id="node39" class="node"><title>Node73</title>
<a xlink:href="_test_slow_control_manager_8cc.html" target="_top" xlink:title="test/analysis/TestSlowControl\lManager.cc">
<polygon fill="white" stroke="black" points="1404,-1 1404,-35 1552,-35 1552,-1 1404,-1"/>
<text text-anchor="start" x="1412" y="-22" font-family="Helvetica,sans-Serif" font-size="10.00">test/analysis/TestSlowControl</text>
<text text-anchor="middle" x="1478" y="-9" font-family="Helvetica,sans-Serif" font-size="10.00">Manager.cc</text>
</a>
</g>
<!-- Node69&#45;&gt;Node73 -->
<g id="edge56" class="edge"><title>Node69&#45;&gt;Node73</title>
<path fill="none" stroke="midnightblue" d="M1130.88,-160.091C1136.3,-158.574 1141.73,-157.178 1147,-156 1209.08,-142.126 1379.69,-157.61 1431,-120 1458.83,-99.5969 1470.65,-58.6471 1475.29,-35.3164"/>
<polygon fill="midnightblue" stroke="midnightblue" points="1129.81,-156.758 1121.2,-162.931 1131.78,-163.475 1129.81,-156.758"/>
</g>
<!-- Node74 -->
<g id="node41" class="node"><title>Node74</title>
<a xlink:href="_slow_control_processors_8cc.html" target="_top" xlink:title="src/analysis/slowcontrol\l/SlowControlProcessors.cc">
<polygon fill="white" stroke="black" points="1478,-79 1478,-113 1614,-113 1614,-79 1478,-79"/>
<text text-anchor="start" x="1486" y="-100" font-family="Helvetica,sans-Serif" font-size="10.00">src/analysis/slowcontrol</text>
<text text-anchor="middle" x="1546" y="-87" font-family="Helvetica,sans-Serif" font-size="10.00">/SlowControlProcessors.cc</text>
</a>
</g>
<!-- Node69&#45;&gt;Node74 -->
<g id="edge44" class="edge"><title>Node69&#45;&gt;Node74</title>
<path fill="none" stroke="midnightblue" d="M1130.61,-160.088C1136.11,-158.559 1141.64,-157.162 1147,-156 1285.58,-125.977 1325,-148.018 1464,-120 1473.31,-118.124 1483.08,-115.686 1492.52,-113.085"/>
<polygon fill="midnightblue" stroke="midnightblue" points="1129.4,-156.797 1120.78,-162.96 1131.36,-163.516 1129.4,-156.797"/>
</g>
<!-- Node75 -->
<g id="node43" class="node"><title>Node75</title>
<a xlink:href="_beam_8cc.html" target="_top" xlink:title="src/analysis/slowcontrol\l/variables/Beam.cc">
<polygon fill="white" stroke="black" points="1632,-79 1632,-113 1754,-113 1754,-79 1632,-79"/>
<text text-anchor="start" x="1640" y="-100" font-family="Helvetica,sans-Serif" font-size="10.00">src/analysis/slowcontrol</text>
<text text-anchor="middle" x="1693" y="-87" font-family="Helvetica,sans-Serif" font-size="10.00">/variables/Beam.cc</text>
</a>
</g>
<!-- Node69&#45;&gt;Node75 -->
<g id="edge46" class="edge"><title>Node69&#45;&gt;Node75</title>
<path fill="none" stroke="midnightblue" d="M1129.64,-160.127C1135.45,-158.54 1141.31,-157.121 1147,-156 1355.16,-114.983 1415.19,-162.751 1623,-120 1631.43,-118.266 1640.24,-115.795 1648.66,-113.093"/>
<polygon fill="midnightblue" stroke="midnightblue" points="1128.56,-156.793 1119.93,-162.932 1130.51,-163.518 1128.56,-156.793"/>
</g>
<!-- Node76 -->
<g id="node45" class="node"><title>Node76</title>
<a xlink:href="_clocks_8cc.html" target="_top" xlink:title="src/analysis/slowcontrol\l/variables/Clocks.cc">
<polygon fill="white" stroke="black" points="1772,-79 1772,-113 1894,-113 1894,-79 1772,-79"/>
<text text-anchor="start" x="1780" y="-100" font-family="Helvetica,sans-Serif" font-size="10.00">src/analysis/slowcontrol</text>
<text text-anchor="middle" x="1833" y="-87" font-family="Helvetica,sans-Serif" font-size="10.00">/variables/Clocks.cc</text>
</a>
</g>
<!-- Node69&#45;&gt;Node76 -->
<g id="edge48" class="edge"><title>Node69&#45;&gt;Node76</title>
<path fill="none" stroke="midnightblue" d="M1129.36,-160.096C1135.26,-158.501 1141.22,-157.088 1147,-156 1416.51,-105.285 1493.92,-172.961 1763,-120 1771.57,-118.313 1780.53,-115.829 1789.06,-113.09"/>
<polygon fill="midnightblue" stroke="midnightblue" points="1128.15,-156.801 1119.51,-162.928 1130.09,-163.528 1128.15,-156.801"/>
</g>
<!-- Node77 -->
<g id="node47" class="node"><title>Node77</title>
<a xlink:href="variables_2_pair_spec_8cc.html" target="_top" xlink:title="src/analysis/slowcontrol\l/variables/Pairspec.cc">
<polygon fill="white" stroke="black" points="864,-79 864,-113 986,-113 986,-79 864,-79"/>
<text text-anchor="start" x="872" y="-100" font-family="Helvetica,sans-Serif" font-size="10.00">src/analysis/slowcontrol</text>
<text text-anchor="middle" x="925" y="-87" font-family="Helvetica,sans-Serif" font-size="10.00">/variables/Pairspec.cc</text>
</a>
</g>
<!-- Node69&#45;&gt;Node77 -->
<g id="edge50" class="edge"><title>Node69&#45;&gt;Node77</title>
<path fill="none" stroke="midnightblue" d="M1033.92,-157.821C1009.21,-143.796 977.761,-125.945 955.013,-113.035"/>
<polygon fill="midnightblue" stroke="midnightblue" points="1032.27,-160.906 1042.69,-162.799 1035.72,-154.819 1032.27,-160.906"/>
</g>
<!-- Node78 -->
<g id="node49" class="node"><title>Node78</title>
<a xlink:href="_tagger_scalers_8cc.html" target="_top" xlink:title="src/analysis/slowcontrol\l/variables/TaggerScalers.cc">
<polygon fill="white" stroke="black" points="1004,-79 1004,-113 1142,-113 1142,-79 1004,-79"/>
<text text-anchor="start" x="1012" y="-100" font-family="Helvetica,sans-Serif" font-size="10.00">src/analysis/slowcontrol</text>
<text text-anchor="middle" x="1073" y="-87" font-family="Helvetica,sans-Serif" font-size="10.00">/variables/TaggerScalers.cc</text>
</a>
</g>
<!-- Node69&#45;&gt;Node78 -->
<g id="edge52" class="edge"><title>Node69&#45;&gt;Node78</title>
<path fill="none" stroke="midnightblue" d="M1073,-152.33C1073,-139.38 1073,-124.365 1073,-113.095"/>
<polygon fill="midnightblue" stroke="midnightblue" points="1069.5,-152.595 1073,-162.595 1076.5,-152.595 1069.5,-152.595"/>
</g>
<!-- Node79 -->
<g id="node51" class="node"><title>Node79</title>
<a xlink:href="analysis_2slowcontrol_2variables_2_trigger_8cc.html" target="_top" xlink:title="src/analysis/slowcontrol\l/variables/Trigger.cc">
<polygon fill="white" stroke="black" points="1160,-79 1160,-113 1282,-113 1282,-79 1160,-79"/>
<text text-anchor="start" x="1168" y="-100" font-family="Helvetica,sans-Serif" font-size="10.00">src/analysis/slowcontrol</text>
<text text-anchor="middle" x="1221" y="-87" font-family="Helvetica,sans-Serif" font-size="10.00">/variables/Trigger.cc</text>
</a>
</g>
<!-- Node69&#45;&gt;Node79 -->
<g id="edge54" class="edge"><title>Node69&#45;&gt;Node79</title>
<path fill="none" stroke="midnightblue" d="M1112.08,-157.821C1136.79,-143.796 1168.24,-125.945 1190.99,-113.035"/>
<polygon fill="midnightblue" stroke="midnightblue" points="1110.28,-154.819 1103.31,-162.799 1113.73,-160.906 1110.28,-154.819"/>
</g>
<!-- Node71 -->
<g id="node35" class="node"><title>Node71</title>
<a xlink:href="_physics_manager_8cc.html" target="_top" xlink:title="src/analysis/physics\l/PhysicsManager.cc">
<polygon fill="white" stroke="black" points="1280,-1 1280,-35 1386,-35 1386,-1 1280,-1"/>
<text text-anchor="start" x="1288" y="-22" font-family="Helvetica,sans-Serif" font-size="10.00">src/analysis/physics</text>
<text text-anchor="middle" x="1333" y="-9" font-family="Helvetica,sans-Serif" font-size="10.00">/PhysicsManager.cc</text>
</a>
</g>
<!-- Node70&#45;&gt;Node71 -->
<g id="edge38" class="edge"><title>Node70&#45;&gt;Node71</title>
<path fill="none" stroke="midnightblue" d="M1351.29,-68.9528C1347.28,-57.7762 1342.75,-45.1498 1339.2,-35.2623"/>
<polygon fill="midnightblue" stroke="midnightblue" points="1348.11,-70.4599 1354.79,-78.6893 1354.7,-68.0948 1348.11,-70.4599"/>
</g>
<!-- Node72 -->
<g id="node37" class="node"><title>Node72</title>
<a xlink:href="_slow_control_manager_8cc.html" target="_top" xlink:title="src/analysis/slowcontrol\l/SlowControlManager.cc">
<polygon fill="white" stroke="black" points="1138,-1 1138,-35 1262,-35 1262,-1 1138,-1"/>
<text text-anchor="start" x="1146" y="-22" font-family="Helvetica,sans-Serif" font-size="10.00">src/analysis/slowcontrol</text>
<text text-anchor="middle" x="1200" y="-9" font-family="Helvetica,sans-Serif" font-size="10.00">/SlowControlManager.cc</text>
</a>
</g>
<!-- Node70&#45;&gt;Node72 -->
<g id="edge40" class="edge"><title>Node70&#45;&gt;Node72</title>
<path fill="none" stroke="midnightblue" d="M1316.53,-74.4556C1290.9,-62.0403 1259.14,-46.6513 1235.25,-35.0775"/>
<polygon fill="midnightblue" stroke="midnightblue" points="1315.14,-77.6723 1325.67,-78.8826 1318.19,-71.3727 1315.14,-77.6723"/>
</g>
<!-- Node70&#45;&gt;Node73 -->
<g id="edge42" class="edge"><title>Node70&#45;&gt;Node73</title>
<path fill="none" stroke="midnightblue" d="M1395.29,-73.138C1413.55,-60.965 1435.63,-46.2452 1452.38,-35.0775"/>
<polygon fill="midnightblue" stroke="midnightblue" points="1393.06,-70.4233 1386.68,-78.8826 1396.94,-76.2477 1393.06,-70.4233"/>
</g>
<!-- Node80&#45;&gt;Node81 -->
<g id="edge60" class="edge"><title>Node80&#45;&gt;Node81</title>
<path fill="none" stroke="midnightblue" d="M1137.4,-240.353C1155.06,-226.621 1176.9,-209.63 1192.91,-197.178"/>
<polygon fill="midnightblue" stroke="midnightblue" points="1134.86,-237.896 1129.12,-246.799 1139.16,-243.422 1134.86,-237.896"/>
</g>
<!-- Node83 -->
<g id="node61" class="node"><title>Node83</title>
<a xlink:href="_setup__2014__07___e_p_t___prod_8cc.html" target="_top" xlink:title="src/expconfig/setups\l/Setup_2014_07_EPT_Prod.cc">
<polygon fill="white" stroke="black" points="1755.5,-163 1755.5,-197 1906.5,-197 1906.5,-163 1755.5,-163"/>
<text text-anchor="start" x="1763.5" y="-184" font-family="Helvetica,sans-Serif" font-size="10.00">src/expconfig/setups</text>
<text text-anchor="middle" x="1831" y="-171" font-family="Helvetica,sans-Serif" font-size="10.00">/Setup_2014_07_EPT_Prod.cc</text>
</a>
</g>
<!-- Node82&#45;&gt;Node83 -->
<g id="edge66" class="edge"><title>Node82&#45;&gt;Node83</title>
<path fill="none" stroke="midnightblue" d="M1500.77,-243.666C1504.87,-242.317 1508.99,-241.072 1513,-240 1614.66,-212.848 1644.21,-226.498 1747,-204 1756.04,-202.022 1765.54,-199.624 1774.77,-197.118"/>
<polygon fill="midnightblue" stroke="midnightblue" points="1499.57,-240.379 1491.27,-246.967 1501.86,-246.992 1499.57,-240.379"/>
</g>
<!-- Node84 -->
<g id="node63" class="node"><title>Node84</title>
<a xlink:href="_setup__2014__10___e_p_t___prod_8cc.html" target="_top" xlink:title="src/expconfig/setups\l/Setup_2014_10_EPT_Prod.cc">
<polygon fill="white" stroke="black" points="1291.5,-163 1291.5,-197 1442.5,-197 1442.5,-163 1291.5,-163"/>
<text text-anchor="start" x="1299.5" y="-184" font-family="Helvetica,sans-Serif" font-size="10.00">src/expconfig/setups</text>
<text text-anchor="middle" x="1367" y="-171" font-family="Helvetica,sans-Serif" font-size="10.00">/Setup_2014_10_EPT_Prod.cc</text>
</a>
</g>
<!-- Node82&#45;&gt;Node84 -->
<g id="edge68" class="edge"><title>Node82&#45;&gt;Node84</title>
<path fill="none" stroke="midnightblue" d="M1426.4,-239.396C1412.81,-225.807 1396.27,-209.267 1384.1,-197.095"/>
<polygon fill="midnightblue" stroke="midnightblue" points="1424.05,-241.999 1433.6,-246.595 1429,-237.049 1424.05,-241.999"/>
</g>
<!-- Node85 -->
<g id="node65" class="node"><title>Node85</title>
<a xlink:href="_setup__2014__12___e_p_t___prod_8cc.html" target="_top" xlink:title="src/expconfig/setups\l/Setup_2014_12_EPT_Prod.cc">
<polygon fill="white" stroke="black" points="1459.5,-163 1459.5,-197 1610.5,-197 1610.5,-163 1459.5,-163"/>
<text text-anchor="start" x="1467.5" y="-184" font-family="Helvetica,sans-Serif" font-size="10.00">src/expconfig/setups</text>
<text text-anchor="middle" x="1535" y="-171" font-family="Helvetica,sans-Serif" font-size="10.00">/Setup_2014_12_EPT_Prod.cc</text>
</a>
</g>
<!-- Node82&#45;&gt;Node85 -->
<g id="edge70" class="edge"><title>Node82&#45;&gt;Node85</title>
<path fill="none" stroke="midnightblue" d="M1475.6,-239.396C1489.19,-225.807 1505.73,-209.267 1517.9,-197.095"/>
<polygon fill="midnightblue" stroke="midnightblue" points="1473,-237.049 1468.4,-246.595 1477.95,-241.999 1473,-237.049"/>
</g>
<!-- Node86 -->
<g id="node67" class="node"><title>Node86</title>
<a xlink:href="_setup__2014___e_p_t_8cc.html" target="_top" xlink:title="src/expconfig/setups\l/Setup_2014_EPT.cc">
<polygon fill="white" stroke="black" points="1628,-163 1628,-197 1738,-197 1738,-163 1628,-163"/>
<text text-anchor="start" x="1636" y="-184" font-family="Helvetica,sans-Serif" font-size="10.00">src/expconfig/setups</text>
<text text-anchor="middle" x="1683" y="-171" font-family="Helvetica,sans-Serif" font-size="10.00">/Setup_2014_EPT.cc</text>
</a>
</g>
<!-- Node82&#45;&gt;Node86 -->
<g id="edge72" class="edge"><title>Node82&#45;&gt;Node86</title>
<path fill="none" stroke="midnightblue" d="M1503.71,-243.424C1506.85,-242.252 1509.96,-241.103 1513,-240 1559.77,-223.016 1572.15,-220.737 1619,-204 1625.15,-201.804 1631.61,-199.445 1637.96,-197.092"/>
<polygon fill="midnightblue" stroke="midnightblue" points="1502.39,-240.179 1494.27,-246.983 1504.87,-246.728 1502.39,-240.179"/>
</g>
</g>
</svg>
