<?xml version="1.0" encoding="UTF-8" standalone="no"?>
<!DOCTYPE svg PUBLIC "-//W3C//DTD SVG 1.1//EN"
 "http://www.w3.org/Graphics/SVG/1.1/DTD/svg11.dtd">
<!-- Generated by graphviz version 2.26.3 (20100126.1600)
 -->
<!-- Title: src/calibration/gui/EditorWindow.cc Pages: 1 -->
<svg width="1876pt" height="464pt"
 viewBox="0.00 0.00 1876.00 464.00" xmlns="http://www.w3.org/2000/svg" xmlns:xlink="http://www.w3.org/1999/xlink">
<g id="graph1" class="graph" transform="scale(1 1) rotate(0) translate(4 460)">
<title>src/calibration/gui/EditorWindow.cc</title>
<polygon fill="white" stroke="white" points="-4,5 -4,-460 1873,-460 1873,5 -4,5"/>
<!-- Node0 -->
<g id="node1" class="node"><title>Node0</title>
<polygon fill="#bfbfbf" stroke="black" points="1302,-421 1302,-455 1396,-455 1396,-421 1302,-421"/>
<text text-anchor="start" x="1310" y="-442" font-family="Helvetica,sans-Serif" font-size="10.00">src/calibration/gui</text>
<text text-anchor="middle" x="1349" y="-429" font-family="Helvetica,sans-Serif" font-size="10.00">/EditorWindow.cc</text>
</g>
<!-- Node1 -->
<g id="node3" class="node"><title>Node1</title>
<a xlink:href="_editor_window_8h.html" target="_top" xlink:title="EditorWindow.h">
<polygon fill="white" stroke="black" points="1026,-362.5 1026,-383.5 1112,-383.5 1112,-362.5 1026,-362.5"/>
<text text-anchor="middle" x="1069" y="-370.5" font-family="Helvetica,sans-Serif" font-size="10.00">EditorWindow.h</text>
</a>
</g>
<!-- Node0&#45;&gt;Node1 -->
<g id="edge2" class="edge"><title>Node0&#45;&gt;Node1</title>
<path fill="none" stroke="midnightblue" d="M1301.82,-427.047C1252.14,-415.515 1174.08,-397.394 1122.23,-385.358"/>
<polygon fill="midnightblue" stroke="midnightblue" points="1122.76,-381.887 1112.23,-383.035 1121.18,-388.706 1122.76,-381.887"/>
</g>
<!-- Node7 -->
<g id="node15" class="node"><title>Node7</title>
<a xlink:href="string_8h.html" target="_top" xlink:title="base/std_ext/string.h">
<polygon fill="white" stroke="black" points="298,-58.5 298,-79.5 406,-79.5 406,-58.5 298,-58.5"/>
<text text-anchor="middle" x="352" y="-66.5" font-family="Helvetica,sans-Serif" font-size="10.00">base/std_ext/string.h</text>
</a>
</g>
<!-- Node0&#45;&gt;Node7 -->
<g id="edge66" class="edge"><title>Node0&#45;&gt;Node7</title>
<path fill="none" stroke="midnightblue" d="M1301.79,-437.033C1146.29,-433.531 651.26,-419.782 496,-384 409.381,-364.038 311,-396.89 311,-308 311,-308 311,-308 311,-185 311,-149.462 328.318,-111.12 340.444,-88.6296"/>
<polygon fill="midnightblue" stroke="midnightblue" points="343.585,-90.183 345.413,-79.747 337.476,-86.7655 343.585,-90.183"/>
</g>
<!-- Node9 -->
<g id="node19" class="node"><title>Node9</title>
<polygon fill="white" stroke="#bfbfbf" points="326,-0.5 326,-21.5 378,-21.5 378,-0.5 326,-0.5"/>
<text text-anchor="middle" x="352" y="-8.5" font-family="Helvetica,sans-Serif" font-size="10.00">sstream</text>
</g>
<!-- Node0&#45;&gt;Node9 -->
<g id="edge144" class="edge"><title>Node0&#45;&gt;Node9</title>
<path fill="none" stroke="midnightblue" d="M1301.93,-437.052C1114.7,-433.068 428.543,-416.374 337,-384 282.688,-364.793 232,-365.608 232,-308 232,-308 232,-308 232,-127 232,-78.8559 282.549,-44.3417 318.031,-26.0454"/>
<polygon fill="midnightblue" stroke="midnightblue" points="319.732,-29.109 327.136,-21.5307 316.622,-22.8376 319.732,-29.109"/>
</g>
<!-- Node14 -->
<g id="node29" class="node"><title>Node14</title>
<polygon fill="white" stroke="#bfbfbf" points="1190,-116.5 1190,-137.5 1252,-137.5 1252,-116.5 1190,-116.5"/>
<text text-anchor="middle" x="1221" y="-124.5" font-family="Helvetica,sans-Serif" font-size="10.00">type_traits</text>
</g>
<!-- Node0&#45;&gt;Node14 -->
<g id="edge142" class="edge"><title>Node0&#45;&gt;Node14</title>
<path fill="none" stroke="midnightblue" d="M1338.87,-420.734C1316.53,-381.916 1262.74,-284.236 1234,-196 1228.88,-180.27 1225.53,-161.825 1223.52,-147.965"/>
<polygon fill="midnightblue" stroke="midnightblue" points="1226.98,-147.42 1222.18,-137.972 1220.04,-148.348 1226.98,-147.42"/>
</g>
<!-- Node19 -->
<g id="node39" class="node"><title>Node19</title>
<polygon fill="white" stroke="#bfbfbf" points="1309,-116.5 1309,-137.5 1359,-137.5 1359,-116.5 1309,-116.5"/>
<text text-anchor="middle" x="1334" y="-124.5" font-family="Helvetica,sans-Serif" font-size="10.00">iomanip</text>
</g>
<!-- Node0&#45;&gt;Node19 -->
<g id="edge146" class="edge"><title>Node0&#45;&gt;Node19</title>
<path fill="none" stroke="midnightblue" d="M1349,-420.757C1349,-395.861 1349,-348.399 1349,-308 1349,-308 1349,-308 1349,-243 1349,-209.494 1342.77,-170.991 1338.34,-147.851"/>
<polygon fill="midnightblue" stroke="midnightblue" points="1341.73,-146.94 1336.34,-137.815 1334.86,-148.305 1341.73,-146.94"/>
</g>
<!-- Node27 -->
<g id="node62" class="node"><title>Node27</title>
<a xlink:href="memory_8h.html" target="_top" xlink:title="base/std_ext/memory.h">
<polygon fill="white" stroke="black" points="545.5,-174.5 545.5,-195.5 664.5,-195.5 664.5,-174.5 545.5,-174.5"/>
<text text-anchor="middle" x="605" y="-182.5" font-family="Helvetica,sans-Serif" font-size="10.00">base/std_ext/memory.h</text>
</a>
</g>
<!-- Node0&#45;&gt;Node27 -->
<g id="edge68" class="edge"><title>Node0&#45;&gt;Node27</title>
<path fill="none" stroke="midnightblue" d="M1301.86,-436.777C1158.22,-432.715 727.558,-417.955 592,-384 530.629,-368.628 496.437,-379.074 462,-326 427.251,-272.446 515.366,-223.368 568.366,-199.76"/>
<polygon fill="midnightblue" stroke="midnightblue" points="570.04,-202.849 577.816,-195.653 567.249,-196.429 570.04,-202.849"/>
</g>
<!-- Node28 -->
<g id="node66" class="node"><title>Node28</title>
<a xlink:href="_editor_canvas_8h.html" target="_top" xlink:title="calibration/gui/EditorCanvas.h">
<polygon fill="white" stroke="black" points="600.5,-362.5 600.5,-383.5 747.5,-383.5 747.5,-362.5 600.5,-362.5"/>
<text text-anchor="middle" x="674" y="-370.5" font-family="Helvetica,sans-Serif" font-size="10.00">calibration/gui/EditorCanvas.h</text>
</a>
</g>
<!-- Node0&#45;&gt;Node28 -->
<g id="edge74" class="edge"><title>Node0&#45;&gt;Node28</title>
<path fill="none" stroke="midnightblue" d="M1301.8,-433.455C1188.67,-422.561 900.828,-394.843 757.59,-381.049"/>
<polygon fill="midnightblue" stroke="midnightblue" points="757.82,-377.555 747.531,-380.081 757.149,-384.523 757.82,-377.555"/>
</g>
<!-- Node39 -->
<g id="node104" class="node"><title>Node39</title>
<polygon fill="white" stroke="#bfbfbf" points="1376.5,-362.5 1376.5,-383.5 1429.5,-383.5 1429.5,-362.5 1376.5,-362.5"/>
<text text-anchor="middle" x="1403" y="-370.5" font-family="Helvetica,sans-Serif" font-size="10.00">TExec.h</text>
</g>
<!-- Node0&#45;&gt;Node39 -->
<g id="edge128" class="edge"><title>Node0&#45;&gt;Node39</title>
<path fill="none" stroke="midnightblue" d="M1363.19,-420.922C1370.65,-411.937 1379.82,-400.905 1387.47,-391.691"/>
<polygon fill="midnightblue" stroke="midnightblue" points="1390.29,-393.781 1393.98,-383.852 1384.9,-389.307 1390.29,-393.781"/>
</g>
<!-- Node40 -->
<g id="node106" class="node"><title>Node40</title>
<polygon fill="white" stroke="#bfbfbf" points="1446.5,-362.5 1446.5,-383.5 1525.5,-383.5 1525.5,-362.5 1446.5,-362.5"/>
<text text-anchor="middle" x="1486" y="-370.5" font-family="Helvetica,sans-Serif" font-size="10.00">TApplication.h</text>
</g>
<!-- Node0&#45;&gt;Node40 -->
<g id="edge130" class="edge"><title>Node0&#45;&gt;Node40</title>
<path fill="none" stroke="midnightblue" d="M1385,-420.922C1406.49,-410.726 1433.53,-397.894 1454.23,-388.074"/>
<polygon fill="midnightblue" stroke="midnightblue" points="1456,-391.107 1463.54,-383.658 1453,-384.783 1456,-391.107"/>
</g>
<!-- Node41 -->
<g id="node108" class="node"><title>Node41</title>
<polygon fill="white" stroke="#bfbfbf" points="1542.5,-362.5 1542.5,-383.5 1607.5,-383.5 1607.5,-362.5 1542.5,-362.5"/>
<text text-anchor="middle" x="1575" y="-370.5" font-family="Helvetica,sans-Serif" font-size="10.00">TSystem.h</text>
</g>
<!-- Node0&#45;&gt;Node41 -->
<g id="edge132" class="edge"><title>Node0&#45;&gt;Node41</title>
<path fill="none" stroke="midnightblue" d="M1396.1,-424.453C1436.24,-412.909 1493.43,-396.461 1532.26,-385.292"/>
<polygon fill="midnightblue" stroke="midnightblue" points="1533.57,-388.559 1542.21,-382.431 1531.63,-381.832 1533.57,-388.559"/>
</g>
<!-- Node42 -->
<g id="node110" class="node"><title>Node42</title>
<polygon fill="white" stroke="#bfbfbf" points="1624.5,-362.5 1624.5,-383.5 1691.5,-383.5 1691.5,-362.5 1624.5,-362.5"/>
<text text-anchor="middle" x="1658" y="-370.5" font-family="Helvetica,sans-Serif" font-size="10.00">TGButton.h</text>
</g>
<!-- Node0&#45;&gt;Node42 -->
<g id="edge134" class="edge"><title>Node0&#45;&gt;Node42</title>
<path fill="none" stroke="midnightblue" d="M1396.44,-429.246C1447.87,-419.568 1532.58,-403.085 1614.18,-384.347"/>
<polygon fill="midnightblue" stroke="midnightblue" points="1615.16,-387.713 1624.11,-382.051 1613.58,-380.893 1615.16,-387.713"/>
</g>
<!-- Node43 -->
<g id="node112" class="node"><title>Node43</title>
<polygon fill="white" stroke="#bfbfbf" points="1708.5,-362.5 1708.5,-383.5 1767.5,-383.5 1767.5,-362.5 1708.5,-362.5"/>
<text text-anchor="middle" x="1738" y="-370.5" font-family="Helvetica,sans-Serif" font-size="10.00">TROOT.h</text>
</g>
<!-- Node0&#45;&gt;Node43 -->
<g id="edge136" class="edge"><title>Node0&#45;&gt;Node43</title>
<path fill="none" stroke="midnightblue" d="M1396.2,-432.704C1462.01,-424.889 1585.16,-408.701 1698.35,-384.179"/>
<polygon fill="midnightblue" stroke="midnightblue" points="1699.21,-387.575 1708.22,-382.014 1697.71,-380.738 1699.21,-387.575"/>
</g>
<!-- Node44 -->
<g id="node114" class="node"><title>Node44</title>
<a xlink:href="_logger_8h.html" target="_top" xlink:title="base/Logger.h">
<polygon fill="white" stroke="black" points="1785,-362.5 1785,-383.5 1863,-383.5 1863,-362.5 1785,-362.5"/>
<text text-anchor="middle" x="1824" y="-370.5" font-family="Helvetica,sans-Serif" font-size="10.00">base/Logger.h</text>
</a>
</g>
<!-- Node0&#45;&gt;Node44 -->
<g id="edge138" class="edge"><title>Node0&#45;&gt;Node44</title>
<path fill="none" stroke="midnightblue" d="M1396.3,-433.571C1473.54,-426.001 1631.66,-409.086 1774.92,-384.062"/>
<polygon fill="midnightblue" stroke="midnightblue" points="1775.53,-387.508 1784.77,-382.324 1774.32,-380.615 1775.53,-387.508"/>
</g>
<!-- Node2 -->
<g id="node5" class="node"><title>Node2</title>
<a xlink:href="_editor_8h.html" target="_top" xlink:title="calibration/Editor.h">
<polygon fill="white" stroke="black" points="793,-297.5 793,-318.5 891,-318.5 891,-297.5 793,-297.5"/>
<text text-anchor="middle" x="842" y="-305.5" font-family="Helvetica,sans-Serif" font-size="10.00">calibration/Editor.h</text>
</a>
</g>
<!-- Node1&#45;&gt;Node2 -->
<g id="edge4" class="edge"><title>Node1&#45;&gt;Node2</title>
<path fill="none" stroke="midnightblue" d="M1029.97,-362.5C995.661,-353.183 944.408,-339.063 900,-326 895.131,-324.568 890.042,-323.038 884.988,-321.497"/>
<polygon fill="midnightblue" stroke="midnightblue" points="885.966,-318.136 875.379,-318.545 883.91,-324.827 885.966,-318.136"/>
</g>
<!-- Node8 -->
<g id="node17" class="node"><title>Node8</title>
<polygon fill="white" stroke="#bfbfbf" points="787.5,-0.5 787.5,-21.5 828.5,-21.5 828.5,-0.5 787.5,-0.5"/>
<text text-anchor="middle" x="808" y="-8.5" font-family="Helvetica,sans-Serif" font-size="10.00">string</text>
</g>
<!-- Node1&#45;&gt;Node8 -->
<g id="edge62" class="edge"><title>Node1&#45;&gt;Node8</title>
<path fill="none" stroke="midnightblue" d="M1112.04,-365.953C1159.38,-357.538 1231.69,-342.513 1254,-326 1339.36,-262.813 1431.84,-200.868 1368,-116 1303.54,-30.3103 946.615,-14.4517 838.83,-11.6043"/>
<polygon fill="midnightblue" stroke="midnightblue" points="838.711,-8.10043 828.628,-11.3547 838.54,-15.0983 838.711,-8.10043"/>
</g>
<!-- Node21 -->
<g id="node47" class="node"><title>Node21</title>
<a xlink:href="_indicator__traits_8h.html" target="_top" xlink:title="calibration/gui/Indicator\l_traits.h">
<polygon fill="white" stroke="black" points="658.5,-291 658.5,-325 775.5,-325 775.5,-291 658.5,-291"/>
<text text-anchor="start" x="666.5" y="-312" font-family="Helvetica,sans-Serif" font-size="10.00">calibration/gui/Indicator</text>
<text text-anchor="middle" x="717" y="-299" font-family="Helvetica,sans-Serif" font-size="10.00">_traits.h</text>
</a>
</g>
<!-- Node1&#45;&gt;Node21 -->
<g id="edge50" class="edge"><title>Node1&#45;&gt;Node21</title>
<path fill="none" stroke="midnightblue" d="M1025.78,-367.232C971.689,-359.714 876.064,-345.438 785.611,-326.252"/>
<polygon fill="midnightblue" stroke="midnightblue" points="786.258,-322.811 775.746,-324.135 784.789,-329.655 786.258,-322.811"/>
</g>
<!-- Node22 -->
<g id="node50" class="node"><title>Node22</title>
<polygon fill="white" stroke="#bfbfbf" points="1179,-297.5 1179,-318.5 1245,-318.5 1245,-297.5 1179,-297.5"/>
<text text-anchor="middle" x="1212" y="-305.5" font-family="Helvetica,sans-Serif" font-size="10.00">TGFrame.h</text>
</g>
<!-- Node1&#45;&gt;Node22 -->
<g id="edge54" class="edge"><title>Node1&#45;&gt;Node22</title>
<path fill="none" stroke="midnightblue" d="M1092.29,-362.412C1115.98,-351.647 1152.87,-334.878 1179.44,-322.801"/>
<polygon fill="midnightblue" stroke="midnightblue" points="1181.06,-325.908 1188.72,-318.584 1178.16,-319.535 1181.06,-325.908"/>
</g>
<!-- Node23 -->
<g id="node52" class="node"><title>Node23</title>
<polygon fill="white" stroke="#bfbfbf" points="1029,-297.5 1029,-318.5 1109,-318.5 1109,-297.5 1029,-297.5"/>
<text text-anchor="middle" x="1069" y="-305.5" font-family="Helvetica,sans-Serif" font-size="10.00">KeySymbols.h</text>
</g>
<!-- Node1&#45;&gt;Node23 -->
<g id="edge56" class="edge"><title>Node1&#45;&gt;Node23</title>
<path fill="none" stroke="midnightblue" d="M1069,-362.267C1069,-353.18 1069,-339.892 1069,-328.74"/>
<polygon fill="midnightblue" stroke="midnightblue" points="1072.5,-328.534 1069,-318.534 1065.5,-328.534 1072.5,-328.534"/>
</g>
<!-- Node24 -->
<g id="node54" class="node"><title>Node24</title>
<polygon fill="white" stroke="#bfbfbf" points="908.5,-297.5 908.5,-318.5 973.5,-318.5 973.5,-297.5 908.5,-297.5"/>
<text text-anchor="middle" x="941" y="-305.5" font-family="Helvetica,sans-Serif" font-size="10.00">TCanvas.h</text>
</g>
<!-- Node1&#45;&gt;Node24 -->
<g id="edge58" class="edge"><title>Node1&#45;&gt;Node24</title>
<path fill="none" stroke="midnightblue" d="M1048.15,-362.412C1027.14,-351.741 994.507,-335.172 970.774,-323.12"/>
<polygon fill="midnightblue" stroke="midnightblue" points="972.342,-319.991 961.841,-318.584 969.173,-326.232 972.342,-319.991"/>
</g>
<!-- Node25 -->
<g id="node56" class="node"><title>Node25</title>
<polygon fill="white" stroke="#bfbfbf" points="1126.5,-297.5 1126.5,-318.5 1161.5,-318.5 1161.5,-297.5 1126.5,-297.5"/>
<text text-anchor="middle" x="1144" y="-305.5" font-family="Helvetica,sans-Serif" font-size="10.00">map</text>
</g>
<!-- Node1&#45;&gt;Node25 -->
<g id="edge60" class="edge"><title>Node1&#45;&gt;Node25</title>
<path fill="none" stroke="midnightblue" d="M1081.38,-362.267C1092.96,-352.233 1110.45,-337.078 1124,-325.331"/>
<polygon fill="midnightblue" stroke="midnightblue" points="1126.58,-327.728 1131.85,-318.534 1122,-322.438 1126.58,-327.728"/>
</g>
<!-- Node26 -->
<g id="node59" class="node"><title>Node26</title>
<polygon fill="white" stroke="#bfbfbf" points="608,-116.5 608,-137.5 660,-137.5 660,-116.5 608,-116.5"/>
<text text-anchor="middle" x="634" y="-124.5" font-family="Helvetica,sans-Serif" font-size="10.00">memory</text>
</g>
<!-- Node1&#45;&gt;Node26 -->
<g id="edge64" class="edge"><title>Node1&#45;&gt;Node26</title>
<path fill="none" stroke="midnightblue" d="M1057.79,-362.262C1034.53,-339.982 983.066,-290.729 982,-290 876.987,-218.163 735.307,-162.898 669.869,-139.381"/>
<polygon fill="midnightblue" stroke="midnightblue" points="671.004,-136.07 660.41,-136.012 668.656,-142.664 671.004,-136.07"/>
</g>
<!-- Node3 -->
<g id="node7" class="node"><title>Node3</title>
<a xlink:href="_t_calibration_data_8h.html" target="_top" xlink:title="tree/TCalibrationData.h">
<polygon fill="white" stroke="black" points="945,-232.5 945,-253.5 1063,-253.5 1063,-232.5 945,-232.5"/>
<text text-anchor="middle" x="1004" y="-240.5" font-family="Helvetica,sans-Serif" font-size="10.00">tree/TCalibrationData.h</text>
</a>
</g>
<!-- Node2&#45;&gt;Node3 -->
<g id="edge6" class="edge"><title>Node2&#45;&gt;Node3</title>
<path fill="none" stroke="midnightblue" d="M868.389,-297.412C895.572,-286.505 938.114,-269.436 968.294,-257.327"/>
<polygon fill="midnightblue" stroke="midnightblue" points="969.645,-260.556 977.623,-253.584 967.038,-254.059 969.645,-260.556"/>
</g>
<!-- Node4 -->
<g id="node9" class="node"><title>Node4</title>
<a xlink:href="_t_i_d_8h.html" target="_top" xlink:title="TID.h">
<polygon fill="white" stroke="black" points="983.5,-174.5 983.5,-195.5 1024.5,-195.5 1024.5,-174.5 983.5,-174.5"/>
<text text-anchor="middle" x="1004" y="-182.5" font-family="Helvetica,sans-Serif" font-size="10.00">TID.h</text>
</a>
</g>
<!-- Node3&#45;&gt;Node4 -->
<g id="edge8" class="edge"><title>Node3&#45;&gt;Node4</title>
<path fill="none" stroke="midnightblue" d="M1004,-232.362C1004,-224.922 1004,-214.743 1004,-205.728"/>
<polygon fill="midnightblue" stroke="midnightblue" points="1007.5,-205.571 1004,-195.571 1000.5,-205.571 1007.5,-205.571"/>
</g>
<!-- Node3&#45;&gt;Node8 -->
<g id="edge46" class="edge"><title>Node3&#45;&gt;Node8</title>
<path fill="none" stroke="midnightblue" d="M983.984,-232.267C954.475,-215.572 899.116,-180.809 865,-138 838.789,-105.11 821.874,-58.2489 813.728,-31.6101"/>
<polygon fill="midnightblue" stroke="midnightblue" points="817.035,-30.4491 810.859,-21.8404 810.319,-32.4214 817.035,-30.4491"/>
</g>
<!-- Node13 -->
<g id="node27" class="node"><title>Node13</title>
<polygon fill="white" stroke="#bfbfbf" points="983.5,-58.5 983.5,-79.5 1024.5,-79.5 1024.5,-58.5 983.5,-58.5"/>
<text text-anchor="middle" x="1004" y="-66.5" font-family="Helvetica,sans-Serif" font-size="10.00">ctime</text>
</g>
<!-- Node3&#45;&gt;Node13 -->
<g id="edge48" class="edge"><title>Node3&#45;&gt;Node13</title>
<path fill="none" stroke="midnightblue" d="M1033.37,-232.406C1084.11,-212.455 1179.4,-166.727 1143,-116 1130.23,-98.1979 1071.86,-83.0987 1034.94,-75.108"/>
<polygon fill="midnightblue" stroke="midnightblue" points="1035.2,-71.587 1024.7,-72.9537 1033.76,-78.4371 1035.2,-71.587"/>
</g>
<!-- Node20 -->
<g id="node42" class="node"><title>Node20</title>
<a xlink:href="_git_info_8h.html" target="_top" xlink:title="base/GitInfo.h">
<polygon fill="white" stroke="black" points="1243,-174.5 1243,-195.5 1321,-195.5 1321,-174.5 1243,-174.5"/>
<text text-anchor="middle" x="1282" y="-182.5" font-family="Helvetica,sans-Serif" font-size="10.00">base/GitInfo.h</text>
</a>
</g>
<!-- Node3&#45;&gt;Node20 -->
<g id="edge42" class="edge"><title>Node3&#45;&gt;Node20</title>
<path fill="none" stroke="midnightblue" d="M1054.34,-232.497C1104.99,-221.93 1182.59,-205.739 1232.82,-195.26"/>
<polygon fill="midnightblue" stroke="midnightblue" points="1233.72,-198.647 1242.8,-193.179 1232.29,-191.795 1233.72,-198.647"/>
</g>
<!-- Node5 -->
<g id="node11" class="node"><title>Node5</title>
<polygon fill="white" stroke="#bfbfbf" points="724,-116.5 724,-137.5 780,-137.5 780,-116.5 724,-116.5"/>
<text text-anchor="middle" x="752" y="-124.5" font-family="Helvetica,sans-Serif" font-size="10.00">Rtypes.h</text>
</g>
<!-- Node4&#45;&gt;Node5 -->
<g id="edge10" class="edge"><title>Node4&#45;&gt;Node5</title>
<path fill="none" stroke="midnightblue" d="M983.378,-180.254C941.082,-170.519 843.964,-148.166 789.966,-135.738"/>
<polygon fill="midnightblue" stroke="midnightblue" points="790.619,-132.297 780.089,-133.465 789.049,-139.119 790.619,-132.297"/>
</g>
<!-- Node6 -->
<g id="node13" class="node"><title>Node6</title>
<a xlink:href="base_2std__ext_2_time_8h.html" target="_top" xlink:title="base/std_ext/time.h">
<polygon fill="white" stroke="black" points="873.5,-116.5 873.5,-137.5 976.5,-137.5 976.5,-116.5 873.5,-116.5"/>
<text text-anchor="middle" x="925" y="-124.5" font-family="Helvetica,sans-Serif" font-size="10.00">base/std_ext/time.h</text>
</a>
</g>
<!-- Node4&#45;&gt;Node6 -->
<g id="edge12" class="edge"><title>Node4&#45;&gt;Node6</title>
<path fill="none" stroke="midnightblue" d="M989.51,-174.362C977.817,-165.777 961.157,-153.546 947.697,-143.664"/>
<polygon fill="midnightblue" stroke="midnightblue" points="949.53,-140.667 939.398,-137.571 945.387,-146.31 949.53,-140.667"/>
</g>
<!-- Node4&#45;&gt;Node13 -->
<g id="edge40" class="edge"><title>Node4&#45;&gt;Node13</title>
<path fill="none" stroke="midnightblue" d="M1004,-174.295C1004,-155.131 1004,-114.654 1004,-89.8434"/>
<polygon fill="midnightblue" stroke="midnightblue" points="1007.5,-89.6792 1004,-79.6792 1000.5,-89.6792 1007.5,-89.6792"/>
</g>
<!-- Node4&#45;&gt;Node14 -->
<g id="edge28" class="edge"><title>Node4&#45;&gt;Node14</title>
<path fill="none" stroke="midnightblue" d="M1024.81,-179.439C1060.48,-169.903 1133.95,-150.268 1180.16,-137.916"/>
<polygon fill="midnightblue" stroke="midnightblue" points="1181.11,-141.286 1189.86,-135.322 1179.3,-134.523 1181.11,-141.286"/>
</g>
<!-- Node15 -->
<g id="node31" class="node"><title>Node15</title>
<polygon fill="white" stroke="#bfbfbf" points="1096,-116.5 1096,-137.5 1134,-137.5 1134,-116.5 1096,-116.5"/>
<text text-anchor="middle" x="1115" y="-124.5" font-family="Helvetica,sans-Serif" font-size="10.00">tuple</text>
</g>
<!-- Node4&#45;&gt;Node15 -->
<g id="edge30" class="edge"><title>Node4&#45;&gt;Node15</title>
<path fill="none" stroke="midnightblue" d="M1024.1,-174.497C1041.6,-165.351 1067.17,-151.993 1086.73,-141.771"/>
<polygon fill="midnightblue" stroke="midnightblue" points="1088.55,-144.77 1095.79,-137.037 1085.31,-138.566 1088.55,-144.77"/>
</g>
<!-- Node16 -->
<g id="node33" class="node"><title>Node16</title>
<polygon fill="white" stroke="#bfbfbf" points="1032,-116.5 1032,-137.5 1078,-137.5 1078,-116.5 1032,-116.5"/>
<text text-anchor="middle" x="1055" y="-124.5" font-family="Helvetica,sans-Serif" font-size="10.00">cstdint</text>
</g>
<!-- Node4&#45;&gt;Node16 -->
<g id="edge32" class="edge"><title>Node4&#45;&gt;Node16</title>
<path fill="none" stroke="midnightblue" d="M1013.35,-174.362C1020.54,-166.186 1030.64,-154.702 1039.09,-145.091"/>
<polygon fill="midnightblue" stroke="midnightblue" points="1041.73,-147.392 1045.71,-137.571 1036.47,-142.769 1041.73,-147.392"/>
</g>
<!-- Node17 -->
<g id="node35" class="node"><title>Node17</title>
<polygon fill="white" stroke="#bfbfbf" points="395.5,-0.5 395.5,-21.5 454.5,-21.5 454.5,-0.5 395.5,-0.5"/>
<text text-anchor="middle" x="425" y="-8.5" font-family="Helvetica,sans-Serif" font-size="10.00">stdexcept</text>
</g>
<!-- Node4&#45;&gt;Node17 -->
<g id="edge34" class="edge"><title>Node4&#45;&gt;Node17</title>
<path fill="none" stroke="midnightblue" d="M983.309,-178.134C945.053,-165.489 860.625,-137.819 789,-116 671.405,-80.178 531.494,-40.6936 464.536,-21.9893"/>
<polygon fill="midnightblue" stroke="midnightblue" points="465.387,-18.593 454.814,-19.2763 463.505,-25.3354 465.387,-18.593"/>
</g>
<!-- Node18 -->
<g id="node37" class="node"><title>Node18</title>
<polygon fill="white" stroke="#bfbfbf" points="677.5,-116.5 677.5,-137.5 706.5,-137.5 706.5,-116.5 677.5,-116.5"/>
<text text-anchor="middle" x="692" y="-124.5" font-family="Helvetica,sans-Serif" font-size="10.00">list</text>
</g>
<!-- Node4&#45;&gt;Node18 -->
<g id="edge36" class="edge"><title>Node4&#45;&gt;Node18</title>
<path fill="none" stroke="midnightblue" d="M983.214,-183.655C936.512,-180.209 819.851,-169.244 716.484,-137.852"/>
<polygon fill="midnightblue" stroke="midnightblue" points="717.433,-134.482 706.845,-134.852 715.353,-141.166 717.433,-134.482"/>
</g>
<!-- Node4&#45;&gt;Node19 -->
<g id="edge38" class="edge"><title>Node4&#45;&gt;Node19</title>
<path fill="none" stroke="midnightblue" d="M1024.64,-181.372C1079.67,-171.7 1230.35,-145.218 1299.04,-133.145"/>
<polygon fill="midnightblue" stroke="midnightblue" points="1299.7,-136.582 1308.95,-131.403 1298.49,-129.687 1299.7,-136.582"/>
</g>
<!-- Node6&#45;&gt;Node7 -->
<g id="edge14" class="edge"><title>Node6&#45;&gt;Node7</title>
<path fill="none" stroke="midnightblue" d="M873.451,-122.784C765.92,-113.906 519.769,-93.1195 416.388,-80.0757"/>
<polygon fill="midnightblue" stroke="midnightblue" points="416.621,-76.5766 406.253,-78.76 415.719,-83.5183 416.621,-76.5766"/>
</g>
<!-- Node12 -->
<g id="node25" class="node"><title>Node12</title>
<polygon fill="white" stroke="#bfbfbf" points="902,-58.5 902,-79.5 948,-79.5 948,-58.5 902,-58.5"/>
<text text-anchor="middle" x="925" y="-66.5" font-family="Helvetica,sans-Serif" font-size="10.00">cstring</text>
</g>
<!-- Node6&#45;&gt;Node12 -->
<g id="edge24" class="edge"><title>Node6&#45;&gt;Node12</title>
<path fill="none" stroke="midnightblue" d="M925,-116.362C925,-108.922 925,-98.7427 925,-89.7276"/>
<polygon fill="midnightblue" stroke="midnightblue" points="928.5,-89.5706 925,-79.5707 921.5,-89.5707 928.5,-89.5706"/>
</g>
<!-- Node6&#45;&gt;Node13 -->
<g id="edge26" class="edge"><title>Node6&#45;&gt;Node13</title>
<path fill="none" stroke="midnightblue" d="M939.49,-116.362C951.183,-107.777 967.843,-95.5459 981.303,-85.6636"/>
<polygon fill="midnightblue" stroke="midnightblue" points="983.613,-88.31 989.602,-79.5707 979.47,-82.6675 983.613,-88.31"/>
</g>
<!-- Node7&#45;&gt;Node8 -->
<g id="edge16" class="edge"><title>Node7&#45;&gt;Node8</title>
<path fill="none" stroke="midnightblue" d="M406.266,-59.334C409.218,-58.8678 412.144,-58.4198 415,-58 549.595,-38.2159 711.055,-20.9225 777.329,-14.0997"/>
<polygon fill="midnightblue" stroke="midnightblue" points="777.9,-17.5596 787.492,-13.059 777.187,-10.5961 777.9,-17.5596"/>
</g>
<!-- Node7&#45;&gt;Node9 -->
<g id="edge18" class="edge"><title>Node7&#45;&gt;Node9</title>
<path fill="none" stroke="midnightblue" d="M352,-58.3619C352,-50.9219 352,-40.7427 352,-31.7276"/>
<polygon fill="midnightblue" stroke="midnightblue" points="355.5,-31.5706 352,-21.5707 348.5,-31.5707 355.5,-31.5706"/>
</g>
<!-- Node10 -->
<g id="node21" class="node"><title>Node10</title>
<polygon fill="white" stroke="#bfbfbf" points="252,-0.5 252,-21.5 308,-21.5 308,-0.5 252,-0.5"/>
<text text-anchor="middle" x="280" y="-8.5" font-family="Helvetica,sans-Serif" font-size="10.00">algorithm</text>
</g>
<!-- Node7&#45;&gt;Node10 -->
<g id="edge20" class="edge"><title>Node7&#45;&gt;Node10</title>
<path fill="none" stroke="midnightblue" d="M338.794,-58.3619C328.239,-49.859 313.242,-37.7785 301.037,-27.9466"/>
<polygon fill="midnightblue" stroke="midnightblue" points="303.105,-25.1183 293.122,-21.5707 298.714,-30.5696 303.105,-25.1183"/>
</g>
<!-- Node11 -->
<g id="node23" class="node"><title>Node11</title>
<polygon fill="white" stroke="#bfbfbf" points="482,-0.5 482,-21.5 526,-21.5 526,-0.5 482,-0.5"/>
<text text-anchor="middle" x="504" y="-8.5" font-family="Helvetica,sans-Serif" font-size="10.00">vector</text>
</g>
<!-- Node7&#45;&gt;Node11 -->
<g id="edge22" class="edge"><title>Node7&#45;&gt;Node11</title>
<path fill="none" stroke="midnightblue" d="M379.526,-58.4966C405.584,-48.5533 444.692,-33.6309 472.099,-23.1727"/>
<polygon fill="midnightblue" stroke="midnightblue" points="473.527,-26.3743 481.622,-19.5391 471.031,-19.8342 473.527,-26.3743"/>
</g>
<!-- Node20&#45;&gt;Node8 -->
<g id="edge44" class="edge"><title>Node20&#45;&gt;Node8</title>
<path fill="none" stroke="midnightblue" d="M1281.86,-174.482C1281.06,-159.354 1277.3,-131.564 1261,-116 1199.21,-57.0133 930.025,-23.7978 838.55,-14.0543"/>
<polygon fill="midnightblue" stroke="midnightblue" points="838.855,-10.5672 828.545,-13.0072 838.126,-17.5291 838.855,-10.5672"/>
</g>
<!-- Node21&#45;&gt;Node5 -->
<g id="edge52" class="edge"><title>Node21&#45;&gt;Node5</title>
<path fill="none" stroke="midnightblue" d="M720.293,-290.972C726.739,-257.635 741.003,-183.869 747.988,-147.747"/>
<polygon fill="midnightblue" stroke="midnightblue" points="751.443,-148.314 749.905,-137.832 744.571,-146.985 751.443,-148.314"/>
</g>
<!-- Node27&#45;&gt;Node18 -->
<g id="edge72" class="edge"><title>Node27&#45;&gt;Node18</title>
<path fill="none" stroke="midnightblue" d="M620.957,-174.362C634.407,-165.395 653.826,-152.449 668.963,-142.358"/>
<polygon fill="midnightblue" stroke="midnightblue" points="670.924,-145.257 677.303,-136.798 667.041,-139.433 670.924,-145.257"/>
</g>
<!-- Node27&#45;&gt;Node26 -->
<g id="edge70" class="edge"><title>Node27&#45;&gt;Node26</title>
<path fill="none" stroke="midnightblue" d="M610.319,-174.362C614.203,-166.595 619.579,-155.843 624.227,-146.546"/>
<polygon fill="midnightblue" stroke="midnightblue" points="627.373,-148.08 628.715,-137.571 621.112,-144.95 627.373,-148.08"/>
</g>
<!-- Node28&#45;&gt;Node2 -->
<g id="edge76" class="edge"><title>Node28&#45;&gt;Node2</title>
<path fill="none" stroke="midnightblue" d="M701.366,-362.412C729.556,-351.505 773.674,-334.436 804.971,-322.327"/>
<polygon fill="midnightblue" stroke="midnightblue" points="806.582,-325.456 814.646,-318.584 804.056,-318.928 806.582,-325.456"/>
</g>
<!-- Node28&#45;&gt;Node5 -->
<g id="edge80" class="edge"><title>Node28&#45;&gt;Node5</title>
<path fill="none" stroke="midnightblue" d="M666.716,-362.372C660.901,-353.201 653.214,-339.362 650,-326 646.258,-310.444 645.585,-305.379 650,-290 666.768,-231.593 711.262,-173.834 735.574,-145.332"/>
<polygon fill="midnightblue" stroke="midnightblue" points="738.223,-147.62 742.138,-137.775 732.938,-143.03 738.223,-147.62"/>
</g>
<!-- Node28&#45;&gt;Node21 -->
<g id="edge122" class="edge"><title>Node28&#45;&gt;Node21</title>
<path fill="none" stroke="midnightblue" d="M681.101,-362.267C686.266,-354.458 693.485,-343.546 700.095,-333.554"/>
<polygon fill="midnightblue" stroke="midnightblue" points="703.083,-335.381 705.681,-325.11 697.245,-331.519 703.083,-335.381"/>
</g>
<!-- Node28&#45;&gt;Node24 -->
<g id="edge124" class="edge"><title>Node28&#45;&gt;Node24</title>
<path fill="none" stroke="midnightblue" d="M743.201,-362.465C788.436,-354.641 848.466,-342.472 900,-326 903.184,-324.982 906.455,-323.799 909.694,-322.533"/>
<polygon fill="midnightblue" stroke="midnightblue" points="911.31,-325.652 919.197,-318.578 908.62,-319.19 911.31,-325.652"/>
</g>
<!-- Node29 -->
<g id="node69" class="node"><title>Node29</title>
<polygon fill="white" stroke="#bfbfbf" points="338.5,-116.5 338.5,-137.5 397.5,-137.5 397.5,-116.5 338.5,-116.5"/>
<text text-anchor="middle" x="368" y="-124.5" font-family="Helvetica,sans-Serif" font-size="10.00">functional</text>
</g>
<!-- Node28&#45;&gt;Node29 -->
<g id="edge78" class="edge"><title>Node28&#45;&gt;Node29</title>
<path fill="none" stroke="midnightblue" d="M600.389,-365.618C542.337,-358.429 467.393,-345.674 444,-326 388.895,-279.655 373.649,-188.701 369.507,-147.797"/>
<polygon fill="midnightblue" stroke="midnightblue" points="372.979,-147.318 368.61,-137.666 366.006,-147.936 372.979,-147.318"/>
</g>
<!-- Node30 -->
<g id="node72" class="node"><title>Node30</title>
<a xlink:href="_root_draw_8h.html" target="_top" xlink:title="analysis/plot/RootDraw.h">
<polygon fill="white" stroke="black" points="401.5,-174.5 401.5,-195.5 528.5,-195.5 528.5,-174.5 401.5,-174.5"/>
<text text-anchor="middle" x="465" y="-182.5" font-family="Helvetica,sans-Serif" font-size="10.00">analysis/plot/RootDraw.h</text>
</a>
</g>
<!-- Node28&#45;&gt;Node30 -->
<g id="edge82" class="edge"><title>Node28&#45;&gt;Node30</title>
<path fill="none" stroke="midnightblue" d="M600.307,-366.38C546.214,-359.816 479.285,-347.536 462,-326 434.292,-291.476 447.217,-235.39 457.202,-205.417"/>
<polygon fill="midnightblue" stroke="midnightblue" points="460.624,-206.239 460.667,-195.644 454.027,-203.899 460.624,-206.239"/>
</g>
<!-- Node38 -->
<g id="node102" class="node"><title>Node38</title>
<polygon fill="white" stroke="#bfbfbf" points="471,-297.5 471,-318.5 603,-318.5 603,-297.5 471,-297.5"/>
<text text-anchor="middle" x="537" y="-305.5" font-family="Helvetica,sans-Serif" font-size="10.00">TRootEmbeddedCanvas.h</text>
</g>
<!-- Node28&#45;&gt;Node38 -->
<g id="edge126" class="edge"><title>Node28&#45;&gt;Node38</title>
<path fill="none" stroke="midnightblue" d="M651.684,-362.412C629.094,-351.694 593.96,-335.025 568.531,-322.96"/>
<polygon fill="midnightblue" stroke="midnightblue" points="569.842,-319.708 559.307,-318.584 566.841,-326.032 569.842,-319.708"/>
</g>
<!-- Node30&#45;&gt;Node5 -->
<g id="edge120" class="edge"><title>Node30&#45;&gt;Node5</title>
<path fill="none" stroke="midnightblue" d="M528.574,-174.911C576.953,-166.807 645.341,-154.442 713.714,-138.143"/>
<polygon fill="midnightblue" stroke="midnightblue" points="714.899,-141.458 723.8,-135.71 713.258,-134.653 714.899,-141.458"/>
</g>
<!-- Node30&#45;&gt;Node8 -->
<g id="edge84" class="edge"><title>Node30&#45;&gt;Node8</title>
<path fill="none" stroke="midnightblue" d="M485.399,-174.416C511.641,-160.819 558.651,-136.523 599,-116 662.831,-83.5326 737.906,-45.9666 778.438,-25.736"/>
<polygon fill="midnightblue" stroke="midnightblue" points="780.111,-28.8127 787.496,-21.2162 776.986,-22.5491 780.111,-28.8127"/>
</g>
<!-- Node30&#45;&gt;Node11 -->
<g id="edge88" class="edge"><title>Node30&#45;&gt;Node11</title>
<path fill="none" stroke="midnightblue" d="M485.355,-174.453C498.477,-166.416 514.451,-154.009 522,-138 538.518,-102.97 524.286,-56.9227 513.46,-30.9941"/>
<polygon fill="midnightblue" stroke="midnightblue" points="516.646,-29.5433 509.409,-21.8049 510.24,-32.3671 516.646,-29.5433"/>
</g>
<!-- Node30&#45;&gt;Node18 -->
<g id="edge86" class="edge"><title>Node30&#45;&gt;Node18</title>
<path fill="none" stroke="midnightblue" d="M526.693,-174.451C565.28,-167.018 615.982,-155.73 667.483,-138.075"/>
<polygon fill="midnightblue" stroke="midnightblue" points="668.826,-141.313 677.106,-134.704 666.512,-134.707 668.826,-141.313"/>
</g>
<!-- Node30&#45;&gt;Node26 -->
<g id="edge90" class="edge"><title>Node30&#45;&gt;Node26</title>
<path fill="none" stroke="midnightblue" d="M495.605,-174.497C524.404,-164.613 567.539,-149.809 597.984,-139.361"/>
<polygon fill="midnightblue" stroke="midnightblue" points="599.46,-142.554 607.783,-135.998 597.188,-135.933 599.46,-142.554"/>
</g>
<!-- Node30&#45;&gt;Node29 -->
<g id="edge92" class="edge"><title>Node30&#45;&gt;Node29</title>
<path fill="none" stroke="midnightblue" d="M447.209,-174.362C432.441,-165.532 411.222,-152.844 394.462,-142.822"/>
<polygon fill="midnightblue" stroke="midnightblue" points="396.057,-139.699 385.679,-137.571 392.465,-145.707 396.057,-139.699"/>
</g>
<!-- Node31 -->
<g id="node79" class="node"><title>Node31</title>
<a xlink:href="_bin_settings_8h.html" target="_top" xlink:title="base/BinSettings.h">
<polygon fill="white" stroke="black" points="414.5,-116.5 414.5,-137.5 513.5,-137.5 513.5,-116.5 414.5,-116.5"/>
<text text-anchor="middle" x="464" y="-124.5" font-family="Helvetica,sans-Serif" font-size="10.00">base/BinSettings.h</text>
</a>
</g>
<!-- Node30&#45;&gt;Node31 -->
<g id="edge94" class="edge"><title>Node30&#45;&gt;Node31</title>
<path fill="none" stroke="midnightblue" d="M464.817,-174.362C464.688,-166.922 464.513,-156.743 464.357,-147.728"/>
<polygon fill="midnightblue" stroke="midnightblue" points="467.854,-147.509 464.182,-137.571 460.855,-147.63 467.854,-147.509"/>
</g>
<!-- Node31&#45;&gt;Node11 -->
<g id="edge112" class="edge"><title>Node31&#45;&gt;Node11</title>
<path fill="none" stroke="midnightblue" d="M469.31,-116.363C473.87,-106.958 480.413,-92.7866 485,-80 490.694,-64.1274 495.691,-45.6914 499.129,-31.8711"/>
<polygon fill="midnightblue" stroke="midnightblue" points="502.589,-32.4567 501.536,-21.9143 495.785,-30.8119 502.589,-32.4567"/>
</g>
<!-- Node31&#45;&gt;Node17 -->
<g id="edge114" class="edge"><title>Node31&#45;&gt;Node17</title>
<path fill="none" stroke="midnightblue" d="M414.132,-116.829C365.193,-106.346 296.777,-90.1414 289,-80 283.05,-72.241 283.327,-65.9634 289,-58 291.965,-53.8384 346.704,-35.7944 385.819,-23.3152"/>
<polygon fill="midnightblue" stroke="midnightblue" points="386.916,-26.6392 395.386,-20.2743 384.796,-19.9681 386.916,-26.6392"/>
</g>
<!-- Node32 -->
<g id="node81" class="node"><title>Node32</title>
<a xlink:href="interval_8h.html" target="_top" xlink:title="base/interval.h">
<polygon fill="white" stroke="black" points="124,-58.5 124,-79.5 204,-79.5 204,-58.5 124,-58.5"/>
<text text-anchor="middle" x="164" y="-66.5" font-family="Helvetica,sans-Serif" font-size="10.00">base/interval.h</text>
</a>
</g>
<!-- Node31&#45;&gt;Node32 -->
<g id="edge96" class="edge"><title>Node31&#45;&gt;Node32</title>
<path fill="none" stroke="midnightblue" d="M414.461,-117.422C358.999,-106.7 269.626,-89.421 213.984,-78.6635"/>
<polygon fill="midnightblue" stroke="midnightblue" points="214.485,-75.1957 204.002,-76.7338 213.156,-82.0684 214.485,-75.1957"/>
</g>
<!-- Node35 -->
<g id="node89" class="node"><title>Node35</title>
<polygon fill="white" stroke="#bfbfbf" points="-0.5,-0.5 -0.5,-21.5 48.5,-21.5 48.5,-0.5 -0.5,-0.5"/>
<text text-anchor="middle" x="24" y="-8.5" font-family="Helvetica,sans-Serif" font-size="10.00">istream</text>
</g>
<!-- Node31&#45;&gt;Node35 -->
<g id="edge116" class="edge"><title>Node31&#45;&gt;Node35</title>
<path fill="none" stroke="midnightblue" d="M414.362,-117.368C411.536,-116.888 408.734,-116.428 406,-116 277.248,-95.8481 235.735,-129.054 115,-80 86.2706,-68.3274 58.6783,-45.1619 41.5577,-28.904"/>
<polygon fill="midnightblue" stroke="midnightblue" points="43.6351,-26.0407 34.0351,-21.5584 38.7446,-31.049 43.6351,-26.0407"/>
</g>
<!-- Node37 -->
<g id="node97" class="node"><title>Node37</title>
<polygon fill="white" stroke="#bfbfbf" points="424,-58.5 424,-79.5 476,-79.5 476,-58.5 424,-58.5"/>
<text text-anchor="middle" x="450" y="-66.5" font-family="Helvetica,sans-Serif" font-size="10.00">ostream</text>
</g>
<!-- Node31&#45;&gt;Node37 -->
<g id="edge118" class="edge"><title>Node31&#45;&gt;Node37</title>
<path fill="none" stroke="midnightblue" d="M461.432,-116.362C459.617,-108.84 457.125,-98.5187 454.932,-89.4308"/>
<polygon fill="midnightblue" stroke="midnightblue" points="458.3,-88.4702 452.552,-79.5707 451.496,-90.1127 458.3,-88.4702"/>
</g>
<!-- Node32&#45;&gt;Node9 -->
<g id="edge108" class="edge"><title>Node32&#45;&gt;Node9</title>
<path fill="none" stroke="midnightblue" d="M198.656,-58.424C227.619,-49.5697 270.264,-36.4969 315.862,-22.3427"/>
<polygon fill="midnightblue" stroke="midnightblue" points="317.121,-25.6164 325.632,-19.307 315.044,-18.9316 317.121,-25.6164"/>
</g>
<!-- Node32&#45;&gt;Node10 -->
<g id="edge100" class="edge"><title>Node32&#45;&gt;Node10</title>
<path fill="none" stroke="midnightblue" d="M185.007,-58.4966C203.043,-49.4786 229.27,-36.3649 249.599,-26.2006"/>
<polygon fill="midnightblue" stroke="midnightblue" points="251.379,-29.2239 258.758,-21.6212 248.248,-22.9629 251.379,-29.2239"/>
</g>
<!-- Node32&#45;&gt;Node17 -->
<g id="edge102" class="edge"><title>Node32&#45;&gt;Node17</title>
<path fill="none" stroke="midnightblue" d="M204.084,-61.4805C246.781,-53.2657 316.543,-39.2586 385.085,-22.369"/>
<polygon fill="midnightblue" stroke="midnightblue" points="386.326,-25.667 395.186,-19.8565 384.637,-18.874 386.326,-25.667"/>
</g>
<!-- Node33 -->
<g id="node83" class="node"><title>Node33</title>
<a xlink:href="types_8h.html" target="_top" xlink:title="types.h">
<polygon fill="white" stroke="black" points="185.5,-0.5 185.5,-21.5 234.5,-21.5 234.5,-0.5 185.5,-0.5"/>
<text text-anchor="middle" x="210" y="-8.5" font-family="Helvetica,sans-Serif" font-size="10.00">types.h</text>
</a>
</g>
<!-- Node32&#45;&gt;Node33 -->
<g id="edge98" class="edge"><title>Node32&#45;&gt;Node33</title>
<path fill="none" stroke="midnightblue" d="M172.437,-58.3619C178.792,-50.3496 187.666,-39.1605 195.193,-29.6696"/>
<polygon fill="midnightblue" stroke="midnightblue" points="198.145,-31.5805 201.616,-21.5707 192.66,-27.2308 198.145,-31.5805"/>
</g>
<!-- Node34 -->
<g id="node87" class="node"><title>Node34</title>
<polygon fill="white" stroke="#bfbfbf" points="66,-0.5 66,-21.5 106,-21.5 106,-0.5 66,-0.5"/>
<text text-anchor="middle" x="86" y="-8.5" font-family="Helvetica,sans-Serif" font-size="10.00">limits</text>
</g>
<!-- Node32&#45;&gt;Node34 -->
<g id="edge104" class="edge"><title>Node32&#45;&gt;Node34</title>
<path fill="none" stroke="midnightblue" d="M149.694,-58.3619C138.149,-49.7773 121.7,-37.5459 108.41,-27.6636"/>
<polygon fill="midnightblue" stroke="midnightblue" points="110.329,-24.7291 100.216,-21.5707 106.152,-30.3463 110.329,-24.7291"/>
</g>
<!-- Node32&#45;&gt;Node35 -->
<g id="edge106" class="edge"><title>Node32&#45;&gt;Node35</title>
<path fill="none" stroke="midnightblue" d="M138.647,-58.4966C116.109,-49.1593 82.9718,-35.4312 58.1124,-25.1323"/>
<polygon fill="midnightblue" stroke="midnightblue" points="59.2725,-21.8245 48.6944,-21.2305 56.5933,-28.2915 59.2725,-21.8245"/>
</g>
<!-- Node36 -->
<g id="node92" class="node"><title>Node36</title>
<polygon fill="white" stroke="#bfbfbf" points="124,-0.5 124,-21.5 168,-21.5 168,-0.5 124,-0.5"/>
<text text-anchor="middle" x="146" y="-8.5" font-family="Helvetica,sans-Serif" font-size="10.00">cmath</text>
</g>
<!-- Node32&#45;&gt;Node36 -->
<g id="edge110" class="edge"><title>Node32&#45;&gt;Node36</title>
<path fill="none" stroke="midnightblue" d="M160.699,-58.3619C158.339,-50.7584 155.091,-40.294 152.249,-31.1349"/>
<polygon fill="midnightblue" stroke="midnightblue" points="155.587,-30.0839 149.281,-21.5707 148.902,-32.1587 155.587,-30.0839"/>
</g>
<!-- Node45 -->
<g id="node116" class="node"><title>Node45</title>
<polygon fill="white" stroke="#bfbfbf" points="1779.5,-297.5 1779.5,-318.5 1868.5,-318.5 1868.5,-297.5 1779.5,-297.5"/>
<text text-anchor="middle" x="1824" y="-305.5" font-family="Helvetica,sans-Serif" font-size="10.00">easylogging++.h</text>
</g>
<!-- Node44&#45;&gt;Node45 -->
<g id="edge140" class="edge"><title>Node44&#45;&gt;Node45</title>
<path fill="none" stroke="midnightblue" d="M1824,-362.267C1824,-353.18 1824,-339.892 1824,-328.74"/>
<polygon fill="midnightblue" stroke="midnightblue" points="1827.5,-328.534 1824,-318.534 1820.5,-328.534 1827.5,-328.534"/>
</g>
</g>
</svg>
