<?xml version="1.0" encoding="UTF-8" standalone="no"?>
<!DOCTYPE svg PUBLIC "-//W3C//DTD SVG 1.1//EN"
 "http://www.w3.org/Graphics/SVG/1.1/DTD/svg11.dtd">
<!-- Generated by graphviz version 2.26.3 (20100126.1600)
 -->
<!-- Title: src/calibration/gui/EditorWindow.h Pages: 1 -->
<svg width="1174pt" height="406pt"
 viewBox="0.00 0.00 1174.37 406.00" xmlns="http://www.w3.org/2000/svg" xmlns:xlink="http://www.w3.org/1999/xlink">
<g id="graph1" class="graph" transform="scale(1 1) rotate(0) translate(4 402)">
<title>src/calibration/gui/EditorWindow.h</title>
<polygon fill="white" stroke="white" points="-4,5 -4,-402 1171.37,-402 1171.37,5 -4,5"/>
<!-- Node0 -->
<g id="node1" class="node"><title>Node0</title>
<polygon fill="#bfbfbf" stroke="black" points="829.874,-363 829.874,-397 922.874,-397 922.874,-363 829.874,-363"/>
<text text-anchor="start" x="837.874" y="-384" font-family="Helvetica,sans-Serif" font-size="10.00">src/calibration/gui</text>
<text text-anchor="middle" x="876.374" y="-371" font-family="Helvetica,sans-Serif" font-size="10.00">/EditorWindow.h</text>
</g>
<!-- Node1 -->
<g id="node3" class="node"><title>Node1</title>
<a xlink:href="_editor_8h.html" target="_top" xlink:title="calibration/Editor.h">
<polygon fill="white" stroke="black" points="338.374,-304.5 338.374,-325.5 436.374,-325.5 436.374,-304.5 338.374,-304.5"/>
<text text-anchor="middle" x="387.374" y="-312.5" font-family="Helvetica,sans-Serif" font-size="10.00">calibration/Editor.h</text>
</a>
</g>
<!-- Node0&#45;&gt;Node1 -->
<g id="edge2" class="edge"><title>Node0&#45;&gt;Node1</title>
<path fill="none" stroke="midnightblue" d="M829.486,-373.768C740.021,-361.875 545.122,-335.969 446.728,-322.89"/>
<polygon fill="midnightblue" stroke="midnightblue" points="447.028,-319.399 436.654,-321.55 446.105,-326.338 447.028,-319.399"/>
</g>
<!-- Node7 -->
<g id="node15" class="node"><title>Node7</title>
<polygon fill="white" stroke="#bfbfbf" points="364.874,-0.5 364.874,-21.5 405.874,-21.5 405.874,-0.5 364.874,-0.5"/>
<text text-anchor="middle" x="385.374" y="-8.5" font-family="Helvetica,sans-Serif" font-size="10.00">string</text>
</g>
<!-- Node0&#45;&gt;Node7 -->
<g id="edge60" class="edge"><title>Node0&#45;&gt;Node7</title>
<path fill="none" stroke="midnightblue" d="M835.45,-362.997C818.902,-354.212 801.001,-341.943 789.374,-326 768.857,-297.87 770.374,-284.817 770.374,-250 770.374,-250 770.374,-250 770.374,-127 770.374,-53.1355 507.287,-22.1228 416.072,-13.5901"/>
<polygon fill="midnightblue" stroke="midnightblue" points="416.349,-10.1009 406.073,-12.6811 415.715,-17.0722 416.349,-10.1009"/>
</g>
<!-- Node20 -->
<g id="node45" class="node"><title>Node20</title>
<a xlink:href="_indicator__traits_8h.html" target="_top" xlink:title="calibration/gui/Indicator\l_traits.h">
<polygon fill="white" stroke="black" points="625.874,-233 625.874,-267 742.874,-267 742.874,-233 625.874,-233"/>
<text text-anchor="start" x="633.874" y="-254" font-family="Helvetica,sans-Serif" font-size="10.00">calibration/gui/Indicator</text>
<text text-anchor="middle" x="684.374" y="-241" font-family="Helvetica,sans-Serif" font-size="10.00">_traits.h</text>
</a>
</g>
<!-- Node0&#45;&gt;Node20 -->
<g id="edge48" class="edge"><title>Node0&#45;&gt;Node20</title>
<path fill="none" stroke="midnightblue" d="M829.679,-363.914C806.488,-354.734 778.724,-341.876 756.374,-326 736.311,-311.749 717.33,-291.312 703.898,-275.22"/>
<polygon fill="midnightblue" stroke="midnightblue" points="706.436,-272.795 697.404,-267.257 701.012,-277.219 706.436,-272.795"/>
</g>
<!-- Node21 -->
<g id="node48" class="node"><title>Node21</title>
<polygon fill="white" stroke="#bfbfbf" points="798.374,-304.5 798.374,-325.5 864.374,-325.5 864.374,-304.5 798.374,-304.5"/>
<text text-anchor="middle" x="831.374" y="-312.5" font-family="Helvetica,sans-Serif" font-size="10.00">TGFrame.h</text>
</g>
<!-- Node0&#45;&gt;Node21 -->
<g id="edge52" class="edge"><title>Node0&#45;&gt;Node21</title>
<path fill="none" stroke="midnightblue" d="M864.551,-362.922C858.457,-354.12 851.004,-343.354 844.706,-334.258"/>
<polygon fill="midnightblue" stroke="midnightblue" points="847.457,-332.082 838.887,-325.852 841.701,-336.066 847.457,-332.082"/>
</g>
<!-- Node22 -->
<g id="node50" class="node"><title>Node22</title>
<polygon fill="white" stroke="#bfbfbf" points="882.374,-304.5 882.374,-325.5 962.374,-325.5 962.374,-304.5 882.374,-304.5"/>
<text text-anchor="middle" x="922.374" y="-312.5" font-family="Helvetica,sans-Serif" font-size="10.00">KeySymbols.h</text>
</g>
<!-- Node0&#45;&gt;Node22 -->
<g id="edge54" class="edge"><title>Node0&#45;&gt;Node22</title>
<path fill="none" stroke="midnightblue" d="M888.46,-362.922C894.689,-354.12 902.308,-343.354 908.745,-334.258"/>
<polygon fill="midnightblue" stroke="midnightblue" points="911.774,-336.037 914.694,-325.852 906.06,-331.993 911.774,-336.037"/>
</g>
<!-- Node23 -->
<g id="node52" class="node"><title>Node23</title>
<polygon fill="white" stroke="#bfbfbf" points="979.874,-304.5 979.874,-325.5 1044.87,-325.5 1044.87,-304.5 979.874,-304.5"/>
<text text-anchor="middle" x="1012.37" y="-312.5" font-family="Helvetica,sans-Serif" font-size="10.00">TCanvas.h</text>
</g>
<!-- Node0&#45;&gt;Node23 -->
<g id="edge56" class="edge"><title>Node0&#45;&gt;Node23</title>
<path fill="none" stroke="midnightblue" d="M912.106,-362.922C933.439,-352.726 960.289,-339.894 980.833,-330.074"/>
<polygon fill="midnightblue" stroke="midnightblue" points="982.56,-333.128 990.073,-325.658 979.541,-326.813 982.56,-333.128"/>
</g>
<!-- Node24 -->
<g id="node54" class="node"><title>Node24</title>
<polygon fill="white" stroke="#bfbfbf" points="1061.87,-304.5 1061.87,-325.5 1096.87,-325.5 1096.87,-304.5 1061.87,-304.5"/>
<text text-anchor="middle" x="1079.37" y="-312.5" font-family="Helvetica,sans-Serif" font-size="10.00">map</text>
</g>
<!-- Node0&#45;&gt;Node24 -->
<g id="edge58" class="edge"><title>Node0&#45;&gt;Node24</title>
<path fill="none" stroke="midnightblue" d="M923.021,-367.206C956.791,-357.62 1003.64,-343.657 1052.4,-326.138"/>
<polygon fill="midnightblue" stroke="midnightblue" points="1053.65,-329.41 1061.85,-322.706 1051.26,-322.83 1053.65,-329.41"/>
</g>
<!-- Node25 -->
<g id="node57" class="node"><title>Node25</title>
<polygon fill="white" stroke="#bfbfbf" points="1114.37,-304.5 1114.37,-325.5 1166.37,-325.5 1166.37,-304.5 1114.37,-304.5"/>
<text text-anchor="middle" x="1140.37" y="-312.5" font-family="Helvetica,sans-Serif" font-size="10.00">memory</text>
</g>
<!-- Node0&#45;&gt;Node25 -->
<g id="edge62" class="edge"><title>Node0&#45;&gt;Node25</title>
<path fill="none" stroke="midnightblue" d="M923.117,-370.025C967.397,-360.342 1035.94,-344.749 1104.02,-326.246"/>
<polygon fill="midnightblue" stroke="midnightblue" points="1105.34,-329.514 1114.06,-323.496 1103.49,-322.763 1105.34,-329.514"/>
</g>
<!-- Node2 -->
<g id="node5" class="node"><title>Node2</title>
<a xlink:href="_t_calibration_data_8h.html" target="_top" xlink:title="tree/TCalibrationData.h">
<polygon fill="white" stroke="black" points="59.3738,-239.5 59.3738,-260.5 177.374,-260.5 177.374,-239.5 59.3738,-239.5"/>
<text text-anchor="middle" x="118.374" y="-247.5" font-family="Helvetica,sans-Serif" font-size="10.00">tree/TCalibrationData.h</text>
</a>
</g>
<!-- Node1&#45;&gt;Node2 -->
<g id="edge4" class="edge"><title>Node1&#45;&gt;Node2</title>
<path fill="none" stroke="midnightblue" d="M343.855,-304.484C296.876,-293.133 222.019,-275.044 171.577,-262.856"/>
<polygon fill="midnightblue" stroke="midnightblue" points="172.372,-259.447 161.83,-260.501 170.728,-266.251 172.372,-259.447"/>
</g>
<!-- Node3 -->
<g id="node7" class="node"><title>Node3</title>
<a xlink:href="_t_i_d_8h.html" target="_top" xlink:title="TID.h">
<polygon fill="white" stroke="black" points="355.874,-174.5 355.874,-195.5 396.874,-195.5 396.874,-174.5 355.874,-174.5"/>
<text text-anchor="middle" x="376.374" y="-182.5" font-family="Helvetica,sans-Serif" font-size="10.00">TID.h</text>
</a>
</g>
<!-- Node2&#45;&gt;Node3 -->
<g id="edge6" class="edge"><title>Node2&#45;&gt;Node3</title>
<path fill="none" stroke="midnightblue" d="M160.113,-239.484C212.22,-226.357 300.087,-204.22 346.142,-192.617"/>
<polygon fill="midnightblue" stroke="midnightblue" points="346.998,-196.01 355.84,-190.173 345.288,-189.222 346.998,-196.01"/>
</g>
<!-- Node2&#45;&gt;Node7 -->
<g id="edge44" class="edge"><title>Node2&#45;&gt;Node7</title>
<path fill="none" stroke="midnightblue" d="M71.057,-239.412C32.7872,-228.215 -12.356,-207.461 3.37383,-174 39.2273,-97.7311 76.2039,-91.8708 153.374,-58 221.308,-28.183 308.8,-17.0466 354.484,-13.0718"/>
<polygon fill="midnightblue" stroke="midnightblue" points="354.949,-16.5456 364.633,-12.2479 354.383,-9.56853 354.949,-16.5456"/>
</g>
<!-- Node12 -->
<g id="node25" class="node"><title>Node12</title>
<polygon fill="white" stroke="#bfbfbf" points="437.874,-58.5 437.874,-79.5 478.874,-79.5 478.874,-58.5 437.874,-58.5"/>
<text text-anchor="middle" x="458.374" y="-66.5" font-family="Helvetica,sans-Serif" font-size="10.00">ctime</text>
</g>
<!-- Node2&#45;&gt;Node12 -->
<g id="edge46" class="edge"><title>Node2&#45;&gt;Node12</title>
<path fill="none" stroke="midnightblue" d="M115.321,-239.21C108.888,-213.912 97.0479,-150.326 129.374,-116 149.68,-94.4371 349.086,-77.2268 427.209,-71.2598"/>
<polygon fill="midnightblue" stroke="midnightblue" points="427.687,-74.7338 437.396,-70.4932 427.162,-67.7536 427.687,-74.7338"/>
</g>
<!-- Node19 -->
<g id="node40" class="node"><title>Node19</title>
<a xlink:href="_git_info_8h.html" target="_top" xlink:title="base/GitInfo.h">
<polygon fill="white" stroke="black" points="12.3738,-174.5 12.3738,-195.5 90.3738,-195.5 90.3738,-174.5 12.3738,-174.5"/>
<text text-anchor="middle" x="51.3738" y="-182.5" font-family="Helvetica,sans-Serif" font-size="10.00">base/GitInfo.h</text>
</a>
</g>
<!-- Node2&#45;&gt;Node19 -->
<g id="edge40" class="edge"><title>Node2&#45;&gt;Node19</title>
<path fill="none" stroke="midnightblue" d="M107.31,-239.267C97.0658,-229.328 81.6408,-214.363 69.5818,-202.664"/>
<polygon fill="midnightblue" stroke="midnightblue" points="71.8462,-199.985 62.2316,-195.534 66.972,-205.009 71.8462,-199.985"/>
</g>
<!-- Node4 -->
<g id="node9" class="node"><title>Node4</title>
<polygon fill="white" stroke="#bfbfbf" points="686.374,-116.5 686.374,-137.5 742.374,-137.5 742.374,-116.5 686.374,-116.5"/>
<text text-anchor="middle" x="714.374" y="-124.5" font-family="Helvetica,sans-Serif" font-size="10.00">Rtypes.h</text>
</g>
<!-- Node3&#45;&gt;Node4 -->
<g id="edge8" class="edge"><title>Node3&#45;&gt;Node4</title>
<path fill="none" stroke="midnightblue" d="M396.991,-182.748C444.563,-177.347 565.773,-162.426 676.226,-138.036"/>
<polygon fill="midnightblue" stroke="midnightblue" points="677.202,-141.404 686.195,-135.802 675.671,-134.573 677.202,-141.404"/>
</g>
<!-- Node5 -->
<g id="node11" class="node"><title>Node5</title>
<a xlink:href="base_2std__ext_2_time_8h.html" target="_top" xlink:title="base/std_ext/time.h">
<polygon fill="white" stroke="black" points="565.874,-116.5 565.874,-137.5 668.874,-137.5 668.874,-116.5 565.874,-116.5"/>
<text text-anchor="middle" x="617.374" y="-124.5" font-family="Helvetica,sans-Serif" font-size="10.00">base/std_ext/time.h</text>
</a>
</g>
<!-- Node3&#45;&gt;Node5 -->
<g id="edge10" class="edge"><title>Node3&#45;&gt;Node5</title>
<path fill="none" stroke="midnightblue" d="M396.921,-180.055C433.494,-171.253 510.978,-152.606 563.625,-139.935"/>
<polygon fill="midnightblue" stroke="midnightblue" points="564.574,-143.307 573.477,-137.564 562.936,-136.501 564.574,-143.307"/>
</g>
<!-- Node3&#45;&gt;Node12 -->
<g id="edge38" class="edge"><title>Node3&#45;&gt;Node12</title>
<path fill="none" stroke="midnightblue" d="M397.119,-174.337C411.021,-166.173 428.675,-153.663 439.374,-138 449.203,-123.61 453.965,-104.278 456.262,-89.7372"/>
<polygon fill="midnightblue" stroke="midnightblue" points="459.746,-90.0843 457.581,-79.7131 452.806,-89.1711 459.746,-90.0843"/>
</g>
<!-- Node13 -->
<g id="node27" class="node"><title>Node13</title>
<polygon fill="white" stroke="#bfbfbf" points="486.374,-116.5 486.374,-137.5 548.374,-137.5 548.374,-116.5 486.374,-116.5"/>
<text text-anchor="middle" x="517.374" y="-124.5" font-family="Helvetica,sans-Serif" font-size="10.00">type_traits</text>
</g>
<!-- Node3&#45;&gt;Node13 -->
<g id="edge26" class="edge"><title>Node3&#45;&gt;Node13</title>
<path fill="none" stroke="midnightblue" d="M396.876,-176.566C419.189,-167.388 455.266,-152.548 482.138,-141.494"/>
<polygon fill="midnightblue" stroke="midnightblue" points="483.662,-144.652 491.579,-137.611 480.999,-138.178 483.662,-144.652"/>
</g>
<!-- Node14 -->
<g id="node29" class="node"><title>Node14</title>
<polygon fill="white" stroke="#bfbfbf" points="138.374,-116.5 138.374,-137.5 176.374,-137.5 176.374,-116.5 138.374,-116.5"/>
<text text-anchor="middle" x="157.374" y="-124.5" font-family="Helvetica,sans-Serif" font-size="10.00">tuple</text>
</g>
<!-- Node3&#45;&gt;Node14 -->
<g id="edge28" class="edge"><title>Node3&#45;&gt;Node14</title>
<path fill="none" stroke="midnightblue" d="M355.773,-180.872C322.143,-173.935 253.255,-158.898 186.38,-138.035"/>
<polygon fill="midnightblue" stroke="midnightblue" points="187.123,-134.599 176.533,-134.915 185.008,-141.272 187.123,-134.599"/>
</g>
<!-- Node15 -->
<g id="node31" class="node"><title>Node15</title>
<polygon fill="white" stroke="#bfbfbf" points="194.374,-116.5 194.374,-137.5 240.374,-137.5 240.374,-116.5 194.374,-116.5"/>
<text text-anchor="middle" x="217.374" y="-124.5" font-family="Helvetica,sans-Serif" font-size="10.00">cstdint</text>
</g>
<!-- Node3&#45;&gt;Node15 -->
<g id="edge30" class="edge"><title>Node3&#45;&gt;Node15</title>
<path fill="none" stroke="midnightblue" d="M355.587,-177.418C328.775,-167.637 281.83,-150.512 250.18,-138.967"/>
<polygon fill="midnightblue" stroke="midnightblue" points="251.08,-135.57 240.486,-135.431 248.681,-142.146 251.08,-135.57"/>
</g>
<!-- Node16 -->
<g id="node33" class="node"><title>Node16</title>
<polygon fill="white" stroke="#bfbfbf" points="257.874,-116.5 257.874,-137.5 316.874,-137.5 316.874,-116.5 257.874,-116.5"/>
<text text-anchor="middle" x="287.374" y="-124.5" font-family="Helvetica,sans-Serif" font-size="10.00">stdexcept</text>
</g>
<!-- Node3&#45;&gt;Node16 -->
<g id="edge32" class="edge"><title>Node3&#45;&gt;Node16</title>
<path fill="none" stroke="midnightblue" d="M360.05,-174.362C346.626,-165.614 327.391,-153.079 312.081,-143.101"/>
<polygon fill="midnightblue" stroke="midnightblue" points="313.883,-140.098 303.594,-137.571 310.061,-145.963 313.883,-140.098"/>
</g>
<!-- Node17 -->
<g id="node35" class="node"><title>Node17</title>
<polygon fill="white" stroke="#bfbfbf" points="333.874,-116.5 333.874,-137.5 362.874,-137.5 362.874,-116.5 333.874,-116.5"/>
<text text-anchor="middle" x="348.374" y="-124.5" font-family="Helvetica,sans-Serif" font-size="10.00">list</text>
</g>
<!-- Node3&#45;&gt;Node17 -->
<g id="edge34" class="edge"><title>Node3&#45;&gt;Node17</title>
<path fill="none" stroke="midnightblue" d="M371.238,-174.362C367.528,-166.677 362.407,-156.069 357.952,-146.84"/>
<polygon fill="midnightblue" stroke="midnightblue" points="360.976,-145.055 353.477,-137.571 354.673,-148.098 360.976,-145.055"/>
</g>
<!-- Node18 -->
<g id="node37" class="node"><title>Node18</title>
<polygon fill="white" stroke="#bfbfbf" points="380.374,-116.5 380.374,-137.5 430.374,-137.5 430.374,-116.5 380.374,-116.5"/>
<text text-anchor="middle" x="405.374" y="-124.5" font-family="Helvetica,sans-Serif" font-size="10.00">iomanip</text>
</g>
<!-- Node3&#45;&gt;Node18 -->
<g id="edge36" class="edge"><title>Node3&#45;&gt;Node18</title>
<path fill="none" stroke="midnightblue" d="M381.693,-174.362C385.576,-166.595 390.953,-155.843 395.601,-146.546"/>
<polygon fill="midnightblue" stroke="midnightblue" points="398.747,-148.08 400.089,-137.571 392.486,-144.95 398.747,-148.08"/>
</g>
<!-- Node6 -->
<g id="node13" class="node"><title>Node6</title>
<a xlink:href="string_8h.html" target="_top" xlink:title="base/std_ext/string.h">
<polygon fill="white" stroke="black" points="798.374,-58.5 798.374,-79.5 906.374,-79.5 906.374,-58.5 798.374,-58.5"/>
<text text-anchor="middle" x="852.374" y="-66.5" font-family="Helvetica,sans-Serif" font-size="10.00">base/std_ext/string.h</text>
</a>
</g>
<!-- Node5&#45;&gt;Node6 -->
<g id="edge12" class="edge"><title>Node5&#45;&gt;Node6</title>
<path fill="none" stroke="midnightblue" d="M659.931,-116.497C699.237,-106.795 757.747,-92.3547 799.926,-81.9445"/>
<polygon fill="midnightblue" stroke="midnightblue" points="800.867,-85.3174 809.737,-79.5231 799.19,-78.5213 800.867,-85.3174"/>
</g>
<!-- Node11 -->
<g id="node23" class="node"><title>Node11</title>
<polygon fill="white" stroke="#bfbfbf" points="594.374,-58.5 594.374,-79.5 640.374,-79.5 640.374,-58.5 594.374,-58.5"/>
<text text-anchor="middle" x="617.374" y="-66.5" font-family="Helvetica,sans-Serif" font-size="10.00">cstring</text>
</g>
<!-- Node5&#45;&gt;Node11 -->
<g id="edge22" class="edge"><title>Node5&#45;&gt;Node11</title>
<path fill="none" stroke="midnightblue" d="M617.374,-116.362C617.374,-108.922 617.374,-98.7427 617.374,-89.7276"/>
<polygon fill="midnightblue" stroke="midnightblue" points="620.874,-89.5706 617.374,-79.5707 613.874,-89.5707 620.874,-89.5706"/>
</g>
<!-- Node5&#45;&gt;Node12 -->
<g id="edge24" class="edge"><title>Node5&#45;&gt;Node12</title>
<path fill="none" stroke="midnightblue" d="M588.58,-116.497C560.402,-106.218 517.636,-90.6178 488.883,-80.1293"/>
<polygon fill="midnightblue" stroke="midnightblue" points="489.938,-76.7885 479.344,-76.6496 487.539,-83.3646 489.938,-76.7885"/>
</g>
<!-- Node6&#45;&gt;Node7 -->
<g id="edge14" class="edge"><title>Node6&#45;&gt;Node7</title>
<path fill="none" stroke="midnightblue" d="M798.215,-60.0231C793.537,-59.3133 788.875,-58.6288 784.374,-58 647.613,-38.8926 483.749,-21.2292 416.496,-14.204"/>
<polygon fill="midnightblue" stroke="midnightblue" points="416.492,-10.6848 406.183,-13.1312 415.767,-17.6472 416.492,-10.6848"/>
</g>
<!-- Node8 -->
<g id="node17" class="node"><title>Node8</title>
<polygon fill="white" stroke="#bfbfbf" points="826.374,-0.5 826.374,-21.5 878.374,-21.5 878.374,-0.5 826.374,-0.5"/>
<text text-anchor="middle" x="852.374" y="-8.5" font-family="Helvetica,sans-Serif" font-size="10.00">sstream</text>
</g>
<!-- Node6&#45;&gt;Node8 -->
<g id="edge16" class="edge"><title>Node6&#45;&gt;Node8</title>
<path fill="none" stroke="midnightblue" d="M852.374,-58.3619C852.374,-50.9219 852.374,-40.7427 852.374,-31.7276"/>
<polygon fill="midnightblue" stroke="midnightblue" points="855.874,-31.5706 852.374,-21.5707 848.874,-31.5707 855.874,-31.5706"/>
</g>
<!-- Node9 -->
<g id="node19" class="node"><title>Node9</title>
<polygon fill="white" stroke="#bfbfbf" points="896.374,-0.5 896.374,-21.5 952.374,-21.5 952.374,-0.5 896.374,-0.5"/>
<text text-anchor="middle" x="924.374" y="-8.5" font-family="Helvetica,sans-Serif" font-size="10.00">algorithm</text>
</g>
<!-- Node6&#45;&gt;Node9 -->
<g id="edge18" class="edge"><title>Node6&#45;&gt;Node9</title>
<path fill="none" stroke="midnightblue" d="M865.58,-58.3619C876.135,-49.859 891.132,-37.7785 903.337,-27.9466"/>
<polygon fill="midnightblue" stroke="midnightblue" points="905.66,-30.5696 911.252,-21.5707 901.268,-25.1183 905.66,-30.5696"/>
</g>
<!-- Node10 -->
<g id="node21" class="node"><title>Node10</title>
<polygon fill="white" stroke="#bfbfbf" points="764.374,-0.5 764.374,-21.5 808.374,-21.5 808.374,-0.5 764.374,-0.5"/>
<text text-anchor="middle" x="786.374" y="-8.5" font-family="Helvetica,sans-Serif" font-size="10.00">vector</text>
</g>
<!-- Node6&#45;&gt;Node10 -->
<g id="edge20" class="edge"><title>Node6&#45;&gt;Node10</title>
<path fill="none" stroke="midnightblue" d="M840.268,-58.3619C830.686,-49.9408 817.11,-38.0105 805.981,-28.2308"/>
<polygon fill="midnightblue" stroke="midnightblue" points="808.225,-25.5427 798.403,-21.5707 803.604,-30.8009 808.225,-25.5427"/>
</g>
<!-- Node19&#45;&gt;Node7 -->
<g id="edge42" class="edge"><title>Node19&#45;&gt;Node7</title>
<path fill="none" stroke="midnightblue" d="M55.6952,-174.346C62.3089,-159.306 76.3191,-131.911 96.3738,-116 176.324,-52.5692 298.036,-25.3193 354.548,-15.5863"/>
<polygon fill="midnightblue" stroke="midnightblue" points="355.339,-19.0032 364.633,-13.9178 354.196,-12.0971 355.339,-19.0032"/>
</g>
<!-- Node20&#45;&gt;Node4 -->
<g id="edge50" class="edge"><title>Node20&#45;&gt;Node4</title>
<path fill="none" stroke="midnightblue" d="M688.545,-232.897C693.99,-210.573 703.512,-171.535 709.348,-147.605"/>
<polygon fill="midnightblue" stroke="midnightblue" points="712.773,-148.332 711.743,-137.787 705.973,-146.673 712.773,-148.332"/>
</g>
</g>
</svg>
