<?xml version="1.0" encoding="UTF-8" standalone="no"?>
<!DOCTYPE svg PUBLIC "-//W3C//DTD SVG 1.1//EN"
 "http://www.w3.org/Graphics/SVG/1.1/DTD/svg11.dtd">
<!-- Generated by graphviz version 2.26.3 (20100126.1600)
 -->
<!-- Title: src/calibration/Editor.cc Pages: 1 -->
<svg width="1469pt" height="378pt"
 viewBox="0.00 0.00 1469.12 378.00" xmlns="http://www.w3.org/2000/svg" xmlns:xlink="http://www.w3.org/1999/xlink">
<g id="graph1" class="graph" transform="scale(1 1) rotate(0) translate(4 374)">
<title>src/calibration/Editor.cc</title>
<polygon fill="white" stroke="white" points="-4,5 -4,-374 1466.12,-374 1466.12,5 -4,5"/>
<!-- Node0 -->
<g id="node1" class="node"><title>Node0</title>
<polygon fill="#bfbfbf" stroke="black" points="349.623,-348.5 349.623,-369.5 468.623,-369.5 468.623,-348.5 349.623,-348.5"/>
<text text-anchor="middle" x="409.123" y="-356.5" font-family="Helvetica,sans-Serif" font-size="10.00">src/calibration/Editor.cc</text>
</g>
<!-- Node1 -->
<g id="node3" class="node"><title>Node1</title>
<a xlink:href="_editor_8h.html" target="_top" xlink:title="Editor.h">
<polygon fill="white" stroke="black" points="250.123,-290.5 250.123,-311.5 300.123,-311.5 300.123,-290.5 250.123,-290.5"/>
<text text-anchor="middle" x="275.123" y="-298.5" font-family="Helvetica,sans-Serif" font-size="10.00">Editor.h</text>
</a>
</g>
<!-- Node0&#45;&gt;Node1 -->
<g id="edge2" class="edge"><title>Node0&#45;&gt;Node1</title>
<path fill="none" stroke="midnightblue" d="M384.856,-348.497C363.645,-339.315 332.625,-325.889 308.973,-315.652"/>
<polygon fill="midnightblue" stroke="midnightblue" points="310.229,-312.381 299.661,-311.621 307.448,-318.806 310.229,-312.381"/>
</g>
<!-- Node20 -->
<g id="node45" class="node"><title>Node20</title>
<a xlink:href="_wrap_t_file_8h.html" target="_top" xlink:title="base/WrapTFile.h">
<polygon fill="white" stroke="black" points="893.123,-174.5 893.123,-195.5 987.123,-195.5 987.123,-174.5 893.123,-174.5"/>
<text text-anchor="middle" x="940.123" y="-182.5" font-family="Helvetica,sans-Serif" font-size="10.00">base/WrapTFile.h</text>
</a>
</g>
<!-- Node0&#45;&gt;Node20 -->
<g id="edge48" class="edge"><title>Node0&#45;&gt;Node20</title>
<path fill="none" stroke="midnightblue" d="M441.54,-348.377C533.391,-318.279 795.36,-232.436 898.074,-198.779"/>
<polygon fill="midnightblue" stroke="midnightblue" points="899.38,-202.034 907.793,-195.594 897.201,-195.382 899.38,-202.034"/>
</g>
<!-- Node2 -->
<g id="node5" class="node"><title>Node2</title>
<a xlink:href="_t_calibration_data_8h.html" target="_top" xlink:title="tree/TCalibrationData.h">
<polygon fill="white" stroke="black" points="1.12281,-232.5 1.12281,-253.5 119.123,-253.5 119.123,-232.5 1.12281,-232.5"/>
<text text-anchor="middle" x="60.1228" y="-240.5" font-family="Helvetica,sans-Serif" font-size="10.00">tree/TCalibrationData.h</text>
</a>
</g>
<!-- Node1&#45;&gt;Node2 -->
<g id="edge4" class="edge"><title>Node1&#45;&gt;Node2</title>
<path fill="none" stroke="midnightblue" d="M250.039,-294.233C215.612,-284.946 153.003,-268.056 109.111,-256.215"/>
<polygon fill="midnightblue" stroke="midnightblue" points="109.783,-252.772 99.2164,-253.546 107.96,-259.53 109.783,-252.772"/>
</g>
<!-- Node3 -->
<g id="node7" class="node"><title>Node3</title>
<a xlink:href="_t_i_d_8h.html" target="_top" xlink:title="TID.h">
<polygon fill="white" stroke="black" points="298.623,-174.5 298.623,-195.5 339.623,-195.5 339.623,-174.5 298.623,-174.5"/>
<text text-anchor="middle" x="319.123" y="-182.5" font-family="Helvetica,sans-Serif" font-size="10.00">TID.h</text>
</a>
</g>
<!-- Node2&#45;&gt;Node3 -->
<g id="edge6" class="edge"><title>Node2&#45;&gt;Node3</title>
<path fill="none" stroke="midnightblue" d="M107.026,-232.497C159.658,-220.71 243.532,-201.928 288.412,-191.877"/>
<polygon fill="midnightblue" stroke="midnightblue" points="289.425,-195.237 298.418,-189.637 287.895,-188.406 289.425,-195.237"/>
</g>
<!-- Node7 -->
<g id="node15" class="node"><title>Node7</title>
<polygon fill="white" stroke="#bfbfbf" points="284.623,-0.5 284.623,-21.5 325.623,-21.5 325.623,-0.5 284.623,-0.5"/>
<text text-anchor="middle" x="305.123" y="-8.5" font-family="Helvetica,sans-Serif" font-size="10.00">string</text>
</g>
<!-- Node2&#45;&gt;Node7 -->
<g id="edge44" class="edge"><title>Node2&#45;&gt;Node7</title>
<path fill="none" stroke="midnightblue" d="M39.7676,-232.453C26.6458,-224.416 10.672,-212.009 3.12281,-196 -7.16914,-174.174 14.9095,-122.904 19.1228,-116 38.9487,-83.5126 48.293,-75.4367 82.1228,-58 145.316,-25.4286 229.661,-15.4257 274.333,-12.3564"/>
<polygon fill="midnightblue" stroke="midnightblue" points="274.773,-15.8361 284.54,-11.7299 274.344,-8.84927 274.773,-15.8361"/>
</g>
<!-- Node12 -->
<g id="node25" class="node"><title>Node12</title>
<polygon fill="white" stroke="#bfbfbf" points="461.623,-58.5 461.623,-79.5 502.623,-79.5 502.623,-58.5 461.623,-58.5"/>
<text text-anchor="middle" x="482.123" y="-66.5" font-family="Helvetica,sans-Serif" font-size="10.00">ctime</text>
</g>
<!-- Node2&#45;&gt;Node12 -->
<g id="edge46" class="edge"><title>Node2&#45;&gt;Node12</title>
<path fill="none" stroke="midnightblue" d="M43.8629,-232.423C32.6076,-224.058 18.541,-211.267 12.1228,-196 -3.13188,-159.713 16.3598,-136.236 50.1228,-116 124.683,-71.312 349.85,-98.2004 451.41,-79.6999"/>
<polygon fill="midnightblue" stroke="midnightblue" points="452.341,-83.0814 461.425,-77.6285 450.923,-76.2265 452.341,-83.0814"/>
</g>
<!-- Node19 -->
<g id="node40" class="node"><title>Node19</title>
<a xlink:href="_git_info_8h.html" target="_top" xlink:title="base/GitInfo.h">
<polygon fill="white" stroke="black" points="21.1228,-174.5 21.1228,-195.5 99.1228,-195.5 99.1228,-174.5 21.1228,-174.5"/>
<text text-anchor="middle" x="60.1228" y="-182.5" font-family="Helvetica,sans-Serif" font-size="10.00">base/GitInfo.h</text>
</a>
</g>
<!-- Node2&#45;&gt;Node19 -->
<g id="edge40" class="edge"><title>Node2&#45;&gt;Node19</title>
<path fill="none" stroke="midnightblue" d="M60.1228,-232.362C60.1228,-224.922 60.1228,-214.743 60.1228,-205.728"/>
<polygon fill="midnightblue" stroke="midnightblue" points="63.6229,-205.571 60.1228,-195.571 56.6229,-205.571 63.6229,-205.571"/>
</g>
<!-- Node4 -->
<g id="node9" class="node"><title>Node4</title>
<polygon fill="white" stroke="#bfbfbf" points="327.123,-116.5 327.123,-137.5 383.123,-137.5 383.123,-116.5 327.123,-116.5"/>
<text text-anchor="middle" x="355.123" y="-124.5" font-family="Helvetica,sans-Serif" font-size="10.00">Rtypes.h</text>
</g>
<!-- Node3&#45;&gt;Node4 -->
<g id="edge8" class="edge"><title>Node3&#45;&gt;Node4</title>
<path fill="none" stroke="midnightblue" d="M325.726,-174.362C330.597,-166.513 337.361,-155.616 343.173,-146.253"/>
<polygon fill="midnightblue" stroke="midnightblue" points="346.262,-147.913 348.562,-137.571 340.314,-144.221 346.262,-147.913"/>
</g>
<!-- Node5 -->
<g id="node11" class="node"><title>Node5</title>
<a xlink:href="base_2std__ext_2_time_8h.html" target="_top" xlink:title="base/std_ext/time.h">
<polygon fill="white" stroke="black" points="400.623,-116.5 400.623,-137.5 503.623,-137.5 503.623,-116.5 400.623,-116.5"/>
<text text-anchor="middle" x="452.123" y="-124.5" font-family="Helvetica,sans-Serif" font-size="10.00">base/std_ext/time.h</text>
</a>
</g>
<!-- Node3&#45;&gt;Node5 -->
<g id="edge10" class="edge"><title>Node3&#45;&gt;Node5</title>
<path fill="none" stroke="midnightblue" d="M339.904,-175.938C360.93,-166.768 393.775,-152.445 418.509,-141.659"/>
<polygon fill="midnightblue" stroke="midnightblue" points="420.116,-144.776 427.883,-137.571 417.318,-138.36 420.116,-144.776"/>
</g>
<!-- Node3&#45;&gt;Node12 -->
<g id="edge38" class="edge"><title>Node3&#45;&gt;Node12</title>
<path fill="none" stroke="midnightblue" d="M339.73,-183.13C385.004,-178.55 490.817,-165.117 512.123,-138 524.107,-122.747 512.093,-101.972 499.89,-87.214"/>
<polygon fill="midnightblue" stroke="midnightblue" points="502.492,-84.8732 493.242,-79.7073 497.252,-89.5141 502.492,-84.8732"/>
</g>
<!-- Node13 -->
<g id="node27" class="node"><title>Node13</title>
<polygon fill="white" stroke="#bfbfbf" points="59.1228,-116.5 59.1228,-137.5 121.123,-137.5 121.123,-116.5 59.1228,-116.5"/>
<text text-anchor="middle" x="90.1228" y="-124.5" font-family="Helvetica,sans-Serif" font-size="10.00">type_traits</text>
</g>
<!-- Node3&#45;&gt;Node13 -->
<g id="edge26" class="edge"><title>Node3&#45;&gt;Node13</title>
<path fill="none" stroke="midnightblue" d="M298.385,-180.02C265.187,-172.01 197.834,-155.604 131.345,-138.282"/>
<polygon fill="midnightblue" stroke="midnightblue" points="132.106,-134.863 121.546,-135.72 130.336,-141.635 132.106,-134.863"/>
</g>
<!-- Node14 -->
<g id="node29" class="node"><title>Node14</title>
<polygon fill="white" stroke="#bfbfbf" points="139.123,-116.5 139.123,-137.5 177.123,-137.5 177.123,-116.5 139.123,-116.5"/>
<text text-anchor="middle" x="158.123" y="-124.5" font-family="Helvetica,sans-Serif" font-size="10.00">tuple</text>
</g>
<!-- Node3&#45;&gt;Node14 -->
<g id="edge28" class="edge"><title>Node3&#45;&gt;Node14</title>
<path fill="none" stroke="midnightblue" d="M298.309,-177.895C273.804,-169.476 231.672,-154.835 186.947,-138.233"/>
<polygon fill="midnightblue" stroke="midnightblue" points="187.961,-134.876 177.369,-134.662 185.516,-141.435 187.961,-134.876"/>
</g>
<!-- Node15 -->
<g id="node31" class="node"><title>Node15</title>
<polygon fill="white" stroke="#bfbfbf" points="195.123,-116.5 195.123,-137.5 241.123,-137.5 241.123,-116.5 195.123,-116.5"/>
<text text-anchor="middle" x="218.123" y="-124.5" font-family="Helvetica,sans-Serif" font-size="10.00">cstdint</text>
</g>
<!-- Node3&#45;&gt;Node15 -->
<g id="edge30" class="edge"><title>Node3&#45;&gt;Node15</title>
<path fill="none" stroke="midnightblue" d="M300.598,-174.362C285.222,-165.532 263.127,-152.844 245.676,-142.822"/>
<polygon fill="midnightblue" stroke="midnightblue" points="246.945,-139.515 236.53,-137.571 243.459,-145.586 246.945,-139.515"/>
</g>
<!-- Node16 -->
<g id="node33" class="node"><title>Node16</title>
<polygon fill="white" stroke="#bfbfbf" points="558.623,-116.5 558.623,-137.5 617.623,-137.5 617.623,-116.5 558.623,-116.5"/>
<text text-anchor="middle" x="588.123" y="-124.5" font-family="Helvetica,sans-Serif" font-size="10.00">stdexcept</text>
</g>
<!-- Node3&#45;&gt;Node16 -->
<g id="edge32" class="edge"><title>Node3&#45;&gt;Node16</title>
<path fill="none" stroke="midnightblue" d="M339.758,-181.035C379.584,-173.309 469.774,-155.463 545.123,-138 546.211,-137.748 547.314,-137.489 548.427,-137.225"/>
<polygon fill="midnightblue" stroke="midnightblue" points="549.673,-140.523 558.558,-134.751 548.013,-133.723 549.673,-140.523"/>
</g>
<!-- Node17 -->
<g id="node35" class="node"><title>Node17</title>
<polygon fill="white" stroke="#bfbfbf" points="634.623,-116.5 634.623,-137.5 663.623,-137.5 663.623,-116.5 634.623,-116.5"/>
<text text-anchor="middle" x="649.123" y="-124.5" font-family="Helvetica,sans-Serif" font-size="10.00">list</text>
</g>
<!-- Node3&#45;&gt;Node17 -->
<g id="edge34" class="edge"><title>Node3&#45;&gt;Node17</title>
<path fill="none" stroke="midnightblue" d="M339.7,-183.937C388.352,-180.99 514.126,-170.841 624.661,-137.819"/>
<polygon fill="midnightblue" stroke="midnightblue" points="625.747,-141.147 634.285,-134.873 623.698,-134.454 625.747,-141.147"/>
</g>
<!-- Node18 -->
<g id="node37" class="node"><title>Node18</title>
<polygon fill="white" stroke="#bfbfbf" points="259.123,-116.5 259.123,-137.5 309.123,-137.5 309.123,-116.5 259.123,-116.5"/>
<text text-anchor="middle" x="284.123" y="-124.5" font-family="Helvetica,sans-Serif" font-size="10.00">iomanip</text>
</g>
<!-- Node3&#45;&gt;Node18 -->
<g id="edge36" class="edge"><title>Node3&#45;&gt;Node18</title>
<path fill="none" stroke="midnightblue" d="M312.703,-174.362C307.967,-166.513 301.391,-155.616 295.741,-146.253"/>
<polygon fill="midnightblue" stroke="midnightblue" points="298.665,-144.324 290.502,-137.571 292.672,-147.941 298.665,-144.324"/>
</g>
<!-- Node6 -->
<g id="node13" class="node"><title>Node6</title>
<a xlink:href="string_8h.html" target="_top" xlink:title="base/std_ext/string.h">
<polygon fill="white" stroke="black" points="623.123,-58.5 623.123,-79.5 731.123,-79.5 731.123,-58.5 623.123,-58.5"/>
<text text-anchor="middle" x="677.123" y="-66.5" font-family="Helvetica,sans-Serif" font-size="10.00">base/std_ext/string.h</text>
</a>
</g>
<!-- Node5&#45;&gt;Node6 -->
<g id="edge12" class="edge"><title>Node5&#45;&gt;Node6</title>
<path fill="none" stroke="midnightblue" d="M492.869,-116.497C530.344,-106.836 586.05,-92.4765 626.395,-82.0765"/>
<polygon fill="midnightblue" stroke="midnightblue" points="627.491,-85.4085 636.301,-79.5231 625.743,-78.6301 627.491,-85.4085"/>
</g>
<!-- Node11 -->
<g id="node23" class="node"><title>Node11</title>
<polygon fill="white" stroke="#bfbfbf" points="398.123,-58.5 398.123,-79.5 444.123,-79.5 444.123,-58.5 398.123,-58.5"/>
<text text-anchor="middle" x="421.123" y="-66.5" font-family="Helvetica,sans-Serif" font-size="10.00">cstring</text>
</g>
<!-- Node5&#45;&gt;Node11 -->
<g id="edge22" class="edge"><title>Node5&#45;&gt;Node11</title>
<path fill="none" stroke="midnightblue" d="M446.437,-116.362C442.286,-108.595 436.539,-97.8426 431.57,-88.5458"/>
<polygon fill="midnightblue" stroke="midnightblue" points="434.573,-86.7401 426.773,-79.5707 428.4,-90.0398 434.573,-86.7401"/>
</g>
<!-- Node5&#45;&gt;Node12 -->
<g id="edge24" class="edge"><title>Node5&#45;&gt;Node12</title>
<path fill="none" stroke="midnightblue" d="M457.625,-116.362C461.643,-108.595 467.204,-97.8426 472.013,-88.5458"/>
<polygon fill="midnightblue" stroke="midnightblue" points="475.17,-90.0608 476.655,-79.5707 468.952,-86.8448 475.17,-90.0608"/>
</g>
<!-- Node6&#45;&gt;Node7 -->
<g id="edge14" class="edge"><title>Node6&#45;&gt;Node7</title>
<path fill="none" stroke="midnightblue" d="M622.938,-60.1998C618.266,-59.4516 613.611,-58.71 609.123,-58 509.229,-42.1986 390.771,-24.0557 335.879,-15.6824"/>
<polygon fill="midnightblue" stroke="midnightblue" points="336.186,-12.1888 325.772,-14.1416 335.131,-19.1089 336.186,-12.1888"/>
</g>
<!-- Node8 -->
<g id="node17" class="node"><title>Node8</title>
<polygon fill="white" stroke="#bfbfbf" points="618.123,-0.5 618.123,-21.5 670.123,-21.5 670.123,-0.5 618.123,-0.5"/>
<text text-anchor="middle" x="644.123" y="-8.5" font-family="Helvetica,sans-Serif" font-size="10.00">sstream</text>
</g>
<!-- Node6&#45;&gt;Node8 -->
<g id="edge16" class="edge"><title>Node6&#45;&gt;Node8</title>
<path fill="none" stroke="midnightblue" d="M671.07,-58.3619C666.651,-50.5949 660.533,-39.8426 655.244,-30.5458"/>
<polygon fill="midnightblue" stroke="midnightblue" points="658.125,-28.5315 650.137,-21.5707 652.04,-31.9932 658.125,-28.5315"/>
</g>
<!-- Node9 -->
<g id="node19" class="node"><title>Node9</title>
<polygon fill="white" stroke="#bfbfbf" points="861.123,-0.5 861.123,-21.5 917.123,-21.5 917.123,-0.5 861.123,-0.5"/>
<text text-anchor="middle" x="889.123" y="-8.5" font-family="Helvetica,sans-Serif" font-size="10.00">algorithm</text>
</g>
<!-- Node6&#45;&gt;Node9 -->
<g id="edge18" class="edge"><title>Node6&#45;&gt;Node9</title>
<path fill="none" stroke="midnightblue" d="M715.514,-58.4966C753.961,-47.9783 812.772,-31.8884 851.091,-21.405"/>
<polygon fill="midnightblue" stroke="midnightblue" points="852.121,-24.7517 860.843,-18.7369 850.274,-17.9999 852.121,-24.7517"/>
</g>
<!-- Node10 -->
<g id="node21" class="node"><title>Node10</title>
<polygon fill="white" stroke="#bfbfbf" points="688.123,-0.5 688.123,-21.5 732.123,-21.5 732.123,-0.5 688.123,-0.5"/>
<text text-anchor="middle" x="710.123" y="-8.5" font-family="Helvetica,sans-Serif" font-size="10.00">vector</text>
</g>
<!-- Node6&#45;&gt;Node10 -->
<g id="edge20" class="edge"><title>Node6&#45;&gt;Node10</title>
<path fill="none" stroke="midnightblue" d="M683.176,-58.3619C687.595,-50.5949 693.712,-39.8426 699.002,-30.5458"/>
<polygon fill="midnightblue" stroke="midnightblue" points="702.205,-31.9932 704.108,-21.5707 696.121,-28.5315 702.205,-31.9932"/>
</g>
<!-- Node19&#45;&gt;Node7 -->
<g id="edge42" class="edge"><title>Node19&#45;&gt;Node7</title>
<path fill="none" stroke="midnightblue" d="M54.3306,-174.182C47.4405,-159.676 38.2686,-133.701 50.1228,-116 101.179,-39.7614 218.704,-18.8249 274.563,-13.1166"/>
<polygon fill="midnightblue" stroke="midnightblue" points="274.925,-16.5981 284.56,-12.1919 274.281,-9.62782 274.925,-16.5981"/>
</g>
<!-- Node20&#45;&gt;Node6 -->
<g id="edge50" class="edge"><title>Node20&#45;&gt;Node6</title>
<path fill="none" stroke="midnightblue" d="M892.882,-176.48C858.295,-169.138 810.839,-156.725 772.123,-138 743.638,-124.223 714.768,-101.785 696.454,-86.254"/>
<polygon fill="midnightblue" stroke="midnightblue" points="698.677,-83.5489 688.821,-79.6602 694.101,-88.846 698.677,-83.5489"/>
</g>
<!-- Node20&#45;&gt;Node7 -->
<g id="edge76" class="edge"><title>Node20&#45;&gt;Node7</title>
<path fill="none" stroke="midnightblue" d="M893.004,-176.162C850.553,-167.773 786.629,-154.078 732.123,-138 704.881,-129.964 698.817,-125.702 672.123,-116 600.641,-90.0195 584.111,-79.3874 511.123,-58 449.724,-40.0087 376.368,-24.7162 335.847,-16.7963"/>
<polygon fill="midnightblue" stroke="midnightblue" points="336.285,-13.3163 325.802,-14.853 334.956,-20.1888 336.285,-13.3163"/>
</g>
<!-- Node20&#45;&gt;Node16 -->
<g id="edge82" class="edge"><title>Node20&#45;&gt;Node16</title>
<path fill="none" stroke="midnightblue" d="M892.953,-179.926C833.199,-173.061 726.95,-159.396 627.779,-138.171"/>
<polygon fill="midnightblue" stroke="midnightblue" points="628.412,-134.727 617.897,-136.025 626.927,-141.568 628.412,-134.727"/>
</g>
<!-- Node20&#45;&gt;Node17 -->
<g id="edge78" class="edge"><title>Node20&#45;&gt;Node17</title>
<path fill="none" stroke="midnightblue" d="M892.933,-179.426C839.802,-172.494 751.213,-158.952 677.123,-138 675.879,-137.648 674.614,-137.262 673.343,-136.85"/>
<polygon fill="midnightblue" stroke="midnightblue" points="674.352,-133.493 663.758,-133.378 671.968,-140.075 674.352,-133.493"/>
</g>
<!-- Node21 -->
<g id="node48" class="node"><title>Node21</title>
<a xlink:href="misc_8h.html" target="_top" xlink:title="base/std_ext/misc.h">
<polygon fill="white" stroke="black" points="794.623,-116.5 794.623,-137.5 899.623,-137.5 899.623,-116.5 794.623,-116.5"/>
<text text-anchor="middle" x="847.123" y="-124.5" font-family="Helvetica,sans-Serif" font-size="10.00">base/std_ext/misc.h</text>
</a>
</g>
<!-- Node20&#45;&gt;Node21 -->
<g id="edge52" class="edge"><title>Node20&#45;&gt;Node21</title>
<path fill="none" stroke="midnightblue" d="M923.065,-174.362C909.038,-165.614 888.938,-153.079 872.941,-143.101"/>
<polygon fill="midnightblue" stroke="midnightblue" points="874.41,-139.893 864.072,-137.571 870.705,-145.832 874.41,-139.893"/>
</g>
<!-- Node22 -->
<g id="node51" class="node"><title>Node22</title>
<polygon fill="white" stroke="#bfbfbf" points="748.623,-58.5 748.623,-79.5 807.623,-79.5 807.623,-58.5 748.623,-58.5"/>
<text text-anchor="middle" x="778.123" y="-66.5" font-family="Helvetica,sans-Serif" font-size="10.00">functional</text>
</g>
<!-- Node20&#45;&gt;Node22 -->
<g id="edge84" class="edge"><title>Node20&#45;&gt;Node22</title>
<path fill="none" stroke="midnightblue" d="M892.826,-176.435C852.836,-168.182 799.907,-154.532 786.123,-138 775.169,-124.862 773.897,-105.1 774.942,-90.0875"/>
<polygon fill="midnightblue" stroke="midnightblue" points="778.467,-90.0417 776.07,-79.7217 771.508,-89.2843 778.467,-90.0417"/>
</g>
<!-- Node25 -->
<g id="node57" class="node"><title>Node25</title>
<polygon fill="white" stroke="#bfbfbf" points="916.623,-116.5 916.623,-137.5 963.623,-137.5 963.623,-116.5 916.623,-116.5"/>
<text text-anchor="middle" x="940.123" y="-124.5" font-family="Helvetica,sans-Serif" font-size="10.00">TFile.h</text>
</g>
<!-- Node20&#45;&gt;Node25 -->
<g id="edge62" class="edge"><title>Node20&#45;&gt;Node25</title>
<path fill="none" stroke="midnightblue" d="M940.123,-174.362C940.123,-166.922 940.123,-156.743 940.123,-147.728"/>
<polygon fill="midnightblue" stroke="midnightblue" points="943.623,-147.571 940.123,-137.571 936.623,-147.571 943.623,-147.571"/>
</g>
<!-- Node26 -->
<g id="node59" class="node"><title>Node26</title>
<polygon fill="white" stroke="#bfbfbf" points="980.623,-116.5 980.623,-137.5 1051.62,-137.5 1051.62,-116.5 980.623,-116.5"/>
<text text-anchor="middle" x="1016.12" y="-124.5" font-family="Helvetica,sans-Serif" font-size="10.00">TDirectory.h</text>
</g>
<!-- Node20&#45;&gt;Node26 -->
<g id="edge64" class="edge"><title>Node20&#45;&gt;Node26</title>
<path fill="none" stroke="midnightblue" d="M954.062,-174.362C965.311,-165.777 981.339,-153.546 994.288,-143.664"/>
<polygon fill="midnightblue" stroke="midnightblue" points="996.445,-146.42 1002.27,-137.571 992.199,-140.855 996.445,-146.42"/>
</g>
<!-- Node27 -->
<g id="node61" class="node"><title>Node27</title>
<polygon fill="white" stroke="#bfbfbf" points="1069.12,-116.5 1069.12,-137.5 1121.12,-137.5 1121.12,-116.5 1069.12,-116.5"/>
<text text-anchor="middle" x="1095.12" y="-124.5" font-family="Helvetica,sans-Serif" font-size="10.00">TError.h</text>
</g>
<!-- Node20&#45;&gt;Node27 -->
<g id="edge66" class="edge"><title>Node20&#45;&gt;Node27</title>
<path fill="none" stroke="midnightblue" d="M968.192,-174.497C993.755,-164.931 1031.63,-150.758 1059.35,-140.384"/>
<polygon fill="midnightblue" stroke="midnightblue" points="1060.93,-143.532 1069.07,-136.75 1058.48,-136.976 1060.93,-143.532"/>
</g>
<!-- Node28 -->
<g id="node63" class="node"><title>Node28</title>
<polygon fill="white" stroke="#bfbfbf" points="1138.62,-116.5 1138.62,-137.5 1185.62,-137.5 1185.62,-116.5 1138.62,-116.5"/>
<text text-anchor="middle" x="1162.12" y="-124.5" font-family="Helvetica,sans-Serif" font-size="10.00">TList.h</text>
</g>
<!-- Node20&#45;&gt;Node28 -->
<g id="edge68" class="edge"><title>Node20&#45;&gt;Node28</title>
<path fill="none" stroke="midnightblue" d="M987.283,-174.559C1023.73,-166.213 1075.6,-153.739 1128.83,-138.231"/>
<polygon fill="midnightblue" stroke="midnightblue" points="1129.83,-141.587 1138.43,-135.405 1127.85,-134.872 1129.83,-141.587"/>
</g>
<!-- Node29 -->
<g id="node65" class="node"><title>Node29</title>
<polygon fill="white" stroke="#bfbfbf" points="1203.12,-116.5 1203.12,-137.5 1277.12,-137.5 1277.12,-116.5 1203.12,-116.5"/>
<text text-anchor="middle" x="1240.12" y="-124.5" font-family="Helvetica,sans-Serif" font-size="10.00">TCollection.h</text>
</g>
<!-- Node20&#45;&gt;Node29 -->
<g id="edge70" class="edge"><title>Node20&#45;&gt;Node29</title>
<path fill="none" stroke="midnightblue" d="M987.549,-176.98C1036.58,-168.519 1115.58,-154.419 1193.07,-138.15"/>
<polygon fill="midnightblue" stroke="midnightblue" points="1193.94,-141.543 1203,-136.051 1192.5,-134.694 1193.94,-141.543"/>
</g>
<!-- Node30 -->
<g id="node67" class="node"><title>Node30</title>
<polygon fill="white" stroke="#bfbfbf" points="1295.12,-116.5 1295.12,-137.5 1343.12,-137.5 1343.12,-116.5 1295.12,-116.5"/>
<text text-anchor="middle" x="1319.12" y="-124.5" font-family="Helvetica,sans-Serif" font-size="10.00">TKey.h</text>
</g>
<!-- Node20&#45;&gt;Node30 -->
<g id="edge72" class="edge"><title>Node20&#45;&gt;Node30</title>
<path fill="none" stroke="midnightblue" d="M987.357,-181.397C1052.48,-175.815 1173.51,-163.23 1285.05,-137.905"/>
<polygon fill="midnightblue" stroke="midnightblue" points="1286.17,-141.239 1295.12,-135.577 1284.59,-134.419 1286.17,-141.239"/>
</g>
<!-- Node31 -->
<g id="node69" class="node"><title>Node31</title>
<polygon fill="white" stroke="#bfbfbf" points="1361.12,-116.5 1361.12,-137.5 1413.12,-137.5 1413.12,-116.5 1361.12,-116.5"/>
<text text-anchor="middle" x="1387.12" y="-124.5" font-family="Helvetica,sans-Serif" font-size="10.00">memory</text>
</g>
<!-- Node20&#45;&gt;Node31 -->
<g id="edge74" class="edge"><title>Node20&#45;&gt;Node31</title>
<path fill="none" stroke="midnightblue" d="M987.24,-182.557C1062.47,-178.018 1214.33,-166.246 1351.07,-137.904"/>
<polygon fill="midnightblue" stroke="midnightblue" points="1351.83,-141.322 1360.89,-135.835 1350.39,-134.472 1351.83,-141.322"/>
</g>
<!-- Node32 -->
<g id="node73" class="node"><title>Node32</title>
<polygon fill="white" stroke="#bfbfbf" points="1431.12,-116.5 1431.12,-137.5 1461.12,-137.5 1461.12,-116.5 1431.12,-116.5"/>
<text text-anchor="middle" x="1446.12" y="-124.5" font-family="Helvetica,sans-Serif" font-size="10.00">set</text>
</g>
<!-- Node20&#45;&gt;Node32 -->
<g id="edge80" class="edge"><title>Node20&#45;&gt;Node32</title>
<path fill="none" stroke="midnightblue" d="M987.18,-182.403C1088.22,-176.516 1323.99,-161.033 1421.13,-137.419"/>
<polygon fill="midnightblue" stroke="midnightblue" points="1422.11,-140.781 1430.91,-134.882 1420.35,-134.005 1422.11,-140.781"/>
</g>
<!-- Node21&#45;&gt;Node9 -->
<g id="edge54" class="edge"><title>Node21&#45;&gt;Node9</title>
<path fill="none" stroke="midnightblue" d="M895.988,-116.453C915.689,-109.543 936.477,-98.2642 948.123,-80 960.653,-60.3479 939.022,-40.3765 918.513,-27.0119"/>
<polygon fill="midnightblue" stroke="midnightblue" points="920.247,-23.969 909.896,-21.7089 916.578,-29.9307 920.247,-23.969"/>
</g>
<!-- Node21&#45;&gt;Node22 -->
<g id="edge56" class="edge"><title>Node21&#45;&gt;Node22</title>
<path fill="none" stroke="midnightblue" d="M834.467,-116.362C824.449,-107.941 810.256,-96.0105 798.622,-86.2308"/>
<polygon fill="midnightblue" stroke="midnightblue" points="800.605,-83.326 790.698,-79.5707 796.101,-88.6844 800.605,-83.326"/>
</g>
<!-- Node23 -->
<g id="node53" class="node"><title>Node23</title>
<polygon fill="white" stroke="#bfbfbf" points="825.123,-58.5 825.123,-79.5 869.123,-79.5 869.123,-58.5 825.123,-58.5"/>
<text text-anchor="middle" x="847.123" y="-66.5" font-family="Helvetica,sans-Serif" font-size="10.00">cmath</text>
</g>
<!-- Node21&#45;&gt;Node23 -->
<g id="edge58" class="edge"><title>Node21&#45;&gt;Node23</title>
<path fill="none" stroke="midnightblue" d="M847.123,-116.362C847.123,-108.922 847.123,-98.7427 847.123,-89.7276"/>
<polygon fill="midnightblue" stroke="midnightblue" points="850.623,-89.5706 847.123,-79.5707 843.623,-89.5707 850.623,-89.5706"/>
</g>
<!-- Node24 -->
<g id="node55" class="node"><title>Node24</title>
<polygon fill="white" stroke="#bfbfbf" points="886.623,-58.5 886.623,-79.5 939.623,-79.5 939.623,-58.5 886.623,-58.5"/>
<text text-anchor="middle" x="913.123" y="-66.5" font-family="Helvetica,sans-Serif" font-size="10.00">cxxabi.h</text>
</g>
<!-- Node21&#45;&gt;Node24 -->
<g id="edge60" class="edge"><title>Node21&#45;&gt;Node24</title>
<path fill="none" stroke="midnightblue" d="M859.228,-116.362C868.811,-107.941 882.387,-96.0105 893.515,-86.2308"/>
<polygon fill="midnightblue" stroke="midnightblue" points="895.893,-88.8009 901.094,-79.5707 891.272,-83.5427 895.893,-88.8009"/>
</g>
</g>
</svg>
