<?xml version="1.0" encoding="UTF-8" standalone="no"?>
<!DOCTYPE svg PUBLIC "-//W3C//DTD SVG 1.1//EN"
 "http://www.w3.org/Graphics/SVG/1.1/DTD/svg11.dtd">
<!-- Generated by graphviz version 2.26.3 (20100126.1600)
 -->
<!-- Title: src/analysis/physics/common/EventFilter.h Pages: 1 -->
<svg width="128pt" height="116pt"
 viewBox="0.00 0.00 128.00 116.00" xmlns="http://www.w3.org/2000/svg" xmlns:xlink="http://www.w3.org/1999/xlink">
<g id="graph1" class="graph" transform="scale(1 1) rotate(0) translate(4 112)">
<title>src/analysis/physics/common/EventFilter.h</title>
<polygon fill="white" stroke="white" points="-4,5 -4,-112 125,-112 125,5 -4,5"/>
<!-- Node86 -->
<g id="node1" class="node"><title>Node86</title>
<polygon fill="#bfbfbf" stroke="black" points="2,-73 2,-107 118,-107 118,-73 2,-73"/>
<text text-anchor="start" x="10" y="-94" font-family="Helvetica,sans-Serif" font-size="10.00">src/analysis/physics</text>
<text text-anchor="middle" x="60" y="-81" font-family="Helvetica,sans-Serif" font-size="10.00">/common/EventFilter.h</text>
</g>
<!-- Node87 -->
<g id="node3" class="node"><title>Node87</title>
<a xlink:href="_event_filter_8cc.html" target="_top" xlink:title="src/analysis/physics\l/common/EventFilter.cc">
<polygon fill="white" stroke="black" points="-0.5,-1 -0.5,-35 120.5,-35 120.5,-1 -0.5,-1"/>
<text text-anchor="start" x="7.5" y="-22" font-family="Helvetica,sans-Serif" font-size="10.00">src/analysis/physics</text>
<text text-anchor="middle" x="60" y="-9" font-family="Helvetica,sans-Serif" font-size="10.00">/common/EventFilter.cc</text>
</a>
</g>
<!-- Node86&#45;&gt;Node87 -->
<g id="edge2" class="edge"><title>Node86&#45;&gt;Node87</title>
<path fill="none" stroke="midnightblue" d="M60,-62.7193C60,-53.572 60,-43.6255 60,-35.4407"/>
<polygon fill="midnightblue" stroke="midnightblue" points="56.5001,-62.937 60,-72.937 63.5001,-62.937 56.5001,-62.937"/>
</g>
</g>
</svg>
