<?xml version="1.0" encoding="UTF-8" standalone="no"?>
<!DOCTYPE svg PUBLIC "-//W3C//DTD SVG 1.1//EN"
 "http://www.w3.org/Graphics/SVG/1.1/DTD/svg11.dtd">
<!-- Generated by graphviz version 2.26.3 (20100126.1600)
 -->
<!-- Title: src/calibration/fitfunctions/FitGausPol3.cc Pages: 1 -->
<svg width="1033pt" height="362pt"
 viewBox="0.00 0.00 1032.75 362.00" xmlns="http://www.w3.org/2000/svg" xmlns:xlink="http://www.w3.org/1999/xlink">
<g id="graph1" class="graph" transform="scale(1 1) rotate(0) translate(4 358)">
<title>src/calibration/fitfunctions/FitGausPol3.cc</title>
<polygon fill="white" stroke="white" points="-4,5 -4,-358 1029.75,-358 1029.75,5 -4,5"/>
<!-- Node0 -->
<g id="node1" class="node"><title>Node0</title>
<polygon fill="#bfbfbf" stroke="black" points="723.749,-319 723.749,-353 851.749,-353 851.749,-319 723.749,-319"/>
<text text-anchor="start" x="731.749" y="-340" font-family="Helvetica,sans-Serif" font-size="10.00">src/calibration/fitfunctions</text>
<text text-anchor="middle" x="787.749" y="-327" font-family="Helvetica,sans-Serif" font-size="10.00">/FitGausPol3.cc</text>
</g>
<!-- Node1 -->
<g id="node3" class="node"><title>Node1</title>
<a xlink:href="_fit_gaus_pol3_8h.html" target="_top" xlink:title="FitGausPol3.h">
<polygon fill="white" stroke="black" points="494.249,-260.5 494.249,-281.5 573.249,-281.5 573.249,-260.5 494.249,-260.5"/>
<text text-anchor="middle" x="533.749" y="-268.5" font-family="Helvetica,sans-Serif" font-size="10.00">FitGausPol3.h</text>
</a>
</g>
<!-- Node0&#45;&gt;Node1 -->
<g id="edge2" class="edge"><title>Node0&#45;&gt;Node1</title>
<path fill="none" stroke="midnightblue" d="M723.654,-319.598C680.164,-308.468 623.508,-293.97 583.433,-283.714"/>
<polygon fill="midnightblue" stroke="midnightblue" points="584.175,-280.292 573.62,-281.203 582.44,-287.073 584.175,-280.292"/>
</g>
<!-- Node19 -->
<g id="node44" class="node"><title>Node19</title>
<a xlink:href="_base_functions_8h.html" target="_top" xlink:title="BaseFunctions.h">
<polygon fill="white" stroke="black" points="640.749,-260.5 640.749,-281.5 730.749,-281.5 730.749,-260.5 640.749,-260.5"/>
<text text-anchor="middle" x="685.749" y="-268.5" font-family="Helvetica,sans-Serif" font-size="10.00">BaseFunctions.h</text>
</a>
</g>
<!-- Node0&#45;&gt;Node19 -->
<g id="edge48" class="edge"><title>Node0&#45;&gt;Node19</title>
<path fill="none" stroke="midnightblue" d="M760.95,-318.922C745.601,-309.141 726.446,-296.934 711.31,-287.289"/>
<polygon fill="midnightblue" stroke="midnightblue" points="712.789,-284.081 702.474,-281.658 709.027,-289.984 712.789,-284.081"/>
</g>
<!-- Node20 -->
<g id="node46" class="node"><title>Node20</title>
<a xlink:href="_logger_8h.html" target="_top" xlink:title="base/Logger.h">
<polygon fill="white" stroke="black" points="748.749,-260.5 748.749,-281.5 826.749,-281.5 826.749,-260.5 748.749,-260.5"/>
<text text-anchor="middle" x="787.749" y="-268.5" font-family="Helvetica,sans-Serif" font-size="10.00">base/Logger.h</text>
</a>
</g>
<!-- Node0&#45;&gt;Node20 -->
<g id="edge50" class="edge"><title>Node0&#45;&gt;Node20</title>
<path fill="none" stroke="midnightblue" d="M787.749,-318.922C787.749,-310.67 787.749,-300.692 787.749,-291.982"/>
<polygon fill="midnightblue" stroke="midnightblue" points="791.249,-291.852 787.749,-281.852 784.249,-291.852 791.249,-291.852"/>
</g>
<!-- Node22 -->
<g id="node50" class="node"><title>Node22</title>
<a xlink:href="_t_f1_ext_8h.html" target="_top" xlink:title="base/TF1Ext.h">
<polygon fill="white" stroke="black" points="844.249,-260.5 844.249,-281.5 925.249,-281.5 925.249,-260.5 844.249,-260.5"/>
<text text-anchor="middle" x="884.749" y="-268.5" font-family="Helvetica,sans-Serif" font-size="10.00">base/TF1Ext.h</text>
</a>
</g>
<!-- Node0&#45;&gt;Node22 -->
<g id="edge54" class="edge"><title>Node0&#45;&gt;Node22</title>
<path fill="none" stroke="midnightblue" d="M813.235,-318.922C827.831,-309.141 846.047,-296.934 860.441,-287.289"/>
<polygon fill="midnightblue" stroke="midnightblue" points="862.484,-290.133 868.843,-281.658 858.588,-284.318 862.484,-290.133"/>
</g>
<!-- Node23 -->
<g id="node52" class="node"><title>Node23</title>
<polygon fill="white" stroke="#bfbfbf" points="897.749,-195.5 897.749,-216.5 939.749,-216.5 939.749,-195.5 897.749,-195.5"/>
<text text-anchor="middle" x="918.749" y="-203.5" font-family="Helvetica,sans-Serif" font-size="10.00">TF1.h</text>
</g>
<!-- Node0&#45;&gt;Node23 -->
<g id="edge64" class="edge"><title>Node0&#45;&gt;Node23</title>
<path fill="none" stroke="midnightblue" d="M852.141,-319.994C886.506,-310.01 923.749,-296.36 933.749,-282 945.269,-265.457 938.156,-242.232 930.281,-225.82"/>
<polygon fill="midnightblue" stroke="midnightblue" points="933.188,-223.828 925.439,-216.603 926.991,-227.084 933.188,-223.828"/>
</g>
<!-- Node24 -->
<g id="node54" class="node"><title>Node24</title>
<a xlink:href="_linear_8h.html" target="_top" xlink:title="base/math_functions\l/Linear.h">
<polygon fill="white" stroke="black" points="572.249,-189 572.249,-223 679.249,-223 679.249,-189 572.249,-189"/>
<text text-anchor="start" x="580.249" y="-210" font-family="Helvetica,sans-Serif" font-size="10.00">base/math_functions</text>
<text text-anchor="middle" x="625.749" y="-197" font-family="Helvetica,sans-Serif" font-size="10.00">/Linear.h</text>
</a>
</g>
<!-- Node0&#45;&gt;Node24 -->
<g id="edge58" class="edge"><title>Node0&#45;&gt;Node24</title>
<path fill="none" stroke="midnightblue" d="M723.652,-321.359C686.001,-311.379 643.538,-297.248 631.749,-282 621.29,-268.473 619.859,-249.244 621.008,-233.513"/>
<polygon fill="midnightblue" stroke="midnightblue" points="624.518,-233.618 622.136,-223.295 617.56,-232.85 624.518,-233.618"/>
</g>
<!-- Node26 -->
<g id="node60" class="node"><title>Node26</title>
<polygon fill="white" stroke="#bfbfbf" points="980.749,-260.5 980.749,-281.5 1024.75,-281.5 1024.75,-260.5 980.749,-260.5"/>
<text text-anchor="middle" x="1002.75" y="-268.5" font-family="Helvetica,sans-Serif" font-size="10.00">TH1.h</text>
</g>
<!-- Node0&#45;&gt;Node26 -->
<g id="edge66" class="edge"><title>Node0&#45;&gt;Node26</title>
<path fill="none" stroke="midnightblue" d="M844.599,-318.906C879.792,-308.31 925.905,-294.401 966.749,-282 968.156,-281.573 969.594,-281.136 971.046,-280.694"/>
<polygon fill="midnightblue" stroke="midnightblue" points="972.123,-284.025 980.668,-277.76 970.082,-277.329 972.123,-284.025"/>
</g>
<!-- Node2 -->
<g id="node5" class="node"><title>Node2</title>
<a xlink:href="_fit_function_8h.html" target="_top" xlink:title="FitFunction.h">
<polygon fill="white" stroke="black" points="471.749,-195.5 471.749,-216.5 545.749,-216.5 545.749,-195.5 471.749,-195.5"/>
<text text-anchor="middle" x="508.749" y="-203.5" font-family="Helvetica,sans-Serif" font-size="10.00">FitFunction.h</text>
</a>
</g>
<!-- Node1&#45;&gt;Node2 -->
<g id="edge4" class="edge"><title>Node1&#45;&gt;Node2</title>
<path fill="none" stroke="midnightblue" d="M529.621,-260.267C526.053,-250.991 520.801,-237.336 516.459,-226.045"/>
<polygon fill="midnightblue" stroke="midnightblue" points="519.657,-224.611 512.8,-216.534 513.124,-227.124 519.657,-224.611"/>
</g>
<!-- Node3 -->
<g id="node7" class="node"><title>Node3</title>
<a xlink:href="_knobs_t_f1_8h.html" target="_top" xlink:title="KnobsTF1.h">
<polygon fill="white" stroke="black" points="175.749,-130.5 175.749,-151.5 245.749,-151.5 245.749,-130.5 175.749,-130.5"/>
<text text-anchor="middle" x="210.749" y="-138.5" font-family="Helvetica,sans-Serif" font-size="10.00">KnobsTF1.h</text>
</a>
</g>
<!-- Node2&#45;&gt;Node3 -->
<g id="edge6" class="edge"><title>Node2&#45;&gt;Node3</title>
<path fill="none" stroke="midnightblue" d="M471.61,-197.899C416.89,-185.964 314.739,-163.682 255.809,-150.829"/>
<polygon fill="midnightblue" stroke="midnightblue" points="256.55,-147.408 246.034,-148.696 255.058,-154.247 256.55,-147.408"/>
</g>
<!-- Node4 -->
<g id="node9" class="node"><title>Node4</title>
<a xlink:href="_indicator__traits_8h.html" target="_top" xlink:title="calibration/gui/Indicator\l_traits.h">
<polygon fill="white" stroke="black" points="14.249,-59 14.249,-93 131.249,-93 131.249,-59 14.249,-59"/>
<text text-anchor="start" x="22.249" y="-80" font-family="Helvetica,sans-Serif" font-size="10.00">calibration/gui/Indicator</text>
<text text-anchor="middle" x="72.749" y="-67" font-family="Helvetica,sans-Serif" font-size="10.00">_traits.h</text>
</a>
</g>
<!-- Node2&#45;&gt;Node4 -->
<g id="edge16" class="edge"><title>Node2&#45;&gt;Node4</title>
<path fill="none" stroke="midnightblue" d="M471.54,-202.578C394.653,-195.111 220.923,-176.079 166.749,-152 139.642,-139.951 113.811,-118.038 96.1116,-100.826"/>
<polygon fill="midnightblue" stroke="midnightblue" points="98.1254,-97.891 88.5762,-93.3016 93.1792,-102.844 98.1254,-97.891"/>
</g>
<!-- Node5 -->
<g id="node11" class="node"><title>Node5</title>
<polygon fill="white" stroke="#bfbfbf" points="1.74899,-0.5 1.74899,-21.5 57.749,-21.5 57.749,-0.5 1.74899,-0.5"/>
<text text-anchor="middle" x="29.749" y="-8.5" font-family="Helvetica,sans-Serif" font-size="10.00">Rtypes.h</text>
</g>
<!-- Node2&#45;&gt;Node5 -->
<g id="edge40" class="edge"><title>Node2&#45;&gt;Node5</title>
<path fill="none" stroke="midnightblue" d="M471.547,-204.399C402.59,-200.628 250.834,-188.551 128.749,-152 70.8486,-134.665 38.1136,-145.044 5.74899,-94 -6.76828,-74.2584 4.8472,-47.7953 15.8529,-30.1094"/>
<polygon fill="midnightblue" stroke="midnightblue" points="18.7944,-32.0068 21.4216,-21.7429 12.9671,-28.1282 18.7944,-32.0068"/>
</g>
<!-- Node6 -->
<g id="node13" class="node"><title>Node6</title>
<polygon fill="white" stroke="#bfbfbf" points="224.249,-65.5 224.249,-86.5 265.249,-86.5 265.249,-65.5 224.249,-65.5"/>
<text text-anchor="middle" x="244.749" y="-73.5" font-family="Helvetica,sans-Serif" font-size="10.00">string</text>
</g>
<!-- Node2&#45;&gt;Node6 -->
<g id="edge46" class="edge"><title>Node2&#45;&gt;Node6</title>
<path fill="none" stroke="midnightblue" d="M484.287,-195.418C441.073,-176.487 348.706,-134.961 273.749,-94 272.449,-93.2896 271.126,-92.5463 269.798,-91.7833"/>
<polygon fill="midnightblue" stroke="midnightblue" points="271.504,-88.7256 261.124,-86.6018 267.914,-94.735 271.504,-88.7256"/>
</g>
<!-- Node8 -->
<g id="node18" class="node"><title>Node8</title>
<a xlink:href="interval_8h.html" target="_top" xlink:title="base/interval.h">
<polygon fill="white" stroke="black" points="468.749,-130.5 468.749,-151.5 548.749,-151.5 548.749,-130.5 468.749,-130.5"/>
<text text-anchor="middle" x="508.749" y="-138.5" font-family="Helvetica,sans-Serif" font-size="10.00">base/interval.h</text>
</a>
</g>
<!-- Node2&#45;&gt;Node8 -->
<g id="edge18" class="edge"><title>Node2&#45;&gt;Node8</title>
<path fill="none" stroke="midnightblue" d="M508.749,-195.267C508.749,-186.18 508.749,-172.892 508.749,-161.74"/>
<polygon fill="midnightblue" stroke="midnightblue" points="512.249,-161.534 508.749,-151.534 505.249,-161.534 512.249,-161.534"/>
</g>
<!-- Node16 -->
<g id="node34" class="node"><title>Node16</title>
<a xlink:href="memory_8h.html" target="_top" xlink:title="base/std_ext/memory.h">
<polygon fill="white" stroke="black" points="710.249,-130.5 710.249,-151.5 829.249,-151.5 829.249,-130.5 710.249,-130.5"/>
<text text-anchor="middle" x="769.749" y="-138.5" font-family="Helvetica,sans-Serif" font-size="10.00">base/std_ext/memory.h</text>
</a>
</g>
<!-- Node2&#45;&gt;Node16 -->
<g id="edge34" class="edge"><title>Node2&#45;&gt;Node16</title>
<path fill="none" stroke="midnightblue" d="M539.432,-195.406C547.313,-192.837 555.81,-190.2 563.749,-188 611.593,-174.743 666.426,-162.367 707.485,-153.646"/>
<polygon fill="midnightblue" stroke="midnightblue" points="708.287,-157.054 717.349,-151.565 706.842,-150.204 708.287,-157.054"/>
</g>
<!-- Node17 -->
<g id="node36" class="node"><title>Node17</title>
<polygon fill="white" stroke="#bfbfbf" points="754.749,-65.5 754.749,-86.5 806.749,-86.5 806.749,-65.5 754.749,-65.5"/>
<text text-anchor="middle" x="780.749" y="-73.5" font-family="Helvetica,sans-Serif" font-size="10.00">memory</text>
</g>
<!-- Node2&#45;&gt;Node17 -->
<g id="edge42" class="edge"><title>Node2&#45;&gt;Node17</title>
<path fill="none" stroke="midnightblue" d="M517.743,-195.365C532.362,-178.788 562.962,-146.935 595.749,-130 656.663,-98.5365 681.471,-117.849 745.749,-94 748.159,-93.1057 750.617,-92.0855 753.057,-90.9957"/>
<polygon fill="midnightblue" stroke="midnightblue" points="754.749,-94.0653 762.233,-86.5665 751.706,-87.7612 754.749,-94.0653"/>
</g>
<!-- Node18 -->
<g id="node38" class="node"><title>Node18</title>
<polygon fill="white" stroke="#bfbfbf" points="830.249,-65.5 830.249,-86.5 859.249,-86.5 859.249,-65.5 830.249,-65.5"/>
<text text-anchor="middle" x="844.749" y="-73.5" font-family="Helvetica,sans-Serif" font-size="10.00">list</text>
</g>
<!-- Node2&#45;&gt;Node18 -->
<g id="edge44" class="edge"><title>Node2&#45;&gt;Node18</title>
<path fill="none" stroke="midnightblue" d="M537.581,-195.45C545.934,-192.699 555.127,-189.959 563.749,-188 623.634,-174.391 795.174,-196.259 837.749,-152 851.539,-137.665 851.563,-114.008 849.224,-96.892"/>
<polygon fill="midnightblue" stroke="midnightblue" points="852.623,-96.0076 847.467,-86.7522 845.726,-97.203 852.623,-96.0076"/>
</g>
<!-- Node3&#45;&gt;Node4 -->
<g id="edge8" class="edge"><title>Node3&#45;&gt;Node4</title>
<path fill="none" stroke="midnightblue" d="M188.27,-130.412C169.323,-121.488 141.618,-108.438 118.089,-97.3556"/>
<polygon fill="midnightblue" stroke="midnightblue" points="119.508,-94.1552 108.97,-93.0604 116.525,-100.488 119.508,-94.1552"/>
</g>
<!-- Node3&#45;&gt;Node6 -->
<g id="edge12" class="edge"><title>Node3&#45;&gt;Node6</title>
<path fill="none" stroke="midnightblue" d="M216.363,-130.267C221.265,-120.896 228.504,-107.057 234.444,-95.7004"/>
<polygon fill="midnightblue" stroke="midnightblue" points="237.705,-97.017 239.239,-86.5337 231.503,-93.7724 237.705,-97.017"/>
</g>
<!-- Node7 -->
<g id="node15" class="node"><title>Node7</title>
<polygon fill="white" stroke="#bfbfbf" points="148.249,-65.5 148.249,-86.5 207.249,-86.5 207.249,-65.5 148.249,-65.5"/>
<text text-anchor="middle" x="177.749" y="-73.5" font-family="Helvetica,sans-Serif" font-size="10.00">functional</text>
</g>
<!-- Node3&#45;&gt;Node7 -->
<g id="edge14" class="edge"><title>Node3&#45;&gt;Node7</title>
<path fill="none" stroke="midnightblue" d="M205.3,-130.267C200.542,-120.896 193.517,-107.057 187.751,-95.7004"/>
<polygon fill="midnightblue" stroke="midnightblue" points="190.745,-93.8659 183.097,-86.5337 184.503,-97.0348 190.745,-93.8659"/>
</g>
<!-- Node4&#45;&gt;Node5 -->
<g id="edge10" class="edge"><title>Node4&#45;&gt;Node5</title>
<path fill="none" stroke="midnightblue" d="M61.4512,-58.922C55.6286,-50.1203 48.5063,-39.3541 42.4886,-30.2575"/>
<polygon fill="midnightblue" stroke="midnightblue" points="45.3645,-28.2612 36.9281,-21.8521 39.5264,-32.1234 45.3645,-28.2612"/>
</g>
<!-- Node9 -->
<g id="node20" class="node"><title>Node9</title>
<a xlink:href="types_8h.html" target="_top" xlink:title="types.h">
<polygon fill="white" stroke="black" points="626.249,-65.5 626.249,-86.5 675.249,-86.5 675.249,-65.5 626.249,-65.5"/>
<text text-anchor="middle" x="650.749" y="-73.5" font-family="Helvetica,sans-Serif" font-size="10.00">types.h</text>
</a>
</g>
<!-- Node8&#45;&gt;Node9 -->
<g id="edge20" class="edge"><title>Node8&#45;&gt;Node9</title>
<path fill="none" stroke="midnightblue" d="M535.042,-130.461C557.312,-121.345 589.958,-107.535 617.749,-94 619.509,-93.1427 621.31,-92.2392 623.118,-91.312"/>
<polygon fill="midnightblue" stroke="midnightblue" points="624.855,-94.3528 632.058,-86.5837 621.582,-88.1648 624.855,-94.3528"/>
</g>
<!-- Node10 -->
<g id="node22" class="node"><title>Node10</title>
<polygon fill="white" stroke="#bfbfbf" points="282.749,-65.5 282.749,-86.5 338.749,-86.5 338.749,-65.5 282.749,-65.5"/>
<text text-anchor="middle" x="310.749" y="-73.5" font-family="Helvetica,sans-Serif" font-size="10.00">algorithm</text>
</g>
<!-- Node8&#45;&gt;Node10 -->
<g id="edge22" class="edge"><title>Node8&#45;&gt;Node10</title>
<path fill="none" stroke="midnightblue" d="M468.429,-131.249C435.481,-122.803 387.952,-109.52 347.749,-94 345.212,-93.0208 342.612,-91.9349 340.023,-90.7956"/>
<polygon fill="midnightblue" stroke="midnightblue" points="341.376,-87.5648 330.831,-86.5314 338.43,-93.9147 341.376,-87.5648"/>
</g>
<!-- Node11 -->
<g id="node24" class="node"><title>Node11</title>
<polygon fill="white" stroke="#bfbfbf" points="356.249,-65.5 356.249,-86.5 415.249,-86.5 415.249,-65.5 356.249,-65.5"/>
<text text-anchor="middle" x="385.749" y="-73.5" font-family="Helvetica,sans-Serif" font-size="10.00">stdexcept</text>
</g>
<!-- Node8&#45;&gt;Node11 -->
<g id="edge24" class="edge"><title>Node8&#45;&gt;Node11</title>
<path fill="none" stroke="midnightblue" d="M488.713,-130.412C468.61,-119.788 437.443,-103.318 414.663,-91.28"/>
<polygon fill="midnightblue" stroke="midnightblue" points="416.253,-88.1613 405.776,-86.5835 412.982,-94.3503 416.253,-88.1613"/>
</g>
<!-- Node12 -->
<g id="node26" class="node"><title>Node12</title>
<polygon fill="white" stroke="#bfbfbf" points="432.749,-65.5 432.749,-86.5 472.749,-86.5 472.749,-65.5 432.749,-65.5"/>
<text text-anchor="middle" x="452.749" y="-73.5" font-family="Helvetica,sans-Serif" font-size="10.00">limits</text>
</g>
<!-- Node8&#45;&gt;Node12 -->
<g id="edge26" class="edge"><title>Node8&#45;&gt;Node12</title>
<path fill="none" stroke="midnightblue" d="M499.502,-130.267C491.102,-120.517 478.536,-105.932 468.547,-94.3365"/>
<polygon fill="midnightblue" stroke="midnightblue" points="471.003,-91.8253 461.824,-86.5337 465.7,-96.3943 471.003,-91.8253"/>
</g>
<!-- Node13 -->
<g id="node28" class="node"><title>Node13</title>
<polygon fill="white" stroke="#bfbfbf" points="490.249,-65.5 490.249,-86.5 539.249,-86.5 539.249,-65.5 490.249,-65.5"/>
<text text-anchor="middle" x="514.749" y="-73.5" font-family="Helvetica,sans-Serif" font-size="10.00">istream</text>
</g>
<!-- Node8&#45;&gt;Node13 -->
<g id="edge28" class="edge"><title>Node8&#45;&gt;Node13</title>
<path fill="none" stroke="midnightblue" d="M509.74,-130.267C510.579,-121.18 511.805,-107.892 512.835,-96.7395"/>
<polygon fill="midnightblue" stroke="midnightblue" points="516.343,-96.8131 513.777,-86.5337 509.372,-96.1696 516.343,-96.8131"/>
</g>
<!-- Node14 -->
<g id="node30" class="node"><title>Node14</title>
<polygon fill="white" stroke="#bfbfbf" points="556.749,-65.5 556.749,-86.5 608.749,-86.5 608.749,-65.5 556.749,-65.5"/>
<text text-anchor="middle" x="582.749" y="-73.5" font-family="Helvetica,sans-Serif" font-size="10.00">sstream</text>
</g>
<!-- Node8&#45;&gt;Node14 -->
<g id="edge30" class="edge"><title>Node8&#45;&gt;Node14</title>
<path fill="none" stroke="midnightblue" d="M520.969,-130.267C532.391,-120.233 549.645,-105.078 563.018,-93.3311"/>
<polygon fill="midnightblue" stroke="midnightblue" points="565.553,-95.7628 570.757,-86.5337 560.934,-90.5035 565.553,-95.7628"/>
</g>
<!-- Node15 -->
<g id="node32" class="node"><title>Node15</title>
<polygon fill="white" stroke="#bfbfbf" points="692.749,-65.5 692.749,-86.5 736.749,-86.5 736.749,-65.5 692.749,-65.5"/>
<text text-anchor="middle" x="714.749" y="-73.5" font-family="Helvetica,sans-Serif" font-size="10.00">cmath</text>
</g>
<!-- Node8&#45;&gt;Node15 -->
<g id="edge32" class="edge"><title>Node8&#45;&gt;Node15</title>
<path fill="none" stroke="midnightblue" d="M549.095,-131.471C592.815,-120.915 659.569,-104.059 683.749,-94 685.602,-93.2291 687.48,-92.3668 689.348,-91.4483"/>
<polygon fill="midnightblue" stroke="midnightblue" points="691.29,-94.3775 698.431,-86.5511 687.968,-88.2159 691.29,-94.3775"/>
</g>
<!-- Node16&#45;&gt;Node17 -->
<g id="edge36" class="edge"><title>Node16&#45;&gt;Node17</title>
<path fill="none" stroke="midnightblue" d="M771.565,-130.267C773.103,-121.18 775.352,-107.892 777.239,-96.7395"/>
<polygon fill="midnightblue" stroke="midnightblue" points="780.749,-96.9775 778.966,-86.5337 773.847,-95.8095 780.749,-96.9775"/>
</g>
<!-- Node16&#45;&gt;Node18 -->
<g id="edge38" class="edge"><title>Node16&#45;&gt;Node18</title>
<path fill="none" stroke="midnightblue" d="M782.134,-130.267C793.71,-120.233 811.197,-105.078 824.752,-93.3311"/>
<polygon fill="midnightblue" stroke="midnightblue" points="827.33,-95.728 832.595,-86.5337 822.746,-90.4381 827.33,-95.728"/>
</g>
<!-- Node21 -->
<g id="node48" class="node"><title>Node21</title>
<polygon fill="white" stroke="#bfbfbf" points="743.249,-195.5 743.249,-216.5 832.249,-216.5 832.249,-195.5 743.249,-195.5"/>
<text text-anchor="middle" x="787.749" y="-203.5" font-family="Helvetica,sans-Serif" font-size="10.00">easylogging++.h</text>
</g>
<!-- Node20&#45;&gt;Node21 -->
<g id="edge52" class="edge"><title>Node20&#45;&gt;Node21</title>
<path fill="none" stroke="midnightblue" d="M787.749,-260.267C787.749,-251.18 787.749,-237.892 787.749,-226.74"/>
<polygon fill="midnightblue" stroke="midnightblue" points="791.249,-226.534 787.749,-216.534 784.249,-226.534 791.249,-226.534"/>
</g>
<!-- Node22&#45;&gt;Node23 -->
<g id="edge56" class="edge"><title>Node22&#45;&gt;Node23</title>
<path fill="none" stroke="midnightblue" d="M890.363,-260.267C895.265,-250.896 902.504,-237.057 908.444,-225.7"/>
<polygon fill="midnightblue" stroke="midnightblue" points="911.705,-227.017 913.239,-216.534 905.503,-223.772 911.705,-227.017"/>
</g>
<!-- Node25 -->
<g id="node56" class="node"><title>Node25</title>
<a xlink:href="vec2_8h.html" target="_top" xlink:title="base/vec/vec2.h">
<polygon fill="white" stroke="black" points="604.249,-130.5 604.249,-151.5 693.249,-151.5 693.249,-130.5 604.249,-130.5"/>
<text text-anchor="middle" x="648.749" y="-138.5" font-family="Helvetica,sans-Serif" font-size="10.00">base/vec/vec2.h</text>
</a>
</g>
<!-- Node24&#45;&gt;Node25 -->
<g id="edge60" class="edge"><title>Node24&#45;&gt;Node25</title>
<path fill="none" stroke="midnightblue" d="M631.792,-188.922C634.777,-180.487 638.4,-170.248 641.529,-161.403"/>
<polygon fill="midnightblue" stroke="midnightblue" points="644.873,-162.447 644.909,-151.852 638.274,-160.112 644.873,-162.447"/>
</g>
<!-- Node25&#45;&gt;Node15 -->
<g id="edge62" class="edge"><title>Node25&#45;&gt;Node15</title>
<path fill="none" stroke="midnightblue" d="M659.648,-130.267C669.739,-120.328 684.934,-105.363 696.813,-93.6645"/>
<polygon fill="midnightblue" stroke="midnightblue" points="699.384,-96.0443 704.053,-86.5337 694.472,-91.0569 699.384,-96.0443"/>
</g>
</g>
</svg>
