<?xml version="1.0" encoding="UTF-8" standalone="no"?>
<!DOCTYPE svg PUBLIC "-//W3C//DTD SVG 1.1//EN"
 "http://www.w3.org/Graphics/SVG/1.1/DTD/svg11.dtd">
<!-- Generated by graphviz version 2.26.3 (20100126.1600)
 -->
<!-- Title: src/calibration/fitfunctions/FitLandau.h Pages: 1 -->
<svg width="540pt" height="116pt"
 viewBox="0.00 0.00 540.00 116.00" xmlns="http://www.w3.org/2000/svg" xmlns:xlink="http://www.w3.org/1999/xlink">
<g id="graph1" class="graph" transform="scale(1 1) rotate(0) translate(4 112)">
<title>src/calibration/fitfunctions/FitLandau.h</title>
<polygon fill="white" stroke="white" points="-4,5 -4,-112 537,-112 537,5 -4,5"/>
<!-- Node18 -->
<g id="node1" class="node"><title>Node18</title>
<polygon fill="#bfbfbf" stroke="black" points="207,-73 207,-107 335,-107 335,-73 207,-73"/>
<text text-anchor="start" x="215" y="-94" font-family="Helvetica,sans-Serif" font-size="10.00">src/calibration/fitfunctions</text>
<text text-anchor="middle" x="271" y="-81" font-family="Helvetica,sans-Serif" font-size="10.00">/FitLandau.h</text>
</g>
<!-- Node19 -->
<g id="node3" class="node"><title>Node19</title>
<a xlink:href="_fit_landau_8cc.html" target="_top" xlink:title="src/calibration/fitfunctions\l/FitLandau.cc">
<polygon fill="white" stroke="black" points="0,-1 0,-35 128,-35 128,-1 0,-1"/>
<text text-anchor="start" x="8" y="-22" font-family="Helvetica,sans-Serif" font-size="10.00">src/calibration/fitfunctions</text>
<text text-anchor="middle" x="64" y="-9" font-family="Helvetica,sans-Serif" font-size="10.00">/FitLandau.cc</text>
</a>
</g>
<!-- Node18&#45;&gt;Node19 -->
<g id="edge2" class="edge"><title>Node18&#45;&gt;Node19</title>
<path fill="none" stroke="midnightblue" d="M212.444,-69.6326C181.07,-58.7201 142.859,-45.4292 113.062,-35.0651"/>
<polygon fill="midnightblue" stroke="midnightblue" points="211.349,-72.9575 221.944,-72.937 213.649,-66.346 211.349,-72.9575"/>
</g>
<!-- Node20 -->
<g id="node5" class="node"><title>Node20</title>
<a xlink:href="calibration_2modules_2_t_a_p_s___energy_8cc.html" target="_top" xlink:title="src/calibration/modules\l/TAPS_Energy.cc">
<polygon fill="white" stroke="black" points="145.5,-1 145.5,-35 262.5,-35 262.5,-1 145.5,-1"/>
<text text-anchor="start" x="153.5" y="-22" font-family="Helvetica,sans-Serif" font-size="10.00">src/calibration/modules</text>
<text text-anchor="middle" x="204" y="-9" font-family="Helvetica,sans-Serif" font-size="10.00">/TAPS_Energy.cc</text>
</a>
</g>
<!-- Node18&#45;&gt;Node20 -->
<g id="edge4" class="edge"><title>Node18&#45;&gt;Node20</title>
<path fill="none" stroke="midnightblue" d="M248.088,-65.3785C238.928,-55.5349 228.591,-44.4262 220.23,-35.4407"/>
<polygon fill="midnightblue" stroke="midnightblue" points="245.747,-68.0006 255.122,-72.937 250.872,-63.232 245.747,-68.0006"/>
</g>
<!-- Node21 -->
<g id="node7" class="node"><title>Node21</title>
<a xlink:href="calibration_2modules_2_t_a_p_s___short_energy_8cc.html" target="_top" xlink:title="src/calibration/modules\l/TAPS_ShortEnergy.cc">
<polygon fill="white" stroke="black" points="279.5,-1 279.5,-35 398.5,-35 398.5,-1 279.5,-1"/>
<text text-anchor="start" x="287.5" y="-22" font-family="Helvetica,sans-Serif" font-size="10.00">src/calibration/modules</text>
<text text-anchor="middle" x="339" y="-9" font-family="Helvetica,sans-Serif" font-size="10.00">/TAPS_ShortEnergy.cc</text>
</a>
</g>
<!-- Node18&#45;&gt;Node21 -->
<g id="edge6" class="edge"><title>Node18&#45;&gt;Node21</title>
<path fill="none" stroke="midnightblue" d="M294.254,-65.3785C303.55,-55.5349 314.042,-44.4262 322.528,-35.4407"/>
<polygon fill="midnightblue" stroke="midnightblue" points="291.437,-63.2637 287.115,-72.937 296.526,-68.07 291.437,-63.2637"/>
</g>
<!-- Node22 -->
<g id="node9" class="node"><title>Node22</title>
<a xlink:href="calibration_2modules_2_t_a_p_s_veto___energy_8cc.html" target="_top" xlink:title="src/calibration/modules\l/TAPSVeto_Energy.cc">
<polygon fill="white" stroke="black" points="415.5,-1 415.5,-35 532.5,-35 532.5,-1 415.5,-1"/>
<text text-anchor="start" x="423.5" y="-22" font-family="Helvetica,sans-Serif" font-size="10.00">src/calibration/modules</text>
<text text-anchor="middle" x="474" y="-9" font-family="Helvetica,sans-Serif" font-size="10.00">/TAPSVeto_Energy.cc</text>
</a>
</g>
<!-- Node18&#45;&gt;Node22 -->
<g id="edge8" class="edge"><title>Node18&#45;&gt;Node22</title>
<path fill="none" stroke="midnightblue" d="M328.823,-69.4913C359.515,-58.6055 396.791,-45.3846 425.886,-35.0651"/>
<polygon fill="midnightblue" stroke="midnightblue" points="327.363,-66.2955 319.108,-72.937 329.703,-72.8928 327.363,-66.2955"/>
</g>
</g>
</svg>
