<?xml version="1.0" encoding="UTF-8" standalone="no"?>
<!DOCTYPE svg PUBLIC "-//W3C//DTD SVG 1.1//EN"
 "http://www.w3.org/Graphics/SVG/1.1/DTD/svg11.dtd">
<!-- Generated by graphviz version 2.26.3 (20100126.1600)
 -->
<!-- Title: src/calibration/fitfunctions/FitFunction.cc Pages: 1 -->
<svg width="1180pt" height="290pt"
 viewBox="0.00 0.00 1180.00 290.00" xmlns="http://www.w3.org/2000/svg" xmlns:xlink="http://www.w3.org/1999/xlink">
<g id="graph1" class="graph" transform="scale(1 1) rotate(0) translate(4 286)">
<title>src/calibration/fitfunctions/FitFunction.cc</title>
<polygon fill="white" stroke="white" points="-4,5 -4,-286 1177,-286 1177,5 -4,5"/>
<!-- Node0 -->
<g id="node1" class="node"><title>Node0</title>
<polygon fill="#bfbfbf" stroke="black" points="808,-247 808,-281 936,-281 936,-247 808,-247"/>
<text text-anchor="start" x="816" y="-268" font-family="Helvetica,sans-Serif" font-size="10.00">src/calibration/fitfunctions</text>
<text text-anchor="middle" x="872" y="-255" font-family="Helvetica,sans-Serif" font-size="10.00">/FitFunction.cc</text>
</g>
<!-- Node1 -->
<g id="node3" class="node"><title>Node1</title>
<a xlink:href="_fit_function_8h.html" target="_top" xlink:title="FitFunction.h">
<polygon fill="white" stroke="black" points="303,-188.5 303,-209.5 377,-209.5 377,-188.5 303,-188.5"/>
<text text-anchor="middle" x="340" y="-196.5" font-family="Helvetica,sans-Serif" font-size="10.00">FitFunction.h</text>
</a>
</g>
<!-- Node0&#45;&gt;Node1 -->
<g id="edge2" class="edge"><title>Node0&#45;&gt;Node1</title>
<path fill="none" stroke="midnightblue" d="M807.828,-256.159C699.438,-242.916 482.584,-216.421 387.044,-204.748"/>
<polygon fill="midnightblue" stroke="midnightblue" points="387.445,-201.271 377.095,-203.532 386.596,-208.219 387.445,-201.271"/>
</g>
<!-- Node7 -->
<g id="node16" class="node"><title>Node7</title>
<a xlink:href="interval_8h.html" target="_top" xlink:title="base/interval.h">
<polygon fill="white" stroke="black" points="689,-130.5 689,-151.5 769,-151.5 769,-130.5 689,-130.5"/>
<text text-anchor="middle" x="729" y="-138.5" font-family="Helvetica,sans-Serif" font-size="10.00">base/interval.h</text>
</a>
</g>
<!-- Node0&#45;&gt;Node7 -->
<g id="edge48" class="edge"><title>Node0&#45;&gt;Node7</title>
<path fill="none" stroke="midnightblue" d="M837.949,-246.774C820.795,-237.218 800.247,-224.368 784,-210 767.275,-195.209 751.766,-174.894 741.51,-160.14"/>
<polygon fill="midnightblue" stroke="midnightblue" points="744.346,-158.086 735.839,-151.771 738.551,-162.012 744.346,-158.086"/>
</g>
<!-- Node9 -->
<g id="node20" class="node"><title>Node9</title>
<polygon fill="white" stroke="#bfbfbf" points="771,-65.5 771,-86.5 827,-86.5 827,-65.5 771,-65.5"/>
<text text-anchor="middle" x="799" y="-73.5" font-family="Helvetica,sans-Serif" font-size="10.00">algorithm</text>
</g>
<!-- Node0&#45;&gt;Node9 -->
<g id="edge66" class="edge"><title>Node0&#45;&gt;Node9</title>
<path fill="none" stroke="midnightblue" d="M864.037,-246.568C859.276,-236.028 853.168,-222.295 848,-210 837.255,-184.436 834.602,-178.015 825,-152 818.095,-133.292 810.792,-111.77 805.689,-96.4157"/>
<polygon fill="midnightblue" stroke="midnightblue" points="809,-95.2793 802.541,-86.8813 802.353,-97.4744 809,-95.2793"/>
</g>
<!-- Node18 -->
<g id="node42" class="node"><title>Node18</title>
<a xlink:href="_base_functions_8h.html" target="_top" xlink:title="BaseFunctions.h">
<polygon fill="white" stroke="black" points="864,-188.5 864,-209.5 954,-209.5 954,-188.5 864,-188.5"/>
<text text-anchor="middle" x="909" y="-196.5" font-family="Helvetica,sans-Serif" font-size="10.00">BaseFunctions.h</text>
</a>
</g>
<!-- Node0&#45;&gt;Node18 -->
<g id="edge46" class="edge"><title>Node0&#45;&gt;Node18</title>
<path fill="none" stroke="midnightblue" d="M881.721,-246.922C886.627,-238.304 892.605,-227.802 897.713,-218.828"/>
<polygon fill="midnightblue" stroke="midnightblue" points="900.917,-220.274 902.823,-209.852 894.834,-216.811 900.917,-220.274"/>
</g>
<!-- Node19 -->
<g id="node45" class="node"><title>Node19</title>
<a xlink:href="_logger_8h.html" target="_top" xlink:title="base/Logger.h">
<polygon fill="white" stroke="black" points="972,-188.5 972,-209.5 1050,-209.5 1050,-188.5 972,-188.5"/>
<text text-anchor="middle" x="1011" y="-196.5" font-family="Helvetica,sans-Serif" font-size="10.00">base/Logger.h</text>
</a>
</g>
<!-- Node0&#45;&gt;Node19 -->
<g id="edge50" class="edge"><title>Node0&#45;&gt;Node19</title>
<path fill="none" stroke="midnightblue" d="M908.521,-246.922C930.423,-236.68 958.014,-223.777 979.049,-213.941"/>
<polygon fill="midnightblue" stroke="midnightblue" points="980.632,-217.065 988.207,-209.658 977.666,-210.724 980.632,-217.065"/>
</g>
<!-- Node21 -->
<g id="node49" class="node"><title>Node21</title>
<a xlink:href="base_2std__ext_2math_8h.html" target="_top" xlink:title="base/std_ext/math.h">
<polygon fill="white" stroke="black" points="834,-130.5 834,-151.5 940,-151.5 940,-130.5 834,-130.5"/>
<text text-anchor="middle" x="887" y="-138.5" font-family="Helvetica,sans-Serif" font-size="10.00">base/std_ext/math.h</text>
</a>
</g>
<!-- Node0&#45;&gt;Node21 -->
<g id="edge54" class="edge"><title>Node0&#45;&gt;Node21</title>
<path fill="none" stroke="midnightblue" d="M863.134,-246.896C856.266,-231.359 848.869,-207.898 855,-188 858.159,-177.747 864.404,-167.728 870.545,-159.593"/>
<polygon fill="midnightblue" stroke="midnightblue" points="873.454,-161.56 877.016,-151.582 868.009,-157.161 873.454,-161.56"/>
</g>
<!-- Node23 -->
<g id="node55" class="node"><title>Node23</title>
<polygon fill="white" stroke="#bfbfbf" points="1068,-188.5 1068,-209.5 1110,-209.5 1110,-188.5 1068,-188.5"/>
<text text-anchor="middle" x="1089" y="-196.5" font-family="Helvetica,sans-Serif" font-size="10.00">TF1.h</text>
</g>
<!-- Node0&#45;&gt;Node23 -->
<g id="edge62" class="edge"><title>Node0&#45;&gt;Node23</title>
<path fill="none" stroke="midnightblue" d="M935.097,-246.971C969.16,-237.5 1012.09,-225.12 1058.19,-210.133"/>
<polygon fill="midnightblue" stroke="midnightblue" points="1059.35,-213.437 1067.76,-206.998 1057.17,-206.785 1059.35,-213.437"/>
</g>
<!-- Node24 -->
<g id="node57" class="node"><title>Node24</title>
<polygon fill="white" stroke="#bfbfbf" points="1128,-188.5 1128,-209.5 1172,-209.5 1172,-188.5 1128,-188.5"/>
<text text-anchor="middle" x="1150" y="-196.5" font-family="Helvetica,sans-Serif" font-size="10.00">TH1.h</text>
</g>
<!-- Node0&#45;&gt;Node24 -->
<g id="edge64" class="edge"><title>Node0&#45;&gt;Node24</title>
<path fill="none" stroke="midnightblue" d="M936.004,-252.303C983.842,-243.036 1050.94,-228.933 1117.88,-210.085"/>
<polygon fill="midnightblue" stroke="midnightblue" points="1119.1,-213.378 1127.76,-207.27 1117.18,-206.646 1119.1,-213.378"/>
</g>
<!-- Node2 -->
<g id="node5" class="node"><title>Node2</title>
<a xlink:href="_knobs_t_f1_8h.html" target="_top" xlink:title="KnobsTF1.h">
<polygon fill="white" stroke="black" points="117,-130.5 117,-151.5 187,-151.5 187,-130.5 117,-130.5"/>
<text text-anchor="middle" x="152" y="-138.5" font-family="Helvetica,sans-Serif" font-size="10.00">KnobsTF1.h</text>
</a>
</g>
<!-- Node1&#45;&gt;Node2 -->
<g id="edge4" class="edge"><title>Node1&#45;&gt;Node2</title>
<path fill="none" stroke="midnightblue" d="M305.955,-188.497C275.04,-178.959 229.277,-164.841 195.678,-154.475"/>
<polygon fill="midnightblue" stroke="midnightblue" points="196.697,-151.127 186.109,-151.523 194.633,-157.816 196.697,-151.127"/>
</g>
<!-- Node3 -->
<g id="node7" class="node"><title>Node3</title>
<a xlink:href="_indicator__traits_8h.html" target="_top" xlink:title="calibration/gui/Indicator\l_traits.h">
<polygon fill="white" stroke="black" points="-0.5,-59 -0.5,-93 116.5,-93 116.5,-59 -0.5,-59"/>
<text text-anchor="start" x="7.5" y="-80" font-family="Helvetica,sans-Serif" font-size="10.00">calibration/gui/Indicator</text>
<text text-anchor="middle" x="58" y="-67" font-family="Helvetica,sans-Serif" font-size="10.00">_traits.h</text>
</a>
</g>
<!-- Node1&#45;&gt;Node3 -->
<g id="edge14" class="edge"><title>Node1&#45;&gt;Node3</title>
<path fill="none" stroke="midnightblue" d="M302.701,-194.962C245.471,-188.19 139.324,-173.173 108,-152 90.1706,-139.949 77.1559,-119.195 68.8817,-102.418"/>
<polygon fill="midnightblue" stroke="midnightblue" points="71.9402,-100.694 64.5572,-93.0947 65.59,-103.639 71.9402,-100.694"/>
</g>
<!-- Node4 -->
<g id="node9" class="node"><title>Node4</title>
<polygon fill="white" stroke="#bfbfbf" points="233,-0.5 233,-21.5 289,-21.5 289,-0.5 233,-0.5"/>
<text text-anchor="middle" x="261" y="-8.5" font-family="Helvetica,sans-Serif" font-size="10.00">Rtypes.h</text>
</g>
<!-- Node1&#45;&gt;Node4 -->
<g id="edge38" class="edge"><title>Node1&#45;&gt;Node4</title>
<path fill="none" stroke="midnightblue" d="M376.896,-188.414C394.755,-181.225 414.549,-169.72 425,-152 435.356,-134.439 451.516,-95.7024 422,-58 406.869,-38.672 341.836,-24.4167 299.194,-16.9357"/>
<polygon fill="midnightblue" stroke="midnightblue" points="299.589,-13.4527 289.143,-15.2244 298.414,-20.3534 299.589,-13.4527"/>
</g>
<!-- Node5 -->
<g id="node11" class="node"><title>Node5</title>
<polygon fill="white" stroke="#bfbfbf" points="209.5,-65.5 209.5,-86.5 250.5,-86.5 250.5,-65.5 209.5,-65.5"/>
<text text-anchor="middle" x="230" y="-73.5" font-family="Helvetica,sans-Serif" font-size="10.00">string</text>
</g>
<!-- Node1&#45;&gt;Node5 -->
<g id="edge44" class="edge"><title>Node1&#45;&gt;Node5</title>
<path fill="none" stroke="midnightblue" d="M315.811,-188.398C299.703,-180.338 279.003,-167.924 265,-152 250.757,-135.803 241.262,-112.829 235.799,-96.3874"/>
<polygon fill="midnightblue" stroke="midnightblue" points="239.088,-95.1766 232.781,-86.6631 232.402,-97.2512 239.088,-95.1766"/>
</g>
<!-- Node1&#45;&gt;Node7 -->
<g id="edge16" class="edge"><title>Node1&#45;&gt;Node7</title>
<path fill="none" stroke="midnightblue" d="M377.299,-193.439C447.548,-182.965 599.514,-160.306 678.708,-148.499"/>
<polygon fill="midnightblue" stroke="midnightblue" points="679.546,-151.912 688.921,-146.976 678.514,-144.989 679.546,-151.912"/>
</g>
<!-- Node15 -->
<g id="node32" class="node"><title>Node15</title>
<a xlink:href="memory_8h.html" target="_top" xlink:title="base/std_ext/memory.h">
<polygon fill="white" stroke="black" points="280.5,-130.5 280.5,-151.5 399.5,-151.5 399.5,-130.5 280.5,-130.5"/>
<text text-anchor="middle" x="340" y="-138.5" font-family="Helvetica,sans-Serif" font-size="10.00">base/std_ext/memory.h</text>
</a>
</g>
<!-- Node1&#45;&gt;Node15 -->
<g id="edge32" class="edge"><title>Node1&#45;&gt;Node15</title>
<path fill="none" stroke="midnightblue" d="M340,-188.362C340,-180.922 340,-170.743 340,-161.728"/>
<polygon fill="midnightblue" stroke="midnightblue" points="343.5,-161.571 340,-151.571 336.5,-161.571 343.5,-161.571"/>
</g>
<!-- Node16 -->
<g id="node34" class="node"><title>Node16</title>
<polygon fill="white" stroke="#bfbfbf" points="291,-65.5 291,-86.5 343,-86.5 343,-65.5 291,-65.5"/>
<text text-anchor="middle" x="317" y="-73.5" font-family="Helvetica,sans-Serif" font-size="10.00">memory</text>
</g>
<!-- Node1&#45;&gt;Node16 -->
<g id="edge40" class="edge"><title>Node1&#45;&gt;Node16</title>
<path fill="none" stroke="midnightblue" d="M313.786,-188.409C298.602,-180.748 280.798,-168.776 272,-152 261.228,-131.461 278.893,-108.662 295.153,-93.4438"/>
<polygon fill="midnightblue" stroke="midnightblue" points="297.702,-95.8622 302.891,-86.6249 293.074,-90.6102 297.702,-95.8622"/>
</g>
<!-- Node17 -->
<g id="node36" class="node"><title>Node17</title>
<polygon fill="white" stroke="#bfbfbf" points="384.5,-65.5 384.5,-86.5 413.5,-86.5 413.5,-65.5 384.5,-65.5"/>
<text text-anchor="middle" x="399" y="-73.5" font-family="Helvetica,sans-Serif" font-size="10.00">list</text>
</g>
<!-- Node1&#45;&gt;Node17 -->
<g id="edge42" class="edge"><title>Node1&#45;&gt;Node17</title>
<path fill="none" stroke="midnightblue" d="M366.214,-188.409C381.398,-180.748 399.202,-168.776 408,-152 417.112,-134.626 412.718,-112.01 407.368,-95.9798"/>
<polygon fill="midnightblue" stroke="midnightblue" points="410.614,-94.6684 403.846,-86.5176 404.054,-97.1104 410.614,-94.6684"/>
</g>
<!-- Node2&#45;&gt;Node3 -->
<g id="edge6" class="edge"><title>Node2&#45;&gt;Node3</title>
<path fill="none" stroke="midnightblue" d="M136.478,-130.267C124.158,-121.748 106.499,-109.537 91.0505,-98.8541"/>
<polygon fill="midnightblue" stroke="midnightblue" points="92.9592,-95.9187 82.7435,-93.1099 88.9779,-101.676 92.9592,-95.9187"/>
</g>
<!-- Node2&#45;&gt;Node5 -->
<g id="edge10" class="edge"><title>Node2&#45;&gt;Node5</title>
<path fill="none" stroke="midnightblue" d="M164.88,-130.267C177.034,-120.139 195.45,-104.792 209.601,-92.9995"/>
<polygon fill="midnightblue" stroke="midnightblue" points="211.918,-95.6244 217.36,-86.5337 207.437,-90.2468 211.918,-95.6244"/>
</g>
<!-- Node6 -->
<g id="node13" class="node"><title>Node6</title>
<polygon fill="white" stroke="#bfbfbf" points="133.5,-65.5 133.5,-86.5 192.5,-86.5 192.5,-65.5 133.5,-65.5"/>
<text text-anchor="middle" x="163" y="-73.5" font-family="Helvetica,sans-Serif" font-size="10.00">functional</text>
</g>
<!-- Node2&#45;&gt;Node6 -->
<g id="edge12" class="edge"><title>Node2&#45;&gt;Node6</title>
<path fill="none" stroke="midnightblue" d="M153.816,-130.267C155.354,-121.18 157.603,-107.892 159.49,-96.7395"/>
<polygon fill="midnightblue" stroke="midnightblue" points="163,-96.9775 161.217,-86.5337 156.098,-95.8095 163,-96.9775"/>
</g>
<!-- Node3&#45;&gt;Node4 -->
<g id="edge8" class="edge"><title>Node3&#45;&gt;Node4</title>
<path fill="none" stroke="midnightblue" d="M111.336,-58.922C146.528,-47.6537 191.776,-33.1654 223.264,-23.083"/>
<polygon fill="midnightblue" stroke="midnightblue" points="224.517,-26.3568 232.974,-19.974 222.383,-19.6902 224.517,-26.3568"/>
</g>
<!-- Node8 -->
<g id="node18" class="node"><title>Node8</title>
<a xlink:href="types_8h.html" target="_top" xlink:title="types.h">
<polygon fill="white" stroke="black" points="704.5,-65.5 704.5,-86.5 753.5,-86.5 753.5,-65.5 704.5,-65.5"/>
<text text-anchor="middle" x="729" y="-73.5" font-family="Helvetica,sans-Serif" font-size="10.00">types.h</text>
</a>
</g>
<!-- Node7&#45;&gt;Node8 -->
<g id="edge18" class="edge"><title>Node7&#45;&gt;Node8</title>
<path fill="none" stroke="midnightblue" d="M729,-130.267C729,-121.18 729,-107.892 729,-96.7395"/>
<polygon fill="midnightblue" stroke="midnightblue" points="732.5,-96.5337 729,-86.5337 725.5,-96.5337 732.5,-96.5337"/>
</g>
<!-- Node7&#45;&gt;Node9 -->
<g id="edge20" class="edge"><title>Node7&#45;&gt;Node9</title>
<path fill="none" stroke="midnightblue" d="M740.559,-130.267C751.262,-120.328 767.378,-105.363 779.977,-93.6645"/>
<polygon fill="midnightblue" stroke="midnightblue" points="782.71,-95.903 787.656,-86.5337 777.946,-90.7735 782.71,-95.903"/>
</g>
<!-- Node10 -->
<g id="node22" class="node"><title>Node10</title>
<polygon fill="white" stroke="#bfbfbf" points="492.5,-65.5 492.5,-86.5 551.5,-86.5 551.5,-65.5 492.5,-65.5"/>
<text text-anchor="middle" x="522" y="-73.5" font-family="Helvetica,sans-Serif" font-size="10.00">stdexcept</text>
</g>
<!-- Node7&#45;&gt;Node10 -->
<g id="edge22" class="edge"><title>Node7&#45;&gt;Node10</title>
<path fill="none" stroke="midnightblue" d="M688.777,-131.872C654.144,-123.528 603.089,-110.062 560,-94 557.307,-92.996 554.543,-91.8751 551.794,-90.6968"/>
<polygon fill="midnightblue" stroke="midnightblue" points="553.184,-87.4842 542.63,-86.5573 550.302,-93.8636 553.184,-87.4842"/>
</g>
<!-- Node11 -->
<g id="node24" class="node"><title>Node11</title>
<polygon fill="white" stroke="#bfbfbf" points="845,-65.5 845,-86.5 885,-86.5 885,-65.5 845,-65.5"/>
<text text-anchor="middle" x="865" y="-73.5" font-family="Helvetica,sans-Serif" font-size="10.00">limits</text>
</g>
<!-- Node7&#45;&gt;Node11 -->
<g id="edge24" class="edge"><title>Node7&#45;&gt;Node11</title>
<path fill="none" stroke="midnightblue" d="M755.876,-130.433C777.819,-121.514 809.43,-107.991 836,-94 837.344,-93.2925 838.709,-92.5463 840.078,-91.7762"/>
<polygon fill="midnightblue" stroke="midnightblue" points="842.158,-94.6121 848.979,-86.505 838.591,-88.589 842.158,-94.6121"/>
</g>
<!-- Node12 -->
<g id="node26" class="node"><title>Node12</title>
<polygon fill="white" stroke="#bfbfbf" points="568.5,-65.5 568.5,-86.5 617.5,-86.5 617.5,-65.5 568.5,-65.5"/>
<text text-anchor="middle" x="593" y="-73.5" font-family="Helvetica,sans-Serif" font-size="10.00">istream</text>
</g>
<!-- Node7&#45;&gt;Node12 -->
<g id="edge26" class="edge"><title>Node7&#45;&gt;Node12</title>
<path fill="none" stroke="midnightblue" d="M704.629,-130.466C683.611,-121.242 652.546,-107.275 626,-94 624.249,-93.1243 622.455,-92.2067 620.653,-91.269"/>
<polygon fill="midnightblue" stroke="midnightblue" points="622.197,-88.1258 611.725,-86.514 618.906,-94.3042 622.197,-88.1258"/>
</g>
<!-- Node13 -->
<g id="node28" class="node"><title>Node13</title>
<polygon fill="white" stroke="#bfbfbf" points="635,-65.5 635,-86.5 687,-86.5 687,-65.5 635,-65.5"/>
<text text-anchor="middle" x="661" y="-73.5" font-family="Helvetica,sans-Serif" font-size="10.00">sstream</text>
</g>
<!-- Node7&#45;&gt;Node13 -->
<g id="edge28" class="edge"><title>Node7&#45;&gt;Node13</title>
<path fill="none" stroke="midnightblue" d="M717.771,-130.267C707.374,-120.328 691.719,-105.363 679.48,-93.6645"/>
<polygon fill="midnightblue" stroke="midnightblue" points="681.667,-90.9135 672.02,-86.5337 676.83,-95.9736 681.667,-90.9135"/>
</g>
<!-- Node14 -->
<g id="node30" class="node"><title>Node14</title>
<polygon fill="white" stroke="#bfbfbf" points="903,-65.5 903,-86.5 947,-86.5 947,-65.5 903,-65.5"/>
<text text-anchor="middle" x="925" y="-73.5" font-family="Helvetica,sans-Serif" font-size="10.00">cmath</text>
</g>
<!-- Node7&#45;&gt;Node14 -->
<g id="edge30" class="edge"><title>Node7&#45;&gt;Node14</title>
<path fill="none" stroke="midnightblue" d="M769.29,-132.485C803.299,-124.605 852.88,-111.472 894,-94 895.847,-93.2151 897.721,-92.3423 899.585,-91.4162"/>
<polygon fill="midnightblue" stroke="midnightblue" points="901.534,-94.3411 908.662,-86.5018 898.201,-88.1855 901.534,-94.3411"/>
</g>
<!-- Node15&#45;&gt;Node16 -->
<g id="edge34" class="edge"><title>Node15&#45;&gt;Node16</title>
<path fill="none" stroke="midnightblue" d="M336.202,-130.267C332.92,-120.991 328.088,-107.336 324.093,-96.0453"/>
<polygon fill="midnightblue" stroke="midnightblue" points="327.363,-94.7934 320.727,-86.5337 320.764,-97.1285 327.363,-94.7934"/>
</g>
<!-- Node15&#45;&gt;Node17 -->
<g id="edge36" class="edge"><title>Node15&#45;&gt;Node17</title>
<path fill="none" stroke="midnightblue" d="M349.743,-130.267C358.678,-120.423 372.089,-105.648 382.662,-93.9996"/>
<polygon fill="midnightblue" stroke="midnightblue" points="385.309,-96.2907 389.439,-86.5337 380.126,-91.5859 385.309,-96.2907"/>
</g>
<!-- Node20 -->
<g id="node47" class="node"><title>Node20</title>
<polygon fill="white" stroke="#bfbfbf" points="966.5,-130.5 966.5,-151.5 1055.5,-151.5 1055.5,-130.5 966.5,-130.5"/>
<text text-anchor="middle" x="1011" y="-138.5" font-family="Helvetica,sans-Serif" font-size="10.00">easylogging++.h</text>
</g>
<!-- Node19&#45;&gt;Node20 -->
<g id="edge52" class="edge"><title>Node19&#45;&gt;Node20</title>
<path fill="none" stroke="midnightblue" d="M1011,-188.362C1011,-180.922 1011,-170.743 1011,-161.728"/>
<polygon fill="midnightblue" stroke="midnightblue" points="1014.5,-161.571 1011,-151.571 1007.5,-161.571 1014.5,-161.571"/>
</g>
<!-- Node21&#45;&gt;Node11 -->
<g id="edge58" class="edge"><title>Node21&#45;&gt;Node11</title>
<path fill="none" stroke="midnightblue" d="M883.367,-130.267C880.228,-120.991 875.606,-107.336 871.785,-96.0453"/>
<polygon fill="midnightblue" stroke="midnightblue" points="875.087,-94.8838 868.565,-86.5337 868.456,-97.128 875.087,-94.8838"/>
</g>
<!-- Node21&#45;&gt;Node14 -->
<g id="edge56" class="edge"><title>Node21&#45;&gt;Node14</title>
<path fill="none" stroke="midnightblue" d="M893.275,-130.267C898.808,-120.801 907.007,-106.777 913.684,-95.3571"/>
<polygon fill="midnightblue" stroke="midnightblue" points="916.816,-96.9331 918.842,-86.5337 910.773,-93.4002 916.816,-96.9331"/>
</g>
<!-- Node22 -->
<g id="node53" class="node"><title>Node22</title>
<polygon fill="white" stroke="#bfbfbf" points="965,-65.5 965,-86.5 1009,-86.5 1009,-65.5 965,-65.5"/>
<text text-anchor="middle" x="987" y="-73.5" font-family="Helvetica,sans-Serif" font-size="10.00">vector</text>
</g>
<!-- Node21&#45;&gt;Node22 -->
<g id="edge60" class="edge"><title>Node21&#45;&gt;Node22</title>
<path fill="none" stroke="midnightblue" d="M903.513,-130.267C919.531,-119.855 944.036,-103.927 962.36,-92.0163"/>
<polygon fill="midnightblue" stroke="midnightblue" points="964.317,-94.9182 970.794,-86.5337 960.502,-89.0491 964.317,-94.9182"/>
</g>
</g>
</svg>
