<?xml version="1.0" encoding="UTF-8" standalone="no"?>
<!DOCTYPE svg PUBLIC "-//W3C//DTD SVG 1.1//EN"
 "http://www.w3.org/Graphics/SVG/1.1/DTD/svg11.dtd">
<!-- Generated by graphviz version 2.26.3 (20100126.1600)
 -->
<!-- Title: src/analysis/utils/fitter/Fitter.h Pages: 1 -->
<svg width="1856pt" height="580pt"
 viewBox="0.00 0.00 1855.87 580.00" xmlns="http://www.w3.org/2000/svg" xmlns:xlink="http://www.w3.org/1999/xlink">
<g id="graph1" class="graph" transform="scale(1 1) rotate(0) translate(4 576)">
<title>src/analysis/utils/fitter/Fitter.h</title>
<polygon fill="white" stroke="white" points="-4,5 -4,-576 1852.87,-576 1852.87,5 -4,5"/>
<!-- Node0 -->
<g id="node1" class="node"><title>Node0</title>
<polygon fill="#bfbfbf" stroke="black" points="1254.87,-537 1254.87,-571 1344.87,-571 1344.87,-537 1254.87,-537"/>
<text text-anchor="start" x="1262.87" y="-558" font-family="Helvetica,sans-Serif" font-size="10.00">src/analysis/utils</text>
<text text-anchor="middle" x="1299.87" y="-545" font-family="Helvetica,sans-Serif" font-size="10.00">/fitter/Fitter.h</text>
</g>
<!-- Node1 -->
<g id="node3" class="node"><title>Node1</title>
<a xlink:href="_uncertainties_8h.html" target="_top" xlink:title="analysis/utils/Uncertainties.h">
<polygon fill="white" stroke="black" points="1014.37,-478.5 1014.37,-499.5 1157.37,-499.5 1157.37,-478.5 1014.37,-478.5"/>
<text text-anchor="middle" x="1085.87" y="-486.5" font-family="Helvetica,sans-Serif" font-size="10.00">analysis/utils/Uncertainties.h</text>
</a>
</g>
<!-- Node0&#45;&gt;Node1 -->
<g id="edge2" class="edge"><title>Node0&#45;&gt;Node1</title>
<path fill="none" stroke="midnightblue" d="M1254.75,-540.295C1218.21,-529.196 1167,-513.641 1130.57,-502.577"/>
<polygon fill="midnightblue" stroke="midnightblue" points="1131.3,-499.14 1120.71,-499.583 1129.26,-505.838 1131.3,-499.14"/>
</g>
<!-- Node2 -->
<g id="node5" class="node"><title>Node2</title>
<a xlink:href="_t_particle_8h.html" target="_top" xlink:title="tree/TParticle.h">
<polygon fill="white" stroke="black" points="1044.37,-420.5 1044.37,-441.5 1127.37,-441.5 1127.37,-420.5 1044.37,-420.5"/>
<text text-anchor="middle" x="1085.87" y="-428.5" font-family="Helvetica,sans-Serif" font-size="10.00">tree/TParticle.h</text>
</a>
</g>
<!-- Node0&#45;&gt;Node2 -->
<g id="edge158" class="edge"><title>Node0&#45;&gt;Node2</title>
<path fill="none" stroke="midnightblue" d="M1270.11,-536.897C1228.45,-512.953 1153.34,-469.782 1113.09,-446.646"/>
<polygon fill="midnightblue" stroke="midnightblue" points="1114.77,-443.572 1104.35,-441.623 1111.28,-449.641 1114.77,-443.572"/>
</g>
<!-- Node15 -->
<g id="node33" class="node"><title>Node15</title>
<polygon fill="white" stroke="#bfbfbf" points="905.87,-58.5 905.87,-79.5 949.87,-79.5 949.87,-58.5 905.87,-58.5"/>
<text text-anchor="middle" x="927.87" y="-66.5" font-family="Helvetica,sans-Serif" font-size="10.00">vector</text>
</g>
<!-- Node0&#45;&gt;Node15 -->
<g id="edge164" class="edge"><title>Node0&#45;&gt;Node15</title>
<path fill="none" stroke="midnightblue" d="M1344.89,-551.124C1457.76,-542.684 1743.87,-513.186 1743.87,-431 1743.87,-431 1743.87,-431 1743.87,-185 1743.87,-148.143 1729.82,-134.373 1697.87,-116 1633.23,-78.8255 1098.26,-70.7604 960.251,-69.2917"/>
<polygon fill="midnightblue" stroke="midnightblue" points="959.965,-65.7886 949.929,-69.1864 959.893,-72.7883 959.965,-65.7886"/>
</g>
<!-- Node23 -->
<g id="node53" class="node"><title>Node23</title>
<polygon fill="white" stroke="#bfbfbf" points="1143.87,-174.5 1143.87,-195.5 1195.87,-195.5 1195.87,-174.5 1143.87,-174.5"/>
<text text-anchor="middle" x="1169.87" y="-182.5" font-family="Helvetica,sans-Serif" font-size="10.00">memory</text>
</g>
<!-- Node0&#45;&gt;Node23 -->
<g id="edge166" class="edge"><title>Node0&#45;&gt;Node23</title>
<path fill="none" stroke="midnightblue" d="M1293.77,-536.697C1272.28,-475.69 1200.09,-270.767 1177.02,-205.293"/>
<polygon fill="midnightblue" stroke="midnightblue" points="1180.27,-203.973 1173.64,-195.704 1173.66,-206.299 1180.27,-203.973"/>
</g>
<!-- Node40 -->
<g id="node113" class="node"><title>Node40</title>
<a xlink:href="_lorentz_vec_8h.html" target="_top" xlink:title="base/vec/LorentzVec.h">
<polygon fill="white" stroke="black" points="97.3699,-362.5 97.3699,-383.5 214.37,-383.5 214.37,-362.5 97.3699,-362.5"/>
<text text-anchor="middle" x="155.87" y="-370.5" font-family="Helvetica,sans-Serif" font-size="10.00">base/vec/LorentzVec.h</text>
</a>
</g>
<!-- Node0&#45;&gt;Node40 -->
<g id="edge160" class="edge"><title>Node0&#45;&gt;Node40</title>
<path fill="none" stroke="midnightblue" d="M1254.64,-550.762C1122.38,-540.779 725.306,-507.15 401.87,-442 328.848,-427.291 245.772,-402.188 197.254,-386.657"/>
<polygon fill="midnightblue" stroke="midnightblue" points="198.325,-383.325 187.733,-383.59 196.178,-389.988 198.325,-383.325"/>
</g>
<!-- Node42 -->
<g id="node124" class="node"><title>Node42</title>
<polygon fill="white" stroke="#bfbfbf" points="1771.37,-478.5 1771.37,-499.5 1848.37,-499.5 1848.37,-478.5 1771.37,-478.5"/>
<text text-anchor="middle" x="1809.87" y="-486.5" font-family="Helvetica,sans-Serif" font-size="10.00">APLCON.hpp</text>
</g>
<!-- Node0&#45;&gt;Node42 -->
<g id="edge162" class="edge"><title>Node0&#45;&gt;Node42</title>
<path fill="none" stroke="midnightblue" d="M1344.92,-550.062C1427.24,-542.561 1607.37,-524.738 1757.87,-500 1758.96,-499.82 1760.07,-499.633 1761.18,-499.44"/>
<polygon fill="midnightblue" stroke="midnightblue" points="1762.13,-502.824 1771.32,-497.562 1760.85,-495.941 1762.13,-502.824"/>
</g>
<!-- Node1&#45;&gt;Node2 -->
<g id="edge4" class="edge"><title>Node1&#45;&gt;Node2</title>
<path fill="none" stroke="midnightblue" d="M1085.87,-478.362C1085.87,-470.922 1085.87,-460.743 1085.87,-451.728"/>
<polygon fill="midnightblue" stroke="midnightblue" points="1089.37,-451.571 1085.87,-441.571 1082.37,-451.571 1089.37,-451.571"/>
</g>
<!-- Node6 -->
<g id="node13" class="node"><title>Node6</title>
<a xlink:href="_detector__t_8h.html" target="_top" xlink:title="base/Detector_t.h">
<polygon fill="white" stroke="black" points="439.37,-174.5 439.37,-195.5 534.37,-195.5 534.37,-174.5 439.37,-174.5"/>
<text text-anchor="middle" x="486.87" y="-182.5" font-family="Helvetica,sans-Serif" font-size="10.00">base/Detector_t.h</text>
</a>
</g>
<!-- Node1&#45;&gt;Node6 -->
<g id="edge156" class="edge"><title>Node1&#45;&gt;Node6</title>
<path fill="none" stroke="midnightblue" d="M1014.17,-484.038C841.326,-471.12 415.87,-433.205 415.87,-373 415.87,-373 415.87,-373 415.87,-315 415.87,-270.602 448.161,-226.963 469.19,-203.251"/>
<polygon fill="midnightblue" stroke="midnightblue" points="471.91,-205.464 476.087,-195.727 466.749,-200.734 471.91,-205.464"/>
</g>
<!-- Node3 -->
<g id="node7" class="node"><title>Node3</title>
<a xlink:href="_t_candidate_8h.html" target="_top" xlink:title="tree/TCandidate.h">
<polygon fill="white" stroke="black" points="1012.37,-362.5 1012.37,-383.5 1107.37,-383.5 1107.37,-362.5 1012.37,-362.5"/>
<text text-anchor="middle" x="1059.87" y="-370.5" font-family="Helvetica,sans-Serif" font-size="10.00">tree/TCandidate.h</text>
</a>
</g>
<!-- Node2&#45;&gt;Node3 -->
<g id="edge6" class="edge"><title>Node2&#45;&gt;Node3</title>
<path fill="none" stroke="midnightblue" d="M1081.1,-420.362C1077.66,-412.677 1072.9,-402.069 1068.76,-392.84"/>
<polygon fill="midnightblue" stroke="midnightblue" points="1071.89,-391.264 1064.61,-383.571 1065.51,-394.127 1071.89,-391.264"/>
</g>
<!-- Node2&#45;&gt;Node15 -->
<g id="edge148" class="edge"><title>Node2&#45;&gt;Node15</title>
<path fill="none" stroke="midnightblue" d="M1127.51,-427.639C1266.52,-415.867 1705.87,-373.997 1705.87,-315 1705.87,-315 1705.87,-315 1705.87,-185 1705.87,-151.007 1701.04,-135.021 1672.87,-116 1613.2,-75.7112 1095.71,-69.9527 960.223,-69.1346"/>
<polygon fill="midnightblue" stroke="midnightblue" points="960.093,-65.6339 950.073,-69.0784 960.054,-72.6338 960.093,-65.6339"/>
</g>
<!-- Node2&#45;&gt;Node23 -->
<g id="edge154" class="edge"><title>Node2&#45;&gt;Node23</title>
<path fill="none" stroke="midnightblue" d="M1093.33,-420.493C1099.77,-411.172 1109.07,-397.05 1115.87,-384 1141.65,-334.516 1151.03,-322.297 1163.87,-268 1168.76,-247.324 1170.01,-223.012 1170.19,-206.066"/>
<polygon fill="midnightblue" stroke="midnightblue" points="1173.69,-205.64 1170.18,-195.645 1166.69,-205.65 1173.69,-205.64"/>
</g>
<!-- Node26 -->
<g id="node71" class="node"><title>Node26</title>
<a xlink:href="types_8h.html" target="_top" xlink:title="base/types.h">
<polygon fill="white" stroke="black" points="143.37,-174.5 143.37,-195.5 216.37,-195.5 216.37,-174.5 143.37,-174.5"/>
<text text-anchor="middle" x="179.87" y="-182.5" font-family="Helvetica,sans-Serif" font-size="10.00">base/types.h</text>
</a>
</g>
<!-- Node2&#45;&gt;Node26 -->
<g id="edge88" class="edge"><title>Node2&#45;&gt;Node26</title>
<path fill="none" stroke="midnightblue" d="M1044.24,-428.679C923.698,-420.66 565.958,-387.66 298.87,-268 260.754,-250.923 222.089,-221.146 199.578,-202.286"/>
<polygon fill="midnightblue" stroke="midnightblue" points="201.659,-199.461 191.776,-195.642 197.12,-204.79 201.659,-199.461"/>
</g>
<!-- Node27 -->
<g id="node73" class="node"><title>Node27</title>
<a xlink:href="_particle_type_8h.html" target="_top" xlink:title="base/ParticleType.h">
<polygon fill="white" stroke="black" points="87.8699,-304.5 87.8699,-325.5 191.87,-325.5 191.87,-304.5 87.8699,-304.5"/>
<text text-anchor="middle" x="139.87" y="-312.5" font-family="Helvetica,sans-Serif" font-size="10.00">base/ParticleType.h</text>
</a>
</g>
<!-- Node2&#45;&gt;Node27 -->
<g id="edge90" class="edge"><title>Node2&#45;&gt;Node27</title>
<path fill="none" stroke="midnightblue" d="M1044.14,-429.686C887.662,-424.614 340.919,-405.51 265.87,-384 260.602,-382.49 203.155,-350.518 167.675,-330.631"/>
<polygon fill="midnightblue" stroke="midnightblue" points="169.176,-327.46 158.742,-325.62 165.751,-333.565 169.176,-327.46"/>
</g>
<!-- Node32 -->
<g id="node93" class="node"><title>Node32</title>
<a xlink:href="_tree_8h.html" target="_top" xlink:title="base/Tree.h">
<polygon fill="white" stroke="black" points="1315.87,-239.5 1315.87,-260.5 1383.87,-260.5 1383.87,-239.5 1315.87,-239.5"/>
<text text-anchor="middle" x="1349.87" y="-247.5" font-family="Helvetica,sans-Serif" font-size="10.00">base/Tree.h</text>
</a>
</g>
<!-- Node2&#45;&gt;Node32 -->
<g id="edge120" class="edge"><title>Node2&#45;&gt;Node32</title>
<path fill="none" stroke="midnightblue" d="M1127.63,-423.603C1173.12,-414.921 1242.29,-399.706 1263.87,-384 1304.28,-354.589 1330.5,-299.885 1342.43,-270.283"/>
<polygon fill="midnightblue" stroke="midnightblue" points="1345.83,-271.195 1346.17,-260.606 1339.3,-268.669 1345.83,-271.195"/>
</g>
<!-- Node37 -->
<g id="node104" class="node"><title>Node37</title>
<polygon fill="white" stroke="#bfbfbf" points="1213.37,-174.5 1213.37,-195.5 1242.37,-195.5 1242.37,-174.5 1213.37,-174.5"/>
<text text-anchor="middle" x="1227.87" y="-182.5" font-family="Helvetica,sans-Serif" font-size="10.00">list</text>
</g>
<!-- Node2&#45;&gt;Node37 -->
<g id="edge150" class="edge"><title>Node2&#45;&gt;Node37</title>
<path fill="none" stroke="midnightblue" d="M1099.64,-420.138C1110.24,-411.255 1124.76,-397.926 1134.87,-384 1177.69,-325.018 1208.41,-243.181 1221.23,-205.495"/>
<polygon fill="midnightblue" stroke="midnightblue" points="1224.66,-206.283 1224.5,-195.689 1218.02,-204.07 1224.66,-206.283"/>
</g>
<!-- Node2&#45;&gt;Node40 -->
<g id="edge144" class="edge"><title>Node2&#45;&gt;Node40</title>
<path fill="none" stroke="midnightblue" d="M1044.24,-430.149C919.915,-427.299 540.599,-416.378 227.87,-384 226.934,-383.903 225.993,-383.803 225.045,-383.699"/>
<polygon fill="midnightblue" stroke="midnightblue" points="225.094,-380.18 214.749,-382.471 224.264,-387.131 225.094,-380.18"/>
</g>
<!-- Node41 -->
<g id="node118" class="node"><title>Node41</title>
<polygon fill="white" stroke="#bfbfbf" points="940.87,-362.5 940.87,-383.5 994.87,-383.5 994.87,-362.5 940.87,-362.5"/>
<text text-anchor="middle" x="967.87" y="-370.5" font-family="Helvetica,sans-Serif" font-size="10.00">iostream</text>
</g>
<!-- Node2&#45;&gt;Node41 -->
<g id="edge152" class="edge"><title>Node2&#45;&gt;Node41</title>
<path fill="none" stroke="midnightblue" d="M1064.5,-420.497C1046.07,-411.438 1019.23,-398.246 998.515,-388.063"/>
<polygon fill="midnightblue" stroke="midnightblue" points="999.997,-384.891 989.479,-383.621 996.909,-391.174 999.997,-384.891"/>
</g>
<!-- Node4 -->
<g id="node9" class="node"><title>Node4</title>
<a xlink:href="_t_cluster_8h.html" target="_top" xlink:title="TCluster.h">
<polygon fill="white" stroke="black" points="754.87,-304.5 754.87,-325.5 816.87,-325.5 816.87,-304.5 754.87,-304.5"/>
<text text-anchor="middle" x="785.87" y="-312.5" font-family="Helvetica,sans-Serif" font-size="10.00">TCluster.h</text>
</a>
</g>
<!-- Node3&#45;&gt;Node4 -->
<g id="edge8" class="edge"><title>Node3&#45;&gt;Node4</title>
<path fill="none" stroke="midnightblue" d="M1012.14,-362.897C959.752,-351.807 876.511,-334.187 826.93,-323.692"/>
<polygon fill="midnightblue" stroke="midnightblue" points="827.393,-320.212 816.885,-321.565 825.943,-327.06 827.393,-320.212"/>
</g>
<!-- Node3&#45;&gt;Node6 -->
<g id="edge76" class="edge"><title>Node3&#45;&gt;Node6</title>
<path fill="none" stroke="midnightblue" d="M1012.27,-363.297C1009.43,-362.829 1006.62,-362.391 1003.87,-362 825.843,-336.635 771.092,-383.976 600.87,-326 555.47,-310.537 538.39,-306.56 509.87,-268 496.321,-249.682 490.753,-223.765 488.465,-205.785"/>
<polygon fill="midnightblue" stroke="midnightblue" points="491.937,-205.339 487.422,-195.754 484.975,-206.062 491.937,-205.339"/>
</g>
<!-- Node3&#45;&gt;Node15 -->
<g id="edge78" class="edge"><title>Node3&#45;&gt;Node15</title>
<path fill="none" stroke="midnightblue" d="M1066.5,-362.281C1084.86,-331.088 1132.73,-238.497 1096.87,-174 1067.62,-121.399 999.904,-91.7608 959.628,-78.194"/>
<polygon fill="midnightblue" stroke="midnightblue" points="960.611,-74.8337 950.019,-75.0869 958.457,-81.4941 960.611,-74.8337"/>
</g>
<!-- Node20 -->
<g id="node44" class="node"><title>Node20</title>
<polygon fill="white" stroke="#bfbfbf" points="811.87,-174.5 811.87,-195.5 861.87,-195.5 861.87,-174.5 811.87,-174.5"/>
<text text-anchor="middle" x="836.87" y="-182.5" font-family="Helvetica,sans-Serif" font-size="10.00">iomanip</text>
</g>
<!-- Node3&#45;&gt;Node20 -->
<g id="edge80" class="edge"><title>Node3&#45;&gt;Node20</title>
<path fill="none" stroke="midnightblue" d="M1044.05,-362.39C1017.32,-344.215 961.937,-305.452 918.87,-268 894.963,-247.21 869.66,-220.842 853.591,-203.472"/>
<polygon fill="midnightblue" stroke="midnightblue" points="855.83,-200.735 846.49,-195.732 850.671,-205.467 855.83,-200.735"/>
</g>
<!-- Node21 -->
<g id="node46" class="node"><title>Node21</title>
<polygon fill="white" stroke="#bfbfbf" points="572.87,-174.5 572.87,-195.5 624.87,-195.5 624.87,-174.5 572.87,-174.5"/>
<text text-anchor="middle" x="598.87" y="-182.5" font-family="Helvetica,sans-Serif" font-size="10.00">sstream</text>
</g>
<!-- Node3&#45;&gt;Node21 -->
<g id="edge82" class="edge"><title>Node3&#45;&gt;Node21</title>
<path fill="none" stroke="midnightblue" d="M1012.24,-363.459C1009.41,-362.95 1006.61,-362.459 1003.87,-362 902.048,-344.909 610.713,-350.675 548.87,-268 539.286,-255.188 542.519,-246.686 548.87,-232 553.99,-220.16 563.724,-209.927 573.253,-202.06"/>
<polygon fill="midnightblue" stroke="midnightblue" points="575.645,-204.637 581.453,-195.775 571.387,-199.081 575.645,-204.637"/>
</g>
<!-- Node3&#45;&gt;Node23 -->
<g id="edge84" class="edge"><title>Node3&#45;&gt;Node23</title>
<path fill="none" stroke="midnightblue" d="M1074.76,-362.473C1086.17,-353.775 1101.65,-340.531 1111.87,-326 1139.01,-287.415 1156.48,-234.212 1164.58,-205.449"/>
<polygon fill="midnightblue" stroke="midnightblue" points="1167.98,-206.271 1167.23,-195.703 1161.23,-204.435 1167.98,-206.271"/>
</g>
<!-- Node25 -->
<g id="node57" class="node"><title>Node25</title>
<polygon fill="white" stroke="#bfbfbf" points="1031.87,-174.5 1031.87,-195.5 1087.87,-195.5 1087.87,-174.5 1031.87,-174.5"/>
<text text-anchor="middle" x="1059.87" y="-182.5" font-family="Helvetica,sans-Serif" font-size="10.00">algorithm</text>
</g>
<!-- Node3&#45;&gt;Node25 -->
<g id="edge86" class="edge"><title>Node3&#45;&gt;Node25</title>
<path fill="none" stroke="midnightblue" d="M1059.87,-362.354C1059.87,-332.172 1059.87,-245.656 1059.87,-205.693"/>
<polygon fill="midnightblue" stroke="midnightblue" points="1063.37,-205.53 1059.87,-195.53 1056.37,-205.53 1063.37,-205.53"/>
</g>
<!-- Node5 -->
<g id="node11" class="node"><title>Node5</title>
<a xlink:href="_t_detector_read_hit_8h.html" target="_top" xlink:title="tree/TDetectorReadHit.h">
<polygon fill="white" stroke="black" points="557.87,-239.5 557.87,-260.5 681.87,-260.5 681.87,-239.5 557.87,-239.5"/>
<text text-anchor="middle" x="619.87" y="-247.5" font-family="Helvetica,sans-Serif" font-size="10.00">tree/TDetectorReadHit.h</text>
</a>
</g>
<!-- Node4&#45;&gt;Node5 -->
<g id="edge10" class="edge"><title>Node4&#45;&gt;Node5</title>
<path fill="none" stroke="midnightblue" d="M758.83,-304.412C730.975,-293.505 687.382,-276.436 656.458,-264.327"/>
<polygon fill="midnightblue" stroke="midnightblue" points="657.486,-260.971 646.899,-260.584 654.934,-267.489 657.486,-260.971"/>
</g>
<!-- Node4&#45;&gt;Node6 -->
<g id="edge50" class="edge"><title>Node4&#45;&gt;Node6</title>
<path fill="none" stroke="midnightblue" d="M754.787,-311.632C698.61,-305.094 582.846,-289.42 548.87,-268 524.512,-252.644 506.372,-224.034 496.199,-204.753"/>
<polygon fill="midnightblue" stroke="midnightblue" points="499.236,-203.001 491.615,-195.64 492.982,-206.147 499.236,-203.001"/>
</g>
<!-- Node9 -->
<g id="node19" class="node"><title>Node9</title>
<a xlink:href="vec3_8h.html" target="_top" xlink:title="base/vec/vec3.h">
<polygon fill="white" stroke="black" points="71.3699,-116.5 71.3699,-137.5 160.37,-137.5 160.37,-116.5 71.3699,-116.5"/>
<text text-anchor="middle" x="115.87" y="-124.5" font-family="Helvetica,sans-Serif" font-size="10.00">base/vec/vec3.h</text>
</a>
</g>
<!-- Node4&#45;&gt;Node9 -->
<g id="edge64" class="edge"><title>Node4&#45;&gt;Node9</title>
<path fill="none" stroke="midnightblue" d="M754.715,-313.305C661.478,-308.025 385.74,-290.851 298.87,-268 260.771,-257.978 253.941,-247.838 217.87,-232 181.053,-215.835 161.236,-226.358 134.87,-196 123.314,-182.694 118.73,-162.95 116.941,-147.987"/>
<polygon fill="midnightblue" stroke="midnightblue" points="120.397,-147.324 116.048,-137.663 113.423,-147.927 120.397,-147.324"/>
</g>
<!-- Node11 -->
<g id="node23" class="node"><title>Node11</title>
<polygon fill="white" stroke="#bfbfbf" points="144.87,-0.5 144.87,-21.5 188.87,-21.5 188.87,-0.5 144.87,-0.5"/>
<text text-anchor="middle" x="166.87" y="-8.5" font-family="Helvetica,sans-Serif" font-size="10.00">cmath</text>
</g>
<!-- Node4&#45;&gt;Node11 -->
<g id="edge68" class="edge"><title>Node4&#45;&gt;Node11</title>
<path fill="none" stroke="midnightblue" d="M754.864,-314.625C651.215,-313.034 317.698,-305.084 217.87,-268 158.532,-245.957 27.9672,-138.534 3.86988,-80 0.14765,-70.9584 -2.00877,-65.8132 3.86988,-58 19.5738,-37.1282 91.7676,-22.616 134.632,-15.6706"/>
<polygon fill="midnightblue" stroke="midnightblue" points="135.252,-19.1162 144.588,-14.1076 134.167,-12.2009 135.252,-19.1162"/>
</g>
<!-- Node13 -->
<g id="node28" class="node"><title>Node13</title>
<a xlink:href="base_2std__ext_2math_8h.html" target="_top" xlink:title="base/std_ext/math.h">
<polygon fill="white" stroke="black" points="599.87,-116.5 599.87,-137.5 705.87,-137.5 705.87,-116.5 599.87,-116.5"/>
<text text-anchor="middle" x="652.87" y="-124.5" font-family="Helvetica,sans-Serif" font-size="10.00">base/std_ext/math.h</text>
</a>
</g>
<!-- Node4&#45;&gt;Node13 -->
<g id="edge52" class="edge"><title>Node4&#45;&gt;Node13</title>
<path fill="none" stroke="midnightblue" d="M778.338,-304.354C756.666,-273.719 693.937,-185.05 666.26,-145.928"/>
<polygon fill="midnightblue" stroke="midnightblue" points="668.952,-143.672 660.319,-137.53 663.237,-147.715 668.952,-143.672"/>
</g>
<!-- Node4&#45;&gt;Node15 -->
<g id="edge66" class="edge"><title>Node4&#45;&gt;Node15</title>
<path fill="none" stroke="midnightblue" d="M795.882,-304.17C804.276,-294.876 816.377,-280.969 825.87,-268 848.158,-237.55 853.103,-229.291 870.87,-196 890.472,-159.271 909.503,-114.466 919.856,-89.0848"/>
<polygon fill="midnightblue" stroke="midnightblue" points="923.118,-90.3551 923.62,-79.7721 916.628,-87.7321 923.118,-90.3551"/>
</g>
<!-- Node4&#45;&gt;Node20 -->
<g id="edge70" class="edge"><title>Node4&#45;&gt;Node20</title>
<path fill="none" stroke="midnightblue" d="M790.043,-304.362C798.524,-282.746 817.893,-233.372 828.879,-205.369"/>
<polygon fill="midnightblue" stroke="midnightblue" points="832.245,-206.373 832.639,-195.785 825.728,-203.816 832.245,-206.373"/>
</g>
<!-- Node4&#45;&gt;Node21 -->
<g id="edge72" class="edge"><title>Node4&#45;&gt;Node21</title>
<path fill="none" stroke="midnightblue" d="M775.471,-304.358C758.717,-287.587 724.238,-254.594 690.87,-232 672.7,-219.697 650.885,-208.419 633.059,-199.996"/>
<polygon fill="midnightblue" stroke="midnightblue" points="634.159,-196.648 623.614,-195.622 631.217,-203 634.159,-196.648"/>
</g>
<!-- Node22 -->
<g id="node50" class="node"><title>Node22</title>
<a xlink:href="shared__ptr__container_8h.html" target="_top" xlink:title="base/std_ext/shared\l_ptr_container.h">
<polygon fill="white" stroke="black" points="927.37,-233 927.37,-267 1032.37,-267 1032.37,-233 927.37,-233"/>
<text text-anchor="start" x="935.37" y="-254" font-family="Helvetica,sans-Serif" font-size="10.00">base/std_ext/shared</text>
<text text-anchor="middle" x="979.87" y="-241" font-family="Helvetica,sans-Serif" font-size="10.00">_ptr_container.h</text>
</a>
</g>
<!-- Node4&#45;&gt;Node22 -->
<g id="edge54" class="edge"><title>Node4&#45;&gt;Node22</title>
<path fill="none" stroke="midnightblue" d="M817.039,-304.557C844.53,-295.346 885.378,-281.66 919.283,-270.3"/>
<polygon fill="midnightblue" stroke="midnightblue" points="920.731,-273.506 929.101,-267.01 918.507,-266.869 920.731,-273.506"/>
</g>
<!-- Node4&#45;&gt;Node23 -->
<g id="edge74" class="edge"><title>Node4&#45;&gt;Node23</title>
<path fill="none" stroke="midnightblue" d="M817.162,-313.143C866.349,-309.373 964.066,-298.41 1040.87,-268 1082.33,-251.585 1124.74,-221.136 1149.12,-202.034"/>
<polygon fill="midnightblue" stroke="midnightblue" points="1151.61,-204.524 1157.25,-195.556 1147.25,-199.049 1151.61,-204.524"/>
</g>
<!-- Node5&#45;&gt;Node6 -->
<g id="edge12" class="edge"><title>Node5&#45;&gt;Node6</title>
<path fill="none" stroke="midnightblue" d="M598.205,-239.412C576.371,-228.741 542.467,-212.172 517.807,-200.12"/>
<polygon fill="midnightblue" stroke="midnightblue" points="519.047,-196.83 508.525,-195.584 515.973,-203.119 519.047,-196.83"/>
</g>
<!-- Node5&#45;&gt;Node20 -->
<g id="edge46" class="edge"><title>Node5&#45;&gt;Node20</title>
<path fill="none" stroke="midnightblue" d="M655.218,-239.412C695.739,-227.274 761.741,-207.504 802.043,-195.432"/>
<polygon fill="midnightblue" stroke="midnightblue" points="803.129,-198.761 811.704,-192.538 801.12,-192.055 803.129,-198.761"/>
</g>
<!-- Node5&#45;&gt;Node21 -->
<g id="edge48" class="edge"><title>Node5&#45;&gt;Node21</title>
<path fill="none" stroke="midnightblue" d="M616.402,-239.267C613.436,-230.085 609.084,-216.615 605.458,-205.392"/>
<polygon fill="midnightblue" stroke="midnightblue" points="608.678,-203.973 602.273,-195.534 602.017,-206.125 608.678,-203.973"/>
</g>
<!-- Node7 -->
<g id="node15" class="node"><title>Node7</title>
<a xlink:href="bitflag_8h.html" target="_top" xlink:title="base/bitflag.h">
<polygon fill="white" stroke="black" points="443.37,-116.5 443.37,-137.5 518.37,-137.5 518.37,-116.5 443.37,-116.5"/>
<text text-anchor="middle" x="480.87" y="-124.5" font-family="Helvetica,sans-Serif" font-size="10.00">base/bitflag.h</text>
</a>
</g>
<!-- Node6&#45;&gt;Node7 -->
<g id="edge14" class="edge"><title>Node6&#45;&gt;Node7</title>
<path fill="none" stroke="midnightblue" d="M485.769,-174.362C485,-166.922 483.947,-156.743 483.014,-147.728"/>
<polygon fill="midnightblue" stroke="midnightblue" points="486.474,-147.157 481.963,-137.571 479.511,-147.878 486.474,-147.157"/>
</g>
<!-- Node6&#45;&gt;Node9 -->
<g id="edge18" class="edge"><title>Node6&#45;&gt;Node9</title>
<path fill="none" stroke="midnightblue" d="M439.128,-177.536C370.297,-166.776 243.497,-146.952 170.846,-135.595"/>
<polygon fill="midnightblue" stroke="midnightblue" points="170.954,-132.069 160.533,-133.982 169.873,-138.985 170.954,-132.069"/>
</g>
<!-- Node6&#45;&gt;Node13 -->
<g id="edge28" class="edge"><title>Node6&#45;&gt;Node13</title>
<path fill="none" stroke="midnightblue" d="M516.931,-174.497C543.877,-165.082 583.597,-151.204 613.152,-140.877"/>
<polygon fill="midnightblue" stroke="midnightblue" points="614.466,-144.126 622.752,-137.523 612.157,-137.517 614.466,-144.126"/>
</g>
<!-- Node6&#45;&gt;Node15 -->
<g id="edge44" class="edge"><title>Node6&#45;&gt;Node15</title>
<path fill="none" stroke="midnightblue" d="M534.804,-176.687C591.493,-166.582 682.271,-149.462 714.87,-138 735.122,-130.879 737.866,-123.789 757.87,-116 804.546,-97.8253 860.982,-83.6873 895.647,-75.8479"/>
<polygon fill="midnightblue" stroke="midnightblue" points="896.669,-79.2062 905.672,-73.6197 895.15,-72.373 896.669,-79.2062"/>
</g>
<!-- Node16 -->
<g id="node35" class="node"><title>Node16</title>
<polygon fill="white" stroke="#bfbfbf" points="535.87,-116.5 535.87,-137.5 581.87,-137.5 581.87,-116.5 535.87,-116.5"/>
<text text-anchor="middle" x="558.87" y="-124.5" font-family="Helvetica,sans-Serif" font-size="10.00">cstdint</text>
</g>
<!-- Node6&#45;&gt;Node16 -->
<g id="edge36" class="edge"><title>Node6&#45;&gt;Node16</title>
<path fill="none" stroke="midnightblue" d="M500.076,-174.362C510.631,-165.859 525.628,-153.779 537.833,-143.947"/>
<polygon fill="midnightblue" stroke="midnightblue" points="540.156,-146.57 545.748,-137.571 535.764,-141.118 540.156,-146.57"/>
</g>
<!-- Node17 -->
<g id="node37" class="node"><title>Node17</title>
<polygon fill="white" stroke="#bfbfbf" points="367.37,-116.5 367.37,-137.5 426.37,-137.5 426.37,-116.5 367.37,-116.5"/>
<text text-anchor="middle" x="396.87" y="-124.5" font-family="Helvetica,sans-Serif" font-size="10.00">stdexcept</text>
</g>
<!-- Node6&#45;&gt;Node17 -->
<g id="edge38" class="edge"><title>Node6&#45;&gt;Node17</title>
<path fill="none" stroke="midnightblue" d="M470.362,-174.362C456.788,-165.614 437.337,-153.079 421.855,-143.101"/>
<polygon fill="midnightblue" stroke="midnightblue" points="423.574,-140.046 413.273,-137.571 419.782,-145.93 423.574,-140.046"/>
</g>
<!-- Node18 -->
<g id="node39" class="node"><title>Node18</title>
<polygon fill="white" stroke="#bfbfbf" points="309.37,-116.5 309.37,-137.5 350.37,-137.5 350.37,-116.5 309.37,-116.5"/>
<text text-anchor="middle" x="329.87" y="-124.5" font-family="Helvetica,sans-Serif" font-size="10.00">string</text>
</g>
<!-- Node6&#45;&gt;Node18 -->
<g id="edge40" class="edge"><title>Node6&#45;&gt;Node18</title>
<path fill="none" stroke="midnightblue" d="M457.861,-174.448C433.823,-165.682 398.534,-152.763 359.826,-138.336"/>
<polygon fill="midnightblue" stroke="midnightblue" points="361.047,-135.056 350.455,-134.839 358.6,-141.615 361.047,-135.056"/>
</g>
<!-- Node19 -->
<g id="node41" class="node"><title>Node19</title>
<polygon fill="white" stroke="#bfbfbf" points="799.87,-116.5 799.87,-137.5 861.87,-137.5 861.87,-116.5 799.87,-116.5"/>
<text text-anchor="middle" x="830.87" y="-124.5" font-family="Helvetica,sans-Serif" font-size="10.00">type_traits</text>
</g>
<!-- Node6&#45;&gt;Node19 -->
<g id="edge42" class="edge"><title>Node6&#45;&gt;Node19</title>
<path fill="none" stroke="midnightblue" d="M534.702,-176.935C602.554,-165.495 725.609,-144.748 789.647,-133.95"/>
<polygon fill="midnightblue" stroke="midnightblue" points="790.495,-137.357 799.774,-132.243 789.331,-130.454 790.495,-137.357"/>
</g>
<!-- Node8 -->
<g id="node17" class="node"><title>Node8</title>
<polygon fill="white" stroke="#bfbfbf" points="460.37,-58.5 460.37,-79.5 501.37,-79.5 501.37,-58.5 460.37,-58.5"/>
<text text-anchor="middle" x="480.87" y="-66.5" font-family="Helvetica,sans-Serif" font-size="10.00">bitset</text>
</g>
<!-- Node7&#45;&gt;Node8 -->
<g id="edge16" class="edge"><title>Node7&#45;&gt;Node8</title>
<path fill="none" stroke="midnightblue" d="M480.87,-116.362C480.87,-108.922 480.87,-98.7427 480.87,-89.7276"/>
<polygon fill="midnightblue" stroke="midnightblue" points="484.37,-89.5706 480.87,-79.5707 477.37,-89.5707 484.37,-89.5706"/>
</g>
<!-- Node10 -->
<g id="node21" class="node"><title>Node10</title>
<a xlink:href="vec2_8h.html" target="_top" xlink:title="vec2.h">
<polygon fill="white" stroke="black" points="92.8699,-58.5 92.8699,-79.5 138.87,-79.5 138.87,-58.5 92.8699,-58.5"/>
<text text-anchor="middle" x="115.87" y="-66.5" font-family="Helvetica,sans-Serif" font-size="10.00">vec2.h</text>
</a>
</g>
<!-- Node9&#45;&gt;Node10 -->
<g id="edge20" class="edge"><title>Node9&#45;&gt;Node10</title>
<path fill="none" stroke="midnightblue" d="M115.87,-116.362C115.87,-108.922 115.87,-98.7427 115.87,-89.7276"/>
<polygon fill="midnightblue" stroke="midnightblue" points="119.37,-89.5706 115.87,-79.5707 112.37,-89.5707 119.37,-89.5706"/>
</g>
<!-- Node9&#45;&gt;Node11 -->
<g id="edge26" class="edge"><title>Node9&#45;&gt;Node11</title>
<path fill="none" stroke="midnightblue" d="M124.588,-116.411C131.736,-107.265 141.654,-93.4392 147.87,-80 155.031,-64.5169 159.976,-45.7946 163.022,-31.7611"/>
<polygon fill="midnightblue" stroke="midnightblue" points="166.513,-32.1586 165.064,-21.6633 159.652,-30.7712 166.513,-32.1586"/>
</g>
<!-- Node12 -->
<g id="node25" class="node"><title>Node12</title>
<polygon fill="white" stroke="#bfbfbf" points="12.8699,-58.5 12.8699,-79.5 64.8699,-79.5 64.8699,-58.5 12.8699,-58.5"/>
<text text-anchor="middle" x="38.8699" y="-66.5" font-family="Helvetica,sans-Serif" font-size="10.00">ostream</text>
</g>
<!-- Node9&#45;&gt;Node12 -->
<g id="edge24" class="edge"><title>Node9&#45;&gt;Node12</title>
<path fill="none" stroke="midnightblue" d="M101.747,-116.362C90.3501,-107.777 74.1118,-95.5459 60.9922,-85.6636"/>
<polygon fill="midnightblue" stroke="midnightblue" points="62.9967,-82.7916 52.9033,-79.5707 58.7851,-88.3829 62.9967,-82.7916"/>
</g>
<!-- Node10&#45;&gt;Node11 -->
<g id="edge22" class="edge"><title>Node10&#45;&gt;Node11</title>
<path fill="none" stroke="midnightblue" d="M125.224,-58.3619C132.413,-50.1861 142.511,-38.7025 150.963,-29.0907"/>
<polygon fill="midnightblue" stroke="midnightblue" points="153.6,-31.3916 157.575,-21.5707 148.343,-26.7692 153.6,-31.3916"/>
</g>
<!-- Node13&#45;&gt;Node11 -->
<g id="edge30" class="edge"><title>Node13&#45;&gt;Node11</title>
<path fill="none" stroke="midnightblue" d="M635.54,-116.412C609.344,-100.933 557.639,-72.4043 509.87,-58 399.126,-24.606 261.05,-14.8589 199.317,-12.0774"/>
<polygon fill="midnightblue" stroke="midnightblue" points="199.183,-8.56888 189.046,-11.6482 198.891,-15.5628 199.183,-8.56888"/>
</g>
<!-- Node14 -->
<g id="node31" class="node"><title>Node14</title>
<polygon fill="white" stroke="#bfbfbf" points="337.87,-58.5 337.87,-79.5 377.87,-79.5 377.87,-58.5 337.87,-58.5"/>
<text text-anchor="middle" x="357.87" y="-66.5" font-family="Helvetica,sans-Serif" font-size="10.00">limits</text>
</g>
<!-- Node13&#45;&gt;Node14 -->
<g id="edge32" class="edge"><title>Node13&#45;&gt;Node14</title>
<path fill="none" stroke="midnightblue" d="M599.789,-116.564C537.842,-104.384 437.563,-84.6685 387.823,-74.8892"/>
<polygon fill="midnightblue" stroke="midnightblue" points="388.496,-71.4545 378.009,-72.9595 387.146,-78.323 388.496,-71.4545"/>
</g>
<!-- Node13&#45;&gt;Node15 -->
<g id="edge34" class="edge"><title>Node13&#45;&gt;Node15</title>
<path fill="none" stroke="midnightblue" d="M702.67,-116.497C758.646,-104.691 847.903,-85.8658 895.497,-75.8277"/>
<polygon fill="midnightblue" stroke="midnightblue" points="896.486,-79.1962 905.548,-73.7078 895.041,-72.3469 896.486,-79.1962"/>
</g>
<!-- Node22&#45;&gt;Node15 -->
<g id="edge56" class="edge"><title>Node22&#45;&gt;Node15</title>
<path fill="none" stroke="midnightblue" d="M966.972,-232.913C959.923,-222.718 951.673,-209.218 946.87,-196 933.804,-160.042 929.718,-115.225 928.443,-89.5831"/>
<polygon fill="midnightblue" stroke="midnightblue" points="931.939,-89.4023 928.042,-79.5501 924.945,-89.682 931.939,-89.4023"/>
</g>
<!-- Node22&#45;&gt;Node23 -->
<g id="edge58" class="edge"><title>Node22&#45;&gt;Node23</title>
<path fill="none" stroke="midnightblue" d="M1029.79,-232.922C1062.59,-221.702 1104.71,-207.291 1134.17,-197.214"/>
<polygon fill="midnightblue" stroke="midnightblue" points="1135.31,-200.523 1143.64,-193.974 1133.04,-193.899 1135.31,-200.523"/>
</g>
<!-- Node24 -->
<g id="node55" class="node"><title>Node24</title>
<polygon fill="white" stroke="#bfbfbf" points="955.37,-174.5 955.37,-195.5 1014.37,-195.5 1014.37,-174.5 955.37,-174.5"/>
<text text-anchor="middle" x="984.87" y="-182.5" font-family="Helvetica,sans-Serif" font-size="10.00">functional</text>
</g>
<!-- Node22&#45;&gt;Node24 -->
<g id="edge60" class="edge"><title>Node22&#45;&gt;Node24</title>
<path fill="none" stroke="midnightblue" d="M981.184,-232.922C981.818,-224.67 982.586,-214.692 983.256,-205.982"/>
<polygon fill="midnightblue" stroke="midnightblue" points="986.758,-206.091 984.035,-195.852 979.778,-205.554 986.758,-206.091"/>
</g>
<!-- Node22&#45;&gt;Node25 -->
<g id="edge62" class="edge"><title>Node22&#45;&gt;Node25</title>
<path fill="none" stroke="midnightblue" d="M1000.89,-232.922C1012.51,-223.479 1026.92,-211.774 1038.58,-202.296"/>
<polygon fill="midnightblue" stroke="midnightblue" points="1040.96,-204.874 1046.51,-195.852 1036.55,-199.442 1040.96,-204.874"/>
</g>
<!-- Node27&#45;&gt;Node12 -->
<g id="edge112" class="edge"><title>Node27&#45;&gt;Node12</title>
<path fill="none" stroke="midnightblue" d="M100.069,-304.493C69.2234,-295.452 30.2085,-281.729 20.8699,-268 -16.7595,-212.68 12.5268,-127.764 29.2601,-89.2455"/>
<polygon fill="midnightblue" stroke="midnightblue" points="32.656,-90.2293 33.5808,-79.6749 26.2761,-87.349 32.656,-90.2293"/>
</g>
<!-- Node27&#45;&gt;Node15 -->
<g id="edge118" class="edge"><title>Node27&#45;&gt;Node15</title>
<path fill="none" stroke="midnightblue" d="M192.2,-313.126C321.495,-308.131 648.643,-293.14 690.87,-268 760.353,-226.633 726.972,-165.559 790.87,-116 821.974,-91.8753 866.266,-79.6803 895.987,-73.846"/>
<polygon fill="midnightblue" stroke="midnightblue" points="896.641,-77.2845 905.846,-72.0385 895.379,-70.3992 896.641,-77.2845"/>
</g>
<!-- Node27&#45;&gt;Node18 -->
<g id="edge110" class="edge"><title>Node27&#45;&gt;Node18</title>
<path fill="none" stroke="midnightblue" d="M87.8133,-305.6C66.4048,-298.892 43.6676,-287.455 30.8699,-268 22.0768,-254.633 22.7671,-245.797 30.8699,-232 57.6721,-186.364 85.5774,-193.268 134.87,-174 190.873,-152.109 260.042,-138.367 299.138,-131.739"/>
<polygon fill="midnightblue" stroke="midnightblue" points="299.803,-135.177 309.1,-130.095 298.663,-128.271 299.803,-135.177"/>
</g>
<!-- Node27&#45;&gt;Node26 -->
<g id="edge92" class="edge"><title>Node27&#45;&gt;Node26</title>
<path fill="none" stroke="midnightblue" d="M143.143,-304.362C149.794,-282.746 164.986,-233.372 173.602,-205.369"/>
<polygon fill="midnightblue" stroke="midnightblue" points="176.956,-206.373 176.551,-195.785 170.265,-204.314 176.956,-206.373"/>
</g>
<!-- Node28 -->
<g id="node76" class="node"><title>Node28</title>
<a xlink:href="interval_8h.html" target="_top" xlink:title="base/interval.h">
<polygon fill="white" stroke="black" points="307.87,-239.5 307.87,-260.5 387.87,-260.5 387.87,-239.5 307.87,-239.5"/>
<text text-anchor="middle" x="347.87" y="-247.5" font-family="Helvetica,sans-Serif" font-size="10.00">base/interval.h</text>
</a>
</g>
<!-- Node27&#45;&gt;Node28 -->
<g id="edge94" class="edge"><title>Node27&#45;&gt;Node28</title>
<path fill="none" stroke="midnightblue" d="M173.752,-304.412C209.258,-293.316 265.173,-275.843 304.023,-263.702"/>
<polygon fill="midnightblue" stroke="midnightblue" points="305.502,-266.907 314.003,-260.584 303.414,-260.226 305.502,-266.907"/>
</g>
<!-- Node30 -->
<g id="node88" class="node"><title>Node30</title>
<polygon fill="white" stroke="#bfbfbf" points="39.3699,-239.5 39.3699,-260.5 74.3699,-260.5 74.3699,-239.5 39.3699,-239.5"/>
<text text-anchor="middle" x="56.8699" y="-247.5" font-family="Helvetica,sans-Serif" font-size="10.00">map</text>
</g>
<!-- Node27&#45;&gt;Node30 -->
<g id="edge114" class="edge"><title>Node27&#45;&gt;Node30</title>
<path fill="none" stroke="midnightblue" d="M126.164,-304.267C113.232,-294.139 93.6345,-278.792 78.577,-267"/>
<polygon fill="midnightblue" stroke="midnightblue" points="80.3517,-263.944 70.3206,-260.534 76.0357,-269.455 80.3517,-263.944"/>
</g>
<!-- Node31 -->
<g id="node90" class="node"><title>Node31</title>
<polygon fill="white" stroke="#bfbfbf" points="91.3699,-239.5 91.3699,-260.5 138.37,-260.5 138.37,-239.5 91.3699,-239.5"/>
<text text-anchor="middle" x="114.87" y="-247.5" font-family="Helvetica,sans-Serif" font-size="10.00">iterator</text>
</g>
<!-- Node27&#45;&gt;Node31 -->
<g id="edge116" class="edge"><title>Node27&#45;&gt;Node31</title>
<path fill="none" stroke="midnightblue" d="M135.742,-304.267C132.174,-294.991 126.922,-281.336 122.58,-270.045"/>
<polygon fill="midnightblue" stroke="midnightblue" points="125.778,-268.611 118.921,-260.534 119.244,-271.124 125.778,-268.611"/>
</g>
<!-- Node28&#45;&gt;Node11 -->
<g id="edge108" class="edge"><title>Node28&#45;&gt;Node11</title>
<path fill="none" stroke="midnightblue" d="M324.583,-239.463C306.029,-230.145 280.35,-215.077 262.87,-196 216.369,-145.251 185.969,-67.776 173.417,-31.3132"/>
<polygon fill="midnightblue" stroke="midnightblue" points="176.718,-30.1496 170.223,-21.7792 170.081,-32.3731 176.718,-30.1496"/>
</g>
<!-- Node28&#45;&gt;Node14 -->
<g id="edge102" class="edge"><title>Node28&#45;&gt;Node14</title>
<path fill="none" stroke="midnightblue" d="M346.639,-239.45C344.569,-224.325 339.525,-195.889 328.87,-174 316.342,-148.263 288.661,-141.89 300.87,-116 306.87,-103.276 318.191,-92.8277 329.173,-85.0406"/>
<polygon fill="midnightblue" stroke="midnightblue" points="331.364,-87.7895 337.8,-79.3735 327.52,-81.9391 331.364,-87.7895"/>
</g>
<!-- Node28&#45;&gt;Node17 -->
<g id="edge100" class="edge"><title>Node28&#45;&gt;Node17</title>
<path fill="none" stroke="midnightblue" d="M352.218,-239.085C360.448,-218.427 378.41,-173.337 388.872,-147.076"/>
<polygon fill="midnightblue" stroke="midnightblue" points="392.152,-148.301 392.601,-137.715 385.649,-145.71 392.152,-148.301"/>
</g>
<!-- Node28&#45;&gt;Node21 -->
<g id="edge106" class="edge"><title>Node28&#45;&gt;Node21</title>
<path fill="none" stroke="midnightblue" d="M387.919,-239.629C436.172,-227.133 516.521,-206.325 562.883,-194.319"/>
<polygon fill="midnightblue" stroke="midnightblue" points="563.987,-197.649 572.79,-191.754 562.232,-190.873 563.987,-197.649"/>
</g>
<!-- Node28&#45;&gt;Node25 -->
<g id="edge98" class="edge"><title>Node28&#45;&gt;Node25</title>
<path fill="none" stroke="midnightblue" d="M387.899,-246.255C428.455,-242.498 493.004,-236.623 548.87,-232 756.134,-214.85 813.323,-233.713 1021.7,-195.881"/>
<polygon fill="midnightblue" stroke="midnightblue" points="1022.54,-199.286 1031.74,-194.037 1021.27,-192.402 1022.54,-199.286"/>
</g>
<!-- Node28&#45;&gt;Node26 -->
<g id="edge96" class="edge"><title>Node28&#45;&gt;Node26</title>
<path fill="none" stroke="midnightblue" d="M320.504,-239.412C292.314,-228.505 248.196,-211.436 216.899,-199.327"/>
<polygon fill="midnightblue" stroke="midnightblue" points="217.813,-195.928 207.224,-195.584 215.288,-202.456 217.813,-195.928"/>
</g>
<!-- Node29 -->
<g id="node82" class="node"><title>Node29</title>
<polygon fill="white" stroke="#bfbfbf" points="271.37,-174.5 271.37,-195.5 320.37,-195.5 320.37,-174.5 271.37,-174.5"/>
<text text-anchor="middle" x="295.87" y="-182.5" font-family="Helvetica,sans-Serif" font-size="10.00">istream</text>
</g>
<!-- Node28&#45;&gt;Node29 -->
<g id="edge104" class="edge"><title>Node28&#45;&gt;Node29</title>
<path fill="none" stroke="midnightblue" d="M339.283,-239.267C331.559,-229.612 320.041,-215.215 310.81,-203.675"/>
<polygon fill="midnightblue" stroke="midnightblue" points="313.277,-201.156 304.297,-195.534 307.811,-205.529 313.277,-201.156"/>
</g>
<!-- Node32&#45;&gt;Node15 -->
<g id="edge134" class="edge"><title>Node32&#45;&gt;Node15</title>
<path fill="none" stroke="midnightblue" d="M1343.23,-239.441C1332.57,-223.254 1310.12,-192.266 1283.87,-174 1180.16,-101.83 1026.46,-78.6156 960.201,-71.7027"/>
<polygon fill="midnightblue" stroke="midnightblue" points="960.266,-68.1922 949.971,-70.6941 959.579,-75.1585 960.266,-68.1922"/>
</g>
<!-- Node32&#45;&gt;Node19 -->
<g id="edge142" class="edge"><title>Node32&#45;&gt;Node19</title>
<path fill="none" stroke="midnightblue" d="M1340.1,-239.439C1323.57,-222.358 1288.25,-189.064 1250.87,-174 1182.72,-146.537 964.135,-133.278 872.213,-128.807"/>
<polygon fill="midnightblue" stroke="midnightblue" points="872.32,-125.309 862.165,-128.329 871.987,-132.301 872.32,-125.309"/>
</g>
<!-- Node32&#45;&gt;Node23 -->
<g id="edge130" class="edge"><title>Node32&#45;&gt;Node23</title>
<path fill="none" stroke="midnightblue" d="M1321.98,-239.451C1315.39,-236.985 1308.39,-234.383 1301.87,-232 1269.45,-220.152 1232.43,-207.001 1205.85,-197.63"/>
<polygon fill="midnightblue" stroke="midnightblue" points="1206.81,-194.255 1196.21,-194.234 1204.48,-200.858 1206.81,-194.255"/>
</g>
<!-- Node32&#45;&gt;Node25 -->
<g id="edge136" class="edge"><title>Node32&#45;&gt;Node25</title>
<path fill="none" stroke="midnightblue" d="M1315.75,-242.353C1261.34,-230.158 1155.27,-206.383 1098.28,-193.609"/>
<polygon fill="midnightblue" stroke="midnightblue" points="1098.76,-190.129 1088.23,-191.357 1097.22,-196.96 1098.76,-190.129"/>
</g>
<!-- Node33 -->
<g id="node95" class="node"><title>Node33</title>
<polygon fill="white" stroke="#bfbfbf" points="1335.87,-174.5 1335.87,-195.5 1431.87,-195.5 1431.87,-174.5 1335.87,-174.5"/>
<text text-anchor="middle" x="1383.87" y="-182.5" font-family="Helvetica,sans-Serif" font-size="10.00">cereal/access.hpp</text>
</g>
<!-- Node32&#45;&gt;Node33 -->
<g id="edge122" class="edge"><title>Node32&#45;&gt;Node33</title>
<path fill="none" stroke="midnightblue" d="M1355.48,-239.267C1360.39,-229.896 1367.62,-216.057 1373.57,-204.7"/>
<polygon fill="midnightblue" stroke="midnightblue" points="1376.83,-206.017 1378.36,-195.534 1370.62,-202.772 1376.83,-206.017"/>
</g>
<!-- Node34 -->
<g id="node97" class="node"><title>Node34</title>
<a xlink:href="variadic_8h.html" target="_top" xlink:title="std_ext/variadic.h">
<polygon fill="white" stroke="black" points="1583.87,-174.5 1583.87,-195.5 1677.87,-195.5 1677.87,-174.5 1583.87,-174.5"/>
<text text-anchor="middle" x="1630.87" y="-182.5" font-family="Helvetica,sans-Serif" font-size="10.00">std_ext/variadic.h</text>
</a>
</g>
<!-- Node32&#45;&gt;Node34 -->
<g id="edge124" class="edge"><title>Node32&#45;&gt;Node34</title>
<path fill="none" stroke="midnightblue" d="M1384.05,-242.095C1431.65,-231.083 1518.47,-211.001 1575.41,-197.829"/>
<polygon fill="midnightblue" stroke="midnightblue" points="1576.37,-201.198 1585.33,-195.535 1574.8,-194.378 1576.37,-201.198"/>
</g>
<!-- Node32&#45;&gt;Node37 -->
<g id="edge132" class="edge"><title>Node32&#45;&gt;Node37</title>
<path fill="none" stroke="midnightblue" d="M1330,-239.412C1308.49,-227.954 1274.22,-209.696 1251.39,-197.531"/>
<polygon fill="midnightblue" stroke="midnightblue" points="1252.85,-194.342 1242.38,-192.729 1249.56,-200.52 1252.85,-194.342"/>
</g>
<!-- Node38 -->
<g id="node108" class="node"><title>Node38</title>
<polygon fill="white" stroke="#bfbfbf" points="1449.37,-174.5 1449.37,-195.5 1498.37,-195.5 1498.37,-174.5 1449.37,-174.5"/>
<text text-anchor="middle" x="1473.87" y="-182.5" font-family="Helvetica,sans-Serif" font-size="10.00">cassert</text>
</g>
<!-- Node32&#45;&gt;Node38 -->
<g id="edge138" class="edge"><title>Node32&#45;&gt;Node38</title>
<path fill="none" stroke="midnightblue" d="M1370.07,-239.412C1390.33,-228.788 1421.76,-212.318 1444.72,-200.28"/>
<polygon fill="midnightblue" stroke="midnightblue" points="1446.45,-203.326 1453.68,-195.584 1443.2,-197.126 1446.45,-203.326"/>
</g>
<!-- Node39 -->
<g id="node110" class="node"><title>Node39</title>
<polygon fill="white" stroke="#bfbfbf" points="1515.37,-174.5 1515.37,-195.5 1566.37,-195.5 1566.37,-174.5 1515.37,-174.5"/>
<text text-anchor="middle" x="1540.87" y="-182.5" font-family="Helvetica,sans-Serif" font-size="10.00">numeric</text>
</g>
<!-- Node32&#45;&gt;Node39 -->
<g id="edge140" class="edge"><title>Node32&#45;&gt;Node39</title>
<path fill="none" stroke="midnightblue" d="M1380.98,-239.412C1415.19,-227.772 1470.02,-209.112 1505.74,-196.954"/>
<polygon fill="midnightblue" stroke="midnightblue" points="1506.94,-200.244 1515.28,-193.709 1504.69,-193.617 1506.94,-200.244"/>
</g>
<!-- Node35 -->
<g id="node99" class="node"><title>Node35</title>
<polygon fill="white" stroke="#bfbfbf" points="1559.37,-116.5 1559.37,-137.5 1608.37,-137.5 1608.37,-116.5 1559.37,-116.5"/>
<text text-anchor="middle" x="1583.87" y="-124.5" font-family="Helvetica,sans-Serif" font-size="10.00">cstddef</text>
</g>
<!-- Node34&#45;&gt;Node35 -->
<g id="edge126" class="edge"><title>Node34&#45;&gt;Node35</title>
<path fill="none" stroke="midnightblue" d="M1622.25,-174.362C1615.69,-166.268 1606.5,-154.932 1598.76,-145.38"/>
<polygon fill="midnightblue" stroke="midnightblue" points="1601.45,-143.136 1592.44,-137.571 1596.01,-147.544 1601.45,-143.136"/>
</g>
<!-- Node36 -->
<g id="node101" class="node"><title>Node36</title>
<polygon fill="white" stroke="#bfbfbf" points="1625.87,-116.5 1625.87,-137.5 1663.87,-137.5 1663.87,-116.5 1625.87,-116.5"/>
<text text-anchor="middle" x="1644.87" y="-124.5" font-family="Helvetica,sans-Serif" font-size="10.00">tuple</text>
</g>
<!-- Node34&#45;&gt;Node36 -->
<g id="edge128" class="edge"><title>Node34&#45;&gt;Node36</title>
<path fill="none" stroke="midnightblue" d="M1633.44,-174.362C1635.25,-166.84 1637.74,-156.519 1639.94,-147.431"/>
<polygon fill="midnightblue" stroke="midnightblue" points="1643.37,-148.113 1642.32,-137.571 1636.57,-146.47 1643.37,-148.113"/>
</g>
<!-- Node40&#45;&gt;Node9 -->
<g id="edge146" class="edge"><title>Node40&#45;&gt;Node9</title>
<path fill="none" stroke="midnightblue" d="M129.563,-362.405C96.2202,-347.265 40.6977,-315.869 20.8699,-268 0.460057,-218.726 56.1872,-168.767 90.7423,-143.636"/>
<polygon fill="midnightblue" stroke="midnightblue" points="92.8616,-146.424 99.0121,-137.797 88.8242,-140.706 92.8616,-146.424"/>
</g>
</g>
</svg>
