<?xml version="1.0" encoding="UTF-8" standalone="no"?>
<!DOCTYPE svg PUBLIC "-//W3C//DTD SVG 1.1//EN"
 "http://www.w3.org/Graphics/SVG/1.1/DTD/svg11.dtd">
<!-- Generated by graphviz version 2.26.3 (20100126.1600)
 -->
<!-- Title: src/calibration/fitfunctions/FitGausPol3.h Pages: 1 -->
<svg width="1074pt" height="116pt"
 viewBox="0.00 0.00 1074.00 116.00" xmlns="http://www.w3.org/2000/svg" xmlns:xlink="http://www.w3.org/1999/xlink">
<g id="graph1" class="graph" transform="scale(1 1) rotate(0) translate(4 112)">
<title>src/calibration/fitfunctions/FitGausPol3.h</title>
<polygon fill="white" stroke="white" points="-4,5 -4,-112 1071,-112 1071,5 -4,5"/>
<!-- Node18 -->
<g id="node1" class="node"><title>Node18</title>
<polygon fill="#bfbfbf" stroke="black" points="470,-73 470,-107 598,-107 598,-73 470,-73"/>
<text text-anchor="start" x="478" y="-94" font-family="Helvetica,sans-Serif" font-size="10.00">src/calibration/fitfunctions</text>
<text text-anchor="middle" x="534" y="-81" font-family="Helvetica,sans-Serif" font-size="10.00">/FitGausPol3.h</text>
</g>
<!-- Node19 -->
<g id="node3" class="node"><title>Node19</title>
<a xlink:href="_fit_gaus_pol3_8cc.html" target="_top" xlink:title="src/calibration/fitfunctions\l/FitGausPol3.cc">
<polygon fill="white" stroke="black" points="0,-1 0,-35 128,-35 128,-1 0,-1"/>
<text text-anchor="start" x="8" y="-22" font-family="Helvetica,sans-Serif" font-size="10.00">src/calibration/fitfunctions</text>
<text text-anchor="middle" x="64" y="-9" font-family="Helvetica,sans-Serif" font-size="10.00">/FitGausPol3.cc</text>
</a>
</g>
<!-- Node18&#45;&gt;Node19 -->
<g id="edge2" class="edge"><title>Node18&#45;&gt;Node19</title>
<path fill="none" stroke="midnightblue" d="M459.727,-82.2912C379.679,-73.4263 248.719,-57.3087 137,-36 134.051,-35.4375 131.043,-34.8308 128.009,-34.1923"/>
<polygon fill="midnightblue" stroke="midnightblue" points="459.391,-85.7753 469.713,-83.3887 460.156,-78.8172 459.391,-85.7753"/>
</g>
<!-- Node20 -->
<g id="node5" class="node"><title>Node20</title>
<a xlink:href="calibration_2modules_2_c_b___energy_8cc.html" target="_top" xlink:title="src/calibration/modules\l/CB_Energy.cc">
<polygon fill="white" stroke="black" points="145.5,-1 145.5,-35 262.5,-35 262.5,-1 145.5,-1"/>
<text text-anchor="start" x="153.5" y="-22" font-family="Helvetica,sans-Serif" font-size="10.00">src/calibration/modules</text>
<text text-anchor="middle" x="204" y="-9" font-family="Helvetica,sans-Serif" font-size="10.00">/CB_Energy.cc</text>
</a>
</g>
<!-- Node18&#45;&gt;Node20 -->
<g id="edge4" class="edge"><title>Node18&#45;&gt;Node20</title>
<path fill="none" stroke="midnightblue" d="M460.029,-76.0421C407.182,-65.7708 334.492,-51.0326 271,-36 268.304,-35.3618 265.552,-34.6929 262.776,-34.0041"/>
<polygon fill="midnightblue" stroke="midnightblue" points="459.508,-79.5062 469.991,-77.9712 460.839,-72.6339 459.508,-79.5062"/>
</g>
<!-- Node21 -->
<g id="node7" class="node"><title>Node21</title>
<a xlink:href="calibration_2modules_2_t_a_p_s___energy_8cc.html" target="_top" xlink:title="src/calibration/modules\l/TAPS_Energy.cc">
<polygon fill="white" stroke="black" points="279.5,-1 279.5,-35 396.5,-35 396.5,-1 279.5,-1"/>
<text text-anchor="start" x="287.5" y="-22" font-family="Helvetica,sans-Serif" font-size="10.00">src/calibration/modules</text>
<text text-anchor="middle" x="338" y="-9" font-family="Helvetica,sans-Serif" font-size="10.00">/TAPS_Energy.cc</text>
</a>
</g>
<!-- Node18&#45;&gt;Node21 -->
<g id="edge6" class="edge"><title>Node18&#45;&gt;Node21</title>
<path fill="none" stroke="midnightblue" d="M477.786,-69.3498C448.226,-58.4911 412.425,-45.3399 384.455,-35.0651"/>
<polygon fill="midnightblue" stroke="midnightblue" points="476.957,-72.7741 487.551,-72.937 479.371,-66.2034 476.957,-72.7741"/>
</g>
<!-- Node22 -->
<g id="node9" class="node"><title>Node22</title>
<a xlink:href="_setup__2007___base_8cc.html" target="_top" xlink:title="src/expconfig/setups\l/Setup_2007_Base.cc">
<polygon fill="white" stroke="black" points="413.5,-1 413.5,-35 526.5,-35 526.5,-1 413.5,-1"/>
<text text-anchor="start" x="421.5" y="-22" font-family="Helvetica,sans-Serif" font-size="10.00">src/expconfig/setups</text>
<text text-anchor="middle" x="470" y="-9" font-family="Helvetica,sans-Serif" font-size="10.00">/Setup_2007_Base.cc</text>
</a>
</g>
<!-- Node18&#45;&gt;Node22 -->
<g id="edge8" class="edge"><title>Node18&#45;&gt;Node22</title>
<path fill="none" stroke="midnightblue" d="M512.114,-65.3785C503.364,-55.5349 493.49,-44.4262 485.503,-35.4407"/>
<polygon fill="midnightblue" stroke="midnightblue" points="509.573,-67.7882 518.833,-72.937 514.805,-63.1376 509.573,-67.7882"/>
</g>
<!-- Node23 -->
<g id="node11" class="node"><title>Node23</title>
<a xlink:href="_setup__2014___e_p_t_8cc.html" target="_top" xlink:title="src/expconfig/setups\l/Setup_2014_EPT.cc">
<polygon fill="white" stroke="black" points="544,-1 544,-35 654,-35 654,-1 544,-1"/>
<text text-anchor="start" x="552" y="-22" font-family="Helvetica,sans-Serif" font-size="10.00">src/expconfig/setups</text>
<text text-anchor="middle" x="599" y="-9" font-family="Helvetica,sans-Serif" font-size="10.00">/Setup_2014_EPT.cc</text>
</a>
</g>
<!-- Node18&#45;&gt;Node23 -->
<g id="edge10" class="edge"><title>Node18&#45;&gt;Node23</title>
<path fill="none" stroke="midnightblue" d="M556.228,-65.3785C565.114,-55.5349 575.143,-44.4262 583.255,-35.4407"/>
<polygon fill="midnightblue" stroke="midnightblue" points="553.507,-63.1689 549.404,-72.937 558.703,-67.8597 553.507,-63.1689"/>
</g>
<!-- Node24 -->
<g id="node13" class="node"><title>Node24</title>
<a xlink:href="_setup__2015__01___pion_8cc.html" target="_top" xlink:title="src/expconfig/setups\l/Setup_2015_01_Pion.cc">
<polygon fill="white" stroke="black" points="671.5,-1 671.5,-35 796.5,-35 796.5,-1 671.5,-1"/>
<text text-anchor="start" x="679.5" y="-22" font-family="Helvetica,sans-Serif" font-size="10.00">src/expconfig/setups</text>
<text text-anchor="middle" x="734" y="-9" font-family="Helvetica,sans-Serif" font-size="10.00">/Setup_2015_01_Pion.cc</text>
</a>
</g>
<!-- Node18&#45;&gt;Node24 -->
<g id="edge12" class="edge"><title>Node18&#45;&gt;Node24</title>
<path fill="none" stroke="midnightblue" d="M590.968,-69.4913C621.207,-58.6055 657.932,-45.3846 686.597,-35.0651"/>
<polygon fill="midnightblue" stroke="midnightblue" points="589.621,-66.2566 581.397,-72.937 591.992,-72.8429 589.621,-66.2566"/>
</g>
<!-- Node25 -->
<g id="node15" class="node"><title>Node25</title>
<a xlink:href="_setup__2017__03_8cc.html" target="_top" xlink:title="src/expconfig/setups\l/Setup_2017_03.cc">
<polygon fill="white" stroke="black" points="813.5,-1 813.5,-35 920.5,-35 920.5,-1 813.5,-1"/>
<text text-anchor="start" x="821.5" y="-22" font-family="Helvetica,sans-Serif" font-size="10.00">src/expconfig/setups</text>
<text text-anchor="middle" x="867" y="-9" font-family="Helvetica,sans-Serif" font-size="10.00">/Setup_2017_03.cc</text>
</a>
</g>
<!-- Node18&#45;&gt;Node25 -->
<g id="edge14" class="edge"><title>Node18&#45;&gt;Node25</title>
<path fill="none" stroke="midnightblue" d="M608.085,-77.0128C662.77,-66.9967 738.863,-52.1583 805,-36 807.722,-35.335 810.504,-34.6282 813.307,-33.8941"/>
<polygon fill="midnightblue" stroke="midnightblue" points="607.342,-73.5906 598.131,-78.8262 608.596,-80.4773 607.342,-73.5906"/>
</g>
<!-- Node26 -->
<g id="node17" class="node"><title>Node26</title>
<a xlink:href="expconfig__helpers_8cc.html" target="_top" xlink:title="test/expconfig_helpers.cc">
<polygon fill="white" stroke="black" points="938,-7.5 938,-28.5 1066,-28.5 1066,-7.5 938,-7.5"/>
<text text-anchor="middle" x="1002" y="-15.5" font-family="Helvetica,sans-Serif" font-size="10.00">test/expconfig_helpers.cc</text>
</a>
</g>
<!-- Node18&#45;&gt;Node26 -->
<g id="edge16" class="edge"><title>Node18&#45;&gt;Node26</title>
<path fill="none" stroke="midnightblue" d="M608.248,-82.2255C687.924,-73.3299 818.004,-57.2097 929,-36 939.898,-33.9175 951.607,-31.2336 962.387,-28.5771"/>
<polygon fill="midnightblue" stroke="midnightblue" points="607.861,-78.747 598.307,-83.3271 608.632,-85.7044 607.861,-78.747"/>
</g>
</g>
</svg>
