<?xml version="1.0" encoding="UTF-8" standalone="no"?>
<!DOCTYPE svg PUBLIC "-//W3C//DTD SVG 1.1//EN"
 "http://www.w3.org/Graphics/SVG/1.1/DTD/svg11.dtd">
<!-- Generated by graphviz version 2.26.3 (20100126.1600)
 -->
<!-- Title: src/base/GitInfo.h Pages: 1 -->
<svg width="3144pt" height="316pt"
 viewBox="0.00 0.00 3144.00 316.00" xmlns="http://www.w3.org/2000/svg" xmlns:xlink="http://www.w3.org/1999/xlink">
<g id="graph1" class="graph" transform="scale(1 1) rotate(0) translate(4 312)">
<title>src/base/GitInfo.h</title>
<polygon fill="white" stroke="white" points="-4,5 -4,-312 3141,-312 3141,5 -4,5"/>
<!-- Node2 -->
<g id="node1" class="node"><title>Node2</title>
<polygon fill="#bfbfbf" stroke="black" points="713.5,-286.5 713.5,-307.5 808.5,-307.5 808.5,-286.5 713.5,-286.5"/>
<text text-anchor="middle" x="761" y="-294.5" font-family="Helvetica,sans-Serif" font-size="10.00">src/base/GitInfo.h</text>
</g>
<!-- Node3 -->
<g id="node3" class="node"><title>Node3</title>
<a xlink:href="_ant-calib_8cc.html" target="_top" xlink:title="progs/Ant&#45;calib.cc">
<polygon fill="white" stroke="black" points="93.5,-228.5 93.5,-249.5 188.5,-249.5 188.5,-228.5 93.5,-228.5"/>
<text text-anchor="middle" x="141" y="-236.5" font-family="Helvetica,sans-Serif" font-size="10.00">progs/Ant&#45;calib.cc</text>
</a>
</g>
<!-- Node2&#45;&gt;Node3 -->
<g id="edge2" class="edge"><title>Node2&#45;&gt;Node3</title>
<path fill="none" stroke="midnightblue" d="M703.297,-293.952C601.673,-288.182 384.264,-274.041 202,-250 197.626,-249.423 193.088,-248.749 188.551,-248.023"/>
<polygon fill="midnightblue" stroke="midnightblue" points="703.171,-297.45 713.352,-294.517 703.564,-290.461 703.171,-297.45"/>
</g>
<!-- Node4 -->
<g id="node5" class="node"><title>Node4</title>
<a xlink:href="_ant_8cc.html" target="_top" xlink:title="Main Ant executable. ">
<polygon fill="white" stroke="black" points="0,-79.5 0,-100.5 72,-100.5 72,-79.5 0,-79.5"/>
<text text-anchor="middle" x="36" y="-87.5" font-family="Helvetica,sans-Serif" font-size="10.00">progs/Ant.cc</text>
</a>
</g>
<!-- Node2&#45;&gt;Node4 -->
<g id="edge4" class="edge"><title>Node2&#45;&gt;Node4</title>
<path fill="none" stroke="midnightblue" d="M703.15,-291.098C604.003,-279.774 396.231,-250.734 230,-192 160.396,-167.407 84.8752,-121.511 52.3775,-100.723"/>
<polygon fill="midnightblue" stroke="midnightblue" points="702.933,-294.596 713.262,-292.234 703.715,-287.64 702.933,-294.596"/>
</g>
<!-- Node5 -->
<g id="node7" class="node"><title>Node5</title>
<a xlink:href="_git_info_8cc.html" target="_top" xlink:title="src/base/GitInfo.cc">
<polygon fill="white" stroke="black" points="1410,-228.5 1410,-249.5 1510,-249.5 1510,-228.5 1410,-228.5"/>
<text text-anchor="middle" x="1460" y="-236.5" font-family="Helvetica,sans-Serif" font-size="10.00">src/base/GitInfo.cc</text>
</a>
</g>
<!-- Node2&#45;&gt;Node5 -->
<g id="edge6" class="edge"><title>Node2&#45;&gt;Node5</title>
<path fill="none" stroke="midnightblue" d="M818.654,-294.913C931.067,-290.369 1187.25,-277.687 1401,-250 1403.89,-249.625 1406.86,-249.201 1409.85,-248.742"/>
<polygon fill="midnightblue" stroke="midnightblue" points="818.405,-291.42 808.552,-295.315 818.683,-298.414 818.405,-291.42"/>
</g>
<!-- Node6 -->
<g id="node9" class="node"><title>Node6</title>
<a xlink:href="_t_calibration_data_8h.html" target="_top" xlink:title="src/tree/TCalibrationData.h">
<polygon fill="white" stroke="black" points="1258,-228.5 1258,-249.5 1392,-249.5 1392,-228.5 1258,-228.5"/>
<text text-anchor="middle" x="1325" y="-236.5" font-family="Helvetica,sans-Serif" font-size="10.00">src/tree/TCalibrationData.h</text>
</a>
</g>
<!-- Node2&#45;&gt;Node6 -->
<g id="edge8" class="edge"><title>Node2&#45;&gt;Node6</title>
<path fill="none" stroke="midnightblue" d="M818.698,-291.066C923.758,-280.262 1145.72,-257.436 1257.57,-245.934"/>
<polygon fill="midnightblue" stroke="midnightblue" points="818.19,-287.6 808.6,-292.105 818.906,-294.564 818.19,-287.6"/>
</g>
<!-- Node7 -->
<g id="node11" class="node"><title>Node7</title>
<a xlink:href="_ant-calib-dump_8cc.html" target="_top" xlink:title="progs/Ant&#45;calib&#45;dump.cc">
<polygon fill="white" stroke="black" points="90,-79.5 90,-100.5 212,-100.5 212,-79.5 90,-79.5"/>
<text text-anchor="middle" x="151" y="-87.5" font-family="Helvetica,sans-Serif" font-size="10.00">progs/Ant&#45;calib&#45;dump.cc</text>
</a>
</g>
<!-- Node6&#45;&gt;Node7 -->
<g id="edge10" class="edge"><title>Node6&#45;&gt;Node7</title>
<path fill="none" stroke="midnightblue" d="M1247.72,-238.44C1021.91,-236.394 373.443,-227.464 285,-192 254.886,-179.925 255.659,-163.856 230,-144 209.241,-127.936 184.013,-111.131 167.741,-100.619"/>
<polygon fill="midnightblue" stroke="midnightblue" points="1247.8,-241.94 1257.83,-238.529 1247.86,-234.941 1247.8,-241.94"/>
</g>
<!-- Node8 -->
<g id="node13" class="node"><title>Node8</title>
<a xlink:href="_ant-calib-readin_8cc.html" target="_top" xlink:title="progs/Ant&#45;calib&#45;readin.cc">
<polygon fill="white" stroke="black" points="229.5,-79.5 229.5,-100.5 354.5,-100.5 354.5,-79.5 229.5,-79.5"/>
<text text-anchor="middle" x="292" y="-87.5" font-family="Helvetica,sans-Serif" font-size="10.00">progs/Ant&#45;calib&#45;readin.cc</text>
</a>
</g>
<!-- Node6&#45;&gt;Node8 -->
<g id="edge12" class="edge"><title>Node6&#45;&gt;Node8</title>
<path fill="none" stroke="midnightblue" d="M1247.66,-238.017C1016.77,-234.744 346.173,-222.631 311,-192 284.511,-168.932 287.352,-121.825 290.21,-100.685"/>
<polygon fill="midnightblue" stroke="midnightblue" points="1247.62,-241.517 1257.67,-238.158 1247.72,-234.518 1247.62,-241.517"/>
</g>
<!-- Node9 -->
<g id="node15" class="node"><title>Node9</title>
<a xlink:href="_ant-calib-regedit_8cc.html" target="_top" xlink:title="progs/Ant&#45;calib&#45;regedit.cc">
<polygon fill="white" stroke="black" points="470,-157.5 470,-178.5 598,-178.5 598,-157.5 470,-157.5"/>
<text text-anchor="middle" x="534" y="-165.5" font-family="Helvetica,sans-Serif" font-size="10.00">progs/Ant&#45;calib&#45;regedit.cc</text>
</a>
</g>
<!-- Node6&#45;&gt;Node9 -->
<g id="edge14" class="edge"><title>Node6&#45;&gt;Node9</title>
<path fill="none" stroke="midnightblue" d="M1247.81,-236.182C1089.35,-230.024 732.126,-214.128 612,-192 595.279,-188.92 577.096,-183.454 562.495,-178.516"/>
<polygon fill="midnightblue" stroke="midnightblue" points="1247.83,-239.685 1257.96,-236.573 1248.1,-232.69 1247.83,-239.685"/>
</g>
<!-- Node10 -->
<g id="node17" class="node"><title>Node10</title>
<a xlink:href="_ant-calib-smooth_8cc.html" target="_top" xlink:title="progs/Ant&#45;calib&#45;smooth.cc">
<polygon fill="white" stroke="black" points="525.5,-79.5 525.5,-100.5 656.5,-100.5 656.5,-79.5 525.5,-79.5"/>
<text text-anchor="middle" x="591" y="-87.5" font-family="Helvetica,sans-Serif" font-size="10.00">progs/Ant&#45;calib&#45;smooth.cc</text>
</a>
</g>
<!-- Node6&#45;&gt;Node10 -->
<g id="edge16" class="edge"><title>Node6&#45;&gt;Node10</title>
<path fill="none" stroke="midnightblue" d="M1247.4,-236.969C1084.92,-232.209 719.785,-218.665 670,-192 631.3,-171.273 605.551,-122.494 595.607,-100.767"/>
<polygon fill="midnightblue" stroke="midnightblue" points="1247.71,-240.48 1257.8,-237.27 1247.91,-233.483 1247.71,-240.48"/>
</g>
<!-- Node11 -->
<g id="node19" class="node"><title>Node11</title>
<a xlink:href="_ant-calib-viewer_8cc.html" target="_top" xlink:title="progs/Ant&#45;calib&#45;viewer.cc">
<polygon fill="white" stroke="black" points="673.5,-79.5 673.5,-100.5 800.5,-100.5 800.5,-79.5 673.5,-79.5"/>
<text text-anchor="middle" x="737" y="-87.5" font-family="Helvetica,sans-Serif" font-size="10.00">progs/Ant&#45;calib&#45;viewer.cc</text>
</a>
</g>
<!-- Node6&#45;&gt;Node11 -->
<g id="edge18" class="edge"><title>Node6&#45;&gt;Node11</title>
<path fill="none" stroke="midnightblue" d="M1247.63,-236.12C1081.07,-229.545 701.969,-212.408 683,-192 668.476,-176.374 674.836,-163.709 683,-144 690.611,-125.626 707.842,-110.245 720.807,-100.657"/>
<polygon fill="midnightblue" stroke="midnightblue" points="1247.68,-239.625 1257.81,-236.519 1247.96,-232.63 1247.68,-239.625"/>
</g>
<!-- Node12 -->
<g id="node21" class="node"><title>Node12</title>
<a xlink:href="_ant-_e_corr_8cc.html" target="_top" xlink:title="progs/Ant&#45;ECorr.cc">
<polygon fill="white" stroke="black" points="691.5,-157.5 691.5,-178.5 792.5,-178.5 792.5,-157.5 691.5,-157.5"/>
<text text-anchor="middle" x="742" y="-165.5" font-family="Helvetica,sans-Serif" font-size="10.00">progs/Ant&#45;ECorr.cc</text>
</a>
</g>
<!-- Node6&#45;&gt;Node12 -->
<g id="edge20" class="edge"><title>Node6&#45;&gt;Node12</title>
<path fill="none" stroke="midnightblue" d="M1247.45,-234.872C1122.81,-227.762 883.561,-212.02 801,-192 788.211,-188.899 774.564,-183.495 763.619,-178.599"/>
<polygon fill="midnightblue" stroke="midnightblue" points="1247.5,-238.38 1257.68,-235.451 1247.9,-231.392 1247.5,-238.38"/>
</g>
<!-- Node13 -->
<g id="node23" class="node"><title>Node13</title>
<a xlink:href="_ant-make_tagg_eff_8cc.html" target="_top" xlink:title="progs/Ant&#45;makeTaggEff.cc">
<polygon fill="white" stroke="black" points="810,-157.5 810,-178.5 944,-178.5 944,-157.5 810,-157.5"/>
<text text-anchor="middle" x="877" y="-165.5" font-family="Helvetica,sans-Serif" font-size="10.00">progs/Ant&#45;makeTaggEff.cc</text>
</a>
</g>
<!-- Node6&#45;&gt;Node13 -->
<g id="edge22" class="edge"><title>Node6&#45;&gt;Node13</title>
<path fill="none" stroke="midnightblue" d="M1247.46,-233.3C1171.72,-226.774 1053.51,-214.031 953,-192 937.322,-188.563 920.247,-183.314 906.261,-178.599"/>
<polygon fill="midnightblue" stroke="midnightblue" points="1247.6,-236.824 1257.86,-234.18 1248.19,-229.849 1247.6,-236.824"/>
</g>
<!-- Node14 -->
<g id="node25" class="node"><title>Node14</title>
<a xlink:href="_ant-mcsmearing_8cc.html" target="_top" xlink:title="progs/Ant&#45;mcsmearing.cc">
<polygon fill="white" stroke="black" points="962,-157.5 962,-178.5 1090,-178.5 1090,-157.5 962,-157.5"/>
<text text-anchor="middle" x="1026" y="-165.5" font-family="Helvetica,sans-Serif" font-size="10.00">progs/Ant&#45;mcsmearing.cc</text>
</a>
</g>
<!-- Node6&#45;&gt;Node14 -->
<g id="edge24" class="edge"><title>Node6&#45;&gt;Node14</title>
<path fill="none" stroke="midnightblue" d="M1258.8,-226.521C1214.7,-217.817 1155.6,-205.398 1104,-192 1088.78,-188.048 1072.09,-183.011 1058.07,-178.573"/>
<polygon fill="midnightblue" stroke="midnightblue" points="1258.33,-229.996 1268.82,-228.486 1259.68,-223.127 1258.33,-229.996"/>
</g>
<!-- Node15 -->
<g id="node27" class="node"><title>Node15</title>
<a xlink:href="_ant-smooth_tagg_eff_8cc.html" target="_top" xlink:title="progs/Ant&#45;smoothTaggEff.cc">
<polygon fill="white" stroke="black" points="818,-79.5 818,-100.5 960,-100.5 960,-79.5 818,-79.5"/>
<text text-anchor="middle" x="889" y="-87.5" font-family="Helvetica,sans-Serif" font-size="10.00">progs/Ant&#45;smoothTaggEff.cc</text>
</a>
</g>
<!-- Node6&#45;&gt;Node15 -->
<g id="edge26" class="edge"><title>Node6&#45;&gt;Node15</title>
<path fill="none" stroke="midnightblue" d="M1247.74,-231.28C1211.86,-224.903 1169.95,-213.26 1137,-192 1114.14,-177.247 1121.81,-158.83 1099,-144 1091.96,-139.422 992.638,-114.975 933.149,-100.592"/>
<polygon fill="midnightblue" stroke="midnightblue" points="1247.25,-234.747 1257.69,-232.943 1248.41,-227.842 1247.25,-234.747"/>
</g>
<!-- Node16 -->
<g id="node29" class="node"><title>Node16</title>
<a xlink:href="_ant-tuning-viewer_8cc.html" target="_top" xlink:title="progs/Ant&#45;tuning&#45;viewer.cc">
<polygon fill="white" stroke="black" points="1145.5,-157.5 1145.5,-178.5 1278.5,-178.5 1278.5,-157.5 1145.5,-157.5"/>
<text text-anchor="middle" x="1212" y="-165.5" font-family="Helvetica,sans-Serif" font-size="10.00">progs/Ant&#45;tuning&#45;viewer.cc</text>
</a>
</g>
<!-- Node6&#45;&gt;Node16 -->
<g id="edge28" class="edge"><title>Node6&#45;&gt;Node16</title>
<path fill="none" stroke="midnightblue" d="M1299.19,-222.781C1277.65,-209.246 1247.56,-190.343 1228.95,-178.652"/>
<polygon fill="midnightblue" stroke="midnightblue" points="1297.51,-225.86 1307.84,-228.217 1301.23,-219.933 1297.51,-225.86"/>
</g>
<!-- Node17 -->
<g id="node31" class="node"><title>Node17</title>
<a xlink:href="_data_base_8h.html" target="_top" xlink:title="src/calibration/DataBase.h">
<polygon fill="white" stroke="black" points="320,-157.5 320,-178.5 452,-178.5 452,-157.5 320,-157.5"/>
<text text-anchor="middle" x="386" y="-165.5" font-family="Helvetica,sans-Serif" font-size="10.00">src/calibration/DataBase.h</text>
</a>
</g>
<!-- Node6&#45;&gt;Node17 -->
<g id="edge30" class="edge"><title>Node6&#45;&gt;Node17</title>
<path fill="none" stroke="midnightblue" d="M1247.62,-237.318C1064.89,-232.938 610.711,-219.556 461,-192 444.866,-189.03 427.378,-183.571 413.35,-178.609"/>
<polygon fill="midnightblue" stroke="midnightblue" points="1247.61,-240.819 1257.69,-237.557 1247.78,-233.821 1247.61,-240.819"/>
</g>
<!-- Node19 -->
<g id="node41" class="node"><title>Node19</title>
<a xlink:href="_data_manager_8cc.html" target="_top" xlink:title="src/calibration/DataManager.cc">
<polygon fill="white" stroke="black" points="978,-79.5 978,-100.5 1130,-100.5 1130,-79.5 978,-79.5"/>
<text text-anchor="middle" x="1054" y="-87.5" font-family="Helvetica,sans-Serif" font-size="10.00">src/calibration/DataManager.cc</text>
</a>
</g>
<!-- Node6&#45;&gt;Node19 -->
<g id="edge50" class="edge"><title>Node6&#45;&gt;Node19</title>
<path fill="none" stroke="midnightblue" d="M1322.34,-218.161C1318.43,-196.416 1309.04,-162.91 1287,-144 1283.44,-140.95 1169.07,-115.356 1101.92,-100.524"/>
<polygon fill="midnightblue" stroke="midnightblue" points="1318.92,-218.977 1323.92,-228.32 1325.84,-217.901 1318.92,-218.977"/>
</g>
<!-- Node20 -->
<g id="node43" class="node"><title>Node20</title>
<a xlink:href="_test_data_manager_8cc.html" target="_top" xlink:title="test/calibration/TestData\lManager.cc">
<polygon fill="white" stroke="black" points="1148,-73 1148,-107 1272,-107 1272,-73 1148,-73"/>
<text text-anchor="start" x="1156" y="-94" font-family="Helvetica,sans-Serif" font-size="10.00">test/calibration/TestData</text>
<text text-anchor="middle" x="1210" y="-81" font-family="Helvetica,sans-Serif" font-size="10.00">Manager.cc</text>
</a>
</g>
<!-- Node6&#45;&gt;Node20 -->
<g id="edge94" class="edge"><title>Node6&#45;&gt;Node20</title>
<path fill="none" stroke="midnightblue" d="M1329.55,-218.325C1332.87,-197.731 1334.58,-166.081 1320,-144 1308.75,-126.956 1290.47,-115.101 1272.01,-106.941"/>
<polygon fill="midnightblue" stroke="midnightblue" points="1326.09,-217.763 1327.69,-228.238 1332.97,-219.055 1326.09,-217.763"/>
</g>
<!-- Node21 -->
<g id="node46" class="node"><title>Node21</title>
<a xlink:href="_editor_8h.html" target="_top" xlink:title="src/calibration/Editor.h">
<polygon fill="white" stroke="black" points="1372,-157.5 1372,-178.5 1486,-178.5 1486,-157.5 1372,-157.5"/>
<text text-anchor="middle" x="1429" y="-165.5" font-family="Helvetica,sans-Serif" font-size="10.00">src/calibration/Editor.h</text>
</a>
</g>
<!-- Node6&#45;&gt;Node21 -->
<g id="edge52" class="edge"><title>Node6&#45;&gt;Node21</title>
<path fill="none" stroke="midnightblue" d="M1349.29,-222.417C1369.08,-208.909 1396.42,-190.239 1413.4,-178.652"/>
<polygon fill="midnightblue" stroke="midnightblue" points="1347.08,-219.688 1340.8,-228.217 1351.03,-225.469 1347.08,-219.688"/>
</g>
<!-- Node28 -->
<g id="node63" class="node"><title>Node28</title>
<a xlink:href="_calib_type_8cc.html" target="_top" xlink:title="src/calibration/modules\l/CalibType.cc">
<polygon fill="white" stroke="black" points="1503.5,-151 1503.5,-185 1620.5,-185 1620.5,-151 1503.5,-151"/>
<text text-anchor="start" x="1511.5" y="-172" font-family="Helvetica,sans-Serif" font-size="10.00">src/calibration/modules</text>
<text text-anchor="middle" x="1562" y="-159" font-family="Helvetica,sans-Serif" font-size="10.00">/CalibType.cc</text>
</a>
</g>
<!-- Node6&#45;&gt;Node28 -->
<g id="edge72" class="edge"><title>Node6&#45;&gt;Node28</title>
<path fill="none" stroke="midnightblue" d="M1376.16,-225.916C1410.06,-216.987 1455.41,-204.543 1495,-192 1501.71,-189.873 1508.76,-187.503 1515.66,-185.104"/>
<polygon fill="midnightblue" stroke="midnightblue" points="1375.26,-222.534 1366.47,-228.454 1377.04,-229.305 1375.26,-222.534"/>
</g>
<!-- Node29 -->
<g id="node65" class="node"><title>Node29</title>
<a xlink:href="calibration_2modules_2_c_b___time_walk_8cc.html" target="_top" xlink:title="src/calibration/modules\l/CB_TimeWalk.cc">
<polygon fill="white" stroke="black" points="1637.5,-151 1637.5,-185 1754.5,-185 1754.5,-151 1637.5,-151"/>
<text text-anchor="start" x="1645.5" y="-172" font-family="Helvetica,sans-Serif" font-size="10.00">src/calibration/modules</text>
<text text-anchor="middle" x="1696" y="-159" font-family="Helvetica,sans-Serif" font-size="10.00">/CB_TimeWalk.cc</text>
</a>
</g>
<!-- Node6&#45;&gt;Node29 -->
<g id="edge74" class="edge"><title>Node6&#45;&gt;Node29</title>
<path fill="none" stroke="midnightblue" d="M1402.22,-227.435C1488.63,-214.439 1618.05,-194.782 1629,-192 1636.54,-190.084 1644.43,-187.658 1652.04,-185.088"/>
<polygon fill="midnightblue" stroke="midnightblue" points="1401.54,-223.999 1392.17,-228.946 1402.58,-230.921 1401.54,-223.999"/>
</g>
<!-- Node30 -->
<g id="node67" class="node"><title>Node30</title>
<a xlink:href="_cluster_correction_8cc.html" target="_top" xlink:title="src/calibration/modules\l/ClusterCorrection.cc">
<polygon fill="white" stroke="black" points="1771.5,-151 1771.5,-185 1888.5,-185 1888.5,-151 1771.5,-151"/>
<text text-anchor="start" x="1779.5" y="-172" font-family="Helvetica,sans-Serif" font-size="10.00">src/calibration/modules</text>
<text text-anchor="middle" x="1830" y="-159" font-family="Helvetica,sans-Serif" font-size="10.00">/ClusterCorrection.cc</text>
</a>
</g>
<!-- Node6&#45;&gt;Node30 -->
<g id="edge76" class="edge"><title>Node6&#45;&gt;Node30</title>
<path fill="none" stroke="midnightblue" d="M1402.38,-227.896C1563.34,-209.176 1608.5,-226.799 1763,-192 1770.96,-190.208 1779.26,-187.745 1787.21,-185.076"/>
<polygon fill="midnightblue" stroke="midnightblue" points="1401.63,-224.46 1392.12,-229.12 1402.46,-231.411 1401.63,-224.46"/>
</g>
<!-- Node31 -->
<g id="node69" class="node"><title>Node31</title>
<a xlink:href="_t_h2_storage_8cc.html" target="_top" xlink:title="src/calibration/modules\l/detail/TH2Storage.cc">
<polygon fill="white" stroke="black" points="1905.5,-151 1905.5,-185 2022.5,-185 2022.5,-151 1905.5,-151"/>
<text text-anchor="start" x="1913.5" y="-172" font-family="Helvetica,sans-Serif" font-size="10.00">src/calibration/modules</text>
<text text-anchor="middle" x="1964" y="-159" font-family="Helvetica,sans-Serif" font-size="10.00">/detail/TH2Storage.cc</text>
</a>
</g>
<!-- Node6&#45;&gt;Node31 -->
<g id="edge78" class="edge"><title>Node6&#45;&gt;Node31</title>
<path fill="none" stroke="midnightblue" d="M1402.37,-227.933C1622.59,-205.152 1684.02,-236.996 1897,-192 1905.22,-190.263 1913.8,-187.756 1921.97,-185.01"/>
<polygon fill="midnightblue" stroke="midnightblue" points="1401.68,-224.487 1392.1,-229.023 1402.42,-231.448 1401.68,-224.487"/>
</g>
<!-- Node32 -->
<g id="node71" class="node"><title>Node32</title>
<a xlink:href="_energy_8cc.html" target="_top" xlink:title="src/calibration/modules\l/Energy.cc">
<polygon fill="white" stroke="black" points="2039.5,-151 2039.5,-185 2156.5,-185 2156.5,-151 2039.5,-151"/>
<text text-anchor="start" x="2047.5" y="-172" font-family="Helvetica,sans-Serif" font-size="10.00">src/calibration/modules</text>
<text text-anchor="middle" x="2098" y="-159" font-family="Helvetica,sans-Serif" font-size="10.00">/Energy.cc</text>
</a>
</g>
<!-- Node6&#45;&gt;Node32 -->
<g id="edge80" class="edge"><title>Node6&#45;&gt;Node32</title>
<path fill="none" stroke="midnightblue" d="M1402.13,-227.976C1681.86,-200.997 1759.38,-247.208 2031,-192 2039.23,-190.326 2047.82,-187.849 2055.99,-185.112"/>
<polygon fill="midnightblue" stroke="midnightblue" points="1401.71,-224.501 1392.1,-228.967 1402.39,-231.467 1401.71,-224.501"/>
</g>
<!-- Node33 -->
<g id="node73" class="node"><title>Node33</title>
<a xlink:href="_energy___g_u_i_8cc.html" target="_top" xlink:title="src/calibration/modules\l/Energy_GUI.cc">
<polygon fill="white" stroke="black" points="2173.5,-151 2173.5,-185 2290.5,-185 2290.5,-151 2173.5,-151"/>
<text text-anchor="start" x="2181.5" y="-172" font-family="Helvetica,sans-Serif" font-size="10.00">src/calibration/modules</text>
<text text-anchor="middle" x="2232" y="-159" font-family="Helvetica,sans-Serif" font-size="10.00">/Energy_GUI.cc</text>
</a>
</g>
<!-- Node6&#45;&gt;Node33 -->
<g id="edge82" class="edge"><title>Node6&#45;&gt;Node33</title>
<path fill="none" stroke="midnightblue" d="M1402.2,-227.981C1741.21,-196.823 1834.8,-257.398 2165,-192 2173.36,-190.344 2182.09,-187.837 2190.37,-185.058"/>
<polygon fill="midnightblue" stroke="midnightblue" points="1401.72,-224.51 1392.09,-228.93 1402.38,-231.48 1401.72,-224.51"/>
</g>
<!-- Node34 -->
<g id="node75" class="node"><title>Node34</title>
<a xlink:href="calibration_2modules_2_p_i_d___phi_angle_8cc.html" target="_top" xlink:title="src/calibration/modules\l/PID_PhiAngle.cc">
<polygon fill="white" stroke="black" points="2307.5,-151 2307.5,-185 2424.5,-185 2424.5,-151 2307.5,-151"/>
<text text-anchor="start" x="2315.5" y="-172" font-family="Helvetica,sans-Serif" font-size="10.00">src/calibration/modules</text>
<text text-anchor="middle" x="2366" y="-159" font-family="Helvetica,sans-Serif" font-size="10.00">/PID_PhiAngle.cc</text>
</a>
</g>
<!-- Node6&#45;&gt;Node34 -->
<g id="edge84" class="edge"><title>Node6&#45;&gt;Node34</title>
<path fill="none" stroke="midnightblue" d="M1402.16,-227.993C1800.56,-192.608 1910.16,-267.595 2299,-192 2307.37,-190.373 2316.09,-187.88 2324.37,-185.105"/>
<polygon fill="midnightblue" stroke="midnightblue" points="1401.74,-224.516 1392.09,-228.904 1402.37,-231.488 1401.74,-224.516"/>
</g>
<!-- Node35 -->
<g id="node77" class="node"><title>Node35</title>
<a xlink:href="_tagg_eff_8cc.html" target="_top" xlink:title="src/calibration/modules\l/TaggEff.cc">
<polygon fill="white" stroke="black" points="2441.5,-151 2441.5,-185 2558.5,-185 2558.5,-151 2441.5,-151"/>
<text text-anchor="start" x="2449.5" y="-172" font-family="Helvetica,sans-Serif" font-size="10.00">src/calibration/modules</text>
<text text-anchor="middle" x="2500" y="-159" font-family="Helvetica,sans-Serif" font-size="10.00">/TaggEff.cc</text>
</a>
</g>
<!-- Node6&#45;&gt;Node35 -->
<g id="edge86" class="edge"><title>Node6&#45;&gt;Node35</title>
<path fill="none" stroke="midnightblue" d="M1402.38,-228.008C1645.86,-208.304 2210.82,-234.595 2433,-192 2441.49,-190.371 2450.35,-187.839 2458.74,-185.019"/>
<polygon fill="midnightblue" stroke="midnightblue" points="1401.76,-224.548 1392.09,-228.885 1402.35,-231.523 1401.76,-224.548"/>
</g>
<!-- Node36 -->
<g id="node79" class="node"><title>Node36</title>
<a xlink:href="_t_a_p_s___to_f_8cc.html" target="_top" xlink:title="src/calibration/modules\l/TAPS_ToF.cc">
<polygon fill="white" stroke="black" points="2575.5,-151 2575.5,-185 2692.5,-185 2692.5,-151 2575.5,-151"/>
<text text-anchor="start" x="2583.5" y="-172" font-family="Helvetica,sans-Serif" font-size="10.00">src/calibration/modules</text>
<text text-anchor="middle" x="2634" y="-159" font-family="Helvetica,sans-Serif" font-size="10.00">/TAPS_ToF.cc</text>
</a>
</g>
<!-- Node6&#45;&gt;Node36 -->
<g id="edge88" class="edge"><title>Node6&#45;&gt;Node36</title>
<path fill="none" stroke="midnightblue" d="M1402.45,-228.005C1675.76,-206.27 2315.54,-239.688 2567,-192 2575.5,-190.389 2584.36,-187.864 2592.75,-185.046"/>
<polygon fill="midnightblue" stroke="midnightblue" points="1401.76,-224.55 1392.09,-228.871 1402.35,-231.525 1401.76,-224.55"/>
</g>
<!-- Node37 -->
<g id="node81" class="node"><title>Node37</title>
<a xlink:href="calibration_2modules_2_time_8cc.html" target="_top" xlink:title="src/calibration/modules\l/Time.cc">
<polygon fill="white" stroke="black" points="2709.5,-151 2709.5,-185 2826.5,-185 2826.5,-151 2709.5,-151"/>
<text text-anchor="start" x="2717.5" y="-172" font-family="Helvetica,sans-Serif" font-size="10.00">src/calibration/modules</text>
<text text-anchor="middle" x="2768" y="-159" font-family="Helvetica,sans-Serif" font-size="10.00">/Time.cc</text>
</a>
</g>
<!-- Node6&#45;&gt;Node37 -->
<g id="edge90" class="edge"><title>Node6&#45;&gt;Node37</title>
<path fill="none" stroke="midnightblue" d="M1402.25,-228.022C1705.24,-204.194 2420.17,-244.796 2701,-192 2709.5,-190.402 2718.36,-187.883 2726.75,-185.067"/>
<polygon fill="midnightblue" stroke="midnightblue" points="1401.77,-224.55 1392.09,-228.859 1402.34,-231.526 1401.77,-224.55"/>
</g>
<!-- Node38 -->
<g id="node83" class="node"><title>Node38</title>
<a xlink:href="_two_pi0___m_c_smearing__tools_8cc.html" target="_top" xlink:title="src/root&#45;addons/analysis\l_codes/TwoPi0_MCSmearing\l_tools.cc">
<polygon fill="white" stroke="black" points="2844,-144.5 2844,-191.5 2990,-191.5 2990,-144.5 2844,-144.5"/>
<text text-anchor="start" x="2852" y="-178.5" font-family="Helvetica,sans-Serif" font-size="10.00">src/root&#45;addons/analysis</text>
<text text-anchor="start" x="2852" y="-165.5" font-family="Helvetica,sans-Serif" font-size="10.00">_codes/TwoPi0_MCSmearing</text>
<text text-anchor="middle" x="2917" y="-152.5" font-family="Helvetica,sans-Serif" font-size="10.00">_tools.cc</text>
</a>
</g>
<!-- Node6&#45;&gt;Node38 -->
<g id="edge92" class="edge"><title>Node6&#45;&gt;Node38</title>
<path fill="none" stroke="midnightblue" d="M1402.28,-228.018C1735.02,-201.934 2523.28,-240.68 2835,-192 2837.93,-191.542 2840.9,-191.01 2843.9,-190.416"/>
<polygon fill="midnightblue" stroke="midnightblue" points="1401.77,-224.548 1392.09,-228.85 1402.34,-231.525 1401.77,-224.548"/>
</g>
<!-- Node39 -->
<g id="node86" class="node"><title>Node39</title>
<a xlink:href="_test_t_calibration_data_8cc.html" target="_top" xlink:title="test/tree/TestTCalibration\lData.cc">
<polygon fill="white" stroke="black" points="3008,-151 3008,-185 3136,-185 3136,-151 3008,-151"/>
<text text-anchor="start" x="3016" y="-172" font-family="Helvetica,sans-Serif" font-size="10.00">test/tree/TestTCalibration</text>
<text text-anchor="middle" x="3072" y="-159" font-family="Helvetica,sans-Serif" font-size="10.00">Data.cc</text>
</a>
</g>
<!-- Node6&#45;&gt;Node39 -->
<g id="edge96" class="edge"><title>Node6&#45;&gt;Node39</title>
<path fill="none" stroke="midnightblue" d="M1402.32,-228.017C1771.51,-199.491 2652.17,-251.564 2999,-192 3008.2,-190.419 3017.83,-187.909 3026.97,-185.095"/>
<polygon fill="midnightblue" stroke="midnightblue" points="1401.77,-224.55 1392.09,-228.84 1402.33,-231.528 1401.77,-224.55"/>
</g>
<!-- Node17&#45;&gt;Node4 -->
<g id="edge42" class="edge"><title>Node17&#45;&gt;Node4</title>
<path fill="none" stroke="midnightblue" d="M309.861,-157.063C247.579,-147.157 157.6,-130.64 81,-108 74.0604,-105.949 66.705,-103.245 59.9962,-100.557"/>
<polygon fill="midnightblue" stroke="midnightblue" points="309.576,-160.561 319.998,-158.656 310.663,-153.646 309.576,-160.561"/>
</g>
<!-- Node17&#45;&gt;Node7 -->
<g id="edge32" class="edge"><title>Node17&#45;&gt;Node7</title>
<path fill="none" stroke="midnightblue" d="M344.618,-154.265C298.48,-138.951 224.853,-114.513 182.942,-100.602"/>
<polygon fill="midnightblue" stroke="midnightblue" points="343.713,-157.652 354.307,-157.481 345.919,-151.009 343.713,-157.652"/>
</g>
<!-- Node17&#45;&gt;Node8 -->
<g id="edge34" class="edge"><title>Node17&#45;&gt;Node8</title>
<path fill="none" stroke="midnightblue" d="M365.467,-150.962C346.978,-135.62 320.381,-113.55 304.777,-100.602"/>
<polygon fill="midnightblue" stroke="midnightblue" points="363.392,-153.788 373.323,-157.481 367.862,-148.401 363.392,-153.788"/>
</g>
<!-- Node17&#45;&gt;Node10 -->
<g id="edge36" class="edge"><title>Node17&#45;&gt;Node10</title>
<path fill="none" stroke="midnightblue" d="M423.117,-153.878C463.423,-138.542 526.882,-114.396 563.136,-100.602"/>
<polygon fill="midnightblue" stroke="midnightblue" points="421.749,-150.653 413.647,-157.481 424.238,-157.196 421.749,-150.653"/>
</g>
<!-- Node17&#45;&gt;Node11 -->
<g id="edge38" class="edge"><title>Node17&#45;&gt;Node11</title>
<path fill="none" stroke="midnightblue" d="M425.349,-154.307C436.759,-150.637 449.298,-146.891 461,-144 550.381,-121.92 574.952,-127.177 665,-108 675.334,-105.799 686.435,-103.162 696.751,-100.593"/>
<polygon fill="midnightblue" stroke="midnightblue" points="424.07,-151.043 415.662,-157.489 426.255,-157.694 424.07,-151.043"/>
</g>
<!-- Node17&#45;&gt;Node15 -->
<g id="edge40" class="edge"><title>Node17&#45;&gt;Node15</title>
<path fill="none" stroke="midnightblue" d="M423.674,-154.268C435.487,-150.418 448.664,-146.583 461,-144 613.192,-112.135 655.549,-133.11 809,-108 821.223,-106 834.377,-103.28 846.419,-100.561"/>
<polygon fill="midnightblue" stroke="midnightblue" points="422.485,-150.975 414.121,-157.479 424.715,-157.611 422.485,-150.975"/>
</g>
<!-- Node18 -->
<g id="node39" class="node"><title>Node18</title>
<a xlink:href="_data_base_8cc.html" target="_top" xlink:title="src/calibration/DataBase.cc">
<polygon fill="white" stroke="black" points="371.5,-79.5 371.5,-100.5 508.5,-100.5 508.5,-79.5 371.5,-79.5"/>
<text text-anchor="middle" x="440" y="-87.5" font-family="Helvetica,sans-Serif" font-size="10.00">src/calibration/DataBase.cc</text>
</a>
</g>
<!-- Node17&#45;&gt;Node18 -->
<g id="edge44" class="edge"><title>Node17&#45;&gt;Node18</title>
<path fill="none" stroke="midnightblue" d="M399.258,-148.849C409.781,-133.65 424.1,-112.967 432.66,-100.602"/>
<polygon fill="midnightblue" stroke="midnightblue" points="396.097,-147.266 393.283,-157.481 401.852,-151.251 396.097,-147.266"/>
</g>
<!-- Node17&#45;&gt;Node19 -->
<g id="edge46" class="edge"><title>Node17&#45;&gt;Node19</title>
<path fill="none" stroke="midnightblue" d="M423.325,-154.121C435.212,-150.226 448.519,-146.403 461,-144 683.261,-101.203 744.862,-139.521 969,-108 982.443,-106.109 996.94,-103.323 1010.09,-100.505"/>
<polygon fill="midnightblue" stroke="midnightblue" points="422.068,-150.851 413.723,-157.379 424.317,-157.48 422.068,-150.851"/>
</g>
<!-- Node17&#45;&gt;Node20 -->
<g id="edge48" class="edge"><title>Node17&#45;&gt;Node20</title>
<path fill="none" stroke="midnightblue" d="M423,-154.085C434.962,-150.149 448.393,-146.312 461,-144 757.808,-89.5682 840.661,-153.294 1139,-108 1141.89,-107.561 1144.84,-107.056 1147.8,-106.499"/>
<polygon fill="midnightblue" stroke="midnightblue" points="421.68,-150.837 413.349,-157.382 423.943,-157.461 421.68,-150.837"/>
</g>
<!-- Node22 -->
<g id="node48" class="node"><title>Node22</title>
<a xlink:href="_editor_8cc.html" target="_top" xlink:title="src/calibration/Editor.cc">
<polygon fill="white" stroke="black" points="1289.5,-79.5 1289.5,-100.5 1408.5,-100.5 1408.5,-79.5 1289.5,-79.5"/>
<text text-anchor="middle" x="1349" y="-87.5" font-family="Helvetica,sans-Serif" font-size="10.00">src/calibration/Editor.cc</text>
</a>
</g>
<!-- Node21&#45;&gt;Node22 -->
<g id="edge54" class="edge"><title>Node21&#45;&gt;Node22</title>
<path fill="none" stroke="midnightblue" d="M1410.67,-150.126C1394.98,-134.827 1372.91,-113.317 1359.87,-100.602"/>
<polygon fill="midnightblue" stroke="midnightblue" points="1408.61,-153.006 1418.21,-157.481 1413.49,-147.994 1408.61,-153.006"/>
</g>
<!-- Node23 -->
<g id="node50" class="node"><title>Node23</title>
<a xlink:href="_editor_canvas_8h.html" target="_top" xlink:title="src/calibration/gui\l/EditorCanvas.h">
<polygon fill="white" stroke="black" points="1463.5,-73 1463.5,-107 1556.5,-107 1556.5,-73 1463.5,-73"/>
<text text-anchor="start" x="1471.5" y="-94" font-family="Helvetica,sans-Serif" font-size="10.00">src/calibration/gui</text>
<text text-anchor="middle" x="1510" y="-81" font-family="Helvetica,sans-Serif" font-size="10.00">/EditorCanvas.h</text>
</a>
</g>
<!-- Node21&#45;&gt;Node23 -->
<g id="edge56" class="edge"><title>Node21&#45;&gt;Node23</title>
<path fill="none" stroke="midnightblue" d="M1447.21,-150.468C1460.63,-137.544 1478.79,-120.05 1492.13,-107.203"/>
<polygon fill="midnightblue" stroke="midnightblue" points="1444.7,-148.023 1439.92,-157.481 1449.56,-153.065 1444.7,-148.023"/>
</g>
<!-- Node24 -->
<g id="node52" class="node"><title>Node24</title>
<a xlink:href="_editor_canvas_8cc.html" target="_top" xlink:title="src/calibration/gui\l/EditorCanvas.cc">
<polygon fill="white" stroke="black" points="1425.5,-1 1425.5,-35 1518.5,-35 1518.5,-1 1425.5,-1"/>
<text text-anchor="start" x="1433.5" y="-22" font-family="Helvetica,sans-Serif" font-size="10.00">src/calibration/gui</text>
<text text-anchor="middle" x="1472" y="-9" font-family="Helvetica,sans-Serif" font-size="10.00">/EditorCanvas.cc</text>
</a>
</g>
<!-- Node21&#45;&gt;Node24 -->
<g id="edge62" class="edge"><title>Node21&#45;&gt;Node24</title>
<path fill="none" stroke="midnightblue" d="M1434.32,-147.412C1439.41,-127.926 1447.42,-97.887 1455,-72 1458.59,-59.7373 1462.92,-46.0037 1466.31,-35.4554"/>
<polygon fill="midnightblue" stroke="midnightblue" points="1430.87,-146.747 1431.75,-157.306 1437.65,-148.509 1430.87,-146.747"/>
</g>
<!-- Node26 -->
<g id="node57" class="node"><title>Node26</title>
<a xlink:href="_editor_window_8h.html" target="_top" xlink:title="src/calibration/gui\l/EditorWindow.h">
<polygon fill="white" stroke="black" points="1573.5,-73 1573.5,-107 1666.5,-107 1666.5,-73 1573.5,-73"/>
<text text-anchor="start" x="1581.5" y="-94" font-family="Helvetica,sans-Serif" font-size="10.00">src/calibration/gui</text>
<text text-anchor="middle" x="1620" y="-81" font-family="Helvetica,sans-Serif" font-size="10.00">/EditorWindow.h</text>
</a>
</g>
<!-- Node21&#45;&gt;Node26 -->
<g id="edge64" class="edge"><title>Node21&#45;&gt;Node26</title>
<path fill="none" stroke="midnightblue" d="M1464.23,-153.614C1496.44,-140.46 1544.12,-120.988 1578.24,-107.055"/>
<polygon fill="midnightblue" stroke="midnightblue" points="1462.69,-150.46 1454.76,-157.481 1465.34,-156.94 1462.69,-150.46"/>
</g>
<!-- Node23&#45;&gt;Node24 -->
<g id="edge58" class="edge"><title>Node23&#45;&gt;Node24</title>
<path fill="none" stroke="midnightblue" d="M1496.23,-63.9077C1491.23,-54.4402 1485.71,-43.9813 1481.2,-35.4407"/>
<polygon fill="midnightblue" stroke="midnightblue" points="1493.23,-65.7268 1500.99,-72.937 1499.42,-62.4595 1493.23,-65.7268"/>
</g>
<!-- Node25 -->
<g id="node54" class="node"><title>Node25</title>
<a xlink:href="_editor_window_8cc.html" target="_top" xlink:title="src/calibration/gui\l/EditorWindow.cc">
<polygon fill="white" stroke="black" points="1536,-1 1536,-35 1630,-35 1630,-1 1536,-1"/>
<text text-anchor="start" x="1544" y="-22" font-family="Helvetica,sans-Serif" font-size="10.00">src/calibration/gui</text>
<text text-anchor="middle" x="1583" y="-9" font-family="Helvetica,sans-Serif" font-size="10.00">/EditorWindow.cc</text>
</a>
</g>
<!-- Node23&#45;&gt;Node25 -->
<g id="edge60" class="edge"><title>Node23&#45;&gt;Node25</title>
<path fill="none" stroke="midnightblue" d="M1534.43,-65.9083C1544.63,-55.8438 1556.25,-44.3799 1565.57,-35.19"/>
<polygon fill="midnightblue" stroke="midnightblue" points="1531.96,-63.4229 1527.3,-72.937 1536.88,-68.4067 1531.96,-63.4229"/>
</g>
<!-- Node26&#45;&gt;Node24 -->
<g id="edge68" class="edge"><title>Node26&#45;&gt;Node24</title>
<path fill="none" stroke="midnightblue" d="M1575.8,-68.4954C1553.83,-57.8069 1527.65,-45.0718 1507.08,-35.0651"/>
<polygon fill="midnightblue" stroke="midnightblue" points="1574.4,-71.7096 1584.93,-72.937 1577.46,-65.415 1574.4,-71.7096"/>
</g>
<!-- Node26&#45;&gt;Node25 -->
<g id="edge70" class="edge"><title>Node26&#45;&gt;Node25</title>
<path fill="none" stroke="midnightblue" d="M1606.59,-63.9077C1601.73,-54.4402 1596.35,-43.9813 1591.96,-35.4407"/>
<polygon fill="midnightblue" stroke="midnightblue" points="1603.55,-65.6424 1611.23,-72.937 1609.77,-62.4429 1603.55,-65.6424"/>
</g>
<!-- Node27 -->
<g id="node59" class="node"><title>Node27</title>
<a xlink:href="_ant-calib-editor_8cc.html" target="_top" xlink:title="progs/Ant&#45;calib&#45;editor.cc">
<polygon fill="white" stroke="black" points="1648,-7.5 1648,-28.5 1770,-28.5 1770,-7.5 1648,-7.5"/>
<text text-anchor="middle" x="1709" y="-15.5" font-family="Helvetica,sans-Serif" font-size="10.00">progs/Ant&#45;calib&#45;editor.cc</text>
</a>
</g>
<!-- Node26&#45;&gt;Node27 -->
<g id="edge66" class="edge"><title>Node26&#45;&gt;Node27</title>
<path fill="none" stroke="midnightblue" d="M1649.02,-66.527C1664.78,-53.7747 1683.5,-38.6265 1695.79,-28.688"/>
<polygon fill="midnightblue" stroke="midnightblue" points="1646.66,-63.9264 1641.09,-72.937 1651.07,-69.3686 1646.66,-63.9264"/>
</g>
</g>
</svg>
