<?xml version="1.0" encoding="UTF-8" standalone="no"?>
<!DOCTYPE svg PUBLIC "-//W3C//DTD SVG 1.1//EN"
 "http://www.w3.org/Graphics/SVG/1.1/DTD/svg11.dtd">
<!-- Generated by graphviz version 2.26.3 (20100126.1600)
 -->
<!-- Title: src/analysis/input/goat/GoatReader.h Pages: 1 -->
<svg width="530pt" height="116pt"
 viewBox="0.00 0.00 530.00 116.00" xmlns="http://www.w3.org/2000/svg" xmlns:xlink="http://www.w3.org/1999/xlink">
<g id="graph1" class="graph" transform="scale(1 1) rotate(0) translate(4 112)">
<title>src/analysis/input/goat/GoatReader.h</title>
<polygon fill="white" stroke="white" points="-4,5 -4,-112 527,-112 527,5 -4,5"/>
<!-- Node14 -->
<g id="node1" class="node"><title>Node14</title>
<polygon fill="#bfbfbf" stroke="black" points="167,-73 167,-107 269,-107 269,-73 167,-73"/>
<text text-anchor="start" x="175" y="-94" font-family="Helvetica,sans-Serif" font-size="10.00">src/analysis/input</text>
<text text-anchor="middle" x="218" y="-81" font-family="Helvetica,sans-Serif" font-size="10.00">/goat/GoatReader.h</text>
</g>
<!-- Node15 -->
<g id="node3" class="node"><title>Node15</title>
<a xlink:href="_ant_8cc.html" target="_top" xlink:title="Main Ant executable. ">
<polygon fill="white" stroke="black" points="0,-7.5 0,-28.5 72,-28.5 72,-7.5 0,-7.5"/>
<text text-anchor="middle" x="36" y="-15.5" font-family="Helvetica,sans-Serif" font-size="10.00">progs/Ant.cc</text>
</a>
</g>
<!-- Node14&#45;&gt;Node15 -->
<g id="edge2" class="edge"><title>Node14&#45;&gt;Node15</title>
<path fill="none" stroke="midnightblue" d="M165.02,-69.1894C139.596,-59.1841 108.706,-47.0015 81,-36 75.0565,-33.64 68.6759,-31.0948 62.6416,-28.6824"/>
<polygon fill="midnightblue" stroke="midnightblue" points="163.892,-72.5065 174.479,-72.9104 166.455,-65.9925 163.892,-72.5065"/>
</g>
<!-- Node16 -->
<g id="node5" class="node"><title>Node16</title>
<a xlink:href="_goat_reader_8cc.html" target="_top" xlink:title="src/analysis/input\l/goat/GoatReader.cc">
<polygon fill="white" stroke="black" points="89.5,-1 89.5,-35 196.5,-35 196.5,-1 89.5,-1"/>
<text text-anchor="start" x="97.5" y="-22" font-family="Helvetica,sans-Serif" font-size="10.00">src/analysis/input</text>
<text text-anchor="middle" x="143" y="-9" font-family="Helvetica,sans-Serif" font-size="10.00">/goat/GoatReader.cc</text>
</a>
</g>
<!-- Node14&#45;&gt;Node16 -->
<g id="edge4" class="edge"><title>Node14&#45;&gt;Node16</title>
<path fill="none" stroke="midnightblue" d="M192.905,-65.9083C182.421,-55.8438 170.479,-44.3799 160.906,-35.19"/>
<polygon fill="midnightblue" stroke="midnightblue" points="190.588,-68.5365 200.226,-72.937 195.436,-63.4868 190.588,-68.5365"/>
</g>
<!-- Node17 -->
<g id="node7" class="node"><title>Node17</title>
<a xlink:href="_test_goat_reader_8cc.html" target="_top" xlink:title="test/analysis/TestGoatReader.cc">
<polygon fill="white" stroke="black" points="213.5,-7.5 213.5,-28.5 374.5,-28.5 374.5,-7.5 213.5,-7.5"/>
<text text-anchor="middle" x="294" y="-15.5" font-family="Helvetica,sans-Serif" font-size="10.00">test/analysis/TestGoatReader.cc</text>
</a>
</g>
<!-- Node14&#45;&gt;Node17 -->
<g id="edge6" class="edge"><title>Node14&#45;&gt;Node17</title>
<path fill="none" stroke="midnightblue" d="M243.473,-65.8677C256.689,-53.3471 272.182,-38.67 282.493,-28.901"/>
<polygon fill="midnightblue" stroke="midnightblue" points="240.863,-63.5187 236.011,-72.937 245.678,-68.6004 240.863,-63.5187"/>
</g>
<!-- Node18 -->
<g id="node9" class="node"><title>Node18</title>
<a xlink:href="_test_physics_manager_8cc.html" target="_top" xlink:title="test/analysis/TestPhysics\lManager.cc">
<polygon fill="white" stroke="black" points="392,-1 392,-35 522,-35 522,-1 392,-1"/>
<text text-anchor="start" x="400" y="-22" font-family="Helvetica,sans-Serif" font-size="10.00">test/analysis/TestPhysics</text>
<text text-anchor="middle" x="457" y="-9" font-family="Helvetica,sans-Serif" font-size="10.00">Manager.cc</text>
</a>
</g>
<!-- Node14&#45;&gt;Node18 -->
<g id="edge8" class="edge"><title>Node14&#45;&gt;Node18</title>
<path fill="none" stroke="midnightblue" d="M279.029,-71.6147C316.386,-60.3608 363.859,-46.0592 400.378,-35.0576"/>
<polygon fill="midnightblue" stroke="midnightblue" points="277.837,-68.3184 269.271,-74.5542 279.856,-75.0209 277.837,-68.3184"/>
</g>
</g>
</svg>
