<?xml version="1.0" encoding="UTF-8" standalone="no"?>
<!DOCTYPE svg PUBLIC "-//W3C//DTD SVG 1.1//EN"
 "http://www.w3.org/Graphics/SVG/1.1/DTD/svg11.dtd">
<!-- Generated by graphviz version 2.26.3 (20100126.1600)
 -->
<!-- Title: src/analysis/plot/HistStyle.h Pages: 1 -->
<svg width="2158pt" height="258pt"
 viewBox="0.00 0.00 2158.00 258.00" xmlns="http://www.w3.org/2000/svg" xmlns:xlink="http://www.w3.org/1999/xlink">
<g id="graph1" class="graph" transform="scale(1 1) rotate(0) translate(4 254)">
<title>src/analysis/plot/HistStyle.h</title>
<polygon fill="white" stroke="white" points="-4,5 -4,-254 2155,-254 2155,5 -4,5"/>
<!-- Node4 -->
<g id="node1" class="node"><title>Node4</title>
<polygon fill="#bfbfbf" stroke="black" points="1403,-228.5 1403,-249.5 1543,-249.5 1543,-228.5 1403,-228.5"/>
<text text-anchor="middle" x="1473" y="-236.5" font-family="Helvetica,sans-Serif" font-size="10.00">src/analysis/plot/HistStyle.h</text>
</g>
<!-- Node5 -->
<g id="node3" class="node"><title>Node5</title>
<a xlink:href="_m_c_clustering_check_8cc.html" target="_top" xlink:title="src/analysis/physics\l/check/MCClusteringCheck.cc">
<polygon fill="white" stroke="black" points="1689.5,-7 1689.5,-41 1840.5,-41 1840.5,-7 1689.5,-7"/>
<text text-anchor="start" x="1697.5" y="-28" font-family="Helvetica,sans-Serif" font-size="10.00">src/analysis/physics</text>
<text text-anchor="middle" x="1765" y="-15" font-family="Helvetica,sans-Serif" font-size="10.00">/check/MCClusteringCheck.cc</text>
</a>
</g>
<!-- Node4&#45;&gt;Node5 -->
<g id="edge2" class="edge"><title>Node4&#45;&gt;Node5</title>
<path fill="none" stroke="midnightblue" d="M1504.08,-224.023C1544.4,-205.231 1617.35,-173.365 1683,-156 1738.11,-141.422 1899.62,-163.047 1937,-120 1971.7,-80.0401 1901.59,-53.3117 1840.72,-38.4198"/>
<polygon fill="midnightblue" stroke="midnightblue" points="1502.36,-220.967 1494.8,-228.39 1505.34,-227.301 1502.36,-220.967"/>
</g>
<!-- Node6 -->
<g id="node5" class="node"><title>Node6</title>
<a xlink:href="_m_c_gun_check_8cc.html" target="_top" xlink:title="src/analysis/physics\l/check/MCGunCheck.cc">
<polygon fill="white" stroke="black" points="1691.5,-157 1691.5,-191 1816.5,-191 1816.5,-157 1691.5,-157"/>
<text text-anchor="start" x="1699.5" y="-178" font-family="Helvetica,sans-Serif" font-size="10.00">src/analysis/physics</text>
<text text-anchor="middle" x="1754" y="-165" font-family="Helvetica,sans-Serif" font-size="10.00">/check/MCGunCheck.cc</text>
</a>
</g>
<!-- Node4&#45;&gt;Node6 -->
<g id="edge4" class="edge"><title>Node4&#45;&gt;Node6</title>
<path fill="none" stroke="midnightblue" d="M1529.28,-226.211C1570.48,-216.821 1627.74,-203.714 1678,-192 1682.36,-190.984 1686.86,-189.932 1691.38,-188.868"/>
<polygon fill="midnightblue" stroke="midnightblue" points="1528.4,-222.821 1519.43,-228.455 1529.96,-229.647 1528.4,-222.821"/>
</g>
<!-- Node7 -->
<g id="node7" class="node"><title>Node7</title>
<a xlink:href="_m_c_photon_pair_check_8cc.html" target="_top" xlink:title="src/analysis/physics\l/check/MCPhotonPairCheck.cc">
<polygon fill="white" stroke="black" points="1833.5,-157 1833.5,-191 1988.5,-191 1988.5,-157 1833.5,-157"/>
<text text-anchor="start" x="1841.5" y="-178" font-family="Helvetica,sans-Serif" font-size="10.00">src/analysis/physics</text>
<text text-anchor="middle" x="1911" y="-165" font-family="Helvetica,sans-Serif" font-size="10.00">/check/MCPhotonPairCheck.cc</text>
</a>
</g>
<!-- Node4&#45;&gt;Node7 -->
<g id="edge6" class="edge"><title>Node4&#45;&gt;Node7</title>
<path fill="none" stroke="midnightblue" d="M1553.31,-229.983C1624.82,-221.548 1732.18,-207.888 1825,-192 1827.71,-191.537 1830.46,-191.05 1833.23,-190.544"/>
<polygon fill="midnightblue" stroke="midnightblue" points="1552.55,-226.548 1543.02,-231.189 1553.36,-233.501 1552.55,-226.548"/>
</g>
<!-- Node8 -->
<g id="node9" class="node"><title>Node8</title>
<a xlink:href="_m_c_reconstruct_check_8cc.html" target="_top" xlink:title="src/analysis/physics\l/check/MCReconstructCheck.cc">
<polygon fill="white" stroke="black" points="742,-85 742,-119 902,-119 902,-85 742,-85"/>
<text text-anchor="start" x="750" y="-106" font-family="Helvetica,sans-Serif" font-size="10.00">src/analysis/physics</text>
<text text-anchor="middle" x="822" y="-93" font-family="Helvetica,sans-Serif" font-size="10.00">/check/MCReconstructCheck.cc</text>
</a>
</g>
<!-- Node4&#45;&gt;Node8 -->
<g id="edge8" class="edge"><title>Node4&#45;&gt;Node8</title>
<path fill="none" stroke="midnightblue" d="M1399.89,-226.737C1347.69,-217.749 1275.87,-204.911 1213,-192 1099.9,-168.775 969.349,-137.896 891.353,-119.011"/>
<polygon fill="midnightblue" stroke="midnightblue" points="1399.61,-230.24 1410.06,-228.482 1400.79,-223.341 1399.61,-230.24"/>
</g>
<!-- Node9 -->
<g id="node11" class="node"><title>Node9</title>
<a xlink:href="physics_2tunings_2_trigger_simulation_8cc.html" target="_top" xlink:title="src/analysis/physics\l/tunings/TriggerSimulation.cc">
<polygon fill="white" stroke="black" points="-0.5,-7 -0.5,-41 142.5,-41 142.5,-7 -0.5,-7"/>
<text text-anchor="start" x="7.5" y="-28" font-family="Helvetica,sans-Serif" font-size="10.00">src/analysis/physics</text>
<text text-anchor="middle" x="71" y="-15" font-family="Helvetica,sans-Serif" font-size="10.00">/tunings/TriggerSimulation.cc</text>
</a>
</g>
<!-- Node4&#45;&gt;Node9 -->
<g id="edge10" class="edge"><title>Node4&#45;&gt;Node9</title>
<path fill="none" stroke="midnightblue" d="M1392.47,-235.71C1277.16,-230.313 1058.56,-217.528 874,-192 549.445,-147.107 468.938,-127.163 151,-48 142.698,-45.9329 133.974,-43.5439 125.462,-41.0911"/>
<polygon fill="midnightblue" stroke="midnightblue" points="1392.47,-239.214 1402.62,-236.179 1392.8,-232.221 1392.47,-239.214"/>
</g>
<!-- Node10 -->
<g id="node13" class="node"><title>Node10</title>
<a xlink:href="_cut_tree_8h.html" target="_top" xlink:title="src/analysis/plot/CutTree.h">
<polygon fill="white" stroke="black" points="590,-91.5 590,-112.5 724,-112.5 724,-91.5 590,-91.5"/>
<text text-anchor="middle" x="657" y="-99.5" font-family="Helvetica,sans-Serif" font-size="10.00">src/analysis/plot/CutTree.h</text>
</a>
</g>
<!-- Node4&#45;&gt;Node10 -->
<g id="edge12" class="edge"><title>Node4&#45;&gt;Node10</title>
<path fill="none" stroke="midnightblue" d="M1392.72,-232.926C1306.79,-225.778 1166.67,-212.252 1047,-192 905.83,-168.11 872.44,-152.499 733,-120 722.7,-117.599 711.621,-114.991 701.194,-112.523"/>
<polygon fill="midnightblue" stroke="midnightblue" points="1392.67,-236.434 1402.92,-233.767 1393.25,-229.458 1392.67,-236.434"/>
</g>
<!-- Node19 -->
<g id="node32" class="node"><title>Node19</title>
<a xlink:href="_hist_style_8cc.html" target="_top" xlink:title="src/analysis/plot/HistStyle.cc">
<polygon fill="white" stroke="black" points="2005.5,-163.5 2005.5,-184.5 2150.5,-184.5 2150.5,-163.5 2005.5,-163.5"/>
<text text-anchor="middle" x="2078" y="-171.5" font-family="Helvetica,sans-Serif" font-size="10.00">src/analysis/plot/HistStyle.cc</text>
</a>
</g>
<!-- Node4&#45;&gt;Node19 -->
<g id="edge32" class="edge"><title>Node4&#45;&gt;Node19</title>
<path fill="none" stroke="midnightblue" d="M1553.31,-235.028C1656.47,-229.186 1840.87,-216.246 1997,-192 2009.53,-190.055 2023.01,-187.32 2035.32,-184.568"/>
<polygon fill="midnightblue" stroke="midnightblue" points="1553.06,-231.536 1543.27,-235.588 1553.45,-238.525 1553.06,-231.536"/>
</g>
<!-- Node20 -->
<g id="node34" class="node"><title>Node20</title>
<a xlink:href="hstack_8h.html" target="_top" xlink:title="src/root&#45;addons/analysis\l_codes/hstack.h">
<polygon fill="white" stroke="black" points="1221.5,-157 1221.5,-191 1344.5,-191 1344.5,-157 1221.5,-157"/>
<text text-anchor="start" x="1229.5" y="-178" font-family="Helvetica,sans-Serif" font-size="10.00">src/root&#45;addons/analysis</text>
<text text-anchor="middle" x="1283" y="-165" font-family="Helvetica,sans-Serif" font-size="10.00">_codes/hstack.h</text>
</a>
</g>
<!-- Node4&#45;&gt;Node20 -->
<g id="edge34" class="edge"><title>Node4&#45;&gt;Node20</title>
<path fill="none" stroke="midnightblue" d="M1432.22,-225.047C1403.12,-215.094 1363.83,-201.652 1332.87,-191.06"/>
<polygon fill="midnightblue" stroke="midnightblue" points="1431.46,-228.487 1442.05,-228.412 1433.72,-221.863 1431.46,-228.487"/>
</g>
<!-- Node10&#45;&gt;Node9 -->
<g id="edge30" class="edge"><title>Node10&#45;&gt;Node9</title>
<path fill="none" stroke="midnightblue" d="M579.686,-98.2052C479.848,-92.2904 301.084,-78.2497 151,-48 141.761,-46.1378 132.055,-43.674 122.717,-41.0341"/>
<polygon fill="midnightblue" stroke="midnightblue" points="579.502,-101.7 589.688,-98.7862 579.908,-94.7121 579.502,-101.7"/>
</g>
<!-- Node11 -->
<g id="node15" class="node"><title>Node11</title>
<a xlink:href="_p_i_d_efficiency_check_8cc.html" target="_top" xlink:title="src/analysis/physics\l/check/PIDEfficiencyCheck.cc">
<polygon fill="white" stroke="black" points="1036,-7 1036,-41 1188,-41 1188,-7 1036,-7"/>
<text text-anchor="start" x="1044" y="-28" font-family="Helvetica,sans-Serif" font-size="10.00">src/analysis/physics</text>
<text text-anchor="middle" x="1112" y="-15" font-family="Helvetica,sans-Serif" font-size="10.00">/check/PIDEfficiencyCheck.cc</text>
</a>
</g>
<!-- Node10&#45;&gt;Node11 -->
<g id="edge14" class="edge"><title>Node10&#45;&gt;Node11</title>
<path fill="none" stroke="midnightblue" d="M707.606,-89.1918C716.053,-87.2908 724.75,-85.4774 733,-84 862.581,-60.7949 897.943,-73.9618 1027,-48 1036.47,-46.0948 1046.43,-43.6739 1056.06,-41.1064"/>
<polygon fill="midnightblue" stroke="midnightblue" points="706.801,-85.7855 697.847,-91.4487 708.378,-92.6055 706.801,-85.7855"/>
</g>
<!-- Node12 -->
<g id="node17" class="node"><title>Node12</title>
<a xlink:href="_meson_dalitz_decays__plot_8cc.html" target="_top" xlink:title="src/analysis/physics\l/common/MesonDalitzDecays\l_plot.cc">
<polygon fill="white" stroke="black" points="159.5,-0.5 159.5,-47.5 308.5,-47.5 308.5,-0.5 159.5,-0.5"/>
<text text-anchor="start" x="167.5" y="-34.5" font-family="Helvetica,sans-Serif" font-size="10.00">src/analysis/physics</text>
<text text-anchor="start" x="167.5" y="-21.5" font-family="Helvetica,sans-Serif" font-size="10.00">/common/MesonDalitzDecays</text>
<text text-anchor="middle" x="234" y="-8.5" font-family="Helvetica,sans-Serif" font-size="10.00">_plot.cc</text>
</a>
</g>
<!-- Node10&#45;&gt;Node12 -->
<g id="edge16" class="edge"><title>Node10&#45;&gt;Node12</title>
<path fill="none" stroke="midnightblue" d="M579.807,-92.5176C510.557,-83.3536 406.376,-67.9387 317,-48 314.218,-47.3795 311.392,-46.7188 308.544,-46.0275"/>
<polygon fill="midnightblue" stroke="midnightblue" points="579.394,-95.9934 589.765,-93.8241 580.305,-89.0529 579.394,-95.9934"/>
</g>
<!-- Node13 -->
<g id="node19" class="node"><title>Node13</title>
<a xlink:href="_etap_dalitz__plot_8cc.html" target="_top" xlink:title="src/analysis/physics\l/etaprime/EtapDalitz\l_plot.cc">
<polygon fill="white" stroke="black" points="326,-0.5 326,-47.5 432,-47.5 432,-0.5 326,-0.5"/>
<text text-anchor="start" x="334" y="-34.5" font-family="Helvetica,sans-Serif" font-size="10.00">src/analysis/physics</text>
<text text-anchor="start" x="334" y="-21.5" font-family="Helvetica,sans-Serif" font-size="10.00">/etaprime/EtapDalitz</text>
<text text-anchor="middle" x="379" y="-8.5" font-family="Helvetica,sans-Serif" font-size="10.00">_plot.cc</text>
</a>
</g>
<!-- Node10&#45;&gt;Node13 -->
<g id="edge18" class="edge"><title>Node10&#45;&gt;Node13</title>
<path fill="none" stroke="midnightblue" d="M597.721,-89.2731C554.007,-79.3833 493.299,-64.589 441,-48 438.139,-47.0927 435.22,-46.1221 432.284,-45.1104"/>
<polygon fill="midnightblue" stroke="midnightblue" points="597.092,-92.7187 607.615,-91.4934 598.624,-85.8886 597.092,-92.7187"/>
</g>
<!-- Node14 -->
<g id="node21" class="node"><title>Node14</title>
<a xlink:href="_etap_omega_g__plot_8cc.html" target="_top" xlink:title="src/analysis/physics\l/etaprime/EtapOmegaG\l_plot.cc">
<polygon fill="white" stroke="black" points="449.5,-0.5 449.5,-47.5 568.5,-47.5 568.5,-0.5 449.5,-0.5"/>
<text text-anchor="start" x="457.5" y="-34.5" font-family="Helvetica,sans-Serif" font-size="10.00">src/analysis/physics</text>
<text text-anchor="start" x="457.5" y="-21.5" font-family="Helvetica,sans-Serif" font-size="10.00">/etaprime/EtapOmegaG</text>
<text text-anchor="middle" x="509" y="-8.5" font-family="Helvetica,sans-Serif" font-size="10.00">_plot.cc</text>
</a>
</g>
<!-- Node10&#45;&gt;Node14 -->
<g id="edge20" class="edge"><title>Node10&#45;&gt;Node14</title>
<path fill="none" stroke="midnightblue" d="M627.939,-86.6841C606.829,-75.5584 577.865,-60.2937 553.805,-47.6134"/>
<polygon fill="midnightblue" stroke="midnightblue" points="626.562,-89.9144 637.04,-91.4806 629.825,-83.7218 626.562,-89.9144"/>
</g>
<!-- Node15 -->
<g id="node23" class="node"><title>Node15</title>
<a xlink:href="_omega___eta_g_8cc.html" target="_top" xlink:title="src/analysis/physics\l/omega/Omega_EtaG.cc">
<polygon fill="white" stroke="black" points="1205.5,-7 1205.5,-41 1330.5,-41 1330.5,-7 1205.5,-7"/>
<text text-anchor="start" x="1213.5" y="-28" font-family="Helvetica,sans-Serif" font-size="10.00">src/analysis/physics</text>
<text text-anchor="middle" x="1268" y="-15" font-family="Helvetica,sans-Serif" font-size="10.00">/omega/Omega_EtaG.cc</text>
</a>
</g>
<!-- Node10&#45;&gt;Node15 -->
<g id="edge22" class="edge"><title>Node10&#45;&gt;Node15</title>
<path fill="none" stroke="midnightblue" d="M706.088,-89.1998C714.996,-87.2127 724.24,-85.3688 733,-84 937.362,-52.0689 994.351,-89.4378 1197,-48 1205.54,-46.2535 1214.47,-43.7773 1223.01,-41.0729"/>
<polygon fill="midnightblue" stroke="midnightblue" points="705.168,-85.82 696.216,-91.4863 706.747,-92.6395 705.168,-85.82"/>
</g>
<!-- Node16 -->
<g id="node25" class="node"><title>Node16</title>
<a xlink:href="single_pi0_plots_8cc.html" target="_top" xlink:title="src/analysis/physics\l/production/singlePi0Plots.cc">
<polygon fill="white" stroke="black" points="585.5,-7 585.5,-41 728.5,-41 728.5,-7 585.5,-7"/>
<text text-anchor="start" x="593.5" y="-28" font-family="Helvetica,sans-Serif" font-size="10.00">src/analysis/physics</text>
<text text-anchor="middle" x="657" y="-15" font-family="Helvetica,sans-Serif" font-size="10.00">/production/singlePi0Plots.cc</text>
</a>
</g>
<!-- Node10&#45;&gt;Node16 -->
<g id="edge24" class="edge"><title>Node10&#45;&gt;Node16</title>
<path fill="none" stroke="midnightblue" d="M657,-81.1156C657,-68.6338 657,-52.9693 657,-41.2034"/>
<polygon fill="midnightblue" stroke="midnightblue" points="653.5,-81.4805 657,-91.4806 660.5,-81.4806 653.5,-81.4805"/>
</g>
<!-- Node17 -->
<g id="node27" class="node"><title>Node17</title>
<a xlink:href="triple_pi0_8cc.html" target="_top" xlink:title="src/analysis/physics\l/production/triplePi0.cc">
<polygon fill="white" stroke="black" points="746,-7 746,-41 862,-41 862,-7 746,-7"/>
<text text-anchor="start" x="754" y="-28" font-family="Helvetica,sans-Serif" font-size="10.00">src/analysis/physics</text>
<text text-anchor="middle" x="804" y="-15" font-family="Helvetica,sans-Serif" font-size="10.00">/production/triplePi0.cc</text>
</a>
</g>
<!-- Node10&#45;&gt;Node17 -->
<g id="edge26" class="edge"><title>Node10&#45;&gt;Node17</title>
<path fill="none" stroke="midnightblue" d="M685.731,-86.7551C710.479,-73.6233 746.166,-54.6873 771.858,-41.0549"/>
<polygon fill="midnightblue" stroke="midnightblue" points="684.018,-83.7016 676.825,-91.4806 687.299,-89.8851 684.018,-83.7016"/>
</g>
<!-- Node18 -->
<g id="node29" class="node"><title>Node18</title>
<a xlink:href="triple_pi0_plots_8cc.html" target="_top" xlink:title="src/analysis/physics\l/production/triplePi0Plots.cc">
<polygon fill="white" stroke="black" points="879.5,-7 879.5,-41 1018.5,-41 1018.5,-7 879.5,-7"/>
<text text-anchor="start" x="887.5" y="-28" font-family="Helvetica,sans-Serif" font-size="10.00">src/analysis/physics</text>
<text text-anchor="middle" x="949" y="-15" font-family="Helvetica,sans-Serif" font-size="10.00">/production/triplePi0Plots.cc</text>
</a>
</g>
<!-- Node10&#45;&gt;Node18 -->
<g id="edge28" class="edge"><title>Node10&#45;&gt;Node18</title>
<path fill="none" stroke="midnightblue" d="M711.22,-89.1328C754.602,-78.6419 816.911,-63.1349 871,-48 878.777,-45.8238 886.958,-43.4269 894.977,-41.0154"/>
<polygon fill="midnightblue" stroke="midnightblue" points="710.341,-85.7444 701.44,-91.4905 711.982,-92.5495 710.341,-85.7444"/>
</g>
<!-- Node20&#45;&gt;Node8 -->
<g id="edge44" class="edge"><title>Node20&#45;&gt;Node8</title>
<path fill="none" stroke="midnightblue" d="M1211.03,-164.345C1136.93,-154.184 1018.19,-137.294 916,-120 911.495,-119.238 906.873,-118.431 902.211,-117.599"/>
<polygon fill="midnightblue" stroke="midnightblue" points="1210.8,-167.846 1221.18,-165.733 1211.75,-160.91 1210.8,-167.846"/>
</g>
<!-- Node20&#45;&gt;Node10 -->
<g id="edge50" class="edge"><title>Node20&#45;&gt;Node10</title>
<path fill="none" stroke="midnightblue" d="M1210.99,-170.032C1105.53,-163.521 903.126,-148.366 733,-120 721.23,-118.038 708.572,-115.297 697.026,-112.546"/>
<polygon fill="midnightblue" stroke="midnightblue" points="1211,-173.539 1221.19,-170.654 1211.42,-166.552 1211,-173.539"/>
</g>
<!-- Node20&#45;&gt;Node15 -->
<g id="edge46" class="edge"><title>Node20&#45;&gt;Node15</title>
<path fill="none" stroke="midnightblue" d="M1211.06,-167.303C1118.01,-157.903 965.79,-139.723 949,-120 890.989,-51.8566 966.43,-103.219 1197,-48 1204.97,-46.0908 1213.32,-43.6678 1221.38,-41.0995"/>
<polygon fill="midnightblue" stroke="midnightblue" points="1210.96,-170.811 1221.26,-168.323 1211.66,-163.846 1210.96,-170.811"/>
</g>
<!-- Node21 -->
<g id="node36" class="node"><title>Node21</title>
<a xlink:href="_ant-mcdatabase-viewer_8cc.html" target="_top" xlink:title="progs/Ant&#45;mcdatabase\l&#45;viewer.cc">
<polygon fill="white" stroke="black" points="1665.5,-85 1665.5,-119 1780.5,-119 1780.5,-85 1665.5,-85"/>
<text text-anchor="start" x="1673.5" y="-106" font-family="Helvetica,sans-Serif" font-size="10.00">progs/Ant&#45;mcdatabase</text>
<text text-anchor="middle" x="1723" y="-93" font-family="Helvetica,sans-Serif" font-size="10.00">&#45;viewer.cc</text>
</a>
</g>
<!-- Node20&#45;&gt;Node21 -->
<g id="edge36" class="edge"><title>Node20&#45;&gt;Node21</title>
<path fill="none" stroke="midnightblue" d="M1354.98,-166.268C1430.63,-157.523 1552.86,-141.633 1657,-120 1659.67,-119.444 1662.4,-118.843 1665.15,-118.209"/>
<polygon fill="midnightblue" stroke="midnightblue" points="1354.16,-162.839 1344.62,-167.455 1354.96,-169.794 1354.16,-162.839"/>
</g>
<!-- Node22 -->
<g id="node38" class="node"><title>Node22</title>
<a xlink:href="process_etap_tree_8cc.html" target="_top" xlink:title="progs/processEtapTree.cc">
<polygon fill="white" stroke="black" points="1797.5,-91.5 1797.5,-112.5 1928.5,-112.5 1928.5,-91.5 1797.5,-91.5"/>
<text text-anchor="middle" x="1863" y="-99.5" font-family="Helvetica,sans-Serif" font-size="10.00">progs/processEtapTree.cc</text>
</a>
</g>
<!-- Node20&#45;&gt;Node22 -->
<g id="edge38" class="edge"><title>Node20&#45;&gt;Node22</title>
<path fill="none" stroke="midnightblue" d="M1354.64,-169.354C1453.06,-162.289 1635.38,-146.76 1789,-120 1800.46,-118.003 1812.79,-115.252 1824.03,-112.502"/>
<polygon fill="midnightblue" stroke="midnightblue" points="1354.23,-165.873 1344.51,-170.072 1354.73,-172.856 1354.23,-165.873"/>
</g>
<!-- Node23 -->
<g id="node40" class="node"><title>Node23</title>
<a xlink:href="_m_c_clustering_check_8h.html" target="_top" xlink:title="src/analysis/physics\l/check/MCClusteringCheck.h">
<polygon fill="white" stroke="black" points="1502,-85 1502,-119 1648,-119 1648,-85 1502,-85"/>
<text text-anchor="start" x="1510" y="-106" font-family="Helvetica,sans-Serif" font-size="10.00">src/analysis/physics</text>
<text text-anchor="middle" x="1575" y="-93" font-family="Helvetica,sans-Serif" font-size="10.00">/check/MCClusteringCheck.h</text>
</a>
</g>
<!-- Node20&#45;&gt;Node23 -->
<g id="edge40" class="edge"><title>Node20&#45;&gt;Node23</title>
<path fill="none" stroke="midnightblue" d="M1354.49,-156.373C1400.58,-145.008 1460.21,-130.304 1505.84,-119.053"/>
<polygon fill="midnightblue" stroke="midnightblue" points="1353.44,-153.026 1344.57,-158.819 1355.12,-159.823 1353.44,-153.026"/>
</g>
<!-- Node24 -->
<g id="node45" class="node"><title>Node24</title>
<a xlink:href="pi0eta_8cc.html" target="_top" xlink:title="src/analysis/physics\l/omega/pi0eta.cc">
<polygon fill="white" stroke="black" points="958,-85 958,-119 1064,-119 1064,-85 958,-85"/>
<text text-anchor="start" x="966" y="-106" font-family="Helvetica,sans-Serif" font-size="10.00">src/analysis/physics</text>
<text text-anchor="middle" x="1011" y="-93" font-family="Helvetica,sans-Serif" font-size="10.00">/omega/pi0eta.cc</text>
</a>
</g>
<!-- Node20&#45;&gt;Node24 -->
<g id="edge48" class="edge"><title>Node20&#45;&gt;Node24</title>
<path fill="none" stroke="midnightblue" d="M1211.48,-156.191C1170.8,-145.916 1118.95,-132.576 1073,-120 1070.08,-119.201 1067.09,-118.371 1064.07,-117.524"/>
<polygon fill="midnightblue" stroke="midnightblue" points="1210.75,-159.617 1221.3,-158.667 1212.46,-152.829 1210.75,-159.617"/>
</g>
<!-- Node25 -->
<g id="node48" class="node"><title>Node25</title>
<a xlink:href="hadd_8cc.html" target="_top" xlink:title="src/root&#45;addons/analysis\l_codes/hadd.cc">
<polygon fill="white" stroke="black" points="1081.5,-85 1081.5,-119 1204.5,-119 1204.5,-85 1081.5,-85"/>
<text text-anchor="start" x="1089.5" y="-106" font-family="Helvetica,sans-Serif" font-size="10.00">src/root&#45;addons/analysis</text>
<text text-anchor="middle" x="1143" y="-93" font-family="Helvetica,sans-Serif" font-size="10.00">_codes/hadd.cc</text>
</a>
</g>
<!-- Node20&#45;&gt;Node25 -->
<g id="edge52" class="edge"><title>Node20&#45;&gt;Node25</title>
<path fill="none" stroke="midnightblue" d="M1240.66,-152.226C1220.07,-141.638 1195.68,-129.094 1176.43,-119.19"/>
<polygon fill="midnightblue" stroke="midnightblue" points="1239.33,-155.476 1249.82,-156.937 1242.53,-149.251 1239.33,-155.476"/>
</g>
<!-- Node26 -->
<g id="node50" class="node"><title>Node26</title>
<a xlink:href="hstack_8cc.html" target="_top" xlink:title="src/root&#45;addons/analysis\l_codes/hstack.cc">
<polygon fill="white" stroke="black" points="1221.5,-85 1221.5,-119 1344.5,-119 1344.5,-85 1221.5,-85"/>
<text text-anchor="start" x="1229.5" y="-106" font-family="Helvetica,sans-Serif" font-size="10.00">src/root&#45;addons/analysis</text>
<text text-anchor="middle" x="1283" y="-93" font-family="Helvetica,sans-Serif" font-size="10.00">_codes/hstack.cc</text>
</a>
</g>
<!-- Node20&#45;&gt;Node26 -->
<g id="edge54" class="edge"><title>Node20&#45;&gt;Node26</title>
<path fill="none" stroke="midnightblue" d="M1283,-146.719C1283,-137.572 1283,-127.625 1283,-119.441"/>
<polygon fill="midnightblue" stroke="midnightblue" points="1279.5,-146.937 1283,-156.937 1286.5,-146.937 1279.5,-146.937"/>
</g>
<!-- Node27 -->
<g id="node52" class="node"><title>Node27</title>
<a xlink:href="_omega_8cc.html" target="_top" xlink:title="src/root&#45;addons/analysis\l_codes/Omega.cc">
<polygon fill="white" stroke="black" points="1361.5,-85 1361.5,-119 1484.5,-119 1484.5,-85 1361.5,-85"/>
<text text-anchor="start" x="1369.5" y="-106" font-family="Helvetica,sans-Serif" font-size="10.00">src/root&#45;addons/analysis</text>
<text text-anchor="middle" x="1423" y="-93" font-family="Helvetica,sans-Serif" font-size="10.00">_codes/Omega.cc</text>
</a>
</g>
<!-- Node20&#45;&gt;Node27 -->
<g id="edge56" class="edge"><title>Node20&#45;&gt;Node27</title>
<path fill="none" stroke="midnightblue" d="M1325.34,-152.226C1345.93,-141.638 1370.32,-129.094 1389.57,-119.19"/>
<polygon fill="midnightblue" stroke="midnightblue" points="1323.47,-149.251 1316.18,-156.937 1326.67,-155.476 1323.47,-149.251"/>
</g>
<!-- Node23&#45;&gt;Node5 -->
<g id="edge42" class="edge"><title>Node23&#45;&gt;Node5</title>
<path fill="none" stroke="midnightblue" d="M1626.29,-80.9441C1656.73,-68.4459 1694.84,-52.8036 1723.4,-41.0775"/>
<polygon fill="midnightblue" stroke="midnightblue" points="1624.62,-77.847 1616.7,-84.8826 1627.28,-84.3226 1624.62,-77.847"/>
</g>
</g>
</svg>
