<?xml version="1.0" encoding="UTF-8" standalone="no"?>
<!DOCTYPE svg PUBLIC "-//W3C//DTD SVG 1.1//EN"
 "http://www.w3.org/Graphics/SVG/1.1/DTD/svg11.dtd">
<!-- Generated by graphviz version 2.26.3 (20100126.1600)
 -->
<!-- Title: src/analysis/plot/HistStyle.h Pages: 1 -->
<svg width="198pt" height="88pt"
 viewBox="0.00 0.00 198.00 88.00" xmlns="http://www.w3.org/2000/svg" xmlns:xlink="http://www.w3.org/1999/xlink">
<g id="graph1" class="graph" transform="scale(1 1) rotate(0) translate(4 84)">
<title>src/analysis/plot/HistStyle.h</title>
<polygon fill="white" stroke="white" points="-4,5 -4,-84 195,-84 195,5 -4,5"/>
<!-- Node0 -->
<g id="node1" class="node"><title>Node0</title>
<polygon fill="#bfbfbf" stroke="black" points="24,-58.5 24,-79.5 164,-79.5 164,-58.5 24,-58.5"/>
<text text-anchor="middle" x="94" y="-66.5" font-family="Helvetica,sans-Serif" font-size="10.00">src/analysis/plot/HistStyle.h</text>
</g>
<!-- Node1 -->
<g id="node3" class="node"><title>Node1</title>
<polygon fill="white" stroke="#bfbfbf" points="0,-0.5 0,-21.5 56,-21.5 56,-0.5 0,-0.5"/>
<text text-anchor="middle" x="28" y="-8.5" font-family="Helvetica,sans-Serif" font-size="10.00">Rtypes.h</text>
</g>
<!-- Node0&#45;&gt;Node1 -->
<g id="edge2" class="edge"><title>Node0&#45;&gt;Node1</title>
<path fill="none" stroke="midnightblue" d="M81.8946,-58.3619C72.3119,-49.9408 58.7361,-38.0105 47.6074,-28.2308"/>
<polygon fill="midnightblue" stroke="midnightblue" points="49.8508,-25.5427 40.0287,-21.5707 45.2299,-30.8009 49.8508,-25.5427"/>
</g>
<!-- Node2 -->
<g id="node5" class="node"><title>Node2</title>
<polygon fill="white" stroke="#bfbfbf" points="73.5,-0.5 73.5,-21.5 114.5,-21.5 114.5,-0.5 73.5,-0.5"/>
<text text-anchor="middle" x="94" y="-8.5" font-family="Helvetica,sans-Serif" font-size="10.00">string</text>
</g>
<!-- Node0&#45;&gt;Node2 -->
<g id="edge4" class="edge"><title>Node0&#45;&gt;Node2</title>
<path fill="none" stroke="midnightblue" d="M94,-58.3619C94,-50.9219 94,-40.7427 94,-31.7276"/>
<polygon fill="midnightblue" stroke="midnightblue" points="97.5001,-31.5706 94,-21.5707 90.5001,-31.5707 97.5001,-31.5706"/>
</g>
<!-- Node3 -->
<g id="node7" class="node"><title>Node3</title>
<polygon fill="white" stroke="#bfbfbf" points="131.5,-0.5 131.5,-21.5 190.5,-21.5 190.5,-0.5 131.5,-0.5"/>
<text text-anchor="middle" x="161" y="-8.5" font-family="Helvetica,sans-Serif" font-size="10.00">functional</text>
</g>
<!-- Node0&#45;&gt;Node3 -->
<g id="edge6" class="edge"><title>Node0&#45;&gt;Node3</title>
<path fill="none" stroke="midnightblue" d="M106.289,-58.3619C116.017,-49.9408 129.798,-38.0105 141.095,-28.2308"/>
<polygon fill="midnightblue" stroke="midnightblue" points="143.519,-30.7619 148.789,-21.5707 138.938,-25.4695 143.519,-30.7619"/>
</g>
</g>
</svg>
