<?xml version="1.0" encoding="UTF-8" standalone="no"?>
<!DOCTYPE svg PUBLIC "-//W3C//DTD SVG 1.1//EN"
 "http://www.w3.org/Graphics/SVG/1.1/DTD/svg11.dtd">
<!-- Generated by graphviz version 2.26.3 (20100126.1600)
 -->
<!-- Title: src/analysis/plot/HistStyle.cc Pages: 1 -->
<svg width="409pt" height="146pt"
 viewBox="0.00 0.00 409.00 146.00" xmlns="http://www.w3.org/2000/svg" xmlns:xlink="http://www.w3.org/1999/xlink">
<g id="graph1" class="graph" transform="scale(1 1) rotate(0) translate(4 142)">
<title>src/analysis/plot/HistStyle.cc</title>
<polygon fill="white" stroke="white" points="-4,5 -4,-142 406,-142 406,5 -4,5"/>
<!-- Node0 -->
<g id="node1" class="node"><title>Node0</title>
<polygon fill="#bfbfbf" stroke="black" points="200.5,-116.5 200.5,-137.5 345.5,-137.5 345.5,-116.5 200.5,-116.5"/>
<text text-anchor="middle" x="273" y="-124.5" font-family="Helvetica,sans-Serif" font-size="10.00">src/analysis/plot/HistStyle.cc</text>
</g>
<!-- Node1 -->
<g id="node3" class="node"><title>Node1</title>
<a xlink:href="_hist_style_8h.html" target="_top" xlink:title="HistStyle.h">
<polygon fill="white" stroke="black" points="78.5,-58.5 78.5,-79.5 143.5,-79.5 143.5,-58.5 78.5,-58.5"/>
<text text-anchor="middle" x="111" y="-66.5" font-family="Helvetica,sans-Serif" font-size="10.00">HistStyle.h</text>
</a>
</g>
<!-- Node0&#45;&gt;Node1 -->
<g id="edge2" class="edge"><title>Node0&#45;&gt;Node1</title>
<path fill="none" stroke="midnightblue" d="M243.663,-116.497C217.481,-107.123 178.94,-93.3242 150.137,-83.0122"/>
<polygon fill="midnightblue" stroke="midnightblue" points="150.987,-79.5987 140.392,-79.5231 148.627,-86.189 150.987,-79.5987"/>
</g>
<!-- Node5 -->
<g id="node11" class="node"><title>Node5</title>
<a xlink:href="_logger_8h.html" target="_top" xlink:title="base/Logger.h">
<polygon fill="white" stroke="black" points="195,-58.5 195,-79.5 273,-79.5 273,-58.5 195,-58.5"/>
<text text-anchor="middle" x="234" y="-66.5" font-family="Helvetica,sans-Serif" font-size="10.00">base/Logger.h</text>
</a>
</g>
<!-- Node0&#45;&gt;Node5 -->
<g id="edge10" class="edge"><title>Node0&#45;&gt;Node5</title>
<path fill="none" stroke="midnightblue" d="M265.847,-116.362C260.514,-108.431 253.089,-97.3885 246.749,-87.9606"/>
<polygon fill="midnightblue" stroke="midnightblue" points="249.592,-85.9161 241.108,-79.5707 243.783,-89.8221 249.592,-85.9161"/>
</g>
<!-- Node7 -->
<g id="node15" class="node"><title>Node7</title>
<polygon fill="white" stroke="#bfbfbf" points="291,-58.5 291,-79.5 335,-79.5 335,-58.5 291,-58.5"/>
<text text-anchor="middle" x="313" y="-66.5" font-family="Helvetica,sans-Serif" font-size="10.00">TH1.h</text>
</g>
<!-- Node0&#45;&gt;Node7 -->
<g id="edge14" class="edge"><title>Node0&#45;&gt;Node7</title>
<path fill="none" stroke="midnightblue" d="M280.337,-116.362C285.806,-108.431 293.422,-97.3885 299.924,-87.9606"/>
<polygon fill="midnightblue" stroke="midnightblue" points="302.914,-89.7899 305.71,-79.5707 297.151,-85.8157 302.914,-89.7899"/>
</g>
<!-- Node8 -->
<g id="node17" class="node"><title>Node8</title>
<polygon fill="white" stroke="#bfbfbf" points="352.5,-58.5 352.5,-79.5 401.5,-79.5 401.5,-58.5 352.5,-58.5"/>
<text text-anchor="middle" x="377" y="-66.5" font-family="Helvetica,sans-Serif" font-size="10.00">cassert</text>
</g>
<!-- Node0&#45;&gt;Node8 -->
<g id="edge16" class="edge"><title>Node0&#45;&gt;Node8</title>
<path fill="none" stroke="midnightblue" d="M292.075,-116.362C308.055,-107.45 331.081,-94.6087 349.127,-84.5447"/>
<polygon fill="midnightblue" stroke="midnightblue" points="351.017,-87.4982 358.046,-79.5707 347.607,-81.3846 351.017,-87.4982"/>
</g>
<!-- Node2 -->
<g id="node5" class="node"><title>Node2</title>
<polygon fill="white" stroke="#bfbfbf" points="0,-0.5 0,-21.5 56,-21.5 56,-0.5 0,-0.5"/>
<text text-anchor="middle" x="28" y="-8.5" font-family="Helvetica,sans-Serif" font-size="10.00">Rtypes.h</text>
</g>
<!-- Node1&#45;&gt;Node2 -->
<g id="edge4" class="edge"><title>Node1&#45;&gt;Node2</title>
<path fill="none" stroke="midnightblue" d="M95.7765,-58.3619C83.3746,-49.6955 65.6542,-37.3126 51.443,-27.3819"/>
<polygon fill="midnightblue" stroke="midnightblue" points="53.3288,-24.4297 43.127,-21.5707 49.3191,-30.1676 53.3288,-24.4297"/>
</g>
<!-- Node3 -->
<g id="node7" class="node"><title>Node3</title>
<polygon fill="white" stroke="#bfbfbf" points="73.5,-0.5 73.5,-21.5 114.5,-21.5 114.5,-0.5 73.5,-0.5"/>
<text text-anchor="middle" x="94" y="-8.5" font-family="Helvetica,sans-Serif" font-size="10.00">string</text>
</g>
<!-- Node1&#45;&gt;Node3 -->
<g id="edge6" class="edge"><title>Node1&#45;&gt;Node3</title>
<path fill="none" stroke="midnightblue" d="M107.882,-58.3619C105.677,-50.8401 102.652,-40.5187 99.9883,-31.4308"/>
<polygon fill="midnightblue" stroke="midnightblue" points="103.27,-30.1825 97.0983,-21.5707 96.5524,-32.1514 103.27,-30.1825"/>
</g>
<!-- Node4 -->
<g id="node9" class="node"><title>Node4</title>
<polygon fill="white" stroke="#bfbfbf" points="131.5,-0.5 131.5,-21.5 190.5,-21.5 190.5,-0.5 131.5,-0.5"/>
<text text-anchor="middle" x="161" y="-8.5" font-family="Helvetica,sans-Serif" font-size="10.00">functional</text>
</g>
<!-- Node1&#45;&gt;Node4 -->
<g id="edge8" class="edge"><title>Node1&#45;&gt;Node4</title>
<path fill="none" stroke="midnightblue" d="M120.171,-58.3619C127.148,-50.2678 136.921,-38.9318 145.156,-29.3796"/>
<polygon fill="midnightblue" stroke="midnightblue" points="148.009,-31.4301 151.887,-21.5707 142.707,-26.8595 148.009,-31.4301"/>
</g>
<!-- Node6 -->
<g id="node13" class="node"><title>Node6</title>
<polygon fill="white" stroke="#bfbfbf" points="207.5,-0.5 207.5,-21.5 296.5,-21.5 296.5,-0.5 207.5,-0.5"/>
<text text-anchor="middle" x="252" y="-8.5" font-family="Helvetica,sans-Serif" font-size="10.00">easylogging++.h</text>
</g>
<!-- Node5&#45;&gt;Node6 -->
<g id="edge12" class="edge"><title>Node5&#45;&gt;Node6</title>
<path fill="none" stroke="midnightblue" d="M237.301,-58.3619C239.661,-50.7584 242.909,-40.294 245.751,-31.1349"/>
<polygon fill="midnightblue" stroke="midnightblue" points="249.098,-32.1587 248.719,-21.5707 242.413,-30.0839 249.098,-32.1587"/>
</g>
</g>
</svg>
