<?xml version="1.0" encoding="UTF-8" standalone="no"?>
<!DOCTYPE svg PUBLIC "-//W3C//DTD SVG 1.1//EN"
 "http://www.w3.org/Graphics/SVG/1.1/DTD/svg11.dtd">
<!-- Generated by graphviz version 2.26.3 (20100126.1600)
 -->
<!-- Title: src/calibration/gui/Indicator.h Pages: 1 -->
<svg width="210pt" height="116pt"
 viewBox="0.00 0.00 210.00 116.00" xmlns="http://www.w3.org/2000/svg" xmlns:xlink="http://www.w3.org/1999/xlink">
<g id="graph1" class="graph" transform="scale(1 1) rotate(0) translate(4 112)">
<title>src/calibration/gui/Indicator.h</title>
<polygon fill="white" stroke="white" points="-4,5 -4,-112 207,-112 207,5 -4,5"/>
<!-- Node5 -->
<g id="node1" class="node"><title>Node5</title>
<polygon fill="#bfbfbf" stroke="black" points="54.5,-73 54.5,-107 147.5,-107 147.5,-73 54.5,-73"/>
<text text-anchor="start" x="62.5" y="-94" font-family="Helvetica,sans-Serif" font-size="10.00">src/calibration/gui</text>
<text text-anchor="middle" x="101" y="-81" font-family="Helvetica,sans-Serif" font-size="10.00">/Indicator.h</text>
</g>
<!-- Node6 -->
<g id="node3" class="node"><title>Node6</title>
<a xlink:href="_cal_canvas_8cc.html" target="_top" xlink:title="src/calibration/gui\l/CalCanvas.cc">
<polygon fill="white" stroke="black" points="-0.5,-1 -0.5,-35 92.5,-35 92.5,-1 -0.5,-1"/>
<text text-anchor="start" x="7.5" y="-22" font-family="Helvetica,sans-Serif" font-size="10.00">src/calibration/gui</text>
<text text-anchor="middle" x="46" y="-9" font-family="Helvetica,sans-Serif" font-size="10.00">/CalCanvas.cc</text>
</a>
</g>
<!-- Node5&#45;&gt;Node6 -->
<g id="edge2" class="edge"><title>Node5&#45;&gt;Node6</title>
<path fill="none" stroke="midnightblue" d="M81.7441,-64.7923C74.3371,-55.0958 66.0507,-44.2482 59.3227,-35.4407"/>
<polygon fill="midnightblue" stroke="midnightblue" points="79.114,-67.1149 87.9658,-72.937 84.6767,-62.8656 79.114,-67.1149"/>
</g>
<!-- Node7 -->
<g id="node5" class="node"><title>Node7</title>
<a xlink:href="_indicator_8cc.html" target="_top" xlink:title="src/calibration/gui\l/Indicator.cc">
<polygon fill="white" stroke="black" points="109.5,-1 109.5,-35 202.5,-35 202.5,-1 109.5,-1"/>
<text text-anchor="start" x="117.5" y="-22" font-family="Helvetica,sans-Serif" font-size="10.00">src/calibration/gui</text>
<text text-anchor="middle" x="156" y="-9" font-family="Helvetica,sans-Serif" font-size="10.00">/Indicator.cc</text>
</a>
</g>
<!-- Node5&#45;&gt;Node7 -->
<g id="edge4" class="edge"><title>Node5&#45;&gt;Node7</title>
<path fill="none" stroke="midnightblue" d="M120.256,-64.7923C127.663,-55.0958 135.949,-44.2482 142.677,-35.4407"/>
<polygon fill="midnightblue" stroke="midnightblue" points="117.323,-62.8656 114.034,-72.937 122.886,-67.1149 117.323,-62.8656"/>
</g>
</g>
</svg>
