<?xml version="1.0" encoding="UTF-8" standalone="no"?>
<!DOCTYPE svg PUBLIC "-//W3C//DTD SVG 1.1//EN"
 "http://www.w3.org/Graphics/SVG/1.1/DTD/svg11.dtd">
<!-- Generated by graphviz version 2.26.3 (20100126.1600)
 -->
<!-- Title: src/calibration/gui/Indicator.cc Pages: 1 -->
<svg width="271pt" height="232pt"
 viewBox="0.00 0.00 271.00 232.00" xmlns="http://www.w3.org/2000/svg" xmlns:xlink="http://www.w3.org/1999/xlink">
<g id="graph1" class="graph" transform="scale(1 1) rotate(0) translate(4 228)">
<title>src/calibration/gui/Indicator.cc</title>
<polygon fill="white" stroke="white" points="-4,5 -4,-228 268,-228 268,5 -4,5"/>
<!-- Node0 -->
<g id="node1" class="node"><title>Node0</title>
<polygon fill="#bfbfbf" stroke="black" points="151.5,-189 151.5,-223 244.5,-223 244.5,-189 151.5,-189"/>
<text text-anchor="start" x="159.5" y="-210" font-family="Helvetica,sans-Serif" font-size="10.00">src/calibration/gui</text>
<text text-anchor="middle" x="198" y="-197" font-family="Helvetica,sans-Serif" font-size="10.00">/Indicator.cc</text>
</g>
<!-- Node1 -->
<g id="node3" class="node"><title>Node1</title>
<a xlink:href="_indicator_8h.html" target="_top" xlink:title="Indicator.h">
<polygon fill="white" stroke="black" points="129,-130.5 129,-151.5 191,-151.5 191,-130.5 129,-130.5"/>
<text text-anchor="middle" x="160" y="-138.5" font-family="Helvetica,sans-Serif" font-size="10.00">Indicator.h</text>
</a>
</g>
<!-- Node0&#45;&gt;Node1 -->
<g id="edge2" class="edge"><title>Node0&#45;&gt;Node1</title>
<path fill="none" stroke="midnightblue" d="M188.016,-188.922C182.924,-180.212 176.707,-169.578 171.425,-160.542"/>
<polygon fill="midnightblue" stroke="midnightblue" points="174.413,-158.719 166.344,-151.852 168.37,-162.252 174.413,-158.719"/>
</g>
<!-- Node6 -->
<g id="node13" class="node"><title>Node6</title>
<polygon fill="white" stroke="#bfbfbf" points="208.5,-130.5 208.5,-151.5 263.5,-151.5 263.5,-130.5 208.5,-130.5"/>
<text text-anchor="middle" x="236" y="-138.5" font-family="Helvetica,sans-Serif" font-size="10.00">TLatex.h</text>
</g>
<!-- Node0&#45;&gt;Node6 -->
<g id="edge12" class="edge"><title>Node0&#45;&gt;Node6</title>
<path fill="none" stroke="midnightblue" d="M207.984,-188.922C213.076,-180.212 219.293,-169.578 224.575,-160.542"/>
<polygon fill="midnightblue" stroke="midnightblue" points="227.63,-162.252 229.656,-151.852 221.587,-158.719 227.63,-162.252"/>
</g>
<!-- Node2 -->
<g id="node5" class="node"><title>Node2</title>
<a xlink:href="_indicator__traits_8h.html" target="_top" xlink:title="calibration/gui/Indicator\l_traits.h">
<polygon fill="white" stroke="black" points="-0.5,-59 -0.5,-93 116.5,-93 116.5,-59 -0.5,-59"/>
<text text-anchor="start" x="7.5" y="-80" font-family="Helvetica,sans-Serif" font-size="10.00">calibration/gui/Indicator</text>
<text text-anchor="middle" x="58" y="-67" font-family="Helvetica,sans-Serif" font-size="10.00">_traits.h</text>
</a>
</g>
<!-- Node1&#45;&gt;Node2 -->
<g id="edge4" class="edge"><title>Node1&#45;&gt;Node2</title>
<path fill="none" stroke="midnightblue" d="M143.157,-130.267C129.665,-121.669 110.271,-109.31 93.3983,-98.5577"/>
<polygon fill="midnightblue" stroke="midnightblue" points="95.1635,-95.5324 84.8493,-93.1099 91.4016,-101.436 95.1635,-95.5324"/>
</g>
<!-- Node4 -->
<g id="node9" class="node"><title>Node4</title>
<polygon fill="white" stroke="#bfbfbf" points="134,-65.5 134,-86.5 186,-86.5 186,-65.5 134,-65.5"/>
<text text-anchor="middle" x="160" y="-73.5" font-family="Helvetica,sans-Serif" font-size="10.00">memory</text>
</g>
<!-- Node1&#45;&gt;Node4 -->
<g id="edge8" class="edge"><title>Node1&#45;&gt;Node4</title>
<path fill="none" stroke="midnightblue" d="M160,-130.267C160,-121.18 160,-107.892 160,-96.7395"/>
<polygon fill="midnightblue" stroke="midnightblue" points="163.5,-96.5337 160,-86.5337 156.5,-96.5337 163.5,-96.5337"/>
</g>
<!-- Node5 -->
<g id="node11" class="node"><title>Node5</title>
<polygon fill="white" stroke="#bfbfbf" points="203.5,-65.5 203.5,-86.5 252.5,-86.5 252.5,-65.5 203.5,-65.5"/>
<text text-anchor="middle" x="228" y="-73.5" font-family="Helvetica,sans-Serif" font-size="10.00">TLine.h</text>
</g>
<!-- Node1&#45;&gt;Node5 -->
<g id="edge10" class="edge"><title>Node1&#45;&gt;Node5</title>
<path fill="none" stroke="midnightblue" d="M171.229,-130.267C181.626,-120.328 197.281,-105.363 209.52,-93.6645"/>
<polygon fill="midnightblue" stroke="midnightblue" points="212.17,-95.9736 216.98,-86.5337 207.333,-90.9135 212.17,-95.9736"/>
</g>
<!-- Node3 -->
<g id="node7" class="node"><title>Node3</title>
<polygon fill="white" stroke="#bfbfbf" points="30,-0.5 30,-21.5 86,-21.5 86,-0.5 30,-0.5"/>
<text text-anchor="middle" x="58" y="-8.5" font-family="Helvetica,sans-Serif" font-size="10.00">Rtypes.h</text>
</g>
<!-- Node2&#45;&gt;Node3 -->
<g id="edge6" class="edge"><title>Node2&#45;&gt;Node3</title>
<path fill="none" stroke="midnightblue" d="M58,-58.922C58,-50.6704 58,-40.6922 58,-31.9818"/>
<polygon fill="midnightblue" stroke="midnightblue" points="61.5001,-31.8521 58,-21.8521 54.5001,-31.8521 61.5001,-31.8521"/>
</g>
</g>
</svg>
