<?xml version="1.0" encoding="UTF-8" standalone="no"?>
<!DOCTYPE svg PUBLIC "-//W3C//DTD SVG 1.1//EN"
 "http://www.w3.org/Graphics/SVG/1.1/DTD/svg11.dtd">
<!-- Generated by graphviz version 2.26.3 (20100126.1600)
 -->
<!-- Title: src/base/Interpolator.h Pages: 1 -->
<svg width="2552pt" height="330pt"
 viewBox="0.00 0.00 2552.00 330.00" xmlns="http://www.w3.org/2000/svg" xmlns:xlink="http://www.w3.org/1999/xlink">
<g id="graph1" class="graph" transform="scale(1 1) rotate(0) translate(4 326)">
<title>src/base/Interpolator.h</title>
<polygon fill="white" stroke="white" points="-4,5 -4,-326 2549,-326 2549,5 -4,5"/>
<!-- Node12 -->
<g id="node1" class="node"><title>Node12</title>
<polygon fill="#bfbfbf" stroke="black" points="1166,-300.5 1166,-321.5 1280,-321.5 1280,-300.5 1166,-300.5"/>
<text text-anchor="middle" x="1223" y="-308.5" font-family="Helvetica,sans-Serif" font-size="10.00">src/base/Interpolator.h</text>
</g>
<!-- Node13 -->
<g id="node3" class="node"><title>Node13</title>
<a xlink:href="_interpolated_8cc.html" target="_top" xlink:title="src/analysis/utils\l/uncertainties/Interpolated.cc">
<polygon fill="white" stroke="black" points="-0.5,-79 -0.5,-113 142.5,-113 142.5,-79 -0.5,-79"/>
<text text-anchor="start" x="7.5" y="-100" font-family="Helvetica,sans-Serif" font-size="10.00">src/analysis/utils</text>
<text text-anchor="middle" x="71" y="-87" font-family="Helvetica,sans-Serif" font-size="10.00">/uncertainties/Interpolated.cc</text>
</a>
</g>
<!-- Node12&#45;&gt;Node13 -->
<g id="edge2" class="edge"><title>Node12&#45;&gt;Node13</title>
<path fill="none" stroke="midnightblue" d="M1155.61,-305.833C1009.63,-293.737 653.924,-259.372 363,-192 273.061,-171.172 171.329,-134.653 114.817,-113.162"/>
<polygon fill="midnightblue" stroke="midnightblue" points="1155.5,-309.336 1165.75,-306.666 1156.07,-302.359 1155.5,-309.336"/>
</g>
<!-- Node14 -->
<g id="node5" class="node"><title>Node14</title>
<a xlink:href="_clipped_interpolator_wrapper_8h.html" target="_top" xlink:title="src/base/ClippedInterpolator\lWrapper.h">
<polygon fill="white" stroke="black" points="1080.5,-229 1080.5,-263 1219.5,-263 1219.5,-229 1080.5,-229"/>
<text text-anchor="start" x="1088.5" y="-250" font-family="Helvetica,sans-Serif" font-size="10.00">src/base/ClippedInterpolator</text>
<text text-anchor="middle" x="1150" y="-237" font-family="Helvetica,sans-Serif" font-size="10.00">Wrapper.h</text>
</a>
</g>
<!-- Node12&#45;&gt;Node14 -->
<g id="edge4" class="edge"><title>Node12&#45;&gt;Node14</title>
<path fill="none" stroke="midnightblue" d="M1203.4,-293.545C1192.8,-284.106 1179.76,-272.495 1169.22,-263.11"/>
<polygon fill="midnightblue" stroke="midnightblue" points="1201.15,-296.231 1210.95,-300.267 1205.8,-291.003 1201.15,-296.231"/>
</g>
<!-- Node35 -->
<g id="node49" class="node"><title>Node35</title>
<a xlink:href="_interpolator_8cc.html" target="_top" xlink:title="src/base/Interpolator.cc">
<polygon fill="white" stroke="black" points="1236.5,-235.5 1236.5,-256.5 1355.5,-256.5 1355.5,-235.5 1236.5,-235.5"/>
<text text-anchor="middle" x="1296" y="-243.5" font-family="Helvetica,sans-Serif" font-size="10.00">src/base/Interpolator.cc</text>
</a>
</g>
<!-- Node12&#45;&gt;Node35 -->
<g id="edge50" class="edge"><title>Node12&#45;&gt;Node35</title>
<path fill="none" stroke="midnightblue" d="M1242.73,-293.434C1255.97,-281.642 1272.98,-266.498 1284.17,-256.534"/>
<polygon fill="midnightblue" stroke="midnightblue" points="1240.2,-291.003 1235.05,-300.267 1244.85,-296.231 1240.2,-291.003"/>
</g>
<!-- Node36 -->
<g id="node51" class="node"><title>Node36</title>
<a xlink:href="_test_interpolator_8cc.html" target="_top" xlink:title="test/base/TestInterpolator.cc">
<polygon fill="white" stroke="black" points="1373,-235.5 1373,-256.5 1515,-256.5 1515,-235.5 1373,-235.5"/>
<text text-anchor="middle" x="1444" y="-243.5" font-family="Helvetica,sans-Serif" font-size="10.00">test/base/TestInterpolator.cc</text>
</a>
</g>
<!-- Node12&#45;&gt;Node36 -->
<g id="edge52" class="edge"><title>Node12&#45;&gt;Node36</title>
<path fill="none" stroke="midnightblue" d="M1268.82,-297.525C1310.13,-285.374 1370.06,-267.748 1408.02,-256.584"/>
<polygon fill="midnightblue" stroke="midnightblue" points="1267.61,-294.232 1259,-300.412 1269.58,-300.948 1267.61,-294.232"/>
</g>
<!-- Node14&#45;&gt;Node13 -->
<g id="edge44" class="edge"><title>Node14&#45;&gt;Node13</title>
<path fill="none" stroke="midnightblue" d="M1070.17,-240.455C899.827,-227.637 488.72,-191.439 151,-120 141.921,-118.079 132.381,-115.619 123.179,-113.009"/>
<polygon fill="midnightblue" stroke="midnightblue" points="1070.07,-243.957 1080.3,-241.211 1070.59,-236.977 1070.07,-243.957"/>
</g>
<!-- Node15 -->
<g id="node7" class="node"><title>Node15</title>
<a xlink:href="_interpolated_8h.html" target="_top" xlink:title="src/analysis/utils\l/uncertainties/Interpolated.h">
<polygon fill="white" stroke="black" points="1081.5,-157 1081.5,-191 1218.5,-191 1218.5,-157 1081.5,-157"/>
<text text-anchor="start" x="1089.5" y="-178" font-family="Helvetica,sans-Serif" font-size="10.00">src/analysis/utils</text>
<text text-anchor="middle" x="1150" y="-165" font-family="Helvetica,sans-Serif" font-size="10.00">/uncertainties/Interpolated.h</text>
</a>
</g>
<!-- Node14&#45;&gt;Node15 -->
<g id="edge6" class="edge"><title>Node14&#45;&gt;Node15</title>
<path fill="none" stroke="midnightblue" d="M1150,-218.719C1150,-209.572 1150,-199.625 1150,-191.441"/>
<polygon fill="midnightblue" stroke="midnightblue" points="1146.5,-218.937 1150,-228.937 1153.5,-218.937 1146.5,-218.937"/>
</g>
<!-- Node33 -->
<g id="node45" class="node"><title>Node33</title>
<a xlink:href="_clipped_interpolator_wrapper_8cc.html" target="_top" xlink:title="src/base/ClippedInterpolator\lWrapper.cc">
<polygon fill="white" stroke="black" points="1235.5,-157 1235.5,-191 1374.5,-191 1374.5,-157 1235.5,-157"/>
<text text-anchor="start" x="1243.5" y="-178" font-family="Helvetica,sans-Serif" font-size="10.00">src/base/ClippedInterpolator</text>
<text text-anchor="middle" x="1305" y="-165" font-family="Helvetica,sans-Serif" font-size="10.00">Wrapper.cc</text>
</a>
</g>
<!-- Node14&#45;&gt;Node33 -->
<g id="edge46" class="edge"><title>Node14&#45;&gt;Node33</title>
<path fill="none" stroke="midnightblue" d="M1195.99,-224.638C1219.06,-213.921 1246.62,-201.117 1268.26,-191.065"/>
<polygon fill="midnightblue" stroke="midnightblue" points="1194.33,-221.55 1186.73,-228.937 1197.28,-227.898 1194.33,-221.55"/>
</g>
<!-- Node34 -->
<g id="node47" class="node"><title>Node34</title>
<a xlink:href="_cluster_correction_8cc.html" target="_top" xlink:title="src/calibration/modules\l/ClusterCorrection.cc">
<polygon fill="white" stroke="black" points="1391.5,-157 1391.5,-191 1508.5,-191 1508.5,-157 1391.5,-157"/>
<text text-anchor="start" x="1399.5" y="-178" font-family="Helvetica,sans-Serif" font-size="10.00">src/calibration/modules</text>
<text text-anchor="middle" x="1450" y="-165" font-family="Helvetica,sans-Serif" font-size="10.00">/ClusterCorrection.cc</text>
</a>
</g>
<!-- Node14&#45;&gt;Node34 -->
<g id="edge48" class="edge"><title>Node14&#45;&gt;Node34</title>
<path fill="none" stroke="midnightblue" d="M1229.49,-227.647C1293.93,-212.756 1375.31,-193.923 1383,-192 1385.69,-191.328 1388.43,-190.631 1391.2,-189.92"/>
<polygon fill="midnightblue" stroke="midnightblue" points="1228.66,-224.245 1219.71,-229.906 1230.24,-231.065 1228.66,-224.245"/>
</g>
<!-- Node15&#45;&gt;Node13 -->
<g id="edge40" class="edge"><title>Node15&#45;&gt;Node13</title>
<path fill="none" stroke="midnightblue" d="M1071.39,-169.468C1007.03,-165.778 913.629,-160.468 832,-156 529.364,-139.436 449.61,-171.915 151,-120 141.285,-118.311 131.087,-115.826 121.348,-113.087"/>
<polygon fill="midnightblue" stroke="midnightblue" points="1071.27,-172.968 1081.46,-170.046 1071.68,-165.979 1071.27,-172.968"/>
</g>
<!-- Node16 -->
<g id="node9" class="node"><title>Node16</title>
<a xlink:href="_p_i_d___t_a_p_s_veto___kinfit_8cc.html" target="_top" xlink:title="src/analysis/physics\l/calibration/PID_TAPSVeto\l_Kinfit.cc">
<polygon fill="white" stroke="black" points="160,-72.5 160,-119.5 296,-119.5 296,-72.5 160,-72.5"/>
<text text-anchor="start" x="168" y="-106.5" font-family="Helvetica,sans-Serif" font-size="10.00">src/analysis/physics</text>
<text text-anchor="start" x="168" y="-93.5" font-family="Helvetica,sans-Serif" font-size="10.00">/calibration/PID_TAPSVeto</text>
<text text-anchor="middle" x="228" y="-80.5" font-family="Helvetica,sans-Serif" font-size="10.00">_Kinfit.cc</text>
</a>
</g>
<!-- Node15&#45;&gt;Node16 -->
<g id="edge8" class="edge"><title>Node15&#45;&gt;Node16</title>
<path fill="none" stroke="midnightblue" d="M1071,-169.462C868.164,-157.743 342.273,-126.897 305,-120 302.109,-119.465 299.173,-118.856 296.221,-118.189"/>
<polygon fill="midnightblue" stroke="midnightblue" points="1071.1,-172.974 1081.28,-170.056 1071.5,-165.985 1071.1,-172.974"/>
</g>
<!-- Node17 -->
<g id="node11" class="node"><title>Node17</title>
<a xlink:href="_kin_fit_i_m_check_8cc.html" target="_top" xlink:title="src/analysis/physics\l/check/KinFitIMCheck.cc">
<polygon fill="white" stroke="black" points="314,-79 314,-113 442,-113 442,-79 314,-79"/>
<text text-anchor="start" x="322" y="-100" font-family="Helvetica,sans-Serif" font-size="10.00">src/analysis/physics</text>
<text text-anchor="middle" x="378" y="-87" font-family="Helvetica,sans-Serif" font-size="10.00">/check/KinFitIMCheck.cc</text>
</a>
</g>
<!-- Node15&#45;&gt;Node17 -->
<g id="edge10" class="edge"><title>Node15&#45;&gt;Node17</title>
<path fill="none" stroke="midnightblue" d="M1071.08,-168.977C901.011,-157.997 510.469,-131.892 451,-120 442.235,-118.247 433.058,-115.768 424.284,-113.063"/>
<polygon fill="midnightblue" stroke="midnightblue" points="1071.02,-172.48 1081.22,-169.631 1071.47,-165.495 1071.02,-172.48"/>
</g>
<!-- Node18 -->
<g id="node13" class="node"><title>Node18</title>
<a xlink:href="_p_i_d_efficiency_check_8cc.html" target="_top" xlink:title="src/analysis/physics\l/check/PIDEfficiencyCheck.cc">
<polygon fill="white" stroke="black" points="460,-79 460,-113 612,-113 612,-79 460,-79"/>
<text text-anchor="start" x="468" y="-100" font-family="Helvetica,sans-Serif" font-size="10.00">src/analysis/physics</text>
<text text-anchor="middle" x="536" y="-87" font-family="Helvetica,sans-Serif" font-size="10.00">/check/PIDEfficiencyCheck.cc</text>
</a>
</g>
<!-- Node15&#45;&gt;Node18 -->
<g id="edge12" class="edge"><title>Node15&#45;&gt;Node18</title>
<path fill="none" stroke="midnightblue" d="M1071.3,-170.236C967.42,-164.297 779.188,-150.17 621,-120 611.209,-118.133 600.911,-115.666 590.993,-113.026"/>
<polygon fill="midnightblue" stroke="midnightblue" points="1071.21,-173.737 1081.39,-170.803 1071.61,-166.748 1071.21,-173.737"/>
</g>
<!-- Node19 -->
<g id="node15" class="node"><title>Node19</title>
<a xlink:href="_three_photon_check_8cc.html" target="_top" xlink:title="src/analysis/physics\l/check/ThreePhotonCheck.cc">
<polygon fill="white" stroke="black" points="630,-79 630,-113 776,-113 776,-79 630,-79"/>
<text text-anchor="start" x="638" y="-100" font-family="Helvetica,sans-Serif" font-size="10.00">src/analysis/physics</text>
<text text-anchor="middle" x="703" y="-87" font-family="Helvetica,sans-Serif" font-size="10.00">/check/ThreePhotonCheck.cc</text>
</a>
</g>
<!-- Node15&#45;&gt;Node19 -->
<g id="edge14" class="edge"><title>Node15&#45;&gt;Node19</title>
<path fill="none" stroke="midnightblue" d="M1070.99,-165.499C996.676,-156.753 882.56,-141.387 785,-120 776.017,-118.031 766.575,-115.608 757.424,-113.066"/>
<polygon fill="midnightblue" stroke="midnightblue" points="1070.87,-169.009 1081.21,-166.69 1071.68,-162.056 1070.87,-169.009"/>
</g>
<!-- Node20 -->
<g id="node17" class="node"><title>Node20</title>
<a xlink:href="_etap_omega_g_8cc.html" target="_top" xlink:title="src/analysis/physics\l/etaprime/EtapOmegaG.cc">
<polygon fill="white" stroke="black" points="793.5,-79 793.5,-113 926.5,-113 926.5,-79 793.5,-79"/>
<text text-anchor="start" x="801.5" y="-100" font-family="Helvetica,sans-Serif" font-size="10.00">src/analysis/physics</text>
<text text-anchor="middle" x="860" y="-87" font-family="Helvetica,sans-Serif" font-size="10.00">/etaprime/EtapOmegaG.cc</text>
</a>
</g>
<!-- Node15&#45;&gt;Node20 -->
<g id="edge16" class="edge"><title>Node15&#45;&gt;Node20</title>
<path fill="none" stroke="midnightblue" d="M1071.54,-155.564C1030.67,-145.639 979.96,-132.826 935,-120 927.506,-117.862 919.632,-115.487 911.917,-113.085"/>
<polygon fill="midnightblue" stroke="midnightblue" points="1070.9,-159.009 1081.44,-157.958 1072.54,-152.205 1070.9,-159.009"/>
</g>
<!-- Node21 -->
<g id="node19" class="node"><title>Node21</title>
<a xlink:href="_etap_omega_g__simple_8cc.html" target="_top" xlink:title="src/analysis/physics\l/etaprime/EtapOmegaG\l_simple.cc">
<polygon fill="white" stroke="black" points="943.5,-72.5 943.5,-119.5 1062.5,-119.5 1062.5,-72.5 943.5,-72.5"/>
<text text-anchor="start" x="951.5" y="-106.5" font-family="Helvetica,sans-Serif" font-size="10.00">src/analysis/physics</text>
<text text-anchor="start" x="951.5" y="-93.5" font-family="Helvetica,sans-Serif" font-size="10.00">/etaprime/EtapOmegaG</text>
<text text-anchor="middle" x="1003" y="-80.5" font-family="Helvetica,sans-Serif" font-size="10.00">_simple.cc</text>
</a>
</g>
<!-- Node15&#45;&gt;Node21 -->
<g id="edge18" class="edge"><title>Node15&#45;&gt;Node21</title>
<path fill="none" stroke="midnightblue" d="M1108.69,-152.081C1089.6,-141.953 1066.91,-129.911 1047.45,-119.586"/>
<polygon fill="midnightblue" stroke="midnightblue" points="1107.27,-155.287 1117.74,-156.883 1110.55,-149.104 1107.27,-155.287"/>
</g>
<!-- Node22 -->
<g id="node21" class="node"><title>Node22</title>
<a xlink:href="etaprime__dalitz_8cc.html" target="_top" xlink:title="src/analysis/physics\l/etaprime/etaprime_dalitz.cc">
<polygon fill="white" stroke="black" points="1080,-79 1080,-113 1220,-113 1220,-79 1080,-79"/>
<text text-anchor="start" x="1088" y="-100" font-family="Helvetica,sans-Serif" font-size="10.00">src/analysis/physics</text>
<text text-anchor="middle" x="1150" y="-87" font-family="Helvetica,sans-Serif" font-size="10.00">/etaprime/etaprime_dalitz.cc</text>
</a>
</g>
<!-- Node15&#45;&gt;Node22 -->
<g id="edge20" class="edge"><title>Node15&#45;&gt;Node22</title>
<path fill="none" stroke="midnightblue" d="M1150,-146.61C1150,-135.519 1150,-123.049 1150,-113.262"/>
<polygon fill="midnightblue" stroke="midnightblue" points="1146.5,-146.689 1150,-156.689 1153.5,-146.689 1146.5,-146.689"/>
</g>
<!-- Node23 -->
<g id="node23" class="node"><title>Node23</title>
<a xlink:href="_omega___eta_g_8cc.html" target="_top" xlink:title="src/analysis/physics\l/omega/Omega_EtaG.cc">
<polygon fill="white" stroke="black" points="1237.5,-79 1237.5,-113 1362.5,-113 1362.5,-79 1237.5,-79"/>
<text text-anchor="start" x="1245.5" y="-100" font-family="Helvetica,sans-Serif" font-size="10.00">src/analysis/physics</text>
<text text-anchor="middle" x="1300" y="-87" font-family="Helvetica,sans-Serif" font-size="10.00">/omega/Omega_EtaG.cc</text>
</a>
</g>
<!-- Node15&#45;&gt;Node23 -->
<g id="edge22" class="edge"><title>Node15&#45;&gt;Node23</title>
<path fill="none" stroke="midnightblue" d="M1192.06,-152.128C1215.83,-139.771 1245.1,-124.55 1267.16,-113.078"/>
<polygon fill="midnightblue" stroke="midnightblue" points="1190.18,-149.164 1182.92,-156.883 1193.41,-155.374 1190.18,-149.164"/>
</g>
<!-- Node24 -->
<g id="node25" class="node"><title>Node24</title>
<a xlink:href="_just_pi0_8cc.html" target="_top" xlink:title="src/analysis/physics\l/pi0/JustPi0.cc">
<polygon fill="white" stroke="black" points="1380,-79 1380,-113 1486,-113 1486,-79 1380,-79"/>
<text text-anchor="start" x="1388" y="-100" font-family="Helvetica,sans-Serif" font-size="10.00">src/analysis/physics</text>
<text text-anchor="middle" x="1433" y="-87" font-family="Helvetica,sans-Serif" font-size="10.00">/pi0/JustPi0.cc</text>
</a>
</g>
<!-- Node15&#45;&gt;Node24 -->
<g id="edge24" class="edge"><title>Node15&#45;&gt;Node24</title>
<path fill="none" stroke="midnightblue" d="M1228.55,-155.333C1286.34,-141.51 1357.15,-124.352 1371,-120 1377.61,-117.924 1384.52,-115.502 1391.24,-113.012"/>
<polygon fill="midnightblue" stroke="midnightblue" points="1227.58,-151.967 1218.66,-157.696 1229.2,-158.775 1227.58,-151.967"/>
</g>
<!-- Node25 -->
<g id="node27" class="node"><title>Node25</title>
<a xlink:href="single_pi0_8cc.html" target="_top" xlink:title="src/analysis/physics\l/production/singlePi0.cc">
<polygon fill="white" stroke="black" points="1503.5,-79 1503.5,-113 1624.5,-113 1624.5,-79 1503.5,-79"/>
<text text-anchor="start" x="1511.5" y="-100" font-family="Helvetica,sans-Serif" font-size="10.00">src/analysis/physics</text>
<text text-anchor="middle" x="1564" y="-87" font-family="Helvetica,sans-Serif" font-size="10.00">/production/singlePi0.cc</text>
</a>
</g>
<!-- Node15&#45;&gt;Node25 -->
<g id="edge26" class="edge"><title>Node15&#45;&gt;Node25</title>
<path fill="none" stroke="midnightblue" d="M1228.94,-155.748C1347.07,-135.009 1381.29,-147.12 1495,-120 1502.9,-118.117 1511.16,-115.675 1519.11,-113.072"/>
<polygon fill="midnightblue" stroke="midnightblue" points="1228,-152.361 1218.78,-157.577 1229.24,-159.251 1228,-152.361"/>
</g>
<!-- Node26 -->
<g id="node29" class="node"><title>Node26</title>
<a xlink:href="triple_pi0_8cc.html" target="_top" xlink:title="src/analysis/physics\l/production/triplePi0.cc">
<polygon fill="white" stroke="black" points="1642,-79 1642,-113 1758,-113 1758,-79 1642,-79"/>
<text text-anchor="start" x="1650" y="-100" font-family="Helvetica,sans-Serif" font-size="10.00">src/analysis/physics</text>
<text text-anchor="middle" x="1700" y="-87" font-family="Helvetica,sans-Serif" font-size="10.00">/production/triplePi0.cc</text>
</a>
</g>
<!-- Node15&#45;&gt;Node26 -->
<g id="edge28" class="edge"><title>Node15&#45;&gt;Node26</title>
<path fill="none" stroke="midnightblue" d="M1228.76,-155.849C1407.72,-128.428 1459.26,-158.159 1633,-120 1641.09,-118.224 1649.53,-115.734 1657.59,-113.025"/>
<polygon fill="midnightblue" stroke="midnightblue" points="1228.09,-152.411 1218.75,-157.421 1229.17,-159.327 1228.09,-152.411"/>
</g>
<!-- Node27 -->
<g id="node31" class="node"><title>Node27</title>
<a xlink:href="_proton_vertex_test_8cc.html" target="_top" xlink:title="src/analysis/physics\l/scratch/wolfes/ProtonVertex\lTest.cc">
<polygon fill="white" stroke="black" points="1775.5,-72.5 1775.5,-119.5 1918.5,-119.5 1918.5,-72.5 1775.5,-72.5"/>
<text text-anchor="start" x="1783.5" y="-106.5" font-family="Helvetica,sans-Serif" font-size="10.00">src/analysis/physics</text>
<text text-anchor="start" x="1783.5" y="-93.5" font-family="Helvetica,sans-Serif" font-size="10.00">/scratch/wolfes/ProtonVertex</text>
<text text-anchor="middle" x="1847" y="-80.5" font-family="Helvetica,sans-Serif" font-size="10.00">Test.cc</text>
</a>
</g>
<!-- Node15&#45;&gt;Node27 -->
<g id="edge30" class="edge"><title>Node15&#45;&gt;Node27</title>
<path fill="none" stroke="midnightblue" d="M1228.74,-155.878C1466.72,-121.647 1533.55,-162.243 1767,-120 1769.71,-119.509 1772.46,-118.959 1775.23,-118.362"/>
<polygon fill="midnightblue" stroke="midnightblue" points="1228.13,-152.43 1218.74,-157.345 1229.14,-159.356 1228.13,-152.43"/>
</g>
<!-- Node28 -->
<g id="node33" class="node"><title>Node28</title>
<a xlink:href="_test_sigma_plus_fitter_8cc.html" target="_top" xlink:title="src/analysis/physics\l/test/TestSigmaPlusFitter.cc">
<polygon fill="white" stroke="black" points="1936,-79 1936,-113 2078,-113 2078,-79 1936,-79"/>
<text text-anchor="start" x="1944" y="-100" font-family="Helvetica,sans-Serif" font-size="10.00">src/analysis/physics</text>
<text text-anchor="middle" x="2007" y="-87" font-family="Helvetica,sans-Serif" font-size="10.00">/test/TestSigmaPlusFitter.cc</text>
</a>
</g>
<!-- Node15&#45;&gt;Node28 -->
<g id="edge32" class="edge"><title>Node15&#45;&gt;Node28</title>
<path fill="none" stroke="midnightblue" d="M1228.86,-155.881C1537.3,-113.663 1623.34,-172.569 1927,-120 1936.72,-118.318 1946.91,-115.836 1956.65,-113.098"/>
<polygon fill="midnightblue" stroke="midnightblue" points="1228.15,-152.446 1218.73,-157.293 1229.12,-159.379 1228.15,-152.446"/>
</g>
<!-- Node29 -->
<g id="node35" class="node"><title>Node29</title>
<a xlink:href="analysis_2physics_2tunings_2_interpolated_pulls_8h.html" target="_top" xlink:title="src/analysis/physics\l/tunings/InterpolatedPulls.h">
<polygon fill="white" stroke="black" points="2095.5,-79 2095.5,-113 2230.5,-113 2230.5,-79 2095.5,-79"/>
<text text-anchor="start" x="2103.5" y="-100" font-family="Helvetica,sans-Serif" font-size="10.00">src/analysis/physics</text>
<text text-anchor="middle" x="2163" y="-87" font-family="Helvetica,sans-Serif" font-size="10.00">/tunings/InterpolatedPulls.h</text>
</a>
</g>
<!-- Node15&#45;&gt;Node29 -->
<g id="edge34" class="edge"><title>Node15&#45;&gt;Node29</title>
<path fill="none" stroke="midnightblue" d="M1228.87,-155.893C1607.89,-105.66 1713.52,-185.594 2087,-120 2096.4,-118.348 2106.26,-115.844 2115.64,-113.066"/>
<polygon fill="midnightblue" stroke="midnightblue" points="1228.17,-152.456 1218.73,-157.26 1229.11,-159.393 1228.17,-152.456"/>
</g>
<!-- Node31 -->
<g id="node39" class="node"><title>Node31</title>
<a xlink:href="physics_2tunings_2_trigger_simulation_8cc.html" target="_top" xlink:title="src/analysis/physics\l/tunings/TriggerSimulation.cc">
<polygon fill="white" stroke="black" points="2247.5,-79 2247.5,-113 2390.5,-113 2390.5,-79 2247.5,-79"/>
<text text-anchor="start" x="2255.5" y="-100" font-family="Helvetica,sans-Serif" font-size="10.00">src/analysis/physics</text>
<text text-anchor="middle" x="2319" y="-87" font-family="Helvetica,sans-Serif" font-size="10.00">/tunings/TriggerSimulation.cc</text>
</a>
</g>
<!-- Node15&#45;&gt;Node31 -->
<g id="edge38" class="edge"><title>Node15&#45;&gt;Node31</title>
<path fill="none" stroke="midnightblue" d="M1228.66,-155.929C1674.91,-97.9047 1798.19,-192.725 2239,-120 2248.87,-118.371 2259.23,-115.877 2269.1,-113.102"/>
<polygon fill="midnightblue" stroke="midnightblue" points="1228.18,-152.461 1218.72,-157.238 1229.1,-159.401 1228.18,-152.461"/>
</g>
<!-- Node32 -->
<g id="node42" class="node"><title>Node32</title>
<a xlink:href="root-addons_2analysis__codes_2_interpolated_pulls_8cc.html" target="_top" xlink:title="src/root&#45;addons/analysis\l_codes/InterpolatedPulls.cc">
<polygon fill="white" stroke="black" points="2407.5,-79 2407.5,-113 2544.5,-113 2544.5,-79 2407.5,-79"/>
<text text-anchor="start" x="2415.5" y="-100" font-family="Helvetica,sans-Serif" font-size="10.00">src/root&#45;addons/analysis</text>
<text text-anchor="middle" x="2476" y="-87" font-family="Helvetica,sans-Serif" font-size="10.00">_codes/InterpolatedPulls.cc</text>
</a>
</g>
<!-- Node15&#45;&gt;Node32 -->
<g id="edge42" class="edge"><title>Node15&#45;&gt;Node32</title>
<path fill="none" stroke="midnightblue" d="M1228.67,-155.932C1745.53,-89.8424 1888.33,-205.783 2399,-120 2408.67,-118.376 2418.8,-115.846 2428.43,-113.027"/>
<polygon fill="midnightblue" stroke="midnightblue" points="1228.19,-152.465 1218.72,-157.221 1229.09,-159.408 1228.19,-152.465"/>
</g>
<!-- Node30 -->
<g id="node37" class="node"><title>Node30</title>
<a xlink:href="analysis_2physics_2tunings_2_interpolated_pulls_8cc.html" target="_top" xlink:title="src/analysis/physics\l/tunings/InterpolatedPulls.cc">
<polygon fill="white" stroke="black" points="2093,-1 2093,-35 2233,-35 2233,-1 2093,-1"/>
<text text-anchor="start" x="2101" y="-22" font-family="Helvetica,sans-Serif" font-size="10.00">src/analysis/physics</text>
<text text-anchor="middle" x="2163" y="-9" font-family="Helvetica,sans-Serif" font-size="10.00">/tunings/InterpolatedPulls.cc</text>
</a>
</g>
<!-- Node29&#45;&gt;Node30 -->
<g id="edge36" class="edge"><title>Node29&#45;&gt;Node30</title>
<path fill="none" stroke="midnightblue" d="M2163,-68.6102C2163,-57.5188 2163,-45.0489 2163,-35.2623"/>
<polygon fill="midnightblue" stroke="midnightblue" points="2159.5,-68.6892 2163,-78.6893 2166.5,-68.6893 2159.5,-68.6892"/>
</g>
</g>
</svg>
