<?xml version="1.0" encoding="UTF-8" standalone="no"?>
<!DOCTYPE svg PUBLIC "-//W3C//DTD SVG 1.1//EN"
 "http://www.w3.org/Graphics/SVG/1.1/DTD/svg11.dtd">
<!-- Generated by graphviz version 2.26.3 (20100126.1600)
 -->
<!-- Title: src/analysis/utils/uncertainties/Interpolated.h Pages: 1 -->
<svg width="2552pt" height="200pt"
 viewBox="0.00 0.00 2552.00 200.00" xmlns="http://www.w3.org/2000/svg" xmlns:xlink="http://www.w3.org/1999/xlink">
<g id="graph1" class="graph" transform="scale(1 1) rotate(0) translate(4 196)">
<title>src/analysis/utils/uncertainties/Interpolated.h</title>
<polygon fill="white" stroke="white" points="-4,5 -4,-196 2549,-196 2549,5 -4,5"/>
<!-- Node44 -->
<g id="node1" class="node"><title>Node44</title>
<polygon fill="#bfbfbf" stroke="black" points="1204.5,-157 1204.5,-191 1341.5,-191 1341.5,-157 1204.5,-157"/>
<text text-anchor="start" x="1212.5" y="-178" font-family="Helvetica,sans-Serif" font-size="10.00">src/analysis/utils</text>
<text text-anchor="middle" x="1273" y="-165" font-family="Helvetica,sans-Serif" font-size="10.00">/uncertainties/Interpolated.h</text>
</g>
<!-- Node45 -->
<g id="node3" class="node"><title>Node45</title>
<a xlink:href="_p_i_d___t_a_p_s_veto___kinfit_8cc.html" target="_top" xlink:title="src/analysis/physics\l/calibration/PID_TAPSVeto\l_Kinfit.cc">
<polygon fill="white" stroke="black" points="0,-72.5 0,-119.5 136,-119.5 136,-72.5 0,-72.5"/>
<text text-anchor="start" x="8" y="-106.5" font-family="Helvetica,sans-Serif" font-size="10.00">src/analysis/physics</text>
<text text-anchor="start" x="8" y="-93.5" font-family="Helvetica,sans-Serif" font-size="10.00">/calibration/PID_TAPSVeto</text>
<text text-anchor="middle" x="68" y="-80.5" font-family="Helvetica,sans-Serif" font-size="10.00">_Kinfit.cc</text>
</a>
</g>
<!-- Node44&#45;&gt;Node45 -->
<g id="edge2" class="edge"><title>Node44&#45;&gt;Node45</title>
<path fill="none" stroke="midnightblue" d="M1193.87,-172.824C971.988,-169.112 346.925,-155.7 145,-120 142.104,-119.488 139.166,-118.899 136.211,-118.248"/>
<polygon fill="midnightblue" stroke="midnightblue" points="1194.07,-176.328 1204.13,-172.994 1194.19,-169.329 1194.07,-176.328"/>
</g>
<!-- Node46 -->
<g id="node5" class="node"><title>Node46</title>
<a xlink:href="_kin_fit_i_m_check_8cc.html" target="_top" xlink:title="src/analysis/physics\l/check/KinFitIMCheck.cc">
<polygon fill="white" stroke="black" points="154,-79 154,-113 282,-113 282,-79 154,-79"/>
<text text-anchor="start" x="162" y="-100" font-family="Helvetica,sans-Serif" font-size="10.00">src/analysis/physics</text>
<text text-anchor="middle" x="218" y="-87" font-family="Helvetica,sans-Serif" font-size="10.00">/check/KinFitIMCheck.cc</text>
</a>
</g>
<!-- Node44&#45;&gt;Node46 -->
<g id="edge4" class="edge"><title>Node44&#45;&gt;Node46</title>
<path fill="none" stroke="midnightblue" d="M1194.07,-172.33C992.697,-167.642 463.55,-152.52 291,-120 282.085,-118.32 272.756,-115.839 263.861,-113.101"/>
<polygon fill="midnightblue" stroke="midnightblue" points="1194.2,-175.834 1204.28,-172.565 1194.36,-168.836 1194.2,-175.834"/>
</g>
<!-- Node47 -->
<g id="node7" class="node"><title>Node47</title>
<a xlink:href="_p_i_d_efficiency_check_8cc.html" target="_top" xlink:title="src/analysis/physics\l/check/PIDEfficiencyCheck.cc">
<polygon fill="white" stroke="black" points="300,-79 300,-113 452,-113 452,-79 300,-79"/>
<text text-anchor="start" x="308" y="-100" font-family="Helvetica,sans-Serif" font-size="10.00">src/analysis/physics</text>
<text text-anchor="middle" x="376" y="-87" font-family="Helvetica,sans-Serif" font-size="10.00">/check/PIDEfficiencyCheck.cc</text>
</a>
</g>
<!-- Node44&#45;&gt;Node47 -->
<g id="edge6" class="edge"><title>Node44&#45;&gt;Node47</title>
<path fill="none" stroke="midnightblue" d="M1194.11,-170.855C1018.61,-163.516 600.409,-144.045 461,-120 450.876,-118.254 440.229,-115.778 430.026,-113.073"/>
<polygon fill="midnightblue" stroke="midnightblue" points="1194.16,-174.36 1204.3,-171.279 1194.46,-167.366 1194.16,-174.36"/>
</g>
<!-- Node48 -->
<g id="node9" class="node"><title>Node48</title>
<a xlink:href="_three_photon_check_8cc.html" target="_top" xlink:title="src/analysis/physics\l/check/ThreePhotonCheck.cc">
<polygon fill="white" stroke="black" points="470,-79 470,-113 616,-113 616,-79 470,-79"/>
<text text-anchor="start" x="478" y="-100" font-family="Helvetica,sans-Serif" font-size="10.00">src/analysis/physics</text>
<text text-anchor="middle" x="543" y="-87" font-family="Helvetica,sans-Serif" font-size="10.00">/check/ThreePhotonCheck.cc</text>
</a>
</g>
<!-- Node44&#45;&gt;Node48 -->
<g id="edge8" class="edge"><title>Node44&#45;&gt;Node48</title>
<path fill="none" stroke="midnightblue" d="M1194.24,-172.541C1071.59,-169.126 827.948,-157.756 625,-120 615.375,-118.209 605.263,-115.747 595.554,-113.078"/>
<polygon fill="midnightblue" stroke="midnightblue" points="1194.2,-176.041 1204.29,-172.81 1194.39,-169.044 1194.2,-176.041"/>
</g>
<!-- Node49 -->
<g id="node11" class="node"><title>Node49</title>
<a xlink:href="_etap_omega_g_8cc.html" target="_top" xlink:title="src/analysis/physics\l/etaprime/EtapOmegaG.cc">
<polygon fill="white" stroke="black" points="633.5,-79 633.5,-113 766.5,-113 766.5,-79 633.5,-79"/>
<text text-anchor="start" x="641.5" y="-100" font-family="Helvetica,sans-Serif" font-size="10.00">src/analysis/physics</text>
<text text-anchor="middle" x="700" y="-87" font-family="Helvetica,sans-Serif" font-size="10.00">/etaprime/EtapOmegaG.cc</text>
</a>
</g>
<!-- Node44&#45;&gt;Node49 -->
<g id="edge10" class="edge"><title>Node44&#45;&gt;Node49</title>
<path fill="none" stroke="midnightblue" d="M1194.04,-170.359C1095.17,-164.678 921.053,-150.956 775,-120 766.307,-118.157 757.193,-115.703 748.433,-113.067"/>
<polygon fill="midnightblue" stroke="midnightblue" points="1194.06,-173.866 1204.24,-170.932 1194.46,-166.877 1194.06,-173.866"/>
</g>
<!-- Node50 -->
<g id="node13" class="node"><title>Node50</title>
<a xlink:href="_etap_omega_g__simple_8cc.html" target="_top" xlink:title="src/analysis/physics\l/etaprime/EtapOmegaG\l_simple.cc">
<polygon fill="white" stroke="black" points="783.5,-72.5 783.5,-119.5 902.5,-119.5 902.5,-72.5 783.5,-72.5"/>
<text text-anchor="start" x="791.5" y="-106.5" font-family="Helvetica,sans-Serif" font-size="10.00">src/analysis/physics</text>
<text text-anchor="start" x="791.5" y="-93.5" font-family="Helvetica,sans-Serif" font-size="10.00">/etaprime/EtapOmegaG</text>
<text text-anchor="middle" x="843" y="-80.5" font-family="Helvetica,sans-Serif" font-size="10.00">_simple.cc</text>
</a>
</g>
<!-- Node44&#45;&gt;Node50 -->
<g id="edge12" class="edge"><title>Node44&#45;&gt;Node50</title>
<path fill="none" stroke="midnightblue" d="M1194.02,-166.617C1120.11,-158.676 1007,-143.868 911,-120 908.206,-119.305 905.365,-118.542 902.508,-117.727"/>
<polygon fill="midnightblue" stroke="midnightblue" points="1193.87,-170.121 1204.18,-167.692 1194.61,-163.16 1193.87,-170.121"/>
</g>
<!-- Node51 -->
<g id="node15" class="node"><title>Node51</title>
<a xlink:href="etaprime__dalitz_8cc.html" target="_top" xlink:title="src/analysis/physics\l/etaprime/etaprime_dalitz.cc">
<polygon fill="white" stroke="black" points="920,-79 920,-113 1060,-113 1060,-79 920,-79"/>
<text text-anchor="start" x="928" y="-100" font-family="Helvetica,sans-Serif" font-size="10.00">src/analysis/physics</text>
<text text-anchor="middle" x="990" y="-87" font-family="Helvetica,sans-Serif" font-size="10.00">/etaprime/etaprime_dalitz.cc</text>
</a>
</g>
<!-- Node44&#45;&gt;Node51 -->
<g id="edge14" class="edge"><title>Node44&#45;&gt;Node51</title>
<path fill="none" stroke="midnightblue" d="M1196.17,-154.364C1157.87,-144.397 1110.89,-131.904 1069,-120 1061.28,-117.806 1053.15,-115.423 1045.17,-113.04"/>
<polygon fill="midnightblue" stroke="midnightblue" points="1195.66,-157.849 1206.22,-156.974 1197.42,-151.073 1195.66,-157.849"/>
</g>
<!-- Node52 -->
<g id="node17" class="node"><title>Node52</title>
<a xlink:href="_omega___eta_g_8cc.html" target="_top" xlink:title="src/analysis/physics\l/omega/Omega_EtaG.cc">
<polygon fill="white" stroke="black" points="1077.5,-79 1077.5,-113 1202.5,-113 1202.5,-79 1077.5,-79"/>
<text text-anchor="start" x="1085.5" y="-100" font-family="Helvetica,sans-Serif" font-size="10.00">src/analysis/physics</text>
<text text-anchor="middle" x="1140" y="-87" font-family="Helvetica,sans-Serif" font-size="10.00">/omega/Omega_EtaG.cc</text>
</a>
</g>
<!-- Node44&#45;&gt;Node52 -->
<g id="edge16" class="edge"><title>Node44&#45;&gt;Node52</title>
<path fill="none" stroke="midnightblue" d="M1235.15,-151.799C1214.18,-139.501 1188.51,-124.448 1169.12,-113.078"/>
<polygon fill="midnightblue" stroke="midnightblue" points="1233.42,-154.843 1243.81,-156.883 1236.96,-148.805 1233.42,-154.843"/>
</g>
<!-- Node53 -->
<g id="node19" class="node"><title>Node53</title>
<a xlink:href="_just_pi0_8cc.html" target="_top" xlink:title="src/analysis/physics\l/pi0/JustPi0.cc">
<polygon fill="white" stroke="black" points="1220,-79 1220,-113 1326,-113 1326,-79 1220,-79"/>
<text text-anchor="start" x="1228" y="-100" font-family="Helvetica,sans-Serif" font-size="10.00">src/analysis/physics</text>
<text text-anchor="middle" x="1273" y="-87" font-family="Helvetica,sans-Serif" font-size="10.00">/pi0/JustPi0.cc</text>
</a>
</g>
<!-- Node44&#45;&gt;Node53 -->
<g id="edge18" class="edge"><title>Node44&#45;&gt;Node53</title>
<path fill="none" stroke="midnightblue" d="M1273,-146.61C1273,-135.519 1273,-123.049 1273,-113.262"/>
<polygon fill="midnightblue" stroke="midnightblue" points="1269.5,-146.689 1273,-156.689 1276.5,-146.689 1269.5,-146.689"/>
</g>
<!-- Node54 -->
<g id="node21" class="node"><title>Node54</title>
<a xlink:href="single_pi0_8cc.html" target="_top" xlink:title="src/analysis/physics\l/production/singlePi0.cc">
<polygon fill="white" stroke="black" points="1343.5,-79 1343.5,-113 1464.5,-113 1464.5,-79 1343.5,-79"/>
<text text-anchor="start" x="1351.5" y="-100" font-family="Helvetica,sans-Serif" font-size="10.00">src/analysis/physics</text>
<text text-anchor="middle" x="1404" y="-87" font-family="Helvetica,sans-Serif" font-size="10.00">/production/singlePi0.cc</text>
</a>
</g>
<!-- Node44&#45;&gt;Node54 -->
<g id="edge20" class="edge"><title>Node44&#45;&gt;Node54</title>
<path fill="none" stroke="midnightblue" d="M1310.56,-151.635C1331.17,-139.367 1356.31,-124.398 1375.32,-113.078"/>
<polygon fill="midnightblue" stroke="midnightblue" points="1308.55,-148.759 1301.75,-156.883 1312.13,-154.774 1308.55,-148.759"/>
</g>
<!-- Node55 -->
<g id="node23" class="node"><title>Node55</title>
<a xlink:href="triple_pi0_8cc.html" target="_top" xlink:title="src/analysis/physics\l/production/triplePi0.cc">
<polygon fill="white" stroke="black" points="1482,-79 1482,-113 1598,-113 1598,-79 1482,-79"/>
<text text-anchor="start" x="1490" y="-100" font-family="Helvetica,sans-Serif" font-size="10.00">src/analysis/physics</text>
<text text-anchor="middle" x="1540" y="-87" font-family="Helvetica,sans-Serif" font-size="10.00">/production/triplePi0.cc</text>
</a>
</g>
<!-- Node44&#45;&gt;Node55 -->
<g id="edge22" class="edge"><title>Node44&#45;&gt;Node55</title>
<path fill="none" stroke="midnightblue" d="M1351.19,-154.444C1388.3,-144.766 1433.15,-132.495 1473,-120 1479.84,-117.856 1487.02,-115.451 1494.03,-113.015"/>
<polygon fill="midnightblue" stroke="midnightblue" points="1350.23,-151.076 1341.43,-156.975 1351.99,-157.852 1350.23,-151.076"/>
</g>
<!-- Node56 -->
<g id="node25" class="node"><title>Node56</title>
<a xlink:href="_proton_vertex_test_8cc.html" target="_top" xlink:title="src/analysis/physics\l/scratch/wolfes/ProtonVertex\lTest.cc">
<polygon fill="white" stroke="black" points="1615.5,-72.5 1615.5,-119.5 1758.5,-119.5 1758.5,-72.5 1615.5,-72.5"/>
<text text-anchor="start" x="1623.5" y="-106.5" font-family="Helvetica,sans-Serif" font-size="10.00">src/analysis/physics</text>
<text text-anchor="start" x="1623.5" y="-93.5" font-family="Helvetica,sans-Serif" font-size="10.00">/scratch/wolfes/ProtonVertex</text>
<text text-anchor="middle" x="1687" y="-80.5" font-family="Helvetica,sans-Serif" font-size="10.00">Test.cc</text>
</a>
</g>
<!-- Node44&#45;&gt;Node56 -->
<g id="edge24" class="edge"><title>Node44&#45;&gt;Node56</title>
<path fill="none" stroke="midnightblue" d="M1351.85,-164.224C1419.89,-155.082 1520.56,-139.864 1607,-120 1609.69,-119.383 1612.41,-118.725 1615.16,-118.037"/>
<polygon fill="midnightblue" stroke="midnightblue" points="1351.08,-160.795 1341.63,-165.584 1352.01,-167.733 1351.08,-160.795"/>
</g>
<!-- Node57 -->
<g id="node27" class="node"><title>Node57</title>
<a xlink:href="_test_sigma_plus_fitter_8cc.html" target="_top" xlink:title="src/analysis/physics\l/test/TestSigmaPlusFitter.cc">
<polygon fill="white" stroke="black" points="1776,-79 1776,-113 1918,-113 1918,-79 1776,-79"/>
<text text-anchor="start" x="1784" y="-100" font-family="Helvetica,sans-Serif" font-size="10.00">src/analysis/physics</text>
<text text-anchor="middle" x="1847" y="-87" font-family="Helvetica,sans-Serif" font-size="10.00">/test/TestSigmaPlusFitter.cc</text>
</a>
</g>
<!-- Node44&#45;&gt;Node57 -->
<g id="edge26" class="edge"><title>Node44&#45;&gt;Node57</title>
<path fill="none" stroke="midnightblue" d="M1351.65,-169.843C1449.7,-163.645 1622.05,-149.408 1767,-120 1776.24,-118.126 1785.94,-115.656 1795.28,-113.014"/>
<polygon fill="midnightblue" stroke="midnightblue" points="1351.29,-166.358 1341.53,-170.471 1351.73,-173.345 1351.29,-166.358"/>
</g>
<!-- Node58 -->
<g id="node29" class="node"><title>Node58</title>
<a xlink:href="analysis_2physics_2tunings_2_interpolated_pulls_8h.html" target="_top" xlink:title="src/analysis/physics\l/tunings/InterpolatedPulls.h">
<polygon fill="white" stroke="black" points="1935.5,-79 1935.5,-113 2070.5,-113 2070.5,-79 1935.5,-79"/>
<text text-anchor="start" x="1943.5" y="-100" font-family="Helvetica,sans-Serif" font-size="10.00">src/analysis/physics</text>
<text text-anchor="middle" x="2003" y="-87" font-family="Helvetica,sans-Serif" font-size="10.00">/tunings/InterpolatedPulls.h</text>
</a>
</g>
<!-- Node44&#45;&gt;Node58 -->
<g id="edge28" class="edge"><title>Node44&#45;&gt;Node58</title>
<path fill="none" stroke="midnightblue" d="M1351.73,-169.709C1500.77,-161.22 1818.88,-141.256 1927,-120 1936.1,-118.212 1945.64,-115.715 1954.77,-113.004"/>
<polygon fill="midnightblue" stroke="midnightblue" points="1351.52,-166.215 1341.73,-170.276 1351.91,-173.204 1351.52,-166.215"/>
</g>
<!-- Node60 -->
<g id="node33" class="node"><title>Node60</title>
<a xlink:href="physics_2tunings_2_trigger_simulation_8cc.html" target="_top" xlink:title="src/analysis/physics\l/tunings/TriggerSimulation.cc">
<polygon fill="white" stroke="black" points="2087.5,-79 2087.5,-113 2230.5,-113 2230.5,-79 2087.5,-79"/>
<text text-anchor="start" x="2095.5" y="-100" font-family="Helvetica,sans-Serif" font-size="10.00">src/analysis/physics</text>
<text text-anchor="middle" x="2159" y="-87" font-family="Helvetica,sans-Serif" font-size="10.00">/tunings/TriggerSimulation.cc</text>
</a>
</g>
<!-- Node44&#45;&gt;Node60 -->
<g id="edge32" class="edge"><title>Node44&#45;&gt;Node60</title>
<path fill="none" stroke="midnightblue" d="M1351.66,-170.981C1526.11,-163.92 1940.91,-145.012 2079,-120 2088.56,-118.269 2098.6,-115.799 2108.2,-113.097"/>
<polygon fill="midnightblue" stroke="midnightblue" points="1351.38,-167.49 1341.52,-171.389 1351.66,-174.484 1351.38,-167.49"/>
</g>
<!-- Node61 -->
<g id="node35" class="node"><title>Node61</title>
<a xlink:href="_interpolated_8cc.html" target="_top" xlink:title="src/analysis/utils\l/uncertainties/Interpolated.cc">
<polygon fill="white" stroke="black" points="2247.5,-79 2247.5,-113 2390.5,-113 2390.5,-79 2247.5,-79"/>
<text text-anchor="start" x="2255.5" y="-100" font-family="Helvetica,sans-Serif" font-size="10.00">src/analysis/utils</text>
<text text-anchor="middle" x="2319" y="-87" font-family="Helvetica,sans-Serif" font-size="10.00">/uncertainties/Interpolated.cc</text>
</a>
</g>
<!-- Node44&#45;&gt;Node61 -->
<g id="edge34" class="edge"><title>Node44&#45;&gt;Node61</title>
<path fill="none" stroke="midnightblue" d="M1351.66,-171.991C1550.44,-166.53 2069.17,-149.791 2239,-120 2248.71,-118.296 2258.91,-115.804 2268.65,-113.063"/>
<polygon fill="midnightblue" stroke="midnightblue" points="1351.49,-168.494 1341.59,-172.265 1351.68,-175.491 1351.49,-168.494"/>
</g>
<!-- Node62 -->
<g id="node37" class="node"><title>Node62</title>
<a xlink:href="root-addons_2analysis__codes_2_interpolated_pulls_8cc.html" target="_top" xlink:title="src/root&#45;addons/analysis\l_codes/InterpolatedPulls.cc">
<polygon fill="white" stroke="black" points="2407.5,-79 2407.5,-113 2544.5,-113 2544.5,-79 2407.5,-79"/>
<text text-anchor="start" x="2415.5" y="-100" font-family="Helvetica,sans-Serif" font-size="10.00">src/root&#45;addons/analysis</text>
<text text-anchor="middle" x="2476" y="-87" font-family="Helvetica,sans-Serif" font-size="10.00">_codes/InterpolatedPulls.cc</text>
</a>
</g>
<!-- Node44&#45;&gt;Node62 -->
<g id="edge36" class="edge"><title>Node44&#45;&gt;Node62</title>
<path fill="none" stroke="midnightblue" d="M1351.99,-172.819C1573.48,-169.092 2197.43,-155.645 2399,-120 2408.51,-118.318 2418.49,-115.798 2428,-113.016"/>
<polygon fill="midnightblue" stroke="midnightblue" points="1351.69,-169.323 1341.75,-172.989 1351.81,-176.322 1351.69,-169.323"/>
</g>
<!-- Node59 -->
<g id="node31" class="node"><title>Node59</title>
<a xlink:href="analysis_2physics_2tunings_2_interpolated_pulls_8cc.html" target="_top" xlink:title="src/analysis/physics\l/tunings/InterpolatedPulls.cc">
<polygon fill="white" stroke="black" points="1933,-1 1933,-35 2073,-35 2073,-1 1933,-1"/>
<text text-anchor="start" x="1941" y="-22" font-family="Helvetica,sans-Serif" font-size="10.00">src/analysis/physics</text>
<text text-anchor="middle" x="2003" y="-9" font-family="Helvetica,sans-Serif" font-size="10.00">/tunings/InterpolatedPulls.cc</text>
</a>
</g>
<!-- Node58&#45;&gt;Node59 -->
<g id="edge30" class="edge"><title>Node58&#45;&gt;Node59</title>
<path fill="none" stroke="midnightblue" d="M2003,-68.6102C2003,-57.5188 2003,-45.0489 2003,-35.2623"/>
<polygon fill="midnightblue" stroke="midnightblue" points="1999.5,-68.6892 2003,-78.6893 2006.5,-68.6893 1999.5,-68.6892"/>
</g>
</g>
</svg>
