<?xml version="1.0" encoding="UTF-8" standalone="no"?>
<!DOCTYPE svg PUBLIC "-//W3C//DTD SVG 1.1//EN"
 "http://www.w3.org/Graphics/SVG/1.1/DTD/svg11.dtd">
<!-- Generated by graphviz version 2.26.3 (20100126.1600)
 -->
<!-- Title: src/analysis/physics/pi0/JustPi0.h Pages: 1 -->
<svg width="272pt" height="116pt"
 viewBox="0.00 0.00 272.00 116.00" xmlns="http://www.w3.org/2000/svg" xmlns:xlink="http://www.w3.org/1999/xlink">
<g id="graph1" class="graph" transform="scale(1 1) rotate(0) translate(4 112)">
<title>src/analysis/physics/pi0/JustPi0.h</title>
<polygon fill="white" stroke="white" points="-4,5 -4,-112 269,-112 269,5 -4,5"/>
<!-- Node98 -->
<g id="node1" class="node"><title>Node98</title>
<polygon fill="#bfbfbf" stroke="black" points="87,-73 87,-107 193,-107 193,-73 87,-73"/>
<text text-anchor="start" x="95" y="-94" font-family="Helvetica,sans-Serif" font-size="10.00">src/analysis/physics</text>
<text text-anchor="middle" x="140" y="-81" font-family="Helvetica,sans-Serif" font-size="10.00">/pi0/JustPi0.h</text>
</g>
<!-- Node99 -->
<g id="node3" class="node"><title>Node99</title>
<a xlink:href="_ant-alt_veto_cal_tool_8cc.html" target="_top" xlink:title="progs/Ant&#45;altVetoCalTool.cc">
<polygon fill="white" stroke="black" points="0,-7.5 0,-28.5 140,-28.5 140,-7.5 0,-7.5"/>
<text text-anchor="middle" x="70" y="-15.5" font-family="Helvetica,sans-Serif" font-size="10.00">progs/Ant&#45;altVetoCalTool.cc</text>
</a>
</g>
<!-- Node98&#45;&gt;Node99 -->
<g id="edge2" class="edge"><title>Node98&#45;&gt;Node99</title>
<path fill="none" stroke="midnightblue" d="M116.196,-65.5161C104.099,-53.0732 90.007,-38.5787 80.5982,-28.901"/>
<polygon fill="midnightblue" stroke="midnightblue" points="113.931,-68.2068 123.411,-72.937 118.95,-63.3272 113.931,-68.2068"/>
</g>
<!-- Node100 -->
<g id="node5" class="node"><title>Node100</title>
<a xlink:href="_just_pi0_8cc.html" target="_top" xlink:title="src/analysis/physics\l/pi0/JustPi0.cc">
<polygon fill="white" stroke="black" points="158,-1 158,-35 264,-35 264,-1 158,-1"/>
<text text-anchor="start" x="166" y="-22" font-family="Helvetica,sans-Serif" font-size="10.00">src/analysis/physics</text>
<text text-anchor="middle" x="211" y="-9" font-family="Helvetica,sans-Serif" font-size="10.00">/pi0/JustPi0.cc</text>
</a>
</g>
<!-- Node98&#45;&gt;Node100 -->
<g id="edge4" class="edge"><title>Node98&#45;&gt;Node100</title>
<path fill="none" stroke="midnightblue" d="M163.992,-65.6706C173.769,-55.7551 184.853,-44.5151 193.802,-35.4407"/>
<polygon fill="midnightblue" stroke="midnightblue" points="161.355,-63.3591 156.826,-72.937 166.34,-68.2742 161.355,-63.3591"/>
</g>
</g>
</svg>
