<?xml version="1.0" encoding="UTF-8" standalone="no"?>
<!DOCTYPE svg PUBLIC "-//W3C//DTD SVG 1.1//EN"
 "http://www.w3.org/Graphics/SVG/1.1/DTD/svg11.dtd">
<!-- Generated by graphviz version 2.26.3 (20100126.1600)
 -->
<!-- Title: src/calibration/fitfunctions/KnobsTF1.cc Pages: 1 -->
<svg width="263pt" height="232pt"
 viewBox="0.00 0.00 263.00 232.00" xmlns="http://www.w3.org/2000/svg" xmlns:xlink="http://www.w3.org/1999/xlink">
<g id="graph1" class="graph" transform="scale(1 1) rotate(0) translate(4 228)">
<title>src/calibration/fitfunctions/KnobsTF1.cc</title>
<polygon fill="white" stroke="white" points="-4,5 -4,-228 260,-228 260,5 -4,5"/>
<!-- Node0 -->
<g id="node1" class="node"><title>Node0</title>
<polygon fill="#bfbfbf" stroke="black" points="127,-189 127,-223 255,-223 255,-189 127,-189"/>
<text text-anchor="start" x="135" y="-210" font-family="Helvetica,sans-Serif" font-size="10.00">src/calibration/fitfunctions</text>
<text text-anchor="middle" x="191" y="-197" font-family="Helvetica,sans-Serif" font-size="10.00">/KnobsTF1.cc</text>
</g>
<!-- Node1 -->
<g id="node3" class="node"><title>Node1</title>
<a xlink:href="_knobs_t_f1_8h.html" target="_top" xlink:title="KnobsTF1.h">
<polygon fill="white" stroke="black" points="119,-130.5 119,-151.5 189,-151.5 189,-130.5 119,-130.5"/>
<text text-anchor="middle" x="154" y="-138.5" font-family="Helvetica,sans-Serif" font-size="10.00">KnobsTF1.h</text>
</a>
</g>
<!-- Node0&#45;&gt;Node1 -->
<g id="edge2" class="edge"><title>Node0&#45;&gt;Node1</title>
<path fill="none" stroke="midnightblue" d="M181.279,-188.922C176.373,-180.304 170.395,-169.802 165.287,-160.828"/>
<polygon fill="midnightblue" stroke="midnightblue" points="168.166,-158.811 160.177,-151.852 162.083,-162.274 168.166,-158.811"/>
</g>
<!-- Node6 -->
<g id="node13" class="node"><title>Node6</title>
<polygon fill="white" stroke="#bfbfbf" points="207,-130.5 207,-151.5 249,-151.5 249,-130.5 207,-130.5"/>
<text text-anchor="middle" x="228" y="-138.5" font-family="Helvetica,sans-Serif" font-size="10.00">TF1.h</text>
</g>
<!-- Node0&#45;&gt;Node6 -->
<g id="edge12" class="edge"><title>Node0&#45;&gt;Node6</title>
<path fill="none" stroke="midnightblue" d="M200.721,-188.922C205.627,-180.304 211.605,-169.802 216.713,-160.828"/>
<polygon fill="midnightblue" stroke="midnightblue" points="219.917,-162.274 221.823,-151.852 213.834,-158.811 219.917,-162.274"/>
</g>
<!-- Node2 -->
<g id="node5" class="node"><title>Node2</title>
<a xlink:href="_indicator__traits_8h.html" target="_top" xlink:title="calibration/gui/Indicator\l_traits.h">
<polygon fill="white" stroke="black" points="-0.5,-59 -0.5,-93 116.5,-93 116.5,-59 -0.5,-59"/>
<text text-anchor="start" x="7.5" y="-80" font-family="Helvetica,sans-Serif" font-size="10.00">calibration/gui/Indicator</text>
<text text-anchor="middle" x="58" y="-67" font-family="Helvetica,sans-Serif" font-size="10.00">_traits.h</text>
</a>
</g>
<!-- Node1&#45;&gt;Node2 -->
<g id="edge4" class="edge"><title>Node1&#45;&gt;Node2</title>
<path fill="none" stroke="midnightblue" d="M138.148,-130.267C125.566,-121.748 107.531,-109.537 91.7537,-98.8541"/>
<polygon fill="midnightblue" stroke="midnightblue" points="93.5128,-95.8183 83.2699,-93.1099 89.5881,-101.615 93.5128,-95.8183"/>
</g>
<!-- Node4 -->
<g id="node9" class="node"><title>Node4</title>
<polygon fill="white" stroke="#bfbfbf" points="133.5,-65.5 133.5,-86.5 174.5,-86.5 174.5,-65.5 133.5,-65.5"/>
<text text-anchor="middle" x="154" y="-73.5" font-family="Helvetica,sans-Serif" font-size="10.00">string</text>
</g>
<!-- Node1&#45;&gt;Node4 -->
<g id="edge8" class="edge"><title>Node1&#45;&gt;Node4</title>
<path fill="none" stroke="midnightblue" d="M154,-130.267C154,-121.18 154,-107.892 154,-96.7395"/>
<polygon fill="midnightblue" stroke="midnightblue" points="157.5,-96.5337 154,-86.5337 150.5,-96.5337 157.5,-96.5337"/>
</g>
<!-- Node5 -->
<g id="node11" class="node"><title>Node5</title>
<polygon fill="white" stroke="#bfbfbf" points="191.5,-65.5 191.5,-86.5 250.5,-86.5 250.5,-65.5 191.5,-65.5"/>
<text text-anchor="middle" x="221" y="-73.5" font-family="Helvetica,sans-Serif" font-size="10.00">functional</text>
</g>
<!-- Node1&#45;&gt;Node5 -->
<g id="edge10" class="edge"><title>Node1&#45;&gt;Node5</title>
<path fill="none" stroke="midnightblue" d="M165.064,-130.267C175.308,-120.328 190.733,-105.363 202.792,-93.6645"/>
<polygon fill="midnightblue" stroke="midnightblue" points="205.402,-96.009 210.142,-86.5337 200.528,-90.9848 205.402,-96.009"/>
</g>
<!-- Node3 -->
<g id="node7" class="node"><title>Node3</title>
<polygon fill="white" stroke="#bfbfbf" points="30,-0.5 30,-21.5 86,-21.5 86,-0.5 30,-0.5"/>
<text text-anchor="middle" x="58" y="-8.5" font-family="Helvetica,sans-Serif" font-size="10.00">Rtypes.h</text>
</g>
<!-- Node2&#45;&gt;Node3 -->
<g id="edge6" class="edge"><title>Node2&#45;&gt;Node3</title>
<path fill="none" stroke="midnightblue" d="M58,-58.922C58,-50.6704 58,-40.6922 58,-31.9818"/>
<polygon fill="midnightblue" stroke="midnightblue" points="61.5001,-31.8521 58,-21.8521 54.5001,-31.8521 61.5001,-31.8521"/>
</g>
</g>
</svg>
