<?xml version="1.0" encoding="UTF-8" standalone="no"?>
<!DOCTYPE svg PUBLIC "-//W3C//DTD SVG 1.1//EN"
 "http://www.w3.org/Graphics/SVG/1.1/DTD/svg11.dtd">
<!-- Generated by graphviz version 2.26.3 (20100126.1600)
 -->
<!-- Title: src/analysis/utils/MCSmear.h Pages: 1 -->
<svg width="414pt" height="116pt"
 viewBox="0.00 0.00 414.00 116.00" xmlns="http://www.w3.org/2000/svg" xmlns:xlink="http://www.w3.org/1999/xlink">
<g id="graph1" class="graph" transform="scale(1 1) rotate(0) translate(4 112)">
<title>src/analysis/utils/MCSmear.h</title>
<polygon fill="white" stroke="white" points="-4,5 -4,-112 411,-112 411,5 -4,5"/>
<!-- Node42 -->
<g id="node1" class="node"><title>Node42</title>
<polygon fill="#bfbfbf" stroke="black" points="128,-73 128,-107 218,-107 218,-73 128,-73"/>
<text text-anchor="start" x="136" y="-94" font-family="Helvetica,sans-Serif" font-size="10.00">src/analysis/utils</text>
<text text-anchor="middle" x="173" y="-81" font-family="Helvetica,sans-Serif" font-size="10.00">/MCSmear.h</text>
</g>
<!-- Node43 -->
<g id="node3" class="node"><title>Node43</title>
<a xlink:href="_m_c_smear_8cc.html" target="_top" xlink:title="src/analysis/utils\l/MCSmear.cc">
<polygon fill="white" stroke="black" points="0,-1 0,-35 90,-35 90,-1 0,-1"/>
<text text-anchor="start" x="8" y="-22" font-family="Helvetica,sans-Serif" font-size="10.00">src/analysis/utils</text>
<text text-anchor="middle" x="45" y="-9" font-family="Helvetica,sans-Serif" font-size="10.00">/MCSmear.cc</text>
</a>
</g>
<!-- Node42&#45;&gt;Node43 -->
<g id="edge2" class="edge"><title>Node42&#45;&gt;Node43</title>
<path fill="none" stroke="midnightblue" d="M133.782,-67.9398C115.067,-57.4125 93.0079,-45.0044 75.5601,-35.19"/>
<polygon fill="midnightblue" stroke="midnightblue" points="132.234,-71.0849 142.666,-72.937 135.666,-64.9838 132.234,-71.0849"/>
</g>
<!-- Node44 -->
<g id="node5" class="node"><title>Node44</title>
<a xlink:href="_test_fitter_8cc.html" target="_top" xlink:title="test/analysis/TestFitter.cc">
<polygon fill="white" stroke="black" points="107.5,-7.5 107.5,-28.5 238.5,-28.5 238.5,-7.5 107.5,-7.5"/>
<text text-anchor="middle" x="173" y="-15.5" font-family="Helvetica,sans-Serif" font-size="10.00">test/analysis/TestFitter.cc</text>
</a>
</g>
<!-- Node42&#45;&gt;Node44 -->
<g id="edge4" class="edge"><title>Node42&#45;&gt;Node44</title>
<path fill="none" stroke="midnightblue" d="M173,-62.6667C173,-50.9127 173,-37.8483 173,-28.901"/>
<polygon fill="midnightblue" stroke="midnightblue" points="169.5,-62.937 173,-72.937 176.5,-62.937 169.5,-62.937"/>
</g>
<!-- Node45 -->
<g id="node7" class="node"><title>Node45</title>
<a xlink:href="_test_tree_fitter_8cc.html" target="_top" xlink:title="test/analysis/TestTreeFitter.cc">
<polygon fill="white" stroke="black" points="256,-7.5 256,-28.5 406,-28.5 406,-7.5 256,-7.5"/>
<text text-anchor="middle" x="331" y="-15.5" font-family="Helvetica,sans-Serif" font-size="10.00">test/analysis/TestTreeFitter.cc</text>
</a>
</g>
<!-- Node42&#45;&gt;Node45 -->
<g id="edge6" class="edge"><title>Node42&#45;&gt;Node45</title>
<path fill="none" stroke="midnightblue" d="M219.563,-68.7812C248.489,-55.5999 284.436,-39.2192 307.546,-28.688"/>
<polygon fill="midnightblue" stroke="midnightblue" points="218.092,-65.6053 210.444,-72.937 220.995,-71.9751 218.092,-65.6053"/>
</g>
</g>
</svg>
