<?xml version="1.0" encoding="UTF-8" standalone="no"?>
<!DOCTYPE svg PUBLIC "-//W3C//DTD SVG 1.1//EN"
 "http://www.w3.org/Graphics/SVG/1.1/DTD/svg11.dtd">
<!-- Generated by graphviz version 2.26.3 (20100126.1600)
 -->
<!-- Title: src/analysis/utils/uncertainties/MCSmearingAdlarson.h Pages: 1 -->
<svg width="194pt" height="116pt"
 viewBox="0.00 0.00 194.00 116.00" xmlns="http://www.w3.org/2000/svg" xmlns:xlink="http://www.w3.org/1999/xlink">
<g id="graph1" class="graph" transform="scale(1 1) rotate(0) translate(4 112)">
<title>src/analysis/utils/uncertainties/MCSmearingAdlarson.h</title>
<polygon fill="white" stroke="white" points="-4,5 -4,-112 191,-112 191,5 -4,5"/>
<!-- Node42 -->
<g id="node1" class="node"><title>Node42</title>
<polygon fill="#bfbfbf" stroke="black" points="2,-73 2,-107 184,-107 184,-73 2,-73"/>
<text text-anchor="start" x="10" y="-94" font-family="Helvetica,sans-Serif" font-size="10.00">src/analysis/utils</text>
<text text-anchor="middle" x="93" y="-81" font-family="Helvetica,sans-Serif" font-size="10.00">/uncertainties/MCSmearingAdlarson.h</text>
</g>
<!-- Node43 -->
<g id="node3" class="node"><title>Node43</title>
<a xlink:href="_m_c_smearing_adlarson_8cc.html" target="_top" xlink:title="src/analysis/utils\l/uncertainties/MCSmearingAdlarson.cc">
<polygon fill="white" stroke="black" points="-0.5,-1 -0.5,-35 186.5,-35 186.5,-1 -0.5,-1"/>
<text text-anchor="start" x="7.5" y="-22" font-family="Helvetica,sans-Serif" font-size="10.00">src/analysis/utils</text>
<text text-anchor="middle" x="93" y="-9" font-family="Helvetica,sans-Serif" font-size="10.00">/uncertainties/MCSmearingAdlarson.cc</text>
</a>
</g>
<!-- Node42&#45;&gt;Node43 -->
<g id="edge2" class="edge"><title>Node42&#45;&gt;Node43</title>
<path fill="none" stroke="midnightblue" d="M93,-62.7193C93,-53.572 93,-43.6255 93,-35.4407"/>
<polygon fill="midnightblue" stroke="midnightblue" points="89.5001,-62.937 93,-72.937 96.5001,-62.937 89.5001,-62.937"/>
</g>
</g>
</svg>
