<?xml version="1.0" encoding="UTF-8" standalone="no"?>
<!DOCTYPE svg PUBLIC "-//W3C//DTD SVG 1.1//EN"
 "http://www.w3.org/Graphics/SVG/1.1/DTD/svg11.dtd">
<!-- Generated by graphviz version 2.26.3 (20100126.1600)
 -->
<!-- Title: src/calibration/gui/Manager.h Pages: 1 -->
<svg width="526pt" height="116pt"
 viewBox="0.00 0.00 526.00 116.00" xmlns="http://www.w3.org/2000/svg" xmlns:xlink="http://www.w3.org/1999/xlink">
<g id="graph1" class="graph" transform="scale(1 1) rotate(0) translate(4 112)">
<title>src/calibration/gui/Manager.h</title>
<polygon fill="white" stroke="white" points="-4,5 -4,-112 523,-112 523,5 -4,5"/>
<!-- Node24 -->
<g id="node1" class="node"><title>Node24</title>
<polygon fill="#bfbfbf" stroke="black" points="169.5,-73 169.5,-107 262.5,-107 262.5,-73 169.5,-73"/>
<text text-anchor="start" x="177.5" y="-94" font-family="Helvetica,sans-Serif" font-size="10.00">src/calibration/gui</text>
<text text-anchor="middle" x="216" y="-81" font-family="Helvetica,sans-Serif" font-size="10.00">/Manager.h</text>
</g>
<!-- Node25 -->
<g id="node3" class="node"><title>Node25</title>
<a xlink:href="_ant-calib_8cc.html" target="_top" xlink:title="progs/Ant&#45;calib.cc">
<polygon fill="white" stroke="black" points="-0.5,-7.5 -0.5,-28.5 94.5,-28.5 94.5,-7.5 -0.5,-7.5"/>
<text text-anchor="middle" x="47" y="-15.5" font-family="Helvetica,sans-Serif" font-size="10.00">progs/Ant&#45;calib.cc</text>
</a>
</g>
<!-- Node24&#45;&gt;Node25 -->
<g id="edge2" class="edge"><title>Node24&#45;&gt;Node25</title>
<path fill="none" stroke="midnightblue" d="M166.596,-68.9523C135.589,-55.7418 96.9131,-39.2647 72.0872,-28.688"/>
<polygon fill="midnightblue" stroke="midnightblue" points="165.378,-72.2374 175.949,-72.937 168.121,-65.7975 165.378,-72.2374"/>
</g>
<!-- Node26 -->
<g id="node5" class="node"><title>Node26</title>
<a xlink:href="_manager_8cc.html" target="_top" xlink:title="src/calibration/gui\l/Manager.cc">
<polygon fill="white" stroke="black" points="111.5,-1 111.5,-35 204.5,-35 204.5,-1 111.5,-1"/>
<text text-anchor="start" x="119.5" y="-22" font-family="Helvetica,sans-Serif" font-size="10.00">src/calibration/gui</text>
<text text-anchor="middle" x="158" y="-9" font-family="Helvetica,sans-Serif" font-size="10.00">/Manager.cc</text>
</a>
</g>
<!-- Node24&#45;&gt;Node26 -->
<g id="edge4" class="edge"><title>Node24&#45;&gt;Node26</title>
<path fill="none" stroke="midnightblue" d="M195.93,-65.0858C188.059,-55.3151 179.216,-44.3372 172.049,-35.4407"/>
<polygon fill="midnightblue" stroke="midnightblue" points="193.256,-67.3451 202.255,-72.937 198.707,-62.9538 193.256,-67.3451"/>
</g>
<!-- Node27 -->
<g id="node7" class="node"><title>Node27</title>
<a xlink:href="_manager_window_8cc.html" target="_top" xlink:title="src/calibration/gui\l/ManagerWindow.cc">
<polygon fill="white" stroke="black" points="222,-1 222,-35 328,-35 328,-1 222,-1"/>
<text text-anchor="start" x="230" y="-22" font-family="Helvetica,sans-Serif" font-size="10.00">src/calibration/gui</text>
<text text-anchor="middle" x="275" y="-9" font-family="Helvetica,sans-Serif" font-size="10.00">/ManagerWindow.cc</text>
</a>
</g>
<!-- Node24&#45;&gt;Node27 -->
<g id="edge6" class="edge"><title>Node24&#45;&gt;Node27</title>
<path fill="none" stroke="midnightblue" d="M236.416,-65.0858C244.422,-55.3151 253.418,-44.3372 260.708,-35.4407"/>
<polygon fill="midnightblue" stroke="midnightblue" points="233.613,-62.9838 229.982,-72.937 239.028,-67.4206 233.613,-62.9838"/>
</g>
<!-- Node28 -->
<g id="node9" class="node"><title>Node28</title>
<a xlink:href="_test_g_u_i_manager_8cc.html" target="_top" xlink:title="test/calibration/TestGUIManager.cc">
<polygon fill="white" stroke="black" points="346,-7.5 346,-28.5 518,-28.5 518,-7.5 346,-7.5"/>
<text text-anchor="middle" x="432" y="-15.5" font-family="Helvetica,sans-Serif" font-size="10.00">test/calibration/TestGUIManager.cc</text>
</a>
</g>
<!-- Node24&#45;&gt;Node28 -->
<g id="edge8" class="edge"><title>Node24&#45;&gt;Node28</title>
<path fill="none" stroke="midnightblue" d="M272.166,-71.2781C313.039,-57.6536 366.897,-39.7009 400.483,-28.5055"/>
<polygon fill="midnightblue" stroke="midnightblue" points="270.983,-67.983 262.603,-74.4657 273.197,-74.6238 270.983,-67.983"/>
</g>
</g>
</svg>
