<?xml version="1.0" encoding="UTF-8" standalone="no"?>
<!DOCTYPE svg PUBLIC "-//W3C//DTD SVG 1.1//EN"
 "http://www.w3.org/Graphics/SVG/1.1/DTD/svg11.dtd">
<!-- Generated by graphviz version 2.26.3 (20100126.1600)
 -->
<!-- Title: src/calibration/gui/ManagerWindow.h Pages: 1 -->
<svg width="226pt" height="116pt"
 viewBox="0.00 0.00 226.00 116.00" xmlns="http://www.w3.org/2000/svg" xmlns:xlink="http://www.w3.org/1999/xlink">
<g id="graph1" class="graph" transform="scale(1 1) rotate(0) translate(4 112)">
<title>src/calibration/gui/ManagerWindow.h</title>
<polygon fill="white" stroke="white" points="-4,5 -4,-112 223,-112 223,5 -4,5"/>
<!-- Node39 -->
<g id="node1" class="node"><title>Node39</title>
<polygon fill="#bfbfbf" stroke="black" points="55.5,-73 55.5,-107 156.5,-107 156.5,-73 55.5,-73"/>
<text text-anchor="start" x="63.5" y="-94" font-family="Helvetica,sans-Serif" font-size="10.00">src/calibration/gui</text>
<text text-anchor="middle" x="106" y="-81" font-family="Helvetica,sans-Serif" font-size="10.00">/ManagerWindow.h</text>
</g>
<!-- Node40 -->
<g id="node3" class="node"><title>Node40</title>
<a xlink:href="_ant-calib_8cc.html" target="_top" xlink:title="progs/Ant&#45;calib.cc">
<polygon fill="white" stroke="black" points="-0.5,-7.5 -0.5,-28.5 94.5,-28.5 94.5,-7.5 -0.5,-7.5"/>
<text text-anchor="middle" x="47" y="-15.5" font-family="Helvetica,sans-Serif" font-size="10.00">progs/Ant&#45;calib.cc</text>
</a>
</g>
<!-- Node39&#45;&gt;Node40 -->
<g id="edge2" class="edge"><title>Node39&#45;&gt;Node40</title>
<path fill="none" stroke="midnightblue" d="M85.6478,-65.1634C75.5167,-52.8001 63.7883,-38.4874 55.9328,-28.901"/>
<polygon fill="midnightblue" stroke="midnightblue" points="82.9724,-67.4206 92.0178,-72.937 88.3867,-62.9838 82.9724,-67.4206"/>
</g>
<!-- Node41 -->
<g id="node5" class="node"><title>Node41</title>
<a xlink:href="_manager_window_8cc.html" target="_top" xlink:title="src/calibration/gui\l/ManagerWindow.cc">
<polygon fill="white" stroke="black" points="112,-1 112,-35 218,-35 218,-1 112,-1"/>
<text text-anchor="start" x="120" y="-22" font-family="Helvetica,sans-Serif" font-size="10.00">src/calibration/gui</text>
<text text-anchor="middle" x="165" y="-9" font-family="Helvetica,sans-Serif" font-size="10.00">/ManagerWindow.cc</text>
</a>
</g>
<!-- Node39&#45;&gt;Node41 -->
<g id="edge4" class="edge"><title>Node39&#45;&gt;Node41</title>
<path fill="none" stroke="midnightblue" d="M126.416,-65.0858C134.422,-55.3151 143.418,-44.3372 150.708,-35.4407"/>
<polygon fill="midnightblue" stroke="midnightblue" points="123.613,-62.9838 119.982,-72.937 129.028,-67.4206 123.613,-62.9838"/>
</g>
</g>
</svg>
