<?xml version="1.0" encoding="UTF-8" standalone="no"?>
<!DOCTYPE svg PUBLIC "-//W3C//DTD SVG 1.1//EN"
 "http://www.w3.org/Graphics/SVG/1.1/DTD/svg11.dtd">
<!-- Generated by graphviz version 2.26.3 (20100126.1600)
 -->
<!-- Title: src/calibration/gui/ManagerWindow_traits.h Pages: 1 -->
<svg width="408pt" height="188pt"
 viewBox="0.00 0.00 408.00 188.00" xmlns="http://www.w3.org/2000/svg" xmlns:xlink="http://www.w3.org/1999/xlink">
<g id="graph1" class="graph" transform="scale(1 1) rotate(0) translate(4 184)">
<title>src/calibration/gui/ManagerWindow_traits.h</title>
<polygon fill="white" stroke="white" points="-4,5 -4,-184 405,-184 405,5 -4,5"/>
<!-- Node35 -->
<g id="node1" class="node"><title>Node35</title>
<polygon fill="#bfbfbf" stroke="black" points="96,-145 96,-179 224,-179 224,-145 96,-145"/>
<text text-anchor="start" x="104" y="-166" font-family="Helvetica,sans-Serif" font-size="10.00">src/calibration/gui</text>
<text text-anchor="middle" x="160" y="-153" font-family="Helvetica,sans-Serif" font-size="10.00">/ManagerWindow_traits.h</text>
</g>
<!-- Node36 -->
<g id="node3" class="node"><title>Node36</title>
<a xlink:href="_manager_8cc.html" target="_top" xlink:title="src/calibration/gui\l/Manager.cc">
<polygon fill="white" stroke="black" points="-0.5,-73 -0.5,-107 92.5,-107 92.5,-73 -0.5,-73"/>
<text text-anchor="start" x="7.5" y="-94" font-family="Helvetica,sans-Serif" font-size="10.00">src/calibration/gui</text>
<text text-anchor="middle" x="46" y="-81" font-family="Helvetica,sans-Serif" font-size="10.00">/Manager.cc</text>
</a>
</g>
<!-- Node35&#45;&gt;Node36 -->
<g id="edge2" class="edge"><title>Node35&#45;&gt;Node36</title>
<path fill="none" stroke="midnightblue" d="M124.159,-139.364C107.69,-128.962 88.4745,-116.826 73.2176,-107.19"/>
<polygon fill="midnightblue" stroke="midnightblue" points="122.66,-142.556 132.984,-144.937 126.398,-136.638 122.66,-142.556"/>
</g>
<!-- Node37 -->
<g id="node5" class="node"><title>Node37</title>
<a xlink:href="_manager_window_8h.html" target="_top" xlink:title="src/calibration/gui\l/ManagerWindow.h">
<polygon fill="white" stroke="black" points="109.5,-73 109.5,-107 210.5,-107 210.5,-73 109.5,-73"/>
<text text-anchor="start" x="117.5" y="-94" font-family="Helvetica,sans-Serif" font-size="10.00">src/calibration/gui</text>
<text text-anchor="middle" x="160" y="-81" font-family="Helvetica,sans-Serif" font-size="10.00">/ManagerWindow.h</text>
</a>
</g>
<!-- Node35&#45;&gt;Node37 -->
<g id="edge4" class="edge"><title>Node35&#45;&gt;Node37</title>
<path fill="none" stroke="midnightblue" d="M160,-134.719C160,-125.572 160,-115.625 160,-107.441"/>
<polygon fill="midnightblue" stroke="midnightblue" points="156.5,-134.937 160,-144.937 163.5,-134.937 156.5,-134.937"/>
</g>
<!-- Node40 -->
<g id="node11" class="node"><title>Node40</title>
<a xlink:href="_test_g_u_i_manager_8cc.html" target="_top" xlink:title="test/calibration/TestGUIManager.cc">
<polygon fill="white" stroke="black" points="228,-79.5 228,-100.5 400,-100.5 400,-79.5 228,-79.5"/>
<text text-anchor="middle" x="314" y="-87.5" font-family="Helvetica,sans-Serif" font-size="10.00">test/calibration/TestGUIManager.cc</text>
</a>
</g>
<!-- Node35&#45;&gt;Node40 -->
<g id="edge10" class="edge"><title>Node35&#45;&gt;Node40</title>
<path fill="none" stroke="midnightblue" d="M205.751,-140.61C233.881,-127.458 268.712,-111.174 291.139,-100.688"/>
<polygon fill="midnightblue" stroke="midnightblue" points="204.072,-137.531 196.496,-144.937 207.037,-143.872 204.072,-137.531"/>
</g>
<!-- Node38 -->
<g id="node7" class="node"><title>Node38</title>
<a xlink:href="_ant-calib_8cc.html" target="_top" xlink:title="progs/Ant&#45;calib.cc">
<polygon fill="white" stroke="black" points="53.5,-7.5 53.5,-28.5 148.5,-28.5 148.5,-7.5 53.5,-7.5"/>
<text text-anchor="middle" x="101" y="-15.5" font-family="Helvetica,sans-Serif" font-size="10.00">progs/Ant&#45;calib.cc</text>
</a>
</g>
<!-- Node37&#45;&gt;Node38 -->
<g id="edge6" class="edge"><title>Node37&#45;&gt;Node38</title>
<path fill="none" stroke="midnightblue" d="M139.648,-65.1634C129.517,-52.8001 117.788,-38.4874 109.933,-28.901"/>
<polygon fill="midnightblue" stroke="midnightblue" points="136.972,-67.4206 146.018,-72.937 142.387,-62.9838 136.972,-67.4206"/>
</g>
<!-- Node39 -->
<g id="node9" class="node"><title>Node39</title>
<a xlink:href="_manager_window_8cc.html" target="_top" xlink:title="src/calibration/gui\l/ManagerWindow.cc">
<polygon fill="white" stroke="black" points="166,-1 166,-35 272,-35 272,-1 166,-1"/>
<text text-anchor="start" x="174" y="-22" font-family="Helvetica,sans-Serif" font-size="10.00">src/calibration/gui</text>
<text text-anchor="middle" x="219" y="-9" font-family="Helvetica,sans-Serif" font-size="10.00">/ManagerWindow.cc</text>
</a>
</g>
<!-- Node37&#45;&gt;Node39 -->
<g id="edge8" class="edge"><title>Node37&#45;&gt;Node39</title>
<path fill="none" stroke="midnightblue" d="M180.416,-65.0858C188.422,-55.3151 197.418,-44.3372 204.708,-35.4407"/>
<polygon fill="midnightblue" stroke="midnightblue" points="177.613,-62.9838 173.982,-72.937 183.028,-67.4206 177.613,-62.9838"/>
</g>
</g>
</svg>
