<?xml version="1.0" encoding="UTF-8" standalone="no"?>
<!DOCTYPE svg PUBLIC "-//W3C//DTD SVG 1.1//EN"
 "http://www.w3.org/Graphics/SVG/1.1/DTD/svg11.dtd">
<!-- Generated by graphviz version 2.26.3 (20100126.1600)
 -->
<!-- Title: progs/detail/McAction.h Pages: 1 -->
<svg width="484pt" height="102pt"
 viewBox="0.00 0.00 484.00 102.00" xmlns="http://www.w3.org/2000/svg" xmlns:xlink="http://www.w3.org/1999/xlink">
<g id="graph1" class="graph" transform="scale(1 1) rotate(0) translate(4 98)">
<title>progs/detail/McAction.h</title>
<polygon fill="white" stroke="white" points="-4,5 -4,-98 481,-98 481,5 -4,5"/>
<!-- Node29 -->
<g id="node1" class="node"><title>Node29</title>
<polygon fill="#bfbfbf" stroke="black" points="186.5,-72.5 186.5,-93.5 305.5,-93.5 305.5,-72.5 186.5,-72.5"/>
<text text-anchor="middle" x="246" y="-80.5" font-family="Helvetica,sans-Serif" font-size="10.00">progs/detail/McAction.h</text>
</g>
<!-- Node30 -->
<g id="node3" class="node"><title>Node30</title>
<a xlink:href="_ant-cocktail_8cc.html" target="_top" xlink:title="progs/Ant&#45;cocktail.cc">
<polygon fill="white" stroke="black" points="-0.5,-7.5 -0.5,-28.5 108.5,-28.5 108.5,-7.5 -0.5,-7.5"/>
<text text-anchor="middle" x="54" y="-15.5" font-family="Helvetica,sans-Serif" font-size="10.00">progs/Ant&#45;cocktail.cc</text>
</a>
</g>
<!-- Node29&#45;&gt;Node30 -->
<g id="edge2" class="edge"><title>Node29&#45;&gt;Node30</title>
<path fill="none" stroke="midnightblue" d="M205.053,-69.1377C169.207,-57.0023 117.892,-39.6302 85.262,-28.5835"/>
<polygon fill="midnightblue" stroke="midnightblue" points="204.13,-72.5204 214.725,-72.412 206.375,-65.8901 204.13,-72.5204"/>
</g>
<!-- Node31 -->
<g id="node5" class="node"><title>Node31</title>
<a xlink:href="_ant-mcdatabase-viewer_8cc.html" target="_top" xlink:title="progs/Ant&#45;mcdatabase\l&#45;viewer.cc">
<polygon fill="white" stroke="black" points="125.5,-1 125.5,-35 240.5,-35 240.5,-1 125.5,-1"/>
<text text-anchor="start" x="133.5" y="-22" font-family="Helvetica,sans-Serif" font-size="10.00">progs/Ant&#45;mcdatabase</text>
<text text-anchor="middle" x="183" y="-9" font-family="Helvetica,sans-Serif" font-size="10.00">&#45;viewer.cc</text>
</a>
</g>
<!-- Node29&#45;&gt;Node31 -->
<g id="edge4" class="edge"><title>Node29&#45;&gt;Node31</title>
<path fill="none" stroke="midnightblue" d="M228.542,-64.9873C219.493,-55.6517 208.501,-44.3109 199.583,-35.1099"/>
<polygon fill="midnightblue" stroke="midnightblue" points="226.124,-67.5218 235.597,-72.2666 231.15,-62.65 226.124,-67.5218"/>
</g>
<!-- Node32 -->
<g id="node7" class="node"><title>Node32</title>
<a xlink:href="_ant-mcgun_8cc.html" target="_top" xlink:title="progs/Ant&#45;mcgun.cc">
<polygon fill="white" stroke="black" points="258,-7.5 258,-28.5 362,-28.5 362,-7.5 258,-7.5"/>
<text text-anchor="middle" x="310" y="-15.5" font-family="Helvetica,sans-Serif" font-size="10.00">progs/Ant&#45;mcgun.cc</text>
</a>
</g>
<!-- Node29&#45;&gt;Node32 -->
<g id="edge6" class="edge"><title>Node29&#45;&gt;Node32</title>
<path fill="none" stroke="midnightblue" d="M263.625,-65.0992C275.187,-53.3566 289.91,-38.4043 299.628,-28.5337"/>
<polygon fill="midnightblue" stroke="midnightblue" points="261.09,-62.6852 256.568,-72.2666 266.078,-67.5965 261.09,-62.6852"/>
</g>
<!-- Node33 -->
<g id="node9" class="node"><title>Node33</title>
<a xlink:href="_ant-pluto_8cc.html" target="_top" xlink:title="Pluto generator forntend. ">
<polygon fill="white" stroke="black" points="380,-7.5 380,-28.5 476,-28.5 476,-7.5 380,-7.5"/>
<text text-anchor="middle" x="428" y="-15.5" font-family="Helvetica,sans-Serif" font-size="10.00">progs/Ant&#45;pluto.cc</text>
</a>
</g>
<!-- Node29&#45;&gt;Node33 -->
<g id="edge8" class="edge"><title>Node29&#45;&gt;Node33</title>
<path fill="none" stroke="midnightblue" d="M285.251,-68.9818C319.209,-56.854 367.568,-39.583 398.366,-28.5835"/>
<polygon fill="midnightblue" stroke="midnightblue" points="283.887,-65.7524 275.647,-72.412 286.241,-72.3446 283.887,-65.7524"/>
</g>
</g>
</svg>
