<?xml version="1.0" encoding="UTF-8" standalone="no"?>
<!DOCTYPE svg PUBLIC "-//W3C//DTD SVG 1.1//EN"
 "http://www.w3.org/Graphics/SVG/1.1/DTD/svg11.dtd">
<!-- Generated by graphviz version 2.26.3 (20100126.1600)
 -->
<!-- Title: src/tree/MemoryPool.h Pages: 1 -->
<svg width="249pt" height="146pt"
 viewBox="0.00 0.00 249.00 146.00" xmlns="http://www.w3.org/2000/svg" xmlns:xlink="http://www.w3.org/1999/xlink">
<g id="graph1" class="graph" transform="scale(1 1) rotate(0) translate(4 142)">
<title>src/tree/MemoryPool.h</title>
<polygon fill="white" stroke="white" points="-4,5 -4,-142 246,-142 246,5 -4,5"/>
<!-- Node0 -->
<g id="node1" class="node"><title>Node0</title>
<polygon fill="#bfbfbf" stroke="black" points="40,-116.5 40,-137.5 156,-137.5 156,-116.5 40,-116.5"/>
<text text-anchor="middle" x="98" y="-124.5" font-family="Helvetica,sans-Serif" font-size="10.00">src/tree/MemoryPool.h</text>
</g>
<!-- Node1 -->
<g id="node3" class="node"><title>Node1</title>
<a xlink:href="memory_8h.html" target="_top" xlink:title="base/std_ext/memory.h">
<polygon fill="white" stroke="black" points="38.5,-58.5 38.5,-79.5 157.5,-79.5 157.5,-58.5 38.5,-58.5"/>
<text text-anchor="middle" x="98" y="-66.5" font-family="Helvetica,sans-Serif" font-size="10.00">base/std_ext/memory.h</text>
</a>
</g>
<!-- Node0&#45;&gt;Node1 -->
<g id="edge2" class="edge"><title>Node0&#45;&gt;Node1</title>
<path fill="none" stroke="midnightblue" d="M98,-116.362C98,-108.922 98,-98.7427 98,-89.7276"/>
<polygon fill="midnightblue" stroke="midnightblue" points="101.5,-89.5706 98,-79.5707 94.5001,-89.5707 101.5,-89.5706"/>
</g>
<!-- Node2 -->
<g id="node5" class="node"><title>Node2</title>
<polygon fill="white" stroke="#bfbfbf" points="0,-0.5 0,-21.5 52,-21.5 52,-0.5 0,-0.5"/>
<text text-anchor="middle" x="26" y="-8.5" font-family="Helvetica,sans-Serif" font-size="10.00">memory</text>
</g>
<!-- Node0&#45;&gt;Node2 -->
<g id="edge8" class="edge"><title>Node0&#45;&gt;Node2</title>
<path fill="none" stroke="midnightblue" d="M72.4668,-116.4C57.3392,-108.676 39.3504,-96.6397 30,-80 21.7557,-65.3287 21.3441,-46.0231 22.6574,-31.5644"/>
<polygon fill="midnightblue" stroke="midnightblue" points="26.1344,-31.9654 23.8967,-21.6096 19.188,-31.1005 26.1344,-31.9654"/>
</g>
<!-- Node4 -->
<g id="node10" class="node"><title>Node4</title>
<polygon fill="white" stroke="#bfbfbf" points="174.5,-58.5 174.5,-79.5 241.5,-79.5 241.5,-58.5 174.5,-58.5"/>
<text text-anchor="middle" x="208" y="-66.5" font-family="Helvetica,sans-Serif" font-size="10.00">forward_list</text>
</g>
<!-- Node0&#45;&gt;Node4 -->
<g id="edge10" class="edge"><title>Node0&#45;&gt;Node4</title>
<path fill="none" stroke="midnightblue" d="M117.92,-116.497C134.946,-107.519 159.669,-94.4835 178.909,-84.3387"/>
<polygon fill="midnightblue" stroke="midnightblue" points="180.643,-87.3814 187.856,-79.6212 177.378,-81.1894 180.643,-87.3814"/>
</g>
<!-- Node1&#45;&gt;Node2 -->
<g id="edge4" class="edge"><title>Node1&#45;&gt;Node2</title>
<path fill="none" stroke="midnightblue" d="M84.7941,-58.3619C74.2388,-49.859 59.2423,-37.7785 47.0371,-27.9466"/>
<polygon fill="midnightblue" stroke="midnightblue" points="49.1054,-25.1183 39.1222,-21.5707 44.7141,-30.5696 49.1054,-25.1183"/>
</g>
<!-- Node3 -->
<g id="node7" class="node"><title>Node3</title>
<polygon fill="white" stroke="#bfbfbf" points="83.5,-0.5 83.5,-21.5 112.5,-21.5 112.5,-0.5 83.5,-0.5"/>
<text text-anchor="middle" x="98" y="-8.5" font-family="Helvetica,sans-Serif" font-size="10.00">list</text>
</g>
<!-- Node1&#45;&gt;Node3 -->
<g id="edge6" class="edge"><title>Node1&#45;&gt;Node3</title>
<path fill="none" stroke="midnightblue" d="M98,-58.3619C98,-50.9219 98,-40.7427 98,-31.7276"/>
<polygon fill="midnightblue" stroke="midnightblue" points="101.5,-31.5706 98,-21.5707 94.5001,-31.5707 101.5,-31.5706"/>
</g>
</g>
</svg>
