<?xml version="1.0" encoding="UTF-8" standalone="no"?>
<!DOCTYPE svg PUBLIC "-//W3C//DTD SVG 1.1//EN"
 "http://www.w3.org/Graphics/SVG/1.1/DTD/svg11.dtd">
<!-- Generated by graphviz version 2.26.3 (20100126.1600)
 -->
<!-- Title: src/calibration/converters/MultiHit.h Pages: 1 -->
<svg width="1136pt" height="332pt"
 viewBox="0.00 0.00 1136.00 332.00" xmlns="http://www.w3.org/2000/svg" xmlns:xlink="http://www.w3.org/1999/xlink">
<g id="graph1" class="graph" transform="scale(1 1) rotate(0) translate(4 328)">
<title>src/calibration/converters/MultiHit.h</title>
<polygon fill="white" stroke="white" points="-4,5 -4,-328 1133,-328 1133,5 -4,5"/>
<!-- Node49 -->
<g id="node1" class="node"><title>Node49</title>
<polygon fill="#bfbfbf" stroke="black" points="470,-289 470,-323 596,-323 596,-289 470,-289"/>
<text text-anchor="start" x="478" y="-310" font-family="Helvetica,sans-Serif" font-size="10.00">src/calibration/converters</text>
<text text-anchor="middle" x="533" y="-297" font-family="Helvetica,sans-Serif" font-size="10.00">/MultiHit.h</text>
</g>
<!-- Node50 -->
<g id="node3" class="node"><title>Node50</title>
<a xlink:href="_multi_hit_reference_8h.html" target="_top" xlink:title="src/calibration/converters\l/MultiHitReference.h">
<polygon fill="white" stroke="black" points="470,-217 470,-251 596,-251 596,-217 470,-217"/>
<text text-anchor="start" x="478" y="-238" font-family="Helvetica,sans-Serif" font-size="10.00">src/calibration/converters</text>
<text text-anchor="middle" x="533" y="-225" font-family="Helvetica,sans-Serif" font-size="10.00">/MultiHitReference.h</text>
</a>
</g>
<!-- Node49&#45;&gt;Node50 -->
<g id="edge2" class="edge"><title>Node49&#45;&gt;Node50</title>
<path fill="none" stroke="midnightblue" d="M533,-278.719C533,-269.572 533,-259.625 533,-251.441"/>
<polygon fill="midnightblue" stroke="midnightblue" points="529.5,-278.937 533,-288.937 536.5,-278.937 529.5,-278.937"/>
</g>
<!-- Node56 -->
<g id="node15" class="node"><title>Node56</title>
<a xlink:href="_setup__2007___base_8cc.html" target="_top" xlink:title="src/expconfig/setups\l/Setup_2007_Base.cc">
<polygon fill="white" stroke="black" points="-0.5,-73 -0.5,-107 112.5,-107 112.5,-73 -0.5,-73"/>
<text text-anchor="start" x="7.5" y="-94" font-family="Helvetica,sans-Serif" font-size="10.00">src/expconfig/setups</text>
<text text-anchor="middle" x="56" y="-81" font-family="Helvetica,sans-Serif" font-size="10.00">/Setup_2007_Base.cc</text>
</a>
</g>
<!-- Node49&#45;&gt;Node56 -->
<g id="edge38" class="edge"><title>Node49&#45;&gt;Node56</title>
<path fill="none" stroke="midnightblue" d="M459.77,-292.089C419.655,-283.17 369.581,-269.882 327,-252 229.46,-211.039 124.963,-139.763 79.4374,-107.162"/>
<polygon fill="midnightblue" stroke="midnightblue" points="459.228,-295.553 469.744,-294.263 460.719,-288.714 459.228,-295.553"/>
</g>
<!-- Node57 -->
<g id="node17" class="node"><title>Node57</title>
<a xlink:href="_setup__2014___e_p_t_8cc.html" target="_top" xlink:title="src/expconfig/setups\l/Setup_2014_EPT.cc">
<polygon fill="white" stroke="black" points="130,-73 130,-107 240,-107 240,-73 130,-73"/>
<text text-anchor="start" x="138" y="-94" font-family="Helvetica,sans-Serif" font-size="10.00">src/expconfig/setups</text>
<text text-anchor="middle" x="185" y="-81" font-family="Helvetica,sans-Serif" font-size="10.00">/Setup_2014_EPT.cc</text>
</a>
</g>
<!-- Node49&#45;&gt;Node57 -->
<g id="edge40" class="edge"><title>Node49&#45;&gt;Node57</title>
<path fill="none" stroke="midnightblue" d="M463.592,-285.714C438.355,-277.006 410.126,-265.66 386,-252 310.923,-209.49 235.103,-139.311 202.108,-107.111"/>
<polygon fill="midnightblue" stroke="midnightblue" points="462.508,-289.042 473.103,-288.921 464.745,-282.409 462.508,-289.042"/>
</g>
<!-- Node58 -->
<g id="node19" class="node"><title>Node58</title>
<a xlink:href="_setup__2015__01___pion_8cc.html" target="_top" xlink:title="src/expconfig/setups\l/Setup_2015_01_Pion.cc">
<polygon fill="white" stroke="black" points="731.5,-73 731.5,-107 856.5,-107 856.5,-73 731.5,-73"/>
<text text-anchor="start" x="739.5" y="-94" font-family="Helvetica,sans-Serif" font-size="10.00">src/expconfig/setups</text>
<text text-anchor="middle" x="794" y="-81" font-family="Helvetica,sans-Serif" font-size="10.00">/Setup_2015_01_Pion.cc</text>
</a>
</g>
<!-- Node49&#45;&gt;Node58 -->
<g id="edge42" class="edge"><title>Node49&#45;&gt;Node58</title>
<path fill="none" stroke="midnightblue" d="M606.499,-299.194C680.562,-287.979 791.223,-258.326 844,-180 860.38,-155.69 835.253,-125.591 815.078,-107.097"/>
<polygon fill="midnightblue" stroke="midnightblue" points="605.702,-295.772 596.301,-300.657 606.697,-302.701 605.702,-295.772"/>
</g>
<!-- Node59 -->
<g id="node21" class="node"><title>Node59</title>
<a xlink:href="_setup__2017__03_8cc.html" target="_top" xlink:title="src/expconfig/setups\l/Setup_2017_03.cc">
<polygon fill="white" stroke="black" points="1021.5,-73 1021.5,-107 1128.5,-107 1128.5,-73 1021.5,-73"/>
<text text-anchor="start" x="1029.5" y="-94" font-family="Helvetica,sans-Serif" font-size="10.00">src/expconfig/setups</text>
<text text-anchor="middle" x="1075" y="-81" font-family="Helvetica,sans-Serif" font-size="10.00">/Setup_2017_03.cc</text>
</a>
</g>
<!-- Node49&#45;&gt;Node59 -->
<g id="edge44" class="edge"><title>Node49&#45;&gt;Node59</title>
<path fill="none" stroke="midnightblue" d="M606.271,-301.541C669.158,-295.723 761.209,-282.396 836,-252 926.322,-215.292 1017.36,-140.849 1055.89,-107.201"/>
<polygon fill="midnightblue" stroke="midnightblue" points="605.701,-298.077 596.048,-302.444 606.317,-305.05 605.701,-298.077"/>
</g>
<!-- Node60 -->
<g id="node23" class="node"><title>Node60</title>
<a xlink:href="_setup___c_b_source_calib_8cc.html" target="_top" xlink:title="src/expconfig/setups\l/Setup_CBSourceCalib.cc">
<polygon fill="white" stroke="black" points="873.5,-73 873.5,-107 1004.5,-107 1004.5,-73 873.5,-73"/>
<text text-anchor="start" x="881.5" y="-94" font-family="Helvetica,sans-Serif" font-size="10.00">src/expconfig/setups</text>
<text text-anchor="middle" x="939" y="-81" font-family="Helvetica,sans-Serif" font-size="10.00">/Setup_CBSourceCalib.cc</text>
</a>
</g>
<!-- Node49&#45;&gt;Node60 -->
<g id="edge46" class="edge"><title>Node49&#45;&gt;Node60</title>
<path fill="none" stroke="midnightblue" d="M606.394,-296.611C673.748,-287.024 767.797,-270.894 800,-252 862.169,-215.523 910.107,-140.961 929.552,-107.241"/>
<polygon fill="midnightblue" stroke="midnightblue" points="605.661,-293.18 596.244,-298.036 606.633,-300.112 605.661,-293.18"/>
</g>
<!-- Node61 -->
<g id="node25" class="node"><title>Node61</title>
<a xlink:href="expconfig__helpers_8cc.html" target="_top" xlink:title="test/expconfig_helpers.cc">
<polygon fill="white" stroke="black" points="258,-79.5 258,-100.5 386,-100.5 386,-79.5 258,-79.5"/>
<text text-anchor="middle" x="322" y="-87.5" font-family="Helvetica,sans-Serif" font-size="10.00">test/expconfig_helpers.cc</text>
</a>
</g>
<!-- Node49&#45;&gt;Node61 -->
<g id="edge48" class="edge"><title>Node49&#45;&gt;Node61</title>
<path fill="none" stroke="midnightblue" d="M487.982,-284.181C447.996,-262.717 390.539,-226.447 355,-180 336.089,-155.284 327.197,-118.654 323.778,-100.704"/>
<polygon fill="midnightblue" stroke="midnightblue" points="486.511,-287.361 496.99,-288.925 489.773,-281.168 486.511,-287.361"/>
</g>
<!-- Node51 -->
<g id="node5" class="node"><title>Node51</title>
<a xlink:href="analysis_2physics_2calibration_2_time_8cc.html" target="_top" xlink:title="src/analysis/physics\l/calibration/Time.cc">
<polygon fill="white" stroke="black" points="547,-145 547,-179 653,-179 653,-145 547,-145"/>
<text text-anchor="start" x="555" y="-166" font-family="Helvetica,sans-Serif" font-size="10.00">src/analysis/physics</text>
<text text-anchor="middle" x="600" y="-153" font-family="Helvetica,sans-Serif" font-size="10.00">/calibration/Time.cc</text>
</a>
</g>
<!-- Node50&#45;&gt;Node51 -->
<g id="edge4" class="edge"><title>Node50&#45;&gt;Node51</title>
<path fill="none" stroke="midnightblue" d="M555.912,-209.379C565.072,-199.535 575.409,-188.426 583.77,-179.441"/>
<polygon fill="midnightblue" stroke="midnightblue" points="553.128,-207.232 548.878,-216.937 558.253,-212.001 553.128,-207.232"/>
</g>
<!-- Node52 -->
<g id="node7" class="node"><title>Node52</title>
<a xlink:href="_c_a_t_c_h___t_d_c_8h.html" target="_top" xlink:title="src/calibration/converters\l/CATCH_TDC.h">
<polygon fill="white" stroke="black" points="403,-145 403,-179 529,-179 529,-145 403,-145"/>
<text text-anchor="start" x="411" y="-166" font-family="Helvetica,sans-Serif" font-size="10.00">src/calibration/converters</text>
<text text-anchor="middle" x="466" y="-153" font-family="Helvetica,sans-Serif" font-size="10.00">/CATCH_TDC.h</text>
</a>
</g>
<!-- Node50&#45;&gt;Node52 -->
<g id="edge6" class="edge"><title>Node50&#45;&gt;Node52</title>
<path fill="none" stroke="midnightblue" d="M510.088,-209.379C500.928,-199.535 490.591,-188.426 482.23,-179.441"/>
<polygon fill="midnightblue" stroke="midnightblue" points="507.747,-212.001 517.122,-216.937 512.872,-207.232 507.747,-212.001"/>
</g>
<!-- Node50&#45;&gt;Node56 -->
<g id="edge28" class="edge"><title>Node50&#45;&gt;Node56</title>
<path fill="none" stroke="midnightblue" d="M459.908,-221.839C408.918,-212.523 339.604,-198.187 280,-180 212.455,-159.39 136.783,-126.92 92.9449,-107.132"/>
<polygon fill="midnightblue" stroke="midnightblue" points="459.39,-225.302 469.853,-223.635 460.634,-218.413 459.39,-225.302"/>
</g>
<!-- Node50&#45;&gt;Node57 -->
<g id="edge30" class="edge"><title>Node50&#45;&gt;Node57</title>
<path fill="none" stroke="midnightblue" d="M459.863,-215.243C427.259,-206.011 388.69,-193.877 355,-180 303.125,-158.633 246.123,-126.55 213.064,-107.018"/>
<polygon fill="midnightblue" stroke="midnightblue" points="459.205,-218.693 469.778,-218.014 461.089,-211.952 459.205,-218.693"/>
</g>
<!-- Node50&#45;&gt;Node58 -->
<g id="edge32" class="edge"><title>Node50&#45;&gt;Node58</title>
<path fill="none" stroke="midnightblue" d="M595.264,-213.204C617.228,-204.528 641.533,-193.334 662,-180 681.493,-167.301 681.338,-157.892 700,-144 718.72,-130.065 741.359,-116.96 759.729,-107.15"/>
<polygon fill="midnightblue" stroke="midnightblue" points="593.762,-210.032 585.686,-216.889 596.276,-216.565 593.762,-210.032"/>
</g>
<!-- Node50&#45;&gt;Node59 -->
<g id="edge34" class="edge"><title>Node50&#45;&gt;Node59</title>
<path fill="none" stroke="midnightblue" d="M606.005,-225.514C669.615,-217.131 763.95,-202.303 844,-180 914.277,-160.42 992.76,-127.313 1037.77,-107.176"/>
<polygon fill="midnightblue" stroke="midnightblue" points="605.532,-222.045 596.066,-226.804 606.434,-228.987 605.532,-222.045"/>
</g>
<!-- Node50&#45;&gt;Node61 -->
<g id="edge36" class="edge"><title>Node50&#45;&gt;Node61</title>
<path fill="none" stroke="midnightblue" d="M460.384,-213.929C437.823,-205.626 413.721,-194.479 394,-180 363.515,-157.619 338.799,-119.229 327.95,-100.668"/>
<polygon fill="midnightblue" stroke="midnightblue" points="459.347,-217.275 469.942,-217.315 461.685,-210.677 459.347,-217.275"/>
</g>
<!-- Node62 -->
<g id="node27" class="node"><title>Node62</title>
<a xlink:href="_multi_hit_reference_8cc.html" target="_top" xlink:title="src/calibration/converters\l/MultiHitReference.cc">
<polygon fill="white" stroke="black" points="709,-145 709,-179 835,-179 835,-145 709,-145"/>
<text text-anchor="start" x="717" y="-166" font-family="Helvetica,sans-Serif" font-size="10.00">src/calibration/converters</text>
<text text-anchor="middle" x="772" y="-153" font-family="Helvetica,sans-Serif" font-size="10.00">/MultiHitReference.cc</text>
</a>
</g>
<!-- Node50&#45;&gt;Node62 -->
<g id="edge26" class="edge"><title>Node50&#45;&gt;Node62</title>
<path fill="none" stroke="midnightblue" d="M599.673,-213.914C636.071,-202.949 680.654,-189.519 715.353,-179.065"/>
<polygon fill="midnightblue" stroke="midnightblue" points="598.205,-210.701 589.64,-216.937 600.224,-217.404 598.205,-210.701"/>
</g>
<!-- Node53 -->
<g id="node9" class="node"><title>Node53</title>
<a xlink:href="analysis_2physics_2calibration_2_c_b___source_calib_8h.html" target="_top" xlink:title="src/analysis/physics\l/calibration/CB_SourceCalib.h">
<polygon fill="white" stroke="black" points="566,-73 566,-107 714,-107 714,-73 566,-73"/>
<text text-anchor="start" x="574" y="-94" font-family="Helvetica,sans-Serif" font-size="10.00">src/analysis/physics</text>
<text text-anchor="middle" x="640" y="-81" font-family="Helvetica,sans-Serif" font-size="10.00">/calibration/CB_SourceCalib.h</text>
</a>
</g>
<!-- Node52&#45;&gt;Node53 -->
<g id="edge8" class="edge"><title>Node52&#45;&gt;Node53</title>
<path fill="none" stroke="midnightblue" d="M516.59,-141.066C542.699,-130.263 574.145,-117.251 598.759,-107.065"/>
<polygon fill="midnightblue" stroke="midnightblue" points="515.137,-137.879 507.236,-144.937 517.814,-144.347 515.137,-137.879"/>
</g>
<!-- Node55 -->
<g id="node13" class="node"><title>Node55</title>
<a xlink:href="analysis_2physics_2calibration_2_c_b___time_walk_8cc.html" target="_top" xlink:title="src/analysis/physics\l/calibration/CB_TimeWalk.cc">
<polygon fill="white" stroke="black" points="404,-73 404,-107 548,-107 548,-73 404,-73"/>
<text text-anchor="start" x="412" y="-94" font-family="Helvetica,sans-Serif" font-size="10.00">src/analysis/physics</text>
<text text-anchor="middle" x="476" y="-81" font-family="Helvetica,sans-Serif" font-size="10.00">/calibration/CB_TimeWalk.cc</text>
</a>
</g>
<!-- Node52&#45;&gt;Node55 -->
<g id="edge12" class="edge"><title>Node52&#45;&gt;Node55</title>
<path fill="none" stroke="midnightblue" d="M469.748,-135.017C471.029,-125.788 472.429,-115.714 473.578,-107.441"/>
<polygon fill="midnightblue" stroke="midnightblue" points="466.279,-134.551 468.37,-144.937 473.212,-135.514 466.279,-134.551"/>
</g>
<!-- Node52&#45;&gt;Node56 -->
<g id="edge14" class="edge"><title>Node52&#45;&gt;Node56</title>
<path fill="none" stroke="midnightblue" d="M392.898,-153.039C322.755,-143.857 214.052,-128.097 121,-108 118.253,-107.407 115.45,-106.767 112.625,-106.093"/>
<polygon fill="midnightblue" stroke="midnightblue" points="392.593,-156.528 402.96,-154.345 393.494,-149.587 392.593,-156.528"/>
</g>
<!-- Node52&#45;&gt;Node57 -->
<g id="edge16" class="edge"><title>Node52&#45;&gt;Node57</title>
<path fill="none" stroke="midnightblue" d="M392.827,-144.376C350.688,-134.08 296.77,-120.658 249,-108 246.099,-107.231 243.127,-106.433 240.129,-105.619"/>
<polygon fill="midnightblue" stroke="midnightblue" points="392.181,-147.821 402.726,-146.79 393.84,-141.02 392.181,-147.821"/>
</g>
<!-- Node52&#45;&gt;Node58 -->
<g id="edge18" class="edge"><title>Node52&#45;&gt;Node58</title>
<path fill="none" stroke="midnightblue" d="M538.979,-143.844C621.449,-125.844 644.292,-125.621 723,-108 725.73,-107.389 728.515,-106.75 731.326,-106.092"/>
<polygon fill="midnightblue" stroke="midnightblue" points="538.183,-140.436 529.171,-146.007 539.691,-147.272 538.183,-140.436"/>
</g>
<!-- Node52&#45;&gt;Node59 -->
<g id="edge20" class="edge"><title>Node52&#45;&gt;Node59</title>
<path fill="none" stroke="midnightblue" d="M539.189,-143.978C748.841,-111.296 807.925,-145.127 1013,-108 1015.76,-107.501 1018.57,-106.927 1021.39,-106.299"/>
<polygon fill="midnightblue" stroke="midnightblue" points="538.416,-140.557 529.091,-145.585 539.516,-147.47 538.416,-140.557"/>
</g>
<!-- Node52&#45;&gt;Node60 -->
<g id="edge22" class="edge"><title>Node52&#45;&gt;Node60</title>
<path fill="none" stroke="midnightblue" d="M539.239,-143.919C683.727,-118.869 724.234,-132.762 865,-108 867.735,-107.519 870.519,-106.996 873.325,-106.44"/>
<polygon fill="midnightblue" stroke="midnightblue" points="538.35,-140.522 529.112,-145.709 539.568,-147.415 538.35,-140.522"/>
</g>
<!-- Node52&#45;&gt;Node61 -->
<g id="edge24" class="edge"><title>Node52&#45;&gt;Node61</title>
<path fill="none" stroke="midnightblue" d="M422.876,-140.438C396.633,-127.317 364.256,-111.128 343.376,-100.688"/>
<polygon fill="midnightblue" stroke="midnightblue" points="421.364,-143.595 431.874,-144.937 424.495,-137.334 421.364,-143.595"/>
</g>
<!-- Node54 -->
<g id="node11" class="node"><title>Node54</title>
<a xlink:href="analysis_2physics_2calibration_2_c_b___source_calib_8cc.html" target="_top" xlink:title="src/analysis/physics\l/calibration/CB_SourceCalib.cc">
<polygon fill="white" stroke="black" points="563.5,-1 563.5,-35 716.5,-35 716.5,-1 563.5,-1"/>
<text text-anchor="start" x="571.5" y="-22" font-family="Helvetica,sans-Serif" font-size="10.00">src/analysis/physics</text>
<text text-anchor="middle" x="640" y="-9" font-family="Helvetica,sans-Serif" font-size="10.00">/calibration/CB_SourceCalib.cc</text>
</a>
</g>
<!-- Node53&#45;&gt;Node54 -->
<g id="edge10" class="edge"><title>Node53&#45;&gt;Node54</title>
<path fill="none" stroke="midnightblue" d="M640,-62.7193C640,-53.572 640,-43.6255 640,-35.4407"/>
<polygon fill="midnightblue" stroke="midnightblue" points="636.5,-62.937 640,-72.937 643.5,-62.937 636.5,-62.937"/>
</g>
</g>
</svg>
