<?xml version="1.0" encoding="UTF-8" standalone="no"?>
<!DOCTYPE svg PUBLIC "-//W3C//DTD SVG 1.1//EN"
 "http://www.w3.org/Graphics/SVG/1.1/DTD/svg11.dtd">
<!-- Generated by graphviz version 2.26.3 (20100126.1600)
 -->
<!-- Title: src/calibration/converters/MultiHitReference.h Pages: 1 -->
<svg width="1136pt" height="260pt"
 viewBox="0.00 0.00 1136.00 260.00" xmlns="http://www.w3.org/2000/svg" xmlns:xlink="http://www.w3.org/1999/xlink">
<g id="graph1" class="graph" transform="scale(1 1) rotate(0) translate(4 256)">
<title>src/calibration/converters/MultiHitReference.h</title>
<polygon fill="white" stroke="white" points="-4,5 -4,-256 1133,-256 1133,5 -4,5"/>
<!-- Node51 -->
<g id="node1" class="node"><title>Node51</title>
<polygon fill="#bfbfbf" stroke="black" points="633,-217 633,-251 759,-251 759,-217 633,-217"/>
<text text-anchor="start" x="641" y="-238" font-family="Helvetica,sans-Serif" font-size="10.00">src/calibration/converters</text>
<text text-anchor="middle" x="696" y="-225" font-family="Helvetica,sans-Serif" font-size="10.00">/MultiHitReference.h</text>
</g>
<!-- Node52 -->
<g id="node3" class="node"><title>Node52</title>
<a xlink:href="analysis_2physics_2calibration_2_time_8cc.html" target="_top" xlink:title="src/analysis/physics\l/calibration/Time.cc">
<polygon fill="white" stroke="black" points="388,-145 388,-179 494,-179 494,-145 388,-145"/>
<text text-anchor="start" x="396" y="-166" font-family="Helvetica,sans-Serif" font-size="10.00">src/analysis/physics</text>
<text text-anchor="middle" x="441" y="-153" font-family="Helvetica,sans-Serif" font-size="10.00">/calibration/Time.cc</text>
</a>
</g>
<!-- Node51&#45;&gt;Node52 -->
<g id="edge2" class="edge"><title>Node51&#45;&gt;Node52</title>
<path fill="none" stroke="midnightblue" d="M625.77,-214.17C584.155,-202.42 532.265,-187.769 494.078,-176.987"/>
<polygon fill="midnightblue" stroke="midnightblue" points="624.994,-217.588 635.569,-216.937 626.896,-210.851 624.994,-217.588"/>
</g>
<!-- Node53 -->
<g id="node5" class="node"><title>Node53</title>
<a xlink:href="_c_a_t_c_h___t_d_c_8h.html" target="_top" xlink:title="src/calibration/converters\l/CATCH_TDC.h">
<polygon fill="white" stroke="black" points="588,-145 588,-179 714,-179 714,-145 588,-145"/>
<text text-anchor="start" x="596" y="-166" font-family="Helvetica,sans-Serif" font-size="10.00">src/calibration/converters</text>
<text text-anchor="middle" x="651" y="-153" font-family="Helvetica,sans-Serif" font-size="10.00">/CATCH_TDC.h</text>
</a>
</g>
<!-- Node51&#45;&gt;Node53 -->
<g id="edge4" class="edge"><title>Node51&#45;&gt;Node53</title>
<path fill="none" stroke="midnightblue" d="M679.877,-208.203C673.911,-198.658 667.294,-188.07 661.9,-179.441"/>
<polygon fill="midnightblue" stroke="midnightblue" points="677.068,-210.312 685.336,-216.937 683.004,-206.602 677.068,-210.312"/>
</g>
<!-- Node57 -->
<g id="node13" class="node"><title>Node57</title>
<a xlink:href="_setup__2007___base_8cc.html" target="_top" xlink:title="src/expconfig/setups\l/Setup_2007_Base.cc">
<polygon fill="white" stroke="black" points="-0.5,-73 -0.5,-107 112.5,-107 112.5,-73 -0.5,-73"/>
<text text-anchor="start" x="7.5" y="-94" font-family="Helvetica,sans-Serif" font-size="10.00">src/expconfig/setups</text>
<text text-anchor="middle" x="56" y="-81" font-family="Helvetica,sans-Serif" font-size="10.00">/Setup_2007_Base.cc</text>
</a>
</g>
<!-- Node51&#45;&gt;Node57 -->
<g id="edge26" class="edge"><title>Node51&#45;&gt;Node57</title>
<path fill="none" stroke="midnightblue" d="M622.762,-217.68C594.22,-209.233 562.152,-197.029 536,-180 517.811,-168.156 522.435,-153.663 503,-144 426.651,-106.039 204.856,-123.438 121,-108 118.236,-107.491 115.419,-106.92 112.584,-106.301"/>
<polygon fill="midnightblue" stroke="midnightblue" points="622.119,-221.136 632.695,-220.513 624.039,-214.404 622.119,-221.136"/>
</g>
<!-- Node58 -->
<g id="node15" class="node"><title>Node58</title>
<a xlink:href="_setup__2014___e_p_t_8cc.html" target="_top" xlink:title="src/expconfig/setups\l/Setup_2014_EPT.cc">
<polygon fill="white" stroke="black" points="130,-73 130,-107 240,-107 240,-73 130,-73"/>
<text text-anchor="start" x="138" y="-94" font-family="Helvetica,sans-Serif" font-size="10.00">src/expconfig/setups</text>
<text text-anchor="middle" x="185" y="-81" font-family="Helvetica,sans-Serif" font-size="10.00">/Setup_2014_EPT.cc</text>
</a>
</g>
<!-- Node51&#45;&gt;Node58 -->
<g id="edge28" class="edge"><title>Node51&#45;&gt;Node58</title>
<path fill="none" stroke="midnightblue" d="M642.826,-213.016C622.252,-203.993 598.912,-192.615 579,-180 557.945,-166.661 558.85,-153.956 536,-144 418.146,-92.6503 375.006,-133.474 249,-108 246.059,-107.405 243.054,-106.746 240.031,-106.041"/>
<polygon fill="midnightblue" stroke="midnightblue" points="641.493,-216.252 652.062,-216.991 644.261,-209.823 641.493,-216.252"/>
</g>
<!-- Node59 -->
<g id="node17" class="node"><title>Node59</title>
<a xlink:href="_setup__2015__01___pion_8cc.html" target="_top" xlink:title="src/expconfig/setups\l/Setup_2015_01_Pion.cc">
<polygon fill="white" stroke="black" points="733.5,-73 733.5,-107 858.5,-107 858.5,-73 733.5,-73"/>
<text text-anchor="start" x="741.5" y="-94" font-family="Helvetica,sans-Serif" font-size="10.00">src/expconfig/setups</text>
<text text-anchor="middle" x="796" y="-81" font-family="Helvetica,sans-Serif" font-size="10.00">/Setup_2015_01_Pion.cc</text>
</a>
</g>
<!-- Node51&#45;&gt;Node59 -->
<g id="edge30" class="edge"><title>Node51&#45;&gt;Node59</title>
<path fill="none" stroke="midnightblue" d="M713.736,-208.461C734.035,-179.229 766.719,-132.165 784.151,-107.062"/>
<polygon fill="midnightblue" stroke="midnightblue" points="710.693,-206.706 707.864,-216.916 716.443,-210.699 710.693,-206.706"/>
</g>
<!-- Node60 -->
<g id="node19" class="node"><title>Node60</title>
<a xlink:href="_setup__2017__03_8cc.html" target="_top" xlink:title="src/expconfig/setups\l/Setup_2017_03.cc">
<polygon fill="white" stroke="black" points="875.5,-73 875.5,-107 982.5,-107 982.5,-73 875.5,-73"/>
<text text-anchor="start" x="883.5" y="-94" font-family="Helvetica,sans-Serif" font-size="10.00">src/expconfig/setups</text>
<text text-anchor="middle" x="929" y="-81" font-family="Helvetica,sans-Serif" font-size="10.00">/Setup_2017_03.cc</text>
</a>
</g>
<!-- Node51&#45;&gt;Node60 -->
<g id="edge32" class="edge"><title>Node51&#45;&gt;Node60</title>
<path fill="none" stroke="midnightblue" d="M723.97,-210.353C754.493,-184.6 799.634,-146.684 804,-144 828.065,-129.204 856.9,-116.455 880.809,-107.066"/>
<polygon fill="midnightblue" stroke="midnightblue" points="721.561,-207.807 716.177,-216.932 726.076,-213.156 721.561,-207.807"/>
</g>
<!-- Node62 -->
<g id="node23" class="node"><title>Node62</title>
<a xlink:href="expconfig__helpers_8cc.html" target="_top" xlink:title="test/expconfig_helpers.cc">
<polygon fill="white" stroke="black" points="1000,-79.5 1000,-100.5 1128,-100.5 1128,-79.5 1000,-79.5"/>
<text text-anchor="middle" x="1064" y="-87.5" font-family="Helvetica,sans-Serif" font-size="10.00">test/expconfig_helpers.cc</text>
</a>
</g>
<!-- Node51&#45;&gt;Node62 -->
<g id="edge34" class="edge"><title>Node51&#45;&gt;Node62</title>
<path fill="none" stroke="midnightblue" d="M742.258,-212.251C759.947,-203.177 779.952,-191.963 797,-180 816.578,-166.261 815.799,-155.071 837,-144 899.307,-111.465 922.654,-124.414 991,-108 1000.9,-105.622 1011.54,-103.023 1021.56,-100.557"/>
<polygon fill="midnightblue" stroke="midnightblue" points="740.601,-209.167 733.247,-216.794 743.752,-215.418 740.601,-209.167"/>
</g>
<!-- Node63 -->
<g id="node25" class="node"><title>Node63</title>
<a xlink:href="_multi_hit_reference_8cc.html" target="_top" xlink:title="src/calibration/converters\l/MultiHitReference.cc">
<polygon fill="white" stroke="black" points="846,-145 846,-179 972,-179 972,-145 846,-145"/>
<text text-anchor="start" x="854" y="-166" font-family="Helvetica,sans-Serif" font-size="10.00">src/calibration/converters</text>
<text text-anchor="middle" x="909" y="-153" font-family="Helvetica,sans-Serif" font-size="10.00">/MultiHitReference.cc</text>
</a>
</g>
<!-- Node51&#45;&gt;Node63 -->
<g id="edge24" class="edge"><title>Node51&#45;&gt;Node63</title>
<path fill="none" stroke="midnightblue" d="M756.254,-213.633C788.536,-202.72 827.855,-189.429 858.516,-179.065"/>
<polygon fill="midnightblue" stroke="midnightblue" points="754.831,-210.419 746.478,-216.937 757.072,-217.05 754.831,-210.419"/>
</g>
<!-- Node54 -->
<g id="node7" class="node"><title>Node54</title>
<a xlink:href="analysis_2physics_2calibration_2_c_b___source_calib_8h.html" target="_top" xlink:title="src/analysis/physics\l/calibration/CB_SourceCalib.h">
<polygon fill="white" stroke="black" points="258,-73 258,-107 406,-107 406,-73 258,-73"/>
<text text-anchor="start" x="266" y="-94" font-family="Helvetica,sans-Serif" font-size="10.00">src/analysis/physics</text>
<text text-anchor="middle" x="332" y="-81" font-family="Helvetica,sans-Serif" font-size="10.00">/calibration/CB_SourceCalib.h</text>
</a>
</g>
<!-- Node53&#45;&gt;Node54 -->
<g id="edge6" class="edge"><title>Node53&#45;&gt;Node54</title>
<path fill="none" stroke="midnightblue" d="M577.872,-144.886C576.571,-144.588 575.28,-144.292 574,-144 517.766,-131.153 454.097,-116.96 406.184,-106.35"/>
<polygon fill="midnightblue" stroke="midnightblue" points="577.45,-148.38 587.98,-147.213 579.02,-141.559 577.45,-148.38"/>
</g>
<!-- Node56 -->
<g id="node11" class="node"><title>Node56</title>
<a xlink:href="analysis_2physics_2calibration_2_c_b___time_walk_8cc.html" target="_top" xlink:title="src/analysis/physics\l/calibration/CB_TimeWalk.cc">
<polygon fill="white" stroke="black" points="424,-73 424,-107 568,-107 568,-73 424,-73"/>
<text text-anchor="start" x="432" y="-94" font-family="Helvetica,sans-Serif" font-size="10.00">src/analysis/physics</text>
<text text-anchor="middle" x="496" y="-81" font-family="Helvetica,sans-Serif" font-size="10.00">/calibration/CB_TimeWalk.cc</text>
</a>
</g>
<!-- Node53&#45;&gt;Node56 -->
<g id="edge10" class="edge"><title>Node53&#45;&gt;Node56</title>
<path fill="none" stroke="midnightblue" d="M605.013,-140.638C581.94,-129.921 554.376,-117.117 532.737,-107.065"/>
<polygon fill="midnightblue" stroke="midnightblue" points="603.723,-143.898 614.267,-144.937 606.672,-137.55 603.723,-143.898"/>
</g>
<!-- Node53&#45;&gt;Node57 -->
<g id="edge12" class="edge"><title>Node53&#45;&gt;Node57</title>
<path fill="none" stroke="midnightblue" d="M577.852,-149.779C563.976,-147.68 549.56,-145.647 536,-144 352.214,-121.672 303.201,-140.843 121,-108 118.234,-107.501 115.416,-106.938 112.579,-106.327"/>
<polygon fill="midnightblue" stroke="midnightblue" points="577.424,-153.254 587.84,-151.315 578.488,-146.335 577.424,-153.254"/>
</g>
<!-- Node53&#45;&gt;Node58 -->
<g id="edge14" class="edge"><title>Node53&#45;&gt;Node58</title>
<path fill="none" stroke="midnightblue" d="M577.795,-144.67C576.522,-144.439 575.256,-144.216 574,-144 430.767,-119.416 391.651,-135.767 249,-108 246.054,-107.427 243.047,-106.784 240.02,-106.092"/>
<polygon fill="midnightblue" stroke="midnightblue" points="577.193,-148.118 587.673,-146.565 578.512,-141.243 577.193,-148.118"/>
</g>
<!-- Node53&#45;&gt;Node59 -->
<g id="edge16" class="edge"><title>Node53&#45;&gt;Node59</title>
<path fill="none" stroke="midnightblue" d="M694.596,-140.352C716.062,-129.693 741.57,-117.027 761.633,-107.065"/>
<polygon fill="midnightblue" stroke="midnightblue" points="692.763,-137.355 685.363,-144.937 695.876,-143.624 692.763,-137.355"/>
</g>
<!-- Node53&#45;&gt;Node60 -->
<g id="edge18" class="edge"><title>Node53&#45;&gt;Node60</title>
<path fill="none" stroke="midnightblue" d="M723.872,-144.505C765.829,-134.251 819.497,-120.829 867,-108 869.705,-107.269 872.473,-106.51 875.266,-105.734"/>
<polygon fill="midnightblue" stroke="midnightblue" points="722.902,-141.138 714.016,-146.908 724.56,-147.939 722.902,-141.138"/>
</g>
<!-- Node61 -->
<g id="node21" class="node"><title>Node61</title>
<a xlink:href="_setup___c_b_source_calib_8cc.html" target="_top" xlink:title="src/expconfig/setups\l/Setup_CBSourceCalib.cc">
<polygon fill="white" stroke="black" points="585.5,-73 585.5,-107 716.5,-107 716.5,-73 585.5,-73"/>
<text text-anchor="start" x="593.5" y="-94" font-family="Helvetica,sans-Serif" font-size="10.00">src/expconfig/setups</text>
<text text-anchor="middle" x="651" y="-81" font-family="Helvetica,sans-Serif" font-size="10.00">/Setup_CBSourceCalib.cc</text>
</a>
</g>
<!-- Node53&#45;&gt;Node61 -->
<g id="edge20" class="edge"><title>Node53&#45;&gt;Node61</title>
<path fill="none" stroke="midnightblue" d="M651,-134.719C651,-125.572 651,-115.625 651,-107.441"/>
<polygon fill="midnightblue" stroke="midnightblue" points="647.5,-134.937 651,-144.937 654.5,-134.937 647.5,-134.937"/>
</g>
<!-- Node53&#45;&gt;Node62 -->
<g id="edge22" class="edge"><title>Node53&#45;&gt;Node62</title>
<path fill="none" stroke="midnightblue" d="M724.177,-152.196C793.249,-142.513 899.571,-126.498 991,-108 1001.75,-105.826 1013.3,-103.14 1023.97,-100.513"/>
<polygon fill="midnightblue" stroke="midnightblue" points="723.683,-148.731 714.262,-153.578 724.65,-155.664 723.683,-148.731"/>
</g>
<!-- Node55 -->
<g id="node9" class="node"><title>Node55</title>
<a xlink:href="analysis_2physics_2calibration_2_c_b___source_calib_8cc.html" target="_top" xlink:title="src/analysis/physics\l/calibration/CB_SourceCalib.cc">
<polygon fill="white" stroke="black" points="255.5,-1 255.5,-35 408.5,-35 408.5,-1 255.5,-1"/>
<text text-anchor="start" x="263.5" y="-22" font-family="Helvetica,sans-Serif" font-size="10.00">src/analysis/physics</text>
<text text-anchor="middle" x="332" y="-9" font-family="Helvetica,sans-Serif" font-size="10.00">/calibration/CB_SourceCalib.cc</text>
</a>
</g>
<!-- Node54&#45;&gt;Node55 -->
<g id="edge8" class="edge"><title>Node54&#45;&gt;Node55</title>
<path fill="none" stroke="midnightblue" d="M332,-62.7193C332,-53.572 332,-43.6255 332,-35.4407"/>
<polygon fill="midnightblue" stroke="midnightblue" points="328.5,-62.937 332,-72.937 335.5,-62.937 328.5,-62.937"/>
</g>
</g>
</svg>
