<?xml version="1.0" encoding="UTF-8" standalone="no"?>
<!DOCTYPE svg PUBLIC "-//W3C//DTD SVG 1.1//EN"
 "http://www.w3.org/Graphics/SVG/1.1/DTD/svg11.dtd">
<!-- Generated by graphviz version 2.26.3 (20100126.1600)
 -->
<!-- Title: src/analysis/physics/omega/Omega_EtaG.h Pages: 1 -->
<svg width="256pt" height="188pt"
 viewBox="0.00 0.00 256.00 188.00" xmlns="http://www.w3.org/2000/svg" xmlns:xlink="http://www.w3.org/1999/xlink">
<g id="graph1" class="graph" transform="scale(1 1) rotate(0) translate(4 184)">
<title>src/analysis/physics/omega/Omega_EtaG.h</title>
<polygon fill="white" stroke="white" points="-4,5 -4,-184 253,-184 253,5 -4,5"/>
<!-- Node100 -->
<g id="node1" class="node"><title>Node100</title>
<polygon fill="#bfbfbf" stroke="black" points="68.5,-145 68.5,-179 187.5,-179 187.5,-145 68.5,-145"/>
<text text-anchor="start" x="76.5" y="-166" font-family="Helvetica,sans-Serif" font-size="10.00">src/analysis/physics</text>
<text text-anchor="middle" x="128" y="-153" font-family="Helvetica,sans-Serif" font-size="10.00">/omega/Omega_EtaG.h</text>
</g>
<!-- Node101 -->
<g id="node3" class="node"><title>Node101</title>
<a xlink:href="_omega___eta_g_8cc.html" target="_top" xlink:title="src/analysis/physics\l/omega/Omega_EtaG.cc">
<polygon fill="white" stroke="black" points="-0.5,-73 -0.5,-107 124.5,-107 124.5,-73 -0.5,-73"/>
<text text-anchor="start" x="7.5" y="-94" font-family="Helvetica,sans-Serif" font-size="10.00">src/analysis/physics</text>
<text text-anchor="middle" x="62" y="-81" font-family="Helvetica,sans-Serif" font-size="10.00">/omega/Omega_EtaG.cc</text>
</a>
</g>
<!-- Node100&#45;&gt;Node101 -->
<g id="edge2" class="edge"><title>Node100&#45;&gt;Node101</title>
<path fill="none" stroke="midnightblue" d="M105.43,-137.379C96.407,-127.535 86.224,-116.426 77.9873,-107.441"/>
<polygon fill="midnightblue" stroke="midnightblue" points="103.022,-139.93 112.359,-144.937 108.182,-135.2 103.022,-139.93"/>
</g>
<!-- Node102 -->
<g id="node5" class="node"><title>Node102</title>
<a xlink:href="pi0eta_8h.html" target="_top" xlink:title="src/analysis/physics\l/omega/pi0eta.h">
<polygon fill="white" stroke="black" points="142,-73 142,-107 248,-107 248,-73 142,-73"/>
<text text-anchor="start" x="150" y="-94" font-family="Helvetica,sans-Serif" font-size="10.00">src/analysis/physics</text>
<text text-anchor="middle" x="195" y="-81" font-family="Helvetica,sans-Serif" font-size="10.00">/omega/pi0eta.h</text>
</a>
</g>
<!-- Node100&#45;&gt;Node102 -->
<g id="edge4" class="edge"><title>Node100&#45;&gt;Node102</title>
<path fill="none" stroke="midnightblue" d="M150.912,-137.379C160.072,-127.535 170.409,-116.426 178.77,-107.441"/>
<polygon fill="midnightblue" stroke="midnightblue" points="148.128,-135.232 143.878,-144.937 153.253,-140.001 148.128,-135.232"/>
</g>
<!-- Node103 -->
<g id="node7" class="node"><title>Node103</title>
<a xlink:href="pi0eta_8cc.html" target="_top" xlink:title="src/analysis/physics\l/omega/pi0eta.cc">
<polygon fill="white" stroke="black" points="142,-1 142,-35 248,-35 248,-1 142,-1"/>
<text text-anchor="start" x="150" y="-22" font-family="Helvetica,sans-Serif" font-size="10.00">src/analysis/physics</text>
<text text-anchor="middle" x="195" y="-9" font-family="Helvetica,sans-Serif" font-size="10.00">/omega/pi0eta.cc</text>
</a>
</g>
<!-- Node102&#45;&gt;Node103 -->
<g id="edge6" class="edge"><title>Node102&#45;&gt;Node103</title>
<path fill="none" stroke="midnightblue" d="M195,-62.7193C195,-53.572 195,-43.6255 195,-35.4407"/>
<polygon fill="midnightblue" stroke="midnightblue" points="191.5,-62.937 195,-72.937 198.5,-62.937 191.5,-62.937"/>
</g>
</g>
</svg>
