<?xml version="1.0" encoding="UTF-8" standalone="no"?>
<!DOCTYPE svg PUBLIC "-//W3C//DTD SVG 1.1//EN"
 "http://www.w3.org/Graphics/SVG/1.1/DTD/svg11.dtd">
<!-- Generated by graphviz version 2.26.3 (20100126.1600)
 -->
<!-- Title: src/expconfig/detectors/PID.h Pages: 1 -->
<svg width="2625pt" height="550pt"
 viewBox="0.00 0.00 2625.38 550.00" xmlns="http://www.w3.org/2000/svg" xmlns:xlink="http://www.w3.org/1999/xlink">
<g id="graph1" class="graph" transform="scale(1 1) rotate(0) translate(4 546)">
<title>src/expconfig/detectors/PID.h</title>
<polygon fill="white" stroke="white" points="-4,5 -4,-546 2622.38,-546 2622.38,5 -4,5"/>
<!-- Node0 -->
<g id="node1" class="node"><title>Node0</title>
<polygon fill="#bfbfbf" stroke="black" points="2015.88,-507 2015.88,-541 2134.88,-541 2134.88,-507 2015.88,-507"/>
<text text-anchor="start" x="2023.88" y="-528" font-family="Helvetica,sans-Serif" font-size="10.00">src/expconfig/detectors</text>
<text text-anchor="middle" x="2075.38" y="-515" font-family="Helvetica,sans-Serif" font-size="10.00">/PID.h</text>
</g>
<!-- Node1 -->
<g id="node3" class="node"><title>Node1</title>
<a xlink:href="_detector__t_8h.html" target="_top" xlink:title="base/Detector_t.h">
<polygon fill="white" stroke="black" points="2097.88,-195.5 2097.88,-216.5 2192.88,-216.5 2192.88,-195.5 2097.88,-195.5"/>
<text text-anchor="middle" x="2145.38" y="-203.5" font-family="Helvetica,sans-Serif" font-size="10.00">base/Detector_t.h</text>
</a>
</g>
<!-- Node0&#45;&gt;Node1 -->
<g id="edge2" class="edge"><title>Node0&#45;&gt;Node1</title>
<path fill="none" stroke="midnightblue" d="M2135.17,-519.437C2253.33,-508.769 2505.38,-477.094 2505.38,-401 2505.38,-401 2505.38,-401 2505.38,-343 2505.38,-279.156 2305.11,-234.335 2203.32,-215.677"/>
<polygon fill="midnightblue" stroke="midnightblue" points="2203.65,-212.181 2193.19,-213.847 2202.41,-219.069 2203.65,-212.181"/>
</g>
<!-- Node15 -->
<g id="node34" class="node"><title>Node15</title>
<a xlink:href="_unpacker_acqu_8h.html" target="_top" xlink:title="unpacker/UnpackerAcqu.h">
<polygon fill="white" stroke="black" points="1150.38,-448.5 1150.38,-469.5 1282.38,-469.5 1282.38,-448.5 1150.38,-448.5"/>
<text text-anchor="middle" x="1216.38" y="-456.5" font-family="Helvetica,sans-Serif" font-size="10.00">unpacker/UnpackerAcqu.h</text>
</a>
</g>
<!-- Node0&#45;&gt;Node15 -->
<g id="edge36" class="edge"><title>Node0&#45;&gt;Node15</title>
<path fill="none" stroke="midnightblue" d="M2015.66,-519.481C1863.44,-507.963 1461.08,-477.516 1292.45,-464.756"/>
<polygon fill="midnightblue" stroke="midnightblue" points="1292.64,-461.261 1282.41,-463.996 1292.12,-468.241 1292.64,-461.261"/>
</g>
<!-- Node2 -->
<g id="node5" class="node"><title>Node2</title>
<a xlink:href="bitflag_8h.html" target="_top" xlink:title="base/bitflag.h">
<polygon fill="white" stroke="black" points="2334.88,-123.5 2334.88,-144.5 2409.88,-144.5 2409.88,-123.5 2334.88,-123.5"/>
<text text-anchor="middle" x="2372.38" y="-131.5" font-family="Helvetica,sans-Serif" font-size="10.00">base/bitflag.h</text>
</a>
</g>
<!-- Node1&#45;&gt;Node2 -->
<g id="edge4" class="edge"><title>Node1&#45;&gt;Node2</title>
<path fill="none" stroke="midnightblue" d="M2181.25,-195.471C2216.92,-184.89 2273.12,-167.913 2321.38,-152 2325.35,-150.693 2329.47,-149.298 2333.58,-147.884"/>
<polygon fill="midnightblue" stroke="midnightblue" points="2334.77,-151.177 2343.06,-144.584 2332.47,-144.566 2334.77,-151.177"/>
</g>
<!-- Node4 -->
<g id="node9" class="node"><title>Node4</title>
<a xlink:href="vec3_8h.html" target="_top" xlink:title="base/vec/vec3.h">
<polygon fill="white" stroke="black" points="2426.88,-123.5 2426.88,-144.5 2515.88,-144.5 2515.88,-123.5 2426.88,-123.5"/>
<text text-anchor="middle" x="2471.38" y="-131.5" font-family="Helvetica,sans-Serif" font-size="10.00">base/vec/vec3.h</text>
</a>
</g>
<!-- Node1&#45;&gt;Node4 -->
<g id="edge8" class="edge"><title>Node1&#45;&gt;Node4</title>
<path fill="none" stroke="midnightblue" d="M2193.17,-198.517C2248.01,-189.475 2340.44,-172.847 2418.38,-152 2423.12,-150.733 2428.05,-149.266 2432.91,-147.727"/>
<polygon fill="midnightblue" stroke="midnightblue" points="2434.31,-150.954 2442.71,-144.508 2432.12,-144.303 2434.31,-150.954"/>
</g>
<!-- Node8 -->
<g id="node18" class="node"><title>Node8</title>
<a xlink:href="base_2std__ext_2math_8h.html" target="_top" xlink:title="base/std_ext/math.h">
<polygon fill="white" stroke="black" points="2173.38,-123.5 2173.38,-144.5 2279.38,-144.5 2279.38,-123.5 2173.38,-123.5"/>
<text text-anchor="middle" x="2226.38" y="-131.5" font-family="Helvetica,sans-Serif" font-size="10.00">base/std_ext/math.h</text>
</a>
</g>
<!-- Node1&#45;&gt;Node8 -->
<g id="edge18" class="edge"><title>Node1&#45;&gt;Node8</title>
<path fill="none" stroke="midnightblue" d="M2157.34,-195.376C2170.38,-183.784 2191.45,-165.05 2206.9,-151.324"/>
<polygon fill="midnightblue" stroke="midnightblue" points="2209.23,-153.927 2214.38,-144.667 2204.58,-148.695 2209.23,-153.927"/>
</g>
<!-- Node10 -->
<g id="node23" class="node"><title>Node10</title>
<polygon fill="white" stroke="#bfbfbf" points="1966.38,-0.5 1966.38,-21.5 2010.38,-21.5 2010.38,-0.5 1966.38,-0.5"/>
<text text-anchor="middle" x="1988.38" y="-8.5" font-family="Helvetica,sans-Serif" font-size="10.00">vector</text>
</g>
<!-- Node1&#45;&gt;Node10 -->
<g id="edge34" class="edge"><title>Node1&#45;&gt;Node10</title>
<path fill="none" stroke="midnightblue" d="M2188.77,-195.414C2226.41,-185.25 2276.65,-168.972 2288.38,-152 2297.48,-138.839 2294.87,-130.627 2288.38,-116 2272.83,-80.9064 2258.67,-75.2624 2224.38,-58 2188.98,-40.1743 2076.38,-22.9497 2020.49,-15.2304"/>
<polygon fill="midnightblue" stroke="midnightblue" points="2020.81,-11.7413 2010.43,-13.8587 2019.86,-18.6772 2020.81,-11.7413"/>
</g>
<!-- Node11 -->
<g id="node25" class="node"><title>Node11</title>
<polygon fill="white" stroke="#bfbfbf" points="1957.38,-123.5 1957.38,-144.5 2003.38,-144.5 2003.38,-123.5 1957.38,-123.5"/>
<text text-anchor="middle" x="1980.38" y="-131.5" font-family="Helvetica,sans-Serif" font-size="10.00">cstdint</text>
</g>
<!-- Node1&#45;&gt;Node11 -->
<g id="edge26" class="edge"><title>Node1&#45;&gt;Node11</title>
<path fill="none" stroke="midnightblue" d="M2119.22,-195.442C2093.23,-184.84 2052.31,-167.847 2017.38,-152 2015.32,-151.065 2013.21,-150.085 2011.08,-149.086"/>
<polygon fill="midnightblue" stroke="midnightblue" points="2012.35,-145.814 2001.81,-144.666 2009.33,-152.132 2012.35,-145.814"/>
</g>
<!-- Node12 -->
<g id="node27" class="node"><title>Node12</title>
<polygon fill="white" stroke="#bfbfbf" points="1377.88,-58.5 1377.88,-79.5 1436.88,-79.5 1436.88,-58.5 1377.88,-58.5"/>
<text text-anchor="middle" x="1407.38" y="-66.5" font-family="Helvetica,sans-Serif" font-size="10.00">stdexcept</text>
</g>
<!-- Node1&#45;&gt;Node12 -->
<g id="edge28" class="edge"><title>Node1&#45;&gt;Node12</title>
<path fill="none" stroke="midnightblue" d="M2120.58,-195.442C2099.45,-185.81 2068.88,-170.314 2045.38,-152 2028.26,-138.658 2031.9,-125.503 2012.38,-116 1986.94,-103.608 1577.77,-78.8946 1447.14,-71.2841"/>
<polygon fill="midnightblue" stroke="midnightblue" points="1447.34,-67.7898 1437.15,-70.704 1446.93,-74.7781 1447.34,-67.7898"/>
</g>
<!-- Node13 -->
<g id="node29" class="node"><title>Node13</title>
<polygon fill="white" stroke="#bfbfbf" points="1443.88,-0.5 1443.88,-21.5 1484.88,-21.5 1484.88,-0.5 1443.88,-0.5"/>
<text text-anchor="middle" x="1464.38" y="-8.5" font-family="Helvetica,sans-Serif" font-size="10.00">string</text>
</g>
<!-- Node1&#45;&gt;Node13 -->
<g id="edge30" class="edge"><title>Node1&#45;&gt;Node13</title>
<path fill="none" stroke="midnightblue" d="M2147.63,-195.405C2153.84,-166.113 2170.79,-85.8051 2171.38,-80 2172.38,-70.2728 2178.1,-65.109 2171.38,-58 2123.4,-7.18412 1612.94,-28.825 1543.38,-22 1527.42,-20.4331 1509.72,-18.031 1495.13,-15.8708"/>
<polygon fill="midnightblue" stroke="midnightblue" points="1495.53,-12.3924 1485.12,-14.356 1494.48,-19.3136 1495.53,-12.3924"/>
</g>
<!-- Node14 -->
<g id="node31" class="node"><title>Node14</title>
<polygon fill="white" stroke="#bfbfbf" points="1814.38,-58.5 1814.38,-79.5 1876.38,-79.5 1876.38,-58.5 1814.38,-58.5"/>
<text text-anchor="middle" x="1845.38" y="-66.5" font-family="Helvetica,sans-Serif" font-size="10.00">type_traits</text>
</g>
<!-- Node1&#45;&gt;Node14 -->
<g id="edge32" class="edge"><title>Node1&#45;&gt;Node14</title>
<path fill="none" stroke="midnightblue" d="M2136.73,-195.202C2120.8,-176.083 2084.81,-136.377 2045.38,-116 1983.42,-83.9694 1958.28,-96.4573 1886.72,-80.1623"/>
<polygon fill="midnightblue" stroke="midnightblue" points="1887.33,-76.7101 1876.79,-77.7868 1885.7,-83.5179 1887.33,-76.7101"/>
</g>
<!-- Node3 -->
<g id="node7" class="node"><title>Node3</title>
<polygon fill="white" stroke="#bfbfbf" points="2372.88,-58.5 2372.88,-79.5 2413.88,-79.5 2413.88,-58.5 2372.88,-58.5"/>
<text text-anchor="middle" x="2393.38" y="-66.5" font-family="Helvetica,sans-Serif" font-size="10.00">bitset</text>
</g>
<!-- Node2&#45;&gt;Node3 -->
<g id="edge6" class="edge"><title>Node2&#45;&gt;Node3</title>
<path fill="none" stroke="midnightblue" d="M2375.85,-123.267C2378.82,-114.085 2383.17,-100.615 2386.8,-89.3917"/>
<polygon fill="midnightblue" stroke="midnightblue" points="2390.24,-90.1254 2389.98,-79.5337 2383.58,-87.9734 2390.24,-90.1254"/>
</g>
<!-- Node5 -->
<g id="node11" class="node"><title>Node5</title>
<a xlink:href="vec2_8h.html" target="_top" xlink:title="vec2.h">
<polygon fill="white" stroke="black" points="2571.38,-58.5 2571.38,-79.5 2617.38,-79.5 2617.38,-58.5 2571.38,-58.5"/>
<text text-anchor="middle" x="2594.38" y="-66.5" font-family="Helvetica,sans-Serif" font-size="10.00">vec2.h</text>
</a>
</g>
<!-- Node4&#45;&gt;Node5 -->
<g id="edge10" class="edge"><title>Node4&#45;&gt;Node5</title>
<path fill="none" stroke="midnightblue" d="M2491.42,-123.412C2511.52,-112.788 2542.69,-96.3182 2565.47,-84.28"/>
<polygon fill="midnightblue" stroke="midnightblue" points="2567.15,-87.3503 2574.36,-79.5835 2563.88,-81.1613 2567.15,-87.3503"/>
</g>
<!-- Node6 -->
<g id="node13" class="node"><title>Node6</title>
<polygon fill="white" stroke="#bfbfbf" points="2323.38,-0.5 2323.38,-21.5 2367.38,-21.5 2367.38,-0.5 2323.38,-0.5"/>
<text text-anchor="middle" x="2345.38" y="-8.5" font-family="Helvetica,sans-Serif" font-size="10.00">cmath</text>
</g>
<!-- Node4&#45;&gt;Node6 -->
<g id="edge16" class="edge"><title>Node4&#45;&gt;Node6</title>
<path fill="none" stroke="midnightblue" d="M2466.47,-123.362C2458.8,-107.619 2442.72,-77.8436 2422.38,-58 2409.02,-44.9575 2391.39,-33.8674 2376.38,-25.7409"/>
<polygon fill="midnightblue" stroke="midnightblue" points="2377.92,-22.5949 2367.43,-21.0731 2374.68,-28.8012 2377.92,-22.5949"/>
</g>
<!-- Node7 -->
<g id="node15" class="node"><title>Node7</title>
<polygon fill="white" stroke="#bfbfbf" points="2110.38,-58.5 2110.38,-79.5 2162.38,-79.5 2162.38,-58.5 2110.38,-58.5"/>
<text text-anchor="middle" x="2136.38" y="-66.5" font-family="Helvetica,sans-Serif" font-size="10.00">ostream</text>
</g>
<!-- Node4&#45;&gt;Node7 -->
<g id="edge14" class="edge"><title>Node4&#45;&gt;Node7</title>
<path fill="none" stroke="midnightblue" d="M2443.03,-123.425C2435.13,-120.737 2426.49,-118.037 2418.38,-116 2331.51,-94.1627 2226.98,-79.7568 2172.86,-73.157"/>
<polygon fill="midnightblue" stroke="midnightblue" points="2173.07,-69.6576 2162.73,-71.9413 2172.24,-76.6078 2173.07,-69.6576"/>
</g>
<!-- Node5&#45;&gt;Node6 -->
<g id="edge12" class="edge"><title>Node5&#45;&gt;Node6</title>
<path fill="none" stroke="midnightblue" d="M2571.36,-61.8813C2566.75,-60.5325 2561.93,-59.1768 2557.38,-58 2493.97,-41.5656 2418.96,-25.7863 2377.32,-17.3453"/>
<polygon fill="midnightblue" stroke="midnightblue" points="2377.98,-13.9068 2367.48,-15.3614 2376.59,-20.7687 2377.98,-13.9068"/>
</g>
<!-- Node8&#45;&gt;Node6 -->
<g id="edge20" class="edge"><title>Node8&#45;&gt;Node6</title>
<path fill="none" stroke="midnightblue" d="M2236.95,-123.085C2257.46,-101.878 2302.89,-54.9255 2327.95,-29.0255"/>
<polygon fill="midnightblue" stroke="midnightblue" points="2330.58,-31.336 2335.02,-21.7153 2325.55,-26.4687 2330.58,-31.336"/>
</g>
<!-- Node9 -->
<g id="node21" class="node"><title>Node9</title>
<polygon fill="white" stroke="#bfbfbf" points="2052.38,-58.5 2052.38,-79.5 2092.38,-79.5 2092.38,-58.5 2052.38,-58.5"/>
<text text-anchor="middle" x="2072.38" y="-66.5" font-family="Helvetica,sans-Serif" font-size="10.00">limits</text>
</g>
<!-- Node8&#45;&gt;Node9 -->
<g id="edge22" class="edge"><title>Node8&#45;&gt;Node9</title>
<path fill="none" stroke="midnightblue" d="M2201.3,-123.412C2174.16,-111.956 2130.91,-93.7011 2102.09,-81.5367"/>
<polygon fill="midnightblue" stroke="midnightblue" points="2103.12,-78.1732 2092.54,-77.5091 2100.4,-84.6223 2103.12,-78.1732"/>
</g>
<!-- Node8&#45;&gt;Node10 -->
<g id="edge24" class="edge"><title>Node8&#45;&gt;Node10</title>
<path fill="none" stroke="midnightblue" d="M2226.52,-123.442C2226.14,-106.97 2222.85,-75.2584 2204.38,-58 2178.03,-33.3709 2073.93,-19.5708 2020.46,-13.9755"/>
<polygon fill="midnightblue" stroke="midnightblue" points="2020.78,-10.4901 2010.48,-12.965 2020.07,-17.4545 2020.78,-10.4901"/>
</g>
<!-- Node15&#45;&gt;Node1 -->
<g id="edge228" class="edge"><title>Node15&#45;&gt;Node1</title>
<path fill="none" stroke="midnightblue" d="M1282.68,-457.475C1480.04,-452.663 2052.04,-436.647 2083.38,-412 2141.06,-366.651 2146.73,-269.598 2146.24,-226.896"/>
<polygon fill="midnightblue" stroke="midnightblue" points="2149.74,-226.738 2146,-216.826 2142.74,-226.908 2149.74,-226.738"/>
</g>
<!-- Node15&#45;&gt;Node9 -->
<g id="edge240" class="edge"><title>Node15&#45;&gt;Node9</title>
<path fill="none" stroke="midnightblue" d="M1282.62,-457.226C1431.27,-452.8 1787.5,-439.585 1904.38,-412 1969.54,-396.625 2003.49,-407.754 2043.38,-354 2103.73,-272.686 2086.43,-140.441 2076.82,-89.7122"/>
<polygon fill="midnightblue" stroke="midnightblue" points="2080.2,-88.7772 2074.81,-79.6582 2073.34,-90.1506 2080.2,-88.7772"/>
</g>
<!-- Node15&#45;&gt;Node10 -->
<g id="edge236" class="edge"><title>Node15&#45;&gt;Node10</title>
<path fill="none" stroke="midnightblue" d="M1282.64,-456.984C1475.55,-450.909 2028.25,-431.958 2107.38,-412 2315.2,-359.591 2543.38,-420.318 2543.38,-206 2543.38,-206 2543.38,-206 2543.38,-134 2543.38,-102.551 2559.57,-102.317 2422.38,-58 2347.44,-33.791 2108.14,-17.9127 2020.74,-12.7945"/>
<polygon fill="midnightblue" stroke="midnightblue" points="2020.8,-9.29247 2010.62,-12.2104 2020.4,-16.2808 2020.8,-9.29247"/>
</g>
<!-- Node15&#45;&gt;Node11 -->
<g id="edge238" class="edge"><title>Node15&#45;&gt;Node11</title>
<path fill="none" stroke="midnightblue" d="M1282.39,-456.525C1476.41,-448.378 2031.38,-418.479 2031.38,-343 2031.38,-343 2031.38,-343 2031.38,-278 2031.38,-231.231 2007.18,-180.566 1992.12,-153.565"/>
<polygon fill="midnightblue" stroke="midnightblue" points="1995.07,-151.665 1987.05,-144.739 1989,-155.153 1995.07,-151.665"/>
</g>
<!-- Node16 -->
<g id="node36" class="node"><title>Node16</title>
<a xlink:href="_unpacker_8h.html" target="_top" xlink:title="Unpacker.h">
<polygon fill="white" stroke="black" points="149.885,-123.5 149.885,-144.5 216.885,-144.5 216.885,-123.5 149.885,-123.5"/>
<text text-anchor="middle" x="183.385" y="-131.5" font-family="Helvetica,sans-Serif" font-size="10.00">Unpacker.h</text>
</a>
</g>
<!-- Node15&#45;&gt;Node16 -->
<g id="edge38" class="edge"><title>Node15&#45;&gt;Node16</title>
<path fill="none" stroke="midnightblue" d="M1150.24,-457.985C929.92,-454.342 232.71,-440.595 194.385,-412 168.361,-392.584 170.385,-375.469 170.385,-343 170.385,-343 170.385,-343 170.385,-278 170.385,-234.097 176.453,-182.968 180.297,-154.98"/>
<polygon fill="midnightblue" stroke="midnightblue" points="183.801,-155.2 181.738,-144.808 176.87,-154.219 183.801,-155.2"/>
</g>
<!-- Node17 -->
<g id="node39" class="node"><title>Node17</title>
<polygon fill="white" stroke="#bfbfbf" points="248.385,-58.5 248.385,-79.5 300.385,-79.5 300.385,-58.5 248.385,-58.5"/>
<text text-anchor="middle" x="274.385" y="-66.5" font-family="Helvetica,sans-Serif" font-size="10.00">memory</text>
</g>
<!-- Node15&#45;&gt;Node17 -->
<g id="edge230" class="edge"><title>Node15&#45;&gt;Node17</title>
<path fill="none" stroke="midnightblue" d="M1150.35,-458.548C976.469,-456.852 509.035,-448.892 359.385,-412 287.744,-394.339 208.385,-416.786 208.385,-343 208.385,-343 208.385,-343 208.385,-278 208.385,-205.308 245.139,-124.72 263.792,-88.5011"/>
<polygon fill="midnightblue" stroke="midnightblue" points="266.966,-89.9848 268.527,-79.5056 260.772,-86.724 266.966,-89.9848"/>
</g>
<!-- Node18 -->
<g id="node41" class="node"><title>Node18</title>
<a xlink:href="_exp_config_8h.html" target="_top" xlink:title="expconfig/ExpConfig.h">
<polygon fill="white" stroke="black" points="729.385,-390.5 729.385,-411.5 845.385,-411.5 845.385,-390.5 729.385,-390.5"/>
<text text-anchor="middle" x="787.385" y="-398.5" font-family="Helvetica,sans-Serif" font-size="10.00">expconfig/ExpConfig.h</text>
</a>
</g>
<!-- Node15&#45;&gt;Node18 -->
<g id="edge44" class="edge"><title>Node15&#45;&gt;Node18</title>
<path fill="none" stroke="midnightblue" d="M1150.29,-450.065C1070.39,-439.262 936.599,-421.174 855.708,-410.237"/>
<polygon fill="midnightblue" stroke="midnightblue" points="856.006,-406.746 845.628,-408.874 855.069,-413.683 856.006,-406.746"/>
</g>
<!-- Node22 -->
<g id="node52" class="node"><title>Node22</title>
<polygon fill="white" stroke="#bfbfbf" points="355.885,-58.5 355.885,-79.5 384.885,-79.5 384.885,-58.5 355.885,-58.5"/>
<text text-anchor="middle" x="370.385" y="-66.5" font-family="Helvetica,sans-Serif" font-size="10.00">list</text>
</g>
<!-- Node15&#45;&gt;Node22 -->
<g id="edge232" class="edge"><title>Node15&#45;&gt;Node22</title>
<path fill="none" stroke="midnightblue" d="M1150.1,-457.719C937.181,-452.736 284.385,-430.336 284.385,-343 284.385,-343 284.385,-343 284.385,-278 284.385,-237.118 273.305,-215.686 303.385,-188 397.648,-101.239 504.64,-248.081 589.385,-152 599.968,-140.001 599.473,-128.419 589.385,-116 540.14,-55.3808 493.635,-96.9002 417.385,-80 410.128,-78.3918 402.259,-76.5776 395.072,-74.8933"/>
<polygon fill="midnightblue" stroke="midnightblue" points="395.719,-71.4497 385.182,-72.5575 394.11,-78.2623 395.719,-71.4497"/>
</g>
<!-- Node26 -->
<g id="node66" class="node"><title>Node26</title>
<polygon fill="white" stroke="#bfbfbf" points="311.885,-195.5 311.885,-216.5 346.885,-216.5 346.885,-195.5 311.885,-195.5"/>
<text text-anchor="middle" x="329.385" y="-203.5" font-family="Helvetica,sans-Serif" font-size="10.00">map</text>
</g>
<!-- Node15&#45;&gt;Node26 -->
<g id="edge234" class="edge"><title>Node15&#45;&gt;Node26</title>
<path fill="none" stroke="midnightblue" d="M1149.97,-454.991C1034.21,-447.622 800.234,-430.936 720.385,-412 582.095,-379.205 542.031,-372.708 422.385,-296 391.104,-275.945 361.428,-244.243 344.337,-224.311"/>
<polygon fill="midnightblue" stroke="midnightblue" points="346.93,-221.957 337.815,-216.558 341.574,-226.463 346.93,-221.957"/>
</g>
<!-- Node16&#45;&gt;Node13 -->
<g id="edge40" class="edge"><title>Node16&#45;&gt;Node13</title>
<path fill="none" stroke="midnightblue" d="M187.613,-123.261C195.09,-105.922 212.445,-72.2676 239.385,-58 240.236,-57.5491 1243.47,-19.3968 1433.52,-12.1731"/>
<polygon fill="midnightblue" stroke="midnightblue" points="1433.79,-15.6652 1443.65,-11.7878 1433.53,-8.67027 1433.79,-15.6652"/>
</g>
<!-- Node16&#45;&gt;Node17 -->
<g id="edge42" class="edge"><title>Node16&#45;&gt;Node17</title>
<path fill="none" stroke="midnightblue" d="M198.411,-123.267C212.723,-113.044 234.479,-97.5043 251.047,-85.6699"/>
<polygon fill="midnightblue" stroke="midnightblue" points="253.534,-88.1942 259.637,-79.5337 249.466,-82.4981 253.534,-88.1942"/>
</g>
<!-- Node18&#45;&gt;Node1 -->
<g id="edge46" class="edge"><title>Node18&#45;&gt;Node1</title>
<path fill="none" stroke="midnightblue" d="M845.67,-398.235C1049.88,-388.155 1732.04,-351.061 1943.38,-296 2009.14,-278.868 2080.54,-242.402 2118.33,-221.528"/>
<polygon fill="midnightblue" stroke="midnightblue" points="2120.17,-224.51 2127.2,-216.578 2116.76,-218.399 2120.17,-224.51"/>
</g>
<!-- Node18&#45;&gt;Node17 -->
<g id="edge222" class="edge"><title>Node18&#45;&gt;Node17</title>
<path fill="none" stroke="midnightblue" d="M732.688,-390.471C690.894,-381.957 632.047,-368.955 581.385,-354 450.568,-315.383 381.054,-336.124 303.385,-224 274.922,-182.911 272.307,-121.591 273.149,-89.7966"/>
<polygon fill="midnightblue" stroke="midnightblue" points="276.658,-89.6469 273.574,-79.511 269.664,-89.3579 276.658,-89.6469"/>
</g>
<!-- Node19 -->
<g id="node44" class="node"><title>Node19</title>
<a xlink:href="_reconstruct__traits_8h.html" target="_top" xlink:title="reconstruct/Reconstruct\l_traits.h">
<polygon fill="white" stroke="black" points="510.385,-261 510.385,-295 632.385,-295 632.385,-261 510.385,-261"/>
<text text-anchor="start" x="518.385" y="-282" font-family="Helvetica,sans-Serif" font-size="10.00">reconstruct/Reconstruct</text>
<text text-anchor="middle" x="571.385" y="-269" font-family="Helvetica,sans-Serif" font-size="10.00">_traits.h</text>
</a>
</g>
<!-- Node18&#45;&gt;Node19 -->
<g id="edge48" class="edge"><title>Node18&#45;&gt;Node19</title>
<path fill="none" stroke="midnightblue" d="M758.368,-390.416C735.939,-381.781 704.429,-368.649 678.385,-354 650.806,-338.489 621.662,-317.442 600.767,-301.43"/>
<polygon fill="midnightblue" stroke="midnightblue" points="602.675,-298.481 592.625,-295.126 598.389,-304.016 602.675,-298.481"/>
</g>
<!-- Node18&#45;&gt;Node22 -->
<g id="edge224" class="edge"><title>Node18&#45;&gt;Node22</title>
<path fill="none" stroke="midnightblue" d="M770.837,-390.312C743.619,-371.283 692.385,-328.726 692.385,-278 692.385,-278 692.385,-278 692.385,-206 692.385,-159.803 678.422,-142.217 640.385,-116 557.723,-59.0263 515.877,-99.451 417.385,-80 410.093,-78.56 402.213,-76.7976 395.027,-75.1089"/>
<polygon fill="midnightblue" stroke="midnightblue" points="395.686,-71.6677 385.145,-72.7338 394.05,-78.4739 395.686,-71.6677"/>
</g>
<!-- Node18&#45;&gt;Node26 -->
<g id="edge226" class="edge"><title>Node18&#45;&gt;Node26</title>
<path fill="none" stroke="midnightblue" d="M751.448,-390.453C721.504,-381.44 677.854,-367.778 640.385,-354 511.612,-306.647 480.851,-289.67 360.385,-224 358.882,-223.181 357.344,-222.33 355.797,-221.464"/>
<polygon fill="midnightblue" stroke="midnightblue" points="357.417,-218.359 346.996,-216.446 353.95,-224.44 357.417,-218.359"/>
</g>
<!-- Node27 -->
<g id="node70" class="node"><title>Node27</title>
<a xlink:href="_calibration_8h.html" target="_top" xlink:title="calibration/Calibration.h">
<polygon fill="white" stroke="black" points="822.885,-332.5 822.885,-353.5 941.885,-353.5 941.885,-332.5 822.885,-332.5"/>
<text text-anchor="middle" x="882.385" y="-340.5" font-family="Helvetica,sans-Serif" font-size="10.00">calibration/Calibration.h</text>
</a>
</g>
<!-- Node18&#45;&gt;Node27 -->
<g id="edge84" class="edge"><title>Node18&#45;&gt;Node27</title>
<path fill="none" stroke="midnightblue" d="M804.809,-390.362C819.272,-381.532 840.054,-368.844 856.469,-358.822"/>
<polygon fill="midnightblue" stroke="midnightblue" points="858.359,-361.769 865.071,-353.571 854.712,-355.794 858.359,-361.769"/>
</g>
<!-- Node52 -->
<g id="node153" class="node"><title>Node52</title>
<a xlink:href="piecewise__interval_8h.html" target="_top" xlink:title="base/piecewise_interval.h">
<polygon fill="white" stroke="black" points="1721.88,-195.5 1721.88,-216.5 1850.88,-216.5 1850.88,-195.5 1721.88,-195.5"/>
<text text-anchor="middle" x="1786.38" y="-203.5" font-family="Helvetica,sans-Serif" font-size="10.00">base/piecewise_interval.h</text>
</a>
</g>
<!-- Node18&#45;&gt;Node52 -->
<g id="edge200" class="edge"><title>Node18&#45;&gt;Node52</title>
<path fill="none" stroke="midnightblue" d="M841.449,-390.447C1012.09,-357.139 1538.77,-254.333 1722.42,-218.485"/>
<polygon fill="midnightblue" stroke="midnightblue" points="1723.32,-221.876 1732.47,-216.525 1721.98,-215.005 1723.32,-221.876"/>
</g>
<!-- Node19&#45;&gt;Node1 -->
<g id="edge50" class="edge"><title>Node19&#45;&gt;Node1</title>
<path fill="none" stroke="midnightblue" d="M632.51,-272.824C681.837,-268.808 753.036,-263.373 815.385,-260 1278.98,-234.917 1395.66,-246.584 1859.38,-224 1938.61,-220.142 2030.08,-214.108 2087.81,-210.105"/>
<polygon fill="midnightblue" stroke="midnightblue" points="2088.11,-213.593 2097.84,-209.407 2087.62,-206.61 2088.11,-213.593"/>
</g>
<!-- Node19&#45;&gt;Node17 -->
<g id="edge76" class="edge"><title>Node19&#45;&gt;Node17</title>
<path fill="none" stroke="midnightblue" d="M537.957,-260.836C518.949,-250.721 494.916,-237.327 474.385,-224 452.017,-209.481 449.412,-201.449 426.385,-188 392.015,-167.927 376.264,-175.831 344.385,-152 320.361,-134.041 299.158,-106.342 286.551,-87.9487"/>
<polygon fill="midnightblue" stroke="midnightblue" points="289.386,-85.8913 280.925,-79.5147 283.563,-89.776 289.386,-85.8913"/>
</g>
<!-- Node20 -->
<g id="node47" class="node"><title>Node20</title>
<a xlink:href="mapped__vectors_8h.html" target="_top" xlink:title="base/std_ext/mapped\l_vectors.h">
<polygon fill="white" stroke="black" points="516.385,-189 516.385,-223 626.385,-223 626.385,-189 516.385,-189"/>
<text text-anchor="start" x="524.385" y="-210" font-family="Helvetica,sans-Serif" font-size="10.00">base/std_ext/mapped</text>
<text text-anchor="middle" x="571.385" y="-197" font-family="Helvetica,sans-Serif" font-size="10.00">_vectors.h</text>
</a>
</g>
<!-- Node19&#45;&gt;Node20 -->
<g id="edge52" class="edge"><title>Node19&#45;&gt;Node20</title>
<path fill="none" stroke="midnightblue" d="M571.385,-260.937C571.385,-252.807 571.385,-242.876 571.385,-233.705"/>
<polygon fill="midnightblue" stroke="midnightblue" points="574.885,-233.441 571.385,-223.441 567.885,-233.441 574.885,-233.441"/>
</g>
<!-- Node19&#45;&gt;Node22 -->
<g id="edge80" class="edge"><title>Node19&#45;&gt;Node22</title>
<path fill="none" stroke="midnightblue" d="M601.496,-260.936C614.472,-251.815 628.278,-239.294 635.385,-224 646.643,-199.771 625.088,-118.652 622.385,-116 550.401,-45.3909 495.649,-106.588 398.385,-80 397.138,-79.6591 395.87,-79.2814 394.598,-78.877"/>
<polygon fill="midnightblue" stroke="midnightblue" points="395.6,-75.5181 385.006,-75.4284 393.232,-82.1053 395.6,-75.5181"/>
</g>
<!-- Node23 -->
<g id="node57" class="node"><title>Node23</title>
<a xlink:href="shared__ptr__container_8h.html" target="_top" xlink:title="base/std_ext/shared\l_ptr_container.h">
<polygon fill="white" stroke="black" points="27.8845,-117 27.8845,-151 132.885,-151 132.885,-117 27.8845,-117"/>
<text text-anchor="start" x="35.8845" y="-138" font-family="Helvetica,sans-Serif" font-size="10.00">base/std_ext/shared</text>
<text text-anchor="middle" x="80.3845" y="-125" font-family="Helvetica,sans-Serif" font-size="10.00">_ptr_container.h</text>
</a>
</g>
<!-- Node19&#45;&gt;Node23 -->
<g id="edge66" class="edge"><title>Node19&#45;&gt;Node23</title>
<path fill="none" stroke="midnightblue" d="M519.6,-260.92C493.844,-251.527 462.682,-238.779 436.385,-224 413.137,-210.935 413.007,-198.24 388.385,-188 288.953,-146.649 251.926,-174.043 143.21,-152.191"/>
<polygon fill="midnightblue" stroke="midnightblue" points="143.673,-148.712 133.167,-150.074 142.23,-155.561 143.673,-148.712"/>
</g>
<!-- Node24 -->
<g id="node61" class="node"><title>Node24</title>
<polygon fill="white" stroke="#bfbfbf" points="382.885,-0.5 382.885,-21.5 441.885,-21.5 441.885,-0.5 382.885,-0.5"/>
<text text-anchor="middle" x="412.385" y="-8.5" font-family="Helvetica,sans-Serif" font-size="10.00">functional</text>
</g>
<!-- Node19&#45;&gt;Node24 -->
<g id="edge82" class="edge"><title>Node19&#45;&gt;Node24</title>
<path fill="none" stroke="midnightblue" d="M509.96,-263.633C465.149,-252.457 408.829,-236.758 388.385,-224 369.971,-212.509 374.758,-197.787 355.385,-188 288.358,-154.139 69.576,-207.856 19.3845,-152 -83.3758,-37.6414 253.907,-15.9908 372.61,-11.9283"/>
<polygon fill="midnightblue" stroke="midnightblue" points="372.858,-15.4222 382.742,-11.6064 372.636,-8.42576 372.858,-15.4222"/>
</g>
<!-- Node19&#45;&gt;Node26 -->
<g id="edge78" class="edge"><title>Node19&#45;&gt;Node26</title>
<path fill="none" stroke="midnightblue" d="M509.934,-266.942C467.056,-258.11 409.031,-243.9 360.385,-224 358.527,-223.24 356.645,-222.386 354.775,-221.473"/>
<polygon fill="midnightblue" stroke="midnightblue" points="356.152,-218.24 345.686,-216.59 352.839,-224.406 356.152,-218.24"/>
</g>
<!-- Node20&#45;&gt;Node10 -->
<g id="edge60" class="edge"><title>Node20&#45;&gt;Node10</title>
<path fill="none" stroke="midnightblue" d="M526.781,-188.928C504.058,-179.412 476.436,-166.552 453.385,-152 432.308,-138.695 430.841,-130.239 410.385,-116 379.148,-94.257 320.775,-85.211 347.385,-58 377.622,-27.079 1813.13,-29.8518 1956.21,-20.7792"/>
<polygon fill="midnightblue" stroke="midnightblue" points="1956.65,-24.2526 1966.27,-19.8007 1955.97,-17.2855 1956.65,-24.2526"/>
</g>
<!-- Node20&#45;&gt;Node14 -->
<g id="edge64" class="edge"><title>Node20&#45;&gt;Node14</title>
<path fill="none" stroke="midnightblue" d="M626.464,-201.953C714.796,-194.787 883.661,-178.113 937.385,-152 958.308,-141.83 953.984,-125.125 975.385,-116 1052.54,-83.1033 1645.72,-85.9606 1729.38,-80 1754.12,-78.2377 1781.76,-75.6408 1803.86,-73.4128"/>
<polygon fill="midnightblue" stroke="midnightblue" points="1804.32,-76.8847 1813.91,-72.3868 1803.6,-69.9209 1804.32,-76.8847"/>
</g>
<!-- Node20&#45;&gt;Node17 -->
<g id="edge62" class="edge"><title>Node20&#45;&gt;Node17</title>
<path fill="none" stroke="midnightblue" d="M516.241,-190.666C486.873,-181.427 450.666,-168.287 420.385,-152 396.899,-139.368 395.183,-129.832 372.385,-116 352.235,-103.775 328.42,-92.2915 309.312,-83.7357"/>
<polygon fill="midnightblue" stroke="midnightblue" points="310.633,-80.4929 300.071,-79.6604 307.808,-86.8978 310.633,-80.4929"/>
</g>
<!-- Node21 -->
<g id="node49" class="node"><title>Node21</title>
<a xlink:href="memory_8h.html" target="_top" xlink:title="base/std_ext/memory.h">
<polygon fill="white" stroke="black" points="461.885,-123.5 461.885,-144.5 580.885,-144.5 580.885,-123.5 461.885,-123.5"/>
<text text-anchor="middle" x="521.385" y="-131.5" font-family="Helvetica,sans-Serif" font-size="10.00">base/std_ext/memory.h</text>
</a>
</g>
<!-- Node20&#45;&gt;Node21 -->
<g id="edge54" class="edge"><title>Node20&#45;&gt;Node21</title>
<path fill="none" stroke="midnightblue" d="M559.535,-188.937C552.061,-178.174 542.395,-164.255 534.663,-153.12"/>
<polygon fill="midnightblue" stroke="midnightblue" points="537.534,-151.118 528.955,-144.901 531.784,-155.111 537.534,-151.118"/>
</g>
<!-- Node21&#45;&gt;Node17 -->
<g id="edge56" class="edge"><title>Node21&#45;&gt;Node17</title>
<path fill="none" stroke="midnightblue" d="M481.425,-123.484C434.078,-111.025 355.892,-90.4494 310.36,-78.4673"/>
<polygon fill="midnightblue" stroke="midnightblue" points="311.179,-75.0636 300.617,-75.9034 309.397,-81.8331 311.179,-75.0636"/>
</g>
<!-- Node21&#45;&gt;Node22 -->
<g id="edge58" class="edge"><title>Node21&#45;&gt;Node22</title>
<path fill="none" stroke="midnightblue" d="M496.788,-123.412C468.505,-111.237 422.382,-91.3832 394.363,-79.3217"/>
<polygon fill="midnightblue" stroke="midnightblue" points="395.494,-75.9983 384.925,-75.2592 392.726,-82.4279 395.494,-75.9983"/>
</g>
<!-- Node23&#45;&gt;Node10 -->
<g id="edge68" class="edge"><title>Node23&#45;&gt;Node10</title>
<path fill="none" stroke="midnightblue" d="M106.925,-116.948C137.473,-98.3875 189.825,-69.7829 239.385,-58 607.716,29.5712 1565.21,-88.6736 1956.28,-21.5809"/>
<polygon fill="midnightblue" stroke="midnightblue" points="1957.03,-25.0022 1966.27,-19.8046 1955.81,-18.1104 1957.03,-25.0022"/>
</g>
<!-- Node23&#45;&gt;Node17 -->
<g id="edge70" class="edge"><title>Node23&#45;&gt;Node17</title>
<path fill="none" stroke="midnightblue" d="M131.356,-116.922C165.044,-105.635 208.374,-91.117 238.472,-81.0326"/>
<polygon fill="midnightblue" stroke="midnightblue" points="239.769,-84.2893 248.139,-77.7936 237.545,-77.652 239.769,-84.2893"/>
</g>
<!-- Node23&#45;&gt;Node24 -->
<g id="edge72" class="edge"><title>Node23&#45;&gt;Node24</title>
<path fill="none" stroke="midnightblue" d="M84.3404,-116.82C89.3597,-99.1283 99.8215,-72.1999 119.385,-58 159.042,-29.2148 301.555,-17.2568 372.161,-13.0126"/>
<polygon fill="midnightblue" stroke="midnightblue" points="372.661,-16.4897 382.442,-12.4187 372.257,-9.50132 372.661,-16.4897"/>
</g>
<!-- Node25 -->
<g id="node63" class="node"><title>Node25</title>
<polygon fill="white" stroke="#bfbfbf" points="1108.38,-0.5 1108.38,-21.5 1164.38,-21.5 1164.38,-0.5 1108.38,-0.5"/>
<text text-anchor="middle" x="1136.38" y="-8.5" font-family="Helvetica,sans-Serif" font-size="10.00">algorithm</text>
</g>
<!-- Node23&#45;&gt;Node25 -->
<g id="edge74" class="edge"><title>Node23&#45;&gt;Node25</title>
<path fill="none" stroke="midnightblue" d="M92.506,-116.727C106.487,-98.4045 131.319,-70.4238 160.385,-58 247.622,-20.7108 927.662,-12.7022 1097.87,-11.2749"/>
<polygon fill="midnightblue" stroke="midnightblue" points="1098.13,-14.773 1108.1,-11.192 1098.07,-7.77323 1098.13,-14.773"/>
</g>
<!-- Node27&#45;&gt;Node10 -->
<g id="edge198" class="edge"><title>Node27&#45;&gt;Node10</title>
<path fill="none" stroke="midnightblue" d="M941.982,-341.469C1128.75,-335.792 1699.71,-311.516 1859.38,-224 1913.93,-194.105 1905.95,-161.475 1948.38,-116 1964.26,-98.9909 1976.88,-101.236 1986.38,-80 1993.1,-64.9808 1993.19,-46.2249 1991.83,-32.0604"/>
<polygon fill="midnightblue" stroke="midnightblue" points="1995.26,-31.3197 1990.52,-21.8442 1988.32,-32.2073 1995.26,-31.3197"/>
</g>
<!-- Node27&#45;&gt;Node19 -->
<g id="edge86" class="edge"><title>Node27&#45;&gt;Node19</title>
<path fill="none" stroke="midnightblue" d="M832.071,-332.484C780.636,-321.734 700.296,-304.943 642.397,-292.842"/>
<polygon fill="midnightblue" stroke="midnightblue" points="643.088,-289.411 632.583,-290.791 641.656,-296.263 643.088,-289.411"/>
</g>
<!-- Node28 -->
<g id="node73" class="node"><title>Node28</title>
<a xlink:href="_manager__traits_8h.html" target="_top" xlink:title="calibration/gui/Manager\l_traits.h">
<polygon fill="white" stroke="black" points="823.885,-261 823.885,-295 940.885,-295 940.885,-261 823.885,-261"/>
<text text-anchor="start" x="831.885" y="-282" font-family="Helvetica,sans-Serif" font-size="10.00">calibration/gui/Manager</text>
<text text-anchor="middle" x="882.385" y="-269" font-family="Helvetica,sans-Serif" font-size="10.00">_traits.h</text>
</a>
</g>
<!-- Node27&#45;&gt;Node28 -->
<g id="edge88" class="edge"><title>Node27&#45;&gt;Node28</title>
<path fill="none" stroke="midnightblue" d="M882.385,-332.267C882.385,-324.931 882.385,-314.857 882.385,-305.38"/>
<polygon fill="midnightblue" stroke="midnightblue" points="885.885,-305.11 882.385,-295.11 878.885,-305.11 885.885,-305.11"/>
</g>
<!-- Node51 -->
<g id="node145" class="node"><title>Node51</title>
<a xlink:href="_options_list_8h.html" target="_top" xlink:title="base/OptionsList.h">
<polygon fill="white" stroke="black" points="1129.38,-267.5 1129.38,-288.5 1227.38,-288.5 1227.38,-267.5 1129.38,-267.5"/>
<text text-anchor="middle" x="1178.38" y="-275.5" font-family="Helvetica,sans-Serif" font-size="10.00">base/OptionsList.h</text>
</a>
</g>
<!-- Node27&#45;&gt;Node51 -->
<g id="edge186" class="edge"><title>Node27&#45;&gt;Node51</title>
<path fill="none" stroke="midnightblue" d="M930.271,-332.484C982.181,-321.085 1065.02,-302.894 1120.53,-290.704"/>
<polygon fill="midnightblue" stroke="midnightblue" points="1121.55,-294.064 1130.57,-288.501 1120.05,-287.227 1121.55,-294.064"/>
</g>
<!-- Node28&#45;&gt;Node13 -->
<g id="edge178" class="edge"><title>Node28&#45;&gt;Node13</title>
<path fill="none" stroke="midnightblue" d="M941.01,-272.205C1027.04,-263.165 1182.94,-244.596 1235.38,-224 1261.89,-213.591 1263.19,-201.271 1288.38,-188 1327.23,-167.537 1344.26,-176.963 1380.38,-152 1415.85,-127.49 1424.66,-117.802 1445.38,-80 1453.59,-65.0417 1458.46,-46.2813 1461.21,-32.0997"/>
<polygon fill="midnightblue" stroke="midnightblue" points="1464.72,-32.3194 1462.98,-21.868 1457.83,-31.1217 1464.72,-32.3194"/>
</g>
<!-- Node28&#45;&gt;Node17 -->
<g id="edge182" class="edge"><title>Node28&#45;&gt;Node17</title>
<path fill="none" stroke="midnightblue" d="M823.563,-273.475C732.651,-265.823 562.713,-248.71 507.385,-224 484.626,-213.836 485.826,-200.708 464.385,-188 426.612,-165.614 408.6,-176.826 372.385,-152 354.482,-139.728 355.596,-130.433 339.385,-116 326.914,-104.897 311.867,-93.8848 299.392,-85.3136"/>
<polygon fill="midnightblue" stroke="midnightblue" points="301.083,-82.2322 290.836,-79.5375 297.166,-88.0338 301.083,-82.2322"/>
</g>
<!-- Node28&#45;&gt;Node22 -->
<g id="edge180" class="edge"><title>Node28&#45;&gt;Node22</title>
<path fill="none" stroke="midnightblue" d="M847.533,-260.908C829.983,-251.386 808.97,-238.528 792.385,-224 746.229,-183.57 760.015,-145.811 706.385,-116 585.923,-49.0396 532.078,-113.475 398.385,-80 397.131,-79.686 395.857,-79.33 394.58,-78.9428"/>
<polygon fill="midnightblue" stroke="midnightblue" points="395.568,-75.5798 384.973,-75.5519 393.238,-82.1808 395.568,-75.5798"/>
</g>
<!-- Node28&#45;&gt;Node24 -->
<g id="edge184" class="edge"><title>Node28&#45;&gt;Node24</title>
<path fill="none" stroke="midnightblue" d="M872.981,-260.845C853.178,-226.59 803.577,-150.088 738.385,-116 619.381,-53.7744 544.065,-162.858 438.385,-80 423.569,-68.3842 417.195,-47.3436 414.454,-31.5398"/>
<polygon fill="midnightblue" stroke="midnightblue" points="417.918,-31.0397 413.077,-21.6156 410.984,-32.0018 417.918,-31.0397"/>
</g>
<!-- Node29 -->
<g id="node75" class="node"><title>Node29</title>
<a xlink:href="interval_8h.html" target="_top" xlink:title="base/interval.h">
<polygon fill="white" stroke="black" points="1569.38,-123.5 1569.38,-144.5 1649.38,-144.5 1649.38,-123.5 1569.38,-123.5"/>
<text text-anchor="middle" x="1609.38" y="-131.5" font-family="Helvetica,sans-Serif" font-size="10.00">base/interval.h</text>
</a>
</g>
<!-- Node28&#45;&gt;Node29 -->
<g id="edge90" class="edge"><title>Node28&#45;&gt;Node29</title>
<path fill="none" stroke="midnightblue" d="M940.975,-272.828C1020.29,-265.231 1165.98,-249.17 1288.38,-224 1390.15,-203.075 1507.03,-167.244 1567.79,-147.7"/>
<polygon fill="midnightblue" stroke="midnightblue" points="1568.97,-150.998 1577.4,-144.592 1566.81,-144.337 1568.97,-150.998"/>
</g>
<!-- Node33 -->
<g id="node87" class="node"><title>Node33</title>
<a xlink:href="_wrap_t_file_8h.html" target="_top" xlink:title="base/WrapTFile.h">
<polygon fill="white" stroke="black" points="834.385,-123.5 834.385,-144.5 928.385,-144.5 928.385,-123.5 834.385,-123.5"/>
<text text-anchor="middle" x="881.385" y="-131.5" font-family="Helvetica,sans-Serif" font-size="10.00">base/WrapTFile.h</text>
</a>
</g>
<!-- Node28&#45;&gt;Node33 -->
<g id="edge106" class="edge"><title>Node28&#45;&gt;Node33</title>
<path fill="none" stroke="midnightblue" d="M882.266,-260.916C882.081,-234.345 881.726,-183.207 881.528,-154.622"/>
<polygon fill="midnightblue" stroke="midnightblue" points="885.027,-154.517 881.458,-144.541 878.027,-154.565 885.027,-154.517"/>
</g>
<!-- Node44 -->
<g id="node121" class="node"><title>Node44</title>
<a xlink:href="_t_i_d_8h.html" target="_top" xlink:title="tree/TID.h">
<polygon fill="white" stroke="black" points="1165.88,-195.5 1165.88,-216.5 1226.88,-216.5 1226.88,-195.5 1165.88,-195.5"/>
<text text-anchor="middle" x="1196.38" y="-203.5" font-family="Helvetica,sans-Serif" font-size="10.00">tree/TID.h</text>
</a>
</g>
<!-- Node28&#45;&gt;Node44 -->
<g id="edge152" class="edge"><title>Node28&#45;&gt;Node44</title>
<path fill="none" stroke="midnightblue" d="M941.077,-264.542C1003.61,-250.203 1100.96,-227.88 1155.61,-215.349"/>
<polygon fill="midnightblue" stroke="midnightblue" points="1156.66,-218.699 1165.63,-213.053 1155.1,-211.876 1156.66,-218.699"/>
</g>
<!-- Node29&#45;&gt;Node6 -->
<g id="edge104" class="edge"><title>Node29&#45;&gt;Node6</title>
<path fill="none" stroke="midnightblue" d="M1630.5,-123.484C1665.74,-106.467 1739.24,-73.2625 1805.38,-58 1903.03,-35.4679 2211.99,-17.895 2313.05,-12.6262"/>
<polygon fill="midnightblue" stroke="midnightblue" points="2313.44,-16.1107 2323.25,-12.0996 2313.08,-9.12002 2313.44,-16.1107"/>
</g>
<!-- Node29&#45;&gt;Node9 -->
<g id="edge98" class="edge"><title>Node29&#45;&gt;Node9</title>
<path fill="none" stroke="midnightblue" d="M1649.63,-128.154C1674.13,-124.609 1706.05,-120.009 1734.38,-116 1847.87,-99.9391 1982.86,-81.3118 2042.04,-73.169"/>
<polygon fill="midnightblue" stroke="midnightblue" points="2042.76,-76.6035 2052.19,-71.7736 2041.8,-69.6688 2042.76,-76.6035"/>
</g>
<!-- Node29&#45;&gt;Node12 -->
<g id="edge96" class="edge"><title>Node29&#45;&gt;Node12</title>
<path fill="none" stroke="midnightblue" d="M1576.48,-123.412C1540.97,-111.986 1484.45,-93.7969 1446.64,-81.6326"/>
<polygon fill="midnightblue" stroke="midnightblue" points="1447.58,-78.2564 1436.99,-78.525 1445.43,-84.92 1447.58,-78.2564"/>
</g>
<!-- Node29&#45;&gt;Node25 -->
<g id="edge94" class="edge"><title>Node29&#45;&gt;Node25</title>
<path fill="none" stroke="midnightblue" d="M1590.88,-123.297C1561.21,-106.625 1500.67,-74.6466 1445.38,-58 1350.54,-29.4436 1233.85,-17.7148 1174.68,-13.335"/>
<polygon fill="midnightblue" stroke="midnightblue" points="1174.89,-9.84088 1164.67,-12.6235 1174.39,-16.8233 1174.89,-9.84088"/>
</g>
<!-- Node30 -->
<g id="node77" class="node"><title>Node30</title>
<a xlink:href="types_8h.html" target="_top" xlink:title="types.h">
<polygon fill="white" stroke="black" points="1605.88,-58.5 1605.88,-79.5 1654.88,-79.5 1654.88,-58.5 1605.88,-58.5"/>
<text text-anchor="middle" x="1630.38" y="-66.5" font-family="Helvetica,sans-Serif" font-size="10.00">types.h</text>
</a>
</g>
<!-- Node29&#45;&gt;Node30 -->
<g id="edge92" class="edge"><title>Node29&#45;&gt;Node30</title>
<path fill="none" stroke="midnightblue" d="M1612.85,-123.267C1615.82,-114.085 1620.17,-100.615 1623.8,-89.3917"/>
<polygon fill="midnightblue" stroke="midnightblue" points="1627.24,-90.1254 1626.98,-79.5337 1620.58,-87.9734 1627.24,-90.1254"/>
</g>
<!-- Node31 -->
<g id="node82" class="node"><title>Node31</title>
<polygon fill="white" stroke="#bfbfbf" points="1671.88,-58.5 1671.88,-79.5 1720.88,-79.5 1720.88,-58.5 1671.88,-58.5"/>
<text text-anchor="middle" x="1696.38" y="-66.5" font-family="Helvetica,sans-Serif" font-size="10.00">istream</text>
</g>
<!-- Node29&#45;&gt;Node31 -->
<g id="edge100" class="edge"><title>Node29&#45;&gt;Node31</title>
<path fill="none" stroke="midnightblue" d="M1623.75,-123.267C1637.43,-113.044 1658.23,-97.5043 1674.07,-85.6699"/>
<polygon fill="midnightblue" stroke="midnightblue" points="1676.37,-88.3229 1682.29,-79.5337 1672.18,-82.7151 1676.37,-88.3229"/>
</g>
<!-- Node32 -->
<g id="node84" class="node"><title>Node32</title>
<polygon fill="white" stroke="#bfbfbf" points="1552.38,-0.5 1552.38,-21.5 1604.38,-21.5 1604.38,-0.5 1552.38,-0.5"/>
<text text-anchor="middle" x="1578.38" y="-8.5" font-family="Helvetica,sans-Serif" font-size="10.00">sstream</text>
</g>
<!-- Node29&#45;&gt;Node32 -->
<g id="edge102" class="edge"><title>Node29&#45;&gt;Node32</title>
<path fill="none" stroke="midnightblue" d="M1606.63,-123.085C1601.45,-102.518 1590.16,-57.7354 1583.53,-31.4262"/>
<polygon fill="midnightblue" stroke="midnightblue" points="1586.92,-30.5567 1581.09,-21.7153 1580.14,-32.2675 1586.92,-30.5567"/>
</g>
<!-- Node33&#45;&gt;Node12 -->
<g id="edge148" class="edge"><title>Node33&#45;&gt;Node12</title>
<path fill="none" stroke="midnightblue" d="M912.747,-123.422C922.179,-120.602 932.618,-117.833 942.385,-116 1126.37,-81.4694 1180.28,-113.513 1367.75,-80.0181"/>
<polygon fill="midnightblue" stroke="midnightblue" points="1368.44,-83.4497 1377.65,-78.2109 1367.18,-76.5635 1368.44,-83.4497"/>
</g>
<!-- Node33&#45;&gt;Node13 -->
<g id="edge142" class="edge"><title>Node33&#45;&gt;Node13</title>
<path fill="none" stroke="midnightblue" d="M883.606,-123.227C887.75,-106.156 898.408,-73.2625 921.385,-58 964.153,-29.591 1324.72,-15.5695 1433.46,-11.9602"/>
<polygon fill="midnightblue" stroke="midnightblue" points="1433.87,-15.4488 1443.75,-11.625 1433.64,-8.45253 1433.87,-15.4488"/>
</g>
<!-- Node33&#45;&gt;Node17 -->
<g id="edge140" class="edge"><title>Node33&#45;&gt;Node17</title>
<path fill="none" stroke="midnightblue" d="M834.197,-124.454C817.843,-121.403 799.357,-118.24 782.385,-116 590.058,-90.6186 540.074,-102.465 347.385,-80 335.372,-78.5995 322.297,-76.737 310.575,-74.9433"/>
<polygon fill="midnightblue" stroke="midnightblue" points="311.103,-71.4834 300.683,-73.3981 310.023,-78.3995 311.103,-71.4834"/>
</g>
<!-- Node33&#45;&gt;Node22 -->
<g id="edge144" class="edge"><title>Node33&#45;&gt;Node22</title>
<path fill="none" stroke="midnightblue" d="M834.169,-124.658C817.813,-121.624 799.333,-118.419 782.385,-116 629.328,-94.1556 589.598,-100.718 436.385,-80 422.673,-78.1459 407.433,-75.6358 395.055,-73.4816"/>
<polygon fill="midnightblue" stroke="midnightblue" points="395.482,-70.0028 385.025,-71.7055 394.262,-76.8956 395.482,-70.0028"/>
</g>
<!-- Node33&#45;&gt;Node24 -->
<g id="edge150" class="edge"><title>Node33&#45;&gt;Node24</title>
<path fill="none" stroke="midnightblue" d="M849.686,-123.44C840.337,-120.655 830.026,-117.9 820.385,-116 666.525,-85.6796 607.656,-153.98 469.385,-80 448.541,-68.848 432.34,-46.581 422.625,-30.3491"/>
<polygon fill="midnightblue" stroke="midnightblue" points="425.65,-28.5872 417.669,-21.619 419.563,-32.0433 425.65,-28.5872"/>
</g>
<!-- Node34 -->
<g id="node89" class="node"><title>Node34</title>
<a xlink:href="string_8h.html" target="_top" xlink:title="base/std_ext/string.h">
<polygon fill="white" stroke="black" points="1082.38,-58.5 1082.38,-79.5 1190.38,-79.5 1190.38,-58.5 1082.38,-58.5"/>
<text text-anchor="middle" x="1136.38" y="-66.5" font-family="Helvetica,sans-Serif" font-size="10.00">base/std_ext/string.h</text>
</a>
</g>
<!-- Node33&#45;&gt;Node34 -->
<g id="edge108" class="edge"><title>Node33&#45;&gt;Node34</title>
<path fill="none" stroke="midnightblue" d="M916.14,-123.423C924.697,-120.907 933.853,-118.291 942.385,-116 988.47,-103.626 1041.11,-90.9658 1079.91,-81.9072"/>
<polygon fill="midnightblue" stroke="midnightblue" points="1081.02,-85.2425 1089.97,-79.5678 1079.44,-78.4245 1081.02,-85.2425"/>
</g>
<!-- Node35 -->
<g id="node95" class="node"><title>Node35</title>
<a xlink:href="misc_8h.html" target="_top" xlink:title="base/std_ext/misc.h">
<polygon fill="white" stroke="black" points="477.885,-58.5 477.885,-79.5 582.885,-79.5 582.885,-58.5 477.885,-58.5"/>
<text text-anchor="middle" x="530.385" y="-66.5" font-family="Helvetica,sans-Serif" font-size="10.00">base/std_ext/misc.h</text>
</a>
</g>
<!-- Node33&#45;&gt;Node35 -->
<g id="edge118" class="edge"><title>Node33&#45;&gt;Node35</title>
<path fill="none" stroke="midnightblue" d="M848.667,-123.488C839.572,-120.801 829.649,-118.086 820.385,-116 723.013,-94.0793 694.729,-96.9331 593.021,-80.2339"/>
<polygon fill="midnightblue" stroke="midnightblue" points="593.383,-76.7461 582.944,-78.5553 592.233,-83.651 593.383,-76.7461"/>
</g>
<!-- Node37 -->
<g id="node102" class="node"><title>Node37</title>
<polygon fill="white" stroke="#bfbfbf" points="929.885,-58.5 929.885,-79.5 976.885,-79.5 976.885,-58.5 929.885,-58.5"/>
<text text-anchor="middle" x="953.385" y="-66.5" font-family="Helvetica,sans-Serif" font-size="10.00">TFile.h</text>
</g>
<!-- Node33&#45;&gt;Node37 -->
<g id="edge128" class="edge"><title>Node33&#45;&gt;Node37</title>
<path fill="none" stroke="midnightblue" d="M893.274,-123.267C904.388,-113.233 921.175,-98.078 934.187,-86.3311"/>
<polygon fill="midnightblue" stroke="midnightblue" points="936.639,-88.8327 941.716,-79.5337 931.948,-83.6368 936.639,-88.8327"/>
</g>
<!-- Node38 -->
<g id="node104" class="node"><title>Node38</title>
<polygon fill="white" stroke="#bfbfbf" points="993.885,-58.5 993.885,-79.5 1064.88,-79.5 1064.88,-58.5 993.885,-58.5"/>
<text text-anchor="middle" x="1029.38" y="-66.5" font-family="Helvetica,sans-Serif" font-size="10.00">TDirectory.h</text>
</g>
<!-- Node33&#45;&gt;Node38 -->
<g id="edge130" class="edge"><title>Node33&#45;&gt;Node38</title>
<path fill="none" stroke="midnightblue" d="M905.493,-123.412C930.112,-112.6 968.521,-95.7308 996.045,-83.6422"/>
<polygon fill="midnightblue" stroke="midnightblue" points="997.538,-86.8093 1005.29,-79.5835 994.723,-80.4002 997.538,-86.8093"/>
</g>
<!-- Node39 -->
<g id="node106" class="node"><title>Node39</title>
<polygon fill="white" stroke="#bfbfbf" points="600.385,-58.5 600.385,-79.5 652.385,-79.5 652.385,-58.5 600.385,-58.5"/>
<text text-anchor="middle" x="626.385" y="-66.5" font-family="Helvetica,sans-Serif" font-size="10.00">TError.h</text>
</g>
<!-- Node33&#45;&gt;Node39 -->
<g id="edge132" class="edge"><title>Node33&#45;&gt;Node39</title>
<path fill="none" stroke="midnightblue" d="M846.974,-123.426C838.324,-120.884 829.04,-118.254 820.385,-116 753.281,-98.5222 733.059,-98.8157 662.506,-80.1528"/>
<polygon fill="midnightblue" stroke="midnightblue" points="663.255,-76.7301 652.69,-77.5211 661.443,-83.4913 663.255,-76.7301"/>
</g>
<!-- Node40 -->
<g id="node108" class="node"><title>Node40</title>
<polygon fill="white" stroke="#bfbfbf" points="669.885,-58.5 669.885,-79.5 716.885,-79.5 716.885,-58.5 669.885,-58.5"/>
<text text-anchor="middle" x="693.385" y="-66.5" font-family="Helvetica,sans-Serif" font-size="10.00">TList.h</text>
</g>
<!-- Node33&#45;&gt;Node40 -->
<g id="edge134" class="edge"><title>Node33&#45;&gt;Node40</title>
<path fill="none" stroke="midnightblue" d="M850.761,-123.412C816.764,-111.658 762.065,-92.7457 726.932,-80.599"/>
<polygon fill="midnightblue" stroke="midnightblue" points="727.734,-77.1728 717.139,-77.213 725.446,-83.7886 727.734,-77.1728"/>
</g>
<!-- Node41 -->
<g id="node110" class="node"><title>Node41</title>
<polygon fill="white" stroke="#bfbfbf" points="734.385,-58.5 734.385,-79.5 808.385,-79.5 808.385,-58.5 734.385,-58.5"/>
<text text-anchor="middle" x="771.385" y="-66.5" font-family="Helvetica,sans-Serif" font-size="10.00">TCollection.h</text>
</g>
<!-- Node33&#45;&gt;Node41 -->
<g id="edge136" class="edge"><title>Node33&#45;&gt;Node41</title>
<path fill="none" stroke="midnightblue" d="M863.22,-123.267C845.44,-112.76 818.155,-96.6369 797.941,-84.6924"/>
<polygon fill="midnightblue" stroke="midnightblue" points="799.601,-81.6078 789.211,-79.5337 796.04,-87.6343 799.601,-81.6078"/>
</g>
<!-- Node42 -->
<g id="node112" class="node"><title>Node42</title>
<polygon fill="white" stroke="#bfbfbf" points="826.385,-58.5 826.385,-79.5 874.385,-79.5 874.385,-58.5 826.385,-58.5"/>
<text text-anchor="middle" x="850.385" y="-66.5" font-family="Helvetica,sans-Serif" font-size="10.00">TKey.h</text>
</g>
<!-- Node33&#45;&gt;Node42 -->
<g id="edge138" class="edge"><title>Node33&#45;&gt;Node42</title>
<path fill="none" stroke="midnightblue" d="M876.266,-123.267C871.796,-113.896 865.196,-100.057 859.78,-88.7004"/>
<polygon fill="midnightblue" stroke="midnightblue" points="862.872,-87.0531 855.408,-79.5337 856.554,-90.0664 862.872,-87.0531"/>
</g>
<!-- Node43 -->
<g id="node117" class="node"><title>Node43</title>
<polygon fill="white" stroke="#bfbfbf" points="1272.38,-58.5 1272.38,-79.5 1302.38,-79.5 1302.38,-58.5 1272.38,-58.5"/>
<text text-anchor="middle" x="1287.38" y="-66.5" font-family="Helvetica,sans-Serif" font-size="10.00">set</text>
</g>
<!-- Node33&#45;&gt;Node43 -->
<g id="edge146" class="edge"><title>Node33&#45;&gt;Node43</title>
<path fill="none" stroke="midnightblue" d="M913.095,-123.498C922.444,-120.714 932.752,-117.946 942.385,-116 1079.94,-88.2142 1123.12,-117.038 1262.41,-79.5381"/>
<polygon fill="midnightblue" stroke="midnightblue" points="1263.46,-82.8801 1272.16,-76.8467 1261.59,-76.1322 1263.46,-82.8801"/>
</g>
<!-- Node34&#45;&gt;Node10 -->
<g id="edge116" class="edge"><title>Node34&#45;&gt;Node10</title>
<path fill="none" stroke="midnightblue" d="M1190.62,-59.0859C1193.58,-58.6837 1196.52,-58.3174 1199.38,-58 1531.34,-21.284 1624.64,-85.8102 1956.37,-21.6665"/>
<polygon fill="midnightblue" stroke="midnightblue" points="1957.11,-25.0875 1966.25,-19.731 1955.77,-18.2179 1957.11,-25.0875"/>
</g>
<!-- Node34&#45;&gt;Node13 -->
<g id="edge110" class="edge"><title>Node34&#45;&gt;Node13</title>
<path fill="none" stroke="midnightblue" d="M1190.55,-59.4225C1259.95,-47.1503 1377.92,-26.29 1433.58,-16.4478"/>
<polygon fill="midnightblue" stroke="midnightblue" points="1434.29,-19.8752 1443.53,-14.6873 1433.08,-12.9822 1434.29,-19.8752"/>
</g>
<!-- Node34&#45;&gt;Node25 -->
<g id="edge114" class="edge"><title>Node34&#45;&gt;Node25</title>
<path fill="none" stroke="midnightblue" d="M1136.38,-58.3619C1136.38,-50.9219 1136.38,-40.7427 1136.38,-31.7276"/>
<polygon fill="midnightblue" stroke="midnightblue" points="1139.88,-31.5706 1136.38,-21.5707 1132.88,-31.5707 1139.88,-31.5706"/>
</g>
<!-- Node34&#45;&gt;Node32 -->
<g id="edge112" class="edge"><title>Node34&#45;&gt;Node32</title>
<path fill="none" stroke="midnightblue" d="M1190.65,-59.3437C1193.6,-58.875 1196.53,-58.4238 1199.38,-58 1329.6,-38.6724 1362.77,-38.4477 1493.38,-22 1509.46,-19.9759 1527.23,-17.6838 1542.36,-15.7178"/>
<polygon fill="midnightblue" stroke="midnightblue" points="1542.89,-19.1787 1552.35,-14.4162 1541.98,-12.2373 1542.89,-19.1787"/>
</g>
<!-- Node35&#45;&gt;Node6 -->
<g id="edge124" class="edge"><title>Node35&#45;&gt;Node6</title>
<path fill="none" stroke="midnightblue" d="M583.216,-58.9621C585.973,-58.5983 588.708,-58.2734 591.385,-58 1222.97,6.52284 1384.79,-40.705 2019.38,-22 2127.03,-18.8272 2254.63,-14.2983 2313.15,-12.1788"/>
<polygon fill="midnightblue" stroke="midnightblue" points="2313.38,-15.6727 2323.25,-11.812 2313.13,-8.67729 2313.38,-15.6727"/>
</g>
<!-- Node35&#45;&gt;Node24 -->
<g id="edge122" class="edge"><title>Node35&#45;&gt;Node24</title>
<path fill="none" stroke="midnightblue" d="M509.016,-58.4966C490.586,-49.4378 463.747,-36.2462 443.029,-26.0628"/>
<polygon fill="midnightblue" stroke="midnightblue" points="444.512,-22.8914 433.993,-21.6212 441.424,-29.1735 444.512,-22.8914"/>
</g>
<!-- Node35&#45;&gt;Node25 -->
<g id="edge120" class="edge"><title>Node35&#45;&gt;Node25</title>
<path fill="none" stroke="midnightblue" d="M582.909,-59.2106C585.772,-58.7762 588.611,-58.3689 591.385,-58 780.678,-32.8251 1008.84,-18.2016 1098.03,-13.0855"/>
<polygon fill="midnightblue" stroke="midnightblue" points="1098.42,-16.5691 1108.21,-12.5087 1098.02,-9.58035 1098.42,-16.5691"/>
</g>
<!-- Node36 -->
<g id="node100" class="node"><title>Node36</title>
<polygon fill="white" stroke="#bfbfbf" points="503.885,-0.5 503.885,-21.5 556.885,-21.5 556.885,-0.5 503.885,-0.5"/>
<text text-anchor="middle" x="530.385" y="-8.5" font-family="Helvetica,sans-Serif" font-size="10.00">cxxabi.h</text>
</g>
<!-- Node35&#45;&gt;Node36 -->
<g id="edge126" class="edge"><title>Node35&#45;&gt;Node36</title>
<path fill="none" stroke="midnightblue" d="M530.385,-58.3619C530.385,-50.9219 530.385,-40.7427 530.385,-31.7276"/>
<polygon fill="midnightblue" stroke="midnightblue" points="533.885,-31.5706 530.385,-21.5707 526.885,-31.5707 533.885,-31.5706"/>
</g>
<!-- Node44&#45;&gt;Node11 -->
<g id="edge168" class="edge"><title>Node44&#45;&gt;Node11</title>
<path fill="none" stroke="midnightblue" d="M1227.14,-204.482C1322.92,-199.551 1624.36,-182.518 1872.38,-152 1897.68,-148.888 1926.1,-144.099 1947.43,-140.243"/>
<polygon fill="midnightblue" stroke="midnightblue" points="1948.09,-143.681 1957.29,-138.436 1946.83,-136.796 1948.09,-143.681"/>
</g>
<!-- Node44&#45;&gt;Node12 -->
<g id="edge170" class="edge"><title>Node44&#45;&gt;Node12</title>
<path fill="none" stroke="midnightblue" d="M1226.92,-196.506C1269.12,-183.212 1341.25,-159.802 1351.38,-152 1373.22,-135.188 1389.48,-107.374 1398.7,-88.6282"/>
<polygon fill="midnightblue" stroke="midnightblue" points="1401.9,-90.0554 1402.99,-79.5162 1395.57,-87.0784 1401.9,-90.0554"/>
</g>
<!-- Node44&#45;&gt;Node14 -->
<g id="edge164" class="edge"><title>Node44&#45;&gt;Node14</title>
<path fill="none" stroke="midnightblue" d="M1226.92,-203.734C1316.36,-196.892 1576.59,-175.464 1658.38,-152 1694.31,-141.694 1700.28,-131.29 1734.38,-116 1759.67,-104.665 1788.49,-92.482 1810.43,-83.3608"/>
<polygon fill="midnightblue" stroke="midnightblue" points="1811.78,-86.5878 1819.68,-79.5252 1809.1,-80.1213 1811.78,-86.5878"/>
</g>
<!-- Node44&#45;&gt;Node22 -->
<g id="edge172" class="edge"><title>Node44&#45;&gt;Node22</title>
<path fill="none" stroke="midnightblue" d="M1169.61,-195.408C1146.76,-185.755 1113.54,-170.247 1087.38,-152 1068.3,-138.688 1070.72,-125.277 1049.38,-116 930.96,-64.5031 598.041,-91.1337 469.385,-80 444.09,-77.8111 415.248,-74.515 395.246,-72.1016"/>
<polygon fill="midnightblue" stroke="midnightblue" points="395.473,-68.6034 385.122,-70.8643 394.624,-75.5517 395.473,-68.6034"/>
</g>
<!-- Node45 -->
<g id="node123" class="node"><title>Node45</title>
<polygon fill="white" stroke="#bfbfbf" points="984.385,-123.5 984.385,-144.5 1040.38,-144.5 1040.38,-123.5 984.385,-123.5"/>
<text text-anchor="middle" x="1012.38" y="-131.5" font-family="Helvetica,sans-Serif" font-size="10.00">Rtypes.h</text>
</g>
<!-- Node44&#45;&gt;Node45 -->
<g id="edge154" class="edge"><title>Node44&#45;&gt;Node45</title>
<path fill="none" stroke="midnightblue" d="M1167.69,-195.486C1138.91,-184.848 1093.39,-167.766 1054.38,-152 1051.7,-150.913 1048.92,-149.769 1046.13,-148.607"/>
<polygon fill="midnightblue" stroke="midnightblue" points="1047.32,-145.309 1036.74,-144.642 1044.59,-151.757 1047.32,-145.309"/>
</g>
<!-- Node46 -->
<g id="node125" class="node"><title>Node46</title>
<a xlink:href="base_2std__ext_2_time_8h.html" target="_top" xlink:title="base/std_ext/time.h">
<polygon fill="white" stroke="black" points="1219.88,-123.5 1219.88,-144.5 1322.88,-144.5 1322.88,-123.5 1219.88,-123.5"/>
<text text-anchor="middle" x="1271.38" y="-131.5" font-family="Helvetica,sans-Serif" font-size="10.00">base/std_ext/time.h</text>
</a>
</g>
<!-- Node44&#45;&gt;Node46 -->
<g id="edge156" class="edge"><title>Node44&#45;&gt;Node46</title>
<path fill="none" stroke="midnightblue" d="M1207.45,-195.376C1219.42,-183.89 1238.68,-165.393 1252.94,-151.703"/>
<polygon fill="midnightblue" stroke="midnightblue" points="1255.48,-154.118 1260.27,-144.667 1250.63,-149.068 1255.48,-154.118"/>
</g>
<!-- Node48 -->
<g id="node130" class="node"><title>Node48</title>
<polygon fill="white" stroke="#bfbfbf" points="1319.88,-58.5 1319.88,-79.5 1360.88,-79.5 1360.88,-58.5 1319.88,-58.5"/>
<text text-anchor="middle" x="1340.38" y="-66.5" font-family="Helvetica,sans-Serif" font-size="10.00">ctime</text>
</g>
<!-- Node44&#45;&gt;Node48 -->
<g id="edge176" class="edge"><title>Node44&#45;&gt;Node48</title>
<path fill="none" stroke="midnightblue" d="M1227.15,-197.69C1262.81,-187.404 1318.38,-169.142 1331.38,-152 1344.81,-134.311 1345.39,-108.068 1343.69,-89.8448"/>
<polygon fill="midnightblue" stroke="midnightblue" points="1347.13,-89.1771 1342.43,-79.6826 1340.19,-90.0368 1347.13,-89.1771"/>
</g>
<!-- Node49 -->
<g id="node133" class="node"><title>Node49</title>
<polygon fill="white" stroke="#bfbfbf" points="1096.38,-123.5 1096.38,-144.5 1134.38,-144.5 1134.38,-123.5 1096.38,-123.5"/>
<text text-anchor="middle" x="1115.38" y="-131.5" font-family="Helvetica,sans-Serif" font-size="10.00">tuple</text>
</g>
<!-- Node44&#45;&gt;Node49 -->
<g id="edge166" class="edge"><title>Node44&#45;&gt;Node49</title>
<path fill="none" stroke="midnightblue" d="M1184.43,-195.376C1171.39,-183.784 1150.32,-165.05 1134.87,-151.324"/>
<polygon fill="midnightblue" stroke="midnightblue" points="1137.18,-148.695 1127.39,-144.667 1132.53,-153.927 1137.18,-148.695"/>
</g>
<!-- Node50 -->
<g id="node138" class="node"><title>Node50</title>
<polygon fill="white" stroke="#bfbfbf" points="1152.38,-123.5 1152.38,-144.5 1202.38,-144.5 1202.38,-123.5 1152.38,-123.5"/>
<text text-anchor="middle" x="1177.38" y="-131.5" font-family="Helvetica,sans-Serif" font-size="10.00">iomanip</text>
</g>
<!-- Node44&#45;&gt;Node50 -->
<g id="edge174" class="edge"><title>Node44&#45;&gt;Node50</title>
<path fill="none" stroke="midnightblue" d="M1193.58,-195.376C1190.75,-184.635 1186.29,-167.761 1182.77,-154.422"/>
<polygon fill="midnightblue" stroke="midnightblue" points="1186.14,-153.443 1180.2,-144.667 1179.37,-155.23 1186.14,-153.443"/>
</g>
<!-- Node46&#45;&gt;Node34 -->
<g id="edge158" class="edge"><title>Node46&#45;&gt;Node34</title>
<path fill="none" stroke="midnightblue" d="M1249.39,-123.412C1227.13,-112.694 1192.51,-96.025 1167.46,-83.9601"/>
<polygon fill="midnightblue" stroke="midnightblue" points="1168.89,-80.7682 1158.37,-79.5835 1165.86,-87.0752 1168.89,-80.7682"/>
</g>
<!-- Node47 -->
<g id="node128" class="node"><title>Node47</title>
<polygon fill="white" stroke="#bfbfbf" points="1208.38,-58.5 1208.38,-79.5 1254.38,-79.5 1254.38,-58.5 1208.38,-58.5"/>
<text text-anchor="middle" x="1231.38" y="-66.5" font-family="Helvetica,sans-Serif" font-size="10.00">cstring</text>
</g>
<!-- Node46&#45;&gt;Node47 -->
<g id="edge160" class="edge"><title>Node46&#45;&gt;Node47</title>
<path fill="none" stroke="midnightblue" d="M1264.78,-123.267C1258.95,-113.801 1250.32,-99.7773 1243.3,-88.3571"/>
<polygon fill="midnightblue" stroke="midnightblue" points="1246.09,-86.2159 1237.87,-79.5337 1240.13,-89.8847 1246.09,-86.2159"/>
</g>
<!-- Node46&#45;&gt;Node48 -->
<g id="edge162" class="edge"><title>Node46&#45;&gt;Node48</title>
<path fill="none" stroke="midnightblue" d="M1282.78,-123.267C1293.33,-113.328 1309.21,-98.3635 1321.63,-86.6645"/>
<polygon fill="midnightblue" stroke="midnightblue" points="1324.32,-88.9383 1329.2,-79.5337 1319.52,-83.843 1324.32,-88.9383"/>
</g>
<!-- Node51&#45;&gt;Node13 -->
<g id="edge188" class="edge"><title>Node51&#45;&gt;Node13</title>
<path fill="none" stroke="midnightblue" d="M1227.42,-273.632C1297,-264.497 1422.18,-236.568 1478.38,-152 1502.99,-114.98 1485.88,-59.9728 1473.69,-30.8142"/>
<polygon fill="midnightblue" stroke="midnightblue" points="1476.89,-29.3946 1469.66,-21.6503 1470.48,-32.2132 1476.89,-29.3946"/>
</g>
<!-- Node51&#45;&gt;Node17 -->
<g id="edge190" class="edge"><title>Node51&#45;&gt;Node17</title>
<path fill="none" stroke="midnightblue" d="M1145.52,-267.45C1056.71,-239.277 804.183,-161.343 589.385,-116 482.99,-93.5406 454.925,-96.1012 347.385,-80 335.326,-78.1946 322.149,-76.2119 310.349,-74.4331"/>
<polygon fill="midnightblue" stroke="midnightblue" points="310.808,-70.9628 300.398,-72.9319 309.764,-77.8845 310.808,-70.9628"/>
</g>
<!-- Node51&#45;&gt;Node26 -->
<g id="edge192" class="edge"><title>Node51&#45;&gt;Node26</title>
<path fill="none" stroke="midnightblue" d="M1129.17,-274.098C984.804,-262.644 568.781,-229.574 507.385,-224 454.122,-219.164 391.981,-212.69 357.002,-208.97"/>
<polygon fill="midnightblue" stroke="midnightblue" points="357.373,-205.49 347.058,-207.908 356.63,-212.45 357.373,-205.49"/>
</g>
<!-- Node51&#45;&gt;Node32 -->
<g id="edge196" class="edge"><title>Node51&#45;&gt;Node32</title>
<path fill="none" stroke="midnightblue" d="M1227.51,-268.879C1334.57,-248.403 1585.19,-197.044 1658.38,-152 1702.97,-124.559 1760.42,-100.165 1729.38,-58 1715.68,-39.388 1654.7,-24.9299 1614.55,-17.211"/>
<polygon fill="midnightblue" stroke="midnightblue" points="1615.06,-13.7449 1604.58,-15.3502 1613.77,-20.6261 1615.06,-13.7449"/>
</g>
<!-- Node51&#45;&gt;Node43 -->
<g id="edge194" class="edge"><title>Node51&#45;&gt;Node43</title>
<path fill="none" stroke="midnightblue" d="M1201.18,-267.44C1236.78,-249.518 1304.29,-209.415 1331.38,-152 1338.21,-137.53 1337.26,-130.881 1331.38,-116 1326.86,-104.539 1318.07,-94.2323 1309.53,-86.2117"/>
<polygon fill="midnightblue" stroke="midnightblue" points="1311.72,-83.474 1301.89,-79.5208 1307.1,-88.7411 1311.72,-83.474"/>
</g>
<!-- Node52&#45;&gt;Node10 -->
<g id="edge220" class="edge"><title>Node52&#45;&gt;Node10</title>
<path fill="none" stroke="midnightblue" d="M1804.98,-195.323C1822.73,-184.903 1850,-168.281 1872.38,-152 1892.54,-137.339 1895.56,-131.109 1915.38,-116 1937.74,-98.96 1950.82,-102.707 1967.38,-80 1977.74,-65.8133 1983.05,-46.4612 1985.74,-31.8616"/>
<polygon fill="midnightblue" stroke="midnightblue" points="1989.22,-32.21 1987.32,-21.7877 1982.31,-31.1228 1989.22,-32.21"/>
</g>
<!-- Node52&#45;&gt;Node29 -->
<g id="edge202" class="edge"><title>Node52&#45;&gt;Node29</title>
<path fill="none" stroke="midnightblue" d="M1760.27,-195.376C1729.72,-182.951 1679,-162.319 1644.9,-148.446"/>
<polygon fill="midnightblue" stroke="midnightblue" points="1645.9,-145.076 1635.32,-144.55 1643.26,-151.56 1645.9,-145.076"/>
</g>
<!-- Node53 -->
<g id="node156" class="node"><title>Node53</title>
<a xlink:href="printable_8h.html" target="_top" xlink:title="base/std_ext/printable.h">
<polygon fill="white" stroke="black" points="1742.88,-123.5 1742.88,-144.5 1863.88,-144.5 1863.88,-123.5 1742.88,-123.5"/>
<text text-anchor="middle" x="1803.38" y="-131.5" font-family="Helvetica,sans-Serif" font-size="10.00">base/std_ext/printable.h</text>
</a>
</g>
<!-- Node52&#45;&gt;Node53 -->
<g id="edge204" class="edge"><title>Node52&#45;&gt;Node53</title>
<path fill="none" stroke="midnightblue" d="M1788.89,-195.376C1791.43,-184.635 1795.41,-167.761 1798.56,-154.422"/>
<polygon fill="midnightblue" stroke="midnightblue" points="1801.97,-155.204 1800.87,-144.667 1795.16,-153.596 1801.97,-155.204"/>
</g>
<!-- Node53&#45;&gt;Node7 -->
<g id="edge218" class="edge"><title>Node53&#45;&gt;Node7</title>
<path fill="none" stroke="midnightblue" d="M1864.07,-125.285C1922.43,-116.39 2013.24,-101.204 2100.33,-80.0496"/>
<polygon fill="midnightblue" stroke="midnightblue" points="2101.24,-83.432 2110.11,-77.6454 2099.56,-76.6345 2101.24,-83.432"/>
</g>
<!-- Node53&#45;&gt;Node14 -->
<g id="edge216" class="edge"><title>Node53&#45;&gt;Node14</title>
<path fill="none" stroke="midnightblue" d="M1810.32,-123.267C1816.5,-113.707 1825.68,-99.4964 1833.1,-88.0152"/>
<polygon fill="midnightblue" stroke="midnightblue" points="1836.09,-89.8324 1838.58,-79.5337 1830.21,-86.0334 1836.09,-89.8324"/>
</g>
<!-- Node54 -->
<g id="node158" class="node"><title>Node54</title>
<a xlink:href="container_8h.html" target="_top" xlink:title="container.h">
<polygon fill="white" stroke="black" points="1893.88,-58.5 1893.88,-79.5 1958.88,-79.5 1958.88,-58.5 1893.88,-58.5"/>
<text text-anchor="middle" x="1926.38" y="-66.5" font-family="Helvetica,sans-Serif" font-size="10.00">container.h</text>
</a>
</g>
<!-- Node53&#45;&gt;Node54 -->
<g id="edge206" class="edge"><title>Node53&#45;&gt;Node54</title>
<path fill="none" stroke="midnightblue" d="M1823.42,-123.412C1843.52,-112.788 1874.69,-96.3182 1897.47,-84.28"/>
<polygon fill="midnightblue" stroke="midnightblue" points="1899.15,-87.3503 1906.36,-79.5835 1895.88,-81.1613 1899.15,-87.3503"/>
</g>
<!-- Node54&#45;&gt;Node10 -->
<g id="edge208" class="edge"><title>Node54&#45;&gt;Node10</title>
<path fill="none" stroke="midnightblue" d="M1937.76,-58.3619C1946.67,-50.0226 1959.26,-38.2418 1969.66,-28.5162"/>
<polygon fill="midnightblue" stroke="midnightblue" points="1972.17,-30.9582 1977.08,-21.5707 1967.39,-25.8463 1972.17,-30.9582"/>
</g>
<!-- Node54&#45;&gt;Node13 -->
<g id="edge214" class="edge"><title>Node54&#45;&gt;Node13</title>
<path fill="none" stroke="midnightblue" d="M1893.82,-59.7669C1890.98,-59.1127 1888.14,-58.511 1885.38,-58 1735.11,-30.1113 1695.1,-40.5417 1543.38,-22 1527.46,-20.0534 1509.76,-17.6153 1495.16,-15.5295"/>
<polygon fill="midnightblue" stroke="midnightblue" points="1495.55,-12.0488 1485.15,-14.085 1494.55,-18.9771 1495.55,-12.0488"/>
</g>
<!-- Node54&#45;&gt;Node25 -->
<g id="edge210" class="edge"><title>Node54&#45;&gt;Node25</title>
<path fill="none" stroke="midnightblue" d="M1893.84,-59.6402C1890.99,-59.0135 1888.15,-58.4528 1885.38,-58 1746.27,-35.2082 1307.19,-17.3661 1174.64,-12.3905"/>
<polygon fill="midnightblue" stroke="midnightblue" points="1174.68,-8.88967 1164.56,-12.0147 1174.42,-15.8848 1174.68,-8.88967"/>
</g>
<!-- Node55 -->
<g id="node162" class="node"><title>Node55</title>
<polygon fill="white" stroke="#bfbfbf" points="1897.88,-0.5 1897.88,-21.5 1948.88,-21.5 1948.88,-0.5 1897.88,-0.5"/>
<text text-anchor="middle" x="1923.38" y="-8.5" font-family="Helvetica,sans-Serif" font-size="10.00">numeric</text>
</g>
<!-- Node54&#45;&gt;Node55 -->
<g id="edge212" class="edge"><title>Node54&#45;&gt;Node55</title>
<path fill="none" stroke="midnightblue" d="M1925.83,-58.3619C1925.45,-50.9219 1924.92,-40.7427 1924.46,-31.7276"/>
<polygon fill="midnightblue" stroke="midnightblue" points="1927.94,-31.3765 1923.93,-21.5707 1920.95,-31.7381 1927.94,-31.3765"/>
</g>
</g>
</svg>
