<?xml version="1.0" encoding="UTF-8" standalone="no"?>
<!DOCTYPE svg PUBLIC "-//W3C//DTD SVG 1.1//EN"
 "http://www.w3.org/Graphics/SVG/1.1/DTD/svg11.dtd">
<!-- Generated by graphviz version 2.26.3 (20100126.1600)
 -->
<!-- Title: src/base/ParticleTypeTree.cc Pages: 1 -->
<svg width="1085pt" height="262pt"
 viewBox="0.00 0.00 1085.00 262.00" xmlns="http://www.w3.org/2000/svg" xmlns:xlink="http://www.w3.org/1999/xlink">
<g id="graph1" class="graph" transform="scale(1 1) rotate(0) translate(4 258)">
<title>src/base/ParticleTypeTree.cc</title>
<polygon fill="white" stroke="white" points="-4,5 -4,-258 1082,-258 1082,5 -4,5"/>
<!-- Node0 -->
<g id="node1" class="node"><title>Node0</title>
<polygon fill="#bfbfbf" stroke="black" points="12.5,-232.5 12.5,-253.5 157.5,-253.5 157.5,-232.5 12.5,-232.5"/>
<text text-anchor="middle" x="85" y="-240.5" font-family="Helvetica,sans-Serif" font-size="10.00">src/base/ParticleTypeTree.cc</text>
</g>
<!-- Node1 -->
<g id="node3" class="node"><title>Node1</title>
<a xlink:href="_particle_type_tree_8h.html" target="_top" xlink:title="ParticleTypeTree.h">
<polygon fill="white" stroke="black" points="91.5,-174.5 91.5,-195.5 190.5,-195.5 190.5,-174.5 91.5,-174.5"/>
<text text-anchor="middle" x="141" y="-182.5" font-family="Helvetica,sans-Serif" font-size="10.00">ParticleTypeTree.h</text>
</a>
</g>
<!-- Node0&#45;&gt;Node1 -->
<g id="edge2" class="edge"><title>Node0&#45;&gt;Node1</title>
<path fill="none" stroke="midnightblue" d="M95.2713,-232.362C103.244,-224.104 114.475,-212.472 123.811,-202.803"/>
<polygon fill="midnightblue" stroke="midnightblue" points="126.366,-205.196 130.794,-195.571 121.33,-200.334 126.366,-205.196"/>
</g>
<!-- Node6 -->
<g id="node14" class="node"><title>Node6</title>
<polygon fill="white" stroke="#bfbfbf" points="-0.5,-0.5 -0.5,-21.5 58.5,-21.5 58.5,-0.5 -0.5,-0.5"/>
<text text-anchor="middle" x="29" y="-8.5" font-family="Helvetica,sans-Serif" font-size="10.00">stdexcept</text>
</g>
<!-- Node0&#45;&gt;Node6 -->
<g id="edge60" class="edge"><title>Node0&#45;&gt;Node6</title>
<path fill="none" stroke="midnightblue" d="M82.4483,-232.429C73.7934,-196.573 45.4546,-79.1689 33.9352,-31.4458"/>
<polygon fill="midnightblue" stroke="midnightblue" points="37.3155,-30.5331 31.5667,-21.6335 30.5109,-32.1756 37.3155,-30.5331"/>
</g>
<!-- Node2 -->
<g id="node5" class="node"><title>Node2</title>
<a xlink:href="_particle_type_8h.html" target="_top" xlink:title="ParticleType.h">
<polygon fill="white" stroke="black" points="188,-116.5 188,-137.5 268,-137.5 268,-116.5 188,-116.5"/>
<text text-anchor="middle" x="228" y="-124.5" font-family="Helvetica,sans-Serif" font-size="10.00">ParticleType.h</text>
</a>
</g>
<!-- Node1&#45;&gt;Node2 -->
<g id="edge4" class="edge"><title>Node1&#45;&gt;Node2</title>
<path fill="none" stroke="midnightblue" d="M156.957,-174.362C169.957,-165.696 188.531,-153.313 203.427,-143.382"/>
<polygon fill="midnightblue" stroke="midnightblue" points="205.765,-146.03 212.144,-137.571 201.882,-140.206 205.765,-146.03"/>
</g>
<!-- Node13 -->
<g id="node28" class="node"><title>Node13</title>
<polygon fill="white" stroke="#bfbfbf" points="58.5,-58.5 58.5,-79.5 93.5,-79.5 93.5,-58.5 58.5,-58.5"/>
<text text-anchor="middle" x="76" y="-66.5" font-family="Helvetica,sans-Serif" font-size="10.00">map</text>
</g>
<!-- Node1&#45;&gt;Node13 -->
<g id="edge58" class="edge"><title>Node1&#45;&gt;Node13</title>
<path fill="none" stroke="midnightblue" d="M135.001,-174.295C124.07,-154.786 100.761,-113.188 86.9367,-88.5177"/>
<polygon fill="midnightblue" stroke="midnightblue" points="89.9257,-86.6921 81.984,-79.6792 83.8191,-90.1139 89.9257,-86.6921"/>
</g>
<!-- Node16 -->
<g id="node34" class="node"><title>Node16</title>
<a xlink:href="_tree_8h.html" target="_top" xlink:title="Tree.h">
<polygon fill="white" stroke="black" points="723,-116.5 723,-137.5 767,-137.5 767,-116.5 723,-116.5"/>
<text text-anchor="middle" x="745" y="-124.5" font-family="Helvetica,sans-Serif" font-size="10.00">Tree.h</text>
</a>
</g>
<!-- Node1&#45;&gt;Node16 -->
<g id="edge34" class="edge"><title>Node1&#45;&gt;Node16</title>
<path fill="none" stroke="midnightblue" d="M190.685,-180.229C310.62,-168.712 613.402,-139.637 712.822,-130.09"/>
<polygon fill="midnightblue" stroke="midnightblue" points="713.242,-133.566 722.861,-129.126 712.573,-126.598 713.242,-133.566"/>
</g>
<!-- Node3 -->
<g id="node7" class="node"><title>Node3</title>
<a xlink:href="types_8h.html" target="_top" xlink:title="base/types.h">
<polygon fill="white" stroke="black" points="75.5,-0.5 75.5,-21.5 148.5,-21.5 148.5,-0.5 75.5,-0.5"/>
<text text-anchor="middle" x="112" y="-8.5" font-family="Helvetica,sans-Serif" font-size="10.00">base/types.h</text>
</a>
</g>
<!-- Node2&#45;&gt;Node3 -->
<g id="edge6" class="edge"><title>Node2&#45;&gt;Node3</title>
<path fill="none" stroke="midnightblue" d="M196.404,-116.388C177.867,-108.776 155.179,-96.8641 140,-80 127.612,-66.237 120.321,-46.2745 116.301,-31.3585"/>
<polygon fill="midnightblue" stroke="midnightblue" points="119.681,-30.4455 113.927,-21.5499 112.878,-32.0928 119.681,-30.4455"/>
</g>
<!-- Node4 -->
<g id="node9" class="node"><title>Node4</title>
<a xlink:href="interval_8h.html" target="_top" xlink:title="base/interval.h">
<polygon fill="white" stroke="black" points="149,-58.5 149,-79.5 229,-79.5 229,-58.5 149,-58.5"/>
<text text-anchor="middle" x="189" y="-66.5" font-family="Helvetica,sans-Serif" font-size="10.00">base/interval.h</text>
</a>
</g>
<!-- Node2&#45;&gt;Node4 -->
<g id="edge8" class="edge"><title>Node2&#45;&gt;Node4</title>
<path fill="none" stroke="midnightblue" d="M220.847,-116.362C215.514,-108.431 208.089,-97.3885 201.749,-87.9606"/>
<polygon fill="midnightblue" stroke="midnightblue" points="204.592,-85.9161 196.108,-79.5707 198.783,-89.8221 204.592,-85.9161"/>
</g>
<!-- Node11 -->
<g id="node24" class="node"><title>Node11</title>
<polygon fill="white" stroke="#bfbfbf" points="246.5,-58.5 246.5,-79.5 287.5,-79.5 287.5,-58.5 246.5,-58.5"/>
<text text-anchor="middle" x="267" y="-66.5" font-family="Helvetica,sans-Serif" font-size="10.00">string</text>
</g>
<!-- Node2&#45;&gt;Node11 -->
<g id="edge24" class="edge"><title>Node2&#45;&gt;Node11</title>
<path fill="none" stroke="midnightblue" d="M235.153,-116.362C240.486,-108.431 247.911,-97.3885 254.251,-87.9606"/>
<polygon fill="midnightblue" stroke="midnightblue" points="257.217,-89.8221 259.892,-79.5707 251.408,-85.9161 257.217,-89.8221"/>
</g>
<!-- Node12 -->
<g id="node26" class="node"><title>Node12</title>
<polygon fill="white" stroke="#bfbfbf" points="305,-58.5 305,-79.5 357,-79.5 357,-58.5 305,-58.5"/>
<text text-anchor="middle" x="331" y="-66.5" font-family="Helvetica,sans-Serif" font-size="10.00">ostream</text>
</g>
<!-- Node2&#45;&gt;Node12 -->
<g id="edge26" class="edge"><title>Node2&#45;&gt;Node12</title>
<path fill="none" stroke="midnightblue" d="M246.892,-116.362C262.718,-107.45 285.523,-94.6087 303.395,-84.5447"/>
<polygon fill="midnightblue" stroke="midnightblue" points="305.232,-87.5271 312.228,-79.5707 301.797,-81.4276 305.232,-87.5271"/>
</g>
<!-- Node2&#45;&gt;Node13 -->
<g id="edge28" class="edge"><title>Node2&#45;&gt;Node13</title>
<path fill="none" stroke="midnightblue" d="M200.474,-116.497C172.892,-105.972 130.69,-89.8685 103.217,-79.3856"/>
<polygon fill="midnightblue" stroke="midnightblue" points="104.407,-76.0936 93.8167,-75.7985 101.912,-82.6336 104.407,-76.0936"/>
</g>
<!-- Node14 -->
<g id="node30" class="node"><title>Node14</title>
<polygon fill="white" stroke="#bfbfbf" points="374.5,-58.5 374.5,-79.5 421.5,-79.5 421.5,-58.5 374.5,-58.5"/>
<text text-anchor="middle" x="398" y="-66.5" font-family="Helvetica,sans-Serif" font-size="10.00">iterator</text>
</g>
<!-- Node2&#45;&gt;Node14 -->
<g id="edge30" class="edge"><title>Node2&#45;&gt;Node14</title>
<path fill="none" stroke="midnightblue" d="M258.975,-116.478C284.928,-107.657 323.204,-94.632 364.529,-80.4984"/>
<polygon fill="midnightblue" stroke="midnightblue" points="365.908,-83.7257 374.237,-77.1769 363.642,-77.1026 365.908,-83.7257"/>
</g>
<!-- Node15 -->
<g id="node32" class="node"><title>Node15</title>
<polygon fill="white" stroke="#bfbfbf" points="439,-58.5 439,-79.5 483,-79.5 483,-58.5 439,-58.5"/>
<text text-anchor="middle" x="461" y="-66.5" font-family="Helvetica,sans-Serif" font-size="10.00">vector</text>
</g>
<!-- Node2&#45;&gt;Node15 -->
<g id="edge32" class="edge"><title>Node2&#45;&gt;Node15</title>
<path fill="none" stroke="midnightblue" d="M268.205,-119.036C307.137,-111.017 367.967,-97.6789 428.96,-80.0923"/>
<polygon fill="midnightblue" stroke="midnightblue" points="430.129,-83.397 438.747,-77.2334 428.167,-76.6777 430.129,-83.397"/>
</g>
<!-- Node4&#45;&gt;Node3 -->
<g id="edge10" class="edge"><title>Node4&#45;&gt;Node3</title>
<path fill="none" stroke="midnightblue" d="M174.877,-58.3619C163.48,-49.7773 147.242,-37.5459 134.122,-27.6636"/>
<polygon fill="midnightblue" stroke="midnightblue" points="136.127,-24.7916 126.033,-21.5707 131.915,-30.3829 136.127,-24.7916"/>
</g>
<!-- Node5 -->
<g id="node12" class="node"><title>Node5</title>
<polygon fill="white" stroke="#bfbfbf" points="453,-0.5 453,-21.5 509,-21.5 509,-0.5 453,-0.5"/>
<text text-anchor="middle" x="481" y="-8.5" font-family="Helvetica,sans-Serif" font-size="10.00">algorithm</text>
</g>
<!-- Node4&#45;&gt;Node5 -->
<g id="edge12" class="edge"><title>Node4&#45;&gt;Node5</title>
<path fill="none" stroke="midnightblue" d="M229.09,-59.8981C232.103,-59.2454 235.098,-58.6062 238,-58 310.298,-42.8966 395.06,-26.8863 442.954,-17.9959"/>
<polygon fill="midnightblue" stroke="midnightblue" points="443.687,-21.4199 452.882,-16.1571 442.412,-14.5369 443.687,-21.4199"/>
</g>
<!-- Node4&#45;&gt;Node6 -->
<g id="edge14" class="edge"><title>Node4&#45;&gt;Node6</title>
<path fill="none" stroke="midnightblue" d="M160.025,-58.4966C134.167,-49.1229 96.1013,-35.3242 67.6543,-25.0122"/>
<polygon fill="midnightblue" stroke="midnightblue" points="68.6233,-21.6406 58.0291,-21.5231 66.2377,-28.2216 68.6233,-21.6406"/>
</g>
<!-- Node7 -->
<g id="node16" class="node"><title>Node7</title>
<polygon fill="white" stroke="#bfbfbf" points="364,-0.5 364,-21.5 404,-21.5 404,-0.5 364,-0.5"/>
<text text-anchor="middle" x="384" y="-8.5" font-family="Helvetica,sans-Serif" font-size="10.00">limits</text>
</g>
<!-- Node4&#45;&gt;Node7 -->
<g id="edge16" class="edge"><title>Node4&#45;&gt;Node7</title>
<path fill="none" stroke="midnightblue" d="M229.21,-58.6617C260.9,-50.2801 306.361,-37.7431 354.202,-22.0902"/>
<polygon fill="midnightblue" stroke="midnightblue" points="355.402,-25.3798 363.798,-18.9184 353.205,-18.7334 355.402,-25.3798"/>
</g>
<!-- Node8 -->
<g id="node18" class="node"><title>Node8</title>
<polygon fill="white" stroke="#bfbfbf" points="165.5,-0.5 165.5,-21.5 214.5,-21.5 214.5,-0.5 165.5,-0.5"/>
<text text-anchor="middle" x="190" y="-8.5" font-family="Helvetica,sans-Serif" font-size="10.00">istream</text>
</g>
<!-- Node4&#45;&gt;Node8 -->
<g id="edge18" class="edge"><title>Node4&#45;&gt;Node8</title>
<path fill="none" stroke="midnightblue" d="M189.183,-58.3619C189.312,-50.9219 189.487,-40.7427 189.643,-31.7276"/>
<polygon fill="midnightblue" stroke="midnightblue" points="193.145,-31.6295 189.818,-21.5707 186.146,-31.5088 193.145,-31.6295"/>
</g>
<!-- Node9 -->
<g id="node20" class="node"><title>Node9</title>
<polygon fill="white" stroke="#bfbfbf" points="232,-0.5 232,-21.5 284,-21.5 284,-0.5 232,-0.5"/>
<text text-anchor="middle" x="258" y="-8.5" font-family="Helvetica,sans-Serif" font-size="10.00">sstream</text>
</g>
<!-- Node4&#45;&gt;Node9 -->
<g id="edge20" class="edge"><title>Node4&#45;&gt;Node9</title>
<path fill="none" stroke="midnightblue" d="M201.656,-58.3619C211.674,-49.9408 225.867,-38.0105 237.501,-28.2308"/>
<polygon fill="midnightblue" stroke="midnightblue" points="240.022,-30.6844 245.425,-21.5707 235.518,-25.326 240.022,-30.6844"/>
</g>
<!-- Node10 -->
<g id="node22" class="node"><title>Node10</title>
<polygon fill="white" stroke="#bfbfbf" points="302,-0.5 302,-21.5 346,-21.5 346,-0.5 302,-0.5"/>
<text text-anchor="middle" x="324" y="-8.5" font-family="Helvetica,sans-Serif" font-size="10.00">cmath</text>
</g>
<!-- Node4&#45;&gt;Node10 -->
<g id="edge22" class="edge"><title>Node4&#45;&gt;Node10</title>
<path fill="none" stroke="midnightblue" d="M213.447,-58.4966C235.619,-48.9711 268.427,-34.8759 292.546,-24.5137"/>
<polygon fill="midnightblue" stroke="midnightblue" points="294.163,-27.6282 301.969,-20.465 291.4,-21.1967 294.163,-27.6282"/>
</g>
<!-- Node16&#45;&gt;Node5 -->
<g id="edge50" class="edge"><title>Node16&#45;&gt;Node5</title>
<path fill="none" stroke="midnightblue" d="M722.85,-124.214C674.603,-117.823 561.79,-101.022 530,-80 511.804,-67.9674 498.232,-46.6817 490.041,-30.9239"/>
<polygon fill="midnightblue" stroke="midnightblue" points="492.979,-28.9649 485.441,-21.5199 486.691,-32.0407 492.979,-28.9649"/>
</g>
<!-- Node16&#45;&gt;Node15 -->
<g id="edge48" class="edge"><title>Node16&#45;&gt;Node15</title>
<path fill="none" stroke="midnightblue" d="M722.931,-123.649C679.401,-116.856 579.539,-100.367 497,-80 495.751,-79.6918 494.481,-79.3659 493.201,-79.0269"/>
<polygon fill="midnightblue" stroke="midnightblue" points="493.938,-75.5983 483.363,-76.2468 492.034,-82.3345 493.938,-75.5983"/>
</g>
<!-- Node17 -->
<g id="node36" class="node"><title>Node17</title>
<polygon fill="white" stroke="#bfbfbf" points="539,-58.5 539,-79.5 635,-79.5 635,-58.5 539,-58.5"/>
<text text-anchor="middle" x="587" y="-66.5" font-family="Helvetica,sans-Serif" font-size="10.00">cereal/access.hpp</text>
</g>
<!-- Node16&#45;&gt;Node17 -->
<g id="edge36" class="edge"><title>Node16&#45;&gt;Node17</title>
<path fill="none" stroke="midnightblue" d="M722.698,-118.813C697.368,-109.515 655.602,-94.183 625.086,-82.9809"/>
<polygon fill="midnightblue" stroke="midnightblue" points="626.202,-79.6623 615.608,-79.5018 623.79,-86.2335 626.202,-79.6623"/>
</g>
<!-- Node18 -->
<g id="node38" class="node"><title>Node18</title>
<a xlink:href="variadic_8h.html" target="_top" xlink:title="std_ext/variadic.h">
<polygon fill="white" stroke="black" points="653,-58.5 653,-79.5 747,-79.5 747,-58.5 653,-58.5"/>
<text text-anchor="middle" x="700" y="-66.5" font-family="Helvetica,sans-Serif" font-size="10.00">std_ext/variadic.h</text>
</a>
</g>
<!-- Node16&#45;&gt;Node18 -->
<g id="edge38" class="edge"><title>Node16&#45;&gt;Node18</title>
<path fill="none" stroke="midnightblue" d="M736.746,-116.362C730.53,-108.35 721.849,-97.1605 714.485,-87.6696"/>
<polygon fill="midnightblue" stroke="midnightblue" points="717.097,-85.326 708.201,-79.5707 711.566,-89.617 717.097,-85.326"/>
</g>
<!-- Node21 -->
<g id="node44" class="node"><title>Node21</title>
<polygon fill="white" stroke="#bfbfbf" points="765,-58.5 765,-79.5 817,-79.5 817,-58.5 765,-58.5"/>
<text text-anchor="middle" x="791" y="-66.5" font-family="Helvetica,sans-Serif" font-size="10.00">memory</text>
</g>
<!-- Node16&#45;&gt;Node21 -->
<g id="edge44" class="edge"><title>Node16&#45;&gt;Node21</title>
<path fill="none" stroke="midnightblue" d="M753.437,-116.362C759.792,-108.35 768.666,-97.1605 776.193,-87.6696"/>
<polygon fill="midnightblue" stroke="midnightblue" points="779.145,-89.5805 782.616,-79.5707 773.66,-85.2308 779.145,-89.5805"/>
</g>
<!-- Node22 -->
<g id="node46" class="node"><title>Node22</title>
<polygon fill="white" stroke="#bfbfbf" points="834.5,-58.5 834.5,-79.5 863.5,-79.5 863.5,-58.5 834.5,-58.5"/>
<text text-anchor="middle" x="849" y="-66.5" font-family="Helvetica,sans-Serif" font-size="10.00">list</text>
</g>
<!-- Node16&#45;&gt;Node22 -->
<g id="edge46" class="edge"><title>Node16&#45;&gt;Node22</title>
<path fill="none" stroke="midnightblue" d="M764.075,-116.362C781.353,-106.726 806.869,-92.496 825.42,-82.1502"/>
<polygon fill="midnightblue" stroke="midnightblue" points="827.377,-85.0666 834.406,-77.1391 823.967,-78.9531 827.377,-85.0666"/>
</g>
<!-- Node23 -->
<g id="node50" class="node"><title>Node23</title>
<polygon fill="white" stroke="#bfbfbf" points="880.5,-58.5 880.5,-79.5 929.5,-79.5 929.5,-58.5 880.5,-58.5"/>
<text text-anchor="middle" x="905" y="-66.5" font-family="Helvetica,sans-Serif" font-size="10.00">cassert</text>
</g>
<!-- Node16&#45;&gt;Node23 -->
<g id="edge52" class="edge"><title>Node16&#45;&gt;Node23</title>
<path fill="none" stroke="midnightblue" d="M767.247,-118.935C794.056,-109.217 839.391,-92.7832 870.69,-81.4373"/>
<polygon fill="midnightblue" stroke="midnightblue" points="872.109,-84.6458 880.318,-77.9473 869.724,-78.0649 872.109,-84.6458"/>
</g>
<!-- Node24 -->
<g id="node52" class="node"><title>Node24</title>
<polygon fill="white" stroke="#bfbfbf" points="946.5,-58.5 946.5,-79.5 997.5,-79.5 997.5,-58.5 946.5,-58.5"/>
<text text-anchor="middle" x="972" y="-66.5" font-family="Helvetica,sans-Serif" font-size="10.00">numeric</text>
</g>
<!-- Node16&#45;&gt;Node24 -->
<g id="edge54" class="edge"><title>Node16&#45;&gt;Node24</title>
<path fill="none" stroke="midnightblue" d="M767.136,-122.17C801.47,-114.559 869.809,-98.9352 936.603,-80.2684"/>
<polygon fill="midnightblue" stroke="midnightblue" points="937.768,-83.5764 946.442,-77.4928 935.867,-76.8393 937.768,-83.5764"/>
</g>
<!-- Node25 -->
<g id="node54" class="node"><title>Node25</title>
<polygon fill="white" stroke="#bfbfbf" points="1015,-58.5 1015,-79.5 1077,-79.5 1077,-58.5 1015,-58.5"/>
<text text-anchor="middle" x="1046" y="-66.5" font-family="Helvetica,sans-Serif" font-size="10.00">type_traits</text>
</g>
<!-- Node16&#45;&gt;Node25 -->
<g id="edge56" class="edge"><title>Node16&#45;&gt;Node25</title>
<path fill="none" stroke="midnightblue" d="M767.134,-123.705C810.754,-117.065 911.053,-101.073 1004.71,-80.1551"/>
<polygon fill="midnightblue" stroke="midnightblue" points="1005.64,-83.5328 1014.62,-77.9159 1004.1,-76.7048 1005.64,-83.5328"/>
</g>
<!-- Node19 -->
<g id="node40" class="node"><title>Node19</title>
<polygon fill="white" stroke="#bfbfbf" points="644.5,-0.5 644.5,-21.5 693.5,-21.5 693.5,-0.5 644.5,-0.5"/>
<text text-anchor="middle" x="669" y="-8.5" font-family="Helvetica,sans-Serif" font-size="10.00">cstddef</text>
</g>
<!-- Node18&#45;&gt;Node19 -->
<g id="edge40" class="edge"><title>Node18&#45;&gt;Node19</title>
<path fill="none" stroke="midnightblue" d="M694.314,-58.3619C690.163,-50.5949 684.416,-39.8426 679.447,-30.5458"/>
<polygon fill="midnightblue" stroke="midnightblue" points="682.45,-28.7401 674.65,-21.5707 676.277,-32.0398 682.45,-28.7401"/>
</g>
<!-- Node20 -->
<g id="node42" class="node"><title>Node20</title>
<polygon fill="white" stroke="#bfbfbf" points="711,-0.5 711,-21.5 749,-21.5 749,-0.5 711,-0.5"/>
<text text-anchor="middle" x="730" y="-8.5" font-family="Helvetica,sans-Serif" font-size="10.00">tuple</text>
</g>
<!-- Node18&#45;&gt;Node20 -->
<g id="edge42" class="edge"><title>Node18&#45;&gt;Node20</title>
<path fill="none" stroke="midnightblue" d="M705.502,-58.3619C709.52,-50.5949 715.081,-39.8426 719.89,-30.5458"/>
<polygon fill="midnightblue" stroke="midnightblue" points="723.047,-32.0608 724.532,-21.5707 716.829,-28.8448 723.047,-32.0608"/>
</g>
</g>
</svg>
