<?xml version="1.0" encoding="UTF-8" standalone="no"?>
<!DOCTYPE svg PUBLIC "-//W3C//DTD SVG 1.1//EN"
 "http://www.w3.org/Graphics/SVG/1.1/DTD/svg11.dtd">
<!-- Generated by graphviz version 2.26.3 (20100126.1600)
 -->
<!-- Title: src/base/ParticleTypeTree.h Pages: 1 -->
<svg width="1026pt" height="204pt"
 viewBox="0.00 0.00 1026.00 204.00" xmlns="http://www.w3.org/2000/svg" xmlns:xlink="http://www.w3.org/1999/xlink">
<g id="graph1" class="graph" transform="scale(1 1) rotate(0) translate(4 200)">
<title>src/base/ParticleTypeTree.h</title>
<polygon fill="white" stroke="white" points="-4,5 -4,-200 1023,-200 1023,5 -4,5"/>
<!-- Node0 -->
<g id="node1" class="node"><title>Node0</title>
<polygon fill="#bfbfbf" stroke="black" points="742,-174.5 742,-195.5 882,-195.5 882,-174.5 742,-174.5"/>
<text text-anchor="middle" x="812" y="-182.5" font-family="Helvetica,sans-Serif" font-size="10.00">src/base/ParticleTypeTree.h</text>
</g>
<!-- Node1 -->
<g id="node3" class="node"><title>Node1</title>
<a xlink:href="_particle_type_8h.html" target="_top" xlink:title="ParticleType.h">
<polygon fill="white" stroke="black" points="772,-116.5 772,-137.5 852,-137.5 852,-116.5 772,-116.5"/>
<text text-anchor="middle" x="812" y="-124.5" font-family="Helvetica,sans-Serif" font-size="10.00">ParticleType.h</text>
</a>
</g>
<!-- Node0&#45;&gt;Node1 -->
<g id="edge2" class="edge"><title>Node0&#45;&gt;Node1</title>
<path fill="none" stroke="midnightblue" d="M812,-174.362C812,-166.922 812,-156.743 812,-147.728"/>
<polygon fill="midnightblue" stroke="midnightblue" points="815.5,-147.571 812,-137.571 808.5,-147.571 815.5,-147.571"/>
</g>
<!-- Node12 -->
<g id="node26" class="node"><title>Node12</title>
<polygon fill="white" stroke="#bfbfbf" points="983.5,-58.5 983.5,-79.5 1018.5,-79.5 1018.5,-58.5 983.5,-58.5"/>
<text text-anchor="middle" x="1001" y="-66.5" font-family="Helvetica,sans-Serif" font-size="10.00">map</text>
</g>
<!-- Node0&#45;&gt;Node12 -->
<g id="edge56" class="edge"><title>Node0&#45;&gt;Node12</title>
<path fill="none" stroke="midnightblue" d="M829.442,-174.295C862.859,-153.785 936.057,-108.859 975.163,-84.8575"/>
<polygon fill="midnightblue" stroke="midnightblue" points="977.181,-87.7256 983.873,-79.5117 973.52,-81.7596 977.181,-87.7256"/>
</g>
<!-- Node15 -->
<g id="node32" class="node"><title>Node15</title>
<a xlink:href="_tree_8h.html" target="_top" xlink:title="Tree.h">
<polygon fill="white" stroke="black" points="342,-116.5 342,-137.5 386,-137.5 386,-116.5 342,-116.5"/>
<text text-anchor="middle" x="364" y="-124.5" font-family="Helvetica,sans-Serif" font-size="10.00">Tree.h</text>
</a>
</g>
<!-- Node0&#45;&gt;Node15 -->
<g id="edge32" class="edge"><title>Node0&#45;&gt;Node15</title>
<path fill="none" stroke="midnightblue" d="M741.507,-175.874C643.067,-163.129 468.417,-140.518 396.414,-131.197"/>
<polygon fill="midnightblue" stroke="midnightblue" points="396.528,-127.682 386.161,-129.869 395.629,-134.624 396.528,-127.682"/>
</g>
<!-- Node2 -->
<g id="node5" class="node"><title>Node2</title>
<a xlink:href="types_8h.html" target="_top" xlink:title="base/types.h">
<polygon fill="white" stroke="black" points="551.5,-0.5 551.5,-21.5 624.5,-21.5 624.5,-0.5 551.5,-0.5"/>
<text text-anchor="middle" x="588" y="-8.5" font-family="Helvetica,sans-Serif" font-size="10.00">base/types.h</text>
</a>
</g>
<!-- Node1&#45;&gt;Node2 -->
<g id="edge4" class="edge"><title>Node1&#45;&gt;Node2</title>
<path fill="none" stroke="midnightblue" d="M775.882,-116.448C749.855,-108.179 714.305,-95.4947 685,-80 656.799,-65.0891 627.34,-43.0735 608.394,-27.9421"/>
<polygon fill="midnightblue" stroke="midnightblue" points="610.444,-25.0989 600.47,-21.5246 606.038,-30.5385 610.444,-25.0989"/>
</g>
<!-- Node3 -->
<g id="node7" class="node"><title>Node3</title>
<a xlink:href="interval_8h.html" target="_top" xlink:title="base/interval.h">
<polygon fill="white" stroke="black" points="694,-58.5 694,-79.5 774,-79.5 774,-58.5 694,-58.5"/>
<text text-anchor="middle" x="734" y="-66.5" font-family="Helvetica,sans-Serif" font-size="10.00">base/interval.h</text>
</a>
</g>
<!-- Node1&#45;&gt;Node3 -->
<g id="edge6" class="edge"><title>Node1&#45;&gt;Node3</title>
<path fill="none" stroke="midnightblue" d="M797.694,-116.362C786.149,-107.777 769.7,-95.5459 756.41,-85.6636"/>
<polygon fill="midnightblue" stroke="midnightblue" points="758.329,-82.7291 748.216,-79.5707 754.152,-88.3463 758.329,-82.7291"/>
</g>
<!-- Node10 -->
<g id="node22" class="node"><title>Node10</title>
<polygon fill="white" stroke="#bfbfbf" points="791.5,-58.5 791.5,-79.5 832.5,-79.5 832.5,-58.5 791.5,-58.5"/>
<text text-anchor="middle" x="812" y="-66.5" font-family="Helvetica,sans-Serif" font-size="10.00">string</text>
</g>
<!-- Node1&#45;&gt;Node10 -->
<g id="edge22" class="edge"><title>Node1&#45;&gt;Node10</title>
<path fill="none" stroke="midnightblue" d="M812,-116.362C812,-108.922 812,-98.7427 812,-89.7276"/>
<polygon fill="midnightblue" stroke="midnightblue" points="815.5,-89.5706 812,-79.5707 808.5,-89.5707 815.5,-89.5706"/>
</g>
<!-- Node11 -->
<g id="node24" class="node"><title>Node11</title>
<polygon fill="white" stroke="#bfbfbf" points="850,-58.5 850,-79.5 902,-79.5 902,-58.5 850,-58.5"/>
<text text-anchor="middle" x="876" y="-66.5" font-family="Helvetica,sans-Serif" font-size="10.00">ostream</text>
</g>
<!-- Node1&#45;&gt;Node11 -->
<g id="edge24" class="edge"><title>Node1&#45;&gt;Node11</title>
<path fill="none" stroke="midnightblue" d="M823.739,-116.362C832.941,-108.023 845.94,-96.2418 856.672,-86.5162"/>
<polygon fill="midnightblue" stroke="midnightblue" points="859.276,-88.8793 864.336,-79.5707 854.576,-83.6924 859.276,-88.8793"/>
</g>
<!-- Node1&#45;&gt;Node12 -->
<g id="edge26" class="edge"><title>Node1&#45;&gt;Node12</title>
<path fill="none" stroke="midnightblue" d="M852.28,-116.823C883.387,-108.645 927.618,-96.3227 973.899,-80.1425"/>
<polygon fill="midnightblue" stroke="midnightblue" points="975.233,-83.383 983.49,-76.7435 972.895,-76.785 975.233,-83.383"/>
</g>
<!-- Node13 -->
<g id="node28" class="node"><title>Node13</title>
<polygon fill="white" stroke="#bfbfbf" points="919.5,-58.5 919.5,-79.5 966.5,-79.5 966.5,-58.5 919.5,-58.5"/>
<text text-anchor="middle" x="943" y="-66.5" font-family="Helvetica,sans-Serif" font-size="10.00">iterator</text>
</g>
<!-- Node1&#45;&gt;Node13 -->
<g id="edge28" class="edge"><title>Node1&#45;&gt;Node13</title>
<path fill="none" stroke="midnightblue" d="M835.723,-116.497C856.497,-107.299 886.893,-93.8411 910.031,-83.597"/>
<polygon fill="midnightblue" stroke="midnightblue" points="911.726,-86.6741 919.453,-79.4252 908.893,-80.2734 911.726,-86.6741"/>
</g>
<!-- Node14 -->
<g id="node30" class="node"><title>Node14</title>
<polygon fill="white" stroke="#bfbfbf" points="594,-58.5 594,-79.5 638,-79.5 638,-58.5 594,-58.5"/>
<text text-anchor="middle" x="616" y="-66.5" font-family="Helvetica,sans-Serif" font-size="10.00">vector</text>
</g>
<!-- Node1&#45;&gt;Node14 -->
<g id="edge30" class="edge"><title>Node1&#45;&gt;Node14</title>
<path fill="none" stroke="midnightblue" d="M775.746,-116.472C743.295,-107.019 694.432,-92.7144 652,-80 650.591,-79.5779 649.152,-79.1451 647.699,-78.7066"/>
<polygon fill="midnightblue" stroke="midnightblue" points="648.659,-75.3403 638.073,-75.7859 646.626,-82.0387 648.659,-75.3403"/>
</g>
<!-- Node3&#45;&gt;Node2 -->
<g id="edge8" class="edge"><title>Node3&#45;&gt;Node2</title>
<path fill="none" stroke="midnightblue" d="M707.561,-58.4966C684.244,-49.2337 650.05,-35.6499 624.196,-25.3793"/>
<polygon fill="midnightblue" stroke="midnightblue" points="625.322,-22.0605 614.736,-21.6212 622.737,-28.566 625.322,-22.0605"/>
</g>
<!-- Node4 -->
<g id="node10" class="node"><title>Node4</title>
<polygon fill="white" stroke="#bfbfbf" points="473,-0.5 473,-21.5 529,-21.5 529,-0.5 473,-0.5"/>
<text text-anchor="middle" x="501" y="-8.5" font-family="Helvetica,sans-Serif" font-size="10.00">algorithm</text>
</g>
<!-- Node3&#45;&gt;Node4 -->
<g id="edge10" class="edge"><title>Node3&#45;&gt;Node4</title>
<path fill="none" stroke="midnightblue" d="M693.714,-59.2708C655.029,-49.8848 594.964,-35.1975 543,-22 541.767,-21.6869 540.514,-21.3673 539.25,-21.0433"/>
<polygon fill="midnightblue" stroke="midnightblue" points="540.009,-17.6248 529.452,-18.5128 538.259,-24.4023 540.009,-17.6248"/>
</g>
<!-- Node5 -->
<g id="node12" class="node"><title>Node5</title>
<polygon fill="white" stroke="#bfbfbf" points="839.5,-0.5 839.5,-21.5 898.5,-21.5 898.5,-0.5 839.5,-0.5"/>
<text text-anchor="middle" x="869" y="-8.5" font-family="Helvetica,sans-Serif" font-size="10.00">stdexcept</text>
</g>
<!-- Node3&#45;&gt;Node5 -->
<g id="edge12" class="edge"><title>Node3&#45;&gt;Node5</title>
<path fill="none" stroke="midnightblue" d="M758.447,-58.4966C779.818,-49.3154 811.069,-35.8889 834.897,-25.6516"/>
<polygon fill="midnightblue" stroke="midnightblue" points="836.472,-28.7845 844.278,-21.6212 833.709,-22.3529 836.472,-28.7845"/>
</g>
<!-- Node6 -->
<g id="node14" class="node"><title>Node6</title>
<polygon fill="white" stroke="#bfbfbf" points="916,-0.5 916,-21.5 956,-21.5 956,-0.5 916,-0.5"/>
<text text-anchor="middle" x="936" y="-8.5" font-family="Helvetica,sans-Serif" font-size="10.00">limits</text>
</g>
<!-- Node3&#45;&gt;Node6 -->
<g id="edge14" class="edge"><title>Node3&#45;&gt;Node6</title>
<path fill="none" stroke="midnightblue" d="M774.179,-59.2644C807.316,-50.9724 855.704,-38.264 906.052,-22.1119"/>
<polygon fill="midnightblue" stroke="midnightblue" points="907.376,-25.362 915.808,-18.9463 905.216,-18.7037 907.376,-25.362"/>
</g>
<!-- Node7 -->
<g id="node16" class="node"><title>Node7</title>
<polygon fill="white" stroke="#bfbfbf" points="641.5,-0.5 641.5,-21.5 690.5,-21.5 690.5,-0.5 641.5,-0.5"/>
<text text-anchor="middle" x="666" y="-8.5" font-family="Helvetica,sans-Serif" font-size="10.00">istream</text>
</g>
<!-- Node3&#45;&gt;Node7 -->
<g id="edge16" class="edge"><title>Node3&#45;&gt;Node7</title>
<path fill="none" stroke="midnightblue" d="M721.528,-58.3619C711.655,-49.9408 697.667,-38.0105 686.202,-28.2308"/>
<polygon fill="midnightblue" stroke="midnightblue" points="688.273,-25.3972 678.393,-21.5707 683.73,-30.7231 688.273,-25.3972"/>
</g>
<!-- Node8 -->
<g id="node18" class="node"><title>Node8</title>
<polygon fill="white" stroke="#bfbfbf" points="708,-0.5 708,-21.5 760,-21.5 760,-0.5 708,-0.5"/>
<text text-anchor="middle" x="734" y="-8.5" font-family="Helvetica,sans-Serif" font-size="10.00">sstream</text>
</g>
<!-- Node3&#45;&gt;Node8 -->
<g id="edge18" class="edge"><title>Node3&#45;&gt;Node8</title>
<path fill="none" stroke="midnightblue" d="M734,-58.3619C734,-50.9219 734,-40.7427 734,-31.7276"/>
<polygon fill="midnightblue" stroke="midnightblue" points="737.5,-31.5706 734,-21.5707 730.5,-31.5707 737.5,-31.5706"/>
</g>
<!-- Node9 -->
<g id="node20" class="node"><title>Node9</title>
<polygon fill="white" stroke="#bfbfbf" points="778,-0.5 778,-21.5 822,-21.5 822,-0.5 778,-0.5"/>
<text text-anchor="middle" x="800" y="-8.5" font-family="Helvetica,sans-Serif" font-size="10.00">cmath</text>
</g>
<!-- Node3&#45;&gt;Node9 -->
<g id="edge20" class="edge"><title>Node3&#45;&gt;Node9</title>
<path fill="none" stroke="midnightblue" d="M746.105,-58.3619C755.688,-49.9408 769.264,-38.0105 780.393,-28.2308"/>
<polygon fill="midnightblue" stroke="midnightblue" points="782.77,-30.8009 787.971,-21.5707 778.149,-25.5427 782.77,-30.8009"/>
</g>
<!-- Node15&#45;&gt;Node4 -->
<g id="edge48" class="edge"><title>Node15&#45;&gt;Node4</title>
<path fill="none" stroke="midnightblue" d="M386.2,-123.366C411.505,-118.102 452.52,-105.979 477,-80 489.458,-66.7783 495.489,-46.7515 498.384,-31.6736"/>
<polygon fill="midnightblue" stroke="midnightblue" points="501.85,-32.1668 499.985,-21.7373 494.939,-31.053 501.85,-32.1668"/>
</g>
<!-- Node15&#45;&gt;Node14 -->
<g id="edge46" class="edge"><title>Node15&#45;&gt;Node14</title>
<path fill="none" stroke="midnightblue" d="M386.192,-123.278C424.637,-116.619 506.219,-101.561 583.829,-80.0769"/>
<polygon fill="midnightblue" stroke="midnightblue" points="585.082,-83.3605 593.762,-77.2852 583.188,-76.6216 585.082,-83.3605"/>
</g>
<!-- Node16 -->
<g id="node34" class="node"><title>Node16</title>
<polygon fill="white" stroke="#bfbfbf" points="372,-58.5 372,-79.5 468,-79.5 468,-58.5 372,-58.5"/>
<text text-anchor="middle" x="420" y="-66.5" font-family="Helvetica,sans-Serif" font-size="10.00">cereal/access.hpp</text>
</g>
<!-- Node15&#45;&gt;Node16 -->
<g id="edge34" class="edge"><title>Node15&#45;&gt;Node16</title>
<path fill="none" stroke="midnightblue" d="M374.271,-116.362C382.244,-108.104 393.475,-96.4725 402.811,-86.8029"/>
<polygon fill="midnightblue" stroke="midnightblue" points="405.366,-89.1958 409.794,-79.5707 400.33,-84.3336 405.366,-89.1958"/>
</g>
<!-- Node17 -->
<g id="node36" class="node"><title>Node17</title>
<a xlink:href="variadic_8h.html" target="_top" xlink:title="std_ext/variadic.h">
<polygon fill="white" stroke="black" points="260,-58.5 260,-79.5 354,-79.5 354,-58.5 260,-58.5"/>
<text text-anchor="middle" x="307" y="-66.5" font-family="Helvetica,sans-Serif" font-size="10.00">std_ext/variadic.h</text>
</a>
</g>
<!-- Node15&#45;&gt;Node17 -->
<g id="edge36" class="edge"><title>Node15&#45;&gt;Node17</title>
<path fill="none" stroke="midnightblue" d="M353.545,-116.362C345.43,-108.104 333.999,-96.4725 324.496,-86.8029"/>
<polygon fill="midnightblue" stroke="midnightblue" points="326.894,-84.2497 317.388,-79.5707 321.901,-89.1562 326.894,-84.2497"/>
</g>
<!-- Node20 -->
<g id="node42" class="node"><title>Node20</title>
<polygon fill="white" stroke="#bfbfbf" points="524,-58.5 524,-79.5 576,-79.5 576,-58.5 524,-58.5"/>
<text text-anchor="middle" x="550" y="-66.5" font-family="Helvetica,sans-Serif" font-size="10.00">memory</text>
</g>
<!-- Node15&#45;&gt;Node20 -->
<g id="edge42" class="edge"><title>Node15&#45;&gt;Node20</title>
<path fill="none" stroke="midnightblue" d="M386.067,-120.119C417.691,-110.258 476.257,-91.9952 514.15,-80.1791"/>
<polygon fill="midnightblue" stroke="midnightblue" points="515.274,-83.4947 523.779,-77.1764 513.19,-76.8121 515.274,-83.4947"/>
</g>
<!-- Node21 -->
<g id="node44" class="node"><title>Node21</title>
<polygon fill="white" stroke="#bfbfbf" points="-0.5,-58.5 -0.5,-79.5 28.5,-79.5 28.5,-58.5 -0.5,-58.5"/>
<text text-anchor="middle" x="14" y="-66.5" font-family="Helvetica,sans-Serif" font-size="10.00">list</text>
</g>
<!-- Node15&#45;&gt;Node21 -->
<g id="edge44" class="edge"><title>Node15&#45;&gt;Node21</title>
<path fill="none" stroke="midnightblue" d="M341.687,-126.116C289.527,-123.567 155.732,-114.234 38.663,-79.8534"/>
<polygon fill="midnightblue" stroke="midnightblue" points="39.4161,-76.425 28.8316,-76.894 37.3984,-83.1279 39.4161,-76.425"/>
</g>
<!-- Node22 -->
<g id="node48" class="node"><title>Node22</title>
<polygon fill="white" stroke="#bfbfbf" points="45.5,-58.5 45.5,-79.5 94.5,-79.5 94.5,-58.5 45.5,-58.5"/>
<text text-anchor="middle" x="70" y="-66.5" font-family="Helvetica,sans-Serif" font-size="10.00">cassert</text>
</g>
<!-- Node15&#45;&gt;Node22 -->
<g id="edge50" class="edge"><title>Node15&#45;&gt;Node22</title>
<path fill="none" stroke="midnightblue" d="M341.772,-124.096C297.985,-118.145 197.404,-103.325 104.576,-80.1651"/>
<polygon fill="midnightblue" stroke="midnightblue" points="105.306,-76.7396 94.7527,-77.6749 103.586,-83.525 105.306,-76.7396"/>
</g>
<!-- Node23 -->
<g id="node50" class="node"><title>Node23</title>
<polygon fill="white" stroke="#bfbfbf" points="111.5,-58.5 111.5,-79.5 162.5,-79.5 162.5,-58.5 111.5,-58.5"/>
<text text-anchor="middle" x="137" y="-66.5" font-family="Helvetica,sans-Serif" font-size="10.00">numeric</text>
</g>
<!-- Node15&#45;&gt;Node23 -->
<g id="edge52" class="edge"><title>Node15&#45;&gt;Node23</title>
<path fill="none" stroke="midnightblue" d="M341.864,-122.17C307.53,-114.559 239.191,-98.9352 172.397,-80.2684"/>
<polygon fill="midnightblue" stroke="midnightblue" points="173.133,-76.8393 162.558,-77.4928 171.232,-83.5764 173.133,-76.8393"/>
</g>
<!-- Node24 -->
<g id="node52" class="node"><title>Node24</title>
<polygon fill="white" stroke="#bfbfbf" points="180,-58.5 180,-79.5 242,-79.5 242,-58.5 180,-58.5"/>
<text text-anchor="middle" x="211" y="-66.5" font-family="Helvetica,sans-Serif" font-size="10.00">type_traits</text>
</g>
<!-- Node15&#45;&gt;Node24 -->
<g id="edge54" class="edge"><title>Node15&#45;&gt;Node24</title>
<path fill="none" stroke="midnightblue" d="M341.752,-118.566C317.255,-109.279 277.464,-94.1954 248.203,-83.103"/>
<polygon fill="midnightblue" stroke="midnightblue" points="249.312,-79.7804 238.72,-79.5084 246.83,-86.3259 249.312,-79.7804"/>
</g>
<!-- Node18 -->
<g id="node38" class="node"><title>Node18</title>
<polygon fill="white" stroke="#bfbfbf" points="312.5,-0.5 312.5,-21.5 361.5,-21.5 361.5,-0.5 312.5,-0.5"/>
<text text-anchor="middle" x="337" y="-8.5" font-family="Helvetica,sans-Serif" font-size="10.00">cstddef</text>
</g>
<!-- Node17&#45;&gt;Node18 -->
<g id="edge38" class="edge"><title>Node17&#45;&gt;Node18</title>
<path fill="none" stroke="midnightblue" d="M312.502,-58.3619C316.52,-50.5949 322.081,-39.8426 326.89,-30.5458"/>
<polygon fill="midnightblue" stroke="midnightblue" points="330.047,-32.0608 331.532,-21.5707 323.829,-28.8448 330.047,-32.0608"/>
</g>
<!-- Node19 -->
<g id="node40" class="node"><title>Node19</title>
<polygon fill="white" stroke="#bfbfbf" points="257,-0.5 257,-21.5 295,-21.5 295,-0.5 257,-0.5"/>
<text text-anchor="middle" x="276" y="-8.5" font-family="Helvetica,sans-Serif" font-size="10.00">tuple</text>
</g>
<!-- Node17&#45;&gt;Node19 -->
<g id="edge40" class="edge"><title>Node17&#45;&gt;Node19</title>
<path fill="none" stroke="midnightblue" d="M301.314,-58.3619C297.163,-50.5949 291.416,-39.8426 286.447,-30.5458"/>
<polygon fill="midnightblue" stroke="midnightblue" points="289.45,-28.7401 281.65,-21.5707 283.277,-32.0398 289.45,-28.7401"/>
</g>
</g>
</svg>
