<?xml version="1.0" encoding="UTF-8" standalone="no"?>
<!DOCTYPE svg PUBLIC "-//W3C//DTD SVG 1.1//EN"
 "http://www.w3.org/Graphics/SVG/1.1/DTD/svg11.dtd">
<!-- Generated by graphviz version 2.26.3 (20100126.1600)
 -->
<!-- Title: src/analysis/physics/PhysicsManager.h Pages: 1 -->
<svg width="3266pt" height="638pt"
 viewBox="0.00 0.00 3265.78 638.00" xmlns="http://www.w3.org/2000/svg" xmlns:xlink="http://www.w3.org/1999/xlink">
<g id="graph1" class="graph" transform="scale(1 1) rotate(0) translate(4 634)">
<title>src/analysis/physics/PhysicsManager.h</title>
<polygon fill="white" stroke="white" points="-4,5 -4,-634 3262.78,-634 3262.78,5 -4,5"/>
<!-- Node0 -->
<g id="node1" class="node"><title>Node0</title>
<polygon fill="#bfbfbf" stroke="black" points="2548.75,-595 2548.75,-629 2654.75,-629 2654.75,-595 2548.75,-595"/>
<text text-anchor="start" x="2556.75" y="-616" font-family="Helvetica,sans-Serif" font-size="10.00">src/analysis/physics</text>
<text text-anchor="middle" x="2601.75" y="-603" font-family="Helvetica,sans-Serif" font-size="10.00">/PhysicsManager.h</text>
</g>
<!-- Node1 -->
<g id="node3" class="node"><title>Node1</title>
<a xlink:href="_physics_8h.html" target="_top" xlink:title="Physics.h">
<polygon fill="white" stroke="black" points="2571.75,-536.5 2571.75,-557.5 2631.75,-557.5 2631.75,-536.5 2571.75,-536.5"/>
<text text-anchor="middle" x="2601.75" y="-544.5" font-family="Helvetica,sans-Serif" font-size="10.00">Physics.h</text>
</a>
</g>
<!-- Node0&#45;&gt;Node1 -->
<g id="edge2" class="edge"><title>Node0&#45;&gt;Node1</title>
<path fill="none" stroke="midnightblue" d="M2601.75,-594.922C2601.75,-586.67 2601.75,-576.692 2601.75,-567.982"/>
<polygon fill="midnightblue" stroke="midnightblue" points="2605.25,-567.852 2601.75,-557.852 2598.25,-567.852 2605.25,-567.852"/>
</g>
<!-- Node18 -->
<g id="node43" class="node"><title>Node18</title>
<polygon fill="white" stroke="#bfbfbf" points="2271.75,-174.5 2271.75,-195.5 2323.75,-195.5 2323.75,-174.5 2271.75,-174.5"/>
<text text-anchor="middle" x="2297.75" y="-182.5" font-family="Helvetica,sans-Serif" font-size="10.00">memory</text>
</g>
<!-- Node0&#45;&gt;Node18 -->
<g id="edge332" class="edge"><title>Node0&#45;&gt;Node18</title>
<path fill="none" stroke="midnightblue" d="M2548.73,-603.531C2455.44,-587.12 2271.75,-547.391 2271.75,-489 2271.75,-489 2271.75,-489 2271.75,-431 2271.75,-357.568 2292.73,-341.184 2298.75,-268 2300.06,-252.054 2298.92,-247.999 2298.75,-232 2298.66,-223.472 2298.47,-214.074 2298.29,-205.938"/>
<polygon fill="midnightblue" stroke="midnightblue" points="2301.78,-205.738 2298.04,-195.826 2294.79,-205.908 2301.78,-205.738"/>
</g>
<!-- Node67 -->
<g id="node235" class="node"><title>Node67</title>
<polygon fill="white" stroke="#bfbfbf" points="2649.25,-536.5 2649.25,-557.5 2692.25,-557.5 2692.25,-536.5 2649.25,-536.5"/>
<text text-anchor="middle" x="2670.75" y="-544.5" font-family="Helvetica,sans-Serif" font-size="10.00">queue</text>
</g>
<!-- Node0&#45;&gt;Node67 -->
<g id="edge334" class="edge"><title>Node0&#45;&gt;Node67</title>
<path fill="none" stroke="midnightblue" d="M2619.88,-594.922C2629.71,-585.662 2641.84,-574.227 2651.8,-564.85"/>
<polygon fill="midnightblue" stroke="midnightblue" points="2654.35,-567.257 2659.23,-557.852 2649.55,-562.161 2654.35,-567.257"/>
</g>
<!-- Node2 -->
<g id="node5" class="node"><title>Node2</title>
<a xlink:href="manager__t_8h.html" target="_top" xlink:title="analysis/physics/manager_t.h">
<polygon fill="white" stroke="black" points="2579.75,-478.5 2579.75,-499.5 2725.75,-499.5 2725.75,-478.5 2579.75,-478.5"/>
<text text-anchor="middle" x="2652.75" y="-486.5" font-family="Helvetica,sans-Serif" font-size="10.00">analysis/physics/manager_t.h</text>
</a>
</g>
<!-- Node1&#45;&gt;Node2 -->
<g id="edge4" class="edge"><title>Node1&#45;&gt;Node2</title>
<path fill="none" stroke="midnightblue" d="M2611.1,-536.362C2618.29,-528.186 2628.39,-516.702 2636.84,-507.091"/>
<polygon fill="midnightblue" stroke="midnightblue" points="2639.48,-509.392 2643.45,-499.571 2634.22,-504.769 2639.48,-509.392"/>
</g>
<!-- Node3 -->
<g id="node7" class="node"><title>Node3</title>
<a xlink:href="_histogram_factory_8h.html" target="_top" xlink:title="analysis/plot/HistogramFactory.h">
<polygon fill="white" stroke="black" points="2797.25,-304.5 2797.25,-325.5 2958.25,-325.5 2958.25,-304.5 2797.25,-304.5"/>
<text text-anchor="middle" x="2877.75" y="-312.5" font-family="Helvetica,sans-Serif" font-size="10.00">analysis/plot/HistogramFactory.h</text>
</a>
</g>
<!-- Node1&#45;&gt;Node3 -->
<g id="edge6" class="edge"><title>Node1&#45;&gt;Node3</title>
<path fill="none" stroke="midnightblue" d="M2631.9,-538.174C2634.88,-537.399 2637.87,-536.66 2640.75,-536 2730.06,-515.538 2778.75,-564.59 2843.75,-500 2888.23,-455.793 2885.11,-373.802 2880.77,-335.594"/>
<polygon fill="midnightblue" stroke="midnightblue" points="2884.24,-335.111 2879.5,-325.637 2877.29,-336.001 2884.24,-335.111"/>
</g>
<!-- Node15 -->
<g id="node34" class="node"><title>Node15</title>
<polygon fill="white" stroke="#bfbfbf" points="3017.25,-116.5 3017.25,-137.5 3058.25,-137.5 3058.25,-116.5 3017.25,-116.5"/>
<text text-anchor="middle" x="3037.75" y="-124.5" font-family="Helvetica,sans-Serif" font-size="10.00">string</text>
</g>
<!-- Node1&#45;&gt;Node15 -->
<g id="edge324" class="edge"><title>Node1&#45;&gt;Node15</title>
<path fill="none" stroke="midnightblue" d="M2631.89,-538.123C2634.87,-537.359 2637.86,-536.636 2640.75,-536 2743.78,-513.308 3103.75,-536.502 3103.75,-431 3103.75,-431 3103.75,-431 3103.75,-250 3103.75,-208.775 3074.61,-168.027 3055.05,-145.325"/>
<polygon fill="midnightblue" stroke="midnightblue" points="3057.62,-142.946 3048.35,-137.81 3052.39,-147.604 3057.62,-142.946"/>
</g>
<!-- Node16 -->
<g id="node37" class="node"><title>Node16</title>
<a xlink:href="_root_draw_8h.html" target="_top" xlink:title="analysis/plot/RootDraw.h">
<polygon fill="white" stroke="black" points="2483.25,-304.5 2483.25,-325.5 2610.25,-325.5 2610.25,-304.5 2483.25,-304.5"/>
<text text-anchor="middle" x="2546.75" y="-312.5" font-family="Helvetica,sans-Serif" font-size="10.00">analysis/plot/RootDraw.h</text>
</a>
</g>
<!-- Node1&#45;&gt;Node16 -->
<g id="edge40" class="edge"><title>Node1&#45;&gt;Node16</title>
<path fill="none" stroke="midnightblue" d="M2632.05,-538.3C2669.36,-527.285 2728.6,-508.698 2734.75,-500 2740.39,-492.017 2738.81,-486.895 2734.75,-478 2702.26,-406.826 2621.64,-354.773 2577.25,-330.411"/>
<polygon fill="midnightblue" stroke="midnightblue" points="2578.83,-327.285 2568.36,-325.636 2575.52,-333.451 2578.83,-327.285"/>
</g>
<!-- Node17 -->
<g id="node40" class="node"><title>Node17</title>
<polygon fill="white" stroke="#bfbfbf" points="2241.25,-239.5 2241.25,-260.5 2270.25,-260.5 2270.25,-239.5 2241.25,-239.5"/>
<text text-anchor="middle" x="2255.75" y="-247.5" font-family="Helvetica,sans-Serif" font-size="10.00">list</text>
</g>
<!-- Node1&#45;&gt;Node17 -->
<g id="edge322" class="edge"><title>Node1&#45;&gt;Node17</title>
<path fill="none" stroke="midnightblue" d="M2571.53,-545.629C2505.77,-542.096 2352.31,-530.704 2311.75,-500 2239.86,-445.587 2246.7,-320.595 2252.67,-270.916"/>
<polygon fill="midnightblue" stroke="midnightblue" points="2256.17,-271.118 2254.01,-260.746 2249.23,-270.203 2256.17,-271.118"/>
</g>
<!-- Node1&#45;&gt;Node18 -->
<g id="edge328" class="edge"><title>Node1&#45;&gt;Node18</title>
<path fill="none" stroke="midnightblue" d="M2594.72,-536.451C2565.52,-492.618 2454.39,-326.131 2436.75,-304 2409.5,-269.819 2403.18,-260.155 2369.75,-232 2355.98,-220.406 2339.21,-209.306 2325.31,-200.807"/>
<polygon fill="midnightblue" stroke="midnightblue" points="2327.04,-197.76 2316.66,-195.619 2323.44,-203.764 2327.04,-197.76"/>
</g>
<!-- Node19 -->
<g id="node45" class="node"><title>Node19</title>
<polygon fill="white" stroke="#bfbfbf" points="2361.25,-174.5 2361.25,-195.5 2420.25,-195.5 2420.25,-174.5 2361.25,-174.5"/>
<text text-anchor="middle" x="2390.75" y="-182.5" font-family="Helvetica,sans-Serif" font-size="10.00">functional</text>
</g>
<!-- Node1&#45;&gt;Node19 -->
<g id="edge330" class="edge"><title>Node1&#45;&gt;Node19</title>
<path fill="none" stroke="midnightblue" d="M2631.78,-538.527C2679.57,-525.038 2767.61,-500.172 2767.75,-500 2823.55,-428.785 2775.45,-369.226 2712.75,-304 2706.92,-297.943 2587.6,-234.977 2579.75,-232 2516.71,-208.116 2494.94,-214.228 2430.24,-197.403"/>
<polygon fill="midnightblue" stroke="midnightblue" points="2430.94,-193.966 2420.37,-194.748 2429.12,-200.726 2430.94,-193.966"/>
</g>
<!-- Node21 -->
<g id="node50" class="node"><title>Node21</title>
<polygon fill="white" stroke="#bfbfbf" points="2337.25,-478.5 2337.25,-499.5 2388.25,-499.5 2388.25,-478.5 2337.25,-478.5"/>
<text text-anchor="middle" x="2362.75" y="-486.5" font-family="Helvetica,sans-Serif" font-size="10.00">TH1D.h</text>
</g>
<!-- Node1&#45;&gt;Node21 -->
<g id="edge56" class="edge"><title>Node1&#45;&gt;Node21</title>
<path fill="none" stroke="midnightblue" d="M2571.67,-540.965C2533.41,-533.102 2465.13,-518.448 2398.16,-500.242"/>
<polygon fill="midnightblue" stroke="midnightblue" points="2398.86,-496.805 2388.29,-497.53 2397.01,-503.555 2398.86,-496.805"/>
</g>
<!-- Node22 -->
<g id="node52" class="node"><title>Node22</title>
<polygon fill="white" stroke="#bfbfbf" points="2405.25,-478.5 2405.25,-499.5 2456.25,-499.5 2456.25,-478.5 2405.25,-478.5"/>
<text text-anchor="middle" x="2430.75" y="-486.5" font-family="Helvetica,sans-Serif" font-size="10.00">TH2D.h</text>
</g>
<!-- Node1&#45;&gt;Node22 -->
<g id="edge58" class="edge"><title>Node1&#45;&gt;Node22</title>
<path fill="none" stroke="midnightblue" d="M2571.57,-536.764C2542.07,-526.758 2497.16,-511.527 2466.03,-500.966"/>
<polygon fill="midnightblue" stroke="midnightblue" points="2467.03,-497.611 2456.44,-497.714 2464.78,-504.241 2467.03,-497.611"/>
</g>
<!-- Node23 -->
<g id="node54" class="node"><title>Node23</title>
<polygon fill="white" stroke="#bfbfbf" points="2473.25,-478.5 2473.25,-499.5 2524.25,-499.5 2524.25,-478.5 2473.25,-478.5"/>
<text text-anchor="middle" x="2498.75" y="-486.5" font-family="Helvetica,sans-Serif" font-size="10.00">TH3D.h</text>
</g>
<!-- Node1&#45;&gt;Node23 -->
<g id="edge60" class="edge"><title>Node1&#45;&gt;Node23</title>
<path fill="none" stroke="midnightblue" d="M2582.86,-536.362C2567.03,-527.45 2544.22,-514.609 2526.35,-504.545"/>
<polygon fill="midnightblue" stroke="midnightblue" points="2527.95,-501.428 2517.52,-499.571 2524.52,-507.527 2527.95,-501.428"/>
</g>
<!-- Node24 -->
<g id="node56" class="node"><title>Node24</title>
<a xlink:href="_t_event_8h.html" target="_top" xlink:title="tree/TEvent.h">
<polygon fill="white" stroke="black" points="2627.75,-304.5 2627.75,-325.5 2703.75,-325.5 2703.75,-304.5 2627.75,-304.5"/>
<text text-anchor="middle" x="2665.75" y="-312.5" font-family="Helvetica,sans-Serif" font-size="10.00">tree/TEvent.h</text>
</a>
</g>
<!-- Node1&#45;&gt;Node24 -->
<g id="edge62" class="edge"><title>Node1&#45;&gt;Node24</title>
<path fill="none" stroke="midnightblue" d="M2631.84,-538.428C2674.05,-526.261 2746.16,-504.909 2749.75,-500 2790.02,-444.95 2721.52,-367.508 2685.6,-332.913"/>
<polygon fill="midnightblue" stroke="midnightblue" points="2687.75,-330.131 2678.07,-325.828 2682.95,-335.229 2687.75,-330.131"/>
</g>
<!-- Node25 -->
<g id="node61" class="node"><title>Node25</title>
<a xlink:href="_t_event_data_8h.html" target="_top" xlink:title="tree/TEventData.h">
<polygon fill="white" stroke="black" points="1022.25,-478.5 1022.25,-499.5 1119.25,-499.5 1119.25,-478.5 1022.25,-478.5"/>
<text text-anchor="middle" x="1070.75" y="-486.5" font-family="Helvetica,sans-Serif" font-size="10.00">tree/TEventData.h</text>
</a>
</g>
<!-- Node1&#45;&gt;Node25 -->
<g id="edge70" class="edge"><title>Node1&#45;&gt;Node25</title>
<path fill="none" stroke="midnightblue" d="M2571.51,-545.854C2384.41,-538.766 1384.2,-500.875 1129.69,-491.233"/>
<polygon fill="midnightblue" stroke="midnightblue" points="1129.67,-487.73 1119.54,-490.849 1129.4,-494.725 1129.67,-487.73"/>
</g>
<!-- Node55 -->
<g id="node188" class="node"><title>Node55</title>
<polygon fill="white" stroke="#bfbfbf" points="3169.25,-174.5 3169.25,-195.5 3204.25,-195.5 3204.25,-174.5 3169.25,-174.5"/>
<text text-anchor="middle" x="3186.75" y="-182.5" font-family="Helvetica,sans-Serif" font-size="10.00">map</text>
</g>
<!-- Node1&#45;&gt;Node55 -->
<g id="edge326" class="edge"><title>Node1&#45;&gt;Node55</title>
<path fill="none" stroke="midnightblue" d="M2631.84,-537.858C2634.83,-537.147 2637.84,-536.509 2640.75,-536 2862.4,-497.258 2931.57,-568.998 3145.75,-500 3201.4,-482.072 3257.75,-489.466 3257.75,-431 3257.75,-431 3257.75,-431 3257.75,-315 3257.75,-277.157 3257.89,-264.643 3238.75,-232 3231.92,-220.355 3221.24,-209.977 3211.34,-201.954"/>
<polygon fill="midnightblue" stroke="midnightblue" points="3213.36,-199.098 3203.3,-195.793 3209.11,-204.654 3213.36,-199.098"/>
</g>
<!-- Node64 -->
<g id="node217" class="node"><title>Node64</title>
<a xlink:href="_options_list_8h.html" target="_top" xlink:title="base/OptionsList.h">
<polygon fill="white" stroke="black" points="3131.75,-239.5 3131.75,-260.5 3229.75,-260.5 3229.75,-239.5 3131.75,-239.5"/>
<text text-anchor="middle" x="3180.75" y="-247.5" font-family="Helvetica,sans-Serif" font-size="10.00">base/OptionsList.h</text>
</a>
</g>
<!-- Node1&#45;&gt;Node64 -->
<g id="edge304" class="edge"><title>Node1&#45;&gt;Node64</title>
<path fill="none" stroke="midnightblue" d="M2631.84,-537.87C2634.83,-537.157 2637.84,-536.515 2640.75,-536 2745.42,-517.48 3026.53,-554.583 3117.75,-500 3148.96,-481.324 3161.75,-467.371 3161.75,-431 3161.75,-431 3161.75,-431 3161.75,-373 3161.75,-336.649 3169.95,-294.956 3175.58,-270.64"/>
<polygon fill="midnightblue" stroke="midnightblue" points="3179.02,-271.313 3177.94,-260.773 3172.21,-269.682 3179.02,-271.313"/>
</g>
<!-- Node66 -->
<g id="node225" class="node"><title>Node66</title>
<a xlink:href="memory_8h.html" target="_top" xlink:title="base/std_ext/memory.h">
<polygon fill="white" stroke="black" points="2309.25,-304.5 2309.25,-325.5 2428.25,-325.5 2428.25,-304.5 2309.25,-304.5"/>
<text text-anchor="middle" x="2368.75" y="-312.5" font-family="Helvetica,sans-Serif" font-size="10.00">base/std_ext/memory.h</text>
</a>
</g>
<!-- Node1&#45;&gt;Node66 -->
<g id="edge316" class="edge"><title>Node1&#45;&gt;Node66</title>
<path fill="none" stroke="midnightblue" d="M2571.51,-543.983C2503.73,-536.915 2344.32,-518.481 2328.75,-500 2287.93,-451.557 2331.27,-371.168 2355.16,-334.415"/>
<polygon fill="midnightblue" stroke="midnightblue" points="2358.37,-335.917 2361.03,-325.661 2352.56,-332.02 2358.37,-335.917"/>
</g>
<!-- Node4 -->
<g id="node9" class="node"><title>Node4</title>
<a xlink:href="interval_8h.html" target="_top" xlink:title="base/interval.h">
<polygon fill="white" stroke="black" points="2691.75,-174.5 2691.75,-195.5 2771.75,-195.5 2771.75,-174.5 2691.75,-174.5"/>
<text text-anchor="middle" x="2731.75" y="-182.5" font-family="Helvetica,sans-Serif" font-size="10.00">base/interval.h</text>
</a>
</g>
<!-- Node3&#45;&gt;Node4 -->
<g id="edge8" class="edge"><title>Node3&#45;&gt;Node4</title>
<path fill="none" stroke="midnightblue" d="M2877.73,-304.391C2877.12,-287.067 2873.46,-252.575 2854.75,-232 2844.21,-220.415 2809.72,-207.768 2779.93,-198.514"/>
<polygon fill="midnightblue" stroke="midnightblue" points="2780.64,-195.07 2770.05,-195.512 2778.61,-201.768 2780.64,-195.07"/>
</g>
<!-- Node12 -->
<g id="node25" class="node"><title>Node12</title>
<a xlink:href="_bin_settings_8h.html" target="_top" xlink:title="base/BinSettings.h">
<polygon fill="white" stroke="black" points="2901.25,-239.5 2901.25,-260.5 3000.25,-260.5 3000.25,-239.5 2901.25,-239.5"/>
<text text-anchor="middle" x="2950.75" y="-247.5" font-family="Helvetica,sans-Serif" font-size="10.00">base/BinSettings.h</text>
</a>
</g>
<!-- Node3&#45;&gt;Node12 -->
<g id="edge24" class="edge"><title>Node3&#45;&gt;Node12</title>
<path fill="none" stroke="midnightblue" d="M2889.8,-304.267C2901.07,-294.233 2918.09,-279.078 2931.28,-267.331"/>
<polygon fill="midnightblue" stroke="midnightblue" points="2933.78,-269.798 2938.92,-260.534 2929.12,-264.57 2933.78,-269.798"/>
</g>
<!-- Node13 -->
<g id="node28" class="node"><title>Node13</title>
<polygon fill="white" stroke="#bfbfbf" points="1277.75,-58.5 1277.75,-79.5 1321.75,-79.5 1321.75,-58.5 1277.75,-58.5"/>
<text text-anchor="middle" x="1299.75" y="-66.5" font-family="Helvetica,sans-Serif" font-size="10.00">vector</text>
</g>
<!-- Node3&#45;&gt;Node13 -->
<g id="edge38" class="edge"><title>Node3&#45;&gt;Node13</title>
<path fill="none" stroke="midnightblue" d="M2841.28,-304.469C2811.71,-295.62 2769.11,-282.177 2732.75,-268 2615.33,-222.226 2586.98,-205.801 2480.75,-138 2465.89,-128.517 2464.51,-121.452 2447.75,-116 2339.29,-80.7227 1508.32,-70.9651 1332.4,-69.2857"/>
<polygon fill="midnightblue" stroke="midnightblue" points="1332.26,-65.7844 1322.23,-69.1907 1332.19,-72.784 1332.26,-65.7844"/>
</g>
<!-- Node3&#45;&gt;Node15 -->
<g id="edge36" class="edge"><title>Node3&#45;&gt;Node15</title>
<path fill="none" stroke="midnightblue" d="M2943.2,-304.477C2983.43,-296.523 3029.54,-284.202 3041.75,-268 3068.4,-232.642 3055.41,-176.9 3045.48,-147.201"/>
<polygon fill="midnightblue" stroke="midnightblue" points="3048.69,-145.773 3042.04,-137.523 3042.09,-148.118 3048.69,-145.773"/>
</g>
<!-- Node5 -->
<g id="node11" class="node"><title>Node5</title>
<a xlink:href="types_8h.html" target="_top" xlink:title="types.h">
<polygon fill="white" stroke="black" points="1903.25,-116.5 1903.25,-137.5 1952.25,-137.5 1952.25,-116.5 1903.25,-116.5"/>
<text text-anchor="middle" x="1927.75" y="-124.5" font-family="Helvetica,sans-Serif" font-size="10.00">types.h</text>
</a>
</g>
<!-- Node4&#45;&gt;Node5 -->
<g id="edge10" class="edge"><title>Node4&#45;&gt;Node5</title>
<path fill="none" stroke="midnightblue" d="M2691.73,-175.474C2688.7,-174.919 2685.68,-174.418 2682.75,-174 2540.79,-153.778 2091.69,-133.858 1962.7,-128.438"/>
<polygon fill="midnightblue" stroke="midnightblue" points="1962.74,-124.936 1952.6,-128.015 1962.44,-131.93 1962.74,-124.936"/>
</g>
<!-- Node6 -->
<g id="node13" class="node"><title>Node6</title>
<polygon fill="white" stroke="#bfbfbf" points="1581.75,-116.5 1581.75,-137.5 1637.75,-137.5 1637.75,-116.5 1581.75,-116.5"/>
<text text-anchor="middle" x="1609.75" y="-124.5" font-family="Helvetica,sans-Serif" font-size="10.00">algorithm</text>
</g>
<!-- Node4&#45;&gt;Node6 -->
<g id="edge12" class="edge"><title>Node4&#45;&gt;Node6</title>
<path fill="none" stroke="midnightblue" d="M2691.74,-175.413C2688.71,-174.872 2685.69,-174.391 2682.75,-174 2630.51,-167.048 1833.48,-135.711 1648.08,-128.488"/>
<polygon fill="midnightblue" stroke="midnightblue" points="1648.11,-124.987 1637.98,-128.095 1647.84,-131.982 1648.11,-124.987"/>
</g>
<!-- Node7 -->
<g id="node15" class="node"><title>Node7</title>
<polygon fill="white" stroke="#bfbfbf" points="2380.25,-116.5 2380.25,-137.5 2439.25,-137.5 2439.25,-116.5 2380.25,-116.5"/>
<text text-anchor="middle" x="2409.75" y="-124.5" font-family="Helvetica,sans-Serif" font-size="10.00">stdexcept</text>
</g>
<!-- Node4&#45;&gt;Node7 -->
<g id="edge14" class="edge"><title>Node4&#45;&gt;Node7</title>
<path fill="none" stroke="midnightblue" d="M2691.67,-175.831C2688.65,-175.194 2685.66,-174.576 2682.75,-174 2600.04,-157.608 2502.58,-141.626 2449.36,-133.179"/>
<polygon fill="midnightblue" stroke="midnightblue" points="2449.75,-129.697 2439.33,-131.592 2448.66,-136.611 2449.75,-129.697"/>
</g>
<!-- Node8 -->
<g id="node17" class="node"><title>Node8</title>
<polygon fill="white" stroke="#bfbfbf" points="2484.75,-58.5 2484.75,-79.5 2524.75,-79.5 2524.75,-58.5 2484.75,-58.5"/>
<text text-anchor="middle" x="2504.75" y="-66.5" font-family="Helvetica,sans-Serif" font-size="10.00">limits</text>
</g>
<!-- Node4&#45;&gt;Node8 -->
<g id="edge16" class="edge"><title>Node4&#45;&gt;Node8</title>
<path fill="none" stroke="midnightblue" d="M2714.91,-174.276C2692.34,-160.102 2650.81,-134.739 2613.75,-116 2587.43,-102.695 2556.48,-89.5805 2534.3,-80.5997"/>
<polygon fill="midnightblue" stroke="midnightblue" points="2535.36,-77.2527 2524.77,-76.7785 2532.75,-83.7496 2535.36,-77.2527"/>
</g>
<!-- Node9 -->
<g id="node19" class="node"><title>Node9</title>
<polygon fill="white" stroke="#bfbfbf" points="2734.25,-116.5 2734.25,-137.5 2783.25,-137.5 2783.25,-116.5 2734.25,-116.5"/>
<text text-anchor="middle" x="2758.75" y="-124.5" font-family="Helvetica,sans-Serif" font-size="10.00">istream</text>
</g>
<!-- Node4&#45;&gt;Node9 -->
<g id="edge18" class="edge"><title>Node4&#45;&gt;Node9</title>
<path fill="none" stroke="midnightblue" d="M2736.7,-174.362C2740.28,-166.677 2745.22,-156.069 2749.51,-146.84"/>
<polygon fill="midnightblue" stroke="midnightblue" points="2752.78,-148.114 2753.83,-137.571 2746.43,-145.159 2752.78,-148.114"/>
</g>
<!-- Node10 -->
<g id="node21" class="node"><title>Node10</title>
<polygon fill="white" stroke="#bfbfbf" points="938.747,-116.5 938.747,-137.5 990.747,-137.5 990.747,-116.5 938.747,-116.5"/>
<text text-anchor="middle" x="964.747" y="-124.5" font-family="Helvetica,sans-Serif" font-size="10.00">sstream</text>
</g>
<!-- Node4&#45;&gt;Node10 -->
<g id="edge20" class="edge"><title>Node4&#45;&gt;Node10</title>
<path fill="none" stroke="midnightblue" d="M2691.48,-175.293C2688.54,-174.788 2685.6,-174.348 2682.75,-174 2314.67,-129.203 1385.4,-197.468 1001.02,-137.722"/>
<polygon fill="midnightblue" stroke="midnightblue" points="1001.36,-134.231 990.927,-136.103 1000.25,-141.143 1001.36,-134.231"/>
</g>
<!-- Node11 -->
<g id="node23" class="node"><title>Node11</title>
<polygon fill="white" stroke="#bfbfbf" points="318.747,-0.5 318.747,-21.5 362.747,-21.5 362.747,-0.5 318.747,-0.5"/>
<text text-anchor="middle" x="340.747" y="-8.5" font-family="Helvetica,sans-Serif" font-size="10.00">cmath</text>
</g>
<!-- Node4&#45;&gt;Node11 -->
<g id="edge22" class="edge"><title>Node4&#45;&gt;Node11</title>
<path fill="none" stroke="midnightblue" d="M2726.6,-174.164C2713.63,-148.293 2676.82,-83.2027 2623.75,-58 2570.52,-32.7236 645.886,-13.848 372.838,-11.2949"/>
<polygon fill="midnightblue" stroke="midnightblue" points="372.82,-7.79469 362.787,-11.2014 372.754,-14.7944 372.82,-7.79469"/>
</g>
<!-- Node12&#45;&gt;Node4 -->
<g id="edge26" class="edge"><title>Node12&#45;&gt;Node4</title>
<path fill="none" stroke="midnightblue" d="M2915.07,-239.412C2877.45,-228.246 2818.06,-210.619 2777.13,-198.47"/>
<polygon fill="midnightblue" stroke="midnightblue" points="2777.99,-195.074 2767.41,-195.584 2776,-201.784 2777.99,-195.074"/>
</g>
<!-- Node12&#45;&gt;Node7 -->
<g id="edge30" class="edge"><title>Node12&#45;&gt;Node7</title>
<path fill="none" stroke="midnightblue" d="M2927.68,-239.473C2883,-219.11 2788.34,-176.126 2780.75,-174 2663.55,-141.159 2519.04,-131.212 2450.08,-128.241"/>
<polygon fill="midnightblue" stroke="midnightblue" points="2449.8,-124.727 2439.67,-127.821 2449.52,-131.721 2449.8,-124.727"/>
</g>
<!-- Node12&#45;&gt;Node9 -->
<g id="edge32" class="edge"><title>Node12&#45;&gt;Node9</title>
<path fill="none" stroke="midnightblue" d="M2934.04,-239.3C2900.27,-217.664 2823.71,-168.614 2783.88,-143.098"/>
<polygon fill="midnightblue" stroke="midnightblue" points="2785.58,-140.035 2775.27,-137.588 2781.81,-145.929 2785.58,-140.035"/>
</g>
<!-- Node12&#45;&gt;Node13 -->
<g id="edge28" class="edge"><title>Node12&#45;&gt;Node13</title>
<path fill="none" stroke="midnightblue" d="M2942.61,-239.17C2921.42,-211.987 2861.31,-141.246 2791.75,-116 2720.81,-90.2563 1543.56,-72.4468 1332.13,-69.4484"/>
<polygon fill="midnightblue" stroke="midnightblue" points="1332.04,-65.9468 1321.99,-69.3054 1331.94,-72.9461 1332.04,-65.9468"/>
</g>
<!-- Node14 -->
<g id="node32" class="node"><title>Node14</title>
<polygon fill="white" stroke="#bfbfbf" points="2562.75,-58.5 2562.75,-79.5 2614.75,-79.5 2614.75,-58.5 2562.75,-58.5"/>
<text text-anchor="middle" x="2588.75" y="-66.5" font-family="Helvetica,sans-Serif" font-size="10.00">ostream</text>
</g>
<!-- Node12&#45;&gt;Node14 -->
<g id="edge34" class="edge"><title>Node12&#45;&gt;Node14</title>
<path fill="none" stroke="midnightblue" d="M2952.62,-239.434C2956.46,-214.061 2962.17,-149.332 2927.75,-116 2906.21,-95.1412 2707.85,-77.954 2624.92,-71.6179"/>
<polygon fill="midnightblue" stroke="midnightblue" points="2625.17,-68.127 2614.94,-70.865 2624.65,-75.1072 2625.17,-68.127"/>
</g>
<!-- Node16&#45;&gt;Node12 -->
<g id="edge52" class="edge"><title>Node16&#45;&gt;Node12</title>
<path fill="none" stroke="midnightblue" d="M2610.35,-305.282C2613.19,-304.849 2616,-304.42 2618.75,-304 2723.63,-287.988 2750.15,-285.779 2854.75,-268 2866.5,-266.002 2879.04,-263.744 2891.05,-261.519"/>
<polygon fill="midnightblue" stroke="midnightblue" points="2891.79,-264.941 2900.98,-259.664 2890.51,-258.06 2891.79,-264.941"/>
</g>
<!-- Node16&#45;&gt;Node13 -->
<g id="edge46" class="edge"><title>Node16&#45;&gt;Node13</title>
<path fill="none" stroke="midnightblue" d="M2483.1,-308.123C2467.92,-306.625 2451.77,-305.147 2436.75,-304 2361.08,-298.223 1819.07,-308.265 1754.75,-268 1689.32,-227.044 1734.63,-159.325 1670.75,-116 1615.84,-78.7575 1412.12,-71.0241 1332.21,-69.4195"/>
<polygon fill="midnightblue" stroke="midnightblue" points="1331.85,-65.9125 1321.79,-69.2314 1331.72,-72.9113 1331.85,-65.9125"/>
</g>
<!-- Node16&#45;&gt;Node15 -->
<g id="edge42" class="edge"><title>Node16&#45;&gt;Node15</title>
<path fill="none" stroke="midnightblue" d="M2610.32,-305.077C2613.17,-304.699 2615.99,-304.338 2618.75,-304 2705.14,-293.423 2943.89,-326.041 3008.75,-268 3042.58,-237.72 3043,-179.399 3040.39,-148.091"/>
<polygon fill="midnightblue" stroke="midnightblue" points="3043.84,-147.474 3039.35,-137.881 3036.88,-148.185 3043.84,-147.474"/>
</g>
<!-- Node16&#45;&gt;Node17 -->
<g id="edge44" class="edge"><title>Node16&#45;&gt;Node17</title>
<path fill="none" stroke="midnightblue" d="M2499.67,-304.484C2437.01,-290.488 2328.5,-266.251 2280.18,-255.458"/>
<polygon fill="midnightblue" stroke="midnightblue" points="2280.82,-252.014 2270.3,-253.25 2279.29,-258.846 2280.82,-252.014"/>
</g>
<!-- Node16&#45;&gt;Node18 -->
<g id="edge48" class="edge"><title>Node16&#45;&gt;Node18</title>
<path fill="none" stroke="midnightblue" d="M2544.5,-304.497C2540.11,-286.687 2528.68,-250.682 2504.75,-232 2497.98,-226.719 2391.42,-204.23 2333.91,-192.378"/>
<polygon fill="midnightblue" stroke="midnightblue" points="2334.61,-188.949 2324.11,-190.364 2333.2,-195.806 2334.61,-188.949"/>
</g>
<!-- Node16&#45;&gt;Node19 -->
<g id="edge50" class="edge"><title>Node16&#45;&gt;Node19</title>
<path fill="none" stroke="midnightblue" d="M2548.92,-304.461C2551.82,-287.236 2554.8,-252.883 2537.75,-232 2530.74,-223.42 2471.45,-206.313 2430.34,-195.276"/>
<polygon fill="midnightblue" stroke="midnightblue" points="2431.15,-191.869 2420.59,-192.678 2429.35,-198.633 2431.15,-191.869"/>
</g>
<!-- Node20 -->
<g id="node48" class="node"><title>Node20</title>
<polygon fill="white" stroke="#bfbfbf" points="2439.75,-239.5 2439.75,-260.5 2495.75,-260.5 2495.75,-239.5 2439.75,-239.5"/>
<text text-anchor="middle" x="2467.75" y="-247.5" font-family="Helvetica,sans-Serif" font-size="10.00">Rtypes.h</text>
</g>
<!-- Node16&#45;&gt;Node20 -->
<g id="edge54" class="edge"><title>Node16&#45;&gt;Node20</title>
<path fill="none" stroke="midnightblue" d="M2533.7,-304.267C2521.39,-294.139 2502.74,-278.792 2488.41,-267"/>
<polygon fill="midnightblue" stroke="midnightblue" points="2490.5,-264.185 2480.55,-260.534 2486.05,-269.59 2490.5,-264.185"/>
</g>
<!-- Node24&#45;&gt;Node7 -->
<g id="edge68" class="edge"><title>Node24&#45;&gt;Node7</title>
<path fill="none" stroke="midnightblue" d="M2656.07,-304.285C2640.8,-287.699 2609.73,-255.296 2579.75,-232 2533.3,-195.915 2473.8,-161.568 2438.92,-142.487"/>
<polygon fill="midnightblue" stroke="midnightblue" points="2440.22,-139.213 2429.76,-137.522 2436.88,-145.366 2440.22,-139.213"/>
</g>
<!-- Node24&#45;&gt;Node18 -->
<g id="edge66" class="edge"><title>Node24&#45;&gt;Node18</title>
<path fill="none" stroke="midnightblue" d="M2652.16,-304.261C2628.9,-286.427 2579.34,-250.809 2531.75,-232 2531.17,-231.771 2399.54,-205.389 2333.98,-192.256"/>
<polygon fill="midnightblue" stroke="midnightblue" points="2334.55,-188.801 2324.06,-190.269 2333.17,-195.665 2334.55,-188.801"/>
</g>
<!-- Node24&#45;&gt;Node20 -->
<g id="edge64" class="edge"><title>Node24&#45;&gt;Node20</title>
<path fill="none" stroke="midnightblue" d="M2633.49,-304.412C2598.54,-292.936 2542.8,-274.637 2505.74,-262.473"/>
<polygon fill="midnightblue" stroke="midnightblue" points="2506.41,-259.009 2495.82,-259.216 2504.23,-265.66 2506.41,-259.009"/>
</g>
<!-- Node26 -->
<g id="node63" class="node"><title>Node26</title>
<a xlink:href="_t_i_d_8h.html" target="_top" xlink:title="TID.h">
<polygon fill="white" stroke="black" points="870.247,-304.5 870.247,-325.5 911.247,-325.5 911.247,-304.5 870.247,-304.5"/>
<text text-anchor="middle" x="890.747" y="-312.5" font-family="Helvetica,sans-Serif" font-size="10.00">TID.h</text>
</a>
</g>
<!-- Node25&#45;&gt;Node26 -->
<g id="edge72" class="edge"><title>Node25&#45;&gt;Node26</title>
<path fill="none" stroke="midnightblue" d="M1043.25,-478.412C1007.14,-463.091 944.288,-431.295 909.747,-384 899.47,-369.927 894.751,-350.564 892.584,-335.932"/>
<polygon fill="midnightblue" stroke="midnightblue" points="896.039,-335.343 891.376,-325.83 889.089,-336.175 896.039,-335.343"/>
</g>
<!-- Node35 -->
<g id="node89" class="node"><title>Node35</title>
<a xlink:href="_t_detector_read_hit_8h.html" target="_top" xlink:title="TDetectorReadHit.h">
<polygon fill="white" stroke="black" points="299.747,-239.5 299.747,-260.5 403.747,-260.5 403.747,-239.5 299.747,-239.5"/>
<text text-anchor="middle" x="351.747" y="-247.5" font-family="Helvetica,sans-Serif" font-size="10.00">TDetectorReadHit.h</text>
</a>
</g>
<!-- Node25&#45;&gt;Node35 -->
<g id="edge106" class="edge"><title>Node25&#45;&gt;Node35</title>
<path fill="none" stroke="midnightblue" d="M1022.18,-485.305C822.397,-469.615 71.2945,-405.649 4.74739,-326 -1.52181,-318.497 -1.61279,-311.427 4.74739,-304 23.0184,-282.666 194.801,-264.064 289.612,-255.316"/>
<polygon fill="midnightblue" stroke="midnightblue" points="290.018,-258.794 299.658,-254.4 289.382,-251.823 290.018,-258.794"/>
</g>
<!-- Node42 -->
<g id="node116" class="node"><title>Node42</title>
<a xlink:href="_t_slow_control_8h.html" target="_top" xlink:title="TSlowControl.h">
<polygon fill="white" stroke="black" points="918.747,-362.5 918.747,-383.5 1002.75,-383.5 1002.75,-362.5 918.747,-362.5"/>
<text text-anchor="middle" x="960.747" y="-370.5" font-family="Helvetica,sans-Serif" font-size="10.00">TSlowControl.h</text>
</a>
</g>
<!-- Node25&#45;&gt;Node42 -->
<g id="edge146" class="edge"><title>Node25&#45;&gt;Node42</title>
<path fill="none" stroke="midnightblue" d="M1060.6,-478.295C1041.77,-458.441 1001.25,-415.709 978.029,-391.224"/>
<polygon fill="midnightblue" stroke="midnightblue" points="980.295,-388.527 970.874,-383.679 975.215,-393.344 980.295,-388.527"/>
</g>
<!-- Node43 -->
<g id="node122" class="node"><title>Node43</title>
<a xlink:href="_t_unpacker_message_8h.html" target="_top" xlink:title="TUnpackerMessage.h">
<polygon fill="white" stroke="black" points="1327.25,-174.5 1327.25,-195.5 1440.25,-195.5 1440.25,-174.5 1327.25,-174.5"/>
<text text-anchor="middle" x="1383.75" y="-182.5" font-family="Helvetica,sans-Serif" font-size="10.00">TUnpackerMessage.h</text>
</a>
</g>
<!-- Node25&#45;&gt;Node43 -->
<g id="edge156" class="edge"><title>Node25&#45;&gt;Node43</title>
<path fill="none" stroke="midnightblue" d="M1087.07,-478.314C1112.76,-460.055 1159.75,-420.213 1159.75,-373 1159.75,-373 1159.75,-373 1159.75,-315 1159.75,-241.439 1251.23,-208.806 1317.27,-194.832"/>
<polygon fill="midnightblue" stroke="midnightblue" points="1318.11,-198.233 1327.22,-192.825 1316.73,-191.371 1318.11,-198.233"/>
</g>
<!-- Node46 -->
<g id="node130" class="node"><title>Node46</title>
<a xlink:href="_t_tagger_hit_8h.html" target="_top" xlink:title="TTaggerHit.h">
<polygon fill="white" stroke="black" points="503.747,-362.5 503.747,-383.5 577.747,-383.5 577.747,-362.5 503.747,-362.5"/>
<text text-anchor="middle" x="540.747" y="-370.5" font-family="Helvetica,sans-Serif" font-size="10.00">TTaggerHit.h</text>
</a>
</g>
<!-- Node25&#45;&gt;Node46 -->
<g id="edge166" class="edge"><title>Node25&#45;&gt;Node46</title>
<path fill="none" stroke="midnightblue" d="M1022.23,-486.385C953.035,-481.807 822.446,-470.005 714.747,-442 663.079,-428.565 606.068,-403.958 571.85,-388.05"/>
<polygon fill="midnightblue" stroke="midnightblue" points="572.949,-384.699 562.41,-383.613 569.971,-391.034 572.949,-384.699"/>
</g>
<!-- Node48 -->
<g id="node139" class="node"><title>Node48</title>
<a xlink:href="_t_trigger_8h.html" target="_top" xlink:title="TTrigger.h">
<polygon fill="white" stroke="black" points="1763.25,-239.5 1763.25,-260.5 1824.25,-260.5 1824.25,-239.5 1763.25,-239.5"/>
<text text-anchor="middle" x="1793.75" y="-247.5" font-family="Helvetica,sans-Serif" font-size="10.00">TTrigger.h</text>
</a>
</g>
<!-- Node25&#45;&gt;Node48 -->
<g id="edge180" class="edge"><title>Node25&#45;&gt;Node48</title>
<path fill="none" stroke="midnightblue" d="M1102.75,-478.422C1219.67,-439.77 1623.71,-306.207 1753.36,-263.349"/>
<polygon fill="midnightblue" stroke="midnightblue" points="1754.53,-266.65 1762.93,-260.188 1752.34,-260.003 1754.53,-266.65"/>
</g>
<!-- Node49 -->
<g id="node145" class="node"><title>Node49</title>
<a xlink:href="_t_target_8h.html" target="_top" xlink:title="TTarget.h">
<polygon fill="white" stroke="black" points="1244.25,-304.5 1244.25,-325.5 1303.25,-325.5 1303.25,-304.5 1244.25,-304.5"/>
<text text-anchor="middle" x="1273.75" y="-312.5" font-family="Helvetica,sans-Serif" font-size="10.00">TTarget.h</text>
</a>
</g>
<!-- Node25&#45;&gt;Node49 -->
<g id="edge190" class="edge"><title>Node25&#45;&gt;Node49</title>
<path fill="none" stroke="midnightblue" d="M1104.04,-478.413C1125.38,-470.567 1152.88,-458.393 1173.75,-442 1213.05,-411.118 1246.08,-361.726 1262.53,-334.533"/>
<polygon fill="midnightblue" stroke="midnightblue" points="1265.74,-335.983 1267.82,-325.595 1259.71,-332.416 1265.74,-335.983"/>
</g>
<!-- Node50 -->
<g id="node152" class="node"><title>Node50</title>
<a xlink:href="_t_cluster_8h.html" target="_top" xlink:title="TCluster.h">
<polygon fill="white" stroke="black" points="417.747,-304.5 417.747,-325.5 479.747,-325.5 479.747,-304.5 417.747,-304.5"/>
<text text-anchor="middle" x="448.747" y="-312.5" font-family="Helvetica,sans-Serif" font-size="10.00">TCluster.h</text>
</a>
</g>
<!-- Node25&#45;&gt;Node50 -->
<g id="edge202" class="edge"><title>Node25&#45;&gt;Node50</title>
<path fill="none" stroke="midnightblue" d="M1032.77,-478.377C922.553,-447.544 603.198,-358.206 489.519,-326.406"/>
<polygon fill="midnightblue" stroke="midnightblue" points="490.373,-323.01 479.799,-323.687 488.487,-329.751 490.373,-323.01"/>
</g>
<!-- Node52 -->
<g id="node169" class="node"><title>Node52</title>
<a xlink:href="_t_candidate_8h.html" target="_top" xlink:title="TCandidate.h">
<polygon fill="white" stroke="black" points="1033.25,-362.5 1033.25,-383.5 1108.25,-383.5 1108.25,-362.5 1033.25,-362.5"/>
<text text-anchor="middle" x="1070.75" y="-370.5" font-family="Helvetica,sans-Serif" font-size="10.00">TCandidate.h</text>
</a>
</g>
<!-- Node25&#45;&gt;Node52 -->
<g id="edge232" class="edge"><title>Node25&#45;&gt;Node52</title>
<path fill="none" stroke="midnightblue" d="M1070.75,-478.295C1070.75,-459.131 1070.75,-418.654 1070.75,-393.843"/>
<polygon fill="midnightblue" stroke="midnightblue" points="1074.25,-393.679 1070.75,-383.679 1067.25,-393.679 1074.25,-393.679"/>
</g>
<!-- Node53 -->
<g id="node178" class="node"><title>Node53</title>
<a xlink:href="_t_particle_8h.html" target="_top" xlink:title="TParticle.h">
<polygon fill="white" stroke="black" points="1920.75,-420.5 1920.75,-441.5 1984.75,-441.5 1984.75,-420.5 1920.75,-420.5"/>
<text text-anchor="middle" x="1952.75" y="-428.5" font-family="Helvetica,sans-Serif" font-size="10.00">TParticle.h</text>
</a>
</g>
<!-- Node25&#45;&gt;Node53 -->
<g id="edge248" class="edge"><title>Node25&#45;&gt;Node53</title>
<path fill="none" stroke="midnightblue" d="M1119.42,-485.799C1275.68,-475.524 1762.95,-443.481 1910.19,-433.799"/>
<polygon fill="midnightblue" stroke="midnightblue" points="1910.84,-437.263 1920.59,-433.115 1910.38,-430.278 1910.84,-437.263"/>
</g>
<!-- Node26&#45;&gt;Node7 -->
<g id="edge98" class="edge"><title>Node26&#45;&gt;Node7</title>
<path fill="none" stroke="midnightblue" d="M911.518,-314.442C994.288,-312.032 1308.53,-301.09 1564.75,-268 1649.99,-256.992 1670.09,-246.804 1754.75,-232 1987.31,-191.336 2267.42,-148.468 2369.8,-133.001"/>
<polygon fill="midnightblue" stroke="midnightblue" points="2370.63,-136.416 2379.99,-131.463 2369.58,-129.494 2370.63,-136.416"/>
</g>
<!-- Node26&#45;&gt;Node17 -->
<g id="edge100" class="edge"><title>Node26&#45;&gt;Node17</title>
<path fill="none" stroke="midnightblue" d="M911.457,-314.326C1075.66,-308.97 2161.68,-273.387 2194.75,-268 2206.97,-266.009 2220.19,-262.307 2231.19,-258.777"/>
<polygon fill="midnightblue" stroke="midnightblue" points="2232.58,-262.002 2240.95,-255.505 2230.36,-255.365 2232.58,-262.002"/>
</g>
<!-- Node26&#45;&gt;Node20 -->
<g id="edge74" class="edge"><title>Node26&#45;&gt;Node20</title>
<path fill="none" stroke="midnightblue" d="M911.372,-314.338C1078.55,-308.965 2207.47,-272.597 2278.75,-268 2331.06,-264.626 2391.32,-258.497 2429.47,-254.338"/>
<polygon fill="midnightblue" stroke="midnightblue" points="2430.06,-257.794 2439.61,-253.221 2429.29,-250.836 2430.06,-257.794"/>
</g>
<!-- Node27 -->
<g id="node66" class="node"><title>Node27</title>
<a xlink:href="base_2std__ext_2_time_8h.html" target="_top" xlink:title="base/std_ext/time.h">
<polygon fill="white" stroke="black" points="839.247,-239.5 839.247,-260.5 942.247,-260.5 942.247,-239.5 839.247,-239.5"/>
<text text-anchor="middle" x="890.747" y="-247.5" font-family="Helvetica,sans-Serif" font-size="10.00">base/std_ext/time.h</text>
</a>
</g>
<!-- Node26&#45;&gt;Node27 -->
<g id="edge76" class="edge"><title>Node26&#45;&gt;Node27</title>
<path fill="none" stroke="midnightblue" d="M890.747,-304.267C890.747,-295.18 890.747,-281.892 890.747,-270.74"/>
<polygon fill="midnightblue" stroke="midnightblue" points="894.247,-270.534 890.747,-260.534 887.247,-270.534 894.247,-270.534"/>
</g>
<!-- Node30 -->
<g id="node76" class="node"><title>Node30</title>
<polygon fill="white" stroke="#bfbfbf" points="795.247,-174.5 795.247,-195.5 836.247,-195.5 836.247,-174.5 795.247,-174.5"/>
<text text-anchor="middle" x="815.747" y="-182.5" font-family="Helvetica,sans-Serif" font-size="10.00">ctime</text>
</g>
<!-- Node26&#45;&gt;Node30 -->
<g id="edge104" class="edge"><title>Node26&#45;&gt;Node30</title>
<path fill="none" stroke="midnightblue" d="M870.556,-304.392C857.117,-296.254 840.244,-283.751 830.747,-268 819.281,-248.982 816.136,-223.368 815.477,-205.648"/>
<polygon fill="midnightblue" stroke="midnightblue" points="818.975,-205.479 815.338,-195.528 811.976,-205.575 818.975,-205.479"/>
</g>
<!-- Node31 -->
<g id="node78" class="node"><title>Node31</title>
<polygon fill="white" stroke="#bfbfbf" points="707.747,-116.5 707.747,-137.5 769.747,-137.5 769.747,-116.5 707.747,-116.5"/>
<text text-anchor="middle" x="738.747" y="-124.5" font-family="Helvetica,sans-Serif" font-size="10.00">type_traits</text>
</g>
<!-- Node26&#45;&gt;Node31 -->
<g id="edge92" class="edge"><title>Node26&#45;&gt;Node31</title>
<path fill="none" stroke="midnightblue" d="M870.025,-306.131C853.212,-298.117 829.753,-284.982 813.747,-268 779.534,-231.7 756.368,-176.785 745.619,-147.346"/>
<polygon fill="midnightblue" stroke="midnightblue" points="748.855,-145.997 742.223,-137.734 742.254,-148.329 748.855,-145.997"/>
</g>
<!-- Node32 -->
<g id="node80" class="node"><title>Node32</title>
<polygon fill="white" stroke="#bfbfbf" points="917.747,-174.5 917.747,-195.5 955.747,-195.5 955.747,-174.5 917.747,-174.5"/>
<text text-anchor="middle" x="936.747" y="-182.5" font-family="Helvetica,sans-Serif" font-size="10.00">tuple</text>
</g>
<!-- Node26&#45;&gt;Node32 -->
<g id="edge94" class="edge"><title>Node26&#45;&gt;Node32</title>
<path fill="none" stroke="midnightblue" d="M911.248,-305.223C925.207,-297.328 942.579,-284.774 950.747,-268 960.534,-247.901 953.625,-222.185 946.48,-204.742"/>
<polygon fill="midnightblue" stroke="midnightblue" points="949.641,-203.238 942.369,-195.533 943.249,-206.091 949.641,-203.238"/>
</g>
<!-- Node33 -->
<g id="node82" class="node"><title>Node33</title>
<polygon fill="white" stroke="#bfbfbf" points="351.747,-116.5 351.747,-137.5 397.747,-137.5 397.747,-116.5 351.747,-116.5"/>
<text text-anchor="middle" x="374.747" y="-124.5" font-family="Helvetica,sans-Serif" font-size="10.00">cstdint</text>
</g>
<!-- Node26&#45;&gt;Node33 -->
<g id="edge96" class="edge"><title>Node26&#45;&gt;Node33</title>
<path fill="none" stroke="midnightblue" d="M869.911,-313.117C803.871,-306.407 594.849,-279.425 446.747,-196 423.837,-183.095 402.77,-161.217 389.422,-145.554"/>
<polygon fill="midnightblue" stroke="midnightblue" points="391.906,-143.067 382.838,-137.589 386.511,-147.527 391.906,-143.067"/>
</g>
<!-- Node34 -->
<g id="node86" class="node"><title>Node34</title>
<polygon fill="white" stroke="#bfbfbf" points="261.747,-174.5 261.747,-195.5 311.747,-195.5 311.747,-174.5 261.747,-174.5"/>
<text text-anchor="middle" x="286.747" y="-182.5" font-family="Helvetica,sans-Serif" font-size="10.00">iomanip</text>
</g>
<!-- Node26&#45;&gt;Node34 -->
<g id="edge102" class="edge"><title>Node26&#45;&gt;Node34</title>
<path fill="none" stroke="midnightblue" d="M869.852,-313.704C814.231,-309.947 658.178,-297.391 531.747,-268 490.895,-258.503 379.229,-218.679 321.833,-197.838"/>
<polygon fill="midnightblue" stroke="midnightblue" points="322.702,-194.43 312.108,-194.301 320.309,-201.009 322.702,-194.43"/>
</g>
<!-- Node28 -->
<g id="node68" class="node"><title>Node28</title>
<a xlink:href="string_8h.html" target="_top" xlink:title="base/std_ext/string.h">
<polygon fill="white" stroke="black" points="1163.75,-174.5 1163.75,-195.5 1271.75,-195.5 1271.75,-174.5 1163.75,-174.5"/>
<text text-anchor="middle" x="1217.75" y="-182.5" font-family="Helvetica,sans-Serif" font-size="10.00">base/std_ext/string.h</text>
</a>
</g>
<!-- Node27&#45;&gt;Node28 -->
<g id="edge78" class="edge"><title>Node27&#45;&gt;Node28</title>
<path fill="none" stroke="midnightblue" d="M942.562,-239.701C1000.14,-228.256 1093.1,-209.776 1154.82,-197.509"/>
<polygon fill="midnightblue" stroke="midnightblue" points="1155.7,-200.903 1164.82,-195.521 1154.33,-194.037 1155.7,-200.903"/>
</g>
<!-- Node29 -->
<g id="node74" class="node"><title>Node29</title>
<polygon fill="white" stroke="#bfbfbf" points="853.747,-174.5 853.747,-195.5 899.747,-195.5 899.747,-174.5 853.747,-174.5"/>
<text text-anchor="middle" x="876.747" y="-182.5" font-family="Helvetica,sans-Serif" font-size="10.00">cstring</text>
</g>
<!-- Node27&#45;&gt;Node29 -->
<g id="edge88" class="edge"><title>Node27&#45;&gt;Node29</title>
<path fill="none" stroke="midnightblue" d="M888.436,-239.267C886.458,-230.085 883.557,-216.615 881.139,-205.392"/>
<polygon fill="midnightblue" stroke="midnightblue" points="884.543,-204.573 879.016,-195.534 877.7,-206.046 884.543,-204.573"/>
</g>
<!-- Node27&#45;&gt;Node30 -->
<g id="edge90" class="edge"><title>Node27&#45;&gt;Node30</title>
<path fill="none" stroke="midnightblue" d="M878.363,-239.267C866.786,-229.233 849.299,-214.078 835.745,-202.331"/>
<polygon fill="midnightblue" stroke="midnightblue" points="837.751,-199.438 827.902,-195.534 833.166,-204.728 837.751,-199.438"/>
</g>
<!-- Node28&#45;&gt;Node6 -->
<g id="edge84" class="edge"><title>Node28&#45;&gt;Node6</title>
<path fill="none" stroke="midnightblue" d="M1271.84,-176.996C1352.15,-165.114 1500.97,-143.095 1571.18,-132.707"/>
<polygon fill="midnightblue" stroke="midnightblue" points="1571.97,-136.128 1581.35,-131.202 1570.95,-129.203 1571.97,-136.128"/>
</g>
<!-- Node28&#45;&gt;Node10 -->
<g id="edge82" class="edge"><title>Node28&#45;&gt;Node10</title>
<path fill="none" stroke="midnightblue" d="M1163.67,-174.782C1121.6,-166.507 1061.62,-153.995 1000.81,-138.126"/>
<polygon fill="midnightblue" stroke="midnightblue" points="1001.61,-134.717 991.045,-135.551 999.821,-141.486 1001.61,-134.717"/>
</g>
<!-- Node28&#45;&gt;Node13 -->
<g id="edge86" class="edge"><title>Node28&#45;&gt;Node13</title>
<path fill="none" stroke="midnightblue" d="M1225.31,-174.295C1239.23,-154.613 1269.03,-112.45 1286.41,-87.8668"/>
<polygon fill="midnightblue" stroke="midnightblue" points="1289.28,-89.8653 1292.2,-79.6792 1283.57,-85.8247 1289.28,-89.8653"/>
</g>
<!-- Node28&#45;&gt;Node15 -->
<g id="edge80" class="edge"><title>Node28&#45;&gt;Node15</title>
<path fill="none" stroke="midnightblue" d="M1271.92,-178.251C1287.06,-176.598 1303.52,-175.013 1318.75,-174 1972.16,-130.51 2137.28,-160.628 2791.75,-138 2869.24,-135.321 2960.41,-130.916 3006.98,-128.576"/>
<polygon fill="midnightblue" stroke="midnightblue" points="3007.21,-132.069 3017.02,-128.069 3006.85,-125.078 3007.21,-132.069"/>
</g>
<!-- Node35&#45;&gt;Node10 -->
<g id="edge144" class="edge"><title>Node35&#45;&gt;Node10</title>
<path fill="none" stroke="midnightblue" d="M400.553,-239.498C470.346,-224.551 602.724,-196.464 715.747,-174 791.321,-158.979 880.039,-142.512 928.54,-133.608"/>
<polygon fill="midnightblue" stroke="midnightblue" points="929.34,-137.02 938.545,-131.774 928.078,-130.135 929.34,-137.02"/>
</g>
<!-- Node35&#45;&gt;Node34 -->
<g id="edge142" class="edge"><title>Node35&#45;&gt;Node34</title>
<path fill="none" stroke="midnightblue" d="M341.014,-239.267C331.075,-229.328 316.111,-214.363 304.412,-202.664"/>
<polygon fill="midnightblue" stroke="midnightblue" points="306.827,-200.13 297.281,-195.534 301.877,-205.08 306.827,-200.13"/>
</g>
<!-- Node36 -->
<g id="node91" class="node"><title>Node36</title>
<a xlink:href="_detector__t_8h.html" target="_top" xlink:title="base/Detector_t.h">
<polygon fill="white" stroke="black" points="455.247,-174.5 455.247,-195.5 550.247,-195.5 550.247,-174.5 455.247,-174.5"/>
<text text-anchor="middle" x="502.747" y="-182.5" font-family="Helvetica,sans-Serif" font-size="10.00">base/Detector_t.h</text>
</a>
</g>
<!-- Node35&#45;&gt;Node36 -->
<g id="edge108" class="edge"><title>Node35&#45;&gt;Node36</title>
<path fill="none" stroke="midnightblue" d="M376.344,-239.412C401.462,-228.6 440.65,-211.731 468.732,-199.642"/>
<polygon fill="midnightblue" stroke="midnightblue" points="470.36,-202.752 478.161,-195.584 467.592,-196.323 470.36,-202.752"/>
</g>
<!-- Node36&#45;&gt;Node7 -->
<g id="edge134" class="edge"><title>Node36&#45;&gt;Node7</title>
<path fill="none" stroke="midnightblue" d="M550.479,-183.009C606.907,-180.688 703.653,-176.812 786.747,-174 1418.27,-152.626 2188.22,-132.648 2369.98,-128.008"/>
<polygon fill="midnightblue" stroke="midnightblue" points="2370.23,-131.503 2380.14,-127.75 2370.05,-124.506 2370.23,-131.503"/>
</g>
<!-- Node36&#45;&gt;Node13 -->
<g id="edge140" class="edge"><title>Node36&#45;&gt;Node13</title>
<path fill="none" stroke="midnightblue" d="M504.556,-174.413C507.865,-158.66 516.514,-129.467 536.747,-116 544.478,-110.855 1122.42,-78.7527 1267.16,-70.7871"/>
<polygon fill="midnightblue" stroke="midnightblue" points="1267.78,-74.2584 1277.58,-70.2146 1267.4,-67.269 1267.78,-74.2584"/>
</g>
<!-- Node36&#45;&gt;Node15 -->
<g id="edge136" class="edge"><title>Node36&#45;&gt;Node15</title>
<path fill="none" stroke="midnightblue" d="M550.474,-182.849C606.897,-180.376 703.639,-176.355 786.747,-174 1677.64,-148.751 1900.93,-165.909 2791.75,-138 2869.25,-135.572 2960.41,-131.063 3006.98,-128.64"/>
<polygon fill="midnightblue" stroke="midnightblue" points="3007.22,-132.133 3017.02,-128.114 3006.85,-125.142 3007.22,-132.133"/>
</g>
<!-- Node36&#45;&gt;Node31 -->
<g id="edge138" class="edge"><title>Node36&#45;&gt;Node31</title>
<path fill="none" stroke="midnightblue" d="M545.485,-174.497C588.771,-163.859 655.247,-147.521 697.858,-137.049"/>
<polygon fill="midnightblue" stroke="midnightblue" points="698.746,-140.435 707.621,-134.65 697.075,-133.637 698.746,-140.435"/>
</g>
<!-- Node36&#45;&gt;Node33 -->
<g id="edge132" class="edge"><title>Node36&#45;&gt;Node33</title>
<path fill="none" stroke="midnightblue" d="M479.568,-174.497C459.269,-165.299 429.569,-151.841 406.961,-141.597"/>
<polygon fill="midnightblue" stroke="midnightblue" points="408.308,-138.365 397.755,-137.425 405.419,-144.741 408.308,-138.365"/>
</g>
<!-- Node37 -->
<g id="node93" class="node"><title>Node37</title>
<a xlink:href="bitflag_8h.html" target="_top" xlink:title="base/bitflag.h">
<polygon fill="white" stroke="black" points="415.247,-116.5 415.247,-137.5 490.247,-137.5 490.247,-116.5 415.247,-116.5"/>
<text text-anchor="middle" x="452.747" y="-124.5" font-family="Helvetica,sans-Serif" font-size="10.00">base/bitflag.h</text>
</a>
</g>
<!-- Node36&#45;&gt;Node37 -->
<g id="edge110" class="edge"><title>Node36&#45;&gt;Node37</title>
<path fill="none" stroke="midnightblue" d="M493.577,-174.362C486.599,-166.268 476.827,-154.932 468.592,-145.38"/>
<polygon fill="midnightblue" stroke="midnightblue" points="471.04,-142.859 461.86,-137.571 465.739,-147.43 471.04,-142.859"/>
</g>
<!-- Node39 -->
<g id="node97" class="node"><title>Node39</title>
<a xlink:href="vec3_8h.html" target="_top" xlink:title="base/vec/vec3.h">
<polygon fill="white" stroke="black" points="245.247,-116.5 245.247,-137.5 334.247,-137.5 334.247,-116.5 245.247,-116.5"/>
<text text-anchor="middle" x="289.747" y="-124.5" font-family="Helvetica,sans-Serif" font-size="10.00">base/vec/vec3.h</text>
</a>
</g>
<!-- Node36&#45;&gt;Node39 -->
<g id="edge114" class="edge"><title>Node36&#45;&gt;Node39</title>
<path fill="none" stroke="midnightblue" d="M464.175,-174.497C428.849,-164.877 376.409,-150.598 338.256,-140.209"/>
<polygon fill="midnightblue" stroke="midnightblue" points="338.961,-136.773 328.392,-137.523 337.122,-143.528 338.961,-136.773"/>
</g>
<!-- Node41 -->
<g id="node104" class="node"><title>Node41</title>
<a xlink:href="base_2std__ext_2math_8h.html" target="_top" xlink:title="base/std_ext/math.h">
<polygon fill="white" stroke="black" points="545.747,-116.5 545.747,-137.5 651.747,-137.5 651.747,-116.5 545.747,-116.5"/>
<text text-anchor="middle" x="598.747" y="-124.5" font-family="Helvetica,sans-Serif" font-size="10.00">base/std_ext/math.h</text>
</a>
</g>
<!-- Node36&#45;&gt;Node41 -->
<g id="edge124" class="edge"><title>Node36&#45;&gt;Node41</title>
<path fill="none" stroke="midnightblue" d="M520.355,-174.362C534.97,-165.532 555.971,-152.844 572.559,-142.822"/>
<polygon fill="midnightblue" stroke="midnightblue" points="574.502,-145.738 581.251,-137.571 570.882,-139.746 574.502,-145.738"/>
</g>
<!-- Node38 -->
<g id="node95" class="node"><title>Node38</title>
<polygon fill="white" stroke="#bfbfbf" points="432.247,-58.5 432.247,-79.5 473.247,-79.5 473.247,-58.5 432.247,-58.5"/>
<text text-anchor="middle" x="452.747" y="-66.5" font-family="Helvetica,sans-Serif" font-size="10.00">bitset</text>
</g>
<!-- Node37&#45;&gt;Node38 -->
<g id="edge112" class="edge"><title>Node37&#45;&gt;Node38</title>
<path fill="none" stroke="midnightblue" d="M452.747,-116.362C452.747,-108.922 452.747,-98.7427 452.747,-89.7276"/>
<polygon fill="midnightblue" stroke="midnightblue" points="456.247,-89.5706 452.747,-79.5707 449.247,-89.5707 456.247,-89.5706"/>
</g>
<!-- Node39&#45;&gt;Node11 -->
<g id="edge122" class="edge"><title>Node39&#45;&gt;Node11</title>
<path fill="none" stroke="midnightblue" d="M298.466,-116.411C305.613,-107.265 315.531,-93.4392 321.747,-80 328.909,-64.5169 333.854,-45.7946 336.9,-31.7611"/>
<polygon fill="midnightblue" stroke="midnightblue" points="340.39,-32.1586 338.942,-21.6633 333.529,-30.7712 340.39,-32.1586"/>
</g>
<!-- Node39&#45;&gt;Node14 -->
<g id="edge120" class="edge"><title>Node39&#45;&gt;Node14</title>
<path fill="none" stroke="midnightblue" d="M334.472,-117.101C337.264,-116.674 340.039,-116.301 342.747,-116 826.73,-62.2837 2049.57,-131.962 2533.75,-80 2539.83,-79.3476 2546.23,-78.3537 2552.44,-77.2249"/>
<polygon fill="midnightblue" stroke="midnightblue" points="2553.46,-80.5913 2562.6,-75.2345 2552.11,-73.7218 2553.46,-80.5913"/>
</g>
<!-- Node40 -->
<g id="node99" class="node"><title>Node40</title>
<a xlink:href="vec2_8h.html" target="_top" xlink:title="vec2.h">
<polygon fill="white" stroke="black" points="266.747,-58.5 266.747,-79.5 312.747,-79.5 312.747,-58.5 266.747,-58.5"/>
<text text-anchor="middle" x="289.747" y="-66.5" font-family="Helvetica,sans-Serif" font-size="10.00">vec2.h</text>
</a>
</g>
<!-- Node39&#45;&gt;Node40 -->
<g id="edge116" class="edge"><title>Node39&#45;&gt;Node40</title>
<path fill="none" stroke="midnightblue" d="M289.747,-116.362C289.747,-108.922 289.747,-98.7427 289.747,-89.7276"/>
<polygon fill="midnightblue" stroke="midnightblue" points="293.247,-89.5706 289.747,-79.5707 286.247,-89.5707 293.247,-89.5706"/>
</g>
<!-- Node40&#45;&gt;Node11 -->
<g id="edge118" class="edge"><title>Node40&#45;&gt;Node11</title>
<path fill="none" stroke="midnightblue" d="M299.102,-58.3619C306.291,-50.1861 316.388,-38.7025 324.84,-29.0907"/>
<polygon fill="midnightblue" stroke="midnightblue" points="327.478,-31.3916 331.453,-21.5707 322.221,-26.7692 327.478,-31.3916"/>
</g>
<!-- Node41&#45;&gt;Node8 -->
<g id="edge128" class="edge"><title>Node41&#45;&gt;Node8</title>
<path fill="none" stroke="midnightblue" d="M651.869,-120.322C666.993,-118.648 683.5,-117.035 698.747,-116 1064.59,-91.1622 2268.72,-72.488 2474.66,-69.4381"/>
<polygon fill="midnightblue" stroke="midnightblue" points="2474.79,-72.9365 2484.74,-69.2894 2474.69,-65.9373 2474.79,-72.9365"/>
</g>
<!-- Node41&#45;&gt;Node11 -->
<g id="edge126" class="edge"><title>Node41&#45;&gt;Node11</title>
<path fill="none" stroke="midnightblue" d="M583.051,-116.285C561.123,-101.661 519.734,-75.2974 481.747,-58 445.565,-41.5241 401.86,-27.8553 372.795,-19.5829"/>
<polygon fill="midnightblue" stroke="midnightblue" points="373.363,-16.1076 362.79,-16.7842 371.477,-22.8488 373.363,-16.1076"/>
</g>
<!-- Node41&#45;&gt;Node13 -->
<g id="edge130" class="edge"><title>Node41&#45;&gt;Node13</title>
<path fill="none" stroke="midnightblue" d="M652.08,-117.806C656.696,-117.143 661.299,-116.529 665.747,-116 784.397,-101.89 1155.86,-78.0277 1267.62,-71.0024"/>
<polygon fill="midnightblue" stroke="midnightblue" points="1267.85,-74.4951 1277.61,-70.376 1267.41,-67.5089 1267.85,-74.4951"/>
</g>
<!-- Node42&#45;&gt;Node26 -->
<g id="edge148" class="edge"><title>Node42&#45;&gt;Node26</title>
<path fill="none" stroke="midnightblue" d="M947.908,-362.362C937.745,-353.941 923.346,-342.011 911.543,-332.231"/>
<polygon fill="midnightblue" stroke="midnightblue" points="913.438,-329.256 903.505,-325.571 908.972,-334.646 913.438,-329.256"/>
</g>
<!-- Node42&#45;&gt;Node27 -->
<g id="edge150" class="edge"><title>Node42&#45;&gt;Node27</title>
<path fill="none" stroke="midnightblue" d="M954.535,-362.085C942.727,-341.335 916.891,-295.937 901.975,-269.729"/>
<polygon fill="midnightblue" stroke="midnightblue" points="904.834,-267.675 896.846,-260.715 898.75,-271.138 904.834,-267.675"/>
</g>
<!-- Node42&#45;&gt;Node32 -->
<g id="edge154" class="edge"><title>Node42&#45;&gt;Node32</title>
<path fill="none" stroke="midnightblue" d="M963.455,-362.463C969.093,-338.639 980.48,-279.039 966.747,-232 963.799,-221.9 957.946,-211.905 952.187,-203.745"/>
<polygon fill="midnightblue" stroke="midnightblue" points="954.932,-201.571 946.117,-195.694 949.342,-205.786 954.932,-201.571"/>
</g>
<!-- Node42&#45;&gt;Node33 -->
<g id="edge152" class="edge"><title>Node42&#45;&gt;Node33</title>
<path fill="none" stroke="midnightblue" d="M918.631,-371.993C782.802,-368.467 362.023,-355.271 308.747,-326 245.649,-291.333 212.005,-233.357 252.747,-174 255.441,-170.076 306.977,-151.118 342.197,-138.511"/>
<polygon fill="midnightblue" stroke="midnightblue" points="343.401,-141.797 351.644,-135.141 341.049,-135.204 343.401,-141.797"/>
</g>
<!-- Node43&#45;&gt;Node14 -->
<g id="edge164" class="edge"><title>Node43&#45;&gt;Node14</title>
<path fill="none" stroke="midnightblue" d="M1405.79,-174.37C1440.39,-158.278 1510.02,-128.307 1572.75,-116 1992.16,-33.7088 2109.28,-130.071 2533.75,-80 2539.82,-79.2838 2546.22,-78.2573 2552.42,-77.1158"/>
<polygon fill="midnightblue" stroke="midnightblue" points="2553.45,-80.4817 2562.59,-75.1206 2552.1,-73.6128 2553.45,-80.4817"/>
</g>
<!-- Node44 -->
<g id="node124" class="node"><title>Node44</title>
<a xlink:href="_format_8h.html" target="_top" xlink:title="base/Format.h">
<polygon fill="white" stroke="black" points="1008.75,-116.5 1008.75,-137.5 1088.75,-137.5 1088.75,-116.5 1008.75,-116.5"/>
<text text-anchor="middle" x="1048.75" y="-124.5" font-family="Helvetica,sans-Serif" font-size="10.00">base/Format.h</text>
</a>
</g>
<!-- Node43&#45;&gt;Node44 -->
<g id="edge158" class="edge"><title>Node43&#45;&gt;Node44</title>
<path fill="none" stroke="midnightblue" d="M1326.92,-175.161C1263.04,-164.101 1160.29,-146.311 1099.16,-135.728"/>
<polygon fill="midnightblue" stroke="midnightblue" points="1099.44,-132.224 1088.98,-133.966 1098.24,-139.121 1099.44,-132.224"/>
</g>
<!-- Node44&#45;&gt;Node13 -->
<g id="edge162" class="edge"><title>Node44&#45;&gt;Node13</title>
<path fill="none" stroke="midnightblue" d="M1088.8,-117.746C1138.49,-106.263 1222.22,-86.9145 1267.82,-76.3783"/>
<polygon fill="midnightblue" stroke="midnightblue" points="1268.79,-79.7461 1277.74,-74.0845 1267.21,-72.9259 1268.79,-79.7461"/>
</g>
<!-- Node45 -->
<g id="node126" class="node"><title>Node45</title>
<polygon fill="white" stroke="#bfbfbf" points="1013.75,-58.5 1013.75,-79.5 1083.75,-79.5 1083.75,-58.5 1013.75,-58.5"/>
<text text-anchor="middle" x="1048.75" y="-66.5" font-family="Helvetica,sans-Serif" font-size="10.00">fmt/format.h</text>
</g>
<!-- Node44&#45;&gt;Node45 -->
<g id="edge160" class="edge"><title>Node44&#45;&gt;Node45</title>
<path fill="none" stroke="midnightblue" d="M1048.75,-116.362C1048.75,-108.922 1048.75,-98.7427 1048.75,-89.7276"/>
<polygon fill="midnightblue" stroke="midnightblue" points="1052.25,-89.5706 1048.75,-79.5707 1045.25,-89.5707 1052.25,-89.5706"/>
</g>
<!-- Node46&#45;&gt;Node10 -->
<g id="edge178" class="edge"><title>Node46&#45;&gt;Node10</title>
<path fill="none" stroke="midnightblue" d="M554.171,-362.31C577.932,-343.373 628.929,-302.659 671.747,-268 697.403,-247.234 757.345,-188.998 786.747,-174 832.681,-150.569 891.413,-138.004 928.57,-131.915"/>
<polygon fill="midnightblue" stroke="midnightblue" points="929.112,-135.373 938.449,-130.366 928.028,-128.458 929.112,-135.373"/>
</g>
<!-- Node46&#45;&gt;Node13 -->
<g id="edge174" class="edge"><title>Node46&#45;&gt;Node13</title>
<path fill="none" stroke="midnightblue" d="M503.713,-372.578C387.915,-370.877 38.3886,-362.72 4.74739,-326 -1.85767,-318.79 1.73907,-313.303 4.74739,-304 45.5799,-177.722 107.229,-144.956 236.747,-116 422.551,-74.4599 902.572,-89.0517 1092.75,-80 1154.62,-77.0551 1226.87,-73.0977 1267.57,-70.8205"/>
<polygon fill="midnightblue" stroke="midnightblue" points="1267.91,-74.3071 1277.69,-70.2522 1267.51,-67.3181 1267.91,-74.3071"/>
</g>
<!-- Node46&#45;&gt;Node26 -->
<g id="edge168" class="edge"><title>Node46&#45;&gt;Node26</title>
<path fill="none" stroke="midnightblue" d="M577.872,-366.848C647.367,-355.332 795.86,-330.724 860.091,-320.08"/>
<polygon fill="midnightblue" stroke="midnightblue" points="860.714,-323.525 870.007,-318.437 859.569,-316.619 860.714,-323.525"/>
</g>
<!-- Node46&#45;&gt;Node34 -->
<g id="edge176" class="edge"><title>Node46&#45;&gt;Node34</title>
<path fill="none" stroke="midnightblue" d="M503.638,-368.872C421.132,-359.518 228.989,-336.693 219.747,-326 192.43,-294.391 200.473,-269.066 219.747,-232 226.816,-218.407 239.816,-207.927 252.498,-200.348"/>
<polygon fill="midnightblue" stroke="midnightblue" points="254.517,-203.232 261.586,-195.34 251.139,-197.101 254.517,-203.232"/>
</g>
<!-- Node47 -->
<g id="node133" class="node"><title>Node47</title>
<a xlink:href="_lorentz_vec_8h.html" target="_top" xlink:title="base/vec/LorentzVec.h">
<polygon fill="white" stroke="black" points="13.2474,-304.5 13.2474,-325.5 130.247,-325.5 130.247,-304.5 13.2474,-304.5"/>
<text text-anchor="middle" x="71.7474" y="-312.5" font-family="Helvetica,sans-Serif" font-size="10.00">base/vec/LorentzVec.h</text>
</a>
</g>
<!-- Node46&#45;&gt;Node47 -->
<g id="edge170" class="edge"><title>Node46&#45;&gt;Node47</title>
<path fill="none" stroke="midnightblue" d="M503.476,-369.012C433.085,-361.387 275.797,-343.899 143.747,-326 142.651,-325.851 141.545,-325.7 140.433,-325.546"/>
<polygon fill="midnightblue" stroke="midnightblue" points="140.664,-322.044 130.273,-324.11 139.684,-328.976 140.664,-322.044"/>
</g>
<!-- Node47&#45;&gt;Node39 -->
<g id="edge172" class="edge"><title>Node47&#45;&gt;Node39</title>
<path fill="none" stroke="midnightblue" d="M67.6061,-304.319C61.8256,-287.493 53.5461,-254.426 67.7474,-232 104.283,-174.303 182.009,-147.701 235.077,-135.87"/>
<polygon fill="midnightblue" stroke="midnightblue" points="235.957,-139.261 245.013,-133.762 234.505,-132.413 235.957,-139.261"/>
</g>
<!-- Node48&#45;&gt;Node5 -->
<g id="edge182" class="edge"><title>Node48&#45;&gt;Node5</title>
<path fill="none" stroke="midnightblue" d="M1805.64,-239.085C1828.84,-217.787 1880.34,-170.52 1908.47,-144.692"/>
<polygon fill="midnightblue" stroke="midnightblue" points="1911.07,-147.056 1916.07,-137.715 1906.34,-141.899 1911.07,-147.056"/>
</g>
<!-- Node48&#45;&gt;Node8 -->
<g id="edge186" class="edge"><title>Node48&#45;&gt;Node8</title>
<path fill="none" stroke="midnightblue" d="M1824.48,-245.995C1855.34,-242.065 1904.28,-236.082 1946.75,-232 2053.66,-221.723 2337.35,-252.42 2428.75,-196 2468.1,-171.705 2489.69,-118.786 2499.04,-89.5079"/>
<polygon fill="midnightblue" stroke="midnightblue" points="2502.5,-90.1377 2502.03,-79.5533 2495.8,-88.1211 2502.5,-90.1377"/>
</g>
<!-- Node48&#45;&gt;Node13 -->
<g id="edge184" class="edge"><title>Node48&#45;&gt;Node13</title>
<path fill="none" stroke="midnightblue" d="M1796.16,-239.403C1801.26,-213.963 1810.03,-149.097 1775.75,-116 1743.87,-85.218 1434.17,-73.0914 1332.15,-69.9118"/>
<polygon fill="midnightblue" stroke="midnightblue" points="1331.95,-66.4042 1321.85,-69.5994 1331.74,-73.401 1331.95,-66.4042"/>
</g>
<!-- Node48&#45;&gt;Node18 -->
<g id="edge188" class="edge"><title>Node48&#45;&gt;Node18</title>
<path fill="none" stroke="midnightblue" d="M1816.17,-239.383C1822.96,-236.562 1830.54,-233.802 1837.75,-232 1918.08,-211.909 2167.67,-193.677 2261.55,-187.355"/>
<polygon fill="midnightblue" stroke="midnightblue" points="2261.95,-190.836 2271.69,-186.678 2261.48,-183.852 2261.95,-190.836"/>
</g>
<!-- Node49&#45;&gt;Node5 -->
<g id="edge192" class="edge"><title>Node49&#45;&gt;Node5</title>
<path fill="none" stroke="midnightblue" d="M1303.51,-312.281C1356.67,-306.964 1471.16,-293.428 1564.75,-268 1691.08,-233.672 1833.99,-170.602 1896.11,-141.913"/>
<polygon fill="midnightblue" stroke="midnightblue" points="1897.78,-144.998 1905.37,-137.613 1894.83,-138.649 1897.78,-144.998"/>
</g>
<!-- Node49&#45;&gt;Node17 -->
<g id="edge198" class="edge"><title>Node49&#45;&gt;Node17</title>
<path fill="none" stroke="midnightblue" d="M1303.64,-314.422C1441.58,-311.612 2017.39,-298.255 2194.75,-268 2206.96,-265.918 2220.17,-262.205 2231.18,-258.69"/>
<polygon fill="midnightblue" stroke="midnightblue" points="2232.56,-261.92 2240.94,-255.441 2230.35,-255.278 2232.56,-261.92"/>
</g>
<!-- Node49&#45;&gt;Node18 -->
<g id="edge200" class="edge"><title>Node49&#45;&gt;Node18</title>
<path fill="none" stroke="midnightblue" d="M1303.42,-313.555C1411.96,-308.125 1783.61,-288.225 1832.75,-268 1855.8,-258.514 1852.83,-241.797 1875.75,-232 1944.95,-202.416 2172.25,-190.124 2261.41,-186.36"/>
<polygon fill="midnightblue" stroke="midnightblue" points="2261.72,-189.85 2271.57,-185.943 2261.44,-182.856 2261.72,-189.85"/>
</g>
<!-- Node49&#45;&gt;Node39 -->
<g id="edge196" class="edge"><title>Node49&#45;&gt;Node39</title>
<path fill="none" stroke="midnightblue" d="M1244.09,-314.07C1135.26,-309.964 748.524,-289.256 446.747,-196 400.603,-181.74 349.898,-157.847 318.941,-142.254"/>
<polygon fill="midnightblue" stroke="midnightblue" points="320.494,-139.117 309.994,-137.701 317.319,-145.356 320.494,-139.117"/>
</g>
<!-- Node49&#45;&gt;Node41 -->
<g id="edge194" class="edge"><title>Node49&#45;&gt;Node41</title>
<path fill="none" stroke="midnightblue" d="M1252.75,-304.411C1193.27,-274.585 1024.15,-190.945 964.747,-174 936.336,-165.895 758.824,-145.066 661.846,-134.059"/>
<polygon fill="midnightblue" stroke="midnightblue" points="662.193,-130.576 651.862,-132.928 661.405,-137.532 662.193,-130.576"/>
</g>
<!-- Node50&#45;&gt;Node10 -->
<g id="edge228" class="edge"><title>Node50&#45;&gt;Node10</title>
<path fill="none" stroke="midnightblue" d="M479.936,-311.292C518.241,-305.827 584.441,-293.385 635.747,-268 665.796,-253.133 723.5,-188.459 753.747,-174 811.147,-146.561 885.052,-134.852 928.432,-130.073"/>
<polygon fill="midnightblue" stroke="midnightblue" points="928.928,-133.54 938.513,-129.027 928.206,-126.578 928.928,-133.54"/>
</g>
<!-- Node50&#45;&gt;Node11 -->
<g id="edge224" class="edge"><title>Node50&#45;&gt;Node11</title>
<path fill="none" stroke="midnightblue" d="M417.65,-312.248C366.423,-307.022 267.756,-293.803 245.747,-268 185.08,-196.873 197.417,-129.413 257.747,-58 271.237,-42.0326 291.603,-30.3847 308.784,-22.6786"/>
<polygon fill="midnightblue" stroke="midnightblue" points="310.606,-25.7087 318.457,-18.5941 307.883,-19.2601 310.606,-25.7087"/>
</g>
<!-- Node50&#45;&gt;Node13 -->
<g id="edge222" class="edge"><title>Node50&#45;&gt;Node13</title>
<path fill="none" stroke="midnightblue" d="M468.608,-304.354C484.76,-295.388 507.882,-281.842 526.747,-268 567.873,-237.824 651.783,-135.906 698.747,-116 725.143,-104.812 1146.72,-78.3393 1267.59,-70.9471"/>
<polygon fill="midnightblue" stroke="midnightblue" points="1267.93,-74.4333 1277.69,-70.3309 1267.5,-67.4463 1267.93,-74.4333"/>
</g>
<!-- Node50&#45;&gt;Node18 -->
<g id="edge230" class="edge"><title>Node50&#45;&gt;Node18</title>
<path fill="none" stroke="midnightblue" d="M479.789,-314.303C636.95,-310.68 1345.97,-293.198 1564.75,-268 1650.13,-258.166 1669.6,-243.721 1754.75,-232 1944.62,-205.863 2173.96,-191.663 2261.45,-186.873"/>
<polygon fill="midnightblue" stroke="midnightblue" points="2261.85,-190.357 2271.65,-186.322 2261.47,-183.367 2261.85,-190.357"/>
</g>
<!-- Node50&#45;&gt;Node34 -->
<g id="edge226" class="edge"><title>Node50&#45;&gt;Node34</title>
<path fill="none" stroke="midnightblue" d="M417.71,-310.091C376.316,-302.854 306.418,-287.988 290.747,-268 277.047,-250.524 278.375,-224.057 281.613,-205.729"/>
<polygon fill="midnightblue" stroke="midnightblue" points="285.076,-206.27 283.7,-195.765 278.225,-204.835 285.076,-206.27"/>
</g>
<!-- Node50&#45;&gt;Node35 -->
<g id="edge204" class="edge"><title>Node50&#45;&gt;Node35</title>
<path fill="none" stroke="midnightblue" d="M432.73,-304.267C417.333,-293.949 393.854,-278.216 376.135,-266.342"/>
<polygon fill="midnightblue" stroke="midnightblue" points="377.723,-263.193 367.467,-260.534 373.826,-269.008 377.723,-263.193"/>
</g>
<!-- Node50&#45;&gt;Node36 -->
<g id="edge206" class="edge"><title>Node50&#45;&gt;Node36</title>
<path fill="none" stroke="midnightblue" d="M453.166,-304.362C462.145,-282.746 482.654,-233.372 494.286,-205.369"/>
<polygon fill="midnightblue" stroke="midnightblue" points="497.663,-206.363 498.267,-195.785 491.199,-203.678 497.663,-206.363"/>
</g>
<!-- Node50&#45;&gt;Node39 -->
<g id="edge220" class="edge"><title>Node50&#45;&gt;Node39</title>
<path fill="none" stroke="midnightblue" d="M417.409,-310.153C373.292,-302.735 295.984,-287.367 275.747,-268 244.674,-238.262 238.67,-214.641 252.747,-174 256.469,-163.255 263.777,-153.103 270.921,-145.003"/>
<polygon fill="midnightblue" stroke="midnightblue" points="273.552,-147.314 277.873,-137.64 268.463,-142.508 273.552,-147.314"/>
</g>
<!-- Node50&#45;&gt;Node41 -->
<g id="edge208" class="edge"><title>Node50&#45;&gt;Node41</title>
<path fill="none" stroke="midnightblue" d="M460.25,-304.243C481.312,-284.199 526.84,-239.238 558.747,-196 570.371,-180.249 581.355,-160.851 588.862,-146.639"/>
<polygon fill="midnightblue" stroke="midnightblue" points="591.981,-148.226 593.468,-137.736 585.764,-145.009 591.981,-148.226"/>
</g>
<!-- Node51 -->
<g id="node157" class="node"><title>Node51</title>
<a xlink:href="shared__ptr__container_8h.html" target="_top" xlink:title="base/std_ext/shared\l_ptr_container.h">
<polygon fill="white" stroke="black" points="1451.25,-233 1451.25,-267 1556.25,-267 1556.25,-233 1451.25,-233"/>
<text text-anchor="start" x="1459.25" y="-254" font-family="Helvetica,sans-Serif" font-size="10.00">base/std_ext/shared</text>
<text text-anchor="middle" x="1503.75" y="-241" font-family="Helvetica,sans-Serif" font-size="10.00">_ptr_container.h</text>
</a>
</g>
<!-- Node50&#45;&gt;Node51 -->
<g id="edge210" class="edge"><title>Node50&#45;&gt;Node51</title>
<path fill="none" stroke="midnightblue" d="M480.191,-314.008C623.936,-309.389 1219.44,-289.309 1404.75,-268 1416.54,-266.644 1429.05,-264.739 1441.07,-262.672"/>
<polygon fill="midnightblue" stroke="midnightblue" points="1441.78,-266.1 1451.02,-260.906 1440.56,-259.208 1441.78,-266.1"/>
</g>
<!-- Node51&#45;&gt;Node6 -->
<g id="edge218" class="edge"><title>Node51&#45;&gt;Node6</title>
<path fill="none" stroke="midnightblue" d="M1555.83,-232.937C1584.39,-222.412 1615.62,-208.566 1623.75,-196 1633.24,-181.322 1627.76,-161.512 1621.07,-146.884"/>
<polygon fill="midnightblue" stroke="midnightblue" points="1624.06,-145.045 1616.42,-137.711 1617.82,-148.212 1624.06,-145.045"/>
</g>
<!-- Node51&#45;&gt;Node13 -->
<g id="edge212" class="edge"><title>Node51&#45;&gt;Node13</title>
<path fill="none" stroke="midnightblue" d="M1451.15,-240.064C1436.17,-237.337 1419.83,-234.457 1404.75,-232 1349.35,-222.978 1191.5,-238.423 1154.75,-196 1112.98,-147.783 1213.82,-100.952 1268.05,-80.1805"/>
<polygon fill="midnightblue" stroke="midnightblue" points="1269.44,-83.3943 1277.58,-76.6109 1266.99,-76.8385 1269.44,-83.3943"/>
</g>
<!-- Node51&#45;&gt;Node18 -->
<g id="edge214" class="edge"><title>Node51&#45;&gt;Node18</title>
<path fill="none" stroke="midnightblue" d="M1556.49,-234.607C1560.95,-233.614 1565.41,-232.723 1569.75,-232 1705.23,-209.39 2133.74,-191.354 2261.47,-186.372"/>
<polygon fill="midnightblue" stroke="midnightblue" points="2261.66,-189.867 2271.52,-185.983 2261.39,-182.872 2261.66,-189.867"/>
</g>
<!-- Node51&#45;&gt;Node19 -->
<g id="edge216" class="edge"><title>Node51&#45;&gt;Node19</title>
<path fill="none" stroke="midnightblue" d="M1556.62,-246.063C1607.41,-242.316 1686.31,-236.585 1754.75,-232 2011.56,-214.794 2077.36,-228.043 2332.75,-196 2338.68,-195.256 2344.91,-194.281 2351.01,-193.218"/>
<polygon fill="midnightblue" stroke="midnightblue" points="2351.85,-196.621 2361.06,-191.371 2350.59,-189.736 2351.85,-196.621"/>
</g>
<!-- Node52&#45;&gt;Node6 -->
<g id="edge246" class="edge"><title>Node52&#45;&gt;Node6</title>
<path fill="none" stroke="midnightblue" d="M1083.87,-362.361C1116.87,-336.144 1206.82,-267.956 1292.75,-232 1358.39,-204.532 1381.11,-218.102 1448.75,-196 1495.51,-180.72 1547.46,-157.199 1579.37,-141.954"/>
<polygon fill="midnightblue" stroke="midnightblue" points="1581.11,-145 1588.6,-137.506 1578.07,-138.693 1581.11,-145"/>
</g>
<!-- Node52&#45;&gt;Node10 -->
<g id="edge242" class="edge"><title>Node52&#45;&gt;Node10</title>
<path fill="none" stroke="midnightblue" d="M1066.19,-362.43C1049.95,-324.738 994.708,-196.532 973.311,-146.874"/>
<polygon fill="midnightblue" stroke="midnightblue" points="976.457,-145.33 969.285,-137.531 970.028,-148.1 976.457,-145.33"/>
</g>
<!-- Node52&#45;&gt;Node13 -->
<g id="edge238" class="edge"><title>Node52&#45;&gt;Node13</title>
<path fill="none" stroke="midnightblue" d="M1073.29,-362.265C1080.13,-335.829 1101.46,-267.181 1145.75,-232 1194.37,-193.377 1239.37,-242.3 1280.75,-196 1306.86,-166.781 1306.07,-117.81 1303.01,-89.9883"/>
<polygon fill="midnightblue" stroke="midnightblue" points="1306.45,-89.2633 1301.68,-79.8002 1299.51,-90.169 1306.45,-89.2633"/>
</g>
<!-- Node52&#45;&gt;Node18 -->
<g id="edge244" class="edge"><title>Node52&#45;&gt;Node18</title>
<path fill="none" stroke="midnightblue" d="M1108.49,-371.975C1224.25,-368.002 1583.67,-349.467 1867.75,-268 1904.84,-257.363 1909.67,-242.676 1946.75,-232 2058.68,-199.772 2197.17,-189.504 2261.61,-186.343"/>
<polygon fill="midnightblue" stroke="midnightblue" points="2261.84,-189.837 2271.67,-185.879 2261.52,-182.844 2261.84,-189.837"/>
</g>
<!-- Node52&#45;&gt;Node34 -->
<g id="edge240" class="edge"><title>Node52&#45;&gt;Node34</title>
<path fill="none" stroke="midnightblue" d="M1033.09,-365.255C1026.02,-364.008 1018.68,-362.849 1011.75,-362 745.265,-329.333 669.818,-388.625 408.747,-326 346.039,-310.958 311.076,-321.949 275.747,-268 263.442,-249.209 270,-222.86 277.133,-204.925"/>
<polygon fill="midnightblue" stroke="midnightblue" points="280.369,-206.26 281.149,-195.694 273.951,-203.467 280.369,-206.26"/>
</g>
<!-- Node52&#45;&gt;Node36 -->
<g id="edge236" class="edge"><title>Node52&#45;&gt;Node36</title>
<path fill="none" stroke="midnightblue" d="M1033.18,-365.273C982.073,-354.639 893.391,-335.71 861.747,-326 738.395,-288.15 597.343,-227.395 535.123,-199.66"/>
<polygon fill="midnightblue" stroke="midnightblue" points="536.386,-196.391 525.828,-195.501 533.527,-202.78 536.386,-196.391"/>
</g>
<!-- Node52&#45;&gt;Node50 -->
<g id="edge234" class="edge"><title>Node52&#45;&gt;Node50</title>
<path fill="none" stroke="midnightblue" d="M1033.08,-365.31C1026.01,-364.058 1018.67,-362.883 1011.75,-362 782.824,-332.803 721.774,-361.528 493.747,-326 492.496,-325.805 491.228,-325.592 489.95,-325.365"/>
<polygon fill="midnightblue" stroke="midnightblue" points="490.575,-321.921 480.081,-323.382 489.195,-328.783 490.575,-321.921"/>
</g>
<!-- Node53&#45;&gt;Node5 -->
<g id="edge252" class="edge"><title>Node53&#45;&gt;Node5</title>
<path fill="none" stroke="midnightblue" d="M1948.84,-420.291C1941.81,-400.027 1927.75,-354.554 1927.75,-315 1927.75,-315 1927.75,-315 1927.75,-250 1927.75,-214.052 1927.75,-172.195 1927.75,-147.745"/>
<polygon fill="midnightblue" stroke="midnightblue" points="1931.25,-147.53 1927.75,-137.53 1924.25,-147.53 1931.25,-147.53"/>
</g>
<!-- Node53&#45;&gt;Node13 -->
<g id="edge296" class="edge"><title>Node53&#45;&gt;Node13</title>
<path fill="none" stroke="midnightblue" d="M1920.37,-428.146C1798.79,-416.701 1372.43,-369.753 1292.75,-268 1282.88,-255.403 1282.79,-244.521 1292.75,-232 1337.05,-176.315 1404.45,-251.685 1448.75,-196 1489.19,-145.167 1386.22,-99.4547 1331.41,-79.5458"/>
<polygon fill="midnightblue" stroke="midnightblue" points="1332.38,-76.1755 1321.79,-76.1332 1330.04,-82.7732 1332.38,-76.1755"/>
</g>
<!-- Node53&#45;&gt;Node17 -->
<g id="edge298" class="edge"><title>Node53&#45;&gt;Node17</title>
<path fill="none" stroke="midnightblue" d="M1971.01,-420.292C2024.15,-389.117 2178.05,-298.691 2227.75,-268 2229.23,-267.082 2230.76,-266.129 2232.3,-265.163"/>
<polygon fill="midnightblue" stroke="midnightblue" points="2234.43,-267.952 2240.99,-259.629 2230.67,-262.048 2234.43,-267.952"/>
</g>
<!-- Node53&#45;&gt;Node18 -->
<g id="edge302" class="edge"><title>Node53&#45;&gt;Node18</title>
<path fill="none" stroke="midnightblue" d="M1984.92,-427.63C2024.04,-422.525 2091.21,-410.463 2142.75,-384 2213.42,-347.713 2237.57,-335.943 2278.75,-268 2290.3,-248.931 2294.84,-223.52 2296.61,-205.859"/>
<polygon fill="midnightblue" stroke="midnightblue" points="2300.11,-206 2297.41,-195.754 2293.13,-205.447 2300.11,-206"/>
</g>
<!-- Node53&#45;&gt;Node47 -->
<g id="edge294" class="edge"><title>Node53&#45;&gt;Node47</title>
<path fill="none" stroke="midnightblue" d="M1920.57,-430.53C1733.6,-427.715 785.097,-412.241 494.747,-384 365.002,-371.38 214.734,-343.718 132.797,-327.512"/>
<polygon fill="midnightblue" stroke="midnightblue" points="133.398,-324.064 122.907,-325.546 132.033,-330.929 133.398,-324.064"/>
</g>
<!-- Node53&#45;&gt;Node52 -->
<g id="edge250" class="edge"><title>Node53&#45;&gt;Node52</title>
<path fill="none" stroke="midnightblue" d="M1920.57,-428.884C1787.32,-420.121 1278.21,-386.643 1118.78,-376.158"/>
<polygon fill="midnightblue" stroke="midnightblue" points="1118.56,-372.637 1108.35,-375.473 1118.1,-379.621 1118.56,-372.637"/>
</g>
<!-- Node54 -->
<g id="node182" class="node"><title>Node54</title>
<a xlink:href="_particle_type_8h.html" target="_top" xlink:title="base/ParticleType.h">
<polygon fill="white" stroke="black" points="2741.75,-239.5 2741.75,-260.5 2845.75,-260.5 2845.75,-239.5 2741.75,-239.5"/>
<text text-anchor="middle" x="2793.75" y="-247.5" font-family="Helvetica,sans-Serif" font-size="10.00">base/ParticleType.h</text>
</a>
</g>
<!-- Node53&#45;&gt;Node54 -->
<g id="edge254" class="edge"><title>Node53&#45;&gt;Node54</title>
<path fill="none" stroke="midnightblue" d="M1984.89,-429.153C2112.16,-421.445 2580.23,-389.269 2712.75,-326 2740.41,-312.791 2764.96,-286.677 2779.59,-268.781"/>
<polygon fill="midnightblue" stroke="midnightblue" points="2782.48,-270.762 2785.94,-260.748 2776.99,-266.419 2782.48,-270.762"/>
</g>
<!-- Node57 -->
<g id="node193" class="node"><title>Node57</title>
<a xlink:href="_tree_8h.html" target="_top" xlink:title="base/Tree.h">
<polygon fill="white" stroke="black" points="1955.75,-304.5 1955.75,-325.5 2023.75,-325.5 2023.75,-304.5 1955.75,-304.5"/>
<text text-anchor="middle" x="1989.75" y="-312.5" font-family="Helvetica,sans-Serif" font-size="10.00">base/Tree.h</text>
</a>
</g>
<!-- Node53&#45;&gt;Node57 -->
<g id="edge270" class="edge"><title>Node53&#45;&gt;Node57</title>
<path fill="none" stroke="midnightblue" d="M1956.16,-420.295C1962.3,-401.045 1975.3,-360.289 1983.21,-335.509"/>
<polygon fill="midnightblue" stroke="midnightblue" points="1986.64,-336.27 1986.34,-325.679 1979.97,-334.143 1986.64,-336.27"/>
</g>
<!-- Node63 -->
<g id="node214" class="node"><title>Node63</title>
<polygon fill="white" stroke="#bfbfbf" points="2079.75,-362.5 2079.75,-383.5 2133.75,-383.5 2133.75,-362.5 2079.75,-362.5"/>
<text text-anchor="middle" x="2106.75" y="-370.5" font-family="Helvetica,sans-Serif" font-size="10.00">iostream</text>
</g>
<!-- Node53&#45;&gt;Node63 -->
<g id="edge300" class="edge"><title>Node53&#45;&gt;Node63</title>
<path fill="none" stroke="midnightblue" d="M1980.64,-420.497C2005.65,-411.077 2042.52,-397.188 2069.95,-386.86"/>
<polygon fill="midnightblue" stroke="midnightblue" points="2071.46,-390.031 2079.58,-383.231 2068.99,-383.48 2071.46,-390.031"/>
</g>
<!-- Node54&#45;&gt;Node4 -->
<g id="edge258" class="edge"><title>Node54&#45;&gt;Node4</title>
<path fill="none" stroke="midnightblue" d="M2783.51,-239.267C2774.12,-229.423 2760.03,-214.648 2748.92,-203"/>
<polygon fill="midnightblue" stroke="midnightblue" points="2751.23,-200.354 2741.79,-195.534 2746.16,-205.186 2751.23,-200.354"/>
</g>
<!-- Node54&#45;&gt;Node5 -->
<g id="edge256" class="edge"><title>Node54&#45;&gt;Node5</title>
<path fill="none" stroke="midnightblue" d="M2751.04,-239.487C2683.18,-223.148 2546.36,-191.704 2428.75,-174 2254.71,-147.802 2044.33,-133.731 1962.59,-128.924"/>
<polygon fill="midnightblue" stroke="midnightblue" points="1962.55,-125.416 1952.37,-128.332 1962.15,-132.404 1962.55,-125.416"/>
</g>
<!-- Node54&#45;&gt;Node13 -->
<g id="edge268" class="edge"><title>Node54&#45;&gt;Node13</title>
<path fill="none" stroke="midnightblue" d="M2756.15,-239.479C2712.56,-227.09 2643.51,-206.831 2618.75,-196 2553.8,-167.589 2548.83,-135.767 2480.75,-116 2367.78,-83.1997 1509.57,-71.4496 1331.89,-69.3564"/>
<polygon fill="midnightblue" stroke="midnightblue" points="1331.9,-65.8564 1321.86,-69.2401 1331.82,-72.856 1331.9,-65.8564"/>
</g>
<!-- Node54&#45;&gt;Node14 -->
<g id="edge262" class="edge"><title>Node54&#45;&gt;Node14</title>
<path fill="none" stroke="midnightblue" d="M2797.58,-239.141C2805.6,-214.243 2821.12,-152.39 2791.75,-116 2771.13,-90.455 2677.71,-77.5073 2625.08,-72.1345"/>
<polygon fill="midnightblue" stroke="midnightblue" points="2625.12,-68.6212 2614.82,-71.1303 2624.43,-75.5879 2625.12,-68.6212"/>
</g>
<!-- Node54&#45;&gt;Node15 -->
<g id="edge260" class="edge"><title>Node54&#45;&gt;Node15</title>
<path fill="none" stroke="midnightblue" d="M2814.97,-239.3C2858.54,-217.336 2958.16,-167.119 3008.08,-141.953"/>
<polygon fill="midnightblue" stroke="midnightblue" points="3009.73,-145.041 3017.09,-137.414 3006.58,-138.79 3009.73,-145.041"/>
</g>
<!-- Node54&#45;&gt;Node55 -->
<g id="edge264" class="edge"><title>Node54&#45;&gt;Node55</title>
<path fill="none" stroke="midnightblue" d="M2845.86,-240.31C2860.97,-237.558 2877.51,-234.603 2892.75,-232 2990.5,-215.302 3106.86,-197.235 3159.03,-189.229"/>
<polygon fill="midnightblue" stroke="midnightblue" points="3159.81,-192.651 3169.16,-187.677 3158.75,-185.732 3159.81,-192.651"/>
</g>
<!-- Node56 -->
<g id="node190" class="node"><title>Node56</title>
<polygon fill="white" stroke="#bfbfbf" points="2627.25,-174.5 2627.25,-195.5 2674.25,-195.5 2674.25,-174.5 2627.25,-174.5"/>
<text text-anchor="middle" x="2650.75" y="-182.5" font-family="Helvetica,sans-Serif" font-size="10.00">iterator</text>
</g>
<!-- Node54&#45;&gt;Node56 -->
<g id="edge266" class="edge"><title>Node54&#45;&gt;Node56</title>
<path fill="none" stroke="midnightblue" d="M2770.45,-239.412C2746.77,-228.647 2709.88,-211.878 2683.31,-199.801"/>
<polygon fill="midnightblue" stroke="midnightblue" points="2684.58,-196.535 2674.03,-195.584 2681.69,-202.908 2684.58,-196.535"/>
</g>
<!-- Node57&#45;&gt;Node6 -->
<g id="edge286" class="edge"><title>Node57&#45;&gt;Node6</title>
<path fill="none" stroke="midnightblue" d="M1955.61,-314.684C1841.35,-313.276 1477.47,-305.833 1442.75,-268 1431.93,-256.212 1432.86,-244.58 1442.75,-232 1484.58,-178.775 1542.16,-243.142 1590.75,-196 1603.66,-183.467 1608.05,-163.028 1609.42,-147.641"/>
<polygon fill="midnightblue" stroke="midnightblue" points="1612.92,-147.689 1609.96,-137.515 1605.93,-147.313 1612.92,-147.689"/>
</g>
<!-- Node57&#45;&gt;Node13 -->
<g id="edge284" class="edge"><title>Node57&#45;&gt;Node13</title>
<path fill="none" stroke="midnightblue" d="M1955.67,-312.828C1892.03,-308.167 1758.23,-295.333 1721.75,-268 1661.46,-222.83 1707.9,-159.986 1646.75,-116 1596.77,-80.0521 1408.67,-71.5664 1332.29,-69.5899"/>
<polygon fill="midnightblue" stroke="midnightblue" points="1331.94,-66.0807 1321.86,-69.343 1331.77,-73.0788 1331.94,-66.0807"/>
</g>
<!-- Node57&#45;&gt;Node17 -->
<g id="edge282" class="edge"><title>Node57&#45;&gt;Node17</title>
<path fill="none" stroke="midnightblue" d="M2023.8,-307.028C2028.48,-305.982 2033.23,-304.946 2037.75,-304 2121.87,-286.398 2147.91,-299.823 2227.75,-268 2229.37,-267.353 2231,-266.607 2232.62,-265.795"/>
<polygon fill="midnightblue" stroke="midnightblue" points="2234.6,-268.689 2241.5,-260.649 2231.09,-262.632 2234.6,-268.689"/>
</g>
<!-- Node57&#45;&gt;Node18 -->
<g id="edge280" class="edge"><title>Node57&#45;&gt;Node18</title>
<path fill="none" stroke="midnightblue" d="M2024.04,-307.146C2082.36,-293.787 2194.63,-268.064 2194.75,-268 2215.25,-257.013 2214.84,-246.848 2232.75,-232 2245.69,-221.272 2260.88,-210.212 2273.31,-201.518"/>
<polygon fill="midnightblue" stroke="midnightblue" points="2275.58,-204.208 2281.81,-195.644 2271.6,-198.449 2275.58,-204.208"/>
</g>
<!-- Node57&#45;&gt;Node31 -->
<g id="edge292" class="edge"><title>Node57&#45;&gt;Node31</title>
<path fill="none" stroke="midnightblue" d="M1955.56,-313.823C1833.86,-309.456 1422.07,-293.129 1292.75,-268 1160.99,-242.397 1135.95,-206.606 1005.75,-174 926.775,-154.223 832.63,-139.715 779.867,-132.384"/>
<polygon fill="midnightblue" stroke="midnightblue" points="780.266,-128.906 769.883,-131.014 779.315,-135.841 780.266,-128.906"/>
</g>
<!-- Node58 -->
<g id="node195" class="node"><title>Node58</title>
<polygon fill="white" stroke="#bfbfbf" points="1955.75,-239.5 1955.75,-260.5 2051.75,-260.5 2051.75,-239.5 1955.75,-239.5"/>
<text text-anchor="middle" x="2003.75" y="-247.5" font-family="Helvetica,sans-Serif" font-size="10.00">cereal/access.hpp</text>
</g>
<!-- Node57&#45;&gt;Node58 -->
<g id="edge272" class="edge"><title>Node57&#45;&gt;Node58</title>
<path fill="none" stroke="midnightblue" d="M1992.06,-304.267C1994.04,-295.085 1996.94,-281.615 1999.36,-270.392"/>
<polygon fill="midnightblue" stroke="midnightblue" points="2002.79,-271.046 2001.48,-260.534 1995.95,-269.573 2002.79,-271.046"/>
</g>
<!-- Node59 -->
<g id="node197" class="node"><title>Node59</title>
<a xlink:href="variadic_8h.html" target="_top" xlink:title="std_ext/variadic.h">
<polygon fill="white" stroke="black" points="1301.75,-239.5 1301.75,-260.5 1395.75,-260.5 1395.75,-239.5 1301.75,-239.5"/>
<text text-anchor="middle" x="1348.75" y="-247.5" font-family="Helvetica,sans-Serif" font-size="10.00">std_ext/variadic.h</text>
</a>
</g>
<!-- Node57&#45;&gt;Node59 -->
<g id="edge274" class="edge"><title>Node57&#45;&gt;Node59</title>
<path fill="none" stroke="midnightblue" d="M1955.49,-313.154C1847.58,-307.192 1515.65,-287.698 1409.75,-268 1403.11,-266.765 1396.16,-265.094 1389.43,-263.265"/>
<polygon fill="midnightblue" stroke="midnightblue" points="1390.37,-259.892 1379.79,-260.504 1388.44,-266.621 1390.37,-259.892"/>
</g>
<!-- Node61 -->
<g id="node206" class="node"><title>Node61</title>
<polygon fill="white" stroke="#bfbfbf" points="2069.25,-239.5 2069.25,-260.5 2118.25,-260.5 2118.25,-239.5 2069.25,-239.5"/>
<text text-anchor="middle" x="2093.75" y="-247.5" font-family="Helvetica,sans-Serif" font-size="10.00">cassert</text>
</g>
<!-- Node57&#45;&gt;Node61 -->
<g id="edge288" class="edge"><title>Node57&#45;&gt;Node61</title>
<path fill="none" stroke="midnightblue" d="M2006.92,-304.267C2023.66,-293.807 2049.3,-277.782 2068.38,-265.854"/>
<polygon fill="midnightblue" stroke="midnightblue" points="2070.27,-268.802 2076.89,-260.534 2066.56,-262.866 2070.27,-268.802"/>
</g>
<!-- Node62 -->
<g id="node208" class="node"><title>Node62</title>
<polygon fill="white" stroke="#bfbfbf" points="2135.25,-239.5 2135.25,-260.5 2186.25,-260.5 2186.25,-239.5 2135.25,-239.5"/>
<text text-anchor="middle" x="2160.75" y="-247.5" font-family="Helvetica,sans-Serif" font-size="10.00">numeric</text>
</g>
<!-- Node57&#45;&gt;Node62 -->
<g id="edge290" class="edge"><title>Node57&#45;&gt;Node62</title>
<path fill="none" stroke="midnightblue" d="M2023.81,-304.947C2051.87,-296.278 2092.48,-282.84 2126.75,-268 2128.79,-267.116 2130.88,-266.157 2132.96,-265.158"/>
<polygon fill="midnightblue" stroke="midnightblue" points="2134.59,-268.255 2141.94,-260.626 2131.44,-262.005 2134.59,-268.255"/>
</g>
<!-- Node59&#45;&gt;Node32 -->
<g id="edge278" class="edge"><title>Node59&#45;&gt;Node32</title>
<path fill="none" stroke="midnightblue" d="M1301.49,-242.544C1215.64,-229 1036.47,-200.733 966.062,-189.625"/>
<polygon fill="midnightblue" stroke="midnightblue" points="966.528,-186.155 956.105,-188.054 965.437,-193.07 966.528,-186.155"/>
</g>
<!-- Node60 -->
<g id="node199" class="node"><title>Node60</title>
<polygon fill="white" stroke="#bfbfbf" points="1533.25,-174.5 1533.25,-195.5 1582.25,-195.5 1582.25,-174.5 1533.25,-174.5"/>
<text text-anchor="middle" x="1557.75" y="-182.5" font-family="Helvetica,sans-Serif" font-size="10.00">cstddef</text>
</g>
<!-- Node59&#45;&gt;Node60 -->
<g id="edge276" class="edge"><title>Node59&#45;&gt;Node60</title>
<path fill="none" stroke="midnightblue" d="M1382.79,-239.412C1421.55,-227.359 1484.5,-207.779 1523.39,-195.685"/>
<polygon fill="midnightblue" stroke="midnightblue" points="1524.69,-198.945 1533.2,-192.633 1522.62,-192.261 1524.69,-198.945"/>
</g>
<!-- Node64&#45;&gt;Node10 -->
<g id="edge314" class="edge"><title>Node64&#45;&gt;Node10</title>
<path fill="none" stroke="midnightblue" d="M3131.54,-243.729C3097.19,-239.628 3050.25,-234.57 3008.75,-232 2803.1,-219.266 1357.31,-233.674 1154.75,-196 1096.47,-185.162 1032.38,-158.588 995.522,-141.761"/>
<polygon fill="midnightblue" stroke="midnightblue" points="996.862,-138.525 986.316,-137.502 993.922,-144.878 996.862,-138.525"/>
</g>
<!-- Node64&#45;&gt;Node15 -->
<g id="edge306" class="edge"><title>Node64&#45;&gt;Node15</title>
<path fill="none" stroke="midnightblue" d="M3173.78,-239.428C3163.08,-223.769 3141.37,-194.1 3117.75,-174 3102.61,-161.121 3083.48,-149.738 3067.72,-141.401"/>
<polygon fill="midnightblue" stroke="midnightblue" points="3068.91,-138.075 3058.41,-136.618 3065.71,-144.301 3068.91,-138.075"/>
</g>
<!-- Node64&#45;&gt;Node18 -->
<g id="edge308" class="edge"><title>Node64&#45;&gt;Node18</title>
<path fill="none" stroke="midnightblue" d="M3131.5,-244.193C3097.14,-240.302 3050.2,-235.304 3008.75,-232 2717.68,-208.797 2642.42,-232.726 2352.75,-196 2346.68,-195.231 2340.28,-194.178 2334.08,-193.026"/>
<polygon fill="midnightblue" stroke="midnightblue" points="2334.41,-189.523 2323.92,-191.027 2333.06,-196.391 2334.41,-189.523"/>
</g>
<!-- Node64&#45;&gt;Node55 -->
<g id="edge310" class="edge"><title>Node64&#45;&gt;Node55</title>
<path fill="none" stroke="midnightblue" d="M3181.74,-239.267C3182.58,-230.18 3183.8,-216.892 3184.83,-205.74"/>
<polygon fill="midnightblue" stroke="midnightblue" points="3188.34,-205.813 3185.78,-195.534 3181.37,-205.17 3188.34,-205.813"/>
</g>
<!-- Node65 -->
<g id="node222" class="node"><title>Node65</title>
<polygon fill="white" stroke="#bfbfbf" points="3221.75,-174.5 3221.75,-195.5 3251.75,-195.5 3251.75,-174.5 3221.75,-174.5"/>
<text text-anchor="middle" x="3236.75" y="-182.5" font-family="Helvetica,sans-Serif" font-size="10.00">set</text>
</g>
<!-- Node64&#45;&gt;Node65 -->
<g id="edge312" class="edge"><title>Node64&#45;&gt;Node65</title>
<path fill="none" stroke="midnightblue" d="M3189.99,-239.267C3198.39,-229.517 3210.96,-214.932 3220.95,-203.336"/>
<polygon fill="midnightblue" stroke="midnightblue" points="3223.8,-205.394 3227.67,-195.534 3218.49,-200.825 3223.8,-205.394"/>
</g>
<!-- Node66&#45;&gt;Node17 -->
<g id="edge320" class="edge"><title>Node66&#45;&gt;Node17</title>
<path fill="none" stroke="midnightblue" d="M2350.34,-304.412C2330.95,-293.256 2300.34,-275.653 2279.23,-263.505"/>
<polygon fill="midnightblue" stroke="midnightblue" points="2280.95,-260.461 2270.54,-258.509 2277.46,-266.529 2280.95,-260.461"/>
</g>
<!-- Node66&#45;&gt;Node18 -->
<g id="edge318" class="edge"><title>Node66&#45;&gt;Node18</title>
<path fill="none" stroke="midnightblue" d="M2368.33,-304.294C2367.26,-287.721 2363.43,-255.334 2349.75,-232 2342.92,-220.355 2332.24,-209.977 2322.34,-201.954"/>
<polygon fill="midnightblue" stroke="midnightblue" points="2324.36,-199.098 2314.3,-195.793 2320.11,-204.654 2324.36,-199.098"/>
</g>
</g>
</svg>
