<?xml version="1.0" encoding="UTF-8" standalone="no"?>
<!DOCTYPE svg PUBLIC "-//W3C//DTD SVG 1.1//EN"
 "http://www.w3.org/Graphics/SVG/1.1/DTD/svg11.dtd">
<!-- Generated by graphviz version 2.26.3 (20100126.1600)
 -->
<!-- Title: src/analysis/physics/scratch/sobotzik/Pi0Calib.h Pages: 1 -->
<svg width="152pt" height="116pt"
 viewBox="0.00 0.00 152.00 116.00" xmlns="http://www.w3.org/2000/svg" xmlns:xlink="http://www.w3.org/1999/xlink">
<g id="graph1" class="graph" transform="scale(1 1) rotate(0) translate(4 112)">
<title>src/analysis/physics/scratch/sobotzik/Pi0Calib.h</title>
<polygon fill="white" stroke="white" points="-4,5 -4,-112 149,-112 149,5 -4,5"/>
<!-- Node93 -->
<g id="node1" class="node"><title>Node93</title>
<polygon fill="#bfbfbf" stroke="black" points="2,-73 2,-107 142,-107 142,-73 2,-73"/>
<text text-anchor="start" x="10" y="-94" font-family="Helvetica,sans-Serif" font-size="10.00">src/analysis/physics</text>
<text text-anchor="middle" x="72" y="-81" font-family="Helvetica,sans-Serif" font-size="10.00">/scratch/sobotzik/Pi0Calib.h</text>
</g>
<!-- Node94 -->
<g id="node3" class="node"><title>Node94</title>
<a xlink:href="_pi0_calib_8cc.html" target="_top" xlink:title="src/analysis/physics\l/scratch/sobotzik/Pi0Calib.cc">
<polygon fill="white" stroke="black" points="-0.5,-1 -0.5,-35 144.5,-35 144.5,-1 -0.5,-1"/>
<text text-anchor="start" x="7.5" y="-22" font-family="Helvetica,sans-Serif" font-size="10.00">src/analysis/physics</text>
<text text-anchor="middle" x="72" y="-9" font-family="Helvetica,sans-Serif" font-size="10.00">/scratch/sobotzik/Pi0Calib.cc</text>
</a>
</g>
<!-- Node93&#45;&gt;Node94 -->
<g id="edge2" class="edge"><title>Node93&#45;&gt;Node94</title>
<path fill="none" stroke="midnightblue" d="M72,-62.7193C72,-53.572 72,-43.6255 72,-35.4407"/>
<polygon fill="midnightblue" stroke="midnightblue" points="68.5001,-62.937 72,-72.937 75.5001,-62.937 68.5001,-62.937"/>
</g>
</g>
</svg>
