<?xml version="1.0" encoding="UTF-8" standalone="no"?>
<!DOCTYPE svg PUBLIC "-//W3C//DTD SVG 1.1//EN"
 "http://www.w3.org/Graphics/SVG/1.1/DTD/svg11.dtd">
<!-- Generated by graphviz version 2.26.3 (20100126.1600)
 -->
<!-- Title: src/analysis/physics/Plotter.h Pages: 1 -->
<svg width="1561pt" height="296pt"
 viewBox="0.00 0.00 1561.00 296.00" xmlns="http://www.w3.org/2000/svg" xmlns:xlink="http://www.w3.org/1999/xlink">
<g id="graph1" class="graph" transform="scale(1 1) rotate(0) translate(4 292)">
<title>src/analysis/physics/Plotter.h</title>
<polygon fill="white" stroke="white" points="-4,5 -4,-292 1558,-292 1558,5 -4,5"/>
<!-- Node31 -->
<g id="node1" class="node"><title>Node31</title>
<polygon fill="#bfbfbf" stroke="black" points="643,-253 643,-287 749,-287 749,-253 643,-253"/>
<text text-anchor="start" x="651" y="-274" font-family="Helvetica,sans-Serif" font-size="10.00">src/analysis/physics</text>
<text text-anchor="middle" x="696" y="-261" font-family="Helvetica,sans-Serif" font-size="10.00">/Plotter.h</text>
</g>
<!-- Node32 -->
<g id="node3" class="node"><title>Node32</title>
<a xlink:href="_ant-plot_8cc.html" target="_top" xlink:title="progs/Ant&#45;plot.cc">
<polygon fill="white" stroke="black" points="-0.5,-181.5 -0.5,-202.5 90.5,-202.5 90.5,-181.5 -0.5,-181.5"/>
<text text-anchor="middle" x="45" y="-189.5" font-family="Helvetica,sans-Serif" font-size="10.00">progs/Ant&#45;plot.cc</text>
</a>
</g>
<!-- Node31&#45;&gt;Node32 -->
<g id="edge2" class="edge"><title>Node31&#45;&gt;Node32</title>
<path fill="none" stroke="midnightblue" d="M632.602,-266.894C500.236,-259.979 198.539,-241.864 99,-216 87.0846,-212.904 74.4746,-207.437 64.4394,-202.502"/>
<polygon fill="midnightblue" stroke="midnightblue" points="632.808,-270.409 642.976,-267.431 633.17,-263.418 632.808,-270.409"/>
</g>
<!-- Node33 -->
<g id="node5" class="node"><title>Node33</title>
<a xlink:href="_p_i_d_efficiency_check_8cc.html" target="_top" xlink:title="src/analysis/physics\l/check/PIDEfficiencyCheck.cc">
<polygon fill="white" stroke="black" points="108,-175 108,-209 260,-209 260,-175 108,-175"/>
<text text-anchor="start" x="116" y="-196" font-family="Helvetica,sans-Serif" font-size="10.00">src/analysis/physics</text>
<text text-anchor="middle" x="184" y="-183" font-family="Helvetica,sans-Serif" font-size="10.00">/check/PIDEfficiencyCheck.cc</text>
</a>
</g>
<!-- Node31&#45;&gt;Node33 -->
<g id="edge4" class="edge"><title>Node31&#45;&gt;Node33</title>
<path fill="none" stroke="midnightblue" d="M632.881,-264.988C549.129,-257.662 396.935,-241.999 269,-216 259.533,-214.076 249.578,-211.646 239.948,-209.074"/>
<polygon fill="midnightblue" stroke="midnightblue" points="632.733,-268.488 642.997,-265.861 633.335,-261.514 632.733,-268.488"/>
</g>
<!-- Node34 -->
<g id="node7" class="node"><title>Node34</title>
<a xlink:href="_meson_dalitz_decays__plot_8cc.html" target="_top" xlink:title="src/analysis/physics\l/common/MesonDalitzDecays\l_plot.cc">
<polygon fill="white" stroke="black" points="277.5,-168.5 277.5,-215.5 426.5,-215.5 426.5,-168.5 277.5,-168.5"/>
<text text-anchor="start" x="285.5" y="-202.5" font-family="Helvetica,sans-Serif" font-size="10.00">src/analysis/physics</text>
<text text-anchor="start" x="285.5" y="-189.5" font-family="Helvetica,sans-Serif" font-size="10.00">/common/MesonDalitzDecays</text>
<text text-anchor="middle" x="352" y="-176.5" font-family="Helvetica,sans-Serif" font-size="10.00">_plot.cc</text>
</a>
</g>
<!-- Node31&#45;&gt;Node34 -->
<g id="edge6" class="edge"><title>Node31&#45;&gt;Node34</title>
<path fill="none" stroke="midnightblue" d="M632.8,-258.346C579.749,-248.225 502.092,-232.614 435,-216 432.234,-215.315 429.421,-214.599 426.583,-213.862"/>
<polygon fill="midnightblue" stroke="midnightblue" points="632.263,-261.807 642.741,-260.234 633.569,-254.93 632.263,-261.807"/>
</g>
<!-- Node35 -->
<g id="node9" class="node"><title>Node35</title>
<a xlink:href="_etap_dalitz__plot_8cc.html" target="_top" xlink:title="src/analysis/physics\l/etaprime/EtapDalitz\l_plot.cc">
<polygon fill="white" stroke="black" points="444,-168.5 444,-215.5 550,-215.5 550,-168.5 444,-168.5"/>
<text text-anchor="start" x="452" y="-202.5" font-family="Helvetica,sans-Serif" font-size="10.00">src/analysis/physics</text>
<text text-anchor="start" x="452" y="-189.5" font-family="Helvetica,sans-Serif" font-size="10.00">/etaprime/EtapDalitz</text>
<text text-anchor="middle" x="497" y="-176.5" font-family="Helvetica,sans-Serif" font-size="10.00">_plot.cc</text>
</a>
</g>
<!-- Node31&#45;&gt;Node35 -->
<g id="edge8" class="edge"><title>Node31&#45;&gt;Node35</title>
<path fill="none" stroke="midnightblue" d="M642.868,-249.174C614.165,-237.924 578.832,-224.075 550.129,-212.825"/>
<polygon fill="midnightblue" stroke="midnightblue" points="641.741,-252.492 652.329,-252.883 644.296,-245.975 641.741,-252.492"/>
</g>
<!-- Node36 -->
<g id="node11" class="node"><title>Node36</title>
<a xlink:href="_etap_omega_g__plot_8cc.html" target="_top" xlink:title="src/analysis/physics\l/etaprime/EtapOmegaG\l_plot.cc">
<polygon fill="white" stroke="black" points="567.5,-168.5 567.5,-215.5 686.5,-215.5 686.5,-168.5 567.5,-168.5"/>
<text text-anchor="start" x="575.5" y="-202.5" font-family="Helvetica,sans-Serif" font-size="10.00">src/analysis/physics</text>
<text text-anchor="start" x="575.5" y="-189.5" font-family="Helvetica,sans-Serif" font-size="10.00">/etaprime/EtapOmegaG</text>
<text text-anchor="middle" x="627" y="-176.5" font-family="Helvetica,sans-Serif" font-size="10.00">_plot.cc</text>
</a>
</g>
<!-- Node31&#45;&gt;Node36 -->
<g id="edge10" class="edge"><title>Node31&#45;&gt;Node36</title>
<path fill="none" stroke="midnightblue" d="M674.015,-245.147C665.696,-235.744 656.255,-225.071 648.027,-215.77"/>
<polygon fill="midnightblue" stroke="midnightblue" points="671.439,-247.518 680.687,-252.689 676.682,-242.88 671.439,-247.518"/>
</g>
<!-- Node37 -->
<g id="node13" class="node"><title>Node37</title>
<a xlink:href="_omega___eta_g_8cc.html" target="_top" xlink:title="src/analysis/physics\l/omega/Omega_EtaG.cc">
<polygon fill="white" stroke="black" points="703.5,-175 703.5,-209 828.5,-209 828.5,-175 703.5,-175"/>
<text text-anchor="start" x="711.5" y="-196" font-family="Helvetica,sans-Serif" font-size="10.00">src/analysis/physics</text>
<text text-anchor="middle" x="766" y="-183" font-family="Helvetica,sans-Serif" font-size="10.00">/omega/Omega_EtaG.cc</text>
</a>
</g>
<!-- Node31&#45;&gt;Node37 -->
<g id="edge12" class="edge"><title>Node31&#45;&gt;Node37</title>
<path fill="none" stroke="midnightblue" d="M718.446,-244.988C728.907,-233.333 741.091,-219.755 750.508,-209.262"/>
<polygon fill="midnightblue" stroke="midnightblue" points="715.61,-242.909 711.535,-252.689 720.819,-247.585 715.61,-242.909"/>
</g>
<!-- Node38 -->
<g id="node15" class="node"><title>Node38</title>
<a xlink:href="_plotter_8cc.html" target="_top" xlink:title="src/analysis/physics\l/Plotter.cc">
<polygon fill="white" stroke="black" points="846,-175 846,-209 952,-209 952,-175 846,-175"/>
<text text-anchor="start" x="854" y="-196" font-family="Helvetica,sans-Serif" font-size="10.00">src/analysis/physics</text>
<text text-anchor="middle" x="899" y="-183" font-family="Helvetica,sans-Serif" font-size="10.00">/Plotter.cc</text>
</a>
</g>
<!-- Node31&#45;&gt;Node38 -->
<g id="edge14" class="edge"><title>Node31&#45;&gt;Node38</title>
<path fill="none" stroke="midnightblue" d="M750.173,-249.305C776.404,-239.271 808.35,-227.031 837,-216 842.817,-213.76 848.938,-211.398 854.977,-209.064"/>
<polygon fill="midnightblue" stroke="midnightblue" points="748.875,-246.054 740.785,-252.895 751.375,-252.592 748.875,-246.054"/>
</g>
<!-- Node39 -->
<g id="node17" class="node"><title>Node39</title>
<a xlink:href="triple_pi0_8cc.html" target="_top" xlink:title="src/analysis/physics\l/production/triplePi0.cc">
<polygon fill="white" stroke="black" points="823,-7 823,-41 939,-41 939,-7 823,-7"/>
<text text-anchor="start" x="831" y="-28" font-family="Helvetica,sans-Serif" font-size="10.00">src/analysis/physics</text>
<text text-anchor="middle" x="881" y="-15" font-family="Helvetica,sans-Serif" font-size="10.00">/production/triplePi0.cc</text>
</a>
</g>
<!-- Node31&#45;&gt;Node39 -->
<g id="edge16" class="edge"><title>Node31&#45;&gt;Node39</title>
<path fill="none" stroke="midnightblue" d="M759.284,-266.096C829.435,-260.293 936.017,-246.587 961,-216 1006,-160.904 934.369,-76.9058 898.96,-41.1145"/>
<polygon fill="midnightblue" stroke="midnightblue" points="758.904,-262.615 749.213,-266.896 759.459,-269.593 758.904,-262.615"/>
</g>
<!-- Node40 -->
<g id="node19" class="node"><title>Node40</title>
<a xlink:href="src_2analysis_2physics_2scratch_2wolfes_2tools_2tools_8h.html" target="_top" xlink:title="src/analysis/physics\l/scratch/wolfes/tools\l/tools.h">
<polygon fill="white" stroke="black" points="1092.5,-168.5 1092.5,-215.5 1199.5,-215.5 1199.5,-168.5 1092.5,-168.5"/>
<text text-anchor="start" x="1100.5" y="-202.5" font-family="Helvetica,sans-Serif" font-size="10.00">src/analysis/physics</text>
<text text-anchor="start" x="1100.5" y="-189.5" font-family="Helvetica,sans-Serif" font-size="10.00">/scratch/wolfes/tools</text>
<text text-anchor="middle" x="1146" y="-176.5" font-family="Helvetica,sans-Serif" font-size="10.00">/tools.h</text>
</a>
</g>
<!-- Node31&#45;&gt;Node40 -->
<g id="edge18" class="edge"><title>Node31&#45;&gt;Node40</title>
<path fill="none" stroke="midnightblue" d="M759.352,-259.019C848.365,-243.59 1008.88,-215.768 1092.33,-201.302"/>
<polygon fill="midnightblue" stroke="midnightblue" points="758.643,-255.59 749.388,-260.746 759.839,-262.487 758.643,-255.59"/>
</g>
<!-- Node48 -->
<g id="node38" class="node"><title>Node48</title>
<a xlink:href="physics_2tunings_2_trigger_simulation_8cc.html" target="_top" xlink:title="src/analysis/physics\l/tunings/TriggerSimulation.cc">
<polygon fill="white" stroke="black" points="1216.5,-175 1216.5,-209 1359.5,-209 1359.5,-175 1216.5,-175"/>
<text text-anchor="start" x="1224.5" y="-196" font-family="Helvetica,sans-Serif" font-size="10.00">src/analysis/physics</text>
<text text-anchor="middle" x="1288" y="-183" font-family="Helvetica,sans-Serif" font-size="10.00">/tunings/TriggerSimulation.cc</text>
</a>
</g>
<!-- Node31&#45;&gt;Node48 -->
<g id="edge40" class="edge"><title>Node31&#45;&gt;Node48</title>
<path fill="none" stroke="midnightblue" d="M759.448,-267.114C856.774,-261.835 1048.41,-248.063 1208,-216 1217.24,-214.143 1226.95,-211.682 1236.28,-209.044"/>
<polygon fill="midnightblue" stroke="midnightblue" points="758.992,-263.634 749.191,-267.658 759.363,-270.624 758.992,-263.634"/>
</g>
<!-- Node41 -->
<g id="node21" class="node"><title>Node41</title>
<a xlink:href="single_pi0_8h.html" target="_top" xlink:title="src/analysis/physics\l/production/singlePi0.h">
<polygon fill="white" stroke="black" points="1336,-91 1336,-125 1452,-125 1452,-91 1336,-91"/>
<text text-anchor="start" x="1344" y="-112" font-family="Helvetica,sans-Serif" font-size="10.00">src/analysis/physics</text>
<text text-anchor="middle" x="1394" y="-99" font-family="Helvetica,sans-Serif" font-size="10.00">/production/singlePi0.h</text>
</a>
</g>
<!-- Node40&#45;&gt;Node41 -->
<g id="edge20" class="edge"><title>Node40&#45;&gt;Node41</title>
<path fill="none" stroke="midnightblue" d="M1209.21,-167.679C1261.92,-149.888 1277.4,-148.375 1327,-132 1333.57,-129.831 1340.47,-127.462 1347.25,-125.085"/>
<polygon fill="midnightblue" stroke="midnightblue" points="1208.01,-164.392 1199.68,-170.936 1210.27,-171.016 1208.01,-164.392"/>
</g>
<!-- Node43 -->
<g id="node25" class="node"><title>Node43</title>
<a xlink:href="single_pi0_plots_8cc.html" target="_top" xlink:title="src/analysis/physics\l/production/singlePi0Plots.cc">
<polygon fill="white" stroke="black" points="1272.5,-7 1272.5,-41 1415.5,-41 1415.5,-7 1272.5,-7"/>
<text text-anchor="start" x="1280.5" y="-28" font-family="Helvetica,sans-Serif" font-size="10.00">src/analysis/physics</text>
<text text-anchor="middle" x="1344" y="-15" font-family="Helvetica,sans-Serif" font-size="10.00">/production/singlePi0Plots.cc</text>
</a>
</g>
<!-- Node40&#45;&gt;Node43 -->
<g id="edge26" class="edge"><title>Node40&#45;&gt;Node43</title>
<path fill="none" stroke="midnightblue" d="M1160.47,-158.933C1173.04,-131.396 1191.07,-94.9785 1203,-84 1217.05,-71.0765 1259.65,-53.7887 1294.38,-41.0901"/>
<polygon fill="midnightblue" stroke="midnightblue" points="1157.19,-157.692 1156.27,-168.246 1163.57,-160.57 1157.19,-157.692"/>
</g>
<!-- Node44 -->
<g id="node28" class="node"><title>Node44</title>
<a xlink:href="triple_pi0_8h.html" target="_top" xlink:title="src/analysis/physics\l/production/triplePi0.h">
<polygon fill="white" stroke="black" points="1007.5,-91 1007.5,-125 1118.5,-125 1118.5,-91 1007.5,-91"/>
<text text-anchor="start" x="1015.5" y="-112" font-family="Helvetica,sans-Serif" font-size="10.00">src/analysis/physics</text>
<text text-anchor="middle" x="1063" y="-99" font-family="Helvetica,sans-Serif" font-size="10.00">/production/triplePi0.h</text>
</a>
</g>
<!-- Node40&#45;&gt;Node44 -->
<g id="edge28" class="edge"><title>Node40&#45;&gt;Node44</title>
<path fill="none" stroke="midnightblue" d="M1115.23,-160.858C1103.33,-148.812 1090.16,-135.488 1080.02,-125.23"/>
<polygon fill="midnightblue" stroke="midnightblue" points="1112.92,-163.5 1122.44,-168.154 1117.9,-158.58 1112.92,-163.5"/>
</g>
<!-- Node46 -->
<g id="node33" class="node"><title>Node46</title>
<a xlink:href="_proton_vertex_test_8cc.html" target="_top" xlink:title="src/analysis/physics\l/scratch/wolfes/ProtonVertex\lTest.cc">
<polygon fill="white" stroke="black" points="1112.5,-0.5 1112.5,-47.5 1255.5,-47.5 1255.5,-0.5 1112.5,-0.5"/>
<text text-anchor="start" x="1120.5" y="-34.5" font-family="Helvetica,sans-Serif" font-size="10.00">src/analysis/physics</text>
<text text-anchor="start" x="1120.5" y="-21.5" font-family="Helvetica,sans-Serif" font-size="10.00">/scratch/wolfes/ProtonVertex</text>
<text text-anchor="middle" x="1184" y="-8.5" font-family="Helvetica,sans-Serif" font-size="10.00">Test.cc</text>
</a>
</g>
<!-- Node40&#45;&gt;Node46 -->
<g id="edge36" class="edge"><title>Node40&#45;&gt;Node46</title>
<path fill="none" stroke="midnightblue" d="M1153.35,-158.51C1158.05,-137.172 1164.32,-108.946 1170,-84 1172.73,-72.0062 1175.83,-58.6803 1178.42,-47.6393"/>
<polygon fill="midnightblue" stroke="midnightblue" points="1149.9,-157.869 1151.17,-168.388 1156.74,-159.374 1149.9,-157.869"/>
</g>
<!-- Node47 -->
<g id="node36" class="node"><title>Node47</title>
<a xlink:href="tools_8cc.html" target="_top" xlink:title="src/analysis/physics\l/scratch/wolfes/tools\l/tools.cc">
<polygon fill="white" stroke="black" points="1211.5,-84.5 1211.5,-131.5 1318.5,-131.5 1318.5,-84.5 1211.5,-84.5"/>
<text text-anchor="start" x="1219.5" y="-118.5" font-family="Helvetica,sans-Serif" font-size="10.00">src/analysis/physics</text>
<text text-anchor="start" x="1219.5" y="-105.5" font-family="Helvetica,sans-Serif" font-size="10.00">/scratch/wolfes/tools</text>
<text text-anchor="middle" x="1265" y="-92.5" font-family="Helvetica,sans-Serif" font-size="10.00">/tools.cc</text>
</a>
</g>
<!-- Node40&#45;&gt;Node47 -->
<g id="edge38" class="edge"><title>Node40&#45;&gt;Node47</title>
<path fill="none" stroke="midnightblue" d="M1187.68,-162.578C1201.98,-152.484 1217.79,-141.322 1231.37,-131.736"/>
<polygon fill="midnightblue" stroke="midnightblue" points="1185.62,-159.752 1179.46,-168.378 1189.65,-165.47 1185.62,-159.752"/>
</g>
<!-- Node42 -->
<g id="node23" class="node"><title>Node42</title>
<a xlink:href="single_pi0_8cc.html" target="_top" xlink:title="src/analysis/physics\l/production/singlePi0.cc">
<polygon fill="white" stroke="black" points="1432.5,-7 1432.5,-41 1553.5,-41 1553.5,-7 1432.5,-7"/>
<text text-anchor="start" x="1440.5" y="-28" font-family="Helvetica,sans-Serif" font-size="10.00">src/analysis/physics</text>
<text text-anchor="middle" x="1493" y="-15" font-family="Helvetica,sans-Serif" font-size="10.00">/production/singlePi0.cc</text>
</a>
</g>
<!-- Node41&#45;&gt;Node42 -->
<g id="edge22" class="edge"><title>Node41&#45;&gt;Node42</title>
<path fill="none" stroke="midnightblue" d="M1422.55,-83.7725C1438.65,-70.1135 1458.37,-53.3795 1472.85,-41.0952"/>
<polygon fill="midnightblue" stroke="midnightblue" points="1419.87,-81.4565 1414.51,-90.5951 1424.4,-86.7941 1419.87,-81.4565"/>
</g>
<!-- Node41&#45;&gt;Node43 -->
<g id="edge24" class="edge"><title>Node41&#45;&gt;Node43</title>
<path fill="none" stroke="midnightblue" d="M1378.45,-81.8741C1370.54,-68.5876 1361.15,-52.816 1354.18,-41.0952"/>
<polygon fill="midnightblue" stroke="midnightblue" points="1375.52,-83.7924 1383.64,-90.5951 1381.53,-80.212 1375.52,-83.7924"/>
</g>
<!-- Node44&#45;&gt;Node39 -->
<g id="edge30" class="edge"><title>Node44&#45;&gt;Node39</title>
<path fill="none" stroke="midnightblue" d="M1016.54,-86.5555C985.919,-72.424 946.372,-54.1717 917.908,-41.0346"/>
<polygon fill="midnightblue" stroke="midnightblue" points="1015.18,-89.7859 1025.73,-90.7986 1018.12,-83.4301 1015.18,-89.7859"/>
</g>
<!-- Node45 -->
<g id="node31" class="node"><title>Node45</title>
<a xlink:href="triple_pi0_plots_8cc.html" target="_top" xlink:title="src/analysis/physics\l/production/triplePi0Plots.cc">
<polygon fill="white" stroke="black" points="956.5,-7 956.5,-41 1095.5,-41 1095.5,-7 956.5,-7"/>
<text text-anchor="start" x="964.5" y="-28" font-family="Helvetica,sans-Serif" font-size="10.00">src/analysis/physics</text>
<text text-anchor="middle" x="1026" y="-15" font-family="Helvetica,sans-Serif" font-size="10.00">/production/triplePi0Plots.cc</text>
</a>
</g>
<!-- Node44&#45;&gt;Node45 -->
<g id="edge32" class="edge"><title>Node44&#45;&gt;Node45</title>
<path fill="none" stroke="midnightblue" d="M1051.15,-81.1049C1045.37,-67.9825 1038.59,-52.5906 1033.53,-41.0952"/>
<polygon fill="midnightblue" stroke="midnightblue" points="1048.1,-82.8545 1055.33,-90.5951 1054.51,-80.0327 1048.1,-82.8545"/>
</g>
<!-- Node44&#45;&gt;Node46 -->
<g id="edge34" class="edge"><title>Node44&#45;&gt;Node46</title>
<path fill="none" stroke="midnightblue" d="M1096.18,-84.9661C1112.93,-73.3355 1133.23,-59.2487 1150.08,-47.5471"/>
<polygon fill="midnightblue" stroke="midnightblue" points="1094,-82.2208 1087.78,-90.7986 1097.99,-87.971 1094,-82.2208"/>
</g>
</g>
</svg>
