<?xml version="1.0" encoding="UTF-8" standalone="no"?>
<!DOCTYPE svg PUBLIC "-//W3C//DTD SVG 1.1//EN"
 "http://www.w3.org/Graphics/SVG/1.1/DTD/svg11.dtd">
<!-- Generated by graphviz version 2.26.3 (20100126.1600)
 -->
<!-- Title: src/analysis/input/pluto/PlutoReader.h Pages: 1 -->
<svg width="1192pt" height="334pt"
 viewBox="0.00 0.00 1191.84 334.00" xmlns="http://www.w3.org/2000/svg" xmlns:xlink="http://www.w3.org/1999/xlink">
<g id="graph1" class="graph" transform="scale(1 1) rotate(0) translate(4 330)">
<title>src/analysis/input/pluto/PlutoReader.h</title>
<polygon fill="white" stroke="white" points="-4,5 -4,-330 1188.84,-330 1188.84,5 -4,5"/>
<!-- Node0 -->
<g id="node1" class="node"><title>Node0</title>
<polygon fill="#bfbfbf" stroke="black" points="657,-291 657,-325 763,-325 763,-291 657,-291"/>
<text text-anchor="start" x="665" y="-312" font-family="Helvetica,sans-Serif" font-size="10.00">src/analysis/input</text>
<text text-anchor="middle" x="710" y="-299" font-family="Helvetica,sans-Serif" font-size="10.00">/pluto/PlutoReader.h</text>
</g>
<!-- Node1 -->
<g id="node3" class="node"><title>Node1</title>
<a xlink:href="_data_reader_8h.html" target="_top" xlink:title="analysis/input/DataReader.h">
<polygon fill="white" stroke="black" points="200,-232.5 200,-253.5 340,-253.5 340,-232.5 200,-232.5"/>
<text text-anchor="middle" x="270" y="-240.5" font-family="Helvetica,sans-Serif" font-size="10.00">analysis/input/DataReader.h</text>
</a>
</g>
<!-- Node0&#45;&gt;Node1 -->
<g id="edge2" class="edge"><title>Node0&#45;&gt;Node1</title>
<path fill="none" stroke="midnightblue" d="M656.926,-300.159C580.666,-288.894 439.491,-268.038 350.386,-254.875"/>
<polygon fill="midnightblue" stroke="midnightblue" points="350.727,-251.388 340.323,-253.389 349.704,-258.313 350.727,-251.388"/>
</g>
<!-- Node5 -->
<g id="node11" class="node"><title>Node5</title>
<polygon fill="white" stroke="#bfbfbf" points="0,-58.5 0,-79.5 52,-79.5 52,-58.5 0,-58.5"/>
<text text-anchor="middle" x="26" y="-66.5" font-family="Helvetica,sans-Serif" font-size="10.00">memory</text>
</g>
<!-- Node0&#45;&gt;Node5 -->
<g id="edge94" class="edge"><title>Node0&#45;&gt;Node5</title>
<path fill="none" stroke="midnightblue" d="M656.91,-305.623C542.463,-299.991 275.998,-284.003 191,-254 101.606,-222.445 57.2747,-221.29 12,-138 3.74711,-122.817 8.87914,-103.361 15.1295,-88.9807"/>
<polygon fill="midnightblue" stroke="midnightblue" points="18.2926,-90.4789 19.4845,-79.9513 11.9877,-87.4379 18.2926,-90.4789"/>
</g>
<!-- Node7 -->
<g id="node15" class="node"><title>Node7</title>
<a xlink:href="_a2_geo_acceptance_8h.html" target="_top" xlink:title="analysis/utils/A2GeoAcceptance.h">
<polygon fill="white" stroke="black" points="571.5,-232.5 571.5,-253.5 738.5,-253.5 738.5,-232.5 571.5,-232.5"/>
<text text-anchor="middle" x="655" y="-240.5" font-family="Helvetica,sans-Serif" font-size="10.00">analysis/utils/A2GeoAcceptance.h</text>
</a>
</g>
<!-- Node0&#45;&gt;Node7 -->
<g id="edge14" class="edge"><title>Node0&#45;&gt;Node7</title>
<path fill="none" stroke="midnightblue" d="M695.549,-290.922C687.947,-281.937 678.612,-270.905 670.816,-261.691"/>
<polygon fill="midnightblue" stroke="midnightblue" points="673.314,-259.225 664.183,-253.852 667.97,-263.747 673.314,-259.225"/>
</g>
<!-- Node24 -->
<g id="node55" class="node"><title>Node24</title>
<polygon fill="white" stroke="#bfbfbf" points="694.5,-116.5 694.5,-137.5 735.5,-137.5 735.5,-116.5 694.5,-116.5"/>
<text text-anchor="middle" x="715" y="-124.5" font-family="Helvetica,sans-Serif" font-size="10.00">string</text>
</g>
<!-- Node0&#45;&gt;Node24 -->
<g id="edge96" class="edge"><title>Node0&#45;&gt;Node24</title>
<path fill="none" stroke="midnightblue" d="M656.643,-295.254C619.315,-285.132 574.204,-270.052 563,-254 525.109,-199.714 630.169,-155.253 684.605,-136.541"/>
<polygon fill="midnightblue" stroke="midnightblue" points="685.763,-139.844 694.134,-133.35 683.54,-133.206 685.763,-139.844"/>
</g>
<!-- Node26 -->
<g id="node60" class="node"><title>Node26</title>
<a xlink:href="_particle_type_8h.html" target="_top" xlink:title="base/ParticleType.h">
<polygon fill="white" stroke="black" points="909,-174.5 909,-195.5 1013,-195.5 1013,-174.5 909,-174.5"/>
<text text-anchor="middle" x="961" y="-182.5" font-family="Helvetica,sans-Serif" font-size="10.00">base/ParticleType.h</text>
</a>
</g>
<!-- Node0&#45;&gt;Node26 -->
<g id="edge66" class="edge"><title>Node0&#45;&gt;Node26</title>
<path fill="none" stroke="midnightblue" d="M731.869,-290.725C753.885,-273.969 789.319,-248.694 823,-232 851.275,-217.985 884.745,-206.473 911.64,-198.35"/>
<polygon fill="midnightblue" stroke="midnightblue" points="912.634,-201.706 921.23,-195.512 910.648,-194.993 912.634,-201.706"/>
</g>
<!-- Node29 -->
<g id="node71" class="node"><title>Node29</title>
<a xlink:href="_wrap_t_tree_8h.html" target="_top" xlink:title="base/WrapTTree.h">
<polygon fill="white" stroke="black" points="715,-174.5 715,-195.5 813,-195.5 813,-174.5 715,-174.5"/>
<text text-anchor="middle" x="764" y="-182.5" font-family="Helvetica,sans-Serif" font-size="10.00">base/WrapTTree.h</text>
</a>
</g>
<!-- Node0&#45;&gt;Node29 -->
<g id="edge82" class="edge"><title>Node0&#45;&gt;Node29</title>
<path fill="none" stroke="midnightblue" d="M724.04,-290.957C731.803,-280.776 741.053,-267.276 747,-254 753.925,-238.541 758.311,-219.817 760.891,-205.777"/>
<polygon fill="midnightblue" stroke="midnightblue" points="764.383,-206.114 762.586,-195.673 757.48,-204.956 764.383,-206.114"/>
</g>
<!-- Node31 -->
<g id="node81" class="node"><title>Node31</title>
<polygon fill="white" stroke="#bfbfbf" points="831.5,-232.5 831.5,-253.5 860.5,-253.5 860.5,-232.5 831.5,-232.5"/>
<text text-anchor="middle" x="846" y="-240.5" font-family="Helvetica,sans-Serif" font-size="10.00">list</text>
</g>
<!-- Node0&#45;&gt;Node31 -->
<g id="edge98" class="edge"><title>Node0&#45;&gt;Node31</title>
<path fill="none" stroke="midnightblue" d="M745.732,-290.922C769.783,-279.427 800.845,-264.581 821.98,-254.48"/>
<polygon fill="midnightblue" stroke="midnightblue" points="823.694,-257.54 831.207,-250.07 820.675,-251.225 823.694,-257.54"/>
</g>
<!-- Node32 -->
<g id="node83" class="node"><title>Node32</title>
<polygon fill="white" stroke="#bfbfbf" points="877.5,-232.5 877.5,-253.5 962.5,-253.5 962.5,-232.5 877.5,-232.5"/>
<text text-anchor="middle" x="920" y="-240.5" font-family="Helvetica,sans-Serif" font-size="10.00">TClonesArray.h</text>
</g>
<!-- Node0&#45;&gt;Node32 -->
<g id="edge100" class="edge"><title>Node0&#45;&gt;Node32</title>
<path fill="none" stroke="midnightblue" d="M763.263,-291.514C798.172,-280.709 843.251,-266.756 876.098,-256.589"/>
<polygon fill="midnightblue" stroke="midnightblue" points="877.356,-259.863 885.874,-253.563 875.287,-253.176 877.356,-259.863"/>
</g>
<!-- Node2 -->
<g id="node5" class="node"><title>Node2</title>
<a xlink:href="input_2event__t_8h.html" target="_top" xlink:title="event_t.h">
<polygon fill="white" stroke="black" points="134.5,-174.5 134.5,-195.5 191.5,-195.5 191.5,-174.5 134.5,-174.5"/>
<text text-anchor="middle" x="163" y="-182.5" font-family="Helvetica,sans-Serif" font-size="10.00">event_t.h</text>
</a>
</g>
<!-- Node1&#45;&gt;Node2 -->
<g id="edge4" class="edge"><title>Node1&#45;&gt;Node2</title>
<path fill="none" stroke="midnightblue" d="M250.375,-232.362C233.859,-223.409 210.026,-210.491 191.422,-200.406"/>
<polygon fill="midnightblue" stroke="midnightblue" points="192.96,-197.259 182.501,-195.571 189.625,-203.413 192.96,-197.259"/>
</g>
<!-- Node3 -->
<g id="node7" class="node"><title>Node3</title>
<a xlink:href="_t_event_8h.html" target="_top" xlink:title="tree/TEvent.h">
<polygon fill="white" stroke="black" points="21,-116.5 21,-137.5 97,-137.5 97,-116.5 21,-116.5"/>
<text text-anchor="middle" x="59" y="-124.5" font-family="Helvetica,sans-Serif" font-size="10.00">tree/TEvent.h</text>
</a>
</g>
<!-- Node2&#45;&gt;Node3 -->
<g id="edge6" class="edge"><title>Node2&#45;&gt;Node3</title>
<path fill="none" stroke="midnightblue" d="M143.925,-174.362C127.945,-165.45 104.919,-152.609 86.8733,-142.545"/>
<polygon fill="midnightblue" stroke="midnightblue" points="88.3927,-139.385 77.9543,-137.571 84.9832,-145.498 88.3927,-139.385"/>
</g>
<!-- Node4 -->
<g id="node9" class="node"><title>Node4</title>
<polygon fill="white" stroke="#bfbfbf" points="70,-58.5 70,-79.5 126,-79.5 126,-58.5 70,-58.5"/>
<text text-anchor="middle" x="98" y="-66.5" font-family="Helvetica,sans-Serif" font-size="10.00">Rtypes.h</text>
</g>
<!-- Node3&#45;&gt;Node4 -->
<g id="edge8" class="edge"><title>Node3&#45;&gt;Node4</title>
<path fill="none" stroke="midnightblue" d="M66.1532,-116.362C71.4858,-108.431 78.9112,-97.3885 85.2506,-87.9606"/>
<polygon fill="midnightblue" stroke="midnightblue" points="88.2166,-89.8221 90.8921,-79.5707 82.4077,-85.9161 88.2166,-89.8221"/>
</g>
<!-- Node3&#45;&gt;Node5 -->
<g id="edge10" class="edge"><title>Node3&#45;&gt;Node5</title>
<path fill="none" stroke="midnightblue" d="M52.9473,-116.362C48.5281,-108.595 42.4104,-97.8426 37.1209,-88.5458"/>
<polygon fill="midnightblue" stroke="midnightblue" points="40.0017,-86.5315 32.0143,-79.5707 33.9176,-89.9932 40.0017,-86.5315"/>
</g>
<!-- Node6 -->
<g id="node13" class="node"><title>Node6</title>
<polygon fill="white" stroke="#bfbfbf" points="276.5,-58.5 276.5,-79.5 335.5,-79.5 335.5,-58.5 276.5,-58.5"/>
<text text-anchor="middle" x="306" y="-66.5" font-family="Helvetica,sans-Serif" font-size="10.00">stdexcept</text>
</g>
<!-- Node3&#45;&gt;Node6 -->
<g id="edge12" class="edge"><title>Node3&#45;&gt;Node6</title>
<path fill="none" stroke="midnightblue" d="M97.0524,-118.065C142.972,-107.282 219.806,-89.2399 266.405,-78.2975"/>
<polygon fill="midnightblue" stroke="midnightblue" points="267.498,-81.6362 276.433,-75.9428 265.898,-74.8216 267.498,-81.6362"/>
</g>
<!-- Node8 -->
<g id="node17" class="node"><title>Node8</title>
<a xlink:href="interval_8h.html" target="_top" xlink:title="base/interval.h">
<polygon fill="white" stroke="black" points="935,-116.5 935,-137.5 1015,-137.5 1015,-116.5 935,-116.5"/>
<text text-anchor="middle" x="975" y="-124.5" font-family="Helvetica,sans-Serif" font-size="10.00">base/interval.h</text>
</a>
</g>
<!-- Node7&#45;&gt;Node8 -->
<g id="edge16" class="edge"><title>Node7&#45;&gt;Node8</title>
<path fill="none" stroke="midnightblue" d="M699.168,-232.489C733.166,-223.939 781.101,-210.883 822,-196 865.733,-180.085 914.45,-157.171 944.91,-142.186"/>
<polygon fill="midnightblue" stroke="midnightblue" points="946.722,-145.195 954.128,-137.618 943.614,-138.922 946.722,-145.195"/>
</g>
<!-- Node15 -->
<g id="node32" class="node"><title>Node15</title>
<a xlink:href="_detector__t_8h.html" target="_top" xlink:title="base/Detector_t.h">
<polygon fill="white" stroke="black" points="421.5,-174.5 421.5,-195.5 516.5,-195.5 516.5,-174.5 421.5,-174.5"/>
<text text-anchor="middle" x="469" y="-182.5" font-family="Helvetica,sans-Serif" font-size="10.00">base/Detector_t.h</text>
</a>
</g>
<!-- Node7&#45;&gt;Node15 -->
<g id="edge32" class="edge"><title>Node7&#45;&gt;Node15</title>
<path fill="none" stroke="midnightblue" d="M621.317,-232.497C590.863,-223 545.843,-208.962 512.642,-198.609"/>
<polygon fill="midnightblue" stroke="midnightblue" points="513.335,-195.159 502.746,-195.523 511.251,-201.841 513.335,-195.159"/>
</g>
<!-- Node8&#45;&gt;Node6 -->
<g id="edge22" class="edge"><title>Node8&#45;&gt;Node6</title>
<path fill="none" stroke="midnightblue" d="M934.764,-123.287C910.269,-121.069 878.34,-118.255 850,-116 628.545,-98.3794 567.731,-118.945 345.739,-80.0242"/>
<polygon fill="midnightblue" stroke="midnightblue" points="346.188,-76.5493 335.73,-78.2486 344.965,-83.4417 346.188,-76.5493"/>
</g>
<!-- Node9 -->
<g id="node19" class="node"><title>Node9</title>
<a xlink:href="types_8h.html" target="_top" xlink:title="types.h">
<polygon fill="white" stroke="black" points="1132.5,-58.5 1132.5,-79.5 1181.5,-79.5 1181.5,-58.5 1132.5,-58.5"/>
<text text-anchor="middle" x="1157" y="-66.5" font-family="Helvetica,sans-Serif" font-size="10.00">types.h</text>
</a>
</g>
<!-- Node8&#45;&gt;Node9 -->
<g id="edge18" class="edge"><title>Node8&#45;&gt;Node9</title>
<path fill="none" stroke="midnightblue" d="M1007.96,-116.497C1040.45,-106.142 1089.88,-90.3884 1122.8,-79.899"/>
<polygon fill="midnightblue" stroke="midnightblue" points="1123.98,-83.1957 1132.45,-76.8245 1121.86,-76.5262 1123.98,-83.1957"/>
</g>
<!-- Node10 -->
<g id="node21" class="node"><title>Node10</title>
<polygon fill="white" stroke="#bfbfbf" points="1017,-58.5 1017,-79.5 1073,-79.5 1073,-58.5 1017,-58.5"/>
<text text-anchor="middle" x="1045" y="-66.5" font-family="Helvetica,sans-Serif" font-size="10.00">algorithm</text>
</g>
<!-- Node8&#45;&gt;Node10 -->
<g id="edge20" class="edge"><title>Node8&#45;&gt;Node10</title>
<path fill="none" stroke="midnightblue" d="M987.839,-116.362C998.002,-107.941 1012.4,-96.0105 1024.2,-86.2308"/>
<polygon fill="midnightblue" stroke="midnightblue" points="1026.78,-88.6459 1032.24,-79.5707 1022.31,-83.2558 1026.78,-88.6459"/>
</g>
<!-- Node11 -->
<g id="node24" class="node"><title>Node11</title>
<polygon fill="white" stroke="#bfbfbf" points="777,-58.5 777,-79.5 817,-79.5 817,-58.5 777,-58.5"/>
<text text-anchor="middle" x="797" y="-66.5" font-family="Helvetica,sans-Serif" font-size="10.00">limits</text>
</g>
<!-- Node8&#45;&gt;Node11 -->
<g id="edge24" class="edge"><title>Node8&#45;&gt;Node11</title>
<path fill="none" stroke="midnightblue" d="M942.766,-116.497C909.769,-105.745 858.906,-89.1717 826.817,-78.7157"/>
<polygon fill="midnightblue" stroke="midnightblue" points="827.697,-75.3213 817.105,-75.5509 825.528,-81.9769 827.697,-75.3213"/>
</g>
<!-- Node12 -->
<g id="node26" class="node"><title>Node12</title>
<polygon fill="white" stroke="#bfbfbf" points="880.5,-58.5 880.5,-79.5 929.5,-79.5 929.5,-58.5 880.5,-58.5"/>
<text text-anchor="middle" x="905" y="-66.5" font-family="Helvetica,sans-Serif" font-size="10.00">istream</text>
</g>
<!-- Node8&#45;&gt;Node12 -->
<g id="edge26" class="edge"><title>Node8&#45;&gt;Node12</title>
<path fill="none" stroke="midnightblue" d="M962.161,-116.362C951.998,-107.941 937.599,-96.0105 925.796,-86.2308"/>
<polygon fill="midnightblue" stroke="midnightblue" points="927.691,-83.2558 917.758,-79.5707 923.225,-88.6459 927.691,-83.2558"/>
</g>
<!-- Node13 -->
<g id="node28" class="node"><title>Node13</title>
<polygon fill="white" stroke="#bfbfbf" points="947,-58.5 947,-79.5 999,-79.5 999,-58.5 947,-58.5"/>
<text text-anchor="middle" x="973" y="-66.5" font-family="Helvetica,sans-Serif" font-size="10.00">sstream</text>
</g>
<!-- Node8&#45;&gt;Node13 -->
<g id="edge28" class="edge"><title>Node8&#45;&gt;Node13</title>
<path fill="none" stroke="midnightblue" d="M974.633,-116.362C974.377,-108.922 974.026,-98.7427 973.715,-89.7276"/>
<polygon fill="midnightblue" stroke="midnightblue" points="977.207,-89.4441 973.365,-79.5707 970.211,-89.6854 977.207,-89.4441"/>
</g>
<!-- Node14 -->
<g id="node30" class="node"><title>Node14</title>
<polygon fill="white" stroke="#bfbfbf" points="537,-0.5 537,-21.5 581,-21.5 581,-0.5 537,-0.5"/>
<text text-anchor="middle" x="559" y="-8.5" font-family="Helvetica,sans-Serif" font-size="10.00">cmath</text>
</g>
<!-- Node8&#45;&gt;Node14 -->
<g id="edge30" class="edge"><title>Node8&#45;&gt;Node14</title>
<path fill="none" stroke="midnightblue" d="M951.628,-116.48C930.715,-107.032 899.246,-92.7303 872,-80 851.468,-70.4068 847.581,-64.9171 826,-58 743.776,-31.6454 642.285,-18.9269 591.365,-13.8348"/>
<polygon fill="midnightblue" stroke="midnightblue" points="591.583,-10.3396 581.292,-12.8618 590.909,-17.3071 591.583,-10.3396"/>
</g>
<!-- Node15&#45;&gt;Node6 -->
<g id="edge58" class="edge"><title>Node15&#45;&gt;Node6</title>
<path fill="none" stroke="midnightblue" d="M421.658,-174.483C385.435,-165.54 339.475,-151.961 326,-138 313.524,-125.074 308.756,-104.85 306.971,-89.6322"/>
<polygon fill="midnightblue" stroke="midnightblue" points="310.455,-89.285 306.132,-79.6122 303.479,-89.8695 310.455,-89.285"/>
</g>
<!-- Node16 -->
<g id="node34" class="node"><title>Node16</title>
<a xlink:href="bitflag_8h.html" target="_top" xlink:title="base/bitflag.h">
<polygon fill="white" stroke="black" points="334.5,-116.5 334.5,-137.5 409.5,-137.5 409.5,-116.5 334.5,-116.5"/>
<text text-anchor="middle" x="372" y="-124.5" font-family="Helvetica,sans-Serif" font-size="10.00">base/bitflag.h</text>
</a>
</g>
<!-- Node15&#45;&gt;Node16 -->
<g id="edge34" class="edge"><title>Node15&#45;&gt;Node16</title>
<path fill="none" stroke="midnightblue" d="M451.209,-174.362C436.441,-165.532 415.222,-152.844 398.462,-142.822"/>
<polygon fill="midnightblue" stroke="midnightblue" points="400.057,-139.699 389.679,-137.571 396.465,-145.707 400.057,-139.699"/>
</g>
<!-- Node18 -->
<g id="node38" class="node"><title>Node18</title>
<a xlink:href="vec3_8h.html" target="_top" xlink:title="base/vec/vec3.h">
<polygon fill="white" stroke="black" points="426.5,-116.5 426.5,-137.5 515.5,-137.5 515.5,-116.5 426.5,-116.5"/>
<text text-anchor="middle" x="471" y="-124.5" font-family="Helvetica,sans-Serif" font-size="10.00">base/vec/vec3.h</text>
</a>
</g>
<!-- Node15&#45;&gt;Node18 -->
<g id="edge38" class="edge"><title>Node15&#45;&gt;Node18</title>
<path fill="none" stroke="midnightblue" d="M469.367,-174.362C469.623,-166.922 469.974,-156.743 470.285,-147.728"/>
<polygon fill="midnightblue" stroke="midnightblue" points="473.789,-147.685 470.635,-137.571 466.793,-147.444 473.789,-147.685"/>
</g>
<!-- Node21 -->
<g id="node46" class="node"><title>Node21</title>
<a xlink:href="base_2std__ext_2math_8h.html" target="_top" xlink:title="base/std_ext/math.h">
<polygon fill="white" stroke="black" points="533,-116.5 533,-137.5 639,-137.5 639,-116.5 533,-116.5"/>
<text text-anchor="middle" x="586" y="-124.5" font-family="Helvetica,sans-Serif" font-size="10.00">base/std_ext/math.h</text>
</a>
</g>
<!-- Node15&#45;&gt;Node21 -->
<g id="edge48" class="edge"><title>Node15&#45;&gt;Node21</title>
<path fill="none" stroke="midnightblue" d="M490.188,-174.497C508.462,-165.438 535.072,-152.246 555.615,-142.063"/>
<polygon fill="midnightblue" stroke="midnightblue" points="557.169,-145.199 564.574,-137.621 554.06,-138.927 557.169,-145.199"/>
</g>
<!-- Node22 -->
<g id="node50" class="node"><title>Node22</title>
<polygon fill="white" stroke="#bfbfbf" points="704,-58.5 704,-79.5 748,-79.5 748,-58.5 704,-58.5"/>
<text text-anchor="middle" x="726" y="-66.5" font-family="Helvetica,sans-Serif" font-size="10.00">vector</text>
</g>
<!-- Node15&#45;&gt;Node22 -->
<g id="edge64" class="edge"><title>Node15&#45;&gt;Node22</title>
<path fill="none" stroke="midnightblue" d="M516.918,-175.053C561.875,-165.249 625.469,-150.033 648,-138 672.445,-124.945 695.581,-102.787 710.211,-87.1064"/>
<polygon fill="midnightblue" stroke="midnightblue" points="712.915,-89.335 717.048,-79.5797 707.734,-84.6282 712.915,-89.335"/>
</g>
<!-- Node23 -->
<g id="node52" class="node"><title>Node23</title>
<polygon fill="white" stroke="#bfbfbf" points="115,-116.5 115,-137.5 161,-137.5 161,-116.5 115,-116.5"/>
<text text-anchor="middle" x="138" y="-124.5" font-family="Helvetica,sans-Serif" font-size="10.00">cstdint</text>
</g>
<!-- Node15&#45;&gt;Node23 -->
<g id="edge56" class="edge"><title>Node15&#45;&gt;Node23</title>
<path fill="none" stroke="midnightblue" d="M421.363,-180.12C363.958,-173.666 264.548,-160.657 171.167,-137.974"/>
<polygon fill="midnightblue" stroke="midnightblue" points="171.825,-134.531 161.277,-135.529 170.145,-141.327 171.825,-134.531"/>
</g>
<!-- Node15&#45;&gt;Node24 -->
<g id="edge60" class="edge"><title>Node15&#45;&gt;Node24</title>
<path fill="none" stroke="midnightblue" d="M516.888,-175.733C560.064,-167.059 625.16,-153.186 681,-138 682.078,-137.707 683.172,-137.401 684.275,-137.085"/>
<polygon fill="midnightblue" stroke="midnightblue" points="685.683,-140.315 694.236,-134.062 683.65,-133.617 685.683,-140.315"/>
</g>
<!-- Node25 -->
<g id="node57" class="node"><title>Node25</title>
<polygon fill="white" stroke="#bfbfbf" points="179,-116.5 179,-137.5 241,-137.5 241,-116.5 179,-116.5"/>
<text text-anchor="middle" x="210" y="-124.5" font-family="Helvetica,sans-Serif" font-size="10.00">type_traits</text>
</g>
<!-- Node15&#45;&gt;Node25 -->
<g id="edge62" class="edge"><title>Node15&#45;&gt;Node25</title>
<path fill="none" stroke="midnightblue" d="M421.33,-174.867C377.914,-165.558 312.063,-151.239 255,-138 253.766,-137.714 252.514,-137.421 251.25,-137.124"/>
<polygon fill="midnightblue" stroke="midnightblue" points="251.988,-133.702 241.449,-134.787 250.365,-140.511 251.988,-133.702"/>
</g>
<!-- Node17 -->
<g id="node36" class="node"><title>Node17</title>
<polygon fill="white" stroke="#bfbfbf" points="352.5,-58.5 352.5,-79.5 393.5,-79.5 393.5,-58.5 352.5,-58.5"/>
<text text-anchor="middle" x="373" y="-66.5" font-family="Helvetica,sans-Serif" font-size="10.00">bitset</text>
</g>
<!-- Node16&#45;&gt;Node17 -->
<g id="edge36" class="edge"><title>Node16&#45;&gt;Node17</title>
<path fill="none" stroke="midnightblue" d="M372.183,-116.362C372.312,-108.922 372.487,-98.7427 372.643,-89.7276"/>
<polygon fill="midnightblue" stroke="midnightblue" points="376.145,-89.6295 372.818,-79.5707 369.146,-89.5088 376.145,-89.6295"/>
</g>
<!-- Node18&#45;&gt;Node14 -->
<g id="edge46" class="edge"><title>Node18&#45;&gt;Node14</title>
<path fill="none" stroke="midnightblue" d="M479.121,-116.295C494.052,-96.6135 526.038,-54.4504 544.687,-29.8668"/>
<polygon fill="midnightblue" stroke="midnightblue" points="547.643,-31.7615 550.899,-21.6792 542.066,-27.5308 547.643,-31.7615"/>
</g>
<!-- Node19 -->
<g id="node40" class="node"><title>Node19</title>
<a xlink:href="vec2_8h.html" target="_top" xlink:title="vec2.h">
<polygon fill="white" stroke="black" points="451,-58.5 451,-79.5 497,-79.5 497,-58.5 451,-58.5"/>
<text text-anchor="middle" x="474" y="-66.5" font-family="Helvetica,sans-Serif" font-size="10.00">vec2.h</text>
</a>
</g>
<!-- Node18&#45;&gt;Node19 -->
<g id="edge40" class="edge"><title>Node18&#45;&gt;Node19</title>
<path fill="none" stroke="midnightblue" d="M471.55,-116.362C471.935,-108.922 472.462,-98.7427 472.928,-89.7276"/>
<polygon fill="midnightblue" stroke="midnightblue" points="476.432,-89.7381 473.453,-79.5707 469.441,-89.3765 476.432,-89.7381"/>
</g>
<!-- Node20 -->
<g id="node43" class="node"><title>Node20</title>
<polygon fill="white" stroke="#bfbfbf" points="613,-58.5 613,-79.5 665,-79.5 665,-58.5 613,-58.5"/>
<text text-anchor="middle" x="639" y="-66.5" font-family="Helvetica,sans-Serif" font-size="10.00">ostream</text>
</g>
<!-- Node18&#45;&gt;Node20 -->
<g id="edge44" class="edge"><title>Node18&#45;&gt;Node20</title>
<path fill="none" stroke="midnightblue" d="M501.424,-116.497C530.053,-106.613 572.932,-91.809 603.197,-81.3606"/>
<polygon fill="midnightblue" stroke="midnightblue" points="604.628,-84.5694 612.938,-77.9976 602.343,-77.9527 604.628,-84.5694"/>
</g>
<!-- Node19&#45;&gt;Node14 -->
<g id="edge42" class="edge"><title>Node19&#45;&gt;Node14</title>
<path fill="none" stroke="midnightblue" d="M489.59,-58.3619C502.291,-49.6955 520.438,-37.3126 534.992,-27.3819"/>
<polygon fill="midnightblue" stroke="midnightblue" points="537.221,-30.0982 543.509,-21.5707 533.276,-24.316 537.221,-30.0982"/>
</g>
<!-- Node21&#45;&gt;Node11 -->
<g id="edge52" class="edge"><title>Node21&#45;&gt;Node11</title>
<path fill="none" stroke="midnightblue" d="M624.211,-116.497C665.243,-105.217 729.584,-87.5313 767.088,-77.2221"/>
<polygon fill="midnightblue" stroke="midnightblue" points="768.199,-80.5469 776.913,-74.5215 766.343,-73.7972 768.199,-80.5469"/>
</g>
<!-- Node21&#45;&gt;Node14 -->
<g id="edge50" class="edge"><title>Node21&#45;&gt;Node14</title>
<path fill="none" stroke="midnightblue" d="M583.508,-116.295C579.028,-97.0451 569.541,-56.2889 563.774,-31.5091"/>
<polygon fill="midnightblue" stroke="midnightblue" points="567.162,-30.6254 561.486,-21.6792 560.344,-32.2123 567.162,-30.6254"/>
</g>
<!-- Node21&#45;&gt;Node22 -->
<g id="edge54" class="edge"><title>Node21&#45;&gt;Node22</title>
<path fill="none" stroke="midnightblue" d="M611.353,-116.497C634.587,-106.871 669.084,-92.5796 694.165,-82.1887"/>
<polygon fill="midnightblue" stroke="midnightblue" points="695.708,-85.338 703.607,-78.277 693.029,-78.871 695.708,-85.338"/>
</g>
<!-- Node26&#45;&gt;Node8 -->
<g id="edge70" class="edge"><title>Node26&#45;&gt;Node8</title>
<path fill="none" stroke="midnightblue" d="M963.568,-174.362C965.383,-166.84 967.875,-156.519 970.068,-147.431"/>
<polygon fill="midnightblue" stroke="midnightblue" points="973.504,-148.113 972.448,-137.571 966.7,-146.47 973.504,-148.113"/>
</g>
<!-- Node26&#45;&gt;Node9 -->
<g id="edge68" class="edge"><title>Node26&#45;&gt;Node9</title>
<path fill="none" stroke="midnightblue" d="M1013.09,-181.091C1070.57,-175.568 1157.67,-163.203 1178,-138 1189.46,-123.795 1181.06,-103.399 1171.71,-88.4657"/>
<polygon fill="midnightblue" stroke="midnightblue" points="1174.45,-86.2726 1165.92,-79.978 1168.66,-90.2132 1174.45,-86.2726"/>
</g>
<!-- Node26&#45;&gt;Node20 -->
<g id="edge74" class="edge"><title>Node26&#45;&gt;Node20</title>
<path fill="none" stroke="midnightblue" d="M942.888,-174.404C926.987,-165.026 903.295,-150.87 883,-138 868.114,-128.56 866.211,-122.923 850,-116 834.038,-109.184 730.97,-87.6772 675.016,-76.2699"/>
<polygon fill="midnightblue" stroke="midnightblue" points="675.645,-72.8262 665.148,-74.2632 674.25,-79.6858 675.645,-72.8262"/>
</g>
<!-- Node26&#45;&gt;Node22 -->
<g id="edge80" class="edge"><title>Node26&#45;&gt;Node22</title>
<path fill="none" stroke="midnightblue" d="M951.751,-174.297C938.149,-159.197 911.283,-131.73 883,-116 871.951,-109.855 800.555,-89.5844 757.941,-77.7667"/>
<polygon fill="midnightblue" stroke="midnightblue" points="758.865,-74.3907 748.293,-75.0991 756.999,-81.1376 758.865,-74.3907"/>
</g>
<!-- Node26&#45;&gt;Node24 -->
<g id="edge72" class="edge"><title>Node26&#45;&gt;Node24</title>
<path fill="none" stroke="midnightblue" d="M916.451,-174.497C866.95,-162.826 788.353,-144.295 745.431,-134.175"/>
<polygon fill="midnightblue" stroke="midnightblue" points="746.114,-130.74 735.578,-131.852 744.508,-137.553 746.114,-130.74"/>
</g>
<!-- Node27 -->
<g id="node66" class="node"><title>Node27</title>
<polygon fill="white" stroke="#bfbfbf" points="1070.5,-116.5 1070.5,-137.5 1105.5,-137.5 1105.5,-116.5 1070.5,-116.5"/>
<text text-anchor="middle" x="1088" y="-124.5" font-family="Helvetica,sans-Serif" font-size="10.00">map</text>
</g>
<!-- Node26&#45;&gt;Node27 -->
<g id="edge76" class="edge"><title>Node26&#45;&gt;Node27</title>
<path fill="none" stroke="midnightblue" d="M983.999,-174.497C1005.76,-164.556 1038.43,-149.64 1061.32,-139.182"/>
<polygon fill="midnightblue" stroke="midnightblue" points="1062.84,-142.339 1070.48,-135.001 1059.93,-135.971 1062.84,-142.339"/>
</g>
<!-- Node28 -->
<g id="node68" class="node"><title>Node28</title>
<polygon fill="white" stroke="#bfbfbf" points="1122.5,-116.5 1122.5,-137.5 1169.5,-137.5 1169.5,-116.5 1122.5,-116.5"/>
<text text-anchor="middle" x="1146" y="-124.5" font-family="Helvetica,sans-Serif" font-size="10.00">iterator</text>
</g>
<!-- Node26&#45;&gt;Node28 -->
<g id="edge78" class="edge"><title>Node26&#45;&gt;Node28</title>
<path fill="none" stroke="midnightblue" d="M996.658,-174.41C1025.67,-165.713 1067.89,-152.873 1112.67,-138.375"/>
<polygon fill="midnightblue" stroke="midnightblue" points="1113.84,-141.677 1122.26,-135.257 1111.67,-135.02 1113.84,-141.677"/>
</g>
<!-- Node29&#45;&gt;Node5 -->
<g id="edge92" class="edge"><title>Node29&#45;&gt;Node5</title>
<path fill="none" stroke="midnightblue" d="M714.971,-182.541C633.546,-177.834 465.572,-165.47 326,-138 291.497,-131.209 284.198,-124.188 250,-116 169.926,-96.8287 145.712,-100.535 62.2054,-80.0933"/>
<polygon fill="midnightblue" stroke="midnightblue" points="62.8294,-76.6418 52.2797,-77.6196 61.1365,-83.4341 62.8294,-76.6418"/>
</g>
<!-- Node29&#45;&gt;Node10 -->
<g id="edge90" class="edge"><title>Node29&#45;&gt;Node10</title>
<path fill="none" stroke="midnightblue" d="M813.208,-182.127C879.714,-177.259 993.5,-165.136 1024,-138 1037.55,-125.944 1042.49,-105.442 1044.22,-89.9108"/>
<polygon fill="midnightblue" stroke="midnightblue" points="1047.73,-89.9073 1045,-79.6719 1040.75,-89.3795 1047.73,-89.9073"/>
</g>
<!-- Node29&#45;&gt;Node22 -->
<g id="edge86" class="edge"><title>Node29&#45;&gt;Node22</title>
<path fill="none" stroke="midnightblue" d="M761.159,-174.157C757.509,-160.494 750.828,-136.337 744,-116 741.028,-107.147 737.4,-97.4946 734.182,-89.2529"/>
<polygon fill="midnightblue" stroke="midnightblue" points="737.347,-87.7386 730.405,-79.7343 730.84,-90.3202 737.347,-87.7386"/>
</g>
<!-- Node29&#45;&gt;Node24 -->
<g id="edge88" class="edge"><title>Node29&#45;&gt;Node24</title>
<path fill="none" stroke="midnightblue" d="M755.013,-174.362C748.175,-166.268 738.598,-154.932 730.528,-145.38"/>
<polygon fill="midnightblue" stroke="midnightblue" points="733.058,-142.951 723.93,-137.571 727.71,-147.468 733.058,-142.951"/>
</g>
<!-- Node30 -->
<g id="node73" class="node"><title>Node30</title>
<polygon fill="white" stroke="#bfbfbf" points="791,-116.5 791,-137.5 841,-137.5 841,-116.5 791,-116.5"/>
<text text-anchor="middle" x="816" y="-124.5" font-family="Helvetica,sans-Serif" font-size="10.00">TTree.h</text>
</g>
<!-- Node29&#45;&gt;Node30 -->
<g id="edge84" class="edge"><title>Node29&#45;&gt;Node30</title>
<path fill="none" stroke="midnightblue" d="M773.538,-174.362C780.868,-166.186 791.163,-154.702 799.781,-145.091"/>
<polygon fill="midnightblue" stroke="midnightblue" points="802.453,-147.353 806.523,-137.571 797.241,-142.68 802.453,-147.353"/>
</g>
</g>
</svg>
