<?xml version="1.0" encoding="UTF-8" standalone="no"?>
<!DOCTYPE svg PUBLIC "-//W3C//DTD SVG 1.1//EN"
 "http://www.w3.org/Graphics/SVG/1.1/DTD/svg11.dtd">
<!-- Generated by graphviz version 2.26.3 (20100126.1600)
 -->
<!-- Title: src/analysis/input/pluto/PlutoReader.h Pages: 1 -->
<svg width="672pt" height="116pt"
 viewBox="0.00 0.00 672.00 116.00" xmlns="http://www.w3.org/2000/svg" xmlns:xlink="http://www.w3.org/1999/xlink">
<g id="graph1" class="graph" transform="scale(1 1) rotate(0) translate(4 112)">
<title>src/analysis/input/pluto/PlutoReader.h</title>
<polygon fill="white" stroke="white" points="-4,5 -4,-112 669,-112 669,5 -4,5"/>
<!-- Node33 -->
<g id="node1" class="node"><title>Node33</title>
<polygon fill="#bfbfbf" stroke="black" points="230,-73 230,-107 336,-107 336,-73 230,-73"/>
<text text-anchor="start" x="238" y="-94" font-family="Helvetica,sans-Serif" font-size="10.00">src/analysis/input</text>
<text text-anchor="middle" x="283" y="-81" font-family="Helvetica,sans-Serif" font-size="10.00">/pluto/PlutoReader.h</text>
</g>
<!-- Node34 -->
<g id="node3" class="node"><title>Node34</title>
<a xlink:href="_ant_8cc.html" target="_top" xlink:title="Main Ant executable. ">
<polygon fill="white" stroke="black" points="0,-7.5 0,-28.5 72,-28.5 72,-7.5 0,-7.5"/>
<text text-anchor="middle" x="36" y="-15.5" font-family="Helvetica,sans-Serif" font-size="10.00">progs/Ant.cc</text>
</a>
</g>
<!-- Node33&#45;&gt;Node34 -->
<g id="edge2" class="edge"><title>Node33&#45;&gt;Node34</title>
<path fill="none" stroke="midnightblue" d="M219.836,-75.1738C179.716,-65.2517 126.889,-51.251 81,-36 74.4524,-33.8239 67.4823,-31.1951 61.0323,-28.6268"/>
<polygon fill="midnightblue" stroke="midnightblue" points="219.204,-78.6225 229.75,-77.6067 220.872,-71.8242 219.204,-78.6225"/>
</g>
<!-- Node35 -->
<g id="node5" class="node"><title>Node35</title>
<a xlink:href="_pluto_reader_8cc.html" target="_top" xlink:title="src/analysis/input\l/pluto/PlutoReader.cc">
<polygon fill="white" stroke="black" points="89.5,-1 89.5,-35 200.5,-35 200.5,-1 89.5,-1"/>
<text text-anchor="start" x="97.5" y="-22" font-family="Helvetica,sans-Serif" font-size="10.00">src/analysis/input</text>
<text text-anchor="middle" x="145" y="-9" font-family="Helvetica,sans-Serif" font-size="10.00">/pluto/PlutoReader.cc</text>
</a>
</g>
<!-- Node33&#45;&gt;Node35 -->
<g id="edge4" class="edge"><title>Node33&#45;&gt;Node35</title>
<path fill="none" stroke="midnightblue" d="M241.267,-68.2264C220.973,-57.6383 196.929,-45.0936 177.948,-35.19"/>
<polygon fill="midnightblue" stroke="midnightblue" points="239.811,-71.4143 250.296,-72.937 243.049,-65.2082 239.811,-71.4143"/>
</g>
<!-- Node36 -->
<g id="node7" class="node"><title>Node36</title>
<a xlink:href="_test_fitter_8cc.html" target="_top" xlink:title="test/analysis/TestFitter.cc">
<polygon fill="white" stroke="black" points="217.5,-7.5 217.5,-28.5 348.5,-28.5 348.5,-7.5 217.5,-7.5"/>
<text text-anchor="middle" x="283" y="-15.5" font-family="Helvetica,sans-Serif" font-size="10.00">test/analysis/TestFitter.cc</text>
</a>
</g>
<!-- Node33&#45;&gt;Node36 -->
<g id="edge6" class="edge"><title>Node33&#45;&gt;Node36</title>
<path fill="none" stroke="midnightblue" d="M283,-62.6667C283,-50.9127 283,-37.8483 283,-28.901"/>
<polygon fill="midnightblue" stroke="midnightblue" points="279.5,-62.937 283,-72.937 286.5,-62.937 279.5,-62.937"/>
</g>
<!-- Node37 -->
<g id="node9" class="node"><title>Node37</title>
<a xlink:href="_test_physics_manager_8cc.html" target="_top" xlink:title="test/analysis/TestPhysics\lManager.cc">
<polygon fill="white" stroke="black" points="366,-1 366,-35 496,-35 496,-1 366,-1"/>
<text text-anchor="start" x="374" y="-22" font-family="Helvetica,sans-Serif" font-size="10.00">test/analysis/TestPhysics</text>
<text text-anchor="middle" x="431" y="-9" font-family="Helvetica,sans-Serif" font-size="10.00">Manager.cc</text>
</a>
</g>
<!-- Node33&#45;&gt;Node37 -->
<g id="edge8" class="edge"><title>Node33&#45;&gt;Node37</title>
<path fill="none" stroke="midnightblue" d="M327.204,-68.4954C349.175,-57.8069 375.352,-45.0718 395.922,-35.0651"/>
<polygon fill="midnightblue" stroke="midnightblue" points="325.535,-65.415 318.074,-72.937 328.597,-71.7096 325.535,-65.415"/>
</g>
<!-- Node38 -->
<g id="node11" class="node"><title>Node38</title>
<a xlink:href="_test_tree_fitter_8cc.html" target="_top" xlink:title="test/analysis/TestTreeFitter.cc">
<polygon fill="white" stroke="black" points="514,-7.5 514,-28.5 664,-28.5 664,-7.5 514,-7.5"/>
<text text-anchor="middle" x="589" y="-15.5" font-family="Helvetica,sans-Serif" font-size="10.00">test/analysis/TestTreeFitter.cc</text>
</a>
</g>
<!-- Node33&#45;&gt;Node38 -->
<g id="edge10" class="edge"><title>Node33&#45;&gt;Node38</title>
<path fill="none" stroke="midnightblue" d="M346.266,-75.1138C405.352,-61.2114 492.05,-40.8119 544.259,-28.5272"/>
<polygon fill="midnightblue" stroke="midnightblue" points="345.234,-71.7611 336.301,-77.4586 346.837,-78.575 345.234,-71.7611"/>
</g>
</g>
</svg>
