<?xml version="1.0" encoding="UTF-8" standalone="no"?>
<!DOCTYPE svg PUBLIC "-//W3C//DTD SVG 1.1//EN"
 "http://www.w3.org/Graphics/SVG/1.1/DTD/svg11.dtd">
<!-- Generated by graphviz version 2.26.3 (20100126.1600)
 -->
<!-- Title: src/mc/pluto/PlutoGenerator.h Pages: 1 -->
<svg width="286pt" height="88pt"
 viewBox="0.00 0.00 286.00 88.00" xmlns="http://www.w3.org/2000/svg" xmlns:xlink="http://www.w3.org/1999/xlink">
<g id="graph1" class="graph" transform="scale(1 1) rotate(0) translate(4 84)">
<title>src/mc/pluto/PlutoGenerator.h</title>
<polygon fill="white" stroke="white" points="-4,5 -4,-84 283,-84 283,5 -4,5"/>
<!-- Node45 -->
<g id="node1" class="node"><title>Node45</title>
<polygon fill="#bfbfbf" stroke="black" points="54.5,-58.5 54.5,-79.5 201.5,-79.5 201.5,-58.5 54.5,-58.5"/>
<text text-anchor="middle" x="128" y="-66.5" font-family="Helvetica,sans-Serif" font-size="10.00">src/mc/pluto/PlutoGenerator.h</text>
</g>
<!-- Node46 -->
<g id="node3" class="node"><title>Node46</title>
<a xlink:href="_ant-cocktail_8cc.html" target="_top" xlink:title="progs/Ant&#45;cocktail.cc">
<polygon fill="white" stroke="black" points="-0.5,-0.5 -0.5,-21.5 108.5,-21.5 108.5,-0.5 -0.5,-0.5"/>
<text text-anchor="middle" x="54" y="-8.5" font-family="Helvetica,sans-Serif" font-size="10.00">progs/Ant&#45;cocktail.cc</text>
</a>
</g>
<!-- Node45&#45;&gt;Node46 -->
<g id="edge2" class="edge"><title>Node45&#45;&gt;Node46</title>
<path fill="none" stroke="midnightblue" d="M106.279,-51.9753C93.7195,-42.1315 78.311,-30.0545 67.4867,-21.5707"/>
<polygon fill="midnightblue" stroke="midnightblue" points="104.398,-54.9478 114.427,-58.3619 108.716,-49.4383 104.398,-54.9478"/>
</g>
<!-- Node47 -->
<g id="node5" class="node"><title>Node47</title>
<a xlink:href="_pluto_generator_8cc.html" target="_top" xlink:title="src/mc/pluto/PlutoGenerator.cc">
<polygon fill="white" stroke="black" points="126,-0.5 126,-21.5 278,-21.5 278,-0.5 126,-0.5"/>
<text text-anchor="middle" x="202" y="-8.5" font-family="Helvetica,sans-Serif" font-size="10.00">src/mc/pluto/PlutoGenerator.cc</text>
</a>
</g>
<!-- Node45&#45;&gt;Node47 -->
<g id="edge4" class="edge"><title>Node45&#45;&gt;Node47</title>
<path fill="none" stroke="midnightblue" d="M149.721,-51.9753C162.28,-42.1315 177.689,-30.0545 188.513,-21.5707"/>
<polygon fill="midnightblue" stroke="midnightblue" points="147.284,-49.4383 141.573,-58.3619 151.602,-54.9478 147.284,-49.4383"/>
</g>
</g>
</svg>
