<?xml version="1.0" encoding="UTF-8" standalone="no"?>
<!DOCTYPE svg PUBLIC "-//W3C//DTD SVG 1.1//EN"
 "http://www.w3.org/Graphics/SVG/1.1/DTD/svg11.dtd">
<!-- Generated by graphviz version 2.26.3 (20100126.1600)
 -->
<!-- Title: src/analysis/input/pluto/detail/PlutoWrapper.h Pages: 1 -->
<svg width="278pt" height="116pt"
 viewBox="0.00 0.00 278.00 116.00" xmlns="http://www.w3.org/2000/svg" xmlns:xlink="http://www.w3.org/1999/xlink">
<g id="graph1" class="graph" transform="scale(1 1) rotate(0) translate(4 112)">
<title>src/analysis/input/pluto/detail/PlutoWrapper.h</title>
<polygon fill="white" stroke="white" points="-4,5 -4,-112 275,-112 275,5 -4,5"/>
<!-- Node4 -->
<g id="node1" class="node"><title>Node4</title>
<polygon fill="#bfbfbf" stroke="black" points="74.5,-73 74.5,-107 211.5,-107 211.5,-73 74.5,-73"/>
<text text-anchor="start" x="82.5" y="-94" font-family="Helvetica,sans-Serif" font-size="10.00">src/analysis/input</text>
<text text-anchor="middle" x="143" y="-81" font-family="Helvetica,sans-Serif" font-size="10.00">/pluto/detail/PlutoWrapper.h</text>
</g>
<!-- Node5 -->
<g id="node3" class="node"><title>Node5</title>
<a xlink:href="_pluto_wrapper_8cc.html" target="_top" xlink:title="src/analysis/input\l/pluto/detail/PlutoWrapper.cc">
<polygon fill="white" stroke="black" points="-0.5,-1 -0.5,-35 142.5,-35 142.5,-1 -0.5,-1"/>
<text text-anchor="start" x="7.5" y="-22" font-family="Helvetica,sans-Serif" font-size="10.00">src/analysis/input</text>
<text text-anchor="middle" x="71" y="-9" font-family="Helvetica,sans-Serif" font-size="10.00">/pluto/detail/PlutoWrapper.cc</text>
</a>
</g>
<!-- Node4&#45;&gt;Node5 -->
<g id="edge2" class="edge"><title>Node4&#45;&gt;Node5</title>
<path fill="none" stroke="midnightblue" d="M118.671,-65.6706C108.755,-55.7551 97.5151,-44.5151 88.4407,-35.4407"/>
<polygon fill="midnightblue" stroke="midnightblue" points="116.391,-68.3408 125.937,-72.937 121.341,-63.391 116.391,-68.3408"/>
</g>
<!-- Node6 -->
<g id="node5" class="node"><title>Node6</title>
<a xlink:href="_pluto_reader_8cc.html" target="_top" xlink:title="src/analysis/input\l/pluto/PlutoReader.cc">
<polygon fill="white" stroke="black" points="159.5,-1 159.5,-35 270.5,-35 270.5,-1 159.5,-1"/>
<text text-anchor="start" x="167.5" y="-22" font-family="Helvetica,sans-Serif" font-size="10.00">src/analysis/input</text>
<text text-anchor="middle" x="215" y="-9" font-family="Helvetica,sans-Serif" font-size="10.00">/pluto/PlutoReader.cc</text>
</a>
</g>
<!-- Node4&#45;&gt;Node6 -->
<g id="edge4" class="edge"><title>Node4&#45;&gt;Node6</title>
<path fill="none" stroke="midnightblue" d="M167.329,-65.6706C177.245,-55.7551 188.485,-44.5151 197.559,-35.4407"/>
<polygon fill="midnightblue" stroke="midnightblue" points="164.659,-63.391 160.063,-72.937 169.609,-68.3408 164.659,-63.391"/>
</g>
</g>
</svg>
