<?xml version="1.0" encoding="UTF-8" standalone="no"?>
<!DOCTYPE svg PUBLIC "-//W3C//DTD SVG 1.1//EN"
 "http://www.w3.org/Graphics/SVG/1.1/DTD/svg11.dtd">
<!-- Generated by graphviz version 2.26.3 (20100126.1600)
 -->
<!-- Title: src/mc/pluto/PlutoFactory.cc Pages: 1 -->
<svg width="1134pt" height="378pt"
 viewBox="0.00 0.00 1134.00 378.00" xmlns="http://www.w3.org/2000/svg" xmlns:xlink="http://www.w3.org/1999/xlink">
<g id="graph1" class="graph" transform="scale(1 1) rotate(0) translate(4 374)">
<title>src/mc/pluto/PlutoFactory.cc</title>
<polygon fill="white" stroke="white" points="-4,5 -4,-374 1131,-374 1131,5 -4,5"/>
<!-- Node0 -->
<g id="node1" class="node"><title>Node0</title>
<polygon fill="#bfbfbf" stroke="black" points="585.5,-348.5 585.5,-369.5 728.5,-369.5 728.5,-348.5 585.5,-348.5"/>
<text text-anchor="middle" x="657" y="-356.5" font-family="Helvetica,sans-Serif" font-size="10.00">src/mc/pluto/PlutoFactory.cc</text>
</g>
<!-- Node1 -->
<g id="node3" class="node"><title>Node1</title>
<a xlink:href="_pluto_factory_8h.html" target="_top" xlink:title="PlutoFactory.h">
<polygon fill="white" stroke="black" points="396,-290.5 396,-311.5 476,-311.5 476,-290.5 396,-290.5"/>
<text text-anchor="middle" x="436" y="-298.5" font-family="Helvetica,sans-Serif" font-size="10.00">PlutoFactory.h</text>
</a>
</g>
<!-- Node0&#45;&gt;Node1 -->
<g id="edge2" class="edge"><title>Node0&#45;&gt;Node1</title>
<path fill="none" stroke="midnightblue" d="M616.979,-348.497C580.17,-338.836 525.454,-324.477 485.826,-314.077"/>
<polygon fill="midnightblue" stroke="midnightblue" points="486.657,-310.676 476.096,-311.523 484.88,-317.447 486.657,-310.676"/>
</g>
<!-- Node28 -->
<g id="node61" class="node"><title>Node28</title>
<a xlink:href="_query_8h.html" target="_top" xlink:title="mc/database/Query.h">
<polygon fill="white" stroke="black" points="494,-290.5 494,-311.5 604,-311.5 604,-290.5 494,-290.5"/>
<text text-anchor="middle" x="549" y="-298.5" font-family="Helvetica,sans-Serif" font-size="10.00">mc/database/Query.h</text>
</a>
</g>
<!-- Node0&#45;&gt;Node28 -->
<g id="edge64" class="edge"><title>Node0&#45;&gt;Node28</title>
<path fill="none" stroke="midnightblue" d="M637.442,-348.497C620.802,-339.56 596.673,-326.602 577.82,-316.477"/>
<polygon fill="midnightblue" stroke="midnightblue" points="579.243,-313.269 568.777,-311.621 575.931,-319.436 579.243,-313.269"/>
</g>
<!-- Node31 -->
<g id="node70" class="node"><title>Node31</title>
<polygon fill="white" stroke="#bfbfbf" points="621.5,-290.5 621.5,-311.5 692.5,-311.5 692.5,-290.5 621.5,-290.5"/>
<text text-anchor="middle" x="657" y="-298.5" font-family="Helvetica,sans-Serif" font-size="10.00">PReaction.h</text>
</g>
<!-- Node0&#45;&gt;Node31 -->
<g id="edge76" class="edge"><title>Node0&#45;&gt;Node31</title>
<path fill="none" stroke="midnightblue" d="M657,-348.362C657,-340.922 657,-330.743 657,-321.728"/>
<polygon fill="midnightblue" stroke="midnightblue" points="660.5,-321.571 657,-311.571 653.5,-321.571 660.5,-321.571"/>
</g>
<!-- Node32 -->
<g id="node72" class="node"><title>Node32</title>
<a xlink:href="_logger_8h.html" target="_top" xlink:title="base/Logger.h">
<polygon fill="white" stroke="black" points="710,-290.5 710,-311.5 788,-311.5 788,-290.5 710,-290.5"/>
<text text-anchor="middle" x="749" y="-298.5" font-family="Helvetica,sans-Serif" font-size="10.00">base/Logger.h</text>
</a>
</g>
<!-- Node0&#45;&gt;Node32 -->
<g id="edge78" class="edge"><title>Node0&#45;&gt;Node32</title>
<path fill="none" stroke="midnightblue" d="M673.874,-348.362C687.751,-339.614 707.634,-327.079 723.46,-317.101"/>
<polygon fill="midnightblue" stroke="midnightblue" points="725.64,-319.864 732.233,-311.571 721.907,-313.943 725.64,-319.864"/>
</g>
<!-- Node34 -->
<g id="node76" class="node"><title>Node34</title>
<polygon fill="white" stroke="#bfbfbf" points="806,-290.5 806,-311.5 856,-311.5 856,-290.5 806,-290.5"/>
<text text-anchor="middle" x="831" y="-298.5" font-family="Helvetica,sans-Serif" font-size="10.00">TTree.h</text>
</g>
<!-- Node0&#45;&gt;Node34 -->
<g id="edge82" class="edge"><title>Node0&#45;&gt;Node34</title>
<path fill="none" stroke="midnightblue" d="M688.51,-348.497C718.909,-338.364 764.821,-323.06 796.263,-312.579"/>
<polygon fill="midnightblue" stroke="midnightblue" points="797.545,-315.841 805.925,-309.358 795.332,-309.2 797.545,-315.841"/>
</g>
<!-- Node2 -->
<g id="node5" class="node"><title>Node2</title>
<a xlink:href="_particle_type_tree_8h.html" target="_top" xlink:title="base/ParticleTypeTree.h">
<polygon fill="white" stroke="black" points="359.5,-174.5 359.5,-195.5 482.5,-195.5 482.5,-174.5 359.5,-174.5"/>
<text text-anchor="middle" x="421" y="-182.5" font-family="Helvetica,sans-Serif" font-size="10.00">base/ParticleTypeTree.h</text>
</a>
</g>
<!-- Node1&#45;&gt;Node2 -->
<g id="edge4" class="edge"><title>Node1&#45;&gt;Node2</title>
<path fill="none" stroke="midnightblue" d="M434.616,-290.295C432.138,-271.131 426.904,-230.654 423.695,-205.843"/>
<polygon fill="midnightblue" stroke="midnightblue" points="427.135,-205.148 422.381,-195.679 420.192,-206.046 427.135,-205.148"/>
</g>
<!-- Node27 -->
<g id="node59" class="node"><title>Node27</title>
<polygon fill="white" stroke="#bfbfbf" points="440,-232.5 440,-253.5 482,-253.5 482,-232.5 440,-232.5"/>
<text text-anchor="middle" x="461" y="-240.5" font-family="Helvetica,sans-Serif" font-size="10.00">TF1.h</text>
</g>
<!-- Node1&#45;&gt;Node27 -->
<g id="edge62" class="edge"><title>Node1&#45;&gt;Node27</title>
<path fill="none" stroke="midnightblue" d="M440.585,-290.362C443.898,-282.677 448.47,-272.069 452.448,-262.84"/>
<polygon fill="midnightblue" stroke="midnightblue" points="455.699,-264.139 456.444,-253.571 449.271,-261.368 455.699,-264.139"/>
</g>
<!-- Node3 -->
<g id="node7" class="node"><title>Node3</title>
<a xlink:href="_particle_type_8h.html" target="_top" xlink:title="ParticleType.h">
<polygon fill="white" stroke="black" points="308,-116.5 308,-137.5 388,-137.5 388,-116.5 308,-116.5"/>
<text text-anchor="middle" x="348" y="-124.5" font-family="Helvetica,sans-Serif" font-size="10.00">ParticleType.h</text>
</a>
</g>
<!-- Node2&#45;&gt;Node3 -->
<g id="edge6" class="edge"><title>Node2&#45;&gt;Node3</title>
<path fill="none" stroke="midnightblue" d="M407.611,-174.362C396.909,-165.859 381.704,-153.779 369.329,-143.947"/>
<polygon fill="midnightblue" stroke="midnightblue" points="371.311,-141.051 361.304,-137.571 366.957,-146.532 371.311,-141.051"/>
</g>
<!-- Node14 -->
<g id="node30" class="node"><title>Node14</title>
<polygon fill="white" stroke="#bfbfbf" points="435.5,-58.5 435.5,-79.5 470.5,-79.5 470.5,-58.5 435.5,-58.5"/>
<text text-anchor="middle" x="453" y="-66.5" font-family="Helvetica,sans-Serif" font-size="10.00">map</text>
</g>
<!-- Node2&#45;&gt;Node14 -->
<g id="edge60" class="edge"><title>Node2&#45;&gt;Node14</title>
<path fill="none" stroke="midnightblue" d="M423.953,-174.295C429.263,-155.045 440.507,-114.289 447.342,-89.5091"/>
<polygon fill="midnightblue" stroke="midnightblue" points="450.769,-90.2499 450.054,-79.6792 444.021,-88.3884 450.769,-90.2499"/>
</g>
<!-- Node17 -->
<g id="node36" class="node"><title>Node17</title>
<a xlink:href="_tree_8h.html" target="_top" xlink:title="Tree.h">
<polygon fill="white" stroke="black" points="772,-116.5 772,-137.5 816,-137.5 816,-116.5 772,-116.5"/>
<text text-anchor="middle" x="794" y="-124.5" font-family="Helvetica,sans-Serif" font-size="10.00">Tree.h</text>
</a>
</g>
<!-- Node2&#45;&gt;Node17 -->
<g id="edge36" class="edge"><title>Node2&#45;&gt;Node17</title>
<path fill="none" stroke="midnightblue" d="M482.593,-175.422C562.791,-162.952 700.017,-141.614 761.976,-131.98"/>
<polygon fill="midnightblue" stroke="midnightblue" points="762.604,-135.424 771.948,-130.429 761.529,-128.507 762.604,-135.424"/>
</g>
<!-- Node4 -->
<g id="node9" class="node"><title>Node4</title>
<a xlink:href="types_8h.html" target="_top" xlink:title="base/types.h">
<polygon fill="white" stroke="black" points="-0.5,-0.5 -0.5,-21.5 72.5,-21.5 72.5,-0.5 -0.5,-0.5"/>
<text text-anchor="middle" x="36" y="-8.5" font-family="Helvetica,sans-Serif" font-size="10.00">base/types.h</text>
</a>
</g>
<!-- Node3&#45;&gt;Node4 -->
<g id="edge8" class="edge"><title>Node3&#45;&gt;Node4</title>
<path fill="none" stroke="midnightblue" d="M307.712,-122.642C264.179,-116.892 193.466,-104.492 137,-80 106.452,-66.7501 75.4356,-43.8463 55.984,-28.0849"/>
<polygon fill="midnightblue" stroke="midnightblue" points="58.0862,-25.2817 48.1474,-21.6114 53.6281,-30.6785 58.0862,-25.2817"/>
</g>
<!-- Node5 -->
<g id="node11" class="node"><title>Node5</title>
<a xlink:href="interval_8h.html" target="_top" xlink:title="base/interval.h">
<polygon fill="white" stroke="black" points="146,-58.5 146,-79.5 226,-79.5 226,-58.5 146,-58.5"/>
<text text-anchor="middle" x="186" y="-66.5" font-family="Helvetica,sans-Serif" font-size="10.00">base/interval.h</text>
</a>
</g>
<!-- Node3&#45;&gt;Node5 -->
<g id="edge10" class="edge"><title>Node3&#45;&gt;Node5</title>
<path fill="none" stroke="midnightblue" d="M318.663,-116.497C292.481,-107.123 253.94,-93.3242 225.137,-83.0122"/>
<polygon fill="midnightblue" stroke="midnightblue" points="225.987,-79.5987 215.392,-79.5231 223.627,-86.189 225.987,-79.5987"/>
</g>
<!-- Node12 -->
<g id="node26" class="node"><title>Node12</title>
<polygon fill="white" stroke="#bfbfbf" points="243.5,-58.5 243.5,-79.5 284.5,-79.5 284.5,-58.5 243.5,-58.5"/>
<text text-anchor="middle" x="264" y="-66.5" font-family="Helvetica,sans-Serif" font-size="10.00">string</text>
</g>
<!-- Node3&#45;&gt;Node12 -->
<g id="edge26" class="edge"><title>Node3&#45;&gt;Node12</title>
<path fill="none" stroke="midnightblue" d="M332.593,-116.362C320.042,-107.696 302.108,-95.3126 287.725,-85.3819"/>
<polygon fill="midnightblue" stroke="midnightblue" points="289.527,-82.3725 279.309,-79.5707 285.55,-88.1327 289.527,-82.3725"/>
</g>
<!-- Node13 -->
<g id="node28" class="node"><title>Node13</title>
<polygon fill="white" stroke="#bfbfbf" points="302,-58.5 302,-79.5 354,-79.5 354,-58.5 302,-58.5"/>
<text text-anchor="middle" x="328" y="-66.5" font-family="Helvetica,sans-Serif" font-size="10.00">ostream</text>
</g>
<!-- Node3&#45;&gt;Node13 -->
<g id="edge28" class="edge"><title>Node3&#45;&gt;Node13</title>
<path fill="none" stroke="midnightblue" d="M344.332,-116.362C341.71,-108.758 338.101,-98.294 334.943,-89.1349"/>
<polygon fill="midnightblue" stroke="midnightblue" points="338.214,-87.8834 331.645,-79.5707 331.596,-90.1654 338.214,-87.8834"/>
</g>
<!-- Node3&#45;&gt;Node14 -->
<g id="edge30" class="edge"><title>Node3&#45;&gt;Node14</title>
<path fill="none" stroke="midnightblue" d="M367.259,-116.362C383.871,-107.186 408.027,-93.8424 426.468,-83.6555"/>
<polygon fill="midnightblue" stroke="midnightblue" points="428.201,-86.6968 435.262,-78.7979 424.817,-80.5695 428.201,-86.6968"/>
</g>
<!-- Node15 -->
<g id="node32" class="node"><title>Node15</title>
<polygon fill="white" stroke="#bfbfbf" points="371.5,-58.5 371.5,-79.5 418.5,-79.5 418.5,-58.5 371.5,-58.5"/>
<text text-anchor="middle" x="395" y="-66.5" font-family="Helvetica,sans-Serif" font-size="10.00">iterator</text>
</g>
<!-- Node3&#45;&gt;Node15 -->
<g id="edge32" class="edge"><title>Node3&#45;&gt;Node15</title>
<path fill="none" stroke="midnightblue" d="M356.621,-116.362C363.18,-108.268 372.366,-96.9318 380.106,-87.3796"/>
<polygon fill="midnightblue" stroke="midnightblue" points="382.858,-89.5436 386.434,-79.5707 377.419,-85.1364 382.858,-89.5436"/>
</g>
<!-- Node16 -->
<g id="node34" class="node"><title>Node16</title>
<polygon fill="white" stroke="#bfbfbf" points="488,-58.5 488,-79.5 532,-79.5 532,-58.5 488,-58.5"/>
<text text-anchor="middle" x="510" y="-66.5" font-family="Helvetica,sans-Serif" font-size="10.00">vector</text>
</g>
<!-- Node3&#45;&gt;Node16 -->
<g id="edge34" class="edge"><title>Node3&#45;&gt;Node16</title>
<path fill="none" stroke="midnightblue" d="M377.337,-116.497C405.721,-106.334 448.631,-90.9717 477.911,-80.4888"/>
<polygon fill="midnightblue" stroke="midnightblue" points="479.418,-83.6669 487.653,-77.0009 477.058,-77.0765 479.418,-83.6669"/>
</g>
<!-- Node5&#45;&gt;Node4 -->
<g id="edge12" class="edge"><title>Node5&#45;&gt;Node4</title>
<path fill="none" stroke="midnightblue" d="M158.836,-58.4966C134.7,-49.1639 99.219,-35.4447 72.5883,-25.1475"/>
<polygon fill="midnightblue" stroke="midnightblue" points="73.8041,-21.8651 63.2148,-21.5231 71.2796,-28.394 73.8041,-21.8651"/>
</g>
<!-- Node6 -->
<g id="node14" class="node"><title>Node6</title>
<polygon fill="white" stroke="#bfbfbf" points="477,-0.5 477,-21.5 533,-21.5 533,-0.5 477,-0.5"/>
<text text-anchor="middle" x="505" y="-8.5" font-family="Helvetica,sans-Serif" font-size="10.00">algorithm</text>
</g>
<!-- Node5&#45;&gt;Node6 -->
<g id="edge14" class="edge"><title>Node5&#45;&gt;Node6</title>
<path fill="none" stroke="midnightblue" d="M226.078,-59.8368C229.093,-59.1982 232.093,-58.579 235,-58 317.291,-41.6109 414.333,-25.4982 466.752,-17.0585"/>
<polygon fill="midnightblue" stroke="midnightblue" points="467.612,-20.4654 476.931,-15.4258 466.503,-13.5538 467.612,-20.4654"/>
</g>
<!-- Node7 -->
<g id="node16" class="node"><title>Node7</title>
<polygon fill="white" stroke="#bfbfbf" points="89.5,-0.5 89.5,-21.5 148.5,-21.5 148.5,-0.5 89.5,-0.5"/>
<text text-anchor="middle" x="119" y="-8.5" font-family="Helvetica,sans-Serif" font-size="10.00">stdexcept</text>
</g>
<!-- Node5&#45;&gt;Node7 -->
<g id="edge16" class="edge"><title>Node5&#45;&gt;Node7</title>
<path fill="none" stroke="midnightblue" d="M173.711,-58.3619C163.983,-49.9408 150.202,-38.0105 138.905,-28.2308"/>
<polygon fill="midnightblue" stroke="midnightblue" points="141.062,-25.4695 131.211,-21.5707 136.481,-30.7619 141.062,-25.4695"/>
</g>
<!-- Node8 -->
<g id="node18" class="node"><title>Node8</title>
<polygon fill="white" stroke="#bfbfbf" points="166,-0.5 166,-21.5 206,-21.5 206,-0.5 166,-0.5"/>
<text text-anchor="middle" x="186" y="-8.5" font-family="Helvetica,sans-Serif" font-size="10.00">limits</text>
</g>
<!-- Node5&#45;&gt;Node8 -->
<g id="edge18" class="edge"><title>Node5&#45;&gt;Node8</title>
<path fill="none" stroke="midnightblue" d="M186,-58.3619C186,-50.9219 186,-40.7427 186,-31.7276"/>
<polygon fill="midnightblue" stroke="midnightblue" points="189.5,-31.5706 186,-21.5707 182.5,-31.5707 189.5,-31.5706"/>
</g>
<!-- Node9 -->
<g id="node20" class="node"><title>Node9</title>
<polygon fill="white" stroke="#bfbfbf" points="223.5,-0.5 223.5,-21.5 272.5,-21.5 272.5,-0.5 223.5,-0.5"/>
<text text-anchor="middle" x="248" y="-8.5" font-family="Helvetica,sans-Serif" font-size="10.00">istream</text>
</g>
<!-- Node5&#45;&gt;Node9 -->
<g id="edge20" class="edge"><title>Node5&#45;&gt;Node9</title>
<path fill="none" stroke="midnightblue" d="M197.372,-58.3619C206.286,-50.0226 218.879,-38.2418 229.276,-28.5162"/>
<polygon fill="midnightblue" stroke="midnightblue" points="231.789,-30.9582 236.7,-21.5707 227.007,-25.8463 231.789,-30.9582"/>
</g>
<!-- Node10 -->
<g id="node22" class="node"><title>Node10</title>
<polygon fill="white" stroke="#bfbfbf" points="290,-0.5 290,-21.5 342,-21.5 342,-0.5 290,-0.5"/>
<text text-anchor="middle" x="316" y="-8.5" font-family="Helvetica,sans-Serif" font-size="10.00">sstream</text>
</g>
<!-- Node5&#45;&gt;Node10 -->
<g id="edge22" class="edge"><title>Node5&#45;&gt;Node10</title>
<path fill="none" stroke="midnightblue" d="M209.542,-58.4966C230.029,-49.3562 259.947,-36.0082 282.854,-25.7883"/>
<polygon fill="midnightblue" stroke="midnightblue" points="284.488,-28.892 292.194,-21.6212 281.635,-22.4994 284.488,-28.892"/>
</g>
<!-- Node11 -->
<g id="node24" class="node"><title>Node11</title>
<polygon fill="white" stroke="#bfbfbf" points="360,-0.5 360,-21.5 404,-21.5 404,-0.5 360,-0.5"/>
<text text-anchor="middle" x="382" y="-8.5" font-family="Helvetica,sans-Serif" font-size="10.00">cmath</text>
</g>
<!-- Node5&#45;&gt;Node11 -->
<g id="edge24" class="edge"><title>Node5&#45;&gt;Node11</title>
<path fill="none" stroke="midnightblue" d="M225.55,-58.4925C257.01,-49.9647 302.336,-37.3035 350.12,-22.162"/>
<polygon fill="midnightblue" stroke="midnightblue" points="351.245,-25.4771 359.706,-19.1012 349.116,-18.8088 351.245,-25.4771"/>
</g>
<!-- Node17&#45;&gt;Node6 -->
<g id="edge52" class="edge"><title>Node17&#45;&gt;Node6</title>
<path fill="none" stroke="midnightblue" d="M771.957,-126.002C731.503,-123.369 643.634,-113.883 579,-80 555.372,-67.6138 533.734,-45.6389 520.041,-29.812"/>
<polygon fill="midnightblue" stroke="midnightblue" points="522.394,-27.1699 513.289,-21.7517 517.028,-31.665 522.394,-27.1699"/>
</g>
<!-- Node17&#45;&gt;Node16 -->
<g id="edge50" class="edge"><title>Node17&#45;&gt;Node16</title>
<path fill="none" stroke="midnightblue" d="M771.931,-123.649C728.401,-116.856 628.539,-100.367 546,-80 544.751,-79.6918 543.481,-79.3659 542.201,-79.0269"/>
<polygon fill="midnightblue" stroke="midnightblue" points="542.938,-75.5983 532.363,-76.2468 541.034,-82.3345 542.938,-75.5983"/>
</g>
<!-- Node18 -->
<g id="node38" class="node"><title>Node18</title>
<polygon fill="white" stroke="#bfbfbf" points="588,-58.5 588,-79.5 684,-79.5 684,-58.5 588,-58.5"/>
<text text-anchor="middle" x="636" y="-66.5" font-family="Helvetica,sans-Serif" font-size="10.00">cereal/access.hpp</text>
</g>
<!-- Node17&#45;&gt;Node18 -->
<g id="edge38" class="edge"><title>Node17&#45;&gt;Node18</title>
<path fill="none" stroke="midnightblue" d="M771.698,-118.813C746.368,-109.515 704.602,-94.183 674.086,-82.9809"/>
<polygon fill="midnightblue" stroke="midnightblue" points="675.202,-79.6623 664.608,-79.5018 672.79,-86.2335 675.202,-79.6623"/>
</g>
<!-- Node19 -->
<g id="node40" class="node"><title>Node19</title>
<a xlink:href="variadic_8h.html" target="_top" xlink:title="std_ext/variadic.h">
<polygon fill="white" stroke="black" points="702,-58.5 702,-79.5 796,-79.5 796,-58.5 702,-58.5"/>
<text text-anchor="middle" x="749" y="-66.5" font-family="Helvetica,sans-Serif" font-size="10.00">std_ext/variadic.h</text>
</a>
</g>
<!-- Node17&#45;&gt;Node19 -->
<g id="edge40" class="edge"><title>Node17&#45;&gt;Node19</title>
<path fill="none" stroke="midnightblue" d="M785.746,-116.362C779.53,-108.35 770.849,-97.1605 763.485,-87.6696"/>
<polygon fill="midnightblue" stroke="midnightblue" points="766.097,-85.326 757.201,-79.5707 760.566,-89.617 766.097,-85.326"/>
</g>
<!-- Node22 -->
<g id="node46" class="node"><title>Node22</title>
<polygon fill="white" stroke="#bfbfbf" points="814,-58.5 814,-79.5 866,-79.5 866,-58.5 814,-58.5"/>
<text text-anchor="middle" x="840" y="-66.5" font-family="Helvetica,sans-Serif" font-size="10.00">memory</text>
</g>
<!-- Node17&#45;&gt;Node22 -->
<g id="edge46" class="edge"><title>Node17&#45;&gt;Node22</title>
<path fill="none" stroke="midnightblue" d="M802.437,-116.362C808.792,-108.35 817.666,-97.1605 825.193,-87.6696"/>
<polygon fill="midnightblue" stroke="midnightblue" points="828.145,-89.5805 831.616,-79.5707 822.66,-85.2308 828.145,-89.5805"/>
</g>
<!-- Node23 -->
<g id="node48" class="node"><title>Node23</title>
<polygon fill="white" stroke="#bfbfbf" points="883.5,-58.5 883.5,-79.5 912.5,-79.5 912.5,-58.5 883.5,-58.5"/>
<text text-anchor="middle" x="898" y="-66.5" font-family="Helvetica,sans-Serif" font-size="10.00">list</text>
</g>
<!-- Node17&#45;&gt;Node23 -->
<g id="edge48" class="edge"><title>Node17&#45;&gt;Node23</title>
<path fill="none" stroke="midnightblue" d="M813.075,-116.362C830.353,-106.726 855.869,-92.496 874.42,-82.1502"/>
<polygon fill="midnightblue" stroke="midnightblue" points="876.377,-85.0666 883.406,-77.1391 872.967,-78.9531 876.377,-85.0666"/>
</g>
<!-- Node24 -->
<g id="node52" class="node"><title>Node24</title>
<polygon fill="white" stroke="#bfbfbf" points="929.5,-58.5 929.5,-79.5 978.5,-79.5 978.5,-58.5 929.5,-58.5"/>
<text text-anchor="middle" x="954" y="-66.5" font-family="Helvetica,sans-Serif" font-size="10.00">cassert</text>
</g>
<!-- Node17&#45;&gt;Node24 -->
<g id="edge54" class="edge"><title>Node17&#45;&gt;Node24</title>
<path fill="none" stroke="midnightblue" d="M816.247,-118.935C843.056,-109.217 888.391,-92.7832 919.69,-81.4373"/>
<polygon fill="midnightblue" stroke="midnightblue" points="921.109,-84.6458 929.318,-77.9473 918.724,-78.0649 921.109,-84.6458"/>
</g>
<!-- Node25 -->
<g id="node54" class="node"><title>Node25</title>
<polygon fill="white" stroke="#bfbfbf" points="995.5,-58.5 995.5,-79.5 1046.5,-79.5 1046.5,-58.5 995.5,-58.5"/>
<text text-anchor="middle" x="1021" y="-66.5" font-family="Helvetica,sans-Serif" font-size="10.00">numeric</text>
</g>
<!-- Node17&#45;&gt;Node25 -->
<g id="edge56" class="edge"><title>Node17&#45;&gt;Node25</title>
<path fill="none" stroke="midnightblue" d="M816.136,-122.17C850.47,-114.559 918.809,-98.9352 985.603,-80.2684"/>
<polygon fill="midnightblue" stroke="midnightblue" points="986.768,-83.5764 995.442,-77.4928 984.867,-76.8393 986.768,-83.5764"/>
</g>
<!-- Node26 -->
<g id="node56" class="node"><title>Node26</title>
<polygon fill="white" stroke="#bfbfbf" points="1064,-58.5 1064,-79.5 1126,-79.5 1126,-58.5 1064,-58.5"/>
<text text-anchor="middle" x="1095" y="-66.5" font-family="Helvetica,sans-Serif" font-size="10.00">type_traits</text>
</g>
<!-- Node17&#45;&gt;Node26 -->
<g id="edge58" class="edge"><title>Node17&#45;&gt;Node26</title>
<path fill="none" stroke="midnightblue" d="M816.134,-123.705C859.754,-117.065 960.053,-101.073 1053.71,-80.1551"/>
<polygon fill="midnightblue" stroke="midnightblue" points="1054.64,-83.5328 1063.62,-77.9159 1053.1,-76.7048 1054.64,-83.5328"/>
</g>
<!-- Node20 -->
<g id="node42" class="node"><title>Node20</title>
<polygon fill="white" stroke="#bfbfbf" points="693.5,-0.5 693.5,-21.5 742.5,-21.5 742.5,-0.5 693.5,-0.5"/>
<text text-anchor="middle" x="718" y="-8.5" font-family="Helvetica,sans-Serif" font-size="10.00">cstddef</text>
</g>
<!-- Node19&#45;&gt;Node20 -->
<g id="edge42" class="edge"><title>Node19&#45;&gt;Node20</title>
<path fill="none" stroke="midnightblue" d="M743.314,-58.3619C739.163,-50.5949 733.416,-39.8426 728.447,-30.5458"/>
<polygon fill="midnightblue" stroke="midnightblue" points="731.45,-28.7401 723.65,-21.5707 725.277,-32.0398 731.45,-28.7401"/>
</g>
<!-- Node21 -->
<g id="node44" class="node"><title>Node21</title>
<polygon fill="white" stroke="#bfbfbf" points="760,-0.5 760,-21.5 798,-21.5 798,-0.5 760,-0.5"/>
<text text-anchor="middle" x="779" y="-8.5" font-family="Helvetica,sans-Serif" font-size="10.00">tuple</text>
</g>
<!-- Node19&#45;&gt;Node21 -->
<g id="edge44" class="edge"><title>Node19&#45;&gt;Node21</title>
<path fill="none" stroke="midnightblue" d="M754.502,-58.3619C758.52,-50.5949 764.081,-39.8426 768.89,-30.5458"/>
<polygon fill="midnightblue" stroke="midnightblue" points="772.047,-32.0608 773.532,-21.5707 765.829,-28.8448 772.047,-32.0608"/>
</g>
<!-- Node28&#45;&gt;Node16 -->
<g id="edge66" class="edge"><title>Node28&#45;&gt;Node16</title>
<path fill="none" stroke="midnightblue" d="M543.446,-290.494C538.785,-281.174 532.365,-267.052 529,-254 514.009,-195.855 510.771,-124.556 510.122,-89.9012"/>
<polygon fill="midnightblue" stroke="midnightblue" points="513.618,-89.5789 509.988,-79.6255 506.619,-89.6704 513.618,-89.5789"/>
</g>
<!-- Node29 -->
<g id="node64" class="node"><title>Node29</title>
<a xlink:href="_production_data_base_8h.html" target="_top" xlink:title="ProductionDataBase.h">
<polygon fill="white" stroke="black" points="537.5,-232.5 537.5,-253.5 652.5,-253.5 652.5,-232.5 537.5,-232.5"/>
<text text-anchor="middle" x="595" y="-240.5" font-family="Helvetica,sans-Serif" font-size="10.00">ProductionDataBase.h</text>
</a>
</g>
<!-- Node28&#45;&gt;Node29 -->
<g id="edge68" class="edge"><title>Node28&#45;&gt;Node29</title>
<path fill="none" stroke="midnightblue" d="M557.437,-290.362C563.792,-282.35 572.666,-271.161 580.193,-261.67"/>
<polygon fill="midnightblue" stroke="midnightblue" points="583.145,-263.581 586.616,-253.571 577.66,-259.231 583.145,-263.581"/>
</g>
<!-- Node29&#45;&gt;Node2 -->
<g id="edge72" class="edge"><title>Node29&#45;&gt;Node2</title>
<path fill="none" stroke="midnightblue" d="M563.49,-232.497C535.123,-223.041 493.249,-209.083 462.228,-198.743"/>
<polygon fill="midnightblue" stroke="midnightblue" points="463.163,-195.365 452.569,-195.523 460.949,-202.006 463.163,-195.365"/>
</g>
<!-- Node29&#45;&gt;Node16 -->
<g id="edge70" class="edge"><title>Node29&#45;&gt;Node16</title>
<path fill="none" stroke="midnightblue" d="M588.189,-232.374C582.283,-222.976 573.661,-208.808 567,-196 547.791,-159.064 528.623,-114.331 518.14,-89.0184"/>
<polygon fill="midnightblue" stroke="midnightblue" points="521.363,-87.6522 514.324,-79.7333 514.888,-90.3132 521.363,-87.6522"/>
</g>
<!-- Node30 -->
<g id="node68" class="node"><title>Node30</title>
<polygon fill="white" stroke="#bfbfbf" points="576,-174.5 576,-195.5 674,-195.5 674,-174.5 576,-174.5"/>
<text text-anchor="middle" x="625" y="-182.5" font-family="Helvetica,sans-Serif" font-size="10.00">Math/Interpolator.h</text>
</g>
<!-- Node29&#45;&gt;Node30 -->
<g id="edge74" class="edge"><title>Node29&#45;&gt;Node30</title>
<path fill="none" stroke="midnightblue" d="M600.502,-232.362C604.52,-224.595 610.081,-213.843 614.89,-204.546"/>
<polygon fill="midnightblue" stroke="midnightblue" points="618.047,-206.061 619.532,-195.571 611.829,-202.845 618.047,-206.061"/>
</g>
<!-- Node33 -->
<g id="node74" class="node"><title>Node33</title>
<polygon fill="white" stroke="#bfbfbf" points="704.5,-232.5 704.5,-253.5 793.5,-253.5 793.5,-232.5 704.5,-232.5"/>
<text text-anchor="middle" x="749" y="-240.5" font-family="Helvetica,sans-Serif" font-size="10.00">easylogging++.h</text>
</g>
<!-- Node32&#45;&gt;Node33 -->
<g id="edge80" class="edge"><title>Node32&#45;&gt;Node33</title>
<path fill="none" stroke="midnightblue" d="M749,-290.362C749,-282.922 749,-272.743 749,-263.728"/>
<polygon fill="midnightblue" stroke="midnightblue" points="752.5,-263.571 749,-253.571 745.5,-263.571 752.5,-263.571"/>
</g>
</g>
</svg>
