<?xml version="1.0" encoding="UTF-8" standalone="no"?>
<!DOCTYPE svg PUBLIC "-//W3C//DTD SVG 1.1//EN"
 "http://www.w3.org/Graphics/SVG/1.1/DTD/svg11.dtd">
<!-- Generated by graphviz version 2.26.3 (20100126.1600)
 -->
<!-- Title: src/analysis/input/pluto/detail/PlutoWrapper.cc Pages: 1 -->
<svg width="204pt" height="160pt"
 viewBox="0.00 0.00 204.00 160.00" xmlns="http://www.w3.org/2000/svg" xmlns:xlink="http://www.w3.org/1999/xlink">
<g id="graph1" class="graph" transform="scale(1 1) rotate(0) translate(4 156)">
<title>src/analysis/input/pluto/detail/PlutoWrapper.cc</title>
<polygon fill="white" stroke="white" points="-4,5 -4,-156 201,-156 201,5 -4,5"/>
<!-- Node0 -->
<g id="node1" class="node"><title>Node0</title>
<polygon fill="#bfbfbf" stroke="black" points="36.5,-117 36.5,-151 179.5,-151 179.5,-117 36.5,-117"/>
<text text-anchor="start" x="44.5" y="-138" font-family="Helvetica,sans-Serif" font-size="10.00">src/analysis/input</text>
<text text-anchor="middle" x="108" y="-125" font-family="Helvetica,sans-Serif" font-size="10.00">/pluto/detail/PlutoWrapper.cc</text>
</g>
<!-- Node1 -->
<g id="node3" class="node"><title>Node1</title>
<a xlink:href="_pluto_wrapper_8h.html" target="_top" xlink:title="PlutoWrapper.h">
<polygon fill="white" stroke="black" points="66,-58.5 66,-79.5 150,-79.5 150,-58.5 66,-58.5"/>
<text text-anchor="middle" x="108" y="-66.5" font-family="Helvetica,sans-Serif" font-size="10.00">PlutoWrapper.h</text>
</a>
</g>
<!-- Node0&#45;&gt;Node1 -->
<g id="edge2" class="edge"><title>Node0&#45;&gt;Node1</title>
<path fill="none" stroke="midnightblue" d="M108,-116.922C108,-108.67 108,-98.6922 108,-89.9818"/>
<polygon fill="midnightblue" stroke="midnightblue" points="111.5,-89.8521 108,-79.8521 104.5,-89.8521 111.5,-89.8521"/>
</g>
<!-- Node2 -->
<g id="node5" class="node"><title>Node2</title>
<polygon fill="white" stroke="#bfbfbf" points="-0.5,-0.5 -0.5,-21.5 64.5,-21.5 64.5,-0.5 -0.5,-0.5"/>
<text text-anchor="middle" x="32" y="-8.5" font-family="Helvetica,sans-Serif" font-size="10.00">PParticle.h</text>
</g>
<!-- Node1&#45;&gt;Node2 -->
<g id="edge4" class="edge"><title>Node1&#45;&gt;Node2</title>
<path fill="none" stroke="midnightblue" d="M94.0604,-58.3619C82.8116,-49.7773 66.7842,-37.5459 53.835,-27.6636"/>
<polygon fill="midnightblue" stroke="midnightblue" points="55.9241,-24.8551 45.8512,-21.5707 51.6774,-30.4198 55.9241,-24.8551"/>
</g>
<!-- Node3 -->
<g id="node7" class="node"><title>Node3</title>
<polygon fill="white" stroke="#bfbfbf" points="82,-0.5 82,-21.5 134,-21.5 134,-0.5 82,-0.5"/>
<text text-anchor="middle" x="108" y="-8.5" font-family="Helvetica,sans-Serif" font-size="10.00">ostream</text>
</g>
<!-- Node1&#45;&gt;Node3 -->
<g id="edge6" class="edge"><title>Node1&#45;&gt;Node3</title>
<path fill="none" stroke="midnightblue" d="M108,-58.3619C108,-50.9219 108,-40.7427 108,-31.7276"/>
<polygon fill="midnightblue" stroke="midnightblue" points="111.5,-31.5706 108,-21.5707 104.5,-31.5707 111.5,-31.5706"/>
</g>
<!-- Node4 -->
<g id="node9" class="node"><title>Node4</title>
<polygon fill="white" stroke="#bfbfbf" points="152,-0.5 152,-21.5 196,-21.5 196,-0.5 152,-0.5"/>
<text text-anchor="middle" x="174" y="-8.5" font-family="Helvetica,sans-Serif" font-size="10.00">vector</text>
</g>
<!-- Node1&#45;&gt;Node4 -->
<g id="edge8" class="edge"><title>Node1&#45;&gt;Node4</title>
<path fill="none" stroke="midnightblue" d="M120.105,-58.3619C129.688,-49.9408 143.264,-38.0105 154.393,-28.2308"/>
<polygon fill="midnightblue" stroke="midnightblue" points="156.77,-30.8009 161.971,-21.5707 152.149,-25.5427 156.77,-30.8009"/>
</g>
</g>
</svg>
