<?xml version="1.0" encoding="UTF-8" standalone="no"?>
<!DOCTYPE svg PUBLIC "-//W3C//DTD SVG 1.1//EN"
 "http://www.w3.org/Graphics/SVG/1.1/DTD/svg11.dtd">
<!-- Generated by graphviz version 2.26.3 (20100126.1600)
 -->
<!-- Title: src/analysis/slowcontrol/processors/Processor.h Pages: 1 -->
<svg width="2165pt" height="416pt"
 viewBox="0.00 0.00 2165.00 416.00" xmlns="http://www.w3.org/2000/svg" xmlns:xlink="http://www.w3.org/1999/xlink">
<g id="graph1" class="graph" transform="scale(1 1) rotate(0) translate(4 412)">
<title>src/analysis/slowcontrol/processors/Processor.h</title>
<polygon fill="white" stroke="white" points="-4,5 -4,-412 2162,-412 2162,5 -4,5"/>
<!-- Node56 -->
<g id="node1" class="node"><title>Node56</title>
<polygon fill="#bfbfbf" stroke="black" points="653.5,-373 653.5,-407 776.5,-407 776.5,-373 653.5,-373"/>
<text text-anchor="start" x="661.5" y="-394" font-family="Helvetica,sans-Serif" font-size="10.00">src/analysis/slowcontrol</text>
<text text-anchor="middle" x="715" y="-381" font-family="Helvetica,sans-Serif" font-size="10.00">/processors/Processor.h</text>
</g>
<!-- Node57 -->
<g id="node3" class="node"><title>Node57</title>
<a xlink:href="_acqu_scaler_processor_8h.html" target="_top" xlink:title="src/analysis/slowcontrol\l/processors/AcquScalerProcessor.h">
<polygon fill="white" stroke="black" points="461.5,-301 461.5,-335 634.5,-335 634.5,-301 461.5,-301"/>
<text text-anchor="start" x="469.5" y="-322" font-family="Helvetica,sans-Serif" font-size="10.00">src/analysis/slowcontrol</text>
<text text-anchor="middle" x="548" y="-309" font-family="Helvetica,sans-Serif" font-size="10.00">/processors/AcquScalerProcessor.h</text>
</a>
</g>
<!-- Node56&#45;&gt;Node57 -->
<g id="edge2" class="edge"><title>Node56&#45;&gt;Node57</title>
<path fill="none" stroke="midnightblue" d="M666.115,-368.924C641.122,-358.149 611.102,-345.206 587.582,-335.065"/>
<polygon fill="midnightblue" stroke="midnightblue" points="664.855,-372.192 675.423,-372.937 667.626,-365.764 664.855,-372.192"/>
</g>
<!-- Node78 -->
<g id="node50" class="node"><title>Node78</title>
<a xlink:href="_variable_8h.html" target="_top" xlink:title="src/analysis/slowcontrol\l/variables/Variable.h">
<polygon fill="white" stroke="black" points="1138,-229 1138,-263 1260,-263 1260,-229 1138,-229"/>
<text text-anchor="start" x="1146" y="-250" font-family="Helvetica,sans-Serif" font-size="10.00">src/analysis/slowcontrol</text>
<text text-anchor="middle" x="1199" y="-237" font-family="Helvetica,sans-Serif" font-size="10.00">/variables/Variable.h</text>
</a>
</g>
<!-- Node56&#45;&gt;Node78 -->
<g id="edge54" class="edge"><title>Node56&#45;&gt;Node78</title>
<path fill="none" stroke="midnightblue" d="M782.281,-369.983C877.975,-341.512 1051.73,-289.815 1141.65,-263.062"/>
<polygon fill="midnightblue" stroke="midnightblue" points="781.008,-366.709 772.422,-372.916 783.005,-373.419 781.008,-366.709"/>
</g>
<!-- Node58 -->
<g id="node5" class="node"><title>Node58</title>
<a xlink:href="_acqu_scaler_processor_8cc.html" target="_top" xlink:title="src/analysis/slowcontrol\l/processors/AcquScalerProcessor.cc">
<polygon fill="white" stroke="black" points="458.5,-229 458.5,-263 637.5,-263 637.5,-229 458.5,-229"/>
<text text-anchor="start" x="466.5" y="-250" font-family="Helvetica,sans-Serif" font-size="10.00">src/analysis/slowcontrol</text>
<text text-anchor="middle" x="548" y="-237" font-family="Helvetica,sans-Serif" font-size="10.00">/processors/AcquScalerProcessor.cc</text>
</a>
</g>
<!-- Node57&#45;&gt;Node58 -->
<g id="edge4" class="edge"><title>Node57&#45;&gt;Node58</title>
<path fill="none" stroke="midnightblue" d="M548,-290.719C548,-281.572 548,-271.625 548,-263.441"/>
<polygon fill="midnightblue" stroke="midnightblue" points="544.5,-290.937 548,-300.937 551.5,-290.937 544.5,-290.937"/>
</g>
<!-- Node59 -->
<g id="node7" class="node"><title>Node59</title>
<a xlink:href="_beampolmon_8h.html" target="_top" xlink:title="src/analysis/slowcontrol\l/processors/Beampolmon.h">
<polygon fill="white" stroke="black" points="655,-229 655,-263 791,-263 791,-229 655,-229"/>
<text text-anchor="start" x="663" y="-250" font-family="Helvetica,sans-Serif" font-size="10.00">src/analysis/slowcontrol</text>
<text text-anchor="middle" x="723" y="-237" font-family="Helvetica,sans-Serif" font-size="10.00">/processors/Beampolmon.h</text>
</a>
</g>
<!-- Node57&#45;&gt;Node59 -->
<g id="edge6" class="edge"><title>Node57&#45;&gt;Node59</title>
<path fill="none" stroke="midnightblue" d="M598.881,-297.066C625.139,-286.263 656.766,-273.251 681.522,-263.065"/>
<polygon fill="midnightblue" stroke="midnightblue" points="597.389,-293.895 589.473,-300.937 600.052,-300.369 597.389,-293.895"/>
</g>
<!-- Node72 -->
<g id="node34" class="node"><title>Node72</title>
<a xlink:href="_e_p_t___scalers_8h.html" target="_top" xlink:title="src/analysis/slowcontrol\l/processors/EPT_Scalers.h">
<polygon fill="white" stroke="black" points="304.5,-229 304.5,-263 441.5,-263 441.5,-229 304.5,-229"/>
<text text-anchor="start" x="312.5" y="-250" font-family="Helvetica,sans-Serif" font-size="10.00">src/analysis/slowcontrol</text>
<text text-anchor="middle" x="373" y="-237" font-family="Helvetica,sans-Serif" font-size="10.00">/processors/EPT_Scalers.h</text>
</a>
</g>
<!-- Node57&#45;&gt;Node72 -->
<g id="edge34" class="edge"><title>Node57&#45;&gt;Node72</title>
<path fill="none" stroke="midnightblue" d="M497.119,-297.066C470.861,-286.263 439.234,-273.251 414.478,-263.065"/>
<polygon fill="midnightblue" stroke="midnightblue" points="495.948,-300.369 506.527,-300.937 498.611,-293.895 495.948,-300.369"/>
</g>
<!-- Node73 -->
<g id="node37" class="node"><title>Node73</title>
<a xlink:href="_exp_trigger_8h.html" target="_top" xlink:title="src/analysis/slowcontrol\l/processors/ExpTrigger.h">
<polygon fill="white" stroke="black" points="809,-229 809,-263 935,-263 935,-229 809,-229"/>
<text text-anchor="start" x="817" y="-250" font-family="Helvetica,sans-Serif" font-size="10.00">src/analysis/slowcontrol</text>
<text text-anchor="middle" x="872" y="-237" font-family="Helvetica,sans-Serif" font-size="10.00">/processors/ExpTrigger.h</text>
</a>
</g>
<!-- Node57&#45;&gt;Node73 -->
<g id="edge38" class="edge"><title>Node57&#45;&gt;Node73</title>
<path fill="none" stroke="midnightblue" d="M640.999,-298.857C688.634,-288.853 747.509,-276.182 800,-264 802.887,-263.33 805.836,-262.635 808.813,-261.925"/>
<polygon fill="midnightblue" stroke="midnightblue" points="640.081,-295.473 631.011,-300.95 641.517,-302.325 640.081,-295.473"/>
</g>
<!-- Node75 -->
<g id="node42" class="node"><title>Node75</title>
<a xlink:href="processors_2_pair_spec_8h.html" target="_top" xlink:title="src/analysis/slowcontrol\l/processors/PairSpec.h">
<polygon fill="white" stroke="black" points="1,-229 1,-263 123,-263 123,-229 1,-229"/>
<text text-anchor="start" x="9" y="-250" font-family="Helvetica,sans-Serif" font-size="10.00">src/analysis/slowcontrol</text>
<text text-anchor="middle" x="62" y="-237" font-family="Helvetica,sans-Serif" font-size="10.00">/processors/PairSpec.h</text>
</a>
</g>
<!-- Node57&#45;&gt;Node75 -->
<g id="edge44" class="edge"><title>Node57&#45;&gt;Node75</title>
<path fill="none" stroke="midnightblue" d="M451.346,-308.847C366.688,-300.024 240.576,-284.925 132,-264 129.166,-263.454 126.276,-262.861 123.364,-262.233"/>
<polygon fill="midnightblue" stroke="midnightblue" points="451.153,-312.346 461.46,-309.892 451.873,-305.383 451.153,-312.346"/>
</g>
<!-- Node77 -->
<g id="node47" class="node"><title>Node77</title>
<a xlink:href="_tagger___scalers_8h.html" target="_top" xlink:title="src/analysis/slowcontrol\l/processors/Tagger_Scalers.h">
<polygon fill="white" stroke="black" points="140.5,-229 140.5,-263 287.5,-263 287.5,-229 140.5,-229"/>
<text text-anchor="start" x="148.5" y="-250" font-family="Helvetica,sans-Serif" font-size="10.00">src/analysis/slowcontrol</text>
<text text-anchor="middle" x="214" y="-237" font-family="Helvetica,sans-Serif" font-size="10.00">/processors/Tagger_Scalers.h</text>
</a>
</g>
<!-- Node57&#45;&gt;Node77 -->
<g id="edge50" class="edge"><title>Node57&#45;&gt;Node77</title>
<path fill="none" stroke="midnightblue" d="M457.899,-298.806C409.831,-288.538 349.682,-275.643 296,-264 293.294,-263.413 290.537,-262.814 287.753,-262.208"/>
<polygon fill="midnightblue" stroke="midnightblue" points="457.455,-302.291 467.966,-300.956 458.917,-295.445 457.455,-302.291"/>
</g>
<!-- Node60 -->
<g id="node9" class="node"><title>Node60</title>
<a xlink:href="_beampolmon_8cc.html" target="_top" xlink:title="src/analysis/slowcontrol\l/processors/Beampolmon.cc">
<polygon fill="white" stroke="black" points="551.5,-157 551.5,-191 692.5,-191 692.5,-157 551.5,-157"/>
<text text-anchor="start" x="559.5" y="-178" font-family="Helvetica,sans-Serif" font-size="10.00">src/analysis/slowcontrol</text>
<text text-anchor="middle" x="622" y="-165" font-family="Helvetica,sans-Serif" font-size="10.00">/processors/Beampolmon.cc</text>
</a>
</g>
<!-- Node59&#45;&gt;Node60 -->
<g id="edge8" class="edge"><title>Node59&#45;&gt;Node60</title>
<path fill="none" stroke="midnightblue" d="M690.84,-223.074C676.34,-212.738 659.506,-200.737 646.114,-191.19"/>
<polygon fill="midnightblue" stroke="midnightblue" points="688.89,-225.982 699.064,-228.937 692.953,-220.282 688.89,-225.982"/>
</g>
<!-- Node61 -->
<g id="node11" class="node"><title>Node61</title>
<a xlink:href="_slow_control_processors_8h.html" target="_top" xlink:title="src/analysis/slowcontrol\l/SlowControlProcessors.h">
<polygon fill="white" stroke="black" points="403.5,-157 403.5,-191 534.5,-191 534.5,-157 403.5,-157"/>
<text text-anchor="start" x="411.5" y="-178" font-family="Helvetica,sans-Serif" font-size="10.00">src/analysis/slowcontrol</text>
<text text-anchor="middle" x="469" y="-165" font-family="Helvetica,sans-Serif" font-size="10.00">/SlowControlProcessors.h</text>
</a>
</g>
<!-- Node59&#45;&gt;Node61 -->
<g id="edge10" class="edge"><title>Node59&#45;&gt;Node61</title>
<path fill="none" stroke="midnightblue" d="M653.132,-226.195C614.271,-215.179 566.395,-201.608 529.202,-191.065"/>
<polygon fill="midnightblue" stroke="midnightblue" points="652.23,-229.577 662.806,-228.937 654.139,-222.842 652.23,-229.577"/>
</g>
<!-- Node62 -->
<g id="node13" class="node"><title>Node62</title>
<a xlink:href="_slow_control_manager_8h.html" target="_top" xlink:title="src/analysis/slowcontrol\l/SlowControlManager.h">
<polygon fill="white" stroke="black" points="235,-85 235,-119 357,-119 357,-85 235,-85"/>
<text text-anchor="start" x="243" y="-106" font-family="Helvetica,sans-Serif" font-size="10.00">src/analysis/slowcontrol</text>
<text text-anchor="middle" x="296" y="-93" font-family="Helvetica,sans-Serif" font-size="10.00">/SlowControlManager.h</text>
</a>
</g>
<!-- Node61&#45;&gt;Node62 -->
<g id="edge12" class="edge"><title>Node61&#45;&gt;Node62</title>
<path fill="none" stroke="midnightblue" d="M418.7,-153.066C392.742,-142.263 361.477,-129.251 337.004,-119.065"/>
<polygon fill="midnightblue" stroke="midnightblue" points="417.424,-156.326 428.001,-156.937 420.114,-149.863 417.424,-156.326"/>
</g>
<!-- Node65 -->
<g id="node19" class="node"><title>Node65</title>
<a xlink:href="_test_slow_control_manager_8cc.html" target="_top" xlink:title="test/analysis/TestSlowControl\lManager.cc">
<polygon fill="white" stroke="black" points="311,-7 311,-41 459,-41 459,-7 311,-7"/>
<text text-anchor="start" x="319" y="-28" font-family="Helvetica,sans-Serif" font-size="10.00">test/analysis/TestSlowControl</text>
<text text-anchor="middle" x="385" y="-15" font-family="Helvetica,sans-Serif" font-size="10.00">Manager.cc</text>
</a>
</g>
<!-- Node61&#45;&gt;Node65 -->
<g id="edge32" class="edge"><title>Node61&#45;&gt;Node65</title>
<path fill="none" stroke="midnightblue" d="M432.334,-150.744C421.692,-142.289 411.051,-131.857 404,-120 389.324,-95.3208 385.745,-61.3885 385.007,-41.1754"/>
<polygon fill="midnightblue" stroke="midnightblue" points="430.316,-153.605 440.413,-156.814 434.521,-148.009 430.316,-153.605"/>
</g>
<!-- Node66 -->
<g id="node21" class="node"><title>Node66</title>
<a xlink:href="_slow_control_processors_8cc.html" target="_top" xlink:title="src/analysis/slowcontrol\l/SlowControlProcessors.cc">
<polygon fill="white" stroke="black" points="413,-85 413,-119 549,-119 549,-85 413,-85"/>
<text text-anchor="start" x="421" y="-106" font-family="Helvetica,sans-Serif" font-size="10.00">src/analysis/slowcontrol</text>
<text text-anchor="middle" x="481" y="-93" font-family="Helvetica,sans-Serif" font-size="10.00">/SlowControlProcessors.cc</text>
</a>
</g>
<!-- Node61&#45;&gt;Node66 -->
<g id="edge20" class="edge"><title>Node61&#45;&gt;Node66</title>
<path fill="none" stroke="midnightblue" d="M473.497,-147.017C475.035,-137.788 476.714,-127.714 478.093,-119.441"/>
<polygon fill="midnightblue" stroke="midnightblue" points="470.036,-146.498 471.844,-156.937 476.94,-147.648 470.036,-146.498"/>
</g>
<!-- Node67 -->
<g id="node23" class="node"><title>Node67</title>
<a xlink:href="_beam_8cc.html" target="_top" xlink:title="src/analysis/slowcontrol\l/variables/Beam.cc">
<polygon fill="white" stroke="black" points="567,-85 567,-119 689,-119 689,-85 567,-85"/>
<text text-anchor="start" x="575" y="-106" font-family="Helvetica,sans-Serif" font-size="10.00">src/analysis/slowcontrol</text>
<text text-anchor="middle" x="628" y="-93" font-family="Helvetica,sans-Serif" font-size="10.00">/variables/Beam.cc</text>
</a>
</g>
<!-- Node61&#45;&gt;Node67 -->
<g id="edge22" class="edge"><title>Node61&#45;&gt;Node67</title>
<path fill="none" stroke="midnightblue" d="M515.858,-152.781C539.59,-142.035 568.019,-129.161 590.314,-119.065"/>
<polygon fill="midnightblue" stroke="midnightblue" points="514.347,-149.624 506.681,-156.937 517.234,-156 514.347,-149.624"/>
</g>
<!-- Node68 -->
<g id="node25" class="node"><title>Node68</title>
<a xlink:href="_clocks_8cc.html" target="_top" xlink:title="src/analysis/slowcontrol\l/variables/Clocks.cc">
<polygon fill="white" stroke="black" points="1143,-85 1143,-119 1265,-119 1265,-85 1143,-85"/>
<text text-anchor="start" x="1151" y="-106" font-family="Helvetica,sans-Serif" font-size="10.00">src/analysis/slowcontrol</text>
<text text-anchor="middle" x="1204" y="-93" font-family="Helvetica,sans-Serif" font-size="10.00">/variables/Clocks.cc</text>
</a>
</g>
<!-- Node61&#45;&gt;Node68 -->
<g id="edge24" class="edge"><title>Node61&#45;&gt;Node68</title>
<path fill="none" stroke="midnightblue" d="M544.781,-155.883C805.039,-117.855 877.353,-160.434 1134,-120 1136.85,-119.551 1139.75,-119.037 1142.68,-118.474"/>
<polygon fill="midnightblue" stroke="midnightblue" points="544.023,-152.457 534.647,-157.391 545.053,-159.381 544.023,-152.457"/>
</g>
<!-- Node69 -->
<g id="node27" class="node"><title>Node69</title>
<a xlink:href="variables_2_pair_spec_8cc.html" target="_top" xlink:title="src/analysis/slowcontrol\l/variables/Pairspec.cc">
<polygon fill="white" stroke="black" points="707,-85 707,-119 829,-119 829,-85 707,-85"/>
<text text-anchor="start" x="715" y="-106" font-family="Helvetica,sans-Serif" font-size="10.00">src/analysis/slowcontrol</text>
<text text-anchor="middle" x="768" y="-93" font-family="Helvetica,sans-Serif" font-size="10.00">/variables/Pairspec.cc</text>
</a>
</g>
<!-- Node61&#45;&gt;Node69 -->
<g id="edge26" class="edge"><title>Node61&#45;&gt;Node69</title>
<path fill="none" stroke="midnightblue" d="M544.792,-155.589C613.48,-139.359 632.39,-136.053 698,-120 700.925,-119.284 703.917,-118.545 706.938,-117.792"/>
<polygon fill="midnightblue" stroke="midnightblue" points="543.682,-152.255 534.759,-157.967 545.297,-159.066 543.682,-152.255"/>
</g>
<!-- Node70 -->
<g id="node29" class="node"><title>Node70</title>
<a xlink:href="_tagger_scalers_8cc.html" target="_top" xlink:title="src/analysis/slowcontrol\l/variables/TaggerScalers.cc">
<polygon fill="white" stroke="black" points="987,-85 987,-119 1125,-119 1125,-85 987,-85"/>
<text text-anchor="start" x="995" y="-106" font-family="Helvetica,sans-Serif" font-size="10.00">src/analysis/slowcontrol</text>
<text text-anchor="middle" x="1056" y="-93" font-family="Helvetica,sans-Serif" font-size="10.00">/variables/TaggerScalers.cc</text>
</a>
</g>
<!-- Node61&#45;&gt;Node70 -->
<g id="edge28" class="edge"><title>Node61&#45;&gt;Node70</title>
<path fill="none" stroke="midnightblue" d="M544.776,-155.85C736.31,-125.816 789.598,-149.378 978,-120 980.884,-119.55 983.819,-119.053 986.778,-118.52"/>
<polygon fill="midnightblue" stroke="midnightblue" points="543.982,-152.433 534.659,-157.466 545.086,-159.345 543.982,-152.433"/>
</g>
<!-- Node71 -->
<g id="node31" class="node"><title>Node71</title>
<a xlink:href="analysis_2slowcontrol_2variables_2_trigger_8cc.html" target="_top" xlink:title="src/analysis/slowcontrol\l/variables/Trigger.cc">
<polygon fill="white" stroke="black" points="847,-85 847,-119 969,-119 969,-85 847,-85"/>
<text text-anchor="start" x="855" y="-106" font-family="Helvetica,sans-Serif" font-size="10.00">src/analysis/slowcontrol</text>
<text text-anchor="middle" x="908" y="-93" font-family="Helvetica,sans-Serif" font-size="10.00">/variables/Trigger.cc</text>
</a>
</g>
<!-- Node61&#45;&gt;Node71 -->
<g id="edge30" class="edge"><title>Node61&#45;&gt;Node71</title>
<path fill="none" stroke="midnightblue" d="M544.628,-155.817C674.727,-132.922 711.377,-143.901 838,-120 840.836,-119.465 843.727,-118.88 846.641,-118.26"/>
<polygon fill="midnightblue" stroke="midnightblue" points="543.907,-152.39 534.682,-157.6 545.143,-159.28 543.907,-152.39"/>
</g>
<!-- Node63 -->
<g id="node15" class="node"><title>Node63</title>
<a xlink:href="_physics_manager_8cc.html" target="_top" xlink:title="src/analysis/physics\l/PhysicsManager.cc">
<polygon fill="white" stroke="black" points="187,-7 187,-41 293,-41 293,-7 187,-7"/>
<text text-anchor="start" x="195" y="-28" font-family="Helvetica,sans-Serif" font-size="10.00">src/analysis/physics</text>
<text text-anchor="middle" x="240" y="-15" font-family="Helvetica,sans-Serif" font-size="10.00">/PhysicsManager.cc</text>
</a>
</g>
<!-- Node62&#45;&gt;Node63 -->
<g id="edge14" class="edge"><title>Node62&#45;&gt;Node63</title>
<path fill="none" stroke="midnightblue" d="M277.559,-76.3138C269.301,-64.8115 259.782,-51.5534 252.393,-41.2623"/>
<polygon fill="midnightblue" stroke="midnightblue" points="274.897,-78.6073 283.572,-84.6893 280.583,-74.5248 274.897,-78.6073"/>
</g>
<!-- Node64 -->
<g id="node17" class="node"><title>Node64</title>
<a xlink:href="_slow_control_manager_8cc.html" target="_top" xlink:title="src/analysis/slowcontrol\l/SlowControlManager.cc">
<polygon fill="white" stroke="black" points="477,-7 477,-41 601,-41 601,-7 477,-7"/>
<text text-anchor="start" x="485" y="-28" font-family="Helvetica,sans-Serif" font-size="10.00">src/analysis/slowcontrol</text>
<text text-anchor="middle" x="539" y="-15" font-family="Helvetica,sans-Serif" font-size="10.00">/SlowControlManager.cc</text>
</a>
</g>
<!-- Node62&#45;&gt;Node64 -->
<g id="edge16" class="edge"><title>Node62&#45;&gt;Node64</title>
<path fill="none" stroke="midnightblue" d="M361.23,-81.8875C393.422,-71.8681 432.807,-59.471 468,-48 474.804,-45.7822 481.962,-43.4096 489.007,-41.0511"/>
<polygon fill="midnightblue" stroke="midnightblue" points="359.993,-78.6066 351.482,-84.9169 362.071,-85.2912 359.993,-78.6066"/>
</g>
<!-- Node62&#45;&gt;Node65 -->
<g id="edge18" class="edge"><title>Node62&#45;&gt;Node65</title>
<path fill="none" stroke="midnightblue" d="M323.394,-77.9921C336.942,-66.1185 352.985,-52.0579 365.303,-41.2623"/>
<polygon fill="midnightblue" stroke="midnightblue" points="320.966,-75.466 315.752,-84.6893 325.579,-80.7304 320.966,-75.466"/>
</g>
<!-- Node72&#45;&gt;Node61 -->
<g id="edge36" class="edge"><title>Node72&#45;&gt;Node61</title>
<path fill="none" stroke="midnightblue" d="M403.955,-222.784C417.649,-212.514 433.47,-200.648 446.08,-191.19"/>
<polygon fill="midnightblue" stroke="midnightblue" points="401.651,-220.137 395.751,-228.937 405.851,-225.737 401.651,-220.137"/>
</g>
<!-- Node73&#45;&gt;Node61 -->
<g id="edge42" class="edge"><title>Node73&#45;&gt;Node61</title>
<path fill="none" stroke="midnightblue" d="M798.712,-227.865C684.99,-206.394 653.078,-213.044 543,-192 540.273,-191.479 537.495,-190.922 534.693,-190.339"/>
<polygon fill="midnightblue" stroke="midnightblue" points="798.388,-231.367 808.868,-229.816 799.708,-224.492 798.388,-231.367"/>
</g>
<!-- Node74 -->
<g id="node39" class="node"><title>Node74</title>
<a xlink:href="_exp_trigger_8cc.html" target="_top" xlink:title="src/analysis/slowcontrol\l/processors/ExpTrigger.cc">
<polygon fill="white" stroke="black" points="709.5,-157 709.5,-191 840.5,-191 840.5,-157 709.5,-157"/>
<text text-anchor="start" x="717.5" y="-178" font-family="Helvetica,sans-Serif" font-size="10.00">src/analysis/slowcontrol</text>
<text text-anchor="middle" x="775" y="-165" font-family="Helvetica,sans-Serif" font-size="10.00">/processors/ExpTrigger.cc</text>
</a>
</g>
<!-- Node73&#45;&gt;Node74 -->
<g id="edge40" class="edge"><title>Node73&#45;&gt;Node74</title>
<path fill="none" stroke="midnightblue" d="M840.723,-222.784C826.886,-212.514 810.9,-200.648 798.159,-191.19"/>
<polygon fill="midnightblue" stroke="midnightblue" points="838.897,-225.787 849.012,-228.937 843.069,-220.166 838.897,-225.787"/>
</g>
<!-- Node75&#45;&gt;Node61 -->
<g id="edge48" class="edge"><title>Node75&#45;&gt;Node61</title>
<path fill="none" stroke="midnightblue" d="M132.952,-227.898C232.706,-207.444 337.482,-191.803 403.437,-182.668"/>
<polygon fill="midnightblue" stroke="midnightblue" points="132.088,-224.503 123.005,-229.958 133.507,-231.357 132.088,-224.503"/>
</g>
<!-- Node76 -->
<g id="node44" class="node"><title>Node76</title>
<a xlink:href="processors_2_pair_spec_8cc.html" target="_top" xlink:title="src/analysis/slowcontrol\l/processors/PairSpec.cc">
<polygon fill="white" stroke="black" points="0,-157 0,-191 124,-191 124,-157 0,-157"/>
<text text-anchor="start" x="8" y="-178" font-family="Helvetica,sans-Serif" font-size="10.00">src/analysis/slowcontrol</text>
<text text-anchor="middle" x="62" y="-165" font-family="Helvetica,sans-Serif" font-size="10.00">/processors/PairSpec.cc</text>
</a>
</g>
<!-- Node75&#45;&gt;Node76 -->
<g id="edge46" class="edge"><title>Node75&#45;&gt;Node76</title>
<path fill="none" stroke="midnightblue" d="M62,-218.719C62,-209.572 62,-199.625 62,-191.441"/>
<polygon fill="midnightblue" stroke="midnightblue" points="58.5001,-218.937 62,-228.937 65.5001,-218.937 58.5001,-218.937"/>
</g>
<!-- Node77&#45;&gt;Node61 -->
<g id="edge52" class="edge"><title>Node77&#45;&gt;Node61</title>
<path fill="none" stroke="midnightblue" d="M284.143,-226.195C323.157,-215.179 371.222,-201.608 408.561,-191.065"/>
<polygon fill="midnightblue" stroke="midnightblue" points="283.104,-222.851 274.431,-228.937 285.006,-229.588 283.104,-222.851"/>
</g>
<!-- Node79 -->
<g id="node52" class="node"><title>Node79</title>
<a xlink:href="_slow_control_variables_8h.html" target="_top" xlink:title="src/analysis/slowcontrol\l/SlowControlVariables.h">
<polygon fill="white" stroke="black" points="1283,-85 1283,-119 1405,-119 1405,-85 1283,-85"/>
<text text-anchor="start" x="1291" y="-106" font-family="Helvetica,sans-Serif" font-size="10.00">src/analysis/slowcontrol</text>
<text text-anchor="middle" x="1344" y="-93" font-family="Helvetica,sans-Serif" font-size="10.00">/SlowControlVariables.h</text>
</a>
</g>
<!-- Node78&#45;&gt;Node79 -->
<g id="edge56" class="edge"><title>Node78&#45;&gt;Node79</title>
<path fill="none" stroke="midnightblue" d="M1270.33,-240.255C1369.88,-231.505 1540.43,-213.558 1559,-192 1605.94,-137.499 1484.04,-115.293 1405.14,-106.809"/>
<polygon fill="midnightblue" stroke="midnightblue" points="1269.99,-236.771 1260.33,-241.124 1270.6,-243.745 1269.99,-236.771"/>
</g>
<!-- Node91 -->
<g id="node78" class="node"><title>Node91</title>
<a xlink:href="_tagger_scalers_8h.html" target="_top" xlink:title="src/analysis/slowcontrol\l/variables/TaggerScalers.h">
<polygon fill="white" stroke="black" points="1277.5,-157 1277.5,-191 1410.5,-191 1410.5,-157 1277.5,-157"/>
<text text-anchor="start" x="1285.5" y="-178" font-family="Helvetica,sans-Serif" font-size="10.00">src/analysis/slowcontrol</text>
<text text-anchor="middle" x="1344" y="-165" font-family="Helvetica,sans-Serif" font-size="10.00">/variables/TaggerScalers.h</text>
</a>
</g>
<!-- Node78&#45;&gt;Node91 -->
<g id="edge84" class="edge"><title>Node78&#45;&gt;Node91</title>
<path fill="none" stroke="midnightblue" d="M1242.6,-224.352C1264.06,-213.693 1289.57,-201.027 1309.63,-191.065"/>
<polygon fill="midnightblue" stroke="midnightblue" points="1240.76,-221.355 1233.36,-228.937 1243.88,-227.624 1240.76,-221.355"/>
</g>
<!-- Node92 -->
<g id="node82" class="node"><title>Node92</title>
<a xlink:href="_clocks_8h.html" target="_top" xlink:title="src/analysis/slowcontrol\l/variables/Clocks.h">
<polygon fill="white" stroke="black" points="1428,-157 1428,-191 1550,-191 1550,-157 1428,-157"/>
<text text-anchor="start" x="1436" y="-178" font-family="Helvetica,sans-Serif" font-size="10.00">src/analysis/slowcontrol</text>
<text text-anchor="middle" x="1489" y="-165" font-family="Helvetica,sans-Serif" font-size="10.00">/variables/Clocks.h</text>
</a>
</g>
<!-- Node78&#45;&gt;Node92 -->
<g id="edge90" class="edge"><title>Node78&#45;&gt;Node92</title>
<path fill="none" stroke="midnightblue" d="M1270.04,-228.772C1313.16,-218.264 1369.28,-204.493 1419,-192 1421.92,-191.266 1424.91,-190.512 1427.93,-189.747"/>
<polygon fill="midnightblue" stroke="midnightblue" points="1269.1,-225.399 1260.21,-231.166 1270.76,-232.2 1269.1,-225.399"/>
</g>
<!-- Node93 -->
<g id="node86" class="node"><title>Node93</title>
<a xlink:href="_beam_8h.html" target="_top" xlink:title="src/analysis/slowcontrol\l/variables/Beam.h">
<polygon fill="white" stroke="black" points="858,-157 858,-191 980,-191 980,-157 858,-157"/>
<text text-anchor="start" x="866" y="-178" font-family="Helvetica,sans-Serif" font-size="10.00">src/analysis/slowcontrol</text>
<text text-anchor="middle" x="919" y="-165" font-family="Helvetica,sans-Serif" font-size="10.00">/variables/Beam.h</text>
</a>
</g>
<!-- Node78&#45;&gt;Node93 -->
<g id="edge96" class="edge"><title>Node78&#45;&gt;Node93</title>
<path fill="none" stroke="midnightblue" d="M1128.1,-227.768C1082.56,-216.059 1024.01,-201.003 980.454,-189.802"/>
<polygon fill="midnightblue" stroke="midnightblue" points="1127.34,-231.188 1137.9,-230.288 1129.09,-224.408 1127.34,-231.188"/>
</g>
<!-- Node94 -->
<g id="node90" class="node"><title>Node94</title>
<a xlink:href="variables_2_pair_spec_8h.html" target="_top" xlink:title="src/analysis/slowcontrol\l/variables/Pairspec.h">
<polygon fill="white" stroke="black" points="998,-157 998,-191 1120,-191 1120,-157 998,-157"/>
<text text-anchor="start" x="1006" y="-178" font-family="Helvetica,sans-Serif" font-size="10.00">src/analysis/slowcontrol</text>
<text text-anchor="middle" x="1059" y="-165" font-family="Helvetica,sans-Serif" font-size="10.00">/variables/Pairspec.h</text>
</a>
</g>
<!-- Node78&#45;&gt;Node94 -->
<g id="edge102" class="edge"><title>Node78&#45;&gt;Node94</title>
<path fill="none" stroke="midnightblue" d="M1156.66,-224.226C1136.07,-213.638 1111.68,-201.094 1092.43,-191.19"/>
<polygon fill="midnightblue" stroke="midnightblue" points="1155.33,-227.476 1165.82,-228.937 1158.53,-221.251 1155.33,-227.476"/>
</g>
<!-- Node95 -->
<g id="node94" class="node"><title>Node95</title>
<a xlink:href="analysis_2slowcontrol_2variables_2_trigger_8h.html" target="_top" xlink:title="src/analysis/slowcontrol\l/variables/Trigger.h">
<polygon fill="white" stroke="black" points="1138,-157 1138,-191 1260,-191 1260,-157 1138,-157"/>
<text text-anchor="start" x="1146" y="-178" font-family="Helvetica,sans-Serif" font-size="10.00">src/analysis/slowcontrol</text>
<text text-anchor="middle" x="1199" y="-165" font-family="Helvetica,sans-Serif" font-size="10.00">/variables/Trigger.h</text>
</a>
</g>
<!-- Node78&#45;&gt;Node95 -->
<g id="edge108" class="edge"><title>Node78&#45;&gt;Node95</title>
<path fill="none" stroke="midnightblue" d="M1199,-218.719C1199,-209.572 1199,-199.625 1199,-191.441"/>
<polygon fill="midnightblue" stroke="midnightblue" points="1195.5,-218.937 1199,-228.937 1202.5,-218.937 1195.5,-218.937"/>
</g>
<!-- Node79&#45;&gt;Node64 -->
<g id="edge78" class="edge"><title>Node79&#45;&gt;Node64</title>
<path fill="none" stroke="midnightblue" d="M1272.63,-83.9767C980.044,-40.4208 896.963,-103.209 610,-48 601.311,-46.3284 592.229,-43.8515 583.575,-41.115"/>
<polygon fill="midnightblue" stroke="midnightblue" points="1272.27,-87.462 1282.68,-85.5023 1273.32,-80.5413 1272.27,-87.462"/>
</g>
<!-- Node79&#45;&gt;Node65 -->
<g id="edge82" class="edge"><title>Node79&#45;&gt;Node65</title>
<path fill="none" stroke="midnightblue" d="M1272.64,-83.9877C917.518,-32.4489 818.54,-105.67 468,-48 457.787,-46.3198 447.05,-43.8018 436.813,-41.0197"/>
<polygon fill="midnightblue" stroke="midnightblue" points="1272.28,-87.4724 1282.69,-85.4686 1273.3,-80.5473 1272.28,-87.4724"/>
</g>
<!-- Node80 -->
<g id="node54" class="node"><title>Node80</title>
<a xlink:href="_debug_physics_8cc.html" target="_top" xlink:title="src/analysis/physics\l/common/DebugPhysics.cc">
<polygon fill="white" stroke="black" points="886.5,-7 886.5,-41 1023.5,-41 1023.5,-7 886.5,-7"/>
<text text-anchor="start" x="894.5" y="-28" font-family="Helvetica,sans-Serif" font-size="10.00">src/analysis/physics</text>
<text text-anchor="middle" x="955" y="-15" font-family="Helvetica,sans-Serif" font-size="10.00">/common/DebugPhysics.cc</text>
</a>
</g>
<!-- Node79&#45;&gt;Node80 -->
<g id="edge58" class="edge"><title>Node79&#45;&gt;Node80</title>
<path fill="none" stroke="midnightblue" d="M1272.72,-83.8595C1165.63,-62.9768 1134.89,-71.5405 1032,-48 1023.4,-46.0326 1014.37,-43.5801 1005.64,-41.0003"/>
<polygon fill="midnightblue" stroke="midnightblue" points="1272.13,-87.3121 1282.62,-85.8325 1273.5,-80.4469 1272.13,-87.3121"/>
</g>
<!-- Node81 -->
<g id="node56" class="node"><title>Node81</title>
<a xlink:href="_extract_scalers_8cc.html" target="_top" xlink:title="src/analysis/physics\l/common/ExtractScalers.cc">
<polygon fill="white" stroke="black" points="1041,-7 1041,-41 1179,-41 1179,-7 1041,-7"/>
<text text-anchor="start" x="1049" y="-28" font-family="Helvetica,sans-Serif" font-size="10.00">src/analysis/physics</text>
<text text-anchor="middle" x="1110" y="-15" font-family="Helvetica,sans-Serif" font-size="10.00">/common/ExtractScalers.cc</text>
</a>
</g>
<!-- Node79&#45;&gt;Node81 -->
<g id="edge60" class="edge"><title>Node79&#45;&gt;Node81</title>
<path fill="none" stroke="midnightblue" d="M1283.06,-81.6876C1245.26,-69.0856 1197.22,-53.0747 1161.36,-41.1193"/>
<polygon fill="midnightblue" stroke="midnightblue" points="1282.34,-85.137 1292.94,-84.979 1284.56,-78.4962 1282.34,-85.137"/>
</g>
<!-- Node82 -->
<g id="node58" class="node"><title>Node82</title>
<a xlink:href="_photon_flux_8cc.html" target="_top" xlink:title="src/analysis/physics\l/common/PhotonFlux.cc">
<polygon fill="white" stroke="black" points="1196.5,-7 1196.5,-41 1319.5,-41 1319.5,-7 1196.5,-7"/>
<text text-anchor="start" x="1204.5" y="-28" font-family="Helvetica,sans-Serif" font-size="10.00">src/analysis/physics</text>
<text text-anchor="middle" x="1258" y="-15" font-family="Helvetica,sans-Serif" font-size="10.00">/common/PhotonFlux.cc</text>
</a>
</g>
<!-- Node79&#45;&gt;Node82 -->
<g id="edge62" class="edge"><title>Node79&#45;&gt;Node82</title>
<path fill="none" stroke="midnightblue" d="M1317.16,-77.6587C1304.15,-65.8559 1288.82,-51.957 1277.03,-41.2623"/>
<polygon fill="midnightblue" stroke="midnightblue" points="1315.16,-80.5636 1324.91,-84.6893 1319.86,-75.3786 1315.16,-80.5636"/>
</g>
<!-- Node83 -->
<g id="node60" class="node"><title>Node83</title>
<a xlink:href="_process_tagg_eff_8cc.html" target="_top" xlink:title="src/analysis/physics\l/common/ProcessTaggEff.cc">
<polygon fill="white" stroke="black" points="1337,-7 1337,-41 1481,-41 1481,-7 1337,-7"/>
<text text-anchor="start" x="1345" y="-28" font-family="Helvetica,sans-Serif" font-size="10.00">src/analysis/physics</text>
<text text-anchor="middle" x="1409" y="-15" font-family="Helvetica,sans-Serif" font-size="10.00">/common/ProcessTaggEff.cc</text>
</a>
</g>
<!-- Node79&#45;&gt;Node83 -->
<g id="edge64" class="edge"><title>Node79&#45;&gt;Node83</title>
<path fill="none" stroke="midnightblue" d="M1364.84,-76.9884C1374.56,-65.3326 1385.87,-51.7552 1394.61,-41.2623"/>
<polygon fill="midnightblue" stroke="midnightblue" points="1362.14,-74.7664 1358.43,-84.6893 1367.52,-79.2477 1362.14,-74.7664"/>
</g>
<!-- Node84 -->
<g id="node62" class="node"><title>Node84</title>
<a xlink:href="debug_scalers_8cc.html" target="_top" xlink:title="src/analysis/physics\l/misc/debugScalers.cc">
<polygon fill="white" stroke="black" points="1499,-7 1499,-41 1615,-41 1615,-7 1499,-7"/>
<text text-anchor="start" x="1507" y="-28" font-family="Helvetica,sans-Serif" font-size="10.00">src/analysis/physics</text>
<text text-anchor="middle" x="1557" y="-15" font-family="Helvetica,sans-Serif" font-size="10.00">/misc/debugScalers.cc</text>
</a>
</g>
<!-- Node79&#45;&gt;Node84 -->
<g id="edge66" class="edge"><title>Node79&#45;&gt;Node84</title>
<path fill="none" stroke="midnightblue" d="M1399.91,-81.5265C1434.25,-68.9494 1477.74,-53.0238 1510.25,-41.1193"/>
<polygon fill="midnightblue" stroke="midnightblue" points="1398.67,-78.2537 1390.48,-84.979 1401.07,-84.8268 1398.67,-78.2537"/>
</g>
<!-- Node85 -->
<g id="node64" class="node"><title>Node85</title>
<a xlink:href="debug_tagg_eff_8cc.html" target="_top" xlink:title="src/analysis/physics\l/misc/debugTaggEff.cc">
<polygon fill="white" stroke="black" points="1633,-7 1633,-41 1751,-41 1751,-7 1633,-7"/>
<text text-anchor="start" x="1641" y="-28" font-family="Helvetica,sans-Serif" font-size="10.00">src/analysis/physics</text>
<text text-anchor="middle" x="1692" y="-15" font-family="Helvetica,sans-Serif" font-size="10.00">/misc/debugTaggEff.cc</text>
</a>
</g>
<!-- Node79&#45;&gt;Node85 -->
<g id="edge68" class="edge"><title>Node79&#45;&gt;Node85</title>
<path fill="none" stroke="midnightblue" d="M1415.22,-91.2719C1472.21,-81.9681 1553.91,-67.014 1624,-48 1631.37,-46.0006 1639.09,-43.5913 1646.57,-41.0811"/>
<polygon fill="midnightblue" stroke="midnightblue" points="1414.54,-87.8358 1405.23,-92.8863 1415.66,-94.7462 1414.54,-87.8358"/>
</g>
<!-- Node86 -->
<g id="node66" class="node"><title>Node86</title>
<a xlink:href="single_pi0_8cc.html" target="_top" xlink:title="src/analysis/physics\l/production/singlePi0.cc">
<polygon fill="white" stroke="black" points="1768.5,-7 1768.5,-41 1889.5,-41 1889.5,-7 1768.5,-7"/>
<text text-anchor="start" x="1776.5" y="-28" font-family="Helvetica,sans-Serif" font-size="10.00">src/analysis/physics</text>
<text text-anchor="middle" x="1829" y="-15" font-family="Helvetica,sans-Serif" font-size="10.00">/production/singlePi0.cc</text>
</a>
</g>
<!-- Node79&#45;&gt;Node86 -->
<g id="edge70" class="edge"><title>Node79&#45;&gt;Node86</title>
<path fill="none" stroke="midnightblue" d="M1415.47,-97.2121C1498.99,-90.5879 1640.93,-76.1199 1760,-48 1767.9,-46.1344 1776.16,-43.7015 1784.11,-41.1017"/>
<polygon fill="midnightblue" stroke="midnightblue" points="1415.03,-93.7358 1405.33,-98.0005 1415.57,-100.715 1415.03,-93.7358"/>
</g>
<!-- Node87 -->
<g id="node68" class="node"><title>Node87</title>
<a xlink:href="triple_pi0_8cc.html" target="_top" xlink:title="src/analysis/physics\l/production/triplePi0.cc">
<polygon fill="white" stroke="black" points="1907,-7 1907,-41 2023,-41 2023,-7 1907,-7"/>
<text text-anchor="start" x="1915" y="-28" font-family="Helvetica,sans-Serif" font-size="10.00">src/analysis/physics</text>
<text text-anchor="middle" x="1965" y="-15" font-family="Helvetica,sans-Serif" font-size="10.00">/production/triplePi0.cc</text>
</a>
</g>
<!-- Node79&#45;&gt;Node87 -->
<g id="edge72" class="edge"><title>Node79&#45;&gt;Node87</title>
<path fill="none" stroke="midnightblue" d="M1415.44,-97.2396C1543.67,-88.3286 1807.91,-68.199 1898,-48 1905.96,-46.2159 1914.26,-43.7565 1922.21,-41.0886"/>
<polygon fill="midnightblue" stroke="midnightblue" points="1415.06,-93.7573 1405.33,-97.9386 1415.55,-100.741 1415.06,-93.7573"/>
</g>
<!-- Node88 -->
<g id="node70" class="node"><title>Node88</title>
<a xlink:href="cross__section_8cc.html" target="_top" xlink:title="src/analysis/physics\l/scratch/collicott/cross\l_section.cc">
<polygon fill="white" stroke="black" points="2041,-0.5 2041,-47.5 2157,-47.5 2157,-0.5 2041,-0.5"/>
<text text-anchor="start" x="2049" y="-34.5" font-family="Helvetica,sans-Serif" font-size="10.00">src/analysis/physics</text>
<text text-anchor="start" x="2049" y="-21.5" font-family="Helvetica,sans-Serif" font-size="10.00">/scratch/collicott/cross</text>
<text text-anchor="middle" x="2099" y="-8.5" font-family="Helvetica,sans-Serif" font-size="10.00">_section.cc</text>
</a>
</g>
<!-- Node79&#45;&gt;Node88 -->
<g id="edge74" class="edge"><title>Node79&#45;&gt;Node88</title>
<path fill="none" stroke="midnightblue" d="M1415.35,-98.8032C1566.76,-91.6276 1915.83,-72.8994 2032,-48 2034.9,-47.3785 2037.84,-46.6626 2040.8,-45.8755"/>
<polygon fill="midnightblue" stroke="midnightblue" points="1415.06,-95.3131 1405.24,-99.2795 1415.39,-102.305 1415.06,-95.3131"/>
</g>
<!-- Node89 -->
<g id="node72" class="node"><title>Node89</title>
<a xlink:href="det__eff_8cc.html" target="_top" xlink:title="src/analysis/physics\l/scratch/collicott/det\l_eff.cc">
<polygon fill="white" stroke="black" points="619,-0.5 619,-47.5 725,-47.5 725,-0.5 619,-0.5"/>
<text text-anchor="start" x="627" y="-34.5" font-family="Helvetica,sans-Serif" font-size="10.00">src/analysis/physics</text>
<text text-anchor="start" x="627" y="-21.5" font-family="Helvetica,sans-Serif" font-size="10.00">/scratch/collicott/det</text>
<text text-anchor="middle" x="672" y="-8.5" font-family="Helvetica,sans-Serif" font-size="10.00">_eff.cc</text>
</a>
</g>
<!-- Node79&#45;&gt;Node89 -->
<g id="edge76" class="edge"><title>Node79&#45;&gt;Node89</title>
<path fill="none" stroke="midnightblue" d="M1272.68,-83.9717C1034.62,-47.3457 965.632,-99.2992 734,-48 731.07,-47.3511 728.096,-46.5865 725.116,-45.7363"/>
<polygon fill="midnightblue" stroke="midnightblue" points="1272.25,-87.4478 1282.68,-85.5463 1273.34,-80.533 1272.25,-87.4478"/>
</g>
<!-- Node90 -->
<g id="node75" class="node"><title>Node90</title>
<a xlink:href="_slow_control_variables_8cc.html" target="_top" xlink:title="src/analysis/slowcontrol\l/SlowControlVariables.cc">
<polygon fill="white" stroke="black" points="742.5,-7 742.5,-41 869.5,-41 869.5,-7 742.5,-7"/>
<text text-anchor="start" x="750.5" y="-28" font-family="Helvetica,sans-Serif" font-size="10.00">src/analysis/slowcontrol</text>
<text text-anchor="middle" x="806" y="-15" font-family="Helvetica,sans-Serif" font-size="10.00">/SlowControlVariables.cc</text>
</a>
</g>
<!-- Node79&#45;&gt;Node90 -->
<g id="edge80" class="edge"><title>Node79&#45;&gt;Node90</title>
<path fill="none" stroke="midnightblue" d="M1272.62,-83.9282C1098,-54.9976 1047.77,-83.5127 878,-48 869.488,-46.2195 860.579,-43.7618 852.044,-41.0945"/>
<polygon fill="midnightblue" stroke="midnightblue" points="1272.22,-87.4094 1282.66,-85.6315 1273.39,-80.508 1272.22,-87.4094"/>
</g>
<!-- Node91&#45;&gt;Node70 -->
<g id="edge88" class="edge"><title>Node91&#45;&gt;Node70</title>
<path fill="none" stroke="midnightblue" d="M1267.3,-154.825C1222.78,-143.694 1167.17,-129.793 1124.18,-119.046"/>
<polygon fill="midnightblue" stroke="midnightblue" points="1266.65,-158.271 1277.2,-157.301 1268.35,-151.48 1266.65,-158.271"/>
</g>
<!-- Node91&#45;&gt;Node79 -->
<g id="edge86" class="edge"><title>Node91&#45;&gt;Node79</title>
<path fill="none" stroke="midnightblue" d="M1344,-146.719C1344,-137.572 1344,-127.625 1344,-119.441"/>
<polygon fill="midnightblue" stroke="midnightblue" points="1340.5,-146.937 1344,-156.937 1347.5,-146.937 1340.5,-146.937"/>
</g>
<!-- Node92&#45;&gt;Node68 -->
<g id="edge94" class="edge"><title>Node92&#45;&gt;Node68</title>
<path fill="none" stroke="midnightblue" d="M1417.98,-155.753C1352.99,-139.379 1335.36,-135.506 1274,-120 1271.08,-119.262 1268.09,-118.504 1265.08,-117.737"/>
<polygon fill="midnightblue" stroke="midnightblue" points="1417.37,-159.209 1427.92,-158.263 1419.08,-152.422 1417.37,-159.209"/>
</g>
<!-- Node92&#45;&gt;Node79 -->
<g id="edge92" class="edge"><title>Node92&#45;&gt;Node79</title>
<path fill="none" stroke="midnightblue" d="M1445.4,-152.352C1423.94,-141.693 1398.43,-129.027 1378.37,-119.065"/>
<polygon fill="midnightblue" stroke="midnightblue" points="1444.12,-155.624 1454.64,-156.937 1447.24,-149.355 1444.12,-155.624"/>
</g>
<!-- Node93&#45;&gt;Node67 -->
<g id="edge100" class="edge"><title>Node93&#45;&gt;Node67</title>
<path fill="none" stroke="midnightblue" d="M848.05,-155.787C780.399,-139.128 761.959,-135.846 698,-120 695.077,-119.276 692.087,-118.529 689.067,-117.771"/>
<polygon fill="midnightblue" stroke="midnightblue" points="847.385,-159.228 857.933,-158.229 849.064,-152.432 847.385,-159.228"/>
</g>
<!-- Node93&#45;&gt;Node79 -->
<g id="edge98" class="edge"><title>Node93&#45;&gt;Node79</title>
<path fill="none" stroke="midnightblue" d="M990.382,-155.869C1116.2,-132.635 1151.78,-143.337 1274,-120 1276.83,-119.459 1279.73,-118.869 1282.64,-118.245"/>
<polygon fill="midnightblue" stroke="midnightblue" points="989.541,-152.465 980.361,-157.755 990.836,-159.345 989.541,-152.465"/>
</g>
<!-- Node94&#45;&gt;Node69 -->
<g id="edge106" class="edge"><title>Node94&#45;&gt;Node69</title>
<path fill="none" stroke="midnightblue" d="M988.05,-155.787C920.399,-139.128 901.959,-135.846 838,-120 835.077,-119.276 832.087,-118.529 829.067,-117.771"/>
<polygon fill="midnightblue" stroke="midnightblue" points="987.385,-159.228 997.933,-158.229 989.064,-152.432 987.385,-159.228"/>
</g>
<!-- Node94&#45;&gt;Node79 -->
<g id="edge104" class="edge"><title>Node94&#45;&gt;Node79</title>
<path fill="none" stroke="midnightblue" d="M1130.02,-155.753C1195.01,-139.379 1212.64,-135.506 1274,-120 1276.92,-119.262 1279.91,-118.504 1282.92,-117.737"/>
<polygon fill="midnightblue" stroke="midnightblue" points="1128.92,-152.422 1120.08,-158.263 1130.63,-159.209 1128.92,-152.422"/>
</g>
<!-- Node95&#45;&gt;Node71 -->
<g id="edge112" class="edge"><title>Node95&#45;&gt;Node71</title>
<path fill="none" stroke="midnightblue" d="M1128.05,-155.787C1060.4,-139.128 1041.96,-135.846 978,-120 975.077,-119.276 972.087,-118.529 969.067,-117.771"/>
<polygon fill="midnightblue" stroke="midnightblue" points="1127.38,-159.228 1137.93,-158.229 1129.06,-152.432 1127.38,-159.228"/>
</g>
<!-- Node95&#45;&gt;Node79 -->
<g id="edge110" class="edge"><title>Node95&#45;&gt;Node79</title>
<path fill="none" stroke="midnightblue" d="M1242.6,-152.352C1264.06,-141.693 1289.57,-129.027 1309.63,-119.065"/>
<polygon fill="midnightblue" stroke="midnightblue" points="1240.76,-149.355 1233.36,-156.937 1243.88,-155.624 1240.76,-149.355"/>
</g>
</g>
</svg>
