<?xml version="1.0" encoding="UTF-8" standalone="no"?>
<!DOCTYPE svg PUBLIC "-//W3C//DTD SVG 1.1//EN"
 "http://www.w3.org/Graphics/SVG/1.1/DTD/svg11.dtd">
<!-- Generated by graphviz version 2.26.3 (20100126.1600)
 -->
<!-- Title: src/base/ProgressCounter.h Pages: 1 -->
<svg width="338pt" height="146pt"
 viewBox="0.00 0.00 338.00 146.00" xmlns="http://www.w3.org/2000/svg" xmlns:xlink="http://www.w3.org/1999/xlink">
<g id="graph1" class="graph" transform="scale(1 1) rotate(0) translate(4 142)">
<title>src/base/ProgressCounter.h</title>
<polygon fill="white" stroke="white" points="-4,5 -4,-142 335,-142 335,5 -4,5"/>
<!-- Node0 -->
<g id="node1" class="node"><title>Node0</title>
<polygon fill="#bfbfbf" stroke="black" points="103.5,-116.5 103.5,-137.5 242.5,-137.5 242.5,-116.5 103.5,-116.5"/>
<text text-anchor="middle" x="173" y="-124.5" font-family="Helvetica,sans-Serif" font-size="10.00">src/base/ProgressCounter.h</text>
</g>
<!-- Node1 -->
<g id="node3" class="node"><title>Node1</title>
<a xlink:href="memory_8h.html" target="_top" xlink:title="std_ext/memory.h">
<polygon fill="white" stroke="black" points="-0.5,-58.5 -0.5,-79.5 94.5,-79.5 94.5,-58.5 -0.5,-58.5"/>
<text text-anchor="middle" x="47" y="-66.5" font-family="Helvetica,sans-Serif" font-size="10.00">std_ext/memory.h</text>
</a>
</g>
<!-- Node0&#45;&gt;Node1 -->
<g id="edge2" class="edge"><title>Node0&#45;&gt;Node1</title>
<path fill="none" stroke="midnightblue" d="M150.182,-116.497C130.414,-107.397 101.587,-94.1273 79.424,-83.9253"/>
<polygon fill="midnightblue" stroke="midnightblue" points="80.621,-80.6234 70.0737,-79.6212 77.694,-86.982 80.621,-80.6234"/>
</g>
<!-- Node3 -->
<g id="node7" class="node"><title>Node3</title>
<polygon fill="white" stroke="#bfbfbf" points="98.5,-0.5 98.5,-21.5 127.5,-21.5 127.5,-0.5 98.5,-0.5"/>
<text text-anchor="middle" x="113" y="-8.5" font-family="Helvetica,sans-Serif" font-size="10.00">list</text>
</g>
<!-- Node0&#45;&gt;Node3 -->
<g id="edge14" class="edge"><title>Node0&#45;&gt;Node3</title>
<path fill="none" stroke="midnightblue" d="M164.68,-116.213C157.775,-106.946 147.99,-93.0535 141,-80 132.538,-64.1976 125.029,-45.2714 119.922,-31.2411"/>
<polygon fill="midnightblue" stroke="midnightblue" points="123.146,-29.8584 116.51,-21.5992 116.547,-32.1939 123.146,-29.8584"/>
</g>
<!-- Node4 -->
<g id="node9" class="node"><title>Node4</title>
<polygon fill="white" stroke="#bfbfbf" points="150,-58.5 150,-79.5 196,-79.5 196,-58.5 150,-58.5"/>
<text text-anchor="middle" x="173" y="-66.5" font-family="Helvetica,sans-Serif" font-size="10.00">chrono</text>
</g>
<!-- Node0&#45;&gt;Node4 -->
<g id="edge8" class="edge"><title>Node0&#45;&gt;Node4</title>
<path fill="none" stroke="midnightblue" d="M173,-116.362C173,-108.922 173,-98.7427 173,-89.7276"/>
<polygon fill="midnightblue" stroke="midnightblue" points="176.5,-89.5706 173,-79.5707 169.5,-89.5707 176.5,-89.5706"/>
</g>
<!-- Node5 -->
<g id="node11" class="node"><title>Node5</title>
<polygon fill="white" stroke="#bfbfbf" points="213.5,-58.5 213.5,-79.5 272.5,-79.5 272.5,-58.5 213.5,-58.5"/>
<text text-anchor="middle" x="243" y="-66.5" font-family="Helvetica,sans-Serif" font-size="10.00">functional</text>
</g>
<!-- Node0&#45;&gt;Node5 -->
<g id="edge10" class="edge"><title>Node0&#45;&gt;Node5</title>
<path fill="none" stroke="midnightblue" d="M185.839,-116.362C196.002,-107.941 210.401,-96.0105 222.204,-86.2308"/>
<polygon fill="midnightblue" stroke="midnightblue" points="224.775,-88.6459 230.242,-79.5707 220.309,-83.2558 224.775,-88.6459"/>
</g>
<!-- Node6 -->
<g id="node13" class="node"><title>Node6</title>
<polygon fill="white" stroke="#bfbfbf" points="289.5,-58.5 289.5,-79.5 330.5,-79.5 330.5,-58.5 289.5,-58.5"/>
<text text-anchor="middle" x="310" y="-66.5" font-family="Helvetica,sans-Serif" font-size="10.00">string</text>
</g>
<!-- Node0&#45;&gt;Node6 -->
<g id="edge12" class="edge"><title>Node0&#45;&gt;Node6</title>
<path fill="none" stroke="midnightblue" d="M197.81,-116.497C220.954,-106.698 255.52,-92.0646 280.161,-81.6325"/>
<polygon fill="midnightblue" stroke="midnightblue" points="281.555,-84.8432 289.399,-77.7214 278.826,-78.397 281.555,-84.8432"/>
</g>
<!-- Node2 -->
<g id="node5" class="node"><title>Node2</title>
<polygon fill="white" stroke="#bfbfbf" points="21,-0.5 21,-21.5 73,-21.5 73,-0.5 21,-0.5"/>
<text text-anchor="middle" x="47" y="-8.5" font-family="Helvetica,sans-Serif" font-size="10.00">memory</text>
</g>
<!-- Node1&#45;&gt;Node2 -->
<g id="edge4" class="edge"><title>Node1&#45;&gt;Node2</title>
<path fill="none" stroke="midnightblue" d="M47,-58.3619C47,-50.9219 47,-40.7427 47,-31.7276"/>
<polygon fill="midnightblue" stroke="midnightblue" points="50.5001,-31.5706 47,-21.5707 43.5001,-31.5707 50.5001,-31.5706"/>
</g>
<!-- Node1&#45;&gt;Node3 -->
<g id="edge6" class="edge"><title>Node1&#45;&gt;Node3</title>
<path fill="none" stroke="midnightblue" d="M59.1054,-58.3619C68.6881,-49.9408 82.2639,-38.0105 93.3926,-28.2308"/>
<polygon fill="midnightblue" stroke="midnightblue" points="95.7701,-30.8009 100.971,-21.5707 91.1492,-25.5427 95.7701,-30.8009"/>
</g>
</g>
</svg>
