<?xml version="1.0" encoding="UTF-8" standalone="no"?>
<!DOCTYPE svg PUBLIC "-//W3C//DTD SVG 1.1//EN"
 "http://www.w3.org/Graphics/SVG/1.1/DTD/svg11.dtd">
<!-- Generated by graphviz version 2.26.3 (20100126.1600)
 -->
<!-- Title: src/analysis/utils/ProtonPhotonCombs.h Pages: 1 -->
<svg width="1149pt" height="212pt"
 viewBox="0.00 0.00 1149.00 212.00" xmlns="http://www.w3.org/2000/svg" xmlns:xlink="http://www.w3.org/1999/xlink">
<g id="graph1" class="graph" transform="scale(1 1) rotate(0) translate(4 208)">
<title>src/analysis/utils/ProtonPhotonCombs.h</title>
<polygon fill="white" stroke="white" points="-4,5 -4,-208 1146,-208 1146,5 -4,5"/>
<!-- Node48 -->
<g id="node1" class="node"><title>Node48</title>
<polygon fill="#bfbfbf" stroke="black" points="500.5,-169 500.5,-203 619.5,-203 619.5,-169 500.5,-169"/>
<text text-anchor="start" x="508.5" y="-190" font-family="Helvetica,sans-Serif" font-size="10.00">src/analysis/utils</text>
<text text-anchor="middle" x="560" y="-177" font-family="Helvetica,sans-Serif" font-size="10.00">/ProtonPhotonCombs.h</text>
</g>
<!-- Node49 -->
<g id="node3" class="node"><title>Node49</title>
<a xlink:href="_kin_fit_i_m_check_8cc.html" target="_top" xlink:title="src/analysis/physics\l/check/KinFitIMCheck.cc">
<polygon fill="white" stroke="black" points="4,-91 4,-125 132,-125 132,-91 4,-91"/>
<text text-anchor="start" x="12" y="-112" font-family="Helvetica,sans-Serif" font-size="10.00">src/analysis/physics</text>
<text text-anchor="middle" x="68" y="-99" font-family="Helvetica,sans-Serif" font-size="10.00">/check/KinFitIMCheck.cc</text>
</a>
</g>
<!-- Node48&#45;&gt;Node49 -->
<g id="edge2" class="edge"><title>Node48&#45;&gt;Node49</title>
<path fill="none" stroke="midnightblue" d="M490.244,-181.076C406.505,-174.233 262.196,-159.471 141,-132 132.673,-130.113 123.947,-127.669 115.542,-125.065"/>
<polygon fill="midnightblue" stroke="midnightblue" points="490.152,-184.579 500.4,-181.891 490.712,-177.602 490.152,-184.579"/>
</g>
<!-- Node50 -->
<g id="node5" class="node"><title>Node50</title>
<a xlink:href="_etap_omega_g_8h.html" target="_top" xlink:title="src/analysis/physics\l/etaprime/EtapOmegaG.h">
<polygon fill="white" stroke="black" points="150,-91 150,-125 278,-125 278,-91 150,-91"/>
<text text-anchor="start" x="158" y="-112" font-family="Helvetica,sans-Serif" font-size="10.00">src/analysis/physics</text>
<text text-anchor="middle" x="214" y="-99" font-family="Helvetica,sans-Serif" font-size="10.00">/etaprime/EtapOmegaG.h</text>
</a>
</g>
<!-- Node48&#45;&gt;Node50 -->
<g id="edge4" class="edge"><title>Node48&#45;&gt;Node50</title>
<path fill="none" stroke="midnightblue" d="M490.398,-173.944C436.049,-164.056 358.802,-148.962 292,-132 283.898,-129.943 275.387,-127.559 267.087,-125.108"/>
<polygon fill="midnightblue" stroke="midnightblue" points="489.809,-177.394 500.272,-175.728 491.055,-170.505 489.809,-177.394"/>
</g>
<!-- Node53 -->
<g id="node11" class="node"><title>Node53</title>
<a xlink:href="_etap_omega_g__simple_8cc.html" target="_top" xlink:title="src/analysis/physics\l/etaprime/EtapOmegaG\l_simple.cc">
<polygon fill="white" stroke="black" points="300.5,-84.5 300.5,-131.5 419.5,-131.5 419.5,-84.5 300.5,-84.5"/>
<text text-anchor="start" x="308.5" y="-118.5" font-family="Helvetica,sans-Serif" font-size="10.00">src/analysis/physics</text>
<text text-anchor="start" x="308.5" y="-105.5" font-family="Helvetica,sans-Serif" font-size="10.00">/etaprime/EtapOmegaG</text>
<text text-anchor="middle" x="360" y="-92.5" font-family="Helvetica,sans-Serif" font-size="10.00">_simple.cc</text>
</a>
</g>
<!-- Node48&#45;&gt;Node53 -->
<g id="edge10" class="edge"><title>Node48&#45;&gt;Node53</title>
<path fill="none" stroke="midnightblue" d="M506.529,-165.146C479.771,-154.711 447.293,-142.044 419.721,-131.291"/>
<polygon fill="midnightblue" stroke="midnightblue" points="505.521,-168.51 516.109,-168.883 508.064,-161.988 505.521,-168.51"/>
</g>
<!-- Node54 -->
<g id="node13" class="node"><title>Node54</title>
<a xlink:href="single_pi0_8h.html" target="_top" xlink:title="src/analysis/physics\l/production/singlePi0.h">
<polygon fill="white" stroke="black" points="437,-91 437,-125 553,-125 553,-91 437,-91"/>
<text text-anchor="start" x="445" y="-112" font-family="Helvetica,sans-Serif" font-size="10.00">src/analysis/physics</text>
<text text-anchor="middle" x="495" y="-99" font-family="Helvetica,sans-Serif" font-size="10.00">/production/singlePi0.h</text>
</a>
</g>
<!-- Node48&#45;&gt;Node54 -->
<g id="edge12" class="edge"><title>Node48&#45;&gt;Node54</title>
<path fill="none" stroke="midnightblue" d="M539.157,-160.988C529.444,-149.333 518.129,-135.755 509.385,-125.262"/>
<polygon fill="midnightblue" stroke="midnightblue" points="536.484,-163.248 545.574,-168.689 541.861,-158.766 536.484,-163.248"/>
</g>
<!-- Node57 -->
<g id="node19" class="node"><title>Node57</title>
<a xlink:href="triple_pi0_8h.html" target="_top" xlink:title="src/analysis/physics\l/production/triplePi0.h">
<polygon fill="white" stroke="black" points="570.5,-91 570.5,-125 681.5,-125 681.5,-91 570.5,-91"/>
<text text-anchor="start" x="578.5" y="-112" font-family="Helvetica,sans-Serif" font-size="10.00">src/analysis/physics</text>
<text text-anchor="middle" x="626" y="-99" font-family="Helvetica,sans-Serif" font-size="10.00">/production/triplePi0.h</text>
</a>
</g>
<!-- Node48&#45;&gt;Node57 -->
<g id="edge18" class="edge"><title>Node48&#45;&gt;Node57</title>
<path fill="none" stroke="midnightblue" d="M581.164,-160.988C591.026,-149.333 602.515,-135.755 611.393,-125.262"/>
<polygon fill="midnightblue" stroke="midnightblue" points="578.435,-158.795 574.648,-168.689 583.779,-163.316 578.435,-158.795"/>
</g>
<!-- Node61 -->
<g id="node27" class="node"><title>Node61</title>
<a xlink:href="analysis_2physics_2tunings_2_interpolated_pulls_8cc.html" target="_top" xlink:title="src/analysis/physics\l/tunings/InterpolatedPulls.cc">
<polygon fill="white" stroke="black" points="699,-91 699,-125 839,-125 839,-91 699,-91"/>
<text text-anchor="start" x="707" y="-112" font-family="Helvetica,sans-Serif" font-size="10.00">src/analysis/physics</text>
<text text-anchor="middle" x="769" y="-99" font-family="Helvetica,sans-Serif" font-size="10.00">/tunings/InterpolatedPulls.cc</text>
</a>
</g>
<!-- Node48&#45;&gt;Node61 -->
<g id="edge26" class="edge"><title>Node48&#45;&gt;Node61</title>
<path fill="none" stroke="midnightblue" d="M615.291,-165.365C648.923,-152.813 691.367,-136.973 723.129,-125.119"/>
<polygon fill="midnightblue" stroke="midnightblue" points="613.753,-162.203 605.608,-168.979 616.2,-168.761 613.753,-162.203"/>
</g>
<!-- Node62 -->
<g id="node29" class="node"><title>Node62</title>
<a xlink:href="physics_2tunings_2_trigger_simulation_8cc.html" target="_top" xlink:title="src/analysis/physics\l/tunings/TriggerSimulation.cc">
<polygon fill="white" stroke="black" points="856.5,-91 856.5,-125 999.5,-125 999.5,-91 856.5,-91"/>
<text text-anchor="start" x="864.5" y="-112" font-family="Helvetica,sans-Serif" font-size="10.00">src/analysis/physics</text>
<text text-anchor="middle" x="928" y="-99" font-family="Helvetica,sans-Serif" font-size="10.00">/tunings/TriggerSimulation.cc</text>
</a>
</g>
<!-- Node48&#45;&gt;Node62 -->
<g id="edge28" class="edge"><title>Node48&#45;&gt;Node62</title>
<path fill="none" stroke="midnightblue" d="M629.577,-175.082C688.183,-165.379 774.051,-149.971 848,-132 856.454,-129.945 865.34,-127.536 873.991,-125.05"/>
<polygon fill="midnightblue" stroke="midnightblue" points="628.987,-171.632 619.687,-176.708 630.123,-178.54 628.987,-171.632"/>
</g>
<!-- Node63 -->
<g id="node31" class="node"><title>Node63</title>
<a xlink:href="_proton_photon_combs_8cc.html" target="_top" xlink:title="src/analysis/utils\l/ProtonPhotonCombs.cc">
<polygon fill="white" stroke="black" points="1017,-91 1017,-125 1141,-125 1141,-91 1017,-91"/>
<text text-anchor="start" x="1025" y="-112" font-family="Helvetica,sans-Serif" font-size="10.00">src/analysis/utils</text>
<text text-anchor="middle" x="1079" y="-99" font-family="Helvetica,sans-Serif" font-size="10.00">/ProtonPhotonCombs.cc</text>
</a>
</g>
<!-- Node48&#45;&gt;Node63 -->
<g id="edge30" class="edge"><title>Node48&#45;&gt;Node63</title>
<path fill="none" stroke="midnightblue" d="M629.949,-182.042C718.755,-175.999 876.266,-161.868 1008,-132 1016.25,-130.13 1024.89,-127.662 1033.18,-125.021"/>
<polygon fill="midnightblue" stroke="midnightblue" points="629.475,-178.566 619.729,-182.722 629.94,-185.55 629.475,-178.566"/>
</g>
<!-- Node51 -->
<g id="node7" class="node"><title>Node51</title>
<a xlink:href="_etap_omega_g_8cc.html" target="_top" xlink:title="src/analysis/physics\l/etaprime/EtapOmegaG.cc">
<polygon fill="white" stroke="black" points="-0.5,-7 -0.5,-41 132.5,-41 132.5,-7 -0.5,-7"/>
<text text-anchor="start" x="7.5" y="-28" font-family="Helvetica,sans-Serif" font-size="10.00">src/analysis/physics</text>
<text text-anchor="middle" x="66" y="-15" font-family="Helvetica,sans-Serif" font-size="10.00">/etaprime/EtapOmegaG.cc</text>
</a>
</g>
<!-- Node50&#45;&gt;Node51 -->
<g id="edge6" class="edge"><title>Node50&#45;&gt;Node51</title>
<path fill="none" stroke="midnightblue" d="M174.923,-85.821C150.212,-71.7961 118.761,-53.9452 96.0134,-41.0346"/>
<polygon fill="midnightblue" stroke="midnightblue" points="173.268,-88.9064 183.693,-90.7986 176.724,-82.8186 173.268,-88.9064"/>
</g>
<!-- Node52 -->
<g id="node9" class="node"><title>Node52</title>
<a xlink:href="_etap_omega_g__plot_8cc.html" target="_top" xlink:title="src/analysis/physics\l/etaprime/EtapOmegaG\l_plot.cc">
<polygon fill="white" stroke="black" points="149.5,-0.5 149.5,-47.5 268.5,-47.5 268.5,-0.5 149.5,-0.5"/>
<text text-anchor="start" x="157.5" y="-34.5" font-family="Helvetica,sans-Serif" font-size="10.00">src/analysis/physics</text>
<text text-anchor="start" x="157.5" y="-21.5" font-family="Helvetica,sans-Serif" font-size="10.00">/etaprime/EtapOmegaG</text>
<text text-anchor="middle" x="209" y="-8.5" font-family="Helvetica,sans-Serif" font-size="10.00">_plot.cc</text>
</a>
</g>
<!-- Node50&#45;&gt;Node52 -->
<g id="edge8" class="edge"><title>Node50&#45;&gt;Node52</title>
<path fill="none" stroke="midnightblue" d="M212.368,-80.5874C211.737,-69.9894 211.022,-57.9763 210.414,-47.7535"/>
<polygon fill="midnightblue" stroke="midnightblue" points="208.876,-80.8208 212.964,-90.5951 215.864,-80.4048 208.876,-80.8208"/>
</g>
<!-- Node55 -->
<g id="node15" class="node"><title>Node55</title>
<a xlink:href="single_pi0_8cc.html" target="_top" xlink:title="src/analysis/physics\l/production/singlePi0.cc">
<polygon fill="white" stroke="black" points="285.5,-7 285.5,-41 406.5,-41 406.5,-7 285.5,-7"/>
<text text-anchor="start" x="293.5" y="-28" font-family="Helvetica,sans-Serif" font-size="10.00">src/analysis/physics</text>
<text text-anchor="middle" x="346" y="-15" font-family="Helvetica,sans-Serif" font-size="10.00">/production/singlePi0.cc</text>
</a>
</g>
<!-- Node54&#45;&gt;Node55 -->
<g id="edge14" class="edge"><title>Node54&#45;&gt;Node55</title>
<path fill="none" stroke="midnightblue" d="M455.659,-85.821C430.781,-71.7961 399.117,-53.9452 376.216,-41.0346"/>
<polygon fill="midnightblue" stroke="midnightblue" points="454.058,-88.9365 464.488,-90.7986 457.496,-82.8388 454.058,-88.9365"/>
</g>
<!-- Node56 -->
<g id="node17" class="node"><title>Node56</title>
<a xlink:href="single_pi0_plots_8cc.html" target="_top" xlink:title="src/analysis/physics\l/production/singlePi0Plots.cc">
<polygon fill="white" stroke="black" points="423.5,-7 423.5,-41 566.5,-41 566.5,-7 423.5,-7"/>
<text text-anchor="start" x="431.5" y="-28" font-family="Helvetica,sans-Serif" font-size="10.00">src/analysis/physics</text>
<text text-anchor="middle" x="495" y="-15" font-family="Helvetica,sans-Serif" font-size="10.00">/production/singlePi0Plots.cc</text>
</a>
</g>
<!-- Node54&#45;&gt;Node56 -->
<g id="edge16" class="edge"><title>Node54&#45;&gt;Node56</title>
<path fill="none" stroke="midnightblue" d="M495,-80.3304C495,-67.3804 495,-52.3652 495,-41.0952"/>
<polygon fill="midnightblue" stroke="midnightblue" points="491.5,-80.5951 495,-90.5951 498.5,-80.5952 491.5,-80.5951"/>
</g>
<!-- Node58 -->
<g id="node21" class="node"><title>Node58</title>
<a xlink:href="triple_pi0_8cc.html" target="_top" xlink:title="src/analysis/physics\l/production/triplePi0.cc">
<polygon fill="white" stroke="black" points="584,-7 584,-41 700,-41 700,-7 584,-7"/>
<text text-anchor="start" x="592" y="-28" font-family="Helvetica,sans-Serif" font-size="10.00">src/analysis/physics</text>
<text text-anchor="middle" x="642" y="-15" font-family="Helvetica,sans-Serif" font-size="10.00">/production/triplePi0.cc</text>
</a>
</g>
<!-- Node57&#45;&gt;Node58 -->
<g id="edge20" class="edge"><title>Node57&#45;&gt;Node58</title>
<path fill="none" stroke="midnightblue" d="M631.197,-80.7183C633.68,-67.6811 636.576,-52.4779 638.744,-41.0952"/>
<polygon fill="midnightblue" stroke="midnightblue" points="627.748,-80.1168 629.315,-90.5951 634.625,-81.4267 627.748,-80.1168"/>
</g>
<!-- Node59 -->
<g id="node23" class="node"><title>Node59</title>
<a xlink:href="triple_pi0_plots_8cc.html" target="_top" xlink:title="src/analysis/physics\l/production/triplePi0Plots.cc">
<polygon fill="white" stroke="black" points="717.5,-7 717.5,-41 856.5,-41 856.5,-7 717.5,-7"/>
<text text-anchor="start" x="725.5" y="-28" font-family="Helvetica,sans-Serif" font-size="10.00">src/analysis/physics</text>
<text text-anchor="middle" x="787" y="-15" font-family="Helvetica,sans-Serif" font-size="10.00">/production/triplePi0Plots.cc</text>
</a>
</g>
<!-- Node57&#45;&gt;Node59 -->
<g id="edge22" class="edge"><title>Node57&#45;&gt;Node59</title>
<path fill="none" stroke="midnightblue" d="M668.157,-86.0053C695.09,-71.9528 729.496,-54.0018 754.35,-41.0346"/>
<polygon fill="midnightblue" stroke="midnightblue" points="666.216,-83.0699 658.969,-90.7986 669.454,-89.276 666.216,-83.0699"/>
</g>
<!-- Node60 -->
<g id="node25" class="node"><title>Node60</title>
<a xlink:href="_proton_vertex_test_8cc.html" target="_top" xlink:title="src/analysis/physics\l/scratch/wolfes/ProtonVertex\lTest.cc">
<polygon fill="white" stroke="black" points="873.5,-0.5 873.5,-47.5 1016.5,-47.5 1016.5,-0.5 873.5,-0.5"/>
<text text-anchor="start" x="881.5" y="-34.5" font-family="Helvetica,sans-Serif" font-size="10.00">src/analysis/physics</text>
<text text-anchor="start" x="881.5" y="-21.5" font-family="Helvetica,sans-Serif" font-size="10.00">/scratch/wolfes/ProtonVertex</text>
<text text-anchor="middle" x="945" y="-8.5" font-family="Helvetica,sans-Serif" font-size="10.00">Test.cc</text>
</a>
</g>
<!-- Node57&#45;&gt;Node60 -->
<g id="edge24" class="edge"><title>Node57&#45;&gt;Node60</title>
<path fill="none" stroke="midnightblue" d="M678.392,-87.6059C682.297,-86.3159 686.196,-85.0971 690,-84 766.296,-61.9925 788.007,-67.4277 865,-48 867.671,-47.3259 870.387,-46.6197 873.125,-45.8899"/>
<polygon fill="midnightblue" stroke="midnightblue" points="677.042,-84.3689 668.724,-90.9307 679.319,-90.9885 677.042,-84.3689"/>
</g>
</g>
</svg>
