<?xml version="1.0" encoding="UTF-8" standalone="no"?>
<!DOCTYPE svg PUBLIC "-//W3C//DTD SVG 1.1//EN"
 "http://www.w3.org/Graphics/SVG/1.1/DTD/svg11.dtd">
<!-- Generated by graphviz version 2.26.3 (20100126.1600)
 -->
<!-- Title: src/analysis/physics/common/ProcessTaggEff.h Pages: 1 -->
<svg width="455pt" height="174pt"
 viewBox="0.00 0.00 455.00 174.00" xmlns="http://www.w3.org/2000/svg" xmlns:xlink="http://www.w3.org/1999/xlink">
<g id="graph1" class="graph" transform="scale(1 1) rotate(0) translate(4 170)">
<title>src/analysis/physics/common/ProcessTaggEff.h</title>
<polygon fill="white" stroke="white" points="-4,5 -4,-170 452,-170 452,5 -4,5"/>
<!-- Node72 -->
<g id="node1" class="node"><title>Node72</title>
<polygon fill="#bfbfbf" stroke="black" points="142.5,-131 142.5,-165 281.5,-165 281.5,-131 142.5,-131"/>
<text text-anchor="start" x="150.5" y="-152" font-family="Helvetica,sans-Serif" font-size="10.00">src/analysis/physics</text>
<text text-anchor="middle" x="212" y="-139" font-family="Helvetica,sans-Serif" font-size="10.00">/common/ProcessTaggEff.h</text>
</g>
<!-- Node73 -->
<g id="node3" class="node"><title>Node73</title>
<a xlink:href="_ant-make_tagg_eff_8cc.html" target="_top" xlink:title="progs/Ant&#45;makeTaggEff.cc">
<polygon fill="white" stroke="black" points="0,-0.5 0,-21.5 134,-21.5 134,-0.5 0,-0.5"/>
<text text-anchor="middle" x="67" y="-8.5" font-family="Helvetica,sans-Serif" font-size="10.00">progs/Ant&#45;makeTaggEff.cc</text>
</a>
</g>
<!-- Node72&#45;&gt;Node73 -->
<g id="edge2" class="edge"><title>Node72&#45;&gt;Node73</title>
<path fill="none" stroke="midnightblue" d="M172.061,-125.525C158,-116.652 142.578,-105.763 130,-94 105.689,-71.2632 83.779,-38.3326 73.3778,-21.6077"/>
<polygon fill="midnightblue" stroke="midnightblue" points="170.252,-128.521 180.604,-130.779 173.919,-122.559 170.252,-128.521"/>
</g>
<!-- Node74 -->
<g id="node5" class="node"><title>Node74</title>
<a xlink:href="tagg_eff_classes_8h.html" target="_top" xlink:title="progs/detail/taggEffClasses.h">
<polygon fill="white" stroke="black" points="139,-65.5 139,-86.5 285,-86.5 285,-65.5 139,-65.5"/>
<text text-anchor="middle" x="212" y="-73.5" font-family="Helvetica,sans-Serif" font-size="10.00">progs/detail/taggEffClasses.h</text>
</a>
</g>
<!-- Node72&#45;&gt;Node74 -->
<g id="edge4" class="edge"><title>Node72&#45;&gt;Node74</title>
<path fill="none" stroke="midnightblue" d="M212,-120.667C212,-108.913 212,-95.8483 212,-86.901"/>
<polygon fill="midnightblue" stroke="midnightblue" points="208.5,-120.937 212,-130.937 215.5,-120.937 208.5,-120.937"/>
</g>
<!-- Node77 -->
<g id="node12" class="node"><title>Node77</title>
<a xlink:href="_process_tagg_eff_8cc.html" target="_top" xlink:title="src/analysis/physics\l/common/ProcessTaggEff.cc">
<polygon fill="white" stroke="black" points="303,-59 303,-93 447,-93 447,-59 303,-59"/>
<text text-anchor="start" x="311" y="-80" font-family="Helvetica,sans-Serif" font-size="10.00">src/analysis/physics</text>
<text text-anchor="middle" x="375" y="-67" font-family="Helvetica,sans-Serif" font-size="10.00">/common/ProcessTaggEff.cc</text>
</a>
</g>
<!-- Node72&#45;&gt;Node77 -->
<g id="edge12" class="edge"><title>Node72&#45;&gt;Node77</title>
<path fill="none" stroke="midnightblue" d="M260.037,-126.781C284.366,-116.035 313.51,-103.161 336.366,-93.0651"/>
<polygon fill="midnightblue" stroke="midnightblue" points="258.362,-123.695 250.629,-130.937 261.19,-130.098 258.362,-123.695"/>
</g>
<!-- Node74&#45;&gt;Node73 -->
<g id="edge6" class="edge"><title>Node74&#45;&gt;Node73</title>
<path fill="none" stroke="midnightblue" d="M178.971,-61.194C152.027,-49.1156 114.62,-32.3469 90.6094,-21.5835"/>
<polygon fill="midnightblue" stroke="midnightblue" points="177.824,-64.5151 188.381,-65.412 180.687,-58.1276 177.824,-64.5151"/>
</g>
<!-- Node75 -->
<g id="node8" class="node"><title>Node75</title>
<a xlink:href="tagg_eff_classes_8cc.html" target="_top" xlink:title="progs/detail/taggEffClasses.cc">
<polygon fill="white" stroke="black" points="151.5,-0.5 151.5,-21.5 302.5,-21.5 302.5,-0.5 151.5,-0.5"/>
<text text-anchor="middle" x="227" y="-8.5" font-family="Helvetica,sans-Serif" font-size="10.00">progs/detail/taggEffClasses.cc</text>
</a>
</g>
<!-- Node74&#45;&gt;Node75 -->
<g id="edge8" class="edge"><title>Node74&#45;&gt;Node75</title>
<path fill="none" stroke="midnightblue" d="M216.762,-55.363C219.36,-44.1077 222.465,-30.6523 224.569,-21.5337"/>
<polygon fill="midnightblue" stroke="midnightblue" points="213.315,-54.7356 214.477,-65.2666 220.136,-56.3097 213.315,-54.7356"/>
</g>
<!-- Node76 -->
<g id="node10" class="node"><title>Node76</title>
<a xlink:href="tagg_eff_plot_8cc.html" target="_top" xlink:title="progs/taggEffPlot.cc">
<polygon fill="white" stroke="black" points="320,-0.5 320,-21.5 426,-21.5 426,-0.5 320,-0.5"/>
<text text-anchor="middle" x="373" y="-8.5" font-family="Helvetica,sans-Serif" font-size="10.00">progs/taggEffPlot.cc</text>
</a>
</g>
<!-- Node74&#45;&gt;Node76 -->
<g id="edge10" class="edge"><title>Node74&#45;&gt;Node76</title>
<path fill="none" stroke="midnightblue" d="M247.889,-61.5108C277.861,-49.4103 319.891,-32.4414 346.785,-21.5835"/>
<polygon fill="midnightblue" stroke="midnightblue" points="246.188,-58.4227 238.226,-65.412 248.809,-64.9137 246.188,-58.4227"/>
</g>
</g>
</svg>
