<?xml version="1.0" encoding="UTF-8" standalone="no"?>
<!DOCTYPE svg PUBLIC "-//W3C//DTD SVG 1.1//EN"
 "http://www.w3.org/Graphics/SVG/1.1/DTD/svg11.dtd">
<!-- Generated by graphviz version 2.26.3 (20100126.1600)
 -->
<!-- Title: src/analysis/physics/check/ProtonCheck.h Pages: 1 -->
<svg width="126pt" height="116pt"
 viewBox="0.00 0.00 126.00 116.00" xmlns="http://www.w3.org/2000/svg" xmlns:xlink="http://www.w3.org/1999/xlink">
<g id="graph1" class="graph" transform="scale(1 1) rotate(0) translate(4 112)">
<title>src/analysis/physics/check/ProtonCheck.h</title>
<polygon fill="white" stroke="white" points="-4,5 -4,-112 123,-112 123,5 -4,5"/>
<!-- Node67 -->
<g id="node1" class="node"><title>Node67</title>
<polygon fill="#bfbfbf" stroke="black" points="2,-73 2,-107 116,-107 116,-73 2,-73"/>
<text text-anchor="start" x="10" y="-94" font-family="Helvetica,sans-Serif" font-size="10.00">src/analysis/physics</text>
<text text-anchor="middle" x="59" y="-81" font-family="Helvetica,sans-Serif" font-size="10.00">/check/ProtonCheck.h</text>
</g>
<!-- Node68 -->
<g id="node3" class="node"><title>Node68</title>
<a xlink:href="_proton_check_8cc.html" target="_top" xlink:title="src/analysis/physics\l/check/ProtonCheck.cc">
<polygon fill="white" stroke="black" points="-0.5,-1 -0.5,-35 118.5,-35 118.5,-1 -0.5,-1"/>
<text text-anchor="start" x="7.5" y="-22" font-family="Helvetica,sans-Serif" font-size="10.00">src/analysis/physics</text>
<text text-anchor="middle" x="59" y="-9" font-family="Helvetica,sans-Serif" font-size="10.00">/check/ProtonCheck.cc</text>
</a>
</g>
<!-- Node67&#45;&gt;Node68 -->
<g id="edge2" class="edge"><title>Node67&#45;&gt;Node68</title>
<path fill="none" stroke="midnightblue" d="M59,-62.7193C59,-53.572 59,-43.6255 59,-35.4407"/>
<polygon fill="midnightblue" stroke="midnightblue" points="55.5001,-62.937 59,-72.937 62.5001,-62.937 55.5001,-62.937"/>
</g>
</g>
</svg>
