<?xml version="1.0" encoding="UTF-8" standalone="no"?>
<!DOCTYPE svg PUBLIC "-//W3C//DTD SVG 1.1//EN"
 "http://www.w3.org/Graphics/SVG/1.1/DTD/svg11.dtd">
<!-- Generated by graphviz version 2.26.3 (20100126.1600)
 -->
<!-- Title: src/base/ProgressCounter.cc Pages: 1 -->
<svg width="661pt" height="204pt"
 viewBox="0.00 0.00 661.00 204.00" xmlns="http://www.w3.org/2000/svg" xmlns:xlink="http://www.w3.org/1999/xlink">
<g id="graph1" class="graph" transform="scale(1 1) rotate(0) translate(4 200)">
<title>src/base/ProgressCounter.cc</title>
<polygon fill="white" stroke="white" points="-4,5 -4,-200 658,-200 658,5 -4,5"/>
<!-- Node0 -->
<g id="node1" class="node"><title>Node0</title>
<polygon fill="#bfbfbf" stroke="black" points="413,-174.5 413,-195.5 557,-195.5 557,-174.5 413,-174.5"/>
<text text-anchor="middle" x="485" y="-182.5" font-family="Helvetica,sans-Serif" font-size="10.00">src/base/ProgressCounter.cc</text>
</g>
<!-- Node1 -->
<g id="node3" class="node"><title>Node1</title>
<a xlink:href="_progress_counter_8h.html" target="_top" xlink:title="ProgressCounter.h">
<polygon fill="white" stroke="black" points="159,-116.5 159,-137.5 257,-137.5 257,-116.5 159,-116.5"/>
<text text-anchor="middle" x="208" y="-124.5" font-family="Helvetica,sans-Serif" font-size="10.00">ProgressCounter.h</text>
</a>
</g>
<!-- Node0&#45;&gt;Node1 -->
<g id="edge2" class="edge"><title>Node0&#45;&gt;Node1</title>
<path fill="none" stroke="midnightblue" d="M434.837,-174.497C387.726,-164.632 317.209,-149.867 267.326,-139.422"/>
<polygon fill="midnightblue" stroke="midnightblue" points="267.829,-135.951 257.324,-137.328 266.394,-142.803 267.829,-135.951"/>
</g>
<!-- Node8 -->
<g id="node18" class="node"><title>Node8</title>
<a xlink:href="base_2std__ext_2math_8h.html" target="_top" xlink:title="std_ext/math.h">
<polygon fill="white" stroke="black" points="359,-116.5 359,-137.5 441,-137.5 441,-116.5 359,-116.5"/>
<text text-anchor="middle" x="400" y="-124.5" font-family="Helvetica,sans-Serif" font-size="10.00">std_ext/math.h</text>
</a>
</g>
<!-- Node0&#45;&gt;Node8 -->
<g id="edge18" class="edge"><title>Node0&#45;&gt;Node8</title>
<path fill="none" stroke="midnightblue" d="M469.41,-174.362C456.709,-165.696 438.562,-153.313 424.008,-143.382"/>
<polygon fill="midnightblue" stroke="midnightblue" points="425.724,-140.316 415.491,-137.571 421.779,-146.098 425.724,-140.316"/>
</g>
<!-- Node12 -->
<g id="node26" class="node"><title>Node12</title>
<polygon fill="white" stroke="#bfbfbf" points="459,-116.5 459,-137.5 511,-137.5 511,-116.5 459,-116.5"/>
<text text-anchor="middle" x="485" y="-124.5" font-family="Helvetica,sans-Serif" font-size="10.00">sstream</text>
</g>
<!-- Node0&#45;&gt;Node12 -->
<g id="edge26" class="edge"><title>Node0&#45;&gt;Node12</title>
<path fill="none" stroke="midnightblue" d="M485,-174.362C485,-166.922 485,-156.743 485,-147.728"/>
<polygon fill="midnightblue" stroke="midnightblue" points="488.5,-147.571 485,-137.571 481.5,-147.571 488.5,-147.571"/>
</g>
<!-- Node13 -->
<g id="node28" class="node"><title>Node13</title>
<polygon fill="white" stroke="#bfbfbf" points="529,-116.5 529,-137.5 579,-137.5 579,-116.5 529,-116.5"/>
<text text-anchor="middle" x="554" y="-124.5" font-family="Helvetica,sans-Serif" font-size="10.00">iomanip</text>
</g>
<!-- Node0&#45;&gt;Node13 -->
<g id="edge28" class="edge"><title>Node0&#45;&gt;Node13</title>
<path fill="none" stroke="midnightblue" d="M497.656,-174.362C507.674,-165.941 521.867,-154.011 533.501,-144.231"/>
<polygon fill="midnightblue" stroke="midnightblue" points="536.022,-146.684 541.425,-137.571 531.518,-141.326 536.022,-146.684"/>
</g>
<!-- Node14 -->
<g id="node30" class="node"><title>Node14</title>
<polygon fill="white" stroke="#bfbfbf" points="597,-116.5 597,-137.5 653,-137.5 653,-116.5 597,-116.5"/>
<text text-anchor="middle" x="625" y="-124.5" font-family="Helvetica,sans-Serif" font-size="10.00">algorithm</text>
</g>
<!-- Node0&#45;&gt;Node14 -->
<g id="edge30" class="edge"><title>Node0&#45;&gt;Node14</title>
<path fill="none" stroke="midnightblue" d="M510.353,-174.497C532.613,-165.275 565.212,-151.769 589.963,-141.515"/>
<polygon fill="midnightblue" stroke="midnightblue" points="591.464,-144.682 599.363,-137.621 588.784,-138.215 591.464,-144.682"/>
</g>
<!-- Node2 -->
<g id="node5" class="node"><title>Node2</title>
<a xlink:href="memory_8h.html" target="_top" xlink:title="std_ext/memory.h">
<polygon fill="white" stroke="black" points="-0.5,-58.5 -0.5,-79.5 94.5,-79.5 94.5,-58.5 -0.5,-58.5"/>
<text text-anchor="middle" x="47" y="-66.5" font-family="Helvetica,sans-Serif" font-size="10.00">std_ext/memory.h</text>
</a>
</g>
<!-- Node1&#45;&gt;Node2 -->
<g id="edge4" class="edge"><title>Node1&#45;&gt;Node2</title>
<path fill="none" stroke="midnightblue" d="M178.844,-116.497C152.824,-107.123 114.521,-93.3242 85.8959,-83.0122"/>
<polygon fill="midnightblue" stroke="midnightblue" points="86.805,-79.6195 76.2106,-79.5231 84.4324,-86.2052 86.805,-79.6195"/>
</g>
<!-- Node4 -->
<g id="node9" class="node"><title>Node4</title>
<polygon fill="white" stroke="#bfbfbf" points="98.5,-0.5 98.5,-21.5 127.5,-21.5 127.5,-0.5 98.5,-0.5"/>
<text text-anchor="middle" x="113" y="-8.5" font-family="Helvetica,sans-Serif" font-size="10.00">list</text>
</g>
<!-- Node1&#45;&gt;Node4 -->
<g id="edge16" class="edge"><title>Node1&#45;&gt;Node4</title>
<path fill="none" stroke="midnightblue" d="M186.828,-116.382C172.265,-108.161 153.388,-95.5635 141,-80 129.708,-65.8139 122.385,-46.4618 118.071,-31.862"/>
<polygon fill="midnightblue" stroke="midnightblue" points="121.335,-30.5253 115.343,-21.788 114.579,-32.3552 121.335,-30.5253"/>
</g>
<!-- Node5 -->
<g id="node11" class="node"><title>Node5</title>
<polygon fill="white" stroke="#bfbfbf" points="150,-58.5 150,-79.5 196,-79.5 196,-58.5 150,-58.5"/>
<text text-anchor="middle" x="173" y="-66.5" font-family="Helvetica,sans-Serif" font-size="10.00">chrono</text>
</g>
<!-- Node1&#45;&gt;Node5 -->
<g id="edge10" class="edge"><title>Node1&#45;&gt;Node5</title>
<path fill="none" stroke="midnightblue" d="M201.58,-116.362C196.844,-108.513 190.268,-97.6159 184.618,-88.2527"/>
<polygon fill="midnightblue" stroke="midnightblue" points="187.542,-86.3242 179.379,-79.5707 181.549,-89.9409 187.542,-86.3242"/>
</g>
<!-- Node6 -->
<g id="node13" class="node"><title>Node6</title>
<polygon fill="white" stroke="#bfbfbf" points="213.5,-58.5 213.5,-79.5 272.5,-79.5 272.5,-58.5 213.5,-58.5"/>
<text text-anchor="middle" x="243" y="-66.5" font-family="Helvetica,sans-Serif" font-size="10.00">functional</text>
</g>
<!-- Node1&#45;&gt;Node6 -->
<g id="edge12" class="edge"><title>Node1&#45;&gt;Node6</title>
<path fill="none" stroke="midnightblue" d="M214.42,-116.362C219.156,-108.513 225.732,-97.6159 231.382,-88.2527"/>
<polygon fill="midnightblue" stroke="midnightblue" points="234.451,-89.9409 236.621,-79.5707 228.458,-86.3242 234.451,-89.9409"/>
</g>
<!-- Node7 -->
<g id="node15" class="node"><title>Node7</title>
<polygon fill="white" stroke="#bfbfbf" points="289.5,-58.5 289.5,-79.5 330.5,-79.5 330.5,-58.5 289.5,-58.5"/>
<text text-anchor="middle" x="310" y="-66.5" font-family="Helvetica,sans-Serif" font-size="10.00">string</text>
</g>
<!-- Node1&#45;&gt;Node7 -->
<g id="edge14" class="edge"><title>Node1&#45;&gt;Node7</title>
<path fill="none" stroke="midnightblue" d="M226.708,-116.362C242.381,-107.45 264.964,-94.6087 282.663,-84.5447"/>
<polygon fill="midnightblue" stroke="midnightblue" points="284.447,-87.5562 291.41,-79.5707 280.987,-81.4712 284.447,-87.5562"/>
</g>
<!-- Node3 -->
<g id="node7" class="node"><title>Node3</title>
<polygon fill="white" stroke="#bfbfbf" points="21,-0.5 21,-21.5 73,-21.5 73,-0.5 21,-0.5"/>
<text text-anchor="middle" x="47" y="-8.5" font-family="Helvetica,sans-Serif" font-size="10.00">memory</text>
</g>
<!-- Node2&#45;&gt;Node3 -->
<g id="edge6" class="edge"><title>Node2&#45;&gt;Node3</title>
<path fill="none" stroke="midnightblue" d="M47,-58.3619C47,-50.9219 47,-40.7427 47,-31.7276"/>
<polygon fill="midnightblue" stroke="midnightblue" points="50.5001,-31.5706 47,-21.5707 43.5001,-31.5707 50.5001,-31.5706"/>
</g>
<!-- Node2&#45;&gt;Node4 -->
<g id="edge8" class="edge"><title>Node2&#45;&gt;Node4</title>
<path fill="none" stroke="midnightblue" d="M59.1054,-58.3619C68.6881,-49.9408 82.2639,-38.0105 93.3926,-28.2308"/>
<polygon fill="midnightblue" stroke="midnightblue" points="95.7701,-30.8009 100.971,-21.5707 91.1492,-25.5427 95.7701,-30.8009"/>
</g>
<!-- Node9 -->
<g id="node20" class="node"><title>Node9</title>
<polygon fill="white" stroke="#bfbfbf" points="348,-58.5 348,-79.5 392,-79.5 392,-58.5 348,-58.5"/>
<text text-anchor="middle" x="370" y="-66.5" font-family="Helvetica,sans-Serif" font-size="10.00">cmath</text>
</g>
<!-- Node8&#45;&gt;Node9 -->
<g id="edge20" class="edge"><title>Node8&#45;&gt;Node9</title>
<path fill="none" stroke="midnightblue" d="M394.498,-116.362C390.48,-108.595 384.919,-97.8426 380.11,-88.5458"/>
<polygon fill="midnightblue" stroke="midnightblue" points="383.171,-86.8448 375.468,-79.5707 376.953,-90.0608 383.171,-86.8448"/>
</g>
<!-- Node10 -->
<g id="node22" class="node"><title>Node10</title>
<polygon fill="white" stroke="#bfbfbf" points="410,-58.5 410,-79.5 450,-79.5 450,-58.5 410,-58.5"/>
<text text-anchor="middle" x="430" y="-66.5" font-family="Helvetica,sans-Serif" font-size="10.00">limits</text>
</g>
<!-- Node8&#45;&gt;Node10 -->
<g id="edge22" class="edge"><title>Node8&#45;&gt;Node10</title>
<path fill="none" stroke="midnightblue" d="M405.502,-116.362C409.52,-108.595 415.081,-97.8426 419.89,-88.5458"/>
<polygon fill="midnightblue" stroke="midnightblue" points="423.047,-90.0608 424.532,-79.5707 416.829,-86.8448 423.047,-90.0608"/>
</g>
<!-- Node11 -->
<g id="node24" class="node"><title>Node11</title>
<polygon fill="white" stroke="#bfbfbf" points="468,-58.5 468,-79.5 512,-79.5 512,-58.5 468,-58.5"/>
<text text-anchor="middle" x="490" y="-66.5" font-family="Helvetica,sans-Serif" font-size="10.00">vector</text>
</g>
<!-- Node8&#45;&gt;Node11 -->
<g id="edge24" class="edge"><title>Node8&#45;&gt;Node11</title>
<path fill="none" stroke="midnightblue" d="M416.507,-116.362C430.082,-107.614 449.533,-95.0786 465.015,-85.1015"/>
<polygon fill="midnightblue" stroke="midnightblue" points="467.088,-87.9297 473.597,-79.5707 463.296,-82.0457 467.088,-87.9297"/>
</g>
</g>
</svg>
