<?xml version="1.0" encoding="UTF-8" standalone="no"?>
<!DOCTYPE svg PUBLIC "-//W3C//DTD SVG 1.1//EN"
 "http://www.w3.org/Graphics/SVG/1.1/DTD/svg11.dtd">
<!-- Generated by graphviz version 2.26.3 (20100126.1600)
 -->
<!-- Title: src/analysis/plot/PromptRandomHist.h Pages: 1 -->
<svg width="842pt" height="276pt"
 viewBox="0.00 0.00 842.00 276.00" xmlns="http://www.w3.org/2000/svg" xmlns:xlink="http://www.w3.org/1999/xlink">
<g id="graph1" class="graph" transform="scale(1 1) rotate(0) translate(4 272)">
<title>src/analysis/plot/PromptRandomHist.h</title>
<polygon fill="white" stroke="white" points="-4,5 -4,-272 839,-272 839,5 -4,5"/>
<!-- Node0 -->
<g id="node1" class="node"><title>Node0</title>
<polygon fill="#bfbfbf" stroke="black" points="587,-233 587,-267 709,-267 709,-233 587,-233"/>
<text text-anchor="start" x="595" y="-254" font-family="Helvetica,sans-Serif" font-size="10.00">src/analysis/plot/Prompt</text>
<text text-anchor="middle" x="648" y="-241" font-family="Helvetica,sans-Serif" font-size="10.00">RandomHist.h</text>
</g>
<!-- Node1 -->
<g id="node3" class="node"><title>Node1</title>
<a xlink:href="interval_8h.html" target="_top" xlink:title="base/interval.h">
<polygon fill="white" stroke="black" points="120,-58.5 120,-79.5 200,-79.5 200,-58.5 120,-58.5"/>
<text text-anchor="middle" x="160" y="-66.5" font-family="Helvetica,sans-Serif" font-size="10.00">base/interval.h</text>
</a>
</g>
<!-- Node0&#45;&gt;Node1 -->
<g id="edge2" class="edge"><title>Node0&#45;&gt;Node1</title>
<path fill="none" stroke="midnightblue" d="M586.928,-243.396C525.574,-235.746 428.793,-220.892 348,-196 287.537,-177.371 268.529,-176.073 218,-138 199.577,-124.118 183.14,-103.346 172.51,-88.2206"/>
<polygon fill="midnightblue" stroke="midnightblue" points="175.195,-85.9444 166.676,-79.6449 169.407,-89.8817 175.195,-85.9444"/>
</g>
<!-- Node9 -->
<g id="node19" class="node"><title>Node9</title>
<a xlink:href="piecewise__interval_8h.html" target="_top" xlink:title="base/piecewise_interval.h">
<polygon fill="white" stroke="black" points="356.5,-174.5 356.5,-195.5 485.5,-195.5 485.5,-174.5 356.5,-174.5"/>
<text text-anchor="middle" x="421" y="-182.5" font-family="Helvetica,sans-Serif" font-size="10.00">base/piecewise_interval.h</text>
</a>
</g>
<!-- Node0&#45;&gt;Node9 -->
<g id="edge18" class="edge"><title>Node0&#45;&gt;Node9</title>
<path fill="none" stroke="midnightblue" d="M588.358,-232.922C550.698,-222.138 502.738,-208.405 467.822,-198.407"/>
<polygon fill="midnightblue" stroke="midnightblue" points="468.463,-194.95 457.886,-195.562 466.536,-201.68 468.463,-194.95"/>
</g>
<!-- Node14 -->
<g id="node31" class="node"><title>Node14</title>
<polygon fill="white" stroke="#bfbfbf" points="629.5,-0.5 629.5,-21.5 670.5,-21.5 670.5,-0.5 629.5,-0.5"/>
<text text-anchor="middle" x="650" y="-8.5" font-family="Helvetica,sans-Serif" font-size="10.00">string</text>
</g>
<!-- Node0&#45;&gt;Node14 -->
<g id="edge64" class="edge"><title>Node0&#45;&gt;Node14</title>
<path fill="none" stroke="midnightblue" d="M656.502,-232.973C661.211,-222.577 666.589,-208.852 669,-196 680.12,-136.727 664.898,-65.462 655.854,-31.2592"/>
<polygon fill="midnightblue" stroke="midnightblue" points="659.202,-30.2332 653.176,-21.5189 652.453,-32.0889 659.202,-30.2332"/>
</g>
<!-- Node17 -->
<g id="node38" class="node"><title>Node17</title>
<a xlink:href="_histogram_factory_8h.html" target="_top" xlink:title="HistogramFactory.h">
<polygon fill="white" stroke="black" points="557.5,-174.5 557.5,-195.5 660.5,-195.5 660.5,-174.5 557.5,-174.5"/>
<text text-anchor="middle" x="609" y="-182.5" font-family="Helvetica,sans-Serif" font-size="10.00">HistogramFactory.h</text>
</a>
</g>
<!-- Node0&#45;&gt;Node17 -->
<g id="edge40" class="edge"><title>Node0&#45;&gt;Node17</title>
<path fill="none" stroke="midnightblue" d="M637.753,-232.922C632.527,-224.212 626.147,-213.578 620.725,-204.542"/>
<polygon fill="midnightblue" stroke="midnightblue" points="623.657,-202.626 615.511,-195.852 617.655,-206.228 623.657,-202.626"/>
</g>
<!-- Node19 -->
<g id="node50" class="node"><title>Node19</title>
<polygon fill="white" stroke="#bfbfbf" points="715.5,-174.5 715.5,-195.5 766.5,-195.5 766.5,-174.5 715.5,-174.5"/>
<text text-anchor="middle" x="741" y="-182.5" font-family="Helvetica,sans-Serif" font-size="10.00">TH1D.h</text>
</g>
<!-- Node0&#45;&gt;Node19 -->
<g id="edge60" class="edge"><title>Node0&#45;&gt;Node19</title>
<path fill="none" stroke="midnightblue" d="M672.435,-232.922C686.297,-223.233 703.565,-211.165 717.303,-201.562"/>
<polygon fill="midnightblue" stroke="midnightblue" points="719.559,-204.256 725.75,-195.658 715.549,-198.518 719.559,-204.256"/>
</g>
<!-- Node20 -->
<g id="node52" class="node"><title>Node20</title>
<polygon fill="white" stroke="#bfbfbf" points="783.5,-174.5 783.5,-195.5 834.5,-195.5 834.5,-174.5 783.5,-174.5"/>
<text text-anchor="middle" x="809" y="-182.5" font-family="Helvetica,sans-Serif" font-size="10.00">TH2D.h</text>
</g>
<!-- Node0&#45;&gt;Node20 -->
<g id="edge62" class="edge"><title>Node0&#45;&gt;Node20</title>
<path fill="none" stroke="midnightblue" d="M690.301,-232.922C716.292,-222.429 749.198,-209.144 773.768,-199.224"/>
<polygon fill="midnightblue" stroke="midnightblue" points="775.114,-202.455 783.077,-195.466 772.494,-195.964 775.114,-202.455"/>
</g>
<!-- Node2 -->
<g id="node5" class="node"><title>Node2</title>
<a xlink:href="types_8h.html" target="_top" xlink:title="types.h">
<polygon fill="white" stroke="black" points="189.5,-0.5 189.5,-21.5 238.5,-21.5 238.5,-0.5 189.5,-0.5"/>
<text text-anchor="middle" x="214" y="-8.5" font-family="Helvetica,sans-Serif" font-size="10.00">types.h</text>
</a>
</g>
<!-- Node1&#45;&gt;Node2 -->
<g id="edge4" class="edge"><title>Node1&#45;&gt;Node2</title>
<path fill="none" stroke="midnightblue" d="M169.904,-58.3619C177.516,-50.1861 188.208,-38.7025 197.157,-29.0907"/>
<polygon fill="midnightblue" stroke="midnightblue" points="199.906,-31.2746 204.158,-21.5707 194.783,-26.5046 199.906,-31.2746"/>
</g>
<!-- Node3 -->
<g id="node7" class="node"><title>Node3</title>
<polygon fill="white" stroke="#bfbfbf" points="256,-0.5 256,-21.5 312,-21.5 312,-0.5 256,-0.5"/>
<text text-anchor="middle" x="284" y="-8.5" font-family="Helvetica,sans-Serif" font-size="10.00">algorithm</text>
</g>
<!-- Node1&#45;&gt;Node3 -->
<g id="edge6" class="edge"><title>Node1&#45;&gt;Node3</title>
<path fill="none" stroke="midnightblue" d="M182.455,-58.4966C201.91,-49.397 230.28,-36.1273 252.091,-25.9253"/>
<polygon fill="midnightblue" stroke="midnightblue" points="253.717,-29.0285 261.293,-21.6212 250.752,-22.6878 253.717,-29.0285"/>
</g>
<!-- Node4 -->
<g id="node9" class="node"><title>Node4</title>
<polygon fill="white" stroke="#bfbfbf" points="397.5,-0.5 397.5,-21.5 456.5,-21.5 456.5,-0.5 397.5,-0.5"/>
<text text-anchor="middle" x="427" y="-8.5" font-family="Helvetica,sans-Serif" font-size="10.00">stdexcept</text>
</g>
<!-- Node1&#45;&gt;Node4 -->
<g id="edge8" class="edge"><title>Node1&#45;&gt;Node4</title>
<path fill="none" stroke="midnightblue" d="M200.095,-59.9189C203.106,-59.2613 206.1,-58.6154 209,-58 285.69,-41.7254 308.02,-41.363 387.242,-22.3051"/>
<polygon fill="midnightblue" stroke="midnightblue" points="388.303,-25.6493 397.193,-19.8859 386.649,-18.8474 388.303,-25.6493"/>
</g>
<!-- Node5 -->
<g id="node11" class="node"><title>Node5</title>
<polygon fill="white" stroke="#bfbfbf" points="0,-0.5 0,-21.5 40,-21.5 40,-0.5 0,-0.5"/>
<text text-anchor="middle" x="20" y="-8.5" font-family="Helvetica,sans-Serif" font-size="10.00">limits</text>
</g>
<!-- Node1&#45;&gt;Node5 -->
<g id="edge10" class="edge"><title>Node1&#45;&gt;Node5</title>
<path fill="none" stroke="midnightblue" d="M134.647,-58.4966C110.717,-48.5829 74.8404,-33.7196 49.6079,-23.2661"/>
<polygon fill="midnightblue" stroke="midnightblue" points="50.7532,-19.9522 40.175,-19.3582 48.074,-26.4192 50.7532,-19.9522"/>
</g>
<!-- Node6 -->
<g id="node13" class="node"><title>Node6</title>
<polygon fill="white" stroke="#bfbfbf" points="473.5,-0.5 473.5,-21.5 522.5,-21.5 522.5,-0.5 473.5,-0.5"/>
<text text-anchor="middle" x="498" y="-8.5" font-family="Helvetica,sans-Serif" font-size="10.00">istream</text>
</g>
<!-- Node1&#45;&gt;Node6 -->
<g id="edge12" class="edge"><title>Node1&#45;&gt;Node6</title>
<path fill="none" stroke="midnightblue" d="M200.057,-59.7296C203.078,-59.1158 206.084,-58.5315 209,-58 318.834,-37.983 351.32,-47.6848 463.277,-22.1076"/>
<polygon fill="midnightblue" stroke="midnightblue" points="464.327,-25.4567 473.273,-19.7797 462.74,-18.6392 464.327,-25.4567"/>
</g>
<!-- Node7 -->
<g id="node15" class="node"><title>Node7</title>
<polygon fill="white" stroke="#bfbfbf" points="58,-0.5 58,-21.5 110,-21.5 110,-0.5 58,-0.5"/>
<text text-anchor="middle" x="84" y="-8.5" font-family="Helvetica,sans-Serif" font-size="10.00">sstream</text>
</g>
<!-- Node1&#45;&gt;Node7 -->
<g id="edge14" class="edge"><title>Node1&#45;&gt;Node7</title>
<path fill="none" stroke="midnightblue" d="M146.06,-58.3619C134.812,-49.7773 118.784,-37.5459 105.835,-27.6636"/>
<polygon fill="midnightblue" stroke="midnightblue" points="107.924,-24.8551 97.8512,-21.5707 103.677,-30.4198 107.924,-24.8551"/>
</g>
<!-- Node8 -->
<g id="node17" class="node"><title>Node8</title>
<polygon fill="white" stroke="#bfbfbf" points="128,-0.5 128,-21.5 172,-21.5 172,-0.5 128,-0.5"/>
<text text-anchor="middle" x="150" y="-8.5" font-family="Helvetica,sans-Serif" font-size="10.00">cmath</text>
</g>
<!-- Node1&#45;&gt;Node8 -->
<g id="edge16" class="edge"><title>Node1&#45;&gt;Node8</title>
<path fill="none" stroke="midnightblue" d="M158.166,-58.3619C156.869,-50.8401 155.089,-40.5187 153.523,-31.4308"/>
<polygon fill="midnightblue" stroke="midnightblue" points="156.971,-30.8306 151.823,-21.5707 150.073,-32.02 156.971,-30.8306"/>
</g>
<!-- Node9&#45;&gt;Node1 -->
<g id="edge20" class="edge"><title>Node9&#45;&gt;Node1</title>
<path fill="none" stroke="midnightblue" d="M367.993,-174.432C335.296,-166.779 293.055,-154.808 258,-138 228.875,-124.035 199.039,-101.637 180.063,-86.1666"/>
<polygon fill="midnightblue" stroke="midnightblue" points="182.08,-83.2929 172.149,-79.6014 177.611,-88.6802 182.08,-83.2929"/>
</g>
<!-- Node10 -->
<g id="node22" class="node"><title>Node10</title>
<a xlink:href="printable_8h.html" target="_top" xlink:title="base/std_ext/printable.h">
<polygon fill="white" stroke="black" points="305.5,-116.5 305.5,-137.5 426.5,-137.5 426.5,-116.5 305.5,-116.5"/>
<text text-anchor="middle" x="366" y="-124.5" font-family="Helvetica,sans-Serif" font-size="10.00">base/std_ext/printable.h</text>
</a>
</g>
<!-- Node9&#45;&gt;Node10 -->
<g id="edge22" class="edge"><title>Node9&#45;&gt;Node10</title>
<path fill="none" stroke="midnightblue" d="M410.912,-174.362C403.159,-166.186 392.27,-154.702 383.155,-145.091"/>
<polygon fill="midnightblue" stroke="midnightblue" points="385.445,-142.419 376.024,-137.571 380.365,-147.235 385.445,-142.419"/>
</g>
<!-- Node12 -->
<g id="node26" class="node"><title>Node12</title>
<polygon fill="white" stroke="#bfbfbf" points="546,-0.5 546,-21.5 590,-21.5 590,-0.5 546,-0.5"/>
<text text-anchor="middle" x="568" y="-8.5" font-family="Helvetica,sans-Serif" font-size="10.00">vector</text>
</g>
<!-- Node9&#45;&gt;Node12 -->
<g id="edge38" class="edge"><title>Node9&#45;&gt;Node12</title>
<path fill="none" stroke="midnightblue" d="M466.374,-174.455C500.335,-165.598 542.778,-152.152 554,-138 578.227,-107.448 575.784,-58.9746 571.874,-31.5958"/>
<polygon fill="midnightblue" stroke="midnightblue" points="575.305,-30.8884 570.24,-21.5825 568.397,-32.0157 575.305,-30.8884"/>
</g>
<!-- Node11 -->
<g id="node24" class="node"><title>Node11</title>
<a xlink:href="container_8h.html" target="_top" xlink:title="container.h">
<polygon fill="white" stroke="black" points="297.5,-58.5 297.5,-79.5 362.5,-79.5 362.5,-58.5 297.5,-58.5"/>
<text text-anchor="middle" x="330" y="-66.5" font-family="Helvetica,sans-Serif" font-size="10.00">container.h</text>
</a>
</g>
<!-- Node10&#45;&gt;Node11 -->
<g id="edge24" class="edge"><title>Node10&#45;&gt;Node11</title>
<path fill="none" stroke="midnightblue" d="M359.397,-116.362C354.525,-108.513 347.762,-97.6159 341.95,-88.2527"/>
<polygon fill="midnightblue" stroke="midnightblue" points="344.809,-86.2213 336.561,-79.5707 338.861,-89.9129 344.809,-86.2213"/>
</g>
<!-- Node15 -->
<g id="node33" class="node"><title>Node15</title>
<polygon fill="white" stroke="#bfbfbf" points="218,-58.5 218,-79.5 280,-79.5 280,-58.5 218,-58.5"/>
<text text-anchor="middle" x="249" y="-66.5" font-family="Helvetica,sans-Serif" font-size="10.00">type_traits</text>
</g>
<!-- Node10&#45;&gt;Node15 -->
<g id="edge34" class="edge"><title>Node10&#45;&gt;Node15</title>
<path fill="none" stroke="midnightblue" d="M344.812,-116.497C326.538,-107.438 299.928,-94.2462 279.385,-84.0628"/>
<polygon fill="midnightblue" stroke="midnightblue" points="280.94,-80.9269 270.426,-79.6212 277.831,-87.1986 280.94,-80.9269"/>
</g>
<!-- Node16 -->
<g id="node35" class="node"><title>Node16</title>
<polygon fill="white" stroke="#bfbfbf" points="380,-58.5 380,-79.5 432,-79.5 432,-58.5 380,-58.5"/>
<text text-anchor="middle" x="406" y="-66.5" font-family="Helvetica,sans-Serif" font-size="10.00">ostream</text>
</g>
<!-- Node10&#45;&gt;Node16 -->
<g id="edge36" class="edge"><title>Node10&#45;&gt;Node16</title>
<path fill="none" stroke="midnightblue" d="M373.337,-116.362C378.806,-108.431 386.422,-97.3885 392.924,-87.9606"/>
<polygon fill="midnightblue" stroke="midnightblue" points="395.914,-89.7899 398.71,-79.5707 390.151,-85.8157 395.914,-89.7899"/>
</g>
<!-- Node11&#45;&gt;Node3 -->
<g id="edge28" class="edge"><title>Node11&#45;&gt;Node3</title>
<path fill="none" stroke="midnightblue" d="M321.563,-58.3619C315.208,-50.3496 306.334,-39.1605 298.807,-29.6696"/>
<polygon fill="midnightblue" stroke="midnightblue" points="301.34,-27.2308 292.384,-21.5707 295.855,-31.5805 301.34,-27.2308"/>
</g>
<!-- Node11&#45;&gt;Node12 -->
<g id="edge26" class="edge"><title>Node11&#45;&gt;Node12</title>
<path fill="none" stroke="midnightblue" d="M362.643,-60.1135C365.466,-59.3841 368.281,-58.6704 371,-58 441.77,-40.5526 460.471,-40.3961 531,-22 532.65,-21.5698 534.337,-21.1164 536.037,-20.6488"/>
<polygon fill="midnightblue" stroke="midnightblue" points="537.106,-23.9836 545.764,-17.8762 535.187,-17.2518 537.106,-23.9836"/>
</g>
<!-- Node13 -->
<g id="node29" class="node"><title>Node13</title>
<polygon fill="white" stroke="#bfbfbf" points="329.5,-0.5 329.5,-21.5 380.5,-21.5 380.5,-0.5 329.5,-0.5"/>
<text text-anchor="middle" x="355" y="-8.5" font-family="Helvetica,sans-Serif" font-size="10.00">numeric</text>
</g>
<!-- Node11&#45;&gt;Node13 -->
<g id="edge30" class="edge"><title>Node11&#45;&gt;Node13</title>
<path fill="none" stroke="midnightblue" d="M334.585,-58.3619C337.898,-50.6766 342.47,-40.0686 346.448,-30.8399"/>
<polygon fill="midnightblue" stroke="midnightblue" points="349.699,-32.1393 350.444,-21.5707 343.271,-29.3685 349.699,-32.1393"/>
</g>
<!-- Node11&#45;&gt;Node14 -->
<g id="edge32" class="edge"><title>Node11&#45;&gt;Node14</title>
<path fill="none" stroke="midnightblue" d="M362.599,-59.9214C365.431,-59.2337 368.261,-58.582 371,-58 471.349,-36.6785 498.153,-40.8221 599,-22 605.544,-20.7785 612.535,-19.3517 619.176,-17.9381"/>
<polygon fill="midnightblue" stroke="midnightblue" points="620.18,-21.3017 629.21,-15.7591 618.695,-14.4611 620.18,-21.3017"/>
</g>
<!-- Node17&#45;&gt;Node1 -->
<g id="edge42" class="edge"><title>Node17&#45;&gt;Node1</title>
<path fill="none" stroke="midnightblue" d="M557.445,-179.279C481.751,-170.532 344.388,-153.243 297,-138 276.564,-131.426 273.156,-125.689 254,-116 232.787,-105.27 208.818,-93.2883 190.394,-84.1078"/>
<polygon fill="midnightblue" stroke="midnightblue" points="191.82,-80.908 181.308,-79.5838 188.7,-87.1742 191.82,-80.908"/>
</g>
<!-- Node17&#45;&gt;Node12 -->
<g id="edge58" class="edge"><title>Node17&#45;&gt;Node12</title>
<path fill="none" stroke="midnightblue" d="M608.096,-174.272C606.045,-152.16 600.235,-100.059 588,-58 585.323,-48.7987 581.343,-38.9908 577.636,-30.728"/>
<polygon fill="midnightblue" stroke="midnightblue" points="580.758,-29.141 573.356,-21.56 574.415,-32.1019 580.758,-29.141"/>
</g>
<!-- Node17&#45;&gt;Node14 -->
<g id="edge56" class="edge"><title>Node17&#45;&gt;Node14</title>
<path fill="none" stroke="midnightblue" d="M613.415,-174.331C617.18,-164.906 622.521,-150.722 626,-138 636.105,-101.046 643.406,-56.8942 647.149,-31.5826"/>
<polygon fill="midnightblue" stroke="midnightblue" points="650.616,-32.0641 648.575,-21.6678 643.687,-31.0679 650.616,-32.0641"/>
</g>
<!-- Node18 -->
<g id="node41" class="node"><title>Node18</title>
<a xlink:href="_bin_settings_8h.html" target="_top" xlink:title="base/BinSettings.h">
<polygon fill="white" stroke="black" points="446.5,-116.5 446.5,-137.5 545.5,-137.5 545.5,-116.5 446.5,-116.5"/>
<text text-anchor="middle" x="496" y="-124.5" font-family="Helvetica,sans-Serif" font-size="10.00">base/BinSettings.h</text>
</a>
</g>
<!-- Node17&#45;&gt;Node18 -->
<g id="edge44" class="edge"><title>Node17&#45;&gt;Node18</title>
<path fill="none" stroke="midnightblue" d="M588.537,-174.497C570.967,-165.479 545.418,-152.365 525.615,-142.201"/>
<polygon fill="midnightblue" stroke="midnightblue" points="527.188,-139.074 516.693,-137.621 523.991,-145.301 527.188,-139.074"/>
</g>
<!-- Node18&#45;&gt;Node1 -->
<g id="edge46" class="edge"><title>Node18&#45;&gt;Node1</title>
<path fill="none" stroke="midnightblue" d="M446.411,-117.97C442.551,-117.294 438.713,-116.63 435,-116 337.858,-99.5061 310.579,-99.1546 210.032,-80.1127"/>
<polygon fill="midnightblue" stroke="midnightblue" points="210.548,-76.6479 200.069,-78.2104 209.235,-83.5237 210.548,-76.6479"/>
</g>
<!-- Node18&#45;&gt;Node4 -->
<g id="edge50" class="edge"><title>Node18&#45;&gt;Node4</title>
<path fill="none" stroke="midnightblue" d="M489.632,-116.295C478.028,-96.7861 453.284,-55.1884 438.61,-30.5177"/>
<polygon fill="midnightblue" stroke="midnightblue" points="441.473,-28.4844 433.352,-21.6792 435.456,-32.063 441.473,-28.4844"/>
</g>
<!-- Node18&#45;&gt;Node6 -->
<g id="edge52" class="edge"><title>Node18&#45;&gt;Node6</title>
<path fill="none" stroke="midnightblue" d="M496.185,-116.295C496.515,-97.1314 497.213,-56.654 497.641,-31.8434"/>
<polygon fill="midnightblue" stroke="midnightblue" points="501.143,-31.7381 497.816,-21.6792 494.144,-31.6173 501.143,-31.7381"/>
</g>
<!-- Node18&#45;&gt;Node12 -->
<g id="edge48" class="edge"><title>Node18&#45;&gt;Node12</title>
<path fill="none" stroke="midnightblue" d="M502.645,-116.295C514.807,-96.6998 540.801,-54.8198 556.088,-30.1913"/>
<polygon fill="midnightblue" stroke="midnightblue" points="559.072,-32.0214 561.372,-21.6792 553.124,-28.3298 559.072,-32.0214"/>
</g>
<!-- Node18&#45;&gt;Node16 -->
<g id="edge54" class="edge"><title>Node18&#45;&gt;Node16</title>
<path fill="none" stroke="midnightblue" d="M479.493,-116.362C465.918,-107.614 446.467,-95.0786 430.985,-85.1015"/>
<polygon fill="midnightblue" stroke="midnightblue" points="432.704,-82.0457 422.403,-79.5707 428.912,-87.9297 432.704,-82.0457"/>
</g>
</g>
</svg>
