<?xml version="1.0" encoding="UTF-8" standalone="no"?>
<!DOCTYPE svg PUBLIC "-//W3C//DTD SVG 1.1//EN"
 "http://www.w3.org/Graphics/SVG/1.1/DTD/svg11.dtd">
<!-- Generated by graphviz version 2.26.3 (20100126.1600)
 -->
<!-- Title: src/mc/database/Query.h Pages: 1 -->
<svg width="718pt" height="160pt"
 viewBox="0.00 0.00 718.00 160.00" xmlns="http://www.w3.org/2000/svg" xmlns:xlink="http://www.w3.org/1999/xlink">
<g id="graph1" class="graph" transform="scale(1 1) rotate(0) translate(4 156)">
<title>src/mc/database/Query.h</title>
<polygon fill="white" stroke="white" points="-4,5 -4,-156 715,-156 715,5 -4,5"/>
<!-- Node28 -->
<g id="node1" class="node"><title>Node28</title>
<polygon fill="#bfbfbf" stroke="black" points="253.5,-130.5 253.5,-151.5 380.5,-151.5 380.5,-130.5 253.5,-130.5"/>
<text text-anchor="middle" x="317" y="-138.5" font-family="Helvetica,sans-Serif" font-size="10.00">src/mc/database/Query.h</text>
</g>
<!-- Node29 -->
<g id="node3" class="node"><title>Node29</title>
<a xlink:href="_mc_action_8h.html" target="_top" xlink:title="progs/detail/McAction.h">
<polygon fill="white" stroke="black" points="114.5,-72.5 114.5,-93.5 233.5,-93.5 233.5,-72.5 114.5,-72.5"/>
<text text-anchor="middle" x="174" y="-80.5" font-family="Helvetica,sans-Serif" font-size="10.00">progs/detail/McAction.h</text>
</a>
</g>
<!-- Node28&#45;&gt;Node29 -->
<g id="edge2" class="edge"><title>Node28&#45;&gt;Node29</title>
<path fill="none" stroke="midnightblue" d="M281.534,-126.615C256.321,-116.389 223.013,-102.88 200.187,-93.6212"/>
<polygon fill="midnightblue" stroke="midnightblue" points="280.521,-129.981 291.104,-130.497 283.153,-123.495 280.521,-129.981"/>
</g>
<!-- Node31 -->
<g id="node7" class="node"><title>Node31</title>
<a xlink:href="_ant-mcdatabase-viewer_8cc.html" target="_top" xlink:title="progs/Ant&#45;mcdatabase\l&#45;viewer.cc">
<polygon fill="white" stroke="black" points="-0.5,-1 -0.5,-35 114.5,-35 114.5,-1 -0.5,-1"/>
<text text-anchor="start" x="7.5" y="-22" font-family="Helvetica,sans-Serif" font-size="10.00">progs/Ant&#45;mcdatabase</text>
<text text-anchor="middle" x="57" y="-9" font-family="Helvetica,sans-Serif" font-size="10.00">&#45;viewer.cc</text>
</a>
</g>
<!-- Node28&#45;&gt;Node31 -->
<g id="edge12" class="edge"><title>Node28&#45;&gt;Node31</title>
<path fill="none" stroke="midnightblue" d="M243.301,-130.657C191.66,-122.289 128.082,-109.389 106,-94 85.0058,-79.3689 70.8813,-52.5584 63.3896,-35.0098"/>
<polygon fill="midnightblue" stroke="midnightblue" points="243.029,-134.157 253.454,-132.269 244.127,-127.244 243.029,-134.157"/>
</g>
<!-- Node34 -->
<g id="node14" class="node"><title>Node34</title>
<a xlink:href="_query_8cc.html" target="_top" xlink:title="src/mc/database/Query.cc">
<polygon fill="white" stroke="black" points="251,-72.5 251,-93.5 383,-93.5 383,-72.5 251,-72.5"/>
<text text-anchor="middle" x="317" y="-80.5" font-family="Helvetica,sans-Serif" font-size="10.00">src/mc/database/Query.cc</text>
</a>
</g>
<!-- Node28&#45;&gt;Node34 -->
<g id="edge14" class="edge"><title>Node28&#45;&gt;Node34</title>
<path fill="none" stroke="midnightblue" d="M317,-120.191C317,-111.168 317,-100.994 317,-93.5707"/>
<polygon fill="midnightblue" stroke="midnightblue" points="313.5,-120.362 317,-130.362 320.5,-120.362 313.5,-120.362"/>
</g>
<!-- Node35 -->
<g id="node16" class="node"><title>Node35</title>
<a xlink:href="_pluto_factory_8cc.html" target="_top" xlink:title="src/mc/pluto/PlutoFactory.cc">
<polygon fill="white" stroke="black" points="400.5,-72.5 400.5,-93.5 543.5,-93.5 543.5,-72.5 400.5,-72.5"/>
<text text-anchor="middle" x="472" y="-80.5" font-family="Helvetica,sans-Serif" font-size="10.00">src/mc/pluto/PlutoFactory.cc</text>
</a>
</g>
<!-- Node28&#45;&gt;Node35 -->
<g id="edge16" class="edge"><title>Node28&#45;&gt;Node35</title>
<path fill="none" stroke="midnightblue" d="M354.75,-126.874C382.255,-116.582 418.921,-102.862 443.878,-93.5231"/>
<polygon fill="midnightblue" stroke="midnightblue" points="353.208,-123.714 345.069,-130.497 355.662,-130.27 353.208,-123.714"/>
</g>
<!-- Node36 -->
<g id="node18" class="node"><title>Node36</title>
<a xlink:href="_pluto_generator_8h.html" target="_top" xlink:title="src/mc/pluto/PlutoGenerator.h">
<polygon fill="white" stroke="black" points="560.5,-72.5 560.5,-93.5 707.5,-93.5 707.5,-72.5 560.5,-72.5"/>
<text text-anchor="middle" x="634" y="-80.5" font-family="Helvetica,sans-Serif" font-size="10.00">src/mc/pluto/PlutoGenerator.h</text>
</a>
</g>
<!-- Node28&#45;&gt;Node36 -->
<g id="edge18" class="edge"><title>Node28&#45;&gt;Node36</title>
<path fill="none" stroke="midnightblue" d="M384.418,-128.665C441.494,-118.222 522.422,-103.415 576.486,-93.5231"/>
<polygon fill="midnightblue" stroke="midnightblue" points="383.613,-125.254 374.406,-130.497 384.873,-132.14 383.613,-125.254"/>
</g>
<!-- Node30 -->
<g id="node5" class="node"><title>Node30</title>
<a xlink:href="_ant-cocktail_8cc.html" target="_top" xlink:title="progs/Ant&#45;cocktail.cc">
<polygon fill="white" stroke="black" points="399.5,-7.5 399.5,-28.5 508.5,-28.5 508.5,-7.5 399.5,-7.5"/>
<text text-anchor="middle" x="454" y="-15.5" font-family="Helvetica,sans-Serif" font-size="10.00">progs/Ant&#45;cocktail.cc</text>
</a>
</g>
<!-- Node29&#45;&gt;Node30 -->
<g id="edge4" class="edge"><title>Node29&#45;&gt;Node30</title>
<path fill="none" stroke="midnightblue" d="M229.121,-70.2041C281.651,-58.0095 359.791,-39.8699 408.767,-28.5005"/>
<polygon fill="midnightblue" stroke="midnightblue" points="228.248,-66.8137 219.298,-72.4844 229.83,-73.6324 228.248,-66.8137"/>
</g>
<!-- Node29&#45;&gt;Node31 -->
<g id="edge6" class="edge"><title>Node29&#45;&gt;Node31</title>
<path fill="none" stroke="midnightblue" d="M145.81,-67.3389C128.342,-57.6347 105.894,-45.1631 87.9365,-35.1869"/>
<polygon fill="midnightblue" stroke="midnightblue" points="144.5,-70.615 154.942,-72.412 147.9,-64.4959 144.5,-70.615"/>
</g>
<!-- Node32 -->
<g id="node9" class="node"><title>Node32</title>
<a xlink:href="_ant-mcgun_8cc.html" target="_top" xlink:title="progs/Ant&#45;mcgun.cc">
<polygon fill="white" stroke="black" points="132,-7.5 132,-28.5 236,-28.5 236,-7.5 132,-7.5"/>
<text text-anchor="middle" x="184" y="-15.5" font-family="Helvetica,sans-Serif" font-size="10.00">progs/Ant&#45;mcgun.cc</text>
</a>
</g>
<!-- Node29&#45;&gt;Node32 -->
<g id="edge8" class="edge"><title>Node29&#45;&gt;Node32</title>
<path fill="none" stroke="midnightblue" d="M177.175,-62.363C178.907,-51.1077 180.977,-37.6523 182.379,-28.5337"/>
<polygon fill="midnightblue" stroke="midnightblue" points="173.713,-61.8506 175.651,-72.2666 180.631,-62.9151 173.713,-61.8506"/>
</g>
<!-- Node33 -->
<g id="node11" class="node"><title>Node33</title>
<a xlink:href="_ant-pluto_8cc.html" target="_top" xlink:title="Pluto generator forntend. ">
<polygon fill="white" stroke="black" points="254,-7.5 254,-28.5 350,-28.5 350,-7.5 254,-7.5"/>
<text text-anchor="middle" x="302" y="-15.5" font-family="Helvetica,sans-Serif" font-size="10.00">progs/Ant&#45;pluto.cc</text>
</a>
</g>
<!-- Node29&#45;&gt;Node33 -->
<g id="edge10" class="edge"><title>Node29&#45;&gt;Node33</title>
<path fill="none" stroke="midnightblue" d="M203.784,-67.8751C227.52,-55.8219 260.149,-39.2525 281.159,-28.5835"/>
<polygon fill="midnightblue" stroke="midnightblue" points="202.182,-64.7634 194.85,-72.412 205.351,-71.0048 202.182,-64.7634"/>
</g>
<!-- Node36&#45;&gt;Node30 -->
<g id="edge20" class="edge"><title>Node36&#45;&gt;Node30</title>
<path fill="none" stroke="midnightblue" d="M595.18,-68.9818C561.596,-56.854 513.768,-39.583 483.308,-28.5835"/>
<polygon fill="midnightblue" stroke="midnightblue" points="594.085,-72.3074 604.679,-72.412 596.463,-65.7235 594.085,-72.3074"/>
</g>
<!-- Node37 -->
<g id="node21" class="node"><title>Node37</title>
<a xlink:href="_pluto_generator_8cc.html" target="_top" xlink:title="src/mc/pluto/PlutoGenerator.cc">
<polygon fill="white" stroke="black" points="558,-7.5 558,-28.5 710,-28.5 710,-7.5 558,-7.5"/>
<text text-anchor="middle" x="634" y="-15.5" font-family="Helvetica,sans-Serif" font-size="10.00">src/mc/pluto/PlutoGenerator.cc</text>
</a>
</g>
<!-- Node36&#45;&gt;Node37 -->
<g id="edge22" class="edge"><title>Node36&#45;&gt;Node37</title>
<path fill="none" stroke="midnightblue" d="M634,-62.0142C634,-50.8307 634,-37.5583 634,-28.5337"/>
<polygon fill="midnightblue" stroke="midnightblue" points="630.5,-62.2665 634,-72.2666 637.5,-62.2666 630.5,-62.2665"/>
</g>
</g>
</svg>
