<?xml version="1.0" encoding="UTF-8" standalone="no"?>
<!DOCTYPE svg PUBLIC "-//W3C//DTD SVG 1.1//EN"
 "http://www.w3.org/Graphics/SVG/1.1/DTD/svg11.dtd">
<!-- Generated by graphviz version 2.26.3 (20100126.1600)
 -->
<!-- Title: src/reconstruct/Reconstruct.h Pages: 1 -->
<svg width="1720pt" height="102pt"
 viewBox="0.00 0.00 1720.00 102.00" xmlns="http://www.w3.org/2000/svg" xmlns:xlink="http://www.w3.org/1999/xlink">
<g id="graph1" class="graph" transform="scale(1 1) rotate(0) translate(4 98)">
<title>src/reconstruct/Reconstruct.h</title>
<polygon fill="white" stroke="white" points="-4,5 -4,-98 1717,-98 1717,5 -4,5"/>
<!-- Node24 -->
<g id="node1" class="node"><title>Node24</title>
<polygon fill="#bfbfbf" stroke="black" points="716,-72.5 716,-93.5 862,-93.5 862,-72.5 716,-72.5"/>
<text text-anchor="middle" x="789" y="-80.5" font-family="Helvetica,sans-Serif" font-size="10.00">src/reconstruct/Reconstruct.h</text>
</g>
<!-- Node25 -->
<g id="node3" class="node"><title>Node25</title>
<a xlink:href="_ant-rawdump_8cc.html" target="_top" xlink:title="progs/Ant&#45;rawdump.cc">
<polygon fill="white" stroke="black" points="-0.5,-7.5 -0.5,-28.5 114.5,-28.5 114.5,-7.5 -0.5,-7.5"/>
<text text-anchor="middle" x="57" y="-15.5" font-family="Helvetica,sans-Serif" font-size="10.00">progs/Ant&#45;rawdump.cc</text>
</a>
</g>
<!-- Node24&#45;&gt;Node25 -->
<g id="edge2" class="edge"><title>Node24&#45;&gt;Node25</title>
<path fill="none" stroke="midnightblue" d="M705.713,-79.1622C552.764,-71.7755 232.752,-54.6537 123,-36 112.345,-34.189 100.925,-31.3911 90.631,-28.5367"/>
<polygon fill="midnightblue" stroke="midnightblue" points="705.831,-82.6718 715.987,-79.6559 706.167,-75.6799 705.831,-82.6718"/>
</g>
<!-- Node26 -->
<g id="node5" class="node"><title>Node26</title>
<a xlink:href="_ant_8cc.html" target="_top" xlink:title="Main Ant executable. ">
<polygon fill="white" stroke="black" points="132,-7.5 132,-28.5 204,-28.5 204,-7.5 132,-7.5"/>
<text text-anchor="middle" x="168" y="-15.5" font-family="Helvetica,sans-Serif" font-size="10.00">progs/Ant.cc</text>
</a>
</g>
<!-- Node24&#45;&gt;Node26 -->
<g id="edge4" class="edge"><title>Node24&#45;&gt;Node26</title>
<path fill="none" stroke="midnightblue" d="M705.808,-79.2719C569.42,-72.6459 304.294,-57.4684 213,-36 205.464,-34.2279 197.533,-31.4048 190.464,-28.515"/>
<polygon fill="midnightblue" stroke="midnightblue" points="705.644,-82.7679 715.801,-79.7532 705.981,-75.776 705.644,-82.7679"/>
</g>
<!-- Node27 -->
<g id="node7" class="node"><title>Node27</title>
<a xlink:href="_reconstruct_8cc.html" target="_top" xlink:title="src/reconstruct/Reconstruct.cc">
<polygon fill="white" stroke="black" points="222,-7.5 222,-28.5 374,-28.5 374,-7.5 222,-7.5"/>
<text text-anchor="middle" x="298" y="-15.5" font-family="Helvetica,sans-Serif" font-size="10.00">src/reconstruct/Reconstruct.cc</text>
</a>
</g>
<!-- Node24&#45;&gt;Node27 -->
<g id="edge6" class="edge"><title>Node24&#45;&gt;Node27</title>
<path fill="none" stroke="midnightblue" d="M705.692,-75.6523C623.398,-67.8545 494.088,-54.1515 383,-36 370.197,-33.9081 356.404,-31.1903 343.73,-28.5032"/>
<polygon fill="midnightblue" stroke="midnightblue" points="705.455,-79.1454 715.739,-76.5971 706.111,-72.1762 705.455,-79.1454"/>
</g>
<!-- Node28 -->
<g id="node9" class="node"><title>Node28</title>
<a xlink:href="_display_clustering_8cc.html" target="_top" xlink:title="src/root&#45;addons/analysis\l_codes/DisplayClustering.cc">
<polygon fill="white" stroke="black" points="392,-1 392,-35 534,-35 534,-1 392,-1"/>
<text text-anchor="start" x="400" y="-22" font-family="Helvetica,sans-Serif" font-size="10.00">src/root&#45;addons/analysis</text>
<text text-anchor="middle" x="463" y="-9" font-family="Helvetica,sans-Serif" font-size="10.00">_codes/DisplayClustering.cc</text>
</a>
</g>
<!-- Node24&#45;&gt;Node28 -->
<g id="edge8" class="edge"><title>Node24&#45;&gt;Node28</title>
<path fill="none" stroke="midnightblue" d="M720.801,-70.586C671.359,-61.4364 602.938,-48.4655 543,-36 540.073,-35.3913 537.088,-34.7613 534.074,-34.1177"/>
<polygon fill="midnightblue" stroke="midnightblue" points="720.271,-74.0472 730.74,-72.4212 721.542,-67.1636 720.271,-74.0472"/>
</g>
<!-- Node29 -->
<g id="node11" class="node"><title>Node29</title>
<a xlink:href="_test_ant_reader_8cc.html" target="_top" xlink:title="test/analysis/TestAntReader.cc">
<polygon fill="white" stroke="black" points="551.5,-7.5 551.5,-28.5 706.5,-28.5 706.5,-7.5 551.5,-7.5"/>
<text text-anchor="middle" x="629" y="-15.5" font-family="Helvetica,sans-Serif" font-size="10.00">test/analysis/TestAntReader.cc</text>
</a>
</g>
<!-- Node24&#45;&gt;Node29 -->
<g id="edge10" class="edge"><title>Node24&#45;&gt;Node29</title>
<path fill="none" stroke="midnightblue" d="M753.334,-68.5108C723.548,-56.4103 681.779,-39.4414 655.052,-28.5835"/>
<polygon fill="midnightblue" stroke="midnightblue" points="752.355,-71.8908 762.937,-72.412 754.99,-65.4055 752.355,-71.8908"/>
</g>
<!-- Node30 -->
<g id="node13" class="node"><title>Node30</title>
<a xlink:href="_test_physics_manager_8cc.html" target="_top" xlink:title="test/analysis/TestPhysics\lManager.cc">
<polygon fill="white" stroke="black" points="724,-1 724,-35 854,-35 854,-1 724,-1"/>
<text text-anchor="start" x="732" y="-22" font-family="Helvetica,sans-Serif" font-size="10.00">test/analysis/TestPhysics</text>
<text text-anchor="middle" x="789" y="-9" font-family="Helvetica,sans-Serif" font-size="10.00">Manager.cc</text>
</a>
</g>
<!-- Node24&#45;&gt;Node30 -->
<g id="edge12" class="edge"><title>Node24&#45;&gt;Node30</title>
<path fill="none" stroke="midnightblue" d="M789,-62.1306C789,-53.4049 789,-43.3908 789,-35.1099"/>
<polygon fill="midnightblue" stroke="midnightblue" points="785.5,-62.2665 789,-72.2666 792.5,-62.2666 785.5,-62.2665"/>
</g>
<!-- Node31 -->
<g id="node15" class="node"><title>Node31</title>
<a xlink:href="_test_slow_control_manager_8cc.html" target="_top" xlink:title="test/analysis/TestSlowControl\lManager.cc">
<polygon fill="white" stroke="black" points="872,-1 872,-35 1020,-35 1020,-1 872,-1"/>
<text text-anchor="start" x="880" y="-22" font-family="Helvetica,sans-Serif" font-size="10.00">test/analysis/TestSlowControl</text>
<text text-anchor="middle" x="946" y="-9" font-family="Helvetica,sans-Serif" font-size="10.00">Manager.cc</text>
</a>
</g>
<!-- Node24&#45;&gt;Node31 -->
<g id="edge14" class="edge"><title>Node24&#45;&gt;Node31</title>
<path fill="none" stroke="midnightblue" d="M823.969,-68.5225C847.874,-58.6253 879.656,-45.4672 904.793,-35.0604"/>
<polygon fill="midnightblue" stroke="midnightblue" points="822.475,-65.3528 814.574,-72.412 825.153,-71.8205 822.475,-65.3528"/>
</g>
<!-- Node32 -->
<g id="node17" class="node"><title>Node32</title>
<a xlink:href="_test_trigger_patterns_8cc.html" target="_top" xlink:title="test/expconfig/TestTrigger\lPatterns.cc">
<polygon fill="white" stroke="black" points="1037.5,-1 1037.5,-35 1168.5,-35 1168.5,-1 1037.5,-1"/>
<text text-anchor="start" x="1045.5" y="-22" font-family="Helvetica,sans-Serif" font-size="10.00">test/expconfig/TestTrigger</text>
<text text-anchor="middle" x="1103" y="-9" font-family="Helvetica,sans-Serif" font-size="10.00">Patterns.cc</text>
</a>
</g>
<!-- Node24&#45;&gt;Node32 -->
<g id="edge16" class="edge"><title>Node24&#45;&gt;Node32</title>
<path fill="none" stroke="midnightblue" d="M856.854,-70.5592C905.011,-61.5231 971.117,-48.7007 1029,-36 1031.71,-35.4049 1034.48,-34.7863 1037.27,-34.1521"/>
<polygon fill="midnightblue" stroke="midnightblue" points="856.045,-67.1496 846.859,-72.4285 857.332,-74.0303 856.045,-67.1496"/>
</g>
<!-- Node33 -->
<g id="node19" class="node"><title>Node33</title>
<a xlink:href="_test_candidate_builder_8cc.html" target="_top" xlink:title="test/reconstruct/TestCandidate\lBuilder.cc">
<polygon fill="white" stroke="black" points="1186,-1 1186,-35 1338,-35 1338,-1 1186,-1"/>
<text text-anchor="start" x="1194" y="-22" font-family="Helvetica,sans-Serif" font-size="10.00">test/reconstruct/TestCandidate</text>
<text text-anchor="middle" x="1262" y="-9" font-family="Helvetica,sans-Serif" font-size="10.00">Builder.cc</text>
</a>
</g>
<!-- Node24&#45;&gt;Node33 -->
<g id="edge18" class="edge"><title>Node24&#45;&gt;Node33</title>
<path fill="none" stroke="midnightblue" d="M872.565,-75.0277C951.348,-67.0038 1072.58,-53.3456 1177,-36 1179.83,-35.5303 1182.7,-35.0313 1185.6,-34.5097"/>
<polygon fill="midnightblue" stroke="midnightblue" points="871.813,-71.5859 862.216,-76.0743 872.517,-78.5504 871.813,-71.5859"/>
</g>
<!-- Node34 -->
<g id="node21" class="node"><title>Node34</title>
<a xlink:href="_test_clustering_8cc.html" target="_top" xlink:title="test/reconstruct/TestClustering.cc">
<polygon fill="white" stroke="black" points="1355.5,-7.5 1355.5,-28.5 1520.5,-28.5 1520.5,-7.5 1355.5,-7.5"/>
<text text-anchor="middle" x="1438" y="-15.5" font-family="Helvetica,sans-Serif" font-size="10.00">test/reconstruct/TestClustering.cc</text>
</a>
</g>
<!-- Node24&#45;&gt;Node34 -->
<g id="edge20" class="edge"><title>Node24&#45;&gt;Node34</title>
<path fill="none" stroke="midnightblue" d="M872.722,-78.8591C982.154,-72.7812 1179.59,-59.5326 1347,-36 1361.03,-34.0272 1376.17,-31.2837 1390,-28.5326"/>
<polygon fill="midnightblue" stroke="midnightblue" points="872.204,-75.3821 862.411,-79.425 872.588,-82.3716 872.204,-75.3821"/>
</g>
<!-- Node35 -->
<g id="node23" class="node"><title>Node35</title>
<a xlink:href="_test_reconstruct_8cc.html" target="_top" xlink:title="test/reconstruct/TestReconstruct.cc">
<polygon fill="white" stroke="black" points="1538,-7.5 1538,-28.5 1712,-28.5 1712,-7.5 1538,-7.5"/>
<text text-anchor="middle" x="1625" y="-15.5" font-family="Helvetica,sans-Serif" font-size="10.00">test/reconstruct/TestReconstruct.cc</text>
</a>
</g>
<!-- Node24&#45;&gt;Node35 -->
<g id="edge22" class="edge"><title>Node24&#45;&gt;Node35</title>
<path fill="none" stroke="midnightblue" d="M872.039,-81.0252C1009.26,-77.0235 1291.76,-65.6632 1529,-36 1544.14,-34.1066 1560.5,-31.3197 1575.36,-28.5017"/>
<polygon fill="midnightblue" stroke="midnightblue" points="871.909,-77.5274 862.013,-81.312 872.109,-84.5246 871.909,-77.5274"/>
</g>
</g>
</svg>
