<?xml version="1.0" encoding="UTF-8" standalone="no"?>
<!DOCTYPE svg PUBLIC "-//W3C//DTD SVG 1.1//EN"
 "http://www.w3.org/Graphics/SVG/1.1/DTD/svg11.dtd">
<!-- Generated by graphviz version 2.26.3 (20100126.1600)
 -->
<!-- Title: src/base/SavitzkyGolay.h Pages: 1 -->
<svg width="492pt" height="146pt"
 viewBox="0.00 0.00 492.00 146.00" xmlns="http://www.w3.org/2000/svg" xmlns:xlink="http://www.w3.org/1999/xlink">
<g id="graph1" class="graph" transform="scale(1 1) rotate(0) translate(4 142)">
<title>src/base/SavitzkyGolay.h</title>
<polygon fill="white" stroke="white" points="-4,5 -4,-142 489,-142 489,5 -4,5"/>
<!-- Node0 -->
<g id="node1" class="node"><title>Node0</title>
<polygon fill="#bfbfbf" stroke="black" points="288.5,-116.5 288.5,-137.5 417.5,-137.5 417.5,-116.5 288.5,-116.5"/>
<text text-anchor="middle" x="353" y="-124.5" font-family="Helvetica,sans-Serif" font-size="10.00">src/base/SavitzkyGolay.h</text>
</g>
<!-- Node1 -->
<g id="node3" class="node"><title>Node1</title>
<a xlink:href="interval_8h.html" target="_top" xlink:title="base/interval.h">
<polygon fill="white" stroke="black" points="196,-58.5 196,-79.5 276,-79.5 276,-58.5 196,-58.5"/>
<text text-anchor="middle" x="236" y="-66.5" font-family="Helvetica,sans-Serif" font-size="10.00">base/interval.h</text>
</a>
</g>
<!-- Node0&#45;&gt;Node1 -->
<g id="edge2" class="edge"><title>Node0&#45;&gt;Node1</title>
<path fill="none" stroke="midnightblue" d="M331.812,-116.497C313.538,-107.438 286.928,-94.2462 266.385,-84.0628"/>
<polygon fill="midnightblue" stroke="midnightblue" points="267.94,-80.9269 257.426,-79.6212 264.831,-87.1986 267.94,-80.9269"/>
</g>
<!-- Node9 -->
<g id="node19" class="node"><title>Node9</title>
<polygon fill="white" stroke="#bfbfbf" points="294,-58.5 294,-79.5 346,-79.5 346,-58.5 294,-58.5"/>
<text text-anchor="middle" x="320" y="-66.5" font-family="Helvetica,sans-Serif" font-size="10.00">memory</text>
</g>
<!-- Node0&#45;&gt;Node9 -->
<g id="edge18" class="edge"><title>Node0&#45;&gt;Node9</title>
<path fill="none" stroke="midnightblue" d="M346.947,-116.362C342.528,-108.595 336.41,-97.8426 331.121,-88.5458"/>
<polygon fill="midnightblue" stroke="midnightblue" points="334.002,-86.5315 326.014,-79.5707 327.918,-89.9932 334.002,-86.5315"/>
</g>
<!-- Node10 -->
<g id="node21" class="node"><title>Node10</title>
<polygon fill="white" stroke="#bfbfbf" points="364,-58.5 364,-79.5 408,-79.5 408,-58.5 364,-58.5"/>
<text text-anchor="middle" x="386" y="-66.5" font-family="Helvetica,sans-Serif" font-size="10.00">vector</text>
</g>
<!-- Node0&#45;&gt;Node10 -->
<g id="edge20" class="edge"><title>Node0&#45;&gt;Node10</title>
<path fill="none" stroke="midnightblue" d="M359.053,-116.362C363.472,-108.595 369.59,-97.8426 374.879,-88.5458"/>
<polygon fill="midnightblue" stroke="midnightblue" points="378.082,-89.9932 379.986,-79.5707 371.998,-86.5315 378.082,-89.9932"/>
</g>
<!-- Node11 -->
<g id="node23" class="node"><title>Node11</title>
<polygon fill="white" stroke="#bfbfbf" points="425.5,-58.5 425.5,-79.5 484.5,-79.5 484.5,-58.5 425.5,-58.5"/>
<text text-anchor="middle" x="455" y="-66.5" font-family="Helvetica,sans-Serif" font-size="10.00">functional</text>
</g>
<!-- Node0&#45;&gt;Node11 -->
<g id="edge22" class="edge"><title>Node0&#45;&gt;Node11</title>
<path fill="none" stroke="midnightblue" d="M371.708,-116.362C387.381,-107.45 409.964,-94.6087 427.663,-84.5447"/>
<polygon fill="midnightblue" stroke="midnightblue" points="429.447,-87.5562 436.41,-79.5707 425.987,-81.4712 429.447,-87.5562"/>
</g>
<!-- Node2 -->
<g id="node5" class="node"><title>Node2</title>
<a xlink:href="types_8h.html" target="_top" xlink:title="types.h">
<polygon fill="white" stroke="black" points="-0.5,-0.5 -0.5,-21.5 48.5,-21.5 48.5,-0.5 -0.5,-0.5"/>
<text text-anchor="middle" x="24" y="-8.5" font-family="Helvetica,sans-Serif" font-size="10.00">types.h</text>
</a>
</g>
<!-- Node1&#45;&gt;Node2 -->
<g id="edge4" class="edge"><title>Node1&#45;&gt;Node2</title>
<path fill="none" stroke="midnightblue" d="M195.981,-59.2835C161.701,-50.7842 110.822,-37.7535 58.5786,-22.3631"/>
<polygon fill="midnightblue" stroke="midnightblue" points="59.3941,-18.9543 48.8114,-19.4625 57.4012,-25.6646 59.3941,-18.9543"/>
</g>
<!-- Node3 -->
<g id="node7" class="node"><title>Node3</title>
<polygon fill="white" stroke="#bfbfbf" points="66,-0.5 66,-21.5 122,-21.5 122,-0.5 66,-0.5"/>
<text text-anchor="middle" x="94" y="-8.5" font-family="Helvetica,sans-Serif" font-size="10.00">algorithm</text>
</g>
<!-- Node1&#45;&gt;Node3 -->
<g id="edge6" class="edge"><title>Node1&#45;&gt;Node3</title>
<path fill="none" stroke="midnightblue" d="M210.285,-58.4966C187.707,-49.2746 154.642,-35.7695 129.537,-25.5153"/>
<polygon fill="midnightblue" stroke="midnightblue" points="130.585,-22.1624 120.004,-21.6212 127.938,-28.6427 130.585,-22.1624"/>
</g>
<!-- Node4 -->
<g id="node9" class="node"><title>Node4</title>
<polygon fill="white" stroke="#bfbfbf" points="139.5,-0.5 139.5,-21.5 198.5,-21.5 198.5,-0.5 139.5,-0.5"/>
<text text-anchor="middle" x="169" y="-8.5" font-family="Helvetica,sans-Serif" font-size="10.00">stdexcept</text>
</g>
<!-- Node1&#45;&gt;Node4 -->
<g id="edge8" class="edge"><title>Node1&#45;&gt;Node4</title>
<path fill="none" stroke="midnightblue" d="M223.711,-58.3619C213.983,-49.9408 200.202,-38.0105 188.905,-28.2308"/>
<polygon fill="midnightblue" stroke="midnightblue" points="191.062,-25.4695 181.211,-21.5707 186.481,-30.7619 191.062,-25.4695"/>
</g>
<!-- Node5 -->
<g id="node11" class="node"><title>Node5</title>
<polygon fill="white" stroke="#bfbfbf" points="216,-0.5 216,-21.5 256,-21.5 256,-0.5 216,-0.5"/>
<text text-anchor="middle" x="236" y="-8.5" font-family="Helvetica,sans-Serif" font-size="10.00">limits</text>
</g>
<!-- Node1&#45;&gt;Node5 -->
<g id="edge10" class="edge"><title>Node1&#45;&gt;Node5</title>
<path fill="none" stroke="midnightblue" d="M236,-58.3619C236,-50.9219 236,-40.7427 236,-31.7276"/>
<polygon fill="midnightblue" stroke="midnightblue" points="239.5,-31.5706 236,-21.5707 232.5,-31.5707 239.5,-31.5706"/>
</g>
<!-- Node6 -->
<g id="node13" class="node"><title>Node6</title>
<polygon fill="white" stroke="#bfbfbf" points="273.5,-0.5 273.5,-21.5 322.5,-21.5 322.5,-0.5 273.5,-0.5"/>
<text text-anchor="middle" x="298" y="-8.5" font-family="Helvetica,sans-Serif" font-size="10.00">istream</text>
</g>
<!-- Node1&#45;&gt;Node6 -->
<g id="edge12" class="edge"><title>Node1&#45;&gt;Node6</title>
<path fill="none" stroke="midnightblue" d="M247.372,-58.3619C256.286,-50.0226 268.879,-38.2418 279.276,-28.5162"/>
<polygon fill="midnightblue" stroke="midnightblue" points="281.789,-30.9582 286.7,-21.5707 277.007,-25.8463 281.789,-30.9582"/>
</g>
<!-- Node7 -->
<g id="node15" class="node"><title>Node7</title>
<polygon fill="white" stroke="#bfbfbf" points="340,-0.5 340,-21.5 392,-21.5 392,-0.5 340,-0.5"/>
<text text-anchor="middle" x="366" y="-8.5" font-family="Helvetica,sans-Serif" font-size="10.00">sstream</text>
</g>
<!-- Node1&#45;&gt;Node7 -->
<g id="edge14" class="edge"><title>Node1&#45;&gt;Node7</title>
<path fill="none" stroke="midnightblue" d="M259.542,-58.4966C280.029,-49.3562 309.947,-36.0082 332.854,-25.7883"/>
<polygon fill="midnightblue" stroke="midnightblue" points="334.488,-28.892 342.194,-21.6212 331.635,-22.4994 334.488,-28.892"/>
</g>
<!-- Node8 -->
<g id="node17" class="node"><title>Node8</title>
<polygon fill="white" stroke="#bfbfbf" points="410,-0.5 410,-21.5 454,-21.5 454,-0.5 410,-0.5"/>
<text text-anchor="middle" x="432" y="-8.5" font-family="Helvetica,sans-Serif" font-size="10.00">cmath</text>
</g>
<!-- Node1&#45;&gt;Node8 -->
<g id="edge16" class="edge"><title>Node1&#45;&gt;Node8</title>
<path fill="none" stroke="midnightblue" d="M275.55,-58.4925C307.01,-49.9647 352.336,-37.3035 400.12,-22.162"/>
<polygon fill="midnightblue" stroke="midnightblue" points="401.245,-25.4771 409.706,-19.1012 399.116,-18.8088 401.245,-25.4771"/>
</g>
</g>
</svg>
