<?xml version="1.0" encoding="UTF-8" standalone="no"?>
<!DOCTYPE svg PUBLIC "-//W3C//DTD SVG 1.1//EN"
 "http://www.w3.org/Graphics/SVG/1.1/DTD/svg11.dtd">
<!-- Generated by graphviz version 2.26.3 (20100126.1600)
 -->
<!-- Title: src/expconfig/setups/Setup.cc Pages: 1 -->
<svg width="3888pt" height="608pt"
 viewBox="0.00 0.00 3888.10 608.00" xmlns="http://www.w3.org/2000/svg" xmlns:xlink="http://www.w3.org/1999/xlink">
<g id="graph1" class="graph" transform="scale(1 1) rotate(0) translate(4 604)">
<title>src/expconfig/setups/Setup.cc</title>
<polygon fill="white" stroke="white" points="-4,5 -4,-604 3885.1,-604 3885.1,5 -4,5"/>
<!-- Node0 -->
<g id="node1" class="node"><title>Node0</title>
<polygon fill="#bfbfbf" stroke="black" points="2834.6,-565 2834.6,-599 2941.6,-599 2941.6,-565 2834.6,-565"/>
<text text-anchor="start" x="2842.6" y="-586" font-family="Helvetica,sans-Serif" font-size="10.00">src/expconfig/setups</text>
<text text-anchor="middle" x="2888.1" y="-573" font-family="Helvetica,sans-Serif" font-size="10.00">/Setup.cc</text>
</g>
<!-- Node1 -->
<g id="node3" class="node"><title>Node1</title>
<a xlink:href="_setup_8h.html" target="_top" xlink:title="Setup.h">
<polygon fill="white" stroke="black" points="2516.1,-506.5 2516.1,-527.5 2566.1,-527.5 2566.1,-506.5 2516.1,-506.5"/>
<text text-anchor="middle" x="2541.1" y="-514.5" font-family="Helvetica,sans-Serif" font-size="10.00">Setup.h</text>
</a>
</g>
<!-- Node0&#45;&gt;Node1 -->
<g id="edge2" class="edge"><title>Node0&#45;&gt;Node1</title>
<path fill="none" stroke="midnightblue" d="M2834.26,-571.915C2762.28,-558.432 2636.72,-534.912 2575.98,-523.535"/>
<polygon fill="midnightblue" stroke="midnightblue" points="2576.59,-520.087 2566.12,-521.686 2575.3,-526.967 2576.59,-520.087"/>
</g>
<!-- Node62 -->
<g id="node218" class="node"><title>Node62</title>
<polygon fill="white" stroke="#bfbfbf" points="2851.1,-506.5 2851.1,-527.5 2925.1,-527.5 2925.1,-506.5 2851.1,-506.5"/>
<text text-anchor="middle" x="2888.1" y="-514.5" font-family="Helvetica,sans-Serif" font-size="10.00">base/Paths.h</text>
</g>
<!-- Node0&#45;&gt;Node62 -->
<g id="edge310" class="edge"><title>Node0&#45;&gt;Node62</title>
<path fill="none" stroke="midnightblue" d="M2888.1,-564.922C2888.1,-556.67 2888.1,-546.692 2888.1,-537.982"/>
<polygon fill="midnightblue" stroke="midnightblue" points="2891.6,-537.852 2888.1,-527.852 2884.6,-537.852 2891.6,-537.852"/>
</g>
<!-- Node63 -->
<g id="node220" class="node"><title>Node63</title>
<a xlink:href="_logger_8h.html" target="_top" xlink:title="base/Logger.h">
<polygon fill="white" stroke="black" points="3478.1,-506.5 3478.1,-527.5 3556.1,-527.5 3556.1,-506.5 3478.1,-506.5"/>
<text text-anchor="middle" x="3517.1" y="-514.5" font-family="Helvetica,sans-Serif" font-size="10.00">base/Logger.h</text>
</a>
</g>
<!-- Node0&#45;&gt;Node63 -->
<g id="edge312" class="edge"><title>Node0&#45;&gt;Node63</title>
<path fill="none" stroke="midnightblue" d="M2941.73,-576.458C3061.98,-564.031 3351.72,-534.09 3467.79,-522.095"/>
<polygon fill="midnightblue" stroke="midnightblue" points="3468.23,-525.569 3477.82,-521.059 3467.51,-518.606 3468.23,-525.569"/>
</g>
<!-- Node2 -->
<g id="node5" class="node"><title>Node2</title>
<a xlink:href="_exp_config_8h.html" target="_top" xlink:title="expconfig/ExpConfig.h">
<polygon fill="white" stroke="black" points="970.099,-390.5 970.099,-411.5 1086.1,-411.5 1086.1,-390.5 970.099,-390.5"/>
<text text-anchor="middle" x="1028.1" y="-398.5" font-family="Helvetica,sans-Serif" font-size="10.00">expconfig/ExpConfig.h</text>
</a>
</g>
<!-- Node1&#45;&gt;Node2 -->
<g id="edge4" class="edge"><title>Node1&#45;&gt;Node2</title>
<path fill="none" stroke="midnightblue" d="M2515.9,-516.526C2345.57,-513.264 1365.5,-493.575 1235.1,-470 1172.08,-458.606 1102.02,-432.169 1061.7,-415.527"/>
<polygon fill="midnightblue" stroke="midnightblue" points="1062.93,-412.248 1052.35,-411.624 1060.23,-418.707 1062.93,-412.248"/>
</g>
<!-- Node15 -->
<g id="node33" class="node"><title>Node15</title>
<polygon fill="white" stroke="#bfbfbf" points="2892.6,-0.5 2892.6,-21.5 2933.6,-21.5 2933.6,-0.5 2892.6,-0.5"/>
<text text-anchor="middle" x="2913.1" y="-8.5" font-family="Helvetica,sans-Serif" font-size="10.00">string</text>
</g>
<!-- Node1&#45;&gt;Node15 -->
<g id="edge308" class="edge"><title>Node1&#45;&gt;Node15</title>
<path fill="none" stroke="midnightblue" d="M2566.36,-515.971C2741.18,-508.69 3764.1,-463.418 3764.1,-401 3764.1,-401 3764.1,-401 3764.1,-134 3764.1,-84.9578 3729.18,-77.2973 3684.1,-58 3534.17,6.17143 3111.96,-48.8551 2951.1,-22 2948.61,-21.5844 2946.05,-21.0614 2943.5,-20.4704"/>
<polygon fill="midnightblue" stroke="midnightblue" points="2944.36,-17.0797 2933.8,-17.9377 2942.59,-23.8523 2944.36,-17.0797"/>
</g>
<!-- Node23 -->
<g id="node56" class="node"><title>Node23</title>
<polygon fill="white" stroke="#bfbfbf" points="2817.6,-58.5 2817.6,-79.5 2876.6,-79.5 2876.6,-58.5 2817.6,-58.5"/>
<text text-anchor="middle" x="2847.1" y="-66.5" font-family="Helvetica,sans-Serif" font-size="10.00">functional</text>
</g>
<!-- Node1&#45;&gt;Node23 -->
<g id="edge306" class="edge"><title>Node1&#45;&gt;Node23</title>
<path fill="none" stroke="midnightblue" d="M2566.55,-515.332C2719.59,-505.134 3511.1,-450.026 3511.1,-401 3511.1,-401 3511.1,-401 3511.1,-278 3511.1,-161.874 3413.89,-159.207 3306.1,-116 3147.4,-52.3857 3092.87,-100.252 2923.1,-80 2911.22,-78.5832 2898.33,-76.8084 2886.6,-75.1005"/>
<polygon fill="midnightblue" stroke="midnightblue" points="2887.05,-71.6289 2876.65,-73.6276 2886.03,-78.5535 2887.05,-71.6289"/>
</g>
<!-- Node26 -->
<g id="node65" class="node"><title>Node26</title>
<a xlink:href="_calibration_8h.html" target="_top" xlink:title="calibration/Calibration.h">
<polygon fill="white" stroke="black" points="2182.6,-332.5 2182.6,-353.5 2301.6,-353.5 2301.6,-332.5 2182.6,-332.5"/>
<text text-anchor="middle" x="2242.1" y="-340.5" font-family="Helvetica,sans-Serif" font-size="10.00">calibration/Calibration.h</text>
</a>
</g>
<!-- Node1&#45;&gt;Node26 -->
<g id="edge290" class="edge"><title>Node1&#45;&gt;Node26</title>
<path fill="none" stroke="midnightblue" d="M2522.84,-506.377C2472.18,-476.891 2329.57,-393.905 2269.41,-358.896"/>
<polygon fill="midnightblue" stroke="midnightblue" points="2270.9,-355.709 2260.49,-353.705 2267.38,-361.759 2270.9,-355.709"/>
</g>
<!-- Node43 -->
<g id="node116" class="node"><title>Node43</title>
<a xlink:href="_t_i_d_8h.html" target="_top" xlink:title="tree/TID.h">
<polygon fill="white" stroke="black" points="3015.6,-195.5 3015.6,-216.5 3076.6,-216.5 3076.6,-195.5 3015.6,-195.5"/>
<text text-anchor="middle" x="3046.1" y="-203.5" font-family="Helvetica,sans-Serif" font-size="10.00">tree/TID.h</text>
</a>
</g>
<!-- Node1&#45;&gt;Node43 -->
<g id="edge288" class="edge"><title>Node1&#45;&gt;Node43</title>
<path fill="none" stroke="midnightblue" d="M2566.19,-507.413C2603.2,-491.442 2668.1,-455.647 2668.1,-401 2668.1,-401 2668.1,-401 2668.1,-343 2668.1,-294.456 2696.94,-284.063 2739.1,-260 2783.95,-234.4 2932.57,-216.956 3005.3,-209.737"/>
<polygon fill="midnightblue" stroke="midnightblue" points="3005.84,-213.2 3015.46,-208.746 3005.16,-206.233 3005.84,-213.2"/>
</g>
<!-- Node50 -->
<g id="node140" class="node"><title>Node50</title>
<a xlink:href="_options_list_8h.html" target="_top" xlink:title="base/OptionsList.h">
<polygon fill="white" stroke="black" points="2748.1,-267.5 2748.1,-288.5 2846.1,-288.5 2846.1,-267.5 2748.1,-267.5"/>
<text text-anchor="middle" x="2797.1" y="-275.5" font-family="Helvetica,sans-Serif" font-size="10.00">base/OptionsList.h</text>
</a>
</g>
<!-- Node1&#45;&gt;Node50 -->
<g id="edge304" class="edge"><title>Node1&#45;&gt;Node50</title>
<path fill="none" stroke="midnightblue" d="M2566.29,-514.832C2600.45,-510.834 2662.13,-499.775 2705.1,-470 2757.85,-433.446 2768.59,-414.101 2791.1,-354 2797.75,-336.247 2798.83,-314.568 2798.5,-298.914"/>
<polygon fill="midnightblue" stroke="midnightblue" points="2801.99,-298.564 2798.07,-288.722 2795,-298.862 2801.99,-298.564"/>
</g>
<!-- Node51 -->
<g id="node148" class="node"><title>Node51</title>
<a xlink:href="piecewise__interval_8h.html" target="_top" xlink:title="base/piecewise_interval.h">
<polygon fill="white" stroke="black" points="336.599,-267.5 336.599,-288.5 465.599,-288.5 465.599,-267.5 336.599,-267.5"/>
<text text-anchor="middle" x="401.099" y="-275.5" font-family="Helvetica,sans-Serif" font-size="10.00">base/piecewise_interval.h</text>
</a>
</g>
<!-- Node1&#45;&gt;Node51 -->
<g id="edge302" class="edge"><title>Node1&#45;&gt;Node51</title>
<path fill="none" stroke="midnightblue" d="M2515.84,-516.905C2304.79,-516.04 837.636,-508.657 646.099,-470 576.846,-456.023 553.96,-455.252 498.099,-412 457.066,-380.229 425.632,-326.548 410.689,-297.716"/>
<polygon fill="midnightblue" stroke="midnightblue" points="413.734,-295.98 406.103,-288.631 407.485,-299.135 413.734,-295.98"/>
</g>
<!-- Node55 -->
<g id="node166" class="node"><title>Node55</title>
<a xlink:href="_setup_registry_8h.html" target="_top" xlink:title="SetupRegistry.h">
<polygon fill="white" stroke="black" points="2695.6,-332.5 2695.6,-353.5 2782.6,-353.5 2782.6,-332.5 2695.6,-332.5"/>
<text text-anchor="middle" x="2739.1" y="-340.5" font-family="Helvetica,sans-Serif" font-size="10.00">SetupRegistry.h</text>
</a>
</g>
<!-- Node1&#45;&gt;Node55 -->
<g id="edge220" class="edge"><title>Node1&#45;&gt;Node55</title>
<path fill="none" stroke="midnightblue" d="M2566.32,-514.721C2597.15,-510.691 2649.28,-499.686 2682.1,-470 2713.9,-441.232 2729,-391.327 2735.27,-363.409"/>
<polygon fill="midnightblue" stroke="midnightblue" points="2738.71,-364.058 2737.32,-353.555 2731.86,-362.633 2738.71,-364.058"/>
</g>
<!-- Node56 -->
<g id="node173" class="node"><title>Node56</title>
<a xlink:href="_unpacker_acqu_8h.html" target="_top" xlink:title="unpacker/UnpackerAcqu.h">
<polygon fill="white" stroke="black" points="655.099,-448.5 655.099,-469.5 787.099,-469.5 787.099,-448.5 655.099,-448.5"/>
<text text-anchor="middle" x="721.099" y="-456.5" font-family="Helvetica,sans-Serif" font-size="10.00">unpacker/UnpackerAcqu.h</text>
</a>
</g>
<!-- Node1&#45;&gt;Node56 -->
<g id="edge232" class="edge"><title>Node1&#45;&gt;Node56</title>
<path fill="none" stroke="midnightblue" d="M2516.06,-516.202C2326.42,-510.159 1114.91,-471.55 797.263,-461.427"/>
<polygon fill="midnightblue" stroke="midnightblue" points="797.34,-457.928 787.233,-461.108 797.117,-464.924 797.34,-457.928"/>
</g>
<!-- Node58 -->
<g id="node187" class="node"><title>Node58</title>
<a xlink:href="_unpacker_a2_geant_8h.html" target="_top" xlink:title="unpacker/UnpackerA2Geant.h">
<polygon fill="white" stroke="black" points="1244.1,-448.5 1244.1,-469.5 1392.1,-469.5 1392.1,-448.5 1244.1,-448.5"/>
<text text-anchor="middle" x="1318.1" y="-456.5" font-family="Helvetica,sans-Serif" font-size="10.00">unpacker/UnpackerA2Geant.h</text>
</a>
</g>
<!-- Node1&#45;&gt;Node58 -->
<g id="edge256" class="edge"><title>Node1&#45;&gt;Node58</title>
<path fill="none" stroke="midnightblue" d="M2515.84,-515.802C2371.7,-508.966 1651.01,-474.788 1402.5,-463.002"/>
<polygon fill="midnightblue" stroke="midnightblue" points="1402.59,-459.503 1392.44,-462.525 1402.26,-466.495 1402.59,-459.503"/>
</g>
<!-- Node61 -->
<g id="node208" class="node"><title>Node61</title>
<a xlink:href="_data_manager_8h.html" target="_top" xlink:title="calibration/DataManager.h">
<polygon fill="white" stroke="black" points="2176.6,-390.5 2176.6,-411.5 2307.6,-411.5 2307.6,-390.5 2176.6,-390.5"/>
<text text-anchor="middle" x="2242.1" y="-398.5" font-family="Helvetica,sans-Serif" font-size="10.00">calibration/DataManager.h</text>
</a>
</g>
<!-- Node1&#45;&gt;Node61 -->
<g id="edge292" class="edge"><title>Node1&#45;&gt;Node61</title>
<path fill="none" stroke="midnightblue" d="M2515.86,-507.21C2462.94,-486.678 2340.17,-439.047 2278.63,-415.174"/>
<polygon fill="midnightblue" stroke="midnightblue" points="2279.89,-411.908 2269.3,-411.554 2277.36,-418.434 2279.89,-411.908"/>
</g>
<!-- Node3 -->
<g id="node7" class="node"><title>Node3</title>
<a xlink:href="_detector__t_8h.html" target="_top" xlink:title="base/Detector_t.h">
<polygon fill="white" stroke="black" points="539.599,-195.5 539.599,-216.5 634.599,-216.5 634.599,-195.5 539.599,-195.5"/>
<text text-anchor="middle" x="587.099" y="-203.5" font-family="Helvetica,sans-Serif" font-size="10.00">base/Detector_t.h</text>
</a>
</g>
<!-- Node2&#45;&gt;Node3 -->
<g id="edge6" class="edge"><title>Node2&#45;&gt;Node3</title>
<path fill="none" stroke="midnightblue" d="M969.999,-394.202C903.691,-385.827 799.804,-370.648 764.099,-354 695.448,-321.991 631.639,-256.515 602.979,-224.48"/>
<polygon fill="midnightblue" stroke="midnightblue" points="605.396,-221.93 596.159,-216.741 600.144,-226.558 605.396,-221.93"/>
</g>
<!-- Node17 -->
<g id="node38" class="node"><title>Node17</title>
<a xlink:href="_reconstruct__traits_8h.html" target="_top" xlink:title="reconstruct/Reconstruct\l_traits.h">
<polygon fill="white" stroke="black" points="1308.1,-261 1308.1,-295 1430.1,-295 1430.1,-261 1308.1,-261"/>
<text text-anchor="start" x="1316.1" y="-282" font-family="Helvetica,sans-Serif" font-size="10.00">reconstruct/Reconstruct</text>
<text text-anchor="middle" x="1369.1" y="-269" font-family="Helvetica,sans-Serif" font-size="10.00">_traits.h</text>
</a>
</g>
<!-- Node2&#45;&gt;Node17 -->
<g id="edge40" class="edge"><title>Node2&#45;&gt;Node17</title>
<path fill="none" stroke="midnightblue" d="M1057.47,-390.407C1114.05,-369.995 1239.07,-324.902 1312.4,-298.451"/>
<polygon fill="midnightblue" stroke="midnightblue" points="1313.73,-301.691 1321.95,-295.005 1311.36,-295.106 1313.73,-301.691"/>
</g>
<!-- Node20 -->
<g id="node45" class="node"><title>Node20</title>
<polygon fill="white" stroke="#bfbfbf" points="1569.1,-58.5 1569.1,-79.5 1621.1,-79.5 1621.1,-58.5 1569.1,-58.5"/>
<text text-anchor="middle" x="1595.1" y="-66.5" font-family="Helvetica,sans-Serif" font-size="10.00">memory</text>
</g>
<!-- Node2&#45;&gt;Node20 -->
<g id="edge214" class="edge"><title>Node2&#45;&gt;Node20</title>
<path fill="none" stroke="midnightblue" d="M969.859,-397.024C910.089,-391.591 822.965,-379.452 802.099,-354 733.684,-270.552 756.354,-169.441 850.099,-116 912.027,-80.6964 1417.8,-71.3595 1558.75,-69.4322"/>
<polygon fill="midnightblue" stroke="midnightblue" points="1559.06,-72.9285 1569.01,-69.2963 1558.97,-65.9292 1559.06,-72.9285"/>
</g>
<!-- Node21 -->
<g id="node47" class="node"><title>Node21</title>
<polygon fill="white" stroke="#bfbfbf" points="2028.6,-58.5 2028.6,-79.5 2057.6,-79.5 2057.6,-58.5 2028.6,-58.5"/>
<text text-anchor="middle" x="2043.1" y="-66.5" font-family="Helvetica,sans-Serif" font-size="10.00">list</text>
</g>
<!-- Node2&#45;&gt;Node21 -->
<g id="edge216" class="edge"><title>Node2&#45;&gt;Node21</title>
<path fill="none" stroke="midnightblue" d="M1013.82,-390.435C961.144,-350.285 785.126,-204.959 871.099,-116 911.815,-73.8697 1866.63,-83.7207 1925.1,-80 1957.36,-77.9471 1994.47,-74.2707 2018.32,-71.7368"/>
<polygon fill="midnightblue" stroke="midnightblue" points="2019.02,-75.182 2028.59,-70.6299 2018.27,-68.2224 2019.02,-75.182"/>
</g>
<!-- Node25 -->
<g id="node61" class="node"><title>Node25</title>
<polygon fill="white" stroke="#bfbfbf" points="1780.6,-195.5 1780.6,-216.5 1815.6,-216.5 1815.6,-195.5 1780.6,-195.5"/>
<text text-anchor="middle" x="1798.1" y="-203.5" font-family="Helvetica,sans-Serif" font-size="10.00">map</text>
</g>
<!-- Node2&#45;&gt;Node25 -->
<g id="edge218" class="edge"><title>Node2&#45;&gt;Node25</title>
<path fill="none" stroke="midnightblue" d="M1086.13,-394.441C1168.44,-383.349 1322.11,-355.954 1439.1,-296 1461.28,-284.633 1459.25,-269.966 1482.1,-260 1599.12,-208.952 1646.14,-264.871 1767.1,-224 1769.25,-223.272 1771.43,-222.384 1773.57,-221.398"/>
<polygon fill="midnightblue" stroke="midnightblue" points="1775.39,-224.395 1782.59,-216.628 1772.12,-218.206 1775.39,-224.395"/>
</g>
<!-- Node2&#45;&gt;Node26 -->
<g id="edge76" class="edge"><title>Node2&#45;&gt;Node26</title>
<path fill="none" stroke="midnightblue" d="M1086.24,-398.222C1287.49,-388.607 1953.99,-356.765 2172.24,-346.338"/>
<polygon fill="midnightblue" stroke="midnightblue" points="2172.47,-349.831 2182.29,-345.857 2172.13,-342.839 2172.47,-349.831"/>
</g>
<!-- Node2&#45;&gt;Node51 -->
<g id="edge192" class="edge"><title>Node2&#45;&gt;Node51</title>
<path fill="none" stroke="midnightblue" d="M969.978,-393.28C909.001,-384.871 810.478,-370.408 726.099,-354 628.238,-334.971 515.124,-307.193 451.459,-291.02"/>
<polygon fill="midnightblue" stroke="midnightblue" points="452.23,-287.605 441.675,-288.527 450.501,-294.388 452.23,-287.605"/>
</g>
<!-- Node4 -->
<g id="node9" class="node"><title>Node4</title>
<a xlink:href="bitflag_8h.html" target="_top" xlink:title="base/bitflag.h">
<polygon fill="white" stroke="black" points="445.599,-123.5 445.599,-144.5 520.599,-144.5 520.599,-123.5 445.599,-123.5"/>
<text text-anchor="middle" x="483.099" y="-131.5" font-family="Helvetica,sans-Serif" font-size="10.00">base/bitflag.h</text>
</a>
</g>
<!-- Node3&#45;&gt;Node4 -->
<g id="edge8" class="edge"><title>Node3&#45;&gt;Node4</title>
<path fill="none" stroke="midnightblue" d="M571.753,-195.376C554.625,-183.518 526.701,-164.186 506.77,-150.388"/>
<polygon fill="midnightblue" stroke="midnightblue" points="508.721,-147.482 498.507,-144.667 504.737,-153.237 508.721,-147.482"/>
</g>
<!-- Node6 -->
<g id="node13" class="node"><title>Node6</title>
<a xlink:href="vec3_8h.html" target="_top" xlink:title="base/vec/vec3.h">
<polygon fill="white" stroke="black" points="101.599,-123.5 101.599,-144.5 190.599,-144.5 190.599,-123.5 101.599,-123.5"/>
<text text-anchor="middle" x="146.099" y="-131.5" font-family="Helvetica,sans-Serif" font-size="10.00">base/vec/vec3.h</text>
</a>
</g>
<!-- Node3&#45;&gt;Node6 -->
<g id="edge12" class="edge"><title>Node3&#45;&gt;Node6</title>
<path fill="none" stroke="midnightblue" d="M539.356,-198.588C517.628,-195.264 491.577,-191.346 468.099,-188 348.684,-170.979 316.538,-179.525 199.099,-152 194.025,-150.811 188.751,-149.33 183.584,-147.732"/>
<polygon fill="midnightblue" stroke="midnightblue" points="184.452,-144.334 173.859,-144.56 182.281,-150.989 184.452,-144.334"/>
</g>
<!-- Node10 -->
<g id="node22" class="node"><title>Node10</title>
<a xlink:href="base_2std__ext_2math_8h.html" target="_top" xlink:title="base/std_ext/math.h">
<polygon fill="white" stroke="black" points="208.099,-123.5 208.099,-144.5 314.099,-144.5 314.099,-123.5 208.099,-123.5"/>
<text text-anchor="middle" x="261.099" y="-131.5" font-family="Helvetica,sans-Serif" font-size="10.00">base/std_ext/math.h</text>
</a>
</g>
<!-- Node3&#45;&gt;Node10 -->
<g id="edge22" class="edge"><title>Node3&#45;&gt;Node10</title>
<path fill="none" stroke="midnightblue" d="M539.346,-195.453C480.795,-182.522 381.625,-160.619 318.846,-146.754"/>
<polygon fill="midnightblue" stroke="midnightblue" points="319.233,-143.255 308.713,-144.516 317.723,-150.09 319.233,-143.255"/>
</g>
<!-- Node12 -->
<g id="node27" class="node"><title>Node12</title>
<polygon fill="white" stroke="#bfbfbf" points="640.099,-0.5 640.099,-21.5 684.099,-21.5 684.099,-0.5 640.099,-0.5"/>
<text text-anchor="middle" x="662.099" y="-8.5" font-family="Helvetica,sans-Serif" font-size="10.00">vector</text>
</g>
<!-- Node3&#45;&gt;Node12 -->
<g id="edge38" class="edge"><title>Node3&#45;&gt;Node12</title>
<path fill="none" stroke="midnightblue" d="M540.472,-195.418C501.146,-185.436 449.353,-169.436 437.099,-152 427.898,-138.91 430.503,-130.577 437.099,-116 470.501,-42.1783 576.156,-20.1559 629.951,-13.6644"/>
<polygon fill="midnightblue" stroke="midnightblue" points="630.424,-17.1336 639.982,-12.5625 629.66,-10.1755 630.424,-17.1336"/>
</g>
<!-- Node13 -->
<g id="node29" class="node"><title>Node13</title>
<polygon fill="white" stroke="#bfbfbf" points="1206.1,-123.5 1206.1,-144.5 1252.1,-144.5 1252.1,-123.5 1206.1,-123.5"/>
<text text-anchor="middle" x="1229.1" y="-131.5" font-family="Helvetica,sans-Serif" font-size="10.00">cstdint</text>
</g>
<!-- Node3&#45;&gt;Node13 -->
<g id="edge30" class="edge"><title>Node3&#45;&gt;Node13</title>
<path fill="none" stroke="midnightblue" d="M634.658,-201.05C723.032,-191.8 918.543,-171.101 1083.1,-152 1121.73,-147.515 1166.07,-141.996 1195.65,-138.26"/>
<polygon fill="midnightblue" stroke="midnightblue" points="1196.37,-141.698 1205.85,-136.97 1195.49,-134.754 1196.37,-141.698"/>
</g>
<!-- Node14 -->
<g id="node31" class="node"><title>Node14</title>
<polygon fill="white" stroke="#bfbfbf" points="1383.6,-123.5 1383.6,-144.5 1442.6,-144.5 1442.6,-123.5 1383.6,-123.5"/>
<text text-anchor="middle" x="1413.1" y="-131.5" font-family="Helvetica,sans-Serif" font-size="10.00">stdexcept</text>
</g>
<!-- Node3&#45;&gt;Node14 -->
<g id="edge32" class="edge"><title>Node3&#45;&gt;Node14</title>
<path fill="none" stroke="midnightblue" d="M634.961,-202.792C745.408,-195.251 1026.59,-175.271 1261.1,-152 1299.18,-148.221 1342.52,-142.997 1373.15,-139.15"/>
<polygon fill="midnightblue" stroke="midnightblue" points="1373.94,-142.578 1383.43,-137.851 1373.07,-135.633 1373.94,-142.578"/>
</g>
<!-- Node3&#45;&gt;Node15 -->
<g id="edge34" class="edge"><title>Node3&#45;&gt;Node15</title>
<path fill="none" stroke="midnightblue" d="M594.964,-195.418C610.135,-175.906 645.547,-134.563 686.099,-116 880.684,-26.9283 950.679,-73.7806 1164.1,-58 1517.32,-31.8825 2678.37,-14.3466 2882.36,-11.4304"/>
<polygon fill="midnightblue" stroke="midnightblue" points="2882.43,-14.9299 2892.38,-11.288 2882.33,-7.93058 2882.43,-14.9299"/>
</g>
<!-- Node16 -->
<g id="node35" class="node"><title>Node16</title>
<polygon fill="white" stroke="#bfbfbf" points="1012.1,-123.5 1012.1,-144.5 1074.1,-144.5 1074.1,-123.5 1012.1,-123.5"/>
<text text-anchor="middle" x="1043.1" y="-131.5" font-family="Helvetica,sans-Serif" font-size="10.00">type_traits</text>
</g>
<!-- Node3&#45;&gt;Node16 -->
<g id="edge36" class="edge"><title>Node3&#45;&gt;Node16</title>
<path fill="none" stroke="midnightblue" d="M634.796,-204.345C713.081,-200.628 873.114,-188.811 1003.1,-152 1006.5,-151.037 1009.98,-149.832 1013.4,-148.504"/>
<polygon fill="midnightblue" stroke="midnightblue" points="1014.93,-151.658 1022.77,-144.534 1012.2,-145.213 1014.93,-151.658"/>
</g>
<!-- Node5 -->
<g id="node11" class="node"><title>Node5</title>
<polygon fill="white" stroke="#bfbfbf" points="593.599,-58.5 593.599,-79.5 634.599,-79.5 634.599,-58.5 593.599,-58.5"/>
<text text-anchor="middle" x="614.099" y="-66.5" font-family="Helvetica,sans-Serif" font-size="10.00">bitset</text>
</g>
<!-- Node4&#45;&gt;Node5 -->
<g id="edge10" class="edge"><title>Node4&#45;&gt;Node5</title>
<path fill="none" stroke="midnightblue" d="M504.438,-123.412C526.071,-112.678 559.735,-95.9742 584.059,-83.905"/>
<polygon fill="midnightblue" stroke="midnightblue" points="585.8,-86.9486 593.202,-79.3685 582.688,-80.6781 585.8,-86.9486"/>
</g>
<!-- Node7 -->
<g id="node15" class="node"><title>Node7</title>
<a xlink:href="vec2_8h.html" target="_top" xlink:title="vec2.h">
<polygon fill="white" stroke="black" points="142.099,-58.5 142.099,-79.5 188.099,-79.5 188.099,-58.5 142.099,-58.5"/>
<text text-anchor="middle" x="165.099" y="-66.5" font-family="Helvetica,sans-Serif" font-size="10.00">vec2.h</text>
</a>
</g>
<!-- Node6&#45;&gt;Node7 -->
<g id="edge14" class="edge"><title>Node6&#45;&gt;Node7</title>
<path fill="none" stroke="midnightblue" d="M149.236,-123.267C151.92,-114.085 155.857,-100.615 159.138,-89.3917"/>
<polygon fill="midnightblue" stroke="midnightblue" points="162.573,-90.1141 162.02,-79.5337 155.854,-88.15 162.573,-90.1141"/>
</g>
<!-- Node8 -->
<g id="node17" class="node"><title>Node8</title>
<polygon fill="white" stroke="#bfbfbf" points="238.099,-0.5 238.099,-21.5 282.099,-21.5 282.099,-0.5 238.099,-0.5"/>
<text text-anchor="middle" x="260.099" y="-8.5" font-family="Helvetica,sans-Serif" font-size="10.00">cmath</text>
</g>
<!-- Node6&#45;&gt;Node8 -->
<g id="edge20" class="edge"><title>Node6&#45;&gt;Node8</title>
<path fill="none" stroke="midnightblue" d="M156.312,-123.292C166.647,-112.433 183.059,-95.1189 197.099,-80 212.969,-62.9094 230.886,-43.2508 243.543,-29.2999"/>
<polygon fill="midnightblue" stroke="midnightblue" points="246.211,-31.5681 250.333,-21.808 241.025,-26.8673 246.211,-31.5681"/>
</g>
<!-- Node9 -->
<g id="node19" class="node"><title>Node9</title>
<polygon fill="white" stroke="#bfbfbf" points="65.0986,-58.5 65.0986,-79.5 117.099,-79.5 117.099,-58.5 65.0986,-58.5"/>
<text text-anchor="middle" x="91.0986" y="-66.5" font-family="Helvetica,sans-Serif" font-size="10.00">ostream</text>
</g>
<!-- Node6&#45;&gt;Node9 -->
<g id="edge18" class="edge"><title>Node6&#45;&gt;Node9</title>
<path fill="none" stroke="midnightblue" d="M137.016,-123.267C128.767,-113.517 116.425,-98.9317 106.614,-87.3365"/>
<polygon fill="midnightblue" stroke="midnightblue" points="109.143,-84.9068 100.012,-79.5337 103.799,-89.4284 109.143,-84.9068"/>
</g>
<!-- Node7&#45;&gt;Node8 -->
<g id="edge16" class="edge"><title>Node7&#45;&gt;Node8</title>
<path fill="none" stroke="midnightblue" d="M182.523,-58.3619C196.986,-49.532 217.768,-36.844 234.183,-26.8224"/>
<polygon fill="midnightblue" stroke="midnightblue" points="236.073,-29.7688 242.785,-21.5707 232.426,-23.7943 236.073,-29.7688"/>
</g>
<!-- Node10&#45;&gt;Node8 -->
<g id="edge24" class="edge"><title>Node10&#45;&gt;Node8</title>
<path fill="none" stroke="midnightblue" d="M261.01,-123.085C260.843,-102.609 260.482,-58.133 260.268,-31.778"/>
<polygon fill="midnightblue" stroke="midnightblue" points="263.767,-31.6865 260.186,-21.7153 256.767,-31.7435 263.767,-31.6865"/>
</g>
<!-- Node11 -->
<g id="node25" class="node"><title>Node11</title>
<polygon fill="white" stroke="#bfbfbf" points="326.099,-58.5 326.099,-79.5 366.099,-79.5 366.099,-58.5 326.099,-58.5"/>
<text text-anchor="middle" x="346.099" y="-66.5" font-family="Helvetica,sans-Serif" font-size="10.00">limits</text>
</g>
<!-- Node10&#45;&gt;Node11 -->
<g id="edge26" class="edge"><title>Node10&#45;&gt;Node11</title>
<path fill="none" stroke="midnightblue" d="M275.135,-123.267C288.503,-113.044 308.824,-97.5043 324.3,-85.6699"/>
<polygon fill="midnightblue" stroke="midnightblue" points="326.506,-88.3885 332.324,-79.5337 322.254,-82.828 326.506,-88.3885"/>
</g>
<!-- Node10&#45;&gt;Node12 -->
<g id="edge28" class="edge"><title>Node10&#45;&gt;Node12</title>
<path fill="none" stroke="midnightblue" d="M265.615,-123.276C273.39,-106.273 291.024,-73.4739 317.099,-58 320.468,-56.0007 544.777,-26.3978 629.858,-15.2256"/>
<polygon fill="midnightblue" stroke="midnightblue" points="630.523,-18.6684 639.982,-13.8968 629.612,-11.7279 630.523,-18.6684"/>
</g>
<!-- Node17&#45;&gt;Node3 -->
<g id="edge42" class="edge"><title>Node17&#45;&gt;Node3</title>
<path fill="none" stroke="midnightblue" d="M1308.06,-272.38C1161.13,-258.852 789.262,-224.614 645.284,-211.357"/>
<polygon fill="midnightblue" stroke="midnightblue" points="645.189,-207.834 634.911,-210.402 644.548,-214.804 645.189,-207.834"/>
</g>
<!-- Node18 -->
<g id="node41" class="node"><title>Node18</title>
<a xlink:href="mapped__vectors_8h.html" target="_top" xlink:title="base/std_ext/mapped\l_vectors.h">
<polygon fill="white" stroke="black" points="1308.1,-189 1308.1,-223 1418.1,-223 1418.1,-189 1308.1,-189"/>
<text text-anchor="start" x="1316.1" y="-210" font-family="Helvetica,sans-Serif" font-size="10.00">base/std_ext/mapped</text>
<text text-anchor="middle" x="1363.1" y="-197" font-family="Helvetica,sans-Serif" font-size="10.00">_vectors.h</text>
</a>
</g>
<!-- Node17&#45;&gt;Node18 -->
<g id="edge44" class="edge"><title>Node17&#45;&gt;Node18</title>
<path fill="none" stroke="midnightblue" d="M1367.68,-260.937C1367,-252.807 1366.17,-242.876 1365.41,-233.705"/>
<polygon fill="midnightblue" stroke="midnightblue" points="1368.87,-233.115 1364.55,-223.441 1361.89,-233.697 1368.87,-233.115"/>
</g>
<!-- Node17&#45;&gt;Node20 -->
<g id="edge68" class="edge"><title>Node17&#45;&gt;Node20</title>
<path fill="none" stroke="midnightblue" d="M1390.44,-260.87C1402.1,-250.869 1416.32,-237.576 1427.1,-224 1461.52,-180.656 1447.98,-153.054 1489.1,-116 1509.07,-98.0019 1537.05,-85.9914 1559.25,-78.6194"/>
<polygon fill="midnightblue" stroke="midnightblue" points="1560.5,-81.8938 1568.99,-75.5538 1558.4,-75.2165 1560.5,-81.8938"/>
</g>
<!-- Node17&#45;&gt;Node21 -->
<g id="edge72" class="edge"><title>Node17&#45;&gt;Node21</title>
<path fill="none" stroke="midnightblue" d="M1430.48,-263.229C1435.09,-262.132 1439.67,-261.046 1444.1,-260 1512.93,-243.748 1530.4,-240.808 1599.1,-224 1661.5,-208.732 1676.14,-200.821 1739.1,-188 1843.93,-166.651 1884.5,-205.58 1977.1,-152 2002.73,-137.171 2022.2,-108.216 2033.14,-88.7363"/>
<polygon fill="midnightblue" stroke="midnightblue" points="2036.3,-90.2547 2037.94,-79.7883 2030.13,-86.9447 2036.3,-90.2547"/>
</g>
<!-- Node22 -->
<g id="node52" class="node"><title>Node22</title>
<a xlink:href="shared__ptr__container_8h.html" target="_top" xlink:title="base/std_ext/shared\l_ptr_container.h">
<polygon fill="white" stroke="black" points="1747.6,-117 1747.6,-151 1852.6,-151 1852.6,-117 1747.6,-117"/>
<text text-anchor="start" x="1755.6" y="-138" font-family="Helvetica,sans-Serif" font-size="10.00">base/std_ext/shared</text>
<text text-anchor="middle" x="1800.1" y="-125" font-family="Helvetica,sans-Serif" font-size="10.00">_ptr_container.h</text>
</a>
</g>
<!-- Node17&#45;&gt;Node22 -->
<g id="edge58" class="edge"><title>Node17&#45;&gt;Node22</title>
<path fill="none" stroke="midnightblue" d="M1420.23,-260.916C1500.1,-234.23 1654.14,-182.765 1739.48,-154.253"/>
<polygon fill="midnightblue" stroke="midnightblue" points="1740.66,-157.551 1749.03,-151.062 1738.44,-150.911 1740.66,-157.551"/>
</g>
<!-- Node17&#45;&gt;Node23 -->
<g id="edge74" class="edge"><title>Node17&#45;&gt;Node23</title>
<path fill="none" stroke="midnightblue" d="M1430.16,-261.064C1431.82,-260.694 1433.47,-260.339 1435.1,-260 1544.14,-237.305 1575.59,-253.092 1683.1,-224 1724.29,-212.855 1730.94,-199.268 1772.1,-188 1875.28,-159.749 1904.59,-169.713 2010.1,-152 2097.01,-137.408 2117.61,-126.642 2205.1,-116 2468.79,-83.924 2542.3,-124.652 2807.46,-79.9775"/>
<polygon fill="midnightblue" stroke="midnightblue" points="2808.11,-83.4169 2817.37,-78.2818 2806.93,-76.517 2808.11,-83.4169"/>
</g>
<!-- Node17&#45;&gt;Node25 -->
<g id="edge70" class="edge"><title>Node17&#45;&gt;Node25</title>
<path fill="none" stroke="midnightblue" d="M1430.36,-262.639C1435,-261.679 1439.61,-260.785 1444.1,-260 1586.38,-235.097 1629.92,-269.236 1767.1,-224 1769.26,-223.287 1771.44,-222.411 1773.58,-221.433"/>
<polygon fill="midnightblue" stroke="midnightblue" points="1775.39,-224.434 1782.61,-216.677 1772.13,-218.24 1775.39,-224.434"/>
</g>
<!-- Node18&#45;&gt;Node12 -->
<g id="edge52" class="edge"><title>Node18&#45;&gt;Node12</title>
<path fill="none" stroke="midnightblue" d="M1349.18,-188.975C1331.17,-168.18 1297.71,-133.604 1261.1,-116 1158.43,-66.6251 803.164,-25.8764 694.156,-14.2998"/>
<polygon fill="midnightblue" stroke="midnightblue" points="694.416,-10.8079 684.104,-13.2411 693.683,-17.7694 694.416,-10.8079"/>
</g>
<!-- Node18&#45;&gt;Node16 -->
<g id="edge56" class="edge"><title>Node18&#45;&gt;Node16</title>
<path fill="none" stroke="midnightblue" d="M1308.09,-193.623C1244.5,-179.315 1141.3,-156.095 1084.26,-143.262"/>
<polygon fill="midnightblue" stroke="midnightblue" points="1084.69,-139.772 1074.17,-140.991 1083.16,-146.601 1084.69,-139.772"/>
</g>
<!-- Node19 -->
<g id="node43" class="node"><title>Node19</title>
<a xlink:href="memory_8h.html" target="_top" xlink:title="base/std_ext/memory.h">
<polygon fill="white" stroke="black" points="1497.6,-123.5 1497.6,-144.5 1616.6,-144.5 1616.6,-123.5 1497.6,-123.5"/>
<text text-anchor="middle" x="1557.1" y="-131.5" font-family="Helvetica,sans-Serif" font-size="10.00">base/std_ext/memory.h</text>
</a>
</g>
<!-- Node18&#45;&gt;Node19 -->
<g id="edge46" class="edge"><title>Node18&#45;&gt;Node19</title>
<path fill="none" stroke="midnightblue" d="M1409.07,-188.937C1442.54,-176.517 1487.33,-159.892 1518.85,-148.195"/>
<polygon fill="midnightblue" stroke="midnightblue" points="1520.43,-151.343 1528.59,-144.582 1517.99,-144.78 1520.43,-151.343"/>
</g>
<!-- Node18&#45;&gt;Node20 -->
<g id="edge54" class="edge"><title>Node18&#45;&gt;Node20</title>
<path fill="none" stroke="midnightblue" d="M1360.05,-188.658C1357.57,-168.515 1357.01,-135.557 1375.1,-116 1399.51,-89.603 1502.62,-76.8637 1558.59,-71.7915"/>
<polygon fill="midnightblue" stroke="midnightblue" points="1559.13,-75.2577 1568.79,-70.9047 1558.53,-68.284 1559.13,-75.2577"/>
</g>
<!-- Node19&#45;&gt;Node20 -->
<g id="edge48" class="edge"><title>Node19&#45;&gt;Node20</title>
<path fill="none" stroke="midnightblue" d="M1563.37,-123.267C1568.91,-113.801 1577.11,-99.7773 1583.78,-88.3571"/>
<polygon fill="midnightblue" stroke="midnightblue" points="1586.91,-89.9331 1588.94,-79.5337 1580.87,-86.4002 1586.91,-89.9331"/>
</g>
<!-- Node19&#45;&gt;Node21 -->
<g id="edge50" class="edge"><title>Node19&#45;&gt;Node21</title>
<path fill="none" stroke="midnightblue" d="M1616.69,-126.03C1723.74,-111.713 1944.3,-82.2132 2018.29,-72.3183"/>
<polygon fill="midnightblue" stroke="midnightblue" points="2019.04,-75.749 2028.49,-70.9542 2018.11,-68.8108 2019.04,-75.749"/>
</g>
<!-- Node22&#45;&gt;Node12 -->
<g id="edge60" class="edge"><title>Node22&#45;&gt;Node12</title>
<path fill="none" stroke="midnightblue" d="M1770.89,-116.882C1737.94,-98.552 1682.14,-70.4301 1630.1,-58 1537.51,-35.8857 852.192,-16.1416 694.423,-11.8581"/>
<polygon fill="midnightblue" stroke="midnightblue" points="694.488,-8.35863 684.397,-11.5874 694.299,-15.3561 694.488,-8.35863"/>
</g>
<!-- Node22&#45;&gt;Node20 -->
<g id="edge62" class="edge"><title>Node22&#45;&gt;Node20</title>
<path fill="none" stroke="midnightblue" d="M1747.57,-117.345C1711.07,-105.771 1663.37,-90.6478 1631.12,-80.4213"/>
<polygon fill="midnightblue" stroke="midnightblue" points="1631.81,-76.9699 1621.22,-77.2837 1629.7,-83.6425 1631.81,-76.9699"/>
</g>
<!-- Node22&#45;&gt;Node23 -->
<g id="edge64" class="edge"><title>Node22&#45;&gt;Node23</title>
<path fill="none" stroke="midnightblue" d="M1852.81,-117.572C1855.6,-116.977 1858.37,-116.446 1861.1,-116 2273.93,-48.3397 2391.01,-145.576 2807.49,-79.9255"/>
<polygon fill="midnightblue" stroke="midnightblue" points="2808.06,-83.3787 2817.38,-78.3443 2806.96,-76.4664 2808.06,-83.3787"/>
</g>
<!-- Node24 -->
<g id="node58" class="node"><title>Node24</title>
<polygon fill="white" stroke="#bfbfbf" points="1844.1,-0.5 1844.1,-21.5 1900.1,-21.5 1900.1,-0.5 1844.1,-0.5"/>
<text text-anchor="middle" x="1872.1" y="-8.5" font-family="Helvetica,sans-Serif" font-size="10.00">algorithm</text>
</g>
<!-- Node22&#45;&gt;Node24 -->
<g id="edge66" class="edge"><title>Node22&#45;&gt;Node24</title>
<path fill="none" stroke="midnightblue" d="M1810.11,-116.897C1823.35,-94.271 1846.65,-54.4769 1860.6,-30.6432"/>
<polygon fill="midnightblue" stroke="midnightblue" points="1863.75,-32.1858 1865.78,-21.7875 1857.71,-28.6495 1863.75,-32.1858"/>
</g>
<!-- Node26&#45;&gt;Node12 -->
<g id="edge190" class="edge"><title>Node26&#45;&gt;Node12</title>
<path fill="none" stroke="midnightblue" d="M2227.82,-332.307C2201.53,-311.268 2148.1,-261.671 2148.1,-206 2148.1,-206 2148.1,-206 2148.1,-134 2148.1,-84.3096 2112.05,-76.9125 2066.1,-58 2000.6,-31.041 897.493,-14.3026 694.174,-11.4393"/>
<polygon fill="midnightblue" stroke="midnightblue" points="694.184,-7.93915 684.136,-11.2989 694.086,-14.9385 694.184,-7.93915"/>
</g>
<!-- Node26&#45;&gt;Node17 -->
<g id="edge78" class="edge"><title>Node26&#45;&gt;Node17</title>
<path fill="none" stroke="midnightblue" d="M2182.44,-338.558C2026.71,-326.963 1608.4,-295.817 1440.39,-283.308"/>
<polygon fill="midnightblue" stroke="midnightblue" points="1440.4,-279.799 1430.17,-282.547 1439.88,-286.78 1440.4,-279.799"/>
</g>
<!-- Node27 -->
<g id="node68" class="node"><title>Node27</title>
<a xlink:href="_manager__traits_8h.html" target="_top" xlink:title="calibration/gui/Manager\l_traits.h">
<polygon fill="white" stroke="black" points="2310.6,-261 2310.6,-295 2427.6,-295 2427.6,-261 2310.6,-261"/>
<text text-anchor="start" x="2318.6" y="-282" font-family="Helvetica,sans-Serif" font-size="10.00">calibration/gui/Manager</text>
<text text-anchor="middle" x="2369.1" y="-269" font-family="Helvetica,sans-Serif" font-size="10.00">_traits.h</text>
</a>
</g>
<!-- Node26&#45;&gt;Node27 -->
<g id="edge80" class="edge"><title>Node26&#45;&gt;Node27</title>
<path fill="none" stroke="midnightblue" d="M2262.79,-332.412C2280.01,-323.598 2305.09,-310.761 2326.57,-299.768"/>
<polygon fill="midnightblue" stroke="midnightblue" points="2328.21,-302.859 2335.52,-295.187 2325.02,-296.627 2328.21,-302.859"/>
</g>
<!-- Node26&#45;&gt;Node50 -->
<g id="edge178" class="edge"><title>Node26&#45;&gt;Node50</title>
<path fill="none" stroke="midnightblue" d="M2301.76,-336.013C2408.62,-323.498 2631.44,-297.402 2737.94,-284.929"/>
<polygon fill="midnightblue" stroke="midnightblue" points="2738.35,-288.405 2747.87,-283.765 2737.53,-281.452 2738.35,-288.405"/>
</g>
<!-- Node27&#45;&gt;Node15 -->
<g id="edge170" class="edge"><title>Node27&#45;&gt;Node15</title>
<path fill="none" stroke="midnightblue" d="M2427.61,-274.822C2585.96,-266.094 3020.53,-241.257 3163.1,-224 3165.98,-223.651 3573.03,-154.034 3575.1,-152 3605.25,-122.418 3618.11,-88.697 3589.1,-58 3540.33,-6.39941 3021.09,-33.9471 2951.1,-22 2948.61,-21.5753 2946.05,-21.0458 2943.5,-20.4505"/>
<polygon fill="midnightblue" stroke="midnightblue" points="2944.37,-17.0602 2933.81,-17.9096 2942.59,-23.8314 2944.37,-17.0602"/>
</g>
<!-- Node27&#45;&gt;Node20 -->
<g id="edge174" class="edge"><title>Node27&#45;&gt;Node20</title>
<path fill="none" stroke="midnightblue" d="M2310.47,-267.952C2151.74,-240.625 1723.66,-166.062 1696.1,-152 1675.38,-141.428 1675.9,-130.981 1658.1,-116 1645.41,-105.323 1630.58,-94.1927 1618.49,-85.4453"/>
<polygon fill="midnightblue" stroke="midnightblue" points="1620.41,-82.5165 1610.24,-79.5375 1616.33,-88.2068 1620.41,-82.5165"/>
</g>
<!-- Node27&#45;&gt;Node21 -->
<g id="edge172" class="edge"><title>Node27&#45;&gt;Node21</title>
<path fill="none" stroke="midnightblue" d="M2344.37,-260.955C2300.51,-230.882 2206.01,-166.784 2124.1,-116 2121.31,-114.268 2089.72,-95.9684 2066.83,-82.7243"/>
<polygon fill="midnightblue" stroke="midnightblue" points="2068.37,-79.5727 2057.96,-77.5945 2064.87,-85.6317 2068.37,-79.5727"/>
</g>
<!-- Node27&#45;&gt;Node23 -->
<g id="edge176" class="edge"><title>Node27&#45;&gt;Node23</title>
<path fill="none" stroke="midnightblue" d="M2427.68,-274.751C2587.3,-265.733 3022.16,-240.007 3085.1,-224 3160.67,-204.778 3202.76,-217.483 3245.1,-152 3302.66,-62.9737 3218.56,-117.888 2923.1,-80 2911.23,-78.4786 2898.35,-76.6725 2886.62,-74.9682"/>
<polygon fill="midnightblue" stroke="midnightblue" points="2887.07,-71.4961 2876.66,-73.5063 2886.05,-78.4218 2887.07,-71.4961"/>
</g>
<!-- Node28 -->
<g id="node70" class="node"><title>Node28</title>
<a xlink:href="interval_8h.html" target="_top" xlink:title="base/interval.h">
<polygon fill="white" stroke="black" points="930.099,-195.5 930.099,-216.5 1010.1,-216.5 1010.1,-195.5 930.099,-195.5"/>
<text text-anchor="middle" x="970.099" y="-203.5" font-family="Helvetica,sans-Serif" font-size="10.00">base/interval.h</text>
</a>
</g>
<!-- Node27&#45;&gt;Node28 -->
<g id="edge82" class="edge"><title>Node27&#45;&gt;Node28</title>
<path fill="none" stroke="midnightblue" d="M2310.52,-275.131C2149.23,-267.212 1684.98,-244.293 1299.1,-224 1200.34,-218.807 1084.93,-212.419 1020.4,-208.818"/>
<polygon fill="midnightblue" stroke="midnightblue" points="1020.28,-205.307 1010.1,-208.244 1019.89,-212.296 1020.28,-205.307"/>
</g>
<!-- Node32 -->
<g id="node82" class="node"><title>Node32</title>
<a xlink:href="_wrap_t_file_8h.html" target="_top" xlink:title="base/WrapTFile.h">
<polygon fill="white" stroke="black" points="2449.1,-195.5 2449.1,-216.5 2543.1,-216.5 2543.1,-195.5 2449.1,-195.5"/>
<text text-anchor="middle" x="2496.1" y="-203.5" font-family="Helvetica,sans-Serif" font-size="10.00">base/WrapTFile.h</text>
</a>
</g>
<!-- Node27&#45;&gt;Node32 -->
<g id="edge98" class="edge"><title>Node27&#45;&gt;Node32</title>
<path fill="none" stroke="midnightblue" d="M2399.2,-260.937C2420.19,-249.037 2447.99,-233.277 2468.42,-221.689"/>
<polygon fill="midnightblue" stroke="midnightblue" points="2470.27,-224.665 2477.25,-216.688 2466.82,-218.575 2470.27,-224.665"/>
</g>
<!-- Node27&#45;&gt;Node43 -->
<g id="edge144" class="edge"><title>Node27&#45;&gt;Node43</title>
<path fill="none" stroke="midnightblue" d="M2427.7,-271.768C2562.11,-257.473 2889.86,-222.616 3005.16,-210.354"/>
<polygon fill="midnightblue" stroke="midnightblue" points="3005.75,-213.811 3015.32,-209.273 3005.01,-206.85 3005.75,-213.811"/>
</g>
<!-- Node28&#45;&gt;Node8 -->
<g id="edge96" class="edge"><title>Node28&#45;&gt;Node8</title>
<path fill="none" stroke="midnightblue" d="M948.766,-195.315C886.637,-164.364 706.246,-75.7188 643.099,-58 516.623,-22.5117 359.196,-13.814 292.434,-11.6866"/>
<polygon fill="midnightblue" stroke="midnightblue" points="292.245,-8.17978 282.148,-11.3889 292.042,-15.1769 292.245,-8.17978"/>
</g>
<!-- Node28&#45;&gt;Node11 -->
<g id="edge90" class="edge"><title>Node28&#45;&gt;Node11</title>
<path fill="none" stroke="midnightblue" d="M929.637,-197.117C813.173,-171.547 478.929,-98.1631 376.382,-75.6487"/>
<polygon fill="midnightblue" stroke="midnightblue" points="376.903,-72.1799 366.385,-73.4539 375.402,-79.017 376.903,-72.1799"/>
</g>
<!-- Node28&#45;&gt;Node14 -->
<g id="edge88" class="edge"><title>Node28&#45;&gt;Node14</title>
<path fill="none" stroke="midnightblue" d="M1010.19,-199.483C1094.53,-185.776 1289.42,-154.102 1373.4,-140.452"/>
<polygon fill="midnightblue" stroke="midnightblue" points="1374.01,-143.899 1383.32,-138.84 1372.89,-136.99 1374.01,-143.899"/>
</g>
<!-- Node28&#45;&gt;Node24 -->
<g id="edge86" class="edge"><title>Node28&#45;&gt;Node24</title>
<path fill="none" stroke="midnightblue" d="M1000.79,-195.336C1024.67,-186.132 1057.88,-171.279 1083.1,-152 1126.91,-118.508 1114.75,-82.6272 1164.1,-58 1224.12,-28.0433 1694.59,-15.0379 1833.57,-11.8253"/>
<polygon fill="midnightblue" stroke="midnightblue" points="1833.82,-15.3204 1843.74,-11.594 1833.66,-8.32226 1833.82,-15.3204"/>
</g>
<!-- Node29 -->
<g id="node72" class="node"><title>Node29</title>
<a xlink:href="types_8h.html" target="_top" xlink:title="types.h">
<polygon fill="white" stroke="black" points="945.599,-123.5 945.599,-144.5 994.599,-144.5 994.599,-123.5 945.599,-123.5"/>
<text text-anchor="middle" x="970.099" y="-131.5" font-family="Helvetica,sans-Serif" font-size="10.00">types.h</text>
</a>
</g>
<!-- Node28&#45;&gt;Node29 -->
<g id="edge84" class="edge"><title>Node28&#45;&gt;Node29</title>
<path fill="none" stroke="midnightblue" d="M970.099,-195.376C970.099,-184.741 970.099,-168.095 970.099,-154.82"/>
<polygon fill="midnightblue" stroke="midnightblue" points="973.599,-154.667 970.099,-144.667 966.599,-154.667 973.599,-154.667"/>
</g>
<!-- Node30 -->
<g id="node77" class="node"><title>Node30</title>
<polygon fill="white" stroke="#bfbfbf" points="879.599,-123.5 879.599,-144.5 928.599,-144.5 928.599,-123.5 879.599,-123.5"/>
<text text-anchor="middle" x="904.099" y="-131.5" font-family="Helvetica,sans-Serif" font-size="10.00">istream</text>
</g>
<!-- Node28&#45;&gt;Node30 -->
<g id="edge92" class="edge"><title>Node28&#45;&gt;Node30</title>
<path fill="none" stroke="midnightblue" d="M960.36,-195.376C949.929,-183.997 933.189,-165.735 920.676,-152.085"/>
<polygon fill="midnightblue" stroke="midnightblue" points="923.214,-149.674 913.877,-144.667 918.054,-154.404 923.214,-149.674"/>
</g>
<!-- Node31 -->
<g id="node79" class="node"><title>Node31</title>
<polygon fill="white" stroke="#bfbfbf" points="2960.1,-0.5 2960.1,-21.5 3012.1,-21.5 3012.1,-0.5 2960.1,-0.5"/>
<text text-anchor="middle" x="2986.1" y="-8.5" font-family="Helvetica,sans-Serif" font-size="10.00">sstream</text>
</g>
<!-- Node28&#45;&gt;Node31 -->
<g id="edge94" class="edge"><title>Node28&#45;&gt;Node31</title>
<path fill="none" stroke="midnightblue" d="M999.275,-195.408C1028.28,-184.78 1073.96,-167.768 1113.1,-152 1150.77,-136.822 1158.08,-127.29 1197.1,-116 1354.04,-70.5875 1397.41,-73.0491 1560.1,-58 2171.92,-1.40413 2333.3,-105.008 2942.1,-22 2944.62,-21.6556 2947.22,-21.2224 2949.81,-20.7283"/>
<polygon fill="midnightblue" stroke="midnightblue" points="2950.72,-24.1131 2959.76,-18.5804 2949.24,-17.271 2950.72,-24.1131"/>
</g>
<!-- Node32&#45;&gt;Node14 -->
<g id="edge140" class="edge"><title>Node32&#45;&gt;Node14</title>
<path fill="none" stroke="midnightblue" d="M2448.9,-204.591C2276.09,-199.259 1678.09,-179.224 1489.1,-152 1477.16,-150.28 1464.34,-147.583 1452.7,-144.795"/>
<polygon fill="midnightblue" stroke="midnightblue" points="1453.37,-141.355 1442.82,-142.343 1451.68,-148.149 1453.37,-141.355"/>
</g>
<!-- Node32&#45;&gt;Node15 -->
<g id="edge134" class="edge"><title>Node32&#45;&gt;Node15</title>
<path fill="none" stroke="midnightblue" d="M2543.37,-205.16C2632.1,-202.634 2819,-192.515 2867.1,-152 2903.06,-121.714 2911.12,-62.9086 2912.79,-31.6682"/>
<polygon fill="midnightblue" stroke="midnightblue" points="2916.29,-31.629 2913.16,-21.5096 2909.3,-31.3774 2916.29,-31.629"/>
</g>
<!-- Node32&#45;&gt;Node20 -->
<g id="edge132" class="edge"><title>Node32&#45;&gt;Node20</title>
<path fill="none" stroke="midnightblue" d="M2448.85,-204.321C2293.5,-198.566 1804.72,-178.524 1739.1,-152 1715.99,-142.66 1717.13,-129.372 1696.1,-116 1675.48,-102.892 1650.62,-91.2759 1630.72,-82.871"/>
<polygon fill="midnightblue" stroke="midnightblue" points="1631.97,-79.6002 1621.39,-79.0105 1629.29,-86.0683 1631.97,-79.6002"/>
</g>
<!-- Node32&#45;&gt;Node21 -->
<g id="edge136" class="edge"><title>Node32&#45;&gt;Node21</title>
<path fill="none" stroke="midnightblue" d="M2489.03,-195.367C2474.36,-173.65 2440.52,-125.445 2423.1,-116 2287.96,-42.7337 2229.75,-110.602 2079.1,-80 2075.29,-79.2259 2071.3,-78.2174 2067.43,-77.1254"/>
<polygon fill="midnightblue" stroke="midnightblue" points="2068.23,-73.7104 2057.65,-74.1428 2066.19,-80.4063 2068.23,-73.7104"/>
</g>
<!-- Node32&#45;&gt;Node23 -->
<g id="edge142" class="edge"><title>Node32&#45;&gt;Node23</title>
<path fill="none" stroke="midnightblue" d="M2543.41,-202.118C2634.61,-194.153 2827.55,-174.783 2847.1,-152 2861.69,-134.995 2858.55,-108.029 2853.85,-89.4745"/>
<polygon fill="midnightblue" stroke="midnightblue" points="2857.15,-88.2979 2851.01,-79.6607 2850.42,-90.2391 2857.15,-88.2979"/>
</g>
<!-- Node33 -->
<g id="node84" class="node"><title>Node33</title>
<a xlink:href="string_8h.html" target="_top" xlink:title="base/std_ext/string.h">
<polygon fill="white" stroke="black" points="2932.1,-58.5 2932.1,-79.5 3040.1,-79.5 3040.1,-58.5 2932.1,-58.5"/>
<text text-anchor="middle" x="2986.1" y="-66.5" font-family="Helvetica,sans-Serif" font-size="10.00">base/std_ext/string.h</text>
</a>
</g>
<!-- Node32&#45;&gt;Node33 -->
<g id="edge100" class="edge"><title>Node32&#45;&gt;Node33</title>
<path fill="none" stroke="midnightblue" d="M2543.24,-204.319C2639.41,-200.194 2854.54,-187.207 2918.1,-152 2944.45,-137.406 2964.64,-108.139 2975.94,-88.5541"/>
<polygon fill="midnightblue" stroke="midnightblue" points="2979.13,-90.0209 2980.89,-79.5743 2973,-86.6397 2979.13,-90.0209"/>
</g>
<!-- Node34 -->
<g id="node90" class="node"><title>Node34</title>
<a xlink:href="misc_8h.html" target="_top" xlink:title="base/std_ext/misc.h">
<polygon fill="white" stroke="black" points="2733.6,-123.5 2733.6,-144.5 2838.6,-144.5 2838.6,-123.5 2733.6,-123.5"/>
<text text-anchor="middle" x="2786.1" y="-131.5" font-family="Helvetica,sans-Serif" font-size="10.00">base/std_ext/misc.h</text>
</a>
</g>
<!-- Node32&#45;&gt;Node34 -->
<g id="edge110" class="edge"><title>Node32&#45;&gt;Node34</title>
<path fill="none" stroke="midnightblue" d="M2538.58,-195.453C2590.37,-182.594 2677.9,-160.862 2733.8,-146.986"/>
<polygon fill="midnightblue" stroke="midnightblue" points="2734.64,-150.381 2743.51,-144.575 2732.96,-143.588 2734.64,-150.381"/>
</g>
<!-- Node36 -->
<g id="node97" class="node"><title>Node36</title>
<polygon fill="white" stroke="#bfbfbf" points="2279.6,-123.5 2279.6,-144.5 2326.6,-144.5 2326.6,-123.5 2279.6,-123.5"/>
<text text-anchor="middle" x="2303.1" y="-131.5" font-family="Helvetica,sans-Serif" font-size="10.00">TFile.h</text>
</g>
<!-- Node32&#45;&gt;Node36 -->
<g id="edge120" class="edge"><title>Node32&#45;&gt;Node36</title>
<path fill="none" stroke="midnightblue" d="M2457.92,-195.415C2424.81,-185.714 2375.92,-170.131 2335.1,-152 2333.26,-151.185 2331.4,-150.298 2329.53,-149.369"/>
<polygon fill="midnightblue" stroke="midnightblue" points="2330.87,-146.117 2320.4,-144.514 2327.58,-152.298 2330.87,-146.117"/>
</g>
<!-- Node37 -->
<g id="node99" class="node"><title>Node37</title>
<polygon fill="white" stroke="#bfbfbf" points="2343.6,-123.5 2343.6,-144.5 2414.6,-144.5 2414.6,-123.5 2343.6,-123.5"/>
<text text-anchor="middle" x="2379.1" y="-131.5" font-family="Helvetica,sans-Serif" font-size="10.00">TDirectory.h</text>
</g>
<!-- Node32&#45;&gt;Node37 -->
<g id="edge122" class="edge"><title>Node32&#45;&gt;Node37</title>
<path fill="none" stroke="midnightblue" d="M2478.83,-195.376C2459.39,-183.412 2427.59,-163.839 2405.13,-150.018"/>
<polygon fill="midnightblue" stroke="midnightblue" points="2406.78,-146.928 2396.43,-144.667 2403.12,-152.889 2406.78,-146.928"/>
</g>
<!-- Node38 -->
<g id="node101" class="node"><title>Node38</title>
<polygon fill="white" stroke="#bfbfbf" points="2470.1,-123.5 2470.1,-144.5 2522.1,-144.5 2522.1,-123.5 2470.1,-123.5"/>
<text text-anchor="middle" x="2496.1" y="-131.5" font-family="Helvetica,sans-Serif" font-size="10.00">TError.h</text>
</g>
<!-- Node32&#45;&gt;Node38 -->
<g id="edge124" class="edge"><title>Node32&#45;&gt;Node38</title>
<path fill="none" stroke="midnightblue" d="M2496.1,-195.376C2496.1,-184.741 2496.1,-168.095 2496.1,-154.82"/>
<polygon fill="midnightblue" stroke="midnightblue" points="2499.6,-154.667 2496.1,-144.667 2492.6,-154.667 2499.6,-154.667"/>
</g>
<!-- Node39 -->
<g id="node103" class="node"><title>Node39</title>
<polygon fill="white" stroke="#bfbfbf" points="2539.6,-123.5 2539.6,-144.5 2586.6,-144.5 2586.6,-123.5 2539.6,-123.5"/>
<text text-anchor="middle" x="2563.1" y="-131.5" font-family="Helvetica,sans-Serif" font-size="10.00">TList.h</text>
</g>
<!-- Node32&#45;&gt;Node39 -->
<g id="edge126" class="edge"><title>Node32&#45;&gt;Node39</title>
<path fill="none" stroke="midnightblue" d="M2505.98,-195.376C2516.57,-183.997 2533.57,-165.735 2546.27,-152.085"/>
<polygon fill="midnightblue" stroke="midnightblue" points="2548.92,-154.372 2553.17,-144.667 2543.8,-149.604 2548.92,-154.372"/>
</g>
<!-- Node40 -->
<g id="node105" class="node"><title>Node40</title>
<polygon fill="white" stroke="#bfbfbf" points="2604.1,-123.5 2604.1,-144.5 2678.1,-144.5 2678.1,-123.5 2604.1,-123.5"/>
<text text-anchor="middle" x="2641.1" y="-131.5" font-family="Helvetica,sans-Serif" font-size="10.00">TCollection.h</text>
</g>
<!-- Node32&#45;&gt;Node40 -->
<g id="edge128" class="edge"><title>Node32&#45;&gt;Node40</title>
<path fill="none" stroke="midnightblue" d="M2517.49,-195.376C2542.02,-183.199 2582.41,-163.141 2610.31,-149.286"/>
<polygon fill="midnightblue" stroke="midnightblue" points="2612.22,-152.25 2619.62,-144.667 2609.1,-145.98 2612.22,-152.25"/>
</g>
<!-- Node41 -->
<g id="node107" class="node"><title>Node41</title>
<polygon fill="white" stroke="#bfbfbf" points="2214.1,-123.5 2214.1,-144.5 2262.1,-144.5 2262.1,-123.5 2214.1,-123.5"/>
<text text-anchor="middle" x="2238.1" y="-131.5" font-family="Helvetica,sans-Serif" font-size="10.00">TKey.h</text>
</g>
<!-- Node32&#45;&gt;Node41 -->
<g id="edge130" class="edge"><title>Node32&#45;&gt;Node41</title>
<path fill="none" stroke="midnightblue" d="M2448.91,-198.421C2402.61,-190.123 2330.52,-174.873 2271.1,-152 2268.97,-151.181 2266.81,-150.25 2264.66,-149.253"/>
<polygon fill="midnightblue" stroke="midnightblue" points="2266,-146.008 2255.5,-144.603 2262.83,-152.25 2266,-146.008"/>
</g>
<!-- Node42 -->
<g id="node112" class="node"><title>Node42</title>
<polygon fill="white" stroke="#bfbfbf" points="2970.1,-123.5 2970.1,-144.5 3000.1,-144.5 3000.1,-123.5 2970.1,-123.5"/>
<text text-anchor="middle" x="2985.1" y="-131.5" font-family="Helvetica,sans-Serif" font-size="10.00">set</text>
</g>
<!-- Node32&#45;&gt;Node42 -->
<g id="edge138" class="edge"><title>Node32&#45;&gt;Node42</title>
<path fill="none" stroke="midnightblue" d="M2543.12,-203.086C2644.5,-196.383 2880.57,-178.393 2956.1,-152 2957.99,-151.34 2959.88,-150.542 2961.75,-149.652"/>
<polygon fill="midnightblue" stroke="midnightblue" points="2963.65,-152.597 2970.68,-144.671 2960.24,-146.483 2963.65,-152.597"/>
</g>
<!-- Node33&#45;&gt;Node12 -->
<g id="edge108" class="edge"><title>Node33&#45;&gt;Node12</title>
<path fill="none" stroke="midnightblue" d="M2931.92,-62.2185C2916.79,-60.5644 2900.32,-58.9881 2885.1,-58 2431.74,-28.5758 932.725,-13.5262 694.211,-11.2929"/>
<polygon fill="midnightblue" stroke="midnightblue" points="694.148,-7.79226 684.116,-11.199 694.083,-14.792 694.148,-7.79226"/>
</g>
<!-- Node33&#45;&gt;Node15 -->
<g id="edge102" class="edge"><title>Node33&#45;&gt;Node15</title>
<path fill="none" stroke="midnightblue" d="M2972.71,-58.3619C2962.01,-49.859 2946.8,-37.7785 2934.43,-27.9466"/>
<polygon fill="midnightblue" stroke="midnightblue" points="2936.41,-25.0511 2926.4,-21.5707 2932.06,-30.5318 2936.41,-25.0511"/>
</g>
<!-- Node33&#45;&gt;Node24 -->
<g id="edge106" class="edge"><title>Node33&#45;&gt;Node24</title>
<path fill="none" stroke="midnightblue" d="M2931.91,-62.4709C2916.77,-60.8186 2900.31,-59.1801 2885.1,-58 2505.7,-28.5666 2044.82,-15.3304 1910.52,-11.9226"/>
<polygon fill="midnightblue" stroke="midnightblue" points="1910.42,-8.41904 1900.34,-11.6672 1910.25,-15.4168 1910.42,-8.41904"/>
</g>
<!-- Node33&#45;&gt;Node31 -->
<g id="edge104" class="edge"><title>Node33&#45;&gt;Node31</title>
<path fill="none" stroke="midnightblue" d="M2986.1,-58.3619C2986.1,-50.9219 2986.1,-40.7427 2986.1,-31.7276"/>
<polygon fill="midnightblue" stroke="midnightblue" points="2989.6,-31.5706 2986.1,-21.5707 2982.6,-31.5707 2989.6,-31.5706"/>
</g>
<!-- Node34&#45;&gt;Node8 -->
<g id="edge116" class="edge"><title>Node34&#45;&gt;Node8</title>
<path fill="none" stroke="midnightblue" d="M2752.11,-123.489C2741.9,-120.67 2730.62,-117.886 2720.1,-116 2684.19,-109.565 2102.52,-60.034 2066.1,-58 1375.43,-19.4258 1201.45,-45.2048 510.099,-22 431.786,-19.3715 339.73,-14.9867 292.167,-12.6251"/>
<polygon fill="midnightblue" stroke="midnightblue" points="292.327,-9.12875 282.165,-12.1256 291.978,-16.12 292.327,-9.12875"/>
</g>
<!-- Node34&#45;&gt;Node23 -->
<g id="edge114" class="edge"><title>Node34&#45;&gt;Node23</title>
<path fill="none" stroke="midnightblue" d="M2796.17,-123.267C2805.41,-113.423 2819.28,-98.6481 2830.21,-86.9996"/>
<polygon fill="midnightblue" stroke="midnightblue" points="2832.92,-89.2207 2837.21,-79.5337 2827.82,-84.4305 2832.92,-89.2207"/>
</g>
<!-- Node34&#45;&gt;Node24 -->
<g id="edge112" class="edge"><title>Node34&#45;&gt;Node24</title>
<path fill="none" stroke="midnightblue" d="M2751.04,-123.438C2741.11,-120.719 2730.24,-117.999 2720.1,-116 2410.7,-54.9793 2030.39,-22.8972 1910.3,-13.7705"/>
<polygon fill="midnightblue" stroke="midnightblue" points="1910.38,-10.2667 1900.15,-13.0067 1909.86,-17.247 1910.38,-10.2667"/>
</g>
<!-- Node35 -->
<g id="node95" class="node"><title>Node35</title>
<polygon fill="white" stroke="#bfbfbf" points="2747.6,-58.5 2747.6,-79.5 2800.6,-79.5 2800.6,-58.5 2747.6,-58.5"/>
<text text-anchor="middle" x="2774.1" y="-66.5" font-family="Helvetica,sans-Serif" font-size="10.00">cxxabi.h</text>
</g>
<!-- Node34&#45;&gt;Node35 -->
<g id="edge118" class="edge"><title>Node34&#45;&gt;Node35</title>
<path fill="none" stroke="midnightblue" d="M2784.12,-123.267C2782.42,-114.085 2779.94,-100.615 2777.86,-89.3917"/>
<polygon fill="midnightblue" stroke="midnightblue" points="2781.3,-88.7321 2776.04,-79.5337 2774.42,-90.003 2781.3,-88.7321"/>
</g>
<!-- Node43&#45;&gt;Node13 -->
<g id="edge160" class="edge"><title>Node43&#45;&gt;Node13</title>
<path fill="none" stroke="midnightblue" d="M3015.46,-204.821C2937.91,-201.851 2727.5,-193.878 2552.1,-188 2029.04,-170.471 1896.92,-192.062 1375.1,-152 1336.32,-149.023 1292.01,-143.217 1262.47,-139.002"/>
<polygon fill="midnightblue" stroke="midnightblue" points="1262.69,-135.498 1252.3,-137.53 1261.69,-142.426 1262.69,-135.498"/>
</g>
<!-- Node43&#45;&gt;Node14 -->
<g id="edge162" class="edge"><title>Node43&#45;&gt;Node14</title>
<path fill="none" stroke="midnightblue" d="M3015.46,-204.856C2937.9,-201.967 2727.49,-194.165 2552.1,-188 2079.68,-171.393 1957.63,-214.782 1489.1,-152 1477.14,-150.398 1464.32,-147.737 1452.68,-144.945"/>
<polygon fill="midnightblue" stroke="midnightblue" points="1453.35,-141.506 1442.8,-142.482 1451.66,-148.297 1453.35,-141.506"/>
</g>
<!-- Node43&#45;&gt;Node16 -->
<g id="edge156" class="edge"><title>Node43&#45;&gt;Node16</title>
<path fill="none" stroke="midnightblue" d="M3015.46,-204.779C2937.91,-201.71 2727.52,-193.526 2552.1,-188 1949.96,-169.032 1798,-195.013 1197.1,-152 1158.74,-149.255 1115.24,-143.968 1084.28,-139.832"/>
<polygon fill="midnightblue" stroke="midnightblue" points="1084.66,-136.352 1074.29,-138.478 1083.73,-143.289 1084.66,-136.352"/>
</g>
<!-- Node43&#45;&gt;Node21 -->
<g id="edge164" class="edge"><title>Node43&#45;&gt;Node21</title>
<path fill="none" stroke="midnightblue" d="M3056.91,-195.476C3074.48,-177.137 3105.16,-139.082 3083.1,-116 3046.89,-78.1188 2222.55,-70.2987 2067.96,-69.1635"/>
<polygon fill="midnightblue" stroke="midnightblue" points="2067.66,-65.6614 2057.64,-69.0905 2067.61,-72.6613 2067.66,-65.6614"/>
</g>
<!-- Node44 -->
<g id="node118" class="node"><title>Node44</title>
<polygon fill="white" stroke="#bfbfbf" points="3018.1,-123.5 3018.1,-144.5 3074.1,-144.5 3074.1,-123.5 3018.1,-123.5"/>
<text text-anchor="middle" x="3046.1" y="-131.5" font-family="Helvetica,sans-Serif" font-size="10.00">Rtypes.h</text>
</g>
<!-- Node43&#45;&gt;Node44 -->
<g id="edge146" class="edge"><title>Node43&#45;&gt;Node44</title>
<path fill="none" stroke="midnightblue" d="M3046.1,-195.376C3046.1,-184.741 3046.1,-168.095 3046.1,-154.82"/>
<polygon fill="midnightblue" stroke="midnightblue" points="3049.6,-154.667 3046.1,-144.667 3042.6,-154.667 3049.6,-154.667"/>
</g>
<!-- Node45 -->
<g id="node120" class="node"><title>Node45</title>
<a xlink:href="base_2std__ext_2_time_8h.html" target="_top" xlink:title="base/std_ext/time.h">
<polygon fill="white" stroke="black" points="3443.6,-123.5 3443.6,-144.5 3546.6,-144.5 3546.6,-123.5 3443.6,-123.5"/>
<text text-anchor="middle" x="3495.1" y="-131.5" font-family="Helvetica,sans-Serif" font-size="10.00">base/std_ext/time.h</text>
</a>
</g>
<!-- Node43&#45;&gt;Node45 -->
<g id="edge148" class="edge"><title>Node43&#45;&gt;Node45</title>
<path fill="none" stroke="midnightblue" d="M3076.61,-201.108C3149.71,-189.384 3336.06,-159.503 3433.55,-143.87"/>
<polygon fill="midnightblue" stroke="midnightblue" points="3434.23,-147.305 3443.55,-142.266 3433.12,-140.393 3434.23,-147.305"/>
</g>
<!-- Node47 -->
<g id="node125" class="node"><title>Node47</title>
<polygon fill="white" stroke="#bfbfbf" points="3539.6,-58.5 3539.6,-79.5 3580.6,-79.5 3580.6,-58.5 3539.6,-58.5"/>
<text text-anchor="middle" x="3560.1" y="-66.5" font-family="Helvetica,sans-Serif" font-size="10.00">ctime</text>
</g>
<!-- Node43&#45;&gt;Node47 -->
<g id="edge168" class="edge"><title>Node43&#45;&gt;Node47</title>
<path fill="none" stroke="midnightblue" d="M3076.78,-203.835C3184.3,-196.11 3538.45,-169.428 3555.1,-152 3570.69,-135.684 3569.1,-108.346 3565.51,-89.5308"/>
<polygon fill="midnightblue" stroke="midnightblue" points="3568.88,-88.5736 3563.27,-79.585 3562.05,-90.1092 3568.88,-88.5736"/>
</g>
<!-- Node48 -->
<g id="node128" class="node"><title>Node48</title>
<polygon fill="white" stroke="#bfbfbf" points="3130.1,-123.5 3130.1,-144.5 3168.1,-144.5 3168.1,-123.5 3130.1,-123.5"/>
<text text-anchor="middle" x="3149.1" y="-131.5" font-family="Helvetica,sans-Serif" font-size="10.00">tuple</text>
</g>
<!-- Node43&#45;&gt;Node48 -->
<g id="edge158" class="edge"><title>Node43&#45;&gt;Node48</title>
<path fill="none" stroke="midnightblue" d="M3061.3,-195.376C3078.18,-183.571 3105.67,-164.36 3125.39,-150.574"/>
<polygon fill="midnightblue" stroke="midnightblue" points="3127.65,-153.265 3133.84,-144.667 3123.64,-147.528 3127.65,-153.265"/>
</g>
<!-- Node49 -->
<g id="node133" class="node"><title>Node49</title>
<polygon fill="white" stroke="#bfbfbf" points="3186.1,-123.5 3186.1,-144.5 3236.1,-144.5 3236.1,-123.5 3186.1,-123.5"/>
<text text-anchor="middle" x="3211.1" y="-131.5" font-family="Helvetica,sans-Serif" font-size="10.00">iomanip</text>
</g>
<!-- Node43&#45;&gt;Node49 -->
<g id="edge166" class="edge"><title>Node43&#45;&gt;Node49</title>
<path fill="none" stroke="midnightblue" d="M3073.78,-195.482C3100.52,-185.111 3142.03,-168.466 3177.1,-152 3178.91,-151.148 3180.77,-150.249 3182.63,-149.325"/>
<polygon fill="midnightblue" stroke="midnightblue" points="3184.54,-152.28 3191.84,-144.605 3181.35,-146.051 3184.54,-152.28"/>
</g>
<!-- Node45&#45;&gt;Node33 -->
<g id="edge150" class="edge"><title>Node45&#45;&gt;Node33</title>
<path fill="none" stroke="midnightblue" d="M3461.28,-123.498C3451.31,-120.714 3440.34,-117.946 3430.1,-116 3296.37,-90.5849 3137.18,-77.9216 3050.39,-72.4746"/>
<polygon fill="midnightblue" stroke="midnightblue" points="3050.36,-68.9667 3040.17,-71.8458 3049.93,-75.9535 3050.36,-68.9667"/>
</g>
<!-- Node46 -->
<g id="node123" class="node"><title>Node46</title>
<polygon fill="white" stroke="#bfbfbf" points="3472.1,-58.5 3472.1,-79.5 3518.1,-79.5 3518.1,-58.5 3472.1,-58.5"/>
<text text-anchor="middle" x="3495.1" y="-66.5" font-family="Helvetica,sans-Serif" font-size="10.00">cstring</text>
</g>
<!-- Node45&#45;&gt;Node46 -->
<g id="edge152" class="edge"><title>Node45&#45;&gt;Node46</title>
<path fill="none" stroke="midnightblue" d="M3495.1,-123.267C3495.1,-114.18 3495.1,-100.892 3495.1,-89.7395"/>
<polygon fill="midnightblue" stroke="midnightblue" points="3498.6,-89.5337 3495.1,-79.5337 3491.6,-89.5337 3498.6,-89.5337"/>
</g>
<!-- Node45&#45;&gt;Node47 -->
<g id="edge154" class="edge"><title>Node45&#45;&gt;Node47</title>
<path fill="none" stroke="midnightblue" d="M3505.83,-123.267C3515.77,-113.328 3530.74,-98.3635 3542.43,-86.6645"/>
<polygon fill="midnightblue" stroke="midnightblue" points="3544.97,-89.0797 3549.56,-79.5337 3540.02,-84.1299 3544.97,-89.0797"/>
</g>
<!-- Node50&#45;&gt;Node15 -->
<g id="edge180" class="edge"><title>Node50&#45;&gt;Node15</title>
<path fill="none" stroke="midnightblue" d="M2846.44,-275.296C2966.96,-268.384 3273.71,-248.845 3373.1,-224 3413.3,-213.951 3419.57,-200.418 3459.1,-188 3531.54,-165.244 3578.4,-211.075 3626.1,-152 3652.34,-119.495 3654.84,-88.3178 3626.1,-58 3574.42,-3.49575 3025.15,-34.5236 2951.1,-22 2948.61,-21.5791 2946.05,-21.0524 2943.5,-20.4589"/>
<polygon fill="midnightblue" stroke="midnightblue" points="2944.37,-17.0684 2933.81,-17.9215 2942.59,-23.8402 2944.37,-17.0684"/>
</g>
<!-- Node50&#45;&gt;Node20 -->
<g id="edge182" class="edge"><title>Node50&#45;&gt;Node20</title>
<path fill="none" stroke="midnightblue" d="M2846.54,-276.26C2986.29,-269.786 3366.45,-240.543 3245.1,-116 3218.18,-88.3766 1895.64,-81.309 1857.1,-80 1776.39,-77.2592 1681.74,-73.0354 1631.21,-70.6996"/>
<polygon fill="midnightblue" stroke="midnightblue" points="1631.28,-67.1988 1621.12,-70.231 1630.95,-74.1912 1631.28,-67.1988"/>
</g>
<!-- Node50&#45;&gt;Node25 -->
<g id="edge184" class="edge"><title>Node50&#45;&gt;Node25</title>
<path fill="none" stroke="midnightblue" d="M2747.9,-274.454C2569.91,-261.626 1962.78,-217.869 1825.74,-207.992"/>
<polygon fill="midnightblue" stroke="midnightblue" points="1825.88,-204.493 1815.65,-207.265 1825.38,-211.475 1825.88,-204.493"/>
</g>
<!-- Node50&#45;&gt;Node31 -->
<g id="edge188" class="edge"><title>Node50&#45;&gt;Node31</title>
<path fill="none" stroke="midnightblue" d="M2846.43,-275.279C2975.08,-267.944 3318.52,-246.777 3430.1,-224 3530.49,-203.507 3589.02,-234.995 3649.1,-152 3656.53,-141.735 3655.86,-67.0872 3647.1,-58 3625.26,-35.3457 3157.79,-17.0798 3022.49,-12.2524"/>
<polygon fill="midnightblue" stroke="midnightblue" points="3022.36,-8.74571 3012.24,-11.8899 3022.11,-15.7413 3022.36,-8.74571"/>
</g>
<!-- Node50&#45;&gt;Node42 -->
<g id="edge186" class="edge"><title>Node50&#45;&gt;Node42</title>
<path fill="none" stroke="midnightblue" d="M2810.92,-267.411C2843.25,-242.654 2923.98,-180.816 2963.12,-150.831"/>
<polygon fill="midnightblue" stroke="midnightblue" points="2965.44,-153.464 2971.25,-144.604 2961.19,-147.906 2965.44,-153.464"/>
</g>
<!-- Node51&#45;&gt;Node12 -->
<g id="edge212" class="edge"><title>Node51&#45;&gt;Node12</title>
<path fill="none" stroke="midnightblue" d="M362.209,-267.443C285.38,-245.874 118.106,-195.143 78.0986,-152 48.9239,-120.539 26.8213,-89.366 56.0986,-58 95.7688,-15.4997 520.249,-27.7771 578.099,-22 595.222,-20.29 614.239,-17.8454 629.842,-15.6949"/>
<polygon fill="midnightblue" stroke="midnightblue" points="630.617,-19.1206 640.034,-14.2656 629.645,-12.1884 630.617,-19.1206"/>
</g>
<!-- Node51&#45;&gt;Node28 -->
<g id="edge194" class="edge"><title>Node51&#45;&gt;Node28</title>
<path fill="none" stroke="midnightblue" d="M465.816,-269.811C580.289,-255.326 816.143,-225.481 919.591,-212.391"/>
<polygon fill="midnightblue" stroke="midnightblue" points="920.289,-215.831 929.771,-211.103 919.411,-208.886 920.289,-215.831"/>
</g>
<!-- Node52 -->
<g id="node151" class="node"><title>Node52</title>
<a xlink:href="printable_8h.html" target="_top" xlink:title="base/std_ext/printable.h">
<polygon fill="white" stroke="black" points="338.599,-195.5 338.599,-216.5 459.599,-216.5 459.599,-195.5 338.599,-195.5"/>
<text text-anchor="middle" x="399.099" y="-203.5" font-family="Helvetica,sans-Serif" font-size="10.00">base/std_ext/printable.h</text>
</a>
</g>
<!-- Node51&#45;&gt;Node52 -->
<g id="edge196" class="edge"><title>Node51&#45;&gt;Node52</title>
<path fill="none" stroke="midnightblue" d="M400.804,-267.376C400.508,-256.741 400.046,-240.095 399.677,-226.82"/>
<polygon fill="midnightblue" stroke="midnightblue" points="403.171,-226.566 399.395,-216.667 396.174,-226.761 403.171,-226.566"/>
</g>
<!-- Node52&#45;&gt;Node9 -->
<g id="edge210" class="edge"><title>Node52&#45;&gt;Node9</title>
<path fill="none" stroke="midnightblue" d="M357.015,-195.421C346.013,-192.823 334.142,-190.169 323.099,-188 272.335,-178.031 127.204,-190.9 93.0986,-152 78.3241,-135.148 80.7587,-108.149 84.9483,-89.5451"/>
<polygon fill="midnightblue" stroke="midnightblue" points="88.3786,-90.2601 87.501,-79.7017 81.6027,-88.5029 88.3786,-90.2601"/>
</g>
<!-- Node52&#45;&gt;Node16 -->
<g id="edge208" class="edge"><title>Node52&#45;&gt;Node16</title>
<path fill="none" stroke="midnightblue" d="M459.794,-196.955C482.171,-193.823 507.754,-190.48 531.099,-188 740.309,-165.777 799.225,-203.946 1003.1,-152 1006.71,-151.081 1010.39,-149.857 1014,-148.478"/>
<polygon fill="midnightblue" stroke="midnightblue" points="1015.4,-151.687 1023.24,-144.567 1012.67,-145.24 1015.4,-151.687"/>
</g>
<!-- Node53 -->
<g id="node153" class="node"><title>Node53</title>
<a xlink:href="container_8h.html" target="_top" xlink:title="container.h">
<polygon fill="white" stroke="black" points="511.599,-58.5 511.599,-79.5 576.599,-79.5 576.599,-58.5 511.599,-58.5"/>
<text text-anchor="middle" x="544.099" y="-66.5" font-family="Helvetica,sans-Serif" font-size="10.00">container.h</text>
</a>
</g>
<!-- Node52&#45;&gt;Node53 -->
<g id="edge198" class="edge"><title>Node52&#45;&gt;Node53</title>
<path fill="none" stroke="midnightblue" d="M400.921,-195.424C404.607,-177.005 414.595,-138.829 437.099,-116 454.638,-98.2068 480.061,-86.6565 501.726,-79.4602"/>
<polygon fill="midnightblue" stroke="midnightblue" points="502.868,-82.7704 511.373,-76.4534 500.785,-76.0875 502.868,-82.7704"/>
</g>
<!-- Node53&#45;&gt;Node12 -->
<g id="edge200" class="edge"><title>Node53&#45;&gt;Node12</title>
<path fill="none" stroke="midnightblue" d="M565.468,-58.4966C583.898,-49.4378 610.736,-36.2462 631.454,-26.0628"/>
<polygon fill="midnightblue" stroke="midnightblue" points="633.059,-29.1735 640.49,-21.6212 629.971,-22.8914 633.059,-29.1735"/>
</g>
<!-- Node53&#45;&gt;Node15 -->
<g id="edge206" class="edge"><title>Node53&#45;&gt;Node15</title>
<path fill="none" stroke="midnightblue" d="M576.625,-59.5123C579.473,-58.9134 582.326,-58.394 585.099,-58 704.204,-41.0753 2615.18,-14.9813 2882.21,-11.4101"/>
<polygon fill="midnightblue" stroke="midnightblue" points="2882.4,-14.9079 2892.36,-11.2746 2882.31,-7.90852 2882.4,-14.9079"/>
</g>
<!-- Node53&#45;&gt;Node24 -->
<g id="edge202" class="edge"><title>Node53&#45;&gt;Node24</title>
<path fill="none" stroke="midnightblue" d="M576.632,-59.5615C579.479,-58.9519 582.329,-58.4166 585.099,-58 835.062,-20.3977 1647.48,-12.5538 1833.79,-11.2347"/>
<polygon fill="midnightblue" stroke="midnightblue" points="1833.94,-14.7338 1843.92,-11.1651 1833.89,-7.73398 1833.94,-14.7338"/>
</g>
<!-- Node54 -->
<g id="node157" class="node"><title>Node54</title>
<polygon fill="white" stroke="#bfbfbf" points="518.599,-0.5 518.599,-21.5 569.599,-21.5 569.599,-0.5 518.599,-0.5"/>
<text text-anchor="middle" x="544.099" y="-8.5" font-family="Helvetica,sans-Serif" font-size="10.00">numeric</text>
</g>
<!-- Node53&#45;&gt;Node54 -->
<g id="edge204" class="edge"><title>Node53&#45;&gt;Node54</title>
<path fill="none" stroke="midnightblue" d="M544.099,-58.3619C544.099,-50.9219 544.099,-40.7427 544.099,-31.7276"/>
<polygon fill="midnightblue" stroke="midnightblue" points="547.599,-31.5706 544.099,-21.5707 540.599,-31.5707 547.599,-31.5706"/>
</g>
<!-- Node55&#45;&gt;Node20 -->
<g id="edge228" class="edge"><title>Node55&#45;&gt;Node20</title>
<path fill="none" stroke="midnightblue" d="M2738.33,-332.484C2735.11,-291.649 2721.28,-144.457 2687.1,-116 2685.8,-114.919 1821.01,-78.4985 1631.51,-70.5302"/>
<polygon fill="midnightblue" stroke="midnightblue" points="1631.39,-67.022 1621.25,-70.0988 1631.09,-74.0159 1631.39,-67.022"/>
</g>
<!-- Node55&#45;&gt;Node21 -->
<g id="edge226" class="edge"><title>Node55&#45;&gt;Node21</title>
<path fill="none" stroke="midnightblue" d="M2782.64,-339.754C2934.32,-327.003 3422.29,-273.092 3271.1,-116 3249.45,-93.508 2240.43,-72.8476 2068.02,-69.4788"/>
<polygon fill="midnightblue" stroke="midnightblue" points="2067.96,-65.9771 2057.9,-69.2821 2067.83,-72.9758 2067.96,-65.9771"/>
</g>
<!-- Node55&#45;&gt;Node23 -->
<g id="edge230" class="edge"><title>Node55&#45;&gt;Node23</title>
<path fill="none" stroke="midnightblue" d="M2782.78,-341.165C2917.14,-335.31 3316.36,-316.271 3335.1,-296 3393.04,-233.312 3344.49,-154.1 3268.1,-116 3199.12,-81.5954 2999.59,-89.5227 2923.1,-80 2911.23,-78.5223 2898.34,-76.7293 2886.61,-75.0235"/>
<polygon fill="midnightblue" stroke="midnightblue" points="2887.06,-71.5516 2876.66,-73.557 2886.04,-78.4769 2887.06,-71.5516"/>
</g>
<!-- Node55&#45;&gt;Node25 -->
<g id="edge224" class="edge"><title>Node55&#45;&gt;Node25</title>
<path fill="none" stroke="midnightblue" d="M2695.15,-339.321C2566.66,-328.07 2180.94,-290.764 1867.1,-224 1853.38,-221.082 1838.29,-217.222 1825.73,-213.825"/>
<polygon fill="midnightblue" stroke="midnightblue" points="1826.43,-210.387 1815.86,-211.111 1824.58,-217.137 1826.43,-210.387"/>
</g>
<!-- Node55&#45;&gt;Node50 -->
<g id="edge222" class="edge"><title>Node55&#45;&gt;Node50</title>
<path fill="none" stroke="midnightblue" d="M2748.68,-332.267C2757.46,-322.423 2770.64,-307.648 2781.04,-296"/>
<polygon fill="midnightblue" stroke="midnightblue" points="2783.65,-298.325 2787.7,-288.534 2778.43,-293.665 2783.65,-298.325"/>
</g>
<!-- Node56&#45;&gt;Node2 -->
<g id="edge240" class="edge"><title>Node56&#45;&gt;Node2</title>
<path fill="none" stroke="midnightblue" d="M776.694,-448.497C828.91,-438.632 907.067,-423.866 962.353,-413.421"/>
<polygon fill="midnightblue" stroke="midnightblue" points="963.223,-416.819 972.399,-411.523 961.923,-409.94 963.223,-416.819"/>
</g>
<!-- Node56&#45;&gt;Node3 -->
<g id="edge242" class="edge"><title>Node56&#45;&gt;Node3</title>
<path fill="none" stroke="midnightblue" d="M692.896,-448.389C657.667,-433.414 598.998,-402.383 574.099,-354 552.865,-312.739 567.896,-256.378 578.708,-226.518"/>
<polygon fill="midnightblue" stroke="midnightblue" points="582.124,-227.384 582.425,-216.793 575.585,-224.885 582.124,-227.384"/>
</g>
<!-- Node56&#45;&gt;Node11 -->
<g id="edge254" class="edge"><title>Node56&#45;&gt;Node11</title>
<path fill="none" stroke="midnightblue" d="M654.7,-455.655C529.525,-447.523 271.099,-421.259 271.099,-343 271.099,-343 271.099,-343 271.099,-278 271.099,-217.418 303.418,-209.296 323.099,-152 330.311,-131.003 336.894,-106.442 341.152,-89.5142"/>
<polygon fill="midnightblue" stroke="midnightblue" points="344.599,-90.1541 343.597,-79.6067 337.803,-88.4767 344.599,-90.1541"/>
</g>
<!-- Node56&#45;&gt;Node12 -->
<g id="edge250" class="edge"><title>Node56&#45;&gt;Node12</title>
<path fill="none" stroke="midnightblue" d="M661.242,-448.477C460.927,-410.957 -162.226,-274.315 40.0986,-58 81.0238,-14.2448 518.478,-27.8925 578.099,-22 595.223,-20.3075 614.241,-17.8644 629.844,-15.7103"/>
<polygon fill="midnightblue" stroke="midnightblue" points="630.62,-19.1358 640.035,-14.278 629.645,-12.2039 630.62,-19.1358"/>
</g>
<!-- Node56&#45;&gt;Node13 -->
<g id="edge252" class="edge"><title>Node56&#45;&gt;Node13</title>
<path fill="none" stroke="midnightblue" d="M737.712,-448.371C812.106,-400.777 1114.87,-207.081 1204.18,-149.94"/>
<polygon fill="midnightblue" stroke="midnightblue" points="1206.07,-152.885 1212.61,-144.547 1202.3,-146.988 1206.07,-152.885"/>
</g>
<!-- Node56&#45;&gt;Node20 -->
<g id="edge244" class="edge"><title>Node56&#45;&gt;Node20</title>
<path fill="none" stroke="midnightblue" d="M654.97,-450.309C593.739,-438.111 512.099,-409.398 512.099,-343 512.099,-343 512.099,-343 512.099,-278 512.099,-237.118 502.96,-217.657 531.099,-188 616.579,-97.9053 678.489,-135.77 801.099,-116 950.092,-91.9764 1423.5,-74.7127 1558.72,-70.1792"/>
<polygon fill="midnightblue" stroke="midnightblue" points="1559.06,-73.6695 1568.94,-69.839 1558.83,-66.6734 1559.06,-73.6695"/>
</g>
<!-- Node56&#45;&gt;Node21 -->
<g id="edge246" class="edge"><title>Node56&#45;&gt;Node21</title>
<path fill="none" stroke="midnightblue" d="M721.11,-448.489C721.797,-400.32 731.689,-199.454 847.099,-116 895.656,-80.8878 1865.3,-83.7826 1925.1,-80 1957.36,-77.9594 1994.47,-74.2801 2018.32,-71.7423"/>
<polygon fill="midnightblue" stroke="midnightblue" points="2019.02,-75.1874 2028.59,-70.6335 2018.27,-68.2279 2019.02,-75.1874"/>
</g>
<!-- Node56&#45;&gt;Node25 -->
<g id="edge248" class="edge"><title>Node56&#45;&gt;Node25</title>
<path fill="none" stroke="midnightblue" d="M787.315,-452.963C862.337,-445.595 988.09,-431.643 1095.1,-412 1336.54,-367.679 1392.04,-333.992 1626.1,-260 1677.57,-243.729 1690.62,-240.26 1742.1,-224 1751.44,-221.05 1761.64,-217.784 1770.75,-214.853"/>
<polygon fill="midnightblue" stroke="midnightblue" points="1772.02,-218.121 1780.46,-211.72 1769.87,-211.459 1772.02,-218.121"/>
</g>
<!-- Node57 -->
<g id="node175" class="node"><title>Node57</title>
<a xlink:href="_unpacker_8h.html" target="_top" xlink:title="Unpacker.h">
<polygon fill="white" stroke="black" points="981.599,-332.5 981.599,-353.5 1048.6,-353.5 1048.6,-332.5 981.599,-332.5"/>
<text text-anchor="middle" x="1015.1" y="-340.5" font-family="Helvetica,sans-Serif" font-size="10.00">Unpacker.h</text>
</a>
</g>
<!-- Node56&#45;&gt;Node57 -->
<g id="edge234" class="edge"><title>Node56&#45;&gt;Node57</title>
<path fill="none" stroke="midnightblue" d="M747.969,-448.398C801.008,-427.471 919.191,-380.841 978.977,-357.252"/>
<polygon fill="midnightblue" stroke="midnightblue" points="980.38,-360.461 988.397,-353.535 977.811,-353.95 980.38,-360.461"/>
</g>
<!-- Node57&#45;&gt;Node15 -->
<g id="edge236" class="edge"><title>Node57&#45;&gt;Node15</title>
<path fill="none" stroke="midnightblue" d="M1020.01,-332.381C1037.76,-295.318 1102.56,-170.974 1197.1,-116 1348.47,-27.9773 2664.21,-13.1006 2882.48,-11.2322"/>
<polygon fill="midnightblue" stroke="midnightblue" points="2882.61,-14.7313 2892.58,-11.1484 2882.56,-7.73156 2882.61,-14.7313"/>
</g>
<!-- Node57&#45;&gt;Node20 -->
<g id="edge238" class="edge"><title>Node57&#45;&gt;Node20</title>
<path fill="none" stroke="midnightblue" d="M998.876,-332.32C948.631,-298.025 802.962,-188.703 871.099,-116 894.863,-90.6424 1415.88,-74.0718 1559,-69.9868"/>
<polygon fill="midnightblue" stroke="midnightblue" points="1559.13,-73.4847 1569.03,-69.7036 1558.93,-66.4875 1559.13,-73.4847"/>
</g>
<!-- Node58&#45;&gt;Node2 -->
<g id="edge260" class="edge"><title>Node58&#45;&gt;Node2</title>
<path fill="none" stroke="midnightblue" d="M1265.58,-448.497C1216.36,-438.652 1142.73,-423.927 1090.53,-413.486"/>
<polygon fill="midnightblue" stroke="midnightblue" points="1091.21,-410.052 1080.71,-411.523 1089.83,-416.916 1091.21,-410.052"/>
</g>
<!-- Node58&#45;&gt;Node3 -->
<g id="edge262" class="edge"><title>Node58&#45;&gt;Node3</title>
<path fill="none" stroke="midnightblue" d="M1244.08,-457.239C1088.86,-452.022 736.525,-431.705 650.099,-354 612.018,-319.762 596.167,-258.633 590.238,-226.707"/>
<polygon fill="midnightblue" stroke="midnightblue" points="593.667,-225.993 588.535,-216.724 586.767,-227.17 593.667,-225.993"/>
</g>
<!-- Node58&#45;&gt;Node12 -->
<g id="edge284" class="edge"><title>Node58&#45;&gt;Node12</title>
<path fill="none" stroke="midnightblue" d="M1243.91,-453.796C1113.45,-443.167 850.499,-414.659 784.099,-354 686.121,-264.494 666.793,-91.073 663.01,-31.6002"/>
<polygon fill="midnightblue" stroke="midnightblue" points="666.503,-31.3656 662.456,-21.5742 659.513,-31.7523 666.503,-31.3656"/>
</g>
<!-- Node58&#45;&gt;Node13 -->
<g id="edge286" class="edge"><title>Node58&#45;&gt;Node13</title>
<path fill="none" stroke="midnightblue" d="M1314.38,-448.413C1305.38,-422.579 1281.99,-354.167 1266.1,-296 1252.35,-245.685 1239.57,-185.638 1233.24,-154.7"/>
<polygon fill="midnightblue" stroke="midnightblue" points="1236.63,-153.797 1231.22,-144.692 1229.77,-155.187 1236.63,-153.797"/>
</g>
<!-- Node58&#45;&gt;Node20 -->
<g id="edge278" class="edge"><title>Node58&#45;&gt;Node20</title>
<path fill="none" stroke="midnightblue" d="M1316.22,-448.249C1308.7,-404.176 1281.93,-237.334 1299.1,-188 1312.51,-149.452 1321.25,-137.252 1356.1,-116 1389.66,-95.5302 1500.54,-80.0023 1558.73,-73.0354"/>
<polygon fill="midnightblue" stroke="midnightblue" points="1559.42,-76.4776 1568.95,-71.8349 1558.61,-69.5254 1559.42,-76.4776"/>
</g>
<!-- Node58&#45;&gt;Node21 -->
<g id="edge280" class="edge"><title>Node58&#45;&gt;Node21</title>
<path fill="none" stroke="midnightblue" d="M1392.29,-456.745C1538.81,-450.685 1857.6,-429.001 1932.1,-354 2008.62,-276.96 2033.72,-141.143 2040.72,-89.6113"/>
<polygon fill="midnightblue" stroke="midnightblue" points="2044.19,-90.0473 2041.98,-79.6857 2037.25,-89.1643 2044.19,-90.0473"/>
</g>
<!-- Node58&#45;&gt;Node25 -->
<g id="edge282" class="edge"><title>Node58&#45;&gt;Node25</title>
<path fill="none" stroke="midnightblue" d="M1338.11,-448.451C1414.22,-408.338 1685.63,-265.281 1771.71,-219.911"/>
<polygon fill="midnightblue" stroke="midnightblue" points="1773.37,-222.99 1780.59,-215.231 1770.11,-216.797 1773.37,-222.99"/>
</g>
<!-- Node58&#45;&gt;Node44 -->
<g id="edge276" class="edge"><title>Node58&#45;&gt;Node44</title>
<path fill="none" stroke="midnightblue" d="M1392.26,-456.99C1608.2,-450.93 2226.93,-432.018 2316.1,-412 2487.56,-373.509 2516.41,-321.302 2681.1,-260 2824.93,-206.46 2866.88,-209.701 3009.1,-152 3011.47,-151.037 3013.91,-149.99 3016.34,-148.902"/>
<polygon fill="midnightblue" stroke="midnightblue" points="3018,-151.992 3025.58,-144.591 3015.04,-145.649 3018,-151.992"/>
</g>
<!-- Node58&#45;&gt;Node57 -->
<g id="edge258" class="edge"><title>Node58&#45;&gt;Node57</title>
<path fill="none" stroke="midnightblue" d="M1290.41,-448.398C1235.74,-427.471 1113.94,-380.841 1052.33,-357.252"/>
<polygon fill="midnightblue" stroke="midnightblue" points="1053.21,-353.842 1042.62,-353.535 1050.7,-360.379 1053.21,-353.842"/>
</g>
<!-- Node59 -->
<g id="node192" class="node"><title>Node59</title>
<a xlink:href="_wrap_t_tree_8h.html" target="_top" xlink:title="base/WrapTTree.h">
<polygon fill="white" stroke="black" points="1870.1,-123.5 1870.1,-144.5 1968.1,-144.5 1968.1,-123.5 1870.1,-123.5"/>
<text text-anchor="middle" x="1919.1" y="-131.5" font-family="Helvetica,sans-Serif" font-size="10.00">base/WrapTTree.h</text>
</a>
</g>
<!-- Node58&#45;&gt;Node59 -->
<g id="edge264" class="edge"><title>Node58&#45;&gt;Node59</title>
<path fill="none" stroke="midnightblue" d="M1392.4,-452.346C1553.19,-436.944 1919.1,-396.067 1919.1,-343 1919.1,-343 1919.1,-343 1919.1,-278 1919.1,-234.274 1919.1,-183.08 1919.1,-155.033"/>
<polygon fill="midnightblue" stroke="midnightblue" points="1922.6,-154.838 1919.1,-144.839 1915.6,-154.839 1922.6,-154.838"/>
</g>
<!-- Node59&#45;&gt;Node12 -->
<g id="edge268" class="edge"><title>Node59&#45;&gt;Node12</title>
<path fill="none" stroke="midnightblue" d="M1893.04,-123.406C1849.15,-106.117 1757.28,-72.3303 1676.1,-58 1480.97,-23.5559 846.242,-13.3585 694.773,-11.3879"/>
<polygon fill="midnightblue" stroke="midnightblue" points="694.367,-7.88258 684.323,-11.2552 694.278,-14.882 694.367,-7.88258"/>
</g>
<!-- Node59&#45;&gt;Node15 -->
<g id="edge270" class="edge"><title>Node59&#45;&gt;Node15</title>
<path fill="none" stroke="midnightblue" d="M1928.75,-123.47C1945.42,-106.113 1981.53,-72.0262 2020.1,-58 2102.48,-28.0387 2734.54,-14.3617 2882.28,-11.5555"/>
<polygon fill="midnightblue" stroke="midnightblue" points="2882.51,-15.0519 2892.45,-11.3652 2882.38,-8.05308 2882.51,-15.0519"/>
</g>
<!-- Node59&#45;&gt;Node20 -->
<g id="edge274" class="edge"><title>Node59&#45;&gt;Node20</title>
<path fill="none" stroke="midnightblue" d="M1887.69,-123.462C1879.13,-120.806 1869.81,-118.112 1861.1,-116 1779.87,-96.3034 1682.82,-81.2523 1631.35,-73.9247"/>
<polygon fill="midnightblue" stroke="midnightblue" points="1631.77,-70.4494 1621.38,-72.5212 1630.79,-77.3811 1631.77,-70.4494"/>
</g>
<!-- Node59&#45;&gt;Node24 -->
<g id="edge272" class="edge"><title>Node59&#45;&gt;Node24</title>
<path fill="none" stroke="midnightblue" d="M1923.04,-123.373C1928.01,-108.155 1934.82,-79.6067 1925.1,-58 1919.58,-45.7325 1909.1,-35.3682 1898.91,-27.52"/>
<polygon fill="midnightblue" stroke="midnightblue" points="1900.7,-24.499 1890.53,-21.5328 1896.63,-30.1944 1900.7,-24.499"/>
</g>
<!-- Node60 -->
<g id="node194" class="node"><title>Node60</title>
<polygon fill="white" stroke="#bfbfbf" points="1866.1,-58.5 1866.1,-79.5 1916.1,-79.5 1916.1,-58.5 1866.1,-58.5"/>
<text text-anchor="middle" x="1891.1" y="-66.5" font-family="Helvetica,sans-Serif" font-size="10.00">TTree.h</text>
</g>
<!-- Node59&#45;&gt;Node60 -->
<g id="edge266" class="edge"><title>Node59&#45;&gt;Node60</title>
<path fill="none" stroke="midnightblue" d="M1914.47,-123.267C1910.48,-113.991 1904.6,-100.336 1899.73,-89.0453"/>
<polygon fill="midnightblue" stroke="midnightblue" points="1902.81,-87.3331 1895.64,-79.5337 1896.38,-90.1025 1902.81,-87.3331"/>
</g>
<!-- Node61&#45;&gt;Node15 -->
<g id="edge298" class="edge"><title>Node61&#45;&gt;Node15</title>
<path fill="none" stroke="midnightblue" d="M2307.78,-399.048C2594.98,-390.09 3726.1,-350.225 3726.1,-278 3726.1,-278 3726.1,-278 3726.1,-134 3726.1,-85.2791 3691.8,-77.3697 3647.1,-58 3504.99,3.5723 3103.82,-47.7018 2951.1,-22 2948.61,-21.5811 2946.05,-21.0558 2943.5,-20.4633"/>
<polygon fill="midnightblue" stroke="midnightblue" points="2944.37,-17.0727 2933.81,-17.9277 2942.59,-23.8448 2944.37,-17.0727"/>
</g>
<!-- Node61&#45;&gt;Node20 -->
<g id="edge300" class="edge"><title>Node61&#45;&gt;Node20</title>
<path fill="none" stroke="midnightblue" d="M2215.41,-390.455C2192.38,-381.224 2158.32,-367.254 2129.1,-354 2009.99,-299.97 1973.84,-296.663 1865.1,-224 1844.94,-210.527 1845.75,-198.919 1824.1,-188 1756.69,-154.009 1721.76,-192.582 1658.1,-152 1645.15,-143.746 1621.67,-109.945 1607.32,-88.1051"/>
<polygon fill="midnightblue" stroke="midnightblue" points="1610.17,-86.066 1601.79,-79.587 1604.3,-89.8796 1610.17,-86.066"/>
</g>
<!-- Node61&#45;&gt;Node21 -->
<g id="edge296" class="edge"><title>Node61&#45;&gt;Node21</title>
<path fill="none" stroke="midnightblue" d="M2215.39,-390.4C2176.82,-373.127 2110.1,-335.009 2110.1,-278 2110.1,-278 2110.1,-278 2110.1,-206 2110.1,-159.816 2078.99,-112.963 2059.17,-87.7956"/>
<polygon fill="midnightblue" stroke="midnightblue" points="2061.72,-85.3866 2052.7,-79.8345 2056.29,-89.802 2061.72,-85.3866"/>
</g>
<!-- Node61&#45;&gt;Node26 -->
<g id="edge294" class="edge"><title>Node61&#45;&gt;Node26</title>
<path fill="none" stroke="midnightblue" d="M2242.1,-390.362C2242.1,-382.922 2242.1,-372.743 2242.1,-363.728"/>
<polygon fill="midnightblue" stroke="midnightblue" points="2245.6,-363.571 2242.1,-353.571 2238.6,-363.571 2245.6,-363.571"/>
</g>
<!-- Node64 -->
<g id="node222" class="node"><title>Node64</title>
<polygon fill="white" stroke="#bfbfbf" points="3791.6,-448.5 3791.6,-469.5 3880.6,-469.5 3880.6,-448.5 3791.6,-448.5"/>
<text text-anchor="middle" x="3836.1" y="-456.5" font-family="Helvetica,sans-Serif" font-size="10.00">easylogging++.h</text>
</g>
<!-- Node63&#45;&gt;Node64 -->
<g id="edge314" class="edge"><title>Node63&#45;&gt;Node64</title>
<path fill="none" stroke="midnightblue" d="M3556.47,-510.027C3607.59,-500.947 3699.55,-484.521 3778.1,-470 3779.18,-469.8 3780.28,-469.597 3781.38,-469.392"/>
<polygon fill="midnightblue" stroke="midnightblue" points="3782.27,-472.786 3791.46,-467.509 3780.99,-465.905 3782.27,-472.786"/>
</g>
</g>
</svg>
