<?xml version="1.0" encoding="UTF-8" standalone="no"?>
<!DOCTYPE svg PUBLIC "-//W3C//DTD SVG 1.1//EN"
 "http://www.w3.org/Graphics/SVG/1.1/DTD/svg11.dtd">
<!-- Generated by graphviz version 2.26.3 (20100126.1600)
 -->
<!-- Title: src/expconfig/setups/Setup_2007_Base.h Pages: 1 -->
<svg width="368pt" height="116pt"
 viewBox="0.00 0.00 368.00 116.00" xmlns="http://www.w3.org/2000/svg" xmlns:xlink="http://www.w3.org/1999/xlink">
<g id="graph1" class="graph" transform="scale(1 1) rotate(0) translate(4 112)">
<title>src/expconfig/setups/Setup_2007_Base.h</title>
<polygon fill="white" stroke="white" points="-4,5 -4,-112 365,-112 365,5 -4,5"/>
<!-- Node70 -->
<g id="node1" class="node"><title>Node70</title>
<polygon fill="#bfbfbf" stroke="black" points="123.5,-73 123.5,-107 230.5,-107 230.5,-73 123.5,-73"/>
<text text-anchor="start" x="131.5" y="-94" font-family="Helvetica,sans-Serif" font-size="10.00">src/expconfig/setups</text>
<text text-anchor="middle" x="177" y="-81" font-family="Helvetica,sans-Serif" font-size="10.00">/Setup_2007_Base.h</text>
</g>
<!-- Node71 -->
<g id="node3" class="node"><title>Node71</title>
<a xlink:href="_setup__2007__06_8cc.html" target="_top" xlink:title="src/expconfig/setups\l/Setup_2007_06.cc">
<polygon fill="white" stroke="black" points="-0.5,-1 -0.5,-35 106.5,-35 106.5,-1 -0.5,-1"/>
<text text-anchor="start" x="7.5" y="-22" font-family="Helvetica,sans-Serif" font-size="10.00">src/expconfig/setups</text>
<text text-anchor="middle" x="53" y="-9" font-family="Helvetica,sans-Serif" font-size="10.00">/Setup_2007_06.cc</text>
</a>
</g>
<!-- Node70&#45;&gt;Node71 -->
<g id="edge2" class="edge"><title>Node70&#45;&gt;Node71</title>
<path fill="none" stroke="midnightblue" d="M138.512,-67.6522C120.489,-57.1871 99.354,-44.9152 82.6051,-35.19"/>
<polygon fill="midnightblue" stroke="midnightblue" points="137.208,-70.9424 147.614,-72.937 140.723,-64.8888 137.208,-70.9424"/>
</g>
<!-- Node72 -->
<g id="node5" class="node"><title>Node72</title>
<a xlink:href="_setup__2007__07_8cc.html" target="_top" xlink:title="src/expconfig/setups\l/Setup_2007_07.cc">
<polygon fill="white" stroke="black" points="123.5,-1 123.5,-35 230.5,-35 230.5,-1 123.5,-1"/>
<text text-anchor="start" x="131.5" y="-22" font-family="Helvetica,sans-Serif" font-size="10.00">src/expconfig/setups</text>
<text text-anchor="middle" x="177" y="-9" font-family="Helvetica,sans-Serif" font-size="10.00">/Setup_2007_07.cc</text>
</a>
</g>
<!-- Node70&#45;&gt;Node72 -->
<g id="edge4" class="edge"><title>Node70&#45;&gt;Node72</title>
<path fill="none" stroke="midnightblue" d="M177,-62.7193C177,-53.572 177,-43.6255 177,-35.4407"/>
<polygon fill="midnightblue" stroke="midnightblue" points="173.5,-62.937 177,-72.937 180.5,-62.937 173.5,-62.937"/>
</g>
<!-- Node73 -->
<g id="node7" class="node"><title>Node73</title>
<a xlink:href="_setup__2007___base_8cc.html" target="_top" xlink:title="src/expconfig/setups\l/Setup_2007_Base.cc">
<polygon fill="white" stroke="black" points="247.5,-1 247.5,-35 360.5,-35 360.5,-1 247.5,-1"/>
<text text-anchor="start" x="255.5" y="-22" font-family="Helvetica,sans-Serif" font-size="10.00">src/expconfig/setups</text>
<text text-anchor="middle" x="304" y="-9" font-family="Helvetica,sans-Serif" font-size="10.00">/Setup_2007_Base.cc</text>
</a>
</g>
<!-- Node70&#45;&gt;Node73 -->
<g id="edge6" class="edge"><title>Node70&#45;&gt;Node73</title>
<path fill="none" stroke="midnightblue" d="M215.912,-67.9398C234.481,-57.4125 256.367,-45.0044 273.679,-35.19"/>
<polygon fill="midnightblue" stroke="midnightblue" points="214.07,-64.9604 207.097,-72.937 217.523,-71.0498 214.07,-64.9604"/>
</g>
</g>
</svg>
