<?xml version="1.0" encoding="UTF-8" standalone="no"?>
<!DOCTYPE svg PUBLIC "-//W3C//DTD SVG 1.1//EN"
 "http://www.w3.org/Graphics/SVG/1.1/DTD/svg11.dtd">
<!-- Generated by graphviz version 2.26.3 (20100126.1600)
 -->
<!-- Title: src/expconfig/setups/Setup.h Pages: 1 -->
<svg width="2262pt" height="200pt"
 viewBox="0.00 0.00 2262.00 200.00" xmlns="http://www.w3.org/2000/svg" xmlns:xlink="http://www.w3.org/1999/xlink">
<g id="graph1" class="graph" transform="scale(1 1) rotate(0) translate(4 196)">
<title>src/expconfig/setups/Setup.h</title>
<polygon fill="white" stroke="white" points="-4,5 -4,-196 2259,-196 2259,5 -4,5"/>
<!-- Node61 -->
<g id="node1" class="node"><title>Node61</title>
<polygon fill="#bfbfbf" stroke="black" points="1143.5,-157 1143.5,-191 1250.5,-191 1250.5,-157 1143.5,-157"/>
<text text-anchor="start" x="1151.5" y="-178" font-family="Helvetica,sans-Serif" font-size="10.00">src/expconfig/setups</text>
<text text-anchor="middle" x="1197" y="-165" font-family="Helvetica,sans-Serif" font-size="10.00">/Setup.h</text>
</g>
<!-- Node62 -->
<g id="node3" class="node"><title>Node62</title>
<a xlink:href="_ant-fake_raw_8cc.html" target="_top" xlink:title="progs/Ant&#45;fakeRaw.cc">
<polygon fill="white" stroke="black" points="0,-85.5 0,-106.5 114,-106.5 114,-85.5 0,-85.5"/>
<text text-anchor="middle" x="57" y="-93.5" font-family="Helvetica,sans-Serif" font-size="10.00">progs/Ant&#45;fakeRaw.cc</text>
</a>
</g>
<!-- Node61&#45;&gt;Node62 -->
<g id="edge2" class="edge"><title>Node61&#45;&gt;Node62</title>
<path fill="none" stroke="midnightblue" d="M1133.25,-173.283C932.946,-170.638 318.039,-159.436 123,-120 108.54,-117.076 93.0044,-111.555 80.6406,-106.544"/>
<polygon fill="midnightblue" stroke="midnightblue" points="1133.27,-176.783 1143.31,-173.413 1133.36,-169.784 1133.27,-176.783"/>
</g>
<!-- Node63 -->
<g id="node5" class="node"><title>Node63</title>
<a xlink:href="_ant-info_8cc.html" target="_top" xlink:title="progs/Ant&#45;info.cc">
<polygon fill="white" stroke="black" points="131.5,-85.5 131.5,-106.5 222.5,-106.5 222.5,-85.5 131.5,-85.5"/>
<text text-anchor="middle" x="177" y="-93.5" font-family="Helvetica,sans-Serif" font-size="10.00">progs/Ant&#45;info.cc</text>
</a>
</g>
<!-- Node61&#45;&gt;Node63 -->
<g id="edge4" class="edge"><title>Node61&#45;&gt;Node63</title>
<path fill="none" stroke="midnightblue" d="M1133.29,-173.431C946.586,-171.292 403.062,-161.566 231,-120 219.033,-117.109 206.42,-111.655 196.396,-106.676"/>
<polygon fill="midnightblue" stroke="midnightblue" points="1133.46,-176.933 1143.5,-173.545 1133.53,-169.934 1133.46,-176.933"/>
</g>
<!-- Node64 -->
<g id="node7" class="node"><title>Node64</title>
<a xlink:href="_ant-make_tagg_eff_8cc.html" target="_top" xlink:title="progs/Ant&#45;makeTaggEff.cc">
<polygon fill="white" stroke="black" points="240,-85.5 240,-106.5 374,-106.5 374,-85.5 240,-85.5"/>
<text text-anchor="middle" x="307" y="-93.5" font-family="Helvetica,sans-Serif" font-size="10.00">progs/Ant&#45;makeTaggEff.cc</text>
</a>
</g>
<!-- Node61&#45;&gt;Node64 -->
<g id="edge6" class="edge"><title>Node61&#45;&gt;Node64</title>
<path fill="none" stroke="midnightblue" d="M1133.41,-171.752C967.912,-165.585 526.659,-147.042 383,-120 366.683,-116.928 348.963,-111.463 334.742,-106.523"/>
<polygon fill="midnightblue" stroke="midnightblue" points="1133.32,-175.25 1143.44,-172.123 1133.58,-168.255 1133.32,-175.25"/>
</g>
<!-- Node65 -->
<g id="node9" class="node"><title>Node65</title>
<a xlink:href="_ant-rawdump_8cc.html" target="_top" xlink:title="progs/Ant&#45;rawdump.cc">
<polygon fill="white" stroke="black" points="391.5,-85.5 391.5,-106.5 506.5,-106.5 506.5,-85.5 391.5,-85.5"/>
<text text-anchor="middle" x="449" y="-93.5" font-family="Helvetica,sans-Serif" font-size="10.00">progs/Ant&#45;rawdump.cc</text>
</a>
</g>
<!-- Node61&#45;&gt;Node65 -->
<g id="edge8" class="edge"><title>Node61&#45;&gt;Node65</title>
<path fill="none" stroke="midnightblue" d="M1133.15,-171.145C987.021,-164.255 631.889,-145.39 515,-120 500.822,-116.92 485.564,-111.518 473.293,-106.617"/>
<polygon fill="midnightblue" stroke="midnightblue" points="1133.15,-174.649 1143.3,-171.62 1133.48,-167.656 1133.15,-174.649"/>
</g>
<!-- Node66 -->
<g id="node11" class="node"><title>Node66</title>
<a xlink:href="_omega_eta_g__fit_8cc.html" target="_top" xlink:title="progs/OmegaEtaG_fit.cc">
<polygon fill="white" stroke="black" points="523.5,-85.5 523.5,-106.5 648.5,-106.5 648.5,-85.5 523.5,-85.5"/>
<text text-anchor="middle" x="586" y="-93.5" font-family="Helvetica,sans-Serif" font-size="10.00">progs/OmegaEtaG_fit.cc</text>
</a>
</g>
<!-- Node61&#45;&gt;Node66 -->
<g id="edge10" class="edge"><title>Node61&#45;&gt;Node66</title>
<path fill="none" stroke="midnightblue" d="M1133.38,-172.288C1031.67,-168.516 826.61,-156.651 657,-120 641.993,-116.757 625.735,-111.405 612.569,-106.576"/>
<polygon fill="midnightblue" stroke="midnightblue" points="1133.37,-175.79 1143.49,-172.649 1133.62,-168.795 1133.37,-175.79"/>
</g>
<!-- Node67 -->
<g id="node13" class="node"><title>Node67</title>
<a xlink:href="_proton_vertex_test_8cc.html" target="_top" xlink:title="src/analysis/physics\l/scratch/wolfes/ProtonVertex\lTest.cc">
<polygon fill="white" stroke="black" points="665.5,-72.5 665.5,-119.5 808.5,-119.5 808.5,-72.5 665.5,-72.5"/>
<text text-anchor="start" x="673.5" y="-106.5" font-family="Helvetica,sans-Serif" font-size="10.00">src/analysis/physics</text>
<text text-anchor="start" x="673.5" y="-93.5" font-family="Helvetica,sans-Serif" font-size="10.00">/scratch/wolfes/ProtonVertex</text>
<text text-anchor="middle" x="737" y="-80.5" font-family="Helvetica,sans-Serif" font-size="10.00">Test.cc</text>
</a>
</g>
<!-- Node61&#45;&gt;Node67 -->
<g id="edge12" class="edge"><title>Node61&#45;&gt;Node67</title>
<path fill="none" stroke="midnightblue" d="M1133.02,-167.877C1057.07,-159.926 926.865,-144.143 817,-120 814.309,-119.409 811.577,-118.773 808.825,-118.103"/>
<polygon fill="midnightblue" stroke="midnightblue" points="1133.06,-171.399 1143.37,-168.946 1133.78,-164.437 1133.06,-171.399"/>
</g>
<!-- Node68 -->
<g id="node15" class="node"><title>Node68</title>
<a xlink:href="_exp_config_8cc.html" target="_top" xlink:title="src/expconfig/ExpConfig.cc">
<polygon fill="white" stroke="black" points="825.5,-85.5 825.5,-106.5 962.5,-106.5 962.5,-85.5 825.5,-85.5"/>
<text text-anchor="middle" x="894" y="-93.5" font-family="Helvetica,sans-Serif" font-size="10.00">src/expconfig/ExpConfig.cc</text>
</a>
</g>
<!-- Node61&#45;&gt;Node68 -->
<g id="edge14" class="edge"><title>Node61&#45;&gt;Node68</title>
<path fill="none" stroke="midnightblue" d="M1133.31,-159.991C1087.87,-149.703 1025.42,-134.965 971,-120 956.149,-115.916 939.844,-110.911 926.076,-106.53"/>
<polygon fill="midnightblue" stroke="midnightblue" points="1132.79,-163.462 1143.31,-162.247 1134.33,-156.634 1132.79,-163.462"/>
</g>
<!-- Node69 -->
<g id="node17" class="node"><title>Node69</title>
<a xlink:href="_setup_8cc.html" target="_top" xlink:title="src/expconfig/setups\l/Setup.cc">
<polygon fill="white" stroke="black" points="979.5,-79 979.5,-113 1086.5,-113 1086.5,-79 979.5,-79"/>
<text text-anchor="start" x="987.5" y="-100" font-family="Helvetica,sans-Serif" font-size="10.00">src/expconfig/setups</text>
<text text-anchor="middle" x="1033" y="-87" font-family="Helvetica,sans-Serif" font-size="10.00">/Setup.cc</text>
</a>
</g>
<!-- Node61&#45;&gt;Node69 -->
<g id="edge16" class="edge"><title>Node61&#45;&gt;Node69</title>
<path fill="none" stroke="midnightblue" d="M1151.7,-152.456C1125.6,-140.04 1093.24,-124.651 1068.91,-113.078"/>
<polygon fill="midnightblue" stroke="midnightblue" points="1150.48,-155.748 1161.01,-156.883 1153.48,-149.427 1150.48,-155.748"/>
</g>
<!-- Node70 -->
<g id="node19" class="node"><title>Node70</title>
<a xlink:href="_setup__2007___base_8h.html" target="_top" xlink:title="src/expconfig/setups\l/Setup_2007_Base.h">
<polygon fill="white" stroke="black" points="1103.5,-79 1103.5,-113 1210.5,-113 1210.5,-79 1103.5,-79"/>
<text text-anchor="start" x="1111.5" y="-100" font-family="Helvetica,sans-Serif" font-size="10.00">src/expconfig/setups</text>
<text text-anchor="middle" x="1157" y="-87" font-family="Helvetica,sans-Serif" font-size="10.00">/Setup_2007_Base.h</text>
</a>
</g>
<!-- Node61&#45;&gt;Node70 -->
<g id="edge18" class="edge"><title>Node61&#45;&gt;Node70</title>
<path fill="none" stroke="midnightblue" d="M1183.48,-147.635C1177.66,-136.293 1171.03,-123.352 1165.85,-113.262"/>
<polygon fill="midnightblue" stroke="midnightblue" points="1180.45,-149.388 1188.12,-156.689 1186.67,-146.194 1180.45,-149.388"/>
</g>
<!-- Node73 -->
<g id="node25" class="node"><title>Node73</title>
<a xlink:href="_setup__2007___base_8cc.html" target="_top" xlink:title="src/expconfig/setups\l/Setup_2007_Base.cc">
<polygon fill="white" stroke="black" points="1100.5,-1 1100.5,-35 1213.5,-35 1213.5,-1 1100.5,-1"/>
<text text-anchor="start" x="1108.5" y="-22" font-family="Helvetica,sans-Serif" font-size="10.00">src/expconfig/setups</text>
<text text-anchor="middle" x="1157" y="-9" font-family="Helvetica,sans-Serif" font-size="10.00">/Setup_2007_Base.cc</text>
</a>
</g>
<!-- Node61&#45;&gt;Node73 -->
<g id="edge26" class="edge"><title>Node61&#45;&gt;Node73</title>
<path fill="none" stroke="midnightblue" d="M1211.49,-147.636C1221.09,-126.444 1230.06,-96.307 1219,-72 1212.08,-56.7996 1198.54,-44.214 1185.87,-35.028"/>
<polygon fill="midnightblue" stroke="midnightblue" points="1208.31,-146.165 1207.1,-156.69 1214.61,-149.217 1208.31,-146.165"/>
</g>
<!-- Node74 -->
<g id="node28" class="node"><title>Node74</title>
<a xlink:href="_setup__2012__12___compton_8cc.html" target="_top" xlink:title="src/expconfig/setups\l/Setup_2012_12_Compton.cc">
<polygon fill="white" stroke="black" points="1266,-79 1266,-113 1412,-113 1412,-79 1266,-79"/>
<text text-anchor="start" x="1274" y="-100" font-family="Helvetica,sans-Serif" font-size="10.00">src/expconfig/setups</text>
<text text-anchor="middle" x="1339" y="-87" font-family="Helvetica,sans-Serif" font-size="10.00">/Setup_2012_12_Compton.cc</text>
</a>
</g>
<!-- Node61&#45;&gt;Node74 -->
<g id="edge28" class="edge"><title>Node61&#45;&gt;Node74</title>
<path fill="none" stroke="midnightblue" d="M1237.12,-151.964C1259.56,-139.636 1287.12,-124.499 1307.91,-113.078"/>
<polygon fill="midnightblue" stroke="midnightblue" points="1235.24,-149 1228.16,-156.883 1238.61,-155.136 1235.24,-149"/>
</g>
<!-- Node75 -->
<g id="node30" class="node"><title>Node75</title>
<a xlink:href="_setup__2014___e_p_t_8h.html" target="_top" xlink:title="src/expconfig/setups\l/Setup_2014_EPT.h">
<polygon fill="white" stroke="black" points="1429.5,-79 1429.5,-113 1536.5,-113 1536.5,-79 1429.5,-79"/>
<text text-anchor="start" x="1437.5" y="-100" font-family="Helvetica,sans-Serif" font-size="10.00">src/expconfig/setups</text>
<text text-anchor="middle" x="1483" y="-87" font-family="Helvetica,sans-Serif" font-size="10.00">/Setup_2014_EPT.h</text>
</a>
</g>
<!-- Node61&#45;&gt;Node75 -->
<g id="edge30" class="edge"><title>Node61&#45;&gt;Node75</title>
<path fill="none" stroke="midnightblue" d="M1260.9,-160.962C1306.05,-151.177 1367.75,-136.643 1421,-120 1427.61,-117.934 1434.53,-115.518 1441.24,-113.03"/>
<polygon fill="midnightblue" stroke="midnightblue" points="1259.99,-157.577 1250.95,-163.1 1261.46,-164.421 1259.99,-157.577"/>
</g>
<!-- Node80 -->
<g id="node40" class="node"><title>Node80</title>
<a xlink:href="_setup__2015__01___pion_8cc.html" target="_top" xlink:title="src/expconfig/setups\l/Setup_2015_01_Pion.cc">
<polygon fill="white" stroke="black" points="1862.5,-1 1862.5,-35 1987.5,-35 1987.5,-1 1862.5,-1"/>
<text text-anchor="start" x="1870.5" y="-22" font-family="Helvetica,sans-Serif" font-size="10.00">src/expconfig/setups</text>
<text text-anchor="middle" x="1925" y="-9" font-family="Helvetica,sans-Serif" font-size="10.00">/Setup_2015_01_Pion.cc</text>
</a>
</g>
<!-- Node61&#45;&gt;Node80 -->
<g id="edge40" class="edge"><title>Node61&#45;&gt;Node80</title>
<path fill="none" stroke="midnightblue" d="M1260.85,-169.667C1347.78,-162.833 1497.93,-147.423 1545,-120 1568.51,-106.302 1559.34,-85.4397 1583,-72 1688.65,-11.9853 1734.69,-58.9682 1854,-36 1856.75,-35.4712 1859.55,-34.9003 1862.37,-34.2985"/>
<polygon fill="midnightblue" stroke="midnightblue" points="1260.54,-166.181 1250.84,-170.439 1261.08,-173.16 1260.54,-166.181"/>
</g>
<!-- Node81 -->
<g id="node42" class="node"><title>Node81</title>
<a xlink:href="_setup__2015__01___pion_8h.html" target="_top" xlink:title="src/expconfig/setups\l/Setup_2015_01_Pion.h">
<polygon fill="white" stroke="black" points="1592,-79 1592,-113 1712,-113 1712,-79 1592,-79"/>
<text text-anchor="start" x="1600" y="-100" font-family="Helvetica,sans-Serif" font-size="10.00">src/expconfig/setups</text>
<text text-anchor="middle" x="1652" y="-87" font-family="Helvetica,sans-Serif" font-size="10.00">/Setup_2015_01_Pion.h</text>
</a>
</g>
<!-- Node61&#45;&gt;Node81 -->
<g id="edge42" class="edge"><title>Node61&#45;&gt;Node81</title>
<path fill="none" stroke="midnightblue" d="M1260.92,-168.347C1337.12,-160.829 1467.97,-145.44 1578,-120 1586.29,-118.083 1594.98,-115.657 1603.37,-113.087"/>
<polygon fill="midnightblue" stroke="midnightblue" points="1260.16,-164.905 1250.54,-169.356 1260.83,-171.872 1260.16,-164.905"/>
</g>
<!-- Node82 -->
<g id="node45" class="node"><title>Node82</title>
<a xlink:href="_setup__2017__03_8h.html" target="_top" xlink:title="src/expconfig/setups\l/Setup_2017_03.h">
<polygon fill="white" stroke="black" points="1729.5,-79 1729.5,-113 1836.5,-113 1836.5,-79 1729.5,-79"/>
<text text-anchor="start" x="1737.5" y="-100" font-family="Helvetica,sans-Serif" font-size="10.00">src/expconfig/setups</text>
<text text-anchor="middle" x="1783" y="-87" font-family="Helvetica,sans-Serif" font-size="10.00">/Setup_2017_03.h</text>
</a>
</g>
<!-- Node61&#45;&gt;Node82 -->
<g id="edge46" class="edge"><title>Node61&#45;&gt;Node82</title>
<path fill="none" stroke="midnightblue" d="M1260.77,-169.564C1380.62,-160.874 1635.14,-140.649 1721,-120 1728.41,-118.219 1736.12,-115.761 1743.48,-113.093"/>
<polygon fill="midnightblue" stroke="midnightblue" points="1260.36,-166.084 1250.64,-170.294 1260.87,-173.066 1260.36,-166.084"/>
</g>
<!-- Node84 -->
<g id="node49" class="node"><title>Node84</title>
<a xlink:href="_setup___c_b_source_calib_8cc.html" target="_top" xlink:title="src/expconfig/setups\l/Setup_CBSourceCalib.cc">
<polygon fill="white" stroke="black" points="1853.5,-79 1853.5,-113 1984.5,-113 1984.5,-79 1853.5,-79"/>
<text text-anchor="start" x="1861.5" y="-100" font-family="Helvetica,sans-Serif" font-size="10.00">src/expconfig/setups</text>
<text text-anchor="middle" x="1919" y="-87" font-family="Helvetica,sans-Serif" font-size="10.00">/Setup_CBSourceCalib.cc</text>
</a>
</g>
<!-- Node61&#45;&gt;Node84 -->
<g id="edge50" class="edge"><title>Node61&#45;&gt;Node84</title>
<path fill="none" stroke="midnightblue" d="M1261.09,-170.543C1401.9,-162.642 1734.46,-142.221 1845,-120 1853.87,-118.217 1863.17,-115.723 1872.06,-113.013"/>
<polygon fill="midnightblue" stroke="midnightblue" points="1260.68,-167.061 1250.89,-171.112 1261.07,-174.05 1260.68,-167.061"/>
</g>
<!-- Node85 -->
<g id="node51" class="node"><title>Node85</title>
<a xlink:href="_setup_registry_8cc.html" target="_top" xlink:title="src/expconfig/setups\l/SetupRegistry.cc">
<polygon fill="white" stroke="black" points="2001.5,-79 2001.5,-113 2108.5,-113 2108.5,-79 2001.5,-79"/>
<text text-anchor="start" x="2009.5" y="-100" font-family="Helvetica,sans-Serif" font-size="10.00">src/expconfig/setups</text>
<text text-anchor="middle" x="2055" y="-87" font-family="Helvetica,sans-Serif" font-size="10.00">/SetupRegistry.cc</text>
</a>
</g>
<!-- Node61&#45;&gt;Node85 -->
<g id="edge52" class="edge"><title>Node61&#45;&gt;Node85</title>
<path fill="none" stroke="midnightblue" d="M1260.93,-172.145C1424.28,-167.006 1853.91,-150.89 1993,-120 2000.66,-118.298 2008.63,-115.807 2016.2,-113.066"/>
<polygon fill="midnightblue" stroke="midnightblue" points="1260.45,-168.658 1250.56,-172.467 1260.66,-175.654 1260.45,-168.658"/>
</g>
<!-- Node86 -->
<g id="node53" class="node"><title>Node86</title>
<a xlink:href="expconfig__helpers_8cc.html" target="_top" xlink:title="test/expconfig_helpers.cc">
<polygon fill="white" stroke="black" points="2126,-85.5 2126,-106.5 2254,-106.5 2254,-85.5 2126,-85.5"/>
<text text-anchor="middle" x="2190" y="-93.5" font-family="Helvetica,sans-Serif" font-size="10.00">test/expconfig_helpers.cc</text>
</a>
</g>
<!-- Node61&#45;&gt;Node86 -->
<g id="edge54" class="edge"><title>Node61&#45;&gt;Node86</title>
<path fill="none" stroke="midnightblue" d="M1260.91,-172.4C1441.37,-167.541 1952.41,-151.335 2117,-120 2132.73,-117.006 2149.75,-111.545 2163.4,-106.588"/>
<polygon fill="midnightblue" stroke="midnightblue" points="1260.68,-168.905 1250.78,-172.67 1260.87,-175.903 1260.68,-168.905"/>
</g>
<!-- Node71 -->
<g id="node21" class="node"><title>Node71</title>
<a xlink:href="_setup__2007__06_8cc.html" target="_top" xlink:title="src/expconfig/setups\l/Setup_2007_06.cc">
<polygon fill="white" stroke="black" points="852.5,-1 852.5,-35 959.5,-35 959.5,-1 852.5,-1"/>
<text text-anchor="start" x="860.5" y="-22" font-family="Helvetica,sans-Serif" font-size="10.00">src/expconfig/setups</text>
<text text-anchor="middle" x="906" y="-9" font-family="Helvetica,sans-Serif" font-size="10.00">/Setup_2007_06.cc</text>
</a>
</g>
<!-- Node70&#45;&gt;Node71 -->
<g id="edge20" class="edge"><title>Node70&#45;&gt;Node71</title>
<path fill="none" stroke="midnightblue" d="M1105,-75.4682C1101.63,-74.2616 1098.27,-73.0949 1095,-72 1039.36,-53.3904 1024.39,-52.1787 968,-36 965.307,-35.2273 962.548,-34.4338 959.762,-33.631"/>
<polygon fill="midnightblue" stroke="midnightblue" points="1103.91,-78.7943 1114.5,-78.9484 1106.31,-72.2216 1103.91,-78.7943"/>
</g>
<!-- Node72 -->
<g id="node23" class="node"><title>Node72</title>
<a xlink:href="_setup__2007__07_8cc.html" target="_top" xlink:title="src/expconfig/setups\l/Setup_2007_07.cc">
<polygon fill="white" stroke="black" points="976.5,-1 976.5,-35 1083.5,-35 1083.5,-1 976.5,-1"/>
<text text-anchor="start" x="984.5" y="-22" font-family="Helvetica,sans-Serif" font-size="10.00">src/expconfig/setups</text>
<text text-anchor="middle" x="1030" y="-9" font-family="Helvetica,sans-Serif" font-size="10.00">/Setup_2007_07.cc</text>
</a>
</g>
<!-- Node70&#45;&gt;Node72 -->
<g id="edge22" class="edge"><title>Node70&#45;&gt;Node72</title>
<path fill="none" stroke="midnightblue" d="M1120.58,-73.6346C1100.61,-61.3672 1076.24,-46.3975 1057.81,-35.0775"/>
<polygon fill="midnightblue" stroke="midnightblue" points="1118.78,-76.6315 1129.13,-78.8826 1122.44,-70.6666 1118.78,-76.6315"/>
</g>
<!-- Node70&#45;&gt;Node73 -->
<g id="edge24" class="edge"><title>Node70&#45;&gt;Node73</title>
<path fill="none" stroke="midnightblue" d="M1157,-68.6102C1157,-57.5188 1157,-45.0489 1157,-35.2623"/>
<polygon fill="midnightblue" stroke="midnightblue" points="1153.5,-68.6892 1157,-78.6893 1160.5,-68.6893 1153.5,-68.6892"/>
</g>
<!-- Node76 -->
<g id="node32" class="node"><title>Node76</title>
<a xlink:href="_setup__2014__07___e_p_t___prod_8cc.html" target="_top" xlink:title="src/expconfig/setups\l/Setup_2014_07_EPT_Prod.cc">
<polygon fill="white" stroke="black" points="1230.5,-1 1230.5,-35 1381.5,-35 1381.5,-1 1230.5,-1"/>
<text text-anchor="start" x="1238.5" y="-22" font-family="Helvetica,sans-Serif" font-size="10.00">src/expconfig/setups</text>
<text text-anchor="middle" x="1306" y="-9" font-family="Helvetica,sans-Serif" font-size="10.00">/Setup_2014_07_EPT_Prod.cc</text>
</a>
</g>
<!-- Node75&#45;&gt;Node76 -->
<g id="edge32" class="edge"><title>Node75&#45;&gt;Node76</title>
<path fill="none" stroke="midnightblue" d="M1434.85,-74.7816C1406.55,-62.3105 1371.25,-46.7529 1344.75,-35.0775"/>
<polygon fill="midnightblue" stroke="midnightblue" points="1433.59,-78.0527 1444.16,-78.8826 1436.42,-71.6471 1433.59,-78.0527"/>
</g>
<!-- Node77 -->
<g id="node34" class="node"><title>Node77</title>
<a xlink:href="_setup__2014__10___e_p_t___prod_8cc.html" target="_top" xlink:title="src/expconfig/setups\l/Setup_2014_10_EPT_Prod.cc">
<polygon fill="white" stroke="black" points="1398.5,-1 1398.5,-35 1549.5,-35 1549.5,-1 1398.5,-1"/>
<text text-anchor="start" x="1406.5" y="-22" font-family="Helvetica,sans-Serif" font-size="10.00">src/expconfig/setups</text>
<text text-anchor="middle" x="1474" y="-9" font-family="Helvetica,sans-Serif" font-size="10.00">/Setup_2014_10_EPT_Prod.cc</text>
</a>
</g>
<!-- Node75&#45;&gt;Node77 -->
<g id="edge34" class="edge"><title>Node75&#45;&gt;Node77</title>
<path fill="none" stroke="midnightblue" d="M1479.84,-68.6102C1478.56,-57.5188 1477.12,-45.0489 1475.99,-35.2623"/>
<polygon fill="midnightblue" stroke="midnightblue" points="1476.38,-69.1564 1481,-78.6893 1483.33,-68.354 1476.38,-69.1564"/>
</g>
<!-- Node78 -->
<g id="node36" class="node"><title>Node78</title>
<a xlink:href="_setup__2014__12___e_p_t___prod_8cc.html" target="_top" xlink:title="src/expconfig/setups\l/Setup_2014_12_EPT_Prod.cc">
<polygon fill="white" stroke="black" points="1566.5,-1 1566.5,-35 1717.5,-35 1717.5,-1 1566.5,-1"/>
<text text-anchor="start" x="1574.5" y="-22" font-family="Helvetica,sans-Serif" font-size="10.00">src/expconfig/setups</text>
<text text-anchor="middle" x="1642" y="-9" font-family="Helvetica,sans-Serif" font-size="10.00">/Setup_2014_12_EPT_Prod.cc</text>
</a>
</g>
<!-- Node75&#45;&gt;Node78 -->
<g id="edge36" class="edge"><title>Node75&#45;&gt;Node78</title>
<path fill="none" stroke="midnightblue" d="M1526.92,-74.4556C1552.23,-62.0403 1583.6,-46.6513 1607.19,-35.0775"/>
<polygon fill="midnightblue" stroke="midnightblue" points="1525.33,-71.336 1517.89,-78.8826 1528.41,-77.6205 1525.33,-71.336"/>
</g>
<!-- Node79 -->
<g id="node38" class="node"><title>Node79</title>
<a xlink:href="_setup__2014___e_p_t_8cc.html" target="_top" xlink:title="src/expconfig/setups\l/Setup_2014_EPT.cc">
<polygon fill="white" stroke="black" points="1735,-1 1735,-35 1845,-35 1845,-1 1735,-1"/>
<text text-anchor="start" x="1743" y="-22" font-family="Helvetica,sans-Serif" font-size="10.00">src/expconfig/setups</text>
<text text-anchor="middle" x="1790" y="-9" font-family="Helvetica,sans-Serif" font-size="10.00">/Setup_2014_EPT.cc</text>
</a>
</g>
<!-- Node75&#45;&gt;Node79 -->
<g id="edge38" class="edge"><title>Node75&#45;&gt;Node79</title>
<path fill="none" stroke="midnightblue" d="M1537.53,-75.7482C1541.73,-74.4099 1545.92,-73.1425 1550,-72 1626.89,-50.4832 1648.41,-54.8207 1726,-36 1728.92,-35.2926 1731.9,-34.5432 1734.91,-33.7677"/>
<polygon fill="midnightblue" stroke="midnightblue" points="1536.16,-72.5127 1527.77,-78.9741 1538.36,-79.1591 1536.16,-72.5127"/>
</g>
<!-- Node81&#45;&gt;Node80 -->
<g id="edge44" class="edge"><title>Node81&#45;&gt;Node80</title>
<path fill="none" stroke="midnightblue" d="M1708.89,-75.8337C1712.97,-74.5014 1717.04,-73.21 1721,-72 1747.19,-63.9919 1812.36,-46.921 1862.05,-34.1034"/>
<polygon fill="midnightblue" stroke="midnightblue" points="1707.74,-72.5252 1699.35,-78.998 1709.95,-79.1687 1707.74,-72.5252"/>
</g>
<!-- Node83 -->
<g id="node47" class="node"><title>Node83</title>
<a xlink:href="_setup__2017__03_8cc.html" target="_top" xlink:title="src/expconfig/setups\l/Setup_2017_03.cc">
<polygon fill="white" stroke="black" points="2004.5,-1 2004.5,-35 2111.5,-35 2111.5,-1 2004.5,-1"/>
<text text-anchor="start" x="2012.5" y="-22" font-family="Helvetica,sans-Serif" font-size="10.00">src/expconfig/setups</text>
<text text-anchor="middle" x="2058" y="-9" font-family="Helvetica,sans-Serif" font-size="10.00">/Setup_2017_03.cc</text>
</a>
</g>
<!-- Node82&#45;&gt;Node83 -->
<g id="edge48" class="edge"><title>Node82&#45;&gt;Node83</title>
<path fill="none" stroke="midnightblue" d="M1834.28,-75.5373C1837.89,-74.2862 1841.49,-73.0932 1845,-72 1910.88,-51.5003 1929.3,-53.623 1996,-36 1998.71,-35.2842 2001.48,-34.5366 2004.28,-33.7702"/>
<polygon fill="midnightblue" stroke="midnightblue" points="1832.98,-72.284 1824.75,-78.9557 1835.35,-78.8728 1832.98,-72.284"/>
</g>
</g>
</svg>
