<?xml version="1.0" encoding="UTF-8" standalone="no"?>
<!DOCTYPE svg PUBLIC "-//W3C//DTD SVG 1.1//EN"
 "http://www.w3.org/Graphics/SVG/1.1/DTD/svg11.dtd">
<!-- Generated by graphviz version 2.26.3 (20100126.1600)
 -->
<!-- Title: src/calibration/modules/TAPSVeto_Time.h Pages: 1 -->
<svg width="794pt" height="116pt"
 viewBox="0.00 0.00 794.00 116.00" xmlns="http://www.w3.org/2000/svg" xmlns:xlink="http://www.w3.org/1999/xlink">
<g id="graph1" class="graph" transform="scale(1 1) rotate(0) translate(4 112)">
<title>src/calibration/modules/TAPSVeto_Time.h</title>
<polygon fill="white" stroke="white" points="-4,5 -4,-112 791,-112 791,5 -4,5"/>
<!-- Node54 -->
<g id="node1" class="node"><title>Node54</title>
<polygon fill="#bfbfbf" stroke="black" points="327.5,-73 327.5,-107 444.5,-107 444.5,-73 327.5,-73"/>
<text text-anchor="start" x="335.5" y="-94" font-family="Helvetica,sans-Serif" font-size="10.00">src/calibration/modules</text>
<text text-anchor="middle" x="386" y="-81" font-family="Helvetica,sans-Serif" font-size="10.00">/TAPSVeto_Time.h</text>
</g>
<!-- Node55 -->
<g id="node3" class="node"><title>Node55</title>
<a xlink:href="_t_a_p_s_veto___time_8cc.html" target="_top" xlink:title="src/calibration/modules\l/TAPSVeto_Time.cc">
<polygon fill="white" stroke="black" points="-0.5,-1 -0.5,-35 116.5,-35 116.5,-1 -0.5,-1"/>
<text text-anchor="start" x="7.5" y="-22" font-family="Helvetica,sans-Serif" font-size="10.00">src/calibration/modules</text>
<text text-anchor="middle" x="58" y="-9" font-family="Helvetica,sans-Serif" font-size="10.00">/TAPSVeto_Time.cc</text>
</a>
</g>
<!-- Node54&#45;&gt;Node55 -->
<g id="edge2" class="edge"><title>Node54&#45;&gt;Node55</title>
<path fill="none" stroke="midnightblue" d="M317.551,-76.9741C264.762,-66.6543 190.026,-51.4478 125,-36 122.305,-35.3597 119.553,-34.6892 116.777,-33.999"/>
<polygon fill="midnightblue" stroke="midnightblue" points="316.99,-80.4307 327.475,-78.9073 318.329,-73.5598 316.99,-80.4307"/>
</g>
<!-- Node56 -->
<g id="node5" class="node"><title>Node56</title>
<a xlink:href="_setup__2007___base_8cc.html" target="_top" xlink:title="src/expconfig/setups\l/Setup_2007_Base.cc">
<polygon fill="white" stroke="black" points="133.5,-1 133.5,-35 246.5,-35 246.5,-1 133.5,-1"/>
<text text-anchor="start" x="141.5" y="-22" font-family="Helvetica,sans-Serif" font-size="10.00">src/expconfig/setups</text>
<text text-anchor="middle" x="190" y="-9" font-family="Helvetica,sans-Serif" font-size="10.00">/Setup_2007_Base.cc</text>
</a>
</g>
<!-- Node54&#45;&gt;Node56 -->
<g id="edge4" class="edge"><title>Node54&#45;&gt;Node56</title>
<path fill="none" stroke="midnightblue" d="M329.786,-69.3498C300.226,-58.4911 264.425,-45.3399 236.455,-35.0651"/>
<polygon fill="midnightblue" stroke="midnightblue" points="328.957,-72.7741 339.551,-72.937 331.371,-66.2034 328.957,-72.7741"/>
</g>
<!-- Node57 -->
<g id="node7" class="node"><title>Node57</title>
<a xlink:href="_setup__2014___e_p_t_8cc.html" target="_top" xlink:title="src/expconfig/setups\l/Setup_2014_EPT.cc">
<polygon fill="white" stroke="black" points="264,-1 264,-35 374,-35 374,-1 264,-1"/>
<text text-anchor="start" x="272" y="-22" font-family="Helvetica,sans-Serif" font-size="10.00">src/expconfig/setups</text>
<text text-anchor="middle" x="319" y="-9" font-family="Helvetica,sans-Serif" font-size="10.00">/Setup_2014_EPT.cc</text>
</a>
</g>
<!-- Node54&#45;&gt;Node57 -->
<g id="edge6" class="edge"><title>Node54&#45;&gt;Node57</title>
<path fill="none" stroke="midnightblue" d="M363.088,-65.3785C353.928,-55.5349 343.591,-44.4262 335.23,-35.4407"/>
<polygon fill="midnightblue" stroke="midnightblue" points="360.747,-68.0006 370.122,-72.937 365.872,-63.232 360.747,-68.0006"/>
</g>
<!-- Node58 -->
<g id="node9" class="node"><title>Node58</title>
<a xlink:href="_setup__2015__01___pion_8cc.html" target="_top" xlink:title="src/expconfig/setups\l/Setup_2015_01_Pion.cc">
<polygon fill="white" stroke="black" points="391.5,-1 391.5,-35 516.5,-35 516.5,-1 391.5,-1"/>
<text text-anchor="start" x="399.5" y="-22" font-family="Helvetica,sans-Serif" font-size="10.00">src/expconfig/setups</text>
<text text-anchor="middle" x="454" y="-9" font-family="Helvetica,sans-Serif" font-size="10.00">/Setup_2015_01_Pion.cc</text>
</a>
</g>
<!-- Node54&#45;&gt;Node58 -->
<g id="edge8" class="edge"><title>Node54&#45;&gt;Node58</title>
<path fill="none" stroke="midnightblue" d="M409.254,-65.3785C418.55,-55.5349 429.042,-44.4262 437.528,-35.4407"/>
<polygon fill="midnightblue" stroke="midnightblue" points="406.437,-63.2637 402.115,-72.937 411.526,-68.07 406.437,-63.2637"/>
</g>
<!-- Node59 -->
<g id="node11" class="node"><title>Node59</title>
<a xlink:href="_setup__2017__03_8cc.html" target="_top" xlink:title="src/expconfig/setups\l/Setup_2017_03.cc">
<polygon fill="white" stroke="black" points="533.5,-1 533.5,-35 640.5,-35 640.5,-1 533.5,-1"/>
<text text-anchor="start" x="541.5" y="-22" font-family="Helvetica,sans-Serif" font-size="10.00">src/expconfig/setups</text>
<text text-anchor="middle" x="587" y="-9" font-family="Helvetica,sans-Serif" font-size="10.00">/Setup_2017_03.cc</text>
</a>
</g>
<!-- Node54&#45;&gt;Node59 -->
<g id="edge10" class="edge"><title>Node54&#45;&gt;Node59</title>
<path fill="none" stroke="midnightblue" d="M443.253,-69.4913C473.643,-58.6055 510.551,-45.3846 539.36,-35.0651"/>
<polygon fill="midnightblue" stroke="midnightblue" points="441.868,-66.2697 433.634,-72.937 444.229,-72.8597 441.868,-66.2697"/>
</g>
<!-- Node60 -->
<g id="node13" class="node"><title>Node60</title>
<a xlink:href="expconfig__helpers_8cc.html" target="_top" xlink:title="test/expconfig_helpers.cc">
<polygon fill="white" stroke="black" points="658,-7.5 658,-28.5 786,-28.5 786,-7.5 658,-7.5"/>
<text text-anchor="middle" x="722" y="-15.5" font-family="Helvetica,sans-Serif" font-size="10.00">test/expconfig_helpers.cc</text>
</a>
</g>
<!-- Node54&#45;&gt;Node60 -->
<g id="edge12" class="edge"><title>Node54&#45;&gt;Node60</title>
<path fill="none" stroke="midnightblue" d="M454.63,-76.6749C507.792,-66.168 583.22,-50.8569 649,-36 659.186,-33.6994 670.135,-31.0789 680.375,-28.563"/>
<polygon fill="midnightblue" stroke="midnightblue" points="453.772,-73.2768 444.637,-78.6451 455.126,-80.1445 453.772,-73.2768"/>
</g>
</g>
</svg>
