<?xml version="1.0" encoding="UTF-8" standalone="no"?>
<!DOCTYPE svg PUBLIC "-//W3C//DTD SVG 1.1//EN"
 "http://www.w3.org/Graphics/SVG/1.1/DTD/svg11.dtd">
<!-- Generated by graphviz version 2.26.3 (20100126.1600)
 -->
<!-- Title: src/calibration/modules/TAPS_ToF.cc Pages: 1 -->
<svg width="3288pt" height="636pt"
 viewBox="0.00 0.00 3287.67 636.00" xmlns="http://www.w3.org/2000/svg" xmlns:xlink="http://www.w3.org/1999/xlink">
<g id="graph1" class="graph" transform="scale(1 1) rotate(0) translate(4 632)">
<title>src/calibration/modules/TAPS_ToF.cc</title>
<polygon fill="white" stroke="white" points="-4,5 -4,-632 3284.67,-632 3284.67,5 -4,5"/>
<!-- Node0 -->
<g id="node1" class="node"><title>Node0</title>
<polygon fill="#bfbfbf" stroke="black" points="2533.44,-593 2533.44,-627 2650.44,-627 2650.44,-593 2533.44,-593"/>
<text text-anchor="start" x="2541.44" y="-614" font-family="Helvetica,sans-Serif" font-size="10.00">src/calibration/modules</text>
<text text-anchor="middle" x="2591.94" y="-601" font-family="Helvetica,sans-Serif" font-size="10.00">/TAPS_ToF.cc</text>
</g>
<!-- Node1 -->
<g id="node3" class="node"><title>Node1</title>
<a xlink:href="_t_a_p_s___to_f_8h.html" target="_top" xlink:title="TAPS_ToF.h">
<polygon fill="white" stroke="black" points="1988.94,-404.5 1988.94,-425.5 2062.94,-425.5 2062.94,-404.5 1988.94,-404.5"/>
<text text-anchor="middle" x="2025.94" y="-412.5" font-family="Helvetica,sans-Serif" font-size="10.00">TAPS_ToF.h</text>
</a>
</g>
<!-- Node0&#45;&gt;Node1 -->
<g id="edge2" class="edge"><title>Node0&#45;&gt;Node1</title>
<path fill="none" stroke="midnightblue" d="M2542.2,-592.866C2431.65,-554.776 2167.27,-463.693 2066.18,-428.866"/>
<polygon fill="midnightblue" stroke="midnightblue" points="2067.23,-425.526 2056.64,-425.578 2064.95,-432.144 2067.23,-425.526"/>
</g>
<!-- Node14 -->
<g id="node31" class="node"><title>Node14</title>
<polygon fill="white" stroke="#bfbfbf" points="3194.94,-137.5 3194.94,-158.5 3240.94,-158.5 3240.94,-137.5 3194.94,-137.5"/>
<text text-anchor="middle" x="3217.94" y="-145.5" font-family="Helvetica,sans-Serif" font-size="10.00">cstdint</text>
</g>
<!-- Node0&#45;&gt;Node14 -->
<g id="edge340" class="edge"><title>Node0&#45;&gt;Node14</title>
<path fill="none" stroke="midnightblue" d="M2615.34,-592.732C2714.24,-519.739 3097.41,-236.953 3195.14,-164.822"/>
<polygon fill="midnightblue" stroke="midnightblue" points="3197.48,-167.449 3203.45,-158.695 3193.32,-161.817 3197.48,-167.449"/>
</g>
<!-- Node50 -->
<g id="node148" class="node"><title>Node50</title>
<a xlink:href="_cal_canvas_8h.html" target="_top" xlink:title="calibration/gui/CalCanvas.h">
<polygon fill="white" stroke="black" points="362.438,-281.5 362.438,-302.5 499.438,-302.5 499.438,-281.5 362.438,-281.5"/>
<text text-anchor="middle" x="430.938" y="-289.5" font-family="Helvetica,sans-Serif" font-size="10.00">calibration/gui/CalCanvas.h</text>
</a>
</g>
<!-- Node0&#45;&gt;Node50 -->
<g id="edge194" class="edge"><title>Node0&#45;&gt;Node50</title>
<path fill="none" stroke="midnightblue" d="M2533.26,-609.27C2196.07,-604.699 519.938,-576.759 519.938,-473 519.938,-473 519.938,-473 519.938,-415 519.938,-370.048 480.439,-330.401 454.069,-308.941"/>
<polygon fill="midnightblue" stroke="midnightblue" points="456.061,-306.055 446.035,-302.628 451.736,-311.559 456.061,-306.055"/>
</g>
<!-- Node56 -->
<g id="node175" class="node"><title>Node56</title>
<a xlink:href="_fit_landau_pol0_8h.html" target="_top" xlink:title="fitfunctions/FitLandauPol0.h">
<polygon fill="white" stroke="black" points="606.938,-346.5 606.938,-367.5 744.938,-367.5 744.938,-346.5 606.938,-346.5"/>
<text text-anchor="middle" x="675.938" y="-354.5" font-family="Helvetica,sans-Serif" font-size="10.00">fitfunctions/FitLandauPol0.h</text>
</a>
</g>
<!-- Node0&#45;&gt;Node56 -->
<g id="edge236" class="edge"><title>Node0&#45;&gt;Node56</title>
<path fill="none" stroke="midnightblue" d="M2533.21,-606.62C2318.37,-593.591 1555.4,-541.475 936.938,-426 859.189,-411.483 770.532,-386.123 719.131,-370.523"/>
<polygon fill="midnightblue" stroke="midnightblue" points="719.948,-367.113 709.362,-367.539 717.903,-373.807 719.948,-367.113"/>
</g>
<!-- Node57 -->
<g id="node178" class="node"><title>Node57</title>
<a xlink:href="_data_manager_8h.html" target="_top" xlink:title="DataManager.h">
<polygon fill="white" stroke="black" points="1654.44,-404.5 1654.44,-425.5 1737.44,-425.5 1737.44,-404.5 1654.44,-404.5"/>
<text text-anchor="middle" x="1695.94" y="-412.5" font-family="Helvetica,sans-Serif" font-size="10.00">DataManager.h</text>
</a>
</g>
<!-- Node0&#45;&gt;Node57 -->
<g id="edge240" class="edge"><title>Node0&#45;&gt;Node57</title>
<path fill="none" stroke="midnightblue" d="M2533.35,-598.196C2480.22,-587.427 2399.76,-570.958 2329.94,-556 2113.38,-509.605 1855.91,-451.401 1747.79,-426.82"/>
<polygon fill="midnightblue" stroke="midnightblue" points="1748.33,-423.353 1737.8,-424.548 1746.78,-430.178 1748.33,-423.353"/>
</g>
<!-- Node58 -->
<g id="node184" class="node"><title>Node58</title>
<a xlink:href="_t_calibration_data_8h.html" target="_top" xlink:title="tree/TCalibrationData.h">
<polygon fill="white" stroke="black" points="71.9377,-281.5 71.9377,-302.5 189.938,-302.5 189.938,-281.5 71.9377,-281.5"/>
<text text-anchor="middle" x="130.938" y="-289.5" font-family="Helvetica,sans-Serif" font-size="10.00">tree/TCalibrationData.h</text>
</a>
</g>
<!-- Node0&#45;&gt;Node58 -->
<g id="edge250" class="edge"><title>Node0&#45;&gt;Node58</title>
<path fill="none" stroke="midnightblue" d="M2532.94,-609.068C2229.17,-604.172 848.378,-580.718 658.938,-556 499.554,-535.204 306.938,-633.735 306.938,-473 306.938,-473 306.938,-473 306.938,-415 306.938,-355.114 237.631,-321.952 186.001,-305.557"/>
<polygon fill="midnightblue" stroke="midnightblue" points="186.848,-302.156 176.262,-302.593 184.81,-308.853 186.848,-302.156"/>
</g>
<!-- Node60 -->
<g id="node192" class="node"><title>Node60</title>
<a xlink:href="_t_a_p_s_8h.html" target="_top" xlink:title="expconfig/detectors\l/TAPS.h">
<polygon fill="white" stroke="black" points="2540.94,-521 2540.94,-555 2642.94,-555 2642.94,-521 2540.94,-521"/>
<text text-anchor="start" x="2548.94" y="-542" font-family="Helvetica,sans-Serif" font-size="10.00">expconfig/detectors</text>
<text text-anchor="middle" x="2591.94" y="-529" font-family="Helvetica,sans-Serif" font-size="10.00">/TAPS.h</text>
</a>
</g>
<!-- Node0&#45;&gt;Node60 -->
<g id="edge262" class="edge"><title>Node0&#45;&gt;Node60</title>
<path fill="none" stroke="midnightblue" d="M2591.94,-592.937C2591.94,-584.807 2591.94,-574.876 2591.94,-565.705"/>
<polygon fill="midnightblue" stroke="midnightblue" points="2595.44,-565.441 2591.94,-555.441 2588.44,-565.441 2595.44,-565.441"/>
</g>
<!-- Node70 -->
<g id="node236" class="node"><title>Node70</title>
<a xlink:href="_logger_8h.html" target="_top" xlink:title="base/Logger.h">
<polygon fill="white" stroke="black" points="2826.94,-527.5 2826.94,-548.5 2904.94,-548.5 2904.94,-527.5 2826.94,-527.5"/>
<text text-anchor="middle" x="2865.94" y="-535.5" font-family="Helvetica,sans-Serif" font-size="10.00">base/Logger.h</text>
</a>
</g>
<!-- Node0&#45;&gt;Node70 -->
<g id="edge330" class="edge"><title>Node0&#45;&gt;Node70</title>
<path fill="none" stroke="midnightblue" d="M2650.47,-597.172C2695.23,-587.008 2758.33,-571.91 2812.94,-556 2817.36,-554.711 2821.96,-553.283 2826.53,-551.81"/>
<polygon fill="midnightblue" stroke="midnightblue" points="2827.98,-555.017 2836.37,-548.553 2825.78,-548.371 2827.98,-555.017"/>
</g>
<!-- Node72 -->
<g id="node240" class="node"><title>Node72</title>
<polygon fill="white" stroke="#bfbfbf" points="2922.94,-527.5 2922.94,-548.5 2964.94,-548.5 2964.94,-527.5 2922.94,-527.5"/>
<text text-anchor="middle" x="2943.94" y="-535.5" font-family="Helvetica,sans-Serif" font-size="10.00">TF1.h</text>
</g>
<!-- Node0&#45;&gt;Node72 -->
<g id="edge334" class="edge"><title>Node0&#45;&gt;Node72</title>
<path fill="none" stroke="midnightblue" d="M2650.61,-606.741C2716.47,-601.596 2825.65,-588.555 2913.94,-556 2915.86,-555.291 2917.8,-554.456 2919.71,-553.54"/>
<polygon fill="midnightblue" stroke="midnightblue" points="2921.83,-556.373 2928.92,-548.504 2918.47,-550.231 2921.83,-556.373"/>
</g>
<!-- Node73 -->
<g id="node242" class="node"><title>Node73</title>
<polygon fill="white" stroke="#bfbfbf" points="2982.44,-527.5 2982.44,-548.5 3033.44,-548.5 3033.44,-527.5 2982.44,-527.5"/>
<text text-anchor="middle" x="3007.94" y="-535.5" font-family="Helvetica,sans-Serif" font-size="10.00">TH1D.h</text>
</g>
<!-- Node0&#45;&gt;Node73 -->
<g id="edge336" class="edge"><title>Node0&#45;&gt;Node73</title>
<path fill="none" stroke="midnightblue" d="M2650.62,-607.979C2726.84,-603.948 2863.24,-591.907 2973.94,-556 2976.53,-555.16 2979.16,-554.13 2981.74,-552.993"/>
<polygon fill="midnightblue" stroke="midnightblue" points="2983.37,-556.097 2990.8,-548.551 2980.28,-549.812 2983.37,-556.097"/>
</g>
<!-- Node74 -->
<g id="node244" class="node"><title>Node74</title>
<polygon fill="white" stroke="#bfbfbf" points="3050.44,-527.5 3050.44,-548.5 3101.44,-548.5 3101.44,-527.5 3050.44,-527.5"/>
<text text-anchor="middle" x="3075.94" y="-535.5" font-family="Helvetica,sans-Serif" font-size="10.00">TH2D.h</text>
</g>
<!-- Node0&#45;&gt;Node74 -->
<g id="edge338" class="edge"><title>Node0&#45;&gt;Node74</title>
<path fill="none" stroke="midnightblue" d="M2650.78,-605.63C2755.59,-597.402 2970.31,-578.404 3041.94,-556 3044.54,-555.187 3047.17,-554.176 3049.76,-553.051"/>
<polygon fill="midnightblue" stroke="midnightblue" points="3051.38,-556.159 3058.83,-548.626 3048.3,-549.868 3051.38,-556.159"/>
</g>
<!-- Node2 -->
<g id="node5" class="node"><title>Node2</title>
<a xlink:href="_calibration_8h.html" target="_top" xlink:title="calibration/Calibration.h">
<polygon fill="white" stroke="black" points="1792.44,-346.5 1792.44,-367.5 1911.44,-367.5 1911.44,-346.5 1792.44,-346.5"/>
<text text-anchor="middle" x="1851.94" y="-354.5" font-family="Helvetica,sans-Serif" font-size="10.00">calibration/Calibration.h</text>
</a>
</g>
<!-- Node1&#45;&gt;Node2 -->
<g id="edge4" class="edge"><title>Node1&#45;&gt;Node2</title>
<path fill="none" stroke="midnightblue" d="M1994.43,-404.497C1966.06,-395.041 1924.19,-381.083 1893.17,-370.743"/>
<polygon fill="midnightblue" stroke="midnightblue" points="1894.1,-367.365 1883.51,-367.523 1891.89,-374.006 1894.1,-367.365"/>
</g>
<!-- Node4 -->
<g id="node9" class="node"><title>Node4</title>
<a xlink:href="_detector__t_8h.html" target="_top" xlink:title="base/Detector_t.h">
<polygon fill="white" stroke="black" points="2582.44,-209.5 2582.44,-230.5 2677.44,-230.5 2677.44,-209.5 2582.44,-209.5"/>
<text text-anchor="middle" x="2629.94" y="-217.5" font-family="Helvetica,sans-Serif" font-size="10.00">base/Detector_t.h</text>
</a>
</g>
<!-- Node1&#45;&gt;Node4 -->
<g id="edge188" class="edge"><title>Node1&#45;&gt;Node4</title>
<path fill="none" stroke="midnightblue" d="M2063.07,-413.3C2122.73,-409.721 2243.07,-398.986 2339.94,-368 2394.08,-350.679 2403.3,-335.83 2453.94,-310 2505.36,-283.774 2565.18,-253.161 2600.17,-235.246"/>
<polygon fill="midnightblue" stroke="midnightblue" points="2602.05,-238.217 2609.35,-230.544 2598.86,-231.986 2602.05,-238.217"/>
</g>
<!-- Node11 -->
<g id="node24" class="node"><title>Node11</title>
<a xlink:href="base_2std__ext_2math_8h.html" target="_top" xlink:title="base/std_ext/math.h">
<polygon fill="white" stroke="black" points="2582.94,-137.5 2582.94,-158.5 2688.94,-158.5 2688.94,-137.5 2582.94,-137.5"/>
<text text-anchor="middle" x="2635.94" y="-145.5" font-family="Helvetica,sans-Serif" font-size="10.00">base/std_ext/math.h</text>
</a>
</g>
<!-- Node1&#45;&gt;Node11 -->
<g id="edge186" class="edge"><title>Node1&#45;&gt;Node11</title>
<path fill="none" stroke="midnightblue" d="M2063.14,-405.24C2123.54,-388.847 2246.14,-353.29 2344.94,-310 2447.43,-265.09 2561.26,-195.5 2610.72,-164.21"/>
<polygon fill="midnightblue" stroke="midnightblue" points="2612.9,-166.973 2619.46,-158.655 2609.14,-161.066 2612.9,-166.973"/>
</g>
<!-- Node20 -->
<g id="node44" class="node"><title>Node20</title>
<polygon fill="white" stroke="#bfbfbf" points="2000.94,-65.5 2000.94,-86.5 2052.94,-86.5 2052.94,-65.5 2000.94,-65.5"/>
<text text-anchor="middle" x="2026.94" y="-73.5" font-family="Helvetica,sans-Serif" font-size="10.00">memory</text>
</g>
<!-- Node1&#45;&gt;Node20 -->
<g id="edge192" class="edge"><title>Node1&#45;&gt;Node20</title>
<path fill="none" stroke="midnightblue" d="M2029.92,-404.314C2037.43,-383.18 2052.94,-334.413 2052.94,-292 2052.94,-292 2052.94,-292 2052.94,-220 2052.94,-175.37 2040.69,-124.18 2033.01,-96.4508"/>
<polygon fill="midnightblue" stroke="midnightblue" points="2036.34,-95.3733 2030.23,-86.7189 2029.61,-97.2956 2036.34,-95.3733"/>
</g>
<!-- Node27 -->
<g id="node66" class="node"><title>Node27</title>
<a xlink:href="interval_8h.html" target="_top" xlink:title="base/interval.h">
<polygon fill="white" stroke="black" points="1868.94,-137.5 1868.94,-158.5 1948.94,-158.5 1948.94,-137.5 1868.94,-137.5"/>
<text text-anchor="middle" x="1908.94" y="-145.5" font-family="Helvetica,sans-Serif" font-size="10.00">base/interval.h</text>
</a>
</g>
<!-- Node1&#45;&gt;Node27 -->
<g id="edge190" class="edge"><title>Node1&#45;&gt;Node27</title>
<path fill="none" stroke="midnightblue" d="M2021.21,-404.203C2003.49,-363.776 1940.91,-220.971 1917.69,-167.982"/>
<polygon fill="midnightblue" stroke="midnightblue" points="1920.82,-166.394 1913.6,-158.639 1914.41,-169.203 1920.82,-166.394"/>
</g>
<!-- Node3 -->
<g id="node7" class="node"><title>Node3</title>
<a xlink:href="_reconstruct__traits_8h.html" target="_top" xlink:title="reconstruct/Reconstruct\l_traits.h">
<polygon fill="white" stroke="black" points="2213.94,-275 2213.94,-309 2335.94,-309 2335.94,-275 2213.94,-275"/>
<text text-anchor="start" x="2221.94" y="-296" font-family="Helvetica,sans-Serif" font-size="10.00">reconstruct/Reconstruct</text>
<text text-anchor="middle" x="2274.94" y="-283" font-family="Helvetica,sans-Serif" font-size="10.00">_traits.h</text>
</a>
</g>
<!-- Node2&#45;&gt;Node3 -->
<g id="edge6" class="edge"><title>Node2&#45;&gt;Node3</title>
<path fill="none" stroke="midnightblue" d="M1911.65,-347.825C1988.49,-336.017 2121.84,-315.526 2203.83,-302.926"/>
<polygon fill="midnightblue" stroke="midnightblue" points="2204.47,-306.37 2213.82,-301.392 2203.4,-299.451 2204.47,-306.37"/>
</g>
<!-- Node13 -->
<g id="node29" class="node"><title>Node13</title>
<polygon fill="white" stroke="#bfbfbf" points="2976.94,-0.5 2976.94,-21.5 3020.94,-21.5 3020.94,-0.5 2976.94,-0.5"/>
<text text-anchor="middle" x="2998.94" y="-8.5" font-family="Helvetica,sans-Serif" font-size="10.00">vector</text>
</g>
<!-- Node2&#45;&gt;Node13 -->
<g id="edge184" class="edge"><title>Node2&#45;&gt;Node13</title>
<path fill="none" stroke="midnightblue" d="M1911.84,-353.876C2024.73,-347.562 2264.82,-331.988 2344.94,-310 2453.45,-280.217 2465.25,-231.158 2573.94,-202 2666.55,-177.154 2930.89,-228.116 3003.94,-166 3041.01,-134.477 3032.92,-105.408 3021.94,-58 3019.73,-48.4584 3015.3,-38.6176 3010.91,-30.4219"/>
<polygon fill="midnightblue" stroke="midnightblue" points="3013.92,-28.6228 3005.92,-21.673 3007.84,-32.0929 3013.92,-28.6228"/>
</g>
<!-- Node26 -->
<g id="node64" class="node"><title>Node26</title>
<a xlink:href="_manager__traits_8h.html" target="_top" xlink:title="calibration/gui/Manager\l_traits.h">
<polygon fill="white" stroke="black" points="1548.44,-275 1548.44,-309 1665.44,-309 1665.44,-275 1548.44,-275"/>
<text text-anchor="start" x="1556.44" y="-296" font-family="Helvetica,sans-Serif" font-size="10.00">calibration/gui/Manager</text>
<text text-anchor="middle" x="1606.94" y="-283" font-family="Helvetica,sans-Serif" font-size="10.00">_traits.h</text>
</a>
</g>
<!-- Node2&#45;&gt;Node26 -->
<g id="edge74" class="edge"><title>Node2&#45;&gt;Node26</title>
<path fill="none" stroke="midnightblue" d="M1812.3,-346.484C1775.41,-336.697 1719.64,-321.902 1675.53,-310.198"/>
<polygon fill="midnightblue" stroke="midnightblue" points="1676.3,-306.78 1665.73,-307.599 1674.5,-313.546 1676.3,-306.78"/>
</g>
<!-- Node49 -->
<g id="node136" class="node"><title>Node49</title>
<a xlink:href="_options_list_8h.html" target="_top" xlink:title="base/OptionsList.h">
<polygon fill="white" stroke="black" points="1104.94,-281.5 1104.94,-302.5 1202.94,-302.5 1202.94,-281.5 1104.94,-281.5"/>
<text text-anchor="middle" x="1153.94" y="-289.5" font-family="Helvetica,sans-Serif" font-size="10.00">base/OptionsList.h</text>
</a>
</g>
<!-- Node2&#45;&gt;Node49 -->
<g id="edge172" class="edge"><title>Node2&#45;&gt;Node49</title>
<path fill="none" stroke="midnightblue" d="M1792.43,-351.458C1660.66,-339.188 1345.54,-309.843 1213.62,-297.558"/>
<polygon fill="midnightblue" stroke="midnightblue" points="1213.59,-294.04 1203.31,-296.598 1212.94,-301.01 1213.59,-294.04"/>
</g>
<!-- Node3&#45;&gt;Node4 -->
<g id="edge8" class="edge"><title>Node3&#45;&gt;Node4</title>
<path fill="none" stroke="midnightblue" d="M2335.96,-279.623C2402.2,-266.189 2507.18,-244.897 2572.13,-231.724"/>
<polygon fill="midnightblue" stroke="midnightblue" points="2573.09,-235.1 2582.2,-229.682 2571.7,-228.24 2573.09,-235.1"/>
</g>
<!-- Node18 -->
<g id="node40" class="node"><title>Node18</title>
<a xlink:href="mapped__vectors_8h.html" target="_top" xlink:title="base/std_ext/mapped\l_vectors.h">
<polygon fill="white" stroke="black" points="2232.94,-203 2232.94,-237 2342.94,-237 2342.94,-203 2232.94,-203"/>
<text text-anchor="start" x="2240.94" y="-224" font-family="Helvetica,sans-Serif" font-size="10.00">base/std_ext/mapped</text>
<text text-anchor="middle" x="2287.94" y="-211" font-family="Helvetica,sans-Serif" font-size="10.00">_vectors.h</text>
</a>
</g>
<!-- Node3&#45;&gt;Node18 -->
<g id="edge42" class="edge"><title>Node3&#45;&gt;Node18</title>
<path fill="none" stroke="midnightblue" d="M2278.02,-274.937C2279.5,-266.719 2281.32,-256.66 2282.99,-247.406"/>
<polygon fill="midnightblue" stroke="midnightblue" points="2286.46,-247.903 2284.79,-237.441 2279.57,-246.66 2286.46,-247.903"/>
</g>
<!-- Node3&#45;&gt;Node20 -->
<g id="edge66" class="edge"><title>Node3&#45;&gt;Node20</title>
<path fill="none" stroke="midnightblue" d="M2238.79,-274.911C2222.5,-265.785 2204.03,-253.266 2190.94,-238 2156.74,-198.126 2179.75,-167.465 2142.94,-130 2120.95,-107.62 2087.91,-93.4971 2062.71,-85.3328"/>
<polygon fill="midnightblue" stroke="midnightblue" points="2063.72,-81.9818 2053.13,-82.3911 2061.66,-88.6732 2063.72,-81.9818"/>
</g>
<!-- Node21 -->
<g id="node46" class="node"><title>Node21</title>
<polygon fill="white" stroke="#bfbfbf" points="1538.44,-65.5 1538.44,-86.5 1567.44,-86.5 1567.44,-65.5 1538.44,-65.5"/>
<text text-anchor="middle" x="1552.94" y="-73.5" font-family="Helvetica,sans-Serif" font-size="10.00">list</text>
</g>
<!-- Node3&#45;&gt;Node21 -->
<g id="edge70" class="edge"><title>Node3&#45;&gt;Node21</title>
<path fill="none" stroke="midnightblue" d="M2213.71,-282.92C2046.87,-257.929 1595.14,-188.497 1571.94,-166 1553.56,-148.177 1550.75,-117.383 1551.21,-96.8522"/>
<polygon fill="midnightblue" stroke="midnightblue" points="1554.72,-96.8143 1551.73,-86.6497 1547.73,-96.4593 1554.72,-96.8143"/>
</g>
<!-- Node22 -->
<g id="node51" class="node"><title>Node22</title>
<a xlink:href="shared__ptr__container_8h.html" target="_top" xlink:title="base/std_ext/shared\l_ptr_container.h">
<polygon fill="white" stroke="black" points="2270.44,-131 2270.44,-165 2375.44,-165 2375.44,-131 2270.44,-131"/>
<text text-anchor="start" x="2278.44" y="-152" font-family="Helvetica,sans-Serif" font-size="10.00">base/std_ext/shared</text>
<text text-anchor="middle" x="2322.94" y="-139" font-family="Helvetica,sans-Serif" font-size="10.00">_ptr_container.h</text>
</a>
</g>
<!-- Node3&#45;&gt;Node22 -->
<g id="edge56" class="edge"><title>Node3&#45;&gt;Node22</title>
<path fill="none" stroke="midnightblue" d="M2313.42,-274.89C2328.27,-266.145 2343.65,-253.934 2351.94,-238 2362.61,-217.474 2352.74,-192.27 2341.72,-173.761"/>
<polygon fill="midnightblue" stroke="midnightblue" points="2344.62,-171.81 2336.29,-165.262 2338.72,-175.575 2344.62,-171.81"/>
</g>
<!-- Node23 -->
<g id="node55" class="node"><title>Node23</title>
<polygon fill="white" stroke="#bfbfbf" points="1885.44,-0.5 1885.44,-21.5 1944.44,-21.5 1944.44,-0.5 1885.44,-0.5"/>
<text text-anchor="middle" x="1914.94" y="-8.5" font-family="Helvetica,sans-Serif" font-size="10.00">functional</text>
</g>
<!-- Node3&#45;&gt;Node23 -->
<g id="edge72" class="edge"><title>Node3&#45;&gt;Node23</title>
<path fill="none" stroke="midnightblue" d="M2256.12,-274.615C2245.85,-264.535 2233.35,-251.247 2223.94,-238 2192.63,-193.919 2203.84,-170.426 2167.94,-130 2163.21,-124.677 2068.34,-61.1161 2061.94,-58 2027.09,-41.0356 1984.69,-28.2368 1954.4,-20.3122"/>
<polygon fill="midnightblue" stroke="midnightblue" points="1955.18,-16.8979 1944.62,-17.8127 1953.44,-23.6799 1955.18,-16.8979"/>
</g>
<!-- Node25 -->
<g id="node60" class="node"><title>Node25</title>
<polygon fill="white" stroke="#bfbfbf" points="2398.44,-209.5 2398.44,-230.5 2433.44,-230.5 2433.44,-209.5 2398.44,-209.5"/>
<text text-anchor="middle" x="2415.94" y="-217.5" font-family="Helvetica,sans-Serif" font-size="10.00">map</text>
</g>
<!-- Node3&#45;&gt;Node25 -->
<g id="edge68" class="edge"><title>Node3&#45;&gt;Node25</title>
<path fill="none" stroke="midnightblue" d="M2311.18,-274.994C2332.78,-264.661 2360.64,-250.995 2384.94,-238 2386.45,-237.193 2387.99,-236.351 2389.54,-235.492"/>
<polygon fill="midnightblue" stroke="midnightblue" points="2391.38,-238.473 2398.35,-230.495 2387.93,-232.383 2391.38,-238.473"/>
</g>
<!-- Node5 -->
<g id="node11" class="node"><title>Node5</title>
<a xlink:href="bitflag_8h.html" target="_top" xlink:title="base/bitflag.h">
<polygon fill="white" stroke="black" points="3064.44,-137.5 3064.44,-158.5 3139.44,-158.5 3139.44,-137.5 3064.44,-137.5"/>
<text text-anchor="middle" x="3101.94" y="-145.5" font-family="Helvetica,sans-Serif" font-size="10.00">base/bitflag.h</text>
</a>
</g>
<!-- Node4&#45;&gt;Node5 -->
<g id="edge10" class="edge"><title>Node4&#45;&gt;Node5</title>
<path fill="none" stroke="midnightblue" d="M2658.69,-209.466C2667.35,-206.647 2676.94,-203.868 2685.94,-202 2845.55,-168.872 2891.81,-201.383 3050.94,-166 3055.96,-164.882 3061.18,-163.417 3066.27,-161.805"/>
<polygon fill="midnightblue" stroke="midnightblue" points="3067.47,-165.094 3075.82,-158.576 3065.23,-158.463 3067.47,-165.094"/>
</g>
<!-- Node7 -->
<g id="node15" class="node"><title>Node7</title>
<a xlink:href="vec3_8h.html" target="_top" xlink:title="base/vec/vec3.h">
<polygon fill="white" stroke="black" points="2744.44,-137.5 2744.44,-158.5 2833.44,-158.5 2833.44,-137.5 2744.44,-137.5"/>
<text text-anchor="middle" x="2788.94" y="-145.5" font-family="Helvetica,sans-Serif" font-size="10.00">base/vec/vec3.h</text>
</a>
</g>
<!-- Node4&#45;&gt;Node7 -->
<g id="edge14" class="edge"><title>Node4&#45;&gt;Node7</title>
<path fill="none" stroke="midnightblue" d="M2653.4,-209.376C2680.6,-197.057 2725.62,-176.673 2756.24,-162.805"/>
<polygon fill="midnightblue" stroke="midnightblue" points="2757.97,-165.864 2765.64,-158.55 2755.09,-159.487 2757.97,-165.864"/>
</g>
<!-- Node4&#45;&gt;Node11 -->
<g id="edge24" class="edge"><title>Node4&#45;&gt;Node11</title>
<path fill="none" stroke="midnightblue" d="M2630.82,-209.376C2631.71,-198.741 2633.1,-182.095 2634.2,-168.82"/>
<polygon fill="midnightblue" stroke="midnightblue" points="2637.71,-168.924 2635.05,-158.667 2630.73,-168.342 2637.71,-168.924"/>
</g>
<!-- Node4&#45;&gt;Node13 -->
<g id="edge40" class="edge"><title>Node4&#45;&gt;Node13</title>
<path fill="none" stroke="midnightblue" d="M2658.38,-209.443C2667.11,-206.588 2676.82,-203.795 2685.94,-202 2736.46,-192.054 3112.97,-203.796 3147.94,-166 3166.55,-145.882 3142.84,-71.2929 3130.94,-58 3105.39,-29.4687 3061.34,-18.2544 3031.21,-13.8483"/>
<polygon fill="midnightblue" stroke="midnightblue" points="3031.55,-10.3634 3021.19,-12.5566 3030.66,-17.306 3031.55,-10.3634"/>
</g>
<!-- Node4&#45;&gt;Node14 -->
<g id="edge32" class="edge"><title>Node4&#45;&gt;Node14</title>
<path fill="none" stroke="midnightblue" d="M2658.37,-209.414C2667.1,-206.558 2676.82,-203.771 2685.94,-202 2902.47,-159.952 2967.92,-223.28 3180.94,-166 3184.11,-165.147 3187.34,-164.019 3190.5,-162.743"/>
<polygon fill="midnightblue" stroke="midnightblue" points="3191.99,-165.91 3199.65,-158.596 3189.1,-159.534 3191.99,-165.91"/>
</g>
<!-- Node15 -->
<g id="node33" class="node"><title>Node15</title>
<polygon fill="white" stroke="#bfbfbf" points="1754.44,-65.5 1754.44,-86.5 1813.44,-86.5 1813.44,-65.5 1754.44,-65.5"/>
<text text-anchor="middle" x="1783.94" y="-73.5" font-family="Helvetica,sans-Serif" font-size="10.00">stdexcept</text>
</g>
<!-- Node4&#45;&gt;Node15 -->
<g id="edge34" class="edge"><title>Node4&#45;&gt;Node15</title>
<path fill="none" stroke="midnightblue" d="M2582.07,-214.968C2544.1,-211.085 2489.66,-205.759 2441.94,-202 2377.35,-196.912 1917.83,-195.091 1859.94,-166 1829.51,-150.711 1806.52,-117.239 1794.15,-95.7033"/>
<polygon fill="midnightblue" stroke="midnightblue" points="1797.12,-93.8329 1789.23,-86.7568 1790.99,-97.2058 1797.12,-93.8329"/>
</g>
<!-- Node16 -->
<g id="node35" class="node"><title>Node16</title>
<polygon fill="white" stroke="#bfbfbf" points="484.438,-0.5 484.438,-21.5 525.438,-21.5 525.438,-0.5 484.438,-0.5"/>
<text text-anchor="middle" x="504.938" y="-8.5" font-family="Helvetica,sans-Serif" font-size="10.00">string</text>
</g>
<!-- Node4&#45;&gt;Node16 -->
<g id="edge36" class="edge"><title>Node4&#45;&gt;Node16</title>
<path fill="none" stroke="midnightblue" d="M2582.1,-214.501C2544.15,-210.36 2489.72,-204.915 2441.94,-202 2366.39,-197.39 1149.88,-194.946 1079.94,-166 1058.44,-157.103 1062.7,-140.491 1041.94,-130 960.933,-89.0764 920.45,-137.752 840.938,-94 821.921,-83.5362 827.075,-68.2412 807.938,-58 761.047,-32.9066 602.767,-18.3523 535.545,-13.1721"/>
<polygon fill="midnightblue" stroke="midnightblue" points="535.803,-9.68179 525.569,-12.4211 535.278,-16.662 535.803,-9.68179"/>
</g>
<!-- Node17 -->
<g id="node37" class="node"><title>Node17</title>
<polygon fill="white" stroke="#bfbfbf" points="2588.94,-65.5 2588.94,-86.5 2650.94,-86.5 2650.94,-65.5 2588.94,-65.5"/>
<text text-anchor="middle" x="2619.94" y="-73.5" font-family="Helvetica,sans-Serif" font-size="10.00">type_traits</text>
</g>
<!-- Node4&#45;&gt;Node17 -->
<g id="edge38" class="edge"><title>Node4&#45;&gt;Node17</title>
<path fill="none" stroke="midnightblue" d="M2651.84,-209.45C2667.88,-200.394 2688.43,-185.685 2697.94,-166 2704.89,-151.592 2705.36,-144.172 2697.94,-130 2688.99,-112.926 2671.92,-100.178 2656.03,-91.3682"/>
<polygon fill="midnightblue" stroke="midnightblue" points="2657.37,-88.1196 2646.88,-86.6334 2654.15,-94.3369 2657.37,-88.1196"/>
</g>
<!-- Node6 -->
<g id="node13" class="node"><title>Node6</title>
<polygon fill="white" stroke="#bfbfbf" points="3081.44,-65.5 3081.44,-86.5 3122.44,-86.5 3122.44,-65.5 3081.44,-65.5"/>
<text text-anchor="middle" x="3101.94" y="-73.5" font-family="Helvetica,sans-Serif" font-size="10.00">bitset</text>
</g>
<!-- Node5&#45;&gt;Node6 -->
<g id="edge12" class="edge"><title>Node5&#45;&gt;Node6</title>
<path fill="none" stroke="midnightblue" d="M3101.94,-137.376C3101.94,-126.741 3101.94,-110.095 3101.94,-96.8195"/>
<polygon fill="midnightblue" stroke="midnightblue" points="3105.44,-96.6674 3101.94,-86.6674 3098.44,-96.6675 3105.44,-96.6674"/>
</g>
<!-- Node8 -->
<g id="node17" class="node"><title>Node8</title>
<a xlink:href="vec2_8h.html" target="_top" xlink:title="vec2.h">
<polygon fill="white" stroke="black" points="2744.94,-65.5 2744.94,-86.5 2790.94,-86.5 2790.94,-65.5 2744.94,-65.5"/>
<text text-anchor="middle" x="2767.94" y="-73.5" font-family="Helvetica,sans-Serif" font-size="10.00">vec2.h</text>
</a>
</g>
<!-- Node7&#45;&gt;Node8 -->
<g id="edge16" class="edge"><title>Node7&#45;&gt;Node8</title>
<path fill="none" stroke="midnightblue" d="M2785.84,-137.376C2782.71,-126.635 2777.78,-109.761 2773.89,-96.4223"/>
<polygon fill="midnightblue" stroke="midnightblue" points="2777.21,-95.2874 2771.05,-86.6674 2770.49,-97.2475 2777.21,-95.2874"/>
</g>
<!-- Node9 -->
<g id="node19" class="node"><title>Node9</title>
<polygon fill="white" stroke="#bfbfbf" points="2538.94,-0.5 2538.94,-21.5 2582.94,-21.5 2582.94,-0.5 2538.94,-0.5"/>
<text text-anchor="middle" x="2560.94" y="-8.5" font-family="Helvetica,sans-Serif" font-size="10.00">cmath</text>
</g>
<!-- Node7&#45;&gt;Node9 -->
<g id="edge22" class="edge"><title>Node7&#45;&gt;Node9</title>
<path fill="none" stroke="midnightblue" d="M2775.5,-137.5C2752.57,-119.848 2704.1,-83.6478 2659.94,-58 2638.02,-45.2712 2612.11,-33.064 2592.29,-24.2817"/>
<polygon fill="midnightblue" stroke="midnightblue" points="2593.66,-21.0609 2583.1,-20.2582 2590.86,-27.4737 2593.66,-21.0609"/>
</g>
<!-- Node10 -->
<g id="node21" class="node"><title>Node10</title>
<polygon fill="white" stroke="#bfbfbf" points="2808.94,-65.5 2808.94,-86.5 2860.94,-86.5 2860.94,-65.5 2808.94,-65.5"/>
<text text-anchor="middle" x="2834.94" y="-73.5" font-family="Helvetica,sans-Serif" font-size="10.00">ostream</text>
</g>
<!-- Node7&#45;&gt;Node10 -->
<g id="edge20" class="edge"><title>Node7&#45;&gt;Node10</title>
<path fill="none" stroke="midnightblue" d="M2795.73,-137.376C2802.79,-126.316 2814.01,-108.753 2822.64,-95.2433"/>
<polygon fill="midnightblue" stroke="midnightblue" points="2825.69,-96.9788 2828.12,-86.6674 2819.79,-93.21 2825.69,-96.9788"/>
</g>
<!-- Node8&#45;&gt;Node9 -->
<g id="edge18" class="edge"><title>Node8&#45;&gt;Node9</title>
<path fill="none" stroke="midnightblue" d="M2744.59,-68.67C2707.38,-56.9838 2634.54,-34.1104 2592.64,-20.9541"/>
<polygon fill="midnightblue" stroke="midnightblue" points="2593.53,-17.5664 2582.94,-17.9097 2591.43,-24.2449 2593.53,-17.5664"/>
</g>
<!-- Node11&#45;&gt;Node9 -->
<g id="edge26" class="edge"><title>Node11&#45;&gt;Node9</title>
<path fill="none" stroke="midnightblue" d="M2620.72,-137.354C2607.89,-127.559 2590.04,-111.873 2579.94,-94 2569.02,-74.6798 2564.37,-49.4778 2562.4,-31.9356"/>
<polygon fill="midnightblue" stroke="midnightblue" points="2565.85,-31.2873 2561.45,-21.6527 2558.88,-31.9329 2565.85,-31.2873"/>
</g>
<!-- Node12 -->
<g id="node27" class="node"><title>Node12</title>
<polygon fill="white" stroke="#bfbfbf" points="2458.94,-65.5 2458.94,-86.5 2498.94,-86.5 2498.94,-65.5 2458.94,-65.5"/>
<text text-anchor="middle" x="2478.94" y="-73.5" font-family="Helvetica,sans-Serif" font-size="10.00">limits</text>
</g>
<!-- Node11&#45;&gt;Node12 -->
<g id="edge28" class="edge"><title>Node11&#45;&gt;Node12</title>
<path fill="none" stroke="midnightblue" d="M2612.77,-137.376C2585.06,-124.669 2538.64,-103.38 2508.41,-89.5138"/>
<polygon fill="midnightblue" stroke="midnightblue" points="2509.75,-86.2801 2499.2,-85.2929 2506.83,-92.6429 2509.75,-86.2801"/>
</g>
<!-- Node11&#45;&gt;Node13 -->
<g id="edge30" class="edge"><title>Node11&#45;&gt;Node13</title>
<path fill="none" stroke="midnightblue" d="M2644.24,-137.306C2659.89,-117.987 2695.8,-77.4727 2735.94,-58 2820.74,-16.8577 2852.3,-39.409 2944.94,-22 2952.1,-20.6548 2959.77,-19.1369 2967.02,-17.6681"/>
<polygon fill="midnightblue" stroke="midnightblue" points="2967.8,-21.0814 2976.9,-15.6472 2966.4,-14.2235 2967.8,-21.0814"/>
</g>
<!-- Node18&#45;&gt;Node13 -->
<g id="edge50" class="edge"><title>Node18&#45;&gt;Node13</title>
<path fill="none" stroke="midnightblue" d="M2343.09,-209.087C2358.22,-206.415 2374.67,-203.807 2389.94,-202 2455.16,-194.281 2932.1,-211.002 2979.94,-166 3016.66,-131.452 3010.06,-65.2973 3003.69,-31.6918"/>
<polygon fill="midnightblue" stroke="midnightblue" points="3007.07,-30.7168 3001.61,-21.6356 3000.21,-32.138 3007.07,-30.7168"/>
</g>
<!-- Node18&#45;&gt;Node17 -->
<g id="edge54" class="edge"><title>Node18&#45;&gt;Node17</title>
<path fill="none" stroke="midnightblue" d="M2343.03,-205.003C2376.05,-195.327 2418.55,-181.646 2454.94,-166 2506.23,-143.947 2562.67,-111.167 2594.46,-91.8512"/>
<polygon fill="midnightblue" stroke="midnightblue" points="2596.42,-94.7535 2603.13,-86.5481 2592.77,-88.7829 2596.42,-94.7535"/>
</g>
<!-- Node19 -->
<g id="node42" class="node"><title>Node19</title>
<a xlink:href="memory_8h.html" target="_top" xlink:title="base/std_ext/memory.h">
<polygon fill="white" stroke="black" points="1580.44,-137.5 1580.44,-158.5 1699.44,-158.5 1699.44,-137.5 1580.44,-137.5"/>
<text text-anchor="middle" x="1639.94" y="-145.5" font-family="Helvetica,sans-Serif" font-size="10.00">base/std_ext/memory.h</text>
</a>
</g>
<!-- Node18&#45;&gt;Node19 -->
<g id="edge44" class="edge"><title>Node18&#45;&gt;Node19</title>
<path fill="none" stroke="midnightblue" d="M2232.9,-214.27C2140.93,-204.644 1950.18,-184.463 1788.94,-166 1763.11,-163.043 1734.79,-159.657 1709.84,-156.626"/>
<polygon fill="midnightblue" stroke="midnightblue" points="1710.08,-153.13 1699.73,-155.395 1709.23,-160.079 1710.08,-153.13"/>
</g>
<!-- Node18&#45;&gt;Node20 -->
<g id="edge52" class="edge"><title>Node18&#45;&gt;Node20</title>
<path fill="none" stroke="midnightblue" d="M2271.61,-202.923C2251.79,-183.035 2216.57,-150.322 2180.94,-130 2143.07,-108.406 2095.1,-93.264 2062.84,-84.6178"/>
<polygon fill="midnightblue" stroke="midnightblue" points="2063.51,-81.176 2052.96,-82.0389 2061.75,-87.9494 2063.51,-81.176"/>
</g>
<!-- Node19&#45;&gt;Node20 -->
<g id="edge46" class="edge"><title>Node19&#45;&gt;Node20</title>
<path fill="none" stroke="midnightblue" d="M1699.54,-138.195C1716.17,-135.497 1734.25,-132.599 1750.94,-130 1857.95,-113.332 1888.85,-127.207 1991.94,-94 1994.68,-93.1161 1997.47,-92.0347 2000.22,-90.8449"/>
<polygon fill="midnightblue" stroke="midnightblue" points="2001.75,-93.9905 2009.26,-86.5115 1998.73,-87.6783 2001.75,-93.9905"/>
</g>
<!-- Node19&#45;&gt;Node21 -->
<g id="edge48" class="edge"><title>Node19&#45;&gt;Node21</title>
<path fill="none" stroke="midnightblue" d="M1627.1,-137.376C1613.09,-125.784 1590.46,-107.05 1573.87,-93.324"/>
<polygon fill="midnightblue" stroke="midnightblue" points="1575.76,-90.3468 1565.83,-86.6674 1571.3,-95.7395 1575.76,-90.3468"/>
</g>
<!-- Node22&#45;&gt;Node13 -->
<g id="edge58" class="edge"><title>Node22&#45;&gt;Node13</title>
<path fill="none" stroke="midnightblue" d="M2340.45,-130.733C2363.41,-109.341 2405.93,-73.7916 2449.94,-58 2553.75,-20.7461 2835.68,-37.0382 2944.94,-22 2952.01,-21.0271 2959.54,-19.6875 2966.67,-18.2774"/>
<polygon fill="midnightblue" stroke="midnightblue" points="2967.63,-21.6514 2976.72,-16.1956 2966.21,-14.7969 2967.63,-21.6514"/>
</g>
<!-- Node22&#45;&gt;Node20 -->
<g id="edge60" class="edge"><title>Node22&#45;&gt;Node20</title>
<path fill="none" stroke="midnightblue" d="M2270.39,-133.486C2265.84,-132.287 2261.31,-131.11 2256.94,-130 2188.7,-112.691 2108.58,-94.3189 2063.18,-84.0895"/>
<polygon fill="midnightblue" stroke="midnightblue" points="2063.75,-80.6302 2053.23,-81.8516 2062.22,-87.4597 2063.75,-80.6302"/>
</g>
<!-- Node22&#45;&gt;Node23 -->
<g id="edge62" class="edge"><title>Node22&#45;&gt;Node23</title>
<path fill="none" stroke="midnightblue" d="M2270.2,-135.949C2237.21,-127.124 2194.57,-113.302 2159.94,-94 2138.17,-81.8658 2139.24,-69.128 2116.94,-58 2064.37,-31.7691 1996.75,-19.8824 1954.62,-14.7108"/>
<polygon fill="midnightblue" stroke="midnightblue" points="1954.82,-11.2107 1944.48,-13.536 1954.01,-18.1641 1954.82,-11.2107"/>
</g>
<!-- Node24 -->
<g id="node57" class="node"><title>Node24</title>
<polygon fill="white" stroke="#bfbfbf" points="2272.94,-0.5 2272.94,-21.5 2328.94,-21.5 2328.94,-0.5 2272.94,-0.5"/>
<text text-anchor="middle" x="2300.94" y="-8.5" font-family="Helvetica,sans-Serif" font-size="10.00">algorithm</text>
</g>
<!-- Node22&#45;&gt;Node24 -->
<g id="edge64" class="edge"><title>Node22&#45;&gt;Node24</title>
<path fill="none" stroke="midnightblue" d="M2322.44,-130.94C2321.67,-112.733 2319.74,-83.1135 2314.94,-58 2313.25,-49.1621 2310.57,-39.6109 2308,-31.4417"/>
<polygon fill="midnightblue" stroke="midnightblue" points="2311.24,-30.0805 2304.79,-21.6748 2304.59,-32.2678 2311.24,-30.0805"/>
</g>
<!-- Node26&#45;&gt;Node16 -->
<g id="edge164" class="edge"><title>Node26&#45;&gt;Node16</title>
<path fill="none" stroke="midnightblue" d="M1548.36,-288.811C1383.11,-279.672 920.948,-253.081 853.938,-238 767.861,-218.628 743.919,-212.501 668.938,-166 628.565,-140.963 624.493,-126.599 589.938,-94 566.389,-71.7843 539.763,-45.6089 522.686,-28.6808"/>
<polygon fill="midnightblue" stroke="midnightblue" points="525.119,-26.1643 515.558,-21.6012 520.187,-31.1312 525.119,-26.1643"/>
</g>
<!-- Node26&#45;&gt;Node20 -->
<g id="edge168" class="edge"><title>Node26&#45;&gt;Node20</title>
<path fill="none" stroke="midnightblue" d="M1665.7,-283.592C1713.56,-275.51 1782.25,-261.065 1838.94,-238 1896.2,-214.704 1911.89,-207.242 1957.94,-166 1981.51,-144.89 2002.68,-114.818 2015.17,-95.3538"/>
<polygon fill="midnightblue" stroke="midnightblue" points="2018.23,-97.0671 2020.58,-86.7367 2012.3,-93.3454 2018.23,-97.0671"/>
</g>
<!-- Node26&#45;&gt;Node21 -->
<g id="edge166" class="edge"><title>Node26&#45;&gt;Node21</title>
<path fill="none" stroke="midnightblue" d="M1574.88,-274.853C1559.94,-265.563 1542.86,-252.924 1530.94,-238 1509.3,-210.912 1507.74,-199.993 1500.94,-166 1497.8,-150.311 1494.95,-144.839 1500.94,-130 1506.97,-115.042 1519.35,-101.912 1530.51,-92.3449"/>
<polygon fill="midnightblue" stroke="midnightblue" points="1532.74,-95.0417 1538.32,-86.0334 1528.34,-89.5977 1532.74,-95.0417"/>
</g>
<!-- Node26&#45;&gt;Node23 -->
<g id="edge170" class="edge"><title>Node26&#45;&gt;Node23</title>
<path fill="none" stroke="midnightblue" d="M1624.1,-274.625C1646.1,-251.528 1684.25,-208.645 1707.94,-166 1732.65,-121.517 1708.77,-92.7541 1745.94,-58 1764.57,-40.5731 1831.22,-25.8231 1875.04,-17.7121"/>
<polygon fill="midnightblue" stroke="midnightblue" points="1875.89,-21.116 1885.1,-15.8914 1874.64,-14.2279 1875.89,-21.116"/>
</g>
<!-- Node26&#45;&gt;Node27 -->
<g id="edge76" class="edge"><title>Node26&#45;&gt;Node27</title>
<path fill="none" stroke="midnightblue" d="M1665.79,-282.355C1705.56,-274.252 1758.37,-260.331 1800.94,-238 1820.05,-227.974 1864.3,-188.846 1889.83,-165.611"/>
<polygon fill="midnightblue" stroke="midnightblue" points="1892.39,-168.014 1897.41,-158.683 1887.67,-162.848 1892.39,-168.014"/>
</g>
<!-- Node31 -->
<g id="node78" class="node"><title>Node31</title>
<a xlink:href="_wrap_t_file_8h.html" target="_top" xlink:title="base/WrapTFile.h">
<polygon fill="white" stroke="black" points="1088.94,-137.5 1088.94,-158.5 1182.94,-158.5 1182.94,-137.5 1088.94,-137.5"/>
<text text-anchor="middle" x="1135.94" y="-145.5" font-family="Helvetica,sans-Serif" font-size="10.00">base/WrapTFile.h</text>
</a>
</g>
<!-- Node26&#45;&gt;Node31 -->
<g id="edge92" class="edge"><title>Node26&#45;&gt;Node31</title>
<path fill="none" stroke="midnightblue" d="M1551.06,-274.916C1456.36,-245.964 1266.27,-187.846 1180.14,-161.516"/>
<polygon fill="midnightblue" stroke="midnightblue" points="1181,-158.118 1170.42,-158.541 1178.96,-164.812 1181,-158.118"/>
</g>
<!-- Node42 -->
<g id="node112" class="node"><title>Node42</title>
<a xlink:href="_t_i_d_8h.html" target="_top" xlink:title="tree/TID.h">
<polygon fill="white" stroke="black" points="862.438,-209.5 862.438,-230.5 923.438,-230.5 923.438,-209.5 862.438,-209.5"/>
<text text-anchor="middle" x="892.938" y="-217.5" font-family="Helvetica,sans-Serif" font-size="10.00">tree/TID.h</text>
</a>
</g>
<!-- Node26&#45;&gt;Node42 -->
<g id="edge138" class="edge"><title>Node26&#45;&gt;Node42</title>
<path fill="none" stroke="midnightblue" d="M1548.2,-286.077C1407.51,-271.89 1053.95,-236.237 933.708,-224.111"/>
<polygon fill="midnightblue" stroke="midnightblue" points="933.771,-220.6 923.47,-223.079 933.069,-227.565 933.771,-220.6"/>
</g>
<!-- Node27&#45;&gt;Node9 -->
<g id="edge90" class="edge"><title>Node27&#45;&gt;Node9</title>
<path fill="none" stroke="midnightblue" d="M1949.04,-145.166C2021.1,-139.494 2176.88,-124.578 2304.94,-94 2352.51,-82.6401 2362.46,-73.2268 2408.94,-58 2450.21,-44.4805 2498.12,-29.8391 2528.95,-20.5533"/>
<polygon fill="midnightblue" stroke="midnightblue" points="2530.14,-23.8487 2538.71,-17.6189 2528.13,-17.1448 2530.14,-23.8487"/>
</g>
<!-- Node27&#45;&gt;Node12 -->
<g id="edge84" class="edge"><title>Node27&#45;&gt;Node12</title>
<path fill="none" stroke="midnightblue" d="M1949.13,-144.91C2032.56,-138.192 2230.48,-120.687 2394.94,-94 2412.93,-91.08 2432.89,-86.8451 2448.84,-83.2165"/>
<polygon fill="midnightblue" stroke="midnightblue" points="2449.72,-86.6041 2458.68,-80.9394 2448.15,-79.7844 2449.72,-86.6041"/>
</g>
<!-- Node27&#45;&gt;Node15 -->
<g id="edge82" class="edge"><title>Node27&#45;&gt;Node15</title>
<path fill="none" stroke="midnightblue" d="M1890.49,-137.376C1869.63,-125.359 1835.44,-105.665 1811.43,-91.8338"/>
<polygon fill="midnightblue" stroke="midnightblue" points="1812.87,-88.6258 1802.46,-86.6674 1809.38,-94.6916 1812.87,-88.6258"/>
</g>
<!-- Node27&#45;&gt;Node24 -->
<g id="edge80" class="edge"><title>Node27&#45;&gt;Node24</title>
<path fill="none" stroke="midnightblue" d="M1949.16,-144.738C2040.53,-136.968 2257.7,-116.341 2281.94,-94 2298.93,-78.3374 2302.25,-50.8551 2302.27,-31.8279"/>
<polygon fill="midnightblue" stroke="midnightblue" points="2305.76,-31.648 2301.97,-21.7553 2298.77,-31.8539 2305.76,-31.648"/>
</g>
<!-- Node28 -->
<g id="node68" class="node"><title>Node28</title>
<a xlink:href="types_8h.html" target="_top" xlink:title="types.h">
<polygon fill="white" stroke="black" points="1868.44,-65.5 1868.44,-86.5 1917.44,-86.5 1917.44,-65.5 1868.44,-65.5"/>
<text text-anchor="middle" x="1892.94" y="-73.5" font-family="Helvetica,sans-Serif" font-size="10.00">types.h</text>
</a>
</g>
<!-- Node27&#45;&gt;Node28 -->
<g id="edge78" class="edge"><title>Node27&#45;&gt;Node28</title>
<path fill="none" stroke="midnightblue" d="M1906.58,-137.376C1904.21,-126.741 1900.51,-110.095 1897.56,-96.8195"/>
<polygon fill="midnightblue" stroke="midnightblue" points="1900.89,-95.67 1895.31,-86.6674 1894.06,-97.1886 1900.89,-95.67"/>
</g>
<!-- Node29 -->
<g id="node73" class="node"><title>Node29</title>
<polygon fill="white" stroke="#bfbfbf" points="1934.44,-65.5 1934.44,-86.5 1983.44,-86.5 1983.44,-65.5 1934.44,-65.5"/>
<text text-anchor="middle" x="1958.94" y="-73.5" font-family="Helvetica,sans-Serif" font-size="10.00">istream</text>
</g>
<!-- Node27&#45;&gt;Node29 -->
<g id="edge86" class="edge"><title>Node27&#45;&gt;Node29</title>
<path fill="none" stroke="midnightblue" d="M1916.32,-137.376C1924,-126.316 1936.19,-108.753 1945.57,-95.2433"/>
<polygon fill="midnightblue" stroke="midnightblue" points="1948.7,-96.8776 1951.53,-86.6674 1942.95,-92.8848 1948.7,-96.8776"/>
</g>
<!-- Node30 -->
<g id="node75" class="node"><title>Node30</title>
<polygon fill="white" stroke="#bfbfbf" points="958.938,-0.5 958.938,-21.5 1010.94,-21.5 1010.94,-0.5 958.938,-0.5"/>
<text text-anchor="middle" x="984.938" y="-8.5" font-family="Helvetica,sans-Serif" font-size="10.00">sstream</text>
</g>
<!-- Node27&#45;&gt;Node30 -->
<g id="edge88" class="edge"><title>Node27&#45;&gt;Node30</title>
<path fill="none" stroke="midnightblue" d="M1899.38,-137.271C1878.89,-114.387 1831.77,-62.4994 1821.94,-58 1748.43,-24.3589 1172.12,-13.7101 1021.08,-11.483"/>
<polygon fill="midnightblue" stroke="midnightblue" points="1021,-7.9816 1010.95,-11.337 1020.9,-14.9809 1021,-7.9816"/>
</g>
<!-- Node31&#45;&gt;Node15 -->
<g id="edge134" class="edge"><title>Node31&#45;&gt;Node15</title>
<path fill="none" stroke="midnightblue" d="M1183.06,-142.764C1305.21,-129.192 1630.44,-93.0555 1744.07,-80.4292"/>
<polygon fill="midnightblue" stroke="midnightblue" points="1744.53,-83.8998 1754.09,-79.3168 1743.76,-76.9426 1744.53,-83.8998"/>
</g>
<!-- Node31&#45;&gt;Node16 -->
<g id="edge128" class="edge"><title>Node31&#45;&gt;Node16</title>
<path fill="none" stroke="midnightblue" d="M1101.51,-137.477C1092.86,-134.934 1083.58,-132.291 1074.94,-130 1007.41,-112.108 988.145,-116.283 921.938,-94 884.6,-81.4335 878.814,-68.8342 840.938,-58 731.648,-26.7387 596.186,-15.9004 536.122,-12.4588"/>
<polygon fill="midnightblue" stroke="midnightblue" points="535.983,-8.94619 525.808,-11.899 535.603,-15.9359 535.983,-8.94619"/>
</g>
<!-- Node31&#45;&gt;Node20 -->
<g id="edge126" class="edge"><title>Node31&#45;&gt;Node20</title>
<path fill="none" stroke="midnightblue" d="M1183.28,-143.611C1226.43,-139.704 1291.93,-134.004 1348.94,-130 1491.7,-119.973 1853.84,-131.547 1991.94,-94 1994.78,-93.2269 1997.66,-92.2035 2000.48,-91.036"/>
<polygon fill="midnightblue" stroke="midnightblue" points="2002.18,-94.1065 2009.72,-86.6662 1999.18,-87.7788 2002.18,-94.1065"/>
</g>
<!-- Node31&#45;&gt;Node21 -->
<g id="edge130" class="edge"><title>Node31&#45;&gt;Node21</title>
<path fill="none" stroke="midnightblue" d="M1167.65,-137.483C1176.99,-134.699 1187.3,-131.934 1196.94,-130 1340.72,-101.134 1386.7,-142.952 1524.94,-94 1526.82,-93.3345 1528.7,-92.5215 1530.55,-91.6127"/>
<polygon fill="midnightblue" stroke="midnightblue" points="1532.46,-94.5513 1539.36,-86.5118 1528.95,-88.4933 1532.46,-94.5513"/>
</g>
<!-- Node31&#45;&gt;Node23 -->
<g id="edge136" class="edge"><title>Node31&#45;&gt;Node23</title>
<path fill="none" stroke="midnightblue" d="M1167.98,-137.464C1177.24,-134.713 1187.42,-131.97 1196.94,-130 1326.28,-103.217 1372.43,-150.248 1491.94,-94 1512.99,-84.0927 1508.89,-67.9077 1529.94,-58 1590.54,-29.4734 1789.48,-16.8994 1875.13,-12.7119"/>
<polygon fill="midnightblue" stroke="midnightblue" points="1875.42,-16.2024 1885.24,-12.2312 1875.08,-9.21028 1875.42,-16.2024"/>
</g>
<!-- Node32 -->
<g id="node80" class="node"><title>Node32</title>
<a xlink:href="string_8h.html" target="_top" xlink:title="base/std_ext/string.h">
<polygon fill="white" stroke="black" points="930.938,-65.5 930.938,-86.5 1038.94,-86.5 1038.94,-65.5 930.938,-65.5"/>
<text text-anchor="middle" x="984.938" y="-73.5" font-family="Helvetica,sans-Serif" font-size="10.00">base/std_ext/string.h</text>
</a>
</g>
<!-- Node31&#45;&gt;Node32 -->
<g id="edge94" class="edge"><title>Node31&#45;&gt;Node32</title>
<path fill="none" stroke="midnightblue" d="M1113.66,-137.376C1088.01,-125.146 1045.68,-104.965 1016.62,-91.105"/>
<polygon fill="midnightblue" stroke="midnightblue" points="1017.84,-87.8122 1007.31,-86.6674 1014.83,-94.1307 1017.84,-87.8122"/>
</g>
<!-- Node33 -->
<g id="node86" class="node"><title>Node33</title>
<a xlink:href="misc_8h.html" target="_top" xlink:title="base/std_ext/misc.h">
<polygon fill="white" stroke="black" points="2168.44,-65.5 2168.44,-86.5 2273.44,-86.5 2273.44,-65.5 2168.44,-65.5"/>
<text text-anchor="middle" x="2220.94" y="-73.5" font-family="Helvetica,sans-Serif" font-size="10.00">base/std_ext/misc.h</text>
</a>
</g>
<!-- Node31&#45;&gt;Node33 -->
<g id="edge104" class="edge"><title>Node31&#45;&gt;Node33</title>
<path fill="none" stroke="midnightblue" d="M1183.22,-146.154C1319.67,-140.629 1725.8,-122.806 2061.94,-94 2093.75,-91.2734 2129.05,-87.3664 2158.3,-83.8886"/>
<polygon fill="midnightblue" stroke="midnightblue" points="2158.86,-87.3462 2168.37,-82.6791 2158.03,-80.3961 2158.86,-87.3462"/>
</g>
<!-- Node35 -->
<g id="node93" class="node"><title>Node35</title>
<polygon fill="white" stroke="#bfbfbf" points="1436.44,-65.5 1436.44,-86.5 1483.44,-86.5 1483.44,-65.5 1436.44,-65.5"/>
<text text-anchor="middle" x="1459.94" y="-73.5" font-family="Helvetica,sans-Serif" font-size="10.00">TFile.h</text>
</g>
<!-- Node31&#45;&gt;Node35 -->
<g id="edge114" class="edge"><title>Node31&#45;&gt;Node35</title>
<path fill="none" stroke="midnightblue" d="M1168.65,-137.48C1177.75,-134.793 1187.67,-132.079 1196.94,-130 1298.32,-107.247 1329.76,-128.013 1427.94,-94 1430.22,-93.2078 1432.54,-92.2546 1434.82,-91.2056"/>
<polygon fill="midnightblue" stroke="midnightblue" points="1436.59,-94.2288 1443.86,-86.5213 1433.37,-88.0133 1436.59,-94.2288"/>
</g>
<!-- Node36 -->
<g id="node95" class="node"><title>Node36</title>
<polygon fill="white" stroke="#bfbfbf" points="1056.44,-65.5 1056.44,-86.5 1127.44,-86.5 1127.44,-65.5 1056.44,-65.5"/>
<text text-anchor="middle" x="1091.94" y="-73.5" font-family="Helvetica,sans-Serif" font-size="10.00">TDirectory.h</text>
</g>
<!-- Node31&#45;&gt;Node36 -->
<g id="edge116" class="edge"><title>Node31&#45;&gt;Node36</title>
<path fill="none" stroke="midnightblue" d="M1129.45,-137.376C1122.69,-126.316 1111.95,-108.753 1103.7,-95.2433"/>
<polygon fill="midnightblue" stroke="midnightblue" points="1106.66,-93.3752 1098.46,-86.6674 1100.68,-97.0254 1106.66,-93.3752"/>
</g>
<!-- Node37 -->
<g id="node97" class="node"><title>Node37</title>
<polygon fill="white" stroke="#bfbfbf" points="1144.94,-65.5 1144.94,-86.5 1196.94,-86.5 1196.94,-65.5 1144.94,-65.5"/>
<text text-anchor="middle" x="1170.94" y="-73.5" font-family="Helvetica,sans-Serif" font-size="10.00">TError.h</text>
</g>
<!-- Node31&#45;&gt;Node37 -->
<g id="edge118" class="edge"><title>Node31&#45;&gt;Node37</title>
<path fill="none" stroke="midnightblue" d="M1141.1,-137.376C1146.38,-126.528 1154.69,-109.426 1161.2,-96.0271"/>
<polygon fill="midnightblue" stroke="midnightblue" points="1164.53,-97.1913 1165.75,-86.6674 1158.23,-94.1309 1164.53,-97.1913"/>
</g>
<!-- Node38 -->
<g id="node99" class="node"><title>Node38</title>
<polygon fill="white" stroke="#bfbfbf" points="1214.44,-65.5 1214.44,-86.5 1261.44,-86.5 1261.44,-65.5 1214.44,-65.5"/>
<text text-anchor="middle" x="1237.94" y="-73.5" font-family="Helvetica,sans-Serif" font-size="10.00">TList.h</text>
</g>
<!-- Node31&#45;&gt;Node38 -->
<g id="edge120" class="edge"><title>Node31&#45;&gt;Node38</title>
<path fill="none" stroke="midnightblue" d="M1150.99,-137.376C1167.71,-125.571 1194.93,-106.36 1214.46,-92.5736"/>
<polygon fill="midnightblue" stroke="midnightblue" points="1216.67,-95.2937 1222.83,-86.6674 1212.64,-89.5749 1216.67,-95.2937"/>
</g>
<!-- Node39 -->
<g id="node101" class="node"><title>Node39</title>
<polygon fill="white" stroke="#bfbfbf" points="1278.94,-65.5 1278.94,-86.5 1352.94,-86.5 1352.94,-65.5 1278.94,-65.5"/>
<text text-anchor="middle" x="1315.94" y="-73.5" font-family="Helvetica,sans-Serif" font-size="10.00">TCollection.h</text>
</g>
<!-- Node31&#45;&gt;Node39 -->
<g id="edge122" class="edge"><title>Node31&#45;&gt;Node39</title>
<path fill="none" stroke="midnightblue" d="M1162.5,-137.376C1193.69,-124.897 1245.58,-104.142 1280.27,-90.2682"/>
<polygon fill="midnightblue" stroke="midnightblue" points="1281.58,-93.5138 1289.56,-86.5501 1278.98,-87.0144 1281.58,-93.5138"/>
</g>
<!-- Node40 -->
<g id="node103" class="node"><title>Node40</title>
<polygon fill="white" stroke="#bfbfbf" points="1370.94,-65.5 1370.94,-86.5 1418.94,-86.5 1418.94,-65.5 1370.94,-65.5"/>
<text text-anchor="middle" x="1394.94" y="-73.5" font-family="Helvetica,sans-Serif" font-size="10.00">TKey.h</text>
</g>
<!-- Node31&#45;&gt;Node40 -->
<g id="edge124" class="edge"><title>Node31&#45;&gt;Node40</title>
<path fill="none" stroke="midnightblue" d="M1170.02,-137.472C1178.76,-134.902 1188.17,-132.248 1196.94,-130 1269.65,-111.366 1291.61,-120.236 1361.94,-94 1364.07,-93.203 1366.24,-92.2883 1368.39,-91.3029"/>
<polygon fill="midnightblue" stroke="midnightblue" points="1370.21,-94.3047 1377.56,-86.6754 1367.06,-88.0551 1370.21,-94.3047"/>
</g>
<!-- Node41 -->
<g id="node108" class="node"><title>Node41</title>
<polygon fill="white" stroke="#bfbfbf" points="768.938,-65.5 768.938,-86.5 798.938,-86.5 798.938,-65.5 768.938,-65.5"/>
<text text-anchor="middle" x="783.938" y="-73.5" font-family="Helvetica,sans-Serif" font-size="10.00">set</text>
</g>
<!-- Node31&#45;&gt;Node41 -->
<g id="edge132" class="edge"><title>Node31&#45;&gt;Node41</title>
<path fill="none" stroke="midnightblue" d="M1088.83,-138.364C1013.17,-122.889 867.168,-93.0243 808.869,-81.0997"/>
<polygon fill="midnightblue" stroke="midnightblue" points="809.54,-77.6644 799.041,-79.0893 808.137,-84.5224 809.54,-77.6644"/>
</g>
<!-- Node32&#45;&gt;Node13 -->
<g id="edge102" class="edge"><title>Node32&#45;&gt;Node13</title>
<path fill="none" stroke="midnightblue" d="M1015.67,-65.4955C1025.82,-62.4917 1037.25,-59.6003 1047.94,-58 1464.92,4.43968 2525.85,-68.2712 2944.94,-22 2952.03,-21.217 2959.57,-19.9566 2966.7,-18.5635"/>
<polygon fill="midnightblue" stroke="midnightblue" points="2967.68,-21.9358 2976.75,-16.4676 2966.25,-15.0833 2967.68,-21.9358"/>
</g>
<!-- Node32&#45;&gt;Node16 -->
<g id="edge96" class="edge"><title>Node32&#45;&gt;Node16</title>
<path fill="none" stroke="midnightblue" d="M949.164,-65.4887C938.834,-62.7379 927.499,-59.9893 916.938,-58 775.912,-31.4364 604.71,-17.7443 535.83,-12.9844"/>
<polygon fill="midnightblue" stroke="midnightblue" points="535.887,-9.48035 525.674,-12.2965 535.414,-16.4643 535.887,-9.48035"/>
</g>
<!-- Node32&#45;&gt;Node24 -->
<g id="edge100" class="edge"><title>Node32&#45;&gt;Node24</title>
<path fill="none" stroke="midnightblue" d="M1016,-65.4694C1026.07,-62.5033 1037.37,-59.6407 1047.94,-58 1578.7,24.4155 1723.68,-94.1685 2255.94,-22 2258.14,-21.7015 2260.39,-21.3393 2262.65,-20.9307"/>
<polygon fill="midnightblue" stroke="midnightblue" points="2263.45,-24.3391 2272.54,-18.8951 2262.04,-17.4827 2263.45,-24.3391"/>
</g>
<!-- Node32&#45;&gt;Node30 -->
<g id="edge98" class="edge"><title>Node32&#45;&gt;Node30</title>
<path fill="none" stroke="midnightblue" d="M984.938,-65.2666C984.938,-56.1799 984.938,-42.8919 984.938,-31.7395"/>
<polygon fill="midnightblue" stroke="midnightblue" points="988.438,-31.5337 984.938,-21.5337 981.438,-31.5337 988.438,-31.5337"/>
</g>
<!-- Node33&#45;&gt;Node9 -->
<g id="edge110" class="edge"><title>Node33&#45;&gt;Node9</title>
<path fill="none" stroke="midnightblue" d="M2273.69,-65.9151C2344.98,-52.2859 2469.91,-28.4027 2528.66,-17.1699"/>
<polygon fill="midnightblue" stroke="midnightblue" points="2529.67,-20.5407 2538.84,-15.2251 2528.36,-13.6652 2529.67,-20.5407"/>
</g>
<!-- Node33&#45;&gt;Node23 -->
<g id="edge108" class="edge"><title>Node33&#45;&gt;Node23</title>
<path fill="none" stroke="midnightblue" d="M2184.06,-65.4321C2174.6,-62.8627 2164.42,-60.2186 2154.94,-58 2084.84,-41.6003 2002.31,-26.3064 1954.57,-17.8478"/>
<polygon fill="midnightblue" stroke="midnightblue" points="1955.1,-14.3869 1944.64,-16.0986 1953.89,-21.2807 1955.1,-14.3869"/>
</g>
<!-- Node33&#45;&gt;Node24 -->
<g id="edge106" class="edge"><title>Node33&#45;&gt;Node24</title>
<path fill="none" stroke="midnightblue" d="M2234.15,-65.2666C2246.61,-55.1387 2265.5,-39.7916 2280.02,-27.9995"/>
<polygon fill="midnightblue" stroke="midnightblue" points="2282.42,-30.5561 2287.97,-21.5337 2278,-25.1233 2282.42,-30.5561"/>
</g>
<!-- Node34 -->
<g id="node91" class="node"><title>Node34</title>
<polygon fill="white" stroke="#bfbfbf" points="2194.44,-0.5 2194.44,-21.5 2247.44,-21.5 2247.44,-0.5 2194.44,-0.5"/>
<text text-anchor="middle" x="2220.94" y="-8.5" font-family="Helvetica,sans-Serif" font-size="10.00">cxxabi.h</text>
</g>
<!-- Node33&#45;&gt;Node34 -->
<g id="edge112" class="edge"><title>Node33&#45;&gt;Node34</title>
<path fill="none" stroke="midnightblue" d="M2220.94,-65.2666C2220.94,-56.1799 2220.94,-42.8919 2220.94,-31.7395"/>
<polygon fill="midnightblue" stroke="midnightblue" points="2224.44,-31.5337 2220.94,-21.5337 2217.44,-31.5337 2224.44,-31.5337"/>
</g>
<!-- Node42&#45;&gt;Node14 -->
<g id="edge154" class="edge"><title>Node42&#45;&gt;Node14</title>
<path fill="none" stroke="midnightblue" d="M923.753,-219.687C1177.46,-217.054 2917.87,-197.909 3147.94,-166 3160.24,-164.293 3173.5,-161.215 3185.13,-158.081"/>
<polygon fill="midnightblue" stroke="midnightblue" points="3186.19,-161.419 3194.87,-155.345 3184.3,-154.68 3186.19,-161.419"/>
</g>
<!-- Node42&#45;&gt;Node15 -->
<g id="edge156" class="edge"><title>Node42&#45;&gt;Node15</title>
<path fill="none" stroke="midnightblue" d="M923.678,-215.79C987.151,-207.038 1137.29,-186.019 1262.94,-166 1443.03,-137.308 1657.38,-98.9444 1744.35,-83.2016"/>
<polygon fill="midnightblue" stroke="midnightblue" points="1745.1,-86.6231 1754.32,-81.3961 1743.85,-79.7353 1745.1,-86.6231"/>
</g>
<!-- Node42&#45;&gt;Node17 -->
<g id="edge150" class="edge"><title>Node42&#45;&gt;Node17</title>
<path fill="none" stroke="midnightblue" d="M923.676,-219.723C1123.85,-217.81 2238.39,-205.442 2383.94,-166 2416.57,-157.159 2419.82,-143.2 2450.94,-130 2493.52,-111.937 2544.3,-96.4837 2579.01,-86.794"/>
<polygon fill="midnightblue" stroke="midnightblue" points="2580.08,-90.1284 2588.79,-84.096 2578.22,-83.3802 2580.08,-90.1284"/>
</g>
<!-- Node42&#45;&gt;Node21 -->
<g id="edge158" class="edge"><title>Node42&#45;&gt;Node21</title>
<path fill="none" stroke="midnightblue" d="M923.513,-216.916C994.899,-209.416 1170.6,-189.125 1224.94,-166 1249.47,-155.557 1248.3,-140.205 1272.94,-130 1377.46,-86.7043 1418.92,-133.497 1524.94,-94 1526.61,-93.3758 1528.29,-92.6397 1529.95,-91.8277"/>
<polygon fill="midnightblue" stroke="midnightblue" points="1532.11,-94.6213 1539.03,-86.5997 1528.62,-88.5543 1532.11,-94.6213"/>
</g>
<!-- Node43 -->
<g id="node114" class="node"><title>Node43</title>
<polygon fill="white" stroke="#bfbfbf" points="160.938,-0.5 160.938,-21.5 216.938,-21.5 216.938,-0.5 160.938,-0.5"/>
<text text-anchor="middle" x="188.938" y="-8.5" font-family="Helvetica,sans-Serif" font-size="10.00">Rtypes.h</text>
</g>
<!-- Node42&#45;&gt;Node43 -->
<g id="edge140" class="edge"><title>Node42&#45;&gt;Node43</title>
<path fill="none" stroke="midnightblue" d="M862.314,-213.39C818.999,-203.867 737.478,-185.298 668.938,-166 502.618,-119.172 307.535,-52.4511 226.829,-24.3204"/>
<polygon fill="midnightblue" stroke="midnightblue" points="227.708,-20.92 217.113,-20.9274 225.4,-27.5286 227.708,-20.92"/>
</g>
<!-- Node44 -->
<g id="node116" class="node"><title>Node44</title>
<a xlink:href="base_2std__ext_2_time_8h.html" target="_top" xlink:title="base/std_ext/time.h">
<polygon fill="white" stroke="black" points="722.438,-137.5 722.438,-158.5 825.438,-158.5 825.438,-137.5 722.438,-137.5"/>
<text text-anchor="middle" x="773.938" y="-145.5" font-family="Helvetica,sans-Serif" font-size="10.00">base/std_ext/time.h</text>
</a>
</g>
<!-- Node42&#45;&gt;Node44 -->
<g id="edge142" class="edge"><title>Node42&#45;&gt;Node44</title>
<path fill="none" stroke="midnightblue" d="M875.379,-209.376C855.604,-197.412 823.255,-177.839 800.411,-164.018"/>
<polygon fill="midnightblue" stroke="midnightblue" points="801.936,-160.85 791.569,-158.667 798.313,-166.839 801.936,-160.85"/>
</g>
<!-- Node46 -->
<g id="node121" class="node"><title>Node46</title>
<polygon fill="white" stroke="#bfbfbf" points="608.438,-65.5 608.438,-86.5 649.438,-86.5 649.438,-65.5 608.438,-65.5"/>
<text text-anchor="middle" x="628.938" y="-73.5" font-family="Helvetica,sans-Serif" font-size="10.00">ctime</text>
</g>
<!-- Node42&#45;&gt;Node46 -->
<g id="edge162" class="edge"><title>Node42&#45;&gt;Node46</title>
<path fill="none" stroke="midnightblue" d="M862.13,-215.688C824.787,-209.385 761.019,-195.091 713.938,-166 683.677,-147.302 657.016,-115.163 641.948,-94.7776"/>
<polygon fill="midnightblue" stroke="midnightblue" points="644.73,-92.6515 636.047,-86.5815 639.05,-96.7419 644.73,-92.6515"/>
</g>
<!-- Node47 -->
<g id="node124" class="node"><title>Node47</title>
<polygon fill="white" stroke="#bfbfbf" points="842.938,-137.5 842.938,-158.5 880.938,-158.5 880.938,-137.5 842.938,-137.5"/>
<text text-anchor="middle" x="861.938" y="-145.5" font-family="Helvetica,sans-Serif" font-size="10.00">tuple</text>
</g>
<!-- Node42&#45;&gt;Node47 -->
<g id="edge152" class="edge"><title>Node42&#45;&gt;Node47</title>
<path fill="none" stroke="midnightblue" d="M888.363,-209.376C883.693,-198.528 876.33,-181.426 870.56,-168.027"/>
<polygon fill="midnightblue" stroke="midnightblue" points="873.7,-166.468 866.531,-158.667 867.271,-169.236 873.7,-166.468"/>
</g>
<!-- Node48 -->
<g id="node129" class="node"><title>Node48</title>
<polygon fill="white" stroke="#bfbfbf" points="898.938,-137.5 898.938,-158.5 948.938,-158.5 948.938,-137.5 898.938,-137.5"/>
<text text-anchor="middle" x="923.938" y="-145.5" font-family="Helvetica,sans-Serif" font-size="10.00">iomanip</text>
</g>
<!-- Node42&#45;&gt;Node48 -->
<g id="edge160" class="edge"><title>Node42&#45;&gt;Node48</title>
<path fill="none" stroke="midnightblue" d="M897.512,-209.376C902.182,-198.528 909.546,-181.426 915.315,-168.027"/>
<polygon fill="midnightblue" stroke="midnightblue" points="918.605,-169.236 919.345,-158.667 912.175,-166.468 918.605,-169.236"/>
</g>
<!-- Node44&#45;&gt;Node32 -->
<g id="edge144" class="edge"><title>Node44&#45;&gt;Node32</title>
<path fill="none" stroke="midnightblue" d="M805.071,-137.376C842.032,-124.764 903.768,-103.698 944.42,-89.8259"/>
<polygon fill="midnightblue" stroke="midnightblue" points="945.686,-93.0922 954.02,-86.5501 943.425,-86.4672 945.686,-93.0922"/>
</g>
<!-- Node45 -->
<g id="node119" class="node"><title>Node45</title>
<polygon fill="white" stroke="#bfbfbf" points="666.938,-65.5 666.938,-86.5 712.938,-86.5 712.938,-65.5 666.938,-65.5"/>
<text text-anchor="middle" x="689.938" y="-73.5" font-family="Helvetica,sans-Serif" font-size="10.00">cstring</text>
</g>
<!-- Node44&#45;&gt;Node45 -->
<g id="edge146" class="edge"><title>Node44&#45;&gt;Node45</title>
<path fill="none" stroke="midnightblue" d="M761.543,-137.376C748.019,-125.784 726.162,-107.05 710.149,-93.324"/>
<polygon fill="midnightblue" stroke="midnightblue" points="712.253,-90.518 702.383,-86.6674 707.698,-95.8328 712.253,-90.518"/>
</g>
<!-- Node44&#45;&gt;Node46 -->
<g id="edge148" class="edge"><title>Node44&#45;&gt;Node46</title>
<path fill="none" stroke="midnightblue" d="M749.076,-137.46C725.296,-127.138 688.618,-110.585 657.938,-94 656.634,-93.2955 655.309,-92.557 653.979,-91.7977"/>
<polygon fill="midnightblue" stroke="midnightblue" points="655.681,-88.7379 645.298,-86.6286 652.1,-94.7523 655.681,-88.7379"/>
</g>
<!-- Node49&#45;&gt;Node16 -->
<g id="edge174" class="edge"><title>Node49&#45;&gt;Node16</title>
<path fill="none" stroke="midnightblue" d="M1104.48,-289.8C973,-283.612 621.755,-264.747 576.938,-238 505.45,-195.337 501.876,-79.3505 503.607,-31.7801"/>
<polygon fill="midnightblue" stroke="midnightblue" points="507.106,-31.8889 504.094,-21.7313 500.114,-31.5504 507.106,-31.8889"/>
</g>
<!-- Node49&#45;&gt;Node20 -->
<g id="edge176" class="edge"><title>Node49&#45;&gt;Node20</title>
<path fill="none" stroke="midnightblue" d="M1203.2,-285.107C1267.72,-275.806 1384.24,-258.073 1482.94,-238 1615.61,-211.016 1650.78,-209.67 1778.94,-166 1816.23,-153.293 1822.83,-143.221 1859.94,-130 1917.22,-109.593 1935.26,-116.025 1991.94,-94 1994.19,-93.123 1996.5,-92.1438 1998.79,-91.1076"/>
<polygon fill="midnightblue" stroke="midnightblue" points="2000.54,-94.1498 2008.01,-86.6425 1997.49,-87.8491 2000.54,-94.1498"/>
</g>
<!-- Node49&#45;&gt;Node25 -->
<g id="edge178" class="edge"><title>Node49&#45;&gt;Node25</title>
<path fill="none" stroke="midnightblue" d="M1202.99,-289.677C1276.3,-286.212 1418.8,-279.51 1539.94,-274 1900.81,-257.586 1995.26,-295.28 2351.94,-238 2364.15,-236.038 2377.36,-232.564 2388.58,-229.187"/>
<polygon fill="midnightblue" stroke="midnightblue" points="2389.75,-232.488 2398.25,-226.16 2387.66,-225.808 2389.75,-232.488"/>
</g>
<!-- Node49&#45;&gt;Node30 -->
<g id="edge182" class="edge"><title>Node49&#45;&gt;Node30</title>
<path fill="none" stroke="midnightblue" d="M1104.67,-289.504C1009.79,-284.054 805.578,-269.016 742.938,-238 662.108,-197.977 634.309,-177.39 599.938,-94 593.84,-79.2073 589.332,-69.9796 599.938,-58 622.882,-32.0848 857.321,-17.4796 948.726,-12.7339"/>
<polygon fill="midnightblue" stroke="midnightblue" points="949.079,-16.2206 958.888,-12.2165 948.723,-9.22961 949.079,-16.2206"/>
</g>
<!-- Node49&#45;&gt;Node41 -->
<g id="edge180" class="edge"><title>Node49&#45;&gt;Node41</title>
<path fill="none" stroke="midnightblue" d="M1104.76,-287.667C1044.4,-281.329 939.524,-266.986 853.938,-238 787.667,-215.556 750.384,-225.727 713.938,-166 705.603,-152.342 706.88,-144.359 713.938,-130 723.446,-110.655 743.589,-96.2841 759.836,-87.2512"/>
<polygon fill="midnightblue" stroke="midnightblue" points="761.595,-90.2811 768.842,-82.5524 758.357,-84.0749 761.595,-90.2811"/>
</g>
<!-- Node50&#45;&gt;Node12 -->
<g id="edge232" class="edge"><title>Node50&#45;&gt;Node12</title>
<path fill="none" stroke="midnightblue" d="M499.481,-290.339C825.222,-282.079 2208.31,-242.717 2383.94,-166 2419.07,-150.653 2449.16,-116.432 2465.6,-94.8888"/>
<polygon fill="midnightblue" stroke="midnightblue" points="2468.46,-96.9096 2471.59,-86.7885 2462.83,-92.7468 2468.46,-96.9096"/>
</g>
<!-- Node50&#45;&gt;Node16 -->
<g id="edge228" class="edge"><title>Node50&#45;&gt;Node16</title>
<path fill="none" stroke="midnightblue" d="M385.98,-281.485C347.343,-271.43 295.998,-255.278 283.938,-238 256.465,-198.64 267.233,-174.999 283.938,-130 298.634,-90.4106 310.468,-80.9179 345.938,-58 385.861,-32.2042 440.436,-20.1315 474.149,-14.811"/>
<polygon fill="midnightblue" stroke="midnightblue" points="474.935,-18.2331 484.317,-13.312 473.914,-11.308 474.935,-18.2331"/>
</g>
<!-- Node50&#45;&gt;Node20 -->
<g id="edge226" class="edge"><title>Node50&#45;&gt;Node20</title>
<path fill="none" stroke="midnightblue" d="M499.732,-286.755C748.334,-267.587 1591.65,-200.655 1707.94,-166 1741.84,-155.896 1745.34,-141.074 1778.94,-130 1870.12,-99.9492 1900.84,-124.313 1991.94,-94 1994.52,-93.1398 1997.15,-92.1108 1999.75,-90.9866"/>
<polygon fill="midnightblue" stroke="midnightblue" points="2001.36,-94.0967 2008.87,-86.6287 1998.34,-87.7802 2001.36,-94.0967"/>
</g>
<!-- Node50&#45;&gt;Node21 -->
<g id="edge224" class="edge"><title>Node50&#45;&gt;Node21</title>
<path fill="none" stroke="midnightblue" d="M499.673,-286.485C673.503,-271.765 1126.5,-228.38 1262.94,-166 1287.19,-154.911 1286.43,-140.509 1310.94,-130 1399.58,-91.9906 1434.98,-128.787 1524.94,-94 1526.61,-93.3551 1528.28,-92.6033 1529.93,-91.7797"/>
<polygon fill="midnightblue" stroke="midnightblue" points="1532.11,-94.5648 1539.01,-86.5237 1528.6,-88.5077 1532.11,-94.5648"/>
</g>
<!-- Node51 -->
<g id="node150" class="node"><title>Node51</title>
<a xlink:href="_indicator__traits_8h.html" target="_top" xlink:title="calibration/gui/Indicator\l_traits.h">
<polygon fill="white" stroke="black" points="130.438,-59 130.438,-93 247.438,-93 247.438,-59 130.438,-59"/>
<text text-anchor="start" x="138.438" y="-80" font-family="Helvetica,sans-Serif" font-size="10.00">calibration/gui/Indicator</text>
<text text-anchor="middle" x="188.938" y="-67" font-family="Helvetica,sans-Serif" font-size="10.00">_traits.h</text>
</a>
</g>
<!-- Node50&#45;&gt;Node51 -->
<g id="edge196" class="edge"><title>Node50&#45;&gt;Node51</title>
<path fill="none" stroke="midnightblue" d="M362.275,-286.193C298.247,-279.185 209.47,-264.842 187.938,-238 157.184,-199.661 168.882,-138.177 179.406,-103.011"/>
<polygon fill="midnightblue" stroke="midnightblue" points="182.762,-104.005 182.446,-93.4144 176.089,-101.891 182.762,-104.005"/>
</g>
<!-- Node52 -->
<g id="node153" class="node"><title>Node52</title>
<a xlink:href="_fit_function_8h.html" target="_top" xlink:title="calibration/fitfunctions\l/FitFunction.h">
<polygon fill="white" stroke="black" points="374.938,-203 374.938,-237 486.938,-237 486.938,-203 374.938,-203"/>
<text text-anchor="start" x="382.938" y="-224" font-family="Helvetica,sans-Serif" font-size="10.00">calibration/fitfunctions</text>
<text text-anchor="middle" x="430.938" y="-211" font-family="Helvetica,sans-Serif" font-size="10.00">/FitFunction.h</text>
</a>
</g>
<!-- Node50&#45;&gt;Node52 -->
<g id="edge200" class="edge"><title>Node50&#45;&gt;Node52</title>
<path fill="none" stroke="midnightblue" d="M430.938,-281.376C430.938,-272.451 430.938,-259.293 430.938,-247.446"/>
<polygon fill="midnightblue" stroke="midnightblue" points="434.438,-247.094 430.938,-237.094 427.438,-247.094 434.438,-247.094"/>
</g>
<!-- Node54 -->
<g id="node170" class="node"><title>Node54</title>
<polygon fill="white" stroke="#bfbfbf" points="196.438,-209.5 196.438,-230.5 237.438,-230.5 237.438,-209.5 196.438,-209.5"/>
<text text-anchor="middle" x="216.938" y="-217.5" font-family="Helvetica,sans-Serif" font-size="10.00">stack</text>
</g>
<!-- Node50&#45;&gt;Node54 -->
<g id="edge230" class="edge"><title>Node50&#45;&gt;Node54</title>
<path fill="none" stroke="midnightblue" d="M387.201,-281.443C350.233,-271.917 296.217,-256.569 250.938,-238 248.829,-237.135 246.678,-236.181 244.534,-235.177"/>
<polygon fill="midnightblue" stroke="midnightblue" points="245.838,-231.916 235.328,-230.575 242.708,-238.177 245.838,-231.916"/>
</g>
<!-- Node55 -->
<g id="node173" class="node"><title>Node55</title>
<polygon fill="white" stroke="#bfbfbf" points="292.438,-209.5 292.438,-230.5 357.438,-230.5 357.438,-209.5 292.438,-209.5"/>
<text text-anchor="middle" x="324.938" y="-217.5" font-family="Helvetica,sans-Serif" font-size="10.00">TCanvas.h</text>
</g>
<!-- Node50&#45;&gt;Node55 -->
<g id="edge234" class="edge"><title>Node50&#45;&gt;Node55</title>
<path fill="none" stroke="midnightblue" d="M415.297,-281.376C397.839,-269.518 369.379,-250.186 349.064,-236.388"/>
<polygon fill="midnightblue" stroke="midnightblue" points="350.881,-233.391 340.642,-230.667 346.948,-239.182 350.881,-233.391"/>
</g>
<!-- Node51&#45;&gt;Node43 -->
<g id="edge198" class="edge"><title>Node51&#45;&gt;Node43</title>
<path fill="none" stroke="midnightblue" d="M188.938,-58.922C188.938,-50.6704 188.938,-40.6922 188.938,-31.9818"/>
<polygon fill="midnightblue" stroke="midnightblue" points="192.438,-31.8521 188.938,-21.8521 185.438,-31.8521 192.438,-31.8521"/>
</g>
<!-- Node52&#45;&gt;Node16 -->
<g id="edge222" class="edge"><title>Node52&#45;&gt;Node16</title>
<path fill="none" stroke="midnightblue" d="M423.675,-202.938C416.905,-184.73 408.718,-155.109 414.938,-130 423.637,-94.8781 430.732,-86.5681 452.938,-58 461.456,-47.0411 472.707,-36.5174 482.564,-28.2166"/>
<polygon fill="midnightblue" stroke="midnightblue" points="484.887,-30.8381 490.425,-21.806 480.463,-25.4131 484.887,-30.8381"/>
</g>
<!-- Node52&#45;&gt;Node19 -->
<g id="edge214" class="edge"><title>Node52&#45;&gt;Node19</title>
<path fill="none" stroke="midnightblue" d="M487.196,-217.011C633.748,-209.177 1039.34,-187.187 1376.94,-166 1442.46,-161.888 1517.12,-156.733 1570.11,-152.995"/>
<polygon fill="midnightblue" stroke="midnightblue" points="1570.68,-156.463 1580.41,-152.267 1570.19,-149.481 1570.68,-156.463"/>
</g>
<!-- Node52&#45;&gt;Node20 -->
<g id="edge218" class="edge"><title>Node52&#45;&gt;Node20</title>
<path fill="none" stroke="midnightblue" d="M487.165,-216.839C616.92,-209.397 947.275,-189.608 1222.94,-166 1378.3,-152.694 1416.69,-144.659 1571.94,-130 1758.46,-112.388 1811.9,-145.822 1991.94,-94 1994.77,-93.1849 1997.64,-92.1337 2000.46,-90.9489"/>
<polygon fill="midnightblue" stroke="midnightblue" points="2002.16,-94.0137 2009.69,-86.556 1999.15,-87.6931 2002.16,-94.0137"/>
</g>
<!-- Node52&#45;&gt;Node21 -->
<g id="edge220" class="edge"><title>Node52&#45;&gt;Node21</title>
<path fill="none" stroke="midnightblue" d="M486.945,-217.162C657.411,-208.375 1160.27,-181.289 1191.94,-166 1211.48,-156.562 1205.63,-139.91 1224.94,-130 1344.41,-68.6869 1398.58,-139.465 1524.94,-94 1526.62,-93.3947 1528.3,-92.6728 1529.97,-91.8714"/>
<polygon fill="midnightblue" stroke="midnightblue" points="1532.12,-94.6728 1539.06,-86.6689 1528.64,-88.5969 1532.12,-94.6728"/>
</g>
<!-- Node52&#45;&gt;Node27 -->
<g id="edge212" class="edge"><title>Node52&#45;&gt;Node27</title>
<path fill="none" stroke="midnightblue" d="M487.045,-217.605C568.052,-214.15 722.483,-207.568 853.938,-202 1233.49,-185.924 1328.87,-190.949 1707.94,-166 1759.23,-162.624 1817.76,-157.205 1858.37,-153.194"/>
<polygon fill="midnightblue" stroke="midnightblue" points="1858.95,-156.653 1868.56,-152.18 1858.26,-149.688 1858.95,-156.653"/>
</g>
<!-- Node52&#45;&gt;Node43 -->
<g id="edge216" class="edge"><title>Node52&#45;&gt;Node43</title>
<path fill="none" stroke="midnightblue" d="M374.836,-204.471C317.264,-188.533 236.041,-166.046 235.938,-166 181.141,-141.743 150.864,-146.482 121.938,-94 114.214,-79.9875 114.556,-72.1954 121.938,-58 128.953,-44.5087 141.813,-34.0833 154.404,-26.5183"/>
<polygon fill="midnightblue" stroke="midnightblue" points="156.387,-29.4209 163.438,-21.5125 152.994,-23.2982 156.387,-29.4209"/>
</g>
<!-- Node52&#45;&gt;Node51 -->
<g id="edge210" class="edge"><title>Node52&#45;&gt;Node51</title>
<path fill="none" stroke="midnightblue" d="M377.705,-202.965C342.558,-191.241 300.111,-176.032 283.938,-166 255.261,-148.212 227.88,-120.767 209.945,-100.86"/>
<polygon fill="midnightblue" stroke="midnightblue" points="212.336,-98.2805 203.091,-93.1059 207.091,-102.916 212.336,-98.2805"/>
</g>
<!-- Node53 -->
<g id="node155" class="node"><title>Node53</title>
<a xlink:href="_knobs_t_f1_8h.html" target="_top" xlink:title="KnobsTF1.h">
<polygon fill="white" stroke="black" points="292.938,-137.5 292.938,-158.5 362.938,-158.5 362.938,-137.5 292.938,-137.5"/>
<text text-anchor="middle" x="327.938" y="-145.5" font-family="Helvetica,sans-Serif" font-size="10.00">KnobsTF1.h</text>
</a>
</g>
<!-- Node52&#45;&gt;Node53 -->
<g id="edge202" class="edge"><title>Node52&#45;&gt;Node53</title>
<path fill="none" stroke="midnightblue" d="M406.528,-202.937C389.964,-191.358 368.173,-176.126 351.739,-164.638"/>
<polygon fill="midnightblue" stroke="midnightblue" points="353.429,-161.549 343.227,-158.688 349.418,-167.286 353.429,-161.549"/>
</g>
<!-- Node53&#45;&gt;Node16 -->
<g id="edge206" class="edge"><title>Node53&#45;&gt;Node16</title>
<path fill="none" stroke="midnightblue" d="M331.019,-137.247C336.906,-118.555 351.484,-79.9702 376.938,-58 404.746,-33.9976 445.873,-21.8246 473.954,-15.9592"/>
<polygon fill="midnightblue" stroke="midnightblue" points="474.871,-19.3467 484.022,-14.0085 473.539,-12.4745 474.871,-19.3467"/>
</g>
<!-- Node53&#45;&gt;Node23 -->
<g id="edge208" class="edge"><title>Node53&#45;&gt;Node23</title>
<path fill="none" stroke="midnightblue" d="M362.943,-146.389C442.687,-142.213 643.663,-128.834 807.938,-94 859.915,-82.9783 869.631,-67.3339 921.938,-58 1109.62,-24.5092 1712.9,-13.8196 1874.69,-11.519"/>
<polygon fill="midnightblue" stroke="midnightblue" points="1875.18,-15.0126 1885.13,-11.3736 1875.09,-8.0133 1875.18,-15.0126"/>
</g>
<!-- Node53&#45;&gt;Node51 -->
<g id="edge204" class="edge"><title>Node53&#45;&gt;Node51</title>
<path fill="none" stroke="midnightblue" d="M307.428,-137.376C287.385,-126.994 256.282,-110.883 230.971,-97.7727"/>
<polygon fill="midnightblue" stroke="midnightblue" points="232.429,-94.586 221.939,-93.0944 229.209,-100.802 232.429,-94.586"/>
</g>
<!-- Node56&#45;&gt;Node52 -->
<g id="edge238" class="edge"><title>Node56&#45;&gt;Node52</title>
<path fill="none" stroke="midnightblue" d="M657.12,-346.477C617.293,-324.207 523.758,-271.904 470.279,-241.999"/>
<polygon fill="midnightblue" stroke="midnightblue" points="471.854,-238.87 461.418,-237.044 468.438,-244.979 471.854,-238.87"/>
</g>
<!-- Node57&#45;&gt;Node2 -->
<g id="edge242" class="edge"><title>Node57&#45;&gt;Node2</title>
<path fill="none" stroke="midnightblue" d="M1724.19,-404.497C1749.4,-395.123 1786.51,-381.324 1814.25,-371.012"/>
<polygon fill="midnightblue" stroke="midnightblue" points="1815.48,-374.289 1823.63,-367.523 1813.04,-367.727 1815.48,-374.289"/>
</g>
<!-- Node57&#45;&gt;Node16 -->
<g id="edge246" class="edge"><title>Node57&#45;&gt;Node16</title>
<path fill="none" stroke="midnightblue" d="M1654.2,-414.023C1468.13,-408.879 715.515,-379.507 536.938,-238 474.548,-188.562 490.114,-77.8123 499.907,-31.7319"/>
<polygon fill="midnightblue" stroke="midnightblue" points="503.378,-32.2482 502.165,-21.7231 496.55,-30.7078 503.378,-32.2482"/>
</g>
<!-- Node57&#45;&gt;Node20 -->
<g id="edge248" class="edge"><title>Node57&#45;&gt;Node20</title>
<path fill="none" stroke="midnightblue" d="M1709.28,-404.276C1763.7,-360.442 1967.07,-195.805 1988.94,-166 2004.69,-144.523 2015.42,-115.525 2021.36,-96.3175"/>
<polygon fill="midnightblue" stroke="midnightblue" points="2024.78,-97.0979 2024.23,-86.5169 2018.06,-95.1268 2024.78,-97.0979"/>
</g>
<!-- Node57&#45;&gt;Node21 -->
<g id="edge244" class="edge"><title>Node57&#45;&gt;Node21</title>
<path fill="none" stroke="midnightblue" d="M1654.1,-410.131C1557.07,-397.679 1324.94,-360.706 1324.94,-292 1324.94,-292 1324.94,-292 1324.94,-220 1324.94,-171.427 1347.16,-157.88 1386.94,-130 1438.84,-93.6169 1466.89,-119.456 1524.94,-94 1526.5,-93.3139 1528.08,-92.5462 1529.64,-91.725"/>
<polygon fill="midnightblue" stroke="midnightblue" points="1531.47,-94.7136 1538.32,-86.6303 1527.92,-88.6781 1531.47,-94.7136"/>
</g>
<!-- Node58&#45;&gt;Node16 -->
<g id="edge258" class="edge"><title>Node58&#45;&gt;Node16</title>
<path fill="none" stroke="midnightblue" d="M80.3669,-281.486C56.5028,-273.714 30.1883,-260.435 15.9377,-238 -23.9631,-175.183 16.4735,-108.739 89.9377,-58 121.434,-36.2463 383.338,-18.4013 474.108,-12.8181"/>
<polygon fill="midnightblue" stroke="midnightblue" points="474.533,-16.2988 484.302,-12.1986 474.108,-9.31171 474.533,-16.2988"/>
</g>
<!-- Node58&#45;&gt;Node42 -->
<g id="edge252" class="edge"><title>Node58&#45;&gt;Node42</title>
<path fill="none" stroke="midnightblue" d="M190.096,-286.41C338.898,-272.35 725.857,-235.787 852.307,-223.839"/>
<polygon fill="midnightblue" stroke="midnightblue" points="852.716,-227.316 862.343,-222.891 852.058,-220.347 852.716,-227.316"/>
</g>
<!-- Node58&#45;&gt;Node46 -->
<g id="edge260" class="edge"><title>Node58&#45;&gt;Node46</title>
<path fill="none" stroke="midnightblue" d="M134.456,-281.396C141.4,-262.224 158.777,-221.938 187.938,-202 256.725,-154.969 291.519,-187.827 371.938,-166 455.636,-143.283 551.353,-106.907 598.882,-88.1141"/>
<polygon fill="midnightblue" stroke="midnightblue" points="600.271,-91.3284 608.271,-84.382 597.685,-84.8234 600.271,-91.3284"/>
</g>
<!-- Node59 -->
<g id="node187" class="node"><title>Node59</title>
<a xlink:href="_git_info_8h.html" target="_top" xlink:title="base/GitInfo.h">
<polygon fill="white" stroke="black" points="24.9377,-209.5 24.9377,-230.5 102.938,-230.5 102.938,-209.5 24.9377,-209.5"/>
<text text-anchor="middle" x="63.9377" y="-217.5" font-family="Helvetica,sans-Serif" font-size="10.00">base/GitInfo.h</text>
</a>
</g>
<!-- Node58&#45;&gt;Node59 -->
<g id="edge254" class="edge"><title>Node58&#45;&gt;Node59</title>
<path fill="none" stroke="midnightblue" d="M121.052,-281.376C110.462,-269.997 93.4685,-251.735 80.7663,-238.085"/>
<polygon fill="midnightblue" stroke="midnightblue" points="83.2389,-235.604 73.8643,-230.667 78.1144,-240.372 83.2389,-235.604"/>
</g>
<!-- Node59&#45;&gt;Node16 -->
<g id="edge256" class="edge"><title>Node59&#45;&gt;Node16</title>
<path fill="none" stroke="midnightblue" d="M64.172,-209.143C65.4507,-179.498 73.4099,-96.8069 121.938,-58 149.314,-36.1077 387.932,-18.5966 474.083,-12.9361"/>
<polygon fill="midnightblue" stroke="midnightblue" points="474.519,-16.4152 484.271,-12.2754 474.066,-9.4299 474.519,-16.4152"/>
</g>
<!-- Node60&#45;&gt;Node4 -->
<g id="edge264" class="edge"><title>Node60&#45;&gt;Node4</title>
<path fill="none" stroke="midnightblue" d="M2624.61,-520.819C2658.29,-500.476 2705.94,-463.186 2705.94,-415 2705.94,-415 2705.94,-415 2705.94,-357 2705.94,-309.348 2670.34,-262.755 2647.87,-238.089"/>
<polygon fill="midnightblue" stroke="midnightblue" points="2650.23,-235.482 2640.83,-230.594 2645.13,-240.277 2650.23,-235.482"/>
</g>
<!-- Node60&#45;&gt;Node12 -->
<g id="edge324" class="edge"><title>Node60&#45;&gt;Node12</title>
<path fill="none" stroke="midnightblue" d="M2638.41,-520.938C2657.87,-512.114 2679.69,-499.829 2695.94,-484 2795.61,-386.901 2923.28,-306.971 2831.94,-202 2793.94,-158.33 2626.1,-191.102 2573.94,-166 2539.54,-149.449 2509.38,-115.862 2492.7,-94.7258"/>
<polygon fill="midnightblue" stroke="midnightblue" points="2495.27,-92.3232 2486.41,-86.5159 2489.72,-96.5818 2495.27,-92.3232"/>
</g>
<!-- Node61 -->
<g id="node195" class="node"><title>Node61</title>
<a xlink:href="_unpacker_acqu_8h.html" target="_top" xlink:title="unpacker/UnpackerAcqu.h">
<polygon fill="white" stroke="black" points="2525.94,-462.5 2525.94,-483.5 2657.94,-483.5 2657.94,-462.5 2525.94,-462.5"/>
<text text-anchor="middle" x="2591.94" y="-470.5" font-family="Helvetica,sans-Serif" font-size="10.00">unpacker/UnpackerAcqu.h</text>
</a>
</g>
<!-- Node60&#45;&gt;Node61 -->
<g id="edge266" class="edge"><title>Node60&#45;&gt;Node61</title>
<path fill="none" stroke="midnightblue" d="M2591.94,-520.922C2591.94,-512.67 2591.94,-502.692 2591.94,-493.982"/>
<polygon fill="midnightblue" stroke="midnightblue" points="2595.44,-493.852 2591.94,-483.852 2588.44,-493.852 2595.44,-493.852"/>
</g>
<!-- Node68 -->
<g id="node232" class="node"><title>Node68</title>
<polygon fill="white" stroke="#bfbfbf" points="2387.44,-462.5 2387.44,-483.5 2436.44,-483.5 2436.44,-462.5 2387.44,-462.5"/>
<text text-anchor="middle" x="2411.94" y="-470.5" font-family="Helvetica,sans-Serif" font-size="10.00">cassert</text>
</g>
<!-- Node60&#45;&gt;Node68 -->
<g id="edge326" class="edge"><title>Node60&#45;&gt;Node68</title>
<path fill="none" stroke="midnightblue" d="M2544.64,-520.922C2513.85,-509.8 2474.36,-495.541 2446.49,-485.478"/>
<polygon fill="midnightblue" stroke="midnightblue" points="2447.38,-482.079 2436.79,-481.974 2445.01,-488.662 2447.38,-482.079"/>
</g>
<!-- Node69 -->
<g id="node234" class="node"><title>Node69</title>
<polygon fill="white" stroke="#bfbfbf" points="2453.94,-462.5 2453.94,-483.5 2507.94,-483.5 2507.94,-462.5 2453.94,-462.5"/>
<text text-anchor="middle" x="2480.94" y="-470.5" font-family="Helvetica,sans-Serif" font-size="10.00">iostream</text>
</g>
<!-- Node60&#45;&gt;Node69 -->
<g id="edge328" class="edge"><title>Node60&#45;&gt;Node69</title>
<path fill="none" stroke="midnightblue" d="M2562.77,-520.922C2545.76,-510.957 2524.44,-498.473 2507.83,-488.745"/>
<polygon fill="midnightblue" stroke="midnightblue" points="2509.54,-485.691 2499.14,-483.658 2506,-491.732 2509.54,-485.691"/>
</g>
<!-- Node61&#45;&gt;Node4 -->
<g id="edge310" class="edge"><title>Node61&#45;&gt;Node4</title>
<path fill="none" stroke="midnightblue" d="M2595.7,-462.308C2598.88,-452.869 2603.33,-438.676 2605.94,-426 2619.67,-359.2 2626.22,-278.481 2628.7,-241.006"/>
<polygon fill="midnightblue" stroke="midnightblue" points="2632.2,-241.028 2629.34,-230.827 2625.22,-240.587 2632.2,-241.028"/>
</g>
<!-- Node61&#45;&gt;Node12 -->
<g id="edge322" class="edge"><title>Node61&#45;&gt;Node12</title>
<path fill="none" stroke="midnightblue" d="M2588.92,-462.381C2573.69,-408.898 2505.34,-168.747 2484.79,-96.5762"/>
<polygon fill="midnightblue" stroke="midnightblue" points="2488.13,-95.4974 2482.02,-86.8376 2481.39,-97.4138 2488.13,-95.4974"/>
</g>
<!-- Node61&#45;&gt;Node13 -->
<g id="edge318" class="edge"><title>Node61&#45;&gt;Node13</title>
<path fill="none" stroke="midnightblue" d="M2658.05,-466.082C2799.56,-447.305 3130.15,-381.323 3268.94,-166 3297.39,-121.849 3264.42,-87.473 3220.94,-58 3190.29,-37.2247 3084.96,-21.6191 3031.15,-14.792"/>
<polygon fill="midnightblue" stroke="midnightblue" points="3031.46,-11.3044 3021.11,-13.5446 3030.6,-18.251 3031.46,-11.3044"/>
</g>
<!-- Node61&#45;&gt;Node14 -->
<g id="edge320" class="edge"><title>Node61&#45;&gt;Node14</title>
<path fill="none" stroke="midnightblue" d="M2601.88,-462.461C2641.43,-421.252 2793.15,-269.951 2950.94,-202 3039.52,-163.853 3071.42,-189.584 3164.94,-166 3171.43,-164.363 3178.27,-162.303 3184.79,-160.166"/>
<polygon fill="midnightblue" stroke="midnightblue" points="3186.36,-163.331 3194.7,-156.796 3184.1,-156.704 3186.36,-163.331"/>
</g>
<!-- Node61&#45;&gt;Node20 -->
<g id="edge312" class="edge"><title>Node61&#45;&gt;Node20</title>
<path fill="none" stroke="midnightblue" d="M2525.65,-462.72C2457.08,-451.907 2354.72,-435.207 2315.94,-426 2214.17,-401.837 2090.94,-461.597 2090.94,-357 2090.94,-357 2090.94,-357 2090.94,-220 2090.94,-171.789 2060.61,-121.717 2041.71,-95.1913"/>
<polygon fill="midnightblue" stroke="midnightblue" points="2044.31,-92.8193 2035.57,-86.8324 2038.67,-96.9637 2044.31,-92.8193"/>
</g>
<!-- Node61&#45;&gt;Node21 -->
<g id="edge314" class="edge"><title>Node61&#45;&gt;Node21</title>
<path fill="none" stroke="midnightblue" d="M2525.72,-463C2522.75,-462.643 2519.82,-462.307 2516.94,-462 2298.45,-438.691 1708.88,-450.487 1539.94,-310 1476.45,-257.206 1460.66,-205.568 1493.94,-130 1497.95,-120.886 1515.99,-105.032 1531.08,-92.853"/>
<polygon fill="midnightblue" stroke="midnightblue" points="1533.39,-95.4875 1539.05,-86.5308 1529.04,-90.0033 1533.39,-95.4875"/>
</g>
<!-- Node61&#45;&gt;Node25 -->
<g id="edge316" class="edge"><title>Node61&#45;&gt;Node25</title>
<path fill="none" stroke="midnightblue" d="M2584.6,-462.451C2557.65,-423.713 2463.91,-288.967 2429.09,-238.912"/>
<polygon fill="midnightblue" stroke="midnightblue" points="2431.89,-236.804 2423.31,-230.594 2426.14,-240.802 2431.89,-236.804"/>
</g>
<!-- Node62 -->
<g id="node197" class="node"><title>Node62</title>
<a xlink:href="_unpacker_8h.html" target="_top" xlink:title="Unpacker.h">
<polygon fill="white" stroke="black" points="966.438,-137.5 966.438,-158.5 1033.44,-158.5 1033.44,-137.5 966.438,-137.5"/>
<text text-anchor="middle" x="999.938" y="-145.5" font-family="Helvetica,sans-Serif" font-size="10.00">Unpacker.h</text>
</a>
</g>
<!-- Node61&#45;&gt;Node62 -->
<g id="edge268" class="edge"><title>Node61&#45;&gt;Node62</title>
<path fill="none" stroke="midnightblue" d="M2525.73,-462.907C2522.76,-462.575 2519.82,-462.27 2516.94,-462 2131.19,-425.839 2032.43,-453.15 1645.94,-426 1491.12,-415.124 950.938,-512.204 950.938,-357 950.938,-357 950.938,-357 950.938,-292 950.938,-245.432 974.188,-194.691 988.658,-167.623"/>
<polygon fill="midnightblue" stroke="midnightblue" points="991.773,-169.222 993.532,-158.774 985.642,-165.844 991.773,-169.222"/>
</g>
<!-- Node63 -->
<g id="node201" class="node"><title>Node63</title>
<a xlink:href="_exp_config_8h.html" target="_top" xlink:title="expconfig/ExpConfig.h">
<polygon fill="white" stroke="black" points="2324.94,-404.5 2324.94,-425.5 2440.94,-425.5 2440.94,-404.5 2324.94,-404.5"/>
<text text-anchor="middle" x="2382.94" y="-412.5" font-family="Helvetica,sans-Serif" font-size="10.00">expconfig/ExpConfig.h</text>
</a>
</g>
<!-- Node61&#45;&gt;Node63 -->
<g id="edge274" class="edge"><title>Node61&#45;&gt;Node63</title>
<path fill="none" stroke="midnightblue" d="M2554.09,-462.497C2519.43,-452.877 2467.97,-438.598 2430.54,-428.209"/>
<polygon fill="midnightblue" stroke="midnightblue" points="2431.43,-424.825 2420.86,-425.523 2429.56,-431.57 2431.43,-424.825"/>
</g>
<!-- Node62&#45;&gt;Node16 -->
<g id="edge270" class="edge"><title>Node62&#45;&gt;Node16</title>
<path fill="none" stroke="midnightblue" d="M977.615,-137.331C971.354,-134.643 964.471,-131.966 957.938,-130 872.291,-104.22 839.718,-134.437 759.938,-94 739.187,-83.4822 742.51,-68.8633 721.938,-58 661.004,-25.8239 579.359,-15.6667 535.639,-12.4666"/>
<polygon fill="midnightblue" stroke="midnightblue" points="535.839,-8.97226 525.631,-11.8085 535.379,-15.9572 535.839,-8.97226"/>
</g>
<!-- Node62&#45;&gt;Node20 -->
<g id="edge272" class="edge"><title>Node62&#45;&gt;Node20</title>
<path fill="none" stroke="midnightblue" d="M1033.56,-139.006C1047.77,-135.58 1064.55,-132.017 1079.94,-130 1281.04,-103.63 1795.79,-145.599 1991.94,-94 1994.95,-93.2085 1997.99,-92.1292 2000.97,-90.8894"/>
<polygon fill="midnightblue" stroke="midnightblue" points="2002.57,-94.0018 2010.09,-86.5386 1999.56,-87.6832 2002.57,-94.0018"/>
</g>
<!-- Node63&#45;&gt;Node2 -->
<g id="edge280" class="edge"><title>Node63&#45;&gt;Node2</title>
<path fill="none" stroke="midnightblue" d="M2324.85,-408.655C2226.53,-397.916 2027.74,-376.203 1921.92,-364.644"/>
<polygon fill="midnightblue" stroke="midnightblue" points="1921.99,-361.13 1911.67,-363.524 1921.23,-368.089 1921.99,-361.13"/>
</g>
<!-- Node63&#45;&gt;Node3 -->
<g id="edge278" class="edge"><title>Node63&#45;&gt;Node3</title>
<path fill="none" stroke="midnightblue" d="M2373.35,-404.085C2356.32,-384.69 2320.39,-343.76 2296.97,-317.095"/>
<polygon fill="midnightblue" stroke="midnightblue" points="2299.37,-314.522 2290.14,-309.317 2294.11,-319.141 2299.37,-314.522"/>
</g>
<!-- Node63&#45;&gt;Node4 -->
<g id="edge276" class="edge"><title>Node63&#45;&gt;Node4</title>
<path fill="none" stroke="midnightblue" d="M2417.23,-404.34C2439.69,-396.397 2469.03,-384.141 2491.94,-368 2545.26,-330.434 2593.83,-269.507 2616.49,-238.866"/>
<polygon fill="midnightblue" stroke="midnightblue" points="2619.36,-240.872 2622.42,-230.73 2613.7,-236.748 2619.36,-240.872"/>
</g>
<!-- Node63&#45;&gt;Node20 -->
<g id="edge304" class="edge"><title>Node63&#45;&gt;Node20</title>
<path fill="none" stroke="midnightblue" d="M2355.85,-404.435C2318.15,-388.635 2249.51,-355.739 2204.94,-310 2141.07,-244.457 2166.39,-197.818 2104.94,-130 2096.79,-121.003 2072.16,-104.461 2052.73,-92.0468"/>
<polygon fill="midnightblue" stroke="midnightblue" points="2054.57,-89.069 2044.25,-86.6755 2050.82,-94.9828 2054.57,-89.069"/>
</g>
<!-- Node63&#45;&gt;Node21 -->
<g id="edge306" class="edge"><title>Node63&#45;&gt;Node21</title>
<path fill="none" stroke="midnightblue" d="M2333.98,-404.439C2223.16,-379.991 1945.21,-315.619 1719.94,-238 1642.75,-211.404 1595.95,-234.111 1550.94,-166 1537.34,-145.428 1541.26,-116.026 1546.28,-96.4938"/>
<polygon fill="midnightblue" stroke="midnightblue" points="1549.67,-97.3541 1549.07,-86.7764 1542.94,-95.421 1549.67,-97.3541"/>
</g>
<!-- Node63&#45;&gt;Node25 -->
<g id="edge308" class="edge"><title>Node63&#45;&gt;Node25</title>
<path fill="none" stroke="midnightblue" d="M2384.76,-404.238C2390.03,-373.082 2405.38,-282.397 2412.38,-241.022"/>
<polygon fill="midnightblue" stroke="midnightblue" points="2415.86,-241.413 2414.08,-230.969 2408.96,-240.245 2415.86,-241.413"/>
</g>
<!-- Node64 -->
<g id="node206" class="node"><title>Node64</title>
<a xlink:href="piecewise__interval_8h.html" target="_top" xlink:title="base/piecewise_interval.h">
<polygon fill="white" stroke="black" points="2694.44,-209.5 2694.44,-230.5 2823.44,-230.5 2823.44,-209.5 2694.44,-209.5"/>
<text text-anchor="middle" x="2758.94" y="-217.5" font-family="Helvetica,sans-Serif" font-size="10.00">base/piecewise_interval.h</text>
</a>
</g>
<!-- Node63&#45;&gt;Node64 -->
<g id="edge282" class="edge"><title>Node63&#45;&gt;Node64</title>
<path fill="none" stroke="midnightblue" d="M2420.46,-404.468C2448.27,-396.084 2486.77,-383.248 2518.94,-368 2603.01,-328.148 2694.53,-265.897 2736.1,-236.47"/>
<polygon fill="midnightblue" stroke="midnightblue" points="2738.31,-239.195 2744.42,-230.544 2734.25,-233.493 2738.31,-239.195"/>
</g>
<!-- Node64&#45;&gt;Node13 -->
<g id="edge302" class="edge"><title>Node64&#45;&gt;Node13</title>
<path fill="none" stroke="midnightblue" d="M2823.56,-217.608C2950.37,-212.247 3221.97,-197.215 3249.94,-166 3294.18,-116.623 3200.43,-69.4122 3180.94,-58 3133.32,-30.117 3069.2,-18.5629 3031.15,-13.9316"/>
<polygon fill="midnightblue" stroke="midnightblue" points="3031.48,-10.4463 3021.15,-12.8012 3030.69,-17.4021 3031.48,-10.4463"/>
</g>
<!-- Node64&#45;&gt;Node27 -->
<g id="edge284" class="edge"><title>Node64&#45;&gt;Node27</title>
<path fill="none" stroke="midnightblue" d="M2721.3,-209.406C2710.01,-206.585 2697.54,-203.82 2685.94,-202 2545.04,-179.903 2108.8,-157.558 1959.59,-150.376"/>
<polygon fill="midnightblue" stroke="midnightblue" points="1959.51,-146.869 1949.35,-149.886 1959.17,-153.861 1959.51,-146.869"/>
</g>
<!-- Node65 -->
<g id="node209" class="node"><title>Node65</title>
<a xlink:href="printable_8h.html" target="_top" xlink:title="base/std_ext/printable.h">
<polygon fill="white" stroke="black" points="2850.44,-137.5 2850.44,-158.5 2971.44,-158.5 2971.44,-137.5 2850.44,-137.5"/>
<text text-anchor="middle" x="2910.94" y="-145.5" font-family="Helvetica,sans-Serif" font-size="10.00">base/std_ext/printable.h</text>
</a>
</g>
<!-- Node64&#45;&gt;Node65 -->
<g id="edge286" class="edge"><title>Node64&#45;&gt;Node65</title>
<path fill="none" stroke="midnightblue" d="M2781.37,-209.376C2807.19,-197.146 2849.79,-176.965 2879.05,-163.105"/>
<polygon fill="midnightblue" stroke="midnightblue" points="2880.88,-166.111 2888.42,-158.667 2877.88,-159.785 2880.88,-166.111"/>
</g>
<!-- Node65&#45;&gt;Node10 -->
<g id="edge300" class="edge"><title>Node65&#45;&gt;Node10</title>
<path fill="none" stroke="midnightblue" d="M2899.72,-137.376C2887.6,-125.89 2868.07,-107.393 2853.62,-93.7031"/>
<polygon fill="midnightblue" stroke="midnightblue" points="2855.86,-91.0041 2846.2,-86.6674 2851.05,-96.0858 2855.86,-91.0041"/>
</g>
<!-- Node65&#45;&gt;Node17 -->
<g id="edge298" class="edge"><title>Node65&#45;&gt;Node17</title>
<path fill="none" stroke="midnightblue" d="M2870.83,-137.418C2861.36,-134.953 2851.3,-132.36 2841.94,-130 2778.96,-114.126 2705.72,-96.4665 2661.11,-85.7997"/>
<polygon fill="midnightblue" stroke="midnightblue" points="2661.77,-82.3578 2651.23,-83.4385 2660.14,-89.1662 2661.77,-82.3578"/>
</g>
<!-- Node66 -->
<g id="node211" class="node"><title>Node66</title>
<a xlink:href="container_8h.html" target="_top" xlink:title="container.h">
<polygon fill="white" stroke="black" points="2878.44,-65.5 2878.44,-86.5 2943.44,-86.5 2943.44,-65.5 2878.44,-65.5"/>
<text text-anchor="middle" x="2910.94" y="-73.5" font-family="Helvetica,sans-Serif" font-size="10.00">container.h</text>
</a>
</g>
<!-- Node65&#45;&gt;Node66 -->
<g id="edge288" class="edge"><title>Node65&#45;&gt;Node66</title>
<path fill="none" stroke="midnightblue" d="M2910.94,-137.376C2910.94,-126.741 2910.94,-110.095 2910.94,-96.8195"/>
<polygon fill="midnightblue" stroke="midnightblue" points="2914.44,-96.6674 2910.94,-86.6674 2907.44,-96.6675 2914.44,-96.6674"/>
</g>
<!-- Node66&#45;&gt;Node13 -->
<g id="edge290" class="edge"><title>Node66&#45;&gt;Node13</title>
<path fill="none" stroke="midnightblue" d="M2925.47,-65.2666C2939.31,-55.0441 2960.35,-39.5043 2976.37,-27.6699"/>
<polygon fill="midnightblue" stroke="midnightblue" points="2978.71,-30.2904 2984.68,-21.5337 2974.55,-24.6598 2978.71,-30.2904"/>
</g>
<!-- Node66&#45;&gt;Node16 -->
<g id="edge296" class="edge"><title>Node66&#45;&gt;Node16</title>
<path fill="none" stroke="midnightblue" d="M2891.04,-65.3818C2884.5,-62.411 2877.07,-59.5677 2869.94,-58 2661.54,-12.2239 1163.26,-26.6364 949.938,-22 794.507,-18.6218 608.56,-13.7602 536.041,-11.8327"/>
<polygon fill="midnightblue" stroke="midnightblue" points="535.878,-8.32721 525.789,-11.5596 535.692,-15.3247 535.878,-8.32721"/>
</g>
<!-- Node66&#45;&gt;Node24 -->
<g id="edge292" class="edge"><title>Node66&#45;&gt;Node24</title>
<path fill="none" stroke="midnightblue" d="M2890.55,-65.4651C2884.12,-62.5745 2876.87,-59.7559 2869.94,-58 2768.94,-32.4208 2450.13,-17.1584 2339.33,-12.5176"/>
<polygon fill="midnightblue" stroke="midnightblue" points="2339.41,-9.01788 2329.27,-12.1016 2339.12,-16.0119 2339.41,-9.01788"/>
</g>
<!-- Node67 -->
<g id="node215" class="node"><title>Node67</title>
<polygon fill="white" stroke="#bfbfbf" points="2885.44,-0.5 2885.44,-21.5 2936.44,-21.5 2936.44,-0.5 2885.44,-0.5"/>
<text text-anchor="middle" x="2910.94" y="-8.5" font-family="Helvetica,sans-Serif" font-size="10.00">numeric</text>
</g>
<!-- Node66&#45;&gt;Node67 -->
<g id="edge294" class="edge"><title>Node66&#45;&gt;Node67</title>
<path fill="none" stroke="midnightblue" d="M2910.94,-65.2666C2910.94,-56.1799 2910.94,-42.8919 2910.94,-31.7395"/>
<polygon fill="midnightblue" stroke="midnightblue" points="2914.44,-31.5337 2910.94,-21.5337 2907.44,-31.5337 2914.44,-31.5337"/>
</g>
<!-- Node71 -->
<g id="node238" class="node"><title>Node71</title>
<polygon fill="white" stroke="#bfbfbf" points="2959.44,-462.5 2959.44,-483.5 3048.44,-483.5 3048.44,-462.5 2959.44,-462.5"/>
<text text-anchor="middle" x="3003.94" y="-470.5" font-family="Helvetica,sans-Serif" font-size="10.00">easylogging++.h</text>
</g>
<!-- Node70&#45;&gt;Node71 -->
<g id="edge332" class="edge"><title>Node70&#45;&gt;Node71</title>
<path fill="none" stroke="midnightblue" d="M2888.42,-527.412C2911.17,-516.694 2946.56,-500.025 2972.18,-487.96"/>
<polygon fill="midnightblue" stroke="midnightblue" points="2973.91,-491.011 2981.47,-483.584 2970.93,-484.678 2973.91,-491.011"/>
</g>
</g>
</svg>
