<?xml version="1.0" encoding="UTF-8" standalone="no"?>
<!DOCTYPE svg PUBLIC "-//W3C//DTD SVG 1.1//EN"
 "http://www.w3.org/Graphics/SVG/1.1/DTD/svg11.dtd">
<!-- Generated by graphviz version 2.26.3 (20100126.1600)
 -->
<!-- Title: src/tree/TCluster.h Pages: 1 -->
<svg width="882pt" height="334pt"
 viewBox="0.00 0.00 882.00 334.00" xmlns="http://www.w3.org/2000/svg" xmlns:xlink="http://www.w3.org/1999/xlink">
<g id="graph1" class="graph" transform="scale(1 1) rotate(0) translate(4 330)">
<title>src/tree/TCluster.h</title>
<polygon fill="white" stroke="white" points="-4,5 -4,-330 879,-330 879,5 -4,5"/>
<!-- Node0 -->
<g id="node1" class="node"><title>Node0</title>
<polygon fill="#bfbfbf" stroke="black" points="466,-304.5 466,-325.5 564,-325.5 564,-304.5 466,-304.5"/>
<text text-anchor="middle" x="515" y="-312.5" font-family="Helvetica,sans-Serif" font-size="10.00">src/tree/TCluster.h</text>
</g>
<!-- Node1 -->
<g id="node3" class="node"><title>Node1</title>
<a xlink:href="_t_detector_read_hit_8h.html" target="_top" xlink:title="tree/TDetectorReadHit.h">
<polygon fill="white" stroke="black" points="344,-239.5 344,-260.5 468,-260.5 468,-239.5 344,-239.5"/>
<text text-anchor="middle" x="406" y="-247.5" font-family="Helvetica,sans-Serif" font-size="10.00">tree/TDetectorReadHit.h</text>
</a>
</g>
<!-- Node0&#45;&gt;Node1 -->
<g id="edge2" class="edge"><title>Node0&#45;&gt;Node1</title>
<path fill="none" stroke="midnightblue" d="M497.001,-304.267C479.382,-293.76 452.345,-277.637 432.315,-265.692"/>
<polygon fill="midnightblue" stroke="midnightblue" points="434.046,-262.649 423.664,-260.534 430.46,-268.662 434.046,-262.649"/>
</g>
<!-- Node2 -->
<g id="node5" class="node"><title>Node2</title>
<a xlink:href="_detector__t_8h.html" target="_top" xlink:title="base/Detector_t.h">
<polygon fill="white" stroke="black" points="374.5,-174.5 374.5,-195.5 469.5,-195.5 469.5,-174.5 374.5,-174.5"/>
<text text-anchor="middle" x="422" y="-182.5" font-family="Helvetica,sans-Serif" font-size="10.00">base/Detector_t.h</text>
</a>
</g>
<!-- Node0&#45;&gt;Node2 -->
<g id="edge42" class="edge"><title>Node0&#45;&gt;Node2</title>
<path fill="none" stroke="midnightblue" d="M511.754,-304.249C506.382,-287.615 494.471,-255.149 477,-232 468.403,-220.609 456.602,-210.07 446.136,-201.872"/>
<polygon fill="midnightblue" stroke="midnightblue" points="448.207,-199.05 438.114,-195.827 443.994,-204.641 448.207,-199.05"/>
</g>
<!-- Node5 -->
<g id="node11" class="node"><title>Node5</title>
<a xlink:href="vec3_8h.html" target="_top" xlink:title="base/vec/vec3.h">
<polygon fill="white" stroke="black" points="-0.5,-116.5 -0.5,-137.5 88.5,-137.5 88.5,-116.5 -0.5,-116.5"/>
<text text-anchor="middle" x="44" y="-124.5" font-family="Helvetica,sans-Serif" font-size="10.00">base/vec/vec3.h</text>
</a>
</g>
<!-- Node0&#45;&gt;Node5 -->
<g id="edge56" class="edge"><title>Node0&#45;&gt;Node5</title>
<path fill="none" stroke="midnightblue" d="M465.699,-310.007C417.388,-303.988 342.292,-291.594 281,-268 195.874,-235.232 106.187,-173.142 65.8762,-143.524"/>
<polygon fill="midnightblue" stroke="midnightblue" points="67.9394,-140.696 57.8216,-137.553 63.7707,-146.32 67.9394,-140.696"/>
</g>
<!-- Node7 -->
<g id="node15" class="node"><title>Node7</title>
<polygon fill="white" stroke="#bfbfbf" points="247,-0.5 247,-21.5 291,-21.5 291,-0.5 247,-0.5"/>
<text text-anchor="middle" x="269" y="-8.5" font-family="Helvetica,sans-Serif" font-size="10.00">cmath</text>
</g>
<!-- Node0&#45;&gt;Node7 -->
<g id="edge60" class="edge"><title>Node0&#45;&gt;Node7</title>
<path fill="none" stroke="midnightblue" d="M564.073,-311.588C614.268,-306.713 693.652,-295.113 757,-268 815.613,-242.913 874,-248.756 874,-185 874,-185 874,-185 874,-127 874,-68.1558 426.845,-24.7538 301.381,-13.7342"/>
<polygon fill="midnightblue" stroke="midnightblue" points="301.515,-10.2327 291.25,-12.8536 300.909,-17.2064 301.515,-10.2327"/>
</g>
<!-- Node9 -->
<g id="node20" class="node"><title>Node9</title>
<a xlink:href="base_2std__ext_2math_8h.html" target="_top" xlink:title="base/std_ext/math.h">
<polygon fill="white" stroke="black" points="476,-116.5 476,-137.5 582,-137.5 582,-116.5 476,-116.5"/>
<text text-anchor="middle" x="529" y="-124.5" font-family="Helvetica,sans-Serif" font-size="10.00">base/std_ext/math.h</text>
</a>
</g>
<!-- Node0&#45;&gt;Node9 -->
<g id="edge44" class="edge"><title>Node0&#45;&gt;Node9</title>
<path fill="none" stroke="midnightblue" d="M515.793,-304.354C518.04,-274.172 524.483,-187.656 527.459,-147.693"/>
<polygon fill="midnightblue" stroke="midnightblue" points="530.964,-147.762 528.216,-137.53 523.983,-147.242 530.964,-147.762"/>
</g>
<!-- Node11 -->
<g id="node25" class="node"><title>Node11</title>
<polygon fill="white" stroke="#bfbfbf" points="607,-58.5 607,-79.5 651,-79.5 651,-58.5 607,-58.5"/>
<text text-anchor="middle" x="629" y="-66.5" font-family="Helvetica,sans-Serif" font-size="10.00">vector</text>
</g>
<!-- Node0&#45;&gt;Node11 -->
<g id="edge58" class="edge"><title>Node0&#45;&gt;Node11</title>
<path fill="none" stroke="midnightblue" d="M521.597,-304.204C541.563,-271.383 600.782,-172.903 614,-138 619.961,-122.26 623.843,-103.556 626.161,-89.5953"/>
<polygon fill="midnightblue" stroke="midnightblue" points="629.643,-89.9771 627.694,-79.563 622.723,-88.9192 629.643,-89.9771"/>
</g>
<!-- Node16 -->
<g id="node36" class="node"><title>Node16</title>
<polygon fill="white" stroke="#bfbfbf" points="237,-174.5 237,-195.5 287,-195.5 287,-174.5 237,-174.5"/>
<text text-anchor="middle" x="262" y="-182.5" font-family="Helvetica,sans-Serif" font-size="10.00">iomanip</text>
</g>
<!-- Node0&#45;&gt;Node16 -->
<g id="edge62" class="edge"><title>Node0&#45;&gt;Node16</title>
<path fill="none" stroke="midnightblue" d="M465.958,-307.372C415.985,-298.881 342.574,-284.204 319,-268 296.043,-252.221 279.58,-223.924 270.421,-204.808"/>
<polygon fill="midnightblue" stroke="midnightblue" points="273.522,-203.171 266.196,-195.517 267.15,-206.069 273.522,-203.171"/>
</g>
<!-- Node17 -->
<g id="node38" class="node"><title>Node17</title>
<polygon fill="white" stroke="#bfbfbf" points="305,-174.5 305,-195.5 357,-195.5 357,-174.5 305,-174.5"/>
<text text-anchor="middle" x="331" y="-182.5" font-family="Helvetica,sans-Serif" font-size="10.00">sstream</text>
</g>
<!-- Node0&#45;&gt;Node17 -->
<g id="edge64" class="edge"><title>Node0&#45;&gt;Node17</title>
<path fill="none" stroke="midnightblue" d="M465.802,-308.727C418.354,-301.573 351.384,-288.188 335,-268 320.931,-250.665 322.41,-223.956 325.781,-205.543"/>
<polygon fill="midnightblue" stroke="midnightblue" points="329.249,-206.064 327.941,-195.55 322.407,-204.585 329.249,-206.064"/>
</g>
<!-- Node18 -->
<g id="node42" class="node"><title>Node18</title>
<a xlink:href="shared__ptr__container_8h.html" target="_top" xlink:title="base/std_ext/shared\l_ptr_container.h">
<polygon fill="white" stroke="black" points="643.5,-233 643.5,-267 748.5,-267 748.5,-233 643.5,-233"/>
<text text-anchor="start" x="651.5" y="-254" font-family="Helvetica,sans-Serif" font-size="10.00">base/std_ext/shared</text>
<text text-anchor="middle" x="696" y="-241" font-family="Helvetica,sans-Serif" font-size="10.00">_ptr_container.h</text>
</a>
</g>
<!-- Node0&#45;&gt;Node18 -->
<g id="edge46" class="edge"><title>Node0&#45;&gt;Node18</title>
<path fill="none" stroke="midnightblue" d="M544.484,-304.412C569.993,-295.251 607.61,-281.742 638.979,-270.477"/>
<polygon fill="midnightblue" stroke="midnightblue" points="640.265,-273.734 648.493,-267.06 637.899,-267.146 640.265,-273.734"/>
</g>
<!-- Node19 -->
<g id="node45" class="node"><title>Node19</title>
<polygon fill="white" stroke="#bfbfbf" points="606,-174.5 606,-195.5 658,-195.5 658,-174.5 606,-174.5"/>
<text text-anchor="middle" x="632" y="-182.5" font-family="Helvetica,sans-Serif" font-size="10.00">memory</text>
</g>
<!-- Node0&#45;&gt;Node19 -->
<g id="edge66" class="edge"><title>Node0&#45;&gt;Node19</title>
<path fill="none" stroke="midnightblue" d="M539.75,-304.459C556.25,-296.426 577.492,-284.02 592,-268 608.606,-249.665 619.746,-223.193 625.964,-205.106"/>
<polygon fill="midnightblue" stroke="midnightblue" points="629.307,-206.142 629.06,-195.55 622.648,-203.984 629.307,-206.142"/>
</g>
<!-- Node1&#45;&gt;Node2 -->
<g id="edge4" class="edge"><title>Node1&#45;&gt;Node2</title>
<path fill="none" stroke="midnightblue" d="M408.642,-239.267C410.902,-230.085 414.218,-216.615 416.98,-205.392"/>
<polygon fill="midnightblue" stroke="midnightblue" points="420.415,-206.08 419.407,-195.534 413.618,-204.407 420.415,-206.08"/>
</g>
<!-- Node1&#45;&gt;Node16 -->
<g id="edge38" class="edge"><title>Node1&#45;&gt;Node16</title>
<path fill="none" stroke="midnightblue" d="M382.543,-239.412C358.695,-228.647 321.545,-211.878 294.79,-199.801"/>
<polygon fill="midnightblue" stroke="midnightblue" points="296.001,-196.508 285.447,-195.584 293.121,-202.888 296.001,-196.508"/>
</g>
<!-- Node1&#45;&gt;Node17 -->
<g id="edge40" class="edge"><title>Node1&#45;&gt;Node17</title>
<path fill="none" stroke="midnightblue" d="M393.615,-239.267C382.038,-229.233 364.552,-214.078 350.997,-202.331"/>
<polygon fill="midnightblue" stroke="midnightblue" points="353.003,-199.438 343.154,-195.534 348.419,-204.728 353.003,-199.438"/>
</g>
<!-- Node3 -->
<g id="node7" class="node"><title>Node3</title>
<a xlink:href="bitflag_8h.html" target="_top" xlink:title="base/bitflag.h">
<polygon fill="white" stroke="black" points="181.5,-116.5 181.5,-137.5 256.5,-137.5 256.5,-116.5 181.5,-116.5"/>
<text text-anchor="middle" x="219" y="-124.5" font-family="Helvetica,sans-Serif" font-size="10.00">base/bitflag.h</text>
</a>
</g>
<!-- Node2&#45;&gt;Node3 -->
<g id="edge6" class="edge"><title>Node2&#45;&gt;Node3</title>
<path fill="none" stroke="midnightblue" d="M385.238,-174.497C351.714,-164.918 302.018,-150.72 265.696,-140.342"/>
<polygon fill="midnightblue" stroke="midnightblue" points="266.408,-136.905 255.831,-137.523 264.484,-143.636 266.408,-136.905"/>
</g>
<!-- Node2&#45;&gt;Node5 -->
<g id="edge10" class="edge"><title>Node2&#45;&gt;Node5</title>
<path fill="none" stroke="midnightblue" d="M374.377,-175.441C371.546,-174.936 368.737,-174.452 366,-174 250.241,-154.903 217.672,-158.073 98.9936,-138.255"/>
<polygon fill="midnightblue" stroke="midnightblue" points="99.2202,-134.744 88.7767,-136.528 98.0535,-141.646 99.2202,-134.744"/>
</g>
<!-- Node2&#45;&gt;Node9 -->
<g id="edge20" class="edge"><title>Node2&#45;&gt;Node9</title>
<path fill="none" stroke="midnightblue" d="M441.625,-174.362C458.141,-165.409 481.974,-152.491 500.578,-142.406"/>
<polygon fill="midnightblue" stroke="midnightblue" points="502.375,-145.413 509.499,-137.571 499.04,-139.259 502.375,-145.413"/>
</g>
<!-- Node2&#45;&gt;Node11 -->
<g id="edge36" class="edge"><title>Node2&#45;&gt;Node11</title>
<path fill="none" stroke="midnightblue" d="M469.863,-176.004C512.936,-167.15 572.252,-152.833 591,-138 606.685,-125.59 616.851,-104.84 622.685,-89.3292"/>
<polygon fill="midnightblue" stroke="midnightblue" points="626.09,-90.1895 626.046,-79.5948 619.473,-87.905 626.09,-90.1895"/>
</g>
<!-- Node12 -->
<g id="node27" class="node"><title>Node12</title>
<polygon fill="white" stroke="#bfbfbf" points="412,-116.5 412,-137.5 458,-137.5 458,-116.5 412,-116.5"/>
<text text-anchor="middle" x="435" y="-124.5" font-family="Helvetica,sans-Serif" font-size="10.00">cstdint</text>
</g>
<!-- Node2&#45;&gt;Node12 -->
<g id="edge28" class="edge"><title>Node2&#45;&gt;Node12</title>
<path fill="none" stroke="midnightblue" d="M424.384,-174.362C426.07,-166.84 428.384,-156.519 430.421,-147.431"/>
<polygon fill="midnightblue" stroke="midnightblue" points="433.859,-148.094 432.631,-137.571 427.028,-146.563 433.859,-148.094"/>
</g>
<!-- Node13 -->
<g id="node29" class="node"><title>Node13</title>
<polygon fill="white" stroke="#bfbfbf" points="105.5,-116.5 105.5,-137.5 164.5,-137.5 164.5,-116.5 105.5,-116.5"/>
<text text-anchor="middle" x="135" y="-124.5" font-family="Helvetica,sans-Serif" font-size="10.00">stdexcept</text>
</g>
<!-- Node2&#45;&gt;Node13 -->
<g id="edge30" class="edge"><title>Node2&#45;&gt;Node13</title>
<path fill="none" stroke="midnightblue" d="M374.347,-175.607C371.523,-175.061 368.725,-174.522 366,-174 283.396,-158.184 259.599,-158.137 174.619,-138.246"/>
<polygon fill="midnightblue" stroke="midnightblue" points="175.335,-134.818 164.798,-135.923 173.724,-141.63 175.335,-134.818"/>
</g>
<!-- Node14 -->
<g id="node31" class="node"><title>Node14</title>
<polygon fill="white" stroke="#bfbfbf" points="273.5,-116.5 273.5,-137.5 314.5,-137.5 314.5,-116.5 273.5,-116.5"/>
<text text-anchor="middle" x="294" y="-124.5" font-family="Helvetica,sans-Serif" font-size="10.00">string</text>
</g>
<!-- Node2&#45;&gt;Node14 -->
<g id="edge32" class="edge"><title>Node2&#45;&gt;Node14</title>
<path fill="none" stroke="midnightblue" d="M398.82,-174.497C377.892,-165.013 346.968,-151.001 324.129,-140.652"/>
<polygon fill="midnightblue" stroke="midnightblue" points="325.441,-137.404 314.888,-136.465 322.552,-143.78 325.441,-137.404"/>
</g>
<!-- Node15 -->
<g id="node33" class="node"><title>Node15</title>
<polygon fill="white" stroke="#bfbfbf" points="332,-116.5 332,-137.5 394,-137.5 394,-116.5 332,-116.5"/>
<text text-anchor="middle" x="363" y="-124.5" font-family="Helvetica,sans-Serif" font-size="10.00">type_traits</text>
</g>
<!-- Node2&#45;&gt;Node15 -->
<g id="edge34" class="edge"><title>Node2&#45;&gt;Node15</title>
<path fill="none" stroke="midnightblue" d="M411.178,-174.362C402.779,-166.104 390.946,-154.472 381.11,-144.803"/>
<polygon fill="midnightblue" stroke="midnightblue" points="383.338,-142.085 373.753,-137.571 378.431,-147.077 383.338,-142.085"/>
</g>
<!-- Node4 -->
<g id="node9" class="node"><title>Node4</title>
<polygon fill="white" stroke="#bfbfbf" points="202.5,-58.5 202.5,-79.5 243.5,-79.5 243.5,-58.5 202.5,-58.5"/>
<text text-anchor="middle" x="223" y="-66.5" font-family="Helvetica,sans-Serif" font-size="10.00">bitset</text>
</g>
<!-- Node3&#45;&gt;Node4 -->
<g id="edge8" class="edge"><title>Node3&#45;&gt;Node4</title>
<path fill="none" stroke="midnightblue" d="M219.734,-116.362C220.247,-108.922 220.949,-98.7427 221.571,-89.7276"/>
<polygon fill="midnightblue" stroke="midnightblue" points="225.075,-89.7878 222.271,-79.5707 218.091,-89.3061 225.075,-89.7878"/>
</g>
<!-- Node6 -->
<g id="node13" class="node"><title>Node6</title>
<a xlink:href="vec2_8h.html" target="_top" xlink:title="vec2.h">
<polygon fill="white" stroke="black" points="139,-58.5 139,-79.5 185,-79.5 185,-58.5 139,-58.5"/>
<text text-anchor="middle" x="162" y="-66.5" font-family="Helvetica,sans-Serif" font-size="10.00">vec2.h</text>
</a>
</g>
<!-- Node5&#45;&gt;Node6 -->
<g id="edge12" class="edge"><title>Node5&#45;&gt;Node6</title>
<path fill="none" stroke="midnightblue" d="M65.3689,-116.497C83.799,-107.438 110.637,-94.2462 131.355,-84.0628"/>
<polygon fill="midnightblue" stroke="midnightblue" points="132.961,-87.1735 140.391,-79.6212 129.873,-80.8914 132.961,-87.1735"/>
</g>
<!-- Node5&#45;&gt;Node7 -->
<g id="edge18" class="edge"><title>Node5&#45;&gt;Node7</title>
<path fill="none" stroke="midnightblue" d="M43.2411,-116.491C42.7659,-101.375 44.2965,-73.5994 60,-58 84.623,-33.5404 184.434,-19.7638 236.711,-14.0942"/>
<polygon fill="midnightblue" stroke="midnightblue" points="237.218,-17.5604 246.799,-13.037 236.488,-10.5985 237.218,-17.5604"/>
</g>
<!-- Node8 -->
<g id="node17" class="node"><title>Node8</title>
<polygon fill="white" stroke="#bfbfbf" points="69,-58.5 69,-79.5 121,-79.5 121,-58.5 69,-58.5"/>
<text text-anchor="middle" x="95" y="-66.5" font-family="Helvetica,sans-Serif" font-size="10.00">ostream</text>
</g>
<!-- Node5&#45;&gt;Node8 -->
<g id="edge16" class="edge"><title>Node5&#45;&gt;Node8</title>
<path fill="none" stroke="midnightblue" d="M53.3542,-116.362C60.5433,-108.186 70.6409,-96.7025 79.0927,-87.0907"/>
<polygon fill="midnightblue" stroke="midnightblue" points="81.7301,-89.3916 85.7051,-79.5707 76.4733,-84.7692 81.7301,-89.3916"/>
</g>
<!-- Node6&#45;&gt;Node7 -->
<g id="edge14" class="edge"><title>Node6&#45;&gt;Node7</title>
<path fill="none" stroke="midnightblue" d="M181.625,-58.3619C198.141,-49.4094 221.974,-36.4908 240.578,-26.4064"/>
<polygon fill="midnightblue" stroke="midnightblue" points="242.375,-29.4132 249.499,-21.5707 239.04,-23.2592 242.375,-29.4132"/>
</g>
<!-- Node9&#45;&gt;Node7 -->
<g id="edge22" class="edge"><title>Node9&#45;&gt;Node7</title>
<path fill="none" stroke="midnightblue" d="M505.006,-116.295C457.785,-95.2273 352.827,-48.3997 300.263,-24.948"/>
<polygon fill="midnightblue" stroke="midnightblue" points="301.642,-21.7307 291.083,-20.8526 298.79,-28.1233 301.642,-21.7307"/>
</g>
<!-- Node10 -->
<g id="node23" class="node"><title>Node10</title>
<polygon fill="white" stroke="#bfbfbf" points="509,-58.5 509,-79.5 549,-79.5 549,-58.5 509,-58.5"/>
<text text-anchor="middle" x="529" y="-66.5" font-family="Helvetica,sans-Serif" font-size="10.00">limits</text>
</g>
<!-- Node9&#45;&gt;Node10 -->
<g id="edge24" class="edge"><title>Node9&#45;&gt;Node10</title>
<path fill="none" stroke="midnightblue" d="M529,-116.362C529,-108.922 529,-98.7427 529,-89.7276"/>
<polygon fill="midnightblue" stroke="midnightblue" points="532.5,-89.5706 529,-79.5707 525.5,-89.5707 532.5,-89.5706"/>
</g>
<!-- Node9&#45;&gt;Node11 -->
<g id="edge26" class="edge"><title>Node9&#45;&gt;Node11</title>
<path fill="none" stroke="midnightblue" d="M547.342,-116.362C562.566,-107.532 584.441,-94.844 601.72,-84.8224"/>
<polygon fill="midnightblue" stroke="midnightblue" points="603.88,-87.6155 610.775,-79.5707 600.368,-81.5603 603.88,-87.6155"/>
</g>
<!-- Node18&#45;&gt;Node11 -->
<g id="edge48" class="edge"><title>Node18&#45;&gt;Node11</title>
<path fill="none" stroke="midnightblue" d="M693.687,-232.835C689.72,-206.679 680.222,-155.7 662,-116 657.37,-105.912 650.526,-95.7099 644.269,-87.4003"/>
<polygon fill="midnightblue" stroke="midnightblue" points="647.005,-85.2176 638.079,-79.5102 641.498,-89.5383 647.005,-85.2176"/>
</g>
<!-- Node18&#45;&gt;Node19 -->
<g id="edge50" class="edge"><title>Node18&#45;&gt;Node19</title>
<path fill="none" stroke="midnightblue" d="M679.185,-232.922C670.157,-223.754 659.031,-212.454 649.85,-203.129"/>
<polygon fill="midnightblue" stroke="midnightblue" points="652.195,-200.522 642.685,-195.852 647.207,-205.433 652.195,-200.522"/>
</g>
<!-- Node20 -->
<g id="node47" class="node"><title>Node20</title>
<polygon fill="white" stroke="#bfbfbf" points="787.5,-174.5 787.5,-195.5 846.5,-195.5 846.5,-174.5 787.5,-174.5"/>
<text text-anchor="middle" x="817" y="-182.5" font-family="Helvetica,sans-Serif" font-size="10.00">functional</text>
</g>
<!-- Node18&#45;&gt;Node20 -->
<g id="edge52" class="edge"><title>Node18&#45;&gt;Node20</title>
<path fill="none" stroke="midnightblue" d="M727.791,-232.922C746.514,-222.864 770.012,-210.242 788.191,-200.476"/>
<polygon fill="midnightblue" stroke="midnightblue" points="790.006,-203.474 797.159,-195.658 786.693,-197.307 790.006,-203.474"/>
</g>
<!-- Node21 -->
<g id="node49" class="node"><title>Node21</title>
<polygon fill="white" stroke="#bfbfbf" points="714,-174.5 714,-195.5 770,-195.5 770,-174.5 714,-174.5"/>
<text text-anchor="middle" x="742" y="-182.5" font-family="Helvetica,sans-Serif" font-size="10.00">algorithm</text>
</g>
<!-- Node18&#45;&gt;Node21 -->
<g id="edge54" class="edge"><title>Node18&#45;&gt;Node21</title>
<path fill="none" stroke="midnightblue" d="M708.086,-232.922C714.315,-224.12 721.934,-213.354 728.372,-204.258"/>
<polygon fill="midnightblue" stroke="midnightblue" points="731.4,-206.037 734.32,-195.852 725.686,-201.993 731.4,-206.037"/>
</g>
</g>
</svg>
