<?xml version="1.0" encoding="UTF-8" standalone="no"?>
<!DOCTYPE svg PUBLIC "-//W3C//DTD SVG 1.1//EN"
 "http://www.w3.org/Graphics/SVG/1.1/DTD/svg11.dtd">
<!-- Generated by graphviz version 2.26.3 (20100126.1600)
 -->
<!-- Title: src/tree/TCalibrationData.h Pages: 1 -->
<svg width="3310pt" height="258pt"
 viewBox="0.00 0.00 3310.00 258.00" xmlns="http://www.w3.org/2000/svg" xmlns:xlink="http://www.w3.org/1999/xlink">
<g id="graph1" class="graph" transform="scale(1 1) rotate(0) translate(4 254)">
<title>src/tree/TCalibrationData.h</title>
<polygon fill="white" stroke="white" points="-4,5 -4,-254 3307,-254 3307,5 -4,5"/>
<!-- Node18 -->
<g id="node1" class="node"><title>Node18</title>
<polygon fill="#bfbfbf" stroke="black" points="1457,-228.5 1457,-249.5 1591,-249.5 1591,-228.5 1457,-228.5"/>
<text text-anchor="middle" x="1524" y="-236.5" font-family="Helvetica,sans-Serif" font-size="10.00">src/tree/TCalibrationData.h</text>
</g>
<!-- Node19 -->
<g id="node3" class="node"><title>Node19</title>
<a xlink:href="_ant-calib-dump_8cc.html" target="_top" xlink:title="progs/Ant&#45;calib&#45;dump.cc">
<polygon fill="white" stroke="black" points="0,-79.5 0,-100.5 122,-100.5 122,-79.5 0,-79.5"/>
<text text-anchor="middle" x="61" y="-87.5" font-family="Helvetica,sans-Serif" font-size="10.00">progs/Ant&#45;calib&#45;dump.cc</text>
</a>
</g>
<!-- Node18&#45;&gt;Node19 -->
<g id="edge2" class="edge"><title>Node18&#45;&gt;Node19</title>
<path fill="none" stroke="midnightblue" d="M1446.59,-237.758C1193.75,-233.464 402.056,-218.066 290,-192 206.49,-172.574 115.898,-122.644 78.5769,-100.661"/>
<polygon fill="midnightblue" stroke="midnightblue" points="1446.73,-241.26 1456.79,-237.93 1446.85,-234.261 1446.73,-241.26"/>
</g>
<!-- Node20 -->
<g id="node5" class="node"><title>Node20</title>
<a xlink:href="_ant-calib-readin_8cc.html" target="_top" xlink:title="progs/Ant&#45;calib&#45;readin.cc">
<polygon fill="white" stroke="black" points="139.5,-79.5 139.5,-100.5 264.5,-100.5 264.5,-79.5 139.5,-79.5"/>
<text text-anchor="middle" x="202" y="-87.5" font-family="Helvetica,sans-Serif" font-size="10.00">progs/Ant&#45;calib&#45;readin.cc</text>
</a>
</g>
<!-- Node18&#45;&gt;Node20 -->
<g id="edge4" class="edge"><title>Node18&#45;&gt;Node20</title>
<path fill="none" stroke="midnightblue" d="M1446.69,-237.555C1210.99,-232.897 511.458,-217.099 412,-192 334.58,-172.462 251.957,-122.592 217.985,-100.643"/>
<polygon fill="midnightblue" stroke="midnightblue" points="1446.82,-241.059 1456.89,-237.756 1446.96,-234.06 1446.82,-241.059"/>
</g>
<!-- Node21 -->
<g id="node7" class="node"><title>Node21</title>
<a xlink:href="_ant-calib-regedit_8cc.html" target="_top" xlink:title="progs/Ant&#45;calib&#45;regedit.cc">
<polygon fill="white" stroke="black" points="826,-157.5 826,-178.5 954,-178.5 954,-157.5 826,-157.5"/>
<text text-anchor="middle" x="890" y="-165.5" font-family="Helvetica,sans-Serif" font-size="10.00">progs/Ant&#45;calib&#45;regedit.cc</text>
</a>
</g>
<!-- Node18&#45;&gt;Node21 -->
<g id="edge6" class="edge"><title>Node18&#45;&gt;Node21</title>
<path fill="none" stroke="midnightblue" d="M1446.57,-234.759C1315.01,-227.178 1053.31,-210.364 963,-192 947.443,-188.836 930.575,-183.428 916.977,-178.546"/>
<polygon fill="midnightblue" stroke="midnightblue" points="1446.4,-238.255 1456.58,-235.333 1446.8,-231.267 1446.4,-238.255"/>
</g>
<!-- Node22 -->
<g id="node9" class="node"><title>Node22</title>
<a xlink:href="_ant-calib-smooth_8cc.html" target="_top" xlink:title="progs/Ant&#45;calib&#45;smooth.cc">
<polygon fill="white" stroke="black" points="281.5,-79.5 281.5,-100.5 412.5,-100.5 412.5,-79.5 281.5,-79.5"/>
<text text-anchor="middle" x="347" y="-87.5" font-family="Helvetica,sans-Serif" font-size="10.00">progs/Ant&#45;calib&#45;smooth.cc</text>
</a>
</g>
<!-- Node18&#45;&gt;Node22 -->
<g id="edge8" class="edge"><title>Node18&#45;&gt;Node22</title>
<path fill="none" stroke="midnightblue" d="M1446.46,-237.703C1224.43,-233.668 596.481,-219.902 508,-192 445.833,-172.396 384.004,-122.562 358.807,-100.632"/>
<polygon fill="midnightblue" stroke="midnightblue" points="1446.66,-241.207 1456.72,-237.888 1446.79,-234.208 1446.66,-241.207"/>
</g>
<!-- Node23 -->
<g id="node11" class="node"><title>Node23</title>
<a xlink:href="_ant-calib-viewer_8cc.html" target="_top" xlink:title="progs/Ant&#45;calib&#45;viewer.cc">
<polygon fill="white" stroke="black" points="429.5,-79.5 429.5,-100.5 556.5,-100.5 556.5,-79.5 429.5,-79.5"/>
<text text-anchor="middle" x="493" y="-87.5" font-family="Helvetica,sans-Serif" font-size="10.00">progs/Ant&#45;calib&#45;viewer.cc</text>
</a>
</g>
<!-- Node18&#45;&gt;Node23 -->
<g id="edge10" class="edge"><title>Node18&#45;&gt;Node23</title>
<path fill="none" stroke="midnightblue" d="M1446.59,-237.253C1223.22,-231.949 591.01,-214.977 553,-192 518.539,-171.168 501.676,-122.445 495.664,-100.75"/>
<polygon fill="midnightblue" stroke="midnightblue" points="1446.83,-240.76 1456.91,-237.497 1447,-233.762 1446.83,-240.76"/>
</g>
<!-- Node24 -->
<g id="node13" class="node"><title>Node24</title>
<a xlink:href="_ant-_e_corr_8cc.html" target="_top" xlink:title="progs/Ant&#45;ECorr.cc">
<polygon fill="white" stroke="black" points="971.5,-157.5 971.5,-178.5 1072.5,-178.5 1072.5,-157.5 971.5,-157.5"/>
<text text-anchor="middle" x="1022" y="-165.5" font-family="Helvetica,sans-Serif" font-size="10.00">progs/Ant&#45;ECorr.cc</text>
</a>
</g>
<!-- Node18&#45;&gt;Node24 -->
<g id="edge12" class="edge"><title>Node18&#45;&gt;Node24</title>
<path fill="none" stroke="midnightblue" d="M1446.49,-233.407C1338.44,-225.16 1148.22,-208.879 1081,-192 1068.24,-188.795 1054.59,-183.384 1043.64,-178.51"/>
<polygon fill="midnightblue" stroke="midnightblue" points="1446.45,-236.914 1456.69,-234.18 1446.98,-229.934 1446.45,-236.914"/>
</g>
<!-- Node25 -->
<g id="node15" class="node"><title>Node25</title>
<a xlink:href="_ant-make_tagg_eff_8cc.html" target="_top" xlink:title="progs/Ant&#45;makeTaggEff.cc">
<polygon fill="white" stroke="black" points="1090,-157.5 1090,-178.5 1224,-178.5 1224,-157.5 1090,-157.5"/>
<text text-anchor="middle" x="1157" y="-165.5" font-family="Helvetica,sans-Serif" font-size="10.00">progs/Ant&#45;makeTaggEff.cc</text>
</a>
</g>
<!-- Node18&#45;&gt;Node25 -->
<g id="edge14" class="edge"><title>Node18&#45;&gt;Node25</title>
<path fill="none" stroke="midnightblue" d="M1447.01,-229.68C1388,-221.788 1304.78,-209.035 1233,-192 1217.65,-188.358 1200.9,-183.2 1187.04,-178.599"/>
<polygon fill="midnightblue" stroke="midnightblue" points="1446.63,-233.16 1457,-231.001 1447.54,-226.221 1446.63,-233.16"/>
</g>
<!-- Node26 -->
<g id="node17" class="node"><title>Node26</title>
<a xlink:href="_ant-mcsmearing_8cc.html" target="_top" xlink:title="progs/Ant&#45;mcsmearing.cc">
<polygon fill="white" stroke="black" points="1242,-157.5 1242,-178.5 1370,-178.5 1370,-157.5 1242,-157.5"/>
<text text-anchor="middle" x="1306" y="-165.5" font-family="Helvetica,sans-Serif" font-size="10.00">progs/Ant&#45;mcsmearing.cc</text>
</a>
</g>
<!-- Node18&#45;&gt;Node26 -->
<g id="edge16" class="edge"><title>Node18&#45;&gt;Node26</title>
<path fill="none" stroke="midnightblue" d="M1481.67,-225.331C1452.75,-215.978 1413.54,-203.276 1379,-192 1365.56,-187.611 1350.73,-182.742 1337.97,-178.543"/>
<polygon fill="midnightblue" stroke="midnightblue" points="1480.86,-228.747 1491.45,-228.492 1483.01,-222.086 1480.86,-228.747"/>
</g>
<!-- Node27 -->
<g id="node19" class="node"><title>Node27</title>
<a xlink:href="_ant-smooth_tagg_eff_8cc.html" target="_top" xlink:title="progs/Ant&#45;smoothTaggEff.cc">
<polygon fill="white" stroke="black" points="818,-79.5 818,-100.5 960,-100.5 960,-79.5 818,-79.5"/>
<text text-anchor="middle" x="889" y="-87.5" font-family="Helvetica,sans-Serif" font-size="10.00">progs/Ant&#45;smoothTaggEff.cc</text>
</a>
</g>
<!-- Node18&#45;&gt;Node27 -->
<g id="edge18" class="edge"><title>Node18&#45;&gt;Node27</title>
<path fill="none" stroke="midnightblue" d="M1446.78,-237.051C1257.88,-231.909 786.176,-216.651 763,-192 748.387,-176.457 751.256,-161.81 763,-144 777.935,-121.35 804.555,-108.164 829.491,-100.505"/>
<polygon fill="midnightblue" stroke="midnightblue" points="1446.82,-240.554 1456.91,-237.325 1447.01,-233.556 1446.82,-240.554"/>
</g>
<!-- Node28 -->
<g id="node21" class="node"><title>Node28</title>
<a xlink:href="_ant-tuning-viewer_8cc.html" target="_top" xlink:title="progs/Ant&#45;tuning&#45;viewer.cc">
<polygon fill="white" stroke="black" points="1387.5,-157.5 1387.5,-178.5 1520.5,-178.5 1520.5,-157.5 1387.5,-157.5"/>
<text text-anchor="middle" x="1454" y="-165.5" font-family="Helvetica,sans-Serif" font-size="10.00">progs/Ant&#45;tuning&#45;viewer.cc</text>
</a>
</g>
<!-- Node18&#45;&gt;Node28 -->
<g id="edge20" class="edge"><title>Node18&#45;&gt;Node28</title>
<path fill="none" stroke="midnightblue" d="M1506.24,-220.983C1493.15,-207.705 1475.77,-190.079 1464.73,-178.885"/>
<polygon fill="midnightblue" stroke="midnightblue" points="1503.86,-223.553 1513.37,-228.217 1508.84,-218.638 1503.86,-223.553"/>
</g>
<!-- Node29 -->
<g id="node23" class="node"><title>Node29</title>
<a xlink:href="_data_base_8h.html" target="_top" xlink:title="src/calibration/DataBase.h">
<polygon fill="white" stroke="black" points="562,-157.5 562,-178.5 694,-178.5 694,-157.5 562,-157.5"/>
<text text-anchor="middle" x="628" y="-165.5" font-family="Helvetica,sans-Serif" font-size="10.00">src/calibration/DataBase.h</text>
</a>
</g>
<!-- Node18&#45;&gt;Node29 -->
<g id="edge22" class="edge"><title>Node18&#45;&gt;Node29</title>
<path fill="none" stroke="midnightblue" d="M1446.63,-236.852C1271.37,-231.612 848.443,-216.758 708,-192 690.864,-188.979 672.215,-183.517 657.236,-178.566"/>
<polygon fill="midnightblue" stroke="midnightblue" points="1446.7,-240.356 1456.8,-237.154 1446.91,-233.359 1446.7,-240.356"/>
</g>
<!-- Node32 -->
<g id="node34" class="node"><title>Node32</title>
<a xlink:href="_data_manager_8cc.html" target="_top" xlink:title="src/calibration/DataManager.cc">
<polygon fill="white" stroke="black" points="978,-79.5 978,-100.5 1130,-100.5 1130,-79.5 978,-79.5"/>
<text text-anchor="middle" x="1054" y="-87.5" font-family="Helvetica,sans-Serif" font-size="10.00">src/calibration/DataManager.cc</text>
</a>
</g>
<!-- Node18&#45;&gt;Node32 -->
<g id="edge42" class="edge"><title>Node18&#45;&gt;Node32</title>
<path fill="none" stroke="midnightblue" d="M1446.68,-236.948C1260.45,-231.63 800.64,-216.111 778,-192 763.397,-176.448 764.384,-160.423 778,-144 805.568,-110.75 926.648,-116.475 969,-108 980.685,-105.662 993.253,-103.053 1005.05,-100.562"/>
<polygon fill="midnightblue" stroke="midnightblue" points="1446.85,-240.454 1456.95,-237.239 1447.05,-233.457 1446.85,-240.454"/>
</g>
<!-- Node33 -->
<g id="node36" class="node"><title>Node33</title>
<a xlink:href="_test_data_manager_8cc.html" target="_top" xlink:title="test/calibration/TestData\lManager.cc">
<polygon fill="white" stroke="black" points="1148,-73 1148,-107 1272,-107 1272,-73 1148,-73"/>
<text text-anchor="start" x="1156" y="-94" font-family="Helvetica,sans-Serif" font-size="10.00">test/calibration/TestData</text>
<text text-anchor="middle" x="1210" y="-81" font-family="Helvetica,sans-Serif" font-size="10.00">Manager.cc</text>
</a>
</g>
<!-- Node18&#45;&gt;Node33 -->
<g id="edge86" class="edge"><title>Node18&#45;&gt;Node33</title>
<path fill="none" stroke="midnightblue" d="M1446.59,-236.664C1267.51,-230.883 838.256,-214.716 817,-192 731.962,-101.121 790.251,-171.395 1139,-108 1141.88,-107.477 1144.81,-106.903 1147.77,-106.29"/>
<polygon fill="midnightblue" stroke="midnightblue" points="1446.62,-240.166 1456.73,-236.989 1446.85,-233.17 1446.62,-240.166"/>
</g>
<!-- Node34 -->
<g id="node39" class="node"><title>Node34</title>
<a xlink:href="_editor_8h.html" target="_top" xlink:title="src/calibration/Editor.h">
<polygon fill="white" stroke="black" points="1538,-157.5 1538,-178.5 1652,-178.5 1652,-157.5 1538,-157.5"/>
<text text-anchor="middle" x="1595" y="-165.5" font-family="Helvetica,sans-Serif" font-size="10.00">src/calibration/Editor.h</text>
</a>
</g>
<!-- Node18&#45;&gt;Node34 -->
<g id="edge44" class="edge"><title>Node18&#45;&gt;Node34</title>
<path fill="none" stroke="midnightblue" d="M1542.02,-220.983C1555.29,-207.705 1572.92,-190.079 1584.12,-178.885"/>
<polygon fill="midnightblue" stroke="midnightblue" points="1539.38,-218.671 1534.78,-228.217 1544.33,-223.62 1539.38,-218.671"/>
</g>
<!-- Node41 -->
<g id="node56" class="node"><title>Node41</title>
<a xlink:href="_calib_type_8cc.html" target="_top" xlink:title="src/calibration/modules\l/CalibType.cc">
<polygon fill="white" stroke="black" points="1669.5,-151 1669.5,-185 1786.5,-185 1786.5,-151 1669.5,-151"/>
<text text-anchor="start" x="1677.5" y="-172" font-family="Helvetica,sans-Serif" font-size="10.00">src/calibration/modules</text>
<text text-anchor="middle" x="1728" y="-159" font-family="Helvetica,sans-Serif" font-size="10.00">/CalibType.cc</text>
</a>
</g>
<!-- Node18&#45;&gt;Node41 -->
<g id="edge64" class="edge"><title>Node18&#45;&gt;Node41</title>
<path fill="none" stroke="midnightblue" d="M1564.65,-225.213C1591.94,-215.922 1628.67,-203.337 1661,-192 1667.3,-189.792 1673.92,-187.448 1680.45,-185.123"/>
<polygon fill="midnightblue" stroke="midnightblue" points="1563.39,-221.945 1555.06,-228.479 1565.65,-228.571 1563.39,-221.945"/>
</g>
<!-- Node42 -->
<g id="node58" class="node"><title>Node42</title>
<a xlink:href="calibration_2modules_2_c_b___time_walk_8cc.html" target="_top" xlink:title="src/calibration/modules\l/CB_TimeWalk.cc">
<polygon fill="white" stroke="black" points="1803.5,-151 1803.5,-185 1920.5,-185 1920.5,-151 1803.5,-151"/>
<text text-anchor="start" x="1811.5" y="-172" font-family="Helvetica,sans-Serif" font-size="10.00">src/calibration/modules</text>
<text text-anchor="middle" x="1862" y="-159" font-family="Helvetica,sans-Serif" font-size="10.00">/CB_TimeWalk.cc</text>
</a>
</g>
<!-- Node18&#45;&gt;Node42 -->
<g id="edge66" class="edge"><title>Node18&#45;&gt;Node42</title>
<path fill="none" stroke="midnightblue" d="M1601.2,-229.222C1655.84,-221.428 1730.56,-208.994 1795,-192 1802.41,-190.047 1810.16,-187.632 1817.65,-185.093"/>
<polygon fill="midnightblue" stroke="midnightblue" points="1600.65,-225.765 1591.23,-230.624 1601.62,-232.697 1600.65,-225.765"/>
</g>
<!-- Node43 -->
<g id="node60" class="node"><title>Node43</title>
<a xlink:href="_cluster_correction_8cc.html" target="_top" xlink:title="src/calibration/modules\l/ClusterCorrection.cc">
<polygon fill="white" stroke="black" points="1937.5,-151 1937.5,-185 2054.5,-185 2054.5,-151 1937.5,-151"/>
<text text-anchor="start" x="1945.5" y="-172" font-family="Helvetica,sans-Serif" font-size="10.00">src/calibration/modules</text>
<text text-anchor="middle" x="1996" y="-159" font-family="Helvetica,sans-Serif" font-size="10.00">/ClusterCorrection.cc</text>
</a>
</g>
<!-- Node18&#45;&gt;Node43 -->
<g id="edge68" class="edge"><title>Node18&#45;&gt;Node43</title>
<path fill="none" stroke="midnightblue" d="M1601.1,-235.297C1683.26,-230.138 1816.69,-218.268 1929,-192 1936.82,-190.171 1944.99,-187.724 1952.82,-185.09"/>
<polygon fill="midnightblue" stroke="midnightblue" points="1600.86,-231.805 1591.1,-235.908 1601.29,-238.792 1600.86,-231.805"/>
</g>
<!-- Node44 -->
<g id="node62" class="node"><title>Node44</title>
<a xlink:href="_t_h2_storage_8cc.html" target="_top" xlink:title="src/calibration/modules\l/detail/TH2Storage.cc">
<polygon fill="white" stroke="black" points="2071.5,-151 2071.5,-185 2188.5,-185 2188.5,-151 2071.5,-151"/>
<text text-anchor="start" x="2079.5" y="-172" font-family="Helvetica,sans-Serif" font-size="10.00">src/calibration/modules</text>
<text text-anchor="middle" x="2130" y="-159" font-family="Helvetica,sans-Serif" font-size="10.00">/detail/TH2Storage.cc</text>
</a>
</g>
<!-- Node18&#45;&gt;Node44 -->
<g id="edge70" class="edge"><title>Node18&#45;&gt;Node44</title>
<path fill="none" stroke="midnightblue" d="M1601.29,-234.712C1728.67,-227.233 1977.12,-210.796 2063,-192 2071.09,-190.23 2079.53,-187.743 2087.59,-185.034"/>
<polygon fill="midnightblue" stroke="midnightblue" points="1601,-231.223 1591.22,-235.299 1601.41,-238.211 1601,-231.223"/>
</g>
<!-- Node45 -->
<g id="node64" class="node"><title>Node45</title>
<a xlink:href="_energy_8cc.html" target="_top" xlink:title="src/calibration/modules\l/Energy.cc">
<polygon fill="white" stroke="black" points="2205.5,-151 2205.5,-185 2322.5,-185 2322.5,-151 2205.5,-151"/>
<text text-anchor="start" x="2213.5" y="-172" font-family="Helvetica,sans-Serif" font-size="10.00">src/calibration/modules</text>
<text text-anchor="middle" x="2264" y="-159" font-family="Helvetica,sans-Serif" font-size="10.00">/Energy.cc</text>
</a>
</g>
<!-- Node18&#45;&gt;Node45 -->
<g id="edge72" class="edge"><title>Node18&#45;&gt;Node45</title>
<path fill="none" stroke="midnightblue" d="M1601.34,-236.263C1753.19,-230.45 2085.23,-215.455 2197,-192 2205.22,-190.274 2213.8,-187.772 2221.97,-185.028"/>
<polygon fill="midnightblue" stroke="midnightblue" points="1601.03,-232.772 1591.17,-236.649 1601.29,-239.767 1601.03,-232.772"/>
</g>
<!-- Node46 -->
<g id="node66" class="node"><title>Node46</title>
<a xlink:href="_energy___g_u_i_8cc.html" target="_top" xlink:title="src/calibration/modules\l/Energy_GUI.cc">
<polygon fill="white" stroke="black" points="2339.5,-151 2339.5,-185 2456.5,-185 2456.5,-151 2339.5,-151"/>
<text text-anchor="start" x="2347.5" y="-172" font-family="Helvetica,sans-Serif" font-size="10.00">src/calibration/modules</text>
<text text-anchor="middle" x="2398" y="-159" font-family="Helvetica,sans-Serif" font-size="10.00">/Energy_GUI.cc</text>
</a>
</g>
<!-- Node18&#45;&gt;Node46 -->
<g id="edge74" class="edge"><title>Node18&#45;&gt;Node46</title>
<path fill="none" stroke="midnightblue" d="M1601.25,-237.309C1775.16,-233.046 2192.97,-220.134 2331,-192 2339.23,-190.322 2347.82,-187.842 2355.99,-185.105"/>
<polygon fill="midnightblue" stroke="midnightblue" points="1601.07,-233.812 1591.15,-237.553 1601.23,-240.81 1601.07,-233.812"/>
</g>
<!-- Node47 -->
<g id="node68" class="node"><title>Node47</title>
<a xlink:href="calibration_2modules_2_p_i_d___phi_angle_8cc.html" target="_top" xlink:title="src/calibration/modules\l/PID_PhiAngle.cc">
<polygon fill="white" stroke="black" points="2473.5,-151 2473.5,-185 2590.5,-185 2590.5,-151 2473.5,-151"/>
<text text-anchor="start" x="2481.5" y="-172" font-family="Helvetica,sans-Serif" font-size="10.00">src/calibration/modules</text>
<text text-anchor="middle" x="2532" y="-159" font-family="Helvetica,sans-Serif" font-size="10.00">/PID_PhiAngle.cc</text>
</a>
</g>
<!-- Node18&#45;&gt;Node47 -->
<g id="edge76" class="edge"><title>Node18&#45;&gt;Node47</title>
<path fill="none" stroke="midnightblue" d="M1601.35,-238.057C1795.68,-235.218 2300.52,-224.819 2465,-192 2473.36,-190.332 2482.08,-187.819 2490.36,-185.039"/>
<polygon fill="midnightblue" stroke="midnightblue" points="1601.17,-234.559 1591.22,-238.202 1601.27,-241.558 1601.17,-234.559"/>
</g>
<!-- Node48 -->
<g id="node70" class="node"><title>Node48</title>
<a xlink:href="_tagg_eff_8cc.html" target="_top" xlink:title="src/calibration/modules\l/TaggEff.cc">
<polygon fill="white" stroke="black" points="2607.5,-151 2607.5,-185 2724.5,-185 2724.5,-151 2607.5,-151"/>
<text text-anchor="start" x="2615.5" y="-172" font-family="Helvetica,sans-Serif" font-size="10.00">src/calibration/modules</text>
<text text-anchor="middle" x="2666" y="-159" font-family="Helvetica,sans-Serif" font-size="10.00">/TaggEff.cc</text>
</a>
</g>
<!-- Node18&#45;&gt;Node48 -->
<g id="edge78" class="edge"><title>Node18&#45;&gt;Node48</title>
<path fill="none" stroke="midnightblue" d="M1601.3,-238.622C1814.52,-237.103 2407.82,-229.528 2599,-192 2607.37,-190.358 2616.09,-187.857 2624.37,-185.081"/>
<polygon fill="midnightblue" stroke="midnightblue" points="1601.11,-235.124 1591.13,-238.692 1601.16,-242.123 1601.11,-235.124"/>
</g>
<!-- Node49 -->
<g id="node72" class="node"><title>Node49</title>
<a xlink:href="_t_a_p_s___to_f_8cc.html" target="_top" xlink:title="src/calibration/modules\l/TAPS_ToF.cc">
<polygon fill="white" stroke="black" points="2741.5,-151 2741.5,-185 2858.5,-185 2858.5,-151 2741.5,-151"/>
<text text-anchor="start" x="2749.5" y="-172" font-family="Helvetica,sans-Serif" font-size="10.00">src/calibration/modules</text>
<text text-anchor="middle" x="2800" y="-159" font-family="Helvetica,sans-Serif" font-size="10.00">/TAPS_ToF.cc</text>
</a>
</g>
<!-- Node18&#45;&gt;Node49 -->
<g id="edge80" class="edge"><title>Node18&#45;&gt;Node49</title>
<path fill="none" stroke="midnightblue" d="M1601.06,-237.368C1849.94,-231.907 2622.53,-213.408 2733,-192 2741.37,-190.378 2750.1,-187.887 2758.38,-185.113"/>
<polygon fill="midnightblue" stroke="midnightblue" points="1600.94,-233.869 1591.02,-237.587 1601.09,-240.868 1600.94,-233.869"/>
</g>
<!-- Node50 -->
<g id="node74" class="node"><title>Node50</title>
<a xlink:href="calibration_2modules_2_time_8cc.html" target="_top" xlink:title="src/calibration/modules\l/Time.cc">
<polygon fill="white" stroke="black" points="2875.5,-151 2875.5,-185 2992.5,-185 2992.5,-151 2875.5,-151"/>
<text text-anchor="start" x="2883.5" y="-172" font-family="Helvetica,sans-Serif" font-size="10.00">src/calibration/modules</text>
<text text-anchor="middle" x="2934" y="-159" font-family="Helvetica,sans-Serif" font-size="10.00">/Time.cc</text>
</a>
</g>
<!-- Node18&#45;&gt;Node50 -->
<g id="edge82" class="edge"><title>Node18&#45;&gt;Node50</title>
<path fill="none" stroke="midnightblue" d="M1601.32,-237.685C1868.47,-232.949 2743,-215.779 2867,-192 2875.49,-190.371 2884.35,-187.838 2892.74,-185.018"/>
<polygon fill="midnightblue" stroke="midnightblue" points="1601.26,-234.185 1591.32,-237.861 1601.38,-241.184 1601.26,-234.185"/>
</g>
<!-- Node51 -->
<g id="node76" class="node"><title>Node51</title>
<a xlink:href="_two_pi0___m_c_smearing__tools_8cc.html" target="_top" xlink:title="src/root&#45;addons/analysis\l_codes/TwoPi0_MCSmearing\l_tools.cc">
<polygon fill="white" stroke="black" points="3010,-144.5 3010,-191.5 3156,-191.5 3156,-144.5 3010,-144.5"/>
<text text-anchor="start" x="3018" y="-178.5" font-family="Helvetica,sans-Serif" font-size="10.00">src/root&#45;addons/analysis</text>
<text text-anchor="start" x="3018" y="-165.5" font-family="Helvetica,sans-Serif" font-size="10.00">_codes/TwoPi0_MCSmearing</text>
<text text-anchor="middle" x="3083" y="-152.5" font-family="Helvetica,sans-Serif" font-size="10.00">_tools.cc</text>
</a>
</g>
<!-- Node18&#45;&gt;Node51 -->
<g id="edge84" class="edge"><title>Node18&#45;&gt;Node51</title>
<path fill="none" stroke="midnightblue" d="M1601.66,-237.678C1886.25,-232.676 2862.73,-214.068 3001,-192 3003.93,-191.532 3006.9,-190.991 3009.89,-190.391"/>
<polygon fill="midnightblue" stroke="midnightblue" points="1601.36,-234.183 1591.43,-237.857 1601.49,-241.182 1601.36,-234.183"/>
</g>
<!-- Node52 -->
<g id="node79" class="node"><title>Node52</title>
<a xlink:href="_test_t_calibration_data_8cc.html" target="_top" xlink:title="test/tree/TestTCalibration\lData.cc">
<polygon fill="white" stroke="black" points="3174,-151 3174,-185 3302,-185 3302,-151 3174,-151"/>
<text text-anchor="start" x="3182" y="-172" font-family="Helvetica,sans-Serif" font-size="10.00">test/tree/TestTCalibration</text>
<text text-anchor="middle" x="3238" y="-159" font-family="Helvetica,sans-Serif" font-size="10.00">Data.cc</text>
</a>
</g>
<!-- Node18&#45;&gt;Node52 -->
<g id="edge88" class="edge"><title>Node18&#45;&gt;Node52</title>
<path fill="none" stroke="midnightblue" d="M1601.52,-238.094C1905.93,-234.357 3010.33,-219.05 3165,-192 3174.2,-190.391 3183.83,-187.868 3192.96,-185.05"/>
<polygon fill="midnightblue" stroke="midnightblue" points="1601.41,-234.595 1591.46,-238.217 1601.5,-241.595 1601.41,-234.595"/>
</g>
<!-- Node29&#45;&gt;Node19 -->
<g id="edge24" class="edge"><title>Node29&#45;&gt;Node19</title>
<path fill="none" stroke="midnightblue" d="M551.544,-161.916C453.548,-153.399 278.664,-135.774 131,-108 120.271,-105.982 108.75,-103.257 98.2143,-100.538"/>
<polygon fill="midnightblue" stroke="midnightblue" points="551.391,-165.415 561.654,-162.786 551.991,-158.441 551.391,-165.415"/>
</g>
<!-- Node29&#45;&gt;Node20 -->
<g id="edge26" class="edge"><title>Node29&#45;&gt;Node20</title>
<path fill="none" stroke="midnightblue" d="M552.034,-156.981C479.925,-146.091 368.651,-128.174 273,-108 262.673,-105.822 251.579,-103.164 241.301,-100.566"/>
<polygon fill="midnightblue" stroke="midnightblue" points="551.535,-160.445 561.944,-158.47 552.575,-153.522 551.535,-160.445"/>
</g>
<!-- Node29&#45;&gt;Node22 -->
<g id="edge28" class="edge"><title>Node29&#45;&gt;Node22</title>
<path fill="none" stroke="midnightblue" d="M580.242,-154.743C525.198,-139.464 435.834,-114.659 385.194,-100.602"/>
<polygon fill="midnightblue" stroke="midnightblue" points="579.531,-158.178 590.103,-157.481 581.404,-151.433 579.531,-158.178"/>
</g>
<!-- Node29&#45;&gt;Node23 -->
<g id="edge30" class="edge"><title>Node29&#45;&gt;Node23</title>
<path fill="none" stroke="midnightblue" d="M600.987,-152.393C574.382,-137.021 534.467,-113.959 511.349,-100.602"/>
<polygon fill="midnightblue" stroke="midnightblue" points="599.384,-155.508 609.793,-157.481 602.886,-149.447 599.384,-155.508"/>
</g>
<!-- Node29&#45;&gt;Node27 -->
<g id="edge32" class="edge"><title>Node29&#45;&gt;Node27</title>
<path fill="none" stroke="midnightblue" d="M672.853,-154.531C684.311,-151.094 696.611,-147.407 708,-144 758.581,-128.868 817.13,-111.411 853.619,-100.538"/>
<polygon fill="midnightblue" stroke="midnightblue" points="671.616,-151.248 663.044,-157.474 673.628,-157.953 671.616,-151.248"/>
</g>
<!-- Node30 -->
<g id="node30" class="node"><title>Node30</title>
<a xlink:href="_ant_8cc.html" target="_top" xlink:title="Main Ant executable. ">
<polygon fill="white" stroke="black" points="728,-79.5 728,-100.5 800,-100.5 800,-79.5 728,-79.5"/>
<text text-anchor="middle" x="764" y="-87.5" font-family="Helvetica,sans-Serif" font-size="10.00">progs/Ant.cc</text>
</a>
</g>
<!-- Node29&#45;&gt;Node30 -->
<g id="edge34" class="edge"><title>Node29&#45;&gt;Node30</title>
<path fill="none" stroke="midnightblue" d="M655.213,-152.393C682.015,-137.021 722.226,-113.959 745.515,-100.602"/>
<polygon fill="midnightblue" stroke="midnightblue" points="653.275,-149.469 646.342,-157.481 656.757,-155.542 653.275,-149.469"/>
</g>
<!-- Node31 -->
<g id="node32" class="node"><title>Node31</title>
<a xlink:href="_data_base_8cc.html" target="_top" xlink:title="src/calibration/DataBase.cc">
<polygon fill="white" stroke="black" points="573.5,-79.5 573.5,-100.5 710.5,-100.5 710.5,-79.5 573.5,-79.5"/>
<text text-anchor="middle" x="642" y="-87.5" font-family="Helvetica,sans-Serif" font-size="10.00">src/calibration/DataBase.cc</text>
</a>
</g>
<!-- Node29&#45;&gt;Node31 -->
<g id="edge36" class="edge"><title>Node29&#45;&gt;Node31</title>
<path fill="none" stroke="midnightblue" d="M631.671,-147.546C634.374,-132.486 637.941,-112.617 640.097,-100.602"/>
<polygon fill="midnightblue" stroke="midnightblue" points="628.21,-147.02 629.888,-157.481 635.1,-148.256 628.21,-147.02"/>
</g>
<!-- Node29&#45;&gt;Node32 -->
<g id="edge38" class="edge"><title>Node29&#45;&gt;Node32</title>
<path fill="none" stroke="midnightblue" d="M687.443,-155.42C706.152,-151.592 726.911,-147.481 746,-144 844.766,-125.992 870.307,-126.405 969,-108 981.159,-105.732 994.25,-103.071 1006.43,-100.5"/>
<polygon fill="midnightblue" stroke="midnightblue" points="686.666,-152.007 677.577,-157.451 688.077,-158.863 686.666,-152.007"/>
</g>
<!-- Node29&#45;&gt;Node33 -->
<g id="edge40" class="edge"><title>Node29&#45;&gt;Node33</title>
<path fill="none" stroke="midnightblue" d="M701.789,-155.849C727.738,-151.788 757.124,-147.428 784,-144 941.313,-123.936 982.826,-135.561 1139,-108 1141.88,-107.492 1144.82,-106.929 1147.77,-106.327"/>
<polygon fill="midnightblue" stroke="midnightblue" points="700.984,-152.432 691.651,-157.447 702.074,-159.347 700.984,-152.432"/>
</g>
<!-- Node35 -->
<g id="node41" class="node"><title>Node35</title>
<a xlink:href="_editor_8cc.html" target="_top" xlink:title="src/calibration/Editor.cc">
<polygon fill="white" stroke="black" points="1474.5,-79.5 1474.5,-100.5 1593.5,-100.5 1593.5,-79.5 1474.5,-79.5"/>
<text text-anchor="middle" x="1534" y="-87.5" font-family="Helvetica,sans-Serif" font-size="10.00">src/calibration/Editor.cc</text>
</a>
</g>
<!-- Node34&#45;&gt;Node35 -->
<g id="edge46" class="edge"><title>Node34&#45;&gt;Node35</title>
<path fill="none" stroke="midnightblue" d="M1580.36,-149.278C1568.44,-134.041 1552.05,-113.084 1542.29,-100.602"/>
<polygon fill="midnightblue" stroke="midnightblue" points="1577.86,-151.76 1586.77,-157.481 1583.37,-147.447 1577.86,-151.76"/>
</g>
<!-- Node36 -->
<g id="node43" class="node"><title>Node36</title>
<a xlink:href="_editor_canvas_8h.html" target="_top" xlink:title="src/calibration/gui\l/EditorCanvas.h">
<polygon fill="white" stroke="black" points="1610.5,-73 1610.5,-107 1703.5,-107 1703.5,-73 1610.5,-73"/>
<text text-anchor="start" x="1618.5" y="-94" font-family="Helvetica,sans-Serif" font-size="10.00">src/calibration/gui</text>
<text text-anchor="middle" x="1657" y="-81" font-family="Helvetica,sans-Serif" font-size="10.00">/EditorCanvas.h</text>
</a>
</g>
<!-- Node34&#45;&gt;Node36 -->
<g id="edge48" class="edge"><title>Node34&#45;&gt;Node36</title>
<path fill="none" stroke="midnightblue" d="M1609.81,-149.371C1619.99,-136.567 1633.4,-119.69 1643.33,-107.203"/>
<polygon fill="midnightblue" stroke="midnightblue" points="1606.84,-147.474 1603.36,-157.481 1612.32,-151.83 1606.84,-147.474"/>
</g>
<!-- Node37 -->
<g id="node45" class="node"><title>Node37</title>
<a xlink:href="_editor_canvas_8cc.html" target="_top" xlink:title="src/calibration/gui\l/EditorCanvas.cc">
<polygon fill="white" stroke="black" points="1554.5,-1 1554.5,-35 1647.5,-35 1647.5,-1 1554.5,-1"/>
<text text-anchor="start" x="1562.5" y="-22" font-family="Helvetica,sans-Serif" font-size="10.00">src/calibration/gui</text>
<text text-anchor="middle" x="1601" y="-9" font-family="Helvetica,sans-Serif" font-size="10.00">/EditorCanvas.cc</text>
</a>
</g>
<!-- Node34&#45;&gt;Node37 -->
<g id="edge54" class="edge"><title>Node34&#45;&gt;Node37</title>
<path fill="none" stroke="midnightblue" d="M1559.01,-153.592C1522.77,-138.722 1471.44,-116.531 1466,-108 1457.4,-94.5099 1457.03,-85.2491 1466,-72 1485.6,-43.0495 1523.51,-29.6187 1554.17,-23.3885"/>
<polygon fill="midnightblue" stroke="midnightblue" points="1557.74,-156.854 1568.32,-157.388 1560.38,-150.372 1557.74,-156.854"/>
</g>
<!-- Node39 -->
<g id="node50" class="node"><title>Node39</title>
<a xlink:href="_editor_window_8h.html" target="_top" xlink:title="src/calibration/gui\l/EditorWindow.h">
<polygon fill="white" stroke="black" points="1720.5,-73 1720.5,-107 1813.5,-107 1813.5,-73 1720.5,-73"/>
<text text-anchor="start" x="1728.5" y="-94" font-family="Helvetica,sans-Serif" font-size="10.00">src/calibration/gui</text>
<text text-anchor="middle" x="1767" y="-81" font-family="Helvetica,sans-Serif" font-size="10.00">/EditorWindow.h</text>
</a>
</g>
<!-- Node34&#45;&gt;Node39 -->
<g id="edge56" class="edge"><title>Node34&#45;&gt;Node39</title>
<path fill="none" stroke="midnightblue" d="M1627.48,-153.273C1656.47,-140.125 1698.93,-120.867 1729.39,-107.055"/>
<polygon fill="midnightblue" stroke="midnightblue" points="1625.86,-150.163 1618.2,-157.481 1628.75,-156.538 1625.86,-150.163"/>
</g>
<!-- Node36&#45;&gt;Node37 -->
<g id="edge50" class="edge"><title>Node36&#45;&gt;Node37</title>
<path fill="none" stroke="midnightblue" d="M1637.39,-64.7923C1629.85,-55.0958 1621.42,-44.2482 1614.56,-35.4407"/>
<polygon fill="midnightblue" stroke="midnightblue" points="1634.83,-67.1923 1643.73,-72.937 1640.35,-62.8947 1634.83,-67.1923"/>
</g>
<!-- Node38 -->
<g id="node47" class="node"><title>Node38</title>
<a xlink:href="_editor_window_8cc.html" target="_top" xlink:title="src/calibration/gui\l/EditorWindow.cc">
<polygon fill="white" stroke="black" points="1665,-1 1665,-35 1759,-35 1759,-1 1665,-1"/>
<text text-anchor="start" x="1673" y="-22" font-family="Helvetica,sans-Serif" font-size="10.00">src/calibration/gui</text>
<text text-anchor="middle" x="1712" y="-9" font-family="Helvetica,sans-Serif" font-size="10.00">/EditorWindow.cc</text>
</a>
</g>
<!-- Node36&#45;&gt;Node38 -->
<g id="edge52" class="edge"><title>Node36&#45;&gt;Node38</title>
<path fill="none" stroke="midnightblue" d="M1676.26,-64.7923C1683.66,-55.0958 1691.95,-44.2482 1698.68,-35.4407"/>
<polygon fill="midnightblue" stroke="midnightblue" points="1673.32,-62.8656 1670.03,-72.937 1678.89,-67.1149 1673.32,-62.8656"/>
</g>
<!-- Node39&#45;&gt;Node37 -->
<g id="edge60" class="edge"><title>Node39&#45;&gt;Node37</title>
<path fill="none" stroke="midnightblue" d="M1718.41,-68.9238C1693.56,-58.1485 1663.72,-45.2059 1640.34,-35.0651"/>
<polygon fill="midnightblue" stroke="midnightblue" points="1717.09,-72.1687 1727.66,-72.937 1719.88,-65.7468 1717.09,-72.1687"/>
</g>
<!-- Node39&#45;&gt;Node38 -->
<g id="edge62" class="edge"><title>Node39&#45;&gt;Node38</title>
<path fill="none" stroke="midnightblue" d="M1747.74,-64.7923C1740.34,-55.0958 1732.05,-44.2482 1725.32,-35.4407"/>
<polygon fill="midnightblue" stroke="midnightblue" points="1745.11,-67.1149 1753.97,-72.937 1750.68,-62.8656 1745.11,-67.1149"/>
</g>
<!-- Node40 -->
<g id="node52" class="node"><title>Node40</title>
<a xlink:href="_ant-calib-editor_8cc.html" target="_top" xlink:title="progs/Ant&#45;calib&#45;editor.cc">
<polygon fill="white" stroke="black" points="1777,-7.5 1777,-28.5 1899,-28.5 1899,-7.5 1777,-7.5"/>
<text text-anchor="middle" x="1838" y="-15.5" font-family="Helvetica,sans-Serif" font-size="10.00">progs/Ant&#45;calib&#45;editor.cc</text>
</a>
</g>
<!-- Node39&#45;&gt;Node40 -->
<g id="edge58" class="edge"><title>Node39&#45;&gt;Node40</title>
<path fill="none" stroke="midnightblue" d="M1791.14,-65.5161C1803.41,-53.0732 1817.71,-38.5787 1827.25,-28.901"/>
<polygon fill="midnightblue" stroke="midnightblue" points="1788.36,-63.3591 1783.83,-72.937 1793.34,-68.2742 1788.36,-63.3591"/>
</g>
</g>
</svg>
