<?xml version="1.0" encoding="UTF-8" standalone="no"?>
<!DOCTYPE svg PUBLIC "-//W3C//DTD SVG 1.1//EN"
 "http://www.w3.org/Graphics/SVG/1.1/DTD/svg11.dtd">
<!-- Generated by graphviz version 2.26.3 (20100126.1600)
 -->
<!-- Title: src/root&#45;addons/cbtaps_display/TH2DrawTool.h Pages: 1 -->
<svg width="406pt" height="116pt"
 viewBox="0.00 0.00 406.00 116.00" xmlns="http://www.w3.org/2000/svg" xmlns:xlink="http://www.w3.org/1999/xlink">
<g id="graph1" class="graph" transform="scale(1 1) rotate(0) translate(4 112)">
<title>src/root&#45;addons/cbtaps_display/TH2DrawTool.h</title>
<polygon fill="white" stroke="white" points="-4,5 -4,-112 403,-112 403,5 -4,5"/>
<!-- Node7 -->
<g id="node1" class="node"><title>Node7</title>
<polygon fill="#bfbfbf" stroke="black" points="136.5,-73 136.5,-107 261.5,-107 261.5,-73 136.5,-73"/>
<text text-anchor="start" x="144.5" y="-94" font-family="Helvetica,sans-Serif" font-size="10.00">src/root&#45;addons/cbtaps</text>
<text text-anchor="middle" x="199" y="-81" font-family="Helvetica,sans-Serif" font-size="10.00">_display/TH2DrawTool.h</text>
</g>
<!-- Node8 -->
<g id="node3" class="node"><title>Node8</title>
<a xlink:href="_t_h2_c_b_8cc.html" target="_top" xlink:title="src/root&#45;addons/cbtaps\l_display/TH2CB.cc">
<polygon fill="white" stroke="black" points="0,-1 0,-35 116,-35 116,-1 0,-1"/>
<text text-anchor="start" x="8" y="-22" font-family="Helvetica,sans-Serif" font-size="10.00">src/root&#45;addons/cbtaps</text>
<text text-anchor="middle" x="58" y="-9" font-family="Helvetica,sans-Serif" font-size="10.00">_display/TH2CB.cc</text>
</a>
</g>
<!-- Node7&#45;&gt;Node8 -->
<g id="edge2" class="edge"><title>Node7&#45;&gt;Node8</title>
<path fill="none" stroke="midnightblue" d="M156.64,-68.3694C135.846,-57.7514 111.146,-45.1383 91.6638,-35.19"/>
<polygon fill="midnightblue" stroke="midnightblue" points="155.087,-71.5063 165.585,-72.937 158.271,-65.2721 155.087,-71.5063"/>
</g>
<!-- Node9 -->
<g id="node5" class="node"><title>Node9</title>
<a xlink:href="_t_h2_draw_tool_8cc.html" target="_top" xlink:title="src/root&#45;addons/cbtaps\l_display/TH2DrawTool.cc">
<polygon fill="white" stroke="black" points="134,-1 134,-35 264,-35 264,-1 134,-1"/>
<text text-anchor="start" x="142" y="-22" font-family="Helvetica,sans-Serif" font-size="10.00">src/root&#45;addons/cbtaps</text>
<text text-anchor="middle" x="199" y="-9" font-family="Helvetica,sans-Serif" font-size="10.00">_display/TH2DrawTool.cc</text>
</a>
</g>
<!-- Node7&#45;&gt;Node9 -->
<g id="edge4" class="edge"><title>Node7&#45;&gt;Node9</title>
<path fill="none" stroke="midnightblue" d="M199,-62.7193C199,-53.572 199,-43.6255 199,-35.4407"/>
<polygon fill="midnightblue" stroke="midnightblue" points="195.5,-62.937 199,-72.937 202.5,-62.937 195.5,-62.937"/>
</g>
<!-- Node10 -->
<g id="node7" class="node"><title>Node10</title>
<a xlink:href="_t_h2_t_a_p_s_8cc.html" target="_top" xlink:title="src/root&#45;addons/cbtaps\l_display/TH2TAPS.cc">
<polygon fill="white" stroke="black" points="282,-1 282,-35 398,-35 398,-1 282,-1"/>
<text text-anchor="start" x="290" y="-22" font-family="Helvetica,sans-Serif" font-size="10.00">src/root&#45;addons/cbtaps</text>
<text text-anchor="middle" x="340" y="-9" font-family="Helvetica,sans-Serif" font-size="10.00">_display/TH2TAPS.cc</text>
</a>
</g>
<!-- Node7&#45;&gt;Node10 -->
<g id="edge6" class="edge"><title>Node7&#45;&gt;Node10</title>
<path fill="none" stroke="midnightblue" d="M241.36,-68.3694C262.154,-57.7514 286.854,-45.1383 306.336,-35.19"/>
<polygon fill="midnightblue" stroke="midnightblue" points="239.729,-65.2721 232.415,-72.937 242.913,-71.5063 239.729,-65.2721"/>
</g>
</g>
</svg>
