<?xml version="1.0" encoding="UTF-8" standalone="no"?>
<!DOCTYPE svg PUBLIC "-//W3C//DTD SVG 1.1//EN"
 "http://www.w3.org/Graphics/SVG/1.1/DTD/svg11.dtd">
<!-- Generated by graphviz version 2.26.3 (20100126.1600)
 -->
<!-- Title: src/calibration/modules/detail/TH2Storage.h Pages: 1 -->
<svg width="462pt" height="218pt"
 viewBox="0.00 0.00 462.00 218.00" xmlns="http://www.w3.org/2000/svg" xmlns:xlink="http://www.w3.org/1999/xlink">
<g id="graph1" class="graph" transform="scale(1 1) rotate(0) translate(4 214)">
<title>src/calibration/modules/detail/TH2Storage.h</title>
<polygon fill="white" stroke="white" points="-4,5 -4,-214 459,-214 459,5 -4,5"/>
<!-- Node0 -->
<g id="node1" class="node"><title>Node0</title>
<polygon fill="#bfbfbf" stroke="black" points="245.5,-175 245.5,-209 362.5,-209 362.5,-175 245.5,-175"/>
<text text-anchor="start" x="253.5" y="-196" font-family="Helvetica,sans-Serif" font-size="10.00">src/calibration/modules</text>
<text text-anchor="middle" x="304" y="-183" font-family="Helvetica,sans-Serif" font-size="10.00">/detail/TH2Storage.h</text>
</g>
<!-- Node1 -->
<g id="node3" class="node"><title>Node1</title>
<a xlink:href="_bin_settings_8h.html" target="_top" xlink:title="base/BinSettings.h">
<polygon fill="white" stroke="black" points="254.5,-116.5 254.5,-137.5 353.5,-137.5 353.5,-116.5 254.5,-116.5"/>
<text text-anchor="middle" x="304" y="-124.5" font-family="Helvetica,sans-Serif" font-size="10.00">base/BinSettings.h</text>
</a>
</g>
<!-- Node0&#45;&gt;Node1 -->
<g id="edge2" class="edge"><title>Node0&#45;&gt;Node1</title>
<path fill="none" stroke="midnightblue" d="M304,-174.922C304,-166.67 304,-156.692 304,-147.982"/>
<polygon fill="midnightblue" stroke="midnightblue" points="307.5,-147.852 304,-137.852 300.5,-147.852 307.5,-147.852"/>
</g>
<!-- Node2 -->
<g id="node5" class="node"><title>Node2</title>
<a xlink:href="interval_8h.html" target="_top" xlink:title="base/interval.h">
<polygon fill="white" stroke="black" points="196,-58.5 196,-79.5 276,-79.5 276,-58.5 196,-58.5"/>
<text text-anchor="middle" x="236" y="-66.5" font-family="Helvetica,sans-Serif" font-size="10.00">base/interval.h</text>
</a>
</g>
<!-- Node1&#45;&gt;Node2 -->
<g id="edge4" class="edge"><title>Node1&#45;&gt;Node2</title>
<path fill="none" stroke="midnightblue" d="M291.528,-116.362C281.655,-107.941 267.667,-96.0105 256.202,-86.2308"/>
<polygon fill="midnightblue" stroke="midnightblue" points="258.273,-83.3972 248.393,-79.5707 253.73,-88.7231 258.273,-83.3972"/>
</g>
<!-- Node5 -->
<g id="node11" class="node"><title>Node5</title>
<polygon fill="white" stroke="#bfbfbf" points="-0.5,-0.5 -0.5,-21.5 58.5,-21.5 58.5,-0.5 -0.5,-0.5"/>
<text text-anchor="middle" x="29" y="-8.5" font-family="Helvetica,sans-Serif" font-size="10.00">stdexcept</text>
</g>
<!-- Node1&#45;&gt;Node5 -->
<g id="edge22" class="edge"><title>Node1&#45;&gt;Node5</title>
<path fill="none" stroke="midnightblue" d="M276.954,-116.4C253.18,-107.019 217.687,-92.8609 187,-80 143.469,-61.7562 93.6178,-39.8079 61.7487,-25.6408"/>
<polygon fill="midnightblue" stroke="midnightblue" points="63.0216,-22.3763 52.4625,-21.5066 60.1746,-28.7712 63.0216,-22.3763"/>
</g>
<!-- Node7 -->
<g id="node15" class="node"><title>Node7</title>
<polygon fill="white" stroke="#bfbfbf" points="405.5,-0.5 405.5,-21.5 454.5,-21.5 454.5,-0.5 405.5,-0.5"/>
<text text-anchor="middle" x="430" y="-8.5" font-family="Helvetica,sans-Serif" font-size="10.00">istream</text>
</g>
<!-- Node1&#45;&gt;Node7 -->
<g id="edge24" class="edge"><title>Node1&#45;&gt;Node7</title>
<path fill="none" stroke="midnightblue" d="M304.189,-116.347C305.001,-101.555 308.537,-74.7318 323,-58 328.156,-52.0356 366.494,-35.9882 395.821,-24.3002"/>
<polygon fill="midnightblue" stroke="midnightblue" points="397.35,-27.4592 405.36,-20.5244 394.774,-20.9505 397.35,-27.4592"/>
</g>
<!-- Node10 -->
<g id="node21" class="node"><title>Node10</title>
<polygon fill="white" stroke="#bfbfbf" points="332,-58.5 332,-79.5 376,-79.5 376,-58.5 332,-58.5"/>
<text text-anchor="middle" x="354" y="-66.5" font-family="Helvetica,sans-Serif" font-size="10.00">vector</text>
</g>
<!-- Node1&#45;&gt;Node10 -->
<g id="edge20" class="edge"><title>Node1&#45;&gt;Node10</title>
<path fill="none" stroke="midnightblue" d="M313.171,-116.362C320.148,-108.268 329.921,-96.9318 338.156,-87.3796"/>
<polygon fill="midnightblue" stroke="midnightblue" points="341.009,-89.4301 344.887,-79.5707 335.707,-84.8595 341.009,-89.4301"/>
</g>
<!-- Node11 -->
<g id="node25" class="node"><title>Node11</title>
<polygon fill="white" stroke="#bfbfbf" points="394,-58.5 394,-79.5 446,-79.5 446,-58.5 394,-58.5"/>
<text text-anchor="middle" x="420" y="-66.5" font-family="Helvetica,sans-Serif" font-size="10.00">ostream</text>
</g>
<!-- Node1&#45;&gt;Node11 -->
<g id="edge26" class="edge"><title>Node1&#45;&gt;Node11</title>
<path fill="none" stroke="midnightblue" d="M325.007,-116.497C343.043,-107.479 369.27,-94.3649 389.599,-84.2006"/>
<polygon fill="midnightblue" stroke="midnightblue" points="391.379,-87.2239 398.758,-79.6212 388.248,-80.9629 391.379,-87.2239"/>
</g>
<!-- Node3 -->
<g id="node7" class="node"><title>Node3</title>
<a xlink:href="types_8h.html" target="_top" xlink:title="types.h">
<polygon fill="white" stroke="black" points="75.5,-0.5 75.5,-21.5 124.5,-21.5 124.5,-0.5 75.5,-0.5"/>
<text text-anchor="middle" x="100" y="-8.5" font-family="Helvetica,sans-Serif" font-size="10.00">types.h</text>
</a>
</g>
<!-- Node2&#45;&gt;Node3 -->
<g id="edge6" class="edge"><title>Node2&#45;&gt;Node3</title>
<path fill="none" stroke="midnightblue" d="M211.371,-58.4966C189.843,-49.3154 158.36,-35.8889 134.355,-25.6516"/>
<polygon fill="midnightblue" stroke="midnightblue" points="135.476,-22.3247 124.905,-21.6212 132.73,-28.7636 135.476,-22.3247"/>
</g>
<!-- Node4 -->
<g id="node9" class="node"><title>Node4</title>
<polygon fill="white" stroke="#bfbfbf" points="142,-0.5 142,-21.5 198,-21.5 198,-0.5 142,-0.5"/>
<text text-anchor="middle" x="170" y="-8.5" font-family="Helvetica,sans-Serif" font-size="10.00">algorithm</text>
</g>
<!-- Node2&#45;&gt;Node4 -->
<g id="edge8" class="edge"><title>Node2&#45;&gt;Node4</title>
<path fill="none" stroke="midnightblue" d="M223.895,-58.3619C214.312,-49.9408 200.736,-38.0105 189.607,-28.2308"/>
<polygon fill="midnightblue" stroke="midnightblue" points="191.851,-25.5427 182.029,-21.5707 187.23,-30.8009 191.851,-25.5427"/>
</g>
<!-- Node2&#45;&gt;Node5 -->
<g id="edge10" class="edge"><title>Node2&#45;&gt;Node5</title>
<path fill="none" stroke="midnightblue" d="M197.71,-58.4747C165.577,-49.6146 118.208,-36.4893 68.7729,-22.4875"/>
<polygon fill="midnightblue" stroke="midnightblue" points="69.4378,-19.0381 58.8622,-19.6765 67.5276,-25.7724 69.4378,-19.0381"/>
</g>
<!-- Node6 -->
<g id="node13" class="node"><title>Node6</title>
<polygon fill="white" stroke="#bfbfbf" points="216,-0.5 216,-21.5 256,-21.5 256,-0.5 216,-0.5"/>
<text text-anchor="middle" x="236" y="-8.5" font-family="Helvetica,sans-Serif" font-size="10.00">limits</text>
</g>
<!-- Node2&#45;&gt;Node6 -->
<g id="edge12" class="edge"><title>Node2&#45;&gt;Node6</title>
<path fill="none" stroke="midnightblue" d="M236,-58.3619C236,-50.9219 236,-40.7427 236,-31.7276"/>
<polygon fill="midnightblue" stroke="midnightblue" points="239.5,-31.5706 236,-21.5707 232.5,-31.5707 239.5,-31.5706"/>
</g>
<!-- Node2&#45;&gt;Node7 -->
<g id="edge14" class="edge"><title>Node2&#45;&gt;Node7</title>
<path fill="none" stroke="midnightblue" d="M273.532,-58.4767C304.131,-49.8008 348.689,-36.949 395.47,-22.4162"/>
<polygon fill="midnightblue" stroke="midnightblue" points="396.663,-25.7102 405.166,-19.3894 394.578,-19.0281 396.663,-25.7102"/>
</g>
<!-- Node8 -->
<g id="node17" class="node"><title>Node8</title>
<polygon fill="white" stroke="#bfbfbf" points="274,-0.5 274,-21.5 326,-21.5 326,-0.5 274,-0.5"/>
<text text-anchor="middle" x="300" y="-8.5" font-family="Helvetica,sans-Serif" font-size="10.00">sstream</text>
</g>
<!-- Node2&#45;&gt;Node8 -->
<g id="edge16" class="edge"><title>Node2&#45;&gt;Node8</title>
<path fill="none" stroke="midnightblue" d="M247.739,-58.3619C256.941,-50.0226 269.94,-38.2418 280.672,-28.5162"/>
<polygon fill="midnightblue" stroke="midnightblue" points="283.276,-30.8793 288.336,-21.5707 278.576,-25.6924 283.276,-30.8793"/>
</g>
<!-- Node9 -->
<g id="node19" class="node"><title>Node9</title>
<polygon fill="white" stroke="#bfbfbf" points="344,-0.5 344,-21.5 388,-21.5 388,-0.5 344,-0.5"/>
<text text-anchor="middle" x="366" y="-8.5" font-family="Helvetica,sans-Serif" font-size="10.00">cmath</text>
</g>
<!-- Node2&#45;&gt;Node9 -->
<g id="edge18" class="edge"><title>Node2&#45;&gt;Node9</title>
<path fill="none" stroke="midnightblue" d="M259.542,-58.4966C280.541,-49.1277 311.449,-35.3381 334.558,-25.0278"/>
<polygon fill="midnightblue" stroke="midnightblue" points="336.227,-28.1159 343.933,-20.8451 333.375,-21.7232 336.227,-28.1159"/>
</g>
</g>
</svg>
