<?xml version="1.0" encoding="UTF-8" standalone="no"?>
<!DOCTYPE svg PUBLIC "-//W3C//DTD SVG 1.1//EN"
 "http://www.w3.org/Graphics/SVG/1.1/DTD/svg11.dtd">
<!-- Generated by graphviz version 2.26.3 (20100126.1600)
 -->
<!-- Title: src/root&#45;addons/cbtaps_display/TH2TAPS.h Pages: 1 -->
<svg width="1517pt" height="188pt"
 viewBox="0.00 0.00 1517.00 188.00" xmlns="http://www.w3.org/2000/svg" xmlns:xlink="http://www.w3.org/1999/xlink">
<g id="graph1" class="graph" transform="scale(1 1) rotate(0) translate(4 184)">
<title>src/root&#45;addons/cbtaps_display/TH2TAPS.h</title>
<polygon fill="white" stroke="white" points="-4,5 -4,-184 1514,-184 1514,5 -4,5"/>
<!-- Node6 -->
<g id="node1" class="node"><title>Node6</title>
<polygon fill="#bfbfbf" stroke="black" points="722,-145 722,-179 838,-179 838,-145 722,-145"/>
<text text-anchor="start" x="730" y="-166" font-family="Helvetica,sans-Serif" font-size="10.00">src/root&#45;addons/cbtaps</text>
<text text-anchor="middle" x="780" y="-153" font-family="Helvetica,sans-Serif" font-size="10.00">_display/TH2TAPS.h</text>
</g>
<!-- Node7 -->
<g id="node3" class="node"><title>Node7</title>
<a xlink:href="analysis_2physics_2calibration_2_t_a_p_s___energy_8h.html" target="_top" xlink:title="src/analysis/physics\l/calibration/TAPS_Energy.h">
<polygon fill="white" stroke="black" points="2.5,-73 2.5,-107 139.5,-107 139.5,-73 2.5,-73"/>
<text text-anchor="start" x="10.5" y="-94" font-family="Helvetica,sans-Serif" font-size="10.00">src/analysis/physics</text>
<text text-anchor="middle" x="71" y="-81" font-family="Helvetica,sans-Serif" font-size="10.00">/calibration/TAPS_Energy.h</text>
</a>
</g>
<!-- Node6&#45;&gt;Node7 -->
<g id="edge2" class="edge"><title>Node6&#45;&gt;Node7</title>
<path fill="none" stroke="midnightblue" d="M711.529,-159.391C595.129,-154.234 351.493,-140.305 148,-108 145.288,-107.57 142.53,-107.096 139.75,-106.59"/>
<polygon fill="midnightblue" stroke="midnightblue" points="711.573,-162.896 721.716,-159.834 711.877,-155.903 711.573,-162.896"/>
</g>
<!-- Node9 -->
<g id="node7" class="node"><title>Node9</title>
<a xlink:href="_m_c_reconstruct_check_8cc.html" target="_top" xlink:title="src/analysis/physics\l/check/MCReconstructCheck.cc">
<polygon fill="white" stroke="black" points="157,-73 157,-107 317,-107 317,-73 157,-73"/>
<text text-anchor="start" x="165" y="-94" font-family="Helvetica,sans-Serif" font-size="10.00">src/analysis/physics</text>
<text text-anchor="middle" x="237" y="-81" font-family="Helvetica,sans-Serif" font-size="10.00">/check/MCReconstructCheck.cc</text>
</a>
</g>
<!-- Node6&#45;&gt;Node9 -->
<g id="edge6" class="edge"><title>Node6&#45;&gt;Node9</title>
<path fill="none" stroke="midnightblue" d="M711.77,-155.628C622.733,-146.914 462.216,-129.839 326,-108 323.198,-107.551 320.35,-107.076 317.477,-106.581"/>
<polygon fill="midnightblue" stroke="midnightblue" points="711.448,-159.113 721.74,-156.598 712.126,-152.146 711.448,-159.113"/>
</g>
<!-- Node10 -->
<g id="node9" class="node"><title>Node10</title>
<a xlink:href="_event_display_hists_8cc.html" target="_top" xlink:title="src/analysis/physics\l/common/EventDisplayHists.cc">
<polygon fill="white" stroke="black" points="334.5,-73 334.5,-107 489.5,-107 489.5,-73 334.5,-73"/>
<text text-anchor="start" x="342.5" y="-94" font-family="Helvetica,sans-Serif" font-size="10.00">src/analysis/physics</text>
<text text-anchor="middle" x="412" y="-81" font-family="Helvetica,sans-Serif" font-size="10.00">/common/EventDisplayHists.cc</text>
</a>
</g>
<!-- Node6&#45;&gt;Node10 -->
<g id="edge8" class="edge"><title>Node6&#45;&gt;Node10</title>
<path fill="none" stroke="midnightblue" d="M711.885,-149.295C654.73,-138.553 570.966,-122.621 498,-108 495.308,-107.461 492.569,-106.908 489.803,-106.347"/>
<polygon fill="midnightblue" stroke="midnightblue" points="711.41,-152.767 721.884,-151.172 712.702,-145.887 711.41,-152.767"/>
</g>
<!-- Node11 -->
<g id="node11" class="node"><title>Node11</title>
<a xlink:href="_goat_comparison_8cc.html" target="_top" xlink:title="src/analysis/physics\l/misc/GoatComparison.cc">
<polygon fill="white" stroke="black" points="506.5,-73 506.5,-107 637.5,-107 637.5,-73 506.5,-73"/>
<text text-anchor="start" x="514.5" y="-94" font-family="Helvetica,sans-Serif" font-size="10.00">src/analysis/physics</text>
<text text-anchor="middle" x="572" y="-81" font-family="Helvetica,sans-Serif" font-size="10.00">/misc/GoatComparison.cc</text>
</a>
</g>
<!-- Node6&#45;&gt;Node11 -->
<g id="edge10" class="edge"><title>Node6&#45;&gt;Node11</title>
<path fill="none" stroke="midnightblue" d="M721.161,-141.633C689.636,-130.72 651.24,-117.429 621.299,-107.065"/>
<polygon fill="midnightblue" stroke="midnightblue" points="720.112,-144.973 730.707,-144.937 722.402,-138.358 720.112,-144.973"/>
</g>
<!-- Node12 -->
<g id="node13" class="node"><title>Node12</title>
<a xlink:href="calibration_2modules_2_t_a_p_s___energy_8cc.html" target="_top" xlink:title="src/calibration/modules\l/TAPS_Energy.cc">
<polygon fill="white" stroke="black" points="654.5,-73 654.5,-107 771.5,-107 771.5,-73 654.5,-73"/>
<text text-anchor="start" x="662.5" y="-94" font-family="Helvetica,sans-Serif" font-size="10.00">src/calibration/modules</text>
<text text-anchor="middle" x="713" y="-81" font-family="Helvetica,sans-Serif" font-size="10.00">/TAPS_Energy.cc</text>
</a>
</g>
<!-- Node6&#45;&gt;Node12 -->
<g id="edge12" class="edge"><title>Node6&#45;&gt;Node12</title>
<path fill="none" stroke="midnightblue" d="M757.088,-137.379C747.928,-127.535 737.591,-116.426 729.23,-107.441"/>
<polygon fill="midnightblue" stroke="midnightblue" points="754.747,-140.001 764.122,-144.937 759.872,-135.232 754.747,-140.001"/>
</g>
<!-- Node13 -->
<g id="node15" class="node"><title>Node13</title>
<a xlink:href="calibration_2modules_2_t_a_p_s___short_energy_8cc.html" target="_top" xlink:title="src/calibration/modules\l/TAPS_ShortEnergy.cc">
<polygon fill="white" stroke="black" points="788.5,-73 788.5,-107 907.5,-107 907.5,-73 788.5,-73"/>
<text text-anchor="start" x="796.5" y="-94" font-family="Helvetica,sans-Serif" font-size="10.00">src/calibration/modules</text>
<text text-anchor="middle" x="848" y="-81" font-family="Helvetica,sans-Serif" font-size="10.00">/TAPS_ShortEnergy.cc</text>
</a>
</g>
<!-- Node6&#45;&gt;Node13 -->
<g id="edge14" class="edge"><title>Node6&#45;&gt;Node13</title>
<path fill="none" stroke="midnightblue" d="M803.254,-137.379C812.55,-127.535 823.042,-116.426 831.528,-107.441"/>
<polygon fill="midnightblue" stroke="midnightblue" points="800.437,-135.264 796.115,-144.937 805.526,-140.07 800.437,-135.264"/>
</g>
<!-- Node14 -->
<g id="node17" class="node"><title>Node14</title>
<a xlink:href="_detector_plots_8cc.html" target="_top" xlink:title="src/root&#45;addons/analysis\l_codes/DetectorPlots.cc">
<polygon fill="white" stroke="black" points="924.5,-73 924.5,-107 1049.5,-107 1049.5,-73 924.5,-73"/>
<text text-anchor="start" x="932.5" y="-94" font-family="Helvetica,sans-Serif" font-size="10.00">src/root&#45;addons/analysis</text>
<text text-anchor="middle" x="987" y="-81" font-family="Helvetica,sans-Serif" font-size="10.00">_codes/DetectorPlots.cc</text>
</a>
</g>
<!-- Node6&#45;&gt;Node14 -->
<g id="edge16" class="edge"><title>Node6&#45;&gt;Node14</title>
<path fill="none" stroke="midnightblue" d="M838.556,-141.633C869.93,-130.72 908.141,-117.429 937.938,-107.065"/>
<polygon fill="midnightblue" stroke="midnightblue" points="837.351,-138.346 829.056,-144.937 839.651,-144.957 837.351,-138.346"/>
</g>
<!-- Node15 -->
<g id="node19" class="node"><title>Node15</title>
<a xlink:href="_display_clustering_8cc.html" target="_top" xlink:title="src/root&#45;addons/analysis\l_codes/DisplayClustering.cc">
<polygon fill="white" stroke="black" points="1067,-73 1067,-107 1209,-107 1209,-73 1067,-73"/>
<text text-anchor="start" x="1075" y="-94" font-family="Helvetica,sans-Serif" font-size="10.00">src/root&#45;addons/analysis</text>
<text text-anchor="middle" x="1138" y="-81" font-family="Helvetica,sans-Serif" font-size="10.00">_codes/DisplayClustering.cc</text>
</a>
</g>
<!-- Node6&#45;&gt;Node15 -->
<g id="edge18" class="edge"><title>Node6&#45;&gt;Node15</title>
<path fill="none" stroke="midnightblue" d="M848.001,-149.37C904.354,-138.765 986.503,-122.984 1058,-108 1060.93,-107.387 1063.91,-106.753 1066.92,-106.106"/>
<polygon fill="midnightblue" stroke="midnightblue" points="847.319,-145.937 838.137,-151.223 848.612,-152.817 847.319,-145.937"/>
</g>
<!-- Node16 -->
<g id="node21" class="node"><title>Node16</title>
<a xlink:href="root-addons_2analysis__codes_2_extract_resolutions_8cc.html" target="_top" xlink:title="src/root&#45;addons/analysis\l_codes/ExtractResolutions.cc">
<polygon fill="white" stroke="black" points="1227,-73 1227,-107 1375,-107 1375,-73 1227,-73"/>
<text text-anchor="start" x="1235" y="-94" font-family="Helvetica,sans-Serif" font-size="10.00">src/root&#45;addons/analysis</text>
<text text-anchor="middle" x="1301" y="-81" font-family="Helvetica,sans-Serif" font-size="10.00">_codes/ExtractResolutions.cc</text>
</a>
</g>
<!-- Node6&#45;&gt;Node16 -->
<g id="edge20" class="edge"><title>Node6&#45;&gt;Node16</title>
<path fill="none" stroke="midnightblue" d="M848.549,-155.497C935.003,-146.848 1088.07,-130.051 1218,-108 1220.91,-107.507 1223.87,-106.98 1226.85,-106.43"/>
<polygon fill="midnightblue" stroke="midnightblue" points="847.947,-152.039 838.342,-156.511 848.639,-159.005 847.947,-152.039"/>
</g>
<!-- Node17 -->
<g id="node23" class="node"><title>Node17</title>
<a xlink:href="_t_h2_t_a_p_s_8cc.html" target="_top" xlink:title="src/root&#45;addons/cbtaps\l_display/TH2TAPS.cc">
<polygon fill="white" stroke="black" points="1393,-73 1393,-107 1509,-107 1509,-73 1393,-73"/>
<text text-anchor="start" x="1401" y="-94" font-family="Helvetica,sans-Serif" font-size="10.00">src/root&#45;addons/cbtaps</text>
<text text-anchor="middle" x="1451" y="-81" font-family="Helvetica,sans-Serif" font-size="10.00">_display/TH2TAPS.cc</text>
</a>
</g>
<!-- Node6&#45;&gt;Node17 -->
<g id="edge22" class="edge"><title>Node6&#45;&gt;Node17</title>
<path fill="none" stroke="midnightblue" d="M848.517,-159.738C961.058,-155.161 1191.76,-142.151 1384,-108 1386.85,-107.494 1389.75,-106.925 1392.67,-106.309"/>
<polygon fill="midnightblue" stroke="midnightblue" points="848.18,-156.249 838.327,-160.143 848.458,-163.243 848.18,-156.249"/>
</g>
<!-- Node8 -->
<g id="node5" class="node"><title>Node8</title>
<a xlink:href="analysis_2physics_2calibration_2_t_a_p_s___energy_8cc.html" target="_top" xlink:title="src/analysis/physics\l/calibration/TAPS_Energy.cc">
<polygon fill="white" stroke="black" points="-0.5,-1 -0.5,-35 142.5,-35 142.5,-1 -0.5,-1"/>
<text text-anchor="start" x="7.5" y="-22" font-family="Helvetica,sans-Serif" font-size="10.00">src/analysis/physics</text>
<text text-anchor="middle" x="71" y="-9" font-family="Helvetica,sans-Serif" font-size="10.00">/calibration/TAPS_Energy.cc</text>
</a>
</g>
<!-- Node7&#45;&gt;Node8 -->
<g id="edge4" class="edge"><title>Node7&#45;&gt;Node8</title>
<path fill="none" stroke="midnightblue" d="M71,-62.7193C71,-53.572 71,-43.6255 71,-35.4407"/>
<polygon fill="midnightblue" stroke="midnightblue" points="67.5001,-62.937 71,-72.937 74.5001,-62.937 67.5001,-62.937"/>
</g>
</g>
</svg>
