<?xml version="1.0" encoding="UTF-8" standalone="no"?>
<!DOCTYPE svg PUBLIC "-//W3C//DTD SVG 1.1//EN"
 "http://www.w3.org/Graphics/SVG/1.1/DTD/svg11.dtd">
<!-- Generated by graphviz version 2.26.3 (20100126.1600)
 -->
<!-- Title: src/root&#45;addons/cbtaps_display/TH2Crystals.cc Pages: 1 -->
<svg width="703pt" height="160pt"
 viewBox="0.00 0.00 703.00 160.00" xmlns="http://www.w3.org/2000/svg" xmlns:xlink="http://www.w3.org/1999/xlink">
<g id="graph1" class="graph" transform="scale(1 1) rotate(0) translate(4 156)">
<title>src/root&#45;addons/cbtaps_display/TH2Crystals.cc</title>
<polygon fill="white" stroke="white" points="-4,5 -4,-156 700,-156 700,5 -4,5"/>
<!-- Node0 -->
<g id="node1" class="node"><title>Node0</title>
<polygon fill="#bfbfbf" stroke="black" points="296.5,-117 296.5,-151 421.5,-151 421.5,-117 296.5,-117"/>
<text text-anchor="start" x="304.5" y="-138" font-family="Helvetica,sans-Serif" font-size="10.00">src/root&#45;addons/cbtaps</text>
<text text-anchor="middle" x="359" y="-125" font-family="Helvetica,sans-Serif" font-size="10.00">_display/TH2Crystals.cc</text>
</g>
<!-- Node1 -->
<g id="node3" class="node"><title>Node1</title>
<a xlink:href="_t_h2_crystals_8h.html" target="_top" xlink:title="TH2Crystals.h">
<polygon fill="white" stroke="black" points="65,-58.5 65,-79.5 145,-79.5 145,-58.5 65,-58.5"/>
<text text-anchor="middle" x="105" y="-66.5" font-family="Helvetica,sans-Serif" font-size="10.00">TH2Crystals.h</text>
</a>
</g>
<!-- Node0&#45;&gt;Node1 -->
<g id="edge2" class="edge"><title>Node0&#45;&gt;Node1</title>
<path fill="none" stroke="midnightblue" d="M296.213,-117.933C252.74,-106.808 195.644,-92.1964 155.195,-81.8453"/>
<polygon fill="midnightblue" stroke="midnightblue" points="155.844,-78.3986 145.289,-79.3101 154.109,-85.1801 155.844,-78.3986"/>
</g>
<!-- Node6 -->
<g id="node13" class="node"><title>Node6</title>
<polygon fill="white" stroke="#bfbfbf" points="162.5,-58.5 162.5,-79.5 233.5,-79.5 233.5,-58.5 162.5,-58.5"/>
<text text-anchor="middle" x="198" y="-66.5" font-family="Helvetica,sans-Serif" font-size="10.00">TDirectory.h</text>
</g>
<!-- Node0&#45;&gt;Node6 -->
<g id="edge12" class="edge"><title>Node0&#45;&gt;Node6</title>
<path fill="none" stroke="midnightblue" d="M316.699,-116.922C290.873,-106.495 258.218,-93.3116 233.699,-83.4127"/>
<polygon fill="midnightblue" stroke="midnightblue" points="234.983,-80.1566 224.4,-79.6584 232.362,-86.6476 234.983,-80.1566"/>
</g>
<!-- Node7 -->
<g id="node15" class="node"><title>Node7</title>
<polygon fill="white" stroke="#bfbfbf" points="251,-58.5 251,-79.5 313,-79.5 313,-58.5 251,-58.5"/>
<text text-anchor="middle" x="282" y="-66.5" font-family="Helvetica,sans-Serif" font-size="10.00">TIterator.h</text>
</g>
<!-- Node0&#45;&gt;Node7 -->
<g id="edge14" class="edge"><title>Node0&#45;&gt;Node7</title>
<path fill="none" stroke="midnightblue" d="M338.769,-116.922C327.691,-107.57 313.985,-96.0007 302.816,-86.5724"/>
<polygon fill="midnightblue" stroke="midnightblue" points="304.755,-83.6281 294.856,-79.8521 300.239,-88.9771 304.755,-83.6281"/>
</g>
<!-- Node8 -->
<g id="node17" class="node"><title>Node8</title>
<polygon fill="white" stroke="#bfbfbf" points="330.5,-58.5 330.5,-79.5 387.5,-79.5 387.5,-58.5 330.5,-58.5"/>
<text text-anchor="middle" x="359" y="-66.5" font-family="Helvetica,sans-Serif" font-size="10.00">TGraph.h</text>
</g>
<!-- Node0&#45;&gt;Node8 -->
<g id="edge16" class="edge"><title>Node0&#45;&gt;Node8</title>
<path fill="none" stroke="midnightblue" d="M359,-116.922C359,-108.67 359,-98.6922 359,-89.9818"/>
<polygon fill="midnightblue" stroke="midnightblue" points="362.5,-89.8521 359,-79.8521 355.5,-89.8521 362.5,-89.8521"/>
</g>
<!-- Node9 -->
<g id="node19" class="node"><title>Node9</title>
<polygon fill="white" stroke="#bfbfbf" points="404.5,-58.5 404.5,-79.5 465.5,-79.5 465.5,-58.5 404.5,-58.5"/>
<text text-anchor="middle" x="435" y="-66.5" font-family="Helvetica,sans-Serif" font-size="10.00">TMarker.h</text>
</g>
<!-- Node0&#45;&gt;Node9 -->
<g id="edge18" class="edge"><title>Node0&#45;&gt;Node9</title>
<path fill="none" stroke="midnightblue" d="M378.968,-116.922C389.903,-107.57 403.43,-96.0007 414.454,-86.5724"/>
<polygon fill="midnightblue" stroke="midnightblue" points="416.987,-89.0117 422.311,-79.8521 412.437,-83.6919 416.987,-89.0117"/>
</g>
<!-- Node10 -->
<g id="node21" class="node"><title>Node10</title>
<polygon fill="white" stroke="#bfbfbf" points="483,-58.5 483,-79.5 537,-79.5 537,-58.5 483,-58.5"/>
<text text-anchor="middle" x="510" y="-66.5" font-family="Helvetica,sans-Serif" font-size="10.00">iostream</text>
</g>
<!-- Node0&#45;&gt;Node10 -->
<g id="edge20" class="edge"><title>Node0&#45;&gt;Node10</title>
<path fill="none" stroke="midnightblue" d="M398.673,-116.922C422.681,-106.588 452.981,-93.5448 475.906,-83.6762"/>
<polygon fill="midnightblue" stroke="midnightblue" points="477.439,-86.8271 485.24,-79.6584 474.671,-80.3975 477.439,-86.8271"/>
</g>
<!-- Node11 -->
<g id="node23" class="node"><title>Node11</title>
<a xlink:href="matrixstack_8h.html" target="_top" xlink:title="base/matrixstack.h">
<polygon fill="white" stroke="black" points="555,-58.5 555,-79.5 655,-79.5 655,-58.5 555,-58.5"/>
<text text-anchor="middle" x="605" y="-66.5" font-family="Helvetica,sans-Serif" font-size="10.00">base/matrixstack.h</text>
</a>
</g>
<!-- Node0&#45;&gt;Node11 -->
<g id="edge22" class="edge"><title>Node0&#45;&gt;Node11</title>
<path fill="none" stroke="midnightblue" d="M421.713,-117.43C463.136,-106.484 516.68,-92.3367 555.185,-82.1624"/>
<polygon fill="midnightblue" stroke="midnightblue" points="556.355,-85.4737 565.129,-79.5351 554.566,-78.7059 556.355,-85.4737"/>
</g>
<!-- Node2 -->
<g id="node5" class="node"><title>Node2</title>
<polygon fill="white" stroke="#bfbfbf" points="0,-0.5 0,-21.5 56,-21.5 56,-0.5 0,-0.5"/>
<text text-anchor="middle" x="28" y="-8.5" font-family="Helvetica,sans-Serif" font-size="10.00">Rtypes.h</text>
</g>
<!-- Node1&#45;&gt;Node2 -->
<g id="edge4" class="edge"><title>Node1&#45;&gt;Node2</title>
<path fill="none" stroke="midnightblue" d="M90.877,-58.3619C79.4802,-49.7773 63.2419,-37.5459 50.1223,-27.6636"/>
<polygon fill="midnightblue" stroke="midnightblue" points="52.1268,-24.7916 42.0335,-21.5707 47.9152,-30.3829 52.1268,-24.7916"/>
</g>
<!-- Node3 -->
<g id="node7" class="node"><title>Node3</title>
<polygon fill="white" stroke="#bfbfbf" points="73.5,-0.5 73.5,-21.5 136.5,-21.5 136.5,-0.5 73.5,-0.5"/>
<text text-anchor="middle" x="105" y="-8.5" font-family="Helvetica,sans-Serif" font-size="10.00">TH2Poly.h</text>
</g>
<!-- Node1&#45;&gt;Node3 -->
<g id="edge6" class="edge"><title>Node1&#45;&gt;Node3</title>
<path fill="none" stroke="midnightblue" d="M105,-58.3619C105,-50.9219 105,-40.7427 105,-31.7276"/>
<polygon fill="midnightblue" stroke="midnightblue" points="108.5,-31.5706 105,-21.5707 101.5,-31.5707 108.5,-31.5706"/>
</g>
<!-- Node4 -->
<g id="node9" class="node"><title>Node4</title>
<polygon fill="white" stroke="#bfbfbf" points="309.5,-0.5 309.5,-21.5 374.5,-21.5 374.5,-0.5 309.5,-0.5"/>
<text text-anchor="middle" x="342" y="-8.5" font-family="Helvetica,sans-Serif" font-size="10.00">TVector2.h</text>
</g>
<!-- Node1&#45;&gt;Node4 -->
<g id="edge8" class="edge"><title>Node1&#45;&gt;Node4</title>
<path fill="none" stroke="midnightblue" d="M145.204,-59.1611C188.086,-48.6667 255.729,-32.1128 299.479,-21.406"/>
<polygon fill="midnightblue" stroke="midnightblue" points="300.363,-24.793 309.245,-19.0161 298.699,-17.9936 300.363,-24.793"/>
</g>
<!-- Node5 -->
<g id="node11" class="node"><title>Node5</title>
<polygon fill="white" stroke="#bfbfbf" points="153.5,-0.5 153.5,-21.5 194.5,-21.5 194.5,-0.5 153.5,-0.5"/>
<text text-anchor="middle" x="174" y="-8.5" font-family="Helvetica,sans-Serif" font-size="10.00">string</text>
</g>
<!-- Node1&#45;&gt;Node5 -->
<g id="edge10" class="edge"><title>Node1&#45;&gt;Node5</title>
<path fill="none" stroke="midnightblue" d="M117.656,-58.3619C127.674,-49.9408 141.867,-38.0105 153.501,-28.2308"/>
<polygon fill="midnightblue" stroke="midnightblue" points="156.022,-30.6844 161.425,-21.5707 151.518,-25.326 156.022,-30.6844"/>
</g>
<!-- Node11&#45;&gt;Node4 -->
<g id="edge28" class="edge"><title>Node11&#45;&gt;Node4</title>
<path fill="none" stroke="midnightblue" d="M557.373,-58.4966C508.14,-47.6392 431.987,-30.8451 384.664,-20.4088"/>
<polygon fill="midnightblue" stroke="midnightblue" points="385.254,-16.9549 374.735,-18.2191 383.747,-23.7906 385.254,-16.9549"/>
</g>
<!-- Node12 -->
<g id="node25" class="node"><title>Node12</title>
<polygon fill="white" stroke="#bfbfbf" points="490.5,-0.5 490.5,-21.5 555.5,-21.5 555.5,-0.5 490.5,-0.5"/>
<text text-anchor="middle" x="523" y="-8.5" font-family="Helvetica,sans-Serif" font-size="10.00">TVectorT.h</text>
</g>
<!-- Node11&#45;&gt;Node12 -->
<g id="edge24" class="edge"><title>Node11&#45;&gt;Node12</title>
<path fill="none" stroke="midnightblue" d="M589.96,-58.3619C577.707,-49.6955 560.201,-37.3126 546.161,-27.3819"/>
<polygon fill="midnightblue" stroke="midnightblue" points="548.13,-24.4879 537.945,-21.5707 544.088,-30.2028 548.13,-24.4879"/>
</g>
<!-- Node13 -->
<g id="node27" class="node"><title>Node13</title>
<polygon fill="white" stroke="#bfbfbf" points="573,-0.5 573,-21.5 637,-21.5 637,-0.5 573,-0.5"/>
<text text-anchor="middle" x="605" y="-8.5" font-family="Helvetica,sans-Serif" font-size="10.00">TMatrixT.h</text>
</g>
<!-- Node11&#45;&gt;Node13 -->
<g id="edge26" class="edge"><title>Node11&#45;&gt;Node13</title>
<path fill="none" stroke="midnightblue" d="M605,-58.3619C605,-50.9219 605,-40.7427 605,-31.7276"/>
<polygon fill="midnightblue" stroke="midnightblue" points="608.5,-31.5706 605,-21.5707 601.5,-31.5707 608.5,-31.5706"/>
</g>
<!-- Node14 -->
<g id="node30" class="node"><title>Node14</title>
<polygon fill="white" stroke="#bfbfbf" points="654.5,-0.5 654.5,-21.5 695.5,-21.5 695.5,-0.5 654.5,-0.5"/>
<text text-anchor="middle" x="675" y="-8.5" font-family="Helvetica,sans-Serif" font-size="10.00">stack</text>
</g>
<!-- Node11&#45;&gt;Node14 -->
<g id="edge30" class="edge"><title>Node11&#45;&gt;Node14</title>
<path fill="none" stroke="midnightblue" d="M617.839,-58.3619C628.002,-49.9408 642.401,-38.0105 654.204,-28.2308"/>
<polygon fill="midnightblue" stroke="midnightblue" points="656.775,-30.6459 662.242,-21.5707 652.309,-25.2558 656.775,-30.6459"/>
</g>
</g>
</svg>
