<?xml version="1.0" encoding="UTF-8" standalone="no"?>
<!DOCTYPE svg PUBLIC "-//W3C//DTD SVG 1.1//EN"
 "http://www.w3.org/Graphics/SVG/1.1/DTD/svg11.dtd">
<!-- Generated by graphviz version 2.26.3 (20100126.1600)
 -->
<!-- Title: src/root&#45;addons/cbtaps_display/TH2TAPS.cc Pages: 1 -->
<svg width="582pt" height="218pt"
 viewBox="0.00 0.00 582.00 218.00" xmlns="http://www.w3.org/2000/svg" xmlns:xlink="http://www.w3.org/1999/xlink">
<g id="graph1" class="graph" transform="scale(1 1) rotate(0) translate(4 214)">
<title>src/root&#45;addons/cbtaps_display/TH2TAPS.cc</title>
<polygon fill="white" stroke="white" points="-4,5 -4,-214 579,-214 579,5 -4,5"/>
<!-- Node0 -->
<g id="node1" class="node"><title>Node0</title>
<polygon fill="#bfbfbf" stroke="black" points="298,-175 298,-209 414,-209 414,-175 298,-175"/>
<text text-anchor="start" x="306" y="-196" font-family="Helvetica,sans-Serif" font-size="10.00">src/root&#45;addons/cbtaps</text>
<text text-anchor="middle" x="356" y="-183" font-family="Helvetica,sans-Serif" font-size="10.00">_display/TH2TAPS.cc</text>
</g>
<!-- Node1 -->
<g id="node3" class="node"><title>Node1</title>
<a xlink:href="_t_h2_t_a_p_s_8h.html" target="_top" xlink:title="TH2TAPS.h">
<polygon fill="white" stroke="black" points="139,-116.5 139,-137.5 209,-137.5 209,-116.5 139,-116.5"/>
<text text-anchor="middle" x="174" y="-124.5" font-family="Helvetica,sans-Serif" font-size="10.00">TH2TAPS.h</text>
</a>
</g>
<!-- Node0&#45;&gt;Node1 -->
<g id="edge2" class="edge"><title>Node0&#45;&gt;Node1</title>
<path fill="none" stroke="midnightblue" d="M308.182,-174.922C278.635,-164.37 241.181,-150.993 213.357,-141.056"/>
<polygon fill="midnightblue" stroke="midnightblue" points="214.168,-137.629 203.574,-137.562 211.814,-144.222 214.168,-137.629"/>
</g>
<!-- Node4 -->
<g id="node9" class="node"><title>Node4</title>
<polygon fill="white" stroke="#bfbfbf" points="131.5,-0.5 131.5,-21.5 194.5,-21.5 194.5,-0.5 131.5,-0.5"/>
<text text-anchor="middle" x="163" y="-8.5" font-family="Helvetica,sans-Serif" font-size="10.00">TH2Poly.h</text>
</g>
<!-- Node0&#45;&gt;Node4 -->
<g id="edge16" class="edge"><title>Node0&#45;&gt;Node4</title>
<path fill="none" stroke="midnightblue" d="M316.028,-174.946C297.801,-165.827 276.813,-153.305 261,-138 231.039,-109.003 238.149,-90.476 212,-58 203.538,-47.4902 192.846,-36.9821 183.611,-28.5755"/>
<polygon fill="midnightblue" stroke="midnightblue" points="185.763,-25.8061 175.963,-21.7817 181.115,-31.0396 185.763,-25.8061"/>
</g>
<!-- Node7 -->
<g id="node15" class="node"><title>Node7</title>
<polygon fill="white" stroke="#bfbfbf" points="373.5,-116.5 373.5,-137.5 426.5,-137.5 426.5,-116.5 373.5,-116.5"/>
<text text-anchor="middle" x="400" y="-124.5" font-family="Helvetica,sans-Serif" font-size="10.00">TMath.h</text>
</g>
<!-- Node0&#45;&gt;Node7 -->
<g id="edge14" class="edge"><title>Node0&#45;&gt;Node7</title>
<path fill="none" stroke="midnightblue" d="M367.56,-174.922C373.519,-166.12 380.806,-155.354 386.964,-146.258"/>
<polygon fill="midnightblue" stroke="midnightblue" points="389.947,-148.095 392.654,-137.852 384.15,-144.171 389.947,-148.095"/>
</g>
<!-- Node8 -->
<g id="node18" class="node"><title>Node8</title>
<polygon fill="white" stroke="#bfbfbf" points="443.5,-116.5 443.5,-137.5 500.5,-137.5 500.5,-116.5 443.5,-116.5"/>
<text text-anchor="middle" x="472" y="-124.5" font-family="Helvetica,sans-Serif" font-size="10.00">TGraph.h</text>
</g>
<!-- Node0&#45;&gt;Node8 -->
<g id="edge18" class="edge"><title>Node0&#45;&gt;Node8</title>
<path fill="none" stroke="midnightblue" d="M386.478,-174.922C404.262,-164.957 426.541,-152.473 443.9,-142.745"/>
<polygon fill="midnightblue" stroke="midnightblue" points="445.966,-145.6 452.979,-137.658 442.544,-139.493 445.966,-145.6"/>
</g>
<!-- Node9 -->
<g id="node20" class="node"><title>Node9</title>
<polygon fill="white" stroke="#bfbfbf" points="518,-116.5 518,-137.5 574,-137.5 574,-116.5 518,-116.5"/>
<text text-anchor="middle" x="546" y="-124.5" font-family="Helvetica,sans-Serif" font-size="10.00">TString.h</text>
</g>
<!-- Node0&#45;&gt;Node9 -->
<g id="edge20" class="edge"><title>Node0&#45;&gt;Node9</title>
<path fill="none" stroke="midnightblue" d="M405.92,-174.922C438.024,-163.939 479.07,-149.897 508.417,-139.857"/>
<polygon fill="midnightblue" stroke="midnightblue" points="509.563,-143.165 517.891,-136.616 507.297,-136.541 509.563,-143.165"/>
</g>
<!-- Node10 -->
<g id="node22" class="node"><title>Node10</title>
<a xlink:href="_t_h2_draw_tool_8h.html" target="_top" xlink:title="TH2DrawTool.h">
<polygon fill="white" stroke="black" points="270,-116.5 270,-137.5 356,-137.5 356,-116.5 270,-116.5"/>
<text text-anchor="middle" x="313" y="-124.5" font-family="Helvetica,sans-Serif" font-size="10.00">TH2DrawTool.h</text>
</a>
</g>
<!-- Node0&#45;&gt;Node10 -->
<g id="edge22" class="edge"><title>Node0&#45;&gt;Node10</title>
<path fill="none" stroke="midnightblue" d="M344.702,-174.922C338.88,-166.12 331.757,-155.354 325.74,-146.258"/>
<polygon fill="midnightblue" stroke="midnightblue" points="328.616,-144.261 320.179,-137.852 322.777,-148.123 328.616,-144.261"/>
</g>
<!-- Node2 -->
<g id="node5" class="node"><title>Node2</title>
<a xlink:href="_t_h2_crystals_8h.html" target="_top" xlink:title="TH2Crystals.h">
<polygon fill="white" stroke="black" points="123,-58.5 123,-79.5 203,-79.5 203,-58.5 123,-58.5"/>
<text text-anchor="middle" x="163" y="-66.5" font-family="Helvetica,sans-Serif" font-size="10.00">TH2Crystals.h</text>
</a>
</g>
<!-- Node1&#45;&gt;Node2 -->
<g id="edge4" class="edge"><title>Node1&#45;&gt;Node2</title>
<path fill="none" stroke="midnightblue" d="M171.982,-116.362C170.556,-108.84 168.598,-98.5187 166.875,-89.4308"/>
<polygon fill="midnightblue" stroke="midnightblue" points="170.307,-88.7433 165.005,-79.5707 163.429,-90.0477 170.307,-88.7433"/>
</g>
<!-- Node3 -->
<g id="node7" class="node"><title>Node3</title>
<polygon fill="white" stroke="#bfbfbf" points="58,-0.5 58,-21.5 114,-21.5 114,-0.5 58,-0.5"/>
<text text-anchor="middle" x="86" y="-8.5" font-family="Helvetica,sans-Serif" font-size="10.00">Rtypes.h</text>
</g>
<!-- Node2&#45;&gt;Node3 -->
<g id="edge6" class="edge"><title>Node2&#45;&gt;Node3</title>
<path fill="none" stroke="midnightblue" d="M148.877,-58.3619C137.48,-49.7773 121.242,-37.5459 108.122,-27.6636"/>
<polygon fill="midnightblue" stroke="midnightblue" points="110.127,-24.7916 100.033,-21.5707 105.915,-30.3829 110.127,-24.7916"/>
</g>
<!-- Node2&#45;&gt;Node4 -->
<g id="edge8" class="edge"><title>Node2&#45;&gt;Node4</title>
<path fill="none" stroke="midnightblue" d="M163,-58.3619C163,-50.9219 163,-40.7427 163,-31.7276"/>
<polygon fill="midnightblue" stroke="midnightblue" points="166.5,-31.5706 163,-21.5707 159.5,-31.5707 166.5,-31.5706"/>
</g>
<!-- Node5 -->
<g id="node11" class="node"><title>Node5</title>
<polygon fill="white" stroke="#bfbfbf" points="211.5,-0.5 211.5,-21.5 276.5,-21.5 276.5,-0.5 211.5,-0.5"/>
<text text-anchor="middle" x="244" y="-8.5" font-family="Helvetica,sans-Serif" font-size="10.00">TVector2.h</text>
</g>
<!-- Node2&#45;&gt;Node5 -->
<g id="edge10" class="edge"><title>Node2&#45;&gt;Node5</title>
<path fill="none" stroke="midnightblue" d="M177.857,-58.3619C189.846,-49.7773 206.927,-37.5459 220.728,-27.6636"/>
<polygon fill="midnightblue" stroke="midnightblue" points="223.145,-30.2383 229.238,-21.5707 219.069,-24.5469 223.145,-30.2383"/>
</g>
<!-- Node6 -->
<g id="node13" class="node"><title>Node6</title>
<polygon fill="white" stroke="#bfbfbf" points="-0.5,-0.5 -0.5,-21.5 40.5,-21.5 40.5,-0.5 -0.5,-0.5"/>
<text text-anchor="middle" x="20" y="-8.5" font-family="Helvetica,sans-Serif" font-size="10.00">string</text>
</g>
<!-- Node2&#45;&gt;Node6 -->
<g id="edge12" class="edge"><title>Node2&#45;&gt;Node6</title>
<path fill="none" stroke="midnightblue" d="M137.104,-58.4966C112.553,-48.539 75.6911,-33.588 49.9008,-23.1276"/>
<polygon fill="midnightblue" stroke="midnightblue" points="51.1897,-19.8735 40.6074,-19.3582 48.5586,-26.3602 51.1897,-19.8735"/>
</g>
<!-- Node11 -->
<g id="node24" class="node"><title>Node11</title>
<a xlink:href="matrixstack_8h.html" target="_top" xlink:title="base/matrixstack.h">
<polygon fill="white" stroke="black" points="271,-58.5 271,-79.5 371,-79.5 371,-58.5 271,-58.5"/>
<text text-anchor="middle" x="321" y="-66.5" font-family="Helvetica,sans-Serif" font-size="10.00">base/matrixstack.h</text>
</a>
</g>
<!-- Node10&#45;&gt;Node11 -->
<g id="edge24" class="edge"><title>Node10&#45;&gt;Node11</title>
<path fill="none" stroke="midnightblue" d="M314.467,-116.362C315.494,-108.922 316.898,-98.7427 318.141,-89.7276"/>
<polygon fill="midnightblue" stroke="midnightblue" points="321.643,-89.9551 319.542,-79.5707 314.708,-88.9986 321.643,-89.9551"/>
</g>
<!-- Node15 -->
<g id="node33" class="node"><title>Node15</title>
<polygon fill="white" stroke="#bfbfbf" points="389,-58.5 389,-79.5 433,-79.5 433,-58.5 389,-58.5"/>
<text text-anchor="middle" x="411" y="-66.5" font-family="Helvetica,sans-Serif" font-size="10.00">vector</text>
</g>
<!-- Node10&#45;&gt;Node15 -->
<g id="edge34" class="edge"><title>Node10&#45;&gt;Node15</title>
<path fill="none" stroke="midnightblue" d="M330.975,-116.362C345.894,-107.532 367.333,-94.844 384.266,-84.8224"/>
<polygon fill="midnightblue" stroke="midnightblue" points="386.316,-87.6759 393.139,-79.5707 382.751,-81.6519 386.316,-87.6759"/>
</g>
<!-- Node11&#45;&gt;Node5 -->
<g id="edge30" class="edge"><title>Node11&#45;&gt;Node5</title>
<path fill="none" stroke="midnightblue" d="M306.877,-58.3619C295.48,-49.7773 279.242,-37.5459 266.122,-27.6636"/>
<polygon fill="midnightblue" stroke="midnightblue" points="268.127,-24.7916 258.033,-21.5707 263.915,-30.3829 268.127,-24.7916"/>
</g>
<!-- Node12 -->
<g id="node26" class="node"><title>Node12</title>
<polygon fill="white" stroke="#bfbfbf" points="293.5,-0.5 293.5,-21.5 358.5,-21.5 358.5,-0.5 293.5,-0.5"/>
<text text-anchor="middle" x="326" y="-8.5" font-family="Helvetica,sans-Serif" font-size="10.00">TVectorT.h</text>
</g>
<!-- Node11&#45;&gt;Node12 -->
<g id="edge26" class="edge"><title>Node11&#45;&gt;Node12</title>
<path fill="none" stroke="midnightblue" d="M321.917,-58.3619C322.558,-50.9219 323.436,-40.7427 324.213,-31.7276"/>
<polygon fill="midnightblue" stroke="midnightblue" points="327.717,-31.8343 325.089,-21.5707 320.743,-31.2331 327.717,-31.8343"/>
</g>
<!-- Node13 -->
<g id="node28" class="node"><title>Node13</title>
<polygon fill="white" stroke="#bfbfbf" points="376,-0.5 376,-21.5 440,-21.5 440,-0.5 376,-0.5"/>
<text text-anchor="middle" x="408" y="-8.5" font-family="Helvetica,sans-Serif" font-size="10.00">TMatrixT.h</text>
</g>
<!-- Node11&#45;&gt;Node13 -->
<g id="edge28" class="edge"><title>Node11&#45;&gt;Node13</title>
<path fill="none" stroke="midnightblue" d="M336.957,-58.3619C349.957,-49.6955 368.531,-37.3126 383.427,-27.3819"/>
<polygon fill="midnightblue" stroke="midnightblue" points="385.765,-30.0299 392.144,-21.5707 381.882,-24.2055 385.765,-30.0299"/>
</g>
<!-- Node14 -->
<g id="node31" class="node"><title>Node14</title>
<polygon fill="white" stroke="#bfbfbf" points="457.5,-0.5 457.5,-21.5 498.5,-21.5 498.5,-0.5 457.5,-0.5"/>
<text text-anchor="middle" x="478" y="-8.5" font-family="Helvetica,sans-Serif" font-size="10.00">stack</text>
</g>
<!-- Node11&#45;&gt;Node14 -->
<g id="edge32" class="edge"><title>Node11&#45;&gt;Node14</title>
<path fill="none" stroke="midnightblue" d="M350.009,-58.4479C374.047,-49.6822 409.336,-36.7632 448.044,-22.3364"/>
<polygon fill="midnightblue" stroke="midnightblue" points="449.27,-25.6146 457.415,-18.839 446.822,-19.0565 449.27,-25.6146"/>
</g>
</g>
</svg>
