<?xml version="1.0" encoding="UTF-8" standalone="no"?>
<!DOCTYPE svg PUBLIC "-//W3C//DTD SVG 1.1//EN"
 "http://www.w3.org/Graphics/SVG/1.1/DTD/svg11.dtd">
<!-- Generated by graphviz version 2.26.3 (20100126.1600)
 -->
<!-- Title: src/root&#45;addons/cbtaps_display/TH2CB.cc Pages: 1 -->
<svg width="787pt" height="218pt"
 viewBox="0.00 0.00 787.00 218.00" xmlns="http://www.w3.org/2000/svg" xmlns:xlink="http://www.w3.org/1999/xlink">
<g id="graph1" class="graph" transform="scale(1 1) rotate(0) translate(4 214)">
<title>src/root&#45;addons/cbtaps_display/TH2CB.cc</title>
<polygon fill="white" stroke="white" points="-4,5 -4,-214 784,-214 784,5 -4,5"/>
<!-- Node0 -->
<g id="node1" class="node"><title>Node0</title>
<polygon fill="#bfbfbf" stroke="black" points="478,-175 478,-209 594,-209 594,-175 478,-175"/>
<text text-anchor="start" x="486" y="-196" font-family="Helvetica,sans-Serif" font-size="10.00">src/root&#45;addons/cbtaps</text>
<text text-anchor="middle" x="536" y="-183" font-family="Helvetica,sans-Serif" font-size="10.00">_display/TH2CB.cc</text>
</g>
<!-- Node1 -->
<g id="node3" class="node"><title>Node1</title>
<a xlink:href="_t_h2_c_b_8h.html" target="_top" xlink:title="TH2CB.h">
<polygon fill="white" stroke="black" points="364,-116.5 364,-137.5 422,-137.5 422,-116.5 364,-116.5"/>
<text text-anchor="middle" x="393" y="-124.5" font-family="Helvetica,sans-Serif" font-size="10.00">TH2CB.h</text>
</a>
</g>
<!-- Node0&#45;&gt;Node1 -->
<g id="edge2" class="edge"><title>Node0&#45;&gt;Node1</title>
<path fill="none" stroke="midnightblue" d="M498.428,-174.922C475.794,-164.634 447.255,-151.661 425.579,-141.809"/>
<polygon fill="midnightblue" stroke="midnightblue" points="427,-138.61 416.448,-137.658 424.104,-144.983 427,-138.61"/>
</g>
<!-- Node6 -->
<g id="node13" class="node"><title>Node6</title>
<polygon fill="white" stroke="#bfbfbf" points="470,-0.5 470,-21.5 526,-21.5 526,-0.5 470,-0.5"/>
<text text-anchor="middle" x="498" y="-8.5" font-family="Helvetica,sans-Serif" font-size="10.00">Rtypes.h</text>
</g>
<!-- Node0&#45;&gt;Node6 -->
<g id="edge26" class="edge"><title>Node0&#45;&gt;Node6</title>
<path fill="none" stroke="midnightblue" d="M532.425,-174.972C525.426,-141.635 509.939,-67.8691 502.356,-31.747"/>
<polygon fill="midnightblue" stroke="midnightblue" points="505.754,-30.8992 500.274,-21.8317 498.903,-32.3375 505.754,-30.8992"/>
</g>
<!-- Node9 -->
<g id="node22" class="node"><title>Node9</title>
<polygon fill="white" stroke="#bfbfbf" points="583,-116.5 583,-137.5 633,-137.5 633,-116.5 583,-116.5"/>
<text text-anchor="middle" x="608" y="-124.5" font-family="Helvetica,sans-Serif" font-size="10.00">TText.h</text>
</g>
<!-- Node0&#45;&gt;Node9 -->
<g id="edge24" class="edge"><title>Node0&#45;&gt;Node9</title>
<path fill="none" stroke="midnightblue" d="M554.917,-174.922C565.276,-165.57 578.092,-154.001 588.535,-144.572"/>
<polygon fill="midnightblue" stroke="midnightblue" points="590.902,-147.151 595.979,-137.852 586.211,-141.955 590.902,-147.151"/>
</g>
<!-- Node10 -->
<g id="node25" class="node"><title>Node10</title>
<polygon fill="white" stroke="#bfbfbf" points="650.5,-116.5 650.5,-137.5 707.5,-137.5 707.5,-116.5 650.5,-116.5"/>
<text text-anchor="middle" x="679" y="-124.5" font-family="Helvetica,sans-Serif" font-size="10.00">TGraph.h</text>
</g>
<!-- Node0&#45;&gt;Node10 -->
<g id="edge28" class="edge"><title>Node0&#45;&gt;Node10</title>
<path fill="none" stroke="midnightblue" d="M573.572,-174.922C596.206,-164.634 624.745,-151.661 646.421,-141.809"/>
<polygon fill="midnightblue" stroke="midnightblue" points="647.896,-144.983 655.552,-137.658 645,-138.61 647.896,-144.983"/>
</g>
<!-- Node11 -->
<g id="node27" class="node"><title>Node11</title>
<a xlink:href="_t_h2_draw_tool_8h.html" target="_top" xlink:title="TH2DrawTool.h">
<polygon fill="white" stroke="black" points="164,-116.5 164,-137.5 250,-137.5 250,-116.5 164,-116.5"/>
<text text-anchor="middle" x="207" y="-124.5" font-family="Helvetica,sans-Serif" font-size="10.00">TH2DrawTool.h</text>
</a>
</g>
<!-- Node0&#45;&gt;Node11 -->
<g id="edge30" class="edge"><title>Node0&#45;&gt;Node11</title>
<path fill="none" stroke="midnightblue" d="M477.939,-180.529C416.381,-168.367 319.976,-149.32 260.294,-137.529"/>
<polygon fill="midnightblue" stroke="midnightblue" points="260.808,-134.063 250.319,-135.558 259.451,-140.93 260.808,-134.063"/>
</g>
<!-- Node12 -->
<g id="node29" class="node"><title>Node12</title>
<a xlink:href="matrixstack_8h.html" target="_top" xlink:title="base/matrixstack.h">
<polygon fill="white" stroke="black" points="67,-58.5 67,-79.5 167,-79.5 167,-58.5 67,-58.5"/>
<text text-anchor="middle" x="117" y="-66.5" font-family="Helvetica,sans-Serif" font-size="10.00">base/matrixstack.h</text>
</a>
</g>
<!-- Node0&#45;&gt;Node12 -->
<g id="edge44" class="edge"><title>Node0&#45;&gt;Node12</title>
<path fill="none" stroke="midnightblue" d="M477.965,-190.028C384.57,-185.84 206.203,-173.339 155,-138 138.448,-126.576 128.372,-105.507 122.795,-89.6441"/>
<polygon fill="midnightblue" stroke="midnightblue" points="125.992,-88.1471 119.628,-79.6765 119.321,-90.2668 125.992,-88.1471"/>
</g>
<!-- Node16 -->
<g id="node40" class="node"><title>Node16</title>
<a xlink:href="cb__numbering_8h.html" target="_top" xlink:title="cb_numbering.h">
<polygon fill="white" stroke="black" points="545,-58.5 545,-79.5 631,-79.5 631,-58.5 545,-58.5"/>
<text text-anchor="middle" x="588" y="-66.5" font-family="Helvetica,sans-Serif" font-size="10.00">cb_numbering.h</text>
</a>
</g>
<!-- Node0&#45;&gt;Node16 -->
<g id="edge46" class="edge"><title>Node0&#45;&gt;Node16</title>
<path fill="none" stroke="midnightblue" d="M543.23,-174.897C552.711,-152.472 569.321,-113.183 579.425,-89.2825"/>
<polygon fill="midnightblue" stroke="midnightblue" points="582.769,-90.3611 583.439,-79.7875 576.322,-87.6353 582.769,-90.3611"/>
</g>
<!-- Node17 -->
<g id="node43" class="node"><title>Node17</title>
<polygon fill="white" stroke="#bfbfbf" points="725,-116.5 725,-137.5 779,-137.5 779,-116.5 725,-116.5"/>
<text text-anchor="middle" x="752" y="-124.5" font-family="Helvetica,sans-Serif" font-size="10.00">iostream</text>
</g>
<!-- Node0&#45;&gt;Node17 -->
<g id="edge50" class="edge"><title>Node0&#45;&gt;Node17</title>
<path fill="none" stroke="midnightblue" d="M593.174,-174.929C626.285,-165.023 669.006,-152.212 715.268,-138.213"/>
<polygon fill="midnightblue" stroke="midnightblue" points="716.321,-141.551 724.878,-135.304 714.293,-134.852 716.321,-141.551"/>
</g>
<!-- Node2 -->
<g id="node5" class="node"><title>Node2</title>
<polygon fill="white" stroke="#bfbfbf" points="421,-58.5 421,-79.5 451,-79.5 451,-58.5 421,-58.5"/>
<text text-anchor="middle" x="436" y="-66.5" font-family="Helvetica,sans-Serif" font-size="10.00">set</text>
</g>
<!-- Node1&#45;&gt;Node2 -->
<g id="edge4" class="edge"><title>Node1&#45;&gt;Node2</title>
<path fill="none" stroke="midnightblue" d="M400.887,-116.362C406.827,-108.35 415.122,-97.1605 422.159,-87.6696"/>
<polygon fill="midnightblue" stroke="midnightblue" points="425.019,-89.6883 428.163,-79.5707 419.396,-85.5193 425.019,-89.6883"/>
</g>
<!-- Node3 -->
<g id="node7" class="node"><title>Node3</title>
<polygon fill="white" stroke="#bfbfbf" points="185,-58.5 185,-79.5 229,-79.5 229,-58.5 185,-58.5"/>
<text text-anchor="middle" x="207" y="-66.5" font-family="Helvetica,sans-Serif" font-size="10.00">vector</text>
</g>
<!-- Node1&#45;&gt;Node3 -->
<g id="edge6" class="edge"><title>Node1&#45;&gt;Node3</title>
<path fill="none" stroke="midnightblue" d="M363.938,-117.938C329.995,-107.353 274.029,-89.9015 238.909,-78.9501"/>
<polygon fill="midnightblue" stroke="midnightblue" points="239.748,-75.5455 229.159,-75.9098 237.664,-82.2281 239.748,-75.5455"/>
</g>
<!-- Node4 -->
<g id="node9" class="node"><title>Node4</title>
<polygon fill="white" stroke="#bfbfbf" points="303.5,-0.5 303.5,-21.5 344.5,-21.5 344.5,-0.5 303.5,-0.5"/>
<text text-anchor="middle" x="324" y="-8.5" font-family="Helvetica,sans-Serif" font-size="10.00">string</text>
</g>
<!-- Node1&#45;&gt;Node4 -->
<g id="edge8" class="edge"><title>Node1&#45;&gt;Node4</title>
<path fill="none" stroke="midnightblue" d="M363.994,-124.33C336.159,-120.052 295.553,-108.926 276,-80 263.921,-62.1299 281.793,-41.8926 299.056,-27.9792"/>
<polygon fill="midnightblue" stroke="midnightblue" points="301.492,-30.5246 307.347,-21.6951 297.264,-24.9458 301.492,-30.5246"/>
</g>
<!-- Node5 -->
<g id="node11" class="node"><title>Node5</title>
<a xlink:href="_t_h2_crystals_8h.html" target="_top" xlink:title="TH2Crystals.h">
<polygon fill="white" stroke="black" points="285,-58.5 285,-79.5 365,-79.5 365,-58.5 285,-58.5"/>
<text text-anchor="middle" x="325" y="-66.5" font-family="Helvetica,sans-Serif" font-size="10.00">TH2Crystals.h</text>
</a>
</g>
<!-- Node1&#45;&gt;Node5 -->
<g id="edge10" class="edge"><title>Node1&#45;&gt;Node5</title>
<path fill="none" stroke="midnightblue" d="M380.528,-116.362C370.655,-107.941 356.667,-96.0105 345.202,-86.2308"/>
<polygon fill="midnightblue" stroke="midnightblue" points="347.273,-83.3972 337.393,-79.5707 342.73,-88.7231 347.273,-83.3972"/>
</g>
<!-- Node1&#45;&gt;Node6 -->
<g id="edge22" class="edge"><title>Node1&#45;&gt;Node6</title>
<path fill="none" stroke="midnightblue" d="M412.707,-116.452C427.116,-108.017 446.432,-95.1239 460,-80 473.059,-65.4433 483.386,-45.6193 489.958,-30.9547"/>
<polygon fill="midnightblue" stroke="midnightblue" points="493.178,-32.3252 493.895,-21.7546 486.743,-29.5709 493.178,-32.3252"/>
</g>
<!-- Node7 -->
<g id="node15" class="node"><title>Node7</title>
<polygon fill="white" stroke="#bfbfbf" points="361.5,-0.5 361.5,-21.5 424.5,-21.5 424.5,-0.5 361.5,-0.5"/>
<text text-anchor="middle" x="393" y="-8.5" font-family="Helvetica,sans-Serif" font-size="10.00">TH2Poly.h</text>
</g>
<!-- Node1&#45;&gt;Node7 -->
<g id="edge20" class="edge"><title>Node1&#45;&gt;Node7</title>
<path fill="none" stroke="midnightblue" d="M393,-116.295C393,-97.1314 393,-56.654 393,-31.8434"/>
<polygon fill="midnightblue" stroke="midnightblue" points="396.5,-31.6792 393,-21.6792 389.5,-31.6792 396.5,-31.6792"/>
</g>
<!-- Node5&#45;&gt;Node4 -->
<g id="edge18" class="edge"><title>Node5&#45;&gt;Node4</title>
<path fill="none" stroke="midnightblue" d="M324.817,-58.3619C324.688,-50.9219 324.513,-40.7427 324.357,-31.7276"/>
<polygon fill="midnightblue" stroke="midnightblue" points="327.854,-31.5088 324.182,-21.5707 320.855,-31.6295 327.854,-31.5088"/>
</g>
<!-- Node5&#45;&gt;Node6 -->
<g id="edge12" class="edge"><title>Node5&#45;&gt;Node6</title>
<path fill="none" stroke="midnightblue" d="M356.329,-58.4966C385.499,-48.717 429.036,-34.121 460.14,-23.6929"/>
<polygon fill="midnightblue" stroke="midnightblue" points="461.399,-26.9622 469.768,-20.465 459.174,-20.3253 461.399,-26.9622"/>
</g>
<!-- Node5&#45;&gt;Node7 -->
<g id="edge14" class="edge"><title>Node5&#45;&gt;Node7</title>
<path fill="none" stroke="midnightblue" d="M337.472,-58.3619C347.345,-49.9408 361.333,-38.0105 372.798,-28.2308"/>
<polygon fill="midnightblue" stroke="midnightblue" points="375.27,-30.7231 380.607,-21.5707 370.727,-25.3972 375.27,-30.7231"/>
</g>
<!-- Node8 -->
<g id="node17" class="node"><title>Node8</title>
<polygon fill="white" stroke="#bfbfbf" points="221.5,-0.5 221.5,-21.5 286.5,-21.5 286.5,-0.5 221.5,-0.5"/>
<text text-anchor="middle" x="254" y="-8.5" font-family="Helvetica,sans-Serif" font-size="10.00">TVector2.h</text>
</g>
<!-- Node5&#45;&gt;Node8 -->
<g id="edge16" class="edge"><title>Node5&#45;&gt;Node8</title>
<path fill="none" stroke="midnightblue" d="M311.978,-58.3619C301.569,-49.859 286.781,-37.7785 274.745,-27.9466"/>
<polygon fill="midnightblue" stroke="midnightblue" points="276.899,-25.1866 266.94,-21.5707 272.47,-30.6077 276.899,-25.1866"/>
</g>
<!-- Node11&#45;&gt;Node3 -->
<g id="edge42" class="edge"><title>Node11&#45;&gt;Node3</title>
<path fill="none" stroke="midnightblue" d="M207,-116.362C207,-108.922 207,-98.7427 207,-89.7276"/>
<polygon fill="midnightblue" stroke="midnightblue" points="210.5,-89.5706 207,-79.5707 203.5,-89.5707 210.5,-89.5706"/>
</g>
<!-- Node11&#45;&gt;Node12 -->
<g id="edge32" class="edge"><title>Node11&#45;&gt;Node12</title>
<path fill="none" stroke="midnightblue" d="M190.493,-116.362C176.918,-107.614 157.467,-95.0786 141.985,-85.1015"/>
<polygon fill="midnightblue" stroke="midnightblue" points="143.704,-82.0457 133.403,-79.5707 139.912,-87.9297 143.704,-82.0457"/>
</g>
<!-- Node12&#45;&gt;Node8 -->
<g id="edge38" class="edge"><title>Node12&#45;&gt;Node8</title>
<path fill="none" stroke="midnightblue" d="M141.81,-58.4966C163.496,-49.3154 195.211,-35.8889 219.392,-25.6516"/>
<polygon fill="midnightblue" stroke="midnightblue" points="221.068,-28.7429 228.912,-21.6212 218.339,-22.2968 221.068,-28.7429"/>
</g>
<!-- Node13 -->
<g id="node31" class="node"><title>Node13</title>
<polygon fill="white" stroke="#bfbfbf" points="57.5,-0.5 57.5,-21.5 122.5,-21.5 122.5,-0.5 57.5,-0.5"/>
<text text-anchor="middle" x="90" y="-8.5" font-family="Helvetica,sans-Serif" font-size="10.00">TVectorT.h</text>
</g>
<!-- Node12&#45;&gt;Node13 -->
<g id="edge34" class="edge"><title>Node12&#45;&gt;Node13</title>
<path fill="none" stroke="midnightblue" d="M112.048,-58.3619C108.47,-50.6766 103.532,-40.0686 99.2358,-30.8399"/>
<polygon fill="midnightblue" stroke="midnightblue" points="102.314,-29.1594 94.9208,-21.5707 95.9681,-32.1136 102.314,-29.1594"/>
</g>
<!-- Node14 -->
<g id="node33" class="node"><title>Node14</title>
<polygon fill="white" stroke="#bfbfbf" points="140,-0.5 140,-21.5 204,-21.5 204,-0.5 140,-0.5"/>
<text text-anchor="middle" x="172" y="-8.5" font-family="Helvetica,sans-Serif" font-size="10.00">TMatrixT.h</text>
</g>
<!-- Node12&#45;&gt;Node14 -->
<g id="edge36" class="edge"><title>Node12&#45;&gt;Node14</title>
<path fill="none" stroke="midnightblue" d="M127.088,-58.3619C134.841,-50.1861 145.73,-38.7025 154.845,-29.0907"/>
<polygon fill="midnightblue" stroke="midnightblue" points="157.635,-31.2352 161.976,-21.5707 152.555,-26.4186 157.635,-31.2352"/>
</g>
<!-- Node15 -->
<g id="node36" class="node"><title>Node15</title>
<polygon fill="white" stroke="#bfbfbf" points="-0.5,-0.5 -0.5,-21.5 40.5,-21.5 40.5,-0.5 -0.5,-0.5"/>
<text text-anchor="middle" x="20" y="-8.5" font-family="Helvetica,sans-Serif" font-size="10.00">stack</text>
</g>
<!-- Node12&#45;&gt;Node15 -->
<g id="edge40" class="edge"><title>Node12&#45;&gt;Node15</title>
<path fill="none" stroke="midnightblue" d="M99.2087,-58.3619C84.4415,-49.532 63.2218,-36.844 46.4616,-26.8224"/>
<polygon fill="midnightblue" stroke="midnightblue" points="48.0574,-23.6987 37.6785,-21.5707 44.4651,-29.7066 48.0574,-23.6987"/>
</g>
<!-- Node16&#45;&gt;Node6 -->
<g id="edge48" class="edge"><title>Node16&#45;&gt;Node6</title>
<path fill="none" stroke="midnightblue" d="M571.493,-58.3619C557.918,-49.6138 538.467,-37.0786 522.985,-27.1015"/>
<polygon fill="midnightblue" stroke="midnightblue" points="524.704,-24.0457 514.403,-21.5707 520.912,-29.9297 524.704,-24.0457"/>
</g>
</g>
</svg>
