<?xml version="1.0" encoding="UTF-8" standalone="no"?>
<!DOCTYPE svg PUBLIC "-//W3C//DTD SVG 1.1//EN"
 "http://www.w3.org/Graphics/SVG/1.1/DTD/svg11.dtd">
<!-- Generated by graphviz version 2.26.3 (20100126.1600)
 -->
<!-- Title: src/tree/TID.h Pages: 1 -->
<svg width="698pt" height="204pt"
 viewBox="0.00 0.00 698.00 204.00" xmlns="http://www.w3.org/2000/svg" xmlns:xlink="http://www.w3.org/1999/xlink">
<g id="graph1" class="graph" transform="scale(1 1) rotate(0) translate(4 200)">
<title>src/tree/TID.h</title>
<polygon fill="white" stroke="white" points="-4,5 -4,-200 695,-200 695,5 -4,5"/>
<!-- Node0 -->
<g id="node1" class="node"><title>Node0</title>
<polygon fill="#bfbfbf" stroke="black" points="378.5,-174.5 378.5,-195.5 455.5,-195.5 455.5,-174.5 378.5,-174.5"/>
<text text-anchor="middle" x="417" y="-182.5" font-family="Helvetica,sans-Serif" font-size="10.00">src/tree/TID.h</text>
</g>
<!-- Node1 -->
<g id="node3" class="node"><title>Node1</title>
<polygon fill="white" stroke="#bfbfbf" points="86,-116.5 86,-137.5 142,-137.5 142,-116.5 86,-116.5"/>
<text text-anchor="middle" x="114" y="-124.5" font-family="Helvetica,sans-Serif" font-size="10.00">Rtypes.h</text>
</g>
<!-- Node0&#45;&gt;Node1 -->
<g id="edge2" class="edge"><title>Node0&#45;&gt;Node1</title>
<path fill="none" stroke="midnightblue" d="M378.395,-179.592C328.318,-172.269 238.111,-158.026 152.114,-138.075"/>
<polygon fill="midnightblue" stroke="midnightblue" points="152.728,-134.624 142.193,-135.742 151.126,-141.438 152.728,-134.624"/>
</g>
<!-- Node2 -->
<g id="node5" class="node"><title>Node2</title>
<a xlink:href="base_2std__ext_2_time_8h.html" target="_top" xlink:title="base/std_ext/time.h">
<polygon fill="white" stroke="black" points="159.5,-116.5 159.5,-137.5 262.5,-137.5 262.5,-116.5 159.5,-116.5"/>
<text text-anchor="middle" x="211" y="-124.5" font-family="Helvetica,sans-Serif" font-size="10.00">base/std_ext/time.h</text>
</a>
</g>
<!-- Node0&#45;&gt;Node2 -->
<g id="edge4" class="edge"><title>Node0&#45;&gt;Node2</title>
<path fill="none" stroke="midnightblue" d="M379.695,-174.497C345.675,-164.918 295.245,-150.72 258.386,-140.342"/>
<polygon fill="midnightblue" stroke="midnightblue" points="258.949,-136.864 248.375,-137.523 257.052,-143.602 258.949,-136.864"/>
</g>
<!-- Node9 -->
<g id="node19" class="node"><title>Node9</title>
<polygon fill="white" stroke="#bfbfbf" points="264.5,-58.5 264.5,-79.5 305.5,-79.5 305.5,-58.5 264.5,-58.5"/>
<text text-anchor="middle" x="285" y="-66.5" font-family="Helvetica,sans-Serif" font-size="10.00">ctime</text>
</g>
<!-- Node0&#45;&gt;Node9 -->
<g id="edge32" class="edge"><title>Node0&#45;&gt;Node9</title>
<path fill="none" stroke="midnightblue" d="M378.446,-176.534C355.491,-169.672 327.35,-157.795 309,-138 296.65,-124.677 290.606,-104.662 287.679,-89.6147"/>
<polygon fill="midnightblue" stroke="midnightblue" points="291.125,-89.0034 286.052,-79.7023 284.218,-90.1371 291.125,-89.0034"/>
</g>
<!-- Node10 -->
<g id="node21" class="node"><title>Node10</title>
<polygon fill="white" stroke="#bfbfbf" points="318,-116.5 318,-137.5 380,-137.5 380,-116.5 318,-116.5"/>
<text text-anchor="middle" x="349" y="-124.5" font-family="Helvetica,sans-Serif" font-size="10.00">type_traits</text>
</g>
<!-- Node0&#45;&gt;Node10 -->
<g id="edge20" class="edge"><title>Node0&#45;&gt;Node10</title>
<path fill="none" stroke="midnightblue" d="M404.528,-174.362C394.655,-165.941 380.667,-154.011 369.202,-144.231"/>
<polygon fill="midnightblue" stroke="midnightblue" points="371.273,-141.397 361.393,-137.571 366.73,-146.723 371.273,-141.397"/>
</g>
<!-- Node11 -->
<g id="node23" class="node"><title>Node11</title>
<polygon fill="white" stroke="#bfbfbf" points="398,-116.5 398,-137.5 436,-137.5 436,-116.5 398,-116.5"/>
<text text-anchor="middle" x="417" y="-124.5" font-family="Helvetica,sans-Serif" font-size="10.00">tuple</text>
</g>
<!-- Node0&#45;&gt;Node11 -->
<g id="edge22" class="edge"><title>Node0&#45;&gt;Node11</title>
<path fill="none" stroke="midnightblue" d="M417,-174.362C417,-166.922 417,-156.743 417,-147.728"/>
<polygon fill="midnightblue" stroke="midnightblue" points="420.5,-147.571 417,-137.571 413.5,-147.571 420.5,-147.571"/>
</g>
<!-- Node12 -->
<g id="node25" class="node"><title>Node12</title>
<polygon fill="white" stroke="#bfbfbf" points="454,-116.5 454,-137.5 500,-137.5 500,-116.5 454,-116.5"/>
<text text-anchor="middle" x="477" y="-124.5" font-family="Helvetica,sans-Serif" font-size="10.00">cstdint</text>
</g>
<!-- Node0&#45;&gt;Node12 -->
<g id="edge24" class="edge"><title>Node0&#45;&gt;Node12</title>
<path fill="none" stroke="midnightblue" d="M428.005,-174.362C436.547,-166.104 448.58,-154.472 458.583,-144.803"/>
<polygon fill="midnightblue" stroke="midnightblue" points="461.308,-147.037 466.065,-137.571 456.442,-142.004 461.308,-147.037"/>
</g>
<!-- Node13 -->
<g id="node27" class="node"><title>Node13</title>
<polygon fill="white" stroke="#bfbfbf" points="517.5,-116.5 517.5,-137.5 576.5,-137.5 576.5,-116.5 517.5,-116.5"/>
<text text-anchor="middle" x="547" y="-124.5" font-family="Helvetica,sans-Serif" font-size="10.00">stdexcept</text>
</g>
<!-- Node0&#45;&gt;Node13 -->
<g id="edge26" class="edge"><title>Node0&#45;&gt;Node13</title>
<path fill="none" stroke="midnightblue" d="M440.542,-174.497C461.029,-165.356 490.947,-152.008 513.854,-141.788"/>
<polygon fill="midnightblue" stroke="midnightblue" points="515.488,-144.892 523.194,-137.621 512.635,-138.499 515.488,-144.892"/>
</g>
<!-- Node14 -->
<g id="node29" class="node"><title>Node14</title>
<polygon fill="white" stroke="#bfbfbf" points="593.5,-116.5 593.5,-137.5 622.5,-137.5 622.5,-116.5 593.5,-116.5"/>
<text text-anchor="middle" x="608" y="-124.5" font-family="Helvetica,sans-Serif" font-size="10.00">list</text>
</g>
<!-- Node0&#45;&gt;Node14 -->
<g id="edge28" class="edge"><title>Node0&#45;&gt;Node14</title>
<path fill="none" stroke="midnightblue" d="M455.638,-176.213C487.934,-168.424 535.248,-155.98 583.426,-138.222"/>
<polygon fill="midnightblue" stroke="midnightblue" points="584.938,-141.393 593.069,-134.6 582.476,-134.84 584.938,-141.393"/>
</g>
<!-- Node15 -->
<g id="node31" class="node"><title>Node15</title>
<polygon fill="white" stroke="#bfbfbf" points="640,-116.5 640,-137.5 690,-137.5 690,-116.5 640,-116.5"/>
<text text-anchor="middle" x="665" y="-124.5" font-family="Helvetica,sans-Serif" font-size="10.00">iomanip</text>
</g>
<!-- Node0&#45;&gt;Node15 -->
<g id="edge30" class="edge"><title>Node0&#45;&gt;Node15</title>
<path fill="none" stroke="midnightblue" d="M455.542,-177.703C496.581,-169.676 563.584,-155.836 630.033,-138.089"/>
<polygon fill="midnightblue" stroke="midnightblue" points="631.089,-141.43 639.83,-135.443 629.263,-134.672 631.089,-141.43"/>
</g>
<!-- Node3 -->
<g id="node7" class="node"><title>Node3</title>
<a xlink:href="string_8h.html" target="_top" xlink:title="base/std_ext/string.h">
<polygon fill="white" stroke="black" points="66,-58.5 66,-79.5 174,-79.5 174,-58.5 66,-58.5"/>
<text text-anchor="middle" x="120" y="-66.5" font-family="Helvetica,sans-Serif" font-size="10.00">base/std_ext/string.h</text>
</a>
</g>
<!-- Node2&#45;&gt;Node3 -->
<g id="edge6" class="edge"><title>Node2&#45;&gt;Node3</title>
<path fill="none" stroke="midnightblue" d="M194.309,-116.362C180.584,-107.614 160.916,-95.0786 145.263,-85.1015"/>
<polygon fill="midnightblue" stroke="midnightblue" points="146.899,-81.994 136.585,-79.5707 143.137,-87.8969 146.899,-81.994"/>
</g>
<!-- Node8 -->
<g id="node17" class="node"><title>Node8</title>
<polygon fill="white" stroke="#bfbfbf" points="192,-58.5 192,-79.5 238,-79.5 238,-58.5 192,-58.5"/>
<text text-anchor="middle" x="215" y="-66.5" font-family="Helvetica,sans-Serif" font-size="10.00">cstring</text>
</g>
<!-- Node2&#45;&gt;Node8 -->
<g id="edge16" class="edge"><title>Node2&#45;&gt;Node8</title>
<path fill="none" stroke="midnightblue" d="M211.734,-116.362C212.247,-108.922 212.949,-98.7427 213.571,-89.7276"/>
<polygon fill="midnightblue" stroke="midnightblue" points="217.075,-89.7878 214.271,-79.5707 210.091,-89.3061 217.075,-89.7878"/>
</g>
<!-- Node2&#45;&gt;Node9 -->
<g id="edge18" class="edge"><title>Node2&#45;&gt;Node9</title>
<path fill="none" stroke="midnightblue" d="M224.573,-116.362C235.421,-107.859 250.834,-95.7785 263.379,-85.9466"/>
<polygon fill="midnightblue" stroke="midnightblue" points="265.802,-88.4942 271.513,-79.5707 261.484,-82.9848 265.802,-88.4942"/>
</g>
<!-- Node4 -->
<g id="node9" class="node"><title>Node4</title>
<polygon fill="white" stroke="#bfbfbf" points="-0.5,-0.5 -0.5,-21.5 40.5,-21.5 40.5,-0.5 -0.5,-0.5"/>
<text text-anchor="middle" x="20" y="-8.5" font-family="Helvetica,sans-Serif" font-size="10.00">string</text>
</g>
<!-- Node3&#45;&gt;Node4 -->
<g id="edge8" class="edge"><title>Node3&#45;&gt;Node4</title>
<path fill="none" stroke="midnightblue" d="M101.658,-58.3619C86.4345,-49.532 64.5585,-36.844 47.28,-26.8224"/>
<polygon fill="midnightblue" stroke="midnightblue" points="48.6316,-23.5603 38.2253,-21.5707 45.1196,-29.6155 48.6316,-23.5603"/>
</g>
<!-- Node5 -->
<g id="node11" class="node"><title>Node5</title>
<polygon fill="white" stroke="#bfbfbf" points="58,-0.5 58,-21.5 110,-21.5 110,-0.5 58,-0.5"/>
<text text-anchor="middle" x="84" y="-8.5" font-family="Helvetica,sans-Serif" font-size="10.00">sstream</text>
</g>
<!-- Node3&#45;&gt;Node5 -->
<g id="edge10" class="edge"><title>Node3&#45;&gt;Node5</title>
<path fill="none" stroke="midnightblue" d="M113.397,-58.3619C108.525,-50.5131 101.762,-39.6159 95.95,-30.2527"/>
<polygon fill="midnightblue" stroke="midnightblue" points="98.8085,-28.2213 90.5611,-21.5707 92.861,-31.9129 98.8085,-28.2213"/>
</g>
<!-- Node6 -->
<g id="node13" class="node"><title>Node6</title>
<polygon fill="white" stroke="#bfbfbf" points="128,-0.5 128,-21.5 184,-21.5 184,-0.5 128,-0.5"/>
<text text-anchor="middle" x="156" y="-8.5" font-family="Helvetica,sans-Serif" font-size="10.00">algorithm</text>
</g>
<!-- Node3&#45;&gt;Node6 -->
<g id="edge12" class="edge"><title>Node3&#45;&gt;Node6</title>
<path fill="none" stroke="midnightblue" d="M126.603,-58.3619C131.475,-50.5131 138.238,-39.6159 144.05,-30.2527"/>
<polygon fill="midnightblue" stroke="midnightblue" points="147.139,-31.9129 149.439,-21.5707 141.191,-28.2213 147.139,-31.9129"/>
</g>
<!-- Node7 -->
<g id="node15" class="node"><title>Node7</title>
<polygon fill="white" stroke="#bfbfbf" points="202,-0.5 202,-21.5 246,-21.5 246,-0.5 202,-0.5"/>
<text text-anchor="middle" x="224" y="-8.5" font-family="Helvetica,sans-Serif" font-size="10.00">vector</text>
</g>
<!-- Node3&#45;&gt;Node7 -->
<g id="edge14" class="edge"><title>Node3&#45;&gt;Node7</title>
<path fill="none" stroke="midnightblue" d="M139.075,-58.3619C155.055,-49.4502 178.081,-36.6087 196.127,-26.5447"/>
<polygon fill="midnightblue" stroke="midnightblue" points="198.017,-29.4982 205.046,-21.5707 194.607,-23.3846 198.017,-29.4982"/>
</g>
</g>
</svg>
