<?xml version="1.0" encoding="UTF-8" standalone="no"?>
<!DOCTYPE svg PUBLIC "-//W3C//DTD SVG 1.1//EN"
 "http://www.w3.org/Graphics/SVG/1.1/DTD/svg11.dtd">
<!-- Generated by graphviz version 2.26.3 (20100126.1600)
 -->
<!-- Title: src/tree/TSimpleParticle.h Pages: 1 -->
<svg width="1744pt" height="508pt"
 viewBox="0.00 0.00 1744.00 508.00" xmlns="http://www.w3.org/2000/svg" xmlns:xlink="http://www.w3.org/1999/xlink">
<g id="graph1" class="graph" transform="scale(1 1) rotate(0) translate(4 504)">
<title>src/tree/TSimpleParticle.h</title>
<polygon fill="white" stroke="white" points="-4,5 -4,-504 1741,-504 1741,5 -4,5"/>
<!-- Node0 -->
<g id="node1" class="node"><title>Node0</title>
<polygon fill="#bfbfbf" stroke="black" points="827,-478.5 827,-499.5 957,-499.5 957,-478.5 827,-478.5"/>
<text text-anchor="middle" x="892" y="-486.5" font-family="Helvetica,sans-Serif" font-size="10.00">src/tree/TSimpleParticle.h</text>
</g>
<!-- Node1 -->
<g id="node3" class="node"><title>Node1</title>
<a xlink:href="_t_particle_8h.html" target="_top" xlink:title="TParticle.h">
<polygon fill="white" stroke="black" points="743,-420.5 743,-441.5 807,-441.5 807,-420.5 743,-420.5"/>
<text text-anchor="middle" x="775" y="-428.5" font-family="Helvetica,sans-Serif" font-size="10.00">TParticle.h</text>
</a>
</g>
<!-- Node0&#45;&gt;Node1 -->
<g id="edge2" class="edge"><title>Node0&#45;&gt;Node1</title>
<path fill="none" stroke="midnightblue" d="M870.812,-478.497C852.538,-469.438 825.928,-456.246 805.385,-446.063"/>
<polygon fill="midnightblue" stroke="midnightblue" points="806.94,-442.927 796.426,-441.621 803.831,-449.199 806.94,-442.927"/>
</g>
<!-- Node24 -->
<g id="node55" class="node"><title>Node24</title>
<polygon fill="white" stroke="#bfbfbf" points="914,-174.5 914,-195.5 970,-195.5 970,-174.5 914,-174.5"/>
<text text-anchor="middle" x="942" y="-182.5" font-family="Helvetica,sans-Serif" font-size="10.00">algorithm</text>
</g>
<!-- Node0&#45;&gt;Node24 -->
<g id="edge154" class="edge"><title>Node0&#45;&gt;Node24</title>
<path fill="none" stroke="midnightblue" d="M887.625,-478.333C879.75,-458.139 864,-412.777 864,-373 864,-373 864,-373 864,-315 864,-269.361 899.785,-225.906 922.878,-202.615"/>
<polygon fill="midnightblue" stroke="midnightblue" points="925.441,-205.004 930.153,-195.515 920.552,-199.994 925.441,-205.004"/>
</g>
<!-- Node41 -->
<g id="node120" class="node"><title>Node41</title>
<polygon fill="white" stroke="#bfbfbf" points="892,-420.5 892,-441.5 948,-441.5 948,-420.5 892,-420.5"/>
<text text-anchor="middle" x="920" y="-428.5" font-family="Helvetica,sans-Serif" font-size="10.00">Rtypes.h</text>
</g>
<!-- Node0&#45;&gt;Node41 -->
<g id="edge156" class="edge"><title>Node0&#45;&gt;Node41</title>
<path fill="none" stroke="midnightblue" d="M897.136,-478.362C900.846,-470.677 905.967,-460.069 910.422,-450.84"/>
<polygon fill="midnightblue" stroke="midnightblue" points="913.701,-452.098 914.897,-441.571 907.397,-449.055 913.701,-452.098"/>
</g>
<!-- Node42 -->
<g id="node122" class="node"><title>Node42</title>
<polygon fill="white" stroke="#bfbfbf" points="966,-420.5 966,-441.5 1058,-441.5 1058,-420.5 966,-420.5"/>
<text text-anchor="middle" x="1012" y="-428.5" font-family="Helvetica,sans-Serif" font-size="10.00">TLorentzVector.h</text>
</g>
<!-- Node0&#45;&gt;Node42 -->
<g id="edge158" class="edge"><title>Node0&#45;&gt;Node42</title>
<path fill="none" stroke="midnightblue" d="M913.731,-478.497C932.474,-469.438 959.767,-456.246 980.836,-446.063"/>
<polygon fill="midnightblue" stroke="midnightblue" points="982.545,-449.124 990.025,-441.621 979.498,-442.822 982.545,-449.124"/>
</g>
<!-- Node2 -->
<g id="node5" class="node"><title>Node2</title>
<a xlink:href="_t_candidate_8h.html" target="_top" xlink:title="tree/TCandidate.h">
<polygon fill="white" stroke="black" points="1143.5,-362.5 1143.5,-383.5 1238.5,-383.5 1238.5,-362.5 1143.5,-362.5"/>
<text text-anchor="middle" x="1191" y="-370.5" font-family="Helvetica,sans-Serif" font-size="10.00">tree/TCandidate.h</text>
</a>
</g>
<!-- Node1&#45;&gt;Node2 -->
<g id="edge4" class="edge"><title>Node1&#45;&gt;Node2</title>
<path fill="none" stroke="midnightblue" d="M807.297,-426.497C877.443,-416.717 1044.54,-393.421 1133.29,-381.046"/>
<polygon fill="midnightblue" stroke="midnightblue" points="1134.03,-384.476 1143.46,-379.629 1133.07,-377.543 1134.03,-384.476"/>
</g>
<!-- Node14 -->
<g id="node31" class="node"><title>Node14</title>
<polygon fill="white" stroke="#bfbfbf" points="1253,-58.5 1253,-79.5 1297,-79.5 1297,-58.5 1253,-58.5"/>
<text text-anchor="middle" x="1275" y="-66.5" font-family="Helvetica,sans-Serif" font-size="10.00">vector</text>
</g>
<!-- Node1&#45;&gt;Node14 -->
<g id="edge146" class="edge"><title>Node1&#45;&gt;Node14</title>
<path fill="none" stroke="midnightblue" d="M807.133,-427.702C828.61,-425.504 857.496,-422.56 883,-420 978.016,-410.463 1736,-410.493 1736,-315 1736,-315 1736,-315 1736,-185 1736,-96.4338 1411.96,-74.8374 1307.23,-70.1703"/>
<polygon fill="midnightblue" stroke="midnightblue" points="1307.37,-66.6734 1297.23,-69.7473 1307.08,-73.6671 1307.37,-66.6734"/>
</g>
<!-- Node22 -->
<g id="node51" class="node"><title>Node22</title>
<polygon fill="white" stroke="#bfbfbf" points="988,-174.5 988,-195.5 1040,-195.5 1040,-174.5 988,-174.5"/>
<text text-anchor="middle" x="1014" y="-182.5" font-family="Helvetica,sans-Serif" font-size="10.00">memory</text>
</g>
<!-- Node1&#45;&gt;Node22 -->
<g id="edge152" class="edge"><title>Node1&#45;&gt;Node22</title>
<path fill="none" stroke="midnightblue" d="M785.27,-420.43C822.425,-382.186 950.113,-250.758 996.761,-202.744"/>
<polygon fill="midnightblue" stroke="midnightblue" points="999.311,-205.142 1003.77,-195.531 994.29,-200.264 999.311,-205.142"/>
</g>
<!-- Node25 -->
<g id="node69" class="node"><title>Node25</title>
<a xlink:href="types_8h.html" target="_top" xlink:title="base/types.h">
<polygon fill="white" stroke="black" points="123.5,-174.5 123.5,-195.5 196.5,-195.5 196.5,-174.5 123.5,-174.5"/>
<text text-anchor="middle" x="160" y="-182.5" font-family="Helvetica,sans-Serif" font-size="10.00">base/types.h</text>
</a>
</g>
<!-- Node1&#45;&gt;Node25 -->
<g id="edge86" class="edge"><title>Node1&#45;&gt;Node25</title>
<path fill="none" stroke="midnightblue" d="M742.74,-427.539C662.809,-418.238 450.053,-389.022 284,-326 231.96,-306.249 205.447,-313.227 173,-268 159.974,-249.844 157.883,-223.693 158.304,-205.619"/>
<polygon fill="midnightblue" stroke="midnightblue" points="161.804,-205.717 158.816,-195.552 154.813,-205.362 161.804,-205.717"/>
</g>
<!-- Node26 -->
<g id="node71" class="node"><title>Node26</title>
<a xlink:href="_particle_type_8h.html" target="_top" xlink:title="base/ParticleType.h">
<polygon fill="white" stroke="black" points="293,-304.5 293,-325.5 397,-325.5 397,-304.5 293,-304.5"/>
<text text-anchor="middle" x="345" y="-312.5" font-family="Helvetica,sans-Serif" font-size="10.00">base/ParticleType.h</text>
</a>
</g>
<!-- Node1&#45;&gt;Node26 -->
<g id="edge88" class="edge"><title>Node1&#45;&gt;Node26</title>
<path fill="none" stroke="midnightblue" d="M742.68,-422.281C667.923,-402.114 482.696,-352.146 393.942,-328.203"/>
<polygon fill="midnightblue" stroke="midnightblue" points="394.688,-324.779 384.122,-325.554 392.865,-331.538 394.688,-324.779"/>
</g>
<!-- Node31 -->
<g id="node91" class="node"><title>Node31</title>
<a xlink:href="_tree_8h.html" target="_top" xlink:title="base/Tree.h">
<polygon fill="white" stroke="black" points="768,-239.5 768,-260.5 836,-260.5 836,-239.5 768,-239.5"/>
<text text-anchor="middle" x="802" y="-247.5" font-family="Helvetica,sans-Serif" font-size="10.00">base/Tree.h</text>
</a>
</g>
<!-- Node1&#45;&gt;Node31 -->
<g id="edge118" class="edge"><title>Node1&#45;&gt;Node31</title>
<path fill="none" stroke="midnightblue" d="M776.928,-420.187C778.604,-410.669 781.061,-396.431 783,-384 789.242,-343.982 795.692,-297.101 799.24,-270.744"/>
<polygon fill="midnightblue" stroke="midnightblue" points="802.716,-271.16 800.574,-260.784 795.778,-270.231 802.716,-271.16"/>
</g>
<!-- Node36 -->
<g id="node102" class="node"><title>Node36</title>
<polygon fill="white" stroke="#bfbfbf" points="581.5,-174.5 581.5,-195.5 610.5,-195.5 610.5,-174.5 581.5,-174.5"/>
<text text-anchor="middle" x="596" y="-182.5" font-family="Helvetica,sans-Serif" font-size="10.00">list</text>
</g>
<!-- Node1&#45;&gt;Node36 -->
<g id="edge148" class="edge"><title>Node1&#45;&gt;Node36</title>
<path fill="none" stroke="midnightblue" d="M756.576,-420.372C742.842,-411.807 724.248,-398.783 711,-384 659.882,-326.959 620.767,-243.576 604.394,-205.424"/>
<polygon fill="midnightblue" stroke="midnightblue" points="607.498,-203.777 600.388,-195.922 601.048,-206.496 607.498,-203.777"/>
</g>
<!-- Node39 -->
<g id="node111" class="node"><title>Node39</title>
<a xlink:href="_lorentz_vec_8h.html" target="_top" xlink:title="base/vec/LorentzVec.h">
<polygon fill="white" stroke="black" points="-0.5,-304.5 -0.5,-325.5 116.5,-325.5 116.5,-304.5 -0.5,-304.5"/>
<text text-anchor="middle" x="58" y="-312.5" font-family="Helvetica,sans-Serif" font-size="10.00">base/vec/LorentzVec.h</text>
</a>
</g>
<!-- Node1&#45;&gt;Node39 -->
<g id="edge142" class="edge"><title>Node1&#45;&gt;Node39</title>
<path fill="none" stroke="midnightblue" d="M742.836,-429.933C620.239,-425.692 186.296,-409.035 130,-384 105.707,-373.197 84.6511,-350.527 71.69,-334.113"/>
<polygon fill="midnightblue" stroke="midnightblue" points="74.1832,-331.608 65.353,-325.754 68.6048,-335.837 74.1832,-331.608"/>
</g>
<!-- Node40 -->
<g id="node116" class="node"><title>Node40</title>
<polygon fill="white" stroke="#bfbfbf" points="720,-362.5 720,-383.5 774,-383.5 774,-362.5 720,-362.5"/>
<text text-anchor="middle" x="747" y="-370.5" font-family="Helvetica,sans-Serif" font-size="10.00">iostream</text>
</g>
<!-- Node1&#45;&gt;Node40 -->
<g id="edge150" class="edge"><title>Node1&#45;&gt;Node40</title>
<path fill="none" stroke="midnightblue" d="M769.864,-420.362C766.154,-412.677 761.033,-402.069 756.578,-392.84"/>
<polygon fill="midnightblue" stroke="midnightblue" points="759.603,-391.055 752.103,-383.571 753.299,-394.098 759.603,-391.055"/>
</g>
<!-- Node3 -->
<g id="node7" class="node"><title>Node3</title>
<a xlink:href="_t_cluster_8h.html" target="_top" xlink:title="TCluster.h">
<polygon fill="white" stroke="black" points="1259,-304.5 1259,-325.5 1321,-325.5 1321,-304.5 1259,-304.5"/>
<text text-anchor="middle" x="1290" y="-312.5" font-family="Helvetica,sans-Serif" font-size="10.00">TCluster.h</text>
</a>
</g>
<!-- Node2&#45;&gt;Node3 -->
<g id="edge6" class="edge"><title>Node2&#45;&gt;Node3</title>
<path fill="none" stroke="midnightblue" d="M1209.16,-362.362C1224.23,-353.532 1245.89,-340.844 1262.99,-330.822"/>
<polygon fill="midnightblue" stroke="midnightblue" points="1265.1,-333.646 1271.96,-325.571 1261.56,-327.606 1265.1,-333.646"/>
</g>
<!-- Node5 -->
<g id="node11" class="node"><title>Node5</title>
<a xlink:href="_detector__t_8h.html" target="_top" xlink:title="base/Detector_t.h">
<polygon fill="white" stroke="black" points="1057.5,-174.5 1057.5,-195.5 1152.5,-195.5 1152.5,-174.5 1057.5,-174.5"/>
<text text-anchor="middle" x="1105" y="-182.5" font-family="Helvetica,sans-Serif" font-size="10.00">base/Detector_t.h</text>
</a>
</g>
<!-- Node2&#45;&gt;Node5 -->
<g id="edge74" class="edge"><title>Node2&#45;&gt;Node5</title>
<path fill="none" stroke="midnightblue" d="M1181.25,-362.291C1165.43,-344.274 1134.41,-306.117 1119,-268 1110.82,-247.772 1107.42,-222.909 1106.01,-205.696"/>
<polygon fill="midnightblue" stroke="midnightblue" points="1109.49,-205.36 1105.33,-195.615 1102.51,-205.826 1109.49,-205.36"/>
</g>
<!-- Node2&#45;&gt;Node14 -->
<g id="edge76" class="edge"><title>Node2&#45;&gt;Node14</title>
<path fill="none" stroke="midnightblue" d="M1238.66,-367.978C1305.37,-360.397 1422.7,-344.89 1461,-326 1526.13,-293.874 1543.31,-266.681 1560,-196 1571.63,-146.755 1525.12,-136.813 1479,-116 1421.56,-90.0757 1348.33,-77.7072 1307.06,-72.4246"/>
<polygon fill="midnightblue" stroke="midnightblue" points="1307.4,-68.9391 1297.04,-71.2019 1306.55,-75.8876 1307.4,-68.9391"/>
</g>
<!-- Node19 -->
<g id="node42" class="node"><title>Node19</title>
<polygon fill="white" stroke="#bfbfbf" points="1483,-174.5 1483,-195.5 1533,-195.5 1533,-174.5 1483,-174.5"/>
<text text-anchor="middle" x="1508" y="-182.5" font-family="Helvetica,sans-Serif" font-size="10.00">iomanip</text>
</g>
<!-- Node2&#45;&gt;Node19 -->
<g id="edge78" class="edge"><title>Node2&#45;&gt;Node19</title>
<path fill="none" stroke="midnightblue" d="M1238.67,-368.951C1286.58,-363.598 1361.75,-351.651 1422,-326 1463.74,-308.228 1484.44,-307.916 1506,-268 1516.38,-248.781 1515.17,-223.23 1512.46,-205.579"/>
<polygon fill="midnightblue" stroke="midnightblue" points="1515.9,-204.947 1510.66,-195.737 1509.01,-206.203 1515.9,-204.947"/>
</g>
<!-- Node20 -->
<g id="node44" class="node"><title>Node20</title>
<polygon fill="white" stroke="#bfbfbf" points="1398,-174.5 1398,-195.5 1450,-195.5 1450,-174.5 1398,-174.5"/>
<text text-anchor="middle" x="1424" y="-182.5" font-family="Helvetica,sans-Serif" font-size="10.00">sstream</text>
</g>
<!-- Node2&#45;&gt;Node20 -->
<g id="edge80" class="edge"><title>Node2&#45;&gt;Node20</title>
<path fill="none" stroke="midnightblue" d="M1238.79,-363.185C1315.31,-346.385 1459.72,-309.855 1489,-268 1498.17,-254.89 1496.28,-246.248 1489,-232 1482.17,-218.629 1469.56,-208.183 1457.25,-200.571"/>
<polygon fill="midnightblue" stroke="midnightblue" points="1458.85,-197.452 1448.43,-195.527 1455.38,-203.529 1458.85,-197.452"/>
</g>
<!-- Node2&#45;&gt;Node22 -->
<g id="edge82" class="edge"><title>Node2&#45;&gt;Node22</title>
<path fill="none" stroke="midnightblue" d="M1174.49,-362.284C1148.48,-344.831 1097.41,-308.157 1063,-268 1046.34,-248.563 1032.1,-222.718 1023.33,-205.064"/>
<polygon fill="midnightblue" stroke="midnightblue" points="1026.32,-203.211 1018.82,-195.726 1020.01,-206.253 1026.32,-203.211"/>
</g>
<!-- Node2&#45;&gt;Node24 -->
<g id="edge84" class="edge"><title>Node2&#45;&gt;Node24</title>
<path fill="none" stroke="midnightblue" d="M1164.2,-362.369C1144.29,-353.892 1116.9,-340.982 1095,-326 1040.19,-288.505 985.191,-232.142 958.546,-203.351"/>
<polygon fill="midnightblue" stroke="midnightblue" points="960.849,-200.683 951.512,-195.675 955.688,-205.412 960.849,-200.683"/>
</g>
<!-- Node4 -->
<g id="node9" class="node"><title>Node4</title>
<a xlink:href="_t_detector_read_hit_8h.html" target="_top" xlink:title="tree/TDetectorReadHit.h">
<polygon fill="white" stroke="black" points="1356,-239.5 1356,-260.5 1480,-260.5 1480,-239.5 1356,-239.5"/>
<text text-anchor="middle" x="1418" y="-247.5" font-family="Helvetica,sans-Serif" font-size="10.00">tree/TDetectorReadHit.h</text>
</a>
</g>
<!-- Node3&#45;&gt;Node4 -->
<g id="edge8" class="edge"><title>Node3&#45;&gt;Node4</title>
<path fill="none" stroke="midnightblue" d="M1310.85,-304.412C1331.86,-293.741 1364.49,-277.172 1388.23,-265.12"/>
<polygon fill="midnightblue" stroke="midnightblue" points="1389.83,-268.232 1397.16,-260.584 1386.66,-261.991 1389.83,-268.232"/>
</g>
<!-- Node3&#45;&gt;Node5 -->
<g id="edge48" class="edge"><title>Node3&#45;&gt;Node5</title>
<path fill="none" stroke="midnightblue" d="M1258.97,-311.43C1228,-306.44 1180.61,-294.76 1149,-268 1129.45,-251.449 1117.33,-223.968 1110.88,-205.196"/>
<polygon fill="midnightblue" stroke="midnightblue" points="1114.17,-204.004 1107.79,-195.544 1107.5,-206.135 1114.17,-204.004"/>
</g>
<!-- Node8 -->
<g id="node17" class="node"><title>Node8</title>
<a xlink:href="vec3_8h.html" target="_top" xlink:title="base/vec/vec3.h">
<polygon fill="white" stroke="black" points="249.5,-116.5 249.5,-137.5 338.5,-137.5 338.5,-116.5 249.5,-116.5"/>
<text text-anchor="middle" x="294" y="-124.5" font-family="Helvetica,sans-Serif" font-size="10.00">base/vec/vec3.h</text>
</a>
</g>
<!-- Node3&#45;&gt;Node8 -->
<g id="edge62" class="edge"><title>Node3&#45;&gt;Node8</title>
<path fill="none" stroke="midnightblue" d="M1258.98,-314.736C1106.37,-313.266 439.37,-304.767 355,-268 353.685,-267.427 281.558,-197.321 281,-196 274.361,-180.277 278.873,-161.112 284.324,-146.974"/>
<polygon fill="midnightblue" stroke="midnightblue" points="287.582,-148.258 288.313,-137.689 281.15,-145.495 287.582,-148.258"/>
</g>
<!-- Node10 -->
<g id="node21" class="node"><title>Node10</title>
<polygon fill="white" stroke="#bfbfbf" points="323,-0.5 323,-21.5 367,-21.5 367,-0.5 323,-0.5"/>
<text text-anchor="middle" x="345" y="-8.5" font-family="Helvetica,sans-Serif" font-size="10.00">cmath</text>
</g>
<!-- Node3&#45;&gt;Node10 -->
<g id="edge66" class="edge"><title>Node3&#45;&gt;Node10</title>
<path fill="none" stroke="midnightblue" d="M1321.34,-313.368C1370.07,-309.91 1466.18,-299.375 1541,-268 1600.47,-243.063 1660,-249.483 1660,-185 1660,-185 1660,-185 1660,-127 1660,33.2942 1465.13,-77.2982 1306,-58 1120.16,-35.4623 523.053,-16.3607 377.312,-11.9554"/>
<polygon fill="midnightblue" stroke="midnightblue" points="377.333,-8.45455 367.232,-11.6525 377.122,-15.4514 377.333,-8.45455"/>
</g>
<!-- Node12 -->
<g id="node26" class="node"><title>Node12</title>
<a xlink:href="base_2std__ext_2math_8h.html" target="_top" xlink:title="base/std_ext/math.h">
<polygon fill="white" stroke="black" points="1008,-116.5 1008,-137.5 1114,-137.5 1114,-116.5 1008,-116.5"/>
<text text-anchor="middle" x="1061" y="-124.5" font-family="Helvetica,sans-Serif" font-size="10.00">base/std_ext/math.h</text>
</a>
</g>
<!-- Node3&#45;&gt;Node12 -->
<g id="edge50" class="edge"><title>Node3&#45;&gt;Node12</title>
<path fill="none" stroke="midnightblue" d="M1292.66,-304.394C1300.31,-273.325 1321.36,-184.064 1313,-174 1289.43,-145.631 1190.75,-134.295 1124.1,-129.828"/>
<polygon fill="midnightblue" stroke="midnightblue" points="1124.3,-126.334 1114.1,-129.193 1123.86,-133.32 1124.3,-126.334"/>
</g>
<!-- Node3&#45;&gt;Node14 -->
<g id="edge64" class="edge"><title>Node3&#45;&gt;Node14</title>
<path fill="none" stroke="midnightblue" d="M1321.17,-311.904C1374.97,-305.998 1482.26,-291.569 1511,-268 1545.01,-240.104 1566.77,-210.356 1542,-174 1514.45,-133.558 1371.9,-93.3412 1307.11,-76.8283"/>
<polygon fill="midnightblue" stroke="midnightblue" points="1307.96,-73.4334 1297.41,-74.3852 1306.25,-80.2215 1307.96,-73.4334"/>
</g>
<!-- Node3&#45;&gt;Node19 -->
<g id="edge68" class="edge"><title>Node3&#45;&gt;Node19</title>
<path fill="none" stroke="midnightblue" d="M1321.28,-311.634C1371.23,-305.621 1465.74,-291.425 1489,-268 1505.21,-251.681 1508.73,-224.539 1509,-205.758"/>
<polygon fill="midnightblue" stroke="midnightblue" points="1512.5,-205.509 1508.85,-195.564 1505.5,-205.616 1512.5,-205.509"/>
</g>
<!-- Node3&#45;&gt;Node20 -->
<g id="edge70" class="edge"><title>Node3&#45;&gt;Node20</title>
<path fill="none" stroke="midnightblue" d="M1295.45,-304.247C1304.42,-287.323 1323.65,-254.124 1347,-232 1360.37,-219.332 1377.7,-208.385 1392.54,-200.251"/>
<polygon fill="midnightblue" stroke="midnightblue" points="1394.2,-203.333 1401.39,-195.559 1390.92,-197.147 1394.2,-203.333"/>
</g>
<!-- Node21 -->
<g id="node48" class="node"><title>Node21</title>
<a xlink:href="shared__ptr__container_8h.html" target="_top" xlink:title="base/std_ext/shared\l_ptr_container.h">
<polygon fill="white" stroke="black" points="1157.5,-233 1157.5,-267 1262.5,-267 1262.5,-233 1157.5,-233"/>
<text text-anchor="start" x="1165.5" y="-254" font-family="Helvetica,sans-Serif" font-size="10.00">base/std_ext/shared</text>
<text text-anchor="middle" x="1210" y="-241" font-family="Helvetica,sans-Serif" font-size="10.00">_ptr_container.h</text>
</a>
</g>
<!-- Node3&#45;&gt;Node21 -->
<g id="edge52" class="edge"><title>Node3&#45;&gt;Node21</title>
<path fill="none" stroke="midnightblue" d="M1276.79,-304.267C1266.5,-295.906 1251.83,-283.988 1238.86,-273.449"/>
<polygon fill="midnightblue" stroke="midnightblue" points="1241.03,-270.699 1231.06,-267.11 1236.61,-276.132 1241.03,-270.699"/>
</g>
<!-- Node3&#45;&gt;Node22 -->
<g id="edge72" class="edge"><title>Node3&#45;&gt;Node22</title>
<path fill="none" stroke="midnightblue" d="M1258.68,-310.272C1223.31,-304.069 1164.74,-291.151 1119,-268 1084.93,-250.753 1051.32,-221.44 1031.63,-202.664"/>
<polygon fill="midnightblue" stroke="midnightblue" points="1033.93,-200.019 1024.32,-195.562 1029.06,-205.04 1033.93,-200.019"/>
</g>
<!-- Node4&#45;&gt;Node5 -->
<g id="edge10" class="edge"><title>Node4&#45;&gt;Node5</title>
<path fill="none" stroke="midnightblue" d="M1367.36,-239.484C1311.34,-227.851 1221.26,-209.143 1162.59,-196.96"/>
<polygon fill="midnightblue" stroke="midnightblue" points="1163.24,-193.521 1152.74,-194.914 1161.82,-200.374 1163.24,-193.521"/>
</g>
<!-- Node4&#45;&gt;Node19 -->
<g id="edge44" class="edge"><title>Node4&#45;&gt;Node19</title>
<path fill="none" stroke="midnightblue" d="M1432.86,-239.267C1447.02,-229.044 1468.53,-213.504 1484.92,-201.67"/>
<polygon fill="midnightblue" stroke="midnightblue" points="1487.36,-204.226 1493.41,-195.534 1483.26,-198.551 1487.36,-204.226"/>
</g>
<!-- Node4&#45;&gt;Node20 -->
<g id="edge46" class="edge"><title>Node4&#45;&gt;Node20</title>
<path fill="none" stroke="midnightblue" d="M1418.99,-239.267C1419.83,-230.18 1421.06,-216.892 1422.09,-205.74"/>
<polygon fill="midnightblue" stroke="midnightblue" points="1425.59,-205.813 1423.03,-195.534 1418.62,-205.17 1425.59,-205.813"/>
</g>
<!-- Node6 -->
<g id="node13" class="node"><title>Node6</title>
<a xlink:href="bitflag_8h.html" target="_top" xlink:title="base/bitflag.h">
<polygon fill="white" stroke="black" points="851.5,-116.5 851.5,-137.5 926.5,-137.5 926.5,-116.5 851.5,-116.5"/>
<text text-anchor="middle" x="889" y="-124.5" font-family="Helvetica,sans-Serif" font-size="10.00">base/bitflag.h</text>
</a>
</g>
<!-- Node5&#45;&gt;Node6 -->
<g id="edge12" class="edge"><title>Node5&#45;&gt;Node6</title>
<path fill="none" stroke="midnightblue" d="M1065.88,-174.497C1029.61,-164.757 975.555,-150.242 936.752,-139.822"/>
<polygon fill="midnightblue" stroke="midnightblue" points="937.305,-136.347 926.739,-137.134 935.489,-143.107 937.305,-136.347"/>
</g>
<!-- Node5&#45;&gt;Node8 -->
<g id="edge16" class="edge"><title>Node5&#45;&gt;Node8</title>
<path fill="none" stroke="midnightblue" d="M1057.41,-175.187C1054.57,-174.746 1051.75,-174.345 1049,-174 761.913,-138.03 687.41,-161.08 399,-138 382.739,-136.699 365.092,-134.973 348.99,-133.274"/>
<polygon fill="midnightblue" stroke="midnightblue" points="348.978,-129.753 338.662,-132.167 348.232,-136.713 348.978,-129.753"/>
</g>
<!-- Node5&#45;&gt;Node12 -->
<g id="edge26" class="edge"><title>Node5&#45;&gt;Node12</title>
<path fill="none" stroke="midnightblue" d="M1096.93,-174.362C1090.85,-166.35 1082.36,-155.161 1075.16,-145.67"/>
<polygon fill="midnightblue" stroke="midnightblue" points="1077.85,-143.422 1069.02,-137.571 1072.27,-147.653 1077.85,-143.422"/>
</g>
<!-- Node5&#45;&gt;Node14 -->
<g id="edge42" class="edge"><title>Node5&#45;&gt;Node14</title>
<path fill="none" stroke="midnightblue" d="M1112.12,-174.337C1122.46,-159.534 1142.95,-132.698 1166,-116 1189.55,-98.9379 1220.26,-86.4048 1243.08,-78.5921"/>
<polygon fill="midnightblue" stroke="midnightblue" points="1244.24,-81.8934 1252.64,-75.4344 1242.05,-75.2464 1244.24,-81.8934"/>
</g>
<!-- Node15 -->
<g id="node33" class="node"><title>Node15</title>
<polygon fill="white" stroke="#bfbfbf" points="944,-116.5 944,-137.5 990,-137.5 990,-116.5 944,-116.5"/>
<text text-anchor="middle" x="967" y="-124.5" font-family="Helvetica,sans-Serif" font-size="10.00">cstdint</text>
</g>
<!-- Node5&#45;&gt;Node15 -->
<g id="edge34" class="edge"><title>Node5&#45;&gt;Node15</title>
<path fill="none" stroke="midnightblue" d="M1080.01,-174.497C1057.52,-165.044 1024.32,-151.092 999.721,-140.752"/>
<polygon fill="midnightblue" stroke="midnightblue" points="1001,-137.493 990.424,-136.845 998.287,-143.946 1001,-137.493"/>
</g>
<!-- Node16 -->
<g id="node35" class="node"><title>Node16</title>
<polygon fill="white" stroke="#bfbfbf" points="567.5,-116.5 567.5,-137.5 626.5,-137.5 626.5,-116.5 567.5,-116.5"/>
<text text-anchor="middle" x="597" y="-124.5" font-family="Helvetica,sans-Serif" font-size="10.00">stdexcept</text>
</g>
<!-- Node5&#45;&gt;Node16 -->
<g id="edge36" class="edge"><title>Node5&#45;&gt;Node16</title>
<path fill="none" stroke="midnightblue" d="M1057.39,-175.326C1054.56,-174.85 1051.74,-174.403 1049,-174 886.847,-150.178 844.844,-156.519 682,-138 667.248,-136.322 651.082,-134.281 636.846,-132.415"/>
<polygon fill="midnightblue" stroke="midnightblue" points="637.242,-128.937 626.869,-131.095 636.323,-135.877 637.242,-128.937"/>
</g>
<!-- Node17 -->
<g id="node37" class="node"><title>Node17</title>
<polygon fill="white" stroke="#bfbfbf" points="690.5,-116.5 690.5,-137.5 731.5,-137.5 731.5,-116.5 690.5,-116.5"/>
<text text-anchor="middle" x="711" y="-124.5" font-family="Helvetica,sans-Serif" font-size="10.00">string</text>
</g>
<!-- Node5&#45;&gt;Node17 -->
<g id="edge38" class="edge"><title>Node5&#45;&gt;Node17</title>
<path fill="none" stroke="midnightblue" d="M1057.38,-175.415C1054.55,-174.917 1051.74,-174.441 1049,-174 922.514,-153.641 889.335,-159.276 763,-138 756.03,-136.826 748.576,-135.37 741.552,-133.906"/>
<polygon fill="midnightblue" stroke="midnightblue" points="742.185,-130.462 731.674,-131.786 740.717,-137.306 742.185,-130.462"/>
</g>
<!-- Node18 -->
<g id="node39" class="node"><title>Node18</title>
<polygon fill="white" stroke="#bfbfbf" points="772,-116.5 772,-137.5 834,-137.5 834,-116.5 772,-116.5"/>
<text text-anchor="middle" x="803" y="-124.5" font-family="Helvetica,sans-Serif" font-size="10.00">type_traits</text>
</g>
<!-- Node5&#45;&gt;Node18 -->
<g id="edge40" class="edge"><title>Node5&#45;&gt;Node18</title>
<path fill="none" stroke="midnightblue" d="M1057.35,-175.571C1054.53,-175.033 1051.73,-174.506 1049,-174 960.74,-157.622 935.403,-158.278 844.297,-138.148"/>
<polygon fill="midnightblue" stroke="midnightblue" points="844.894,-134.695 834.372,-135.931 843.368,-141.527 844.894,-134.695"/>
</g>
<!-- Node7 -->
<g id="node15" class="node"><title>Node7</title>
<polygon fill="white" stroke="#bfbfbf" points="868.5,-58.5 868.5,-79.5 909.5,-79.5 909.5,-58.5 868.5,-58.5"/>
<text text-anchor="middle" x="889" y="-66.5" font-family="Helvetica,sans-Serif" font-size="10.00">bitset</text>
</g>
<!-- Node6&#45;&gt;Node7 -->
<g id="edge14" class="edge"><title>Node6&#45;&gt;Node7</title>
<path fill="none" stroke="midnightblue" d="M889,-116.362C889,-108.922 889,-98.7427 889,-89.7276"/>
<polygon fill="midnightblue" stroke="midnightblue" points="892.5,-89.5706 889,-79.5707 885.5,-89.5707 892.5,-89.5706"/>
</g>
<!-- Node9 -->
<g id="node19" class="node"><title>Node9</title>
<a xlink:href="vec2_8h.html" target="_top" xlink:title="vec2.h">
<polygon fill="white" stroke="black" points="322,-58.5 322,-79.5 368,-79.5 368,-58.5 322,-58.5"/>
<text text-anchor="middle" x="345" y="-66.5" font-family="Helvetica,sans-Serif" font-size="10.00">vec2.h</text>
</a>
</g>
<!-- Node8&#45;&gt;Node9 -->
<g id="edge18" class="edge"><title>Node8&#45;&gt;Node9</title>
<path fill="none" stroke="midnightblue" d="M303.354,-116.362C310.543,-108.186 320.641,-96.7025 329.093,-87.0907"/>
<polygon fill="midnightblue" stroke="midnightblue" points="331.73,-89.3916 335.705,-79.5707 326.473,-84.7692 331.73,-89.3916"/>
</g>
<!-- Node8&#45;&gt;Node10 -->
<g id="edge24" class="edge"><title>Node8&#45;&gt;Node10</title>
<path fill="none" stroke="midnightblue" d="M295.806,-116.337C298.408,-102.447 303.924,-77.6222 313,-58 317.565,-48.1306 324.126,-38.0524 330.121,-29.7725"/>
<polygon fill="midnightblue" stroke="midnightblue" points="333.063,-31.683 336.282,-21.5887 327.471,-27.4729 333.063,-31.683"/>
</g>
<!-- Node11 -->
<g id="node23" class="node"><title>Node11</title>
<polygon fill="white" stroke="#bfbfbf" points="213,-58.5 213,-79.5 265,-79.5 265,-58.5 213,-58.5"/>
<text text-anchor="middle" x="239" y="-66.5" font-family="Helvetica,sans-Serif" font-size="10.00">ostream</text>
</g>
<!-- Node8&#45;&gt;Node11 -->
<g id="edge22" class="edge"><title>Node8&#45;&gt;Node11</title>
<path fill="none" stroke="midnightblue" d="M283.912,-116.362C276.159,-108.186 265.27,-96.7025 256.155,-87.0907"/>
<polygon fill="midnightblue" stroke="midnightblue" points="258.445,-84.4186 249.024,-79.5707 253.365,-89.2352 258.445,-84.4186"/>
</g>
<!-- Node9&#45;&gt;Node10 -->
<g id="edge20" class="edge"><title>Node9&#45;&gt;Node10</title>
<path fill="none" stroke="midnightblue" d="M345,-58.3619C345,-50.9219 345,-40.7427 345,-31.7276"/>
<polygon fill="midnightblue" stroke="midnightblue" points="348.5,-31.5706 345,-21.5707 341.5,-31.5707 348.5,-31.5706"/>
</g>
<!-- Node12&#45;&gt;Node10 -->
<g id="edge28" class="edge"><title>Node12&#45;&gt;Node10</title>
<path fill="none" stroke="midnightblue" d="M1044.2,-116.339C1018.26,-100.491 966.408,-71.1737 918,-58 814.761,-29.9049 482.579,-15.9041 377.315,-12.0948"/>
<polygon fill="midnightblue" stroke="midnightblue" points="377.409,-8.59604 367.291,-11.7382 377.16,-15.5916 377.409,-8.59604"/>
</g>
<!-- Node13 -->
<g id="node29" class="node"><title>Node13</title>
<polygon fill="white" stroke="#bfbfbf" points="599,-58.5 599,-79.5 639,-79.5 639,-58.5 599,-58.5"/>
<text text-anchor="middle" x="619" y="-66.5" font-family="Helvetica,sans-Serif" font-size="10.00">limits</text>
</g>
<!-- Node12&#45;&gt;Node13 -->
<g id="edge30" class="edge"><title>Node12&#45;&gt;Node13</title>
<path fill="none" stroke="midnightblue" d="M1007.93,-117.395C1004.91,-116.908 1001.92,-116.439 999,-116 869.438,-96.5079 714.128,-79.1702 649.517,-72.2238"/>
<polygon fill="midnightblue" stroke="midnightblue" points="649.553,-68.7077 639.237,-71.1242 648.808,-75.668 649.553,-68.7077"/>
</g>
<!-- Node12&#45;&gt;Node14 -->
<g id="edge32" class="edge"><title>Node12&#45;&gt;Node14</title>
<path fill="none" stroke="midnightblue" d="M1099.75,-116.497C1140.71,-105.396 1204.56,-88.0912 1242.83,-77.7186"/>
<polygon fill="midnightblue" stroke="midnightblue" points="1244.17,-80.9818 1252.91,-74.9877 1242.34,-74.2256 1244.17,-80.9818"/>
</g>
<!-- Node21&#45;&gt;Node14 -->
<g id="edge54" class="edge"><title>Node21&#45;&gt;Node14</title>
<path fill="none" stroke="midnightblue" d="M1262.7,-235.202C1281.99,-226.952 1301.82,-214.486 1313,-196 1334.1,-161.121 1307.81,-113.713 1289.61,-87.8088"/>
<polygon fill="midnightblue" stroke="midnightblue" points="1292.33,-85.6003 1283.6,-79.5987 1286.68,-89.7351 1292.33,-85.6003"/>
</g>
<!-- Node21&#45;&gt;Node22 -->
<g id="edge56" class="edge"><title>Node21&#45;&gt;Node22</title>
<path fill="none" stroke="midnightblue" d="M1158.5,-232.922C1124.37,-221.601 1080.43,-207.03 1050.01,-196.942"/>
<polygon fill="midnightblue" stroke="midnightblue" points="1050.84,-193.53 1040.25,-193.704 1048.64,-200.174 1050.84,-193.53"/>
</g>
<!-- Node23 -->
<g id="node53" class="node"><title>Node23</title>
<polygon fill="white" stroke="#bfbfbf" points="1245.5,-174.5 1245.5,-195.5 1304.5,-195.5 1304.5,-174.5 1245.5,-174.5"/>
<text text-anchor="middle" x="1275" y="-182.5" font-family="Helvetica,sans-Serif" font-size="10.00">functional</text>
</g>
<!-- Node21&#45;&gt;Node23 -->
<g id="edge58" class="edge"><title>Node21&#45;&gt;Node23</title>
<path fill="none" stroke="midnightblue" d="M1227.08,-232.922C1236.25,-223.754 1247.55,-212.454 1256.87,-203.129"/>
<polygon fill="midnightblue" stroke="midnightblue" points="1259.55,-205.398 1264.15,-195.852 1254.6,-200.448 1259.55,-205.398"/>
</g>
<!-- Node21&#45;&gt;Node24 -->
<g id="edge60" class="edge"><title>Node21&#45;&gt;Node24</title>
<path fill="none" stroke="midnightblue" d="M1157.49,-238.656C1112.72,-228.776 1046.48,-213.657 980.035,-196.177"/>
<polygon fill="midnightblue" stroke="midnightblue" points="980.796,-192.758 970.233,-193.581 979.004,-199.525 980.796,-192.758"/>
</g>
<!-- Node26&#45;&gt;Node11 -->
<g id="edge110" class="edge"><title>Node26&#45;&gt;Node11</title>
<path fill="none" stroke="midnightblue" d="M292.617,-309.292C256.613,-303.401 208.999,-291.57 173,-268 138.622,-245.491 128.667,-234.752 115,-196 97.0863,-145.207 161.434,-104.572 204.067,-83.9005"/>
<polygon fill="midnightblue" stroke="midnightblue" points="205.756,-86.9739 213.322,-79.5572 202.783,-80.637 205.756,-86.9739"/>
</g>
<!-- Node26&#45;&gt;Node14 -->
<g id="edge116" class="edge"><title>Node26&#45;&gt;Node14</title>
<path fill="none" stroke="midnightblue" d="M397.248,-313.303C559.709,-307.159 1052.95,-281.705 1184,-196 1224.84,-169.291 1253.22,-117.401 1266.48,-88.9123"/>
<polygon fill="midnightblue" stroke="midnightblue" points="1269.78,-90.1217 1270.68,-79.5655 1263.39,-87.2539 1269.78,-90.1217"/>
</g>
<!-- Node26&#45;&gt;Node17 -->
<g id="edge108" class="edge"><title>Node26&#45;&gt;Node17</title>
<path fill="none" stroke="midnightblue" d="M374.869,-304.363C397.126,-295.882 427.882,-282.971 453,-268 511.196,-233.315 513.428,-206.265 573,-174 607.885,-155.106 651.788,-141.729 680.587,-134.196"/>
<polygon fill="midnightblue" stroke="midnightblue" points="681.638,-137.54 690.469,-131.686 679.915,-130.756 681.638,-137.54"/>
</g>
<!-- Node26&#45;&gt;Node25 -->
<g id="edge90" class="edge"><title>Node26&#45;&gt;Node25</title>
<path fill="none" stroke="midnightblue" d="M292.778,-308.173C263.009,-301.97 226.644,-290.209 201,-268 181.92,-251.476 170.819,-223.988 165.089,-205.208"/>
<polygon fill="midnightblue" stroke="midnightblue" points="168.451,-204.233 162.379,-195.551 161.711,-206.124 168.451,-204.233"/>
</g>
<!-- Node27 -->
<g id="node74" class="node"><title>Node27</title>
<a xlink:href="interval_8h.html" target="_top" xlink:title="base/interval.h">
<polygon fill="white" stroke="black" points="364,-239.5 364,-260.5 444,-260.5 444,-239.5 364,-239.5"/>
<text text-anchor="middle" x="404" y="-247.5" font-family="Helvetica,sans-Serif" font-size="10.00">base/interval.h</text>
</a>
</g>
<!-- Node26&#45;&gt;Node27 -->
<g id="edge92" class="edge"><title>Node26&#45;&gt;Node27</title>
<path fill="none" stroke="midnightblue" d="M354.743,-304.267C363.678,-294.423 377.089,-279.648 387.662,-268"/>
<polygon fill="midnightblue" stroke="midnightblue" points="390.309,-270.291 394.439,-260.534 385.126,-265.586 390.309,-270.291"/>
</g>
<!-- Node29 -->
<g id="node86" class="node"><title>Node29</title>
<polygon fill="white" stroke="#bfbfbf" points="209.5,-239.5 209.5,-260.5 244.5,-260.5 244.5,-239.5 209.5,-239.5"/>
<text text-anchor="middle" x="227" y="-247.5" font-family="Helvetica,sans-Serif" font-size="10.00">map</text>
</g>
<!-- Node26&#45;&gt;Node29 -->
<g id="edge112" class="edge"><title>Node26&#45;&gt;Node29</title>
<path fill="none" stroke="midnightblue" d="M322.24,-304.419C303.339,-295.387 275.936,-281.715 253,-268 252.058,-267.436 251.104,-266.851 250.146,-266.251"/>
<polygon fill="midnightblue" stroke="midnightblue" points="251.899,-263.214 241.625,-260.629 248.044,-269.057 251.899,-263.214"/>
</g>
<!-- Node30 -->
<g id="node88" class="node"><title>Node30</title>
<polygon fill="white" stroke="#bfbfbf" points="261.5,-239.5 261.5,-260.5 308.5,-260.5 308.5,-239.5 261.5,-239.5"/>
<text text-anchor="middle" x="285" y="-247.5" font-family="Helvetica,sans-Serif" font-size="10.00">iterator</text>
</g>
<!-- Node26&#45;&gt;Node30 -->
<g id="edge114" class="edge"><title>Node26&#45;&gt;Node30</title>
<path fill="none" stroke="midnightblue" d="M335.092,-304.267C326.006,-294.423 312.367,-279.648 301.615,-268"/>
<polygon fill="midnightblue" stroke="midnightblue" points="304.078,-265.508 294.723,-260.534 298.934,-270.256 304.078,-265.508"/>
</g>
<!-- Node27&#45;&gt;Node10 -->
<g id="edge106" class="edge"><title>Node27&#45;&gt;Node10</title>
<path fill="none" stroke="midnightblue" d="M366.07,-239.408C340.108,-230.79 305.994,-216.644 281,-196 233.29,-156.594 221.334,-139.403 204,-80 201.261,-70.6137 198.283,-65.9321 204,-58 216.894,-40.1099 275.43,-25.1567 312.909,-17.1942"/>
<polygon fill="midnightblue" stroke="midnightblue" points="313.781,-20.588 322.866,-15.1371 312.365,-13.7327 313.781,-20.588"/>
</g>
<!-- Node27&#45;&gt;Node13 -->
<g id="edge100" class="edge"><title>Node27&#45;&gt;Node13</title>
<path fill="none" stroke="midnightblue" d="M399.093,-239.388C388.126,-213.912 365.145,-148.973 399,-116 425.699,-89.9961 534.863,-76.6426 588.695,-71.5301"/>
<polygon fill="midnightblue" stroke="midnightblue" points="589.349,-74.9851 598.989,-70.5893 588.712,-68.0141 589.349,-74.9851"/>
</g>
<!-- Node27&#45;&gt;Node16 -->
<g id="edge98" class="edge"><title>Node27&#45;&gt;Node16</title>
<path fill="none" stroke="midnightblue" d="M423.139,-239.463C442.125,-228.876 471.928,-211.895 497,-196 524.002,-178.882 554.084,-157.846 574.134,-143.533"/>
<polygon fill="midnightblue" stroke="midnightblue" points="576.246,-146.325 582.334,-137.654 572.167,-140.636 576.246,-146.325"/>
</g>
<!-- Node27&#45;&gt;Node20 -->
<g id="edge104" class="edge"><title>Node27&#45;&gt;Node20</title>
<path fill="none" stroke="midnightblue" d="M444.139,-247.827C596.647,-239.539 1140.23,-209.687 1313,-196 1337.89,-194.029 1365.85,-191.253 1387.49,-188.984"/>
<polygon fill="midnightblue" stroke="midnightblue" points="1387.99,-192.451 1397.56,-187.916 1387.25,-185.49 1387.99,-192.451"/>
</g>
<!-- Node27&#45;&gt;Node24 -->
<g id="edge96" class="edge"><title>Node27&#45;&gt;Node24</title>
<path fill="none" stroke="midnightblue" d="M444.305,-245.704C524.756,-237.04 710.943,-216.54 867,-196 879.009,-194.419 892.077,-192.553 903.891,-190.812"/>
<polygon fill="midnightblue" stroke="midnightblue" points="904.516,-194.257 913.892,-189.323 903.485,-187.334 904.516,-194.257"/>
</g>
<!-- Node27&#45;&gt;Node25 -->
<g id="edge94" class="edge"><title>Node27&#45;&gt;Node25</title>
<path fill="none" stroke="midnightblue" d="M364.526,-239.484C321.3,-227.969 252.053,-209.522 206.297,-197.333"/>
<polygon fill="midnightblue" stroke="midnightblue" points="207.188,-193.949 196.624,-194.756 205.386,-200.713 207.188,-193.949"/>
</g>
<!-- Node28 -->
<g id="node80" class="node"><title>Node28</title>
<polygon fill="white" stroke="#bfbfbf" points="289.5,-174.5 289.5,-195.5 338.5,-195.5 338.5,-174.5 289.5,-174.5"/>
<text text-anchor="middle" x="314" y="-182.5" font-family="Helvetica,sans-Serif" font-size="10.00">istream</text>
</g>
<!-- Node27&#45;&gt;Node28 -->
<g id="edge102" class="edge"><title>Node27&#45;&gt;Node28</title>
<path fill="none" stroke="midnightblue" d="M389.138,-239.267C374.984,-229.044 353.467,-213.504 337.081,-201.67"/>
<polygon fill="midnightblue" stroke="midnightblue" points="338.741,-198.551 328.585,-195.534 334.643,-204.226 338.741,-198.551"/>
</g>
<!-- Node31&#45;&gt;Node14 -->
<g id="edge132" class="edge"><title>Node31&#45;&gt;Node14</title>
<path fill="none" stroke="midnightblue" d="M836.203,-242.225C851.928,-238.809 870.857,-234.92 888,-232 948.323,-221.725 1110.65,-230.771 1161,-196 1194.22,-173.063 1176.79,-145.819 1204,-116 1215.41,-103.49 1230.83,-92.7638 1244.38,-84.7308"/>
<polygon fill="midnightblue" stroke="midnightblue" points="1246.43,-87.5939 1253.39,-79.6108 1242.97,-81.5076 1246.43,-87.5939"/>
</g>
<!-- Node31&#45;&gt;Node18 -->
<g id="edge140" class="edge"><title>Node31&#45;&gt;Node18</title>
<path fill="none" stroke="midnightblue" d="M822.649,-239.398C838.038,-230.227 857.9,-215.39 867,-196 877.022,-174.645 855.384,-155.431 834.609,-142.736"/>
<polygon fill="midnightblue" stroke="midnightblue" points="836.268,-139.652 825.853,-137.706 832.781,-145.722 836.268,-139.652"/>
</g>
<!-- Node31&#45;&gt;Node22 -->
<g id="edge128" class="edge"><title>Node31&#45;&gt;Node22</title>
<path fill="none" stroke="midnightblue" d="M836.289,-239.632C869.944,-229.435 922.996,-213.307 977.756,-196.371"/>
<polygon fill="midnightblue" stroke="midnightblue" points="979.117,-199.613 987.634,-193.312 977.046,-192.927 979.117,-199.613"/>
</g>
<!-- Node31&#45;&gt;Node24 -->
<g id="edge134" class="edge"><title>Node31&#45;&gt;Node24</title>
<path fill="none" stroke="midnightblue" d="M824.805,-239.412C847.991,-228.647 884.109,-211.878 910.121,-199.801"/>
<polygon fill="midnightblue" stroke="midnightblue" points="911.609,-202.969 919.205,-195.584 908.661,-196.62 911.609,-202.969"/>
</g>
<!-- Node32 -->
<g id="node93" class="node"><title>Node32</title>
<polygon fill="white" stroke="#bfbfbf" points="628,-174.5 628,-195.5 724,-195.5 724,-174.5 628,-174.5"/>
<text text-anchor="middle" x="676" y="-182.5" font-family="Helvetica,sans-Serif" font-size="10.00">cereal/access.hpp</text>
</g>
<!-- Node31&#45;&gt;Node32 -->
<g id="edge120" class="edge"><title>Node31&#45;&gt;Node32</title>
<path fill="none" stroke="midnightblue" d="M781.475,-239.412C760.882,-228.788 728.955,-212.318 705.62,-200.28"/>
<polygon fill="midnightblue" stroke="midnightblue" points="707.008,-197.058 696.516,-195.584 703.798,-203.279 707.008,-197.058"/>
</g>
<!-- Node33 -->
<g id="node95" class="node"><title>Node33</title>
<a xlink:href="variadic_8h.html" target="_top" xlink:title="std_ext/variadic.h">
<polygon fill="white" stroke="black" points="394,-174.5 394,-195.5 488,-195.5 488,-174.5 394,-174.5"/>
<text text-anchor="middle" x="441" y="-182.5" font-family="Helvetica,sans-Serif" font-size="10.00">std_ext/variadic.h</text>
</a>
</g>
<!-- Node31&#45;&gt;Node33 -->
<g id="edge122" class="edge"><title>Node31&#45;&gt;Node33</title>
<path fill="none" stroke="midnightblue" d="M767.713,-243.826C705.559,-232.635 573.716,-208.896 497.887,-195.243"/>
<polygon fill="midnightblue" stroke="midnightblue" points="498.485,-191.794 488.023,-193.467 497.244,-198.683 498.485,-191.794"/>
</g>
<!-- Node31&#45;&gt;Node36 -->
<g id="edge130" class="edge"><title>Node31&#45;&gt;Node36</title>
<path fill="none" stroke="midnightblue" d="M767.734,-241.633C732.589,-232.673 676.3,-217.272 620.6,-196.269"/>
<polygon fill="midnightblue" stroke="midnightblue" points="621.534,-192.879 610.943,-192.568 619.028,-199.415 621.534,-192.879"/>
</g>
<!-- Node37 -->
<g id="node106" class="node"><title>Node37</title>
<polygon fill="white" stroke="#bfbfbf" points="741.5,-174.5 741.5,-195.5 790.5,-195.5 790.5,-174.5 741.5,-174.5"/>
<text text-anchor="middle" x="766" y="-182.5" font-family="Helvetica,sans-Serif" font-size="10.00">cassert</text>
</g>
<!-- Node31&#45;&gt;Node37 -->
<g id="edge136" class="edge"><title>Node31&#45;&gt;Node37</title>
<path fill="none" stroke="midnightblue" d="M796.055,-239.267C790.813,-229.801 783.046,-215.777 776.721,-204.357"/>
<polygon fill="midnightblue" stroke="midnightblue" points="779.741,-202.586 771.834,-195.534 773.617,-205.977 779.741,-202.586"/>
</g>
<!-- Node38 -->
<g id="node108" class="node"><title>Node38</title>
<polygon fill="white" stroke="#bfbfbf" points="807.5,-174.5 807.5,-195.5 858.5,-195.5 858.5,-174.5 807.5,-174.5"/>
<text text-anchor="middle" x="833" y="-182.5" font-family="Helvetica,sans-Serif" font-size="10.00">numeric</text>
</g>
<!-- Node31&#45;&gt;Node38 -->
<g id="edge138" class="edge"><title>Node31&#45;&gt;Node38</title>
<path fill="none" stroke="midnightblue" d="M807.119,-239.267C811.588,-229.896 818.188,-216.057 823.604,-204.7"/>
<polygon fill="midnightblue" stroke="midnightblue" points="826.831,-206.066 827.976,-195.534 820.512,-203.053 826.831,-206.066"/>
</g>
<!-- Node34 -->
<g id="node97" class="node"><title>Node34</title>
<polygon fill="white" stroke="#bfbfbf" points="463.5,-116.5 463.5,-137.5 512.5,-137.5 512.5,-116.5 463.5,-116.5"/>
<text text-anchor="middle" x="488" y="-124.5" font-family="Helvetica,sans-Serif" font-size="10.00">cstddef</text>
</g>
<!-- Node33&#45;&gt;Node34 -->
<g id="edge124" class="edge"><title>Node33&#45;&gt;Node34</title>
<path fill="none" stroke="midnightblue" d="M449.621,-174.362C456.18,-166.268 465.366,-154.932 473.106,-145.38"/>
<polygon fill="midnightblue" stroke="midnightblue" points="475.858,-147.544 479.434,-137.571 470.419,-143.136 475.858,-147.544"/>
</g>
<!-- Node35 -->
<g id="node99" class="node"><title>Node35</title>
<polygon fill="white" stroke="#bfbfbf" points="408,-116.5 408,-137.5 446,-137.5 446,-116.5 408,-116.5"/>
<text text-anchor="middle" x="427" y="-124.5" font-family="Helvetica,sans-Serif" font-size="10.00">tuple</text>
</g>
<!-- Node33&#45;&gt;Node35 -->
<g id="edge126" class="edge"><title>Node33&#45;&gt;Node35</title>
<path fill="none" stroke="midnightblue" d="M438.432,-174.362C436.617,-166.84 434.125,-156.519 431.932,-147.431"/>
<polygon fill="midnightblue" stroke="midnightblue" points="435.3,-146.47 429.552,-137.571 428.496,-148.113 435.3,-146.47"/>
</g>
<!-- Node39&#45;&gt;Node8 -->
<g id="edge144" class="edge"><title>Node39&#45;&gt;Node8</title>
<path fill="none" stroke="midnightblue" d="M59.095,-304.315C62.3779,-277.993 74.5655,-209.586 115,-174 133.443,-157.768 193.733,-144.157 239.289,-135.827"/>
<polygon fill="midnightblue" stroke="midnightblue" points="240.12,-139.235 249.348,-134.029 238.888,-132.344 240.12,-139.235"/>
</g>
</g>
</svg>
