<?xml version="1.0" encoding="UTF-8" standalone="no"?>
<!DOCTYPE svg PUBLIC "-//W3C//DTD SVG 1.1//EN"
 "http://www.w3.org/Graphics/SVG/1.1/DTD/svg11.dtd">
<!-- Generated by graphviz version 2.26.3 (20100126.1600)
 -->
<!-- Title: src/tree/TSlowControl.h Pages: 1 -->
<svg width="633pt" height="262pt"
 viewBox="0.00 0.00 633.00 262.00" xmlns="http://www.w3.org/2000/svg" xmlns:xlink="http://www.w3.org/1999/xlink">
<g id="graph1" class="graph" transform="scale(1 1) rotate(0) translate(4 258)">
<title>src/tree/TSlowControl.h</title>
<polygon fill="white" stroke="white" points="-4,5 -4,-258 630,-258 630,5 -4,5"/>
<!-- Node0 -->
<g id="node1" class="node"><title>Node0</title>
<polygon fill="#bfbfbf" stroke="black" points="362,-232.5 362,-253.5 482,-253.5 482,-232.5 362,-232.5"/>
<text text-anchor="middle" x="422" y="-240.5" font-family="Helvetica,sans-Serif" font-size="10.00">src/tree/TSlowControl.h</text>
</g>
<!-- Node1 -->
<g id="node3" class="node"><title>Node1</title>
<a xlink:href="_t_i_d_8h.html" target="_top" xlink:title="TID.h">
<polygon fill="white" stroke="black" points="358.5,-174.5 358.5,-195.5 399.5,-195.5 399.5,-174.5 358.5,-174.5"/>
<text text-anchor="middle" x="379" y="-182.5" font-family="Helvetica,sans-Serif" font-size="10.00">TID.h</text>
</a>
</g>
<!-- Node0&#45;&gt;Node1 -->
<g id="edge2" class="edge"><title>Node0&#45;&gt;Node1</title>
<path fill="none" stroke="midnightblue" d="M414.113,-232.362C408.173,-224.35 399.878,-213.161 392.841,-203.67"/>
<polygon fill="midnightblue" stroke="midnightblue" points="395.604,-201.519 386.837,-195.571 389.981,-205.688 395.604,-201.519"/>
</g>
<!-- Node3 -->
<g id="node7" class="node"><title>Node3</title>
<a xlink:href="base_2std__ext_2_time_8h.html" target="_top" xlink:title="base/std_ext/time.h">
<polygon fill="white" stroke="black" points="20.5,-116.5 20.5,-137.5 123.5,-137.5 123.5,-116.5 20.5,-116.5"/>
<text text-anchor="middle" x="72" y="-124.5" font-family="Helvetica,sans-Serif" font-size="10.00">base/std_ext/time.h</text>
</a>
</g>
<!-- Node0&#45;&gt;Node3 -->
<g id="edge36" class="edge"><title>Node0&#45;&gt;Node3</title>
<path fill="none" stroke="midnightblue" d="M390.012,-232.398C326.479,-211.342 184.432,-164.263 113.689,-140.817"/>
<polygon fill="midnightblue" stroke="midnightblue" points="114.38,-137.359 103.787,-137.535 112.178,-144.004 114.38,-137.359"/>
</g>
<!-- Node12 -->
<g id="node25" class="node"><title>Node12</title>
<polygon fill="white" stroke="#bfbfbf" points="523,-116.5 523,-137.5 561,-137.5 561,-116.5 523,-116.5"/>
<text text-anchor="middle" x="542" y="-124.5" font-family="Helvetica,sans-Serif" font-size="10.00">tuple</text>
</g>
<!-- Node0&#45;&gt;Node12 -->
<g id="edge40" class="edge"><title>Node0&#45;&gt;Node12</title>
<path fill="none" stroke="midnightblue" d="M433.074,-232.295C453.702,-212.355 498.203,-169.337 523.477,-144.906"/>
<polygon fill="midnightblue" stroke="midnightblue" points="526.195,-147.146 530.953,-137.679 521.33,-142.113 526.195,-147.146"/>
</g>
<!-- Node13 -->
<g id="node27" class="node"><title>Node13</title>
<polygon fill="white" stroke="#bfbfbf" points="579,-116.5 579,-137.5 625,-137.5 625,-116.5 579,-116.5"/>
<text text-anchor="middle" x="602" y="-124.5" font-family="Helvetica,sans-Serif" font-size="10.00">cstdint</text>
</g>
<!-- Node0&#45;&gt;Node13 -->
<g id="edge38" class="edge"><title>Node0&#45;&gt;Node13</title>
<path fill="none" stroke="midnightblue" d="M438.786,-232.413C453.807,-222.922 476.414,-208.594 496,-196 523.958,-178.023 555.915,-157.18 577.366,-143.146"/>
<polygon fill="midnightblue" stroke="midnightblue" points="579.424,-145.982 585.874,-137.577 575.59,-140.126 579.424,-145.982"/>
</g>
<!-- Node2 -->
<g id="node5" class="node"><title>Node2</title>
<polygon fill="white" stroke="#bfbfbf" points="331,-116.5 331,-137.5 387,-137.5 387,-116.5 331,-116.5"/>
<text text-anchor="middle" x="359" y="-124.5" font-family="Helvetica,sans-Serif" font-size="10.00">Rtypes.h</text>
</g>
<!-- Node1&#45;&gt;Node2 -->
<g id="edge4" class="edge"><title>Node1&#45;&gt;Node2</title>
<path fill="none" stroke="midnightblue" d="M375.332,-174.362C372.71,-166.758 369.101,-156.294 365.943,-147.135"/>
<polygon fill="midnightblue" stroke="midnightblue" points="369.214,-145.883 362.645,-137.571 362.596,-148.165 369.214,-145.883"/>
</g>
<!-- Node1&#45;&gt;Node3 -->
<g id="edge6" class="edge"><title>Node1&#45;&gt;Node3</title>
<path fill="none" stroke="midnightblue" d="M358.38,-181.104C313.083,-172.547 203.386,-151.822 133.664,-138.65"/>
<polygon fill="midnightblue" stroke="midnightblue" points="134.155,-135.181 123.679,-136.763 132.855,-142.059 134.155,-135.181"/>
</g>
<!-- Node10 -->
<g id="node21" class="node"><title>Node10</title>
<polygon fill="white" stroke="#bfbfbf" points="292.5,-58.5 292.5,-79.5 333.5,-79.5 333.5,-58.5 292.5,-58.5"/>
<text text-anchor="middle" x="313" y="-66.5" font-family="Helvetica,sans-Serif" font-size="10.00">ctime</text>
</g>
<!-- Node1&#45;&gt;Node10 -->
<g id="edge34" class="edge"><title>Node1&#45;&gt;Node10</title>
<path fill="none" stroke="midnightblue" d="M386.147,-174.492C394.799,-160.338 406.935,-134.759 396,-116 384.689,-96.597 362.067,-84.5613 343.294,-77.5325"/>
<polygon fill="midnightblue" stroke="midnightblue" points="344.227,-74.1525 333.632,-74.2143 341.953,-80.7729 344.227,-74.1525"/>
</g>
<!-- Node11 -->
<g id="node23" class="node"><title>Node11</title>
<polygon fill="white" stroke="#bfbfbf" points="443,-116.5 443,-137.5 505,-137.5 505,-116.5 443,-116.5"/>
<text text-anchor="middle" x="474" y="-124.5" font-family="Helvetica,sans-Serif" font-size="10.00">type_traits</text>
</g>
<!-- Node1&#45;&gt;Node11 -->
<g id="edge22" class="edge"><title>Node1&#45;&gt;Node11</title>
<path fill="none" stroke="midnightblue" d="M396.424,-174.362C410.887,-165.532 431.669,-152.844 448.084,-142.822"/>
<polygon fill="midnightblue" stroke="midnightblue" points="449.975,-145.769 456.686,-137.571 446.327,-139.794 449.975,-145.769"/>
</g>
<!-- Node1&#45;&gt;Node12 -->
<g id="edge24" class="edge"><title>Node1&#45;&gt;Node12</title>
<path fill="none" stroke="midnightblue" d="M399.674,-178.084C424.529,-169.709 467.703,-154.971 513.304,-138.174"/>
<polygon fill="midnightblue" stroke="midnightblue" points="514.595,-141.428 522.758,-134.674 512.165,-134.863 514.595,-141.428"/>
</g>
<!-- Node1&#45;&gt;Node13 -->
<g id="edge26" class="edge"><title>Node1&#45;&gt;Node13</title>
<path fill="none" stroke="midnightblue" d="M399.514,-180.588C433.02,-173.247 501.731,-157.631 568.783,-138.19"/>
<polygon fill="midnightblue" stroke="midnightblue" points="570.048,-141.466 578.659,-135.294 568.078,-134.749 570.048,-141.466"/>
</g>
<!-- Node14 -->
<g id="node29" class="node"><title>Node14</title>
<polygon fill="white" stroke="#bfbfbf" points="140.5,-116.5 140.5,-137.5 199.5,-137.5 199.5,-116.5 140.5,-116.5"/>
<text text-anchor="middle" x="170" y="-124.5" font-family="Helvetica,sans-Serif" font-size="10.00">stdexcept</text>
</g>
<!-- Node1&#45;&gt;Node14 -->
<g id="edge28" class="edge"><title>Node1&#45;&gt;Node14</title>
<path fill="none" stroke="midnightblue" d="M358.444,-179.447C328.002,-171.202 268.896,-155.115 209.736,-138.469"/>
<polygon fill="midnightblue" stroke="midnightblue" points="210.434,-135.03 199.86,-135.685 208.535,-141.767 210.434,-135.03"/>
</g>
<!-- Node15 -->
<g id="node31" class="node"><title>Node15</title>
<polygon fill="white" stroke="#bfbfbf" points="216.5,-116.5 216.5,-137.5 245.5,-137.5 245.5,-116.5 216.5,-116.5"/>
<text text-anchor="middle" x="231" y="-124.5" font-family="Helvetica,sans-Serif" font-size="10.00">list</text>
</g>
<!-- Node1&#45;&gt;Node15 -->
<g id="edge30" class="edge"><title>Node1&#45;&gt;Node15</title>
<path fill="none" stroke="midnightblue" d="M358.433,-177.883C335.238,-169.725 296.247,-155.62 254.924,-138.186"/>
<polygon fill="midnightblue" stroke="midnightblue" points="256.085,-134.877 245.514,-134.175 253.34,-141.316 256.085,-134.877"/>
</g>
<!-- Node16 -->
<g id="node33" class="node"><title>Node16</title>
<polygon fill="white" stroke="#bfbfbf" points="263,-116.5 263,-137.5 313,-137.5 313,-116.5 263,-116.5"/>
<text text-anchor="middle" x="288" y="-124.5" font-family="Helvetica,sans-Serif" font-size="10.00">iomanip</text>
</g>
<!-- Node1&#45;&gt;Node16 -->
<g id="edge32" class="edge"><title>Node1&#45;&gt;Node16</title>
<path fill="none" stroke="midnightblue" d="M362.309,-174.362C348.584,-165.614 328.916,-153.079 313.263,-143.101"/>
<polygon fill="midnightblue" stroke="midnightblue" points="314.899,-139.994 304.585,-137.571 311.137,-145.897 314.899,-139.994"/>
</g>
<!-- Node4 -->
<g id="node9" class="node"><title>Node4</title>
<a xlink:href="string_8h.html" target="_top" xlink:title="base/std_ext/string.h">
<polygon fill="white" stroke="black" points="66,-58.5 66,-79.5 174,-79.5 174,-58.5 66,-58.5"/>
<text text-anchor="middle" x="120" y="-66.5" font-family="Helvetica,sans-Serif" font-size="10.00">base/std_ext/string.h</text>
</a>
</g>
<!-- Node3&#45;&gt;Node4 -->
<g id="edge8" class="edge"><title>Node3&#45;&gt;Node4</title>
<path fill="none" stroke="midnightblue" d="M80.8039,-116.362C87.5025,-108.268 96.884,-96.9318 104.789,-87.3796"/>
<polygon fill="midnightblue" stroke="midnightblue" points="107.573,-89.5061 111.252,-79.5707 102.18,-85.0431 107.573,-89.5061"/>
</g>
<!-- Node9 -->
<g id="node19" class="node"><title>Node9</title>
<polygon fill="white" stroke="#bfbfbf" points="2,-58.5 2,-79.5 48,-79.5 48,-58.5 2,-58.5"/>
<text text-anchor="middle" x="25" y="-66.5" font-family="Helvetica,sans-Serif" font-size="10.00">cstring</text>
</g>
<!-- Node3&#45;&gt;Node9 -->
<g id="edge18" class="edge"><title>Node3&#45;&gt;Node9</title>
<path fill="none" stroke="midnightblue" d="M63.3795,-116.362C56.8205,-108.268 47.6344,-96.9318 39.8938,-87.3796"/>
<polygon fill="midnightblue" stroke="midnightblue" points="42.581,-85.1364 33.5659,-79.5707 37.1425,-89.5436 42.581,-85.1364"/>
</g>
<!-- Node3&#45;&gt;Node10 -->
<g id="edge20" class="edge"><title>Node3&#45;&gt;Node10</title>
<path fill="none" stroke="midnightblue" d="M115.643,-116.497C163.786,-104.91 240.02,-86.5636 282.265,-76.3968"/>
<polygon fill="midnightblue" stroke="midnightblue" points="283.331,-79.7402 292.235,-73.9974 281.694,-72.9345 283.331,-79.7402"/>
</g>
<!-- Node5 -->
<g id="node11" class="node"><title>Node5</title>
<polygon fill="white" stroke="#bfbfbf" points="-0.5,-0.5 -0.5,-21.5 40.5,-21.5 40.5,-0.5 -0.5,-0.5"/>
<text text-anchor="middle" x="20" y="-8.5" font-family="Helvetica,sans-Serif" font-size="10.00">string</text>
</g>
<!-- Node4&#45;&gt;Node5 -->
<g id="edge10" class="edge"><title>Node4&#45;&gt;Node5</title>
<path fill="none" stroke="midnightblue" d="M101.658,-58.3619C86.4345,-49.532 64.5585,-36.844 47.28,-26.8224"/>
<polygon fill="midnightblue" stroke="midnightblue" points="48.6316,-23.5603 38.2253,-21.5707 45.1196,-29.6155 48.6316,-23.5603"/>
</g>
<!-- Node6 -->
<g id="node13" class="node"><title>Node6</title>
<polygon fill="white" stroke="#bfbfbf" points="58,-0.5 58,-21.5 110,-21.5 110,-0.5 58,-0.5"/>
<text text-anchor="middle" x="84" y="-8.5" font-family="Helvetica,sans-Serif" font-size="10.00">sstream</text>
</g>
<!-- Node4&#45;&gt;Node6 -->
<g id="edge12" class="edge"><title>Node4&#45;&gt;Node6</title>
<path fill="none" stroke="midnightblue" d="M113.397,-58.3619C108.525,-50.5131 101.762,-39.6159 95.95,-30.2527"/>
<polygon fill="midnightblue" stroke="midnightblue" points="98.8085,-28.2213 90.5611,-21.5707 92.861,-31.9129 98.8085,-28.2213"/>
</g>
<!-- Node7 -->
<g id="node15" class="node"><title>Node7</title>
<polygon fill="white" stroke="#bfbfbf" points="128,-0.5 128,-21.5 184,-21.5 184,-0.5 128,-0.5"/>
<text text-anchor="middle" x="156" y="-8.5" font-family="Helvetica,sans-Serif" font-size="10.00">algorithm</text>
</g>
<!-- Node4&#45;&gt;Node7 -->
<g id="edge14" class="edge"><title>Node4&#45;&gt;Node7</title>
<path fill="none" stroke="midnightblue" d="M126.603,-58.3619C131.475,-50.5131 138.238,-39.6159 144.05,-30.2527"/>
<polygon fill="midnightblue" stroke="midnightblue" points="147.139,-31.9129 149.439,-21.5707 141.191,-28.2213 147.139,-31.9129"/>
</g>
<!-- Node8 -->
<g id="node17" class="node"><title>Node8</title>
<polygon fill="white" stroke="#bfbfbf" points="202,-0.5 202,-21.5 246,-21.5 246,-0.5 202,-0.5"/>
<text text-anchor="middle" x="224" y="-8.5" font-family="Helvetica,sans-Serif" font-size="10.00">vector</text>
</g>
<!-- Node4&#45;&gt;Node8 -->
<g id="edge16" class="edge"><title>Node4&#45;&gt;Node8</title>
<path fill="none" stroke="midnightblue" d="M139.075,-58.3619C155.055,-49.4502 178.081,-36.6087 196.127,-26.5447"/>
<polygon fill="midnightblue" stroke="midnightblue" points="198.017,-29.4982 205.046,-21.5707 194.607,-23.3846 198.017,-29.4982"/>
</g>
</g>
</svg>
