<?xml version="1.0" encoding="UTF-8" standalone="no"?>
<!DOCTYPE svg PUBLIC "-//W3C//DTD SVG 1.1//EN"
 "http://www.w3.org/Graphics/SVG/1.1/DTD/svg11.dtd">
<!-- Generated by graphviz version 2.26.3 (20100126.1600)
 -->
<!-- Title: src/tree/TUnpackerMessage.h Pages: 1 -->
<svg width="196pt" height="146pt"
 viewBox="0.00 0.00 196.00 146.00" xmlns="http://www.w3.org/2000/svg" xmlns:xlink="http://www.w3.org/1999/xlink">
<g id="graph1" class="graph" transform="scale(1 1) rotate(0) translate(4 142)">
<title>src/tree/TUnpackerMessage.h</title>
<polygon fill="white" stroke="white" points="-4,5 -4,-142 193,-142 193,5 -4,5"/>
<!-- Node0 -->
<g id="node1" class="node"><title>Node0</title>
<polygon fill="#bfbfbf" stroke="black" points="39.5,-116.5 39.5,-137.5 188.5,-137.5 188.5,-116.5 39.5,-116.5"/>
<text text-anchor="middle" x="114" y="-124.5" font-family="Helvetica,sans-Serif" font-size="10.00">src/tree/TUnpackerMessage.h</text>
</g>
<!-- Node1 -->
<g id="node3" class="node"><title>Node1</title>
<a xlink:href="_format_8h.html" target="_top" xlink:title="base/Format.h">
<polygon fill="white" stroke="black" points="32,-58.5 32,-79.5 112,-79.5 112,-58.5 32,-58.5"/>
<text text-anchor="middle" x="72" y="-66.5" font-family="Helvetica,sans-Serif" font-size="10.00">base/Format.h</text>
</a>
</g>
<!-- Node0&#45;&gt;Node1 -->
<g id="edge2" class="edge"><title>Node0&#45;&gt;Node1</title>
<path fill="none" stroke="midnightblue" d="M106.297,-116.362C100.554,-108.431 92.5572,-97.3885 85.7301,-87.9606"/>
<polygon fill="midnightblue" stroke="midnightblue" points="88.3546,-85.6173 79.6546,-79.5707 82.6849,-89.7229 88.3546,-85.6173"/>
</g>
<!-- Node4 -->
<g id="node9" class="node"><title>Node4</title>
<polygon fill="white" stroke="#bfbfbf" points="130,-58.5 130,-79.5 182,-79.5 182,-58.5 130,-58.5"/>
<text text-anchor="middle" x="156" y="-66.5" font-family="Helvetica,sans-Serif" font-size="10.00">ostream</text>
</g>
<!-- Node0&#45;&gt;Node4 -->
<g id="edge8" class="edge"><title>Node0&#45;&gt;Node4</title>
<path fill="none" stroke="midnightblue" d="M121.703,-116.362C127.446,-108.431 135.443,-97.3885 142.27,-87.9606"/>
<polygon fill="midnightblue" stroke="midnightblue" points="145.315,-89.7229 148.345,-79.5707 139.645,-85.6173 145.315,-89.7229"/>
</g>
<!-- Node2 -->
<g id="node5" class="node"><title>Node2</title>
<polygon fill="white" stroke="#bfbfbf" points="0,-0.5 0,-21.5 70,-21.5 70,-0.5 0,-0.5"/>
<text text-anchor="middle" x="35" y="-8.5" font-family="Helvetica,sans-Serif" font-size="10.00">fmt/format.h</text>
</g>
<!-- Node1&#45;&gt;Node2 -->
<g id="edge4" class="edge"><title>Node1&#45;&gt;Node2</title>
<path fill="none" stroke="midnightblue" d="M65.2136,-58.3619C60.2066,-50.5131 53.255,-39.6159 47.2819,-30.2527"/>
<polygon fill="midnightblue" stroke="midnightblue" points="50.0723,-28.1189 41.7433,-21.5707 44.1708,-31.8837 50.0723,-28.1189"/>
</g>
<!-- Node3 -->
<g id="node7" class="node"><title>Node3</title>
<polygon fill="white" stroke="#bfbfbf" points="88,-0.5 88,-21.5 132,-21.5 132,-0.5 88,-0.5"/>
<text text-anchor="middle" x="110" y="-8.5" font-family="Helvetica,sans-Serif" font-size="10.00">vector</text>
</g>
<!-- Node1&#45;&gt;Node3 -->
<g id="edge6" class="edge"><title>Node1&#45;&gt;Node3</title>
<path fill="none" stroke="midnightblue" d="M78.9698,-58.3619C84.1657,-50.4313 91.4006,-39.3885 97.5775,-29.9606"/>
<polygon fill="midnightblue" stroke="midnightblue" points="100.522,-31.8534 103.074,-21.5707 94.6665,-28.0172 100.522,-31.8534"/>
</g>
</g>
</svg>
