<?xml version="1.0" encoding="UTF-8" standalone="no"?>
<!DOCTYPE svg PUBLIC "-//W3C//DTD SVG 1.1//EN"
 "http://www.w3.org/Graphics/SVG/1.1/DTD/svg11.dtd">
<!-- Generated by graphviz version 2.26.3 (20100126.1600)
 -->
<!-- Title: src/expconfig/detectors/detail/Tagger_2015_450_elements.h Pages: 1 -->
<svg width="130pt" height="128pt"
 viewBox="0.00 0.00 130.00 128.00" xmlns="http://www.w3.org/2000/svg" xmlns:xlink="http://www.w3.org/1999/xlink">
<g id="graph1" class="graph" transform="scale(1 1) rotate(0) translate(4 124)">
<title>src/expconfig/detectors/detail/Tagger_2015_450_elements.h</title>
<polygon fill="white" stroke="white" points="-4,5 -4,-124 127,-124 127,5 -4,5"/>
<!-- Node58 -->
<g id="node1" class="node"><title>Node58</title>
<polygon fill="#bfbfbf" stroke="black" points="-0.5,-72.5 -0.5,-119.5 122.5,-119.5 122.5,-72.5 -0.5,-72.5"/>
<text text-anchor="start" x="7.5" y="-106.5" font-family="Helvetica,sans-Serif" font-size="10.00">src/expconfig/detectors</text>
<text text-anchor="start" x="7.5" y="-93.5" font-family="Helvetica,sans-Serif" font-size="10.00">/detail/Tagger_2015_450</text>
<text text-anchor="middle" x="61" y="-80.5" font-family="Helvetica,sans-Serif" font-size="10.00">_elements.h</text>
</g>
<!-- Node59 -->
<g id="node3" class="node"><title>Node59</title>
<a xlink:href="_tagger_8cc.html" target="_top" xlink:title="src/expconfig/detectors\l/Tagger.cc">
<polygon fill="white" stroke="black" points="1.5,-1 1.5,-35 120.5,-35 120.5,-1 1.5,-1"/>
<text text-anchor="start" x="9.5" y="-22" font-family="Helvetica,sans-Serif" font-size="10.00">src/expconfig/detectors</text>
<text text-anchor="middle" x="61" y="-9" font-family="Helvetica,sans-Serif" font-size="10.00">/Tagger.cc</text>
</a>
</g>
<!-- Node58&#45;&gt;Node59 -->
<g id="edge2" class="edge"><title>Node58&#45;&gt;Node59</title>
<path fill="none" stroke="midnightblue" d="M61,-61.9303C61,-52.6113 61,-42.9107 61,-35.003"/>
<polygon fill="midnightblue" stroke="midnightblue" points="57.5001,-62.1736 61,-72.1736 64.5001,-62.1736 57.5001,-62.1736"/>
</g>
</g>
</svg>
