<?xml version="1.0" encoding="UTF-8" standalone="no"?>
<!DOCTYPE svg PUBLIC "-//W3C//DTD SVG 1.1//EN"
 "http://www.w3.org/Graphics/SVG/1.1/DTD/svg11.dtd">
<!-- Generated by graphviz version 2.26.3 (20100126.1600)
 -->
<!-- Title: src/calibration/modules/TaggEff.h Pages: 1 -->
<svg width="528pt" height="116pt"
 viewBox="0.00 0.00 528.00 116.00" xmlns="http://www.w3.org/2000/svg" xmlns:xlink="http://www.w3.org/1999/xlink">
<g id="graph1" class="graph" transform="scale(1 1) rotate(0) translate(4 112)">
<title>src/calibration/modules/TaggEff.h</title>
<polygon fill="white" stroke="white" points="-4,5 -4,-112 525,-112 525,5 -4,5"/>
<!-- Node49 -->
<g id="node1" class="node"><title>Node49</title>
<polygon fill="#bfbfbf" stroke="black" points="216.5,-73 216.5,-107 333.5,-107 333.5,-73 216.5,-73"/>
<text text-anchor="start" x="224.5" y="-94" font-family="Helvetica,sans-Serif" font-size="10.00">src/calibration/modules</text>
<text text-anchor="middle" x="275" y="-81" font-family="Helvetica,sans-Serif" font-size="10.00">/TaggEff.h</text>
</g>
<!-- Node50 -->
<g id="node3" class="node"><title>Node50</title>
<a xlink:href="_ant-make_tagg_eff_8cc.html" target="_top" xlink:title="progs/Ant&#45;makeTaggEff.cc">
<polygon fill="white" stroke="black" points="0,-7.5 0,-28.5 134,-28.5 134,-7.5 0,-7.5"/>
<text text-anchor="middle" x="67" y="-15.5" font-family="Helvetica,sans-Serif" font-size="10.00">progs/Ant&#45;makeTaggEff.cc</text>
</a>
</g>
<!-- Node49&#45;&gt;Node50 -->
<g id="edge2" class="edge"><title>Node49&#45;&gt;Node50</title>
<path fill="none" stroke="midnightblue" d="M216.131,-69.6223C177.527,-56.2593 128.63,-39.3334 97.5706,-28.5821"/>
<polygon fill="midnightblue" stroke="midnightblue" points="215.112,-72.9733 225.707,-72.937 217.402,-66.3584 215.112,-72.9733"/>
</g>
<!-- Node51 -->
<g id="node5" class="node"><title>Node51</title>
<a xlink:href="_tagg_eff_8cc.html" target="_top" xlink:title="src/calibration/modules\l/TaggEff.cc">
<polygon fill="white" stroke="black" points="151.5,-1 151.5,-35 268.5,-35 268.5,-1 151.5,-1"/>
<text text-anchor="start" x="159.5" y="-22" font-family="Helvetica,sans-Serif" font-size="10.00">src/calibration/modules</text>
<text text-anchor="middle" x="210" y="-9" font-family="Helvetica,sans-Serif" font-size="10.00">/TaggEff.cc</text>
</a>
</g>
<!-- Node49&#45;&gt;Node51 -->
<g id="edge4" class="edge"><title>Node49&#45;&gt;Node51</title>
<path fill="none" stroke="midnightblue" d="M252.772,-65.3785C243.886,-55.5349 233.857,-44.4262 225.745,-35.4407"/>
<polygon fill="midnightblue" stroke="midnightblue" points="250.297,-67.8597 259.596,-72.937 255.493,-63.1689 250.297,-67.8597"/>
</g>
<!-- Node52 -->
<g id="node7" class="node"><title>Node52</title>
<a xlink:href="_setup__2014___e_p_t_8cc.html" target="_top" xlink:title="src/expconfig/setups\l/Setup_2014_EPT.cc">
<polygon fill="white" stroke="black" points="286,-1 286,-35 396,-35 396,-1 286,-1"/>
<text text-anchor="start" x="294" y="-22" font-family="Helvetica,sans-Serif" font-size="10.00">src/expconfig/setups</text>
<text text-anchor="middle" x="341" y="-9" font-family="Helvetica,sans-Serif" font-size="10.00">/Setup_2014_EPT.cc</text>
</a>
</g>
<!-- Node49&#45;&gt;Node52 -->
<g id="edge6" class="edge"><title>Node49&#45;&gt;Node52</title>
<path fill="none" stroke="midnightblue" d="M297.57,-65.3785C306.593,-55.5349 316.776,-44.4262 325.013,-35.4407"/>
<polygon fill="midnightblue" stroke="midnightblue" points="294.818,-63.2004 290.641,-72.937 299.978,-67.9305 294.818,-63.2004"/>
</g>
<!-- Node53 -->
<g id="node9" class="node"><title>Node53</title>
<a xlink:href="_setup__2017__03_8cc.html" target="_top" xlink:title="src/expconfig/setups\l/Setup_2017_03.cc">
<polygon fill="white" stroke="black" points="413.5,-1 413.5,-35 520.5,-35 520.5,-1 413.5,-1"/>
<text text-anchor="start" x="421.5" y="-22" font-family="Helvetica,sans-Serif" font-size="10.00">src/expconfig/setups</text>
<text text-anchor="middle" x="467" y="-9" font-family="Helvetica,sans-Serif" font-size="10.00">/Setup_2017_03.cc</text>
</a>
</g>
<!-- Node49&#45;&gt;Node53 -->
<g id="edge8" class="edge"><title>Node49&#45;&gt;Node53</title>
<path fill="none" stroke="midnightblue" d="M330.067,-69.3498C359.024,-58.4911 394.094,-45.3399 421.493,-35.0651"/>
<polygon fill="midnightblue" stroke="midnightblue" points="328.636,-66.1486 320.501,-72.937 331.094,-72.7029 328.636,-66.1486"/>
</g>
</g>
</svg>
