<?xml version="1.0" encoding="UTF-8" standalone="no"?>
<!DOCTYPE svg PUBLIC "-//W3C//DTD SVG 1.1//EN"
 "http://www.w3.org/Graphics/SVG/1.1/DTD/svg11.dtd">
<!-- Generated by graphviz version 2.26.3 (20100126.1600)
 -->
<!-- Title: src/root&#45;addons/analysis_codes/ThetaCBToyMC.cc Pages: 1 -->
<svg width="1057pt" height="276pt"
 viewBox="0.00 0.00 1057.00 276.00" xmlns="http://www.w3.org/2000/svg" xmlns:xlink="http://www.w3.org/1999/xlink">
<g id="graph1" class="graph" transform="scale(1 1) rotate(0) translate(4 272)">
<title>src/root&#45;addons/analysis_codes/ThetaCBToyMC.cc</title>
<polygon fill="white" stroke="white" points="-4,5 -4,-272 1054,-272 1054,5 -4,5"/>
<!-- Node0 -->
<g id="node1" class="node"><title>Node0</title>
<polygon fill="#bfbfbf" stroke="black" points="342,-233 342,-267 478,-267 478,-233 342,-233"/>
<text text-anchor="start" x="350" y="-254" font-family="Helvetica,sans-Serif" font-size="10.00">src/root&#45;addons/analysis</text>
<text text-anchor="middle" x="410" y="-241" font-family="Helvetica,sans-Serif" font-size="10.00">_codes/ThetaCBToyMC.cc</text>
</g>
<!-- Node1 -->
<g id="node3" class="node"><title>Node1</title>
<a xlink:href="_theta_c_b_toy_m_c_8h.html" target="_top" xlink:title="ThetaCBToyMC.h">
<polygon fill="white" stroke="black" points="0,-174.5 0,-195.5 96,-195.5 96,-174.5 0,-174.5"/>
<text text-anchor="middle" x="48" y="-182.5" font-family="Helvetica,sans-Serif" font-size="10.00">ThetaCBToyMC.h</text>
</a>
</g>
<!-- Node0&#45;&gt;Node1 -->
<g id="edge2" class="edge"><title>Node0&#45;&gt;Node1</title>
<path fill="none" stroke="midnightblue" d="M341.911,-237.774C273.867,-225.556 170.378,-206.974 106.093,-195.431"/>
<polygon fill="midnightblue" stroke="midnightblue" points="106.585,-191.963 96.1234,-193.641 105.347,-198.853 106.585,-191.963"/>
</g>
<!-- Node2 -->
<g id="node5" class="node"><title>Node2</title>
<a xlink:href="base_2std__ext_2math_8h.html" target="_top" xlink:title="base/std_ext/math.h">
<polygon fill="white" stroke="black" points="407,-116.5 407,-137.5 513,-137.5 513,-116.5 407,-116.5"/>
<text text-anchor="middle" x="460" y="-124.5" font-family="Helvetica,sans-Serif" font-size="10.00">base/std_ext/math.h</text>
</a>
</g>
<!-- Node0&#45;&gt;Node2 -->
<g id="edge4" class="edge"><title>Node0&#45;&gt;Node2</title>
<path fill="none" stroke="midnightblue" d="M341.812,-243.19C281.745,-235.615 200.807,-221.021 181,-196 174.931,-188.334 174.686,-181.466 181,-174 194.792,-157.69 318.645,-141.846 396.628,-133.364"/>
<polygon fill="midnightblue" stroke="midnightblue" points="397.272,-136.815 406.841,-132.267 396.524,-129.855 397.272,-136.815"/>
</g>
<!-- Node3 -->
<g id="node7" class="node"><title>Node3</title>
<polygon fill="white" stroke="#bfbfbf" points="438,-0.5 438,-21.5 482,-21.5 482,-0.5 438,-0.5"/>
<text text-anchor="middle" x="460" y="-8.5" font-family="Helvetica,sans-Serif" font-size="10.00">cmath</text>
</g>
<!-- Node0&#45;&gt;Node3 -->
<g id="edge70" class="edge"><title>Node0&#45;&gt;Node3</title>
<path fill="none" stroke="midnightblue" d="M341.834,-243.81C279.467,-236.568 193.824,-222.102 173,-196 166.902,-188.357 168.081,-182.45 173,-174 228.999,-77.7959 365.273,-33.7375 427.746,-18.0821"/>
<polygon fill="midnightblue" stroke="midnightblue" points="428.92,-21.3989 437.817,-15.6456 427.274,-14.5952 428.92,-21.3989"/>
</g>
<!-- Node6 -->
<g id="node13" class="node"><title>Node6</title>
<polygon fill="white" stroke="#bfbfbf" points="190,-174.5 190,-195.5 234,-195.5 234,-174.5 190,-174.5"/>
<text text-anchor="middle" x="212" y="-182.5" font-family="Helvetica,sans-Serif" font-size="10.00">TH2.h</text>
</g>
<!-- Node0&#45;&gt;Node6 -->
<g id="edge12" class="edge"><title>Node0&#45;&gt;Node6</title>
<path fill="none" stroke="midnightblue" d="M356.098,-232.996C325.625,-223.285 286.61,-210.689 244.042,-196.301"/>
<polygon fill="midnightblue" stroke="midnightblue" points="244.919,-192.903 234.325,-193.006 242.671,-199.532 244.919,-192.903"/>
</g>
<!-- Node7 -->
<g id="node15" class="node"><title>Node7</title>
<polygon fill="white" stroke="#bfbfbf" points="252,-174.5 252,-195.5 296,-195.5 296,-174.5 252,-174.5"/>
<text text-anchor="middle" x="274" y="-182.5" font-family="Helvetica,sans-Serif" font-size="10.00">TH3.h</text>
</g>
<!-- Node0&#45;&gt;Node7 -->
<g id="edge14" class="edge"><title>Node0&#45;&gt;Node7</title>
<path fill="none" stroke="midnightblue" d="M374.268,-232.922C352.934,-222.726 326.085,-209.894 305.54,-200.074"/>
<polygon fill="midnightblue" stroke="midnightblue" points="306.832,-196.813 296.301,-195.658 303.814,-203.128 306.832,-196.813"/>
</g>
<!-- Node8 -->
<g id="node17" class="node"><title>Node8</title>
<polygon fill="white" stroke="#bfbfbf" points="313.5,-174.5 313.5,-195.5 364.5,-195.5 364.5,-174.5 313.5,-174.5"/>
<text text-anchor="middle" x="339" y="-182.5" font-family="Helvetica,sans-Serif" font-size="10.00">TH2D.h</text>
</g>
<!-- Node0&#45;&gt;Node8 -->
<g id="edge16" class="edge"><title>Node0&#45;&gt;Node8</title>
<path fill="none" stroke="midnightblue" d="M391.346,-232.922C381.231,-223.662 368.741,-212.227 358.498,-202.85"/>
<polygon fill="midnightblue" stroke="midnightblue" points="360.593,-200.023 350.854,-195.852 355.866,-205.186 360.593,-200.023"/>
</g>
<!-- Node9 -->
<g id="node19" class="node"><title>Node9</title>
<polygon fill="white" stroke="#bfbfbf" points="381.5,-174.5 381.5,-195.5 438.5,-195.5 438.5,-174.5 381.5,-174.5"/>
<text text-anchor="middle" x="410" y="-182.5" font-family="Helvetica,sans-Serif" font-size="10.00">TGraph.h</text>
</g>
<!-- Node0&#45;&gt;Node9 -->
<g id="edge18" class="edge"><title>Node0&#45;&gt;Node9</title>
<path fill="none" stroke="midnightblue" d="M410,-232.922C410,-224.67 410,-214.692 410,-205.982"/>
<polygon fill="midnightblue" stroke="midnightblue" points="413.5,-205.852 410,-195.852 406.5,-205.852 413.5,-205.852"/>
</g>
<!-- Node10 -->
<g id="node21" class="node"><title>Node10</title>
<polygon fill="white" stroke="#bfbfbf" points="455.5,-174.5 455.5,-195.5 520.5,-195.5 520.5,-174.5 455.5,-174.5"/>
<text text-anchor="middle" x="488" y="-182.5" font-family="Helvetica,sans-Serif" font-size="10.00">TCanvas.h</text>
</g>
<!-- Node0&#45;&gt;Node10 -->
<g id="edge20" class="edge"><title>Node0&#45;&gt;Node10</title>
<path fill="none" stroke="midnightblue" d="M430.494,-232.922C441.826,-223.479 455.872,-211.774 467.245,-202.296"/>
<polygon fill="midnightblue" stroke="midnightblue" points="469.536,-204.943 474.977,-195.852 465.055,-199.565 469.536,-204.943"/>
</g>
<!-- Node11 -->
<g id="node23" class="node"><title>Node11</title>
<a xlink:href="histtools_8h.html" target="_top" xlink:title="histtools.h">
<polygon fill="white" stroke="black" points="538,-174.5 538,-195.5 600,-195.5 600,-174.5 538,-174.5"/>
<text text-anchor="middle" x="569" y="-182.5" font-family="Helvetica,sans-Serif" font-size="10.00">histtools.h</text>
</a>
</g>
<!-- Node0&#45;&gt;Node11 -->
<g id="edge22" class="edge"><title>Node0&#45;&gt;Node11</title>
<path fill="none" stroke="midnightblue" d="M451.775,-232.922C477.168,-222.541 509.245,-209.428 533.422,-199.544"/>
<polygon fill="midnightblue" stroke="midnightblue" points="534.996,-202.682 542.928,-195.658 532.347,-196.203 534.996,-202.682"/>
</g>
<!-- Node13 -->
<g id="node27" class="node"><title>Node13</title>
<polygon fill="white" stroke="#bfbfbf" points="618,-174.5 618,-195.5 672,-195.5 672,-174.5 618,-174.5"/>
<text text-anchor="middle" x="645" y="-182.5" font-family="Helvetica,sans-Serif" font-size="10.00">iostream</text>
</g>
<!-- Node0&#45;&gt;Node13 -->
<g id="edge26" class="edge"><title>Node0&#45;&gt;Node13</title>
<path fill="none" stroke="midnightblue" d="M475.122,-232.884C511.699,-223.141 558.396,-210.488 608.228,-196.17"/>
<polygon fill="midnightblue" stroke="midnightblue" points="609.262,-199.514 617.9,-193.381 607.322,-192.788 609.262,-199.514"/>
</g>
<!-- Node14 -->
<g id="node29" class="node"><title>Node14</title>
<polygon fill="white" stroke="#bfbfbf" points="690,-174.5 690,-195.5 732,-195.5 732,-174.5 690,-174.5"/>
<text text-anchor="middle" x="711" y="-182.5" font-family="Helvetica,sans-Serif" font-size="10.00">TF1.h</text>
</g>
<!-- Node0&#45;&gt;Node14 -->
<g id="edge28" class="edge"><title>Node0&#45;&gt;Node14</title>
<path fill="none" stroke="midnightblue" d="M478.066,-239.443C530.92,-230.559 606.085,-216.431 679.896,-196.012"/>
<polygon fill="midnightblue" stroke="midnightblue" points="681.146,-199.297 689.828,-193.224 679.254,-192.557 681.146,-199.297"/>
</g>
<!-- Node15 -->
<g id="node31" class="node"><title>Node15</title>
<a xlink:href="_root_draw_8h.html" target="_top" xlink:title="analysis/plot/RootDraw.h">
<polygon fill="white" stroke="black" points="749.5,-174.5 749.5,-195.5 876.5,-195.5 876.5,-174.5 749.5,-174.5"/>
<text text-anchor="middle" x="813" y="-182.5" font-family="Helvetica,sans-Serif" font-size="10.00">analysis/plot/RootDraw.h</text>
</a>
</g>
<!-- Node0&#45;&gt;Node15 -->
<g id="edge30" class="edge"><title>Node0&#45;&gt;Node15</title>
<path fill="none" stroke="midnightblue" d="M478.363,-238.974C550.75,-227.298 664.627,-208.931 739.062,-196.926"/>
<polygon fill="midnightblue" stroke="midnightblue" points="739.98,-200.323 749.295,-195.275 738.865,-193.412 739.98,-200.323"/>
</g>
<!-- Node29 -->
<g id="node66" class="node"><title>Node29</title>
<polygon fill="white" stroke="#bfbfbf" points="893.5,-174.5 893.5,-195.5 966.5,-195.5 966.5,-174.5 893.5,-174.5"/>
<text text-anchor="middle" x="930" y="-182.5" font-family="Helvetica,sans-Serif" font-size="10.00">TRandom2.h</text>
</g>
<!-- Node0&#45;&gt;Node29 -->
<g id="edge72" class="edge"><title>Node0&#45;&gt;Node29</title>
<path fill="none" stroke="midnightblue" d="M478.038,-244.989C568.531,-237.718 733.571,-222.354 882.971,-196.206"/>
<polygon fill="midnightblue" stroke="midnightblue" points="884.007,-199.577 893.244,-194.386 882.786,-192.684 884.007,-199.577"/>
</g>
<!-- Node2&#45;&gt;Node3 -->
<g id="edge6" class="edge"><title>Node2&#45;&gt;Node3</title>
<path fill="none" stroke="midnightblue" d="M460,-116.295C460,-97.1314 460,-56.654 460,-31.8434"/>
<polygon fill="midnightblue" stroke="midnightblue" points="463.5,-31.6792 460,-21.6792 456.5,-31.6792 463.5,-31.6792"/>
</g>
<!-- Node4 -->
<g id="node9" class="node"><title>Node4</title>
<polygon fill="white" stroke="#bfbfbf" points="545,-0.5 545,-21.5 585,-21.5 585,-0.5 545,-0.5"/>
<text text-anchor="middle" x="565" y="-8.5" font-family="Helvetica,sans-Serif" font-size="10.00">limits</text>
</g>
<!-- Node2&#45;&gt;Node4 -->
<g id="edge8" class="edge"><title>Node2&#45;&gt;Node4</title>
<path fill="none" stroke="midnightblue" d="M469.69,-116.295C487.661,-96.4408 526.341,-53.709 548.504,-29.2239"/>
<polygon fill="midnightblue" stroke="midnightblue" points="551.217,-31.4419 555.333,-21.6792 546.028,-26.7443 551.217,-31.4419"/>
</g>
<!-- Node5 -->
<g id="node11" class="node"><title>Node5</title>
<polygon fill="white" stroke="#bfbfbf" points="651,-58.5 651,-79.5 695,-79.5 695,-58.5 651,-58.5"/>
<text text-anchor="middle" x="673" y="-66.5" font-family="Helvetica,sans-Serif" font-size="10.00">vector</text>
</g>
<!-- Node2&#45;&gt;Node5 -->
<g id="edge10" class="edge"><title>Node2&#45;&gt;Node5</title>
<path fill="none" stroke="midnightblue" d="M498.573,-116.497C539.228,-105.426 602.548,-88.1842 640.674,-77.8024"/>
<polygon fill="midnightblue" stroke="midnightblue" points="641.991,-81.0714 650.72,-75.0669 640.151,-74.3173 641.991,-81.0714"/>
</g>
<!-- Node12 -->
<g id="node25" class="node"><title>Node12</title>
<polygon fill="white" stroke="#bfbfbf" points="531,-116.5 531,-137.5 571,-137.5 571,-116.5 531,-116.5"/>
<text text-anchor="middle" x="551" y="-124.5" font-family="Helvetica,sans-Serif" font-size="10.00">utility</text>
</g>
<!-- Node11&#45;&gt;Node12 -->
<g id="edge24" class="edge"><title>Node11&#45;&gt;Node12</title>
<path fill="none" stroke="midnightblue" d="M565.699,-174.362C563.339,-166.758 560.091,-156.294 557.249,-147.135"/>
<polygon fill="midnightblue" stroke="midnightblue" points="560.587,-146.084 554.281,-137.571 553.902,-148.159 560.587,-146.084"/>
</g>
<!-- Node15&#45;&gt;Node5 -->
<g id="edge36" class="edge"><title>Node15&#45;&gt;Node5</title>
<path fill="none" stroke="midnightblue" d="M755.724,-174.434C733.067,-167.56 708.539,-156.314 692,-138 680.188,-124.92 675.632,-105.152 673.918,-90.1221"/>
<polygon fill="midnightblue" stroke="midnightblue" points="677.374,-89.4311 673.088,-79.742 670.397,-89.9891 677.374,-89.4311"/>
</g>
<!-- Node16 -->
<g id="node33" class="node"><title>Node16</title>
<polygon fill="white" stroke="#bfbfbf" points="700.5,-116.5 700.5,-137.5 741.5,-137.5 741.5,-116.5 700.5,-116.5"/>
<text text-anchor="middle" x="721" y="-124.5" font-family="Helvetica,sans-Serif" font-size="10.00">string</text>
</g>
<!-- Node15&#45;&gt;Node16 -->
<g id="edge32" class="edge"><title>Node15&#45;&gt;Node16</title>
<path fill="none" stroke="midnightblue" d="M796.126,-174.362C782.249,-165.614 762.366,-153.079 746.54,-143.101"/>
<polygon fill="midnightblue" stroke="midnightblue" points="748.093,-139.943 737.767,-137.571 744.36,-145.864 748.093,-139.943"/>
</g>
<!-- Node17 -->
<g id="node35" class="node"><title>Node17</title>
<polygon fill="white" stroke="#bfbfbf" points="758.5,-116.5 758.5,-137.5 787.5,-137.5 787.5,-116.5 758.5,-116.5"/>
<text text-anchor="middle" x="773" y="-124.5" font-family="Helvetica,sans-Serif" font-size="10.00">list</text>
</g>
<!-- Node15&#45;&gt;Node17 -->
<g id="edge34" class="edge"><title>Node15&#45;&gt;Node17</title>
<path fill="none" stroke="midnightblue" d="M805.663,-174.362C800.194,-166.431 792.578,-155.389 786.076,-145.961"/>
<polygon fill="midnightblue" stroke="midnightblue" points="788.849,-143.816 780.29,-137.571 783.086,-147.79 788.849,-143.816"/>
</g>
<!-- Node18 -->
<g id="node38" class="node"><title>Node18</title>
<polygon fill="white" stroke="#bfbfbf" points="805,-116.5 805,-137.5 857,-137.5 857,-116.5 805,-116.5"/>
<text text-anchor="middle" x="831" y="-124.5" font-family="Helvetica,sans-Serif" font-size="10.00">memory</text>
</g>
<!-- Node15&#45;&gt;Node18 -->
<g id="edge38" class="edge"><title>Node15&#45;&gt;Node18</title>
<path fill="none" stroke="midnightblue" d="M816.301,-174.362C818.661,-166.758 821.909,-156.294 824.751,-147.135"/>
<polygon fill="midnightblue" stroke="midnightblue" points="828.098,-148.159 827.719,-137.571 821.413,-146.084 828.098,-148.159"/>
</g>
<!-- Node19 -->
<g id="node40" class="node"><title>Node19</title>
<polygon fill="white" stroke="#bfbfbf" points="874.5,-116.5 874.5,-137.5 933.5,-137.5 933.5,-116.5 874.5,-116.5"/>
<text text-anchor="middle" x="904" y="-124.5" font-family="Helvetica,sans-Serif" font-size="10.00">functional</text>
</g>
<!-- Node15&#45;&gt;Node19 -->
<g id="edge40" class="edge"><title>Node15&#45;&gt;Node19</title>
<path fill="none" stroke="midnightblue" d="M829.691,-174.362C843.416,-165.614 863.084,-153.079 878.737,-143.101"/>
<polygon fill="midnightblue" stroke="midnightblue" points="880.863,-145.897 887.415,-137.571 877.101,-139.994 880.863,-145.897"/>
</g>
<!-- Node20 -->
<g id="node42" class="node"><title>Node20</title>
<a xlink:href="_bin_settings_8h.html" target="_top" xlink:title="base/BinSettings.h">
<polygon fill="white" stroke="black" points="950.5,-116.5 950.5,-137.5 1049.5,-137.5 1049.5,-116.5 950.5,-116.5"/>
<text text-anchor="middle" x="1000" y="-124.5" font-family="Helvetica,sans-Serif" font-size="10.00">base/BinSettings.h</text>
</a>
</g>
<!-- Node15&#45;&gt;Node20 -->
<g id="edge42" class="edge"><title>Node15&#45;&gt;Node20</title>
<path fill="none" stroke="midnightblue" d="M846.864,-174.497C877.482,-165 922.743,-150.962 956.124,-140.609"/>
<polygon fill="midnightblue" stroke="midnightblue" points="957.558,-143.828 966.072,-137.523 955.484,-137.143 957.558,-143.828"/>
</g>
<!-- Node28 -->
<g id="node63" class="node"><title>Node28</title>
<polygon fill="white" stroke="#bfbfbf" points="589,-116.5 589,-137.5 645,-137.5 645,-116.5 589,-116.5"/>
<text text-anchor="middle" x="617" y="-124.5" font-family="Helvetica,sans-Serif" font-size="10.00">Rtypes.h</text>
</g>
<!-- Node15&#45;&gt;Node28 -->
<g id="edge68" class="edge"><title>Node15&#45;&gt;Node28</title>
<path fill="none" stroke="midnightblue" d="M777.506,-174.497C742.967,-164.276 690.649,-148.794 655.212,-138.308"/>
<polygon fill="midnightblue" stroke="midnightblue" points="655.827,-134.84 645.245,-135.358 653.841,-141.552 655.827,-134.84"/>
</g>
<!-- Node20&#45;&gt;Node5 -->
<g id="edge60" class="edge"><title>Node20&#45;&gt;Node5</title>
<path fill="none" stroke="midnightblue" d="M950.338,-117.514C947.518,-116.996 944.724,-116.488 942,-116 847.498,-99.0543 823.446,-97.2542 729,-80 721.206,-78.5762 712.818,-76.9687 704.967,-75.4311"/>
<polygon fill="midnightblue" stroke="midnightblue" points="705.539,-71.9766 695.05,-73.4714 704.182,-78.8438 705.539,-71.9766"/>
</g>
<!-- Node21 -->
<g id="node44" class="node"><title>Node21</title>
<a xlink:href="interval_8h.html" target="_top" xlink:title="base/interval.h">
<polygon fill="white" stroke="black" points="738,-58.5 738,-79.5 818,-79.5 818,-58.5 738,-58.5"/>
<text text-anchor="middle" x="778" y="-66.5" font-family="Helvetica,sans-Serif" font-size="10.00">base/interval.h</text>
</a>
</g>
<!-- Node20&#45;&gt;Node21 -->
<g id="edge44" class="edge"><title>Node20&#45;&gt;Node21</title>
<path fill="none" stroke="midnightblue" d="M959.797,-116.497C922.822,-106.836 867.858,-92.4765 828.052,-82.0765"/>
<polygon fill="midnightblue" stroke="midnightblue" points="828.838,-78.6646 818.278,-79.5231 827.068,-85.4372 828.838,-78.6646"/>
</g>
<!-- Node24 -->
<g id="node50" class="node"><title>Node24</title>
<polygon fill="white" stroke="#bfbfbf" points="857.5,-0.5 857.5,-21.5 916.5,-21.5 916.5,-0.5 857.5,-0.5"/>
<text text-anchor="middle" x="887" y="-8.5" font-family="Helvetica,sans-Serif" font-size="10.00">stdexcept</text>
</g>
<!-- Node20&#45;&gt;Node24 -->
<g id="edge62" class="edge"><title>Node20&#45;&gt;Node24</title>
<path fill="none" stroke="midnightblue" d="M989.572,-116.295C970.147,-96.3545 928.242,-53.337 904.443,-28.9056"/>
<polygon fill="midnightblue" stroke="midnightblue" points="906.888,-26.4001 897.403,-21.6792 901.874,-31.2846 906.888,-26.4001"/>
</g>
<!-- Node25 -->
<g id="node53" class="node"><title>Node25</title>
<polygon fill="white" stroke="#bfbfbf" points="933.5,-0.5 933.5,-21.5 982.5,-21.5 982.5,-0.5 933.5,-0.5"/>
<text text-anchor="middle" x="958" y="-8.5" font-family="Helvetica,sans-Serif" font-size="10.00">istream</text>
</g>
<!-- Node20&#45;&gt;Node25 -->
<g id="edge64" class="edge"><title>Node20&#45;&gt;Node25</title>
<path fill="none" stroke="midnightblue" d="M994.117,-116.426C989.081,-107.062 981.889,-92.9138 977,-80 971.03,-64.2292 966.049,-45.7871 962.688,-31.9385"/>
<polygon fill="midnightblue" stroke="midnightblue" points="966.038,-30.8948 960.351,-21.9559 959.222,-32.4905 966.038,-30.8948"/>
</g>
<!-- Node27 -->
<g id="node61" class="node"><title>Node27</title>
<polygon fill="white" stroke="#bfbfbf" points="986,-58.5 986,-79.5 1038,-79.5 1038,-58.5 986,-58.5"/>
<text text-anchor="middle" x="1012" y="-66.5" font-family="Helvetica,sans-Serif" font-size="10.00">ostream</text>
</g>
<!-- Node20&#45;&gt;Node27 -->
<g id="edge66" class="edge"><title>Node20&#45;&gt;Node27</title>
<path fill="none" stroke="midnightblue" d="M1002.2,-116.362C1003.76,-108.84 1005.89,-98.5187 1007.77,-89.4308"/>
<polygon fill="midnightblue" stroke="midnightblue" points="1011.21,-90.0724 1009.81,-79.5707 1004.36,-88.6541 1011.21,-90.0724"/>
</g>
<!-- Node21&#45;&gt;Node3 -->
<g id="edge58" class="edge"><title>Node21&#45;&gt;Node3</title>
<path fill="none" stroke="midnightblue" d="M737.725,-61.6543C673.847,-50.0036 550.572,-27.5193 492.177,-16.8688"/>
<polygon fill="midnightblue" stroke="midnightblue" points="492.523,-13.3743 482.058,-15.0231 491.267,-20.2606 492.523,-13.3743"/>
</g>
<!-- Node21&#45;&gt;Node4 -->
<g id="edge52" class="edge"><title>Node21&#45;&gt;Node4</title>
<path fill="none" stroke="midnightblue" d="M739.427,-58.4966C698.005,-47.2174 633.055,-29.5313 595.195,-19.2221"/>
<polygon fill="midnightblue" stroke="midnightblue" points="595.845,-15.7719 585.277,-16.5215 594.006,-22.5259 595.845,-15.7719"/>
</g>
<!-- Node22 -->
<g id="node46" class="node"><title>Node22</title>
<a xlink:href="types_8h.html" target="_top" xlink:title="types.h">
<polygon fill="white" stroke="black" points="791.5,-0.5 791.5,-21.5 840.5,-21.5 840.5,-0.5 791.5,-0.5"/>
<text text-anchor="middle" x="816" y="-8.5" font-family="Helvetica,sans-Serif" font-size="10.00">types.h</text>
</a>
</g>
<!-- Node21&#45;&gt;Node22 -->
<g id="edge46" class="edge"><title>Node21&#45;&gt;Node22</title>
<path fill="none" stroke="midnightblue" d="M784.97,-58.3619C790.166,-50.4313 797.401,-39.3885 803.578,-29.9606"/>
<polygon fill="midnightblue" stroke="midnightblue" points="806.522,-31.8534 809.074,-21.5707 800.666,-28.0172 806.522,-31.8534"/>
</g>
<!-- Node23 -->
<g id="node48" class="node"><title>Node23</title>
<polygon fill="white" stroke="#bfbfbf" points="648,-0.5 648,-21.5 704,-21.5 704,-0.5 648,-0.5"/>
<text text-anchor="middle" x="676" y="-8.5" font-family="Helvetica,sans-Serif" font-size="10.00">algorithm</text>
</g>
<!-- Node21&#45;&gt;Node23 -->
<g id="edge48" class="edge"><title>Node21&#45;&gt;Node23</title>
<path fill="none" stroke="midnightblue" d="M759.292,-58.3619C743.619,-49.4502 721.036,-36.6087 703.337,-26.5447"/>
<polygon fill="midnightblue" stroke="midnightblue" points="705.013,-23.4712 694.59,-21.5707 701.553,-29.5562 705.013,-23.4712"/>
</g>
<!-- Node21&#45;&gt;Node24 -->
<g id="edge50" class="edge"><title>Node21&#45;&gt;Node24</title>
<path fill="none" stroke="midnightblue" d="M797.739,-58.4966C814.61,-49.5194 839.109,-36.4835 858.174,-26.3387"/>
<polygon fill="midnightblue" stroke="midnightblue" points="859.856,-29.4086 867.039,-21.6212 856.567,-23.2289 859.856,-29.4086"/>
</g>
<!-- Node21&#45;&gt;Node25 -->
<g id="edge54" class="edge"><title>Node21&#45;&gt;Node25</title>
<path fill="none" stroke="midnightblue" d="M811.315,-58.4766C839.096,-49.673 879.963,-36.657 923.518,-22.4636"/>
<polygon fill="midnightblue" stroke="midnightblue" points="924.724,-25.7516 933.145,-19.3215 922.552,-19.0971 924.724,-25.7516"/>
</g>
<!-- Node26 -->
<g id="node55" class="node"><title>Node26</title>
<polygon fill="white" stroke="#bfbfbf" points="722,-0.5 722,-21.5 774,-21.5 774,-0.5 722,-0.5"/>
<text text-anchor="middle" x="748" y="-8.5" font-family="Helvetica,sans-Serif" font-size="10.00">sstream</text>
</g>
<!-- Node21&#45;&gt;Node26 -->
<g id="edge56" class="edge"><title>Node21&#45;&gt;Node26</title>
<path fill="none" stroke="midnightblue" d="M772.498,-58.3619C768.48,-50.5949 762.919,-39.8426 758.11,-30.5458"/>
<polygon fill="midnightblue" stroke="midnightblue" points="761.171,-28.8448 753.468,-21.5707 754.953,-32.0608 761.171,-28.8448"/>
</g>
</g>
</svg>
