<?xml version="1.0" encoding="UTF-8" standalone="no"?>
<!DOCTYPE svg PUBLIC "-//W3C//DTD SVG 1.1//EN"
 "http://www.w3.org/Graphics/SVG/1.1/DTD/svg11.dtd">
<!-- Generated by graphviz version 2.26.3 (20100126.1600)
 -->
<!-- Title: src/root&#45;addons/analysis_codes/TimeDependentCalibration.h Pages: 1 -->
<svg width="188pt" height="116pt"
 viewBox="0.00 0.00 188.00 116.00" xmlns="http://www.w3.org/2000/svg" xmlns:xlink="http://www.w3.org/1999/xlink">
<g id="graph1" class="graph" transform="scale(1 1) rotate(0) translate(4 112)">
<title>src/root&#45;addons/analysis_codes/TimeDependentCalibration.h</title>
<polygon fill="white" stroke="white" points="-4,5 -4,-112 185,-112 185,5 -4,5"/>
<!-- Node1 -->
<g id="node1" class="node"><title>Node1</title>
<polygon fill="#bfbfbf" stroke="black" points="2.5,-73 2.5,-107 177.5,-107 177.5,-73 2.5,-73"/>
<text text-anchor="start" x="10.5" y="-94" font-family="Helvetica,sans-Serif" font-size="10.00">src/root&#45;addons/analysis</text>
<text text-anchor="middle" x="90" y="-81" font-family="Helvetica,sans-Serif" font-size="10.00">_codes/TimeDependentCalibration.h</text>
</g>
<!-- Node2 -->
<g id="node3" class="node"><title>Node2</title>
<a xlink:href="_time_dependent_calibration_8cc.html" target="_top" xlink:title="src/root&#45;addons/analysis\l_codes/TimeDependentCalibration.cc">
<polygon fill="white" stroke="black" points="0,-1 0,-35 180,-35 180,-1 0,-1"/>
<text text-anchor="start" x="8" y="-22" font-family="Helvetica,sans-Serif" font-size="10.00">src/root&#45;addons/analysis</text>
<text text-anchor="middle" x="90" y="-9" font-family="Helvetica,sans-Serif" font-size="10.00">_codes/TimeDependentCalibration.cc</text>
</a>
</g>
<!-- Node1&#45;&gt;Node2 -->
<g id="edge2" class="edge"><title>Node1&#45;&gt;Node2</title>
<path fill="none" stroke="midnightblue" d="M90,-62.7193C90,-53.572 90,-43.6255 90,-35.4407"/>
<polygon fill="midnightblue" stroke="midnightblue" points="86.5001,-62.937 90,-72.937 93.5001,-62.937 86.5001,-62.937"/>
</g>
</g>
</svg>
