<?xml version="1.0" encoding="UTF-8" standalone="no"?>
<!DOCTYPE svg PUBLIC "-//W3C//DTD SVG 1.1//EN"
 "http://www.w3.org/Graphics/SVG/1.1/DTD/svg11.dtd">
<!-- Generated by graphviz version 2.26.3 (20100126.1600)
 -->
<!-- Title: src/analysis/utils/fitter/TreeFitter.h Pages: 1 -->
<svg width="1926pt" height="696pt"
 viewBox="0.00 0.00 1925.89 696.00" xmlns="http://www.w3.org/2000/svg" xmlns:xlink="http://www.w3.org/1999/xlink">
<g id="graph1" class="graph" transform="scale(1 1) rotate(0) translate(4 692)">
<title>src/analysis/utils/fitter/TreeFitter.h</title>
<polygon fill="white" stroke="white" points="-4,5 -4,-692 1922.89,-692 1922.89,5 -4,5"/>
<!-- Node0 -->
<g id="node1" class="node"><title>Node0</title>
<polygon fill="#bfbfbf" stroke="black" points="1233,-653 1233,-687 1325,-687 1325,-653 1233,-653"/>
<text text-anchor="start" x="1241" y="-674" font-family="Helvetica,sans-Serif" font-size="10.00">src/analysis/utils</text>
<text text-anchor="middle" x="1279" y="-661" font-family="Helvetica,sans-Serif" font-size="10.00">/fitter/TreeFitter.h</text>
</g>
<!-- Node1 -->
<g id="node3" class="node"><title>Node1</title>
<a xlink:href="_kin_fitter_8h.html" target="_top" xlink:title="KinFitter.h">
<polygon fill="white" stroke="black" points="1115,-594.5 1115,-615.5 1177,-615.5 1177,-594.5 1115,-594.5"/>
<text text-anchor="middle" x="1146" y="-602.5" font-family="Helvetica,sans-Serif" font-size="10.00">KinFitter.h</text>
</a>
</g>
<!-- Node0&#45;&gt;Node1 -->
<g id="edge2" class="edge"><title>Node0&#45;&gt;Node1</title>
<path fill="none" stroke="midnightblue" d="M1244.06,-652.922C1223.19,-642.726 1196.94,-629.894 1176.84,-620.074"/>
<polygon fill="midnightblue" stroke="midnightblue" points="1178.33,-616.905 1167.81,-615.658 1175.26,-623.194 1178.33,-616.905"/>
</g>
<!-- Node45 -->
<g id="node132" class="node"><title>Node45</title>
<a xlink:href="_particle_type_tree_8h.html" target="_top" xlink:title="base/ParticleTypeTree.h">
<polygon fill="white" stroke="black" points="1569.5,-362.5 1569.5,-383.5 1692.5,-383.5 1692.5,-362.5 1569.5,-362.5"/>
<text text-anchor="middle" x="1631" y="-370.5" font-family="Helvetica,sans-Serif" font-size="10.00">base/ParticleTypeTree.h</text>
</a>
</g>
<!-- Node0&#45;&gt;Node45 -->
<g id="edge172" class="edge"><title>Node0&#45;&gt;Node45</title>
<path fill="none" stroke="midnightblue" d="M1320.3,-652.941C1359.67,-633.604 1413,-597.999 1413,-547 1413,-547 1413,-547 1413,-489 1413,-421.345 1495.84,-393.021 1559.39,-381.246"/>
<polygon fill="midnightblue" stroke="midnightblue" points="1560.16,-384.665 1569.4,-379.495 1558.95,-377.769 1560.16,-384.665"/>
</g>
<!-- Node2 -->
<g id="node5" class="node"><title>Node2</title>
<a xlink:href="_fitter_8h.html" target="_top" xlink:title="Fitter.h">
<polygon fill="white" stroke="black" points="913.5,-536.5 913.5,-557.5 960.5,-557.5 960.5,-536.5 913.5,-536.5"/>
<text text-anchor="middle" x="937" y="-544.5" font-family="Helvetica,sans-Serif" font-size="10.00">Fitter.h</text>
</a>
</g>
<!-- Node1&#45;&gt;Node2 -->
<g id="edge4" class="edge"><title>Node1&#45;&gt;Node2</title>
<path fill="none" stroke="midnightblue" d="M1114.71,-596.317C1075.95,-585.561 1010.19,-567.31 970.453,-556.284"/>
<polygon fill="midnightblue" stroke="midnightblue" points="971.275,-552.88 960.703,-553.578 969.403,-559.625 971.275,-552.88"/>
</g>
<!-- Node3 -->
<g id="node7" class="node"><title>Node3</title>
<a xlink:href="_uncertainties_8h.html" target="_top" xlink:title="analysis/utils/Uncertainties.h">
<polygon fill="white" stroke="black" points="865.5,-478.5 865.5,-499.5 1008.5,-499.5 1008.5,-478.5 865.5,-478.5"/>
<text text-anchor="middle" x="937" y="-486.5" font-family="Helvetica,sans-Serif" font-size="10.00">analysis/utils/Uncertainties.h</text>
</a>
</g>
<!-- Node2&#45;&gt;Node3 -->
<g id="edge6" class="edge"><title>Node2&#45;&gt;Node3</title>
<path fill="none" stroke="midnightblue" d="M937,-536.362C937,-528.922 937,-518.743 937,-509.728"/>
<polygon fill="midnightblue" stroke="midnightblue" points="940.5,-509.571 937,-499.571 933.5,-509.571 940.5,-509.571"/>
</g>
<!-- Node4 -->
<g id="node9" class="node"><title>Node4</title>
<a xlink:href="_t_particle_8h.html" target="_top" xlink:title="tree/TParticle.h">
<polygon fill="white" stroke="black" points="994.5,-420.5 994.5,-441.5 1077.5,-441.5 1077.5,-420.5 994.5,-420.5"/>
<text text-anchor="middle" x="1036" y="-428.5" font-family="Helvetica,sans-Serif" font-size="10.00">tree/TParticle.h</text>
</a>
</g>
<!-- Node2&#45;&gt;Node4 -->
<g id="edge162" class="edge"><title>Node2&#45;&gt;Node4</title>
<path fill="none" stroke="midnightblue" d="M960.691,-538.762C978.681,-531.326 1002.69,-518.663 1017,-500 1027.6,-486.171 1032.29,-466.785 1034.36,-452.081"/>
<polygon fill="midnightblue" stroke="midnightblue" points="1037.87,-452.245 1035.49,-441.919 1030.91,-451.472 1037.87,-452.245"/>
</g>
<!-- Node17 -->
<g id="node37" class="node"><title>Node17</title>
<polygon fill="white" stroke="#bfbfbf" points="765,-58.5 765,-79.5 809,-79.5 809,-58.5 765,-58.5"/>
<text text-anchor="middle" x="787" y="-66.5" font-family="Helvetica,sans-Serif" font-size="10.00">vector</text>
</g>
<!-- Node2&#45;&gt;Node17 -->
<g id="edge168" class="edge"><title>Node2&#45;&gt;Node17</title>
<path fill="none" stroke="midnightblue" d="M913.281,-545.268C803.865,-535.795 347.49,-479.681 213,-196 195.971,-160.08 218.563,-135.859 253,-116 340.672,-65.442 606.383,-90.8975 707,-80 722.814,-78.2872 740.325,-75.9319 754.922,-73.8401"/>
<polygon fill="midnightblue" stroke="midnightblue" points="755.579,-77.2814 764.97,-72.3764 754.57,-70.3545 755.579,-77.2814"/>
</g>
<!-- Node25 -->
<g id="node57" class="node"><title>Node25</title>
<polygon fill="white" stroke="#bfbfbf" points="891,-174.5 891,-195.5 943,-195.5 943,-174.5 891,-174.5"/>
<text text-anchor="middle" x="917" y="-182.5" font-family="Helvetica,sans-Serif" font-size="10.00">memory</text>
</g>
<!-- Node2&#45;&gt;Node25 -->
<g id="edge170" class="edge"><title>Node2&#45;&gt;Node25</title>
<path fill="none" stroke="midnightblue" d="M913.384,-540.285C894.405,-533.503 869.002,-520.971 857,-500 852.143,-491.514 854.534,-487.462 857,-478 876.52,-403.101 917.397,-399.387 942,-326 955.328,-286.246 962.634,-271.98 950,-232 946.7,-221.557 940.156,-211.423 933.76,-203.255"/>
<polygon fill="midnightblue" stroke="midnightblue" points="936.392,-200.947 927.29,-195.525 931.024,-205.44 936.392,-200.947"/>
</g>
<!-- Node42 -->
<g id="node117" class="node"><title>Node42</title>
<a xlink:href="_lorentz_vec_8h.html" target="_top" xlink:title="base/vec/LorentzVec.h">
<polygon fill="white" stroke="black" points="-0.5,-362.5 -0.5,-383.5 116.5,-383.5 116.5,-362.5 -0.5,-362.5"/>
<text text-anchor="middle" x="58" y="-370.5" font-family="Helvetica,sans-Serif" font-size="10.00">base/vec/LorentzVec.h</text>
</a>
</g>
<!-- Node2&#45;&gt;Node42 -->
<g id="edge164" class="edge"><title>Node2&#45;&gt;Node42</title>
<path fill="none" stroke="midnightblue" d="M913.101,-546.25C782.945,-542.086 164.109,-521.224 130,-500 91.264,-475.897 71.4044,-422.9 63.0271,-393.559"/>
<polygon fill="midnightblue" stroke="midnightblue" points="66.3243,-392.34 60.3631,-383.581 59.5612,-394.146 66.3243,-392.34"/>
</g>
<!-- Node44 -->
<g id="node128" class="node"><title>Node44</title>
<polygon fill="white" stroke="#bfbfbf" points="1063.5,-478.5 1063.5,-499.5 1140.5,-499.5 1140.5,-478.5 1063.5,-478.5"/>
<text text-anchor="middle" x="1102" y="-486.5" font-family="Helvetica,sans-Serif" font-size="10.00">APLCON.hpp</text>
</g>
<!-- Node2&#45;&gt;Node44 -->
<g id="edge166" class="edge"><title>Node2&#45;&gt;Node44</title>
<path fill="none" stroke="midnightblue" d="M960.64,-538.69C987.209,-529.351 1030.77,-514.038 1062.53,-502.876"/>
<polygon fill="midnightblue" stroke="midnightblue" points="1063.7,-506.175 1071.97,-499.556 1061.37,-499.571 1063.7,-506.175"/>
</g>
<!-- Node3&#45;&gt;Node4 -->
<g id="edge8" class="edge"><title>Node3&#45;&gt;Node4</title>
<path fill="none" stroke="midnightblue" d="M955.158,-478.362C970.23,-469.532 991.887,-456.844 1008.99,-446.822"/>
<polygon fill="midnightblue" stroke="midnightblue" points="1011.1,-449.646 1017.96,-441.571 1007.56,-443.606 1011.1,-449.646"/>
</g>
<!-- Node8 -->
<g id="node17" class="node"><title>Node8</title>
<a xlink:href="_detector__t_8h.html" target="_top" xlink:title="base/Detector_t.h">
<polygon fill="white" stroke="black" points="493.5,-174.5 493.5,-195.5 588.5,-195.5 588.5,-174.5 493.5,-174.5"/>
<text text-anchor="middle" x="541" y="-182.5" font-family="Helvetica,sans-Serif" font-size="10.00">base/Detector_t.h</text>
</a>
</g>
<!-- Node3&#45;&gt;Node8 -->
<g id="edge160" class="edge"><title>Node3&#45;&gt;Node8</title>
<path fill="none" stroke="midnightblue" d="M865.12,-480.744C776.246,-466.329 628.048,-427.639 557,-326 531.718,-289.833 533.982,-235.25 537.622,-205.727"/>
<polygon fill="midnightblue" stroke="midnightblue" points="541.101,-206.12 539.03,-195.73 534.169,-205.144 541.101,-206.12"/>
</g>
<!-- Node5 -->
<g id="node11" class="node"><title>Node5</title>
<a xlink:href="_t_candidate_8h.html" target="_top" xlink:title="tree/TCandidate.h">
<polygon fill="white" stroke="black" points="681.5,-362.5 681.5,-383.5 776.5,-383.5 776.5,-362.5 681.5,-362.5"/>
<text text-anchor="middle" x="729" y="-370.5" font-family="Helvetica,sans-Serif" font-size="10.00">tree/TCandidate.h</text>
</a>
</g>
<!-- Node4&#45;&gt;Node5 -->
<g id="edge10" class="edge"><title>Node4&#45;&gt;Node5</title>
<path fill="none" stroke="midnightblue" d="M994.277,-423.118C940.655,-412.987 847.284,-395.347 786.833,-383.926"/>
<polygon fill="midnightblue" stroke="midnightblue" points="787.162,-380.426 776.686,-382.009 785.862,-387.305 787.162,-380.426"/>
</g>
<!-- Node4&#45;&gt;Node17 -->
<g id="edge152" class="edge"><title>Node4&#45;&gt;Node17</title>
<path fill="none" stroke="midnightblue" d="M994.341,-427.896C892.967,-419.505 626.175,-392.37 414,-326 328.378,-299.217 227,-339.713 227,-250 227,-250 227,-250 227,-185 227,-136.342 266.929,-134.336 312,-116 475.287,-49.5697 531.856,-100.012 707,-80 722.804,-78.1943 740.314,-75.8284 754.913,-73.7536"/>
<polygon fill="midnightblue" stroke="midnightblue" points="755.564,-77.1961 764.963,-72.3065 754.566,-70.2675 755.564,-77.1961"/>
</g>
<!-- Node4&#45;&gt;Node25 -->
<g id="edge158" class="edge"><title>Node4&#45;&gt;Node25</title>
<path fill="none" stroke="midnightblue" d="M1034.13,-420.257C1027,-379.42 1001.79,-235.932 999,-232 987.729,-216.115 969.28,-204.856 952.733,-197.348"/>
<polygon fill="midnightblue" stroke="midnightblue" points="953.853,-194.022 943.279,-193.355 951.129,-200.47 953.853,-194.022"/>
</g>
<!-- Node28 -->
<g id="node75" class="node"><title>Node28</title>
<a xlink:href="types_8h.html" target="_top" xlink:title="base/types.h">
<polygon fill="white" stroke="black" points="1810.5,-174.5 1810.5,-195.5 1883.5,-195.5 1883.5,-174.5 1810.5,-174.5"/>
<text text-anchor="middle" x="1847" y="-182.5" font-family="Helvetica,sans-Serif" font-size="10.00">base/types.h</text>
</a>
</g>
<!-- Node4&#45;&gt;Node28 -->
<g id="edge92" class="edge"><title>Node4&#45;&gt;Node28</title>
<path fill="none" stroke="midnightblue" d="M1077.75,-430.386C1204.5,-428.154 1583.32,-418.683 1701,-384 1803.65,-353.747 1857.53,-360.113 1912,-268 1920.14,-254.228 1919.28,-246.248 1912,-232 1905.17,-218.629 1892.56,-208.183 1880.25,-200.571"/>
<polygon fill="midnightblue" stroke="midnightblue" points="1881.85,-197.452 1871.43,-195.527 1878.38,-203.529 1881.85,-197.452"/>
</g>
<!-- Node29 -->
<g id="node77" class="node"><title>Node29</title>
<a xlink:href="_particle_type_8h.html" target="_top" xlink:title="base/ParticleType.h">
<polygon fill="white" stroke="black" points="1619,-304.5 1619,-325.5 1723,-325.5 1723,-304.5 1619,-304.5"/>
<text text-anchor="middle" x="1671" y="-312.5" font-family="Helvetica,sans-Serif" font-size="10.00">base/ParticleType.h</text>
</a>
</g>
<!-- Node4&#45;&gt;Node29 -->
<g id="edge94" class="edge"><title>Node4&#45;&gt;Node29</title>
<path fill="none" stroke="midnightblue" d="M1077.66,-423.389C1186.46,-403.514 1479.61,-349.962 1608.62,-326.396"/>
<polygon fill="midnightblue" stroke="midnightblue" points="1609.52,-329.788 1618.73,-324.548 1608.27,-322.902 1609.52,-329.788"/>
</g>
<!-- Node34 -->
<g id="node97" class="node"><title>Node34</title>
<a xlink:href="_tree_8h.html" target="_top" xlink:title="base/Tree.h">
<polygon fill="white" stroke="black" points="1147,-239.5 1147,-260.5 1215,-260.5 1215,-239.5 1147,-239.5"/>
<text text-anchor="middle" x="1181" y="-247.5" font-family="Helvetica,sans-Serif" font-size="10.00">base/Tree.h</text>
</a>
</g>
<!-- Node4&#45;&gt;Node34 -->
<g id="edge124" class="edge"><title>Node4&#45;&gt;Node34</title>
<path fill="none" stroke="midnightblue" d="M1073.93,-420.345C1093.88,-413.016 1117.37,-401.403 1133,-384 1162.3,-351.377 1174.04,-299.598 1178.49,-270.893"/>
<polygon fill="midnightblue" stroke="midnightblue" points="1181.99,-271.168 1179.9,-260.781 1175.05,-270.202 1181.99,-271.168"/>
</g>
<!-- Node39 -->
<g id="node108" class="node"><title>Node39</title>
<polygon fill="white" stroke="#bfbfbf" points="1034.5,-174.5 1034.5,-195.5 1063.5,-195.5 1063.5,-174.5 1034.5,-174.5"/>
<text text-anchor="middle" x="1049" y="-182.5" font-family="Helvetica,sans-Serif" font-size="10.00">list</text>
</g>
<!-- Node4&#45;&gt;Node39 -->
<g id="edge154" class="edge"><title>Node4&#45;&gt;Node39</title>
<path fill="none" stroke="midnightblue" d="M1060.07,-420.38C1074.51,-412.585 1091.66,-400.48 1100,-384 1131.04,-322.693 1086.47,-240.946 1062.52,-204.253"/>
<polygon fill="midnightblue" stroke="midnightblue" points="1065.41,-202.285 1056.93,-195.935 1059.6,-206.188 1065.41,-202.285"/>
</g>
<!-- Node4&#45;&gt;Node42 -->
<g id="edge148" class="edge"><title>Node4&#45;&gt;Node42</title>
<path fill="none" stroke="midnightblue" d="M994.289,-428.526C842.226,-419.508 316.605,-388.336 126.934,-377.088"/>
<polygon fill="midnightblue" stroke="midnightblue" points="127,-373.586 116.81,-376.488 126.586,-380.574 127,-373.586"/>
</g>
<!-- Node43 -->
<g id="node122" class="node"><title>Node43</title>
<polygon fill="white" stroke="#bfbfbf" points="1037,-362.5 1037,-383.5 1091,-383.5 1091,-362.5 1037,-362.5"/>
<text text-anchor="middle" x="1064" y="-370.5" font-family="Helvetica,sans-Serif" font-size="10.00">iostream</text>
</g>
<!-- Node4&#45;&gt;Node43 -->
<g id="edge156" class="edge"><title>Node4&#45;&gt;Node43</title>
<path fill="none" stroke="midnightblue" d="M1041.14,-420.362C1044.85,-412.677 1049.97,-402.069 1054.42,-392.84"/>
<polygon fill="midnightblue" stroke="midnightblue" points="1057.7,-394.098 1058.9,-383.571 1051.4,-391.055 1057.7,-394.098"/>
</g>
<!-- Node6 -->
<g id="node13" class="node"><title>Node6</title>
<a xlink:href="_t_cluster_8h.html" target="_top" xlink:title="TCluster.h">
<polygon fill="white" stroke="black" points="566,-304.5 566,-325.5 628,-325.5 628,-304.5 566,-304.5"/>
<text text-anchor="middle" x="597" y="-312.5" font-family="Helvetica,sans-Serif" font-size="10.00">TCluster.h</text>
</a>
</g>
<!-- Node5&#45;&gt;Node6 -->
<g id="edge12" class="edge"><title>Node5&#45;&gt;Node6</title>
<path fill="none" stroke="midnightblue" d="M705.096,-362.497C684.2,-353.315 653.644,-339.889 630.345,-329.652"/>
<polygon fill="midnightblue" stroke="midnightblue" points="631.736,-326.44 621.172,-325.621 628.92,-332.848 631.736,-326.44"/>
</g>
<!-- Node5&#45;&gt;Node8 -->
<g id="edge80" class="edge"><title>Node5&#45;&gt;Node8</title>
<path fill="none" stroke="midnightblue" d="M719.457,-362.458C697.763,-338.624 642.834,-279.004 594,-232 583.478,-221.872 571.313,-211.027 561.294,-202.31"/>
<polygon fill="midnightblue" stroke="midnightblue" points="563.322,-199.436 553.466,-195.55 558.747,-204.734 563.322,-199.436"/>
</g>
<!-- Node5&#45;&gt;Node17 -->
<g id="edge82" class="edge"><title>Node5&#45;&gt;Node17</title>
<path fill="none" stroke="midnightblue" d="M750.469,-362.337C779.781,-346.419 831.071,-313.383 852,-268 881.325,-204.41 829.69,-123.816 802.349,-87.8341"/>
<polygon fill="midnightblue" stroke="midnightblue" points="804.898,-85.4123 795.985,-79.6847 799.381,-89.7205 804.898,-85.4123"/>
</g>
<!-- Node22 -->
<g id="node48" class="node"><title>Node22</title>
<polygon fill="white" stroke="#bfbfbf" points="321,-174.5 321,-195.5 371,-195.5 371,-174.5 321,-174.5"/>
<text text-anchor="middle" x="346" y="-182.5" font-family="Helvetica,sans-Serif" font-size="10.00">iomanip</text>
</g>
<!-- Node5&#45;&gt;Node22 -->
<g id="edge84" class="edge"><title>Node5&#45;&gt;Node22</title>
<path fill="none" stroke="midnightblue" d="M681.342,-369.289C605.313,-362.805 460.414,-347.975 414,-326 379.305,-309.573 366.397,-302.709 350,-268 340.749,-248.419 340.972,-223.262 342.739,-205.802"/>
<polygon fill="midnightblue" stroke="midnightblue" points="346.25,-205.937 344.039,-195.575 339.306,-205.054 346.25,-205.937"/>
</g>
<!-- Node23 -->
<g id="node50" class="node"><title>Node23</title>
<polygon fill="white" stroke="#bfbfbf" points="414,-174.5 414,-195.5 466,-195.5 466,-174.5 414,-174.5"/>
<text text-anchor="middle" x="440" y="-182.5" font-family="Helvetica,sans-Serif" font-size="10.00">sstream</text>
</g>
<!-- Node5&#45;&gt;Node23 -->
<g id="edge86" class="edge"><title>Node5&#45;&gt;Node23</title>
<path fill="none" stroke="midnightblue" d="M681.362,-366.61C590.654,-353.359 398.699,-319.735 360,-268 350.416,-255.188 352.053,-245.887 360,-232 369.565,-215.288 387.64,-203.935 404.193,-196.58"/>
<polygon fill="midnightblue" stroke="midnightblue" points="405.753,-199.724 413.687,-192.702 403.106,-193.244 405.753,-199.724"/>
</g>
<!-- Node5&#45;&gt;Node25 -->
<g id="edge88" class="edge"><title>Node5&#45;&gt;Node25</title>
<path fill="none" stroke="midnightblue" d="M776.553,-368.154C828.003,-361.815 905.109,-348.743 923,-326 950.509,-291.031 935.973,-234.727 925.198,-204.949"/>
<polygon fill="midnightblue" stroke="midnightblue" points="928.464,-203.689 921.619,-195.602 921.926,-206.192 928.464,-203.689"/>
</g>
<!-- Node27 -->
<g id="node61" class="node"><title>Node27</title>
<polygon fill="white" stroke="#bfbfbf" points="961,-174.5 961,-195.5 1017,-195.5 1017,-174.5 961,-174.5"/>
<text text-anchor="middle" x="989" y="-182.5" font-family="Helvetica,sans-Serif" font-size="10.00">algorithm</text>
</g>
<!-- Node5&#45;&gt;Node27 -->
<g id="edge90" class="edge"><title>Node5&#45;&gt;Node27</title>
<path fill="none" stroke="midnightblue" d="M776.865,-367.944C832.001,-361.198 918.081,-347.54 942,-326 976.837,-294.628 985.899,-236.765 988.225,-205.815"/>
<polygon fill="midnightblue" stroke="midnightblue" points="991.725,-205.916 988.812,-195.729 984.736,-205.509 991.725,-205.916"/>
</g>
<!-- Node7 -->
<g id="node15" class="node"><title>Node7</title>
<a xlink:href="_t_detector_read_hit_8h.html" target="_top" xlink:title="tree/TDetectorReadHit.h">
<polygon fill="white" stroke="black" points="369,-239.5 369,-260.5 493,-260.5 493,-239.5 369,-239.5"/>
<text text-anchor="middle" x="431" y="-247.5" font-family="Helvetica,sans-Serif" font-size="10.00">tree/TDetectorReadHit.h</text>
</a>
</g>
<!-- Node6&#45;&gt;Node7 -->
<g id="edge14" class="edge"><title>Node6&#45;&gt;Node7</title>
<path fill="none" stroke="midnightblue" d="M569.96,-304.412C542.106,-293.505 498.513,-276.436 467.588,-264.327"/>
<polygon fill="midnightblue" stroke="midnightblue" points="468.616,-260.971 458.029,-260.584 466.064,-267.489 468.616,-260.971"/>
</g>
<!-- Node6&#45;&gt;Node8 -->
<g id="edge54" class="edge"><title>Node6&#45;&gt;Node8</title>
<path fill="none" stroke="midnightblue" d="M595.056,-304.396C591.847,-288.233 584.619,-256.704 573,-232 568.372,-222.16 561.802,-212.086 555.818,-203.801"/>
<polygon fill="midnightblue" stroke="midnightblue" points="558.474,-201.509 549.674,-195.609 552.874,-205.709 558.474,-201.509"/>
</g>
<!-- Node11 -->
<g id="node23" class="node"><title>Node11</title>
<a xlink:href="vec3_8h.html" target="_top" xlink:title="base/vec/vec3.h">
<polygon fill="white" stroke="black" points="72.5,-116.5 72.5,-137.5 161.5,-137.5 161.5,-116.5 72.5,-116.5"/>
<text text-anchor="middle" x="117" y="-124.5" font-family="Helvetica,sans-Serif" font-size="10.00">base/vec/vec3.h</text>
</a>
</g>
<!-- Node6&#45;&gt;Node11 -->
<g id="edge68" class="edge"><title>Node6&#45;&gt;Node11</title>
<path fill="none" stroke="midnightblue" d="M565.817,-312.351C497.805,-306.234 338.287,-289.954 289,-268 222.625,-238.434 160.891,-176.145 132.842,-145.218"/>
<polygon fill="midnightblue" stroke="midnightblue" points="135.421,-142.851 126.15,-137.724 130.2,-147.514 135.421,-142.851"/>
</g>
<!-- Node13 -->
<g id="node27" class="node"><title>Node13</title>
<polygon fill="white" stroke="#bfbfbf" points="271,-0.5 271,-21.5 315,-21.5 315,-0.5 271,-0.5"/>
<text text-anchor="middle" x="293" y="-8.5" font-family="Helvetica,sans-Serif" font-size="10.00">cmath</text>
</g>
<!-- Node6&#45;&gt;Node13 -->
<g id="edge72" class="edge"><title>Node6&#45;&gt;Node13</title>
<path fill="none" stroke="midnightblue" d="M565.669,-312.978C505.129,-308.484 375.039,-295.794 341,-268 269.417,-209.551 281.335,-81.5126 289.213,-31.547"/>
<polygon fill="midnightblue" stroke="midnightblue" points="292.676,-32.0576 290.893,-21.6139 285.774,-30.8901 292.676,-32.0576"/>
</g>
<!-- Node15 -->
<g id="node32" class="node"><title>Node15</title>
<a xlink:href="base_2std__ext_2math_8h.html" target="_top" xlink:title="base/std_ext/math.h">
<polygon fill="white" stroke="black" points="515,-116.5 515,-137.5 621,-137.5 621,-116.5 515,-116.5"/>
<text text-anchor="middle" x="568" y="-124.5" font-family="Helvetica,sans-Serif" font-size="10.00">base/std_ext/math.h</text>
</a>
</g>
<!-- Node6&#45;&gt;Node15 -->
<g id="edge56" class="edge"><title>Node6&#45;&gt;Node15</title>
<path fill="none" stroke="midnightblue" d="M598.918,-304.472C602.846,-280.666 610.361,-221.1 597,-174 594.186,-164.081 588.62,-154.203 583.109,-146.08"/>
<polygon fill="midnightblue" stroke="midnightblue" points="585.768,-143.785 577.061,-137.748 580.103,-147.897 585.768,-143.785"/>
</g>
<!-- Node6&#45;&gt;Node17 -->
<g id="edge70" class="edge"><title>Node6&#45;&gt;Node17</title>
<path fill="none" stroke="midnightblue" d="M606.81,-304.192C628.57,-280.31 682.7,-221.403 730,-174 746.433,-157.532 756.028,-157.947 768,-138 776.968,-123.059 781.812,-103.779 784.36,-89.3986"/>
<polygon fill="midnightblue" stroke="midnightblue" points="787.819,-89.9279 785.89,-79.5102 780.902,-88.8571 787.819,-89.9279"/>
</g>
<!-- Node6&#45;&gt;Node22 -->
<g id="edge74" class="edge"><title>Node6&#45;&gt;Node22</title>
<path fill="none" stroke="midnightblue" d="M565.682,-313.104C507.966,-308.94 388.137,-296.955 360,-268 344.155,-251.694 342.399,-224.549 343.459,-205.764"/>
<polygon fill="midnightblue" stroke="midnightblue" points="346.966,-205.835 344.352,-195.568 339.993,-205.224 346.966,-205.835"/>
</g>
<!-- Node6&#45;&gt;Node23 -->
<g id="edge76" class="edge"><title>Node6&#45;&gt;Node23</title>
<path fill="none" stroke="midnightblue" d="M585.231,-304.247C567.501,-288.157 532.74,-257.03 502,-232 489.189,-221.569 474.466,-210.376 462.584,-201.531"/>
<polygon fill="midnightblue" stroke="midnightblue" points="464.621,-198.685 454.501,-195.55 460.457,-204.312 464.621,-198.685"/>
</g>
<!-- Node24 -->
<g id="node54" class="node"><title>Node24</title>
<a xlink:href="shared__ptr__container_8h.html" target="_top" xlink:title="base/std_ext/shared\l_ptr_container.h">
<polygon fill="white" stroke="black" points="738.5,-233 738.5,-267 843.5,-267 843.5,-233 738.5,-233"/>
<text text-anchor="start" x="746.5" y="-254" font-family="Helvetica,sans-Serif" font-size="10.00">base/std_ext/shared</text>
<text text-anchor="middle" x="791" y="-241" font-family="Helvetica,sans-Serif" font-size="10.00">_ptr_container.h</text>
</a>
</g>
<!-- Node6&#45;&gt;Node24 -->
<g id="edge58" class="edge"><title>Node6&#45;&gt;Node24</title>
<path fill="none" stroke="midnightblue" d="M628.169,-304.557C655.66,-295.346 696.508,-281.66 730.413,-270.3"/>
<polygon fill="midnightblue" stroke="midnightblue" points="731.861,-273.506 740.231,-267.01 729.637,-266.869 731.861,-273.506"/>
</g>
<!-- Node6&#45;&gt;Node25 -->
<g id="edge78" class="edge"><title>Node6&#45;&gt;Node25</title>
<path fill="none" stroke="midnightblue" d="M628.053,-312.044C687.465,-305.944 814.645,-290.613 852,-268 877.181,-252.756 896.377,-223.908 907.17,-204.564"/>
<polygon fill="midnightblue" stroke="midnightblue" points="910.287,-206.156 911.908,-195.686 904.112,-202.86 910.287,-206.156"/>
</g>
<!-- Node7&#45;&gt;Node8 -->
<g id="edge16" class="edge"><title>Node7&#45;&gt;Node8</title>
<path fill="none" stroke="midnightblue" d="M449.164,-239.267C466.944,-228.76 494.23,-212.637 514.444,-200.692"/>
<polygon fill="midnightblue" stroke="midnightblue" points="516.345,-203.634 523.174,-195.534 512.784,-197.608 516.345,-203.634"/>
</g>
<!-- Node7&#45;&gt;Node22 -->
<g id="edge50" class="edge"><title>Node7&#45;&gt;Node22</title>
<path fill="none" stroke="midnightblue" d="M416.964,-239.267C403.596,-229.044 383.275,-213.504 367.799,-201.67"/>
<polygon fill="midnightblue" stroke="midnightblue" points="369.845,-198.828 359.775,-195.534 365.592,-204.389 369.845,-198.828"/>
</g>
<!-- Node7&#45;&gt;Node23 -->
<g id="edge52" class="edge"><title>Node7&#45;&gt;Node23</title>
<path fill="none" stroke="midnightblue" d="M432.486,-239.267C433.744,-230.18 435.584,-216.892 437.128,-205.74"/>
<polygon fill="midnightblue" stroke="midnightblue" points="440.637,-205.919 438.541,-195.534 433.703,-204.959 440.637,-205.919"/>
</g>
<!-- Node9 -->
<g id="node19" class="node"><title>Node9</title>
<a xlink:href="bitflag_8h.html" target="_top" xlink:title="base/bitflag.h">
<polygon fill="white" stroke="black" points="320.5,-116.5 320.5,-137.5 395.5,-137.5 395.5,-116.5 320.5,-116.5"/>
<text text-anchor="middle" x="358" y="-124.5" font-family="Helvetica,sans-Serif" font-size="10.00">base/bitflag.h</text>
</a>
</g>
<!-- Node8&#45;&gt;Node9 -->
<g id="edge18" class="edge"><title>Node8&#45;&gt;Node9</title>
<path fill="none" stroke="midnightblue" d="M507.86,-174.497C477.897,-165 433.604,-150.962 400.938,-140.609"/>
<polygon fill="midnightblue" stroke="midnightblue" points="401.792,-137.208 391.202,-137.523 399.677,-143.881 401.792,-137.208"/>
</g>
<!-- Node8&#45;&gt;Node11 -->
<g id="edge22" class="edge"><title>Node8&#45;&gt;Node11</title>
<path fill="none" stroke="midnightblue" d="M493.445,-176.872C487.245,-175.872 480.975,-174.89 475,-174 367.741,-158.026 241.966,-142.179 171.678,-133.581"/>
<polygon fill="midnightblue" stroke="midnightblue" points="172.069,-130.103 161.719,-132.366 171.221,-137.052 172.069,-130.103"/>
</g>
<!-- Node8&#45;&gt;Node15 -->
<g id="edge32" class="edge"><title>Node8&#45;&gt;Node15</title>
<path fill="none" stroke="midnightblue" d="M545.952,-174.362C549.53,-166.677 554.468,-156.069 558.764,-146.84"/>
<polygon fill="midnightblue" stroke="midnightblue" points="562.032,-148.114 563.079,-137.571 555.686,-145.159 562.032,-148.114"/>
</g>
<!-- Node8&#45;&gt;Node17 -->
<g id="edge48" class="edge"><title>Node8&#45;&gt;Node17</title>
<path fill="none" stroke="midnightblue" d="M528.407,-174.283C512.996,-159.89 490.725,-134.043 506,-116 510.027,-111.244 681.951,-84.8348 754.856,-73.823"/>
<polygon fill="midnightblue" stroke="midnightblue" points="755.496,-77.2662 764.863,-72.3144 754.453,-70.3444 755.496,-77.2662"/>
</g>
<!-- Node18 -->
<g id="node39" class="node"><title>Node18</title>
<polygon fill="white" stroke="#bfbfbf" points="413,-116.5 413,-137.5 459,-137.5 459,-116.5 413,-116.5"/>
<text text-anchor="middle" x="436" y="-124.5" font-family="Helvetica,sans-Serif" font-size="10.00">cstdint</text>
</g>
<!-- Node8&#45;&gt;Node18 -->
<g id="edge40" class="edge"><title>Node8&#45;&gt;Node18</title>
<path fill="none" stroke="midnightblue" d="M521.741,-174.362C505.534,-165.409 482.147,-152.491 463.891,-142.406"/>
<polygon fill="midnightblue" stroke="midnightblue" points="465.582,-139.342 455.137,-137.571 462.198,-145.47 465.582,-139.342"/>
</g>
<!-- Node19 -->
<g id="node41" class="node"><title>Node19</title>
<polygon fill="white" stroke="#bfbfbf" points="966.5,-116.5 966.5,-137.5 1025.5,-137.5 1025.5,-116.5 966.5,-116.5"/>
<text text-anchor="middle" x="996" y="-124.5" font-family="Helvetica,sans-Serif" font-size="10.00">stdexcept</text>
</g>
<!-- Node8&#45;&gt;Node19 -->
<g id="edge42" class="edge"><title>Node8&#45;&gt;Node19</title>
<path fill="none" stroke="midnightblue" d="M588.833,-178.903C678.981,-167.411 872.463,-142.748 956.115,-132.084"/>
<polygon fill="midnightblue" stroke="midnightblue" points="956.751,-135.532 966.229,-130.795 955.866,-128.588 956.751,-135.532"/>
</g>
<!-- Node20 -->
<g id="node43" class="node"><title>Node20</title>
<polygon fill="white" stroke="#bfbfbf" points="718.5,-116.5 718.5,-137.5 759.5,-137.5 759.5,-116.5 718.5,-116.5"/>
<text text-anchor="middle" x="739" y="-124.5" font-family="Helvetica,sans-Serif" font-size="10.00">string</text>
</g>
<!-- Node8&#45;&gt;Node20 -->
<g id="edge44" class="edge"><title>Node8&#45;&gt;Node20</title>
<path fill="none" stroke="midnightblue" d="M582.989,-174.462C615.23,-166.116 661.009,-153.716 708.887,-138.192"/>
<polygon fill="midnightblue" stroke="midnightblue" points="710.075,-141.486 718.488,-135.046 707.895,-134.834 710.075,-141.486"/>
</g>
<!-- Node21 -->
<g id="node45" class="node"><title>Node21</title>
<polygon fill="white" stroke="#bfbfbf" points="639,-116.5 639,-137.5 701,-137.5 701,-116.5 639,-116.5"/>
<text text-anchor="middle" x="670" y="-124.5" font-family="Helvetica,sans-Serif" font-size="10.00">type_traits</text>
</g>
<!-- Node8&#45;&gt;Node21 -->
<g id="edge46" class="edge"><title>Node8&#45;&gt;Node21</title>
<path fill="none" stroke="midnightblue" d="M564.361,-174.497C584.691,-165.356 614.378,-152.008 637.109,-141.788"/>
<polygon fill="midnightblue" stroke="midnightblue" points="638.692,-144.914 646.377,-137.621 635.821,-138.53 638.692,-144.914"/>
</g>
<!-- Node10 -->
<g id="node21" class="node"><title>Node10</title>
<polygon fill="white" stroke="#bfbfbf" points="337.5,-58.5 337.5,-79.5 378.5,-79.5 378.5,-58.5 337.5,-58.5"/>
<text text-anchor="middle" x="358" y="-66.5" font-family="Helvetica,sans-Serif" font-size="10.00">bitset</text>
</g>
<!-- Node9&#45;&gt;Node10 -->
<g id="edge20" class="edge"><title>Node9&#45;&gt;Node10</title>
<path fill="none" stroke="midnightblue" d="M358,-116.362C358,-108.922 358,-98.7427 358,-89.7276"/>
<polygon fill="midnightblue" stroke="midnightblue" points="361.5,-89.5706 358,-79.5707 354.5,-89.5707 361.5,-89.5706"/>
</g>
<!-- Node12 -->
<g id="node25" class="node"><title>Node12</title>
<a xlink:href="vec2_8h.html" target="_top" xlink:title="vec2.h">
<polygon fill="white" stroke="black" points="201,-58.5 201,-79.5 247,-79.5 247,-58.5 201,-58.5"/>
<text text-anchor="middle" x="224" y="-66.5" font-family="Helvetica,sans-Serif" font-size="10.00">vec2.h</text>
</a>
</g>
<!-- Node11&#45;&gt;Node12 -->
<g id="edge24" class="edge"><title>Node11&#45;&gt;Node12</title>
<path fill="none" stroke="midnightblue" d="M136.625,-116.362C153.141,-107.409 176.974,-94.4908 195.578,-84.4064"/>
<polygon fill="midnightblue" stroke="midnightblue" points="197.375,-87.4132 204.499,-79.5707 194.04,-81.2592 197.375,-87.4132"/>
</g>
<!-- Node11&#45;&gt;Node13 -->
<g id="edge30" class="edge"><title>Node11&#45;&gt;Node13</title>
<path fill="none" stroke="midnightblue" d="M126.813,-116.07C140.375,-101.436 166.119,-75.3158 192,-58 213.688,-43.4898 240.57,-31.2193 261.147,-22.8581"/>
<polygon fill="midnightblue" stroke="midnightblue" points="262.684,-26.0136 270.691,-19.075 260.105,-19.5061 262.684,-26.0136"/>
</g>
<!-- Node14 -->
<g id="node29" class="node"><title>Node14</title>
<polygon fill="white" stroke="#bfbfbf" points="646,-58.5 646,-79.5 698,-79.5 698,-58.5 646,-58.5"/>
<text text-anchor="middle" x="672" y="-66.5" font-family="Helvetica,sans-Serif" font-size="10.00">ostream</text>
</g>
<!-- Node11&#45;&gt;Node14 -->
<g id="edge28" class="edge"><title>Node11&#45;&gt;Node14</title>
<path fill="none" stroke="midnightblue" d="M161.579,-118.112C166.103,-117.34 170.637,-116.619 175,-116 346.609,-91.6663 553.397,-76.669 635.676,-71.2709"/>
<polygon fill="midnightblue" stroke="midnightblue" points="636.012,-74.7566 645.764,-70.6164 635.558,-67.7713 636.012,-74.7566"/>
</g>
<!-- Node12&#45;&gt;Node13 -->
<g id="edge26" class="edge"><title>Node12&#45;&gt;Node13</title>
<path fill="none" stroke="midnightblue" d="M236.656,-58.3619C246.674,-49.9408 260.867,-38.0105 272.501,-28.2308"/>
<polygon fill="midnightblue" stroke="midnightblue" points="275.022,-30.6844 280.425,-21.5707 270.518,-25.326 275.022,-30.6844"/>
</g>
<!-- Node15&#45;&gt;Node13 -->
<g id="edge34" class="edge"><title>Node15&#45;&gt;Node13</title>
<path fill="none" stroke="midnightblue" d="M542.622,-116.295C492.197,-95.0248 379.524,-47.4974 324.479,-24.2785"/>
<polygon fill="midnightblue" stroke="midnightblue" points="325.788,-21.0318 315.213,-20.37 323.067,-27.4815 325.788,-21.0318"/>
</g>
<!-- Node16 -->
<g id="node35" class="node"><title>Node16</title>
<polygon fill="white" stroke="#bfbfbf" points="1257,-58.5 1257,-79.5 1297,-79.5 1297,-58.5 1257,-58.5"/>
<text text-anchor="middle" x="1277" y="-66.5" font-family="Helvetica,sans-Serif" font-size="10.00">limits</text>
</g>
<!-- Node15&#45;&gt;Node16 -->
<g id="edge36" class="edge"><title>Node15&#45;&gt;Node16</title>
<path fill="none" stroke="midnightblue" d="M621.045,-117.218C624.07,-116.776 627.071,-116.365 630,-116 866.501,-86.5097 1154.12,-73.6583 1246.73,-70.0889"/>
<polygon fill="midnightblue" stroke="midnightblue" points="1246.94,-73.5836 1256.8,-69.7081 1246.68,-66.5886 1246.94,-73.5836"/>
</g>
<!-- Node15&#45;&gt;Node17 -->
<g id="edge38" class="edge"><title>Node15&#45;&gt;Node17</title>
<path fill="none" stroke="midnightblue" d="M607.659,-116.497C649.977,-105.289 716.181,-87.7558 755.209,-77.4195"/>
<polygon fill="midnightblue" stroke="midnightblue" points="756.214,-80.7742 764.985,-74.8306 754.422,-74.0074 756.214,-80.7742"/>
</g>
<!-- Node24&#45;&gt;Node17 -->
<g id="edge60" class="edge"><title>Node24&#45;&gt;Node17</title>
<path fill="none" stroke="midnightblue" d="M797.083,-232.741C800.45,-222.262 804.292,-208.533 806,-196 808.955,-174.322 801.313,-117.646 801,-116 799.32,-107.16 796.642,-97.6083 794.075,-89.4394"/>
<polygon fill="midnightblue" stroke="midnightblue" points="797.311,-88.0765 790.858,-79.6732 790.662,-90.2662 797.311,-88.0765"/>
</g>
<!-- Node24&#45;&gt;Node25 -->
<g id="edge62" class="edge"><title>Node24&#45;&gt;Node25</title>
<path fill="none" stroke="midnightblue" d="M824.105,-232.922C843.691,-222.818 868.295,-210.126 887.261,-200.342"/>
<polygon fill="midnightblue" stroke="midnightblue" points="889.057,-203.354 896.339,-195.658 885.847,-197.133 889.057,-203.354"/>
</g>
<!-- Node26 -->
<g id="node59" class="node"><title>Node26</title>
<polygon fill="white" stroke="#bfbfbf" points="738.5,-174.5 738.5,-195.5 797.5,-195.5 797.5,-174.5 738.5,-174.5"/>
<text text-anchor="middle" x="768" y="-182.5" font-family="Helvetica,sans-Serif" font-size="10.00">functional</text>
</g>
<!-- Node24&#45;&gt;Node26 -->
<g id="edge64" class="edge"><title>Node24&#45;&gt;Node26</title>
<path fill="none" stroke="midnightblue" d="M784.957,-232.922C781.972,-224.487 778.349,-214.248 775.22,-205.403"/>
<polygon fill="midnightblue" stroke="midnightblue" points="778.475,-204.112 771.84,-195.852 771.876,-206.447 778.475,-204.112"/>
</g>
<!-- Node24&#45;&gt;Node27 -->
<g id="edge66" class="edge"><title>Node24&#45;&gt;Node27</title>
<path fill="none" stroke="midnightblue" d="M843.022,-232.922C876.89,-221.804 920.306,-207.551 950.958,-197.488"/>
<polygon fill="midnightblue" stroke="midnightblue" points="952.422,-200.692 960.832,-194.247 950.239,-194.041 952.422,-200.692"/>
</g>
<!-- Node29&#45;&gt;Node14 -->
<g id="edge116" class="edge"><title>Node29&#45;&gt;Node14</title>
<path fill="none" stroke="midnightblue" d="M1687.59,-304.5C1699.08,-296.174 1713.43,-283.397 1720,-268 1726.28,-253.282 1723.99,-247.494 1720,-232 1697.46,-144.485 1641.08,-136.203 1553,-116 1380.2,-76.3652 932.611,-95.5242 756,-80 740.32,-78.6217 723.069,-76.4733 708.301,-74.4396"/>
<polygon fill="midnightblue" stroke="midnightblue" points="708.436,-70.924 698.045,-72.9917 707.458,-77.8553 708.436,-70.924"/>
</g>
<!-- Node29&#45;&gt;Node17 -->
<g id="edge122" class="edge"><title>Node29&#45;&gt;Node17</title>
<path fill="none" stroke="midnightblue" d="M1656.98,-304.318C1646.23,-295.534 1631.65,-282.251 1622,-268 1580.4,-206.568 1615.44,-156.074 1553,-116 1521.68,-95.9005 961.548,-75.0843 819.523,-70.1128"/>
<polygon fill="midnightblue" stroke="midnightblue" points="819.406,-66.6067 809.291,-69.7568 819.163,-73.6024 819.406,-66.6067"/>
</g>
<!-- Node29&#45;&gt;Node20 -->
<g id="edge114" class="edge"><title>Node29&#45;&gt;Node20</title>
<path fill="none" stroke="midnightblue" d="M1646.76,-304.357C1602.56,-284.673 1506.29,-240.511 1429,-196 1413.72,-187.203 1412.68,-179.707 1396,-174 1366.04,-163.747 895.893,-136.041 769.875,-128.768"/>
<polygon fill="midnightblue" stroke="midnightblue" points="769.938,-125.266 759.753,-128.185 769.535,-132.254 769.938,-125.266"/>
</g>
<!-- Node29&#45;&gt;Node28 -->
<g id="edge96" class="edge"><title>Node29&#45;&gt;Node28</title>
<path fill="none" stroke="midnightblue" d="M1722.09,-304.49C1760.12,-295.704 1807.8,-282.335 1822,-268 1838.39,-251.456 1844.1,-224.582 1846.05,-205.914"/>
<polygon fill="midnightblue" stroke="midnightblue" points="1849.56,-206.002 1846.83,-195.763 1842.58,-205.466 1849.56,-206.002"/>
</g>
<!-- Node30 -->
<g id="node80" class="node"><title>Node30</title>
<a xlink:href="interval_8h.html" target="_top" xlink:title="base/interval.h">
<polygon fill="white" stroke="black" points="1631,-239.5 1631,-260.5 1711,-260.5 1711,-239.5 1631,-239.5"/>
<text text-anchor="middle" x="1671" y="-247.5" font-family="Helvetica,sans-Serif" font-size="10.00">base/interval.h</text>
</a>
</g>
<!-- Node29&#45;&gt;Node30 -->
<g id="edge98" class="edge"><title>Node29&#45;&gt;Node30</title>
<path fill="none" stroke="midnightblue" d="M1671,-304.267C1671,-295.18 1671,-281.892 1671,-270.74"/>
<polygon fill="midnightblue" stroke="midnightblue" points="1674.5,-270.534 1671,-260.534 1667.5,-270.534 1674.5,-270.534"/>
</g>
<!-- Node32 -->
<g id="node92" class="node"><title>Node32</title>
<polygon fill="white" stroke="#bfbfbf" points="1868.5,-239.5 1868.5,-260.5 1903.5,-260.5 1903.5,-239.5 1868.5,-239.5"/>
<text text-anchor="middle" x="1886" y="-247.5" font-family="Helvetica,sans-Serif" font-size="10.00">map</text>
</g>
<!-- Node29&#45;&gt;Node32 -->
<g id="edge118" class="edge"><title>Node29&#45;&gt;Node32</title>
<path fill="none" stroke="midnightblue" d="M1723.38,-305.636C1760.89,-297.974 1812.12,-285.529 1855,-268 1856.86,-267.241 1858.74,-266.387 1860.61,-265.474"/>
<polygon fill="midnightblue" stroke="midnightblue" points="1862.55,-268.407 1869.7,-260.591 1859.23,-262.241 1862.55,-268.407"/>
</g>
<!-- Node33 -->
<g id="node94" class="node"><title>Node33</title>
<polygon fill="white" stroke="#bfbfbf" points="1766.5,-239.5 1766.5,-260.5 1813.5,-260.5 1813.5,-239.5 1766.5,-239.5"/>
<text text-anchor="middle" x="1790" y="-247.5" font-family="Helvetica,sans-Serif" font-size="10.00">iterator</text>
</g>
<!-- Node29&#45;&gt;Node33 -->
<g id="edge120" class="edge"><title>Node29&#45;&gt;Node33</title>
<path fill="none" stroke="midnightblue" d="M1690.38,-304.412C1709.75,-293.836 1739.72,-277.465 1761.73,-265.441"/>
<polygon fill="midnightblue" stroke="midnightblue" points="1763.53,-268.449 1770.62,-260.584 1760.17,-262.306 1763.53,-268.449"/>
</g>
<!-- Node30&#45;&gt;Node13 -->
<g id="edge112" class="edge"><title>Node30&#45;&gt;Node13</title>
<path fill="none" stroke="midnightblue" d="M1680.85,-239.344C1693.06,-224.793 1711.29,-197.794 1703,-174 1692.18,-142.931 1685.35,-132.69 1657,-116 1520.74,-35.7922 1463.24,-74.5815 1306,-58 1109.14,-37.2408 476.495,-16.6864 325.557,-11.9949"/>
<polygon fill="midnightblue" stroke="midnightblue" points="325.248,-8.48375 315.144,-11.6727 325.031,-15.4804 325.248,-8.48375"/>
</g>
<!-- Node30&#45;&gt;Node16 -->
<g id="edge106" class="edge"><title>Node30&#45;&gt;Node16</title>
<path fill="none" stroke="midnightblue" d="M1677.49,-239.261C1685.72,-224.15 1697.75,-196.002 1688,-174 1672.44,-138.906 1658.81,-132.192 1624,-116 1567.79,-89.8479 1380.87,-75.533 1307.21,-70.7944"/>
<polygon fill="midnightblue" stroke="midnightblue" points="1307.39,-67.2991 1297.19,-70.1645 1306.95,-74.2853 1307.39,-67.2991"/>
</g>
<!-- Node30&#45;&gt;Node19 -->
<g id="edge104" class="edge"><title>Node30&#45;&gt;Node19</title>
<path fill="none" stroke="midnightblue" d="M1630.95,-241.713C1590.2,-232.685 1525.59,-216.72 1472,-196 1451.98,-188.258 1449.57,-180.149 1429,-174 1355.75,-152.101 1128.07,-135.474 1035.62,-129.453"/>
<polygon fill="midnightblue" stroke="midnightblue" points="1035.75,-125.954 1025.55,-128.804 1035.3,-132.94 1035.75,-125.954"/>
</g>
<!-- Node30&#45;&gt;Node23 -->
<g id="edge110" class="edge"><title>Node30&#45;&gt;Node23</title>
<path fill="none" stroke="midnightblue" d="M1630.69,-248.385C1429.66,-240.302 542.86,-204.308 485,-196 481.992,-195.568 478.892,-195.024 475.793,-194.41"/>
<polygon fill="midnightblue" stroke="midnightblue" points="476.524,-190.988 466.007,-192.266 475.026,-197.826 476.524,-190.988"/>
</g>
<!-- Node30&#45;&gt;Node27 -->
<g id="edge102" class="edge"><title>Node30&#45;&gt;Node27</title>
<path fill="none" stroke="midnightblue" d="M1630.98,-249.496C1530.57,-247.629 1259.91,-238.859 1027.14,-195.886"/>
<polygon fill="midnightblue" stroke="midnightblue" points="1027.61,-192.413 1017.14,-194.013 1026.32,-199.294 1027.61,-192.413"/>
</g>
<!-- Node30&#45;&gt;Node28 -->
<g id="edge100" class="edge"><title>Node30&#45;&gt;Node28</title>
<path fill="none" stroke="midnightblue" d="M1699.67,-239.412C1729.33,-228.458 1775.82,-211.288 1808.63,-199.17"/>
<polygon fill="midnightblue" stroke="midnightblue" points="1810.18,-202.331 1818.34,-195.584 1807.75,-195.765 1810.18,-202.331"/>
</g>
<!-- Node31 -->
<g id="node86" class="node"><title>Node31</title>
<polygon fill="white" stroke="#bfbfbf" points="1630.5,-174.5 1630.5,-195.5 1679.5,-195.5 1679.5,-174.5 1630.5,-174.5"/>
<text text-anchor="middle" x="1655" y="-182.5" font-family="Helvetica,sans-Serif" font-size="10.00">istream</text>
</g>
<!-- Node30&#45;&gt;Node31 -->
<g id="edge108" class="edge"><title>Node30&#45;&gt;Node31</title>
<path fill="none" stroke="midnightblue" d="M1668.36,-239.267C1666.1,-230.085 1662.78,-216.615 1660.02,-205.392"/>
<polygon fill="midnightblue" stroke="midnightblue" points="1663.38,-204.407 1657.59,-195.534 1656.58,-206.08 1663.38,-204.407"/>
</g>
<!-- Node34&#45;&gt;Node17 -->
<g id="edge138" class="edge"><title>Node34&#45;&gt;Node17</title>
<path fill="none" stroke="midnightblue" d="M1173.18,-239.319C1153.32,-213.102 1097.94,-145.564 1034,-116 962.171,-82.7897 868.206,-73.0457 819.479,-70.1869"/>
<polygon fill="midnightblue" stroke="midnightblue" points="819.398,-66.678 809.229,-69.6493 819.032,-73.6684 819.398,-66.678"/>
</g>
<!-- Node34&#45;&gt;Node21 -->
<g id="edge146" class="edge"><title>Node34&#45;&gt;Node21</title>
<path fill="none" stroke="midnightblue" d="M1170.04,-239.397C1151.55,-222.254 1112.25,-188.874 1072,-174 923.453,-119.102 871.11,-165.552 711.495,-137.985"/>
<polygon fill="midnightblue" stroke="midnightblue" points="711.788,-134.481 701.326,-136.154 710.548,-141.37 711.788,-134.481"/>
</g>
<!-- Node34&#45;&gt;Node25 -->
<g id="edge134" class="edge"><title>Node34&#45;&gt;Node25</title>
<path fill="none" stroke="midnightblue" d="M1146.66,-242.722C1103.63,-233.423 1027.44,-216.371 953.286,-196.227"/>
<polygon fill="midnightblue" stroke="midnightblue" points="953.882,-192.762 943.312,-193.496 952.033,-199.513 953.882,-192.762"/>
</g>
<!-- Node34&#45;&gt;Node27 -->
<g id="edge140" class="edge"><title>Node34&#45;&gt;Node27</title>
<path fill="none" stroke="midnightblue" d="M1149.72,-239.412C1116.12,-228.035 1062.7,-209.952 1026.77,-197.788"/>
<polygon fill="midnightblue" stroke="midnightblue" points="1027.73,-194.417 1017.14,-194.525 1025.48,-201.047 1027.73,-194.417"/>
</g>
<!-- Node35 -->
<g id="node99" class="node"><title>Node35</title>
<polygon fill="white" stroke="#bfbfbf" points="1291,-174.5 1291,-195.5 1387,-195.5 1387,-174.5 1291,-174.5"/>
<text text-anchor="middle" x="1339" y="-182.5" font-family="Helvetica,sans-Serif" font-size="10.00">cereal/access.hpp</text>
</g>
<!-- Node34&#45;&gt;Node35 -->
<g id="edge126" class="edge"><title>Node34&#45;&gt;Node35</title>
<path fill="none" stroke="midnightblue" d="M1206.74,-239.412C1233.13,-228.552 1274.38,-211.583 1303.79,-199.484"/>
<polygon fill="midnightblue" stroke="midnightblue" points="1305.36,-202.625 1313.27,-195.584 1302.69,-196.151 1305.36,-202.625"/>
</g>
<!-- Node36 -->
<g id="node101" class="node"><title>Node36</title>
<a xlink:href="variadic_8h.html" target="_top" xlink:title="std_ext/variadic.h">
<polygon fill="white" stroke="black" points="1481,-174.5 1481,-195.5 1575,-195.5 1575,-174.5 1481,-174.5"/>
<text text-anchor="middle" x="1528" y="-182.5" font-family="Helvetica,sans-Serif" font-size="10.00">std_ext/variadic.h</text>
</a>
</g>
<!-- Node34&#45;&gt;Node36 -->
<g id="edge128" class="edge"><title>Node34&#45;&gt;Node36</title>
<path fill="none" stroke="midnightblue" d="M1215.22,-243.59C1274.83,-232.424 1398.26,-209.302 1470.98,-195.681"/>
<polygon fill="midnightblue" stroke="midnightblue" points="1471.71,-199.106 1480.89,-193.825 1470.42,-192.226 1471.71,-199.106"/>
</g>
<!-- Node34&#45;&gt;Node39 -->
<g id="edge136" class="edge"><title>Node34&#45;&gt;Node39</title>
<path fill="none" stroke="midnightblue" d="M1159.5,-239.412C1135.64,-227.661 1097.25,-208.758 1072.58,-196.611"/>
<polygon fill="midnightblue" stroke="midnightblue" points="1074.06,-193.441 1063.55,-192.163 1070.97,-199.721 1074.06,-193.441"/>
</g>
<!-- Node40 -->
<g id="node112" class="node"><title>Node40</title>
<polygon fill="white" stroke="#bfbfbf" points="1156.5,-174.5 1156.5,-195.5 1205.5,-195.5 1205.5,-174.5 1156.5,-174.5"/>
<text text-anchor="middle" x="1181" y="-182.5" font-family="Helvetica,sans-Serif" font-size="10.00">cassert</text>
</g>
<!-- Node34&#45;&gt;Node40 -->
<g id="edge142" class="edge"><title>Node34&#45;&gt;Node40</title>
<path fill="none" stroke="midnightblue" d="M1181,-239.267C1181,-230.18 1181,-216.892 1181,-205.74"/>
<polygon fill="midnightblue" stroke="midnightblue" points="1184.5,-205.534 1181,-195.534 1177.5,-205.534 1184.5,-205.534"/>
</g>
<!-- Node41 -->
<g id="node114" class="node"><title>Node41</title>
<polygon fill="white" stroke="#bfbfbf" points="1222.5,-174.5 1222.5,-195.5 1273.5,-195.5 1273.5,-174.5 1222.5,-174.5"/>
<text text-anchor="middle" x="1248" y="-182.5" font-family="Helvetica,sans-Serif" font-size="10.00">numeric</text>
</g>
<!-- Node34&#45;&gt;Node41 -->
<g id="edge144" class="edge"><title>Node34&#45;&gt;Node41</title>
<path fill="none" stroke="midnightblue" d="M1192.06,-239.267C1202.31,-229.328 1217.73,-214.363 1229.79,-202.664"/>
<polygon fill="midnightblue" stroke="midnightblue" points="1232.4,-205.009 1237.14,-195.534 1227.53,-199.985 1232.4,-205.009"/>
</g>
<!-- Node37 -->
<g id="node103" class="node"><title>Node37</title>
<polygon fill="white" stroke="#bfbfbf" points="1495.5,-116.5 1495.5,-137.5 1544.5,-137.5 1544.5,-116.5 1495.5,-116.5"/>
<text text-anchor="middle" x="1520" y="-124.5" font-family="Helvetica,sans-Serif" font-size="10.00">cstddef</text>
</g>
<!-- Node36&#45;&gt;Node37 -->
<g id="edge130" class="edge"><title>Node36&#45;&gt;Node37</title>
<path fill="none" stroke="midnightblue" d="M1526.53,-174.362C1525.51,-166.922 1524.1,-156.743 1522.86,-147.728"/>
<polygon fill="midnightblue" stroke="midnightblue" points="1526.29,-146.999 1521.46,-137.571 1519.36,-147.955 1526.29,-146.999"/>
</g>
<!-- Node38 -->
<g id="node105" class="node"><title>Node38</title>
<polygon fill="white" stroke="#bfbfbf" points="1440,-116.5 1440,-137.5 1478,-137.5 1478,-116.5 1440,-116.5"/>
<text text-anchor="middle" x="1459" y="-124.5" font-family="Helvetica,sans-Serif" font-size="10.00">tuple</text>
</g>
<!-- Node36&#45;&gt;Node38 -->
<g id="edge132" class="edge"><title>Node36&#45;&gt;Node38</title>
<path fill="none" stroke="midnightblue" d="M1515.34,-174.362C1505.33,-165.941 1491.13,-154.011 1479.5,-144.231"/>
<polygon fill="midnightblue" stroke="midnightblue" points="1481.48,-141.326 1471.58,-137.571 1476.98,-146.684 1481.48,-141.326"/>
</g>
<!-- Node42&#45;&gt;Node11 -->
<g id="edge150" class="edge"><title>Node42&#45;&gt;Node11</title>
<path fill="none" stroke="midnightblue" d="M60.5352,-362.43C69.5372,-324.896 100.067,-197.604 112.083,-147.502"/>
<polygon fill="midnightblue" stroke="midnightblue" points="115.545,-148.071 114.474,-137.531 108.738,-146.439 115.545,-148.071"/>
</g>
<!-- Node45&#45;&gt;Node29 -->
<g id="edge174" class="edge"><title>Node45&#45;&gt;Node29</title>
<path fill="none" stroke="midnightblue" d="M1638.34,-362.362C1643.81,-354.431 1651.42,-343.389 1657.92,-333.961"/>
<polygon fill="midnightblue" stroke="midnightblue" points="1660.91,-335.79 1663.71,-325.571 1655.15,-331.816 1660.91,-335.79"/>
</g>
<!-- Node45&#45;&gt;Node32 -->
<g id="edge178" class="edge"><title>Node45&#45;&gt;Node32</title>
<path fill="none" stroke="midnightblue" d="M1654.34,-362.323C1674.85,-352.894 1705.49,-338.707 1732,-326 1776.64,-304.603 1828.15,-278.992 1858.85,-263.634"/>
<polygon fill="midnightblue" stroke="midnightblue" points="1860.67,-266.634 1868.05,-259.026 1857.54,-260.376 1860.67,-266.634"/>
</g>
<!-- Node45&#45;&gt;Node34 -->
<g id="edge176" class="edge"><title>Node45&#45;&gt;Node34</title>
<path fill="none" stroke="midnightblue" d="M1592.24,-362.407C1508.8,-339.598 1312.59,-285.969 1224.8,-261.973"/>
<polygon fill="midnightblue" stroke="midnightblue" points="1225.72,-258.594 1215.15,-259.334 1223.87,-265.347 1225.72,-258.594"/>
</g>
</g>
</svg>
