<?xml version="1.0" encoding="UTF-8" standalone="no"?>
<!DOCTYPE svg PUBLIC "-//W3C//DTD SVG 1.1//EN"
 "http://www.w3.org/Graphics/SVG/1.1/DTD/svg11.dtd">
<!-- Generated by graphviz version 2.26.3 (20100126.1600)
 -->
<!-- Title: src/analysis/utils/fitter/TreeFitter.h Pages: 1 -->
<svg width="2830pt" height="284pt"
 viewBox="0.00 0.00 2830.00 284.00" xmlns="http://www.w3.org/2000/svg" xmlns:xlink="http://www.w3.org/1999/xlink">
<g id="graph1" class="graph" transform="scale(1 1) rotate(0) translate(4 280)">
<title>src/analysis/utils/fitter/TreeFitter.h</title>
<polygon fill="white" stroke="white" points="-4,5 -4,-280 2827,-280 2827,5 -4,5"/>
<!-- Node46 -->
<g id="node1" class="node"><title>Node46</title>
<polygon fill="#bfbfbf" stroke="black" points="1523,-241 1523,-275 1615,-275 1615,-241 1523,-241"/>
<text text-anchor="start" x="1531" y="-262" font-family="Helvetica,sans-Serif" font-size="10.00">src/analysis/utils</text>
<text text-anchor="middle" x="1569" y="-249" font-family="Helvetica,sans-Serif" font-size="10.00">/fitter/TreeFitter.h</text>
</g>
<!-- Node47 -->
<g id="node3" class="node"><title>Node47</title>
<a xlink:href="_p_i_d___t_a_p_s_veto___kinfit_8h.html" target="_top" xlink:title="src/analysis/physics\l/calibration/PID_TAPSVeto\l_Kinfit.h">
<polygon fill="white" stroke="black" points="88,-156.5 88,-203.5 224,-203.5 224,-156.5 88,-156.5"/>
<text text-anchor="start" x="96" y="-190.5" font-family="Helvetica,sans-Serif" font-size="10.00">src/analysis/physics</text>
<text text-anchor="start" x="96" y="-177.5" font-family="Helvetica,sans-Serif" font-size="10.00">/calibration/PID_TAPSVeto</text>
<text text-anchor="middle" x="156" y="-164.5" font-family="Helvetica,sans-Serif" font-size="10.00">_Kinfit.h</text>
</a>
</g>
<!-- Node46&#45;&gt;Node47 -->
<g id="edge2" class="edge"><title>Node46&#45;&gt;Node47</title>
<path fill="none" stroke="midnightblue" d="M1512.93,-257.593C1336.92,-255.885 779.856,-247.187 321,-204 289.01,-200.989 253.741,-196.077 224.05,-191.479"/>
<polygon fill="midnightblue" stroke="midnightblue" points="1512.96,-261.094 1522.99,-257.687 1513.02,-254.094 1512.96,-261.094"/>
</g>
<!-- Node49 -->
<g id="node7" class="node"><title>Node49</title>
<a xlink:href="_meson_dalitz_decays_8h.html" target="_top" xlink:title="src/analysis/physics\l/common/MesonDalitzDecays.h">
<polygon fill="white" stroke="black" points="329.5,-163 329.5,-197 486.5,-197 486.5,-163 329.5,-163"/>
<text text-anchor="start" x="337.5" y="-184" font-family="Helvetica,sans-Serif" font-size="10.00">src/analysis/physics</text>
<text text-anchor="middle" x="408" y="-171" font-family="Helvetica,sans-Serif" font-size="10.00">/common/MesonDalitzDecays.h</text>
</a>
</g>
<!-- Node46&#45;&gt;Node49 -->
<g id="edge6" class="edge"><title>Node46&#45;&gt;Node49</title>
<path fill="none" stroke="midnightblue" d="M1512.78,-255.929C1365.63,-250.266 957.113,-232.982 618,-204 574.491,-200.282 526.055,-194.834 486.674,-190.069"/>
<polygon fill="midnightblue" stroke="midnightblue" points="1512.79,-259.432 1522.91,-256.317 1513.06,-252.437 1512.79,-259.432"/>
</g>
<!-- Node52 -->
<g id="node13" class="node"><title>Node52</title>
<a xlink:href="etaprime__dalitz_8h.html" target="_top" xlink:title="src/analysis/physics\l/etaprime/etaprime_dalitz.h">
<polygon fill="white" stroke="black" points="627,-163 627,-197 761,-197 761,-163 627,-163"/>
<text text-anchor="start" x="635" y="-184" font-family="Helvetica,sans-Serif" font-size="10.00">src/analysis/physics</text>
<text text-anchor="middle" x="694" y="-171" font-family="Helvetica,sans-Serif" font-size="10.00">/etaprime/etaprime_dalitz.h</text>
</a>
</g>
<!-- Node46&#45;&gt;Node52 -->
<g id="edge12" class="edge"><title>Node46&#45;&gt;Node52</title>
<path fill="none" stroke="midnightblue" d="M1512.64,-253.972C1398.45,-245.684 1131.66,-225.672 908,-204 858.881,-199.24 803.52,-193.008 761.413,-188.088"/>
<polygon fill="midnightblue" stroke="midnightblue" points="1512.65,-257.482 1522.88,-254.713 1513.16,-250.5 1512.65,-257.482"/>
</g>
<!-- Node55 -->
<g id="node19" class="node"><title>Node55</title>
<a xlink:href="_etap_omega_g_8h.html" target="_top" xlink:title="src/analysis/physics\l/etaprime/EtapOmegaG.h">
<polygon fill="white" stroke="black" points="917,-163 917,-197 1045,-197 1045,-163 917,-163"/>
<text text-anchor="start" x="925" y="-184" font-family="Helvetica,sans-Serif" font-size="10.00">src/analysis/physics</text>
<text text-anchor="middle" x="981" y="-171" font-family="Helvetica,sans-Serif" font-size="10.00">/etaprime/EtapOmegaG.h</text>
</a>
</g>
<!-- Node46&#45;&gt;Node55 -->
<g id="edge18" class="edge"><title>Node46&#45;&gt;Node55</title>
<path fill="none" stroke="midnightblue" d="M1512.66,-256.017C1417.28,-251.79 1218.33,-239.206 1054,-204 1045.52,-202.183 1036.64,-199.742 1028.11,-197.11"/>
<polygon fill="midnightblue" stroke="midnightblue" points="1512.53,-259.515 1522.67,-256.447 1512.83,-252.521 1512.53,-259.515"/>
</g>
<!-- Node58 -->
<g id="node25" class="node"><title>Node58</title>
<a xlink:href="_etap_omega_g__simple_8cc.html" target="_top" xlink:title="src/analysis/physics\l/etaprime/EtapOmegaG\l_simple.cc">
<polygon fill="white" stroke="black" points="1062.5,-156.5 1062.5,-203.5 1181.5,-203.5 1181.5,-156.5 1062.5,-156.5"/>
<text text-anchor="start" x="1070.5" y="-190.5" font-family="Helvetica,sans-Serif" font-size="10.00">src/analysis/physics</text>
<text text-anchor="start" x="1070.5" y="-177.5" font-family="Helvetica,sans-Serif" font-size="10.00">/etaprime/EtapOmegaG</text>
<text text-anchor="middle" x="1122" y="-164.5" font-family="Helvetica,sans-Serif" font-size="10.00">_simple.cc</text>
</a>
</g>
<!-- Node46&#45;&gt;Node58 -->
<g id="edge24" class="edge"><title>Node46&#45;&gt;Node58</title>
<path fill="none" stroke="midnightblue" d="M1512.83,-253.495C1438.25,-246.721 1302.82,-231.659 1190,-204 1187.2,-203.314 1184.36,-202.558 1181.5,-201.75"/>
<polygon fill="midnightblue" stroke="midnightblue" points="1512.67,-256.994 1522.94,-254.396 1513.29,-250.022 1512.67,-256.994"/>
</g>
<!-- Node59 -->
<g id="node27" class="node"><title>Node59</title>
<a xlink:href="etaprime-3pi0_8h.html" target="_top" xlink:title="src/analysis/physics\l/etaprime/etaprime&#45;3pi0.h">
<polygon fill="white" stroke="black" points="1198.5,-163 1198.5,-197 1325.5,-197 1325.5,-163 1198.5,-163"/>
<text text-anchor="start" x="1206.5" y="-184" font-family="Helvetica,sans-Serif" font-size="10.00">src/analysis/physics</text>
<text text-anchor="middle" x="1262" y="-171" font-family="Helvetica,sans-Serif" font-size="10.00">/etaprime/etaprime&#45;3pi0.h</text>
</a>
</g>
<!-- Node46&#45;&gt;Node59 -->
<g id="edge26" class="edge"><title>Node46&#45;&gt;Node59</title>
<path fill="none" stroke="midnightblue" d="M1512.88,-246.687C1465.03,-236.665 1394.58,-221.014 1334,-204 1326.52,-201.898 1318.66,-199.49 1310.99,-197.029"/>
<polygon fill="midnightblue" stroke="midnightblue" points="1512.24,-250.127 1522.74,-248.739 1513.66,-243.274 1512.24,-250.127"/>
</g>
<!-- Node61 -->
<g id="node31" class="node"><title>Node61</title>
<a xlink:href="_find_proton_8h.html" target="_top" xlink:title="src/analysis/physics\l/omega/FindProton.h">
<polygon fill="white" stroke="black" points="1342.5,-163 1342.5,-197 1449.5,-197 1449.5,-163 1342.5,-163"/>
<text text-anchor="start" x="1350.5" y="-184" font-family="Helvetica,sans-Serif" font-size="10.00">src/analysis/physics</text>
<text text-anchor="middle" x="1396" y="-171" font-family="Helvetica,sans-Serif" font-size="10.00">/omega/FindProton.h</text>
</a>
</g>
<!-- Node46&#45;&gt;Node61 -->
<g id="edge30" class="edge"><title>Node46&#45;&gt;Node61</title>
<path fill="none" stroke="midnightblue" d="M1521.58,-236.619C1493.98,-224.175 1459.66,-208.702 1433.88,-197.078"/>
<polygon fill="midnightblue" stroke="midnightblue" points="1520.48,-239.963 1531.03,-240.883 1523.36,-233.582 1520.48,-239.963"/>
</g>
<!-- Node63 -->
<g id="node35" class="node"><title>Node63</title>
<a xlink:href="_omega___eta_g_8h.html" target="_top" xlink:title="src/analysis/physics\l/omega/Omega_EtaG.h">
<polygon fill="white" stroke="black" points="1466.5,-163 1466.5,-197 1585.5,-197 1585.5,-163 1466.5,-163"/>
<text text-anchor="start" x="1474.5" y="-184" font-family="Helvetica,sans-Serif" font-size="10.00">src/analysis/physics</text>
<text text-anchor="middle" x="1526" y="-171" font-family="Helvetica,sans-Serif" font-size="10.00">/omega/Omega_EtaG.h</text>
</a>
</g>
<!-- Node46&#45;&gt;Node63 -->
<g id="edge34" class="edge"><title>Node46&#45;&gt;Node63</title>
<path fill="none" stroke="midnightblue" d="M1554.47,-231.635C1548.21,-220.293 1541.08,-207.352 1535.52,-197.262"/>
<polygon fill="midnightblue" stroke="midnightblue" points="1551.56,-233.622 1559.46,-240.689 1557.69,-230.242 1551.56,-233.622"/>
</g>
<!-- Node65 -->
<g id="node39" class="node"><title>Node65</title>
<a xlink:href="pi0eta_8h.html" target="_top" xlink:title="src/analysis/physics\l/omega/pi0eta.h">
<polygon fill="white" stroke="black" points="1490,-79 1490,-113 1596,-113 1596,-79 1490,-79"/>
<text text-anchor="start" x="1498" y="-100" font-family="Helvetica,sans-Serif" font-size="10.00">src/analysis/physics</text>
<text text-anchor="middle" x="1543" y="-87" font-family="Helvetica,sans-Serif" font-size="10.00">/omega/pi0eta.h</text>
</a>
</g>
<!-- Node46&#45;&gt;Node65 -->
<g id="edge42" class="edge"><title>Node46&#45;&gt;Node65</title>
<path fill="none" stroke="midnightblue" d="M1583.99,-231.481C1593.77,-210.605 1603.18,-180.967 1594,-156 1587.87,-139.319 1574.81,-124.107 1563.45,-113.174"/>
<polygon fill="midnightblue" stroke="midnightblue" points="1580.73,-230.177 1579.38,-240.686 1586.99,-233.309 1580.73,-230.177"/>
</g>
<!-- Node67 -->
<g id="node44" class="node"><title>Node67</title>
<a xlink:href="_just_pi0_8h.html" target="_top" xlink:title="src/analysis/physics\l/pi0/JustPi0.h">
<polygon fill="white" stroke="black" points="1641,-163 1641,-197 1747,-197 1747,-163 1641,-163"/>
<text text-anchor="start" x="1649" y="-184" font-family="Helvetica,sans-Serif" font-size="10.00">src/analysis/physics</text>
<text text-anchor="middle" x="1694" y="-171" font-family="Helvetica,sans-Serif" font-size="10.00">/pi0/JustPi0.h</text>
</a>
</g>
<!-- Node46&#45;&gt;Node67 -->
<g id="edge44" class="edge"><title>Node46&#45;&gt;Node67</title>
<path fill="none" stroke="midnightblue" d="M1605.11,-235.469C1624.72,-223.233 1648.57,-208.347 1666.63,-197.078"/>
<polygon fill="midnightblue" stroke="midnightblue" points="1603.06,-232.619 1596.43,-240.883 1606.77,-238.558 1603.06,-232.619"/>
</g>
<!-- Node70 -->
<g id="node50" class="node"><title>Node70</title>
<a xlink:href="single_pi0_8h.html" target="_top" xlink:title="src/analysis/physics\l/production/singlePi0.h">
<polygon fill="white" stroke="black" points="1898,-163 1898,-197 2014,-197 2014,-163 1898,-163"/>
<text text-anchor="start" x="1906" y="-184" font-family="Helvetica,sans-Serif" font-size="10.00">src/analysis/physics</text>
<text text-anchor="middle" x="1956" y="-171" font-family="Helvetica,sans-Serif" font-size="10.00">/production/singlePi0.h</text>
</a>
</g>
<!-- Node46&#45;&gt;Node70 -->
<g id="edge50" class="edge"><title>Node46&#45;&gt;Node70</title>
<path fill="none" stroke="midnightblue" d="M1625.2,-246.672C1698.02,-231.997 1824.32,-206.54 1898,-191.69"/>
<polygon fill="midnightblue" stroke="midnightblue" points="1624.41,-243.262 1615.3,-248.669 1625.79,-250.124 1624.41,-243.262"/>
</g>
<!-- Node73 -->
<g id="node56" class="node"><title>Node73</title>
<a xlink:href="triple_pi0_8h.html" target="_top" xlink:title="src/analysis/physics\l/production/triplePi0.h">
<polygon fill="white" stroke="black" points="2113.5,-163 2113.5,-197 2224.5,-197 2224.5,-163 2113.5,-163"/>
<text text-anchor="start" x="2121.5" y="-184" font-family="Helvetica,sans-Serif" font-size="10.00">src/analysis/physics</text>
<text text-anchor="middle" x="2169" y="-171" font-family="Helvetica,sans-Serif" font-size="10.00">/production/triplePi0.h</text>
</a>
</g>
<!-- Node46&#45;&gt;Node73 -->
<g id="edge56" class="edge"><title>Node46&#45;&gt;Node73</title>
<path fill="none" stroke="midnightblue" d="M1625.22,-252.128C1711.11,-242.973 1880.08,-224.237 2023,-204 2052.88,-199.769 2086.09,-194.365 2113.28,-189.758"/>
<polygon fill="midnightblue" stroke="midnightblue" points="1624.74,-248.659 1615.17,-253.196 1625.48,-255.62 1624.74,-248.659"/>
</g>
<!-- Node77 -->
<g id="node64" class="node"><title>Node77</title>
<a xlink:href="_proton_vertex_test_8h.html" target="_top" xlink:title="src/analysis/physics\l/scratch/wolfes/ProtonVertex\lTest.h">
<polygon fill="white" stroke="black" points="2241.5,-156.5 2241.5,-203.5 2384.5,-203.5 2384.5,-156.5 2241.5,-156.5"/>
<text text-anchor="start" x="2249.5" y="-190.5" font-family="Helvetica,sans-Serif" font-size="10.00">src/analysis/physics</text>
<text text-anchor="start" x="2249.5" y="-177.5" font-family="Helvetica,sans-Serif" font-size="10.00">/scratch/wolfes/ProtonVertex</text>
<text text-anchor="middle" x="2313" y="-164.5" font-family="Helvetica,sans-Serif" font-size="10.00">Test.h</text>
</a>
</g>
<!-- Node46&#45;&gt;Node77 -->
<g id="edge64" class="edge"><title>Node46&#45;&gt;Node77</title>
<path fill="none" stroke="midnightblue" d="M1625.84,-254.919C1764.47,-247.154 2117.11,-225.845 2233,-204 2235.71,-203.49 2238.45,-202.923 2241.22,-202.311"/>
<polygon fill="midnightblue" stroke="midnightblue" points="1625.24,-251.447 1615.45,-255.498 1625.63,-258.436 1625.24,-251.447"/>
</g>
<!-- Node78 -->
<g id="node67" class="node"><title>Node78</title>
<a xlink:href="_test_sigma_plus_fitter_8h.html" target="_top" xlink:title="src/analysis/physics\l/test/TestSigmaPlusFitter.h">
<polygon fill="white" stroke="black" points="2401.5,-163 2401.5,-197 2538.5,-197 2538.5,-163 2401.5,-163"/>
<text text-anchor="start" x="2409.5" y="-184" font-family="Helvetica,sans-Serif" font-size="10.00">src/analysis/physics</text>
<text text-anchor="middle" x="2470" y="-171" font-family="Helvetica,sans-Serif" font-size="10.00">/test/TestSigmaPlusFitter.h</text>
</a>
</g>
<!-- Node46&#45;&gt;Node78 -->
<g id="edge68" class="edge"><title>Node46&#45;&gt;Node78</title>
<path fill="none" stroke="midnightblue" d="M1625.17,-256.052C1785.81,-250.205 2245.08,-231.497 2393,-204 2402.36,-202.26 2412.18,-199.751 2421.56,-197.004"/>
<polygon fill="midnightblue" stroke="midnightblue" points="1624.89,-252.559 1615.02,-256.418 1625.14,-259.555 1624.89,-252.559"/>
</g>
<!-- Node80 -->
<g id="node71" class="node"><title>Node80</title>
<a xlink:href="_tree_fitter_8cc.html" target="_top" xlink:title="src/analysis/utils\l/fitter/TreeFitter.cc">
<polygon fill="white" stroke="black" points="2556,-163 2556,-197 2654,-197 2654,-163 2556,-163"/>
<text text-anchor="start" x="2564" y="-184" font-family="Helvetica,sans-Serif" font-size="10.00">src/analysis/utils</text>
<text text-anchor="middle" x="2605" y="-171" font-family="Helvetica,sans-Serif" font-size="10.00">/fitter/TreeFitter.cc</text>
</a>
</g>
<!-- Node46&#45;&gt;Node80 -->
<g id="edge72" class="edge"><title>Node46&#45;&gt;Node80</title>
<path fill="none" stroke="midnightblue" d="M1625.08,-257.376C1805.52,-254.979 2369.61,-244.368 2547,-204 2554.33,-202.332 2561.92,-199.819 2569.11,-197.039"/>
<polygon fill="midnightblue" stroke="midnightblue" points="1624.97,-253.877 1615.01,-257.506 1625.06,-260.876 1624.97,-253.877"/>
</g>
<!-- Node81 -->
<g id="node73" class="node"><title>Node81</title>
<a xlink:href="_test_tree_fitter_8cc.html" target="_top" xlink:title="test/analysis/TestTreeFitter.cc">
<polygon fill="white" stroke="black" points="2672,-169.5 2672,-190.5 2822,-190.5 2822,-169.5 2672,-169.5"/>
<text text-anchor="middle" x="2747" y="-177.5" font-family="Helvetica,sans-Serif" font-size="10.00">test/analysis/TestTreeFitter.cc</text>
</a>
</g>
<!-- Node46&#45;&gt;Node81 -->
<g id="edge74" class="edge"><title>Node46&#45;&gt;Node81</title>
<path fill="none" stroke="midnightblue" d="M1625.54,-256.918C1819.97,-252.931 2460.24,-237.515 2663,-204 2680.96,-201.032 2700.54,-195.573 2716.27,-190.611"/>
<polygon fill="midnightblue" stroke="midnightblue" points="1625.19,-253.424 1615.27,-257.127 1625.33,-260.423 1625.19,-253.424"/>
</g>
<!-- Node48 -->
<g id="node5" class="node"><title>Node48</title>
<a xlink:href="_p_i_d___t_a_p_s_veto___kinfit_8cc.html" target="_top" xlink:title="src/analysis/physics\l/calibration/PID_TAPSVeto\l_Kinfit.cc">
<polygon fill="white" stroke="black" points="0,-72.5 0,-119.5 136,-119.5 136,-72.5 0,-72.5"/>
<text text-anchor="start" x="8" y="-106.5" font-family="Helvetica,sans-Serif" font-size="10.00">src/analysis/physics</text>
<text text-anchor="start" x="8" y="-93.5" font-family="Helvetica,sans-Serif" font-size="10.00">/calibration/PID_TAPSVeto</text>
<text text-anchor="middle" x="68" y="-80.5" font-family="Helvetica,sans-Serif" font-size="10.00">_Kinfit.cc</text>
</a>
</g>
<!-- Node47&#45;&gt;Node48 -->
<g id="edge4" class="edge"><title>Node47&#45;&gt;Node48</title>
<path fill="none" stroke="midnightblue" d="M123.759,-149.225C113.52,-139.451 102.364,-128.802 92.7398,-119.615"/>
<polygon fill="midnightblue" stroke="midnightblue" points="121.368,-151.781 131.018,-156.154 126.201,-146.717 121.368,-151.781"/>
</g>
<!-- Node50 -->
<g id="node9" class="node"><title>Node50</title>
<a xlink:href="_meson_dalitz_decays_8cc.html" target="_top" xlink:title="Physics class to investigate Dalitz decays for different mesons. ">
<polygon fill="white" stroke="black" points="154,-79 154,-113 316,-113 316,-79 154,-79"/>
<text text-anchor="start" x="162" y="-100" font-family="Helvetica,sans-Serif" font-size="10.00">src/analysis/physics</text>
<text text-anchor="middle" x="235" y="-87" font-family="Helvetica,sans-Serif" font-size="10.00">/common/MesonDalitzDecays.cc</text>
</a>
</g>
<!-- Node49&#45;&gt;Node50 -->
<g id="edge8" class="edge"><title>Node49&#45;&gt;Node50</title>
<path fill="none" stroke="midnightblue" d="M363.458,-158.373C334.406,-144.267 297.023,-126.115 270.083,-113.035"/>
<polygon fill="midnightblue" stroke="midnightblue" points="362.049,-161.579 372.573,-162.799 365.106,-155.282 362.049,-161.579"/>
</g>
<!-- Node51 -->
<g id="node11" class="node"><title>Node51</title>
<a xlink:href="_meson_dalitz_decays__plot_8cc.html" target="_top" xlink:title="src/analysis/physics\l/common/MesonDalitzDecays\l_plot.cc">
<polygon fill="white" stroke="black" points="333.5,-72.5 333.5,-119.5 482.5,-119.5 482.5,-72.5 333.5,-72.5"/>
<text text-anchor="start" x="341.5" y="-106.5" font-family="Helvetica,sans-Serif" font-size="10.00">src/analysis/physics</text>
<text text-anchor="start" x="341.5" y="-93.5" font-family="Helvetica,sans-Serif" font-size="10.00">/common/MesonDalitzDecays</text>
<text text-anchor="middle" x="408" y="-80.5" font-family="Helvetica,sans-Serif" font-size="10.00">_plot.cc</text>
</a>
</g>
<!-- Node49&#45;&gt;Node51 -->
<g id="edge10" class="edge"><title>Node49&#45;&gt;Node51</title>
<path fill="none" stroke="midnightblue" d="M408,-152.587C408,-141.989 408,-129.976 408,-119.753"/>
<polygon fill="midnightblue" stroke="midnightblue" points="404.5,-152.595 408,-162.595 411.5,-152.595 404.5,-152.595"/>
</g>
<!-- Node53 -->
<g id="node15" class="node"><title>Node53</title>
<a xlink:href="_etap_dalitz__plot_8cc.html" target="_top" xlink:title="src/analysis/physics\l/etaprime/EtapDalitz\l_plot.cc">
<polygon fill="white" stroke="black" points="500,-72.5 500,-119.5 606,-119.5 606,-72.5 500,-72.5"/>
<text text-anchor="start" x="508" y="-106.5" font-family="Helvetica,sans-Serif" font-size="10.00">src/analysis/physics</text>
<text text-anchor="start" x="508" y="-93.5" font-family="Helvetica,sans-Serif" font-size="10.00">/etaprime/EtapDalitz</text>
<text text-anchor="middle" x="553" y="-80.5" font-family="Helvetica,sans-Serif" font-size="10.00">_plot.cc</text>
</a>
</g>
<!-- Node52&#45;&gt;Node53 -->
<g id="edge14" class="edge"><title>Node52&#45;&gt;Node53</title>
<path fill="none" stroke="midnightblue" d="M656.406,-157.604C636.682,-145.853 612.528,-131.463 592.525,-119.547"/>
<polygon fill="midnightblue" stroke="midnightblue" points="654.744,-160.687 665.126,-162.799 658.327,-154.674 654.744,-160.687"/>
</g>
<!-- Node54 -->
<g id="node17" class="node"><title>Node54</title>
<a xlink:href="etaprime__dalitz_8cc.html" target="_top" xlink:title="src/analysis/physics\l/etaprime/etaprime_dalitz.cc">
<polygon fill="white" stroke="black" points="624,-79 624,-113 764,-113 764,-79 624,-79"/>
<text text-anchor="start" x="632" y="-100" font-family="Helvetica,sans-Serif" font-size="10.00">src/analysis/physics</text>
<text text-anchor="middle" x="694" y="-87" font-family="Helvetica,sans-Serif" font-size="10.00">/etaprime/etaprime_dalitz.cc</text>
</a>
</g>
<!-- Node52&#45;&gt;Node54 -->
<g id="edge16" class="edge"><title>Node52&#45;&gt;Node54</title>
<path fill="none" stroke="midnightblue" d="M694,-152.33C694,-139.38 694,-124.365 694,-113.095"/>
<polygon fill="midnightblue" stroke="midnightblue" points="690.5,-152.595 694,-162.595 697.5,-152.595 690.5,-152.595"/>
</g>
<!-- Node56 -->
<g id="node21" class="node"><title>Node56</title>
<a xlink:href="_etap_omega_g_8cc.html" target="_top" xlink:title="src/analysis/physics\l/etaprime/EtapOmegaG.cc">
<polygon fill="white" stroke="black" points="781.5,-79 781.5,-113 914.5,-113 914.5,-79 781.5,-79"/>
<text text-anchor="start" x="789.5" y="-100" font-family="Helvetica,sans-Serif" font-size="10.00">src/analysis/physics</text>
<text text-anchor="middle" x="848" y="-87" font-family="Helvetica,sans-Serif" font-size="10.00">/etaprime/EtapOmegaG.cc</text>
</a>
</g>
<!-- Node55&#45;&gt;Node56 -->
<g id="edge20" class="edge"><title>Node55&#45;&gt;Node56</title>
<path fill="none" stroke="midnightblue" d="M945.034,-157.284C923.043,-143.395 895.362,-125.913 875.199,-113.178"/>
<polygon fill="midnightblue" stroke="midnightblue" points="943.441,-160.418 953.765,-162.799 947.179,-154.499 943.441,-160.418"/>
</g>
<!-- Node57 -->
<g id="node23" class="node"><title>Node57</title>
<a xlink:href="_etap_omega_g__plot_8cc.html" target="_top" xlink:title="src/analysis/physics\l/etaprime/EtapOmegaG\l_plot.cc">
<polygon fill="white" stroke="black" points="931.5,-72.5 931.5,-119.5 1050.5,-119.5 1050.5,-72.5 931.5,-72.5"/>
<text text-anchor="start" x="939.5" y="-106.5" font-family="Helvetica,sans-Serif" font-size="10.00">src/analysis/physics</text>
<text text-anchor="start" x="939.5" y="-93.5" font-family="Helvetica,sans-Serif" font-size="10.00">/etaprime/EtapOmegaG</text>
<text text-anchor="middle" x="991" y="-80.5" font-family="Helvetica,sans-Serif" font-size="10.00">_plot.cc</text>
</a>
</g>
<!-- Node55&#45;&gt;Node57 -->
<g id="edge22" class="edge"><title>Node55&#45;&gt;Node57</title>
<path fill="none" stroke="midnightblue" d="M984.263,-152.587C985.525,-141.989 986.955,-129.976 988.172,-119.753"/>
<polygon fill="midnightblue" stroke="midnightblue" points="980.779,-152.251 983.072,-162.595 987.73,-153.079 980.779,-152.251"/>
</g>
<!-- Node60 -->
<g id="node29" class="node"><title>Node60</title>
<a xlink:href="etaprime-3pi0_8cc.html" target="_top" xlink:title="src/analysis/physics\l/etaprime/etaprime&#45;3pi0.cc">
<polygon fill="white" stroke="black" points="1068,-79 1068,-113 1200,-113 1200,-79 1068,-79"/>
<text text-anchor="start" x="1076" y="-100" font-family="Helvetica,sans-Serif" font-size="10.00">src/analysis/physics</text>
<text text-anchor="middle" x="1134" y="-87" font-family="Helvetica,sans-Serif" font-size="10.00">/etaprime/etaprime&#45;3pi0.cc</text>
</a>
</g>
<!-- Node59&#45;&gt;Node60 -->
<g id="edge28" class="edge"><title>Node59&#45;&gt;Node60</title>
<path fill="none" stroke="midnightblue" d="M1227.39,-157.284C1206.22,-143.395 1179.58,-125.913 1160.18,-113.178"/>
<polygon fill="midnightblue" stroke="midnightblue" points="1225.51,-160.238 1235.79,-162.799 1229.35,-154.386 1225.51,-160.238"/>
</g>
<!-- Node62 -->
<g id="node33" class="node"><title>Node62</title>
<a xlink:href="_find_proton_8cc.html" target="_top" xlink:title="src/analysis/physics\l/omega/FindProton.cc">
<polygon fill="white" stroke="black" points="1217.5,-79 1217.5,-113 1330.5,-113 1330.5,-79 1217.5,-79"/>
<text text-anchor="start" x="1225.5" y="-100" font-family="Helvetica,sans-Serif" font-size="10.00">src/analysis/physics</text>
<text text-anchor="middle" x="1274" y="-87" font-family="Helvetica,sans-Serif" font-size="10.00">/omega/FindProton.cc</text>
</a>
</g>
<!-- Node61&#45;&gt;Node62 -->
<g id="edge32" class="edge"><title>Node61&#45;&gt;Node62</title>
<path fill="none" stroke="midnightblue" d="M1362.74,-157.099C1342.61,-143.24 1317.36,-125.856 1298.95,-113.178"/>
<polygon fill="midnightblue" stroke="midnightblue" points="1360.8,-160.01 1371.02,-162.799 1364.77,-154.245 1360.8,-160.01"/>
</g>
<!-- Node64 -->
<g id="node37" class="node"><title>Node64</title>
<a xlink:href="_omega___eta_g_8cc.html" target="_top" xlink:title="src/analysis/physics\l/omega/Omega_EtaG.cc">
<polygon fill="white" stroke="black" points="1347.5,-79 1347.5,-113 1472.5,-113 1472.5,-79 1347.5,-79"/>
<text text-anchor="start" x="1355.5" y="-100" font-family="Helvetica,sans-Serif" font-size="10.00">src/analysis/physics</text>
<text text-anchor="middle" x="1410" y="-87" font-family="Helvetica,sans-Serif" font-size="10.00">/omega/Omega_EtaG.cc</text>
</a>
</g>
<!-- Node63&#45;&gt;Node64 -->
<g id="edge36" class="edge"><title>Node63&#45;&gt;Node64</title>
<path fill="none" stroke="midnightblue" d="M1494.12,-156.913C1475.02,-143.085 1451.15,-125.8 1433.72,-113.178"/>
<polygon fill="midnightblue" stroke="midnightblue" points="1492.09,-159.768 1502.25,-162.799 1496.2,-154.099 1492.09,-159.768"/>
</g>
<!-- Node63&#45;&gt;Node65 -->
<g id="edge38" class="edge"><title>Node63&#45;&gt;Node65</title>
<path fill="none" stroke="midnightblue" d="M1531.52,-152.718C1534.16,-139.681 1537.24,-124.478 1539.54,-113.095"/>
<polygon fill="midnightblue" stroke="midnightblue" points="1528.08,-152.1 1529.52,-162.595 1534.94,-153.488 1528.08,-152.1"/>
</g>
<!-- Node66 -->
<g id="node41" class="node"><title>Node66</title>
<a xlink:href="pi0eta_8cc.html" target="_top" xlink:title="src/analysis/physics\l/omega/pi0eta.cc">
<polygon fill="white" stroke="black" points="1490,-1 1490,-35 1596,-35 1596,-1 1490,-1"/>
<text text-anchor="start" x="1498" y="-22" font-family="Helvetica,sans-Serif" font-size="10.00">src/analysis/physics</text>
<text text-anchor="middle" x="1543" y="-9" font-family="Helvetica,sans-Serif" font-size="10.00">/omega/pi0eta.cc</text>
</a>
</g>
<!-- Node65&#45;&gt;Node66 -->
<g id="edge40" class="edge"><title>Node65&#45;&gt;Node66</title>
<path fill="none" stroke="midnightblue" d="M1543,-68.6102C1543,-57.5188 1543,-45.0489 1543,-35.2623"/>
<polygon fill="midnightblue" stroke="midnightblue" points="1539.5,-68.6892 1543,-78.6893 1546.5,-68.6893 1539.5,-68.6892"/>
</g>
<!-- Node68 -->
<g id="node46" class="node"><title>Node68</title>
<a xlink:href="_ant-alt_veto_cal_tool_8cc.html" target="_top" xlink:title="progs/Ant&#45;altVetoCalTool.cc">
<polygon fill="white" stroke="black" points="1614,-85.5 1614,-106.5 1754,-106.5 1754,-85.5 1614,-85.5"/>
<text text-anchor="middle" x="1684" y="-93.5" font-family="Helvetica,sans-Serif" font-size="10.00">progs/Ant&#45;altVetoCalTool.cc</text>
</a>
</g>
<!-- Node67&#45;&gt;Node68 -->
<g id="edge46" class="edge"><title>Node67&#45;&gt;Node68</title>
<path fill="none" stroke="midnightblue" d="M1690.72,-152.464C1688.88,-136.962 1686.67,-118.465 1685.31,-106.973"/>
<polygon fill="midnightblue" stroke="midnightblue" points="1687.27,-153.079 1691.93,-162.595 1694.22,-152.251 1687.27,-153.079"/>
</g>
<!-- Node69 -->
<g id="node48" class="node"><title>Node69</title>
<a xlink:href="_just_pi0_8cc.html" target="_top" xlink:title="src/analysis/physics\l/pi0/JustPi0.cc">
<polygon fill="white" stroke="black" points="1772,-79 1772,-113 1878,-113 1878,-79 1772,-79"/>
<text text-anchor="start" x="1780" y="-100" font-family="Helvetica,sans-Serif" font-size="10.00">src/analysis/physics</text>
<text text-anchor="middle" x="1825" y="-87" font-family="Helvetica,sans-Serif" font-size="10.00">/pi0/JustPi0.cc</text>
</a>
</g>
<!-- Node67&#45;&gt;Node69 -->
<g id="edge48" class="edge"><title>Node67&#45;&gt;Node69</title>
<path fill="none" stroke="midnightblue" d="M1729.43,-157.284C1751.09,-143.395 1778.35,-125.913 1798.21,-113.178"/>
<polygon fill="midnightblue" stroke="midnightblue" points="1727.35,-154.454 1720.83,-162.799 1731.13,-160.347 1727.35,-154.454"/>
</g>
<!-- Node71 -->
<g id="node52" class="node"><title>Node71</title>
<a xlink:href="single_pi0_8cc.html" target="_top" xlink:title="src/analysis/physics\l/production/singlePi0.cc">
<polygon fill="white" stroke="black" points="1895.5,-79 1895.5,-113 2016.5,-113 2016.5,-79 1895.5,-79"/>
<text text-anchor="start" x="1903.5" y="-100" font-family="Helvetica,sans-Serif" font-size="10.00">src/analysis/physics</text>
<text text-anchor="middle" x="1956" y="-87" font-family="Helvetica,sans-Serif" font-size="10.00">/production/singlePi0.cc</text>
</a>
</g>
<!-- Node70&#45;&gt;Node71 -->
<g id="edge52" class="edge"><title>Node70&#45;&gt;Node71</title>
<path fill="none" stroke="midnightblue" d="M1956,-152.33C1956,-139.38 1956,-124.365 1956,-113.095"/>
<polygon fill="midnightblue" stroke="midnightblue" points="1952.5,-152.595 1956,-162.595 1959.5,-152.595 1952.5,-152.595"/>
</g>
<!-- Node72 -->
<g id="node54" class="node"><title>Node72</title>
<a xlink:href="single_pi0_plots_8cc.html" target="_top" xlink:title="src/analysis/physics\l/production/singlePi0Plots.cc">
<polygon fill="white" stroke="black" points="2033.5,-79 2033.5,-113 2176.5,-113 2176.5,-79 2033.5,-79"/>
<text text-anchor="start" x="2041.5" y="-100" font-family="Helvetica,sans-Serif" font-size="10.00">src/analysis/physics</text>
<text text-anchor="middle" x="2105" y="-87" font-family="Helvetica,sans-Serif" font-size="10.00">/production/singlePi0Plots.cc</text>
</a>
</g>
<!-- Node70&#45;&gt;Node72 -->
<g id="edge54" class="edge"><title>Node70&#45;&gt;Node72</title>
<path fill="none" stroke="midnightblue" d="M1995.34,-157.821C2020.22,-143.796 2051.88,-125.945 2074.78,-113.035"/>
<polygon fill="midnightblue" stroke="midnightblue" points="1993.5,-154.839 1986.51,-162.799 1996.94,-160.937 1993.5,-154.839"/>
</g>
<!-- Node74 -->
<g id="node58" class="node"><title>Node74</title>
<a xlink:href="triple_pi0_8cc.html" target="_top" xlink:title="src/analysis/physics\l/production/triplePi0.cc">
<polygon fill="white" stroke="black" points="2194,-79 2194,-113 2310,-113 2310,-79 2194,-79"/>
<text text-anchor="start" x="2202" y="-100" font-family="Helvetica,sans-Serif" font-size="10.00">src/analysis/physics</text>
<text text-anchor="middle" x="2252" y="-87" font-family="Helvetica,sans-Serif" font-size="10.00">/production/triplePi0.cc</text>
</a>
</g>
<!-- Node73&#45;&gt;Node74 -->
<g id="edge58" class="edge"><title>Node73&#45;&gt;Node74</title>
<path fill="none" stroke="midnightblue" d="M2193.31,-155.396C2206.74,-141.807 2223.08,-125.267 2235.11,-113.095"/>
<polygon fill="midnightblue" stroke="midnightblue" points="2190.74,-153.022 2186.2,-162.595 2195.72,-157.942 2190.74,-153.022"/>
</g>
<!-- Node75 -->
<g id="node60" class="node"><title>Node75</title>
<a xlink:href="triple_pi0_plots_8cc.html" target="_top" xlink:title="src/analysis/physics\l/production/triplePi0Plots.cc">
<polygon fill="white" stroke="black" points="2327.5,-79 2327.5,-113 2466.5,-113 2466.5,-79 2327.5,-79"/>
<text text-anchor="start" x="2335.5" y="-100" font-family="Helvetica,sans-Serif" font-size="10.00">src/analysis/physics</text>
<text text-anchor="middle" x="2397" y="-87" font-family="Helvetica,sans-Serif" font-size="10.00">/production/triplePi0Plots.cc</text>
</a>
</g>
<!-- Node73&#45;&gt;Node75 -->
<g id="edge60" class="edge"><title>Node73&#45;&gt;Node75</title>
<path fill="none" stroke="midnightblue" d="M2224.09,-159.308C2227.11,-158.187 2230.09,-157.078 2233,-156 2272.38,-141.414 2317.15,-125.049 2349.95,-113.099"/>
<polygon fill="midnightblue" stroke="midnightblue" points="2222.58,-156.136 2214.43,-162.911 2225.03,-162.695 2222.58,-156.136"/>
</g>
<!-- Node76 -->
<g id="node62" class="node"><title>Node76</title>
<a xlink:href="_proton_vertex_test_8cc.html" target="_top" xlink:title="src/analysis/physics\l/scratch/wolfes/ProtonVertex\lTest.cc">
<polygon fill="white" stroke="black" points="2483.5,-72.5 2483.5,-119.5 2626.5,-119.5 2626.5,-72.5 2483.5,-72.5"/>
<text text-anchor="start" x="2491.5" y="-106.5" font-family="Helvetica,sans-Serif" font-size="10.00">src/analysis/physics</text>
<text text-anchor="start" x="2491.5" y="-93.5" font-family="Helvetica,sans-Serif" font-size="10.00">/scratch/wolfes/ProtonVertex</text>
<text text-anchor="middle" x="2555" y="-80.5" font-family="Helvetica,sans-Serif" font-size="10.00">Test.cc</text>
</a>
</g>
<!-- Node73&#45;&gt;Node76 -->
<g id="edge62" class="edge"><title>Node73&#45;&gt;Node76</title>
<path fill="none" stroke="midnightblue" d="M2220.4,-159.662C2224.63,-158.314 2228.86,-157.07 2233,-156 2338.27,-128.758 2368.87,-143.684 2475,-120 2477.69,-119.4 2480.42,-118.757 2483.17,-118.08"/>
<polygon fill="midnightblue" stroke="midnightblue" points="2218.95,-156.454 2210.59,-162.961 2221.19,-163.088 2218.95,-156.454"/>
</g>
<!-- Node77&#45;&gt;Node76 -->
<g id="edge66" class="edge"><title>Node77&#45;&gt;Node76</title>
<path fill="none" stroke="midnightblue" d="M2390.26,-153.183C2421.45,-142.356 2457.13,-129.973 2487.28,-119.505"/>
<polygon fill="midnightblue" stroke="midnightblue" points="2389.03,-149.904 2380.73,-156.49 2391.33,-156.517 2389.03,-149.904"/>
</g>
<!-- Node79 -->
<g id="node69" class="node"><title>Node79</title>
<a xlink:href="_test_sigma_plus_fitter_8cc.html" target="_top" xlink:title="src/analysis/physics\l/test/TestSigmaPlusFitter.cc">
<polygon fill="white" stroke="black" points="2644,-79 2644,-113 2786,-113 2786,-79 2644,-79"/>
<text text-anchor="start" x="2652" y="-100" font-family="Helvetica,sans-Serif" font-size="10.00">src/analysis/physics</text>
<text text-anchor="middle" x="2715" y="-87" font-family="Helvetica,sans-Serif" font-size="10.00">/test/TestSigmaPlusFitter.cc</text>
</a>
</g>
<!-- Node78&#45;&gt;Node79 -->
<g id="edge70" class="edge"><title>Node78&#45;&gt;Node79</title>
<path fill="none" stroke="midnightblue" d="M2529.34,-159.656C2570.92,-145.397 2625.88,-126.554 2665.2,-113.076"/>
<polygon fill="midnightblue" stroke="midnightblue" points="2528.2,-156.346 2519.87,-162.9 2530.47,-162.968 2528.2,-156.346"/>
</g>
</g>
</svg>
