<?xml version="1.0" encoding="UTF-8" standalone="no"?>
<!DOCTYPE svg PUBLIC "-//W3C//DTD SVG 1.1//EN"
 "http://www.w3.org/Graphics/SVG/1.1/DTD/svg11.dtd">
<!-- Generated by graphviz version 2.26.3 (20100126.1600)
 -->
<!-- Title: src/root&#45;addons/analysis_codes/TreeTools.cc Pages: 1 -->
<svg width="802pt" height="334pt"
 viewBox="0.00 0.00 802.00 334.00" xmlns="http://www.w3.org/2000/svg" xmlns:xlink="http://www.w3.org/1999/xlink">
<g id="graph1" class="graph" transform="scale(1 1) rotate(0) translate(4 330)">
<title>src/root&#45;addons/analysis_codes/TreeTools.cc</title>
<polygon fill="white" stroke="white" points="-4,5 -4,-330 799,-330 799,5 -4,5"/>
<!-- Node0 -->
<g id="node1" class="node"><title>Node0</title>
<polygon fill="#bfbfbf" stroke="black" points="465.5,-291 465.5,-325 588.5,-325 588.5,-291 465.5,-291"/>
<text text-anchor="start" x="473.5" y="-312" font-family="Helvetica,sans-Serif" font-size="10.00">src/root&#45;addons/analysis</text>
<text text-anchor="middle" x="527" y="-299" font-family="Helvetica,sans-Serif" font-size="10.00">_codes/TreeTools.cc</text>
</g>
<!-- Node1 -->
<g id="node3" class="node"><title>Node1</title>
<a xlink:href="_tree_tools_8h.html" target="_top" xlink:title="TreeTools.h">
<polygon fill="white" stroke="black" points="272,-232.5 272,-253.5 340,-253.5 340,-232.5 272,-232.5"/>
<text text-anchor="middle" x="306" y="-240.5" font-family="Helvetica,sans-Serif" font-size="10.00">TreeTools.h</text>
</a>
</g>
<!-- Node0&#45;&gt;Node1 -->
<g id="edge2" class="edge"><title>Node0&#45;&gt;Node1</title>
<path fill="none" stroke="midnightblue" d="M468.935,-290.922C431.688,-279.967 384.093,-265.968 349.975,-255.934"/>
<polygon fill="midnightblue" stroke="midnightblue" points="350.87,-252.549 340.289,-253.085 348.895,-259.264 350.87,-252.549"/>
</g>
<!-- Node15 -->
<g id="node36" class="node"><title>Node15</title>
<polygon fill="white" stroke="#bfbfbf" points="406,-232.5 406,-253.5 456,-253.5 456,-232.5 406,-232.5"/>
<text text-anchor="middle" x="431" y="-240.5" font-family="Helvetica,sans-Serif" font-size="10.00">TTree.h</text>
</g>
<!-- Node0&#45;&gt;Node15 -->
<g id="edge40" class="edge"><title>Node0&#45;&gt;Node15</title>
<path fill="none" stroke="midnightblue" d="M501.777,-290.922C487.332,-281.141 469.303,-268.934 455.057,-259.289"/>
<polygon fill="midnightblue" stroke="midnightblue" points="456.984,-256.367 446.742,-253.658 453.06,-262.163 456.984,-256.367"/>
</g>
<!-- Node16 -->
<g id="node38" class="node"><title>Node16</title>
<polygon fill="white" stroke="#bfbfbf" points="474,-232.5 474,-253.5 518,-253.5 518,-232.5 474,-232.5"/>
<text text-anchor="middle" x="496" y="-240.5" font-family="Helvetica,sans-Serif" font-size="10.00">TH1.h</text>
</g>
<!-- Node0&#45;&gt;Node16 -->
<g id="edge42" class="edge"><title>Node0&#45;&gt;Node16</title>
<path fill="none" stroke="midnightblue" d="M518.855,-290.922C514.789,-282.395 509.843,-272.025 505.593,-263.115"/>
<polygon fill="midnightblue" stroke="midnightblue" points="508.64,-261.371 501.176,-253.852 502.321,-264.385 508.64,-261.371"/>
</g>
<!-- Node17 -->
<g id="node40" class="node"><title>Node17</title>
<polygon fill="white" stroke="#bfbfbf" points="536,-232.5 536,-253.5 580,-253.5 580,-232.5 536,-232.5"/>
<text text-anchor="middle" x="558" y="-240.5" font-family="Helvetica,sans-Serif" font-size="10.00">TH2.h</text>
</g>
<!-- Node0&#45;&gt;Node17 -->
<g id="edge44" class="edge"><title>Node0&#45;&gt;Node17</title>
<path fill="none" stroke="midnightblue" d="M535.145,-290.922C539.211,-282.395 544.157,-272.025 548.407,-263.115"/>
<polygon fill="midnightblue" stroke="midnightblue" points="551.679,-264.385 552.824,-253.852 545.36,-261.371 551.679,-264.385"/>
</g>
<!-- Node18 -->
<g id="node42" class="node"><title>Node18</title>
<polygon fill="white" stroke="#bfbfbf" points="598,-232.5 598,-253.5 642,-253.5 642,-232.5 598,-232.5"/>
<text text-anchor="middle" x="620" y="-240.5" font-family="Helvetica,sans-Serif" font-size="10.00">TH3.h</text>
</g>
<!-- Node0&#45;&gt;Node18 -->
<g id="edge46" class="edge"><title>Node0&#45;&gt;Node18</title>
<path fill="none" stroke="midnightblue" d="M551.435,-290.922C565.297,-281.233 582.565,-269.165 596.303,-259.562"/>
<polygon fill="midnightblue" stroke="midnightblue" points="598.559,-262.256 604.75,-253.658 594.549,-256.518 598.559,-262.256"/>
</g>
<!-- Node19 -->
<g id="node44" class="node"><title>Node19</title>
<polygon fill="white" stroke="#bfbfbf" points="659.5,-232.5 659.5,-253.5 706.5,-253.5 706.5,-232.5 659.5,-232.5"/>
<text text-anchor="middle" x="683" y="-240.5" font-family="Helvetica,sans-Serif" font-size="10.00">TCut.h</text>
</g>
<!-- Node0&#45;&gt;Node19 -->
<g id="edge48" class="edge"><title>Node0&#45;&gt;Node19</title>
<path fill="none" stroke="midnightblue" d="M567.987,-290.922C593.535,-280.277 625.98,-266.758 649.892,-256.795"/>
<polygon fill="midnightblue" stroke="midnightblue" points="651.364,-259.973 659.249,-252.896 648.672,-253.512 651.364,-259.973"/>
</g>
<!-- Node20 -->
<g id="node46" class="node"><title>Node20</title>
<polygon fill="white" stroke="#bfbfbf" points="723.5,-232.5 723.5,-253.5 794.5,-253.5 794.5,-232.5 723.5,-232.5"/>
<text text-anchor="middle" x="759" y="-240.5" font-family="Helvetica,sans-Serif" font-size="10.00">TDirectory.h</text>
</g>
<!-- Node0&#45;&gt;Node20 -->
<g id="edge50" class="edge"><title>Node0&#45;&gt;Node20</title>
<path fill="none" stroke="midnightblue" d="M587.955,-290.922C627.347,-279.886 677.763,-265.76 713.632,-255.711"/>
<polygon fill="midnightblue" stroke="midnightblue" points="714.657,-259.059 723.342,-252.991 712.768,-252.318 714.657,-259.059"/>
</g>
<!-- Node21 -->
<g id="node48" class="node"><title>Node21</title>
<a xlink:href="string_8h.html" target="_top" xlink:title="base/std_ext/string.h">
<polygon fill="white" stroke="black" points="334,-174.5 334,-195.5 442,-195.5 442,-174.5 334,-174.5"/>
<text text-anchor="middle" x="388" y="-182.5" font-family="Helvetica,sans-Serif" font-size="10.00">base/std_ext/string.h</text>
</a>
</g>
<!-- Node0&#45;&gt;Node21 -->
<g id="edge52" class="edge"><title>Node0&#45;&gt;Node21</title>
<path fill="none" stroke="midnightblue" d="M465.334,-296.489C440.361,-288.67 413.565,-275.637 397,-254 386.583,-240.394 384.947,-220.682 385.559,-205.808"/>
<polygon fill="midnightblue" stroke="midnightblue" points="389.07,-205.8 386.357,-195.558 382.091,-205.256 389.07,-205.8"/>
</g>
<!-- Node2 -->
<g id="node5" class="node"><title>Node2</title>
<polygon fill="white" stroke="#bfbfbf" points="281.5,-116.5 281.5,-137.5 322.5,-137.5 322.5,-116.5 281.5,-116.5"/>
<text text-anchor="middle" x="302" y="-124.5" font-family="Helvetica,sans-Serif" font-size="10.00">string</text>
</g>
<!-- Node1&#45;&gt;Node2 -->
<g id="edge4" class="edge"><title>Node1&#45;&gt;Node2</title>
<path fill="none" stroke="midnightblue" d="M305.631,-232.295C304.97,-213.131 303.574,-172.654 302.719,-147.843"/>
<polygon fill="midnightblue" stroke="midnightblue" points="306.211,-147.553 302.368,-137.679 299.215,-147.794 306.211,-147.553"/>
</g>
<!-- Node3 -->
<g id="node7" class="node"><title>Node3</title>
<a xlink:href="_histogram_factory_8h.html" target="_top" xlink:title="analysis/plot/HistogramFactory.h">
<polygon fill="white" stroke="black" points="117.5,-174.5 117.5,-195.5 278.5,-195.5 278.5,-174.5 117.5,-174.5"/>
<text text-anchor="middle" x="198" y="-182.5" font-family="Helvetica,sans-Serif" font-size="10.00">analysis/plot/HistogramFactory.h</text>
</a>
</g>
<!-- Node1&#45;&gt;Node3 -->
<g id="edge6" class="edge"><title>Node1&#45;&gt;Node3</title>
<path fill="none" stroke="midnightblue" d="M286.442,-232.497C269.802,-223.56 245.673,-210.602 226.82,-200.477"/>
<polygon fill="midnightblue" stroke="midnightblue" points="228.243,-197.269 217.777,-195.621 224.931,-203.436 228.243,-197.269"/>
</g>
<!-- Node3&#45;&gt;Node2 -->
<g id="edge36" class="edge"><title>Node3&#45;&gt;Node2</title>
<path fill="none" stroke="midnightblue" d="M217.075,-174.362C233.055,-165.45 256.081,-152.609 274.127,-142.545"/>
<polygon fill="midnightblue" stroke="midnightblue" points="276.017,-145.498 283.046,-137.571 272.607,-139.385 276.017,-145.498"/>
</g>
<!-- Node4 -->
<g id="node9" class="node"><title>Node4</title>
<a xlink:href="interval_8h.html" target="_top" xlink:title="base/interval.h">
<polygon fill="white" stroke="black" points="183,-58.5 183,-79.5 263,-79.5 263,-58.5 183,-58.5"/>
<text text-anchor="middle" x="223" y="-66.5" font-family="Helvetica,sans-Serif" font-size="10.00">base/interval.h</text>
</a>
</g>
<!-- Node3&#45;&gt;Node4 -->
<g id="edge8" class="edge"><title>Node3&#45;&gt;Node4</title>
<path fill="none" stroke="midnightblue" d="M200.307,-174.295C204.456,-155.045 213.239,-114.289 218.58,-89.5091"/>
<polygon fill="midnightblue" stroke="midnightblue" points="222.013,-90.1922 220.698,-79.6792 215.17,-88.7174 222.013,-90.1922"/>
</g>
<!-- Node12 -->
<g id="node25" class="node"><title>Node12</title>
<a xlink:href="_bin_settings_8h.html" target="_top" xlink:title="base/BinSettings.h">
<polygon fill="white" stroke="black" points="89.5,-116.5 89.5,-137.5 188.5,-137.5 188.5,-116.5 89.5,-116.5"/>
<text text-anchor="middle" x="139" y="-124.5" font-family="Helvetica,sans-Serif" font-size="10.00">base/BinSettings.h</text>
</a>
</g>
<!-- Node3&#45;&gt;Node12 -->
<g id="edge24" class="edge"><title>Node3&#45;&gt;Node12</title>
<path fill="none" stroke="midnightblue" d="M187.178,-174.362C178.779,-166.104 166.946,-154.472 157.11,-144.803"/>
<polygon fill="midnightblue" stroke="midnightblue" points="159.338,-142.085 149.753,-137.571 154.431,-147.077 159.338,-142.085"/>
</g>
<!-- Node13 -->
<g id="node28" class="node"><title>Node13</title>
<polygon fill="white" stroke="#bfbfbf" points="281,-58.5 281,-79.5 325,-79.5 325,-58.5 281,-58.5"/>
<text text-anchor="middle" x="303" y="-66.5" font-family="Helvetica,sans-Serif" font-size="10.00">vector</text>
</g>
<!-- Node3&#45;&gt;Node13 -->
<g id="edge38" class="edge"><title>Node3&#45;&gt;Node13</title>
<path fill="none" stroke="midnightblue" d="M207.69,-174.295C225.661,-154.441 264.341,-111.709 286.504,-87.2239"/>
<polygon fill="midnightblue" stroke="midnightblue" points="289.217,-89.4419 293.333,-79.6792 284.028,-84.7443 289.217,-89.4419"/>
</g>
<!-- Node5 -->
<g id="node11" class="node"><title>Node5</title>
<a xlink:href="types_8h.html" target="_top" xlink:title="types.h">
<polygon fill="white" stroke="black" points="141.5,-0.5 141.5,-21.5 190.5,-21.5 190.5,-0.5 141.5,-0.5"/>
<text text-anchor="middle" x="166" y="-8.5" font-family="Helvetica,sans-Serif" font-size="10.00">types.h</text>
</a>
</g>
<!-- Node4&#45;&gt;Node5 -->
<g id="edge10" class="edge"><title>Node4&#45;&gt;Node5</title>
<path fill="none" stroke="midnightblue" d="M212.545,-58.3619C204.43,-50.1043 192.999,-38.4725 183.496,-28.8029"/>
<polygon fill="midnightblue" stroke="midnightblue" points="185.894,-26.2497 176.388,-21.5707 180.901,-31.1562 185.894,-26.2497"/>
</g>
<!-- Node6 -->
<g id="node13" class="node"><title>Node6</title>
<polygon fill="white" stroke="#bfbfbf" points="398,-0.5 398,-21.5 454,-21.5 454,-0.5 398,-0.5"/>
<text text-anchor="middle" x="426" y="-8.5" font-family="Helvetica,sans-Serif" font-size="10.00">algorithm</text>
</g>
<!-- Node4&#45;&gt;Node6 -->
<g id="edge12" class="edge"><title>Node4&#45;&gt;Node6</title>
<path fill="none" stroke="midnightblue" d="M260.619,-58.4999C292.186,-49.6553 338.718,-36.5398 387.868,-22.3067"/>
<polygon fill="midnightblue" stroke="midnightblue" points="389.1,-25.5936 397.729,-19.4461 387.15,-18.8707 389.1,-25.5936"/>
</g>
<!-- Node7 -->
<g id="node15" class="node"><title>Node7</title>
<polygon fill="white" stroke="#bfbfbf" points="65.5,-0.5 65.5,-21.5 124.5,-21.5 124.5,-0.5 65.5,-0.5"/>
<text text-anchor="middle" x="95" y="-8.5" font-family="Helvetica,sans-Serif" font-size="10.00">stdexcept</text>
</g>
<!-- Node4&#45;&gt;Node7 -->
<g id="edge14" class="edge"><title>Node4&#45;&gt;Node7</title>
<path fill="none" stroke="midnightblue" d="M199.82,-58.4966C179.648,-49.3562 150.19,-36.0082 127.636,-25.7883"/>
<polygon fill="midnightblue" stroke="midnightblue" points="128.993,-22.5606 118.44,-21.6212 126.104,-28.9366 128.993,-22.5606"/>
</g>
<!-- Node8 -->
<g id="node17" class="node"><title>Node8</title>
<polygon fill="white" stroke="#bfbfbf" points="208,-0.5 208,-21.5 248,-21.5 248,-0.5 208,-0.5"/>
<text text-anchor="middle" x="228" y="-8.5" font-family="Helvetica,sans-Serif" font-size="10.00">limits</text>
</g>
<!-- Node4&#45;&gt;Node8 -->
<g id="edge16" class="edge"><title>Node4&#45;&gt;Node8</title>
<path fill="none" stroke="midnightblue" d="M223.917,-58.3619C224.558,-50.9219 225.436,-40.7427 226.213,-31.7276"/>
<polygon fill="midnightblue" stroke="midnightblue" points="229.717,-31.8343 227.089,-21.5707 222.743,-31.2331 229.717,-31.8343"/>
</g>
<!-- Node9 -->
<g id="node19" class="node"><title>Node9</title>
<polygon fill="white" stroke="#bfbfbf" points="-0.5,-0.5 -0.5,-21.5 48.5,-21.5 48.5,-0.5 -0.5,-0.5"/>
<text text-anchor="middle" x="24" y="-8.5" font-family="Helvetica,sans-Serif" font-size="10.00">istream</text>
</g>
<!-- Node4&#45;&gt;Node9 -->
<g id="edge18" class="edge"><title>Node4&#45;&gt;Node9</title>
<path fill="none" stroke="midnightblue" d="M183.945,-58.4858C152.319,-49.8504 106.408,-37.0416 58.4437,-22.3697"/>
<polygon fill="midnightblue" stroke="midnightblue" points="59.4141,-19.0064 48.827,-19.4111 57.3557,-25.6969 59.4141,-19.0064"/>
</g>
<!-- Node10 -->
<g id="node21" class="node"><title>Node10</title>
<polygon fill="white" stroke="#bfbfbf" points="328,-0.5 328,-21.5 380,-21.5 380,-0.5 328,-0.5"/>
<text text-anchor="middle" x="354" y="-8.5" font-family="Helvetica,sans-Serif" font-size="10.00">sstream</text>
</g>
<!-- Node4&#45;&gt;Node10 -->
<g id="edge20" class="edge"><title>Node4&#45;&gt;Node10</title>
<path fill="none" stroke="midnightblue" d="M246.723,-58.4966C267.368,-49.3562 297.516,-36.0082 320.599,-25.7883"/>
<polygon fill="midnightblue" stroke="midnightblue" points="322.284,-28.8701 330.011,-21.6212 319.45,-22.4694 322.284,-28.8701"/>
</g>
<!-- Node11 -->
<g id="node23" class="node"><title>Node11</title>
<polygon fill="white" stroke="#bfbfbf" points="266,-0.5 266,-21.5 310,-21.5 310,-0.5 266,-0.5"/>
<text text-anchor="middle" x="288" y="-8.5" font-family="Helvetica,sans-Serif" font-size="10.00">cmath</text>
</g>
<!-- Node4&#45;&gt;Node11 -->
<g id="edge22" class="edge"><title>Node4&#45;&gt;Node11</title>
<path fill="none" stroke="midnightblue" d="M234.922,-58.3619C244.359,-49.9408 257.73,-38.0105 268.69,-28.2308"/>
<polygon fill="midnightblue" stroke="midnightblue" points="271.022,-30.8401 276.154,-21.5707 266.362,-25.6171 271.022,-30.8401"/>
</g>
<!-- Node12&#45;&gt;Node4 -->
<g id="edge26" class="edge"><title>Node12&#45;&gt;Node4</title>
<path fill="none" stroke="midnightblue" d="M154.407,-116.362C166.958,-107.696 184.892,-95.3126 199.275,-85.3819"/>
<polygon fill="midnightblue" stroke="midnightblue" points="201.45,-88.1327 207.691,-79.5707 197.473,-82.3725 201.45,-88.1327"/>
</g>
<!-- Node12&#45;&gt;Node7 -->
<g id="edge30" class="edge"><title>Node12&#45;&gt;Node7</title>
<path fill="none" stroke="midnightblue" d="M128.587,-116.414C120.468,-107.484 109.653,-93.9554 104,-80 97.7725,-64.6272 95.6361,-45.8969 94.9938,-31.8323"/>
<polygon fill="midnightblue" stroke="midnightblue" points="98.4897,-31.6189 94.7494,-21.7063 91.4918,-31.7879 98.4897,-31.6189"/>
</g>
<!-- Node12&#45;&gt;Node9 -->
<g id="edge32" class="edge"><title>Node12&#45;&gt;Node9</title>
<path fill="none" stroke="midnightblue" d="M128.387,-116.295C108.619,-96.3545 65.972,-53.337 41.7512,-28.9056"/>
<polygon fill="midnightblue" stroke="midnightblue" points="44.1131,-26.3167 34.5871,-21.6792 39.142,-31.245 44.1131,-26.3167"/>
</g>
<!-- Node12&#45;&gt;Node13 -->
<g id="edge28" class="edge"><title>Node12&#45;&gt;Node13</title>
<path fill="none" stroke="midnightblue" d="M168.849,-116.464C193.858,-107.634 230.746,-94.6036 271.417,-80.204"/>
<polygon fill="midnightblue" stroke="midnightblue" points="272.728,-83.4528 280.986,-76.8154 270.391,-76.8542 272.728,-83.4528"/>
</g>
<!-- Node14 -->
<g id="node32" class="node"><title>Node14</title>
<polygon fill="white" stroke="#bfbfbf" points="113,-58.5 113,-79.5 165,-79.5 165,-58.5 113,-58.5"/>
<text text-anchor="middle" x="139" y="-66.5" font-family="Helvetica,sans-Serif" font-size="10.00">ostream</text>
</g>
<!-- Node12&#45;&gt;Node14 -->
<g id="edge34" class="edge"><title>Node12&#45;&gt;Node14</title>
<path fill="none" stroke="midnightblue" d="M139,-116.362C139,-108.922 139,-98.7427 139,-89.7276"/>
<polygon fill="midnightblue" stroke="midnightblue" points="142.5,-89.5706 139,-79.5707 135.5,-89.5707 142.5,-89.5706"/>
</g>
<!-- Node21&#45;&gt;Node2 -->
<g id="edge54" class="edge"><title>Node21&#45;&gt;Node2</title>
<path fill="none" stroke="midnightblue" d="M372.226,-174.362C359.376,-165.696 341.015,-153.313 326.29,-143.382"/>
<polygon fill="midnightblue" stroke="midnightblue" points="327.921,-140.26 317.674,-137.571 324.007,-146.064 327.921,-140.26"/>
</g>
<!-- Node21&#45;&gt;Node6 -->
<g id="edge58" class="edge"><title>Node21&#45;&gt;Node6</title>
<path fill="none" stroke="midnightblue" d="M390.32,-174.377C396.48,-146.172 413.331,-69.0121 421.475,-31.7203"/>
<polygon fill="midnightblue" stroke="midnightblue" points="424.899,-32.4442 423.613,-21.9277 418.06,-30.9507 424.899,-32.4442"/>
</g>
<!-- Node21&#45;&gt;Node10 -->
<g id="edge56" class="edge"><title>Node21&#45;&gt;Node10</title>
<path fill="none" stroke="midnightblue" d="M385.924,-174.377C380.437,-146.293 365.465,-69.6735 358.143,-32.2027"/>
<polygon fill="midnightblue" stroke="midnightblue" points="361.488,-31.0709 356.135,-21.9277 354.618,-32.4133 361.488,-31.0709"/>
</g>
<!-- Node21&#45;&gt;Node13 -->
<g id="edge60" class="edge"><title>Node21&#45;&gt;Node13</title>
<path fill="none" stroke="midnightblue" d="M380.156,-174.295C365.734,-154.613 334.839,-112.45 316.825,-87.8668"/>
<polygon fill="midnightblue" stroke="midnightblue" points="319.559,-85.6768 310.825,-79.6792 313.913,-89.8142 319.559,-85.6768"/>
</g>
</g>
</svg>
