<?xml version="1.0" encoding="UTF-8" standalone="no"?>
<!DOCTYPE svg PUBLIC "-//W3C//DTD SVG 1.1//EN"
 "http://www.w3.org/Graphics/SVG/1.1/DTD/svg11.dtd">
<!-- Generated by graphviz version 2.26.3 (20100126.1600)
 -->
<!-- Title: src/root&#45;addons/analysis_codes/TreeTools.h Pages: 1 -->
<svg width="462pt" height="276pt"
 viewBox="0.00 0.00 462.00 276.00" xmlns="http://www.w3.org/2000/svg" xmlns:xlink="http://www.w3.org/1999/xlink">
<g id="graph1" class="graph" transform="scale(1 1) rotate(0) translate(4 272)">
<title>src/root&#45;addons/analysis_codes/TreeTools.h</title>
<polygon fill="white" stroke="white" points="-4,5 -4,-272 459,-272 459,5 -4,5"/>
<!-- Node0 -->
<g id="node1" class="node"><title>Node0</title>
<polygon fill="#bfbfbf" stroke="black" points="180.5,-233 180.5,-267 303.5,-267 303.5,-233 180.5,-233"/>
<text text-anchor="start" x="188.5" y="-254" font-family="Helvetica,sans-Serif" font-size="10.00">src/root&#45;addons/analysis</text>
<text text-anchor="middle" x="242" y="-241" font-family="Helvetica,sans-Serif" font-size="10.00">_codes/TreeTools.h</text>
</g>
<!-- Node1 -->
<g id="node3" class="node"><title>Node1</title>
<polygon fill="white" stroke="#bfbfbf" points="167.5,-116.5 167.5,-137.5 208.5,-137.5 208.5,-116.5 167.5,-116.5"/>
<text text-anchor="middle" x="188" y="-124.5" font-family="Helvetica,sans-Serif" font-size="10.00">string</text>
</g>
<!-- Node0&#45;&gt;Node1 -->
<g id="edge2" class="edge"><title>Node0&#45;&gt;Node1</title>
<path fill="none" stroke="midnightblue" d="M228.892,-232.785C221.606,-222.546 212.856,-209.046 207,-196 200.015,-180.437 195.057,-161.72 191.961,-147.709"/>
<polygon fill="midnightblue" stroke="midnightblue" points="195.329,-146.715 189.874,-137.632 188.475,-148.134 195.329,-146.715"/>
</g>
<!-- Node2 -->
<g id="node5" class="node"><title>Node2</title>
<a xlink:href="_histogram_factory_8h.html" target="_top" xlink:title="analysis/plot/HistogramFactory.h">
<polygon fill="white" stroke="black" points="215.5,-174.5 215.5,-195.5 376.5,-195.5 376.5,-174.5 215.5,-174.5"/>
<text text-anchor="middle" x="296" y="-182.5" font-family="Helvetica,sans-Serif" font-size="10.00">analysis/plot/HistogramFactory.h</text>
</a>
</g>
<!-- Node0&#45;&gt;Node2 -->
<g id="edge4" class="edge"><title>Node0&#45;&gt;Node2</title>
<path fill="none" stroke="midnightblue" d="M256.188,-232.922C263.652,-223.937 272.818,-212.905 280.472,-203.691"/>
<polygon fill="midnightblue" stroke="midnightblue" points="283.286,-205.781 286.984,-195.852 277.902,-201.307 283.286,-205.781"/>
</g>
<!-- Node2&#45;&gt;Node1 -->
<g id="edge34" class="edge"><title>Node2&#45;&gt;Node1</title>
<path fill="none" stroke="midnightblue" d="M276.442,-174.497C259.802,-165.56 235.673,-152.602 216.82,-142.477"/>
<polygon fill="midnightblue" stroke="midnightblue" points="218.243,-139.269 207.777,-137.621 214.931,-145.436 218.243,-139.269"/>
</g>
<!-- Node3 -->
<g id="node7" class="node"><title>Node3</title>
<a xlink:href="interval_8h.html" target="_top" xlink:title="base/interval.h">
<polygon fill="white" stroke="black" points="196,-58.5 196,-79.5 276,-79.5 276,-58.5 196,-58.5"/>
<text text-anchor="middle" x="236" y="-66.5" font-family="Helvetica,sans-Serif" font-size="10.00">base/interval.h</text>
</a>
</g>
<!-- Node2&#45;&gt;Node3 -->
<g id="edge6" class="edge"><title>Node2&#45;&gt;Node3</title>
<path fill="none" stroke="midnightblue" d="M283.94,-174.138C274.765,-165.255 262.482,-151.926 255,-138 246.926,-122.972 242.048,-104.217 239.259,-90.055"/>
<polygon fill="midnightblue" stroke="midnightblue" points="242.641,-89.0772 237.45,-79.8409 235.748,-90.2982 242.641,-89.0772"/>
</g>
<!-- Node11 -->
<g id="node23" class="node"><title>Node11</title>
<a xlink:href="_bin_settings_8h.html" target="_top" xlink:title="base/BinSettings.h">
<polygon fill="white" stroke="black" points="263.5,-116.5 263.5,-137.5 362.5,-137.5 362.5,-116.5 263.5,-116.5"/>
<text text-anchor="middle" x="313" y="-124.5" font-family="Helvetica,sans-Serif" font-size="10.00">base/BinSettings.h</text>
</a>
</g>
<!-- Node2&#45;&gt;Node11 -->
<g id="edge22" class="edge"><title>Node2&#45;&gt;Node11</title>
<path fill="none" stroke="midnightblue" d="M299.118,-174.362C301.323,-166.84 304.348,-156.519 307.012,-147.431"/>
<polygon fill="midnightblue" stroke="midnightblue" points="310.448,-148.151 309.902,-137.571 303.73,-146.182 310.448,-148.151"/>
</g>
<!-- Node12 -->
<g id="node26" class="node"><title>Node12</title>
<polygon fill="white" stroke="#bfbfbf" points="402,-58.5 402,-79.5 446,-79.5 446,-58.5 402,-58.5"/>
<text text-anchor="middle" x="424" y="-66.5" font-family="Helvetica,sans-Serif" font-size="10.00">vector</text>
</g>
<!-- Node2&#45;&gt;Node12 -->
<g id="edge36" class="edge"><title>Node2&#45;&gt;Node12</title>
<path fill="none" stroke="midnightblue" d="M317.104,-174.43C332.943,-165.895 354.627,-152.884 371,-138 387.137,-123.331 401.93,-103.261 411.762,-88.5486"/>
<polygon fill="midnightblue" stroke="midnightblue" points="414.956,-90.0564 417.471,-79.7643 409.087,-86.2418 414.956,-90.0564"/>
</g>
<!-- Node4 -->
<g id="node9" class="node"><title>Node4</title>
<a xlink:href="types_8h.html" target="_top" xlink:title="types.h">
<polygon fill="white" stroke="black" points="75.5,-0.5 75.5,-21.5 124.5,-21.5 124.5,-0.5 75.5,-0.5"/>
<text text-anchor="middle" x="100" y="-8.5" font-family="Helvetica,sans-Serif" font-size="10.00">types.h</text>
</a>
</g>
<!-- Node3&#45;&gt;Node4 -->
<g id="edge8" class="edge"><title>Node3&#45;&gt;Node4</title>
<path fill="none" stroke="midnightblue" d="M211.371,-58.4966C189.843,-49.3154 158.36,-35.8889 134.355,-25.6516"/>
<polygon fill="midnightblue" stroke="midnightblue" points="135.476,-22.3247 124.905,-21.6212 132.73,-28.7636 135.476,-22.3247"/>
</g>
<!-- Node5 -->
<g id="node11" class="node"><title>Node5</title>
<polygon fill="white" stroke="#bfbfbf" points="142,-0.5 142,-21.5 198,-21.5 198,-0.5 142,-0.5"/>
<text text-anchor="middle" x="170" y="-8.5" font-family="Helvetica,sans-Serif" font-size="10.00">algorithm</text>
</g>
<!-- Node3&#45;&gt;Node5 -->
<g id="edge10" class="edge"><title>Node3&#45;&gt;Node5</title>
<path fill="none" stroke="midnightblue" d="M223.895,-58.3619C214.312,-49.9408 200.736,-38.0105 189.607,-28.2308"/>
<polygon fill="midnightblue" stroke="midnightblue" points="191.851,-25.5427 182.029,-21.5707 187.23,-30.8009 191.851,-25.5427"/>
</g>
<!-- Node6 -->
<g id="node13" class="node"><title>Node6</title>
<polygon fill="white" stroke="#bfbfbf" points="-0.5,-0.5 -0.5,-21.5 58.5,-21.5 58.5,-0.5 -0.5,-0.5"/>
<text text-anchor="middle" x="29" y="-8.5" font-family="Helvetica,sans-Serif" font-size="10.00">stdexcept</text>
</g>
<!-- Node3&#45;&gt;Node6 -->
<g id="edge12" class="edge"><title>Node3&#45;&gt;Node6</title>
<path fill="none" stroke="midnightblue" d="M197.71,-58.4747C165.577,-49.6146 118.208,-36.4893 68.7729,-22.4875"/>
<polygon fill="midnightblue" stroke="midnightblue" points="69.4378,-19.0381 58.8622,-19.6765 67.5276,-25.7724 69.4378,-19.0381"/>
</g>
<!-- Node7 -->
<g id="node15" class="node"><title>Node7</title>
<polygon fill="white" stroke="#bfbfbf" points="216,-0.5 216,-21.5 256,-21.5 256,-0.5 216,-0.5"/>
<text text-anchor="middle" x="236" y="-8.5" font-family="Helvetica,sans-Serif" font-size="10.00">limits</text>
</g>
<!-- Node3&#45;&gt;Node7 -->
<g id="edge14" class="edge"><title>Node3&#45;&gt;Node7</title>
<path fill="none" stroke="midnightblue" d="M236,-58.3619C236,-50.9219 236,-40.7427 236,-31.7276"/>
<polygon fill="midnightblue" stroke="midnightblue" points="239.5,-31.5706 236,-21.5707 232.5,-31.5707 239.5,-31.5706"/>
</g>
<!-- Node8 -->
<g id="node17" class="node"><title>Node8</title>
<polygon fill="white" stroke="#bfbfbf" points="405.5,-0.5 405.5,-21.5 454.5,-21.5 454.5,-0.5 405.5,-0.5"/>
<text text-anchor="middle" x="430" y="-8.5" font-family="Helvetica,sans-Serif" font-size="10.00">istream</text>
</g>
<!-- Node3&#45;&gt;Node8 -->
<g id="edge16" class="edge"><title>Node3&#45;&gt;Node8</title>
<path fill="none" stroke="midnightblue" d="M273.532,-58.4767C304.131,-49.8008 348.689,-36.949 395.47,-22.4162"/>
<polygon fill="midnightblue" stroke="midnightblue" points="396.663,-25.7102 405.166,-19.3894 394.578,-19.0281 396.663,-25.7102"/>
</g>
<!-- Node9 -->
<g id="node19" class="node"><title>Node9</title>
<polygon fill="white" stroke="#bfbfbf" points="274,-0.5 274,-21.5 326,-21.5 326,-0.5 274,-0.5"/>
<text text-anchor="middle" x="300" y="-8.5" font-family="Helvetica,sans-Serif" font-size="10.00">sstream</text>
</g>
<!-- Node3&#45;&gt;Node9 -->
<g id="edge18" class="edge"><title>Node3&#45;&gt;Node9</title>
<path fill="none" stroke="midnightblue" d="M247.739,-58.3619C256.941,-50.0226 269.94,-38.2418 280.672,-28.5162"/>
<polygon fill="midnightblue" stroke="midnightblue" points="283.276,-30.8793 288.336,-21.5707 278.576,-25.6924 283.276,-30.8793"/>
</g>
<!-- Node10 -->
<g id="node21" class="node"><title>Node10</title>
<polygon fill="white" stroke="#bfbfbf" points="344,-0.5 344,-21.5 388,-21.5 388,-0.5 344,-0.5"/>
<text text-anchor="middle" x="366" y="-8.5" font-family="Helvetica,sans-Serif" font-size="10.00">cmath</text>
</g>
<!-- Node3&#45;&gt;Node10 -->
<g id="edge20" class="edge"><title>Node3&#45;&gt;Node10</title>
<path fill="none" stroke="midnightblue" d="M259.542,-58.4966C280.541,-49.1277 311.449,-35.3381 334.558,-25.0278"/>
<polygon fill="midnightblue" stroke="midnightblue" points="336.227,-28.1159 343.933,-20.8451 333.375,-21.7232 336.227,-28.1159"/>
</g>
<!-- Node11&#45;&gt;Node3 -->
<g id="edge24" class="edge"><title>Node11&#45;&gt;Node3</title>
<path fill="none" stroke="midnightblue" d="M298.877,-116.362C287.48,-107.777 271.242,-95.5459 258.122,-85.6636"/>
<polygon fill="midnightblue" stroke="midnightblue" points="260.127,-82.7916 250.033,-79.5707 255.915,-88.3829 260.127,-82.7916"/>
</g>
<!-- Node11&#45;&gt;Node6 -->
<g id="edge28" class="edge"><title>Node11&#45;&gt;Node6</title>
<path fill="none" stroke="midnightblue" d="M283.292,-116.438C257.647,-107.197 219.682,-93.2201 187,-80 143.119,-62.2498 93.1593,-40.0992 61.3758,-25.7582"/>
<polygon fill="midnightblue" stroke="midnightblue" points="62.676,-22.505 52.1224,-21.5718 59.7907,-28.8826 62.676,-22.505"/>
</g>
<!-- Node11&#45;&gt;Node8 -->
<g id="edge30" class="edge"><title>Node11&#45;&gt;Node8</title>
<path fill="none" stroke="midnightblue" d="M311.586,-116.462C310.215,-101.807 309.954,-75.1467 323,-58 327.788,-51.7076 366.416,-35.6523 395.899,-24.0564"/>
<polygon fill="midnightblue" stroke="midnightblue" points="397.442,-27.2115 405.485,-20.3154 394.897,-20.6905 397.442,-27.2115"/>
</g>
<!-- Node11&#45;&gt;Node12 -->
<g id="edge26" class="edge"><title>Node11&#45;&gt;Node12</title>
<path fill="none" stroke="midnightblue" d="M333.101,-116.497C350.282,-107.519 375.23,-94.4835 394.645,-84.3387"/>
<polygon fill="midnightblue" stroke="midnightblue" points="396.431,-87.3544 403.673,-79.6212 393.189,-81.1503 396.431,-87.3544"/>
</g>
<!-- Node13 -->
<g id="node30" class="node"><title>Node13</title>
<polygon fill="white" stroke="#bfbfbf" points="332,-58.5 332,-79.5 384,-79.5 384,-58.5 332,-58.5"/>
<text text-anchor="middle" x="358" y="-66.5" font-family="Helvetica,sans-Serif" font-size="10.00">ostream</text>
</g>
<!-- Node11&#45;&gt;Node13 -->
<g id="edge32" class="edge"><title>Node11&#45;&gt;Node13</title>
<path fill="none" stroke="midnightblue" d="M321.254,-116.362C327.47,-108.35 336.151,-97.1605 343.515,-87.6696"/>
<polygon fill="midnightblue" stroke="midnightblue" points="346.434,-89.617 349.799,-79.5707 340.903,-85.326 346.434,-89.617"/>
</g>
</g>
</svg>
