<?xml version="1.0" encoding="UTF-8" standalone="no"?>
<!DOCTYPE svg PUBLIC "-//W3C//DTD SVG 1.1//EN"
 "http://www.w3.org/Graphics/SVG/1.1/DTD/svg11.dtd">
<!-- Generated by graphviz version 2.26.3 (20100126.1600)
 -->
<!-- Title: src/analysis/physics/tunings/TwoPi0_MCSmearing.h Pages: 1 -->
<svg width="170pt" height="116pt"
 viewBox="0.00 0.00 170.00 116.00" xmlns="http://www.w3.org/2000/svg" xmlns:xlink="http://www.w3.org/1999/xlink">
<g id="graph1" class="graph" transform="scale(1 1) rotate(0) translate(4 112)">
<title>src/analysis/physics/tunings/TwoPi0_MCSmearing.h</title>
<polygon fill="white" stroke="white" points="-4,5 -4,-112 167,-112 167,5 -4,5"/>
<!-- Node87 -->
<g id="node1" class="node"><title>Node87</title>
<polygon fill="#bfbfbf" stroke="black" points="2,-73 2,-107 160,-107 160,-73 2,-73"/>
<text text-anchor="start" x="10" y="-94" font-family="Helvetica,sans-Serif" font-size="10.00">src/analysis/physics</text>
<text text-anchor="middle" x="81" y="-81" font-family="Helvetica,sans-Serif" font-size="10.00">/tunings/TwoPi0_MCSmearing.h</text>
</g>
<!-- Node88 -->
<g id="node3" class="node"><title>Node88</title>
<a xlink:href="_two_pi0___m_c_smearing_8cc.html" target="_top" xlink:title="src/analysis/physics\l/tunings/TwoPi0_MCSmearing.cc">
<polygon fill="white" stroke="black" points="-0.5,-1 -0.5,-35 162.5,-35 162.5,-1 -0.5,-1"/>
<text text-anchor="start" x="7.5" y="-22" font-family="Helvetica,sans-Serif" font-size="10.00">src/analysis/physics</text>
<text text-anchor="middle" x="81" y="-9" font-family="Helvetica,sans-Serif" font-size="10.00">/tunings/TwoPi0_MCSmearing.cc</text>
</a>
</g>
<!-- Node87&#45;&gt;Node88 -->
<g id="edge2" class="edge"><title>Node87&#45;&gt;Node88</title>
<path fill="none" stroke="midnightblue" d="M81,-62.7193C81,-53.572 81,-43.6255 81,-35.4407"/>
<polygon fill="midnightblue" stroke="midnightblue" points="77.5001,-62.937 81,-72.937 84.5001,-62.937 77.5001,-62.937"/>
</g>
</g>
</svg>
