<?xml version="1.0" encoding="UTF-8" standalone="no"?>
<!DOCTYPE svg PUBLIC "-//W3C//DTD SVG 1.1//EN"
 "http://www.w3.org/Graphics/SVG/1.1/DTD/svg11.dtd">
<!-- Generated by graphviz version 2.26.3 (20100126.1600)
 -->
<!-- Title: src/root&#45;addons/analysis_codes/TwoPi0_MCSmearing_tools.h Pages: 1 -->
<svg width="418pt" height="140pt"
 viewBox="0.00 0.00 418.00 140.00" xmlns="http://www.w3.org/2000/svg" xmlns:xlink="http://www.w3.org/1999/xlink">
<g id="graph1" class="graph" transform="scale(1 1) rotate(0) translate(4 136)">
<title>src/root&#45;addons/analysis_codes/TwoPi0_MCSmearing_tools.h</title>
<polygon fill="white" stroke="white" points="-4,5 -4,-136 415,-136 415,5 -4,5"/>
<!-- Node4 -->
<g id="node1" class="node"><title>Node4</title>
<polygon fill="#bfbfbf" stroke="black" points="109,-84.5 109,-131.5 255,-131.5 255,-84.5 109,-84.5"/>
<text text-anchor="start" x="117" y="-118.5" font-family="Helvetica,sans-Serif" font-size="10.00">src/root&#45;addons/analysis</text>
<text text-anchor="start" x="117" y="-105.5" font-family="Helvetica,sans-Serif" font-size="10.00">_codes/TwoPi0_MCSmearing</text>
<text text-anchor="middle" x="182" y="-92.5" font-family="Helvetica,sans-Serif" font-size="10.00">_tools.h</text>
</g>
<!-- Node5 -->
<g id="node3" class="node"><title>Node5</title>
<a xlink:href="_ant-_e_corr_8cc.html" target="_top" xlink:title="progs/Ant&#45;ECorr.cc">
<polygon fill="white" stroke="black" points="-0.5,-13.5 -0.5,-34.5 100.5,-34.5 100.5,-13.5 -0.5,-13.5"/>
<text text-anchor="middle" x="50" y="-21.5" font-family="Helvetica,sans-Serif" font-size="10.00">progs/Ant&#45;ECorr.cc</text>
</a>
</g>
<!-- Node4&#45;&gt;Node5 -->
<g id="edge2" class="edge"><title>Node4&#45;&gt;Node5</title>
<path fill="none" stroke="midnightblue" d="M136.24,-78.8797C112.23,-63.6009 84.2641,-45.8044 66.8436,-34.7186"/>
<polygon fill="midnightblue" stroke="midnightblue" points="134.564,-81.9618 144.879,-84.3778 138.322,-76.0562 134.564,-81.9618"/>
</g>
<!-- Node6 -->
<g id="node5" class="node"><title>Node6</title>
<a xlink:href="_ant-mcsmearing_8cc.html" target="_top" xlink:title="progs/Ant&#45;mcsmearing.cc">
<polygon fill="white" stroke="black" points="118,-13.5 118,-34.5 246,-34.5 246,-13.5 118,-13.5"/>
<text text-anchor="middle" x="182" y="-21.5" font-family="Helvetica,sans-Serif" font-size="10.00">progs/Ant&#45;mcsmearing.cc</text>
</a>
</g>
<!-- Node4&#45;&gt;Node6 -->
<g id="edge4" class="edge"><title>Node4&#45;&gt;Node6</title>
<path fill="none" stroke="midnightblue" d="M182,-73.772C182,-59.7488 182,-44.5279 182,-34.66"/>
<polygon fill="midnightblue" stroke="midnightblue" points="178.5,-74.1536 182,-84.1537 185.5,-74.1537 178.5,-74.1536"/>
</g>
<!-- Node7 -->
<g id="node7" class="node"><title>Node7</title>
<a xlink:href="_two_pi0___m_c_smearing__tools_8cc.html" target="_top" xlink:title="src/root&#45;addons/analysis\l_codes/TwoPi0_MCSmearing\l_tools.cc">
<polygon fill="white" stroke="black" points="264,-0.5 264,-47.5 410,-47.5 410,-0.5 264,-0.5"/>
<text text-anchor="start" x="272" y="-34.5" font-family="Helvetica,sans-Serif" font-size="10.00">src/root&#45;addons/analysis</text>
<text text-anchor="start" x="272" y="-21.5" font-family="Helvetica,sans-Serif" font-size="10.00">_codes/TwoPi0_MCSmearing</text>
<text text-anchor="middle" x="337" y="-8.5" font-family="Helvetica,sans-Serif" font-size="10.00">_tools.cc</text>
</a>
</g>
<!-- Node4&#45;&gt;Node7 -->
<g id="edge6" class="edge"><title>Node4&#45;&gt;Node7</title>
<path fill="none" stroke="midnightblue" d="M234.508,-79.544C253.689,-69.1492 275.157,-57.5149 293.47,-47.5903"/>
<polygon fill="midnightblue" stroke="midnightblue" points="232.713,-76.5359 225.589,-84.3778 236.048,-82.6902 232.713,-76.5359"/>
</g>
</g>
</svg>
