<?xml version="1.0" encoding="UTF-8" standalone="no"?>
<!DOCTYPE svg PUBLIC "-//W3C//DTD SVG 1.1//EN"
 "http://www.w3.org/Graphics/SVG/1.1/DTD/svg11.dtd">
<!-- Generated by graphviz version 2.26.3 (20100126.1600)
 -->
<!-- Title: src/unpacker/UnpackerAcqu.cc Pages: 1 -->
<svg width="3733pt" height="608pt"
 viewBox="0.00 0.00 3733.36 608.00" xmlns="http://www.w3.org/2000/svg" xmlns:xlink="http://www.w3.org/1999/xlink">
<g id="graph1" class="graph" transform="scale(1 1) rotate(0) translate(4 604)">
<title>src/unpacker/UnpackerAcqu.cc</title>
<polygon fill="white" stroke="white" points="-4,5 -4,-604 3730.36,-604 3730.36,5 -4,5"/>
<!-- Node0 -->
<g id="node1" class="node"><title>Node0</title>
<polygon fill="#bfbfbf" stroke="black" points="2209.36,-578.5 2209.36,-599.5 2363.36,-599.5 2363.36,-578.5 2209.36,-578.5"/>
<text text-anchor="middle" x="2286.36" y="-586.5" font-family="Helvetica,sans-Serif" font-size="10.00">src/unpacker/UnpackerAcqu.cc</text>
</g>
<!-- Node1 -->
<g id="node3" class="node"><title>Node1</title>
<a xlink:href="_unpacker_acqu_8h.html" target="_top" xlink:title="UnpackerAcqu.h">
<polygon fill="white" stroke="black" points="2486.86,-448.5 2486.86,-469.5 2575.86,-469.5 2575.86,-448.5 2486.86,-448.5"/>
<text text-anchor="middle" x="2531.36" y="-456.5" font-family="Helvetica,sans-Serif" font-size="10.00">UnpackerAcqu.h</text>
</a>
</g>
<!-- Node0&#45;&gt;Node1 -->
<g id="edge2" class="edge"><title>Node0&#45;&gt;Node1</title>
<path fill="none" stroke="midnightblue" d="M2306.41,-578.362C2349.68,-555.403 2451.96,-501.132 2502.32,-474.411"/>
<polygon fill="midnightblue" stroke="midnightblue" points="2504.18,-477.382 2511.38,-469.603 2500.9,-471.199 2504.18,-477.382"/>
</g>
<!-- Node17 -->
<g id="node37" class="node"><title>Node17</title>
<polygon fill="white" stroke="#bfbfbf" points="1610.86,-123.5 1610.86,-144.5 1669.86,-144.5 1669.86,-123.5 1610.86,-123.5"/>
<text text-anchor="middle" x="1640.36" y="-131.5" font-family="Helvetica,sans-Serif" font-size="10.00">stdexcept</text>
</g>
<!-- Node0&#45;&gt;Node17 -->
<g id="edge280" class="edge"><title>Node0&#45;&gt;Node17</title>
<path fill="none" stroke="midnightblue" d="M2271.34,-578.423C2186.48,-518.653 1767.13,-223.291 1663.53,-150.321"/>
<polygon fill="midnightblue" stroke="midnightblue" points="1665.49,-147.416 1655.3,-144.519 1661.46,-153.139 1665.49,-147.416"/>
</g>
<!-- Node56 -->
<g id="node177" class="node"><title>Node56</title>
<a xlink:href="_unpacker_acqu__detail_8h.html" target="_top" xlink:title="detail/UnpackerAcqu\l_detail.h">
<polygon fill="white" stroke="black" points="2232.86,-507 2232.86,-541 2339.86,-541 2339.86,-507 2232.86,-507"/>
<text text-anchor="start" x="2240.86" y="-528" font-family="Helvetica,sans-Serif" font-size="10.00">detail/UnpackerAcqu</text>
<text text-anchor="middle" x="2286.36" y="-515" font-family="Helvetica,sans-Serif" font-size="10.00">_detail.h</text>
</a>
</g>
<!-- Node0&#45;&gt;Node56 -->
<g id="edge240" class="edge"><title>Node0&#45;&gt;Node56</title>
<path fill="none" stroke="midnightblue" d="M2286.36,-578.267C2286.36,-570.931 2286.36,-560.857 2286.36,-551.38"/>
<polygon fill="midnightblue" stroke="midnightblue" points="2289.86,-551.11 2286.36,-541.11 2282.86,-551.11 2289.86,-551.11"/>
</g>
<!-- Node60 -->
<g id="node195" class="node"><title>Node60</title>
<a xlink:href="_t_event_8h.html" target="_top" xlink:title="tree/TEvent.h">
<polygon fill="white" stroke="black" points="1479.36,-195.5 1479.36,-216.5 1555.36,-216.5 1555.36,-195.5 1479.36,-195.5"/>
<text text-anchor="middle" x="1517.36" y="-203.5" font-family="Helvetica,sans-Serif" font-size="10.00">tree/TEvent.h</text>
</a>
</g>
<!-- Node0&#45;&gt;Node60 -->
<g id="edge268" class="edge"><title>Node0&#45;&gt;Node60</title>
<path fill="none" stroke="midnightblue" d="M2209.01,-587.67C2001.17,-583.721 1444.38,-570.518 1417.36,-542 1388.63,-511.671 1403.06,-487.253 1417.36,-448 1436.05,-396.726 1474.11,-403.831 1496.36,-354 1515.23,-311.741 1518,-256.541 1517.94,-226.935"/>
<polygon fill="midnightblue" stroke="midnightblue" points="1521.44,-226.539 1517.8,-216.588 1514.44,-226.634 1521.44,-226.539"/>
</g>
<!-- Node61 -->
<g id="node200" class="node"><title>Node61</title>
<a xlink:href="_logger_8h.html" target="_top" xlink:title="base/Logger.h">
<polygon fill="white" stroke="black" points="3125.36,-513.5 3125.36,-534.5 3203.36,-534.5 3203.36,-513.5 3125.36,-513.5"/>
<text text-anchor="middle" x="3164.36" y="-521.5" font-family="Helvetica,sans-Serif" font-size="10.00">base/Logger.h</text>
</a>
</g>
<!-- Node0&#45;&gt;Node61 -->
<g id="edge276" class="edge"><title>Node0&#45;&gt;Node61</title>
<path fill="none" stroke="midnightblue" d="M2363.51,-583.289C2540.04,-570.219 2969.38,-538.435 3115.06,-527.65"/>
<polygon fill="midnightblue" stroke="midnightblue" points="3115.34,-531.139 3125.05,-526.91 3114.82,-524.158 3115.34,-531.139"/>
</g>
<!-- Node2 -->
<g id="node5" class="node"><title>Node2</title>
<a xlink:href="_unpacker_8h.html" target="_top" xlink:title="Unpacker.h">
<polygon fill="white" stroke="black" points="398.86,-123.5 398.86,-144.5 465.86,-144.5 465.86,-123.5 398.86,-123.5"/>
<text text-anchor="middle" x="432.36" y="-131.5" font-family="Helvetica,sans-Serif" font-size="10.00">Unpacker.h</text>
</a>
</g>
<!-- Node1&#45;&gt;Node2 -->
<g id="edge4" class="edge"><title>Node1&#45;&gt;Node2</title>
<path fill="none" stroke="midnightblue" d="M2486.78,-457.806C2178.32,-449.405 373.36,-397.901 373.36,-343 373.36,-343 373.36,-343 373.36,-278 373.36,-230.148 401.602,-179.581 419.007,-152.961"/>
<polygon fill="midnightblue" stroke="midnightblue" points="421.963,-154.837 424.647,-144.588 416.157,-150.926 421.963,-154.837"/>
</g>
<!-- Node4 -->
<g id="node9" class="node"><title>Node4</title>
<polygon fill="white" stroke="#bfbfbf" points="379.36,-58.5 379.36,-79.5 431.36,-79.5 431.36,-58.5 379.36,-58.5"/>
<text text-anchor="middle" x="405.36" y="-66.5" font-family="Helvetica,sans-Serif" font-size="10.00">memory</text>
</g>
<!-- Node1&#45;&gt;Node4 -->
<g id="edge228" class="edge"><title>Node1&#45;&gt;Node4</title>
<path fill="none" stroke="midnightblue" d="M2486.75,-458.254C2248.96,-454.208 1128.5,-434.259 782.36,-412 631.448,-402.295 105.36,-494.224 105.36,-343 105.36,-343 105.36,-343 105.36,-278 105.36,-185.961 157.539,-166.691 234.36,-116 275.642,-88.7598 332.449,-77.1994 369.041,-72.3668"/>
<polygon fill="midnightblue" stroke="midnightblue" points="369.748,-75.8066 379.252,-71.1237 368.902,-68.8579 369.748,-75.8066"/>
</g>
<!-- Node5 -->
<g id="node11" class="node"><title>Node5</title>
<a xlink:href="_exp_config_8h.html" target="_top" xlink:title="expconfig/ExpConfig.h">
<polygon fill="white" stroke="black" points="2142.36,-390.5 2142.36,-411.5 2258.36,-411.5 2258.36,-390.5 2142.36,-390.5"/>
<text text-anchor="middle" x="2200.36" y="-398.5" font-family="Helvetica,sans-Serif" font-size="10.00">expconfig/ExpConfig.h</text>
</a>
</g>
<!-- Node1&#45;&gt;Node5 -->
<g id="edge10" class="edge"><title>Node1&#45;&gt;Node5</title>
<path fill="none" stroke="midnightblue" d="M2486.72,-451.178C2430.69,-441.36 2334.03,-424.422 2268.67,-412.97"/>
<polygon fill="midnightblue" stroke="midnightblue" points="2268.92,-409.46 2258.46,-411.181 2267.71,-416.355 2268.92,-409.46"/>
</g>
<!-- Node6 -->
<g id="node13" class="node"><title>Node6</title>
<a xlink:href="_detector__t_8h.html" target="_top" xlink:title="base/Detector_t.h">
<polygon fill="white" stroke="black" points="2751.86,-195.5 2751.86,-216.5 2846.86,-216.5 2846.86,-195.5 2751.86,-195.5"/>
<text text-anchor="middle" x="2799.36" y="-203.5" font-family="Helvetica,sans-Serif" font-size="10.00">base/Detector_t.h</text>
</a>
</g>
<!-- Node1&#45;&gt;Node6 -->
<g id="edge226" class="edge"><title>Node1&#45;&gt;Node6</title>
<path fill="none" stroke="midnightblue" d="M2542.53,-448.451C2583.91,-409.392 2728.68,-272.724 2780.63,-223.684"/>
<polygon fill="midnightblue" stroke="midnightblue" points="2783.27,-226.004 2788.14,-216.594 2778.46,-220.914 2783.27,-226.004"/>
</g>
<!-- Node14 -->
<g id="node31" class="node"><title>Node14</title>
<polygon fill="white" stroke="#bfbfbf" points="3215.36,-58.5 3215.36,-79.5 3255.36,-79.5 3255.36,-58.5 3215.36,-58.5"/>
<text text-anchor="middle" x="3235.36" y="-66.5" font-family="Helvetica,sans-Serif" font-size="10.00">limits</text>
</g>
<!-- Node1&#45;&gt;Node14 -->
<g id="edge238" class="edge"><title>Node1&#45;&gt;Node14</title>
<path fill="none" stroke="midnightblue" d="M2576.02,-458.163C2761,-454.119 3457.36,-432.921 3457.36,-343 3457.36,-343 3457.36,-343 3457.36,-206 3457.36,-165.118 3467.33,-144.849 3438.36,-116 3384.59,-62.4487 3343.5,-98.9561 3265.24,-79.7377"/>
<polygon fill="midnightblue" stroke="midnightblue" points="3266.07,-76.3376 3255.5,-77.1079 3264.24,-83.0953 3266.07,-76.3376"/>
</g>
<!-- Node15 -->
<g id="node33" class="node"><title>Node15</title>
<polygon fill="white" stroke="#bfbfbf" points="3165.36,-0.5 3165.36,-21.5 3209.36,-21.5 3209.36,-0.5 3165.36,-0.5"/>
<text text-anchor="middle" x="3187.36" y="-8.5" font-family="Helvetica,sans-Serif" font-size="10.00">vector</text>
</g>
<!-- Node1&#45;&gt;Node15 -->
<g id="edge234" class="edge"><title>Node1&#45;&gt;Node15</title>
<path fill="none" stroke="midnightblue" d="M2575.87,-457.797C2723.06,-453.602 3193.16,-438.422 3342.36,-412 3447.03,-393.464 3571.36,-449.298 3571.36,-343 3571.36,-343 3571.36,-343 3571.36,-134 3571.36,-120.362 3573.28,-102.82 3462.36,-58 3379.17,-24.3853 3272.39,-14.8088 3219.71,-12.0829"/>
<polygon fill="midnightblue" stroke="midnightblue" points="3219.77,-8.582 3209.62,-11.6114 3219.44,-15.5744 3219.77,-8.582"/>
</g>
<!-- Node16 -->
<g id="node35" class="node"><title>Node16</title>
<polygon fill="white" stroke="#bfbfbf" points="3383.36,-123.5 3383.36,-144.5 3429.36,-144.5 3429.36,-123.5 3383.36,-123.5"/>
<text text-anchor="middle" x="3406.36" y="-131.5" font-family="Helvetica,sans-Serif" font-size="10.00">cstdint</text>
</g>
<!-- Node1&#45;&gt;Node16 -->
<g id="edge236" class="edge"><title>Node1&#45;&gt;Node16</title>
<path fill="none" stroke="midnightblue" d="M2576.14,-457.381C2693.02,-451.943 2998.36,-429.464 2998.36,-343 2998.36,-343 2998.36,-343 2998.36,-278 2998.36,-110.998 3190.43,-192.827 3352.36,-152 3359.25,-150.263 3366.53,-148.082 3373.43,-145.844"/>
<polygon fill="midnightblue" stroke="midnightblue" points="3374.83,-149.068 3383.2,-142.568 3372.6,-142.431 3374.83,-149.068"/>
</g>
<!-- Node22 -->
<g id="node51" class="node"><title>Node22</title>
<polygon fill="white" stroke="#bfbfbf" points="2257.86,-58.5 2257.86,-79.5 2286.86,-79.5 2286.86,-58.5 2257.86,-58.5"/>
<text text-anchor="middle" x="2272.36" y="-66.5" font-family="Helvetica,sans-Serif" font-size="10.00">list</text>
</g>
<!-- Node1&#45;&gt;Node22 -->
<g id="edge230" class="edge"><title>Node1&#45;&gt;Node22</title>
<path fill="none" stroke="midnightblue" d="M2528.87,-448.283C2517.72,-402.445 2468.3,-220.466 2364.36,-116 2341.14,-92.6597 2326.14,-96.1264 2296.48,-82.3634"/>
<polygon fill="midnightblue" stroke="midnightblue" points="2297.75,-79.0878 2287.24,-77.7416 2294.62,-85.3474 2297.75,-79.0878"/>
</g>
<!-- Node26 -->
<g id="node65" class="node"><title>Node26</title>
<polygon fill="white" stroke="#bfbfbf" points="2266.86,-195.5 2266.86,-216.5 2301.86,-216.5 2301.86,-195.5 2266.86,-195.5"/>
<text text-anchor="middle" x="2284.36" y="-203.5" font-family="Helvetica,sans-Serif" font-size="10.00">map</text>
</g>
<!-- Node1&#45;&gt;Node26 -->
<g id="edge232" class="edge"><title>Node1&#45;&gt;Node26</title>
<path fill="none" stroke="midnightblue" d="M2521.06,-448.451C2483.01,-409.472 2350.05,-273.286 2301.92,-223.988"/>
<polygon fill="midnightblue" stroke="midnightblue" points="2304.19,-221.304 2294.7,-216.594 2299.18,-226.194 2304.19,-221.304"/>
</g>
<!-- Node3 -->
<g id="node7" class="node"><title>Node3</title>
<polygon fill="white" stroke="#bfbfbf" points="365.86,-0.5 365.86,-21.5 406.86,-21.5 406.86,-0.5 365.86,-0.5"/>
<text text-anchor="middle" x="386.36" y="-8.5" font-family="Helvetica,sans-Serif" font-size="10.00">string</text>
</g>
<!-- Node2&#45;&gt;Node3 -->
<g id="edge6" class="edge"><title>Node2&#45;&gt;Node3</title>
<path fill="none" stroke="midnightblue" d="M436.767,-123.375C442.369,-108.159 450.202,-79.6133 440.36,-58 434.767,-45.7168 424.202,-35.3973 413.89,-27.5857"/>
<polygon fill="midnightblue" stroke="midnightblue" points="415.597,-24.5079 405.402,-21.6259 411.575,-30.2368 415.597,-24.5079"/>
</g>
<!-- Node2&#45;&gt;Node4 -->
<g id="edge8" class="edge"><title>Node2&#45;&gt;Node4</title>
<path fill="none" stroke="midnightblue" d="M427.902,-123.267C424.049,-113.991 418.377,-100.336 413.687,-89.0453"/>
<polygon fill="midnightblue" stroke="midnightblue" points="416.804,-87.426 409.736,-79.5337 410.34,-90.1113 416.804,-87.426"/>
</g>
<!-- Node5&#45;&gt;Node4 -->
<g id="edge220" class="edge"><title>Node5&#45;&gt;Node4</title>
<path fill="none" stroke="midnightblue" d="M2142.25,-400.116C1824.15,-394.998 305.571,-366.904 238.36,-296 205.51,-261.345 168.345,-226.843 264.36,-116 278.22,-99.9999 332.233,-85.2029 369.236,-76.6392"/>
<polygon fill="midnightblue" stroke="midnightblue" points="370.192,-80.0116 379.174,-74.3933 368.649,-73.1838 370.192,-80.0116"/>
</g>
<!-- Node5&#45;&gt;Node6 -->
<g id="edge12" class="edge"><title>Node5&#45;&gt;Node6</title>
<path fill="none" stroke="midnightblue" d="M2258.68,-392.535C2344.63,-378.864 2509.4,-348.061 2641.36,-296 2691.66,-276.157 2745.38,-242.578 2775.43,-222.526"/>
<polygon fill="midnightblue" stroke="midnightblue" points="2777.63,-225.262 2783.96,-216.768 2773.72,-219.459 2777.63,-225.262"/>
</g>
<!-- Node19 -->
<g id="node43" class="node"><title>Node19</title>
<a xlink:href="_reconstruct__traits_8h.html" target="_top" xlink:title="reconstruct/Reconstruct\l_traits.h">
<polygon fill="white" stroke="black" points="1367.36,-261 1367.36,-295 1489.36,-295 1489.36,-261 1367.36,-261"/>
<text text-anchor="start" x="1375.36" y="-282" font-family="Helvetica,sans-Serif" font-size="10.00">reconstruct/Reconstruct</text>
<text text-anchor="middle" x="1428.36" y="-269" font-family="Helvetica,sans-Serif" font-size="10.00">_traits.h</text>
</a>
</g>
<!-- Node5&#45;&gt;Node19 -->
<g id="edge46" class="edge"><title>Node5&#45;&gt;Node19</title>
<path fill="none" stroke="midnightblue" d="M2142.33,-391.755C2003.25,-369.595 1651.18,-313.501 1499.59,-289.348"/>
<polygon fill="midnightblue" stroke="midnightblue" points="1499.88,-285.852 1489.46,-287.734 1498.78,-292.764 1499.88,-285.852"/>
</g>
<!-- Node5&#45;&gt;Node22 -->
<g id="edge222" class="edge"><title>Node5&#45;&gt;Node22</title>
<path fill="none" stroke="midnightblue" d="M2213.71,-390.385C2243.99,-365.338 2317.25,-298.99 2343.36,-224 2359.14,-178.669 2366.08,-158.283 2343.36,-116 2340.66,-110.969 2315.35,-94.887 2295.71,-82.9281"/>
<polygon fill="midnightblue" stroke="midnightblue" points="2297.29,-79.7918 2286.92,-77.6167 2293.67,-85.7833 2297.29,-79.7918"/>
</g>
<!-- Node5&#45;&gt;Node26 -->
<g id="edge224" class="edge"><title>Node5&#45;&gt;Node26</title>
<path fill="none" stroke="midnightblue" d="M2205,-390.238C2218.5,-358.882 2257.98,-267.235 2275.64,-226.234"/>
<polygon fill="midnightblue" stroke="midnightblue" points="2278.89,-227.538 2279.64,-216.969 2272.46,-224.768 2278.89,-227.538"/>
</g>
<!-- Node27 -->
<g id="node69" class="node"><title>Node27</title>
<a xlink:href="_calibration_8h.html" target="_top" xlink:title="calibration/Calibration.h">
<polygon fill="white" stroke="black" points="1368.86,-332.5 1368.86,-353.5 1487.86,-353.5 1487.86,-332.5 1368.86,-332.5"/>
<text text-anchor="middle" x="1428.36" y="-340.5" font-family="Helvetica,sans-Serif" font-size="10.00">calibration/Calibration.h</text>
</a>
</g>
<!-- Node5&#45;&gt;Node27 -->
<g id="edge82" class="edge"><title>Node5&#45;&gt;Node27</title>
<path fill="none" stroke="midnightblue" d="M2142.33,-396.641C2002.82,-386.159 1649.01,-359.577 1498.19,-348.246"/>
<polygon fill="midnightblue" stroke="midnightblue" points="1498.35,-344.749 1488.12,-347.49 1497.83,-351.729 1498.35,-344.749"/>
</g>
<!-- Node52 -->
<g id="node152" class="node"><title>Node52</title>
<a xlink:href="piecewise__interval_8h.html" target="_top" xlink:title="base/piecewise_interval.h">
<polygon fill="white" stroke="black" points="2503.86,-267.5 2503.86,-288.5 2632.86,-288.5 2632.86,-267.5 2503.86,-267.5"/>
<text text-anchor="middle" x="2568.36" y="-275.5" font-family="Helvetica,sans-Serif" font-size="10.00">base/piecewise_interval.h</text>
</a>
</g>
<!-- Node5&#45;&gt;Node52 -->
<g id="edge198" class="edge"><title>Node5&#45;&gt;Node52</title>
<path fill="none" stroke="midnightblue" d="M2234.45,-390.454C2262.6,-381.494 2303.44,-367.906 2338.36,-354 2360.16,-345.317 2364.39,-340.247 2386.36,-332 2429.51,-315.802 2479.83,-301.186 2516.61,-291.258"/>
<polygon fill="midnightblue" stroke="midnightblue" points="2517.85,-294.549 2526.61,-288.584 2516.04,-287.786 2517.85,-294.549"/>
</g>
<!-- Node6&#45;&gt;Node3 -->
<g id="edge40" class="edge"><title>Node6&#45;&gt;Node3</title>
<path fill="none" stroke="midnightblue" d="M2771.82,-195.5C2762.88,-192.535 2752.81,-189.666 2743.36,-188 2326.81,-114.6 2209.1,-224.333 1792.36,-152 1740.01,-142.914 1729.82,-129.213 1678.36,-116 1550.63,-83.2061 1518.26,-74.0264 1387.36,-58 1192.57,-34.1508 563.696,-15.835 417.106,-11.8218"/>
<polygon fill="midnightblue" stroke="midnightblue" points="417.113,-8.32075 407.021,-11.5475 416.922,-15.3182 417.113,-8.32075"/>
</g>
<!-- Node7 -->
<g id="node15" class="node"><title>Node7</title>
<a xlink:href="bitflag_8h.html" target="_top" xlink:title="base/bitflag.h">
<polygon fill="white" stroke="black" points="3252.86,-123.5 3252.86,-144.5 3327.86,-144.5 3327.86,-123.5 3252.86,-123.5"/>
<text text-anchor="middle" x="3290.36" y="-131.5" font-family="Helvetica,sans-Serif" font-size="10.00">base/bitflag.h</text>
</a>
</g>
<!-- Node6&#45;&gt;Node7 -->
<g id="edge14" class="edge"><title>Node6&#45;&gt;Node7</title>
<path fill="none" stroke="midnightblue" d="M2846.94,-201.48C2944.78,-191.968 3165.56,-169.334 3239.36,-152 3244.19,-150.865 3249.2,-149.432 3254.11,-147.872"/>
<polygon fill="midnightblue" stroke="midnightblue" points="3255.6,-151.063 3263.95,-144.546 3253.36,-144.431 3255.6,-151.063"/>
</g>
<!-- Node9 -->
<g id="node19" class="node"><title>Node9</title>
<a xlink:href="vec3_8h.html" target="_top" xlink:title="base/vec/vec3.h">
<polygon fill="white" stroke="black" points="2908.86,-123.5 2908.86,-144.5 2997.86,-144.5 2997.86,-123.5 2908.86,-123.5"/>
<text text-anchor="middle" x="2953.36" y="-131.5" font-family="Helvetica,sans-Serif" font-size="10.00">base/vec/vec3.h</text>
</a>
</g>
<!-- Node6&#45;&gt;Node9 -->
<g id="edge18" class="edge"><title>Node6&#45;&gt;Node9</title>
<path fill="none" stroke="midnightblue" d="M2822.08,-195.376C2848.43,-183.057 2892.03,-162.673 2921.69,-148.805"/>
<polygon fill="midnightblue" stroke="midnightblue" points="2923.22,-151.956 2930.79,-144.55 2920.25,-145.615 2923.22,-151.956"/>
</g>
<!-- Node13 -->
<g id="node28" class="node"><title>Node13</title>
<a xlink:href="base_2std__ext_2math_8h.html" target="_top" xlink:title="base/std_ext/math.h">
<polygon fill="white" stroke="black" points="3091.36,-123.5 3091.36,-144.5 3197.36,-144.5 3197.36,-123.5 3091.36,-123.5"/>
<text text-anchor="middle" x="3144.36" y="-131.5" font-family="Helvetica,sans-Serif" font-size="10.00">base/std_ext/math.h</text>
</a>
</g>
<!-- Node6&#45;&gt;Node13 -->
<g id="edge28" class="edge"><title>Node6&#45;&gt;Node13</title>
<path fill="none" stroke="midnightblue" d="M2847.29,-197.751C2902.87,-187.941 2997.12,-170.547 3077.36,-152 3083.68,-150.54 3090.3,-148.899 3096.81,-147.217"/>
<polygon fill="midnightblue" stroke="midnightblue" points="3098.13,-150.489 3106.92,-144.56 3096.35,-143.719 3098.13,-150.489"/>
</g>
<!-- Node6&#45;&gt;Node15 -->
<g id="edge44" class="edge"><title>Node6&#45;&gt;Node15</title>
<path fill="none" stroke="midnightblue" d="M2846.91,-201.323C2978.06,-188.409 3335.33,-153.135 3336.36,-152 3351.48,-135.283 3325,-60.9118 3322.36,-58 3308.37,-42.5607 3254.64,-27.1535 3219.33,-18.3793"/>
<polygon fill="midnightblue" stroke="midnightblue" points="3220.02,-14.9431 3209.47,-15.9812 3218.36,-21.7449 3220.02,-14.9431"/>
</g>
<!-- Node6&#45;&gt;Node16 -->
<g id="edge36" class="edge"><title>Node6&#45;&gt;Node16</title>
<path fill="none" stroke="midnightblue" d="M2846.88,-201.327C2884.25,-197.664 2937.62,-192.459 2984.36,-188 3155.44,-171.679 3203.87,-198.338 3369.36,-152 3372.52,-151.114 3375.75,-149.965 3378.9,-148.677"/>
<polygon fill="midnightblue" stroke="midnightblue" points="3380.4,-151.841 3388.05,-144.515 3377.5,-145.469 3380.4,-151.841"/>
</g>
<!-- Node6&#45;&gt;Node17 -->
<g id="edge38" class="edge"><title>Node6&#45;&gt;Node17</title>
<path fill="none" stroke="midnightblue" d="M2771.83,-195.478C2762.88,-192.512 2752.82,-189.647 2743.36,-188 2511.17,-147.551 1913.62,-202.329 1683.36,-152 1679.18,-151.086 1674.89,-149.782 1670.72,-148.288"/>
<polygon fill="midnightblue" stroke="midnightblue" points="1671.88,-144.984 1661.3,-144.55 1669.3,-151.491 1671.88,-144.984"/>
</g>
<!-- Node18 -->
<g id="node40" class="node"><title>Node18</title>
<polygon fill="white" stroke="#bfbfbf" points="2471.36,-123.5 2471.36,-144.5 2533.36,-144.5 2533.36,-123.5 2471.36,-123.5"/>
<text text-anchor="middle" x="2502.36" y="-131.5" font-family="Helvetica,sans-Serif" font-size="10.00">type_traits</text>
</g>
<!-- Node6&#45;&gt;Node18 -->
<g id="edge42" class="edge"><title>Node6&#45;&gt;Node18</title>
<path fill="none" stroke="midnightblue" d="M2769.06,-195.444C2760.79,-192.787 2751.78,-190.098 2743.36,-188 2655.3,-166.065 2629.06,-178.823 2542.36,-152 2539.16,-151.01 2535.88,-149.828 2532.64,-148.55"/>
<polygon fill="midnightblue" stroke="midnightblue" points="2533.73,-145.213 2523.16,-144.522 2530.99,-151.655 2533.73,-145.213"/>
</g>
<!-- Node8 -->
<g id="node17" class="node"><title>Node8</title>
<polygon fill="white" stroke="#bfbfbf" points="3272.86,-58.5 3272.86,-79.5 3313.86,-79.5 3313.86,-58.5 3272.86,-58.5"/>
<text text-anchor="middle" x="3293.36" y="-66.5" font-family="Helvetica,sans-Serif" font-size="10.00">bitset</text>
</g>
<!-- Node7&#45;&gt;Node8 -->
<g id="edge16" class="edge"><title>Node7&#45;&gt;Node8</title>
<path fill="none" stroke="midnightblue" d="M3290.86,-123.267C3291.27,-114.18 3291.89,-100.892 3292.4,-89.7395"/>
<polygon fill="midnightblue" stroke="midnightblue" points="3295.91,-89.6845 3292.87,-79.5337 3288.92,-89.3617 3295.91,-89.6845"/>
</g>
<!-- Node10 -->
<g id="node21" class="node"><title>Node10</title>
<a xlink:href="vec2_8h.html" target="_top" xlink:title="vec2.h">
<polygon fill="white" stroke="black" points="2879.36,-58.5 2879.36,-79.5 2925.36,-79.5 2925.36,-58.5 2879.36,-58.5"/>
<text text-anchor="middle" x="2902.36" y="-66.5" font-family="Helvetica,sans-Serif" font-size="10.00">vec2.h</text>
</a>
</g>
<!-- Node9&#45;&gt;Node10 -->
<g id="edge20" class="edge"><title>Node9&#45;&gt;Node10</title>
<path fill="none" stroke="midnightblue" d="M2944.94,-123.267C2937.36,-113.612 2926.07,-99.2145 2917.01,-87.675"/>
<polygon fill="midnightblue" stroke="midnightblue" points="2919.55,-85.2406 2910.63,-79.5337 2914.04,-89.5616 2919.55,-85.2406"/>
</g>
<!-- Node11 -->
<g id="node23" class="node"><title>Node11</title>
<polygon fill="white" stroke="#bfbfbf" points="2880.36,-0.5 2880.36,-21.5 2924.36,-21.5 2924.36,-0.5 2880.36,-0.5"/>
<text text-anchor="middle" x="2902.36" y="-8.5" font-family="Helvetica,sans-Serif" font-size="10.00">cmath</text>
</g>
<!-- Node9&#45;&gt;Node11 -->
<g id="edge26" class="edge"><title>Node9&#45;&gt;Node11</title>
<path fill="none" stroke="midnightblue" d="M2951.9,-123.286C2949.58,-108.205 2944.26,-80.0914 2934.36,-58 2929.91,-48.0771 2923.37,-37.9915 2917.35,-29.7205"/>
<polygon fill="midnightblue" stroke="midnightblue" points="2919.99,-27.4059 2911.16,-21.5513 2914.41,-31.6347 2919.99,-27.4059"/>
</g>
<!-- Node12 -->
<g id="node25" class="node"><title>Node12</title>
<polygon fill="white" stroke="#bfbfbf" points="2809.36,-58.5 2809.36,-79.5 2861.36,-79.5 2861.36,-58.5 2809.36,-58.5"/>
<text text-anchor="middle" x="2835.36" y="-66.5" font-family="Helvetica,sans-Serif" font-size="10.00">ostream</text>
</g>
<!-- Node9&#45;&gt;Node12 -->
<g id="edge24" class="edge"><title>Node9&#45;&gt;Node12</title>
<path fill="none" stroke="midnightblue" d="M2934.14,-123.412C2914.94,-112.836 2885.22,-96.4645 2863.39,-84.4408"/>
<polygon fill="midnightblue" stroke="midnightblue" points="2865.02,-81.3428 2854.57,-79.5835 2861.64,-87.4741 2865.02,-81.3428"/>
</g>
<!-- Node10&#45;&gt;Node11 -->
<g id="edge22" class="edge"><title>Node10&#45;&gt;Node11</title>
<path fill="none" stroke="midnightblue" d="M2902.36,-58.3619C2902.36,-50.9219 2902.36,-40.7427 2902.36,-31.7276"/>
<polygon fill="midnightblue" stroke="midnightblue" points="2905.86,-31.5706 2902.36,-21.5707 2898.86,-31.5707 2905.86,-31.5706"/>
</g>
<!-- Node13&#45;&gt;Node11 -->
<g id="edge30" class="edge"><title>Node13&#45;&gt;Node11</title>
<path fill="none" stroke="midnightblue" d="M3134.59,-123.366C3119.08,-107.08 3087.19,-75.9613 3054.36,-58 3015.82,-36.9192 2966.51,-23.8926 2934.68,-17.0484"/>
<polygon fill="midnightblue" stroke="midnightblue" points="2935.1,-13.5608 2924.6,-14.9616 2933.68,-20.4156 2935.1,-13.5608"/>
</g>
<!-- Node13&#45;&gt;Node14 -->
<g id="edge32" class="edge"><title>Node13&#45;&gt;Node14</title>
<path fill="none" stroke="midnightblue" d="M3159.39,-123.267C3173.7,-113.044 3195.45,-97.5043 3212.02,-85.6699"/>
<polygon fill="midnightblue" stroke="midnightblue" points="3214.51,-88.1942 3220.61,-79.5337 3210.44,-82.4981 3214.51,-88.1942"/>
</g>
<!-- Node13&#45;&gt;Node15 -->
<g id="edge34" class="edge"><title>Node13&#45;&gt;Node15</title>
<path fill="none" stroke="midnightblue" d="M3148.16,-123.246C3152,-112.351 3158.11,-95.0094 3163.36,-80 3169.1,-63.5913 3175.57,-44.974 3180.35,-31.2166"/>
<polygon fill="midnightblue" stroke="midnightblue" points="3183.66,-32.3555 3183.63,-21.7607 3177.05,-30.0608 3183.66,-32.3555"/>
</g>
<!-- Node19&#45;&gt;Node4 -->
<g id="edge74" class="edge"><title>Node19&#45;&gt;Node4</title>
<path fill="none" stroke="midnightblue" d="M1367.07,-273.852C1259.15,-266.23 1028.27,-248.506 834.36,-224 636.027,-198.935 519.912,-304.252 390.36,-152 375.399,-134.417 384.556,-107.01 393.798,-88.5486"/>
<polygon fill="midnightblue" stroke="midnightblue" points="396.975,-90.0322 398.65,-79.5707 390.816,-86.7041 396.975,-90.0322"/>
</g>
<!-- Node19&#45;&gt;Node6 -->
<g id="edge48" class="edge"><title>Node19&#45;&gt;Node6</title>
<path fill="none" stroke="midnightblue" d="M1489.7,-277.672C1715.19,-276.126 2497.87,-267.663 2743.36,-224 2749.35,-222.935 2755.59,-221.39 2761.63,-219.647"/>
<polygon fill="midnightblue" stroke="midnightblue" points="2763.02,-222.88 2771.53,-216.577 2760.95,-216.194 2763.02,-222.88"/>
</g>
<!-- Node20 -->
<g id="node46" class="node"><title>Node20</title>
<a xlink:href="mapped__vectors_8h.html" target="_top" xlink:title="base/std_ext/mapped\l_vectors.h">
<polygon fill="white" stroke="black" points="1211.36,-189 1211.36,-223 1321.36,-223 1321.36,-189 1211.36,-189"/>
<text text-anchor="start" x="1219.36" y="-210" font-family="Helvetica,sans-Serif" font-size="10.00">base/std_ext/mapped</text>
<text text-anchor="middle" x="1266.36" y="-197" font-family="Helvetica,sans-Serif" font-size="10.00">_vectors.h</text>
</a>
</g>
<!-- Node19&#45;&gt;Node20 -->
<g id="edge50" class="edge"><title>Node19&#45;&gt;Node20</title>
<path fill="none" stroke="midnightblue" d="M1389.97,-260.937C1367.25,-250.841 1338.29,-237.968 1314.11,-227.221"/>
<polygon fill="midnightblue" stroke="midnightblue" points="1315.32,-223.928 1304.76,-223.065 1312.47,-230.325 1315.32,-223.928"/>
</g>
<!-- Node19&#45;&gt;Node22 -->
<g id="edge78" class="edge"><title>Node19&#45;&gt;Node22</title>
<path fill="none" stroke="midnightblue" d="M1489.37,-276.777C1663.19,-272.882 2152.5,-258.906 2215.36,-224 2249.87,-204.837 2254.09,-189.176 2267.36,-152 2274.61,-131.702 2275.1,-106.85 2274.25,-89.6591"/>
<polygon fill="midnightblue" stroke="midnightblue" points="2277.74,-89.3299 2273.56,-79.5936 2270.76,-89.8101 2277.74,-89.3299"/>
</g>
<!-- Node23 -->
<g id="node56" class="node"><title>Node23</title>
<a xlink:href="shared__ptr__container_8h.html" target="_top" xlink:title="base/std_ext/shared\l_ptr_container.h">
<polygon fill="white" stroke="black" points="1376.86,-117 1376.86,-151 1481.86,-151 1481.86,-117 1376.86,-117"/>
<text text-anchor="start" x="1384.86" y="-138" font-family="Helvetica,sans-Serif" font-size="10.00">base/std_ext/shared</text>
<text text-anchor="middle" x="1429.36" y="-125" font-family="Helvetica,sans-Serif" font-size="10.00">_ptr_container.h</text>
</a>
</g>
<!-- Node19&#45;&gt;Node23 -->
<g id="edge64" class="edge"><title>Node19&#45;&gt;Node23</title>
<path fill="none" stroke="midnightblue" d="M1428.48,-260.916C1428.65,-236.341 1428.97,-190.753 1429.17,-161.427"/>
<polygon fill="midnightblue" stroke="midnightblue" points="1432.67,-161.086 1429.24,-151.062 1425.67,-161.037 1432.67,-161.086"/>
</g>
<!-- Node24 -->
<g id="node60" class="node"><title>Node24</title>
<polygon fill="white" stroke="#bfbfbf" points="1319.86,-58.5 1319.86,-79.5 1378.86,-79.5 1378.86,-58.5 1319.86,-58.5"/>
<text text-anchor="middle" x="1349.36" y="-66.5" font-family="Helvetica,sans-Serif" font-size="10.00">functional</text>
</g>
<!-- Node19&#45;&gt;Node24 -->
<g id="edge80" class="edge"><title>Node19&#45;&gt;Node24</title>
<path fill="none" stroke="midnightblue" d="M1418.77,-260.98C1405.74,-237.232 1382.45,-192.504 1368.36,-152 1361.15,-131.27 1355.91,-106.666 1352.78,-89.6554"/>
<polygon fill="midnightblue" stroke="midnightblue" points="1356.21,-88.9342 1351.03,-79.6905 1349.32,-90.1453 1356.21,-88.9342"/>
</g>
<!-- Node19&#45;&gt;Node26 -->
<g id="edge76" class="edge"><title>Node19&#45;&gt;Node26</title>
<path fill="none" stroke="midnightblue" d="M1489.43,-277.605C1655.18,-275.962 2110.56,-267.503 2253.36,-224 2255.67,-223.296 2257.99,-222.392 2260.27,-221.364"/>
<polygon fill="midnightblue" stroke="midnightblue" points="2262.02,-224.399 2269.24,-216.642 2258.76,-218.205 2262.02,-224.399"/>
</g>
<!-- Node20&#45;&gt;Node4 -->
<g id="edge60" class="edge"><title>Node20&#45;&gt;Node4</title>
<path fill="none" stroke="midnightblue" d="M1231.44,-188.899C1178.69,-163.091 1084.35,-117.061 1080.36,-116 958.182,-83.4863 564.241,-72.4208 441.932,-69.7219"/>
<polygon fill="midnightblue" stroke="midnightblue" points="441.688,-66.216 431.615,-69.5001 441.537,-73.2144 441.688,-66.216"/>
</g>
<!-- Node20&#45;&gt;Node15 -->
<g id="edge58" class="edge"><title>Node20&#45;&gt;Node15</title>
<path fill="none" stroke="midnightblue" d="M1321.7,-200.143C1362.7,-196.042 1419.95,-190.812 1470.36,-188 1640.81,-178.493 2845.57,-209.352 3006.36,-152 3077.31,-126.694 3142.2,-61.8381 3171.27,-29.6695"/>
<polygon fill="midnightblue" stroke="midnightblue" points="3174.17,-31.6824 3178.19,-21.8803 3168.93,-27.0354 3174.17,-31.6824"/>
</g>
<!-- Node20&#45;&gt;Node18 -->
<g id="edge62" class="edge"><title>Node20&#45;&gt;Node18</title>
<path fill="none" stroke="midnightblue" d="M1321.73,-200.535C1362.74,-196.628 1419.99,-191.47 1470.36,-188 1792.66,-165.798 1873.77,-169.486 2196.36,-152 2291.1,-146.865 2402.31,-140.151 2461.08,-136.549"/>
<polygon fill="midnightblue" stroke="midnightblue" points="2461.32,-140.041 2471.09,-135.935 2460.89,-133.054 2461.32,-140.041"/>
</g>
<!-- Node21 -->
<g id="node48" class="node"><title>Node21</title>
<a xlink:href="memory_8h.html" target="_top" xlink:title="base/std_ext/memory.h">
<polygon fill="white" stroke="black" points="1164.86,-123.5 1164.86,-144.5 1283.86,-144.5 1283.86,-123.5 1164.86,-123.5"/>
<text text-anchor="middle" x="1224.36" y="-131.5" font-family="Helvetica,sans-Serif" font-size="10.00">base/std_ext/memory.h</text>
</a>
</g>
<!-- Node20&#45;&gt;Node21 -->
<g id="edge52" class="edge"><title>Node20&#45;&gt;Node21</title>
<path fill="none" stroke="midnightblue" d="M1256.41,-188.937C1250.25,-178.387 1242.33,-164.805 1235.9,-153.785"/>
<polygon fill="midnightblue" stroke="midnightblue" points="1238.78,-151.775 1230.72,-144.901 1232.73,-155.302 1238.78,-151.775"/>
</g>
<!-- Node21&#45;&gt;Node4 -->
<g id="edge54" class="edge"><title>Node21&#45;&gt;Node4</title>
<path fill="none" stroke="midnightblue" d="M1166.03,-123.48C1149.09,-120.712 1130.53,-117.957 1113.36,-116 856.879,-86.7573 545.895,-73.8964 441.492,-70.1922"/>
<polygon fill="midnightblue" stroke="midnightblue" points="441.593,-66.6937 431.477,-69.8427 441.349,-73.6894 441.593,-66.6937"/>
</g>
<!-- Node21&#45;&gt;Node22 -->
<g id="edge56" class="edge"><title>Node21&#45;&gt;Node22</title>
<path fill="none" stroke="midnightblue" d="M1284.15,-125.494C1310,-122.085 1340.62,-118.403 1368.36,-116 1697.29,-87.5035 1780.75,-99.1845 2110.36,-80 2158.95,-77.1721 2215.68,-73.1556 2247.47,-70.8398"/>
<polygon fill="midnightblue" stroke="midnightblue" points="2247.91,-74.3174 2257.62,-70.0963 2247.4,-67.3361 2247.91,-74.3174"/>
</g>
<!-- Node23&#45;&gt;Node4 -->
<g id="edge68" class="edge"><title>Node23&#45;&gt;Node4</title>
<path fill="none" stroke="midnightblue" d="M1376.63,-123.607C1360.26,-120.722 1342.11,-117.871 1325.36,-116 982.887,-77.7554 565.169,-70.5943 441.486,-69.2853"/>
<polygon fill="midnightblue" stroke="midnightblue" points="441.465,-65.7851 431.43,-69.1852 441.395,-72.7847 441.465,-65.7851"/>
</g>
<!-- Node23&#45;&gt;Node15 -->
<g id="edge66" class="edge"><title>Node23&#45;&gt;Node15</title>
<path fill="none" stroke="midnightblue" d="M1482.07,-117.522C1484.86,-116.941 1487.63,-116.426 1490.36,-116 1833.84,-62.3383 2717.59,-166.276 3054.36,-80 3095.43,-69.4783 3138.11,-44.3861 3163.71,-27.541"/>
<polygon fill="midnightblue" stroke="midnightblue" points="3165.98,-30.2312 3172.33,-21.7503 3162.08,-24.4201 3165.98,-30.2312"/>
</g>
<!-- Node23&#45;&gt;Node24 -->
<g id="edge70" class="edge"><title>Node23&#45;&gt;Node24</title>
<path fill="none" stroke="midnightblue" d="M1408.34,-116.922C1396.72,-107.479 1382.31,-95.7736 1370.65,-86.2957"/>
<polygon fill="midnightblue" stroke="midnightblue" points="1372.68,-83.4416 1362.72,-79.8521 1368.27,-88.8745 1372.68,-83.4416"/>
</g>
<!-- Node25 -->
<g id="node62" class="node"><title>Node25</title>
<polygon fill="white" stroke="#bfbfbf" points="2101.36,-0.5 2101.36,-21.5 2157.36,-21.5 2157.36,-0.5 2101.36,-0.5"/>
<text text-anchor="middle" x="2129.36" y="-8.5" font-family="Helvetica,sans-Serif" font-size="10.00">algorithm</text>
</g>
<!-- Node23&#45;&gt;Node25 -->
<g id="edge72" class="edge"><title>Node23&#45;&gt;Node25</title>
<path fill="none" stroke="midnightblue" d="M1482.11,-117.752C1484.89,-117.11 1487.65,-116.52 1490.36,-116 1661.31,-83.212 1714.5,-132.84 1880.36,-80 1898.95,-74.0761 1900.18,-65.093 1918.36,-58 1976.5,-35.317 2048.14,-22.2712 2091.21,-15.9134"/>
<polygon fill="midnightblue" stroke="midnightblue" points="2091.85,-19.357 2101.25,-14.4755 2090.86,-12.4276 2091.85,-19.357"/>
</g>
<!-- Node27&#45;&gt;Node15 -->
<g id="edge196" class="edge"><title>Node27&#45;&gt;Node15</title>
<path fill="none" stroke="midnightblue" d="M1487.97,-342.32C1830.53,-338.03 3533.36,-311.404 3533.36,-206 3533.36,-206 3533.36,-206 3533.36,-134 3533.36,-67.7514 3305.32,-28.0019 3219.5,-15.3889"/>
<polygon fill="midnightblue" stroke="midnightblue" points="3219.93,-11.9145 3209.53,-13.9523 3218.93,-18.8429 3219.93,-11.9145"/>
</g>
<!-- Node27&#45;&gt;Node19 -->
<g id="edge84" class="edge"><title>Node27&#45;&gt;Node19</title>
<path fill="none" stroke="midnightblue" d="M1428.36,-332.267C1428.36,-324.931 1428.36,-314.857 1428.36,-305.38"/>
<polygon fill="midnightblue" stroke="midnightblue" points="1431.86,-305.11 1428.36,-295.11 1424.86,-305.11 1431.86,-305.11"/>
</g>
<!-- Node28 -->
<g id="node72" class="node"><title>Node28</title>
<a xlink:href="_manager__traits_8h.html" target="_top" xlink:title="calibration/gui/Manager\l_traits.h">
<polygon fill="white" stroke="black" points="1013.86,-261 1013.86,-295 1130.86,-295 1130.86,-261 1013.86,-261"/>
<text text-anchor="start" x="1021.86" y="-282" font-family="Helvetica,sans-Serif" font-size="10.00">calibration/gui/Manager</text>
<text text-anchor="middle" x="1072.36" y="-269" font-family="Helvetica,sans-Serif" font-size="10.00">_traits.h</text>
</a>
</g>
<!-- Node27&#45;&gt;Node28 -->
<g id="edge86" class="edge"><title>Node27&#45;&gt;Node28</title>
<path fill="none" stroke="midnightblue" d="M1370.77,-332.484C1308.06,-321.035 1207.83,-302.734 1141.06,-290.544"/>
<polygon fill="midnightblue" stroke="midnightblue" points="1141.52,-287.07 1131.06,-288.717 1140.26,-293.956 1141.52,-287.07"/>
</g>
<!-- Node51 -->
<g id="node144" class="node"><title>Node51</title>
<a xlink:href="_options_list_8h.html" target="_top" xlink:title="base/OptionsList.h">
<polygon fill="white" stroke="black" points="247.36,-267.5 247.36,-288.5 345.36,-288.5 345.36,-267.5 247.36,-267.5"/>
<text text-anchor="middle" x="296.36" y="-275.5" font-family="Helvetica,sans-Serif" font-size="10.00">base/OptionsList.h</text>
</a>
</g>
<!-- Node27&#45;&gt;Node51 -->
<g id="edge184" class="edge"><title>Node27&#45;&gt;Node51</title>
<path fill="none" stroke="midnightblue" d="M1368.7,-339.574C1172.81,-328.326 550.794,-292.61 355.571,-281.4"/>
<polygon fill="midnightblue" stroke="midnightblue" points="355.691,-277.901 345.507,-280.822 355.289,-284.89 355.691,-277.901"/>
</g>
<!-- Node28&#45;&gt;Node3 -->
<g id="edge176" class="edge"><title>Node28&#45;&gt;Node3</title>
<path fill="none" stroke="midnightblue" d="M1013.57,-277.005C850.168,-273.773 398.978,-261.513 344.36,-224 302.879,-195.51 294.853,-163.873 310.36,-116 321.636,-81.191 349.247,-48.2414 367.895,-28.8316"/>
<polygon fill="midnightblue" stroke="midnightblue" points="370.49,-31.1852 375.026,-21.6105 365.509,-26.2666 370.49,-31.1852"/>
</g>
<!-- Node28&#45;&gt;Node4 -->
<g id="edge180" class="edge"><title>Node28&#45;&gt;Node4</title>
<path fill="none" stroke="midnightblue" d="M1013.74,-276.52C877.273,-272.515 541.831,-259.287 435.36,-224 377.762,-204.91 348.858,-205.027 319.36,-152 311.582,-138.018 311.198,-129.762 319.36,-116 330.249,-97.6405 351.118,-85.9882 369.572,-78.8783"/>
<polygon fill="midnightblue" stroke="midnightblue" points="370.951,-82.1029 379.215,-75.4725 368.62,-75.5025 370.951,-82.1029"/>
</g>
<!-- Node28&#45;&gt;Node22 -->
<g id="edge178" class="edge"><title>Node28&#45;&gt;Node22</title>
<path fill="none" stroke="midnightblue" d="M1130.96,-274.168C1188.76,-270.422 1279.64,-264.624 1358.36,-260 1651.62,-242.774 1729.89,-279.548 2018.36,-224 2116.49,-205.105 2156.17,-217.815 2231.36,-152 2250.35,-135.376 2261.47,-107.911 2267.23,-89.1635"/>
<polygon fill="midnightblue" stroke="midnightblue" points="2270.6,-90.0999 2269.96,-79.5247 2263.87,-88.1942 2270.6,-90.0999"/>
</g>
<!-- Node28&#45;&gt;Node24 -->
<g id="edge182" class="edge"><title>Node28&#45;&gt;Node24</title>
<path fill="none" stroke="midnightblue" d="M1013.61,-273.801C882.928,-263.114 574.768,-230.01 512.36,-152 502.365,-139.506 501.368,-127.627 512.36,-116 540.061,-86.7003 1147.16,-72.9053 1309.66,-69.7295"/>
<polygon fill="midnightblue" stroke="midnightblue" points="1309.78,-73.228 1319.71,-69.5357 1309.64,-66.2293 1309.78,-73.228"/>
</g>
<!-- Node29 -->
<g id="node74" class="node"><title>Node29</title>
<a xlink:href="interval_8h.html" target="_top" xlink:title="base/interval.h">
<polygon fill="white" stroke="black" points="2516.36,-195.5 2516.36,-216.5 2596.36,-216.5 2596.36,-195.5 2516.36,-195.5"/>
<text text-anchor="middle" x="2556.36" y="-203.5" font-family="Helvetica,sans-Serif" font-size="10.00">base/interval.h</text>
</a>
</g>
<!-- Node28&#45;&gt;Node29 -->
<g id="edge88" class="edge"><title>Node28&#45;&gt;Node29</title>
<path fill="none" stroke="midnightblue" d="M1130.94,-273.882C1188.74,-269.922 1279.6,-263.967 1358.36,-260 1781.24,-238.7 1887.6,-247.453 2310.36,-224 2378.22,-220.235 2456.49,-214.22 2506.18,-210.192"/>
<polygon fill="midnightblue" stroke="midnightblue" points="2506.65,-213.665 2516.34,-209.364 2506.08,-206.688 2506.65,-213.665"/>
</g>
<!-- Node33 -->
<g id="node86" class="node"><title>Node33</title>
<a xlink:href="_wrap_t_file_8h.html" target="_top" xlink:title="base/WrapTFile.h">
<polygon fill="white" stroke="black" points="843.36,-195.5 843.36,-216.5 937.36,-216.5 937.36,-195.5 843.36,-195.5"/>
<text text-anchor="middle" x="890.36" y="-203.5" font-family="Helvetica,sans-Serif" font-size="10.00">base/WrapTFile.h</text>
</a>
</g>
<!-- Node28&#45;&gt;Node33 -->
<g id="edge104" class="edge"><title>Node28&#45;&gt;Node33</title>
<path fill="none" stroke="midnightblue" d="M1029.23,-260.937C997.969,-248.57 956.173,-232.036 926.627,-220.347"/>
<polygon fill="midnightblue" stroke="midnightblue" points="927.696,-217.006 917.109,-216.582 925.121,-223.515 927.696,-217.006"/>
</g>
<!-- Node44 -->
<g id="node120" class="node"><title>Node44</title>
<a xlink:href="_t_i_d_8h.html" target="_top" xlink:title="tree/TID.h">
<polygon fill="white" stroke="black" points="1948.86,-195.5 1948.86,-216.5 2009.86,-216.5 2009.86,-195.5 1948.86,-195.5"/>
<text text-anchor="middle" x="1979.36" y="-203.5" font-family="Helvetica,sans-Serif" font-size="10.00">tree/TID.h</text>
</a>
</g>
<!-- Node28&#45;&gt;Node44 -->
<g id="edge150" class="edge"><title>Node28&#45;&gt;Node44</title>
<path fill="none" stroke="midnightblue" d="M1131.17,-273.331C1301.59,-259.803 1792.83,-220.807 1938.3,-209.259"/>
<polygon fill="midnightblue" stroke="midnightblue" points="1938.87,-212.725 1948.56,-208.445 1938.32,-205.747 1938.87,-212.725"/>
</g>
<!-- Node29&#45;&gt;Node11 -->
<g id="edge102" class="edge"><title>Node29&#45;&gt;Node11</title>
<path fill="none" stroke="midnightblue" d="M2582.26,-195.449C2589.63,-192.73 2597.74,-190.008 2605.36,-188 2653.05,-175.441 2792.44,-189.597 2824.36,-152 2834.72,-139.803 2829,-131.313 2824.36,-116 2816.28,-89.2995 2785.32,-81.4944 2800.36,-58 2815.65,-34.1127 2846.5,-22.1966 2870.29,-16.3599"/>
<polygon fill="midnightblue" stroke="midnightblue" points="2871.3,-19.721 2880.31,-14.149 2869.79,-12.8853 2871.3,-19.721"/>
</g>
<!-- Node29&#45;&gt;Node14 -->
<g id="edge96" class="edge"><title>Node29&#45;&gt;Node14</title>
<path fill="none" stroke="midnightblue" d="M2580.62,-195.497C2588.39,-192.57 2597.11,-189.723 2605.36,-188 2670.84,-174.321 3152.99,-192.338 3206.36,-152 3225.69,-137.39 3232.2,-108.989 3234.35,-89.5145"/>
<polygon fill="midnightblue" stroke="midnightblue" points="3237.84,-89.7568 3235.17,-79.5052 3230.87,-89.1873 3237.84,-89.7568"/>
</g>
<!-- Node29&#45;&gt;Node17 -->
<g id="edge94" class="edge"><title>Node29&#45;&gt;Node17</title>
<path fill="none" stroke="midnightblue" d="M2516.32,-202.876C2467.65,-199.124 2383,-192.743 2310.36,-188 2031.83,-169.815 1955.33,-214.791 1683.36,-152 1679.39,-151.084 1675.32,-149.833 1671.35,-148.414"/>
<polygon fill="midnightblue" stroke="midnightblue" points="1672.35,-145.046 1661.76,-144.635 1669.78,-151.558 1672.35,-145.046"/>
</g>
<!-- Node29&#45;&gt;Node25 -->
<g id="edge92" class="edge"><title>Node29&#45;&gt;Node25</title>
<path fill="none" stroke="midnightblue" d="M2535.56,-195.409C2516.08,-185.178 2486.44,-168.801 2462.36,-152 2441.92,-137.737 2440.38,-129.393 2419.36,-116 2368.05,-83.308 2352.37,-79.2456 2295.36,-58 2252.37,-41.9811 2201.41,-28.307 2167.39,-19.9056"/>
<polygon fill="midnightblue" stroke="midnightblue" points="2167.96,-16.4398 2157.41,-17.4707 2166.3,-23.2405 2167.96,-16.4398"/>
</g>
<!-- Node30 -->
<g id="node76" class="node"><title>Node30</title>
<a xlink:href="types_8h.html" target="_top" xlink:title="types.h">
<polygon fill="white" stroke="black" points="2766.86,-123.5 2766.86,-144.5 2815.86,-144.5 2815.86,-123.5 2766.86,-123.5"/>
<text text-anchor="middle" x="2791.36" y="-131.5" font-family="Helvetica,sans-Serif" font-size="10.00">types.h</text>
</a>
</g>
<!-- Node29&#45;&gt;Node30 -->
<g id="edge90" class="edge"><title>Node29&#45;&gt;Node30</title>
<path fill="none" stroke="midnightblue" d="M2583.38,-195.412C2590.47,-192.815 2598.16,-190.162 2605.36,-188 2672.27,-167.919 2693.11,-176.95 2758.36,-152 2760.49,-151.186 2762.65,-150.258 2764.8,-149.264"/>
<polygon fill="midnightblue" stroke="midnightblue" points="2766.63,-152.262 2773.97,-144.619 2763.46,-146.018 2766.63,-152.262"/>
</g>
<!-- Node31 -->
<g id="node81" class="node"><title>Node31</title>
<polygon fill="white" stroke="#bfbfbf" points="2700.86,-123.5 2700.86,-144.5 2749.86,-144.5 2749.86,-123.5 2700.86,-123.5"/>
<text text-anchor="middle" x="2725.36" y="-131.5" font-family="Helvetica,sans-Serif" font-size="10.00">istream</text>
</g>
<!-- Node29&#45;&gt;Node31 -->
<g id="edge98" class="edge"><title>Node29&#45;&gt;Node31</title>
<path fill="none" stroke="midnightblue" d="M2584,-195.483C2617.67,-182.589 2672.52,-161.306 2692.36,-152 2694.13,-151.168 2695.94,-150.285 2697.76,-149.372"/>
<polygon fill="midnightblue" stroke="midnightblue" points="2699.48,-152.421 2706.72,-144.681 2696.23,-146.219 2699.48,-152.421"/>
</g>
<!-- Node32 -->
<g id="node83" class="node"><title>Node32</title>
<polygon fill="white" stroke="#bfbfbf" points="1709.36,-0.5 1709.36,-21.5 1761.36,-21.5 1761.36,-0.5 1709.36,-0.5"/>
<text text-anchor="middle" x="1735.36" y="-8.5" font-family="Helvetica,sans-Serif" font-size="10.00">sstream</text>
</g>
<!-- Node29&#45;&gt;Node32 -->
<g id="edge100" class="edge"><title>Node29&#45;&gt;Node32</title>
<path fill="none" stroke="midnightblue" d="M2516.31,-203.024C2467.63,-199.418 2382.97,-193.18 2310.36,-188 2252.81,-183.895 1840.71,-183.487 1792.36,-152 1751.59,-125.447 1739.98,-64.063 1736.67,-31.7503"/>
<polygon fill="midnightblue" stroke="midnightblue" points="1740.15,-31.3068 1735.82,-21.638 1733.17,-31.8979 1740.15,-31.3068"/>
</g>
<!-- Node33&#45;&gt;Node3 -->
<g id="edge140" class="edge"><title>Node33&#45;&gt;Node3</title>
<path fill="none" stroke="midnightblue" d="M843.228,-203.893C725.311,-198.206 424.518,-180.989 390.36,-152 357.794,-124.362 363.384,-100.139 370.36,-58 371.865,-48.9115 374.902,-39.2199 377.929,-31.0129"/>
<polygon fill="midnightblue" stroke="midnightblue" points="381.241,-32.1555 381.643,-21.5683 374.726,-29.5937 381.241,-32.1555"/>
</g>
<!-- Node33&#45;&gt;Node4 -->
<g id="edge138" class="edge"><title>Node33&#45;&gt;Node4</title>
<path fill="none" stroke="midnightblue" d="M843.135,-201.51C788.138,-195.165 695.267,-180.959 620.36,-152 591.354,-140.786 588.788,-128.607 560.36,-116 521.045,-98.5645 473.381,-85.1862 441.377,-77.2407"/>
<polygon fill="midnightblue" stroke="midnightblue" points="442.111,-73.8172 431.567,-74.8536 440.456,-80.6187 442.111,-73.8172"/>
</g>
<!-- Node33&#45;&gt;Node17 -->
<g id="edge146" class="edge"><title>Node33&#45;&gt;Node17</title>
<path fill="none" stroke="midnightblue" d="M937.445,-203.167C1069.74,-195.059 1443.04,-171.113 1564.36,-152 1576.27,-150.123 1589.08,-147.378 1600.73,-144.594"/>
<polygon fill="midnightblue" stroke="midnightblue" points="1601.74,-147.95 1610.61,-142.158 1600.06,-141.153 1601.74,-147.95"/>
</g>
<!-- Node33&#45;&gt;Node22 -->
<g id="edge142" class="edge"><title>Node33&#45;&gt;Node22</title>
<path fill="none" stroke="midnightblue" d="M937.392,-203.075C998.455,-199.327 1108.34,-192.746 1202.36,-188 1294.77,-183.335 1949.16,-188.102 2034.36,-152 2055.78,-142.923 2051.88,-127.043 2072.36,-116 2087.82,-107.66 2197.97,-84.3142 2247.88,-74.0033"/>
<polygon fill="midnightblue" stroke="midnightblue" points="2248.75,-77.399 2257.84,-71.9553 2247.34,-70.5426 2248.75,-77.399"/>
</g>
<!-- Node33&#45;&gt;Node24 -->
<g id="edge148" class="edge"><title>Node33&#45;&gt;Node24</title>
<path fill="none" stroke="midnightblue" d="M843.348,-204.449C754.021,-199.956 574.01,-182.596 636.36,-116 659.52,-91.2628 1162.7,-74.51 1309.5,-70.136"/>
<polygon fill="midnightblue" stroke="midnightblue" points="1309.94,-73.6245 1319.84,-69.831 1309.74,-66.6275 1309.94,-73.6245"/>
</g>
<!-- Node34 -->
<g id="node88" class="node"><title>Node34</title>
<a xlink:href="string_8h.html" target="_top" xlink:title="base/std_ext/string.h">
<polygon fill="white" stroke="black" points="1763.36,-58.5 1763.36,-79.5 1871.36,-79.5 1871.36,-58.5 1763.36,-58.5"/>
<text text-anchor="middle" x="1817.36" y="-66.5" font-family="Helvetica,sans-Serif" font-size="10.00">base/std_ext/string.h</text>
</a>
</g>
<!-- Node33&#45;&gt;Node34 -->
<g id="edge106" class="edge"><title>Node33&#45;&gt;Node34</title>
<path fill="none" stroke="midnightblue" d="M935.183,-195.492C974.116,-185.839 1031.73,-170.284 1080.36,-152 1115.34,-138.846 1120.21,-125.489 1156.36,-116 1267.77,-86.7582 1609.3,-74.5062 1752.8,-70.5561"/>
<polygon fill="midnightblue" stroke="midnightblue" points="1753.29,-74.0442 1763.19,-70.2751 1753.1,-67.0468 1753.29,-74.0442"/>
</g>
<!-- Node35 -->
<g id="node94" class="node"><title>Node35</title>
<a xlink:href="misc_8h.html" target="_top" xlink:title="base/std_ext/misc.h">
<polygon fill="white" stroke="black" points="1920.86,-123.5 1920.86,-144.5 2025.86,-144.5 2025.86,-123.5 1920.86,-123.5"/>
<text text-anchor="middle" x="1973.36" y="-131.5" font-family="Helvetica,sans-Serif" font-size="10.00">base/std_ext/misc.h</text>
</a>
</g>
<!-- Node33&#45;&gt;Node35 -->
<g id="edge116" class="edge"><title>Node33&#45;&gt;Node35</title>
<path fill="none" stroke="midnightblue" d="M937.398,-203.184C998.467,-199.551 1108.36,-193.094 1202.36,-188 1517.86,-170.901 1600.89,-205.081 1912.36,-152 1919.16,-150.841 1926.28,-149.175 1933.15,-147.319"/>
<polygon fill="midnightblue" stroke="midnightblue" points="1934.33,-150.623 1942.97,-144.501 1932.4,-143.894 1934.33,-150.623"/>
</g>
<!-- Node37 -->
<g id="node101" class="node"><title>Node37</title>
<polygon fill="white" stroke="#bfbfbf" points="644.86,-123.5 644.86,-144.5 691.86,-144.5 691.86,-123.5 644.86,-123.5"/>
<text text-anchor="middle" x="668.36" y="-131.5" font-family="Helvetica,sans-Serif" font-size="10.00">TFile.h</text>
</g>
<!-- Node33&#45;&gt;Node37 -->
<g id="edge126" class="edge"><title>Node33&#45;&gt;Node37</title>
<path fill="none" stroke="midnightblue" d="M843.25,-195.881C804.154,-186.715 747.528,-171.646 700.36,-152 698.507,-151.228 696.625,-150.373 694.75,-149.468"/>
<polygon fill="midnightblue" stroke="midnightblue" points="696.074,-146.211 685.592,-144.67 692.825,-152.411 696.074,-146.211"/>
</g>
<!-- Node38 -->
<g id="node103" class="node"><title>Node38</title>
<polygon fill="white" stroke="#bfbfbf" points="708.86,-123.5 708.86,-144.5 779.86,-144.5 779.86,-123.5 708.86,-123.5"/>
<text text-anchor="middle" x="744.36" y="-131.5" font-family="Helvetica,sans-Serif" font-size="10.00">TDirectory.h</text>
</g>
<!-- Node33&#45;&gt;Node38 -->
<g id="edge128" class="edge"><title>Node33&#45;&gt;Node38</title>
<path fill="none" stroke="midnightblue" d="M868.817,-195.376C844.017,-183.146 803.096,-162.965 774.99,-149.105"/>
<polygon fill="midnightblue" stroke="midnightblue" points="776.508,-145.951 765.991,-144.667 773.412,-152.229 776.508,-145.951"/>
</g>
<!-- Node39 -->
<g id="node105" class="node"><title>Node39</title>
<polygon fill="white" stroke="#bfbfbf" points="797.36,-123.5 797.36,-144.5 849.36,-144.5 849.36,-123.5 797.36,-123.5"/>
<text text-anchor="middle" x="823.36" y="-131.5" font-family="Helvetica,sans-Serif" font-size="10.00">TError.h</text>
</g>
<!-- Node33&#45;&gt;Node39 -->
<g id="edge130" class="edge"><title>Node33&#45;&gt;Node39</title>
<path fill="none" stroke="midnightblue" d="M880.474,-195.376C869.885,-183.997 852.891,-165.735 840.189,-152.085"/>
<polygon fill="midnightblue" stroke="midnightblue" points="842.661,-149.604 833.287,-144.667 837.537,-154.372 842.661,-149.604"/>
</g>
<!-- Node40 -->
<g id="node107" class="node"><title>Node40</title>
<polygon fill="white" stroke="#bfbfbf" points="866.86,-123.5 866.86,-144.5 913.86,-144.5 913.86,-123.5 866.86,-123.5"/>
<text text-anchor="middle" x="890.36" y="-131.5" font-family="Helvetica,sans-Serif" font-size="10.00">TList.h</text>
</g>
<!-- Node33&#45;&gt;Node40 -->
<g id="edge132" class="edge"><title>Node33&#45;&gt;Node40</title>
<path fill="none" stroke="midnightblue" d="M890.36,-195.376C890.36,-184.741 890.36,-168.095 890.36,-154.82"/>
<polygon fill="midnightblue" stroke="midnightblue" points="893.86,-154.667 890.36,-144.667 886.86,-154.667 893.86,-154.667"/>
</g>
<!-- Node41 -->
<g id="node109" class="node"><title>Node41</title>
<polygon fill="white" stroke="#bfbfbf" points="931.36,-123.5 931.36,-144.5 1005.36,-144.5 1005.36,-123.5 931.36,-123.5"/>
<text text-anchor="middle" x="968.36" y="-131.5" font-family="Helvetica,sans-Serif" font-size="10.00">TCollection.h</text>
</g>
<!-- Node33&#45;&gt;Node41 -->
<g id="edge134" class="edge"><title>Node33&#45;&gt;Node41</title>
<path fill="none" stroke="midnightblue" d="M901.869,-195.376C914.312,-183.89 934.351,-165.393 949.182,-151.703"/>
<polygon fill="midnightblue" stroke="midnightblue" points="951.83,-154.022 956.804,-144.667 947.082,-148.878 951.83,-154.022"/>
</g>
<!-- Node42 -->
<g id="node111" class="node"><title>Node42</title>
<polygon fill="white" stroke="#bfbfbf" points="1023.36,-123.5 1023.36,-144.5 1071.36,-144.5 1071.36,-123.5 1023.36,-123.5"/>
<text text-anchor="middle" x="1047.36" y="-131.5" font-family="Helvetica,sans-Serif" font-size="10.00">TKey.h</text>
</g>
<!-- Node33&#45;&gt;Node42 -->
<g id="edge136" class="edge"><title>Node33&#45;&gt;Node42</title>
<path fill="none" stroke="midnightblue" d="M916.312,-195.487C941.612,-185.053 981.036,-168.305 1014.36,-152 1016.12,-151.14 1017.92,-150.234 1019.73,-149.305"/>
<polygon fill="midnightblue" stroke="midnightblue" points="1021.46,-152.344 1028.66,-144.572 1018.19,-146.158 1021.46,-152.344"/>
</g>
<!-- Node43 -->
<g id="node116" class="node"><title>Node43</title>
<polygon fill="white" stroke="#bfbfbf" points="521.36,-123.5 521.36,-144.5 551.36,-144.5 551.36,-123.5 521.36,-123.5"/>
<text text-anchor="middle" x="536.36" y="-131.5" font-family="Helvetica,sans-Serif" font-size="10.00">set</text>
</g>
<!-- Node33&#45;&gt;Node43 -->
<g id="edge144" class="edge"><title>Node33&#45;&gt;Node43</title>
<path fill="none" stroke="midnightblue" d="M843.133,-203.902C778.528,-199.761 659.839,-187.57 565.36,-152 563.489,-151.295 561.606,-150.464 559.749,-149.551"/>
<polygon fill="midnightblue" stroke="midnightblue" points="561.261,-146.385 550.832,-144.52 557.821,-152.482 561.261,-146.385"/>
</g>
<!-- Node34&#45;&gt;Node3 -->
<g id="edge108" class="edge"><title>Node34&#45;&gt;Node3</title>
<path fill="none" stroke="midnightblue" d="M1763.22,-62.666C1746.61,-60.9146 1728.25,-59.1744 1711.36,-58 1194.95,-22.0881 563.313,-13.0008 417.426,-11.3225"/>
<polygon fill="midnightblue" stroke="midnightblue" points="417.062,-7.81834 407.024,-11.2061 416.984,-14.8179 417.062,-7.81834"/>
</g>
<!-- Node34&#45;&gt;Node15 -->
<g id="edge114" class="edge"><title>Node34&#45;&gt;Node15</title>
<path fill="none" stroke="midnightblue" d="M1871.54,-62.326C1886.67,-60.6726 1903.14,-59.0699 1918.36,-58 2419.16,-22.7965 2546.09,-49.6696 3047.36,-22 3084.27,-19.9625 3126.57,-16.4796 3154.93,-13.9783"/>
<polygon fill="midnightblue" stroke="midnightblue" points="3155.43,-17.4481 3165.07,-13.0728 3154.8,-10.4758 3155.43,-17.4481"/>
</g>
<!-- Node34&#45;&gt;Node25 -->
<g id="edge112" class="edge"><title>Node34&#45;&gt;Node25</title>
<path fill="none" stroke="midnightblue" d="M1871.71,-58.8972C1934.53,-47.2192 2036.3,-28.3 2091.25,-18.0846"/>
<polygon fill="midnightblue" stroke="midnightblue" points="2092.08,-21.4909 2101.27,-16.2222 2090.8,-14.6088 2092.08,-21.4909"/>
</g>
<!-- Node34&#45;&gt;Node32 -->
<g id="edge110" class="edge"><title>Node34&#45;&gt;Node32</title>
<path fill="none" stroke="midnightblue" d="M1802.32,-58.3619C1790.07,-49.6955 1772.56,-37.3126 1758.52,-27.3819"/>
<polygon fill="midnightblue" stroke="midnightblue" points="1760.49,-24.4879 1750.3,-21.5707 1756.45,-30.2028 1760.49,-24.4879"/>
</g>
<!-- Node35&#45;&gt;Node11 -->
<g id="edge122" class="edge"><title>Node35&#45;&gt;Node11</title>
<path fill="none" stroke="midnightblue" d="M2003.95,-123.438C2054.4,-106.509 2158.5,-73.6227 2249.36,-58 2310.8,-47.4366 2746.48,-20.4628 2869.87,-12.9617"/>
<polygon fill="midnightblue" stroke="midnightblue" points="2870.4,-16.4361 2880.17,-12.3367 2869.97,-9.4489 2870.4,-16.4361"/>
</g>
<!-- Node35&#45;&gt;Node24 -->
<g id="edge120" class="edge"><title>Node35&#45;&gt;Node24</title>
<path fill="none" stroke="midnightblue" d="M1942,-123.417C1932.57,-120.597 1922.13,-117.829 1912.36,-116 1718.35,-79.6694 1481.45,-71.414 1388.98,-69.5445"/>
<polygon fill="midnightblue" stroke="midnightblue" points="1389.01,-66.0445 1378.95,-69.3556 1388.88,-73.0433 1389.01,-66.0445"/>
</g>
<!-- Node35&#45;&gt;Node25 -->
<g id="edge118" class="edge"><title>Node35&#45;&gt;Node25</title>
<path fill="none" stroke="midnightblue" d="M2010.61,-123.433C2046.28,-112.612 2096.65,-95.2607 2110.36,-80 2122.14,-66.8907 2126.7,-47.1254 2128.42,-32.1046"/>
<polygon fill="midnightblue" stroke="midnightblue" points="2131.94,-31.9811 2129.26,-21.7317 2124.97,-31.4174 2131.94,-31.9811"/>
</g>
<!-- Node36 -->
<g id="node99" class="node"><title>Node36</title>
<polygon fill="white" stroke="#bfbfbf" points="2048.86,-58.5 2048.86,-79.5 2101.86,-79.5 2101.86,-58.5 2048.86,-58.5"/>
<text text-anchor="middle" x="2075.36" y="-66.5" font-family="Helvetica,sans-Serif" font-size="10.00">cxxabi.h</text>
</g>
<!-- Node35&#45;&gt;Node36 -->
<g id="edge124" class="edge"><title>Node35&#45;&gt;Node36</title>
<path fill="none" stroke="midnightblue" d="M1990.2,-123.267C2006.54,-112.855 2031.54,-96.9269 2050.23,-85.0163"/>
<polygon fill="midnightblue" stroke="midnightblue" points="2052.28,-87.8595 2058.83,-79.5337 2048.52,-81.9562 2052.28,-87.8595"/>
</g>
<!-- Node44&#45;&gt;Node16 -->
<g id="edge166" class="edge"><title>Node44&#45;&gt;Node16</title>
<path fill="none" stroke="midnightblue" d="M2009.89,-203.719C2061.19,-199.956 2167.94,-192.425 2258.36,-188 2737.17,-164.565 2861.84,-220.098 3336.36,-152 3348.66,-150.235 3361.91,-147.144 3373.54,-144.015"/>
<polygon fill="midnightblue" stroke="midnightblue" points="3374.6,-147.355 3383.28,-141.289 3372.71,-140.614 3374.6,-147.355"/>
</g>
<!-- Node44&#45;&gt;Node17 -->
<g id="edge168" class="edge"><title>Node44&#45;&gt;Node17</title>
<path fill="none" stroke="midnightblue" d="M1948.6,-202.611C1894.24,-196.134 1778.01,-180.084 1683.36,-152 1679.82,-150.948 1676.17,-149.699 1672.56,-148.355"/>
<polygon fill="midnightblue" stroke="midnightblue" points="1673.82,-145.089 1663.24,-144.652 1671.24,-151.595 1673.82,-145.089"/>
</g>
<!-- Node44&#45;&gt;Node18 -->
<g id="edge162" class="edge"><title>Node44&#45;&gt;Node18</title>
<path fill="none" stroke="midnightblue" d="M2010.12,-201.765C2099.58,-189.45 2359.68,-153.642 2461.14,-139.674"/>
<polygon fill="midnightblue" stroke="midnightblue" points="2461.88,-143.106 2471.31,-138.275 2460.92,-136.172 2461.88,-143.106"/>
</g>
<!-- Node44&#45;&gt;Node22 -->
<g id="edge170" class="edge"><title>Node44&#45;&gt;Node22</title>
<path fill="none" stroke="midnightblue" d="M2009.87,-203.96C2053.88,-199.842 2136.47,-187.628 2196.36,-152 2223.34,-135.948 2246.4,-107.341 2259.82,-88.2683"/>
<polygon fill="midnightblue" stroke="midnightblue" points="2262.88,-90.0026 2265.62,-79.7678 2257.09,-86.061 2262.88,-90.0026"/>
</g>
<!-- Node45 -->
<g id="node122" class="node"><title>Node45</title>
<polygon fill="white" stroke="#bfbfbf" points="1499.36,-123.5 1499.36,-144.5 1555.36,-144.5 1555.36,-123.5 1499.36,-123.5"/>
<text text-anchor="middle" x="1527.36" y="-131.5" font-family="Helvetica,sans-Serif" font-size="10.00">Rtypes.h</text>
</g>
<!-- Node44&#45;&gt;Node45 -->
<g id="edge152" class="edge"><title>Node44&#45;&gt;Node45</title>
<path fill="none" stroke="midnightblue" d="M1948.41,-202.559C1883.8,-195.157 1729.97,-176.398 1602.36,-152 1590.25,-149.686 1577.16,-146.709 1565.35,-143.845"/>
<polygon fill="midnightblue" stroke="midnightblue" points="1565.91,-140.378 1555.36,-141.377 1564.23,-147.173 1565.91,-140.378"/>
</g>
<!-- Node46 -->
<g id="node124" class="node"><title>Node46</title>
<a xlink:href="base_2std__ext_2_time_8h.html" target="_top" xlink:title="base/std_ext/time.h">
<polygon fill="white" stroke="black" points="1800.86,-123.5 1800.86,-144.5 1903.86,-144.5 1903.86,-123.5 1800.86,-123.5"/>
<text text-anchor="middle" x="1852.36" y="-131.5" font-family="Helvetica,sans-Serif" font-size="10.00">base/std_ext/time.h</text>
</a>
</g>
<!-- Node44&#45;&gt;Node46 -->
<g id="edge154" class="edge"><title>Node44&#45;&gt;Node46</title>
<path fill="none" stroke="midnightblue" d="M1960.62,-195.376C1939.33,-183.305 1904.38,-163.49 1879.97,-149.651"/>
<polygon fill="midnightblue" stroke="midnightblue" points="1881.6,-146.555 1871.18,-144.667 1878.15,-152.644 1881.6,-146.555"/>
</g>
<!-- Node48 -->
<g id="node129" class="node"><title>Node48</title>
<polygon fill="white" stroke="#bfbfbf" points="1926.86,-58.5 1926.86,-79.5 1967.86,-79.5 1967.86,-58.5 1926.86,-58.5"/>
<text text-anchor="middle" x="1947.36" y="-66.5" font-family="Helvetica,sans-Serif" font-size="10.00">ctime</text>
</g>
<!-- Node44&#45;&gt;Node48 -->
<g id="edge174" class="edge"><title>Node44&#45;&gt;Node48</title>
<path fill="none" stroke="midnightblue" d="M1948.52,-201.608C1900.44,-194.057 1811.15,-176.981 1792.36,-152 1782.74,-139.213 1782.79,-128.826 1792.36,-116 1825.9,-71.0235 1859.78,-96.6367 1913.36,-80 1914.43,-79.6689 1915.51,-79.3299 1916.61,-78.9859"/>
<polygon fill="midnightblue" stroke="midnightblue" points="1918.06,-82.1959 1926.53,-75.8264 1915.94,-75.526 1918.06,-82.1959"/>
</g>
<!-- Node49 -->
<g id="node132" class="node"><title>Node49</title>
<polygon fill="white" stroke="#bfbfbf" points="2149.36,-123.5 2149.36,-144.5 2187.36,-144.5 2187.36,-123.5 2149.36,-123.5"/>
<text text-anchor="middle" x="2168.36" y="-131.5" font-family="Helvetica,sans-Serif" font-size="10.00">tuple</text>
</g>
<!-- Node44&#45;&gt;Node49 -->
<g id="edge164" class="edge"><title>Node44&#45;&gt;Node49</title>
<path fill="none" stroke="midnightblue" d="M2009.91,-198.196C2042.96,-189.198 2096.77,-172.921 2140.36,-152 2141.73,-151.344 2143.11,-150.633 2144.49,-149.885"/>
<polygon fill="midnightblue" stroke="midnightblue" points="2146.55,-152.733 2153.35,-144.613 2142.97,-146.716 2146.55,-152.733"/>
</g>
<!-- Node50 -->
<g id="node137" class="node"><title>Node50</title>
<polygon fill="white" stroke="#bfbfbf" points="2081.36,-123.5 2081.36,-144.5 2131.36,-144.5 2131.36,-123.5 2081.36,-123.5"/>
<text text-anchor="middle" x="2106.36" y="-131.5" font-family="Helvetica,sans-Serif" font-size="10.00">iomanip</text>
</g>
<!-- Node44&#45;&gt;Node50 -->
<g id="edge172" class="edge"><title>Node44&#45;&gt;Node50</title>
<path fill="none" stroke="midnightblue" d="M1998.1,-195.376C2019.39,-183.305 2054.34,-163.49 2078.75,-149.651"/>
<polygon fill="midnightblue" stroke="midnightblue" points="2080.57,-152.644 2087.54,-144.667 2077.12,-146.555 2080.57,-152.644"/>
</g>
<!-- Node46&#45;&gt;Node34 -->
<g id="edge156" class="edge"><title>Node46&#45;&gt;Node34</title>
<path fill="none" stroke="midnightblue" d="M1846.58,-123.267C1841.48,-113.801 1833.93,-99.7773 1827.78,-88.3571"/>
<polygon fill="midnightblue" stroke="midnightblue" points="1830.85,-86.6791 1823.03,-79.5337 1824.69,-89.9978 1830.85,-86.6791"/>
</g>
<!-- Node47 -->
<g id="node127" class="node"><title>Node47</title>
<polygon fill="white" stroke="#bfbfbf" points="1985.36,-58.5 1985.36,-79.5 2031.36,-79.5 2031.36,-58.5 1985.36,-58.5"/>
<text text-anchor="middle" x="2008.36" y="-66.5" font-family="Helvetica,sans-Serif" font-size="10.00">cstring</text>
</g>
<!-- Node46&#45;&gt;Node47 -->
<g id="edge158" class="edge"><title>Node46&#45;&gt;Node47</title>
<path fill="none" stroke="midnightblue" d="M1877.77,-123.412C1904.45,-112.294 1946.51,-94.7718 1975.65,-82.6284"/>
<polygon fill="midnightblue" stroke="midnightblue" points="1977.12,-85.8103 1985,-78.7334 1974.42,-79.3488 1977.12,-85.8103"/>
</g>
<!-- Node46&#45;&gt;Node48 -->
<g id="edge160" class="edge"><title>Node46&#45;&gt;Node48</title>
<path fill="none" stroke="midnightblue" d="M1868.05,-123.267C1883.13,-112.949 1906.12,-97.216 1923.48,-85.3421"/>
<polygon fill="midnightblue" stroke="midnightblue" points="1925.69,-88.0692 1931.96,-79.5337 1921.74,-82.292 1925.69,-88.0692"/>
</g>
<!-- Node51&#45;&gt;Node3 -->
<g id="edge186" class="edge"><title>Node51&#45;&gt;Node3</title>
<path fill="none" stroke="midnightblue" d="M256.81,-267.48C190.592,-247.432 66.8119,-198.262 91.3602,-116 100.173,-86.4692 103.681,-75.039 129.36,-58 166.173,-33.5732 295.775,-19.1064 355.634,-13.5857"/>
<polygon fill="midnightblue" stroke="midnightblue" points="355.98,-17.0688 365.627,-12.6878 355.354,-10.0969 355.98,-17.0688"/>
</g>
<!-- Node51&#45;&gt;Node4 -->
<g id="edge188" class="edge"><title>Node51&#45;&gt;Node4</title>
<path fill="none" stroke="midnightblue" d="M291.084,-267.354C278.16,-239.603 248.303,-163.882 281.36,-116 286.643,-108.348 334.64,-91.6365 369.337,-80.347"/>
<polygon fill="midnightblue" stroke="midnightblue" points="370.726,-83.5766 379.169,-77.1762 368.578,-76.9144 370.726,-83.5766"/>
</g>
<!-- Node51&#45;&gt;Node26 -->
<g id="edge190" class="edge"><title>Node51&#45;&gt;Node26</title>
<path fill="none" stroke="midnightblue" d="M345.4,-276.703C589.986,-270.196 1679.66,-240.765 2018.36,-224 2105.39,-219.692 2208.27,-211.986 2256.63,-208.209"/>
<polygon fill="midnightblue" stroke="midnightblue" points="2256.93,-211.696 2266.63,-207.423 2256.39,-204.717 2256.93,-211.696"/>
</g>
<!-- Node51&#45;&gt;Node32 -->
<g id="edge194" class="edge"><title>Node51&#45;&gt;Node32</title>
<path fill="none" stroke="midnightblue" d="M287.583,-267.223C279.753,-256.861 268.853,-240.396 264.36,-224 251.674,-177.707 239.885,-157.291 264.36,-116 291.743,-69.8032 318.568,-72.1969 370.36,-58 501.648,-22.012 1495.77,-12.7694 1699.1,-11.2476"/>
<polygon fill="midnightblue" stroke="midnightblue" points="1699.27,-14.7466 1709.25,-11.1732 1699.22,-7.74675 1699.27,-14.7466"/>
</g>
<!-- Node51&#45;&gt;Node43 -->
<g id="edge192" class="edge"><title>Node51&#45;&gt;Node43</title>
<path fill="none" stroke="midnightblue" d="M314.008,-267.411C356.429,-241.959 464.169,-177.315 512.39,-148.382"/>
<polygon fill="midnightblue" stroke="midnightblue" points="514.429,-151.24 521.204,-143.094 510.828,-145.238 514.429,-151.24"/>
</g>
<!-- Node52&#45;&gt;Node15 -->
<g id="edge218" class="edge"><title>Node52&#45;&gt;Node15</title>
<path fill="none" stroke="midnightblue" d="M2632.96,-273.458C2825.51,-259.269 3385.52,-213.05 3438.36,-152 3505.82,-74.0615 3301.68,-30.1879 3219.77,-16.0767"/>
<polygon fill="midnightblue" stroke="midnightblue" points="3219.95,-12.5586 3209.51,-14.3556 3218.79,-19.4621 3219.95,-12.5586"/>
</g>
<!-- Node52&#45;&gt;Node29 -->
<g id="edge200" class="edge"><title>Node52&#45;&gt;Node29</title>
<path fill="none" stroke="midnightblue" d="M2566.59,-267.376C2564.82,-256.741 2562.04,-240.095 2559.83,-226.82"/>
<polygon fill="midnightblue" stroke="midnightblue" points="2563.23,-225.956 2558.14,-216.667 2556.33,-227.107 2563.23,-225.956"/>
</g>
<!-- Node53 -->
<g id="node155" class="node"><title>Node53</title>
<a xlink:href="printable_8h.html" target="_top" xlink:title="base/std_ext/printable.h">
<polygon fill="white" stroke="black" points="2613.86,-195.5 2613.86,-216.5 2734.86,-216.5 2734.86,-195.5 2613.86,-195.5"/>
<text text-anchor="middle" x="2674.36" y="-203.5" font-family="Helvetica,sans-Serif" font-size="10.00">base/std_ext/printable.h</text>
</a>
</g>
<!-- Node52&#45;&gt;Node53 -->
<g id="edge202" class="edge"><title>Node52&#45;&gt;Node53</title>
<path fill="none" stroke="midnightblue" d="M2584,-267.376C2601.46,-255.518 2629.92,-236.186 2650.23,-222.388"/>
<polygon fill="midnightblue" stroke="midnightblue" points="2652.35,-225.182 2658.66,-216.667 2648.42,-219.391 2652.35,-225.182"/>
</g>
<!-- Node53&#45;&gt;Node12 -->
<g id="edge216" class="edge"><title>Node53&#45;&gt;Node12</title>
<path fill="none" stroke="midnightblue" d="M2714.63,-195.424C2767.17,-181.437 2852.97,-157.87 2857.36,-152 2871.42,-133.19 2859.85,-106.099 2848.86,-88.0418"/>
<polygon fill="midnightblue" stroke="midnightblue" points="2851.7,-85.9854 2843.31,-79.5145 2845.83,-89.8046 2851.7,-85.9854"/>
</g>
<!-- Node53&#45;&gt;Node18 -->
<g id="edge214" class="edge"><title>Node53&#45;&gt;Node18</title>
<path fill="none" stroke="midnightblue" d="M2647.7,-195.408C2620.96,-184.71 2578.65,-167.582 2542.36,-152 2539.89,-150.938 2537.33,-149.826 2534.77,-148.699"/>
<polygon fill="midnightblue" stroke="midnightblue" points="2536.13,-145.471 2525.57,-144.606 2533.28,-151.867 2536.13,-145.471"/>
</g>
<!-- Node54 -->
<g id="node157" class="node"><title>Node54</title>
<a xlink:href="container_8h.html" target="_top" xlink:title="container.h">
<polygon fill="white" stroke="black" points="2980.86,-58.5 2980.86,-79.5 3045.86,-79.5 3045.86,-58.5 2980.86,-58.5"/>
<text text-anchor="middle" x="3013.36" y="-66.5" font-family="Helvetica,sans-Serif" font-size="10.00">container.h</text>
</a>
</g>
<!-- Node53&#45;&gt;Node54 -->
<g id="edge204" class="edge"><title>Node53&#45;&gt;Node54</title>
<path fill="none" stroke="midnightblue" d="M2711.41,-195.467C2721.7,-192.78 2732.92,-190.069 2743.36,-188 2801.22,-176.535 2965.74,-194.78 3006.36,-152 3021.92,-135.606 3021.09,-108.286 3018.08,-89.4953"/>
<polygon fill="midnightblue" stroke="midnightblue" points="3021.5,-88.7208 3016.17,-79.5647 3014.62,-90.0466 3021.5,-88.7208"/>
</g>
<!-- Node54&#45;&gt;Node3 -->
<g id="edge212" class="edge"><title>Node54&#45;&gt;Node3</title>
<path fill="none" stroke="midnightblue" d="M2980.79,-63.5693C2966.57,-61.4317 2949.68,-59.2038 2934.36,-58 2671.56,-37.3552 689.826,-14.4159 417.375,-11.3461"/>
<polygon fill="midnightblue" stroke="midnightblue" points="417.079,-7.84263 407.04,-11.23 417,-14.8422 417.079,-7.84263"/>
</g>
<!-- Node54&#45;&gt;Node15 -->
<g id="edge206" class="edge"><title>Node54&#45;&gt;Node15</title>
<path fill="none" stroke="midnightblue" d="M3044.87,-58.4966C3076.24,-48.0395 3124.13,-32.0755 3155.59,-21.5886"/>
<polygon fill="midnightblue" stroke="midnightblue" points="3156.81,-24.8729 3165.19,-18.3901 3154.6,-18.2321 3156.81,-24.8729"/>
</g>
<!-- Node54&#45;&gt;Node25 -->
<g id="edge208" class="edge"><title>Node54&#45;&gt;Node25</title>
<path fill="none" stroke="midnightblue" d="M2980.76,-63.8631C2966.54,-61.7775 2949.66,-59.5091 2934.36,-58 2640.18,-28.978 2283.61,-15.8561 2167.73,-12.1496"/>
<polygon fill="midnightblue" stroke="midnightblue" points="2167.69,-8.64687 2157.59,-11.8298 2167.47,-15.6434 2167.69,-8.64687"/>
</g>
<!-- Node55 -->
<g id="node161" class="node"><title>Node55</title>
<polygon fill="white" stroke="#bfbfbf" points="2987.86,-0.5 2987.86,-21.5 3038.86,-21.5 3038.86,-0.5 2987.86,-0.5"/>
<text text-anchor="middle" x="3013.36" y="-8.5" font-family="Helvetica,sans-Serif" font-size="10.00">numeric</text>
</g>
<!-- Node54&#45;&gt;Node55 -->
<g id="edge210" class="edge"><title>Node54&#45;&gt;Node55</title>
<path fill="none" stroke="midnightblue" d="M3013.36,-58.3619C3013.36,-50.9219 3013.36,-40.7427 3013.36,-31.7276"/>
<polygon fill="midnightblue" stroke="midnightblue" points="3016.86,-31.5706 3013.36,-21.5707 3009.86,-31.5707 3016.86,-31.5706"/>
</g>
<!-- Node56&#45;&gt;Node1 -->
<g id="edge252" class="edge"><title>Node56&#45;&gt;Node1</title>
<path fill="none" stroke="midnightblue" d="M2340.13,-509.735C2382.29,-498.55 2440.51,-483.103 2481.61,-472.2"/>
<polygon fill="midnightblue" stroke="midnightblue" points="2482.64,-475.548 2491.4,-469.601 2480.84,-468.782 2482.64,-475.548"/>
</g>
<!-- Node56&#45;&gt;Node3 -->
<g id="edge264" class="edge"><title>Node56&#45;&gt;Node3</title>
<path fill="none" stroke="midnightblue" d="M2232.77,-522.902C1904.5,-515.974 176.346,-476.523 86.3602,-412 -41.6314,-320.226 -19.3892,-157.907 102.36,-58 140.695,-26.5427 290.262,-15.6128 355.57,-12.2885"/>
<polygon fill="midnightblue" stroke="midnightblue" points="355.84,-15.7796 365.659,-11.8017 355.502,-8.78773 355.84,-15.7796"/>
</g>
<!-- Node56&#45;&gt;Node4 -->
<g id="edge262" class="edge"><title>Node56&#45;&gt;Node4</title>
<path fill="none" stroke="midnightblue" d="M2232.74,-523.346C2081.62,-521.011 1654.62,-510.876 1521.36,-470 1502.7,-464.277 1502.14,-453.312 1483.36,-448 1338.65,-407.062 267.137,-474.516 130.36,-412 92.5918,-394.737 67.3602,-384.526 67.3602,-343 67.3602,-343 67.3602,-343 67.3602,-206 67.3602,-142.833 120.331,-143.163 177.36,-116 240.493,-85.9298 322.437,-75.0371 368.925,-71.1349"/>
<polygon fill="midnightblue" stroke="midnightblue" points="369.418,-74.6073 379.118,-70.3446 368.877,-67.6283 369.418,-74.6073"/>
</g>
<!-- Node56&#45;&gt;Node15 -->
<g id="edge266" class="edge"><title>Node56&#45;&gt;Node15</title>
<path fill="none" stroke="midnightblue" d="M2339.86,-521.88C2587.37,-511.727 3609.36,-465.878 3609.36,-401 3609.36,-401 3609.36,-401 3609.36,-134 3609.36,-119.984 3611.28,-101.52 3500.36,-58 3449.62,-38.0909 3289.55,-20.8132 3220.07,-14.0449"/>
<polygon fill="midnightblue" stroke="midnightblue" points="3220.02,-10.5237 3209.73,-13.05 3219.35,-17.4915 3220.02,-10.5237"/>
</g>
<!-- Node56&#45;&gt;Node16 -->
<g id="edge256" class="edge"><title>Node56&#45;&gt;Node16</title>
<path fill="none" stroke="midnightblue" d="M2339.98,-522.125C2529.92,-514.783 3159.36,-484.178 3159.36,-401 3159.36,-401 3159.36,-401 3159.36,-278 3159.36,-229.016 3306.18,-169.97 3373.43,-145.492"/>
<polygon fill="midnightblue" stroke="midnightblue" points="3374.9,-148.682 3383.12,-142.002 3372.53,-142.095 3374.9,-148.682"/>
</g>
<!-- Node56&#45;&gt;Node20 -->
<g id="edge254" class="edge"><title>Node56&#45;&gt;Node20</title>
<path fill="none" stroke="midnightblue" d="M2232.79,-522.932C2088.38,-519.584 1693.58,-507.195 1569.36,-470 1543.92,-462.382 1379.69,-372.217 1360.36,-354 1322.62,-318.43 1293.48,-264.652 1278.21,-232.657"/>
<polygon fill="midnightblue" stroke="midnightblue" points="1281.32,-231.052 1273.92,-223.472 1274.98,-234.013 1281.32,-231.052"/>
</g>
<!-- Node56&#45;&gt;Node22 -->
<g id="edge260" class="edge"><title>Node56&#45;&gt;Node22</title>
<path fill="none" stroke="midnightblue" d="M2286.36,-506.888C2286.36,-483.127 2286.36,-438.797 2286.36,-401 2286.36,-401 2286.36,-401 2286.36,-343 2286.36,-273.29 2321.09,-256.879 2310.36,-188 2304.77,-152.135 2290.25,-112.302 2280.86,-89.0187"/>
<polygon fill="midnightblue" stroke="midnightblue" points="2284.01,-87.4697 2276.96,-79.5594 2277.54,-90.1385 2284.01,-87.4697"/>
</g>
<!-- Node56&#45;&gt;Node48 -->
<g id="edge258" class="edge"><title>Node56&#45;&gt;Node48</title>
<path fill="none" stroke="midnightblue" d="M2232.65,-520.276C2068.32,-508.169 1583.36,-466.862 1583.36,-401 1583.36,-401 1583.36,-401 1583.36,-206 1583.36,-165.118 1572.14,-143.536 1602.36,-116 1653.78,-69.1399 1845.38,-94.78 1913.36,-80 1914.45,-79.7628 1915.56,-79.5045 1916.67,-79.2294"/>
<polygon fill="midnightblue" stroke="midnightblue" points="1918,-82.4897 1926.68,-76.4084 1916.11,-75.7521 1918,-82.4897"/>
</g>
<!-- Node57 -->
<g id="node179" class="node"><title>Node57</title>
<a xlink:href="_t_unpacker_message_8h.html" target="_top" xlink:title="tree/TUnpackerMessage.h">
<polygon fill="white" stroke="black" points="2551.36,-123.5 2551.36,-144.5 2683.36,-144.5 2683.36,-123.5 2551.36,-123.5"/>
<text text-anchor="middle" x="2617.36" y="-131.5" font-family="Helvetica,sans-Serif" font-size="10.00">tree/TUnpackerMessage.h</text>
</a>
</g>
<!-- Node56&#45;&gt;Node57 -->
<g id="edge242" class="edge"><title>Node56&#45;&gt;Node57</title>
<path fill="none" stroke="midnightblue" d="M2327.59,-506.859C2383.47,-480.549 2476.36,-424.549 2476.36,-343 2476.36,-343 2476.36,-343 2476.36,-278 2476.36,-235.694 2479.37,-219.72 2507.36,-188 2523.79,-169.381 2548.11,-156.515 2569.7,-148.026"/>
<polygon fill="midnightblue" stroke="midnightblue" points="2570.92,-151.306 2579.08,-144.54 2568.48,-144.745 2570.92,-151.306"/>
</g>
<!-- Node57&#45;&gt;Node12 -->
<g id="edge250" class="edge"><title>Node57&#45;&gt;Node12</title>
<path fill="none" stroke="midnightblue" d="M2652.87,-123.412C2693.25,-111.374 2758.8,-91.8277 2799.37,-79.7306"/>
<polygon fill="midnightblue" stroke="midnightblue" points="2800.53,-83.0361 2809.12,-76.8246 2798.53,-76.3279 2800.53,-83.0361"/>
</g>
<!-- Node58 -->
<g id="node181" class="node"><title>Node58</title>
<a xlink:href="_format_8h.html" target="_top" xlink:title="base/Format.h">
<polygon fill="white" stroke="black" points="2625.36,-58.5 2625.36,-79.5 2705.36,-79.5 2705.36,-58.5 2625.36,-58.5"/>
<text text-anchor="middle" x="2665.36" y="-66.5" font-family="Helvetica,sans-Serif" font-size="10.00">base/Format.h</text>
</a>
</g>
<!-- Node57&#45;&gt;Node58 -->
<g id="edge244" class="edge"><title>Node57&#45;&gt;Node58</title>
<path fill="none" stroke="midnightblue" d="M2625.29,-123.267C2632.42,-113.612 2643.05,-99.2145 2651.57,-87.675"/>
<polygon fill="midnightblue" stroke="midnightblue" points="2654.46,-89.6572 2657.58,-79.5337 2648.83,-85.4989 2654.46,-89.6572"/>
</g>
<!-- Node58&#45;&gt;Node15 -->
<g id="edge248" class="edge"><title>Node58&#45;&gt;Node15</title>
<path fill="none" stroke="midnightblue" d="M2705.45,-64.5451C2805.46,-53.433 3064.42,-24.6595 3155.28,-14.5642"/>
<polygon fill="midnightblue" stroke="midnightblue" points="3155.71,-18.0382 3165.26,-13.4552 3154.94,-11.081 3155.71,-18.0382"/>
</g>
<!-- Node59 -->
<g id="node183" class="node"><title>Node59</title>
<polygon fill="white" stroke="#bfbfbf" points="2630.36,-0.5 2630.36,-21.5 2700.36,-21.5 2700.36,-0.5 2630.36,-0.5"/>
<text text-anchor="middle" x="2665.36" y="-8.5" font-family="Helvetica,sans-Serif" font-size="10.00">fmt/format.h</text>
</g>
<!-- Node58&#45;&gt;Node59 -->
<g id="edge246" class="edge"><title>Node58&#45;&gt;Node59</title>
<path fill="none" stroke="midnightblue" d="M2665.36,-58.3619C2665.36,-50.9219 2665.36,-40.7427 2665.36,-31.7276"/>
<polygon fill="midnightblue" stroke="midnightblue" points="2668.86,-31.5706 2665.36,-21.5707 2661.86,-31.5707 2668.86,-31.5706"/>
</g>
<!-- Node60&#45;&gt;Node4 -->
<g id="edge272" class="edge"><title>Node60&#45;&gt;Node4</title>
<path fill="none" stroke="midnightblue" d="M1485.63,-195.477C1455.24,-185.168 1408.23,-168.624 1368.36,-152 1333.86,-137.616 1328.6,-125.162 1292.36,-116 1208.97,-94.9139 597.136,-74.8808 441.364,-70.0831"/>
<polygon fill="midnightblue" stroke="midnightblue" points="441.463,-66.5846 431.361,-69.7767 441.249,-73.5813 441.463,-66.5846"/>
</g>
<!-- Node60&#45;&gt;Node17 -->
<g id="edge274" class="edge"><title>Node60&#45;&gt;Node17</title>
<path fill="none" stroke="midnightblue" d="M1535.51,-195.376C1556.04,-183.359 1589.68,-163.665 1613.31,-149.834"/>
<polygon fill="midnightblue" stroke="midnightblue" points="1615.27,-152.74 1622.14,-144.667 1611.74,-146.699 1615.27,-152.74"/>
</g>
<!-- Node60&#45;&gt;Node45 -->
<g id="edge270" class="edge"><title>Node60&#45;&gt;Node45</title>
<path fill="none" stroke="midnightblue" d="M1518.84,-195.376C1520.31,-184.741 1522.62,-168.095 1524.47,-154.82"/>
<polygon fill="midnightblue" stroke="midnightblue" points="1527.97,-155.054 1525.88,-144.667 1521.04,-154.091 1527.97,-155.054"/>
</g>
<!-- Node62 -->
<g id="node202" class="node"><title>Node62</title>
<polygon fill="white" stroke="#bfbfbf" points="3636.86,-448.5 3636.86,-469.5 3725.86,-469.5 3725.86,-448.5 3636.86,-448.5"/>
<text text-anchor="middle" x="3681.36" y="-456.5" font-family="Helvetica,sans-Serif" font-size="10.00">easylogging++.h</text>
</g>
<!-- Node61&#45;&gt;Node62 -->
<g id="edge278" class="edge"><title>Node61&#45;&gt;Node62</title>
<path fill="none" stroke="midnightblue" d="M3203.48,-520.335C3282.86,-512.69 3468.51,-493.763 3623.36,-470 3624.45,-469.833 3625.55,-469.66 3626.66,-469.483"/>
<polygon fill="midnightblue" stroke="midnightblue" points="3627.48,-472.893 3636.77,-467.785 3626.32,-465.99 3627.48,-472.893"/>
</g>
</g>
</svg>
