<?xml version="1.0" encoding="UTF-8" standalone="no"?>
<!DOCTYPE svg PUBLIC "-//W3C//DTD SVG 1.1//EN"
 "http://www.w3.org/Graphics/SVG/1.1/DTD/svg11.dtd">
<!-- Generated by graphviz version 2.26.3 (20100126.1600)
 -->
<!-- Title: src/unpacker/detail/UnpackerAcqu_legacy.h Pages: 1 -->
<svg width="534pt" height="188pt"
 viewBox="0.00 0.00 534.00 188.00" xmlns="http://www.w3.org/2000/svg" xmlns:xlink="http://www.w3.org/1999/xlink">
<g id="graph1" class="graph" transform="scale(1 1) rotate(0) translate(4 184)">
<title>src/unpacker/detail/UnpackerAcqu_legacy.h</title>
<polygon fill="white" stroke="white" points="-4,5 -4,-184 531,-184 531,5 -4,5"/>
<!-- Node4 -->
<g id="node1" class="node"><title>Node4</title>
<polygon fill="#bfbfbf" stroke="black" points="117,-145 117,-179 243,-179 243,-145 117,-145"/>
<text text-anchor="start" x="125" y="-166" font-family="Helvetica,sans-Serif" font-size="10.00">src/unpacker/detail</text>
<text text-anchor="middle" x="180" y="-153" font-family="Helvetica,sans-Serif" font-size="10.00">/UnpackerAcqu_legacy.h</text>
</g>
<!-- Node5 -->
<g id="node3" class="node"><title>Node5</title>
<a xlink:href="_ant-fake_raw_8cc.html" target="_top" xlink:title="progs/Ant&#45;fakeRaw.cc">
<polygon fill="white" stroke="black" points="0,-79.5 0,-100.5 114,-100.5 114,-79.5 0,-79.5"/>
<text text-anchor="middle" x="57" y="-87.5" font-family="Helvetica,sans-Serif" font-size="10.00">progs/Ant&#45;fakeRaw.cc</text>
</a>
</g>
<!-- Node4&#45;&gt;Node5 -->
<g id="edge2" class="edge"><title>Node4&#45;&gt;Node5</title>
<path fill="none" stroke="midnightblue" d="M141.986,-139.748C119.786,-126.753 92.7821,-110.946 75.2587,-100.688"/>
<polygon fill="midnightblue" stroke="midnightblue" points="140.452,-142.906 150.851,-144.937 143.989,-136.865 140.452,-142.906"/>
</g>
<!-- Node6 -->
<g id="node5" class="node"><title>Node6</title>
<a xlink:href="_unpacker_acqu__detail_8cc.html" target="_top" xlink:title="src/unpacker/detail\l/UnpackerAcqu_detail.cc">
<polygon fill="white" stroke="black" points="28,-1 28,-35 154,-35 154,-1 28,-1"/>
<text text-anchor="start" x="36" y="-22" font-family="Helvetica,sans-Serif" font-size="10.00">src/unpacker/detail</text>
<text text-anchor="middle" x="91" y="-9" font-family="Helvetica,sans-Serif" font-size="10.00">/UnpackerAcqu_detail.cc</text>
</a>
</g>
<!-- Node4&#45;&gt;Node6 -->
<g id="edge4" class="edge"><title>Node4&#45;&gt;Node6</title>
<path fill="none" stroke="midnightblue" d="M163.981,-136.082C145.898,-106.824 116.993,-60.0567 101.545,-35.0619"/>
<polygon fill="midnightblue" stroke="midnightblue" points="161.206,-138.25 169.441,-144.916 167.161,-134.569 161.206,-138.25"/>
</g>
<!-- Node7 -->
<g id="node7" class="node"><title>Node7</title>
<a xlink:href="_unpacker_acqu__templates_8h.html" target="_top" xlink:title="src/unpacker/detail\l/UnpackerAcqu_templates.h">
<polygon fill="white" stroke="black" points="208,-73 208,-107 348,-107 348,-73 208,-73"/>
<text text-anchor="start" x="216" y="-94" font-family="Helvetica,sans-Serif" font-size="10.00">src/unpacker/detail</text>
<text text-anchor="middle" x="278" y="-81" font-family="Helvetica,sans-Serif" font-size="10.00">/UnpackerAcqu_templates.h</text>
</a>
</g>
<!-- Node4&#45;&gt;Node7 -->
<g id="edge6" class="edge"><title>Node4&#45;&gt;Node7</title>
<path fill="none" stroke="midnightblue" d="M211.599,-138.784C225.579,-128.514 241.73,-116.648 254.602,-107.19"/>
<polygon fill="midnightblue" stroke="midnightblue" points="209.211,-136.196 203.225,-144.937 213.356,-141.837 209.211,-136.196"/>
</g>
<!-- Node8 -->
<g id="node10" class="node"><title>Node8</title>
<a xlink:href="_unpacker_acqu___file_format_mk1_8cc.html" target="_top" xlink:title="src/unpacker/detail\l/UnpackerAcqu_FileFormatMk1.cc">
<polygon fill="white" stroke="black" points="172,-1 172,-35 340,-35 340,-1 172,-1"/>
<text text-anchor="start" x="180" y="-22" font-family="Helvetica,sans-Serif" font-size="10.00">src/unpacker/detail</text>
<text text-anchor="middle" x="256" y="-9" font-family="Helvetica,sans-Serif" font-size="10.00">/UnpackerAcqu_FileFormatMk1.cc</text>
</a>
</g>
<!-- Node4&#45;&gt;Node8 -->
<g id="edge14" class="edge"><title>Node4&#45;&gt;Node8</title>
<path fill="none" stroke="midnightblue" d="M181.532,-134.492C183.562,-115.856 188.243,-91.221 199,-72 207.055,-57.6067 220.23,-44.7558 231.885,-35.2047"/>
<polygon fill="midnightblue" stroke="midnightblue" points="178.025,-134.412 180.617,-144.684 184.997,-135.037 178.025,-134.412"/>
</g>
<!-- Node9 -->
<g id="node12" class="node"><title>Node9</title>
<a xlink:href="_unpacker_acqu___file_format_mk2_8cc.html" target="_top" xlink:title="src/unpacker/detail\l/UnpackerAcqu_FileFormatMk2.cc">
<polygon fill="white" stroke="black" points="358,-1 358,-35 526,-35 526,-1 358,-1"/>
<text text-anchor="start" x="366" y="-22" font-family="Helvetica,sans-Serif" font-size="10.00">src/unpacker/detail</text>
<text text-anchor="middle" x="442" y="-9" font-family="Helvetica,sans-Serif" font-size="10.00">/UnpackerAcqu_FileFormatMk2.cc</text>
</a>
</g>
<!-- Node4&#45;&gt;Node9 -->
<g id="edge16" class="edge"><title>Node4&#45;&gt;Node9</title>
<path fill="none" stroke="midnightblue" d="M253.278,-148.64C286.629,-140.365 325.574,-127.486 357,-108 388.052,-88.7462 415.346,-55.3757 430.18,-35.1278"/>
<polygon fill="midnightblue" stroke="midnightblue" points="252.037,-145.338 243.122,-151.063 253.661,-152.147 252.037,-145.338"/>
</g>
<!-- Node7&#45;&gt;Node6 -->
<g id="edge8" class="edge"><title>Node7&#45;&gt;Node6</title>
<path fill="none" stroke="midnightblue" d="M223.999,-69.2081C195.868,-58.3768 161.892,-45.2952 135.322,-35.0651"/>
<polygon fill="midnightblue" stroke="midnightblue" points="223.094,-72.6101 233.684,-72.937 225.609,-66.0775 223.094,-72.6101"/>
</g>
<!-- Node7&#45;&gt;Node8 -->
<g id="edge10" class="edge"><title>Node7&#45;&gt;Node8</title>
<path fill="none" stroke="midnightblue" d="M269.846,-63.3147C267.002,-54.0053 263.884,-43.8034 261.329,-35.4407"/>
<polygon fill="midnightblue" stroke="midnightblue" points="266.517,-64.3963 272.786,-72.937 273.211,-62.3507 266.517,-64.3963"/>
</g>
<!-- Node7&#45;&gt;Node9 -->
<g id="edge12" class="edge"><title>Node7&#45;&gt;Node9</title>
<path fill="none" stroke="midnightblue" d="M326.332,-68.7812C350.81,-58.0346 380.133,-45.1612 403.129,-35.0651"/>
<polygon fill="midnightblue" stroke="midnightblue" points="324.615,-65.7123 316.866,-72.937 327.429,-72.1218 324.615,-65.7123"/>
</g>
</g>
</svg>
