<?xml version="1.0" encoding="UTF-8" standalone="no"?>
<!DOCTYPE svg PUBLIC "-//W3C//DTD SVG 1.1//EN"
 "http://www.w3.org/Graphics/SVG/1.1/DTD/svg11.dtd">
<!-- Generated by graphviz version 2.26.3 (20100126.1600)
 -->
<!-- Title: src/unpacker/detail/UnpackerAcqu_detail.h Pages: 1 -->
<svg width="719pt" height="188pt"
 viewBox="0.00 0.00 719.00 188.00" xmlns="http://www.w3.org/2000/svg" xmlns:xlink="http://www.w3.org/1999/xlink">
<g id="graph1" class="graph" transform="scale(1 1) rotate(0) translate(4 184)">
<title>src/unpacker/detail/UnpackerAcqu_detail.h</title>
<polygon fill="white" stroke="white" points="-4,5 -4,-184 716,-184 716,5 -4,5"/>
<!-- Node59 -->
<g id="node1" class="node"><title>Node59</title>
<polygon fill="#bfbfbf" stroke="black" points="288.5,-145 288.5,-179 409.5,-179 409.5,-145 288.5,-145"/>
<text text-anchor="start" x="296.5" y="-166" font-family="Helvetica,sans-Serif" font-size="10.00">src/unpacker/detail</text>
<text text-anchor="middle" x="349" y="-153" font-family="Helvetica,sans-Serif" font-size="10.00">/UnpackerAcqu_detail.h</text>
</g>
<!-- Node60 -->
<g id="node3" class="node"><title>Node60</title>
<a xlink:href="_unpacker_acqu__detail_8cc.html" target="_top" xlink:title="src/unpacker/detail\l/UnpackerAcqu_detail.cc">
<polygon fill="white" stroke="black" points="198,-1 198,-35 324,-35 324,-1 198,-1"/>
<text text-anchor="start" x="206" y="-22" font-family="Helvetica,sans-Serif" font-size="10.00">src/unpacker/detail</text>
<text text-anchor="middle" x="261" y="-9" font-family="Helvetica,sans-Serif" font-size="10.00">/UnpackerAcqu_detail.cc</text>
</a>
</g>
<!-- Node59&#45;&gt;Node60 -->
<g id="edge2" class="edge"><title>Node59&#45;&gt;Node60</title>
<path fill="none" stroke="midnightblue" d="M348.095,-134.759C346.362,-115.9 341.777,-90.8936 330,-72 320.585,-56.8965 305.364,-44.3191 291.61,-35.1137"/>
<polygon fill="midnightblue" stroke="midnightblue" points="344.608,-135.064 348.806,-144.792 351.59,-134.569 344.608,-135.064"/>
</g>
<!-- Node61 -->
<g id="node5" class="node"><title>Node61</title>
<a xlink:href="_unpacker_acqu__templates_8h.html" target="_top" xlink:title="src/unpacker/detail\l/UnpackerAcqu_templates.h">
<polygon fill="white" stroke="black" points="181,-73 181,-107 321,-107 321,-73 181,-73"/>
<text text-anchor="start" x="189" y="-94" font-family="Helvetica,sans-Serif" font-size="10.00">src/unpacker/detail</text>
<text text-anchor="middle" x="251" y="-81" font-family="Helvetica,sans-Serif" font-size="10.00">/UnpackerAcqu_templates.h</text>
</a>
</g>
<!-- Node59&#45;&gt;Node61 -->
<g id="edge4" class="edge"><title>Node59&#45;&gt;Node61</title>
<path fill="none" stroke="midnightblue" d="M317.401,-138.784C303.421,-128.514 287.27,-116.648 274.398,-107.19"/>
<polygon fill="midnightblue" stroke="midnightblue" points="315.644,-141.837 325.775,-144.937 319.789,-136.196 315.644,-141.837"/>
</g>
<!-- Node64 -->
<g id="node12" class="node"><title>Node64</title>
<a xlink:href="_unpacker_acqu___file_format_mk1_8h.html" target="_top" xlink:title="src/unpacker/detail\l/UnpackerAcqu_FileFormatMk1.h">
<polygon fill="white" stroke="black" points="0.5,-73 0.5,-107 163.5,-107 163.5,-73 0.5,-73"/>
<text text-anchor="start" x="8.5" y="-94" font-family="Helvetica,sans-Serif" font-size="10.00">src/unpacker/detail</text>
<text text-anchor="middle" x="82" y="-81" font-family="Helvetica,sans-Serif" font-size="10.00">/UnpackerAcqu_FileFormatMk1.h</text>
</a>
</g>
<!-- Node59&#45;&gt;Node64 -->
<g id="edge12" class="edge"><title>Node59&#45;&gt;Node64</title>
<path fill="none" stroke="midnightblue" d="M278.663,-143.033C237.229,-131.86 185.247,-117.842 145.133,-107.025"/>
<polygon fill="midnightblue" stroke="midnightblue" points="277.847,-146.438 288.414,-145.662 279.67,-139.679 277.847,-146.438"/>
</g>
<!-- Node65 -->
<g id="node16" class="node"><title>Node65</title>
<a xlink:href="_unpacker_acqu___file_format_mk2_8h.html" target="_top" xlink:title="src/unpacker/detail\l/UnpackerAcqu_FileFormatMk2.h">
<polygon fill="white" stroke="black" points="376.5,-73 376.5,-107 539.5,-107 539.5,-73 376.5,-73"/>
<text text-anchor="start" x="384.5" y="-94" font-family="Helvetica,sans-Serif" font-size="10.00">src/unpacker/detail</text>
<text text-anchor="middle" x="458" y="-81" font-family="Helvetica,sans-Serif" font-size="10.00">/UnpackerAcqu_FileFormatMk2.h</text>
</a>
</g>
<!-- Node59&#45;&gt;Node65 -->
<g id="edge18" class="edge"><title>Node59&#45;&gt;Node65</title>
<path fill="none" stroke="midnightblue" d="M383.269,-139.364C399.016,-128.962 417.388,-116.826 431.976,-107.19"/>
<polygon fill="midnightblue" stroke="midnightblue" points="381.246,-136.505 374.831,-144.937 385.105,-142.346 381.246,-136.505"/>
</g>
<!-- Node66 -->
<g id="node20" class="node"><title>Node66</title>
<a xlink:href="_unpacker_acqu_8cc.html" target="_top" xlink:title="src/unpacker/UnpackerAcqu.cc">
<polygon fill="white" stroke="black" points="557,-79.5 557,-100.5 711,-100.5 711,-79.5 557,-79.5"/>
<text text-anchor="middle" x="634" y="-87.5" font-family="Helvetica,sans-Serif" font-size="10.00">src/unpacker/UnpackerAcqu.cc</text>
</a>
</g>
<!-- Node59&#45;&gt;Node66 -->
<g id="edge24" class="edge"><title>Node59&#45;&gt;Node66</title>
<path fill="none" stroke="midnightblue" d="M419.686,-144.142C473.916,-130.442 546.931,-111.996 592.206,-100.559"/>
<polygon fill="midnightblue" stroke="midnightblue" points="418.628,-140.8 409.79,-146.643 420.343,-147.586 418.628,-140.8"/>
</g>
<!-- Node61&#45;&gt;Node60 -->
<g id="edge6" class="edge"><title>Node61&#45;&gt;Node60</title>
<path fill="none" stroke="midnightblue" d="M254.748,-63.0173C256.029,-53.7884 257.429,-43.7144 258.578,-35.4407"/>
<polygon fill="midnightblue" stroke="midnightblue" points="251.279,-62.5506 253.37,-72.937 258.212,-63.5136 251.279,-62.5506"/>
</g>
<!-- Node62 -->
<g id="node8" class="node"><title>Node62</title>
<a xlink:href="_unpacker_acqu___file_format_mk1_8cc.html" target="_top" xlink:title="src/unpacker/detail\l/UnpackerAcqu_FileFormatMk1.cc">
<polygon fill="white" stroke="black" points="0,-1 0,-35 168,-35 168,-1 0,-1"/>
<text text-anchor="start" x="8" y="-22" font-family="Helvetica,sans-Serif" font-size="10.00">src/unpacker/detail</text>
<text text-anchor="middle" x="84" y="-9" font-family="Helvetica,sans-Serif" font-size="10.00">/UnpackerAcqu_FileFormatMk1.cc</text>
</a>
</g>
<!-- Node61&#45;&gt;Node62 -->
<g id="edge8" class="edge"><title>Node61&#45;&gt;Node62</title>
<path fill="none" stroke="midnightblue" d="M202.115,-68.9238C177.122,-58.1485 147.102,-45.2059 123.582,-35.0651"/>
<polygon fill="midnightblue" stroke="midnightblue" points="200.855,-72.1919 211.423,-72.937 203.626,-65.7638 200.855,-72.1919"/>
</g>
<!-- Node63 -->
<g id="node10" class="node"><title>Node63</title>
<a xlink:href="_unpacker_acqu___file_format_mk2_8cc.html" target="_top" xlink:title="src/unpacker/detail\l/UnpackerAcqu_FileFormatMk2.cc">
<polygon fill="white" stroke="black" points="363,-1 363,-35 531,-35 531,-1 363,-1"/>
<text text-anchor="start" x="371" y="-22" font-family="Helvetica,sans-Serif" font-size="10.00">src/unpacker/detail</text>
<text text-anchor="middle" x="447" y="-9" font-family="Helvetica,sans-Serif" font-size="10.00">/UnpackerAcqu_FileFormatMk2.cc</text>
</a>
</g>
<!-- Node61&#45;&gt;Node63 -->
<g id="edge10" class="edge"><title>Node61&#45;&gt;Node63</title>
<path fill="none" stroke="midnightblue" d="M307.214,-69.3498C336.774,-58.4911 372.575,-45.3399 400.545,-35.0651"/>
<polygon fill="midnightblue" stroke="midnightblue" points="305.629,-66.2034 297.449,-72.937 308.043,-72.7741 305.629,-66.2034"/>
</g>
<!-- Node64&#45;&gt;Node60 -->
<g id="edge14" class="edge"><title>Node64&#45;&gt;Node60</title>
<path fill="none" stroke="midnightblue" d="M134.044,-69.0661C160.903,-58.2626 193.252,-45.2505 218.574,-35.0651"/>
<polygon fill="midnightblue" stroke="midnightblue" points="132.392,-65.958 124.421,-72.937 135.004,-72.4523 132.392,-65.958"/>
</g>
<!-- Node64&#45;&gt;Node62 -->
<g id="edge16" class="edge"><title>Node64&#45;&gt;Node62</title>
<path fill="none" stroke="midnightblue" d="M82.7578,-62.7193C83.0119,-53.572 83.2882,-43.6255 83.5155,-35.4407"/>
<polygon fill="midnightblue" stroke="midnightblue" points="79.2531,-62.8436 82.474,-72.937 86.2504,-63.0381 79.2531,-62.8436"/>
</g>
<!-- Node65&#45;&gt;Node60 -->
<g id="edge20" class="edge"><title>Node65&#45;&gt;Node60</title>
<path fill="none" stroke="midnightblue" d="M401.886,-69.4913C372.101,-58.6055 335.927,-45.3846 307.692,-35.0651"/>
<polygon fill="midnightblue" stroke="midnightblue" points="400.72,-72.7915 411.314,-72.937 403.123,-66.2169 400.72,-72.7915"/>
</g>
<!-- Node65&#45;&gt;Node63 -->
<g id="edge22" class="edge"><title>Node65&#45;&gt;Node63</title>
<path fill="none" stroke="midnightblue" d="M453.878,-63.0173C452.468,-53.7884 450.929,-43.7144 449.665,-35.4407"/>
<polygon fill="midnightblue" stroke="midnightblue" points="450.423,-63.5803 455.393,-72.937 457.343,-62.5231 450.423,-63.5803"/>
</g>
</g>
</svg>
