<?xml version="1.0" encoding="UTF-8" standalone="no"?>
<!DOCTYPE svg PUBLIC "-//W3C//DTD SVG 1.1//EN"
 "http://www.w3.org/Graphics/SVG/1.1/DTD/svg11.dtd">
<!-- Generated by graphviz version 2.26.3 (20100126.1600)
 -->
<!-- Title: src/unpacker/detail/UnpackerAcqu_templates.h Pages: 1 -->
<svg width="506pt" height="116pt"
 viewBox="0.00 0.00 506.00 116.00" xmlns="http://www.w3.org/2000/svg" xmlns:xlink="http://www.w3.org/1999/xlink">
<g id="graph1" class="graph" transform="scale(1 1) rotate(0) translate(4 112)">
<title>src/unpacker/detail/UnpackerAcqu_templates.h</title>
<polygon fill="white" stroke="white" points="-4,5 -4,-112 503,-112 503,5 -4,5"/>
<!-- Node61 -->
<g id="node1" class="node"><title>Node61</title>
<polygon fill="#bfbfbf" stroke="black" points="158,-73 158,-107 298,-107 298,-73 158,-73"/>
<text text-anchor="start" x="166" y="-94" font-family="Helvetica,sans-Serif" font-size="10.00">src/unpacker/detail</text>
<text text-anchor="middle" x="228" y="-81" font-family="Helvetica,sans-Serif" font-size="10.00">/UnpackerAcqu_templates.h</text>
</g>
<!-- Node62 -->
<g id="node3" class="node"><title>Node62</title>
<a xlink:href="_unpacker_acqu__detail_8cc.html" target="_top" xlink:title="src/unpacker/detail\l/UnpackerAcqu_detail.cc">
<polygon fill="white" stroke="black" points="0,-1 0,-35 126,-35 126,-1 0,-1"/>
<text text-anchor="start" x="8" y="-22" font-family="Helvetica,sans-Serif" font-size="10.00">src/unpacker/detail</text>
<text text-anchor="middle" x="63" y="-9" font-family="Helvetica,sans-Serif" font-size="10.00">/UnpackerAcqu_detail.cc</text>
</a>
</g>
<!-- Node61&#45;&gt;Node62 -->
<g id="edge2" class="edge"><title>Node61&#45;&gt;Node62</title>
<path fill="none" stroke="midnightblue" d="M179.7,-68.9238C155.007,-58.1485 125.347,-45.2059 102.108,-35.0651"/>
<polygon fill="midnightblue" stroke="midnightblue" points="178.332,-72.1454 188.897,-72.937 181.132,-65.7296 178.332,-72.1454"/>
</g>
<!-- Node63 -->
<g id="node5" class="node"><title>Node63</title>
<a xlink:href="_unpacker_acqu___file_format_mk1_8cc.html" target="_top" xlink:title="src/unpacker/detail\l/UnpackerAcqu_FileFormatMk1.cc">
<polygon fill="white" stroke="black" points="144,-1 144,-35 312,-35 312,-1 144,-1"/>
<text text-anchor="start" x="152" y="-22" font-family="Helvetica,sans-Serif" font-size="10.00">src/unpacker/detail</text>
<text text-anchor="middle" x="228" y="-9" font-family="Helvetica,sans-Serif" font-size="10.00">/UnpackerAcqu_FileFormatMk1.cc</text>
</a>
</g>
<!-- Node61&#45;&gt;Node63 -->
<g id="edge4" class="edge"><title>Node61&#45;&gt;Node63</title>
<path fill="none" stroke="midnightblue" d="M228,-62.7193C228,-53.572 228,-43.6255 228,-35.4407"/>
<polygon fill="midnightblue" stroke="midnightblue" points="224.5,-62.937 228,-72.937 231.5,-62.937 224.5,-62.937"/>
</g>
<!-- Node64 -->
<g id="node7" class="node"><title>Node64</title>
<a xlink:href="_unpacker_acqu___file_format_mk2_8cc.html" target="_top" xlink:title="src/unpacker/detail\l/UnpackerAcqu_FileFormatMk2.cc">
<polygon fill="white" stroke="black" points="330,-1 330,-35 498,-35 498,-1 330,-1"/>
<text text-anchor="start" x="338" y="-22" font-family="Helvetica,sans-Serif" font-size="10.00">src/unpacker/detail</text>
<text text-anchor="middle" x="414" y="-9" font-family="Helvetica,sans-Serif" font-size="10.00">/UnpackerAcqu_FileFormatMk2.cc</text>
</a>
</g>
<!-- Node61&#45;&gt;Node64 -->
<g id="edge6" class="edge"><title>Node61&#45;&gt;Node64</title>
<path fill="none" stroke="midnightblue" d="M281.712,-69.2081C309.693,-58.3768 343.487,-45.2952 369.915,-35.0651"/>
<polygon fill="midnightblue" stroke="midnightblue" points="280.142,-66.063 272.079,-72.937 282.669,-72.591 280.142,-66.063"/>
</g>
</g>
</svg>
