<?xml version="1.0" encoding="UTF-8" standalone="no"?>
<!DOCTYPE svg PUBLIC "-//W3C//DTD SVG 1.1//EN"
 "http://www.w3.org/Graphics/SVG/1.1/DTD/svg11.dtd">
<!-- Generated by graphviz version 2.26.3 (20100126.1600)
 -->
<!-- Title: src/reconstruct/UpdateableManager.cc Pages: 1 -->
<svg width="1705pt" height="420pt"
 viewBox="0.00 0.00 1705.00 420.00" xmlns="http://www.w3.org/2000/svg" xmlns:xlink="http://www.w3.org/1999/xlink">
<g id="graph1" class="graph" transform="scale(1 1) rotate(0) translate(4 416)">
<title>src/reconstruct/UpdateableManager.cc</title>
<polygon fill="white" stroke="white" points="-4,5 -4,-416 1702,-416 1702,5 -4,5"/>
<!-- Node0 -->
<g id="node1" class="node"><title>Node0</title>
<polygon fill="#bfbfbf" stroke="black" points="764,-377 764,-411 898,-411 898,-377 764,-377"/>
<text text-anchor="start" x="772" y="-398" font-family="Helvetica,sans-Serif" font-size="10.00">src/reconstruct/Updateable</text>
<text text-anchor="middle" x="831" y="-385" font-family="Helvetica,sans-Serif" font-size="10.00">Manager.cc</text>
</g>
<!-- Node1 -->
<g id="node3" class="node"><title>Node1</title>
<a xlink:href="_updateable_manager_8h.html" target="_top" xlink:title="UpdateableManager.h">
<polygon fill="white" stroke="black" points="613,-318.5 613,-339.5 725,-339.5 725,-318.5 613,-318.5"/>
<text text-anchor="middle" x="669" y="-326.5" font-family="Helvetica,sans-Serif" font-size="10.00">UpdateableManager.h</text>
</a>
</g>
<!-- Node0&#45;&gt;Node1 -->
<g id="edge2" class="edge"><title>Node0&#45;&gt;Node1</title>
<path fill="none" stroke="midnightblue" d="M788.436,-376.922C762.45,-366.495 729.592,-353.312 704.921,-343.413"/>
<polygon fill="midnightblue" stroke="midnightblue" points="706.148,-340.134 695.564,-339.658 703.541,-346.631 706.148,-340.134"/>
</g>
<!-- Node2 -->
<g id="node5" class="node"><title>Node2</title>
<a xlink:href="_t_i_d_8h.html" target="_top" xlink:title="tree/TID.h">
<polygon fill="white" stroke="black" points="348.5,-260.5 348.5,-281.5 409.5,-281.5 409.5,-260.5 348.5,-260.5"/>
<text text-anchor="middle" x="379" y="-268.5" font-family="Helvetica,sans-Serif" font-size="10.00">tree/TID.h</text>
</a>
</g>
<!-- Node0&#45;&gt;Node2 -->
<g id="edge114" class="edge"><title>Node0&#45;&gt;Node2</title>
<path fill="none" stroke="midnightblue" d="M763.669,-379.172C718.351,-368.901 657.357,-354.512 604,-340 538.94,-322.305 464.264,-298.752 419.404,-284.246"/>
<polygon fill="midnightblue" stroke="midnightblue" points="420.346,-280.872 409.754,-281.116 418.186,-287.53 420.346,-280.872"/>
</g>
<!-- Node15 -->
<g id="node31" class="node"><title>Node15</title>
<polygon fill="white" stroke="#bfbfbf" points="516.5,-123.5 516.5,-144.5 575.5,-144.5 575.5,-123.5 516.5,-123.5"/>
<text text-anchor="middle" x="546" y="-131.5" font-family="Helvetica,sans-Serif" font-size="10.00">stdexcept</text>
</g>
<!-- Node0&#45;&gt;Node15 -->
<g id="edge126" class="edge"><title>Node0&#45;&gt;Node15</title>
<path fill="none" stroke="midnightblue" d="M815.28,-376.939C791.069,-350.92 742.853,-300.115 699,-260 654.169,-218.99 598.395,-174.61 568.1,-151.018"/>
<polygon fill="midnightblue" stroke="midnightblue" points="569.955,-148.028 559.908,-144.663 565.664,-153.558 569.955,-148.028"/>
</g>
<!-- Node16 -->
<g id="node33" class="node"><title>Node16</title>
<polygon fill="white" stroke="#bfbfbf" points="310.5,-58.5 310.5,-79.5 339.5,-79.5 339.5,-58.5 310.5,-58.5"/>
<text text-anchor="middle" x="325" y="-66.5" font-family="Helvetica,sans-Serif" font-size="10.00">list</text>
</g>
<!-- Node0&#45;&gt;Node16 -->
<g id="edge120" class="edge"><title>Node0&#45;&gt;Node16</title>
<path fill="none" stroke="midnightblue" d="M763.7,-391.099C565.867,-381.685 0,-348.023 0,-271 0,-271 0,-271 0,-206 0,-157.926 19.7659,-142.312 60,-116 99.5845,-90.1128 242.294,-75.776 300.263,-70.9109"/>
<polygon fill="midnightblue" stroke="midnightblue" points="300.682,-74.3885 310.365,-70.0878 300.114,-67.4116 300.682,-74.3885"/>
</g>
<!-- Node18 -->
<g id="node38" class="node"><title>Node18</title>
<a xlink:href="_reconstruct__traits_8h.html" target="_top" xlink:title="Reconstruct_traits.h">
<polygon fill="white" stroke="black" points="1050.5,-260.5 1050.5,-281.5 1155.5,-281.5 1155.5,-260.5 1050.5,-260.5"/>
<text text-anchor="middle" x="1103" y="-268.5" font-family="Helvetica,sans-Serif" font-size="10.00">Reconstruct_traits.h</text>
</a>
</g>
<!-- Node0&#45;&gt;Node18 -->
<g id="edge112" class="edge"><title>Node0&#45;&gt;Node18</title>
<path fill="none" stroke="midnightblue" d="M868.82,-376.897C922.44,-352.65 1019.66,-308.688 1070.32,-285.779"/>
<polygon fill="midnightblue" stroke="midnightblue" points="1071.84,-288.933 1079.51,-281.623 1068.95,-282.555 1071.84,-288.933"/>
</g>
<!-- Node30 -->
<g id="node70" class="node"><title>Node30</title>
<polygon fill="white" stroke="#bfbfbf" points="1408,-58.5 1408,-79.5 1460,-79.5 1460,-58.5 1408,-58.5"/>
<text text-anchor="middle" x="1434" y="-66.5" font-family="Helvetica,sans-Serif" font-size="10.00">memory</text>
</g>
<!-- Node0&#45;&gt;Node30 -->
<g id="edge122" class="edge"><title>Node0&#45;&gt;Node30</title>
<path fill="none" stroke="midnightblue" d="M898.059,-390.109C1028.51,-382.146 1311.96,-362.806 1407,-340 1487.9,-320.589 1581,-354.192 1581,-271 1581,-271 1581,-271 1581,-206 1581,-145.223 1512.92,-103.719 1469.42,-83.404"/>
<polygon fill="midnightblue" stroke="midnightblue" points="1470.83,-80.2017 1460.28,-79.2751 1467.95,-86.5812 1470.83,-80.2017"/>
</g>
<!-- Node33 -->
<g id="node84" class="node"><title>Node33</title>
<polygon fill="white" stroke="#bfbfbf" points="1518.5,-195.5 1518.5,-216.5 1553.5,-216.5 1553.5,-195.5 1518.5,-195.5"/>
<text text-anchor="middle" x="1536" y="-203.5" font-family="Helvetica,sans-Serif" font-size="10.00">map</text>
</g>
<!-- Node0&#45;&gt;Node33 -->
<g id="edge124" class="edge"><title>Node0&#45;&gt;Node33</title>
<path fill="none" stroke="midnightblue" d="M898.066,-391.016C1049.48,-383.018 1411.86,-356.41 1505,-282 1521.8,-268.575 1529.57,-244.561 1533.11,-227.111"/>
<polygon fill="midnightblue" stroke="midnightblue" points="1536.65,-227.217 1534.88,-216.77 1529.75,-226.035 1536.65,-227.217"/>
</g>
<!-- Node35 -->
<g id="node94" class="node"><title>Node35</title>
<a xlink:href="_logger_8h.html" target="_top" xlink:title="base/Logger.h">
<polygon fill="white" stroke="black" points="1611,-318.5 1611,-339.5 1689,-339.5 1689,-318.5 1611,-318.5"/>
<text text-anchor="middle" x="1650" y="-326.5" font-family="Helvetica,sans-Serif" font-size="10.00">base/Logger.h</text>
</a>
</g>
<!-- Node0&#45;&gt;Node35 -->
<g id="edge116" class="edge"><title>Node0&#45;&gt;Node35</title>
<path fill="none" stroke="midnightblue" d="M898.23,-392.112C1031.63,-387.736 1339.02,-374.503 1595,-340 1596.92,-339.741 1598.87,-339.457 1600.84,-339.152"/>
<polygon fill="midnightblue" stroke="midnightblue" points="1601.47,-342.595 1610.74,-337.48 1600.3,-335.693 1601.47,-342.595"/>
</g>
<!-- Node1&#45;&gt;Node2 -->
<g id="edge4" class="edge"><title>Node1&#45;&gt;Node2</title>
<path fill="none" stroke="midnightblue" d="M616.483,-318.497C559.983,-307.197 471.331,-289.466 419.826,-279.165"/>
<polygon fill="midnightblue" stroke="midnightblue" points="420.225,-275.676 409.733,-277.147 418.852,-282.54 420.225,-275.676"/>
</g>
<!-- Node1&#45;&gt;Node16 -->
<g id="edge108" class="edge"><title>Node1&#45;&gt;Node16</title>
<path fill="none" stroke="midnightblue" d="M652.903,-318.49C614.98,-293.957 516.688,-231.688 430,-188 393.363,-169.536 371.534,-183.291 345,-152 330.234,-134.587 325.997,-108.08 324.964,-89.7268"/>
<polygon fill="midnightblue" stroke="midnightblue" points="328.456,-89.402 324.669,-79.507 321.459,-89.6038 328.456,-89.402"/>
</g>
<!-- Node1&#45;&gt;Node18 -->
<g id="edge38" class="edge"><title>Node1&#45;&gt;Node18</title>
<path fill="none" stroke="midnightblue" d="M725.293,-321.477C806.399,-310.638 955.647,-290.692 1040.22,-279.39"/>
<polygon fill="midnightblue" stroke="midnightblue" points="1040.76,-282.85 1050.2,-278.056 1039.83,-275.911 1040.76,-282.85"/>
</g>
<!-- Node1&#45;&gt;Node30 -->
<g id="edge110" class="edge"><title>Node1&#45;&gt;Node30</title>
<path fill="none" stroke="midnightblue" d="M725.196,-327.294C817.554,-323.682 1006.87,-312.873 1164,-282 1251.47,-264.813 1281.27,-272.6 1356,-224 1391.4,-200.977 1399.61,-190.013 1418,-152 1427.6,-132.17 1431.44,-107.056 1432.98,-89.6739"/>
<polygon fill="midnightblue" stroke="midnightblue" points="1436.48,-89.7219 1433.69,-79.5011 1429.5,-89.231 1436.48,-89.7219"/>
</g>
<!-- Node34 -->
<g id="node88" class="node"><title>Node34</title>
<polygon fill="white" stroke="#bfbfbf" points="647.5,-260.5 647.5,-281.5 690.5,-281.5 690.5,-260.5 647.5,-260.5"/>
<text text-anchor="middle" x="669" y="-268.5" font-family="Helvetica,sans-Serif" font-size="10.00">queue</text>
</g>
<!-- Node1&#45;&gt;Node34 -->
<g id="edge106" class="edge"><title>Node1&#45;&gt;Node34</title>
<path fill="none" stroke="midnightblue" d="M669,-318.362C669,-310.922 669,-300.743 669,-291.728"/>
<polygon fill="midnightblue" stroke="midnightblue" points="672.5,-291.571 669,-281.571 665.5,-291.571 672.5,-291.571"/>
</g>
<!-- Node3 -->
<g id="node7" class="node"><title>Node3</title>
<polygon fill="white" stroke="#bfbfbf" points="186,-195.5 186,-216.5 242,-216.5 242,-195.5 186,-195.5"/>
<text text-anchor="middle" x="214" y="-203.5" font-family="Helvetica,sans-Serif" font-size="10.00">Rtypes.h</text>
</g>
<!-- Node2&#45;&gt;Node3 -->
<g id="edge6" class="edge"><title>Node2&#45;&gt;Node3</title>
<path fill="none" stroke="midnightblue" d="M350.539,-260.492C325.528,-251.171 288.204,-237.048 256,-224 253.312,-222.911 250.535,-221.766 247.749,-220.603"/>
<polygon fill="midnightblue" stroke="midnightblue" points="248.935,-217.304 238.361,-216.635 246.21,-223.752 248.935,-217.304"/>
</g>
<!-- Node4 -->
<g id="node9" class="node"><title>Node4</title>
<a xlink:href="base_2std__ext_2_time_8h.html" target="_top" xlink:title="base/std_ext/time.h">
<polygon fill="white" stroke="black" points="65.5,-195.5 65.5,-216.5 168.5,-216.5 168.5,-195.5 65.5,-195.5"/>
<text text-anchor="middle" x="117" y="-203.5" font-family="Helvetica,sans-Serif" font-size="10.00">base/std_ext/time.h</text>
</a>
</g>
<!-- Node2&#45;&gt;Node4 -->
<g id="edge8" class="edge"><title>Node2&#45;&gt;Node4</title>
<path fill="none" stroke="midnightblue" d="M348.395,-264.507C308.694,-255.941 237.371,-240.062 177,-224 171.679,-222.584 166.117,-221.025 160.616,-219.433"/>
<polygon fill="midnightblue" stroke="midnightblue" points="161.428,-216.024 150.847,-216.559 159.452,-222.739 161.428,-216.024"/>
</g>
<!-- Node11 -->
<g id="node23" class="node"><title>Node11</title>
<polygon fill="white" stroke="#bfbfbf" points="175.5,-123.5 175.5,-144.5 216.5,-144.5 216.5,-123.5 175.5,-123.5"/>
<text text-anchor="middle" x="196" y="-131.5" font-family="Helvetica,sans-Serif" font-size="10.00">ctime</text>
</g>
<!-- Node2&#45;&gt;Node11 -->
<g id="edge36" class="edge"><title>Node2&#45;&gt;Node11</title>
<path fill="none" stroke="midnightblue" d="M354.213,-260.413C335.487,-251.869 309.583,-238.855 289,-224 284.872,-221.021 239.971,-177.146 214.101,-151.777"/>
<polygon fill="midnightblue" stroke="midnightblue" points="216.339,-149.069 206.75,-144.564 211.436,-154.066 216.339,-149.069"/>
</g>
<!-- Node12 -->
<g id="node25" class="node"><title>Node12</title>
<polygon fill="white" stroke="#bfbfbf" points="991,-123.5 991,-144.5 1053,-144.5 1053,-123.5 991,-123.5"/>
<text text-anchor="middle" x="1022" y="-131.5" font-family="Helvetica,sans-Serif" font-size="10.00">type_traits</text>
</g>
<!-- Node2&#45;&gt;Node12 -->
<g id="edge24" class="edge"><title>Node2&#45;&gt;Node12</title>
<path fill="none" stroke="midnightblue" d="M409.798,-270.068C505.335,-266.876 795.552,-254.826 884,-224 930.592,-207.762 977.052,-172.543 1002.4,-151.296"/>
<polygon fill="midnightblue" stroke="midnightblue" points="1004.83,-153.828 1010.16,-144.674 1000.28,-148.504 1004.83,-153.828"/>
</g>
<!-- Node13 -->
<g id="node27" class="node"><title>Node13</title>
<polygon fill="white" stroke="#bfbfbf" points="298,-195.5 298,-216.5 336,-216.5 336,-195.5 298,-195.5"/>
<text text-anchor="middle" x="317" y="-203.5" font-family="Helvetica,sans-Serif" font-size="10.00">tuple</text>
</g>
<!-- Node2&#45;&gt;Node13 -->
<g id="edge26" class="edge"><title>Node2&#45;&gt;Node13</title>
<path fill="none" stroke="midnightblue" d="M368.762,-260.267C359.372,-250.423 345.28,-235.648 334.169,-224"/>
<polygon fill="midnightblue" stroke="midnightblue" points="336.482,-221.354 327.048,-216.534 331.417,-226.186 336.482,-221.354"/>
</g>
<!-- Node14 -->
<g id="node29" class="node"><title>Node14</title>
<polygon fill="white" stroke="#bfbfbf" points="251,-123.5 251,-144.5 297,-144.5 297,-123.5 251,-123.5"/>
<text text-anchor="middle" x="274" y="-131.5" font-family="Helvetica,sans-Serif" font-size="10.00">cstdint</text>
</g>
<!-- Node2&#45;&gt;Node14 -->
<g id="edge28" class="edge"><title>Node2&#45;&gt;Node14</title>
<path fill="none" stroke="midnightblue" d="M389.732,-260.277C405.013,-243.68 429.459,-211.263 413,-188 385.234,-148.755 355.353,-170.545 311,-152 308.636,-151.011 306.207,-149.946 303.779,-148.846"/>
<polygon fill="midnightblue" stroke="midnightblue" points="305.093,-145.596 294.554,-144.511 302.116,-151.931 305.093,-145.596"/>
</g>
<!-- Node2&#45;&gt;Node15 -->
<g id="edge30" class="edge"><title>Node2&#45;&gt;Node15</title>
<path fill="none" stroke="midnightblue" d="M391.827,-260.477C420.413,-237.026 489.594,-180.274 524.742,-151.439"/>
<polygon fill="midnightblue" stroke="midnightblue" points="527.388,-153.796 532.899,-144.747 522.948,-148.384 527.388,-153.796"/>
</g>
<!-- Node2&#45;&gt;Node16 -->
<g id="edge32" class="edge"><title>Node2&#45;&gt;Node16</title>
<path fill="none" stroke="midnightblue" d="M348.289,-268.776C271.504,-262.907 75.9604,-245.929 57,-224 33.1861,-196.458 77.0299,-122.668 85,-116 117.523,-88.7923 245.398,-75.4294 300.033,-70.87"/>
<polygon fill="midnightblue" stroke="midnightblue" points="300.539,-74.3407 310.227,-70.0514 299.978,-67.3632 300.539,-74.3407"/>
</g>
<!-- Node17 -->
<g id="node35" class="node"><title>Node17</title>
<polygon fill="white" stroke="#bfbfbf" points="354,-195.5 354,-216.5 404,-216.5 404,-195.5 354,-195.5"/>
<text text-anchor="middle" x="379" y="-203.5" font-family="Helvetica,sans-Serif" font-size="10.00">iomanip</text>
</g>
<!-- Node2&#45;&gt;Node17 -->
<g id="edge34" class="edge"><title>Node2&#45;&gt;Node17</title>
<path fill="none" stroke="midnightblue" d="M379,-260.267C379,-251.18 379,-237.892 379,-226.74"/>
<polygon fill="midnightblue" stroke="midnightblue" points="382.5,-226.534 379,-216.534 375.5,-226.534 382.5,-226.534"/>
</g>
<!-- Node5 -->
<g id="node11" class="node"><title>Node5</title>
<a xlink:href="string_8h.html" target="_top" xlink:title="base/std_ext/string.h">
<polygon fill="white" stroke="black" points="391,-123.5 391,-144.5 499,-144.5 499,-123.5 391,-123.5"/>
<text text-anchor="middle" x="445" y="-131.5" font-family="Helvetica,sans-Serif" font-size="10.00">base/std_ext/string.h</text>
</a>
</g>
<!-- Node4&#45;&gt;Node5 -->
<g id="edge10" class="edge"><title>Node4&#45;&gt;Node5</title>
<path fill="none" stroke="midnightblue" d="M150.172,-195.451C158.858,-192.853 168.243,-190.191 177,-188 246.137,-170.704 326.37,-155.12 380.898,-145.19"/>
<polygon fill="midnightblue" stroke="midnightblue" points="381.556,-148.628 390.772,-143.402 380.309,-141.74 381.556,-148.628"/>
</g>
<!-- Node10 -->
<g id="node21" class="node"><title>Node10</title>
<polygon fill="white" stroke="#bfbfbf" points="94,-123.5 94,-144.5 140,-144.5 140,-123.5 94,-123.5"/>
<text text-anchor="middle" x="117" y="-131.5" font-family="Helvetica,sans-Serif" font-size="10.00">cstring</text>
</g>
<!-- Node4&#45;&gt;Node10 -->
<g id="edge20" class="edge"><title>Node4&#45;&gt;Node10</title>
<path fill="none" stroke="midnightblue" d="M117,-195.376C117,-184.741 117,-168.095 117,-154.82"/>
<polygon fill="midnightblue" stroke="midnightblue" points="120.5,-154.667 117,-144.667 113.5,-154.667 120.5,-154.667"/>
</g>
<!-- Node4&#45;&gt;Node11 -->
<g id="edge22" class="edge"><title>Node4&#45;&gt;Node11</title>
<path fill="none" stroke="midnightblue" d="M128.657,-195.376C141.259,-183.89 161.555,-165.393 176.576,-151.703"/>
<polygon fill="midnightblue" stroke="midnightblue" points="179.262,-153.99 184.295,-144.667 174.547,-148.817 179.262,-153.99"/>
</g>
<!-- Node6 -->
<g id="node13" class="node"><title>Node6</title>
<polygon fill="white" stroke="#bfbfbf" points="507.5,-58.5 507.5,-79.5 548.5,-79.5 548.5,-58.5 507.5,-58.5"/>
<text text-anchor="middle" x="528" y="-66.5" font-family="Helvetica,sans-Serif" font-size="10.00">string</text>
</g>
<!-- Node5&#45;&gt;Node6 -->
<g id="edge12" class="edge"><title>Node5&#45;&gt;Node6</title>
<path fill="none" stroke="midnightblue" d="M458.706,-123.267C471.638,-113.139 491.235,-97.7916 506.293,-85.9995"/>
<polygon fill="midnightblue" stroke="midnightblue" points="508.834,-88.455 514.549,-79.5337 504.518,-82.9438 508.834,-88.455"/>
</g>
<!-- Node7 -->
<g id="node15" class="node"><title>Node7</title>
<polygon fill="white" stroke="#bfbfbf" points="419,-58.5 419,-79.5 471,-79.5 471,-58.5 419,-58.5"/>
<text text-anchor="middle" x="445" y="-66.5" font-family="Helvetica,sans-Serif" font-size="10.00">sstream</text>
</g>
<!-- Node5&#45;&gt;Node7 -->
<g id="edge14" class="edge"><title>Node5&#45;&gt;Node7</title>
<path fill="none" stroke="midnightblue" d="M445,-123.267C445,-114.18 445,-100.892 445,-89.7395"/>
<polygon fill="midnightblue" stroke="midnightblue" points="448.5,-89.5337 445,-79.5337 441.5,-89.5337 448.5,-89.5337"/>
</g>
<!-- Node8 -->
<g id="node17" class="node"><title>Node8</title>
<polygon fill="white" stroke="#bfbfbf" points="916,-58.5 916,-79.5 972,-79.5 972,-58.5 916,-58.5"/>
<text text-anchor="middle" x="944" y="-66.5" font-family="Helvetica,sans-Serif" font-size="10.00">algorithm</text>
</g>
<!-- Node5&#45;&gt;Node8 -->
<g id="edge16" class="edge"><title>Node5&#45;&gt;Node8</title>
<path fill="none" stroke="midnightblue" d="M477.42,-123.474C487.161,-120.656 497.935,-117.875 508,-116 679.881,-83.987 730.318,-112.467 906.034,-79.857"/>
<polygon fill="midnightblue" stroke="midnightblue" points="906.688,-83.2954 915.861,-77.9942 905.384,-76.4178 906.688,-83.2954"/>
</g>
<!-- Node9 -->
<g id="node19" class="node"><title>Node9</title>
<polygon fill="white" stroke="#bfbfbf" points="990,-58.5 990,-79.5 1034,-79.5 1034,-58.5 990,-58.5"/>
<text text-anchor="middle" x="1012" y="-66.5" font-family="Helvetica,sans-Serif" font-size="10.00">vector</text>
</g>
<!-- Node5&#45;&gt;Node9 -->
<g id="edge18" class="edge"><title>Node5&#45;&gt;Node9</title>
<path fill="none" stroke="midnightblue" d="M477.079,-123.48C486.905,-120.626 497.811,-117.824 508,-116 712.289,-79.4308 772.848,-122.255 979.882,-79.7416"/>
<polygon fill="midnightblue" stroke="midnightblue" points="980.783,-83.1288 989.852,-77.652 979.347,-76.2777 980.783,-83.1288"/>
</g>
<!-- Node18&#45;&gt;Node16 -->
<g id="edge102" class="edge"><title>Node18&#45;&gt;Node16</title>
<path fill="none" stroke="midnightblue" d="M1050.32,-264.774C893.687,-245.923 438.265,-188.525 382,-152 358.635,-136.832 342.271,-108.385 333.247,-89.0695"/>
<polygon fill="midnightblue" stroke="midnightblue" points="336.337,-87.4025 329.094,-79.6699 329.934,-90.2314 336.337,-87.4025"/>
</g>
<!-- Node19 -->
<g id="node40" class="node"><title>Node19</title>
<a xlink:href="_detector__t_8h.html" target="_top" xlink:title="base/Detector_t.h">
<polygon fill="white" stroke="black" points="780.5,-195.5 780.5,-216.5 875.5,-216.5 875.5,-195.5 780.5,-195.5"/>
<text text-anchor="middle" x="828" y="-203.5" font-family="Helvetica,sans-Serif" font-size="10.00">base/Detector_t.h</text>
</a>
</g>
<!-- Node18&#45;&gt;Node19 -->
<g id="edge40" class="edge"><title>Node18&#45;&gt;Node19</title>
<path fill="none" stroke="midnightblue" d="M1058.51,-260.484C1010.48,-249.133 933.957,-231.044 882.39,-218.856"/>
<polygon fill="midnightblue" stroke="midnightblue" points="882.962,-215.395 872.425,-216.501 881.352,-222.207 882.962,-215.395"/>
</g>
<!-- Node28 -->
<g id="node66" class="node"><title>Node28</title>
<a xlink:href="mapped__vectors_8h.html" target="_top" xlink:title="base/std_ext/mapped\l_vectors.h">
<polygon fill="white" stroke="black" points="1048,-189 1048,-223 1158,-223 1158,-189 1048,-189"/>
<text text-anchor="start" x="1056" y="-210" font-family="Helvetica,sans-Serif" font-size="10.00">base/std_ext/mapped</text>
<text text-anchor="middle" x="1103" y="-197" font-family="Helvetica,sans-Serif" font-size="10.00">_vectors.h</text>
</a>
</g>
<!-- Node18&#45;&gt;Node28 -->
<g id="edge74" class="edge"><title>Node18&#45;&gt;Node28</title>
<path fill="none" stroke="midnightblue" d="M1103,-260.267C1103,-252.931 1103,-242.857 1103,-233.38"/>
<polygon fill="midnightblue" stroke="midnightblue" points="1106.5,-233.11 1103,-223.11 1099.5,-233.11 1106.5,-233.11"/>
</g>
<!-- Node18&#45;&gt;Node30 -->
<g id="edge98" class="edge"><title>Node18&#45;&gt;Node30</title>
<path fill="none" stroke="midnightblue" d="M1155.86,-267.339C1200.91,-262.414 1266.25,-250.894 1317,-224 1358.11,-202.214 1365.38,-189.442 1393,-152 1407.46,-132.4 1419.17,-106.919 1426.31,-89.3887"/>
<polygon fill="midnightblue" stroke="midnightblue" points="1429.75,-90.2116 1430.16,-79.6246 1423.24,-87.6471 1429.75,-90.2116"/>
</g>
<!-- Node31 -->
<g id="node76" class="node"><title>Node31</title>
<a xlink:href="shared__ptr__container_8h.html" target="_top" xlink:title="base/std_ext/shared\l_ptr_container.h">
<polygon fill="white" stroke="black" points="1244.5,-117 1244.5,-151 1349.5,-151 1349.5,-117 1244.5,-117"/>
<text text-anchor="start" x="1252.5" y="-138" font-family="Helvetica,sans-Serif" font-size="10.00">base/std_ext/shared</text>
<text text-anchor="middle" x="1297" y="-125" font-family="Helvetica,sans-Serif" font-size="10.00">_ptr_container.h</text>
</a>
</g>
<!-- Node18&#45;&gt;Node31 -->
<g id="edge88" class="edge"><title>Node18&#45;&gt;Node31</title>
<path fill="none" stroke="midnightblue" d="M1117.9,-260.477C1149.11,-238.437 1221.98,-186.981 1264.53,-156.933"/>
<polygon fill="midnightblue" stroke="midnightblue" points="1266.72,-159.671 1272.86,-151.044 1262.68,-153.953 1266.72,-159.671"/>
</g>
<!-- Node32 -->
<g id="node80" class="node"><title>Node32</title>
<polygon fill="white" stroke="#bfbfbf" points="1299.5,-58.5 1299.5,-79.5 1358.5,-79.5 1358.5,-58.5 1299.5,-58.5"/>
<text text-anchor="middle" x="1329" y="-66.5" font-family="Helvetica,sans-Serif" font-size="10.00">functional</text>
</g>
<!-- Node18&#45;&gt;Node32 -->
<g id="edge104" class="edge"><title>Node18&#45;&gt;Node32</title>
<path fill="none" stroke="midnightblue" d="M1155.59,-263.448C1216.47,-251.571 1313.99,-222.145 1358,-152 1370.64,-131.851 1357.15,-105.476 1344.65,-87.9221"/>
<polygon fill="midnightblue" stroke="midnightblue" points="1347.19,-85.4735 1338.35,-79.6261 1341.61,-89.7068 1347.19,-85.4735"/>
</g>
<!-- Node18&#45;&gt;Node33 -->
<g id="edge100" class="edge"><title>Node18&#45;&gt;Node33</title>
<path fill="none" stroke="midnightblue" d="M1155.78,-266.304C1226.89,-259.495 1357.22,-245.317 1467,-224 1480.77,-221.327 1495.86,-217.495 1508.41,-214.053"/>
<polygon fill="midnightblue" stroke="midnightblue" points="1509.59,-217.358 1518.27,-211.288 1507.7,-210.618 1509.59,-217.358"/>
</g>
<!-- Node19&#45;&gt;Node6 -->
<g id="edge68" class="edge"><title>Node19&#45;&gt;Node6</title>
<path fill="none" stroke="midnightblue" d="M793.236,-195.457C784.678,-192.941 775.525,-190.315 767,-188 702.919,-170.6 680.245,-183.885 622,-152 601.593,-140.829 601.362,-131.485 584,-116 572.639,-105.867 559.631,-94.9127 549.014,-86.1304"/>
<polygon fill="midnightblue" stroke="midnightblue" points="551.035,-83.2605 541.088,-79.6101 546.587,-88.6662 551.035,-83.2605"/>
</g>
<!-- Node19&#45;&gt;Node9 -->
<g id="edge72" class="edge"><title>Node19&#45;&gt;Node9</title>
<path fill="none" stroke="midnightblue" d="M860.162,-195.486C884.72,-186.451 918.555,-171.75 944,-152 967.289,-133.923 987.772,-106.476 1000.02,-88.1523"/>
<polygon fill="midnightblue" stroke="midnightblue" points="1002.97,-90.0267 1005.49,-79.7356 997.105,-86.2097 1002.97,-90.0267"/>
</g>
<!-- Node19&#45;&gt;Node12 -->
<g id="edge70" class="edge"><title>Node19&#45;&gt;Node12</title>
<path fill="none" stroke="midnightblue" d="M858.073,-195.428C888.243,-184.744 935.991,-167.628 977,-152 980.066,-150.831 983.243,-149.601 986.425,-148.355"/>
<polygon fill="midnightblue" stroke="midnightblue" points="987.87,-151.547 995.882,-144.615 985.296,-145.038 987.87,-151.547"/>
</g>
<!-- Node19&#45;&gt;Node14 -->
<g id="edge64" class="edge"><title>Node19&#45;&gt;Node14</title>
<path fill="none" stroke="midnightblue" d="M780.383,-200.941C698.719,-192.107 526.754,-172.815 382,-152 356.776,-148.373 328.353,-143.608 306.998,-139.892"/>
<polygon fill="midnightblue" stroke="midnightblue" points="307.582,-136.441 297.128,-138.162 306.373,-143.336 307.582,-136.441"/>
</g>
<!-- Node19&#45;&gt;Node15 -->
<g id="edge66" class="edge"><title>Node19&#45;&gt;Node15</title>
<path fill="none" stroke="midnightblue" d="M794.265,-195.474C785.434,-192.875 775.895,-190.207 767,-188 688.663,-168.56 666.156,-175.698 589,-152 585.465,-150.914 581.823,-149.643 578.224,-148.287"/>
<polygon fill="midnightblue" stroke="midnightblue" points="579.486,-145.022 568.901,-144.567 576.892,-151.524 579.486,-145.022"/>
</g>
<!-- Node20 -->
<g id="node42" class="node"><title>Node20</title>
<a xlink:href="bitflag_8h.html" target="_top" xlink:title="base/bitflag.h">
<polygon fill="white" stroke="black" points="736.5,-123.5 736.5,-144.5 811.5,-144.5 811.5,-123.5 736.5,-123.5"/>
<text text-anchor="middle" x="774" y="-131.5" font-family="Helvetica,sans-Serif" font-size="10.00">base/bitflag.h</text>
</a>
</g>
<!-- Node19&#45;&gt;Node20 -->
<g id="edge42" class="edge"><title>Node19&#45;&gt;Node20</title>
<path fill="none" stroke="midnightblue" d="M820.032,-195.376C811.657,-184.209 798.311,-166.415 788.141,-152.855"/>
<polygon fill="midnightblue" stroke="midnightblue" points="790.801,-150.567 782.001,-144.667 785.201,-154.767 790.801,-150.567"/>
</g>
<!-- Node22 -->
<g id="node46" class="node"><title>Node22</title>
<a xlink:href="vec3_8h.html" target="_top" xlink:title="base/vec/vec3.h">
<polygon fill="white" stroke="black" points="630.5,-123.5 630.5,-144.5 719.5,-144.5 719.5,-123.5 630.5,-123.5"/>
<text text-anchor="middle" x="675" y="-131.5" font-family="Helvetica,sans-Serif" font-size="10.00">base/vec/vec3.h</text>
</a>
</g>
<!-- Node19&#45;&gt;Node22 -->
<g id="edge46" class="edge"><title>Node19&#45;&gt;Node22</title>
<path fill="none" stroke="midnightblue" d="M805.424,-195.376C779.435,-183.146 736.551,-162.965 707.098,-149.105"/>
<polygon fill="midnightblue" stroke="midnightblue" points="708.207,-145.759 697.668,-144.667 705.226,-152.092 708.207,-145.759"/>
</g>
<!-- Node26 -->
<g id="node55" class="node"><title>Node26</title>
<a xlink:href="base_2std__ext_2math_8h.html" target="_top" xlink:title="base/std_ext/math.h">
<polygon fill="white" stroke="black" points="829,-123.5 829,-144.5 935,-144.5 935,-123.5 829,-123.5"/>
<text text-anchor="middle" x="882" y="-131.5" font-family="Helvetica,sans-Serif" font-size="10.00">base/std_ext/math.h</text>
</a>
</g>
<!-- Node19&#45;&gt;Node26 -->
<g id="edge56" class="edge"><title>Node19&#45;&gt;Node26</title>
<path fill="none" stroke="midnightblue" d="M835.968,-195.376C844.343,-184.209 857.689,-166.415 867.859,-152.855"/>
<polygon fill="midnightblue" stroke="midnightblue" points="870.799,-154.767 873.999,-144.667 865.199,-150.567 870.799,-154.767"/>
</g>
<!-- Node21 -->
<g id="node44" class="node"><title>Node21</title>
<polygon fill="white" stroke="#bfbfbf" points="756.5,-58.5 756.5,-79.5 797.5,-79.5 797.5,-58.5 756.5,-58.5"/>
<text text-anchor="middle" x="777" y="-66.5" font-family="Helvetica,sans-Serif" font-size="10.00">bitset</text>
</g>
<!-- Node20&#45;&gt;Node21 -->
<g id="edge44" class="edge"><title>Node20&#45;&gt;Node21</title>
<path fill="none" stroke="midnightblue" d="M774.495,-123.267C774.915,-114.18 775.528,-100.892 776.043,-89.7395"/>
<polygon fill="midnightblue" stroke="midnightblue" points="779.549,-89.6845 776.514,-79.5337 772.556,-89.3617 779.549,-89.6845"/>
</g>
<!-- Node23 -->
<g id="node48" class="node"><title>Node23</title>
<a xlink:href="vec2_8h.html" target="_top" xlink:title="vec2.h">
<polygon fill="white" stroke="black" points="585,-58.5 585,-79.5 631,-79.5 631,-58.5 585,-58.5"/>
<text text-anchor="middle" x="608" y="-66.5" font-family="Helvetica,sans-Serif" font-size="10.00">vec2.h</text>
</a>
</g>
<!-- Node22&#45;&gt;Node23 -->
<g id="edge48" class="edge"><title>Node22&#45;&gt;Node23</title>
<path fill="none" stroke="midnightblue" d="M663.936,-123.267C653.692,-113.328 638.267,-98.3635 626.208,-86.6645"/>
<polygon fill="midnightblue" stroke="midnightblue" points="628.472,-83.9848 618.858,-79.5337 623.598,-89.009 628.472,-83.9848"/>
</g>
<!-- Node24 -->
<g id="node50" class="node"><title>Node24</title>
<polygon fill="white" stroke="#bfbfbf" points="707,-0.5 707,-21.5 751,-21.5 751,-0.5 707,-0.5"/>
<text text-anchor="middle" x="729" y="-8.5" font-family="Helvetica,sans-Serif" font-size="10.00">cmath</text>
</g>
<!-- Node22&#45;&gt;Node24 -->
<g id="edge54" class="edge"><title>Node22&#45;&gt;Node24</title>
<path fill="none" stroke="midnightblue" d="M683.283,-123.398C691.134,-112.899 702.772,-96.104 710,-80 716.985,-64.4366 721.943,-45.7202 725.039,-31.7094"/>
<polygon fill="midnightblue" stroke="midnightblue" points="728.525,-32.1339 727.126,-21.632 721.671,-30.7145 728.525,-32.1339"/>
</g>
<!-- Node25 -->
<g id="node52" class="node"><title>Node25</title>
<polygon fill="white" stroke="#bfbfbf" points="649,-58.5 649,-79.5 701,-79.5 701,-58.5 649,-58.5"/>
<text text-anchor="middle" x="675" y="-66.5" font-family="Helvetica,sans-Serif" font-size="10.00">ostream</text>
</g>
<!-- Node22&#45;&gt;Node25 -->
<g id="edge52" class="edge"><title>Node22&#45;&gt;Node25</title>
<path fill="none" stroke="midnightblue" d="M675,-123.267C675,-114.18 675,-100.892 675,-89.7395"/>
<polygon fill="midnightblue" stroke="midnightblue" points="678.5,-89.5337 675,-79.5337 671.5,-89.5337 678.5,-89.5337"/>
</g>
<!-- Node23&#45;&gt;Node24 -->
<g id="edge50" class="edge"><title>Node23&#45;&gt;Node24</title>
<path fill="none" stroke="midnightblue" d="M629.912,-58.4966C648.811,-49.4378 676.331,-36.2462 697.576,-26.0628"/>
<polygon fill="midnightblue" stroke="midnightblue" points="699.337,-29.0999 706.842,-21.6212 696.311,-22.7876 699.337,-29.0999"/>
</g>
<!-- Node26&#45;&gt;Node9 -->
<g id="edge62" class="edge"><title>Node26&#45;&gt;Node9</title>
<path fill="none" stroke="midnightblue" d="M903.176,-123.412C924.517,-112.741 957.657,-96.1717 981.76,-84.1198"/>
<polygon fill="midnightblue" stroke="midnightblue" points="983.454,-87.1862 990.833,-79.5835 980.323,-80.9252 983.454,-87.1862"/>
</g>
<!-- Node26&#45;&gt;Node24 -->
<g id="edge58" class="edge"><title>Node26&#45;&gt;Node24</title>
<path fill="none" stroke="midnightblue" d="M872.861,-123.374C859.245,-107.906 832.395,-78.7707 806,-58 791.017,-46.2098 772.872,-35.0048 757.96,-26.4946"/>
<polygon fill="midnightblue" stroke="midnightblue" points="759.586,-23.3936 749.151,-21.5628 756.167,-29.5016 759.586,-23.3936"/>
</g>
<!-- Node27 -->
<g id="node58" class="node"><title>Node27</title>
<polygon fill="white" stroke="#bfbfbf" points="858,-58.5 858,-79.5 898,-79.5 898,-58.5 858,-58.5"/>
<text text-anchor="middle" x="878" y="-66.5" font-family="Helvetica,sans-Serif" font-size="10.00">limits</text>
</g>
<!-- Node26&#45;&gt;Node27 -->
<g id="edge60" class="edge"><title>Node26&#45;&gt;Node27</title>
<path fill="none" stroke="midnightblue" d="M881.339,-123.267C880.78,-114.18 879.963,-100.892 879.276,-89.7395"/>
<polygon fill="midnightblue" stroke="midnightblue" points="882.756,-89.2998 878.648,-79.5337 875.769,-89.7298 882.756,-89.2998"/>
</g>
<!-- Node28&#45;&gt;Node9 -->
<g id="edge82" class="edge"><title>Node28&#45;&gt;Node9</title>
<path fill="none" stroke="midnightblue" d="M1097.4,-188.697C1090.77,-169.758 1078.5,-139.026 1062,-116 1054.16,-105.066 1043.51,-94.6328 1034.05,-86.3866"/>
<polygon fill="midnightblue" stroke="midnightblue" points="1036.06,-83.4987 1026.15,-79.7451 1031.55,-88.8579 1036.06,-83.4987"/>
</g>
<!-- Node28&#45;&gt;Node12 -->
<g id="edge86" class="edge"><title>Node28&#45;&gt;Node12</title>
<path fill="none" stroke="midnightblue" d="M1083.8,-188.937C1071.22,-177.748 1054.79,-163.147 1042.04,-151.811"/>
<polygon fill="midnightblue" stroke="midnightblue" points="1044.06,-148.929 1034.26,-144.901 1039.41,-154.161 1044.06,-148.929"/>
</g>
<!-- Node29 -->
<g id="node68" class="node"><title>Node29</title>
<a xlink:href="memory_8h.html" target="_top" xlink:title="base/std_ext/memory.h">
<polygon fill="white" stroke="black" points="1108.5,-123.5 1108.5,-144.5 1227.5,-144.5 1227.5,-123.5 1108.5,-123.5"/>
<text text-anchor="middle" x="1168" y="-131.5" font-family="Helvetica,sans-Serif" font-size="10.00">base/std_ext/memory.h</text>
</a>
</g>
<!-- Node28&#45;&gt;Node29 -->
<g id="edge76" class="edge"><title>Node28&#45;&gt;Node29</title>
<path fill="none" stroke="midnightblue" d="M1118.4,-188.937C1128.31,-177.961 1141.19,-163.702 1151.33,-152.462"/>
<polygon fill="midnightblue" stroke="midnightblue" points="1154.06,-154.669 1158.16,-144.901 1148.86,-149.978 1154.06,-154.669"/>
</g>
<!-- Node28&#45;&gt;Node30 -->
<g id="edge84" class="edge"><title>Node28&#45;&gt;Node30</title>
<path fill="none" stroke="midnightblue" d="M1158.12,-198.357C1222.51,-188.736 1324.5,-171.136 1358,-152 1385.41,-136.342 1408.49,-107.389 1421.79,-88.1592"/>
<polygon fill="midnightblue" stroke="midnightblue" points="1424.87,-89.8597 1427.51,-79.6008 1419.05,-85.9701 1424.87,-89.8597"/>
</g>
<!-- Node29&#45;&gt;Node16 -->
<g id="edge80" class="edge"><title>Node29&#45;&gt;Node16</title>
<path fill="none" stroke="midnightblue" d="M1113.15,-123.472C1096.75,-120.653 1078.69,-117.872 1062,-116 773.589,-83.6549 698.994,-106.642 410,-80 389.702,-78.1287 366.787,-75.1102 349.869,-72.7082"/>
<polygon fill="midnightblue" stroke="midnightblue" points="350.103,-69.2057 339.705,-71.237 349.1,-76.1335 350.103,-69.2057"/>
</g>
<!-- Node29&#45;&gt;Node30 -->
<g id="edge78" class="edge"><title>Node29&#45;&gt;Node30</title>
<path fill="none" stroke="midnightblue" d="M1207.15,-123.453C1216.58,-120.962 1226.64,-118.349 1236,-116 1292.43,-101.837 1358.18,-86.4484 1397.92,-77.2705"/>
<polygon fill="midnightblue" stroke="midnightblue" points="1398.73,-80.6769 1407.68,-75.0198 1397.15,-73.8558 1398.73,-80.6769"/>
</g>
<!-- Node31&#45;&gt;Node8 -->
<g id="edge96" class="edge"><title>Node31&#45;&gt;Node8</title>
<path fill="none" stroke="midnightblue" d="M1244.22,-117.911C1241.45,-117.228 1238.7,-116.585 1236,-116 1127.31,-92.4252 1094.67,-103.69 982.21,-80.0065"/>
<polygon fill="midnightblue" stroke="midnightblue" points="982.682,-76.528 972.169,-77.8449 981.209,-83.3712 982.682,-76.528"/>
</g>
<!-- Node31&#45;&gt;Node9 -->
<g id="edge90" class="edge"><title>Node31&#45;&gt;Node9</title>
<path fill="none" stroke="midnightblue" d="M1244.17,-118.129C1241.41,-117.389 1238.68,-116.675 1236,-116 1168.19,-98.9104 1087.75,-83.1054 1044.09,-74.8954"/>
<polygon fill="midnightblue" stroke="midnightblue" points="1044.55,-71.4193 1034.07,-73.023 1043.26,-78.3002 1044.55,-71.4193"/>
</g>
<!-- Node31&#45;&gt;Node30 -->
<g id="edge92" class="edge"><title>Node31&#45;&gt;Node30</title>
<path fill="none" stroke="midnightblue" d="M1333,-116.922C1354.49,-106.726 1381.53,-93.8936 1402.23,-84.0744"/>
<polygon fill="midnightblue" stroke="midnightblue" points="1404,-87.1071 1411.54,-79.6584 1401,-80.7828 1404,-87.1071"/>
</g>
<!-- Node31&#45;&gt;Node32 -->
<g id="edge94" class="edge"><title>Node31&#45;&gt;Node32</title>
<path fill="none" stroke="midnightblue" d="M1305.41,-116.922C1309.65,-108.304 1314.82,-97.8018 1319.24,-88.8282"/>
<polygon fill="midnightblue" stroke="midnightblue" points="1322.38,-90.3697 1323.66,-79.8521 1316.1,-87.2779 1322.38,-90.3697"/>
</g>
<!-- Node36 -->
<g id="node96" class="node"><title>Node36</title>
<polygon fill="white" stroke="#bfbfbf" points="1608.5,-260.5 1608.5,-281.5 1697.5,-281.5 1697.5,-260.5 1608.5,-260.5"/>
<text text-anchor="middle" x="1653" y="-268.5" font-family="Helvetica,sans-Serif" font-size="10.00">easylogging++.h</text>
</g>
<!-- Node35&#45;&gt;Node36 -->
<g id="edge118" class="edge"><title>Node35&#45;&gt;Node36</title>
<path fill="none" stroke="midnightblue" d="M1650.55,-318.362C1650.94,-310.922 1651.46,-300.743 1651.93,-291.728"/>
<polygon fill="midnightblue" stroke="midnightblue" points="1655.43,-291.738 1652.45,-281.571 1648.44,-291.376 1655.43,-291.738"/>
</g>
</g>
</svg>
