<?xml version="1.0" encoding="UTF-8" standalone="no"?>
<!DOCTYPE svg PUBLIC "-//W3C//DTD SVG 1.1//EN"
 "http://www.w3.org/Graphics/SVG/1.1/DTD/svg11.dtd">
<!-- Generated by graphviz version 2.26.3 (20100126.1600)
 -->
<!-- Title: src/base/WrapTTree.h Pages: 1 -->
<svg width="322pt" height="88pt"
 viewBox="0.00 0.00 322.00 88.00" xmlns="http://www.w3.org/2000/svg" xmlns:xlink="http://www.w3.org/1999/xlink">
<g id="graph1" class="graph" transform="scale(1 1) rotate(0) translate(4 84)">
<title>src/base/WrapTTree.h</title>
<polygon fill="white" stroke="white" points="-4,5 -4,-84 319,-84 319,5 -4,5"/>
<!-- Node0 -->
<g id="node1" class="node"><title>Node0</title>
<polygon fill="#bfbfbf" stroke="black" points="93,-58.5 93,-79.5 207,-79.5 207,-58.5 93,-58.5"/>
<text text-anchor="middle" x="150" y="-66.5" font-family="Helvetica,sans-Serif" font-size="10.00">src/base/WrapTTree.h</text>
</g>
<!-- Node1 -->
<g id="node3" class="node"><title>Node1</title>
<polygon fill="white" stroke="#bfbfbf" points="0,-0.5 0,-21.5 50,-21.5 50,-0.5 0,-0.5"/>
<text text-anchor="middle" x="25" y="-8.5" font-family="Helvetica,sans-Serif" font-size="10.00">TTree.h</text>
</g>
<!-- Node0&#45;&gt;Node1 -->
<g id="edge2" class="edge"><title>Node0&#45;&gt;Node1</title>
<path fill="none" stroke="midnightblue" d="M127.363,-58.4966C107.752,-49.397 79.1536,-36.1273 57.1667,-25.9253"/>
<polygon fill="midnightblue" stroke="midnightblue" points="58.4348,-22.6554 47.8906,-21.6212 55.4885,-29.0051 58.4348,-22.6554"/>
</g>
<!-- Node2 -->
<g id="node5" class="node"><title>Node2</title>
<polygon fill="white" stroke="#bfbfbf" points="68,-0.5 68,-21.5 112,-21.5 112,-0.5 68,-0.5"/>
<text text-anchor="middle" x="90" y="-8.5" font-family="Helvetica,sans-Serif" font-size="10.00">vector</text>
</g>
<!-- Node0&#45;&gt;Node2 -->
<g id="edge4" class="edge"><title>Node0&#45;&gt;Node2</title>
<path fill="none" stroke="midnightblue" d="M138.995,-58.3619C130.453,-50.1043 118.42,-38.4725 108.417,-28.8029"/>
<polygon fill="midnightblue" stroke="midnightblue" points="110.558,-26.0044 100.935,-21.5707 105.692,-31.0374 110.558,-26.0044"/>
</g>
<!-- Node3 -->
<g id="node7" class="node"><title>Node3</title>
<polygon fill="white" stroke="#bfbfbf" points="129.5,-0.5 129.5,-21.5 170.5,-21.5 170.5,-0.5 129.5,-0.5"/>
<text text-anchor="middle" x="150" y="-8.5" font-family="Helvetica,sans-Serif" font-size="10.00">string</text>
</g>
<!-- Node0&#45;&gt;Node3 -->
<g id="edge6" class="edge"><title>Node0&#45;&gt;Node3</title>
<path fill="none" stroke="midnightblue" d="M150,-58.3619C150,-50.9219 150,-40.7427 150,-31.7276"/>
<polygon fill="midnightblue" stroke="midnightblue" points="153.5,-31.5706 150,-21.5707 146.5,-31.5707 153.5,-31.5706"/>
</g>
<!-- Node4 -->
<g id="node9" class="node"><title>Node4</title>
<polygon fill="white" stroke="#bfbfbf" points="188,-0.5 188,-21.5 244,-21.5 244,-0.5 188,-0.5"/>
<text text-anchor="middle" x="216" y="-8.5" font-family="Helvetica,sans-Serif" font-size="10.00">algorithm</text>
</g>
<!-- Node0&#45;&gt;Node4 -->
<g id="edge8" class="edge"><title>Node0&#45;&gt;Node4</title>
<path fill="none" stroke="midnightblue" d="M162.105,-58.3619C171.688,-49.9408 185.264,-38.0105 196.393,-28.2308"/>
<polygon fill="midnightblue" stroke="midnightblue" points="198.77,-30.8009 203.971,-21.5707 194.149,-25.5427 198.77,-30.8009"/>
</g>
<!-- Node5 -->
<g id="node11" class="node"><title>Node5</title>
<polygon fill="white" stroke="#bfbfbf" points="262,-0.5 262,-21.5 314,-21.5 314,-0.5 262,-0.5"/>
<text text-anchor="middle" x="288" y="-8.5" font-family="Helvetica,sans-Serif" font-size="10.00">memory</text>
</g>
<!-- Node0&#45;&gt;Node5 -->
<g id="edge10" class="edge"><title>Node0&#45;&gt;Node5</title>
<path fill="none" stroke="midnightblue" d="M174.991,-58.4966C196.933,-49.2746 229.066,-35.7695 253.464,-25.5153"/>
<polygon fill="midnightblue" stroke="midnightblue" points="254.866,-28.7225 262.729,-21.6212 252.154,-22.2693 254.866,-28.7225"/>
</g>
</g>
</svg>
