<?xml version="1.0" encoding="UTF-8" standalone="no"?>
<!DOCTYPE svg PUBLIC "-//W3C//DTD SVG 1.1//EN"
 "http://www.w3.org/Graphics/SVG/1.1/DTD/svg11.dtd">
<!-- Generated by graphviz version 2.26.3 (20100126.1600)
 -->
<!-- Title: src/analysis/physics/calibration/TAPSVeto_Energy.h Pages: 1 -->
<svg width="120pt" height="140pt"
 viewBox="0.00 0.00 120.00 140.00" xmlns="http://www.w3.org/2000/svg" xmlns:xlink="http://www.w3.org/1999/xlink">
<g id="graph1" class="graph" transform="scale(1 1) rotate(0) translate(4 136)">
<title>src/analysis/physics/calibration/TAPSVeto_Energy.h</title>
<polygon fill="white" stroke="white" points="-4,5 -4,-136 117,-136 117,5 -4,5"/>
<!-- Node67 -->
<g id="node1" class="node"><title>Node67</title>
<polygon fill="#bfbfbf" stroke="black" points="-0.5,-84.5 -0.5,-131.5 112.5,-131.5 112.5,-84.5 -0.5,-84.5"/>
<text text-anchor="start" x="7.5" y="-118.5" font-family="Helvetica,sans-Serif" font-size="10.00">src/analysis/physics</text>
<text text-anchor="start" x="7.5" y="-105.5" font-family="Helvetica,sans-Serif" font-size="10.00">/calibration/TAPSVeto</text>
<text text-anchor="middle" x="56" y="-92.5" font-family="Helvetica,sans-Serif" font-size="10.00">_Energy.h</text>
</g>
<!-- Node68 -->
<g id="node3" class="node"><title>Node68</title>
<a xlink:href="analysis_2physics_2calibration_2_t_a_p_s_veto___energy_8cc.html" target="_top" xlink:title="src/analysis/physics\l/calibration/TAPSVeto\l_Energy.cc">
<polygon fill="white" stroke="black" points="-0.5,-0.5 -0.5,-47.5 112.5,-47.5 112.5,-0.5 -0.5,-0.5"/>
<text text-anchor="start" x="7.5" y="-34.5" font-family="Helvetica,sans-Serif" font-size="10.00">src/analysis/physics</text>
<text text-anchor="start" x="7.5" y="-21.5" font-family="Helvetica,sans-Serif" font-size="10.00">/calibration/TAPSVeto</text>
<text text-anchor="middle" x="56" y="-8.5" font-family="Helvetica,sans-Serif" font-size="10.00">_Energy.cc</text>
</a>
</g>
<!-- Node67&#45;&gt;Node68 -->
<g id="edge2" class="edge"><title>Node67&#45;&gt;Node68</title>
<path fill="none" stroke="midnightblue" d="M56,-74.0664C56,-65.1933 56,-55.821 56,-47.6152"/>
<polygon fill="midnightblue" stroke="midnightblue" points="52.5001,-74.1536 56,-84.1537 59.5001,-74.1537 52.5001,-74.1536"/>
</g>
</g>
</svg>
