<?xml version="1.0" encoding="UTF-8" standalone="no"?>
<!DOCTYPE svg PUBLIC "-//W3C//DTD SVG 1.1//EN"
 "http://www.w3.org/Graphics/SVG/1.1/DTD/svg11.dtd">
<!-- Generated by graphviz version 2.26.3 (20100126.1600)
 -->
<!-- Title: src/calibration/modules/Time.h Pages: 1 -->
<svg width="964pt" height="188pt"
 viewBox="0.00 0.00 964.00 188.00" xmlns="http://www.w3.org/2000/svg" xmlns:xlink="http://www.w3.org/1999/xlink">
<g id="graph1" class="graph" transform="scale(1 1) rotate(0) translate(4 184)">
<title>src/calibration/modules/Time.h</title>
<polygon fill="white" stroke="white" points="-4,5 -4,-184 961,-184 961,5 -4,5"/>
<!-- Node53 -->
<g id="node1" class="node"><title>Node53</title>
<polygon fill="#bfbfbf" stroke="black" points="481.5,-145 481.5,-179 598.5,-179 598.5,-145 481.5,-145"/>
<text text-anchor="start" x="489.5" y="-166" font-family="Helvetica,sans-Serif" font-size="10.00">src/calibration/modules</text>
<text text-anchor="middle" x="540" y="-153" font-family="Helvetica,sans-Serif" font-size="10.00">/Time.h</text>
</g>
<!-- Node54 -->
<g id="node3" class="node"><title>Node54</title>
<a xlink:href="_t_a_p_s___time_8h.html" target="_top" xlink:title="src/calibration/modules\l/TAPS_Time.h">
<polygon fill="white" stroke="black" points="309.5,-73 309.5,-107 426.5,-107 426.5,-73 309.5,-73"/>
<text text-anchor="start" x="317.5" y="-94" font-family="Helvetica,sans-Serif" font-size="10.00">src/calibration/modules</text>
<text text-anchor="middle" x="368" y="-81" font-family="Helvetica,sans-Serif" font-size="10.00">/TAPS_Time.h</text>
</a>
</g>
<!-- Node53&#45;&gt;Node54 -->
<g id="edge2" class="edge"><title>Node53&#45;&gt;Node54</title>
<path fill="none" stroke="midnightblue" d="M489.991,-141.066C464.183,-130.263 433.099,-117.251 408.767,-107.065"/>
<polygon fill="midnightblue" stroke="midnightblue" points="488.662,-144.304 499.238,-144.937 491.365,-137.847 488.662,-144.304"/>
</g>
<!-- Node56 -->
<g id="node7" class="node"><title>Node56</title>
<a xlink:href="_setup__2007___base_8cc.html" target="_top" xlink:title="src/expconfig/setups\l/Setup_2007_Base.cc">
<polygon fill="white" stroke="black" points="133.5,-1 133.5,-35 246.5,-35 246.5,-1 133.5,-1"/>
<text text-anchor="start" x="141.5" y="-22" font-family="Helvetica,sans-Serif" font-size="10.00">src/expconfig/setups</text>
<text text-anchor="middle" x="190" y="-9" font-family="Helvetica,sans-Serif" font-size="10.00">/Setup_2007_Base.cc</text>
</a>
</g>
<!-- Node53&#45;&gt;Node56 -->
<g id="edge32" class="edge"><title>Node53&#45;&gt;Node56</title>
<path fill="none" stroke="midnightblue" d="M471.096,-156.935C418.743,-150.834 346.233,-137.423 289,-108 253.675,-89.8393 221.37,-55.7837 203.812,-35.1709"/>
<polygon fill="midnightblue" stroke="midnightblue" points="470.963,-160.442 481.287,-158.061 471.732,-153.484 470.963,-160.442"/>
</g>
<!-- Node57 -->
<g id="node9" class="node"><title>Node57</title>
<a xlink:href="_setup__2014___e_p_t_8cc.html" target="_top" xlink:title="src/expconfig/setups\l/Setup_2014_EPT.cc">
<polygon fill="white" stroke="black" points="264,-1 264,-35 374,-35 374,-1 264,-1"/>
<text text-anchor="start" x="272" y="-22" font-family="Helvetica,sans-Serif" font-size="10.00">src/expconfig/setups</text>
<text text-anchor="middle" x="319" y="-9" font-family="Helvetica,sans-Serif" font-size="10.00">/Setup_2014_EPT.cc</text>
</a>
</g>
<!-- Node53&#45;&gt;Node57 -->
<g id="edge34" class="edge"><title>Node53&#45;&gt;Node57</title>
<path fill="none" stroke="midnightblue" d="M471.197,-155.886C408.315,-148.703 322.007,-134.283 301,-108 284.286,-87.0888 297.261,-54.8638 308.157,-35.18"/>
<polygon fill="midnightblue" stroke="midnightblue" points="471.143,-159.401 481.466,-157.019 471.911,-152.443 471.143,-159.401"/>
</g>
<!-- Node58 -->
<g id="node11" class="node"><title>Node58</title>
<a xlink:href="_setup__2015__01___pion_8cc.html" target="_top" xlink:title="src/expconfig/setups\l/Setup_2015_01_Pion.cc">
<polygon fill="white" stroke="black" points="391.5,-1 391.5,-35 516.5,-35 516.5,-1 391.5,-1"/>
<text text-anchor="start" x="399.5" y="-22" font-family="Helvetica,sans-Serif" font-size="10.00">src/expconfig/setups</text>
<text text-anchor="middle" x="454" y="-9" font-family="Helvetica,sans-Serif" font-size="10.00">/Setup_2015_01_Pion.cc</text>
</a>
</g>
<!-- Node53&#45;&gt;Node58 -->
<g id="edge36" class="edge"><title>Node53&#45;&gt;Node58</title>
<path fill="none" stroke="midnightblue" d="M502.299,-138.884C491.334,-130.438 480.346,-119.974 473,-108 459.139,-85.4036 455.265,-54.2695 454.254,-35.1712"/>
<polygon fill="midnightblue" stroke="midnightblue" points="500.474,-141.885 510.618,-144.942 504.594,-136.226 500.474,-141.885"/>
</g>
<!-- Node59 -->
<g id="node13" class="node"><title>Node59</title>
<a xlink:href="_setup__2017__03_8cc.html" target="_top" xlink:title="src/expconfig/setups\l/Setup_2017_03.cc">
<polygon fill="white" stroke="black" points="679.5,-1 679.5,-35 786.5,-35 786.5,-1 679.5,-1"/>
<text text-anchor="start" x="687.5" y="-22" font-family="Helvetica,sans-Serif" font-size="10.00">src/expconfig/setups</text>
<text text-anchor="middle" x="733" y="-9" font-family="Helvetica,sans-Serif" font-size="10.00">/Setup_2017_03.cc</text>
</a>
</g>
<!-- Node53&#45;&gt;Node59 -->
<g id="edge38" class="edge"><title>Node53&#45;&gt;Node59</title>
<path fill="none" stroke="midnightblue" d="M576.601,-139.402C591.269,-130.034 608.174,-118.838 623,-108 655.668,-84.118 691.624,-53.8988 713.249,-35.2631"/>
<polygon fill="midnightblue" stroke="midnightblue" points="574.371,-136.672 567.796,-144.979 578.117,-142.585 574.371,-136.672"/>
</g>
<!-- Node60 -->
<g id="node15" class="node"><title>Node60</title>
<a xlink:href="expconfig__helpers_8cc.html" target="_top" xlink:title="test/expconfig_helpers.cc">
<polygon fill="white" stroke="black" points="534,-7.5 534,-28.5 662,-28.5 662,-7.5 534,-7.5"/>
<text text-anchor="middle" x="598" y="-15.5" font-family="Helvetica,sans-Serif" font-size="10.00">test/expconfig_helpers.cc</text>
</a>
</g>
<!-- Node53&#45;&gt;Node60 -->
<g id="edge42" class="edge"><title>Node53&#45;&gt;Node60</title>
<path fill="none" stroke="midnightblue" d="M580.364,-138.861C591.006,-130.597 601.143,-120.243 607,-108 619.605,-81.6523 609.142,-46.0807 602.478,-28.5975"/>
<polygon fill="midnightblue" stroke="midnightblue" points="578.244,-136.074 572.19,-144.769 582.345,-141.747 578.244,-136.074"/>
</g>
<!-- Node61 -->
<g id="node17" class="node"><title>Node61</title>
<a xlink:href="_t_a_p_s_veto___time_8h.html" target="_top" xlink:title="src/calibration/modules\l/TAPSVeto_Time.h">
<polygon fill="white" stroke="black" points="481.5,-73 481.5,-107 598.5,-107 598.5,-73 481.5,-73"/>
<text text-anchor="start" x="489.5" y="-94" font-family="Helvetica,sans-Serif" font-size="10.00">src/calibration/modules</text>
<text text-anchor="middle" x="540" y="-81" font-family="Helvetica,sans-Serif" font-size="10.00">/TAPSVeto_Time.h</text>
</a>
</g>
<!-- Node53&#45;&gt;Node61 -->
<g id="edge16" class="edge"><title>Node53&#45;&gt;Node61</title>
<path fill="none" stroke="midnightblue" d="M540,-134.719C540,-125.572 540,-115.625 540,-107.441"/>
<polygon fill="midnightblue" stroke="midnightblue" points="536.5,-134.937 540,-144.937 543.5,-134.937 536.5,-134.937"/>
</g>
<!-- Node63 -->
<g id="node26" class="node"><title>Node63</title>
<a xlink:href="calibration_2modules_2_time_8cc.html" target="_top" xlink:title="src/calibration/modules\l/Time.cc">
<polygon fill="white" stroke="black" points="691.5,-73 691.5,-107 808.5,-107 808.5,-73 691.5,-73"/>
<text text-anchor="start" x="699.5" y="-94" font-family="Helvetica,sans-Serif" font-size="10.00">src/calibration/modules</text>
<text text-anchor="middle" x="750" y="-81" font-family="Helvetica,sans-Serif" font-size="10.00">/Time.cc</text>
</a>
</g>
<!-- Node53&#45;&gt;Node63 -->
<g id="edge30" class="edge"><title>Node53&#45;&gt;Node63</title>
<path fill="none" stroke="midnightblue" d="M599.405,-141.633C631.233,-130.72 669.998,-117.429 700.227,-107.065"/>
<polygon fill="midnightblue" stroke="midnightblue" points="598.091,-138.383 589.767,-144.937 600.362,-145.005 598.091,-138.383"/>
</g>
<!-- Node64 -->
<g id="node32" class="node"><title>Node64</title>
<a xlink:href="_setup___c_b_source_calib_8cc.html" target="_top" xlink:title="src/expconfig/setups\l/Setup_CBSourceCalib.cc">
<polygon fill="white" stroke="black" points="825.5,-73 825.5,-107 956.5,-107 956.5,-73 825.5,-73"/>
<text text-anchor="start" x="833.5" y="-94" font-family="Helvetica,sans-Serif" font-size="10.00">src/expconfig/setups</text>
<text text-anchor="middle" x="891" y="-81" font-family="Helvetica,sans-Serif" font-size="10.00">/Setup_CBSourceCalib.cc</text>
</a>
</g>
<!-- Node53&#45;&gt;Node64 -->
<g id="edge40" class="edge"><title>Node53&#45;&gt;Node64</title>
<path fill="none" stroke="midnightblue" d="M608.36,-149.581C664.533,-139.158 746.114,-123.522 817,-108 819.712,-107.406 822.478,-106.788 825.269,-106.155"/>
<polygon fill="midnightblue" stroke="midnightblue" points="607.72,-146.14 598.524,-151.401 608.994,-153.023 607.72,-146.14"/>
</g>
<!-- Node55 -->
<g id="node5" class="node"><title>Node55</title>
<a xlink:href="_t_a_p_s___time_8cc.html" target="_top" xlink:title="src/calibration/modules\l/TAPS_Time.cc">
<polygon fill="white" stroke="black" points="-0.5,-1 -0.5,-35 116.5,-35 116.5,-1 -0.5,-1"/>
<text text-anchor="start" x="7.5" y="-22" font-family="Helvetica,sans-Serif" font-size="10.00">src/calibration/modules</text>
<text text-anchor="middle" x="58" y="-9" font-family="Helvetica,sans-Serif" font-size="10.00">/TAPS_Time.cc</text>
</a>
</g>
<!-- Node54&#45;&gt;Node55 -->
<g id="edge4" class="edge"><title>Node54&#45;&gt;Node55</title>
<path fill="none" stroke="midnightblue" d="M299.589,-75.6345C250.796,-65.1847 183.704,-50.401 125,-36 122.31,-35.34 119.562,-34.6533 116.789,-33.95"/>
<polygon fill="midnightblue" stroke="midnightblue" points="298.893,-79.0648 309.404,-77.731 300.356,-72.2192 298.893,-79.0648"/>
</g>
<!-- Node54&#45;&gt;Node56 -->
<g id="edge6" class="edge"><title>Node54&#45;&gt;Node56</title>
<path fill="none" stroke="midnightblue" d="M316.247,-69.0661C289.538,-58.2626 257.369,-45.2505 232.189,-35.0651"/>
<polygon fill="midnightblue" stroke="midnightblue" points="315.234,-72.4318 325.816,-72.937 317.859,-65.9425 315.234,-72.4318"/>
</g>
<!-- Node54&#45;&gt;Node57 -->
<g id="edge8" class="edge"><title>Node54&#45;&gt;Node57</title>
<path fill="none" stroke="midnightblue" d="M350.645,-64.4981C344.097,-54.8768 336.803,-44.1593 330.869,-35.4407"/>
<polygon fill="midnightblue" stroke="midnightblue" points="347.868,-66.6391 356.388,-72.937 353.655,-62.7007 347.868,-66.6391"/>
</g>
<!-- Node54&#45;&gt;Node58 -->
<g id="edge10" class="edge"><title>Node54&#45;&gt;Node58</title>
<path fill="none" stroke="midnightblue" d="M396.078,-66.493C408.265,-56.2899 422.278,-44.5583 433.467,-35.19"/>
<polygon fill="midnightblue" stroke="midnightblue" points="393.802,-63.8339 388.381,-72.937 398.295,-69.2013 393.802,-63.8339"/>
</g>
<!-- Node54&#45;&gt;Node59 -->
<g id="edge12" class="edge"><title>Node54&#45;&gt;Node59</title>
<path fill="none" stroke="midnightblue" d="M436.784,-78.1392C519.068,-63.8883 648.585,-41.2355 671,-36 673.729,-35.3627 676.516,-34.6781 679.324,-33.9617"/>
<polygon fill="midnightblue" stroke="midnightblue" points="436.002,-74.7224 426.746,-79.8767 437.196,-81.6199 436.002,-74.7224"/>
</g>
<!-- Node54&#45;&gt;Node60 -->
<g id="edge14" class="edge"><title>Node54&#45;&gt;Node60</title>
<path fill="none" stroke="midnightblue" d="M432.283,-69.8767C475.095,-56.4747 529.633,-39.4018 564.196,-28.5821"/>
<polygon fill="midnightblue" stroke="midnightblue" points="431.004,-66.6093 422.507,-72.937 433.096,-73.2896 431.004,-66.6093"/>
</g>
<!-- Node61&#45;&gt;Node56 -->
<g id="edge20" class="edge"><title>Node61&#45;&gt;Node56</title>
<path fill="none" stroke="midnightblue" d="M471.226,-77.647C400.485,-64.8191 295.146,-45.345 255,-36 252.263,-35.3629 249.468,-34.687 246.649,-33.9853"/>
<polygon fill="midnightblue" stroke="midnightblue" points="470.936,-81.1515 481.4,-79.4894 472.184,-74.2635 470.936,-81.1515"/>
</g>
<!-- Node61&#45;&gt;Node57 -->
<g id="edge22" class="edge"><title>Node61&#45;&gt;Node57</title>
<path fill="none" stroke="midnightblue" d="M477.916,-69.7736C444.34,-58.8347 403.33,-45.4739 371.38,-35.0651"/>
<polygon fill="midnightblue" stroke="midnightblue" points="477.034,-73.1671 487.626,-72.937 479.202,-66.5114 477.034,-73.1671"/>
</g>
<!-- Node61&#45;&gt;Node58 -->
<g id="edge24" class="edge"><title>Node61&#45;&gt;Node58</title>
<path fill="none" stroke="midnightblue" d="M511.922,-66.493C499.735,-56.2899 485.722,-44.5583 474.533,-35.19"/>
<polygon fill="midnightblue" stroke="midnightblue" points="509.705,-69.2013 519.619,-72.937 514.198,-63.8339 509.705,-69.2013"/>
</g>
<!-- Node61&#45;&gt;Node59 -->
<g id="edge26" class="edge"><title>Node61&#45;&gt;Node59</title>
<path fill="none" stroke="midnightblue" d="M595.354,-69.3498C624.461,-58.4911 659.714,-45.3399 687.256,-35.0651"/>
<polygon fill="midnightblue" stroke="midnightblue" points="593.884,-66.1624 585.738,-72.937 596.331,-72.7209 593.884,-66.1624"/>
</g>
<!-- Node61&#45;&gt;Node60 -->
<g id="edge28" class="edge"><title>Node61&#45;&gt;Node60</title>
<path fill="none" stroke="midnightblue" d="M560.292,-64.8096C570.186,-52.5279 581.57,-38.3961 589.219,-28.901"/>
<polygon fill="midnightblue" stroke="midnightblue" points="557.293,-62.9538 553.745,-72.937 562.744,-67.3451 557.293,-62.9538"/>
</g>
<!-- Node62 -->
<g id="node19" class="node"><title>Node62</title>
<a xlink:href="_t_a_p_s_veto___time_8cc.html" target="_top" xlink:title="src/calibration/modules\l/TAPSVeto_Time.cc">
<polygon fill="white" stroke="black" points="803.5,-1 803.5,-35 920.5,-35 920.5,-1 803.5,-1"/>
<text text-anchor="start" x="811.5" y="-22" font-family="Helvetica,sans-Serif" font-size="10.00">src/calibration/modules</text>
<text text-anchor="middle" x="862" y="-9" font-family="Helvetica,sans-Serif" font-size="10.00">/TAPSVeto_Time.cc</text>
</a>
</g>
<!-- Node61&#45;&gt;Node62 -->
<g id="edge18" class="edge"><title>Node61&#45;&gt;Node62</title>
<path fill="none" stroke="midnightblue" d="M608.697,-76.4948C660.151,-66.127 732.193,-51.0754 795,-36 797.694,-35.3534 800.444,-34.6778 803.22,-33.9834"/>
<polygon fill="midnightblue" stroke="midnightblue" points="607.805,-73.104 598.69,-78.5045 609.183,-79.967 607.805,-73.104"/>
</g>
</g>
</svg>
