<?xml version="1.0" encoding="UTF-8" standalone="no"?>
<!DOCTYPE svg PUBLIC "-//W3C//DTD SVG 1.1//EN"
 "http://www.w3.org/Graphics/SVG/1.1/DTD/svg11.dtd">
<!-- Generated by graphviz version 2.26.3 (20100126.1600)
 -->
<!-- Title: ant::analysis::physics::EventFilter Pages: 1 -->
<svg width="520pt" height="128pt"
 viewBox="0.00 0.00 520.00 128.00" xmlns="http://www.w3.org/2000/svg" xmlns:xlink="http://www.w3.org/1999/xlink">
<g id="graph1" class="graph" transform="scale(1 1) rotate(0) translate(4 124)">
<title>ant::analysis::physics::EventFilter</title>
<polygon fill="white" stroke="white" points="-4,5 -4,-124 517,-124 517,5 -4,5"/>
<!-- Node2 -->
<g id="node1" class="node"><title>Node2</title>
<polygon fill="#bfbfbf" stroke="black" points="400,-40 400,-74 512,-74 512,-40 400,-40"/>
<text text-anchor="start" x="408" y="-61" font-family="Helvetica,sans-Serif" font-size="10.00">ant::analysis::physics</text>
<text text-anchor="middle" x="456" y="-48" font-family="Helvetica,sans-Serif" font-size="10.00">::EventFilter</text>
</g>
<!-- Node3 -->
<g id="node2" class="node"><title>Node3</title>
<a xlink:href="classant_1_1analysis_1_1_physics.html" target="_top" xlink:title="ant::analysis::Physics">
<polygon fill="white" stroke="black" points="198.5,-92.5 198.5,-113.5 311.5,-113.5 311.5,-92.5 198.5,-92.5"/>
<text text-anchor="middle" x="255" y="-100.5" font-family="Helvetica,sans-Serif" font-size="10.00">ant::analysis::Physics</text>
</a>
</g>
<!-- Node3&#45;&gt;Node2 -->
<g id="edge2" class="edge"><title>Node3&#45;&gt;Node2</title>
<path fill="none" stroke="midnightblue" d="M311.042,-90.2197C333.151,-85.1733 358.772,-79.32 382,-74 387.782,-72.6757 393.818,-71.2916 399.84,-69.9098"/>
<polygon fill="midnightblue" stroke="midnightblue" points="310.123,-86.8395 301.152,-92.4767 311.68,-93.664 310.123,-86.8395"/>
</g>
<!-- Node4 -->
<g id="node4" class="node"><title>Node4</title>
<a xlink:href="classant_1_1analysis_1_1_histogram_factory.html" target="_top" xlink:title="ant::analysis::Histogram\lFactory">
<polygon fill="white" stroke="black" points="0.5,-86 0.5,-120 123.5,-120 123.5,-86 0.5,-86"/>
<text text-anchor="start" x="8.5" y="-107" font-family="Helvetica,sans-Serif" font-size="10.00">ant::analysis::Histogram</text>
<text text-anchor="middle" x="62" y="-94" font-family="Helvetica,sans-Serif" font-size="10.00">Factory</text>
</a>
</g>
<!-- Node4&#45;&gt;Node3 -->
<g id="edge4" class="edge"><title>Node4&#45;&gt;Node3</title>
<path fill="none" stroke="#9a32cd" stroke-dasharray="5,2" d="M133.873,-103C155.125,-103 178.085,-103 198.242,-103"/>
<polygon fill="#9a32cd" stroke="#9a32cd" points="133.597,-99.5001 123.597,-103 133.597,-106.5 133.597,-99.5001"/>
<text text-anchor="middle" x="161" y="-107" font-family="Helvetica,sans-Serif" font-size="10.00"> HistFac</text>
</g>
<!-- Node5 -->
<g id="node6" class="node"><title>Node5</title>
<a xlink:href="classant_1_1analysis_1_1utils_1_1_trigger_simulation.html" target="_top" xlink:title="ant::analysis::utils\l::TriggerSimulation">
<polygon fill="white" stroke="black" points="206,-40 206,-74 304,-74 304,-40 206,-40"/>
<text text-anchor="start" x="214" y="-61" font-family="Helvetica,sans-Serif" font-size="10.00">ant::analysis::utils</text>
<text text-anchor="middle" x="255" y="-48" font-family="Helvetica,sans-Serif" font-size="10.00">::TriggerSimulation</text>
</a>
</g>
<!-- Node5&#45;&gt;Node2 -->
<g id="edge6" class="edge"><title>Node5&#45;&gt;Node2</title>
<path fill="none" stroke="#9a32cd" stroke-dasharray="5,2" d="M314.283,-57C341.34,-57 373.217,-57 399.88,-57"/>
<polygon fill="#9a32cd" stroke="#9a32cd" points="314.17,-53.5001 304.17,-57 314.17,-60.5001 314.17,-53.5001"/>
<text text-anchor="middle" x="356" y="-61" font-family="Helvetica,sans-Serif" font-size="10.00"> triggersimu</text>
</g>
<!-- Node6 -->
<g id="node8" class="node"><title>Node6</title>
<a xlink:href="classant_1_1interval.html" target="_top" xlink:title="ant::interval\&lt; size_t \&gt;">
<polygon fill="white" stroke="black" points="199,-0.5 199,-21.5 311,-21.5 311,-0.5 199,-0.5"/>
<text text-anchor="middle" x="255" y="-8.5" font-family="Helvetica,sans-Serif" font-size="10.00">ant::interval&lt; size_t &gt;</text>
</a>
</g>
<!-- Node6&#45;&gt;Node2 -->
<g id="edge8" class="edge"><title>Node6&#45;&gt;Node2</title>
<path fill="none" stroke="#9a32cd" stroke-dasharray="5,2" d="M311.042,-23.7803C333.151,-28.8267 358.772,-34.68 382,-40 387.782,-41.3243 393.818,-42.7084 399.84,-44.0902"/>
<polygon fill="#9a32cd" stroke="#9a32cd" points="311.68,-20.336 301.152,-21.5233 310.123,-27.1605 311.68,-20.336"/>
<text text-anchor="middle" x="356" y="-44" font-family="Helvetica,sans-Serif" font-size="10.00"> nCands</text>
</g>
</g>
</svg>
