<?xml version="1.0" encoding="UTF-8" standalone="no"?>
<!DOCTYPE svg PUBLIC "-//W3C//DTD SVG 1.1//EN"
 "http://www.w3.org/Graphics/SVG/1.1/DTD/svg11.dtd">
<!-- Generated by graphviz version 2.26.3 (20100126.1600)
 -->
<!-- Title: ant::analysis::PhysicsManager::Exception Pages: 1 -->
<svg width="158pt" height="160pt"
 viewBox="0.00 0.00 158.00 160.00" xmlns="http://www.w3.org/2000/svg" xmlns:xlink="http://www.w3.org/1999/xlink">
<g id="graph1" class="graph" transform="scale(1 1) rotate(0) translate(4 156)">
<title>ant::analysis::PhysicsManager::Exception</title>
<polygon fill="white" stroke="white" points="-4,5 -4,-156 155,-156 155,5 -4,5"/>
<!-- Node3 -->
<g id="node1" class="node"><title>Node3</title>
<polygon fill="#bfbfbf" stroke="black" points="-0.5,-1 -0.5,-35 150.5,-35 150.5,-1 -0.5,-1"/>
<text text-anchor="start" x="7.5" y="-22" font-family="Helvetica,sans-Serif" font-size="10.00">ant::analysis::PhysicsManager</text>
<text text-anchor="middle" x="75" y="-9" font-family="Helvetica,sans-Serif" font-size="10.00">::Exception</text>
</g>
<!-- Node4 -->
<g id="node2" class="node"><title>Node4</title>
<a xlink:title="STL class. ">
<polygon fill="white" stroke="#bfbfbf" points="28.5,-72.5 28.5,-93.5 121.5,-93.5 121.5,-72.5 28.5,-72.5"/>
<text text-anchor="middle" x="75" y="-80.5" font-family="Helvetica,sans-Serif" font-size="10.00">std::runtime_error</text>
</a>
</g>
<!-- Node4&#45;&gt;Node3 -->
<g id="edge2" class="edge"><title>Node4&#45;&gt;Node3</title>
<path fill="none" stroke="midnightblue" d="M75,-62.1306C75,-53.4049 75,-43.3908 75,-35.1099"/>
<polygon fill="midnightblue" stroke="midnightblue" points="71.5001,-62.2665 75,-72.2666 78.5001,-62.2666 71.5001,-62.2665"/>
</g>
<!-- Node5 -->
<g id="node4" class="node"><title>Node5</title>
<a xlink:title="STL class. ">
<polygon fill="white" stroke="#bfbfbf" points="36,-130.5 36,-151.5 114,-151.5 114,-130.5 36,-130.5"/>
<text text-anchor="middle" x="75" y="-138.5" font-family="Helvetica,sans-Serif" font-size="10.00">std::exception</text>
</a>
</g>
<!-- Node5&#45;&gt;Node4 -->
<g id="edge4" class="edge"><title>Node5&#45;&gt;Node4</title>
<path fill="none" stroke="midnightblue" d="M75,-120.191C75,-111.168 75,-100.994 75,-93.5707"/>
<polygon fill="midnightblue" stroke="midnightblue" points="71.5001,-120.362 75,-130.362 78.5001,-120.362 71.5001,-120.362"/>
</g>
</g>
</svg>
