<?xml version="1.0" encoding="UTF-8" standalone="no"?>
<!DOCTYPE svg PUBLIC "-//W3C//DTD SVG 1.1//EN"
 "http://www.w3.org/Graphics/SVG/1.1/DTD/svg11.dtd">
<!-- Generated by graphviz version 2.26.3 (20100126.1600)
 -->
<!-- Title: ant::calibration::CB_Energy Pages: 1 -->
<svg width="1104pt" height="287pt"
 viewBox="0.00 0.00 1104.00 287.00" xmlns="http://www.w3.org/2000/svg" xmlns:xlink="http://www.w3.org/1999/xlink">
<g id="graph1" class="graph" transform="scale(1 1) rotate(0) translate(4 283)">
<title>ant::calibration::CB_Energy</title>
<polygon fill="white" stroke="white" points="-4,5 -4,-283 1101,-283 1101,5 -4,5"/>
<!-- Node8 -->
<g id="node1" class="node"><title>Node8</title>
<polygon fill="#bfbfbf" stroke="black" points="994.5,-84 994.5,-118 1095.5,-118 1095.5,-84 994.5,-84"/>
<text text-anchor="start" x="1002.5" y="-105" font-family="Helvetica,sans-Serif" font-size="10.00">ant::calibration::CB</text>
<text text-anchor="middle" x="1045" y="-92" font-family="Helvetica,sans-Serif" font-size="10.00">_Energy</text>
</g>
<!-- Node9 -->
<g id="node2" class="node"><title>Node9</title>
<a xlink:href="classant_1_1calibration_1_1_energy.html" target="_top" xlink:title="ant::calibration::Energy">
<polygon fill="white" stroke="black" points="838.5,-90.5 838.5,-111.5 955.5,-111.5 955.5,-90.5 838.5,-90.5"/>
<text text-anchor="middle" x="897" y="-98.5" font-family="Helvetica,sans-Serif" font-size="10.00">ant::calibration::Energy</text>
</a>
</g>
<!-- Node9&#45;&gt;Node8 -->
<g id="edge2" class="edge"><title>Node9&#45;&gt;Node8</title>
<path fill="none" stroke="midnightblue" d="M966.17,-101C975.683,-101 985.304,-101 994.398,-101"/>
<polygon fill="midnightblue" stroke="midnightblue" points="965.919,-97.5001 955.919,-101 965.919,-104.5 965.919,-97.5001"/>
</g>
<!-- Node10 -->
<g id="node4" class="node"><title>Node10</title>
<a xlink:href="classant_1_1_calibration_1_1_module.html" target="_top" xlink:title="The Module class is typically used for calibrations. ">
<polygon fill="white" stroke="black" points="606,-205.5 606,-226.5 726,-226.5 726,-205.5 606,-205.5"/>
<text text-anchor="middle" x="666" y="-213.5" font-family="Helvetica,sans-Serif" font-size="10.00">ant::Calibration::Module</text>
</a>
</g>
<!-- Node10&#45;&gt;Node9 -->
<g id="edge4" class="edge"><title>Node10&#45;&gt;Node9</title>
<path fill="none" stroke="midnightblue" d="M717.155,-202.302C722.903,-200.367 728.621,-198.259 734,-196 791.681,-171.778 854.026,-130.818 881.967,-111.579"/>
<polygon fill="midnightblue" stroke="midnightblue" points="715.963,-199.009 707.508,-205.393 718.1,-205.675 715.963,-199.009"/>
</g>
<!-- Node11 -->
<g id="node6" class="node"><title>Node11</title>
<a xlink:href="classant_1_1_calibration_1_1_physics_module.html" target="_top" xlink:title="The PhysicsModule class gives the modules the ability to create histograms from events as well as fit...">
<polygon fill="white" stroke="black" points="390,-245 390,-279 514,-279 514,-245 390,-245"/>
<text text-anchor="start" x="398" y="-266" font-family="Helvetica,sans-Serif" font-size="10.00">ant::Calibration::Physics</text>
<text text-anchor="middle" x="452" y="-253" font-family="Helvetica,sans-Serif" font-size="10.00">Module</text>
</a>
</g>
<!-- Node11&#45;&gt;Node10 -->
<g id="edge6" class="edge"><title>Node11&#45;&gt;Node10</title>
<path fill="none" stroke="midnightblue" d="M524.344,-246.45C554.822,-239.898 589.507,-232.442 616.927,-226.548"/>
<polygon fill="midnightblue" stroke="midnightblue" points="523.226,-243.11 514.185,-248.633 524.697,-249.953 523.226,-243.11"/>
</g>
<!-- Node12 -->
<g id="node8" class="node"><title>Node12</title>
<a xlink:href="classant_1_1_calibration_1_1_base_module.html" target="_top" xlink:title="The BaseModule class provides a name for identification. ">
<polygon fill="white" stroke="black" points="134.5,-251.5 134.5,-272.5 277.5,-272.5 277.5,-251.5 134.5,-251.5"/>
<text text-anchor="middle" x="206" y="-259.5" font-family="Helvetica,sans-Serif" font-size="10.00">ant::Calibration::BaseModule</text>
</a>
</g>
<!-- Node12&#45;&gt;Node11 -->
<g id="edge8" class="edge"><title>Node12&#45;&gt;Node11</title>
<path fill="none" stroke="midnightblue" d="M287.956,-262C321.139,-262 358.823,-262 389.698,-262"/>
<polygon fill="midnightblue" stroke="midnightblue" points="287.815,-258.5 277.815,-262 287.815,-265.5 287.815,-258.5"/>
</g>
<!-- Node13 -->
<g id="node10" class="node"><title>Node13</title>
<a xlink:href="structant_1_1_updateable__traits.html" target="_top" xlink:title="The Updateable_traits class used by the UpdateableManager. ">
<polygon fill="white" stroke="black" points="395.5,-205.5 395.5,-226.5 508.5,-226.5 508.5,-205.5 395.5,-205.5"/>
<text text-anchor="middle" x="452" y="-213.5" font-family="Helvetica,sans-Serif" font-size="10.00">ant::Updateable_traits</text>
</a>
</g>
<!-- Node13&#45;&gt;Node10 -->
<g id="edge10" class="edge"><title>Node13&#45;&gt;Node10</title>
<path fill="none" stroke="midnightblue" d="M518.568,-216C546.453,-216 578.633,-216 605.801,-216"/>
<polygon fill="midnightblue" stroke="midnightblue" points="518.506,-212.5 508.506,-216 518.506,-219.5 518.506,-212.5"/>
</g>
<!-- Node14 -->
<g id="node12" class="node"><title>Node14</title>
<a xlink:href="structant_1_1_reconstruct_hook_1_1_detector_read_hits.html" target="_top" xlink:title="The DetectorReadHits struct instances are applied before hit matching. ">
<polygon fill="white" stroke="black" points="609.5,-153 609.5,-187 722.5,-187 722.5,-153 609.5,-153"/>
<text text-anchor="start" x="617.5" y="-174" font-family="Helvetica,sans-Serif" font-size="10.00">ant::ReconstructHook</text>
<text text-anchor="middle" x="666" y="-161" font-family="Helvetica,sans-Serif" font-size="10.00">::DetectorReadHits</text>
</a>
</g>
<!-- Node14&#45;&gt;Node9 -->
<g id="edge12" class="edge"><title>Node14&#45;&gt;Node9</title>
<path fill="none" stroke="midnightblue" d="M732.144,-150.243C774.277,-137.658 827.201,-121.849 861.546,-111.59"/>
<polygon fill="midnightblue" stroke="midnightblue" points="731.089,-146.905 722.509,-153.121 733.092,-153.612 731.089,-146.905"/>
</g>
<!-- Node15 -->
<g id="node14" class="node"><title>Node15</title>
<a xlink:href="structant_1_1_reconstruct_hook_1_1_base.html" target="_top" xlink:title="The Base struct just defines some useful types. ">
<polygon fill="white" stroke="black" points="395.5,-153 395.5,-187 508.5,-187 508.5,-153 395.5,-153"/>
<text text-anchor="start" x="403.5" y="-174" font-family="Helvetica,sans-Serif" font-size="10.00">ant::ReconstructHook</text>
<text text-anchor="middle" x="452" y="-161" font-family="Helvetica,sans-Serif" font-size="10.00">::Base</text>
</a>
</g>
<!-- Node15&#45;&gt;Node14 -->
<g id="edge14" class="edge"><title>Node15&#45;&gt;Node14</title>
<path fill="none" stroke="midnightblue" d="M518.569,-170C547.618,-170 581.329,-170 609.177,-170"/>
<polygon fill="midnightblue" stroke="midnightblue" points="518.506,-166.5 508.506,-170 518.506,-173.5 518.506,-166.5"/>
</g>
<!-- Node16 -->
<g id="node16" class="node"><title>Node16</title>
<a xlink:href="structant_1_1calibration_1_1_calib_type.html" target="_top" xlink:title="The CalibType struct stores the data for the Updateable interface and for the GUI. ">
<polygon fill="white" stroke="black" points="386.5,-33.5 386.5,-54.5 517.5,-54.5 517.5,-33.5 386.5,-33.5"/>
<text text-anchor="middle" x="452" y="-41.5" font-family="Helvetica,sans-Serif" font-size="10.00">ant::calibration::CalibType</text>
</a>
</g>
<!-- Node16&#45;&gt;Node9 -->
<g id="edge16" class="edge"><title>Node16&#45;&gt;Node9</title>
<path fill="none" stroke="#9a32cd" stroke-dasharray="5,2" d="M527.53,-53.1523C584.335,-60.0894 664.077,-69.9423 734,-79 768.549,-83.4754 807.187,-88.6816 838.171,-92.9057"/>
<polygon fill="#9a32cd" stroke="#9a32cd" points="527.904,-49.672 517.554,-51.9351 527.056,-56.6205 527.904,-49.672"/>
<text text-anchor="middle" x="666" y="-135" font-family="Helvetica,sans-Serif" font-size="10.00"> Thresholds_Raw</text>
<text text-anchor="middle" x="666" y="-122" font-family="Helvetica,sans-Serif" font-size="10.00">RelativeGains</text>
<text text-anchor="middle" x="666" y="-109" font-family="Helvetica,sans-Serif" font-size="10.00">Pedestals</text>
<text text-anchor="middle" x="666" y="-96" font-family="Helvetica,sans-Serif" font-size="10.00">Thresholds_MeV</text>
<text text-anchor="middle" x="666" y="-83" font-family="Helvetica,sans-Serif" font-size="10.00">Gains</text>
</g>
<!-- Node20 -->
<g id="node24" class="node"><title>Node20</title>
<polygon fill="white" stroke="#bfbfbf" points="598,-0 598,-34 734,-34 734,-0 598,-0"/>
<text text-anchor="start" x="606" y="-21" font-family="Helvetica,sans-Serif" font-size="10.00">std::vector&lt; ant::calibration</text>
<text text-anchor="middle" x="666" y="-8" font-family="Helvetica,sans-Serif" font-size="10.00">::CalibType *&gt;</text>
</g>
<!-- Node16&#45;&gt;Node20 -->
<g id="edge26" class="edge"><title>Node16&#45;&gt;Node20</title>
<path fill="none" stroke="#9a32cd" stroke-dasharray="5,2" d="M527.665,-34.4535C550.543,-31.567 575.517,-28.4161 597.871,-25.5957"/>
<polygon fill="#9a32cd" stroke="#9a32cd" points="527.145,-30.9913 517.661,-35.7156 528.021,-37.9362 527.145,-30.9913"/>
<text text-anchor="middle" x="558" y="-37" font-family="Helvetica,sans-Serif" font-size="10.00"> elements</text>
</g>
<!-- Node17 -->
<g id="node18" class="node"><title>Node17</title>
<a xlink:title="STL class. ">
<polygon fill="white" stroke="#bfbfbf" points="176,-54.5 176,-75.5 236,-75.5 236,-54.5 176,-54.5"/>
<text text-anchor="middle" x="206" y="-62.5" font-family="Helvetica,sans-Serif" font-size="10.00">std::string</text>
</a>
</g>
<!-- Node17&#45;&gt;Node16 -->
<g id="edge18" class="edge"><title>Node17&#45;&gt;Node16</title>
<path fill="none" stroke="#9a32cd" stroke-dasharray="5,2" d="M246.33,-61.5572C284.308,-58.3151 341.864,-53.4019 386.44,-49.5966"/>
<polygon fill="#9a32cd" stroke="#9a32cd" points="245.83,-58.087 236.164,-62.425 246.426,-65.0616 245.83,-58.087"/>
<text text-anchor="middle" x="332" y="-74" font-family="Helvetica,sans-Serif" font-size="10.00"> Name</text>
<text text-anchor="middle" x="332" y="-61" font-family="Helvetica,sans-Serif" font-size="10.00">HistogramName</text>
</g>
<!-- Node18 -->
<g id="node20" class="node"><title>Node18</title>
<a xlink:title="STL class. ">
<polygon fill="white" stroke="#bfbfbf" points="0.5,-48 0.5,-82 95.5,-82 95.5,-48 0.5,-48"/>
<text text-anchor="start" x="8.5" y="-69" font-family="Helvetica,sans-Serif" font-size="10.00">std::basic_string&lt;</text>
<text text-anchor="middle" x="48" y="-56" font-family="Helvetica,sans-Serif" font-size="10.00"> char &gt;</text>
</a>
</g>
<!-- Node18&#45;&gt;Node17 -->
<g id="edge20" class="edge"><title>Node18&#45;&gt;Node17</title>
<path fill="none" stroke="midnightblue" d="M106.116,-65C129.743,-65 156.054,-65 175.739,-65"/>
<polygon fill="midnightblue" stroke="midnightblue" points="105.834,-61.5001 95.834,-65 105.834,-68.5001 105.834,-61.5001"/>
</g>
<!-- Node19 -->
<g id="node22" class="node"><title>Node19</title>
<polygon fill="white" stroke="#bfbfbf" points="151,-14.5 151,-35.5 261,-35.5 261,-14.5 151,-14.5"/>
<text text-anchor="middle" x="206" y="-22.5" font-family="Helvetica,sans-Serif" font-size="10.00">std::vector&lt; double &gt;</text>
</g>
<!-- Node19&#45;&gt;Node16 -->
<g id="edge22" class="edge"><title>Node19&#45;&gt;Node16</title>
<path fill="none" stroke="#9a32cd" stroke-dasharray="5,2" d="M271.453,-23.692C301.015,-23.7485 336.339,-24.7155 368,-28 379.813,-29.2255 392.446,-31.2475 404.233,-33.4486"/>
<polygon fill="#9a32cd" stroke="#9a32cd" points="271.247,-20.1922 261.252,-23.7076 271.258,-27.1922 271.247,-20.1922"/>
<text text-anchor="middle" x="332" y="-32" font-family="Helvetica,sans-Serif" font-size="10.00"> Values</text>
</g>
<!-- Node20&#45;&gt;Node9 -->
<g id="edge24" class="edge"><title>Node20&#45;&gt;Node9</title>
<path fill="none" stroke="#9a32cd" stroke-dasharray="5,2" d="M744.451,-22.8952C769.329,-26.6791 796.468,-32.8726 820,-43 846.441,-54.3797 872.111,-76.6501 886.11,-90.0398"/>
<polygon fill="#9a32cd" stroke="#9a32cd" points="744.703,-19.3962 734.313,-21.4644 743.725,-26.3275 744.703,-19.3962"/>
<text text-anchor="middle" x="786" y="-47" font-family="Helvetica,sans-Serif" font-size="10.00"> AllCalibrations</text>
</g>
</g>
</svg>
