<?xml version="1.0" encoding="UTF-8" standalone="no"?>
<!DOCTYPE svg PUBLIC "-//W3C//DTD SVG 1.1//EN"
 "http://www.w3.org/Graphics/SVG/1.1/DTD/svg11.dtd">
<!-- Generated by graphviz version 2.26.3 (20100126.1600)
 -->
<!-- Title: ant::analysis::physics::Etap3pi0 Pages: 1 -->
<svg width="1564pt" height="690pt"
 viewBox="0.00 0.00 1564.00 690.00" xmlns="http://www.w3.org/2000/svg" xmlns:xlink="http://www.w3.org/1999/xlink">
<g id="graph1" class="graph" transform="scale(1 1) rotate(0) translate(4 686)">
<title>ant::analysis::physics::Etap3pi0</title>
<polygon fill="white" stroke="white" points="-4,5 -4,-686 1561,-686 1561,5 -4,5"/>
<!-- Node2 -->
<g id="node1" class="node"><title>Node2</title>
<polygon fill="#bfbfbf" stroke="black" points="1444,-375 1444,-409 1556,-409 1556,-375 1444,-375"/>
<text text-anchor="start" x="1452" y="-396" font-family="Helvetica,sans-Serif" font-size="10.00">ant::analysis::physics</text>
<text text-anchor="middle" x="1500" y="-383" font-family="Helvetica,sans-Serif" font-size="10.00">::Etap3pi0</text>
</g>
<!-- Node3 -->
<g id="node2" class="node"><title>Node3</title>
<a xlink:href="classant_1_1analysis_1_1_physics.html" target="_top" xlink:title="ant::analysis::Physics">
<polygon fill="white" stroke="black" points="1182.5,-650.5 1182.5,-671.5 1295.5,-671.5 1295.5,-650.5 1182.5,-650.5"/>
<text text-anchor="middle" x="1239" y="-658.5" font-family="Helvetica,sans-Serif" font-size="10.00">ant::analysis::Physics</text>
</a>
</g>
<!-- Node3&#45;&gt;Node2 -->
<g id="edge2" class="edge"><title>Node3&#45;&gt;Node2</title>
<path fill="none" stroke="midnightblue" d="M1305.74,-658.885C1345.25,-654.239 1393.74,-642.136 1426,-612 1456.63,-583.393 1486.34,-456.038 1496.4,-409.286"/>
<polygon fill="midnightblue" stroke="midnightblue" points="1305.22,-655.419 1295.64,-659.935 1305.95,-662.382 1305.22,-655.419"/>
</g>
<!-- Node4 -->
<g id="node4" class="node"><title>Node4</title>
<a xlink:href="classant_1_1analysis_1_1_histogram_factory.html" target="_top" xlink:title="ant::analysis::Histogram\lFactory">
<polygon fill="white" stroke="black" points="875.5,-648 875.5,-682 998.5,-682 998.5,-648 875.5,-648"/>
<text text-anchor="start" x="883.5" y="-669" font-family="Helvetica,sans-Serif" font-size="10.00">ant::analysis::Histogram</text>
<text text-anchor="middle" x="937" y="-656" font-family="Helvetica,sans-Serif" font-size="10.00">Factory</text>
</a>
</g>
<!-- Node4&#45;&gt;Node3 -->
<g id="edge4" class="edge"><title>Node4&#45;&gt;Node3</title>
<path fill="none" stroke="#9a32cd" stroke-dasharray="5,2" d="M1008.87,-664.048C1061.96,-663.345 1133.25,-662.401 1182.34,-661.75"/>
<polygon fill="#9a32cd" stroke="#9a32cd" points="1008.8,-660.549 998.843,-664.181 1008.89,-667.548 1008.8,-660.549"/>
<text text-anchor="middle" x="1091" y="-667" font-family="Helvetica,sans-Serif" font-size="10.00"> HistFac</text>
</g>
<!-- Node5 -->
<g id="node6" class="node"><title>Node5</title>
<a xlink:href="classant_1_1analysis_1_1utils_1_1_a2_simple_geometry.html" target="_top" xlink:title="ant::analysis::utils\l::A2SimpleGeometry">
<polygon fill="white" stroke="black" points="1185.5,-590 1185.5,-624 1292.5,-624 1292.5,-590 1185.5,-590"/>
<text text-anchor="start" x="1193.5" y="-611" font-family="Helvetica,sans-Serif" font-size="10.00">ant::analysis::utils</text>
<text text-anchor="middle" x="1239" y="-598" font-family="Helvetica,sans-Serif" font-size="10.00">::A2SimpleGeometry</text>
</a>
</g>
<!-- Node5&#45;&gt;Node2 -->
<g id="edge6" class="edge"><title>Node5&#45;&gt;Node2</title>
<path fill="none" stroke="#9a32cd" stroke-dasharray="5,2" d="M1302.67,-601.592C1342.15,-595.271 1391.7,-581.587 1426,-552 1470.84,-513.316 1490.17,-441.7 1496.94,-409.036"/>
<polygon fill="#9a32cd" stroke="#9a32cd" points="1301.99,-598.156 1292.61,-603.082 1303.01,-605.08 1301.99,-598.156"/>
<text text-anchor="middle" x="1378" y="-599" font-family="Helvetica,sans-Serif" font-size="10.00"> geometry</text>
</g>
<!-- Node6 -->
<g id="node8" class="node"><title>Node6</title>
<a xlink:href="classant_1_1interval.html" target="_top" xlink:title="ant::interval\&lt; double \&gt;">
<polygon fill="white" stroke="black" points="880,-592.5 880,-613.5 994,-613.5 994,-592.5 880,-592.5"/>
<text text-anchor="middle" x="937" y="-600.5" font-family="Helvetica,sans-Serif" font-size="10.00">ant::interval&lt; double &gt;</text>
</a>
</g>
<!-- Node6&#45;&gt;Node5 -->
<g id="edge8" class="edge"><title>Node6&#45;&gt;Node5</title>
<path fill="none" stroke="#9a32cd" stroke-dasharray="5,2" d="M1004.43,-603.893C1059.02,-604.616 1134.86,-605.621 1185.37,-606.29"/>
<polygon fill="#9a32cd" stroke="#9a32cd" points="1004.2,-600.39 994.159,-603.757 1004.11,-607.389 1004.2,-600.39"/>
<text text-anchor="middle" x="1091" y="-635" font-family="Helvetica,sans-Serif" font-size="10.00"> cb_phi_hem1</text>
<text text-anchor="middle" x="1091" y="-622" font-family="Helvetica,sans-Serif" font-size="10.00">cb_theta_region</text>
<text text-anchor="middle" x="1091" y="-609" font-family="Helvetica,sans-Serif" font-size="10.00">taps_region</text>
</g>
<!-- Node7 -->
<g id="node10" class="node"><title>Node7</title>
<polygon fill="white" stroke="#bfbfbf" points="1179.5,-524.5 1179.5,-571.5 1298.5,-571.5 1298.5,-524.5 1179.5,-524.5"/>
<text text-anchor="start" x="1187.5" y="-558.5" font-family="Helvetica,sans-Serif" font-size="10.00">std::vector&lt; std::vector</text>
<text text-anchor="start" x="1187.5" y="-545.5" font-family="Helvetica,sans-Serif" font-size="10.00">&lt; std::pair&lt; unsigned,</text>
<text text-anchor="middle" x="1239" y="-532.5" font-family="Helvetica,sans-Serif" font-size="10.00"> unsigned &gt; &gt; &gt;</text>
</g>
<!-- Node7&#45;&gt;Node2 -->
<g id="edge10" class="edge"><title>Node7&#45;&gt;Node2</title>
<path fill="none" stroke="#9a32cd" stroke-dasharray="5,2" d="M1308.97,-541.025C1346.38,-534.549 1391.66,-522.065 1426,-498 1458.71,-475.072 1481.71,-432.781 1492.69,-409.139"/>
<polygon fill="#9a32cd" stroke="#9a32cd" points="1307.96,-537.643 1298.64,-542.697 1309.08,-544.554 1307.96,-537.643"/>
<text text-anchor="middle" x="1378" y="-539" font-family="Helvetica,sans-Serif" font-size="10.00"> combinations</text>
</g>
<!-- Node8 -->
<g id="node12" class="node"><title>Node8</title>
<a xlink:href="structant_1_1analysis_1_1physics_1_1_etap3pi0_1_1settings__t.html" target="_top" xlink:title="ant::analysis::physics\l::Etap3pi0::settings_t">
<polygon fill="white" stroke="black" points="1183,-472 1183,-506 1295,-506 1295,-472 1183,-472"/>
<text text-anchor="start" x="1191" y="-493" font-family="Helvetica,sans-Serif" font-size="10.00">ant::analysis::physics</text>
<text text-anchor="middle" x="1239" y="-480" font-family="Helvetica,sans-Serif" font-size="10.00">::Etap3pi0::settings_t</text>
</a>
</g>
<!-- Node8&#45;&gt;Node2 -->
<g id="edge12" class="edge"><title>Node8&#45;&gt;Node2</title>
<path fill="none" stroke="#9a32cd" stroke-dasharray="5,2" d="M1305.5,-485.39C1342.44,-481.339 1388.39,-472.826 1426,-455 1449.33,-443.945 1471.2,-423.601 1485.03,-409.02"/>
<polygon fill="#9a32cd" stroke="#9a32cd" points="1304.93,-481.929 1295.34,-486.418 1305.64,-488.894 1304.93,-481.929"/>
<text text-anchor="middle" x="1378" y="-485" font-family="Helvetica,sans-Serif" font-size="10.00"> phSettings</text>
</g>
<!-- Node9 -->
<g id="node14" class="node"><title>Node9</title>
<polygon fill="white" stroke="#bfbfbf" points="890,-487 890,-521 984,-521 984,-487 890,-487"/>
<text text-anchor="start" x="898" y="-508" font-family="Helvetica,sans-Serif" font-size="10.00">std::map&lt; int, std</text>
<text text-anchor="middle" x="937" y="-495" font-family="Helvetica,sans-Serif" font-size="10.00">::string &gt;</text>
</g>
<!-- Node9&#45;&gt;Node8 -->
<g id="edge14" class="edge"><title>Node9&#45;&gt;Node8</title>
<path fill="none" stroke="#9a32cd" stroke-dasharray="5,2" d="M994.31,-501.153C1048.45,-498.464 1129.16,-494.455 1182.9,-491.786"/>
<polygon fill="#9a32cd" stroke="#9a32cd" points="994.002,-497.664 984.188,-501.656 994.349,-504.656 994.002,-497.664"/>
<text text-anchor="middle" x="1091" y="-503" font-family="Helvetica,sans-Serif" font-size="10.00"> EventTypes</text>
</g>
<!-- Node10 -->
<g id="node16" class="node"><title>Node10</title>
<a xlink:title="STL class. ">
<polygon fill="white" stroke="#bfbfbf" points="673,-451.5 673,-472.5 733,-472.5 733,-451.5 673,-451.5"/>
<text text-anchor="middle" x="703" y="-459.5" font-family="Helvetica,sans-Serif" font-size="10.00">std::string</text>
</a>
</g>
<!-- Node10&#45;&gt;Node9 -->
<g id="edge16" class="edge"><title>Node10&#45;&gt;Node9</title>
<path fill="none" stroke="#9a32cd" stroke-dasharray="5,2" d="M743.19,-469.214C783.81,-476.504 846.563,-487.768 889.59,-495.491"/>
<polygon fill="#9a32cd" stroke="#9a32cd" points="743.573,-465.727 733.112,-467.405 742.337,-472.616 743.573,-465.727"/>
<text text-anchor="middle" x="812" y="-489" font-family="Helvetica,sans-Serif" font-size="10.00"> elements</text>
</g>
<!-- Node12 -->
<g id="node20" class="node"><title>Node12</title>
<a xlink:href="structant_1_1analysis_1_1physics_1_1_etap3pi0_1_1branches.html" target="_top" xlink:title="ant::analysis::physics\l::Etap3pi0::branches">
<polygon fill="white" stroke="black" points="881,-375 881,-409 993,-409 993,-375 881,-375"/>
<text text-anchor="start" x="889" y="-396" font-family="Helvetica,sans-Serif" font-size="10.00">ant::analysis::physics</text>
<text text-anchor="middle" x="937" y="-383" font-family="Helvetica,sans-Serif" font-size="10.00">::Etap3pi0::branches</text>
</a>
</g>
<!-- Node10&#45;&gt;Node12 -->
<g id="edge26" class="edge"><title>Node10&#45;&gt;Node12</title>
<path fill="none" stroke="#9a32cd" stroke-dasharray="5,2" d="M731.053,-446.863C746.349,-439.12 765.821,-430.073 784,-424 815.402,-413.51 851.622,-405.75 880.936,-400.501"/>
<polygon fill="#9a32cd" stroke="#9a32cd" points="729.397,-443.779 722.118,-451.477 732.609,-449.998 729.397,-443.779"/>
<text text-anchor="middle" x="812" y="-428" font-family="Helvetica,sans-Serif" font-size="10.00"> decayString</text>
</g>
<!-- Node38 -->
<g id="node75" class="node"><title>Node38</title>
<polygon fill="white" stroke="#bfbfbf" points="1034.5,-422.5 1034.5,-469.5 1147.5,-469.5 1147.5,-422.5 1034.5,-422.5"/>
<text text-anchor="start" x="1042.5" y="-456.5" font-family="Helvetica,sans-Serif" font-size="10.00">std::map&lt; std::string,</text>
<text text-anchor="start" x="1042.5" y="-443.5" font-family="Helvetica,sans-Serif" font-size="10.00"> std::map&lt; std::string,</text>
<text text-anchor="middle" x="1091" y="-430.5" font-family="Helvetica,sans-Serif" font-size="10.00"> TH1 *&gt; &gt;</text>
</g>
<!-- Node10&#45;&gt;Node38 -->
<g id="edge80" class="edge"><title>Node10&#45;&gt;Node38</title>
<path fill="none" stroke="#9a32cd" stroke-dasharray="5,2" d="M743.218,-460.342C812.64,-457.479 955.126,-451.603 1034.48,-448.331"/>
<polygon fill="#9a32cd" stroke="#9a32cd" points="742.97,-456.849 733.123,-460.758 743.259,-463.843 742.97,-456.849"/>
<text text-anchor="middle" x="812" y="-462" font-family="Helvetica,sans-Serif" font-size="10.00"> keys</text>
</g>
<!-- Node11 -->
<g id="node18" class="node"><title>Node11</title>
<a xlink:title="STL class. ">
<polygon fill="white" stroke="#bfbfbf" points="406.5,-446 406.5,-480 501.5,-480 501.5,-446 406.5,-446"/>
<text text-anchor="start" x="414.5" y="-467" font-family="Helvetica,sans-Serif" font-size="10.00">std::basic_string&lt;</text>
<text text-anchor="middle" x="454" y="-454" font-family="Helvetica,sans-Serif" font-size="10.00"> char &gt;</text>
</a>
</g>
<!-- Node11&#45;&gt;Node10 -->
<g id="edge18" class="edge"><title>Node11&#45;&gt;Node10</title>
<path fill="none" stroke="midnightblue" d="M511.79,-462.768C562.032,-462.566 632.844,-462.282 672.688,-462.122"/>
<polygon fill="midnightblue" stroke="midnightblue" points="511.701,-459.268 501.715,-462.808 511.729,-466.268 511.701,-459.268"/>
</g>
<!-- Node12&#45;&gt;Node2 -->
<g id="edge20" class="edge"><title>Node12&#45;&gt;Node2</title>
<path fill="none" stroke="#9a32cd" stroke-dasharray="5,2" d="M1003.17,-392C1114.93,-392 1339.11,-392 1443.77,-392"/>
<polygon fill="#9a32cd" stroke="#9a32cd" points="1003.04,-388.5 993.041,-392 1003.04,-395.5 1003.04,-388.5"/>
<text text-anchor="middle" x="1239" y="-396" font-family="Helvetica,sans-Serif" font-size="10.00"> vars</text>
</g>
<!-- Node13 -->
<g id="node22" class="node"><title>Node13</title>
<a xlink:href="structant_1_1analysis_1_1physics_1_1_etap3pi0_1_1branches_1_1kin_fit_return__t.html" target="_top" xlink:title="ant::analysis::physics\l::Etap3pi0::branches::\lkinFitReturn_t">
<polygon fill="white" stroke="black" points="646.5,-373.5 646.5,-420.5 759.5,-420.5 759.5,-373.5 646.5,-373.5"/>
<text text-anchor="start" x="654.5" y="-407.5" font-family="Helvetica,sans-Serif" font-size="10.00">ant::analysis::physics</text>
<text text-anchor="start" x="654.5" y="-394.5" font-family="Helvetica,sans-Serif" font-size="10.00">::Etap3pi0::branches::</text>
<text text-anchor="middle" x="703" y="-381.5" font-family="Helvetica,sans-Serif" font-size="10.00">kinFitReturn_t</text>
</a>
</g>
<!-- Node13&#45;&gt;Node12 -->
<g id="edge22" class="edge"><title>Node13&#45;&gt;Node12</title>
<path fill="none" stroke="#9a32cd" stroke-dasharray="5,2" d="M769.586,-389.007C774.459,-388.605 779.303,-388.26 784,-388 815.97,-386.229 851.742,-387.012 880.654,-388.336"/>
<polygon fill="#9a32cd" stroke="#9a32cd" points="769.228,-385.525 759.582,-389.906 769.855,-392.497 769.228,-385.525"/>
<text text-anchor="middle" x="812" y="-392" font-family="Helvetica,sans-Serif" font-size="10.00"> kinfitted</text>
</g>
<!-- Node14 -->
<g id="node24" class="node"><title>Node14</title>
<polygon fill="white" stroke="#bfbfbf" points="380,-385.5 380,-406.5 528,-406.5 528,-385.5 380,-385.5"/>
<text text-anchor="middle" x="454" y="-393.5" font-family="Helvetica,sans-Serif" font-size="10.00">std::vector&lt; TLorentzVector &gt;</text>
</g>
<!-- Node14&#45;&gt;Node13 -->
<g id="edge24" class="edge"><title>Node14&#45;&gt;Node13</title>
<path fill="none" stroke="#9a32cd" stroke-dasharray="5,2" d="M538.403,-396.339C573.943,-396.482 614.364,-396.644 646.255,-396.772"/>
<polygon fill="#9a32cd" stroke="#9a32cd" points="538.048,-392.838 528.034,-396.297 538.02,-399.838 538.048,-392.838"/>
<text text-anchor="middle" x="584" y="-439" font-family="Helvetica,sans-Serif" font-size="10.00"> gammasRef</text>
<text text-anchor="middle" x="584" y="-426" font-family="Helvetica,sans-Serif" font-size="10.00">intermediatesRef</text>
<text text-anchor="middle" x="584" y="-413" font-family="Helvetica,sans-Serif" font-size="10.00">intermediatesSig</text>
<text text-anchor="middle" x="584" y="-400" font-family="Helvetica,sans-Serif" font-size="10.00">gammasSig</text>
</g>
<!-- Node15 -->
<g id="node27" class="node"><title>Node15</title>
<a xlink:href="classant_1_1analysis_1_1utils_1_1_kin_fitter.html" target="_top" xlink:title="ant::analysis::utils\l::KinFitter">
<polygon fill="white" stroke="black" points="889,-276 889,-310 985,-310 985,-276 889,-276"/>
<text text-anchor="start" x="897" y="-297" font-family="Helvetica,sans-Serif" font-size="10.00">ant::analysis::utils</text>
<text text-anchor="middle" x="937" y="-284" font-family="Helvetica,sans-Serif" font-size="10.00">::KinFitter</text>
</a>
</g>
<!-- Node15&#45;&gt;Node2 -->
<g id="edge28" class="edge"><title>Node15&#45;&gt;Node2</title>
<path fill="none" stroke="#9a32cd" stroke-dasharray="5,2" d="M995.355,-289.377C1069.45,-285.853 1201.01,-283.201 1312,-300 1364.15,-307.894 1379.15,-308.763 1426,-333 1447.31,-344.023 1468.38,-361.663 1482.55,-374.787"/>
<polygon fill="#9a32cd" stroke="#9a32cd" points="995.102,-285.885 985.289,-289.878 995.451,-292.876 995.102,-285.885"/>
<text text-anchor="middle" x="1239" y="-304" font-family="Helvetica,sans-Serif" font-size="10.00"> kinFitterEMB</text>
</g>
<!-- Node22 -->
<g id="node41" class="node"><title>Node22</title>
<a xlink:href="classant_1_1analysis_1_1utils_1_1_tree_fitter.html" target="_top" xlink:title="ant::analysis::utils\l::TreeFitter">
<polygon fill="white" stroke="black" points="1191,-200 1191,-234 1287,-234 1287,-200 1191,-200"/>
<text text-anchor="start" x="1199" y="-221" font-family="Helvetica,sans-Serif" font-size="10.00">ant::analysis::utils</text>
<text text-anchor="middle" x="1239" y="-208" font-family="Helvetica,sans-Serif" font-size="10.00">::TreeFitter</text>
</a>
</g>
<!-- Node15&#45;&gt;Node22 -->
<g id="edge44" class="edge"><title>Node15&#45;&gt;Node22</title>
<path fill="none" stroke="midnightblue" d="M995.182,-283.516C1037.87,-275.986 1097.03,-264.352 1148,-250 1163.85,-245.536 1180.9,-239.654 1195.91,-234.094"/>
<polygon fill="midnightblue" stroke="midnightblue" points="994.497,-280.083 985.246,-285.247 995.699,-286.979 994.497,-280.083"/>
</g>
<!-- Node16 -->
<g id="node29" class="node"><title>Node16</title>
<a xlink:href="classant_1_1analysis_1_1utils_1_1_fitter.html" target="_top" xlink:title="ant::analysis::utils\l::Fitter">
<polygon fill="white" stroke="black" points="655,-229 655,-263 751,-263 751,-229 655,-229"/>
<text text-anchor="start" x="663" y="-250" font-family="Helvetica,sans-Serif" font-size="10.00">ant::analysis::utils</text>
<text text-anchor="middle" x="703" y="-237" font-family="Helvetica,sans-Serif" font-size="10.00">::Fitter</text>
</a>
</g>
<!-- Node16&#45;&gt;Node15 -->
<g id="edge30" class="edge"><title>Node16&#45;&gt;Node15</title>
<path fill="none" stroke="midnightblue" d="M761.183,-257.686C800.514,-265.586 851.831,-275.893 888.861,-283.331"/>
<polygon fill="midnightblue" stroke="midnightblue" points="761.695,-254.219 751.201,-255.681 760.316,-261.082 761.695,-254.219"/>
</g>
<!-- Node17 -->
<g id="node31" class="node"><title>Node17</title>
<a xlink:href="structant_1_1analysis_1_1utils_1_1_kin_fitter_1_1_beam_e__t.html" target="_top" xlink:title="ant::analysis::utils\l::KinFitter::BeamE_t">
<polygon fill="white" stroke="black" points="650,-321 650,-355 756,-355 756,-321 650,-321"/>
<text text-anchor="start" x="658" y="-342" font-family="Helvetica,sans-Serif" font-size="10.00">ant::analysis::utils</text>
<text text-anchor="middle" x="703" y="-329" font-family="Helvetica,sans-Serif" font-size="10.00">::KinFitter::BeamE_t</text>
</a>
</g>
<!-- Node17&#45;&gt;Node15 -->
<g id="edge32" class="edge"><title>Node17&#45;&gt;Node15</title>
<path fill="none" stroke="#9a32cd" stroke-dasharray="5,2" d="M766.193,-325.847C804.804,-318.422 853.408,-309.075 888.887,-302.252"/>
<polygon fill="#9a32cd" stroke="#9a32cd" points="765.257,-322.463 756.098,-327.789 766.579,-329.337 765.257,-322.463"/>
<text text-anchor="middle" x="812" y="-326" font-family="Helvetica,sans-Serif" font-size="10.00"> BeamE</text>
</g>
<!-- Node18 -->
<g id="node33" class="node"><title>Node18</title>
<a xlink:href="structant_1_1analysis_1_1utils_1_1_fitter_1_1_v___s___p__t.html" target="_top" xlink:title="ant::analysis::utils\l::Fitter::V_S_P_t">
<polygon fill="white" stroke="black" points="406,-321 406,-355 502,-355 502,-321 406,-321"/>
<text text-anchor="start" x="414" y="-342" font-family="Helvetica,sans-Serif" font-size="10.00">ant::analysis::utils</text>
<text text-anchor="middle" x="454" y="-329" font-family="Helvetica,sans-Serif" font-size="10.00">::Fitter::V_S_P_t</text>
</a>
</g>
<!-- Node18&#45;&gt;Node17 -->
<g id="edge34" class="edge"><title>Node18&#45;&gt;Node17</title>
<path fill="none" stroke="midnightblue" d="M512.018,-338C553.705,-338 609.463,-338 649.965,-338"/>
<polygon fill="midnightblue" stroke="midnightblue" points="512.01,-334.5 502.01,-338 512.01,-341.5 512.01,-334.5"/>
</g>
<!-- Node19 -->
<g id="node35" class="node"><title>Node19</title>
<a xlink:href="structant_1_1analysis_1_1utils_1_1_fitter_1_1_v___s__t.html" target="_top" xlink:title="ant::analysis::utils\l::Fitter::V_S_t">
<polygon fill="white" stroke="black" points="199,-321 199,-355 295,-355 295,-321 199,-321"/>
<text text-anchor="start" x="207" y="-342" font-family="Helvetica,sans-Serif" font-size="10.00">ant::analysis::utils</text>
<text text-anchor="middle" x="247" y="-329" font-family="Helvetica,sans-Serif" font-size="10.00">::Fitter::V_S_t</text>
</a>
</g>
<!-- Node19&#45;&gt;Node18 -->
<g id="edge36" class="edge"><title>Node19&#45;&gt;Node18</title>
<path fill="none" stroke="midnightblue" d="M305.064,-338C336.865,-338 375.805,-338 405.892,-338"/>
<polygon fill="midnightblue" stroke="midnightblue" points="305.01,-334.5 295.01,-338 305.01,-341.5 305.01,-334.5"/>
</g>
<!-- Node20 -->
<g id="node37" class="node"><title>Node20</title>
<polygon fill="white" stroke="#bfbfbf" points="640.5,-281.5 640.5,-302.5 765.5,-302.5 765.5,-281.5 640.5,-281.5"/>
<text text-anchor="middle" x="703" y="-289.5" font-family="Helvetica,sans-Serif" font-size="10.00">std::vector&lt; FitParticle &gt;</text>
</g>
<!-- Node20&#45;&gt;Node15 -->
<g id="edge38" class="edge"><title>Node20&#45;&gt;Node15</title>
<path fill="none" stroke="#9a32cd" stroke-dasharray="5,2" d="M775.901,-292.312C812.734,-292.469 856.399,-292.656 888.971,-292.795"/>
<polygon fill="#9a32cd" stroke="#9a32cd" points="775.723,-288.811 765.708,-292.268 775.693,-295.811 775.723,-288.811"/>
<text text-anchor="middle" x="812" y="-296" font-family="Helvetica,sans-Serif" font-size="10.00"> Photons</text>
</g>
<!-- Node21 -->
<g id="node39" class="node"><title>Node21</title>
<polygon fill="white" stroke="#bfbfbf" points="1187,-322 1187,-356 1291,-356 1291,-322 1187,-322"/>
<text text-anchor="start" x="1195" y="-343" font-family="Helvetica,sans-Serif" font-size="10.00">std::vector&lt; utils</text>
<text text-anchor="middle" x="1239" y="-330" font-family="Helvetica,sans-Serif" font-size="10.00">::TreeFitter::tree_t &gt;</text>
</g>
<!-- Node21&#45;&gt;Node2 -->
<g id="edge40" class="edge"><title>Node21&#45;&gt;Node2</title>
<path fill="none" stroke="#9a32cd" stroke-dasharray="5,2" d="M1301.35,-336.782C1338.27,-337.072 1385.58,-340.267 1426,-352 1443.25,-357.007 1461.01,-366.437 1474.8,-374.883"/>
<polygon fill="#9a32cd" stroke="#9a32cd" points="1301.23,-333.282 1291.22,-336.772 1301.22,-340.282 1301.23,-333.282"/>
<text text-anchor="middle" x="1378" y="-369" font-family="Helvetica,sans-Serif" font-size="10.00"> intermediatesTreeSig</text>
<text text-anchor="middle" x="1378" y="-356" font-family="Helvetica,sans-Serif" font-size="10.00">intermediatesTreeRef</text>
</g>
<!-- Node22&#45;&gt;Node2 -->
<g id="edge42" class="edge"><title>Node22&#45;&gt;Node2</title>
<path fill="none" stroke="#9a32cd" stroke-dasharray="5,2" d="M1297.39,-214.799C1337.15,-216.162 1389.06,-223.86 1426,-251 1468.33,-282.101 1488.59,-344.705 1496.22,-374.918"/>
<polygon fill="#9a32cd" stroke="#9a32cd" points="1297.38,-211.298 1287.31,-214.578 1297.23,-218.296 1297.38,-211.298"/>
<text text-anchor="middle" x="1378" y="-268" font-family="Helvetica,sans-Serif" font-size="10.00"> fitterSig</text>
<text text-anchor="middle" x="1378" y="-255" font-family="Helvetica,sans-Serif" font-size="10.00">fitterRef</text>
</g>
<!-- Node23 -->
<g id="node44" class="node"><title>Node23</title>
<polygon fill="white" stroke="#bfbfbf" points="884,-184.5 884,-205.5 990,-205.5 990,-184.5 884,-184.5"/>
<text text-anchor="middle" x="937" y="-192.5" font-family="Helvetica,sans-Serif" font-size="10.00">std::vector&lt; tree_t &gt;</text>
</g>
<!-- Node23&#45;&gt;Node22 -->
<g id="edge46" class="edge"><title>Node23&#45;&gt;Node22</title>
<path fill="none" stroke="#9a32cd" stroke-dasharray="5,2" d="M1000.13,-193.849C1042.15,-193.733 1098.51,-194.825 1148,-200 1161.91,-201.454 1176.87,-203.883 1190.57,-206.457"/>
<polygon fill="#9a32cd" stroke="#9a32cd" points="1000.03,-190.35 990.046,-193.901 1000.06,-197.349 1000.03,-190.35"/>
<text text-anchor="middle" x="1091" y="-204" font-family="Helvetica,sans-Serif" font-size="10.00"> tree_leaves</text>
</g>
<!-- Node24 -->
<g id="node46" class="node"><title>Node24</title>
<polygon fill="white" stroke="#bfbfbf" points="864,-224 864,-258 1010,-258 1010,-224 864,-224"/>
<text text-anchor="start" x="872" y="-245" font-family="Helvetica,sans-Serif" font-size="10.00">std::list&lt; ant::analysis</text>
<text text-anchor="middle" x="937" y="-232" font-family="Helvetica,sans-Serif" font-size="10.00">::utils::TreeFitter::iteration_t &gt;</text>
</g>
<!-- Node24&#45;&gt;Node22 -->
<g id="edge48" class="edge"><title>Node24&#45;&gt;Node22</title>
<path fill="none" stroke="#9a32cd" stroke-dasharray="5,2" d="M1020.15,-234.392C1074.92,-230.039 1144.74,-224.491 1190.6,-220.846"/>
<polygon fill="#9a32cd" stroke="#9a32cd" points="1019.8,-230.909 1010.11,-235.19 1020.35,-237.887 1019.8,-230.909"/>
<text text-anchor="middle" x="1091" y="-237" font-family="Helvetica,sans-Serif" font-size="10.00"> iterations</text>
</g>
<!-- Node25 -->
<g id="node48" class="node"><title>Node25</title>
<a xlink:href="structant_1_1analysis_1_1utils_1_1_tree_fitter_1_1iteration__t.html" target="_top" xlink:title="ant::analysis::utils\l::TreeFitter::iteration_t">
<polygon fill="white" stroke="black" points="646.5,-177 646.5,-211 759.5,-211 759.5,-177 646.5,-177"/>
<text text-anchor="start" x="654.5" y="-198" font-family="Helvetica,sans-Serif" font-size="10.00">ant::analysis::utils</text>
<text text-anchor="middle" x="703" y="-185" font-family="Helvetica,sans-Serif" font-size="10.00">::TreeFitter::iteration_t</text>
</a>
</g>
<!-- Node25&#45;&gt;Node24 -->
<g id="edge50" class="edge"><title>Node25&#45;&gt;Node24</title>
<path fill="none" stroke="#9a32cd" stroke-dasharray="5,2" d="M769.779,-207.413C799.087,-213.299 833.583,-220.228 863.608,-226.259"/>
<polygon fill="#9a32cd" stroke="#9a32cd" points="770.138,-203.915 759.645,-205.377 768.76,-210.778 770.138,-203.915"/>
<text text-anchor="middle" x="812" y="-224" font-family="Helvetica,sans-Serif" font-size="10.00"> elements</text>
</g>
<!-- Node26 -->
<g id="node50" class="node"><title>Node26</title>
<polygon fill="white" stroke="#bfbfbf" points="389.5,-170.5 389.5,-217.5 518.5,-217.5 518.5,-170.5 389.5,-170.5"/>
<text text-anchor="start" x="397.5" y="-204.5" font-family="Helvetica,sans-Serif" font-size="10.00">std::vector&lt; ant::analysis</text>
<text text-anchor="start" x="397.5" y="-191.5" font-family="Helvetica,sans-Serif" font-size="10.00">::utils::TreeFitter::iteration</text>
<text text-anchor="middle" x="454" y="-178.5" font-family="Helvetica,sans-Serif" font-size="10.00">_t::photon_t &gt;</text>
</g>
<!-- Node26&#45;&gt;Node25 -->
<g id="edge52" class="edge"><title>Node26&#45;&gt;Node25</title>
<path fill="none" stroke="#9a32cd" stroke-dasharray="5,2" d="M529.169,-194C566.757,-194 611.5,-194 646.179,-194"/>
<polygon fill="#9a32cd" stroke="#9a32cd" points="528.772,-190.5 518.772,-194 528.772,-197.5 528.772,-190.5"/>
<text text-anchor="middle" x="584" y="-198" font-family="Helvetica,sans-Serif" font-size="10.00"> Photons</text>
</g>
<!-- Node27 -->
<g id="node52" class="node"><title>Node27</title>
<a xlink:href="structant_1_1analysis_1_1utils_1_1_tree_fitter_1_1iteration__t_1_1photon__t.html" target="_top" xlink:title="ant::analysis::utils\l::TreeFitter::iteration\l_t::photon_t">
<polygon fill="white" stroke="black" points="194.5,-170.5 194.5,-217.5 299.5,-217.5 299.5,-170.5 194.5,-170.5"/>
<text text-anchor="start" x="202.5" y="-204.5" font-family="Helvetica,sans-Serif" font-size="10.00">ant::analysis::utils</text>
<text text-anchor="start" x="202.5" y="-191.5" font-family="Helvetica,sans-Serif" font-size="10.00">::TreeFitter::iteration</text>
<text text-anchor="middle" x="247" y="-178.5" font-family="Helvetica,sans-Serif" font-size="10.00">_t::photon_t</text>
</a>
</g>
<!-- Node27&#45;&gt;Node26 -->
<g id="edge54" class="edge"><title>Node27&#45;&gt;Node26</title>
<path fill="none" stroke="#9a32cd" stroke-dasharray="5,2" d="M309.682,-194C334.886,-194 363.935,-194 389.335,-194"/>
<polygon fill="#9a32cd" stroke="#9a32cd" points="309.502,-190.5 299.502,-194 309.502,-197.5 309.502,-190.5"/>
<text text-anchor="middle" x="340" y="-198" font-family="Helvetica,sans-Serif" font-size="10.00"> elements</text>
</g>
<!-- Node28 -->
<g id="node54" class="node"><title>Node28</title>
<a xlink:href="structant_1_1std__ext_1_1cc__shared__ptr.html" target="_top" xlink:title="ant::std_ext::cc_shared\l_ptr\&lt; TParticle \&gt;">
<polygon fill="white" stroke="black" points="0.5,-177 0.5,-211 119.5,-211 119.5,-177 0.5,-177"/>
<text text-anchor="start" x="8.5" y="-198" font-family="Helvetica,sans-Serif" font-size="10.00">ant::std_ext::cc_shared</text>
<text text-anchor="middle" x="60" y="-185" font-family="Helvetica,sans-Serif" font-size="10.00">_ptr&lt; TParticle &gt;</text>
</a>
</g>
<!-- Node28&#45;&gt;Node27 -->
<g id="edge56" class="edge"><title>Node28&#45;&gt;Node27</title>
<path fill="none" stroke="#9a32cd" stroke-dasharray="5,2" d="M129.965,-194C151.239,-194 174.251,-194 194.194,-194"/>
<polygon fill="#9a32cd" stroke="#9a32cd" points="129.682,-190.5 119.682,-194 129.682,-197.5 129.682,-190.5"/>
<text text-anchor="middle" x="157" y="-198" font-family="Helvetica,sans-Serif" font-size="10.00"> Particle</text>
</g>
<!-- Node29 -->
<g id="node56" class="node"><title>Node29</title>
<polygon fill="white" stroke="#bfbfbf" points="874,-132 874,-166 1000,-166 1000,-132 874,-132"/>
<text text-anchor="start" x="882" y="-153" font-family="Helvetica,sans-Serif" font-size="10.00">std::vector&lt; std::function</text>
<text text-anchor="middle" x="937" y="-140" font-family="Helvetica,sans-Serif" font-size="10.00">&lt; void()&gt; &gt;</text>
</g>
<!-- Node29&#45;&gt;Node22 -->
<g id="edge58" class="edge"><title>Node29&#45;&gt;Node22</title>
<path fill="none" stroke="#9a32cd" stroke-dasharray="5,2" d="M1010.28,-149.33C1052.04,-151.79 1104.54,-158.807 1148,-177 1157.35,-180.914 1157.11,-186.127 1166,-191 1173.79,-195.269 1182.41,-199.066 1190.92,-202.349"/>
<polygon fill="#9a32cd" stroke="#9a32cd" points="1010.35,-145.829 1000.18,-148.81 1009.99,-152.819 1010.35,-145.829"/>
<text text-anchor="middle" x="1091" y="-181" font-family="Helvetica,sans-Serif" font-size="10.00"> sum_daughters</text>
</g>
<!-- Node30 -->
<g id="node58" class="node"><title>Node30</title>
<polygon fill="white" stroke="#bfbfbf" points="867,-52.5 867,-73.5 1007,-73.5 1007,-52.5 867,-52.5"/>
<text text-anchor="middle" x="937" y="-60.5" font-family="Helvetica,sans-Serif" font-size="10.00">std::vector&lt; permutation_t &gt;</text>
</g>
<!-- Node30&#45;&gt;Node22 -->
<g id="edge60" class="edge"><title>Node30&#45;&gt;Node22</title>
<path fill="none" stroke="#9a32cd" stroke-dasharray="5,2" d="M990.385,-50.7617C1037.92,-43.2791 1106.23,-41.458 1148,-80 1184.73,-113.891 1134.01,-152.605 1166,-191 1172.46,-198.752 1181.4,-204.193 1190.81,-208.012"/>
<polygon fill="#9a32cd" stroke="#9a32cd" points="989.544,-47.3545 980.275,-52.4865 990.721,-54.2548 989.544,-47.3545"/>
<text text-anchor="middle" x="1091" y="-84" font-family="Helvetica,sans-Serif" font-size="10.00"> permutations</text>
</g>
<!-- Node31 -->
<g id="node60" class="node"><title>Node31</title>
<a xlink:title="STL class. ">
<polygon fill="white" stroke="#bfbfbf" points="659.5,-52.5 659.5,-73.5 746.5,-73.5 746.5,-52.5 659.5,-52.5"/>
<text text-anchor="middle" x="703" y="-60.5" font-family="Helvetica,sans-Serif" font-size="10.00">std::vector&lt; T &gt;</text>
</a>
</g>
<!-- Node31&#45;&gt;Node30 -->
<g id="edge62" class="edge"><title>Node31&#45;&gt;Node30</title>
<path fill="none" stroke="#9a32cd" stroke-dasharray="5,2" d="M756.99,-63C789.635,-63 831.607,-63 866.809,-63"/>
<polygon fill="#9a32cd" stroke="#9a32cd" points="756.739,-59.5001 746.739,-63 756.739,-66.5001 756.739,-59.5001"/>
<text text-anchor="middle" x="812" y="-67" font-family="Helvetica,sans-Serif" font-size="10.00"> elements</text>
</g>
<!-- Node32 -->
<g id="node62" class="node"><title>Node32</title>
<polygon fill="white" stroke="#bfbfbf" points="439.5,-32.5 439.5,-53.5 468.5,-53.5 468.5,-32.5 439.5,-32.5"/>
<text text-anchor="middle" x="454" y="-40.5" font-family="Helvetica,sans-Serif" font-size="10.00">T</text>
</g>
<!-- Node32&#45;&gt;Node31 -->
<g id="edge64" class="edge"><title>Node32&#45;&gt;Node31</title>
<path fill="none" stroke="#9a32cd" stroke-dasharray="5,2" d="M479.056,-45.0125C521.307,-48.4062 607.216,-55.3065 659.485,-59.5048"/>
<polygon fill="#9a32cd" stroke="#9a32cd" points="479.079,-41.5032 468.83,-44.1912 478.518,-48.4807 479.079,-41.5032"/>
<text text-anchor="middle" x="584" y="-60" font-family="Helvetica,sans-Serif" font-size="10.00"> elements</text>
</g>
<!-- Node36 -->
<g id="node70" class="node"><title>Node36</title>
<a xlink:title="STL class. ">
<polygon fill="white" stroke="#bfbfbf" points="651,-0 651,-34 755,-34 755,-0 651,-0"/>
<text text-anchor="start" x="659" y="-21" font-family="Helvetica,sans-Serif" font-size="10.00">std::vector&lt; interval</text>
<text text-anchor="middle" x="703" y="-8" font-family="Helvetica,sans-Serif" font-size="10.00">&lt; double &gt; &gt;</text>
</a>
</g>
<!-- Node32&#45;&gt;Node36 -->
<g id="edge74" class="edge"><title>Node32&#45;&gt;Node36</title>
<path fill="none" stroke="#9a32cd" stroke-dasharray="5,2" d="M479.022,-40.3872C519.039,-36.2087 598.283,-27.9343 650.967,-22.4331"/>
<polygon fill="#9a32cd" stroke="#9a32cd" points="478.413,-36.9318 468.83,-41.4514 479.14,-43.8939 478.413,-36.9318"/>
<text text-anchor="middle" x="584" y="-38" font-family="Helvetica,sans-Serif" font-size="10.00"> elements</text>
</g>
<!-- Node33 -->
<g id="node64" class="node"><title>Node33</title>
<polygon fill="white" stroke="#bfbfbf" points="858,-92.5 858,-113.5 1016,-113.5 1016,-92.5 858,-92.5"/>
<text text-anchor="middle" x="937" y="-100.5" font-family="Helvetica,sans-Serif" font-size="10.00">std::vector&lt; node_constraint_t &gt;</text>
</g>
<!-- Node33&#45;&gt;Node22 -->
<g id="edge66" class="edge"><title>Node33&#45;&gt;Node22</title>
<path fill="none" stroke="#9a32cd" stroke-dasharray="5,2" d="M1026.28,-96.1848C1067.63,-97.7181 1114.83,-106.769 1148,-135 1167.91,-151.945 1147.8,-172.228 1166,-191 1172.84,-198.052 1181.71,-203.196 1190.9,-206.947"/>
<polygon fill="#9a32cd" stroke="#9a32cd" points="1026.26,-92.6835 1016.18,-95.9524 1026.1,-99.6817 1026.26,-92.6835"/>
<text text-anchor="middle" x="1091" y="-139" font-family="Helvetica,sans-Serif" font-size="10.00"> node_constraints</text>
</g>
<!-- Node34 -->
<g id="node66" class="node"><title>Node34</title>
<a xlink:href="classant_1_1analysis_1_1_prompt_random_1_1_switch.html" target="_top" xlink:title="ant::analysis::PromptRandom\l::Switch">
<polygon fill="white" stroke="black" points="1166,-32 1166,-66 1312,-66 1312,-32 1166,-32"/>
<text text-anchor="start" x="1174" y="-53" font-family="Helvetica,sans-Serif" font-size="10.00">ant::analysis::PromptRandom</text>
<text text-anchor="middle" x="1239" y="-40" font-family="Helvetica,sans-Serif" font-size="10.00">::Switch</text>
</a>
</g>
<!-- Node34&#45;&gt;Node2 -->
<g id="edge68" class="edge"><title>Node34&#45;&gt;Node2</title>
<path fill="none" stroke="#9a32cd" stroke-dasharray="5,2" d="M1306.06,-69.7037C1346.13,-85.2787 1395.08,-110.468 1426,-148 1483.57,-217.864 1496.38,-331.812 1499.21,-374.831"/>
<polygon fill="#9a32cd" stroke="#9a32cd" points="1307.21,-66.3938 1296.61,-66.1417 1304.74,-72.9439 1307.21,-66.3938"/>
<text text-anchor="middle" x="1378" y="-152" font-family="Helvetica,sans-Serif" font-size="10.00"> promptrandom</text>
</g>
<!-- Node35 -->
<g id="node68" class="node"><title>Node35</title>
<a xlink:href="classant_1_1_piecewise_interval.html" target="_top" xlink:title="ant::PiecewiseInterval\l\&lt; double \&gt;">
<polygon fill="white" stroke="black" points="880.5,-0 880.5,-34 993.5,-34 993.5,-0 880.5,-0"/>
<text text-anchor="start" x="888.5" y="-21" font-family="Helvetica,sans-Serif" font-size="10.00">ant::PiecewiseInterval</text>
<text text-anchor="middle" x="937" y="-8" font-family="Helvetica,sans-Serif" font-size="10.00">&lt; double &gt;</text>
</a>
</g>
<!-- Node35&#45;&gt;Node34 -->
<g id="edge70" class="edge"><title>Node35&#45;&gt;Node34</title>
<path fill="none" stroke="#9a32cd" stroke-dasharray="5,2" d="M1003.88,-12.4013C1045.6,-10.8212 1100.25,-11.1003 1148,-19 1164.08,-21.661 1181.19,-26.6811 1196.18,-31.864"/>
<polygon fill="#9a32cd" stroke="#9a32cd" points="1003.67,-8.9066 993.83,-12.8268 1003.97,-15.9003 1003.67,-8.9066"/>
<text text-anchor="middle" x="1091" y="-36" font-family="Helvetica,sans-Serif" font-size="10.00"> promptw</text>
<text text-anchor="middle" x="1091" y="-23" font-family="Helvetica,sans-Serif" font-size="10.00">randomw</text>
</g>
<!-- Node36&#45;&gt;Node35 -->
<g id="edge72" class="edge"><title>Node36&#45;&gt;Node35</title>
<path fill="none" stroke="midnightblue" d="M765.534,-17C801.274,-17 845.742,-17 880.437,-17"/>
<polygon fill="midnightblue" stroke="midnightblue" points="765.223,-13.5001 755.223,-17 765.223,-20.5001 765.223,-13.5001"/>
</g>
<!-- Node37 -->
<g id="node73" class="node"><title>Node37</title>
<a xlink:href="classant_1_1analysis_1_1utils_1_1_trigger_simulation.html" target="_top" xlink:title="ant::analysis::utils\l::TriggerSimulation">
<polygon fill="white" stroke="black" points="1190,-148 1190,-182 1288,-182 1288,-148 1190,-148"/>
<text text-anchor="start" x="1198" y="-169" font-family="Helvetica,sans-Serif" font-size="10.00">ant::analysis::utils</text>
<text text-anchor="middle" x="1239" y="-156" font-family="Helvetica,sans-Serif" font-size="10.00">::TriggerSimulation</text>
</a>
</g>
<!-- Node37&#45;&gt;Node2 -->
<g id="edge76" class="edge"><title>Node37&#45;&gt;Node2</title>
<path fill="none" stroke="#9a32cd" stroke-dasharray="5,2" d="M1298.44,-161.851C1338.68,-162.851 1390.73,-170.655 1426,-200 1480.78,-245.583 1495.12,-336.723 1498.78,-374.732"/>
<polygon fill="#9a32cd" stroke="#9a32cd" points="1298.26,-158.349 1288.22,-161.735 1298.18,-165.348 1298.26,-158.349"/>
<text text-anchor="middle" x="1378" y="-204" font-family="Helvetica,sans-Serif" font-size="10.00"> triggersimu</text>
</g>
<!-- Node38&#45;&gt;Node2 -->
<g id="edge78" class="edge"><title>Node38&#45;&gt;Node2</title>
<path fill="none" stroke="#9a32cd" stroke-dasharray="5,2" d="M1157.88,-439.37C1225.63,-432.336 1333.36,-420.277 1426,-406 1431.82,-405.104 1437.87,-404.09 1443.91,-403.028"/>
<polygon fill="#9a32cd" stroke="#9a32cd" points="1157.35,-435.906 1147.77,-440.414 1158.07,-442.869 1157.35,-435.906"/>
<text text-anchor="middle" x="1239" y="-442" font-family="Helvetica,sans-Serif" font-size="10.00"> hists</text>
</g>
</g>
</svg>
