<?xml version="1.0" encoding="UTF-8" standalone="no"?>
<!DOCTYPE svg PUBLIC "-//W3C//DTD SVG 1.1//EN"
 "http://www.w3.org/Graphics/SVG/1.1/DTD/svg11.dtd">
<!-- Generated by graphviz version 2.26.3 (20100126.1600)
 -->
<!-- Title: ant::calibration::gui::AvgBuffer_Sum&lt; AvgBufferItem &gt; Pages: 1 -->
<svg width="180pt" height="128pt"
 viewBox="0.00 0.00 180.00 128.00" xmlns="http://www.w3.org/2000/svg" xmlns:xlink="http://www.w3.org/1999/xlink">
<g id="graph1" class="graph" transform="scale(1 1) rotate(0) translate(4 124)">
<title>ant::calibration::gui::AvgBuffer_Sum&lt; AvgBufferItem &gt;</title>
<polygon fill="white" stroke="white" points="-4,5 -4,-124 177,-124 177,5 -4,5"/>
<!-- Node0 -->
<g id="node1" class="node"><title>Node0</title>
<polygon fill="#bfbfbf" stroke="black" points="-0.5,-1 -0.5,-35 172.5,-35 172.5,-1 -0.5,-1"/>
<text text-anchor="start" x="7.5" y="-22" font-family="Helvetica,sans-Serif" font-size="10.00">ant::calibration::gui</text>
<text text-anchor="middle" x="86" y="-9" font-family="Helvetica,sans-Serif" font-size="10.00">::AvgBuffer_Sum&lt; AvgBufferItem &gt;</text>
</g>
<!-- Node1 -->
<g id="node2" class="node"><title>Node1</title>
<a xlink:href="classant_1_1calibration_1_1gui_1_1_avg_buffer__traits.html" target="_top" xlink:title="ant::calibration::gui\l::AvgBuffer_traits\&lt; AvgBuffer\lItem \&gt;">
<polygon fill="white" stroke="black" points="13,-72.5 13,-119.5 159,-119.5 159,-72.5 13,-72.5"/>
<text text-anchor="start" x="21" y="-106.5" font-family="Helvetica,sans-Serif" font-size="10.00">ant::calibration::gui</text>
<text text-anchor="start" x="21" y="-93.5" font-family="Helvetica,sans-Serif" font-size="10.00">::AvgBuffer_traits&lt; AvgBuffer</text>
<text text-anchor="middle" x="86" y="-80.5" font-family="Helvetica,sans-Serif" font-size="10.00">Item &gt;</text>
</a>
</g>
<!-- Node1&#45;&gt;Node0 -->
<g id="edge2" class="edge"><title>Node1&#45;&gt;Node0</title>
<path fill="none" stroke="midnightblue" d="M86,-61.9303C86,-52.6113 86,-42.9107 86,-35.003"/>
<polygon fill="midnightblue" stroke="midnightblue" points="82.5001,-62.1736 86,-72.1736 89.5001,-62.1736 82.5001,-62.1736"/>
</g>
</g>
</svg>
