<?xml version="1.0" encoding="UTF-8" standalone="no"?>
<!DOCTYPE svg PUBLIC "-//W3C//DTD SVG 1.1//EN"
 "http://www.w3.org/Graphics/SVG/1.1/DTD/svg11.dtd">
<!-- Generated by graphviz version 2.26.3 (20100126.1600)
 -->
<!-- Title: ant::calibration::gui::KnobsTF1::ParameterKnob Pages: 1 -->
<svg width="740pt" height="94pt"
 viewBox="0.00 0.00 740.00 94.00" xmlns="http://www.w3.org/2000/svg" xmlns:xlink="http://www.w3.org/1999/xlink">
<g id="graph1" class="graph" transform="scale(1 1) rotate(0) translate(4 90)">
<title>ant::calibration::gui::KnobsTF1::ParameterKnob</title>
<polygon fill="white" stroke="white" points="-4,5 -4,-90 737,-90 737,5 -4,5"/>
<!-- Node0 -->
<g id="node1" class="node"><title>Node0</title>
<polygon fill="#bfbfbf" stroke="black" points="136.5,-26 136.5,-60 277.5,-60 277.5,-26 136.5,-26"/>
<text text-anchor="start" x="144.5" y="-47" font-family="Helvetica,sans-Serif" font-size="10.00">ant::calibration::gui</text>
<text text-anchor="middle" x="207" y="-34" font-family="Helvetica,sans-Serif" font-size="10.00">::KnobsTF1::ParameterKnob</text>
</g>
<!-- Node2 -->
<g id="node5" class="node"><title>Node2</title>
<a xlink:href="classant_1_1calibration_1_1gui_1_1_knobs_t_f1_1_1_ranged_parameter_knob.html" target="_top" xlink:title="ant::calibration::gui\l::KnobsTF1::RangedParameterKnob">
<polygon fill="white" stroke="black" points="324.5,-52 324.5,-86 499.5,-86 499.5,-52 324.5,-52"/>
<text text-anchor="start" x="332.5" y="-73" font-family="Helvetica,sans-Serif" font-size="10.00">ant::calibration::gui</text>
<text text-anchor="middle" x="412" y="-60" font-family="Helvetica,sans-Serif" font-size="10.00">::KnobsTF1::RangedParameterKnob</text>
</a>
</g>
<!-- Node0&#45;&gt;Node2 -->
<g id="edge4" class="edge"><title>Node0&#45;&gt;Node2</title>
<path fill="none" stroke="midnightblue" d="M287.561,-53.2175C299.618,-54.7466 312.099,-56.3296 324.295,-57.8764"/>
<polygon fill="midnightblue" stroke="midnightblue" points="287.91,-49.7338 277.549,-51.9477 287.029,-56.6782 287.91,-49.7338"/>
</g>
<!-- Node3 -->
<g id="node7" class="node"><title>Node3</title>
<a xlink:href="classant_1_1calibration_1_1gui_1_1_knobs_t_f1_1_1_transformed_parameter_knob.html" target="_top" xlink:title="ant::calibration::gui\l::KnobsTF1::TransformedParameterKnob">
<polygon fill="white" stroke="black" points="314,-0 314,-34 510,-34 510,-0 314,-0"/>
<text text-anchor="start" x="322" y="-21" font-family="Helvetica,sans-Serif" font-size="10.00">ant::calibration::gui</text>
<text text-anchor="middle" x="412" y="-8" font-family="Helvetica,sans-Serif" font-size="10.00">::KnobsTF1::TransformedParameterKnob</text>
</a>
</g>
<!-- Node0&#45;&gt;Node3 -->
<g id="edge6" class="edge"><title>Node0&#45;&gt;Node3</title>
<path fill="none" stroke="midnightblue" d="M287.55,-32.7839C296.168,-31.6909 305.002,-30.5705 313.794,-29.4553"/>
<polygon fill="midnightblue" stroke="midnightblue" points="287.029,-29.3218 277.549,-34.0523 287.91,-36.2662 287.029,-29.3218"/>
</g>
<!-- Node1 -->
<g id="node2" class="node"><title>Node1</title>
<a xlink:href="classant_1_1calibration_1_1gui_1_1_indicator_knob.html" target="_top" xlink:title="ant::calibration::gui\l::IndicatorKnob">
<polygon fill="white" stroke="black" points="0.5,-26 0.5,-60 99.5,-60 99.5,-26 0.5,-26"/>
<text text-anchor="start" x="8.5" y="-47" font-family="Helvetica,sans-Serif" font-size="10.00">ant::calibration::gui</text>
<text text-anchor="middle" x="50" y="-34" font-family="Helvetica,sans-Serif" font-size="10.00">::IndicatorKnob</text>
</a>
</g>
<!-- Node1&#45;&gt;Node0 -->
<g id="edge2" class="edge"><title>Node1&#45;&gt;Node0</title>
<path fill="none" stroke="midnightblue" d="M109.736,-43C118.459,-43 127.509,-43 136.422,-43"/>
<polygon fill="midnightblue" stroke="midnightblue" points="109.676,-39.5001 99.6758,-43 109.676,-46.5001 109.676,-39.5001"/>
</g>
<!-- Node4 -->
<g id="node9" class="node"><title>Node4</title>
<a xlink:href="classant_1_1calibration_1_1gui_1_1_knobs_t_f1_1_1_reference_parameter_knob.html" target="_top" xlink:title="ant::calibration::gui\l::KnobsTF1::ReferenceParameterKnob">
<polygon fill="white" stroke="black" points="546,-0 546,-34 732,-34 732,-0 546,-0"/>
<text text-anchor="start" x="554" y="-21" font-family="Helvetica,sans-Serif" font-size="10.00">ant::calibration::gui</text>
<text text-anchor="middle" x="639" y="-8" font-family="Helvetica,sans-Serif" font-size="10.00">::KnobsTF1::ReferenceParameterKnob</text>
</a>
</g>
<!-- Node3&#45;&gt;Node4 -->
<g id="edge8" class="edge"><title>Node3&#45;&gt;Node4</title>
<path fill="none" stroke="midnightblue" d="M520.296,-17C528.884,-17 537.511,-17 545.981,-17"/>
<polygon fill="midnightblue" stroke="midnightblue" points="520.245,-13.5001 510.245,-17 520.245,-20.5001 520.245,-13.5001"/>
</g>
</g>
</svg>
