<?xml version="1.0" encoding="UTF-8" standalone="no"?>
<!DOCTYPE svg PUBLIC "-//W3C//DTD SVG 1.1//EN"
 "http://www.w3.org/Graphics/SVG/1.1/DTD/svg11.dtd">
<!-- Generated by graphviz version 2.26.3 (20100126.1600)
 -->
<!-- Title: ant::std_ext::mapped_vectors&lt; Key, Value &gt;::const_iterator Pages: 1 -->
<svg width="120pt" height="140pt"
 viewBox="0.00 0.00 120.00 140.00" xmlns="http://www.w3.org/2000/svg" xmlns:xlink="http://www.w3.org/1999/xlink">
<g id="graph1" class="graph" transform="scale(1 1) rotate(0) translate(4 136)">
<title>ant::std_ext::mapped_vectors&lt; Key, Value &gt;::const_iterator</title>
<polygon fill="white" stroke="white" points="-4,5 -4,-136 117,-136 117,5 -4,5"/>
<!-- Node0 -->
<g id="node1" class="node"><title>Node0</title>
<polygon fill="#bfbfbf" stroke="black" points="0.5,-0.5 0.5,-47.5 111.5,-47.5 111.5,-0.5 0.5,-0.5"/>
<text text-anchor="start" x="8.5" y="-34.5" font-family="Helvetica,sans-Serif" font-size="10.00">ant::std_ext::mapped</text>
<text text-anchor="start" x="8.5" y="-21.5" font-family="Helvetica,sans-Serif" font-size="10.00">_vectors&lt; Key, Value</text>
<text text-anchor="middle" x="56" y="-8.5" font-family="Helvetica,sans-Serif" font-size="10.00"> &gt;::const_iterator</text>
</g>
<!-- Node1 -->
<g id="node2" class="node"><title>Node1</title>
<polygon fill="white" stroke="#bfbfbf" points="0,-84.5 0,-131.5 112,-131.5 112,-84.5 0,-84.5"/>
<text text-anchor="start" x="8" y="-118.5" font-family="Helvetica,sans-Serif" font-size="10.00">std::iterator&lt; std</text>
<text text-anchor="start" x="8" y="-105.5" font-family="Helvetica,sans-Serif" font-size="10.00">::forward_iterator_tag,</text>
<text text-anchor="middle" x="56" y="-92.5" font-family="Helvetica,sans-Serif" font-size="10.00"> storage_item_t &gt;</text>
</g>
<!-- Node1&#45;&gt;Node0 -->
<g id="edge2" class="edge"><title>Node1&#45;&gt;Node0</title>
<path fill="none" stroke="midnightblue" d="M56,-74.0664C56,-65.1933 56,-55.821 56,-47.6152"/>
<polygon fill="midnightblue" stroke="midnightblue" points="52.5001,-74.1536 56,-84.1537 59.5001,-74.1537 52.5001,-74.1536"/>
</g>
</g>
</svg>
