<?xml version="1.0" encoding="UTF-8" standalone="no"?>
<!DOCTYPE svg PUBLIC "-//W3C//DTD SVG 1.1//EN"
 "http://www.w3.org/Graphics/SVG/1.1/DTD/svg11.dtd">
<!-- Generated by graphviz version 2.26.3 (20100126.1600)
 -->
<!-- Title: ant::calibration::gui::IndicatorLine Pages: 1 -->
<svg width="606pt" height="223pt"
 viewBox="0.00 0.00 606.00 223.00" xmlns="http://www.w3.org/2000/svg" xmlns:xlink="http://www.w3.org/1999/xlink">
<g id="graph1" class="graph" transform="scale(1 1) rotate(0) translate(4 219)">
<title>ant::calibration::gui::IndicatorLine</title>
<polygon fill="white" stroke="white" points="-4,5 -4,-219 603,-219 603,5 -4,5"/>
<!-- Node6 -->
<g id="node1" class="node"><title>Node6</title>
<polygon fill="#bfbfbf" stroke="black" points="498.5,-92 498.5,-126 597.5,-126 597.5,-92 498.5,-92"/>
<text text-anchor="start" x="506.5" y="-113" font-family="Helvetica,sans-Serif" font-size="10.00">ant::calibration::gui</text>
<text text-anchor="middle" x="548" y="-100" font-family="Helvetica,sans-Serif" font-size="10.00">::IndicatorLine</text>
</g>
<!-- Node7 -->
<g id="node2" class="node"><title>Node7</title>
<polygon fill="white" stroke="#bfbfbf" points="350.5,-193.5 350.5,-214.5 391.5,-214.5 391.5,-193.5 350.5,-193.5"/>
<text text-anchor="middle" x="371" y="-201.5" font-family="Helvetica,sans-Serif" font-size="10.00">TLine</text>
</g>
<!-- Node7&#45;&gt;Node6 -->
<g id="edge2" class="edge"><title>Node7&#45;&gt;Node6</title>
<path fill="none" stroke="midnightblue" d="M402.016,-200.447C424.763,-196.823 455.776,-189.701 480,-176 502.36,-163.354 522.572,-141.46 535.04,-126.152"/>
<polygon fill="midnightblue" stroke="midnightblue" points="401.283,-197.016 391.89,-201.917 402.289,-203.944 401.283,-197.016"/>
</g>
<!-- Node8 -->
<g id="node4" class="node"><title>Node8</title>
<a xlink:href="classant_1_1calibration_1_1gui_1_1_indicator.html" target="_top" xlink:title="ant::calibration::gui\l::Indicator">
<polygon fill="white" stroke="black" points="321.5,-92 321.5,-126 420.5,-126 420.5,-92 321.5,-92"/>
<text text-anchor="start" x="329.5" y="-113" font-family="Helvetica,sans-Serif" font-size="10.00">ant::calibration::gui</text>
<text text-anchor="middle" x="371" y="-100" font-family="Helvetica,sans-Serif" font-size="10.00">::Indicator</text>
</a>
</g>
<!-- Node8&#45;&gt;Node6 -->
<g id="edge4" class="edge"><title>Node8&#45;&gt;Node6</title>
<path fill="none" stroke="midnightblue" d="M430.961,-109C452.864,-109 477.379,-109 498.292,-109"/>
<polygon fill="midnightblue" stroke="midnightblue" points="430.775,-105.5 420.775,-109 430.775,-112.5 430.775,-105.5"/>
</g>
<!-- Node9 -->
<g id="node6" class="node"><title>Node9</title>
<a xlink:href="classant_1_1calibration_1_1gui_1_1update__notify__traits.html" target="_top" xlink:title="ant::calibration::gui\l::update_notify_traits">
<polygon fill="white" stroke="black" points="134,-130 134,-164 242,-164 242,-130 134,-130"/>
<text text-anchor="start" x="142" y="-151" font-family="Helvetica,sans-Serif" font-size="10.00">ant::calibration::gui</text>
<text text-anchor="middle" x="188" y="-138" font-family="Helvetica,sans-Serif" font-size="10.00">::update_notify_traits</text>
</a>
</g>
<!-- Node9&#45;&gt;Node6 -->
<g id="edge16" class="edge"><title>Node9&#45;&gt;Node6</title>
<path fill="none" stroke="#9a32cd" stroke-dasharray="5,2" d="M252.489,-144.554C264.302,-144.068 276.523,-143.54 288,-143 353.801,-139.906 370.78,-144.261 436,-135 456.653,-132.067 479.107,-127.197 498.45,-122.459"/>
<polygon fill="#9a32cd" stroke="#9a32cd" points="252.09,-141.067 242.24,-144.969 252.374,-148.061 252.09,-141.067"/>
<text text-anchor="middle" x="371" y="-146" font-family="Helvetica,sans-Serif" font-size="10.00"> update</text>
</g>
<!-- Node9&#45;&gt;Node8 -->
<g id="edge6" class="edge"><title>Node9&#45;&gt;Node8</title>
<path fill="none" stroke="midnightblue" d="M252.31,-133.646C275.019,-128.93 300.186,-123.705 321.479,-119.283"/>
<polygon fill="midnightblue" stroke="midnightblue" points="251.49,-130.242 242.411,-135.702 252.913,-137.095 251.49,-130.242"/>
</g>
<!-- Node10 -->
<g id="node8" class="node"><title>Node10</title>
<a xlink:href="classant_1_1calibration_1_1gui_1_1_indicator_knob.html" target="_top" xlink:title="ant::calibration::gui\l::IndicatorKnob">
<polygon fill="white" stroke="black" points="321.5,-40 321.5,-74 420.5,-74 420.5,-40 321.5,-40"/>
<text text-anchor="start" x="329.5" y="-61" font-family="Helvetica,sans-Serif" font-size="10.00">ant::calibration::gui</text>
<text text-anchor="middle" x="371" y="-48" font-family="Helvetica,sans-Serif" font-size="10.00">::IndicatorKnob</text>
</a>
</g>
<!-- Node10&#45;&gt;Node6 -->
<g id="edge8" class="edge"><title>Node10&#45;&gt;Node6</title>
<path fill="none" stroke="#9a32cd" stroke-dasharray="5,2" d="M430.664,-74.5283C452.642,-80.9853 477.285,-88.2249 498.292,-94.3965"/>
<polygon fill="#9a32cd" stroke="#9a32cd" points="431.356,-71.084 420.775,-71.6233 429.383,-77.8002 431.356,-71.084"/>
<text text-anchor="middle" x="467" y="-91" font-family="Helvetica,sans-Serif" font-size="10.00"> knob</text>
</g>
<!-- Node11 -->
<g id="node10" class="node"><title>Node11</title>
<a xlink:title="STL class. ">
<polygon fill="white" stroke="#bfbfbf" points="158,-75.5 158,-96.5 218,-96.5 218,-75.5 158,-75.5"/>
<text text-anchor="middle" x="188" y="-83.5" font-family="Helvetica,sans-Serif" font-size="10.00">std::string</text>
</a>
</g>
<!-- Node11&#45;&gt;Node10 -->
<g id="edge10" class="edge"><title>Node11&#45;&gt;Node10</title>
<path fill="none" stroke="#9a32cd" stroke-dasharray="5,2" d="M228.253,-79.6211C255.682,-75.2745 292.179,-69.4908 321.402,-64.8598"/>
<polygon fill="#9a32cd" stroke="#9a32cd" points="227.548,-76.1891 218.219,-81.2112 228.643,-83.1029 227.548,-76.1891"/>
<text text-anchor="middle" x="274" y="-78" font-family="Helvetica,sans-Serif" font-size="10.00"> name</text>
</g>
<!-- Node12 -->
<g id="node12" class="node"><title>Node12</title>
<a xlink:title="STL class. ">
<polygon fill="white" stroke="#bfbfbf" points="0.5,-69 0.5,-103 95.5,-103 95.5,-69 0.5,-69"/>
<text text-anchor="start" x="8.5" y="-90" font-family="Helvetica,sans-Serif" font-size="10.00">std::basic_string&lt;</text>
<text text-anchor="middle" x="48" y="-77" font-family="Helvetica,sans-Serif" font-size="10.00"> char &gt;</text>
</a>
</g>
<!-- Node12&#45;&gt;Node11 -->
<g id="edge12" class="edge"><title>Node12&#45;&gt;Node11</title>
<path fill="none" stroke="midnightblue" d="M106.12,-86C123.937,-86 142.811,-86 157.942,-86"/>
<polygon fill="midnightblue" stroke="midnightblue" points="105.789,-82.5001 95.7885,-86 105.788,-89.5001 105.789,-82.5001"/>
</g>
<!-- Node13 -->
<g id="node14" class="node"><title>Node13</title>
<a xlink:href="structant_1_1calibration_1_1gui_1_1_indicator_properties.html" target="_top" xlink:title="ant::calibration::gui\l::IndicatorProperties">
<polygon fill="white" stroke="black" points="136,-23 136,-57 240,-57 240,-23 136,-23"/>
<text text-anchor="start" x="144" y="-44" font-family="Helvetica,sans-Serif" font-size="10.00">ant::calibration::gui</text>
<text text-anchor="middle" x="188" y="-31" font-family="Helvetica,sans-Serif" font-size="10.00">::IndicatorProperties</text>
</a>
</g>
<!-- Node13&#45;&gt;Node10 -->
<g id="edge14" class="edge"><title>Node13&#45;&gt;Node10</title>
<path fill="none" stroke="#9a32cd" stroke-dasharray="5,2" d="M250.508,-43.0571C262.942,-43.8605 275.895,-44.8362 288,-46 298.852,-47.0433 310.469,-48.4194 321.472,-49.8438"/>
<polygon fill="#9a32cd" stroke="#9a32cd" points="250.412,-39.5446 240.215,-42.4223 249.981,-46.5313 250.412,-39.5446"/>
<text text-anchor="middle" x="274" y="-50" font-family="Helvetica,sans-Serif" font-size="10.00"> gui</text>
</g>
<!-- Node14 -->
<g id="node17" class="node"><title>Node14</title>
<polygon fill="white" stroke="#bfbfbf" points="306.5,-0.5 306.5,-21.5 435.5,-21.5 435.5,-0.5 306.5,-0.5"/>
<text text-anchor="middle" x="371" y="-8.5" font-family="Helvetica,sans-Serif" font-size="10.00">std::unique_ptr&lt; TLatex &gt;</text>
</g>
<!-- Node14&#45;&gt;Node6 -->
<g id="edge18" class="edge"><title>Node14&#45;&gt;Node6</title>
<path fill="none" stroke="#9a32cd" stroke-dasharray="5,2" d="M421.754,-24.9227C426.649,-26.7677 431.473,-28.7939 436,-31 470.508,-47.8145 506.192,-74.5834 527.745,-91.9747"/>
<polygon fill="#9a32cd" stroke="#9a32cd" points="422.907,-21.6179 412.312,-21.5984 420.582,-28.2206 422.907,-21.6179"/>
<text text-anchor="middle" x="467" y="-60" font-family="Helvetica,sans-Serif" font-size="10.00"> label</text>
</g>
</g>
</svg>
