<?xml version="1.0" encoding="UTF-8" standalone="no"?>
<!DOCTYPE svg PUBLIC "-//W3C//DTD SVG 1.1//EN"
 "http://www.w3.org/Graphics/SVG/1.1/DTD/svg11.dtd">
<!-- Generated by graphviz version 2.26.3 (20100126.1600)
 -->
<!-- Title: ant::calibration::gui::FitGaus Pages: 1 -->
<svg width="576pt" height="94pt"
 viewBox="0.00 0.00 576.00 94.00" xmlns="http://www.w3.org/2000/svg" xmlns:xlink="http://www.w3.org/1999/xlink">
<g id="graph1" class="graph" transform="scale(1 1) rotate(0) translate(4 90)">
<title>ant::calibration::gui::FitGaus</title>
<polygon fill="white" stroke="white" points="-4,5 -4,-90 573,-90 573,5 -4,5"/>
<!-- Node0 -->
<g id="node1" class="node"><title>Node0</title>
<polygon fill="#bfbfbf" stroke="black" points="280.5,-26 280.5,-60 379.5,-60 379.5,-26 280.5,-26"/>
<text text-anchor="start" x="288.5" y="-47" font-family="Helvetica,sans-Serif" font-size="10.00">ant::calibration::gui</text>
<text text-anchor="middle" x="330" y="-34" font-family="Helvetica,sans-Serif" font-size="10.00">::FitGaus</text>
</g>
<!-- Node3 -->
<g id="node7" class="node"><title>Node3</title>
<a xlink:href="classant_1_1calibration_1_1gui_1_1_c_b_peak_function.html" target="_top" xlink:title="ant::calibration::gui\l::CBPeakFunction">
<polygon fill="white" stroke="black" points="442.5,-52 442.5,-86 541.5,-86 541.5,-52 442.5,-52"/>
<text text-anchor="start" x="450.5" y="-73" font-family="Helvetica,sans-Serif" font-size="10.00">ant::calibration::gui</text>
<text text-anchor="middle" x="492" y="-60" font-family="Helvetica,sans-Serif" font-size="10.00">::CBPeakFunction</text>
</a>
</g>
<!-- Node0&#45;&gt;Node3 -->
<g id="edge6" class="edge"><title>Node0&#45;&gt;Node3</title>
<path fill="none" stroke="midnightblue" d="M389.884,-52.6109C407.106,-55.3751 425.698,-58.3589 442.238,-61.0134"/>
<polygon fill="midnightblue" stroke="midnightblue" points="390.356,-49.142 379.927,-51.013 389.246,-56.0535 390.356,-49.142"/>
</g>
<!-- Node4 -->
<g id="node9" class="node"><title>Node4</title>
<a xlink:href="class_p_i_d___phi_angle_1_1_the_g_u_i_1_1___fit_gauss.html" target="_top" xlink:title="The PID_PhiAngle::TheGUI::_FitGauss: override the SetDefaults for PID phi angle fits. ">
<polygon fill="white" stroke="black" points="416,-0 416,-34 568,-34 568,-0 416,-0"/>
<text text-anchor="start" x="424" y="-21" font-family="Helvetica,sans-Serif" font-size="10.00">ant::calibration::PID</text>
<text text-anchor="middle" x="492" y="-8" font-family="Helvetica,sans-Serif" font-size="10.00">_PhiAngle::TheGUI::_FitGauss</text>
</a>
</g>
<!-- Node0&#45;&gt;Node4 -->
<g id="edge8" class="edge"><title>Node0&#45;&gt;Node4</title>
<path fill="none" stroke="midnightblue" d="M389.976,-33.3741C398.368,-32.0273 407.084,-30.6285 415.727,-29.2413"/>
<polygon fill="midnightblue" stroke="midnightblue" points="389.246,-29.9465 379.927,-34.987 390.356,-36.858 389.246,-29.9465"/>
</g>
<!-- Node1 -->
<g id="node2" class="node"><title>Node1</title>
<a xlink:href="classant_1_1calibration_1_1gui_1_1_peaking_fit_function.html" target="_top" xlink:title="Fit functions describing peak shapes, like Gaus or Lorentz with optional background function...">
<polygon fill="white" stroke="black" points="136.5,-26 136.5,-60 243.5,-60 243.5,-26 136.5,-26"/>
<text text-anchor="start" x="144.5" y="-47" font-family="Helvetica,sans-Serif" font-size="10.00">ant::calibration::gui</text>
<text text-anchor="middle" x="190" y="-34" font-family="Helvetica,sans-Serif" font-size="10.00">::PeakingFitFunction</text>
</a>
</g>
<!-- Node1&#45;&gt;Node0 -->
<g id="edge2" class="edge"><title>Node1&#45;&gt;Node0</title>
<path fill="none" stroke="midnightblue" d="M254.004,-43C262.837,-43 271.799,-43 280.321,-43"/>
<polygon fill="midnightblue" stroke="midnightblue" points="253.727,-39.5001 243.727,-43 253.727,-46.5001 253.727,-39.5001"/>
</g>
<!-- Node2 -->
<g id="node4" class="node"><title>Node2</title>
<a xlink:href="classant_1_1calibration_1_1gui_1_1_fit_function.html" target="_top" xlink:title="ant::calibration::gui\l::FitFunction">
<polygon fill="white" stroke="black" points="0.5,-26 0.5,-60 99.5,-60 99.5,-26 0.5,-26"/>
<text text-anchor="start" x="8.5" y="-47" font-family="Helvetica,sans-Serif" font-size="10.00">ant::calibration::gui</text>
<text text-anchor="middle" x="50" y="-34" font-family="Helvetica,sans-Serif" font-size="10.00">::FitFunction</text>
</a>
</g>
<!-- Node2&#45;&gt;Node1 -->
<g id="edge4" class="edge"><title>Node2&#45;&gt;Node1</title>
<path fill="none" stroke="midnightblue" d="M109.865,-43C118.592,-43 127.534,-43 136.132,-43"/>
<polygon fill="midnightblue" stroke="midnightblue" points="109.753,-39.5001 99.753,-43 109.753,-46.5001 109.753,-39.5001"/>
</g>
</g>
</svg>
