<?xml version="1.0" encoding="UTF-8" standalone="no"?>
<!DOCTYPE svg PUBLIC "-//W3C//DTD SVG 1.1//EN"
 "http://www.w3.org/Graphics/SVG/1.1/DTD/svg11.dtd">
<!-- Generated by graphviz version 2.26.3 (20100126.1600)
 -->
<!-- Title: TAPSTimeFunction Pages: 1 -->
<svg width="114pt" height="246pt"
 viewBox="0.00 0.00 114.00 246.00" xmlns="http://www.w3.org/2000/svg" xmlns:xlink="http://www.w3.org/1999/xlink">
<g id="graph1" class="graph" transform="scale(1 1) rotate(0) translate(4 242)">
<title>TAPSTimeFunction</title>
<polygon fill="white" stroke="white" points="-4,5 -4,-242 111,-242 111,5 -4,5"/>
<!-- Node0 -->
<g id="node1" class="node"><title>Node0</title>
<polygon fill="#bfbfbf" stroke="black" points="2,-0.5 2,-21.5 104,-21.5 104,-0.5 2,-0.5"/>
<text text-anchor="middle" x="53" y="-8.5" font-family="Helvetica,sans-Serif" font-size="10.00">TAPSTimeFunction</text>
</g>
<!-- Node1 -->
<g id="node2" class="node"><title>Node1</title>
<a xlink:href="classant_1_1calibration_1_1gui_1_1_fit_gaus_pol0.html" target="_top" xlink:title="ant::calibration::gui\l::FitGausPol0">
<polygon fill="white" stroke="black" points="3.5,-59 3.5,-93 102.5,-93 102.5,-59 3.5,-59"/>
<text text-anchor="start" x="11.5" y="-80" font-family="Helvetica,sans-Serif" font-size="10.00">ant::calibration::gui</text>
<text text-anchor="middle" x="53" y="-67" font-family="Helvetica,sans-Serif" font-size="10.00">::FitGausPol0</text>
</a>
</g>
<!-- Node1&#45;&gt;Node0 -->
<g id="edge2" class="edge"><title>Node1&#45;&gt;Node0</title>
<path fill="none" stroke="midnightblue" d="M53,-48.6879C53,-39.2415 53,-29.1949 53,-21.8521"/>
<polygon fill="midnightblue" stroke="midnightblue" points="49.5001,-48.922 53,-58.922 56.5001,-48.922 49.5001,-48.922"/>
</g>
<!-- Node2 -->
<g id="node4" class="node"><title>Node2</title>
<a xlink:href="classant_1_1calibration_1_1gui_1_1_peaking_fit_function.html" target="_top" xlink:title="Fit functions describing peak shapes, like Gaus or Lorentz with optional background function...">
<polygon fill="white" stroke="black" points="-0.5,-131 -0.5,-165 106.5,-165 106.5,-131 -0.5,-131"/>
<text text-anchor="start" x="7.5" y="-152" font-family="Helvetica,sans-Serif" font-size="10.00">ant::calibration::gui</text>
<text text-anchor="middle" x="53" y="-139" font-family="Helvetica,sans-Serif" font-size="10.00">::PeakingFitFunction</text>
</a>
</g>
<!-- Node2&#45;&gt;Node1 -->
<g id="edge4" class="edge"><title>Node2&#45;&gt;Node1</title>
<path fill="none" stroke="midnightblue" d="M53,-120.719C53,-111.572 53,-101.625 53,-93.4407"/>
<polygon fill="midnightblue" stroke="midnightblue" points="49.5001,-120.937 53,-130.937 56.5001,-120.937 49.5001,-120.937"/>
</g>
<!-- Node3 -->
<g id="node6" class="node"><title>Node3</title>
<a xlink:href="classant_1_1calibration_1_1gui_1_1_fit_function.html" target="_top" xlink:title="ant::calibration::gui\l::FitFunction">
<polygon fill="white" stroke="black" points="3.5,-203 3.5,-237 102.5,-237 102.5,-203 3.5,-203"/>
<text text-anchor="start" x="11.5" y="-224" font-family="Helvetica,sans-Serif" font-size="10.00">ant::calibration::gui</text>
<text text-anchor="middle" x="53" y="-211" font-family="Helvetica,sans-Serif" font-size="10.00">::FitFunction</text>
</a>
</g>
<!-- Node3&#45;&gt;Node2 -->
<g id="edge6" class="edge"><title>Node3&#45;&gt;Node2</title>
<path fill="none" stroke="midnightblue" d="M53,-192.719C53,-183.572 53,-173.625 53,-165.441"/>
<polygon fill="midnightblue" stroke="midnightblue" points="49.5001,-192.937 53,-202.937 56.5001,-192.937 49.5001,-192.937"/>
</g>
</g>
</svg>
