<?xml version="1.0" encoding="UTF-8" standalone="no"?>
<!DOCTYPE svg PUBLIC "-//W3C//DTD SVG 1.1//EN"
 "http://www.w3.org/Graphics/SVG/1.1/DTD/svg11.dtd">
<!-- Generated by graphviz version 2.26.3 (20100126.1600)
 -->
<!-- Title: ant::calibration::gui::KnobsTF1::RangedParameterKnob Pages: 1 -->
<svg width="182pt" height="188pt"
 viewBox="0.00 0.00 182.00 188.00" xmlns="http://www.w3.org/2000/svg" xmlns:xlink="http://www.w3.org/1999/xlink">
<g id="graph1" class="graph" transform="scale(1 1) rotate(0) translate(4 184)">
<title>ant::calibration::gui::KnobsTF1::RangedParameterKnob</title>
<polygon fill="white" stroke="white" points="-4,5 -4,-184 179,-184 179,5 -4,5"/>
<!-- Node0 -->
<g id="node1" class="node"><title>Node0</title>
<polygon fill="#bfbfbf" stroke="black" points="-0.5,-1 -0.5,-35 174.5,-35 174.5,-1 -0.5,-1"/>
<text text-anchor="start" x="7.5" y="-22" font-family="Helvetica,sans-Serif" font-size="10.00">ant::calibration::gui</text>
<text text-anchor="middle" x="87" y="-9" font-family="Helvetica,sans-Serif" font-size="10.00">::KnobsTF1::RangedParameterKnob</text>
</g>
<!-- Node1 -->
<g id="node2" class="node"><title>Node1</title>
<a xlink:href="classant_1_1calibration_1_1gui_1_1_knobs_t_f1_1_1_parameter_knob.html" target="_top" xlink:title="ant::calibration::gui\l::KnobsTF1::ParameterKnob">
<polygon fill="white" stroke="black" points="16.5,-73 16.5,-107 157.5,-107 157.5,-73 16.5,-73"/>
<text text-anchor="start" x="24.5" y="-94" font-family="Helvetica,sans-Serif" font-size="10.00">ant::calibration::gui</text>
<text text-anchor="middle" x="87" y="-81" font-family="Helvetica,sans-Serif" font-size="10.00">::KnobsTF1::ParameterKnob</text>
</a>
</g>
<!-- Node1&#45;&gt;Node0 -->
<g id="edge2" class="edge"><title>Node1&#45;&gt;Node0</title>
<path fill="none" stroke="midnightblue" d="M87,-62.7193C87,-53.572 87,-43.6255 87,-35.4407"/>
<polygon fill="midnightblue" stroke="midnightblue" points="83.5001,-62.937 87,-72.937 90.5001,-62.937 83.5001,-62.937"/>
</g>
<!-- Node2 -->
<g id="node4" class="node"><title>Node2</title>
<a xlink:href="classant_1_1calibration_1_1gui_1_1_indicator_knob.html" target="_top" xlink:title="ant::calibration::gui\l::IndicatorKnob">
<polygon fill="white" stroke="black" points="37.5,-145 37.5,-179 136.5,-179 136.5,-145 37.5,-145"/>
<text text-anchor="start" x="45.5" y="-166" font-family="Helvetica,sans-Serif" font-size="10.00">ant::calibration::gui</text>
<text text-anchor="middle" x="87" y="-153" font-family="Helvetica,sans-Serif" font-size="10.00">::IndicatorKnob</text>
</a>
</g>
<!-- Node2&#45;&gt;Node1 -->
<g id="edge4" class="edge"><title>Node2&#45;&gt;Node1</title>
<path fill="none" stroke="midnightblue" d="M87,-134.719C87,-125.572 87,-115.625 87,-107.441"/>
<polygon fill="midnightblue" stroke="midnightblue" points="83.5001,-134.937 87,-144.937 90.5001,-134.937 83.5001,-134.937"/>
</g>
</g>
</svg>
