<?xml version="1.0" encoding="UTF-8" standalone="no"?>
<!DOCTYPE svg PUBLIC "-//W3C//DTD SVG 1.1//EN"
 "http://www.w3.org/Graphics/SVG/1.1/DTD/svg11.dtd">
<!-- Generated by graphviz version 2.26.3 (20100126.1600)
 -->
<!-- Title: ant::analysis::physics::CB_Energy Pages: 1 -->
<svg width="240pt" height="262pt"
 viewBox="0.00 0.00 240.00 262.00" xmlns="http://www.w3.org/2000/svg" xmlns:xlink="http://www.w3.org/1999/xlink">
<g id="graph1" class="graph" transform="scale(1 1) rotate(0) translate(4 258)">
<title>ant::analysis::physics::CB_Energy</title>
<polygon fill="white" stroke="white" points="-4,5 -4,-258 237,-258 237,5 -4,5"/>
<!-- Node2 -->
<g id="node1" class="node"><title>Node2</title>
<polygon fill="#bfbfbf" stroke="black" points="73,-1 73,-35 185,-35 185,-1 73,-1"/>
<text text-anchor="start" x="81" y="-22" font-family="Helvetica,sans-Serif" font-size="10.00">ant::analysis::physics</text>
<text text-anchor="middle" x="129" y="-9" font-family="Helvetica,sans-Serif" font-size="10.00">::CB_Energy</text>
</g>
<!-- Node3 -->
<g id="node2" class="node"><title>Node3</title>
<a xlink:href="classant_1_1analysis_1_1_physics.html" target="_top" xlink:title="ant::analysis::Physics">
<polygon fill="white" stroke="black" points="8.5,-86.5 8.5,-107.5 121.5,-107.5 121.5,-86.5 8.5,-86.5"/>
<text text-anchor="middle" x="65" y="-94.5" font-family="Helvetica,sans-Serif" font-size="10.00">ant::analysis::Physics</text>
</a>
</g>
<!-- Node3&#45;&gt;Node2 -->
<g id="edge2" class="edge"><title>Node3&#45;&gt;Node2</title>
<path fill="none" stroke="midnightblue" d="M80.0281,-78.4497C90.6475,-65.3414 104.776,-47.9015 115.128,-35.1236"/>
<polygon fill="midnightblue" stroke="midnightblue" points="77.2066,-76.3723 73.6313,-86.3457 82.6457,-80.7787 77.2066,-76.3723"/>
</g>
<!-- Node4 -->
<g id="node4" class="node"><title>Node4</title>
<a xlink:href="classant_1_1analysis_1_1_histogram_factory.html" target="_top" xlink:title="ant::analysis::Histogram\lFactory">
<polygon fill="white" stroke="black" points="-0.5,-159 -0.5,-193 122.5,-193 122.5,-159 -0.5,-159"/>
<text text-anchor="start" x="7.5" y="-180" font-family="Helvetica,sans-Serif" font-size="10.00">ant::analysis::Histogram</text>
<text text-anchor="middle" x="61" y="-167" font-family="Helvetica,sans-Serif" font-size="10.00">Factory</text>
</a>
</g>
<!-- Node4&#45;&gt;Node3 -->
<g id="edge4" class="edge"><title>Node4&#45;&gt;Node3</title>
<path fill="none" stroke="#9a32cd" stroke-dasharray="5,2" d="M62.3862,-148.623C63.1026,-134.473 63.9355,-118.024 64.465,-107.567"/>
<polygon fill="#9a32cd" stroke="#9a32cd" points="58.8782,-148.694 61.8679,-158.858 65.8692,-149.048 58.8782,-148.694"/>
<text text-anchor="middle" x="82" y="-130.5" font-family="Helvetica,sans-Serif" font-size="10.00"> HistFac</text>
</g>
<!-- Node5 -->
<g id="node6" class="node"><title>Node5</title>
<a xlink:href="classant_1_1_t_h2_c_b.html" target="_top" xlink:title="The TH2CB class. ">
<polygon fill="white" stroke="black" points="140.5,-86.5 140.5,-107.5 209.5,-107.5 209.5,-86.5 140.5,-86.5"/>
<text text-anchor="middle" x="175" y="-94.5" font-family="Helvetica,sans-Serif" font-size="10.00">ant::TH2CB</text>
</a>
</g>
<!-- Node5&#45;&gt;Node2 -->
<g id="edge6" class="edge"><title>Node5&#45;&gt;Node2</title>
<path fill="none" stroke="#9a32cd" stroke-dasharray="5,2" d="M163.76,-77.696C156.18,-64.6787 146.269,-47.6581 138.971,-35.1236"/>
<polygon fill="#9a32cd" stroke="#9a32cd" points="160.74,-79.4651 168.796,-86.3457 166.789,-75.9428 160.74,-79.4651"/>
<text text-anchor="middle" x="184.5" y="-58.5" font-family="Helvetica,sans-Serif" font-size="10.00"> h_cbdisplay</text>
</g>
<!-- Node6 -->
<g id="node8" class="node"><title>Node6</title>
<a xlink:href="classant_1_1_t_h2_crystals.html" target="_top" xlink:title="Base class for A2 Calorimeter display classes. ">
<polygon fill="white" stroke="black" points="140,-165.5 140,-186.5 232,-186.5 232,-165.5 140,-165.5"/>
<text text-anchor="middle" x="186" y="-173.5" font-family="Helvetica,sans-Serif" font-size="10.00">ant::TH2Crystals</text>
</a>
</g>
<!-- Node6&#45;&gt;Node5 -->
<g id="edge8" class="edge"><title>Node6&#45;&gt;Node5</title>
<path fill="none" stroke="midnightblue" d="M183.115,-155.284C180.992,-140.031 178.19,-119.907 176.495,-107.738"/>
<polygon fill="midnightblue" stroke="midnightblue" points="179.671,-155.924 184.516,-165.346 186.604,-154.959 179.671,-155.924"/>
</g>
<!-- Node7 -->
<g id="node10" class="node"><title>Node7</title>
<polygon fill="white" stroke="#bfbfbf" points="158.5,-232.5 158.5,-253.5 213.5,-253.5 213.5,-232.5 158.5,-232.5"/>
<text text-anchor="middle" x="186" y="-240.5" font-family="Helvetica,sans-Serif" font-size="10.00">TH2Poly</text>
</g>
<!-- Node7&#45;&gt;Node6 -->
<g id="edge10" class="edge"><title>Node7&#45;&gt;Node6</title>
<path fill="none" stroke="midnightblue" d="M186,-221.904C186,-210.127 186,-195.967 186,-186.517"/>
<polygon fill="midnightblue" stroke="midnightblue" points="182.5,-222.235 186,-232.235 189.5,-222.235 182.5,-222.235"/>
</g>
</g>
</svg>
