<?xml version="1.0" encoding="UTF-8" standalone="no"?>
<!DOCTYPE svg PUBLIC "-//W3C//DTD SVG 1.1//EN"
 "http://www.w3.org/Graphics/SVG/1.1/DTD/svg11.dtd">
<!-- Generated by graphviz version 2.26.3 (20100126.1600)
 -->
<!-- Title: ant::calibration::gui::CalCanvas Pages: 1 -->
<svg width="1212pt" height="321pt"
 viewBox="0.00 0.00 1212.00 321.00" xmlns="http://www.w3.org/2000/svg" xmlns:xlink="http://www.w3.org/1999/xlink">
<g id="graph1" class="graph" transform="scale(1 1) rotate(0) translate(4 317)">
<title>ant::calibration::gui::CalCanvas</title>
<polygon fill="white" stroke="white" points="-4,5 -4,-317 1209,-317 1209,5 -4,5"/>
<!-- Node3 -->
<g id="node1" class="node"><title>Node3</title>
<polygon fill="#bfbfbf" stroke="black" points="1104.5,-173 1104.5,-207 1203.5,-207 1203.5,-173 1104.5,-173"/>
<text text-anchor="start" x="1112.5" y="-194" font-family="Helvetica,sans-Serif" font-size="10.00">ant::calibration::gui</text>
<text text-anchor="middle" x="1154" y="-181" font-family="Helvetica,sans-Serif" font-size="10.00">::CalCanvas</text>
</g>
<!-- Node4 -->
<g id="node2" class="node"><title>Node4</title>
<polygon fill="white" stroke="#bfbfbf" points="906,-291.5 906,-312.5 962,-312.5 962,-291.5 906,-291.5"/>
<text text-anchor="middle" x="934" y="-299.5" font-family="Helvetica,sans-Serif" font-size="10.00">TCanvas</text>
</g>
<!-- Node4&#45;&gt;Node3 -->
<g id="edge2" class="edge"><title>Node4&#45;&gt;Node3</title>
<path fill="none" stroke="midnightblue" d="M972.535,-303.22C1004.94,-302.558 1051.38,-297.526 1086,-277 1114.03,-260.379 1134.82,-227.468 1145.62,-207.231"/>
<polygon fill="midnightblue" stroke="midnightblue" points="972.097,-299.723 962.122,-303.293 972.147,-306.723 972.097,-299.723"/>
</g>
<!-- Node5 -->
<g id="node4" class="node"><title>Node5</title>
<a xlink:href="classant_1_1calibration_1_1gui_1_1update__notify__traits.html" target="_top" xlink:title="ant::calibration::gui\l::update_notify_traits">
<polygon fill="white" stroke="black" points="464,-224 464,-258 572,-258 572,-224 464,-224"/>
<text text-anchor="start" x="472" y="-245" font-family="Helvetica,sans-Serif" font-size="10.00">ant::calibration::gui</text>
<text text-anchor="middle" x="518" y="-232" font-family="Helvetica,sans-Serif" font-size="10.00">::update_notify_traits</text>
</a>
</g>
<!-- Node5&#45;&gt;Node3 -->
<g id="edge4" class="edge"><title>Node5&#45;&gt;Node3</title>
<path fill="none" stroke="midnightblue" d="M582.25,-246.856C675.895,-254.157 855.155,-263.469 1006,-244 1042.46,-239.295 1051.52,-235.752 1086,-223 1098.06,-218.539 1110.85,-212.657 1122.05,-207.097"/>
<polygon fill="midnightblue" stroke="midnightblue" points="582.333,-243.352 572.086,-246.045 581.776,-250.329 582.333,-243.352"/>
</g>
<!-- Node7 -->
<g id="node8" class="node"><title>Node7</title>
<a xlink:href="classant_1_1calibration_1_1gui_1_1_indicator.html" target="_top" xlink:title="ant::calibration::gui\l::Indicator">
<polygon fill="white" stroke="black" points="672.5,-201 672.5,-235 771.5,-235 771.5,-201 672.5,-201"/>
<text text-anchor="start" x="680.5" y="-222" font-family="Helvetica,sans-Serif" font-size="10.00">ant::calibration::gui</text>
<text text-anchor="middle" x="722" y="-209" font-family="Helvetica,sans-Serif" font-size="10.00">::Indicator</text>
</a>
</g>
<!-- Node5&#45;&gt;Node7 -->
<g id="edge10" class="edge"><title>Node5&#45;&gt;Node7</title>
<path fill="none" stroke="midnightblue" d="M582.192,-233.763C611.246,-230.487 645.067,-226.674 672.166,-223.619"/>
<polygon fill="midnightblue" stroke="midnightblue" points="581.678,-230.298 572.133,-234.897 582.462,-237.254 581.678,-230.298"/>
</g>
<!-- Node6 -->
<g id="node6" class="node"><title>Node6</title>
<polygon fill="white" stroke="#bfbfbf" points="873,-201 873,-235 995,-235 995,-201 873,-201"/>
<text text-anchor="start" x="881" y="-222" font-family="Helvetica,sans-Serif" font-size="10.00">std::list&lt; ant::calibration</text>
<text text-anchor="middle" x="934" y="-209" font-family="Helvetica,sans-Serif" font-size="10.00">::gui::Indicator *&gt;</text>
</g>
<!-- Node6&#45;&gt;Node3 -->
<g id="edge6" class="edge"><title>Node6&#45;&gt;Node3</title>
<path fill="none" stroke="#9a32cd" stroke-dasharray="5,2" d="M1005.55,-208.894C1037.77,-204.793 1075.02,-200.052 1104.15,-196.344"/>
<polygon fill="#9a32cd" stroke="#9a32cd" points="1004.76,-205.466 995.282,-210.2 1005.64,-212.41 1004.76,-205.466"/>
<text text-anchor="middle" x="1055" y="-210" font-family="Helvetica,sans-Serif" font-size="10.00"> indicators</text>
</g>
<!-- Node7&#45;&gt;Node6 -->
<g id="edge8" class="edge"><title>Node7&#45;&gt;Node6</title>
<path fill="none" stroke="#9a32cd" stroke-dasharray="5,2" d="M781.912,-218C810.348,-218 844.278,-218 872.869,-218"/>
<polygon fill="#9a32cd" stroke="#9a32cd" points="781.705,-214.5 771.705,-218 781.705,-221.5 781.705,-214.5"/>
<text text-anchor="middle" x="822" y="-222" font-family="Helvetica,sans-Serif" font-size="10.00"> elements</text>
</g>
<!-- Node8 -->
<g id="node11" class="node"><title>Node8</title>
<polygon fill="white" stroke="#bfbfbf" points="875,-149 875,-183 993,-183 993,-149 875,-149"/>
<text text-anchor="start" x="883" y="-170" font-family="Helvetica,sans-Serif" font-size="10.00">std::stack&lt; FitFunction</text>
<text text-anchor="middle" x="934" y="-157" font-family="Helvetica,sans-Serif" font-size="10.00">::SavedState_t &gt;</text>
</g>
<!-- Node8&#45;&gt;Node3 -->
<g id="edge12" class="edge"><title>Node8&#45;&gt;Node3</title>
<path fill="none" stroke="#9a32cd" stroke-dasharray="5,2" d="M1003.2,-167.79C1029.25,-169.068 1059.07,-171.257 1086,-175 1091.99,-175.832 1098.23,-176.912 1104.4,-178.11"/>
<polygon fill="#9a32cd" stroke="#9a32cd" points="1003.19,-164.286 993.041,-167.327 1002.87,-171.279 1003.19,-164.286"/>
<text text-anchor="middle" x="1055" y="-179" font-family="Helvetica,sans-Serif" font-size="10.00"> UndoStack</text>
</g>
<!-- Node9 -->
<g id="node13" class="node"><title>Node9</title>
<a xlink:title="STL class. ">
<polygon fill="white" stroke="#bfbfbf" points="678.5,-155.5 678.5,-176.5 765.5,-176.5 765.5,-155.5 678.5,-155.5"/>
<text text-anchor="middle" x="722" y="-163.5" font-family="Helvetica,sans-Serif" font-size="10.00">std::vector&lt; T &gt;</text>
</a>
</g>
<!-- Node9&#45;&gt;Node8 -->
<g id="edge14" class="edge"><title>Node9&#45;&gt;Node8</title>
<path fill="none" stroke="#9a32cd" stroke-dasharray="5,2" d="M775.998,-166C806.145,-166 843.75,-166 874.711,-166"/>
<polygon fill="#9a32cd" stroke="#9a32cd" points="775.67,-162.5 765.669,-166 775.669,-169.5 775.67,-162.5"/>
<text text-anchor="middle" x="822" y="-170" font-family="Helvetica,sans-Serif" font-size="10.00"> elements</text>
</g>
<!-- Node10 -->
<g id="node15" class="node"><title>Node10</title>
<polygon fill="white" stroke="#bfbfbf" points="503.5,-155.5 503.5,-176.5 532.5,-176.5 532.5,-155.5 503.5,-155.5"/>
<text text-anchor="middle" x="518" y="-163.5" font-family="Helvetica,sans-Serif" font-size="10.00">T</text>
</g>
<!-- Node10&#45;&gt;Node9 -->
<g id="edge16" class="edge"><title>Node10&#45;&gt;Node9</title>
<path fill="none" stroke="#9a32cd" stroke-dasharray="5,2" d="M542.987,-166C576.622,-166 636.996,-166 678.249,-166"/>
<polygon fill="#9a32cd" stroke="#9a32cd" points="542.671,-162.5 532.671,-166 542.671,-169.5 542.671,-162.5"/>
<text text-anchor="middle" x="622" y="-170" font-family="Helvetica,sans-Serif" font-size="10.00"> elements</text>
</g>
<!-- Node11 -->
<g id="node17" class="node"><title>Node11</title>
<a xlink:href="structant_1_1calibration_1_1gui_1_1_cal_canvas_1_1axis__settings__t.html" target="_top" xlink:title="ant::calibration::gui\l::CalCanvas::axis_settings_t">
<polygon fill="white" stroke="black" points="862.5,-97 862.5,-131 1005.5,-131 1005.5,-97 862.5,-97"/>
<text text-anchor="start" x="870.5" y="-118" font-family="Helvetica,sans-Serif" font-size="10.00">ant::calibration::gui</text>
<text text-anchor="middle" x="934" y="-105" font-family="Helvetica,sans-Serif" font-size="10.00">::CalCanvas::axis_settings_t</text>
</a>
</g>
<!-- Node11&#45;&gt;Node3 -->
<g id="edge18" class="edge"><title>Node11&#45;&gt;Node3</title>
<path fill="none" stroke="#9a32cd" stroke-dasharray="5,2" d="M1015.42,-130.15C1038.62,-135.874 1063.65,-143.144 1086,-152 1100.21,-157.63 1115.12,-165.693 1127.35,-172.945"/>
<polygon fill="#9a32cd" stroke="#9a32cd" points="1016.14,-126.724 1005.6,-127.792 1014.51,-133.531 1016.14,-126.724"/>
<text text-anchor="middle" x="1055" y="-156" font-family="Helvetica,sans-Serif" font-size="10.00"> axis_settings</text>
</g>
<!-- Node12 -->
<g id="node19" class="node"><title>Node12</title>
<a xlink:href="classant_1_1calibration_1_1gui_1_1_fit_function.html" target="_top" xlink:title="ant::calibration::gui\l::FitFunction">
<polygon fill="white" stroke="black" points="884.5,-45 884.5,-79 983.5,-79 983.5,-45 884.5,-45"/>
<text text-anchor="start" x="892.5" y="-66" font-family="Helvetica,sans-Serif" font-size="10.00">ant::calibration::gui</text>
<text text-anchor="middle" x="934" y="-53" font-family="Helvetica,sans-Serif" font-size="10.00">::FitFunction</text>
</a>
</g>
<!-- Node12&#45;&gt;Node3 -->
<g id="edge20" class="edge"><title>Node12&#45;&gt;Node3</title>
<path fill="none" stroke="#9a32cd" stroke-dasharray="5,2" d="M993.484,-75.3161C1022.93,-83.6935 1058.05,-96.4928 1086,-115 1109.45,-130.526 1130.15,-155.942 1142.38,-172.82"/>
<polygon fill="#9a32cd" stroke="#9a32cd" points="994.306,-71.9122 983.736,-72.6427 992.454,-78.6629 994.306,-71.9122"/>
<text text-anchor="middle" x="1055" y="-119" font-family="Helvetica,sans-Serif" font-size="10.00"> func</text>
</g>
<!-- Node13 -->
<g id="node21" class="node"><title>Node13</title>
<polygon fill="white" stroke="#bfbfbf" points="662,-17 662,-51 782,-51 782,-17 662,-17"/>
<text text-anchor="start" x="670" y="-38" font-family="Helvetica,sans-Serif" font-size="10.00">std::list&lt; std::unique</text>
<text text-anchor="middle" x="722" y="-25" font-family="Helvetica,sans-Serif" font-size="10.00">_ptr&lt; IndicatorKnob &gt; &gt;</text>
</g>
<!-- Node13&#45;&gt;Node12 -->
<g id="edge22" class="edge"><title>Node13&#45;&gt;Node12</title>
<path fill="none" stroke="#9a32cd" stroke-dasharray="5,2" d="M792.231,-43.2759C822.404,-47.2609 856.956,-51.8244 884.396,-55.4485"/>
<polygon fill="#9a32cd" stroke="#9a32cd" points="792.556,-39.7884 782.184,-41.9488 791.639,-46.7281 792.556,-39.7884"/>
<text text-anchor="middle" x="822" y="-54" font-family="Helvetica,sans-Serif" font-size="10.00"> knobs</text>
</g>
<!-- Node14 -->
<g id="node23" class="node"><title>Node14</title>
<polygon fill="white" stroke="#bfbfbf" points="454,-11 454,-45 582,-45 582,-11 454,-11"/>
<text text-anchor="start" x="462" y="-32" font-family="Helvetica,sans-Serif" font-size="10.00">std::unique_ptr&lt; Indicator</text>
<text text-anchor="middle" x="518" y="-19" font-family="Helvetica,sans-Serif" font-size="10.00">Knob &gt;</text>
</g>
<!-- Node14&#45;&gt;Node13 -->
<g id="edge24" class="edge"><title>Node14&#45;&gt;Node13</title>
<path fill="none" stroke="#9a32cd" stroke-dasharray="5,2" d="M592.278,-30.1847C615.165,-30.8578 640.066,-31.5902 661.876,-32.2317"/>
<polygon fill="#9a32cd" stroke="#9a32cd" points="592.365,-26.6858 582.267,-29.8902 592.16,-33.6828 592.365,-26.6858"/>
<text text-anchor="middle" x="622" y="-36" font-family="Helvetica,sans-Serif" font-size="10.00"> elements</text>
</g>
<!-- Node15 -->
<g id="node25" class="node"><title>Node15</title>
<a xlink:href="classant_1_1calibration_1_1gui_1_1_indicator_knob.html" target="_top" xlink:title="ant::calibration::gui\l::IndicatorKnob">
<polygon fill="white" stroke="black" points="302.5,-11 302.5,-45 401.5,-45 401.5,-11 302.5,-11"/>
<text text-anchor="start" x="310.5" y="-32" font-family="Helvetica,sans-Serif" font-size="10.00">ant::calibration::gui</text>
<text text-anchor="middle" x="352" y="-19" font-family="Helvetica,sans-Serif" font-size="10.00">::IndicatorKnob</text>
</a>
</g>
<!-- Node15&#45;&gt;Node14 -->
<g id="edge26" class="edge"><title>Node15&#45;&gt;Node14</title>
<path fill="none" stroke="#9a32cd" stroke-dasharray="5,2" d="M411.984,-28C425.557,-28 440.022,-28 453.763,-28"/>
<polygon fill="#9a32cd" stroke="#9a32cd" points="411.806,-24.5001 401.805,-28 411.805,-31.5001 411.806,-24.5001"/>
<text text-anchor="middle" x="428" y="-32" font-family="Helvetica,sans-Serif" font-size="10.00"> ptr</text>
</g>
<!-- Node16 -->
<g id="node27" class="node"><title>Node16</title>
<a xlink:title="STL class. ">
<polygon fill="white" stroke="#bfbfbf" points="156,-61.5 156,-82.5 216,-82.5 216,-61.5 156,-61.5"/>
<text text-anchor="middle" x="186" y="-69.5" font-family="Helvetica,sans-Serif" font-size="10.00">std::string</text>
</a>
</g>
<!-- Node16&#45;&gt;Node12 -->
<g id="edge34" class="edge"><title>Node16&#45;&gt;Node12</title>
<path fill="none" stroke="#9a32cd" stroke-dasharray="5,2" d="M226.602,-75.4315C260.19,-77.9742 309.159,-81 352,-81 352,-81 352,-81 722,-81 777.799,-81 841.531,-74.3896 884.424,-68.967"/>
<polygon fill="#9a32cd" stroke="#9a32cd" points="226.506,-71.9135 216.264,-74.6274 225.963,-78.8925 226.506,-71.9135"/>
<text text-anchor="middle" x="518" y="-85" font-family="Helvetica,sans-Serif" font-size="10.00"> AdditionalFitArgs</text>
</g>
<!-- Node16&#45;&gt;Node15 -->
<g id="edge28" class="edge"><title>Node16&#45;&gt;Node15</title>
<path fill="none" stroke="#9a32cd" stroke-dasharray="5,2" d="M225.818,-61.4458C248.778,-55.3601 277.848,-47.6547 302.297,-41.1742"/>
<polygon fill="#9a32cd" stroke="#9a32cd" points="224.831,-58.0866 216.061,-64.0319 226.624,-64.8529 224.831,-58.0866"/>
<text text-anchor="middle" x="270" y="-57" font-family="Helvetica,sans-Serif" font-size="10.00"> name</text>
</g>
<!-- Node17 -->
<g id="node29" class="node"><title>Node17</title>
<a xlink:title="STL class. ">
<polygon fill="white" stroke="#bfbfbf" points="0.5,-55 0.5,-89 95.5,-89 95.5,-55 0.5,-55"/>
<text text-anchor="start" x="8.5" y="-76" font-family="Helvetica,sans-Serif" font-size="10.00">std::basic_string&lt;</text>
<text text-anchor="middle" x="48" y="-63" font-family="Helvetica,sans-Serif" font-size="10.00"> char &gt;</text>
</a>
</g>
<!-- Node17&#45;&gt;Node16 -->
<g id="edge30" class="edge"><title>Node17&#45;&gt;Node16</title>
<path fill="none" stroke="midnightblue" d="M106.346,-72C123.405,-72 141.354,-72 155.886,-72"/>
<polygon fill="midnightblue" stroke="midnightblue" points="105.878,-68.5001 95.8784,-72 105.878,-75.5001 105.878,-68.5001"/>
</g>
<!-- Node18 -->
<g id="node31" class="node"><title>Node18</title>
<a xlink:href="structant_1_1calibration_1_1gui_1_1_indicator_properties.html" target="_top" xlink:title="ant::calibration::gui\l::IndicatorProperties">
<polygon fill="white" stroke="black" points="134,-0 134,-34 238,-34 238,-0 134,-0"/>
<text text-anchor="start" x="142" y="-21" font-family="Helvetica,sans-Serif" font-size="10.00">ant::calibration::gui</text>
<text text-anchor="middle" x="186" y="-8" font-family="Helvetica,sans-Serif" font-size="10.00">::IndicatorProperties</text>
</a>
</g>
<!-- Node18&#45;&gt;Node15 -->
<g id="edge32" class="edge"><title>Node18&#45;&gt;Node15</title>
<path fill="none" stroke="#9a32cd" stroke-dasharray="5,2" d="M248.437,-16.3686C260.261,-16.6082 272.52,-17.1015 284,-18 289.948,-18.4655 296.167,-19.1307 302.323,-19.8997"/>
<polygon fill="#9a32cd" stroke="#9a32cd" points="248.239,-12.8654 238.189,-16.2196 248.137,-19.8647 248.239,-12.8654"/>
<text text-anchor="middle" x="270" y="-22" font-family="Helvetica,sans-Serif" font-size="10.00"> gui</text>
</g>
</g>
</svg>
