<?xml version="1.0" encoding="UTF-8" standalone="no"?>
<!DOCTYPE svg PUBLIC "-//W3C//DTD SVG 1.1//EN"
 "http://www.w3.org/Graphics/SVG/1.1/DTD/svg11.dtd">
<!-- Generated by graphviz version 2.26.3 (20100126.1600)
 -->
<!-- Title: ant::expconfig::setup::Setup_2014_EPT Pages: 1 -->
<svg width="620pt" height="146pt"
 viewBox="0.00 0.00 620.00 146.00" xmlns="http://www.w3.org/2000/svg" xmlns:xlink="http://www.w3.org/1999/xlink">
<g id="graph1" class="graph" transform="scale(1 1) rotate(0) translate(4 142)">
<title>ant::expconfig::setup::Setup_2014_EPT</title>
<polygon fill="white" stroke="white" points="-4,5 -4,-142 617,-142 617,5 -4,5"/>
<!-- Node0 -->
<g id="node1" class="node"><title>Node0</title>
<polygon fill="#bfbfbf" stroke="black" points="328,-52 328,-86 436,-86 436,-52 328,-52"/>
<text text-anchor="start" x="336" y="-73" font-family="Helvetica,sans-Serif" font-size="10.00">ant::expconfig::setup</text>
<text text-anchor="middle" x="382" y="-60" font-family="Helvetica,sans-Serif" font-size="10.00">::Setup_2014_EPT</text>
</g>
<!-- Node5 -->
<g id="node11" class="node"><title>Node5</title>
<a xlink:href="classant_1_1expconfig_1_1setup_1_1_setup__2014__07___e_p_t___prod.html" target="_top" xlink:title="Ant Setup for the July 2014 End Point Tagger beam time. ">
<polygon fill="white" stroke="black" points="472,-104 472,-138 612,-138 612,-104 472,-104"/>
<text text-anchor="start" x="480" y="-125" font-family="Helvetica,sans-Serif" font-size="10.00">ant::expconfig::setup</text>
<text text-anchor="middle" x="542" y="-112" font-family="Helvetica,sans-Serif" font-size="10.00">::Setup_2014_07_EPT_Prod</text>
</a>
</g>
<!-- Node0&#45;&gt;Node5 -->
<g id="edge10" class="edge"><title>Node0&#45;&gt;Node5</title>
<path fill="none" stroke="midnightblue" d="M444.096,-89.1812C459.096,-94.0562 474.981,-99.2189 489.492,-103.935"/>
<polygon fill="midnightblue" stroke="midnightblue" points="444.982,-85.7891 434.39,-86.0267 442.819,-92.4463 444.982,-85.7891"/>
</g>
<!-- Node6 -->
<g id="node13" class="node"><title>Node6</title>
<a xlink:href="classant_1_1expconfig_1_1setup_1_1_setup__2014__10___e_p_t___prod.html" target="_top" xlink:title="Ant Setup for the October 2014 End Point Tagger beam time. ">
<polygon fill="white" stroke="black" points="472,-52 472,-86 612,-86 612,-52 472,-52"/>
<text text-anchor="start" x="480" y="-73" font-family="Helvetica,sans-Serif" font-size="10.00">ant::expconfig::setup</text>
<text text-anchor="middle" x="542" y="-60" font-family="Helvetica,sans-Serif" font-size="10.00">::Setup_2014_10_EPT_Prod</text>
</a>
</g>
<!-- Node0&#45;&gt;Node6 -->
<g id="edge12" class="edge"><title>Node0&#45;&gt;Node6</title>
<path fill="none" stroke="midnightblue" d="M446.246,-69C454.626,-69 463.247,-69 471.72,-69"/>
<polygon fill="midnightblue" stroke="midnightblue" points="446.169,-65.5001 436.169,-69 446.169,-72.5001 446.169,-65.5001"/>
</g>
<!-- Node7 -->
<g id="node15" class="node"><title>Node7</title>
<a xlink:href="classant_1_1expconfig_1_1setup_1_1_setup__2014__12___e_p_t___prod.html" target="_top" xlink:title="Ant Setup for the December 2014 End Point Tagger beam time. ">
<polygon fill="white" stroke="black" points="472,-0 472,-34 612,-34 612,-0 472,-0"/>
<text text-anchor="start" x="480" y="-21" font-family="Helvetica,sans-Serif" font-size="10.00">ant::expconfig::setup</text>
<text text-anchor="middle" x="542" y="-8" font-family="Helvetica,sans-Serif" font-size="10.00">::Setup_2014_12_EPT_Prod</text>
</a>
</g>
<!-- Node0&#45;&gt;Node7 -->
<g id="edge14" class="edge"><title>Node0&#45;&gt;Node7</title>
<path fill="none" stroke="midnightblue" d="M444.096,-48.8188C459.096,-43.9438 474.981,-38.7811 489.492,-34.065"/>
<polygon fill="midnightblue" stroke="midnightblue" points="442.819,-45.5537 434.39,-51.9733 444.982,-52.2109 442.819,-45.5537"/>
</g>
<!-- Node1 -->
<g id="node2" class="node"><title>Node1</title>
<a xlink:href="classant_1_1expconfig_1_1_setup.html" target="_top" xlink:title="The Setup class serves as a base class for all known beamtime setup configurations. ">
<polygon fill="white" stroke="black" points="182,-58.5 182,-79.5 292,-79.5 292,-58.5 182,-58.5"/>
<text text-anchor="middle" x="237" y="-66.5" font-family="Helvetica,sans-Serif" font-size="10.00">ant::expconfig::Setup</text>
</a>
</g>
<!-- Node1&#45;&gt;Node0 -->
<g id="edge2" class="edge"><title>Node1&#45;&gt;Node0</title>
<path fill="none" stroke="midnightblue" d="M302.492,-69C310.983,-69 319.603,-69 327.88,-69"/>
<polygon fill="midnightblue" stroke="midnightblue" points="302.232,-65.5001 292.232,-69 302.232,-72.5001 302.232,-65.5001"/>
</g>
<!-- Node2 -->
<g id="node4" class="node"><title>Node2</title>
<a xlink:href="classant_1_1expconfig_1_1_setup__traits.html" target="_top" xlink:title="The Setup_traits class is the interface to the &quot;static&quot; experimental information. ...">
<polygon fill="white" stroke="black" points="18,-98 18,-132 128,-132 128,-98 18,-98"/>
<text text-anchor="start" x="26" y="-119" font-family="Helvetica,sans-Serif" font-size="10.00">ant::expconfig::Setup</text>
<text text-anchor="middle" x="73" y="-106" font-family="Helvetica,sans-Serif" font-size="10.00">_traits</text>
</a>
</g>
<!-- Node2&#45;&gt;Node1 -->
<g id="edge4" class="edge"><title>Node2&#45;&gt;Node1</title>
<path fill="none" stroke="midnightblue" d="M137.846,-96.8114C158.726,-90.9548 181.159,-84.6626 199.398,-79.547"/>
<polygon fill="midnightblue" stroke="midnightblue" points="136.749,-93.484 128.066,-99.5547 138.64,-100.224 136.749,-93.484"/>
</g>
<!-- Node3 -->
<g id="node6" class="node"><title>Node3</title>
<a xlink:href="classant_1_1_unpacker_acqu_config.html" target="_top" xlink:title="ant::UnpackerAcquConfig">
<polygon fill="white" stroke="black" points="8.5,-58.5 8.5,-79.5 137.5,-79.5 137.5,-58.5 8.5,-58.5"/>
<text text-anchor="middle" x="73" y="-66.5" font-family="Helvetica,sans-Serif" font-size="10.00">ant::UnpackerAcquConfig</text>
</a>
</g>
<!-- Node3&#45;&gt;Node1 -->
<g id="edge6" class="edge"><title>Node3&#45;&gt;Node1</title>
<path fill="none" stroke="midnightblue" d="M147.831,-69C159.307,-69 170.971,-69 181.916,-69"/>
<polygon fill="midnightblue" stroke="midnightblue" points="147.817,-65.5001 137.817,-69 147.817,-72.5001 147.817,-65.5001"/>
</g>
<!-- Node4 -->
<g id="node8" class="node"><title>Node4</title>
<a xlink:href="classant_1_1_unpacker_a2_geant_config.html" target="_top" xlink:title="The UnpackerA2GeantConfig class provides stuff the A2Geant unpacker needs. ">
<polygon fill="white" stroke="black" points="0.5,-18.5 0.5,-39.5 145.5,-39.5 145.5,-18.5 0.5,-18.5"/>
<text text-anchor="middle" x="73" y="-26.5" font-family="Helvetica,sans-Serif" font-size="10.00">ant::UnpackerA2GeantConfig</text>
</a>
</g>
<!-- Node4&#45;&gt;Node1 -->
<g id="edge8" class="edge"><title>Node4&#45;&gt;Node1</title>
<path fill="none" stroke="midnightblue" d="M125.935,-41.911C147.914,-47.2718 173.093,-53.413 193.914,-58.4913"/>
<polygon fill="midnightblue" stroke="midnightblue" points="126.634,-38.4788 116.089,-39.5095 124.975,-45.2795 126.634,-38.4788"/>
</g>
</g>
</svg>
