<?xml version="1.0" encoding="UTF-8" standalone="no"?>
<!DOCTYPE svg PUBLIC "-//W3C//DTD SVG 1.1//EN"
 "http://www.w3.org/Graphics/SVG/1.1/DTD/svg11.dtd">
<!-- Generated by graphviz version 2.26.3 (20100126.1600)
 -->
<!-- Title: ant::analysis::physics::scratch_sobotzik_Pi0Calib Pages: 1 -->
<svg width="908pt" height="335pt"
 viewBox="0.00 0.00 908.00 335.00" xmlns="http://www.w3.org/2000/svg" xmlns:xlink="http://www.w3.org/1999/xlink">
<g id="graph1" class="graph" transform="scale(1 1) rotate(0) translate(4 331)">
<title>ant::analysis::physics::scratch_sobotzik_Pi0Calib</title>
<polygon fill="white" stroke="white" points="-4,5 -4,-331 905,-331 905,5 -4,5"/>
<!-- Node2 -->
<g id="node1" class="node"><title>Node2</title>
<polygon fill="#bfbfbf" stroke="black" points="760.5,-155 760.5,-189 899.5,-189 899.5,-155 760.5,-155"/>
<text text-anchor="start" x="768.5" y="-176" font-family="Helvetica,sans-Serif" font-size="10.00">ant::analysis::physics</text>
<text text-anchor="middle" x="830" y="-163" font-family="Helvetica,sans-Serif" font-size="10.00">::scratch_sobotzik_Pi0Calib</text>
</g>
<!-- Node3 -->
<g id="node2" class="node"><title>Node3</title>
<a xlink:href="classant_1_1analysis_1_1_physics.html" target="_top" xlink:title="ant::analysis::Physics">
<polygon fill="white" stroke="black" points="498.5,-299.5 498.5,-320.5 611.5,-320.5 611.5,-299.5 498.5,-299.5"/>
<text text-anchor="middle" x="555" y="-307.5" font-family="Helvetica,sans-Serif" font-size="10.00">ant::analysis::Physics</text>
</a>
</g>
<!-- Node3&#45;&gt;Node2 -->
<g id="edge2" class="edge"><title>Node3&#45;&gt;Node2</title>
<path fill="none" stroke="midnightblue" d="M622.126,-305.326C659.458,-300.344 705.589,-290.086 742,-269 776.237,-249.173 804.587,-211.487 819.236,-189.378"/>
<polygon fill="midnightblue" stroke="midnightblue" points="621.341,-301.897 611.845,-306.596 622.199,-308.844 621.341,-301.897"/>
</g>
<!-- Node4 -->
<g id="node4" class="node"><title>Node4</title>
<a xlink:href="classant_1_1analysis_1_1_histogram_factory.html" target="_top" xlink:title="ant::analysis::Histogram\lFactory">
<polygon fill="white" stroke="black" points="278.5,-293 278.5,-327 401.5,-327 401.5,-293 278.5,-293"/>
<text text-anchor="start" x="286.5" y="-314" font-family="Helvetica,sans-Serif" font-size="10.00">ant::analysis::Histogram</text>
<text text-anchor="middle" x="340" y="-301" font-family="Helvetica,sans-Serif" font-size="10.00">Factory</text>
</a>
</g>
<!-- Node4&#45;&gt;Node3 -->
<g id="edge4" class="edge"><title>Node4&#45;&gt;Node3</title>
<path fill="none" stroke="#9a32cd" stroke-dasharray="5,2" d="M411.785,-310C439.9,-310 471.692,-310 498.167,-310"/>
<polygon fill="#9a32cd" stroke="#9a32cd" points="411.61,-306.5 401.61,-310 411.61,-313.5 411.61,-306.5"/>
<text text-anchor="middle" x="442" y="-314" font-family="Helvetica,sans-Serif" font-size="10.00"> HistFac</text>
</g>
<!-- Node5 -->
<g id="node6" class="node"><title>Node5</title>
<a xlink:href="classant_1_1interval.html" target="_top" xlink:title="ant::interval\&lt; double \&gt;">
<polygon fill="white" stroke="black" points="498,-259.5 498,-280.5 612,-280.5 612,-259.5 498,-259.5"/>
<text text-anchor="middle" x="555" y="-267.5" font-family="Helvetica,sans-Serif" font-size="10.00">ant::interval&lt; double &gt;</text>
</a>
</g>
<!-- Node5&#45;&gt;Node2 -->
<g id="edge6" class="edge"><title>Node5&#45;&gt;Node2</title>
<path fill="none" stroke="#9a32cd" stroke-dasharray="5,2" d="M622.333,-257.828C658.571,-250.106 703.586,-238.599 742,-223 764.25,-213.964 787.696,-200.136 804.787,-189.156"/>
<polygon fill="#9a32cd" stroke="#9a32cd" points="621.434,-254.441 612.358,-259.907 622.861,-261.293 621.434,-254.441"/>
<text text-anchor="middle" x="694" y="-256" font-family="Helvetica,sans-Serif" font-size="10.00"> CaloEnergy_Window</text>
</g>
<!-- Node6 -->
<g id="node8" class="node"><title>Node6</title>
<a xlink:href="classant_1_1analysis_1_1utils_1_1_trigger_simulation.html" target="_top" xlink:title="ant::analysis::utils\l::TriggerSimulation">
<polygon fill="white" stroke="black" points="506,-207 506,-241 604,-241 604,-207 506,-207"/>
<text text-anchor="start" x="514" y="-228" font-family="Helvetica,sans-Serif" font-size="10.00">ant::analysis::utils</text>
<text text-anchor="middle" x="555" y="-215" font-family="Helvetica,sans-Serif" font-size="10.00">::TriggerSimulation</text>
</a>
</g>
<!-- Node6&#45;&gt;Node2 -->
<g id="edge8" class="edge"><title>Node6&#45;&gt;Node2</title>
<path fill="none" stroke="#9a32cd" stroke-dasharray="5,2" d="M614.286,-212.995C651.065,-206.145 699.291,-197.122 742,-189 747.962,-187.866 754.149,-186.683 760.356,-185.493"/>
<polygon fill="#9a32cd" stroke="#9a32cd" points="613.421,-209.595 604.23,-214.866 614.702,-216.477 613.421,-209.595"/>
<text text-anchor="middle" x="694" y="-210" font-family="Helvetica,sans-Serif" font-size="10.00"> triggersimu</text>
</g>
<!-- Node7 -->
<g id="node10" class="node"><title>Node7</title>
<a xlink:href="classant_1_1analysis_1_1_prompt_random_1_1_switch.html" target="_top" xlink:title="ant::analysis::PromptRandom\l::Switch">
<polygon fill="white" stroke="black" points="482,-155 482,-189 628,-189 628,-155 482,-155"/>
<text text-anchor="start" x="490" y="-176" font-family="Helvetica,sans-Serif" font-size="10.00">ant::analysis::PromptRandom</text>
<text text-anchor="middle" x="555" y="-163" font-family="Helvetica,sans-Serif" font-size="10.00">::Switch</text>
</a>
</g>
<!-- Node7&#45;&gt;Node2 -->
<g id="edge10" class="edge"><title>Node7&#45;&gt;Node2</title>
<path fill="none" stroke="#9a32cd" stroke-dasharray="5,2" d="M638.583,-172C677.466,-172 723.183,-172 760.187,-172"/>
<polygon fill="#9a32cd" stroke="#9a32cd" points="638.334,-168.5 628.334,-172 638.334,-175.5 638.334,-168.5"/>
<text text-anchor="middle" x="694" y="-176" font-family="Helvetica,sans-Serif" font-size="10.00"> promptrandom</text>
</g>
<!-- Node8 -->
<g id="node12" class="node"><title>Node8</title>
<a xlink:href="classant_1_1_piecewise_interval.html" target="_top" xlink:title="ant::PiecewiseInterval\l\&lt; double \&gt;">
<polygon fill="white" stroke="black" points="283.5,-155 283.5,-189 396.5,-189 396.5,-155 283.5,-155"/>
<text text-anchor="start" x="291.5" y="-176" font-family="Helvetica,sans-Serif" font-size="10.00">ant::PiecewiseInterval</text>
<text text-anchor="middle" x="340" y="-163" font-family="Helvetica,sans-Serif" font-size="10.00">&lt; double &gt;</text>
</a>
</g>
<!-- Node8&#45;&gt;Node7 -->
<g id="edge12" class="edge"><title>Node8&#45;&gt;Node7</title>
<path fill="none" stroke="#9a32cd" stroke-dasharray="5,2" d="M407.063,-172C430.744,-172 457.489,-172 481.662,-172"/>
<polygon fill="#9a32cd" stroke="#9a32cd" points="406.77,-168.5 396.77,-172 406.77,-175.5 406.77,-168.5"/>
<text text-anchor="middle" x="442" y="-189" font-family="Helvetica,sans-Serif" font-size="10.00"> promptw</text>
<text text-anchor="middle" x="442" y="-176" font-family="Helvetica,sans-Serif" font-size="10.00">randomw</text>
</g>
<!-- Node9 -->
<g id="node14" class="node"><title>Node9</title>
<a xlink:title="STL class. ">
<polygon fill="white" stroke="#bfbfbf" points="136,-155 136,-189 240,-189 240,-155 136,-155"/>
<text text-anchor="start" x="144" y="-176" font-family="Helvetica,sans-Serif" font-size="10.00">std::vector&lt; interval</text>
<text text-anchor="middle" x="188" y="-163" font-family="Helvetica,sans-Serif" font-size="10.00">&lt; double &gt; &gt;</text>
</a>
</g>
<!-- Node9&#45;&gt;Node8 -->
<g id="edge14" class="edge"><title>Node9&#45;&gt;Node8</title>
<path fill="none" stroke="midnightblue" d="M250.594,-172C261.474,-172 272.732,-172 283.438,-172"/>
<polygon fill="midnightblue" stroke="midnightblue" points="250.31,-168.5 240.31,-172 250.31,-175.5 250.31,-168.5"/>
</g>
<!-- Node10 -->
<g id="node16" class="node"><title>Node10</title>
<polygon fill="white" stroke="#bfbfbf" points="13.5,-161.5 13.5,-182.5 42.5,-182.5 42.5,-161.5 13.5,-161.5"/>
<text text-anchor="middle" x="28" y="-169.5" font-family="Helvetica,sans-Serif" font-size="10.00">T</text>
</g>
<!-- Node10&#45;&gt;Node9 -->
<g id="edge16" class="edge"><title>Node10&#45;&gt;Node9</title>
<path fill="none" stroke="#9a32cd" stroke-dasharray="5,2" d="M52.9381,-172C74.9917,-172 107.888,-172 135.693,-172"/>
<polygon fill="#9a32cd" stroke="#9a32cd" points="52.7657,-168.5 42.7656,-172 52.7656,-175.5 52.7657,-168.5"/>
<text text-anchor="middle" x="96" y="-176" font-family="Helvetica,sans-Serif" font-size="10.00"> elements</text>
</g>
<!-- Node11 -->
<g id="node18" class="node"><title>Node11</title>
<polygon fill="white" stroke="#bfbfbf" points="486.5,-66.5 486.5,-87.5 623.5,-87.5 623.5,-66.5 486.5,-66.5"/>
<text text-anchor="middle" x="555" y="-74.5" font-family="Helvetica,sans-Serif" font-size="10.00">std::vector&lt; ant::TH2CB *&gt;</text>
</g>
<!-- Node11&#45;&gt;Node2 -->
<g id="edge18" class="edge"><title>Node11&#45;&gt;Node2</title>
<path fill="none" stroke="#9a32cd" stroke-dasharray="5,2" d="M633.911,-67.3523C668.399,-66.2677 708.529,-69.3965 742,-84 776.26,-98.9476 804.403,-133.88 819.051,-154.961"/>
<polygon fill="#9a32cd" stroke="#9a32cd" points="633.712,-63.8576 623.874,-67.7897 634.017,-70.8509 633.712,-63.8576"/>
<text text-anchor="middle" x="694" y="-101" font-family="Helvetica,sans-Serif" font-size="10.00"> h_cbs_ClusterSize0</text>
<text text-anchor="middle" x="694" y="-88" font-family="Helvetica,sans-Serif" font-size="10.00">h_cbs_ClusterSize3</text>
</g>
<!-- Node12 -->
<g id="node20" class="node"><title>Node12</title>
<a xlink:href="classant_1_1_t_h2_c_b.html" target="_top" xlink:title="The TH2CB class. ">
<polygon fill="white" stroke="black" points="305.5,-95.5 305.5,-116.5 374.5,-116.5 374.5,-95.5 305.5,-95.5"/>
<text text-anchor="middle" x="340" y="-103.5" font-family="Helvetica,sans-Serif" font-size="10.00">ant::TH2CB</text>
</a>
</g>
<!-- Node12&#45;&gt;Node2 -->
<g id="edge26" class="edge"><title>Node12&#45;&gt;Node2</title>
<path fill="none" stroke="#9a32cd" stroke-dasharray="5,2" d="M384.782,-108.843C441.554,-112.758 542.356,-120.747 628,-133 672.196,-139.323 721.393,-148.769 760.169,-156.782"/>
<polygon fill="#9a32cd" stroke="#9a32cd" points="384.921,-105.345 374.707,-108.159 384.447,-112.329 384.921,-105.345"/>
<text text-anchor="middle" x="555" y="-137" font-family="Helvetica,sans-Serif" font-size="10.00"> h_cb</text>
</g>
<!-- Node12&#45;&gt;Node11 -->
<g id="edge20" class="edge"><title>Node12&#45;&gt;Node11</title>
<path fill="none" stroke="#9a32cd" stroke-dasharray="5,2" d="M384.5,-99.9976C413.864,-96.0369 452.919,-90.7691 486.24,-86.2745"/>
<polygon fill="#9a32cd" stroke="#9a32cd" points="383.986,-96.5352 374.543,-101.341 384.922,-103.472 383.986,-96.5352"/>
<text text-anchor="middle" x="442" y="-98" font-family="Helvetica,sans-Serif" font-size="10.00"> elements</text>
</g>
<!-- Node13 -->
<g id="node22" class="node"><title>Node13</title>
<a xlink:href="classant_1_1_t_h2_crystals.html" target="_top" xlink:title="Base class for A2 Calorimeter display classes. ">
<polygon fill="white" stroke="black" points="142,-95.5 142,-116.5 234,-116.5 234,-95.5 142,-95.5"/>
<text text-anchor="middle" x="188" y="-103.5" font-family="Helvetica,sans-Serif" font-size="10.00">ant::TH2Crystals</text>
</a>
</g>
<!-- Node13&#45;&gt;Node12 -->
<g id="edge22" class="edge"><title>Node13&#45;&gt;Node12</title>
<path fill="none" stroke="midnightblue" d="M244.183,-106C264.65,-106 287.179,-106 305.246,-106"/>
<polygon fill="midnightblue" stroke="midnightblue" points="244.018,-102.5 234.018,-106 244.017,-109.5 244.018,-102.5"/>
</g>
<!-- Node14 -->
<g id="node24" class="node"><title>Node14</title>
<polygon fill="white" stroke="#bfbfbf" points="0.5,-95.5 0.5,-116.5 55.5,-116.5 55.5,-95.5 0.5,-95.5"/>
<text text-anchor="middle" x="28" y="-103.5" font-family="Helvetica,sans-Serif" font-size="10.00">TH2Poly</text>
</g>
<!-- Node14&#45;&gt;Node13 -->
<g id="edge24" class="edge"><title>Node14&#45;&gt;Node13</title>
<path fill="none" stroke="midnightblue" d="M65.7871,-106C88.5342,-106 117.662,-106 141.776,-106"/>
<polygon fill="midnightblue" stroke="midnightblue" points="65.505,-102.5 55.505,-106 65.5049,-109.5 65.505,-102.5"/>
</g>
<!-- Node15 -->
<g id="node27" class="node"><title>Node15</title>
<a xlink:href="structant_1_1analysis_1_1physics_1_1scratch__sobotzik___pi0_calib_1_1_my_tree.html" target="_top" xlink:title="ant::analysis::physics\l::scratch_sobotzik_Pi0Calib\l::MyTree">
<polygon fill="white" stroke="black" points="485.5,-0.5 485.5,-47.5 624.5,-47.5 624.5,-0.5 485.5,-0.5"/>
<text text-anchor="start" x="493.5" y="-34.5" font-family="Helvetica,sans-Serif" font-size="10.00">ant::analysis::physics</text>
<text text-anchor="start" x="493.5" y="-21.5" font-family="Helvetica,sans-Serif" font-size="10.00">::scratch_sobotzik_Pi0Calib</text>
<text text-anchor="middle" x="555" y="-8.5" font-family="Helvetica,sans-Serif" font-size="10.00">::MyTree</text>
</a>
</g>
<!-- Node15&#45;&gt;Node2 -->
<g id="edge28" class="edge"><title>Node15&#45;&gt;Node2</title>
<path fill="none" stroke="#9a32cd" stroke-dasharray="5,2" d="M634.867,-21.3704C669.894,-23.5471 710.182,-30.8394 742,-50 783.389,-74.924 810.914,-127.537 822.999,-154.804"/>
<polygon fill="#9a32cd" stroke="#9a32cd" points="634.821,-17.864 624.661,-20.8688 634.478,-24.8556 634.821,-17.864"/>
<text text-anchor="middle" x="694" y="-54" font-family="Helvetica,sans-Serif" font-size="10.00"> t</text>
</g>
<!-- Node16 -->
<g id="node29" class="node"><title>Node16</title>
<a xlink:href="classant_1_1_wrap_t_tree.html" target="_top" xlink:title="The WrapTTree struct simplifies TTree handling in physics classes. ">
<polygon fill="white" stroke="black" points="297.5,-13.5 297.5,-34.5 382.5,-34.5 382.5,-13.5 297.5,-13.5"/>
<text text-anchor="middle" x="340" y="-21.5" font-family="Helvetica,sans-Serif" font-size="10.00">ant::WrapTTree</text>
</a>
</g>
<!-- Node16&#45;&gt;Node15 -->
<g id="edge30" class="edge"><title>Node16&#45;&gt;Node15</title>
<path fill="none" stroke="midnightblue" d="M393.051,-24C420.874,-24 455.309,-24 485.264,-24"/>
<polygon fill="midnightblue" stroke="midnightblue" points="392.734,-20.5001 382.734,-24 392.734,-27.5001 392.734,-20.5001"/>
</g>
</g>
</svg>
