<?xml version="1.0" encoding="UTF-8" standalone="no"?>
<!DOCTYPE svg PUBLIC "-//W3C//DTD SVG 1.1//EN"
 "http://www.w3.org/Graphics/SVG/1.1/DTD/svg11.dtd">
<!-- Generated by graphviz version 2.26.3 (20100126.1600)
 -->
<!-- Title: ant::Calibration::PhysicsModule Pages: 1 -->
<svg width="836pt" height="330pt"
 viewBox="0.00 0.00 836.00 330.00" xmlns="http://www.w3.org/2000/svg" xmlns:xlink="http://www.w3.org/1999/xlink">
<g id="graph1" class="graph" transform="scale(1 1) rotate(0) translate(4 326)">
<title>ant::Calibration::PhysicsModule</title>
<polygon fill="white" stroke="white" points="-4,5 -4,-326 833,-326 833,5 -4,5"/>
<!-- Node0 -->
<g id="node1" class="node"><title>Node0</title>
<polygon fill="#bfbfbf" stroke="black" points="180,-152 180,-186 304,-186 304,-152 180,-152"/>
<text text-anchor="start" x="188" y="-173" font-family="Helvetica,sans-Serif" font-size="10.00">ant::Calibration::Physics</text>
<text text-anchor="middle" x="242" y="-160" font-family="Helvetica,sans-Serif" font-size="10.00">Module</text>
</g>
<!-- Node2 -->
<g id="node5" class="node"><title>Node2</title>
<a xlink:href="classant_1_1calibration_1_1_c_b___source_calib.html" target="_top" xlink:title="ant::calibration::CB\l_SourceCalib">
<polygon fill="white" stroke="black" points="349.5,-175 349.5,-209 450.5,-209 450.5,-175 349.5,-175"/>
<text text-anchor="start" x="357.5" y="-196" font-family="Helvetica,sans-Serif" font-size="10.00">ant::calibration::CB</text>
<text text-anchor="middle" x="400" y="-183" font-family="Helvetica,sans-Serif" font-size="10.00">_SourceCalib</text>
</a>
</g>
<!-- Node0&#45;&gt;Node2 -->
<g id="edge4" class="edge"><title>Node0&#45;&gt;Node2</title>
<path fill="none" stroke="midnightblue" d="M314.63,-179.573C326.302,-181.272 338.161,-182.998 349.179,-184.602"/>
<polygon fill="midnightblue" stroke="midnightblue" points="314.846,-176.067 304.446,-178.09 313.837,-182.994 314.846,-176.067"/>
</g>
<!-- Node3 -->
<g id="node7" class="node"><title>Node3</title>
<a xlink:href="classant_1_1_calibration_1_1_module.html" target="_top" xlink:title="The Module class is typically used for calibrations. ">
<polygon fill="white" stroke="black" points="340,-135.5 340,-156.5 460,-156.5 460,-135.5 340,-135.5"/>
<text text-anchor="middle" x="400" y="-143.5" font-family="Helvetica,sans-Serif" font-size="10.00">ant::Calibration::Module</text>
</a>
</g>
<!-- Node0&#45;&gt;Node3 -->
<g id="edge6" class="edge"><title>Node0&#45;&gt;Node3</title>
<path fill="none" stroke="midnightblue" d="M314.366,-158.466C322.878,-157.227 331.493,-155.973 339.813,-154.761"/>
<polygon fill="midnightblue" stroke="midnightblue" points="313.837,-155.006 304.446,-159.91 314.846,-161.933 313.837,-155.006"/>
</g>
<!-- Node1 -->
<g id="node2" class="node"><title>Node1</title>
<a xlink:href="classant_1_1_calibration_1_1_base_module.html" target="_top" xlink:title="The BaseModule class provides a name for identification. ">
<polygon fill="white" stroke="black" points="0.5,-158.5 0.5,-179.5 143.5,-179.5 143.5,-158.5 0.5,-158.5"/>
<text text-anchor="middle" x="72" y="-166.5" font-family="Helvetica,sans-Serif" font-size="10.00">ant::Calibration::BaseModule</text>
</a>
</g>
<!-- Node1&#45;&gt;Node0 -->
<g id="edge2" class="edge"><title>Node1&#45;&gt;Node0</title>
<path fill="none" stroke="midnightblue" d="M153.851,-169C162.617,-169 171.429,-169 179.911,-169"/>
<polygon fill="midnightblue" stroke="midnightblue" points="153.603,-165.5 143.603,-169 153.603,-172.5 153.603,-165.5"/>
</g>
<!-- Node4 -->
<g id="node9" class="node"><title>Node4</title>
<a xlink:href="classant_1_1calibration_1_1_c_b___time_walk.html" target="_top" xlink:title="ant::calibration::CB\l_TimeWalk">
<polygon fill="white" stroke="black" points="513.5,-221 513.5,-255 614.5,-255 614.5,-221 513.5,-221"/>
<text text-anchor="start" x="521.5" y="-242" font-family="Helvetica,sans-Serif" font-size="10.00">ant::calibration::CB</text>
<text text-anchor="middle" x="564" y="-229" font-family="Helvetica,sans-Serif" font-size="10.00">_TimeWalk</text>
</a>
</g>
<!-- Node3&#45;&gt;Node4 -->
<g id="edge8" class="edge"><title>Node3&#45;&gt;Node4</title>
<path fill="none" stroke="midnightblue" d="M451.427,-160.802C454.423,-162.373 457.308,-164.101 460,-166 481.216,-180.963 475.115,-196.58 496,-212 501.287,-215.904 507.232,-219.294 513.35,-222.219"/>
<polygon fill="midnightblue" stroke="midnightblue" points="452.736,-157.551 442.19,-156.542 449.805,-163.908 452.736,-157.551"/>
</g>
<!-- Node5 -->
<g id="node11" class="node"><title>Node5</title>
<a xlink:href="classant_1_1calibration_1_1_energy.html" target="_top" xlink:title="ant::calibration::Energy">
<polygon fill="white" stroke="black" points="505.5,-181.5 505.5,-202.5 622.5,-202.5 622.5,-181.5 505.5,-181.5"/>
<text text-anchor="middle" x="564" y="-189.5" font-family="Helvetica,sans-Serif" font-size="10.00">ant::calibration::Energy</text>
</a>
</g>
<!-- Node3&#45;&gt;Node5 -->
<g id="edge10" class="edge"><title>Node3&#45;&gt;Node5</title>
<path fill="none" stroke="midnightblue" d="M447.341,-159.278C472.52,-166.341 503.042,-174.902 526.55,-181.496"/>
<polygon fill="midnightblue" stroke="midnightblue" points="448.199,-155.884 437.625,-156.553 446.308,-162.624 448.199,-155.884"/>
</g>
<!-- Node11 -->
<g id="node23" class="node"><title>Node11</title>
<a xlink:href="classant_1_1calibration_1_1_p_i_d___phi_angle.html" target="_top" xlink:title="ant::calibration::PID\l_PhiAngle">
<polygon fill="white" stroke="black" points="512,-129 512,-163 616,-163 616,-129 512,-129"/>
<text text-anchor="start" x="520" y="-150" font-family="Helvetica,sans-Serif" font-size="10.00">ant::calibration::PID</text>
<text text-anchor="middle" x="564" y="-137" font-family="Helvetica,sans-Serif" font-size="10.00">_PhiAngle</text>
</a>
</g>
<!-- Node3&#45;&gt;Node11 -->
<g id="edge22" class="edge"><title>Node3&#45;&gt;Node11</title>
<path fill="none" stroke="midnightblue" d="M470.23,-146C484.239,-146 498.716,-146 511.979,-146"/>
<polygon fill="midnightblue" stroke="midnightblue" points="470.136,-142.5 460.136,-146 470.136,-149.5 470.136,-142.5"/>
</g>
<!-- Node12 -->
<g id="node25" class="node"><title>Node12</title>
<a xlink:href="classant_1_1calibration_1_1_t_a_p_s___to_f.html" target="_top" xlink:title="ant::calibration::TAPS_ToF">
<polygon fill="white" stroke="black" points="496.5,-89.5 496.5,-110.5 631.5,-110.5 631.5,-89.5 496.5,-89.5"/>
<text text-anchor="middle" x="564" y="-97.5" font-family="Helvetica,sans-Serif" font-size="10.00">ant::calibration::TAPS_ToF</text>
</a>
</g>
<!-- Node3&#45;&gt;Node12 -->
<g id="edge24" class="edge"><title>Node3&#45;&gt;Node12</title>
<path fill="none" stroke="midnightblue" d="M447.341,-132.722C472.52,-125.659 503.042,-117.098 526.55,-110.504"/>
<polygon fill="midnightblue" stroke="midnightblue" points="446.308,-129.376 437.625,-135.447 448.199,-136.116 446.308,-129.376"/>
</g>
<!-- Node13 -->
<g id="node27" class="node"><title>Node13</title>
<a xlink:href="classant_1_1calibration_1_1_time.html" target="_top" xlink:title="ant::calibration::Time">
<polygon fill="white" stroke="black" points="510,-40.5 510,-61.5 618,-61.5 618,-40.5 510,-40.5"/>
<text text-anchor="middle" x="564" y="-48.5" font-family="Helvetica,sans-Serif" font-size="10.00">ant::calibration::Time</text>
</a>
</g>
<!-- Node3&#45;&gt;Node13 -->
<g id="edge26" class="edge"><title>Node3&#45;&gt;Node13</title>
<path fill="none" stroke="midnightblue" d="M421.411,-129.438C440.36,-115.237 469.104,-94.7881 496,-80 508.596,-73.0745 523.186,-66.658 535.615,-61.6308"/>
<polygon fill="midnightblue" stroke="midnightblue" points="419.292,-126.652 413.435,-135.481 423.52,-132.231 419.292,-126.652"/>
</g>
<!-- Node6 -->
<g id="node13" class="node"><title>Node6</title>
<a xlink:href="classant_1_1calibration_1_1_c_b___energy.html" target="_top" xlink:title="ant::calibration::CB\l_Energy">
<polygon fill="white" stroke="black" points="697.5,-288 697.5,-322 798.5,-322 798.5,-288 697.5,-288"/>
<text text-anchor="start" x="705.5" y="-309" font-family="Helvetica,sans-Serif" font-size="10.00">ant::calibration::CB</text>
<text text-anchor="middle" x="748" y="-296" font-family="Helvetica,sans-Serif" font-size="10.00">_Energy</text>
</a>
</g>
<!-- Node5&#45;&gt;Node6 -->
<g id="edge12" class="edge"><title>Node5&#45;&gt;Node6</title>
<path fill="none" stroke="midnightblue" d="M625.491,-207.415C627.77,-208.813 629.952,-210.337 632,-212 658.245,-233.306 642.058,-257.327 668,-279 676.406,-286.022 686.752,-291.162 697.182,-294.919"/>
<polygon fill="midnightblue" stroke="midnightblue" points="626.784,-204.142 616.298,-202.628 623.551,-210.351 626.784,-204.142"/>
</g>
<!-- Node7 -->
<g id="node15" class="node"><title>Node7</title>
<a xlink:href="classant_1_1calibration_1_1_p_i_d___energy.html" target="_top" xlink:title="ant::calibration::PID\l_Energy">
<polygon fill="white" stroke="black" points="696,-236 696,-270 800,-270 800,-236 696,-236"/>
<text text-anchor="start" x="704" y="-257" font-family="Helvetica,sans-Serif" font-size="10.00">ant::calibration::PID</text>
<text text-anchor="middle" x="748" y="-244" font-family="Helvetica,sans-Serif" font-size="10.00">_Energy</text>
</a>
</g>
<!-- Node5&#45;&gt;Node7 -->
<g id="edge14" class="edge"><title>Node5&#45;&gt;Node7</title>
<path fill="none" stroke="midnightblue" d="M612.345,-205.514C618.986,-207.575 625.687,-209.764 632,-212 648.339,-217.787 651.745,-220.983 668,-227 676.902,-230.295 686.441,-233.593 695.72,-236.68"/>
<polygon fill="midnightblue" stroke="midnightblue" points="613.299,-202.145 602.713,-202.595 611.269,-208.845 613.299,-202.145"/>
</g>
<!-- Node8 -->
<g id="node17" class="node"><title>Node8</title>
<a xlink:href="classant_1_1calibration_1_1_t_a_p_s___energy.html" target="_top" xlink:title="ant::calibration::TAPS\l_Energy">
<polygon fill="white" stroke="black" points="691.5,-184 691.5,-218 804.5,-218 804.5,-184 691.5,-184"/>
<text text-anchor="start" x="699.5" y="-205" font-family="Helvetica,sans-Serif" font-size="10.00">ant::calibration::TAPS</text>
<text text-anchor="middle" x="748" y="-192" font-family="Helvetica,sans-Serif" font-size="10.00">_Energy</text>
</a>
</g>
<!-- Node5&#45;&gt;Node8 -->
<g id="edge16" class="edge"><title>Node5&#45;&gt;Node8</title>
<path fill="none" stroke="midnightblue" d="M632.953,-195.373C652.223,-196.315 672.935,-197.328 691.401,-198.232"/>
<polygon fill="midnightblue" stroke="midnightblue" points="632.884,-191.865 622.725,-194.872 632.542,-198.857 632.884,-191.865"/>
</g>
<!-- Node9 -->
<g id="node19" class="node"><title>Node9</title>
<a xlink:href="classant_1_1calibration_1_1_t_a_p_s___short_energy.html" target="_top" xlink:title="ant::calibration::TAPS\l_ShortEnergy">
<polygon fill="white" stroke="black" points="691.5,-132 691.5,-166 804.5,-166 804.5,-132 691.5,-132"/>
<text text-anchor="start" x="699.5" y="-153" font-family="Helvetica,sans-Serif" font-size="10.00">ant::calibration::TAPS</text>
<text text-anchor="middle" x="748" y="-140" font-family="Helvetica,sans-Serif" font-size="10.00">_ShortEnergy</text>
</a>
</g>
<!-- Node5&#45;&gt;Node9 -->
<g id="edge18" class="edge"><title>Node5&#45;&gt;Node9</title>
<path fill="none" stroke="midnightblue" d="M618.885,-179.174C641.72,-173.837 668.22,-167.644 691.248,-162.263"/>
<polygon fill="midnightblue" stroke="midnightblue" points="617.953,-175.797 609.011,-181.481 619.546,-182.613 617.953,-175.797"/>
</g>
<!-- Node10 -->
<g id="node21" class="node"><title>Node10</title>
<a xlink:href="classant_1_1calibration_1_1_t_a_p_s_veto___energy.html" target="_top" xlink:title="ant::calibration::TAPSVeto\l_Energy">
<polygon fill="white" stroke="black" points="681.5,-80 681.5,-114 814.5,-114 814.5,-80 681.5,-80"/>
<text text-anchor="start" x="689.5" y="-101" font-family="Helvetica,sans-Serif" font-size="10.00">ant::calibration::TAPSVeto</text>
<text text-anchor="middle" x="748" y="-88" font-family="Helvetica,sans-Serif" font-size="10.00">_Energy</text>
</a>
</g>
<!-- Node5&#45;&gt;Node10 -->
<g id="edge20" class="edge"><title>Node5&#45;&gt;Node10</title>
<path fill="none" stroke="midnightblue" d="M623.36,-177.2C626.377,-175.636 629.28,-173.908 632,-172 654.125,-156.484 646.096,-138.827 668,-123 672.617,-119.664 677.683,-116.742 682.956,-114.183"/>
<polygon fill="midnightblue" stroke="midnightblue" points="621.704,-174.108 614.038,-181.421 624.591,-180.485 621.704,-174.108"/>
</g>
<!-- Node14 -->
<g id="node29" class="node"><title>Node14</title>
<a xlink:href="classant_1_1calibration_1_1_t_a_p_s___time.html" target="_top" xlink:title="ant::calibration::TAPS_Time">
<polygon fill="white" stroke="black" points="678,-40.5 678,-61.5 818,-61.5 818,-40.5 678,-40.5"/>
<text text-anchor="middle" x="748" y="-48.5" font-family="Helvetica,sans-Serif" font-size="10.00">ant::calibration::TAPS_Time</text>
</a>
</g>
<!-- Node13&#45;&gt;Node14 -->
<g id="edge28" class="edge"><title>Node13&#45;&gt;Node14</title>
<path fill="none" stroke="midnightblue" d="M628.489,-51C644.429,-51 661.583,-51 677.781,-51"/>
<polygon fill="midnightblue" stroke="midnightblue" points="628.211,-47.5001 618.211,-51 628.211,-54.5001 628.211,-47.5001"/>
</g>
<!-- Node15 -->
<g id="node31" class="node"><title>Node15</title>
<a xlink:href="classant_1_1calibration_1_1_t_a_p_s_veto___time.html" target="_top" xlink:title="ant::calibration::TAPSVeto_Time">
<polygon fill="white" stroke="black" points="668,-0.5 668,-21.5 828,-21.5 828,-0.5 668,-0.5"/>
<text text-anchor="middle" x="748" y="-8.5" font-family="Helvetica,sans-Serif" font-size="10.00">ant::calibration::TAPSVeto_Time</text>
</a>
</g>
<!-- Node13&#45;&gt;Node15 -->
<g id="edge30" class="edge"><title>Node13&#45;&gt;Node15</title>
<path fill="none" stroke="midnightblue" d="M622.393,-38.3059C647.286,-32.8944 675.984,-26.6557 699.66,-21.5087"/>
<polygon fill="midnightblue" stroke="midnightblue" points="621.372,-34.946 612.344,-40.4905 622.859,-41.7862 621.372,-34.946"/>
</g>
</g>
</svg>
