<?xml version="1.0" encoding="UTF-8" standalone="no"?>
<!DOCTYPE svg PUBLIC "-//W3C//DTD SVG 1.1//EN"
 "http://www.w3.org/Graphics/SVG/1.1/DTD/svg11.dtd">
<!-- Generated by graphviz version 2.26.3 (20100126.1600)
 -->
<!-- Title: ant::calibration::Time::TheGUI Pages: 1 -->
<svg width="116pt" height="116pt"
 viewBox="0.00 0.00 116.00 116.00" xmlns="http://www.w3.org/2000/svg" xmlns:xlink="http://www.w3.org/1999/xlink">
<g id="graph1" class="graph" transform="scale(1 1) rotate(0) translate(4 112)">
<title>ant::calibration::Time::TheGUI</title>
<polygon fill="white" stroke="white" points="-4,5 -4,-112 113,-112 113,5 -4,5"/>
<!-- Node0 -->
<g id="node1" class="node"><title>Node0</title>
<polygon fill="#bfbfbf" stroke="black" points="0,-1 0,-35 108,-35 108,-1 0,-1"/>
<text text-anchor="start" x="8" y="-22" font-family="Helvetica,sans-Serif" font-size="10.00">ant::calibration::Time</text>
<text text-anchor="middle" x="54" y="-9" font-family="Helvetica,sans-Serif" font-size="10.00">::TheGUI</text>
</g>
<!-- Node1 -->
<g id="node2" class="node"><title>Node1</title>
<a xlink:href="classant_1_1calibration_1_1gui_1_1_calib_module__traits.html" target="_top" xlink:title="ant::calibration::gui\l::CalibModule_traits">
<polygon fill="white" stroke="black" points="2,-73 2,-107 106,-107 106,-73 2,-73"/>
<text text-anchor="start" x="10" y="-94" font-family="Helvetica,sans-Serif" font-size="10.00">ant::calibration::gui</text>
<text text-anchor="middle" x="54" y="-81" font-family="Helvetica,sans-Serif" font-size="10.00">::CalibModule_traits</text>
</a>
</g>
<!-- Node1&#45;&gt;Node0 -->
<g id="edge2" class="edge"><title>Node1&#45;&gt;Node0</title>
<path fill="none" stroke="midnightblue" d="M54,-62.7193C54,-53.572 54,-43.6255 54,-35.4407"/>
<polygon fill="midnightblue" stroke="midnightblue" points="50.5001,-62.937 54,-72.937 57.5001,-62.937 50.5001,-62.937"/>
</g>
</g>
</svg>
