<?xml version="1.0" encoding="UTF-8" standalone="no"?>
<!DOCTYPE svg PUBLIC "-//W3C//DTD SVG 1.1//EN"
 "http://www.w3.org/Graphics/SVG/1.1/DTD/svg11.dtd">
<!-- Generated by graphviz version 2.26.3 (20100126.1600)
 -->
<!-- Title: ant::calibration::gui::KnobsTF1::FixedRangeKnob Pages: 1 -->
<svg width="156pt" height="188pt"
 viewBox="0.00 0.00 156.00 188.00" xmlns="http://www.w3.org/2000/svg" xmlns:xlink="http://www.w3.org/1999/xlink">
<g id="graph1" class="graph" transform="scale(1 1) rotate(0) translate(4 184)">
<title>ant::calibration::gui::KnobsTF1::FixedRangeKnob</title>
<polygon fill="white" stroke="white" points="-4,5 -4,-184 153,-184 153,5 -4,5"/>
<!-- Node0 -->
<g id="node1" class="node"><title>Node0</title>
<polygon fill="#bfbfbf" stroke="black" points="-0.5,-1 -0.5,-35 148.5,-35 148.5,-1 -0.5,-1"/>
<text text-anchor="start" x="7.5" y="-22" font-family="Helvetica,sans-Serif" font-size="10.00">ant::calibration::gui</text>
<text text-anchor="middle" x="74" y="-9" font-family="Helvetica,sans-Serif" font-size="10.00">::KnobsTF1::FixedRangeKnob</text>
</g>
<!-- Node1 -->
<g id="node2" class="node"><title>Node1</title>
<a xlink:href="classant_1_1calibration_1_1gui_1_1_knobs_t_f1_1_1_range_knob.html" target="_top" xlink:title="ant::calibration::gui\l::KnobsTF1::RangeKnob">
<polygon fill="white" stroke="black" points="11.5,-73 11.5,-107 136.5,-107 136.5,-73 11.5,-73"/>
<text text-anchor="start" x="19.5" y="-94" font-family="Helvetica,sans-Serif" font-size="10.00">ant::calibration::gui</text>
<text text-anchor="middle" x="74" y="-81" font-family="Helvetica,sans-Serif" font-size="10.00">::KnobsTF1::RangeKnob</text>
</a>
</g>
<!-- Node1&#45;&gt;Node0 -->
<g id="edge2" class="edge"><title>Node1&#45;&gt;Node0</title>
<path fill="none" stroke="midnightblue" d="M74,-62.7193C74,-53.572 74,-43.6255 74,-35.4407"/>
<polygon fill="midnightblue" stroke="midnightblue" points="70.5001,-62.937 74,-72.937 77.5001,-62.937 70.5001,-62.937"/>
</g>
<!-- Node2 -->
<g id="node4" class="node"><title>Node2</title>
<a xlink:href="classant_1_1calibration_1_1gui_1_1_indicator_knob.html" target="_top" xlink:title="ant::calibration::gui\l::IndicatorKnob">
<polygon fill="white" stroke="black" points="24.5,-145 24.5,-179 123.5,-179 123.5,-145 24.5,-145"/>
<text text-anchor="start" x="32.5" y="-166" font-family="Helvetica,sans-Serif" font-size="10.00">ant::calibration::gui</text>
<text text-anchor="middle" x="74" y="-153" font-family="Helvetica,sans-Serif" font-size="10.00">::IndicatorKnob</text>
</a>
</g>
<!-- Node2&#45;&gt;Node1 -->
<g id="edge4" class="edge"><title>Node2&#45;&gt;Node1</title>
<path fill="none" stroke="midnightblue" d="M74,-134.719C74,-125.572 74,-115.625 74,-107.441"/>
<polygon fill="midnightblue" stroke="midnightblue" points="70.5001,-134.937 74,-144.937 77.5001,-134.937 70.5001,-134.937"/>
</g>
</g>
</svg>
