<?xml version="1.0" encoding="UTF-8" standalone="no"?>
<!DOCTYPE svg PUBLIC "-//W3C//DTD SVG 1.1//EN"
 "http://www.w3.org/Graphics/SVG/1.1/DTD/svg11.dtd">
<!-- Generated by graphviz version 2.26.3 (20100126.1600)
 -->
<!-- Title: ant::analysis::physics::DetectionEffciencyBase_t&lt; WrapTree &gt; Pages: 1 -->
<svg width="170pt" height="186pt"
 viewBox="0.00 0.00 170.00 186.00" xmlns="http://www.w3.org/2000/svg" xmlns:xlink="http://www.w3.org/1999/xlink">
<g id="graph1" class="graph" transform="scale(1 1) rotate(0) translate(4 182)">
<title>ant::analysis::physics::DetectionEffciencyBase_t&lt; WrapTree &gt;</title>
<polygon fill="white" stroke="white" points="-4,5 -4,-182 167,-182 167,5 -4,5"/>
<!-- Node0 -->
<g id="node1" class="node"><title>Node0</title>
<polygon fill="#bfbfbf" stroke="black" points="17,-0.5 17,-47.5 145,-47.5 145,-0.5 17,-0.5"/>
<text text-anchor="start" x="25" y="-34.5" font-family="Helvetica,sans-Serif" font-size="10.00">ant::analysis::physics</text>
<text text-anchor="start" x="25" y="-21.5" font-family="Helvetica,sans-Serif" font-size="10.00">::DetectionEffciencyBase</text>
<text text-anchor="middle" x="81" y="-8.5" font-family="Helvetica,sans-Serif" font-size="10.00">_t&lt; WrapTree &gt;</text>
</g>
<!-- Node1 -->
<g id="node2" class="node"><title>Node1</title>
<a xlink:href="classant_1_1analysis_1_1physics_1_1_tree_plotter_base__t.html" target="_top" xlink:title="ant::analysis::physics\l::TreePlotterBase_t\&lt; WrapTree \&gt;">
<polygon fill="white" stroke="black" points="0,-85 0,-119 162,-119 162,-85 0,-85"/>
<text text-anchor="start" x="8" y="-106" font-family="Helvetica,sans-Serif" font-size="10.00">ant::analysis::physics</text>
<text text-anchor="middle" x="81" y="-93" font-family="Helvetica,sans-Serif" font-size="10.00">::TreePlotterBase_t&lt; WrapTree &gt;</text>
</a>
</g>
<!-- Node1&#45;&gt;Node0 -->
<g id="edge2" class="edge"><title>Node1&#45;&gt;Node0</title>
<path fill="none" stroke="midnightblue" d="M81,-74.5793C81,-65.8339 81,-56.2342 81,-47.77"/>
<polygon fill="midnightblue" stroke="midnightblue" points="77.5001,-74.6892 81,-84.6893 84.5001,-74.6893 77.5001,-74.6892"/>
</g>
<!-- Node2 -->
<g id="node4" class="node"><title>Node2</title>
<a xlink:href="classant_1_1analysis_1_1_plotter.html" target="_top" xlink:title="ant::analysis::Plotter">
<polygon fill="white" stroke="black" points="27.5,-156.5 27.5,-177.5 134.5,-177.5 134.5,-156.5 27.5,-156.5"/>
<text text-anchor="middle" x="81" y="-164.5" font-family="Helvetica,sans-Serif" font-size="10.00">ant::analysis::Plotter</text>
</a>
</g>
<!-- Node2&#45;&gt;Node1 -->
<g id="edge4" class="edge"><title>Node2&#45;&gt;Node1</title>
<path fill="none" stroke="midnightblue" d="M81,-146.131C81,-137.405 81,-127.391 81,-119.11"/>
<polygon fill="midnightblue" stroke="midnightblue" points="77.5001,-146.267 81,-156.267 84.5001,-146.267 77.5001,-146.267"/>
</g>
</g>
</svg>
