<?xml version="1.0" encoding="UTF-8" standalone="no"?>
<!DOCTYPE svg PUBLIC "-//W3C//DTD SVG 1.1//EN"
 "http://www.w3.org/Graphics/SVG/1.1/DTD/svg11.dtd">
<!-- Generated by graphviz version 2.26.3 (20100126.1600)
 -->
<!-- Title: ant::analysis::utils::PullsWriter&lt; AddWrapTTree &gt; Pages: 1 -->
<svg width="162pt" height="240pt"
 viewBox="0.00 0.00 162.00 240.00" xmlns="http://www.w3.org/2000/svg" xmlns:xlink="http://www.w3.org/1999/xlink">
<g id="graph1" class="graph" transform="scale(1 1) rotate(0) translate(4 236)">
<title>ant::analysis::utils::PullsWriter&lt; AddWrapTTree &gt;</title>
<polygon fill="white" stroke="white" points="-4,5 -4,-236 159,-236 159,5 -4,5"/>
<!-- Node1 -->
<g id="node1" class="node"><title>Node1</title>
<polygon fill="#bfbfbf" stroke="black" points="-0.5,-1 -0.5,-35 154.5,-35 154.5,-1 -0.5,-1"/>
<text text-anchor="start" x="7.5" y="-22" font-family="Helvetica,sans-Serif" font-size="10.00">ant::analysis::utils</text>
<text text-anchor="middle" x="77" y="-9" font-family="Helvetica,sans-Serif" font-size="10.00">::PullsWriter&lt; AddWrapTTree &gt;</text>
</g>
<!-- Node2 -->
<g id="node2" class="node"><title>Node2</title>
<a xlink:href="structant_1_1analysis_1_1utils_1_1_pulls_writer_1_1_pull_tree__t.html" target="_top" xlink:title="ant::analysis::utils\l::PullsWriter\&lt; AddWrapTTree\l \&gt;::PullTree_t">
<polygon fill="white" stroke="black" points="4,-124.5 4,-171.5 150,-171.5 150,-124.5 4,-124.5"/>
<text text-anchor="start" x="12" y="-158.5" font-family="Helvetica,sans-Serif" font-size="10.00">ant::analysis::utils</text>
<text text-anchor="start" x="12" y="-145.5" font-family="Helvetica,sans-Serif" font-size="10.00">::PullsWriter&lt; AddWrapTTree</text>
<text text-anchor="middle" x="77" y="-132.5" font-family="Helvetica,sans-Serif" font-size="10.00"> &gt;::PullTree_t</text>
</a>
</g>
<!-- Node2&#45;&gt;Node1 -->
<g id="edge2" class="edge"><title>Node2&#45;&gt;Node1</title>
<path fill="none" stroke="#9a32cd" stroke-dasharray="5,2" d="M77,-114.165C77,-88.8152 77,-55.1807 77,-35.1456"/>
<polygon fill="#9a32cd" stroke="#9a32cd" points="73.5001,-114.458 77,-124.458 80.5001,-114.458 73.5001,-114.458"/>
<text text-anchor="middle" x="106.5" y="-97" font-family="Helvetica,sans-Serif" font-size="10.00"> proton_cb</text>
<text text-anchor="middle" x="106.5" y="-84" font-family="Helvetica,sans-Serif" font-size="10.00">proton_taps</text>
<text text-anchor="middle" x="106.5" y="-71" font-family="Helvetica,sans-Serif" font-size="10.00">photons_taps</text>
<text text-anchor="middle" x="106.5" y="-58" font-family="Helvetica,sans-Serif" font-size="10.00">photons_cb</text>
</g>
<!-- Node3 -->
<g id="node4" class="node"><title>Node3</title>
<polygon fill="white" stroke="#bfbfbf" points="35.5,-210.5 35.5,-231.5 118.5,-231.5 118.5,-210.5 35.5,-210.5"/>
<text text-anchor="middle" x="77" y="-218.5" font-family="Helvetica,sans-Serif" font-size="10.00">AddWrapTTree</text>
</g>
<!-- Node3&#45;&gt;Node2 -->
<g id="edge4" class="edge"><title>Node3&#45;&gt;Node2</title>
<path fill="none" stroke="midnightblue" d="M77,-200.053C77,-191.23 77,-180.915 77,-171.805"/>
<polygon fill="midnightblue" stroke="midnightblue" points="73.5001,-200.229 77,-210.229 80.5001,-200.229 73.5001,-200.229"/>
</g>
</g>
</svg>
