<?xml version="1.0" encoding="UTF-8" standalone="no"?>
<!DOCTYPE svg PUBLIC "-//W3C//DTD SVG 1.1//EN"
 "http://www.w3.org/Graphics/SVG/1.1/DTD/svg11.dtd">
<!-- Generated by graphviz version 2.26.3 (20100126.1600)
 -->
<!-- Title: ant::calibration::PID_Energy Pages: 1 -->
<svg width="1152pt" height="273pt"
 viewBox="0.00 0.00 1152.00 273.00" xmlns="http://www.w3.org/2000/svg" xmlns:xlink="http://www.w3.org/1999/xlink">
<g id="graph1" class="graph" transform="scale(1 1) rotate(0) translate(4 269)">
<title>ant::calibration::PID_Energy</title>
<polygon fill="white" stroke="white" points="-4,5 -4,-269 1149,-269 1149,5 -4,5"/>
<!-- Node9 -->
<g id="node1" class="node"><title>Node9</title>
<polygon fill="#bfbfbf" stroke="black" points="1040,-45 1040,-79 1144,-79 1144,-45 1040,-45"/>
<text text-anchor="start" x="1048" y="-66" font-family="Helvetica,sans-Serif" font-size="10.00">ant::calibration::PID</text>
<text text-anchor="middle" x="1092" y="-53" font-family="Helvetica,sans-Serif" font-size="10.00">_Energy</text>
</g>
<!-- Node10 -->
<g id="node2" class="node"><title>Node10</title>
<a xlink:href="classant_1_1calibration_1_1_energy.html" target="_top" xlink:title="ant::calibration::Energy">
<polygon fill="white" stroke="black" points="884.5,-90.5 884.5,-111.5 1001.5,-111.5 1001.5,-90.5 884.5,-90.5"/>
<text text-anchor="middle" x="943" y="-98.5" font-family="Helvetica,sans-Serif" font-size="10.00">ant::calibration::Energy</text>
</a>
</g>
<!-- Node10&#45;&gt;Node9 -->
<g id="edge2" class="edge"><title>Node10&#45;&gt;Node9</title>
<path fill="none" stroke="midnightblue" d="M993.415,-87.8041C1008.38,-83.8871 1024.8,-79.5899 1039.87,-75.645"/>
<polygon fill="midnightblue" stroke="midnightblue" points="992.109,-84.5279 983.322,-90.446 993.882,-91.2998 992.109,-84.5279"/>
</g>
<!-- Node11 -->
<g id="node4" class="node"><title>Node11</title>
<a xlink:href="classant_1_1_calibration_1_1_module.html" target="_top" xlink:title="The Module class is typically used for calibrations. ">
<polygon fill="white" stroke="black" points="606,-90.5 606,-111.5 726,-111.5 726,-90.5 606,-90.5"/>
<text text-anchor="middle" x="666" y="-98.5" font-family="Helvetica,sans-Serif" font-size="10.00">ant::Calibration::Module</text>
</a>
</g>
<!-- Node11&#45;&gt;Node10 -->
<g id="edge4" class="edge"><title>Node11&#45;&gt;Node10</title>
<path fill="none" stroke="midnightblue" d="M736.259,-101C782.074,-101 841.169,-101 884.438,-101"/>
<polygon fill="midnightblue" stroke="midnightblue" points="736.105,-97.5001 726.105,-101 736.105,-104.5 736.105,-97.5001"/>
</g>
<!-- Node12 -->
<g id="node6" class="node"><title>Node12</title>
<a xlink:href="classant_1_1_calibration_1_1_physics_module.html" target="_top" xlink:title="The PhysicsModule class gives the modules the ability to create histograms from events as well as fit...">
<polygon fill="white" stroke="black" points="390,-56 390,-90 514,-90 514,-56 390,-56"/>
<text text-anchor="start" x="398" y="-77" font-family="Helvetica,sans-Serif" font-size="10.00">ant::Calibration::Physics</text>
<text text-anchor="middle" x="452" y="-64" font-family="Helvetica,sans-Serif" font-size="10.00">Module</text>
</a>
</g>
<!-- Node12&#45;&gt;Node11 -->
<g id="edge6" class="edge"><title>Node12&#45;&gt;Node11</title>
<path fill="none" stroke="midnightblue" d="M524.188,-82.4451C550.737,-85.9189 580.496,-89.8126 605.872,-93.1328"/>
<polygon fill="midnightblue" stroke="midnightblue" points="524.555,-78.9634 514.185,-81.1364 523.647,-85.9042 524.555,-78.9634"/>
</g>
<!-- Node13 -->
<g id="node8" class="node"><title>Node13</title>
<a xlink:href="classant_1_1_calibration_1_1_base_module.html" target="_top" xlink:title="The BaseModule class provides a name for identification. ">
<polygon fill="white" stroke="black" points="134.5,-62.5 134.5,-83.5 277.5,-83.5 277.5,-62.5 134.5,-62.5"/>
<text text-anchor="middle" x="206" y="-70.5" font-family="Helvetica,sans-Serif" font-size="10.00">ant::Calibration::BaseModule</text>
</a>
</g>
<!-- Node13&#45;&gt;Node12 -->
<g id="edge8" class="edge"><title>Node13&#45;&gt;Node12</title>
<path fill="none" stroke="midnightblue" d="M287.956,-73C321.139,-73 358.823,-73 389.698,-73"/>
<polygon fill="midnightblue" stroke="midnightblue" points="287.815,-69.5001 277.815,-73 287.815,-76.5001 287.815,-69.5001"/>
</g>
<!-- Node14 -->
<g id="node10" class="node"><title>Node14</title>
<a xlink:href="structant_1_1_updateable__traits.html" target="_top" xlink:title="The Updateable_traits class used by the UpdateableManager. ">
<polygon fill="white" stroke="black" points="395.5,-108.5 395.5,-129.5 508.5,-129.5 508.5,-108.5 395.5,-108.5"/>
<text text-anchor="middle" x="452" y="-116.5" font-family="Helvetica,sans-Serif" font-size="10.00">ant::Updateable_traits</text>
</a>
</g>
<!-- Node14&#45;&gt;Node11 -->
<g id="edge10" class="edge"><title>Node14&#45;&gt;Node11</title>
<path fill="none" stroke="midnightblue" d="M518.568,-113.401C546.453,-111.055 578.633,-108.349 605.801,-106.063"/>
<polygon fill="midnightblue" stroke="midnightblue" points="518.177,-109.921 508.506,-114.247 518.764,-116.897 518.177,-109.921"/>
</g>
<!-- Node15 -->
<g id="node12" class="node"><title>Node15</title>
<a xlink:href="structant_1_1_reconstruct_hook_1_1_detector_read_hits.html" target="_top" xlink:title="The DetectorReadHits struct instances are applied before hit matching. ">
<polygon fill="white" stroke="black" points="609.5,-38 609.5,-72 722.5,-72 722.5,-38 609.5,-38"/>
<text text-anchor="start" x="617.5" y="-59" font-family="Helvetica,sans-Serif" font-size="10.00">ant::ReconstructHook</text>
<text text-anchor="middle" x="666" y="-46" font-family="Helvetica,sans-Serif" font-size="10.00">::DetectorReadHits</text>
</a>
</g>
<!-- Node15&#45;&gt;Node10 -->
<g id="edge12" class="edge"><title>Node15&#45;&gt;Node10</title>
<path fill="none" stroke="midnightblue" d="M732.661,-66.07C778.946,-73.7563 840.032,-83.9007 884.443,-91.2758"/>
<polygon fill="midnightblue" stroke="midnightblue" points="733.162,-62.6054 722.724,-64.4198 732.015,-69.5108 733.162,-62.6054"/>
</g>
<!-- Node16 -->
<g id="node14" class="node"><title>Node16</title>
<a xlink:href="structant_1_1_reconstruct_hook_1_1_base.html" target="_top" xlink:title="The Base struct just defines some useful types. ">
<polygon fill="white" stroke="black" points="395.5,-0 395.5,-34 508.5,-34 508.5,-0 395.5,-0"/>
<text text-anchor="start" x="403.5" y="-21" font-family="Helvetica,sans-Serif" font-size="10.00">ant::ReconstructHook</text>
<text text-anchor="middle" x="452" y="-8" font-family="Helvetica,sans-Serif" font-size="10.00">::Base</text>
</a>
</g>
<!-- Node16&#45;&gt;Node15 -->
<g id="edge14" class="edge"><title>Node16&#45;&gt;Node15</title>
<path fill="none" stroke="midnightblue" d="M518.569,-28.8207C547.618,-33.979 581.329,-39.9649 609.177,-44.9099"/>
<polygon fill="midnightblue" stroke="midnightblue" points="518.964,-25.3361 508.506,-27.0338 517.74,-32.2283 518.964,-25.3361"/>
</g>
<!-- Node22 -->
<g id="node27" class="node"><title>Node22</title>
<a xlink:href="structant_1_1_reconstruct_hook_1_1_event_data.html" target="_top" xlink:title="The EventData struct instances are applied after candidate building. ">
<polygon fill="white" stroke="black" points="752.5,-2 752.5,-36 865.5,-36 865.5,-2 752.5,-2"/>
<text text-anchor="start" x="760.5" y="-23" font-family="Helvetica,sans-Serif" font-size="10.00">ant::ReconstructHook</text>
<text text-anchor="middle" x="809" y="-10" font-family="Helvetica,sans-Serif" font-size="10.00">::EventData</text>
</a>
</g>
<!-- Node16&#45;&gt;Node22 -->
<g id="edge30" class="edge"><title>Node16&#45;&gt;Node22</title>
<path fill="none" stroke="midnightblue" d="M518.647,-17.3734C585.987,-17.7506 688.9,-18.3272 752.402,-18.6829"/>
<polygon fill="midnightblue" stroke="midnightblue" points="518.587,-13.8731 508.568,-17.3169 518.548,-20.873 518.587,-13.8731"/>
</g>
<!-- Node17 -->
<g id="node16" class="node"><title>Node17</title>
<a xlink:href="structant_1_1calibration_1_1_calib_type.html" target="_top" xlink:title="The CalibType struct stores the data for the Updateable interface and for the GUI. ">
<polygon fill="white" stroke="black" points="386.5,-157.5 386.5,-178.5 517.5,-178.5 517.5,-157.5 386.5,-157.5"/>
<text text-anchor="middle" x="452" y="-165.5" font-family="Helvetica,sans-Serif" font-size="10.00">ant::calibration::CalibType</text>
</a>
</g>
<!-- Node17&#45;&gt;Node10 -->
<g id="edge16" class="edge"><title>Node17&#45;&gt;Node10</title>
<path fill="none" stroke="#9a32cd" stroke-dasharray="5,2" d="M527.875,-159.498C611.029,-149.898 748.28,-133.224 866,-115 872.848,-113.94 880.023,-112.747 887.124,-111.515"/>
<polygon fill="#9a32cd" stroke="#9a32cd" points="527.293,-156.042 517.758,-160.662 528.093,-162.996 527.293,-156.042"/>
<text text-anchor="middle" x="666" y="-206" font-family="Helvetica,sans-Serif" font-size="10.00"> Thresholds_Raw</text>
<text text-anchor="middle" x="666" y="-193" font-family="Helvetica,sans-Serif" font-size="10.00">RelativeGains</text>
<text text-anchor="middle" x="666" y="-180" font-family="Helvetica,sans-Serif" font-size="10.00">Pedestals</text>
<text text-anchor="middle" x="666" y="-167" font-family="Helvetica,sans-Serif" font-size="10.00">Thresholds_MeV</text>
<text text-anchor="middle" x="666" y="-154" font-family="Helvetica,sans-Serif" font-size="10.00">Gains</text>
</g>
<!-- Node21 -->
<g id="node24" class="node"><title>Node21</title>
<polygon fill="white" stroke="#bfbfbf" points="598,-231 598,-265 734,-265 734,-231 598,-231"/>
<text text-anchor="start" x="606" y="-252" font-family="Helvetica,sans-Serif" font-size="10.00">std::vector&lt; ant::calibration</text>
<text text-anchor="middle" x="666" y="-239" font-family="Helvetica,sans-Serif" font-size="10.00">::CalibType *&gt;</text>
</g>
<!-- Node17&#45;&gt;Node21 -->
<g id="edge26" class="edge"><title>Node17&#45;&gt;Node21</title>
<path fill="none" stroke="#9a32cd" stroke-dasharray="5,2" d="M490.169,-182.269C526.582,-195.881 581.473,-216.401 620.221,-230.886"/>
<polygon fill="#9a32cd" stroke="#9a32cd" points="491.01,-178.847 480.418,-178.623 488.559,-185.403 491.01,-178.847"/>
<text text-anchor="middle" x="558" y="-219" font-family="Helvetica,sans-Serif" font-size="10.00"> elements</text>
</g>
<!-- Node18 -->
<g id="node18" class="node"><title>Node18</title>
<a xlink:title="STL class. ">
<polygon fill="white" stroke="#bfbfbf" points="176,-125.5 176,-146.5 236,-146.5 236,-125.5 176,-125.5"/>
<text text-anchor="middle" x="206" y="-133.5" font-family="Helvetica,sans-Serif" font-size="10.00">std::string</text>
</a>
</g>
<!-- Node18&#45;&gt;Node17 -->
<g id="edge18" class="edge"><title>Node18&#45;&gt;Node17</title>
<path fill="none" stroke="#9a32cd" stroke-dasharray="5,2" d="M246.241,-135.005C279.196,-134.844 326.915,-136.107 368,-143 386.607,-146.122 406.897,-152.085 422.873,-157.404"/>
<polygon fill="#9a32cd" stroke="#9a32cd" points="246.054,-131.507 236.088,-135.103 246.121,-138.507 246.054,-131.507"/>
<text text-anchor="middle" x="332" y="-160" font-family="Helvetica,sans-Serif" font-size="10.00"> Name</text>
<text text-anchor="middle" x="332" y="-147" font-family="Helvetica,sans-Serif" font-size="10.00">HistogramName</text>
</g>
<!-- Node19 -->
<g id="node20" class="node"><title>Node19</title>
<a xlink:title="STL class. ">
<polygon fill="white" stroke="#bfbfbf" points="0.5,-119 0.5,-153 95.5,-153 95.5,-119 0.5,-119"/>
<text text-anchor="start" x="8.5" y="-140" font-family="Helvetica,sans-Serif" font-size="10.00">std::basic_string&lt;</text>
<text text-anchor="middle" x="48" y="-127" font-family="Helvetica,sans-Serif" font-size="10.00"> char &gt;</text>
</a>
</g>
<!-- Node19&#45;&gt;Node18 -->
<g id="edge20" class="edge"><title>Node19&#45;&gt;Node18</title>
<path fill="none" stroke="midnightblue" d="M106.116,-136C129.743,-136 156.054,-136 175.739,-136"/>
<polygon fill="midnightblue" stroke="midnightblue" points="105.834,-132.5 95.834,-136 105.834,-139.5 105.834,-132.5"/>
</g>
<!-- Node20 -->
<g id="node22" class="node"><title>Node20</title>
<polygon fill="white" stroke="#bfbfbf" points="151,-174.5 151,-195.5 261,-195.5 261,-174.5 151,-174.5"/>
<text text-anchor="middle" x="206" y="-182.5" font-family="Helvetica,sans-Serif" font-size="10.00">std::vector&lt; double &gt;</text>
</g>
<!-- Node20&#45;&gt;Node17 -->
<g id="edge22" class="edge"><title>Node20&#45;&gt;Node17</title>
<path fill="none" stroke="#9a32cd" stroke-dasharray="5,2" d="M271.445,-180.477C306.88,-178.029 350.543,-175.011 386.055,-172.557"/>
<polygon fill="#9a32cd" stroke="#9a32cd" points="270.942,-177.004 261.207,-181.185 271.425,-183.987 270.942,-177.004"/>
<text text-anchor="middle" x="332" y="-182" font-family="Helvetica,sans-Serif" font-size="10.00"> Values</text>
</g>
<!-- Node21&#45;&gt;Node10 -->
<g id="edge24" class="edge"><title>Node21&#45;&gt;Node10</title>
<path fill="none" stroke="#9a32cd" stroke-dasharray="5,2" d="M724.988,-227.356C765.905,-211.919 820.929,-188.897 866,-162 891.19,-146.968 917.29,-124.599 931.706,-111.538"/>
<polygon fill="#9a32cd" stroke="#9a32cd" points="723.578,-224.146 715.432,-230.92 726.025,-230.704 723.578,-224.146"/>
<text text-anchor="middle" x="809" y="-219" font-family="Helvetica,sans-Serif" font-size="10.00"> AllCalibrations</text>
</g>
<!-- Node22&#45;&gt;Node9 -->
<g id="edge28" class="edge"><title>Node22&#45;&gt;Node9</title>
<path fill="none" stroke="midnightblue" d="M875.69,-29.1331C925.835,-36.7523 993.574,-47.0447 1039.8,-54.0691"/>
<polygon fill="midnightblue" stroke="midnightblue" points="876.001,-25.6403 865.589,-27.5983 874.95,-32.5609 876.001,-25.6403"/>
</g>
</g>
</svg>
