<?xml version="1.0" encoding="UTF-8" standalone="no"?>
<!DOCTYPE svg PUBLIC "-//W3C//DTD SVG 1.1//EN"
 "http://www.w3.org/Graphics/SVG/1.1/DTD/svg11.dtd">
<!-- Generated by graphviz version 2.26.3 (20100126.1600)
 -->
<!-- Title: ant::calibration::CB_TimeWalk::TheGUI Pages: 1 -->
<svg width="1440pt" height="331pt"
 viewBox="0.00 0.00 1440.00 331.00" xmlns="http://www.w3.org/2000/svg" xmlns:xlink="http://www.w3.org/1999/xlink">
<g id="graph1" class="graph" transform="scale(1 1) rotate(0) translate(4 327)">
<title>ant::calibration::CB_TimeWalk::TheGUI</title>
<polygon fill="white" stroke="white" points="-4,5 -4,-327 1437,-327 1437,5 -4,5"/>
<!-- Node2 -->
<g id="node1" class="node"><title>Node2</title>
<polygon fill="#bfbfbf" stroke="black" points="1324.5,-131 1324.5,-165 1431.5,-165 1431.5,-131 1324.5,-131"/>
<text text-anchor="start" x="1332.5" y="-152" font-family="Helvetica,sans-Serif" font-size="10.00">ant::calibration::CB</text>
<text text-anchor="middle" x="1378" y="-139" font-family="Helvetica,sans-Serif" font-size="10.00">_TimeWalk::TheGUI</text>
</g>
<!-- Node3 -->
<g id="node2" class="node"><title>Node3</title>
<a xlink:href="classant_1_1calibration_1_1gui_1_1_calib_module__traits.html" target="_top" xlink:title="ant::calibration::gui\l::CalibModule_traits">
<polygon fill="white" stroke="black" points="1113,-211 1113,-245 1217,-245 1217,-211 1113,-211"/>
<text text-anchor="start" x="1121" y="-232" font-family="Helvetica,sans-Serif" font-size="10.00">ant::calibration::gui</text>
<text text-anchor="middle" x="1165" y="-219" font-family="Helvetica,sans-Serif" font-size="10.00">::CalibModule_traits</text>
</a>
</g>
<!-- Node3&#45;&gt;Node2 -->
<g id="edge2" class="edge"><title>Node3&#45;&gt;Node2</title>
<path fill="none" stroke="midnightblue" d="M1227.4,-218.258C1252.45,-213.11 1281.21,-205.6 1306,-195 1323.98,-187.311 1342.41,-175.184 1356.13,-165.174"/>
<polygon fill="midnightblue" stroke="midnightblue" points="1226.41,-214.886 1217.27,-220.254 1227.76,-221.754 1226.41,-214.886"/>
</g>
<!-- Node4 -->
<g id="node4" class="node"><title>Node4</title>
<a xlink:href="classant_1_1calibration_1_1gui_1_1_cal_canvas.html" target="_top" xlink:title="ant::calibration::gui\l::CalCanvas">
<polygon fill="white" stroke="black" points="1115.5,-159 1115.5,-193 1214.5,-193 1214.5,-159 1115.5,-159"/>
<text text-anchor="start" x="1123.5" y="-180" font-family="Helvetica,sans-Serif" font-size="10.00">ant::calibration::gui</text>
<text text-anchor="middle" x="1165" y="-167" font-family="Helvetica,sans-Serif" font-size="10.00">::CalCanvas</text>
</a>
</g>
<!-- Node4&#45;&gt;Node2 -->
<g id="edge4" class="edge"><title>Node4&#45;&gt;Node2</title>
<path fill="none" stroke="#9a32cd" stroke-dasharray="5,2" d="M1224.97,-168.117C1256.13,-164.02 1293.92,-159.053 1324.14,-155.08"/>
<polygon fill="#9a32cd" stroke="#9a32cd" points="1224.13,-164.697 1214.67,-169.471 1225.04,-171.637 1224.13,-164.697"/>
<text text-anchor="middle" x="1275" y="-182" font-family="Helvetica,sans-Serif" font-size="10.00"> c_fit</text>
<text text-anchor="middle" x="1275" y="-169" font-family="Helvetica,sans-Serif" font-size="10.00">c_extra</text>
</g>
<!-- Node5 -->
<g id="node6" class="node"><title>Node5</title>
<polygon fill="white" stroke="#bfbfbf" points="906,-301.5 906,-322.5 962,-322.5 962,-301.5 906,-301.5"/>
<text text-anchor="middle" x="934" y="-309.5" font-family="Helvetica,sans-Serif" font-size="10.00">TCanvas</text>
</g>
<!-- Node5&#45;&gt;Node4 -->
<g id="edge6" class="edge"><title>Node5&#45;&gt;Node4</title>
<path fill="none" stroke="midnightblue" d="M972.334,-316.769C1006.65,-318.758 1056.03,-315.629 1086,-287 1113.92,-260.325 1079.47,-231.824 1104,-202 1107.22,-198.088 1111.13,-194.752 1115.41,-191.911"/>
<polygon fill="midnightblue" stroke="midnightblue" points="972.441,-313.267 962.207,-316.01 971.918,-320.248 972.441,-313.267"/>
</g>
<!-- Node6 -->
<g id="node8" class="node"><title>Node6</title>
<a xlink:href="classant_1_1calibration_1_1gui_1_1update__notify__traits.html" target="_top" xlink:title="ant::calibration::gui\l::update_notify_traits">
<polygon fill="white" stroke="black" points="464,-243 464,-277 572,-277 572,-243 464,-243"/>
<text text-anchor="start" x="472" y="-264" font-family="Helvetica,sans-Serif" font-size="10.00">ant::calibration::gui</text>
<text text-anchor="middle" x="518" y="-251" font-family="Helvetica,sans-Serif" font-size="10.00">::update_notify_traits</text>
</a>
</g>
<!-- Node6&#45;&gt;Node4 -->
<g id="edge8" class="edge"><title>Node6&#45;&gt;Node4</title>
<path fill="none" stroke="midnightblue" d="M582.275,-266.413C676.312,-274.179 856.46,-282.913 1006,-254 1043.44,-246.761 1054.88,-245.029 1086,-223 1096.03,-215.898 1094.09,-209.267 1104,-202 1108.46,-198.733 1113.39,-195.777 1118.46,-193.131"/>
<polygon fill="midnightblue" stroke="midnightblue" points="582.329,-262.905 572.069,-265.546 581.736,-269.88 582.329,-262.905"/>
</g>
<!-- Node8 -->
<g id="node12" class="node"><title>Node8</title>
<a xlink:href="classant_1_1calibration_1_1gui_1_1_indicator.html" target="_top" xlink:title="ant::calibration::gui\l::Indicator">
<polygon fill="white" stroke="black" points="672.5,-211 672.5,-245 771.5,-245 771.5,-211 672.5,-211"/>
<text text-anchor="start" x="680.5" y="-232" font-family="Helvetica,sans-Serif" font-size="10.00">ant::calibration::gui</text>
<text text-anchor="middle" x="722" y="-219" font-family="Helvetica,sans-Serif" font-size="10.00">::Indicator</text>
</a>
</g>
<!-- Node6&#45;&gt;Node8 -->
<g id="edge14" class="edge"><title>Node6&#45;&gt;Node8</title>
<path fill="none" stroke="midnightblue" d="M582.192,-249.931C611.246,-245.373 645.067,-240.068 672.166,-235.817"/>
<polygon fill="midnightblue" stroke="midnightblue" points="581.469,-246.501 572.133,-251.509 582.554,-253.417 581.469,-246.501"/>
</g>
<!-- Node7 -->
<g id="node10" class="node"><title>Node7</title>
<polygon fill="white" stroke="#bfbfbf" points="873,-211 873,-245 995,-245 995,-211 873,-211"/>
<text text-anchor="start" x="881" y="-232" font-family="Helvetica,sans-Serif" font-size="10.00">std::list&lt; ant::calibration</text>
<text text-anchor="middle" x="934" y="-219" font-family="Helvetica,sans-Serif" font-size="10.00">::gui::Indicator *&gt;</text>
</g>
<!-- Node7&#45;&gt;Node4 -->
<g id="edge10" class="edge"><title>Node7&#45;&gt;Node4</title>
<path fill="none" stroke="#9a32cd" stroke-dasharray="5,2" d="M1005.19,-211.976C1040.92,-203.931 1083.33,-194.385 1115.47,-187.149"/>
<polygon fill="#9a32cd" stroke="#9a32cd" points="1004.28,-208.591 995.297,-214.201 1005.82,-215.42 1004.28,-208.591"/>
<text text-anchor="middle" x="1055" y="-210" font-family="Helvetica,sans-Serif" font-size="10.00"> indicators</text>
</g>
<!-- Node8&#45;&gt;Node7 -->
<g id="edge12" class="edge"><title>Node8&#45;&gt;Node7</title>
<path fill="none" stroke="#9a32cd" stroke-dasharray="5,2" d="M781.912,-228C810.348,-228 844.278,-228 872.869,-228"/>
<polygon fill="#9a32cd" stroke="#9a32cd" points="781.705,-224.5 771.705,-228 781.705,-231.5 781.705,-224.5"/>
<text text-anchor="middle" x="822" y="-232" font-family="Helvetica,sans-Serif" font-size="10.00"> elements</text>
</g>
<!-- Node9 -->
<g id="node15" class="node"><title>Node9</title>
<polygon fill="white" stroke="#bfbfbf" points="875,-159 875,-193 993,-193 993,-159 875,-159"/>
<text text-anchor="start" x="883" y="-180" font-family="Helvetica,sans-Serif" font-size="10.00">std::stack&lt; FitFunction</text>
<text text-anchor="middle" x="934" y="-167" font-family="Helvetica,sans-Serif" font-size="10.00">::SavedState_t &gt;</text>
</g>
<!-- Node9&#45;&gt;Node4 -->
<g id="edge16" class="edge"><title>Node9&#45;&gt;Node4</title>
<path fill="none" stroke="#9a32cd" stroke-dasharray="5,2" d="M1003.63,-176C1039.63,-176 1082.74,-176 1115.34,-176"/>
<polygon fill="#9a32cd" stroke="#9a32cd" points="1003.19,-172.5 993.188,-176 1003.19,-179.5 1003.19,-172.5"/>
<text text-anchor="middle" x="1055" y="-180" font-family="Helvetica,sans-Serif" font-size="10.00"> UndoStack</text>
</g>
<!-- Node10 -->
<g id="node17" class="node"><title>Node10</title>
<a xlink:title="STL class. ">
<polygon fill="white" stroke="#bfbfbf" points="678.5,-165.5 678.5,-186.5 765.5,-186.5 765.5,-165.5 678.5,-165.5"/>
<text text-anchor="middle" x="722" y="-173.5" font-family="Helvetica,sans-Serif" font-size="10.00">std::vector&lt; T &gt;</text>
</a>
</g>
<!-- Node10&#45;&gt;Node9 -->
<g id="edge18" class="edge"><title>Node10&#45;&gt;Node9</title>
<path fill="none" stroke="#9a32cd" stroke-dasharray="5,2" d="M775.998,-176C806.145,-176 843.75,-176 874.711,-176"/>
<polygon fill="#9a32cd" stroke="#9a32cd" points="775.67,-172.5 765.669,-176 775.669,-179.5 775.67,-172.5"/>
<text text-anchor="middle" x="822" y="-180" font-family="Helvetica,sans-Serif" font-size="10.00"> elements</text>
</g>
<!-- Node11 -->
<g id="node19" class="node"><title>Node11</title>
<polygon fill="white" stroke="#bfbfbf" points="503.5,-165.5 503.5,-186.5 532.5,-186.5 532.5,-165.5 503.5,-165.5"/>
<text text-anchor="middle" x="518" y="-173.5" font-family="Helvetica,sans-Serif" font-size="10.00">T</text>
</g>
<!-- Node11&#45;&gt;Node10 -->
<g id="edge20" class="edge"><title>Node11&#45;&gt;Node10</title>
<path fill="none" stroke="#9a32cd" stroke-dasharray="5,2" d="M542.987,-176C576.622,-176 636.996,-176 678.249,-176"/>
<polygon fill="#9a32cd" stroke="#9a32cd" points="542.671,-172.5 532.671,-176 542.671,-179.5 542.671,-172.5"/>
<text text-anchor="middle" x="622" y="-180" font-family="Helvetica,sans-Serif" font-size="10.00"> elements</text>
</g>
<!-- Node12 -->
<g id="node21" class="node"><title>Node12</title>
<a xlink:href="structant_1_1calibration_1_1gui_1_1_cal_canvas_1_1axis__settings__t.html" target="_top" xlink:title="ant::calibration::gui\l::CalCanvas::axis_settings_t">
<polygon fill="white" stroke="black" points="862.5,-107 862.5,-141 1005.5,-141 1005.5,-107 862.5,-107"/>
<text text-anchor="start" x="870.5" y="-128" font-family="Helvetica,sans-Serif" font-size="10.00">ant::calibration::gui</text>
<text text-anchor="middle" x="934" y="-115" font-family="Helvetica,sans-Serif" font-size="10.00">::CalCanvas::axis_settings_t</text>
</a>
</g>
<!-- Node12&#45;&gt;Node4 -->
<g id="edge22" class="edge"><title>Node12&#45;&gt;Node4</title>
<path fill="none" stroke="#9a32cd" stroke-dasharray="5,2" d="M1015.69,-142.39C1048.98,-149.882 1086.37,-158.3 1115.41,-164.837"/>
<polygon fill="#9a32cd" stroke="#9a32cd" points="1016.03,-138.879 1005.51,-140.097 1014.5,-145.708 1016.03,-138.879"/>
<text text-anchor="middle" x="1055" y="-161" font-family="Helvetica,sans-Serif" font-size="10.00"> axis_settings</text>
</g>
<!-- Node13 -->
<g id="node23" class="node"><title>Node13</title>
<a xlink:href="classant_1_1calibration_1_1gui_1_1_fit_function.html" target="_top" xlink:title="ant::calibration::gui\l::FitFunction">
<polygon fill="white" stroke="black" points="884.5,-55 884.5,-89 983.5,-89 983.5,-55 884.5,-55"/>
<text text-anchor="start" x="892.5" y="-76" font-family="Helvetica,sans-Serif" font-size="10.00">ant::calibration::gui</text>
<text text-anchor="middle" x="934" y="-63" font-family="Helvetica,sans-Serif" font-size="10.00">::FitFunction</text>
</a>
</g>
<!-- Node13&#45;&gt;Node4 -->
<g id="edge24" class="edge"><title>Node13&#45;&gt;Node4</title>
<path fill="none" stroke="#9a32cd" stroke-dasharray="5,2" d="M991.249,-92.6013C996.241,-94.4194 1001.21,-96.2378 1006,-98 1041.64,-111.116 1055.14,-105.877 1086,-128 1096.27,-135.36 1093.9,-142.415 1104,-150 1108.42,-153.318 1113.33,-156.305 1118.38,-158.97"/>
<polygon fill="#9a32cd" stroke="#9a32cd" points="992.261,-89.2452 981.667,-89.1202 989.871,-95.8245 992.261,-89.2452"/>
<text text-anchor="middle" x="1055" y="-132" font-family="Helvetica,sans-Serif" font-size="10.00"> func</text>
</g>
<!-- Node14 -->
<g id="node25" class="node"><title>Node14</title>
<polygon fill="white" stroke="#bfbfbf" points="662,-17 662,-51 782,-51 782,-17 662,-17"/>
<text text-anchor="start" x="670" y="-38" font-family="Helvetica,sans-Serif" font-size="10.00">std::list&lt; std::unique</text>
<text text-anchor="middle" x="722" y="-25" font-family="Helvetica,sans-Serif" font-size="10.00">_ptr&lt; IndicatorKnob &gt; &gt;</text>
</g>
<!-- Node14&#45;&gt;Node13 -->
<g id="edge26" class="edge"><title>Node14&#45;&gt;Node13</title>
<path fill="none" stroke="#9a32cd" stroke-dasharray="5,2" d="M792.603,-45.1444C809.463,-47.9245 827.387,-50.9779 844,-54 857.012,-56.367 871.047,-59.0913 884.074,-61.6924"/>
<polygon fill="#9a32cd" stroke="#9a32cd" points="792.698,-41.6134 782.264,-43.4514 791.567,-48.5214 792.698,-41.6134"/>
<text text-anchor="middle" x="822" y="-58" font-family="Helvetica,sans-Serif" font-size="10.00"> knobs</text>
</g>
<!-- Node15 -->
<g id="node27" class="node"><title>Node15</title>
<polygon fill="white" stroke="#bfbfbf" points="454,-11 454,-45 582,-45 582,-11 454,-11"/>
<text text-anchor="start" x="462" y="-32" font-family="Helvetica,sans-Serif" font-size="10.00">std::unique_ptr&lt; Indicator</text>
<text text-anchor="middle" x="518" y="-19" font-family="Helvetica,sans-Serif" font-size="10.00">Knob &gt;</text>
</g>
<!-- Node15&#45;&gt;Node14 -->
<g id="edge28" class="edge"><title>Node15&#45;&gt;Node14</title>
<path fill="none" stroke="#9a32cd" stroke-dasharray="5,2" d="M592.278,-30.1847C615.165,-30.8578 640.066,-31.5902 661.876,-32.2317"/>
<polygon fill="#9a32cd" stroke="#9a32cd" points="592.365,-26.6858 582.267,-29.8902 592.16,-33.6828 592.365,-26.6858"/>
<text text-anchor="middle" x="622" y="-36" font-family="Helvetica,sans-Serif" font-size="10.00"> elements</text>
</g>
<!-- Node16 -->
<g id="node29" class="node"><title>Node16</title>
<a xlink:href="classant_1_1calibration_1_1gui_1_1_indicator_knob.html" target="_top" xlink:title="ant::calibration::gui\l::IndicatorKnob">
<polygon fill="white" stroke="black" points="302.5,-11 302.5,-45 401.5,-45 401.5,-11 302.5,-11"/>
<text text-anchor="start" x="310.5" y="-32" font-family="Helvetica,sans-Serif" font-size="10.00">ant::calibration::gui</text>
<text text-anchor="middle" x="352" y="-19" font-family="Helvetica,sans-Serif" font-size="10.00">::IndicatorKnob</text>
</a>
</g>
<!-- Node16&#45;&gt;Node15 -->
<g id="edge30" class="edge"><title>Node16&#45;&gt;Node15</title>
<path fill="none" stroke="#9a32cd" stroke-dasharray="5,2" d="M411.984,-28C425.557,-28 440.022,-28 453.763,-28"/>
<polygon fill="#9a32cd" stroke="#9a32cd" points="411.806,-24.5001 401.805,-28 411.805,-31.5001 411.806,-24.5001"/>
<text text-anchor="middle" x="428" y="-32" font-family="Helvetica,sans-Serif" font-size="10.00"> ptr</text>
</g>
<!-- Node17 -->
<g id="node31" class="node"><title>Node17</title>
<a xlink:title="STL class. ">
<polygon fill="white" stroke="#bfbfbf" points="156,-61.5 156,-82.5 216,-82.5 216,-61.5 156,-61.5"/>
<text text-anchor="middle" x="186" y="-69.5" font-family="Helvetica,sans-Serif" font-size="10.00">std::string</text>
</a>
</g>
<!-- Node17&#45;&gt;Node13 -->
<g id="edge38" class="edge"><title>Node17&#45;&gt;Node13</title>
<path fill="none" stroke="#9a32cd" stroke-dasharray="5,2" d="M226.602,-75.4315C260.19,-77.9742 309.159,-81 352,-81 352,-81 352,-81 722,-81 777.626,-81 841.389,-77.8688 884.337,-75.3002"/>
<polygon fill="#9a32cd" stroke="#9a32cd" points="226.506,-71.9135 216.264,-74.6274 225.963,-78.8925 226.506,-71.9135"/>
<text text-anchor="middle" x="518" y="-85" font-family="Helvetica,sans-Serif" font-size="10.00"> AdditionalFitArgs</text>
</g>
<!-- Node17&#45;&gt;Node16 -->
<g id="edge32" class="edge"><title>Node17&#45;&gt;Node16</title>
<path fill="none" stroke="#9a32cd" stroke-dasharray="5,2" d="M225.818,-61.4458C248.778,-55.3601 277.848,-47.6547 302.297,-41.1742"/>
<polygon fill="#9a32cd" stroke="#9a32cd" points="224.831,-58.0866 216.061,-64.0319 226.624,-64.8529 224.831,-58.0866"/>
<text text-anchor="middle" x="270" y="-57" font-family="Helvetica,sans-Serif" font-size="10.00"> name</text>
</g>
<!-- Node18 -->
<g id="node33" class="node"><title>Node18</title>
<a xlink:title="STL class. ">
<polygon fill="white" stroke="#bfbfbf" points="0.5,-55 0.5,-89 95.5,-89 95.5,-55 0.5,-55"/>
<text text-anchor="start" x="8.5" y="-76" font-family="Helvetica,sans-Serif" font-size="10.00">std::basic_string&lt;</text>
<text text-anchor="middle" x="48" y="-63" font-family="Helvetica,sans-Serif" font-size="10.00"> char &gt;</text>
</a>
</g>
<!-- Node18&#45;&gt;Node17 -->
<g id="edge34" class="edge"><title>Node18&#45;&gt;Node17</title>
<path fill="none" stroke="midnightblue" d="M106.346,-72C123.405,-72 141.354,-72 155.886,-72"/>
<polygon fill="midnightblue" stroke="midnightblue" points="105.878,-68.5001 95.8784,-72 105.878,-75.5001 105.878,-68.5001"/>
</g>
<!-- Node19 -->
<g id="node35" class="node"><title>Node19</title>
<a xlink:href="structant_1_1calibration_1_1gui_1_1_indicator_properties.html" target="_top" xlink:title="ant::calibration::gui\l::IndicatorProperties">
<polygon fill="white" stroke="black" points="134,-0 134,-34 238,-34 238,-0 134,-0"/>
<text text-anchor="start" x="142" y="-21" font-family="Helvetica,sans-Serif" font-size="10.00">ant::calibration::gui</text>
<text text-anchor="middle" x="186" y="-8" font-family="Helvetica,sans-Serif" font-size="10.00">::IndicatorProperties</text>
</a>
</g>
<!-- Node19&#45;&gt;Node16 -->
<g id="edge36" class="edge"><title>Node19&#45;&gt;Node16</title>
<path fill="none" stroke="#9a32cd" stroke-dasharray="5,2" d="M248.437,-16.3686C260.261,-16.6082 272.52,-17.1015 284,-18 289.948,-18.4655 296.167,-19.1307 302.323,-19.8997"/>
<polygon fill="#9a32cd" stroke="#9a32cd" points="248.239,-12.8654 238.189,-16.2196 248.137,-19.8647 248.239,-12.8654"/>
<text text-anchor="middle" x="270" y="-22" font-family="Helvetica,sans-Serif" font-size="10.00"> gui</text>
</g>
<!-- Node20 -->
<g id="node38" class="node"><title>Node20</title>
<polygon fill="white" stroke="#bfbfbf" points="1104,-107 1104,-141 1226,-141 1226,-107 1104,-107"/>
<text text-anchor="start" x="1112" y="-128" font-family="Helvetica,sans-Serif" font-size="10.00">std::map&lt; unsigned,</text>
<text text-anchor="middle" x="1165" y="-115" font-family="Helvetica,sans-Serif" font-size="10.00"> std::vector&lt; double &gt; &gt;</text>
</g>
<!-- Node20&#45;&gt;Node2 -->
<g id="edge40" class="edge"><title>Node20&#45;&gt;Node2</title>
<path fill="none" stroke="#9a32cd" stroke-dasharray="5,2" d="M1236.35,-126.586C1258.72,-127.924 1283.45,-129.946 1306,-133 1311.95,-133.805 1318.14,-134.82 1324.28,-135.941"/>
<polygon fill="#9a32cd" stroke="#9a32cd" points="1236.44,-123.086 1226.26,-126.019 1236.05,-130.075 1236.44,-123.086"/>
<text text-anchor="middle" x="1275" y="-137" font-family="Helvetica,sans-Serif" font-size="10.00"> fitParameters</text>
</g>
<!-- Node21 -->
<g id="node40" class="node"><title>Node21</title>
<polygon fill="white" stroke="#bfbfbf" points="879,-15.5 879,-36.5 989,-36.5 989,-15.5 879,-15.5"/>
<text text-anchor="middle" x="934" y="-23.5" font-family="Helvetica,sans-Serif" font-size="10.00">std::vector&lt; double &gt;</text>
</g>
<!-- Node21&#45;&gt;Node20 -->
<g id="edge42" class="edge"><title>Node21&#45;&gt;Node20</title>
<path fill="none" stroke="#9a32cd" stroke-dasharray="5,2" d="M999.322,-19.3465C1028.73,-19.7966 1062.12,-25.5359 1086,-45 1105.28,-60.7173 1087.09,-79.7579 1104,-98 1107.13,-101.377 1110.77,-104.333 1114.69,-106.918"/>
<polygon fill="#9a32cd" stroke="#9a32cd" points="999.093,-15.8474 989.109,-19.394 999.125,-22.8473 999.093,-15.8474"/>
<text text-anchor="middle" x="1055" y="-49" font-family="Helvetica,sans-Serif" font-size="10.00"> elements</text>
</g>
<!-- Node22 -->
<g id="node42" class="node"><title>Node22</title>
<polygon fill="white" stroke="#bfbfbf" points="1104.5,-41.5 1104.5,-88.5 1225.5,-88.5 1225.5,-41.5 1104.5,-41.5"/>
<text text-anchor="start" x="1112.5" y="-75.5" font-family="Helvetica,sans-Serif" font-size="10.00">std::vector&lt; std::shared</text>
<text text-anchor="start" x="1112.5" y="-62.5" font-family="Helvetica,sans-Serif" font-size="10.00">_ptr&lt; ant::calibration</text>
<text text-anchor="middle" x="1165" y="-49.5" font-family="Helvetica,sans-Serif" font-size="10.00">::gui::FitTimewalk &gt; &gt;</text>
</g>
<!-- Node22&#45;&gt;Node2 -->
<g id="edge44" class="edge"><title>Node22&#45;&gt;Node2</title>
<path fill="none" stroke="#9a32cd" stroke-dasharray="5,2" d="M1235.41,-85.542C1258.22,-92.8364 1283.44,-101.593 1306,-111 1319.88,-116.787 1334.73,-124.2 1347.33,-130.869"/>
<polygon fill="#9a32cd" stroke="#9a32cd" points="1236.39,-82.1812 1225.8,-82.5078 1234.29,-88.8563 1236.39,-82.1812"/>
<text text-anchor="middle" x="1275" y="-115" font-family="Helvetica,sans-Serif" font-size="10.00"> timewalks</text>
</g>
</g>
</svg>
