<?xml version="1.0" encoding="UTF-8" standalone="no"?>
<!DOCTYPE svg PUBLIC "-//W3C//DTD SVG 1.1//EN"
 "http://www.w3.org/Graphics/SVG/1.1/DTD/svg11.dtd">
<!-- Generated by graphviz version 2.26.3 (20100126.1600)
 -->
<!-- Title: ant::analysis::physics::MCPhotonPairCheck Pages: 1 -->
<svg width="566pt" height="150pt"
 viewBox="0.00 0.00 566.00 150.00" xmlns="http://www.w3.org/2000/svg" xmlns:xlink="http://www.w3.org/1999/xlink">
<g id="graph1" class="graph" transform="scale(1 1) rotate(0) translate(4 146)">
<title>ant::analysis::physics::MCPhotonPairCheck</title>
<polygon fill="white" stroke="white" points="-4,5 -4,-146 563,-146 563,5 -4,5"/>
<!-- Node2 -->
<g id="node1" class="node"><title>Node2</title>
<polygon fill="#bfbfbf" stroke="black" points="442.5,-52 442.5,-86 557.5,-86 557.5,-52 442.5,-52"/>
<text text-anchor="start" x="450.5" y="-73" font-family="Helvetica,sans-Serif" font-size="10.00">ant::analysis::physics</text>
<text text-anchor="middle" x="500" y="-60" font-family="Helvetica,sans-Serif" font-size="10.00">::MCPhotonPairCheck</text>
</g>
<!-- Node3 -->
<g id="node2" class="node"><title>Node3</title>
<a xlink:href="classant_1_1analysis_1_1_physics.html" target="_top" xlink:title="ant::analysis::Physics">
<polygon fill="white" stroke="black" points="246.5,-109.5 246.5,-130.5 359.5,-130.5 359.5,-109.5 246.5,-109.5"/>
<text text-anchor="middle" x="303" y="-117.5" font-family="Helvetica,sans-Serif" font-size="10.00">ant::analysis::Physics</text>
</a>
</g>
<!-- Node3&#45;&gt;Node2 -->
<g id="edge2" class="edge"><title>Node3&#45;&gt;Node2</title>
<path fill="none" stroke="midnightblue" d="M353.51,-106.924C380.665,-99.8938 414.26,-91.1966 442.426,-83.905"/>
<polygon fill="midnightblue" stroke="midnightblue" points="352.622,-103.538 343.819,-109.433 354.377,-110.315 352.622,-103.538"/>
</g>
<!-- Node4 -->
<g id="node4" class="node"><title>Node4</title>
<a xlink:href="classant_1_1analysis_1_1_histogram_factory.html" target="_top" xlink:title="ant::analysis::Histogram\lFactory">
<polygon fill="white" stroke="black" points="0.5,-108 0.5,-142 123.5,-142 123.5,-108 0.5,-108"/>
<text text-anchor="start" x="8.5" y="-129" font-family="Helvetica,sans-Serif" font-size="10.00">ant::analysis::Histogram</text>
<text text-anchor="middle" x="62" y="-116" font-family="Helvetica,sans-Serif" font-size="10.00">Factory</text>
</a>
</g>
<!-- Node4&#45;&gt;Node3 -->
<g id="edge4" class="edge"><title>Node4&#45;&gt;Node3</title>
<path fill="none" stroke="#9a32cd" stroke-dasharray="5,2" d="M134.169,-123.503C170.08,-122.758 212.856,-121.87 246.365,-121.175"/>
<polygon fill="#9a32cd" stroke="#9a32cd" points="133.676,-120.012 123.751,-123.719 133.821,-127.011 133.676,-120.012"/>
<text text-anchor="middle" x="177" y="-127" font-family="Helvetica,sans-Serif" font-size="10.00"> HistFac</text>
</g>
<!-- Node5 -->
<g id="node6" class="node"><title>Node5</title>
<a xlink:href="classant_1_1analysis_1_1utils_1_1_a2_simple_geometry.html" target="_top" xlink:title="ant::analysis::utils\l::A2SimpleGeometry">
<polygon fill="white" stroke="black" points="249.5,-52 249.5,-86 356.5,-86 356.5,-52 249.5,-52"/>
<text text-anchor="start" x="257.5" y="-73" font-family="Helvetica,sans-Serif" font-size="10.00">ant::analysis::utils</text>
<text text-anchor="middle" x="303" y="-60" font-family="Helvetica,sans-Serif" font-size="10.00">::A2SimpleGeometry</text>
</a>
</g>
<!-- Node5&#45;&gt;Node2 -->
<g id="edge6" class="edge"><title>Node5&#45;&gt;Node2</title>
<path fill="none" stroke="#9a32cd" stroke-dasharray="5,2" d="M366.765,-69C391.062,-69 418.593,-69 442.296,-69"/>
<polygon fill="#9a32cd" stroke="#9a32cd" points="366.571,-65.5001 356.571,-69 366.571,-72.5001 366.571,-65.5001"/>
<text text-anchor="middle" x="409" y="-73" font-family="Helvetica,sans-Serif" font-size="10.00"> a2geo</text>
</g>
<!-- Node6 -->
<g id="node8" class="node"><title>Node6</title>
<a xlink:href="classant_1_1interval.html" target="_top" xlink:title="ant::interval\&lt; double \&gt;">
<polygon fill="white" stroke="black" points="5,-52.5 5,-73.5 119,-73.5 119,-52.5 5,-52.5"/>
<text text-anchor="middle" x="62" y="-60.5" font-family="Helvetica,sans-Serif" font-size="10.00">ant::interval&lt; double &gt;</text>
</a>
</g>
<!-- Node6&#45;&gt;Node5 -->
<g id="edge8" class="edge"><title>Node6&#45;&gt;Node5</title>
<path fill="none" stroke="#9a32cd" stroke-dasharray="5,2" d="M129.533,-64.6813C167.348,-65.6228 213.853,-66.7806 249.189,-67.6603"/>
<polygon fill="#9a32cd" stroke="#9a32cd" points="129.198,-61.172 119.114,-64.4219 129.023,-68.1698 129.198,-61.172"/>
<text text-anchor="middle" x="177" y="-96" font-family="Helvetica,sans-Serif" font-size="10.00"> cb_phi_hem1</text>
<text text-anchor="middle" x="177" y="-83" font-family="Helvetica,sans-Serif" font-size="10.00">cb_theta_region</text>
<text text-anchor="middle" x="177" y="-70" font-family="Helvetica,sans-Serif" font-size="10.00">taps_region</text>
</g>
<!-- Node7 -->
<g id="node10" class="node"><title>Node7</title>
<a xlink:href="structant_1_1analysis_1_1physics_1_1_m_c_photon_pair_check_1_1tree__t.html" target="_top" xlink:title="ant::analysis::physics\l::MCPhotonPairCheck::tree_t">
<polygon fill="white" stroke="black" points="230,-0 230,-34 376,-34 376,-0 230,-0"/>
<text text-anchor="start" x="238" y="-21" font-family="Helvetica,sans-Serif" font-size="10.00">ant::analysis::physics</text>
<text text-anchor="middle" x="303" y="-8" font-family="Helvetica,sans-Serif" font-size="10.00">::MCPhotonPairCheck::tree_t</text>
</a>
</g>
<!-- Node7&#45;&gt;Node2 -->
<g id="edge10" class="edge"><title>Node7&#45;&gt;Node2</title>
<path fill="none" stroke="#9a32cd" stroke-dasharray="5,2" d="M377.266,-36.6032C398.797,-42.2866 421.976,-48.4047 442.328,-53.777"/>
<polygon fill="#9a32cd" stroke="#9a32cd" points="378.067,-33.1949 367.505,-34.0267 376.281,-39.9631 378.067,-33.1949"/>
<text text-anchor="middle" x="409" y="-51" font-family="Helvetica,sans-Serif" font-size="10.00"> t</text>
</g>
<!-- Node8 -->
<g id="node12" class="node"><title>Node8</title>
<a xlink:href="classant_1_1_wrap_t_tree.html" target="_top" xlink:title="The WrapTTree struct simplifies TTree handling in physics classes. ">
<polygon fill="white" stroke="black" points="19.5,-6.5 19.5,-27.5 104.5,-27.5 104.5,-6.5 19.5,-6.5"/>
<text text-anchor="middle" x="62" y="-14.5" font-family="Helvetica,sans-Serif" font-size="10.00">ant::WrapTTree</text>
</a>
</g>
<!-- Node8&#45;&gt;Node7 -->
<g id="edge12" class="edge"><title>Node8&#45;&gt;Node7</title>
<path fill="none" stroke="midnightblue" d="M114.637,-17C148.352,-17 192.582,-17 229.71,-17"/>
<polygon fill="midnightblue" stroke="midnightblue" points="114.531,-13.5001 104.531,-17 114.531,-20.5001 114.531,-13.5001"/>
</g>
</g>
</svg>
