<?xml version="1.0" encoding="UTF-8" standalone="no"?>
<!DOCTYPE svg PUBLIC "-//W3C//DTD SVG 1.1//EN"
 "http://www.w3.org/Graphics/SVG/1.1/DTD/svg11.dtd">
<!-- Generated by graphviz version 2.26.3 (20100126.1600)
 -->
<!-- Title: ant::calibration::CB_SourceCalib::TheGUI Pages: 1 -->
<svg width="1464pt" height="357pt"
 viewBox="0.00 0.00 1464.00 357.00" xmlns="http://www.w3.org/2000/svg" xmlns:xlink="http://www.w3.org/1999/xlink">
<g id="graph1" class="graph" transform="scale(1 1) rotate(0) translate(4 353)">
<title>ant::calibration::CB_SourceCalib::TheGUI</title>
<polygon fill="white" stroke="white" points="-4,5 -4,-353 1461,-353 1461,5 -4,5"/>
<!-- Node2 -->
<g id="node1" class="node"><title>Node2</title>
<polygon fill="#bfbfbf" stroke="black" points="1340,-192 1340,-226 1456,-226 1456,-192 1340,-192"/>
<text text-anchor="start" x="1348" y="-213" font-family="Helvetica,sans-Serif" font-size="10.00">ant::calibration::CB</text>
<text text-anchor="middle" x="1398" y="-200" font-family="Helvetica,sans-Serif" font-size="10.00">_SourceCalib::TheGUI</text>
</g>
<!-- Node3 -->
<g id="node2" class="node"><title>Node3</title>
<a xlink:href="classant_1_1calibration_1_1gui_1_1_calib_module__traits.html" target="_top" xlink:title="ant::calibration::gui\l::CalibModule_traits">
<polygon fill="white" stroke="black" points="1113,-272 1113,-306 1217,-306 1217,-272 1113,-272"/>
<text text-anchor="start" x="1121" y="-293" font-family="Helvetica,sans-Serif" font-size="10.00">ant::calibration::gui</text>
<text text-anchor="middle" x="1165" y="-280" font-family="Helvetica,sans-Serif" font-size="10.00">::CalibModule_traits</text>
</a>
</g>
<!-- Node3&#45;&gt;Node2 -->
<g id="edge2" class="edge"><title>Node3&#45;&gt;Node2</title>
<path fill="none" stroke="midnightblue" d="M1227.3,-273.489C1256.4,-265.648 1291.32,-255.384 1322,-244 1335.89,-238.845 1350.78,-232.241 1363.66,-226.162"/>
<polygon fill="midnightblue" stroke="midnightblue" points="1226.03,-270.206 1217.26,-276.16 1227.83,-276.971 1226.03,-270.206"/>
</g>
<!-- Node4 -->
<g id="node4" class="node"><title>Node4</title>
<polygon fill="white" stroke="#bfbfbf" points="1104,-220 1104,-254 1226,-254 1226,-220 1104,-220"/>
<text text-anchor="start" x="1112" y="-241" font-family="Helvetica,sans-Serif" font-size="10.00">std::map&lt; unsigned,</text>
<text text-anchor="middle" x="1165" y="-228" font-family="Helvetica,sans-Serif" font-size="10.00"> std::vector&lt; double &gt; &gt;</text>
</g>
<!-- Node4&#45;&gt;Node2 -->
<g id="edge4" class="edge"><title>Node4&#45;&gt;Node2</title>
<path fill="none" stroke="#9a32cd" stroke-dasharray="5,2" d="M1236.33,-228.428C1269.57,-224.434 1308.61,-219.742 1340,-215.97"/>
<polygon fill="#9a32cd" stroke="#9a32cd" points="1235.73,-224.975 1226.22,-229.643 1236.56,-231.925 1235.73,-224.975"/>
<text text-anchor="middle" x="1283" y="-231" font-family="Helvetica,sans-Serif" font-size="10.00"> fitParameters</text>
</g>
<!-- Node5 -->
<g id="node6" class="node"><title>Node5</title>
<polygon fill="white" stroke="#bfbfbf" points="879,-326.5 879,-347.5 989,-347.5 989,-326.5 879,-326.5"/>
<text text-anchor="middle" x="934" y="-334.5" font-family="Helvetica,sans-Serif" font-size="10.00">std::vector&lt; double &gt;</text>
</g>
<!-- Node5&#45;&gt;Node4 -->
<g id="edge6" class="edge"><title>Node5&#45;&gt;Node4</title>
<path fill="none" stroke="#9a32cd" stroke-dasharray="5,2" d="M999.3,-339.921C1028.7,-337.959 1062.1,-330.758 1086,-311 1103.56,-296.484 1088.25,-279.462 1104,-263 1107.18,-259.673 1110.86,-256.751 1114.8,-254.188"/>
<polygon fill="#9a32cd" stroke="#9a32cd" points="998.91,-336.435 989.089,-340.408 999.244,-343.427 998.91,-336.435"/>
<text text-anchor="middle" x="1055" y="-340" font-family="Helvetica,sans-Serif" font-size="10.00"> elements</text>
</g>
<!-- Node6 -->
<g id="node8" class="node"><title>Node6</title>
<a xlink:href="classant_1_1calibration_1_1gui_1_1_cal_canvas.html" target="_top" xlink:title="ant::calibration::gui\l::CalCanvas">
<polygon fill="white" stroke="black" points="1115.5,-168 1115.5,-202 1214.5,-202 1214.5,-168 1115.5,-168"/>
<text text-anchor="start" x="1123.5" y="-189" font-family="Helvetica,sans-Serif" font-size="10.00">ant::calibration::gui</text>
<text text-anchor="middle" x="1165" y="-176" font-family="Helvetica,sans-Serif" font-size="10.00">::CalCanvas</text>
</a>
</g>
<!-- Node6&#45;&gt;Node2 -->
<g id="edge8" class="edge"><title>Node6&#45;&gt;Node2</title>
<path fill="none" stroke="#9a32cd" stroke-dasharray="5,2" d="M1224.76,-186.493C1254.14,-187.718 1290.02,-189.947 1322,-194 1327.74,-194.727 1333.69,-195.633 1339.63,-196.638"/>
<polygon fill="#9a32cd" stroke="#9a32cd" points="1224.79,-182.991 1214.66,-186.1 1224.51,-189.986 1224.79,-182.991"/>
<text text-anchor="middle" x="1283" y="-198" font-family="Helvetica,sans-Serif" font-size="10.00"> canvas</text>
</g>
<!-- Node7 -->
<g id="node10" class="node"><title>Node7</title>
<polygon fill="white" stroke="#bfbfbf" points="906,-286.5 906,-307.5 962,-307.5 962,-286.5 906,-286.5"/>
<text text-anchor="middle" x="934" y="-294.5" font-family="Helvetica,sans-Serif" font-size="10.00">TCanvas</text>
</g>
<!-- Node7&#45;&gt;Node6 -->
<g id="edge10" class="edge"><title>Node7&#45;&gt;Node6</title>
<path fill="none" stroke="midnightblue" d="M972.12,-301.225C1006.07,-302.795 1055.03,-299.354 1086,-272 1107.19,-253.288 1085.2,-232.112 1104,-211 1107.29,-207.303 1111.2,-204.114 1115.42,-201.367"/>
<polygon fill="midnightblue" stroke="midnightblue" points="972.302,-297.729 962.103,-300.597 971.864,-304.716 972.302,-297.729"/>
</g>
<!-- Node8 -->
<g id="node12" class="node"><title>Node8</title>
<a xlink:href="classant_1_1calibration_1_1gui_1_1update__notify__traits.html" target="_top" xlink:title="ant::calibration::gui\l::update_notify_traits">
<polygon fill="white" stroke="black" points="464,-219 464,-253 572,-253 572,-219 464,-219"/>
<text text-anchor="start" x="472" y="-240" font-family="Helvetica,sans-Serif" font-size="10.00">ant::calibration::gui</text>
<text text-anchor="middle" x="518" y="-227" font-family="Helvetica,sans-Serif" font-size="10.00">::update_notify_traits</text>
</a>
</g>
<!-- Node8&#45;&gt;Node6 -->
<g id="edge12" class="edge"><title>Node8&#45;&gt;Node6</title>
<path fill="none" stroke="midnightblue" d="M582.25,-241.856C675.895,-249.157 855.155,-258.469 1006,-239 1042.46,-234.295 1051.18,-229.78 1086,-218 1090.19,-216.583 1107.55,-209.353 1124.94,-202.02"/>
<polygon fill="midnightblue" stroke="midnightblue" points="582.333,-238.352 572.086,-241.045 581.776,-245.329 582.333,-238.352"/>
</g>
<!-- Node10 -->
<g id="node16" class="node"><title>Node10</title>
<a xlink:href="classant_1_1calibration_1_1gui_1_1_indicator.html" target="_top" xlink:title="ant::calibration::gui\l::Indicator">
<polygon fill="white" stroke="black" points="672.5,-196 672.5,-230 771.5,-230 771.5,-196 672.5,-196"/>
<text text-anchor="start" x="680.5" y="-217" font-family="Helvetica,sans-Serif" font-size="10.00">ant::calibration::gui</text>
<text text-anchor="middle" x="722" y="-204" font-family="Helvetica,sans-Serif" font-size="10.00">::Indicator</text>
</a>
</g>
<!-- Node8&#45;&gt;Node10 -->
<g id="edge18" class="edge"><title>Node8&#45;&gt;Node10</title>
<path fill="none" stroke="midnightblue" d="M582.192,-228.763C611.246,-225.487 645.067,-221.674 672.166,-218.619"/>
<polygon fill="midnightblue" stroke="midnightblue" points="581.678,-225.298 572.133,-229.897 582.462,-232.254 581.678,-225.298"/>
</g>
<!-- Node9 -->
<g id="node14" class="node"><title>Node9</title>
<polygon fill="white" stroke="#bfbfbf" points="873,-196 873,-230 995,-230 995,-196 873,-196"/>
<text text-anchor="start" x="881" y="-217" font-family="Helvetica,sans-Serif" font-size="10.00">std::list&lt; ant::calibration</text>
<text text-anchor="middle" x="934" y="-204" font-family="Helvetica,sans-Serif" font-size="10.00">::gui::Indicator *&gt;</text>
</g>
<!-- Node9&#45;&gt;Node6 -->
<g id="edge14" class="edge"><title>Node9&#45;&gt;Node6</title>
<path fill="none" stroke="#9a32cd" stroke-dasharray="5,2" d="M1005.64,-204.316C1041.28,-199.996 1083.46,-194.883 1115.47,-191.003"/>
<polygon fill="#9a32cd" stroke="#9a32cd" points="1004.8,-200.892 995.297,-205.57 1005.65,-207.841 1004.8,-200.892"/>
<text text-anchor="middle" x="1055" y="-205" font-family="Helvetica,sans-Serif" font-size="10.00"> indicators</text>
</g>
<!-- Node10&#45;&gt;Node9 -->
<g id="edge16" class="edge"><title>Node10&#45;&gt;Node9</title>
<path fill="none" stroke="#9a32cd" stroke-dasharray="5,2" d="M781.912,-213C810.348,-213 844.278,-213 872.869,-213"/>
<polygon fill="#9a32cd" stroke="#9a32cd" points="781.705,-209.5 771.705,-213 781.705,-216.5 781.705,-209.5"/>
<text text-anchor="middle" x="822" y="-217" font-family="Helvetica,sans-Serif" font-size="10.00"> elements</text>
</g>
<!-- Node11 -->
<g id="node19" class="node"><title>Node11</title>
<polygon fill="white" stroke="#bfbfbf" points="875,-144 875,-178 993,-178 993,-144 875,-144"/>
<text text-anchor="start" x="883" y="-165" font-family="Helvetica,sans-Serif" font-size="10.00">std::stack&lt; FitFunction</text>
<text text-anchor="middle" x="934" y="-152" font-family="Helvetica,sans-Serif" font-size="10.00">::SavedState_t &gt;</text>
</g>
<!-- Node11&#45;&gt;Node6 -->
<g id="edge20" class="edge"><title>Node11&#45;&gt;Node6</title>
<path fill="none" stroke="#9a32cd" stroke-dasharray="5,2" d="M1003.48,-163.234C1029.44,-164.562 1059.13,-166.668 1086,-170 1095.56,-171.186 1105.7,-172.822 1115.43,-174.579"/>
<polygon fill="#9a32cd" stroke="#9a32cd" points="1003.51,-159.731 993.352,-162.745 1003.17,-166.723 1003.51,-159.731"/>
<text text-anchor="middle" x="1055" y="-174" font-family="Helvetica,sans-Serif" font-size="10.00"> UndoStack</text>
</g>
<!-- Node12 -->
<g id="node21" class="node"><title>Node12</title>
<a xlink:title="STL class. ">
<polygon fill="white" stroke="#bfbfbf" points="678.5,-150.5 678.5,-171.5 765.5,-171.5 765.5,-150.5 678.5,-150.5"/>
<text text-anchor="middle" x="722" y="-158.5" font-family="Helvetica,sans-Serif" font-size="10.00">std::vector&lt; T &gt;</text>
</a>
</g>
<!-- Node12&#45;&gt;Node11 -->
<g id="edge22" class="edge"><title>Node12&#45;&gt;Node11</title>
<path fill="none" stroke="#9a32cd" stroke-dasharray="5,2" d="M775.998,-161C806.145,-161 843.75,-161 874.711,-161"/>
<polygon fill="#9a32cd" stroke="#9a32cd" points="775.67,-157.5 765.669,-161 775.669,-164.5 775.67,-157.5"/>
<text text-anchor="middle" x="822" y="-165" font-family="Helvetica,sans-Serif" font-size="10.00"> elements</text>
</g>
<!-- Node13 -->
<g id="node23" class="node"><title>Node13</title>
<polygon fill="white" stroke="#bfbfbf" points="503.5,-150.5 503.5,-171.5 532.5,-171.5 532.5,-150.5 503.5,-150.5"/>
<text text-anchor="middle" x="518" y="-158.5" font-family="Helvetica,sans-Serif" font-size="10.00">T</text>
</g>
<!-- Node13&#45;&gt;Node12 -->
<g id="edge24" class="edge"><title>Node13&#45;&gt;Node12</title>
<path fill="none" stroke="#9a32cd" stroke-dasharray="5,2" d="M542.987,-161C576.622,-161 636.996,-161 678.249,-161"/>
<polygon fill="#9a32cd" stroke="#9a32cd" points="542.671,-157.5 532.671,-161 542.671,-164.5 542.671,-157.5"/>
<text text-anchor="middle" x="622" y="-165" font-family="Helvetica,sans-Serif" font-size="10.00"> elements</text>
</g>
<!-- Node14 -->
<g id="node25" class="node"><title>Node14</title>
<a xlink:href="structant_1_1calibration_1_1gui_1_1_cal_canvas_1_1axis__settings__t.html" target="_top" xlink:title="ant::calibration::gui\l::CalCanvas::axis_settings_t">
<polygon fill="white" stroke="black" points="862.5,-92 862.5,-126 1005.5,-126 1005.5,-92 862.5,-92"/>
<text text-anchor="start" x="870.5" y="-113" font-family="Helvetica,sans-Serif" font-size="10.00">ant::calibration::gui</text>
<text text-anchor="middle" x="934" y="-100" font-family="Helvetica,sans-Serif" font-size="10.00">::CalCanvas::axis_settings_t</text>
</a>
</g>
<!-- Node14&#45;&gt;Node6 -->
<g id="edge26" class="edge"><title>Node14&#45;&gt;Node6</title>
<path fill="none" stroke="#9a32cd" stroke-dasharray="5,2" d="M1015.43,-126.121C1038.53,-131.845 1063.5,-138.873 1086,-147 1102.03,-152.791 1119.16,-160.789 1133.35,-167.953"/>
<polygon fill="#9a32cd" stroke="#9a32cd" points="1016.2,-122.707 1005.66,-123.748 1014.55,-129.509 1016.2,-122.707"/>
<text text-anchor="middle" x="1055" y="-151" font-family="Helvetica,sans-Serif" font-size="10.00"> axis_settings</text>
</g>
<!-- Node15 -->
<g id="node27" class="node"><title>Node15</title>
<a xlink:href="classant_1_1calibration_1_1gui_1_1_fit_function.html" target="_top" xlink:title="ant::calibration::gui\l::FitFunction">
<polygon fill="white" stroke="black" points="884.5,-40 884.5,-74 983.5,-74 983.5,-40 884.5,-40"/>
<text text-anchor="start" x="892.5" y="-61" font-family="Helvetica,sans-Serif" font-size="10.00">ant::calibration::gui</text>
<text text-anchor="middle" x="934" y="-48" font-family="Helvetica,sans-Serif" font-size="10.00">::FitFunction</text>
</a>
</g>
<!-- Node15&#45;&gt;Node6 -->
<g id="edge28" class="edge"><title>Node15&#45;&gt;Node6</title>
<path fill="none" stroke="#9a32cd" stroke-dasharray="5,2" d="M993.187,-71.84C1022.4,-80.6715 1057.42,-93.5935 1086,-111 1111.52,-126.543 1135.81,-151.324 1150.56,-167.873"/>
<polygon fill="#9a32cd" stroke="#9a32cd" points="994.1,-68.4603 983.519,-69.0012 992.127,-75.1767 994.1,-68.4603"/>
<text text-anchor="middle" x="1055" y="-115" font-family="Helvetica,sans-Serif" font-size="10.00"> func</text>
</g>
<!-- Node16 -->
<g id="node29" class="node"><title>Node16</title>
<polygon fill="white" stroke="#bfbfbf" points="662,-40 662,-74 782,-74 782,-40 662,-40"/>
<text text-anchor="start" x="670" y="-61" font-family="Helvetica,sans-Serif" font-size="10.00">std::list&lt; std::unique</text>
<text text-anchor="middle" x="722" y="-48" font-family="Helvetica,sans-Serif" font-size="10.00">_ptr&lt; IndicatorKnob &gt; &gt;</text>
</g>
<!-- Node16&#45;&gt;Node15 -->
<g id="edge30" class="edge"><title>Node16&#45;&gt;Node15</title>
<path fill="none" stroke="#9a32cd" stroke-dasharray="5,2" d="M792.231,-57C822.404,-57 856.956,-57 884.396,-57"/>
<polygon fill="#9a32cd" stroke="#9a32cd" points="792.184,-53.5001 782.184,-57 792.184,-60.5001 792.184,-53.5001"/>
<text text-anchor="middle" x="822" y="-61" font-family="Helvetica,sans-Serif" font-size="10.00"> knobs</text>
</g>
<!-- Node17 -->
<g id="node31" class="node"><title>Node17</title>
<polygon fill="white" stroke="#bfbfbf" points="454,-34 454,-68 582,-68 582,-34 454,-34"/>
<text text-anchor="start" x="462" y="-55" font-family="Helvetica,sans-Serif" font-size="10.00">std::unique_ptr&lt; Indicator</text>
<text text-anchor="middle" x="518" y="-42" font-family="Helvetica,sans-Serif" font-size="10.00">Knob &gt;</text>
</g>
<!-- Node17&#45;&gt;Node16 -->
<g id="edge32" class="edge"><title>Node17&#45;&gt;Node16</title>
<path fill="none" stroke="#9a32cd" stroke-dasharray="5,2" d="M592.278,-53.1847C615.165,-53.8578 640.066,-54.5902 661.876,-55.2317"/>
<polygon fill="#9a32cd" stroke="#9a32cd" points="592.365,-49.6858 582.267,-52.8902 592.16,-56.6828 592.365,-49.6858"/>
<text text-anchor="middle" x="622" y="-59" font-family="Helvetica,sans-Serif" font-size="10.00"> elements</text>
</g>
<!-- Node18 -->
<g id="node33" class="node"><title>Node18</title>
<a xlink:href="classant_1_1calibration_1_1gui_1_1_indicator_knob.html" target="_top" xlink:title="ant::calibration::gui\l::IndicatorKnob">
<polygon fill="white" stroke="black" points="302.5,-34 302.5,-68 401.5,-68 401.5,-34 302.5,-34"/>
<text text-anchor="start" x="310.5" y="-55" font-family="Helvetica,sans-Serif" font-size="10.00">ant::calibration::gui</text>
<text text-anchor="middle" x="352" y="-42" font-family="Helvetica,sans-Serif" font-size="10.00">::IndicatorKnob</text>
</a>
</g>
<!-- Node18&#45;&gt;Node17 -->
<g id="edge34" class="edge"><title>Node18&#45;&gt;Node17</title>
<path fill="none" stroke="#9a32cd" stroke-dasharray="5,2" d="M411.984,-51C425.557,-51 440.022,-51 453.763,-51"/>
<polygon fill="#9a32cd" stroke="#9a32cd" points="411.806,-47.5001 401.805,-51 411.805,-54.5001 411.806,-47.5001"/>
<text text-anchor="middle" x="428" y="-55" font-family="Helvetica,sans-Serif" font-size="10.00"> ptr</text>
</g>
<!-- Node19 -->
<g id="node35" class="node"><title>Node19</title>
<a xlink:title="STL class. ">
<polygon fill="white" stroke="#bfbfbf" points="156,-84.5 156,-105.5 216,-105.5 216,-84.5 156,-84.5"/>
<text text-anchor="middle" x="186" y="-92.5" font-family="Helvetica,sans-Serif" font-size="10.00">std::string</text>
</a>
</g>
<!-- Node19&#45;&gt;Node15 -->
<g id="edge42" class="edge"><title>Node19&#45;&gt;Node15</title>
<path fill="none" stroke="#9a32cd" stroke-dasharray="5,2" d="M226.602,-98.4315C260.19,-100.974 309.159,-104 352,-104 352,-104 352,-104 722,-104 779.114,-104 842.876,-87.5395 885.414,-74.101"/>
<polygon fill="#9a32cd" stroke="#9a32cd" points="226.506,-94.9135 216.264,-97.6274 225.963,-101.892 226.506,-94.9135"/>
<text text-anchor="middle" x="518" y="-108" font-family="Helvetica,sans-Serif" font-size="10.00"> AdditionalFitArgs</text>
</g>
<!-- Node19&#45;&gt;Node18 -->
<g id="edge36" class="edge"><title>Node19&#45;&gt;Node18</title>
<path fill="none" stroke="#9a32cd" stroke-dasharray="5,2" d="M225.818,-84.4458C248.778,-78.3601 277.848,-70.6547 302.297,-64.1742"/>
<polygon fill="#9a32cd" stroke="#9a32cd" points="224.831,-81.0866 216.061,-87.0319 226.624,-87.8529 224.831,-81.0866"/>
<text text-anchor="middle" x="270" y="-80" font-family="Helvetica,sans-Serif" font-size="10.00"> name</text>
</g>
<!-- Node20 -->
<g id="node37" class="node"><title>Node20</title>
<a xlink:title="STL class. ">
<polygon fill="white" stroke="#bfbfbf" points="0.5,-78 0.5,-112 95.5,-112 95.5,-78 0.5,-78"/>
<text text-anchor="start" x="8.5" y="-99" font-family="Helvetica,sans-Serif" font-size="10.00">std::basic_string&lt;</text>
<text text-anchor="middle" x="48" y="-86" font-family="Helvetica,sans-Serif" font-size="10.00"> char &gt;</text>
</a>
</g>
<!-- Node20&#45;&gt;Node19 -->
<g id="edge38" class="edge"><title>Node20&#45;&gt;Node19</title>
<path fill="none" stroke="midnightblue" d="M106.346,-95C123.405,-95 141.354,-95 155.886,-95"/>
<polygon fill="midnightblue" stroke="midnightblue" points="105.878,-91.5001 95.8784,-95 105.878,-98.5001 105.878,-91.5001"/>
</g>
<!-- Node21 -->
<g id="node39" class="node"><title>Node21</title>
<a xlink:href="structant_1_1calibration_1_1gui_1_1_indicator_properties.html" target="_top" xlink:title="ant::calibration::gui\l::IndicatorProperties">
<polygon fill="white" stroke="black" points="134,-23 134,-57 238,-57 238,-23 134,-23"/>
<text text-anchor="start" x="142" y="-44" font-family="Helvetica,sans-Serif" font-size="10.00">ant::calibration::gui</text>
<text text-anchor="middle" x="186" y="-31" font-family="Helvetica,sans-Serif" font-size="10.00">::IndicatorProperties</text>
</a>
</g>
<!-- Node21&#45;&gt;Node18 -->
<g id="edge40" class="edge"><title>Node21&#45;&gt;Node18</title>
<path fill="none" stroke="#9a32cd" stroke-dasharray="5,2" d="M248.437,-39.3686C260.261,-39.6082 272.52,-40.1015 284,-41 289.948,-41.4655 296.167,-42.1307 302.323,-42.8997"/>
<polygon fill="#9a32cd" stroke="#9a32cd" points="248.239,-35.8654 238.189,-39.2196 248.137,-42.8647 248.239,-35.8654"/>
<text text-anchor="middle" x="270" y="-45" font-family="Helvetica,sans-Serif" font-size="10.00"> gui</text>
</g>
<!-- Node22 -->
<g id="node42" class="node"><title>Node22</title>
<a xlink:href="classant_1_1_t_h2_c_b.html" target="_top" xlink:title="The TH2CB class. ">
<polygon fill="white" stroke="black" points="1130.5,-78.5 1130.5,-99.5 1199.5,-99.5 1199.5,-78.5 1130.5,-78.5"/>
<text text-anchor="middle" x="1165" y="-86.5" font-family="Helvetica,sans-Serif" font-size="10.00">ant::TH2CB</text>
</a>
</g>
<!-- Node22&#45;&gt;Node2 -->
<g id="edge44" class="edge"><title>Node22&#45;&gt;Node2</title>
<path fill="none" stroke="#9a32cd" stroke-dasharray="5,2" d="M1194.63,-104.261C1238.2,-126.697 1319.27,-168.454 1364.79,-191.898"/>
<polygon fill="#9a32cd" stroke="#9a32cd" points="1196.17,-101.116 1185.68,-99.6492 1192.96,-107.339 1196.17,-101.116"/>
<text text-anchor="middle" x="1283" y="-170" font-family="Helvetica,sans-Serif" font-size="10.00"> AmBe_peaks_cb</text>
</g>
<!-- Node23 -->
<g id="node44" class="node"><title>Node23</title>
<a xlink:href="classant_1_1_t_h2_crystals.html" target="_top" xlink:title="Base class for A2 Calorimeter display classes. ">
<polygon fill="white" stroke="black" points="888,-0.5 888,-21.5 980,-21.5 980,-0.5 888,-0.5"/>
<text text-anchor="middle" x="934" y="-8.5" font-family="Helvetica,sans-Serif" font-size="10.00">ant::TH2Crystals</text>
</a>
</g>
<!-- Node23&#45;&gt;Node22 -->
<g id="edge46" class="edge"><title>Node23&#45;&gt;Node22</title>
<path fill="none" stroke="midnightblue" d="M990.299,-19.0176C1019.47,-24.2147 1055.32,-32.2496 1086,-44 1109.44,-52.9768 1134.24,-68.1618 1149.66,-78.3804"/>
<polygon fill="midnightblue" stroke="midnightblue" points="990.726,-15.5396 980.277,-17.2962 989.541,-22.4386 990.726,-15.5396"/>
</g>
<!-- Node24 -->
<g id="node46" class="node"><title>Node24</title>
<polygon fill="white" stroke="#bfbfbf" points="694.5,-0.5 694.5,-21.5 749.5,-21.5 749.5,-0.5 694.5,-0.5"/>
<text text-anchor="middle" x="722" y="-8.5" font-family="Helvetica,sans-Serif" font-size="10.00">TH2Poly</text>
</g>
<!-- Node24&#45;&gt;Node23 -->
<g id="edge48" class="edge"><title>Node24&#45;&gt;Node23</title>
<path fill="none" stroke="midnightblue" d="M759.745,-11C795.503,-11 849.29,-11 887.639,-11"/>
<polygon fill="midnightblue" stroke="midnightblue" points="759.715,-7.5001 749.715,-11 759.715,-14.5001 759.715,-7.5001"/>
</g>
</g>
</svg>
