<?xml version="1.0" encoding="UTF-8" standalone="no"?>
<!DOCTYPE svg PUBLIC "-//W3C//DTD SVG 1.1//EN"
 "http://www.w3.org/Graphics/SVG/1.1/DTD/svg11.dtd">
<!-- Generated by graphviz version 2.26.3 (20100126.1600)
 -->
<!-- Title: ant::WrapTFileInput Pages: 1 -->
<svg width="128pt" height="248pt"
 viewBox="0.00 0.00 128.00 248.00" xmlns="http://www.w3.org/2000/svg" xmlns:xlink="http://www.w3.org/1999/xlink">
<g id="graph1" class="graph" transform="scale(1 1) rotate(0) translate(4 244)">
<title>ant::WrapTFileInput</title>
<polygon fill="white" stroke="white" points="-4,5 -4,-244 125,-244 125,5 -4,5"/>
<!-- Node2 -->
<g id="node1" class="node"><title>Node2</title>
<polygon fill="#bfbfbf" stroke="black" points="8.5,-0.5 8.5,-21.5 111.5,-21.5 111.5,-0.5 8.5,-0.5"/>
<text text-anchor="middle" x="60" y="-8.5" font-family="Helvetica,sans-Serif" font-size="10.00">ant::WrapTFileInput</text>
</g>
<!-- Node3 -->
<g id="node2" class="node"><title>Node3</title>
<a xlink:href="classant_1_1_wrap_t_file.html" target="_top" xlink:title="ant::WrapTFile">
<polygon fill="white" stroke="black" points="19.5,-60.5 19.5,-81.5 100.5,-81.5 100.5,-60.5 19.5,-60.5"/>
<text text-anchor="middle" x="60" y="-68.5" font-family="Helvetica,sans-Serif" font-size="10.00">ant::WrapTFile</text>
</a>
</g>
<!-- Node3&#45;&gt;Node2 -->
<g id="edge2" class="edge"><title>Node3&#45;&gt;Node2</title>
<path fill="none" stroke="midnightblue" d="M60,-50.2312C60,-40.5922 60,-29.5444 60,-21.6339"/>
<polygon fill="midnightblue" stroke="midnightblue" points="56.5001,-50.2732 60,-60.2732 63.5001,-50.2732 56.5001,-50.2732"/>
</g>
<!-- Node4 -->
<g id="node4" class="node"><title>Node4</title>
<polygon fill="white" stroke="#bfbfbf" points="7,-133 7,-167 113,-167 113,-133 7,-133"/>
<text text-anchor="start" x="15" y="-154" font-family="Helvetica,sans-Serif" font-size="10.00">std::list&lt; std::unique</text>
<text text-anchor="middle" x="60" y="-141" font-family="Helvetica,sans-Serif" font-size="10.00">_ptr&lt; TFile &gt; &gt;</text>
</g>
<!-- Node4&#45;&gt;Node3 -->
<g id="edge4" class="edge"><title>Node4&#45;&gt;Node3</title>
<path fill="none" stroke="#9a32cd" stroke-dasharray="5,2" d="M60,-122.623C60,-108.473 60,-92.0243 60,-81.5672"/>
<polygon fill="#9a32cd" stroke="#9a32cd" points="56.5001,-122.858 60,-132.858 63.5001,-122.858 56.5001,-122.858"/>
<text text-anchor="middle" x="71" y="-104.5" font-family="Helvetica,sans-Serif" font-size="10.00"> files</text>
</g>
<!-- Node5 -->
<g id="node6" class="node"><title>Node5</title>
<polygon fill="white" stroke="#bfbfbf" points="-0.5,-218.5 -0.5,-239.5 120.5,-239.5 120.5,-218.5 -0.5,-218.5"/>
<text text-anchor="middle" x="60" y="-226.5" font-family="Helvetica,sans-Serif" font-size="10.00">std::unique_ptr&lt; TFile &gt;</text>
</g>
<!-- Node5&#45;&gt;Node4 -->
<g id="edge6" class="edge"><title>Node5&#45;&gt;Node4</title>
<path fill="none" stroke="#9a32cd" stroke-dasharray="5,2" d="M60,-208.162C60,-195.363 60,-179.171 60,-167.124"/>
<polygon fill="#9a32cd" stroke="#9a32cd" points="56.5001,-208.346 60,-218.346 63.5001,-208.346 56.5001,-208.346"/>
<text text-anchor="middle" x="81.5" y="-190.5" font-family="Helvetica,sans-Serif" font-size="10.00"> elements</text>
</g>
</g>
</svg>
