<?xml version="1.0" encoding="UTF-8" standalone="no"?>
<!DOCTYPE svg PUBLIC "-//W3C//DTD SVG 1.1//EN"
 "http://www.w3.org/Graphics/SVG/1.1/DTD/svg11.dtd">
<!-- Generated by graphviz version 2.26.3 (20100126.1600)
 -->
<!-- Title: ant::WrapTFile Pages: 1 -->
<svg width="128pt" height="188pt"
 viewBox="0.00 0.00 128.00 188.00" xmlns="http://www.w3.org/2000/svg" xmlns:xlink="http://www.w3.org/1999/xlink">
<g id="graph1" class="graph" transform="scale(1 1) rotate(0) translate(4 184)">
<title>ant::WrapTFile</title>
<polygon fill="white" stroke="white" points="-4,5 -4,-184 125,-184 125,5 -4,5"/>
<!-- Node3 -->
<g id="node1" class="node"><title>Node3</title>
<polygon fill="#bfbfbf" stroke="black" points="19.5,-0.5 19.5,-21.5 100.5,-21.5 100.5,-0.5 19.5,-0.5"/>
<text text-anchor="middle" x="60" y="-8.5" font-family="Helvetica,sans-Serif" font-size="10.00">ant::WrapTFile</text>
</g>
<!-- Node4 -->
<g id="node2" class="node"><title>Node4</title>
<polygon fill="white" stroke="#bfbfbf" points="7,-73 7,-107 113,-107 113,-73 7,-73"/>
<text text-anchor="start" x="15" y="-94" font-family="Helvetica,sans-Serif" font-size="10.00">std::list&lt; std::unique</text>
<text text-anchor="middle" x="60" y="-81" font-family="Helvetica,sans-Serif" font-size="10.00">_ptr&lt; TFile &gt; &gt;</text>
</g>
<!-- Node4&#45;&gt;Node3 -->
<g id="edge2" class="edge"><title>Node4&#45;&gt;Node3</title>
<path fill="none" stroke="#9a32cd" stroke-dasharray="5,2" d="M60,-62.6228C60,-48.4727 60,-32.0243 60,-21.5672"/>
<polygon fill="#9a32cd" stroke="#9a32cd" points="56.5001,-62.8581 60,-72.8582 63.5001,-62.8582 56.5001,-62.8581"/>
<text text-anchor="middle" x="71" y="-44.5" font-family="Helvetica,sans-Serif" font-size="10.00"> files</text>
</g>
<!-- Node5 -->
<g id="node4" class="node"><title>Node5</title>
<polygon fill="white" stroke="#bfbfbf" points="-0.5,-158.5 -0.5,-179.5 120.5,-179.5 120.5,-158.5 -0.5,-158.5"/>
<text text-anchor="middle" x="60" y="-166.5" font-family="Helvetica,sans-Serif" font-size="10.00">std::unique_ptr&lt; TFile &gt;</text>
</g>
<!-- Node5&#45;&gt;Node4 -->
<g id="edge4" class="edge"><title>Node5&#45;&gt;Node4</title>
<path fill="none" stroke="#9a32cd" stroke-dasharray="5,2" d="M60,-148.162C60,-135.363 60,-119.171 60,-107.124"/>
<polygon fill="#9a32cd" stroke="#9a32cd" points="56.5001,-148.346 60,-158.346 63.5001,-148.346 56.5001,-148.346"/>
<text text-anchor="middle" x="81.5" y="-130.5" font-family="Helvetica,sans-Serif" font-size="10.00"> elements</text>
</g>
</g>
</svg>
