<?xml version="1.0" encoding="UTF-8" standalone="no"?>
<!DOCTYPE svg PUBLIC "-//W3C//DTD SVG 1.1//EN"
 "http://www.w3.org/Graphics/SVG/1.1/DTD/svg11.dtd">
<!-- Generated by graphviz version 2.26.3 (20100126.1600)
 -->
<!-- Title: ant::calibration::gui::AvgBuffer_SavitzkyGolay&lt; AvgBufferItem &gt; Pages: 1 -->
<svg width="154pt" height="140pt"
 viewBox="0.00 0.00 154.00 140.00" xmlns="http://www.w3.org/2000/svg" xmlns:xlink="http://www.w3.org/1999/xlink">
<g id="graph1" class="graph" transform="scale(1 1) rotate(0) translate(4 136)">
<title>ant::calibration::gui::AvgBuffer_SavitzkyGolay&lt; AvgBufferItem &gt;</title>
<polygon fill="white" stroke="white" points="-4,5 -4,-136 151,-136 151,5 -4,5"/>
<!-- Node0 -->
<g id="node1" class="node"><title>Node0</title>
<polygon fill="#bfbfbf" stroke="black" points="5.5,-0.5 5.5,-47.5 140.5,-47.5 140.5,-0.5 5.5,-0.5"/>
<text text-anchor="start" x="13.5" y="-34.5" font-family="Helvetica,sans-Serif" font-size="10.00">ant::calibration::gui</text>
<text text-anchor="start" x="13.5" y="-21.5" font-family="Helvetica,sans-Serif" font-size="10.00">::AvgBuffer_SavitzkyGolay</text>
<text text-anchor="middle" x="73" y="-8.5" font-family="Helvetica,sans-Serif" font-size="10.00">&lt; AvgBufferItem &gt;</text>
</g>
<!-- Node1 -->
<g id="node2" class="node"><title>Node1</title>
<a xlink:href="classant_1_1calibration_1_1gui_1_1_avg_buffer__traits.html" target="_top" xlink:title="ant::calibration::gui\l::AvgBuffer_traits\&lt; AvgBuffer\lItem \&gt;">
<polygon fill="white" stroke="black" points="0,-84.5 0,-131.5 146,-131.5 146,-84.5 0,-84.5"/>
<text text-anchor="start" x="8" y="-118.5" font-family="Helvetica,sans-Serif" font-size="10.00">ant::calibration::gui</text>
<text text-anchor="start" x="8" y="-105.5" font-family="Helvetica,sans-Serif" font-size="10.00">::AvgBuffer_traits&lt; AvgBuffer</text>
<text text-anchor="middle" x="73" y="-92.5" font-family="Helvetica,sans-Serif" font-size="10.00">Item &gt;</text>
</a>
</g>
<!-- Node1&#45;&gt;Node0 -->
<g id="edge2" class="edge"><title>Node1&#45;&gt;Node0</title>
<path fill="none" stroke="midnightblue" d="M73,-74.0664C73,-65.1933 73,-55.821 73,-47.6152"/>
<polygon fill="midnightblue" stroke="midnightblue" points="69.5001,-74.1536 73,-84.1537 76.5001,-74.1537 69.5001,-74.1536"/>
</g>
</g>
</svg>
