<?xml version="1.0" encoding="UTF-8" standalone="no"?>
<!DOCTYPE svg PUBLIC "-//W3C//DTD SVG 1.1//EN"
 "http://www.w3.org/Graphics/SVG/1.1/DTD/svg11.dtd">
<!-- Generated by graphviz version 2.26.3 (20100126.1600)
 -->
<!-- Title: ant::analysis::physics::Omega_EpEm_mc Pages: 1 -->
<svg width="274pt" height="242pt"
 viewBox="0.00 0.00 274.00 242.00" xmlns="http://www.w3.org/2000/svg" xmlns:xlink="http://www.w3.org/1999/xlink">
<g id="graph1" class="graph" transform="scale(1 1) rotate(0) translate(4 238)">
<title>ant::analysis::physics::Omega_EpEm_mc</title>
<polygon fill="white" stroke="white" points="-4,5 -4,-238 271,-238 271,5 -4,5"/>
<!-- Node2 -->
<g id="node1" class="node"><title>Node2</title>
<polygon fill="#bfbfbf" stroke="black" points="85,-1 85,-35 197,-35 197,-1 85,-1"/>
<text text-anchor="start" x="93" y="-22" font-family="Helvetica,sans-Serif" font-size="10.00">ant::analysis::physics</text>
<text text-anchor="middle" x="141" y="-9" font-family="Helvetica,sans-Serif" font-size="10.00">::Omega_EpEm_mc</text>
</g>
<!-- Node3 -->
<g id="node2" class="node"><title>Node3</title>
<a xlink:href="classant_1_1analysis_1_1_physics.html" target="_top" xlink:title="ant::analysis::Physics">
<polygon fill="white" stroke="black" points="7.5,-93.5 7.5,-114.5 120.5,-114.5 120.5,-93.5 7.5,-93.5"/>
<text text-anchor="middle" x="64" y="-101.5" font-family="Helvetica,sans-Serif" font-size="10.00">ant::analysis::Physics</text>
</a>
</g>
<!-- Node3&#45;&gt;Node2 -->
<g id="edge2" class="edge"><title>Node3&#45;&gt;Node2</title>
<path fill="none" stroke="midnightblue" d="M80.2452,-85.856C93.6315,-70.9051 112.484,-49.8486 125.626,-35.1709"/>
<polygon fill="midnightblue" stroke="midnightblue" points="77.5047,-83.6699 73.4417,-93.4547 82.7198,-88.3392 77.5047,-83.6699"/>
</g>
<!-- Node4 -->
<g id="node4" class="node"><title>Node4</title>
<a xlink:href="classant_1_1analysis_1_1_histogram_factory.html" target="_top" xlink:title="ant::analysis::Histogram\lFactory">
<polygon fill="white" stroke="black" points="-0.5,-199 -0.5,-233 122.5,-233 122.5,-199 -0.5,-199"/>
<text text-anchor="start" x="7.5" y="-220" font-family="Helvetica,sans-Serif" font-size="10.00">ant::analysis::Histogram</text>
<text text-anchor="middle" x="61" y="-207" font-family="Helvetica,sans-Serif" font-size="10.00">Factory</text>
</a>
</g>
<!-- Node4&#45;&gt;Node3 -->
<g id="edge4" class="edge"><title>Node4&#45;&gt;Node3</title>
<path fill="none" stroke="#9a32cd" stroke-dasharray="5,2" d="M61.7281,-188.817C62.3658,-165.01 63.2593,-131.652 63.7123,-114.741"/>
<polygon fill="#9a32cd" stroke="#9a32cd" points="58.2247,-188.899 61.4556,-198.99 65.2222,-189.087 58.2247,-188.899"/>
<text text-anchor="middle" x="83" y="-157.5" font-family="Helvetica,sans-Serif" font-size="10.00"> HistFac</text>
</g>
<!-- Node5 -->
<g id="node6" class="node"><title>Node5</title>
<a xlink:href="classant_1_1analysis_1_1utils_1_1_a2_simple_geometry.html" target="_top" xlink:title="ant::analysis::utils\l::A2SimpleGeometry">
<polygon fill="white" stroke="black" points="141.5,-87 141.5,-121 248.5,-121 248.5,-87 141.5,-87"/>
<text text-anchor="start" x="149.5" y="-108" font-family="Helvetica,sans-Serif" font-size="10.00">ant::analysis::utils</text>
<text text-anchor="middle" x="195" y="-95" font-family="Helvetica,sans-Serif" font-size="10.00">::A2SimpleGeometry</text>
</a>
</g>
<!-- Node5&#45;&gt;Node2 -->
<g id="edge6" class="edge"><title>Node5&#45;&gt;Node2</title>
<path fill="none" stroke="#9a32cd" stroke-dasharray="5,2" d="M178.638,-77.9426C169.909,-64.041 159.415,-47.3271 151.727,-35.084"/>
<polygon fill="#9a32cd" stroke="#9a32cd" points="175.79,-79.9889 184.072,-86.5966 181.719,-76.2665 175.79,-79.9889"/>
<text text-anchor="middle" x="186" y="-58.5" font-family="Helvetica,sans-Serif" font-size="10.00"> a2geo</text>
</g>
<!-- Node6 -->
<g id="node8" class="node"><title>Node6</title>
<a xlink:href="classant_1_1interval.html" target="_top" xlink:title="ant::interval\&lt; double \&gt;">
<polygon fill="white" stroke="black" points="140,-205.5 140,-226.5 254,-226.5 254,-205.5 140,-205.5"/>
<text text-anchor="middle" x="197" y="-213.5" font-family="Helvetica,sans-Serif" font-size="10.00">ant::interval&lt; double &gt;</text>
</a>
</g>
<!-- Node6&#45;&gt;Node5 -->
<g id="edge8" class="edge"><title>Node6&#45;&gt;Node5</title>
<path fill="none" stroke="#9a32cd" stroke-dasharray="5,2" d="M196.625,-194.972C196.243,-173.59 195.658,-140.865 195.304,-121.045"/>
<polygon fill="#9a32cd" stroke="#9a32cd" points="193.13,-195.325 196.808,-205.261 200.129,-195.2 193.13,-195.325"/>
<text text-anchor="middle" x="231" y="-170.5" font-family="Helvetica,sans-Serif" font-size="10.00"> cb_phi_hem1</text>
<text text-anchor="middle" x="231" y="-157.5" font-family="Helvetica,sans-Serif" font-size="10.00">cb_theta_region</text>
<text text-anchor="middle" x="231" y="-144.5" font-family="Helvetica,sans-Serif" font-size="10.00">taps_region</text>
</g>
</g>
</svg>
