<?xml version="1.0" encoding="UTF-8" standalone="no"?>
<!DOCTYPE svg PUBLIC "-//W3C//DTD SVG 1.1//EN"
 "http://www.w3.org/Graphics/SVG/1.1/DTD/svg11.dtd">
<!-- Generated by graphviz version 2.26.3 (20100126.1600)
 -->
<!-- Title: ant::analysis::physics::TPC_PhysicsStats Pages: 1 -->
<svg width="253pt" height="290pt"
 viewBox="0.00 0.00 253.00 290.00" xmlns="http://www.w3.org/2000/svg" xmlns:xlink="http://www.w3.org/1999/xlink">
<g id="graph1" class="graph" transform="scale(1 1) rotate(0) translate(4 286)">
<title>ant::analysis::physics::TPC_PhysicsStats</title>
<polygon fill="white" stroke="white" points="-4,5 -4,-286 250,-286 250,5 -4,5"/>
<!-- Node2 -->
<g id="node1" class="node"><title>Node2</title>
<polygon fill="#bfbfbf" stroke="black" points="81,-1 81,-35 193,-35 193,-1 81,-1"/>
<text text-anchor="start" x="89" y="-22" font-family="Helvetica,sans-Serif" font-size="10.00">ant::analysis::physics</text>
<text text-anchor="middle" x="137" y="-9" font-family="Helvetica,sans-Serif" font-size="10.00">::TPC_PhysicsStats</text>
</g>
<!-- Node3 -->
<g id="node2" class="node"><title>Node3</title>
<a xlink:href="classant_1_1analysis_1_1_physics.html" target="_top" xlink:title="ant::analysis::Physics">
<polygon fill="white" stroke="black" points="4.5,-93.5 4.5,-114.5 117.5,-114.5 117.5,-93.5 4.5,-93.5"/>
<text text-anchor="middle" x="61" y="-101.5" font-family="Helvetica,sans-Serif" font-size="10.00">ant::analysis::Physics</text>
</a>
</g>
<!-- Node3&#45;&gt;Node2 -->
<g id="edge2" class="edge"><title>Node3&#45;&gt;Node2</title>
<path fill="none" stroke="midnightblue" d="M77.0342,-85.856C90.2467,-70.9051 108.855,-49.8486 121.826,-35.1709"/>
<polygon fill="midnightblue" stroke="midnightblue" points="74.3184,-83.6437 70.3191,-93.4547 79.5638,-88.2791 74.3184,-83.6437"/>
</g>
<!-- Node4 -->
<g id="node4" class="node"><title>Node4</title>
<a xlink:href="classant_1_1analysis_1_1_histogram_factory.html" target="_top" xlink:title="ant::analysis::Histogram\lFactory">
<polygon fill="white" stroke="black" points="-0.5,-173 -0.5,-207 122.5,-207 122.5,-173 -0.5,-173"/>
<text text-anchor="start" x="7.5" y="-194" font-family="Helvetica,sans-Serif" font-size="10.00">ant::analysis::Histogram</text>
<text text-anchor="middle" x="61" y="-181" font-family="Helvetica,sans-Serif" font-size="10.00">Factory</text>
</a>
</g>
<!-- Node4&#45;&gt;Node3 -->
<g id="edge4" class="edge"><title>Node4&#45;&gt;Node3</title>
<path fill="none" stroke="#9a32cd" stroke-dasharray="5,2" d="M61,-162.56C61,-146.365 61,-126.766 61,-114.848"/>
<polygon fill="#9a32cd" stroke="#9a32cd" points="57.5001,-162.597 61,-172.597 64.5001,-162.597 57.5001,-162.597"/>
<text text-anchor="middle" x="80" y="-144.5" font-family="Helvetica,sans-Serif" font-size="10.00"> HistFac</text>
</g>
<!-- Node5 -->
<g id="node6" class="node"><title>Node5</title>
<polygon fill="white" stroke="#bfbfbf" points="135,-87 135,-121 245,-121 245,-87 135,-87"/>
<text text-anchor="start" x="143" y="-108" font-family="Helvetica,sans-Serif" font-size="10.00">std::map&lt; std::string,</text>
<text text-anchor="middle" x="190" y="-95" font-family="Helvetica,sans-Serif" font-size="10.00"> TH1D *&gt;</text>
</g>
<!-- Node5&#45;&gt;Node2 -->
<g id="edge6" class="edge"><title>Node5&#45;&gt;Node2</title>
<path fill="none" stroke="#9a32cd" stroke-dasharray="5,2" d="M173.941,-77.9426C165.374,-64.041 155.074,-47.3271 147.529,-35.084"/>
<polygon fill="#9a32cd" stroke="#9a32cd" points="171.048,-79.9197 179.275,-86.5966 177.008,-76.2471 171.048,-79.9197"/>
<text text-anchor="middle" x="198" y="-58.5" font-family="Helvetica,sans-Serif" font-size="10.00"> decay_angles</text>
</g>
<!-- Node6 -->
<g id="node8" class="node"><title>Node6</title>
<a xlink:title="STL class. ">
<polygon fill="white" stroke="#bfbfbf" points="160,-179.5 160,-200.5 220,-200.5 220,-179.5 160,-179.5"/>
<text text-anchor="middle" x="190" y="-187.5" font-family="Helvetica,sans-Serif" font-size="10.00">std::string</text>
</a>
</g>
<!-- Node6&#45;&gt;Node5 -->
<g id="edge8" class="edge"><title>Node6&#45;&gt;Node5</title>
<path fill="none" stroke="#9a32cd" stroke-dasharray="5,2" d="M190,-169.31C190,-154.585 190,-135.033 190,-121.171"/>
<polygon fill="#9a32cd" stroke="#9a32cd" points="186.5,-169.455 190,-179.455 193.5,-169.455 186.5,-169.455"/>
<text text-anchor="middle" x="202.5" y="-144.5" font-family="Helvetica,sans-Serif" font-size="10.00"> keys</text>
</g>
<!-- Node7 -->
<g id="node10" class="node"><title>Node7</title>
<a xlink:title="STL class. ">
<polygon fill="white" stroke="#bfbfbf" points="142.5,-247 142.5,-281 237.5,-281 237.5,-247 142.5,-247"/>
<text text-anchor="start" x="150.5" y="-268" font-family="Helvetica,sans-Serif" font-size="10.00">std::basic_string&lt;</text>
<text text-anchor="middle" x="190" y="-255" font-family="Helvetica,sans-Serif" font-size="10.00"> char &gt;</text>
</a>
</g>
<!-- Node7&#45;&gt;Node6 -->
<g id="edge10" class="edge"><title>Node7&#45;&gt;Node6</title>
<path fill="none" stroke="midnightblue" d="M190,-236.506C190,-224.13 190,-210.232 190,-200.879"/>
<polygon fill="midnightblue" stroke="midnightblue" points="186.5,-236.837 190,-246.837 193.5,-236.837 186.5,-236.837"/>
</g>
</g>
</svg>
