<?xml version="1.0" encoding="UTF-8" standalone="no"?>
<!DOCTYPE svg PUBLIC "-//W3C//DTD SVG 1.1//EN"
 "http://www.w3.org/Graphics/SVG/1.1/DTD/svg11.dtd">
<!-- Generated by graphviz version 2.26.3 (20100126.1600)
 -->
<!-- Title: ant::calibration::gui::IndicatorLine Pages: 1 -->
<svg width="546pt" height="94pt"
 viewBox="0.00 0.00 546.00 94.00" xmlns="http://www.w3.org/2000/svg" xmlns:xlink="http://www.w3.org/1999/xlink">
<g id="graph1" class="graph" transform="scale(1 1) rotate(0) translate(4 90)">
<title>ant::calibration::gui::IndicatorLine</title>
<polygon fill="white" stroke="white" points="-4,5 -4,-90 543,-90 543,5 -4,5"/>
<!-- Node0 -->
<g id="node1" class="node"><title>Node0</title>
<polygon fill="#bfbfbf" stroke="black" points="280.5,-26 280.5,-60 379.5,-60 379.5,-26 280.5,-26"/>
<text text-anchor="start" x="288.5" y="-47" font-family="Helvetica,sans-Serif" font-size="10.00">ant::calibration::gui</text>
<text text-anchor="middle" x="330" y="-34" font-family="Helvetica,sans-Serif" font-size="10.00">::IndicatorLine</text>
</g>
<!-- Node4 -->
<g id="node9" class="node"><title>Node4</title>
<a xlink:href="classant_1_1calibration_1_1gui_1_1_horizontal_indicator_line.html" target="_top" xlink:title="ant::calibration::gui\l::HorizontalIndicatorLine">
<polygon fill="white" stroke="black" points="416,-52 416,-86 538,-86 538,-52 416,-52"/>
<text text-anchor="start" x="424" y="-73" font-family="Helvetica,sans-Serif" font-size="10.00">ant::calibration::gui</text>
<text text-anchor="middle" x="477" y="-60" font-family="Helvetica,sans-Serif" font-size="10.00">::HorizontalIndicatorLine</text>
</a>
</g>
<!-- Node0&#45;&gt;Node4 -->
<g id="edge8" class="edge"><title>Node0&#45;&gt;Node4</title>
<path fill="none" stroke="midnightblue" d="M389.715,-53.5619C398.317,-55.0833 407.18,-56.6509 415.81,-58.1772"/>
<polygon fill="midnightblue" stroke="midnightblue" points="390.224,-50.0977 379.767,-51.8024 389.005,-56.9907 390.224,-50.0977"/>
</g>
<!-- Node5 -->
<g id="node11" class="node"><title>Node5</title>
<a xlink:href="classant_1_1calibration_1_1gui_1_1_vertical_indicator_line.html" target="_top" xlink:title="ant::calibration::gui\l::VerticalIndicatorLine">
<polygon fill="white" stroke="black" points="421.5,-0 421.5,-34 532.5,-34 532.5,-0 421.5,-0"/>
<text text-anchor="start" x="429.5" y="-21" font-family="Helvetica,sans-Serif" font-size="10.00">ant::calibration::gui</text>
<text text-anchor="middle" x="477" y="-8" font-family="Helvetica,sans-Serif" font-size="10.00">::VerticalIndicatorLine</text>
</a>
</g>
<!-- Node0&#45;&gt;Node5 -->
<g id="edge10" class="edge"><title>Node0&#45;&gt;Node5</title>
<path fill="none" stroke="midnightblue" d="M389.689,-32.4427C400.193,-30.5849 411.087,-28.6581 421.471,-26.8214"/>
<polygon fill="midnightblue" stroke="midnightblue" points="389.005,-29.0093 379.767,-34.1976 390.224,-35.9023 389.005,-29.0093"/>
</g>
<!-- Node1 -->
<g id="node2" class="node"><title>Node1</title>
<polygon fill="white" stroke="#bfbfbf" points="173.5,-55.5 173.5,-76.5 214.5,-76.5 214.5,-55.5 173.5,-55.5"/>
<text text-anchor="middle" x="194" y="-63.5" font-family="Helvetica,sans-Serif" font-size="10.00">TLine</text>
</g>
<!-- Node1&#45;&gt;Node0 -->
<g id="edge2" class="edge"><title>Node1&#45;&gt;Node0</title>
<path fill="none" stroke="midnightblue" d="M224.758,-60.7982C241.144,-58.0271 261.702,-54.5503 280.29,-51.4068"/>
<polygon fill="midnightblue" stroke="midnightblue" points="223.932,-57.3882 214.655,-62.5068 225.099,-64.2902 223.932,-57.3882"/>
</g>
<!-- Node2 -->
<g id="node4" class="node"><title>Node2</title>
<a xlink:href="classant_1_1calibration_1_1gui_1_1_indicator.html" target="_top" xlink:title="ant::calibration::gui\l::Indicator">
<polygon fill="white" stroke="black" points="144.5,-3 144.5,-37 243.5,-37 243.5,-3 144.5,-3"/>
<text text-anchor="start" x="152.5" y="-24" font-family="Helvetica,sans-Serif" font-size="10.00">ant::calibration::gui</text>
<text text-anchor="middle" x="194" y="-11" font-family="Helvetica,sans-Serif" font-size="10.00">::Indicator</text>
</a>
</g>
<!-- Node2&#45;&gt;Node0 -->
<g id="edge4" class="edge"><title>Node2&#45;&gt;Node0</title>
<path fill="none" stroke="midnightblue" d="M254,-30.147C262.729,-31.6233 271.637,-33.1298 280.137,-34.5673"/>
<polygon fill="midnightblue" stroke="midnightblue" points="254.313,-26.6503 243.869,-28.4338 253.145,-33.5523 254.313,-26.6503"/>
</g>
<!-- Node3 -->
<g id="node6" class="node"><title>Node3</title>
<a xlink:href="classant_1_1calibration_1_1gui_1_1update__notify__traits.html" target="_top" xlink:title="ant::calibration::gui\l::update_notify_traits">
<polygon fill="white" stroke="black" points="0,-3 0,-37 108,-37 108,-3 0,-3"/>
<text text-anchor="start" x="8" y="-24" font-family="Helvetica,sans-Serif" font-size="10.00">ant::calibration::gui</text>
<text text-anchor="middle" x="54" y="-11" font-family="Helvetica,sans-Serif" font-size="10.00">::update_notify_traits</text>
</a>
</g>
<!-- Node3&#45;&gt;Node2 -->
<g id="edge6" class="edge"><title>Node3&#45;&gt;Node2</title>
<path fill="none" stroke="midnightblue" d="M118.245,-20C126.938,-20 135.75,-20 144.141,-20"/>
<polygon fill="midnightblue" stroke="midnightblue" points="118.128,-16.5001 108.128,-20 118.128,-23.5001 118.128,-16.5001"/>
</g>
</g>
</svg>
