<?xml version="1.0" encoding="UTF-8" standalone="no"?>
<!DOCTYPE svg PUBLIC "-//W3C//DTD SVG 1.1//EN"
 "http://www.w3.org/Graphics/SVG/1.1/DTD/svg11.dtd">
<!-- Generated by graphviz version 2.26.3 (20100126.1600)
 -->
<!-- Title: ant::calibration::ClusterECorr Pages: 1 -->
<svg width="1066pt" height="200pt"
 viewBox="0.00 0.00 1066.00 200.00" xmlns="http://www.w3.org/2000/svg" xmlns:xlink="http://www.w3.org/1999/xlink">
<g id="graph1" class="graph" transform="scale(1 1) rotate(0) translate(4 196)">
<title>ant::calibration::ClusterECorr</title>
<polygon fill="white" stroke="white" points="-4,5 -4,-196 1063,-196 1063,5 -4,5"/>
<!-- Node6 -->
<g id="node1" class="node"><title>Node6</title>
<polygon fill="#bfbfbf" stroke="black" points="940,-106 940,-140 1058,-140 1058,-106 940,-106"/>
<text text-anchor="start" x="948" y="-127" font-family="Helvetica,sans-Serif" font-size="10.00">ant::calibration::Cluster</text>
<text text-anchor="middle" x="999" y="-114" font-family="Helvetica,sans-Serif" font-size="10.00">ECorr</text>
</g>
<!-- Node7 -->
<g id="node2" class="node"><title>Node7</title>
<a xlink:href="classant_1_1calibration_1_1_cluster_correction.html" target="_top" xlink:title="ant::calibration::Cluster\lCorrection">
<polygon fill="white" stroke="black" points="784,-106 784,-140 902,-140 902,-106 784,-106"/>
<text text-anchor="start" x="792" y="-127" font-family="Helvetica,sans-Serif" font-size="10.00">ant::calibration::Cluster</text>
<text text-anchor="middle" x="843" y="-114" font-family="Helvetica,sans-Serif" font-size="10.00">Correction</text>
</a>
</g>
<!-- Node7&#45;&gt;Node6 -->
<g id="edge2" class="edge"><title>Node7&#45;&gt;Node6</title>
<path fill="none" stroke="midnightblue" d="M912.57,-123C921.64,-123 930.864,-123 939.743,-123"/>
<polygon fill="midnightblue" stroke="midnightblue" points="912.422,-119.5 902.422,-123 912.422,-126.5 912.422,-119.5"/>
</g>
<!-- Node8 -->
<g id="node4" class="node"><title>Node8</title>
<a xlink:href="classant_1_1_calibration_1_1_base_module.html" target="_top" xlink:title="The BaseModule class provides a name for identification. ">
<polygon fill="white" stroke="black" points="549.5,-170.5 549.5,-191.5 692.5,-191.5 692.5,-170.5 549.5,-170.5"/>
<text text-anchor="middle" x="621" y="-178.5" font-family="Helvetica,sans-Serif" font-size="10.00">ant::Calibration::BaseModule</text>
</a>
</g>
<!-- Node8&#45;&gt;Node7 -->
<g id="edge4" class="edge"><title>Node8&#45;&gt;Node7</title>
<path fill="none" stroke="midnightblue" d="M674.97,-168.075C702.306,-161.409 735.98,-153.013 766,-145 771.91,-143.422 778.064,-141.737 784.202,-140.028"/>
<polygon fill="midnightblue" stroke="midnightblue" points="674.095,-164.686 665.205,-170.449 675.749,-171.488 674.095,-164.686"/>
</g>
<!-- Node9 -->
<g id="node6" class="node"><title>Node9</title>
<a xlink:href="structant_1_1_updateable__traits.html" target="_top" xlink:title="The Updateable_traits class used by the UpdateableManager. ">
<polygon fill="white" stroke="black" points="564.5,-130.5 564.5,-151.5 677.5,-151.5 677.5,-130.5 564.5,-130.5"/>
<text text-anchor="middle" x="621" y="-138.5" font-family="Helvetica,sans-Serif" font-size="10.00">ant::Updateable_traits</text>
</a>
</g>
<!-- Node9&#45;&gt;Node7 -->
<g id="edge6" class="edge"><title>Node9&#45;&gt;Node7</title>
<path fill="none" stroke="midnightblue" d="M687.736,-135.589C718.296,-133.111 754.209,-130.199 783.794,-127.8"/>
<polygon fill="midnightblue" stroke="midnightblue" points="687.279,-132.114 677.594,-136.411 687.845,-139.092 687.279,-132.114"/>
</g>
<!-- Node10 -->
<g id="node8" class="node"><title>Node10</title>
<a xlink:href="structant_1_1_reconstruct_hook_1_1_clusters.html" target="_top" xlink:title="The Clusters struct instances are applied before candidate matching and after clustering. ">
<polygon fill="white" stroke="black" points="564.5,-78 564.5,-112 677.5,-112 677.5,-78 564.5,-78"/>
<text text-anchor="start" x="572.5" y="-99" font-family="Helvetica,sans-Serif" font-size="10.00">ant::ReconstructHook</text>
<text text-anchor="middle" x="621" y="-86" font-family="Helvetica,sans-Serif" font-size="10.00">::Clusters</text>
</a>
</g>
<!-- Node10&#45;&gt;Node7 -->
<g id="edge8" class="edge"><title>Node10&#45;&gt;Node7</title>
<path fill="none" stroke="midnightblue" d="M687.736,-103.417C718.296,-107.272 754.209,-111.801 783.794,-115.533"/>
<polygon fill="midnightblue" stroke="midnightblue" points="687.954,-99.917 677.594,-102.138 687.078,-106.862 687.954,-99.917"/>
</g>
<!-- Node11 -->
<g id="node10" class="node"><title>Node11</title>
<a xlink:href="structant_1_1_reconstruct_hook_1_1_base.html" target="_top" xlink:title="The Base struct just defines some useful types. ">
<polygon fill="white" stroke="black" points="378.5,-78 378.5,-112 491.5,-112 491.5,-78 378.5,-78"/>
<text text-anchor="start" x="386.5" y="-99" font-family="Helvetica,sans-Serif" font-size="10.00">ant::ReconstructHook</text>
<text text-anchor="middle" x="435" y="-86" font-family="Helvetica,sans-Serif" font-size="10.00">::Base</text>
</a>
</g>
<!-- Node11&#45;&gt;Node10 -->
<g id="edge10" class="edge"><title>Node11&#45;&gt;Node10</title>
<path fill="none" stroke="midnightblue" d="M501.775,-95C522.277,-95 544.631,-95 564.385,-95"/>
<polygon fill="midnightblue" stroke="midnightblue" points="501.564,-91.5001 491.564,-95 501.564,-98.5001 501.564,-91.5001"/>
</g>
<!-- Node12 -->
<g id="node12" class="node"><title>Node12</title>
<polygon fill="white" stroke="#bfbfbf" points="546,-26 546,-60 696,-60 696,-26 546,-26"/>
<text text-anchor="start" x="554" y="-47" font-family="Helvetica,sans-Serif" font-size="10.00">std::unique_ptr&lt; ant</text>
<text text-anchor="middle" x="621" y="-34" font-family="Helvetica,sans-Serif" font-size="10.00">::ClippedInterpolatorWrapper &gt;</text>
</g>
<!-- Node12&#45;&gt;Node7 -->
<g id="edge12" class="edge"><title>Node12&#45;&gt;Node7</title>
<path fill="none" stroke="#9a32cd" stroke-dasharray="5,2" d="M687.237,-63.0658C712.11,-70.9676 740.52,-80.4334 766,-90 778.799,-94.8055 792.58,-100.531 804.897,-105.853"/>
<polygon fill="#9a32cd" stroke="#9a32cd" points="688.123,-59.6754 677.533,-60.0051 686.017,-66.3512 688.123,-59.6754"/>
<text text-anchor="middle" x="740" y="-94" font-family="Helvetica,sans-Serif" font-size="10.00"> interpolator</text>
</g>
<!-- Node13 -->
<g id="node14" class="node"><title>Node13</title>
<a xlink:href="structant_1_1_clipped_interpolator_wrapper.html" target="_top" xlink:title="ant::ClippedInterpolator\lWrapper">
<polygon fill="white" stroke="black" points="376,-26 376,-60 494,-60 494,-26 376,-26"/>
<text text-anchor="start" x="384" y="-47" font-family="Helvetica,sans-Serif" font-size="10.00">ant::ClippedInterpolator</text>
<text text-anchor="middle" x="435" y="-34" font-family="Helvetica,sans-Serif" font-size="10.00">Wrapper</text>
</a>
</g>
<!-- Node13&#45;&gt;Node12 -->
<g id="edge14" class="edge"><title>Node13&#45;&gt;Node12</title>
<path fill="none" stroke="#9a32cd" stroke-dasharray="5,2" d="M504.27,-43C517.77,-43 531.984,-43 545.668,-43"/>
<polygon fill="#9a32cd" stroke="#9a32cd" points="504.107,-39.5001 494.107,-43 504.107,-46.5001 504.107,-39.5001"/>
<text text-anchor="middle" x="520" y="-47" font-family="Helvetica,sans-Serif" font-size="10.00"> ptr</text>
</g>
<!-- Node14 -->
<g id="node16" class="node"><title>Node14</title>
<polygon fill="white" stroke="#bfbfbf" points="185,-52 185,-86 299,-86 299,-52 185,-52"/>
<text text-anchor="start" x="193" y="-73" font-family="Helvetica,sans-Serif" font-size="10.00">std::unique_ptr&lt; const</text>
<text text-anchor="middle" x="242" y="-60" font-family="Helvetica,sans-Serif" font-size="10.00"> ant::Interpolator2D &gt;</text>
</g>
<!-- Node14&#45;&gt;Node13 -->
<g id="edge16" class="edge"><title>Node14&#45;&gt;Node13</title>
<path fill="none" stroke="#9a32cd" stroke-dasharray="5,2" d="M309.219,-59.9446C330.853,-57.0302 354.655,-53.8236 375.679,-50.9915"/>
<polygon fill="#9a32cd" stroke="#9a32cd" points="308.566,-56.5008 299.123,-61.3047 309.501,-63.4382 308.566,-56.5008"/>
<text text-anchor="middle" x="341" y="-61" font-family="Helvetica,sans-Serif" font-size="10.00"> interp</text>
</g>
<!-- Node15 -->
<g id="node18" class="node"><title>Node15</title>
<a xlink:href="classant_1_1_interpolator2_d.html" target="_top" xlink:title="ant::Interpolator2D">
<polygon fill="white" stroke="black" points="8,-58.5 8,-79.5 106,-79.5 106,-58.5 8,-58.5"/>
<text text-anchor="middle" x="57" y="-66.5" font-family="Helvetica,sans-Serif" font-size="10.00">ant::Interpolator2D</text>
</a>
</g>
<!-- Node15&#45;&gt;Node14 -->
<g id="edge18" class="edge"><title>Node15&#45;&gt;Node14</title>
<path fill="none" stroke="#9a32cd" stroke-dasharray="5,2" d="M116.277,-69C138.222,-69 163.044,-69 184.801,-69"/>
<polygon fill="#9a32cd" stroke="#9a32cd" points="116.091,-65.5001 106.091,-69 116.091,-72.5001 116.091,-65.5001"/>
<text text-anchor="middle" x="146" y="-73" font-family="Helvetica,sans-Serif" font-size="10.00"> ptr</text>
</g>
<!-- Node16 -->
<g id="node20" class="node"><title>Node16</title>
<a xlink:href="structant_1_1_clipped_interpolator_wrapper_1_1bounds_check__t.html" target="_top" xlink:title="ant::ClippedInterpolator\lWrapper::boundsCheck_t">
<polygon fill="white" stroke="black" points="178,-0 178,-34 306,-34 306,-0 178,-0"/>
<text text-anchor="start" x="186" y="-21" font-family="Helvetica,sans-Serif" font-size="10.00">ant::ClippedInterpolator</text>
<text text-anchor="middle" x="242" y="-8" font-family="Helvetica,sans-Serif" font-size="10.00">Wrapper::boundsCheck_t</text>
</a>
</g>
<!-- Node16&#45;&gt;Node13 -->
<g id="edge20" class="edge"><title>Node16&#45;&gt;Node13</title>
<path fill="none" stroke="#9a32cd" stroke-dasharray="5,2" d="M316.119,-18.5926C330.083,-19.5259 344.528,-20.9239 358,-23 363.87,-23.9045 369.94,-25.0695 375.978,-26.3818"/>
<polygon fill="#9a32cd" stroke="#9a32cd" points="316.247,-15.0941 306.056,-17.992 315.83,-22.0816 316.247,-15.0941"/>
<text text-anchor="middle" x="341" y="-40" font-family="Helvetica,sans-Serif" font-size="10.00"> yrange</text>
<text text-anchor="middle" x="341" y="-27" font-family="Helvetica,sans-Serif" font-size="10.00">xrange</text>
</g>
<!-- Node17 -->
<g id="node22" class="node"><title>Node17</title>
<a xlink:href="classant_1_1interval.html" target="_top" xlink:title="ant::interval\&lt; double \&gt;">
<polygon fill="white" stroke="black" points="0,-6.5 0,-27.5 114,-27.5 114,-6.5 0,-6.5"/>
<text text-anchor="middle" x="57" y="-14.5" font-family="Helvetica,sans-Serif" font-size="10.00">ant::interval&lt; double &gt;</text>
</a>
</g>
<!-- Node17&#45;&gt;Node16 -->
<g id="edge22" class="edge"><title>Node17&#45;&gt;Node16</title>
<path fill="none" stroke="#9a32cd" stroke-dasharray="5,2" d="M124.137,-17C141.621,-17 160.414,-17 177.744,-17"/>
<polygon fill="#9a32cd" stroke="#9a32cd" points="124.016,-13.5001 114.016,-17 124.016,-20.5001 124.016,-13.5001"/>
<text text-anchor="middle" x="146" y="-21" font-family="Helvetica,sans-Serif" font-size="10.00"> range</text>
</g>
</g>
</svg>
