<?xml version="1.0" encoding="UTF-8" standalone="no"?>
<!DOCTYPE svg PUBLIC "-//W3C//DTD SVG 1.1//EN"
 "http://www.w3.org/Graphics/SVG/1.1/DTD/svg11.dtd">
<!-- Generated by graphviz version 2.26.3 (20100126.1600)
 -->
<!-- Title: ant::calibration::CB_Energy Pages: 1 -->
<svg width="403pt" height="304pt"
 viewBox="0.00 0.00 403.00 304.00" xmlns="http://www.w3.org/2000/svg" xmlns:xlink="http://www.w3.org/1999/xlink">
<g id="graph1" class="graph" transform="scale(1 1) rotate(0) translate(4 300)">
<title>ant::calibration::CB_Energy</title>
<polygon fill="white" stroke="white" points="-4,5 -4,-300 400,-300 400,5 -4,5"/>
<!-- Node0 -->
<g id="node1" class="node"><title>Node0</title>
<polygon fill="#bfbfbf" stroke="black" points="221.5,-1 221.5,-35 322.5,-35 322.5,-1 221.5,-1"/>
<text text-anchor="start" x="229.5" y="-22" font-family="Helvetica,sans-Serif" font-size="10.00">ant::calibration::CB</text>
<text text-anchor="middle" x="272" y="-9" font-family="Helvetica,sans-Serif" font-size="10.00">_Energy</text>
</g>
<!-- Node1 -->
<g id="node2" class="node"><title>Node1</title>
<a xlink:href="classant_1_1calibration_1_1_energy.html" target="_top" xlink:title="ant::calibration::Energy">
<polygon fill="white" stroke="black" points="213.5,-72.5 213.5,-93.5 330.5,-93.5 330.5,-72.5 213.5,-72.5"/>
<text text-anchor="middle" x="272" y="-80.5" font-family="Helvetica,sans-Serif" font-size="10.00">ant::calibration::Energy</text>
</a>
</g>
<!-- Node1&#45;&gt;Node0 -->
<g id="edge2" class="edge"><title>Node1&#45;&gt;Node0</title>
<path fill="none" stroke="midnightblue" d="M272,-62.1306C272,-53.4049 272,-43.3908 272,-35.1099"/>
<polygon fill="midnightblue" stroke="midnightblue" points="268.5,-62.2665 272,-72.2666 275.5,-62.2666 268.5,-62.2665"/>
</g>
<!-- Node2 -->
<g id="node4" class="node"><title>Node2</title>
<a xlink:href="classant_1_1_calibration_1_1_module.html" target="_top" xlink:title="The Module class is typically used for calibrations. ">
<polygon fill="white" stroke="black" points="145,-137.5 145,-158.5 265,-158.5 265,-137.5 145,-137.5"/>
<text text-anchor="middle" x="205" y="-145.5" font-family="Helvetica,sans-Serif" font-size="10.00">ant::Calibration::Module</text>
</a>
</g>
<!-- Node2&#45;&gt;Node1 -->
<g id="edge4" class="edge"><title>Node2&#45;&gt;Node1</title>
<path fill="none" stroke="midnightblue" d="M223.452,-130.099C235.555,-118.357 250.968,-103.404 261.142,-93.5337"/>
<polygon fill="midnightblue" stroke="midnightblue" points="220.804,-127.791 216.064,-137.267 225.678,-132.816 220.804,-127.791"/>
</g>
<!-- Node3 -->
<g id="node6" class="node"><title>Node3</title>
<a xlink:href="classant_1_1_calibration_1_1_physics_module.html" target="_top" xlink:title="The PhysicsModule class gives the modules the ability to create histograms from events as well as fit...">
<polygon fill="white" stroke="black" points="9,-203 9,-237 133,-237 133,-203 9,-203"/>
<text text-anchor="start" x="17" y="-224" font-family="Helvetica,sans-Serif" font-size="10.00">ant::Calibration::Physics</text>
<text text-anchor="middle" x="71" y="-211" font-family="Helvetica,sans-Serif" font-size="10.00">Module</text>
</a>
</g>
<!-- Node3&#45;&gt;Node2 -->
<g id="edge6" class="edge"><title>Node3&#45;&gt;Node2</title>
<path fill="none" stroke="midnightblue" d="M111.77,-198.094C136.075,-185.034 165.848,-169.037 185.108,-158.688"/>
<polygon fill="midnightblue" stroke="midnightblue" points="109.908,-195.121 102.756,-202.937 113.222,-201.287 109.908,-195.121"/>
</g>
<!-- Node4 -->
<g id="node8" class="node"><title>Node4</title>
<a xlink:href="classant_1_1_calibration_1_1_base_module.html" target="_top" xlink:title="The BaseModule class provides a name for identification. ">
<polygon fill="white" stroke="black" points="-0.5,-274.5 -0.5,-295.5 142.5,-295.5 142.5,-274.5 -0.5,-274.5"/>
<text text-anchor="middle" x="71" y="-282.5" font-family="Helvetica,sans-Serif" font-size="10.00">ant::Calibration::BaseModule</text>
</a>
</g>
<!-- Node4&#45;&gt;Node3 -->
<g id="edge8" class="edge"><title>Node4&#45;&gt;Node3</title>
<path fill="none" stroke="midnightblue" d="M71,-264.131C71,-255.405 71,-245.391 71,-237.11"/>
<polygon fill="midnightblue" stroke="midnightblue" points="67.5001,-264.267 71,-274.267 74.5001,-264.267 67.5001,-264.267"/>
</g>
<!-- Node5 -->
<g id="node10" class="node"><title>Node5</title>
<a xlink:href="structant_1_1_updateable__traits.html" target="_top" xlink:title="The Updateable_traits class used by the UpdateableManager. ">
<polygon fill="white" stroke="black" points="150.5,-209.5 150.5,-230.5 263.5,-230.5 263.5,-209.5 150.5,-209.5"/>
<text text-anchor="middle" x="207" y="-217.5" font-family="Helvetica,sans-Serif" font-size="10.00">ant::Updateable_traits</text>
</a>
</g>
<!-- Node5&#45;&gt;Node2 -->
<g id="edge10" class="edge"><title>Node5&#45;&gt;Node2</title>
<path fill="none" stroke="midnightblue" d="M206.423,-199.235C206.055,-185.969 205.592,-169.319 205.296,-158.667"/>
<polygon fill="midnightblue" stroke="midnightblue" points="202.928,-199.477 206.705,-209.376 209.926,-199.283 202.928,-199.477"/>
</g>
<!-- Node6 -->
<g id="node12" class="node"><title>Node6</title>
<a xlink:href="structant_1_1_reconstruct_hook_1_1_detector_read_hits.html" target="_top" xlink:title="The DetectorReadHits struct instances are applied before hit matching. ">
<polygon fill="white" stroke="black" points="282.5,-131 282.5,-165 395.5,-165 395.5,-131 282.5,-131"/>
<text text-anchor="start" x="290.5" y="-152" font-family="Helvetica,sans-Serif" font-size="10.00">ant::ReconstructHook</text>
<text text-anchor="middle" x="339" y="-139" font-family="Helvetica,sans-Serif" font-size="10.00">::DetectorReadHits</text>
</a>
</g>
<!-- Node6&#45;&gt;Node1 -->
<g id="edge12" class="edge"><title>Node6&#45;&gt;Node1</title>
<path fill="none" stroke="midnightblue" d="M313.963,-123.71C303.37,-113.433 291.569,-101.984 283.186,-93.8521"/>
<polygon fill="midnightblue" stroke="midnightblue" points="311.782,-126.471 321.397,-130.922 316.656,-121.447 311.782,-126.471"/>
</g>
<!-- Node7 -->
<g id="node14" class="node"><title>Node7</title>
<a xlink:href="structant_1_1_reconstruct_hook_1_1_base.html" target="_top" xlink:title="The Base struct just defines some useful types. ">
<polygon fill="white" stroke="black" points="282.5,-203 282.5,-237 395.5,-237 395.5,-203 282.5,-203"/>
<text text-anchor="start" x="290.5" y="-224" font-family="Helvetica,sans-Serif" font-size="10.00">ant::ReconstructHook</text>
<text text-anchor="middle" x="339" y="-211" font-family="Helvetica,sans-Serif" font-size="10.00">::Base</text>
</a>
</g>
<!-- Node7&#45;&gt;Node6 -->
<g id="edge14" class="edge"><title>Node7&#45;&gt;Node6</title>
<path fill="none" stroke="midnightblue" d="M339,-192.719C339,-183.572 339,-173.625 339,-165.441"/>
<polygon fill="midnightblue" stroke="midnightblue" points="335.5,-192.937 339,-202.937 342.5,-192.937 335.5,-192.937"/>
</g>
</g>
</svg>
