<?xml version="1.0" encoding="UTF-8" standalone="no"?>
<!DOCTYPE svg PUBLIC "-//W3C//DTD SVG 1.1//EN"
 "http://www.w3.org/Graphics/SVG/1.1/DTD/svg11.dtd">
<!-- Generated by graphviz version 2.26.3 (20100126.1600)
 -->
<!-- Title: ant::analysis::utils::MCWeighting Pages: 1 -->
<svg width="1008pt" height="243pt"
 viewBox="0.00 0.00 1008.00 243.00" xmlns="http://www.w3.org/2000/svg" xmlns:xlink="http://www.w3.org/1999/xlink">
<g id="graph1" class="graph" transform="scale(1 1) rotate(0) translate(4 239)">
<title>ant::analysis::utils::MCWeighting</title>
<polygon fill="white" stroke="white" points="-4,5 -4,-239 1005,-239 1005,5 -4,5"/>
<!-- Node2 -->
<g id="node1" class="node"><title>Node2</title>
<polygon fill="#bfbfbf" stroke="black" points="904,-64 904,-98 1000,-98 1000,-64 904,-64"/>
<text text-anchor="start" x="912" y="-85" font-family="Helvetica,sans-Serif" font-size="10.00">ant::analysis::utils</text>
<text text-anchor="middle" x="952" y="-72" font-family="Helvetica,sans-Serif" font-size="10.00">::MCWeighting</text>
</g>
<!-- Node3 -->
<g id="node2" class="node"><title>Node3</title>
<a xlink:href="structant_1_1analysis_1_1utils_1_1_m_c_weighting_1_1tree__t.html" target="_top" xlink:title="ant::analysis::utils\l::MCWeighting::tree_t">
<polygon fill="white" stroke="black" points="707.5,-187 707.5,-221 820.5,-221 820.5,-187 707.5,-187"/>
<text text-anchor="start" x="715.5" y="-208" font-family="Helvetica,sans-Serif" font-size="10.00">ant::analysis::utils</text>
<text text-anchor="middle" x="764" y="-195" font-family="Helvetica,sans-Serif" font-size="10.00">::MCWeighting::tree_t</text>
</a>
</g>
<!-- Node3&#45;&gt;Node2 -->
<g id="edge2" class="edge"><title>Node3&#45;&gt;Node2</title>
<path fill="none" stroke="#9a32cd" stroke-dasharray="5,2" d="M830.427,-189.862C849.448,-183.853 869.485,-175.492 886,-164 911.086,-146.545 931.389,-116.828 942.565,-98.0903"/>
<polygon fill="#9a32cd" stroke="#9a32cd" points="829.179,-186.581 820.596,-192.794 831.179,-193.289 829.179,-186.581"/>
<text text-anchor="middle" x="865" y="-188" font-family="Helvetica,sans-Serif" font-size="10.00"> t</text>
</g>
<!-- Node4 -->
<g id="node4" class="node"><title>Node4</title>
<a xlink:href="classant_1_1_wrap_t_tree.html" target="_top" xlink:title="The WrapTTree struct simplifies TTree handling in physics classes. ">
<polygon fill="white" stroke="black" points="507.5,-213.5 507.5,-234.5 592.5,-234.5 592.5,-213.5 507.5,-213.5"/>
<text text-anchor="middle" x="550" y="-221.5" font-family="Helvetica,sans-Serif" font-size="10.00">ant::WrapTTree</text>
</a>
</g>
<!-- Node4&#45;&gt;Node3 -->
<g id="edge4" class="edge"><title>Node4&#45;&gt;Node3</title>
<path fill="none" stroke="midnightblue" d="M602.527,-219.091C634.314,-216.12 674.847,-212.332 707.351,-209.294"/>
<polygon fill="midnightblue" stroke="midnightblue" points="602.166,-215.609 592.535,-220.025 602.818,-222.579 602.166,-215.609"/>
</g>
<!-- Node5 -->
<g id="node6" class="node"><title>Node5</title>
<a xlink:href="structant_1_1analysis_1_1utils_1_1_m_c_weighting_1_1item__t.html" target="_top" xlink:title="ant::analysis::utils\l::MCWeighting::item_t">
<polygon fill="white" stroke="black" points="706.5,-90 706.5,-124 821.5,-124 821.5,-90 706.5,-90"/>
<text text-anchor="start" x="714.5" y="-111" font-family="Helvetica,sans-Serif" font-size="10.00">ant::analysis::utils</text>
<text text-anchor="middle" x="764" y="-98" font-family="Helvetica,sans-Serif" font-size="10.00">::MCWeighting::item_t</text>
</a>
</g>
<!-- Node5&#45;&gt;Node2 -->
<g id="edge6" class="edge"><title>Node5&#45;&gt;Node2</title>
<path fill="none" stroke="#9a32cd" stroke-dasharray="5,2" d="M831.751,-97.6302C855.638,-94.3267 881.984,-90.6831 903.911,-87.6506"/>
<polygon fill="#9a32cd" stroke="#9a32cd" points="831.11,-94.1854 821.684,-99.0224 832.069,-101.119 831.11,-94.1854"/>
<text text-anchor="middle" x="865" y="-151" font-family="Helvetica,sans-Serif" font-size="10.00"> Item</text>
<text text-anchor="middle" x="865" y="-138" font-family="Helvetica,sans-Serif" font-size="10.00">EtaPrime</text>
<text text-anchor="middle" x="865" y="-125" font-family="Helvetica,sans-Serif" font-size="10.00">Pi0</text>
<text text-anchor="middle" x="865" y="-112" font-family="Helvetica,sans-Serif" font-size="10.00">Omega</text>
<text text-anchor="middle" x="865" y="-99" font-family="Helvetica,sans-Serif" font-size="10.00">Eta</text>
</g>
<!-- Node6 -->
<g id="node8" class="node"><title>Node6</title>
<polygon fill="white" stroke="#bfbfbf" points="480,-173.5 480,-194.5 620,-194.5 620,-173.5 480,-173.5"/>
<text text-anchor="middle" x="550" y="-181.5" font-family="Helvetica,sans-Serif" font-size="10.00">std::vector&lt; coefficients_t &gt;</text>
</g>
<!-- Node6&#45;&gt;Node5 -->
<g id="edge8" class="edge"><title>Node6&#45;&gt;Node5</title>
<path fill="none" stroke="#9a32cd" stroke-dasharray="5,2" d="M599.487,-170.52C606.41,-168.443 613.407,-166.241 620,-164 655.64,-151.888 695.365,-135.976 724.049,-124.043"/>
<polygon fill="#9a32cd" stroke="#9a32cd" points="598.065,-167.29 589.455,-173.463 600.036,-174.007 598.065,-167.29"/>
<text text-anchor="middle" x="661" y="-161" font-family="Helvetica,sans-Serif" font-size="10.00"> Database</text>
</g>
<!-- Node7 -->
<g id="node10" class="node"><title>Node7</title>
<polygon fill="white" stroke="#bfbfbf" points="246,-167 246,-201 392,-201 392,-167 246,-167"/>
<text text-anchor="start" x="254" y="-188" font-family="Helvetica,sans-Serif" font-size="10.00">ant::analysis::utils</text>
<text text-anchor="middle" x="319" y="-175" font-family="Helvetica,sans-Serif" font-size="10.00">::MCWeighting::coefficients_t</text>
</g>
<!-- Node7&#45;&gt;Node6 -->
<g id="edge10" class="edge"><title>Node7&#45;&gt;Node6</title>
<path fill="none" stroke="#9a32cd" stroke-dasharray="5,2" d="M402.426,-184C427.774,-184 455.362,-184 479.752,-184"/>
<polygon fill="#9a32cd" stroke="#9a32cd" points="402.09,-180.5 392.09,-184 402.09,-187.5 402.09,-180.5"/>
<text text-anchor="middle" x="436" y="-188" font-family="Helvetica,sans-Serif" font-size="10.00"> elements</text>
</g>
<!-- Node8 -->
<g id="node12" class="node"><title>Node8</title>
<a xlink:href="classant_1_1interval.html" target="_top" xlink:title="ant::interval\&lt; double \&gt;">
<polygon fill="white" stroke="black" points="0,-194.5 0,-215.5 114,-215.5 114,-194.5 0,-194.5"/>
<text text-anchor="middle" x="57" y="-202.5" font-family="Helvetica,sans-Serif" font-size="10.00">ant::interval&lt; double &gt;</text>
</a>
</g>
<!-- Node8&#45;&gt;Node7 -->
<g id="edge12" class="edge"><title>Node8&#45;&gt;Node7</title>
<path fill="none" stroke="#9a32cd" stroke-dasharray="5,2" d="M124.418,-199.596C161.641,-196.613 207.905,-192.905 245.982,-189.853"/>
<polygon fill="#9a32cd" stroke="#9a32cd" points="123.862,-196.13 114.173,-200.417 124.421,-203.107 123.862,-196.13"/>
<text text-anchor="middle" x="180" y="-202" font-family="Helvetica,sans-Serif" font-size="10.00"> BeamE</text>
</g>
<!-- Node9 -->
<g id="node14" class="node"><title>Node9</title>
<polygon fill="white" stroke="#bfbfbf" points="2,-154.5 2,-175.5 112,-175.5 112,-154.5 2,-154.5"/>
<text text-anchor="middle" x="57" y="-162.5" font-family="Helvetica,sans-Serif" font-size="10.00">std::vector&lt; double &gt;</text>
</g>
<!-- Node9&#45;&gt;Node7 -->
<g id="edge14" class="edge"><title>Node9&#45;&gt;Node7</title>
<path fill="none" stroke="#9a32cd" stroke-dasharray="5,2" d="M122.272,-165.021C154.202,-165.512 193.171,-166.824 228,-170 233.731,-170.523 239.649,-171.175 245.589,-171.911"/>
<polygon fill="#9a32cd" stroke="#9a32cd" points="122.211,-161.52 112.166,-164.889 122.12,-168.519 122.211,-161.52"/>
<text text-anchor="middle" x="180" y="-174" font-family="Helvetica,sans-Serif" font-size="10.00"> LegendreCoefficients</text>
</g>
<!-- Node10 -->
<g id="node16" class="node"><title>Node10</title>
<a xlink:href="classant_1_1_particle_type_database_1_1_type.html" target="_top" xlink:title="ant::ParticleTypeDatabase\l::Type">
<polygon fill="white" stroke="black" points="483.5,-90 483.5,-124 616.5,-124 616.5,-90 483.5,-90"/>
<text text-anchor="start" x="491.5" y="-111" font-family="Helvetica,sans-Serif" font-size="10.00">ant::ParticleTypeDatabase</text>
<text text-anchor="middle" x="550" y="-98" font-family="Helvetica,sans-Serif" font-size="10.00">::Type</text>
</a>
</g>
<!-- Node10&#45;&gt;Node5 -->
<g id="edge16" class="edge"><title>Node10&#45;&gt;Node5</title>
<path fill="none" stroke="#9a32cd" stroke-dasharray="5,2" d="M626.803,-107C652.969,-107 681.759,-107 706.181,-107"/>
<polygon fill="#9a32cd" stroke="#9a32cd" points="626.538,-103.5 616.538,-107 626.538,-110.5 626.538,-103.5"/>
<text text-anchor="middle" x="661" y="-111" font-family="Helvetica,sans-Serif" font-size="10.00"> Type</text>
</g>
<!-- Node10&#45;&gt;Node10 -->
<g id="edge22" class="edge"><title>Node10&#45;&gt;Node10</title>
<path fill="none" stroke="#9a32cd" stroke-dasharray="5,2" d="M530.844,-134.318C533.534,-138.864 539.919,-142 550,-142 566.543,-142 573.134,-133.556 569.774,-124.288"/>
<polygon fill="#9a32cd" stroke="#9a32cd" points="534.334,-134.054 530.226,-124.288 527.347,-134.484 534.334,-134.054"/>
<text text-anchor="middle" x="550" y="-146" font-family="Helvetica,sans-Serif" font-size="10.00"> sametype</text>
</g>
<!-- Node11 -->
<g id="node18" class="node"><title>Node11</title>
<a xlink:title="STL class. ">
<polygon fill="white" stroke="#bfbfbf" points="289,-90.5 289,-111.5 349,-111.5 349,-90.5 289,-90.5"/>
<text text-anchor="middle" x="319" y="-98.5" font-family="Helvetica,sans-Serif" font-size="10.00">std::string</text>
</a>
</g>
<!-- Node11&#45;&gt;Node2 -->
<g id="edge24" class="edge"><title>Node11&#45;&gt;Node2</title>
<path fill="none" stroke="#9a32cd" stroke-dasharray="5,2" d="M359.178,-94.6089C391.67,-89.7789 438.652,-83.5584 480,-81 634.579,-71.4356 818.181,-75.9936 903.696,-79.0346"/>
<polygon fill="#9a32cd" stroke="#9a32cd" points="358.528,-91.1673 349.163,-96.1219 359.574,-98.0888 358.528,-91.1673"/>
<text text-anchor="middle" x="661" y="-79" font-family="Helvetica,sans-Serif" font-size="10.00"> treeName</text>
</g>
<!-- Node11&#45;&gt;Node10 -->
<g id="edge18" class="edge"><title>Node11&#45;&gt;Node10</title>
<path fill="none" stroke="#9a32cd" stroke-dasharray="5,2" d="M359.282,-102.046C393.471,-102.934 443.22,-104.226 483.335,-105.268"/>
<polygon fill="#9a32cd" stroke="#9a32cd" points="359.287,-98.5453 349.199,-101.784 359.105,-105.543 359.287,-98.5453"/>
<text text-anchor="middle" x="436" y="-121" font-family="Helvetica,sans-Serif" font-size="10.00"> print_name</text>
<text text-anchor="middle" x="436" y="-108" font-family="Helvetica,sans-Serif" font-size="10.00">name</text>
</g>
<!-- Node12 -->
<g id="node20" class="node"><title>Node12</title>
<a xlink:title="STL class. ">
<polygon fill="white" stroke="#bfbfbf" points="9.5,-84 9.5,-118 104.5,-118 104.5,-84 9.5,-84"/>
<text text-anchor="start" x="17.5" y="-105" font-family="Helvetica,sans-Serif" font-size="10.00">std::basic_string&lt;</text>
<text text-anchor="middle" x="57" y="-92" font-family="Helvetica,sans-Serif" font-size="10.00"> char &gt;</text>
</a>
</g>
<!-- Node12&#45;&gt;Node11 -->
<g id="edge20" class="edge"><title>Node12&#45;&gt;Node11</title>
<path fill="none" stroke="midnightblue" d="M114.815,-101C168.51,-101 246.36,-101 288.739,-101"/>
<polygon fill="midnightblue" stroke="midnightblue" points="114.75,-97.5001 104.75,-101 114.75,-104.5 114.75,-97.5001"/>
</g>
<!-- Node13 -->
<g id="node24" class="node"><title>Node13</title>
<a xlink:href="classant_1_1analysis_1_1_histogram_factory.html" target="_top" xlink:title="ant::analysis::Histogram\lFactory">
<polygon fill="white" stroke="black" points="702.5,-0 702.5,-34 825.5,-34 825.5,-0 702.5,-0"/>
<text text-anchor="start" x="710.5" y="-21" font-family="Helvetica,sans-Serif" font-size="10.00">ant::analysis::Histogram</text>
<text text-anchor="middle" x="764" y="-8" font-family="Helvetica,sans-Serif" font-size="10.00">Factory</text>
</a>
</g>
<!-- Node13&#45;&gt;Node2 -->
<g id="edge26" class="edge"><title>Node13&#45;&gt;Node2</title>
<path fill="none" stroke="#9a32cd" stroke-dasharray="5,2" d="M835.979,-22.0063C852.787,-24.6971 870.343,-28.7902 886,-35 903.137,-41.797 920.149,-53.8146 932.609,-63.8619"/>
<polygon fill="#9a32cd" stroke="#9a32cd" points="836.032,-18.4774 825.633,-20.5057 835.027,-25.405 836.032,-18.4774"/>
<text text-anchor="middle" x="865" y="-39" font-family="Helvetica,sans-Serif" font-size="10.00"> HistFac</text>
</g>
</g>
</svg>
