<?xml version="1.0" encoding="UTF-8" standalone="no"?>
<!DOCTYPE svg PUBLIC "-//W3C//DTD SVG 1.1//EN"
 "http://www.w3.org/Graphics/SVG/1.1/DTD/svg11.dtd">
<!-- Generated by graphviz version 2.26.3 (20100126.1600)
 -->
<!-- Title: ant::analysis::physics::OmegaBase Pages: 1 -->
<svg width="552pt" height="152pt"
 viewBox="0.00 0.00 552.00 152.00" xmlns="http://www.w3.org/2000/svg" xmlns:xlink="http://www.w3.org/1999/xlink">
<g id="graph1" class="graph" transform="scale(1 1) rotate(0) translate(4 148)">
<title>ant::analysis::physics::OmegaBase</title>
<polygon fill="white" stroke="white" points="-4,5 -4,-148 549,-148 549,5 -4,5"/>
<!-- Node4 -->
<g id="node1" class="node"><title>Node4</title>
<polygon fill="#bfbfbf" stroke="black" points="432,-52 432,-86 544,-86 544,-52 432,-52"/>
<text text-anchor="start" x="440" y="-73" font-family="Helvetica,sans-Serif" font-size="10.00">ant::analysis::physics</text>
<text text-anchor="middle" x="488" y="-60" font-family="Helvetica,sans-Serif" font-size="10.00">::OmegaBase</text>
</g>
<!-- Node5 -->
<g id="node2" class="node"><title>Node5</title>
<a xlink:href="classant_1_1analysis_1_1_physics.html" target="_top" xlink:title="ant::analysis::Physics">
<polygon fill="white" stroke="black" points="230.5,-112.5 230.5,-133.5 343.5,-133.5 343.5,-112.5 230.5,-112.5"/>
<text text-anchor="middle" x="287" y="-120.5" font-family="Helvetica,sans-Serif" font-size="10.00">ant::analysis::Physics</text>
</a>
</g>
<!-- Node5&#45;&gt;Node4 -->
<g id="edge2" class="edge"><title>Node5&#45;&gt;Node4</title>
<path fill="none" stroke="midnightblue" d="M336.11,-109.806C365.018,-102.04 401.686,-92.1888 431.752,-84.1113"/>
<polygon fill="midnightblue" stroke="midnightblue" points="334.981,-106.485 326.232,-112.46 336.798,-113.246 334.981,-106.485"/>
</g>
<!-- Node6 -->
<g id="node4" class="node"><title>Node6</title>
<a xlink:href="classant_1_1analysis_1_1_histogram_factory.html" target="_top" xlink:title="ant::analysis::Histogram\lFactory">
<polygon fill="white" stroke="black" points="0.5,-110 0.5,-144 123.5,-144 123.5,-110 0.5,-110"/>
<text text-anchor="start" x="8.5" y="-131" font-family="Helvetica,sans-Serif" font-size="10.00">ant::analysis::Histogram</text>
<text text-anchor="middle" x="62" y="-118" font-family="Helvetica,sans-Serif" font-size="10.00">Factory</text>
</a>
</g>
<!-- Node6&#45;&gt;Node5 -->
<g id="edge4" class="edge"><title>Node6&#45;&gt;Node5</title>
<path fill="none" stroke="#9a32cd" stroke-dasharray="5,2" d="M134.143,-125.717C165.287,-125.164 201.188,-124.526 230.368,-124.007"/>
<polygon fill="#9a32cd" stroke="#9a32cd" points="133.716,-122.224 123.78,-125.902 133.841,-129.223 133.716,-122.224"/>
<text text-anchor="middle" x="177" y="-129" font-family="Helvetica,sans-Serif" font-size="10.00"> HistFac</text>
</g>
<!-- Node7 -->
<g id="node6" class="node"><title>Node7</title>
<a xlink:href="classant_1_1analysis_1_1utils_1_1_a2_simple_geometry.html" target="_top" xlink:title="ant::analysis::utils\l::A2SimpleGeometry">
<polygon fill="white" stroke="black" points="233.5,-52 233.5,-86 340.5,-86 340.5,-52 233.5,-52"/>
<text text-anchor="start" x="241.5" y="-73" font-family="Helvetica,sans-Serif" font-size="10.00">ant::analysis::utils</text>
<text text-anchor="middle" x="287" y="-60" font-family="Helvetica,sans-Serif" font-size="10.00">::A2SimpleGeometry</text>
</a>
</g>
<!-- Node7&#45;&gt;Node4 -->
<g id="edge6" class="edge"><title>Node7&#45;&gt;Node4</title>
<path fill="none" stroke="#9a32cd" stroke-dasharray="5,2" d="M350.735,-69C376.741,-69 406.556,-69 431.74,-69"/>
<polygon fill="#9a32cd" stroke="#9a32cd" points="350.6,-65.5001 340.6,-69 350.6,-72.5001 350.6,-65.5001"/>
<text text-anchor="middle" x="388" y="-73" font-family="Helvetica,sans-Serif" font-size="10.00"> geo</text>
</g>
<!-- Node8 -->
<g id="node8" class="node"><title>Node8</title>
<a xlink:href="classant_1_1interval.html" target="_top" xlink:title="ant::interval\&lt; double \&gt;">
<polygon fill="white" stroke="black" points="5,-54.5 5,-75.5 119,-75.5 119,-54.5 5,-54.5"/>
<text text-anchor="middle" x="62" y="-62.5" font-family="Helvetica,sans-Serif" font-size="10.00">ant::interval&lt; double &gt;</text>
</a>
</g>
<!-- Node8&#45;&gt;Node7 -->
<g id="edge8" class="edge"><title>Node8&#45;&gt;Node7</title>
<path fill="none" stroke="#9a32cd" stroke-dasharray="5,2" d="M129.192,-66.1945C162.525,-66.7871 202.23,-67.493 233.474,-68.0484"/>
<polygon fill="#9a32cd" stroke="#9a32cd" points="129.129,-62.6929 119.068,-66.0145 129.004,-69.6918 129.129,-62.6929"/>
<text text-anchor="middle" x="177" y="-97" font-family="Helvetica,sans-Serif" font-size="10.00"> cb_phi_hem1</text>
<text text-anchor="middle" x="177" y="-84" font-family="Helvetica,sans-Serif" font-size="10.00">cb_theta_region</text>
<text text-anchor="middle" x="177" y="-71" font-family="Helvetica,sans-Serif" font-size="10.00">taps_region</text>
</g>
<!-- Node9 -->
<g id="node10" class="node"><title>Node9</title>
<a xlink:href="classant_1_1analysis_1_1utils_1_1_trigger_simulation.html" target="_top" xlink:title="ant::analysis::utils\l::TriggerSimulation">
<polygon fill="white" stroke="black" points="238,-0 238,-34 336,-34 336,-0 238,-0"/>
<text text-anchor="start" x="246" y="-21" font-family="Helvetica,sans-Serif" font-size="10.00">ant::analysis::utils</text>
<text text-anchor="middle" x="287" y="-8" font-family="Helvetica,sans-Serif" font-size="10.00">::TriggerSimulation</text>
</a>
</g>
<!-- Node9&#45;&gt;Node4 -->
<g id="edge10" class="edge"><title>Node9&#45;&gt;Node4</title>
<path fill="none" stroke="#9a32cd" stroke-dasharray="5,2" d="M345.926,-32.2444C373.059,-39.2639 405.1,-47.5531 431.88,-54.4813"/>
<polygon fill="#9a32cd" stroke="#9a32cd" points="346.728,-28.8369 336.17,-29.7206 344.975,-35.6138 346.728,-28.8369"/>
<text text-anchor="middle" x="388" y="-54" font-family="Helvetica,sans-Serif" font-size="10.00"> triggersimu</text>
</g>
</g>
</svg>
