<?xml version="1.0" encoding="UTF-8" standalone="no"?>
<!DOCTYPE svg PUBLIC "-//W3C//DTD SVG 1.1//EN"
 "http://www.w3.org/Graphics/SVG/1.1/DTD/svg11.dtd">
<!-- Generated by graphviz version 2.26.3 (20100126.1600)
 -->
<!-- Title: ant::analysis::physics::CandidatesAnalysis Pages: 1 -->
<svg width="928pt" height="108pt"
 viewBox="0.00 0.00 928.00 108.00" xmlns="http://www.w3.org/2000/svg" xmlns:xlink="http://www.w3.org/1999/xlink">
<g id="graph1" class="graph" transform="scale(1 1) rotate(0) translate(4 104)">
<title>ant::analysis::physics::CandidatesAnalysis</title>
<polygon fill="white" stroke="white" points="-4,5 -4,-104 925,-104 925,5 -4,5"/>
<!-- Node2 -->
<g id="node1" class="node"><title>Node2</title>
<polygon fill="#bfbfbf" stroke="black" points="808,-38 808,-72 920,-72 920,-38 808,-38"/>
<text text-anchor="start" x="816" y="-59" font-family="Helvetica,sans-Serif" font-size="10.00">ant::analysis::physics</text>
<text text-anchor="middle" x="864" y="-46" font-family="Helvetica,sans-Serif" font-size="10.00">::CandidatesAnalysis</text>
</g>
<!-- Node3 -->
<g id="node2" class="node"><title>Node3</title>
<a xlink:href="classant_1_1analysis_1_1_physics.html" target="_top" xlink:title="ant::analysis::Physics">
<polygon fill="white" stroke="black" points="604.5,-66.5 604.5,-87.5 717.5,-87.5 717.5,-66.5 604.5,-66.5"/>
<text text-anchor="middle" x="661" y="-74.5" font-family="Helvetica,sans-Serif" font-size="10.00">ant::analysis::Physics</text>
</a>
</g>
<!-- Node3&#45;&gt;Node2 -->
<g id="edge2" class="edge"><title>Node3&#45;&gt;Node2</title>
<path fill="none" stroke="midnightblue" d="M727.665,-69.7752C753.577,-66.967 782.937,-63.7852 807.756,-61.0954"/>
<polygon fill="midnightblue" stroke="midnightblue" points="727.111,-66.3146 717.547,-70.8718 727.866,-73.2739 727.111,-66.3146"/>
</g>
<!-- Node4 -->
<g id="node4" class="node"><title>Node4</title>
<a xlink:href="classant_1_1analysis_1_1_histogram_factory.html" target="_top" xlink:title="ant::analysis::Histogram\lFactory">
<polygon fill="white" stroke="black" points="356.5,-66 356.5,-100 479.5,-100 479.5,-66 356.5,-66"/>
<text text-anchor="start" x="364.5" y="-87" font-family="Helvetica,sans-Serif" font-size="10.00">ant::analysis::Histogram</text>
<text text-anchor="middle" x="418" y="-74" font-family="Helvetica,sans-Serif" font-size="10.00">Factory</text>
</a>
</g>
<!-- Node4&#45;&gt;Node3 -->
<g id="edge4" class="edge"><title>Node4&#45;&gt;Node3</title>
<path fill="none" stroke="#9a32cd" stroke-dasharray="5,2" d="M489.751,-81.2284C526.358,-80.3245 570.247,-79.2408 604.429,-78.3968"/>
<polygon fill="#9a32cd" stroke="#9a32cd" points="489.544,-77.7323 479.633,-81.4782 489.717,-84.7302 489.544,-77.7323"/>
<text text-anchor="middle" x="546" y="-84" font-family="Helvetica,sans-Serif" font-size="10.00"> HistFac</text>
</g>
<!-- Node5 -->
<g id="node6" class="node"><title>Node5</title>
<a xlink:href="structant_1_1analysis_1_1utils_1_1_cluster_tools.html" target="_top" xlink:title="ant::analysis::utils\l::ClusterTools">
<polygon fill="white" stroke="black" points="613,-12 613,-46 709,-46 709,-12 613,-12"/>
<text text-anchor="start" x="621" y="-33" font-family="Helvetica,sans-Serif" font-size="10.00">ant::analysis::utils</text>
<text text-anchor="middle" x="661" y="-20" font-family="Helvetica,sans-Serif" font-size="10.00">::ClusterTools</text>
</a>
</g>
<!-- Node5&#45;&gt;Node2 -->
<g id="edge6" class="edge"><title>Node5&#45;&gt;Node2</title>
<path fill="none" stroke="#9a32cd" stroke-dasharray="5,2" d="M719.126,-36.4447C747.035,-40.0193 780.333,-44.284 807.965,-47.8231"/>
<polygon fill="#9a32cd" stroke="#9a32cd" points="719.472,-32.9605 709.108,-35.1616 718.582,-39.9038 719.472,-32.9605"/>
<text text-anchor="middle" x="763" y="-49" font-family="Helvetica,sans-Serif" font-size="10.00"> clustertools</text>
</g>
<!-- Node6 -->
<g id="node8" class="node"><title>Node6</title>
<polygon fill="white" stroke="#bfbfbf" points="348.5,-0.5 348.5,-47.5 487.5,-47.5 487.5,-0.5 348.5,-0.5"/>
<text text-anchor="start" x="356.5" y="-34.5" font-family="Helvetica,sans-Serif" font-size="10.00">std::map&lt; Detector</text>
<text text-anchor="start" x="356.5" y="-21.5" font-family="Helvetica,sans-Serif" font-size="10.00">_t::Type_t, ant::analysis</text>
<text text-anchor="middle" x="418" y="-8.5" font-family="Helvetica,sans-Serif" font-size="10.00">::utils::ClusterTools::det_t &gt;</text>
</g>
<!-- Node6&#45;&gt;Node5 -->
<g id="edge8" class="edge"><title>Node6&#45;&gt;Node5</title>
<path fill="none" stroke="#9a32cd" stroke-dasharray="5,2" d="M497.68,-25.6395C535.757,-26.423 580.075,-27.3349 612.93,-28.0109"/>
<polygon fill="#9a32cd" stroke="#9a32cd" points="497.704,-22.1394 487.634,-25.4328 497.56,-29.1379 497.704,-22.1394"/>
<text text-anchor="middle" x="546" y="-31" font-family="Helvetica,sans-Serif" font-size="10.00"> cluster_detectors</text>
</g>
<!-- Node7 -->
<g id="node10" class="node"><title>Node7</title>
<a xlink:href="structant_1_1analysis_1_1utils_1_1_cluster_tools_1_1det__t.html" target="_top" xlink:title="ant::analysis::utils\l::ClusterTools::det_t">
<polygon fill="white" stroke="black" points="162,-7 162,-41 268,-41 268,-7 162,-7"/>
<text text-anchor="start" x="170" y="-28" font-family="Helvetica,sans-Serif" font-size="10.00">ant::analysis::utils</text>
<text text-anchor="middle" x="215" y="-15" font-family="Helvetica,sans-Serif" font-size="10.00">::ClusterTools::det_t</text>
</a>
</g>
<!-- Node7&#45;&gt;Node6 -->
<g id="edge10" class="edge"><title>Node7&#45;&gt;Node6</title>
<path fill="none" stroke="#9a32cd" stroke-dasharray="5,2" d="M278.096,-24C300.4,-24 325.607,-24 348.419,-24"/>
<polygon fill="#9a32cd" stroke="#9a32cd" points="278.071,-20.5001 268.071,-24 278.071,-27.5001 278.071,-20.5001"/>
<text text-anchor="middle" x="308" y="-28" font-family="Helvetica,sans-Serif" font-size="10.00"> elements</text>
</g>
<!-- Node8 -->
<g id="node12" class="node"><title>Node8</title>
<polygon fill="white" stroke="#bfbfbf" points="0,-13.5 0,-34.5 110,-34.5 110,-13.5 0,-13.5"/>
<text text-anchor="middle" x="55" y="-21.5" font-family="Helvetica,sans-Serif" font-size="10.00">std::vector&lt; double &gt;</text>
</g>
<!-- Node8&#45;&gt;Node7 -->
<g id="edge12" class="edge"><title>Node8&#45;&gt;Node7</title>
<path fill="none" stroke="#9a32cd" stroke-dasharray="5,2" d="M120.076,-24C134.014,-24 148.579,-24 161.997,-24"/>
<polygon fill="#9a32cd" stroke="#9a32cd" points="120.063,-20.5001 110.063,-24 120.063,-27.5001 120.063,-20.5001"/>
<text text-anchor="middle" x="136" y="-28" font-family="Helvetica,sans-Serif" font-size="10.00"> R0</text>
</g>
</g>
</svg>
