<?xml version="1.0" encoding="UTF-8" standalone="no"?>
<!DOCTYPE svg PUBLIC "-//W3C//DTD SVG 1.1//EN"
 "http://www.w3.org/Graphics/SVG/1.1/DTD/svg11.dtd">
<!-- Generated by graphviz version 2.26.3 (20100126.1600)
 -->
<!-- Title: ant::calibration::gui::AvgBuffer_SavitzkyGolay&lt; AvgBufferItem &gt; Pages: 1 -->
<svg width="1144pt" height="237pt"
 viewBox="0.00 0.00 1144.00 237.00" xmlns="http://www.w3.org/2000/svg" xmlns:xlink="http://www.w3.org/1999/xlink">
<g id="graph1" class="graph" transform="scale(1 1) rotate(0) translate(4 233)">
<title>ant::calibration::gui::AvgBuffer_SavitzkyGolay&lt; AvgBufferItem &gt;</title>
<polygon fill="white" stroke="white" points="-4,5 -4,-233 1141,-233 1141,5 -4,5"/>
<!-- Node2 -->
<g id="node1" class="node"><title>Node2</title>
<polygon fill="#bfbfbf" stroke="black" points="1000.5,-82.5 1000.5,-129.5 1135.5,-129.5 1135.5,-82.5 1000.5,-82.5"/>
<text text-anchor="start" x="1008.5" y="-116.5" font-family="Helvetica,sans-Serif" font-size="10.00">ant::calibration::gui</text>
<text text-anchor="start" x="1008.5" y="-103.5" font-family="Helvetica,sans-Serif" font-size="10.00">::AvgBuffer_SavitzkyGolay</text>
<text text-anchor="middle" x="1068" y="-90.5" font-family="Helvetica,sans-Serif" font-size="10.00">&lt; AvgBufferItem &gt;</text>
</g>
<!-- Node3 -->
<g id="node2" class="node"><title>Node3</title>
<a xlink:href="classant_1_1calibration_1_1gui_1_1_avg_buffer__traits.html" target="_top" xlink:title="ant::calibration::gui\l::AvgBuffer_traits\&lt; AvgBuffer\lItem \&gt;">
<polygon fill="white" stroke="black" points="776,-181.5 776,-228.5 922,-228.5 922,-181.5 776,-181.5"/>
<text text-anchor="start" x="784" y="-215.5" font-family="Helvetica,sans-Serif" font-size="10.00">ant::calibration::gui</text>
<text text-anchor="start" x="784" y="-202.5" font-family="Helvetica,sans-Serif" font-size="10.00">::AvgBuffer_traits&lt; AvgBuffer</text>
<text text-anchor="middle" x="849" y="-189.5" font-family="Helvetica,sans-Serif" font-size="10.00">Item &gt;</text>
</a>
</g>
<!-- Node3&#45;&gt;Node2 -->
<g id="edge2" class="edge"><title>Node3&#45;&gt;Node2</title>
<path fill="none" stroke="midnightblue" d="M914.072,-177.277C918.114,-175.504 922.116,-173.735 926,-172 956.78,-158.255 991.058,-142.34 1018.22,-129.583"/>
<polygon fill="midnightblue" stroke="midnightblue" points="912.371,-174.2 904.604,-181.406 915.17,-180.616 912.371,-174.2"/>
</g>
<!-- Node4 -->
<g id="node4" class="node"><title>Node4</title>
<polygon fill="white" stroke="#bfbfbf" points="772,-115.5 772,-162.5 926,-162.5 926,-115.5 772,-115.5"/>
<text text-anchor="start" x="780" y="-149.5" font-family="Helvetica,sans-Serif" font-size="10.00">std::queue&lt; ant::calibration</text>
<text text-anchor="start" x="780" y="-136.5" font-family="Helvetica,sans-Serif" font-size="10.00">::gui::AvgBuffer_SavitzkyGolay</text>
<text text-anchor="middle" x="849" y="-123.5" font-family="Helvetica,sans-Serif" font-size="10.00">::buffer_entry &gt;</text>
</g>
<!-- Node4&#45;&gt;Node2 -->
<g id="edge4" class="edge"><title>Node4&#45;&gt;Node2</title>
<path fill="none" stroke="#9a32cd" stroke-dasharray="5,2" d="M936.226,-125.856C957.521,-122.648 979.988,-119.262 1000.22,-116.213"/>
<polygon fill="#9a32cd" stroke="#9a32cd" points="935.578,-122.414 926.211,-127.365 936.621,-129.336 935.578,-122.414"/>
<text text-anchor="middle" x="963" y="-128" font-family="Helvetica,sans-Serif" font-size="10.00"> worklist</text>
</g>
<!-- Node5 -->
<g id="node6" class="node"><title>Node5</title>
<a xlink:href="structant_1_1calibration_1_1gui_1_1_avg_buffer___savitzky_golay_1_1buffer__entry.html" target="_top" xlink:title="ant::calibration::gui\l::AvgBuffer_SavitzkyGolay\l\&lt; AvgBufferItem \&gt;::buffer_entry">
<polygon fill="white" stroke="black" points="442.5,-115.5 442.5,-162.5 597.5,-162.5 597.5,-115.5 442.5,-115.5"/>
<text text-anchor="start" x="450.5" y="-149.5" font-family="Helvetica,sans-Serif" font-size="10.00">ant::calibration::gui</text>
<text text-anchor="start" x="450.5" y="-136.5" font-family="Helvetica,sans-Serif" font-size="10.00">::AvgBuffer_SavitzkyGolay</text>
<text text-anchor="middle" x="520" y="-123.5" font-family="Helvetica,sans-Serif" font-size="10.00">&lt; AvgBufferItem &gt;::buffer_entry</text>
</a>
</g>
<!-- Node5&#45;&gt;Node4 -->
<g id="edge6" class="edge"><title>Node5&#45;&gt;Node4</title>
<path fill="none" stroke="#9a32cd" stroke-dasharray="5,2" d="M607.606,-139C658.769,-139 722.738,-139 771.969,-139"/>
<polygon fill="#9a32cd" stroke="#9a32cd" points="607.552,-135.5 597.552,-139 607.552,-142.5 607.552,-135.5"/>
<text text-anchor="middle" x="685" y="-143" font-family="Helvetica,sans-Serif" font-size="10.00"> elements</text>
</g>
<!-- Node6 -->
<g id="node8" class="node"><title>Node6</title>
<a xlink:href="classant_1_1interval.html" target="_top" xlink:title="ant::interval\&lt; ant\l::TID \&gt;">
<polygon fill="white" stroke="black" points="165,-122 165,-156 255,-156 255,-122 165,-122"/>
<text text-anchor="start" x="173" y="-143" font-family="Helvetica,sans-Serif" font-size="10.00">ant::interval&lt; ant</text>
<text text-anchor="middle" x="210" y="-130" font-family="Helvetica,sans-Serif" font-size="10.00">::TID &gt;</text>
</a>
</g>
<!-- Node6&#45;&gt;Node5 -->
<g id="edge8" class="edge"><title>Node6&#45;&gt;Node5</title>
<path fill="none" stroke="#9a32cd" stroke-dasharray="5,2" d="M265.23,-139C314.55,-139 387.306,-139 442.455,-139"/>
<polygon fill="#9a32cd" stroke="#9a32cd" points="265.077,-135.5 255.077,-139 265.077,-142.5 265.077,-135.5"/>
<text text-anchor="middle" x="364" y="-143" font-family="Helvetica,sans-Serif" font-size="10.00"> id</text>
</g>
<!-- Node7 -->
<g id="node10" class="node"><title>Node7</title>
<a xlink:href="structant_1_1_t_i_d.html" target="_top" xlink:title="ant::TID">
<polygon fill="white" stroke="black" points="0.5,-128.5 0.5,-149.5 53.5,-149.5 53.5,-128.5 0.5,-128.5"/>
<text text-anchor="middle" x="27" y="-136.5" font-family="Helvetica,sans-Serif" font-size="10.00">ant::TID</text>
</a>
</g>
<!-- Node7&#45;&gt;Node6 -->
<g id="edge10" class="edge"><title>Node7&#45;&gt;Node6</title>
<path fill="none" stroke="#9a32cd" stroke-dasharray="5,2" d="M63.7824,-139C92.9407,-139 133.816,-139 164.938,-139"/>
<polygon fill="#9a32cd" stroke="#9a32cd" points="63.6098,-135.5 53.6098,-139 63.6097,-142.5 63.6098,-135.5"/>
<text text-anchor="middle" x="94" y="-156" font-family="Helvetica,sans-Serif" font-size="10.00"> _start</text>
<text text-anchor="middle" x="94" y="-143" font-family="Helvetica,sans-Serif" font-size="10.00">_stop</text>
</g>
<!-- Node8 -->
<g id="node12" class="node"><title>Node8</title>
<a xlink:href="structant_1_1calibration_1_1gui_1_1_avg_buffer___savitzky_golay_1_1buffer__t.html" target="_top" xlink:title="ant::calibration::gui\l::AvgBuffer_SavitzkyGolay\l\&lt; AvgBufferItem \&gt;::buffer_t">
<polygon fill="white" stroke="black" points="616.5,-61.5 616.5,-108.5 753.5,-108.5 753.5,-61.5 616.5,-61.5"/>
<text text-anchor="start" x="624.5" y="-95.5" font-family="Helvetica,sans-Serif" font-size="10.00">ant::calibration::gui</text>
<text text-anchor="start" x="624.5" y="-82.5" font-family="Helvetica,sans-Serif" font-size="10.00">::AvgBuffer_SavitzkyGolay</text>
<text text-anchor="middle" x="685" y="-69.5" font-family="Helvetica,sans-Serif" font-size="10.00">&lt; AvgBufferItem &gt;::buffer_t</text>
</a>
</g>
<!-- Node8&#45;&gt;Node2 -->
<g id="edge12" class="edge"><title>Node8&#45;&gt;Node2</title>
<path fill="none" stroke="#9a32cd" stroke-dasharray="5,2" d="M763.749,-86.4597C810.858,-87.6205 871.893,-89.6281 926,-93 950.214,-94.509 976.698,-96.7677 1000.17,-98.9811"/>
<polygon fill="#9a32cd" stroke="#9a32cd" points="763.693,-82.9574 753.612,-86.2176 763.525,-89.9555 763.693,-82.9574"/>
<text text-anchor="middle" x="849" y="-97" font-family="Helvetica,sans-Serif" font-size="10.00"> m_buffer</text>
</g>
<!-- Node9 -->
<g id="node14" class="node"><title>Node9</title>
<a xlink:title="STL class. ">
<polygon fill="white" stroke="#bfbfbf" points="304.5,-76.5 304.5,-97.5 423.5,-97.5 423.5,-76.5 304.5,-76.5"/>
<text text-anchor="middle" x="364" y="-84.5" font-family="Helvetica,sans-Serif" font-size="10.00">std::list&lt; buffer_entry &gt;</text>
</a>
</g>
<!-- Node9&#45;&gt;Node8 -->
<g id="edge14" class="edge"><title>Node9&#45;&gt;Node8</title>
<path fill="none" stroke="midnightblue" d="M433.815,-86.565C487.891,-86.2281 562.41,-85.7638 616.222,-85.4285"/>
<polygon fill="midnightblue" stroke="midnightblue" points="433.603,-83.0662 423.625,-86.6285 433.647,-90.066 433.603,-83.0662"/>
</g>
<!-- Node10 -->
<g id="node16" class="node"><title>Node10</title>
<polygon fill="white" stroke="#bfbfbf" points="12.5,-54.5 12.5,-75.5 41.5,-75.5 41.5,-54.5 12.5,-54.5"/>
<text text-anchor="middle" x="27" y="-62.5" font-family="Helvetica,sans-Serif" font-size="10.00">T</text>
</g>
<!-- Node10&#45;&gt;Node9 -->
<g id="edge16" class="edge"><title>Node10&#45;&gt;Node9</title>
<path fill="none" stroke="#9a32cd" stroke-dasharray="5,2" d="M52.0992,-66.6385C105.125,-70.1002 229.801,-78.2392 304.474,-83.114"/>
<polygon fill="#9a32cd" stroke="#9a32cd" points="52.1221,-63.1327 41.9153,-65.9737 51.666,-70.1178 52.1221,-63.1327"/>
<text text-anchor="middle" x="94" y="-74" font-family="Helvetica,sans-Serif" font-size="10.00"> elements</text>
</g>
<!-- Node13 -->
<g id="node22" class="node"><title>Node13</title>
<a xlink:title="STL class. ">
<polygon fill="white" stroke="#bfbfbf" points="134.5,-0 134.5,-60 285.5,-60 285.5,-0 134.5,-0"/>
<text text-anchor="start" x="142.5" y="-47" font-family="Helvetica,sans-Serif" font-size="10.00">std::unique_ptr&lt; Savitzky</text>
<text text-anchor="start" x="142.5" y="-34" font-family="Helvetica,sans-Serif" font-size="10.00">Golay::gsl_matrix, std</text>
<text text-anchor="start" x="142.5" y="-21" font-family="Helvetica,sans-Serif" font-size="10.00">::function&lt; void(SavitzkyGolay</text>
<text text-anchor="middle" x="210" y="-8" font-family="Helvetica,sans-Serif" font-size="10.00">::gsl_matrix *)&gt; &gt;</text>
</a>
</g>
<!-- Node10&#45;&gt;Node13 -->
<g id="edge24" class="edge"><title>Node10&#45;&gt;Node13</title>
<path fill="none" stroke="#9a32cd" stroke-dasharray="5,2" d="M51.3464,-58.0534C58.0117,-56.276 65.2578,-54.4573 72,-53 92.0608,-48.6639 113.914,-44.6844 134.19,-41.2985"/>
<polygon fill="#9a32cd" stroke="#9a32cd" points="50.223,-54.7322 41.5062,-60.7545 52.076,-61.4825 50.223,-54.7322"/>
<text text-anchor="middle" x="94" y="-57" font-family="Helvetica,sans-Serif" font-size="10.00"> ptr</text>
</g>
<!-- Node11 -->
<g id="node18" class="node"><title>Node11</title>
<a xlink:href="structant_1_1_savitzky_golay.html" target="_top" xlink:title="ant::SavitzkyGolay">
<polygon fill="white" stroke="black" points="799,-21.5 799,-42.5 899,-42.5 899,-21.5 799,-21.5"/>
<text text-anchor="middle" x="849" y="-29.5" font-family="Helvetica,sans-Serif" font-size="10.00">ant::SavitzkyGolay</text>
</a>
</g>
<!-- Node11&#45;&gt;Node2 -->
<g id="edge18" class="edge"><title>Node11&#45;&gt;Node2</title>
<path fill="none" stroke="#9a32cd" stroke-dasharray="5,2" d="M909.082,-38.9627C932.323,-42.7684 958.849,-48.5008 982,-57 999.583,-63.4552 1017.78,-73.2965 1032.89,-82.4703"/>
<polygon fill="#9a32cd" stroke="#9a32cd" points="909.42,-35.4733 899.001,-37.397 908.346,-42.3904 909.42,-35.4733"/>
<text text-anchor="middle" x="963" y="-61" font-family="Helvetica,sans-Serif" font-size="10.00"> sg</text>
</g>
<!-- Node12 -->
<g id="node20" class="node"><title>Node12</title>
<a xlink:href="structant_1_1_savitzky_golay_1_1gsl__unique__ptr.html" target="_top" xlink:title="ant::SavitzkyGolay\l::gsl_unique_ptr\&lt; Savitzky\lGolay::gsl_matrix \&gt;">
<polygon fill="white" stroke="black" points="453.5,-7.5 453.5,-54.5 586.5,-54.5 586.5,-7.5 453.5,-7.5"/>
<text text-anchor="start" x="461.5" y="-41.5" font-family="Helvetica,sans-Serif" font-size="10.00">ant::SavitzkyGolay</text>
<text text-anchor="start" x="461.5" y="-28.5" font-family="Helvetica,sans-Serif" font-size="10.00">::gsl_unique_ptr&lt; Savitzky</text>
<text text-anchor="middle" x="520" y="-15.5" font-family="Helvetica,sans-Serif" font-size="10.00">Golay::gsl_matrix &gt;</text>
</a>
</g>
<!-- Node12&#45;&gt;Node11 -->
<g id="edge20" class="edge"><title>Node12&#45;&gt;Node11</title>
<path fill="none" stroke="#9a32cd" stroke-dasharray="5,2" d="M596.754,-31.2333C659.067,-31.4227 745.128,-31.6843 798.895,-31.8477"/>
<polygon fill="#9a32cd" stroke="#9a32cd" points="596.589,-27.7329 586.578,-31.2024 596.567,-34.7328 596.589,-27.7329"/>
<text text-anchor="middle" x="685" y="-36" font-family="Helvetica,sans-Serif" font-size="10.00"> h</text>
</g>
<!-- Node13&#45;&gt;Node12 -->
<g id="edge22" class="edge"><title>Node13&#45;&gt;Node12</title>
<path fill="none" stroke="midnightblue" d="M295.935,-30.2772C345.67,-30.4376 407.33,-30.6365 453.369,-30.7851"/>
<polygon fill="midnightblue" stroke="midnightblue" points="295.846,-26.777 285.835,-30.2446 295.823,-33.777 295.846,-26.777"/>
</g>
</g>
</svg>
