<?xml version="1.0" encoding="UTF-8" standalone="no"?>
<!DOCTYPE svg PUBLIC "-//W3C//DTD SVG 1.1//EN"
 "http://www.w3.org/Graphics/SVG/1.1/DTD/svg11.dtd">
<!-- Generated by graphviz version 2.26.3 (20100126.1600)
 -->
<!-- Title: ant::calibration::CB_TimeWalk Pages: 1 -->
<svg width="403pt" height="246pt"
 viewBox="0.00 0.00 403.00 246.00" xmlns="http://www.w3.org/2000/svg" xmlns:xlink="http://www.w3.org/1999/xlink">
<g id="graph1" class="graph" transform="scale(1 1) rotate(0) translate(4 242)">
<title>ant::calibration::CB_TimeWalk</title>
<polygon fill="white" stroke="white" points="-4,5 -4,-242 400,-242 400,5 -4,5"/>
<!-- Node0 -->
<g id="node1" class="node"><title>Node0</title>
<polygon fill="#bfbfbf" stroke="black" points="221.5,-1 221.5,-35 322.5,-35 322.5,-1 221.5,-1"/>
<text text-anchor="start" x="229.5" y="-22" font-family="Helvetica,sans-Serif" font-size="10.00">ant::calibration::CB</text>
<text text-anchor="middle" x="272" y="-9" font-family="Helvetica,sans-Serif" font-size="10.00">_TimeWalk</text>
</g>
<!-- Node1 -->
<g id="node2" class="node"><title>Node1</title>
<a xlink:href="classant_1_1_calibration_1_1_module.html" target="_top" xlink:title="The Module class is typically used for calibrations. ">
<polygon fill="white" stroke="black" points="145,-79.5 145,-100.5 265,-100.5 265,-79.5 145,-79.5"/>
<text text-anchor="middle" x="205" y="-87.5" font-family="Helvetica,sans-Serif" font-size="10.00">ant::Calibration::Module</text>
</a>
</g>
<!-- Node1&#45;&gt;Node0 -->
<g id="edge2" class="edge"><title>Node1&#45;&gt;Node0</title>
<path fill="none" stroke="midnightblue" d="M221.925,-71.8114C232.414,-60.5403 245.8,-46.1552 256.093,-35.0944"/>
<polygon fill="midnightblue" stroke="midnightblue" points="219.136,-69.6711 214.886,-79.3762 224.261,-74.4398 219.136,-69.6711"/>
</g>
<!-- Node2 -->
<g id="node4" class="node"><title>Node2</title>
<a xlink:href="classant_1_1_calibration_1_1_physics_module.html" target="_top" xlink:title="The PhysicsModule class gives the modules the ability to create histograms from events as well as fit...">
<polygon fill="white" stroke="black" points="9,-145 9,-179 133,-179 133,-145 9,-145"/>
<text text-anchor="start" x="17" y="-166" font-family="Helvetica,sans-Serif" font-size="10.00">ant::Calibration::Physics</text>
<text text-anchor="middle" x="71" y="-153" font-family="Helvetica,sans-Serif" font-size="10.00">Module</text>
</a>
</g>
<!-- Node2&#45;&gt;Node1 -->
<g id="edge4" class="edge"><title>Node2&#45;&gt;Node1</title>
<path fill="none" stroke="midnightblue" d="M111.77,-140.094C136.075,-127.034 165.848,-111.037 185.108,-100.688"/>
<polygon fill="midnightblue" stroke="midnightblue" points="109.908,-137.121 102.756,-144.937 113.222,-143.287 109.908,-137.121"/>
</g>
<!-- Node3 -->
<g id="node6" class="node"><title>Node3</title>
<a xlink:href="classant_1_1_calibration_1_1_base_module.html" target="_top" xlink:title="The BaseModule class provides a name for identification. ">
<polygon fill="white" stroke="black" points="-0.5,-216.5 -0.5,-237.5 142.5,-237.5 142.5,-216.5 -0.5,-216.5"/>
<text text-anchor="middle" x="71" y="-224.5" font-family="Helvetica,sans-Serif" font-size="10.00">ant::Calibration::BaseModule</text>
</a>
</g>
<!-- Node3&#45;&gt;Node2 -->
<g id="edge6" class="edge"><title>Node3&#45;&gt;Node2</title>
<path fill="none" stroke="midnightblue" d="M71,-206.131C71,-197.405 71,-187.391 71,-179.11"/>
<polygon fill="midnightblue" stroke="midnightblue" points="67.5001,-206.267 71,-216.267 74.5001,-206.267 67.5001,-206.267"/>
</g>
<!-- Node4 -->
<g id="node8" class="node"><title>Node4</title>
<a xlink:href="structant_1_1_updateable__traits.html" target="_top" xlink:title="The Updateable_traits class used by the UpdateableManager. ">
<polygon fill="white" stroke="black" points="150.5,-151.5 150.5,-172.5 263.5,-172.5 263.5,-151.5 150.5,-151.5"/>
<text text-anchor="middle" x="207" y="-159.5" font-family="Helvetica,sans-Serif" font-size="10.00">ant::Updateable_traits</text>
</a>
</g>
<!-- Node4&#45;&gt;Node1 -->
<g id="edge8" class="edge"><title>Node4&#45;&gt;Node1</title>
<path fill="none" stroke="midnightblue" d="M206.423,-141.235C206.055,-127.969 205.592,-111.319 205.296,-100.667"/>
<polygon fill="midnightblue" stroke="midnightblue" points="202.928,-141.477 206.705,-151.376 209.926,-141.283 202.928,-141.477"/>
</g>
<!-- Node5 -->
<g id="node10" class="node"><title>Node5</title>
<a xlink:href="structant_1_1_reconstruct_hook_1_1_cluster_hits.html" target="_top" xlink:title="The ClusterHits struct instances are applied before clustering and after hit matching. ">
<polygon fill="white" stroke="black" points="282.5,-73 282.5,-107 395.5,-107 395.5,-73 282.5,-73"/>
<text text-anchor="start" x="290.5" y="-94" font-family="Helvetica,sans-Serif" font-size="10.00">ant::ReconstructHook</text>
<text text-anchor="middle" x="339" y="-81" font-family="Helvetica,sans-Serif" font-size="10.00">::ClusterHits</text>
</a>
</g>
<!-- Node5&#45;&gt;Node0 -->
<g id="edge10" class="edge"><title>Node5&#45;&gt;Node0</title>
<path fill="none" stroke="midnightblue" d="M316.088,-65.3785C306.928,-55.5349 296.591,-44.4262 288.23,-35.4407"/>
<polygon fill="midnightblue" stroke="midnightblue" points="313.747,-68.0006 323.122,-72.937 318.872,-63.232 313.747,-68.0006"/>
</g>
<!-- Node6 -->
<g id="node12" class="node"><title>Node6</title>
<a xlink:href="structant_1_1_reconstruct_hook_1_1_base.html" target="_top" xlink:title="The Base struct just defines some useful types. ">
<polygon fill="white" stroke="black" points="282.5,-145 282.5,-179 395.5,-179 395.5,-145 282.5,-145"/>
<text text-anchor="start" x="290.5" y="-166" font-family="Helvetica,sans-Serif" font-size="10.00">ant::ReconstructHook</text>
<text text-anchor="middle" x="339" y="-153" font-family="Helvetica,sans-Serif" font-size="10.00">::Base</text>
</a>
</g>
<!-- Node6&#45;&gt;Node5 -->
<g id="edge12" class="edge"><title>Node6&#45;&gt;Node5</title>
<path fill="none" stroke="midnightblue" d="M339,-134.719C339,-125.572 339,-115.625 339,-107.441"/>
<polygon fill="midnightblue" stroke="midnightblue" points="335.5,-134.937 339,-144.937 342.5,-134.937 335.5,-134.937"/>
</g>
</g>
</svg>
