<?xml version="1.0" encoding="UTF-8" standalone="no"?>
<!DOCTYPE svg PUBLIC "-//W3C//DTD SVG 1.1//EN"
 "http://www.w3.org/Graphics/SVG/1.1/DTD/svg11.dtd">
<!-- Generated by graphviz version 2.26.3 (20100126.1600)
 -->
<!-- Title: ant::analysis::physics::IMPlots Pages: 1 -->
<svg width="1200pt" height="184pt"
 viewBox="0.00 0.00 1200.00 184.00" xmlns="http://www.w3.org/2000/svg" xmlns:xlink="http://www.w3.org/1999/xlink">
<g id="graph1" class="graph" transform="scale(1 1) rotate(0) translate(4 180)">
<title>ant::analysis::physics::IMPlots</title>
<polygon fill="white" stroke="white" points="-4,5 -4,-180 1197,-180 1197,5 -4,5"/>
<!-- Node2 -->
<g id="node1" class="node"><title>Node2</title>
<polygon fill="#bfbfbf" stroke="black" points="1080,-78 1080,-112 1192,-112 1192,-78 1080,-78"/>
<text text-anchor="start" x="1088" y="-99" font-family="Helvetica,sans-Serif" font-size="10.00">ant::analysis::physics</text>
<text text-anchor="middle" x="1136" y="-86" font-family="Helvetica,sans-Serif" font-size="10.00">::IMPlots</text>
</g>
<!-- Node3 -->
<g id="node2" class="node"><title>Node3</title>
<a xlink:href="classant_1_1analysis_1_1_physics.html" target="_top" xlink:title="ant::analysis::Physics">
<polygon fill="white" stroke="black" points="870.5,-145.5 870.5,-166.5 983.5,-166.5 983.5,-145.5 870.5,-145.5"/>
<text text-anchor="middle" x="927" y="-153.5" font-family="Helvetica,sans-Serif" font-size="10.00">ant::analysis::Physics</text>
</a>
</g>
<!-- Node3&#45;&gt;Node2 -->
<g id="edge2" class="edge"><title>Node3&#45;&gt;Node2</title>
<path fill="none" stroke="midnightblue" d="M993.479,-145.16C1015.55,-140.785 1040.07,-135.072 1062,-128 1075.39,-123.682 1089.61,-117.702 1101.97,-112.018"/>
<polygon fill="midnightblue" stroke="midnightblue" points="992.689,-141.748 983.531,-147.077 994.013,-148.622 992.689,-141.748"/>
</g>
<!-- Node4 -->
<g id="node4" class="node"><title>Node4</title>
<a xlink:href="classant_1_1analysis_1_1_histogram_factory.html" target="_top" xlink:title="ant::analysis::Histogram\lFactory">
<polygon fill="white" stroke="black" points="647.5,-142 647.5,-176 770.5,-176 770.5,-142 647.5,-142"/>
<text text-anchor="start" x="655.5" y="-163" font-family="Helvetica,sans-Serif" font-size="10.00">ant::analysis::Histogram</text>
<text text-anchor="middle" x="709" y="-150" font-family="Helvetica,sans-Serif" font-size="10.00">Factory</text>
</a>
</g>
<!-- Node4&#45;&gt;Node3 -->
<g id="edge4" class="edge"><title>Node4&#45;&gt;Node3</title>
<path fill="none" stroke="#9a32cd" stroke-dasharray="5,2" d="M780.716,-158.013C809.85,-157.612 843.025,-157.156 870.408,-156.779"/>
<polygon fill="#9a32cd" stroke="#9a32cd" points="780.547,-154.515 770.596,-158.152 780.643,-161.514 780.547,-154.515"/>
<text text-anchor="middle" x="822" y="-161" font-family="Helvetica,sans-Serif" font-size="10.00"> HistFac</text>
</g>
<!-- Node5 -->
<g id="node6" class="node"><title>Node5</title>
<a xlink:href="classant_1_1analysis_1_1_prompt_random_1_1_switch.html" target="_top" xlink:title="ant::analysis::PromptRandom\l::Switch">
<polygon fill="white" stroke="black" points="444,-79 444,-113 590,-113 590,-79 444,-79"/>
<text text-anchor="start" x="452" y="-100" font-family="Helvetica,sans-Serif" font-size="10.00">ant::analysis::PromptRandom</text>
<text text-anchor="middle" x="517" y="-87" font-family="Helvetica,sans-Serif" font-size="10.00">::Switch</text>
</a>
</g>
<!-- Node5&#45;&gt;Node2 -->
<g id="edge6" class="edge"><title>Node5&#45;&gt;Node2</title>
<path fill="none" stroke="#9a32cd" stroke-dasharray="5,2" d="M600.219,-98.8462C602.843,-98.9031 605.442,-98.9547 608,-99 786.639,-102.166 831.333,-99.7778 1010,-100 1033.11,-100.029 1038.9,-100.779 1062,-100 1067.79,-99.8046 1073.83,-99.5234 1079.86,-99.1926"/>
<polygon fill="#9a32cd" stroke="#9a32cd" points="600.089,-95.3421 590.008,-98.6026 599.922,-102.34 600.089,-95.3421"/>
<text text-anchor="middle" x="822" y="-104" font-family="Helvetica,sans-Serif" font-size="10.00"> prs</text>
</g>
<!-- Node11 -->
<g id="node18" class="node"><title>Node11</title>
<a xlink:href="structant_1_1analysis_1_1_prompt_random_1_1_hist1.html" target="_top" xlink:title="ant::analysis::PromptRandom\l::Hist1">
<polygon fill="white" stroke="black" points="636,-52 636,-86 782,-86 782,-52 636,-52"/>
<text text-anchor="start" x="644" y="-73" font-family="Helvetica,sans-Serif" font-size="10.00">ant::analysis::PromptRandom</text>
<text text-anchor="middle" x="709" y="-60" font-family="Helvetica,sans-Serif" font-size="10.00">::Hist1</text>
</a>
</g>
<!-- Node5&#45;&gt;Node11 -->
<g id="edge20" class="edge"><title>Node5&#45;&gt;Node11</title>
<path fill="none" stroke="#9a32cd" stroke-dasharray="5,2" d="M600.394,-84.2728C612.163,-82.6176 624.191,-80.9263 635.751,-79.3007"/>
<polygon fill="#9a32cd" stroke="#9a32cd" points="599.55,-80.8569 590.135,-85.7154 600.525,-87.7887 599.55,-80.8569"/>
<text text-anchor="middle" x="613" y="-86" font-family="Helvetica,sans-Serif" font-size="10.00"> d</text>
</g>
<!-- Node6 -->
<g id="node8" class="node"><title>Node6</title>
<a xlink:href="classant_1_1_piecewise_interval.html" target="_top" xlink:title="ant::PiecewiseInterval\l\&lt; double \&gt;">
<polygon fill="white" stroke="black" points="252.5,-79 252.5,-113 365.5,-113 365.5,-79 252.5,-79"/>
<text text-anchor="start" x="260.5" y="-100" font-family="Helvetica,sans-Serif" font-size="10.00">ant::PiecewiseInterval</text>
<text text-anchor="middle" x="309" y="-87" font-family="Helvetica,sans-Serif" font-size="10.00">&lt; double &gt;</text>
</a>
</g>
<!-- Node6&#45;&gt;Node5 -->
<g id="edge8" class="edge"><title>Node6&#45;&gt;Node5</title>
<path fill="none" stroke="#9a32cd" stroke-dasharray="5,2" d="M375.654,-96C397.328,-96 421.498,-96 443.635,-96"/>
<polygon fill="#9a32cd" stroke="#9a32cd" points="375.562,-92.5001 365.562,-96 375.562,-99.5001 375.562,-92.5001"/>
<text text-anchor="middle" x="405" y="-113" font-family="Helvetica,sans-Serif" font-size="10.00"> promptw</text>
<text text-anchor="middle" x="405" y="-100" font-family="Helvetica,sans-Serif" font-size="10.00">randomw</text>
</g>
<!-- Node7 -->
<g id="node10" class="node"><title>Node7</title>
<a xlink:title="STL class. ">
<polygon fill="white" stroke="#bfbfbf" points="110,-79 110,-113 214,-113 214,-79 110,-79"/>
<text text-anchor="start" x="118" y="-100" font-family="Helvetica,sans-Serif" font-size="10.00">std::vector&lt; interval</text>
<text text-anchor="middle" x="162" y="-87" font-family="Helvetica,sans-Serif" font-size="10.00">&lt; double &gt; &gt;</text>
</a>
</g>
<!-- Node7&#45;&gt;Node6 -->
<g id="edge10" class="edge"><title>Node7&#45;&gt;Node6</title>
<path fill="none" stroke="midnightblue" d="M224.261,-96C233.614,-96 243.214,-96 252.439,-96"/>
<polygon fill="midnightblue" stroke="midnightblue" points="224.241,-92.5001 214.241,-96 224.241,-99.5001 224.241,-92.5001"/>
</g>
<!-- Node8 -->
<g id="node12" class="node"><title>Node8</title>
<polygon fill="white" stroke="#bfbfbf" points="0.5,-85.5 0.5,-106.5 29.5,-106.5 29.5,-85.5 0.5,-85.5"/>
<text text-anchor="middle" x="15" y="-93.5" font-family="Helvetica,sans-Serif" font-size="10.00">T</text>
</g>
<!-- Node8&#45;&gt;Node7 -->
<g id="edge12" class="edge"><title>Node8&#45;&gt;Node7</title>
<path fill="none" stroke="#9a32cd" stroke-dasharray="5,2" d="M39.869,-96C58.9565,-96 85.9818,-96 109.759,-96"/>
<polygon fill="#9a32cd" stroke="#9a32cd" points="39.6324,-92.5001 29.6323,-96 39.6323,-99.5001 39.6324,-92.5001"/>
<text text-anchor="middle" x="70" y="-100" font-family="Helvetica,sans-Serif" font-size="10.00"> elements</text>
</g>
<!-- Node9 -->
<g id="node14" class="node"><title>Node9</title>
<a xlink:href="classant_1_1analysis_1_1utils_1_1_trigger_simulation.html" target="_top" xlink:title="ant::analysis::utils\l::TriggerSimulation">
<polygon fill="white" stroke="black" points="878,-0 878,-34 976,-34 976,-0 878,-0"/>
<text text-anchor="start" x="886" y="-21" font-family="Helvetica,sans-Serif" font-size="10.00">ant::analysis::utils</text>
<text text-anchor="middle" x="927" y="-8" font-family="Helvetica,sans-Serif" font-size="10.00">::TriggerSimulation</text>
</a>
</g>
<!-- Node9&#45;&gt;Node2 -->
<g id="edge14" class="edge"><title>Node9&#45;&gt;Node2</title>
<path fill="none" stroke="#9a32cd" stroke-dasharray="5,2" d="M985.77,-35.2081C1009.62,-42.9536 1037.31,-52.4054 1062,-62 1074.33,-66.7891 1087.58,-72.5105 1099.41,-77.8338"/>
<polygon fill="#9a32cd" stroke="#9a32cd" points="986.742,-31.8441 976.15,-32.1079 984.595,-38.5067 986.742,-31.8441"/>
<text text-anchor="middle" x="1036" y="-66" font-family="Helvetica,sans-Serif" font-size="10.00"> triggersimu</text>
</g>
<!-- Node10 -->
<g id="node16" class="node"><title>Node10</title>
<polygon fill="white" stroke="#bfbfbf" points="862.5,-52 862.5,-86 991.5,-86 991.5,-52 862.5,-52"/>
<text text-anchor="start" x="870.5" y="-73" font-family="Helvetica,sans-Serif" font-size="10.00">std::vector&lt; ant::analysis</text>
<text text-anchor="middle" x="927" y="-60" font-family="Helvetica,sans-Serif" font-size="10.00">::PromptRandom::Hist1 &gt;</text>
</g>
<!-- Node10&#45;&gt;Node2 -->
<g id="edge16" class="edge"><title>Node10&#45;&gt;Node2</title>
<path fill="none" stroke="#9a32cd" stroke-dasharray="5,2" d="M1001.77,-78.3019C1027.46,-81.4975 1055.76,-85.0183 1079.73,-87.9998"/>
<polygon fill="#9a32cd" stroke="#9a32cd" points="1002.05,-74.8099 991.698,-77.0485 1001.19,-81.7563 1002.05,-74.8099"/>
<text text-anchor="middle" x="1036" y="-89" font-family="Helvetica,sans-Serif" font-size="10.00"> m</text>
</g>
<!-- Node11&#45;&gt;Node10 -->
<g id="edge18" class="edge"><title>Node11&#45;&gt;Node10</title>
<path fill="none" stroke="#9a32cd" stroke-dasharray="5,2" d="M792.38,-69C815.593,-69 840.45,-69 862.406,-69"/>
<polygon fill="#9a32cd" stroke="#9a32cd" points="792.197,-65.5001 782.197,-69 792.197,-72.5001 792.197,-65.5001"/>
<text text-anchor="middle" x="822" y="-73" font-family="Helvetica,sans-Serif" font-size="10.00"> elements</text>
</g>
</g>
</svg>
