<?xml version="1.0" encoding="UTF-8" standalone="no"?>
<!DOCTYPE svg PUBLIC "-//W3C//DTD SVG 1.1//EN"
 "http://www.w3.org/Graphics/SVG/1.1/DTD/svg11.dtd">
<!-- Generated by graphviz version 2.26.3 (20100126.1600)
 -->
<!-- Title: ant::unpacker::acqu::FileFormatBase Pages: 1 -->
<svg width="230pt" height="174pt"
 viewBox="0.00 0.00 230.00 174.00" xmlns="http://www.w3.org/2000/svg" xmlns:xlink="http://www.w3.org/1999/xlink">
<g id="graph1" class="graph" transform="scale(1 1) rotate(0) translate(4 170)">
<title>ant::unpacker::acqu::FileFormatBase</title>
<polygon fill="white" stroke="white" points="-4,5 -4,-170 227,-170 227,5 -4,5"/>
<!-- Node0 -->
<g id="node1" class="node"><title>Node0</title>
<polygon fill="#bfbfbf" stroke="black" points="59.5,-73 59.5,-107 162.5,-107 162.5,-73 59.5,-73"/>
<text text-anchor="start" x="67.5" y="-94" font-family="Helvetica,sans-Serif" font-size="10.00">ant::unpacker::acqu</text>
<text text-anchor="middle" x="111" y="-81" font-family="Helvetica,sans-Serif" font-size="10.00">::FileFormatBase</text>
</g>
<!-- Node2 -->
<g id="node5" class="node"><title>Node2</title>
<a xlink:href="classant_1_1unpacker_1_1acqu_1_1_file_format_mk1.html" target="_top" xlink:title="ant::unpacker::acqu\l::FileFormatMk1">
<polygon fill="white" stroke="black" points="-0.5,-1 -0.5,-35 102.5,-35 102.5,-1 -0.5,-1"/>
<text text-anchor="start" x="7.5" y="-22" font-family="Helvetica,sans-Serif" font-size="10.00">ant::unpacker::acqu</text>
<text text-anchor="middle" x="51" y="-9" font-family="Helvetica,sans-Serif" font-size="10.00">::FileFormatMk1</text>
</a>
</g>
<!-- Node0&#45;&gt;Node2 -->
<g id="edge4" class="edge"><title>Node0&#45;&gt;Node2</title>
<path fill="none" stroke="midnightblue" d="M90.2382,-65.0858C82.0959,-55.3151 72.9477,-44.3372 65.5339,-35.4407"/>
<polygon fill="midnightblue" stroke="midnightblue" points="87.6902,-67.4954 96.7808,-72.937 93.0677,-63.0141 87.6902,-67.4954"/>
</g>
<!-- Node3 -->
<g id="node7" class="node"><title>Node3</title>
<a xlink:href="classant_1_1unpacker_1_1acqu_1_1_file_format_mk2.html" target="_top" xlink:title="ant::unpacker::acqu\l::FileFormatMk2">
<polygon fill="white" stroke="black" points="119.5,-1 119.5,-35 222.5,-35 222.5,-1 119.5,-1"/>
<text text-anchor="start" x="127.5" y="-22" font-family="Helvetica,sans-Serif" font-size="10.00">ant::unpacker::acqu</text>
<text text-anchor="middle" x="171" y="-9" font-family="Helvetica,sans-Serif" font-size="10.00">::FileFormatMk2</text>
</a>
</g>
<!-- Node0&#45;&gt;Node3 -->
<g id="edge6" class="edge"><title>Node0&#45;&gt;Node3</title>
<path fill="none" stroke="midnightblue" d="M131.762,-65.0858C139.904,-55.3151 149.052,-44.3372 156.466,-35.4407"/>
<polygon fill="midnightblue" stroke="midnightblue" points="128.932,-63.0141 125.219,-72.937 134.31,-67.4954 128.932,-63.0141"/>
</g>
<!-- Node1 -->
<g id="node2" class="node"><title>Node1</title>
<a xlink:href="classant_1_1_unpacker_acqu_file_format.html" target="_top" xlink:title="ant::UnpackerAcquFileFormat">
<polygon fill="white" stroke="black" points="37.5,-144.5 37.5,-165.5 184.5,-165.5 184.5,-144.5 37.5,-144.5"/>
<text text-anchor="middle" x="111" y="-152.5" font-family="Helvetica,sans-Serif" font-size="10.00">ant::UnpackerAcquFileFormat</text>
</a>
</g>
<!-- Node1&#45;&gt;Node0 -->
<g id="edge2" class="edge"><title>Node1&#45;&gt;Node0</title>
<path fill="none" stroke="midnightblue" d="M111,-134.131C111,-125.405 111,-115.391 111,-107.11"/>
<polygon fill="midnightblue" stroke="midnightblue" points="107.5,-134.267 111,-144.267 114.5,-134.267 107.5,-134.267"/>
</g>
</g>
</svg>
