<?xml version="1.0" encoding="UTF-8" standalone="no"?>
<!DOCTYPE svg PUBLIC "-//W3C//DTD SVG 1.1//EN"
 "http://www.w3.org/Graphics/SVG/1.1/DTD/svg11.dtd">
<!-- Generated by graphviz version 2.26.3 (20100126.1600)
 -->
<!-- Title: ant::analysis::PromptRandom::Switch Pages: 1 -->
<svg width="154pt" height="288pt"
 viewBox="0.00 0.00 154.00 288.00" xmlns="http://www.w3.org/2000/svg" xmlns:xlink="http://www.w3.org/1999/xlink">
<g id="graph1" class="graph" transform="scale(1 1) rotate(0) translate(4 284)">
<title>ant::analysis::PromptRandom::Switch</title>
<polygon fill="white" stroke="white" points="-4,5 -4,-284 151,-284 151,5 -4,5"/>
<!-- Node1 -->
<g id="node1" class="node"><title>Node1</title>
<polygon fill="#bfbfbf" stroke="black" points="0,-1 0,-35 146,-35 146,-1 0,-1"/>
<text text-anchor="start" x="8" y="-22" font-family="Helvetica,sans-Serif" font-size="10.00">ant::analysis::PromptRandom</text>
<text text-anchor="middle" x="73" y="-9" font-family="Helvetica,sans-Serif" font-size="10.00">::Switch</text>
</g>
<!-- Node2 -->
<g id="node2" class="node"><title>Node2</title>
<a xlink:href="classant_1_1_piecewise_interval.html" target="_top" xlink:title="ant::PiecewiseInterval\l\&lt; double \&gt;">
<polygon fill="white" stroke="black" points="16.5,-99 16.5,-133 129.5,-133 129.5,-99 16.5,-99"/>
<text text-anchor="start" x="24.5" y="-120" font-family="Helvetica,sans-Serif" font-size="10.00">ant::PiecewiseInterval</text>
<text text-anchor="middle" x="73" y="-107" font-family="Helvetica,sans-Serif" font-size="10.00">&lt; double &gt;</text>
</a>
</g>
<!-- Node2&#45;&gt;Node1 -->
<g id="edge2" class="edge"><title>Node2&#45;&gt;Node1</title>
<path fill="none" stroke="#9a32cd" stroke-dasharray="5,2" d="M73,-88.9232C73,-71.7494 73,-50.0495 73,-35.2035"/>
<polygon fill="#9a32cd" stroke="#9a32cd" points="69.5001,-88.9297 73,-98.9297 76.5001,-88.9297 69.5001,-88.9297"/>
<text text-anchor="middle" x="93.5" y="-71" font-family="Helvetica,sans-Serif" font-size="10.00"> promptw</text>
<text text-anchor="middle" x="93.5" y="-58" font-family="Helvetica,sans-Serif" font-size="10.00">randomw</text>
</g>
<!-- Node3 -->
<g id="node4" class="node"><title>Node3</title>
<a xlink:title="STL class. ">
<polygon fill="white" stroke="#bfbfbf" points="21,-173 21,-207 125,-207 125,-173 21,-173"/>
<text text-anchor="start" x="29" y="-194" font-family="Helvetica,sans-Serif" font-size="10.00">std::vector&lt; interval</text>
<text text-anchor="middle" x="73" y="-181" font-family="Helvetica,sans-Serif" font-size="10.00">&lt; double &gt; &gt;</text>
</a>
</g>
<!-- Node3&#45;&gt;Node2 -->
<g id="edge4" class="edge"><title>Node3&#45;&gt;Node2</title>
<path fill="none" stroke="midnightblue" d="M73,-162.627C73,-152.725 73,-141.834 73,-133.07"/>
<polygon fill="midnightblue" stroke="midnightblue" points="69.5001,-162.837 73,-172.837 76.5001,-162.837 69.5001,-162.837"/>
</g>
<!-- Node4 -->
<g id="node6" class="node"><title>Node4</title>
<polygon fill="white" stroke="#bfbfbf" points="58.5,-258.5 58.5,-279.5 87.5,-279.5 87.5,-258.5 58.5,-258.5"/>
<text text-anchor="middle" x="73" y="-266.5" font-family="Helvetica,sans-Serif" font-size="10.00">T</text>
</g>
<!-- Node4&#45;&gt;Node3 -->
<g id="edge6" class="edge"><title>Node4&#45;&gt;Node3</title>
<path fill="none" stroke="#9a32cd" stroke-dasharray="5,2" d="M73,-248.162C73,-235.363 73,-219.171 73,-207.124"/>
<polygon fill="#9a32cd" stroke="#9a32cd" points="69.5001,-248.346 73,-258.346 76.5001,-248.346 69.5001,-248.346"/>
<text text-anchor="middle" x="94.5" y="-230.5" font-family="Helvetica,sans-Serif" font-size="10.00"> elements</text>
</g>
</g>
</svg>
