<?xml version="1.0" encoding="UTF-8" standalone="no"?>
<!DOCTYPE svg PUBLIC "-//W3C//DTD SVG 1.1//EN"
 "http://www.w3.org/Graphics/SVG/1.1/DTD/svg11.dtd">
<!-- Generated by graphviz version 2.26.3 (20100126.1600)
 -->
<!-- Title: ant::calibration::gui::KnobsTF1::TransformedParameterKnob Pages: 1 -->
<svg width="204pt" height="260pt"
 viewBox="0.00 0.00 204.00 260.00" xmlns="http://www.w3.org/2000/svg" xmlns:xlink="http://www.w3.org/1999/xlink">
<g id="graph1" class="graph" transform="scale(1 1) rotate(0) translate(4 256)">
<title>ant::calibration::gui::KnobsTF1::TransformedParameterKnob</title>
<polygon fill="white" stroke="white" points="-4,5 -4,-256 201,-256 201,5 -4,5"/>
<!-- Node0 -->
<g id="node1" class="node"><title>Node0</title>
<polygon fill="#bfbfbf" stroke="black" points="0,-73 0,-107 196,-107 196,-73 0,-73"/>
<text text-anchor="start" x="8" y="-94" font-family="Helvetica,sans-Serif" font-size="10.00">ant::calibration::gui</text>
<text text-anchor="middle" x="98" y="-81" font-family="Helvetica,sans-Serif" font-size="10.00">::KnobsTF1::TransformedParameterKnob</text>
</g>
<!-- Node3 -->
<g id="node7" class="node"><title>Node3</title>
<a xlink:href="classant_1_1calibration_1_1gui_1_1_knobs_t_f1_1_1_reference_parameter_knob.html" target="_top" xlink:title="ant::calibration::gui\l::KnobsTF1::ReferenceParameterKnob">
<polygon fill="white" stroke="black" points="5,-1 5,-35 191,-35 191,-1 5,-1"/>
<text text-anchor="start" x="13" y="-22" font-family="Helvetica,sans-Serif" font-size="10.00">ant::calibration::gui</text>
<text text-anchor="middle" x="98" y="-9" font-family="Helvetica,sans-Serif" font-size="10.00">::KnobsTF1::ReferenceParameterKnob</text>
</a>
</g>
<!-- Node0&#45;&gt;Node3 -->
<g id="edge6" class="edge"><title>Node0&#45;&gt;Node3</title>
<path fill="none" stroke="midnightblue" d="M98,-62.7193C98,-53.572 98,-43.6255 98,-35.4407"/>
<polygon fill="midnightblue" stroke="midnightblue" points="94.5001,-62.937 98,-72.937 101.5,-62.937 94.5001,-62.937"/>
</g>
<!-- Node1 -->
<g id="node2" class="node"><title>Node1</title>
<a xlink:href="classant_1_1calibration_1_1gui_1_1_knobs_t_f1_1_1_parameter_knob.html" target="_top" xlink:title="ant::calibration::gui\l::KnobsTF1::ParameterKnob">
<polygon fill="white" stroke="black" points="27.5,-145 27.5,-179 168.5,-179 168.5,-145 27.5,-145"/>
<text text-anchor="start" x="35.5" y="-166" font-family="Helvetica,sans-Serif" font-size="10.00">ant::calibration::gui</text>
<text text-anchor="middle" x="98" y="-153" font-family="Helvetica,sans-Serif" font-size="10.00">::KnobsTF1::ParameterKnob</text>
</a>
</g>
<!-- Node1&#45;&gt;Node0 -->
<g id="edge2" class="edge"><title>Node1&#45;&gt;Node0</title>
<path fill="none" stroke="midnightblue" d="M98,-134.719C98,-125.572 98,-115.625 98,-107.441"/>
<polygon fill="midnightblue" stroke="midnightblue" points="94.5001,-134.937 98,-144.937 101.5,-134.937 94.5001,-134.937"/>
</g>
<!-- Node2 -->
<g id="node4" class="node"><title>Node2</title>
<a xlink:href="classant_1_1calibration_1_1gui_1_1_indicator_knob.html" target="_top" xlink:title="ant::calibration::gui\l::IndicatorKnob">
<polygon fill="white" stroke="black" points="48.5,-217 48.5,-251 147.5,-251 147.5,-217 48.5,-217"/>
<text text-anchor="start" x="56.5" y="-238" font-family="Helvetica,sans-Serif" font-size="10.00">ant::calibration::gui</text>
<text text-anchor="middle" x="98" y="-225" font-family="Helvetica,sans-Serif" font-size="10.00">::IndicatorKnob</text>
</a>
</g>
<!-- Node2&#45;&gt;Node1 -->
<g id="edge4" class="edge"><title>Node2&#45;&gt;Node1</title>
<path fill="none" stroke="midnightblue" d="M98,-206.719C98,-197.572 98,-187.625 98,-179.441"/>
<polygon fill="midnightblue" stroke="midnightblue" points="94.5001,-206.937 98,-216.937 101.5,-206.937 94.5001,-206.937"/>
</g>
</g>
</svg>
