<?xml version="1.0" encoding="UTF-8" standalone="no"?>
<!DOCTYPE svg PUBLIC "-//W3C//DTD SVG 1.1//EN"
 "http://www.w3.org/Graphics/SVG/1.1/DTD/svg11.dtd">
<!-- Generated by graphviz version 2.26.3 (20100126.1600)
 -->
<!-- Title: ant::analysis::Physics Pages: 1 -->
<svg width="130pt" height="116pt"
 viewBox="0.00 0.00 130.00 116.00" xmlns="http://www.w3.org/2000/svg" xmlns:xlink="http://www.w3.org/1999/xlink">
<g id="graph1" class="graph" transform="scale(1 1) rotate(0) translate(4 112)">
<title>ant::analysis::Physics</title>
<polygon fill="white" stroke="white" points="-4,5 -4,-112 127,-112 127,5 -4,5"/>
<!-- Node101 -->
<g id="node1" class="node"><title>Node101</title>
<polygon fill="#bfbfbf" stroke="black" points="4.5,-0.5 4.5,-21.5 117.5,-21.5 117.5,-0.5 4.5,-0.5"/>
<text text-anchor="middle" x="61" y="-8.5" font-family="Helvetica,sans-Serif" font-size="10.00">ant::analysis::Physics</text>
</g>
<!-- Node102 -->
<g id="node2" class="node"><title>Node102</title>
<a xlink:href="classant_1_1analysis_1_1_histogram_factory.html" target="_top" xlink:title="ant::analysis::Histogram\lFactory">
<polygon fill="white" stroke="black" points="-0.5,-73 -0.5,-107 122.5,-107 122.5,-73 -0.5,-73"/>
<text text-anchor="start" x="7.5" y="-94" font-family="Helvetica,sans-Serif" font-size="10.00">ant::analysis::Histogram</text>
<text text-anchor="middle" x="61" y="-81" font-family="Helvetica,sans-Serif" font-size="10.00">Factory</text>
</a>
</g>
<!-- Node102&#45;&gt;Node101 -->
<g id="edge2" class="edge"><title>Node102&#45;&gt;Node101</title>
<path fill="none" stroke="#9a32cd" stroke-dasharray="5,2" d="M61,-62.6228C61,-48.4727 61,-32.0243 61,-21.5672"/>
<polygon fill="#9a32cd" stroke="#9a32cd" points="57.5001,-62.8581 61,-72.8582 64.5001,-62.8582 57.5001,-62.8581"/>
<text text-anchor="middle" x="80" y="-44.5" font-family="Helvetica,sans-Serif" font-size="10.00"> HistFac</text>
</g>
</g>
</svg>
