<?xml version="1.0" encoding="UTF-8" standalone="no"?>
<!DOCTYPE svg PUBLIC "-//W3C//DTD SVG 1.1//EN"
 "http://www.w3.org/Graphics/SVG/1.1/DTD/svg11.dtd">
<!-- Generated by graphviz version 2.26.3 (20100126.1600)
 -->
<!-- Title: ant::BrowseHistogramsCanvas Pages: 1 -->
<svg width="372pt" height="190pt"
 viewBox="0.00 0.00 372.00 190.00" xmlns="http://www.w3.org/2000/svg" xmlns:xlink="http://www.w3.org/1999/xlink">
<g id="graph1" class="graph" transform="scale(1 1) rotate(0) translate(4 186)">
<title>ant::BrowseHistogramsCanvas</title>
<polygon fill="white" stroke="white" points="-4,5 -4,-186 369,-186 369,5 -4,5"/>
<!-- Node2 -->
<g id="node1" class="node"><title>Node2</title>
<polygon fill="#bfbfbf" stroke="black" points="78.5,-0.5 78.5,-21.5 231.5,-21.5 231.5,-0.5 78.5,-0.5"/>
<text text-anchor="middle" x="155" y="-8.5" font-family="Helvetica,sans-Serif" font-size="10.00">ant::BrowseHistogramsCanvas</text>
</g>
<!-- Node3 -->
<g id="node2" class="node"><title>Node3</title>
<polygon fill="white" stroke="#bfbfbf" points="0,-79.5 0,-100.5 56,-100.5 56,-79.5 0,-79.5"/>
<text text-anchor="middle" x="28" y="-87.5" font-family="Helvetica,sans-Serif" font-size="10.00">TCanvas</text>
</g>
<!-- Node3&#45;&gt;Node2 -->
<g id="edge2" class="edge"><title>Node3&#45;&gt;Node2</title>
<path fill="none" stroke="midnightblue" d="M53.7407,-73.9881C78.7684,-58.4197 116.085,-35.2068 137.738,-21.7378"/>
<polygon fill="midnightblue" stroke="midnightblue" points="51.7703,-71.0918 45.1278,-79.3457 55.4677,-77.0357 51.7703,-71.0918"/>
</g>
<!-- Node4 -->
<g id="node4" class="node"><title>Node4</title>
<polygon fill="white" stroke="#bfbfbf" points="74,-79.5 74,-100.5 166,-100.5 166,-79.5 74,-79.5"/>
<text text-anchor="middle" x="120" y="-87.5" font-family="Helvetica,sans-Serif" font-size="10.00">std::list&lt; TH1 * &gt;</text>
</g>
<!-- Node4&#45;&gt;Node2 -->
<g id="edge4" class="edge"><title>Node4&#45;&gt;Node2</title>
<path fill="none" stroke="#9a32cd" stroke-dasharray="5,2" d="M128.787,-70.1664C135.588,-54.8152 144.747,-34.1434 150.243,-21.7378"/>
<polygon fill="#9a32cd" stroke="#9a32cd" points="125.571,-68.7851 124.72,-79.3457 131.971,-71.6206 125.571,-68.7851"/>
<text text-anchor="middle" x="154.5" y="-44.5" font-family="Helvetica,sans-Serif" font-size="10.00"> hists</text>
</g>
<!-- Node5 -->
<g id="node6" class="node"><title>Node5</title>
<a xlink:title="STL class. ">
<polygon fill="white" stroke="#bfbfbf" points="184,-79.5 184,-100.5 244,-100.5 244,-79.5 184,-79.5"/>
<text text-anchor="middle" x="214" y="-87.5" font-family="Helvetica,sans-Serif" font-size="10.00">std::string</text>
</a>
</g>
<!-- Node5&#45;&gt;Node2 -->
<g id="edge6" class="edge"><title>Node5&#45;&gt;Node2</title>
<path fill="none" stroke="#9a32cd" stroke-dasharray="5,2" d="M199.838,-71.0378C188.313,-55.6057 172.461,-34.3797 163.019,-21.7378"/>
<polygon fill="#9a32cd" stroke="#9a32cd" points="197.255,-73.4279 206.043,-79.3457 202.863,-69.2392 197.255,-73.4279"/>
<text text-anchor="middle" x="215" y="-44.5" font-family="Helvetica,sans-Serif" font-size="10.00"> draw_option</text>
</g>
<!-- Node6 -->
<g id="node8" class="node"><title>Node6</title>
<a xlink:title="STL class. ">
<polygon fill="white" stroke="#bfbfbf" points="166.5,-147 166.5,-181 261.5,-181 261.5,-147 166.5,-147"/>
<text text-anchor="start" x="174.5" y="-168" font-family="Helvetica,sans-Serif" font-size="10.00">std::basic_string&lt;</text>
<text text-anchor="middle" x="214" y="-155" font-family="Helvetica,sans-Serif" font-size="10.00"> char &gt;</text>
</a>
</g>
<!-- Node6&#45;&gt;Node5 -->
<g id="edge8" class="edge"><title>Node6&#45;&gt;Node5</title>
<path fill="none" stroke="midnightblue" d="M214,-136.506C214,-124.13 214,-110.232 214,-100.879"/>
<polygon fill="midnightblue" stroke="midnightblue" points="210.5,-136.837 214,-146.837 217.5,-136.837 210.5,-136.837"/>
</g>
<!-- Node7 -->
<g id="node10" class="node"><title>Node7</title>
<a xlink:title="STL iterator class. ">
<polygon fill="white" stroke="#bfbfbf" points="261.5,-73 261.5,-107 364.5,-107 364.5,-73 261.5,-73"/>
<text text-anchor="start" x="269.5" y="-94" font-family="Helvetica,sans-Serif" font-size="10.00">std::list&lt; T &gt;::const</text>
<text text-anchor="middle" x="313" y="-81" font-family="Helvetica,sans-Serif" font-size="10.00">_iterator</text>
</a>
</g>
<!-- Node7&#45;&gt;Node2 -->
<g id="edge10" class="edge"><title>Node7&#45;&gt;Node2</title>
<path fill="none" stroke="#9a32cd" stroke-dasharray="5,2" d="M286.104,-66.2893C274.651,-57.1062 260.771,-47.1144 247,-40 232.121,-32.3135 214.828,-26.207 199.278,-21.6191"/>
<polygon fill="#9a32cd" stroke="#9a32cd" points="284.036,-69.1205 293.979,-72.7803 288.489,-63.719 284.036,-69.1205"/>
<text text-anchor="middle" x="286" y="-44.5" font-family="Helvetica,sans-Serif" font-size="10.00"> current</text>
</g>
</g>
</svg>
