<?xml version="1.0" encoding="UTF-8" standalone="no"?>
<!DOCTYPE svg PUBLIC "-//W3C//DTD SVG 1.1//EN"
 "http://www.w3.org/Graphics/SVG/1.1/DTD/svg11.dtd">
<!-- Generated by graphviz version 2.26.3 (20100126.1600)
 -->
<!-- Title: ant::analysis::physics::Thresholds Pages: 1 -->
<svg width="550pt" height="160pt"
 viewBox="0.00 0.00 550.00 160.00" xmlns="http://www.w3.org/2000/svg" xmlns:xlink="http://www.w3.org/1999/xlink">
<g id="graph1" class="graph" transform="scale(1 1) rotate(0) translate(4 156)">
<title>ant::analysis::physics::Thresholds</title>
<polygon fill="white" stroke="white" points="-4,5 -4,-156 547,-156 547,5 -4,5"/>
<!-- Node0 -->
<g id="node1" class="node"><title>Node0</title>
<polygon fill="#bfbfbf" stroke="black" points="195,-59 195,-93 307,-93 307,-59 195,-59"/>
<text text-anchor="start" x="203" y="-80" font-family="Helvetica,sans-Serif" font-size="10.00">ant::analysis::physics</text>
<text text-anchor="middle" x="251" y="-67" font-family="Helvetica,sans-Serif" font-size="10.00">::Thresholds</text>
</g>
<!-- Node2 -->
<g id="node5" class="node"><title>Node2</title>
<a xlink:href="struct_c_b___thresholds.html" target="_top" xlink:title="CB_Thresholds">
<polygon fill="white" stroke="black" points="0,-0.5 0,-21.5 84,-21.5 84,-0.5 0,-0.5"/>
<text text-anchor="middle" x="42" y="-8.5" font-family="Helvetica,sans-Serif" font-size="10.00">CB_Thresholds</text>
</a>
</g>
<!-- Node0&#45;&gt;Node2 -->
<g id="edge4" class="edge"><title>Node0&#45;&gt;Node2</title>
<path fill="none" stroke="midnightblue" d="M186.497,-55.9392C149.977,-44.5814 105.782,-30.8364 75.9609,-21.562"/>
<polygon fill="midnightblue" stroke="midnightblue" points="185.499,-59.2943 196.088,-58.922 187.578,-52.6101 185.499,-59.2943"/>
</g>
<!-- Node3 -->
<g id="node7" class="node"><title>Node3</title>
<a xlink:href="struct_e_p_t___thresholds.html" target="_top" xlink:title="EPT_Thresholds">
<polygon fill="white" stroke="black" points="101.5,-0.5 101.5,-21.5 190.5,-21.5 190.5,-0.5 101.5,-0.5"/>
<text text-anchor="middle" x="146" y="-8.5" font-family="Helvetica,sans-Serif" font-size="10.00">EPT_Thresholds</text>
</a>
</g>
<!-- Node0&#45;&gt;Node3 -->
<g id="edge6" class="edge"><title>Node0&#45;&gt;Node3</title>
<path fill="none" stroke="midnightblue" d="M214.585,-53.4574C197.16,-42.6702 177.117,-30.2631 163.217,-21.6584"/>
<polygon fill="midnightblue" stroke="midnightblue" points="213.068,-56.6344 223.412,-58.922 216.752,-50.6825 213.068,-56.6344"/>
</g>
<!-- Node4 -->
<g id="node9" class="node"><title>Node4</title>
<a xlink:href="struct_p_i_d___thresholds.html" target="_top" xlink:title="PID_Thresholds">
<polygon fill="white" stroke="black" points="207.5,-0.5 207.5,-21.5 294.5,-21.5 294.5,-0.5 207.5,-0.5"/>
<text text-anchor="middle" x="251" y="-8.5" font-family="Helvetica,sans-Serif" font-size="10.00">PID_Thresholds</text>
</a>
</g>
<!-- Node0&#45;&gt;Node4 -->
<g id="edge8" class="edge"><title>Node0&#45;&gt;Node4</title>
<path fill="none" stroke="midnightblue" d="M251,-48.6879C251,-39.2415 251,-29.1949 251,-21.8521"/>
<polygon fill="midnightblue" stroke="midnightblue" points="247.5,-48.922 251,-58.922 254.5,-48.922 247.5,-48.922"/>
</g>
<!-- Node5 -->
<g id="node11" class="node"><title>Node5</title>
<a xlink:href="struct_t_a_p_s___thresholds.html" target="_top" xlink:title="TAPS_Thresholds">
<polygon fill="white" stroke="black" points="312,-0.5 312,-21.5 408,-21.5 408,-0.5 312,-0.5"/>
<text text-anchor="middle" x="360" y="-8.5" font-family="Helvetica,sans-Serif" font-size="10.00">TAPS_Thresholds</text>
</a>
</g>
<!-- Node0&#45;&gt;Node5 -->
<g id="edge10" class="edge"><title>Node0&#45;&gt;Node5</title>
<path fill="none" stroke="midnightblue" d="M288.305,-53.7539C306.509,-42.8982 327.565,-30.342 342.127,-21.6584"/>
<polygon fill="midnightblue" stroke="midnightblue" points="286.435,-50.7941 279.638,-58.922 290.02,-56.8063 286.435,-50.7941"/>
</g>
<!-- Node6 -->
<g id="node13" class="node"><title>Node6</title>
<a xlink:href="struct_t_a_p_s_veto___thresholds.html" target="_top" xlink:title="TAPSVeto_Thresholds">
<polygon fill="white" stroke="black" points="426,-0.5 426,-21.5 542,-21.5 542,-0.5 426,-0.5"/>
<text text-anchor="middle" x="484" y="-8.5" font-family="Helvetica,sans-Serif" font-size="10.00">TAPSVeto_Thresholds</text>
</a>
</g>
<!-- Node0&#45;&gt;Node6 -->
<g id="edge12" class="edge"><title>Node0&#45;&gt;Node6</title>
<path fill="none" stroke="midnightblue" d="M316.937,-57.6055C358.74,-45.9437 411.32,-31.2756 446.208,-21.5428"/>
<polygon fill="midnightblue" stroke="midnightblue" points="315.798,-54.2897 307.106,-60.3482 317.679,-61.0323 315.798,-54.2897"/>
</g>
<!-- Node1 -->
<g id="node2" class="node"><title>Node1</title>
<a xlink:href="classant_1_1analysis_1_1_physics.html" target="_top" xlink:title="ant::analysis::Physics">
<polygon fill="white" stroke="black" points="194.5,-130.5 194.5,-151.5 307.5,-151.5 307.5,-130.5 194.5,-130.5"/>
<text text-anchor="middle" x="251" y="-138.5" font-family="Helvetica,sans-Serif" font-size="10.00">ant::analysis::Physics</text>
</a>
</g>
<!-- Node1&#45;&gt;Node0 -->
<g id="edge2" class="edge"><title>Node1&#45;&gt;Node0</title>
<path fill="none" stroke="midnightblue" d="M251,-120.131C251,-111.405 251,-101.391 251,-93.1099"/>
<polygon fill="midnightblue" stroke="midnightblue" points="247.5,-120.267 251,-130.267 254.5,-120.267 247.5,-120.267"/>
</g>
</g>
</svg>
