<?xml version="1.0" encoding="UTF-8" standalone="no"?>
<!DOCTYPE svg PUBLIC "-//W3C//DTD SVG 1.1//EN"
 "http://www.w3.org/Graphics/SVG/1.1/DTD/svg11.dtd">
<!-- Generated by graphviz version 2.26.3 (20100126.1600)
 -->
<!-- Title: ant::calibration::gui::Manager Pages: 1 -->
<svg width="1054pt" height="313pt"
 viewBox="0.00 0.00 1054.00 313.00" xmlns="http://www.w3.org/2000/svg" xmlns:xlink="http://www.w3.org/1999/xlink">
<g id="graph1" class="graph" transform="scale(1 1) rotate(0) translate(4 309)">
<title>ant::calibration::gui::Manager</title>
<polygon fill="white" stroke="white" points="-4,5 -4,-309 1051,-309 1051,5 -4,5"/>
<!-- Node1 -->
<g id="node1" class="node"><title>Node1</title>
<polygon fill="#bfbfbf" stroke="black" points="946.5,-144 946.5,-178 1045.5,-178 1045.5,-144 946.5,-144"/>
<text text-anchor="start" x="954.5" y="-165" font-family="Helvetica,sans-Serif" font-size="10.00">ant::calibration::gui</text>
<text text-anchor="middle" x="996" y="-152" font-family="Helvetica,sans-Serif" font-size="10.00">::Manager</text>
</g>
<!-- Node2 -->
<g id="node2" class="node"><title>Node2</title>
<a xlink:href="classant_1_1calibration_1_1gui_1_1_manager_window_g_u_i__traits.html" target="_top" xlink:title="ant::calibration::gui\l::ManagerWindowGUI_traits">
<polygon fill="white" stroke="black" points="729,-271 729,-305 869,-305 869,-271 729,-271"/>
<text text-anchor="start" x="737" y="-292" font-family="Helvetica,sans-Serif" font-size="10.00">ant::calibration::gui</text>
<text text-anchor="middle" x="799" y="-279" font-family="Helvetica,sans-Serif" font-size="10.00">::ManagerWindowGUI_traits</text>
</a>
</g>
<!-- Node2&#45;&gt;Node1 -->
<g id="edge2" class="edge"><title>Node2&#45;&gt;Node1</title>
<path fill="none" stroke="#9a32cd" stroke-dasharray="5,2" d="M879.309,-275.852C896.339,-270.88 913.525,-263.873 928,-254 956.421,-234.615 977.348,-199.297 988.021,-178.207"/>
<polygon fill="#9a32cd" stroke="#9a32cd" points="878.063,-272.564 869.322,-278.551 879.889,-279.321 878.063,-272.564"/>
<text text-anchor="middle" x="909" y="-275" font-family="Helvetica,sans-Serif" font-size="10.00"> window</text>
</g>
<!-- Node3 -->
<g id="node4" class="node"><title>Node3</title>
<a xlink:href="classant_1_1calibration_1_1gui_1_1_manager_window__traits.html" target="_top" xlink:title="ant::calibration::gui\l::ManagerWindow_traits">
<polygon fill="white" stroke="black" points="530,-271 530,-305 652,-305 652,-271 530,-271"/>
<text text-anchor="start" x="538" y="-292" font-family="Helvetica,sans-Serif" font-size="10.00">ant::calibration::gui</text>
<text text-anchor="middle" x="591" y="-279" font-family="Helvetica,sans-Serif" font-size="10.00">::ManagerWindow_traits</text>
</a>
</g>
<!-- Node3&#45;&gt;Node2 -->
<g id="edge4" class="edge"><title>Node3&#45;&gt;Node2</title>
<path fill="none" stroke="midnightblue" d="M662.076,-288C683.652,-288 707.335,-288 728.849,-288"/>
<polygon fill="midnightblue" stroke="midnightblue" points="662.001,-284.5 652.001,-288 662.001,-291.5 662.001,-284.5"/>
</g>
<!-- Node4 -->
<g id="node6" class="node"><title>Node4</title>
<a xlink:title="STL class. ">
<polygon fill="white" stroke="#bfbfbf" points="175,-143.5 175,-164.5 235,-164.5 235,-143.5 175,-143.5"/>
<text text-anchor="middle" x="205" y="-151.5" font-family="Helvetica,sans-Serif" font-size="10.00">std::string</text>
</a>
</g>
<!-- Node4&#45;&gt;Node1 -->
<g id="edge6" class="edge"><title>Node4&#45;&gt;Node1</title>
<path fill="none" stroke="#9a32cd" stroke-dasharray="5,2" d="M245.31,-149.729C281.353,-146.281 335.64,-142 383,-142 383,-142 383,-142 799,-142 849.338,-142 906.577,-148.222 946.335,-153.545"/>
<polygon fill="#9a32cd" stroke="#9a32cd" points="244.804,-146.262 235.193,-150.721 245.487,-153.228 244.804,-146.262"/>
<text text-anchor="middle" x="591" y="-146" font-family="Helvetica,sans-Serif" font-size="10.00"> SetupName</text>
</g>
<!-- Node8 -->
<g id="node14" class="node"><title>Node8</title>
<a xlink:href="structant_1_1calibration_1_1gui_1_1_manager_1_1input__file__t.html" target="_top" xlink:title="ant::calibration::gui\l::Manager::input_file_t">
<polygon fill="white" stroke="black" points="326.5,-183 326.5,-217 439.5,-217 439.5,-183 326.5,-183"/>
<text text-anchor="start" x="334.5" y="-204" font-family="Helvetica,sans-Serif" font-size="10.00">ant::calibration::gui</text>
<text text-anchor="middle" x="383" y="-191" font-family="Helvetica,sans-Serif" font-size="10.00">::Manager::input_file_t</text>
</a>
</g>
<!-- Node4&#45;&gt;Node8 -->
<g id="edge16" class="edge"><title>Node4&#45;&gt;Node8</title>
<path fill="none" stroke="#9a32cd" stroke-dasharray="5,2" d="M245.019,-164.342C269.003,-170.54 299.88,-178.519 326.341,-185.358"/>
<polygon fill="#9a32cd" stroke="#9a32cd" points="245.753,-160.917 235.195,-161.803 244.001,-167.694 245.753,-160.917"/>
<text text-anchor="middle" x="288" y="-183" font-family="Helvetica,sans-Serif" font-size="10.00"> filename</text>
</g>
<!-- Node5 -->
<g id="node8" class="node"><title>Node5</title>
<a xlink:title="STL class. ">
<polygon fill="white" stroke="#bfbfbf" points="0.5,-137 0.5,-171 95.5,-171 95.5,-137 0.5,-137"/>
<text text-anchor="start" x="8.5" y="-158" font-family="Helvetica,sans-Serif" font-size="10.00">std::basic_string&lt;</text>
<text text-anchor="middle" x="48" y="-145" font-family="Helvetica,sans-Serif" font-size="10.00"> char &gt;</text>
</a>
</g>
<!-- Node5&#45;&gt;Node4 -->
<g id="edge8" class="edge"><title>Node5&#45;&gt;Node4</title>
<path fill="none" stroke="midnightblue" d="M105.749,-154C129.226,-154 155.37,-154 174.931,-154"/>
<polygon fill="midnightblue" stroke="midnightblue" points="105.531,-150.5 95.5312,-154 105.531,-157.5 105.531,-150.5"/>
</g>
<!-- Node6 -->
<g id="node10" class="node"><title>Node6</title>
<a xlink:href="structant_1_1calibration_1_1gui_1_1_manager_1_1state__t.html" target="_top" xlink:title="ant::calibration::gui\l::Manager::state_t">
<polygon fill="white" stroke="black" points="749.5,-170 749.5,-204 848.5,-204 848.5,-170 749.5,-170"/>
<text text-anchor="start" x="757.5" y="-191" font-family="Helvetica,sans-Serif" font-size="10.00">ant::calibration::gui</text>
<text text-anchor="middle" x="799" y="-178" font-family="Helvetica,sans-Serif" font-size="10.00">::Manager::state_t</text>
</a>
</g>
<!-- Node6&#45;&gt;Node1 -->
<g id="edge10" class="edge"><title>Node6&#45;&gt;Node1</title>
<path fill="none" stroke="#9a32cd" stroke-dasharray="5,2" d="M858.777,-179.111C886.763,-175.417 919.71,-171.069 946.304,-167.559"/>
<polygon fill="#9a32cd" stroke="#9a32cd" points="858.167,-175.661 848.711,-180.439 859.083,-182.6 858.167,-175.661"/>
<text text-anchor="middle" x="909" y="-178" font-family="Helvetica,sans-Serif" font-size="10.00"> state</text>
</g>
<!-- Node7 -->
<g id="node12" class="node"><title>Node7</title>
<polygon fill="white" stroke="#bfbfbf" points="520.5,-183 520.5,-217 661.5,-217 661.5,-183 520.5,-183"/>
<text text-anchor="start" x="528.5" y="-204" font-family="Helvetica,sans-Serif" font-size="10.00">std::list&lt; ant::calibration</text>
<text text-anchor="middle" x="591" y="-191" font-family="Helvetica,sans-Serif" font-size="10.00">::gui::Manager::input_file_t &gt;</text>
</g>
<!-- Node7&#45;&gt;Node1 -->
<g id="edge26" class="edge"><title>Node7&#45;&gt;Node1</title>
<path fill="none" stroke="#9a32cd" stroke-dasharray="5,2" d="M671.461,-213.557C728.03,-220.703 805.232,-225.645 872,-213 905.487,-206.658 941.11,-190.637 965.54,-178.039"/>
<polygon fill="#9a32cd" stroke="#9a32cd" points="671.872,-210.081 661.501,-212.249 670.96,-217.021 671.872,-210.081"/>
<text text-anchor="middle" x="799" y="-224" font-family="Helvetica,sans-Serif" font-size="10.00"> input_files</text>
</g>
<!-- Node7&#45;&gt;Node6 -->
<g id="edge12" class="edge"><title>Node7&#45;&gt;Node6</title>
<path fill="none" stroke="#9a32cd" stroke-dasharray="5,2" d="M671.995,-194.938C698.134,-193.304 726.314,-191.543 749.474,-190.095"/>
<polygon fill="#9a32cd" stroke="#9a32cd" points="671.472,-191.464 661.71,-195.581 671.908,-198.45 671.472,-191.464"/>
<text text-anchor="middle" x="694" y="-198" font-family="Helvetica,sans-Serif" font-size="10.00"> it_file</text>
</g>
<!-- Node8&#45;&gt;Node7 -->
<g id="edge14" class="edge"><title>Node8&#45;&gt;Node7</title>
<path fill="none" stroke="#9a32cd" stroke-dasharray="5,2" d="M449.71,-200C472.249,-200 497.481,-200 520.317,-200"/>
<polygon fill="#9a32cd" stroke="#9a32cd" points="449.562,-196.5 439.562,-200 449.562,-203.5 449.562,-196.5"/>
<text text-anchor="middle" x="480" y="-204" font-family="Helvetica,sans-Serif" font-size="10.00"> elements</text>
</g>
<!-- Node9 -->
<g id="node17" class="node"><title>Node9</title>
<a xlink:href="classant_1_1interval.html" target="_top" xlink:title="ant::interval\&lt; ant\l::TID \&gt;">
<polygon fill="white" stroke="black" points="160,-194 160,-228 250,-228 250,-194 160,-194"/>
<text text-anchor="start" x="168" y="-215" font-family="Helvetica,sans-Serif" font-size="10.00">ant::interval&lt; ant</text>
<text text-anchor="middle" x="205" y="-202" font-family="Helvetica,sans-Serif" font-size="10.00">::TID &gt;</text>
</a>
</g>
<!-- Node9&#45;&gt;Node8 -->
<g id="edge18" class="edge"><title>Node9&#45;&gt;Node8</title>
<path fill="none" stroke="#9a32cd" stroke-dasharray="5,2" d="M260.395,-207.577C281.326,-206.283 305.164,-204.81 326.221,-203.509"/>
<polygon fill="#9a32cd" stroke="#9a32cd" points="260.143,-204.086 250.377,-208.196 260.574,-211.072 260.143,-204.086"/>
<text text-anchor="middle" x="288" y="-210" font-family="Helvetica,sans-Serif" font-size="10.00"> range</text>
</g>
<!-- Node10 -->
<g id="node19" class="node"><title>Node10</title>
<a xlink:href="structant_1_1_t_i_d.html" target="_top" xlink:title="ant::TID">
<polygon fill="white" stroke="black" points="21.5,-200.5 21.5,-221.5 74.5,-221.5 74.5,-200.5 21.5,-200.5"/>
<text text-anchor="middle" x="48" y="-208.5" font-family="Helvetica,sans-Serif" font-size="10.00">ant::TID</text>
</a>
</g>
<!-- Node10&#45;&gt;Node9 -->
<g id="edge20" class="edge"><title>Node10&#45;&gt;Node9</title>
<path fill="none" stroke="#9a32cd" stroke-dasharray="5,2" d="M84.7497,-211C107.152,-211 135.952,-211 159.75,-211"/>
<polygon fill="#9a32cd" stroke="#9a32cd" points="84.6329,-207.5 74.6329,-211 84.6329,-214.5 84.6329,-207.5"/>
<text text-anchor="middle" x="128" y="-228" font-family="Helvetica,sans-Serif" font-size="10.00"> _start</text>
<text text-anchor="middle" x="128" y="-215" font-family="Helvetica,sans-Serif" font-size="10.00">_stop</text>
</g>
<!-- Node11 -->
<g id="node21" class="node"><title>Node11</title>
<polygon fill="white" stroke="#bfbfbf" points="731.5,-66.5 731.5,-113.5 866.5,-113.5 866.5,-66.5 731.5,-66.5"/>
<text text-anchor="start" x="739.5" y="-100.5" font-family="Helvetica,sans-Serif" font-size="10.00">std::unique_ptr&lt; ant</text>
<text text-anchor="start" x="739.5" y="-87.5" font-family="Helvetica,sans-Serif" font-size="10.00">::calibration::gui::AvgBuffer</text>
<text text-anchor="middle" x="799" y="-74.5" font-family="Helvetica,sans-Serif" font-size="10.00">_traits&lt; TH1 &gt; &gt;</text>
</g>
<!-- Node11&#45;&gt;Node1 -->
<g id="edge22" class="edge"><title>Node11&#45;&gt;Node1</title>
<path fill="none" stroke="#9a32cd" stroke-dasharray="5,2" d="M876.842,-99.8384C894.076,-103.449 911.97,-108.353 928,-115 945.247,-122.152 962.649,-134.03 975.531,-143.924"/>
<polygon fill="#9a32cd" stroke="#9a32cd" points="877.277,-96.357 866.789,-97.8589 875.925,-103.225 877.277,-96.357"/>
<text text-anchor="middle" x="909" y="-119" font-family="Helvetica,sans-Serif" font-size="10.00"> buffer</text>
</g>
<!-- Node12 -->
<g id="node23" class="node"><title>Node12</title>
<a xlink:href="classant_1_1calibration_1_1gui_1_1_avg_buffer__traits.html" target="_top" xlink:title="ant::calibration::gui\l::AvgBuffer_traits\&lt; TH1 \&gt;">
<polygon fill="white" stroke="black" points="526,-72 526,-106 656,-106 656,-72 526,-72"/>
<text text-anchor="start" x="534" y="-93" font-family="Helvetica,sans-Serif" font-size="10.00">ant::calibration::gui</text>
<text text-anchor="middle" x="591" y="-80" font-family="Helvetica,sans-Serif" font-size="10.00">::AvgBuffer_traits&lt; TH1 &gt;</text>
</a>
</g>
<!-- Node12&#45;&gt;Node11 -->
<g id="edge24" class="edge"><title>Node12&#45;&gt;Node11</title>
<path fill="none" stroke="#9a32cd" stroke-dasharray="5,2" d="M666.517,-89.3631C687.764,-89.4652 710.73,-89.5756 731.478,-89.6754"/>
<polygon fill="#9a32cd" stroke="#9a32cd" points="666.259,-85.8619 656.242,-89.3137 666.225,-92.8618 666.259,-85.8619"/>
<text text-anchor="middle" x="694" y="-94" font-family="Helvetica,sans-Serif" font-size="10.00"> ptr</text>
</g>
<!-- Node13 -->
<g id="node26" class="node"><title>Node13</title>
<polygon fill="white" stroke="#bfbfbf" points="726,-0.5 726,-47.5 872,-47.5 872,-0.5 726,-0.5"/>
<text text-anchor="start" x="734" y="-34.5" font-family="Helvetica,sans-Serif" font-size="10.00">std::unique_ptr&lt; ant</text>
<text text-anchor="start" x="734" y="-21.5" font-family="Helvetica,sans-Serif" font-size="10.00">::calibration::gui::CalibModule</text>
<text text-anchor="middle" x="799" y="-8.5" font-family="Helvetica,sans-Serif" font-size="10.00">_traits &gt;</text>
</g>
<!-- Node13&#45;&gt;Node1 -->
<g id="edge28" class="edge"><title>Node13&#45;&gt;Node1</title>
<path fill="none" stroke="#9a32cd" stroke-dasharray="5,2" d="M870.327,-51.8073C889.99,-61.1525 910.662,-72.653 928,-86 950.005,-102.94 970.75,-127.539 983.408,-143.89"/>
<polygon fill="#9a32cd" stroke="#9a32cd" points="871.624,-48.5511 861.079,-47.5307 868.686,-54.9047 871.624,-48.5511"/>
<text text-anchor="middle" x="909" y="-90" font-family="Helvetica,sans-Serif" font-size="10.00"> module</text>
</g>
<!-- Node14 -->
<g id="node28" class="node"><title>Node14</title>
<a xlink:href="classant_1_1calibration_1_1gui_1_1_calib_module__traits.html" target="_top" xlink:title="ant::calibration::gui\l::CalibModule_traits">
<polygon fill="white" stroke="black" points="539,-7 539,-41 643,-41 643,-7 539,-7"/>
<text text-anchor="start" x="547" y="-28" font-family="Helvetica,sans-Serif" font-size="10.00">ant::calibration::gui</text>
<text text-anchor="middle" x="591" y="-15" font-family="Helvetica,sans-Serif" font-size="10.00">::CalibModule_traits</text>
</a>
</g>
<!-- Node14&#45;&gt;Node13 -->
<g id="edge30" class="edge"><title>Node14&#45;&gt;Node13</title>
<path fill="none" stroke="#9a32cd" stroke-dasharray="5,2" d="M653.456,-24C676.27,-24 702.276,-24 725.932,-24"/>
<polygon fill="#9a32cd" stroke="#9a32cd" points="653.219,-20.5001 643.219,-24 653.219,-27.5001 653.219,-20.5001"/>
<text text-anchor="middle" x="694" y="-28" font-family="Helvetica,sans-Serif" font-size="10.00"> ptr</text>
</g>
</g>
</svg>
