<?xml version="1.0" encoding="UTF-8" standalone="no"?>
<!DOCTYPE svg PUBLIC "-//W3C//DTD SVG 1.1//EN"
 "http://www.w3.org/Graphics/SVG/1.1/DTD/svg11.dtd">
<!-- Generated by graphviz version 2.26.3 (20100126.1600)
 -->
<!-- Title: ant::calibration::gui::Indicator Pages: 1 -->
<svg width="546pt" height="94pt"
 viewBox="0.00 0.00 546.00 94.00" xmlns="http://www.w3.org/2000/svg" xmlns:xlink="http://www.w3.org/1999/xlink">
<g id="graph1" class="graph" transform="scale(1 1) rotate(0) translate(4 90)">
<title>ant::calibration::gui::Indicator</title>
<polygon fill="white" stroke="white" points="-4,5 -4,-90 543,-90 543,5 -4,5"/>
<!-- Node0 -->
<g id="node1" class="node"><title>Node0</title>
<polygon fill="#bfbfbf" stroke="black" points="144.5,-26 144.5,-60 243.5,-60 243.5,-26 144.5,-26"/>
<text text-anchor="start" x="152.5" y="-47" font-family="Helvetica,sans-Serif" font-size="10.00">ant::calibration::gui</text>
<text text-anchor="middle" x="194" y="-34" font-family="Helvetica,sans-Serif" font-size="10.00">::Indicator</text>
</g>
<!-- Node2 -->
<g id="node5" class="node"><title>Node2</title>
<a xlink:href="classant_1_1calibration_1_1gui_1_1_indicator_line.html" target="_top" xlink:title="ant::calibration::gui\l::IndicatorLine">
<polygon fill="white" stroke="black" points="280.5,-26 280.5,-60 379.5,-60 379.5,-26 280.5,-26"/>
<text text-anchor="start" x="288.5" y="-47" font-family="Helvetica,sans-Serif" font-size="10.00">ant::calibration::gui</text>
<text text-anchor="middle" x="330" y="-34" font-family="Helvetica,sans-Serif" font-size="10.00">::IndicatorLine</text>
</a>
</g>
<!-- Node0&#45;&gt;Node2 -->
<g id="edge4" class="edge"><title>Node0&#45;&gt;Node2</title>
<path fill="none" stroke="midnightblue" d="M254,-43C262.729,-43 271.637,-43 280.137,-43"/>
<polygon fill="midnightblue" stroke="midnightblue" points="253.869,-39.5001 243.869,-43 253.869,-46.5001 253.869,-39.5001"/>
</g>
<!-- Node1 -->
<g id="node2" class="node"><title>Node1</title>
<a xlink:href="classant_1_1calibration_1_1gui_1_1update__notify__traits.html" target="_top" xlink:title="ant::calibration::gui\l::update_notify_traits">
<polygon fill="white" stroke="black" points="0,-26 0,-60 108,-60 108,-26 0,-26"/>
<text text-anchor="start" x="8" y="-47" font-family="Helvetica,sans-Serif" font-size="10.00">ant::calibration::gui</text>
<text text-anchor="middle" x="54" y="-34" font-family="Helvetica,sans-Serif" font-size="10.00">::update_notify_traits</text>
</a>
</g>
<!-- Node1&#45;&gt;Node0 -->
<g id="edge2" class="edge"><title>Node1&#45;&gt;Node0</title>
<path fill="none" stroke="midnightblue" d="M118.245,-43C126.938,-43 135.75,-43 144.141,-43"/>
<polygon fill="midnightblue" stroke="midnightblue" points="118.128,-39.5001 108.128,-43 118.128,-46.5001 118.128,-39.5001"/>
</g>
<!-- Node3 -->
<g id="node7" class="node"><title>Node3</title>
<a xlink:href="classant_1_1calibration_1_1gui_1_1_horizontal_indicator_line.html" target="_top" xlink:title="ant::calibration::gui\l::HorizontalIndicatorLine">
<polygon fill="white" stroke="black" points="416,-52 416,-86 538,-86 538,-52 416,-52"/>
<text text-anchor="start" x="424" y="-73" font-family="Helvetica,sans-Serif" font-size="10.00">ant::calibration::gui</text>
<text text-anchor="middle" x="477" y="-60" font-family="Helvetica,sans-Serif" font-size="10.00">::HorizontalIndicatorLine</text>
</a>
</g>
<!-- Node2&#45;&gt;Node3 -->
<g id="edge6" class="edge"><title>Node2&#45;&gt;Node3</title>
<path fill="none" stroke="midnightblue" d="M389.715,-53.5619C398.317,-55.0833 407.18,-56.6509 415.81,-58.1772"/>
<polygon fill="midnightblue" stroke="midnightblue" points="390.224,-50.0977 379.767,-51.8024 389.005,-56.9907 390.224,-50.0977"/>
</g>
<!-- Node4 -->
<g id="node9" class="node"><title>Node4</title>
<a xlink:href="classant_1_1calibration_1_1gui_1_1_vertical_indicator_line.html" target="_top" xlink:title="ant::calibration::gui\l::VerticalIndicatorLine">
<polygon fill="white" stroke="black" points="421.5,-0 421.5,-34 532.5,-34 532.5,-0 421.5,-0"/>
<text text-anchor="start" x="429.5" y="-21" font-family="Helvetica,sans-Serif" font-size="10.00">ant::calibration::gui</text>
<text text-anchor="middle" x="477" y="-8" font-family="Helvetica,sans-Serif" font-size="10.00">::VerticalIndicatorLine</text>
</a>
</g>
<!-- Node2&#45;&gt;Node4 -->
<g id="edge8" class="edge"><title>Node2&#45;&gt;Node4</title>
<path fill="none" stroke="midnightblue" d="M389.689,-32.4427C400.193,-30.5849 411.087,-28.6581 421.471,-26.8214"/>
<polygon fill="midnightblue" stroke="midnightblue" points="389.005,-29.0093 379.767,-34.1976 390.224,-35.9023 389.005,-29.0093"/>
</g>
</g>
</svg>
