<?xml version="1.0" encoding="UTF-8" standalone="no"?>
<!DOCTYPE svg PUBLIC "-//W3C//DTD SVG 1.1//EN"
 "http://www.w3.org/Graphics/SVG/1.1/DTD/svg11.dtd">
<!-- Generated by graphviz version 2.26.3 (20100126.1600)
 -->
<!-- Title: ant::analysis::physics::Omega_EpEm Pages: 1 -->
<svg width="822pt" height="192pt"
 viewBox="0.00 0.00 822.00 192.00" xmlns="http://www.w3.org/2000/svg" xmlns:xlink="http://www.w3.org/1999/xlink">
<g id="graph1" class="graph" transform="scale(1 1) rotate(0) translate(4 188)">
<title>ant::analysis::physics::Omega_EpEm</title>
<polygon fill="white" stroke="white" points="-4,5 -4,-188 819,-188 819,5 -4,5"/>
<!-- Node2 -->
<g id="node1" class="node"><title>Node2</title>
<polygon fill="#bfbfbf" stroke="black" points="702,-74 702,-108 814,-108 814,-74 702,-74"/>
<text text-anchor="start" x="710" y="-95" font-family="Helvetica,sans-Serif" font-size="10.00">ant::analysis::physics</text>
<text text-anchor="middle" x="758" y="-82" font-family="Helvetica,sans-Serif" font-size="10.00">::Omega_EpEm</text>
</g>
<!-- Node3 -->
<g id="node2" class="node"><title>Node3</title>
<a xlink:href="classant_1_1analysis_1_1_physics.html" target="_top" xlink:title="ant::analysis::Physics">
<polygon fill="white" stroke="black" points="470.5,-156.5 470.5,-177.5 583.5,-177.5 583.5,-156.5 470.5,-156.5"/>
<text text-anchor="middle" x="527" y="-164.5" font-family="Helvetica,sans-Serif" font-size="10.00">ant::analysis::Physics</text>
</a>
</g>
<!-- Node3&#45;&gt;Node2 -->
<g id="edge2" class="edge"><title>Node3&#45;&gt;Node2</title>
<path fill="none" stroke="midnightblue" d="M584.592,-154.074C614.603,-146.718 651.687,-136.65 684,-125 697.3,-120.205 711.501,-113.968 723.87,-108.147"/>
<polygon fill="midnightblue" stroke="midnightblue" points="583.601,-150.712 574.703,-156.463 585.245,-157.517 583.601,-150.712"/>
</g>
<!-- Node4 -->
<g id="node4" class="node"><title>Node4</title>
<a xlink:href="classant_1_1analysis_1_1_histogram_factory.html" target="_top" xlink:title="ant::analysis::Histogram\lFactory">
<polygon fill="white" stroke="black" points="252.5,-150 252.5,-184 375.5,-184 375.5,-150 252.5,-150"/>
<text text-anchor="start" x="260.5" y="-171" font-family="Helvetica,sans-Serif" font-size="10.00">ant::analysis::Histogram</text>
<text text-anchor="middle" x="314" y="-158" font-family="Helvetica,sans-Serif" font-size="10.00">Factory</text>
</a>
</g>
<!-- Node4&#45;&gt;Node3 -->
<g id="edge4" class="edge"><title>Node4&#45;&gt;Node3</title>
<path fill="none" stroke="#9a32cd" stroke-dasharray="5,2" d="M385.959,-167C413.452,-167 444.388,-167 470.267,-167"/>
<polygon fill="#9a32cd" stroke="#9a32cd" points="385.608,-163.5 375.608,-167 385.608,-170.5 385.608,-163.5"/>
<text text-anchor="middle" x="415" y="-171" font-family="Helvetica,sans-Serif" font-size="10.00"> HistFac</text>
</g>
<!-- Node5 -->
<g id="node6" class="node"><title>Node5</title>
<a xlink:href="structant_1_1analysis_1_1physics_1_1_omega___ep_em_1_1tree__t.html" target="_top" xlink:title="ant::analysis::physics\l::Omega_EpEm::tree_t">
<polygon fill="white" stroke="black" points="468.5,-104 468.5,-138 585.5,-138 585.5,-104 468.5,-104"/>
<text text-anchor="start" x="476.5" y="-125" font-family="Helvetica,sans-Serif" font-size="10.00">ant::analysis::physics</text>
<text text-anchor="middle" x="527" y="-112" font-family="Helvetica,sans-Serif" font-size="10.00">::Omega_EpEm::tree_t</text>
</a>
</g>
<!-- Node5&#45;&gt;Node2 -->
<g id="edge6" class="edge"><title>Node5&#45;&gt;Node2</title>
<path fill="none" stroke="#9a32cd" stroke-dasharray="5,2" d="M595.866,-112.056C629.693,-107.663 669.934,-102.437 701.863,-98.2905"/>
<polygon fill="#9a32cd" stroke="#9a32cd" points="595.056,-108.632 585.59,-113.391 595.957,-115.574 595.056,-108.632"/>
<text text-anchor="middle" x="651" y="-112" font-family="Helvetica,sans-Serif" font-size="10.00"> t</text>
</g>
<!-- Node6 -->
<g id="node8" class="node"><title>Node6</title>
<a xlink:href="classant_1_1_wrap_t_tree.html" target="_top" xlink:title="The WrapTTree struct simplifies TTree handling in physics classes. ">
<polygon fill="white" stroke="black" points="271.5,-110.5 271.5,-131.5 356.5,-131.5 356.5,-110.5 271.5,-110.5"/>
<text text-anchor="middle" x="314" y="-118.5" font-family="Helvetica,sans-Serif" font-size="10.00">ant::WrapTTree</text>
</a>
</g>
<!-- Node6&#45;&gt;Node5 -->
<g id="edge8" class="edge"><title>Node6&#45;&gt;Node5</title>
<path fill="none" stroke="midnightblue" d="M366.714,-121C397.55,-121 436.543,-121 468.348,-121"/>
<polygon fill="midnightblue" stroke="midnightblue" points="366.592,-117.5 356.592,-121 366.592,-124.5 366.592,-117.5"/>
</g>
<!-- Node7 -->
<g id="node10" class="node"><title>Node7</title>
<a xlink:href="classant_1_1analysis_1_1utils_1_1_trigger_simulation.html" target="_top" xlink:title="ant::analysis::utils\l::TriggerSimulation">
<polygon fill="white" stroke="black" points="478,-52 478,-86 576,-86 576,-52 478,-52"/>
<text text-anchor="start" x="486" y="-73" font-family="Helvetica,sans-Serif" font-size="10.00">ant::analysis::utils</text>
<text text-anchor="middle" x="527" y="-60" font-family="Helvetica,sans-Serif" font-size="10.00">::TriggerSimulation</text>
</a>
</g>
<!-- Node7&#45;&gt;Node2 -->
<g id="edge10" class="edge"><title>Node7&#45;&gt;Node2</title>
<path fill="none" stroke="#9a32cd" stroke-dasharray="5,2" d="M586.391,-70.7702C615.823,-72.0627 651.856,-74.2682 684,-78 689.831,-78.6769 695.898,-79.5176 701.939,-80.4434"/>
<polygon fill="#9a32cd" stroke="#9a32cd" points="586.41,-67.268 576.274,-70.35 586.12,-74.262 586.41,-67.268"/>
<text text-anchor="middle" x="651" y="-82" font-family="Helvetica,sans-Serif" font-size="10.00"> triggersimu</text>
</g>
<!-- Node8 -->
<g id="node12" class="node"><title>Node8</title>
<a xlink:href="classant_1_1analysis_1_1_prompt_random_1_1_switch.html" target="_top" xlink:title="ant::analysis::PromptRandom\l::Switch">
<polygon fill="white" stroke="black" points="454,-0 454,-34 600,-34 600,-0 454,-0"/>
<text text-anchor="start" x="462" y="-21" font-family="Helvetica,sans-Serif" font-size="10.00">ant::analysis::PromptRandom</text>
<text text-anchor="middle" x="527" y="-8" font-family="Helvetica,sans-Serif" font-size="10.00">::Switch</text>
</a>
</g>
<!-- Node8&#45;&gt;Node2 -->
<g id="edge12" class="edge"><title>Node8&#45;&gt;Node2</title>
<path fill="none" stroke="#9a32cd" stroke-dasharray="5,2" d="M610.112,-33.5942C634.258,-39.3567 660.457,-46.5361 684,-55 698.385,-60.1718 713.673,-67.3094 726.596,-73.866"/>
<polygon fill="#9a32cd" stroke="#9a32cd" points="610.795,-30.1596 600.261,-31.2935 609.202,-36.9762 610.795,-30.1596"/>
<text text-anchor="middle" x="651" y="-59" font-family="Helvetica,sans-Serif" font-size="10.00"> promptrandom</text>
</g>
<!-- Node9 -->
<g id="node14" class="node"><title>Node9</title>
<a xlink:href="classant_1_1_piecewise_interval.html" target="_top" xlink:title="ant::PiecewiseInterval\l\&lt; double \&gt;">
<polygon fill="white" stroke="black" points="257.5,-0 257.5,-34 370.5,-34 370.5,-0 257.5,-0"/>
<text text-anchor="start" x="265.5" y="-21" font-family="Helvetica,sans-Serif" font-size="10.00">ant::PiecewiseInterval</text>
<text text-anchor="middle" x="314" y="-8" font-family="Helvetica,sans-Serif" font-size="10.00">&lt; double &gt;</text>
</a>
</g>
<!-- Node9&#45;&gt;Node8 -->
<g id="edge14" class="edge"><title>Node9&#45;&gt;Node8</title>
<path fill="none" stroke="#9a32cd" stroke-dasharray="5,2" d="M380.616,-17C403.833,-17 430.005,-17 453.731,-17"/>
<polygon fill="#9a32cd" stroke="#9a32cd" points="380.521,-13.5001 370.521,-17 380.521,-20.5001 380.521,-13.5001"/>
<text text-anchor="middle" x="415" y="-34" font-family="Helvetica,sans-Serif" font-size="10.00"> promptw</text>
<text text-anchor="middle" x="415" y="-21" font-family="Helvetica,sans-Serif" font-size="10.00">randomw</text>
</g>
<!-- Node10 -->
<g id="node16" class="node"><title>Node10</title>
<a xlink:title="STL class. ">
<polygon fill="white" stroke="#bfbfbf" points="110,-0 110,-34 214,-34 214,-0 110,-0"/>
<text text-anchor="start" x="118" y="-21" font-family="Helvetica,sans-Serif" font-size="10.00">std::vector&lt; interval</text>
<text text-anchor="middle" x="162" y="-8" font-family="Helvetica,sans-Serif" font-size="10.00">&lt; double &gt; &gt;</text>
</a>
</g>
<!-- Node10&#45;&gt;Node9 -->
<g id="edge16" class="edge"><title>Node10&#45;&gt;Node9</title>
<path fill="none" stroke="midnightblue" d="M224.594,-17C235.474,-17 246.732,-17 257.438,-17"/>
<polygon fill="midnightblue" stroke="midnightblue" points="224.31,-13.5001 214.31,-17 224.31,-20.5001 224.31,-13.5001"/>
</g>
<!-- Node11 -->
<g id="node18" class="node"><title>Node11</title>
<polygon fill="white" stroke="#bfbfbf" points="0.5,-6.5 0.5,-27.5 29.5,-27.5 29.5,-6.5 0.5,-6.5"/>
<text text-anchor="middle" x="15" y="-14.5" font-family="Helvetica,sans-Serif" font-size="10.00">T</text>
</g>
<!-- Node11&#45;&gt;Node10 -->
<g id="edge18" class="edge"><title>Node11&#45;&gt;Node10</title>
<path fill="none" stroke="#9a32cd" stroke-dasharray="5,2" d="M39.869,-17C58.9565,-17 85.9818,-17 109.759,-17"/>
<polygon fill="#9a32cd" stroke="#9a32cd" points="39.6324,-13.5001 29.6323,-17 39.6323,-20.5001 39.6324,-13.5001"/>
<text text-anchor="middle" x="70" y="-21" font-family="Helvetica,sans-Serif" font-size="10.00"> elements</text>
</g>
</g>
</svg>
