<?xml version="1.0" encoding="UTF-8" standalone="no"?>
<!DOCTYPE svg PUBLIC "-//W3C//DTD SVG 1.1//EN"
 "http://www.w3.org/Graphics/SVG/1.1/DTD/svg11.dtd">
<!-- Generated by graphviz version 2.26.3 (20100126.1600)
 -->
<!-- Title: ant::analysis::physics::KinFitIMCheck Pages: 1 -->
<svg width="890pt" height="322pt"
 viewBox="0.00 0.00 890.00 322.00" xmlns="http://www.w3.org/2000/svg" xmlns:xlink="http://www.w3.org/1999/xlink">
<g id="graph1" class="graph" transform="scale(1 1) rotate(0) translate(4 318)">
<title>ant::analysis::physics::KinFitIMCheck</title>
<polygon fill="white" stroke="white" points="-4,5 -4,-318 887,-318 887,5 -4,5"/>
<!-- Node2 -->
<g id="node1" class="node"><title>Node2</title>
<polygon fill="#bfbfbf" stroke="black" points="770,-104 770,-138 882,-138 882,-104 770,-104"/>
<text text-anchor="start" x="778" y="-125" font-family="Helvetica,sans-Serif" font-size="10.00">ant::analysis::physics</text>
<text text-anchor="middle" x="826" y="-112" font-family="Helvetica,sans-Serif" font-size="10.00">::KinFitIMCheck</text>
</g>
<!-- Node3 -->
<g id="node2" class="node"><title>Node3</title>
<a xlink:href="classant_1_1analysis_1_1_physics.html" target="_top" xlink:title="ant::analysis::Physics">
<polygon fill="white" stroke="black" points="538.5,-252.5 538.5,-273.5 651.5,-273.5 651.5,-252.5 538.5,-252.5"/>
<text text-anchor="middle" x="595" y="-260.5" font-family="Helvetica,sans-Serif" font-size="10.00">ant::analysis::Physics</text>
</a>
</g>
<!-- Node3&#45;&gt;Node2 -->
<g id="edge2" class="edge"><title>Node3&#45;&gt;Node2</title>
<path fill="none" stroke="midnightblue" d="M623.866,-247.495C655.722,-230.146 708.276,-200.812 752,-173 769.356,-161.96 788.327,-148.602 802.715,-138.19"/>
<polygon fill="midnightblue" stroke="midnightblue" points="621.798,-244.635 614.677,-252.48 625.136,-250.788 621.798,-244.635"/>
</g>
<!-- Node4 -->
<g id="node4" class="node"><title>Node4</title>
<a xlink:href="classant_1_1analysis_1_1_histogram_factory.html" target="_top" xlink:title="ant::analysis::Histogram\lFactory">
<polygon fill="white" stroke="black" points="319.5,-280 319.5,-314 442.5,-314 442.5,-280 319.5,-280"/>
<text text-anchor="start" x="327.5" y="-301" font-family="Helvetica,sans-Serif" font-size="10.00">ant::analysis::Histogram</text>
<text text-anchor="middle" x="381" y="-288" font-family="Helvetica,sans-Serif" font-size="10.00">Factory</text>
</a>
</g>
<!-- Node4&#45;&gt;Node3 -->
<g id="edge4" class="edge"><title>Node4&#45;&gt;Node3</title>
<path fill="none" stroke="#9a32cd" stroke-dasharray="5,2" d="M452.692,-285.61C480.54,-281.185 511.982,-276.19 538.216,-272.022"/>
<polygon fill="#9a32cd" stroke="#9a32cd" points="451.937,-282.186 442.611,-287.211 453.036,-289.099 451.937,-282.186"/>
<text text-anchor="middle" x="483" y="-288" font-family="Helvetica,sans-Serif" font-size="10.00"> HistFac</text>
</g>
<!-- Node5 -->
<g id="node6" class="node"><title>Node5</title>
<a xlink:href="classant_1_1analysis_1_1utils_1_1_kin_fitter.html" target="_top" xlink:title="ant::analysis::utils\l::KinFitter">
<polygon fill="white" stroke="black" points="547,-165 547,-199 643,-199 643,-165 547,-165"/>
<text text-anchor="start" x="555" y="-186" font-family="Helvetica,sans-Serif" font-size="10.00">ant::analysis::utils</text>
<text text-anchor="middle" x="595" y="-173" font-family="Helvetica,sans-Serif" font-size="10.00">::KinFitter</text>
</a>
</g>
<!-- Node5&#45;&gt;Node2 -->
<g id="edge6" class="edge"><title>Node5&#45;&gt;Node2</title>
<path fill="none" stroke="#9a32cd" stroke-dasharray="5,2" d="M652.95,-166.697C688.707,-157.255 734.349,-145.202 769.78,-135.846"/>
<polygon fill="#9a32cd" stroke="#9a32cd" points="651.919,-163.349 643.144,-169.287 653.706,-170.117 651.919,-163.349"/>
<text text-anchor="middle" x="719" y="-160" font-family="Helvetica,sans-Serif" font-size="10.00"> fitter</text>
</g>
<!-- Node6 -->
<g id="node8" class="node"><title>Node6</title>
<a xlink:href="classant_1_1analysis_1_1utils_1_1_fitter.html" target="_top" xlink:title="ant::analysis::utils\l::Fitter">
<polygon fill="white" stroke="black" points="333,-228 333,-262 429,-262 429,-228 333,-228"/>
<text text-anchor="start" x="341" y="-249" font-family="Helvetica,sans-Serif" font-size="10.00">ant::analysis::utils</text>
<text text-anchor="middle" x="381" y="-236" font-family="Helvetica,sans-Serif" font-size="10.00">::Fitter</text>
</a>
</g>
<!-- Node6&#45;&gt;Node5 -->
<g id="edge8" class="edge"><title>Node6&#45;&gt;Node5</title>
<path fill="none" stroke="midnightblue" d="M438.773,-227.992C472.573,-218.041 514.755,-205.624 546.765,-196.2"/>
<polygon fill="midnightblue" stroke="midnightblue" points="437.63,-224.68 429.026,-230.862 439.607,-231.395 437.63,-224.68"/>
</g>
<!-- Node7 -->
<g id="node10" class="node"><title>Node7</title>
<a xlink:href="structant_1_1analysis_1_1utils_1_1_kin_fitter_1_1_beam_e__t.html" target="_top" xlink:title="ant::analysis::utils\l::KinFitter::BeamE_t">
<polygon fill="white" stroke="black" points="328,-176 328,-210 434,-210 434,-176 328,-176"/>
<text text-anchor="start" x="336" y="-197" font-family="Helvetica,sans-Serif" font-size="10.00">ant::analysis::utils</text>
<text text-anchor="middle" x="381" y="-184" font-family="Helvetica,sans-Serif" font-size="10.00">::KinFitter::BeamE_t</text>
</a>
</g>
<!-- Node7&#45;&gt;Node5 -->
<g id="edge10" class="edge"><title>Node7&#45;&gt;Node5</title>
<path fill="none" stroke="#9a32cd" stroke-dasharray="5,2" d="M444.562,-189.733C477.325,-188.049 516.634,-186.028 546.852,-184.475"/>
<polygon fill="#9a32cd" stroke="#9a32cd" points="443.981,-186.258 434.174,-190.267 444.34,-193.249 443.981,-186.258"/>
<text text-anchor="middle" x="483" y="-192" font-family="Helvetica,sans-Serif" font-size="10.00"> BeamE</text>
</g>
<!-- Node8 -->
<g id="node12" class="node"><title>Node8</title>
<a xlink:href="structant_1_1analysis_1_1utils_1_1_fitter_1_1_v___s___p__t.html" target="_top" xlink:title="ant::analysis::utils\l::Fitter::V_S_P_t">
<polygon fill="white" stroke="black" points="180,-176 180,-210 276,-210 276,-176 180,-176"/>
<text text-anchor="start" x="188" y="-197" font-family="Helvetica,sans-Serif" font-size="10.00">ant::analysis::utils</text>
<text text-anchor="middle" x="228" y="-184" font-family="Helvetica,sans-Serif" font-size="10.00">::Fitter::V_S_P_t</text>
</a>
</g>
<!-- Node8&#45;&gt;Node7 -->
<g id="edge12" class="edge"><title>Node8&#45;&gt;Node7</title>
<path fill="none" stroke="midnightblue" d="M286.603,-193C300.174,-193 314.542,-193 327.864,-193"/>
<polygon fill="midnightblue" stroke="midnightblue" points="286.41,-189.5 276.41,-193 286.41,-196.5 286.41,-189.5"/>
</g>
<!-- Node9 -->
<g id="node14" class="node"><title>Node9</title>
<a xlink:href="structant_1_1analysis_1_1utils_1_1_fitter_1_1_v___s__t.html" target="_top" xlink:title="ant::analysis::utils\l::Fitter::V_S_t">
<polygon fill="white" stroke="black" points="0,-176 0,-210 96,-210 96,-176 0,-176"/>
<text text-anchor="start" x="8" y="-197" font-family="Helvetica,sans-Serif" font-size="10.00">ant::analysis::utils</text>
<text text-anchor="middle" x="48" y="-184" font-family="Helvetica,sans-Serif" font-size="10.00">::Fitter::V_S_t</text>
</a>
</g>
<!-- Node9&#45;&gt;Node8 -->
<g id="edge14" class="edge"><title>Node9&#45;&gt;Node8</title>
<path fill="none" stroke="midnightblue" d="M106.535,-193C130.285,-193 157.379,-193 179.943,-193"/>
<polygon fill="midnightblue" stroke="midnightblue" points="106.237,-189.5 96.2367,-193 106.237,-196.5 106.237,-189.5"/>
</g>
<!-- Node10 -->
<g id="node16" class="node"><title>Node10</title>
<polygon fill="white" stroke="#bfbfbf" points="318.5,-136.5 318.5,-157.5 443.5,-157.5 443.5,-136.5 318.5,-136.5"/>
<text text-anchor="middle" x="381" y="-144.5" font-family="Helvetica,sans-Serif" font-size="10.00">std::vector&lt; FitParticle &gt;</text>
</g>
<!-- Node10&#45;&gt;Node5 -->
<g id="edge16" class="edge"><title>Node10&#45;&gt;Node5</title>
<path fill="none" stroke="#9a32cd" stroke-dasharray="5,2" d="M453.987,-158.937C484.662,-163.954 519.499,-169.652 546.872,-174.129"/>
<polygon fill="#9a32cd" stroke="#9a32cd" points="454.195,-155.425 443.761,-157.265 453.065,-162.333 454.195,-155.425"/>
<text text-anchor="middle" x="483" y="-170" font-family="Helvetica,sans-Serif" font-size="10.00"> Photons</text>
</g>
<!-- Node11 -->
<g id="node18" class="node"><title>Node11</title>
<a xlink:href="structant_1_1analysis_1_1physics_1_1_kin_fit_i_m_check_1_1_tree__t.html" target="_top" xlink:title="ant::analysis::physics\l::KinFitIMCheck::Tree_t">
<polygon fill="white" stroke="black" points="534,-104 534,-138 656,-138 656,-104 534,-104"/>
<text text-anchor="start" x="542" y="-125" font-family="Helvetica,sans-Serif" font-size="10.00">ant::analysis::physics</text>
<text text-anchor="middle" x="595" y="-112" font-family="Helvetica,sans-Serif" font-size="10.00">::KinFitIMCheck::Tree_t</text>
</a>
</g>
<!-- Node11&#45;&gt;Node2 -->
<g id="edge18" class="edge"><title>Node11&#45;&gt;Node2</title>
<path fill="none" stroke="#9a32cd" stroke-dasharray="5,2" d="M666.437,-121C699.752,-121 738.821,-121 769.962,-121"/>
<polygon fill="#9a32cd" stroke="#9a32cd" points="666.297,-117.5 656.297,-121 666.297,-124.5 666.297,-117.5"/>
<text text-anchor="middle" x="719" y="-125" font-family="Helvetica,sans-Serif" font-size="10.00"> t</text>
</g>
<!-- Node12 -->
<g id="node20" class="node"><title>Node12</title>
<a xlink:href="classant_1_1_wrap_t_tree.html" target="_top" xlink:title="The WrapTTree struct simplifies TTree handling in physics classes. ">
<polygon fill="white" stroke="black" points="338.5,-96.5 338.5,-117.5 423.5,-117.5 423.5,-96.5 338.5,-96.5"/>
<text text-anchor="middle" x="381" y="-104.5" font-family="Helvetica,sans-Serif" font-size="10.00">ant::WrapTTree</text>
</a>
</g>
<!-- Node12&#45;&gt;Node11 -->
<g id="edge20" class="edge"><title>Node12&#45;&gt;Node11</title>
<path fill="none" stroke="midnightblue" d="M433.899,-110.461C464.191,-112.442 502.334,-114.938 533.901,-117.003"/>
<polygon fill="midnightblue" stroke="midnightblue" points="433.743,-106.943 423.535,-109.783 433.286,-113.928 433.743,-106.943"/>
</g>
<!-- Node13 -->
<g id="node22" class="node"><title>Node13</title>
<a xlink:href="classant_1_1analysis_1_1_prompt_random_1_1_switch.html" target="_top" xlink:title="ant::analysis::PromptRandom\l::Switch">
<polygon fill="white" stroke="black" points="522,-52 522,-86 668,-86 668,-52 522,-52"/>
<text text-anchor="start" x="530" y="-73" font-family="Helvetica,sans-Serif" font-size="10.00">ant::analysis::PromptRandom</text>
<text text-anchor="middle" x="595" y="-60" font-family="Helvetica,sans-Serif" font-size="10.00">::Switch</text>
</a>
</g>
<!-- Node13&#45;&gt;Node2 -->
<g id="edge22" class="edge"><title>Node13&#45;&gt;Node2</title>
<path fill="none" stroke="#9a32cd" stroke-dasharray="5,2" d="M678.183,-87.4387C702.026,-92.7525 728.048,-98.5791 752,-104 757.786,-105.309 763.824,-106.684 769.847,-108.06"/>
<polygon fill="#9a32cd" stroke="#9a32cd" points="678.631,-83.9529 668.11,-85.1954 677.11,-90.7855 678.631,-83.9529"/>
<text text-anchor="middle" x="719" y="-108" font-family="Helvetica,sans-Serif" font-size="10.00"> promptrandom</text>
</g>
<!-- Node14 -->
<g id="node24" class="node"><title>Node14</title>
<a xlink:href="classant_1_1_piecewise_interval.html" target="_top" xlink:title="ant::PiecewiseInterval\l\&lt; double \&gt;">
<polygon fill="white" stroke="black" points="324.5,-44 324.5,-78 437.5,-78 437.5,-44 324.5,-44"/>
<text text-anchor="start" x="332.5" y="-65" font-family="Helvetica,sans-Serif" font-size="10.00">ant::PiecewiseInterval</text>
<text text-anchor="middle" x="381" y="-52" font-family="Helvetica,sans-Serif" font-size="10.00">&lt; double &gt;</text>
</a>
</g>
<!-- Node14&#45;&gt;Node13 -->
<g id="edge24" class="edge"><title>Node14&#45;&gt;Node13</title>
<path fill="none" stroke="#9a32cd" stroke-dasharray="5,2" d="M447.701,-63.4935C471.154,-64.3703 497.633,-65.3601 521.606,-66.2563"/>
<polygon fill="#9a32cd" stroke="#9a32cd" points="447.63,-59.9885 437.506,-63.1124 447.368,-66.9836 447.63,-59.9885"/>
<text text-anchor="middle" x="483" y="-82" font-family="Helvetica,sans-Serif" font-size="10.00"> promptw</text>
<text text-anchor="middle" x="483" y="-69" font-family="Helvetica,sans-Serif" font-size="10.00">randomw</text>
</g>
<!-- Node15 -->
<g id="node26" class="node"><title>Node15</title>
<a xlink:title="STL class. ">
<polygon fill="white" stroke="#bfbfbf" points="176,-44 176,-78 280,-78 280,-44 176,-44"/>
<text text-anchor="start" x="184" y="-65" font-family="Helvetica,sans-Serif" font-size="10.00">std::vector&lt; interval</text>
<text text-anchor="middle" x="228" y="-52" font-family="Helvetica,sans-Serif" font-size="10.00">&lt; double &gt; &gt;</text>
</a>
</g>
<!-- Node15&#45;&gt;Node14 -->
<g id="edge26" class="edge"><title>Node15&#45;&gt;Node14</title>
<path fill="none" stroke="midnightblue" d="M290.384,-61C301.606,-61 313.247,-61 324.297,-61"/>
<polygon fill="midnightblue" stroke="midnightblue" points="290.226,-57.5001 280.226,-61 290.226,-64.5001 290.226,-57.5001"/>
</g>
<!-- Node16 -->
<g id="node28" class="node"><title>Node16</title>
<polygon fill="white" stroke="#bfbfbf" points="33.5,-50.5 33.5,-71.5 62.5,-71.5 62.5,-50.5 33.5,-50.5"/>
<text text-anchor="middle" x="48" y="-58.5" font-family="Helvetica,sans-Serif" font-size="10.00">T</text>
</g>
<!-- Node16&#45;&gt;Node15 -->
<g id="edge28" class="edge"><title>Node16&#45;&gt;Node15</title>
<path fill="none" stroke="#9a32cd" stroke-dasharray="5,2" d="M73.021,-61C99.4972,-61 142.042,-61 175.863,-61"/>
<polygon fill="#9a32cd" stroke="#9a32cd" points="72.7302,-57.5001 62.7302,-61 72.7301,-64.5001 72.7302,-57.5001"/>
<text text-anchor="middle" x="136" y="-65" font-family="Helvetica,sans-Serif" font-size="10.00"> elements</text>
</g>
<!-- Node17 -->
<g id="node30" class="node"><title>Node17</title>
<a xlink:href="classant_1_1analysis_1_1utils_1_1_trigger_simulation.html" target="_top" xlink:title="ant::analysis::utils\l::TriggerSimulation">
<polygon fill="white" stroke="black" points="546,-0 546,-34 644,-34 644,-0 546,-0"/>
<text text-anchor="start" x="554" y="-21" font-family="Helvetica,sans-Serif" font-size="10.00">ant::analysis::utils</text>
<text text-anchor="middle" x="595" y="-8" font-family="Helvetica,sans-Serif" font-size="10.00">::TriggerSimulation</text>
</a>
</g>
<!-- Node17&#45;&gt;Node2 -->
<g id="edge30" class="edge"><title>Node17&#45;&gt;Node2</title>
<path fill="none" stroke="#9a32cd" stroke-dasharray="5,2" d="M653.94,-33.8244C684.012,-43.3546 720.742,-56.4776 752,-72 770.079,-80.9777 789.032,-93.5982 803.231,-103.783"/>
<polygon fill="#9a32cd" stroke="#9a32cd" points="654.603,-30.3651 644.015,-30.7318 652.521,-37.0482 654.603,-30.3651"/>
<text text-anchor="middle" x="719" y="-76" font-family="Helvetica,sans-Serif" font-size="10.00"> triggersimu</text>
</g>
</g>
</svg>
