<?xml version="1.0" encoding="UTF-8" standalone="no"?>
<!DOCTYPE svg PUBLIC "-//W3C//DTD SVG 1.1//EN"
 "http://www.w3.org/Graphics/SVG/1.1/DTD/svg11.dtd">
<!-- Generated by graphviz version 2.26.3 (20100126.1600)
 -->
<!-- Title: ant::ParticleTypeDatabase Pages: 1 -->
<svg width="418pt" height="404pt"
 viewBox="0.00 0.00 418.00 404.00" xmlns="http://www.w3.org/2000/svg" xmlns:xlink="http://www.w3.org/1999/xlink">
<g id="graph1" class="graph" transform="scale(1 1) rotate(0) translate(4 400)">
<title>ant::ParticleTypeDatabase</title>
<polygon fill="white" stroke="white" points="-4,5 -4,-400 415,-400 415,5 -4,5"/>
<!-- Node1 -->
<g id="node1" class="node"><title>Node1</title>
<polygon fill="#bfbfbf" stroke="black" points="86.5,-0.5 86.5,-21.5 219.5,-21.5 219.5,-0.5 86.5,-0.5"/>
<text text-anchor="middle" x="153" y="-8.5" font-family="Helvetica,sans-Serif" font-size="10.00">ant::ParticleTypeDatabase</text>
</g>
<!-- Node2 -->
<g id="node2" class="node"><title>Node2</title>
<a xlink:title="STL class. ">
<polygon fill="white" stroke="#bfbfbf" points="0,-209.5 0,-230.5 92,-230.5 92,-209.5 0,-209.5"/>
<text text-anchor="middle" x="46" y="-217.5" font-family="Helvetica,sans-Serif" font-size="10.00">std::map&lt; K, T &gt;</text>
</a>
</g>
<!-- Node2&#45;&gt;Node1 -->
<g id="edge2" class="edge"><title>Node2&#45;&gt;Node1</title>
<path fill="none" stroke="#9a32cd" stroke-dasharray="5,2" d="M45.6823,-198.883C46.2357,-162.377 52.3722,-86.8853 91,-40 97.725,-31.8374 107.268,-25.8453 116.856,-21.5011"/>
<polygon fill="#9a32cd" stroke="#9a32cd" points="42.1817,-199.274 45.6647,-209.28 49.1817,-199.286 42.1817,-199.274"/>
<text text-anchor="middle" x="120" y="-116" font-family="Helvetica,sans-Serif" font-size="10.00"> types</text>
<text text-anchor="middle" x="120" y="-103" font-family="Helvetica,sans-Serif" font-size="10.00">pluto_id_map</text>
</g>
<!-- Node3 -->
<g id="node4" class="node"><title>Node3</title>
<polygon fill="white" stroke="#bfbfbf" points="24.5,-300.5 24.5,-321.5 53.5,-321.5 53.5,-300.5 24.5,-300.5"/>
<text text-anchor="middle" x="39" y="-308.5" font-family="Helvetica,sans-Serif" font-size="10.00">K</text>
</g>
<!-- Node3&#45;&gt;Node2 -->
<g id="edge4" class="edge"><title>Node3&#45;&gt;Node2</title>
<path fill="none" stroke="#9a32cd" stroke-dasharray="5,2" d="M38.6589,-290.32C38.6706,-279.99 38.96,-267.314 40,-256 40.7888,-247.419 42.4328,-237.795 43.8008,-230.658"/>
<polygon fill="#9a32cd" stroke="#9a32cd" points="35.1597,-290.457 38.7326,-300.431 42.1595,-290.406 35.1597,-290.457"/>
<text text-anchor="middle" x="52.5" y="-266.5" font-family="Helvetica,sans-Serif" font-size="10.00"> keys</text>
</g>
<!-- Node4 -->
<g id="node6" class="node"><title>Node4</title>
<polygon fill="white" stroke="#bfbfbf" points="105.5,-300.5 105.5,-321.5 134.5,-321.5 134.5,-300.5 105.5,-300.5"/>
<text text-anchor="middle" x="120" y="-308.5" font-family="Helvetica,sans-Serif" font-size="10.00">T</text>
</g>
<!-- Node4&#45;&gt;Node2 -->
<g id="edge6" class="edge"><title>Node4&#45;&gt;Node2</title>
<path fill="none" stroke="#9a32cd" stroke-dasharray="5,2" d="M97.1845,-294.592C92.5527,-290.736 87.9085,-286.445 84,-282 69.8278,-265.883 57.7209,-243.83 51.1859,-230.833"/>
<polygon fill="#9a32cd" stroke="#9a32cd" points="95.3207,-297.579 105.347,-301.004 99.6451,-292.074 95.3207,-297.579"/>
<text text-anchor="middle" x="105.5" y="-266.5" font-family="Helvetica,sans-Serif" font-size="10.00"> elements</text>
</g>
<!-- Node8 -->
<g id="node15" class="node"><title>Node8</title>
<a xlink:title="STL class. ">
<polygon fill="white" stroke="#bfbfbf" points="109.5,-209.5 109.5,-230.5 196.5,-230.5 196.5,-209.5 109.5,-209.5"/>
<text text-anchor="middle" x="153" y="-217.5" font-family="Helvetica,sans-Serif" font-size="10.00">std::vector&lt; T &gt;</text>
</a>
</g>
<!-- Node4&#45;&gt;Node8 -->
<g id="edge18" class="edge"><title>Node4&#45;&gt;Node8</title>
<path fill="none" stroke="#9a32cd" stroke-dasharray="5,2" d="M127.734,-290.779C128.84,-287.837 129.956,-284.843 131,-282 137.611,-263.987 145.02,-242.915 149.332,-230.556"/>
<polygon fill="#9a32cd" stroke="#9a32cd" points="124.405,-289.687 124.13,-300.278 130.95,-292.17 124.405,-289.687"/>
<text text-anchor="middle" x="162.5" y="-266.5" font-family="Helvetica,sans-Serif" font-size="10.00"> elements</text>
</g>
<!-- Node5 -->
<g id="node8" class="node"><title>Node5</title>
<a xlink:href="classant_1_1_particle_type_database_1_1_type.html" target="_top" xlink:title="ant::ParticleTypeDatabase\l::Type">
<polygon fill="white" stroke="black" points="213.5,-203 213.5,-237 346.5,-237 346.5,-203 213.5,-203"/>
<text text-anchor="start" x="221.5" y="-224" font-family="Helvetica,sans-Serif" font-size="10.00">ant::ParticleTypeDatabase</text>
<text text-anchor="middle" x="280" y="-211" font-family="Helvetica,sans-Serif" font-size="10.00">::Type</text>
</a>
</g>
<!-- Node5&#45;&gt;Node1 -->
<g id="edge8" class="edge"><title>Node5&#45;&gt;Node1</title>
<path fill="none" stroke="#9a32cd" stroke-dasharray="5,2" d="M279.802,-192.968C278.074,-154.262 269.314,-82.9886 230,-40 222.481,-31.7777 212.395,-25.8737 202.005,-21.6386"/>
<polygon fill="#9a32cd" stroke="#9a32cd" points="276.304,-193.088 280.123,-202.971 283.301,-192.864 276.304,-193.088"/>
<text text-anchor="middle" x="309.5" y="-174.5" font-family="Helvetica,sans-Serif" font-size="10.00"> PiPlus</text>
<text text-anchor="middle" x="309.5" y="-161.5" font-family="Helvetica,sans-Serif" font-size="10.00">MuCharged</text>
<text text-anchor="middle" x="309.5" y="-148.5" font-family="Helvetica,sans-Serif" font-size="10.00">Rho</text>
<text text-anchor="middle" x="309.5" y="-135.5" font-family="Helvetica,sans-Serif" font-size="10.00">Proton</text>
<text text-anchor="middle" x="309.5" y="-122.5" font-family="Helvetica,sans-Serif" font-size="10.00">EtaPrime</text>
<text text-anchor="middle" x="309.5" y="-109.5" font-family="Helvetica,sans-Serif" font-size="10.00">K0s</text>
<text text-anchor="middle" x="309.5" y="-96.5" font-family="Helvetica,sans-Serif" font-size="10.00">Pi0</text>
<text text-anchor="middle" x="309.5" y="-83.5" font-family="Helvetica,sans-Serif" font-size="10.00">SigmaPlus</text>
<text text-anchor="middle" x="309.5" y="-70.5" font-family="Helvetica,sans-Serif" font-size="10.00">ParticleGun</text>
<text text-anchor="middle" x="309.5" y="-57.5" font-family="Helvetica,sans-Serif" font-size="10.00">BeamNeutron</text>
<text text-anchor="middle" x="309.5" y="-44.5" font-family="Helvetica,sans-Serif" font-size="10.00">...</text>
</g>
<!-- Node5&#45;&gt;Node5 -->
<g id="edge14" class="edge"><title>Node5&#45;&gt;Node5</title>
<path fill="none" stroke="#9a32cd" stroke-dasharray="5,2" d="M356.629,-226.221C361.236,-224.74 364,-222.666 364,-220 364,-215.734 356.924,-212.985 346.545,-211.752"/>
<polygon fill="#9a32cd" stroke="#9a32cd" points="355.659,-222.846 346.545,-228.248 357.038,-229.709 355.659,-222.846"/>
<text text-anchor="middle" x="387" y="-217.5" font-family="Helvetica,sans-Serif" font-size="10.00"> sametype</text>
</g>
<!-- Node6 -->
<g id="node10" class="node"><title>Node6</title>
<a xlink:title="STL class. ">
<polygon fill="white" stroke="#bfbfbf" points="250,-300.5 250,-321.5 310,-321.5 310,-300.5 250,-300.5"/>
<text text-anchor="middle" x="280" y="-308.5" font-family="Helvetica,sans-Serif" font-size="10.00">std::string</text>
</a>
</g>
<!-- Node6&#45;&gt;Node5 -->
<g id="edge10" class="edge"><title>Node6&#45;&gt;Node5</title>
<path fill="none" stroke="#9a32cd" stroke-dasharray="5,2" d="M280,-289.755C280,-273.799 280,-252.221 280,-237.309"/>
<polygon fill="#9a32cd" stroke="#9a32cd" points="276.5,-290.204 280,-300.204 283.5,-290.204 276.5,-290.204"/>
<text text-anchor="middle" x="306" y="-273" font-family="Helvetica,sans-Serif" font-size="10.00"> print_name</text>
<text text-anchor="middle" x="306" y="-260" font-family="Helvetica,sans-Serif" font-size="10.00">name</text>
</g>
<!-- Node7 -->
<g id="node12" class="node"><title>Node7</title>
<a xlink:title="STL class. ">
<polygon fill="white" stroke="#bfbfbf" points="232.5,-361 232.5,-395 327.5,-395 327.5,-361 232.5,-361"/>
<text text-anchor="start" x="240.5" y="-382" font-family="Helvetica,sans-Serif" font-size="10.00">std::basic_string&lt;</text>
<text text-anchor="middle" x="280" y="-369" font-family="Helvetica,sans-Serif" font-size="10.00"> char &gt;</text>
</a>
</g>
<!-- Node7&#45;&gt;Node6 -->
<g id="edge12" class="edge"><title>Node7&#45;&gt;Node6</title>
<path fill="none" stroke="midnightblue" d="M280,-350.534C280,-340.306 280,-329.301 280,-321.506"/>
<polygon fill="midnightblue" stroke="midnightblue" points="276.5,-350.746 280,-360.746 283.5,-350.746 276.5,-350.746"/>
</g>
<!-- Node8&#45;&gt;Node1 -->
<g id="edge16" class="edge"><title>Node8&#45;&gt;Node1</title>
<path fill="none" stroke="#9a32cd" stroke-dasharray="5,2" d="M153,-199.275C153,-155.425 153,-54.5821 153,-21.6302"/>
<polygon fill="#9a32cd" stroke="#9a32cd" points="149.5,-199.348 153,-209.348 156.5,-199.348 149.5,-199.348"/>
<text text-anchor="middle" x="189.5" y="-122.5" font-family="Helvetica,sans-Serif" font-size="10.00"> neutral_mesons</text>
<text text-anchor="middle" x="189.5" y="-109.5" font-family="Helvetica,sans-Serif" font-size="10.00">mc_finalstate</text>
<text text-anchor="middle" x="189.5" y="-96.5" font-family="Helvetica,sans-Serif" font-size="10.00">detectables</text>
</g>
</g>
</svg>
