<?xml version="1.0" encoding="UTF-8" standalone="no"?>
<!DOCTYPE svg PUBLIC "-//W3C//DTD SVG 1.1//EN"
 "http://www.w3.org/Graphics/SVG/1.1/DTD/svg11.dtd">
<!-- Generated by graphviz version 2.26.3 (20100126.1600)
 -->
<!-- Title: ant::analysis::utils::UncertaintyModel Pages: 1 -->
<svg width="412pt" height="525pt"
 viewBox="0.00 0.00 412.00 525.00" xmlns="http://www.w3.org/2000/svg" xmlns:xlink="http://www.w3.org/1999/xlink">
<g id="graph1" class="graph" transform="scale(1 1) rotate(0) translate(4 521)">
<title>ant::analysis::utils::UncertaintyModel</title>
<polygon fill="white" stroke="white" points="-4,5 -4,-521 409,-521 409,5 -4,5"/>
<!-- Node0 -->
<g id="node1" class="node"><title>Node0</title>
<polygon fill="#bfbfbf" stroke="black" points="0.5,-179 0.5,-213 99.5,-213 99.5,-179 0.5,-179"/>
<text text-anchor="start" x="8.5" y="-200" font-family="Helvetica,sans-Serif" font-size="10.00">ant::analysis::utils</text>
<text text-anchor="middle" x="50" y="-187" font-family="Helvetica,sans-Serif" font-size="10.00">::UncertaintyModel</text>
</g>
<!-- Node1 -->
<g id="node3" class="node"><title>Node1</title>
<a xlink:href="structant_1_1analysis_1_1utils_1_1_uncertainty_models_1_1_constant.html" target="_top" xlink:title="Constant/static kin fitter uncertainty model. has a fixed value for {cb,taps}{photon,proton}{E,theta,phi}. ">
<polygon fill="white" stroke="black" points="138,-436.5 138,-483.5 248,-483.5 248,-436.5 138,-436.5"/>
<text text-anchor="start" x="146" y="-470.5" font-family="Helvetica,sans-Serif" font-size="10.00">ant::analysis::utils</text>
<text text-anchor="start" x="146" y="-457.5" font-family="Helvetica,sans-Serif" font-size="10.00">::UncertaintyModels::</text>
<text text-anchor="middle" x="193" y="-444.5" font-family="Helvetica,sans-Serif" font-size="10.00">Constant</text>
</a>
</g>
<!-- Node0&#45;&gt;Node1 -->
<g id="edge2" class="edge"><title>Node0&#45;&gt;Node1</title>
<path fill="none" stroke="midnightblue" d="M53.9517,-222.981C61.9694,-269.428 84.007,-365.422 136,-427 138.877,-430.407 142.2,-433.542 145.767,-436.409"/>
<polygon fill="midnightblue" stroke="midnightblue" points="57.3984,-222.37 52.3258,-213.069 50.4907,-223.503 57.3984,-222.37"/>
</g>
<!-- Node4 -->
<g id="node9" class="node"><title>Node4</title>
<a xlink:href="structant_1_1analysis_1_1utils_1_1_uncertainty_models_1_1_fitter_sergey.html" target="_top" xlink:title="Uncertainties from Sergey&#39;s fitter. ">
<polygon fill="white" stroke="black" points="138,-370.5 138,-417.5 248,-417.5 248,-370.5 138,-370.5"/>
<text text-anchor="start" x="146" y="-404.5" font-family="Helvetica,sans-Serif" font-size="10.00">ant::analysis::utils</text>
<text text-anchor="start" x="146" y="-391.5" font-family="Helvetica,sans-Serif" font-size="10.00">::UncertaintyModels::</text>
<text text-anchor="middle" x="193" y="-378.5" font-family="Helvetica,sans-Serif" font-size="10.00">FitterSergey</text>
</a>
</g>
<!-- Node0&#45;&gt;Node4 -->
<g id="edge8" class="edge"><title>Node0&#45;&gt;Node4</title>
<path fill="none" stroke="midnightblue" d="M58.6976,-222.985C71.1571,-258.223 96.9781,-320.209 136,-361 139.241,-364.388 142.906,-367.537 146.775,-370.437"/>
<polygon fill="midnightblue" stroke="midnightblue" points="61.9567,-221.699 55.3987,-213.378 55.3362,-223.973 61.9567,-221.699"/>
</g>
<!-- Node5 -->
<g id="node11" class="node"><title>Node5</title>
<a xlink:href="structant_1_1analysis_1_1utils_1_1_uncertainty_models_1_1_interpolated.html" target="_top" xlink:title="Uncertainties with interpolated surfaces in (E,theta) plane, determined with iterative procedure...">
<polygon fill="white" stroke="black" points="138,-304.5 138,-351.5 248,-351.5 248,-304.5 138,-304.5"/>
<text text-anchor="start" x="146" y="-338.5" font-family="Helvetica,sans-Serif" font-size="10.00">ant::analysis::utils</text>
<text text-anchor="start" x="146" y="-325.5" font-family="Helvetica,sans-Serif" font-size="10.00">::UncertaintyModels::</text>
<text text-anchor="middle" x="193" y="-312.5" font-family="Helvetica,sans-Serif" font-size="10.00">Interpolated</text>
</a>
</g>
<!-- Node0&#45;&gt;Node5 -->
<g id="edge10" class="edge"><title>Node0&#45;&gt;Node5</title>
<path fill="none" stroke="midnightblue" d="M68.3835,-221.556C84.5683,-242.887 109.614,-273.215 136,-295 139.968,-298.276 144.302,-301.42 148.751,-304.377"/>
<polygon fill="midnightblue" stroke="midnightblue" points="71.005,-219.217 62.218,-213.297 65.3956,-223.404 71.005,-219.217"/>
</g>
<!-- Node6 -->
<g id="node13" class="node"><title>Node6</title>
<a xlink:href="classant_1_1analysis_1_1utils_1_1_uncertainty_models_1_1_m_c_extracted.html" target="_top" xlink:title="Kin fitter uncertainties, uses histograms. Energy dependent values for each detector element...">
<polygon fill="white" stroke="black" points="138,-238.5 138,-285.5 248,-285.5 248,-238.5 138,-238.5"/>
<text text-anchor="start" x="146" y="-272.5" font-family="Helvetica,sans-Serif" font-size="10.00">ant::analysis::utils</text>
<text text-anchor="start" x="146" y="-259.5" font-family="Helvetica,sans-Serif" font-size="10.00">::UncertaintyModels::</text>
<text text-anchor="middle" x="193" y="-246.5" font-family="Helvetica,sans-Serif" font-size="10.00">MCExtracted</text>
</a>
</g>
<!-- Node0&#45;&gt;Node6 -->
<g id="edge12" class="edge"><title>Node0&#45;&gt;Node6</title>
<path fill="none" stroke="midnightblue" d="M96.4969,-217.46C111.039,-224.172 127.159,-231.612 141.994,-238.459"/>
<polygon fill="midnightblue" stroke="midnightblue" points="97.7446,-214.181 87.1983,-213.168 94.8111,-220.537 97.7446,-214.181"/>
</g>
<!-- Node7 -->
<g id="node15" class="node"><title>Node7</title>
<a xlink:href="structant_1_1analysis_1_1utils_1_1_uncertainty_models_1_1_m_c_smearing_adlarson.html" target="_top" xlink:title="Uncertainties from Patrik Adlarson for MC Smearing. ">
<polygon fill="white" stroke="black" points="137,-172.5 137,-219.5 249,-219.5 249,-172.5 137,-172.5"/>
<text text-anchor="start" x="145" y="-206.5" font-family="Helvetica,sans-Serif" font-size="10.00">ant::analysis::utils</text>
<text text-anchor="start" x="145" y="-193.5" font-family="Helvetica,sans-Serif" font-size="10.00">::UncertaintyModels::</text>
<text text-anchor="middle" x="193" y="-180.5" font-family="Helvetica,sans-Serif" font-size="10.00">MCSmearingAdlarson</text>
</a>
</g>
<!-- Node0&#45;&gt;Node7 -->
<g id="edge14" class="edge"><title>Node0&#45;&gt;Node7</title>
<path fill="none" stroke="midnightblue" d="M109.867,-196C118.725,-196 127.829,-196 136.614,-196"/>
<polygon fill="midnightblue" stroke="midnightblue" points="109.613,-192.5 99.6131,-196 109.613,-199.5 109.613,-192.5"/>
</g>
<!-- Node8 -->
<g id="node17" class="node"><title>Node8</title>
<a xlink:href="structant_1_1analysis_1_1utils_1_1_uncertainty_models_1_1_measured_proton.html" target="_top" xlink:title="ant::analysis::utils\l::UncertaintyModels::\lMeasuredProton">
<polygon fill="white" stroke="black" points="138,-106.5 138,-153.5 248,-153.5 248,-106.5 138,-106.5"/>
<text text-anchor="start" x="146" y="-140.5" font-family="Helvetica,sans-Serif" font-size="10.00">ant::analysis::utils</text>
<text text-anchor="start" x="146" y="-127.5" font-family="Helvetica,sans-Serif" font-size="10.00">::UncertaintyModels::</text>
<text text-anchor="middle" x="193" y="-114.5" font-family="Helvetica,sans-Serif" font-size="10.00">MeasuredProton</text>
</a>
</g>
<!-- Node0&#45;&gt;Node8 -->
<g id="edge16" class="edge"><title>Node0&#45;&gt;Node8</title>
<path fill="none" stroke="midnightblue" d="M96.4969,-174.54C111.039,-167.828 127.159,-160.388 141.994,-153.541"/>
<polygon fill="midnightblue" stroke="midnightblue" points="94.8111,-171.463 87.1983,-178.832 97.7446,-177.819 94.8111,-171.463"/>
</g>
<!-- Node9 -->
<g id="node19" class="node"><title>Node9</title>
<a xlink:href="structant_1_1analysis_1_1utils_1_1_uncertainty_models_1_1_optimized.html" target="_top" xlink:title="Optimized / adjusted to data uncertainty model: ">
<polygon fill="white" stroke="black" points="138,-40.5 138,-87.5 248,-87.5 248,-40.5 138,-40.5"/>
<text text-anchor="start" x="146" y="-74.5" font-family="Helvetica,sans-Serif" font-size="10.00">ant::analysis::utils</text>
<text text-anchor="start" x="146" y="-61.5" font-family="Helvetica,sans-Serif" font-size="10.00">::UncertaintyModels::</text>
<text text-anchor="middle" x="193" y="-48.5" font-family="Helvetica,sans-Serif" font-size="10.00">Optimized</text>
</a>
</g>
<!-- Node0&#45;&gt;Node9 -->
<g id="edge18" class="edge"><title>Node0&#45;&gt;Node9</title>
<path fill="none" stroke="midnightblue" d="M68.3835,-170.444C84.5683,-149.113 109.614,-118.785 136,-97 139.968,-93.724 144.302,-90.58 148.751,-87.6229"/>
<polygon fill="midnightblue" stroke="midnightblue" points="65.3956,-168.596 62.218,-178.703 71.005,-172.783 65.3956,-168.596"/>
</g>
<!-- Node11 -->
<g id="node23" class="node"><title>Node11</title>
<a xlink:href="struct_test_uncertainty_model.html" target="_top" xlink:title="TestUncertaintyModel">
<polygon fill="white" stroke="black" points="136.5,-0.5 136.5,-21.5 249.5,-21.5 249.5,-0.5 136.5,-0.5"/>
<text text-anchor="middle" x="193" y="-8.5" font-family="Helvetica,sans-Serif" font-size="10.00">TestUncertaintyModel</text>
</a>
</g>
<!-- Node0&#45;&gt;Node11 -->
<g id="edge22" class="edge"><title>Node0&#45;&gt;Node11</title>
<path fill="none" stroke="midnightblue" d="M55.5855,-169.02C65.7629,-130.626 90.5843,-61.3443 136,-22 136.159,-21.8627 136.318,-21.7263 136.479,-21.5908"/>
<polygon fill="midnightblue" stroke="midnightblue" points="52.1256,-168.43 53.0983,-178.98 58.917,-170.126 52.1256,-168.43"/>
</g>
<!-- Node0&#45;&gt;Node11 -->
<g id="edge24" class="edge"><title>Node0&#45;&gt;Node11</title>
<path fill="none" stroke="midnightblue" d="M59.3221,-168.91C71.2557,-134.276 95.3977,-75.1743 136,-40 146.78,-30.6611 162.193,-25.6002 174.274,-21.5583"/>
<polygon fill="midnightblue" stroke="midnightblue" points="55.8605,-168.225 56.0058,-178.819 62.4986,-170.447 55.8605,-168.225"/>
</g>
<!-- Node2 -->
<g id="node5" class="node"><title>Node2</title>
<a xlink:href="structant_1_1analysis_1_1utils_1_1_uncertainty_models_1_1_constant_relative_e.html" target="_top" xlink:title="Simple kin fitter uncertainty model. has a fixed value for {cb,taps}{photon,proton}{theta,phi}, Energies are relative values and get multipied with the particle energy on GetSigmas() ">
<polygon fill="white" stroke="black" points="290,-469.5 290,-516.5 400,-516.5 400,-469.5 290,-469.5"/>
<text text-anchor="start" x="298" y="-503.5" font-family="Helvetica,sans-Serif" font-size="10.00">ant::analysis::utils</text>
<text text-anchor="start" x="298" y="-490.5" font-family="Helvetica,sans-Serif" font-size="10.00">::UncertaintyModels::</text>
<text text-anchor="middle" x="345" y="-477.5" font-family="Helvetica,sans-Serif" font-size="10.00">ConstantRelativeE</text>
</a>
</g>
<!-- Node1&#45;&gt;Node2 -->
<g id="edge4" class="edge"><title>Node1&#45;&gt;Node2</title>
<path fill="none" stroke="midnightblue" d="M258.314,-474.18C268.871,-476.472 279.709,-478.825 289.99,-481.057"/>
<polygon fill="midnightblue" stroke="midnightblue" points="258.82,-470.708 248.305,-472.007 257.335,-477.549 258.82,-470.708"/>
</g>
<!-- Node3 -->
<g id="node7" class="node"><title>Node3</title>
<a xlink:href="structant_1_1analysis_1_1utils_1_1_uncertainty_models_1_1_constant_relative_epow.html" target="_top" xlink:title="ant::analysis::utils\l::UncertaintyModels::\lConstantRelativeEpow">
<polygon fill="white" stroke="black" points="286.5,-403.5 286.5,-450.5 403.5,-450.5 403.5,-403.5 286.5,-403.5"/>
<text text-anchor="start" x="294.5" y="-437.5" font-family="Helvetica,sans-Serif" font-size="10.00">ant::analysis::utils</text>
<text text-anchor="start" x="294.5" y="-424.5" font-family="Helvetica,sans-Serif" font-size="10.00">::UncertaintyModels::</text>
<text text-anchor="middle" x="345" y="-411.5" font-family="Helvetica,sans-Serif" font-size="10.00">ConstantRelativeEpow</text>
</a>
</g>
<!-- Node1&#45;&gt;Node3 -->
<g id="edge6" class="edge"><title>Node1&#45;&gt;Node3</title>
<path fill="none" stroke="midnightblue" d="M258.322,-445.818C267.658,-443.791 277.212,-441.717 286.408,-439.721"/>
<polygon fill="midnightblue" stroke="midnightblue" points="257.335,-442.451 248.305,-447.993 258.82,-449.292 257.335,-442.451"/>
</g>
<!-- Node10 -->
<g id="node21" class="node"><title>Node10</title>
<a xlink:href="structant_1_1analysis_1_1utils_1_1_uncertainty_models_1_1_optimized___oli1.html" target="_top" xlink:title="Values for the optimized model, obtainded from KinFitPi0 on data. ">
<polygon fill="white" stroke="black" points="290,-40.5 290,-87.5 400,-87.5 400,-40.5 290,-40.5"/>
<text text-anchor="start" x="298" y="-74.5" font-family="Helvetica,sans-Serif" font-size="10.00">ant::analysis::utils</text>
<text text-anchor="start" x="298" y="-61.5" font-family="Helvetica,sans-Serif" font-size="10.00">::UncertaintyModels::</text>
<text text-anchor="middle" x="345" y="-48.5" font-family="Helvetica,sans-Serif" font-size="10.00">Optimized_Oli1</text>
</a>
</g>
<!-- Node9&#45;&gt;Node10 -->
<g id="edge20" class="edge"><title>Node9&#45;&gt;Node10</title>
<path fill="none" stroke="midnightblue" d="M258.314,-64C268.871,-64 279.709,-64 289.99,-64"/>
<polygon fill="midnightblue" stroke="midnightblue" points="258.306,-60.5001 248.305,-64 258.305,-67.5001 258.306,-60.5001"/>
</g>
</g>
</svg>
