<?xml version="1.0" encoding="UTF-8" standalone="no"?>
<!DOCTYPE svg PUBLIC "-//W3C//DTD SVG 1.1//EN"
 "http://www.w3.org/Graphics/SVG/1.1/DTD/svg11.dtd">
<!-- Generated by graphviz version 2.26.3 (20100126.1600)
 -->
<!-- Title: ant::analysis::utils::MCSmear Pages: 1 -->
<svg width="150pt" height="116pt"
 viewBox="0.00 0.00 150.00 116.00" xmlns="http://www.w3.org/2000/svg" xmlns:xlink="http://www.w3.org/1999/xlink">
<g id="graph1" class="graph" transform="scale(1 1) rotate(0) translate(4 112)">
<title>ant::analysis::utils::MCSmear</title>
<polygon fill="white" stroke="white" points="-4,5 -4,-112 147,-112 147,5 -4,5"/>
<!-- Node1 -->
<g id="node1" class="node"><title>Node1</title>
<polygon fill="#bfbfbf" stroke="black" points="23,-1 23,-35 119,-35 119,-1 23,-1"/>
<text text-anchor="start" x="31" y="-22" font-family="Helvetica,sans-Serif" font-size="10.00">ant::analysis::utils</text>
<text text-anchor="middle" x="71" y="-9" font-family="Helvetica,sans-Serif" font-size="10.00">::MCSmear</text>
</g>
<!-- Node2 -->
<g id="node2" class="node"><title>Node2</title>
<polygon fill="white" stroke="#bfbfbf" points="0,-86.5 0,-107.5 142,-107.5 142,-86.5 0,-86.5"/>
<text text-anchor="middle" x="71" y="-94.5" font-family="Helvetica,sans-Serif" font-size="10.00">std::unique_ptr&lt; TRandom &gt;</text>
</g>
<!-- Node2&#45;&gt;Node1 -->
<g id="edge2" class="edge"><title>Node2&#45;&gt;Node1</title>
<path fill="none" stroke="#9a32cd" stroke-dasharray="5,2" d="M71,-76.1618C71,-63.3635 71,-47.1713 71,-35.1236"/>
<polygon fill="#9a32cd" stroke="#9a32cd" points="67.5001,-76.3457 71,-86.3457 74.5001,-76.3457 67.5001,-76.3457"/>
<text text-anchor="middle" x="79.5" y="-58.5" font-family="Helvetica,sans-Serif" font-size="10.00"> rng</text>
</g>
</g>
</svg>
