<?xml version="1.0" encoding="UTF-8" standalone="no"?>
<!DOCTYPE svg PUBLIC "-//W3C//DTD SVG 1.1//EN"
 "http://www.w3.org/Graphics/SVG/1.1/DTD/svg11.dtd">
<!-- Generated by graphviz version 2.26.3 (20100126.1600)
 -->
<!-- Title: ant::analysis::input::DataReader::Exception Pages: 1 -->
<svg width="132pt" height="160pt"
 viewBox="0.00 0.00 132.00 160.00" xmlns="http://www.w3.org/2000/svg" xmlns:xlink="http://www.w3.org/1999/xlink">
<g id="graph1" class="graph" transform="scale(1 1) rotate(0) translate(4 156)">
<title>ant::analysis::input::DataReader::Exception</title>
<polygon fill="white" stroke="white" points="-4,5 -4,-156 129,-156 129,5 -4,5"/>
<!-- Node0 -->
<g id="node1" class="node"><title>Node0</title>
<polygon fill="#bfbfbf" stroke="black" points="-0.5,-1 -0.5,-35 124.5,-35 124.5,-1 -0.5,-1"/>
<text text-anchor="start" x="7.5" y="-22" font-family="Helvetica,sans-Serif" font-size="10.00">ant::analysis::input</text>
<text text-anchor="middle" x="62" y="-9" font-family="Helvetica,sans-Serif" font-size="10.00">::DataReader::Exception</text>
</g>
<!-- Node1 -->
<g id="node2" class="node"><title>Node1</title>
<a xlink:title="STL class. ">
<polygon fill="white" stroke="#bfbfbf" points="15.5,-72.5 15.5,-93.5 108.5,-93.5 108.5,-72.5 15.5,-72.5"/>
<text text-anchor="middle" x="62" y="-80.5" font-family="Helvetica,sans-Serif" font-size="10.00">std::runtime_error</text>
</a>
</g>
<!-- Node1&#45;&gt;Node0 -->
<g id="edge2" class="edge"><title>Node1&#45;&gt;Node0</title>
<path fill="none" stroke="midnightblue" d="M62,-62.1306C62,-53.4049 62,-43.3908 62,-35.1099"/>
<polygon fill="midnightblue" stroke="midnightblue" points="58.5001,-62.2665 62,-72.2666 65.5001,-62.2666 58.5001,-62.2665"/>
</g>
<!-- Node2 -->
<g id="node4" class="node"><title>Node2</title>
<a xlink:title="STL class. ">
<polygon fill="white" stroke="#bfbfbf" points="23,-130.5 23,-151.5 101,-151.5 101,-130.5 23,-130.5"/>
<text text-anchor="middle" x="62" y="-138.5" font-family="Helvetica,sans-Serif" font-size="10.00">std::exception</text>
</a>
</g>
<!-- Node2&#45;&gt;Node1 -->
<g id="edge4" class="edge"><title>Node2&#45;&gt;Node1</title>
<path fill="none" stroke="midnightblue" d="M62,-120.191C62,-111.168 62,-100.994 62,-93.5707"/>
<polygon fill="midnightblue" stroke="midnightblue" points="58.5001,-120.362 62,-130.362 65.5001,-120.362 58.5001,-120.362"/>
</g>
</g>
</svg>
