<?xml version="1.0" encoding="UTF-8" standalone="no"?>
<!DOCTYPE svg PUBLIC "-//W3C//DTD SVG 1.1//EN"
 "http://www.w3.org/Graphics/SVG/1.1/DTD/svg11.dtd">
<!-- Generated by graphviz version 2.26.3 (20100126.1600)
 -->
<!-- Title: ant::calibration::gui::VerticalIndicatorLine Pages: 1 -->
<svg width="169pt" height="260pt"
 viewBox="0.00 0.00 169.00 260.00" xmlns="http://www.w3.org/2000/svg" xmlns:xlink="http://www.w3.org/1999/xlink">
<g id="graph1" class="graph" transform="scale(1 1) rotate(0) translate(4 256)">
<title>ant::calibration::gui::VerticalIndicatorLine</title>
<polygon fill="white" stroke="white" points="-4,5 -4,-256 166,-256 166,5 -4,5"/>
<!-- Node0 -->
<g id="node1" class="node"><title>Node0</title>
<polygon fill="#bfbfbf" stroke="black" points="7.5,-1 7.5,-35 118.5,-35 118.5,-1 7.5,-1"/>
<text text-anchor="start" x="15.5" y="-22" font-family="Helvetica,sans-Serif" font-size="10.00">ant::calibration::gui</text>
<text text-anchor="middle" x="63" y="-9" font-family="Helvetica,sans-Serif" font-size="10.00">::VerticalIndicatorLine</text>
</g>
<!-- Node1 -->
<g id="node2" class="node"><title>Node1</title>
<a xlink:href="classant_1_1calibration_1_1gui_1_1_indicator_line.html" target="_top" xlink:title="ant::calibration::gui\l::IndicatorLine">
<polygon fill="white" stroke="black" points="13.5,-73 13.5,-107 112.5,-107 112.5,-73 13.5,-73"/>
<text text-anchor="start" x="21.5" y="-94" font-family="Helvetica,sans-Serif" font-size="10.00">ant::calibration::gui</text>
<text text-anchor="middle" x="63" y="-81" font-family="Helvetica,sans-Serif" font-size="10.00">::IndicatorLine</text>
</a>
</g>
<!-- Node1&#45;&gt;Node0 -->
<g id="edge2" class="edge"><title>Node1&#45;&gt;Node0</title>
<path fill="none" stroke="midnightblue" d="M63,-62.7193C63,-53.572 63,-43.6255 63,-35.4407"/>
<polygon fill="midnightblue" stroke="midnightblue" points="59.5001,-62.937 63,-72.937 66.5001,-62.937 59.5001,-62.937"/>
</g>
<!-- Node2 -->
<g id="node4" class="node"><title>Node2</title>
<polygon fill="white" stroke="#bfbfbf" points="-0.5,-151.5 -0.5,-172.5 40.5,-172.5 40.5,-151.5 -0.5,-151.5"/>
<text text-anchor="middle" x="20" y="-159.5" font-family="Helvetica,sans-Serif" font-size="10.00">TLine</text>
</g>
<!-- Node2&#45;&gt;Node1 -->
<g id="edge4" class="edge"><title>Node2&#45;&gt;Node1</title>
<path fill="none" stroke="midnightblue" d="M31.655,-142.485C38.2583,-131.428 46.4416,-117.726 52.7909,-107.094"/>
<polygon fill="midnightblue" stroke="midnightblue" points="28.4674,-140.996 26.3448,-151.376 34.4772,-144.585 28.4674,-140.996"/>
</g>
<!-- Node3 -->
<g id="node6" class="node"><title>Node3</title>
<a xlink:href="classant_1_1calibration_1_1gui_1_1_indicator.html" target="_top" xlink:title="ant::calibration::gui\l::Indicator">
<polygon fill="white" stroke="black" points="57.5,-145 57.5,-179 156.5,-179 156.5,-145 57.5,-145"/>
<text text-anchor="start" x="65.5" y="-166" font-family="Helvetica,sans-Serif" font-size="10.00">ant::calibration::gui</text>
<text text-anchor="middle" x="107" y="-153" font-family="Helvetica,sans-Serif" font-size="10.00">::Indicator</text>
</a>
</g>
<!-- Node3&#45;&gt;Node1 -->
<g id="edge6" class="edge"><title>Node3&#45;&gt;Node1</title>
<path fill="none" stroke="midnightblue" d="M91.2353,-136.203C85.4023,-126.658 78.9318,-116.07 73.6582,-107.441"/>
<polygon fill="midnightblue" stroke="midnightblue" points="88.3716,-138.229 96.5726,-144.937 94.3446,-134.579 88.3716,-138.229"/>
</g>
<!-- Node4 -->
<g id="node8" class="node"><title>Node4</title>
<a xlink:href="classant_1_1calibration_1_1gui_1_1update__notify__traits.html" target="_top" xlink:title="ant::calibration::gui\l::update_notify_traits">
<polygon fill="white" stroke="black" points="53,-217 53,-251 161,-251 161,-217 53,-217"/>
<text text-anchor="start" x="61" y="-238" font-family="Helvetica,sans-Serif" font-size="10.00">ant::calibration::gui</text>
<text text-anchor="middle" x="107" y="-225" font-family="Helvetica,sans-Serif" font-size="10.00">::update_notify_traits</text>
</a>
</g>
<!-- Node4&#45;&gt;Node3 -->
<g id="edge8" class="edge"><title>Node4&#45;&gt;Node3</title>
<path fill="none" stroke="midnightblue" d="M107,-206.719C107,-197.572 107,-187.625 107,-179.441"/>
<polygon fill="midnightblue" stroke="midnightblue" points="103.5,-206.937 107,-216.937 110.5,-206.937 103.5,-206.937"/>
</g>
</g>
</svg>
