<?xml version="1.0" encoding="UTF-8" standalone="no"?>
<!DOCTYPE svg PUBLIC "-//W3C//DTD SVG 1.1//EN"
 "http://www.w3.org/Graphics/SVG/1.1/DTD/svg11.dtd">
<!-- Generated by graphviz version 2.26.3 (20100126.1600)
 -->
<!-- Title: ant::canvas Pages: 1 -->
<svg width="332pt" height="530pt"
 viewBox="0.00 0.00 332.00 530.00" xmlns="http://www.w3.org/2000/svg" xmlns:xlink="http://www.w3.org/1999/xlink">
<g id="graph1" class="graph" transform="scale(1 1) rotate(0) translate(4 526)">
<title>ant::canvas</title>
<polygon fill="white" stroke="white" points="-4,5 -4,-526 329,-526 329,5 -4,5"/>
<!-- Node2 -->
<g id="node1" class="node"><title>Node2</title>
<polygon fill="#bfbfbf" stroke="black" points="95,-0.5 95,-21.5 163,-21.5 163,-0.5 95,-0.5"/>
<text text-anchor="middle" x="129" y="-8.5" font-family="Helvetica,sans-Serif" font-size="10.00">ant::canvas</text>
</g>
<!-- Node3 -->
<g id="node2" class="node"><title>Node3</title>
<polygon fill="white" stroke="#bfbfbf" points="63.5,-275.5 63.5,-296.5 188.5,-296.5 188.5,-275.5 63.5,-275.5"/>
<text text-anchor="middle" x="126" y="-283.5" font-family="Helvetica,sans-Serif" font-size="10.00">std::list&lt; padmodifier_t &gt;</text>
</g>
<!-- Node3&#45;&gt;Node2 -->
<g id="edge2" class="edge"><title>Node3&#45;&gt;Node2</title>
<path fill="none" stroke="#9a32cd" stroke-dasharray="5,2" d="M126.23,-264.917C126.832,-209.762 128.437,-62.6475 128.883,-21.7058"/>
<polygon fill="#9a32cd" stroke="#9a32cd" points="122.727,-265.182 126.118,-275.22 129.727,-265.258 122.727,-265.182"/>
<text text-anchor="middle" x="172.5" y="-143" font-family="Helvetica,sans-Serif" font-size="10.00"> onetime_padoptions</text>
<text text-anchor="middle" x="172.5" y="-130" font-family="Helvetica,sans-Serif" font-size="10.00">global_padoptions</text>
</g>
<!-- Node5 -->
<g id="node6" class="node"><title>Node5</title>
<a xlink:href="structant_1_1canvas_1_1pad__t.html" target="_top" xlink:title="ant::canvas::pad_t">
<polygon fill="white" stroke="black" points="194,-170.5 194,-191.5 292,-191.5 292,-170.5 194,-170.5"/>
<text text-anchor="middle" x="243" y="-178.5" font-family="Helvetica,sans-Serif" font-size="10.00">ant::canvas::pad_t</text>
</a>
</g>
<!-- Node3&#45;&gt;Node5 -->
<g id="edge8" class="edge"><title>Node3&#45;&gt;Node5</title>
<path fill="none" stroke="#9a32cd" stroke-dasharray="5,2" d="M138.597,-266.964C150.235,-250.421 168.743,-226.574 189,-210 197.895,-202.722 208.895,-196.424 218.642,-191.573"/>
<polygon fill="#9a32cd" stroke="#9a32cd" points="135.642,-265.085 132.872,-275.311 141.415,-269.044 135.642,-265.085"/>
<text text-anchor="middle" x="216.5" y="-227.5" font-family="Helvetica,sans-Serif" font-size="10.00"> PadOptions</text>
</g>
<!-- Node4 -->
<g id="node4" class="node"><title>Node4</title>
<polygon fill="white" stroke="#bfbfbf" points="172.5,-73 172.5,-107 281.5,-107 281.5,-73 172.5,-73"/>
<text text-anchor="start" x="180.5" y="-94" font-family="Helvetica,sans-Serif" font-size="10.00">std::list&lt; ant::canvas</text>
<text text-anchor="middle" x="227" y="-81" font-family="Helvetica,sans-Serif" font-size="10.00">::pad_t &gt;</text>
</g>
<!-- Node4&#45;&gt;Node2 -->
<g id="edge4" class="edge"><title>Node4&#45;&gt;Node2</title>
<path fill="none" stroke="#9a32cd" stroke-dasharray="5,2" d="M197.861,-66.51C179.35,-51.5886 156.289,-32.9983 142.109,-21.5672"/>
<polygon fill="#9a32cd" stroke="#9a32cd" points="195.753,-69.3071 205.735,-72.8582 200.147,-63.8573 195.753,-69.3071"/>
<text text-anchor="middle" x="192.5" y="-44.5" font-family="Helvetica,sans-Serif" font-size="10.00"> pads</text>
</g>
<!-- Node5&#45;&gt;Node4 -->
<g id="edge6" class="edge"><title>Node5&#45;&gt;Node4</title>
<path fill="none" stroke="#9a32cd" stroke-dasharray="5,2" d="M239.346,-160.218C236.533,-144.219 232.691,-122.365 230.043,-107.309"/>
<polygon fill="#9a32cd" stroke="#9a32cd" points="235.923,-160.961 241.102,-170.204 242.817,-159.749 235.923,-160.961"/>
<text text-anchor="middle" x="258.5" y="-136.5" font-family="Helvetica,sans-Serif" font-size="10.00"> elements</text>
</g>
<!-- Node6 -->
<g id="node9" class="node"><title>Node6</title>
<polygon fill="white" stroke="#bfbfbf" points="205.5,-269 205.5,-303 314.5,-303 314.5,-269 205.5,-269"/>
<text text-anchor="start" x="213.5" y="-290" font-family="Helvetica,sans-Serif" font-size="10.00">std::list&lt; ant::canvas</text>
<text text-anchor="middle" x="260" y="-277" font-family="Helvetica,sans-Serif" font-size="10.00">::DrawableItem &gt;</text>
</g>
<!-- Node6&#45;&gt;Node5 -->
<g id="edge10" class="edge"><title>Node6&#45;&gt;Node5</title>
<path fill="none" stroke="#9a32cd" stroke-dasharray="5,2" d="M255.567,-258.62C252.022,-236.725 247.242,-207.202 244.722,-191.634"/>
<polygon fill="#9a32cd" stroke="#9a32cd" points="252.139,-259.349 257.193,-268.661 259.049,-258.231 252.139,-259.349"/>
<text text-anchor="middle" x="289" y="-227.5" font-family="Helvetica,sans-Serif" font-size="10.00"> DrawableItems</text>
</g>
<!-- Node7 -->
<g id="node11" class="node"><title>Node7</title>
<a xlink:href="structant_1_1canvas_1_1_drawable_item.html" target="_top" xlink:title="ant::canvas::DrawableItem">
<polygon fill="white" stroke="black" points="127,-354.5 127,-375.5 261,-375.5 261,-354.5 127,-354.5"/>
<text text-anchor="middle" x="194" y="-362.5" font-family="Helvetica,sans-Serif" font-size="10.00">ant::canvas::DrawableItem</text>
</a>
</g>
<!-- Node7&#45;&gt;Node6 -->
<g id="edge12" class="edge"><title>Node7&#45;&gt;Node6</title>
<path fill="none" stroke="#9a32cd" stroke-dasharray="5,2" d="M209.498,-346.45C220.449,-333.341 235.019,-315.901 245.694,-303.124"/>
<polygon fill="#9a32cd" stroke="#9a32cd" points="206.626,-344.427 202.901,-354.346 211.998,-348.915 206.626,-344.427"/>
<text text-anchor="middle" x="249.5" y="-326.5" font-family="Helvetica,sans-Serif" font-size="10.00"> elements</text>
</g>
<!-- Node8 -->
<g id="node13" class="node"><title>Node8</title>
<a xlink:title="STL class. ">
<polygon fill="white" stroke="#bfbfbf" points="17,-426.5 17,-447.5 77,-447.5 77,-426.5 17,-426.5"/>
<text text-anchor="middle" x="47" y="-434.5" font-family="Helvetica,sans-Serif" font-size="10.00">std::string</text>
</a>
</g>
<!-- Node8&#45;&gt;Node2 -->
<g id="edge18" class="edge"><title>Node8&#45;&gt;Node2</title>
<path fill="none" stroke="#9a32cd" stroke-dasharray="5,2" d="M39.9967,-416.676C35.6937,-402.399 31,-382.755 31,-365 31,-365 31,-365 31,-90 31,-55.362 68.5668,-33.3321 97.1822,-21.5759"/>
<polygon fill="#9a32cd" stroke="#9a32cd" points="36.7382,-417.977 43.1268,-426.429 43.4033,-415.838 36.7382,-417.977"/>
<text text-anchor="middle" x="72.5" y="-240.5" font-family="Helvetica,sans-Serif" font-size="10.00"> title</text>
<text text-anchor="middle" x="72.5" y="-227.5" font-family="Helvetica,sans-Serif" font-size="10.00">name</text>
<text text-anchor="middle" x="72.5" y="-214.5" font-family="Helvetica,sans-Serif" font-size="10.00">current_drawoption</text>
</g>
<!-- Node8&#45;&gt;Node7 -->
<g id="edge14" class="edge"><title>Node8&#45;&gt;Node7</title>
<path fill="none" stroke="#9a32cd" stroke-dasharray="5,2" d="M77.7387,-421.944C106.006,-408.099 147.212,-387.917 172.221,-375.667"/>
<polygon fill="#9a32cd" stroke="#9a32cd" points="76.1314,-418.834 68.6904,-426.376 79.2105,-425.121 76.1314,-418.834"/>
<text text-anchor="middle" x="149" y="-398.5" font-family="Helvetica,sans-Serif" font-size="10.00"> Option</text>
</g>
<!-- Node9 -->
<g id="node15" class="node"><title>Node9</title>
<a xlink:title="STL class. ">
<polygon fill="white" stroke="#bfbfbf" points="-0.5,-487 -0.5,-521 94.5,-521 94.5,-487 -0.5,-487"/>
<text text-anchor="start" x="7.5" y="-508" font-family="Helvetica,sans-Serif" font-size="10.00">std::basic_string&lt;</text>
<text text-anchor="middle" x="47" y="-495" font-family="Helvetica,sans-Serif" font-size="10.00"> char &gt;</text>
</a>
</g>
<!-- Node9&#45;&gt;Node8 -->
<g id="edge16" class="edge"><title>Node9&#45;&gt;Node8</title>
<path fill="none" stroke="midnightblue" d="M47,-476.534C47,-466.306 47,-455.301 47,-447.506"/>
<polygon fill="midnightblue" stroke="midnightblue" points="43.5001,-476.746 47,-486.746 50.5001,-476.746 43.5001,-476.746"/>
</g>
</g>
</svg>
