<?xml version="1.0" encoding="UTF-8" standalone="no"?>
<!DOCTYPE svg PUBLIC "-//W3C//DTD SVG 1.1//EN"
 "http://www.w3.org/Graphics/SVG/1.1/DTD/svg11.dtd">
<!-- Generated by graphviz version 2.26.3 (20100126.1600)
 -->
<!-- Title: InspectorCanvas Pages: 1 -->
<svg width="293pt" height="190pt"
 viewBox="0.00 0.00 293.00 190.00" xmlns="http://www.w3.org/2000/svg" xmlns:xlink="http://www.w3.org/1999/xlink">
<g id="graph1" class="graph" transform="scale(1 1) rotate(0) translate(4 186)">
<title>InspectorCanvas</title>
<polygon fill="white" stroke="white" points="-4,5 -4,-186 290,-186 290,5 -4,5"/>
<!-- Node2 -->
<g id="node1" class="node"><title>Node2</title>
<polygon fill="#bfbfbf" stroke="black" points="83.5,-0.5 83.5,-21.5 174.5,-21.5 174.5,-0.5 83.5,-0.5"/>
<text text-anchor="middle" x="129" y="-8.5" font-family="Helvetica,sans-Serif" font-size="10.00">InspectorCanvas</text>
</g>
<!-- Node3 -->
<g id="node2" class="node"><title>Node3</title>
<polygon fill="white" stroke="#bfbfbf" points="0,-79.5 0,-100.5 56,-100.5 56,-79.5 0,-79.5"/>
<text text-anchor="middle" x="28" y="-87.5" font-family="Helvetica,sans-Serif" font-size="10.00">TCanvas</text>
</g>
<!-- Node3&#45;&gt;Node2 -->
<g id="edge2" class="edge"><title>Node3&#45;&gt;Node2</title>
<path fill="none" stroke="midnightblue" d="M49.5274,-73.1617C69.4123,-57.6082 98.3542,-34.9705 115.272,-21.7378"/>
<polygon fill="midnightblue" stroke="midnightblue" points="47.3417,-70.4278 41.6213,-79.3457 51.6544,-75.9415 47.3417,-70.4278"/>
</g>
<!-- Node4 -->
<g id="node4" class="node"><title>Node4</title>
<polygon fill="white" stroke="#bfbfbf" points="74,-73 74,-107 184,-107 184,-73 74,-73"/>
<text text-anchor="start" x="82" y="-94" font-family="Helvetica,sans-Serif" font-size="10.00">std::list&lt; pair&lt; string,</text>
<text text-anchor="middle" x="129" y="-81" font-family="Helvetica,sans-Serif" font-size="10.00"> TDirectory *&gt; &gt;</text>
</g>
<!-- Node4&#45;&gt;Node2 -->
<g id="edge4" class="edge"><title>Node4&#45;&gt;Node2</title>
<path fill="none" stroke="#9a32cd" stroke-dasharray="5,2" d="M129,-62.6228C129,-48.4727 129,-32.0243 129,-21.5672"/>
<polygon fill="#9a32cd" stroke="#9a32cd" points="125.5,-62.8581 129,-72.8582 132.5,-62.8582 125.5,-62.8581"/>
<text text-anchor="middle" x="138.5" y="-44.5" font-family="Helvetica,sans-Serif" font-size="10.00"> dirs</text>
</g>
<!-- Node5 -->
<g id="node6" class="node"><title>Node5</title>
<a xlink:title="STL class. ">
<polygon fill="white" stroke="#bfbfbf" points="202,-79.5 202,-100.5 262,-100.5 262,-79.5 202,-79.5"/>
<text text-anchor="middle" x="232" y="-87.5" font-family="Helvetica,sans-Serif" font-size="10.00">std::string</text>
</a>
</g>
<!-- Node5&#45;&gt;Node2 -->
<g id="edge6" class="edge"><title>Node5&#45;&gt;Node2</title>
<path fill="none" stroke="#9a32cd" stroke-dasharray="5,2" d="M210.046,-73.1617C189.768,-57.6082 160.253,-34.9705 143,-21.7378"/>
<polygon fill="#9a32cd" stroke="#9a32cd" points="208.044,-76.0369 218.109,-79.3457 212.304,-70.4825 208.044,-76.0369"/>
<text text-anchor="middle" x="234" y="-44.5" font-family="Helvetica,sans-Serif" font-size="10.00"> histogram_base_name</text>
</g>
<!-- Node6 -->
<g id="node8" class="node"><title>Node6</title>
<a xlink:title="STL class. ">
<polygon fill="white" stroke="#bfbfbf" points="184.5,-147 184.5,-181 279.5,-181 279.5,-147 184.5,-147"/>
<text text-anchor="start" x="192.5" y="-168" font-family="Helvetica,sans-Serif" font-size="10.00">std::basic_string&lt;</text>
<text text-anchor="middle" x="232" y="-155" font-family="Helvetica,sans-Serif" font-size="10.00"> char &gt;</text>
</a>
</g>
<!-- Node6&#45;&gt;Node5 -->
<g id="edge8" class="edge"><title>Node6&#45;&gt;Node5</title>
<path fill="none" stroke="midnightblue" d="M232,-136.506C232,-124.13 232,-110.232 232,-100.879"/>
<polygon fill="midnightblue" stroke="midnightblue" points="228.5,-136.837 232,-146.837 235.5,-136.837 228.5,-136.837"/>
</g>
</g>
</svg>
