<?xml version="1.0" encoding="UTF-8" standalone="no"?>
<!DOCTYPE svg PUBLIC "-//W3C//DTD SVG 1.1//EN"
 "http://www.w3.org/Graphics/SVG/1.1/DTD/svg11.dtd">
<!-- Generated by graphviz version 2.26.3 (20100126.1600)
 -->
<!-- Title: ant::analysis::utils::CBTAPSBasicParticleID Pages: 1 -->
<svg width="181pt" height="216pt"
 viewBox="0.00 0.00 181.00 216.00" xmlns="http://www.w3.org/2000/svg" xmlns:xlink="http://www.w3.org/1999/xlink">
<g id="graph1" class="graph" transform="scale(1 1) rotate(0) translate(4 212)">
<title>ant::analysis::utils::CBTAPSBasicParticleID</title>
<polygon fill="white" stroke="white" points="-4,5 -4,-212 178,-212 178,5 -4,5"/>
<!-- Node2 -->
<g id="node1" class="node"><title>Node2</title>
<polygon fill="#bfbfbf" stroke="black" points="-0.5,-1 -0.5,-35 130.5,-35 130.5,-1 -0.5,-1"/>
<text text-anchor="start" x="7.5" y="-22" font-family="Helvetica,sans-Serif" font-size="10.00">ant::analysis::utils</text>
<text text-anchor="middle" x="65" y="-9" font-family="Helvetica,sans-Serif" font-size="10.00">::CBTAPSBasicParticleID</text>
</g>
<!-- Node3 -->
<g id="node2" class="node"><title>Node3</title>
<a xlink:href="classant_1_1analysis_1_1utils_1_1_particle_i_d.html" target="_top" xlink:title="ant::analysis::utils\l::ParticleID">
<polygon fill="white" stroke="black" points="26,-173 26,-207 122,-207 122,-173 26,-173"/>
<text text-anchor="start" x="34" y="-194" font-family="Helvetica,sans-Serif" font-size="10.00">ant::analysis::utils</text>
<text text-anchor="middle" x="74" y="-181" font-family="Helvetica,sans-Serif" font-size="10.00">::ParticleID</text>
</a>
</g>
<!-- Node3&#45;&gt;Node2 -->
<g id="edge2" class="edge"><title>Node3&#45;&gt;Node2</title>
<path fill="none" stroke="midnightblue" d="M70.637,-162.784C69.6276,-153.649 68.6239,-143.397 68,-134 65.6778,-99.0236 65.1264,-58.0041 65.0114,-35.3146"/>
<polygon fill="midnightblue" stroke="midnightblue" points="67.1782,-163.342 71.8022,-172.875 74.1319,-162.539 67.1782,-163.342"/>
</g>
<!-- Node4 -->
<g id="node4" class="node"><title>Node4</title>
<a xlink:href="classant_1_1analysis_1_1utils_1_1_basic_particle_i_d.html" target="_top" xlink:title="ant::analysis::utils\l::BasicParticleID">
<polygon fill="white" stroke="black" points="77,-99 77,-133 173,-133 173,-99 77,-99"/>
<text text-anchor="start" x="85" y="-120" font-family="Helvetica,sans-Serif" font-size="10.00">ant::analysis::utils</text>
<text text-anchor="middle" x="125" y="-107" font-family="Helvetica,sans-Serif" font-size="10.00">::BasicParticleID</text>
</a>
</g>
<!-- Node3&#45;&gt;Node4 -->
<g id="edge6" class="edge"><title>Node3&#45;&gt;Node4</title>
<path fill="none" stroke="midnightblue" d="M91.5669,-164.511C98.7252,-154.124 106.81,-142.394 113.236,-133.07"/>
<polygon fill="midnightblue" stroke="midnightblue" points="88.6215,-162.617 85.8286,-172.837 94.3853,-166.589 88.6215,-162.617"/>
</g>
<!-- Node4&#45;&gt;Node2 -->
<g id="edge4" class="edge"><title>Node4&#45;&gt;Node2</title>
<path fill="none" stroke="#9a32cd" stroke-dasharray="5,2" d="M109.308,-90.3702C98.6632,-72.9832 84.8794,-50.4697 75.5328,-35.2035"/>
<polygon fill="#9a32cd" stroke="#9a32cd" points="106.342,-92.2287 114.549,-98.9297 112.312,-88.5736 106.342,-92.2287"/>
<text text-anchor="middle" x="113" y="-71" font-family="Helvetica,sans-Serif" font-size="10.00"> taps</text>
<text text-anchor="middle" x="113" y="-58" font-family="Helvetica,sans-Serif" font-size="10.00">cb</text>
</g>
</g>
</svg>
