<?xml version="1.0" encoding="UTF-8" standalone="no"?>
<!DOCTYPE svg PUBLIC "-//W3C//DTD SVG 1.1//EN"
 "http://www.w3.org/Graphics/SVG/1.1/DTD/svg11.dtd">
<!-- Generated by graphviz version 2.26.3 (20100126.1600)
 -->
<!-- Title: ant::TFSum Pages: 1 -->
<svg width="210pt" height="116pt"
 viewBox="0.00 0.00 210.00 116.00" xmlns="http://www.w3.org/2000/svg" xmlns:xlink="http://www.w3.org/1999/xlink">
<g id="graph1" class="graph" transform="scale(1 1) rotate(0) translate(4 112)">
<title>ant::TFSum</title>
<polygon fill="white" stroke="white" points="-4,5 -4,-112 207,-112 207,5 -4,5"/>
<!-- Node2 -->
<g id="node1" class="node"><title>Node2</title>
<polygon fill="#bfbfbf" stroke="black" points="69,-0.5 69,-21.5 137,-21.5 137,-0.5 69,-0.5"/>
<text text-anchor="middle" x="103" y="-8.5" font-family="Helvetica,sans-Serif" font-size="10.00">ant::TFSum</text>
</g>
<!-- Node3 -->
<g id="node2" class="node"><title>Node3</title>
<a xlink:href="structant_1_1root__drawable__traits.html" target="_top" xlink:title="ant::root_drawable\l_traits">
<polygon fill="white" stroke="black" points="-0.5,-73 -0.5,-107 96.5,-107 96.5,-73 -0.5,-73"/>
<text text-anchor="start" x="7.5" y="-94" font-family="Helvetica,sans-Serif" font-size="10.00">ant::root_drawable</text>
<text text-anchor="middle" x="48" y="-81" font-family="Helvetica,sans-Serif" font-size="10.00">_traits</text>
</a>
</g>
<!-- Node3&#45;&gt;Node2 -->
<g id="edge2" class="edge"><title>Node3&#45;&gt;Node2</title>
<path fill="none" stroke="midnightblue" d="M65.9088,-64.2764C76.0068,-49.772 88.0773,-32.4344 95.6431,-21.5672"/>
<polygon fill="midnightblue" stroke="midnightblue" points="62.7755,-62.6514 59.9342,-72.8582 68.5203,-66.651 62.7755,-62.6514"/>
</g>
<!-- Node4 -->
<g id="node4" class="node"><title>Node4</title>
<polygon fill="white" stroke="#bfbfbf" points="114,-79.5 114,-100.5 202,-100.5 202,-79.5 114,-79.5"/>
<text text-anchor="middle" x="158" y="-87.5" font-family="Helvetica,sans-Serif" font-size="10.00">std::list&lt; TF1 *&gt;</text>
</g>
<!-- Node4&#45;&gt;Node2 -->
<g id="edge4" class="edge"><title>Node4&#45;&gt;Node2</title>
<path fill="none" stroke="#9a32cd" stroke-dasharray="5,2" d="M144.798,-71.0378C134.055,-55.6057 119.277,-34.3797 110.476,-21.7378"/>
<polygon fill="#9a32cd" stroke="#9a32cd" points="141.996,-73.1386 150.582,-79.3457 147.741,-69.139 141.996,-73.1386"/>
<text text-anchor="middle" x="153.5" y="-44.5" font-family="Helvetica,sans-Serif" font-size="10.00"> functions</text>
</g>
</g>
</svg>
