<?xml version="1.0" encoding="UTF-8" standalone="no"?>
<!DOCTYPE svg PUBLIC "-//W3C//DTD SVG 1.1//EN"
 "http://www.w3.org/Graphics/SVG/1.1/DTD/svg11.dtd">
<!-- Generated by graphviz version 2.26.3 (20100126.1600)
 -->
<!-- Title: ant::calibration::PID_Energy Pages: 1 -->
<svg width="762pt" height="167pt"
 viewBox="0.00 0.00 762.00 167.00" xmlns="http://www.w3.org/2000/svg" xmlns:xlink="http://www.w3.org/1999/xlink">
<g id="graph1" class="graph" transform="scale(1 1) rotate(0) translate(4 163)">
<title>ant::calibration::PID_Energy</title>
<polygon fill="white" stroke="white" points="-4,5 -4,-163 759,-163 759,5 -4,5"/>
<!-- Node0 -->
<g id="node1" class="node"><title>Node0</title>
<polygon fill="#bfbfbf" stroke="black" points="650,-23 650,-57 754,-57 754,-23 650,-23"/>
<text text-anchor="start" x="658" y="-44" font-family="Helvetica,sans-Serif" font-size="10.00">ant::calibration::PID</text>
<text text-anchor="middle" x="702" y="-31" font-family="Helvetica,sans-Serif" font-size="10.00">_Energy</text>
</g>
<!-- Node1 -->
<g id="node2" class="node"><title>Node1</title>
<a xlink:href="classant_1_1calibration_1_1_energy.html" target="_top" xlink:title="ant::calibration::Energy">
<polygon fill="white" stroke="black" points="496.5,-52.5 496.5,-73.5 613.5,-73.5 613.5,-52.5 496.5,-52.5"/>
<text text-anchor="middle" x="555" y="-60.5" font-family="Helvetica,sans-Serif" font-size="10.00">ant::calibration::Energy</text>
</a>
</g>
<!-- Node1&#45;&gt;Node0 -->
<g id="edge2" class="edge"><title>Node1&#45;&gt;Node0</title>
<path fill="none" stroke="midnightblue" d="M623.47,-52.287C632.343,-50.8987 641.315,-49.4949 649.865,-48.1572"/>
<polygon fill="midnightblue" stroke="midnightblue" points="622.859,-48.8399 613.521,-53.8437 623.942,-55.7557 622.859,-48.8399"/>
</g>
<!-- Node2 -->
<g id="node4" class="node"><title>Node2</title>
<a xlink:href="classant_1_1_calibration_1_1_module.html" target="_top" xlink:title="The Module class is typically used for calibrations. ">
<polygon fill="white" stroke="black" points="340,-97.5 340,-118.5 460,-118.5 460,-97.5 340,-97.5"/>
<text text-anchor="middle" x="400" y="-105.5" font-family="Helvetica,sans-Serif" font-size="10.00">ant::Calibration::Module</text>
</a>
</g>
<!-- Node2&#45;&gt;Node1 -->
<g id="edge4" class="edge"><title>Node2&#45;&gt;Node1</title>
<path fill="none" stroke="midnightblue" d="M445.975,-94.6523C469.177,-87.9162 496.924,-79.8608 518.619,-73.5623"/>
<polygon fill="midnightblue" stroke="midnightblue" points="444.968,-91.3001 436.341,-97.4495 446.92,-98.0225 444.968,-91.3001"/>
</g>
<!-- Node3 -->
<g id="node6" class="node"><title>Node3</title>
<a xlink:href="classant_1_1_calibration_1_1_physics_module.html" target="_top" xlink:title="The PhysicsModule class gives the modules the ability to create histograms from events as well as fit...">
<polygon fill="white" stroke="black" points="180,-125 180,-159 304,-159 304,-125 180,-125"/>
<text text-anchor="start" x="188" y="-146" font-family="Helvetica,sans-Serif" font-size="10.00">ant::Calibration::Physics</text>
<text text-anchor="middle" x="242" y="-133" font-family="Helvetica,sans-Serif" font-size="10.00">Module</text>
</a>
</g>
<!-- Node3&#45;&gt;Node2 -->
<g id="edge6" class="edge"><title>Node3&#45;&gt;Node2</title>
<path fill="none" stroke="midnightblue" d="M314.366,-126.427C326.825,-123.746 339.506,-121.018 351.157,-118.51"/>
<polygon fill="midnightblue" stroke="midnightblue" points="313.486,-123.037 304.446,-128.562 314.958,-129.88 313.486,-123.037"/>
</g>
<!-- Node4 -->
<g id="node8" class="node"><title>Node4</title>
<a xlink:href="classant_1_1_calibration_1_1_base_module.html" target="_top" xlink:title="The BaseModule class provides a name for identification. ">
<polygon fill="white" stroke="black" points="0.5,-131.5 0.5,-152.5 143.5,-152.5 143.5,-131.5 0.5,-131.5"/>
<text text-anchor="middle" x="72" y="-139.5" font-family="Helvetica,sans-Serif" font-size="10.00">ant::Calibration::BaseModule</text>
</a>
</g>
<!-- Node4&#45;&gt;Node3 -->
<g id="edge8" class="edge"><title>Node4&#45;&gt;Node3</title>
<path fill="none" stroke="midnightblue" d="M153.851,-142C162.617,-142 171.429,-142 179.911,-142"/>
<polygon fill="midnightblue" stroke="midnightblue" points="153.603,-138.5 143.603,-142 153.603,-145.5 153.603,-138.5"/>
</g>
<!-- Node5 -->
<g id="node10" class="node"><title>Node5</title>
<a xlink:href="structant_1_1_updateable__traits.html" target="_top" xlink:title="The Updateable_traits class used by the UpdateableManager. ">
<polygon fill="white" stroke="black" points="185.5,-85.5 185.5,-106.5 298.5,-106.5 298.5,-85.5 185.5,-85.5"/>
<text text-anchor="middle" x="242" y="-93.5" font-family="Helvetica,sans-Serif" font-size="10.00">ant::Updateable_traits</text>
</a>
</g>
<!-- Node5&#45;&gt;Node2 -->
<g id="edge10" class="edge"><title>Node5&#45;&gt;Node2</title>
<path fill="none" stroke="midnightblue" d="M308.772,-101.071C319.069,-101.853 329.651,-102.657 339.794,-103.427"/>
<polygon fill="midnightblue" stroke="midnightblue" points="308.832,-97.5658 298.595,-100.298 308.302,-104.546 308.832,-97.5658"/>
</g>
<!-- Node6 -->
<g id="node12" class="node"><title>Node6</title>
<a xlink:href="structant_1_1_reconstruct_hook_1_1_detector_read_hits.html" target="_top" xlink:title="The DetectorReadHits struct instances are applied before hit matching. ">
<polygon fill="white" stroke="black" points="343.5,-45 343.5,-79 456.5,-79 456.5,-45 343.5,-45"/>
<text text-anchor="start" x="351.5" y="-66" font-family="Helvetica,sans-Serif" font-size="10.00">ant::ReconstructHook</text>
<text text-anchor="middle" x="400" y="-53" font-family="Helvetica,sans-Serif" font-size="10.00">::DetectorReadHits</text>
</a>
</g>
<!-- Node6&#45;&gt;Node1 -->
<g id="edge12" class="edge"><title>Node6&#45;&gt;Node1</title>
<path fill="none" stroke="midnightblue" d="M466.93,-62.4318C476.721,-62.495 486.742,-62.5596 496.351,-62.6216"/>
<polygon fill="midnightblue" stroke="midnightblue" points="466.859,-58.9314 456.836,-62.3667 466.813,-65.9312 466.859,-58.9314"/>
</g>
<!-- Node7 -->
<g id="node14" class="node"><title>Node7</title>
<a xlink:href="structant_1_1_reconstruct_hook_1_1_base.html" target="_top" xlink:title="The Base struct just defines some useful types. ">
<polygon fill="white" stroke="black" points="185.5,-22 185.5,-56 298.5,-56 298.5,-22 185.5,-22"/>
<text text-anchor="start" x="193.5" y="-43" font-family="Helvetica,sans-Serif" font-size="10.00">ant::ReconstructHook</text>
<text text-anchor="middle" x="242" y="-30" font-family="Helvetica,sans-Serif" font-size="10.00">::Base</text>
</a>
</g>
<!-- Node7&#45;&gt;Node6 -->
<g id="edge14" class="edge"><title>Node7&#45;&gt;Node6</title>
<path fill="none" stroke="midnightblue" d="M308.61,-48.6963C320.14,-50.3748 332.032,-52.1059 343.269,-53.7417"/>
<polygon fill="midnightblue" stroke="midnightblue" points="308.995,-45.2157 298.595,-47.2386 307.987,-52.1427 308.995,-45.2157"/>
</g>
<!-- Node8 -->
<g id="node16" class="node"><title>Node8</title>
<a xlink:href="structant_1_1_reconstruct_hook_1_1_event_data.html" target="_top" xlink:title="The EventData struct instances are applied after candidate building. ">
<polygon fill="white" stroke="black" points="498.5,-0 498.5,-34 611.5,-34 611.5,-0 498.5,-0"/>
<text text-anchor="start" x="506.5" y="-21" font-family="Helvetica,sans-Serif" font-size="10.00">ant::ReconstructHook</text>
<text text-anchor="middle" x="555" y="-8" font-family="Helvetica,sans-Serif" font-size="10.00">::EventData</text>
</a>
</g>
<!-- Node7&#45;&gt;Node8 -->
<g id="edge18" class="edge"><title>Node7&#45;&gt;Node8</title>
<path fill="none" stroke="midnightblue" d="M308.934,-34.2954C365.362,-30.3292 445.209,-24.7169 498.476,-20.9729"/>
<polygon fill="midnightblue" stroke="midnightblue" points="308.412,-30.8233 298.682,-35.016 308.903,-37.8061 308.412,-30.8233"/>
</g>
<!-- Node8&#45;&gt;Node0 -->
<g id="edge16" class="edge"><title>Node8&#45;&gt;Node0</title>
<path fill="none" stroke="midnightblue" d="M621.862,-27.4615C631.183,-28.9197 640.646,-30.4005 649.648,-31.8088"/>
<polygon fill="midnightblue" stroke="midnightblue" points="622.255,-23.9804 611.834,-25.8924 621.173,-30.8962 622.255,-23.9804"/>
</g>
</g>
</svg>
