<?xml version="1.0" encoding="UTF-8" standalone="no"?>
<!DOCTYPE svg PUBLIC "-//W3C//DTD SVG 1.1//EN"
 "http://www.w3.org/Graphics/SVG/1.1/DTD/svg11.dtd">
<!-- Generated by graphviz version 2.26.3 (20100126.1600)
 -->
<!-- Title: ant::calibration::gui::FitGausPol1 Pages: 1 -->
<svg width="114pt" height="188pt"
 viewBox="0.00 0.00 114.00 188.00" xmlns="http://www.w3.org/2000/svg" xmlns:xlink="http://www.w3.org/1999/xlink">
<g id="graph1" class="graph" transform="scale(1 1) rotate(0) translate(4 184)">
<title>ant::calibration::gui::FitGausPol1</title>
<polygon fill="white" stroke="white" points="-4,5 -4,-184 111,-184 111,5 -4,5"/>
<!-- Node0 -->
<g id="node1" class="node"><title>Node0</title>
<polygon fill="#bfbfbf" stroke="black" points="3.5,-1 3.5,-35 102.5,-35 102.5,-1 3.5,-1"/>
<text text-anchor="start" x="11.5" y="-22" font-family="Helvetica,sans-Serif" font-size="10.00">ant::calibration::gui</text>
<text text-anchor="middle" x="53" y="-9" font-family="Helvetica,sans-Serif" font-size="10.00">::FitGausPol1</text>
</g>
<!-- Node1 -->
<g id="node2" class="node"><title>Node1</title>
<a xlink:href="classant_1_1calibration_1_1gui_1_1_peaking_fit_function.html" target="_top" xlink:title="Fit functions describing peak shapes, like Gaus or Lorentz with optional background function...">
<polygon fill="white" stroke="black" points="-0.5,-73 -0.5,-107 106.5,-107 106.5,-73 -0.5,-73"/>
<text text-anchor="start" x="7.5" y="-94" font-family="Helvetica,sans-Serif" font-size="10.00">ant::calibration::gui</text>
<text text-anchor="middle" x="53" y="-81" font-family="Helvetica,sans-Serif" font-size="10.00">::PeakingFitFunction</text>
</a>
</g>
<!-- Node1&#45;&gt;Node0 -->
<g id="edge2" class="edge"><title>Node1&#45;&gt;Node0</title>
<path fill="none" stroke="midnightblue" d="M53,-62.7193C53,-53.572 53,-43.6255 53,-35.4407"/>
<polygon fill="midnightblue" stroke="midnightblue" points="49.5001,-62.937 53,-72.937 56.5001,-62.937 49.5001,-62.937"/>
</g>
<!-- Node2 -->
<g id="node4" class="node"><title>Node2</title>
<a xlink:href="classant_1_1calibration_1_1gui_1_1_fit_function.html" target="_top" xlink:title="ant::calibration::gui\l::FitFunction">
<polygon fill="white" stroke="black" points="3.5,-145 3.5,-179 102.5,-179 102.5,-145 3.5,-145"/>
<text text-anchor="start" x="11.5" y="-166" font-family="Helvetica,sans-Serif" font-size="10.00">ant::calibration::gui</text>
<text text-anchor="middle" x="53" y="-153" font-family="Helvetica,sans-Serif" font-size="10.00">::FitFunction</text>
</a>
</g>
<!-- Node2&#45;&gt;Node1 -->
<g id="edge4" class="edge"><title>Node2&#45;&gt;Node1</title>
<path fill="none" stroke="midnightblue" d="M53,-134.719C53,-125.572 53,-115.625 53,-107.441"/>
<polygon fill="midnightblue" stroke="midnightblue" points="49.5001,-134.937 53,-144.937 56.5001,-134.937 49.5001,-134.937"/>
</g>
</g>
</svg>
