<?xml version="1.0" encoding="UTF-8" standalone="no"?>
<!DOCTYPE svg PUBLIC "-//W3C//DTD SVG 1.1//EN"
 "http://www.w3.org/Graphics/SVG/1.1/DTD/svg11.dtd">
<!-- Generated by graphviz version 2.26.3 (20100126.1600)
 -->
<!-- Title: ant::calibration::PID_PhiAngle Pages: 1 -->
<svg width="271pt" height="232pt"
 viewBox="0.00 0.00 271.00 232.00" xmlns="http://www.w3.org/2000/svg" xmlns:xlink="http://www.w3.org/1999/xlink">
<g id="graph1" class="graph" transform="scale(1 1) rotate(0) translate(4 228)">
<title>ant::calibration::PID_PhiAngle</title>
<polygon fill="white" stroke="white" points="-4,5 -4,-228 268,-228 268,5 -4,5"/>
<!-- Node5 -->
<g id="node1" class="node"><title>Node5</title>
<polygon fill="#bfbfbf" stroke="black" points="87,-1 87,-35 191,-35 191,-1 87,-1"/>
<text text-anchor="start" x="95" y="-22" font-family="Helvetica,sans-Serif" font-size="10.00">ant::calibration::PID</text>
<text text-anchor="middle" x="139" y="-9" font-family="Helvetica,sans-Serif" font-size="10.00">_PhiAngle</text>
</g>
<!-- Node6 -->
<g id="node2" class="node"><title>Node6</title>
<a xlink:href="classant_1_1_calibration_1_1_module.html" target="_top" xlink:title="The Module class is typically used for calibrations. ">
<polygon fill="white" stroke="black" points="79,-72.5 79,-93.5 199,-93.5 199,-72.5 79,-72.5"/>
<text text-anchor="middle" x="139" y="-80.5" font-family="Helvetica,sans-Serif" font-size="10.00">ant::Calibration::Module</text>
</a>
</g>
<!-- Node6&#45;&gt;Node5 -->
<g id="edge2" class="edge"><title>Node6&#45;&gt;Node5</title>
<path fill="none" stroke="midnightblue" d="M139,-62.1306C139,-53.4049 139,-43.3908 139,-35.1099"/>
<polygon fill="midnightblue" stroke="midnightblue" points="135.5,-62.2665 139,-72.2666 142.5,-62.2666 135.5,-62.2665"/>
</g>
<!-- Node7 -->
<g id="node4" class="node"><title>Node7</title>
<a xlink:href="classant_1_1_calibration_1_1_physics_module.html" target="_top" xlink:title="The PhysicsModule class gives the modules the ability to create histograms from events as well as fit...">
<polygon fill="white" stroke="black" points="9,-131 9,-165 133,-165 133,-131 9,-131"/>
<text text-anchor="start" x="17" y="-152" font-family="Helvetica,sans-Serif" font-size="10.00">ant::Calibration::Physics</text>
<text text-anchor="middle" x="71" y="-139" font-family="Helvetica,sans-Serif" font-size="10.00">Module</text>
</a>
</g>
<!-- Node7&#45;&gt;Node6 -->
<g id="edge4" class="edge"><title>Node7&#45;&gt;Node6</title>
<path fill="none" stroke="midnightblue" d="M96.0981,-124.009C106.929,-113.656 119.057,-102.063 127.647,-93.8521"/>
<polygon fill="midnightblue" stroke="midnightblue" points="93.6765,-121.482 88.8662,-130.922 98.5134,-126.542 93.6765,-121.482"/>
</g>
<!-- Node8 -->
<g id="node6" class="node"><title>Node8</title>
<a xlink:href="classant_1_1_calibration_1_1_base_module.html" target="_top" xlink:title="The BaseModule class provides a name for identification. ">
<polygon fill="white" stroke="black" points="-0.5,-202.5 -0.5,-223.5 142.5,-223.5 142.5,-202.5 -0.5,-202.5"/>
<text text-anchor="middle" x="71" y="-210.5" font-family="Helvetica,sans-Serif" font-size="10.00">ant::Calibration::BaseModule</text>
</a>
</g>
<!-- Node8&#45;&gt;Node7 -->
<g id="edge6" class="edge"><title>Node8&#45;&gt;Node7</title>
<path fill="none" stroke="midnightblue" d="M71,-192.131C71,-183.405 71,-173.391 71,-165.11"/>
<polygon fill="midnightblue" stroke="midnightblue" points="67.5001,-192.267 71,-202.267 74.5001,-192.267 67.5001,-192.267"/>
</g>
<!-- Node9 -->
<g id="node8" class="node"><title>Node9</title>
<a xlink:href="structant_1_1_updateable__traits.html" target="_top" xlink:title="The Updateable_traits class used by the UpdateableManager. ">
<polygon fill="white" stroke="black" points="150.5,-137.5 150.5,-158.5 263.5,-158.5 263.5,-137.5 150.5,-137.5"/>
<text text-anchor="middle" x="207" y="-145.5" font-family="Helvetica,sans-Serif" font-size="10.00">ant::Updateable_traits</text>
</a>
</g>
<!-- Node9&#45;&gt;Node6 -->
<g id="edge8" class="edge"><title>Node9&#45;&gt;Node6</title>
<path fill="none" stroke="midnightblue" d="M188.273,-130.099C175.988,-118.357 160.346,-103.404 150.02,-93.5337"/>
<polygon fill="midnightblue" stroke="midnightblue" points="186.124,-132.887 195.771,-137.267 190.961,-127.827 186.124,-132.887"/>
</g>
</g>
</svg>
