<?xml version="1.0" encoding="UTF-8" standalone="no"?>
<!DOCTYPE svg PUBLIC "-//W3C//DTD SVG 1.1//EN"
 "http://www.w3.org/Graphics/SVG/1.1/DTD/svg11.dtd">
<!-- Generated by graphviz version 2.26.3 (20100126.1600)
 -->
<!-- Title: ant::analysis::physics::PID_PhiAngle Pages: 1 -->
<svg width="257pt" height="202pt"
 viewBox="0.00 0.00 257.00 202.00" xmlns="http://www.w3.org/2000/svg" xmlns:xlink="http://www.w3.org/1999/xlink">
<g id="graph1" class="graph" transform="scale(1 1) rotate(0) translate(4 198)">
<title>ant::analysis::physics::PID_PhiAngle</title>
<polygon fill="white" stroke="white" points="-4,5 -4,-198 254,-198 254,5 -4,5"/>
<!-- Node2 -->
<g id="node1" class="node"><title>Node2</title>
<polygon fill="#bfbfbf" stroke="black" points="103,-1 103,-35 215,-35 215,-1 103,-1"/>
<text text-anchor="start" x="111" y="-22" font-family="Helvetica,sans-Serif" font-size="10.00">ant::analysis::physics</text>
<text text-anchor="middle" x="159" y="-9" font-family="Helvetica,sans-Serif" font-size="10.00">::PID_PhiAngle</text>
</g>
<!-- Node3 -->
<g id="node2" class="node"><title>Node3</title>
<a xlink:href="classant_1_1analysis_1_1_physics.html" target="_top" xlink:title="ant::analysis::Physics">
<polygon fill="white" stroke="black" points="4.5,-86.5 4.5,-107.5 117.5,-107.5 117.5,-86.5 4.5,-86.5"/>
<text text-anchor="middle" x="61" y="-94.5" font-family="Helvetica,sans-Serif" font-size="10.00">ant::analysis::Physics</text>
</a>
</g>
<!-- Node3&#45;&gt;Node2 -->
<g id="edge2" class="edge"><title>Node3&#45;&gt;Node2</title>
<path fill="none" stroke="midnightblue" d="M82.1774,-79.9284C98.616,-66.6769 121.303,-48.3883 137.758,-35.1236"/>
<polygon fill="midnightblue" stroke="midnightblue" points="79.8055,-77.3448 74.2167,-86.3457 84.1987,-82.7946 79.8055,-77.3448"/>
</g>
<!-- Node4 -->
<g id="node4" class="node"><title>Node4</title>
<a xlink:href="classant_1_1analysis_1_1_histogram_factory.html" target="_top" xlink:title="ant::analysis::Histogram\lFactory">
<polygon fill="white" stroke="black" points="-0.5,-159 -0.5,-193 122.5,-193 122.5,-159 -0.5,-159"/>
<text text-anchor="start" x="7.5" y="-180" font-family="Helvetica,sans-Serif" font-size="10.00">ant::analysis::Histogram</text>
<text text-anchor="middle" x="61" y="-167" font-family="Helvetica,sans-Serif" font-size="10.00">Factory</text>
</a>
</g>
<!-- Node4&#45;&gt;Node3 -->
<g id="edge4" class="edge"><title>Node4&#45;&gt;Node3</title>
<path fill="none" stroke="#9a32cd" stroke-dasharray="5,2" d="M61,-148.623C61,-134.473 61,-118.024 61,-107.567"/>
<polygon fill="#9a32cd" stroke="#9a32cd" points="57.5001,-148.858 61,-158.858 64.5001,-148.858 57.5001,-148.858"/>
<text text-anchor="middle" x="80" y="-130.5" font-family="Helvetica,sans-Serif" font-size="10.00"> HistFac</text>
</g>
<!-- Node5 -->
<g id="node6" class="node"><title>Node5</title>
<a xlink:href="classant_1_1interval.html" target="_top" xlink:title="ant::interval\&lt; double \&gt;">
<polygon fill="white" stroke="black" points="135,-86.5 135,-107.5 249,-107.5 249,-86.5 135,-86.5"/>
<text text-anchor="middle" x="192" y="-94.5" font-family="Helvetica,sans-Serif" font-size="10.00">ant::interval&lt; double &gt;</text>
</a>
</g>
<!-- Node5&#45;&gt;Node2 -->
<g id="edge6" class="edge"><title>Node5&#45;&gt;Node2</title>
<path fill="none" stroke="#9a32cd" stroke-dasharray="5,2" d="M183.618,-76.9332C178.223,-64.0194 171.287,-47.4147 166.153,-35.1236"/>
<polygon fill="#9a32cd" stroke="#9a32cd" points="180.465,-78.4675 187.549,-86.3457 186.925,-75.7693 180.465,-78.4675"/>
<text text-anchor="middle" x="206.5" y="-58.5" font-family="Helvetica,sans-Serif" font-size="10.00"> theta_range</text>
</g>
</g>
</svg>
