<?xml version="1.0" encoding="UTF-8" standalone="no"?>
<!DOCTYPE svg PUBLIC "-//W3C//DTD SVG 1.1//EN"
 "http://www.w3.org/Graphics/SVG/1.1/DTD/svg11.dtd">
<!-- Generated by graphviz version 2.26.3 (20100126.1600)
 -->
<!-- Title: ant::calibration::gui::KnobsTF1::FixedParameterKnob Pages: 1 -->
<svg width="172pt" height="116pt"
 viewBox="0.00 0.00 172.00 116.00" xmlns="http://www.w3.org/2000/svg" xmlns:xlink="http://www.w3.org/1999/xlink">
<g id="graph1" class="graph" transform="scale(1 1) rotate(0) translate(4 112)">
<title>ant::calibration::gui::KnobsTF1::FixedParameterKnob</title>
<polygon fill="white" stroke="white" points="-4,5 -4,-112 169,-112 169,5 -4,5"/>
<!-- Node0 -->
<g id="node1" class="node"><title>Node0</title>
<polygon fill="#bfbfbf" stroke="black" points="-0.5,-1 -0.5,-35 164.5,-35 164.5,-1 -0.5,-1"/>
<text text-anchor="start" x="7.5" y="-22" font-family="Helvetica,sans-Serif" font-size="10.00">ant::calibration::gui</text>
<text text-anchor="middle" x="82" y="-9" font-family="Helvetica,sans-Serif" font-size="10.00">::KnobsTF1::FixedParameterKnob</text>
</g>
<!-- Node1 -->
<g id="node2" class="node"><title>Node1</title>
<a xlink:href="classant_1_1calibration_1_1gui_1_1_indicator_knob.html" target="_top" xlink:title="ant::calibration::gui\l::IndicatorKnob">
<polygon fill="white" stroke="black" points="32.5,-73 32.5,-107 131.5,-107 131.5,-73 32.5,-73"/>
<text text-anchor="start" x="40.5" y="-94" font-family="Helvetica,sans-Serif" font-size="10.00">ant::calibration::gui</text>
<text text-anchor="middle" x="82" y="-81" font-family="Helvetica,sans-Serif" font-size="10.00">::IndicatorKnob</text>
</a>
</g>
<!-- Node1&#45;&gt;Node0 -->
<g id="edge2" class="edge"><title>Node1&#45;&gt;Node0</title>
<path fill="none" stroke="midnightblue" d="M82,-62.7193C82,-53.572 82,-43.6255 82,-35.4407"/>
<polygon fill="midnightblue" stroke="midnightblue" points="78.5001,-62.937 82,-72.937 85.5001,-62.937 78.5001,-62.937"/>
</g>
</g>
</svg>
