<?xml version="1.0" encoding="UTF-8" standalone="no"?>
<!DOCTYPE svg PUBLIC "-//W3C//DTD SVG 1.1//EN"
 "http://www.w3.org/Graphics/SVG/1.1/DTD/svg11.dtd">
<!-- Generated by graphviz version 2.26.3 (20100126.1600)
 -->
<!-- Title: ant::calibration::gui::AvgBuffer_Sum&lt; AvgBufferItem &gt; Pages: 1 -->
<svg width="538pt" height="160pt"
 viewBox="0.00 0.00 538.00 160.00" xmlns="http://www.w3.org/2000/svg" xmlns:xlink="http://www.w3.org/1999/xlink">
<g id="graph1" class="graph" transform="scale(1 1) rotate(0) translate(4 156)">
<title>ant::calibration::gui::AvgBuffer_Sum&lt; AvgBufferItem &gt;</title>
<polygon fill="white" stroke="white" points="-4,5 -4,-156 535,-156 535,5 -4,5"/>
<!-- Node2 -->
<g id="node1" class="node"><title>Node2</title>
<polygon fill="#bfbfbf" stroke="black" points="356.5,-52 356.5,-86 529.5,-86 529.5,-52 356.5,-52"/>
<text text-anchor="start" x="364.5" y="-73" font-family="Helvetica,sans-Serif" font-size="10.00">ant::calibration::gui</text>
<text text-anchor="middle" x="443" y="-60" font-family="Helvetica,sans-Serif" font-size="10.00">::AvgBuffer_Sum&lt; AvgBufferItem &gt;</text>
</g>
<!-- Node3 -->
<g id="node2" class="node"><title>Node3</title>
<a xlink:href="classant_1_1calibration_1_1gui_1_1_avg_buffer__traits.html" target="_top" xlink:title="ant::calibration::gui\l::AvgBuffer_traits\&lt; AvgBuffer\lItem \&gt;">
<polygon fill="white" stroke="black" points="118,-104.5 118,-151.5 264,-151.5 264,-104.5 118,-104.5"/>
<text text-anchor="start" x="126" y="-138.5" font-family="Helvetica,sans-Serif" font-size="10.00">ant::calibration::gui</text>
<text text-anchor="start" x="126" y="-125.5" font-family="Helvetica,sans-Serif" font-size="10.00">::AvgBuffer_traits&lt; AvgBuffer</text>
<text text-anchor="middle" x="191" y="-112.5" font-family="Helvetica,sans-Serif" font-size="10.00">Item &gt;</text>
</a>
</g>
<!-- Node3&#45;&gt;Node2 -->
<g id="edge2" class="edge"><title>Node3&#45;&gt;Node2</title>
<path fill="none" stroke="midnightblue" d="M274.137,-108.535C305.119,-101.282 340.025,-93.1092 370.026,-86.0852"/>
<polygon fill="midnightblue" stroke="midnightblue" points="273.166,-105.168 264.227,-110.856 274.762,-111.984 273.166,-105.168"/>
</g>
<!-- Node4 -->
<g id="node4" class="node"><title>Node4</title>
<polygon fill="white" stroke="#bfbfbf" points="124,-52 124,-86 258,-86 258,-52 124,-52"/>
<text text-anchor="start" x="132" y="-73" font-family="Helvetica,sans-Serif" font-size="10.00">std::unique_ptr&lt; AvgBuffer</text>
<text text-anchor="middle" x="191" y="-60" font-family="Helvetica,sans-Serif" font-size="10.00">Item &gt;</text>
</g>
<!-- Node4&#45;&gt;Node2 -->
<g id="edge4" class="edge"><title>Node4&#45;&gt;Node2</title>
<path fill="none" stroke="#9a32cd" stroke-dasharray="5,2" d="M268.25,-69C296.018,-69 327.522,-69 356.06,-69"/>
<polygon fill="#9a32cd" stroke="#9a32cd" points="268.2,-65.5001 258.2,-69 268.2,-72.5001 268.2,-65.5001"/>
<text text-anchor="middle" x="310" y="-73" font-family="Helvetica,sans-Serif" font-size="10.00"> m_totalsum</text>
</g>
<!-- Node5 -->
<g id="node6" class="node"><title>Node5</title>
<a xlink:href="classant_1_1interval.html" target="_top" xlink:title="ant::interval\&lt; ant\l::TID \&gt;">
<polygon fill="white" stroke="black" points="146,-0 146,-34 236,-34 236,-0 146,-0"/>
<text text-anchor="start" x="154" y="-21" font-family="Helvetica,sans-Serif" font-size="10.00">ant::interval&lt; ant</text>
<text text-anchor="middle" x="191" y="-8" font-family="Helvetica,sans-Serif" font-size="10.00">::TID &gt;</text>
</a>
</g>
<!-- Node5&#45;&gt;Node2 -->
<g id="edge6" class="edge"><title>Node5&#45;&gt;Node2</title>
<path fill="none" stroke="#9a32cd" stroke-dasharray="5,2" d="M246.1,-28.3699C279.555,-35.2732 322.895,-44.2165 360.394,-51.9544"/>
<polygon fill="#9a32cd" stroke="#9a32cd" points="246.554,-24.8898 236.053,-26.2966 245.139,-31.7453 246.554,-24.8898"/>
<text text-anchor="middle" x="310" y="-50" font-family="Helvetica,sans-Serif" font-size="10.00"> m_range</text>
</g>
<!-- Node6 -->
<g id="node8" class="node"><title>Node6</title>
<a xlink:href="structant_1_1_t_i_d.html" target="_top" xlink:title="ant::TID">
<polygon fill="white" stroke="black" points="0.5,-6.5 0.5,-27.5 53.5,-27.5 53.5,-6.5 0.5,-6.5"/>
<text text-anchor="middle" x="27" y="-14.5" font-family="Helvetica,sans-Serif" font-size="10.00">ant::TID</text>
</a>
</g>
<!-- Node6&#45;&gt;Node5 -->
<g id="edge8" class="edge"><title>Node6&#45;&gt;Node5</title>
<path fill="none" stroke="#9a32cd" stroke-dasharray="5,2" d="M63.9206,-17C88.1364,-17 119.962,-17 145.706,-17"/>
<polygon fill="#9a32cd" stroke="#9a32cd" points="63.7145,-13.5001 53.7144,-17 63.7144,-20.5001 63.7145,-13.5001"/>
<text text-anchor="middle" x="86" y="-34" font-family="Helvetica,sans-Serif" font-size="10.00"> _start</text>
<text text-anchor="middle" x="86" y="-21" font-family="Helvetica,sans-Serif" font-size="10.00">_stop</text>
</g>
</g>
</svg>
