<?xml version="1.0" encoding="UTF-8" standalone="no"?>
<!DOCTYPE svg PUBLIC "-//W3C//DTD SVG 1.1//EN"
 "http://www.w3.org/Graphics/SVG/1.1/DTD/svg11.dtd">
<!-- Generated by graphviz version 2.26.3 (20100126.1600)
 -->
<!-- Title: ant::calibration::gui::EditorWindow Pages: 1 -->
<svg width="212pt" height="116pt"
 viewBox="0.00 0.00 212.00 116.00" xmlns="http://www.w3.org/2000/svg" xmlns:xlink="http://www.w3.org/1999/xlink">
<g id="graph1" class="graph" transform="scale(1 1) rotate(0) translate(4 112)">
<title>ant::calibration::gui::EditorWindow</title>
<polygon fill="white" stroke="white" points="-4,5 -4,-112 209,-112 209,5 -4,5"/>
<!-- Node3 -->
<g id="node1" class="node"><title>Node3</title>
<polygon fill="#bfbfbf" stroke="black" points="44.5,-1 44.5,-35 143.5,-35 143.5,-1 44.5,-1"/>
<text text-anchor="start" x="52.5" y="-22" font-family="Helvetica,sans-Serif" font-size="10.00">ant::calibration::gui</text>
<text text-anchor="middle" x="94" y="-9" font-family="Helvetica,sans-Serif" font-size="10.00">::EditorWindow</text>
</g>
<!-- Node4 -->
<g id="node2" class="node"><title>Node4</title>
<polygon fill="white" stroke="#bfbfbf" points="-0.5,-79.5 -0.5,-100.5 78.5,-100.5 78.5,-79.5 -0.5,-79.5"/>
<text text-anchor="middle" x="39" y="-87.5" font-family="Helvetica,sans-Serif" font-size="10.00">TGMainFrame</text>
</g>
<!-- Node4&#45;&gt;Node3 -->
<g id="edge2" class="edge"><title>Node4&#45;&gt;Node3</title>
<path fill="none" stroke="midnightblue" d="M53.3982,-71.1514C61.9297,-59.9829 72.6566,-45.9404 80.9418,-35.0944"/>
<polygon fill="midnightblue" stroke="midnightblue" points="50.4045,-69.3048 47.1154,-79.3762 55.9672,-73.5541 50.4045,-69.3048"/>
</g>
<!-- Node5 -->
<g id="node4" class="node"><title>Node5</title>
<a xlink:href="classant_1_1calibration_1_1gui_1_1update__notify__traits.html" target="_top" xlink:title="ant::calibration::gui\l::update_notify_traits">
<polygon fill="white" stroke="black" points="96,-73 96,-107 204,-107 204,-73 96,-73"/>
<text text-anchor="start" x="104" y="-94" font-family="Helvetica,sans-Serif" font-size="10.00">ant::calibration::gui</text>
<text text-anchor="middle" x="150" y="-81" font-family="Helvetica,sans-Serif" font-size="10.00">::update_notify_traits</text>
</a>
</g>
<!-- Node5&#45;&gt;Node3 -->
<g id="edge4" class="edge"><title>Node5&#45;&gt;Node3</title>
<path fill="none" stroke="midnightblue" d="M130.394,-64.7923C122.852,-55.0958 114.415,-44.2482 107.565,-35.4407"/>
<polygon fill="midnightblue" stroke="midnightblue" points="127.827,-67.1923 136.729,-72.937 133.352,-62.8947 127.827,-67.1923"/>
</g>
</g>
</svg>
