<?xml version="1.0" encoding="UTF-8" standalone="no"?>
<!DOCTYPE svg PUBLIC "-//W3C//DTD SVG 1.1//EN"
 "http://www.w3.org/Graphics/SVG/1.1/DTD/svg11.dtd">
<!-- Generated by graphviz version 2.26.3 (20100126.1600)
 -->
<!-- Title: ant::analysis::physics::ParticleOverview Pages: 1 -->
<svg width="850pt" height="119pt"
 viewBox="0.00 0.00 850.00 119.00" xmlns="http://www.w3.org/2000/svg" xmlns:xlink="http://www.w3.org/1999/xlink">
<g id="graph1" class="graph" transform="scale(1 1) rotate(0) translate(4 115)">
<title>ant::analysis::physics::ParticleOverview</title>
<polygon fill="white" stroke="white" points="-4,5 -4,-115 847,-115 847,5 -4,5"/>
<!-- Node3 -->
<g id="node1" class="node"><title>Node3</title>
<polygon fill="#bfbfbf" stroke="black" points="730,-45 730,-79 842,-79 842,-45 730,-45"/>
<text text-anchor="start" x="738" y="-66" font-family="Helvetica,sans-Serif" font-size="10.00">ant::analysis::physics</text>
<text text-anchor="middle" x="786" y="-53" font-family="Helvetica,sans-Serif" font-size="10.00">::ParticleOverview</text>
</g>
<!-- Node4 -->
<g id="node2" class="node"><title>Node4</title>
<a xlink:href="classant_1_1analysis_1_1physics_1_1_data_overview_base.html" target="_top" xlink:title="Base class for DataOverview physics. ">
<polygon fill="white" stroke="black" points="546,-71 546,-105 658,-105 658,-71 546,-71"/>
<text text-anchor="start" x="554" y="-92" font-family="Helvetica,sans-Serif" font-size="10.00">ant::analysis::physics</text>
<text text-anchor="middle" x="602" y="-79" font-family="Helvetica,sans-Serif" font-size="10.00">::DataOverviewBase</text>
</a>
</g>
<!-- Node4&#45;&gt;Node3 -->
<g id="edge2" class="edge"><title>Node4&#45;&gt;Node3</title>
<path fill="none" stroke="midnightblue" d="M668.254,-78.6381C688.422,-75.7882 710.386,-72.6846 729.822,-69.9383"/>
<polygon fill="midnightblue" stroke="midnightblue" points="667.618,-75.1931 658.206,-80.0579 668.597,-82.1242 667.618,-75.1931"/>
</g>
<!-- Node5 -->
<g id="node4" class="node"><title>Node5</title>
<a xlink:href="classant_1_1analysis_1_1_physics.html" target="_top" xlink:title="ant::analysis::Physics">
<polygon fill="white" stroke="black" points="356.5,-83.5 356.5,-104.5 469.5,-104.5 469.5,-83.5 356.5,-83.5"/>
<text text-anchor="middle" x="413" y="-91.5" font-family="Helvetica,sans-Serif" font-size="10.00">ant::analysis::Physics</text>
</a>
</g>
<!-- Node5&#45;&gt;Node4 -->
<g id="edge4" class="edge"><title>Node5&#45;&gt;Node4</title>
<path fill="none" stroke="midnightblue" d="M479.807,-91.8791C501.447,-91.1921 525.212,-90.4377 545.985,-89.7783"/>
<polygon fill="midnightblue" stroke="midnightblue" points="479.59,-88.3842 469.706,-92.1998 479.812,-95.3806 479.59,-88.3842"/>
</g>
<!-- Node6 -->
<g id="node6" class="node"><title>Node6</title>
<a xlink:href="classant_1_1analysis_1_1_histogram_factory.html" target="_top" xlink:title="ant::analysis::Histogram\lFactory">
<polygon fill="white" stroke="black" points="134.5,-77 134.5,-111 257.5,-111 257.5,-77 134.5,-77"/>
<text text-anchor="start" x="142.5" y="-98" font-family="Helvetica,sans-Serif" font-size="10.00">ant::analysis::Histogram</text>
<text text-anchor="middle" x="196" y="-85" font-family="Helvetica,sans-Serif" font-size="10.00">Factory</text>
</a>
</g>
<!-- Node6&#45;&gt;Node5 -->
<g id="edge6" class="edge"><title>Node6&#45;&gt;Node5</title>
<path fill="none" stroke="#9a32cd" stroke-dasharray="5,2" d="M267.632,-94C296.495,-94 329.308,-94 356.446,-94"/>
<polygon fill="#9a32cd" stroke="#9a32cd" points="267.603,-90.5001 257.603,-94 267.603,-97.5001 267.603,-90.5001"/>
<text text-anchor="middle" x="302" y="-98" font-family="Helvetica,sans-Serif" font-size="10.00"> HistFac</text>
</g>
<!-- Node7 -->
<g id="node8" class="node"><title>Node7</title>
<polygon fill="white" stroke="#bfbfbf" points="542.5,-4.5 542.5,-51.5 661.5,-51.5 661.5,-4.5 542.5,-4.5"/>
<text text-anchor="start" x="550.5" y="-38.5" font-family="Helvetica,sans-Serif" font-size="10.00">std::map&lt; const ant</text>
<text text-anchor="start" x="550.5" y="-25.5" font-family="Helvetica,sans-Serif" font-size="10.00">::ParticleTypeDatabase</text>
<text text-anchor="middle" x="602" y="-12.5" font-family="Helvetica,sans-Serif" font-size="10.00">::Type *, TH1D *&gt;</text>
</g>
<!-- Node7&#45;&gt;Node3 -->
<g id="edge8" class="edge"><title>Node7&#45;&gt;Node3</title>
<path fill="none" stroke="#9a32cd" stroke-dasharray="5,2" d="M671.672,-40.8741C690.944,-44.4353 711.608,-48.2536 729.995,-51.6512"/>
<polygon fill="#9a32cd" stroke="#9a32cd" points="672.209,-37.4142 661.74,-39.0388 670.937,-44.2977 672.209,-37.4142"/>
<text text-anchor="middle" x="696" y="-52" font-family="Helvetica,sans-Serif" font-size="10.00"> nType</text>
</g>
<!-- Node8 -->
<g id="node10" class="node"><title>Node8</title>
<a xlink:href="classant_1_1_particle_type_database_1_1_type.html" target="_top" xlink:title="ant::ParticleTypeDatabase\l::Type">
<polygon fill="white" stroke="black" points="346.5,-0 346.5,-34 479.5,-34 479.5,-0 346.5,-0"/>
<text text-anchor="start" x="354.5" y="-21" font-family="Helvetica,sans-Serif" font-size="10.00">ant::ParticleTypeDatabase</text>
<text text-anchor="middle" x="413" y="-8" font-family="Helvetica,sans-Serif" font-size="10.00">::Type</text>
</a>
</g>
<!-- Node8&#45;&gt;Node7 -->
<g id="edge10" class="edge"><title>Node8&#45;&gt;Node7</title>
<path fill="none" stroke="#9a32cd" stroke-dasharray="5,2" d="M489.812,-21.4706C507.295,-22.4881 525.616,-23.5544 542.264,-24.5233"/>
<polygon fill="#9a32cd" stroke="#9a32cd" points="489.821,-17.9652 479.634,-20.8782 489.414,-24.9534 489.821,-17.9652"/>
<text text-anchor="middle" x="511" y="-27" font-family="Helvetica,sans-Serif" font-size="10.00"> keys</text>
</g>
<!-- Node8&#45;&gt;Node8 -->
<g id="edge16" class="edge"><title>Node8&#45;&gt;Node8</title>
<path fill="none" stroke="#9a32cd" stroke-dasharray="5,2" d="M395.933,-44.3176C398.33,-48.8645 404.019,-52 413,-52 427.738,-52 433.611,-43.5562 430.617,-34.2878"/>
<polygon fill="#9a32cd" stroke="#9a32cd" points="399.426,-44.081 395.383,-34.2878 392.436,-44.4645 399.426,-44.081"/>
<text text-anchor="middle" x="413" y="-56" font-family="Helvetica,sans-Serif" font-size="10.00"> sametype</text>
</g>
<!-- Node9 -->
<g id="node12" class="node"><title>Node9</title>
<a xlink:title="STL class. ">
<polygon fill="white" stroke="#bfbfbf" points="166,-6.5 166,-27.5 226,-27.5 226,-6.5 166,-6.5"/>
<text text-anchor="middle" x="196" y="-14.5" font-family="Helvetica,sans-Serif" font-size="10.00">std::string</text>
</a>
</g>
<!-- Node9&#45;&gt;Node8 -->
<g id="edge12" class="edge"><title>Node9&#45;&gt;Node8</title>
<path fill="none" stroke="#9a32cd" stroke-dasharray="5,2" d="M236.51,-17C267.263,-17 310.223,-17 346.057,-17"/>
<polygon fill="#9a32cd" stroke="#9a32cd" points="236.173,-13.5001 226.173,-17 236.173,-20.5001 236.173,-13.5001"/>
<text text-anchor="middle" x="302" y="-34" font-family="Helvetica,sans-Serif" font-size="10.00"> print_name</text>
<text text-anchor="middle" x="302" y="-21" font-family="Helvetica,sans-Serif" font-size="10.00">name</text>
</g>
<!-- Node10 -->
<g id="node14" class="node"><title>Node10</title>
<a xlink:title="STL class. ">
<polygon fill="white" stroke="#bfbfbf" points="0.5,-0 0.5,-34 95.5,-34 95.5,-0 0.5,-0"/>
<text text-anchor="start" x="8.5" y="-21" font-family="Helvetica,sans-Serif" font-size="10.00">std::basic_string&lt;</text>
<text text-anchor="middle" x="48" y="-8" font-family="Helvetica,sans-Serif" font-size="10.00"> char &gt;</text>
</a>
</g>
<!-- Node10&#45;&gt;Node9 -->
<g id="edge14" class="edge"><title>Node10&#45;&gt;Node9</title>
<path fill="none" stroke="midnightblue" d="M105.821,-17C126.259,-17 148.428,-17 165.67,-17"/>
<polygon fill="midnightblue" stroke="midnightblue" points="105.643,-13.5001 95.6428,-17 105.643,-20.5001 105.643,-13.5001"/>
</g>
</g>
</svg>
