<?xml version="1.0" encoding="UTF-8" standalone="no"?>
<!DOCTYPE svg PUBLIC "-//W3C//DTD SVG 1.1//EN"
 "http://www.w3.org/Graphics/SVG/1.1/DTD/svg11.dtd">
<!-- Generated by graphviz version 2.26.3 (20100126.1600)
 -->
<!-- Title: ant::analysis::physics::OmegaBase Pages: 1 -->
<svg width="250pt" height="174pt"
 viewBox="0.00 0.00 250.00 174.00" xmlns="http://www.w3.org/2000/svg" xmlns:xlink="http://www.w3.org/1999/xlink">
<g id="graph1" class="graph" transform="scale(1 1) rotate(0) translate(4 170)">
<title>ant::analysis::physics::OmegaBase</title>
<polygon fill="white" stroke="white" points="-4,5 -4,-170 247,-170 247,5 -4,5"/>
<!-- Node0 -->
<g id="node1" class="node"><title>Node0</title>
<polygon fill="#bfbfbf" stroke="black" points="65,-73 65,-107 177,-107 177,-73 65,-73"/>
<text text-anchor="start" x="73" y="-94" font-family="Helvetica,sans-Serif" font-size="10.00">ant::analysis::physics</text>
<text text-anchor="middle" x="121" y="-81" font-family="Helvetica,sans-Serif" font-size="10.00">::OmegaBase</text>
</g>
<!-- Node2 -->
<g id="node5" class="node"><title>Node2</title>
<a xlink:href="classant_1_1analysis_1_1physics_1_1_omega_eta_g2.html" target="_top" xlink:title="ant::analysis::physics\l::OmegaEtaG2">
<polygon fill="white" stroke="black" points="0,-1 0,-35 112,-35 112,-1 0,-1"/>
<text text-anchor="start" x="8" y="-22" font-family="Helvetica,sans-Serif" font-size="10.00">ant::analysis::physics</text>
<text text-anchor="middle" x="56" y="-9" font-family="Helvetica,sans-Serif" font-size="10.00">::OmegaEtaG2</text>
</a>
</g>
<!-- Node0&#45;&gt;Node2 -->
<g id="edge4" class="edge"><title>Node0&#45;&gt;Node2</title>
<path fill="none" stroke="midnightblue" d="M98.7723,-65.3785C89.8857,-55.5349 79.8569,-44.4262 71.7451,-35.4407"/>
<polygon fill="midnightblue" stroke="midnightblue" points="96.2969,-67.8597 105.596,-72.937 101.493,-63.1689 96.2969,-67.8597"/>
</g>
<!-- Node3 -->
<g id="node7" class="node"><title>Node3</title>
<a xlink:href="classant_1_1analysis_1_1physics_1_1_pi0_eta.html" target="_top" xlink:title="ant::analysis::physics\l::Pi0Eta">
<polygon fill="white" stroke="black" points="130,-1 130,-35 242,-35 242,-1 130,-1"/>
<text text-anchor="start" x="138" y="-22" font-family="Helvetica,sans-Serif" font-size="10.00">ant::analysis::physics</text>
<text text-anchor="middle" x="186" y="-9" font-family="Helvetica,sans-Serif" font-size="10.00">::Pi0Eta</text>
</a>
</g>
<!-- Node0&#45;&gt;Node3 -->
<g id="edge6" class="edge"><title>Node0&#45;&gt;Node3</title>
<path fill="none" stroke="midnightblue" d="M143.228,-65.3785C152.114,-55.5349 162.143,-44.4262 170.255,-35.4407"/>
<polygon fill="midnightblue" stroke="midnightblue" points="140.507,-63.1689 136.404,-72.937 145.703,-67.8597 140.507,-63.1689"/>
</g>
<!-- Node1 -->
<g id="node2" class="node"><title>Node1</title>
<a xlink:href="classant_1_1analysis_1_1_physics.html" target="_top" xlink:title="ant::analysis::Physics">
<polygon fill="white" stroke="black" points="64.5,-144.5 64.5,-165.5 177.5,-165.5 177.5,-144.5 64.5,-144.5"/>
<text text-anchor="middle" x="121" y="-152.5" font-family="Helvetica,sans-Serif" font-size="10.00">ant::analysis::Physics</text>
</a>
</g>
<!-- Node1&#45;&gt;Node0 -->
<g id="edge2" class="edge"><title>Node1&#45;&gt;Node0</title>
<path fill="none" stroke="midnightblue" d="M121,-134.131C121,-125.405 121,-115.391 121,-107.11"/>
<polygon fill="midnightblue" stroke="midnightblue" points="117.5,-134.267 121,-144.267 124.5,-134.267 117.5,-134.267"/>
</g>
</g>
</svg>
