<?xml version="1.0" encoding="UTF-8" standalone="no"?>
<!DOCTYPE svg PUBLIC "-//W3C//DTD SVG 1.1//EN"
 "http://www.w3.org/Graphics/SVG/1.1/DTD/svg11.dtd">
<!-- Generated by graphviz version 2.26.3 (20100126.1600)
 -->
<!-- Title: ant::calibration::gui::FitVetoBand Pages: 1 -->
<svg width="259pt" height="536pt"
 viewBox="0.00 0.00 259.00 536.00" xmlns="http://www.w3.org/2000/svg" xmlns:xlink="http://www.w3.org/1999/xlink">
<g id="graph1" class="graph" transform="scale(1 1) rotate(0) translate(4 532)">
<title>ant::calibration::gui::FitVetoBand</title>
<polygon fill="white" stroke="white" points="-4,5 -4,-532 256,-532 256,5 -4,5"/>
<!-- Node2 -->
<g id="node1" class="node"><title>Node2</title>
<polygon fill="#bfbfbf" stroke="black" points="11.5,-1 11.5,-35 110.5,-35 110.5,-1 11.5,-1"/>
<text text-anchor="start" x="19.5" y="-22" font-family="Helvetica,sans-Serif" font-size="10.00">ant::calibration::gui</text>
<text text-anchor="middle" x="61" y="-9" font-family="Helvetica,sans-Serif" font-size="10.00">::FitVetoBand</text>
</g>
<!-- Node3 -->
<g id="node2" class="node"><title>Node3</title>
<a xlink:href="classant_1_1calibration_1_1gui_1_1_fit_function.html" target="_top" xlink:title="ant::calibration::gui\l::FitFunction">
<polygon fill="white" stroke="black" points="11.5,-75 11.5,-109 110.5,-109 110.5,-75 11.5,-75"/>
<text text-anchor="start" x="19.5" y="-96" font-family="Helvetica,sans-Serif" font-size="10.00">ant::calibration::gui</text>
<text text-anchor="middle" x="61" y="-83" font-family="Helvetica,sans-Serif" font-size="10.00">::FitFunction</text>
</a>
</g>
<!-- Node3&#45;&gt;Node2 -->
<g id="edge2" class="edge"><title>Node3&#45;&gt;Node2</title>
<path fill="none" stroke="midnightblue" d="M61,-64.6275C61,-54.7253 61,-43.8344 61,-35.07"/>
<polygon fill="midnightblue" stroke="midnightblue" points="57.5001,-64.8369 61,-74.8369 64.5001,-64.8369 57.5001,-64.8369"/>
</g>
<!-- Node4 -->
<g id="node4" class="node"><title>Node4</title>
<polygon fill="white" stroke="#bfbfbf" points="73,-161 73,-195 193,-195 193,-161 73,-161"/>
<text text-anchor="start" x="81" y="-182" font-family="Helvetica,sans-Serif" font-size="10.00">std::list&lt; std::unique</text>
<text text-anchor="middle" x="133" y="-169" font-family="Helvetica,sans-Serif" font-size="10.00">_ptr&lt; IndicatorKnob &gt; &gt;</text>
</g>
<!-- Node4&#45;&gt;Node3 -->
<g id="edge4" class="edge"><title>Node4&#45;&gt;Node3</title>
<path fill="none" stroke="#9a32cd" stroke-dasharray="5,2" d="M111.847,-152.734C100.08,-138.679 85.7482,-121.56 75.3029,-109.084"/>
<polygon fill="#9a32cd" stroke="#9a32cd" points="109.327,-155.176 118.43,-160.597 114.694,-150.682 109.327,-155.176"/>
<text text-anchor="middle" x="116" y="-132.5" font-family="Helvetica,sans-Serif" font-size="10.00"> knobs</text>
</g>
<!-- Node5 -->
<g id="node6" class="node"><title>Node5</title>
<polygon fill="white" stroke="#bfbfbf" points="123,-247 123,-281 251,-281 251,-247 123,-247"/>
<text text-anchor="start" x="131" y="-268" font-family="Helvetica,sans-Serif" font-size="10.00">std::unique_ptr&lt; Indicator</text>
<text text-anchor="middle" x="187" y="-255" font-family="Helvetica,sans-Serif" font-size="10.00">Knob &gt;</text>
</g>
<!-- Node5&#45;&gt;Node4 -->
<g id="edge6" class="edge"><title>Node5&#45;&gt;Node4</title>
<path fill="none" stroke="#9a32cd" stroke-dasharray="5,2" d="M170.638,-237.943C161.909,-224.041 151.415,-207.327 143.727,-195.084"/>
<polygon fill="#9a32cd" stroke="#9a32cd" points="167.79,-239.989 176.072,-246.597 173.719,-236.266 167.79,-239.989"/>
<text text-anchor="middle" x="184.5" y="-218.5" font-family="Helvetica,sans-Serif" font-size="10.00"> elements</text>
</g>
<!-- Node6 -->
<g id="node8" class="node"><title>Node6</title>
<a xlink:href="classant_1_1calibration_1_1gui_1_1_indicator_knob.html" target="_top" xlink:title="ant::calibration::gui\l::IndicatorKnob">
<polygon fill="white" stroke="black" points="117.5,-333 117.5,-367 216.5,-367 216.5,-333 117.5,-333"/>
<text text-anchor="start" x="125.5" y="-354" font-family="Helvetica,sans-Serif" font-size="10.00">ant::calibration::gui</text>
<text text-anchor="middle" x="167" y="-341" font-family="Helvetica,sans-Serif" font-size="10.00">::IndicatorKnob</text>
</a>
</g>
<!-- Node6&#45;&gt;Node5 -->
<g id="edge8" class="edge"><title>Node6&#45;&gt;Node5</title>
<path fill="none" stroke="#9a32cd" stroke-dasharray="5,2" d="M173.339,-322.744C176.514,-309.09 180.261,-292.977 183.027,-281.084"/>
<polygon fill="#9a32cd" stroke="#9a32cd" points="169.903,-322.064 171.047,-332.597 176.722,-323.649 169.903,-322.064"/>
<text text-anchor="middle" x="185.5" y="-304.5" font-family="Helvetica,sans-Serif" font-size="10.00"> ptr</text>
</g>
<!-- Node7 -->
<g id="node10" class="node"><title>Node7</title>
<a xlink:title="STL class. ">
<polygon fill="white" stroke="#bfbfbf" points="17,-425.5 17,-446.5 77,-446.5 77,-425.5 17,-425.5"/>
<text text-anchor="middle" x="47" y="-433.5" font-family="Helvetica,sans-Serif" font-size="10.00">std::string</text>
</a>
</g>
<!-- Node7&#45;&gt;Node3 -->
<g id="edge16" class="edge"><title>Node7&#45;&gt;Node3</title>
<path fill="none" stroke="#9a32cd" stroke-dasharray="5,2" d="M39.5403,-415.766C33.8564,-398.53 27,-372.977 27,-350 27,-350 27,-350 27,-178 27,-152.633 39.9513,-125.819 49.8671,-109.007"/>
<polygon fill="#9a32cd" stroke="#9a32cd" points="36.2722,-417.024 42.856,-425.325 42.8857,-414.73 36.2722,-417.024"/>
<text text-anchor="middle" x="66" y="-261.5" font-family="Helvetica,sans-Serif" font-size="10.00"> AdditionalFitArgs</text>
</g>
<!-- Node7&#45;&gt;Node6 -->
<g id="edge10" class="edge"><title>Node7&#45;&gt;Node6</title>
<path fill="none" stroke="#9a32cd" stroke-dasharray="5,2" d="M70.0351,-419.491C90.9904,-404.474 121.802,-382.392 143.041,-367.171"/>
<polygon fill="#9a32cd" stroke="#9a32cd" points="67.8037,-416.785 61.7144,-425.455 71.8814,-422.474 67.8037,-416.785"/>
<text text-anchor="middle" x="128" y="-390.5" font-family="Helvetica,sans-Serif" font-size="10.00"> name</text>
</g>
<!-- Node8 -->
<g id="node12" class="node"><title>Node8</title>
<a xlink:title="STL class. ">
<polygon fill="white" stroke="#bfbfbf" points="-0.5,-493 -0.5,-527 94.5,-527 94.5,-493 -0.5,-493"/>
<text text-anchor="start" x="7.5" y="-514" font-family="Helvetica,sans-Serif" font-size="10.00">std::basic_string&lt;</text>
<text text-anchor="middle" x="47" y="-501" font-family="Helvetica,sans-Serif" font-size="10.00"> char &gt;</text>
</a>
</g>
<!-- Node8&#45;&gt;Node7 -->
<g id="edge12" class="edge"><title>Node8&#45;&gt;Node7</title>
<path fill="none" stroke="midnightblue" d="M47,-482.506C47,-470.13 47,-456.232 47,-446.879"/>
<polygon fill="midnightblue" stroke="midnightblue" points="43.5001,-482.837 47,-492.837 50.5001,-482.837 43.5001,-482.837"/>
</g>
<!-- Node9 -->
<g id="node14" class="node"><title>Node9</title>
<a xlink:href="structant_1_1calibration_1_1gui_1_1_indicator_properties.html" target="_top" xlink:title="ant::calibration::gui\l::IndicatorProperties">
<polygon fill="white" stroke="black" points="115,-419 115,-453 219,-453 219,-419 115,-419"/>
<text text-anchor="start" x="123" y="-440" font-family="Helvetica,sans-Serif" font-size="10.00">ant::calibration::gui</text>
<text text-anchor="middle" x="167" y="-427" font-family="Helvetica,sans-Serif" font-size="10.00">::IndicatorProperties</text>
</a>
</g>
<!-- Node9&#45;&gt;Node6 -->
<g id="edge14" class="edge"><title>Node9&#45;&gt;Node6</title>
<path fill="none" stroke="#9a32cd" stroke-dasharray="5,2" d="M167,-408.342C167,-394.774 167,-378.861 167,-367.084"/>
<polygon fill="#9a32cd" stroke="#9a32cd" points="163.5,-408.597 167,-418.597 170.5,-408.597 163.5,-408.597"/>
<text text-anchor="middle" x="175" y="-390.5" font-family="Helvetica,sans-Serif" font-size="10.00"> gui</text>
</g>
</g>
</svg>
