<?xml version="1.0" encoding="UTF-8" standalone="no"?>
<!DOCTYPE svg PUBLIC "-//W3C//DTD SVG 1.1//EN"
 "http://www.w3.org/Graphics/SVG/1.1/DTD/svg11.dtd">
<!-- Generated by graphviz version 2.26.3 (20100126.1600)
 -->
<!-- Title: ant::analysis::utils::scratch_collicott_CrossSection Pages: 1 -->
<svg width="554pt" height="214pt"
 viewBox="0.00 0.00 554.00 214.00" xmlns="http://www.w3.org/2000/svg" xmlns:xlink="http://www.w3.org/1999/xlink">
<g id="graph1" class="graph" transform="scale(1 1) rotate(0) translate(4 210)">
<title>ant::analysis::utils::scratch_collicott_CrossSection</title>
<polygon fill="white" stroke="white" points="-4,5 -4,-210 551,-210 551,5 -4,5"/>
<!-- Node1 -->
<g id="node1" class="node"><title>Node1</title>
<polygon fill="#bfbfbf" stroke="black" points="388,-72 388,-106 546,-106 546,-72 388,-72"/>
<text text-anchor="start" x="396" y="-93" font-family="Helvetica,sans-Serif" font-size="10.00">ant::analysis::utils</text>
<text text-anchor="middle" x="467" y="-80" font-family="Helvetica,sans-Serif" font-size="10.00">::scratch_collicott_CrossSection</text>
</g>
<!-- Node2 -->
<g id="node2" class="node"><title>Node2</title>
<a xlink:href="structant_1_1analysis_1_1utils_1_1scratch__collicott___cross_section_1_1_scalers__t.html" target="_top" xlink:title="ant::analysis::utils\l::scratch_collicott_CrossSection\l::Scalers_t">
<polygon fill="white" stroke="black" points="134,-158.5 134,-205.5 292,-205.5 292,-158.5 134,-158.5"/>
<text text-anchor="start" x="142" y="-192.5" font-family="Helvetica,sans-Serif" font-size="10.00">ant::analysis::utils</text>
<text text-anchor="start" x="142" y="-179.5" font-family="Helvetica,sans-Serif" font-size="10.00">::scratch_collicott_CrossSection</text>
<text text-anchor="middle" x="213" y="-166.5" font-family="Helvetica,sans-Serif" font-size="10.00">::Scalers_t</text>
</a>
</g>
<!-- Node2&#45;&gt;Node1 -->
<g id="edge2" class="edge"><title>Node2&#45;&gt;Node1</title>
<path fill="none" stroke="#9a32cd" stroke-dasharray="5,2" d="M287.009,-154.902C330.053,-139.142 382.995,-119.758 420.284,-106.105"/>
<polygon fill="#9a32cd" stroke="#9a32cd" points="285.61,-151.687 277.423,-158.412 288.017,-158.26 285.61,-151.687"/>
<text text-anchor="middle" x="340" y="-147" font-family="Helvetica,sans-Serif" font-size="10.00"> scalers</text>
</g>
<!-- Node3 -->
<g id="node4" class="node"><title>Node3</title>
<a xlink:href="classant_1_1_wrap_t_tree.html" target="_top" xlink:title="The WrapTTree struct simplifies TTree handling in physics classes. ">
<polygon fill="white" stroke="black" points="5.5,-127.5 5.5,-148.5 90.5,-148.5 90.5,-127.5 5.5,-127.5"/>
<text text-anchor="middle" x="48" y="-135.5" font-family="Helvetica,sans-Serif" font-size="10.00">ant::WrapTTree</text>
</a>
</g>
<!-- Node3&#45;&gt;Node2 -->
<g id="edge4" class="edge"><title>Node3&#45;&gt;Node2</title>
<path fill="none" stroke="midnightblue" d="M97.3721,-151.166C108.918,-154.245 121.502,-157.601 133.98,-160.928"/>
<polygon fill="midnightblue" stroke="midnightblue" points="98.0858,-147.734 87.5216,-148.539 96.2821,-154.498 98.0858,-147.734"/>
</g>
<!-- Node4 -->
<g id="node6" class="node"><title>Node4</title>
<a xlink:href="structant_1_1analysis_1_1utils_1_1scratch__collicott___cross_section_1_1_yield__t.html" target="_top" xlink:title="ant::analysis::utils\l::scratch_collicott_CrossSection\l::Yield_t">
<polygon fill="white" stroke="black" points="134,-92.5 134,-139.5 292,-139.5 292,-92.5 134,-92.5"/>
<text text-anchor="start" x="142" y="-126.5" font-family="Helvetica,sans-Serif" font-size="10.00">ant::analysis::utils</text>
<text text-anchor="start" x="142" y="-113.5" font-family="Helvetica,sans-Serif" font-size="10.00">::scratch_collicott_CrossSection</text>
<text text-anchor="middle" x="213" y="-100.5" font-family="Helvetica,sans-Serif" font-size="10.00">::Yield_t</text>
</a>
</g>
<!-- Node3&#45;&gt;Node4 -->
<g id="edge8" class="edge"><title>Node3&#45;&gt;Node4</title>
<path fill="none" stroke="midnightblue" d="M101.105,-130.919C111.56,-129.525 122.74,-128.035 133.84,-126.555"/>
<polygon fill="midnightblue" stroke="midnightblue" points="100.371,-127.486 90.9211,-132.277 101.296,-134.425 100.371,-127.486"/>
</g>
<!-- Node4&#45;&gt;Node1 -->
<g id="edge6" class="edge"><title>Node4&#45;&gt;Node1</title>
<path fill="none" stroke="#9a32cd" stroke-dasharray="5,2" d="M302.447,-106.492C330.282,-103.533 360.762,-100.293 387.843,-97.4144"/>
<polygon fill="#9a32cd" stroke="#9a32cd" points="301.896,-103.031 292.322,-107.568 302.636,-109.991 301.896,-103.031"/>
<text text-anchor="middle" x="340" y="-108" font-family="Helvetica,sans-Serif" font-size="10.00"> yield</text>
</g>
<!-- Node5 -->
<g id="node9" class="node"><title>Node5</title>
<a xlink:title="STL class. ">
<polygon fill="white" stroke="#bfbfbf" points="183,-52.5 183,-73.5 243,-73.5 243,-52.5 183,-52.5"/>
<text text-anchor="middle" x="213" y="-60.5" font-family="Helvetica,sans-Serif" font-size="10.00">std::string</text>
</a>
</g>
<!-- Node5&#45;&gt;Node1 -->
<g id="edge10" class="edge"><title>Node5&#45;&gt;Node1</title>
<path fill="none" stroke="#9a32cd" stroke-dasharray="5,2" d="M253.358,-65.7773C285.101,-68.098 330.424,-71.7123 370,-76 375.828,-76.6314 381.846,-77.3287 387.899,-78.0627"/>
<polygon fill="#9a32cd" stroke="#9a32cd" points="253.367,-62.2689 243.141,-65.0407 252.863,-69.2508 253.367,-62.2689"/>
<text text-anchor="middle" x="340" y="-80" font-family="Helvetica,sans-Serif" font-size="10.00"> event_decay</text>
</g>
<!-- Node6 -->
<g id="node11" class="node"><title>Node6</title>
<a xlink:title="STL class. ">
<polygon fill="white" stroke="#bfbfbf" points="0.5,-46 0.5,-80 95.5,-80 95.5,-46 0.5,-46"/>
<text text-anchor="start" x="8.5" y="-67" font-family="Helvetica,sans-Serif" font-size="10.00">std::basic_string&lt;</text>
<text text-anchor="middle" x="48" y="-54" font-family="Helvetica,sans-Serif" font-size="10.00"> char &gt;</text>
</a>
</g>
<!-- Node6&#45;&gt;Node5 -->
<g id="edge12" class="edge"><title>Node6&#45;&gt;Node5</title>
<path fill="none" stroke="midnightblue" d="M105.805,-63C131.656,-63 161.072,-63 182.541,-63"/>
<polygon fill="midnightblue" stroke="midnightblue" points="105.725,-59.5001 95.7248,-63 105.725,-66.5001 105.725,-59.5001"/>
</g>
<!-- Node7 -->
<g id="node13" class="node"><title>Node7</title>
<a xlink:href="classant_1_1analysis_1_1_histogram_factory.html" target="_top" xlink:title="ant::analysis::Histogram\lFactory">
<polygon fill="white" stroke="black" points="151.5,-0 151.5,-34 274.5,-34 274.5,-0 151.5,-0"/>
<text text-anchor="start" x="159.5" y="-21" font-family="Helvetica,sans-Serif" font-size="10.00">ant::analysis::Histogram</text>
<text text-anchor="middle" x="213" y="-8" font-family="Helvetica,sans-Serif" font-size="10.00">Factory</text>
</a>
</g>
<!-- Node7&#45;&gt;Node1 -->
<g id="edge14" class="edge"><title>Node7&#45;&gt;Node1</title>
<path fill="none" stroke="#9a32cd" stroke-dasharray="5,2" d="M284.743,-31.3933C311.681,-37.3347 342.44,-44.7641 370,-53 388.071,-58.4003 407.636,-65.4269 424.43,-71.8372"/>
<polygon fill="#9a32cd" stroke="#9a32cd" points="285.136,-27.897 274.621,-29.1905 283.648,-34.7369 285.136,-27.897"/>
<text text-anchor="middle" x="340" y="-57" font-family="Helvetica,sans-Serif" font-size="10.00"> HistFac</text>
</g>
</g>
</svg>
