<?xml version="1.0" encoding="UTF-8" standalone="no"?>
<!DOCTYPE svg PUBLIC "-//W3C//DTD SVG 1.1//EN"
 "http://www.w3.org/Graphics/SVG/1.1/DTD/svg11.dtd">
<!-- Generated by graphviz version 2.26.3 (20100126.1600)
 -->
<!-- Title: ant::analysis::physics::Pi0EtaLostG Pages: 1 -->
<svg width="818pt" height="230pt"
 viewBox="0.00 0.00 818.00 230.00" xmlns="http://www.w3.org/2000/svg" xmlns:xlink="http://www.w3.org/1999/xlink">
<g id="graph1" class="graph" transform="scale(1 1) rotate(0) translate(4 226)">
<title>ant::analysis::physics::Pi0EtaLostG</title>
<polygon fill="white" stroke="white" points="-4,5 -4,-226 815,-226 815,5 -4,5"/>
<!-- Node2 -->
<g id="node1" class="node"><title>Node2</title>
<polygon fill="#bfbfbf" stroke="black" points="698,-142 698,-176 810,-176 810,-142 698,-142"/>
<text text-anchor="start" x="706" y="-163" font-family="Helvetica,sans-Serif" font-size="10.00">ant::analysis::physics</text>
<text text-anchor="middle" x="754" y="-150" font-family="Helvetica,sans-Serif" font-size="10.00">::Pi0EtaLostG</text>
</g>
<!-- Node3 -->
<g id="node2" class="node"><title>Node3</title>
<a xlink:href="classant_1_1analysis_1_1_physics.html" target="_top" xlink:title="ant::analysis::Physics">
<polygon fill="white" stroke="black" points="501.5,-194.5 501.5,-215.5 614.5,-215.5 614.5,-194.5 501.5,-194.5"/>
<text text-anchor="middle" x="558" y="-202.5" font-family="Helvetica,sans-Serif" font-size="10.00">ant::analysis::Physics</text>
</a>
</g>
<!-- Node3&#45;&gt;Node2 -->
<g id="edge2" class="edge"><title>Node3&#45;&gt;Node2</title>
<path fill="none" stroke="midnightblue" d="M612.83,-192.132C639.293,-185.921 671.005,-178.478 697.663,-172.222"/>
<polygon fill="midnightblue" stroke="midnightblue" points="611.902,-188.754 602.966,-194.447 613.502,-195.569 611.902,-188.754"/>
</g>
<!-- Node4 -->
<g id="node4" class="node"><title>Node4</title>
<a xlink:href="classant_1_1analysis_1_1_histogram_factory.html" target="_top" xlink:title="ant::analysis::Histogram\lFactory">
<polygon fill="white" stroke="black" points="287.5,-188 287.5,-222 410.5,-222 410.5,-188 287.5,-188"/>
<text text-anchor="start" x="295.5" y="-209" font-family="Helvetica,sans-Serif" font-size="10.00">ant::analysis::Histogram</text>
<text text-anchor="middle" x="349" y="-196" font-family="Helvetica,sans-Serif" font-size="10.00">Factory</text>
</a>
</g>
<!-- Node4&#45;&gt;Node3 -->
<g id="edge4" class="edge"><title>Node4&#45;&gt;Node3</title>
<path fill="none" stroke="#9a32cd" stroke-dasharray="5,2" d="M420.848,-205C447.092,-205 476.391,-205 501.149,-205"/>
<polygon fill="#9a32cd" stroke="#9a32cd" points="420.577,-201.5 410.576,-205 420.576,-208.5 420.577,-201.5"/>
<text text-anchor="middle" x="456" y="-209" font-family="Helvetica,sans-Serif" font-size="10.00"> HistFac</text>
</g>
<!-- Node5 -->
<g id="node6" class="node"><title>Node5</title>
<a xlink:href="structant_1_1analysis_1_1physics_1_1_pi0_eta_lost_g_1_1_tree__t.html" target="_top" xlink:title="ant::analysis::physics\l::Pi0EtaLostG::Tree_t">
<polygon fill="white" stroke="black" points="502,-142 502,-176 614,-176 614,-142 502,-142"/>
<text text-anchor="start" x="510" y="-163" font-family="Helvetica,sans-Serif" font-size="10.00">ant::analysis::physics</text>
<text text-anchor="middle" x="558" y="-150" font-family="Helvetica,sans-Serif" font-size="10.00">::Pi0EtaLostG::Tree_t</text>
</a>
</g>
<!-- Node5&#45;&gt;Node2 -->
<g id="edge6" class="edge"><title>Node5&#45;&gt;Node2</title>
<path fill="none" stroke="#9a32cd" stroke-dasharray="5,2" d="M624.219,-159C648.126,-159 674.862,-159 697.826,-159"/>
<polygon fill="#9a32cd" stroke="#9a32cd" points="624.166,-155.5 614.166,-159 624.166,-162.5 624.166,-155.5"/>
<text text-anchor="middle" x="659" y="-163" font-family="Helvetica,sans-Serif" font-size="10.00"> t</text>
</g>
<!-- Node6 -->
<g id="node8" class="node"><title>Node6</title>
<a xlink:href="classant_1_1_wrap_t_tree.html" target="_top" xlink:title="The WrapTTree struct simplifies TTree handling in physics classes. ">
<polygon fill="white" stroke="black" points="306.5,-148.5 306.5,-169.5 391.5,-169.5 391.5,-148.5 306.5,-148.5"/>
<text text-anchor="middle" x="349" y="-156.5" font-family="Helvetica,sans-Serif" font-size="10.00">ant::WrapTTree</text>
</a>
</g>
<!-- Node6&#45;&gt;Node5 -->
<g id="edge8" class="edge"><title>Node6&#45;&gt;Node5</title>
<path fill="none" stroke="midnightblue" d="M401.567,-159C432.075,-159 470.501,-159 501.634,-159"/>
<polygon fill="midnightblue" stroke="midnightblue" points="401.546,-155.5 391.546,-159 401.546,-162.5 401.546,-155.5"/>
</g>
<!-- Node7 -->
<g id="node10" class="node"><title>Node7</title>
<polygon fill="white" stroke="#bfbfbf" points="496,-50.5 496,-123.5 620,-123.5 620,-50.5 496,-50.5"/>
<text text-anchor="start" x="504" y="-110.5" font-family="Helvetica,sans-Serif" font-size="10.00">std::map&lt; const ant</text>
<text text-anchor="start" x="504" y="-97.5" font-family="Helvetica,sans-Serif" font-size="10.00">::ParticleTypeDatabase</text>
<text text-anchor="start" x="504" y="-84.5" font-family="Helvetica,sans-Serif" font-size="10.00">::Type *, ant::analysis</text>
<text text-anchor="start" x="504" y="-71.5" font-family="Helvetica,sans-Serif" font-size="10.00">::physics::Pi0EtaLostG::</text>
<text text-anchor="middle" x="558" y="-58.5" font-family="Helvetica,sans-Serif" font-size="10.00">lostCounter &gt;</text>
</g>
<!-- Node7&#45;&gt;Node2 -->
<g id="edge10" class="edge"><title>Node7&#45;&gt;Node2</title>
<path fill="none" stroke="#9a32cd" stroke-dasharray="5,2" d="M629.479,-113.257C655.537,-122.83 684.301,-133.396 707.613,-141.96"/>
<polygon fill="#9a32cd" stroke="#9a32cd" points="630.609,-109.944 620.016,-109.781 628.195,-116.515 630.609,-109.944"/>
<text text-anchor="middle" x="659" y="-135" font-family="Helvetica,sans-Serif" font-size="10.00"> counters</text>
</g>
<!-- Node8 -->
<g id="node12" class="node"><title>Node8</title>
<a xlink:href="structant_1_1analysis_1_1physics_1_1_pi0_eta_lost_g_1_1lost_counter.html" target="_top" xlink:title="ant::analysis::physics\l::Pi0EtaLostG::lostCounter">
<polygon fill="white" stroke="black" points="282,-83 282,-117 416,-117 416,-83 282,-83"/>
<text text-anchor="start" x="290" y="-104" font-family="Helvetica,sans-Serif" font-size="10.00">ant::analysis::physics</text>
<text text-anchor="middle" x="349" y="-91" font-family="Helvetica,sans-Serif" font-size="10.00">::Pi0EtaLostG::lostCounter</text>
</a>
</g>
<!-- Node8&#45;&gt;Node7 -->
<g id="edge12" class="edge"><title>Node8&#45;&gt;Node7</title>
<path fill="none" stroke="#9a32cd" stroke-dasharray="5,2" d="M426.309,-95.1913C449.214,-93.7666 473.993,-92.2253 495.81,-90.8683"/>
<polygon fill="#9a32cd" stroke="#9a32cd" points="426.043,-91.701 416.279,-95.8152 426.477,-98.6875 426.043,-91.701"/>
<text text-anchor="middle" x="456" y="-98" font-family="Helvetica,sans-Serif" font-size="10.00"> elements</text>
</g>
<!-- Node9 -->
<g id="node14" class="node"><title>Node9</title>
<a xlink:title="STL class. ">
<polygon fill="white" stroke="#bfbfbf" points="134,-38.5 134,-59.5 194,-59.5 194,-38.5 134,-38.5"/>
<text text-anchor="middle" x="164" y="-46.5" font-family="Helvetica,sans-Serif" font-size="10.00">std::string</text>
</a>
</g>
<!-- Node9&#45;&gt;Node8 -->
<g id="edge14" class="edge"><title>Node9&#45;&gt;Node8</title>
<path fill="none" stroke="#9a32cd" stroke-dasharray="5,2" d="M196.642,-63.4795C201.73,-65.4801 206.968,-67.3956 212,-69 234.42,-76.1488 259.405,-82.3129 281.834,-87.219"/>
<polygon fill="#9a32cd" stroke="#9a32cd" points="197.717,-60.1377 187.136,-59.5866 195.064,-66.6155 197.717,-60.1377"/>
<text text-anchor="middle" x="238" y="-86" font-family="Helvetica,sans-Serif" font-size="10.00"> prefix</text>
</g>
<!-- Node11 -->
<g id="node18" class="node"><title>Node11</title>
<a xlink:href="classant_1_1_particle_type_database_1_1_type.html" target="_top" xlink:title="ant::ParticleTypeDatabase\l::Type">
<polygon fill="white" stroke="black" points="282.5,-0 282.5,-34 415.5,-34 415.5,-0 282.5,-0"/>
<text text-anchor="start" x="290.5" y="-21" font-family="Helvetica,sans-Serif" font-size="10.00">ant::ParticleTypeDatabase</text>
<text text-anchor="middle" x="349" y="-8" font-family="Helvetica,sans-Serif" font-size="10.00">::Type</text>
</a>
</g>
<!-- Node9&#45;&gt;Node11 -->
<g id="edge20" class="edge"><title>Node9&#45;&gt;Node11</title>
<path fill="none" stroke="#9a32cd" stroke-dasharray="5,2" d="M204.155,-42.0543C227.009,-38.1012 256.218,-33.0488 282.412,-28.5179"/>
<polygon fill="#9a32cd" stroke="#9a32cd" points="203.392,-38.6341 194.135,-43.7874 204.585,-45.5317 203.392,-38.6341"/>
<text text-anchor="middle" x="238" y="-58" font-family="Helvetica,sans-Serif" font-size="10.00"> print_name</text>
<text text-anchor="middle" x="238" y="-45" font-family="Helvetica,sans-Serif" font-size="10.00">name</text>
</g>
<!-- Node10 -->
<g id="node16" class="node"><title>Node10</title>
<a xlink:title="STL class. ">
<polygon fill="white" stroke="#bfbfbf" points="0.5,-32 0.5,-66 95.5,-66 95.5,-32 0.5,-32"/>
<text text-anchor="start" x="8.5" y="-53" font-family="Helvetica,sans-Serif" font-size="10.00">std::basic_string&lt;</text>
<text text-anchor="middle" x="48" y="-40" font-family="Helvetica,sans-Serif" font-size="10.00"> char &gt;</text>
</a>
</g>
<!-- Node10&#45;&gt;Node9 -->
<g id="edge16" class="edge"><title>Node10&#45;&gt;Node9</title>
<path fill="none" stroke="midnightblue" d="M105.582,-49C115.29,-49 125.014,-49 133.666,-49"/>
<polygon fill="midnightblue" stroke="midnightblue" points="105.516,-45.5001 95.5163,-49 105.516,-52.5001 105.516,-45.5001"/>
</g>
<!-- Node11&#45;&gt;Node7 -->
<g id="edge18" class="edge"><title>Node11&#45;&gt;Node7</title>
<path fill="none" stroke="#9a32cd" stroke-dasharray="5,2" d="M409.587,-37.2924C436.626,-46.3484 468.459,-57.0103 495.696,-66.1327"/>
<polygon fill="#9a32cd" stroke="#9a32cd" points="410.454,-33.8916 399.86,-34.0344 408.231,-40.5292 410.454,-33.8916"/>
<text text-anchor="middle" x="456" y="-62" font-family="Helvetica,sans-Serif" font-size="10.00"> keys</text>
</g>
<!-- Node11&#45;&gt;Node11 -->
<g id="edge22" class="edge"><title>Node11&#45;&gt;Node11</title>
<path fill="none" stroke="#9a32cd" stroke-dasharray="5,2" d="M330.54,-44.3176C333.132,-48.8645 339.286,-52 349,-52 364.941,-52 371.293,-43.5562 368.055,-34.2878"/>
<polygon fill="#9a32cd" stroke="#9a32cd" points="334.031,-44.0629 329.945,-34.2878 327.044,-44.4776 334.031,-44.0629"/>
<text text-anchor="middle" x="349" y="-56" font-family="Helvetica,sans-Serif" font-size="10.00"> sametype</text>
</g>
</g>
</svg>
