<?xml version="1.0" encoding="UTF-8" standalone="no"?>
<!DOCTYPE svg PUBLIC "-//W3C//DTD SVG 1.1//EN"
 "http://www.w3.org/Graphics/SVG/1.1/DTD/svg11.dtd">
<!-- Generated by graphviz version 2.26.3 (20100126.1600)
 -->
<!-- Title: ant::analysis::physics::TAPS_Energy Pages: 1 -->
<svg width="654pt" height="210pt"
 viewBox="0.00 0.00 654.00 210.00" xmlns="http://www.w3.org/2000/svg" xmlns:xlink="http://www.w3.org/1999/xlink">
<g id="graph1" class="graph" transform="scale(1 1) rotate(0) translate(4 206)">
<title>ant::analysis::physics::TAPS_Energy</title>
<polygon fill="white" stroke="white" points="-4,5 -4,-206 651,-206 651,5 -4,5"/>
<!-- Node2 -->
<g id="node1" class="node"><title>Node2</title>
<polygon fill="#bfbfbf" stroke="black" points="534,-102 534,-136 646,-136 646,-102 534,-102"/>
<text text-anchor="start" x="542" y="-123" font-family="Helvetica,sans-Serif" font-size="10.00">ant::analysis::physics</text>
<text text-anchor="middle" x="590" y="-110" font-family="Helvetica,sans-Serif" font-size="10.00">::TAPS_Energy</text>
</g>
<!-- Node3 -->
<g id="node2" class="node"><title>Node3</title>
<a xlink:href="classant_1_1analysis_1_1_physics.html" target="_top" xlink:title="ant::analysis::Physics">
<polygon fill="white" stroke="black" points="307.5,-164.5 307.5,-185.5 420.5,-185.5 420.5,-164.5 307.5,-164.5"/>
<text text-anchor="middle" x="364" y="-172.5" font-family="Helvetica,sans-Serif" font-size="10.00">ant::analysis::Physics</text>
</a>
</g>
<!-- Node3&#45;&gt;Node2 -->
<g id="edge2" class="edge"><title>Node3&#45;&gt;Node2</title>
<path fill="none" stroke="midnightblue" d="M430.648,-166.782C457.461,-162.654 488.487,-156.831 516,-149 528.133,-145.547 540.991,-140.758 552.525,-136.019"/>
<polygon fill="midnightblue" stroke="midnightblue" points="429.968,-163.344 420.594,-168.281 431.001,-170.268 429.968,-163.344"/>
</g>
<!-- Node4 -->
<g id="node4" class="node"><title>Node4</title>
<a xlink:href="classant_1_1analysis_1_1_histogram_factory.html" target="_top" xlink:title="ant::analysis::Histogram\lFactory">
<polygon fill="white" stroke="black" points="94.5,-168 94.5,-202 217.5,-202 217.5,-168 94.5,-168"/>
<text text-anchor="start" x="102.5" y="-189" font-family="Helvetica,sans-Serif" font-size="10.00">ant::analysis::Histogram</text>
<text text-anchor="middle" x="156" y="-176" font-family="Helvetica,sans-Serif" font-size="10.00">Factory</text>
</a>
</g>
<!-- Node4&#45;&gt;Node3 -->
<g id="edge4" class="edge"><title>Node4&#45;&gt;Node3</title>
<path fill="none" stroke="#9a32cd" stroke-dasharray="5,2" d="M227.736,-181.551C253.723,-180.302 282.693,-178.909 307.216,-177.73"/>
<polygon fill="#9a32cd" stroke="#9a32cd" points="227.383,-178.064 217.563,-182.04 227.719,-185.056 227.383,-178.064"/>
<text text-anchor="middle" x="256" y="-184" font-family="Helvetica,sans-Serif" font-size="10.00"> HistFac</text>
</g>
<!-- Node5 -->
<g id="node6" class="node"><title>Node5</title>
<a xlink:href="structant_1_1analysis_1_1physics_1_1_t_a_p_s___energy_1_1tree__data__t.html" target="_top" xlink:title="ant::analysis::physics\l::TAPS_Energy::tree_data_t">
<polygon fill="white" stroke="black" points="294,-102 294,-136 434,-136 434,-102 294,-102"/>
<text text-anchor="start" x="302" y="-123" font-family="Helvetica,sans-Serif" font-size="10.00">ant::analysis::physics</text>
<text text-anchor="middle" x="364" y="-110" font-family="Helvetica,sans-Serif" font-size="10.00">::TAPS_Energy::tree_data_t</text>
</a>
</g>
<!-- Node5&#45;&gt;Node2 -->
<g id="edge6" class="edge"><title>Node5&#45;&gt;Node2</title>
<path fill="none" stroke="#9a32cd" stroke-dasharray="5,2" d="M444.56,-119C474.076,-119 506.818,-119 533.751,-119"/>
<polygon fill="#9a32cd" stroke="#9a32cd" points="444.269,-115.5 434.269,-119 444.269,-122.5 444.269,-115.5"/>
<text text-anchor="middle" x="484" y="-136" font-family="Helvetica,sans-Serif" font-size="10.00"> cands_TAPS</text>
<text text-anchor="middle" x="484" y="-123" font-family="Helvetica,sans-Serif" font-size="10.00">cands_CB</text>
</g>
<!-- Node6 -->
<g id="node8" class="node"><title>Node6</title>
<polygon fill="white" stroke="#bfbfbf" points="96,-128.5 96,-149.5 216,-149.5 216,-128.5 96,-128.5"/>
<text text-anchor="middle" x="156" y="-136.5" font-family="Helvetica,sans-Serif" font-size="10.00">std::vector&lt; unsigned &gt;</text>
</g>
<!-- Node6&#45;&gt;Node5 -->
<g id="edge8" class="edge"><title>Node6&#45;&gt;Node5</title>
<path fill="none" stroke="#9a32cd" stroke-dasharray="5,2" d="M226.303,-132.24C248.033,-130.151 271.964,-127.85 293.694,-125.76"/>
<polygon fill="#9a32cd" stroke="#9a32cd" points="225.781,-128.774 216.162,-133.215 226.451,-135.742 225.781,-128.774"/>
<text text-anchor="middle" x="256" y="-134" font-family="Helvetica,sans-Serif" font-size="10.00"> Channel</text>
</g>
<!-- Node7 -->
<g id="node10" class="node"><title>Node7</title>
<polygon fill="white" stroke="#bfbfbf" points="101,-40.5 101,-61.5 211,-61.5 211,-40.5 101,-40.5"/>
<text text-anchor="middle" x="156" y="-48.5" font-family="Helvetica,sans-Serif" font-size="10.00">std::vector&lt; double &gt;</text>
</g>
<!-- Node7&#45;&gt;Node5 -->
<g id="edge10" class="edge"><title>Node7&#45;&gt;Node5</title>
<path fill="none" stroke="#9a32cd" stroke-dasharray="5,2" d="M221.18,-47.0072C239.473,-47.9425 258.999,-50.9626 276,-58 285.89,-62.0937 285.472,-67.5309 294,-74 307.006,-83.8668 322.169,-93.7909 335.051,-101.799"/>
<polygon fill="#9a32cd" stroke="#9a32cd" points="221.273,-43.5085 211.167,-46.6898 221.051,-50.505 221.273,-43.5085"/>
<text text-anchor="middle" x="256" y="-114" font-family="Helvetica,sans-Serif" font-size="10.00"> Ek</text>
<text text-anchor="middle" x="256" y="-101" font-family="Helvetica,sans-Serif" font-size="10.00">VetoE</text>
<text text-anchor="middle" x="256" y="-88" font-family="Helvetica,sans-Serif" font-size="10.00">Theta</text>
<text text-anchor="middle" x="256" y="-75" font-family="Helvetica,sans-Serif" font-size="10.00">Time</text>
<text text-anchor="middle" x="256" y="-62" font-family="Helvetica,sans-Serif" font-size="10.00">Phi</text>
</g>
<!-- Node8 -->
<g id="node12" class="node"><title>Node8</title>
<a xlink:href="classant_1_1_t_h2_t_a_p_s.html" target="_top" xlink:title="ant::TH2TAPS">
<polygon fill="white" stroke="black" points="323.5,-43.5 323.5,-64.5 404.5,-64.5 404.5,-43.5 323.5,-43.5"/>
<text text-anchor="middle" x="364" y="-51.5" font-family="Helvetica,sans-Serif" font-size="10.00">ant::TH2TAPS</text>
</a>
</g>
<!-- Node8&#45;&gt;Node2 -->
<g id="edge12" class="edge"><title>Node8&#45;&gt;Node2</title>
<path fill="none" stroke="#9a32cd" stroke-dasharray="5,2" d="M410.248,-67.3014C445.968,-77.5749 495.56,-91.8381 533.608,-102.781"/>
<polygon fill="#9a32cd" stroke="#9a32cd" points="411.14,-63.9161 400.562,-64.5156 409.205,-70.6434 411.14,-63.9161"/>
<text text-anchor="middle" x="484" y="-100" font-family="Helvetica,sans-Serif" font-size="10.00"> h_tapsdisplay</text>
</g>
<!-- Node9 -->
<g id="node14" class="node"><title>Node9</title>
<a xlink:href="classant_1_1_t_h2_crystals.html" target="_top" xlink:title="Base class for A2 Calorimeter display classes. ">
<polygon fill="white" stroke="black" points="110,-0.5 110,-21.5 202,-21.5 202,-0.5 110,-0.5"/>
<text text-anchor="middle" x="156" y="-8.5" font-family="Helvetica,sans-Serif" font-size="10.00">ant::TH2Crystals</text>
</a>
</g>
<!-- Node9&#45;&gt;Node8 -->
<g id="edge14" class="edge"><title>Node9&#45;&gt;Node8</title>
<path fill="none" stroke="midnightblue" d="M212.122,-17.9039C232.358,-20.7914 255.302,-24.5269 276,-29 294.318,-32.9589 314.446,-38.5798 330.823,-43.4894"/>
<polygon fill="midnightblue" stroke="midnightblue" points="212.508,-14.424 202.121,-16.5135 211.544,-21.3573 212.508,-14.424"/>
</g>
<!-- Node10 -->
<g id="node16" class="node"><title>Node10</title>
<polygon fill="white" stroke="#bfbfbf" points="0.5,-0.5 0.5,-21.5 55.5,-21.5 55.5,-0.5 0.5,-0.5"/>
<text text-anchor="middle" x="28" y="-8.5" font-family="Helvetica,sans-Serif" font-size="10.00">TH2Poly</text>
</g>
<!-- Node10&#45;&gt;Node9 -->
<g id="edge16" class="edge"><title>Node10&#45;&gt;Node9</title>
<path fill="none" stroke="midnightblue" d="M65.8972,-11C79.7048,-11 95.4684,-11 109.909,-11"/>
<polygon fill="midnightblue" stroke="midnightblue" points="65.7741,-7.5001 55.7741,-11 65.7741,-14.5001 65.7741,-7.5001"/>
</g>
</g>
</svg>
