<?xml version="1.0" encoding="UTF-8" standalone="no"?>
<!DOCTYPE svg PUBLIC "-//W3C//DTD SVG 1.1//EN"
 "http://www.w3.org/Graphics/SVG/1.1/DTD/svg11.dtd">
<!-- Generated by graphviz version 2.26.3 (20100126.1600)
 -->
<!-- Title: src/analysis/physics/scratch/collicott/cross_section.h Pages: 1 -->
<svg width="248pt" height="224pt"
 viewBox="0.00 0.00 248.00 224.00" xmlns="http://www.w3.org/2000/svg" xmlns:xlink="http://www.w3.org/1999/xlink">
<g id="graph1" class="graph" transform="scale(1 1) rotate(0) translate(4 220)">
<title>src/analysis/physics/scratch/collicott/cross_section.h</title>
<polygon fill="white" stroke="white" points="-4,5 -4,-220 245,-220 245,5 -4,5"/>
<!-- Node73 -->
<g id="node1" class="node"><title>Node73</title>
<polygon fill="#bfbfbf" stroke="black" points="64,-168.5 64,-215.5 180,-215.5 180,-168.5 64,-168.5"/>
<text text-anchor="start" x="72" y="-202.5" font-family="Helvetica,sans-Serif" font-size="10.00">src/analysis/physics</text>
<text text-anchor="start" x="72" y="-189.5" font-family="Helvetica,sans-Serif" font-size="10.00">/scratch/collicott/cross</text>
<text text-anchor="middle" x="122" y="-176.5" font-family="Helvetica,sans-Serif" font-size="10.00">_section.h</text>
</g>
<!-- Node74 -->
<g id="node3" class="node"><title>Node74</title>
<a xlink:href="cross__section_8cc.html" target="_top" xlink:title="src/analysis/physics\l/scratch/collicott/cross\l_section.cc">
<polygon fill="white" stroke="black" points="0,-84.5 0,-131.5 116,-131.5 116,-84.5 0,-84.5"/>
<text text-anchor="start" x="8" y="-118.5" font-family="Helvetica,sans-Serif" font-size="10.00">src/analysis/physics</text>
<text text-anchor="start" x="8" y="-105.5" font-family="Helvetica,sans-Serif" font-size="10.00">/scratch/collicott/cross</text>
<text text-anchor="middle" x="58" y="-92.5" font-family="Helvetica,sans-Serif" font-size="10.00">_section.cc</text>
</a>
</g>
<!-- Node73&#45;&gt;Node74 -->
<g id="edge2" class="edge"><title>Node73&#45;&gt;Node74</title>
<path fill="none" stroke="midnightblue" d="M97.6818,-160.082C90.4771,-150.626 82.7203,-140.445 75.9926,-131.615"/>
<polygon fill="midnightblue" stroke="midnightblue" points="94.9869,-162.32 103.831,-168.154 100.555,-158.078 94.9869,-162.32"/>
</g>
<!-- Node75 -->
<g id="node5" class="node"><title>Node75</title>
<a xlink:href="gp__pi0[2g]p_8h.html" target="_top" xlink:title="src/analysis/physics\l/scratch/collicott/gp\l_pi0[2g]p.h">
<polygon fill="white" stroke="black" points="134,-84.5 134,-131.5 240,-131.5 240,-84.5 134,-84.5"/>
<text text-anchor="start" x="142" y="-118.5" font-family="Helvetica,sans-Serif" font-size="10.00">src/analysis/physics</text>
<text text-anchor="start" x="142" y="-105.5" font-family="Helvetica,sans-Serif" font-size="10.00">/scratch/collicott/gp</text>
<text text-anchor="middle" x="187" y="-92.5" font-family="Helvetica,sans-Serif" font-size="10.00">_pi0[2g]p.h</text>
</a>
</g>
<!-- Node73&#45;&gt;Node75 -->
<g id="edge4" class="edge"><title>Node73&#45;&gt;Node75</title>
<path fill="none" stroke="midnightblue" d="M146.698,-160.082C154.015,-150.626 161.893,-140.445 168.726,-131.615"/>
<polygon fill="midnightblue" stroke="midnightblue" points="143.804,-158.103 140.453,-168.154 149.34,-162.387 143.804,-158.103"/>
</g>
<!-- Node76 -->
<g id="node7" class="node"><title>Node76</title>
<a xlink:href="gp__pi0[2g]p_8cc.html" target="_top" xlink:title="src/analysis/physics\l/scratch/collicott/gp\l_pi0[2g]p.cc">
<polygon fill="white" stroke="black" points="134,-0.5 134,-47.5 240,-47.5 240,-0.5 134,-0.5"/>
<text text-anchor="start" x="142" y="-34.5" font-family="Helvetica,sans-Serif" font-size="10.00">src/analysis/physics</text>
<text text-anchor="start" x="142" y="-21.5" font-family="Helvetica,sans-Serif" font-size="10.00">/scratch/collicott/gp</text>
<text text-anchor="middle" x="187" y="-8.5" font-family="Helvetica,sans-Serif" font-size="10.00">_pi0[2g]p.cc</text>
</a>
</g>
<!-- Node75&#45;&gt;Node76 -->
<g id="edge6" class="edge"><title>Node75&#45;&gt;Node76</title>
<path fill="none" stroke="midnightblue" d="M187,-74.0664C187,-65.1933 187,-55.821 187,-47.6152"/>
<polygon fill="midnightblue" stroke="midnightblue" points="183.5,-74.1536 187,-84.1537 190.5,-74.1537 183.5,-74.1536"/>
</g>
</g>
</svg>
