<?xml version="1.0" encoding="UTF-8" standalone="no"?>
<!DOCTYPE svg PUBLIC "-//W3C//DTD SVG 1.1//EN"
 "http://www.w3.org/Graphics/SVG/1.1/DTD/svg11.dtd">
<!-- Generated by graphviz version 2.26.3 (20100126.1600)
 -->
<!-- Title: src/analysis/physics/scratch/wolfes Pages: 1 -->
<svg width="397pt" height="449pt"
 viewBox="0.00 0.00 397.00 449.00" xmlns="http://www.w3.org/2000/svg" xmlns:xlink="http://www.w3.org/1999/xlink">
<g id="graph1" class="graph" transform="scale(1 1) rotate(0) translate(4 445)">
<title>src/analysis/physics/scratch/wolfes</title>
<polygon fill="white" stroke="white" points="-4,5 -4,-445 394,-445 394,5 -4,5"/>
<g id="graph2" class="cluster"><title>clusterdir_15cb7383784026d829002226dc1288d7</title>
<a xlink:href="dir_15cb7383784026d829002226dc1288d7.html" target="_top" xlink:title="scratch">
<polygon fill="#ddddee" stroke="black" points="8,-272 8,-433 94,-433 94,-272 8,-272"/>
<text text-anchor="middle" x="51" y="-420" font-family="Helvetica,sans-Serif" font-size="10.00">scratch</text>
</a>
</g>
<g id="graph3" class="cluster"><title>clusterdir_dd6dc6d8f56905e70717c35413470cc3</title>
<a xlink:href="dir_dd6dc6d8f56905e70717c35413470cc3.html" target="_top">
<polygon fill="#eeeeff" stroke="black" points="16,-280 16,-404 86,-404 86,-280 16,-280"/>
</a>
</g>
<!-- dir_dd6dc6d8f56905e70717c35413470cc3 -->
<g id="node3" class="node"><title>dir_dd6dc6d8f56905e70717c35413470cc3</title>
<text text-anchor="middle" x="51" y="-375.5" font-family="Helvetica,sans-Serif" font-size="10.00">wolfes</text>
</g>
<!-- dir_b9e719fbe012e7a463603470f923e774 -->
<g id="node4" class="node"><title>dir_b9e719fbe012e7a463603470f923e774</title>
<a xlink:href="dir_b9e719fbe012e7a463603470f923e774.html" target="_top" xlink:title="tools">
<polygon fill="white" stroke="black" points="78,-324 24,-324 24,-288 78,-288 78,-324"/>
<text text-anchor="middle" x="51" y="-303.5" font-family="Helvetica,sans-Serif" font-size="10.00">tools</text>
</a>
</g>
<!-- dir_dd6dc6d8f56905e70717c35413470cc3&#45;&gt;dir_b9e719fbe012e7a463603470f923e774 -->
<g id="edge22" class="edge"><title>dir_dd6dc6d8f56905e70717c35413470cc3&#45;&gt;dir_b9e719fbe012e7a463603470f923e774</title>
<path fill="none" stroke="black" d="M51,-359.831C51,-352.131 51,-342.974 51,-334.417"/>
<polygon fill="black" stroke="black" points="54.5001,-334.413 51,-324.413 47.5001,-334.413 54.5001,-334.413"/>
<a xlink:href="dir_000006_000007.html" target="_top" xlink:title="1">
<text text-anchor="middle" x="57.3393" y="-335.508" font-family="Helvetica,sans-Serif" font-size="10.00">1</text>
</a>
</g>
<!-- dir_0a0aa297e888439a92fbcfd5e567f128 -->
<g id="node5" class="node"><title>dir_0a0aa297e888439a92fbcfd5e567f128</title>
<a xlink:href="dir_0a0aa297e888439a92fbcfd5e567f128.html" target="_top" xlink:title="utils">
<polygon fill="white" stroke="red" points="226,-324 172,-324 172,-288 226,-288 226,-324"/>
<text text-anchor="middle" x="199" y="-303.5" font-family="Helvetica,sans-Serif" font-size="10.00">utils</text>
</a>
</g>
<!-- dir_dd6dc6d8f56905e70717c35413470cc3&#45;&gt;dir_0a0aa297e888439a92fbcfd5e567f128 -->
<g id="edge20" class="edge"><title>dir_dd6dc6d8f56905e70717c35413470cc3&#45;&gt;dir_0a0aa297e888439a92fbcfd5e567f128</title>
<path fill="none" stroke="black" d="M78.3073,-361.958C79.55,-361.287 80.7851,-360.631 82,-360 108.52,-346.219 139.224,-332.116 162.522,-321.779"/>
<polygon fill="black" stroke="black" points="163.962,-324.969 171.7,-317.732 161.138,-318.564 163.962,-324.969"/>
<a xlink:href="dir_000006_000033.html" target="_top" xlink:title="3">
<text text-anchor="middle" x="161.819" y="-326.517" font-family="Helvetica,sans-Serif" font-size="10.00">3</text>
</a>
</g>
<!-- dir_8f68c37b22d514b4289e3a1255795d80 -->
<g id="node9" class="node"><title>dir_8f68c37b22d514b4289e3a1255795d80</title>
<a xlink:href="dir_8f68c37b22d514b4289e3a1255795d80.html" target="_top" xlink:title="plot">
<polygon fill="none" stroke="black" points="171,-252 117,-252 117,-216 171,-216 171,-252"/>
<text text-anchor="middle" x="144" y="-231.5" font-family="Helvetica,sans-Serif" font-size="10.00">plot</text>
</a>
</g>
<!-- dir_dd6dc6d8f56905e70717c35413470cc3&#45;&gt;dir_8f68c37b22d514b4289e3a1255795d80 -->
<g id="edge24" class="edge"><title>dir_dd6dc6d8f56905e70717c35413470cc3&#45;&gt;dir_8f68c37b22d514b4289e3a1255795d80</title>
<path fill="none" stroke="black" d="M63.4371,-359.576C70.4221,-349.171 79.2639,-335.904 87,-324 100.732,-302.87 115.993,-278.738 127.265,-260.785"/>
<polygon fill="black" stroke="black" points="130.421,-262.34 132.768,-252.009 124.49,-258.622 130.421,-262.34"/>
<a xlink:href="dir_000006_000034.html" target="_top" xlink:title="1">
<text text-anchor="middle" x="130.918" y="-264.394" font-family="Helvetica,sans-Serif" font-size="10.00">1</text>
</a>
</g>
<!-- dir_e884bea2662087624c49c4b98ba4353a -->
<g id="node10" class="node"><title>dir_e884bea2662087624c49c4b98ba4353a</title>
<a xlink:href="dir_e884bea2662087624c49c4b98ba4353a.html" target="_top" xlink:title="production">
<polygon fill="none" stroke="black" points="257,-396 195,-396 195,-360 257,-360 257,-396"/>
<text text-anchor="middle" x="226" y="-375.5" font-family="Helvetica,sans-Serif" font-size="10.00">production</text>
</a>
</g>
<!-- dir_dd6dc6d8f56905e70717c35413470cc3&#45;&gt;dir_e884bea2662087624c49c4b98ba4353a -->
<g id="edge26" class="edge"><title>dir_dd6dc6d8f56905e70717c35413470cc3&#45;&gt;dir_e884bea2662087624c49c4b98ba4353a</title>
<path fill="none" stroke="black" d="M78.002,-378C113.583,-378 149.165,-378 184.746,-378"/>
<polygon fill="black" stroke="black" points="184.782,-381.5 194.782,-378 184.782,-374.5 184.782,-381.5"/>
<a xlink:href="dir_000006_000027.html" target="_top" xlink:title="1">
<text text-anchor="middle" x="181.187" y="-381.839" font-family="Helvetica,sans-Serif" font-size="10.00">1</text>
</a>
</g>
<!-- dir_0af1587c8378955de40f48b4bd1869f0 -->
<g id="node6" class="node"><title>dir_0af1587c8378955de40f48b4bd1869f0</title>
<a xlink:href="dir_0af1587c8378955de40f48b4bd1869f0.html" target="_top" xlink:title="base">
<polygon fill="white" stroke="red" points="253,-36 199,-36 199,-1.77636e-14 253,-3.55271e-15 253,-36"/>
<text text-anchor="middle" x="226" y="-15.5" font-family="Helvetica,sans-Serif" font-size="10.00">base</text>
</a>
</g>
<!-- dir_b9e719fbe012e7a463603470f923e774&#45;&gt;dir_0af1587c8378955de40f48b4bd1869f0 -->
<g id="edge12" class="edge"><title>dir_b9e719fbe012e7a463603470f923e774&#45;&gt;dir_0af1587c8378955de40f48b4bd1869f0</title>
<path fill="none" stroke="black" d="M49.351,-287.714C48.3589,-269.018 48.7403,-239.472 58,-216 87.0204,-142.438 155.15,-76.7226 195.166,-42.6395"/>
<polygon fill="black" stroke="black" points="197.604,-45.1627 203.015,-36.0533 193.104,-39.8005 197.604,-45.1627"/>
<a xlink:href="dir_000007_000018.html" target="_top" xlink:title="1">
<text text-anchor="middle" x="196.676" y="-47.1482" font-family="Helvetica,sans-Serif" font-size="10.00">1</text>
</a>
</g>
<!-- dir_c44c95bf3b41c3321c6014770d618ac8 -->
<g id="node7" class="node"><title>dir_c44c95bf3b41c3321c6014770d618ac8</title>
<a xlink:href="dir_c44c95bf3b41c3321c6014770d618ac8.html" target="_top" xlink:title="tree">
<polygon fill="none" stroke="black" points="281,-108 227,-108 227,-72 281,-72 281,-108"/>
<text text-anchor="middle" x="254" y="-87.5" font-family="Helvetica,sans-Serif" font-size="10.00">tree</text>
</a>
</g>
<!-- dir_b9e719fbe012e7a463603470f923e774&#45;&gt;dir_c44c95bf3b41c3321c6014770d618ac8 -->
<g id="edge14" class="edge"><title>dir_b9e719fbe012e7a463603470f923e774&#45;&gt;dir_c44c95bf3b41c3321c6014770d618ac8</title>
<path fill="none" stroke="black" d="M53.1219,-287.824C56.0377,-268.685 62.6563,-238.295 77,-216 111.271,-162.733 176.737,-125.133 217.73,-105.566"/>
<polygon fill="black" stroke="black" points="219.251,-108.719 226.837,-101.323 216.295,-102.374 219.251,-108.719"/>
<a xlink:href="dir_000007_000057.html" target="_top" xlink:title="3">
<text text-anchor="middle" x="217.192" y="-110.31" font-family="Helvetica,sans-Serif" font-size="10.00">3</text>
</a>
</g>
<!-- dir_c4f4646ab0f4a2967be5b6215a500c22 -->
<g id="node8" class="node"><title>dir_c4f4646ab0f4a2967be5b6215a500c22</title>
<a xlink:href="dir_c4f4646ab0f4a2967be5b6215a500c22.html" target="_top" xlink:title="expconfig">
<polygon fill="white" stroke="red" points="228,-180 170,-180 170,-144 228,-144 228,-180"/>
<text text-anchor="middle" x="199" y="-159.5" font-family="Helvetica,sans-Serif" font-size="10.00">expconfig</text>
</a>
</g>
<!-- dir_b9e719fbe012e7a463603470f923e774&#45;&gt;dir_c4f4646ab0f4a2967be5b6215a500c22 -->
<g id="edge16" class="edge"><title>dir_b9e719fbe012e7a463603470f923e774&#45;&gt;dir_c4f4646ab0f4a2967be5b6215a500c22</title>
<path fill="none" stroke="black" d="M59.3639,-287.672C68.9695,-268.126 86.2432,-237.135 108,-216 123.232,-201.204 143.262,-188.76 160.652,-179.56"/>
<polygon fill="black" stroke="black" points="162.68,-182.455 169.993,-174.789 159.496,-176.221 162.68,-182.455"/>
<a xlink:href="dir_000007_000037.html" target="_top" xlink:title="3">
<text text-anchor="middle" x="160.77" y="-184.118" font-family="Helvetica,sans-Serif" font-size="10.00">3</text>
</a>
</g>
<!-- dir_0a0aa297e888439a92fbcfd5e567f128&#45;&gt;dir_0af1587c8378955de40f48b4bd1869f0 -->
<g id="edge4" class="edge"><title>dir_0a0aa297e888439a92fbcfd5e567f128&#45;&gt;dir_0af1587c8378955de40f48b4bd1869f0</title>
<path fill="none" stroke="black" d="M213.179,-287.706C220.612,-277.561 229.496,-264.501 236,-252 267.548,-191.364 277.804,-175.255 290,-108 292.855,-92.2567 296.742,-86.5101 290,-72 283.838,-58.7387 272.638,-47.5619 261.31,-38.8788"/>
<polygon fill="black" stroke="black" points="263.277,-35.9822 253.109,-33.0028 259.2,-41.6723 263.277,-35.9822"/>
<a xlink:href="dir_000033_000018.html" target="_top" xlink:title="51">
<text text-anchor="middle" x="267.852" y="-33.2678" font-family="Helvetica,sans-Serif" font-size="10.00">51</text>
</a>
</g>
<!-- dir_0a0aa297e888439a92fbcfd5e567f128&#45;&gt;dir_c44c95bf3b41c3321c6014770d618ac8 -->
<g id="edge6" class="edge"><title>dir_0a0aa297e888439a92fbcfd5e567f128&#45;&gt;dir_c44c95bf3b41c3321c6014770d618ac8</title>
<path fill="none" stroke="black" d="M205.153,-287.805C213.233,-263.458 227.503,-218.84 237,-180 242.028,-159.437 246.424,-135.923 249.485,-118.087"/>
<polygon fill="black" stroke="black" points="252.966,-118.492 251.17,-108.05 246.063,-117.333 252.966,-118.492"/>
<a xlink:href="dir_000033_000057.html" target="_top" xlink:title="19">
<text text-anchor="middle" x="255.171" y="-120.007" font-family="Helvetica,sans-Serif" font-size="10.00">19</text>
</a>
</g>
<!-- dir_0a0aa297e888439a92fbcfd5e567f128&#45;&gt;dir_c4f4646ab0f4a2967be5b6215a500c22 -->
<g id="edge8" class="edge"><title>dir_0a0aa297e888439a92fbcfd5e567f128&#45;&gt;dir_c4f4646ab0f4a2967be5b6215a500c22</title>
<path fill="none" stroke="black" d="M199,-287.762C199,-263.201 199,-219.247 199,-190.354"/>
<polygon fill="black" stroke="black" points="202.5,-190.09 199,-180.09 195.5,-190.09 202.5,-190.09"/>
<a xlink:href="dir_000033_000037.html" target="_top" xlink:title="18">
<text text-anchor="middle" x="205.339" y="-191.184" font-family="Helvetica,sans-Serif" font-size="10.00">18</text>
</a>
</g>
<!-- dir_0a0aa297e888439a92fbcfd5e567f128&#45;&gt;dir_8f68c37b22d514b4289e3a1255795d80 -->
<g id="edge10" class="edge"><title>dir_0a0aa297e888439a92fbcfd5e567f128&#45;&gt;dir_8f68c37b22d514b4289e3a1255795d80</title>
<path fill="none" stroke="black" d="M185.121,-287.831C178.786,-279.539 171.162,-269.557 164.207,-260.453"/>
<polygon fill="black" stroke="black" points="166.917,-258.235 158.066,-252.413 161.355,-262.485 166.917,-258.235"/>
<a xlink:href="dir_000033_000034.html" target="_top" xlink:title="2">
<text text-anchor="middle" x="171.356" y="-256.868" font-family="Helvetica,sans-Serif" font-size="10.00">2</text>
</a>
</g>
<!-- dir_c44c95bf3b41c3321c6014770d618ac8&#45;&gt;dir_0af1587c8378955de40f48b4bd1869f0 -->
<g id="edge18" class="edge"><title>dir_c44c95bf3b41c3321c6014770d618ac8&#45;&gt;dir_0af1587c8378955de40f48b4bd1869f0</title>
<path fill="none" stroke="black" d="M246.934,-71.8314C243.874,-63.9617 240.222,-54.5712 236.832,-45.8533"/>
<polygon fill="black" stroke="black" points="240.047,-44.4647 233.161,-36.4133 233.523,-47.0019 240.047,-44.4647"/>
<a xlink:href="dir_000057_000018.html" target="_top" xlink:title="25">
<text text-anchor="middle" x="243.996" y="-44.2859" font-family="Helvetica,sans-Serif" font-size="10.00">25</text>
</a>
</g>
<!-- dir_c4f4646ab0f4a2967be5b6215a500c22&#45;&gt;dir_0af1587c8378955de40f48b4bd1869f0 -->
<g id="edge28" class="edge"><title>dir_c4f4646ab0f4a2967be5b6215a500c22&#45;&gt;dir_0af1587c8378955de40f48b4bd1869f0</title>
<path fill="none" stroke="black" d="M202.42,-143.762C207.045,-119.093 215.339,-74.8598 220.755,-45.9731"/>
<polygon fill="black" stroke="black" points="224.205,-46.5634 222.608,-36.0896 217.325,-45.2733 224.205,-46.5634"/>
<a xlink:href="dir_000037_000018.html" target="_top" xlink:title="31">
<text text-anchor="middle" x="226.334" y="-48.1196" font-family="Helvetica,sans-Serif" font-size="10.00">31</text>
</a>
</g>
<!-- dir_c4f4646ab0f4a2967be5b6215a500c22&#45;&gt;dir_c44c95bf3b41c3321c6014770d618ac8 -->
<g id="edge30" class="edge"><title>dir_c4f4646ab0f4a2967be5b6215a500c22&#45;&gt;dir_c44c95bf3b41c3321c6014770d618ac8</title>
<path fill="none" stroke="black" d="M212.879,-143.831C219.214,-135.539 226.838,-125.557 233.793,-116.453"/>
<polygon fill="black" stroke="black" points="236.645,-118.485 239.934,-108.413 231.083,-114.235 236.645,-118.485"/>
<a xlink:href="dir_000037_000057.html" target="_top" xlink:title="10">
<text text-anchor="middle" x="236.719" y="-120.565" font-family="Helvetica,sans-Serif" font-size="10.00">10</text>
</a>
</g>
<!-- dir_8f68c37b22d514b4289e3a1255795d80&#45;&gt;dir_0af1587c8378955de40f48b4bd1869f0 -->
<g id="edge32" class="edge"><title>dir_8f68c37b22d514b4289e3a1255795d80&#45;&gt;dir_0af1587c8378955de40f48b4bd1869f0</title>
<path fill="none" stroke="black" d="M145.886,-215.673C148.149,-197.199 152.72,-168.057 161,-144 173.359,-108.09 194.431,-69.6977 209.225,-44.8587"/>
<polygon fill="black" stroke="black" points="212.38,-46.405 214.555,-36.036 206.388,-42.7849 212.38,-46.405"/>
<a xlink:href="dir_000034_000018.html" target="_top" xlink:title="10">
<text text-anchor="middle" x="212.951" y="-48.4499" font-family="Helvetica,sans-Serif" font-size="10.00">10</text>
</a>
</g>
<!-- dir_8f68c37b22d514b4289e3a1255795d80&#45;&gt;dir_c4f4646ab0f4a2967be5b6215a500c22 -->
<g id="edge34" class="edge"><title>dir_8f68c37b22d514b4289e3a1255795d80&#45;&gt;dir_c4f4646ab0f4a2967be5b6215a500c22</title>
<path fill="none" stroke="black" d="M157.879,-215.831C164.214,-207.539 171.838,-197.557 178.793,-188.453"/>
<polygon fill="black" stroke="black" points="181.645,-190.485 184.934,-180.413 176.083,-186.235 181.645,-190.485"/>
<a xlink:href="dir_000034_000037.html" target="_top" xlink:title="1">
<text text-anchor="middle" x="181.719" y="-192.565" font-family="Helvetica,sans-Serif" font-size="10.00">1</text>
</a>
</g>
<!-- dir_e884bea2662087624c49c4b98ba4353a&#45;&gt;dir_dd6dc6d8f56905e70717c35413470cc3 -->
<g id="edge44" class="edge"><title>dir_e884bea2662087624c49c4b98ba4353a&#45;&gt;dir_dd6dc6d8f56905e70717c35413470cc3</title>
<path fill="none" stroke="black" d="M194.782,-378C159.2,-378 123.619,-378 88.0377,-378"/>
<polygon fill="black" stroke="black" points="88.002,-374.5 78.002,-378 88.0019,-381.5 88.002,-374.5"/>
<a xlink:href="dir_000027_000006.html" target="_top" xlink:title="3">
<text text-anchor="middle" x="91.5966" y="-369.161" font-family="Helvetica,sans-Serif" font-size="10.00">3</text>
</a>
</g>
<!-- dir_e884bea2662087624c49c4b98ba4353a&#45;&gt;dir_b9e719fbe012e7a463603470f923e774 -->
<g id="edge38" class="edge"><title>dir_e884bea2662087624c49c4b98ba4353a&#45;&gt;dir_b9e719fbe012e7a463603470f923e774</title>
<path fill="none" stroke="black" d="M194.763,-367.976C167.367,-358.821 126.415,-344.259 87.5502,-326.489"/>
<polygon fill="black" stroke="black" points="88.7936,-323.207 78.2511,-322.155 85.8362,-329.552 88.7936,-323.207"/>
<a xlink:href="dir_000027_000007.html" target="_top" xlink:title="3">
<text text-anchor="middle" x="93.2511" y="-319.652" font-family="Helvetica,sans-Serif" font-size="10.00">3</text>
</a>
</g>
<!-- dir_e884bea2662087624c49c4b98ba4353a&#45;&gt;dir_0a0aa297e888439a92fbcfd5e567f128 -->
<g id="edge36" class="edge"><title>dir_e884bea2662087624c49c4b98ba4353a&#45;&gt;dir_0a0aa297e888439a92fbcfd5e567f128</title>
<path fill="none" stroke="black" d="M219.187,-359.831C216.236,-351.962 212.714,-342.571 209.445,-333.853"/>
<polygon fill="black" stroke="black" points="212.693,-332.548 205.905,-324.413 206.139,-335.006 212.693,-332.548"/>
<a xlink:href="dir_000027_000033.html" target="_top" xlink:title="16">
<text text-anchor="middle" x="216.614" y="-332.416" font-family="Helvetica,sans-Serif" font-size="10.00">16</text>
</a>
</g>
<!-- dir_e884bea2662087624c49c4b98ba4353a&#45;&gt;dir_0af1587c8378955de40f48b4bd1869f0 -->
<g id="edge40" class="edge"><title>dir_e884bea2662087624c49c4b98ba4353a&#45;&gt;dir_0af1587c8378955de40f48b4bd1869f0</title>
<path fill="none" stroke="black" d="M257.043,-366.879C304.336,-347.711 389,-303.667 389,-234 389,-234 389,-234 389,-162 389,-95.0569 310.827,-51.7723 262.754,-31.4833"/>
<polygon fill="black" stroke="black" points="263.864,-28.1558 253.283,-27.6171 261.218,-34.6367 263.864,-28.1558"/>
<a xlink:href="dir_000027_000018.html" target="_top" xlink:title="10">
<text text-anchor="middle" x="268.265" y="-24.3855" font-family="Helvetica,sans-Serif" font-size="10.00">10</text>
</a>
</g>
<!-- dir_e884bea2662087624c49c4b98ba4353a&#45;&gt;dir_c44c95bf3b41c3321c6014770d618ac8 -->
<g id="edge42" class="edge"><title>dir_e884bea2662087624c49c4b98ba4353a&#45;&gt;dir_c44c95bf3b41c3321c6014770d618ac8</title>
<path fill="none" stroke="black" d="M236.75,-359.682C242.114,-349.53 248.071,-336.471 251,-324 268.034,-251.469 262.204,-162.779 257.525,-118.297"/>
<polygon fill="black" stroke="black" points="260.989,-117.781 256.405,-108.23 254.032,-118.556 260.989,-117.781"/>
<a xlink:href="dir_000027_000057.html" target="_top" xlink:title="2">
<text text-anchor="middle" x="264.209" y="-118.54" font-family="Helvetica,sans-Serif" font-size="10.00">2</text>
</a>
</g>
<!-- dir_e884bea2662087624c49c4b98ba4353a&#45;&gt;dir_c4f4646ab0f4a2967be5b6215a500c22 -->
<g id="edge46" class="edge"><title>dir_e884bea2662087624c49c4b98ba4353a&#45;&gt;dir_c4f4646ab0f4a2967be5b6215a500c22</title>
<path fill="none" stroke="black" d="M229.841,-359.6C231.817,-349.203 234.012,-335.935 235,-324 236.906,-300.968 238.64,-294.823 235,-272 230.39,-243.091 219.368,-211.46 210.725,-189.569"/>
<polygon fill="black" stroke="black" points="213.946,-188.199 206.953,-180.24 207.457,-190.823 213.946,-188.199"/>
<a xlink:href="dir_000027_000037.html" target="_top" xlink:title="6">
<text text-anchor="middle" x="217.926" y="-187.967" font-family="Helvetica,sans-Serif" font-size="10.00">6</text>
</a>
</g>
<!-- dir_e884bea2662087624c49c4b98ba4353a&#45;&gt;dir_8f68c37b22d514b4289e3a1255795d80 -->
<g id="edge48" class="edge"><title>dir_e884bea2662087624c49c4b98ba4353a&#45;&gt;dir_8f68c37b22d514b4289e3a1255795d80</title>
<path fill="none" stroke="black" d="M197.406,-359.87C185.019,-350.595 171.448,-338.251 163,-324 151.852,-305.195 147.194,-280.766 145.272,-262.105"/>
<polygon fill="black" stroke="black" points="148.76,-261.814 144.445,-252.138 141.784,-262.393 148.76,-261.814"/>
<a xlink:href="dir_000027_000034.html" target="_top" xlink:title="5">
<text text-anchor="middle" x="151.887" y="-262.662" font-family="Helvetica,sans-Serif" font-size="10.00">5</text>
</a>
</g>
</g>
</svg>
