<?xml version="1.0" encoding="UTF-8" standalone="no"?>
<!DOCTYPE svg PUBLIC "-//W3C//DTD SVG 1.1//EN"
 "http://www.w3.org/Graphics/SVG/1.1/DTD/svg11.dtd">
<!-- Generated by graphviz version 2.26.3 (20100126.1600)
 -->
<!-- Title: src/analysis/input/pluto Pages: 1 -->
<svg width="272pt" height="377pt"
 viewBox="0.00 0.00 271.78 377.00" xmlns="http://www.w3.org/2000/svg" xmlns:xlink="http://www.w3.org/1999/xlink">
<g id="graph1" class="graph" transform="scale(1 1) rotate(0) translate(4 373)">
<title>src/analysis/input/pluto</title>
<polygon fill="white" stroke="white" points="-4,5 -4,-373 268.778,-373 268.778,5 -4,5"/>
<g id="graph2" class="cluster"><title>clusterdir_4d4314fec0337faafb4fd99dc7917bfa</title>
<a xlink:href="dir_4d4314fec0337faafb4fd99dc7917bfa.html" target="_top" xlink:title="input">
<polygon fill="#ddddee" stroke="black" points="8,-200 8,-361 94,-361 94,-200 8,-200"/>
<text text-anchor="middle" x="51" y="-348" font-family="Helvetica,sans-Serif" font-size="10.00">input</text>
</a>
</g>
<g id="graph3" class="cluster"><title>clusterdir_afb7c24399562c2231a021453aaf5419</title>
<a xlink:href="dir_afb7c24399562c2231a021453aaf5419.html" target="_top">
<polygon fill="#eeeeff" stroke="black" points="16,-208 16,-332 86,-332 86,-208 16,-208"/>
</a>
</g>
<!-- dir_afb7c24399562c2231a021453aaf5419 -->
<g id="node3" class="node"><title>dir_afb7c24399562c2231a021453aaf5419</title>
<text text-anchor="middle" x="51" y="-303.5" font-family="Helvetica,sans-Serif" font-size="10.00">pluto</text>
</g>
<!-- dir_e87ce045b23dd11be7b26265498c3ece -->
<g id="node4" class="node"><title>dir_e87ce045b23dd11be7b26265498c3ece</title>
<a xlink:href="dir_e87ce045b23dd11be7b26265498c3ece.html" target="_top" xlink:title="detail">
<polygon fill="white" stroke="black" points="78,-252 24,-252 24,-216 78,-216 78,-252"/>
<text text-anchor="middle" x="51" y="-231.5" font-family="Helvetica,sans-Serif" font-size="10.00">detail</text>
</a>
</g>
<!-- dir_afb7c24399562c2231a021453aaf5419&#45;&gt;dir_e87ce045b23dd11be7b26265498c3ece -->
<g id="edge18" class="edge"><title>dir_afb7c24399562c2231a021453aaf5419&#45;&gt;dir_e87ce045b23dd11be7b26265498c3ece</title>
<path fill="none" stroke="black" d="M51,-287.831C51,-280.131 51,-270.974 51,-262.417"/>
<polygon fill="black" stroke="black" points="54.5001,-262.413 51,-252.413 47.5001,-262.413 54.5001,-262.413"/>
<a xlink:href="dir_000013_000014.html" target="_top" xlink:title="1">
<text text-anchor="middle" x="57.3393" y="-263.508" font-family="Helvetica,sans-Serif" font-size="10.00">1</text>
</a>
</g>
<!-- dir_0a0aa297e888439a92fbcfd5e567f128 -->
<g id="node5" class="node"><title>dir_0a0aa297e888439a92fbcfd5e567f128</title>
<a xlink:href="dir_0a0aa297e888439a92fbcfd5e567f128.html" target="_top" xlink:title="utils">
<polygon fill="white" stroke="red" points="242,-252 188,-252 188,-216 242,-216 242,-252"/>
<text text-anchor="middle" x="215" y="-231.5" font-family="Helvetica,sans-Serif" font-size="10.00">utils</text>
</a>
</g>
<!-- dir_afb7c24399562c2231a021453aaf5419&#45;&gt;dir_0a0aa297e888439a92fbcfd5e567f128 -->
<g id="edge12" class="edge"><title>dir_afb7c24399562c2231a021453aaf5419&#45;&gt;dir_0a0aa297e888439a92fbcfd5e567f128</title>
<path fill="none" stroke="black" d="M78.0813,-294.111C105.5,-282.073 148.081,-263.379 178.474,-250.036"/>
<polygon fill="black" stroke="black" points="180.129,-253.132 187.879,-245.907 177.315,-246.722 180.129,-253.132"/>
<a xlink:href="dir_000013_000033.html" target="_top" xlink:title="2">
<text text-anchor="middle" x="177.979" y="-254.676" font-family="Helvetica,sans-Serif" font-size="10.00">2</text>
</a>
</g>
<!-- dir_0af1587c8378955de40f48b4bd1869f0 -->
<g id="node6" class="node"><title>dir_0af1587c8378955de40f48b4bd1869f0</title>
<a xlink:href="dir_0af1587c8378955de40f48b4bd1869f0.html" target="_top" xlink:title="base">
<polygon fill="white" stroke="red" points="202,-36 148,-36 148,-1.77636e-14 202,-3.55271e-15 202,-36"/>
<text text-anchor="middle" x="175" y="-15.5" font-family="Helvetica,sans-Serif" font-size="10.00">base</text>
</a>
</g>
<!-- dir_afb7c24399562c2231a021453aaf5419&#45;&gt;dir_0af1587c8378955de40f48b4bd1869f0 -->
<g id="edge14" class="edge"><title>dir_afb7c24399562c2231a021453aaf5419&#45;&gt;dir_0af1587c8378955de40f48b4bd1869f0</title>
<path fill="none" stroke="black" d="M64.8647,-287.705C72.1164,-277.56 80.7578,-264.5 87,-252 109.734,-206.476 107.168,-191.658 125,-144 137.742,-109.947 153.314,-71.1064 163.66,-45.6587"/>
<polygon fill="black" stroke="black" points="166.952,-46.8566 167.486,-36.2752 160.47,-44.2142 166.952,-46.8566"/>
<a xlink:href="dir_000013_000018.html" target="_top" xlink:title="6">
<text text-anchor="middle" x="168.224" y="-48.757" font-family="Helvetica,sans-Serif" font-size="10.00">6</text>
</a>
</g>
<!-- dir_c44c95bf3b41c3321c6014770d618ac8 -->
<g id="node7" class="node"><title>dir_c44c95bf3b41c3321c6014770d618ac8</title>
<a xlink:href="dir_c44c95bf3b41c3321c6014770d618ac8.html" target="_top" xlink:title="tree">
<polygon fill="none" stroke="black" points="230,-108 176,-108 176,-72 230,-72 230,-108"/>
<text text-anchor="middle" x="203" y="-87.5" font-family="Helvetica,sans-Serif" font-size="10.00">tree</text>
</a>
</g>
<!-- dir_afb7c24399562c2231a021453aaf5419&#45;&gt;dir_c44c95bf3b41c3321c6014770d618ac8 -->
<g id="edge16" class="edge"><title>dir_afb7c24399562c2231a021453aaf5419&#45;&gt;dir_c44c95bf3b41c3321c6014770d618ac8</title>
<path fill="none" stroke="black" d="M78.3139,-302.702C128.004,-296.081 230.008,-279.412 251,-252 282.157,-211.315 248.438,-150.718 223.878,-116.331"/>
<polygon fill="black" stroke="black" points="226.624,-114.158 217.876,-108.181 220.988,-118.309 226.624,-114.158"/>
<a xlink:href="dir_000013_000057.html" target="_top" xlink:title="2">
<text text-anchor="middle" x="231.042" y="-112.869" font-family="Helvetica,sans-Serif" font-size="10.00">2</text>
</a>
</g>
<!-- dir_c4f4646ab0f4a2967be5b6215a500c22 -->
<g id="node8" class="node"><title>dir_c4f4646ab0f4a2967be5b6215a500c22</title>
<a xlink:href="dir_c4f4646ab0f4a2967be5b6215a500c22.html" target="_top" xlink:title="expconfig">
<polygon fill="white" stroke="red" points="192,-180 134,-180 134,-144 192,-144 192,-180"/>
<text text-anchor="middle" x="163" y="-159.5" font-family="Helvetica,sans-Serif" font-size="10.00">expconfig</text>
</a>
</g>
<!-- dir_afb7c24399562c2231a021453aaf5419&#45;&gt;dir_c4f4646ab0f4a2967be5b6215a500c22 -->
<g id="edge20" class="edge"><title>dir_afb7c24399562c2231a021453aaf5419&#45;&gt;dir_c4f4646ab0f4a2967be5b6215a500c22</title>
<path fill="none" stroke="black" d="M78.0385,-289.235C91.904,-279.629 108.29,-266.593 120,-252 134.974,-233.339 146.311,-208.605 153.574,-189.789"/>
<polygon fill="black" stroke="black" points="156.902,-190.88 157.093,-180.287 150.338,-188.449 156.902,-190.88"/>
<a xlink:href="dir_000013_000037.html" target="_top" xlink:title="1">
<text text-anchor="middle" x="158.316" y="-192.737" font-family="Helvetica,sans-Serif" font-size="10.00">1</text>
</a>
</g>
<!-- dir_0a0aa297e888439a92fbcfd5e567f128&#45;&gt;dir_0af1587c8378955de40f48b4bd1869f0 -->
<g id="edge4" class="edge"><title>dir_0a0aa297e888439a92fbcfd5e567f128&#45;&gt;dir_0af1587c8378955de40f48b4bd1869f0</title>
<path fill="none" stroke="black" d="M224.061,-215.795C238.147,-184.776 261.464,-120.346 239,-72 232.838,-58.7387 221.638,-47.5619 210.31,-38.8788"/>
<polygon fill="black" stroke="black" points="212.277,-35.9822 202.109,-33.0028 208.2,-41.6723 212.277,-35.9822"/>
<a xlink:href="dir_000033_000018.html" target="_top" xlink:title="51">
<text text-anchor="middle" x="216.852" y="-33.2678" font-family="Helvetica,sans-Serif" font-size="10.00">51</text>
</a>
</g>
<!-- dir_0a0aa297e888439a92fbcfd5e567f128&#45;&gt;dir_c44c95bf3b41c3321c6014770d618ac8 -->
<g id="edge6" class="edge"><title>dir_0a0aa297e888439a92fbcfd5e567f128&#45;&gt;dir_c44c95bf3b41c3321c6014770d618ac8</title>
<path fill="none" stroke="black" d="M213.48,-215.762C211.433,-191.201 207.771,-147.247 205.363,-118.354"/>
<polygon fill="black" stroke="black" points="208.826,-117.764 204.507,-108.09 201.85,-118.346 208.826,-117.764"/>
<a xlink:href="dir_000033_000057.html" target="_top" xlink:title="19">
<text text-anchor="middle" x="211.954" y="-118.611" font-family="Helvetica,sans-Serif" font-size="10.00">19</text>
</a>
</g>
<!-- dir_0a0aa297e888439a92fbcfd5e567f128&#45;&gt;dir_c4f4646ab0f4a2967be5b6215a500c22 -->
<g id="edge8" class="edge"><title>dir_0a0aa297e888439a92fbcfd5e567f128&#45;&gt;dir_c4f4646ab0f4a2967be5b6215a500c22</title>
<path fill="none" stroke="black" d="M201.878,-215.831C195.95,-207.623 188.827,-197.761 182.307,-188.732"/>
<polygon fill="black" stroke="black" points="184.991,-186.471 176.298,-180.413 179.316,-190.569 184.991,-186.471"/>
<a xlink:href="dir_000033_000037.html" target="_top" xlink:title="18">
<text text-anchor="middle" x="189.397" y="-185.223" font-family="Helvetica,sans-Serif" font-size="10.00">18</text>
</a>
</g>
<!-- dir_c44c95bf3b41c3321c6014770d618ac8&#45;&gt;dir_0af1587c8378955de40f48b4bd1869f0 -->
<g id="edge10" class="edge"><title>dir_c44c95bf3b41c3321c6014770d618ac8&#45;&gt;dir_0af1587c8378955de40f48b4bd1869f0</title>
<path fill="none" stroke="black" d="M195.934,-71.8314C192.874,-63.9617 189.222,-54.5712 185.832,-45.8533"/>
<polygon fill="black" stroke="black" points="189.047,-44.4647 182.161,-36.4133 182.523,-47.0019 189.047,-44.4647"/>
<a xlink:href="dir_000057_000018.html" target="_top" xlink:title="25">
<text text-anchor="middle" x="192.996" y="-44.2859" font-family="Helvetica,sans-Serif" font-size="10.00">25</text>
</a>
</g>
<!-- dir_c4f4646ab0f4a2967be5b6215a500c22&#45;&gt;dir_0af1587c8378955de40f48b4bd1869f0 -->
<g id="edge22" class="edge"><title>dir_c4f4646ab0f4a2967be5b6215a500c22&#45;&gt;dir_0af1587c8378955de40f48b4bd1869f0</title>
<path fill="none" stroke="black" d="M163.264,-143.69C163.655,-125.477 164.623,-96.7544 167,-72 167.803,-63.6421 169.008,-54.6018 170.241,-46.3524"/>
<polygon fill="black" stroke="black" points="173.704,-46.8573 171.789,-36.4369 166.788,-45.7771 173.704,-46.8573"/>
<a xlink:href="dir_000037_000018.html" target="_top" xlink:title="31">
<text text-anchor="middle" x="175.955" y="-48.3469" font-family="Helvetica,sans-Serif" font-size="10.00">31</text>
</a>
</g>
<!-- dir_c4f4646ab0f4a2967be5b6215a500c22&#45;&gt;dir_c44c95bf3b41c3321c6014770d618ac8 -->
<g id="edge24" class="edge"><title>dir_c4f4646ab0f4a2967be5b6215a500c22&#45;&gt;dir_c44c95bf3b41c3321c6014770d618ac8</title>
<path fill="none" stroke="black" d="M173.094,-143.831C177.56,-135.792 182.907,-126.167 187.838,-117.292"/>
<polygon fill="black" stroke="black" points="190.973,-118.855 192.77,-108.413 184.854,-115.455 190.973,-118.855"/>
<a xlink:href="dir_000037_000057.html" target="_top" xlink:title="10">
<text text-anchor="middle" x="191.71" y="-120.876" font-family="Helvetica,sans-Serif" font-size="10.00">10</text>
</a>
</g>
</g>
</svg>
