<?xml version="1.0" encoding="UTF-8" standalone="no"?>
<!DOCTYPE svg PUBLIC "-//W3C//DTD SVG 1.1//EN"
 "http://www.w3.org/Graphics/SVG/1.1/DTD/svg11.dtd">
<!-- Generated by graphviz version 2.26.3 (20100126.1600)
 -->
<!-- Title: test/calibration Pages: 1 -->
<svg width="100pt" height="153pt"
 viewBox="0.00 0.00 100.00 153.00" xmlns="http://www.w3.org/2000/svg" xmlns:xlink="http://www.w3.org/1999/xlink">
<g id="graph1" class="graph" transform="scale(1 1) rotate(0) translate(4 149)">
<title>test/calibration</title>
<polygon fill="white" stroke="white" points="-4,5 -4,-149 97,-149 97,5 -4,5"/>
<g id="graph2" class="cluster"><title>clusterdir_13e138d54eb8818da29c3992edef070a</title>
<a xlink:href="dir_13e138d54eb8818da29c3992edef070a.html" target="_top" xlink:title="test">
<polygon fill="#ddddee" stroke="black" points="8,-64 8,-137 84,-137 84,-64 8,-64"/>
<text text-anchor="middle" x="46" y="-124" font-family="Helvetica,sans-Serif" font-size="10.00">test</text>
</a>
</g>
<!-- dir_d35cb250f796e1503cd2deed01fdf2c1 -->
<g id="node2" class="node"><title>dir_d35cb250f796e1503cd2deed01fdf2c1</title>
<a xlink:href="dir_d35cb250f796e1503cd2deed01fdf2c1.html" target="_top" xlink:title="calibration">
<polygon fill="#eeeeff" stroke="black" points="76,-108 16,-108 16,-72 76,-72 76,-108"/>
<text text-anchor="middle" x="46" y="-87.5" font-family="Helvetica,sans-Serif" font-size="10.00">calibration</text>
</a>
</g>
<!-- dir_68267d1309a1af8e8297ef4c3efbcdba -->
<g id="node3" class="node"><title>dir_68267d1309a1af8e8297ef4c3efbcdba</title>
<a xlink:href="dir_68267d1309a1af8e8297ef4c3efbcdba.html" target="_top" xlink:title="src">
<polygon fill="white" stroke="red" points="73,-36 19,-36 19,-1.77636e-14 73,-3.55271e-15 73,-36"/>
<text text-anchor="middle" x="46" y="-15.5" font-family="Helvetica,sans-Serif" font-size="10.00">src</text>
</a>
</g>
<!-- dir_d35cb250f796e1503cd2deed01fdf2c1&#45;&gt;dir_68267d1309a1af8e8297ef4c3efbcdba -->
<g id="edge3" class="edge"><title>dir_d35cb250f796e1503cd2deed01fdf2c1&#45;&gt;dir_68267d1309a1af8e8297ef4c3efbcdba</title>
<path fill="none" stroke="black" d="M46,-71.8314C46,-64.131 46,-54.9743 46,-46.4166"/>
<polygon fill="black" stroke="black" points="49.5001,-46.4132 46,-36.4133 42.5001,-46.4133 49.5001,-46.4132"/>
<a xlink:href="dir_000064_000002.html" target="_top" xlink:title="28">
<text text-anchor="middle" x="52.3393" y="-47.5079" font-family="Helvetica,sans-Serif" font-size="10.00">28</text>
</a>
</g>
</g>
</svg>
