<?xml version="1.0" encoding="UTF-8" standalone="no"?>
<!DOCTYPE svg PUBLIC "-//W3C//DTD SVG 1.1//EN"
 "http://www.w3.org/Graphics/SVG/1.1/DTD/svg11.dtd">
<!-- Generated by graphviz version 2.26.3 (20100126.1600)
 -->
<!-- Title: src/analysis Pages: 1 -->
<svg width="774pt" height="593pt"
 viewBox="0.00 0.00 774.36 593.00" xmlns="http://www.w3.org/2000/svg" xmlns:xlink="http://www.w3.org/1999/xlink">
<g id="graph1" class="graph" transform="scale(1 1) rotate(0) translate(4 589)">
<title>src/analysis</title>
<polygon fill="white" stroke="white" points="-4,5 -4,-589 771.365,-589 771.365,5 -4,5"/>
<g id="graph2" class="cluster"><title>clusterdir_68267d1309a1af8e8297ef4c3efbcdba</title>
<a xlink:href="dir_68267d1309a1af8e8297ef4c3efbcdba.html" target="_top" xlink:title="src">
<polygon fill="#ddddee" stroke="black" points="206,-200 206,-577 364,-577 364,-200 206,-200"/>
<text text-anchor="middle" x="285" y="-564" font-family="Helvetica,sans-Serif" font-size="10.00">src</text>
</a>
</g>
<g id="graph3" class="cluster"><title>clusterdir_2eec376824a17f48dc36b4bd0c810e01</title>
<a xlink:href="dir_2eec376824a17f48dc36b4bd0c810e01.html" target="_top">
<polygon fill="#eeeeff" stroke="black" points="214,-208 214,-548 356,-548 356,-208 214,-208"/>
</a>
</g>
<!-- dir_2eec376824a17f48dc36b4bd0c810e01 -->
<g id="node3" class="node"><title>dir_2eec376824a17f48dc36b4bd0c810e01</title>
<text text-anchor="middle" x="321" y="-519.5" font-family="Helvetica,sans-Serif" font-size="10.00">analysis</text>
</g>
<!-- dir_4d4314fec0337faafb4fd99dc7917bfa -->
<g id="node4" class="node"><title>dir_4d4314fec0337faafb4fd99dc7917bfa</title>
<a xlink:href="dir_4d4314fec0337faafb4fd99dc7917bfa.html" target="_top" xlink:title="input">
<polygon fill="white" stroke="red" points="279,-396 225,-396 225,-360 279,-360 279,-396"/>
<text text-anchor="middle" x="252" y="-375.5" font-family="Helvetica,sans-Serif" font-size="10.00">input</text>
</a>
</g>
<!-- dir_0a0aa297e888439a92fbcfd5e567f128 -->
<g id="node8" class="node"><title>dir_0a0aa297e888439a92fbcfd5e567f128</title>
<a xlink:href="dir_0a0aa297e888439a92fbcfd5e567f128.html" target="_top" xlink:title="utils">
<polygon fill="white" stroke="red" points="276,-324 222,-324 222,-288 276,-288 276,-324"/>
<text text-anchor="middle" x="249" y="-303.5" font-family="Helvetica,sans-Serif" font-size="10.00">utils</text>
</a>
</g>
<!-- dir_4d4314fec0337faafb4fd99dc7917bfa&#45;&gt;dir_0a0aa297e888439a92fbcfd5e567f128 -->
<g id="edge86" class="edge"><title>dir_4d4314fec0337faafb4fd99dc7917bfa&#45;&gt;dir_0a0aa297e888439a92fbcfd5e567f128</title>
<path fill="none" stroke="black" d="M251.243,-359.831C250.922,-352.131 250.541,-342.974 250.184,-334.417"/>
<polygon fill="black" stroke="black" points="253.681,-334.259 249.767,-324.413 246.687,-334.55 253.681,-334.259"/>
<a xlink:href="dir_000009_000033.html" target="_top" xlink:title="2">
<text text-anchor="middle" x="256.667" y="-335.232" font-family="Helvetica,sans-Serif" font-size="10.00">2</text>
</a>
</g>
<!-- dir_0af1587c8378955de40f48b4bd1869f0 -->
<g id="node9" class="node"><title>dir_0af1587c8378955de40f48b4bd1869f0</title>
<a xlink:href="dir_0af1587c8378955de40f48b4bd1869f0.html" target="_top" xlink:title="base">
<polygon fill="white" stroke="red" points="339,-36 285,-36 285,-1.77636e-14 339,-3.55271e-15 339,-36"/>
<text text-anchor="middle" x="312" y="-15.5" font-family="Helvetica,sans-Serif" font-size="10.00">base</text>
</a>
</g>
<!-- dir_4d4314fec0337faafb4fd99dc7917bfa&#45;&gt;dir_0af1587c8378955de40f48b4bd1869f0 -->
<g id="edge88" class="edge"><title>dir_4d4314fec0337faafb4fd99dc7917bfa&#45;&gt;dir_0af1587c8378955de40f48b4bd1869f0</title>
<path fill="none" stroke="black" d="M226.957,-359.87C216.188,-350.515 204.765,-338.105 199,-324 190.88,-304.133 196.689,-231.915 206,-200 223.654,-139.487 265.599,-77.9416 291.115,-44.1951"/>
<polygon fill="black" stroke="black" points="293.914,-46.2967 297.223,-36.232 288.359,-42.0363 293.914,-46.2967"/>
<a xlink:href="dir_000009_000018.html" target="_top" xlink:title="15">
<text text-anchor="middle" x="293.979" y="-48.3769" font-family="Helvetica,sans-Serif" font-size="10.00">15</text>
</a>
</g>
<!-- dir_c44c95bf3b41c3321c6014770d618ac8 -->
<g id="node10" class="node"><title>dir_c44c95bf3b41c3321c6014770d618ac8</title>
<a xlink:href="dir_c44c95bf3b41c3321c6014770d618ac8.html" target="_top" xlink:title="tree">
<polygon fill="none" stroke="black" points="551,-108 497,-108 497,-72 551,-72 551,-108"/>
<text text-anchor="middle" x="524" y="-87.5" font-family="Helvetica,sans-Serif" font-size="10.00">tree</text>
</a>
</g>
<!-- dir_4d4314fec0337faafb4fd99dc7917bfa&#45;&gt;dir_c44c95bf3b41c3321c6014770d618ac8 -->
<g id="edge90" class="edge"><title>dir_4d4314fec0337faafb4fd99dc7917bfa&#45;&gt;dir_c44c95bf3b41c3321c6014770d618ac8</title>
<path fill="none" stroke="black" d="M230.687,-359.731C221.187,-350.176 211.021,-337.637 206,-324 193.582,-290.273 222.656,-202.782 225,-200 292.187,-120.269 422.549,-98.3147 486.619,-92.2803"/>
<polygon fill="black" stroke="black" points="487.018,-95.759 496.68,-91.4133 486.417,-88.7848 487.018,-95.759"/>
<a xlink:href="dir_000009_000057.html" target="_top" xlink:title="8">
<text text-anchor="middle" x="483.68" y="-96.3963" font-family="Helvetica,sans-Serif" font-size="10.00">8</text>
</a>
</g>
<!-- dir_da9e88029a658bab9ad39bb8696ef9bc -->
<g id="node12" class="node"><title>dir_da9e88029a658bab9ad39bb8696ef9bc</title>
<a xlink:href="dir_da9e88029a658bab9ad39bb8696ef9bc.html" target="_top" xlink:title="unpacker">
<polygon fill="white" stroke="red" points="524,-180 468,-180 468,-144 524,-144 524,-180"/>
<text text-anchor="middle" x="496" y="-159.5" font-family="Helvetica,sans-Serif" font-size="10.00">unpacker</text>
</a>
</g>
<!-- dir_4d4314fec0337faafb4fd99dc7917bfa&#45;&gt;dir_da9e88029a658bab9ad39bb8696ef9bc -->
<g id="edge92" class="edge"><title>dir_4d4314fec0337faafb4fd99dc7917bfa&#45;&gt;dir_da9e88029a658bab9ad39bb8696ef9bc</title>
<path fill="none" stroke="black" d="M234.289,-359.652C226.106,-349.895 217.27,-337.204 213,-324 208.077,-308.776 207.621,-303.069 213,-288 229.989,-240.407 241.441,-225.617 285,-200 299.649,-191.385 400.786,-175.722 457.552,-167.452"/>
<polygon fill="black" stroke="black" points="458.209,-170.893 467.604,-165.997 457.206,-163.965 458.209,-170.893"/>
<a xlink:href="dir_000009_000058.html" target="_top" xlink:title="1">
<text text-anchor="middle" x="455.058" y="-171.718" font-family="Helvetica,sans-Serif" font-size="10.00">1</text>
</a>
</g>
<!-- dir_c4f4646ab0f4a2967be5b6215a500c22 -->
<g id="node14" class="node"><title>dir_c4f4646ab0f4a2967be5b6215a500c22</title>
<a xlink:href="dir_c4f4646ab0f4a2967be5b6215a500c22.html" target="_top" xlink:title="expconfig">
<polygon fill="white" stroke="red" points="581,-252 523,-252 523,-216 581,-216 581,-252"/>
<text text-anchor="middle" x="552" y="-231.5" font-family="Helvetica,sans-Serif" font-size="10.00">expconfig</text>
</a>
</g>
<!-- dir_4d4314fec0337faafb4fd99dc7917bfa&#45;&gt;dir_c4f4646ab0f4a2967be5b6215a500c22 -->
<g id="edge94" class="edge"><title>dir_4d4314fec0337faafb4fd99dc7917bfa&#45;&gt;dir_c4f4646ab0f4a2967be5b6215a500c22</title>
<path fill="none" stroke="black" d="M279.312,-361.967C280.553,-361.293 281.787,-360.635 283,-360 363.656,-317.798 460.974,-273.891 513.632,-250.693"/>
<polygon fill="black" stroke="black" points="515.183,-253.834 522.93,-246.607 512.367,-247.426 515.183,-253.834"/>
<a xlink:href="dir_000009_000037.html" target="_top" xlink:title="3">
<text text-anchor="middle" x="513.034" y="-255.38" font-family="Helvetica,sans-Serif" font-size="10.00">3</text>
</a>
</g>
<!-- dir_5eb03804bf445589bf35c6aa84fb9a34 -->
<g id="node15" class="node"><title>dir_5eb03804bf445589bf35c6aa84fb9a34</title>
<a xlink:href="dir_5eb03804bf445589bf35c6aa84fb9a34.html" target="_top" xlink:title="reconstruct">
<polygon fill="white" stroke="red" points="700,-324 636,-324 636,-288 700,-288 700,-324"/>
<text text-anchor="middle" x="668" y="-303.5" font-family="Helvetica,sans-Serif" font-size="10.00">reconstruct</text>
</a>
</g>
<!-- dir_4d4314fec0337faafb4fd99dc7917bfa&#45;&gt;dir_5eb03804bf445589bf35c6aa84fb9a34 -->
<g id="edge96" class="edge"><title>dir_4d4314fec0337faafb4fd99dc7917bfa&#45;&gt;dir_5eb03804bf445589bf35c6aa84fb9a34</title>
<path fill="none" stroke="black" d="M279.109,-361.497C280.405,-360.95 281.706,-360.447 283,-360 345.757,-338.314 539.464,-318.065 625.764,-309.854"/>
<polygon fill="black" stroke="black" points="626.113,-313.336 635.74,-308.913 625.456,-306.367 626.113,-313.336"/>
<a xlink:href="dir_000009_000054.html" target="_top" xlink:title="1">
<text text-anchor="middle" x="622.801" y="-314.001" font-family="Helvetica,sans-Serif" font-size="10.00">1</text>
</a>
</g>
<!-- dir_a21a804d6482c442bcd1b39e4dfcc179 -->
<g id="node5" class="node"><title>dir_a21a804d6482c442bcd1b39e4dfcc179</title>
<a xlink:href="dir_a21a804d6482c442bcd1b39e4dfcc179.html" target="_top" xlink:title="physics">
<polygon fill="white" stroke="red" points="276,-540 222,-540 222,-504 276,-504 276,-540"/>
<text text-anchor="middle" x="249" y="-519.5" font-family="Helvetica,sans-Serif" font-size="10.00">physics</text>
</a>
</g>
<!-- dir_a21a804d6482c442bcd1b39e4dfcc179&#45;&gt;dir_4d4314fec0337faafb4fd99dc7917bfa -->
<g id="edge18" class="edge"><title>dir_a21a804d6482c442bcd1b39e4dfcc179&#45;&gt;dir_4d4314fec0337faafb4fd99dc7917bfa</title>
<path fill="none" stroke="black" d="M271.221,-503.903C281.131,-494.389 291.74,-481.835 297,-468 302.686,-453.044 302.447,-447.044 297,-432 293.285,-421.739 286.675,-412.058 279.645,-403.803"/>
<polygon fill="black" stroke="black" points="282.18,-401.389 272.858,-396.354 277.006,-406.103 282.18,-401.389"/>
<a xlink:href="dir_000004_000009.html" target="_top" xlink:title="1">
<text text-anchor="middle" x="286.7" y="-399.633" font-family="Helvetica,sans-Serif" font-size="10.00">1</text>
</a>
</g>
<!-- dir_8f68c37b22d514b4289e3a1255795d80 -->
<g id="node6" class="node"><title>dir_8f68c37b22d514b4289e3a1255795d80</title>
<a xlink:href="dir_8f68c37b22d514b4289e3a1255795d80.html" target="_top" xlink:title="plot">
<polygon fill="white" stroke="black" points="348,-252 294,-252 294,-216 348,-216 348,-252"/>
<text text-anchor="middle" x="321" y="-231.5" font-family="Helvetica,sans-Serif" font-size="10.00">plot</text>
</a>
</g>
<!-- dir_a21a804d6482c442bcd1b39e4dfcc179&#45;&gt;dir_8f68c37b22d514b4289e3a1255795d80 -->
<g id="edge16" class="edge"><title>dir_a21a804d6482c442bcd1b39e4dfcc179&#45;&gt;dir_8f68c37b22d514b4289e3a1255795d80</title>
<path fill="none" stroke="black" d="M276.253,-507.627C290.642,-498.414 306.948,-484.991 315,-468 349.377,-395.456 285.198,-366.901 300,-288 301.635,-279.284 304.634,-270.168 307.864,-261.96"/>
<polygon fill="black" stroke="black" points="311.197,-263.062 311.842,-252.487 304.743,-260.352 311.197,-263.062"/>
<a xlink:href="dir_000004_000034.html" target="_top" xlink:title="54">
<text text-anchor="middle" x="312.424" y="-264.976" font-family="Helvetica,sans-Serif" font-size="10.00">54</text>
</a>
</g>
<!-- dir_f7cc278301683119f8719a92f4ffdd26 -->
<g id="node7" class="node"><title>dir_f7cc278301683119f8719a92f4ffdd26</title>
<a xlink:href="dir_f7cc278301683119f8719a92f4ffdd26.html" target="_top" xlink:title="slowcontrol">
<polygon fill="white" stroke="red" points="288,-468 222,-468 222,-432 288,-432 288,-468"/>
<text text-anchor="middle" x="255" y="-447.5" font-family="Helvetica,sans-Serif" font-size="10.00">slowcontrol</text>
</a>
</g>
<!-- dir_a21a804d6482c442bcd1b39e4dfcc179&#45;&gt;dir_f7cc278301683119f8719a92f4ffdd26 -->
<g id="edge20" class="edge"><title>dir_a21a804d6482c442bcd1b39e4dfcc179&#45;&gt;dir_f7cc278301683119f8719a92f4ffdd26</title>
<path fill="none" stroke="black" d="M244.562,-503.831C244.453,-496.131 244.995,-486.974 246.017,-478.417"/>
<polygon fill="black" stroke="black" points="249.496,-478.816 247.49,-468.413 242.57,-477.797 249.496,-478.816"/>
<a xlink:href="dir_000004_000011.html" target="_top" xlink:title="11">
<text text-anchor="middle" x="251.781" y="-480.286" font-family="Helvetica,sans-Serif" font-size="10.00">11</text>
</a>
</g>
<!-- dir_a21a804d6482c442bcd1b39e4dfcc179&#45;&gt;dir_0a0aa297e888439a92fbcfd5e567f128 -->
<g id="edge4" class="edge"><title>dir_a21a804d6482c442bcd1b39e4dfcc179&#45;&gt;dir_0a0aa297e888439a92fbcfd5e567f128</title>
<path fill="none" stroke="black" d="M275.723,-503.91C287.008,-494.644 298.926,-482.295 305,-468 324.002,-423.279 308.198,-404.194 288,-360 283.602,-350.376 277.365,-340.733 271.166,-332.314"/>
<polygon fill="black" stroke="black" points="273.917,-330.149 265.05,-324.35 268.365,-334.413 273.917,-330.149"/>
<a xlink:href="dir_000004_000033.html" target="_top" xlink:title="223">
<text text-anchor="middle" x="278.358" y="-328.77" font-family="Helvetica,sans-Serif" font-size="10.00">223</text>
</a>
</g>
<!-- dir_a21a804d6482c442bcd1b39e4dfcc179&#45;&gt;dir_0af1587c8378955de40f48b4bd1869f0 -->
<g id="edge6" class="edge"><title>dir_a21a804d6482c442bcd1b39e4dfcc179&#45;&gt;dir_0af1587c8378955de40f48b4bd1869f0</title>
<path fill="none" stroke="black" d="M221.879,-519.137C157.343,-510.675 0,-479.623 0,-378 0,-378 0,-378 0,-162 0,-115.579 15.2752,-99.05 53,-72 88.1101,-46.8248 211.475,-29.4898 274.431,-22.0667"/>
<polygon fill="black" stroke="black" points="275.189,-25.5024 284.721,-20.8783 274.386,-18.5487 275.189,-25.5024"/>
<a xlink:href="dir_000004_000018.html" target="_top" xlink:title="206">
<text text-anchor="middle" x="271.944" y="-26.2352" font-family="Helvetica,sans-Serif" font-size="10.00">206</text>
</a>
</g>
<!-- dir_a21a804d6482c442bcd1b39e4dfcc179&#45;&gt;dir_c44c95bf3b41c3321c6014770d618ac8 -->
<g id="edge8" class="edge"><title>dir_a21a804d6482c442bcd1b39e4dfcc179&#45;&gt;dir_c44c95bf3b41c3321c6014770d618ac8</title>
<path fill="none" stroke="black" d="M276.092,-507.148C279.04,-505.929 282.043,-504.844 285,-504 451.963,-456.357 520.329,-548.819 674,-468 710.867,-448.611 716.894,-433.98 734,-396 780.658,-292.403 784.347,-208.774 691,-144 647.695,-113.951 628.114,-124.334 578,-108 572.402,-106.175 566.485,-104.225 560.701,-102.307"/>
<polygon fill="black" stroke="black" points="561.764,-98.972 551.171,-99.1355 559.554,-105.614 561.764,-98.972"/>
<a xlink:href="dir_000004_000057.html" target="_top" xlink:title="21">
<text text-anchor="middle" x="566.072" y="-94.9128" font-family="Helvetica,sans-Serif" font-size="10.00">21</text>
</a>
</g>
<!-- dir_f1b881a94df93d2a183c4d8f47373448 -->
<g id="node11" class="node"><title>dir_f1b881a94df93d2a183c4d8f47373448</title>
<a xlink:href="dir_f1b881a94df93d2a183c4d8f47373448.html" target="_top" xlink:title="calibration">
<polygon fill="white" stroke="red" points="629,-468 569,-468 569,-432 629,-432 629,-468"/>
<text text-anchor="middle" x="599" y="-447.5" font-family="Helvetica,sans-Serif" font-size="10.00">calibration</text>
</a>
</g>
<!-- dir_a21a804d6482c442bcd1b39e4dfcc179&#45;&gt;dir_f1b881a94df93d2a183c4d8f47373448 -->
<g id="edge10" class="edge"><title>dir_a21a804d6482c442bcd1b39e4dfcc179&#45;&gt;dir_f1b881a94df93d2a183c4d8f47373448</title>
<path fill="none" stroke="black" d="M276.165,-507.384C279.098,-506.119 282.079,-504.958 285,-504 335.283,-487.505 485.813,-465.501 558.647,-455.438"/>
<polygon fill="black" stroke="black" points="559.377,-458.87 568.808,-454.042 558.425,-451.936 559.377,-458.87"/>
<a xlink:href="dir_000004_000016.html" target="_top" xlink:title="4">
<text text-anchor="middle" x="556.203" y="-459.672" font-family="Helvetica,sans-Serif" font-size="10.00">4</text>
</a>
</g>
<!-- dir_ebac6f698c8ed4b70faacb8ef35cbe0d -->
<g id="node13" class="node"><title>dir_ebac6f698c8ed4b70faacb8ef35cbe0d</title>
<a xlink:href="dir_ebac6f698c8ed4b70faacb8ef35cbe0d.html" target="_top" xlink:title="root&#45;addons">
<polygon fill="white" stroke="red" points="536,-396 468,-396 468,-360 536,-360 536,-396"/>
<text text-anchor="middle" x="502" y="-375.5" font-family="Helvetica,sans-Serif" font-size="10.00">root&#45;addons</text>
</a>
</g>
<!-- dir_a21a804d6482c442bcd1b39e4dfcc179&#45;&gt;dir_ebac6f698c8ed4b70faacb8ef35cbe0d -->
<g id="edge12" class="edge"><title>dir_a21a804d6482c442bcd1b39e4dfcc179&#45;&gt;dir_ebac6f698c8ed4b70faacb8ef35cbe0d</title>
<path fill="none" stroke="black" d="M276.337,-508.21C297.228,-497.542 326.649,-482.235 352,-468 390.803,-446.211 434.331,-419.878 464.461,-401.342"/>
<polygon fill="black" stroke="black" points="466.299,-404.321 472.975,-396.093 462.626,-398.362 466.299,-404.321"/>
<a xlink:href="dir_000004_000022.html" target="_top" xlink:title="18">
<text text-anchor="middle" x="464.73" y="-406.124" font-family="Helvetica,sans-Serif" font-size="10.00">18</text>
</a>
</g>
<!-- dir_a21a804d6482c442bcd1b39e4dfcc179&#45;&gt;dir_c4f4646ab0f4a2967be5b6215a500c22 -->
<g id="edge14" class="edge"><title>dir_a21a804d6482c442bcd1b39e4dfcc179&#45;&gt;dir_c4f4646ab0f4a2967be5b6215a500c22</title>
<path fill="none" stroke="black" d="M276.101,-507.177C279.046,-505.952 282.047,-504.857 285,-504 360.723,-482.009 573.242,-512.989 638,-468 708.627,-418.934 758.951,-358.004 709,-288 695.08,-268.492 633,-251.543 591.199,-242.059"/>
<polygon fill="black" stroke="black" points="591.832,-238.615 581.312,-239.869 590.318,-245.449 591.832,-238.615"/>
<a xlink:href="dir_000004_000037.html" target="_top" xlink:title="72">
<text text-anchor="middle" x="595.956" y="-234.12" font-family="Helvetica,sans-Serif" font-size="10.00">72</text>
</a>
</g>
<!-- dir_8f68c37b22d514b4289e3a1255795d80&#45;&gt;dir_0af1587c8378955de40f48b4bd1869f0 -->
<g id="edge80" class="edge"><title>dir_8f68c37b22d514b4289e3a1255795d80&#45;&gt;dir_0af1587c8378955de40f48b4bd1869f0</title>
<path fill="none" stroke="black" d="M310.976,-215.609C306.002,-205.437 300.527,-192.38 298,-180 288.401,-132.97 291.928,-119.614 298,-72 299.085,-63.4887 301.096,-54.4011 303.262,-46.1555"/>
<polygon fill="black" stroke="black" points="306.704,-46.8414 306.03,-36.2681 299.964,-44.9542 306.704,-46.8414"/>
<a xlink:href="dir_000034_000018.html" target="_top" xlink:title="10">
<text text-anchor="middle" x="308.47" y="-48.5684" font-family="Helvetica,sans-Serif" font-size="10.00">10</text>
</a>
</g>
<!-- dir_8f68c37b22d514b4289e3a1255795d80&#45;&gt;dir_ebac6f698c8ed4b70faacb8ef35cbe0d -->
<g id="edge82" class="edge"><title>dir_8f68c37b22d514b4289e3a1255795d80&#45;&gt;dir_ebac6f698c8ed4b70faacb8ef35cbe0d</title>
<path fill="none" stroke="black" d="M339.667,-252.267C365.65,-277.666 410.005,-320.902 414,-324 428.193,-335.008 444.757,-345.672 459.662,-354.574"/>
<polygon fill="black" stroke="black" points="458.297,-357.831 468.692,-359.877 461.841,-351.795 458.297,-357.831"/>
<a xlink:href="dir_000034_000022.html" target="_top" xlink:title="1">
<text text-anchor="middle" x="453.759" y="-355.96" font-family="Helvetica,sans-Serif" font-size="10.00">1</text>
</a>
</g>
<!-- dir_8f68c37b22d514b4289e3a1255795d80&#45;&gt;dir_c4f4646ab0f4a2967be5b6215a500c22 -->
<g id="edge84" class="edge"><title>dir_8f68c37b22d514b4289e3a1255795d80&#45;&gt;dir_c4f4646ab0f4a2967be5b6215a500c22</title>
<path fill="none" stroke="black" d="M348.07,-234C402.94,-234 457.809,-234 512.679,-234"/>
<polygon fill="black" stroke="black" points="512.924,-237.5 522.924,-234 512.924,-230.5 512.924,-237.5"/>
<a xlink:href="dir_000034_000037.html" target="_top" xlink:title="1">
<text text-anchor="middle" x="509.329" y="-237.839" font-family="Helvetica,sans-Serif" font-size="10.00">1</text>
</a>
</g>
<!-- dir_f7cc278301683119f8719a92f4ffdd26&#45;&gt;dir_4d4314fec0337faafb4fd99dc7917bfa -->
<g id="edge106" class="edge"><title>dir_f7cc278301683119f8719a92f4ffdd26&#45;&gt;dir_4d4314fec0337faafb4fd99dc7917bfa</title>
<path fill="none" stroke="black" d="M254.243,-431.831C253.922,-424.131 253.541,-414.974 253.184,-406.417"/>
<polygon fill="black" stroke="black" points="256.681,-406.259 252.767,-396.413 249.687,-406.55 256.681,-406.259"/>
<a xlink:href="dir_000011_000009.html" target="_top" xlink:title="1">
<text text-anchor="middle" x="259.667" y="-407.232" font-family="Helvetica,sans-Serif" font-size="10.00">1</text>
</a>
</g>
<!-- dir_f7cc278301683119f8719a92f4ffdd26&#45;&gt;dir_a21a804d6482c442bcd1b39e4dfcc179 -->
<g id="edge98" class="edge"><title>dir_f7cc278301683119f8719a92f4ffdd26&#45;&gt;dir_a21a804d6482c442bcd1b39e4dfcc179</title>
<path fill="none" stroke="black" d="M259.442,-468.413C259.537,-476.144 258.982,-485.31 257.951,-493.854"/>
<polygon fill="black" stroke="black" points="254.476,-493.425 256.466,-503.831 261.4,-494.455 254.476,-493.425"/>
<a xlink:href="dir_000011_000004.html" target="_top" xlink:title="1">
<text text-anchor="middle" x="252.196" y="-486.952" font-family="Helvetica,sans-Serif" font-size="10.00">1</text>
</a>
</g>
<!-- dir_f7cc278301683119f8719a92f4ffdd26&#45;&gt;dir_0af1587c8378955de40f48b4bd1869f0 -->
<g id="edge100" class="edge"><title>dir_f7cc278301683119f8719a92f4ffdd26&#45;&gt;dir_0af1587c8378955de40f48b4bd1869f0</title>
<path fill="none" stroke="black" d="M221.569,-443.881C160.699,-430.601 38,-393.037 38,-306 38,-306 38,-306 38,-162 38,-56.2711 199.839,-28.0019 274.758,-20.5797"/>
<polygon fill="black" stroke="black" points="275.088,-24.0642 284.726,-19.6649 274.448,-17.0935 275.088,-24.0642"/>
<a xlink:href="dir_000011_000018.html" target="_top" xlink:title="11">
<text text-anchor="middle" x="271.768" y="-24.72" font-family="Helvetica,sans-Serif" font-size="10.00">11</text>
</a>
</g>
<!-- dir_f7cc278301683119f8719a92f4ffdd26&#45;&gt;dir_c44c95bf3b41c3321c6014770d618ac8 -->
<g id="edge102" class="edge"><title>dir_f7cc278301683119f8719a92f4ffdd26&#45;&gt;dir_c44c95bf3b41c3321c6014770d618ac8</title>
<path fill="none" stroke="black" d="M238.95,-431.65C230.997,-421.697 221.864,-408.832 216,-396 202.333,-366.095 202.803,-356.659 199,-324 189.498,-242.403 173.217,-190.41 241,-144 280.469,-116.976 418.936,-100.19 486.438,-93.4283"/>
<polygon fill="black" stroke="black" points="487.025,-96.8876 496.636,-92.4292 486.342,-89.921 487.025,-96.8876"/>
<a xlink:href="dir_000011_000057.html" target="_top" xlink:title="5">
<text text-anchor="middle" x="483.724" y="-97.5638" font-family="Helvetica,sans-Serif" font-size="10.00">5</text>
</a>
</g>
<!-- dir_f7cc278301683119f8719a92f4ffdd26&#45;&gt;dir_c4f4646ab0f4a2967be5b6215a500c22 -->
<g id="edge104" class="edge"><title>dir_f7cc278301683119f8719a92f4ffdd26&#45;&gt;dir_c4f4646ab0f4a2967be5b6215a500c22</title>
<path fill="none" stroke="black" d="M279.811,-431.955C333.096,-393.203 458.504,-301.997 518.664,-258.244"/>
<polygon fill="black" stroke="black" points="521.022,-260.857 527.051,-252.145 516.905,-255.196 521.022,-260.857"/>
<a xlink:href="dir_000011_000037.html" target="_top" xlink:title="12">
<text text-anchor="middle" x="519.785" y="-262.768" font-family="Helvetica,sans-Serif" font-size="10.00">12</text>
</a>
</g>
<!-- dir_0a0aa297e888439a92fbcfd5e567f128&#45;&gt;dir_8f68c37b22d514b4289e3a1255795d80 -->
<g id="edge28" class="edge"><title>dir_0a0aa297e888439a92fbcfd5e567f128&#45;&gt;dir_8f68c37b22d514b4289e3a1255795d80</title>
<path fill="none" stroke="black" d="M267.169,-287.831C275.715,-279.285 286.056,-268.944 295.38,-259.62"/>
<polygon fill="black" stroke="black" points="297.991,-261.959 302.587,-252.413 293.041,-257.009 297.991,-261.959"/>
<a xlink:href="dir_000033_000034.html" target="_top" xlink:title="2">
<text text-anchor="middle" x="297.456" y="-264.009" font-family="Helvetica,sans-Serif" font-size="10.00">2</text>
</a>
</g>
<!-- dir_0a0aa297e888439a92fbcfd5e567f128&#45;&gt;dir_0af1587c8378955de40f48b4bd1869f0 -->
<g id="edge22" class="edge"><title>dir_0a0aa297e888439a92fbcfd5e567f128&#45;&gt;dir_0af1587c8378955de40f48b4bd1869f0</title>
<path fill="none" stroke="black" d="M248.351,-287.863C247.898,-266.651 248.084,-230.546 253,-200 262.408,-141.534 270.579,-127.943 290,-72 293.007,-63.3392 296.639,-54.0482 300.079,-45.6568"/>
<polygon fill="black" stroke="black" points="303.357,-46.8874 303.978,-36.3108 296.897,-44.1918 303.357,-46.8874"/>
<a xlink:href="dir_000033_000018.html" target="_top" xlink:title="51">
<text text-anchor="middle" x="304.594" y="-48.7982" font-family="Helvetica,sans-Serif" font-size="10.00">51</text>
</a>
</g>
<!-- dir_0a0aa297e888439a92fbcfd5e567f128&#45;&gt;dir_c44c95bf3b41c3321c6014770d618ac8 -->
<g id="edge24" class="edge"><title>dir_0a0aa297e888439a92fbcfd5e567f128&#45;&gt;dir_c44c95bf3b41c3321c6014770d618ac8</title>
<path fill="none" stroke="black" d="M250.027,-287.81C252.366,-264.136 260.014,-223.076 285,-200 311.607,-175.427 330.367,-193.44 364,-180 409.041,-162.001 457.077,-133.594 488.628,-113.516"/>
<polygon fill="black" stroke="black" points="490.553,-116.439 497.074,-108.089 486.769,-110.55 490.553,-116.439"/>
<a xlink:href="dir_000033_000057.html" target="_top" xlink:title="19">
<text text-anchor="middle" x="489.064" y="-118.271" font-family="Helvetica,sans-Serif" font-size="10.00">19</text>
</a>
</g>
<!-- dir_0a0aa297e888439a92fbcfd5e567f128&#45;&gt;dir_c4f4646ab0f4a2967be5b6215a500c22 -->
<g id="edge26" class="edge"><title>dir_0a0aa297e888439a92fbcfd5e567f128&#45;&gt;dir_c4f4646ab0f4a2967be5b6215a500c22</title>
<path fill="none" stroke="black" d="M276.142,-289.588C277.429,-289.017 278.719,-288.484 280,-288 359.595,-257.947 458.914,-243.653 512.798,-237.682"/>
<polygon fill="black" stroke="black" points="513.378,-241.14 522.949,-236.597 512.634,-234.18 513.378,-241.14"/>
<a xlink:href="dir_000033_000037.html" target="_top" xlink:title="18">
<text text-anchor="middle" x="510.106" y="-241.846" font-family="Helvetica,sans-Serif" font-size="10.00">18</text>
</a>
</g>
<!-- dir_c44c95bf3b41c3321c6014770d618ac8&#45;&gt;dir_0af1587c8378955de40f48b4bd1869f0 -->
<g id="edge30" class="edge"><title>dir_c44c95bf3b41c3321c6014770d618ac8&#45;&gt;dir_0af1587c8378955de40f48b4bd1869f0</title>
<path fill="none" stroke="black" d="M496.719,-80.7347C459.033,-67.9358 390.936,-44.8086 348.785,-30.493"/>
<polygon fill="black" stroke="black" points="349.771,-27.1316 339.177,-27.2298 347.52,-33.7598 349.771,-27.1316"/>
<a xlink:href="dir_000057_000018.html" target="_top" xlink:title="25">
<text text-anchor="middle" x="354.088" y="-23.099" font-family="Helvetica,sans-Serif" font-size="10.00">25</text>
</a>
</g>
<!-- dir_f1b881a94df93d2a183c4d8f47373448&#45;&gt;dir_8f68c37b22d514b4289e3a1255795d80 -->
<g id="edge42" class="edge"><title>dir_f1b881a94df93d2a183c4d8f47373448&#45;&gt;dir_8f68c37b22d514b4289e3a1255795d80</title>
<path fill="none" stroke="black" d="M568.945,-441.726C539.622,-432.907 494.387,-417.276 459,-396 417.148,-370.836 407.549,-361.275 376,-324 359.605,-304.63 344.842,-279.856 334.75,-261.206"/>
<polygon fill="black" stroke="black" points="337.823,-259.531 330.049,-252.333 331.638,-262.808 337.823,-259.531"/>
<a xlink:href="dir_000016_000034.html" target="_top" xlink:title="1">
<text text-anchor="middle" x="342.015" y="-258.878" font-family="Helvetica,sans-Serif" font-size="10.00">1</text>
</a>
</g>
<!-- dir_f1b881a94df93d2a183c4d8f47373448&#45;&gt;dir_0af1587c8378955de40f48b4bd1869f0 -->
<g id="edge32" class="edge"><title>dir_f1b881a94df93d2a183c4d8f47373448&#45;&gt;dir_0af1587c8378955de40f48b4bd1869f0</title>
<path fill="none" stroke="black" d="M629.219,-440.382C652.471,-431.755 684.209,-417.167 706,-396 732.105,-370.643 736.059,-359.278 745,-324 774.461,-207.755 631.915,-86.2203 611,-72 568.886,-43.3666 420.202,-27.2065 349.667,-20.993"/>
<polygon fill="black" stroke="black" points="349.71,-17.4839 339.447,-20.1144 349.111,-24.4582 349.71,-17.4839"/>
<a xlink:href="dir_000016_000018.html" target="_top" xlink:title="110">
<text text-anchor="middle" x="353.535" y="-12.4629" font-family="Helvetica,sans-Serif" font-size="10.00">110</text>
</a>
</g>
<!-- dir_f1b881a94df93d2a183c4d8f47373448&#45;&gt;dir_c44c95bf3b41c3321c6014770d618ac8 -->
<g id="edge34" class="edge"><title>dir_f1b881a94df93d2a183c4d8f47373448&#45;&gt;dir_c44c95bf3b41c3321c6014770d618ac8</title>
<path fill="none" stroke="black" d="M628.871,-431.909C660.788,-410.635 709.546,-372.053 730,-324 742.161,-295.431 722.466,-213.459 715,-200 696.826,-167.241 683.682,-163.993 652,-144 623.242,-125.853 587.337,-111.315 560.879,-101.916"/>
<polygon fill="black" stroke="black" points="561.831,-98.5417 551.236,-98.5685 559.535,-105.155 561.831,-98.5417"/>
<a xlink:href="dir_000016_000057.html" target="_top" xlink:title="29">
<text text-anchor="middle" x="566.158" y="-94.5382" font-family="Helvetica,sans-Serif" font-size="10.00">29</text>
</a>
</g>
<!-- dir_f1b881a94df93d2a183c4d8f47373448&#45;&gt;dir_ebac6f698c8ed4b70faacb8ef35cbe0d -->
<g id="edge36" class="edge"><title>dir_f1b881a94df93d2a183c4d8f47373448&#45;&gt;dir_ebac6f698c8ed4b70faacb8ef35cbe0d</title>
<path fill="none" stroke="black" d="M568.839,-432.017C555.919,-423.083 541.029,-412.154 528.533,-402.469"/>
<polygon fill="black" stroke="black" points="530.341,-399.438 520.318,-396.003 526.011,-404.938 530.341,-399.438"/>
<a xlink:href="dir_000016_000022.html" target="_top" xlink:title="4">
<text text-anchor="middle" x="534.921" y="-396.93" font-family="Helvetica,sans-Serif" font-size="10.00">4</text>
</a>
</g>
<!-- dir_f1b881a94df93d2a183c4d8f47373448&#45;&gt;dir_c4f4646ab0f4a2967be5b6215a500c22 -->
<g id="edge38" class="edge"><title>dir_f1b881a94df93d2a183c4d8f47373448&#45;&gt;dir_c4f4646ab0f4a2967be5b6215a500c22</title>
<path fill="none" stroke="black" d="M591.128,-431.955C579.479,-394.314 560.261,-307.187 553.396,-262.125"/>
<polygon fill="black" stroke="black" points="556.851,-261.561 551.993,-252.145 549.919,-262.535 556.851,-261.561"/>
<a xlink:href="dir_000016_000037.html" target="_top" xlink:title="11">
<text text-anchor="middle" x="560.163" y="-262.225" font-family="Helvetica,sans-Serif" font-size="10.00">11</text>
</a>
</g>
<!-- dir_f1b881a94df93d2a183c4d8f47373448&#45;&gt;dir_5eb03804bf445589bf35c6aa84fb9a34 -->
<g id="edge40" class="edge"><title>dir_f1b881a94df93d2a183c4d8f47373448&#45;&gt;dir_5eb03804bf445589bf35c6aa84fb9a34</title>
<path fill="none" stroke="black" d="M607.739,-431.762C619.663,-406.876 641.127,-362.082 654.959,-333.216"/>
<polygon fill="black" stroke="black" points="658.167,-334.62 659.332,-324.09 651.854,-331.595 658.167,-334.62"/>
<a xlink:href="dir_000016_000054.html" target="_top" xlink:title="3">
<text text-anchor="middle" x="659.174" y="-336.589" font-family="Helvetica,sans-Serif" font-size="10.00">3</text>
</a>
</g>
<!-- dir_da9e88029a658bab9ad39bb8696ef9bc&#45;&gt;dir_0af1587c8378955de40f48b4bd1869f0 -->
<g id="edge44" class="edge"><title>dir_da9e88029a658bab9ad39bb8696ef9bc&#45;&gt;dir_0af1587c8378955de40f48b4bd1869f0</title>
<path fill="none" stroke="black" d="M472.696,-143.762C439.792,-118.011 379.648,-70.942 343.004,-42.2637"/>
<polygon fill="black" stroke="black" points="345.147,-39.4965 335.115,-36.0896 340.832,-45.009 345.147,-39.4965"/>
<a xlink:href="dir_000058_000018.html" target="_top" xlink:title="15">
<text text-anchor="middle" x="349.727" y="-36.9759" font-family="Helvetica,sans-Serif" font-size="10.00">15</text>
</a>
</g>
<!-- dir_da9e88029a658bab9ad39bb8696ef9bc&#45;&gt;dir_c44c95bf3b41c3321c6014770d618ac8 -->
<g id="edge46" class="edge"><title>dir_da9e88029a658bab9ad39bb8696ef9bc&#45;&gt;dir_c44c95bf3b41c3321c6014770d618ac8</title>
<path fill="none" stroke="black" d="M503.066,-143.831C506.126,-135.962 509.778,-126.571 513.168,-117.853"/>
<polygon fill="black" stroke="black" points="516.477,-119.002 516.839,-108.413 509.953,-116.465 516.477,-119.002"/>
<a xlink:href="dir_000058_000057.html" target="_top" xlink:title="10">
<text text-anchor="middle" x="517.82" y="-120.881" font-family="Helvetica,sans-Serif" font-size="10.00">10</text>
</a>
</g>
<!-- dir_da9e88029a658bab9ad39bb8696ef9bc&#45;&gt;dir_c4f4646ab0f4a2967be5b6215a500c22 -->
<g id="edge48" class="edge"><title>dir_da9e88029a658bab9ad39bb8696ef9bc&#45;&gt;dir_c4f4646ab0f4a2967be5b6215a500c22</title>
<path fill="none" stroke="black" d="M516.297,-180.413C523.495,-188.654 531.358,-198.525 537.952,-207.536"/>
<polygon fill="black" stroke="black" points="535.188,-209.69 543.821,-215.831 540.902,-205.646 535.188,-209.69"/>
<a xlink:href="dir_000058_000037.html" target="_top" xlink:title="4">
<text text-anchor="middle" x="530.794" y="-205.895" font-family="Helvetica,sans-Serif" font-size="10.00">4</text>
</a>
</g>
<!-- dir_ebac6f698c8ed4b70faacb8ef35cbe0d&#45;&gt;dir_8f68c37b22d514b4289e3a1255795d80 -->
<g id="edge62" class="edge"><title>dir_ebac6f698c8ed4b70faacb8ef35cbe0d&#45;&gt;dir_8f68c37b22d514b4289e3a1255795d80</title>
<path fill="none" stroke="black" d="M486.727,-359.659C470.1,-340.382 442.11,-309.877 414,-288 413.831,-287.869 383.315,-270.154 357.288,-255.052"/>
<polygon fill="black" stroke="black" points="358.733,-251.844 348.327,-249.853 355.22,-257.899 358.733,-251.844"/>
<a xlink:href="dir_000022_000034.html" target="_top" xlink:title="19">
<text text-anchor="middle" x="363.267" y="-248.692" font-family="Helvetica,sans-Serif" font-size="10.00">19</text>
</a>
</g>
<!-- dir_ebac6f698c8ed4b70faacb8ef35cbe0d&#45;&gt;dir_0a0aa297e888439a92fbcfd5e567f128 -->
<g id="edge50" class="edge"><title>dir_ebac6f698c8ed4b70faacb8ef35cbe0d&#45;&gt;dir_0a0aa297e888439a92fbcfd5e567f128</title>
<path fill="none" stroke="black" d="M467.97,-372.854C425.661,-365.79 351.415,-351.203 285.784,-326.121"/>
<polygon fill="black" stroke="black" points="286.756,-322.742 276.168,-322.344 284.197,-329.258 286.756,-322.742"/>
<a xlink:href="dir_000022_000033.html" target="_top" xlink:title="5">
<text text-anchor="middle" x="291.14" y="-318.914" font-family="Helvetica,sans-Serif" font-size="10.00">5</text>
</a>
</g>
<!-- dir_ebac6f698c8ed4b70faacb8ef35cbe0d&#45;&gt;dir_0af1587c8378955de40f48b4bd1869f0 -->
<g id="edge52" class="edge"><title>dir_ebac6f698c8ed4b70faacb8ef35cbe0d&#45;&gt;dir_0af1587c8378955de40f48b4bd1869f0</title>
<path fill="none" stroke="black" d="M492.317,-359.653C461.188,-300.672 363.559,-115.69 326.481,-45.437"/>
<polygon fill="black" stroke="black" points="329.427,-43.5206 321.664,-36.3104 323.236,-46.788 329.427,-43.5206"/>
<a xlink:href="dir_000022_000018.html" target="_top" xlink:title="48">
<text text-anchor="middle" x="333.616" y="-42.8744" font-family="Helvetica,sans-Serif" font-size="10.00">48</text>
</a>
</g>
<!-- dir_ebac6f698c8ed4b70faacb8ef35cbe0d&#45;&gt;dir_c44c95bf3b41c3321c6014770d618ac8 -->
<g id="edge54" class="edge"><title>dir_ebac6f698c8ed4b70faacb8ef35cbe0d&#45;&gt;dir_c44c95bf3b41c3321c6014770d618ac8</title>
<path fill="none" stroke="black" d="M536.088,-374.116C589.247,-367.28 687.996,-351.186 709,-324 770.967,-243.794 630.06,-149.459 560.257,-109.475"/>
<polygon fill="black" stroke="black" points="561.739,-106.293 551.31,-104.425 558.298,-112.389 561.739,-106.293"/>
<a xlink:href="dir_000022_000057.html" target="_top" xlink:title="10">
<text text-anchor="middle" x="566.265" y="-103.087" font-family="Helvetica,sans-Serif" font-size="10.00">10</text>
</a>
</g>
<!-- dir_ebac6f698c8ed4b70faacb8ef35cbe0d&#45;&gt;dir_f1b881a94df93d2a183c4d8f47373448 -->
<g id="edge56" class="edge"><title>dir_ebac6f698c8ed4b70faacb8ef35cbe0d&#45;&gt;dir_f1b881a94df93d2a183c4d8f47373448</title>
<path fill="none" stroke="black" d="M532.421,-396.163C545.232,-405.03 559.943,-415.829 572.326,-425.422"/>
<polygon fill="black" stroke="black" points="570.451,-428.4 580.475,-431.831 574.779,-422.898 570.451,-428.4"/>
<a xlink:href="dir_000022_000016.html" target="_top" xlink:title="1">
<text text-anchor="middle" x="565.871" y="-425.909" font-family="Helvetica,sans-Serif" font-size="10.00">1</text>
</a>
</g>
<!-- dir_ebac6f698c8ed4b70faacb8ef35cbe0d&#45;&gt;dir_c4f4646ab0f4a2967be5b6215a500c22 -->
<g id="edge58" class="edge"><title>dir_ebac6f698c8ed4b70faacb8ef35cbe0d&#45;&gt;dir_c4f4646ab0f4a2967be5b6215a500c22</title>
<path fill="none" stroke="black" d="M511.782,-359.878C517.077,-349.568 523.447,-336.294 528,-324 535.511,-303.717 541.725,-280.062 545.947,-262.094"/>
<polygon fill="black" stroke="black" points="549.383,-262.769 548.197,-252.24 542.558,-261.21 549.383,-262.769"/>
<a xlink:href="dir_000022_000037.html" target="_top" xlink:title="6">
<text text-anchor="middle" x="551.35" y="-264.405" font-family="Helvetica,sans-Serif" font-size="10.00">6</text>
</a>
</g>
<!-- dir_ebac6f698c8ed4b70faacb8ef35cbe0d&#45;&gt;dir_5eb03804bf445589bf35c6aa84fb9a34 -->
<g id="edge60" class="edge"><title>dir_ebac6f698c8ed4b70faacb8ef35cbe0d&#45;&gt;dir_5eb03804bf445589bf35c6aa84fb9a34</title>
<path fill="none" stroke="black" d="M536.395,-363.082C562.56,-351.733 598.674,-336.069 626.453,-324.02"/>
<polygon fill="black" stroke="black" points="628.12,-327.113 635.901,-319.922 625.334,-320.691 628.12,-327.113"/>
<a xlink:href="dir_000022_000054.html" target="_top" xlink:title="1">
<text text-anchor="middle" x="625.952" y="-328.648" font-family="Helvetica,sans-Serif" font-size="10.00">1</text>
</a>
</g>
<!-- dir_c4f4646ab0f4a2967be5b6215a500c22&#45;&gt;dir_0af1587c8378955de40f48b4bd1869f0 -->
<g id="edge64" class="edge"><title>dir_c4f4646ab0f4a2967be5b6215a500c22&#45;&gt;dir_0af1587c8378955de40f48b4bd1869f0</title>
<path fill="none" stroke="black" d="M559.913,-215.815C572.792,-183.082 593.655,-113.772 560,-72 533.997,-39.7256 412.295,-25.7249 349.58,-20.5692"/>
<polygon fill="black" stroke="black" points="349.562,-17.057 339.318,-19.7614 349.013,-24.0354 349.562,-17.057"/>
<a xlink:href="dir_000037_000018.html" target="_top" xlink:title="31">
<text text-anchor="middle" x="353.368" y="-12.0085" font-family="Helvetica,sans-Serif" font-size="10.00">31</text>
</a>
</g>
<!-- dir_c4f4646ab0f4a2967be5b6215a500c22&#45;&gt;dir_c44c95bf3b41c3321c6014770d618ac8 -->
<g id="edge66" class="edge"><title>dir_c4f4646ab0f4a2967be5b6215a500c22&#45;&gt;dir_c44c95bf3b41c3321c6014770d618ac8</title>
<path fill="none" stroke="black" d="M548.454,-215.762C543.657,-191.093 535.056,-146.86 529.439,-117.973"/>
<polygon fill="black" stroke="black" points="532.862,-117.238 527.517,-108.09 525.991,-118.574 532.862,-117.238"/>
<a xlink:href="dir_000037_000057.html" target="_top" xlink:title="10">
<text text-anchor="middle" x="536.335" y="-117.724" font-family="Helvetica,sans-Serif" font-size="10.00">10</text>
</a>
</g>
<!-- dir_c4f4646ab0f4a2967be5b6215a500c22&#45;&gt;dir_f1b881a94df93d2a183c4d8f47373448 -->
<g id="edge68" class="edge"><title>dir_c4f4646ab0f4a2967be5b6215a500c22&#45;&gt;dir_f1b881a94df93d2a183c4d8f47373448</title>
<path fill="none" stroke="black" d="M559.903,-252.145C571.566,-289.874 590.779,-377.008 597.622,-421.996"/>
<polygon fill="black" stroke="black" points="594.164,-422.539 599.02,-431.955 601.096,-421.566 594.164,-422.539"/>
<a xlink:href="dir_000037_000016.html" target="_top" xlink:title="91">
<text text-anchor="middle" x="590.853" y="-416.873" font-family="Helvetica,sans-Serif" font-size="10.00">91</text>
</a>
</g>
<!-- dir_c4f4646ab0f4a2967be5b6215a500c22&#45;&gt;dir_da9e88029a658bab9ad39bb8696ef9bc -->
<g id="edge70" class="edge"><title>dir_c4f4646ab0f4a2967be5b6215a500c22&#45;&gt;dir_da9e88029a658bab9ad39bb8696ef9bc</title>
<path fill="none" stroke="black" d="M531.916,-215.831C524.732,-207.623 516.863,-197.761 510.245,-188.732"/>
<polygon fill="black" stroke="black" points="512.985,-186.546 504.345,-180.413 507.275,-190.595 512.985,-186.546"/>
<a xlink:href="dir_000037_000058.html" target="_top" xlink:title="12">
<text text-anchor="middle" x="517.38" y="-185.336" font-family="Helvetica,sans-Serif" font-size="10.00">12</text>
</a>
</g>
<!-- dir_c4f4646ab0f4a2967be5b6215a500c22&#45;&gt;dir_5eb03804bf445589bf35c6aa84fb9a34 -->
<g id="edge72" class="edge"><title>dir_c4f4646ab0f4a2967be5b6215a500c22&#45;&gt;dir_5eb03804bf445589bf35c6aa84fb9a34</title>
<path fill="none" stroke="black" d="M581.372,-248.771C598.111,-258.405 618.99,-271.195 636.111,-282.241"/>
<polygon fill="black" stroke="black" points="634.393,-285.298 644.681,-287.831 638.218,-279.436 634.393,-285.298"/>
<a xlink:href="dir_000037_000054.html" target="_top" xlink:title="2">
<text text-anchor="middle" x="629.831" y="-283.212" font-family="Helvetica,sans-Serif" font-size="10.00">2</text>
</a>
</g>
<!-- dir_5eb03804bf445589bf35c6aa84fb9a34&#45;&gt;dir_0af1587c8378955de40f48b4bd1869f0 -->
<g id="edge74" class="edge"><title>dir_5eb03804bf445589bf35c6aa84fb9a34&#45;&gt;dir_0af1587c8378955de40f48b4bd1869f0</title>
<path fill="none" stroke="black" d="M667.099,-287.712C663.864,-243.268 649.098,-129.058 582,-72 547.418,-42.5921 415.536,-27.0972 349.763,-21.0577"/>
<polygon fill="black" stroke="black" points="349.692,-17.5376 339.421,-20.1362 349.071,-24.51 349.692,-17.5376"/>
<a xlink:href="dir_000054_000018.html" target="_top" xlink:title="11">
<text text-anchor="middle" x="353.524" y="-12.5285" font-family="Helvetica,sans-Serif" font-size="10.00">11</text>
</a>
</g>
<!-- dir_5eb03804bf445589bf35c6aa84fb9a34&#45;&gt;dir_c44c95bf3b41c3321c6014770d618ac8 -->
<g id="edge76" class="edge"><title>dir_5eb03804bf445589bf35c6aa84fb9a34&#45;&gt;dir_c44c95bf3b41c3321c6014770d618ac8</title>
<path fill="none" stroke="black" d="M655.97,-287.955C630.612,-249.917 571.562,-161.343 541.808,-116.713"/>
<polygon fill="black" stroke="black" points="544.556,-114.524 536.097,-108.145 538.732,-118.407 544.556,-114.524"/>
<a xlink:href="dir_000054_000057.html" target="_top" xlink:title="7">
<text text-anchor="middle" x="548.912" y="-113.44" font-family="Helvetica,sans-Serif" font-size="10.00">7</text>
</a>
</g>
<!-- dir_5eb03804bf445589bf35c6aa84fb9a34&#45;&gt;dir_c4f4646ab0f4a2967be5b6215a500c22 -->
<g id="edge78" class="edge"><title>dir_5eb03804bf445589bf35c6aa84fb9a34&#45;&gt;dir_c4f4646ab0f4a2967be5b6215a500c22</title>
<path fill="none" stroke="black" d="M635.917,-289.662C619.629,-280.21 599.99,-268.15 583.755,-257.673"/>
<polygon fill="black" stroke="black" points="585.415,-254.577 575.128,-252.042 581.589,-260.439 585.415,-254.577"/>
<a xlink:href="dir_000054_000037.html" target="_top" xlink:title="7">
<text text-anchor="middle" x="589.977" y="-251.665" font-family="Helvetica,sans-Serif" font-size="10.00">7</text>
</a>
</g>
</g>
</svg>
