<?xml version="1.0" encoding="UTF-8" standalone="no"?>
<!DOCTYPE svg PUBLIC "-//W3C//DTD SVG 1.1//EN"
 "http://www.w3.org/Graphics/SVG/1.1/DTD/svg11.dtd">
<!-- Generated by graphviz version 2.26.3 (20100126.1600)
 -->
<!-- Title: src/analysis/slowcontrol Pages: 1 -->
<svg width="356pt" height="593pt"
 viewBox="0.00 0.00 356.06 593.00" xmlns="http://www.w3.org/2000/svg" xmlns:xlink="http://www.w3.org/1999/xlink">
<g id="graph1" class="graph" transform="scale(1 1) rotate(0) translate(4 589)">
<title>src/analysis/slowcontrol</title>
<polygon fill="white" stroke="white" points="-4,5 -4,-589 353.057,-589 353.057,5 -4,5"/>
<g id="graph2" class="cluster"><title>clusterdir_2eec376824a17f48dc36b4bd0c810e01</title>
<a xlink:href="dir_2eec376824a17f48dc36b4bd0c810e01.html" target="_top" xlink:title="analysis">
<polygon fill="#ddddee" stroke="black" points="123.057,-344 123.057,-577 231.057,-577 231.057,-344 123.057,-344"/>
<text text-anchor="middle" x="177.057" y="-564" font-family="Helvetica,sans-Serif" font-size="10.00">analysis</text>
</a>
</g>
<g id="graph3" class="cluster"><title>clusterdir_f7cc278301683119f8719a92f4ffdd26</title>
<a xlink:href="dir_f7cc278301683119f8719a92f4ffdd26.html" target="_top">
<polygon fill="#eeeeff" stroke="black" points="131.057,-352 131.057,-548 223.057,-548 223.057,-352 131.057,-352"/>
</a>
</g>
<!-- dir_f7cc278301683119f8719a92f4ffdd26 -->
<g id="node3" class="node"><title>dir_f7cc278301683119f8719a92f4ffdd26</title>
<text text-anchor="middle" x="182.057" y="-519.5" font-family="Helvetica,sans-Serif" font-size="10.00">slowcontrol</text>
</g>
<!-- dir_4454ae6065d7630381486b11e7157943 -->
<g id="node4" class="node"><title>dir_4454ae6065d7630381486b11e7157943</title>
<a xlink:href="dir_4454ae6065d7630381486b11e7157943.html" target="_top" xlink:title="processors">
<polygon fill="white" stroke="black" points="203.057,-396 139.057,-396 139.057,-360 203.057,-360 203.057,-396"/>
<text text-anchor="middle" x="171.057" y="-375.5" font-family="Helvetica,sans-Serif" font-size="10.00">processors</text>
</a>
</g>
<!-- dir_f7cc278301683119f8719a92f4ffdd26&#45;&gt;dir_4454ae6065d7630381486b11e7157943 -->
<g id="edge38" class="edge"><title>dir_f7cc278301683119f8719a92f4ffdd26&#45;&gt;dir_4454ae6065d7630381486b11e7157943</title>
<path fill="none" stroke="black" d="M167.821,-503.642C161.003,-493.687 153.57,-480.822 150.057,-468 144.332,-447.11 150.485,-423.224 157.58,-405.311"/>
<polygon fill="black" stroke="black" points="160.835,-406.602 161.55,-396.031 154.399,-403.849 160.835,-406.602"/>
<a xlink:href="dir_000011_000035.html" target="_top" xlink:title="6">
<text text-anchor="middle" x="162.032" y="-408.524" font-family="Helvetica,sans-Serif" font-size="10.00">6</text>
</a>
</g>
<!-- dir_97d7ae7e922b766f0c3724741ecf7645 -->
<g id="node5" class="node"><title>dir_97d7ae7e922b766f0c3724741ecf7645</title>
<a xlink:href="dir_97d7ae7e922b766f0c3724741ecf7645.html" target="_top" xlink:title="variables">
<polygon fill="white" stroke="black" points="215.057,-468 159.057,-468 159.057,-432 215.057,-432 215.057,-468"/>
<text text-anchor="middle" x="187.057" y="-447.5" font-family="Helvetica,sans-Serif" font-size="10.00">variables</text>
</a>
</g>
<!-- dir_f7cc278301683119f8719a92f4ffdd26&#45;&gt;dir_97d7ae7e922b766f0c3724741ecf7645 -->
<g id="edge40" class="edge"><title>dir_f7cc278301683119f8719a92f4ffdd26&#45;&gt;dir_97d7ae7e922b766f0c3724741ecf7645</title>
<path fill="none" stroke="black" d="M183.318,-503.831C183.853,-496.131 184.489,-486.974 185.083,-478.417"/>
<polygon fill="black" stroke="black" points="188.577,-478.632 185.778,-468.413 181.593,-478.147 188.577,-478.632"/>
<a xlink:href="dir_000011_000036.html" target="_top" xlink:title="6">
<text text-anchor="middle" x="191.16" y="-479.914" font-family="Helvetica,sans-Serif" font-size="10.00">6</text>
</a>
</g>
<!-- dir_4d4314fec0337faafb4fd99dc7917bfa -->
<g id="node10" class="node"><title>dir_4d4314fec0337faafb4fd99dc7917bfa</title>
<a xlink:href="dir_4d4314fec0337faafb4fd99dc7917bfa.html" target="_top" xlink:title="input">
<polygon fill="white" stroke="red" points="348.057,-252 294.057,-252 294.057,-216 348.057,-216 348.057,-252"/>
<text text-anchor="middle" x="321.057" y="-231.5" font-family="Helvetica,sans-Serif" font-size="10.00">input</text>
</a>
</g>
<!-- dir_f7cc278301683119f8719a92f4ffdd26&#45;&gt;dir_4d4314fec0337faafb4fd99dc7917bfa -->
<g id="edge42" class="edge"><title>dir_f7cc278301683119f8719a92f4ffdd26&#45;&gt;dir_4d4314fec0337faafb4fd99dc7917bfa</title>
<path fill="none" stroke="black" d="M198.133,-503.888C206.564,-493.796 216.649,-480.729 224.057,-468 264.994,-397.65 297.439,-306.711 312.274,-261.726"/>
<polygon fill="black" stroke="black" points="315.646,-262.674 315.416,-252.082 308.99,-260.506 315.646,-262.674"/>
<a xlink:href="dir_000011_000009.html" target="_top" xlink:title="1">
<text text-anchor="middle" x="317.232" y="-264.472" font-family="Helvetica,sans-Serif" font-size="10.00">1</text>
</a>
</g>
<!-- dir_a21a804d6482c442bcd1b39e4dfcc179 -->
<g id="node6" class="node"><title>dir_a21a804d6482c442bcd1b39e4dfcc179</title>
<a xlink:href="dir_a21a804d6482c442bcd1b39e4dfcc179.html" target="_top" xlink:title="physics">
<polygon fill="white" stroke="red" points="198.057,-324 144.057,-324 144.057,-288 198.057,-288 198.057,-324"/>
<text text-anchor="middle" x="171.057" y="-303.5" font-family="Helvetica,sans-Serif" font-size="10.00">physics</text>
</a>
</g>
<!-- dir_4454ae6065d7630381486b11e7157943&#45;&gt;dir_a21a804d6482c442bcd1b39e4dfcc179 -->
<g id="edge12" class="edge"><title>dir_4454ae6065d7630381486b11e7157943&#45;&gt;dir_a21a804d6482c442bcd1b39e4dfcc179</title>
<path fill="none" stroke="black" d="M171.057,-359.831C171.057,-352.131 171.057,-342.974 171.057,-334.417"/>
<polygon fill="black" stroke="black" points="174.557,-334.413 171.057,-324.413 167.557,-334.413 174.557,-334.413"/>
<a xlink:href="dir_000035_000004.html" target="_top" xlink:title="1">
<text text-anchor="middle" x="177.396" y="-335.508" font-family="Helvetica,sans-Serif" font-size="10.00">1</text>
</a>
</g>
<!-- dir_0af1587c8378955de40f48b4bd1869f0 -->
<g id="node7" class="node"><title>dir_0af1587c8378955de40f48b4bd1869f0</title>
<a xlink:href="dir_0af1587c8378955de40f48b4bd1869f0.html" target="_top" xlink:title="base">
<polygon fill="white" stroke="red" points="141.057,-36 87.0565,-36 87.0565,-1.77636e-14 141.057,-3.55271e-15 141.057,-36"/>
<text text-anchor="middle" x="114.057" y="-15.5" font-family="Helvetica,sans-Serif" font-size="10.00">base</text>
</a>
</g>
<!-- dir_4454ae6065d7630381486b11e7157943&#45;&gt;dir_0af1587c8378955de40f48b4bd1869f0 -->
<g id="edge14" class="edge"><title>dir_4454ae6065d7630381486b11e7157943&#45;&gt;dir_0af1587c8378955de40f48b4bd1869f0</title>
<path fill="none" stroke="black" d="M138.893,-367.484C89.3582,-349.029 0.0565304,-305.802 0.0565304,-234 0.0565304,-234 0.0565304,-234 0.0565304,-162 0.0565304,-120.602 -0.847956,-105.069 24.0565,-72 37.6541,-53.9448 59.2048,-40.7084 77.809,-31.86"/>
<polygon fill="black" stroke="black" points="79.254,-35.0479 86.9336,-27.7489 76.3785,-28.6657 79.254,-35.0479"/>
<a xlink:href="dir_000035_000018.html" target="_top" xlink:title="1">
<text text-anchor="middle" x="77.143" y="-36.6131" font-family="Helvetica,sans-Serif" font-size="10.00">1</text>
</a>
</g>
<!-- dir_c44c95bf3b41c3321c6014770d618ac8 -->
<g id="node8" class="node"><title>dir_c44c95bf3b41c3321c6014770d618ac8</title>
<a xlink:href="dir_c44c95bf3b41c3321c6014770d618ac8.html" target="_top" xlink:title="tree">
<polygon fill="none" stroke="black" points="179.057,-108 125.057,-108 125.057,-72 179.057,-72 179.057,-108"/>
<text text-anchor="middle" x="152.057" y="-87.5" font-family="Helvetica,sans-Serif" font-size="10.00">tree</text>
</a>
</g>
<!-- dir_4454ae6065d7630381486b11e7157943&#45;&gt;dir_c44c95bf3b41c3321c6014770d618ac8 -->
<g id="edge16" class="edge"><title>dir_4454ae6065d7630381486b11e7157943&#45;&gt;dir_c44c95bf3b41c3321c6014770d618ac8</title>
<path fill="none" stroke="black" d="M155.066,-359.917C147.403,-350.037 139.04,-337.156 135.057,-324 113.311,-252.179 131.668,-162.542 143.67,-117.928"/>
<polygon fill="black" stroke="black" points="147.096,-118.671 146.41,-108.098 140.353,-116.791 147.096,-118.671"/>
<a xlink:href="dir_000035_000057.html" target="_top" xlink:title="2">
<text text-anchor="middle" x="148.866" y="-120.396" font-family="Helvetica,sans-Serif" font-size="10.00">2</text>
</a>
</g>
<!-- dir_c4f4646ab0f4a2967be5b6215a500c22 -->
<g id="node9" class="node"><title>dir_c4f4646ab0f4a2967be5b6215a500c22</title>
<a xlink:href="dir_c4f4646ab0f4a2967be5b6215a500c22.html" target="_top" xlink:title="expconfig">
<polygon fill="white" stroke="red" points="246.057,-180 188.057,-180 188.057,-144 246.057,-144 246.057,-180"/>
<text text-anchor="middle" x="217.057" y="-159.5" font-family="Helvetica,sans-Serif" font-size="10.00">expconfig</text>
</a>
</g>
<!-- dir_4454ae6065d7630381486b11e7157943&#45;&gt;dir_c4f4646ab0f4a2967be5b6215a500c22 -->
<g id="edge18" class="edge"><title>dir_4454ae6065d7630381486b11e7157943&#45;&gt;dir_c4f4646ab0f4a2967be5b6215a500c22</title>
<path fill="none" stroke="black" d="M186.715,-359.811C194.288,-349.902 202.67,-337.027 207.057,-324 222.166,-279.134 221.75,-223.383 219.679,-190.359"/>
<polygon fill="black" stroke="black" points="223.148,-189.799 218.934,-180.079 216.167,-190.306 223.148,-189.799"/>
<a xlink:href="dir_000035_000037.html" target="_top" xlink:title="7">
<text text-anchor="middle" x="226.24" y="-190.679" font-family="Helvetica,sans-Serif" font-size="10.00">7</text>
</a>
</g>
<!-- dir_97d7ae7e922b766f0c3724741ecf7645&#45;&gt;dir_4454ae6065d7630381486b11e7157943 -->
<g id="edge26" class="edge"><title>dir_97d7ae7e922b766f0c3724741ecf7645&#45;&gt;dir_4454ae6065d7630381486b11e7157943</title>
<path fill="none" stroke="black" d="M183.019,-431.831C181.308,-424.131 179.273,-414.974 177.371,-406.417"/>
<polygon fill="black" stroke="black" points="180.734,-405.416 175.148,-396.413 173.901,-406.934 180.734,-405.416"/>
<a xlink:href="dir_000036_000035.html" target="_top" xlink:title="1">
<text text-anchor="middle" x="184.286" y="-405.809" font-family="Helvetica,sans-Serif" font-size="10.00">1</text>
</a>
</g>
<!-- dir_97d7ae7e922b766f0c3724741ecf7645&#45;&gt;dir_0af1587c8378955de40f48b4bd1869f0 -->
<g id="edge28" class="edge"><title>dir_97d7ae7e922b766f0c3724741ecf7645&#45;&gt;dir_0af1587c8378955de40f48b4bd1869f0</title>
<path fill="none" stroke="black" d="M159.031,-438.272C115.869,-418.117 38.0565,-372.553 38.0565,-306 38.0565,-306 38.0565,-306 38.0565,-162 38.0565,-116.656 67.895,-71.5999 90.1791,-44.2735"/>
<polygon fill="black" stroke="black" points="93.0571,-46.2889 96.811,-36.3814 87.698,-41.7856 93.0571,-46.2889"/>
<a xlink:href="dir_000036_000018.html" target="_top" xlink:title="9">
<text text-anchor="middle" x="92.9183" y="-48.3675" font-family="Helvetica,sans-Serif" font-size="10.00">9</text>
</a>
</g>
<!-- dir_97d7ae7e922b766f0c3724741ecf7645&#45;&gt;dir_c4f4646ab0f4a2967be5b6215a500c22 -->
<g id="edge30" class="edge"><title>dir_97d7ae7e922b766f0c3724741ecf7645&#45;&gt;dir_c4f4646ab0f4a2967be5b6215a500c22</title>
<path fill="none" stroke="black" d="M196.75,-431.949C201.932,-421.66 208.051,-408.385 212.057,-396 232.001,-334.334 231.029,-316.686 235.057,-252 236.051,-236.031 237.619,-231.793 235.057,-216 233.639,-207.262 231.009,-198.027 228.189,-189.714"/>
<polygon fill="black" stroke="black" points="231.415,-188.34 224.724,-180.124 224.831,-190.719 231.415,-188.34"/>
<a xlink:href="dir_000036_000037.html" target="_top" xlink:title="5">
<text text-anchor="middle" x="235.306" y="-188.256" font-family="Helvetica,sans-Serif" font-size="10.00">5</text>
</a>
</g>
<!-- dir_a21a804d6482c442bcd1b39e4dfcc179&#45;&gt;dir_0af1587c8378955de40f48b4bd1869f0 -->
<g id="edge4" class="edge"><title>dir_a21a804d6482c442bcd1b39e4dfcc179&#45;&gt;dir_0af1587c8378955de40f48b4bd1869f0</title>
<path fill="none" stroke="black" d="M164.339,-287.768C151.996,-253.257 126.061,-175.764 116.057,-108 113.018,-87.4172 112.598,-63.9035 112.896,-46.0731"/>
<polygon fill="black" stroke="black" points="116.396,-46.1251 113.149,-36.0402 109.398,-45.949 116.396,-46.1251"/>
<a xlink:href="dir_000004_000018.html" target="_top" xlink:title="206">
<text text-anchor="middle" x="119.144" y="-47.2899" font-family="Helvetica,sans-Serif" font-size="10.00">206</text>
</a>
</g>
<!-- dir_a21a804d6482c442bcd1b39e4dfcc179&#45;&gt;dir_c44c95bf3b41c3321c6014770d618ac8 -->
<g id="edge6" class="edge"><title>dir_a21a804d6482c442bcd1b39e4dfcc179&#45;&gt;dir_c44c95bf3b41c3321c6014770d618ac8</title>
<path fill="none" stroke="black" d="M169.469,-287.955C166.158,-250.314 158.494,-163.187 154.53,-118.125"/>
<polygon fill="black" stroke="black" points="158.015,-117.8 153.653,-108.145 151.042,-118.413 158.015,-117.8"/>
<a xlink:href="dir_000004_000057.html" target="_top" xlink:title="21">
<text text-anchor="middle" x="161.159" y="-118.632" font-family="Helvetica,sans-Serif" font-size="10.00">21</text>
</a>
</g>
<!-- dir_a21a804d6482c442bcd1b39e4dfcc179&#45;&gt;dir_c4f4646ab0f4a2967be5b6215a500c22 -->
<g id="edge8" class="edge"><title>dir_a21a804d6482c442bcd1b39e4dfcc179&#45;&gt;dir_c4f4646ab0f4a2967be5b6215a500c22</title>
<path fill="none" stroke="black" d="M176.882,-287.762C184.763,-263.093 198.893,-218.86 208.121,-189.973"/>
<polygon fill="black" stroke="black" points="211.569,-190.68 211.278,-180.09 204.901,-188.55 211.569,-190.68"/>
<a xlink:href="dir_000004_000037.html" target="_top" xlink:title="72">
<text text-anchor="middle" x="213.18" y="-192.469" font-family="Helvetica,sans-Serif" font-size="10.00">72</text>
</a>
</g>
<!-- dir_a21a804d6482c442bcd1b39e4dfcc179&#45;&gt;dir_4d4314fec0337faafb4fd99dc7917bfa -->
<g id="edge10" class="edge"><title>dir_a21a804d6482c442bcd1b39e4dfcc179&#45;&gt;dir_4d4314fec0337faafb4fd99dc7917bfa</title>
<path fill="none" stroke="black" d="M198.22,-292.961C222.463,-281.325 258.149,-264.196 284.818,-251.394"/>
<polygon fill="black" stroke="black" points="286.341,-254.546 293.842,-247.063 283.312,-248.235 286.341,-254.546"/>
<a xlink:href="dir_000004_000009.html" target="_top" xlink:title="1">
<text text-anchor="middle" x="284.329" y="-256.161" font-family="Helvetica,sans-Serif" font-size="10.00">1</text>
</a>
</g>
<!-- dir_c44c95bf3b41c3321c6014770d618ac8&#45;&gt;dir_0af1587c8378955de40f48b4bd1869f0 -->
<g id="edge20" class="edge"><title>dir_c44c95bf3b41c3321c6014770d618ac8&#45;&gt;dir_0af1587c8378955de40f48b4bd1869f0</title>
<path fill="none" stroke="black" d="M142.468,-71.8314C138.225,-63.7925 133.144,-54.1666 128.461,-45.2918"/>
<polygon fill="black" stroke="black" points="131.538,-43.6235 123.775,-36.4133 125.347,-46.8908 131.538,-43.6235"/>
<a xlink:href="dir_000057_000018.html" target="_top" xlink:title="25">
<text text-anchor="middle" x="135.726" y="-42.9772" font-family="Helvetica,sans-Serif" font-size="10.00">25</text>
</a>
</g>
<!-- dir_c4f4646ab0f4a2967be5b6215a500c22&#45;&gt;dir_0af1587c8378955de40f48b4bd1869f0 -->
<g id="edge22" class="edge"><title>dir_c4f4646ab0f4a2967be5b6215a500c22&#45;&gt;dir_0af1587c8378955de40f48b4bd1869f0</title>
<path fill="none" stroke="black" d="M214.625,-143.937C211.297,-124.617 203.832,-93.8165 188.057,-72 178.119,-58.2563 163.619,-46.5925 150.083,-37.6606"/>
<polygon fill="black" stroke="black" points="151.714,-34.5513 141.385,-32.1912 147.987,-40.4772 151.714,-34.5513"/>
<a xlink:href="dir_000037_000018.html" target="_top" xlink:title="31">
<text text-anchor="middle" x="156.268" y="-31.5611" font-family="Helvetica,sans-Serif" font-size="10.00">31</text>
</a>
</g>
<!-- dir_c4f4646ab0f4a2967be5b6215a500c22&#45;&gt;dir_c44c95bf3b41c3321c6014770d618ac8 -->
<g id="edge24" class="edge"><title>dir_c4f4646ab0f4a2967be5b6215a500c22&#45;&gt;dir_c44c95bf3b41c3321c6014770d618ac8</title>
<path fill="none" stroke="black" d="M200.654,-143.831C193.015,-135.369 183.788,-125.149 175.436,-115.897"/>
<polygon fill="black" stroke="black" points="177.979,-113.491 168.68,-108.413 172.783,-118.181 177.979,-113.491"/>
<a xlink:href="dir_000037_000057.html" target="_top" xlink:title="10">
<text text-anchor="middle" x="182.495" y="-111.756" font-family="Helvetica,sans-Serif" font-size="10.00">10</text>
</a>
</g>
<!-- dir_4d4314fec0337faafb4fd99dc7917bfa&#45;&gt;dir_0af1587c8378955de40f48b4bd1869f0 -->
<g id="edge32" class="edge"><title>dir_4d4314fec0337faafb4fd99dc7917bfa&#45;&gt;dir_0af1587c8378955de40f48b4bd1869f0</title>
<path fill="none" stroke="black" d="M316.193,-215.672C310.608,-196.679 300.22,-166.656 285.057,-144 251.068,-93.2148 189.429,-55.381 150.179,-35.0115"/>
<polygon fill="black" stroke="black" points="151.698,-31.8575 141.197,-30.4516 148.529,-38.0992 151.698,-31.8575"/>
<a xlink:href="dir_000009_000018.html" target="_top" xlink:title="15">
<text text-anchor="middle" x="156.188" y="-28.4528" font-family="Helvetica,sans-Serif" font-size="10.00">15</text>
</a>
</g>
<!-- dir_4d4314fec0337faafb4fd99dc7917bfa&#45;&gt;dir_c44c95bf3b41c3321c6014770d618ac8 -->
<g id="edge34" class="edge"><title>dir_4d4314fec0337faafb4fd99dc7917bfa&#45;&gt;dir_c44c95bf3b41c3321c6014770d618ac8</title>
<path fill="none" stroke="black" d="M311.154,-215.872C299.704,-196.211 279.292,-164.851 255.057,-144 235.413,-127.1 209.577,-113.573 188.695,-104.284"/>
<polygon fill="black" stroke="black" points="190.058,-101.06 179.49,-100.318 187.288,-107.489 190.058,-101.06"/>
<a xlink:href="dir_000009_000057.html" target="_top" xlink:title="8">
<text text-anchor="middle" x="194.483" y="-97.3752" font-family="Helvetica,sans-Serif" font-size="10.00">8</text>
</a>
</g>
<!-- dir_4d4314fec0337faafb4fd99dc7917bfa&#45;&gt;dir_c4f4646ab0f4a2967be5b6215a500c22 -->
<g id="edge36" class="edge"><title>dir_4d4314fec0337faafb4fd99dc7917bfa&#45;&gt;dir_c4f4646ab0f4a2967be5b6215a500c22</title>
<path fill="none" stroke="black" d="M294.813,-215.831C281.757,-206.793 265.803,-195.748 251.752,-186.02"/>
<polygon fill="black" stroke="black" points="253.506,-182.977 243.292,-180.163 249.521,-188.733 253.506,-182.977"/>
<a xlink:href="dir_000009_000037.html" target="_top" xlink:title="3">
<text text-anchor="middle" x="258.077" y="-180.189" font-family="Helvetica,sans-Serif" font-size="10.00">3</text>
</a>
</g>
</g>
</svg>
