<?xml version="1.0" encoding="UTF-8" standalone="no"?>
<!DOCTYPE svg PUBLIC "-//W3C//DTD SVG 1.1//EN"
 "http://www.w3.org/Graphics/SVG/1.1/DTD/svg11.dtd">
<!-- Generated by graphviz version 2.26.3 (20100126.1600)
 -->
<!-- Title: src/calibration/converters Pages: 1 -->
<svg width="117pt" height="225pt"
 viewBox="0.00 0.00 117.00 225.00" xmlns="http://www.w3.org/2000/svg" xmlns:xlink="http://www.w3.org/1999/xlink">
<g id="graph1" class="graph" transform="scale(1 1) rotate(0) translate(4 221)">
<title>src/calibration/converters</title>
<polygon fill="white" stroke="white" points="-4,5 -4,-221 114,-221 114,5 -4,5"/>
<g id="graph2" class="cluster"><title>clusterdir_f1b881a94df93d2a183c4d8f47373448</title>
<a xlink:href="dir_f1b881a94df93d2a183c4d8f47373448.html" target="_top" xlink:title="calibration">
<polygon fill="#ddddee" stroke="black" points="8,-136 8,-209 86,-209 86,-136 8,-136"/>
<text text-anchor="middle" x="47" y="-196" font-family="Helvetica,sans-Serif" font-size="10.00">calibration</text>
</a>
</g>
<!-- dir_ea8b188b89e3cad3e09837d8f37afb37 -->
<g id="node2" class="node"><title>dir_ea8b188b89e3cad3e09837d8f37afb37</title>
<a xlink:href="dir_ea8b188b89e3cad3e09837d8f37afb37.html" target="_top" xlink:title="converters">
<polygon fill="#eeeeff" stroke="black" points="78,-180 16,-180 16,-144 78,-144 78,-180"/>
<text text-anchor="middle" x="47" y="-159.5" font-family="Helvetica,sans-Serif" font-size="10.00">converters</text>
</a>
</g>
<!-- dir_c44c95bf3b41c3321c6014770d618ac8 -->
<g id="node3" class="node"><title>dir_c44c95bf3b41c3321c6014770d618ac8</title>
<a xlink:href="dir_c44c95bf3b41c3321c6014770d618ac8.html" target="_top" xlink:title="tree">
<polygon fill="none" stroke="black" points="74,-36 20,-36 20,-1.77636e-14 74,-3.55271e-15 74,-36"/>
<text text-anchor="middle" x="47" y="-15.5" font-family="Helvetica,sans-Serif" font-size="10.00">tree</text>
</a>
</g>
<!-- dir_ea8b188b89e3cad3e09837d8f37afb37&#45;&gt;dir_c44c95bf3b41c3321c6014770d618ac8 -->
<g id="edge5" class="edge"><title>dir_ea8b188b89e3cad3e09837d8f37afb37&#45;&gt;dir_c44c95bf3b41c3321c6014770d618ac8</title>
<path fill="none" stroke="black" d="M42.3066,-143.646C39.8929,-133.263 37.2092,-119.994 36,-108 34.3951,-92.0807 34.3951,-87.9193 36,-72 36.8502,-63.5665 38.4294,-54.5029 40.1311,-46.2554"/>
<polygon fill="black" stroke="black" points="43.5791,-46.8719 42.3066,-36.3537 36.7422,-45.3697 43.5791,-46.8719"/>
<a xlink:href="dir_000043_000057.html" target="_top" xlink:title="2">
<text text-anchor="middle" x="45.5809" y="-48.492" font-family="Helvetica,sans-Serif" font-size="10.00">2</text>
</a>
</g>
<!-- dir_5eb03804bf445589bf35c6aa84fb9a34 -->
<g id="node4" class="node"><title>dir_5eb03804bf445589bf35c6aa84fb9a34</title>
<a xlink:href="dir_5eb03804bf445589bf35c6aa84fb9a34.html" target="_top" xlink:title="reconstruct">
<polygon fill="white" stroke="red" points="109,-108 45,-108 45,-72 109,-72 109,-108"/>
<text text-anchor="middle" x="77" y="-87.5" font-family="Helvetica,sans-Serif" font-size="10.00">reconstruct</text>
</a>
</g>
<!-- dir_ea8b188b89e3cad3e09837d8f37afb37&#45;&gt;dir_5eb03804bf445589bf35c6aa84fb9a34 -->
<g id="edge7" class="edge"><title>dir_ea8b188b89e3cad3e09837d8f37afb37&#45;&gt;dir_5eb03804bf445589bf35c6aa84fb9a34</title>
<path fill="none" stroke="black" d="M54.5703,-143.831C57.8493,-135.962 61.762,-126.571 65.3945,-117.853"/>
<polygon fill="black" stroke="black" points="68.7124,-118.99 69.3278,-108.413 62.2508,-116.298 68.7124,-118.99"/>
<a xlink:href="dir_000043_000054.html" target="_top" xlink:title="2">
<text text-anchor="middle" x="69.9507" y="-120.9" font-family="Helvetica,sans-Serif" font-size="10.00">2</text>
</a>
</g>
<!-- dir_5eb03804bf445589bf35c6aa84fb9a34&#45;&gt;dir_c44c95bf3b41c3321c6014770d618ac8 -->
<g id="edge3" class="edge"><title>dir_5eb03804bf445589bf35c6aa84fb9a34&#45;&gt;dir_c44c95bf3b41c3321c6014770d618ac8</title>
<path fill="none" stroke="black" d="M69.4297,-71.8314C66.1507,-63.9617 62.238,-54.5712 58.6055,-45.8533"/>
<polygon fill="black" stroke="black" points="61.7492,-44.2979 54.6722,-36.4133 55.2876,-46.9902 61.7492,-44.2979"/>
<a xlink:href="dir_000054_000057.html" target="_top" xlink:title="7">
<text text-anchor="middle" x="65.7525" y="-44.024" font-family="Helvetica,sans-Serif" font-size="10.00">7</text>
</a>
</g>
</g>
</svg>
