<?xml version="1.0" encoding="UTF-8" standalone="no"?>
<!DOCTYPE svg PUBLIC "-//W3C//DTD SVG 1.1//EN"
 "http://www.w3.org/Graphics/SVG/1.1/DTD/svg11.dtd">
<!-- Generated by graphviz version 2.26.3 (20100126.1600)
 -->
<!-- Title: src/calibration/fitfunctions Pages: 1 -->
<svg width="160pt" height="153pt"
 viewBox="0.00 0.00 160.00 153.00" xmlns="http://www.w3.org/2000/svg" xmlns:xlink="http://www.w3.org/1999/xlink">
<g id="graph1" class="graph" transform="scale(1 1) rotate(0) translate(4 149)">
<title>src/calibration/fitfunctions</title>
<polygon fill="white" stroke="white" points="-4,5 -4,-149 157,-149 157,5 -4,5"/>
<g id="graph2" class="cluster"><title>clusterdir_f1b881a94df93d2a183c4d8f47373448</title>
<a xlink:href="dir_f1b881a94df93d2a183c4d8f47373448.html" target="_top" xlink:title="calibration">
<polygon fill="#ddddee" stroke="black" points="8,-64 8,-137 88,-137 88,-64 8,-64"/>
<text text-anchor="middle" x="48" y="-124" font-family="Helvetica,sans-Serif" font-size="10.00">calibration</text>
</a>
</g>
<!-- dir_47eae98cac04703c45f6b4e608e28f25 -->
<g id="node2" class="node"><title>dir_47eae98cac04703c45f6b4e608e28f25</title>
<a xlink:href="dir_47eae98cac04703c45f6b4e608e28f25.html" target="_top" xlink:title="fitfunctions">
<polygon fill="#eeeeff" stroke="black" points="80,-108 16,-108 16,-72 80,-72 80,-108"/>
<text text-anchor="middle" x="48" y="-87.5" font-family="Helvetica,sans-Serif" font-size="10.00">fitfunctions</text>
</a>
</g>
<!-- dir_0af1587c8378955de40f48b4bd1869f0 -->
<g id="node3" class="node"><title>dir_0af1587c8378955de40f48b4bd1869f0</title>
<a xlink:href="dir_0af1587c8378955de40f48b4bd1869f0.html" target="_top" xlink:title="base">
<polygon fill="white" stroke="red" points="113,-36 59,-36 59,-1.77636e-14 113,-3.55271e-15 113,-36"/>
<text text-anchor="middle" x="86" y="-15.5" font-family="Helvetica,sans-Serif" font-size="10.00">base</text>
</a>
</g>
<!-- dir_47eae98cac04703c45f6b4e608e28f25&#45;&gt;dir_0af1587c8378955de40f48b4bd1869f0 -->
<g id="edge7" class="edge"><title>dir_47eae98cac04703c45f6b4e608e28f25&#45;&gt;dir_0af1587c8378955de40f48b4bd1869f0</title>
<path fill="none" stroke="black" d="M57.589,-71.8314C61.8317,-63.7925 66.9121,-54.1666 71.596,-45.2918"/>
<polygon fill="black" stroke="black" points="74.7096,-46.8908 76.2819,-36.4133 68.5189,-43.6235 74.7096,-46.8908"/>
<a xlink:href="dir_000044_000018.html" target="_top" xlink:title="33">
<text text-anchor="middle" x="75.5428" y="-48.895" font-family="Helvetica,sans-Serif" font-size="10.00">33</text>
</a>
</g>
<!-- dir_4584aed4c24fbdfe1cf1a414e4d4a562 -->
<g id="node4" class="node"><title>dir_4584aed4c24fbdfe1cf1a414e4d4a562</title>
<a xlink:href="dir_4584aed4c24fbdfe1cf1a414e4d4a562.html" target="_top" xlink:title="gui">
<polygon fill="none" stroke="black" points="152,-108 98,-108 98,-72 152,-72 152,-108"/>
<text text-anchor="middle" x="125" y="-87.5" font-family="Helvetica,sans-Serif" font-size="10.00">gui</text>
</a>
</g>
<!-- dir_47eae98cac04703c45f6b4e608e28f25&#45;&gt;dir_4584aed4c24fbdfe1cf1a414e4d4a562 -->
<g id="edge9" class="edge"><title>dir_47eae98cac04703c45f6b4e608e28f25&#45;&gt;dir_4584aed4c24fbdfe1cf1a414e4d4a562</title>
<path fill="none" stroke="black" d="M80.1836,-90C82.6454,-90 85.1073,-90 87.5691,-90"/>
<polygon fill="black" stroke="black" points="87.69,-93.5001 97.69,-90 87.69,-86.5001 87.69,-93.5001"/>
<a xlink:href="dir_000044_000045.html" target="_top" xlink:title="2">
<text text-anchor="middle" x="84.0954" y="-93.8393" font-family="Helvetica,sans-Serif" font-size="10.00">2</text>
</a>
</g>
<!-- dir_4584aed4c24fbdfe1cf1a414e4d4a562&#45;&gt;dir_47eae98cac04703c45f6b4e608e28f25 -->
<g id="edge5" class="edge"><title>dir_4584aed4c24fbdfe1cf1a414e4d4a562&#45;&gt;dir_47eae98cac04703c45f6b4e608e28f25</title>
<path fill="none" stroke="black" d="M97.69,-90C95.2282,-90 92.7663,-90 90.3045,-90"/>
<polygon fill="black" stroke="black" points="90.1836,-86.5001 80.1836,-90 90.1836,-93.5001 90.1836,-86.5001"/>
<a xlink:href="dir_000045_000044.html" target="_top" xlink:title="2">
<text text-anchor="middle" x="93.7782" y="-81.1607" font-family="Helvetica,sans-Serif" font-size="10.00">2</text>
</a>
</g>
<!-- dir_4584aed4c24fbdfe1cf1a414e4d4a562&#45;&gt;dir_0af1587c8378955de40f48b4bd1869f0 -->
<g id="edge3" class="edge"><title>dir_4584aed4c24fbdfe1cf1a414e4d4a562&#45;&gt;dir_0af1587c8378955de40f48b4bd1869f0</title>
<path fill="none" stroke="black" d="M115.159,-71.8314C110.804,-63.7925 105.59,-54.1666 100.783,-45.2918"/>
<polygon fill="black" stroke="black" points="103.814,-43.5392 95.9739,-36.4133 97.6592,-46.8732 103.814,-43.5392"/>
<a xlink:href="dir_000045_000018.html" target="_top" xlink:title="15">
<text text-anchor="middle" x="108.023" y="-42.8476" font-family="Helvetica,sans-Serif" font-size="10.00">15</text>
</a>
</g>
</g>
</svg>
