<?xml version="1.0" encoding="UTF-8" standalone="no"?>
<!DOCTYPE svg PUBLIC "-//W3C//DTD SVG 1.1//EN"
 "http://www.w3.org/Graphics/SVG/1.1/DTD/svg11.dtd">
<!-- Generated by graphviz version 2.26.3 (20100126.1600)
 -->
<!-- Title: src/analysis/physics/pi0 Pages: 1 -->
<svg width="280pt" height="441pt"
 viewBox="0.00 0.00 280.11 441.00" xmlns="http://www.w3.org/2000/svg" xmlns:xlink="http://www.w3.org/1999/xlink">
<g id="graph1" class="graph" transform="scale(1 1) rotate(0) translate(4 437)">
<title>src/analysis/physics/pi0</title>
<polygon fill="white" stroke="white" points="-4,5 -4,-437 277.109,-437 277.109,5 -4,5"/>
<g id="graph2" class="cluster"><title>clusterdir_a21a804d6482c442bcd1b39e4dfcc179</title>
<a xlink:href="dir_a21a804d6482c442bcd1b39e4dfcc179.html" target="_top" xlink:title="physics">
<polygon fill="#ddddee" stroke="black" points="89.1091,-352 89.1091,-425 159.109,-425 159.109,-352 89.1091,-352"/>
<text text-anchor="middle" x="124.109" y="-412" font-family="Helvetica,sans-Serif" font-size="10.00">physics</text>
</a>
</g>
<!-- dir_65711b33b2c758e7771d2f7398e776f1 -->
<g id="node2" class="node"><title>dir_65711b33b2c758e7771d2f7398e776f1</title>
<a xlink:href="dir_65711b33b2c758e7771d2f7398e776f1.html" target="_top" xlink:title="pi0">
<polygon fill="#eeeeff" stroke="black" points="151.109,-396 97.1091,-396 97.1091,-360 151.109,-360 151.109,-396"/>
<text text-anchor="middle" x="124.109" y="-375.5" font-family="Helvetica,sans-Serif" font-size="10.00">pi0</text>
</a>
</g>
<!-- dir_0a0aa297e888439a92fbcfd5e567f128 -->
<g id="node3" class="node"><title>dir_0a0aa297e888439a92fbcfd5e567f128</title>
<a xlink:href="dir_0a0aa297e888439a92fbcfd5e567f128.html" target="_top" xlink:title="utils">
<polygon fill="white" stroke="red" points="151.109,-324 97.1091,-324 97.1091,-288 151.109,-288 151.109,-324"/>
<text text-anchor="middle" x="124.109" y="-303.5" font-family="Helvetica,sans-Serif" font-size="10.00">utils</text>
</a>
</g>
<!-- dir_65711b33b2c758e7771d2f7398e776f1&#45;&gt;dir_0a0aa297e888439a92fbcfd5e567f128 -->
<g id="edge21" class="edge"><title>dir_65711b33b2c758e7771d2f7398e776f1&#45;&gt;dir_0a0aa297e888439a92fbcfd5e567f128</title>
<path fill="none" stroke="black" d="M124.109,-359.831C124.109,-352.131 124.109,-342.974 124.109,-334.417"/>
<polygon fill="black" stroke="black" points="127.609,-334.413 124.109,-324.413 120.609,-334.413 127.609,-334.413"/>
<a xlink:href="dir_000026_000033.html" target="_top" xlink:title="12">
<text text-anchor="middle" x="130.448" y="-335.508" font-family="Helvetica,sans-Serif" font-size="10.00">12</text>
</a>
</g>
<!-- dir_0af1587c8378955de40f48b4bd1869f0 -->
<g id="node4" class="node"><title>dir_0af1587c8378955de40f48b4bd1869f0</title>
<a xlink:href="dir_0af1587c8378955de40f48b4bd1869f0.html" target="_top" xlink:title="base">
<polygon fill="white" stroke="red" points="141.109,-36 87.1091,-36 87.1091,-1.77636e-14 141.109,-3.55271e-15 141.109,-36"/>
<text text-anchor="middle" x="114.109" y="-15.5" font-family="Helvetica,sans-Serif" font-size="10.00">base</text>
</a>
</g>
<!-- dir_65711b33b2c758e7771d2f7398e776f1&#45;&gt;dir_0af1587c8378955de40f48b4bd1869f0 -->
<g id="edge23" class="edge"><title>dir_65711b33b2c758e7771d2f7398e776f1&#45;&gt;dir_0af1587c8378955de40f48b4bd1869f0</title>
<path fill="none" stroke="black" d="M96.8968,-362.59C60.3953,-339.666 0.109094,-292.89 0.109094,-234 0.109094,-234 0.109094,-234 0.109094,-162 0.109094,-120.714 -1.6364,-105.048 23.1091,-72 36.8617,-53.6334 58.8557,-40.3346 77.776,-31.5305"/>
<polygon fill="black" stroke="black" points="79.3047,-34.6818 87.0479,-27.4503 76.4852,-28.2747 79.3047,-34.6818"/>
<a xlink:href="dir_000026_000018.html" target="_top" xlink:title="9">
<text text-anchor="middle" x="77.1582" y="-36.2283" font-family="Helvetica,sans-Serif" font-size="10.00">9</text>
</a>
</g>
<!-- dir_c44c95bf3b41c3321c6014770d618ac8 -->
<g id="node5" class="node"><title>dir_c44c95bf3b41c3321c6014770d618ac8</title>
<a xlink:href="dir_c44c95bf3b41c3321c6014770d618ac8.html" target="_top" xlink:title="tree">
<polygon fill="none" stroke="black" points="86.1091,-108 32.1091,-108 32.1091,-72 86.1091,-72 86.1091,-108"/>
<text text-anchor="middle" x="59.1091" y="-87.5" font-family="Helvetica,sans-Serif" font-size="10.00">tree</text>
</a>
</g>
<!-- dir_65711b33b2c758e7771d2f7398e776f1&#45;&gt;dir_c44c95bf3b41c3321c6014770d618ac8 -->
<g id="edge25" class="edge"><title>dir_65711b33b2c758e7771d2f7398e776f1&#45;&gt;dir_c44c95bf3b41c3321c6014770d618ac8</title>
<path fill="none" stroke="black" d="M108.892,-359.652C101.441,-349.699 93.0338,-336.834 88.1091,-324 61.0795,-253.562 57.9381,-163.262 58.2987,-118.207"/>
<polygon fill="black" stroke="black" points="61.8009,-118.072 58.4478,-108.021 54.8017,-117.969 61.8009,-118.072"/>
<a xlink:href="dir_000026_000057.html" target="_top" xlink:title="3">
<text text-anchor="middle" x="64.5873" y="-119.207" font-family="Helvetica,sans-Serif" font-size="10.00">3</text>
</a>
</g>
<!-- dir_c4f4646ab0f4a2967be5b6215a500c22 -->
<g id="node6" class="node"><title>dir_c4f4646ab0f4a2967be5b6215a500c22</title>
<a xlink:href="dir_c4f4646ab0f4a2967be5b6215a500c22.html" target="_top" xlink:title="expconfig">
<polygon fill="white" stroke="red" points="200.109,-180 142.109,-180 142.109,-144 200.109,-144 200.109,-180"/>
<text text-anchor="middle" x="171.109" y="-159.5" font-family="Helvetica,sans-Serif" font-size="10.00">expconfig</text>
</a>
</g>
<!-- dir_65711b33b2c758e7771d2f7398e776f1&#45;&gt;dir_c4f4646ab0f4a2967be5b6215a500c22 -->
<g id="edge27" class="edge"><title>dir_65711b33b2c758e7771d2f7398e776f1&#45;&gt;dir_c4f4646ab0f4a2967be5b6215a500c22</title>
<path fill="none" stroke="black" d="M139.735,-359.8C147.299,-349.888 155.682,-337.014 160.109,-324 175.362,-279.162 175.332,-223.403 173.51,-190.369"/>
<polygon fill="black" stroke="black" points="176.983,-189.838 172.843,-180.086 169.998,-190.291 176.983,-189.838"/>
<a xlink:href="dir_000026_000037.html" target="_top" xlink:title="1">
<text text-anchor="middle" x="180.049" y="-190.741" font-family="Helvetica,sans-Serif" font-size="10.00">1</text>
</a>
</g>
<!-- dir_8f68c37b22d514b4289e3a1255795d80 -->
<g id="node7" class="node"><title>dir_8f68c37b22d514b4289e3a1255795d80</title>
<a xlink:href="dir_8f68c37b22d514b4289e3a1255795d80.html" target="_top" xlink:title="plot">
<polygon fill="none" stroke="black" points="272.109,-252 218.109,-252 218.109,-216 272.109,-216 272.109,-252"/>
<text text-anchor="middle" x="245.109" y="-231.5" font-family="Helvetica,sans-Serif" font-size="10.00">plot</text>
</a>
</g>
<!-- dir_65711b33b2c758e7771d2f7398e776f1&#45;&gt;dir_8f68c37b22d514b4289e3a1255795d80 -->
<g id="edge29" class="edge"><title>dir_65711b33b2c758e7771d2f7398e776f1&#45;&gt;dir_8f68c37b22d514b4289e3a1255795d80</title>
<path fill="none" stroke="black" d="M151.417,-364.576C168.366,-355.133 189.605,-341.141 204.109,-324 219.527,-305.779 230.29,-280.808 236.908,-261.79"/>
<polygon fill="black" stroke="black" points="240.266,-262.781 240.077,-252.188 233.619,-260.587 240.266,-262.781"/>
<a xlink:href="dir_000026_000034.html" target="_top" xlink:title="1">
<text text-anchor="middle" x="241.836" y="-264.584" font-family="Helvetica,sans-Serif" font-size="10.00">1</text>
</a>
</g>
<!-- dir_0a0aa297e888439a92fbcfd5e567f128&#45;&gt;dir_0af1587c8378955de40f48b4bd1869f0 -->
<g id="edge3" class="edge"><title>dir_0a0aa297e888439a92fbcfd5e567f128&#45;&gt;dir_0af1587c8378955de40f48b4bd1869f0</title>
<path fill="none" stroke="black" d="M123.484,-287.984C121.793,-239.294 117.123,-104.796 115.083,-46.0573"/>
<polygon fill="black" stroke="black" points="118.579,-45.8814 114.734,-36.0089 111.584,-46.1243 118.579,-45.8814"/>
<a xlink:href="dir_000033_000018.html" target="_top" xlink:title="51">
<text text-anchor="middle" x="121.542" y="-46.8753" font-family="Helvetica,sans-Serif" font-size="10.00">51</text>
</a>
</g>
<!-- dir_0a0aa297e888439a92fbcfd5e567f128&#45;&gt;dir_c44c95bf3b41c3321c6014770d618ac8 -->
<g id="edge5" class="edge"><title>dir_0a0aa297e888439a92fbcfd5e567f128&#45;&gt;dir_c44c95bf3b41c3321c6014770d618ac8</title>
<path fill="none" stroke="black" d="M115.097,-287.818C110.215,-277.489 104.335,-264.216 100.109,-252 84.2591,-206.183 71.6314,-151.152 64.773,-118.46"/>
<polygon fill="black" stroke="black" points="68.1202,-117.361 62.672,-108.275 61.2646,-118.775 68.1202,-117.361"/>
<a xlink:href="dir_000033_000057.html" target="_top" xlink:title="19">
<text text-anchor="middle" x="71.6271" y="-117.808" font-family="Helvetica,sans-Serif" font-size="10.00">19</text>
</a>
</g>
<!-- dir_0a0aa297e888439a92fbcfd5e567f128&#45;&gt;dir_c4f4646ab0f4a2967be5b6215a500c22 -->
<g id="edge7" class="edge"><title>dir_0a0aa297e888439a92fbcfd5e567f128&#45;&gt;dir_c4f4646ab0f4a2967be5b6215a500c22</title>
<path fill="none" stroke="black" d="M130.062,-287.762C138.114,-263.093 152.551,-218.86 161.979,-189.973"/>
<polygon fill="black" stroke="black" points="165.429,-190.682 165.205,-180.09 158.775,-188.51 165.429,-190.682"/>
<a xlink:href="dir_000033_000037.html" target="_top" xlink:title="18">
<text text-anchor="middle" x="167.013" y="-192.48" font-family="Helvetica,sans-Serif" font-size="10.00">18</text>
</a>
</g>
<!-- dir_0a0aa297e888439a92fbcfd5e567f128&#45;&gt;dir_8f68c37b22d514b4289e3a1255795d80 -->
<g id="edge9" class="edge"><title>dir_0a0aa297e888439a92fbcfd5e567f128&#45;&gt;dir_8f68c37b22d514b4289e3a1255795d80</title>
<path fill="none" stroke="black" d="M151.264,-289.842C168.389,-279.651 190.699,-266.377 209.268,-255.327"/>
<polygon fill="black" stroke="black" points="211.241,-258.226 218.045,-250.104 207.662,-252.21 211.241,-258.226"/>
<a xlink:href="dir_000033_000034.html" target="_top" xlink:title="2">
<text text-anchor="middle" x="209.604" y="-260.004" font-family="Helvetica,sans-Serif" font-size="10.00">2</text>
</a>
</g>
<!-- dir_c44c95bf3b41c3321c6014770d618ac8&#45;&gt;dir_0af1587c8378955de40f48b4bd1869f0 -->
<g id="edge11" class="edge"><title>dir_c44c95bf3b41c3321c6014770d618ac8&#45;&gt;dir_0af1587c8378955de40f48b4bd1869f0</title>
<path fill="none" stroke="black" d="M72.9879,-71.8314C79.3227,-63.5386 86.9475,-53.557 93.9017,-44.4533"/>
<polygon fill="black" stroke="black" points="96.7543,-46.4847 100.043,-36.4133 91.1916,-42.2353 96.7543,-46.4847"/>
<a xlink:href="dir_000057_000018.html" target="_top" xlink:title="25">
<text text-anchor="middle" x="96.8286" y="-48.5647" font-family="Helvetica,sans-Serif" font-size="10.00">25</text>
</a>
</g>
<!-- dir_c4f4646ab0f4a2967be5b6215a500c22&#45;&gt;dir_0af1587c8378955de40f48b4bd1869f0 -->
<g id="edge13" class="edge"><title>dir_c4f4646ab0f4a2967be5b6215a500c22&#45;&gt;dir_0af1587c8378955de40f48b4bd1869f0</title>
<path fill="none" stroke="black" d="M163.89,-143.762C154.082,-118.985 136.462,-74.4714 125.032,-45.5939"/>
<polygon fill="black" stroke="black" points="128.204,-44.0995 121.27,-36.0896 121.696,-46.6759 128.204,-44.0995"/>
<a xlink:href="dir_000037_000018.html" target="_top" xlink:title="31">
<text text-anchor="middle" x="132.167" y="-43.8968" font-family="Helvetica,sans-Serif" font-size="10.00">31</text>
</a>
</g>
<!-- dir_c4f4646ab0f4a2967be5b6215a500c22&#45;&gt;dir_c44c95bf3b41c3321c6014770d618ac8 -->
<g id="edge15" class="edge"><title>dir_c4f4646ab0f4a2967be5b6215a500c22&#45;&gt;dir_c44c95bf3b41c3321c6014770d618ac8</title>
<path fill="none" stroke="black" d="M142.847,-143.831C128.329,-134.498 110.484,-123.026 95.0023,-113.074"/>
<polygon fill="black" stroke="black" points="96.5078,-109.881 86.2033,-107.418 92.7224,-115.769 96.5078,-109.881"/>
<a xlink:href="dir_000037_000057.html" target="_top" xlink:title="10">
<text text-anchor="middle" x="101.067" y="-106.937" font-family="Helvetica,sans-Serif" font-size="10.00">10</text>
</a>
</g>
<!-- dir_8f68c37b22d514b4289e3a1255795d80&#45;&gt;dir_0af1587c8378955de40f48b4bd1869f0 -->
<g id="edge17" class="edge"><title>dir_8f68c37b22d514b4289e3a1255795d80&#45;&gt;dir_0af1587c8378955de40f48b4bd1869f0</title>
<path fill="none" stroke="black" d="M239.312,-215.824C233.041,-197.215 222.17,-167.738 209.109,-144 190.081,-109.416 180.966,-103.448 157.109,-72 150.193,-62.8833 142.454,-53.0551 135.468,-44.3143"/>
<polygon fill="black" stroke="black" points="138.043,-41.9311 129.053,-36.3259 132.586,-46.3144 138.043,-41.9311"/>
<a xlink:href="dir_000034_000018.html" target="_top" xlink:title="10">
<text text-anchor="middle" x="142.508" y="-40.4559" font-family="Helvetica,sans-Serif" font-size="10.00">10</text>
</a>
</g>
<!-- dir_8f68c37b22d514b4289e3a1255795d80&#45;&gt;dir_c4f4646ab0f4a2967be5b6215a500c22 -->
<g id="edge19" class="edge"><title>dir_8f68c37b22d514b4289e3a1255795d80&#45;&gt;dir_c4f4646ab0f4a2967be5b6215a500c22</title>
<path fill="none" stroke="black" d="M226.436,-215.831C217.584,-207.219 206.86,-196.785 197.22,-187.405"/>
<polygon fill="black" stroke="black" points="199.384,-184.628 189.776,-180.163 194.503,-189.645 199.384,-184.628"/>
<a xlink:href="dir_000034_000037.html" target="_top" xlink:title="1">
<text text-anchor="middle" x="203.941" y="-182.6" font-family="Helvetica,sans-Serif" font-size="10.00">1</text>
</a>
</g>
</g>
</svg>
