<?xml version="1.0" encoding="UTF-8" standalone="no"?>
<!DOCTYPE svg PUBLIC "-//W3C//DTD SVG 1.1//EN"
 "http://www.w3.org/Graphics/SVG/1.1/DTD/svg11.dtd">
<!-- Generated by graphviz version 2.26.3 (20100126.1600)
 -->
<!-- Title: test Pages: 1 -->
<svg width="722pt" height="132pt"
 viewBox="0.00 0.00 722.00 132.00" xmlns="http://www.w3.org/2000/svg" xmlns:xlink="http://www.w3.org/1999/xlink">
<g id="graph1" class="graph" transform="scale(1 1) rotate(0) translate(4 128)">
<title>test</title>
<polygon fill="white" stroke="white" points="-4,5 -4,-128 719,-128 719,5 -4,5"/>
<g id="graph2" class="cluster"><title>clusterdir_13e138d54eb8818da29c3992edef070a</title>
<a xlink:href="dir_13e138d54eb8818da29c3992edef070a.html" target="_top">
<polygon fill="#eeeeff" stroke="black" points="8,-64 8,-116 706,-116 706,-64 8,-64"/>
</a>
</g>
<!-- dir_13e138d54eb8818da29c3992edef070a -->
<g id="node2" class="node"><title>dir_13e138d54eb8818da29c3992edef070a</title>
<text text-anchor="middle" x="671" y="-87.5" font-family="Helvetica,sans-Serif" font-size="10.00">test</text>
</g>
<!-- dir_667b72108da97c6489be6002f32efa39 -->
<g id="node3" class="node"><title>dir_667b72108da97c6489be6002f32efa39</title>
<a xlink:href="dir_667b72108da97c6489be6002f32efa39.html" target="_top" xlink:title="analysis">
<polygon fill="white" stroke="black" points="626,-108 572,-108 572,-72 626,-72 626,-108"/>
<text text-anchor="middle" x="599" y="-87.5" font-family="Helvetica,sans-Serif" font-size="10.00">analysis</text>
</a>
</g>
<!-- dir_68267d1309a1af8e8297ef4c3efbcdba -->
<g id="node11" class="node"><title>dir_68267d1309a1af8e8297ef4c3efbcdba</title>
<a xlink:href="dir_68267d1309a1af8e8297ef4c3efbcdba.html" target="_top" xlink:title="src">
<polygon fill="white" stroke="red" points="338,-36 284,-36 284,-1.77636e-14 338,-3.55271e-15 338,-36"/>
<text text-anchor="middle" x="311" y="-15.5" font-family="Helvetica,sans-Serif" font-size="10.00">src</text>
</a>
</g>
<!-- dir_667b72108da97c6489be6002f32efa39&#45;&gt;dir_68267d1309a1af8e8297ef4c3efbcdba -->
<g id="edge7" class="edge"><title>dir_667b72108da97c6489be6002f32efa39&#45;&gt;dir_68267d1309a1af8e8297ef4c3efbcdba</title>
<path fill="none" stroke="black" d="M577.073,-71.8555C572.623,-68.8544 567.822,-66.0561 563,-64 491.006,-33.3049 398.908,-23.0735 348.368,-19.6764"/>
<polygon fill="black" stroke="black" points="348.433,-16.1738 338.237,-19.0503 348.002,-23.1605 348.433,-16.1738"/>
<a xlink:href="dir_000061_000002.html" target="_top" xlink:title="70">
<text text-anchor="middle" x="352.196" y="-11.0615" font-family="Helvetica,sans-Serif" font-size="10.00">70</text>
</a>
</g>
<!-- dir_b237cd20fd2bd5dd71675b4573f46992 -->
<g id="node4" class="node"><title>dir_b237cd20fd2bd5dd71675b4573f46992</title>
<a xlink:href="dir_b237cd20fd2bd5dd71675b4573f46992.html" target="_top" xlink:title="analysis_codes">
<polygon fill="white" stroke="black" points="554,-108 470,-108 470,-72 554,-72 554,-108"/>
<text text-anchor="middle" x="512" y="-87.5" font-family="Helvetica,sans-Serif" font-size="10.00">analysis_codes</text>
</a>
</g>
<!-- dir_b237cd20fd2bd5dd71675b4573f46992&#45;&gt;dir_68267d1309a1af8e8297ef4c3efbcdba -->
<g id="edge5" class="edge"><title>dir_b237cd20fd2bd5dd71675b4573f46992&#45;&gt;dir_68267d1309a1af8e8297ef4c3efbcdba</title>
<path fill="none" stroke="black" d="M478.642,-71.9535C472.84,-69.1159 466.804,-66.3486 461,-64 423.342,-48.7617 378.652,-35.6661 347.904,-27.3884"/>
<polygon fill="black" stroke="black" points="348.605,-23.9533 338.041,-24.7698 346.808,-30.7189 348.605,-23.9533"/>
<a xlink:href="dir_000062_000002.html" target="_top" xlink:title="4">
<text text-anchor="middle" x="352.807" y="-19.6314" font-family="Helvetica,sans-Serif" font-size="10.00">4</text>
</a>
</g>
<!-- dir_97ec6ad9cb3c1a5ff31df96ef5b3749a -->
<g id="node5" class="node"><title>dir_97ec6ad9cb3c1a5ff31df96ef5b3749a</title>
<a xlink:href="dir_97ec6ad9cb3c1a5ff31df96ef5b3749a.html" target="_top" xlink:title="base">
<polygon fill="white" stroke="black" points="452,-108 398,-108 398,-72 452,-72 452,-108"/>
<text text-anchor="middle" x="425" y="-87.5" font-family="Helvetica,sans-Serif" font-size="10.00">base</text>
</a>
</g>
<!-- dir_97ec6ad9cb3c1a5ff31df96ef5b3749a&#45;&gt;dir_68267d1309a1af8e8297ef4c3efbcdba -->
<g id="edge13" class="edge"><title>dir_97ec6ad9cb3c1a5ff31df96ef5b3749a&#45;&gt;dir_68267d1309a1af8e8297ef4c3efbcdba</title>
<path fill="none" stroke="black" d="M400.422,-71.7912C396.637,-69.1204 392.742,-66.4474 389,-64 375.53,-55.1911 360.36,-46.0711 347.003,-38.2977"/>
<polygon fill="black" stroke="black" points="348.499,-35.1202 338.089,-33.1516 344.999,-41.1825 348.499,-35.1202"/>
<a xlink:href="dir_000063_000002.html" target="_top" xlink:title="38">
<text text-anchor="middle" x="353.032" y="-31.9584" font-family="Helvetica,sans-Serif" font-size="10.00">38</text>
</a>
</g>
<!-- dir_d35cb250f796e1503cd2deed01fdf2c1 -->
<g id="node6" class="node"><title>dir_d35cb250f796e1503cd2deed01fdf2c1</title>
<a xlink:href="dir_d35cb250f796e1503cd2deed01fdf2c1.html" target="_top" xlink:title="calibration">
<polygon fill="white" stroke="black" points="380,-108 320,-108 320,-72 380,-72 380,-108"/>
<text text-anchor="middle" x="350" y="-87.5" font-family="Helvetica,sans-Serif" font-size="10.00">calibration</text>
</a>
</g>
<!-- dir_d35cb250f796e1503cd2deed01fdf2c1&#45;&gt;dir_68267d1309a1af8e8297ef4c3efbcdba -->
<g id="edge3" class="edge"><title>dir_d35cb250f796e1503cd2deed01fdf2c1&#45;&gt;dir_68267d1309a1af8e8297ef4c3efbcdba</title>
<path fill="none" stroke="black" d="M340.159,-71.8314C335.804,-63.7925 330.59,-54.1666 325.783,-45.2918"/>
<polygon fill="black" stroke="black" points="328.814,-43.5392 320.974,-36.4133 322.659,-46.8732 328.814,-43.5392"/>
<a xlink:href="dir_000064_000002.html" target="_top" xlink:title="28">
<text text-anchor="middle" x="333.023" y="-42.8476" font-family="Helvetica,sans-Serif" font-size="10.00">28</text>
</a>
</g>
<!-- dir_305d9cee7b10148d7f1de92e7b87bbc6 -->
<g id="node7" class="node"><title>dir_305d9cee7b10148d7f1de92e7b87bbc6</title>
<a xlink:href="dir_305d9cee7b10148d7f1de92e7b87bbc6.html" target="_top" xlink:title="expconfig">
<polygon fill="white" stroke="black" points="302,-108 244,-108 244,-72 302,-72 302,-108"/>
<text text-anchor="middle" x="273" y="-87.5" font-family="Helvetica,sans-Serif" font-size="10.00">expconfig</text>
</a>
</g>
<!-- dir_305d9cee7b10148d7f1de92e7b87bbc6&#45;&gt;dir_68267d1309a1af8e8297ef4c3efbcdba -->
<g id="edge11" class="edge"><title>dir_305d9cee7b10148d7f1de92e7b87bbc6&#45;&gt;dir_68267d1309a1af8e8297ef4c3efbcdba</title>
<path fill="none" stroke="black" d="M282.589,-71.8314C286.832,-63.7925 291.912,-54.1666 296.596,-45.2918"/>
<polygon fill="black" stroke="black" points="299.71,-46.8908 301.282,-36.4133 293.519,-43.6235 299.71,-46.8908"/>
<a xlink:href="dir_000065_000002.html" target="_top" xlink:title="9">
<text text-anchor="middle" x="300.543" y="-48.895" font-family="Helvetica,sans-Serif" font-size="10.00">9</text>
</a>
</g>
<!-- dir_f40f162875297943759074a3f33f2c21 -->
<g id="node8" class="node"><title>dir_f40f162875297943759074a3f33f2c21</title>
<a xlink:href="dir_f40f162875297943759074a3f33f2c21.html" target="_top" xlink:title="reconstruct">
<polygon fill="white" stroke="black" points="226,-108 162,-108 162,-72 226,-72 226,-108"/>
<text text-anchor="middle" x="194" y="-87.5" font-family="Helvetica,sans-Serif" font-size="10.00">reconstruct</text>
</a>
</g>
<!-- dir_f40f162875297943759074a3f33f2c21&#45;&gt;dir_68267d1309a1af8e8297ef4c3efbcdba -->
<g id="edge15" class="edge"><title>dir_f40f162875297943759074a3f33f2c21&#45;&gt;dir_68267d1309a1af8e8297ef4c3efbcdba</title>
<path fill="none" stroke="black" d="M222.626,-71.7402C226.769,-69.1286 230.988,-66.486 235,-64 247.976,-55.9598 262.279,-47.2606 274.943,-39.6138"/>
<polygon fill="black" stroke="black" points="277.074,-42.4159 283.832,-34.2563 273.461,-36.4206 277.074,-42.4159"/>
<a xlink:href="dir_000066_000002.html" target="_top" xlink:title="23">
<text text-anchor="middle" x="275.461" y="-44.2032" font-family="Helvetica,sans-Serif" font-size="10.00">23</text>
</a>
</g>
<!-- dir_8d0139d482f31cca8590f543c7e76ac7 -->
<g id="node9" class="node"><title>dir_8d0139d482f31cca8590f543c7e76ac7</title>
<a xlink:href="dir_8d0139d482f31cca8590f543c7e76ac7.html" target="_top" xlink:title="tree">
<polygon fill="white" stroke="black" points="144,-108 90,-108 90,-72 144,-72 144,-108"/>
<text text-anchor="middle" x="117" y="-87.5" font-family="Helvetica,sans-Serif" font-size="10.00">tree</text>
</a>
</g>
<!-- dir_8d0139d482f31cca8590f543c7e76ac7&#45;&gt;dir_68267d1309a1af8e8297ef4c3efbcdba -->
<g id="edge9" class="edge"><title>dir_8d0139d482f31cca8590f543c7e76ac7&#45;&gt;dir_68267d1309a1af8e8297ef4c3efbcdba</title>
<path fill="none" stroke="black" d="M139.5,-71.9841C143.821,-69.0433 148.428,-66.2334 153,-64 192.262,-44.8209 241.008,-32.1393 273.89,-25.0373"/>
<polygon fill="black" stroke="black" points="274.906,-28.4007 283.977,-22.9264 273.472,-21.5491 274.906,-28.4007"/>
<a xlink:href="dir_000067_000002.html" target="_top" xlink:title="12">
<text text-anchor="middle" x="271.969" y="-29.416" font-family="Helvetica,sans-Serif" font-size="10.00">12</text>
</a>
</g>
<!-- dir_d57a8c586049227f21125b8de73278be -->
<g id="node10" class="node"><title>dir_d57a8c586049227f21125b8de73278be</title>
<a xlink:href="dir_d57a8c586049227f21125b8de73278be.html" target="_top" xlink:title="unpacker">
<polygon fill="white" stroke="black" points="72,-108 16,-108 16,-72 72,-72 72,-108"/>
<text text-anchor="middle" x="44" y="-87.5" font-family="Helvetica,sans-Serif" font-size="10.00">unpacker</text>
</a>
</g>
<!-- dir_d57a8c586049227f21125b8de73278be&#45;&gt;dir_68267d1309a1af8e8297ef4c3efbcdba -->
<g id="edge17" class="edge"><title>dir_d57a8c586049227f21125b8de73278be&#45;&gt;dir_68267d1309a1af8e8297ef4c3efbcdba</title>
<path fill="none" stroke="black" d="M66.6162,-71.9319C71.1825,-68.9238 76.0931,-66.1034 81,-64 145.373,-36.4061 227.065,-25.1265 273.748,-20.6952"/>
<polygon fill="black" stroke="black" points="274.069,-24.1806 283.717,-19.8031 273.445,-17.2084 274.069,-24.1806"/>
<a xlink:href="dir_000068_000002.html" target="_top" xlink:title="21">
<text text-anchor="middle" x="270.741" y="-24.8288" font-family="Helvetica,sans-Serif" font-size="10.00">21</text>
</a>
</g>
</g>
</svg>
