<?xml version="1.0" encoding="UTF-8" standalone="no"?>
<!DOCTYPE svg PUBLIC "-//W3C//DTD SVG 1.1//EN"
 "http://www.w3.org/Graphics/SVG/1.1/DTD/svg11.dtd">
<!-- Generated by graphviz version 2.26.3 (20100126.1600)
 -->
<!-- Title: src/analysis/physics/calibration Pages: 1 -->
<svg width="542pt" height="513pt"
 viewBox="0.00 0.00 542.00 513.00" xmlns="http://www.w3.org/2000/svg" xmlns:xlink="http://www.w3.org/1999/xlink">
<g id="graph1" class="graph" transform="scale(1 1) rotate(0) translate(4 509)">
<title>src/analysis/physics/calibration</title>
<polygon fill="white" stroke="white" points="-4,5 -4,-509 539,-509 539,5 -4,5"/>
<g id="graph2" class="cluster"><title>clusterdir_a21a804d6482c442bcd1b39e4dfcc179</title>
<a xlink:href="dir_a21a804d6482c442bcd1b39e4dfcc179.html" target="_top" xlink:title="physics">
<polygon fill="#ddddee" stroke="black" points="210,-424 210,-497 286,-497 286,-424 210,-424"/>
<text text-anchor="middle" x="248" y="-484" font-family="Helvetica,sans-Serif" font-size="10.00">physics</text>
</a>
</g>
<!-- dir_57d93ab9ac23e1438fb66ed81acb5c38 -->
<g id="node2" class="node"><title>dir_57d93ab9ac23e1438fb66ed81acb5c38</title>
<a xlink:href="dir_57d93ab9ac23e1438fb66ed81acb5c38.html" target="_top" xlink:title="calibration">
<polygon fill="#eeeeff" stroke="black" points="278,-468 218,-468 218,-432 278,-432 278,-468"/>
<text text-anchor="middle" x="248" y="-447.5" font-family="Helvetica,sans-Serif" font-size="10.00">calibration</text>
</a>
</g>
<!-- dir_0a0aa297e888439a92fbcfd5e567f128 -->
<g id="node3" class="node"><title>dir_0a0aa297e888439a92fbcfd5e567f128</title>
<a xlink:href="dir_0a0aa297e888439a92fbcfd5e567f128.html" target="_top" xlink:title="utils">
<polygon fill="white" stroke="red" points="369,-396 315,-396 315,-360 369,-360 369,-396"/>
<text text-anchor="middle" x="342" y="-375.5" font-family="Helvetica,sans-Serif" font-size="10.00">utils</text>
</a>
</g>
<!-- dir_57d93ab9ac23e1438fb66ed81acb5c38&#45;&gt;dir_0a0aa297e888439a92fbcfd5e567f128 -->
<g id="edge11" class="edge"><title>dir_57d93ab9ac23e1438fb66ed81acb5c38&#45;&gt;dir_0a0aa297e888439a92fbcfd5e567f128</title>
<path fill="none" stroke="black" d="M271.72,-431.831C283.409,-422.878 297.669,-411.956 310.281,-402.295"/>
<polygon fill="black" stroke="black" points="312.477,-405.022 318.287,-396.163 308.22,-399.465 312.477,-405.022"/>
<a xlink:href="dir_000015_000033.html" target="_top" xlink:title="16">
<text text-anchor="middle" x="311.35" y="-406.962" font-family="Helvetica,sans-Serif" font-size="10.00">16</text>
</a>
</g>
<!-- dir_0af1587c8378955de40f48b4bd1869f0 -->
<g id="node4" class="node"><title>dir_0af1587c8378955de40f48b4bd1869f0</title>
<a xlink:href="dir_0af1587c8378955de40f48b4bd1869f0.html" target="_top" xlink:title="base">
<polygon fill="white" stroke="red" points="255,-36 201,-36 201,-1.77636e-14 255,-3.55271e-15 255,-36"/>
<text text-anchor="middle" x="228" y="-15.5" font-family="Helvetica,sans-Serif" font-size="10.00">base</text>
</a>
</g>
<!-- dir_57d93ab9ac23e1438fb66ed81acb5c38&#45;&gt;dir_0af1587c8378955de40f48b4bd1869f0 -->
<g id="edge13" class="edge"><title>dir_57d93ab9ac23e1438fb66ed81acb5c38&#45;&gt;dir_0af1587c8378955de40f48b4bd1869f0</title>
<path fill="none" stroke="black" d="M217.745,-448.198C177.206,-444.398 104.729,-432.599 56,-396 18.3304,-367.708 0,-353.111 0,-306 0,-306 0,-306 0,-162 0,-72.8601 126.122,-36.6601 190.759,-23.961"/>
<polygon fill="black" stroke="black" points="191.765,-27.3336 200.95,-22.0535 190.477,-20.4531 191.765,-27.3336"/>
<a xlink:href="dir_000015_000018.html" target="_top" xlink:title="11">
<text text-anchor="middle" x="188.754" y="-28.2856" font-family="Helvetica,sans-Serif" font-size="10.00">11</text>
</a>
</g>
<!-- dir_c44c95bf3b41c3321c6014770d618ac8 -->
<g id="node5" class="node"><title>dir_c44c95bf3b41c3321c6014770d618ac8</title>
<a xlink:href="dir_c44c95bf3b41c3321c6014770d618ac8.html" target="_top" xlink:title="tree">
<polygon fill="none" stroke="black" points="152,-108 98,-108 98,-72 152,-72 152,-108"/>
<text text-anchor="middle" x="125" y="-87.5" font-family="Helvetica,sans-Serif" font-size="10.00">tree</text>
</a>
</g>
<!-- dir_57d93ab9ac23e1438fb66ed81acb5c38&#45;&gt;dir_c44c95bf3b41c3321c6014770d618ac8 -->
<g id="edge15" class="edge"><title>dir_57d93ab9ac23e1438fb66ed81acb5c38&#45;&gt;dir_c44c95bf3b41c3321c6014770d618ac8</title>
<path fill="none" stroke="black" d="M217.912,-444.052C159.845,-430.632 38,-392.203 38,-306 38,-306 38,-306 38,-234 38,-187.212 72.0641,-142.595 97.5622,-115.752"/>
<polygon fill="black" stroke="black" points="100.327,-117.932 104.822,-108.338 95.3249,-113.035 100.327,-117.932"/>
<a xlink:href="dir_000015_000057.html" target="_top" xlink:title="3">
<text text-anchor="middle" x="99.8407" y="-119.987" font-family="Helvetica,sans-Serif" font-size="10.00">3</text>
</a>
</g>
<!-- dir_f1b881a94df93d2a183c4d8f47373448 -->
<g id="node6" class="node"><title>dir_f1b881a94df93d2a183c4d8f47373448</title>
<a xlink:href="dir_f1b881a94df93d2a183c4d8f47373448.html" target="_top" xlink:title="calibration">
<polygon fill="white" stroke="red" points="278,-252 218,-252 218,-216 278,-216 278,-252"/>
<text text-anchor="middle" x="248" y="-231.5" font-family="Helvetica,sans-Serif" font-size="10.00">calibration</text>
</a>
</g>
<!-- dir_57d93ab9ac23e1438fb66ed81acb5c38&#45;&gt;dir_f1b881a94df93d2a183c4d8f47373448 -->
<g id="edge17" class="edge"><title>dir_57d93ab9ac23e1438fb66ed81acb5c38&#45;&gt;dir_f1b881a94df93d2a183c4d8f47373448</title>
<path fill="none" stroke="black" d="M237.393,-431.777C221.191,-401.533 193.782,-339.227 210,-288 213.082,-278.266 218.618,-268.77 224.529,-260.523"/>
<polygon fill="black" stroke="black" points="227.431,-262.49 230.736,-252.424 221.875,-258.232 227.431,-262.49"/>
<a xlink:href="dir_000015_000016.html" target="_top" xlink:title="4">
<text text-anchor="middle" x="227.498" y="-264.57" font-family="Helvetica,sans-Serif" font-size="10.00">4</text>
</a>
</g>
<!-- dir_ebac6f698c8ed4b70faacb8ef35cbe0d -->
<g id="node7" class="node"><title>dir_ebac6f698c8ed4b70faacb8ef35cbe0d</title>
<a xlink:href="dir_ebac6f698c8ed4b70faacb8ef35cbe0d.html" target="_top" xlink:title="root&#45;addons">
<polygon fill="white" stroke="red" points="362,-180 294,-180 294,-144 362,-144 362,-180"/>
<text text-anchor="middle" x="328" y="-159.5" font-family="Helvetica,sans-Serif" font-size="10.00">root&#45;addons</text>
</a>
</g>
<!-- dir_57d93ab9ac23e1438fb66ed81acb5c38&#45;&gt;dir_ebac6f698c8ed4b70faacb8ef35cbe0d -->
<g id="edge19" class="edge"><title>dir_57d93ab9ac23e1438fb66ed81acb5c38&#45;&gt;dir_ebac6f698c8ed4b70faacb8ef35cbe0d</title>
<path fill="none" stroke="black" d="M278.249,-446.916C309.229,-441.966 355.885,-429.133 378,-396 421.458,-330.89 373.848,-234.847 345.69,-188.688"/>
<polygon fill="black" stroke="black" points="348.619,-186.77 340.351,-180.145 342.683,-190.48 348.619,-186.77"/>
<a xlink:href="dir_000015_000022.html" target="_top" xlink:title="4">
<text text-anchor="middle" x="352.932" y="-185.813" font-family="Helvetica,sans-Serif" font-size="10.00">4</text>
</a>
</g>
<!-- dir_c4f4646ab0f4a2967be5b6215a500c22 -->
<g id="node8" class="node"><title>dir_c4f4646ab0f4a2967be5b6215a500c22</title>
<a xlink:href="dir_c4f4646ab0f4a2967be5b6215a500c22.html" target="_top" xlink:title="expconfig">
<polygon fill="white" stroke="red" points="277,-324 219,-324 219,-288 277,-288 277,-324"/>
<text text-anchor="middle" x="248" y="-303.5" font-family="Helvetica,sans-Serif" font-size="10.00">expconfig</text>
</a>
</g>
<!-- dir_57d93ab9ac23e1438fb66ed81acb5c38&#45;&gt;dir_c4f4646ab0f4a2967be5b6215a500c22 -->
<g id="edge21" class="edge"><title>dir_57d93ab9ac23e1438fb66ed81acb5c38&#45;&gt;dir_c4f4646ab0f4a2967be5b6215a500c22</title>
<path fill="none" stroke="black" d="M248,-431.762C248,-407.201 248,-363.247 248,-334.354"/>
<polygon fill="black" stroke="black" points="251.5,-334.09 248,-324.09 244.5,-334.09 251.5,-334.09"/>
<a xlink:href="dir_000015_000037.html" target="_top" xlink:title="18">
<text text-anchor="middle" x="254.339" y="-335.184" font-family="Helvetica,sans-Serif" font-size="10.00">18</text>
</a>
</g>
<!-- dir_8f68c37b22d514b4289e3a1255795d80 -->
<g id="node9" class="node"><title>dir_8f68c37b22d514b4289e3a1255795d80</title>
<a xlink:href="dir_8f68c37b22d514b4289e3a1255795d80.html" target="_top" xlink:title="plot">
<polygon fill="none" stroke="black" points="355,-108 301,-108 301,-72 355,-72 355,-108"/>
<text text-anchor="middle" x="328" y="-87.5" font-family="Helvetica,sans-Serif" font-size="10.00">plot</text>
</a>
</g>
<!-- dir_57d93ab9ac23e1438fb66ed81acb5c38&#45;&gt;dir_8f68c37b22d514b4289e3a1255795d80 -->
<g id="edge23" class="edge"><title>dir_57d93ab9ac23e1438fb66ed81acb5c38&#45;&gt;dir_8f68c37b22d514b4289e3a1255795d80</title>
<path fill="none" stroke="black" d="M278.066,-448.664C351.496,-443.63 534,-419.684 534,-306 534,-306 534,-306 534,-234 534,-152.533 424.435,-113.303 365.115,-98.0343"/>
<polygon fill="black" stroke="black" points="365.903,-94.6238 355.355,-95.6213 364.223,-101.419 365.903,-94.6238"/>
<a xlink:href="dir_000015_000034.html" target="_top" xlink:title="2">
<text text-anchor="middle" x="370.074" y="-90.2302" font-family="Helvetica,sans-Serif" font-size="10.00">2</text>
</a>
</g>
<!-- dir_0a0aa297e888439a92fbcfd5e567f128&#45;&gt;dir_0af1587c8378955de40f48b4bd1869f0 -->
<g id="edge3" class="edge"><title>dir_0a0aa297e888439a92fbcfd5e567f128&#45;&gt;dir_0af1587c8378955de40f48b4bd1869f0</title>
<path fill="none" stroke="black" d="M369.178,-367.329C413.388,-347.976 496,-302.632 496,-234 496,-234 496,-234 496,-162 496,-58.5451 339.116,-29.1024 265.414,-20.9787"/>
<polygon fill="black" stroke="black" points="265.477,-17.4669 255.172,-19.9285 264.763,-24.4304 265.477,-17.4669"/>
<a xlink:href="dir_000033_000018.html" target="_top" xlink:title="51">
<text text-anchor="middle" x="269.342" y="-12.509" font-family="Helvetica,sans-Serif" font-size="10.00">51</text>
</a>
</g>
<!-- dir_0a0aa297e888439a92fbcfd5e567f128&#45;&gt;dir_c44c95bf3b41c3321c6014770d618ac8 -->
<g id="edge5" class="edge"><title>dir_0a0aa297e888439a92fbcfd5e567f128&#45;&gt;dir_c44c95bf3b41c3321c6014770d618ac8</title>
<path fill="none" stroke="black" d="M314.907,-371.329C286.677,-363.421 242.158,-348.181 210,-324 177.379,-299.471 172.187,-288.023 153,-252 137.207,-222.351 136.092,-213.036 130,-180 126.222,-159.513 125.021,-135.995 124.739,-118.139"/>
<polygon fill="black" stroke="black" points="128.239,-118.063 124.667,-108.089 121.239,-118.114 128.239,-118.063"/>
<a xlink:href="dir_000033_000057.html" target="_top" xlink:title="19">
<text text-anchor="middle" x="131.104" y="-119.137" font-family="Helvetica,sans-Serif" font-size="10.00">19</text>
</a>
</g>
<!-- dir_0a0aa297e888439a92fbcfd5e567f128&#45;&gt;dir_c4f4646ab0f4a2967be5b6215a500c22 -->
<g id="edge7" class="edge"><title>dir_0a0aa297e888439a92fbcfd5e567f128&#45;&gt;dir_c4f4646ab0f4a2967be5b6215a500c22</title>
<path fill="none" stroke="black" d="M318.28,-359.831C306.591,-350.878 292.331,-339.956 279.719,-330.295"/>
<polygon fill="black" stroke="black" points="281.78,-327.465 271.713,-324.163 277.523,-333.022 281.78,-327.465"/>
<a xlink:href="dir_000033_000037.html" target="_top" xlink:title="18">
<text text-anchor="middle" x="286.36" y="-324.897" font-family="Helvetica,sans-Serif" font-size="10.00">18</text>
</a>
</g>
<!-- dir_0a0aa297e888439a92fbcfd5e567f128&#45;&gt;dir_8f68c37b22d514b4289e3a1255795d80 -->
<g id="edge9" class="edge"><title>dir_0a0aa297e888439a92fbcfd5e567f128&#45;&gt;dir_8f68c37b22d514b4289e3a1255795d80</title>
<path fill="none" stroke="black" d="M352.643,-359.863C374.897,-319.415 421.604,-219.453 388,-144 382.601,-131.878 372.988,-121.336 363.016,-112.863"/>
<polygon fill="black" stroke="black" points="365.027,-109.99 355.016,-106.521 360.678,-115.476 365.027,-109.99"/>
<a xlink:href="dir_000033_000034.html" target="_top" xlink:title="2">
<text text-anchor="middle" x="369.607" y="-107.498" font-family="Helvetica,sans-Serif" font-size="10.00">2</text>
</a>
</g>
<!-- dir_c44c95bf3b41c3321c6014770d618ac8&#45;&gt;dir_0af1587c8378955de40f48b4bd1869f0 -->
<g id="edge25" class="edge"><title>dir_c44c95bf3b41c3321c6014770d618ac8&#45;&gt;dir_0af1587c8378955de40f48b4bd1869f0</title>
<path fill="none" stroke="black" d="M150.991,-71.8314C163.922,-62.7927 179.722,-51.7476 193.638,-42.0198"/>
<polygon fill="black" stroke="black" points="195.826,-44.7608 202.017,-36.1628 191.816,-39.0235 195.826,-44.7608"/>
<a xlink:href="dir_000057_000018.html" target="_top" xlink:title="25">
<text text-anchor="middle" x="194.507" y="-46.6473" font-family="Helvetica,sans-Serif" font-size="10.00">25</text>
</a>
</g>
<!-- dir_f1b881a94df93d2a183c4d8f47373448&#45;&gt;dir_0af1587c8378955de40f48b4bd1869f0 -->
<g id="edge27" class="edge"><title>dir_f1b881a94df93d2a183c4d8f47373448&#45;&gt;dir_0af1587c8378955de40f48b4bd1869f0</title>
<path fill="none" stroke="black" d="M246.329,-215.955C242.844,-178.314 234.777,-91.1867 230.604,-46.1246"/>
<polygon fill="black" stroke="black" points="234.087,-45.7797 229.68,-36.1451 227.117,-46.4252 234.087,-45.7797"/>
<a xlink:href="dir_000016_000018.html" target="_top" xlink:title="110">
<text text-anchor="middle" x="237.246" y="-46.5973" font-family="Helvetica,sans-Serif" font-size="10.00">110</text>
</a>
</g>
<!-- dir_f1b881a94df93d2a183c4d8f47373448&#45;&gt;dir_c44c95bf3b41c3321c6014770d618ac8 -->
<g id="edge29" class="edge"><title>dir_f1b881a94df93d2a183c4d8f47373448&#45;&gt;dir_c44c95bf3b41c3321c6014770d618ac8</title>
<path fill="none" stroke="black" d="M232.422,-215.762C210.796,-190.444 171.568,-144.518 146.973,-115.725"/>
<polygon fill="black" stroke="black" points="149.608,-113.42 140.452,-108.09 144.285,-117.967 149.608,-113.42"/>
<a xlink:href="dir_000016_000057.html" target="_top" xlink:title="29">
<text text-anchor="middle" x="154.101" y="-111.809" font-family="Helvetica,sans-Serif" font-size="10.00">29</text>
</a>
</g>
<!-- dir_f1b881a94df93d2a183c4d8f47373448&#45;&gt;dir_ebac6f698c8ed4b70faacb8ef35cbe0d -->
<g id="edge31" class="edge"><title>dir_f1b881a94df93d2a183c4d8f47373448&#45;&gt;dir_ebac6f698c8ed4b70faacb8ef35cbe0d</title>
<path fill="none" stroke="black" d="M262.235,-215.831C271.138,-207.048 282.834,-196.371 293.937,-186.849"/>
<polygon fill="black" stroke="black" points="296.478,-189.284 301.867,-180.163 291.966,-183.933 296.478,-189.284"/>
<a xlink:href="dir_000016_000022.html" target="_top" xlink:title="4">
<text text-anchor="middle" x="295.56" y="-191.272" font-family="Helvetica,sans-Serif" font-size="10.00">4</text>
</a>
</g>
<!-- dir_f1b881a94df93d2a183c4d8f47373448&#45;&gt;dir_c4f4646ab0f4a2967be5b6215a500c22 -->
<g id="edge33" class="edge"><title>dir_f1b881a94df93d2a183c4d8f47373448&#45;&gt;dir_c4f4646ab0f4a2967be5b6215a500c22</title>
<path fill="none" stroke="black" d="M253.976,-252.413C254.707,-260.059 254.92,-269.108 254.615,-277.573"/>
<polygon fill="black" stroke="black" points="251.105,-277.626 253.952,-287.831 258.09,-278.078 251.105,-277.626"/>
<a xlink:href="dir_000016_000037.html" target="_top" xlink:title="11">
<text text-anchor="middle" x="248.503" y="-271.356" font-family="Helvetica,sans-Serif" font-size="10.00">11</text>
</a>
</g>
<!-- dir_f1b881a94df93d2a183c4d8f47373448&#45;&gt;dir_8f68c37b22d514b4289e3a1255795d80 -->
<g id="edge35" class="edge"><title>dir_f1b881a94df93d2a183c4d8f47373448&#45;&gt;dir_8f68c37b22d514b4289e3a1255795d80</title>
<path fill="none" stroke="black" d="M253.811,-215.705C260.139,-197.002 271.22,-167.45 285,-144 290.705,-134.291 298.016,-124.434 304.984,-115.845"/>
<polygon fill="black" stroke="black" points="307.774,-117.965 311.497,-108.046 302.401,-113.478 307.774,-117.965"/>
<a xlink:href="dir_000016_000034.html" target="_top" xlink:title="1">
<text text-anchor="middle" x="307.649" y="-120.044" font-family="Helvetica,sans-Serif" font-size="10.00">1</text>
</a>
</g>
<!-- dir_ebac6f698c8ed4b70faacb8ef35cbe0d&#45;&gt;dir_0a0aa297e888439a92fbcfd5e567f128 -->
<g id="edge37" class="edge"><title>dir_ebac6f698c8ed4b70faacb8ef35cbe0d&#45;&gt;dir_0a0aa297e888439a92fbcfd5e567f128</title>
<path fill="none" stroke="black" d="M329.176,-180.145C331.616,-217.795 337.245,-304.641 340.166,-349.71"/>
<polygon fill="black" stroke="black" points="336.691,-350.203 340.83,-359.955 343.676,-349.75 336.691,-350.203"/>
<a xlink:href="dir_000022_000033.html" target="_top" xlink:title="5">
<text text-anchor="middle" x="333.625" y="-344.299" font-family="Helvetica,sans-Serif" font-size="10.00">5</text>
</a>
</g>
<!-- dir_ebac6f698c8ed4b70faacb8ef35cbe0d&#45;&gt;dir_0af1587c8378955de40f48b4bd1869f0 -->
<g id="edge39" class="edge"><title>dir_ebac6f698c8ed4b70faacb8ef35cbe0d&#45;&gt;dir_0af1587c8378955de40f48b4bd1869f0</title>
<path fill="none" stroke="black" d="M315.335,-143.762C297.903,-118.66 266.404,-73.3017 246.38,-44.4671"/>
<polygon fill="black" stroke="black" points="249.141,-42.3069 240.562,-36.0896 243.391,-46.2997 249.141,-42.3069"/>
<a xlink:href="dir_000022_000018.html" target="_top" xlink:title="48">
<text text-anchor="middle" x="253.523" y="-41.1399" font-family="Helvetica,sans-Serif" font-size="10.00">48</text>
</a>
</g>
<!-- dir_ebac6f698c8ed4b70faacb8ef35cbe0d&#45;&gt;dir_c44c95bf3b41c3321c6014770d618ac8 -->
<g id="edge41" class="edge"><title>dir_ebac6f698c8ed4b70faacb8ef35cbe0d&#45;&gt;dir_c44c95bf3b41c3321c6014770d618ac8</title>
<path fill="none" stroke="black" d="M293.564,-149.786C256.908,-136.785 199.132,-116.293 161.651,-102.999"/>
<polygon fill="black" stroke="black" points="162.714,-99.6628 152.119,-99.6186 160.374,-106.26 162.714,-99.6628"/>
<a xlink:href="dir_000022_000057.html" target="_top" xlink:title="10">
<text text-anchor="middle" x="167.051" y="-95.6884" font-family="Helvetica,sans-Serif" font-size="10.00">10</text>
</a>
</g>
<!-- dir_ebac6f698c8ed4b70faacb8ef35cbe0d&#45;&gt;dir_f1b881a94df93d2a183c4d8f47373448 -->
<g id="edge43" class="edge"><title>dir_ebac6f698c8ed4b70faacb8ef35cbe0d&#45;&gt;dir_f1b881a94df93d2a183c4d8f47373448</title>
<path fill="none" stroke="black" d="M313.771,-180.163C304.869,-188.945 293.173,-199.622 282.071,-209.145"/>
<polygon fill="black" stroke="black" points="279.529,-206.71 274.14,-215.831 284.041,-212.061 279.529,-206.71"/>
<a xlink:href="dir_000022_000016.html" target="_top" xlink:title="1">
<text text-anchor="middle" x="280.447" y="-199.722" font-family="Helvetica,sans-Serif" font-size="10.00">1</text>
</a>
</g>
<!-- dir_ebac6f698c8ed4b70faacb8ef35cbe0d&#45;&gt;dir_c4f4646ab0f4a2967be5b6215a500c22 -->
<g id="edge45" class="edge"><title>dir_ebac6f698c8ed4b70faacb8ef35cbe0d&#45;&gt;dir_c4f4646ab0f4a2967be5b6215a500c22</title>
<path fill="none" stroke="black" d="M320.991,-180.109C313.526,-198.664 300.891,-228.1 287,-252 281.596,-261.298 274.971,-270.968 268.726,-279.511"/>
<polygon fill="black" stroke="black" points="265.847,-277.517 262.667,-287.624 271.455,-281.706 265.847,-277.517"/>
<a xlink:href="dir_000022_000037.html" target="_top" xlink:title="6">
<text text-anchor="middle" x="265.723" y="-270.438" font-family="Helvetica,sans-Serif" font-size="10.00">6</text>
</a>
</g>
<!-- dir_ebac6f698c8ed4b70faacb8ef35cbe0d&#45;&gt;dir_8f68c37b22d514b4289e3a1255795d80 -->
<g id="edge47" class="edge"><title>dir_ebac6f698c8ed4b70faacb8ef35cbe0d&#45;&gt;dir_8f68c37b22d514b4289e3a1255795d80</title>
<path fill="none" stroke="black" d="M322.048,-143.831C321.297,-136.131 321.076,-126.974 321.385,-118.417"/>
<polygon fill="black" stroke="black" points="324.879,-118.616 322.024,-108.413 317.893,-118.17 324.879,-118.616"/>
<a xlink:href="dir_000022_000034.html" target="_top" xlink:title="19">
<text text-anchor="middle" x="327.484" y="-119.884" font-family="Helvetica,sans-Serif" font-size="10.00">19</text>
</a>
</g>
<!-- dir_c4f4646ab0f4a2967be5b6215a500c22&#45;&gt;dir_0af1587c8378955de40f48b4bd1869f0 -->
<g id="edge49" class="edge"><title>dir_c4f4646ab0f4a2967be5b6215a500c22&#45;&gt;dir_0af1587c8378955de40f48b4bd1869f0</title>
<path fill="none" stroke="black" d="M230.289,-287.652C222.106,-277.895 213.27,-265.204 209,-252 185.848,-180.402 205.971,-90.3726 218.992,-45.7333"/>
<polygon fill="black" stroke="black" points="222.343,-46.7429 221.882,-36.1582 215.642,-44.7203 222.343,-46.7429"/>
<a xlink:href="dir_000037_000018.html" target="_top" xlink:title="31">
<text text-anchor="middle" x="224.023" y="-48.5046" font-family="Helvetica,sans-Serif" font-size="10.00">31</text>
</a>
</g>
<!-- dir_c4f4646ab0f4a2967be5b6215a500c22&#45;&gt;dir_c44c95bf3b41c3321c6014770d618ac8 -->
<g id="edge51" class="edge"><title>dir_c4f4646ab0f4a2967be5b6215a500c22&#45;&gt;dir_c44c95bf3b41c3321c6014770d618ac8</title>
<path fill="none" stroke="black" d="M218.885,-290.119C204.161,-280.763 187.106,-267.685 176,-252 146.94,-210.961 133.965,-152.705 128.54,-118.385"/>
<polygon fill="black" stroke="black" points="131.951,-117.52 127.034,-108.135 125.025,-118.538 131.951,-117.52"/>
<a xlink:href="dir_000037_000057.html" target="_top" xlink:title="10">
<text text-anchor="middle" x="135.283" y="-118.163" font-family="Helvetica,sans-Serif" font-size="10.00">10</text>
</a>
</g>
<!-- dir_c4f4646ab0f4a2967be5b6215a500c22&#45;&gt;dir_f1b881a94df93d2a183c4d8f47373448 -->
<g id="edge53" class="edge"><title>dir_c4f4646ab0f4a2967be5b6215a500c22&#45;&gt;dir_f1b881a94df93d2a183c4d8f47373448</title>
<path fill="none" stroke="black" d="M242.048,-287.831C241.297,-280.131 241.076,-270.974 241.385,-262.417"/>
<polygon fill="black" stroke="black" points="244.879,-262.616 242.024,-252.413 237.893,-262.17 244.879,-262.616"/>
<a xlink:href="dir_000037_000016.html" target="_top" xlink:title="91">
<text text-anchor="middle" x="247.484" y="-263.884" font-family="Helvetica,sans-Serif" font-size="10.00">91</text>
</a>
</g>
<!-- dir_8f68c37b22d514b4289e3a1255795d80&#45;&gt;dir_0af1587c8378955de40f48b4bd1869f0 -->
<g id="edge55" class="edge"><title>dir_8f68c37b22d514b4289e3a1255795d80&#45;&gt;dir_0af1587c8378955de40f48b4bd1869f0</title>
<path fill="none" stroke="black" d="M302.766,-71.8314C290.212,-62.7927 274.872,-51.7476 261.361,-42.0198"/>
<polygon fill="black" stroke="black" points="263.387,-39.1655 253.226,-36.1628 259.296,-44.8463 263.387,-39.1655"/>
<a xlink:href="dir_000034_000018.html" target="_top" xlink:title="10">
<text text-anchor="middle" x="267.963" y="-36.4617" font-family="Helvetica,sans-Serif" font-size="10.00">10</text>
</a>
</g>
<!-- dir_8f68c37b22d514b4289e3a1255795d80&#45;&gt;dir_ebac6f698c8ed4b70faacb8ef35cbe0d -->
<g id="edge57" class="edge"><title>dir_8f68c37b22d514b4289e3a1255795d80&#45;&gt;dir_ebac6f698c8ed4b70faacb8ef35cbe0d</title>
<path fill="none" stroke="black" d="M333.976,-108.413C334.707,-116.059 334.92,-125.108 334.615,-133.573"/>
<polygon fill="black" stroke="black" points="331.105,-133.626 333.952,-143.831 338.09,-134.078 331.105,-133.626"/>
<a xlink:href="dir_000034_000022.html" target="_top" xlink:title="1">
<text text-anchor="middle" x="328.503" y="-127.356" font-family="Helvetica,sans-Serif" font-size="10.00">1</text>
</a>
</g>
<!-- dir_8f68c37b22d514b4289e3a1255795d80&#45;&gt;dir_c4f4646ab0f4a2967be5b6215a500c22 -->
<g id="edge59" class="edge"><title>dir_8f68c37b22d514b4289e3a1255795d80&#45;&gt;dir_c4f4646ab0f4a2967be5b6215a500c22</title>
<path fill="none" stroke="black" d="M347.496,-108.034C356.51,-117.711 366.255,-130.424 371,-144 376.279,-159.104 376.508,-164.978 371,-180 355.032,-223.55 314.782,-259.739 284.644,-281.994"/>
<polygon fill="black" stroke="black" points="282.514,-279.215 276.44,-287.896 286.602,-284.897 282.514,-279.215"/>
<a xlink:href="dir_000034_000037.html" target="_top" xlink:title="1">
<text text-anchor="middle" x="283.774" y="-272.311" font-family="Helvetica,sans-Serif" font-size="10.00">1</text>
</a>
</g>
</g>
</svg>
