<?xml version="1.0" encoding="UTF-8" standalone="no"?>
<!DOCTYPE svg PUBLIC "-//W3C//DTD SVG 1.1//EN"
 "http://www.w3.org/Graphics/SVG/1.1/DTD/svg11.dtd">
<!-- Generated by graphviz version 2.26.3 (20100126.1600)
 -->
<!-- Title: src/analysis/physics/scratch/sobotzik Pages: 1 -->
<svg width="193pt" height="369pt"
 viewBox="0.00 0.00 193.12 369.00" xmlns="http://www.w3.org/2000/svg" xmlns:xlink="http://www.w3.org/1999/xlink">
<g id="graph1" class="graph" transform="scale(1 1) rotate(0) translate(4 365)">
<title>src/analysis/physics/scratch/sobotzik</title>
<polygon fill="white" stroke="white" points="-4,5 -4,-365 190.117,-365 190.117,5 -4,5"/>
<g id="graph2" class="cluster"><title>clusterdir_15cb7383784026d829002226dc1288d7</title>
<a xlink:href="dir_15cb7383784026d829002226dc1288d7.html" target="_top" xlink:title="scratch">
<polygon fill="#ddddee" stroke="black" points="40.1166,-280 40.1166,-353 110.117,-353 110.117,-280 40.1166,-280"/>
<text text-anchor="middle" x="75.1166" y="-340" font-family="Helvetica,sans-Serif" font-size="10.00">scratch</text>
</a>
</g>
<!-- dir_374139fad1b6159fdced03a3e933469f -->
<g id="node2" class="node"><title>dir_374139fad1b6159fdced03a3e933469f</title>
<a xlink:href="dir_374139fad1b6159fdced03a3e933469f.html" target="_top" xlink:title="sobotzik">
<polygon fill="#eeeeff" stroke="black" points="102.117,-324 48.1166,-324 48.1166,-288 102.117,-288 102.117,-324"/>
<text text-anchor="middle" x="75.1166" y="-303.5" font-family="Helvetica,sans-Serif" font-size="10.00">sobotzik</text>
</a>
</g>
<!-- dir_0a0aa297e888439a92fbcfd5e567f128 -->
<g id="node3" class="node"><title>dir_0a0aa297e888439a92fbcfd5e567f128</title>
<a xlink:href="dir_0a0aa297e888439a92fbcfd5e567f128.html" target="_top" xlink:title="utils">
<polygon fill="white" stroke="red" points="75.1166,-252 21.1166,-252 21.1166,-216 75.1166,-216 75.1166,-252"/>
<text text-anchor="middle" x="48.1166" y="-231.5" font-family="Helvetica,sans-Serif" font-size="10.00">utils</text>
</a>
</g>
<!-- dir_374139fad1b6159fdced03a3e933469f&#45;&gt;dir_0a0aa297e888439a92fbcfd5e567f128 -->
<g id="edge3" class="edge"><title>dir_374139fad1b6159fdced03a3e933469f&#45;&gt;dir_0a0aa297e888439a92fbcfd5e567f128</title>
<path fill="none" stroke="black" d="M68.3034,-287.831C65.3523,-279.962 61.8308,-270.571 58.5616,-261.853"/>
<polygon fill="black" stroke="black" points="61.8101,-260.548 55.0216,-252.413 55.2558,-263.006 61.8101,-260.548"/>
<a xlink:href="dir_000029_000033.html" target="_top" xlink:title="3">
<text text-anchor="middle" x="65.7307" y="-260.416" font-family="Helvetica,sans-Serif" font-size="10.00">3</text>
</a>
</g>
<!-- dir_0af1587c8378955de40f48b4bd1869f0 -->
<g id="node4" class="node"><title>dir_0af1587c8378955de40f48b4bd1869f0</title>
<a xlink:href="dir_0af1587c8378955de40f48b4bd1869f0.html" target="_top" xlink:title="base">
<polygon fill="white" stroke="red" points="88.1166,-36 34.1166,-36 34.1166,-1.77636e-14 88.1166,-3.55271e-15 88.1166,-36"/>
<text text-anchor="middle" x="61.1166" y="-15.5" font-family="Helvetica,sans-Serif" font-size="10.00">base</text>
</a>
</g>
<!-- dir_374139fad1b6159fdced03a3e933469f&#45;&gt;dir_0af1587c8378955de40f48b4bd1869f0 -->
<g id="edge5" class="edge"><title>dir_374139fad1b6159fdced03a3e933469f&#45;&gt;dir_0af1587c8378955de40f48b4bd1869f0</title>
<path fill="none" stroke="black" d="M48.094,-290.679C34.595,-281.405 19.5808,-268.229 12.1166,-252 -20.1862,-181.767 20.4515,-89.8675 44.9931,-45.0045"/>
<polygon fill="black" stroke="black" points="48.1095,-46.603 49.9537,-36.1699 42.0059,-43.1759 48.1095,-46.603"/>
<a xlink:href="dir_000029_000018.html" target="_top" xlink:title="2">
<text text-anchor="middle" x="48.8254" y="-48.6274" font-family="Helvetica,sans-Serif" font-size="10.00">2</text>
</a>
</g>
<!-- dir_ebac6f698c8ed4b70faacb8ef35cbe0d -->
<g id="node5" class="node"><title>dir_ebac6f698c8ed4b70faacb8ef35cbe0d</title>
<a xlink:href="dir_ebac6f698c8ed4b70faacb8ef35cbe0d.html" target="_top" xlink:title="root&#45;addons">
<polygon fill="white" stroke="red" points="130.117,-108 62.1166,-108 62.1166,-72 130.117,-72 130.117,-108"/>
<text text-anchor="middle" x="96.1166" y="-87.5" font-family="Helvetica,sans-Serif" font-size="10.00">root&#45;addons</text>
</a>
</g>
<!-- dir_374139fad1b6159fdced03a3e933469f&#45;&gt;dir_ebac6f698c8ed4b70faacb8ef35cbe0d -->
<g id="edge7" class="edge"><title>dir_374139fad1b6159fdced03a3e933469f&#45;&gt;dir_ebac6f698c8ed4b70faacb8ef35cbe0d</title>
<path fill="none" stroke="black" d="M78.6172,-287.566C80.4859,-277.157 82.6885,-263.89 84.1166,-252 89.7371,-205.208 93.1332,-150.475 94.8139,-118.107"/>
<polygon fill="black" stroke="black" points="98.3138,-118.194 95.3189,-108.031 91.3226,-117.843 98.3138,-118.194"/>
<a xlink:href="dir_000029_000022.html" target="_top" xlink:title="1">
<text text-anchor="middle" x="100.97" y="-119.426" font-family="Helvetica,sans-Serif" font-size="10.00">1</text>
</a>
</g>
<!-- dir_8f68c37b22d514b4289e3a1255795d80 -->
<g id="node6" class="node"><title>dir_8f68c37b22d514b4289e3a1255795d80</title>
<a xlink:href="dir_8f68c37b22d514b4289e3a1255795d80.html" target="_top" xlink:title="plot">
<polygon fill="none" stroke="black" points="185.117,-180 131.117,-180 131.117,-144 185.117,-144 185.117,-180"/>
<text text-anchor="middle" x="158.117" y="-159.5" font-family="Helvetica,sans-Serif" font-size="10.00">plot</text>
</a>
</g>
<!-- dir_374139fad1b6159fdced03a3e933469f&#45;&gt;dir_8f68c37b22d514b4289e3a1255795d80 -->
<g id="edge9" class="edge"><title>dir_374139fad1b6159fdced03a3e933469f&#45;&gt;dir_8f68c37b22d514b4289e3a1255795d80</title>
<path fill="none" stroke="black" d="M91.0186,-287.784C99.3989,-277.663 109.491,-264.599 117.117,-252 129.193,-232.046 139.998,-207.926 147.48,-189.681"/>
<polygon fill="black" stroke="black" points="150.804,-190.797 151.282,-180.213 144.308,-188.189 150.804,-190.797"/>
<a xlink:href="dir_000029_000034.html" target="_top" xlink:title="1">
<text text-anchor="middle" x="152.099" y="-192.691" font-family="Helvetica,sans-Serif" font-size="10.00">1</text>
</a>
</g>
<!-- dir_0a0aa297e888439a92fbcfd5e567f128&#45;&gt;dir_0af1587c8378955de40f48b4bd1869f0 -->
<g id="edge11" class="edge"><title>dir_0a0aa297e888439a92fbcfd5e567f128&#45;&gt;dir_0af1587c8378955de40f48b4bd1869f0</title>
<path fill="none" stroke="black" d="M47.9907,-215.98C47.9341,-186.028 48.4665,-124.13 53.1166,-72 53.8626,-63.6369 55.0504,-54.595 56.2849,-46.3456"/>
<polygon fill="black" stroke="black" points="59.7479,-46.8535 57.8437,-36.4312 52.8329,-45.7662 59.7479,-46.8535"/>
<a xlink:href="dir_000033_000018.html" target="_top" xlink:title="51">
<text text-anchor="middle" x="61.9945" y="-48.3454" font-family="Helvetica,sans-Serif" font-size="10.00">51</text>
</a>
</g>
<!-- dir_0a0aa297e888439a92fbcfd5e567f128&#45;&gt;dir_8f68c37b22d514b4289e3a1255795d80 -->
<g id="edge13" class="edge"><title>dir_0a0aa297e888439a92fbcfd5e567f128&#45;&gt;dir_8f68c37b22d514b4289e3a1255795d80</title>
<path fill="none" stroke="black" d="M75.3077,-216.202C89.4545,-206.943 106.932,-195.502 122.18,-185.522"/>
<polygon fill="black" stroke="black" points="124.407,-188.248 130.857,-179.843 120.573,-182.391 124.407,-188.248"/>
<a xlink:href="dir_000033_000034.html" target="_top" xlink:title="2">
<text text-anchor="middle" x="122.954" y="-190.092" font-family="Helvetica,sans-Serif" font-size="10.00">2</text>
</a>
</g>
<!-- dir_ebac6f698c8ed4b70faacb8ef35cbe0d&#45;&gt;dir_0a0aa297e888439a92fbcfd5e567f128 -->
<g id="edge15" class="edge"><title>dir_ebac6f698c8ed4b70faacb8ef35cbe0d&#45;&gt;dir_0a0aa297e888439a92fbcfd5e567f128</title>
<path fill="none" stroke="black" d="M90.0868,-108.09C81.8538,-132.788 67.0189,-177.293 57.3723,-206.233"/>
<polygon fill="black" stroke="black" points="54.0378,-205.169 54.1959,-215.762 60.6786,-207.382 54.0378,-205.169"/>
<a xlink:href="dir_000022_000033.html" target="_top" xlink:title="5">
<text text-anchor="middle" x="52.4809" y="-198.361" font-family="Helvetica,sans-Serif" font-size="10.00">5</text>
</a>
</g>
<!-- dir_ebac6f698c8ed4b70faacb8ef35cbe0d&#45;&gt;dir_0af1587c8378955de40f48b4bd1869f0 -->
<g id="edge17" class="edge"><title>dir_ebac6f698c8ed4b70faacb8ef35cbe0d&#45;&gt;dir_0af1587c8378955de40f48b4bd1869f0</title>
<path fill="none" stroke="black" d="M87.2847,-71.8314C83.418,-63.8771 78.796,-54.369 74.5198,-45.5723"/>
<polygon fill="black" stroke="black" points="77.5873,-43.8768 70.0675,-36.4133 71.2917,-46.9371 77.5873,-43.8768"/>
<a xlink:href="dir_000022_000018.html" target="_top" xlink:title="48">
<text text-anchor="middle" x="81.7123" y="-43.3683" font-family="Helvetica,sans-Serif" font-size="10.00">48</text>
</a>
</g>
<!-- dir_ebac6f698c8ed4b70faacb8ef35cbe0d&#45;&gt;dir_8f68c37b22d514b4289e3a1255795d80 -->
<g id="edge19" class="edge"><title>dir_ebac6f698c8ed4b70faacb8ef35cbe0d&#45;&gt;dir_8f68c37b22d514b4289e3a1255795d80</title>
<path fill="none" stroke="black" d="M117.949,-108.413C125.914,-116.739 134.698,-126.728 142.09,-135.814"/>
<polygon fill="black" stroke="black" points="139.478,-138.155 148.424,-143.831 144.971,-133.815 139.478,-138.155"/>
<a xlink:href="dir_000022_000034.html" target="_top" xlink:title="19">
<text text-anchor="middle" x="135.022" y="-134.594" font-family="Helvetica,sans-Serif" font-size="10.00">19</text>
</a>
</g>
<!-- dir_8f68c37b22d514b4289e3a1255795d80&#45;&gt;dir_0af1587c8378955de40f48b4bd1869f0 -->
<g id="edge21" class="edge"><title>dir_8f68c37b22d514b4289e3a1255795d80&#45;&gt;dir_0af1587c8378955de40f48b4bd1869f0</title>
<path fill="none" stroke="black" d="M158.136,-143.934C157.335,-124.613 153.615,-93.8108 139.117,-72 128.848,-56.552 112.518,-44.2448 97.447,-35.3048"/>
<polygon fill="black" stroke="black" points="98.7263,-32.0097 88.2914,-30.1756 95.305,-38.1167 98.7263,-32.0097"/>
<a xlink:href="dir_000034_000018.html" target="_top" xlink:title="10">
<text text-anchor="middle" x="103.25" y="-28.7895" font-family="Helvetica,sans-Serif" font-size="10.00">10</text>
</a>
</g>
<!-- dir_8f68c37b22d514b4289e3a1255795d80&#45;&gt;dir_ebac6f698c8ed4b70faacb8ef35cbe0d -->
<g id="edge23" class="edge"><title>dir_8f68c37b22d514b4289e3a1255795d80&#45;&gt;dir_ebac6f698c8ed4b70faacb8ef35cbe0d</title>
<path fill="none" stroke="black" d="M136.519,-143.831C128.57,-135.539 119.781,-125.557 112.361,-116.453"/>
<polygon fill="black" stroke="black" points="114.948,-114.081 105.997,-108.413 109.459,-118.426 114.948,-114.081"/>
<a xlink:href="dir_000034_000022.html" target="_top" xlink:title="1">
<text text-anchor="middle" x="119.405" y="-112.637" font-family="Helvetica,sans-Serif" font-size="10.00">1</text>
</a>
</g>
</g>
</svg>
