<?xml version="1.0" encoding="UTF-8" standalone="no"?>
<!DOCTYPE svg PUBLIC "-//W3C//DTD SVG 1.1//EN"
 "http://www.w3.org/Graphics/SVG/1.1/DTD/svg11.dtd">
<!-- Generated by graphviz version 2.26.3 (20100126.1600)
 -->
<!-- Title: src/analysis/input Pages: 1 -->
<svg width="506pt" height="449pt"
 viewBox="0.00 0.00 506.00 449.00" xmlns="http://www.w3.org/2000/svg" xmlns:xlink="http://www.w3.org/1999/xlink">
<g id="graph1" class="graph" transform="scale(1 1) rotate(0) translate(4 445)">
<title>src/analysis/input</title>
<polygon fill="white" stroke="white" points="-4,5 -4,-445 503,-445 503,5 -4,5"/>
<g id="graph2" class="cluster"><title>clusterdir_2eec376824a17f48dc36b4bd0c810e01</title>
<a xlink:href="dir_2eec376824a17f48dc36b4bd0c810e01.html" target="_top" xlink:title="analysis">
<polygon fill="#ddddee" stroke="black" points="151,-344 151,-433 453,-433 453,-344 151,-344"/>
<text text-anchor="middle" x="302" y="-420" font-family="Helvetica,sans-Serif" font-size="10.00">analysis</text>
</a>
</g>
<g id="graph3" class="cluster"><title>clusterdir_4d4314fec0337faafb4fd99dc7917bfa</title>
<a xlink:href="dir_4d4314fec0337faafb4fd99dc7917bfa.html" target="_top">
<polygon fill="#eeeeff" stroke="black" points="159,-352 159,-404 445,-404 445,-352 159,-352"/>
</a>
</g>
<!-- dir_4d4314fec0337faafb4fd99dc7917bfa -->
<g id="node3" class="node"><title>dir_4d4314fec0337faafb4fd99dc7917bfa</title>
<text text-anchor="middle" x="410" y="-375.5" font-family="Helvetica,sans-Serif" font-size="10.00">input</text>
</g>
<!-- dir_0dfa530d699612f2413b2376f341aa41 -->
<g id="node4" class="node"><title>dir_0dfa530d699612f2413b2376f341aa41</title>
<a xlink:href="dir_0dfa530d699612f2413b2376f341aa41.html" target="_top" xlink:title="ant">
<polygon fill="white" stroke="black" points="365,-396 311,-396 311,-360 365,-360 365,-396"/>
<text text-anchor="middle" x="338" y="-375.5" font-family="Helvetica,sans-Serif" font-size="10.00">ant</text>
</a>
</g>
<!-- dir_0af1587c8378955de40f48b4bd1869f0 -->
<g id="node8" class="node"><title>dir_0af1587c8378955de40f48b4bd1869f0</title>
<a xlink:href="dir_0af1587c8378955de40f48b4bd1869f0.html" target="_top" xlink:title="base">
<polygon fill="white" stroke="red" points="275,-36 221,-36 221,-1.77636e-14 275,-3.55271e-15 275,-36"/>
<text text-anchor="middle" x="248" y="-15.5" font-family="Helvetica,sans-Serif" font-size="10.00">base</text>
</a>
</g>
<!-- dir_0dfa530d699612f2413b2376f341aa41&#45;&gt;dir_0af1587c8378955de40f48b4bd1869f0 -->
<g id="edge10" class="edge"><title>dir_0dfa530d699612f2413b2376f341aa41&#45;&gt;dir_0af1587c8378955de40f48b4bd1869f0</title>
<path fill="none" stroke="black" d="M356.244,-359.854C361.802,-354.578 368.026,-348.916 374,-344 430.886,-297.189 498,-307.671 498,-234 498,-234 498,-234 498,-162 498,-65.0481 355.075,-32.3837 285.359,-22.2176"/>
<polygon fill="black" stroke="black" points="285.614,-18.7198 275.23,-20.8242 284.66,-25.6545 285.614,-18.7198"/>
<a xlink:href="dir_000010_000018.html" target="_top" xlink:title="3">
<text text-anchor="middle" x="289.562" y="-13.8968" font-family="Helvetica,sans-Serif" font-size="10.00">3</text>
</a>
</g>
<!-- dir_c44c95bf3b41c3321c6014770d618ac8 -->
<g id="node9" class="node"><title>dir_c44c95bf3b41c3321c6014770d618ac8</title>
<a xlink:href="dir_c44c95bf3b41c3321c6014770d618ac8.html" target="_top" xlink:title="tree">
<polygon fill="none" stroke="black" points="248,-108 194,-108 194,-72 248,-72 248,-108"/>
<text text-anchor="middle" x="221" y="-87.5" font-family="Helvetica,sans-Serif" font-size="10.00">tree</text>
</a>
</g>
<!-- dir_0dfa530d699612f2413b2376f341aa41&#45;&gt;dir_c44c95bf3b41c3321c6014770d618ac8 -->
<g id="edge12" class="edge"><title>dir_0dfa530d699612f2413b2376f341aa41&#45;&gt;dir_c44c95bf3b41c3321c6014770d618ac8</title>
<path fill="none" stroke="black" d="M350.399,-359.9C377.569,-317.785 436.148,-211.67 387,-144 371.708,-122.945 302.231,-105.838 258.148,-96.857"/>
<polygon fill="black" stroke="black" points="258.566,-93.3718 248.076,-94.8559 257.202,-100.238 258.566,-93.3718"/>
<a xlink:href="dir_000010_000057.html" target="_top" xlink:title="2">
<text text-anchor="middle" x="262.645" y="-88.7874" font-family="Helvetica,sans-Serif" font-size="10.00">2</text>
</a>
</g>
<!-- dir_da9e88029a658bab9ad39bb8696ef9bc -->
<g id="node10" class="node"><title>dir_da9e88029a658bab9ad39bb8696ef9bc</title>
<a xlink:href="dir_da9e88029a658bab9ad39bb8696ef9bc.html" target="_top" xlink:title="unpacker">
<polygon fill="white" stroke="red" points="356,-180 300,-180 300,-144 356,-144 356,-180"/>
<text text-anchor="middle" x="328" y="-159.5" font-family="Helvetica,sans-Serif" font-size="10.00">unpacker</text>
</a>
</g>
<!-- dir_0dfa530d699612f2413b2376f341aa41&#45;&gt;dir_da9e88029a658bab9ad39bb8696ef9bc -->
<g id="edge14" class="edge"><title>dir_0dfa530d699612f2413b2376f341aa41&#45;&gt;dir_da9e88029a658bab9ad39bb8696ef9bc</title>
<path fill="none" stroke="black" d="M337.165,-359.955C335.426,-322.394 331.405,-235.554 329.315,-190.41"/>
<polygon fill="black" stroke="black" points="332.799,-189.972 328.84,-180.145 325.806,-190.296 332.799,-189.972"/>
<a xlink:href="dir_000010_000058.html" target="_top" xlink:title="1">
<text text-anchor="middle" x="335.801" y="-190.932" font-family="Helvetica,sans-Serif" font-size="10.00">1</text>
</a>
</g>
<!-- dir_5eb03804bf445589bf35c6aa84fb9a34 -->
<g id="node12" class="node"><title>dir_5eb03804bf445589bf35c6aa84fb9a34</title>
<a xlink:href="dir_5eb03804bf445589bf35c6aa84fb9a34.html" target="_top" xlink:title="reconstruct">
<polygon fill="white" stroke="red" points="282,-180 218,-180 218,-144 282,-144 282,-180"/>
<text text-anchor="middle" x="250" y="-159.5" font-family="Helvetica,sans-Serif" font-size="10.00">reconstruct</text>
</a>
</g>
<!-- dir_0dfa530d699612f2413b2376f341aa41&#45;&gt;dir_5eb03804bf445589bf35c6aa84fb9a34 -->
<g id="edge16" class="edge"><title>dir_0dfa530d699612f2413b2376f341aa41&#45;&gt;dir_5eb03804bf445589bf35c6aa84fb9a34</title>
<path fill="none" stroke="black" d="M330.649,-359.955C315.249,-322.156 279.517,-234.451 261.227,-189.556"/>
<polygon fill="black" stroke="black" points="264.407,-188.085 257.392,-180.145 257.924,-190.727 264.407,-188.085"/>
<a xlink:href="dir_000010_000054.html" target="_top" xlink:title="1">
<text text-anchor="middle" x="268.392" y="-187.843" font-family="Helvetica,sans-Serif" font-size="10.00">1</text>
</a>
</g>
<!-- dir_3d86aa9b1cc13bb0c6c0b306061fba4a -->
<g id="node5" class="node"><title>dir_3d86aa9b1cc13bb0c6c0b306061fba4a</title>
<a xlink:href="dir_3d86aa9b1cc13bb0c6c0b306061fba4a.html" target="_top" xlink:title="goat">
<polygon fill="white" stroke="black" points="293,-396 239,-396 239,-360 293,-360 293,-396"/>
<text text-anchor="middle" x="266" y="-375.5" font-family="Helvetica,sans-Serif" font-size="10.00">goat</text>
</a>
</g>
<!-- dir_3d86aa9b1cc13bb0c6c0b306061fba4a&#45;&gt;dir_0af1587c8378955de40f48b4bd1869f0 -->
<g id="edge48" class="edge"><title>dir_3d86aa9b1cc13bb0c6c0b306061fba4a&#45;&gt;dir_0af1587c8378955de40f48b4bd1869f0</title>
<path fill="none" stroke="black" d="M282.946,-359.801C288.658,-354.289 295.293,-348.508 302,-344 319.829,-332.018 327.658,-335.181 346,-324 401.119,-290.399 460,-298.553 460,-234 460,-234 460,-234 460,-162 460,-78.5109 346.099,-40.0478 285.273,-25.4599"/>
<polygon fill="black" stroke="black" points="285.811,-21.9925 275.281,-23.1638 284.243,-28.8147 285.811,-21.9925"/>
<a xlink:href="dir_000012_000018.html" target="_top" xlink:title="5">
<text text-anchor="middle" x="289.95" y="-17.5304" font-family="Helvetica,sans-Serif" font-size="10.00">5</text>
</a>
</g>
<!-- dir_3d86aa9b1cc13bb0c6c0b306061fba4a&#45;&gt;dir_c44c95bf3b41c3321c6014770d618ac8 -->
<g id="edge50" class="edge"><title>dir_3d86aa9b1cc13bb0c6c0b306061fba4a&#45;&gt;dir_c44c95bf3b41c3321c6014770d618ac8</title>
<path fill="none" stroke="black" d="M285.353,-359.716C326.56,-318.546 415.251,-216.512 365,-144 352.47,-125.92 296.412,-108.743 258.051,-98.7965"/>
<polygon fill="black" stroke="black" points="258.789,-95.3728 248.235,-96.3079 257.068,-102.158 258.789,-95.3728"/>
<a xlink:href="dir_000012_000057.html" target="_top" xlink:title="2">
<text text-anchor="middle" x="262.971" y="-91.0038" font-family="Helvetica,sans-Serif" font-size="10.00">2</text>
</a>
</g>
<!-- dir_c4f4646ab0f4a2967be5b6215a500c22 -->
<g id="node11" class="node"><title>dir_c4f4646ab0f4a2967be5b6215a500c22</title>
<a xlink:href="dir_c4f4646ab0f4a2967be5b6215a500c22.html" target="_top" xlink:title="expconfig">
<polygon fill="white" stroke="red" points="261,-252 203,-252 203,-216 261,-216 261,-252"/>
<text text-anchor="middle" x="232" y="-231.5" font-family="Helvetica,sans-Serif" font-size="10.00">expconfig</text>
</a>
</g>
<!-- dir_3d86aa9b1cc13bb0c6c0b306061fba4a&#45;&gt;dir_c4f4646ab0f4a2967be5b6215a500c22 -->
<g id="edge52" class="edge"><title>dir_3d86aa9b1cc13bb0c6c0b306061fba4a&#45;&gt;dir_c4f4646ab0f4a2967be5b6215a500c22</title>
<path fill="none" stroke="black" d="M261.694,-359.762C255.869,-335.093 245.425,-290.86 238.605,-261.973"/>
<polygon fill="black" stroke="black" points="241.976,-261.018 236.271,-252.09 235.163,-262.626 241.976,-261.018"/>
<a xlink:href="dir_000012_000037.html" target="_top" xlink:title="2">
<text text-anchor="middle" x="245.565" y="-261.364" font-family="Helvetica,sans-Serif" font-size="10.00">2</text>
</a>
</g>
<!-- dir_afb7c24399562c2231a021453aaf5419 -->
<g id="node6" class="node"><title>dir_afb7c24399562c2231a021453aaf5419</title>
<a xlink:href="dir_afb7c24399562c2231a021453aaf5419.html" target="_top" xlink:title="pluto">
<polygon fill="white" stroke="red" points="221,-396 167,-396 167,-360 221,-360 221,-396"/>
<text text-anchor="middle" x="194" y="-375.5" font-family="Helvetica,sans-Serif" font-size="10.00">pluto</text>
</a>
</g>
<!-- dir_0a0aa297e888439a92fbcfd5e567f128 -->
<g id="node7" class="node"><title>dir_0a0aa297e888439a92fbcfd5e567f128</title>
<a xlink:href="dir_0a0aa297e888439a92fbcfd5e567f128.html" target="_top" xlink:title="utils">
<polygon fill="white" stroke="red" points="153,-324 99,-324 99,-288 153,-288 153,-324"/>
<text text-anchor="middle" x="126" y="-303.5" font-family="Helvetica,sans-Serif" font-size="10.00">utils</text>
</a>
</g>
<!-- dir_afb7c24399562c2231a021453aaf5419&#45;&gt;dir_0a0aa297e888439a92fbcfd5e567f128 -->
<g id="edge26" class="edge"><title>dir_afb7c24399562c2231a021453aaf5419&#45;&gt;dir_0a0aa297e888439a92fbcfd5e567f128</title>
<path fill="none" stroke="black" d="M176.841,-359.831C168.849,-351.369 159.196,-341.149 150.458,-331.897"/>
<polygon fill="black" stroke="black" points="152.801,-329.28 143.39,-324.413 147.712,-334.087 152.801,-329.28"/>
<a xlink:href="dir_000013_000033.html" target="_top" xlink:title="2">
<text text-anchor="middle" x="157.333" y="-327.444" font-family="Helvetica,sans-Serif" font-size="10.00">2</text>
</a>
</g>
<!-- dir_afb7c24399562c2231a021453aaf5419&#45;&gt;dir_0af1587c8378955de40f48b4bd1869f0 -->
<g id="edge28" class="edge"><title>dir_afb7c24399562c2231a021453aaf5419&#45;&gt;dir_0af1587c8378955de40f48b4bd1869f0</title>
<path fill="none" stroke="black" d="M166.616,-371.413C113.14,-356.739 0,-316.002 0,-234 0,-234 0,-234 0,-162 0,-65.6299 141.781,-32.6675 210.94,-22.3214"/>
<polygon fill="black" stroke="black" points="211.576,-25.7664 220.988,-20.9013 210.596,-18.8353 211.576,-25.7664"/>
<a xlink:href="dir_000013_000018.html" target="_top" xlink:title="6">
<text text-anchor="middle" x="208.414" y="-26.5807" font-family="Helvetica,sans-Serif" font-size="10.00">6</text>
</a>
</g>
<!-- dir_afb7c24399562c2231a021453aaf5419&#45;&gt;dir_c44c95bf3b41c3321c6014770d618ac8 -->
<g id="edge30" class="edge"><title>dir_afb7c24399562c2231a021453aaf5419&#45;&gt;dir_c44c95bf3b41c3321c6014770d618ac8</title>
<path fill="none" stroke="black" d="M166.81,-372.266C141.943,-365.423 106.584,-351.298 90,-324 81.6924,-310.326 85.6664,-303.402 90,-288 109.616,-218.283 164.019,-150.991 196.214,-115.639"/>
<polygon fill="black" stroke="black" points="198.893,-117.897 203.113,-108.178 193.754,-113.144 198.893,-117.897"/>
<a xlink:href="dir_000013_000057.html" target="_top" xlink:title="2">
<text text-anchor="middle" x="198.537" y="-119.963" font-family="Helvetica,sans-Serif" font-size="10.00">2</text>
</a>
</g>
<!-- dir_afb7c24399562c2231a021453aaf5419&#45;&gt;dir_c4f4646ab0f4a2967be5b6215a500c22 -->
<g id="edge32" class="edge"><title>dir_afb7c24399562c2231a021453aaf5419&#45;&gt;dir_c4f4646ab0f4a2967be5b6215a500c22</title>
<path fill="none" stroke="black" d="M198.813,-359.762C205.323,-335.093 216.995,-290.86 224.618,-261.973"/>
<polygon fill="black" stroke="black" points="228.059,-262.652 227.226,-252.09 221.291,-260.866 228.059,-262.652"/>
<a xlink:href="dir_000013_000037.html" target="_top" xlink:title="1">
<text text-anchor="middle" x="229.887" y="-264.352" font-family="Helvetica,sans-Serif" font-size="10.00">1</text>
</a>
</g>
<!-- dir_0a0aa297e888439a92fbcfd5e567f128&#45;&gt;dir_0af1587c8378955de40f48b4bd1869f0 -->
<g id="edge4" class="edge"><title>dir_0a0aa297e888439a92fbcfd5e567f128&#45;&gt;dir_0af1587c8378955de40f48b4bd1869f0</title>
<path fill="none" stroke="black" d="M125.453,-287.948C125.04,-246.382 128.923,-142.117 174,-72 183.313,-57.5141 197.987,-45.6215 211.82,-36.7201"/>
<polygon fill="black" stroke="black" points="213.999,-39.4916 220.725,-31.3054 210.362,-33.5106 213.999,-39.4916"/>
<a xlink:href="dir_000033_000018.html" target="_top" xlink:title="51">
<text text-anchor="middle" x="212.403" y="-41.2852" font-family="Helvetica,sans-Serif" font-size="10.00">51</text>
</a>
</g>
<!-- dir_0a0aa297e888439a92fbcfd5e567f128&#45;&gt;dir_c44c95bf3b41c3321c6014770d618ac8 -->
<g id="edge6" class="edge"><title>dir_0a0aa297e888439a92fbcfd5e567f128&#45;&gt;dir_c44c95bf3b41c3321c6014770d618ac8</title>
<path fill="none" stroke="black" d="M133.936,-287.955C150.561,-250.156 189.135,-162.451 208.88,-117.556"/>
<polygon fill="black" stroke="black" points="212.197,-118.708 213.02,-108.145 205.79,-115.89 212.197,-118.708"/>
<a xlink:href="dir_000033_000057.html" target="_top" xlink:title="19">
<text text-anchor="middle" x="213.349" y="-120.641" font-family="Helvetica,sans-Serif" font-size="10.00">19</text>
</a>
</g>
<!-- dir_0a0aa297e888439a92fbcfd5e567f128&#45;&gt;dir_c4f4646ab0f4a2967be5b6215a500c22 -->
<g id="edge8" class="edge"><title>dir_0a0aa297e888439a92fbcfd5e567f128&#45;&gt;dir_c4f4646ab0f4a2967be5b6215a500c22</title>
<path fill="none" stroke="black" d="M152.748,-287.831C166.055,-278.793 182.316,-267.748 196.637,-258.02"/>
<polygon fill="black" stroke="black" points="198.955,-260.677 205.26,-252.163 195.021,-254.886 198.955,-260.677"/>
<a xlink:href="dir_000033_000037.html" target="_top" xlink:title="18">
<text text-anchor="middle" x="197.577" y="-262.545" font-family="Helvetica,sans-Serif" font-size="10.00">18</text>
</a>
</g>
<!-- dir_c44c95bf3b41c3321c6014770d618ac8&#45;&gt;dir_0af1587c8378955de40f48b4bd1869f0 -->
<g id="edge18" class="edge"><title>dir_c44c95bf3b41c3321c6014770d618ac8&#45;&gt;dir_0af1587c8378955de40f48b4bd1869f0</title>
<path fill="none" stroke="black" d="M227.813,-71.8314C230.764,-63.9617 234.286,-54.5712 237.555,-45.8533"/>
<polygon fill="black" stroke="black" points="240.861,-47.0055 241.095,-36.4133 234.307,-44.5476 240.861,-47.0055"/>
<a xlink:href="dir_000057_000018.html" target="_top" xlink:title="25">
<text text-anchor="middle" x="242.257" y="-48.8682" font-family="Helvetica,sans-Serif" font-size="10.00">25</text>
</a>
</g>
<!-- dir_da9e88029a658bab9ad39bb8696ef9bc&#45;&gt;dir_0af1587c8378955de40f48b4bd1869f0 -->
<g id="edge20" class="edge"><title>dir_da9e88029a658bab9ad39bb8696ef9bc&#45;&gt;dir_0af1587c8378955de40f48b4bd1869f0</title>
<path fill="none" stroke="black" d="M317.868,-143.762C303.982,-118.768 278.94,-73.6924 262.912,-44.8409"/>
<polygon fill="black" stroke="black" points="265.966,-43.1314 258.05,-36.0896 259.847,-46.531 265.966,-43.1314"/>
<a xlink:href="dir_000058_000018.html" target="_top" xlink:title="15">
<text text-anchor="middle" x="270.193" y="-42.3948" font-family="Helvetica,sans-Serif" font-size="10.00">15</text>
</a>
</g>
<!-- dir_da9e88029a658bab9ad39bb8696ef9bc&#45;&gt;dir_c44c95bf3b41c3321c6014770d618ac8 -->
<g id="edge22" class="edge"><title>dir_da9e88029a658bab9ad39bb8696ef9bc&#45;&gt;dir_c44c95bf3b41c3321c6014770d618ac8</title>
<path fill="none" stroke="black" d="M300.999,-143.831C287.567,-134.793 271.153,-123.748 256.696,-114.02"/>
<polygon fill="black" stroke="black" points="258.243,-110.842 247.992,-108.163 254.335,-116.649 258.243,-110.842"/>
<a xlink:href="dir_000058_000057.html" target="_top" xlink:title="10">
<text text-anchor="middle" x="262.81" y="-107.993" font-family="Helvetica,sans-Serif" font-size="10.00">10</text>
</a>
</g>
<!-- dir_da9e88029a658bab9ad39bb8696ef9bc&#45;&gt;dir_c4f4646ab0f4a2967be5b6215a500c22 -->
<g id="edge24" class="edge"><title>dir_da9e88029a658bab9ad39bb8696ef9bc&#45;&gt;dir_c4f4646ab0f4a2967be5b6215a500c22</title>
<path fill="none" stroke="black" d="M309.91,-180.021C298.476,-189.281 283.424,-200.678 269.556,-210.609"/>
<polygon fill="black" stroke="black" points="267.265,-207.942 261.117,-216.571 271.304,-213.659 267.265,-207.942"/>
<a xlink:href="dir_000058_000037.html" target="_top" xlink:title="4">
<text text-anchor="middle" x="268.562" y="-201.049" font-family="Helvetica,sans-Serif" font-size="10.00">4</text>
</a>
</g>
<!-- dir_c4f4646ab0f4a2967be5b6215a500c22&#45;&gt;dir_0af1587c8378955de40f48b4bd1869f0 -->
<g id="edge34" class="edge"><title>dir_c4f4646ab0f4a2967be5b6215a500c22&#45;&gt;dir_0af1587c8378955de40f48b4bd1869f0</title>
<path fill="none" stroke="black" d="M218.61,-215.881C197.743,-185.26 162.117,-121.752 185,-72 190.948,-59.0678 201.69,-48.0737 212.64,-39.4482"/>
<polygon fill="black" stroke="black" points="214.992,-42.0633 220.977,-33.3211 210.847,-36.4226 214.992,-42.0633"/>
<a xlink:href="dir_000037_000018.html" target="_top" xlink:title="31">
<text text-anchor="middle" x="213.777" y="-43.9798" font-family="Helvetica,sans-Serif" font-size="10.00">31</text>
</a>
</g>
<!-- dir_c4f4646ab0f4a2967be5b6215a500c22&#45;&gt;dir_c44c95bf3b41c3321c6014770d618ac8 -->
<g id="edge36" class="edge"><title>dir_c4f4646ab0f4a2967be5b6215a500c22&#45;&gt;dir_c44c95bf3b41c3321c6014770d618ac8</title>
<path fill="none" stroke="black" d="M221.976,-215.609C217.002,-205.437 211.527,-192.38 209,-180 204.784,-159.342 208.249,-135.704 212.52,-117.837"/>
<polygon fill="black" stroke="black" points="215.935,-118.611 215.075,-108.051 209.162,-116.842 215.935,-118.611"/>
<a xlink:href="dir_000037_000057.html" target="_top" xlink:title="10">
<text text-anchor="middle" x="217.774" y="-120.307" font-family="Helvetica,sans-Serif" font-size="10.00">10</text>
</a>
</g>
<!-- dir_c4f4646ab0f4a2967be5b6215a500c22&#45;&gt;dir_da9e88029a658bab9ad39bb8696ef9bc -->
<g id="edge38" class="edge"><title>dir_c4f4646ab0f4a2967be5b6215a500c22&#45;&gt;dir_da9e88029a658bab9ad39bb8696ef9bc</title>
<path fill="none" stroke="black" d="M250.272,-215.831C261.955,-206.379 277.361,-194.732 291.422,-184.692"/>
<polygon fill="black" stroke="black" points="293.796,-187.301 299.958,-178.682 289.766,-181.577 293.796,-187.301"/>
<a xlink:href="dir_000037_000058.html" target="_top" xlink:title="12">
<text text-anchor="middle" x="292.491" y="-189.192" font-family="Helvetica,sans-Serif" font-size="10.00">12</text>
</a>
</g>
<!-- dir_c4f4646ab0f4a2967be5b6215a500c22&#45;&gt;dir_5eb03804bf445589bf35c6aa84fb9a34 -->
<g id="edge40" class="edge"><title>dir_c4f4646ab0f4a2967be5b6215a500c22&#45;&gt;dir_5eb03804bf445589bf35c6aa84fb9a34</title>
<path fill="none" stroke="black" d="M230.59,-215.831C231.777,-208.046 233.878,-198.773 236.362,-190.135"/>
<polygon fill="black" stroke="black" points="239.758,-191.003 239.421,-180.413 233.08,-188.902 239.758,-191.003"/>
<a xlink:href="dir_000037_000054.html" target="_top" xlink:title="2">
<text text-anchor="middle" x="241.387" y="-192.784" font-family="Helvetica,sans-Serif" font-size="10.00">2</text>
</a>
</g>
<!-- dir_5eb03804bf445589bf35c6aa84fb9a34&#45;&gt;dir_0af1587c8378955de40f48b4bd1869f0 -->
<g id="edge42" class="edge"><title>dir_5eb03804bf445589bf35c6aa84fb9a34&#45;&gt;dir_0af1587c8378955de40f48b4bd1869f0</title>
<path fill="none" stroke="black" d="M253.139,-143.724C255.857,-125.538 259.055,-96.8339 257,-72 256.305,-63.6085 255.014,-54.5578 253.621,-46.3092"/>
<polygon fill="black" stroke="black" points="257.054,-45.6235 251.841,-36.3999 250.165,-46.8612 257.054,-45.6235"/>
<a xlink:href="dir_000054_000018.html" target="_top" xlink:title="11">
<text text-anchor="middle" x="260.484" y="-46.1595" font-family="Helvetica,sans-Serif" font-size="10.00">11</text>
</a>
</g>
<!-- dir_5eb03804bf445589bf35c6aa84fb9a34&#45;&gt;dir_c44c95bf3b41c3321c6014770d618ac8 -->
<g id="edge44" class="edge"><title>dir_5eb03804bf445589bf35c6aa84fb9a34&#45;&gt;dir_c44c95bf3b41c3321c6014770d618ac8</title>
<path fill="none" stroke="black" d="M242.682,-143.831C239.512,-135.962 235.73,-126.571 232.219,-117.853"/>
<polygon fill="black" stroke="black" points="235.399,-116.381 228.416,-108.413 228.906,-118.997 235.399,-116.381"/>
<a xlink:href="dir_000054_000057.html" target="_top" xlink:title="7">
<text text-anchor="middle" x="239.376" y="-116.155" font-family="Helvetica,sans-Serif" font-size="10.00">7</text>
</a>
</g>
<!-- dir_5eb03804bf445589bf35c6aa84fb9a34&#45;&gt;dir_c4f4646ab0f4a2967be5b6215a500c22 -->
<g id="edge46" class="edge"><title>dir_5eb03804bf445589bf35c6aa84fb9a34&#45;&gt;dir_c4f4646ab0f4a2967be5b6215a500c22</title>
<path fill="none" stroke="black" d="M251.373,-180.413C250.166,-188.229 248.052,-197.511 245.56,-206.136"/>
<polygon fill="black" stroke="black" points="242.173,-205.241 242.495,-215.831 248.847,-207.352 242.173,-205.241"/>
<a xlink:href="dir_000054_000037.html" target="_top" xlink:title="7">
<text text-anchor="middle" x="240.549" y="-198.458" font-family="Helvetica,sans-Serif" font-size="10.00">7</text>
</a>
</g>
</g>
</svg>
