<?xml version="1.0" encoding="UTF-8" standalone="no"?>
<!DOCTYPE svg PUBLIC "-//W3C//DTD SVG 1.1//EN"
 "http://www.w3.org/Graphics/SVG/1.1/DTD/svg11.dtd">
<!-- Generated by graphviz version 2.26.3 (20100126.1600)
 -->
<!-- Title: src/analysis/physics/scratch/collicott Pages: 1 -->
<svg width="273pt" height="369pt"
 viewBox="0.00 0.00 272.79 369.00" xmlns="http://www.w3.org/2000/svg" xmlns:xlink="http://www.w3.org/1999/xlink">
<g id="graph1" class="graph" transform="scale(1 1) rotate(0) translate(4 365)">
<title>src/analysis/physics/scratch/collicott</title>
<polygon fill="white" stroke="white" points="-4,5 -4,-365 269.785,-365 269.785,5 -4,5"/>
<g id="graph2" class="cluster"><title>clusterdir_15cb7383784026d829002226dc1288d7</title>
<a xlink:href="dir_15cb7383784026d829002226dc1288d7.html" target="_top" xlink:title="scratch">
<polygon fill="#ddddee" stroke="black" points="59.7851,-280 59.7851,-353 129.785,-353 129.785,-280 59.7851,-280"/>
<text text-anchor="middle" x="94.7851" y="-340" font-family="Helvetica,sans-Serif" font-size="10.00">scratch</text>
</a>
</g>
<!-- dir_c0012d398dc023eb3dc9a68dc92160cd -->
<g id="node2" class="node"><title>dir_c0012d398dc023eb3dc9a68dc92160cd</title>
<a xlink:href="dir_c0012d398dc023eb3dc9a68dc92160cd.html" target="_top" xlink:title="collicott">
<polygon fill="#eeeeff" stroke="black" points="121.785,-324 67.7851,-324 67.7851,-288 121.785,-288 121.785,-324"/>
<text text-anchor="middle" x="94.7851" y="-303.5" font-family="Helvetica,sans-Serif" font-size="10.00">collicott</text>
</a>
</g>
<!-- dir_0a0aa297e888439a92fbcfd5e567f128 -->
<g id="node3" class="node"><title>dir_0a0aa297e888439a92fbcfd5e567f128</title>
<a xlink:href="dir_0a0aa297e888439a92fbcfd5e567f128.html" target="_top" xlink:title="utils">
<polygon fill="white" stroke="red" points="121.785,-252 67.7851,-252 67.7851,-216 121.785,-216 121.785,-252"/>
<text text-anchor="middle" x="94.7851" y="-231.5" font-family="Helvetica,sans-Serif" font-size="10.00">utils</text>
</a>
</g>
<!-- dir_c0012d398dc023eb3dc9a68dc92160cd&#45;&gt;dir_0a0aa297e888439a92fbcfd5e567f128 -->
<g id="edge19" class="edge"><title>dir_c0012d398dc023eb3dc9a68dc92160cd&#45;&gt;dir_0a0aa297e888439a92fbcfd5e567f128</title>
<path fill="none" stroke="black" d="M94.7851,-287.831C94.7851,-280.131 94.7851,-270.974 94.7851,-262.417"/>
<polygon fill="black" stroke="black" points="98.2852,-262.413 94.7851,-252.413 91.2852,-262.413 98.2852,-262.413"/>
<a xlink:href="dir_000028_000033.html" target="_top" xlink:title="8">
<text text-anchor="middle" x="101.124" y="-263.508" font-family="Helvetica,sans-Serif" font-size="10.00">8</text>
</a>
</g>
<!-- dir_0af1587c8378955de40f48b4bd1869f0 -->
<g id="node4" class="node"><title>dir_0af1587c8378955de40f48b4bd1869f0</title>
<a xlink:href="dir_0af1587c8378955de40f48b4bd1869f0.html" target="_top" xlink:title="base">
<polygon fill="white" stroke="red" points="121.785,-36 67.7851,-36 67.7851,-1.77636e-14 121.785,-3.55271e-15 121.785,-36"/>
<text text-anchor="middle" x="94.7851" y="-15.5" font-family="Helvetica,sans-Serif" font-size="10.00">base</text>
</a>
</g>
<!-- dir_c0012d398dc023eb3dc9a68dc92160cd&#45;&gt;dir_0af1587c8378955de40f48b4bd1869f0 -->
<g id="edge21" class="edge"><title>dir_c0012d398dc023eb3dc9a68dc92160cd&#45;&gt;dir_0af1587c8378955de40f48b4bd1869f0</title>
<path fill="none" stroke="black" d="M72.6412,-287.932C40.2251,-259.137 -14.4272,-200.323 3.78508,-144 16.4651,-104.786 46.4066,-67.5134 68.4991,-43.8241"/>
<polygon fill="black" stroke="black" points="71.2814,-45.9782 75.6542,-36.3278 66.2178,-41.145 71.2814,-45.9782"/>
<a xlink:href="dir_000028_000018.html" target="_top" xlink:title="11">
<text text-anchor="middle" x="70.8534" y="-48.0388" font-family="Helvetica,sans-Serif" font-size="10.00">11</text>
</a>
</g>
<!-- dir_c4f4646ab0f4a2967be5b6215a500c22 -->
<g id="node5" class="node"><title>dir_c4f4646ab0f4a2967be5b6215a500c22</title>
<a xlink:href="dir_c4f4646ab0f4a2967be5b6215a500c22.html" target="_top" xlink:title="expconfig">
<polygon fill="white" stroke="red" points="180.785,-108 122.785,-108 122.785,-72 180.785,-72 180.785,-108"/>
<text text-anchor="middle" x="151.785" y="-87.5" font-family="Helvetica,sans-Serif" font-size="10.00">expconfig</text>
</a>
</g>
<!-- dir_c0012d398dc023eb3dc9a68dc92160cd&#45;&gt;dir_c4f4646ab0f4a2967be5b6215a500c22 -->
<g id="edge23" class="edge"><title>dir_c0012d398dc023eb3dc9a68dc92160cd&#45;&gt;dir_c4f4646ab0f4a2967be5b6215a500c22</title>
<path fill="none" stroke="black" d="M110.086,-287.684C117.56,-277.74 125.963,-264.872 130.785,-252 147.501,-207.381 151.321,-151.553 151.972,-118.446"/>
<polygon fill="black" stroke="black" points="155.475,-118.177 152.086,-108.139 148.476,-118.1 155.475,-118.177"/>
<a xlink:href="dir_000028_000037.html" target="_top" xlink:title="3">
<text text-anchor="middle" x="158.275" y="-119.302" font-family="Helvetica,sans-Serif" font-size="10.00">3</text>
</a>
</g>
<!-- dir_8f68c37b22d514b4289e3a1255795d80 -->
<g id="node6" class="node"><title>dir_8f68c37b22d514b4289e3a1255795d80</title>
<a xlink:href="dir_8f68c37b22d514b4289e3a1255795d80.html" target="_top" xlink:title="plot">
<polygon fill="none" stroke="black" points="66.7851,-180 12.7851,-180 12.7851,-144 66.7851,-144 66.7851,-180"/>
<text text-anchor="middle" x="39.7851" y="-159.5" font-family="Helvetica,sans-Serif" font-size="10.00">plot</text>
</a>
</g>
<!-- dir_c0012d398dc023eb3dc9a68dc92160cd&#45;&gt;dir_8f68c37b22d514b4289e3a1255795d80 -->
<g id="edge25" class="edge"><title>dir_c0012d398dc023eb3dc9a68dc92160cd&#45;&gt;dir_8f68c37b22d514b4289e3a1255795d80</title>
<path fill="none" stroke="black" d="M79.8998,-287.518C72.5389,-277.53 64.1131,-264.672 58.7851,-252 50.4545,-232.188 45.6318,-208.332 42.931,-190.16"/>
<polygon fill="black" stroke="black" points="46.391,-189.629 41.5756,-180.192 39.4548,-190.572 46.391,-189.629"/>
<a xlink:href="dir_000028_000034.html" target="_top" xlink:title="7">
<text text-anchor="middle" x="49.6886" y="-190.308" font-family="Helvetica,sans-Serif" font-size="10.00">7</text>
</a>
</g>
<!-- dir_f7cc278301683119f8719a92f4ffdd26 -->
<g id="node7" class="node"><title>dir_f7cc278301683119f8719a92f4ffdd26</title>
<a xlink:href="dir_f7cc278301683119f8719a92f4ffdd26.html" target="_top" xlink:title="slowcontrol">
<polygon fill="white" stroke="red" points="264.785,-180 198.785,-180 198.785,-144 264.785,-144 264.785,-180"/>
<text text-anchor="middle" x="231.785" y="-159.5" font-family="Helvetica,sans-Serif" font-size="10.00">slowcontrol</text>
</a>
</g>
<!-- dir_c0012d398dc023eb3dc9a68dc92160cd&#45;&gt;dir_f7cc278301683119f8719a92f4ffdd26 -->
<g id="edge27" class="edge"><title>dir_c0012d398dc023eb3dc9a68dc92160cd&#45;&gt;dir_f7cc278301683119f8719a92f4ffdd26</title>
<path fill="none" stroke="black" d="M121.874,-294.614C141.288,-285.385 167.038,-270.829 184.785,-252 201.773,-233.976 214.271,-208.625 222.091,-189.42"/>
<polygon fill="black" stroke="black" points="225.389,-190.597 225.753,-180.008 218.865,-188.059 225.389,-190.597"/>
<a xlink:href="dir_000028_000011.html" target="_top" xlink:title="2">
<text text-anchor="middle" x="226.732" y="-192.477" font-family="Helvetica,sans-Serif" font-size="10.00">2</text>
</a>
</g>
<!-- dir_0a0aa297e888439a92fbcfd5e567f128&#45;&gt;dir_0af1587c8378955de40f48b4bd1869f0 -->
<g id="edge3" class="edge"><title>dir_0a0aa297e888439a92fbcfd5e567f128&#45;&gt;dir_0af1587c8378955de40f48b4bd1869f0</title>
<path fill="none" stroke="black" d="M94.7851,-215.955C94.7851,-178.394 94.7851,-91.5541 94.7851,-46.4103"/>
<polygon fill="black" stroke="black" points="98.2852,-46.145 94.7851,-36.1451 91.2852,-46.1451 98.2852,-46.145"/>
<a xlink:href="dir_000033_000018.html" target="_top" xlink:title="51">
<text text-anchor="middle" x="101.124" y="-47.2397" font-family="Helvetica,sans-Serif" font-size="10.00">51</text>
</a>
</g>
<!-- dir_0a0aa297e888439a92fbcfd5e567f128&#45;&gt;dir_c4f4646ab0f4a2967be5b6215a500c22 -->
<g id="edge5" class="edge"><title>dir_0a0aa297e888439a92fbcfd5e567f128&#45;&gt;dir_c4f4646ab0f4a2967be5b6215a500c22</title>
<path fill="none" stroke="black" d="M102.004,-215.762C111.812,-190.985 129.432,-146.471 140.863,-117.594"/>
<polygon fill="black" stroke="black" points="144.198,-118.676 144.625,-108.09 137.69,-116.099 144.198,-118.676"/>
<a xlink:href="dir_000033_000037.html" target="_top" xlink:title="18">
<text text-anchor="middle" x="145.515" y="-120.563" font-family="Helvetica,sans-Serif" font-size="10.00">18</text>
</a>
</g>
<!-- dir_0a0aa297e888439a92fbcfd5e567f128&#45;&gt;dir_8f68c37b22d514b4289e3a1255795d80 -->
<g id="edge7" class="edge"><title>dir_0a0aa297e888439a92fbcfd5e567f128&#45;&gt;dir_8f68c37b22d514b4289e3a1255795d80</title>
<path fill="none" stroke="black" d="M80.9063,-215.831C74.5715,-207.539 66.9467,-197.557 59.9925,-188.453"/>
<polygon fill="black" stroke="black" points="62.7026,-186.235 53.8508,-180.413 57.1399,-190.485 62.7026,-186.235"/>
<a xlink:href="dir_000033_000034.html" target="_top" xlink:title="2">
<text text-anchor="middle" x="67.1409" y="-184.868" font-family="Helvetica,sans-Serif" font-size="10.00">2</text>
</a>
</g>
<!-- dir_c4f4646ab0f4a2967be5b6215a500c22&#45;&gt;dir_0af1587c8378955de40f48b4bd1869f0 -->
<g id="edge9" class="edge"><title>dir_c4f4646ab0f4a2967be5b6215a500c22&#45;&gt;dir_0af1587c8378955de40f48b4bd1869f0</title>
<path fill="none" stroke="black" d="M137.402,-71.8314C130.836,-63.5386 122.934,-53.557 115.727,-44.4533"/>
<polygon fill="black" stroke="black" points="118.313,-42.0813 109.362,-36.4133 112.825,-46.4262 118.313,-42.0813"/>
<a xlink:href="dir_000037_000018.html" target="_top" xlink:title="31">
<text text-anchor="middle" x="122.771" y="-40.6373" font-family="Helvetica,sans-Serif" font-size="10.00">31</text>
</a>
</g>
<!-- dir_8f68c37b22d514b4289e3a1255795d80&#45;&gt;dir_0af1587c8378955de40f48b4bd1869f0 -->
<g id="edge11" class="edge"><title>dir_8f68c37b22d514b4289e3a1255795d80&#45;&gt;dir_0af1587c8378955de40f48b4bd1869f0</title>
<path fill="none" stroke="black" d="M46.7509,-143.762C56.2146,-118.985 73.2162,-74.4714 84.2458,-45.5939"/>
<polygon fill="black" stroke="black" points="87.5774,-46.6803 87.8759,-36.0896 81.0381,-44.1826 87.5774,-46.6803"/>
<a xlink:href="dir_000034_000018.html" target="_top" xlink:title="10">
<text text-anchor="middle" x="88.9473" y="-48.5513" font-family="Helvetica,sans-Serif" font-size="10.00">10</text>
</a>
</g>
<!-- dir_8f68c37b22d514b4289e3a1255795d80&#45;&gt;dir_c4f4646ab0f4a2967be5b6215a500c22 -->
<g id="edge13" class="edge"><title>dir_8f68c37b22d514b4289e3a1255795d80&#45;&gt;dir_c4f4646ab0f4a2967be5b6215a500c22</title>
<path fill="none" stroke="black" d="M66.8972,-144.571C81.4272,-135.23 99.5302,-123.592 115.282,-113.466"/>
<polygon fill="black" stroke="black" points="117.234,-116.372 123.753,-108.021 113.449,-110.484 117.234,-116.372"/>
<a xlink:href="dir_000034_000037.html" target="_top" xlink:title="1">
<text text-anchor="middle" x="115.746" y="-118.204" font-family="Helvetica,sans-Serif" font-size="10.00">1</text>
</a>
</g>
<!-- dir_f7cc278301683119f8719a92f4ffdd26&#45;&gt;dir_0af1587c8378955de40f48b4bd1869f0 -->
<g id="edge15" class="edge"><title>dir_f7cc278301683119f8719a92f4ffdd26&#45;&gt;dir_0af1587c8378955de40f48b4bd1869f0</title>
<path fill="none" stroke="black" d="M226.951,-143.894C220.95,-124.252 209.079,-92.9082 189.785,-72 173.642,-54.5071 150.503,-41.1898 131.103,-32.1571"/>
<polygon fill="black" stroke="black" points="132.486,-28.9414 121.927,-28.0675 129.636,-35.3352 132.486,-28.9414"/>
<a xlink:href="dir_000011_000018.html" target="_top" xlink:title="11">
<text text-anchor="middle" x="136.925" y="-25.3113" font-family="Helvetica,sans-Serif" font-size="10.00">11</text>
</a>
</g>
<!-- dir_f7cc278301683119f8719a92f4ffdd26&#45;&gt;dir_c4f4646ab0f4a2967be5b6215a500c22 -->
<g id="edge17" class="edge"><title>dir_f7cc278301683119f8719a92f4ffdd26&#45;&gt;dir_c4f4646ab0f4a2967be5b6215a500c22</title>
<path fill="none" stroke="black" d="M211.598,-143.831C201.934,-135.134 190.205,-124.578 179.703,-115.127"/>
<polygon fill="black" stroke="black" points="181.74,-112.251 171.966,-108.163 177.058,-117.454 181.74,-112.251"/>
<a xlink:href="dir_000011_000037.html" target="_top" xlink:title="12">
<text text-anchor="middle" x="186.312" y="-110.045" font-family="Helvetica,sans-Serif" font-size="10.00">12</text>
</a>
</g>
</g>
</svg>
