<?xml version="1.0" encoding="UTF-8" standalone="no"?>
<!DOCTYPE svg PUBLIC "-//W3C//DTD SVG 1.1//EN"
 "http://www.w3.org/Graphics/SVG/1.1/DTD/svg11.dtd">
<!-- Generated by graphviz version 2.26.3 (20100126.1600)
 -->
<!-- Title: src/analysis/input/goat Pages: 1 -->
<svg width="137pt" height="297pt"
 viewBox="0.00 0.00 137.00 297.00" xmlns="http://www.w3.org/2000/svg" xmlns:xlink="http://www.w3.org/1999/xlink">
<g id="graph1" class="graph" transform="scale(1 1) rotate(0) translate(4 293)">
<title>src/analysis/input/goat</title>
<polygon fill="white" stroke="white" points="-4,5 -4,-293 134,-293 134,5 -4,5"/>
<g id="graph2" class="cluster"><title>clusterdir_4d4314fec0337faafb4fd99dc7917bfa</title>
<a xlink:href="dir_4d4314fec0337faafb4fd99dc7917bfa.html" target="_top" xlink:title="input">
<polygon fill="#ddddee" stroke="black" points="8,-208 8,-281 78,-281 78,-208 8,-208"/>
<text text-anchor="middle" x="43" y="-268" font-family="Helvetica,sans-Serif" font-size="10.00">input</text>
</a>
</g>
<!-- dir_3d86aa9b1cc13bb0c6c0b306061fba4a -->
<g id="node2" class="node"><title>dir_3d86aa9b1cc13bb0c6c0b306061fba4a</title>
<a xlink:href="dir_3d86aa9b1cc13bb0c6c0b306061fba4a.html" target="_top" xlink:title="goat">
<polygon fill="#eeeeff" stroke="black" points="70,-252 16,-252 16,-216 70,-216 70,-252"/>
<text text-anchor="middle" x="43" y="-231.5" font-family="Helvetica,sans-Serif" font-size="10.00">goat</text>
</a>
</g>
<!-- dir_0af1587c8378955de40f48b4bd1869f0 -->
<g id="node3" class="node"><title>dir_0af1587c8378955de40f48b4bd1869f0</title>
<a xlink:href="dir_0af1587c8378955de40f48b4bd1869f0.html" target="_top" xlink:title="base">
<polygon fill="white" stroke="red" points="80,-36 26,-36 26,-1.77636e-14 80,-3.55271e-15 80,-36"/>
<text text-anchor="middle" x="53" y="-15.5" font-family="Helvetica,sans-Serif" font-size="10.00">base</text>
</a>
</g>
<!-- dir_3d86aa9b1cc13bb0c6c0b306061fba4a&#45;&gt;dir_0af1587c8378955de40f48b4bd1869f0 -->
<g id="edge9" class="edge"><title>dir_3d86aa9b1cc13bb0c6c0b306061fba4a&#45;&gt;dir_0af1587c8378955de40f48b4bd1869f0</title>
<path fill="none" stroke="black" d="M34.7874,-215.661C22.3289,-185.25 1.64667,-122.709 17,-72 19.9564,-62.2355 25.3252,-52.6229 31.03,-44.2762"/>
<polygon fill="black" stroke="black" points="33.9414,-46.2239 37.0095,-36.0831 28.2871,-42.0973 33.9414,-46.2239"/>
<a xlink:href="dir_000012_000018.html" target="_top" xlink:title="5">
<text text-anchor="middle" x="34.1158" y="-48.3013" font-family="Helvetica,sans-Serif" font-size="10.00">5</text>
</a>
</g>
<!-- dir_c44c95bf3b41c3321c6014770d618ac8 -->
<g id="node4" class="node"><title>dir_c44c95bf3b41c3321c6014770d618ac8</title>
<a xlink:href="dir_c44c95bf3b41c3321c6014770d618ac8.html" target="_top" xlink:title="tree">
<polygon fill="none" stroke="black" points="80,-108 26,-108 26,-72 80,-72 80,-108"/>
<text text-anchor="middle" x="53" y="-87.5" font-family="Helvetica,sans-Serif" font-size="10.00">tree</text>
</a>
</g>
<!-- dir_3d86aa9b1cc13bb0c6c0b306061fba4a&#45;&gt;dir_c44c95bf3b41c3321c6014770d618ac8 -->
<g id="edge11" class="edge"><title>dir_3d86aa9b1cc13bb0c6c0b306061fba4a&#45;&gt;dir_c44c95bf3b41c3321c6014770d618ac8</title>
<path fill="none" stroke="black" d="M44.2665,-215.762C45.9721,-191.201 49.0245,-147.247 51.031,-118.354"/>
<polygon fill="black" stroke="black" points="54.5425,-118.308 51.7438,-108.09 47.5593,-117.823 54.5425,-118.308"/>
<a xlink:href="dir_000012_000057.html" target="_top" xlink:title="2">
<text text-anchor="middle" x="57.126" y="-119.591" font-family="Helvetica,sans-Serif" font-size="10.00">2</text>
</a>
</g>
<!-- dir_c4f4646ab0f4a2967be5b6215a500c22 -->
<g id="node5" class="node"><title>dir_c4f4646ab0f4a2967be5b6215a500c22</title>
<a xlink:href="dir_c4f4646ab0f4a2967be5b6215a500c22.html" target="_top" xlink:title="expconfig">
<polygon fill="white" stroke="red" points="129,-180 71,-180 71,-144 129,-144 129,-180"/>
<text text-anchor="middle" x="100" y="-159.5" font-family="Helvetica,sans-Serif" font-size="10.00">expconfig</text>
</a>
</g>
<!-- dir_3d86aa9b1cc13bb0c6c0b306061fba4a&#45;&gt;dir_c4f4646ab0f4a2967be5b6215a500c22 -->
<g id="edge13" class="edge"><title>dir_3d86aa9b1cc13bb0c6c0b306061fba4a&#45;&gt;dir_c4f4646ab0f4a2967be5b6215a500c22</title>
<path fill="none" stroke="black" d="M57.3835,-215.831C63.9486,-207.539 71.8507,-197.557 79.0578,-188.453"/>
<polygon fill="black" stroke="black" points="81.9599,-190.426 85.4228,-180.413 76.4716,-186.081 81.9599,-190.426"/>
<a xlink:href="dir_000012_000037.html" target="_top" xlink:title="2">
<text text-anchor="middle" x="81.9549" y="-192.507" font-family="Helvetica,sans-Serif" font-size="10.00">2</text>
</a>
</g>
<!-- dir_c44c95bf3b41c3321c6014770d618ac8&#45;&gt;dir_0af1587c8378955de40f48b4bd1869f0 -->
<g id="edge3" class="edge"><title>dir_c44c95bf3b41c3321c6014770d618ac8&#45;&gt;dir_0af1587c8378955de40f48b4bd1869f0</title>
<path fill="none" stroke="black" d="M53,-71.8314C53,-64.131 53,-54.9743 53,-46.4166"/>
<polygon fill="black" stroke="black" points="56.5001,-46.4132 53,-36.4133 49.5001,-46.4133 56.5001,-46.4132"/>
<a xlink:href="dir_000057_000018.html" target="_top" xlink:title="25">
<text text-anchor="middle" x="59.3393" y="-47.5079" font-family="Helvetica,sans-Serif" font-size="10.00">25</text>
</a>
</g>
<!-- dir_c4f4646ab0f4a2967be5b6215a500c22&#45;&gt;dir_0af1587c8378955de40f48b4bd1869f0 -->
<g id="edge5" class="edge"><title>dir_c4f4646ab0f4a2967be5b6215a500c22&#45;&gt;dir_0af1587c8378955de40f48b4bd1869f0</title>
<path fill="none" stroke="black" d="M100.217,-143.835C99.8854,-125.235 97.8046,-95.7649 89,-72 85.4556,-62.4332 79.9148,-52.8784 74.2333,-44.524"/>
<polygon fill="black" stroke="black" points="77.0102,-42.3903 68.3393,-36.302 71.321,-46.4687 77.0102,-42.3903"/>
<a xlink:href="dir_000037_000018.html" target="_top" xlink:title="31">
<text text-anchor="middle" x="81.4121" y="-41.1576" font-family="Helvetica,sans-Serif" font-size="10.00">31</text>
</a>
</g>
<!-- dir_c4f4646ab0f4a2967be5b6215a500c22&#45;&gt;dir_c44c95bf3b41c3321c6014770d618ac8 -->
<g id="edge7" class="edge"><title>dir_c4f4646ab0f4a2967be5b6215a500c22&#45;&gt;dir_c44c95bf3b41c3321c6014770d618ac8</title>
<path fill="none" stroke="black" d="M88.1399,-143.831C82.8371,-135.708 76.4763,-125.964 70.6327,-117.012"/>
<polygon fill="black" stroke="black" points="73.4169,-114.874 65.0198,-108.413 67.5552,-118.7 73.4169,-114.874"/>
<a xlink:href="dir_000037_000057.html" target="_top" xlink:title="10">
<text text-anchor="middle" x="77.7593" y="-113.832" font-family="Helvetica,sans-Serif" font-size="10.00">10</text>
</a>
</g>
</g>
</svg>
