<?xml version="1.0" encoding="UTF-8" standalone="no"?>
<!DOCTYPE svg PUBLIC "-//W3C//DTD SVG 1.1//EN"
 "http://www.w3.org/Graphics/SVG/1.1/DTD/svg11.dtd">
<!-- Generated by graphviz version 2.26.3 (20100126.1600)
 -->
<!-- Title: src/expconfig/detectors Pages: 1 -->
<svg width="318pt" height="305pt"
 viewBox="0.00 0.00 318.00 305.00" xmlns="http://www.w3.org/2000/svg" xmlns:xlink="http://www.w3.org/1999/xlink">
<g id="graph1" class="graph" transform="scale(1 1) rotate(0) translate(4 301)">
<title>src/expconfig/detectors</title>
<polygon fill="white" stroke="white" points="-4,5 -4,-301 315,-301 315,5 -4,5"/>
<g id="graph2" class="cluster"><title>clusterdir_c4f4646ab0f4a2967be5b6215a500c22</title>
<a xlink:href="dir_c4f4646ab0f4a2967be5b6215a500c22.html" target="_top" xlink:title="expconfig">
<polygon fill="#ddddee" stroke="black" points="8,-128 8,-289 96,-289 96,-128 8,-128"/>
<text text-anchor="middle" x="52" y="-276" font-family="Helvetica,sans-Serif" font-size="10.00">expconfig</text>
</a>
</g>
<g id="graph3" class="cluster"><title>clusterdir_f0b5461fe6d76f238177302312df4359</title>
<a xlink:href="dir_f0b5461fe6d76f238177302312df4359.html" target="_top">
<polygon fill="#eeeeff" stroke="black" points="16,-136 16,-260 88,-260 88,-136 16,-136"/>
</a>
</g>
<!-- dir_f0b5461fe6d76f238177302312df4359 -->
<g id="node3" class="node"><title>dir_f0b5461fe6d76f238177302312df4359</title>
<text text-anchor="middle" x="52" y="-231.5" font-family="Helvetica,sans-Serif" font-size="10.00">detectors</text>
</g>
<!-- dir_acf476544cbdcf3c3983a909a511b60e -->
<g id="node4" class="node"><title>dir_acf476544cbdcf3c3983a909a511b60e</title>
<a xlink:href="dir_acf476544cbdcf3c3983a909a511b60e.html" target="_top" xlink:title="detail">
<polygon fill="white" stroke="black" points="78,-180 24,-180 24,-144 78,-144 78,-180"/>
<text text-anchor="middle" x="51" y="-159.5" font-family="Helvetica,sans-Serif" font-size="10.00">detail</text>
</a>
</g>
<!-- dir_f0b5461fe6d76f238177302312df4359&#45;&gt;dir_acf476544cbdcf3c3983a909a511b60e -->
<g id="edge8" class="edge"><title>dir_f0b5461fe6d76f238177302312df4359&#45;&gt;dir_acf476544cbdcf3c3983a909a511b60e</title>
<path fill="none" stroke="black" d="M51.7477,-215.831C51.6407,-208.131 51.5135,-198.974 51.3947,-190.417"/>
<polygon fill="black" stroke="black" points="54.8944,-190.364 51.2557,-180.413 47.8951,-190.461 54.8944,-190.364"/>
<a xlink:href="dir_000038_000047.html" target="_top" xlink:title="17">
<text text-anchor="middle" x="57.7832" y="-191.419" font-family="Helvetica,sans-Serif" font-size="10.00">17</text>
</a>
</g>
<!-- dir_0af1587c8378955de40f48b4bd1869f0 -->
<g id="node5" class="node"><title>dir_0af1587c8378955de40f48b4bd1869f0</title>
<a xlink:href="dir_0af1587c8378955de40f48b4bd1869f0.html" target="_top" xlink:title="base">
<polygon fill="white" stroke="red" points="216,-36 162,-36 162,-1.77636e-14 216,-3.55271e-15 216,-36"/>
<text text-anchor="middle" x="189" y="-15.5" font-family="Helvetica,sans-Serif" font-size="10.00">base</text>
</a>
</g>
<!-- dir_f0b5461fe6d76f238177302312df4359&#45;&gt;dir_0af1587c8378955de40f48b4bd1869f0 -->
<g id="edge4" class="edge"><title>dir_f0b5461fe6d76f238177302312df4359&#45;&gt;dir_0af1587c8378955de40f48b4bd1869f0</title>
<path fill="none" stroke="black" d="M64.0473,-215.544C70.8245,-205.129 79.4216,-191.863 87,-180 117.291,-132.586 152.124,-77.0378 172.246,-44.8478"/>
<polygon fill="black" stroke="black" points="175.426,-46.3636 177.757,-36.0282 169.49,-42.6545 175.426,-46.3636"/>
<a xlink:href="dir_000038_000018.html" target="_top" xlink:title="11">
<text text-anchor="middle" x="175.93" y="-48.4165" font-family="Helvetica,sans-Serif" font-size="10.00">11</text>
</a>
</g>
<!-- dir_c44c95bf3b41c3321c6014770d618ac8 -->
<g id="node6" class="node"><title>dir_c44c95bf3b41c3321c6014770d618ac8</title>
<a xlink:href="dir_c44c95bf3b41c3321c6014770d618ac8.html" target="_top" xlink:title="tree">
<polygon fill="none" stroke="black" points="244,-108 190,-108 190,-72 244,-72 244,-108"/>
<text text-anchor="middle" x="217" y="-87.5" font-family="Helvetica,sans-Serif" font-size="10.00">tree</text>
</a>
</g>
<!-- dir_f0b5461fe6d76f238177302312df4359&#45;&gt;dir_c44c95bf3b41c3321c6014770d618ac8 -->
<g id="edge6" class="edge"><title>dir_f0b5461fe6d76f238177302312df4359&#45;&gt;dir_c44c95bf3b41c3321c6014770d618ac8</title>
<path fill="none" stroke="black" d="M80.1499,-231.737C113.656,-227.474 168.851,-215.213 199,-180 213.515,-163.047 217.535,-137.704 218.2,-118.226"/>
<polygon fill="black" stroke="black" points="221.7,-118.123 218.269,-108.099 214.7,-118.075 221.7,-118.123"/>
<a xlink:href="dir_000038_000057.html" target="_top" xlink:title="8">
<text text-anchor="middle" x="224.515" y="-119.237" font-family="Helvetica,sans-Serif" font-size="10.00">8</text>
</a>
</g>
<!-- dir_da9e88029a658bab9ad39bb8696ef9bc -->
<g id="node7" class="node"><title>dir_da9e88029a658bab9ad39bb8696ef9bc</title>
<a xlink:href="dir_da9e88029a658bab9ad39bb8696ef9bc.html" target="_top" xlink:title="unpacker">
<polygon fill="white" stroke="red" points="190,-180 134,-180 134,-144 190,-144 190,-180"/>
<text text-anchor="middle" x="162" y="-159.5" font-family="Helvetica,sans-Serif" font-size="10.00">unpacker</text>
</a>
</g>
<!-- dir_f0b5461fe6d76f238177302312df4359&#45;&gt;dir_da9e88029a658bab9ad39bb8696ef9bc -->
<g id="edge10" class="edge"><title>dir_f0b5461fe6d76f238177302312df4359&#45;&gt;dir_da9e88029a658bab9ad39bb8696ef9bc</title>
<path fill="none" stroke="black" d="M79.7576,-215.831C93.697,-206.707 110.76,-195.539 125.723,-185.745"/>
<polygon fill="black" stroke="black" points="127.801,-188.568 134.251,-180.163 123.967,-182.711 127.801,-188.568"/>
<a xlink:href="dir_000038_000058.html" target="_top" xlink:title="8">
<text text-anchor="middle" x="126.348" y="-190.412" font-family="Helvetica,sans-Serif" font-size="10.00">8</text>
</a>
</g>
<!-- dir_5eb03804bf445589bf35c6aa84fb9a34 -->
<g id="node8" class="node"><title>dir_5eb03804bf445589bf35c6aa84fb9a34</title>
<a xlink:href="dir_5eb03804bf445589bf35c6aa84fb9a34.html" target="_top" xlink:title="reconstruct">
<polygon fill="white" stroke="red" points="310,-180 246,-180 246,-144 310,-144 310,-180"/>
<text text-anchor="middle" x="278" y="-159.5" font-family="Helvetica,sans-Serif" font-size="10.00">reconstruct</text>
</a>
</g>
<!-- dir_f0b5461fe6d76f238177302312df4359&#45;&gt;dir_5eb03804bf445589bf35c6aa84fb9a34 -->
<g id="edge12" class="edge"><title>dir_f0b5461fe6d76f238177302312df4359&#45;&gt;dir_5eb03804bf445589bf35c6aa84fb9a34</title>
<path fill="none" stroke="black" d="M80.0553,-224.477C114.226,-214.284 173.036,-197.238 223,-180 227.218,-178.545 231.622,-176.937 236.037,-175.3"/>
<polygon fill="black" stroke="black" points="237.506,-178.488 245.653,-171.715 235.061,-171.929 237.506,-178.488"/>
<a xlink:href="dir_000038_000054.html" target="_top" xlink:title="1">
<text text-anchor="middle" x="235.13" y="-179.904" font-family="Helvetica,sans-Serif" font-size="10.00">1</text>
</a>
</g>
<!-- dir_c44c95bf3b41c3321c6014770d618ac8&#45;&gt;dir_0af1587c8378955de40f48b4bd1869f0 -->
<g id="edge14" class="edge"><title>dir_c44c95bf3b41c3321c6014770d618ac8&#45;&gt;dir_0af1587c8378955de40f48b4bd1869f0</title>
<path fill="none" stroke="black" d="M209.934,-71.8314C206.874,-63.9617 203.222,-54.5712 199.832,-45.8533"/>
<polygon fill="black" stroke="black" points="203.047,-44.4647 196.161,-36.4133 196.523,-47.0019 203.047,-44.4647"/>
<a xlink:href="dir_000057_000018.html" target="_top" xlink:title="25">
<text text-anchor="middle" x="206.996" y="-44.2859" font-family="Helvetica,sans-Serif" font-size="10.00">25</text>
</a>
</g>
<!-- dir_da9e88029a658bab9ad39bb8696ef9bc&#45;&gt;dir_0af1587c8378955de40f48b4bd1869f0 -->
<g id="edge16" class="edge"><title>dir_da9e88029a658bab9ad39bb8696ef9bc&#45;&gt;dir_0af1587c8378955de40f48b4bd1869f0</title>
<path fill="none" stroke="black" d="M165.42,-143.762C170.045,-119.093 178.339,-74.8598 183.755,-45.9731"/>
<polygon fill="black" stroke="black" points="187.205,-46.5634 185.608,-36.0896 180.325,-45.2733 187.205,-46.5634"/>
<a xlink:href="dir_000058_000018.html" target="_top" xlink:title="15">
<text text-anchor="middle" x="189.334" y="-48.1196" font-family="Helvetica,sans-Serif" font-size="10.00">15</text>
</a>
</g>
<!-- dir_da9e88029a658bab9ad39bb8696ef9bc&#45;&gt;dir_c44c95bf3b41c3321c6014770d618ac8 -->
<g id="edge18" class="edge"><title>dir_da9e88029a658bab9ad39bb8696ef9bc&#45;&gt;dir_c44c95bf3b41c3321c6014770d618ac8</title>
<path fill="none" stroke="black" d="M175.879,-143.831C182.214,-135.539 189.838,-125.557 196.793,-116.453"/>
<polygon fill="black" stroke="black" points="199.645,-118.485 202.934,-108.413 194.083,-114.235 199.645,-118.485"/>
<a xlink:href="dir_000058_000057.html" target="_top" xlink:title="10">
<text text-anchor="middle" x="199.719" y="-120.565" font-family="Helvetica,sans-Serif" font-size="10.00">10</text>
</a>
</g>
<!-- dir_5eb03804bf445589bf35c6aa84fb9a34&#45;&gt;dir_f0b5461fe6d76f238177302312df4359 -->
<g id="edge20" class="edge"><title>dir_5eb03804bf445589bf35c6aa84fb9a34&#45;&gt;dir_f0b5461fe6d76f238177302312df4359</title>
<path fill="none" stroke="black" d="M245.928,-178.261C244.27,-178.859 242.621,-179.441 241,-180 189.472,-197.778 128.536,-215.35 89.917,-225.414"/>
<polygon fill="black" stroke="black" points="88.9377,-222.052 80.1209,-227.927 90.677,-228.832 88.9377,-222.052"/>
<a xlink:href="dir_000054_000038.html" target="_top" xlink:title="4">
<text text-anchor="middle" x="91.7141" y="-215.909" font-family="Helvetica,sans-Serif" font-size="10.00">4</text>
</a>
</g>
<!-- dir_5eb03804bf445589bf35c6aa84fb9a34&#45;&gt;dir_0af1587c8378955de40f48b4bd1869f0 -->
<g id="edge22" class="edge"><title>dir_5eb03804bf445589bf35c6aa84fb9a34&#45;&gt;dir_0af1587c8378955de40f48b4bd1869f0</title>
<path fill="none" stroke="black" d="M276.151,-143.805C273.506,-124.651 267.274,-94.2477 253,-72 245.493,-60.2994 234.664,-49.8055 224.043,-41.2493"/>
<polygon fill="black" stroke="black" points="226.085,-38.4044 216.02,-35.0961 221.825,-43.959 226.085,-38.4044"/>
<a xlink:href="dir_000054_000018.html" target="_top" xlink:title="11">
<text text-anchor="middle" x="230.665" y="-35.8389" font-family="Helvetica,sans-Serif" font-size="10.00">11</text>
</a>
</g>
<!-- dir_5eb03804bf445589bf35c6aa84fb9a34&#45;&gt;dir_c44c95bf3b41c3321c6014770d618ac8 -->
<g id="edge24" class="edge"><title>dir_5eb03804bf445589bf35c6aa84fb9a34&#45;&gt;dir_c44c95bf3b41c3321c6014770d618ac8</title>
<path fill="none" stroke="black" d="M262.607,-143.831C255.51,-135.454 246.952,-125.353 239.176,-116.175"/>
<polygon fill="black" stroke="black" points="241.735,-113.781 232.6,-108.413 236.394,-118.306 241.735,-113.781"/>
<a xlink:href="dir_000054_000057.html" target="_top" xlink:title="7">
<text text-anchor="middle" x="246.225" y="-112.188" font-family="Helvetica,sans-Serif" font-size="10.00">7</text>
</a>
</g>
</g>
</svg>
