<?xml version="1.0" encoding="UTF-8" standalone="no"?>
<!DOCTYPE svg PUBLIC "-//W3C//DTD SVG 1.1//EN"
 "http://www.w3.org/Graphics/SVG/1.1/DTD/svg11.dtd">
<!-- Generated by graphviz version 2.26.3 (20100126.1600)
 -->
<!-- Title: src/analysis/physics/misc Pages: 1 -->
<svg width="388pt" height="441pt"
 viewBox="0.00 0.00 388.00 441.00" xmlns="http://www.w3.org/2000/svg" xmlns:xlink="http://www.w3.org/1999/xlink">
<g id="graph1" class="graph" transform="scale(1 1) rotate(0) translate(4 437)">
<title>src/analysis/physics/misc</title>
<polygon fill="white" stroke="white" points="-4,5 -4,-437 385,-437 385,5 -4,5"/>
<g id="graph2" class="cluster"><title>clusterdir_a21a804d6482c442bcd1b39e4dfcc179</title>
<a xlink:href="dir_a21a804d6482c442bcd1b39e4dfcc179.html" target="_top" xlink:title="physics">
<polygon fill="#ddddee" stroke="black" points="106,-352 106,-425 176,-425 176,-352 106,-352"/>
<text text-anchor="middle" x="141" y="-412" font-family="Helvetica,sans-Serif" font-size="10.00">physics</text>
</a>
</g>
<!-- dir_04cc45a024de8890cf589dc336108ee4 -->
<g id="node2" class="node"><title>dir_04cc45a024de8890cf589dc336108ee4</title>
<a xlink:href="dir_04cc45a024de8890cf589dc336108ee4.html" target="_top" xlink:title="misc">
<polygon fill="#eeeeff" stroke="black" points="168,-396 114,-396 114,-360 168,-360 168,-396"/>
<text text-anchor="middle" x="141" y="-375.5" font-family="Helvetica,sans-Serif" font-size="10.00">misc</text>
</a>
</g>
<!-- dir_0a0aa297e888439a92fbcfd5e567f128 -->
<g id="node3" class="node"><title>dir_0a0aa297e888439a92fbcfd5e567f128</title>
<a xlink:href="dir_0a0aa297e888439a92fbcfd5e567f128.html" target="_top" xlink:title="utils">
<polygon fill="white" stroke="red" points="141,-324 87,-324 87,-288 141,-288 141,-324"/>
<text text-anchor="middle" x="114" y="-303.5" font-family="Helvetica,sans-Serif" font-size="10.00">utils</text>
</a>
</g>
<!-- dir_04cc45a024de8890cf589dc336108ee4&#45;&gt;dir_0a0aa297e888439a92fbcfd5e567f128 -->
<g id="edge9" class="edge"><title>dir_04cc45a024de8890cf589dc336108ee4&#45;&gt;dir_0a0aa297e888439a92fbcfd5e567f128</title>
<path fill="none" stroke="black" d="M134.187,-359.831C131.236,-351.962 127.714,-342.571 124.445,-333.853"/>
<polygon fill="black" stroke="black" points="127.693,-332.548 120.905,-324.413 121.139,-335.006 127.693,-332.548"/>
<a xlink:href="dir_000008_000033.html" target="_top" xlink:title="1">
<text text-anchor="middle" x="131.614" y="-332.416" font-family="Helvetica,sans-Serif" font-size="10.00">1</text>
</a>
</g>
<!-- dir_0af1587c8378955de40f48b4bd1869f0 -->
<g id="node4" class="node"><title>dir_0af1587c8378955de40f48b4bd1869f0</title>
<a xlink:href="dir_0af1587c8378955de40f48b4bd1869f0.html" target="_top" xlink:title="base">
<polygon fill="white" stroke="red" points="174,-36 120,-36 120,-1.77636e-14 174,-3.55271e-15 174,-36"/>
<text text-anchor="middle" x="147" y="-15.5" font-family="Helvetica,sans-Serif" font-size="10.00">base</text>
</a>
</g>
<!-- dir_04cc45a024de8890cf589dc336108ee4&#45;&gt;dir_0af1587c8378955de40f48b4bd1869f0 -->
<g id="edge11" class="edge"><title>dir_04cc45a024de8890cf589dc336108ee4&#45;&gt;dir_0af1587c8378955de40f48b4bd1869f0</title>
<path fill="none" stroke="black" d="M113.814,-365.513C72.8408,-344.604 0,-298.38 0,-234 0,-234 0,-234 0,-162 0,-100.259 66.9919,-56.2532 110.526,-34.1742"/>
<polygon fill="black" stroke="black" points="112.263,-37.2208 119.695,-29.6699 109.176,-30.938 112.263,-37.2208"/>
<a xlink:href="dir_000008_000018.html" target="_top" xlink:title="9">
<text text-anchor="middle" x="110.289" y="-38.8541" font-family="Helvetica,sans-Serif" font-size="10.00">9</text>
</a>
</g>
<!-- dir_ebac6f698c8ed4b70faacb8ef35cbe0d -->
<g id="node5" class="node"><title>dir_ebac6f698c8ed4b70faacb8ef35cbe0d</title>
<a xlink:href="dir_ebac6f698c8ed4b70faacb8ef35cbe0d.html" target="_top" xlink:title="root&#45;addons">
<polygon fill="white" stroke="red" points="144,-180 76,-180 76,-144 144,-144 144,-180"/>
<text text-anchor="middle" x="110" y="-159.5" font-family="Helvetica,sans-Serif" font-size="10.00">root&#45;addons</text>
</a>
</g>
<!-- dir_04cc45a024de8890cf589dc336108ee4&#45;&gt;dir_ebac6f698c8ed4b70faacb8ef35cbe0d -->
<g id="edge13" class="edge"><title>dir_04cc45a024de8890cf589dc336108ee4&#45;&gt;dir_ebac6f698c8ed4b70faacb8ef35cbe0d</title>
<path fill="none" stroke="black" d="M113.977,-362.679C100.478,-353.405 85.4641,-340.229 78,-324 57.6113,-279.671 78.4775,-222.679 94.7548,-189.456"/>
<polygon fill="black" stroke="black" points="97.9746,-190.846 99.3969,-180.347 91.7378,-187.668 97.9746,-190.846"/>
<a xlink:href="dir_000008_000022.html" target="_top" xlink:title="3">
<text text-anchor="middle" x="98.8721" y="-192.838" font-family="Helvetica,sans-Serif" font-size="10.00">3</text>
</a>
</g>
<!-- dir_c4f4646ab0f4a2967be5b6215a500c22 -->
<g id="node6" class="node"><title>dir_c4f4646ab0f4a2967be5b6215a500c22</title>
<a xlink:href="dir_c4f4646ab0f4a2967be5b6215a500c22.html" target="_top" xlink:title="expconfig">
<polygon fill="white" stroke="red" points="267,-108 209,-108 209,-72 267,-72 267,-108"/>
<text text-anchor="middle" x="238" y="-87.5" font-family="Helvetica,sans-Serif" font-size="10.00">expconfig</text>
</a>
</g>
<!-- dir_04cc45a024de8890cf589dc336108ee4&#45;&gt;dir_c4f4646ab0f4a2967be5b6215a500c22 -->
<g id="edge15" class="edge"><title>dir_04cc45a024de8890cf589dc336108ee4&#45;&gt;dir_c4f4646ab0f4a2967be5b6215a500c22</title>
<path fill="none" stroke="black" d="M156.192,-359.91C175.286,-336.388 207.979,-293.402 228,-252 242.567,-221.877 245.057,-213.093 250,-180 253.095,-159.278 249.742,-135.813 245.801,-118.039"/>
<polygon fill="black" stroke="black" points="249.199,-117.2 243.458,-108.295 242.393,-118.836 249.199,-117.2"/>
<a xlink:href="dir_000008_000037.html" target="_top" xlink:title="2">
<text text-anchor="middle" x="252.8" y="-117.531" font-family="Helvetica,sans-Serif" font-size="10.00">2</text>
</a>
</g>
<!-- dir_8f68c37b22d514b4289e3a1255795d80 -->
<g id="node7" class="node"><title>dir_8f68c37b22d514b4289e3a1255795d80</title>
<a xlink:href="dir_8f68c37b22d514b4289e3a1255795d80.html" target="_top" xlink:title="plot">
<polygon fill="none" stroke="black" points="196,-252 142,-252 142,-216 196,-216 196,-252"/>
<text text-anchor="middle" x="169" y="-231.5" font-family="Helvetica,sans-Serif" font-size="10.00">plot</text>
</a>
</g>
<!-- dir_04cc45a024de8890cf589dc336108ee4&#45;&gt;dir_8f68c37b22d514b4289e3a1255795d80 -->
<g id="edge17" class="edge"><title>dir_04cc45a024de8890cf589dc336108ee4&#45;&gt;dir_8f68c37b22d514b4289e3a1255795d80</title>
<path fill="none" stroke="black" d="M144.546,-359.762C149.343,-335.093 157.944,-290.86 163.561,-261.973"/>
<polygon fill="black" stroke="black" points="167.009,-262.574 165.483,-252.09 160.138,-261.238 167.009,-262.574"/>
<a xlink:href="dir_000008_000034.html" target="_top" xlink:title="1">
<text text-anchor="middle" x="169.111" y="-264.144" font-family="Helvetica,sans-Serif" font-size="10.00">1</text>
</a>
</g>
<!-- dir_f7cc278301683119f8719a92f4ffdd26 -->
<g id="node8" class="node"><title>dir_f7cc278301683119f8719a92f4ffdd26</title>
<a xlink:href="dir_f7cc278301683119f8719a92f4ffdd26.html" target="_top" xlink:title="slowcontrol">
<polygon fill="white" stroke="red" points="380,-180 314,-180 314,-144 380,-144 380,-180"/>
<text text-anchor="middle" x="347" y="-159.5" font-family="Helvetica,sans-Serif" font-size="10.00">slowcontrol</text>
</a>
</g>
<!-- dir_04cc45a024de8890cf589dc336108ee4&#45;&gt;dir_f7cc278301683119f8719a92f4ffdd26 -->
<g id="edge19" class="edge"><title>dir_04cc45a024de8890cf589dc336108ee4&#45;&gt;dir_f7cc278301683119f8719a92f4ffdd26</title>
<path fill="none" stroke="black" d="M168.093,-376.279C203.39,-372.571 264.747,-360.878 300,-324 335.027,-287.359 344.175,-226.205 346.426,-190.438"/>
<polygon fill="black" stroke="black" points="349.933,-190.367 346.924,-180.208 342.941,-190.026 349.933,-190.367"/>
<a xlink:href="dir_000008_000011.html" target="_top" xlink:title="2">
<text text-anchor="middle" x="352.594" y="-191.595" font-family="Helvetica,sans-Serif" font-size="10.00">2</text>
</a>
</g>
<!-- dir_0a0aa297e888439a92fbcfd5e567f128&#45;&gt;dir_0af1587c8378955de40f48b4bd1869f0 -->
<g id="edge3" class="edge"><title>dir_0a0aa297e888439a92fbcfd5e567f128&#45;&gt;dir_0af1587c8378955de40f48b4bd1869f0</title>
<path fill="none" stroke="black" d="M101.67,-287.534C83.1578,-257.459 51.8796,-196.024 67,-144 78.0621,-105.939 104.467,-68.3768 123.93,-44.3061"/>
<polygon fill="black" stroke="black" points="126.812,-46.3127 130.488,-36.3759 121.418,-41.8516 126.812,-46.3127"/>
<a xlink:href="dir_000033_000018.html" target="_top" xlink:title="51">
<text text-anchor="middle" x="126.709" y="-48.3922" font-family="Helvetica,sans-Serif" font-size="10.00">51</text>
</a>
</g>
<!-- dir_0a0aa297e888439a92fbcfd5e567f128&#45;&gt;dir_c4f4646ab0f4a2967be5b6215a500c22 -->
<g id="edge5" class="edge"><title>dir_0a0aa297e888439a92fbcfd5e567f128&#45;&gt;dir_c4f4646ab0f4a2967be5b6215a500c22</title>
<path fill="none" stroke="black" d="M141.357,-296.765C162.045,-288.349 189.457,-273.859 205,-252 233.441,-212.001 238.611,-153.16 238.908,-118.493"/>
<polygon fill="black" stroke="black" points="242.407,-118.124 238.857,-108.142 235.407,-118.159 242.407,-118.124"/>
<a xlink:href="dir_000033_000037.html" target="_top" xlink:title="18">
<text text-anchor="middle" x="245.264" y="-119.205" font-family="Helvetica,sans-Serif" font-size="10.00">18</text>
</a>
</g>
<!-- dir_0a0aa297e888439a92fbcfd5e567f128&#45;&gt;dir_8f68c37b22d514b4289e3a1255795d80 -->
<g id="edge7" class="edge"><title>dir_0a0aa297e888439a92fbcfd5e567f128&#45;&gt;dir_8f68c37b22d514b4289e3a1255795d80</title>
<path fill="none" stroke="black" d="M127.879,-287.831C134.214,-279.539 141.838,-269.557 148.793,-260.453"/>
<polygon fill="black" stroke="black" points="151.645,-262.485 154.934,-252.413 146.083,-258.235 151.645,-262.485"/>
<a xlink:href="dir_000033_000034.html" target="_top" xlink:title="2">
<text text-anchor="middle" x="151.719" y="-264.565" font-family="Helvetica,sans-Serif" font-size="10.00">2</text>
</a>
</g>
<!-- dir_ebac6f698c8ed4b70faacb8ef35cbe0d&#45;&gt;dir_0a0aa297e888439a92fbcfd5e567f128 -->
<g id="edge21" class="edge"><title>dir_ebac6f698c8ed4b70faacb8ef35cbe0d&#45;&gt;dir_0a0aa297e888439a92fbcfd5e567f128</title>
<path fill="none" stroke="black" d="M110.502,-180.09C111.183,-204.573 112.403,-248.517 113.208,-277.471"/>
<polygon fill="black" stroke="black" points="109.717,-277.863 113.493,-287.762 116.714,-277.669 109.717,-277.863"/>
<a xlink:href="dir_000022_000033.html" target="_top" xlink:title="5">
<text text-anchor="middle" x="106.779" y="-271.849" font-family="Helvetica,sans-Serif" font-size="10.00">5</text>
</a>
</g>
<!-- dir_ebac6f698c8ed4b70faacb8ef35cbe0d&#45;&gt;dir_0af1587c8378955de40f48b4bd1869f0 -->
<g id="edge23" class="edge"><title>dir_ebac6f698c8ed4b70faacb8ef35cbe0d&#45;&gt;dir_0af1587c8378955de40f48b4bd1869f0</title>
<path fill="none" stroke="black" d="M114.686,-143.762C121.025,-119.093 132.39,-74.8598 139.812,-45.9731"/>
<polygon fill="black" stroke="black" points="143.253,-46.6461 142.352,-36.0896 136.473,-44.904 143.253,-46.6461"/>
<a xlink:href="dir_000022_000018.html" target="_top" xlink:title="48">
<text text-anchor="middle" x="145.109" y="-48.3341" font-family="Helvetica,sans-Serif" font-size="10.00">48</text>
</a>
</g>
<!-- dir_ebac6f698c8ed4b70faacb8ef35cbe0d&#45;&gt;dir_c4f4646ab0f4a2967be5b6215a500c22 -->
<g id="edge25" class="edge"><title>dir_ebac6f698c8ed4b70faacb8ef35cbe0d&#45;&gt;dir_c4f4646ab0f4a2967be5b6215a500c22</title>
<path fill="none" stroke="black" d="M142.3,-143.831C159.786,-133.995 181.496,-121.783 199.816,-111.478"/>
<polygon fill="black" stroke="black" points="201.775,-114.392 208.775,-106.439 198.343,-108.291 201.775,-114.392"/>
<a xlink:href="dir_000022_000037.html" target="_top" xlink:title="6">
<text text-anchor="middle" x="200.034" y="-116.129" font-family="Helvetica,sans-Serif" font-size="10.00">6</text>
</a>
</g>
<!-- dir_ebac6f698c8ed4b70faacb8ef35cbe0d&#45;&gt;dir_8f68c37b22d514b4289e3a1255795d80 -->
<g id="edge27" class="edge"><title>dir_ebac6f698c8ed4b70faacb8ef35cbe0d&#45;&gt;dir_8f68c37b22d514b4289e3a1255795d80</title>
<path fill="none" stroke="black" d="M131.065,-180.413C138.683,-188.739 147.051,-198.728 154.064,-207.814"/>
<polygon fill="black" stroke="black" points="151.27,-209.922 160.064,-215.831 156.874,-205.728 151.27,-209.922"/>
<a xlink:href="dir_000022_000034.html" target="_top" xlink:title="19">
<text text-anchor="middle" x="146.843" y="-206.246" font-family="Helvetica,sans-Serif" font-size="10.00">19</text>
</a>
</g>
<!-- dir_c4f4646ab0f4a2967be5b6215a500c22&#45;&gt;dir_0af1587c8378955de40f48b4bd1869f0 -->
<g id="edge29" class="edge"><title>dir_c4f4646ab0f4a2967be5b6215a500c22&#45;&gt;dir_0af1587c8378955de40f48b4bd1869f0</title>
<path fill="none" stroke="black" d="M215.037,-71.8314C203.828,-62.9632 190.179,-52.1637 178.056,-42.5718"/>
<polygon fill="black" stroke="black" points="179.97,-39.6229 169.956,-36.1628 175.626,-45.1125 179.97,-39.6229"/>
<a xlink:href="dir_000037_000018.html" target="_top" xlink:title="31">
<text text-anchor="middle" x="184.55" y="-37.1267" font-family="Helvetica,sans-Serif" font-size="10.00">31</text>
</a>
</g>
<!-- dir_8f68c37b22d514b4289e3a1255795d80&#45;&gt;dir_0af1587c8378955de40f48b4bd1869f0 -->
<g id="edge31" class="edge"><title>dir_8f68c37b22d514b4289e3a1255795d80&#45;&gt;dir_0af1587c8378955de40f48b4bd1869f0</title>
<path fill="none" stroke="black" d="M167.162,-215.955C163.328,-178.314 154.454,-91.1867 149.865,-46.1246"/>
<polygon fill="black" stroke="black" points="153.343,-45.7389 148.848,-36.1451 146.379,-46.4483 153.343,-45.7389"/>
<a xlink:href="dir_000034_000018.html" target="_top" xlink:title="10">
<text text-anchor="middle" x="156.532" y="-46.5274" font-family="Helvetica,sans-Serif" font-size="10.00">10</text>
</a>
</g>
<!-- dir_8f68c37b22d514b4289e3a1255795d80&#45;&gt;dir_ebac6f698c8ed4b70faacb8ef35cbe0d -->
<g id="edge33" class="edge"><title>dir_8f68c37b22d514b4289e3a1255795d80&#45;&gt;dir_ebac6f698c8ed4b70faacb8ef35cbe0d</title>
<path fill="none" stroke="black" d="M148.159,-215.831C140.556,-207.539 132.182,-197.557 125.143,-188.453"/>
<polygon fill="black" stroke="black" points="127.913,-186.313 119.113,-180.413 122.313,-190.513 127.913,-186.313"/>
<a xlink:href="dir_000034_000022.html" target="_top" xlink:title="1">
<text text-anchor="middle" x="132.341" y="-184.986" font-family="Helvetica,sans-Serif" font-size="10.00">1</text>
</a>
</g>
<!-- dir_8f68c37b22d514b4289e3a1255795d80&#45;&gt;dir_c4f4646ab0f4a2967be5b6215a500c22 -->
<g id="edge35" class="edge"><title>dir_8f68c37b22d514b4289e3a1255795d80&#45;&gt;dir_c4f4646ab0f4a2967be5b6215a500c22</title>
<path fill="none" stroke="black" d="M177.739,-215.762C189.663,-190.876 211.127,-146.082 224.959,-117.216"/>
<polygon fill="black" stroke="black" points="228.167,-118.62 229.332,-108.09 221.854,-115.595 228.167,-118.62"/>
<a xlink:href="dir_000034_000037.html" target="_top" xlink:title="1">
<text text-anchor="middle" x="229.174" y="-120.589" font-family="Helvetica,sans-Serif" font-size="10.00">1</text>
</a>
</g>
<!-- dir_f7cc278301683119f8719a92f4ffdd26&#45;&gt;dir_0af1587c8378955de40f48b4bd1869f0 -->
<g id="edge37" class="edge"><title>dir_f7cc278301683119f8719a92f4ffdd26&#45;&gt;dir_0af1587c8378955de40f48b4bd1869f0</title>
<path fill="none" stroke="black" d="M336.599,-143.86C324.351,-123.894 302.307,-91.9844 276,-72 248.278,-50.9408 211.14,-36.5313 183.831,-27.9293"/>
<polygon fill="black" stroke="black" points="184.836,-24.5766 174.25,-25.0213 182.802,-31.2749 184.836,-24.5766"/>
<a xlink:href="dir_000011_000018.html" target="_top" xlink:title="11">
<text text-anchor="middle" x="189.1" y="-20.4037" font-family="Helvetica,sans-Serif" font-size="10.00">11</text>
</a>
</g>
<!-- dir_f7cc278301683119f8719a92f4ffdd26&#45;&gt;dir_c4f4646ab0f4a2967be5b6215a500c22 -->
<g id="edge39" class="edge"><title>dir_f7cc278301683119f8719a92f4ffdd26&#45;&gt;dir_c4f4646ab0f4a2967be5b6215a500c22</title>
<path fill="none" stroke="black" d="M319.495,-143.831C305.682,-134.707 288.774,-123.539 273.947,-113.745"/>
<polygon fill="black" stroke="black" points="275.77,-110.754 265.497,-108.163 271.911,-116.595 275.77,-110.754"/>
<a xlink:href="dir_000011_000037.html" target="_top" xlink:title="12">
<text text-anchor="middle" x="280.334" y="-107.866" font-family="Helvetica,sans-Serif" font-size="10.00">12</text>
</a>
</g>
</g>
</svg>
