<?xml version="1.0" encoding="UTF-8" standalone="no"?>
<!DOCTYPE svg PUBLIC "-//W3C//DTD SVG 1.1//EN"
 "http://www.w3.org/Graphics/SVG/1.1/DTD/svg11.dtd">
<!-- Generated by graphviz version 2.26.3 (20100126.1600)
 -->
<!-- Title: src/analysis/utils/uncertainties Pages: 1 -->
<svg width="118pt" height="225pt"
 viewBox="0.00 0.00 118.00 225.00" xmlns="http://www.w3.org/2000/svg" xmlns:xlink="http://www.w3.org/1999/xlink">
<g id="graph1" class="graph" transform="scale(1 1) rotate(0) translate(4 221)">
<title>src/analysis/utils/uncertainties</title>
<polygon fill="white" stroke="white" points="-4,5 -4,-221 115,-221 115,5 -4,5"/>
<g id="graph2" class="cluster"><title>clusterdir_0a0aa297e888439a92fbcfd5e567f128</title>
<a xlink:href="dir_0a0aa297e888439a92fbcfd5e567f128.html" target="_top" xlink:title="utils">
<polygon fill="#ddddee" stroke="black" points="8,-136 8,-209 96,-209 96,-136 8,-136"/>
<text text-anchor="middle" x="52" y="-196" font-family="Helvetica,sans-Serif" font-size="10.00">utils</text>
</a>
</g>
<!-- dir_50df10fe516cd8e46a541517311404f2 -->
<g id="node2" class="node"><title>dir_50df10fe516cd8e46a541517311404f2</title>
<a xlink:href="dir_50df10fe516cd8e46a541517311404f2.html" target="_top" xlink:title="uncertainties">
<polygon fill="#eeeeff" stroke="black" points="88,-180 16,-180 16,-144 88,-144 88,-180"/>
<text text-anchor="middle" x="52" y="-159.5" font-family="Helvetica,sans-Serif" font-size="10.00">uncertainties</text>
</a>
</g>
<!-- dir_0af1587c8378955de40f48b4bd1869f0 -->
<g id="node3" class="node"><title>dir_0af1587c8378955de40f48b4bd1869f0</title>
<a xlink:href="dir_0af1587c8378955de40f48b4bd1869f0.html" target="_top" xlink:title="base">
<polygon fill="white" stroke="red" points="79,-36 25,-36 25,-1.77636e-14 79,-3.55271e-15 79,-36"/>
<text text-anchor="middle" x="52" y="-15.5" font-family="Helvetica,sans-Serif" font-size="10.00">base</text>
</a>
</g>
<!-- dir_50df10fe516cd8e46a541517311404f2&#45;&gt;dir_0af1587c8378955de40f48b4bd1869f0 -->
<g id="edge5" class="edge"><title>dir_50df10fe516cd8e46a541517311404f2&#45;&gt;dir_0af1587c8378955de40f48b4bd1869f0</title>
<path fill="none" stroke="black" d="M48.1587,-143.6C46.1834,-133.203 43.9877,-119.935 43,-108 41.6803,-92.0545 41.6803,-87.9455 43,-72 43.6945,-63.6085 44.9862,-54.5578 46.3786,-46.3092"/>
<polygon fill="black" stroke="black" points="49.8353,-46.8612 48.1587,-36.3999 42.9456,-45.6235 49.8353,-46.8612"/>
<a xlink:href="dir_000040_000018.html" target="_top" xlink:title="14">
<text text-anchor="middle" x="51.9944" y="-48.4012" font-family="Helvetica,sans-Serif" font-size="10.00">14</text>
</a>
</g>
<!-- dir_c4f4646ab0f4a2967be5b6215a500c22 -->
<g id="node4" class="node"><title>dir_c4f4646ab0f4a2967be5b6215a500c22</title>
<a xlink:href="dir_c4f4646ab0f4a2967be5b6215a500c22.html" target="_top" xlink:title="expconfig">
<polygon fill="white" stroke="red" points="110,-108 52,-108 52,-72 110,-72 110,-108"/>
<text text-anchor="middle" x="81" y="-87.5" font-family="Helvetica,sans-Serif" font-size="10.00">expconfig</text>
</a>
</g>
<!-- dir_50df10fe516cd8e46a541517311404f2&#45;&gt;dir_c4f4646ab0f4a2967be5b6215a500c22 -->
<g id="edge7" class="edge"><title>dir_50df10fe516cd8e46a541517311404f2&#45;&gt;dir_c4f4646ab0f4a2967be5b6215a500c22</title>
<path fill="none" stroke="black" d="M59.3179,-143.831C62.4876,-135.962 66.27,-126.571 69.7813,-117.853"/>
<polygon fill="black" stroke="black" points="73.0939,-118.997 73.5835,-108.413 66.6008,-116.381 73.0939,-118.997"/>
<a xlink:href="dir_000040_000037.html" target="_top" xlink:title="7">
<text text-anchor="middle" x="74.3847" y="-120.892" font-family="Helvetica,sans-Serif" font-size="10.00">7</text>
</a>
</g>
<!-- dir_c4f4646ab0f4a2967be5b6215a500c22&#45;&gt;dir_0af1587c8378955de40f48b4bd1869f0 -->
<g id="edge3" class="edge"><title>dir_c4f4646ab0f4a2967be5b6215a500c22&#45;&gt;dir_0af1587c8378955de40f48b4bd1869f0</title>
<path fill="none" stroke="black" d="M73.6821,-71.8314C70.5124,-63.9617 66.73,-54.5712 63.2187,-45.8533"/>
<polygon fill="black" stroke="black" points="66.3992,-44.3815 59.4165,-36.4133 59.9061,-46.9968 66.3992,-44.3815"/>
<a xlink:href="dir_000037_000018.html" target="_top" xlink:title="31">
<text text-anchor="middle" x="70.3758" y="-44.155" font-family="Helvetica,sans-Serif" font-size="10.00">31</text>
</a>
</g>
</g>
</svg>
