<?xml version="1.0" encoding="UTF-8" standalone="no"?>
<!DOCTYPE svg PUBLIC "-//W3C//DTD SVG 1.1//EN"
 "http://www.w3.org/Graphics/SVG/1.1/DTD/svg11.dtd">
<!-- Generated by graphviz version 2.26.3 (20100126.1600)
 -->
<!-- Title: src/analysis/physics/omega Pages: 1 -->
<svg width="305pt" height="513pt"
 viewBox="0.00 0.00 304.83 513.00" xmlns="http://www.w3.org/2000/svg" xmlns:xlink="http://www.w3.org/1999/xlink">
<g id="graph1" class="graph" transform="scale(1 1) rotate(0) translate(4 509)">
<title>src/analysis/physics/omega</title>
<polygon fill="white" stroke="white" points="-4,5 -4,-509 301.827,-509 301.827,5 -4,5"/>
<g id="graph2" class="cluster"><title>clusterdir_a21a804d6482c442bcd1b39e4dfcc179</title>
<a xlink:href="dir_a21a804d6482c442bcd1b39e4dfcc179.html" target="_top" xlink:title="physics">
<polygon fill="#ddddee" stroke="black" points="115.827,-424 115.827,-497 185.827,-497 185.827,-424 115.827,-424"/>
<text text-anchor="middle" x="150.827" y="-484" font-family="Helvetica,sans-Serif" font-size="10.00">physics</text>
</a>
</g>
<!-- dir_f60af29919b24042904573a5ae25dc4a -->
<g id="node2" class="node"><title>dir_f60af29919b24042904573a5ae25dc4a</title>
<a xlink:href="dir_f60af29919b24042904573a5ae25dc4a.html" target="_top" xlink:title="omega">
<polygon fill="#eeeeff" stroke="black" points="177.827,-468 123.827,-468 123.827,-432 177.827,-432 177.827,-468"/>
<text text-anchor="middle" x="150.827" y="-447.5" font-family="Helvetica,sans-Serif" font-size="10.00">omega</text>
</a>
</g>
<!-- dir_0a0aa297e888439a92fbcfd5e567f128 -->
<g id="node3" class="node"><title>dir_0a0aa297e888439a92fbcfd5e567f128</title>
<a xlink:href="dir_0a0aa297e888439a92fbcfd5e567f128.html" target="_top" xlink:title="utils">
<polygon fill="white" stroke="red" points="88.8268,-396 34.8268,-396 34.8268,-360 88.8268,-360 88.8268,-396"/>
<text text-anchor="middle" x="61.8268" y="-375.5" font-family="Helvetica,sans-Serif" font-size="10.00">utils</text>
</a>
</g>
<!-- dir_f60af29919b24042904573a5ae25dc4a&#45;&gt;dir_0a0aa297e888439a92fbcfd5e567f128 -->
<g id="edge11" class="edge"><title>dir_f60af29919b24042904573a5ae25dc4a&#45;&gt;dir_0a0aa297e888439a92fbcfd5e567f128</title>
<path fill="none" stroke="black" d="M128.368,-431.831C117.406,-422.963 104.057,-412.164 92.2003,-402.572"/>
<polygon fill="black" stroke="black" points="94.2539,-399.731 84.2781,-396.163 89.8513,-405.173 94.2539,-399.731"/>
<a xlink:href="dir_000025_000033.html" target="_top" xlink:title="42">
<text text-anchor="middle" x="98.8343" y="-397.285" font-family="Helvetica,sans-Serif" font-size="10.00">42</text>
</a>
</g>
<!-- dir_0af1587c8378955de40f48b4bd1869f0 -->
<g id="node4" class="node"><title>dir_0af1587c8378955de40f48b4bd1869f0</title>
<a xlink:href="dir_0af1587c8378955de40f48b4bd1869f0.html" target="_top" xlink:title="base">
<polygon fill="white" stroke="red" points="171.827,-36 117.827,-36 117.827,-1.77636e-14 171.827,-3.55271e-15 171.827,-36"/>
<text text-anchor="middle" x="144.827" y="-15.5" font-family="Helvetica,sans-Serif" font-size="10.00">base</text>
</a>
</g>
<!-- dir_f60af29919b24042904573a5ae25dc4a&#45;&gt;dir_0af1587c8378955de40f48b4bd1869f0 -->
<g id="edge13" class="edge"><title>dir_f60af29919b24042904573a5ae25dc4a&#45;&gt;dir_0af1587c8378955de40f48b4bd1869f0</title>
<path fill="none" stroke="black" d="M177.946,-438.278C220.168,-417.983 296.827,-372.041 296.827,-306 296.827,-306 296.827,-306 296.827,-162 296.827,-98.5382 226.136,-54.6632 181.171,-33.1743"/>
<polygon fill="black" stroke="black" points="182.547,-29.9542 172.001,-28.9296 179.606,-36.3066 182.547,-29.9542"/>
<a xlink:href="dir_000025_000018.html" target="_top" xlink:title="35">
<text text-anchor="middle" x="187.001" y="-26.3875" font-family="Helvetica,sans-Serif" font-size="10.00">35</text>
</a>
</g>
<!-- dir_c44c95bf3b41c3321c6014770d618ac8 -->
<g id="node5" class="node"><title>dir_c44c95bf3b41c3321c6014770d618ac8</title>
<a xlink:href="dir_c44c95bf3b41c3321c6014770d618ac8.html" target="_top" xlink:title="tree">
<polygon fill="none" stroke="black" points="92.8268,-108 38.8268,-108 38.8268,-72 92.8268,-72 92.8268,-108"/>
<text text-anchor="middle" x="65.8268" y="-87.5" font-family="Helvetica,sans-Serif" font-size="10.00">tree</text>
</a>
</g>
<!-- dir_f60af29919b24042904573a5ae25dc4a&#45;&gt;dir_c44c95bf3b41c3321c6014770d618ac8 -->
<g id="edge15" class="edge"><title>dir_f60af29919b24042904573a5ae25dc4a&#45;&gt;dir_c44c95bf3b41c3321c6014770d618ac8</title>
<path fill="none" stroke="black" d="M123.602,-446.875C93.8199,-441.84 47.4468,-428.891 25.8268,-396 -32.1769,-307.758 22.8456,-174.007 51.2363,-117.13"/>
<polygon fill="black" stroke="black" points="54.4399,-118.552 55.8692,-108.054 48.2052,-115.369 54.4399,-118.552"/>
<a xlink:href="dir_000025_000057.html" target="_top" xlink:title="1">
<text text-anchor="middle" x="55.3345" y="-120.544" font-family="Helvetica,sans-Serif" font-size="10.00">1</text>
</a>
</g>
<!-- dir_ebac6f698c8ed4b70faacb8ef35cbe0d -->
<g id="node6" class="node"><title>dir_ebac6f698c8ed4b70faacb8ef35cbe0d</title>
<a xlink:href="dir_ebac6f698c8ed4b70faacb8ef35cbe0d.html" target="_top" xlink:title="root&#45;addons">
<polygon fill="white" stroke="red" points="154.827,-252 86.8268,-252 86.8268,-216 154.827,-216 154.827,-252"/>
<text text-anchor="middle" x="120.827" y="-231.5" font-family="Helvetica,sans-Serif" font-size="10.00">root&#45;addons</text>
</a>
</g>
<!-- dir_f60af29919b24042904573a5ae25dc4a&#45;&gt;dir_ebac6f698c8ed4b70faacb8ef35cbe0d -->
<g id="edge17" class="edge"><title>dir_f60af29919b24042904573a5ae25dc4a&#45;&gt;dir_ebac6f698c8ed4b70faacb8ef35cbe0d</title>
<path fill="none" stroke="black" d="M148.321,-431.955C143.093,-394.314 130.992,-307.187 124.733,-262.125"/>
<polygon fill="black" stroke="black" points="128.189,-261.568 123.347,-252.145 121.256,-262.532 128.189,-261.568"/>
<a xlink:href="dir_000025_000022.html" target="_top" xlink:title="2">
<text text-anchor="middle" x="131.496" y="-262.238" font-family="Helvetica,sans-Serif" font-size="10.00">2</text>
</a>
</g>
<!-- dir_c4f4646ab0f4a2967be5b6215a500c22 -->
<g id="node7" class="node"><title>dir_c4f4646ab0f4a2967be5b6215a500c22</title>
<a xlink:href="dir_c4f4646ab0f4a2967be5b6215a500c22.html" target="_top" xlink:title="expconfig">
<polygon fill="white" stroke="red" points="206.827,-180 148.827,-180 148.827,-144 206.827,-144 206.827,-180"/>
<text text-anchor="middle" x="177.827" y="-159.5" font-family="Helvetica,sans-Serif" font-size="10.00">expconfig</text>
</a>
</g>
<!-- dir_f60af29919b24042904573a5ae25dc4a&#45;&gt;dir_c4f4646ab0f4a2967be5b6215a500c22 -->
<g id="edge19" class="edge"><title>dir_f60af29919b24042904573a5ae25dc4a&#45;&gt;dir_c4f4646ab0f4a2967be5b6215a500c22</title>
<path fill="none" stroke="black" d="M164.666,-431.609C181.385,-408.113 208.547,-365.5 218.827,-324 230.521,-276.787 209.313,-221.932 193.283,-189.694"/>
<polygon fill="black" stroke="black" points="196.21,-187.733 188.516,-180.449 189.988,-190.941 196.21,-187.733"/>
<a xlink:href="dir_000025_000037.html" target="_top" xlink:title="3">
<text text-anchor="middle" x="200.381" y="-187.127" font-family="Helvetica,sans-Serif" font-size="10.00">3</text>
</a>
</g>
<!-- dir_8f68c37b22d514b4289e3a1255795d80 -->
<g id="node8" class="node"><title>dir_8f68c37b22d514b4289e3a1255795d80</title>
<a xlink:href="dir_8f68c37b22d514b4289e3a1255795d80.html" target="_top" xlink:title="plot">
<polygon fill="none" stroke="black" points="209.827,-324 155.827,-324 155.827,-288 209.827,-288 209.827,-324"/>
<text text-anchor="middle" x="182.827" y="-303.5" font-family="Helvetica,sans-Serif" font-size="10.00">plot</text>
</a>
</g>
<!-- dir_f60af29919b24042904573a5ae25dc4a&#45;&gt;dir_8f68c37b22d514b4289e3a1255795d80 -->
<g id="edge21" class="edge"><title>dir_f60af29919b24042904573a5ae25dc4a&#45;&gt;dir_8f68c37b22d514b4289e3a1255795d80</title>
<path fill="none" stroke="black" d="M154.88,-431.762C160.362,-407.093 170.191,-362.86 176.611,-333.973"/>
<polygon fill="black" stroke="black" points="180.054,-334.611 178.807,-324.09 173.221,-333.092 180.054,-334.611"/>
<a xlink:href="dir_000025_000034.html" target="_top" xlink:title="5">
<text text-anchor="middle" x="182.046" y="-336.236" font-family="Helvetica,sans-Serif" font-size="10.00">5</text>
</a>
</g>
<!-- dir_0a0aa297e888439a92fbcfd5e567f128&#45;&gt;dir_0af1587c8378955de40f48b4bd1869f0 -->
<g id="edge3" class="edge"><title>dir_0a0aa297e888439a92fbcfd5e567f128&#45;&gt;dir_0af1587c8378955de40f48b4bd1869f0</title>
<path fill="none" stroke="black" d="M52.5909,-359.652C28.613,-309.176 -29.7433,-165.783 29.8268,-72 46.8675,-45.1725 81.1583,-31.4374 107.882,-24.5557"/>
<polygon fill="black" stroke="black" points="108.772,-27.9419 117.702,-22.2407 107.165,-21.1287 108.772,-27.9419"/>
<a xlink:href="dir_000033_000018.html" target="_top" xlink:title="51">
<text text-anchor="middle" x="105.924" y="-29.0302" font-family="Helvetica,sans-Serif" font-size="10.00">51</text>
</a>
</g>
<!-- dir_0a0aa297e888439a92fbcfd5e567f128&#45;&gt;dir_c44c95bf3b41c3321c6014770d618ac8 -->
<g id="edge5" class="edge"><title>dir_0a0aa297e888439a92fbcfd5e567f128&#45;&gt;dir_c44c95bf3b41c3321c6014770d618ac8</title>
<path fill="none" stroke="black" d="M57.1334,-359.646C54.7197,-349.263 52.036,-335.994 50.8268,-324 43.3576,-249.913 54.2204,-162.232 61.0313,-118.209"/>
<polygon fill="black" stroke="black" points="64.5021,-118.668 62.6208,-108.242 57.5895,-117.566 64.5021,-118.668"/>
<a xlink:href="dir_000033_000057.html" target="_top" xlink:title="19">
<text text-anchor="middle" x="66.74" y="-120.165" font-family="Helvetica,sans-Serif" font-size="10.00">19</text>
</a>
</g>
<!-- dir_0a0aa297e888439a92fbcfd5e567f128&#45;&gt;dir_c4f4646ab0f4a2967be5b6215a500c22 -->
<g id="edge7" class="edge"><title>dir_0a0aa297e888439a92fbcfd5e567f128&#45;&gt;dir_c4f4646ab0f4a2967be5b6215a500c22</title>
<path fill="none" stroke="black" d="M58.4996,-359.911C53.6476,-327.933 48.1615,-260.59 77.8268,-216 91.9483,-194.774 117.29,-181.218 138.928,-172.997"/>
<polygon fill="black" stroke="black" points="140.298,-176.225 148.556,-169.587 137.961,-169.627 140.298,-176.225"/>
<a xlink:href="dir_000033_000037.html" target="_top" xlink:title="18">
<text text-anchor="middle" x="137.858" y="-177.602" font-family="Helvetica,sans-Serif" font-size="10.00">18</text>
</a>
</g>
<!-- dir_0a0aa297e888439a92fbcfd5e567f128&#45;&gt;dir_8f68c37b22d514b4289e3a1255795d80 -->
<g id="edge9" class="edge"><title>dir_0a0aa297e888439a92fbcfd5e567f128&#45;&gt;dir_8f68c37b22d514b4289e3a1255795d80</title>
<path fill="none" stroke="black" d="M88.9816,-361.842C106.107,-351.651 128.416,-338.377 146.986,-327.327"/>
<polygon fill="black" stroke="black" points="148.959,-330.226 155.763,-322.104 145.379,-324.21 148.959,-330.226"/>
<a xlink:href="dir_000033_000034.html" target="_top" xlink:title="2">
<text text-anchor="middle" x="147.322" y="-332.004" font-family="Helvetica,sans-Serif" font-size="10.00">2</text>
</a>
</g>
<!-- dir_c44c95bf3b41c3321c6014770d618ac8&#45;&gt;dir_0af1587c8378955de40f48b4bd1869f0 -->
<g id="edge23" class="edge"><title>dir_c44c95bf3b41c3321c6014770d618ac8&#45;&gt;dir_0af1587c8378955de40f48b4bd1869f0</title>
<path fill="none" stroke="black" d="M85.7619,-71.8314C95.3051,-63.1337 106.887,-52.5783 117.257,-43.1265"/>
<polygon fill="black" stroke="black" points="119.865,-45.4857 124.898,-36.1628 115.15,-40.3121 119.865,-45.4857"/>
<a xlink:href="dir_000057_000018.html" target="_top" xlink:title="25">
<text text-anchor="middle" x="119.121" y="-47.5055" font-family="Helvetica,sans-Serif" font-size="10.00">25</text>
</a>
</g>
<!-- dir_ebac6f698c8ed4b70faacb8ef35cbe0d&#45;&gt;dir_0a0aa297e888439a92fbcfd5e567f128 -->
<g id="edge25" class="edge"><title>dir_ebac6f698c8ed4b70faacb8ef35cbe0d&#45;&gt;dir_0a0aa297e888439a92fbcfd5e567f128</title>
<path fill="none" stroke="black" d="M113.415,-252.09C103.295,-276.788 85.0608,-321.293 73.2036,-350.233"/>
<polygon fill="black" stroke="black" points="69.8519,-349.182 69.2992,-359.762 76.3293,-351.836 69.8519,-349.182"/>
<a xlink:href="dir_000022_000033.html" target="_top" xlink:title="5">
<text text-anchor="middle" x="68.5874" y="-342.279" font-family="Helvetica,sans-Serif" font-size="10.00">5</text>
</a>
</g>
<!-- dir_ebac6f698c8ed4b70faacb8ef35cbe0d&#45;&gt;dir_0af1587c8378955de40f48b4bd1869f0 -->
<g id="edge27" class="edge"><title>dir_ebac6f698c8ed4b70faacb8ef35cbe0d&#45;&gt;dir_0af1587c8378955de40f48b4bd1869f0</title>
<path fill="none" stroke="black" d="M122.832,-215.955C127.014,-178.314 136.695,-91.1867 141.702,-46.1246"/>
<polygon fill="black" stroke="black" points="145.185,-46.4704 142.811,-36.1451 138.228,-45.6974 145.185,-46.4704"/>
<a xlink:href="dir_000022_000018.html" target="_top" xlink:title="48">
<text text-anchor="middle" x="147.61" y="-47.8566" font-family="Helvetica,sans-Serif" font-size="10.00">48</text>
</a>
</g>
<!-- dir_ebac6f698c8ed4b70faacb8ef35cbe0d&#45;&gt;dir_c44c95bf3b41c3321c6014770d618ac8 -->
<g id="edge29" class="edge"><title>dir_ebac6f698c8ed4b70faacb8ef35cbe0d&#45;&gt;dir_c44c95bf3b41c3321c6014770d618ac8</title>
<path fill="none" stroke="black" d="M113.861,-215.762C104.397,-190.985 87.3958,-146.471 76.3662,-117.594"/>
<polygon fill="black" stroke="black" points="79.5738,-116.183 72.7361,-108.09 73.0345,-118.68 79.5738,-116.183"/>
<a xlink:href="dir_000022_000057.html" target="_top" xlink:title="10">
<text text-anchor="middle" x="83.5087" y="-116.028" font-family="Helvetica,sans-Serif" font-size="10.00">10</text>
</a>
</g>
<!-- dir_ebac6f698c8ed4b70faacb8ef35cbe0d&#45;&gt;dir_c4f4646ab0f4a2967be5b6215a500c22 -->
<g id="edge31" class="edge"><title>dir_ebac6f698c8ed4b70faacb8ef35cbe0d&#45;&gt;dir_c4f4646ab0f4a2967be5b6215a500c22</title>
<path fill="none" stroke="black" d="M135.21,-215.831C141.775,-207.539 149.678,-197.557 156.885,-188.453"/>
<polygon fill="black" stroke="black" points="159.787,-190.426 163.25,-180.413 154.298,-186.081 159.787,-190.426"/>
<a xlink:href="dir_000022_000037.html" target="_top" xlink:title="6">
<text text-anchor="middle" x="159.782" y="-192.507" font-family="Helvetica,sans-Serif" font-size="10.00">6</text>
</a>
</g>
<!-- dir_ebac6f698c8ed4b70faacb8ef35cbe0d&#45;&gt;dir_8f68c37b22d514b4289e3a1255795d80 -->
<g id="edge33" class="edge"><title>dir_ebac6f698c8ed4b70faacb8ef35cbe0d&#45;&gt;dir_8f68c37b22d514b4289e3a1255795d80</title>
<path fill="none" stroke="black" d="M142.659,-252.413C150.624,-260.739 159.408,-270.728 166.8,-279.814"/>
<polygon fill="black" stroke="black" points="164.188,-282.155 173.134,-287.831 169.681,-277.815 164.188,-282.155"/>
<a xlink:href="dir_000022_000034.html" target="_top" xlink:title="19">
<text text-anchor="middle" x="159.732" y="-278.594" font-family="Helvetica,sans-Serif" font-size="10.00">19</text>
</a>
</g>
<!-- dir_c4f4646ab0f4a2967be5b6215a500c22&#45;&gt;dir_0af1587c8378955de40f48b4bd1869f0 -->
<g id="edge35" class="edge"><title>dir_c4f4646ab0f4a2967be5b6215a500c22&#45;&gt;dir_0af1587c8378955de40f48b4bd1869f0</title>
<path fill="none" stroke="black" d="M173.647,-143.762C167.994,-119.093 157.857,-74.8598 151.237,-45.9731"/>
<polygon fill="black" stroke="black" points="154.618,-45.0551 148.972,-36.0896 147.795,-46.6188 154.618,-45.0551"/>
<a xlink:href="dir_000037_000018.html" target="_top" xlink:title="31">
<text text-anchor="middle" x="158.188" y="-45.4247" font-family="Helvetica,sans-Serif" font-size="10.00">31</text>
</a>
</g>
<!-- dir_c4f4646ab0f4a2967be5b6215a500c22&#45;&gt;dir_c44c95bf3b41c3321c6014770d618ac8 -->
<g id="edge37" class="edge"><title>dir_c4f4646ab0f4a2967be5b6215a500c22&#45;&gt;dir_c44c95bf3b41c3321c6014770d618ac8</title>
<path fill="none" stroke="black" d="M149.564,-143.831C135.047,-134.498 117.201,-123.026 101.72,-113.074"/>
<polygon fill="black" stroke="black" points="103.226,-109.881 92.921,-107.418 99.4402,-115.769 103.226,-109.881"/>
<a xlink:href="dir_000037_000057.html" target="_top" xlink:title="10">
<text text-anchor="middle" x="107.785" y="-106.937" font-family="Helvetica,sans-Serif" font-size="10.00">10</text>
</a>
</g>
<!-- dir_8f68c37b22d514b4289e3a1255795d80&#45;&gt;dir_0af1587c8378955de40f48b4bd1869f0 -->
<g id="edge39" class="edge"><title>dir_8f68c37b22d514b4289e3a1255795d80&#45;&gt;dir_0af1587c8378955de40f48b4bd1869f0</title>
<path fill="none" stroke="black" d="M191.883,-287.879C205.73,-257.781 229.218,-195.68 215.827,-144 206.179,-106.766 182.654,-68.9762 165.315,-44.628"/>
<polygon fill="black" stroke="black" points="167.96,-42.3148 159.244,-36.2917 162.302,-46.4357 167.96,-42.3148"/>
<a xlink:href="dir_000034_000018.html" target="_top" xlink:title="10">
<text text-anchor="middle" x="172.372" y="-41.049" font-family="Helvetica,sans-Serif" font-size="10.00">10</text>
</a>
</g>
<!-- dir_8f68c37b22d514b4289e3a1255795d80&#45;&gt;dir_ebac6f698c8ed4b70faacb8ef35cbe0d -->
<g id="edge41" class="edge"><title>dir_8f68c37b22d514b4289e3a1255795d80&#45;&gt;dir_ebac6f698c8ed4b70faacb8ef35cbe0d</title>
<path fill="none" stroke="black" d="M161.229,-287.831C153.28,-279.539 144.491,-269.557 137.072,-260.453"/>
<polygon fill="black" stroke="black" points="139.658,-258.081 130.707,-252.413 134.169,-262.426 139.658,-258.081"/>
<a xlink:href="dir_000034_000022.html" target="_top" xlink:title="1">
<text text-anchor="middle" x="144.115" y="-256.637" font-family="Helvetica,sans-Serif" font-size="10.00">1</text>
</a>
</g>
<!-- dir_8f68c37b22d514b4289e3a1255795d80&#45;&gt;dir_c4f4646ab0f4a2967be5b6215a500c22 -->
<g id="edge43" class="edge"><title>dir_8f68c37b22d514b4289e3a1255795d80&#45;&gt;dir_c4f4646ab0f4a2967be5b6215a500c22</title>
<path fill="none" stroke="black" d="M182.194,-287.762C181.341,-263.201 179.815,-219.247 178.811,-190.354"/>
<polygon fill="black" stroke="black" points="182.3,-189.962 178.455,-180.09 175.304,-190.205 182.3,-189.962"/>
<a xlink:href="dir_000034_000037.html" target="_top" xlink:title="1">
<text text-anchor="middle" x="185.262" y="-190.956" font-family="Helvetica,sans-Serif" font-size="10.00">1</text>
</a>
</g>
</g>
</svg>
