<?xml version="1.0" encoding="UTF-8" standalone="no"?>
<!DOCTYPE svg PUBLIC "-//W3C//DTD SVG 1.1//EN"
 "http://www.w3.org/Graphics/SVG/1.1/DTD/svg11.dtd">
<!-- Generated by graphviz version 2.26.3 (20100126.1600)
 -->
<!-- Title: src/expconfig/detectors/Trigger.h Pages: 1 -->
<svg width="2209pt" height="332pt"
 viewBox="0.00 0.00 2209.00 332.00" xmlns="http://www.w3.org/2000/svg" xmlns:xlink="http://www.w3.org/1999/xlink">
<g id="graph1" class="graph" transform="scale(1 1) rotate(0) translate(4 328)">
<title>src/expconfig/detectors/Trigger.h</title>
<polygon fill="white" stroke="white" points="-4,5 -4,-328 2206,-328 2206,5 -4,5"/>
<!-- Node56 -->
<g id="node1" class="node"><title>Node56</title>
<polygon fill="#bfbfbf" stroke="black" points="1126.5,-289 1126.5,-323 1245.5,-323 1245.5,-289 1126.5,-289"/>
<text text-anchor="start" x="1134.5" y="-310" font-family="Helvetica,sans-Serif" font-size="10.00">src/expconfig/detectors</text>
<text text-anchor="middle" x="1186" y="-297" font-family="Helvetica,sans-Serif" font-size="10.00">/Trigger.h</text>
</g>
<!-- Node57 -->
<g id="node3" class="node"><title>Node57</title>
<a xlink:href="_goat_reader_8cc.html" target="_top" xlink:title="src/analysis/input\l/goat/GoatReader.cc">
<polygon fill="white" stroke="black" points="76.5,-217 76.5,-251 183.5,-251 183.5,-217 76.5,-217"/>
<text text-anchor="start" x="84.5" y="-238" font-family="Helvetica,sans-Serif" font-size="10.00">src/analysis/input</text>
<text text-anchor="middle" x="130" y="-225" font-family="Helvetica,sans-Serif" font-size="10.00">/goat/GoatReader.cc</text>
</a>
</g>
<!-- Node56&#45;&gt;Node57 -->
<g id="edge2" class="edge"><title>Node56&#45;&gt;Node57</title>
<path fill="none" stroke="midnightblue" d="M1116.17,-304.279C920.597,-299.129 370.159,-282.291 192,-252 189.238,-251.53 186.423,-250.981 183.594,-250.371"/>
<polygon fill="midnightblue" stroke="midnightblue" points="1116.23,-307.782 1126.32,-304.544 1116.41,-300.784 1116.23,-307.782"/>
</g>
<!-- Node58 -->
<g id="node5" class="node"><title>Node58</title>
<a xlink:href="analysis_2physics_2calibration_2_c_b___source_calib_8cc.html" target="_top" xlink:title="src/analysis/physics\l/calibration/CB_SourceCalib.cc">
<polygon fill="white" stroke="black" points="200.5,-217 200.5,-251 353.5,-251 353.5,-217 200.5,-217"/>
<text text-anchor="start" x="208.5" y="-238" font-family="Helvetica,sans-Serif" font-size="10.00">src/analysis/physics</text>
<text text-anchor="middle" x="277" y="-225" font-family="Helvetica,sans-Serif" font-size="10.00">/calibration/CB_SourceCalib.cc</text>
</a>
</g>
<!-- Node56&#45;&gt;Node58 -->
<g id="edge4" class="edge"><title>Node56&#45;&gt;Node58</title>
<path fill="none" stroke="midnightblue" d="M1115.9,-304.787C973.308,-301.577 639.448,-290.267 362,-252 359.31,-251.629 356.579,-251.221 353.824,-250.784"/>
<polygon fill="midnightblue" stroke="midnightblue" points="1116.17,-308.294 1126.25,-305.013 1116.33,-301.295 1116.17,-308.294"/>
</g>
<!-- Node59 -->
<g id="node7" class="node"><title>Node59</title>
<a xlink:href="_beampolmon_8h.html" target="_top" xlink:title="src/analysis/slowcontrol\l/processors/Beampolmon.h">
<polygon fill="white" stroke="black" points="371,-217 371,-251 507,-251 507,-217 371,-217"/>
<text text-anchor="start" x="379" y="-238" font-family="Helvetica,sans-Serif" font-size="10.00">src/analysis/slowcontrol</text>
<text text-anchor="middle" x="439" y="-225" font-family="Helvetica,sans-Serif" font-size="10.00">/processors/Beampolmon.h</text>
</a>
</g>
<!-- Node56&#45;&gt;Node59 -->
<g id="edge6" class="edge"><title>Node56&#45;&gt;Node59</title>
<path fill="none" stroke="midnightblue" d="M1116.16,-303.802C993.886,-299.191 733.342,-285.968 516,-252 513.152,-251.555 510.252,-251.062 507.33,-250.531"/>
<polygon fill="midnightblue" stroke="midnightblue" points="1116.38,-307.312 1126.5,-304.183 1116.63,-300.317 1116.38,-307.312"/>
</g>
<!-- Node72 -->
<g id="node34" class="node"><title>Node72</title>
<a xlink:href="_e_p_t___scalers_8h.html" target="_top" xlink:title="src/analysis/slowcontrol\l/processors/EPT_Scalers.h">
<polygon fill="white" stroke="black" points="688.5,-217 688.5,-251 825.5,-251 825.5,-217 688.5,-217"/>
<text text-anchor="start" x="696.5" y="-238" font-family="Helvetica,sans-Serif" font-size="10.00">src/analysis/slowcontrol</text>
<text text-anchor="middle" x="757" y="-225" font-family="Helvetica,sans-Serif" font-size="10.00">/processors/EPT_Scalers.h</text>
</a>
</g>
<!-- Node56&#45;&gt;Node72 -->
<g id="edge34" class="edge"><title>Node56&#45;&gt;Node72</title>
<path fill="none" stroke="midnightblue" d="M1116.08,-296.9C1044.86,-287.248 931.345,-270.815 834,-252 831.304,-251.479 828.56,-250.929 825.79,-250.359"/>
<polygon fill="midnightblue" stroke="midnightblue" points="1115.9,-300.406 1126.28,-298.274 1116.84,-293.469 1115.9,-300.406"/>
</g>
<!-- Node73 -->
<g id="node37" class="node"><title>Node73</title>
<a xlink:href="_exp_trigger_8h.html" target="_top" xlink:title="src/analysis/slowcontrol\l/processors/ExpTrigger.h">
<polygon fill="white" stroke="black" points="843,-217 843,-251 969,-251 969,-217 843,-217"/>
<text text-anchor="start" x="851" y="-238" font-family="Helvetica,sans-Serif" font-size="10.00">src/analysis/slowcontrol</text>
<text text-anchor="middle" x="906" y="-225" font-family="Helvetica,sans-Serif" font-size="10.00">/processors/ExpTrigger.h</text>
</a>
</g>
<!-- Node56&#45;&gt;Node73 -->
<g id="edge38" class="edge"><title>Node56&#45;&gt;Node73</title>
<path fill="none" stroke="midnightblue" d="M1116.55,-288.142C1071.36,-276.521 1012.89,-261.485 969.034,-250.209"/>
<polygon fill="midnightblue" stroke="midnightblue" points="1115.72,-291.542 1126.28,-290.643 1117.46,-284.762 1115.72,-291.542"/>
</g>
<!-- Node75 -->
<g id="node42" class="node"><title>Node75</title>
<a xlink:href="processors_2_pair_spec_8h.html" target="_top" xlink:title="src/analysis/slowcontrol\l/processors/PairSpec.h">
<polygon fill="white" stroke="black" points="987,-217 987,-251 1109,-251 1109,-217 987,-217"/>
<text text-anchor="start" x="995" y="-238" font-family="Helvetica,sans-Serif" font-size="10.00">src/analysis/slowcontrol</text>
<text text-anchor="middle" x="1048" y="-225" font-family="Helvetica,sans-Serif" font-size="10.00">/processors/PairSpec.h</text>
</a>
</g>
<!-- Node56&#45;&gt;Node75 -->
<g id="edge44" class="edge"><title>Node56&#45;&gt;Node75</title>
<path fill="none" stroke="midnightblue" d="M1144.27,-284.226C1123.97,-273.638 1099.93,-261.094 1080.95,-251.19"/>
<polygon fill="midnightblue" stroke="midnightblue" points="1142.81,-287.414 1153.3,-288.937 1146.05,-281.208 1142.81,-287.414"/>
</g>
<!-- Node77 -->
<g id="node47" class="node"><title>Node77</title>
<a xlink:href="_tagger___scalers_8h.html" target="_top" xlink:title="src/analysis/slowcontrol\l/processors/Tagger_Scalers.h">
<polygon fill="white" stroke="black" points="524.5,-217 524.5,-251 671.5,-251 671.5,-217 524.5,-217"/>
<text text-anchor="start" x="532.5" y="-238" font-family="Helvetica,sans-Serif" font-size="10.00">src/analysis/slowcontrol</text>
<text text-anchor="middle" x="598" y="-225" font-family="Helvetica,sans-Serif" font-size="10.00">/processors/Tagger_Scalers.h</text>
</a>
</g>
<!-- Node56&#45;&gt;Node77 -->
<g id="edge50" class="edge"><title>Node56&#45;&gt;Node77</title>
<path fill="none" stroke="midnightblue" d="M1116.05,-300.977C1018.12,-293.391 834.755,-277.165 680,-252 677.267,-251.556 674.487,-251.078 671.684,-250.574"/>
<polygon fill="midnightblue" stroke="midnightblue" points="1115.89,-304.475 1126.13,-301.75 1116.42,-297.495 1115.89,-304.475"/>
</g>
<!-- Node78 -->
<g id="node50" class="node"><title>Node78</title>
<a xlink:href="expconfig_2detectors_2_trigger_8cc.html" target="_top" xlink:title="src/expconfig/detectors\l/Trigger.cc">
<polygon fill="white" stroke="black" points="1126.5,-217 1126.5,-251 1245.5,-251 1245.5,-217 1126.5,-217"/>
<text text-anchor="start" x="1134.5" y="-238" font-family="Helvetica,sans-Serif" font-size="10.00">src/expconfig/detectors</text>
<text text-anchor="middle" x="1186" y="-225" font-family="Helvetica,sans-Serif" font-size="10.00">/Trigger.cc</text>
</a>
</g>
<!-- Node56&#45;&gt;Node78 -->
<g id="edge54" class="edge"><title>Node56&#45;&gt;Node78</title>
<path fill="none" stroke="midnightblue" d="M1186,-278.719C1186,-269.572 1186,-259.625 1186,-251.441"/>
<polygon fill="midnightblue" stroke="midnightblue" points="1182.5,-278.937 1186,-288.937 1189.5,-278.937 1182.5,-278.937"/>
</g>
<!-- Node79 -->
<g id="node52" class="node"><title>Node79</title>
<a xlink:href="_setup__2007___base_8h.html" target="_top" xlink:title="src/expconfig/setups\l/Setup_2007_Base.h">
<polygon fill="white" stroke="black" points="1262.5,-217 1262.5,-251 1369.5,-251 1369.5,-217 1262.5,-217"/>
<text text-anchor="start" x="1270.5" y="-238" font-family="Helvetica,sans-Serif" font-size="10.00">src/expconfig/setups</text>
<text text-anchor="middle" x="1316" y="-225" font-family="Helvetica,sans-Serif" font-size="10.00">/Setup_2007_Base.h</text>
</a>
</g>
<!-- Node56&#45;&gt;Node79 -->
<g id="edge56" class="edge"><title>Node56&#45;&gt;Node79</title>
<path fill="none" stroke="midnightblue" d="M1225.57,-284.083C1244.63,-273.525 1267.16,-261.049 1284.96,-251.19"/>
<polygon fill="midnightblue" stroke="midnightblue" points="1223.86,-281.03 1216.81,-288.937 1227.25,-287.154 1223.86,-281.03"/>
</g>
<!-- Node83 -->
<g id="node60" class="node"><title>Node83</title>
<a xlink:href="_setup__2014___e_p_t_8h.html" target="_top" xlink:title="src/expconfig/setups\l/Setup_2014_EPT.h">
<polygon fill="white" stroke="black" points="1386.5,-217 1386.5,-251 1493.5,-251 1493.5,-217 1386.5,-217"/>
<text text-anchor="start" x="1394.5" y="-238" font-family="Helvetica,sans-Serif" font-size="10.00">src/expconfig/setups</text>
<text text-anchor="middle" x="1440" y="-225" font-family="Helvetica,sans-Serif" font-size="10.00">/Setup_2014_EPT.h</text>
</a>
</g>
<!-- Node56&#45;&gt;Node83 -->
<g id="edge64" class="edge"><title>Node56&#45;&gt;Node83</title>
<path fill="none" stroke="midnightblue" d="M1255.74,-286.536C1292.19,-276.326 1337.52,-263.567 1378,-252 1380.69,-251.23 1383.45,-250.439 1386.24,-249.638"/>
<polygon fill="midnightblue" stroke="midnightblue" points="1254.4,-283.279 1245.71,-289.345 1256.28,-290.019 1254.4,-283.279"/>
</g>
<!-- Node88 -->
<g id="node70" class="node"><title>Node88</title>
<a xlink:href="_setup__2015__01___pion_8cc.html" target="_top" xlink:title="src/expconfig/setups\l/Setup_2015_01_Pion.cc">
<polygon fill="white" stroke="black" points="1510.5,-217 1510.5,-251 1635.5,-251 1635.5,-217 1510.5,-217"/>
<text text-anchor="start" x="1518.5" y="-238" font-family="Helvetica,sans-Serif" font-size="10.00">src/expconfig/setups</text>
<text text-anchor="middle" x="1573" y="-225" font-family="Helvetica,sans-Serif" font-size="10.00">/Setup_2015_01_Pion.cc</text>
</a>
</g>
<!-- Node56&#45;&gt;Node88 -->
<g id="edge74" class="edge"><title>Node56&#45;&gt;Node88</title>
<path fill="none" stroke="midnightblue" d="M1255.69,-295.712C1319.92,-285.847 1417.76,-269.848 1502,-252 1504.74,-251.42 1507.53,-250.807 1510.34,-250.171"/>
<polygon fill="midnightblue" stroke="midnightblue" points="1255.03,-292.272 1245.67,-297.242 1256.09,-299.192 1255.03,-292.272"/>
</g>
<!-- Node89 -->
<g id="node72" class="node"><title>Node89</title>
<a xlink:href="_setup__2017__03_8h.html" target="_top" xlink:title="src/expconfig/setups\l/Setup_2017_03.h">
<polygon fill="white" stroke="black" points="1652.5,-217 1652.5,-251 1759.5,-251 1759.5,-217 1652.5,-217"/>
<text text-anchor="start" x="1660.5" y="-238" font-family="Helvetica,sans-Serif" font-size="10.00">src/expconfig/setups</text>
<text text-anchor="middle" x="1706" y="-225" font-family="Helvetica,sans-Serif" font-size="10.00">/Setup_2017_03.h</text>
</a>
</g>
<!-- Node56&#45;&gt;Node89 -->
<g id="edge76" class="edge"><title>Node56&#45;&gt;Node89</title>
<path fill="none" stroke="midnightblue" d="M1255.9,-301.366C1346.22,-294.556 1508,-279.563 1644,-252 1646.75,-251.443 1649.55,-250.824 1652.37,-250.159"/>
<polygon fill="midnightblue" stroke="midnightblue" points="1255.5,-297.886 1245.78,-302.117 1256.02,-304.867 1255.5,-297.886"/>
</g>
<!-- Node91 -->
<g id="node76" class="node"><title>Node91</title>
<a xlink:href="_setup___c_b_source_calib_8cc.html" target="_top" xlink:title="src/expconfig/setups\l/Setup_CBSourceCalib.cc">
<polygon fill="white" stroke="black" points="1776.5,-217 1776.5,-251 1907.5,-251 1907.5,-217 1776.5,-217"/>
<text text-anchor="start" x="1784.5" y="-238" font-family="Helvetica,sans-Serif" font-size="10.00">src/expconfig/setups</text>
<text text-anchor="middle" x="1842" y="-225" font-family="Helvetica,sans-Serif" font-size="10.00">/Setup_CBSourceCalib.cc</text>
</a>
</g>
<!-- Node56&#45;&gt;Node91 -->
<g id="edge80" class="edge"><title>Node56&#45;&gt;Node91</title>
<path fill="none" stroke="midnightblue" d="M1256.14,-302.806C1365.91,-297.063 1584.75,-282.621 1768,-252 1770.74,-251.542 1773.53,-251.039 1776.34,-250.5"/>
<polygon fill="midnightblue" stroke="midnightblue" points="1255.66,-299.326 1245.86,-303.335 1256.02,-306.316 1255.66,-299.326"/>
</g>
<!-- Node92 -->
<g id="node78" class="node"><title>Node92</title>
<a xlink:href="_test_trigger_patterns_8cc.html" target="_top" xlink:title="test/expconfig/TestTrigger\lPatterns.cc">
<polygon fill="white" stroke="black" points="1924.5,-217 1924.5,-251 2055.5,-251 2055.5,-217 1924.5,-217"/>
<text text-anchor="start" x="1932.5" y="-238" font-family="Helvetica,sans-Serif" font-size="10.00">test/expconfig/TestTrigger</text>
<text text-anchor="middle" x="1990" y="-225" font-family="Helvetica,sans-Serif" font-size="10.00">Patterns.cc</text>
</a>
</g>
<!-- Node56&#45;&gt;Node92 -->
<g id="edge82" class="edge"><title>Node56&#45;&gt;Node92</title>
<path fill="none" stroke="midnightblue" d="M1255.76,-304.658C1386.18,-301.305 1675.52,-289.877 1916,-252 1918.74,-251.568 1921.53,-251.086 1924.35,-250.564"/>
<polygon fill="midnightblue" stroke="midnightblue" points="1255.43,-301.165 1245.52,-304.913 1255.6,-308.163 1255.43,-301.165"/>
</g>
<!-- Node93 -->
<g id="node80" class="node"><title>Node93</title>
<a xlink:href="expconfig__helpers_8cc.html" target="_top" xlink:title="test/expconfig_helpers.cc">
<polygon fill="white" stroke="black" points="2073,-223.5 2073,-244.5 2201,-244.5 2201,-223.5 2073,-223.5"/>
<text text-anchor="middle" x="2137" y="-231.5" font-family="Helvetica,sans-Serif" font-size="10.00">test/expconfig_helpers.cc</text>
</a>
</g>
<!-- Node56&#45;&gt;Node93 -->
<g id="edge84" class="edge"><title>Node56&#45;&gt;Node93</title>
<path fill="none" stroke="midnightblue" d="M1255.6,-303.343C1434.73,-296.245 1908.5,-275.754 2064,-252 2075.74,-250.206 2088.36,-247.413 2099.75,-244.558"/>
<polygon fill="midnightblue" stroke="midnightblue" points="1255.36,-299.85 1245.5,-303.742 1255.63,-306.845 1255.36,-299.85"/>
</g>
<!-- Node60 -->
<g id="node9" class="node"><title>Node60</title>
<a xlink:href="_beampolmon_8cc.html" target="_top" xlink:title="src/analysis/slowcontrol\l/processors/Beampolmon.cc">
<polygon fill="white" stroke="black" points="368.5,-145 368.5,-179 509.5,-179 509.5,-145 368.5,-145"/>
<text text-anchor="start" x="376.5" y="-166" font-family="Helvetica,sans-Serif" font-size="10.00">src/analysis/slowcontrol</text>
<text text-anchor="middle" x="439" y="-153" font-family="Helvetica,sans-Serif" font-size="10.00">/processors/Beampolmon.cc</text>
</a>
</g>
<!-- Node59&#45;&gt;Node60 -->
<g id="edge8" class="edge"><title>Node59&#45;&gt;Node60</title>
<path fill="none" stroke="midnightblue" d="M439,-206.719C439,-197.572 439,-187.625 439,-179.441"/>
<polygon fill="midnightblue" stroke="midnightblue" points="435.5,-206.937 439,-216.937 442.5,-206.937 435.5,-206.937"/>
</g>
<!-- Node61 -->
<g id="node11" class="node"><title>Node61</title>
<a xlink:href="_slow_control_processors_8h.html" target="_top" xlink:title="src/analysis/slowcontrol\l/SlowControlProcessors.h">
<polygon fill="white" stroke="black" points="573.5,-145 573.5,-179 704.5,-179 704.5,-145 573.5,-145"/>
<text text-anchor="start" x="581.5" y="-166" font-family="Helvetica,sans-Serif" font-size="10.00">src/analysis/slowcontrol</text>
<text text-anchor="middle" x="639" y="-153" font-family="Helvetica,sans-Serif" font-size="10.00">/SlowControlProcessors.h</text>
</a>
</g>
<!-- Node59&#45;&gt;Node61 -->
<g id="edge10" class="edge"><title>Node59&#45;&gt;Node61</title>
<path fill="none" stroke="midnightblue" d="M495.968,-213.491C526.207,-202.606 562.932,-189.385 591.597,-179.065"/>
<polygon fill="midnightblue" stroke="midnightblue" points="494.621,-210.257 486.397,-216.937 496.992,-216.843 494.621,-210.257"/>
</g>
<!-- Node62 -->
<g id="node13" class="node"><title>Node62</title>
<a xlink:href="_slow_control_manager_8h.html" target="_top" xlink:title="src/analysis/slowcontrol\l/SlowControlManager.h">
<polygon fill="white" stroke="black" points="148,-73 148,-107 270,-107 270,-73 148,-73"/>
<text text-anchor="start" x="156" y="-94" font-family="Helvetica,sans-Serif" font-size="10.00">src/analysis/slowcontrol</text>
<text text-anchor="middle" x="209" y="-81" font-family="Helvetica,sans-Serif" font-size="10.00">/SlowControlManager.h</text>
</a>
</g>
<!-- Node61&#45;&gt;Node62 -->
<g id="edge12" class="edge"><title>Node61&#45;&gt;Node62</title>
<path fill="none" stroke="midnightblue" d="M563.259,-149.698C496.962,-138.881 398.061,-122.625 312,-108 298.488,-105.704 283.987,-103.196 270.256,-100.802"/>
<polygon fill="midnightblue" stroke="midnightblue" points="562.772,-153.165 573.205,-151.32 563.899,-146.256 562.772,-153.165"/>
</g>
<!-- Node65 -->
<g id="node19" class="node"><title>Node65</title>
<a xlink:href="_test_slow_control_manager_8cc.html" target="_top" xlink:title="test/analysis/TestSlowControl\lManager.cc">
<polygon fill="white" stroke="black" points="266,-1 266,-35 414,-35 414,-1 266,-1"/>
<text text-anchor="start" x="274" y="-22" font-family="Helvetica,sans-Serif" font-size="10.00">test/analysis/TestSlowControl</text>
<text text-anchor="middle" x="340" y="-9" font-family="Helvetica,sans-Serif" font-size="10.00">Manager.cc</text>
</a>
</g>
<!-- Node61&#45;&gt;Node65 -->
<g id="edge32" class="edge"><title>Node61&#45;&gt;Node65</title>
<path fill="none" stroke="midnightblue" d="M563.273,-150.465C478.598,-137.214 352.264,-116.243 345,-108 327.515,-88.1576 330.937,-55.2908 335.282,-35.2433"/>
<polygon fill="midnightblue" stroke="midnightblue" points="562.962,-153.958 573.382,-152.041 564.041,-147.042 562.962,-153.958"/>
</g>
<!-- Node66 -->
<g id="node21" class="node"><title>Node66</title>
<a xlink:href="_slow_control_processors_8cc.html" target="_top" xlink:title="src/analysis/slowcontrol\l/SlowControlProcessors.cc">
<polygon fill="white" stroke="black" points="354,-73 354,-107 490,-107 490,-73 354,-73"/>
<text text-anchor="start" x="362" y="-94" font-family="Helvetica,sans-Serif" font-size="10.00">src/analysis/slowcontrol</text>
<text text-anchor="middle" x="422" y="-81" font-family="Helvetica,sans-Serif" font-size="10.00">/SlowControlProcessors.cc</text>
</a>
</g>
<!-- Node61&#45;&gt;Node66 -->
<g id="edge20" class="edge"><title>Node61&#45;&gt;Node66</title>
<path fill="none" stroke="midnightblue" d="M578.04,-141.774C545.071,-130.835 504.803,-117.474 473.432,-107.065"/>
<polygon fill="midnightblue" stroke="midnightblue" points="576.981,-145.11 587.574,-144.937 579.185,-138.466 576.981,-145.11"/>
</g>
<!-- Node67 -->
<g id="node23" class="node"><title>Node67</title>
<a xlink:href="_beam_8cc.html" target="_top" xlink:title="src/analysis/slowcontrol\l/variables/Beam.cc">
<polygon fill="white" stroke="black" points="508,-73 508,-107 630,-107 630,-73 508,-73"/>
<text text-anchor="start" x="516" y="-94" font-family="Helvetica,sans-Serif" font-size="10.00">src/analysis/slowcontrol</text>
<text text-anchor="middle" x="569" y="-81" font-family="Helvetica,sans-Serif" font-size="10.00">/variables/Beam.cc</text>
</a>
</g>
<!-- Node61&#45;&gt;Node67 -->
<g id="edge22" class="edge"><title>Node61&#45;&gt;Node67</title>
<path fill="none" stroke="midnightblue" d="M615.346,-137.671C605.706,-127.755 594.779,-116.515 585.956,-107.441"/>
<polygon fill="midnightblue" stroke="midnightblue" points="612.931,-140.207 622.411,-144.937 617.95,-135.327 612.931,-140.207"/>
</g>
<!-- Node68 -->
<g id="node25" class="node"><title>Node68</title>
<a xlink:href="_clocks_8cc.html" target="_top" xlink:title="src/analysis/slowcontrol\l/variables/Clocks.cc">
<polygon fill="white" stroke="black" points="648,-73 648,-107 770,-107 770,-73 648,-73"/>
<text text-anchor="start" x="656" y="-94" font-family="Helvetica,sans-Serif" font-size="10.00">src/analysis/slowcontrol</text>
<text text-anchor="middle" x="709" y="-81" font-family="Helvetica,sans-Serif" font-size="10.00">/variables/Clocks.cc</text>
</a>
</g>
<!-- Node61&#45;&gt;Node68 -->
<g id="edge24" class="edge"><title>Node61&#45;&gt;Node68</title>
<path fill="none" stroke="midnightblue" d="M662.654,-137.671C672.294,-127.755 683.221,-116.515 692.044,-107.441"/>
<polygon fill="midnightblue" stroke="midnightblue" points="660.05,-135.327 655.589,-144.937 665.069,-140.207 660.05,-135.327"/>
</g>
<!-- Node69 -->
<g id="node27" class="node"><title>Node69</title>
<a xlink:href="variables_2_pair_spec_8cc.html" target="_top" xlink:title="src/analysis/slowcontrol\l/variables/Pairspec.cc">
<polygon fill="white" stroke="black" points="788,-73 788,-107 910,-107 910,-73 788,-73"/>
<text text-anchor="start" x="796" y="-94" font-family="Helvetica,sans-Serif" font-size="10.00">src/analysis/slowcontrol</text>
<text text-anchor="middle" x="849" y="-81" font-family="Helvetica,sans-Serif" font-size="10.00">/variables/Pairspec.cc</text>
</a>
</g>
<!-- Node61&#45;&gt;Node69 -->
<g id="edge26" class="edge"><title>Node61&#45;&gt;Node69</title>
<path fill="none" stroke="midnightblue" d="M698.405,-141.633C730.233,-130.72 768.998,-117.429 799.227,-107.065"/>
<polygon fill="midnightblue" stroke="midnightblue" points="697.091,-138.383 688.767,-144.937 699.362,-145.005 697.091,-138.383"/>
</g>
<!-- Node70 -->
<g id="node29" class="node"><title>Node70</title>
<a xlink:href="_tagger_scalers_8cc.html" target="_top" xlink:title="src/analysis/slowcontrol\l/variables/TaggerScalers.cc">
<polygon fill="white" stroke="black" points="928,-73 928,-107 1066,-107 1066,-73 928,-73"/>
<text text-anchor="start" x="936" y="-94" font-family="Helvetica,sans-Serif" font-size="10.00">src/analysis/slowcontrol</text>
<text text-anchor="middle" x="997" y="-81" font-family="Helvetica,sans-Serif" font-size="10.00">/variables/TaggerScalers.cc</text>
</a>
</g>
<!-- Node61&#45;&gt;Node70 -->
<g id="edge28" class="edge"><title>Node61&#45;&gt;Node70</title>
<path fill="none" stroke="midnightblue" d="M714.637,-143.724C805.696,-125.082 831.021,-125.825 919,-108 921.86,-107.42 924.776,-106.815 927.72,-106.191"/>
<polygon fill="midnightblue" stroke="midnightblue" points="713.8,-140.323 704.717,-145.778 715.219,-147.178 713.8,-140.323"/>
</g>
<!-- Node71 -->
<g id="node31" class="node"><title>Node71</title>
<a xlink:href="analysis_2slowcontrol_2variables_2_trigger_8cc.html" target="_top" xlink:title="src/analysis/slowcontrol\l/variables/Trigger.cc">
<polygon fill="white" stroke="black" points="1084,-73 1084,-107 1206,-107 1206,-73 1084,-73"/>
<text text-anchor="start" x="1092" y="-94" font-family="Helvetica,sans-Serif" font-size="10.00">src/analysis/slowcontrol</text>
<text text-anchor="middle" x="1145" y="-81" font-family="Helvetica,sans-Serif" font-size="10.00">/variables/Trigger.cc</text>
</a>
</g>
<!-- Node61&#45;&gt;Node71 -->
<g id="edge30" class="edge"><title>Node61&#45;&gt;Node71</title>
<path fill="none" stroke="midnightblue" d="M714.832,-143.818C874.212,-117.602 919.063,-135.636 1075,-108 1077.84,-107.496 1080.74,-106.938 1083.66,-106.339"/>
<polygon fill="midnightblue" stroke="midnightblue" points="713.951,-140.416 704.668,-145.523 715.11,-147.32 713.951,-140.416"/>
</g>
<!-- Node63 -->
<g id="node15" class="node"><title>Node63</title>
<a xlink:href="_physics_manager_8cc.html" target="_top" xlink:title="src/analysis/physics\l/PhysicsManager.cc">
<polygon fill="white" stroke="black" points="142,-1 142,-35 248,-35 248,-1 142,-1"/>
<text text-anchor="start" x="150" y="-22" font-family="Helvetica,sans-Serif" font-size="10.00">src/analysis/physics</text>
<text text-anchor="middle" x="195" y="-9" font-family="Helvetica,sans-Serif" font-size="10.00">/PhysicsManager.cc</text>
</a>
</g>
<!-- Node62&#45;&gt;Node63 -->
<g id="edge14" class="edge"><title>Node62&#45;&gt;Node63</title>
<path fill="none" stroke="midnightblue" d="M203.753,-63.0173C201.959,-53.7884 200,-43.7144 198.391,-35.4407"/>
<polygon fill="midnightblue" stroke="midnightblue" points="200.338,-63.7889 205.682,-72.937 207.209,-62.4528 200.338,-63.7889"/>
</g>
<!-- Node64 -->
<g id="node17" class="node"><title>Node64</title>
<a xlink:href="_slow_control_manager_8cc.html" target="_top" xlink:title="src/analysis/slowcontrol\l/SlowControlManager.cc">
<polygon fill="white" stroke="black" points="0,-1 0,-35 124,-35 124,-1 0,-1"/>
<text text-anchor="start" x="8" y="-22" font-family="Helvetica,sans-Serif" font-size="10.00">src/analysis/slowcontrol</text>
<text text-anchor="middle" x="62" y="-9" font-family="Helvetica,sans-Serif" font-size="10.00">/SlowControlManager.cc</text>
</a>
</g>
<!-- Node62&#45;&gt;Node64 -->
<g id="edge16" class="edge"><title>Node62&#45;&gt;Node64</title>
<path fill="none" stroke="midnightblue" d="M165.095,-68.4954C143.272,-57.8069 117.272,-45.0718 96.8413,-35.0651"/>
<polygon fill="midnightblue" stroke="midnightblue" points="163.643,-71.6815 174.163,-72.937 166.722,-65.3951 163.643,-71.6815"/>
</g>
<!-- Node62&#45;&gt;Node65 -->
<g id="edge18" class="edge"><title>Node62&#45;&gt;Node65</title>
<path fill="none" stroke="midnightblue" d="M248.876,-68.0832C268.086,-57.5254 290.786,-45.049 308.724,-35.19"/>
<polygon fill="midnightblue" stroke="midnightblue" points="247.123,-65.0531 240.045,-72.937 250.495,-71.1876 247.123,-65.0531"/>
</g>
<!-- Node72&#45;&gt;Node61 -->
<g id="edge36" class="edge"><title>Node72&#45;&gt;Node61</title>
<path fill="none" stroke="midnightblue" d="M720.374,-211.652C703.223,-201.187 683.111,-188.915 667.173,-179.19"/>
<polygon fill="midnightblue" stroke="midnightblue" points="718.676,-214.716 729.036,-216.937 722.322,-208.741 718.676,-214.716"/>
</g>
<!-- Node73&#45;&gt;Node61 -->
<g id="edge42" class="edge"><title>Node73&#45;&gt;Node61</title>
<path fill="none" stroke="midnightblue" d="M832.816,-214.265C791.92,-203.237 741.462,-189.63 702.283,-179.065"/>
<polygon fill="midnightblue" stroke="midnightblue" points="832.158,-217.713 842.725,-216.937 833.981,-210.954 832.158,-217.713"/>
</g>
<!-- Node74 -->
<g id="node39" class="node"><title>Node74</title>
<a xlink:href="_exp_trigger_8cc.html" target="_top" xlink:title="src/analysis/slowcontrol\l/processors/ExpTrigger.cc">
<polygon fill="white" stroke="black" points="721.5,-145 721.5,-179 852.5,-179 852.5,-145 721.5,-145"/>
<text text-anchor="start" x="729.5" y="-166" font-family="Helvetica,sans-Serif" font-size="10.00">src/analysis/slowcontrol</text>
<text text-anchor="middle" x="787" y="-153" font-family="Helvetica,sans-Serif" font-size="10.00">/processors/ExpTrigger.cc</text>
</a>
</g>
<!-- Node73&#45;&gt;Node74 -->
<g id="edge40" class="edge"><title>Node73&#45;&gt;Node74</title>
<path fill="none" stroke="midnightblue" d="M869.064,-211.652C851.768,-201.187 831.485,-188.915 815.411,-179.19"/>
<polygon fill="midnightblue" stroke="midnightblue" points="867.431,-214.755 877.799,-216.937 871.055,-208.766 867.431,-214.755"/>
</g>
<!-- Node75&#45;&gt;Node61 -->
<g id="edge48" class="edge"><title>Node75&#45;&gt;Node61</title>
<path fill="none" stroke="midnightblue" d="M976.562,-215.842C859.565,-193.625 826.598,-201.472 713,-180 710.272,-179.484 707.493,-178.932 704.691,-178.353"/>
<polygon fill="midnightblue" stroke="midnightblue" points="976.15,-219.327 986.632,-217.788 977.478,-212.454 976.15,-219.327"/>
</g>
<!-- Node76 -->
<g id="node44" class="node"><title>Node76</title>
<a xlink:href="processors_2_pair_spec_8cc.html" target="_top" xlink:title="src/analysis/slowcontrol\l/processors/PairSpec.cc">
<polygon fill="white" stroke="black" points="870,-145 870,-179 994,-179 994,-145 870,-145"/>
<text text-anchor="start" x="878" y="-166" font-family="Helvetica,sans-Serif" font-size="10.00">src/analysis/slowcontrol</text>
<text text-anchor="middle" x="932" y="-153" font-family="Helvetica,sans-Serif" font-size="10.00">/processors/PairSpec.cc</text>
</a>
</g>
<!-- Node75&#45;&gt;Node76 -->
<g id="edge46" class="edge"><title>Node75&#45;&gt;Node76</title>
<path fill="none" stroke="midnightblue" d="M1012,-211.652C995.135,-201.187 975.363,-188.915 959.695,-179.19"/>
<polygon fill="midnightblue" stroke="midnightblue" points="1010.17,-214.637 1020.51,-216.937 1013.86,-208.69 1010.17,-214.637"/>
</g>
<!-- Node77&#45;&gt;Node61 -->
<g id="edge52" class="edge"><title>Node77&#45;&gt;Node61</title>
<path fill="none" stroke="midnightblue" d="M612.69,-208.203C618.125,-198.658 624.154,-188.07 629.069,-179.441"/>
<polygon fill="midnightblue" stroke="midnightblue" points="609.623,-206.515 607.716,-216.937 615.706,-209.979 609.623,-206.515"/>
</g>
<!-- Node80 -->
<g id="node54" class="node"><title>Node80</title>
<a xlink:href="_setup__2007__06_8cc.html" target="_top" xlink:title="src/expconfig/setups\l/Setup_2007_06.cc">
<polygon fill="white" stroke="black" points="1011.5,-145 1011.5,-179 1118.5,-179 1118.5,-145 1011.5,-145"/>
<text text-anchor="start" x="1019.5" y="-166" font-family="Helvetica,sans-Serif" font-size="10.00">src/expconfig/setups</text>
<text text-anchor="middle" x="1065" y="-153" font-family="Helvetica,sans-Serif" font-size="10.00">/Setup_2007_06.cc</text>
</a>
</g>
<!-- Node79&#45;&gt;Node80 -->
<g id="edge58" class="edge"><title>Node79&#45;&gt;Node80</title>
<path fill="none" stroke="midnightblue" d="M1252.42,-215.555C1195.99,-199.402 1180.42,-195.326 1127,-180 1124.31,-179.227 1121.55,-178.434 1118.76,-177.631"/>
<polygon fill="midnightblue" stroke="midnightblue" points="1251.66,-218.978 1262.24,-218.369 1253.59,-212.249 1251.66,-218.978"/>
</g>
<!-- Node81 -->
<g id="node56" class="node"><title>Node81</title>
<a xlink:href="_setup__2007__07_8cc.html" target="_top" xlink:title="src/expconfig/setups\l/Setup_2007_07.cc">
<polygon fill="white" stroke="black" points="1135.5,-145 1135.5,-179 1242.5,-179 1242.5,-145 1135.5,-145"/>
<text text-anchor="start" x="1143.5" y="-166" font-family="Helvetica,sans-Serif" font-size="10.00">src/expconfig/setups</text>
<text text-anchor="middle" x="1189" y="-153" font-family="Helvetica,sans-Serif" font-size="10.00">/Setup_2007_07.cc</text>
</a>
</g>
<!-- Node79&#45;&gt;Node81 -->
<g id="edge60" class="edge"><title>Node79&#45;&gt;Node81</title>
<path fill="none" stroke="midnightblue" d="M1277.09,-211.94C1258.52,-201.413 1236.63,-189.004 1219.32,-179.19"/>
<polygon fill="midnightblue" stroke="midnightblue" points="1275.48,-215.05 1285.9,-216.937 1278.93,-208.96 1275.48,-215.05"/>
</g>
<!-- Node82 -->
<g id="node58" class="node"><title>Node82</title>
<a xlink:href="_setup__2007___base_8cc.html" target="_top" xlink:title="src/expconfig/setups\l/Setup_2007_Base.cc">
<polygon fill="white" stroke="black" points="1259.5,-145 1259.5,-179 1372.5,-179 1372.5,-145 1259.5,-145"/>
<text text-anchor="start" x="1267.5" y="-166" font-family="Helvetica,sans-Serif" font-size="10.00">src/expconfig/setups</text>
<text text-anchor="middle" x="1316" y="-153" font-family="Helvetica,sans-Serif" font-size="10.00">/Setup_2007_Base.cc</text>
</a>
</g>
<!-- Node79&#45;&gt;Node82 -->
<g id="edge62" class="edge"><title>Node79&#45;&gt;Node82</title>
<path fill="none" stroke="midnightblue" d="M1316,-206.719C1316,-197.572 1316,-187.625 1316,-179.441"/>
<polygon fill="midnightblue" stroke="midnightblue" points="1312.5,-206.937 1316,-216.937 1319.5,-206.937 1312.5,-206.937"/>
</g>
<!-- Node84 -->
<g id="node62" class="node"><title>Node84</title>
<a xlink:href="_setup__2014__07___e_p_t___prod_8cc.html" target="_top" xlink:title="src/expconfig/setups\l/Setup_2014_07_EPT_Prod.cc">
<polygon fill="white" stroke="black" points="1389.5,-145 1389.5,-179 1540.5,-179 1540.5,-145 1389.5,-145"/>
<text text-anchor="start" x="1397.5" y="-166" font-family="Helvetica,sans-Serif" font-size="10.00">src/expconfig/setups</text>
<text text-anchor="middle" x="1465" y="-153" font-family="Helvetica,sans-Serif" font-size="10.00">/Setup_2014_07_EPT_Prod.cc</text>
</a>
</g>
<!-- Node83&#45;&gt;Node84 -->
<g id="edge66" class="edge"><title>Node83&#45;&gt;Node84</title>
<path fill="none" stroke="midnightblue" d="M1449.27,-207.315C1452.5,-198.005 1456.04,-187.803 1458.94,-179.441"/>
<polygon fill="midnightblue" stroke="midnightblue" points="1445.9,-206.342 1445.92,-216.937 1452.51,-208.638 1445.9,-206.342"/>
</g>
<!-- Node85 -->
<g id="node64" class="node"><title>Node85</title>
<a xlink:href="_setup__2014__10___e_p_t___prod_8cc.html" target="_top" xlink:title="src/expconfig/setups\l/Setup_2014_10_EPT_Prod.cc">
<polygon fill="white" stroke="black" points="1557.5,-145 1557.5,-179 1708.5,-179 1708.5,-145 1557.5,-145"/>
<text text-anchor="start" x="1565.5" y="-166" font-family="Helvetica,sans-Serif" font-size="10.00">src/expconfig/setups</text>
<text text-anchor="middle" x="1633" y="-153" font-family="Helvetica,sans-Serif" font-size="10.00">/Setup_2014_10_EPT_Prod.cc</text>
</a>
</g>
<!-- Node83&#45;&gt;Node85 -->
<g id="edge68" class="edge"><title>Node83&#45;&gt;Node85</title>
<path fill="none" stroke="midnightblue" d="M1495.35,-213.35C1524.46,-202.491 1559.71,-189.34 1587.26,-179.065"/>
<polygon fill="midnightblue" stroke="midnightblue" points="1493.88,-210.162 1485.74,-216.937 1496.33,-216.721 1493.88,-210.162"/>
</g>
<!-- Node86 -->
<g id="node66" class="node"><title>Node86</title>
<a xlink:href="_setup__2014__12___e_p_t___prod_8cc.html" target="_top" xlink:title="src/expconfig/setups\l/Setup_2014_12_EPT_Prod.cc">
<polygon fill="white" stroke="black" points="1725.5,-145 1725.5,-179 1876.5,-179 1876.5,-145 1725.5,-145"/>
<text text-anchor="start" x="1733.5" y="-166" font-family="Helvetica,sans-Serif" font-size="10.00">src/expconfig/setups</text>
<text text-anchor="middle" x="1801" y="-153" font-family="Helvetica,sans-Serif" font-size="10.00">/Setup_2014_12_EPT_Prod.cc</text>
</a>
</g>
<!-- Node83&#45;&gt;Node86 -->
<g id="edge70" class="edge"><title>Node83&#45;&gt;Node86</title>
<path fill="none" stroke="midnightblue" d="M1503.66,-215.746C1598.22,-194.678 1624.99,-197.552 1717,-180 1719.78,-179.469 1722.62,-178.918 1725.48,-178.352"/>
<polygon fill="midnightblue" stroke="midnightblue" points="1502.65,-212.385 1493.67,-218.003 1504.19,-219.213 1502.65,-212.385"/>
</g>
<!-- Node87 -->
<g id="node68" class="node"><title>Node87</title>
<a xlink:href="_setup__2014___e_p_t_8cc.html" target="_top" xlink:title="src/expconfig/setups\l/Setup_2014_EPT.cc">
<polygon fill="white" stroke="black" points="1894,-145 1894,-179 2004,-179 2004,-145 1894,-145"/>
<text text-anchor="start" x="1902" y="-166" font-family="Helvetica,sans-Serif" font-size="10.00">src/expconfig/setups</text>
<text text-anchor="middle" x="1949" y="-153" font-family="Helvetica,sans-Serif" font-size="10.00">/Setup_2014_EPT.cc</text>
</a>
</g>
<!-- Node83&#45;&gt;Node87 -->
<g id="edge72" class="edge"><title>Node83&#45;&gt;Node87</title>
<path fill="none" stroke="midnightblue" d="M1503.55,-215.9C1671.79,-185.04 1720.11,-210.677 1885,-180 1887.95,-179.451 1890.96,-178.828 1893.99,-178.152"/>
<polygon fill="midnightblue" stroke="midnightblue" points="1502.8,-212.479 1493.62,-217.762 1504.09,-219.36 1502.8,-212.479"/>
</g>
<!-- Node90 -->
<g id="node74" class="node"><title>Node90</title>
<a xlink:href="_setup__2017__03_8cc.html" target="_top" xlink:title="src/expconfig/setups\l/Setup_2017_03.cc">
<polygon fill="white" stroke="black" points="2021.5,-145 2021.5,-179 2128.5,-179 2128.5,-145 2021.5,-145"/>
<text text-anchor="start" x="2029.5" y="-166" font-family="Helvetica,sans-Serif" font-size="10.00">src/expconfig/setups</text>
<text text-anchor="middle" x="2075" y="-153" font-family="Helvetica,sans-Serif" font-size="10.00">/Setup_2017_03.cc</text>
</a>
</g>
<!-- Node89&#45;&gt;Node90 -->
<g id="edge78" class="edge"><title>Node89&#45;&gt;Node90</title>
<path fill="none" stroke="midnightblue" d="M1769.62,-215.801C1877.36,-193.206 1908.61,-202.712 2013,-180 2015.74,-179.404 2018.53,-178.753 2021.35,-178.063"/>
<polygon fill="midnightblue" stroke="midnightblue" points="1768.7,-212.419 1759.65,-217.937 1770.16,-219.264 1768.7,-212.419"/>
</g>
</g>
</svg>
