<?xml version="1.0" encoding="UTF-8" standalone="no"?>
<!DOCTYPE svg PUBLIC "-//W3C//DTD SVG 1.1//EN"
 "http://www.w3.org/Graphics/SVG/1.1/DTD/svg11.dtd">
<!-- Generated by graphviz version 2.26.3 (20100126.1600)
 -->
<!-- Title: src/mc/database/detail/gp_pg.h Pages: 1 -->
<svg width="146pt" height="116pt"
 viewBox="0.00 0.00 146.00 116.00" xmlns="http://www.w3.org/2000/svg" xmlns:xlink="http://www.w3.org/1999/xlink">
<g id="graph1" class="graph" transform="scale(1 1) rotate(0) translate(4 112)">
<title>src/mc/database/detail/gp_pg.h</title>
<polygon fill="white" stroke="white" points="-4,5 -4,-112 143,-112 143,5 -4,5"/>
<!-- Node28 -->
<g id="node1" class="node"><title>Node28</title>
<polygon fill="#bfbfbf" stroke="black" points="11,-73 11,-107 127,-107 127,-73 11,-73"/>
<text text-anchor="start" x="19" y="-94" font-family="Helvetica,sans-Serif" font-size="10.00">src/mc/database/detail</text>
<text text-anchor="middle" x="69" y="-81" font-family="Helvetica,sans-Serif" font-size="10.00">/gp_pg.h</text>
</g>
<!-- Node29 -->
<g id="node3" class="node"><title>Node29</title>
<a xlink:href="_production_data_base_8cc.html" target="_top" xlink:title="src/mc/database/Production\lDataBase.cc">
<polygon fill="white" stroke="black" points="-0.5,-1 -0.5,-35 138.5,-35 138.5,-1 -0.5,-1"/>
<text text-anchor="start" x="7.5" y="-22" font-family="Helvetica,sans-Serif" font-size="10.00">src/mc/database/Production</text>
<text text-anchor="middle" x="69" y="-9" font-family="Helvetica,sans-Serif" font-size="10.00">DataBase.cc</text>
</a>
</g>
<!-- Node28&#45;&gt;Node29 -->
<g id="edge2" class="edge"><title>Node28&#45;&gt;Node29</title>
<path fill="none" stroke="midnightblue" d="M69,-62.7193C69,-53.572 69,-43.6255 69,-35.4407"/>
<polygon fill="midnightblue" stroke="midnightblue" points="65.5001,-62.937 69,-72.937 72.5001,-62.937 65.5001,-62.937"/>
</g>
</g>
</svg>
