<?xml version="1.0" encoding="UTF-8" standalone="no"?>
<!DOCTYPE svg PUBLIC "-//W3C//DTD SVG 1.1//EN"
 "http://www.w3.org/Graphics/SVG/1.1/DTD/svg11.dtd">
<!-- Generated by graphviz version 2.26.3 (20100126.1600)
 -->
<!-- Title: src/root&#45;addons/analysis_codes/hadd.h Pages: 1 -->
<svg width="210pt" height="102pt"
 viewBox="0.00 0.00 210.00 102.00" xmlns="http://www.w3.org/2000/svg" xmlns:xlink="http://www.w3.org/1999/xlink">
<g id="graph1" class="graph" transform="scale(1 1) rotate(0) translate(4 98)">
<title>src/root&#45;addons/analysis_codes/hadd.h</title>
<polygon fill="white" stroke="white" points="-4,5 -4,-98 207,-98 207,5 -4,5"/>
<!-- Node0 -->
<g id="node1" class="node"><title>Node0</title>
<polygon fill="#bfbfbf" stroke="black" points="52.5,-59 52.5,-93 175.5,-93 175.5,-59 52.5,-59"/>
<text text-anchor="start" x="60.5" y="-80" font-family="Helvetica,sans-Serif" font-size="10.00">src/root&#45;addons/analysis</text>
<text text-anchor="middle" x="114" y="-67" font-family="Helvetica,sans-Serif" font-size="10.00">_codes/hadd.h</text>
</g>
<!-- Node1 -->
<g id="node3" class="node"><title>Node1</title>
<polygon fill="white" stroke="#bfbfbf" points="-0.5,-0.5 -0.5,-21.5 70.5,-21.5 70.5,-0.5 -0.5,-0.5"/>
<text text-anchor="middle" x="35" y="-8.5" font-family="Helvetica,sans-Serif" font-size="10.00">TDirectory.h</text>
</g>
<!-- Node0&#45;&gt;Node1 -->
<g id="edge2" class="edge"><title>Node0&#45;&gt;Node1</title>
<path fill="none" stroke="midnightblue" d="M93.2437,-58.922C81.7662,-49.4785 67.5402,-37.7736 56.0209,-28.2957"/>
<polygon fill="midnightblue" stroke="midnightblue" points="58.1354,-25.503 48.1895,-21.8521 53.6878,-30.9085 58.1354,-25.503"/>
</g>
<!-- Node2 -->
<g id="node5" class="node"><title>Node2</title>
<polygon fill="white" stroke="#bfbfbf" points="88,-0.5 88,-21.5 140,-21.5 140,-0.5 88,-0.5"/>
<text text-anchor="middle" x="114" y="-8.5" font-family="Helvetica,sans-Serif" font-size="10.00">memory</text>
</g>
<!-- Node0&#45;&gt;Node2 -->
<g id="edge4" class="edge"><title>Node0&#45;&gt;Node2</title>
<path fill="none" stroke="midnightblue" d="M114,-58.922C114,-50.6704 114,-40.6922 114,-31.9818"/>
<polygon fill="midnightblue" stroke="midnightblue" points="117.5,-31.8521 114,-21.8521 110.5,-31.8521 117.5,-31.8521"/>
</g>
<!-- Node3 -->
<g id="node7" class="node"><title>Node3</title>
<polygon fill="white" stroke="#bfbfbf" points="158,-0.5 158,-21.5 202,-21.5 202,-0.5 158,-0.5"/>
<text text-anchor="middle" x="180" y="-8.5" font-family="Helvetica,sans-Serif" font-size="10.00">vector</text>
</g>
<!-- Node0&#45;&gt;Node3 -->
<g id="edge6" class="edge"><title>Node0&#45;&gt;Node3</title>
<path fill="none" stroke="midnightblue" d="M131.341,-58.922C140.65,-49.7536 152.124,-38.4535 161.592,-29.1294"/>
<polygon fill="midnightblue" stroke="midnightblue" points="164.312,-31.3627 168.981,-21.8521 159.4,-26.3753 164.312,-31.3627"/>
</g>
</g>
</svg>
