<?xml version="1.0" encoding="UTF-8" standalone="no"?>
<!DOCTYPE svg PUBLIC "-//W3C//DTD SVG 1.1//EN"
 "http://www.w3.org/Graphics/SVG/1.1/DTD/svg11.dtd">
<!-- Generated by graphviz version 2.26.3 (20100126.1600)
 -->
<!-- Title: src/root&#45;addons/analysis_codes/histtools.cc Pages: 1 -->
<svg width="802pt" height="160pt"
 viewBox="0.00 0.00 802.00 160.00" xmlns="http://www.w3.org/2000/svg" xmlns:xlink="http://www.w3.org/1999/xlink">
<g id="graph1" class="graph" transform="scale(1 1) rotate(0) translate(4 156)">
<title>src/root&#45;addons/analysis_codes/histtools.cc</title>
<polygon fill="white" stroke="white" points="-4,5 -4,-156 799,-156 799,5 -4,5"/>
<!-- Node0 -->
<g id="node1" class="node"><title>Node0</title>
<polygon fill="#bfbfbf" stroke="black" points="318.5,-117 318.5,-151 441.5,-151 441.5,-117 318.5,-117"/>
<text text-anchor="start" x="326.5" y="-138" font-family="Helvetica,sans-Serif" font-size="10.00">src/root&#45;addons/analysis</text>
<text text-anchor="middle" x="380" y="-125" font-family="Helvetica,sans-Serif" font-size="10.00">_codes/histtools.cc</text>
</g>
<!-- Node1 -->
<g id="node3" class="node"><title>Node1</title>
<a xlink:href="histtools_8h.html" target="_top" xlink:title="histtools.h">
<polygon fill="white" stroke="black" points="0,-58.5 0,-79.5 62,-79.5 62,-58.5 0,-58.5"/>
<text text-anchor="middle" x="31" y="-66.5" font-family="Helvetica,sans-Serif" font-size="10.00">histtools.h</text>
</a>
</g>
<!-- Node0&#45;&gt;Node1 -->
<g id="edge2" class="edge"><title>Node0&#45;&gt;Node1</title>
<path fill="none" stroke="midnightblue" d="M318.349,-124.237C256.775,-114.206 159.528,-97.6089 76,-80 74.7605,-79.7387 73.5033,-79.4679 72.2351,-79.1898"/>
<polygon fill="midnightblue" stroke="midnightblue" points="72.9406,-75.7609 62.4127,-76.9501 71.3843,-82.5858 72.9406,-75.7609"/>
</g>
<!-- Node3 -->
<g id="node7" class="node"><title>Node3</title>
<a xlink:href="string_8h.html" target="_top" xlink:title="base/std_ext/string.h">
<polygon fill="white" stroke="black" points="118,-58.5 118,-79.5 226,-79.5 226,-58.5 118,-58.5"/>
<text text-anchor="middle" x="172" y="-66.5" font-family="Helvetica,sans-Serif" font-size="10.00">base/std_ext/string.h</text>
</a>
</g>
<!-- Node0&#45;&gt;Node3 -->
<g id="edge6" class="edge"><title>Node0&#45;&gt;Node3</title>
<path fill="none" stroke="midnightblue" d="M325.35,-116.922C291.138,-106.231 247.65,-92.6407 215.729,-82.6654"/>
<polygon fill="midnightblue" stroke="midnightblue" points="216.387,-79.2041 205.798,-79.562 214.299,-85.8855 216.387,-79.2041"/>
</g>
<!-- Node4 -->
<g id="node9" class="node"><title>Node4</title>
<polygon fill="white" stroke="#bfbfbf" points="69.5,-0.5 69.5,-21.5 110.5,-21.5 110.5,-0.5 69.5,-0.5"/>
<text text-anchor="middle" x="90" y="-8.5" font-family="Helvetica,sans-Serif" font-size="10.00">string</text>
</g>
<!-- Node0&#45;&gt;Node4 -->
<g id="edge18" class="edge"><title>Node0&#45;&gt;Node4</title>
<path fill="none" stroke="midnightblue" d="M318.283,-129.157C247.918,-122.389 138.766,-107.696 109,-80 95.8244,-67.7407 91.4758,-47.2653 90.1835,-31.7956"/>
<polygon fill="midnightblue" stroke="midnightblue" points="93.6701,-31.4279 89.7002,-21.605 86.678,-31.7596 93.6701,-31.4279"/>
</g>
<!-- Node6 -->
<g id="node13" class="node"><title>Node6</title>
<polygon fill="white" stroke="#bfbfbf" points="198,-0.5 198,-21.5 254,-21.5 254,-0.5 198,-0.5"/>
<text text-anchor="middle" x="226" y="-8.5" font-family="Helvetica,sans-Serif" font-size="10.00">algorithm</text>
</g>
<!-- Node0&#45;&gt;Node6 -->
<g id="edge22" class="edge"><title>Node0&#45;&gt;Node6</title>
<path fill="none" stroke="midnightblue" d="M350.621,-116.825C334.296,-106.811 313.925,-93.518 297,-80 277.283,-64.2515 256.83,-43.8729 242.969,-29.3543"/>
<polygon fill="midnightblue" stroke="midnightblue" points="245.401,-26.8318 235.994,-21.9579 240.309,-31.6344 245.401,-26.8318"/>
</g>
<!-- Node7 -->
<g id="node15" class="node"><title>Node7</title>
<polygon fill="white" stroke="#bfbfbf" points="272,-0.5 272,-21.5 316,-21.5 316,-0.5 272,-0.5"/>
<text text-anchor="middle" x="294" y="-8.5" font-family="Helvetica,sans-Serif" font-size="10.00">vector</text>
</g>
<!-- Node0&#45;&gt;Node7 -->
<g id="edge20" class="edge"><title>Node0&#45;&gt;Node7</title>
<path fill="none" stroke="midnightblue" d="M349.964,-116.981C336.171,-107.722 320.749,-95.0714 311,-80 301.602,-65.4714 297.399,-46.1521 295.52,-31.6519"/>
<polygon fill="midnightblue" stroke="midnightblue" points="298.997,-31.2494 294.488,-21.662 292.034,-31.9687 298.997,-31.2494"/>
</g>
<!-- Node8 -->
<g id="node17" class="node"><title>Node8</title>
<polygon fill="white" stroke="#bfbfbf" points="320,-58.5 320,-79.5 374,-79.5 374,-58.5 320,-58.5"/>
<text text-anchor="middle" x="347" y="-66.5" font-family="Helvetica,sans-Serif" font-size="10.00">iostream</text>
</g>
<!-- Node0&#45;&gt;Node8 -->
<g id="edge16" class="edge"><title>Node0&#45;&gt;Node8</title>
<path fill="none" stroke="midnightblue" d="M371.33,-116.922C366.954,-108.304 361.622,-97.8018 357.067,-88.8282"/>
<polygon fill="midnightblue" stroke="midnightblue" points="360.157,-87.1843 352.51,-79.8521 353.916,-90.3532 360.157,-87.1843"/>
</g>
<!-- Node9 -->
<g id="node22" class="node"><title>Node9</title>
<polygon fill="white" stroke="#bfbfbf" points="392,-58.5 392,-79.5 436,-79.5 436,-58.5 392,-58.5"/>
<text text-anchor="middle" x="414" y="-66.5" font-family="Helvetica,sans-Serif" font-size="10.00">TH1.h</text>
</g>
<!-- Node0&#45;&gt;Node9 -->
<g id="edge24" class="edge"><title>Node0&#45;&gt;Node9</title>
<path fill="none" stroke="midnightblue" d="M388.933,-116.922C393.441,-108.304 398.934,-97.8018 403.628,-88.8282"/>
<polygon fill="midnightblue" stroke="midnightblue" points="406.79,-90.3353 408.324,-79.8521 400.587,-87.0908 406.79,-90.3353"/>
</g>
<!-- Node10 -->
<g id="node24" class="node"><title>Node10</title>
<polygon fill="white" stroke="#bfbfbf" points="454,-58.5 454,-79.5 498,-79.5 498,-58.5 454,-58.5"/>
<text text-anchor="middle" x="476" y="-66.5" font-family="Helvetica,sans-Serif" font-size="10.00">TH2.h</text>
</g>
<!-- Node0&#45;&gt;Node10 -->
<g id="edge26" class="edge"><title>Node0&#45;&gt;Node10</title>
<path fill="none" stroke="midnightblue" d="M405.223,-116.922C419.668,-107.141 437.697,-94.9344 451.943,-85.2887"/>
<polygon fill="midnightblue" stroke="midnightblue" points="453.94,-88.1632 460.258,-79.6584 450.016,-82.3668 453.94,-88.1632"/>
</g>
<!-- Node11 -->
<g id="node26" class="node"><title>Node11</title>
<polygon fill="white" stroke="#bfbfbf" points="515.5,-58.5 515.5,-79.5 566.5,-79.5 566.5,-58.5 515.5,-58.5"/>
<text text-anchor="middle" x="541" y="-66.5" font-family="Helvetica,sans-Serif" font-size="10.00">TH1D.h</text>
</g>
<!-- Node0&#45;&gt;Node11 -->
<g id="edge28" class="edge"><title>Node0&#45;&gt;Node11</title>
<path fill="none" stroke="midnightblue" d="M422.301,-116.922C448.292,-106.429 481.198,-93.1436 505.768,-83.2239"/>
<polygon fill="midnightblue" stroke="midnightblue" points="507.114,-86.4552 515.077,-79.4659 504.494,-79.9642 507.114,-86.4552"/>
</g>
<!-- Node12 -->
<g id="node28" class="node"><title>Node12</title>
<polygon fill="white" stroke="#bfbfbf" points="583.5,-58.5 583.5,-79.5 640.5,-79.5 640.5,-58.5 583.5,-58.5"/>
<text text-anchor="middle" x="612" y="-66.5" font-family="Helvetica,sans-Serif" font-size="10.00">TGraph.h</text>
</g>
<!-- Node0&#45;&gt;Node12 -->
<g id="edge30" class="edge"><title>Node0&#45;&gt;Node12</title>
<path fill="none" stroke="midnightblue" d="M441.561,-117.271C477.578,-107.41 524.171,-94.5262 573.444,-80.4182"/>
<polygon fill="midnightblue" stroke="midnightblue" points="574.686,-83.7033 583.332,-77.5807 572.755,-76.9748 574.686,-83.7033"/>
</g>
<!-- Node13 -->
<g id="node30" class="node"><title>Node13</title>
<polygon fill="white" stroke="#bfbfbf" points="657.5,-58.5 657.5,-79.5 722.5,-79.5 722.5,-58.5 657.5,-58.5"/>
<text text-anchor="middle" x="690" y="-66.5" font-family="Helvetica,sans-Serif" font-size="10.00">TCanvas.h</text>
</g>
<!-- Node0&#45;&gt;Node13 -->
<g id="edge32" class="edge"><title>Node0&#45;&gt;Node13</title>
<path fill="none" stroke="midnightblue" d="M441.674,-122.782C494.111,-112.979 571.6,-97.8706 647.629,-80.2321"/>
<polygon fill="midnightblue" stroke="midnightblue" points="648.432,-83.6386 657.374,-77.9552 646.84,-76.8222 648.432,-83.6386"/>
</g>
<!-- Node14 -->
<g id="node32" class="node"><title>Node14</title>
<polygon fill="white" stroke="#bfbfbf" points="739.5,-58.5 739.5,-79.5 794.5,-79.5 794.5,-58.5 739.5,-58.5"/>
<text text-anchor="middle" x="767" y="-66.5" font-family="Helvetica,sans-Serif" font-size="10.00">TLatex.h</text>
</g>
<!-- Node0&#45;&gt;Node14 -->
<g id="edge34" class="edge"><title>Node0&#45;&gt;Node14</title>
<path fill="none" stroke="midnightblue" d="M441.694,-127.235C510.059,-119.129 623.638,-103.857 729.325,-80.1704"/>
<polygon fill="midnightblue" stroke="midnightblue" points="730.223,-83.5558 739.199,-77.9274 728.672,-76.7298 730.223,-83.5558"/>
</g>
<!-- Node2 -->
<g id="node5" class="node"><title>Node2</title>
<polygon fill="white" stroke="#bfbfbf" points="11,-0.5 11,-21.5 51,-21.5 51,-0.5 11,-0.5"/>
<text text-anchor="middle" x="31" y="-8.5" font-family="Helvetica,sans-Serif" font-size="10.00">utility</text>
</g>
<!-- Node1&#45;&gt;Node2 -->
<g id="edge4" class="edge"><title>Node1&#45;&gt;Node2</title>
<path fill="none" stroke="midnightblue" d="M31,-58.3619C31,-50.9219 31,-40.7427 31,-31.7276"/>
<polygon fill="midnightblue" stroke="midnightblue" points="34.5001,-31.5706 31,-21.5707 27.5001,-31.5707 34.5001,-31.5706"/>
</g>
<!-- Node3&#45;&gt;Node4 -->
<g id="edge8" class="edge"><title>Node3&#45;&gt;Node4</title>
<path fill="none" stroke="midnightblue" d="M156.96,-58.3619C144.707,-49.6955 127.201,-37.3126 113.161,-27.3819"/>
<polygon fill="midnightblue" stroke="midnightblue" points="115.13,-24.4879 104.945,-21.5707 111.088,-30.2028 115.13,-24.4879"/>
</g>
<!-- Node5 -->
<g id="node11" class="node"><title>Node5</title>
<polygon fill="white" stroke="#bfbfbf" points="128,-0.5 128,-21.5 180,-21.5 180,-0.5 128,-0.5"/>
<text text-anchor="middle" x="154" y="-8.5" font-family="Helvetica,sans-Serif" font-size="10.00">sstream</text>
</g>
<!-- Node3&#45;&gt;Node5 -->
<g id="edge10" class="edge"><title>Node3&#45;&gt;Node5</title>
<path fill="none" stroke="midnightblue" d="M168.699,-58.3619C166.339,-50.7584 163.091,-40.294 160.249,-31.1349"/>
<polygon fill="midnightblue" stroke="midnightblue" points="163.587,-30.0839 157.281,-21.5707 156.902,-32.1587 163.587,-30.0839"/>
</g>
<!-- Node3&#45;&gt;Node6 -->
<g id="edge12" class="edge"><title>Node3&#45;&gt;Node6</title>
<path fill="none" stroke="midnightblue" d="M181.904,-58.3619C189.516,-50.1861 200.208,-38.7025 209.157,-29.0907"/>
<polygon fill="midnightblue" stroke="midnightblue" points="211.906,-31.2746 216.158,-21.5707 206.783,-26.5046 211.906,-31.2746"/>
</g>
<!-- Node3&#45;&gt;Node7 -->
<g id="edge14" class="edge"><title>Node3&#45;&gt;Node7</title>
<path fill="none" stroke="midnightblue" d="M194.093,-58.4966C213.234,-49.397 241.146,-36.1273 262.605,-25.9253"/>
<polygon fill="midnightblue" stroke="midnightblue" points="264.13,-29.0758 271.659,-21.6212 261.125,-22.7539 264.13,-29.0758"/>
</g>
</g>
</svg>
