<?xml version="1.0" encoding="UTF-8" standalone="no"?>
<!DOCTYPE svg PUBLIC "-//W3C//DTD SVG 1.1//EN"
 "http://www.w3.org/Graphics/SVG/1.1/DTD/svg11.dtd">
<!-- Generated by graphviz version 2.26.3 (20100126.1600)
 -->
<!-- Title: src/root&#45;addons/analysis_codes/hstack.cc Pages: 1 -->
<svg width="2892pt" height="334pt"
 viewBox="0.00 0.00 2891.99 334.00" xmlns="http://www.w3.org/2000/svg" xmlns:xlink="http://www.w3.org/1999/xlink">
<g id="graph1" class="graph" transform="scale(1 1) rotate(0) translate(4 330)">
<title>src/root&#45;addons/analysis_codes/hstack.cc</title>
<polygon fill="white" stroke="white" points="-4,5 -4,-330 2888.99,-330 2888.99,5 -4,5"/>
<!-- Node0 -->
<g id="node1" class="node"><title>Node0</title>
<polygon fill="#bfbfbf" stroke="black" points="1794.49,-291 1794.49,-325 1917.49,-325 1917.49,-291 1794.49,-291"/>
<text text-anchor="start" x="1802.49" y="-312" font-family="Helvetica,sans-Serif" font-size="10.00">src/root&#45;addons/analysis</text>
<text text-anchor="middle" x="1855.99" y="-299" font-family="Helvetica,sans-Serif" font-size="10.00">_codes/hstack.cc</text>
</g>
<!-- Node1 -->
<g id="node3" class="node"><title>Node1</title>
<a xlink:href="hstack_8h.html" target="_top" xlink:title="hstack.h">
<polygon fill="white" stroke="black" points="479.99,-232.5 479.99,-253.5 533.99,-253.5 533.99,-232.5 479.99,-232.5"/>
<text text-anchor="middle" x="506.99" y="-240.5" font-family="Helvetica,sans-Serif" font-size="10.00">hstack.h</text>
</a>
</g>
<!-- Node0&#45;&gt;Node1 -->
<g id="edge2" class="edge"><title>Node0&#45;&gt;Node1</title>
<path fill="none" stroke="midnightblue" d="M1794.08,-305.017C1559.6,-293.719 730.045,-253.748 544.142,-244.79"/>
<polygon fill="midnightblue" stroke="midnightblue" points="544.21,-241.289 534.053,-244.304 543.873,-248.281 544.21,-241.289"/>
</g>
<!-- Node7 -->
<g id="node16" class="node"><title>Node7</title>
<polygon fill="white" stroke="#bfbfbf" points="43.4903,-116.5 43.4903,-137.5 72.4903,-137.5 72.4903,-116.5 43.4903,-116.5"/>
<text text-anchor="middle" x="57.9903" y="-124.5" font-family="Helvetica,sans-Serif" font-size="10.00">list</text>
</g>
<!-- Node0&#45;&gt;Node7 -->
<g id="edge142" class="edge"><title>Node0&#45;&gt;Node7</title>
<path fill="none" stroke="midnightblue" d="M1794.32,-307.081C1544.68,-303.17 608.358,-286.593 313.99,-254 175.107,-238.622 94.2174,-303.534 4.99028,-196 -10.4547,-177.386 14.1571,-155.063 34.7582,-140.952"/>
<polygon fill="midnightblue" stroke="midnightblue" points="36.7459,-143.835 43.2133,-135.443 32.9242,-137.97 36.7459,-143.835"/>
</g>
<!-- Node23 -->
<g id="node61" class="node"><title>Node23</title>
<a xlink:href="string_8h.html" target="_top" xlink:title="base/std_ext/string.h">
<polygon fill="white" stroke="black" points="795.99,-174.5 795.99,-195.5 903.99,-195.5 903.99,-174.5 795.99,-174.5"/>
<text text-anchor="middle" x="849.99" y="-182.5" font-family="Helvetica,sans-Serif" font-size="10.00">base/std_ext/string.h</text>
</a>
</g>
<!-- Node0&#45;&gt;Node23 -->
<g id="edge74" class="edge"><title>Node0&#45;&gt;Node23</title>
<path fill="none" stroke="midnightblue" d="M1794.36,-305.724C1633.65,-299.481 1204.57,-280.75 1064.99,-254 1000.12,-241.567 927.505,-215.61 885.442,-199.317"/>
<polygon fill="midnightblue" stroke="midnightblue" points="886.522,-195.981 875.934,-195.597 883.971,-202.5 886.522,-195.981"/>
</g>
<!-- Node24 -->
<g id="node67" class="node"><title>Node24</title>
<a xlink:href="memory_8h.html" target="_top" xlink:title="base/std_ext/memory.h">
<polygon fill="white" stroke="black" points="13.4903,-174.5 13.4903,-195.5 132.49,-195.5 132.49,-174.5 13.4903,-174.5"/>
<text text-anchor="middle" x="72.9903" y="-182.5" font-family="Helvetica,sans-Serif" font-size="10.00">base/std_ext/memory.h</text>
</a>
</g>
<!-- Node0&#45;&gt;Node24 -->
<g id="edge84" class="edge"><title>Node0&#45;&gt;Node24</title>
<path fill="none" stroke="midnightblue" d="M1794.38,-306.687C1561.26,-301.548 733.174,-281.714 470.99,-254 349.352,-241.142 208.711,-213.775 131.426,-197.638"/>
<polygon fill="midnightblue" stroke="midnightblue" points="131.913,-194.164 121.407,-195.535 130.475,-201.015 131.913,-194.164"/>
</g>
<!-- Node25 -->
<g id="node71" class="node"><title>Node25</title>
<a xlink:href="container_8h.html" target="_top" xlink:title="base/std_ext/container.h">
<polygon fill="white" stroke="black" points="921.99,-174.5 921.99,-195.5 1045.99,-195.5 1045.99,-174.5 921.99,-174.5"/>
<text text-anchor="middle" x="983.99" y="-182.5" font-family="Helvetica,sans-Serif" font-size="10.00">base/std_ext/container.h</text>
</a>
</g>
<!-- Node0&#45;&gt;Node25 -->
<g id="edge90" class="edge"><title>Node0&#45;&gt;Node25</title>
<path fill="none" stroke="midnightblue" d="M1794.3,-306.478C1641.68,-302.228 1249.71,-288.223 1123.99,-254 1081.42,-242.413 1036.38,-217.657 1009.22,-201.168"/>
<polygon fill="midnightblue" stroke="midnightblue" points="1010.74,-197.994 1000.39,-195.716 1007.06,-203.949 1010.74,-197.994"/>
</g>
<!-- Node27 -->
<g id="node78" class="node"><title>Node27</title>
<a xlink:href="_logger_8h.html" target="_top" xlink:title="base/Logger.h">
<polygon fill="white" stroke="black" points="1132.99,-232.5 1132.99,-253.5 1210.99,-253.5 1210.99,-232.5 1132.99,-232.5"/>
<text text-anchor="middle" x="1171.99" y="-240.5" font-family="Helvetica,sans-Serif" font-size="10.00">base/Logger.h</text>
</a>
</g>
<!-- Node0&#45;&gt;Node27 -->
<g id="edge100" class="edge"><title>Node0&#45;&gt;Node27</title>
<path fill="none" stroke="midnightblue" d="M1794.39,-302.146C1660.21,-289.395 1343.81,-259.328 1221.48,-247.703"/>
<polygon fill="midnightblue" stroke="midnightblue" points="1221.58,-244.196 1211.29,-246.735 1220.91,-251.165 1221.58,-244.196"/>
</g>
<!-- Node29 -->
<g id="node82" class="node"><title>Node29</title>
<a xlink:href="stream___t_buffer_8h.html" target="_top" xlink:title="tree/stream_TBuffer.h">
<polygon fill="white" stroke="black" points="1369.99,-232.5 1369.99,-253.5 1481.99,-253.5 1481.99,-232.5 1369.99,-232.5"/>
<text text-anchor="middle" x="1425.99" y="-240.5" font-family="Helvetica,sans-Serif" font-size="10.00">tree/stream_TBuffer.h</text>
</a>
</g>
<!-- Node0&#45;&gt;Node29 -->
<g id="edge104" class="edge"><title>Node0&#45;&gt;Node29</title>
<path fill="none" stroke="midnightblue" d="M1794.26,-299.265C1723.75,-289.201 1604.67,-271.929 1492.17,-254.164"/>
<polygon fill="midnightblue" stroke="midnightblue" points="1492.42,-250.661 1482,-252.554 1491.33,-257.575 1492.42,-250.661"/>
</g>
<!-- Node40 -->
<g id="node104" class="node"><title>Node40</title>
<polygon fill="white" stroke="#bfbfbf" points="1499.49,-232.5 1499.49,-253.5 1566.49,-253.5 1566.49,-232.5 1499.49,-232.5"/>
<text text-anchor="middle" x="1532.99" y="-240.5" font-family="Helvetica,sans-Serif" font-size="10.00">TBrowser.h</text>
</g>
<!-- Node0&#45;&gt;Node40 -->
<g id="edge126" class="edge"><title>Node0&#45;&gt;Node40</title>
<path fill="none" stroke="midnightblue" d="M1794.35,-297.368C1739.49,-287.629 1656.85,-272.286 1576.64,-254.287"/>
<polygon fill="midnightblue" stroke="midnightblue" points="1577.39,-250.87 1566.87,-252.079 1575.85,-257.698 1577.39,-250.87"/>
</g>
<!-- Node41 -->
<g id="node106" class="node"><title>Node41</title>
<polygon fill="white" stroke="#bfbfbf" points="1583.99,-232.5 1583.99,-253.5 1631.99,-253.5 1631.99,-232.5 1583.99,-232.5"/>
<text text-anchor="middle" x="1607.99" y="-240.5" font-family="Helvetica,sans-Serif" font-size="10.00">TPad.h</text>
</g>
<!-- Node0&#45;&gt;Node41 -->
<g id="edge128" class="edge"><title>Node0&#45;&gt;Node41</title>
<path fill="none" stroke="midnightblue" d="M1794.03,-293.751C1753.25,-284.072 1698.54,-270.513 1641.92,-254.133"/>
<polygon fill="midnightblue" stroke="midnightblue" points="1642.65,-250.702 1632.07,-251.262 1640.69,-257.422 1642.65,-250.702"/>
</g>
<!-- Node42 -->
<g id="node108" class="node"><title>Node42</title>
<polygon fill="white" stroke="#bfbfbf" points="1649.99,-232.5 1649.99,-253.5 1711.99,-253.5 1711.99,-232.5 1649.99,-232.5"/>
<text text-anchor="middle" x="1680.99" y="-240.5" font-family="Helvetica,sans-Serif" font-size="10.00">TLegend.h</text>
</g>
<!-- Node0&#45;&gt;Node42 -->
<g id="edge130" class="edge"><title>Node0&#45;&gt;Node42</title>
<path fill="none" stroke="midnightblue" d="M1810.01,-290.922C1781.6,-280.37 1745.59,-266.993 1718.83,-257.056"/>
<polygon fill="midnightblue" stroke="midnightblue" points="1720.02,-253.763 1709.43,-253.562 1717.58,-260.325 1720.02,-253.763"/>
</g>
<!-- Node43 -->
<g id="node110" class="node"><title>Node43</title>
<polygon fill="white" stroke="#bfbfbf" points="1729.99,-232.5 1729.99,-253.5 1815.99,-253.5 1815.99,-232.5 1729.99,-232.5"/>
<text text-anchor="middle" x="1772.99" y="-240.5" font-family="Helvetica,sans-Serif" font-size="10.00">TLegendEntry.h</text>
</g>
<!-- Node0&#45;&gt;Node43 -->
<g id="edge132" class="edge"><title>Node0&#45;&gt;Node43</title>
<path fill="none" stroke="midnightblue" d="M1834.18,-290.922C1822.01,-281.387 1806.89,-269.546 1794.72,-260.02"/>
<polygon fill="midnightblue" stroke="midnightblue" points="1796.88,-257.262 1786.85,-253.852 1792.56,-262.773 1796.88,-257.262"/>
</g>
<!-- Node44 -->
<g id="node112" class="node"><title>Node44</title>
<polygon fill="white" stroke="#bfbfbf" points="1833.99,-232.5 1833.99,-253.5 1877.99,-253.5 1877.99,-232.5 1833.99,-232.5"/>
<text text-anchor="middle" x="1855.99" y="-240.5" font-family="Helvetica,sans-Serif" font-size="10.00">TH1.h</text>
</g>
<!-- Node0&#45;&gt;Node44 -->
<g id="edge134" class="edge"><title>Node0&#45;&gt;Node44</title>
<path fill="none" stroke="midnightblue" d="M1855.99,-290.922C1855.99,-282.67 1855.99,-272.692 1855.99,-263.982"/>
<polygon fill="midnightblue" stroke="midnightblue" points="1859.49,-263.852 1855.99,-253.852 1852.49,-263.852 1859.49,-263.852"/>
</g>
<!-- Node45 -->
<g id="node114" class="node"><title>Node45</title>
<polygon fill="white" stroke="#bfbfbf" points="1895.49,-232.5 1895.49,-253.5 1966.49,-253.5 1966.49,-232.5 1895.49,-232.5"/>
<text text-anchor="middle" x="1930.99" y="-240.5" font-family="Helvetica,sans-Serif" font-size="10.00">TDirectory.h</text>
</g>
<!-- Node0&#45;&gt;Node45 -->
<g id="edge136" class="edge"><title>Node0&#45;&gt;Node45</title>
<path fill="none" stroke="midnightblue" d="M1875.7,-290.922C1886.49,-281.57 1899.84,-270.001 1910.71,-260.572"/>
<polygon fill="midnightblue" stroke="midnightblue" points="1913.2,-263.046 1918.47,-253.852 1908.62,-257.757 1913.2,-263.046"/>
</g>
<!-- Node46 -->
<g id="node116" class="node"><title>Node46</title>
<polygon fill="white" stroke="#bfbfbf" points="1983.49,-232.5 1983.49,-253.5 2056.49,-253.5 2056.49,-232.5 1983.49,-232.5"/>
<text text-anchor="middle" x="2019.99" y="-240.5" font-family="Helvetica,sans-Serif" font-size="10.00">TPaveText.h</text>
</g>
<!-- Node0&#45;&gt;Node46 -->
<g id="edge138" class="edge"><title>Node0&#45;&gt;Node46</title>
<path fill="none" stroke="midnightblue" d="M1899.08,-290.922C1925.39,-280.495 1958.65,-267.312 1983.63,-257.413"/>
<polygon fill="midnightblue" stroke="midnightblue" points="1985.09,-260.597 1993.1,-253.658 1982.51,-254.089 1985.09,-260.597"/>
</g>
<!-- Node47 -->
<g id="node118" class="node"><title>Node47</title>
<polygon fill="white" stroke="#bfbfbf" points="2073.99,-232.5 2073.99,-253.5 2169.99,-253.5 2169.99,-232.5 2073.99,-232.5"/>
<text text-anchor="middle" x="2121.99" y="-240.5" font-family="Helvetica,sans-Serif" font-size="10.00">cereal/access.hpp</text>
</g>
<!-- Node0&#45;&gt;Node47 -->
<g id="edge140" class="edge"><title>Node0&#45;&gt;Node47</title>
<path fill="none" stroke="midnightblue" d="M1917.68,-292.924C1963.53,-281.721 2025.43,-266.596 2069.04,-255.939"/>
<polygon fill="midnightblue" stroke="midnightblue" points="2070,-259.308 2078.88,-253.534 2068.34,-252.508 2070,-259.308"/>
</g>
<!-- Node48 -->
<g id="node121" class="node"><title>Node48</title>
<polygon fill="white" stroke="#bfbfbf" points="2187.99,-232.5 2187.99,-253.5 2237.99,-253.5 2237.99,-232.5 2187.99,-232.5"/>
<text text-anchor="middle" x="2212.99" y="-240.5" font-family="Helvetica,sans-Serif" font-size="10.00">iomanip</text>
</g>
<!-- Node0&#45;&gt;Node48 -->
<g id="edge144" class="edge"><title>Node0&#45;&gt;Node48</title>
<path fill="none" stroke="midnightblue" d="M1917.56,-300.454C1980.78,-292.089 2082.09,-276.976 2178,-253.984"/>
<polygon fill="midnightblue" stroke="midnightblue" points="2178.97,-257.35 2187.86,-251.587 2177.31,-250.548 2178.97,-257.35"/>
</g>
<!-- Node49 -->
<g id="node123" class="node"><title>Node49</title>
<polygon fill="white" stroke="#bfbfbf" points="2255.99,-232.5 2255.99,-253.5 2321.99,-253.5 2321.99,-232.5 2255.99,-232.5"/>
<text text-anchor="middle" x="2288.99" y="-240.5" font-family="Helvetica,sans-Serif" font-size="10.00">TGFrame.h</text>
</g>
<!-- Node0&#45;&gt;Node49 -->
<g id="edge146" class="edge"><title>Node0&#45;&gt;Node49</title>
<path fill="none" stroke="midnightblue" d="M1917.66,-301.777C1992.99,-293.665 2124.41,-277.862 2245.77,-254.077"/>
<polygon fill="midnightblue" stroke="midnightblue" points="2246.47,-257.505 2255.6,-252.127 2245.11,-250.639 2246.47,-257.505"/>
</g>
<!-- Node50 -->
<g id="node125" class="node"><title>Node50</title>
<polygon fill="white" stroke="#bfbfbf" points="2339.99,-232.5 2339.99,-253.5 2431.99,-253.5 2431.99,-232.5 2339.99,-232.5"/>
<text text-anchor="middle" x="2385.99" y="-240.5" font-family="Helvetica,sans-Serif" font-size="10.00">TGTableLayout.h</text>
</g>
<!-- Node0&#45;&gt;Node50 -->
<g id="edge148" class="edge"><title>Node0&#45;&gt;Node50</title>
<path fill="none" stroke="midnightblue" d="M1917.7,-302.658C2006.57,-294.594 2175.92,-277.847 2329.72,-254.1"/>
<polygon fill="midnightblue" stroke="midnightblue" points="2330.49,-257.523 2339.83,-252.526 2329.41,-250.607 2330.49,-257.523"/>
</g>
<!-- Node51 -->
<g id="node127" class="node"><title>Node51</title>
<polygon fill="white" stroke="#bfbfbf" points="2449.99,-232.5 2449.99,-253.5 2511.99,-253.5 2511.99,-232.5 2449.99,-232.5"/>
<text text-anchor="middle" x="2480.99" y="-240.5" font-family="Helvetica,sans-Serif" font-size="10.00">TGLabel.h</text>
</g>
<!-- Node0&#45;&gt;Node51 -->
<g id="edge150" class="edge"><title>Node0&#45;&gt;Node51</title>
<path fill="none" stroke="midnightblue" d="M1917.53,-305.886C2022.9,-301.489 2244.58,-288.843 2439.8,-253.961"/>
<polygon fill="midnightblue" stroke="midnightblue" points="2440.45,-257.401 2449.67,-252.175 2439.2,-250.513 2440.45,-257.401"/>
</g>
<!-- Node52 -->
<g id="node129" class="node"><title>Node52</title>
<polygon fill="white" stroke="#bfbfbf" points="2529.49,-232.5 2529.49,-253.5 2596.49,-253.5 2596.49,-232.5 2529.49,-232.5"/>
<text text-anchor="middle" x="2562.99" y="-240.5" font-family="Helvetica,sans-Serif" font-size="10.00">TGButton.h</text>
</g>
<!-- Node0&#45;&gt;Node52 -->
<g id="edge152" class="edge"><title>Node0&#45;&gt;Node52</title>
<path fill="none" stroke="midnightblue" d="M1917.87,-306.587C2034.2,-303.145 2293.44,-291.754 2519.13,-254.097"/>
<polygon fill="midnightblue" stroke="midnightblue" points="2519.9,-257.517 2529.18,-252.4 2518.73,-250.615 2519.9,-257.517"/>
</g>
<!-- Node53 -->
<g id="node131" class="node"><title>Node53</title>
<polygon fill="white" stroke="#bfbfbf" points="2613.99,-232.5 2613.99,-253.5 2709.99,-253.5 2709.99,-232.5 2613.99,-232.5"/>
<text text-anchor="middle" x="2661.99" y="-240.5" font-family="Helvetica,sans-Serif" font-size="10.00">TGNumberEntry.h</text>
</g>
<!-- Node0&#45;&gt;Node53 -->
<g id="edge154" class="edge"><title>Node0&#45;&gt;Node53</title>
<path fill="none" stroke="midnightblue" d="M1917.9,-306.023C2044.78,-301.431 2343.62,-287.849 2603.84,-254.021"/>
<polygon fill="midnightblue" stroke="midnightblue" points="2604.39,-257.478 2613.85,-252.706 2603.48,-250.537 2604.39,-257.478"/>
</g>
<!-- Node54 -->
<g id="node133" class="node"><title>Node54</title>
<polygon fill="white" stroke="#bfbfbf" points="2727.49,-232.5 2727.49,-253.5 2814.49,-253.5 2814.49,-232.5 2727.49,-232.5"/>
<text text-anchor="middle" x="2770.99" y="-240.5" font-family="Helvetica,sans-Serif" font-size="10.00">TGComboBox.h</text>
</g>
<!-- Node0&#45;&gt;Node54 -->
<g id="edge156" class="edge"><title>Node0&#45;&gt;Node54</title>
<path fill="none" stroke="midnightblue" d="M1917.51,-307.228C2057.89,-304.802 2412.66,-294.919 2717.47,-254.05"/>
<polygon fill="midnightblue" stroke="midnightblue" points="2717.94,-257.519 2727.38,-252.708 2717,-250.582 2717.94,-257.519"/>
</g>
<!-- Node55 -->
<g id="node135" class="node"><title>Node55</title>
<polygon fill="white" stroke="#bfbfbf" points="2831.49,-232.5 2831.49,-253.5 2884.49,-253.5 2884.49,-232.5 2831.49,-232.5"/>
<text text-anchor="middle" x="2857.99" y="-240.5" font-family="Helvetica,sans-Serif" font-size="10.00">TExec.h</text>
</g>
<!-- Node0&#45;&gt;Node55 -->
<g id="edge158" class="edge"><title>Node0&#45;&gt;Node55</title>
<path fill="none" stroke="midnightblue" d="M1917.63,-306.56C2098.89,-302.016 2628.98,-286.421 2821.41,-253.867"/>
<polygon fill="midnightblue" stroke="midnightblue" points="2822.17,-257.287 2831.41,-252.104 2820.95,-250.394 2822.17,-257.287"/>
</g>
<!-- Node2 -->
<g id="node5" class="node"><title>Node2</title>
<polygon fill="white" stroke="#bfbfbf" points="389.99,-116.5 389.99,-137.5 445.99,-137.5 445.99,-116.5 389.99,-116.5"/>
<text text-anchor="middle" x="417.99" y="-124.5" font-family="Helvetica,sans-Serif" font-size="10.00">Rtypes.h</text>
</g>
<!-- Node1&#45;&gt;Node2 -->
<g id="edge4" class="edge"><title>Node1&#45;&gt;Node2</title>
<path fill="none" stroke="midnightblue" d="M482.936,-232.349C467.653,-224.41 448.624,-212.155 436.99,-196 426.807,-181.859 422.079,-162.503 419.885,-147.89"/>
<polygon fill="midnightblue" stroke="midnightblue" points="423.34,-147.306 418.653,-137.804 416.392,-148.155 423.34,-147.306"/>
</g>
<!-- Node3 -->
<g id="node7" class="node"><title>Node3</title>
<polygon fill="white" stroke="#bfbfbf" points="675.99,-174.5 675.99,-195.5 739.99,-195.5 739.99,-174.5 675.99,-174.5"/>
<text text-anchor="middle" x="707.99" y="-182.5" font-family="Helvetica,sans-Serif" font-size="10.00">THStack.h</text>
</g>
<!-- Node1&#45;&gt;Node3 -->
<g id="edge6" class="edge"><title>Node1&#45;&gt;Node3</title>
<path fill="none" stroke="midnightblue" d="M534.098,-235.178C567.981,-225.401 626.337,-208.562 666.015,-197.112"/>
<polygon fill="midnightblue" stroke="midnightblue" points="667.036,-200.461 675.673,-194.325 665.095,-193.735 667.036,-200.461"/>
</g>
<!-- Node4 -->
<g id="node9" class="node"><title>Node4</title>
<polygon fill="white" stroke="#bfbfbf" points="539.49,-116.5 539.49,-137.5 580.49,-137.5 580.49,-116.5 539.49,-116.5"/>
<text text-anchor="middle" x="559.99" y="-124.5" font-family="Helvetica,sans-Serif" font-size="10.00">string</text>
</g>
<!-- Node1&#45;&gt;Node4 -->
<g id="edge8" class="edge"><title>Node1&#45;&gt;Node4</title>
<path fill="none" stroke="midnightblue" d="M534.308,-232.429C549.851,-224.832 567.97,-212.922 576.99,-196 585.195,-180.608 579.153,-161.173 572.098,-146.855"/>
<polygon fill="midnightblue" stroke="midnightblue" points="575.065,-144.986 567.214,-137.872 568.916,-148.329 575.065,-144.986"/>
</g>
<!-- Node5 -->
<g id="node11" class="node"><title>Node5</title>
<polygon fill="white" stroke="#bfbfbf" points="549.99,-58.5 549.99,-79.5 593.99,-79.5 593.99,-58.5 549.99,-58.5"/>
<text text-anchor="middle" x="571.99" y="-66.5" font-family="Helvetica,sans-Serif" font-size="10.00">vector</text>
</g>
<!-- Node1&#45;&gt;Node5 -->
<g id="edge10" class="edge"><title>Node1&#45;&gt;Node5</title>
<path fill="none" stroke="midnightblue" d="M479.537,-239.861C417.214,-232.461 269.316,-213.245 254.99,-196 248.742,-188.479 250.128,-182.483 254.99,-174 267.669,-151.878 330.229,-125.248 353.99,-116 417.488,-91.2873 496.708,-78.3404 540.025,-72.6614"/>
<polygon fill="midnightblue" stroke="midnightblue" points="540.497,-76.1297 549.978,-71.4024 539.618,-69.1851 540.497,-76.1297"/>
</g>
<!-- Node6 -->
<g id="node13" class="node"><title>Node6</title>
<a xlink:href="_root_draw_8h.html" target="_top" xlink:title="analysis/plot/RootDraw.h">
<polygon fill="white" stroke="black" points="263.49,-174.5 263.49,-195.5 390.49,-195.5 390.49,-174.5 263.49,-174.5"/>
<text text-anchor="middle" x="326.99" y="-182.5" font-family="Helvetica,sans-Serif" font-size="10.00">analysis/plot/RootDraw.h</text>
</a>
</g>
<!-- Node1&#45;&gt;Node6 -->
<g id="edge12" class="edge"><title>Node1&#45;&gt;Node6</title>
<path fill="none" stroke="midnightblue" d="M479.652,-234.191C450.382,-224.759 403.556,-209.671 369.475,-198.69"/>
<polygon fill="midnightblue" stroke="midnightblue" points="370.376,-195.303 359.784,-195.567 368.229,-201.965 370.376,-195.303"/>
</g>
<!-- Node8 -->
<g id="node19" class="node"><title>Node8</title>
<polygon fill="white" stroke="#bfbfbf" points="89.9903,-116.5 89.9903,-137.5 141.99,-137.5 141.99,-116.5 89.9903,-116.5"/>
<text text-anchor="middle" x="115.99" y="-124.5" font-family="Helvetica,sans-Serif" font-size="10.00">memory</text>
</g>
<!-- Node1&#45;&gt;Node8 -->
<g id="edge70" class="edge"><title>Node1&#45;&gt;Node8</title>
<path fill="none" stroke="midnightblue" d="M479.81,-241.271C411.762,-236.591 235.813,-222.233 183.99,-196 161.074,-184.4 141.299,-162.084 129.074,-145.966"/>
<polygon fill="midnightblue" stroke="midnightblue" points="131.807,-143.774 123.086,-137.757 126.151,-147.899 131.807,-143.774"/>
</g>
<!-- Node11 -->
<g id="node25" class="node"><title>Node11</title>
<a xlink:href="interval_8h.html" target="_top" xlink:title="base/interval.h">
<polygon fill="white" stroke="black" points="380.99,-58.5 380.99,-79.5 460.99,-79.5 460.99,-58.5 380.99,-58.5"/>
<text text-anchor="middle" x="420.99" y="-66.5" font-family="Helvetica,sans-Serif" font-size="10.00">base/interval.h</text>
</a>
</g>
<!-- Node1&#45;&gt;Node11 -->
<g id="edge60" class="edge"><title>Node1&#45;&gt;Node11</title>
<path fill="none" stroke="midnightblue" d="M479.621,-240.035C415.897,-232.857 261.879,-213.821 246.99,-196 216.813,-159.878 272.41,-135.979 301.99,-116 323.396,-101.542 349.911,-90.5205 372.475,-82.7972"/>
<polygon fill="midnightblue" stroke="midnightblue" points="373.805,-86.0438 382.203,-79.5847 371.61,-79.3969 373.805,-86.0438"/>
</g>
<!-- Node20 -->
<g id="node47" class="node"><title>Node20</title>
<a xlink:href="_hist_style_8h.html" target="_top" xlink:title="analysis/plot/HistStyle.h">
<polygon fill="white" stroke="black" points="445.49,-174.5 445.49,-195.5 568.49,-195.5 568.49,-174.5 445.49,-174.5"/>
<text text-anchor="middle" x="506.99" y="-182.5" font-family="Helvetica,sans-Serif" font-size="10.00">analysis/plot/HistStyle.h</text>
</a>
</g>
<!-- Node1&#45;&gt;Node20 -->
<g id="edge52" class="edge"><title>Node1&#45;&gt;Node20</title>
<path fill="none" stroke="midnightblue" d="M506.99,-232.362C506.99,-224.922 506.99,-214.743 506.99,-205.728"/>
<polygon fill="midnightblue" stroke="midnightblue" points="510.49,-205.571 506.99,-195.571 503.49,-205.571 510.49,-205.571"/>
</g>
<!-- Node21 -->
<g id="node53" class="node"><title>Node21</title>
<a xlink:href="base_2std__ext_2math_8h.html" target="_top" xlink:title="base/std_ext/math.h">
<polygon fill="white" stroke="black" points="673.99,-116.5 673.99,-137.5 779.99,-137.5 779.99,-116.5 673.99,-116.5"/>
<text text-anchor="middle" x="726.99" y="-124.5" font-family="Helvetica,sans-Serif" font-size="10.00">base/std_ext/math.h</text>
</a>
</g>
<!-- Node1&#45;&gt;Node21 -->
<g id="edge62" class="edge"><title>Node1&#45;&gt;Node21</title>
<path fill="none" stroke="midnightblue" d="M534.042,-241.912C591.354,-238.981 721.968,-228.775 748.99,-196 760.78,-181.7 751.699,-160.991 741.872,-145.995"/>
<polygon fill="midnightblue" stroke="midnightblue" points="744.484,-143.627 735.838,-137.504 738.778,-147.683 744.484,-143.627"/>
</g>
<!-- Node22 -->
<g id="node59" class="node"><title>Node22</title>
<polygon fill="white" stroke="#bfbfbf" points="623.49,-174.5 623.49,-195.5 658.49,-195.5 658.49,-174.5 623.49,-174.5"/>
<text text-anchor="middle" x="640.99" y="-182.5" font-family="Helvetica,sans-Serif" font-size="10.00">map</text>
</g>
<!-- Node1&#45;&gt;Node22 -->
<g id="edge72" class="edge"><title>Node1&#45;&gt;Node22</title>
<path fill="none" stroke="midnightblue" d="M531.257,-232.497C554.59,-222.397 589.79,-207.161 613.997,-196.683"/>
<polygon fill="midnightblue" stroke="midnightblue" points="615.53,-199.834 623.317,-192.65 612.75,-193.41 615.53,-199.834"/>
</g>
<!-- Node6&#45;&gt;Node2 -->
<g id="edge50" class="edge"><title>Node6&#45;&gt;Node2</title>
<path fill="none" stroke="midnightblue" d="M343.681,-174.362C357.407,-165.614 377.074,-153.079 392.728,-143.101"/>
<polygon fill="midnightblue" stroke="midnightblue" points="394.854,-145.897 401.405,-137.571 391.091,-139.994 394.854,-145.897"/>
</g>
<!-- Node6&#45;&gt;Node4 -->
<g id="edge14" class="edge"><title>Node6&#45;&gt;Node4</title>
<path fill="none" stroke="midnightblue" d="M382.072,-174.43C421.087,-166.461 474.757,-154.532 529.357,-138.254"/>
<polygon fill="midnightblue" stroke="midnightblue" points="530.641,-141.522 539.198,-135.275 528.613,-134.822 530.641,-141.522"/>
</g>
<!-- Node6&#45;&gt;Node5 -->
<g id="edge18" class="edge"><title>Node6&#45;&gt;Node5</title>
<path fill="none" stroke="midnightblue" d="M332.363,-174.298C340.642,-158.94 357.998,-130.868 380.99,-116 407.05,-99.1486 492.383,-82.5343 539.688,-74.3146"/>
<polygon fill="midnightblue" stroke="midnightblue" points="540.46,-77.7335 549.726,-72.5972 539.279,-70.8337 540.46,-77.7335"/>
</g>
<!-- Node6&#45;&gt;Node7 -->
<g id="edge16" class="edge"><title>Node6&#45;&gt;Node7</title>
<path fill="none" stroke="midnightblue" d="M263.428,-177.436C215.438,-170.69 148.076,-159.01 82.5128,-137.963"/>
<polygon fill="midnightblue" stroke="midnightblue" points="83.4479,-134.586 72.855,-134.789 81.2625,-141.236 83.4479,-134.586"/>
</g>
<!-- Node6&#45;&gt;Node8 -->
<g id="edge20" class="edge"><title>Node6&#45;&gt;Node8</title>
<path fill="none" stroke="midnightblue" d="M285.598,-174.49C252.008,-165.839 203.204,-152.996 152.21,-138.28"/>
<polygon fill="midnightblue" stroke="midnightblue" points="152.906,-134.838 142.326,-135.412 150.955,-141.56 152.906,-134.838"/>
</g>
<!-- Node9 -->
<g id="node21" class="node"><title>Node9</title>
<polygon fill="white" stroke="#bfbfbf" points="463.49,-116.5 463.49,-137.5 522.49,-137.5 522.49,-116.5 463.49,-116.5"/>
<text text-anchor="middle" x="492.99" y="-124.5" font-family="Helvetica,sans-Serif" font-size="10.00">functional</text>
</g>
<!-- Node6&#45;&gt;Node9 -->
<g id="edge22" class="edge"><title>Node6&#45;&gt;Node9</title>
<path fill="none" stroke="midnightblue" d="M357.052,-174.497C384.165,-165.023 424.213,-151.031 453.824,-140.685"/>
<polygon fill="midnightblue" stroke="midnightblue" points="455.146,-143.93 463.432,-137.328 452.837,-137.322 455.146,-143.93"/>
</g>
<!-- Node10 -->
<g id="node23" class="node"><title>Node10</title>
<a xlink:href="_bin_settings_8h.html" target="_top" xlink:title="base/BinSettings.h">
<polygon fill="white" stroke="black" points="159.49,-116.5 159.49,-137.5 258.49,-137.5 258.49,-116.5 159.49,-116.5"/>
<text text-anchor="middle" x="208.99" y="-124.5" font-family="Helvetica,sans-Serif" font-size="10.00">base/BinSettings.h</text>
</a>
</g>
<!-- Node6&#45;&gt;Node10 -->
<g id="edge24" class="edge"><title>Node6&#45;&gt;Node10</title>
<path fill="none" stroke="midnightblue" d="M305.621,-174.497C287.191,-165.438 260.353,-152.246 239.635,-142.063"/>
<polygon fill="midnightblue" stroke="midnightblue" points="241.117,-138.891 230.599,-137.621 238.03,-145.174 241.117,-138.891"/>
</g>
<!-- Node10&#45;&gt;Node5 -->
<g id="edge42" class="edge"><title>Node10&#45;&gt;Node5</title>
<path fill="none" stroke="midnightblue" d="M258.703,-119.057C334.327,-106.974 476.179,-84.3087 539.743,-74.1524"/>
<polygon fill="midnightblue" stroke="midnightblue" points="540.638,-77.5539 549.961,-72.5198 539.534,-70.6415 540.638,-77.5539"/>
</g>
<!-- Node10&#45;&gt;Node11 -->
<g id="edge26" class="edge"><title>Node10&#45;&gt;Node11</title>
<path fill="none" stroke="midnightblue" d="M247.382,-116.497C282.542,-106.877 334.735,-92.5981 372.709,-82.209"/>
<polygon fill="midnightblue" stroke="midnightblue" points="373.805,-85.5379 382.527,-79.5231 371.958,-78.7861 373.805,-85.5379"/>
</g>
<!-- Node14 -->
<g id="node31" class="node"><title>Node14</title>
<polygon fill="white" stroke="#bfbfbf" points="198.49,-0.5 198.49,-21.5 257.49,-21.5 257.49,-0.5 198.49,-0.5"/>
<text text-anchor="middle" x="227.99" y="-8.5" font-family="Helvetica,sans-Serif" font-size="10.00">stdexcept</text>
</g>
<!-- Node10&#45;&gt;Node14 -->
<g id="edge44" class="edge"><title>Node10&#45;&gt;Node14</title>
<path fill="none" stroke="midnightblue" d="M210.744,-116.295C213.883,-97.1314 220.512,-56.654 224.576,-31.8434"/>
<polygon fill="midnightblue" stroke="midnightblue" points="228.079,-32.1135 226.241,-21.6792 221.171,-30.9819 228.079,-32.1135"/>
</g>
<!-- Node16 -->
<g id="node35" class="node"><title>Node16</title>
<polygon fill="white" stroke="#bfbfbf" points="311.49,-0.5 311.49,-21.5 360.49,-21.5 360.49,-0.5 311.49,-0.5"/>
<text text-anchor="middle" x="335.99" y="-8.5" font-family="Helvetica,sans-Serif" font-size="10.00">istream</text>
</g>
<!-- Node10&#45;&gt;Node16 -->
<g id="edge46" class="edge"><title>Node10&#45;&gt;Node16</title>
<path fill="none" stroke="midnightblue" d="M216.272,-116.374C226.379,-102.085 245.719,-76.3551 265.99,-58 278.862,-46.3451 294.835,-35.3997 308.272,-27.0087"/>
<polygon fill="midnightblue" stroke="midnightblue" points="310.381,-29.8223 317.099,-21.6303 306.738,-23.8445 310.381,-29.8223"/>
</g>
<!-- Node19 -->
<g id="node44" class="node"><title>Node19</title>
<polygon fill="white" stroke="#bfbfbf" points="274.99,-58.5 274.99,-79.5 326.99,-79.5 326.99,-58.5 274.99,-58.5"/>
<text text-anchor="middle" x="300.99" y="-66.5" font-family="Helvetica,sans-Serif" font-size="10.00">ostream</text>
</g>
<!-- Node10&#45;&gt;Node19 -->
<g id="edge48" class="edge"><title>Node10&#45;&gt;Node19</title>
<path fill="none" stroke="midnightblue" d="M225.864,-116.362C239.741,-107.614 259.624,-95.0786 275.45,-85.1015"/>
<polygon fill="midnightblue" stroke="midnightblue" points="277.63,-87.8645 284.223,-79.5707 273.897,-81.943 277.63,-87.8645"/>
</g>
<!-- Node12 -->
<g id="node27" class="node"><title>Node12</title>
<a xlink:href="types_8h.html" target="_top" xlink:title="types.h">
<polygon fill="white" stroke="black" points="396.49,-0.5 396.49,-21.5 445.49,-21.5 445.49,-0.5 396.49,-0.5"/>
<text text-anchor="middle" x="420.99" y="-8.5" font-family="Helvetica,sans-Serif" font-size="10.00">types.h</text>
</a>
</g>
<!-- Node11&#45;&gt;Node12 -->
<g id="edge28" class="edge"><title>Node11&#45;&gt;Node12</title>
<path fill="none" stroke="midnightblue" d="M420.99,-58.3619C420.99,-50.9219 420.99,-40.7427 420.99,-31.7276"/>
<polygon fill="midnightblue" stroke="midnightblue" points="424.49,-31.5706 420.99,-21.5707 417.49,-31.5707 424.49,-31.5706"/>
</g>
<!-- Node13 -->
<g id="node29" class="node"><title>Node13</title>
<polygon fill="white" stroke="#bfbfbf" points="821.99,-0.5 821.99,-21.5 877.99,-21.5 877.99,-0.5 821.99,-0.5"/>
<text text-anchor="middle" x="849.99" y="-8.5" font-family="Helvetica,sans-Serif" font-size="10.00">algorithm</text>
</g>
<!-- Node11&#45;&gt;Node13 -->
<g id="edge30" class="edge"><title>Node11&#45;&gt;Node13</title>
<path fill="none" stroke="midnightblue" d="M461.182,-64.7272C529.386,-57.2935 672.069,-40.9496 791.99,-22 798.368,-20.9922 805.119,-19.8143 811.674,-18.6109"/>
<polygon fill="midnightblue" stroke="midnightblue" points="812.55,-22.0077 821.731,-16.7199 811.256,-15.1283 812.55,-22.0077"/>
</g>
<!-- Node11&#45;&gt;Node14 -->
<g id="edge32" class="edge"><title>Node11&#45;&gt;Node14</title>
<path fill="none" stroke="midnightblue" d="M386.039,-58.4966C352.622,-48.4541 302.304,-33.3326 267.459,-22.861"/>
<polygon fill="midnightblue" stroke="midnightblue" points="268.207,-19.4314 257.623,-19.9052 266.193,-26.1352 268.207,-19.4314"/>
</g>
<!-- Node15 -->
<g id="node33" class="node"><title>Node15</title>
<polygon fill="white" stroke="#bfbfbf" points="484.99,-0.5 484.99,-21.5 524.99,-21.5 524.99,-0.5 484.99,-0.5"/>
<text text-anchor="middle" x="504.99" y="-8.5" font-family="Helvetica,sans-Serif" font-size="10.00">limits</text>
</g>
<!-- Node11&#45;&gt;Node15 -->
<g id="edge34" class="edge"><title>Node11&#45;&gt;Node15</title>
<path fill="none" stroke="midnightblue" d="M436.397,-58.3619C448.948,-49.6955 466.882,-37.3126 481.265,-27.3819"/>
<polygon fill="midnightblue" stroke="midnightblue" points="483.441,-30.1327 489.681,-21.5707 479.463,-24.3725 483.441,-30.1327"/>
</g>
<!-- Node11&#45;&gt;Node16 -->
<g id="edge36" class="edge"><title>Node11&#45;&gt;Node16</title>
<path fill="none" stroke="midnightblue" d="M405.4,-58.3619C392.699,-49.6955 374.552,-37.3126 359.998,-27.3819"/>
<polygon fill="midnightblue" stroke="midnightblue" points="361.715,-24.316 351.482,-21.5707 357.769,-30.0982 361.715,-24.316"/>
</g>
<!-- Node17 -->
<g id="node37" class="node"><title>Node17</title>
<polygon fill="white" stroke="#bfbfbf" points="730.99,-0.5 730.99,-21.5 782.99,-21.5 782.99,-0.5 730.99,-0.5"/>
<text text-anchor="middle" x="756.99" y="-8.5" font-family="Helvetica,sans-Serif" font-size="10.00">sstream</text>
</g>
<!-- Node11&#45;&gt;Node17 -->
<g id="edge38" class="edge"><title>Node11&#45;&gt;Node17</title>
<path fill="none" stroke="midnightblue" d="M461.186,-62.0615C527.188,-50.6683 657.505,-28.1731 720.797,-17.2477"/>
<polygon fill="midnightblue" stroke="midnightblue" points="721.462,-20.6847 730.721,-15.5345 720.272,-13.7867 721.462,-20.6847"/>
</g>
<!-- Node18 -->
<g id="node39" class="node"><title>Node18</title>
<polygon fill="white" stroke="#bfbfbf" points="626.99,-0.5 626.99,-21.5 670.99,-21.5 670.99,-0.5 626.99,-0.5"/>
<text text-anchor="middle" x="648.99" y="-8.5" font-family="Helvetica,sans-Serif" font-size="10.00">cmath</text>
</g>
<!-- Node11&#45;&gt;Node18 -->
<g id="edge40" class="edge"><title>Node11&#45;&gt;Node18</title>
<path fill="none" stroke="midnightblue" d="M461.227,-58.7643C505.658,-47.4618 576.285,-29.4951 617.072,-19.1195"/>
<polygon fill="midnightblue" stroke="midnightblue" points="617.936,-22.5112 626.765,-16.6538 616.211,-15.7273 617.936,-22.5112"/>
</g>
<!-- Node20&#45;&gt;Node2 -->
<g id="edge54" class="edge"><title>Node20&#45;&gt;Node2</title>
<path fill="none" stroke="midnightblue" d="M490.666,-174.362C477.242,-165.614 458.007,-153.079 442.698,-143.101"/>
<polygon fill="midnightblue" stroke="midnightblue" points="444.5,-140.098 434.211,-137.571 440.678,-145.963 444.5,-140.098"/>
</g>
<!-- Node20&#45;&gt;Node4 -->
<g id="edge56" class="edge"><title>Node20&#45;&gt;Node4</title>
<path fill="none" stroke="midnightblue" d="M516.711,-174.362C524.182,-166.186 534.676,-154.702 543.459,-145.091"/>
<polygon fill="midnightblue" stroke="midnightblue" points="546.169,-147.314 550.331,-137.571 541.001,-142.592 546.169,-147.314"/>
</g>
<!-- Node20&#45;&gt;Node9 -->
<g id="edge58" class="edge"><title>Node20&#45;&gt;Node9</title>
<path fill="none" stroke="midnightblue" d="M504.422,-174.362C502.607,-166.84 500.115,-156.519 497.922,-147.431"/>
<polygon fill="midnightblue" stroke="midnightblue" points="501.291,-146.47 495.542,-137.571 494.486,-148.113 501.291,-146.47"/>
</g>
<!-- Node21&#45;&gt;Node5 -->
<g id="edge68" class="edge"><title>Node21&#45;&gt;Node5</title>
<path fill="none" stroke="midnightblue" d="M698.921,-116.497C672.193,-106.495 632.002,-91.4562 604.032,-80.9896"/>
<polygon fill="midnightblue" stroke="midnightblue" points="604.919,-77.5849 594.327,-77.3582 602.466,-84.1409 604.919,-77.5849"/>
</g>
<!-- Node21&#45;&gt;Node15 -->
<g id="edge66" class="edge"><title>Node21&#45;&gt;Node15</title>
<path fill="none" stroke="midnightblue" d="M708.692,-116.361C684.665,-102.496 641.063,-77.6995 602.99,-58 580.195,-46.2052 553.957,-33.6758 534.37,-24.522"/>
<polygon fill="midnightblue" stroke="midnightblue" points="535.604,-21.2359 525.061,-20.1914 532.651,-27.5827 535.604,-21.2359"/>
</g>
<!-- Node21&#45;&gt;Node18 -->
<g id="edge64" class="edge"><title>Node21&#45;&gt;Node18</title>
<path fill="none" stroke="midnightblue" d="M720.559,-116.066C712.38,-102.309 697.672,-78.0551 683.99,-58 677.522,-48.519 669.958,-38.267 663.52,-29.7646"/>
<polygon fill="midnightblue" stroke="midnightblue" points="666.165,-27.4621 657.311,-21.6433 660.604,-31.7134 666.165,-27.4621"/>
</g>
<!-- Node23&#45;&gt;Node4 -->
<g id="edge76" class="edge"><title>Node23&#45;&gt;Node4</title>
<path fill="none" stroke="midnightblue" d="M795.607,-177.139C743.478,-169.106 662.777,-155.362 593.99,-138 592.908,-137.727 591.809,-137.437 590.702,-137.136"/>
<polygon fill="midnightblue" stroke="midnightblue" points="591.304,-133.664 580.722,-134.185 589.319,-140.377 591.304,-133.664"/>
</g>
<!-- Node23&#45;&gt;Node5 -->
<g id="edge82" class="edge"><title>Node23&#45;&gt;Node5</title>
<path fill="none" stroke="midnightblue" d="M795.846,-177.332C740.605,-168.807 659.24,-154.102 631.99,-138 611.311,-125.781 594.117,-103.902 583.512,-88.051"/>
<polygon fill="midnightblue" stroke="midnightblue" points="586.395,-86.0637 578.053,-79.533 580.502,-89.8409 586.395,-86.0637"/>
</g>
<!-- Node23&#45;&gt;Node13 -->
<g id="edge80" class="edge"><title>Node23&#45;&gt;Node13</title>
<path fill="none" stroke="midnightblue" d="M849.99,-174.377C849.99,-146.293 849.99,-69.6735 849.99,-32.2027"/>
<polygon fill="midnightblue" stroke="midnightblue" points="853.49,-31.9277 849.99,-21.9277 846.49,-31.9278 853.49,-31.9277"/>
</g>
<!-- Node23&#45;&gt;Node17 -->
<g id="edge78" class="edge"><title>Node23&#45;&gt;Node17</title>
<path fill="none" stroke="midnightblue" d="M844.313,-174.377C829.108,-145.93 787.287,-67.6838 767.556,-30.7689"/>
<polygon fill="midnightblue" stroke="midnightblue" points="770.632,-29.0972 762.831,-21.9277 764.458,-32.3969 770.632,-29.0972"/>
</g>
<!-- Node24&#45;&gt;Node7 -->
<g id="edge88" class="edge"><title>Node24&#45;&gt;Node7</title>
<path fill="none" stroke="midnightblue" d="M70.239,-174.362C68.2938,-166.84 65.6244,-156.519 63.2741,-147.431"/>
<polygon fill="midnightblue" stroke="midnightblue" points="66.6165,-146.376 60.7241,-137.571 59.8395,-148.128 66.6165,-146.376"/>
</g>
<!-- Node24&#45;&gt;Node8 -->
<g id="edge86" class="edge"><title>Node24&#45;&gt;Node8</title>
<path fill="none" stroke="midnightblue" d="M80.8771,-174.362C86.8173,-166.35 95.1127,-155.161 102.149,-145.67"/>
<polygon fill="midnightblue" stroke="midnightblue" points="105.009,-147.688 108.153,-137.571 99.3862,-143.519 105.009,-147.688"/>
</g>
<!-- Node25&#45;&gt;Node4 -->
<g id="edge98" class="edge"><title>Node25&#45;&gt;Node4</title>
<path fill="none" stroke="midnightblue" d="M921.666,-175.249C918.734,-174.82 915.831,-174.402 912.99,-174 788.322,-156.36 756.677,-155.509 631.99,-138 618.49,-136.104 603.591,-133.854 590.865,-131.885"/>
<polygon fill="midnightblue" stroke="midnightblue" points="591.185,-128.392 580.766,-130.31 590.107,-135.309 591.185,-128.392"/>
</g>
<!-- Node25&#45;&gt;Node5 -->
<g id="edge92" class="edge"><title>Node25&#45;&gt;Node5</title>
<path fill="none" stroke="midnightblue" d="M921.657,-175.308C918.728,-174.864 915.827,-174.426 912.99,-174 802.846,-157.474 767.952,-180.472 664.99,-138 657.093,-134.742 618.69,-105.397 593.768,-86.0392"/>
<polygon fill="midnightblue" stroke="midnightblue" points="595.627,-83.051 585.587,-79.6678 591.326,-88.5737 595.627,-83.051"/>
</g>
<!-- Node25&#45;&gt;Node13 -->
<g id="edge94" class="edge"><title>Node25&#45;&gt;Node13</title>
<path fill="none" stroke="midnightblue" d="M982.931,-174.459C981.112,-160.267 976.416,-134.646 964.99,-116 941.893,-78.3068 901.384,-45.9275 875.129,-27.4518"/>
<polygon fill="midnightblue" stroke="midnightblue" points="877.04,-24.5179 866.818,-21.7316 873.071,-30.2842 877.04,-24.5179"/>
</g>
<!-- Node26 -->
<g id="node75" class="node"><title>Node26</title>
<polygon fill="white" stroke="#bfbfbf" points="905.49,-116.5 905.49,-137.5 956.49,-137.5 956.49,-116.5 905.49,-116.5"/>
<text text-anchor="middle" x="930.99" y="-124.5" font-family="Helvetica,sans-Serif" font-size="10.00">numeric</text>
</g>
<!-- Node25&#45;&gt;Node26 -->
<g id="edge96" class="edge"><title>Node25&#45;&gt;Node26</title>
<path fill="none" stroke="midnightblue" d="M974.269,-174.362C966.798,-166.186 956.305,-154.702 947.521,-145.091"/>
<polygon fill="midnightblue" stroke="midnightblue" points="949.979,-142.592 940.65,-137.571 944.812,-147.314 949.979,-142.592"/>
</g>
<!-- Node28 -->
<g id="node80" class="node"><title>Node28</title>
<polygon fill="white" stroke="#bfbfbf" points="1063.49,-174.5 1063.49,-195.5 1152.49,-195.5 1152.49,-174.5 1063.49,-174.5"/>
<text text-anchor="middle" x="1107.99" y="-182.5" font-family="Helvetica,sans-Serif" font-size="10.00">easylogging++.h</text>
</g>
<!-- Node27&#45;&gt;Node28 -->
<g id="edge102" class="edge"><title>Node27&#45;&gt;Node28</title>
<path fill="none" stroke="midnightblue" d="M1160.25,-232.362C1151.05,-224.023 1138.05,-212.242 1127.32,-202.516"/>
<polygon fill="midnightblue" stroke="midnightblue" points="1129.41,-199.692 1119.65,-195.571 1124.71,-204.879 1129.41,-199.692"/>
</g>
<!-- Node30 -->
<g id="node84" class="node"><title>Node30</title>
<polygon fill="white" stroke="#bfbfbf" points="1169.49,-174.5 1169.49,-195.5 1260.49,-195.5 1260.49,-174.5 1169.49,-174.5"/>
<text text-anchor="middle" x="1214.99" y="-182.5" font-family="Helvetica,sans-Serif" font-size="10.00">cereal/cereal.hpp</text>
</g>
<!-- Node29&#45;&gt;Node30 -->
<g id="edge106" class="edge"><title>Node29&#45;&gt;Node30</title>
<path fill="none" stroke="midnightblue" d="M1387.78,-232.497C1352.79,-222.877 1300.84,-208.598 1263.04,-198.209"/>
<polygon fill="midnightblue" stroke="midnightblue" points="1263.84,-194.799 1253.27,-195.523 1261.99,-201.548 1263.84,-194.799"/>
</g>
<!-- Node31 -->
<g id="node86" class="node"><title>Node31</title>
<polygon fill="white" stroke="#bfbfbf" points="1277.99,-174.5 1277.99,-195.5 1421.99,-195.5 1421.99,-174.5 1277.99,-174.5"/>
<text text-anchor="middle" x="1349.99" y="-182.5" font-family="Helvetica,sans-Serif" font-size="10.00">cereal/types/polymorphic.hpp</text>
</g>
<!-- Node29&#45;&gt;Node31 -->
<g id="edge108" class="edge"><title>Node29&#45;&gt;Node31</title>
<path fill="none" stroke="midnightblue" d="M1412.05,-232.362C1400.8,-223.777 1384.77,-211.546 1371.83,-201.664"/>
<polygon fill="midnightblue" stroke="midnightblue" points="1373.91,-198.855 1363.84,-195.571 1369.67,-204.42 1373.91,-198.855"/>
</g>
<!-- Node32 -->
<g id="node88" class="node"><title>Node32</title>
<polygon fill="white" stroke="#bfbfbf" points="1439.49,-174.5 1439.49,-195.5 1566.49,-195.5 1566.49,-174.5 1439.49,-174.5"/>
<text text-anchor="middle" x="1502.99" y="-182.5" font-family="Helvetica,sans-Serif" font-size="10.00">cereal/types/memory.hpp</text>
</g>
<!-- Node29&#45;&gt;Node32 -->
<g id="edge110" class="edge"><title>Node29&#45;&gt;Node32</title>
<path fill="none" stroke="midnightblue" d="M1440.11,-232.362C1451.51,-223.777 1467.75,-211.546 1480.87,-201.664"/>
<polygon fill="midnightblue" stroke="midnightblue" points="1483.08,-204.383 1488.96,-195.571 1478.86,-198.792 1483.08,-204.383"/>
</g>
<!-- Node33 -->
<g id="node90" class="node"><title>Node33</title>
<polygon fill="white" stroke="#bfbfbf" points="1583.99,-174.5 1583.99,-195.5 1699.99,-195.5 1699.99,-174.5 1583.99,-174.5"/>
<text text-anchor="middle" x="1641.99" y="-182.5" font-family="Helvetica,sans-Serif" font-size="10.00">cereal/types/string.hpp</text>
</g>
<!-- Node29&#45;&gt;Node33 -->
<g id="edge112" class="edge"><title>Node29&#45;&gt;Node33</title>
<path fill="none" stroke="midnightblue" d="M1465.11,-232.497C1500.93,-222.877 1554.11,-208.598 1592.8,-198.209"/>
<polygon fill="midnightblue" stroke="midnightblue" points="1594.05,-201.497 1602.8,-195.523 1592.24,-194.736 1594.05,-201.497"/>
</g>
<!-- Node34 -->
<g id="node92" class="node"><title>Node34</title>
<polygon fill="white" stroke="#bfbfbf" points="1717.49,-174.5 1717.49,-195.5 1836.49,-195.5 1836.49,-174.5 1717.49,-174.5"/>
<text text-anchor="middle" x="1776.99" y="-182.5" font-family="Helvetica,sans-Serif" font-size="10.00">cereal/types/vector.hpp</text>
</g>
<!-- Node29&#45;&gt;Node34 -->
<g id="edge114" class="edge"><title>Node29&#45;&gt;Node34</title>
<path fill="none" stroke="midnightblue" d="M1482.01,-233.503C1485.05,-232.993 1488.06,-232.49 1490.99,-232 1564.73,-219.701 1649.22,-205.846 1707.13,-196.385"/>
<polygon fill="midnightblue" stroke="midnightblue" points="1707.96,-199.795 1717.27,-194.729 1706.84,-192.887 1707.96,-199.795"/>
</g>
<!-- Node35 -->
<g id="node94" class="node"><title>Node35</title>
<polygon fill="white" stroke="#bfbfbf" points="1853.99,-174.5 1853.99,-195.5 1957.99,-195.5 1957.99,-174.5 1853.99,-174.5"/>
<text text-anchor="middle" x="1905.99" y="-182.5" font-family="Helvetica,sans-Serif" font-size="10.00">cereal/types/list.hpp</text>
</g>
<!-- Node29&#45;&gt;Node35 -->
<g id="edge116" class="edge"><title>Node29&#45;&gt;Node35</title>
<path fill="none" stroke="midnightblue" d="M1482.33,-233.231C1485.25,-232.797 1488.15,-232.384 1490.99,-232 1644.49,-211.229 1686.67,-217.763 1843.77,-196.086"/>
<polygon fill="midnightblue" stroke="midnightblue" points="1844.37,-199.536 1853.79,-194.686 1843.4,-192.603 1844.37,-199.536"/>
</g>
<!-- Node36 -->
<g id="node96" class="node"><title>Node36</title>
<polygon fill="white" stroke="#bfbfbf" points="1975.49,-174.5 1975.49,-195.5 2106.49,-195.5 2106.49,-174.5 1975.49,-174.5"/>
<text text-anchor="middle" x="2040.99" y="-182.5" font-family="Helvetica,sans-Serif" font-size="10.00">cereal/archives/binary.hpp</text>
</g>
<!-- Node29&#45;&gt;Node36 -->
<g id="edge118" class="edge"><title>Node29&#45;&gt;Node36</title>
<path fill="none" stroke="midnightblue" d="M1482.31,-233.142C1485.24,-232.731 1488.15,-232.347 1490.99,-232 1698.29,-206.674 1754.41,-219.205 1965.1,-196.148"/>
<polygon fill="midnightblue" stroke="midnightblue" points="1965.7,-199.603 1975.25,-195.023 1964.93,-192.646 1965.7,-199.603"/>
</g>
<!-- Node37 -->
<g id="node98" class="node"><title>Node37</title>
<polygon fill="white" stroke="#bfbfbf" points="2123.99,-174.5 2123.99,-195.5 2239.99,-195.5 2239.99,-174.5 2123.99,-174.5"/>
<text text-anchor="middle" x="2181.99" y="-182.5" font-family="Helvetica,sans-Serif" font-size="10.00">cereal/types/bitset.hpp</text>
</g>
<!-- Node29&#45;&gt;Node37 -->
<g id="edge120" class="edge"><title>Node29&#45;&gt;Node37</title>
<path fill="none" stroke="midnightblue" d="M1482.31,-233.08C1485.24,-232.685 1488.15,-232.322 1490.99,-232 1763.65,-201.158 1837.1,-225.924 2113.59,-196.047"/>
<polygon fill="midnightblue" stroke="midnightblue" points="2114.38,-199.482 2123.94,-194.914 2113.62,-192.524 2114.38,-199.482"/>
</g>
<!-- Node38 -->
<g id="node100" class="node"><title>Node38</title>
<polygon fill="white" stroke="#bfbfbf" points="2257.49,-174.5 2257.49,-195.5 2314.49,-195.5 2314.49,-174.5 2257.49,-174.5"/>
<text text-anchor="middle" x="2285.99" y="-182.5" font-family="Helvetica,sans-Serif" font-size="10.00">TBuffer.h</text>
</g>
<!-- Node29&#45;&gt;Node38 -->
<g id="edge122" class="edge"><title>Node29&#45;&gt;Node38</title>
<path fill="none" stroke="midnightblue" d="M1482.3,-233.044C1485.24,-232.659 1488.15,-232.307 1490.99,-232 1823.04,-196.15 1914.7,-251.369 2247.55,-195.895"/>
<polygon fill="midnightblue" stroke="midnightblue" points="2248.19,-199.336 2257.47,-194.221 2247.03,-192.434 2248.19,-199.336"/>
</g>
<!-- Node39 -->
<g id="node102" class="node"><title>Node39</title>
<polygon fill="white" stroke="#bfbfbf" points="2331.99,-174.5 2331.99,-195.5 2391.99,-195.5 2391.99,-174.5 2331.99,-174.5"/>
<text text-anchor="middle" x="2361.99" y="-182.5" font-family="Helvetica,sans-Serif" font-size="10.00">streambuf</text>
</g>
<!-- Node29&#45;&gt;Node39 -->
<g id="edge124" class="edge"><title>Node29&#45;&gt;Node39</title>
<path fill="none" stroke="midnightblue" d="M1482.3,-233.03C1485.24,-232.648 1488.14,-232.301 1490.99,-232 1855.73,-193.397 1955.74,-253.525 2321.83,-195.835"/>
<polygon fill="midnightblue" stroke="midnightblue" points="2322.59,-199.259 2331.91,-194.228 2321.48,-192.346 2322.59,-199.259"/>
</g>
</g>
</svg>
