<?xml version="1.0" encoding="UTF-8" standalone="no"?>
<!DOCTYPE svg PUBLIC "-//W3C//DTD SVG 1.1//EN"
 "http://www.w3.org/Graphics/SVG/1.1/DTD/svg11.dtd">
<!-- Generated by graphviz version 2.26.3 (20100126.1600)
 -->
<!-- Title: Graphical Class Hierarchy Pages: 1 -->
<svg width="412pt" height="525pt"
 viewBox="0.00 0.00 412.00 525.00" xmlns="http://www.w3.org/2000/svg" xmlns:xlink="http://www.w3.org/1999/xlink">
<g id="graph1" class="graph" transform="scale(1 1) rotate(0) translate(4 521)">
<title>Graphical Class Hierarchy</title>
<polygon fill="white" stroke="white" points="-4,5 -4,-521 409,-521 409,5 -4,5"/>
<!-- Node0 -->
<g id="node1" class="node"><title>Node0</title>
<a xlink:href="classant_1_1analysis_1_1utils_1_1_uncertainty_model.html" target="_top" xlink:title="Virtual base class for different Uncertainty Models for fitter. Implement at least the GetSigmas() me...">
<polygon fill="white" stroke="black" points="0.5,-212 0.5,-246 99.5,-246 99.5,-212 0.5,-212"/>
<text text-anchor="start" x="8.5" y="-233" font-family="Helvetica,sans-Serif" font-size="10.00">ant::analysis::utils</text>
<text text-anchor="middle" x="50" y="-220" font-family="Helvetica,sans-Serif" font-size="10.00">::UncertaintyModel</text>
</a>
</g>
<!-- Node1 -->
<g id="node3" class="node"><title>Node1</title>
<a xlink:href="structant_1_1analysis_1_1utils_1_1_uncertainty_models_1_1_constant.html" target="_top" xlink:title="Constant/static kin fitter uncertainty model. has a fixed value for {cb,taps}{photon,proton}{E,theta,phi}. ">
<polygon fill="white" stroke="black" points="138,-436.5 138,-483.5 248,-483.5 248,-436.5 138,-436.5"/>
<text text-anchor="start" x="146" y="-470.5" font-family="Helvetica,sans-Serif" font-size="10.00">ant::analysis::utils</text>
<text text-anchor="start" x="146" y="-457.5" font-family="Helvetica,sans-Serif" font-size="10.00">::UncertaintyModels::</text>
<text text-anchor="middle" x="193" y="-444.5" font-family="Helvetica,sans-Serif" font-size="10.00">Constant</text>
</a>
</g>
<!-- Node0&#45;&gt;Node1 -->
<g id="edge2" class="edge"><title>Node0&#45;&gt;Node1</title>
<path fill="none" stroke="midnightblue" d="M55.9264,-255.894C66.137,-296.962 90.4706,-375.907 136,-427 139.043,-430.415 142.527,-433.568 146.239,-436.458"/>
<polygon fill="midnightblue" stroke="midnightblue" points="59.3077,-254.985 53.5763,-246.074 52.4999,-256.614 59.3077,-254.985"/>
</g>
<!-- Node4 -->
<g id="node9" class="node"><title>Node4</title>
<a xlink:href="structant_1_1analysis_1_1utils_1_1_uncertainty_models_1_1_fitter_sergey.html" target="_top" xlink:title="Uncertainties from Sergey&#39;s fitter. ">
<polygon fill="white" stroke="black" points="138,-370.5 138,-417.5 248,-417.5 248,-370.5 138,-370.5"/>
<text text-anchor="start" x="146" y="-404.5" font-family="Helvetica,sans-Serif" font-size="10.00">ant::analysis::utils</text>
<text text-anchor="start" x="146" y="-391.5" font-family="Helvetica,sans-Serif" font-size="10.00">::UncertaintyModels::</text>
<text text-anchor="middle" x="193" y="-378.5" font-family="Helvetica,sans-Serif" font-size="10.00">FitterSergey</text>
</a>
</g>
<!-- Node0&#45;&gt;Node4 -->
<g id="edge8" class="edge"><title>Node0&#45;&gt;Node4</title>
<path fill="none" stroke="midnightblue" d="M62.3813,-255.243C76.8981,-283.909 103.198,-329.881 136,-361 139.484,-364.305 143.359,-367.414 147.403,-370.303"/>
<polygon fill="midnightblue" stroke="midnightblue" points="65.4926,-253.639 57.9176,-246.231 59.22,-256.746 65.4926,-253.639"/>
</g>
<!-- Node5 -->
<g id="node11" class="node"><title>Node5</title>
<a xlink:href="structant_1_1analysis_1_1utils_1_1_uncertainty_models_1_1_interpolated.html" target="_top" xlink:title="Uncertainties with interpolated surfaces in (E,theta) plane, determined with iterative procedure...">
<polygon fill="white" stroke="black" points="138,-304.5 138,-351.5 248,-351.5 248,-304.5 138,-304.5"/>
<text text-anchor="start" x="146" y="-338.5" font-family="Helvetica,sans-Serif" font-size="10.00">ant::analysis::utils</text>
<text text-anchor="start" x="146" y="-325.5" font-family="Helvetica,sans-Serif" font-size="10.00">::UncertaintyModels::</text>
<text text-anchor="middle" x="193" y="-312.5" font-family="Helvetica,sans-Serif" font-size="10.00">Interpolated</text>
</a>
</g>
<!-- Node0&#45;&gt;Node5 -->
<g id="edge10" class="edge"><title>Node0&#45;&gt;Node5</title>
<path fill="none" stroke="midnightblue" d="M78.7482,-252.562C95.1391,-265.61 116.286,-281.809 136,-295 140.752,-298.179 145.822,-301.376 150.904,-304.461"/>
<polygon fill="midnightblue" stroke="midnightblue" points="80.6331,-249.587 70.6431,-246.058 76.2521,-255.046 80.6331,-249.587"/>
</g>
<!-- Node6 -->
<g id="node13" class="node"><title>Node6</title>
<a xlink:href="classant_1_1analysis_1_1utils_1_1_uncertainty_models_1_1_m_c_extracted.html" target="_top" xlink:title="Kin fitter uncertainties, uses histograms. Energy dependent values for each detector element...">
<polygon fill="white" stroke="black" points="138,-238.5 138,-285.5 248,-285.5 248,-238.5 138,-238.5"/>
<text text-anchor="start" x="146" y="-272.5" font-family="Helvetica,sans-Serif" font-size="10.00">ant::analysis::utils</text>
<text text-anchor="start" x="146" y="-259.5" font-family="Helvetica,sans-Serif" font-size="10.00">::UncertaintyModels::</text>
<text text-anchor="middle" x="193" y="-246.5" font-family="Helvetica,sans-Serif" font-size="10.00">MCExtracted</text>
</a>
</g>
<!-- Node0&#45;&gt;Node6 -->
<g id="edge12" class="edge"><title>Node0&#45;&gt;Node6</title>
<path fill="none" stroke="midnightblue" d="M109.554,-242.743C118.844,-244.887 128.411,-247.095 137.604,-249.216"/>
<polygon fill="midnightblue" stroke="midnightblue" points="110.144,-239.287 99.6131,-240.449 108.57,-246.108 110.144,-239.287"/>
</g>
<!-- Node7 -->
<g id="node15" class="node"><title>Node7</title>
<a xlink:href="structant_1_1analysis_1_1utils_1_1_uncertainty_models_1_1_m_c_smearing_adlarson.html" target="_top" xlink:title="Uncertainties from Patrik Adlarson for MC Smearing. ">
<polygon fill="white" stroke="black" points="137,-172.5 137,-219.5 249,-219.5 249,-172.5 137,-172.5"/>
<text text-anchor="start" x="145" y="-206.5" font-family="Helvetica,sans-Serif" font-size="10.00">ant::analysis::utils</text>
<text text-anchor="start" x="145" y="-193.5" font-family="Helvetica,sans-Serif" font-size="10.00">::UncertaintyModels::</text>
<text text-anchor="middle" x="193" y="-180.5" font-family="Helvetica,sans-Serif" font-size="10.00">MCSmearingAdlarson</text>
</a>
</g>
<!-- Node0&#45;&gt;Node7 -->
<g id="edge14" class="edge"><title>Node0&#45;&gt;Node7</title>
<path fill="none" stroke="midnightblue" d="M109.578,-215.251C118.528,-213.186 127.734,-211.061 136.614,-209.012"/>
<polygon fill="midnightblue" stroke="midnightblue" points="108.57,-211.892 99.6131,-217.551 110.144,-218.713 108.57,-211.892"/>
</g>
<!-- Node8 -->
<g id="node17" class="node"><title>Node8</title>
<a xlink:href="structant_1_1analysis_1_1utils_1_1_uncertainty_models_1_1_measured_proton.html" target="_top" xlink:title="ant::analysis::utils\l::UncertaintyModels::\lMeasuredProton">
<polygon fill="white" stroke="black" points="138,-106.5 138,-153.5 248,-153.5 248,-106.5 138,-106.5"/>
<text text-anchor="start" x="146" y="-140.5" font-family="Helvetica,sans-Serif" font-size="10.00">ant::analysis::utils</text>
<text text-anchor="start" x="146" y="-127.5" font-family="Helvetica,sans-Serif" font-size="10.00">::UncertaintyModels::</text>
<text text-anchor="middle" x="193" y="-114.5" font-family="Helvetica,sans-Serif" font-size="10.00">MeasuredProton</text>
</a>
</g>
<!-- Node0&#45;&gt;Node8 -->
<g id="edge16" class="edge"><title>Node0&#45;&gt;Node8</title>
<path fill="none" stroke="midnightblue" d="M78.7482,-205.438C95.1391,-192.39 116.286,-176.191 136,-163 140.752,-159.821 145.822,-156.624 150.904,-153.539"/>
<polygon fill="midnightblue" stroke="midnightblue" points="76.2521,-202.954 70.6431,-211.942 80.6331,-208.413 76.2521,-202.954"/>
</g>
<!-- Node9 -->
<g id="node19" class="node"><title>Node9</title>
<a xlink:href="structant_1_1analysis_1_1utils_1_1_uncertainty_models_1_1_optimized.html" target="_top" xlink:title="Optimized / adjusted to data uncertainty model: ">
<polygon fill="white" stroke="black" points="138,-40.5 138,-87.5 248,-87.5 248,-40.5 138,-40.5"/>
<text text-anchor="start" x="146" y="-74.5" font-family="Helvetica,sans-Serif" font-size="10.00">ant::analysis::utils</text>
<text text-anchor="start" x="146" y="-61.5" font-family="Helvetica,sans-Serif" font-size="10.00">::UncertaintyModels::</text>
<text text-anchor="middle" x="193" y="-48.5" font-family="Helvetica,sans-Serif" font-size="10.00">Optimized</text>
</a>
</g>
<!-- Node0&#45;&gt;Node9 -->
<g id="edge18" class="edge"><title>Node0&#45;&gt;Node9</title>
<path fill="none" stroke="midnightblue" d="M62.3813,-202.757C76.8981,-174.091 103.198,-128.119 136,-97 139.484,-93.6946 143.359,-90.5856 147.403,-87.6974"/>
<polygon fill="midnightblue" stroke="midnightblue" points="59.22,-201.254 57.9176,-211.769 65.4926,-204.361 59.22,-201.254"/>
</g>
<!-- Node11 -->
<g id="node23" class="node"><title>Node11</title>
<a xlink:href="struct_test_uncertainty_model.html" target="_top" xlink:title="TestUncertaintyModel">
<polygon fill="white" stroke="black" points="136.5,-0.5 136.5,-21.5 249.5,-21.5 249.5,-0.5 136.5,-0.5"/>
<text text-anchor="middle" x="193" y="-8.5" font-family="Helvetica,sans-Serif" font-size="10.00">TestUncertaintyModel</text>
</a>
</g>
<!-- Node0&#45;&gt;Node11 -->
<g id="edge22" class="edge"><title>Node0&#45;&gt;Node11</title>
<path fill="none" stroke="midnightblue" d="M54.6118,-201.91C63.1916,-159.63 85.532,-77.9449 136,-31 140.147,-27.1429 145.08,-24.0231 150.284,-21.5012"/>
<polygon fill="midnightblue" stroke="midnightblue" points="51.1681,-201.284 52.7182,-211.765 58.0423,-202.605 51.1681,-201.284"/>
</g>
<!-- Node2 -->
<g id="node5" class="node"><title>Node2</title>
<a xlink:href="structant_1_1analysis_1_1utils_1_1_uncertainty_models_1_1_constant_relative_e.html" target="_top" xlink:title="Simple kin fitter uncertainty model. has a fixed value for {cb,taps}{photon,proton}{theta,phi}, Energies are relative values and get multipied with the particle energy on GetSigmas() ">
<polygon fill="white" stroke="black" points="290,-469.5 290,-516.5 400,-516.5 400,-469.5 290,-469.5"/>
<text text-anchor="start" x="298" y="-503.5" font-family="Helvetica,sans-Serif" font-size="10.00">ant::analysis::utils</text>
<text text-anchor="start" x="298" y="-490.5" font-family="Helvetica,sans-Serif" font-size="10.00">::UncertaintyModels::</text>
<text text-anchor="middle" x="345" y="-477.5" font-family="Helvetica,sans-Serif" font-size="10.00">ConstantRelativeE</text>
</a>
</g>
<!-- Node1&#45;&gt;Node2 -->
<g id="edge4" class="edge"><title>Node1&#45;&gt;Node2</title>
<path fill="none" stroke="midnightblue" d="M258.314,-474.18C268.871,-476.472 279.709,-478.825 289.99,-481.057"/>
<polygon fill="midnightblue" stroke="midnightblue" points="258.82,-470.708 248.305,-472.007 257.335,-477.549 258.82,-470.708"/>
</g>
<!-- Node3 -->
<g id="node7" class="node"><title>Node3</title>
<a xlink:href="structant_1_1analysis_1_1utils_1_1_uncertainty_models_1_1_constant_relative_epow.html" target="_top" xlink:title="ant::analysis::utils\l::UncertaintyModels::\lConstantRelativeEpow">
<polygon fill="white" stroke="black" points="286.5,-403.5 286.5,-450.5 403.5,-450.5 403.5,-403.5 286.5,-403.5"/>
<text text-anchor="start" x="294.5" y="-437.5" font-family="Helvetica,sans-Serif" font-size="10.00">ant::analysis::utils</text>
<text text-anchor="start" x="294.5" y="-424.5" font-family="Helvetica,sans-Serif" font-size="10.00">::UncertaintyModels::</text>
<text text-anchor="middle" x="345" y="-411.5" font-family="Helvetica,sans-Serif" font-size="10.00">ConstantRelativeEpow</text>
</a>
</g>
<!-- Node1&#45;&gt;Node3 -->
<g id="edge6" class="edge"><title>Node1&#45;&gt;Node3</title>
<path fill="none" stroke="midnightblue" d="M258.322,-445.818C267.658,-443.791 277.212,-441.717 286.408,-439.721"/>
<polygon fill="midnightblue" stroke="midnightblue" points="257.335,-442.451 248.305,-447.993 258.82,-449.292 257.335,-442.451"/>
</g>
<!-- Node10 -->
<g id="node21" class="node"><title>Node10</title>
<a xlink:href="structant_1_1analysis_1_1utils_1_1_uncertainty_models_1_1_optimized___oli1.html" target="_top" xlink:title="Values for the optimized model, obtainded from KinFitPi0 on data. ">
<polygon fill="white" stroke="black" points="290,-40.5 290,-87.5 400,-87.5 400,-40.5 290,-40.5"/>
<text text-anchor="start" x="298" y="-74.5" font-family="Helvetica,sans-Serif" font-size="10.00">ant::analysis::utils</text>
<text text-anchor="start" x="298" y="-61.5" font-family="Helvetica,sans-Serif" font-size="10.00">::UncertaintyModels::</text>
<text text-anchor="middle" x="345" y="-48.5" font-family="Helvetica,sans-Serif" font-size="10.00">Optimized_Oli1</text>
</a>
</g>
<!-- Node9&#45;&gt;Node10 -->
<g id="edge20" class="edge"><title>Node9&#45;&gt;Node10</title>
<path fill="none" stroke="midnightblue" d="M258.314,-64C268.871,-64 279.709,-64 289.99,-64"/>
<polygon fill="midnightblue" stroke="midnightblue" points="258.306,-60.5001 248.305,-64 258.305,-67.5001 258.306,-60.5001"/>
</g>
</g>
</svg>
