<?xml version="1.0" encoding="UTF-8" standalone="no"?>
<!DOCTYPE svg PUBLIC "-//W3C//DTD SVG 1.1//EN"
 "http://www.w3.org/Graphics/SVG/1.1/DTD/svg11.dtd">
<!-- Generated by graphviz version 2.26.3 (20100126.1600)
 -->
<!-- Title: Graphical Class Hierarchy Pages: 1 -->
<svg width="288pt" height="42pt"
 viewBox="0.00 0.00 288.00 42.00" xmlns="http://www.w3.org/2000/svg" xmlns:xlink="http://www.w3.org/1999/xlink">
<g id="graph1" class="graph" transform="scale(1 1) rotate(0) translate(4 38)">
<title>Graphical Class Hierarchy</title>
<polygon fill="white" stroke="white" points="-4,5 -4,-38 285,-38 285,5 -4,5"/>
<!-- Node0 -->
<g id="node1" class="node"><title>Node0</title>
<a xlink:href="structant_1_1_wrap_t_tree_1_1_branch__t.html" target="_top" xlink:title="ant::WrapTTree::Branch\l_t\&lt; T \&gt;">
<polygon fill="white" stroke="black" points="0,-0 0,-34 122,-34 122,-0 0,-0"/>
<text text-anchor="start" x="8" y="-21" font-family="Helvetica,sans-Serif" font-size="10.00">ant::WrapTTree::Branch</text>
<text text-anchor="middle" x="61" y="-8" font-family="Helvetica,sans-Serif" font-size="10.00">_t&lt; T &gt;</text>
</a>
</g>
<!-- Node1 -->
<g id="node3" class="node"><title>Node1</title>
<a xlink:href="structant_1_1_wrap_t_tree_1_1_branch___opt__t.html" target="_top" xlink:title="ant::WrapTTree::Branch\l_Opt_t\&lt; T \&gt;">
<polygon fill="white" stroke="black" points="158,-0 158,-34 280,-34 280,-0 158,-0"/>
<text text-anchor="start" x="166" y="-21" font-family="Helvetica,sans-Serif" font-size="10.00">ant::WrapTTree::Branch</text>
<text text-anchor="middle" x="219" y="-8" font-family="Helvetica,sans-Serif" font-size="10.00">_Opt_t&lt; T &gt;</text>
</a>
</g>
<!-- Node0&#45;&gt;Node1 -->
<g id="edge2" class="edge"><title>Node0&#45;&gt;Node1</title>
<path fill="none" stroke="midnightblue" d="M132.366,-17C140.863,-17 149.478,-17 157.815,-17"/>
<polygon fill="midnightblue" stroke="midnightblue" points="132.087,-13.5001 122.087,-17 132.087,-20.5001 132.087,-13.5001"/>
</g>
</g>
</svg>
