<?xml version="1.0" encoding="UTF-8" standalone="no"?>
<!DOCTYPE svg PUBLIC "-//W3C//DTD SVG 1.1//EN"
 "http://www.w3.org/Graphics/SVG/1.1/DTD/svg11.dtd">
<!-- Generated by graphviz version 2.26.3 (20100126.1600)
 -->
<!-- Title: Graphical Class Hierarchy Pages: 1 -->
<svg width="328pt" height="56pt"
 viewBox="0.00 0.00 328.00 56.00" xmlns="http://www.w3.org/2000/svg" xmlns:xlink="http://www.w3.org/1999/xlink">
<g id="graph1" class="graph" transform="scale(1 1) rotate(0) translate(4 52)">
<title>Graphical Class Hierarchy</title>
<polygon fill="white" stroke="white" points="-4,5 -4,-52 325,-52 325,5 -4,5"/>
<!-- Node0 -->
<g id="node1" class="node"><title>Node0</title>
<a xlink:href="structant_1_1std__ext_1_1shared__ptr__container_1_1iterator__list__base.html" target="_top" xlink:title="ant::std_ext::shared\l_ptr_container\&lt; T, Container\l \&gt;::iterator_list_base">
<polygon fill="white" stroke="black" points="0.5,-0.5 0.5,-47.5 141.5,-47.5 141.5,-0.5 0.5,-0.5"/>
<text text-anchor="start" x="8.5" y="-34.5" font-family="Helvetica,sans-Serif" font-size="10.00">ant::std_ext::shared</text>
<text text-anchor="start" x="8.5" y="-21.5" font-family="Helvetica,sans-Serif" font-size="10.00">_ptr_container&lt; T, Container</text>
<text text-anchor="middle" x="71" y="-8.5" font-family="Helvetica,sans-Serif" font-size="10.00"> &gt;::iterator_list_base</text>
</a>
</g>
<!-- Node1 -->
<g id="node3" class="node"><title>Node1</title>
<a xlink:href="structant_1_1std__ext_1_1shared__ptr__container_1_1iterator__list.html" target="_top" xlink:title="ant::std_ext::shared\l_ptr_container\&lt; T, Container\l \&gt;::iterator_list\&lt; filter_t \&gt;">
<polygon fill="white" stroke="black" points="178.5,-0.5 178.5,-47.5 319.5,-47.5 319.5,-0.5 178.5,-0.5"/>
<text text-anchor="start" x="186.5" y="-34.5" font-family="Helvetica,sans-Serif" font-size="10.00">ant::std_ext::shared</text>
<text text-anchor="start" x="186.5" y="-21.5" font-family="Helvetica,sans-Serif" font-size="10.00">_ptr_container&lt; T, Container</text>
<text text-anchor="middle" x="249" y="-8.5" font-family="Helvetica,sans-Serif" font-size="10.00"> &gt;::iterator_list&lt; filter_t &gt;</text>
</a>
</g>
<!-- Node0&#45;&gt;Node1 -->
<g id="edge2" class="edge"><title>Node0&#45;&gt;Node1</title>
<path fill="none" stroke="midnightblue" d="M151.646,-24C160.599,-24 169.666,-24 178.479,-24"/>
<polygon fill="midnightblue" stroke="midnightblue" points="151.606,-20.5001 141.606,-24 151.606,-27.5001 151.606,-20.5001"/>
</g>
</g>
</svg>
