<?xml version="1.0" encoding="UTF-8" standalone="no"?>
<!DOCTYPE svg PUBLIC "-//W3C//DTD SVG 1.1//EN"
 "http://www.w3.org/Graphics/SVG/1.1/DTD/svg11.dtd">
<!-- Generated by graphviz version 2.26.3 (20100126.1600)
 -->
<!-- Title: Graphical Class Hierarchy Pages: 1 -->
<svg width="374pt" height="70pt"
 viewBox="0.00 0.00 374.00 70.00" xmlns="http://www.w3.org/2000/svg" xmlns:xlink="http://www.w3.org/1999/xlink">
<g id="graph1" class="graph" transform="scale(1 1) rotate(0) translate(4 66)">
<title>Graphical Class Hierarchy</title>
<polygon fill="white" stroke="white" points="-4,5 -4,-66 371,-66 371,5 -4,5"/>
<!-- Node414 -->
<g id="node1" class="node"><title>Node414</title>
<polygon fill="white" stroke="#bfbfbf" points="0.5,-20.5 0.5,-41.5 45.5,-41.5 45.5,-20.5 0.5,-20.5"/>
<text text-anchor="middle" x="23" y="-28.5" font-family="Helvetica,sans-Serif" font-size="10.00">Plotter</text>
</g>
<!-- Node0 -->
<g id="node3" class="node"><title>Node0</title>
<a xlink:href="struct_etap_dalitz__plot.html" target="_top" xlink:title="EtapDalitz_plot\&lt; RefHist_t \&gt;">
<polygon fill="white" stroke="black" points="82.5,-40.5 82.5,-61.5 225.5,-61.5 225.5,-40.5 82.5,-40.5"/>
<text text-anchor="middle" x="154" y="-48.5" font-family="Helvetica,sans-Serif" font-size="10.00">EtapDalitz_plot&lt; RefHist_t &gt;</text>
</a>
</g>
<!-- Node414&#45;&gt;Node0 -->
<g id="edge2" class="edge"><title>Node414&#45;&gt;Node0</title>
<path fill="none" stroke="midnightblue" d="M55.5429,-35.9684C64.5756,-37.3474 74.7392,-38.8991 85.0174,-40.4683"/>
<polygon fill="midnightblue" stroke="midnightblue" points="55.9334,-32.4875 45.5197,-34.4381 54.8769,-39.4073 55.9334,-32.4875"/>
</g>
<!-- Node417 -->
<g id="node7" class="node"><title>Node417</title>
<a xlink:href="struct_etap_dalitz__plot.html" target="_top" xlink:title="EtapDalitz_plot\&lt; SigHist_t \&gt;">
<polygon fill="white" stroke="black" points="83,-0.5 83,-21.5 225,-21.5 225,-0.5 83,-0.5"/>
<text text-anchor="middle" x="154" y="-8.5" font-family="Helvetica,sans-Serif" font-size="10.00">EtapDalitz_plot&lt; SigHist_t &gt;</text>
</a>
</g>
<!-- Node414&#45;&gt;Node417 -->
<g id="edge6" class="edge"><title>Node414&#45;&gt;Node417</title>
<path fill="none" stroke="midnightblue" d="M55.5429,-26.0316C64.5756,-24.6526 74.7392,-23.1009 85.0174,-21.5317"/>
<polygon fill="midnightblue" stroke="midnightblue" points="54.8769,-22.5927 45.5197,-27.5619 55.9334,-29.5125 54.8769,-22.5927"/>
</g>
<!-- Node1 -->
<g id="node5" class="node"><title>Node1</title>
<a xlink:href="struct_etap_dalitz__plot___ref.html" target="_top" xlink:title="EtapDalitz_plot_Ref">
<polygon fill="white" stroke="black" points="262,-40.5 262,-61.5 366,-61.5 366,-40.5 262,-40.5"/>
<text text-anchor="middle" x="314" y="-48.5" font-family="Helvetica,sans-Serif" font-size="10.00">EtapDalitz_plot_Ref</text>
</a>
</g>
<!-- Node0&#45;&gt;Node1 -->
<g id="edge4" class="edge"><title>Node0&#45;&gt;Node1</title>
<path fill="none" stroke="midnightblue" d="M235.577,-51C244.446,-51 253.288,-51 261.669,-51"/>
<polygon fill="midnightblue" stroke="midnightblue" points="235.576,-47.5001 225.576,-51 235.576,-54.5001 235.576,-47.5001"/>
</g>
<!-- Node418 -->
<g id="node9" class="node"><title>Node418</title>
<a xlink:href="struct_etap_dalitz__plot___sig.html" target="_top" xlink:title="EtapDalitz_plot_Sig">
<polygon fill="white" stroke="black" points="262.5,-0.5 262.5,-21.5 365.5,-21.5 365.5,-0.5 262.5,-0.5"/>
<text text-anchor="middle" x="314" y="-8.5" font-family="Helvetica,sans-Serif" font-size="10.00">EtapDalitz_plot_Sig</text>
</a>
</g>
<!-- Node417&#45;&gt;Node418 -->
<g id="edge8" class="edge"><title>Node417&#45;&gt;Node418</title>
<path fill="none" stroke="midnightblue" d="M235.125,-11C244.369,-11 253.593,-11 262.303,-11"/>
<polygon fill="midnightblue" stroke="midnightblue" points="235.11,-7.5001 225.11,-11 235.11,-14.5001 235.11,-7.5001"/>
</g>
</g>
</svg>
