<?xml version="1.0" encoding="UTF-8" standalone="no"?>
<!DOCTYPE svg PUBLIC "-//W3C//DTD SVG 1.1//EN"
 "http://www.w3.org/Graphics/SVG/1.1/DTD/svg11.dtd">
<!-- Generated by graphviz version 2.26.3 (20100126.1600)
 -->
<!-- Title: Graphical Class Hierarchy Pages: 1 -->
<svg width="256pt" height="70pt"
 viewBox="0.00 0.00 256.00 70.00" xmlns="http://www.w3.org/2000/svg" xmlns:xlink="http://www.w3.org/1999/xlink">
<g id="graph1" class="graph" transform="scale(1 1) rotate(0) translate(4 66)">
<title>Graphical Class Hierarchy</title>
<polygon fill="white" stroke="white" points="-4,5 -4,-66 253,-66 253,5 -4,5"/>
<!-- Node560 -->
<g id="node1" class="node"><title>Node560</title>
<polygon fill="white" stroke="#bfbfbf" points="0.5,-20.5 0.5,-41.5 75.5,-41.5 75.5,-20.5 0.5,-20.5"/>
<text text-anchor="middle" x="38" y="-28.5" font-family="Helvetica,sans-Serif" font-size="10.00">padmodifier_t</text>
</g>
<!-- Node0 -->
<g id="node3" class="node"><title>Node0</title>
<a xlink:href="structant_1_1padoption.html" target="_top" xlink:title="ant::padoption">
<polygon fill="white" stroke="black" points="141,-40.5 141,-61.5 219,-61.5 219,-40.5 141,-40.5"/>
<text text-anchor="middle" x="180" y="-48.5" font-family="Helvetica,sans-Serif" font-size="10.00">ant::padoption</text>
</a>
</g>
<!-- Node560&#45;&gt;Node0 -->
<g id="edge2" class="edge"><title>Node560&#45;&gt;Node0</title>
<path fill="none" stroke="midnightblue" d="M85.6292,-37.7083C103.507,-40.2264 123.611,-43.0579 140.654,-45.4583"/>
<polygon fill="midnightblue" stroke="midnightblue" points="86.071,-34.2361 75.6806,-36.3071 85.0947,-41.1677 86.071,-34.2361"/>
</g>
<!-- Node562 -->
<g id="node5" class="node"><title>Node562</title>
<a xlink:href="structant_1_1padoption_1_1_set_fill_color.html" target="_top" xlink:title="ant::padoption::SetFillColor">
<polygon fill="white" stroke="black" points="112.5,-0.5 112.5,-21.5 247.5,-21.5 247.5,-0.5 112.5,-0.5"/>
<text text-anchor="middle" x="180" y="-8.5" font-family="Helvetica,sans-Serif" font-size="10.00">ant::padoption::SetFillColor</text>
</a>
</g>
<!-- Node560&#45;&gt;Node562 -->
<g id="edge4" class="edge"><title>Node560&#45;&gt;Node562</title>
<path fill="none" stroke="midnightblue" d="M85.8419,-24.2617C94.4098,-23.055 103.483,-21.7771 112.481,-20.5097"/>
<polygon fill="midnightblue" stroke="midnightblue" points="85.0947,-20.8323 75.6806,-25.6929 86.071,-27.7639 85.0947,-20.8323"/>
</g>
</g>
</svg>
