<?xml version="1.0" encoding="UTF-8" standalone="no"?>
<!DOCTYPE svg PUBLIC "-//W3C//DTD SVG 1.1//EN"
 "http://www.w3.org/Graphics/SVG/1.1/DTD/svg11.dtd">
<!-- Generated by graphviz version 2.26.3 (20100126.1600)
 -->
<!-- Title: Graphical Class Hierarchy Pages: 1 -->
<svg width="290pt" height="70pt"
 viewBox="0.00 0.00 290.00 70.00" xmlns="http://www.w3.org/2000/svg" xmlns:xlink="http://www.w3.org/1999/xlink">
<g id="graph1" class="graph" transform="scale(1 1) rotate(0) translate(4 66)">
<title>Graphical Class Hierarchy</title>
<polygon fill="white" stroke="white" points="-4,5 -4,-66 287,-66 287,5 -4,5"/>
<!-- Node0 -->
<g id="node1" class="node"><title>Node0</title>
<a xlink:href="structant_1_1padoption_1_1permanent.html" target="_top" xlink:title="ant::padoption::permanent">
<polygon fill="white" stroke="black" points="0,-20.5 0,-41.5 130,-41.5 130,-20.5 0,-20.5"/>
<text text-anchor="middle" x="65" y="-28.5" font-family="Helvetica,sans-Serif" font-size="10.00">ant::padoption::permanent</text>
</a>
</g>
<!-- Node1 -->
<g id="node3" class="node"><title>Node1</title>
<a xlink:href="structant_1_1padoption_1_1disable.html" target="_top" xlink:title="ant::padoption::disable">
<polygon fill="white" stroke="black" points="166.5,-40.5 166.5,-61.5 281.5,-61.5 281.5,-40.5 166.5,-40.5"/>
<text text-anchor="middle" x="224" y="-48.5" font-family="Helvetica,sans-Serif" font-size="10.00">ant::padoption::disable</text>
</a>
</g>
<!-- Node0&#45;&gt;Node1 -->
<g id="edge2" class="edge"><title>Node0&#45;&gt;Node1</title>
<path fill="none" stroke="midnightblue" d="M140.057,-40.4412C148.899,-41.5533 157.813,-42.6746 166.362,-43.7499"/>
<polygon fill="midnightblue" stroke="midnightblue" points="140.489,-36.968 130.13,-39.1925 139.615,-43.9132 140.489,-36.968"/>
</g>
<!-- Node2 -->
<g id="node5" class="node"><title>Node2</title>
<a xlink:href="structant_1_1padoption_1_1enable.html" target="_top" xlink:title="ant::padoption::enable">
<polygon fill="white" stroke="black" points="167.5,-0.5 167.5,-21.5 280.5,-21.5 280.5,-0.5 167.5,-0.5"/>
<text text-anchor="middle" x="224" y="-8.5" font-family="Helvetica,sans-Serif" font-size="10.00">ant::padoption::enable</text>
</a>
</g>
<!-- Node0&#45;&gt;Node2 -->
<g id="edge4" class="edge"><title>Node0&#45;&gt;Node2</title>
<path fill="none" stroke="midnightblue" d="M140.343,-21.5229C149.438,-20.3789 158.606,-19.2257 167.369,-18.1234"/>
<polygon fill="midnightblue" stroke="midnightblue" points="139.615,-18.0868 130.13,-22.8075 140.489,-25.0321 139.615,-18.0868"/>
</g>
</g>
</svg>
