<?xml version="1.0" encoding="UTF-8" standalone="no"?>
<!DOCTYPE svg PUBLIC "-//W3C//DTD SVG 1.1//EN"
 "http://www.w3.org/Graphics/SVG/1.1/DTD/svg11.dtd">
<!-- Generated by graphviz version 2.26.3 (20100126.1600)
 -->
<!-- Title: Graphical Class Hierarchy Pages: 1 -->
<svg width="274pt" height="56pt"
 viewBox="0.00 0.00 274.00 56.00" xmlns="http://www.w3.org/2000/svg" xmlns:xlink="http://www.w3.org/1999/xlink">
<g id="graph1" class="graph" transform="scale(1 1) rotate(0) translate(4 52)">
<title>Graphical Class Hierarchy</title>
<polygon fill="white" stroke="white" points="-4,5 -4,-52 271,-52 271,5 -4,5"/>
<!-- Node982 -->
<g id="node1" class="node"><title>Node982</title>
<polygon fill="white" stroke="#bfbfbf" points="0.5,-13.5 0.5,-34.5 83.5,-34.5 83.5,-13.5 0.5,-13.5"/>
<text text-anchor="middle" x="42" y="-21.5" font-family="Helvetica,sans-Serif" font-size="10.00">AddWrapTTree</text>
</g>
<!-- Node0 -->
<g id="node3" class="node"><title>Node0</title>
<a xlink:href="structant_1_1analysis_1_1utils_1_1_pulls_writer_1_1_pull_tree__t.html" target="_top" xlink:title="ant::analysis::utils\l::PullsWriter\&lt; AddWrapTTree\l \&gt;::PullTree_t">
<polygon fill="white" stroke="black" points="120,-0.5 120,-47.5 266,-47.5 266,-0.5 120,-0.5"/>
<text text-anchor="start" x="128" y="-34.5" font-family="Helvetica,sans-Serif" font-size="10.00">ant::analysis::utils</text>
<text text-anchor="start" x="128" y="-21.5" font-family="Helvetica,sans-Serif" font-size="10.00">::PullsWriter&lt; AddWrapTTree</text>
<text text-anchor="middle" x="193" y="-8.5" font-family="Helvetica,sans-Serif" font-size="10.00"> &gt;::PullTree_t</text>
</a>
</g>
<!-- Node982&#45;&gt;Node0 -->
<g id="edge2" class="edge"><title>Node982&#45;&gt;Node0</title>
<path fill="none" stroke="midnightblue" d="M93.7114,-24C102.157,-24 111.046,-24 119.89,-24"/>
<polygon fill="midnightblue" stroke="midnightblue" points="93.6612,-20.5001 83.6611,-24 93.6611,-27.5001 93.6612,-20.5001"/>
</g>
</g>
</svg>
