<?xml version="1.0" encoding="UTF-8" standalone="no"?>
<!DOCTYPE svg PUBLIC "-//W3C//DTD SVG 1.1//EN"
 "http://www.w3.org/Graphics/SVG/1.1/DTD/svg11.dtd">
<!-- Generated by graphviz version 2.26.3 (20100126.1600)
 -->
<!-- Title: Graphical Class Hierarchy Pages: 1 -->
<svg width="350pt" height="94pt"
 viewBox="0.00 0.00 350.00 94.00" xmlns="http://www.w3.org/2000/svg" xmlns:xlink="http://www.w3.org/1999/xlink">
<g id="graph1" class="graph" transform="scale(1 1) rotate(0) translate(4 90)">
<title>Graphical Class Hierarchy</title>
<polygon fill="white" stroke="white" points="-4,5 -4,-90 347,-90 347,5 -4,5"/>
<!-- Node0 -->
<g id="node1" class="node"><title>Node0</title>
<a xlink:href="structant_1_1analysis_1_1physics_1_1_etap_omega_g_1_1_sig__t_1_1_fit__t.html" target="_top" xlink:title="ant::analysis::physics\l::EtapOmegaG::Sig_t::Fit_t">
<polygon fill="white" stroke="black" points="0,-26 0,-60 136,-60 136,-26 0,-26"/>
<text text-anchor="start" x="8" y="-47" font-family="Helvetica,sans-Serif" font-size="10.00">ant::analysis::physics</text>
<text text-anchor="middle" x="68" y="-34" font-family="Helvetica,sans-Serif" font-size="10.00">::EtapOmegaG::Sig_t::Fit_t</text>
</a>
</g>
<!-- Node1 -->
<g id="node3" class="node"><title>Node1</title>
<a xlink:href="structant_1_1analysis_1_1physics_1_1_etap_omega_g_1_1_sig__t_1_1_omega_pi0__t.html" target="_top" xlink:title="ant::analysis::physics\l::EtapOmegaG::Sig_t::OmegaPi0_t">
<polygon fill="white" stroke="black" points="172,-52 172,-86 342,-86 342,-52 172,-52"/>
<text text-anchor="start" x="180" y="-73" font-family="Helvetica,sans-Serif" font-size="10.00">ant::analysis::physics</text>
<text text-anchor="middle" x="257" y="-60" font-family="Helvetica,sans-Serif" font-size="10.00">::EtapOmegaG::Sig_t::OmegaPi0_t</text>
</a>
</g>
<!-- Node0&#45;&gt;Node1 -->
<g id="edge2" class="edge"><title>Node0&#45;&gt;Node1</title>
<path fill="none" stroke="midnightblue" d="M146.351,-53.7785C154.732,-54.9314 163.288,-56.1084 171.744,-57.2717"/>
<polygon fill="midnightblue" stroke="midnightblue" points="146.617,-50.2822 136.233,-52.3866 145.663,-57.2169 146.617,-50.2822"/>
</g>
<!-- Node2 -->
<g id="node5" class="node"><title>Node2</title>
<a xlink:href="structant_1_1analysis_1_1physics_1_1_etap_omega_g_1_1_sig__t_1_1_pi0__t.html" target="_top" xlink:title="ant::analysis::physics\l::EtapOmegaG::Sig_t::Pi0_t">
<polygon fill="white" stroke="black" points="187.5,-0 187.5,-34 326.5,-34 326.5,-0 187.5,-0"/>
<text text-anchor="start" x="195.5" y="-21" font-family="Helvetica,sans-Serif" font-size="10.00">ant::analysis::physics</text>
<text text-anchor="middle" x="257" y="-8" font-family="Helvetica,sans-Serif" font-size="10.00">::EtapOmegaG::Sig_t::Pi0_t</text>
</a>
</g>
<!-- Node0&#45;&gt;Node2 -->
<g id="edge4" class="edge"><title>Node0&#45;&gt;Node2</title>
<path fill="none" stroke="midnightblue" d="M146.476,-32.2044C160.009,-30.3426 173.995,-28.4187 187.278,-26.5914"/>
<polygon fill="midnightblue" stroke="midnightblue" points="145.663,-28.7831 136.233,-33.6134 146.617,-35.7178 145.663,-28.7831"/>
</g>
</g>
</svg>
