<?xml version="1.0" encoding="UTF-8" standalone="no"?>
<!DOCTYPE svg PUBLIC "-//W3C//DTD SVG 1.1//EN"
 "http://www.w3.org/Graphics/SVG/1.1/DTD/svg11.dtd">
<!-- Generated by graphviz version 2.26.3 (20100126.1600)
 -->
<!-- Title: Graphical Class Hierarchy Pages: 1 -->
<svg width="212pt" height="108pt"
 viewBox="0.00 0.00 212.00 108.00" xmlns="http://www.w3.org/2000/svg" xmlns:xlink="http://www.w3.org/1999/xlink">
<g id="graph1" class="graph" transform="scale(1 1) rotate(0) translate(4 104)">
<title>Graphical Class Hierarchy</title>
<polygon fill="white" stroke="white" points="-4,5 -4,-104 209,-104 209,5 -4,5"/>
<!-- Node739 -->
<g id="node1" class="node"><title>Node739</title>
<polygon fill="white" stroke="#bfbfbf" points="0.5,-42.5 0.5,-63.5 51.5,-63.5 51.5,-42.5 0.5,-42.5"/>
<text text-anchor="middle" x="26" y="-50.5" font-family="Helvetica,sans-Serif" font-size="10.00">function</text>
</g>
<!-- Node0 -->
<g id="node3" class="node"><title>Node0</title>
<a xlink:href="structant_1_1analysis_1_1plot_1_1histstyle_1_1_mod__t.html" target="_top" xlink:title="ant::analysis::plot\l::histstyle::Mod_t">
<polygon fill="white" stroke="black" points="99,-66 99,-100 193,-100 193,-66 99,-66"/>
<text text-anchor="start" x="107" y="-87" font-family="Helvetica,sans-Serif" font-size="10.00">ant::analysis::plot</text>
<text text-anchor="middle" x="146" y="-74" font-family="Helvetica,sans-Serif" font-size="10.00">::histstyle::Mod_t</text>
</a>
</g>
<!-- Node739&#45;&gt;Node0 -->
<g id="edge2" class="edge"><title>Node739&#45;&gt;Node0</title>
<path fill="none" stroke="midnightblue" d="M61.605,-61.9013C73.3315,-64.8329 86.5563,-68.1391 98.9979,-71.2495"/>
<polygon fill="midnightblue" stroke="midnightblue" points="62.2933,-58.4657 51.743,-59.4358 60.5955,-65.2567 62.2933,-58.4657"/>
</g>
<!-- Node741 -->
<g id="node5" class="node"><title>Node741</title>
<a xlink:href="structant_1_1analysis_1_1utils_1_1_tree_fitter_1_1nodesetup__t_1_1getter.html" target="_top" xlink:title="ant::analysis::utils\l::TreeFitter::nodesetup\l_t::getter">
<polygon fill="white" stroke="black" points="88,-0.5 88,-47.5 204,-47.5 204,-0.5 88,-0.5"/>
<text text-anchor="start" x="96" y="-34.5" font-family="Helvetica,sans-Serif" font-size="10.00">ant::analysis::utils</text>
<text text-anchor="start" x="96" y="-21.5" font-family="Helvetica,sans-Serif" font-size="10.00">::TreeFitter::nodesetup</text>
<text text-anchor="middle" x="146" y="-8.5" font-family="Helvetica,sans-Serif" font-size="10.00">_t::getter</text>
</a>
</g>
<!-- Node739&#45;&gt;Node741 -->
<g id="edge4" class="edge"><title>Node739&#45;&gt;Node741</title>
<path fill="none" stroke="midnightblue" d="M61.6975,-44.3731C69.9115,-42.3881 78.8568,-40.2263 87.7507,-38.0769"/>
<polygon fill="midnightblue" stroke="midnightblue" points="60.641,-41.0276 51.743,-46.7788 62.2854,-47.8317 60.641,-41.0276"/>
</g>
</g>
</svg>
