<?xml version="1.0" encoding="UTF-8" standalone="no"?>
<!DOCTYPE svg PUBLIC "-//W3C//DTD SVG 1.1//EN"
 "http://www.w3.org/Graphics/SVG/1.1/DTD/svg11.dtd">
<!-- Generated by graphviz version 2.26.3 (20100126.1600)
 -->
<!-- Title: Graphical Class Hierarchy Pages: 1 -->
<svg width="244pt" height="70pt"
 viewBox="0.00 0.00 244.00 70.00" xmlns="http://www.w3.org/2000/svg" xmlns:xlink="http://www.w3.org/1999/xlink">
<g id="graph1" class="graph" transform="scale(1 1) rotate(0) translate(4 66)">
<title>Graphical Class Hierarchy</title>
<polygon fill="white" stroke="white" points="-4,5 -4,-66 241,-66 241,5 -4,5"/>
<!-- Node0 -->
<g id="node1" class="node"><title>Node0</title>
<a xlink:href="structant_1_1_array2_d_base.html" target="_top" xlink:title="ant::Array2DBase">
<polygon fill="white" stroke="black" points="0.5,-20.5 0.5,-41.5 95.5,-41.5 95.5,-20.5 0.5,-20.5"/>
<text text-anchor="middle" x="48" y="-28.5" font-family="Helvetica,sans-Serif" font-size="10.00">ant::Array2DBase</text>
</a>
</g>
<!-- Node1 -->
<g id="node3" class="node"><title>Node1</title>
<a xlink:href="structant_1_1_array2_d.html" target="_top" xlink:title="ant::Array2D">
<polygon fill="white" stroke="black" points="148,-40.5 148,-61.5 220,-61.5 220,-40.5 148,-40.5"/>
<text text-anchor="middle" x="184" y="-48.5" font-family="Helvetica,sans-Serif" font-size="10.00">ant::Array2D</text>
</a>
</g>
<!-- Node0&#45;&gt;Node1 -->
<g id="edge2" class="edge"><title>Node0&#45;&gt;Node1</title>
<path fill="none" stroke="midnightblue" d="M105.802,-39.5003C120.058,-41.5968 134.926,-43.7832 147.822,-45.6798"/>
<polygon fill="midnightblue" stroke="midnightblue" points="105.969,-35.9873 95.5662,-37.995 104.951,-42.9128 105.969,-35.9873"/>
</g>
<!-- Node2 -->
<g id="node5" class="node"><title>Node2</title>
<a xlink:href="classant_1_1_array2_d___t_h2_d.html" target="_top" xlink:title="ant::Array2D_TH2D">
<polygon fill="white" stroke="black" points="132,-0.5 132,-21.5 236,-21.5 236,-0.5 132,-0.5"/>
<text text-anchor="middle" x="184" y="-8.5" font-family="Helvetica,sans-Serif" font-size="10.00">ant::Array2D_TH2D</text>
</a>
</g>
<!-- Node0&#45;&gt;Node2 -->
<g id="edge4" class="edge"><title>Node0&#45;&gt;Node2</title>
<path fill="none" stroke="midnightblue" d="M105.565,-22.5346C114.201,-21.2645 123.068,-19.9606 131.589,-18.7075"/>
<polygon fill="midnightblue" stroke="midnightblue" points="104.951,-19.0872 95.5662,-24.005 105.969,-26.0127 104.951,-19.0872"/>
</g>
</g>
</svg>
