<?xml version="1.0" encoding="UTF-8" standalone="no"?>
<!DOCTYPE svg PUBLIC "-//W3C//DTD SVG 1.1//EN"
 "http://www.w3.org/Graphics/SVG/1.1/DTD/svg11.dtd">
<!-- Generated by graphviz version 2.26.3 (20100126.1600)
 -->
<!-- Title: Graphical Class Hierarchy Pages: 1 -->
<svg width="672pt" height="376pt"
 viewBox="0.00 0.00 672.00 376.00" xmlns="http://www.w3.org/2000/svg" xmlns:xlink="http://www.w3.org/1999/xlink">
<g id="graph1" class="graph" transform="scale(1 1) rotate(0) translate(4 372)">
<title>Graphical Class Hierarchy</title>
<polygon fill="white" stroke="white" points="-4,5 -4,-372 669,-372 669,5 -4,5"/>
<!-- Node0 -->
<g id="node1" class="node"><title>Node0</title>
<a xlink:href="structant_1_1analysis_1_1slowcontrol_1_1_processor.html" target="_top" xlink:title="ant::analysis::slowcontrol\l::Processor">
<polygon fill="white" stroke="black" points="0,-152 0,-186 128,-186 128,-152 0,-152"/>
<text text-anchor="start" x="8" y="-173" font-family="Helvetica,sans-Serif" font-size="10.00">ant::analysis::slowcontrol</text>
<text text-anchor="middle" x="64" y="-160" font-family="Helvetica,sans-Serif" font-size="10.00">::Processor</text>
</a>
</g>
<!-- Node1 -->
<g id="node3" class="node"><title>Node1</title>
<a xlink:href="structant_1_1analysis_1_1slowcontrol_1_1processor_1_1_acqu_scaler_vector.html" target="_top" xlink:title="ant::analysis::slowcontrol\l::processor::AcquScalerVector">
<polygon fill="white" stroke="black" points="164,-256 164,-290 314,-290 314,-256 164,-256"/>
<text text-anchor="start" x="172" y="-277" font-family="Helvetica,sans-Serif" font-size="10.00">ant::analysis::slowcontrol</text>
<text text-anchor="middle" x="239" y="-264" font-family="Helvetica,sans-Serif" font-size="10.00">::processor::AcquScalerVector</text>
</a>
</g>
<!-- Node0&#45;&gt;Node1 -->
<g id="edge2" class="edge"><title>Node0&#45;&gt;Node1</title>
<path fill="none" stroke="midnightblue" d="M89.6917,-192.919C108.963,-209.855 136.629,-232.116 164,-247 170.053,-250.292 176.603,-253.29 183.225,-255.983"/>
<polygon fill="midnightblue" stroke="midnightblue" points="92.0177,-190.304 82.2267,-186.256 87.3562,-195.526 92.0177,-190.304"/>
</g>
<!-- Node7 -->
<g id="node15" class="node"><title>Node7</title>
<a xlink:href="structant_1_1analysis_1_1slowcontrol_1_1processor_1_1_beam.html" target="_top" xlink:title="ant::analysis::slowcontrol\l::processor::Beam">
<polygon fill="white" stroke="black" points="175,-204 175,-238 303,-238 303,-204 175,-204"/>
<text text-anchor="start" x="183" y="-225" font-family="Helvetica,sans-Serif" font-size="10.00">ant::analysis::slowcontrol</text>
<text text-anchor="middle" x="239" y="-212" font-family="Helvetica,sans-Serif" font-size="10.00">::processor::Beam</text>
</a>
</g>
<!-- Node0&#45;&gt;Node7 -->
<g id="edge14" class="edge"><title>Node0&#45;&gt;Node7</title>
<path fill="none" stroke="midnightblue" d="M130.981,-188.903C147.661,-193.859 165.396,-199.129 181.57,-203.935"/>
<polygon fill="midnightblue" stroke="midnightblue" points="131.884,-185.52 121.302,-186.027 129.89,-192.23 131.884,-185.52"/>
</g>
<!-- Node8 -->
<g id="node17" class="node"><title>Node8</title>
<a xlink:href="structant_1_1analysis_1_1slowcontrol_1_1processor_1_1_beampolmon.html" target="_top" xlink:title="ant::analysis::slowcontrol\l::processor::Beampolmon">
<polygon fill="white" stroke="black" points="175,-152 175,-186 303,-186 303,-152 175,-152"/>
<text text-anchor="start" x="183" y="-173" font-family="Helvetica,sans-Serif" font-size="10.00">ant::analysis::slowcontrol</text>
<text text-anchor="middle" x="239" y="-160" font-family="Helvetica,sans-Serif" font-size="10.00">::processor::Beampolmon</text>
</a>
</g>
<!-- Node0&#45;&gt;Node8 -->
<g id="edge16" class="edge"><title>Node0&#45;&gt;Node8</title>
<path fill="none" stroke="midnightblue" d="M138.281,-169C150.441,-169 162.949,-169 174.838,-169"/>
<polygon fill="midnightblue" stroke="midnightblue" points="138.17,-165.5 128.17,-169 138.17,-172.5 138.17,-165.5"/>
</g>
<!-- Node9 -->
<g id="node19" class="node"><title>Node9</title>
<a xlink:href="structant_1_1analysis_1_1slowcontrol_1_1processor_1_1_exp_trigger.html" target="_top" xlink:title="ant::analysis::slowcontrol\l::processor::ExpTrigger">
<polygon fill="white" stroke="black" points="175,-100 175,-134 303,-134 303,-100 175,-100"/>
<text text-anchor="start" x="183" y="-121" font-family="Helvetica,sans-Serif" font-size="10.00">ant::analysis::slowcontrol</text>
<text text-anchor="middle" x="239" y="-108" font-family="Helvetica,sans-Serif" font-size="10.00">::processor::ExpTrigger</text>
</a>
</g>
<!-- Node0&#45;&gt;Node9 -->
<g id="edge18" class="edge"><title>Node0&#45;&gt;Node9</title>
<path fill="none" stroke="midnightblue" d="M130.981,-149.097C147.661,-144.141 165.396,-138.871 181.57,-134.065"/>
<polygon fill="midnightblue" stroke="midnightblue" points="129.89,-145.77 121.302,-151.973 131.884,-152.48 129.89,-145.77"/>
</g>
<!-- Node10 -->
<g id="node21" class="node"><title>Node10</title>
<a xlink:href="struct_test_processor.html" target="_top" xlink:title="TestProcessor">
<polygon fill="white" stroke="black" points="199,-60.5 199,-81.5 279,-81.5 279,-60.5 199,-60.5"/>
<text text-anchor="middle" x="239" y="-68.5" font-family="Helvetica,sans-Serif" font-size="10.00">TestProcessor</text>
</a>
</g>
<!-- Node0&#45;&gt;Node10 -->
<g id="edge20" class="edge"><title>Node0&#45;&gt;Node10</title>
<path fill="none" stroke="midnightblue" d="M88.6678,-145.114C107.807,-127.799 135.757,-105.046 164,-91 174.859,-85.5992 187.353,-81.524 198.99,-78.5097"/>
<polygon fill="midnightblue" stroke="midnightblue" points="86.2605,-142.573 81.2807,-151.925 91.0053,-147.72 86.2605,-142.573"/>
</g>
<!-- Node2 -->
<g id="node5" class="node"><title>Node2</title>
<a xlink:href="structant_1_1analysis_1_1slowcontrol_1_1processor_1_1_acqu_scaler_scalar.html" target="_top" xlink:title="ant::analysis::slowcontrol\l::processor::AcquScalerScalar">
<polygon fill="white" stroke="black" points="350.5,-308 350.5,-342 499.5,-342 499.5,-308 350.5,-308"/>
<text text-anchor="start" x="358.5" y="-329" font-family="Helvetica,sans-Serif" font-size="10.00">ant::analysis::slowcontrol</text>
<text text-anchor="middle" x="425" y="-316" font-family="Helvetica,sans-Serif" font-size="10.00">::processor::AcquScalerScalar</text>
</a>
</g>
<!-- Node1&#45;&gt;Node2 -->
<g id="edge4" class="edge"><title>Node1&#45;&gt;Node2</title>
<path fill="none" stroke="midnightblue" d="M309.694,-292.764C327.567,-297.761 346.609,-303.084 363.96,-307.935"/>
<polygon fill="midnightblue" stroke="midnightblue" points="310.476,-289.349 299.903,-290.027 308.592,-296.09 310.476,-289.349"/>
</g>
<!-- Node5 -->
<g id="node11" class="node"><title>Node5</title>
<a xlink:href="structant_1_1analysis_1_1slowcontrol_1_1processor_1_1_e_p_t___scalers.html" target="_top" xlink:title="ant::analysis::slowcontrol\l::processor::EPT_Scalers">
<polygon fill="white" stroke="black" points="360.5,-256 360.5,-290 489.5,-290 489.5,-256 360.5,-256"/>
<text text-anchor="start" x="368.5" y="-277" font-family="Helvetica,sans-Serif" font-size="10.00">ant::analysis::slowcontrol</text>
<text text-anchor="middle" x="425" y="-264" font-family="Helvetica,sans-Serif" font-size="10.00">::processor::EPT_Scalers</text>
</a>
</g>
<!-- Node1&#45;&gt;Node5 -->
<g id="edge10" class="edge"><title>Node1&#45;&gt;Node5</title>
<path fill="none" stroke="midnightblue" d="M324.253,-273C336.39,-273 348.705,-273 360.362,-273"/>
<polygon fill="midnightblue" stroke="midnightblue" points="324.117,-269.5 314.117,-273 324.117,-276.5 324.117,-269.5"/>
</g>
<!-- Node6 -->
<g id="node13" class="node"><title>Node6</title>
<a xlink:href="structant_1_1analysis_1_1slowcontrol_1_1processor_1_1_tagger___scalers.html" target="_top" xlink:title="ant::analysis::slowcontrol\l::processor::Tagger_Scalers">
<polygon fill="white" stroke="black" points="355,-204 355,-238 495,-238 495,-204 355,-204"/>
<text text-anchor="start" x="363" y="-225" font-family="Helvetica,sans-Serif" font-size="10.00">ant::analysis::slowcontrol</text>
<text text-anchor="middle" x="425" y="-212" font-family="Helvetica,sans-Serif" font-size="10.00">::processor::Tagger_Scalers</text>
</a>
</g>
<!-- Node1&#45;&gt;Node6 -->
<g id="edge12" class="edge"><title>Node1&#45;&gt;Node6</title>
<path fill="none" stroke="midnightblue" d="M309.694,-253.236C327.567,-248.239 346.609,-242.916 363.96,-238.065"/>
<polygon fill="midnightblue" stroke="midnightblue" points="308.592,-249.91 299.903,-255.973 310.476,-256.651 308.592,-249.91"/>
</g>
<!-- Node3 -->
<g id="node7" class="node"><title>Node3</title>
<a xlink:href="structant_1_1analysis_1_1slowcontrol_1_1processor_1_1_e_p_t___or.html" target="_top" xlink:title="ant::analysis::slowcontrol\l::processor::EPT_Or">
<polygon fill="white" stroke="black" points="536,-334 536,-368 664,-368 664,-334 536,-334"/>
<text text-anchor="start" x="544" y="-355" font-family="Helvetica,sans-Serif" font-size="10.00">ant::analysis::slowcontrol</text>
<text text-anchor="middle" x="600" y="-342" font-family="Helvetica,sans-Serif" font-size="10.00">::processor::EPT_Or</text>
</a>
</g>
<!-- Node2&#45;&gt;Node3 -->
<g id="edge6" class="edge"><title>Node2&#45;&gt;Node3</title>
<path fill="none" stroke="midnightblue" d="M509.892,-337.613C518.585,-338.904 527.312,-340.201 535.73,-341.451"/>
<polygon fill="midnightblue" stroke="midnightblue" points="510.129,-334.109 499.723,-336.102 509.1,-341.033 510.129,-334.109"/>
</g>
<!-- Node4 -->
<g id="node9" class="node"><title>Node4</title>
<a xlink:href="structant_1_1analysis_1_1slowcontrol_1_1processor_1_1_tagger___or.html" target="_top" xlink:title="ant::analysis::slowcontrol\l::processor::Tagger_Or">
<polygon fill="white" stroke="black" points="536,-282 536,-316 664,-316 664,-282 536,-282"/>
<text text-anchor="start" x="544" y="-303" font-family="Helvetica,sans-Serif" font-size="10.00">ant::analysis::slowcontrol</text>
<text text-anchor="middle" x="600" y="-290" font-family="Helvetica,sans-Serif" font-size="10.00">::processor::Tagger_Or</text>
</a>
</g>
<!-- Node2&#45;&gt;Node4 -->
<g id="edge8" class="edge"><title>Node2&#45;&gt;Node4</title>
<path fill="none" stroke="midnightblue" d="M509.892,-312.387C518.585,-311.096 527.312,-309.799 535.73,-308.549"/>
<polygon fill="midnightblue" stroke="midnightblue" points="509.1,-308.967 499.723,-313.898 510.129,-315.891 509.1,-308.967"/>
</g>
<!-- Node11 -->
<g id="node23" class="node"><title>Node11</title>
<a xlink:href="struct_test_processor1.html" target="_top" xlink:title="TestProcessor1">
<polygon fill="white" stroke="black" points="382,-120.5 382,-141.5 468,-141.5 468,-120.5 382,-120.5"/>
<text text-anchor="middle" x="425" y="-128.5" font-family="Helvetica,sans-Serif" font-size="10.00">TestProcessor1</text>
</a>
</g>
<!-- Node10&#45;&gt;Node11 -->
<g id="edge22" class="edge"><title>Node10&#45;&gt;Node11</title>
<path fill="none" stroke="midnightblue" d="M289.086,-82.512C297.521,-84.9724 306.097,-87.808 314,-91 330.971,-97.8545 333.029,-104.146 350,-111 360.121,-115.088 371.346,-118.591 381.963,-121.47"/>
<polygon fill="midnightblue" stroke="midnightblue" points="289.871,-79.0976 279.299,-79.7971 288,-85.8429 289.871,-79.0976"/>
</g>
<!-- Node12 -->
<g id="node25" class="node"><title>Node12</title>
<a xlink:href="struct_test_processor2.html" target="_top" xlink:title="TestProcessor2">
<polygon fill="white" stroke="black" points="382,-80.5 382,-101.5 468,-101.5 468,-80.5 382,-80.5"/>
<text text-anchor="middle" x="425" y="-88.5" font-family="Helvetica,sans-Serif" font-size="10.00">TestProcessor2</text>
</a>
</g>
<!-- Node10&#45;&gt;Node12 -->
<g id="edge24" class="edge"><title>Node10&#45;&gt;Node12</title>
<path fill="none" stroke="midnightblue" d="M289.65,-76.4462C318.507,-79.5492 354.282,-83.3959 381.804,-86.3552"/>
<polygon fill="midnightblue" stroke="midnightblue" points="289.676,-72.929 279.359,-75.3397 288.928,-79.8888 289.676,-72.929"/>
</g>
<!-- Node13 -->
<g id="node27" class="node"><title>Node13</title>
<a xlink:href="struct_test_processor3.html" target="_top" xlink:title="TestProcessor3">
<polygon fill="white" stroke="black" points="382,-40.5 382,-61.5 468,-61.5 468,-40.5 382,-40.5"/>
<text text-anchor="middle" x="425" y="-48.5" font-family="Helvetica,sans-Serif" font-size="10.00">TestProcessor3</text>
</a>
</g>
<!-- Node10&#45;&gt;Node13 -->
<g id="edge26" class="edge"><title>Node10&#45;&gt;Node13</title>
<path fill="none" stroke="midnightblue" d="M289.65,-65.5538C318.507,-62.4508 354.282,-58.6041 381.804,-55.6448"/>
<polygon fill="midnightblue" stroke="midnightblue" points="288.928,-62.1112 279.359,-66.6603 289.676,-69.071 288.928,-62.1112"/>
</g>
<!-- Node14 -->
<g id="node29" class="node"><title>Node14</title>
<a xlink:href="struct_test_processor4.html" target="_top" xlink:title="TestProcessor4">
<polygon fill="white" stroke="black" points="382,-0.5 382,-21.5 468,-21.5 468,-0.5 382,-0.5"/>
<text text-anchor="middle" x="425" y="-8.5" font-family="Helvetica,sans-Serif" font-size="10.00">TestProcessor4</text>
</a>
</g>
<!-- Node10&#45;&gt;Node14 -->
<g id="edge28" class="edge"><title>Node10&#45;&gt;Node14</title>
<path fill="none" stroke="midnightblue" d="M275.56,-56.9368C297.078,-48.8832 324.91,-38.8505 350,-31 360.546,-27.7003 372.031,-24.4624 382.771,-21.5854"/>
<polygon fill="midnightblue" stroke="midnightblue" points="274.273,-53.6813 266.15,-60.483 276.742,-60.2317 274.273,-53.6813"/>
</g>
</g>
</svg>
