<?xml version="1.0" encoding="UTF-8" standalone="no"?>
<!DOCTYPE svg PUBLIC "-//W3C//DTD SVG 1.1//EN"
 "http://www.w3.org/Graphics/SVG/1.1/DTD/svg11.dtd">
<!-- Generated by graphviz version 2.26.3 (20100126.1600)
 -->
<!-- Title: Graphical Class Hierarchy Pages: 1 -->
<svg width="170pt" height="70pt"
 viewBox="0.00 0.00 170.00 70.00" xmlns="http://www.w3.org/2000/svg" xmlns:xlink="http://www.w3.org/1999/xlink">
<g id="graph1" class="graph" transform="scale(1 1) rotate(0) translate(4 66)">
<title>Graphical Class Hierarchy</title>
<polygon fill="white" stroke="white" points="-4,5 -4,-66 167,-66 167,5 -4,5"/>
<!-- Node0 -->
<g id="node1" class="node"><title>Node0</title>
<a xlink:href="struct_mc_action.html" target="_top" xlink:title="McAction">
<polygon fill="white" stroke="black" points="0,-20.5 0,-41.5 58,-41.5 58,-20.5 0,-20.5"/>
<text text-anchor="middle" x="29" y="-28.5" font-family="Helvetica,sans-Serif" font-size="10.00">McAction</text>
</a>
</g>
<!-- Node1 -->
<g id="node3" class="node"><title>Node1</title>
<a xlink:href="struct_gun_action.html" target="_top" xlink:title="GunAction">
<polygon fill="white" stroke="black" points="97,-40.5 97,-61.5 159,-61.5 159,-40.5 97,-40.5"/>
<text text-anchor="middle" x="128" y="-48.5" font-family="Helvetica,sans-Serif" font-size="10.00">GunAction</text>
</a>
</g>
<!-- Node0&#45;&gt;Node1 -->
<g id="edge2" class="edge"><title>Node0&#45;&gt;Node1</title>
<path fill="none" stroke="midnightblue" d="M68.2456,-38.9284C77.7911,-40.8568 87.8686,-42.8927 96.9728,-44.7319"/>
<polygon fill="midnightblue" stroke="midnightblue" points="68.6629,-35.4421 58.1678,-36.8925 67.2767,-42.3035 68.6629,-35.4421"/>
</g>
<!-- Node2 -->
<g id="node5" class="node"><title>Node2</title>
<a xlink:href="struct_pluto_action.html" target="_top" xlink:title="PlutoAction">
<polygon fill="white" stroke="black" points="94.5,-0.5 94.5,-21.5 161.5,-21.5 161.5,-0.5 94.5,-0.5"/>
<text text-anchor="middle" x="128" y="-8.5" font-family="Helvetica,sans-Serif" font-size="10.00">PlutoAction</text>
</a>
</g>
<!-- Node0&#45;&gt;Node2 -->
<g id="edge4" class="edge"><title>Node0&#45;&gt;Node2</title>
<path fill="none" stroke="midnightblue" d="M68.035,-23.1141C76.6717,-21.3694 85.7538,-19.5346 94.1635,-17.8357"/>
<polygon fill="midnightblue" stroke="midnightblue" points="67.2767,-19.6965 58.1678,-25.1075 68.6629,-26.5579 67.2767,-19.6965"/>
</g>
</g>
</svg>
