<?xml version="1.0" encoding="UTF-8" standalone="no"?>
<!DOCTYPE svg PUBLIC "-//W3C//DTD SVG 1.1//EN"
 "http://www.w3.org/Graphics/SVG/1.1/DTD/svg11.dtd">
<!-- Generated by graphviz version 2.26.3 (20100126.1600)
 -->
<!-- Title: Graphical Class Hierarchy Pages: 1 -->
<svg width="382pt" height="134pt"
 viewBox="0.00 0.00 382.00 134.00" xmlns="http://www.w3.org/2000/svg" xmlns:xlink="http://www.w3.org/1999/xlink">
<g id="graph1" class="graph" transform="scale(1 1) rotate(0) translate(4 130)">
<title>Graphical Class Hierarchy</title>
<polygon fill="white" stroke="white" points="-4,5 -4,-130 379,-130 379,5 -4,5"/>
<!-- Node893 -->
<g id="node1" class="node"><title>Node893</title>
<a xlink:href="struct_common_hist__t.html" target="_top" xlink:title="CommonHist_t">
<polygon fill="white" stroke="black" points="27.5,-52.5 27.5,-73.5 110.5,-73.5 110.5,-52.5 27.5,-52.5"/>
<text text-anchor="middle" x="69" y="-60.5" font-family="Helvetica,sans-Serif" font-size="10.00">CommonHist_t</text>
</a>
</g>
<!-- Node715 -->
<g id="node3" class="node"><title>Node715</title>
<a xlink:href="struct_ref_hist__t.html" target="_top" xlink:title="RefHist_t">
<polygon fill="white" stroke="black" points="174.5,-73.5 174.5,-94.5 233.5,-94.5 233.5,-73.5 174.5,-73.5"/>
<text text-anchor="middle" x="204" y="-81.5" font-family="Helvetica,sans-Serif" font-size="10.00">RefHist_t</text>
</a>
</g>
<!-- Node893&#45;&gt;Node715 -->
<g id="edge2" class="edge"><title>Node893&#45;&gt;Node715</title>
<path fill="none" stroke="midnightblue" d="M120.508,-71.0123C138.7,-73.8423 158.538,-76.9281 174.31,-79.3815"/>
<polygon fill="midnightblue" stroke="midnightblue" points="121.025,-67.5508 110.606,-69.472 119.949,-74.4676 121.025,-67.5508"/>
</g>
<!-- Node1 -->
<g id="node5" class="node"><title>Node1</title>
<a xlink:href="struct_sig_hist__t.html" target="_top" xlink:title="SigHist_t">
<polygon fill="white" stroke="black" points="175.5,-30.5 175.5,-51.5 232.5,-51.5 232.5,-30.5 175.5,-30.5"/>
<text text-anchor="middle" x="204" y="-38.5" font-family="Helvetica,sans-Serif" font-size="10.00">SigHist_t</text>
</a>
</g>
<!-- Node893&#45;&gt;Node1 -->
<g id="edge4" class="edge"><title>Node893&#45;&gt;Node1</title>
<path fill="none" stroke="midnightblue" d="M120.66,-54.5814C139.135,-51.5705 159.289,-48.2862 175.149,-45.7016"/>
<polygon fill="midnightblue" stroke="midnightblue" points="119.913,-51.1568 110.606,-56.2198 121.039,-58.0657 119.913,-51.1568"/>
</g>
<!-- Node2 -->
<g id="node7" class="node"><title>Node2</title>
<a xlink:href="struct_sig_omega_pi0_hist__t.html" target="_top" xlink:title="SigOmegaPi0Hist_t">
<polygon fill="white" stroke="black" points="270.5,-50.5 270.5,-71.5 373.5,-71.5 373.5,-50.5 270.5,-50.5"/>
<text text-anchor="middle" x="322" y="-58.5" font-family="Helvetica,sans-Serif" font-size="10.00">SigOmegaPi0Hist_t</text>
</a>
</g>
<!-- Node1&#45;&gt;Node2 -->
<g id="edge6" class="edge"><title>Node1&#45;&gt;Node2</title>
<path fill="none" stroke="midnightblue" d="M242.55,-47.534C251.377,-49.0301 260.901,-50.6443 270.184,-52.2177"/>
<polygon fill="midnightblue" stroke="midnightblue" points="243.009,-44.0618 232.565,-45.8414 241.839,-50.9634 243.009,-44.0618"/>
</g>
<!-- Node3 -->
<g id="node9" class="node"><title>Node3</title>
<a xlink:href="struct_sig_pi0_hist__t.html" target="_top" xlink:title="SigPi0Hist_t">
<polygon fill="white" stroke="black" points="286.5,-10.5 286.5,-31.5 357.5,-31.5 357.5,-10.5 286.5,-10.5"/>
<text text-anchor="middle" x="322" y="-18.5" font-family="Helvetica,sans-Serif" font-size="10.00">SigPi0Hist_t</text>
</a>
</g>
<!-- Node1&#45;&gt;Node3 -->
<g id="edge8" class="edge"><title>Node1&#45;&gt;Node3</title>
<path fill="none" stroke="midnightblue" d="M242.828,-34.419C256.764,-32.0569 272.407,-29.4055 286.085,-27.0872"/>
<polygon fill="midnightblue" stroke="midnightblue" points="241.839,-31.0366 232.565,-36.1586 243.009,-37.9382 241.839,-31.0366"/>
</g>
<!-- Node714 -->
<g id="node10" class="node"><title>Node714</title>
<a xlink:href="struct_hist__t.html" target="_top" xlink:title="Hist_t\&lt; physics::EtapDalitz\l::RefTree_t \&gt;">
<polygon fill="white" stroke="black" points="0.5,-92 0.5,-126 137.5,-126 137.5,-92 0.5,-92"/>
<text text-anchor="start" x="8.5" y="-113" font-family="Helvetica,sans-Serif" font-size="10.00">Hist_t&lt; physics::EtapDalitz</text>
<text text-anchor="middle" x="69" y="-100" font-family="Helvetica,sans-Serif" font-size="10.00">::RefTree_t &gt;</text>
</a>
</g>
<!-- Node714&#45;&gt;Node715 -->
<g id="edge10" class="edge"><title>Node714&#45;&gt;Node715</title>
<path fill="none" stroke="midnightblue" d="M147.618,-94.4412C157.075,-92.6899 166.232,-90.994 174.32,-89.4963"/>
<polygon fill="midnightblue" stroke="midnightblue" points="146.882,-91.0178 137.686,-96.2803 148.157,-97.9008 146.882,-91.0178"/>
</g>
<!-- Node0 -->
<g id="node12" class="node"><title>Node0</title>
<a xlink:href="struct_hist__t.html" target="_top" xlink:title="Hist_t\&lt; physics::EtapDalitz\l::SigTree_t \&gt;">
<polygon fill="white" stroke="black" points="0.5,-0 0.5,-34 137.5,-34 137.5,-0 0.5,-0"/>
<text text-anchor="start" x="8.5" y="-21" font-family="Helvetica,sans-Serif" font-size="10.00">Hist_t&lt; physics::EtapDalitz</text>
<text text-anchor="middle" x="69" y="-8" font-family="Helvetica,sans-Serif" font-size="10.00">::SigTree_t &gt;</text>
</a>
</g>
<!-- Node0&#45;&gt;Node1 -->
<g id="edge12" class="edge"><title>Node0&#45;&gt;Node1</title>
<path fill="none" stroke="midnightblue" d="M147.609,-30.9749C157.455,-32.7253 166.977,-34.4181 175.305,-35.8987"/>
<polygon fill="midnightblue" stroke="midnightblue" points="148.145,-27.5154 137.686,-29.2109 146.919,-34.4073 148.145,-27.5154"/>
</g>
</g>
</svg>
