<?xml version="1.0" encoding="UTF-8" standalone="no"?>
<!DOCTYPE svg PUBLIC "-//W3C//DTD SVG 1.1//EN"
 "http://www.w3.org/Graphics/SVG/1.1/DTD/svg11.dtd">
<!-- Generated by graphviz version 2.26.3 (20100126.1600)
 -->
<!-- Title: src/analysis/input/event_t.h Pages: 1 -->
<svg width="210pt" height="160pt"
 viewBox="0.00 0.00 210.00 160.00" xmlns="http://www.w3.org/2000/svg" xmlns:xlink="http://www.w3.org/1999/xlink">
<g id="graph1" class="graph" transform="scale(1 1) rotate(0) translate(4 156)">
<title>src/analysis/input/event_t.h</title>
<polygon fill="white" stroke="white" points="-4,5 -4,-156 207,-156 207,5 -4,5"/>
<!-- Node0 -->
<g id="node1" class="node"><title>Node0</title>
<polygon fill="#bfbfbf" stroke="black" points="53.5,-117 53.5,-151 146.5,-151 146.5,-117 53.5,-117"/>
<text text-anchor="start" x="61.5" y="-138" font-family="Helvetica,sans-Serif" font-size="10.00">src/analysis/input</text>
<text text-anchor="middle" x="100" y="-125" font-family="Helvetica,sans-Serif" font-size="10.00">/event_t.h</text>
</g>
<!-- Node1 -->
<g id="node3" class="node"><title>Node1</title>
<a xlink:href="_t_event_8h.html" target="_top" xlink:title="tree/TEvent.h">
<polygon fill="white" stroke="black" points="62,-58.5 62,-79.5 138,-79.5 138,-58.5 62,-58.5"/>
<text text-anchor="middle" x="100" y="-66.5" font-family="Helvetica,sans-Serif" font-size="10.00">tree/TEvent.h</text>
</a>
</g>
<!-- Node0&#45;&gt;Node1 -->
<g id="edge2" class="edge"><title>Node0&#45;&gt;Node1</title>
<path fill="none" stroke="midnightblue" d="M100,-116.922C100,-108.67 100,-98.6922 100,-89.9818"/>
<polygon fill="midnightblue" stroke="midnightblue" points="103.5,-89.8521 100,-79.8521 96.5001,-89.8521 103.5,-89.8521"/>
</g>
<!-- Node2 -->
<g id="node5" class="node"><title>Node2</title>
<polygon fill="white" stroke="#bfbfbf" points="0,-0.5 0,-21.5 56,-21.5 56,-0.5 0,-0.5"/>
<text text-anchor="middle" x="28" y="-8.5" font-family="Helvetica,sans-Serif" font-size="10.00">Rtypes.h</text>
</g>
<!-- Node1&#45;&gt;Node2 -->
<g id="edge4" class="edge"><title>Node1&#45;&gt;Node2</title>
<path fill="none" stroke="midnightblue" d="M86.7941,-58.3619C76.2388,-49.859 61.2423,-37.7785 49.0371,-27.9466"/>
<polygon fill="midnightblue" stroke="midnightblue" points="51.1054,-25.1183 41.1222,-21.5707 46.7141,-30.5696 51.1054,-25.1183"/>
</g>
<!-- Node3 -->
<g id="node7" class="node"><title>Node3</title>
<polygon fill="white" stroke="#bfbfbf" points="74,-0.5 74,-21.5 126,-21.5 126,-0.5 74,-0.5"/>
<text text-anchor="middle" x="100" y="-8.5" font-family="Helvetica,sans-Serif" font-size="10.00">memory</text>
</g>
<!-- Node1&#45;&gt;Node3 -->
<g id="edge6" class="edge"><title>Node1&#45;&gt;Node3</title>
<path fill="none" stroke="midnightblue" d="M100,-58.3619C100,-50.9219 100,-40.7427 100,-31.7276"/>
<polygon fill="midnightblue" stroke="midnightblue" points="103.5,-31.5706 100,-21.5707 96.5001,-31.5707 103.5,-31.5706"/>
</g>
<!-- Node4 -->
<g id="node9" class="node"><title>Node4</title>
<polygon fill="white" stroke="#bfbfbf" points="143.5,-0.5 143.5,-21.5 202.5,-21.5 202.5,-0.5 143.5,-0.5"/>
<text text-anchor="middle" x="173" y="-8.5" font-family="Helvetica,sans-Serif" font-size="10.00">stdexcept</text>
</g>
<!-- Node1&#45;&gt;Node4 -->
<g id="edge8" class="edge"><title>Node1&#45;&gt;Node4</title>
<path fill="none" stroke="midnightblue" d="M113.389,-58.3619C124.091,-49.859 139.296,-37.7785 151.671,-27.9466"/>
<polygon fill="midnightblue" stroke="midnightblue" points="154.043,-30.5318 159.696,-21.5707 149.689,-25.0511 154.043,-30.5318"/>
</g>
</g>
</svg>
