<?xml version="1.0" encoding="UTF-8" standalone="no"?>
<!DOCTYPE svg PUBLIC "-//W3C//DTD SVG 1.1//EN"
 "http://www.w3.org/Graphics/SVG/1.1/DTD/svg11.dtd">
<!-- Generated by graphviz version 2.26.3 (20100126.1600)
 -->
<!-- Title: src/base/std_ext/iterators.h Pages: 1 -->
<svg width="840pt" height="102pt"
 viewBox="0.00 0.00 840.00 102.00" xmlns="http://www.w3.org/2000/svg" xmlns:xlink="http://www.w3.org/1999/xlink">
<g id="graph1" class="graph" transform="scale(1 1) rotate(0) translate(4 98)">
<title>src/base/std_ext/iterators.h</title>
<polygon fill="white" stroke="white" points="-4,5 -4,-98 837,-98 837,5 -4,5"/>
<!-- Node2 -->
<g id="node1" class="node"><title>Node2</title>
<polygon fill="#bfbfbf" stroke="black" points="345,-72.5 345,-93.5 481,-93.5 481,-72.5 345,-72.5"/>
<text text-anchor="middle" x="413" y="-80.5" font-family="Helvetica,sans-Serif" font-size="10.00">src/base/std_ext/iterators.h</text>
</g>
<!-- Node3 -->
<g id="node3" class="node"><title>Node3</title>
<a xlink:href="_ant-calib-viewer_8cc.html" target="_top" xlink:title="progs/Ant&#45;calib&#45;viewer.cc">
<polygon fill="white" stroke="black" points="-0.5,-7.5 -0.5,-28.5 126.5,-28.5 126.5,-7.5 -0.5,-7.5"/>
<text text-anchor="middle" x="63" y="-15.5" font-family="Helvetica,sans-Serif" font-size="10.00">progs/Ant&#45;calib&#45;viewer.cc</text>
</a>
</g>
<!-- Node2&#45;&gt;Node3 -->
<g id="edge2" class="edge"><title>Node2&#45;&gt;Node3</title>
<path fill="none" stroke="midnightblue" d="M334.565,-71.4013C278.709,-62.7368 201.98,-50.0125 135,-36 124.532,-33.8101 113.284,-31.1481 102.861,-28.5503"/>
<polygon fill="midnightblue" stroke="midnightblue" points="334.328,-74.906 344.745,-72.9712 335.395,-67.9878 334.328,-74.906"/>
</g>
<!-- Node4 -->
<g id="node5" class="node"><title>Node4</title>
<a xlink:href="_ant-mcdatabase-viewer_8cc.html" target="_top" xlink:title="progs/Ant&#45;mcdatabase\l&#45;viewer.cc">
<polygon fill="white" stroke="black" points="143.5,-1 143.5,-35 258.5,-35 258.5,-1 143.5,-1"/>
<text text-anchor="start" x="151.5" y="-22" font-family="Helvetica,sans-Serif" font-size="10.00">progs/Ant&#45;mcdatabase</text>
<text text-anchor="middle" x="201" y="-9" font-family="Helvetica,sans-Serif" font-size="10.00">&#45;viewer.cc</text>
</a>
</g>
<!-- Node2&#45;&gt;Node4 -->
<g id="edge4" class="edge"><title>Node2&#45;&gt;Node4</title>
<path fill="none" stroke="midnightblue" d="M368.763,-69.4366C336.18,-59.4467 291.641,-45.7909 256.643,-35.0604"/>
<polygon fill="midnightblue" stroke="midnightblue" points="367.88,-72.8268 378.467,-72.412 369.932,-66.1343 367.88,-72.8268"/>
</g>
<!-- Node5 -->
<g id="node7" class="node"><title>Node5</title>
<a xlink:href="process_etap_tree_8cc.html" target="_top" xlink:title="progs/processEtapTree.cc">
<polygon fill="white" stroke="black" points="275.5,-7.5 275.5,-28.5 406.5,-28.5 406.5,-7.5 275.5,-7.5"/>
<text text-anchor="middle" x="341" y="-15.5" font-family="Helvetica,sans-Serif" font-size="10.00">progs/processEtapTree.cc</text>
</a>
</g>
<!-- Node2&#45;&gt;Node5 -->
<g id="edge6" class="edge"><title>Node2&#45;&gt;Node5</title>
<path fill="none" stroke="midnightblue" d="M393.542,-65.4338C380.48,-53.6419 363.706,-38.4983 352.668,-28.5337"/>
<polygon fill="midnightblue" stroke="midnightblue" points="391.343,-68.1635 401.111,-72.2666 396.033,-62.9676 391.343,-68.1635"/>
</g>
<!-- Node6 -->
<g id="node9" class="node"><title>Node6</title>
<a xlink:href="_omega___eta_g_8cc.html" target="_top" xlink:title="src/analysis/physics\l/omega/Omega_EtaG.cc">
<polygon fill="white" stroke="black" points="423.5,-1 423.5,-35 548.5,-35 548.5,-1 423.5,-1"/>
<text text-anchor="start" x="431.5" y="-22" font-family="Helvetica,sans-Serif" font-size="10.00">src/analysis/physics</text>
<text text-anchor="middle" x="486" y="-9" font-family="Helvetica,sans-Serif" font-size="10.00">/omega/Omega_EtaG.cc</text>
</a>
</g>
<!-- Node2&#45;&gt;Node6 -->
<g id="edge8" class="edge"><title>Node2&#45;&gt;Node6</title>
<path fill="none" stroke="midnightblue" d="M432.603,-65.545C443.204,-56.1062 456.244,-44.4949 466.784,-35.1099"/>
<polygon fill="midnightblue" stroke="midnightblue" points="430.195,-63.0026 425.054,-72.2666 434.85,-68.2305 430.195,-63.0026"/>
</g>
<!-- Node7 -->
<g id="node11" class="node"><title>Node7</title>
<a xlink:href="pi0eta_8cc.html" target="_top" xlink:title="src/analysis/physics\l/omega/pi0eta.cc">
<polygon fill="white" stroke="black" points="566,-1 566,-35 672,-35 672,-1 566,-1"/>
<text text-anchor="start" x="574" y="-22" font-family="Helvetica,sans-Serif" font-size="10.00">src/analysis/physics</text>
<text text-anchor="middle" x="619" y="-9" font-family="Helvetica,sans-Serif" font-size="10.00">/omega/pi0eta.cc</text>
</a>
</g>
<!-- Node2&#45;&gt;Node7 -->
<g id="edge10" class="edge"><title>Node2&#45;&gt;Node7</title>
<path fill="none" stroke="midnightblue" d="M456.469,-69.2842C488.335,-59.2294 531.777,-45.522 565.731,-34.8081"/>
<polygon fill="midnightblue" stroke="midnightblue" points="455.039,-66.065 446.556,-72.412 457.146,-72.7406 455.039,-66.065"/>
</g>
<!-- Node8 -->
<g id="node13" class="node"><title>Node8</title>
<a xlink:href="_test_wrap_t_tree_8cc.html" target="_top" xlink:title="test/base/TestWrapTTree.cc">
<polygon fill="white" stroke="black" points="690,-7.5 690,-28.5 832,-28.5 832,-7.5 690,-7.5"/>
<text text-anchor="middle" x="761" y="-15.5" font-family="Helvetica,sans-Serif" font-size="10.00">test/base/TestWrapTTree.cc</text>
</a>
</g>
<!-- Node2&#45;&gt;Node8 -->
<g id="edge12" class="edge"><title>Node2&#45;&gt;Node8</title>
<path fill="none" stroke="midnightblue" d="M488.292,-70.7824C542.103,-61.8101 616.162,-48.972 681,-36 692.307,-33.7378 704.468,-31.1051 715.81,-28.5629"/>
<polygon fill="midnightblue" stroke="midnightblue" points="487.439,-67.3761 478.148,-72.468 488.587,-74.2814 487.439,-67.3761"/>
</g>
</g>
</svg>
