<?xml version="1.0" encoding="UTF-8" standalone="no"?>
<!DOCTYPE svg PUBLIC "-//W3C//DTD SVG 1.1//EN"
 "http://www.w3.org/Graphics/SVG/1.1/DTD/svg11.dtd">
<!-- Generated by graphviz version 2.26.3 (20100126.1600)
 -->
<!-- Title: src/base/std_ext/mapped_vectors.h Pages: 1 -->
<svg width="307pt" height="160pt"
 viewBox="0.00 0.00 307.00 160.00" xmlns="http://www.w3.org/2000/svg" xmlns:xlink="http://www.w3.org/1999/xlink">
<g id="graph1" class="graph" transform="scale(1 1) rotate(0) translate(4 156)">
<title>src/base/std_ext/mapped_vectors.h</title>
<polygon fill="white" stroke="white" points="-4,5 -4,-156 304,-156 304,5 -4,5"/>
<!-- Node0 -->
<g id="node1" class="node"><title>Node0</title>
<polygon fill="#bfbfbf" stroke="black" points="83.5,-117 83.5,-151 210.5,-151 210.5,-117 83.5,-117"/>
<text text-anchor="start" x="91.5" y="-138" font-family="Helvetica,sans-Serif" font-size="10.00">src/base/std_ext/mapped</text>
<text text-anchor="middle" x="147" y="-125" font-family="Helvetica,sans-Serif" font-size="10.00">_vectors.h</text>
</g>
<!-- Node1 -->
<g id="node3" class="node"><title>Node1</title>
<a xlink:href="memory_8h.html" target="_top" xlink:title="base/std_ext/memory.h">
<polygon fill="white" stroke="black" points="38.5,-58.5 38.5,-79.5 157.5,-79.5 157.5,-58.5 38.5,-58.5"/>
<text text-anchor="middle" x="98" y="-66.5" font-family="Helvetica,sans-Serif" font-size="10.00">base/std_ext/memory.h</text>
</a>
</g>
<!-- Node0&#45;&gt;Node1 -->
<g id="edge2" class="edge"><title>Node0&#45;&gt;Node1</title>
<path fill="none" stroke="midnightblue" d="M134.126,-116.922C127.422,-108.029 119.205,-97.1296 112.303,-87.9738"/>
<polygon fill="midnightblue" stroke="midnightblue" points="114.995,-85.7305 106.181,-79.8521 109.406,-89.9442 114.995,-85.7305"/>
</g>
<!-- Node2 -->
<g id="node5" class="node"><title>Node2</title>
<polygon fill="white" stroke="#bfbfbf" points="0,-0.5 0,-21.5 52,-21.5 52,-0.5 0,-0.5"/>
<text text-anchor="middle" x="26" y="-8.5" font-family="Helvetica,sans-Serif" font-size="10.00">memory</text>
</g>
<!-- Node0&#45;&gt;Node2 -->
<g id="edge10" class="edge"><title>Node0&#45;&gt;Node2</title>
<path fill="none" stroke="midnightblue" d="M83.3383,-118.755C63.0004,-110.648 42.5347,-98.395 30,-80 20.5234,-66.0929 20.2298,-46.7141 21.9016,-32.033"/>
<polygon fill="midnightblue" stroke="midnightblue" points="25.4007,-32.303 23.4437,-21.8905 18.4802,-31.2508 25.4007,-32.303"/>
</g>
<!-- Node4 -->
<g id="node9" class="node"><title>Node4</title>
<polygon fill="white" stroke="#bfbfbf" points="175,-58.5 175,-79.5 219,-79.5 219,-58.5 175,-58.5"/>
<text text-anchor="middle" x="197" y="-66.5" font-family="Helvetica,sans-Serif" font-size="10.00">vector</text>
</g>
<!-- Node0&#45;&gt;Node4 -->
<g id="edge8" class="edge"><title>Node0&#45;&gt;Node4</title>
<path fill="none" stroke="midnightblue" d="M160.137,-116.922C166.978,-108.029 175.362,-97.1296 182.405,-87.9738"/>
<polygon fill="midnightblue" stroke="midnightblue" points="185.329,-89.9123 188.652,-79.8521 179.781,-85.6443 185.329,-89.9123"/>
</g>
<!-- Node5 -->
<g id="node12" class="node"><title>Node5</title>
<polygon fill="white" stroke="#bfbfbf" points="237,-58.5 237,-79.5 299,-79.5 299,-58.5 237,-58.5"/>
<text text-anchor="middle" x="268" y="-66.5" font-family="Helvetica,sans-Serif" font-size="10.00">type_traits</text>
</g>
<!-- Node0&#45;&gt;Node5 -->
<g id="edge12" class="edge"><title>Node0&#45;&gt;Node5</title>
<path fill="none" stroke="midnightblue" d="M178.791,-116.922C197.514,-106.864 221.012,-94.2415 239.191,-84.476"/>
<polygon fill="midnightblue" stroke="midnightblue" points="241.006,-87.474 248.159,-79.6584 237.693,-81.3074 241.006,-87.474"/>
</g>
<!-- Node1&#45;&gt;Node2 -->
<g id="edge4" class="edge"><title>Node1&#45;&gt;Node2</title>
<path fill="none" stroke="midnightblue" d="M84.7941,-58.3619C74.2388,-49.859 59.2423,-37.7785 47.0371,-27.9466"/>
<polygon fill="midnightblue" stroke="midnightblue" points="49.1054,-25.1183 39.1222,-21.5707 44.7141,-30.5696 49.1054,-25.1183"/>
</g>
<!-- Node3 -->
<g id="node7" class="node"><title>Node3</title>
<polygon fill="white" stroke="#bfbfbf" points="83.5,-0.5 83.5,-21.5 112.5,-21.5 112.5,-0.5 83.5,-0.5"/>
<text text-anchor="middle" x="98" y="-8.5" font-family="Helvetica,sans-Serif" font-size="10.00">list</text>
</g>
<!-- Node1&#45;&gt;Node3 -->
<g id="edge6" class="edge"><title>Node1&#45;&gt;Node3</title>
<path fill="none" stroke="midnightblue" d="M98,-58.3619C98,-50.9219 98,-40.7427 98,-31.7276"/>
<polygon fill="midnightblue" stroke="midnightblue" points="101.5,-31.5706 98,-21.5707 94.5001,-31.5707 101.5,-31.5706"/>
</g>
</g>
</svg>
