<?xml version="1.0" encoding="UTF-8" standalone="no"?>
<!DOCTYPE svg PUBLIC "-//W3C//DTD SVG 1.1//EN"
 "http://www.w3.org/Graphics/SVG/1.1/DTD/svg11.dtd">
<!-- Generated by graphviz version 2.26.3 (20100126.1600)
 -->
<!-- Title: src/base/matrixstack.cc Pages: 1 -->
<svg width="332pt" height="146pt"
 viewBox="0.00 0.00 332.00 146.00" xmlns="http://www.w3.org/2000/svg" xmlns:xlink="http://www.w3.org/1999/xlink">
<g id="graph1" class="graph" transform="scale(1 1) rotate(0) translate(4 142)">
<title>src/base/matrixstack.cc</title>
<polygon fill="white" stroke="white" points="-4,5 -4,-142 329,-142 329,5 -4,5"/>
<!-- Node0 -->
<g id="node1" class="node"><title>Node0</title>
<polygon fill="#bfbfbf" stroke="black" points="191,-116.5 191,-137.5 313,-137.5 313,-116.5 191,-116.5"/>
<text text-anchor="middle" x="252" y="-124.5" font-family="Helvetica,sans-Serif" font-size="10.00">src/base/matrixstack.cc</text>
</g>
<!-- Node1 -->
<g id="node3" class="node"><title>Node1</title>
<a xlink:href="matrixstack_8h.html" target="_top" xlink:title="matrixstack.h">
<polygon fill="white" stroke="black" points="146,-58.5 146,-79.5 222,-79.5 222,-58.5 146,-58.5"/>
<text text-anchor="middle" x="184" y="-66.5" font-family="Helvetica,sans-Serif" font-size="10.00">matrixstack.h</text>
</a>
</g>
<!-- Node0&#45;&gt;Node1 -->
<g id="edge2" class="edge"><title>Node0&#45;&gt;Node1</title>
<path fill="none" stroke="midnightblue" d="M239.528,-116.362C229.655,-107.941 215.667,-96.0105 204.202,-86.2308"/>
<polygon fill="midnightblue" stroke="midnightblue" points="206.273,-83.3972 196.393,-79.5707 201.73,-88.7231 206.273,-83.3972"/>
</g>
<!-- Node4 -->
<g id="node9" class="node"><title>Node4</title>
<polygon fill="white" stroke="#bfbfbf" points="221.5,-0.5 221.5,-21.5 286.5,-21.5 286.5,-0.5 221.5,-0.5"/>
<text text-anchor="middle" x="254" y="-8.5" font-family="Helvetica,sans-Serif" font-size="10.00">TVector2.h</text>
</g>
<!-- Node0&#45;&gt;Node4 -->
<g id="edge14" class="edge"><title>Node0&#45;&gt;Node4</title>
<path fill="none" stroke="midnightblue" d="M252.185,-116.295C252.515,-97.1314 253.213,-56.654 253.641,-31.8434"/>
<polygon fill="midnightblue" stroke="midnightblue" points="257.143,-31.7381 253.816,-21.6792 250.144,-31.6173 257.143,-31.7381"/>
</g>
<!-- Node6 -->
<g id="node13" class="node"><title>Node6</title>
<polygon fill="white" stroke="#bfbfbf" points="280,-58.5 280,-79.5 324,-79.5 324,-58.5 280,-58.5"/>
<text text-anchor="middle" x="302" y="-66.5" font-family="Helvetica,sans-Serif" font-size="10.00">cmath</text>
</g>
<!-- Node0&#45;&gt;Node6 -->
<g id="edge12" class="edge"><title>Node0&#45;&gt;Node6</title>
<path fill="none" stroke="midnightblue" d="M261.171,-116.362C268.148,-108.268 277.921,-96.9318 286.156,-87.3796"/>
<polygon fill="midnightblue" stroke="midnightblue" points="289.009,-89.4301 292.887,-79.5707 283.707,-84.8595 289.009,-89.4301"/>
</g>
<!-- Node2 -->
<g id="node5" class="node"><title>Node2</title>
<polygon fill="white" stroke="#bfbfbf" points="-0.5,-0.5 -0.5,-21.5 64.5,-21.5 64.5,-0.5 -0.5,-0.5"/>
<text text-anchor="middle" x="32" y="-8.5" font-family="Helvetica,sans-Serif" font-size="10.00">TVectorT.h</text>
</g>
<!-- Node1&#45;&gt;Node2 -->
<g id="edge4" class="edge"><title>Node1&#45;&gt;Node2</title>
<path fill="none" stroke="midnightblue" d="M156.474,-58.4966C132.016,-49.1639 96.0619,-35.4447 69.0761,-25.1475"/>
<polygon fill="midnightblue" stroke="midnightblue" points="70.1684,-21.8182 59.5777,-21.5231 67.6728,-28.3582 70.1684,-21.8182"/>
</g>
<!-- Node3 -->
<g id="node7" class="node"><title>Node3</title>
<polygon fill="white" stroke="#bfbfbf" points="82,-0.5 82,-21.5 146,-21.5 146,-0.5 82,-0.5"/>
<text text-anchor="middle" x="114" y="-8.5" font-family="Helvetica,sans-Serif" font-size="10.00">TMatrixT.h</text>
</g>
<!-- Node1&#45;&gt;Node3 -->
<g id="edge6" class="edge"><title>Node1&#45;&gt;Node3</title>
<path fill="none" stroke="midnightblue" d="M171.161,-58.3619C160.998,-49.9408 146.599,-38.0105 134.796,-28.2308"/>
<polygon fill="midnightblue" stroke="midnightblue" points="136.691,-25.2558 126.758,-21.5707 132.225,-30.6459 136.691,-25.2558"/>
</g>
<!-- Node1&#45;&gt;Node4 -->
<g id="edge8" class="edge"><title>Node1&#45;&gt;Node4</title>
<path fill="none" stroke="midnightblue" d="M196.839,-58.3619C207.002,-49.9408 221.401,-38.0105 233.204,-28.2308"/>
<polygon fill="midnightblue" stroke="midnightblue" points="235.775,-30.6459 241.242,-21.5707 231.309,-25.2558 235.775,-30.6459"/>
</g>
<!-- Node5 -->
<g id="node11" class="node"><title>Node5</title>
<polygon fill="white" stroke="#bfbfbf" points="163.5,-0.5 163.5,-21.5 204.5,-21.5 204.5,-0.5 163.5,-0.5"/>
<text text-anchor="middle" x="184" y="-8.5" font-family="Helvetica,sans-Serif" font-size="10.00">stack</text>
</g>
<!-- Node1&#45;&gt;Node5 -->
<g id="edge10" class="edge"><title>Node1&#45;&gt;Node5</title>
<path fill="none" stroke="midnightblue" d="M184,-58.3619C184,-50.9219 184,-40.7427 184,-31.7276"/>
<polygon fill="midnightblue" stroke="midnightblue" points="187.5,-31.5706 184,-21.5707 180.5,-31.5707 187.5,-31.5706"/>
</g>
</g>
</svg>
