<?xml version="1.0" encoding="UTF-8" standalone="no"?>
<!DOCTYPE svg PUBLIC "-//W3C//DTD SVG 1.1//EN"
 "http://www.w3.org/Graphics/SVG/1.1/DTD/svg11.dtd">
<!-- Generated by graphviz version 2.26.3 (20100126.1600)
 -->
<!-- Title: src/base/matrixstack.h Pages: 1 -->
<svg width="472pt" height="174pt"
 viewBox="0.00 0.00 472.00 174.00" xmlns="http://www.w3.org/2000/svg" xmlns:xlink="http://www.w3.org/1999/xlink">
<g id="graph1" class="graph" transform="scale(1 1) rotate(0) translate(4 170)">
<title>src/base/matrixstack.h</title>
<polygon fill="white" stroke="white" points="-4,5 -4,-170 469,-170 469,5 -4,5"/>
<!-- Node5 -->
<g id="node1" class="node"><title>Node5</title>
<polygon fill="#bfbfbf" stroke="black" points="137,-144.5 137,-165.5 253,-165.5 253,-144.5 137,-144.5"/>
<text text-anchor="middle" x="195" y="-152.5" font-family="Helvetica,sans-Serif" font-size="10.00">src/base/matrixstack.h</text>
</g>
<!-- Node6 -->
<g id="node3" class="node"><title>Node6</title>
<a xlink:href="matrixstack_8cc.html" target="_top" xlink:title="src/base/matrixstack.cc">
<polygon fill="white" stroke="black" points="0,-79.5 0,-100.5 122,-100.5 122,-79.5 0,-79.5"/>
<text text-anchor="middle" x="61" y="-87.5" font-family="Helvetica,sans-Serif" font-size="10.00">src/base/matrixstack.cc</text>
</a>
</g>
<!-- Node5&#45;&gt;Node6 -->
<g id="edge2" class="edge"><title>Node5&#45;&gt;Node6</title>
<path fill="none" stroke="midnightblue" d="M164.149,-140.035C139.274,-127.969 104.91,-111.3 82.8183,-100.584"/>
<polygon fill="midnightblue" stroke="midnightblue" points="162.647,-143.197 173.172,-144.412 165.703,-136.898 162.647,-143.197"/>
</g>
<!-- Node7 -->
<g id="node5" class="node"><title>Node7</title>
<a xlink:href="_t_h2_draw_tool_8h.html" target="_top" xlink:title="src/root&#45;addons/cbtaps\l_display/TH2DrawTool.h">
<polygon fill="white" stroke="black" points="177.5,-73 177.5,-107 302.5,-107 302.5,-73 177.5,-73"/>
<text text-anchor="start" x="185.5" y="-94" font-family="Helvetica,sans-Serif" font-size="10.00">src/root&#45;addons/cbtaps</text>
<text text-anchor="middle" x="240" y="-81" font-family="Helvetica,sans-Serif" font-size="10.00">_display/TH2DrawTool.h</text>
</a>
</g>
<!-- Node5&#45;&gt;Node7 -->
<g id="edge4" class="edge"><title>Node5&#45;&gt;Node7</title>
<path fill="none" stroke="midnightblue" d="M208.252,-135.858C214.559,-126.748 222.04,-115.943 228.155,-107.11"/>
<polygon fill="midnightblue" stroke="midnightblue" points="205.245,-134.052 202.431,-144.267 211.001,-138.037 205.245,-134.052"/>
</g>
<!-- Node8 -->
<g id="node7" class="node"><title>Node8</title>
<a xlink:href="_t_h2_c_b_8cc.html" target="_top" xlink:title="src/root&#45;addons/cbtaps\l_display/TH2CB.cc">
<polygon fill="white" stroke="black" points="66,-1 66,-35 182,-35 182,-1 66,-1"/>
<text text-anchor="start" x="74" y="-22" font-family="Helvetica,sans-Serif" font-size="10.00">src/root&#45;addons/cbtaps</text>
<text text-anchor="middle" x="124" y="-9" font-family="Helvetica,sans-Serif" font-size="10.00">_display/TH2CB.cc</text>
</a>
</g>
<!-- Node5&#45;&gt;Node8 -->
<g id="edge12" class="edge"><title>Node5&#45;&gt;Node8</title>
<path fill="none" stroke="midnightblue" d="M183.841,-135.261C179.175,-126.896 173.745,-117.015 169,-108 155.738,-82.8019 141.121,-53.205 132.251,-35.0265"/>
<polygon fill="midnightblue" stroke="midnightblue" points="180.936,-137.234 188.882,-144.242 187.04,-133.809 180.936,-137.234"/>
</g>
<!-- Node11 -->
<g id="node14" class="node"><title>Node11</title>
<a xlink:href="_t_h2_crystals_8cc.html" target="_top" xlink:title="src/root&#45;addons/cbtaps\l_display/TH2Crystals.cc">
<polygon fill="white" stroke="black" points="319.5,-73 319.5,-107 444.5,-107 444.5,-73 319.5,-73"/>
<text text-anchor="start" x="327.5" y="-94" font-family="Helvetica,sans-Serif" font-size="10.00">src/root&#45;addons/cbtaps</text>
<text text-anchor="middle" x="382" y="-81" font-family="Helvetica,sans-Serif" font-size="10.00">_display/TH2Crystals.cc</text>
</a>
</g>
<!-- Node5&#45;&gt;Node11 -->
<g id="edge14" class="edge"><title>Node5&#45;&gt;Node11</title>
<path fill="none" stroke="midnightblue" d="M235.141,-141.047C263.776,-131.094 302.447,-117.652 332.919,-107.06"/>
<polygon fill="midnightblue" stroke="midnightblue" points="233.757,-137.823 225.461,-144.412 236.056,-144.435 233.757,-137.823"/>
</g>
<!-- Node7&#45;&gt;Node8 -->
<g id="edge6" class="edge"><title>Node7&#45;&gt;Node8</title>
<path fill="none" stroke="midnightblue" d="M203.995,-67.6522C187.135,-57.1871 167.363,-44.9152 151.695,-35.19"/>
<polygon fill="midnightblue" stroke="midnightblue" points="202.167,-70.6371 212.51,-72.937 205.859,-64.6896 202.167,-70.6371"/>
</g>
<!-- Node9 -->
<g id="node9" class="node"><title>Node9</title>
<a xlink:href="_t_h2_draw_tool_8cc.html" target="_top" xlink:title="src/root&#45;addons/cbtaps\l_display/TH2DrawTool.cc">
<polygon fill="white" stroke="black" points="200,-1 200,-35 330,-35 330,-1 200,-1"/>
<text text-anchor="start" x="208" y="-22" font-family="Helvetica,sans-Serif" font-size="10.00">src/root&#45;addons/cbtaps</text>
<text text-anchor="middle" x="265" y="-9" font-family="Helvetica,sans-Serif" font-size="10.00">_display/TH2DrawTool.cc</text>
</a>
</g>
<!-- Node7&#45;&gt;Node9 -->
<g id="edge8" class="edge"><title>Node7&#45;&gt;Node9</title>
<path fill="none" stroke="midnightblue" d="M249.266,-63.3147C252.498,-54.0053 256.04,-43.8034 258.944,-35.4407"/>
<polygon fill="midnightblue" stroke="midnightblue" points="245.898,-62.3422 245.925,-72.937 252.511,-64.6383 245.898,-62.3422"/>
</g>
<!-- Node10 -->
<g id="node11" class="node"><title>Node10</title>
<a xlink:href="_t_h2_t_a_p_s_8cc.html" target="_top" xlink:title="src/root&#45;addons/cbtaps\l_display/TH2TAPS.cc">
<polygon fill="white" stroke="black" points="348,-1 348,-35 464,-35 464,-1 348,-1"/>
<text text-anchor="start" x="356" y="-22" font-family="Helvetica,sans-Serif" font-size="10.00">src/root&#45;addons/cbtaps</text>
<text text-anchor="middle" x="406" y="-9" font-family="Helvetica,sans-Serif" font-size="10.00">_display/TH2TAPS.cc</text>
</a>
</g>
<!-- Node7&#45;&gt;Node10 -->
<g id="edge10" class="edge"><title>Node7&#45;&gt;Node10</title>
<path fill="none" stroke="midnightblue" d="M288.592,-68.9238C313.435,-58.1485 343.275,-45.2059 366.655,-35.0651"/>
<polygon fill="midnightblue" stroke="midnightblue" points="287.121,-65.7468 279.34,-72.937 289.907,-72.1687 287.121,-65.7468"/>
</g>
</g>
</svg>
