<?xml version="1.0" encoding="UTF-8" standalone="no"?>
<!DOCTYPE svg PUBLIC "-//W3C//DTD SVG 1.1//EN"
 "http://www.w3.org/Graphics/SVG/1.1/DTD/svg11.dtd">
<!-- Generated by graphviz version 2.26.3 (20100126.1600)
 -->
<!-- Title: src/analysis/physics/omega/pi0eta_lost_g.h Pages: 1 -->
<svg width="3553pt" height="638pt"
 viewBox="0.00 0.00 3553.00 638.00" xmlns="http://www.w3.org/2000/svg" xmlns:xlink="http://www.w3.org/1999/xlink">
<g id="graph1" class="graph" transform="scale(1 1) rotate(0) translate(4 634)">
<title>src/analysis/physics/omega/pi0eta_lost_g.h</title>
<polygon fill="white" stroke="white" points="-4,5 -4,-634 3550,-634 3550,5 -4,5"/>
<!-- Node0 -->
<g id="node1" class="node"><title>Node0</title>
<polygon fill="#bfbfbf" stroke="black" points="2982,-595 2982,-629 3100,-629 3100,-595 2982,-595"/>
<text text-anchor="start" x="2990" y="-616" font-family="Helvetica,sans-Serif" font-size="10.00">src/analysis/physics</text>
<text text-anchor="middle" x="3041" y="-603" font-family="Helvetica,sans-Serif" font-size="10.00">/omega/pi0eta_lost_g.h</text>
</g>
<!-- Node1 -->
<g id="node3" class="node"><title>Node1</title>
<a xlink:href="_physics_8h.html" target="_top" xlink:title="analysis/physics/Physics.h">
<polygon fill="white" stroke="black" points="2135,-536.5 2135,-557.5 2271,-557.5 2271,-536.5 2135,-536.5"/>
<text text-anchor="middle" x="2203" y="-544.5" font-family="Helvetica,sans-Serif" font-size="10.00">analysis/physics/Physics.h</text>
</a>
</g>
<!-- Node0&#45;&gt;Node1 -->
<g id="edge2" class="edge"><title>Node0&#45;&gt;Node1</title>
<path fill="none" stroke="midnightblue" d="M2981.74,-607.403C2833.68,-595.919 2447.57,-565.97 2281.17,-553.063"/>
<polygon fill="midnightblue" stroke="midnightblue" points="2281.25,-549.559 2271.01,-552.275 2280.71,-556.538 2281.25,-549.559"/>
</g>
<!-- Node4 -->
<g id="node9" class="node"><title>Node4</title>
<a xlink:href="interval_8h.html" target="_top" xlink:title="base/interval.h">
<polygon fill="white" stroke="black" points="1547,-174.5 1547,-195.5 1627,-195.5 1627,-174.5 1547,-174.5"/>
<text text-anchor="middle" x="1587" y="-182.5" font-family="Helvetica,sans-Serif" font-size="10.00">base/interval.h</text>
</a>
</g>
<!-- Node0&#45;&gt;Node4 -->
<g id="edge334" class="edge"><title>Node0&#45;&gt;Node4</title>
<path fill="none" stroke="midnightblue" d="M2981.83,-610.599C2692.99,-603.38 1445,-567.638 1445,-489 1445,-489 1445,-489 1445,-315 1445,-257.98 1508.06,-219.225 1550.13,-199.713"/>
<polygon fill="midnightblue" stroke="midnightblue" points="1551.59,-202.897 1559.28,-195.617 1548.73,-196.508 1551.59,-202.897"/>
</g>
<!-- Node20 -->
<g id="node48" class="node"><title>Node20</title>
<polygon fill="white" stroke="#bfbfbf" points="2047,-239.5 2047,-260.5 2103,-260.5 2103,-239.5 2047,-239.5"/>
<text text-anchor="middle" x="2075" y="-247.5" font-family="Helvetica,sans-Serif" font-size="10.00">Rtypes.h</text>
</g>
<!-- Node0&#45;&gt;Node20 -->
<g id="edge354" class="edge"><title>Node0&#45;&gt;Node20</title>
<path fill="none" stroke="midnightblue" d="M2993.09,-594.915C2909.44,-565.833 2730.79,-507.045 2575,-478 2486.18,-461.439 2244.57,-493.017 2170,-442 2139.24,-420.956 2098.41,-315.17 2082.14,-270.237"/>
<polygon fill="midnightblue" stroke="midnightblue" points="2085.38,-268.913 2078.71,-260.679 2078.79,-271.274 2085.38,-268.913"/>
</g>
<!-- Node41 -->
<g id="node104" class="node"><title>Node41</title>
<a xlink:href="base_2std__ext_2math_8h.html" target="_top" xlink:title="base/std_ext/math.h">
<polygon fill="white" stroke="black" points="580,-116.5 580,-137.5 686,-137.5 686,-116.5 580,-116.5"/>
<text text-anchor="middle" x="633" y="-124.5" font-family="Helvetica,sans-Serif" font-size="10.00">base/std_ext/math.h</text>
</a>
</g>
<!-- Node0&#45;&gt;Node41 -->
<g id="edge336" class="edge"><title>Node0&#45;&gt;Node41</title>
<path fill="none" stroke="midnightblue" d="M2981.81,-611.154C2562.81,-604.976 61,-564.911 61,-489 61,-489 61,-489 61,-315 61,-206.605 158.778,-212.777 260,-174 386.892,-125.39 431.242,-156.618 569.793,-138.056"/>
<polygon fill="midnightblue" stroke="midnightblue" points="570.518,-141.489 579.934,-136.632 569.545,-134.557 570.518,-141.489"/>
</g>
<!-- Node55 -->
<g id="node188" class="node"><title>Node55</title>
<polygon fill="white" stroke="#bfbfbf" points="2982.5,-174.5 2982.5,-195.5 3017.5,-195.5 3017.5,-174.5 2982.5,-174.5"/>
<text text-anchor="middle" x="3000" y="-182.5" font-family="Helvetica,sans-Serif" font-size="10.00">map</text>
</g>
<!-- Node0&#45;&gt;Node55 -->
<g id="edge366" class="edge"><title>Node0&#45;&gt;Node55</title>
<path fill="none" stroke="midnightblue" d="M3100.05,-606.459C3169.37,-596.329 3275,-567.94 3275,-489 3275,-489 3275,-489 3275,-431 3275,-323.37 3222.85,-296.92 3137,-232 3104.13,-207.145 3057.21,-194.852 3027.69,-189.223"/>
<polygon fill="midnightblue" stroke="midnightblue" points="3028.12,-185.744 3017.66,-187.439 3026.89,-192.636 3028.12,-185.744"/>
</g>
<!-- Node57 -->
<g id="node193" class="node"><title>Node57</title>
<a xlink:href="_tree_8h.html" target="_top" xlink:title="base/Tree.h">
<polygon fill="white" stroke="black" points="2570,-304.5 2570,-325.5 2638,-325.5 2638,-304.5 2570,-304.5"/>
<text text-anchor="middle" x="2604" y="-312.5" font-family="Helvetica,sans-Serif" font-size="10.00">base/Tree.h</text>
</a>
</g>
<!-- Node0&#45;&gt;Node57 -->
<g id="edge332" class="edge"><title>Node0&#45;&gt;Node57</title>
<path fill="none" stroke="midnightblue" d="M3056.21,-594.931C3086.46,-558.861 3147.67,-473.793 3104,-420 3046.66,-349.369 2760.17,-324.513 2648.59,-317.423"/>
<polygon fill="midnightblue" stroke="midnightblue" points="2648.54,-313.914 2638.35,-316.792 2648.11,-320.901 2648.54,-313.914"/>
</g>
<!-- Node67 -->
<g id="node237" class="node"><title>Node67</title>
<a xlink:href="_wrap_t_tree_8h.html" target="_top" xlink:title="base/WrapTTree.h">
<polygon fill="white" stroke="black" points="3303,-239.5 3303,-260.5 3401,-260.5 3401,-239.5 3303,-239.5"/>
<text text-anchor="middle" x="3352" y="-247.5" font-family="Helvetica,sans-Serif" font-size="10.00">base/WrapTTree.h</text>
</a>
</g>
<!-- Node0&#45;&gt;Node67 -->
<g id="edge338" class="edge"><title>Node0&#45;&gt;Node67</title>
<path fill="none" stroke="midnightblue" d="M3100.03,-604.523C3163.42,-595.57 3259.06,-579.102 3289,-558 3318.54,-537.183 3332,-525.134 3332,-489 3332,-489 3332,-489 3332,-373 3332,-336.603 3340.64,-294.924 3346.56,-270.624"/>
<polygon fill="midnightblue" stroke="midnightblue" points="3349.99,-271.316 3349.05,-260.764 3343.21,-269.603 3349.99,-271.316"/>
</g>
<!-- Node68 -->
<g id="node239" class="node"><title>Node68</title>
<polygon fill="white" stroke="#bfbfbf" points="3495,-174.5 3495,-195.5 3545,-195.5 3545,-174.5 3495,-174.5"/>
<text text-anchor="middle" x="3520" y="-182.5" font-family="Helvetica,sans-Serif" font-size="10.00">TTree.h</text>
</g>
<!-- Node0&#45;&gt;Node68 -->
<g id="edge350" class="edge"><title>Node0&#45;&gt;Node68</title>
<path fill="none" stroke="midnightblue" d="M3100.18,-608.959C3226.68,-600.84 3512,-573.196 3512,-489 3512,-489 3512,-489 3512,-315 3512,-276.393 3515.56,-231.459 3517.93,-205.809"/>
<polygon fill="midnightblue" stroke="midnightblue" points="3521.42,-206.06 3518.89,-195.772 3514.45,-205.394 3521.42,-206.06"/>
</g>
<!-- Node69 -->
<g id="node246" class="node"><title>Node69</title>
<polygon fill="white" stroke="#bfbfbf" points="3003,-420.5 3003,-441.5 3095,-441.5 3095,-420.5 3003,-420.5"/>
<text text-anchor="middle" x="3049" y="-428.5" font-family="Helvetica,sans-Serif" font-size="10.00">TLorentzVector.h</text>
</g>
<!-- Node0&#45;&gt;Node69 -->
<g id="edge352" class="edge"><title>Node0&#45;&gt;Node69</title>
<path fill="none" stroke="midnightblue" d="M3044.02,-594.688C3048.13,-569.188 3054.78,-520.005 3053,-478 3052.64,-469.45 3051.9,-460.049 3051.16,-451.916"/>
<polygon fill="midnightblue" stroke="midnightblue" points="3054.63,-451.426 3050.18,-441.811 3047.66,-452.102 3054.63,-451.426"/>
</g>
<!-- Node70 -->
<g id="node249" class="node"><title>Node70</title>
<a xlink:href="_t_simple_particle_8h.html" target="_top" xlink:title="tree/TSimpleParticle.h">
<polygon fill="white" stroke="black" points="2931.5,-478.5 2931.5,-499.5 3044.5,-499.5 3044.5,-478.5 2931.5,-478.5"/>
<text text-anchor="middle" x="2988" y="-486.5" font-family="Helvetica,sans-Serif" font-size="10.00">tree/TSimpleParticle.h</text>
</a>
</g>
<!-- Node0&#45;&gt;Node70 -->
<g id="edge356" class="edge"><title>Node0&#45;&gt;Node70</title>
<path fill="none" stroke="midnightblue" d="M3033.63,-594.897C3023.97,-572.472 3007.04,-533.183 2996.74,-509.283"/>
<polygon fill="midnightblue" stroke="midnightblue" points="2999.82,-507.586 2992.65,-499.787 2993.39,-510.356 2999.82,-507.586"/>
</g>
<!-- Node2 -->
<g id="node5" class="node"><title>Node2</title>
<a xlink:href="manager__t_8h.html" target="_top" xlink:title="analysis/physics/manager_t.h">
<polygon fill="white" stroke="black" points="1914,-478.5 1914,-499.5 2060,-499.5 2060,-478.5 1914,-478.5"/>
<text text-anchor="middle" x="1987" y="-486.5" font-family="Helvetica,sans-Serif" font-size="10.00">analysis/physics/manager_t.h</text>
</a>
</g>
<!-- Node1&#45;&gt;Node2 -->
<g id="edge4" class="edge"><title>Node1&#45;&gt;Node2</title>
<path fill="none" stroke="midnightblue" d="M2163.88,-536.497C2128.06,-526.877 2074.88,-512.598 2036.19,-502.209"/>
<polygon fill="midnightblue" stroke="midnightblue" points="2036.75,-498.736 2026.19,-499.523 2034.94,-505.497 2036.75,-498.736"/>
</g>
<!-- Node3 -->
<g id="node7" class="node"><title>Node3</title>
<a xlink:href="_histogram_factory_8h.html" target="_top" xlink:title="analysis/plot/HistogramFactory.h">
<polygon fill="white" stroke="black" points="1517.5,-304.5 1517.5,-325.5 1678.5,-325.5 1678.5,-304.5 1517.5,-304.5"/>
<text text-anchor="middle" x="1598" y="-312.5" font-family="Helvetica,sans-Serif" font-size="10.00">analysis/plot/HistogramFactory.h</text>
</a>
</g>
<!-- Node1&#45;&gt;Node3 -->
<g id="edge6" class="edge"><title>Node1&#45;&gt;Node3</title>
<path fill="none" stroke="midnightblue" d="M2134.71,-543.305C2012.33,-536.229 1765.15,-519.705 1731,-500 1664.32,-461.525 1622.16,-374.637 1605.77,-335.176"/>
<polygon fill="midnightblue" stroke="midnightblue" points="1608.98,-333.771 1602,-325.802 1602.49,-336.386 1608.98,-333.771"/>
</g>
<!-- Node15 -->
<g id="node34" class="node"><title>Node15</title>
<polygon fill="white" stroke="#bfbfbf" points="2582.5,-116.5 2582.5,-137.5 2623.5,-137.5 2623.5,-116.5 2582.5,-116.5"/>
<text text-anchor="middle" x="2603" y="-124.5" font-family="Helvetica,sans-Serif" font-size="10.00">string</text>
</g>
<!-- Node1&#45;&gt;Node15 -->
<g id="edge324" class="edge"><title>Node1&#45;&gt;Node15</title>
<path fill="none" stroke="midnightblue" d="M2271.01,-546.115C2460.1,-543.252 2982.88,-532.463 3053,-500 3146.18,-456.859 3173.35,-423.684 3205,-326 3212.57,-302.65 3210.17,-252.004 3197,-232 3168.32,-188.442 3144.73,-189.717 3095,-174 3008.23,-146.575 2727.51,-132.331 2633.79,-128.253"/>
<polygon fill="midnightblue" stroke="midnightblue" points="2633.7,-124.746 2623.56,-127.816 2633.4,-131.74 2633.7,-124.746"/>
</g>
<!-- Node16 -->
<g id="node37" class="node"><title>Node16</title>
<a xlink:href="_root_draw_8h.html" target="_top" xlink:title="analysis/plot/RootDraw.h">
<polygon fill="white" stroke="black" points="2425.5,-304.5 2425.5,-325.5 2552.5,-325.5 2552.5,-304.5 2425.5,-304.5"/>
<text text-anchor="middle" x="2489" y="-312.5" font-family="Helvetica,sans-Serif" font-size="10.00">analysis/plot/RootDraw.h</text>
</a>
</g>
<!-- Node1&#45;&gt;Node16 -->
<g id="edge40" class="edge"><title>Node1&#45;&gt;Node16</title>
<path fill="none" stroke="midnightblue" d="M2271.25,-538.536C2302.73,-531.993 2339.19,-520.425 2367,-500 2426.81,-456.077 2465.74,-373.332 2481.31,-335.191"/>
<polygon fill="midnightblue" stroke="midnightblue" points="2484.65,-336.271 2485.08,-325.685 2478.14,-333.691 2484.65,-336.271"/>
</g>
<!-- Node17 -->
<g id="node40" class="node"><title>Node17</title>
<polygon fill="white" stroke="#bfbfbf" points="2158.5,-239.5 2158.5,-260.5 2187.5,-260.5 2187.5,-239.5 2158.5,-239.5"/>
<text text-anchor="middle" x="2173" y="-247.5" font-family="Helvetica,sans-Serif" font-size="10.00">list</text>
</g>
<!-- Node1&#45;&gt;Node17 -->
<g id="edge322" class="edge"><title>Node1&#45;&gt;Node17</title>
<path fill="none" stroke="midnightblue" d="M2214.96,-536.144C2244.21,-508.224 2315.3,-431.252 2292,-362 2281.68,-331.333 2271.75,-325.974 2248,-304 2226.28,-283.906 2215.29,-286.254 2192,-268 2191.73,-267.79 2191.46,-267.576 2191.19,-267.36"/>
<polygon fill="midnightblue" stroke="midnightblue" points="2193.36,-264.607 2183.54,-260.645 2188.75,-269.87 2193.36,-264.607"/>
</g>
<!-- Node18 -->
<g id="node43" class="node"><title>Node18</title>
<polygon fill="white" stroke="#bfbfbf" points="2085,-174.5 2085,-195.5 2137,-195.5 2137,-174.5 2085,-174.5"/>
<text text-anchor="middle" x="2111" y="-182.5" font-family="Helvetica,sans-Serif" font-size="10.00">memory</text>
</g>
<!-- Node1&#45;&gt;Node18 -->
<g id="edge328" class="edge"><title>Node1&#45;&gt;Node18</title>
<path fill="none" stroke="midnightblue" d="M2179.36,-536.492C2162.25,-528.162 2139.21,-515.384 2122,-500 2096.2,-476.945 2005.17,-351.711 1997,-326 1983.72,-284.205 1997.83,-264.745 2027,-232 2040.1,-217.293 2058.95,-206.165 2075.47,-198.439"/>
<polygon fill="midnightblue" stroke="midnightblue" points="2077.14,-201.528 2084.86,-194.281 2074.3,-195.126 2077.14,-201.528"/>
</g>
<!-- Node19 -->
<g id="node45" class="node"><title>Node19</title>
<polygon fill="white" stroke="#bfbfbf" points="2795.5,-174.5 2795.5,-195.5 2854.5,-195.5 2854.5,-174.5 2795.5,-174.5"/>
<text text-anchor="middle" x="2825" y="-182.5" font-family="Helvetica,sans-Serif" font-size="10.00">functional</text>
</g>
<!-- Node1&#45;&gt;Node19 -->
<g id="edge330" class="edge"><title>Node1&#45;&gt;Node19</title>
<path fill="none" stroke="midnightblue" d="M2271.01,-544.266C2346.48,-539.889 2471.31,-528.64 2575,-500 2698.73,-465.824 3033.79,-375.46 3104,-268 3112.75,-254.606 3114.33,-244.217 3104,-232 3088.71,-213.924 2938.25,-196.421 2864.86,-188.877"/>
<polygon fill="midnightblue" stroke="midnightblue" points="2864.91,-185.365 2854.61,-187.838 2864.21,-192.33 2864.91,-185.365"/>
</g>
<!-- Node21 -->
<g id="node50" class="node"><title>Node21</title>
<polygon fill="white" stroke="#bfbfbf" points="2515.5,-478.5 2515.5,-499.5 2566.5,-499.5 2566.5,-478.5 2515.5,-478.5"/>
<text text-anchor="middle" x="2541" y="-486.5" font-family="Helvetica,sans-Serif" font-size="10.00">TH1D.h</text>
</g>
<!-- Node1&#45;&gt;Node21 -->
<g id="edge56" class="edge"><title>Node1&#45;&gt;Node21</title>
<path fill="none" stroke="midnightblue" d="M2271.12,-538.643C2332,-530.617 2423.46,-517.185 2502,-500 2503.07,-499.767 2504.14,-499.522 2505.23,-499.267"/>
<polygon fill="midnightblue" stroke="midnightblue" points="2506.26,-502.617 2515.1,-496.771 2504.54,-495.831 2506.26,-502.617"/>
</g>
<!-- Node22 -->
<g id="node52" class="node"><title>Node22</title>
<polygon fill="white" stroke="#bfbfbf" points="1739.5,-478.5 1739.5,-499.5 1790.5,-499.5 1790.5,-478.5 1739.5,-478.5"/>
<text text-anchor="middle" x="1765" y="-486.5" font-family="Helvetica,sans-Serif" font-size="10.00">TH2D.h</text>
</g>
<!-- Node1&#45;&gt;Node22 -->
<g id="edge58" class="edge"><title>Node1&#45;&gt;Node22</title>
<path fill="none" stroke="midnightblue" d="M2134.78,-543.176C2056.04,-537.844 1922.69,-525.994 1800.73,-500.079"/>
<polygon fill="midnightblue" stroke="midnightblue" points="1801.36,-496.634 1790.84,-497.942 1799.88,-503.476 1801.36,-496.634"/>
</g>
<!-- Node23 -->
<g id="node54" class="node"><title>Node23</title>
<polygon fill="white" stroke="#bfbfbf" points="1807.5,-478.5 1807.5,-499.5 1858.5,-499.5 1858.5,-478.5 1807.5,-478.5"/>
<text text-anchor="middle" x="1833" y="-486.5" font-family="Helvetica,sans-Serif" font-size="10.00">TH3D.h</text>
</g>
<!-- Node1&#45;&gt;Node23 -->
<g id="edge60" class="edge"><title>Node1&#45;&gt;Node23</title>
<path fill="none" stroke="midnightblue" d="M2134.7,-540.007C2067.45,-532.486 1962.01,-518.996 1872,-500 1870.93,-499.775 1869.85,-499.537 1868.76,-499.288"/>
<polygon fill="midnightblue" stroke="midnightblue" points="1869.44,-495.85 1858.89,-496.825 1867.75,-502.642 1869.44,-495.85"/>
</g>
<!-- Node24 -->
<g id="node56" class="node"><title>Node24</title>
<a xlink:href="_t_event_8h.html" target="_top" xlink:title="tree/TEvent.h">
<polygon fill="white" stroke="black" points="2006,-304.5 2006,-325.5 2082,-325.5 2082,-304.5 2006,-304.5"/>
<text text-anchor="middle" x="2044" y="-312.5" font-family="Helvetica,sans-Serif" font-size="10.00">tree/TEvent.h</text>
</a>
</g>
<!-- Node1&#45;&gt;Node24 -->
<g id="edge62" class="edge"><title>Node1&#45;&gt;Node24</title>
<path fill="none" stroke="midnightblue" d="M2189.07,-536.472C2166.78,-519.001 2122.86,-481.963 2096,-442 2072.98,-407.741 2057.3,-361.686 2049.57,-335.492"/>
<polygon fill="midnightblue" stroke="midnightblue" points="2052.85,-334.233 2046.75,-325.574 2046.12,-336.15 2052.85,-334.233"/>
</g>
<!-- Node25 -->
<g id="node61" class="node"><title>Node25</title>
<a xlink:href="_t_event_data_8h.html" target="_top" xlink:title="tree/TEventData.h">
<polygon fill="white" stroke="black" points="917.5,-478.5 917.5,-499.5 1014.5,-499.5 1014.5,-478.5 917.5,-478.5"/>
<text text-anchor="middle" x="966" y="-486.5" font-family="Helvetica,sans-Serif" font-size="10.00">tree/TEventData.h</text>
</a>
</g>
<!-- Node1&#45;&gt;Node25 -->
<g id="edge70" class="edge"><title>Node1&#45;&gt;Node25</title>
<path fill="none" stroke="midnightblue" d="M2134.73,-543.799C1915.31,-533.511 1230.47,-501.4 1024.91,-491.762"/>
<polygon fill="midnightblue" stroke="midnightblue" points="1024.78,-488.252 1014.63,-491.28 1024.46,-495.245 1024.78,-488.252"/>
</g>
<!-- Node1&#45;&gt;Node55 -->
<g id="edge326" class="edge"><title>Node1&#45;&gt;Node55</title>
<path fill="none" stroke="midnightblue" d="M2271.33,-543.369C2355.81,-537.983 2503.67,-525.618 2628,-500 2714.47,-482.182 2734.58,-470.923 2818,-442 2885.14,-418.721 2902.83,-414.533 2967,-384 3044.38,-347.182 3090.38,-348.03 3121,-268 3126.72,-253.057 3130.18,-245.105 3121,-232 3095.98,-196.274 3068.98,-211.926 3027.14,-197.707"/>
<polygon fill="midnightblue" stroke="midnightblue" points="3028.28,-194.394 3017.69,-194.063 3025.76,-200.925 3028.28,-194.394"/>
</g>
<!-- Node64 -->
<g id="node217" class="node"><title>Node64</title>
<a xlink:href="_options_list_8h.html" target="_top" xlink:title="base/OptionsList.h">
<polygon fill="white" stroke="black" points="1741,-239.5 1741,-260.5 1839,-260.5 1839,-239.5 1741,-239.5"/>
<text text-anchor="middle" x="1790" y="-247.5" font-family="Helvetica,sans-Serif" font-size="10.00">base/OptionsList.h</text>
</a>
</g>
<!-- Node1&#45;&gt;Node64 -->
<g id="edge304" class="edge"><title>Node1&#45;&gt;Node64</title>
<path fill="none" stroke="midnightblue" d="M2134.92,-544.641C2057.65,-540.559 1938.05,-529.533 1905,-500 1881.28,-478.806 1886,-462.808 1886,-431 1886,-431 1886,-431 1886,-373 1886,-326.848 1843.48,-287.647 1815.03,-266.587"/>
<polygon fill="midnightblue" stroke="midnightblue" points="1816.89,-263.613 1806.72,-260.645 1812.82,-269.308 1816.89,-263.613"/>
</g>
<!-- Node66 -->
<g id="node225" class="node"><title>Node66</title>
<a xlink:href="memory_8h.html" target="_top" xlink:title="base/std_ext/memory.h">
<polygon fill="white" stroke="black" points="2289.5,-304.5 2289.5,-325.5 2408.5,-325.5 2408.5,-304.5 2289.5,-304.5"/>
<text text-anchor="middle" x="2349" y="-312.5" font-family="Helvetica,sans-Serif" font-size="10.00">base/std_ext/memory.h</text>
</a>
</g>
<!-- Node1&#45;&gt;Node66 -->
<g id="edge316" class="edge"><title>Node1&#45;&gt;Node66</title>
<path fill="none" stroke="midnightblue" d="M2256.67,-536.451C2293.2,-528.059 2336.87,-515.22 2348,-500 2384.06,-450.682 2367.08,-372.511 2355.98,-335.597"/>
<polygon fill="midnightblue" stroke="midnightblue" points="2359.28,-334.414 2352.92,-325.938 2352.6,-336.528 2359.28,-334.414"/>
</g>
<!-- Node3&#45;&gt;Node4 -->
<g id="edge8" class="edge"><title>Node3&#45;&gt;Node4</title>
<path fill="none" stroke="midnightblue" d="M1577.01,-304.364C1563.71,-296.361 1547.64,-284.028 1540,-268 1533.11,-253.557 1533.88,-246.782 1540,-232 1544.85,-220.291 1554.19,-209.978 1563.27,-202.019"/>
<polygon fill="midnightblue" stroke="midnightblue" points="1565.54,-204.689 1571.07,-195.654 1561.11,-199.266 1565.54,-204.689"/>
</g>
<!-- Node12 -->
<g id="node25" class="node"><title>Node12</title>
<a xlink:href="_bin_settings_8h.html" target="_top" xlink:title="base/BinSettings.h">
<polygon fill="white" stroke="black" points="1548.5,-239.5 1548.5,-260.5 1647.5,-260.5 1647.5,-239.5 1548.5,-239.5"/>
<text text-anchor="middle" x="1598" y="-247.5" font-family="Helvetica,sans-Serif" font-size="10.00">base/BinSettings.h</text>
</a>
</g>
<!-- Node3&#45;&gt;Node12 -->
<g id="edge24" class="edge"><title>Node3&#45;&gt;Node12</title>
<path fill="none" stroke="midnightblue" d="M1598,-304.267C1598,-295.18 1598,-281.892 1598,-270.74"/>
<polygon fill="midnightblue" stroke="midnightblue" points="1601.5,-270.534 1598,-260.534 1594.5,-270.534 1601.5,-270.534"/>
</g>
<!-- Node13 -->
<g id="node28" class="node"><title>Node13</title>
<polygon fill="white" stroke="#bfbfbf" points="1843,-58.5 1843,-79.5 1887,-79.5 1887,-58.5 1843,-58.5"/>
<text text-anchor="middle" x="1865" y="-66.5" font-family="Helvetica,sans-Serif" font-size="10.00">vector</text>
</g>
<!-- Node3&#45;&gt;Node13 -->
<g id="edge38" class="edge"><title>Node3&#45;&gt;Node13</title>
<path fill="none" stroke="midnightblue" d="M1611.41,-304.233C1623.2,-294.746 1640.79,-280.525 1656,-268 1675.24,-252.153 1676.44,-242.601 1699,-232 1779.16,-194.329 1835.44,-261.55 1895,-196 1918.96,-169.634 1911.21,-149.816 1900,-116 1896.53,-105.536 1889.73,-95.5092 1883.04,-87.4248"/>
<polygon fill="midnightblue" stroke="midnightblue" points="1885.5,-84.9263 1876.24,-79.7661 1880.26,-89.5704 1885.5,-84.9263"/>
</g>
<!-- Node3&#45;&gt;Node15 -->
<g id="edge36" class="edge"><title>Node3&#45;&gt;Node15</title>
<path fill="none" stroke="midnightblue" d="M1678.55,-312.136C1904.05,-303.971 2526.38,-280.371 2544,-268 2583.83,-240.041 2596.87,-179.788 2601.07,-147.852"/>
<polygon fill="midnightblue" stroke="midnightblue" points="2604.55,-148.17 2602.21,-137.837 2597.6,-147.375 2604.55,-148.17"/>
</g>
<!-- Node5 -->
<g id="node11" class="node"><title>Node5</title>
<a xlink:href="types_8h.html" target="_top" xlink:title="types.h">
<polygon fill="white" stroke="black" points="1458.5,-116.5 1458.5,-137.5 1507.5,-137.5 1507.5,-116.5 1458.5,-116.5"/>
<text text-anchor="middle" x="1483" y="-124.5" font-family="Helvetica,sans-Serif" font-size="10.00">types.h</text>
</a>
</g>
<!-- Node4&#45;&gt;Node5 -->
<g id="edge10" class="edge"><title>Node4&#45;&gt;Node5</title>
<path fill="none" stroke="midnightblue" d="M1567.92,-174.362C1551.95,-165.45 1528.92,-152.609 1510.87,-142.545"/>
<polygon fill="midnightblue" stroke="midnightblue" points="1512.39,-139.385 1501.95,-137.571 1508.98,-145.498 1512.39,-139.385"/>
</g>
<!-- Node6 -->
<g id="node13" class="node"><title>Node6</title>
<polygon fill="white" stroke="#bfbfbf" points="2392,-116.5 2392,-137.5 2448,-137.5 2448,-116.5 2392,-116.5"/>
<text text-anchor="middle" x="2420" y="-124.5" font-family="Helvetica,sans-Serif" font-size="10.00">algorithm</text>
</g>
<!-- Node4&#45;&gt;Node6 -->
<g id="edge12" class="edge"><title>Node4&#45;&gt;Node6</title>
<path fill="none" stroke="midnightblue" d="M1627.18,-182.203C1768.76,-172.344 2243.4,-139.296 2381.81,-129.659"/>
<polygon fill="midnightblue" stroke="midnightblue" points="2382.2,-133.14 2391.93,-128.954 2381.72,-126.157 2382.2,-133.14"/>
</g>
<!-- Node7 -->
<g id="node15" class="node"><title>Node7</title>
<polygon fill="white" stroke="#bfbfbf" points="1382.5,-116.5 1382.5,-137.5 1441.5,-137.5 1441.5,-116.5 1382.5,-116.5"/>
<text text-anchor="middle" x="1412" y="-124.5" font-family="Helvetica,sans-Serif" font-size="10.00">stdexcept</text>
</g>
<!-- Node4&#45;&gt;Node7 -->
<g id="edge14" class="edge"><title>Node4&#45;&gt;Node7</title>
<path fill="none" stroke="midnightblue" d="M1555.31,-174.497C1526.16,-164.835 1482.82,-150.472 1451.44,-140.072"/>
<polygon fill="midnightblue" stroke="midnightblue" points="1452.3,-136.669 1441.7,-136.845 1450.1,-143.313 1452.3,-136.669"/>
</g>
<!-- Node8 -->
<g id="node17" class="node"><title>Node8</title>
<polygon fill="white" stroke="#bfbfbf" points="1157,-58.5 1157,-79.5 1197,-79.5 1197,-58.5 1157,-58.5"/>
<text text-anchor="middle" x="1177" y="-66.5" font-family="Helvetica,sans-Serif" font-size="10.00">limits</text>
</g>
<!-- Node4&#45;&gt;Node8 -->
<g id="edge16" class="edge"><title>Node4&#45;&gt;Node8</title>
<path fill="none" stroke="midnightblue" d="M1579.68,-174.479C1568.14,-158.814 1544.11,-129.732 1516,-116 1461.79,-89.5173 1280.27,-75.4746 1207.53,-70.8002"/>
<polygon fill="midnightblue" stroke="midnightblue" points="1207.41,-67.2864 1197.22,-70.1539 1206.98,-74.2727 1207.41,-67.2864"/>
</g>
<!-- Node9 -->
<g id="node19" class="node"><title>Node9</title>
<polygon fill="white" stroke="#bfbfbf" points="1611.5,-116.5 1611.5,-137.5 1660.5,-137.5 1660.5,-116.5 1611.5,-116.5"/>
<text text-anchor="middle" x="1636" y="-124.5" font-family="Helvetica,sans-Serif" font-size="10.00">istream</text>
</g>
<!-- Node4&#45;&gt;Node9 -->
<g id="edge18" class="edge"><title>Node4&#45;&gt;Node9</title>
<path fill="none" stroke="midnightblue" d="M1595.99,-174.362C1602.83,-166.268 1612.4,-154.932 1620.47,-145.38"/>
<polygon fill="midnightblue" stroke="midnightblue" points="1623.29,-147.468 1627.07,-137.571 1617.94,-142.951 1623.29,-147.468"/>
</g>
<!-- Node10 -->
<g id="node21" class="node"><title>Node10</title>
<polygon fill="white" stroke="#bfbfbf" points="1097,-116.5 1097,-137.5 1149,-137.5 1149,-116.5 1097,-116.5"/>
<text text-anchor="middle" x="1123" y="-124.5" font-family="Helvetica,sans-Serif" font-size="10.00">sstream</text>
</g>
<!-- Node4&#45;&gt;Node10 -->
<g id="edge20" class="edge"><title>Node4&#45;&gt;Node10</title>
<path fill="none" stroke="midnightblue" d="M1546.63,-179.954C1457.32,-168.789 1244.13,-142.141 1159.01,-131.501"/>
<polygon fill="midnightblue" stroke="midnightblue" points="1159.4,-128.023 1149.04,-130.255 1158.53,-134.969 1159.4,-128.023"/>
</g>
<!-- Node11 -->
<g id="node23" class="node"><title>Node11</title>
<polygon fill="white" stroke="#bfbfbf" points="342,-0.5 342,-21.5 386,-21.5 386,-0.5 342,-0.5"/>
<text text-anchor="middle" x="364" y="-8.5" font-family="Helvetica,sans-Serif" font-size="10.00">cmath</text>
</g>
<!-- Node4&#45;&gt;Node11 -->
<g id="edge22" class="edge"><title>Node4&#45;&gt;Node11</title>
<path fill="none" stroke="midnightblue" d="M1582.88,-174.303C1576.68,-159.46 1563.66,-132.576 1545,-116 1498.6,-74.795 1478.33,-72.538 1418,-58 1316.72,-33.5923 563.034,-15.4471 396.505,-11.7101"/>
<polygon fill="midnightblue" stroke="midnightblue" points="396.473,-8.20863 386.398,-11.4849 396.317,-15.2069 396.473,-8.20863"/>
</g>
<!-- Node12&#45;&gt;Node4 -->
<g id="edge26" class="edge"><title>Node12&#45;&gt;Node4</title>
<path fill="none" stroke="midnightblue" d="M1596.18,-239.267C1594.65,-230.18 1592.4,-216.892 1590.51,-205.74"/>
<polygon fill="midnightblue" stroke="midnightblue" points="1593.9,-204.809 1588.78,-195.534 1587,-205.978 1593.9,-204.809"/>
</g>
<!-- Node12&#45;&gt;Node7 -->
<g id="edge30" class="edge"><title>Node12&#45;&gt;Node7</title>
<path fill="none" stroke="midnightblue" d="M1581.82,-239.3C1549.17,-217.71 1475.24,-168.82 1436.59,-143.26"/>
<polygon fill="midnightblue" stroke="midnightblue" points="1438.28,-140.185 1428.01,-137.588 1434.42,-146.023 1438.28,-140.185"/>
</g>
<!-- Node12&#45;&gt;Node9 -->
<g id="edge32" class="edge"><title>Node12&#45;&gt;Node9</title>
<path fill="none" stroke="midnightblue" d="M1608.75,-239.129C1618,-228.953 1630.67,-212.831 1636,-196 1640.96,-180.32 1640.6,-161.612 1639.2,-147.634"/>
<polygon fill="midnightblue" stroke="midnightblue" points="1642.66,-147.071 1637.94,-137.586 1635.71,-147.945 1642.66,-147.071"/>
</g>
<!-- Node12&#45;&gt;Node13 -->
<g id="edge28" class="edge"><title>Node12&#45;&gt;Node13</title>
<path fill="none" stroke="midnightblue" d="M1632.15,-239.486C1641.45,-236.83 1651.57,-234.13 1661,-232 1708.25,-221.329 1844.7,-232.975 1876,-196 1901.36,-166.043 1886.3,-116.644 1874.66,-89.1162"/>
<polygon fill="midnightblue" stroke="midnightblue" points="1877.73,-87.4202 1870.45,-79.7229 1871.35,-90.2802 1877.73,-87.4202"/>
</g>
<!-- Node14 -->
<g id="node32" class="node"><title>Node14</title>
<polygon fill="white" stroke="#bfbfbf" points="1357,-58.5 1357,-79.5 1409,-79.5 1409,-58.5 1357,-58.5"/>
<text text-anchor="middle" x="1383" y="-66.5" font-family="Helvetica,sans-Serif" font-size="10.00">ostream</text>
</g>
<!-- Node12&#45;&gt;Node14 -->
<g id="edge34" class="edge"><title>Node12&#45;&gt;Node14</title>
<path fill="none" stroke="midnightblue" d="M1611.6,-239.331C1640.58,-215.348 1703.08,-156.139 1669,-116 1652.97,-97.1263 1492.54,-79.4923 1419.22,-72.3479"/>
<polygon fill="midnightblue" stroke="midnightblue" points="1419.35,-68.8445 1409.06,-71.3711 1418.68,-75.8123 1419.35,-68.8445"/>
</g>
<!-- Node16&#45;&gt;Node12 -->
<g id="edge52" class="edge"><title>Node16&#45;&gt;Node12</title>
<path fill="none" stroke="midnightblue" d="M2425.44,-304.94C2422.59,-304.599 2419.77,-304.283 2417,-304 2113.72,-272.941 2035.55,-296.317 1732,-268 1707.57,-265.721 1680.75,-262.302 1657.56,-259.054"/>
<polygon fill="midnightblue" stroke="midnightblue" points="1657.92,-255.57 1647.53,-257.627 1656.94,-262.5 1657.92,-255.57"/>
</g>
<!-- Node16&#45;&gt;Node13 -->
<g id="edge46" class="edge"><title>Node16&#45;&gt;Node13</title>
<path fill="none" stroke="midnightblue" d="M2552.6,-305.267C2555.44,-304.838 2558.25,-304.414 2561,-304 2668.96,-287.756 2702.46,-308.122 2804,-268 2830.14,-257.67 2830.19,-243.13 2856,-232 2929.31,-200.39 3077.79,-234.751 3026,-174 2950.65,-85.6121 2076.87,-71.3114 1897.18,-69.3002"/>
<polygon fill="midnightblue" stroke="midnightblue" points="1897.09,-65.7991 1887.05,-69.1918 1897.01,-72.7987 1897.09,-65.7991"/>
</g>
<!-- Node16&#45;&gt;Node15 -->
<g id="edge42" class="edge"><title>Node16&#45;&gt;Node15</title>
<path fill="none" stroke="midnightblue" d="M2552.78,-305.224C2625.71,-293.739 2735.91,-275.322 2742,-268 2784.1,-217.361 2685.35,-163.55 2632.98,-139.673"/>
<polygon fill="midnightblue" stroke="midnightblue" points="2634.34,-136.45 2623.78,-135.571 2631.49,-142.842 2634.34,-136.45"/>
</g>
<!-- Node16&#45;&gt;Node17 -->
<g id="edge44" class="edge"><title>Node16&#45;&gt;Node17</title>
<path fill="none" stroke="midnightblue" d="M2425.26,-304.473C2374.56,-295.751 2301.95,-282.476 2239,-268 2225.07,-264.797 2209.66,-260.629 2197.23,-257.111"/>
<polygon fill="midnightblue" stroke="midnightblue" points="2198.17,-253.739 2187.59,-254.343 2196.24,-260.467 2198.17,-253.739"/>
</g>
<!-- Node16&#45;&gt;Node18 -->
<g id="edge48" class="edge"><title>Node16&#45;&gt;Node18</title>
<path fill="none" stroke="midnightblue" d="M2425.46,-304.88C2371.41,-295.609 2298.46,-281.339 2272,-268 2250.35,-257.084 2251.71,-244.611 2231,-232 2204.46,-215.841 2171.4,-203.383 2146.71,-195.366"/>
<polygon fill="midnightblue" stroke="midnightblue" points="2147.61,-191.979 2137.02,-192.307 2145.5,-198.654 2147.61,-191.979"/>
</g>
<!-- Node16&#45;&gt;Node19 -->
<g id="edge50" class="edge"><title>Node16&#45;&gt;Node19</title>
<path fill="none" stroke="midnightblue" d="M2552.58,-305.227C2635.44,-292.396 2770.39,-271.124 2775,-268 2797.09,-253.027 2811,-224.742 2818.39,-205.391"/>
<polygon fill="midnightblue" stroke="midnightblue" points="2821.78,-206.296 2821.83,-195.701 2815.19,-203.952 2821.78,-206.296"/>
</g>
<!-- Node16&#45;&gt;Node20 -->
<g id="edge54" class="edge"><title>Node16&#45;&gt;Node20</title>
<path fill="none" stroke="midnightblue" d="M2425.41,-305.222C2422.57,-304.805 2419.75,-304.396 2417,-304 2298.48,-286.957 2267.7,-290 2150,-268 2137.99,-265.755 2125.01,-262.822 2113.28,-259.979"/>
<polygon fill="midnightblue" stroke="midnightblue" points="2113.89,-256.526 2103.35,-257.522 2112.21,-263.321 2113.89,-256.526"/>
</g>
<!-- Node24&#45;&gt;Node7 -->
<g id="edge68" class="edge"><title>Node24&#45;&gt;Node7</title>
<path fill="none" stroke="midnightblue" d="M2005.82,-313.032C1895.47,-307.125 1581.37,-288.669 1540,-268 1484.79,-240.414 1442.03,-178.078 1422.93,-146.345"/>
<polygon fill="midnightblue" stroke="midnightblue" points="1425.85,-144.407 1417.77,-137.552 1419.81,-147.948 1425.85,-144.407"/>
</g>
<!-- Node24&#45;&gt;Node18 -->
<g id="edge66" class="edge"><title>Node24&#45;&gt;Node18</title>
<path fill="none" stroke="midnightblue" d="M2039.73,-304.264C2033.85,-287.65 2025.34,-255.21 2038,-232 2046.11,-217.129 2061.17,-206.257 2075.51,-198.739"/>
<polygon fill="midnightblue" stroke="midnightblue" points="2077.27,-201.776 2084.75,-194.274 2074.23,-195.473 2077.27,-201.776"/>
</g>
<!-- Node24&#45;&gt;Node20 -->
<g id="edge64" class="edge"><title>Node24&#45;&gt;Node20</title>
<path fill="none" stroke="midnightblue" d="M2049.12,-304.267C2053.59,-294.896 2060.19,-281.057 2065.6,-269.7"/>
<polygon fill="midnightblue" stroke="midnightblue" points="2068.83,-271.066 2069.98,-260.534 2062.51,-268.053 2068.83,-271.066"/>
</g>
<!-- Node26 -->
<g id="node63" class="node"><title>Node26</title>
<a xlink:href="_t_i_d_8h.html" target="_top" xlink:title="TID.h">
<polygon fill="white" stroke="black" points="478.5,-304.5 478.5,-325.5 519.5,-325.5 519.5,-304.5 478.5,-304.5"/>
<text text-anchor="middle" x="499" y="-312.5" font-family="Helvetica,sans-Serif" font-size="10.00">TID.h</text>
</a>
</g>
<!-- Node25&#45;&gt;Node26 -->
<g id="edge72" class="edge"><title>Node25&#45;&gt;Node26</title>
<path fill="none" stroke="midnightblue" d="M923.374,-478.496C888.772,-469.663 838.867,-456.228 796,-442 728.556,-419.614 712.349,-411.917 647,-384 605.597,-366.312 558.606,-344.016 528.894,-329.636"/>
<polygon fill="midnightblue" stroke="midnightblue" points="530.408,-326.48 519.884,-325.261 527.351,-332.777 530.408,-326.48"/>
</g>
<!-- Node35 -->
<g id="node89" class="node"><title>Node35</title>
<a xlink:href="_t_detector_read_hit_8h.html" target="_top" xlink:title="TDetectorReadHit.h">
<polygon fill="white" stroke="black" points="779,-239.5 779,-260.5 883,-260.5 883,-239.5 779,-239.5"/>
<text text-anchor="middle" x="831" y="-247.5" font-family="Helvetica,sans-Serif" font-size="10.00">TDetectorReadHit.h</text>
</a>
</g>
<!-- Node25&#45;&gt;Node35 -->
<g id="edge106" class="edge"><title>Node25&#45;&gt;Node35</title>
<path fill="none" stroke="midnightblue" d="M961.226,-478.239C948.213,-449.259 910.445,-367.481 871,-304 863.475,-291.89 854.02,-279.037 846.192,-268.909"/>
<polygon fill="midnightblue" stroke="midnightblue" points="848.75,-266.5 839.82,-260.798 843.245,-270.824 848.75,-266.5"/>
</g>
<!-- Node42 -->
<g id="node116" class="node"><title>Node42</title>
<a xlink:href="_t_slow_control_8h.html" target="_top" xlink:title="TSlowControl.h">
<polygon fill="white" stroke="black" points="367,-362.5 367,-383.5 451,-383.5 451,-362.5 367,-362.5"/>
<text text-anchor="middle" x="409" y="-370.5" font-family="Helvetica,sans-Serif" font-size="10.00">TSlowControl.h</text>
</a>
</g>
<!-- Node25&#45;&gt;Node42 -->
<g id="edge146" class="edge"><title>Node25&#45;&gt;Node42</title>
<path fill="none" stroke="midnightblue" d="M917.268,-485.403C823.839,-478.181 622.858,-460.972 556,-442 511.896,-429.485 464.508,-405.027 435.804,-388.85"/>
<polygon fill="midnightblue" stroke="midnightblue" points="437.236,-385.637 426.818,-383.71 433.761,-391.713 437.236,-385.637"/>
</g>
<!-- Node43 -->
<g id="node122" class="node"><title>Node43</title>
<a xlink:href="_t_unpacker_message_8h.html" target="_top" xlink:title="TUnpackerMessage.h">
<polygon fill="white" stroke="black" points="808.5,-174.5 808.5,-195.5 921.5,-195.5 921.5,-174.5 808.5,-174.5"/>
<text text-anchor="middle" x="865" y="-182.5" font-family="Helvetica,sans-Serif" font-size="10.00">TUnpackerMessage.h</text>
</a>
</g>
<!-- Node25&#45;&gt;Node43 -->
<g id="edge156" class="edge"><title>Node25&#45;&gt;Node43</title>
<path fill="none" stroke="midnightblue" d="M964.177,-478.16C961.794,-464.5 957.294,-440.347 952,-420 929.914,-335.119 927.378,-312.256 892,-232 887.863,-222.616 882.355,-212.703 877.393,-204.413"/>
<polygon fill="midnightblue" stroke="midnightblue" points="880.349,-202.538 872.125,-195.858 874.388,-206.208 880.349,-202.538"/>
</g>
<!-- Node46 -->
<g id="node130" class="node"><title>Node46</title>
<a xlink:href="_t_tagger_hit_8h.html" target="_top" xlink:title="TTaggerHit.h">
<polygon fill="white" stroke="black" points="656,-362.5 656,-383.5 730,-383.5 730,-362.5 656,-362.5"/>
<text text-anchor="middle" x="693" y="-370.5" font-family="Helvetica,sans-Serif" font-size="10.00">TTaggerHit.h</text>
</a>
</g>
<!-- Node25&#45;&gt;Node46 -->
<g id="edge166" class="edge"><title>Node25&#45;&gt;Node46</title>
<path fill="none" stroke="midnightblue" d="M937.713,-478.382C913.293,-469.106 877.138,-455.109 846,-442 803.713,-424.197 755.563,-402.19 724.76,-387.887"/>
<polygon fill="midnightblue" stroke="midnightblue" points="725.941,-384.576 715.398,-383.528 722.987,-390.922 725.941,-384.576"/>
</g>
<!-- Node48 -->
<g id="node139" class="node"><title>Node48</title>
<a xlink:href="_t_trigger_8h.html" target="_top" xlink:title="TTrigger.h">
<polygon fill="white" stroke="black" points="1280.5,-239.5 1280.5,-260.5 1341.5,-260.5 1341.5,-239.5 1280.5,-239.5"/>
<text text-anchor="middle" x="1311" y="-247.5" font-family="Helvetica,sans-Serif" font-size="10.00">TTrigger.h</text>
</a>
</g>
<!-- Node25&#45;&gt;Node48 -->
<g id="edge180" class="edge"><title>Node25&#45;&gt;Node48</title>
<path fill="none" stroke="midnightblue" d="M1011.63,-478.446C1066.22,-464.105 1158.33,-434.311 1223,-384 1262.52,-353.255 1289.96,-299.544 1302.77,-270.33"/>
<polygon fill="midnightblue" stroke="midnightblue" points="1306.15,-271.337 1306.83,-260.764 1299.7,-268.604 1306.15,-271.337"/>
</g>
<!-- Node49 -->
<g id="node145" class="node"><title>Node49</title>
<a xlink:href="_t_target_8h.html" target="_top" xlink:title="TTarget.h">
<polygon fill="white" stroke="black" points="1333.5,-304.5 1333.5,-325.5 1392.5,-325.5 1392.5,-304.5 1333.5,-304.5"/>
<text text-anchor="middle" x="1363" y="-312.5" font-family="Helvetica,sans-Serif" font-size="10.00">TTarget.h</text>
</a>
</g>
<!-- Node25&#45;&gt;Node49 -->
<g id="edge190" class="edge"><title>Node25&#45;&gt;Node49</title>
<path fill="none" stroke="midnightblue" d="M1014.75,-485.024C1104.08,-477.349 1287.01,-459.685 1310,-442 1343.77,-416.026 1356.21,-364.613 1360.65,-335.806"/>
<polygon fill="midnightblue" stroke="midnightblue" points="1364.15,-336.02 1362.03,-325.641 1357.22,-335.081 1364.15,-336.02"/>
</g>
<!-- Node50 -->
<g id="node152" class="node"><title>Node50</title>
<a xlink:href="_t_cluster_8h.html" target="_top" xlink:title="TCluster.h">
<polygon fill="white" stroke="black" points="800,-304.5 800,-325.5 862,-325.5 862,-304.5 800,-304.5"/>
<text text-anchor="middle" x="831" y="-312.5" font-family="Helvetica,sans-Serif" font-size="10.00">TCluster.h</text>
</a>
</g>
<!-- Node25&#45;&gt;Node50 -->
<g id="edge202" class="edge"><title>Node25&#45;&gt;Node50</title>
<path fill="none" stroke="midnightblue" d="M952.293,-478.272C941.255,-469.259 925.703,-455.689 914,-442 884.101,-407.028 856.36,-360.65 841.753,-334.715"/>
<polygon fill="midnightblue" stroke="midnightblue" points="844.739,-332.883 836.821,-325.843 838.62,-336.284 844.739,-332.883"/>
</g>
<!-- Node52 -->
<g id="node169" class="node"><title>Node52</title>
<a xlink:href="_t_candidate_8h.html" target="_top" xlink:title="TCandidate.h">
<polygon fill="white" stroke="black" points="1139.5,-362.5 1139.5,-383.5 1214.5,-383.5 1214.5,-362.5 1139.5,-362.5"/>
<text text-anchor="middle" x="1177" y="-370.5" font-family="Helvetica,sans-Serif" font-size="10.00">TCandidate.h</text>
</a>
</g>
<!-- Node25&#45;&gt;Node52 -->
<g id="edge232" class="edge"><title>Node25&#45;&gt;Node52</title>
<path fill="none" stroke="midnightblue" d="M985.472,-478.295C1023.02,-457.655 1105.53,-412.29 1148.98,-388.404"/>
<polygon fill="midnightblue" stroke="midnightblue" points="1150.8,-391.396 1157.88,-383.512 1147.43,-385.262 1150.8,-391.396"/>
</g>
<!-- Node53 -->
<g id="node178" class="node"><title>Node53</title>
<a xlink:href="_t_particle_8h.html" target="_top" xlink:title="TParticle.h">
<polygon fill="white" stroke="black" points="2209,-420.5 2209,-441.5 2273,-441.5 2273,-420.5 2209,-420.5"/>
<text text-anchor="middle" x="2241" y="-428.5" font-family="Helvetica,sans-Serif" font-size="10.00">TParticle.h</text>
</a>
</g>
<!-- Node25&#45;&gt;Node53 -->
<g id="edge248" class="edge"><title>Node25&#45;&gt;Node53</title>
<path fill="none" stroke="midnightblue" d="M1014.81,-486.78C1219.45,-477.47 2006.54,-441.666 2198.56,-432.93"/>
<polygon fill="midnightblue" stroke="midnightblue" points="2198.98,-436.415 2208.81,-432.464 2198.66,-429.422 2198.98,-436.415"/>
</g>
<!-- Node26&#45;&gt;Node7 -->
<g id="edge98" class="edge"><title>Node26&#45;&gt;Node7</title>
<path fill="none" stroke="midnightblue" d="M519.62,-313.599C578.292,-309.384 751.021,-295.392 892,-268 1074.39,-232.562 1286.81,-167.229 1372.84,-139.729"/>
<polygon fill="midnightblue" stroke="midnightblue" points="1374.01,-143.031 1382.46,-136.644 1371.87,-136.366 1374.01,-143.031"/>
</g>
<!-- Node26&#45;&gt;Node17 -->
<g id="edge100" class="edge"><title>Node26&#45;&gt;Node17</title>
<path fill="none" stroke="midnightblue" d="M519.53,-314.153C567.199,-312.203 689.086,-307.308 791,-304 1084.51,-294.472 1821.95,-313.943 2112,-268 2124.23,-266.063 2137.45,-262.368 2148.45,-258.827"/>
<polygon fill="midnightblue" stroke="midnightblue" points="2149.85,-262.05 2158.21,-255.543 2147.61,-255.416 2149.85,-262.05"/>
</g>
<!-- Node26&#45;&gt;Node20 -->
<g id="edge74" class="edge"><title>Node26&#45;&gt;Node20</title>
<path fill="none" stroke="midnightblue" d="M519.532,-314.201C567.204,-312.352 689.097,-307.655 791,-304 1260.75,-287.153 1378.7,-294.585 1848,-268 1914.32,-264.243 1991.38,-257.663 2036.5,-253.585"/>
<polygon fill="midnightblue" stroke="midnightblue" points="2037.08,-257.047 2046.72,-252.655 2036.44,-250.076 2037.08,-257.047"/>
</g>
<!-- Node27 -->
<g id="node66" class="node"><title>Node27</title>
<a xlink:href="base_2std__ext_2_time_8h.html" target="_top" xlink:title="base/std_ext/time.h">
<polygon fill="white" stroke="black" points="240.5,-239.5 240.5,-260.5 343.5,-260.5 343.5,-239.5 240.5,-239.5"/>
<text text-anchor="middle" x="292" y="-247.5" font-family="Helvetica,sans-Serif" font-size="10.00">base/std_ext/time.h</text>
</a>
</g>
<!-- Node26&#45;&gt;Node27 -->
<g id="edge76" class="edge"><title>Node26&#45;&gt;Node27</title>
<path fill="none" stroke="midnightblue" d="M478.395,-308.53C445.215,-298.111 379.234,-277.392 335.349,-263.612"/>
<polygon fill="midnightblue" stroke="midnightblue" points="336.384,-260.269 325.795,-260.612 334.287,-266.947 336.384,-260.269"/>
</g>
<!-- Node30 -->
<g id="node76" class="node"><title>Node30</title>
<polygon fill="white" stroke="#bfbfbf" points="341.5,-174.5 341.5,-195.5 382.5,-195.5 382.5,-174.5 341.5,-174.5"/>
<text text-anchor="middle" x="362" y="-182.5" font-family="Helvetica,sans-Serif" font-size="10.00">ctime</text>
</g>
<!-- Node26&#45;&gt;Node30 -->
<g id="edge104" class="edge"><title>Node26&#45;&gt;Node30</title>
<path fill="none" stroke="midnightblue" d="M487.789,-304.362C464.306,-282.079 409.74,-230.301 380.802,-202.841"/>
<polygon fill="midnightblue" stroke="midnightblue" points="383.029,-200.13 373.366,-195.785 378.211,-205.208 383.029,-200.13"/>
</g>
<!-- Node31 -->
<g id="node78" class="node"><title>Node31</title>
<polygon fill="white" stroke="#bfbfbf" points="704,-116.5 704,-137.5 766,-137.5 766,-116.5 704,-116.5"/>
<text text-anchor="middle" x="735" y="-124.5" font-family="Helvetica,sans-Serif" font-size="10.00">type_traits</text>
</g>
<!-- Node26&#45;&gt;Node31 -->
<g id="edge92" class="edge"><title>Node26&#45;&gt;Node31</title>
<path fill="none" stroke="midnightblue" d="M495.576,-304.198C488.075,-278.202 473.34,-211.533 506,-174 560.104,-111.824 608.117,-154.04 693.818,-137.95"/>
<polygon fill="midnightblue" stroke="midnightblue" points="694.554,-141.372 703.618,-135.886 693.111,-134.522 694.554,-141.372"/>
</g>
<!-- Node32 -->
<g id="node80" class="node"><title>Node32</title>
<polygon fill="white" stroke="#bfbfbf" points="419,-174.5 419,-195.5 457,-195.5 457,-174.5 419,-174.5"/>
<text text-anchor="middle" x="438" y="-182.5" font-family="Helvetica,sans-Serif" font-size="10.00">tuple</text>
</g>
<!-- Node26&#45;&gt;Node32 -->
<g id="edge94" class="edge"><title>Node26&#45;&gt;Node32</title>
<path fill="none" stroke="midnightblue" d="M492.051,-304.444C486.056,-295.091 477.381,-280.95 471,-268 460.726,-247.151 451.17,-222.262 445.013,-205.212"/>
<polygon fill="midnightblue" stroke="midnightblue" points="448.286,-203.969 441.643,-195.715 441.689,-206.31 448.286,-203.969"/>
</g>
<!-- Node33 -->
<g id="node82" class="node"><title>Node33</title>
<polygon fill="white" stroke="#bfbfbf" points="0,-116.5 0,-137.5 46,-137.5 46,-116.5 0,-116.5"/>
<text text-anchor="middle" x="23" y="-124.5" font-family="Helvetica,sans-Serif" font-size="10.00">cstdint</text>
</g>
<!-- Node26&#45;&gt;Node33 -->
<g id="edge96" class="edge"><title>Node26&#45;&gt;Node33</title>
<path fill="none" stroke="midnightblue" d="M478.385,-313.397C404.218,-307.498 153.732,-286.386 123,-268 75.5668,-239.623 44.6243,-179.095 30.9959,-147.366"/>
<polygon fill="midnightblue" stroke="midnightblue" points="34.0951,-145.701 27.0391,-137.798 27.6264,-148.376 34.0951,-145.701"/>
</g>
<!-- Node34 -->
<g id="node86" class="node"><title>Node34</title>
<polygon fill="white" stroke="#bfbfbf" points="515,-174.5 515,-195.5 565,-195.5 565,-174.5 515,-174.5"/>
<text text-anchor="middle" x="540" y="-182.5" font-family="Helvetica,sans-Serif" font-size="10.00">iomanip</text>
</g>
<!-- Node26&#45;&gt;Node34 -->
<g id="edge102" class="edge"><title>Node26&#45;&gt;Node34</title>
<path fill="none" stroke="midnightblue" d="M502.355,-304.362C509.173,-282.746 524.744,-233.372 533.576,-205.369"/>
<polygon fill="midnightblue" stroke="midnightblue" points="536.928,-206.375 536.598,-195.785 530.253,-204.27 536.928,-206.375"/>
</g>
<!-- Node28 -->
<g id="node68" class="node"><title>Node28</title>
<a xlink:href="string_8h.html" target="_top" xlink:title="base/std_ext/string.h">
<polygon fill="white" stroke="black" points="1759,-174.5 1759,-195.5 1867,-195.5 1867,-174.5 1759,-174.5"/>
<text text-anchor="middle" x="1813" y="-182.5" font-family="Helvetica,sans-Serif" font-size="10.00">base/std_ext/string.h</text>
</a>
</g>
<!-- Node27&#45;&gt;Node28 -->
<g id="edge78" class="edge"><title>Node27&#45;&gt;Node28</title>
<path fill="none" stroke="midnightblue" d="M343.848,-248.069C558.378,-240.057 1377.42,-209.228 1636,-196 1673.34,-194.09 1715.08,-191.517 1748.65,-189.339"/>
<polygon fill="midnightblue" stroke="midnightblue" points="1749.04,-192.821 1758.79,-188.677 1748.58,-185.836 1749.04,-192.821"/>
</g>
<!-- Node29 -->
<g id="node74" class="node"><title>Node29</title>
<polygon fill="white" stroke="#bfbfbf" points="269,-174.5 269,-195.5 315,-195.5 315,-174.5 269,-174.5"/>
<text text-anchor="middle" x="292" y="-182.5" font-family="Helvetica,sans-Serif" font-size="10.00">cstring</text>
</g>
<!-- Node27&#45;&gt;Node29 -->
<g id="edge88" class="edge"><title>Node27&#45;&gt;Node29</title>
<path fill="none" stroke="midnightblue" d="M292,-239.267C292,-230.18 292,-216.892 292,-205.74"/>
<polygon fill="midnightblue" stroke="midnightblue" points="295.5,-205.534 292,-195.534 288.5,-205.534 295.5,-205.534"/>
</g>
<!-- Node27&#45;&gt;Node30 -->
<g id="edge90" class="edge"><title>Node27&#45;&gt;Node30</title>
<path fill="none" stroke="midnightblue" d="M303.559,-239.267C314.262,-229.328 330.378,-214.363 342.977,-202.664"/>
<polygon fill="midnightblue" stroke="midnightblue" points="345.71,-204.903 350.656,-195.534 340.946,-199.773 345.71,-204.903"/>
</g>
<!-- Node28&#45;&gt;Node6 -->
<g id="edge84" class="edge"><title>Node28&#45;&gt;Node6</title>
<path fill="none" stroke="midnightblue" d="M1867.13,-179.827C1988.07,-168.272 2277.73,-140.594 2381.88,-130.642"/>
<polygon fill="midnightblue" stroke="midnightblue" points="2382.32,-134.116 2391.94,-129.681 2381.66,-127.148 2382.32,-134.116"/>
</g>
<!-- Node28&#45;&gt;Node10 -->
<g id="edge82" class="edge"><title>Node28&#45;&gt;Node10</title>
<path fill="none" stroke="midnightblue" d="M1758.86,-180.449C1623.59,-169.079 1273.59,-139.658 1159.53,-130.07"/>
<polygon fill="midnightblue" stroke="midnightblue" points="1159.5,-126.556 1149.24,-129.206 1158.91,-133.531 1159.5,-126.556"/>
</g>
<!-- Node28&#45;&gt;Node13 -->
<g id="edge86" class="edge"><title>Node28&#45;&gt;Node13</title>
<path fill="none" stroke="midnightblue" d="M1817.8,-174.295C1826.51,-154.872 1845.03,-113.556 1856.1,-88.8462"/>
<polygon fill="midnightblue" stroke="midnightblue" points="1859.32,-90.236 1860.21,-79.6792 1852.93,-87.3726 1859.32,-90.236"/>
</g>
<!-- Node28&#45;&gt;Node15 -->
<g id="edge80" class="edge"><title>Node28&#45;&gt;Node15</title>
<path fill="none" stroke="midnightblue" d="M1867.28,-181.082C1978.12,-173.071 2238.44,-154.209 2457,-138 2496.74,-135.053 2542.55,-131.591 2572.1,-129.349"/>
<polygon fill="midnightblue" stroke="midnightblue" points="2572.5,-132.829 2582.21,-128.582 2571.97,-125.849 2572.5,-132.829"/>
</g>
<!-- Node35&#45;&gt;Node10 -->
<g id="edge144" class="edge"><title>Node35&#45;&gt;Node10</title>
<path fill="none" stroke="midnightblue" d="M856.148,-239.407C908.434,-217.382 1028.94,-166.62 1088.46,-141.55"/>
<polygon fill="midnightblue" stroke="midnightblue" points="1089.95,-144.719 1097.81,-137.612 1087.23,-138.268 1089.95,-144.719"/>
</g>
<!-- Node35&#45;&gt;Node34 -->
<g id="edge142" class="edge"><title>Node35&#45;&gt;Node34</title>
<path fill="none" stroke="midnightblue" d="M783.922,-239.484C725.41,-226.415 626.921,-204.415 574.791,-192.771"/>
<polygon fill="midnightblue" stroke="midnightblue" points="575.532,-189.35 565.009,-190.586 574.006,-196.182 575.532,-189.35"/>
</g>
<!-- Node36 -->
<g id="node91" class="node"><title>Node36</title>
<a xlink:href="_detector__t_8h.html" target="_top" xlink:title="base/Detector_t.h">
<polygon fill="white" stroke="black" points="620.5,-174.5 620.5,-195.5 715.5,-195.5 715.5,-174.5 620.5,-174.5"/>
<text text-anchor="middle" x="668" y="-182.5" font-family="Helvetica,sans-Serif" font-size="10.00">base/Detector_t.h</text>
</a>
</g>
<!-- Node35&#45;&gt;Node36 -->
<g id="edge108" class="edge"><title>Node35&#45;&gt;Node36</title>
<path fill="none" stroke="midnightblue" d="M804.448,-239.412C777.098,-228.505 734.292,-211.436 703.927,-199.327"/>
<polygon fill="midnightblue" stroke="midnightblue" points="705.125,-196.037 694.54,-195.584 702.532,-202.539 705.125,-196.037"/>
</g>
<!-- Node36&#45;&gt;Node7 -->
<g id="edge134" class="edge"><title>Node36&#45;&gt;Node7</title>
<path fill="none" stroke="midnightblue" d="M715.65,-180.954C740.745,-178.842 772.034,-176.239 800,-174 1015.99,-156.706 1274.98,-137.233 1372.39,-129.953"/>
<polygon fill="midnightblue" stroke="midnightblue" points="1372.67,-133.441 1382.38,-129.206 1372.15,-126.461 1372.67,-133.441"/>
</g>
<!-- Node36&#45;&gt;Node13 -->
<g id="edge140" class="edge"><title>Node36&#45;&gt;Node13</title>
<path fill="none" stroke="midnightblue" d="M689.31,-174.43C722.781,-158.419 790.145,-128.554 851,-116 948.857,-95.8124 1669.13,-74.5069 1832.23,-69.9076"/>
<polygon fill="midnightblue" stroke="midnightblue" points="1832.68,-73.3965 1842.57,-69.6173 1832.48,-66.3993 1832.68,-73.3965"/>
</g>
<!-- Node36&#45;&gt;Node15 -->
<g id="edge136" class="edge"><title>Node36&#45;&gt;Node15</title>
<path fill="none" stroke="midnightblue" d="M715.609,-180.322C740.691,-178.037 771.983,-175.47 800,-174 1535.61,-135.395 1721.25,-173.684 2457,-138 2496.8,-136.07 2542.6,-132.379 2572.13,-129.808"/>
<polygon fill="midnightblue" stroke="midnightblue" points="2572.58,-133.282 2582.23,-128.916 2571.96,-126.309 2572.58,-133.282"/>
</g>
<!-- Node36&#45;&gt;Node31 -->
<g id="edge138" class="edge"><title>Node36&#45;&gt;Node31</title>
<path fill="none" stroke="midnightblue" d="M680.289,-174.362C690.017,-165.941 703.798,-154.011 715.095,-144.231"/>
<polygon fill="midnightblue" stroke="midnightblue" points="717.519,-146.762 722.789,-137.571 712.938,-141.469 717.519,-146.762"/>
</g>
<!-- Node36&#45;&gt;Node33 -->
<g id="edge132" class="edge"><title>Node36&#45;&gt;Node33</title>
<path fill="none" stroke="midnightblue" d="M620.211,-179.114C605.41,-177.369 589.04,-175.521 574,-174 377.972,-154.175 142.139,-135.931 56.2968,-129.474"/>
<polygon fill="midnightblue" stroke="midnightblue" points="56.3541,-125.968 46.1204,-128.711 55.8306,-132.949 56.3541,-125.968"/>
</g>
<!-- Node37 -->
<g id="node93" class="node"><title>Node37</title>
<a xlink:href="bitflag_8h.html" target="_top" xlink:title="base/bitflag.h">
<polygon fill="white" stroke="black" points="487.5,-116.5 487.5,-137.5 562.5,-137.5 562.5,-116.5 487.5,-116.5"/>
<text text-anchor="middle" x="525" y="-124.5" font-family="Helvetica,sans-Serif" font-size="10.00">base/bitflag.h</text>
</a>
</g>
<!-- Node36&#45;&gt;Node37 -->
<g id="edge110" class="edge"><title>Node36&#45;&gt;Node37</title>
<path fill="none" stroke="midnightblue" d="M642.104,-174.497C619.367,-165.275 586.07,-151.769 560.788,-141.515"/>
<polygon fill="midnightblue" stroke="midnightblue" points="561.769,-138.136 551.187,-137.621 559.138,-144.623 561.769,-138.136"/>
</g>
<!-- Node39 -->
<g id="node97" class="node"><title>Node39</title>
<a xlink:href="vec3_8h.html" target="_top" xlink:title="base/vec/vec3.h">
<polygon fill="white" stroke="black" points="268.5,-116.5 268.5,-137.5 357.5,-137.5 357.5,-116.5 268.5,-116.5"/>
<text text-anchor="middle" x="313" y="-124.5" font-family="Helvetica,sans-Serif" font-size="10.00">base/vec/vec3.h</text>
</a>
</g>
<!-- Node36&#45;&gt;Node39 -->
<g id="edge114" class="edge"><title>Node36&#45;&gt;Node39</title>
<path fill="none" stroke="midnightblue" d="M620.491,-177.238C554.988,-166.536 437.2,-147.292 367.973,-135.981"/>
<polygon fill="midnightblue" stroke="midnightblue" points="368.143,-132.463 357.709,-134.305 367.014,-139.371 368.143,-132.463"/>
</g>
<!-- Node36&#45;&gt;Node41 -->
<g id="edge124" class="edge"><title>Node36&#45;&gt;Node41</title>
<path fill="none" stroke="midnightblue" d="M661.58,-174.362C656.844,-166.513 650.268,-155.616 644.618,-146.253"/>
<polygon fill="midnightblue" stroke="midnightblue" points="647.542,-144.324 639.379,-137.571 641.549,-147.941 647.542,-144.324"/>
</g>
<!-- Node38 -->
<g id="node95" class="node"><title>Node38</title>
<polygon fill="white" stroke="#bfbfbf" points="504.5,-58.5 504.5,-79.5 545.5,-79.5 545.5,-58.5 504.5,-58.5"/>
<text text-anchor="middle" x="525" y="-66.5" font-family="Helvetica,sans-Serif" font-size="10.00">bitset</text>
</g>
<!-- Node37&#45;&gt;Node38 -->
<g id="edge112" class="edge"><title>Node37&#45;&gt;Node38</title>
<path fill="none" stroke="midnightblue" d="M525,-116.362C525,-108.922 525,-98.7427 525,-89.7276"/>
<polygon fill="midnightblue" stroke="midnightblue" points="528.5,-89.5706 525,-79.5707 521.5,-89.5707 528.5,-89.5706"/>
</g>
<!-- Node39&#45;&gt;Node11 -->
<g id="edge122" class="edge"><title>Node39&#45;&gt;Node11</title>
<path fill="none" stroke="midnightblue" d="M314.806,-116.337C317.408,-102.447 322.924,-77.6222 332,-58 336.565,-48.1306 343.126,-38.0524 349.121,-29.7725"/>
<polygon fill="midnightblue" stroke="midnightblue" points="352.063,-31.683 355.282,-21.5887 346.471,-27.4729 352.063,-31.683"/>
</g>
<!-- Node39&#45;&gt;Node14 -->
<g id="edge120" class="edge"><title>Node39&#45;&gt;Node14</title>
<path fill="none" stroke="midnightblue" d="M357.727,-123.833C391.131,-121.517 437.911,-118.379 479,-116 801.966,-97.3042 882.996,-98.0335 1206,-80 1254.61,-77.2859 1310.71,-73.7274 1346.49,-71.4034"/>
<polygon fill="midnightblue" stroke="midnightblue" points="1347.16,-74.8672 1356.91,-70.7242 1346.71,-67.8821 1347.16,-74.8672"/>
</g>
<!-- Node40 -->
<g id="node99" class="node"><title>Node40</title>
<a xlink:href="vec2_8h.html" target="_top" xlink:title="vec2.h">
<polygon fill="white" stroke="black" points="341,-58.5 341,-79.5 387,-79.5 387,-58.5 341,-58.5"/>
<text text-anchor="middle" x="364" y="-66.5" font-family="Helvetica,sans-Serif" font-size="10.00">vec2.h</text>
</a>
</g>
<!-- Node39&#45;&gt;Node40 -->
<g id="edge116" class="edge"><title>Node39&#45;&gt;Node40</title>
<path fill="none" stroke="midnightblue" d="M322.354,-116.362C329.543,-108.186 339.641,-96.7025 348.093,-87.0907"/>
<polygon fill="midnightblue" stroke="midnightblue" points="350.73,-89.3916 354.705,-79.5707 345.473,-84.7692 350.73,-89.3916"/>
</g>
<!-- Node40&#45;&gt;Node11 -->
<g id="edge118" class="edge"><title>Node40&#45;&gt;Node11</title>
<path fill="none" stroke="midnightblue" d="M364,-58.3619C364,-50.9219 364,-40.7427 364,-31.7276"/>
<polygon fill="midnightblue" stroke="midnightblue" points="367.5,-31.5706 364,-21.5707 360.5,-31.5707 367.5,-31.5706"/>
</g>
<!-- Node41&#45;&gt;Node8 -->
<g id="edge128" class="edge"><title>Node41&#45;&gt;Node8</title>
<path fill="none" stroke="midnightblue" d="M686.057,-117.305C689.079,-116.84 692.076,-116.401 695,-116 864.899,-92.6814 1070.04,-76.6848 1146.42,-71.1456"/>
<polygon fill="midnightblue" stroke="midnightblue" points="1147.01,-74.6122 1156.73,-70.4046 1146.5,-67.6302 1147.01,-74.6122"/>
</g>
<!-- Node41&#45;&gt;Node11 -->
<g id="edge126" class="edge"><title>Node41&#45;&gt;Node11</title>
<path fill="none" stroke="midnightblue" d="M623.933,-116.371C610.317,-101.103 583.071,-73.1426 554,-58 502.653,-31.254 435.493,-19.2907 396.313,-14.2801"/>
<polygon fill="midnightblue" stroke="midnightblue" points="396.622,-10.7922 386.276,-13.0712 395.785,-17.742 396.622,-10.7922"/>
</g>
<!-- Node41&#45;&gt;Node13 -->
<g id="edge130" class="edge"><title>Node41&#45;&gt;Node13</title>
<path fill="none" stroke="midnightblue" d="M686.032,-117.104C689.06,-116.691 692.066,-116.318 695,-116 924.426,-91.1553 1667.13,-73.412 1832.26,-69.7148"/>
<polygon fill="midnightblue" stroke="midnightblue" points="1832.8,-73.2038 1842.72,-69.4823 1832.64,-66.2056 1832.8,-73.2038"/>
</g>
<!-- Node42&#45;&gt;Node26 -->
<g id="edge148" class="edge"><title>Node42&#45;&gt;Node26</title>
<path fill="none" stroke="midnightblue" d="M425.507,-362.362C439.082,-353.614 458.533,-341.079 474.015,-331.101"/>
<polygon fill="midnightblue" stroke="midnightblue" points="476.088,-333.93 482.597,-325.571 472.296,-328.046 476.088,-333.93"/>
</g>
<!-- Node42&#45;&gt;Node27 -->
<g id="edge150" class="edge"><title>Node42&#45;&gt;Node27</title>
<path fill="none" stroke="midnightblue" d="M400.96,-362.305C390.317,-348.38 370.708,-323.518 352,-304 339.551,-291.012 324.499,-277.471 312.586,-267.197"/>
<polygon fill="midnightblue" stroke="midnightblue" points="314.791,-264.478 304.91,-260.654 310.25,-269.805 314.791,-264.478"/>
</g>
<!-- Node42&#45;&gt;Node32 -->
<g id="edge154" class="edge"><title>Node42&#45;&gt;Node32</title>
<path fill="none" stroke="midnightblue" d="M410.642,-362.354C415.308,-332.107 428.701,-245.285 434.847,-205.437"/>
<polygon fill="midnightblue" stroke="midnightblue" points="438.31,-205.946 436.376,-195.53 431.392,-204.879 438.31,-205.946"/>
</g>
<!-- Node42&#45;&gt;Node33 -->
<g id="edge152" class="edge"><title>Node42&#45;&gt;Node33</title>
<path fill="none" stroke="midnightblue" d="M366.992,-370.659C298.356,-364.676 161.563,-343.423 79,-268 43.6683,-235.724 30.2805,-178.24 25.4852,-147.587"/>
<polygon fill="midnightblue" stroke="midnightblue" points="28.94,-147.019 24.0826,-137.604 22.0081,-147.993 28.94,-147.019"/>
</g>
<!-- Node43&#45;&gt;Node14 -->
<g id="edge164" class="edge"><title>Node43&#45;&gt;Node14</title>
<path fill="none" stroke="midnightblue" d="M857.952,-174.408C848.957,-159.442 836.225,-132.138 851,-116 859.404,-106.82 1228.14,-79.9636 1346.7,-71.5506"/>
<polygon fill="midnightblue" stroke="midnightblue" points="1347,-75.0377 1356.73,-70.8402 1346.51,-68.0552 1347,-75.0377"/>
</g>
<!-- Node44 -->
<g id="node124" class="node"><title>Node44</title>
<a xlink:href="_format_8h.html" target="_top" xlink:title="base/Format.h">
<polygon fill="white" stroke="black" points="860,-116.5 860,-137.5 940,-137.5 940,-116.5 860,-116.5"/>
<text text-anchor="middle" x="900" y="-124.5" font-family="Helvetica,sans-Serif" font-size="10.00">base/Format.h</text>
</a>
</g>
<!-- Node43&#45;&gt;Node44 -->
<g id="edge158" class="edge"><title>Node43&#45;&gt;Node44</title>
<path fill="none" stroke="midnightblue" d="M871.42,-174.362C876.156,-166.513 882.732,-155.616 888.382,-146.253"/>
<polygon fill="midnightblue" stroke="midnightblue" points="891.451,-147.941 893.621,-137.571 885.458,-144.324 891.451,-147.941"/>
</g>
<!-- Node44&#45;&gt;Node13 -->
<g id="edge162" class="edge"><title>Node44&#45;&gt;Node13</title>
<path fill="none" stroke="midnightblue" d="M940.288,-118.108C944.896,-117.295 949.539,-116.566 954,-116 1129.32,-93.7471 1691.37,-74.572 1832.57,-70.0218"/>
<polygon fill="midnightblue" stroke="midnightblue" points="1832.86,-73.5147 1842.74,-69.6962 1832.63,-66.5183 1832.86,-73.5147"/>
</g>
<!-- Node45 -->
<g id="node126" class="node"><title>Node45</title>
<polygon fill="white" stroke="#bfbfbf" points="865,-58.5 865,-79.5 935,-79.5 935,-58.5 865,-58.5"/>
<text text-anchor="middle" x="900" y="-66.5" font-family="Helvetica,sans-Serif" font-size="10.00">fmt/format.h</text>
</g>
<!-- Node44&#45;&gt;Node45 -->
<g id="edge160" class="edge"><title>Node44&#45;&gt;Node45</title>
<path fill="none" stroke="midnightblue" d="M900,-116.362C900,-108.922 900,-98.7427 900,-89.7276"/>
<polygon fill="midnightblue" stroke="midnightblue" points="903.5,-89.5706 900,-79.5707 896.5,-89.5707 903.5,-89.5706"/>
</g>
<!-- Node46&#45;&gt;Node10 -->
<g id="edge178" class="edge"><title>Node46&#45;&gt;Node10</title>
<path fill="none" stroke="midnightblue" d="M730.24,-368.279C773.22,-362.023 845.496,-348.999 904,-326 951.459,-307.343 961.836,-298.101 1003,-268 1041.61,-239.765 1052.86,-233.145 1083,-196 1095.33,-180.799 1106.24,-161.344 1113.54,-146.97"/>
<polygon fill="midnightblue" stroke="midnightblue" points="1116.71,-148.462 1117.99,-137.944 1110.43,-145.367 1116.71,-148.462"/>
</g>
<!-- Node46&#45;&gt;Node13 -->
<g id="edge174" class="edge"><title>Node46&#45;&gt;Node13</title>
<path fill="none" stroke="midnightblue" d="M730.178,-368.78C767.697,-363.278 826.319,-351.203 871,-326 929.448,-293.031 1026.58,-143.039 1088,-116 1156.87,-85.6812 1694.01,-72.5429 1832.51,-69.6393"/>
<polygon fill="midnightblue" stroke="midnightblue" points="1832.94,-73.1312 1842.87,-69.4257 1832.8,-66.1327 1832.94,-73.1312"/>
</g>
<!-- Node46&#45;&gt;Node26 -->
<g id="edge168" class="edge"><title>Node46&#45;&gt;Node26</title>
<path fill="none" stroke="midnightblue" d="M657.868,-362.497C621.097,-351.503 563.969,-334.424 529.171,-324.02"/>
<polygon fill="midnightblue" stroke="midnightblue" points="530.143,-320.658 519.559,-321.147 528.138,-327.364 530.143,-320.658"/>
</g>
<!-- Node46&#45;&gt;Node34 -->
<g id="edge176" class="edge"><title>Node46&#45;&gt;Node34</title>
<path fill="none" stroke="midnightblue" d="M655.827,-365.155C632.526,-358.435 603.504,-346.485 585,-326 553.996,-291.677 544.344,-235.91 541.346,-205.825"/>
<polygon fill="midnightblue" stroke="midnightblue" points="544.816,-205.323 540.492,-195.651 537.84,-205.909 544.816,-205.323"/>
</g>
<!-- Node47 -->
<g id="node133" class="node"><title>Node47</title>
<a xlink:href="_lorentz_vec_8h.html" target="_top" xlink:title="base/vec/LorentzVec.h">
<polygon fill="white" stroke="black" points="226.5,-304.5 226.5,-325.5 343.5,-325.5 343.5,-304.5 226.5,-304.5"/>
<text text-anchor="middle" x="285" y="-312.5" font-family="Helvetica,sans-Serif" font-size="10.00">base/vec/LorentzVec.h</text>
</a>
</g>
<!-- Node46&#45;&gt;Node47 -->
<g id="edge170" class="edge"><title>Node46&#45;&gt;Node47</title>
<path fill="none" stroke="midnightblue" d="M655.711,-367.699C587.306,-357.975 440.822,-337.151 353.868,-324.79"/>
<polygon fill="midnightblue" stroke="midnightblue" points="354.222,-321.305 343.829,-323.363 353.236,-328.236 354.222,-321.305"/>
</g>
<!-- Node47&#45;&gt;Node39 -->
<g id="edge172" class="edge"><title>Node47&#45;&gt;Node39</title>
<path fill="none" stroke="midnightblue" d="M242.581,-304.449C210.611,-295.538 170.679,-282.02 161,-268 137.264,-233.62 136.203,-207.623 161,-174 172.814,-157.981 219.501,-145.102 258.051,-136.905"/>
<polygon fill="midnightblue" stroke="midnightblue" points="259.073,-140.268 268.16,-134.821 257.66,-133.413 259.073,-140.268"/>
</g>
<!-- Node48&#45;&gt;Node5 -->
<g id="edge182" class="edge"><title>Node48&#45;&gt;Node5</title>
<path fill="none" stroke="midnightblue" d="M1320.29,-239.412C1334.43,-223.731 1362.7,-194.035 1391,-174 1409.03,-161.234 1431.01,-149.871 1448.97,-141.516"/>
<polygon fill="midnightblue" stroke="midnightblue" points="1450.82,-144.519 1458.48,-137.195 1447.93,-138.146 1450.82,-144.519"/>
</g>
<!-- Node48&#45;&gt;Node8 -->
<g id="edge186" class="edge"><title>Node48&#45;&gt;Node8</title>
<path fill="none" stroke="midnightblue" d="M1292.18,-239.377C1276.38,-229.705 1254.03,-214.186 1239,-196 1211.8,-163.089 1192.93,-116.236 1183.63,-89.6038"/>
<polygon fill="midnightblue" stroke="midnightblue" points="1186.85,-88.1941 1180.34,-79.8368 1180.22,-90.4309 1186.85,-88.1941"/>
</g>
<!-- Node48&#45;&gt;Node13 -->
<g id="edge184" class="edge"><title>Node48&#45;&gt;Node13</title>
<path fill="none" stroke="midnightblue" d="M1312.43,-239.396C1316.57,-213.355 1331.12,-146.187 1374,-116 1411.45,-89.6372 1729.19,-74.5136 1832.61,-70.2549"/>
<polygon fill="midnightblue" stroke="midnightblue" points="1832.91,-73.7456 1842.76,-69.8435 1832.63,-66.7513 1832.91,-73.7456"/>
</g>
<!-- Node48&#45;&gt;Node18 -->
<g id="edge188" class="edge"><title>Node48&#45;&gt;Node18</title>
<path fill="none" stroke="midnightblue" d="M1341.74,-247.522C1385.69,-243.994 1469.02,-237.355 1540,-232 1761.28,-215.305 1817.45,-220.551 2038,-196 2050.02,-194.662 2063.1,-192.816 2074.82,-191.018"/>
<polygon fill="midnightblue" stroke="midnightblue" points="2075.37,-194.474 2084.71,-189.465 2074.29,-187.559 2075.37,-194.474"/>
</g>
<!-- Node49&#45;&gt;Node5 -->
<g id="edge192" class="edge"><title>Node49&#45;&gt;Node5</title>
<path fill="none" stroke="midnightblue" d="M1365.55,-304.243C1369.72,-287.879 1378.96,-256.092 1393,-232 1412.85,-197.94 1444.27,-164.374 1464.24,-144.682"/>
<polygon fill="midnightblue" stroke="midnightblue" points="1466.8,-147.079 1471.54,-137.605 1461.92,-142.055 1466.8,-147.079"/>
</g>
<!-- Node49&#45;&gt;Node17 -->
<g id="edge198" class="edge"><title>Node49&#45;&gt;Node17</title>
<path fill="none" stroke="midnightblue" d="M1392.63,-312.632C1422.12,-310.307 1468.68,-306.723 1509,-304 1776.87,-285.914 1847.54,-314.291 2112,-268 2124.2,-265.865 2137.42,-262.146 2148.42,-258.64"/>
<polygon fill="midnightblue" stroke="midnightblue" points="2149.79,-261.872 2158.19,-255.403 2147.59,-255.227 2149.79,-261.872"/>
</g>
<!-- Node49&#45;&gt;Node18 -->
<g id="edge200" class="edge"><title>Node49&#45;&gt;Node18</title>
<path fill="none" stroke="midnightblue" d="M1392.7,-312.756C1499.37,-304.64 1858.06,-276.819 1881,-268 1905.89,-258.432 1904.94,-243.5 1929,-232 1987.74,-203.921 2008.05,-212.633 2071,-196 2072.25,-195.669 2073.53,-195.33 2074.82,-194.986"/>
<polygon fill="midnightblue" stroke="midnightblue" points="2076.03,-198.283 2084.77,-192.294 2074.2,-191.526 2076.03,-198.283"/>
</g>
<!-- Node49&#45;&gt;Node39 -->
<g id="edge196" class="edge"><title>Node49&#45;&gt;Node39</title>
<path fill="none" stroke="midnightblue" d="M1333.31,-314.329C1156.72,-310.268 251.642,-288.475 232,-268 195.452,-229.902 255.525,-172.223 290.558,-143.902"/>
<polygon fill="midnightblue" stroke="midnightblue" points="292.758,-146.624 298.439,-137.681 288.421,-141.13 292.758,-146.624"/>
</g>
<!-- Node49&#45;&gt;Node41 -->
<g id="edge194" class="edge"><title>Node49&#45;&gt;Node41</title>
<path fill="none" stroke="midnightblue" d="M1333.24,-310.186C1228.17,-293.015 875.07,-233.779 767,-196 765.63,-195.521 701.768,-162.549 662.712,-142.363"/>
<polygon fill="midnightblue" stroke="midnightblue" points="663.86,-139.017 653.37,-137.534 660.646,-145.235 663.86,-139.017"/>
</g>
<!-- Node50&#45;&gt;Node10 -->
<g id="edge228" class="edge"><title>Node50&#45;&gt;Node10</title>
<path fill="none" stroke="midnightblue" d="M862.064,-307.542C889.776,-300.071 930.824,-286.948 963,-268 1022.2,-233.138 1079.64,-174.737 1106.77,-145.235"/>
<polygon fill="midnightblue" stroke="midnightblue" points="1109.46,-147.479 1113.59,-137.724 1104.28,-142.772 1109.46,-147.479"/>
</g>
<!-- Node50&#45;&gt;Node11 -->
<g id="edge224" class="edge"><title>Node50&#45;&gt;Node11</title>
<path fill="none" stroke="midnightblue" d="M799.989,-313.634C673.631,-307.959 203.071,-285.711 177,-268 143.128,-244.989 137,-225.949 137,-185 137,-185 137,-185 137,-127 137,-40.6068 268.989,-18.52 331.676,-12.902"/>
<polygon fill="midnightblue" stroke="midnightblue" points="332.135,-16.3764 341.821,-12.083 331.572,-9.39909 332.135,-16.3764"/>
</g>
<!-- Node50&#45;&gt;Node13 -->
<g id="edge222" class="edge"><title>Node50&#45;&gt;Node13</title>
<path fill="none" stroke="midnightblue" d="M846.911,-304.404C859.762,-295.468 877.955,-281.937 892,-268 952.901,-207.568 934.93,-155.678 1011,-116 1048.08,-96.6569 1681.58,-74.9502 1832.78,-70.0285"/>
<polygon fill="midnightblue" stroke="midnightblue" points="1832.94,-73.5254 1842.82,-69.7034 1832.71,-66.529 1832.94,-73.5254"/>
</g>
<!-- Node50&#45;&gt;Node18 -->
<g id="edge230" class="edge"><title>Node50&#45;&gt;Node18</title>
<path fill="none" stroke="midnightblue" d="M862.102,-314.23C1027.94,-310.04 1802.27,-289.39 1848,-268 1867.66,-258.804 1862.04,-242.559 1881,-232 1956.09,-190.189 1987.27,-215.411 2071,-196 2072.26,-195.707 2073.55,-195.401 2074.84,-195.085"/>
<polygon fill="midnightblue" stroke="midnightblue" points="2076.01,-198.399 2084.83,-192.525 2074.27,-191.618 2076.01,-198.399"/>
</g>
<!-- Node50&#45;&gt;Node34 -->
<g id="edge226" class="edge"><title>Node50&#45;&gt;Node34</title>
<path fill="none" stroke="midnightblue" d="M799.856,-305.269C772.805,-296.497 732.776,-282.744 699,-268 651.412,-247.227 598.358,-218.301 567.15,-200.656"/>
<polygon fill="midnightblue" stroke="midnightblue" points="568.619,-197.465 558.196,-195.564 565.158,-203.55 568.619,-197.465"/>
</g>
<!-- Node50&#45;&gt;Node35 -->
<g id="edge204" class="edge"><title>Node50&#45;&gt;Node35</title>
<path fill="none" stroke="midnightblue" d="M831,-304.267C831,-295.18 831,-281.892 831,-270.74"/>
<polygon fill="midnightblue" stroke="midnightblue" points="834.5,-270.534 831,-260.534 827.5,-270.534 834.5,-270.534"/>
</g>
<!-- Node50&#45;&gt;Node36 -->
<g id="edge206" class="edge"><title>Node50&#45;&gt;Node36</title>
<path fill="none" stroke="midnightblue" d="M816.822,-304.333C804.377,-294.91 785.843,-280.726 770,-268 750.569,-252.391 746.304,-247.766 727,-232 714.714,-221.966 700.846,-210.906 689.644,-202.036"/>
<polygon fill="midnightblue" stroke="midnightblue" points="691.683,-199.187 681.667,-195.734 687.344,-204.68 691.683,-199.187"/>
</g>
<!-- Node50&#45;&gt;Node39 -->
<g id="edge220" class="edge"><title>Node50&#45;&gt;Node39</title>
<path fill="none" stroke="midnightblue" d="M799.95,-313.854C675.655,-309.118 219.68,-290.275 199,-268 170.575,-237.383 175.761,-208.718 199,-174 212.433,-153.932 236.163,-142.423 258.508,-135.828"/>
<polygon fill="midnightblue" stroke="midnightblue" points="259.541,-139.175 268.298,-133.211 257.734,-132.412 259.541,-139.175"/>
</g>
<!-- Node50&#45;&gt;Node41 -->
<g id="edge208" class="edge"><title>Node50&#45;&gt;Node41</title>
<path fill="none" stroke="midnightblue" d="M803.287,-304.332C781.873,-295.653 751.802,-282.5 727,-268 703.671,-254.361 700.802,-246.503 678,-232 649.806,-214.068 629.056,-224.732 612,-196 602.877,-180.631 610.455,-160.95 618.947,-146.544"/>
<polygon fill="midnightblue" stroke="midnightblue" points="622.019,-148.238 624.493,-137.936 616.135,-144.447 622.019,-148.238"/>
</g>
<!-- Node51 -->
<g id="node157" class="node"><title>Node51</title>
<a xlink:href="shared__ptr__container_8h.html" target="_top" xlink:title="base/std_ext/shared\l_ptr_container.h">
<polygon fill="white" stroke="black" points="2430.5,-233 2430.5,-267 2535.5,-267 2535.5,-233 2430.5,-233"/>
<text text-anchor="start" x="2438.5" y="-254" font-family="Helvetica,sans-Serif" font-size="10.00">base/std_ext/shared</text>
<text text-anchor="middle" x="2483" y="-241" font-family="Helvetica,sans-Serif" font-size="10.00">_ptr_container.h</text>
</a>
</g>
<!-- Node50&#45;&gt;Node51 -->
<g id="edge210" class="edge"><title>Node50&#45;&gt;Node51</title>
<path fill="none" stroke="midnightblue" d="M862.238,-314.336C1068.2,-309.922 2227.66,-284.485 2384,-268 2395.81,-266.755 2408.32,-264.902 2420.34,-262.852"/>
<polygon fill="midnightblue" stroke="midnightblue" points="2421.05,-266.281 2430.29,-261.093 2419.83,-259.388 2421.05,-266.281"/>
</g>
<!-- Node51&#45;&gt;Node6 -->
<g id="edge218" class="edge"><title>Node51&#45;&gt;Node6</title>
<path fill="none" stroke="midnightblue" d="M2474.24,-232.897C2462.7,-210.372 2442.45,-170.83 2430.22,-146.962"/>
<polygon fill="midnightblue" stroke="midnightblue" points="2433.2,-145.092 2425.53,-137.787 2426.97,-148.283 2433.2,-145.092"/>
</g>
<!-- Node51&#45;&gt;Node13 -->
<g id="edge212" class="edge"><title>Node51&#45;&gt;Node13</title>
<path fill="none" stroke="midnightblue" d="M2485.5,-232.942C2488.67,-204.036 2490.22,-145.683 2457,-116 2415.06,-78.5302 2014.57,-70.7899 1897.18,-69.3208"/>
<polygon fill="midnightblue" stroke="midnightblue" points="1897.08,-65.8194 1887.04,-69.2009 1897,-72.8189 1897.08,-65.8194"/>
</g>
<!-- Node51&#45;&gt;Node18 -->
<g id="edge214" class="edge"><title>Node51&#45;&gt;Node18</title>
<path fill="none" stroke="midnightblue" d="M2430.17,-235.024C2425.73,-233.938 2421.3,-232.913 2417,-232 2320.49,-211.497 2205.04,-196.231 2147.44,-189.234"/>
<polygon fill="midnightblue" stroke="midnightblue" points="2147.73,-185.743 2137.38,-188.024 2146.89,-192.693 2147.73,-185.743"/>
</g>
<!-- Node51&#45;&gt;Node19 -->
<g id="edge216" class="edge"><title>Node51&#45;&gt;Node19</title>
<path fill="none" stroke="midnightblue" d="M2535.69,-239.986C2604.41,-226.925 2723.14,-204.359 2784.97,-192.609"/>
<polygon fill="midnightblue" stroke="midnightblue" points="2785.93,-195.988 2795.1,-190.682 2784.63,-189.111 2785.93,-195.988"/>
</g>
<!-- Node52&#45;&gt;Node6 -->
<g id="edge246" class="edge"><title>Node52&#45;&gt;Node6</title>
<path fill="none" stroke="midnightblue" d="M1214.77,-371.653C1326.24,-367.384 1648.46,-352.828 1687,-326 1725.01,-299.538 1695.39,-260.372 1732,-232 1797.52,-181.225 1834.48,-215.686 1915,-196 1948.74,-187.75 1955.93,-180.803 1990,-174 2132.96,-145.453 2306.36,-133.175 2381.83,-128.907"/>
<polygon fill="midnightblue" stroke="midnightblue" points="2382.03,-132.402 2391.82,-128.357 2381.64,-125.412 2382.03,-132.402"/>
</g>
<!-- Node52&#45;&gt;Node10 -->
<g id="edge242" class="edge"><title>Node52&#45;&gt;Node10</title>
<path fill="none" stroke="midnightblue" d="M1174.68,-362.43C1166.44,-324.896 1138.5,-197.604 1127.5,-147.502"/>
<polygon fill="midnightblue" stroke="midnightblue" points="1130.87,-146.548 1125.31,-137.531 1124.04,-148.049 1130.87,-146.548"/>
</g>
<!-- Node52&#45;&gt;Node13 -->
<g id="edge238" class="edge"><title>Node52&#45;&gt;Node13</title>
<path fill="none" stroke="midnightblue" d="M1180.27,-362.488C1193.47,-322.104 1246.93,-176.195 1348,-116 1389.64,-91.198 1726.34,-74.8919 1832.83,-70.3158"/>
<polygon fill="midnightblue" stroke="midnightblue" points="1833.13,-73.8066 1842.97,-69.886 1832.83,-66.8129 1833.13,-73.8066"/>
</g>
<!-- Node52&#45;&gt;Node18 -->
<g id="edge244" class="edge"><title>Node52&#45;&gt;Node18</title>
<path fill="none" stroke="midnightblue" d="M1214.71,-372.471C1304.35,-370.631 1536.87,-362.429 1727,-326 1814.55,-309.225 1839.46,-308.247 1919,-268 1942.79,-255.96 1943.34,-244.302 1967,-232 1985.98,-222.13 2039,-205.821 2075.13,-195.245"/>
<polygon fill="midnightblue" stroke="midnightblue" points="2076.2,-198.577 2084.83,-192.424 2074.25,-191.856 2076.2,-198.577"/>
</g>
<!-- Node52&#45;&gt;Node34 -->
<g id="edge240" class="edge"><title>Node52&#45;&gt;Node34</title>
<path fill="none" stroke="midnightblue" d="M1139.19,-371.067C1049.19,-366.103 824.537,-351.479 754,-326 674.582,-297.314 595.303,-233.667 559.605,-202.662"/>
<polygon fill="midnightblue" stroke="midnightblue" points="561.702,-199.845 551.882,-195.869 557.079,-205.102 561.702,-199.845"/>
</g>
<!-- Node52&#45;&gt;Node36 -->
<g id="edge236" class="edge"><title>Node52&#45;&gt;Node36</title>
<path fill="none" stroke="midnightblue" d="M1139.49,-371.184C1055.15,-366.66 853.046,-353.239 791,-326 735.202,-301.504 695.132,-237.195 677.702,-204.575"/>
<polygon fill="midnightblue" stroke="midnightblue" points="680.733,-202.819 673.027,-195.549 674.518,-206.038 680.733,-202.819"/>
</g>
<!-- Node52&#45;&gt;Node50 -->
<g id="edge234" class="edge"><title>Node52&#45;&gt;Node50</title>
<path fill="none" stroke="midnightblue" d="M1139.31,-366.683C1073.84,-355.707 939.627,-333.209 871.947,-321.864"/>
<polygon fill="midnightblue" stroke="midnightblue" points="872.509,-318.409 862.068,-320.208 871.352,-325.313 872.509,-318.409"/>
</g>
<!-- Node53&#45;&gt;Node5 -->
<g id="edge252" class="edge"><title>Node53&#45;&gt;Node5</title>
<path fill="none" stroke="midnightblue" d="M2208.8,-428.653C2073.93,-418.522 1559.12,-376.756 1509,-326 1461.46,-277.856 1471.08,-188.242 1478.5,-147.778"/>
<polygon fill="midnightblue" stroke="midnightblue" points="1481.94,-148.446 1480.44,-137.957 1475.07,-147.09 1481.94,-148.446"/>
</g>
<!-- Node53&#45;&gt;Node13 -->
<g id="edge296" class="edge"><title>Node53&#45;&gt;Node13</title>
<path fill="none" stroke="midnightblue" d="M2273.24,-429.08C2455.77,-417.889 3354.08,-358.445 3433,-268 3460.47,-236.521 3448.65,-212.736 3433,-174 3419.58,-140.776 3409.76,-130.513 3377,-116 3307.04,-85.0099 2111.17,-71.4907 1897.53,-69.3177"/>
<polygon fill="midnightblue" stroke="midnightblue" points="1897.32,-65.8156 1887.29,-69.2146 1897.25,-72.8152 1897.32,-65.8156"/>
</g>
<!-- Node53&#45;&gt;Node17 -->
<g id="edge298" class="edge"><title>Node53&#45;&gt;Node17</title>
<path fill="none" stroke="midnightblue" d="M2253.3,-420.11C2266.77,-406.792 2285.4,-383.38 2277,-362 2272.5,-350.543 2219.89,-296.853 2191.27,-268.172"/>
<polygon fill="midnightblue" stroke="midnightblue" points="2193.44,-265.395 2183.89,-260.802 2188.49,-270.347 2193.44,-265.395"/>
</g>
<!-- Node53&#45;&gt;Node18 -->
<g id="edge302" class="edge"><title>Node53&#45;&gt;Node18</title>
<path fill="none" stroke="midnightblue" d="M2231.73,-420.267C2224.01,-411.033 2213.03,-397.158 2205,-384 2167.12,-321.968 2133.63,-242.248 2118.93,-205.376"/>
<polygon fill="midnightblue" stroke="midnightblue" points="2122.06,-203.784 2115.13,-195.768 2115.55,-206.355 2122.06,-203.784"/>
</g>
<!-- Node53&#45;&gt;Node47 -->
<g id="edge294" class="edge"><title>Node53&#45;&gt;Node47</title>
<path fill="none" stroke="midnightblue" d="M2208.81,-430.852C1967.37,-429.661 447.043,-420.715 358,-384 332.876,-373.64 311.289,-350.325 298.243,-333.666"/>
<polygon fill="midnightblue" stroke="midnightblue" points="301.033,-331.553 292.225,-325.665 295.439,-335.76 301.033,-331.553"/>
</g>
<!-- Node53&#45;&gt;Node52 -->
<g id="edge250" class="edge"><title>Node53&#45;&gt;Node52</title>
<path fill="none" stroke="midnightblue" d="M2208.87,-429.248C2056.53,-420.944 1406.89,-385.532 1224.68,-375.599"/>
<polygon fill="midnightblue" stroke="midnightblue" points="1224.78,-372.1 1214.61,-375.05 1224.4,-379.089 1224.78,-372.1"/>
</g>
<!-- Node54 -->
<g id="node182" class="node"><title>Node54</title>
<a xlink:href="_particle_type_8h.html" target="_top" xlink:title="base/ParticleType.h">
<polygon fill="white" stroke="black" points="2629,-239.5 2629,-260.5 2733,-260.5 2733,-239.5 2629,-239.5"/>
<text text-anchor="middle" x="2681" y="-247.5" font-family="Helvetica,sans-Serif" font-size="10.00">base/ParticleType.h</text>
</a>
</g>
<!-- Node53&#45;&gt;Node54 -->
<g id="edge254" class="edge"><title>Node53&#45;&gt;Node54</title>
<path fill="none" stroke="midnightblue" d="M2273.29,-426.325C2358.96,-413.363 2589.38,-374.695 2647,-326 2663.66,-311.918 2672.5,-288.022 2676.94,-270.78"/>
<polygon fill="midnightblue" stroke="midnightblue" points="2680.46,-271.108 2679.27,-260.58 2673.63,-269.552 2680.46,-271.108"/>
</g>
<!-- Node53&#45;&gt;Node57 -->
<g id="edge270" class="edge"><title>Node53&#45;&gt;Node57</title>
<path fill="none" stroke="midnightblue" d="M2261.81,-420.27C2291.4,-405.386 2347.62,-378.456 2398,-362 2465.49,-339.953 2486.99,-342.882 2559.65,-326.233"/>
<polygon fill="midnightblue" stroke="midnightblue" points="2560.82,-329.555 2569.76,-323.868 2559.22,-322.739 2560.82,-329.555"/>
</g>
<!-- Node63 -->
<g id="node214" class="node"><title>Node63</title>
<polygon fill="white" stroke="#bfbfbf" points="2214,-362.5 2214,-383.5 2268,-383.5 2268,-362.5 2214,-362.5"/>
<text text-anchor="middle" x="2241" y="-370.5" font-family="Helvetica,sans-Serif" font-size="10.00">iostream</text>
</g>
<!-- Node53&#45;&gt;Node63 -->
<g id="edge300" class="edge"><title>Node53&#45;&gt;Node63</title>
<path fill="none" stroke="midnightblue" d="M2241,-420.362C2241,-412.922 2241,-402.743 2241,-393.728"/>
<polygon fill="midnightblue" stroke="midnightblue" points="2244.5,-393.571 2241,-383.571 2237.5,-393.571 2244.5,-393.571"/>
</g>
<!-- Node54&#45;&gt;Node4 -->
<g id="edge258" class="edge"><title>Node54&#45;&gt;Node4</title>
<path fill="none" stroke="midnightblue" d="M2628.75,-242.047C2603.25,-238.444 2572.08,-234.451 2544,-232 2177.49,-200.007 2084.15,-219.515 1717,-196 1690.6,-194.309 1661.22,-191.871 1637.08,-189.72"/>
<polygon fill="midnightblue" stroke="midnightblue" points="1637.36,-186.23 1627.08,-188.818 1636.73,-193.202 1637.36,-186.23"/>
</g>
<!-- Node54&#45;&gt;Node5 -->
<g id="edge256" class="edge"><title>Node54&#45;&gt;Node5</title>
<path fill="none" stroke="midnightblue" d="M2645.9,-239.392C2587.44,-222.243 2466.16,-188.854 2361,-174 2027.05,-126.83 1939.46,-161.399 1603,-138 1574.28,-136.002 1541.75,-132.973 1517.82,-130.599"/>
<polygon fill="midnightblue" stroke="midnightblue" points="1518.09,-127.109 1507.8,-129.594 1517.4,-134.075 1518.09,-127.109"/>
</g>
<!-- Node54&#45;&gt;Node13 -->
<g id="edge268" class="edge"><title>Node54&#45;&gt;Node13</title>
<path fill="none" stroke="midnightblue" d="M2685.67,-239.472C2691.65,-224.373 2700.21,-195.969 2691,-174 2676.78,-140.089 2665.59,-130.961 2632,-116 2564.22,-85.8099 2034.98,-72.5967 1897.53,-69.6537"/>
<polygon fill="midnightblue" stroke="midnightblue" points="1897.31,-66.1485 1887.24,-69.4371 1897.16,-73.1469 1897.31,-66.1485"/>
</g>
<!-- Node54&#45;&gt;Node14 -->
<g id="edge262" class="edge"><title>Node54&#45;&gt;Node14</title>
<path fill="none" stroke="midnightblue" d="M2628.75,-242.07C2603.24,-238.472 2572.08,-234.477 2544,-232 2456.03,-224.241 1828.56,-236.351 1750,-196 1709.74,-175.322 1726.08,-138.823 1687,-116 1642.15,-89.8072 1489.95,-76.2836 1419.42,-71.2985"/>
<polygon fill="midnightblue" stroke="midnightblue" points="1419.45,-67.7921 1409.23,-70.5977 1418.97,-74.7756 1419.45,-67.7921"/>
</g>
<!-- Node54&#45;&gt;Node15 -->
<g id="edge260" class="edge"><title>Node54&#45;&gt;Node15</title>
<path fill="none" stroke="midnightblue" d="M2682.56,-239.291C2684.27,-223.719 2685.32,-194.456 2673,-174 2663.77,-158.674 2647.39,-147.269 2632.8,-139.534"/>
<polygon fill="midnightblue" stroke="midnightblue" points="2634.08,-136.263 2623.57,-134.977 2630.99,-142.54 2634.08,-136.263"/>
</g>
<!-- Node54&#45;&gt;Node55 -->
<g id="edge264" class="edge"><title>Node54&#45;&gt;Node55</title>
<path fill="none" stroke="midnightblue" d="M2732.61,-239.484C2800.91,-225.568 2918.89,-201.527 2972.3,-190.644"/>
<polygon fill="midnightblue" stroke="midnightblue" points="2973.29,-194.015 2982.38,-188.589 2971.89,-187.156 2973.29,-194.015"/>
</g>
<!-- Node56 -->
<g id="node190" class="node"><title>Node56</title>
<polygon fill="white" stroke="#bfbfbf" points="2617.5,-174.5 2617.5,-195.5 2664.5,-195.5 2664.5,-174.5 2617.5,-174.5"/>
<text text-anchor="middle" x="2641" y="-182.5" font-family="Helvetica,sans-Serif" font-size="10.00">iterator</text>
</g>
<!-- Node54&#45;&gt;Node56 -->
<g id="edge266" class="edge"><title>Node54&#45;&gt;Node56</title>
<path fill="none" stroke="midnightblue" d="M2674.39,-239.267C2668.57,-229.801 2659.94,-215.777 2652.91,-204.357"/>
<polygon fill="midnightblue" stroke="midnightblue" points="2655.7,-202.216 2647.48,-195.534 2649.74,-205.885 2655.7,-202.216"/>
</g>
<!-- Node57&#45;&gt;Node6 -->
<g id="edge286" class="edge"><title>Node57&#45;&gt;Node6</title>
<path fill="none" stroke="midnightblue" d="M2597.54,-304.426C2587.27,-288.028 2566.11,-255.873 2544,-232 2511.97,-197.414 2468.92,-163.24 2442.88,-143.677"/>
<polygon fill="midnightblue" stroke="midnightblue" points="2444.86,-140.785 2434.75,-137.624 2440.68,-146.401 2444.86,-140.785"/>
</g>
<!-- Node57&#45;&gt;Node13 -->
<g id="edge284" class="edge"><title>Node57&#45;&gt;Node13</title>
<path fill="none" stroke="midnightblue" d="M2638.12,-314.303C2788.17,-311.073 3383.11,-296.5 3410,-268 3454.57,-220.755 3422.48,-161.983 3349,-116 3285.37,-76.1828 2108.75,-69.9124 1897.38,-69.1061"/>
<polygon fill="midnightblue" stroke="midnightblue" points="1897.25,-65.6057 1887.24,-69.0688 1897.23,-72.6056 1897.25,-65.6057"/>
</g>
<!-- Node57&#45;&gt;Node17 -->
<g id="edge282" class="edge"><title>Node57&#45;&gt;Node17</title>
<path fill="none" stroke="midnightblue" d="M2569.82,-305.841C2566.85,-305.17 2563.88,-304.545 2561,-304 2433.82,-279.912 2399.95,-287.585 2272,-268 2246.53,-264.101 2217.55,-258.72 2197.55,-254.859"/>
<polygon fill="midnightblue" stroke="midnightblue" points="2198.2,-251.419 2187.72,-252.942 2196.86,-258.29 2198.2,-251.419"/>
</g>
<!-- Node57&#45;&gt;Node18 -->
<g id="edge280" class="edge"><title>Node57&#45;&gt;Node18</title>
<path fill="none" stroke="midnightblue" d="M2569.96,-306.265C2517.5,-292.798 2422.83,-268.457 2422,-268 2401.65,-256.733 2404.8,-242.421 2384,-232 2343.07,-211.492 2212.01,-195.491 2147.53,-188.637"/>
<polygon fill="midnightblue" stroke="midnightblue" points="2147.71,-185.138 2137.4,-187.578 2146.99,-192.1 2147.71,-185.138"/>
</g>
<!-- Node57&#45;&gt;Node31 -->
<g id="edge292" class="edge"><title>Node57&#45;&gt;Node31</title>
<path fill="none" stroke="midnightblue" d="M2569.87,-305.539C2566.89,-304.934 2563.9,-304.406 2561,-304 1993.43,-224.49 1842.81,-319.31 1272,-268 1245.58,-265.625 823.487,-208.327 800,-196 777.951,-184.428 759.26,-162.432 747.659,-146.376"/>
<polygon fill="midnightblue" stroke="midnightblue" points="750.246,-143.963 741.676,-137.732 744.49,-147.947 750.246,-143.963"/>
</g>
<!-- Node58 -->
<g id="node195" class="node"><title>Node58</title>
<polygon fill="white" stroke="#bfbfbf" points="2865,-239.5 2865,-260.5 2961,-260.5 2961,-239.5 2865,-239.5"/>
<text text-anchor="middle" x="2913" y="-247.5" font-family="Helvetica,sans-Serif" font-size="10.00">cereal/access.hpp</text>
</g>
<!-- Node57&#45;&gt;Node58 -->
<g id="edge272" class="edge"><title>Node57&#45;&gt;Node58</title>
<path fill="none" stroke="midnightblue" d="M2638.18,-309.548C2686.05,-301.673 2775.65,-286.063 2851,-268 2856.8,-266.611 2862.86,-265.022 2868.83,-263.377"/>
<polygon fill="midnightblue" stroke="midnightblue" points="2870.05,-266.668 2878.72,-260.579 2868.14,-259.932 2870.05,-266.668"/>
</g>
<!-- Node59 -->
<g id="node197" class="node"><title>Node59</title>
<a xlink:href="variadic_8h.html" target="_top" xlink:title="std_ext/variadic.h">
<polygon fill="white" stroke="black" points="2281,-239.5 2281,-260.5 2375,-260.5 2375,-239.5 2281,-239.5"/>
<text text-anchor="middle" x="2328" y="-247.5" font-family="Helvetica,sans-Serif" font-size="10.00">std_ext/variadic.h</text>
</a>
</g>
<!-- Node57&#45;&gt;Node59 -->
<g id="edge274" class="edge"><title>Node57&#45;&gt;Node59</title>
<path fill="none" stroke="midnightblue" d="M2569.77,-306.097C2566.8,-305.371 2563.85,-304.663 2561,-304 2484.93,-286.318 2464.74,-287.067 2389,-268 2383.38,-266.584 2377.49,-264.991 2371.69,-263.354"/>
<polygon fill="midnightblue" stroke="midnightblue" points="2372.64,-259.986 2362.06,-260.579 2370.7,-266.712 2372.64,-259.986"/>
</g>
<!-- Node61 -->
<g id="node206" class="node"><title>Node61</title>
<polygon fill="white" stroke="#bfbfbf" points="2978.5,-239.5 2978.5,-260.5 3027.5,-260.5 3027.5,-239.5 2978.5,-239.5"/>
<text text-anchor="middle" x="3003" y="-247.5" font-family="Helvetica,sans-Serif" font-size="10.00">cassert</text>
</g>
<!-- Node57&#45;&gt;Node61 -->
<g id="edge288" class="edge"><title>Node57&#45;&gt;Node61</title>
<path fill="none" stroke="midnightblue" d="M2638.06,-312.248C2716.63,-305.638 2908.53,-287.931 2970,-268 2972.44,-267.207 2974.92,-266.233 2977.35,-265.151"/>
<polygon fill="midnightblue" stroke="midnightblue" points="2979.05,-268.217 2986.42,-260.605 2975.91,-261.96 2979.05,-268.217"/>
</g>
<!-- Node62 -->
<g id="node208" class="node"><title>Node62</title>
<polygon fill="white" stroke="#bfbfbf" points="3044.5,-239.5 3044.5,-260.5 3095.5,-260.5 3095.5,-239.5 3044.5,-239.5"/>
<text text-anchor="middle" x="3070" y="-247.5" font-family="Helvetica,sans-Serif" font-size="10.00">numeric</text>
</g>
<!-- Node57&#45;&gt;Node62 -->
<g id="edge290" class="edge"><title>Node57&#45;&gt;Node62</title>
<path fill="none" stroke="midnightblue" d="M2638.18,-312.95C2726.68,-307.375 2961.62,-290.816 3036,-268 3038.6,-267.201 3041.24,-266.2 3043.83,-265.082"/>
<polygon fill="midnightblue" stroke="midnightblue" points="3045.44,-268.191 3052.9,-260.666 3042.38,-261.898 3045.44,-268.191"/>
</g>
<!-- Node59&#45;&gt;Node32 -->
<g id="edge278" class="edge"><title>Node59&#45;&gt;Node32</title>
<path fill="none" stroke="midnightblue" d="M2280.79,-242.231C2255.68,-238.436 2224.25,-234.219 2196,-232 1447.03,-173.15 1254.18,-264.15 506,-196 493.196,-194.834 479.154,-192.707 467.171,-190.632"/>
<polygon fill="midnightblue" stroke="midnightblue" points="467.716,-187.174 457.254,-188.848 466.476,-194.064 467.716,-187.174"/>
</g>
<!-- Node60 -->
<g id="node199" class="node"><title>Node60</title>
<polygon fill="white" stroke="#bfbfbf" points="2303.5,-174.5 2303.5,-195.5 2352.5,-195.5 2352.5,-174.5 2303.5,-174.5"/>
<text text-anchor="middle" x="2328" y="-182.5" font-family="Helvetica,sans-Serif" font-size="10.00">cstddef</text>
</g>
<!-- Node59&#45;&gt;Node60 -->
<g id="edge276" class="edge"><title>Node59&#45;&gt;Node60</title>
<path fill="none" stroke="midnightblue" d="M2328,-239.267C2328,-230.18 2328,-216.892 2328,-205.74"/>
<polygon fill="midnightblue" stroke="midnightblue" points="2331.5,-205.534 2328,-195.534 2324.5,-205.534 2331.5,-205.534"/>
</g>
<!-- Node64&#45;&gt;Node10 -->
<g id="edge314" class="edge"><title>Node64&#45;&gt;Node10</title>
<path fill="none" stroke="midnightblue" d="M1740.95,-240.956C1613.01,-217.361 1271.26,-154.34 1159.17,-133.669"/>
<polygon fill="midnightblue" stroke="midnightblue" points="1159.52,-130.175 1149.05,-131.804 1158.25,-137.059 1159.52,-130.175"/>
</g>
<!-- Node64&#45;&gt;Node15 -->
<g id="edge306" class="edge"><title>Node64&#45;&gt;Node15</title>
<path fill="none" stroke="midnightblue" d="M1824.85,-239.464C1833.97,-236.866 1843.82,-234.201 1853,-232 1934.46,-212.476 1959.56,-225.39 2038,-196 2056.27,-189.153 2057.4,-179.895 2076,-174 2099.81,-166.456 2463.59,-137.803 2572.45,-129.357"/>
<polygon fill="midnightblue" stroke="midnightblue" points="2572.76,-132.844 2582.46,-128.582 2572.22,-125.864 2572.76,-132.844"/>
</g>
<!-- Node64&#45;&gt;Node18 -->
<g id="edge308" class="edge"><title>Node64&#45;&gt;Node18</title>
<path fill="none" stroke="midnightblue" d="M1824.15,-239.472C1833.45,-236.816 1843.57,-234.119 1853,-232 1948.81,-210.476 1975.08,-217.048 2071,-196 2072.27,-195.722 2073.55,-195.429 2074.85,-195.124"/>
<polygon fill="midnightblue" stroke="midnightblue" points="2076,-198.444 2084.85,-192.614 2074.3,-191.654 2076,-198.444"/>
</g>
<!-- Node64&#45;&gt;Node55 -->
<g id="edge310" class="edge"><title>Node64&#45;&gt;Node55</title>
<path fill="none" stroke="midnightblue" d="M1839.38,-245.995C1889.41,-242.036 1969.05,-236.006 2038,-232 2404.4,-210.714 2496.69,-218.691 2863,-196 2900.84,-193.656 2944.49,-189.983 2972.16,-187.535"/>
<polygon fill="midnightblue" stroke="midnightblue" points="2972.63,-191.007 2982.28,-186.631 2972.01,-184.035 2972.63,-191.007"/>
</g>
<!-- Node65 -->
<g id="node222" class="node"><title>Node65</title>
<polygon fill="white" stroke="#bfbfbf" points="1999,-174.5 1999,-195.5 2029,-195.5 2029,-174.5 1999,-174.5"/>
<text text-anchor="middle" x="2014" y="-182.5" font-family="Helvetica,sans-Serif" font-size="10.00">set</text>
</g>
<!-- Node64&#45;&gt;Node65 -->
<g id="edge312" class="edge"><title>Node64&#45;&gt;Node65</title>
<path fill="none" stroke="midnightblue" d="M1826.62,-239.455C1835.27,-236.989 1844.45,-234.386 1853,-232 1911.57,-215.647 1927.17,-214.805 1985,-196 1986.41,-195.542 1987.85,-195.056 1989.3,-194.552"/>
<polygon fill="midnightblue" stroke="midnightblue" points="1990.55,-197.819 1998.75,-191.101 1988.15,-191.244 1990.55,-197.819"/>
</g>
<!-- Node66&#45;&gt;Node17 -->
<g id="edge320" class="edge"><title>Node66&#45;&gt;Node17</title>
<path fill="none" stroke="midnightblue" d="M2305.44,-304.424C2275.34,-296.338 2234.79,-283.884 2201,-268 2199.45,-267.273 2197.89,-266.474 2196.34,-265.63"/>
<polygon fill="midnightblue" stroke="midnightblue" points="2198.07,-262.59 2187.69,-260.474 2194.49,-268.602 2198.07,-262.59"/>
</g>
<!-- Node66&#45;&gt;Node18 -->
<g id="edge318" class="edge"><title>Node66&#45;&gt;Node18</title>
<path fill="none" stroke="midnightblue" d="M2317.46,-304.34C2294.79,-296.018 2263.96,-283.316 2239,-268 2217.76,-254.964 2216.56,-246.095 2196,-232 2178.79,-220.202 2158.37,-208.83 2141.85,-200.228"/>
<polygon fill="midnightblue" stroke="midnightblue" points="2143.13,-196.949 2132.63,-195.501 2139.93,-203.178 2143.13,-196.949"/>
</g>
<!-- Node67&#45;&gt;Node6 -->
<g id="edge346" class="edge"><title>Node67&#45;&gt;Node6</title>
<path fill="none" stroke="midnightblue" d="M3333.48,-239.415C3302.2,-222.14 3236.39,-188.373 3176,-174 2915.25,-111.934 2841.46,-155.549 2574,-138 2534.47,-135.406 2489.26,-132.141 2458.09,-129.844"/>
<polygon fill="midnightblue" stroke="midnightblue" points="2458.33,-126.352 2448.09,-129.105 2457.81,-133.333 2458.33,-126.352"/>
</g>
<!-- Node67&#45;&gt;Node13 -->
<g id="edge342" class="edge"><title>Node67&#45;&gt;Node13</title>
<path fill="none" stroke="midnightblue" d="M3354.01,-239.182C3358.12,-213.251 3364.3,-147.376 3328,-116 3300,-91.7905 2110.3,-72.7053 1897.43,-69.4809"/>
<polygon fill="midnightblue" stroke="midnightblue" points="1897.27,-65.9782 1887.22,-69.3271 1897.17,-72.9775 1897.27,-65.9782"/>
</g>
<!-- Node67&#45;&gt;Node15 -->
<g id="edge344" class="edge"><title>Node67&#45;&gt;Node15</title>
<path fill="none" stroke="midnightblue" d="M3342.17,-239.274C3325.54,-221.956 3289.94,-188.329 3252,-174 3193.78,-152.014 2754.96,-133.056 2633.87,-128.201"/>
<polygon fill="midnightblue" stroke="midnightblue" points="2633.92,-124.701 2623.79,-127.801 2633.64,-131.695 2633.92,-124.701"/>
</g>
<!-- Node67&#45;&gt;Node18 -->
<g id="edge348" class="edge"><title>Node67&#45;&gt;Node18</title>
<path fill="none" stroke="midnightblue" d="M3302.62,-246.007C3252.59,-242.058 3172.95,-236.036 3104,-232 2744.7,-210.971 2654.42,-214.74 2295,-196 2243.81,-193.331 2184.64,-189.695 2147.52,-187.348"/>
<polygon fill="midnightblue" stroke="midnightblue" points="2147.4,-183.833 2137.2,-186.692 2146.96,-190.819 2147.4,-183.833"/>
</g>
<!-- Node67&#45;&gt;Node68 -->
<g id="edge340" class="edge"><title>Node67&#45;&gt;Node68</title>
<path fill="none" stroke="midnightblue" d="M3379.37,-239.412C3408.23,-228.246 3453.78,-210.619 3485.18,-198.47"/>
<polygon fill="midnightblue" stroke="midnightblue" points="3486.78,-201.606 3494.84,-194.733 3484.25,-195.078 3486.78,-201.606"/>
</g>
<!-- Node70&#45;&gt;Node6 -->
<g id="edge360" class="edge"><title>Node70&#45;&gt;Node6</title>
<path fill="none" stroke="midnightblue" d="M2985.47,-478.225C2982.64,-463.288 2980.12,-436.295 2994,-420 3036.49,-370.104 3083.61,-422.011 3137,-384 3193.73,-343.613 3214.31,-289.48 3175,-232 3134.89,-173.341 3095.28,-189.807 3026,-174 3012.1,-170.829 2589.56,-139.5 2458.43,-129.828"/>
<polygon fill="midnightblue" stroke="midnightblue" points="2458.31,-126.31 2448.08,-129.065 2457.79,-133.291 2458.31,-126.31"/>
</g>
<!-- Node70&#45;&gt;Node20 -->
<g id="edge362" class="edge"><title>Node70&#45;&gt;Node20</title>
<path fill="none" stroke="midnightblue" d="M2931.14,-479.55C2926.7,-478.97 2922.28,-478.443 2918,-478 2838.55,-469.788 2267.73,-484.345 2200,-442 2140.63,-404.881 2164.69,-360.981 2124,-304 2114.83,-291.156 2102.97,-278.015 2093.21,-267.913"/>
<polygon fill="midnightblue" stroke="midnightblue" points="2095.45,-265.191 2085.93,-260.526 2090.46,-270.105 2095.45,-265.191"/>
</g>
<!-- Node70&#45;&gt;Node53 -->
<g id="edge358" class="edge"><title>Node70&#45;&gt;Node53</title>
<path fill="none" stroke="midnightblue" d="M2931.13,-479.642C2926.7,-479.041 2922.28,-478.484 2918,-478 2678.66,-450.938 2389.83,-437.124 2283.19,-432.658"/>
<polygon fill="midnightblue" stroke="midnightblue" points="2283.29,-429.159 2273.16,-432.243 2283,-436.153 2283.29,-429.159"/>
</g>
<!-- Node70&#45;&gt;Node69 -->
<g id="edge364" class="edge"><title>Node70&#45;&gt;Node69</title>
<path fill="none" stroke="midnightblue" d="M2999.19,-478.362C3007.96,-470.023 3020.35,-458.242 3030.58,-448.516"/>
<polygon fill="midnightblue" stroke="midnightblue" points="3033.05,-450.998 3037.88,-441.571 3028.22,-445.925 3033.05,-450.998"/>
</g>
</g>
</svg>
