<?xml version="1.0" encoding="UTF-8" standalone="no"?>
<!DOCTYPE svg PUBLIC "-//W3C//DTD SVG 1.1//EN"
 "http://www.w3.org/Graphics/SVG/1.1/DTD/svg11.dtd">
<!-- Generated by graphviz version 2.26.3 (20100126.1600)
 -->
<!-- Title: src/base/std_ext/printable.h Pages: 1 -->
<svg width="315pt" height="146pt"
 viewBox="0.00 0.00 315.00 146.00" xmlns="http://www.w3.org/2000/svg" xmlns:xlink="http://www.w3.org/1999/xlink">
<g id="graph1" class="graph" transform="scale(1 1) rotate(0) translate(4 142)">
<title>src/base/std_ext/printable.h</title>
<polygon fill="white" stroke="white" points="-4,5 -4,-142 312,-142 312,5 -4,5"/>
<!-- Node0 -->
<g id="node1" class="node"><title>Node0</title>
<polygon fill="#bfbfbf" stroke="black" points="137.5,-116.5 137.5,-137.5 274.5,-137.5 274.5,-116.5 137.5,-116.5"/>
<text text-anchor="middle" x="206" y="-124.5" font-family="Helvetica,sans-Serif" font-size="10.00">src/base/std_ext/printable.h</text>
</g>
<!-- Node1 -->
<g id="node3" class="node"><title>Node1</title>
<a xlink:href="container_8h.html" target="_top" xlink:title="container.h">
<polygon fill="white" stroke="black" points="92.5,-58.5 92.5,-79.5 157.5,-79.5 157.5,-58.5 92.5,-58.5"/>
<text text-anchor="middle" x="125" y="-66.5" font-family="Helvetica,sans-Serif" font-size="10.00">container.h</text>
</a>
</g>
<!-- Node0&#45;&gt;Node1 -->
<g id="edge2" class="edge"><title>Node0&#45;&gt;Node1</title>
<path fill="none" stroke="midnightblue" d="M191.143,-116.362C179.154,-107.777 162.073,-95.5459 148.272,-85.6636"/>
<polygon fill="midnightblue" stroke="midnightblue" points="149.931,-82.5469 139.762,-79.5707 145.855,-88.2383 149.931,-82.5469"/>
</g>
<!-- Node6 -->
<g id="node13" class="node"><title>Node6</title>
<polygon fill="white" stroke="#bfbfbf" points="175,-58.5 175,-79.5 237,-79.5 237,-58.5 175,-58.5"/>
<text text-anchor="middle" x="206" y="-66.5" font-family="Helvetica,sans-Serif" font-size="10.00">type_traits</text>
</g>
<!-- Node0&#45;&gt;Node6 -->
<g id="edge12" class="edge"><title>Node0&#45;&gt;Node6</title>
<path fill="none" stroke="midnightblue" d="M206,-116.362C206,-108.922 206,-98.7427 206,-89.7276"/>
<polygon fill="midnightblue" stroke="midnightblue" points="209.5,-89.5706 206,-79.5707 202.5,-89.5707 209.5,-89.5706"/>
</g>
<!-- Node7 -->
<g id="node15" class="node"><title>Node7</title>
<polygon fill="white" stroke="#bfbfbf" points="255,-58.5 255,-79.5 307,-79.5 307,-58.5 255,-58.5"/>
<text text-anchor="middle" x="281" y="-66.5" font-family="Helvetica,sans-Serif" font-size="10.00">ostream</text>
</g>
<!-- Node0&#45;&gt;Node7 -->
<g id="edge14" class="edge"><title>Node0&#45;&gt;Node7</title>
<path fill="none" stroke="midnightblue" d="M219.756,-116.362C230.751,-107.859 246.373,-95.7785 259.086,-85.9466"/>
<polygon fill="midnightblue" stroke="midnightblue" points="261.562,-88.4569 267.331,-79.5707 257.279,-82.9195 261.562,-88.4569"/>
</g>
<!-- Node2 -->
<g id="node5" class="node"><title>Node2</title>
<polygon fill="white" stroke="#bfbfbf" points="0,-0.5 0,-21.5 44,-21.5 44,-0.5 0,-0.5"/>
<text text-anchor="middle" x="22" y="-8.5" font-family="Helvetica,sans-Serif" font-size="10.00">vector</text>
</g>
<!-- Node1&#45;&gt;Node2 -->
<g id="edge4" class="edge"><title>Node1&#45;&gt;Node2</title>
<path fill="none" stroke="midnightblue" d="M106.108,-58.3619C90.2823,-49.4502 67.4774,-36.6087 49.6053,-26.5447"/>
<polygon fill="midnightblue" stroke="midnightblue" points="51.2029,-23.4276 40.772,-21.5707 47.7682,-29.5271 51.2029,-23.4276"/>
</g>
<!-- Node3 -->
<g id="node7" class="node"><title>Node3</title>
<polygon fill="white" stroke="#bfbfbf" points="62,-0.5 62,-21.5 118,-21.5 118,-0.5 62,-0.5"/>
<text text-anchor="middle" x="90" y="-8.5" font-family="Helvetica,sans-Serif" font-size="10.00">algorithm</text>
</g>
<!-- Node1&#45;&gt;Node3 -->
<g id="edge6" class="edge"><title>Node1&#45;&gt;Node3</title>
<path fill="none" stroke="midnightblue" d="M118.58,-58.3619C113.844,-50.5131 107.268,-39.6159 101.618,-30.2527"/>
<polygon fill="midnightblue" stroke="midnightblue" points="104.542,-28.3242 96.3788,-21.5707 98.5489,-31.9409 104.542,-28.3242"/>
</g>
<!-- Node4 -->
<g id="node9" class="node"><title>Node4</title>
<polygon fill="white" stroke="#bfbfbf" points="135.5,-0.5 135.5,-21.5 186.5,-21.5 186.5,-0.5 135.5,-0.5"/>
<text text-anchor="middle" x="161" y="-8.5" font-family="Helvetica,sans-Serif" font-size="10.00">numeric</text>
</g>
<!-- Node1&#45;&gt;Node4 -->
<g id="edge8" class="edge"><title>Node1&#45;&gt;Node4</title>
<path fill="none" stroke="midnightblue" d="M131.603,-58.3619C136.475,-50.5131 143.238,-39.6159 149.05,-30.2527"/>
<polygon fill="midnightblue" stroke="midnightblue" points="152.139,-31.9129 154.439,-21.5707 146.191,-28.2213 152.139,-31.9129"/>
</g>
<!-- Node5 -->
<g id="node11" class="node"><title>Node5</title>
<polygon fill="white" stroke="#bfbfbf" points="203.5,-0.5 203.5,-21.5 244.5,-21.5 244.5,-0.5 203.5,-0.5"/>
<text text-anchor="middle" x="224" y="-8.5" font-family="Helvetica,sans-Serif" font-size="10.00">string</text>
</g>
<!-- Node1&#45;&gt;Node5 -->
<g id="edge10" class="edge"><title>Node1&#45;&gt;Node5</title>
<path fill="none" stroke="midnightblue" d="M143.158,-58.3619C158.23,-49.532 179.887,-36.844 196.993,-26.8224"/>
<polygon fill="midnightblue" stroke="midnightblue" points="199.098,-29.6456 205.957,-21.5707 195.559,-23.6058 199.098,-29.6456"/>
</g>
</g>
</svg>
