<?xml version="1.0" encoding="UTF-8" standalone="no"?>
<!DOCTYPE svg PUBLIC "-//W3C//DTD SVG 1.1//EN"
 "http://www.w3.org/Graphics/SVG/1.1/DTD/svg11.dtd">
<!-- Generated by graphviz version 2.26.3 (20100126.1600)
 -->
<!-- Title: src/analysis/slowcontrol/processors/PairSpec.h Pages: 1 -->
<svg width="1211pt" height="260pt"
 viewBox="0.00 0.00 1211.00 260.00" xmlns="http://www.w3.org/2000/svg" xmlns:xlink="http://www.w3.org/1999/xlink">
<g id="graph1" class="graph" transform="scale(1 1) rotate(0) translate(4 256)">
<title>src/analysis/slowcontrol/processors/PairSpec.h</title>
<polygon fill="white" stroke="white" points="-4,5 -4,-256 1208,-256 1208,5 -4,5"/>
<!-- Node82 -->
<g id="node1" class="node"><title>Node82</title>
<polygon fill="#bfbfbf" stroke="black" points="502,-217 502,-251 624,-251 624,-217 502,-217"/>
<text text-anchor="start" x="510" y="-238" font-family="Helvetica,sans-Serif" font-size="10.00">src/analysis/slowcontrol</text>
<text text-anchor="middle" x="563" y="-225" font-family="Helvetica,sans-Serif" font-size="10.00">/processors/PairSpec.h</text>
</g>
<!-- Node83 -->
<g id="node3" class="node"><title>Node83</title>
<a xlink:href="processors_2_pair_spec_8cc.html" target="_top" xlink:title="src/analysis/slowcontrol\l/processors/PairSpec.cc">
<polygon fill="white" stroke="black" points="429,-145 429,-179 553,-179 553,-145 429,-145"/>
<text text-anchor="start" x="437" y="-166" font-family="Helvetica,sans-Serif" font-size="10.00">src/analysis/slowcontrol</text>
<text text-anchor="middle" x="491" y="-153" font-family="Helvetica,sans-Serif" font-size="10.00">/processors/PairSpec.cc</text>
</a>
</g>
<!-- Node82&#45;&gt;Node83 -->
<g id="edge2" class="edge"><title>Node82&#45;&gt;Node83</title>
<path fill="none" stroke="midnightblue" d="M538.671,-209.671C528.755,-199.755 517.515,-188.515 508.441,-179.441"/>
<polygon fill="midnightblue" stroke="midnightblue" points="536.391,-212.341 545.937,-216.937 541.341,-207.391 536.391,-212.341"/>
</g>
<!-- Node84 -->
<g id="node5" class="node"><title>Node84</title>
<a xlink:href="_slow_control_processors_8h.html" target="_top" xlink:title="src/analysis/slowcontrol\l/SlowControlProcessors.h">
<polygon fill="white" stroke="black" points="570.5,-145 570.5,-179 701.5,-179 701.5,-145 570.5,-145"/>
<text text-anchor="start" x="578.5" y="-166" font-family="Helvetica,sans-Serif" font-size="10.00">src/analysis/slowcontrol</text>
<text text-anchor="middle" x="636" y="-153" font-family="Helvetica,sans-Serif" font-size="10.00">/SlowControlProcessors.h</text>
</a>
</g>
<!-- Node82&#45;&gt;Node84 -->
<g id="edge4" class="edge"><title>Node82&#45;&gt;Node84</title>
<path fill="none" stroke="midnightblue" d="M587.426,-209.908C597.631,-199.844 609.254,-188.38 618.571,-179.19"/>
<polygon fill="midnightblue" stroke="midnightblue" points="584.962,-207.423 580.3,-216.937 589.877,-212.407 584.962,-207.423"/>
</g>
<!-- Node85 -->
<g id="node7" class="node"><title>Node85</title>
<a xlink:href="_slow_control_manager_8h.html" target="_top" xlink:title="src/analysis/slowcontrol\l/SlowControlManager.h">
<polygon fill="white" stroke="black" points="141,-73 141,-107 263,-107 263,-73 141,-73"/>
<text text-anchor="start" x="149" y="-94" font-family="Helvetica,sans-Serif" font-size="10.00">src/analysis/slowcontrol</text>
<text text-anchor="middle" x="202" y="-81" font-family="Helvetica,sans-Serif" font-size="10.00">/SlowControlManager.h</text>
</a>
</g>
<!-- Node84&#45;&gt;Node85 -->
<g id="edge6" class="edge"><title>Node84&#45;&gt;Node85</title>
<path fill="none" stroke="midnightblue" d="M560.338,-143.766C448.744,-122.699 418.054,-124.929 309,-108 294.108,-105.688 278.075,-103.064 263.067,-100.547"/>
<polygon fill="midnightblue" stroke="midnightblue" points="559.826,-147.232 570.305,-145.669 561.139,-140.356 559.826,-147.232"/>
</g>
<!-- Node88 -->
<g id="node13" class="node"><title>Node88</title>
<a xlink:href="_test_slow_control_manager_8cc.html" target="_top" xlink:title="test/analysis/TestSlowControl\lManager.cc">
<polygon fill="white" stroke="black" points="266,-1 266,-35 414,-35 414,-1 266,-1"/>
<text text-anchor="start" x="274" y="-22" font-family="Helvetica,sans-Serif" font-size="10.00">test/analysis/TestSlowControl</text>
<text text-anchor="middle" x="340" y="-9" font-family="Helvetica,sans-Serif" font-size="10.00">Manager.cc</text>
</a>
</g>
<!-- Node84&#45;&gt;Node88 -->
<g id="edge26" class="edge"><title>Node84&#45;&gt;Node88</title>
<path fill="none" stroke="midnightblue" d="M560.26,-144.031C498.572,-135.224 372.717,-143.348 342,-108 324.675,-88.063 329.353,-55.2265 334.533,-35.2105"/>
<polygon fill="midnightblue" stroke="midnightblue" points="559.845,-147.51 570.291,-145.741 561.021,-140.61 559.845,-147.51"/>
</g>
<!-- Node89 -->
<g id="node15" class="node"><title>Node89</title>
<a xlink:href="_slow_control_processors_8cc.html" target="_top" xlink:title="src/analysis/slowcontrol\l/SlowControlProcessors.cc">
<polygon fill="white" stroke="black" points="351,-73 351,-107 487,-107 487,-73 351,-73"/>
<text text-anchor="start" x="359" y="-94" font-family="Helvetica,sans-Serif" font-size="10.00">src/analysis/slowcontrol</text>
<text text-anchor="middle" x="419" y="-81" font-family="Helvetica,sans-Serif" font-size="10.00">/SlowControlProcessors.cc</text>
</a>
</g>
<!-- Node84&#45;&gt;Node89 -->
<g id="edge14" class="edge"><title>Node84&#45;&gt;Node89</title>
<path fill="none" stroke="midnightblue" d="M575.04,-141.774C542.071,-130.835 501.803,-117.474 470.432,-107.065"/>
<polygon fill="midnightblue" stroke="midnightblue" points="573.981,-145.11 584.574,-144.937 576.185,-138.466 573.981,-145.11"/>
</g>
<!-- Node90 -->
<g id="node17" class="node"><title>Node90</title>
<a xlink:href="_beam_8cc.html" target="_top" xlink:title="src/analysis/slowcontrol\l/variables/Beam.cc">
<polygon fill="white" stroke="black" points="505,-73 505,-107 627,-107 627,-73 505,-73"/>
<text text-anchor="start" x="513" y="-94" font-family="Helvetica,sans-Serif" font-size="10.00">src/analysis/slowcontrol</text>
<text text-anchor="middle" x="566" y="-81" font-family="Helvetica,sans-Serif" font-size="10.00">/variables/Beam.cc</text>
</a>
</g>
<!-- Node84&#45;&gt;Node90 -->
<g id="edge16" class="edge"><title>Node84&#45;&gt;Node90</title>
<path fill="none" stroke="midnightblue" d="M612.346,-137.671C602.706,-127.755 591.779,-116.515 582.956,-107.441"/>
<polygon fill="midnightblue" stroke="midnightblue" points="609.931,-140.207 619.411,-144.937 614.95,-135.327 609.931,-140.207"/>
</g>
<!-- Node91 -->
<g id="node19" class="node"><title>Node91</title>
<a xlink:href="_clocks_8cc.html" target="_top" xlink:title="src/analysis/slowcontrol\l/variables/Clocks.cc">
<polygon fill="white" stroke="black" points="645,-73 645,-107 767,-107 767,-73 645,-73"/>
<text text-anchor="start" x="653" y="-94" font-family="Helvetica,sans-Serif" font-size="10.00">src/analysis/slowcontrol</text>
<text text-anchor="middle" x="706" y="-81" font-family="Helvetica,sans-Serif" font-size="10.00">/variables/Clocks.cc</text>
</a>
</g>
<!-- Node84&#45;&gt;Node91 -->
<g id="edge18" class="edge"><title>Node84&#45;&gt;Node91</title>
<path fill="none" stroke="midnightblue" d="M659.654,-137.671C669.294,-127.755 680.221,-116.515 689.044,-107.441"/>
<polygon fill="midnightblue" stroke="midnightblue" points="657.05,-135.327 652.589,-144.937 662.069,-140.207 657.05,-135.327"/>
</g>
<!-- Node92 -->
<g id="node21" class="node"><title>Node92</title>
<a xlink:href="variables_2_pair_spec_8cc.html" target="_top" xlink:title="src/analysis/slowcontrol\l/variables/Pairspec.cc">
<polygon fill="white" stroke="black" points="785,-73 785,-107 907,-107 907,-73 785,-73"/>
<text text-anchor="start" x="793" y="-94" font-family="Helvetica,sans-Serif" font-size="10.00">src/analysis/slowcontrol</text>
<text text-anchor="middle" x="846" y="-81" font-family="Helvetica,sans-Serif" font-size="10.00">/variables/Pairspec.cc</text>
</a>
</g>
<!-- Node84&#45;&gt;Node92 -->
<g id="edge20" class="edge"><title>Node84&#45;&gt;Node92</title>
<path fill="none" stroke="midnightblue" d="M695.405,-141.633C727.233,-130.72 765.998,-117.429 796.227,-107.065"/>
<polygon fill="midnightblue" stroke="midnightblue" points="694.091,-138.383 685.767,-144.937 696.362,-145.005 694.091,-138.383"/>
</g>
<!-- Node93 -->
<g id="node23" class="node"><title>Node93</title>
<a xlink:href="_tagger_scalers_8cc.html" target="_top" xlink:title="src/analysis/slowcontrol\l/variables/TaggerScalers.cc">
<polygon fill="white" stroke="black" points="925,-73 925,-107 1063,-107 1063,-73 925,-73"/>
<text text-anchor="start" x="933" y="-94" font-family="Helvetica,sans-Serif" font-size="10.00">src/analysis/slowcontrol</text>
<text text-anchor="middle" x="994" y="-81" font-family="Helvetica,sans-Serif" font-size="10.00">/variables/TaggerScalers.cc</text>
</a>
</g>
<!-- Node84&#45;&gt;Node93 -->
<g id="edge22" class="edge"><title>Node84&#45;&gt;Node93</title>
<path fill="none" stroke="midnightblue" d="M711.676,-148.174C768.102,-137.679 847.008,-122.608 916,-108 918.855,-107.395 921.767,-106.769 924.706,-106.128"/>
<polygon fill="midnightblue" stroke="midnightblue" points="710.956,-144.748 701.762,-150.014 712.233,-151.631 710.956,-144.748"/>
</g>
<!-- Node94 -->
<g id="node25" class="node"><title>Node94</title>
<a xlink:href="analysis_2slowcontrol_2variables_2_trigger_8cc.html" target="_top" xlink:title="src/analysis/slowcontrol\l/variables/Trigger.cc">
<polygon fill="white" stroke="black" points="1081,-73 1081,-107 1203,-107 1203,-73 1081,-73"/>
<text text-anchor="start" x="1089" y="-94" font-family="Helvetica,sans-Serif" font-size="10.00">src/analysis/slowcontrol</text>
<text text-anchor="middle" x="1142" y="-81" font-family="Helvetica,sans-Serif" font-size="10.00">/variables/Trigger.cc</text>
</a>
</g>
<!-- Node84&#45;&gt;Node94 -->
<g id="edge24" class="edge"><title>Node84&#45;&gt;Node94</title>
<path fill="none" stroke="midnightblue" d="M711.866,-155.584C799.211,-147.51 946.757,-131.757 1072,-108 1074.84,-107.462 1077.73,-106.876 1080.64,-106.254"/>
<polygon fill="midnightblue" stroke="midnightblue" points="711.418,-152.111 701.779,-156.507 712.056,-159.082 711.418,-152.111"/>
</g>
<!-- Node86 -->
<g id="node9" class="node"><title>Node86</title>
<a xlink:href="_physics_manager_8cc.html" target="_top" xlink:title="src/analysis/physics\l/PhysicsManager.cc">
<polygon fill="white" stroke="black" points="0,-1 0,-35 106,-35 106,-1 0,-1"/>
<text text-anchor="start" x="8" y="-22" font-family="Helvetica,sans-Serif" font-size="10.00">src/analysis/physics</text>
<text text-anchor="middle" x="53" y="-9" font-family="Helvetica,sans-Serif" font-size="10.00">/PhysicsManager.cc</text>
</a>
</g>
<!-- Node85&#45;&gt;Node86 -->
<g id="edge8" class="edge"><title>Node85&#45;&gt;Node86</title>
<path fill="none" stroke="midnightblue" d="M157.498,-68.4954C135.378,-57.8069 109.024,-45.0718 88.3153,-35.0651"/>
<polygon fill="midnightblue" stroke="midnightblue" points="156.162,-71.7374 166.689,-72.937 159.208,-65.4347 156.162,-71.7374"/>
</g>
<!-- Node87 -->
<g id="node11" class="node"><title>Node87</title>
<a xlink:href="_slow_control_manager_8cc.html" target="_top" xlink:title="src/analysis/slowcontrol\l/SlowControlManager.cc">
<polygon fill="white" stroke="black" points="124,-1 124,-35 248,-35 248,-1 124,-1"/>
<text text-anchor="start" x="132" y="-22" font-family="Helvetica,sans-Serif" font-size="10.00">src/analysis/slowcontrol</text>
<text text-anchor="middle" x="186" y="-9" font-family="Helvetica,sans-Serif" font-size="10.00">/SlowControlManager.cc</text>
</a>
</g>
<!-- Node85&#45;&gt;Node87 -->
<g id="edge10" class="edge"><title>Node85&#45;&gt;Node87</title>
<path fill="none" stroke="midnightblue" d="M196.004,-63.0173C193.953,-53.7884 191.714,-43.7144 189.876,-35.4407"/>
<polygon fill="midnightblue" stroke="midnightblue" points="192.622,-63.9344 198.208,-72.937 199.455,-62.4158 192.622,-63.9344"/>
</g>
<!-- Node85&#45;&gt;Node88 -->
<g id="edge12" class="edge"><title>Node85&#45;&gt;Node88</title>
<path fill="none" stroke="midnightblue" d="M243.733,-68.2264C264.027,-57.6383 288.071,-45.0936 307.052,-35.19"/>
<polygon fill="midnightblue" stroke="midnightblue" points="241.951,-65.2082 234.704,-72.937 245.189,-71.4143 241.951,-65.2082"/>
</g>
</g>
</svg>
