<?xml version="1.0" encoding="UTF-8" standalone="no"?>
<!DOCTYPE svg PUBLIC "-//W3C//DTD SVG 1.1//EN"
 "http://www.w3.org/Graphics/SVG/1.1/DTD/svg11.dtd">
<!-- Generated by graphviz version 2.26.3 (20100126.1600)
 -->
<!-- Title: src/root&#45;addons/analysis_codes/Math.h Pages: 1 -->
<svg width="913pt" height="276pt"
 viewBox="0.00 0.00 912.88 276.00" xmlns="http://www.w3.org/2000/svg" xmlns:xlink="http://www.w3.org/1999/xlink">
<g id="graph1" class="graph" transform="scale(1 1) rotate(0) translate(4 272)">
<title>src/root&#45;addons/analysis_codes/Math.h</title>
<polygon fill="white" stroke="white" points="-4,5 -4,-272 909.881,-272 909.881,5 -4,5"/>
<!-- Node0 -->
<g id="node1" class="node"><title>Node0</title>
<polygon fill="#bfbfbf" stroke="black" points="537.5,-233 537.5,-267 660.5,-267 660.5,-233 537.5,-233"/>
<text text-anchor="start" x="545.5" y="-254" font-family="Helvetica,sans-Serif" font-size="10.00">src/root&#45;addons/analysis</text>
<text text-anchor="middle" x="599" y="-241" font-family="Helvetica,sans-Serif" font-size="10.00">_codes/Math.h</text>
</g>
<!-- Node1 -->
<g id="node3" class="node"><title>Node1</title>
<polygon fill="white" stroke="#bfbfbf" points="600.5,-116.5 600.5,-137.5 629.5,-137.5 629.5,-116.5 600.5,-116.5"/>
<text text-anchor="middle" x="615" y="-124.5" font-family="Helvetica,sans-Serif" font-size="10.00">list</text>
</g>
<!-- Node0&#45;&gt;Node1 -->
<g id="edge2" class="edge"><title>Node0&#45;&gt;Node1</title>
<path fill="none" stroke="midnightblue" d="M601.225,-232.897C604.116,-210.673 609.161,-171.886 612.277,-147.929"/>
<polygon fill="midnightblue" stroke="midnightblue" points="615.777,-148.155 613.597,-137.787 608.836,-147.252 615.777,-148.155"/>
</g>
<!-- Node2 -->
<g id="node5" class="node"><title>Node2</title>
<a xlink:href="interval_8h.html" target="_top" xlink:title="base/interval.h">
<polygon fill="white" stroke="black" points="175,-58.5 175,-79.5 255,-79.5 255,-58.5 175,-58.5"/>
<text text-anchor="middle" x="215" y="-66.5" font-family="Helvetica,sans-Serif" font-size="10.00">base/interval.h</text>
</a>
</g>
<!-- Node0&#45;&gt;Node2 -->
<g id="edge4" class="edge"><title>Node0&#45;&gt;Node2</title>
<path fill="none" stroke="midnightblue" d="M537.189,-242.521C464.107,-230.981 341.948,-202.934 259,-138 242.573,-125.141 230.515,-104.332 223.218,-88.9247"/>
<polygon fill="midnightblue" stroke="midnightblue" points="226.381,-87.4251 219.112,-79.7173 219.988,-90.2759 226.381,-87.4251"/>
</g>
<!-- Node10 -->
<g id="node21" class="node"><title>Node10</title>
<a xlink:href="piecewise__interval_8h.html" target="_top" xlink:title="base/piecewise_interval.h">
<polygon fill="white" stroke="black" points="439.5,-174.5 439.5,-195.5 568.5,-195.5 568.5,-174.5 439.5,-174.5"/>
<text text-anchor="middle" x="504" y="-182.5" font-family="Helvetica,sans-Serif" font-size="10.00">base/piecewise_interval.h</text>
</a>
</g>
<!-- Node0&#45;&gt;Node10 -->
<g id="edge20" class="edge"><title>Node0&#45;&gt;Node10</title>
<path fill="none" stroke="midnightblue" d="M574.04,-232.922C559.88,-223.233 542.24,-211.165 528.207,-201.562"/>
<polygon fill="midnightblue" stroke="midnightblue" points="529.807,-198.417 519.578,-195.658 525.854,-204.194 529.807,-198.417"/>
</g>
<!-- Node18 -->
<g id="node40" class="node"><title>Node18</title>
<a xlink:href="_root_draw_8h.html" target="_top" xlink:title="analysis/plot/RootDraw.h">
<polygon fill="white" stroke="black" points="626.5,-174.5 626.5,-195.5 753.5,-195.5 753.5,-174.5 626.5,-174.5"/>
<text text-anchor="middle" x="690" y="-182.5" font-family="Helvetica,sans-Serif" font-size="10.00">analysis/plot/RootDraw.h</text>
</a>
</g>
<!-- Node0&#45;&gt;Node18 -->
<g id="edge42" class="edge"><title>Node0&#45;&gt;Node18</title>
<path fill="none" stroke="midnightblue" d="M622.909,-232.922C636.473,-223.233 653.37,-211.165 666.813,-201.562"/>
<polygon fill="midnightblue" stroke="midnightblue" points="668.975,-204.319 675.078,-195.658 664.907,-198.623 668.975,-204.319"/>
</g>
<!-- Node23 -->
<g id="node58" class="node"><title>Node23</title>
<polygon fill="white" stroke="#bfbfbf" points="771,-174.5 771,-195.5 813,-195.5 813,-174.5 771,-174.5"/>
<text text-anchor="middle" x="792" y="-182.5" font-family="Helvetica,sans-Serif" font-size="10.00">TF1.h</text>
</g>
<!-- Node0&#45;&gt;Node23 -->
<g id="edge68" class="edge"><title>Node0&#45;&gt;Node23</title>
<path fill="none" stroke="midnightblue" d="M651.997,-232.91C681.7,-223.224 719.625,-210.68 761.225,-196.211"/>
<polygon fill="midnightblue" stroke="midnightblue" points="762.436,-199.495 770.724,-192.895 760.13,-192.886 762.436,-199.495"/>
</g>
<!-- Node3 -->
<g id="node7" class="node"><title>Node3</title>
<a xlink:href="types_8h.html" target="_top" xlink:title="types.h">
<polygon fill="white" stroke="black" points="131.5,-0.5 131.5,-21.5 180.5,-21.5 180.5,-0.5 131.5,-0.5"/>
<text text-anchor="middle" x="156" y="-8.5" font-family="Helvetica,sans-Serif" font-size="10.00">types.h</text>
</a>
</g>
<!-- Node2&#45;&gt;Node3 -->
<g id="edge6" class="edge"><title>Node2&#45;&gt;Node3</title>
<path fill="none" stroke="midnightblue" d="M204.178,-58.3619C195.779,-50.1043 183.946,-38.4725 174.11,-28.8029"/>
<polygon fill="midnightblue" stroke="midnightblue" points="176.338,-26.0851 166.753,-21.5707 171.431,-31.077 176.338,-26.0851"/>
</g>
<!-- Node4 -->
<g id="node9" class="node"><title>Node4</title>
<polygon fill="white" stroke="#bfbfbf" points="432,-0.5 432,-21.5 488,-21.5 488,-0.5 432,-0.5"/>
<text text-anchor="middle" x="460" y="-8.5" font-family="Helvetica,sans-Serif" font-size="10.00">algorithm</text>
</g>
<!-- Node2&#45;&gt;Node4 -->
<g id="edge8" class="edge"><title>Node2&#45;&gt;Node4</title>
<path fill="none" stroke="midnightblue" d="M255.182,-59.4874C301.375,-48.5521 376.631,-30.7362 421.919,-20.015"/>
<polygon fill="midnightblue" stroke="midnightblue" points="422.73,-23.4198 431.655,-17.7102 421.118,-16.6081 422.73,-23.4198"/>
</g>
<!-- Node5 -->
<g id="node11" class="node"><title>Node5</title>
<polygon fill="white" stroke="#bfbfbf" points="321.5,-0.5 321.5,-21.5 380.5,-21.5 380.5,-0.5 321.5,-0.5"/>
<text text-anchor="middle" x="351" y="-8.5" font-family="Helvetica,sans-Serif" font-size="10.00">stdexcept</text>
</g>
<!-- Node2&#45;&gt;Node5 -->
<g id="edge10" class="edge"><title>Node2&#45;&gt;Node5</title>
<path fill="none" stroke="midnightblue" d="M239.629,-58.4966C261.157,-49.3154 292.64,-35.8889 316.645,-25.6516"/>
<polygon fill="midnightblue" stroke="midnightblue" points="318.27,-28.7636 326.095,-21.6212 315.524,-22.3247 318.27,-28.7636"/>
</g>
<!-- Node6 -->
<g id="node13" class="node"><title>Node6</title>
<polygon fill="white" stroke="#bfbfbf" points="198,-0.5 198,-21.5 238,-21.5 238,-0.5 198,-0.5"/>
<text text-anchor="middle" x="218" y="-8.5" font-family="Helvetica,sans-Serif" font-size="10.00">limits</text>
</g>
<!-- Node2&#45;&gt;Node6 -->
<g id="edge12" class="edge"><title>Node2&#45;&gt;Node6</title>
<path fill="none" stroke="midnightblue" d="M215.55,-58.3619C215.935,-50.9219 216.462,-40.7427 216.928,-31.7276"/>
<polygon fill="midnightblue" stroke="midnightblue" points="220.432,-31.7381 217.453,-21.5707 213.441,-31.3765 220.432,-31.7381"/>
</g>
<!-- Node7 -->
<g id="node15" class="node"><title>Node7</title>
<polygon fill="white" stroke="#bfbfbf" points="255.5,-0.5 255.5,-21.5 304.5,-21.5 304.5,-0.5 255.5,-0.5"/>
<text text-anchor="middle" x="280" y="-8.5" font-family="Helvetica,sans-Serif" font-size="10.00">istream</text>
</g>
<!-- Node2&#45;&gt;Node7 -->
<g id="edge14" class="edge"><title>Node2&#45;&gt;Node7</title>
<path fill="none" stroke="midnightblue" d="M226.922,-58.3619C236.359,-49.9408 249.73,-38.0105 260.69,-28.2308"/>
<polygon fill="midnightblue" stroke="midnightblue" points="263.022,-30.8401 268.154,-21.5707 258.362,-25.6171 263.022,-30.8401"/>
</g>
<!-- Node8 -->
<g id="node17" class="node"><title>Node8</title>
<polygon fill="white" stroke="#bfbfbf" points="0,-0.5 0,-21.5 52,-21.5 52,-0.5 0,-0.5"/>
<text text-anchor="middle" x="26" y="-8.5" font-family="Helvetica,sans-Serif" font-size="10.00">sstream</text>
</g>
<!-- Node2&#45;&gt;Node8 -->
<g id="edge16" class="edge"><title>Node2&#45;&gt;Node8</title>
<path fill="none" stroke="midnightblue" d="M180.112,-58.4425C150.956,-49.5995 108.03,-36.534 62.1885,-22.3538"/>
<polygon fill="midnightblue" stroke="midnightblue" points="62.9538,-18.9269 52.366,-19.3122 60.8831,-25.6137 62.9538,-18.9269"/>
</g>
<!-- Node9 -->
<g id="node19" class="node"><title>Node9</title>
<polygon fill="white" stroke="#bfbfbf" points="70,-0.5 70,-21.5 114,-21.5 114,-0.5 70,-0.5"/>
<text text-anchor="middle" x="92" y="-8.5" font-family="Helvetica,sans-Serif" font-size="10.00">cmath</text>
</g>
<!-- Node2&#45;&gt;Node9 -->
<g id="edge18" class="edge"><title>Node2&#45;&gt;Node9</title>
<path fill="none" stroke="midnightblue" d="M192.726,-58.4966C173.307,-49.3401 144.935,-35.9612 123.247,-25.7344"/>
<polygon fill="midnightblue" stroke="midnightblue" points="124.646,-22.5246 114.109,-21.4252 121.661,-28.856 124.646,-22.5246"/>
</g>
<!-- Node10&#45;&gt;Node2 -->
<g id="edge22" class="edge"><title>Node10&#45;&gt;Node2</title>
<path fill="none" stroke="midnightblue" d="M439.063,-178.694C396.338,-172.59 340.176,-160.747 295,-138 269.89,-125.357 246.169,-103.117 231.175,-87.3051"/>
<polygon fill="midnightblue" stroke="midnightblue" points="233.521,-84.6863 224.169,-79.7075 228.375,-89.4317 233.521,-84.6863"/>
</g>
<!-- Node11 -->
<g id="node24" class="node"><title>Node11</title>
<a xlink:href="printable_8h.html" target="_top" xlink:title="base/std_ext/printable.h">
<polygon fill="white" stroke="black" points="424.5,-116.5 424.5,-137.5 545.5,-137.5 545.5,-116.5 424.5,-116.5"/>
<text text-anchor="middle" x="485" y="-124.5" font-family="Helvetica,sans-Serif" font-size="10.00">base/std_ext/printable.h</text>
</a>
</g>
<!-- Node10&#45;&gt;Node11 -->
<g id="edge24" class="edge"><title>Node10&#45;&gt;Node11</title>
<path fill="none" stroke="midnightblue" d="M500.515,-174.362C498.024,-166.758 494.596,-156.294 491.596,-147.135"/>
<polygon fill="midnightblue" stroke="midnightblue" points="494.902,-145.984 488.463,-137.571 488.25,-148.163 494.902,-145.984"/>
</g>
<!-- Node13 -->
<g id="node28" class="node"><title>Node13</title>
<polygon fill="white" stroke="#bfbfbf" points="607,-0.5 607,-21.5 651,-21.5 651,-0.5 607,-0.5"/>
<text text-anchor="middle" x="629" y="-8.5" font-family="Helvetica,sans-Serif" font-size="10.00">vector</text>
</g>
<!-- Node10&#45;&gt;Node13 -->
<g id="edge40" class="edge"><title>Node10&#45;&gt;Node13</title>
<path fill="none" stroke="midnightblue" d="M519.214,-174.3C542.441,-157.139 586.517,-121.177 610,-80 618.451,-65.1812 623.302,-46.4107 625.984,-32.1896"/>
<polygon fill="midnightblue" stroke="midnightblue" points="629.504,-32.3621 627.697,-21.9224 622.599,-31.21 629.504,-32.3621"/>
</g>
<!-- Node12 -->
<g id="node26" class="node"><title>Node12</title>
<a xlink:href="container_8h.html" target="_top" xlink:title="container.h">
<polygon fill="white" stroke="black" points="536.5,-58.5 536.5,-79.5 601.5,-79.5 601.5,-58.5 536.5,-58.5"/>
<text text-anchor="middle" x="569" y="-66.5" font-family="Helvetica,sans-Serif" font-size="10.00">container.h</text>
</a>
</g>
<!-- Node11&#45;&gt;Node12 -->
<g id="edge26" class="edge"><title>Node11&#45;&gt;Node12</title>
<path fill="none" stroke="midnightblue" d="M500.407,-116.362C512.958,-107.696 530.892,-95.3126 545.275,-85.3819"/>
<polygon fill="midnightblue" stroke="midnightblue" points="547.45,-88.1327 553.691,-79.5707 543.473,-82.3725 547.45,-88.1327"/>
</g>
<!-- Node16 -->
<g id="node35" class="node"><title>Node16</title>
<polygon fill="white" stroke="#bfbfbf" points="457,-58.5 457,-79.5 519,-79.5 519,-58.5 457,-58.5"/>
<text text-anchor="middle" x="488" y="-66.5" font-family="Helvetica,sans-Serif" font-size="10.00">type_traits</text>
</g>
<!-- Node11&#45;&gt;Node16 -->
<g id="edge36" class="edge"><title>Node11&#45;&gt;Node16</title>
<path fill="none" stroke="midnightblue" d="M485.55,-116.362C485.935,-108.922 486.462,-98.7427 486.928,-89.7276"/>
<polygon fill="midnightblue" stroke="midnightblue" points="490.432,-89.7381 487.453,-79.5707 483.441,-89.3765 490.432,-89.7381"/>
</g>
<!-- Node17 -->
<g id="node37" class="node"><title>Node17</title>
<polygon fill="white" stroke="#bfbfbf" points="387,-58.5 387,-79.5 439,-79.5 439,-58.5 387,-58.5"/>
<text text-anchor="middle" x="413" y="-66.5" font-family="Helvetica,sans-Serif" font-size="10.00">ostream</text>
</g>
<!-- Node11&#45;&gt;Node17 -->
<g id="edge38" class="edge"><title>Node11&#45;&gt;Node17</title>
<path fill="none" stroke="midnightblue" d="M471.794,-116.362C461.239,-107.859 446.242,-95.7785 434.037,-85.9466"/>
<polygon fill="midnightblue" stroke="midnightblue" points="436.105,-83.1183 426.122,-79.5707 431.714,-88.5696 436.105,-83.1183"/>
</g>
<!-- Node12&#45;&gt;Node4 -->
<g id="edge30" class="edge"><title>Node12&#45;&gt;Node4</title>
<path fill="none" stroke="midnightblue" d="M549.261,-58.4966C532.39,-49.5194 507.891,-36.4835 488.826,-26.3387"/>
<polygon fill="midnightblue" stroke="midnightblue" points="490.433,-23.2289 479.961,-21.6212 487.144,-29.4086 490.433,-23.2289"/>
</g>
<!-- Node12&#45;&gt;Node13 -->
<g id="edge28" class="edge"><title>Node12&#45;&gt;Node13</title>
<path fill="none" stroke="midnightblue" d="M580.005,-58.3619C588.547,-50.1043 600.58,-38.4725 610.583,-28.8029"/>
<polygon fill="midnightblue" stroke="midnightblue" points="613.308,-31.0374 618.065,-21.5707 608.442,-26.0044 613.308,-31.0374"/>
</g>
<!-- Node14 -->
<g id="node31" class="node"><title>Node14</title>
<polygon fill="white" stroke="#bfbfbf" points="538.5,-0.5 538.5,-21.5 589.5,-21.5 589.5,-0.5 538.5,-0.5"/>
<text text-anchor="middle" x="564" y="-8.5" font-family="Helvetica,sans-Serif" font-size="10.00">numeric</text>
</g>
<!-- Node12&#45;&gt;Node14 -->
<g id="edge32" class="edge"><title>Node12&#45;&gt;Node14</title>
<path fill="none" stroke="midnightblue" d="M568.083,-58.3619C567.442,-50.9219 566.564,-40.7427 565.787,-31.7276"/>
<polygon fill="midnightblue" stroke="midnightblue" points="569.257,-31.2331 564.911,-21.5707 562.283,-31.8343 569.257,-31.2331"/>
</g>
<!-- Node15 -->
<g id="node33" class="node"><title>Node15</title>
<polygon fill="white" stroke="#bfbfbf" points="781.5,-0.5 781.5,-21.5 822.5,-21.5 822.5,-0.5 781.5,-0.5"/>
<text text-anchor="middle" x="802" y="-8.5" font-family="Helvetica,sans-Serif" font-size="10.00">string</text>
</g>
<!-- Node12&#45;&gt;Node15 -->
<g id="edge34" class="edge"><title>Node12&#45;&gt;Node15</title>
<path fill="none" stroke="midnightblue" d="M601.889,-60.813C647.065,-49.5676 727.692,-29.4973 771.549,-18.5801"/>
<polygon fill="midnightblue" stroke="midnightblue" points="772.492,-21.9521 781.351,-16.1402 770.801,-15.1594 772.492,-21.9521"/>
</g>
<!-- Node18&#45;&gt;Node1 -->
<g id="edge46" class="edge"><title>Node18&#45;&gt;Node1</title>
<path fill="none" stroke="midnightblue" d="M676.244,-174.362C665.249,-165.859 649.627,-153.779 636.914,-143.947"/>
<polygon fill="midnightblue" stroke="midnightblue" points="638.721,-140.919 628.669,-137.571 634.438,-146.457 638.721,-140.919"/>
</g>
<!-- Node18&#45;&gt;Node13 -->
<g id="edge48" class="edge"><title>Node18&#45;&gt;Node13</title>
<path fill="none" stroke="midnightblue" d="M697.844,-174.187C706.727,-160.553 719.099,-136.428 712,-116 699.61,-80.3464 669.526,-47.6639 649.191,-28.5368"/>
<polygon fill="midnightblue" stroke="midnightblue" points="651.414,-25.8269 641.673,-21.6612 646.69,-30.9926 651.414,-25.8269"/>
</g>
<!-- Node18&#45;&gt;Node15 -->
<g id="edge44" class="edge"><title>Node18&#45;&gt;Node15</title>
<path fill="none" stroke="midnightblue" d="M753.751,-174.543C810.855,-164.528 886.98,-149.31 896,-138 927.115,-98.9867 866.542,-51.2892 828.878,-26.95"/>
<polygon fill="midnightblue" stroke="midnightblue" points="830.647,-23.9283 820.32,-21.5632 826.918,-29.8524 830.647,-23.9283"/>
</g>
<!-- Node19 -->
<g id="node45" class="node"><title>Node19</title>
<polygon fill="white" stroke="#bfbfbf" points="759,-116.5 759,-137.5 811,-137.5 811,-116.5 759,-116.5"/>
<text text-anchor="middle" x="785" y="-124.5" font-family="Helvetica,sans-Serif" font-size="10.00">memory</text>
</g>
<!-- Node18&#45;&gt;Node19 -->
<g id="edge50" class="edge"><title>Node18&#45;&gt;Node19</title>
<path fill="none" stroke="midnightblue" d="M707.424,-174.362C721.887,-165.532 742.669,-152.844 759.084,-142.822"/>
<polygon fill="midnightblue" stroke="midnightblue" points="760.975,-145.769 767.686,-137.571 757.327,-139.794 760.975,-145.769"/>
</g>
<!-- Node20 -->
<g id="node47" class="node"><title>Node20</title>
<polygon fill="white" stroke="#bfbfbf" points="828.5,-116.5 828.5,-137.5 887.5,-137.5 887.5,-116.5 828.5,-116.5"/>
<text text-anchor="middle" x="858" y="-124.5" font-family="Helvetica,sans-Serif" font-size="10.00">functional</text>
</g>
<!-- Node18&#45;&gt;Node20 -->
<g id="edge52" class="edge"><title>Node18&#45;&gt;Node20</title>
<path fill="none" stroke="midnightblue" d="M720.424,-174.497C747.948,-164.994 788.645,-150.944 818.64,-140.589"/>
<polygon fill="midnightblue" stroke="midnightblue" points="820.056,-143.802 828.367,-137.231 817.772,-137.186 820.056,-143.802"/>
</g>
<!-- Node21 -->
<g id="node49" class="node"><title>Node21</title>
<a xlink:href="_bin_settings_8h.html" target="_top" xlink:title="base/BinSettings.h">
<polygon fill="white" stroke="black" points="303.5,-116.5 303.5,-137.5 402.5,-137.5 402.5,-116.5 303.5,-116.5"/>
<text text-anchor="middle" x="353" y="-124.5" font-family="Helvetica,sans-Serif" font-size="10.00">base/BinSettings.h</text>
</a>
</g>
<!-- Node18&#45;&gt;Node21 -->
<g id="edge54" class="edge"><title>Node18&#45;&gt;Node21</title>
<path fill="none" stroke="midnightblue" d="M628.235,-174.459C572.695,-164.968 488.881,-150.613 416,-138 414.906,-137.811 413.801,-137.619 412.688,-137.426"/>
<polygon fill="midnightblue" stroke="midnightblue" points="412.971,-133.923 402.52,-135.661 411.774,-140.82 412.971,-133.923"/>
</g>
<!-- Node22 -->
<g id="node56" class="node"><title>Node22</title>
<polygon fill="white" stroke="#bfbfbf" points="647,-116.5 647,-137.5 703,-137.5 703,-116.5 647,-116.5"/>
<text text-anchor="middle" x="675" y="-124.5" font-family="Helvetica,sans-Serif" font-size="10.00">Rtypes.h</text>
</g>
<!-- Node18&#45;&gt;Node22 -->
<g id="edge66" class="edge"><title>Node18&#45;&gt;Node22</title>
<path fill="none" stroke="midnightblue" d="M687.249,-174.362C685.303,-166.84 682.634,-156.519 680.284,-147.431"/>
<polygon fill="midnightblue" stroke="midnightblue" points="683.626,-146.376 677.734,-137.571 676.849,-148.128 683.626,-146.376"/>
</g>
<!-- Node21&#45;&gt;Node2 -->
<g id="edge56" class="edge"><title>Node21&#45;&gt;Node2</title>
<path fill="none" stroke="midnightblue" d="M328.009,-116.497C306.067,-107.275 273.934,-93.7695 249.536,-83.5153"/>
<polygon fill="midnightblue" stroke="midnightblue" points="250.846,-80.2693 240.271,-79.6212 248.134,-86.7225 250.846,-80.2693"/>
</g>
<!-- Node21&#45;&gt;Node5 -->
<g id="edge60" class="edge"><title>Node21&#45;&gt;Node5</title>
<path fill="none" stroke="midnightblue" d="M350.636,-116.239C348.681,-106.755 346.059,-92.5365 345,-80 343.64,-63.8996 345.36,-45.6905 347.303,-32.0223"/>
<polygon fill="midnightblue" stroke="midnightblue" points="350.821,-32.1786 348.923,-21.7551 343.907,-31.087 350.821,-32.1786"/>
</g>
<!-- Node21&#45;&gt;Node7 -->
<g id="edge62" class="edge"><title>Node21&#45;&gt;Node7</title>
<path fill="none" stroke="midnightblue" d="M346.263,-116.295C333.932,-96.6998 307.576,-54.8198 292.077,-30.1913"/>
<polygon fill="midnightblue" stroke="midnightblue" points="295.009,-28.2786 286.721,-21.6792 289.085,-32.007 295.009,-28.2786"/>
</g>
<!-- Node21&#45;&gt;Node13 -->
<g id="edge58" class="edge"><title>Node21&#45;&gt;Node13</title>
<path fill="none" stroke="midnightblue" d="M353.61,-116.495C355.104,-101.122 360.253,-72.7274 378,-58 451.786,3.23355 498.931,-43.437 596.843,-21.8088"/>
<polygon fill="midnightblue" stroke="midnightblue" points="597.893,-25.1564 606.797,-19.4145 596.255,-18.3505 597.893,-25.1564"/>
</g>
<!-- Node21&#45;&gt;Node17 -->
<g id="edge64" class="edge"><title>Node21&#45;&gt;Node17</title>
<path fill="none" stroke="midnightblue" d="M364.005,-116.362C372.547,-108.104 384.58,-96.4725 394.583,-86.8029"/>
<polygon fill="midnightblue" stroke="midnightblue" points="397.308,-89.0374 402.065,-79.5707 392.442,-84.0044 397.308,-89.0374"/>
</g>
</g>
</svg>
