<?xml version="1.0" encoding="UTF-8" standalone="no"?>
<!DOCTYPE svg PUBLIC "-//W3C//DTD SVG 1.1//EN"
 "http://www.w3.org/Graphics/SVG/1.1/DTD/svg11.dtd">
<!-- Generated by graphviz version 2.26.3 (20100126.1600)
 -->
<!-- Title: src/base/std_ext/shared_ptr_container.h Pages: 1 -->
<svg width="272pt" height="102pt"
 viewBox="0.00 0.00 272.00 102.00" xmlns="http://www.w3.org/2000/svg" xmlns:xlink="http://www.w3.org/1999/xlink">
<g id="graph1" class="graph" transform="scale(1 1) rotate(0) translate(4 98)">
<title>src/base/std_ext/shared_ptr_container.h</title>
<polygon fill="white" stroke="white" points="-4,5 -4,-98 269,-98 269,5 -4,5"/>
<!-- Node0 -->
<g id="node1" class="node"><title>Node0</title>
<polygon fill="#bfbfbf" stroke="black" points="63,-59 63,-93 185,-93 185,-59 63,-59"/>
<text text-anchor="start" x="71" y="-80" font-family="Helvetica,sans-Serif" font-size="10.00">src/base/std_ext/shared</text>
<text text-anchor="middle" x="124" y="-67" font-family="Helvetica,sans-Serif" font-size="10.00">_ptr_container.h</text>
</g>
<!-- Node1 -->
<g id="node3" class="node"><title>Node1</title>
<polygon fill="white" stroke="#bfbfbf" points="0,-0.5 0,-21.5 44,-21.5 44,-0.5 0,-0.5"/>
<text text-anchor="middle" x="22" y="-8.5" font-family="Helvetica,sans-Serif" font-size="10.00">vector</text>
</g>
<!-- Node0&#45;&gt;Node1 -->
<g id="edge2" class="edge"><title>Node0&#45;&gt;Node1</title>
<path fill="none" stroke="midnightblue" d="M97.2007,-58.922C81.8523,-49.1412 62.6971,-36.9344 47.5607,-27.2887"/>
<polygon fill="midnightblue" stroke="midnightblue" points="49.0396,-24.0809 38.7254,-21.6584 45.2777,-29.9841 49.0396,-24.0809"/>
</g>
<!-- Node2 -->
<g id="node5" class="node"><title>Node2</title>
<polygon fill="white" stroke="#bfbfbf" points="62,-0.5 62,-21.5 114,-21.5 114,-0.5 62,-0.5"/>
<text text-anchor="middle" x="88" y="-8.5" font-family="Helvetica,sans-Serif" font-size="10.00">memory</text>
</g>
<!-- Node0&#45;&gt;Node2 -->
<g id="edge4" class="edge"><title>Node0&#45;&gt;Node2</title>
<path fill="none" stroke="midnightblue" d="M114.541,-58.922C109.768,-50.3037 103.952,-39.8018 98.9818,-30.8282"/>
<polygon fill="midnightblue" stroke="midnightblue" points="101.917,-28.9042 94.0104,-21.8521 95.7937,-32.2958 101.917,-28.9042"/>
</g>
<!-- Node3 -->
<g id="node7" class="node"><title>Node3</title>
<polygon fill="white" stroke="#bfbfbf" points="131.5,-0.5 131.5,-21.5 190.5,-21.5 190.5,-0.5 131.5,-0.5"/>
<text text-anchor="middle" x="161" y="-8.5" font-family="Helvetica,sans-Serif" font-size="10.00">functional</text>
</g>
<!-- Node0&#45;&gt;Node3 -->
<g id="edge6" class="edge"><title>Node0&#45;&gt;Node3</title>
<path fill="none" stroke="midnightblue" d="M133.721,-58.922C138.627,-50.3037 144.605,-39.8018 149.713,-30.8282"/>
<polygon fill="midnightblue" stroke="midnightblue" points="152.917,-32.2742 154.823,-21.8521 146.834,-28.8113 152.917,-32.2742"/>
</g>
<!-- Node4 -->
<g id="node9" class="node"><title>Node4</title>
<polygon fill="white" stroke="#bfbfbf" points="208,-0.5 208,-21.5 264,-21.5 264,-0.5 208,-0.5"/>
<text text-anchor="middle" x="236" y="-8.5" font-family="Helvetica,sans-Serif" font-size="10.00">algorithm</text>
</g>
<!-- Node0&#45;&gt;Node4 -->
<g id="edge8" class="edge"><title>Node0&#45;&gt;Node4</title>
<path fill="none" stroke="midnightblue" d="M153.427,-58.922C170.598,-48.9566 192.108,-36.4729 208.869,-26.7455"/>
<polygon fill="midnightblue" stroke="midnightblue" points="210.743,-29.7051 217.635,-21.6584 207.229,-23.6508 210.743,-29.7051"/>
</g>
</g>
</svg>
