<?xml version="1.0" encoding="UTF-8" standalone="no"?>
<!DOCTYPE svg PUBLIC "-//W3C//DTD SVG 1.1//EN"
 "http://www.w3.org/Graphics/SVG/1.1/DTD/svg11.dtd">
<!-- Generated by graphviz version 2.26.3 (20100126.1600)
 -->
<!-- Title: src/analysis/slowcontrol/event_t.h Pages: 1 -->
<svg width="422pt" height="188pt"
 viewBox="0.00 0.00 422.00 188.00" xmlns="http://www.w3.org/2000/svg" xmlns:xlink="http://www.w3.org/1999/xlink">
<g id="graph1" class="graph" transform="scale(1 1) rotate(0) translate(4 184)">
<title>src/analysis/slowcontrol/event_t.h</title>
<polygon fill="white" stroke="white" points="-4,5 -4,-184 419,-184 419,5 -4,5"/>
<!-- Node8 -->
<g id="node1" class="node"><title>Node8</title>
<polygon fill="#bfbfbf" stroke="black" points="125,-145 125,-179 247,-179 247,-145 125,-145"/>
<text text-anchor="start" x="133" y="-166" font-family="Helvetica,sans-Serif" font-size="10.00">src/analysis/slowcontrol</text>
<text text-anchor="middle" x="186" y="-153" font-family="Helvetica,sans-Serif" font-size="10.00">/event_t.h</text>
</g>
<!-- Node9 -->
<g id="node3" class="node"><title>Node9</title>
<a xlink:href="_slow_control_manager_8h.html" target="_top" xlink:title="src/analysis/slowcontrol\l/SlowControlManager.h">
<polygon fill="white" stroke="black" points="125,-73 125,-107 247,-107 247,-73 125,-73"/>
<text text-anchor="start" x="133" y="-94" font-family="Helvetica,sans-Serif" font-size="10.00">src/analysis/slowcontrol</text>
<text text-anchor="middle" x="186" y="-81" font-family="Helvetica,sans-Serif" font-size="10.00">/SlowControlManager.h</text>
</a>
</g>
<!-- Node8&#45;&gt;Node9 -->
<g id="edge2" class="edge"><title>Node8&#45;&gt;Node9</title>
<path fill="none" stroke="midnightblue" d="M186,-134.719C186,-125.572 186,-115.625 186,-107.441"/>
<polygon fill="midnightblue" stroke="midnightblue" points="182.5,-134.937 186,-144.937 189.5,-134.937 182.5,-134.937"/>
</g>
<!-- Node10 -->
<g id="node5" class="node"><title>Node10</title>
<a xlink:href="_physics_manager_8cc.html" target="_top" xlink:title="src/analysis/physics\l/PhysicsManager.cc">
<polygon fill="white" stroke="black" points="0,-1 0,-35 106,-35 106,-1 0,-1"/>
<text text-anchor="start" x="8" y="-22" font-family="Helvetica,sans-Serif" font-size="10.00">src/analysis/physics</text>
<text text-anchor="middle" x="53" y="-9" font-family="Helvetica,sans-Serif" font-size="10.00">/PhysicsManager.cc</text>
</a>
</g>
<!-- Node9&#45;&gt;Node10 -->
<g id="edge4" class="edge"><title>Node9&#45;&gt;Node10</title>
<path fill="none" stroke="midnightblue" d="M145.515,-68.0832C126.012,-57.5254 102.966,-45.049 84.7538,-35.19"/>
<polygon fill="midnightblue" stroke="midnightblue" points="144.021,-71.2542 154.481,-72.937 147.353,-65.0983 144.021,-71.2542"/>
</g>
<!-- Node11 -->
<g id="node7" class="node"><title>Node11</title>
<a xlink:href="_slow_control_manager_8cc.html" target="_top" xlink:title="src/analysis/slowcontrol\l/SlowControlManager.cc">
<polygon fill="white" stroke="black" points="124,-1 124,-35 248,-35 248,-1 124,-1"/>
<text text-anchor="start" x="132" y="-22" font-family="Helvetica,sans-Serif" font-size="10.00">src/analysis/slowcontrol</text>
<text text-anchor="middle" x="186" y="-9" font-family="Helvetica,sans-Serif" font-size="10.00">/SlowControlManager.cc</text>
</a>
</g>
<!-- Node9&#45;&gt;Node11 -->
<g id="edge6" class="edge"><title>Node9&#45;&gt;Node11</title>
<path fill="none" stroke="midnightblue" d="M186,-62.7193C186,-53.572 186,-43.6255 186,-35.4407"/>
<polygon fill="midnightblue" stroke="midnightblue" points="182.5,-62.937 186,-72.937 189.5,-62.937 182.5,-62.937"/>
</g>
<!-- Node12 -->
<g id="node9" class="node"><title>Node12</title>
<a xlink:href="_test_slow_control_manager_8cc.html" target="_top" xlink:title="test/analysis/TestSlowControl\lManager.cc">
<polygon fill="white" stroke="black" points="266,-1 266,-35 414,-35 414,-1 266,-1"/>
<text text-anchor="start" x="274" y="-22" font-family="Helvetica,sans-Serif" font-size="10.00">test/analysis/TestSlowControl</text>
<text text-anchor="middle" x="340" y="-9" font-family="Helvetica,sans-Serif" font-size="10.00">Manager.cc</text>
</a>
</g>
<!-- Node9&#45;&gt;Node12 -->
<g id="edge8" class="edge"><title>Node9&#45;&gt;Node12</title>
<path fill="none" stroke="midnightblue" d="M231.69,-68.6385C254.614,-57.9207 282.001,-45.1165 303.5,-35.0651"/>
<polygon fill="midnightblue" stroke="midnightblue" points="230.072,-65.5311 222.496,-72.937 233.037,-71.8722 230.072,-65.5311"/>
</g>
</g>
</svg>
