<?xml version="1.0" encoding="UTF-8" standalone="no"?>
<!DOCTYPE svg PUBLIC "-//W3C//DTD SVG 1.1//EN"
 "http://www.w3.org/Graphics/SVG/1.1/DTD/svg11.dtd">
<!-- Generated by graphviz version 2.26.3 (20100126.1600)
 -->
<!-- Title: src/analysis/physics/misc/XMasCB.cc Pages: 1 -->
<svg width="3544pt" height="696pt"
 viewBox="0.00 0.00 3543.58 696.00" xmlns="http://www.w3.org/2000/svg" xmlns:xlink="http://www.w3.org/1999/xlink">
<g id="graph1" class="graph" transform="scale(1 1) rotate(0) translate(4 692)">
<title>src/analysis/physics/misc/XMasCB.cc</title>
<polygon fill="white" stroke="white" points="-4,5 -4,-692 3540.58,-692 3540.58,5 -4,5"/>
<!-- Node0 -->
<g id="node1" class="node"><title>Node0</title>
<polygon fill="#bfbfbf" stroke="black" points="3299.58,-653 3299.58,-687 3405.58,-687 3405.58,-653 3299.58,-653"/>
<text text-anchor="start" x="3307.58" y="-674" font-family="Helvetica,sans-Serif" font-size="10.00">src/analysis/physics</text>
<text text-anchor="middle" x="3352.58" y="-661" font-family="Helvetica,sans-Serif" font-size="10.00">/misc/XMasCB.cc</text>
</g>
<!-- Node1 -->
<g id="node3" class="node"><title>Node1</title>
<a xlink:href="_x_mas_c_b_8h.html" target="_top" xlink:title="XMasCB.h">
<polygon fill="white" stroke="black" points="2683.08,-594.5 2683.08,-615.5 2748.08,-615.5 2748.08,-594.5 2683.08,-594.5"/>
<text text-anchor="middle" x="2715.58" y="-602.5" font-family="Helvetica,sans-Serif" font-size="10.00">XMasCB.h</text>
</a>
</g>
<!-- Node0&#45;&gt;Node1 -->
<g id="edge2" class="edge"><title>Node0&#45;&gt;Node1</title>
<path fill="none" stroke="midnightblue" d="M3299.36,-664.57C3175.69,-651.951 2870.89,-620.848 2758.28,-609.358"/>
<polygon fill="midnightblue" stroke="midnightblue" points="2758.62,-605.873 2748.31,-608.34 2757.9,-612.837 2758.62,-605.873"/>
</g>
<!-- Node29 -->
<g id="node70" class="node"><title>Node29</title>
<a xlink:href="string_8h.html" target="_top" xlink:title="base/std_ext/string.h">
<polygon fill="white" stroke="black" points="1355.58,-174.5 1355.58,-195.5 1463.58,-195.5 1463.58,-174.5 1355.58,-174.5"/>
<text text-anchor="middle" x="1409.58" y="-182.5" font-family="Helvetica,sans-Serif" font-size="10.00">base/std_ext/string.h</text>
</a>
</g>
<!-- Node0&#45;&gt;Node29 -->
<g id="edge360" class="edge"><title>Node0&#45;&gt;Node29</title>
<path fill="none" stroke="midnightblue" d="M3348.17,-652.614C3342.56,-628.905 3333.58,-585.029 3333.58,-547 3333.58,-547 3333.58,-547 3333.58,-489 3333.58,-374.123 2434.21,-298.958 2323.58,-268 2276.07,-254.705 2266.99,-241.519 2218.58,-232 2182.27,-224.861 1659.2,-197.71 1473.99,-188.263"/>
<polygon fill="midnightblue" stroke="midnightblue" points="1474.02,-184.76 1463.85,-187.747 1473.66,-191.751 1474.02,-184.76"/>
</g>
<!-- Node67 -->
<g id="node227" class="node"><title>Node67</title>
<a xlink:href="memory_8h.html" target="_top" xlink:title="base/std_ext/memory.h">
<polygon fill="white" stroke="black" points="2460.08,-420.5 2460.08,-441.5 2579.08,-441.5 2579.08,-420.5 2460.08,-420.5"/>
<text text-anchor="middle" x="2519.58" y="-428.5" font-family="Helvetica,sans-Serif" font-size="10.00">base/std_ext/memory.h</text>
</a>
</g>
<!-- Node0&#45;&gt;Node67 -->
<g id="edge358" class="edge"><title>Node0&#45;&gt;Node67</title>
<path fill="none" stroke="midnightblue" d="M3329.86,-652.894C3276.79,-613.966 3139.13,-518.97 3007.58,-478 2931.46,-454.292 2705.4,-440.113 2589.62,-434.212"/>
<polygon fill="midnightblue" stroke="midnightblue" points="2589.61,-430.708 2579.45,-433.701 2589.26,-437.699 2589.61,-430.708"/>
</g>
<!-- Node68 -->
<g id="node237" class="node"><title>Node68</title>
<a xlink:href="_t_h2_c_b_8h.html" target="_top" xlink:title="root&#45;addons/cbtaps\l_display/TH2CB.h">
<polygon fill="white" stroke="black" points="3323.58,-233 3323.58,-267 3423.58,-267 3423.58,-233 3323.58,-233"/>
<text text-anchor="start" x="3331.58" y="-254" font-family="Helvetica,sans-Serif" font-size="10.00">root&#45;addons/cbtaps</text>
<text text-anchor="middle" x="3373.58" y="-241" font-family="Helvetica,sans-Serif" font-size="10.00">_display/TH2CB.h</text>
</a>
</g>
<!-- Node0&#45;&gt;Node68 -->
<g id="edge336" class="edge"><title>Node0&#45;&gt;Node68</title>
<path fill="none" stroke="midnightblue" d="M3356.99,-652.614C3362.6,-628.905 3371.58,-585.029 3371.58,-547 3371.58,-547 3371.58,-547 3371.58,-373 3371.58,-340.071 3372.3,-302.19 3372.88,-277.266"/>
<polygon fill="midnightblue" stroke="midnightblue" points="3376.38,-277.192 3373.13,-267.111 3369.39,-277.024 3376.38,-277.192"/>
</g>
<!-- Node72 -->
<g id="node254" class="node"><title>Node72</title>
<polygon fill="white" stroke="#bfbfbf" points="3399.08,-594.5 3399.08,-615.5 3464.08,-615.5 3464.08,-594.5 3399.08,-594.5"/>
<text text-anchor="middle" x="3431.58" y="-602.5" font-family="Helvetica,sans-Serif" font-size="10.00">TCanvas.h</text>
</g>
<!-- Node0&#45;&gt;Node72 -->
<g id="edge362" class="edge"><title>Node0&#45;&gt;Node72</title>
<path fill="none" stroke="midnightblue" d="M3373.34,-652.922C3384.81,-643.479 3399.04,-631.774 3410.56,-622.296"/>
<polygon fill="midnightblue" stroke="midnightblue" points="3412.89,-624.909 3418.39,-615.852 3408.44,-619.503 3412.89,-624.909"/>
</g>
<!-- Node73 -->
<g id="node256" class="node"><title>Node73</title>
<polygon fill="white" stroke="#bfbfbf" points="3481.58,-594.5 3481.58,-615.5 3535.58,-615.5 3535.58,-594.5 3481.58,-594.5"/>
<text text-anchor="middle" x="3508.58" y="-602.5" font-family="Helvetica,sans-Serif" font-size="10.00">TColor.h</text>
</g>
<!-- Node0&#45;&gt;Node73 -->
<g id="edge364" class="edge"><title>Node0&#45;&gt;Node73</title>
<path fill="none" stroke="midnightblue" d="M3393.57,-652.922C3418.48,-642.541 3449.95,-629.428 3473.67,-619.544"/>
<polygon fill="midnightblue" stroke="midnightblue" points="3475.11,-622.735 3483,-615.658 3472.42,-616.274 3475.11,-622.735"/>
</g>
<!-- Node2 -->
<g id="node5" class="node"><title>Node2</title>
<a xlink:href="_physics_8h.html" target="_top" xlink:title="analysis/physics/Physics.h">
<polygon fill="white" stroke="black" points="2647.58,-536.5 2647.58,-557.5 2783.58,-557.5 2783.58,-536.5 2647.58,-536.5"/>
<text text-anchor="middle" x="2715.58" y="-544.5" font-family="Helvetica,sans-Serif" font-size="10.00">analysis/physics/Physics.h</text>
</a>
</g>
<!-- Node1&#45;&gt;Node2 -->
<g id="edge4" class="edge"><title>Node1&#45;&gt;Node2</title>
<path fill="none" stroke="midnightblue" d="M2715.58,-594.362C2715.58,-586.922 2715.58,-576.743 2715.58,-567.728"/>
<polygon fill="midnightblue" stroke="midnightblue" points="2719.08,-567.571 2715.58,-557.571 2712.08,-567.571 2719.08,-567.571"/>
</g>
<!-- Node19 -->
<g id="node45" class="node"><title>Node19</title>
<polygon fill="white" stroke="#bfbfbf" points="1857.58,-174.5 1857.58,-195.5 1909.58,-195.5 1909.58,-174.5 1857.58,-174.5"/>
<text text-anchor="middle" x="1883.58" y="-182.5" font-family="Helvetica,sans-Serif" font-size="10.00">memory</text>
</g>
<!-- Node1&#45;&gt;Node19 -->
<g id="edge334" class="edge"><title>Node1&#45;&gt;Node19</title>
<path fill="none" stroke="midnightblue" d="M2683.02,-604.573C2514.98,-601.95 1753.58,-584.782 1753.58,-489 1753.58,-489 1753.58,-489 1753.58,-315 1753.58,-260.271 1811.9,-220.535 1850.42,-200.26"/>
<polygon fill="midnightblue" stroke="midnightblue" points="1852.4,-203.177 1859.74,-195.528 1849.23,-196.935 1852.4,-203.177"/>
</g>
<!-- Node3 -->
<g id="node7" class="node"><title>Node3</title>
<a xlink:href="manager__t_8h.html" target="_top" xlink:title="analysis/physics/manager_t.h">
<polygon fill="white" stroke="black" points="2819.58,-478.5 2819.58,-499.5 2965.58,-499.5 2965.58,-478.5 2819.58,-478.5"/>
<text text-anchor="middle" x="2892.58" y="-486.5" font-family="Helvetica,sans-Serif" font-size="10.00">analysis/physics/manager_t.h</text>
</a>
</g>
<!-- Node2&#45;&gt;Node3 -->
<g id="edge6" class="edge"><title>Node2&#45;&gt;Node3</title>
<path fill="none" stroke="midnightblue" d="M2747.63,-536.497C2776.49,-527.041 2819.08,-513.083 2850.64,-502.743"/>
<polygon fill="midnightblue" stroke="midnightblue" points="2852.05,-505.963 2860.47,-499.523 2849.87,-499.311 2852.05,-505.963"/>
</g>
<!-- Node4 -->
<g id="node9" class="node"><title>Node4</title>
<a xlink:href="_histogram_factory_8h.html" target="_top" xlink:title="analysis/plot/HistogramFactory.h">
<polygon fill="white" stroke="black" points="2887.08,-304.5 2887.08,-325.5 3048.08,-325.5 3048.08,-304.5 2887.08,-304.5"/>
<text text-anchor="middle" x="2967.58" y="-312.5" font-family="Helvetica,sans-Serif" font-size="10.00">analysis/plot/HistogramFactory.h</text>
</a>
</g>
<!-- Node2&#45;&gt;Node4 -->
<g id="edge8" class="edge"><title>Node2&#45;&gt;Node4</title>
<path fill="none" stroke="midnightblue" d="M2727.06,-536.429C2766.83,-499.818 2898.94,-378.189 2948.54,-332.526"/>
<polygon fill="midnightblue" stroke="midnightblue" points="2951.04,-334.982 2956.03,-325.634 2946.3,-329.832 2951.04,-334.982"/>
</g>
<!-- Node16 -->
<g id="node36" class="node"><title>Node16</title>
<polygon fill="white" stroke="#bfbfbf" points="3045.08,-116.5 3045.08,-137.5 3086.08,-137.5 3086.08,-116.5 3045.08,-116.5"/>
<text text-anchor="middle" x="3065.58" y="-124.5" font-family="Helvetica,sans-Serif" font-size="10.00">string</text>
</g>
<!-- Node2&#45;&gt;Node16 -->
<g id="edge326" class="edge"><title>Node2&#45;&gt;Node16</title>
<path fill="none" stroke="midnightblue" d="M2783.85,-543.311C2861.8,-538.042 2992.75,-525.96 3102.58,-500 3191.23,-479.046 3295.58,-522.095 3295.58,-431 3295.58,-431 3295.58,-431 3295.58,-315 3295.58,-232.422 3241.09,-222.94 3174.58,-174 3150.58,-156.339 3118.91,-143.634 3095.9,-135.921"/>
<polygon fill="midnightblue" stroke="midnightblue" points="3096.9,-132.565 3086.31,-132.825 3094.75,-139.227 3096.9,-132.565"/>
</g>
<!-- Node17 -->
<g id="node39" class="node"><title>Node17</title>
<a xlink:href="_root_draw_8h.html" target="_top" xlink:title="analysis/plot/RootDraw.h">
<polygon fill="white" stroke="black" points="2743.08,-304.5 2743.08,-325.5 2870.08,-325.5 2870.08,-304.5 2743.08,-304.5"/>
<text text-anchor="middle" x="2806.58" y="-312.5" font-family="Helvetica,sans-Serif" font-size="10.00">analysis/plot/RootDraw.h</text>
</a>
</g>
<!-- Node2&#45;&gt;Node17 -->
<g id="edge42" class="edge"><title>Node2&#45;&gt;Node17</title>
<path fill="none" stroke="midnightblue" d="M2718.8,-536.346C2729.21,-502.046 2762.2,-394.822 2777.58,-362 2782.01,-352.537 2787.93,-342.614 2793.26,-334.336"/>
<polygon fill="midnightblue" stroke="midnightblue" points="2796.31,-336.07 2798.92,-325.802 2790.47,-332.201 2796.31,-336.07"/>
</g>
<!-- Node18 -->
<g id="node42" class="node"><title>Node18</title>
<polygon fill="white" stroke="#bfbfbf" points="2181.08,-239.5 2181.08,-260.5 2210.08,-260.5 2210.08,-239.5 2181.08,-239.5"/>
<text text-anchor="middle" x="2195.58" y="-247.5" font-family="Helvetica,sans-Serif" font-size="10.00">list</text>
</g>
<!-- Node2&#45;&gt;Node18 -->
<g id="edge324" class="edge"><title>Node2&#45;&gt;Node18</title>
<path fill="none" stroke="midnightblue" d="M2783.84,-544.218C2852.23,-539.827 2950.71,-528.591 2974.58,-500 2980.85,-492.494 2981.25,-485.147 2974.58,-478 2934.83,-435.421 2506.34,-461.865 2451.58,-442 2347.02,-404.068 2249.43,-308.036 2211.86,-267.979"/>
<polygon fill="midnightblue" stroke="midnightblue" points="2214.33,-265.494 2204.97,-260.534 2209.19,-270.25 2214.33,-265.494"/>
</g>
<!-- Node2&#45;&gt;Node19 -->
<g id="edge330" class="edge"><title>Node2&#45;&gt;Node19</title>
<path fill="none" stroke="midnightblue" d="M2647.52,-544.478C2516.18,-537.748 2240.58,-513.767 2240.58,-431 2240.58,-431 2240.58,-431 2240.58,-373 2240.58,-309.575 2263.77,-276.502 2218.58,-232 2197.51,-211.25 2002.21,-194.057 1919.89,-187.669"/>
<polygon fill="midnightblue" stroke="midnightblue" points="1919.98,-184.165 1909.74,-186.891 1919.45,-191.145 1919.98,-184.165"/>
</g>
<!-- Node20 -->
<g id="node47" class="node"><title>Node20</title>
<polygon fill="white" stroke="#bfbfbf" points="2501.08,-174.5 2501.08,-195.5 2560.08,-195.5 2560.08,-174.5 2501.08,-174.5"/>
<text text-anchor="middle" x="2530.58" y="-182.5" font-family="Helvetica,sans-Serif" font-size="10.00">functional</text>
</g>
<!-- Node2&#45;&gt;Node20 -->
<g id="edge332" class="edge"><title>Node2&#45;&gt;Node20</title>
<path fill="none" stroke="midnightblue" d="M2647.43,-544.336C2578.49,-540.039 2478.72,-528.877 2454.58,-500 2448.31,-492.498 2448.64,-485.765 2454.58,-478 2491.8,-429.369 2547.51,-488.31 2587.58,-442 2648.95,-371.068 2654.72,-313.667 2608.58,-232 2600.01,-216.839 2584.38,-206.024 2569.35,-198.621"/>
<polygon fill="midnightblue" stroke="midnightblue" points="2570.69,-195.385 2560.13,-194.445 2567.8,-201.761 2570.69,-195.385"/>
</g>
<!-- Node22 -->
<g id="node52" class="node"><title>Node22</title>
<polygon fill="white" stroke="#bfbfbf" points="2463.08,-478.5 2463.08,-499.5 2514.08,-499.5 2514.08,-478.5 2463.08,-478.5"/>
<text text-anchor="middle" x="2488.58" y="-486.5" font-family="Helvetica,sans-Serif" font-size="10.00">TH1D.h</text>
</g>
<!-- Node2&#45;&gt;Node22 -->
<g id="edge58" class="edge"><title>Node2&#45;&gt;Node22</title>
<path fill="none" stroke="midnightblue" d="M2668.13,-536.477C2631.13,-528.038 2578.26,-515.474 2523.93,-500.261"/>
<polygon fill="midnightblue" stroke="midnightblue" points="2524.71,-496.844 2514.14,-497.493 2522.81,-503.58 2524.71,-496.844"/>
</g>
<!-- Node23 -->
<g id="node54" class="node"><title>Node23</title>
<polygon fill="white" stroke="#bfbfbf" points="2531.08,-478.5 2531.08,-499.5 2582.08,-499.5 2582.08,-478.5 2531.08,-478.5"/>
<text text-anchor="middle" x="2556.58" y="-486.5" font-family="Helvetica,sans-Serif" font-size="10.00">TH2D.h</text>
</g>
<!-- Node2&#45;&gt;Node23 -->
<g id="edge60" class="edge"><title>Node2&#45;&gt;Node23</title>
<path fill="none" stroke="midnightblue" d="M2686.79,-536.497C2660.13,-526.773 2620.42,-512.286 2591.86,-501.871"/>
<polygon fill="midnightblue" stroke="midnightblue" points="2592.86,-498.51 2582.27,-498.371 2590.46,-505.086 2592.86,-498.51"/>
</g>
<!-- Node24 -->
<g id="node56" class="node"><title>Node24</title>
<polygon fill="white" stroke="#bfbfbf" points="2599.08,-478.5 2599.08,-499.5 2650.08,-499.5 2650.08,-478.5 2599.08,-478.5"/>
<text text-anchor="middle" x="2624.58" y="-486.5" font-family="Helvetica,sans-Serif" font-size="10.00">TH3D.h</text>
</g>
<!-- Node2&#45;&gt;Node24 -->
<g id="edge62" class="edge"><title>Node2&#45;&gt;Node24</title>
<path fill="none" stroke="midnightblue" d="M2698.89,-536.362C2685.16,-527.614 2665.5,-515.079 2649.84,-505.101"/>
<polygon fill="midnightblue" stroke="midnightblue" points="2651.48,-501.994 2641.16,-499.571 2647.72,-507.897 2651.48,-501.994"/>
</g>
<!-- Node25 -->
<g id="node58" class="node"><title>Node25</title>
<a xlink:href="_t_event_8h.html" target="_top" xlink:title="tree/TEvent.h">
<polygon fill="white" stroke="black" points="2655.58,-239.5 2655.58,-260.5 2731.58,-260.5 2731.58,-239.5 2655.58,-239.5"/>
<text text-anchor="middle" x="2693.58" y="-247.5" font-family="Helvetica,sans-Serif" font-size="10.00">tree/TEvent.h</text>
</a>
</g>
<!-- Node2&#45;&gt;Node25 -->
<g id="edge64" class="edge"><title>Node2&#45;&gt;Node25</title>
<path fill="none" stroke="midnightblue" d="M2715.58,-536.444C2715.58,-516.062 2715.58,-469.868 2715.58,-431 2715.58,-431 2715.58,-431 2715.58,-373 2715.58,-336.505 2706.08,-294.857 2699.56,-270.59"/>
<polygon fill="midnightblue" stroke="midnightblue" points="2702.88,-269.44 2696.83,-260.744 2696.13,-271.316 2702.88,-269.44"/>
</g>
<!-- Node26 -->
<g id="node63" class="node"><title>Node26</title>
<a xlink:href="_t_event_data_8h.html" target="_top" xlink:title="tree/TEventData.h">
<polygon fill="white" stroke="black" points="878.079,-478.5 878.079,-499.5 975.079,-499.5 975.079,-478.5 878.079,-478.5"/>
<text text-anchor="middle" x="926.579" y="-486.5" font-family="Helvetica,sans-Serif" font-size="10.00">tree/TEventData.h</text>
</a>
</g>
<!-- Node2&#45;&gt;Node26 -->
<g id="edge72" class="edge"><title>Node2&#45;&gt;Node26</title>
<path fill="none" stroke="midnightblue" d="M2647.36,-544.788C2360.51,-535.488 1254.58,-499.634 985.732,-490.918"/>
<polygon fill="midnightblue" stroke="midnightblue" points="985.517,-487.409 975.409,-490.583 985.29,-494.405 985.517,-487.409"/>
</g>
<!-- Node56 -->
<g id="node190" class="node"><title>Node56</title>
<polygon fill="white" stroke="#bfbfbf" points="3131.08,-174.5 3131.08,-195.5 3166.08,-195.5 3166.08,-174.5 3131.08,-174.5"/>
<text text-anchor="middle" x="3148.58" y="-182.5" font-family="Helvetica,sans-Serif" font-size="10.00">map</text>
</g>
<!-- Node2&#45;&gt;Node56 -->
<g id="edge328" class="edge"><title>Node2&#45;&gt;Node56</title>
<path fill="none" stroke="midnightblue" d="M2783.94,-542.769C2872.17,-536.48 3020.22,-522.883 3069.58,-500 3177.01,-450.193 3178.94,-384.419 3200.58,-268 3203.5,-252.269 3207.07,-246.623 3200.58,-232 3195.1,-219.662 3184.6,-209.191 3174.47,-201.286"/>
<polygon fill="midnightblue" stroke="midnightblue" points="3176.31,-198.298 3166.16,-195.265 3172.2,-203.966 3176.31,-198.298"/>
</g>
<!-- Node65 -->
<g id="node219" class="node"><title>Node65</title>
<a xlink:href="_options_list_8h.html" target="_top" xlink:title="base/OptionsList.h">
<polygon fill="white" stroke="black" points="3093.58,-239.5 3093.58,-260.5 3191.58,-260.5 3191.58,-239.5 3093.58,-239.5"/>
<text text-anchor="middle" x="3142.58" y="-247.5" font-family="Helvetica,sans-Serif" font-size="10.00">base/OptionsList.h</text>
</a>
</g>
<!-- Node2&#45;&gt;Node65 -->
<g id="edge306" class="edge"><title>Node2&#45;&gt;Node65</title>
<path fill="none" stroke="midnightblue" d="M2783.82,-541.569C2899.25,-530.485 3120.58,-500.208 3120.58,-431 3120.58,-431 3120.58,-431 3120.58,-373 3120.58,-336.505 3130.08,-294.857 3136.59,-270.59"/>
<polygon fill="midnightblue" stroke="midnightblue" points="3140.03,-271.316 3139.33,-260.744 3133.28,-269.44 3140.03,-271.316"/>
</g>
<!-- Node2&#45;&gt;Node67 -->
<g id="edge318" class="edge"><title>Node2&#45;&gt;Node67</title>
<path fill="none" stroke="midnightblue" d="M2709.43,-536.31C2700.23,-521.226 2681.48,-493.778 2658.58,-478 2635.89,-462.372 2607.57,-451.56 2582.42,-444.285"/>
<polygon fill="midnightblue" stroke="midnightblue" points="2583.16,-440.859 2572.59,-441.571 2581.3,-447.607 2583.16,-440.859"/>
</g>
<!-- Node5 -->
<g id="node11" class="node"><title>Node5</title>
<a xlink:href="interval_8h.html" target="_top" xlink:title="base/interval.h">
<polygon fill="white" stroke="black" points="2653.58,-174.5 2653.58,-195.5 2733.58,-195.5 2733.58,-174.5 2653.58,-174.5"/>
<text text-anchor="middle" x="2693.58" y="-182.5" font-family="Helvetica,sans-Serif" font-size="10.00">base/interval.h</text>
</a>
</g>
<!-- Node4&#45;&gt;Node5 -->
<g id="edge10" class="edge"><title>Node4&#45;&gt;Node5</title>
<path fill="none" stroke="midnightblue" d="M2916.62,-304.473C2886.36,-296.946 2847.91,-285.093 2816.58,-268 2794.7,-256.064 2793.95,-246.362 2773.58,-232 2757.33,-220.547 2738.16,-209.215 2722.66,-200.549"/>
<polygon fill="midnightblue" stroke="midnightblue" points="2723.99,-197.285 2713.54,-195.52 2720.61,-203.414 2723.99,-197.285"/>
</g>
<!-- Node13 -->
<g id="node27" class="node"><title>Node13</title>
<a xlink:href="_bin_settings_8h.html" target="_top" xlink:title="base/BinSettings.h">
<polygon fill="white" stroke="black" points="2825.08,-239.5 2825.08,-260.5 2924.08,-260.5 2924.08,-239.5 2825.08,-239.5"/>
<text text-anchor="middle" x="2874.58" y="-247.5" font-family="Helvetica,sans-Serif" font-size="10.00">base/BinSettings.h</text>
</a>
</g>
<!-- Node4&#45;&gt;Node13 -->
<g id="edge26" class="edge"><title>Node4&#45;&gt;Node13</title>
<path fill="none" stroke="midnightblue" d="M2952.22,-304.267C2937.46,-293.949 2914.95,-278.216 2897.96,-266.342"/>
<polygon fill="midnightblue" stroke="midnightblue" points="2899.85,-263.394 2889.65,-260.534 2895.84,-269.131 2899.85,-263.394"/>
</g>
<!-- Node14 -->
<g id="node30" class="node"><title>Node14</title>
<polygon fill="white" stroke="#bfbfbf" points="1485.58,-58.5 1485.58,-79.5 1529.58,-79.5 1529.58,-58.5 1485.58,-58.5"/>
<text text-anchor="middle" x="1507.58" y="-66.5" font-family="Helvetica,sans-Serif" font-size="10.00">vector</text>
</g>
<!-- Node4&#45;&gt;Node14 -->
<g id="edge40" class="edge"><title>Node4&#45;&gt;Node14</title>
<path fill="none" stroke="midnightblue" d="M2970.04,-304.488C2977.51,-269.541 2995.79,-157.143 2932.58,-116 2902.39,-96.3506 1748.42,-73.5665 1539.75,-69.6026"/>
<polygon fill="midnightblue" stroke="midnightblue" points="1539.8,-66.103 1529.74,-69.413 1539.67,-73.1017 1539.8,-66.103"/>
</g>
<!-- Node4&#45;&gt;Node16 -->
<g id="edge38" class="edge"><title>Node4&#45;&gt;Node16</title>
<path fill="none" stroke="midnightblue" d="M2995.02,-304.376C3011.13,-296.702 3030.46,-284.729 3041.58,-268 3066.1,-231.126 3068.1,-177.205 3067.06,-147.88"/>
<polygon fill="midnightblue" stroke="midnightblue" points="3070.54,-147.406 3066.53,-137.599 3063.55,-147.766 3070.54,-147.406"/>
</g>
<!-- Node6 -->
<g id="node13" class="node"><title>Node6</title>
<a xlink:href="types_8h.html" target="_top" xlink:title="types.h">
<polygon fill="white" stroke="black" points="2181.08,-116.5 2181.08,-137.5 2230.08,-137.5 2230.08,-116.5 2181.08,-116.5"/>
<text text-anchor="middle" x="2205.58" y="-124.5" font-family="Helvetica,sans-Serif" font-size="10.00">types.h</text>
</a>
</g>
<!-- Node5&#45;&gt;Node6 -->
<g id="edge12" class="edge"><title>Node5&#45;&gt;Node6</title>
<path fill="none" stroke="midnightblue" d="M2653.28,-180.173C2637.19,-178.25 2618.51,-176.017 2601.58,-174 2468.13,-158.103 2309.38,-139.291 2240.42,-131.125"/>
<polygon fill="midnightblue" stroke="midnightblue" points="2240.48,-127.608 2230.14,-129.908 2239.66,-134.559 2240.48,-127.608"/>
</g>
<!-- Node7 -->
<g id="node15" class="node"><title>Node7</title>
<polygon fill="white" stroke="#bfbfbf" points="1501.58,-116.5 1501.58,-137.5 1557.58,-137.5 1557.58,-116.5 1501.58,-116.5"/>
<text text-anchor="middle" x="1529.58" y="-124.5" font-family="Helvetica,sans-Serif" font-size="10.00">algorithm</text>
</g>
<!-- Node5&#45;&gt;Node7 -->
<g id="edge14" class="edge"><title>Node5&#45;&gt;Node7</title>
<path fill="none" stroke="midnightblue" d="M2653.34,-179.524C2637.27,-177.511 2618.57,-175.387 2601.58,-174 2198.04,-141.076 1707.04,-130.18 1567.93,-127.639"/>
<polygon fill="midnightblue" stroke="midnightblue" points="1567.85,-124.137 1557.79,-127.458 1567.72,-131.136 1567.85,-124.137"/>
</g>
<!-- Node8 -->
<g id="node17" class="node"><title>Node8</title>
<polygon fill="white" stroke="#bfbfbf" points="2569.08,-116.5 2569.08,-137.5 2628.08,-137.5 2628.08,-116.5 2569.08,-116.5"/>
<text text-anchor="middle" x="2598.58" y="-124.5" font-family="Helvetica,sans-Serif" font-size="10.00">stdexcept</text>
</g>
<!-- Node5&#45;&gt;Node8 -->
<g id="edge16" class="edge"><title>Node5&#45;&gt;Node8</title>
<path fill="none" stroke="midnightblue" d="M2676.15,-174.362C2661.69,-165.532 2640.91,-152.844 2624.5,-142.822"/>
<polygon fill="midnightblue" stroke="midnightblue" points="2626.25,-139.794 2615.89,-137.571 2622.6,-145.769 2626.25,-139.794"/>
</g>
<!-- Node9 -->
<g id="node19" class="node"><title>Node9</title>
<polygon fill="white" stroke="#bfbfbf" points="2123.58,-58.5 2123.58,-79.5 2163.58,-79.5 2163.58,-58.5 2123.58,-58.5"/>
<text text-anchor="middle" x="2143.58" y="-66.5" font-family="Helvetica,sans-Serif" font-size="10.00">limits</text>
</g>
<!-- Node5&#45;&gt;Node9 -->
<g id="edge18" class="edge"><title>Node5&#45;&gt;Node9</title>
<path fill="none" stroke="midnightblue" d="M2688.31,-174.359C2679.83,-158.536 2661.56,-129.251 2636.58,-116 2595.68,-94.3043 2274.58,-75.8439 2173.76,-70.5343"/>
<polygon fill="midnightblue" stroke="midnightblue" points="2173.81,-67.0322 2163.64,-70.0068 2173.44,-74.0227 2173.81,-67.0322"/>
</g>
<!-- Node10 -->
<g id="node21" class="node"><title>Node10</title>
<polygon fill="white" stroke="#bfbfbf" points="2760.08,-116.5 2760.08,-137.5 2809.08,-137.5 2809.08,-116.5 2760.08,-116.5"/>
<text text-anchor="middle" x="2784.58" y="-124.5" font-family="Helvetica,sans-Serif" font-size="10.00">istream</text>
</g>
<!-- Node5&#45;&gt;Node10 -->
<g id="edge20" class="edge"><title>Node5&#45;&gt;Node10</title>
<path fill="none" stroke="midnightblue" d="M2710.27,-174.362C2724,-165.614 2743.66,-153.079 2759.32,-143.101"/>
<polygon fill="midnightblue" stroke="midnightblue" points="2761.44,-145.897 2767.99,-137.571 2757.68,-139.994 2761.44,-145.897"/>
</g>
<!-- Node11 -->
<g id="node23" class="node"><title>Node11</title>
<polygon fill="white" stroke="#bfbfbf" points="1215.58,-116.5 1215.58,-137.5 1267.58,-137.5 1267.58,-116.5 1215.58,-116.5"/>
<text text-anchor="middle" x="1241.58" y="-124.5" font-family="Helvetica,sans-Serif" font-size="10.00">sstream</text>
</g>
<!-- Node5&#45;&gt;Node11 -->
<g id="edge22" class="edge"><title>Node5&#45;&gt;Node11</title>
<path fill="none" stroke="midnightblue" d="M2653.35,-179.425C2637.28,-177.398 2618.58,-175.29 2601.58,-174 2109.84,-136.692 1985.37,-156.796 1492.58,-138 1416.03,-135.08 1326.39,-130.99 1277.64,-128.709"/>
<polygon fill="midnightblue" stroke="midnightblue" points="1277.74,-125.21 1267.59,-128.237 1277.42,-132.202 1277.74,-125.21"/>
</g>
<!-- Node12 -->
<g id="node25" class="node"><title>Node12</title>
<polygon fill="white" stroke="#bfbfbf" points="674.579,-0.5 674.579,-21.5 718.579,-21.5 718.579,-0.5 674.579,-0.5"/>
<text text-anchor="middle" x="696.579" y="-8.5" font-family="Helvetica,sans-Serif" font-size="10.00">cmath</text>
</g>
<!-- Node5&#45;&gt;Node12 -->
<g id="edge24" class="edge"><title>Node5&#45;&gt;Node12</title>
<path fill="none" stroke="midnightblue" d="M2692.25,-174.335C2689.69,-158.756 2682.56,-130.103 2663.58,-116 2487.21,15.0732 2391.71,-74.4008 2172.58,-58 1877.89,-35.944 917.073,-15.499 728.765,-11.6484"/>
<polygon fill="midnightblue" stroke="midnightblue" points="728.751,-8.1475 718.682,-11.443 728.608,-15.146 728.751,-8.1475"/>
</g>
<!-- Node13&#45;&gt;Node5 -->
<g id="edge28" class="edge"><title>Node13&#45;&gt;Node5</title>
<path fill="none" stroke="midnightblue" d="M2845.1,-239.412C2814.46,-228.411 2766.37,-211.14 2732.6,-199.013"/>
<polygon fill="midnightblue" stroke="midnightblue" points="2733.64,-195.669 2723.05,-195.584 2731.28,-202.257 2733.64,-195.669"/>
</g>
<!-- Node13&#45;&gt;Node8 -->
<g id="edge32" class="edge"><title>Node13&#45;&gt;Node8</title>
<path fill="none" stroke="midnightblue" d="M2858.49,-239.266C2834.18,-223.4 2786.3,-193.471 2742.58,-174 2708.3,-158.736 2667.5,-145.887 2638.1,-137.503"/>
<polygon fill="midnightblue" stroke="midnightblue" points="2638.78,-134.058 2628.2,-134.727 2636.89,-140.798 2638.78,-134.058"/>
</g>
<!-- Node13&#45;&gt;Node10 -->
<g id="edge34" class="edge"><title>Node13&#45;&gt;Node10</title>
<path fill="none" stroke="midnightblue" d="M2866.59,-239.085C2851.28,-218.152 2817.61,-172.135 2798.51,-146.041"/>
<polygon fill="midnightblue" stroke="midnightblue" points="2801.15,-143.719 2792.42,-137.715 2795.5,-147.852 2801.15,-143.719"/>
</g>
<!-- Node13&#45;&gt;Node14 -->
<g id="edge30" class="edge"><title>Node13&#45;&gt;Node14</title>
<path fill="none" stroke="midnightblue" d="M2880.69,-239.167C2894.1,-213.775 2922.44,-150 2889.58,-116 2865.34,-90.9205 1745.54,-72.6332 1539.86,-69.4827"/>
<polygon fill="midnightblue" stroke="midnightblue" points="1539.76,-65.9809 1529.71,-69.3282 1539.65,-72.9801 1539.76,-65.9809"/>
</g>
<!-- Node15 -->
<g id="node34" class="node"><title>Node15</title>
<polygon fill="white" stroke="#bfbfbf" points="901.579,-58.5 901.579,-79.5 953.579,-79.5 953.579,-58.5 901.579,-58.5"/>
<text text-anchor="middle" x="927.579" y="-66.5" font-family="Helvetica,sans-Serif" font-size="10.00">ostream</text>
</g>
<!-- Node13&#45;&gt;Node15 -->
<g id="edge36" class="edge"><title>Node13&#45;&gt;Node15</title>
<path fill="none" stroke="midnightblue" d="M2873.77,-239.233C2871.14,-212.818 2860.32,-144.865 2817.58,-116 2734.12,-59.6343 1140.02,-94.9131 963.791,-79.295"/>
<polygon fill="midnightblue" stroke="midnightblue" points="964.099,-75.8072 953.758,-78.1084 963.277,-82.7587 964.099,-75.8072"/>
</g>
<!-- Node17&#45;&gt;Node13 -->
<g id="edge54" class="edge"><title>Node17&#45;&gt;Node13</title>
<path fill="none" stroke="midnightblue" d="M2817.81,-304.267C2828.21,-294.328 2843.86,-279.363 2856.1,-267.664"/>
<polygon fill="midnightblue" stroke="midnightblue" points="2858.75,-269.974 2863.56,-260.534 2853.91,-264.913 2858.75,-269.974"/>
</g>
<!-- Node17&#45;&gt;Node14 -->
<g id="edge48" class="edge"><title>Node17&#45;&gt;Node14</title>
<path fill="none" stroke="midnightblue" d="M2850,-304.451C2882.43,-295.592 2922.76,-282.144 2932.58,-268 2957.66,-231.875 2958.19,-157.302 2909.58,-116 2882.6,-93.0771 1747.35,-73.0107 1539.93,-69.5322"/>
<polygon fill="midnightblue" stroke="midnightblue" points="1539.76,-66.0289 1529.7,-69.3615 1539.64,-73.0279 1539.76,-66.0289"/>
</g>
<!-- Node17&#45;&gt;Node16 -->
<g id="edge44" class="edge"><title>Node17&#45;&gt;Node16</title>
<path fill="none" stroke="midnightblue" d="M2854.78,-304.424C2894.72,-295 2947.72,-280.765 2965.58,-268 3010.32,-236.011 3042.26,-177.554 3056.79,-146.924"/>
<polygon fill="midnightblue" stroke="midnightblue" points="3060.04,-148.23 3061.04,-137.682 3053.68,-145.303 3060.04,-148.23"/>
</g>
<!-- Node17&#45;&gt;Node18 -->
<g id="edge46" class="edge"><title>Node17&#45;&gt;Node18</title>
<path fill="none" stroke="midnightblue" d="M2742.8,-309.143C2652.52,-300.73 2482.31,-284.422 2337.58,-268 2296.6,-263.35 2249.07,-257.164 2220.71,-253.388"/>
<polygon fill="midnightblue" stroke="midnightblue" points="2220.86,-249.877 2210.49,-252.02 2219.94,-256.815 2220.86,-249.877"/>
</g>
<!-- Node17&#45;&gt;Node19 -->
<g id="edge50" class="edge"><title>Node17&#45;&gt;Node19</title>
<path fill="none" stroke="midnightblue" d="M2742.92,-309.825C2646.97,-301.628 2469.97,-284.851 2408.58,-268 2370.59,-257.572 2365.63,-242.198 2327.58,-232 2250.7,-211.396 2011.43,-193.603 1919.79,-187.37"/>
<polygon fill="midnightblue" stroke="midnightblue" points="1919.83,-183.865 1909.62,-186.685 1919.36,-190.849 1919.83,-183.865"/>
</g>
<!-- Node17&#45;&gt;Node20 -->
<g id="edge52" class="edge"><title>Node17&#45;&gt;Node20</title>
<path fill="none" stroke="midnightblue" d="M2799.51,-304.411C2785.83,-284.228 2755.75,-241.42 2740.58,-232 2676.07,-191.948 2647.48,-213.412 2573.58,-196 2572.49,-195.744 2571.39,-195.481 2570.28,-195.214"/>
<polygon fill="midnightblue" stroke="midnightblue" points="2570.7,-191.713 2560.15,-192.723 2569.02,-198.51 2570.7,-191.713"/>
</g>
<!-- Node21 -->
<g id="node50" class="node"><title>Node21</title>
<polygon fill="white" stroke="#bfbfbf" points="3251.58,-116.5 3251.58,-137.5 3307.58,-137.5 3307.58,-116.5 3251.58,-116.5"/>
<text text-anchor="middle" x="3279.58" y="-124.5" font-family="Helvetica,sans-Serif" font-size="10.00">Rtypes.h</text>
</g>
<!-- Node17&#45;&gt;Node21 -->
<g id="edge56" class="edge"><title>Node17&#45;&gt;Node21</title>
<path fill="none" stroke="midnightblue" d="M2870.16,-305.144C2873.01,-304.748 2875.82,-304.365 2878.58,-304 2949.96,-294.561 3137.18,-302.12 3200.58,-268 3237.26,-248.26 3241.28,-232.914 3260.58,-196 3268.48,-180.882 3273.37,-162.133 3276.21,-147.997"/>
<polygon fill="midnightblue" stroke="midnightblue" points="3279.72,-148.271 3278.06,-137.806 3272.83,-147.018 3279.72,-148.271"/>
</g>
<!-- Node25&#45;&gt;Node8 -->
<g id="edge70" class="edge"><title>Node25&#45;&gt;Node8</title>
<path fill="none" stroke="midnightblue" d="M2682.94,-239.252C2672.66,-228.644 2656.88,-211.771 2644.58,-196 2632.06,-179.951 2619.34,-160.585 2610.46,-146.46"/>
<polygon fill="midnightblue" stroke="midnightblue" points="2613.22,-144.273 2604.97,-137.623 2607.27,-147.965 2613.22,-144.273"/>
</g>
<!-- Node25&#45;&gt;Node19 -->
<g id="edge68" class="edge"><title>Node25&#45;&gt;Node19</title>
<path fill="none" stroke="midnightblue" d="M2655.28,-240.666C2640.74,-237.445 2623.97,-234.117 2608.58,-232 2346.13,-195.895 2026.3,-187.397 1919.92,-185.51"/>
<polygon fill="midnightblue" stroke="midnightblue" points="1919.78,-182.007 1909.72,-185.338 1919.66,-189.006 1919.78,-182.007"/>
</g>
<!-- Node25&#45;&gt;Node21 -->
<g id="edge66" class="edge"><title>Node25&#45;&gt;Node21</title>
<path fill="none" stroke="midnightblue" d="M2732.03,-241.93C2838.36,-219.611 3135.49,-157.245 3241.44,-135.005"/>
<polygon fill="midnightblue" stroke="midnightblue" points="3242.31,-138.399 3251.38,-132.92 3240.87,-131.549 3242.31,-138.399"/>
</g>
<!-- Node27 -->
<g id="node65" class="node"><title>Node27</title>
<a xlink:href="_t_i_d_8h.html" target="_top" xlink:title="TID.h">
<polygon fill="white" stroke="black" points="294.079,-304.5 294.079,-325.5 335.079,-325.5 335.079,-304.5 294.079,-304.5"/>
<text text-anchor="middle" x="314.579" y="-312.5" font-family="Helvetica,sans-Serif" font-size="10.00">TID.h</text>
</a>
</g>
<!-- Node26&#45;&gt;Node27 -->
<g id="edge74" class="edge"><title>Node26&#45;&gt;Node27</title>
<path fill="none" stroke="midnightblue" d="M877.663,-481.485C828.653,-473.483 751.265,-459.559 685.579,-442 556.615,-407.526 407.552,-351.354 344.841,-326.949"/>
<polygon fill="midnightblue" stroke="midnightblue" points="345.777,-323.557 335.189,-323.177 343.229,-330.077 345.777,-323.557"/>
</g>
<!-- Node36 -->
<g id="node91" class="node"><title>Node36</title>
<a xlink:href="_t_detector_read_hit_8h.html" target="_top" xlink:title="TDetectorReadHit.h">
<polygon fill="white" stroke="black" points="703.579,-239.5 703.579,-260.5 807.579,-260.5 807.579,-239.5 703.579,-239.5"/>
<text text-anchor="middle" x="755.579" y="-247.5" font-family="Helvetica,sans-Serif" font-size="10.00">TDetectorReadHit.h</text>
</a>
</g>
<!-- Node26&#45;&gt;Node36 -->
<g id="edge108" class="edge"><title>Node26&#45;&gt;Node36</title>
<path fill="none" stroke="midnightblue" d="M915.711,-478.429C890.746,-453.689 828.469,-389.312 789.579,-326 778.576,-308.087 769.101,-285.998 762.97,-270.259"/>
<polygon fill="midnightblue" stroke="midnightblue" points="766.092,-268.622 759.281,-260.507 759.545,-271.099 766.092,-268.622"/>
</g>
<!-- Node43 -->
<g id="node118" class="node"><title>Node43</title>
<a xlink:href="_t_slow_control_8h.html" target="_top" xlink:title="TSlowControl.h">
<polygon fill="white" stroke="black" points="139.579,-362.5 139.579,-383.5 223.579,-383.5 223.579,-362.5 139.579,-362.5"/>
<text text-anchor="middle" x="181.579" y="-370.5" font-family="Helvetica,sans-Serif" font-size="10.00">TSlowControl.h</text>
</a>
</g>
<!-- Node26&#45;&gt;Node43 -->
<g id="edge148" class="edge"><title>Node26&#45;&gt;Node43</title>
<path fill="none" stroke="midnightblue" d="M877.912,-486.509C761.282,-480.277 468.402,-462.991 372.579,-442 315.039,-429.395 251.254,-403.855 213.881,-387.631"/>
<polygon fill="midnightblue" stroke="midnightblue" points="215.082,-384.336 204.518,-383.521 212.268,-390.746 215.082,-384.336"/>
</g>
<!-- Node44 -->
<g id="node124" class="node"><title>Node44</title>
<a xlink:href="_t_unpacker_message_8h.html" target="_top" xlink:title="TUnpackerMessage.h">
<polygon fill="white" stroke="black" points="883.079,-174.5 883.079,-195.5 996.079,-195.5 996.079,-174.5 883.079,-174.5"/>
<text text-anchor="middle" x="939.579" y="-182.5" font-family="Helvetica,sans-Serif" font-size="10.00">TUnpackerMessage.h</text>
</a>
</g>
<!-- Node26&#45;&gt;Node44 -->
<g id="edge158" class="edge"><title>Node26&#45;&gt;Node44</title>
<path fill="none" stroke="midnightblue" d="M927.042,-478.18C928.941,-433.764 936.159,-264.983 938.693,-205.721"/>
<polygon fill="midnightblue" stroke="midnightblue" points="942.191,-205.83 939.122,-195.69 935.198,-205.531 942.191,-205.83"/>
</g>
<!-- Node47 -->
<g id="node132" class="node"><title>Node47</title>
<a xlink:href="_t_tagger_hit_8h.html" target="_top" xlink:title="TTaggerHit.h">
<polygon fill="white" stroke="black" points="529.579,-362.5 529.579,-383.5 603.579,-383.5 603.579,-362.5 529.579,-362.5"/>
<text text-anchor="middle" x="566.579" y="-370.5" font-family="Helvetica,sans-Serif" font-size="10.00">TTaggerHit.h</text>
</a>
</g>
<!-- Node26&#45;&gt;Node47 -->
<g id="edge168" class="edge"><title>Node26&#45;&gt;Node47</title>
<path fill="none" stroke="midnightblue" d="M882.735,-478.449C847.136,-469.59 795.773,-456.141 751.579,-442 698.831,-425.122 638.978,-402.065 601.997,-387.351"/>
<polygon fill="midnightblue" stroke="midnightblue" points="603.237,-384.078 592.652,-383.617 600.639,-390.578 603.237,-384.078"/>
</g>
<!-- Node49 -->
<g id="node141" class="node"><title>Node49</title>
<a xlink:href="_t_trigger_8h.html" target="_top" xlink:title="TTrigger.h">
<polygon fill="white" stroke="black" points="2417.08,-239.5 2417.08,-260.5 2478.08,-260.5 2478.08,-239.5 2417.08,-239.5"/>
<text text-anchor="middle" x="2447.58" y="-247.5" font-family="Helvetica,sans-Serif" font-size="10.00">TTrigger.h</text>
</a>
</g>
<!-- Node26&#45;&gt;Node49 -->
<g id="edge182" class="edge"><title>Node26&#45;&gt;Node49</title>
<path fill="none" stroke="midnightblue" d="M975.321,-488.061C1115.01,-485.048 1528.7,-473.889 1870.58,-442 2059.52,-424.377 2120.79,-462.443 2293.58,-384 2353.5,-356.798 2407.51,-298.566 2432.66,-268.624"/>
<polygon fill="midnightblue" stroke="midnightblue" points="2435.58,-270.583 2439.25,-260.641 2430.18,-266.129 2435.58,-270.583"/>
</g>
<!-- Node50 -->
<g id="node147" class="node"><title>Node50</title>
<a xlink:href="_t_target_8h.html" target="_top" xlink:title="TTarget.h">
<polygon fill="white" stroke="black" points="1441.08,-304.5 1441.08,-325.5 1500.08,-325.5 1500.08,-304.5 1441.08,-304.5"/>
<text text-anchor="middle" x="1470.58" y="-312.5" font-family="Helvetica,sans-Serif" font-size="10.00">TTarget.h</text>
</a>
</g>
<!-- Node26&#45;&gt;Node50 -->
<g id="edge192" class="edge"><title>Node26&#45;&gt;Node50</title>
<path fill="none" stroke="midnightblue" d="M959.79,-478.377C1055.01,-447.922 1328.66,-360.392 1431.18,-327.603"/>
<polygon fill="midnightblue" stroke="midnightblue" points="1432.38,-330.894 1440.84,-324.514 1430.24,-324.227 1432.38,-330.894"/>
</g>
<!-- Node51 -->
<g id="node154" class="node"><title>Node51</title>
<a xlink:href="_t_cluster_8h.html" target="_top" xlink:title="TCluster.h">
<polygon fill="white" stroke="black" points="798.579,-304.5 798.579,-325.5 860.579,-325.5 860.579,-304.5 798.579,-304.5"/>
<text text-anchor="middle" x="829.579" y="-312.5" font-family="Helvetica,sans-Serif" font-size="10.00">TCluster.h</text>
</a>
</g>
<!-- Node26&#45;&gt;Node51 -->
<g id="edge204" class="edge"><title>Node26&#45;&gt;Node51</title>
<path fill="none" stroke="midnightblue" d="M920.657,-478.377C904.799,-449.93 861.179,-371.684 840.6,-334.769"/>
<polygon fill="midnightblue" stroke="midnightblue" points="843.597,-332.958 835.671,-325.928 837.483,-336.366 843.597,-332.958"/>
</g>
<!-- Node53 -->
<g id="node171" class="node"><title>Node53</title>
<a xlink:href="_t_candidate_8h.html" target="_top" xlink:title="TCandidate.h">
<polygon fill="white" stroke="black" points="1140.08,-362.5 1140.08,-383.5 1215.08,-383.5 1215.08,-362.5 1140.08,-362.5"/>
<text text-anchor="middle" x="1177.58" y="-370.5" font-family="Helvetica,sans-Serif" font-size="10.00">TCandidate.h</text>
</a>
</g>
<!-- Node26&#45;&gt;Node53 -->
<g id="edge234" class="edge"><title>Node26&#45;&gt;Node53</title>
<path fill="none" stroke="midnightblue" d="M949.743,-478.295C994.778,-457.482 1094.21,-411.527 1145.54,-387.808"/>
<polygon fill="midnightblue" stroke="midnightblue" points="1147.22,-390.884 1154.83,-383.512 1144.29,-384.53 1147.22,-390.884"/>
</g>
<!-- Node54 -->
<g id="node180" class="node"><title>Node54</title>
<a xlink:href="_t_particle_8h.html" target="_top" xlink:title="TParticle.h">
<polygon fill="white" stroke="black" points="1797.58,-420.5 1797.58,-441.5 1861.58,-441.5 1861.58,-420.5 1797.58,-420.5"/>
<text text-anchor="middle" x="1829.58" y="-428.5" font-family="Helvetica,sans-Serif" font-size="10.00">TParticle.h</text>
</a>
</g>
<!-- Node26&#45;&gt;Node54 -->
<g id="edge250" class="edge"><title>Node26&#45;&gt;Node54</title>
<path fill="none" stroke="midnightblue" d="M975.128,-485.882C1134.15,-475.668 1637.7,-443.324 1787.28,-433.717"/>
<polygon fill="midnightblue" stroke="midnightblue" points="1787.68,-437.199 1797.43,-433.065 1787.23,-430.213 1787.68,-437.199"/>
</g>
<!-- Node27&#45;&gt;Node8 -->
<g id="edge100" class="edge"><title>Node27&#45;&gt;Node8</title>
<path fill="none" stroke="midnightblue" d="M317.415,-304.285C322.564,-286.807 335.059,-252.1 357.579,-232 411.525,-183.853 438.61,-187.845 509.579,-174 698.176,-137.206 2046.49,-142.934 2238.58,-138 2354.87,-135.013 2492.27,-130.558 2558.68,-128.346"/>
<polygon fill="midnightblue" stroke="midnightblue" points="2558.84,-131.843 2568.71,-128.011 2558.6,-124.847 2558.84,-131.843"/>
</g>
<!-- Node27&#45;&gt;Node18 -->
<g id="edge102" class="edge"><title>Node27&#45;&gt;Node18</title>
<path fill="none" stroke="midnightblue" d="M335.32,-313.821C375.368,-311.585 466.142,-306.708 542.579,-304 896.225,-291.473 1784.94,-322.551 2134.58,-268 2146.82,-266.091 2160.04,-262.4 2171.03,-258.854"/>
<polygon fill="midnightblue" stroke="midnightblue" points="2172.43,-262.076 2180.79,-255.563 2170.2,-255.443 2172.43,-262.076"/>
</g>
<!-- Node27&#45;&gt;Node21 -->
<g id="edge76" class="edge"><title>Node27&#45;&gt;Node21</title>
<path fill="none" stroke="midnightblue" d="M324.684,-304.412C341.331,-287.421 376.12,-253.77 410.579,-232 437.666,-214.887 511.27,-180.806 542.579,-174 681.135,-143.88 2952.88,-143.209 3094.58,-138 3145.21,-136.139 3203.54,-132.406 3240.95,-129.808"/>
<polygon fill="midnightblue" stroke="midnightblue" points="3241.66,-133.266 3251.39,-129.074 3241.17,-126.284 3241.66,-133.266"/>
</g>
<!-- Node28 -->
<g id="node68" class="node"><title>Node28</title>
<a xlink:href="base_2std__ext_2_time_8h.html" target="_top" xlink:title="base/std_ext/time.h">
<polygon fill="white" stroke="black" points="13.0791,-239.5 13.0791,-260.5 116.079,-260.5 116.079,-239.5 13.0791,-239.5"/>
<text text-anchor="middle" x="64.5791" y="-247.5" font-family="Helvetica,sans-Serif" font-size="10.00">base/std_ext/time.h</text>
</a>
</g>
<!-- Node27&#45;&gt;Node28 -->
<g id="edge78" class="edge"><title>Node27&#45;&gt;Node28</title>
<path fill="none" stroke="midnightblue" d="M294.01,-309.927C259.819,-301.459 189.153,-283.814 129.579,-268 123.851,-266.48 117.848,-264.857 111.902,-263.232"/>
<polygon fill="midnightblue" stroke="midnightblue" points="112.577,-259.788 102.007,-260.512 110.722,-266.537 112.577,-259.788"/>
</g>
<!-- Node31 -->
<g id="node78" class="node"><title>Node31</title>
<polygon fill="white" stroke="#bfbfbf" points="114.079,-174.5 114.079,-195.5 155.079,-195.5 155.079,-174.5 114.079,-174.5"/>
<text text-anchor="middle" x="134.579" y="-182.5" font-family="Helvetica,sans-Serif" font-size="10.00">ctime</text>
</g>
<!-- Node27&#45;&gt;Node31 -->
<g id="edge106" class="edge"><title>Node27&#45;&gt;Node31</title>
<path fill="none" stroke="midnightblue" d="M294.04,-307.426C266.747,-297.146 220.26,-278.82 205.579,-268 181.29,-250.099 159.766,-222.386 146.953,-203.973"/>
<polygon fill="midnightblue" stroke="midnightblue" points="149.739,-201.846 141.233,-195.53 143.944,-205.772 149.739,-201.846"/>
</g>
<!-- Node32 -->
<g id="node80" class="node"><title>Node32</title>
<polygon fill="white" stroke="#bfbfbf" points="707.579,-116.5 707.579,-137.5 769.579,-137.5 769.579,-116.5 707.579,-116.5"/>
<text text-anchor="middle" x="738.579" y="-124.5" font-family="Helvetica,sans-Serif" font-size="10.00">type_traits</text>
</g>
<!-- Node27&#45;&gt;Node32 -->
<g id="edge94" class="edge"><title>Node27&#45;&gt;Node32</title>
<path fill="none" stroke="midnightblue" d="M310.872,-304.412C302.481,-278.309 285.308,-210.365 319.579,-174 375.62,-114.536 599.324,-150.602 697.335,-137.725"/>
<polygon fill="midnightblue" stroke="midnightblue" points="697.919,-141.176 707.255,-136.167 696.833,-134.261 697.919,-141.176"/>
</g>
<!-- Node33 -->
<g id="node82" class="node"><title>Node33</title>
<polygon fill="white" stroke="#bfbfbf" points="229.579,-174.5 229.579,-195.5 267.579,-195.5 267.579,-174.5 229.579,-174.5"/>
<text text-anchor="middle" x="248.579" y="-182.5" font-family="Helvetica,sans-Serif" font-size="10.00">tuple</text>
</g>
<!-- Node27&#45;&gt;Node33 -->
<g id="edge96" class="edge"><title>Node27&#45;&gt;Node33</title>
<path fill="none" stroke="midnightblue" d="M305.947,-304.267C298.795,-295.033 288.687,-281.158 281.579,-268 270.471,-247.437 261.004,-222.317 255.096,-205.134"/>
<polygon fill="midnightblue" stroke="midnightblue" points="258.389,-203.943 251.895,-195.572 251.751,-206.166 258.389,-203.943"/>
</g>
<!-- Node34 -->
<g id="node84" class="node"><title>Node34</title>
<polygon fill="white" stroke="#bfbfbf" points="178.579,-116.5 178.579,-137.5 224.579,-137.5 224.579,-116.5 178.579,-116.5"/>
<text text-anchor="middle" x="201.579" y="-124.5" font-family="Helvetica,sans-Serif" font-size="10.00">cstdint</text>
</g>
<!-- Node27&#45;&gt;Node34 -->
<g id="edge98" class="edge"><title>Node27&#45;&gt;Node34</title>
<path fill="none" stroke="midnightblue" d="M299.897,-304.148C288.538,-295.271 272.89,-281.945 261.579,-268 238.381,-239.401 234.687,-230.015 220.579,-196 214.043,-180.242 209.053,-161.54 205.83,-147.584"/>
<polygon fill="midnightblue" stroke="midnightblue" points="209.192,-146.573 203.629,-137.556 202.355,-148.074 209.192,-146.573"/>
</g>
<!-- Node35 -->
<g id="node88" class="node"><title>Node35</title>
<polygon fill="white" stroke="#bfbfbf" points="551.579,-174.5 551.579,-195.5 601.579,-195.5 601.579,-174.5 551.579,-174.5"/>
<text text-anchor="middle" x="576.579" y="-182.5" font-family="Helvetica,sans-Serif" font-size="10.00">iomanip</text>
</g>
<!-- Node27&#45;&gt;Node35 -->
<g id="edge104" class="edge"><title>Node27&#45;&gt;Node35</title>
<path fill="none" stroke="midnightblue" d="M335.138,-304.799C381.113,-281.987 492.422,-226.757 546.326,-200.011"/>
<polygon fill="midnightblue" stroke="midnightblue" points="547.986,-203.095 555.388,-195.515 544.874,-196.824 547.986,-203.095"/>
</g>
<!-- Node28&#45;&gt;Node29 -->
<g id="edge80" class="edge"><title>Node28&#45;&gt;Node29</title>
<path fill="none" stroke="midnightblue" d="M116.481,-247.492C326.518,-237.341 1113.28,-199.319 1344.99,-188.122"/>
<polygon fill="midnightblue" stroke="midnightblue" points="1345.45,-191.603 1355.27,-187.624 1345.12,-184.611 1345.45,-191.603"/>
</g>
<!-- Node30 -->
<g id="node76" class="node"><title>Node30</title>
<polygon fill="white" stroke="#bfbfbf" points="41.5791,-174.5 41.5791,-195.5 87.5791,-195.5 87.5791,-174.5 41.5791,-174.5"/>
<text text-anchor="middle" x="64.5791" y="-182.5" font-family="Helvetica,sans-Serif" font-size="10.00">cstring</text>
</g>
<!-- Node28&#45;&gt;Node30 -->
<g id="edge90" class="edge"><title>Node28&#45;&gt;Node30</title>
<path fill="none" stroke="midnightblue" d="M64.5791,-239.267C64.5791,-230.18 64.5791,-216.892 64.5791,-205.74"/>
<polygon fill="midnightblue" stroke="midnightblue" points="68.0792,-205.534 64.5791,-195.534 61.0792,-205.534 68.0792,-205.534"/>
</g>
<!-- Node28&#45;&gt;Node31 -->
<g id="edge92" class="edge"><title>Node28&#45;&gt;Node31</title>
<path fill="none" stroke="midnightblue" d="M76.1381,-239.267C86.8412,-229.328 102.957,-214.363 115.556,-202.664"/>
<polygon fill="midnightblue" stroke="midnightblue" points="118.289,-204.903 123.235,-195.534 113.526,-199.773 118.289,-204.903"/>
</g>
<!-- Node29&#45;&gt;Node7 -->
<g id="edge86" class="edge"><title>Node29&#45;&gt;Node7</title>
<path fill="none" stroke="midnightblue" d="M1431.31,-174.497C1450.05,-165.438 1477.35,-152.246 1498.41,-142.063"/>
<polygon fill="midnightblue" stroke="midnightblue" points="1500.12,-145.124 1507.6,-137.621 1497.08,-138.822 1500.12,-145.124"/>
</g>
<!-- Node29&#45;&gt;Node11 -->
<g id="edge84" class="edge"><title>Node29&#45;&gt;Node11</title>
<path fill="none" stroke="midnightblue" d="M1379.16,-174.497C1350.53,-164.613 1307.65,-149.809 1277.38,-139.361"/>
<polygon fill="midnightblue" stroke="midnightblue" points="1278.24,-135.953 1267.64,-135.998 1275.95,-142.569 1278.24,-135.953"/>
</g>
<!-- Node29&#45;&gt;Node14 -->
<g id="edge88" class="edge"><title>Node29&#45;&gt;Node14</title>
<path fill="none" stroke="midnightblue" d="M1418.62,-174.295C1435.32,-154.527 1471.18,-112.08 1491.91,-87.5443"/>
<polygon fill="midnightblue" stroke="midnightblue" points="1494.78,-89.5768 1498.56,-79.6792 1489.43,-85.0593 1494.78,-89.5768"/>
</g>
<!-- Node29&#45;&gt;Node16 -->
<g id="edge82" class="edge"><title>Node29&#45;&gt;Node16</title>
<path fill="none" stroke="midnightblue" d="M1463.91,-181.905C1507.37,-179.506 1569.87,-176.225 1624.58,-174 2154.6,-152.447 2287.48,-157.753 2817.58,-138 2895.89,-135.082 2988.08,-130.759 3034.91,-128.5"/>
<polygon fill="midnightblue" stroke="midnightblue" points="3035.19,-131.991 3045.01,-128.011 3034.85,-124.999 3035.19,-131.991"/>
</g>
<!-- Node36&#45;&gt;Node11 -->
<g id="edge146" class="edge"><title>Node36&#45;&gt;Node11</title>
<path fill="none" stroke="midnightblue" d="M807.809,-239.777C858.363,-229.622 937.049,-213.131 1004.58,-196 1076.56,-177.74 1159.68,-152.586 1205.88,-138.237"/>
<polygon fill="midnightblue" stroke="midnightblue" points="1206.93,-141.576 1215.44,-135.259 1204.85,-134.893 1206.93,-141.576"/>
</g>
<!-- Node36&#45;&gt;Node35 -->
<g id="edge144" class="edge"><title>Node36&#45;&gt;Node35</title>
<path fill="none" stroke="midnightblue" d="M726.421,-239.412C694.999,-228.002 645.001,-209.846 611.503,-197.682"/>
<polygon fill="midnightblue" stroke="midnightblue" points="612.27,-194.237 601.676,-194.113 609.881,-200.816 612.27,-194.237"/>
</g>
<!-- Node37 -->
<g id="node93" class="node"><title>Node37</title>
<a xlink:href="_detector__t_8h.html" target="_top" xlink:title="base/Detector_t.h">
<polygon fill="white" stroke="black" points="771.079,-174.5 771.079,-195.5 866.079,-195.5 866.079,-174.5 771.079,-174.5"/>
<text text-anchor="middle" x="818.579" y="-182.5" font-family="Helvetica,sans-Serif" font-size="10.00">base/Detector_t.h</text>
</a>
</g>
<!-- Node36&#45;&gt;Node37 -->
<g id="edge110" class="edge"><title>Node36&#45;&gt;Node37</title>
<path fill="none" stroke="midnightblue" d="M765.982,-239.267C775.523,-229.423 789.843,-214.648 801.133,-203"/>
<polygon fill="midnightblue" stroke="midnightblue" points="803.923,-205.15 808.369,-195.534 798.896,-200.278 803.923,-205.15"/>
</g>
<!-- Node37&#45;&gt;Node8 -->
<g id="edge136" class="edge"><title>Node37&#45;&gt;Node8</title>
<path fill="none" stroke="midnightblue" d="M866.154,-175.092C868.997,-174.675 871.822,-174.305 874.579,-174 1175.96,-140.661 1935.49,-146.63 2238.58,-138 2354.87,-134.689 2492.27,-130.381 2558.68,-128.273"/>
<polygon fill="midnightblue" stroke="midnightblue" points="2558.83,-131.771 2568.71,-127.955 2558.61,-124.774 2558.83,-131.771"/>
</g>
<!-- Node37&#45;&gt;Node14 -->
<g id="edge142" class="edge"><title>Node37&#45;&gt;Node14</title>
<path fill="none" stroke="midnightblue" d="M833.442,-174.319C856.422,-158.445 902.538,-129.094 946.579,-116 1046.79,-86.206 1371.28,-73.3859 1475.22,-69.9769"/>
<polygon fill="midnightblue" stroke="midnightblue" points="1475.53,-73.469 1485.41,-69.65 1475.3,-66.4726 1475.53,-73.469"/>
</g>
<!-- Node37&#45;&gt;Node16 -->
<g id="edge138" class="edge"><title>Node37&#45;&gt;Node16</title>
<path fill="none" stroke="midnightblue" d="M866.151,-175.066C868.995,-174.656 871.82,-174.294 874.579,-174 1304,-128.205 2385.94,-151.569 2817.58,-138 2895.91,-135.538 2988.08,-131.024 3034.92,-128.615"/>
<polygon fill="midnightblue" stroke="midnightblue" points="3035.2,-132.105 3045.01,-128.092 3034.84,-125.114 3035.2,-132.105"/>
</g>
<!-- Node37&#45;&gt;Node32 -->
<g id="edge140" class="edge"><title>Node37&#45;&gt;Node32</title>
<path fill="none" stroke="midnightblue" d="M803.906,-174.362C792.065,-165.777 775.194,-153.546 761.563,-143.664"/>
<polygon fill="midnightblue" stroke="midnightblue" points="763.31,-140.607 753.159,-137.571 759.201,-146.274 763.31,-140.607"/>
</g>
<!-- Node37&#45;&gt;Node34 -->
<g id="edge134" class="edge"><title>Node37&#45;&gt;Node34</title>
<path fill="none" stroke="midnightblue" d="M770.933,-180.521C650.813,-169.229 337.863,-139.811 234.933,-130.135"/>
<polygon fill="midnightblue" stroke="midnightblue" points="235.095,-126.635 224.812,-129.184 234.44,-133.605 235.095,-126.635"/>
</g>
<!-- Node38 -->
<g id="node95" class="node"><title>Node38</title>
<a xlink:href="bitflag_8h.html" target="_top" xlink:title="base/bitflag.h">
<polygon fill="white" stroke="black" points="787.079,-116.5 787.079,-137.5 862.079,-137.5 862.079,-116.5 787.079,-116.5"/>
<text text-anchor="middle" x="824.579" y="-124.5" font-family="Helvetica,sans-Serif" font-size="10.00">base/bitflag.h</text>
</a>
</g>
<!-- Node37&#45;&gt;Node38 -->
<g id="edge112" class="edge"><title>Node37&#45;&gt;Node38</title>
<path fill="none" stroke="midnightblue" d="M819.68,-174.362C820.449,-166.922 821.502,-156.743 822.435,-147.728"/>
<polygon fill="midnightblue" stroke="midnightblue" points="825.938,-147.878 823.486,-137.571 818.975,-147.157 825.938,-147.878"/>
</g>
<!-- Node40 -->
<g id="node99" class="node"><title>Node40</title>
<a xlink:href="vec3_8h.html" target="_top" xlink:title="base/vec/vec3.h">
<polygon fill="white" stroke="black" points="601.079,-116.5 601.079,-137.5 690.079,-137.5 690.079,-116.5 601.079,-116.5"/>
<text text-anchor="middle" x="645.579" y="-124.5" font-family="Helvetica,sans-Serif" font-size="10.00">base/vec/vec3.h</text>
</a>
</g>
<!-- Node37&#45;&gt;Node40 -->
<g id="edge116" class="edge"><title>Node37&#45;&gt;Node40</title>
<path fill="none" stroke="midnightblue" d="M787.25,-174.497C759.046,-165.041 717.412,-151.083 686.571,-140.743"/>
<polygon fill="midnightblue" stroke="midnightblue" points="687.561,-137.383 676.967,-137.523 685.336,-144.02 687.561,-137.383"/>
</g>
<!-- Node42 -->
<g id="node106" class="node"><title>Node42</title>
<a xlink:href="base_2std__ext_2math_8h.html" target="_top" xlink:title="base/std_ext/math.h">
<polygon fill="white" stroke="black" points="1053.58,-116.5 1053.58,-137.5 1159.58,-137.5 1159.58,-116.5 1053.58,-116.5"/>
<text text-anchor="middle" x="1106.58" y="-124.5" font-family="Helvetica,sans-Serif" font-size="10.00">base/std_ext/math.h</text>
</a>
</g>
<!-- Node37&#45;&gt;Node42 -->
<g id="edge126" class="edge"><title>Node37&#45;&gt;Node42</title>
<path fill="none" stroke="midnightblue" d="M866.136,-175.422C914.766,-165.629 990.555,-150.366 1044.02,-139.598"/>
<polygon fill="midnightblue" stroke="midnightblue" points="1044.96,-142.98 1054.07,-137.575 1043.58,-136.118 1044.96,-142.98"/>
</g>
<!-- Node39 -->
<g id="node97" class="node"><title>Node39</title>
<polygon fill="white" stroke="#bfbfbf" points="804.079,-58.5 804.079,-79.5 845.079,-79.5 845.079,-58.5 804.079,-58.5"/>
<text text-anchor="middle" x="824.579" y="-66.5" font-family="Helvetica,sans-Serif" font-size="10.00">bitset</text>
</g>
<!-- Node38&#45;&gt;Node39 -->
<g id="edge114" class="edge"><title>Node38&#45;&gt;Node39</title>
<path fill="none" stroke="midnightblue" d="M824.579,-116.362C824.579,-108.922 824.579,-98.7427 824.579,-89.7276"/>
<polygon fill="midnightblue" stroke="midnightblue" points="828.079,-89.5706 824.579,-79.5707 821.079,-89.5707 828.079,-89.5706"/>
</g>
<!-- Node40&#45;&gt;Node12 -->
<g id="edge124" class="edge"><title>Node40&#45;&gt;Node12</title>
<path fill="none" stroke="midnightblue" d="M654.297,-116.411C661.445,-107.265 671.363,-93.4392 677.579,-80 684.741,-64.5169 689.685,-45.7946 692.731,-31.7611"/>
<polygon fill="midnightblue" stroke="midnightblue" points="696.222,-32.1586 694.773,-21.6633 689.361,-30.7712 696.222,-32.1586"/>
</g>
<!-- Node40&#45;&gt;Node15 -->
<g id="edge122" class="edge"><title>Node40&#45;&gt;Node15</title>
<path fill="none" stroke="midnightblue" d="M690.111,-117.75C692.976,-117.157 695.818,-116.57 698.579,-116 766.799,-101.92 846.476,-85.5938 891.584,-76.3619"/>
<polygon fill="midnightblue" stroke="midnightblue" points="892.379,-79.7719 901.474,-74.3382 890.976,-72.914 892.379,-79.7719"/>
</g>
<!-- Node41 -->
<g id="node101" class="node"><title>Node41</title>
<a xlink:href="vec2_8h.html" target="_top" xlink:title="vec2.h">
<polygon fill="white" stroke="black" points="622.579,-58.5 622.579,-79.5 668.579,-79.5 668.579,-58.5 622.579,-58.5"/>
<text text-anchor="middle" x="645.579" y="-66.5" font-family="Helvetica,sans-Serif" font-size="10.00">vec2.h</text>
</a>
</g>
<!-- Node40&#45;&gt;Node41 -->
<g id="edge118" class="edge"><title>Node40&#45;&gt;Node41</title>
<path fill="none" stroke="midnightblue" d="M645.579,-116.362C645.579,-108.922 645.579,-98.7427 645.579,-89.7276"/>
<polygon fill="midnightblue" stroke="midnightblue" points="649.079,-89.5706 645.579,-79.5707 642.079,-89.5707 649.079,-89.5706"/>
</g>
<!-- Node41&#45;&gt;Node12 -->
<g id="edge120" class="edge"><title>Node41&#45;&gt;Node12</title>
<path fill="none" stroke="midnightblue" d="M654.933,-58.3619C662.122,-50.1861 672.22,-38.7025 680.672,-29.0907"/>
<polygon fill="midnightblue" stroke="midnightblue" points="683.309,-31.3916 687.284,-21.5707 678.052,-26.7692 683.309,-31.3916"/>
</g>
<!-- Node42&#45;&gt;Node9 -->
<g id="edge130" class="edge"><title>Node42&#45;&gt;Node9</title>
<path fill="none" stroke="midnightblue" d="M1159.72,-120.561C1174.84,-118.89 1191.35,-117.219 1206.58,-116 1562.8,-87.4995 1996.67,-73.3289 2113.44,-69.8597"/>
<polygon fill="midnightblue" stroke="midnightblue" points="2113.55,-73.3582 2123.44,-69.5659 2113.34,-66.3612 2113.55,-73.3582"/>
</g>
<!-- Node42&#45;&gt;Node12 -->
<g id="edge128" class="edge"><title>Node42&#45;&gt;Node12</title>
<path fill="none" stroke="midnightblue" d="M1101.39,-116.476C1093.05,-100.807 1075.08,-71.72 1050.58,-58 995.687,-27.2591 805.336,-15.7201 728.808,-12.258"/>
<polygon fill="midnightblue" stroke="midnightblue" points="728.933,-8.76025 718.791,-11.8219 728.629,-15.7536 728.933,-8.76025"/>
</g>
<!-- Node42&#45;&gt;Node14 -->
<g id="edge132" class="edge"><title>Node42&#45;&gt;Node14</title>
<path fill="none" stroke="midnightblue" d="M1159.59,-118.181C1164.32,-117.43 1169.03,-116.693 1173.58,-116 1284.16,-99.1437 1415.69,-81.273 1475.33,-73.288"/>
<polygon fill="midnightblue" stroke="midnightblue" points="1475.83,-76.7529 1485.27,-71.959 1474.9,-69.8145 1475.83,-76.7529"/>
</g>
<!-- Node43&#45;&gt;Node27 -->
<g id="edge150" class="edge"><title>Node43&#45;&gt;Node27</title>
<path fill="none" stroke="midnightblue" d="M205.664,-362.497C227.771,-352.856 260.609,-338.536 284.446,-328.141"/>
<polygon fill="midnightblue" stroke="midnightblue" points="285.967,-331.296 293.734,-324.09 283.168,-324.88 285.967,-331.296"/>
</g>
<!-- Node43&#45;&gt;Node28 -->
<g id="edge152" class="edge"><title>Node43&#45;&gt;Node28</title>
<path fill="none" stroke="midnightblue" d="M171.196,-362.085C151.024,-340.878 106.362,-293.925 81.7253,-268.026"/>
<polygon fill="midnightblue" stroke="midnightblue" points="84.1998,-265.549 74.7717,-260.715 79.1279,-270.373 84.1998,-265.549"/>
</g>
<!-- Node43&#45;&gt;Node33 -->
<g id="edge156" class="edge"><title>Node43&#45;&gt;Node33</title>
<path fill="none" stroke="midnightblue" d="M185.373,-362.354C196.176,-332.043 227.227,-244.914 241.386,-205.182"/>
<polygon fill="midnightblue" stroke="midnightblue" points="244.766,-206.124 244.826,-195.53 238.173,-203.774 244.766,-206.124"/>
</g>
<!-- Node43&#45;&gt;Node34 -->
<g id="edge154" class="edge"><title>Node43&#45;&gt;Node34</title>
<path fill="none" stroke="midnightblue" d="M142.599,-362.427C100.036,-348.561 34.0187,-319.694 4.57906,-268 -3.33891,-254.097 1.01123,-247.597 4.57906,-232 10.962,-204.096 10.6149,-192.356 32.5791,-174 53.1415,-156.816 125.301,-141.046 168.399,-132.868"/>
<polygon fill="midnightblue" stroke="midnightblue" points="169.23,-136.273 178.421,-131.003 167.95,-129.391 169.23,-136.273"/>
</g>
<!-- Node44&#45;&gt;Node15 -->
<g id="edge166" class="edge"><title>Node44&#45;&gt;Node15</title>
<path fill="none" stroke="midnightblue" d="M938.472,-174.295C936.489,-155.131 932.302,-114.654 929.735,-89.8434"/>
<polygon fill="midnightblue" stroke="midnightblue" points="933.194,-89.2659 928.684,-79.6792 926.231,-89.9863 933.194,-89.2659"/>
</g>
<!-- Node45 -->
<g id="node126" class="node"><title>Node45</title>
<a xlink:href="_format_8h.html" target="_top" xlink:title="base/Format.h">
<polygon fill="white" stroke="black" points="955.579,-116.5 955.579,-137.5 1035.58,-137.5 1035.58,-116.5 955.579,-116.5"/>
<text text-anchor="middle" x="995.579" y="-124.5" font-family="Helvetica,sans-Serif" font-size="10.00">base/Format.h</text>
</a>
</g>
<!-- Node44&#45;&gt;Node45 -->
<g id="edge160" class="edge"><title>Node44&#45;&gt;Node45</title>
<path fill="none" stroke="midnightblue" d="M949.85,-174.362C957.823,-166.104 969.054,-154.472 978.39,-144.803"/>
<polygon fill="midnightblue" stroke="midnightblue" points="980.945,-147.196 985.373,-137.571 975.909,-142.334 980.945,-147.196"/>
</g>
<!-- Node45&#45;&gt;Node14 -->
<g id="edge164" class="edge"><title>Node45&#45;&gt;Node14</title>
<path fill="none" stroke="midnightblue" d="M1035.61,-117.603C1038.64,-117.018 1041.65,-116.475 1044.58,-116 1204.96,-89.953 1399.09,-75.8246 1474.97,-70.9633"/>
<polygon fill="midnightblue" stroke="midnightblue" points="1475.53,-74.4351 1485.29,-70.313 1475.09,-67.449 1475.53,-74.4351"/>
</g>
<!-- Node46 -->
<g id="node128" class="node"><title>Node46</title>
<polygon fill="white" stroke="#bfbfbf" points="971.579,-58.5 971.579,-79.5 1041.58,-79.5 1041.58,-58.5 971.579,-58.5"/>
<text text-anchor="middle" x="1006.58" y="-66.5" font-family="Helvetica,sans-Serif" font-size="10.00">fmt/format.h</text>
</g>
<!-- Node45&#45;&gt;Node46 -->
<g id="edge162" class="edge"><title>Node45&#45;&gt;Node46</title>
<path fill="none" stroke="midnightblue" d="M997.597,-116.362C999.023,-108.84 1000.98,-98.5187 1002.7,-89.4308"/>
<polygon fill="midnightblue" stroke="midnightblue" points="1006.15,-90.0477 1004.57,-79.5707 999.272,-88.7433 1006.15,-90.0477"/>
</g>
<!-- Node47&#45;&gt;Node11 -->
<g id="edge180" class="edge"><title>Node47&#45;&gt;Node11</title>
<path fill="none" stroke="midnightblue" d="M603.604,-370.71C686.625,-364.362 892.375,-341.808 1045.58,-268 1116.25,-233.953 1188.34,-174.335 1222,-144.727"/>
<polygon fill="midnightblue" stroke="midnightblue" points="1224.56,-147.137 1229.71,-137.879 1219.91,-141.904 1224.56,-147.137"/>
</g>
<!-- Node47&#45;&gt;Node14 -->
<g id="edge176" class="edge"><title>Node47&#45;&gt;Node14</title>
<path fill="none" stroke="midnightblue" d="M557.708,-362.142C550.78,-353.053 541.526,-339.445 536.579,-326 513.218,-262.513 501.163,-235.845 528.579,-174 544.136,-138.906 557.13,-130.729 592.579,-116 634.13,-98.7358 1317.23,-75.267 1475.17,-70.0539"/>
<polygon fill="midnightblue" stroke="midnightblue" points="1475.33,-73.5506 1485.21,-69.7238 1475.1,-66.5544 1475.33,-73.5506"/>
</g>
<!-- Node47&#45;&gt;Node27 -->
<g id="edge170" class="edge"><title>Node47&#45;&gt;Node27</title>
<path fill="none" stroke="midnightblue" d="M529.396,-364.442C479.373,-352.929 391.351,-332.67 345.036,-322.01"/>
<polygon fill="midnightblue" stroke="midnightblue" points="345.808,-318.596 335.278,-319.764 344.238,-325.418 345.808,-318.596"/>
</g>
<!-- Node47&#45;&gt;Node35 -->
<g id="edge178" class="edge"><title>Node47&#45;&gt;Node35</title>
<path fill="none" stroke="midnightblue" d="M559.296,-362.372C553.481,-353.201 545.793,-339.362 542.579,-326 537.607,-305.328 538.61,-259.894 547.579,-232 550.735,-222.185 556.356,-212.323 561.815,-204.185"/>
<polygon fill="midnightblue" stroke="midnightblue" points="564.819,-206 567.769,-195.824 559.117,-201.939 564.819,-206"/>
</g>
<!-- Node48 -->
<g id="node135" class="node"><title>Node48</title>
<a xlink:href="_lorentz_vec_8h.html" target="_top" xlink:title="base/vec/LorentzVec.h">
<polygon fill="white" stroke="black" points="551.079,-304.5 551.079,-325.5 668.079,-325.5 668.079,-304.5 551.079,-304.5"/>
<text text-anchor="middle" x="609.579" y="-312.5" font-family="Helvetica,sans-Serif" font-size="10.00">base/vec/LorentzVec.h</text>
</a>
</g>
<!-- Node47&#45;&gt;Node48 -->
<g id="edge172" class="edge"><title>Node47&#45;&gt;Node48</title>
<path fill="none" stroke="midnightblue" d="M574.466,-362.362C580.406,-354.35 588.701,-343.161 595.738,-333.67"/>
<polygon fill="midnightblue" stroke="midnightblue" points="598.598,-335.688 601.742,-325.571 592.975,-331.519 598.598,-335.688"/>
</g>
<!-- Node48&#45;&gt;Node40 -->
<g id="edge174" class="edge"><title>Node48&#45;&gt;Node40</title>
<path fill="none" stroke="midnightblue" d="M587.242,-304.351C573.269,-296.413 556.317,-284.158 547.579,-268 527.678,-231.2 519.955,-209.192 542.579,-174 553.577,-156.893 572.509,-145.937 591.166,-138.954"/>
<polygon fill="midnightblue" stroke="midnightblue" points="592.517,-142.191 600.854,-135.653 590.26,-135.565 592.517,-142.191"/>
</g>
<!-- Node49&#45;&gt;Node6 -->
<g id="edge184" class="edge"><title>Node49&#45;&gt;Node6</title>
<path fill="none" stroke="midnightblue" d="M2423.64,-239.36C2417.2,-236.734 2410.19,-234.081 2403.58,-232 2334.05,-210.125 2301.85,-239.783 2243.58,-196 2227.59,-183.986 2217.47,-163.179 2211.73,-147.547"/>
<polygon fill="midnightblue" stroke="midnightblue" points="2214.93,-146.093 2208.43,-137.724 2208.29,-148.317 2214.93,-146.093"/>
</g>
<!-- Node49&#45;&gt;Node9 -->
<g id="edge188" class="edge"><title>Node49&#45;&gt;Node9</title>
<path fill="none" stroke="midnightblue" d="M2416.77,-241.279C2405.7,-238.231 2393.11,-234.859 2381.58,-232 2310.41,-214.349 2283.1,-234.307 2220.58,-196 2180.83,-171.645 2158.82,-118.347 2149.32,-89.1345"/>
<polygon fill="midnightblue" stroke="midnightblue" points="2152.66,-88.0897 2146.37,-79.5601 2145.97,-90.1471 2152.66,-88.0897"/>
</g>
<!-- Node49&#45;&gt;Node14 -->
<g id="edge186" class="edge"><title>Node49&#45;&gt;Node14</title>
<path fill="none" stroke="midnightblue" d="M2421.53,-239.323C2415.63,-236.91 2409.39,-234.364 2403.58,-232 2364.06,-215.922 2349.85,-220.012 2314.58,-196 2274.04,-168.402 2283,-136.783 2238.58,-116 2174.79,-86.1534 1674.04,-72.7679 1540.31,-69.7038"/>
<polygon fill="midnightblue" stroke="midnightblue" points="1540,-66.1959 1529.92,-69.4697 1539.84,-73.1941 1540,-66.1959"/>
</g>
<!-- Node49&#45;&gt;Node19 -->
<g id="edge190" class="edge"><title>Node49&#45;&gt;Node19</title>
<path fill="none" stroke="midnightblue" d="M2416.98,-242.377C2401.63,-238.785 2382.71,-234.706 2365.58,-232 2200.06,-205.859 2000.12,-191.934 1919.68,-187.048"/>
<polygon fill="midnightblue" stroke="midnightblue" points="1919.77,-183.548 1909.58,-186.445 1919.35,-190.535 1919.77,-183.548"/>
</g>
<!-- Node50&#45;&gt;Node6 -->
<g id="edge194" class="edge"><title>Node50&#45;&gt;Node6</title>
<path fill="none" stroke="midnightblue" d="M1473.03,-304.254C1477.43,-287.04 1488.21,-253.084 1508.58,-232 1548.63,-190.549 1569.06,-189.496 1624.58,-174 1728.46,-145.005 2062.14,-131.711 2170.93,-128.072"/>
<polygon fill="midnightblue" stroke="midnightblue" points="2171.15,-131.567 2181.03,-127.741 2170.92,-124.571 2171.15,-131.567"/>
</g>
<!-- Node50&#45;&gt;Node18 -->
<g id="edge200" class="edge"><title>Node50&#45;&gt;Node18</title>
<path fill="none" stroke="midnightblue" d="M1500.38,-313.749C1612.65,-308.902 2010.05,-290.506 2134.58,-268 2146.77,-265.797 2159.98,-262.07 2170.99,-258.576"/>
<polygon fill="midnightblue" stroke="midnightblue" points="2172.35,-261.811 2180.76,-255.356 2170.16,-255.163 2172.35,-261.811"/>
</g>
<!-- Node50&#45;&gt;Node19 -->
<g id="edge202" class="edge"><title>Node50&#45;&gt;Node19</title>
<path fill="none" stroke="midnightblue" d="M1500.33,-311.025C1537.59,-305.236 1602.71,-292.411 1653.58,-268 1677.62,-256.462 1677.55,-243.554 1701.58,-232 1749.3,-209.06 1809.64,-196.319 1847.43,-190.064"/>
<polygon fill="midnightblue" stroke="midnightblue" points="1848.14,-193.495 1857.46,-188.468 1847.04,-186.582 1848.14,-193.495"/>
</g>
<!-- Node50&#45;&gt;Node40 -->
<g id="edge198" class="edge"><title>Node50&#45;&gt;Node40</title>
<path fill="none" stroke="midnightblue" d="M1440.94,-312.469C1319.45,-301.761 859.946,-257.864 729.579,-196 703.299,-183.529 678.214,-161.063 662.412,-145.158"/>
<polygon fill="midnightblue" stroke="midnightblue" points="664.503,-142.285 655.037,-137.526 659.47,-147.149 664.503,-142.285"/>
</g>
<!-- Node50&#45;&gt;Node42 -->
<g id="edge196" class="edge"><title>Node50&#45;&gt;Node42</title>
<path fill="none" stroke="midnightblue" d="M1440.91,-312.327C1400.84,-307.767 1328.06,-296.083 1272.58,-268 1209.67,-236.156 1150.33,-175.893 1122.74,-145.507"/>
<polygon fill="midnightblue" stroke="midnightblue" points="1125.1,-142.895 1115.83,-137.777 1119.89,-147.563 1125.1,-142.895"/>
</g>
<!-- Node51&#45;&gt;Node11 -->
<g id="edge230" class="edge"><title>Node51&#45;&gt;Node11</title>
<path fill="none" stroke="midnightblue" d="M860.754,-306.959C906.693,-295.036 988.565,-273.486 1001.58,-268 1001.76,-267.926 1151.97,-179.658 1214.63,-142.836"/>
<polygon fill="midnightblue" stroke="midnightblue" points="1216.71,-145.675 1223.56,-137.591 1213.16,-139.64 1216.71,-145.675"/>
</g>
<!-- Node51&#45;&gt;Node12 -->
<g id="edge226" class="edge"><title>Node51&#45;&gt;Node12</title>
<path fill="none" stroke="midnightblue" d="M798.239,-308.98C756.667,-300.503 686.139,-284.259 665.579,-268 659.082,-262.862 594.675,-146.013 592.579,-138 583.277,-102.436 589.856,-86.0809 613.579,-58 627.068,-42.0326 647.434,-30.3847 664.616,-22.6786"/>
<polygon fill="midnightblue" stroke="midnightblue" points="666.438,-25.7087 674.288,-18.5941 663.714,-19.2601 666.438,-25.7087"/>
</g>
<!-- Node51&#45;&gt;Node14 -->
<g id="edge224" class="edge"><title>Node51&#45;&gt;Node14</title>
<path fill="none" stroke="midnightblue" d="M856.39,-304.421C878.69,-295.389 911.108,-281.718 938.579,-268 967.431,-253.593 973.527,-247.909 1001.58,-232 1075.67,-189.982 1094.61,-180.227 1168.58,-138 1185.53,-128.325 1188.18,-122.505 1206.58,-116 1300.51,-82.7912 1419.17,-73.0066 1475.32,-70.1545"/>
<polygon fill="midnightblue" stroke="midnightblue" points="1475.54,-73.6477 1485.37,-69.685 1475.22,-66.6554 1475.54,-73.6477"/>
</g>
<!-- Node51&#45;&gt;Node19 -->
<g id="edge232" class="edge"><title>Node51&#45;&gt;Node19</title>
<path fill="none" stroke="midnightblue" d="M860.768,-314.524C998.813,-312.234 1551.09,-301.062 1620.58,-268 1640.18,-258.675 1634.69,-242.694 1653.58,-232 1686.23,-213.512 1790.9,-197.304 1847.1,-189.661"/>
<polygon fill="midnightblue" stroke="midnightblue" points="1847.88,-193.088 1857.33,-188.292 1846.95,-186.15 1847.88,-193.088"/>
</g>
<!-- Node51&#45;&gt;Node35 -->
<g id="edge228" class="edge"><title>Node51&#45;&gt;Node35</title>
<path fill="none" stroke="midnightblue" d="M798.341,-311.005C747.809,-304.035 651.018,-288.426 623.579,-268 602.509,-252.314 589.505,-224.2 582.661,-205.082"/>
<polygon fill="midnightblue" stroke="midnightblue" points="585.958,-203.906 579.48,-195.522 579.316,-206.116 585.958,-203.906"/>
</g>
<!-- Node51&#45;&gt;Node36 -->
<g id="edge206" class="edge"><title>Node51&#45;&gt;Node36</title>
<path fill="none" stroke="midnightblue" d="M817.359,-304.267C805.937,-294.233 788.683,-279.078 775.31,-267.331"/>
<polygon fill="midnightblue" stroke="midnightblue" points="777.394,-264.504 767.571,-260.534 772.775,-269.763 777.394,-264.504"/>
</g>
<!-- Node51&#45;&gt;Node37 -->
<g id="edge208" class="edge"><title>Node51&#45;&gt;Node37</title>
<path fill="none" stroke="midnightblue" d="M828.679,-304.362C826.866,-282.936 822.746,-234.24 820.366,-206.114"/>
<polygon fill="midnightblue" stroke="midnightblue" points="823.822,-205.455 819.492,-195.785 816.847,-206.045 823.822,-205.455"/>
</g>
<!-- Node51&#45;&gt;Node40 -->
<g id="edge222" class="edge"><title>Node51&#45;&gt;Node40</title>
<path fill="none" stroke="midnightblue" d="M798.421,-311.935C768.08,-307.352 722.561,-295.998 694.579,-268 661.603,-235.005 650.775,-178.699 647.252,-148.177"/>
<polygon fill="midnightblue" stroke="midnightblue" points="650.697,-147.45 646.228,-137.844 643.731,-148.14 650.697,-147.45"/>
</g>
<!-- Node51&#45;&gt;Node42 -->
<g id="edge210" class="edge"><title>Node51&#45;&gt;Node42</title>
<path fill="none" stroke="midnightblue" d="M845.265,-304.354C891.449,-273.009 1027.16,-180.903 1082.58,-143.286"/>
<polygon fill="midnightblue" stroke="midnightblue" points="1084.76,-146.041 1091.06,-137.53 1080.82,-140.249 1084.76,-146.041"/>
</g>
<!-- Node52 -->
<g id="node159" class="node"><title>Node52</title>
<a xlink:href="shared__ptr__container_8h.html" target="_top" xlink:title="base/std_ext/shared\l_ptr_container.h">
<polygon fill="white" stroke="black" points="1281.08,-233 1281.08,-267 1386.08,-267 1386.08,-233 1281.08,-233"/>
<text text-anchor="start" x="1289.08" y="-254" font-family="Helvetica,sans-Serif" font-size="10.00">base/std_ext/shared</text>
<text text-anchor="middle" x="1333.58" y="-241" font-family="Helvetica,sans-Serif" font-size="10.00">_ptr_container.h</text>
</a>
</g>
<!-- Node51&#45;&gt;Node52 -->
<g id="edge212" class="edge"><title>Node51&#45;&gt;Node52</title>
<path fill="none" stroke="midnightblue" d="M860.726,-310.983C942.019,-300.499 1161.83,-272.15 1270.71,-258.108"/>
<polygon fill="midnightblue" stroke="midnightblue" points="1271.42,-261.545 1280.89,-256.795 1270.53,-254.603 1271.42,-261.545"/>
</g>
<!-- Node52&#45;&gt;Node7 -->
<g id="edge220" class="edge"><title>Node52&#45;&gt;Node7</title>
<path fill="none" stroke="midnightblue" d="M1385.36,-232.948C1418.55,-221.441 1458.04,-206.496 1472.58,-196 1491.25,-182.515 1507.41,-161.512 1517.71,-146.219"/>
<polygon fill="midnightblue" stroke="midnightblue" points="1520.82,-147.846 1523.33,-137.553 1514.95,-144.036 1520.82,-147.846"/>
</g>
<!-- Node52&#45;&gt;Node14 -->
<g id="edge214" class="edge"><title>Node52&#45;&gt;Node14</title>
<path fill="none" stroke="midnightblue" d="M1332.73,-232.887C1332.74,-216.485 1334.97,-191.678 1346.58,-174 1377.77,-126.505 1438.7,-95.737 1476.01,-80.4578"/>
<polygon fill="midnightblue" stroke="midnightblue" points="1477.4,-83.6714 1485.41,-76.7318 1474.82,-77.1643 1477.4,-83.6714"/>
</g>
<!-- Node52&#45;&gt;Node19 -->
<g id="edge216" class="edge"><title>Node52&#45;&gt;Node19</title>
<path fill="none" stroke="midnightblue" d="M1386.32,-243.768C1497.36,-230.644 1752.83,-200.452 1847.46,-189.269"/>
<polygon fill="midnightblue" stroke="midnightblue" points="1847.89,-192.742 1857.41,-188.093 1847.07,-185.791 1847.89,-192.742"/>
</g>
<!-- Node52&#45;&gt;Node20 -->
<g id="edge218" class="edge"><title>Node52&#45;&gt;Node20</title>
<path fill="none" stroke="midnightblue" d="M1386.35,-243.723C1421.04,-239.807 1467.45,-234.963 1508.58,-232 1894.58,-204.189 1992.21,-217.969 2378.58,-196 2416.62,-193.837 2459.97,-190.626 2490.61,-188.231"/>
<polygon fill="midnightblue" stroke="midnightblue" points="2491.19,-191.696 2500.89,-187.421 2490.64,-184.718 2491.19,-191.696"/>
</g>
<!-- Node53&#45;&gt;Node7 -->
<g id="edge248" class="edge"><title>Node53&#45;&gt;Node7</title>
<path fill="none" stroke="midnightblue" d="M1214.19,-362.456C1280.26,-341.587 1419.8,-288.821 1497.58,-196 1509.59,-181.666 1518.11,-162.074 1523.32,-147.429"/>
<polygon fill="midnightblue" stroke="midnightblue" points="1526.69,-148.378 1526.53,-137.785 1520.05,-146.166 1526.69,-148.378"/>
</g>
<!-- Node53&#45;&gt;Node11 -->
<g id="edge244" class="edge"><title>Node53&#45;&gt;Node11</title>
<path fill="none" stroke="midnightblue" d="M1180.33,-362.43C1190.09,-324.896 1223.21,-197.604 1236.25,-147.502"/>
<polygon fill="midnightblue" stroke="midnightblue" points="1239.71,-148.09 1238.84,-137.531 1232.93,-146.328 1239.71,-148.09"/>
</g>
<!-- Node53&#45;&gt;Node14 -->
<g id="edge240" class="edge"><title>Node53&#45;&gt;Node14</title>
<path fill="none" stroke="midnightblue" d="M1184.02,-362.396C1198.72,-338.433 1236.3,-278.567 1272.58,-232 1315.14,-177.38 1319.13,-154.649 1376.58,-116 1406.98,-95.55 1447.32,-82.8366 1475.17,-75.8692"/>
<polygon fill="midnightblue" stroke="midnightblue" points="1476.27,-79.2048 1485.18,-73.4761 1474.64,-72.3966 1476.27,-79.2048"/>
</g>
<!-- Node53&#45;&gt;Node19 -->
<g id="edge246" class="edge"><title>Node53&#45;&gt;Node19</title>
<path fill="none" stroke="midnightblue" d="M1215.18,-369.711C1276.96,-363.85 1403.6,-349.915 1508.58,-326 1591.77,-307.049 1615.71,-307.037 1691.58,-268 1715.29,-255.799 1715.92,-244.302 1739.58,-232 1774.33,-213.931 1817.39,-200.978 1847.32,-193.304"/>
<polygon fill="midnightblue" stroke="midnightblue" points="1848.47,-196.625 1857.33,-190.81 1846.78,-189.833 1848.47,-196.625"/>
</g>
<!-- Node53&#45;&gt;Node35 -->
<g id="edge242" class="edge"><title>Node53&#45;&gt;Node35</title>
<path fill="none" stroke="midnightblue" d="M1139.86,-369.23C1055.97,-360.717 856.126,-339.68 789.579,-326 767.124,-321.384 606.906,-285.047 591.579,-268 576.428,-251.148 574.113,-224.339 574.652,-205.77"/>
<polygon fill="midnightblue" stroke="midnightblue" points="578.153,-205.869 575.246,-195.681 571.165,-205.458 578.153,-205.869"/>
</g>
<!-- Node53&#45;&gt;Node37 -->
<g id="edge238" class="edge"><title>Node53&#45;&gt;Node37</title>
<path fill="none" stroke="midnightblue" d="M1157.51,-362.489C1097.43,-331.028 918.809,-237.488 847.984,-200.399"/>
<polygon fill="midnightblue" stroke="midnightblue" points="849.212,-197.091 838.73,-195.552 845.965,-203.292 849.212,-197.091"/>
</g>
<!-- Node53&#45;&gt;Node51 -->
<g id="edge236" class="edge"><title>Node53&#45;&gt;Node51</title>
<path fill="none" stroke="midnightblue" d="M1140.01,-366.738C1074.31,-355.788 939.071,-333.249 870.855,-321.879"/>
<polygon fill="midnightblue" stroke="midnightblue" points="871.338,-318.412 860.898,-320.22 870.187,-325.316 871.338,-318.412"/>
</g>
<!-- Node54&#45;&gt;Node6 -->
<g id="edge254" class="edge"><title>Node54&#45;&gt;Node6</title>
<path fill="none" stroke="midnightblue" d="M1861.65,-420.962C1956.17,-391.057 2228.56,-302.503 2251.58,-268 2260.46,-254.691 2257.15,-247 2251.58,-232 2244.23,-212.205 2230,-214.896 2220.58,-196 2213.07,-180.937 2209.3,-162.184 2207.42,-148.032"/>
<polygon fill="midnightblue" stroke="midnightblue" points="2210.87,-147.377 2206.28,-137.827 2203.91,-148.154 2210.87,-147.377"/>
</g>
<!-- Node54&#45;&gt;Node14 -->
<g id="edge298" class="edge"><title>Node54&#45;&gt;Node14</title>
<path fill="none" stroke="midnightblue" d="M1797.33,-425.885C1729.54,-413.2 1573.23,-373.34 1508.58,-268 1479.42,-220.488 1562.84,-151.164 1566.58,-138 1569.25,-128.593 1570.82,-124.808 1566.58,-116 1560.37,-103.121 1548.73,-92.6785 1537.42,-84.9373"/>
<polygon fill="midnightblue" stroke="midnightblue" points="1539.24,-81.9513 1528.92,-79.5484 1535.49,-87.8617 1539.24,-81.9513"/>
</g>
<!-- Node54&#45;&gt;Node18 -->
<g id="edge300" class="edge"><title>Node54&#45;&gt;Node18</title>
<path fill="none" stroke="midnightblue" d="M1854.28,-420.335C1910.83,-395.651 2053.6,-331.805 2167.58,-268 2169.1,-267.146 2170.66,-266.243 2172.22,-265.313"/>
<polygon fill="midnightblue" stroke="midnightblue" points="2174.32,-268.127 2180.96,-259.872 2170.62,-262.183 2174.32,-268.127"/>
</g>
<!-- Node54&#45;&gt;Node19 -->
<g id="edge304" class="edge"><title>Node54&#45;&gt;Node19</title>
<path fill="none" stroke="midnightblue" d="M1823.8,-420.164C1819.19,-410.868 1813.1,-396.959 1810.58,-384 1808.71,-374.402 1808.68,-371.591 1810.58,-362 1822.47,-301.979 1855,-236.759 1872.35,-204.849"/>
<polygon fill="midnightblue" stroke="midnightblue" points="1875.62,-206.154 1877.4,-195.709 1869.5,-202.768 1875.62,-206.154"/>
</g>
<!-- Node54&#45;&gt;Node48 -->
<g id="edge296" class="edge"><title>Node54&#45;&gt;Node48</title>
<path fill="none" stroke="midnightblue" d="M1797.52,-429.538C1698.35,-424.867 1387.84,-409.118 1131.58,-384 930.886,-364.328 881.263,-354.118 681.579,-326 680.483,-325.846 679.379,-325.689 678.266,-325.531"/>
<polygon fill="midnightblue" stroke="midnightblue" points="678.51,-322.029 668.111,-324.06 677.506,-328.957 678.51,-322.029"/>
</g>
<!-- Node54&#45;&gt;Node53 -->
<g id="edge252" class="edge"><title>Node54&#45;&gt;Node53</title>
<path fill="none" stroke="midnightblue" d="M1797.25,-428.124C1690.9,-418.664 1351.59,-388.48 1225.43,-377.256"/>
<polygon fill="midnightblue" stroke="midnightblue" points="1225.57,-373.756 1215.3,-376.356 1224.95,-380.728 1225.57,-373.756"/>
</g>
<!-- Node55 -->
<g id="node184" class="node"><title>Node55</title>
<a xlink:href="_particle_type_8h.html" target="_top" xlink:title="base/ParticleType.h">
<polygon fill="white" stroke="black" points="2495.58,-239.5 2495.58,-260.5 2599.58,-260.5 2599.58,-239.5 2495.58,-239.5"/>
<text text-anchor="middle" x="2547.58" y="-247.5" font-family="Helvetica,sans-Serif" font-size="10.00">base/ParticleType.h</text>
</a>
</g>
<!-- Node54&#45;&gt;Node55 -->
<g id="edge256" class="edge"><title>Node54&#45;&gt;Node55</title>
<path fill="none" stroke="midnightblue" d="M1861.58,-429.355C1952.72,-424.419 2212.29,-408.542 2293.58,-384 2384.7,-356.489 2481.18,-295.483 2524.35,-266.243"/>
<polygon fill="midnightblue" stroke="midnightblue" points="2526.45,-269.045 2532.73,-260.509 2522.5,-263.268 2526.45,-269.045"/>
</g>
<!-- Node58 -->
<g id="node195" class="node"><title>Node58</title>
<a xlink:href="_tree_8h.html" target="_top" xlink:title="base/Tree.h">
<polygon fill="white" stroke="black" points="1898.58,-304.5 1898.58,-325.5 1966.58,-325.5 1966.58,-304.5 1898.58,-304.5"/>
<text text-anchor="middle" x="1932.58" y="-312.5" font-family="Helvetica,sans-Serif" font-size="10.00">base/Tree.h</text>
</a>
</g>
<!-- Node54&#45;&gt;Node58 -->
<g id="edge272" class="edge"><title>Node54&#45;&gt;Node58</title>
<path fill="none" stroke="midnightblue" d="M1843.39,-420.165C1854.55,-411.089 1870.36,-397.488 1882.58,-384 1896.76,-368.353 1910.67,-348.704 1920.2,-334.38"/>
<polygon fill="midnightblue" stroke="midnightblue" points="1923.25,-336.116 1925.8,-325.832 1917.39,-332.284 1923.25,-336.116"/>
</g>
<!-- Node64 -->
<g id="node216" class="node"><title>Node64</title>
<polygon fill="white" stroke="#bfbfbf" points="1819.58,-362.5 1819.58,-383.5 1873.58,-383.5 1873.58,-362.5 1819.58,-362.5"/>
<text text-anchor="middle" x="1846.58" y="-370.5" font-family="Helvetica,sans-Serif" font-size="10.00">iostream</text>
</g>
<!-- Node54&#45;&gt;Node64 -->
<g id="edge302" class="edge"><title>Node54&#45;&gt;Node64</title>
<path fill="none" stroke="midnightblue" d="M1832.7,-420.362C1834.9,-412.84 1837.93,-402.519 1840.59,-393.431"/>
<polygon fill="midnightblue" stroke="midnightblue" points="1844.03,-394.151 1843.48,-383.571 1837.31,-392.182 1844.03,-394.151"/>
</g>
<!-- Node55&#45;&gt;Node5 -->
<g id="edge260" class="edge"><title>Node55&#45;&gt;Node5</title>
<path fill="none" stroke="midnightblue" d="M2571.36,-239.412C2595.54,-228.647 2633.21,-211.878 2660.33,-199.801"/>
<polygon fill="midnightblue" stroke="midnightblue" points="2662.09,-202.848 2669.81,-195.584 2659.25,-196.453 2662.09,-202.848"/>
</g>
<!-- Node55&#45;&gt;Node6 -->
<g id="edge258" class="edge"><title>Node55&#45;&gt;Node6</title>
<path fill="none" stroke="midnightblue" d="M2521.29,-239.343C2495.64,-228.804 2455.62,-211.979 2421.58,-196 2402.15,-186.878 2398.6,-181.745 2378.58,-174 2331.82,-155.911 2275.4,-141.977 2240,-134.131"/>
<polygon fill="midnightblue" stroke="midnightblue" points="2240.67,-130.696 2230.16,-131.987 2239.18,-137.536 2240.67,-130.696"/>
</g>
<!-- Node55&#45;&gt;Node14 -->
<g id="edge270" class="edge"><title>Node55&#45;&gt;Node14</title>
<path fill="none" stroke="midnightblue" d="M2534.12,-239.403C2499.38,-212.766 2402.9,-143.203 2309.58,-116 2234.87,-94.2219 1680.85,-74.6937 1540.05,-70.0453"/>
<polygon fill="midnightblue" stroke="midnightblue" points="1540.01,-66.5422 1529.9,-69.7125 1539.78,-73.5385 1540.01,-66.5422"/>
</g>
<!-- Node55&#45;&gt;Node15 -->
<g id="edge264" class="edge"><title>Node55&#45;&gt;Node15</title>
<path fill="none" stroke="midnightblue" d="M2513.51,-239.421C2504.77,-236.852 2495.36,-234.21 2486.58,-232 2410.84,-212.933 2382.79,-234.037 2314.58,-196 2271.75,-172.115 2283.37,-135.98 2238.58,-116 2111.64,-59.3717 1142.41,-101.715 963.71,-79.5248"/>
<polygon fill="midnightblue" stroke="midnightblue" points="964.161,-76.0537 953.762,-78.0827 963.156,-82.9813 964.161,-76.0537"/>
</g>
<!-- Node55&#45;&gt;Node16 -->
<g id="edge262" class="edge"><title>Node55&#45;&gt;Node16</title>
<path fill="none" stroke="midnightblue" d="M2530.28,-239.328C2507.59,-224.055 2472.82,-195.441 2492.58,-174 2511.13,-153.868 2918.75,-133.722 3034.93,-128.373"/>
<polygon fill="midnightblue" stroke="midnightblue" points="3035.11,-131.868 3044.94,-127.916 3034.79,-124.876 3035.11,-131.868"/>
</g>
<!-- Node55&#45;&gt;Node56 -->
<g id="edge266" class="edge"><title>Node55&#45;&gt;Node56</title>
<path fill="none" stroke="midnightblue" d="M2599.59,-239.67C2614.7,-236.906 2631.26,-234.105 2646.58,-232 2826.35,-207.289 3044.16,-191.779 3120.51,-186.772"/>
<polygon fill="midnightblue" stroke="midnightblue" points="3120.98,-190.25 3130.73,-186.11 3120.52,-183.264 3120.98,-190.25"/>
</g>
<!-- Node57 -->
<g id="node192" class="node"><title>Node57</title>
<polygon fill="white" stroke="#bfbfbf" points="2323.08,-174.5 2323.08,-195.5 2370.08,-195.5 2370.08,-174.5 2323.08,-174.5"/>
<text text-anchor="middle" x="2346.58" y="-182.5" font-family="Helvetica,sans-Serif" font-size="10.00">iterator</text>
</g>
<!-- Node55&#45;&gt;Node57 -->
<g id="edge268" class="edge"><title>Node55&#45;&gt;Node57</title>
<path fill="none" stroke="midnightblue" d="M2514.84,-239.412C2477.72,-227.41 2417.53,-207.945 2380.1,-195.84"/>
<polygon fill="midnightblue" stroke="midnightblue" points="2380.78,-192.38 2370.18,-192.633 2378.62,-199.04 2380.78,-192.38"/>
</g>
<!-- Node58&#45;&gt;Node7 -->
<g id="edge288" class="edge"><title>Node58&#45;&gt;Node7</title>
<path fill="none" stroke="midnightblue" d="M1966.8,-313.269C2035.54,-308.514 2180.09,-291.344 2134.58,-232 2099.64,-186.438 1695.02,-143.197 1567.69,-130.64"/>
<polygon fill="midnightblue" stroke="midnightblue" points="1567.92,-127.146 1557.62,-129.655 1567.24,-134.113 1567.92,-127.146"/>
</g>
<!-- Node58&#45;&gt;Node14 -->
<g id="edge286" class="edge"><title>Node58&#45;&gt;Node14</title>
<path fill="none" stroke="midnightblue" d="M1917.81,-304.328C1873.9,-272.876 1739.69,-178.812 1619.58,-116 1593.37,-102.296 1562.27,-89.5009 1539.49,-80.7322"/>
<polygon fill="midnightblue" stroke="midnightblue" points="1540.56,-77.3953 1529.97,-77.1139 1538.08,-83.9386 1540.56,-77.3953"/>
</g>
<!-- Node58&#45;&gt;Node18 -->
<g id="edge284" class="edge"><title>Node58&#45;&gt;Node18</title>
<path fill="none" stroke="midnightblue" d="M1966.8,-312.184C2013.59,-307.444 2099.5,-295.536 2167.58,-268 2169.2,-267.345 2170.83,-266.593 2172.44,-265.776"/>
<polygon fill="midnightblue" stroke="midnightblue" points="2174.43,-268.667 2181.32,-260.618 2170.92,-262.614 2174.43,-268.667"/>
</g>
<!-- Node58&#45;&gt;Node19 -->
<g id="edge282" class="edge"><title>Node58&#45;&gt;Node19</title>
<path fill="none" stroke="midnightblue" d="M1917.14,-304.204C1906.43,-295.73 1892.97,-282.899 1886.58,-268 1878.09,-248.217 1878.48,-223.28 1880.28,-205.928"/>
<polygon fill="midnightblue" stroke="midnightblue" points="1883.79,-206.116 1881.59,-195.751 1876.85,-205.223 1883.79,-206.116"/>
</g>
<!-- Node58&#45;&gt;Node32 -->
<g id="edge294" class="edge"><title>Node58&#45;&gt;Node32</title>
<path fill="none" stroke="midnightblue" d="M1898.5,-313.407C1800.84,-308.661 1511.61,-293.353 1272.58,-268 1244.12,-264.982 784.681,-214.173 762.579,-196 748.31,-184.268 742.509,-163.551 740.159,-147.87"/>
<polygon fill="midnightblue" stroke="midnightblue" points="743.592,-147.084 738.986,-137.543 736.637,-147.874 743.592,-147.084"/>
</g>
<!-- Node59 -->
<g id="node197" class="node"><title>Node59</title>
<polygon fill="white" stroke="#bfbfbf" points="1895.58,-239.5 1895.58,-260.5 1991.58,-260.5 1991.58,-239.5 1895.58,-239.5"/>
<text text-anchor="middle" x="1943.58" y="-247.5" font-family="Helvetica,sans-Serif" font-size="10.00">cereal/access.hpp</text>
</g>
<!-- Node58&#45;&gt;Node59 -->
<g id="edge274" class="edge"><title>Node58&#45;&gt;Node59</title>
<path fill="none" stroke="midnightblue" d="M1934.4,-304.267C1935.93,-295.18 1938.18,-281.892 1940.07,-270.74"/>
<polygon fill="midnightblue" stroke="midnightblue" points="1943.58,-270.978 1941.8,-260.534 1936.68,-269.809 1943.58,-270.978"/>
</g>
<!-- Node60 -->
<g id="node199" class="node"><title>Node60</title>
<a xlink:href="variadic_8h.html" target="_top" xlink:title="std_ext/variadic.h">
<polygon fill="white" stroke="black" points="1517.58,-239.5 1517.58,-260.5 1611.58,-260.5 1611.58,-239.5 1517.58,-239.5"/>
<text text-anchor="middle" x="1564.58" y="-247.5" font-family="Helvetica,sans-Serif" font-size="10.00">std_ext/variadic.h</text>
</a>
</g>
<!-- Node58&#45;&gt;Node60 -->
<g id="edge276" class="edge"><title>Node58&#45;&gt;Node60</title>
<path fill="none" stroke="midnightblue" d="M1898.29,-308.943C1835.02,-297.768 1699.33,-273.802 1621.88,-260.121"/>
<polygon fill="midnightblue" stroke="midnightblue" points="1622.26,-256.635 1611.81,-258.342 1621.05,-263.528 1622.26,-256.635"/>
</g>
<!-- Node62 -->
<g id="node208" class="node"><title>Node62</title>
<polygon fill="white" stroke="#bfbfbf" points="2009.08,-239.5 2009.08,-260.5 2058.08,-260.5 2058.08,-239.5 2009.08,-239.5"/>
<text text-anchor="middle" x="2033.58" y="-247.5" font-family="Helvetica,sans-Serif" font-size="10.00">cassert</text>
</g>
<!-- Node58&#45;&gt;Node62 -->
<g id="edge290" class="edge"><title>Node58&#45;&gt;Node62</title>
<path fill="none" stroke="midnightblue" d="M1949.26,-304.267C1965.44,-293.855 1990.18,-277.927 2008.69,-266.016"/>
<polygon fill="midnightblue" stroke="midnightblue" points="2010.7,-268.889 2017.21,-260.534 2006.91,-263.002 2010.7,-268.889"/>
</g>
<!-- Node63 -->
<g id="node210" class="node"><title>Node63</title>
<polygon fill="white" stroke="#bfbfbf" points="2075.08,-239.5 2075.08,-260.5 2126.08,-260.5 2126.08,-239.5 2075.08,-239.5"/>
<text text-anchor="middle" x="2100.58" y="-247.5" font-family="Helvetica,sans-Serif" font-size="10.00">numeric</text>
</g>
<!-- Node58&#45;&gt;Node63 -->
<g id="edge292" class="edge"><title>Node58&#45;&gt;Node63</title>
<path fill="none" stroke="midnightblue" d="M1966.71,-304.589C1994.12,-295.859 2033.37,-282.516 2066.58,-268 2068.62,-267.109 2070.7,-266.145 2072.78,-265.142"/>
<polygon fill="midnightblue" stroke="midnightblue" points="2074.42,-268.237 2081.76,-260.602 2071.26,-261.99 2074.42,-268.237"/>
</g>
<!-- Node60&#45;&gt;Node33 -->
<g id="edge280" class="edge"><title>Node60&#45;&gt;Node33</title>
<path fill="none" stroke="midnightblue" d="M1517.39,-244.177C1483.31,-240.175 1436.17,-235.051 1394.58,-232 1280.29,-223.615 444.924,-192.307 277.679,-186.081"/>
<polygon fill="midnightblue" stroke="midnightblue" points="277.767,-182.582 267.644,-185.707 277.507,-189.577 277.767,-182.582"/>
</g>
<!-- Node61 -->
<g id="node201" class="node"><title>Node61</title>
<polygon fill="white" stroke="#bfbfbf" points="1633.08,-174.5 1633.08,-195.5 1682.08,-195.5 1682.08,-174.5 1633.08,-174.5"/>
<text text-anchor="middle" x="1657.58" y="-182.5" font-family="Helvetica,sans-Serif" font-size="10.00">cstddef</text>
</g>
<!-- Node60&#45;&gt;Node61 -->
<g id="edge278" class="edge"><title>Node60&#45;&gt;Node61</title>
<path fill="none" stroke="midnightblue" d="M1579.94,-239.267C1594.7,-228.949 1617.21,-213.216 1634.2,-201.342"/>
<polygon fill="midnightblue" stroke="midnightblue" points="1636.32,-204.131 1642.51,-195.534 1632.31,-198.394 1636.32,-204.131"/>
</g>
<!-- Node65&#45;&gt;Node11 -->
<g id="edge316" class="edge"><title>Node65&#45;&gt;Node11</title>
<path fill="none" stroke="midnightblue" d="M3093.36,-245.761C2985.22,-236.269 2729.79,-212.821 2644.58,-196 2610.08,-189.19 2603.31,-179.519 2568.58,-174 2332.3,-136.449 1731.65,-147.238 1492.58,-138 1416.04,-135.042 1326.39,-130.966 1277.64,-128.698"/>
<polygon fill="midnightblue" stroke="midnightblue" points="1277.74,-125.199 1267.59,-128.229 1277.42,-132.191 1277.74,-125.199"/>
</g>
<!-- Node65&#45;&gt;Node16 -->
<g id="edge308" class="edge"><title>Node65&#45;&gt;Node16</title>
<path fill="none" stroke="midnightblue" d="M3135.75,-239.085C3122.7,-218.244 3094.09,-172.537 3077.71,-146.384"/>
<polygon fill="midnightblue" stroke="midnightblue" points="3080.56,-144.334 3072.29,-137.715 3074.63,-148.049 3080.56,-144.334"/>
</g>
<!-- Node65&#45;&gt;Node19 -->
<g id="edge310" class="edge"><title>Node65&#45;&gt;Node19</title>
<path fill="none" stroke="midnightblue" d="M3093.4,-245.215C3050.87,-241.213 2987.72,-235.597 2932.58,-232 2536.28,-206.148 2054.82,-190.259 1920.12,-186.098"/>
<polygon fill="midnightblue" stroke="midnightblue" points="1920.05,-182.594 1909.95,-185.786 1919.84,-189.591 1920.05,-182.594"/>
</g>
<!-- Node65&#45;&gt;Node56 -->
<g id="edge312" class="edge"><title>Node65&#45;&gt;Node56</title>
<path fill="none" stroke="midnightblue" d="M3143.57,-239.267C3144.41,-230.18 3145.64,-216.892 3146.66,-205.74"/>
<polygon fill="midnightblue" stroke="midnightblue" points="3150.17,-205.813 3147.61,-195.534 3143.2,-205.17 3150.17,-205.813"/>
</g>
<!-- Node66 -->
<g id="node224" class="node"><title>Node66</title>
<polygon fill="white" stroke="#bfbfbf" points="3221.58,-174.5 3221.58,-195.5 3251.58,-195.5 3251.58,-174.5 3221.58,-174.5"/>
<text text-anchor="middle" x="3236.58" y="-182.5" font-family="Helvetica,sans-Serif" font-size="10.00">set</text>
</g>
<!-- Node65&#45;&gt;Node66 -->
<g id="edge314" class="edge"><title>Node65&#45;&gt;Node66</title>
<path fill="none" stroke="midnightblue" d="M3158.1,-239.267C3173.02,-228.949 3195.77,-213.216 3212.95,-201.342"/>
<polygon fill="midnightblue" stroke="midnightblue" points="3215.11,-204.1 3221.35,-195.534 3211.13,-198.343 3215.11,-204.1"/>
</g>
<!-- Node67&#45;&gt;Node18 -->
<g id="edge322" class="edge"><title>Node67&#45;&gt;Node18</title>
<path fill="none" stroke="midnightblue" d="M2500.76,-420.486C2444.99,-389.333 2280.69,-297.546 2219.18,-263.185"/>
<polygon fill="midnightblue" stroke="midnightblue" points="2220.66,-260.003 2210.22,-258.181 2217.25,-266.114 2220.66,-260.003"/>
</g>
<!-- Node67&#45;&gt;Node19 -->
<g id="edge320" class="edge"><title>Node67&#45;&gt;Node19</title>
<path fill="none" stroke="midnightblue" d="M2509.6,-420.405C2476.64,-386.163 2366.74,-278.03 2251.58,-232 2191.69,-208.064 2000.31,-192.815 1919.8,-187.31"/>
<polygon fill="midnightblue" stroke="midnightblue" points="1919.87,-183.806 1909.65,-186.627 1919.4,-190.791 1919.87,-183.806"/>
</g>
<!-- Node68&#45;&gt;Node14 -->
<g id="edge340" class="edge"><title>Node68&#45;&gt;Node14</title>
<path fill="none" stroke="midnightblue" d="M3423.81,-236.376C3446.51,-227.988 3472.11,-215.089 3489.58,-196 3514.4,-168.885 3536.27,-142.296 3510.58,-116 3501.59,-106.796 1796.5,-74.4252 1539.78,-69.6027"/>
<polygon fill="midnightblue" stroke="midnightblue" points="1539.69,-66.1004 1529.63,-69.4121 1539.56,-73.0992 1539.69,-66.1004"/>
</g>
<!-- Node68&#45;&gt;Node16 -->
<g id="edge342" class="edge"><title>Node68&#45;&gt;Node16</title>
<path fill="none" stroke="midnightblue" d="M3352.84,-232.7C3331.13,-215.432 3295.42,-189.323 3260.58,-174 3205.39,-149.731 3135.66,-136.792 3096.3,-130.957"/>
<polygon fill="midnightblue" stroke="midnightblue" points="3096.67,-127.475 3086.28,-129.529 3095.68,-134.405 3096.67,-127.475"/>
</g>
<!-- Node68&#45;&gt;Node21 -->
<g id="edge356" class="edge"><title>Node68&#45;&gt;Node21</title>
<path fill="none" stroke="midnightblue" d="M3366.05,-232.706C3358.59,-216.619 3346.19,-192.428 3331.58,-174 3322.84,-162.975 3311.38,-152.321 3301.45,-143.952"/>
<polygon fill="midnightblue" stroke="midnightblue" points="3303.52,-141.12 3293.56,-137.502 3299.09,-146.54 3303.52,-141.12"/>
</g>
<!-- Node68&#45;&gt;Node66 -->
<g id="edge338" class="edge"><title>Node68&#45;&gt;Node66</title>
<path fill="none" stroke="midnightblue" d="M3337.58,-232.922C3313.49,-221.492 3282.42,-206.749 3261.14,-196.652"/>
<polygon fill="midnightblue" stroke="midnightblue" points="3262.36,-193.36 3251.83,-192.236 3259.36,-199.685 3262.36,-193.36"/>
</g>
<!-- Node69 -->
<g id="node242" class="node"><title>Node69</title>
<a xlink:href="_t_h2_crystals_8h.html" target="_top" xlink:title="TH2Crystals.h">
<polygon fill="white" stroke="black" points="3383.58,-174.5 3383.58,-195.5 3463.58,-195.5 3463.58,-174.5 3383.58,-174.5"/>
<text text-anchor="middle" x="3423.58" y="-182.5" font-family="Helvetica,sans-Serif" font-size="10.00">TH2Crystals.h</text>
</a>
</g>
<!-- Node68&#45;&gt;Node69 -->
<g id="edge344" class="edge"><title>Node68&#45;&gt;Node69</title>
<path fill="none" stroke="midnightblue" d="M3386.72,-232.922C3393.56,-224.029 3401.94,-213.13 3408.98,-203.974"/>
<polygon fill="midnightblue" stroke="midnightblue" points="3411.91,-205.912 3415.23,-195.852 3406.36,-201.644 3411.91,-205.912"/>
</g>
<!-- Node70 -->
<g id="node245" class="node"><title>Node70</title>
<polygon fill="white" stroke="#bfbfbf" points="3439.08,-116.5 3439.08,-137.5 3502.08,-137.5 3502.08,-116.5 3439.08,-116.5"/>
<text text-anchor="middle" x="3470.58" y="-124.5" font-family="Helvetica,sans-Serif" font-size="10.00">TH2Poly.h</text>
</g>
<!-- Node68&#45;&gt;Node70 -->
<g id="edge354" class="edge"><title>Node68&#45;&gt;Node70</title>
<path fill="none" stroke="midnightblue" d="M3423.76,-234.954C3442.48,-226.634 3461.79,-214.182 3472.58,-196 3481.16,-181.547 3479.74,-162.22 3476.7,-147.698"/>
<polygon fill="midnightblue" stroke="midnightblue" points="3480.02,-146.543 3474.2,-137.69 3473.23,-148.24 3480.02,-146.543"/>
</g>
<!-- Node69&#45;&gt;Node16 -->
<g id="edge352" class="edge"><title>Node69&#45;&gt;Node16</title>
<path fill="none" stroke="midnightblue" d="M3383.55,-178.515C3311.31,-166.811 3160.63,-142.4 3096.04,-131.936"/>
<polygon fill="midnightblue" stroke="midnightblue" points="3096.52,-128.467 3086.09,-130.322 3095.4,-135.376 3096.52,-128.467"/>
</g>
<!-- Node69&#45;&gt;Node21 -->
<g id="edge346" class="edge"><title>Node69&#45;&gt;Node21</title>
<path fill="none" stroke="midnightblue" d="M3397.5,-174.497C3374.5,-165.234 3340.78,-151.65 3315.28,-141.379"/>
<polygon fill="midnightblue" stroke="midnightblue" points="3316.53,-138.111 3305.95,-137.621 3313.92,-144.604 3316.53,-138.111"/>
</g>
<!-- Node69&#45;&gt;Node70 -->
<g id="edge348" class="edge"><title>Node69&#45;&gt;Node70</title>
<path fill="none" stroke="midnightblue" d="M3432.2,-174.362C3438.76,-166.268 3447.94,-154.932 3455.69,-145.38"/>
<polygon fill="midnightblue" stroke="midnightblue" points="3458.44,-147.544 3462.01,-137.571 3453,-143.136 3458.44,-147.544"/>
</g>
<!-- Node71 -->
<g id="node247" class="node"><title>Node71</title>
<polygon fill="white" stroke="#bfbfbf" points="3357.08,-116.5 3357.08,-137.5 3422.08,-137.5 3422.08,-116.5 3357.08,-116.5"/>
<text text-anchor="middle" x="3389.58" y="-124.5" font-family="Helvetica,sans-Serif" font-size="10.00">TVector2.h</text>
</g>
<!-- Node69&#45;&gt;Node71 -->
<g id="edge350" class="edge"><title>Node69&#45;&gt;Node71</title>
<path fill="none" stroke="midnightblue" d="M3417.34,-174.362C3412.74,-166.513 3406.35,-155.616 3400.87,-146.253"/>
<polygon fill="midnightblue" stroke="midnightblue" points="3403.85,-144.428 3395.78,-137.571 3397.81,-147.968 3403.85,-144.428"/>
</g>
</g>
</svg>
