<?xml version="1.0" encoding="UTF-8" standalone="no"?>
<!DOCTYPE svg PUBLIC "-//W3C//DTD SVG 1.1//EN"
 "http://www.w3.org/Graphics/SVG/1.1/DTD/svg11.dtd">
<!-- Generated by graphviz version 2.26.3 (20100126.1600)
 -->
<!-- Title: src/tree/stream_TBuffer.h Pages: 1 -->
<svg width="246pt" height="102pt"
 viewBox="0.00 0.00 246.00 102.00" xmlns="http://www.w3.org/2000/svg" xmlns:xlink="http://www.w3.org/1999/xlink">
<g id="graph1" class="graph" transform="scale(1 1) rotate(0) translate(4 98)">
<title>src/tree/stream_TBuffer.h</title>
<polygon fill="white" stroke="white" points="-4,5 -4,-98 243,-98 243,5 -4,5"/>
<!-- Node11 -->
<g id="node1" class="node"><title>Node11</title>
<polygon fill="#bfbfbf" stroke="black" points="61,-72.5 61,-93.5 189,-93.5 189,-72.5 61,-72.5"/>
<text text-anchor="middle" x="125" y="-80.5" font-family="Helvetica,sans-Serif" font-size="10.00">src/tree/stream_TBuffer.h</text>
</g>
<!-- Node12 -->
<g id="node3" class="node"><title>Node12</title>
<a xlink:href="hstack_8cc.html" target="_top" xlink:title="src/root&#45;addons/analysis\l_codes/hstack.cc">
<polygon fill="white" stroke="black" points="-0.5,-1 -0.5,-35 122.5,-35 122.5,-1 -0.5,-1"/>
<text text-anchor="start" x="7.5" y="-22" font-family="Helvetica,sans-Serif" font-size="10.00">src/root&#45;addons/analysis</text>
<text text-anchor="middle" x="61" y="-9" font-family="Helvetica,sans-Serif" font-size="10.00">_codes/hstack.cc</text>
</a>
</g>
<!-- Node11&#45;&gt;Node12 -->
<g id="edge2" class="edge"><title>Node11&#45;&gt;Node12</title>
<path fill="none" stroke="midnightblue" d="M107.264,-64.9873C98.0724,-55.6517 86.9061,-44.3109 77.8466,-35.1099"/>
<polygon fill="midnightblue" stroke="midnightblue" points="104.922,-67.5965 114.432,-72.2666 109.91,-62.6853 104.922,-67.5965"/>
</g>
<!-- Node13 -->
<g id="node5" class="node"><title>Node13</title>
<a xlink:href="_t_event_8cc.html" target="_top" xlink:title="src/tree/TEvent.cc">
<polygon fill="white" stroke="black" points="140,-7.5 140,-28.5 238,-28.5 238,-7.5 140,-7.5"/>
<text text-anchor="middle" x="189" y="-15.5" font-family="Helvetica,sans-Serif" font-size="10.00">src/tree/TEvent.cc</text>
</a>
</g>
<!-- Node11&#45;&gt;Node13 -->
<g id="edge4" class="edge"><title>Node11&#45;&gt;Node13</title>
<path fill="none" stroke="midnightblue" d="M142.625,-65.0992C154.187,-53.3566 168.91,-38.4043 178.628,-28.5337"/>
<polygon fill="midnightblue" stroke="midnightblue" points="140.09,-62.6852 135.568,-72.2666 145.078,-67.5965 140.09,-62.6852"/>
</g>
</g>
</svg>
