<?xml version="1.0" encoding="UTF-8" standalone="no"?>
<!DOCTYPE svg PUBLIC "-//W3C//DTD SVG 1.1//EN"
 "http://www.w3.org/Graphics/SVG/1.1/DTD/svg11.dtd">
<!-- Generated by graphviz version 2.26.3 (20100126.1600)
 -->
<!-- Title: src/base/std_ext/string.h Pages: 1 -->
<svg width="254pt" height="88pt"
 viewBox="0.00 0.00 254.00 88.00" xmlns="http://www.w3.org/2000/svg" xmlns:xlink="http://www.w3.org/1999/xlink">
<g id="graph1" class="graph" transform="scale(1 1) rotate(0) translate(4 84)">
<title>src/base/std_ext/string.h</title>
<polygon fill="white" stroke="white" points="-4,5 -4,-84 251,-84 251,5 -4,5"/>
<!-- Node0 -->
<g id="node1" class="node"><title>Node0</title>
<polygon fill="#bfbfbf" stroke="black" points="57.5,-58.5 57.5,-79.5 182.5,-79.5 182.5,-58.5 57.5,-58.5"/>
<text text-anchor="middle" x="120" y="-66.5" font-family="Helvetica,sans-Serif" font-size="10.00">src/base/std_ext/string.h</text>
</g>
<!-- Node1 -->
<g id="node3" class="node"><title>Node1</title>
<polygon fill="white" stroke="#bfbfbf" points="-0.5,-0.5 -0.5,-21.5 40.5,-21.5 40.5,-0.5 -0.5,-0.5"/>
<text text-anchor="middle" x="20" y="-8.5" font-family="Helvetica,sans-Serif" font-size="10.00">string</text>
</g>
<!-- Node0&#45;&gt;Node1 -->
<g id="edge2" class="edge"><title>Node0&#45;&gt;Node1</title>
<path fill="none" stroke="midnightblue" d="M101.658,-58.3619C86.4345,-49.532 64.5585,-36.844 47.28,-26.8224"/>
<polygon fill="midnightblue" stroke="midnightblue" points="48.6316,-23.5603 38.2253,-21.5707 45.1196,-29.6155 48.6316,-23.5603"/>
</g>
<!-- Node2 -->
<g id="node5" class="node"><title>Node2</title>
<polygon fill="white" stroke="#bfbfbf" points="58,-0.5 58,-21.5 110,-21.5 110,-0.5 58,-0.5"/>
<text text-anchor="middle" x="84" y="-8.5" font-family="Helvetica,sans-Serif" font-size="10.00">sstream</text>
</g>
<!-- Node0&#45;&gt;Node2 -->
<g id="edge4" class="edge"><title>Node0&#45;&gt;Node2</title>
<path fill="none" stroke="midnightblue" d="M113.397,-58.3619C108.525,-50.5131 101.762,-39.6159 95.95,-30.2527"/>
<polygon fill="midnightblue" stroke="midnightblue" points="98.8085,-28.2213 90.5611,-21.5707 92.861,-31.9129 98.8085,-28.2213"/>
</g>
<!-- Node3 -->
<g id="node7" class="node"><title>Node3</title>
<polygon fill="white" stroke="#bfbfbf" points="128,-0.5 128,-21.5 184,-21.5 184,-0.5 128,-0.5"/>
<text text-anchor="middle" x="156" y="-8.5" font-family="Helvetica,sans-Serif" font-size="10.00">algorithm</text>
</g>
<!-- Node0&#45;&gt;Node3 -->
<g id="edge6" class="edge"><title>Node0&#45;&gt;Node3</title>
<path fill="none" stroke="midnightblue" d="M126.603,-58.3619C131.475,-50.5131 138.238,-39.6159 144.05,-30.2527"/>
<polygon fill="midnightblue" stroke="midnightblue" points="147.139,-31.9129 149.439,-21.5707 141.191,-28.2213 147.139,-31.9129"/>
</g>
<!-- Node4 -->
<g id="node9" class="node"><title>Node4</title>
<polygon fill="white" stroke="#bfbfbf" points="202,-0.5 202,-21.5 246,-21.5 246,-0.5 202,-0.5"/>
<text text-anchor="middle" x="224" y="-8.5" font-family="Helvetica,sans-Serif" font-size="10.00">vector</text>
</g>
<!-- Node0&#45;&gt;Node4 -->
<g id="edge8" class="edge"><title>Node0&#45;&gt;Node4</title>
<path fill="none" stroke="midnightblue" d="M139.075,-58.3619C155.055,-49.4502 178.081,-36.6087 196.127,-26.5447"/>
<polygon fill="midnightblue" stroke="midnightblue" points="198.017,-29.4982 205.046,-21.5707 194.607,-23.3846 198.017,-29.4982"/>
</g>
</g>
</svg>
