<?xml version="1.0" encoding="UTF-8" standalone="no"?>
<!DOCTYPE svg PUBLIC "-//W3C//DTD SVG 1.1//EN"
 "http://www.w3.org/Graphics/SVG/1.1/DTD/svg11.dtd">
<!-- Generated by graphviz version 2.26.3 (20100126.1600)
 -->
<!-- Title: ant::calibration::energy::GUI_BananaSlices Pages: 1 -->
<svg width="1548pt" height="513pt"
 viewBox="0.00 0.00 1548.00 513.00" xmlns="http://www.w3.org/2000/svg" xmlns:xlink="http://www.w3.org/1999/xlink">
<g id="graph1" class="graph" transform="scale(1 1) rotate(0) translate(4 509)">
<title>ant::calibration::energy::GUI_BananaSlices</title>
<polygon fill="white" stroke="white" points="-4,5 -4,-509 1545,-509 1545,5 -4,5"/>
<!-- Node3 -->
<g id="node1" class="node"><title>Node3</title>
<polygon fill="#bfbfbf" stroke="black" points="1424,-163 1424,-197 1540,-197 1540,-163 1424,-163"/>
<text text-anchor="start" x="1432" y="-184" font-family="Helvetica,sans-Serif" font-size="10.00">ant::calibration::energy</text>
<text text-anchor="middle" x="1482" y="-171" font-family="Helvetica,sans-Serif" font-size="10.00">::GUI_BananaSlices</text>
</g>
<!-- Node4 -->
<g id="node2" class="node"><title>Node4</title>
<a xlink:href="structant_1_1calibration_1_1_g_u_i___calib_type.html" target="_top" xlink:title="The GUI_CalibType struct is an abstract base class for handling the data storage for a provided Calib...">
<polygon fill="white" stroke="black" points="594,-95 594,-129 698,-129 698,-95 594,-95"/>
<text text-anchor="start" x="602" y="-116" font-family="Helvetica,sans-Serif" font-size="10.00">ant::calibration::GUI</text>
<text text-anchor="middle" x="646" y="-103" font-family="Helvetica,sans-Serif" font-size="10.00">_CalibType</text>
</a>
</g>
<!-- Node4&#45;&gt;Node3 -->
<g id="edge2" class="edge"><title>Node4&#45;&gt;Node3</title>
<path fill="none" stroke="midnightblue" d="M704.477,-131.96C744.861,-143.99 800.077,-157 850,-157 850,-157 850,-157 1289,-157 1334.55,-157 1385.73,-163.396 1423.94,-169.442"/>
<polygon fill="midnightblue" stroke="midnightblue" points="705.388,-128.579 694.802,-129.013 703.348,-135.275 705.388,-128.579"/>
</g>
<!-- Node5 -->
<g id="node4" class="node"><title>Node5</title>
<a xlink:href="classant_1_1calibration_1_1gui_1_1_calib_module__traits.html" target="_top" xlink:title="ant::calibration::gui\l::CalibModule_traits">
<polygon fill="white" stroke="black" points="366,-141 366,-175 470,-175 470,-141 366,-141"/>
<text text-anchor="start" x="374" y="-162" font-family="Helvetica,sans-Serif" font-size="10.00">ant::calibration::gui</text>
<text text-anchor="middle" x="418" y="-149" font-family="Helvetica,sans-Serif" font-size="10.00">::CalibModule_traits</text>
</a>
</g>
<!-- Node5&#45;&gt;Node4 -->
<g id="edge4" class="edge"><title>Node5&#45;&gt;Node4</title>
<path fill="none" stroke="midnightblue" d="M480.124,-145.779C506.061,-140.646 536.5,-134.582 564,-129 573.689,-127.033 584.016,-124.912 593.959,-122.857"/>
<polygon fill="midnightblue" stroke="midnightblue" points="479.182,-142.397 470.051,-147.771 480.54,-149.264 479.182,-142.397"/>
</g>
<!-- Node6 -->
<g id="node6" class="node"><title>Node6</title>
<a xlink:href="structant_1_1calibration_1_1_calib_type.html" target="_top" xlink:title="The CalibType struct stores the data for the Updateable interface and for the GUI. ">
<polygon fill="white" stroke="black" points="352.5,-101.5 352.5,-122.5 483.5,-122.5 483.5,-101.5 352.5,-101.5"/>
<text text-anchor="middle" x="418" y="-109.5" font-family="Helvetica,sans-Serif" font-size="10.00">ant::calibration::CalibType</text>
</a>
</g>
<!-- Node6&#45;&gt;Node4 -->
<g id="edge6" class="edge"><title>Node6&#45;&gt;Node4</title>
<path fill="none" stroke="#9a32cd" stroke-dasharray="5,2" d="M493.666,-112C526.509,-112 564.158,-112 593.809,-112"/>
<polygon fill="#9a32cd" stroke="#9a32cd" points="493.641,-108.5 483.641,-112 493.641,-115.5 493.641,-108.5"/>
<text text-anchor="middle" x="533" y="-116" font-family="Helvetica,sans-Serif" font-size="10.00"> calibType</text>
</g>
<!-- Node7 -->
<g id="node8" class="node"><title>Node7</title>
<a xlink:title="STL class. ">
<polygon fill="white" stroke="#bfbfbf" points="159,-215.5 159,-236.5 219,-236.5 219,-215.5 159,-215.5"/>
<text text-anchor="middle" x="189" y="-223.5" font-family="Helvetica,sans-Serif" font-size="10.00">std::string</text>
</a>
</g>
<!-- Node7&#45;&gt;Node3 -->
<g id="edge22" class="edge"><title>Node7&#45;&gt;Node3</title>
<path fill="none" stroke="#9a32cd" stroke-dasharray="5,2" d="M229.363,-219.479C275.015,-212.678 351.646,-203 418,-203 418,-203 418,-203 1289,-203 1334.55,-203 1385.73,-196.604 1423.94,-190.558"/>
<polygon fill="#9a32cd" stroke="#9a32cd" points="228.639,-216.048 219.278,-221.009 229.69,-222.969 228.639,-216.048"/>
<text text-anchor="middle" x="850" y="-207" font-family="Helvetica,sans-Serif" font-size="10.00"> full_hist_name</text>
</g>
<!-- Node7&#45;&gt;Node6 -->
<g id="edge8" class="edge"><title>Node7&#45;&gt;Node6</title>
<path fill="none" stroke="#9a32cd" stroke-dasharray="5,2" d="M206.272,-207.693C220.203,-193.821 240.891,-175.138 262,-163 295.347,-143.825 336.905,-130.691 368.741,-122.559"/>
<polygon fill="#9a32cd" stroke="#9a32cd" points="203.397,-205.626 198.899,-215.219 208.397,-210.525 203.397,-205.626"/>
<text text-anchor="middle" x="298" y="-180" font-family="Helvetica,sans-Serif" font-size="10.00"> Name</text>
<text text-anchor="middle" x="298" y="-167" font-family="Helvetica,sans-Serif" font-size="10.00">HistogramName</text>
</g>
<!-- Node21 -->
<g id="node40" class="node"><title>Node21</title>
<a xlink:href="classant_1_1calibration_1_1gui_1_1_fit_function.html" target="_top" xlink:title="ant::calibration::gui\l::FitFunction">
<polygon fill="white" stroke="black" points="1012.5,-237 1012.5,-271 1111.5,-271 1111.5,-237 1012.5,-237"/>
<text text-anchor="start" x="1020.5" y="-258" font-family="Helvetica,sans-Serif" font-size="10.00">ant::calibration::gui</text>
<text text-anchor="middle" x="1062" y="-245" font-family="Helvetica,sans-Serif" font-size="10.00">::FitFunction</text>
</a>
</g>
<!-- Node7&#45;&gt;Node21 -->
<g id="edge56" class="edge"><title>Node7&#45;&gt;Node21</title>
<path fill="none" stroke="#9a32cd" stroke-dasharray="5,2" d="M229.363,-232.521C275.015,-239.322 351.646,-249 418,-249 418,-249 418,-249 850,-249 905.592,-249 969.361,-250.74 1012.32,-252.167"/>
<polygon fill="#9a32cd" stroke="#9a32cd" points="229.69,-229.031 219.278,-230.991 228.639,-235.952 229.69,-229.031"/>
<text text-anchor="middle" x="646" y="-253" font-family="Helvetica,sans-Serif" font-size="10.00"> AdditionalFitArgs</text>
</g>
<!-- Node24 -->
<g id="node46" class="node"><title>Node24</title>
<a xlink:href="classant_1_1calibration_1_1gui_1_1_indicator_knob.html" target="_top" xlink:title="ant::calibration::gui\l::IndicatorKnob">
<polygon fill="white" stroke="black" points="368.5,-280 368.5,-314 467.5,-314 467.5,-280 368.5,-280"/>
<text text-anchor="start" x="376.5" y="-301" font-family="Helvetica,sans-Serif" font-size="10.00">ant::calibration::gui</text>
<text text-anchor="middle" x="418" y="-288" font-family="Helvetica,sans-Serif" font-size="10.00">::IndicatorKnob</text>
</a>
</g>
<!-- Node7&#45;&gt;Node24 -->
<g id="edge52" class="edge"><title>Node7&#45;&gt;Node24</title>
<path fill="none" stroke="#9a32cd" stroke-dasharray="5,2" d="M217.756,-241.042C230.974,-247.524 247.016,-254.794 262,-260 296.838,-272.104 337.404,-281.59 368.435,-287.926"/>
<polygon fill="#9a32cd" stroke="#9a32cd" points="219.194,-237.848 208.685,-236.503 216.061,-244.108 219.194,-237.848"/>
<text text-anchor="middle" x="298" y="-284" font-family="Helvetica,sans-Serif" font-size="10.00"> name</text>
</g>
<!-- Node8 -->
<g id="node10" class="node"><title>Node8</title>
<a xlink:title="STL class. ">
<polygon fill="white" stroke="#bfbfbf" points="0.5,-209 0.5,-243 95.5,-243 95.5,-209 0.5,-209"/>
<text text-anchor="start" x="8.5" y="-230" font-family="Helvetica,sans-Serif" font-size="10.00">std::basic_string&lt;</text>
<text text-anchor="middle" x="48" y="-217" font-family="Helvetica,sans-Serif" font-size="10.00"> char &gt;</text>
</a>
</g>
<!-- Node8&#45;&gt;Node7 -->
<g id="edge10" class="edge"><title>Node8&#45;&gt;Node7</title>
<path fill="none" stroke="midnightblue" d="M105.989,-226C124.191,-226 143.543,-226 158.979,-226"/>
<polygon fill="midnightblue" stroke="midnightblue" points="105.736,-222.5 95.7362,-226 105.736,-229.5 105.736,-222.5"/>
</g>
<!-- Node9 -->
<g id="node12" class="node"><title>Node9</title>
<polygon fill="white" stroke="#bfbfbf" points="134,-59.5 134,-80.5 244,-80.5 244,-59.5 134,-59.5"/>
<text text-anchor="middle" x="189" y="-67.5" font-family="Helvetica,sans-Serif" font-size="10.00">std::vector&lt; double &gt;</text>
</g>
<!-- Node9&#45;&gt;Node4 -->
<g id="edge18" class="edge"><title>Node9&#45;&gt;Node4</title>
<path fill="none" stroke="#9a32cd" stroke-dasharray="5,2" d="M254.196,-68.812C314.128,-68.4723 405.335,-69.8555 484,-79 521.064,-83.3085 562.26,-91.751 593.834,-99.0179"/>
<polygon fill="#9a32cd" stroke="#9a32cd" points="254.091,-65.3126 244.118,-68.8871 254.143,-72.3124 254.091,-65.3126"/>
<text text-anchor="middle" x="418" y="-83" font-family="Helvetica,sans-Serif" font-size="10.00"> previousValues</text>
</g>
<!-- Node9&#45;&gt;Node6 -->
<g id="edge12" class="edge"><title>Node9&#45;&gt;Node6</title>
<path fill="none" stroke="#9a32cd" stroke-dasharray="5,2" d="M253.466,-82.4065C256.35,-82.9479 259.205,-83.4811 262,-84 293.788,-89.9008 329.26,-96.2835 358.337,-101.463"/>
<polygon fill="#9a32cd" stroke="#9a32cd" points="254.073,-78.9594 243.598,-80.5442 252.775,-85.838 254.073,-78.9594"/>
<text text-anchor="middle" x="298" y="-101" font-family="Helvetica,sans-Serif" font-size="10.00"> Values</text>
</g>
<!-- Node10 -->
<g id="node14" class="node"><title>Node10</title>
<polygon fill="white" stroke="#bfbfbf" points="357,-0 357,-34 479,-34 479,-0 357,-0"/>
<text text-anchor="start" x="365" y="-21" font-family="Helvetica,sans-Serif" font-size="10.00">std::map&lt; unsigned,</text>
<text text-anchor="middle" x="418" y="-8" font-family="Helvetica,sans-Serif" font-size="10.00"> std::vector&lt; double &gt; &gt;</text>
</g>
<!-- Node9&#45;&gt;Node10 -->
<g id="edge16" class="edge"><title>Node9&#45;&gt;Node10</title>
<path fill="none" stroke="#9a32cd" stroke-dasharray="5,2" d="M223.598,-55.6787C235.6,-51.121 249.247,-46.3887 262,-43 292.782,-34.8211 327.698,-28.7159 356.681,-24.4845"/>
<polygon fill="#9a32cd" stroke="#9a32cd" points="222.007,-52.5423 213.959,-59.4329 224.547,-59.0651 222.007,-52.5423"/>
<text text-anchor="middle" x="298" y="-47" font-family="Helvetica,sans-Serif" font-size="10.00"> elements</text>
</g>
<!-- Node10&#45;&gt;Node4 -->
<g id="edge14" class="edge"><title>Node10&#45;&gt;Node4</title>
<path fill="none" stroke="#9a32cd" stroke-dasharray="5,2" d="M489.103,-22.1123C513.679,-25.815 540.842,-32.1579 564,-43 590.623,-55.4647 615.619,-78.8268 630.855,-94.8868"/>
<polygon fill="#9a32cd" stroke="#9a32cd" points="489.495,-18.6333 479.109,-20.7273 488.534,-25.567 489.495,-18.6333"/>
<text text-anchor="middle" x="533" y="-47" font-family="Helvetica,sans-Serif" font-size="10.00"> fitParameters</text>
</g>
<!-- Node11 -->
<g id="node18" class="node"><title>Node11</title>
<a xlink:href="classant_1_1interval.html" target="_top" xlink:title="ant::interval\&lt; double \&gt;">
<polygon fill="white" stroke="black" points="1232,-107.5 1232,-128.5 1346,-128.5 1346,-107.5 1232,-107.5"/>
<text text-anchor="middle" x="1289" y="-115.5" font-family="Helvetica,sans-Serif" font-size="10.00">ant::interval&lt; double &gt;</text>
</a>
</g>
<!-- Node11&#45;&gt;Node3 -->
<g id="edge20" class="edge"><title>Node11&#45;&gt;Node3</title>
<path fill="none" stroke="#9a32cd" stroke-dasharray="5,2" d="M1356.33,-119.368C1372.92,-121.201 1390.39,-124.442 1406,-130 1426.68,-137.364 1447.31,-151.472 1461.85,-162.829"/>
<polygon fill="#9a32cd" stroke="#9a32cd" points="1356.43,-115.862 1346.15,-118.4 1355.77,-122.831 1356.43,-115.862"/>
<text text-anchor="middle" x="1385" y="-134" font-family="Helvetica,sans-Serif" font-size="10.00"> fit_range</text>
</g>
<!-- Node12 -->
<g id="node21" class="node"><title>Node12</title>
<a xlink:href="classant_1_1calibration_1_1gui_1_1_cal_canvas.html" target="_top" xlink:title="ant::calibration::gui\l::CalCanvas">
<polygon fill="white" stroke="black" points="1239.5,-335 1239.5,-369 1338.5,-369 1338.5,-335 1239.5,-335"/>
<text text-anchor="start" x="1247.5" y="-356" font-family="Helvetica,sans-Serif" font-size="10.00">ant::calibration::gui</text>
<text text-anchor="middle" x="1289" y="-343" font-family="Helvetica,sans-Serif" font-size="10.00">::CalCanvas</text>
</a>
</g>
<!-- Node12&#45;&gt;Node3 -->
<g id="edge24" class="edge"><title>Node12&#45;&gt;Node3</title>
<path fill="none" stroke="#9a32cd" stroke-dasharray="5,2" d="M1316.13,-327.818C1355.73,-292.527 1428.39,-227.78 1462.87,-197.052"/>
<polygon fill="#9a32cd" stroke="#9a32cd" points="1313.35,-325.613 1308.21,-334.879 1318.01,-330.839 1313.35,-325.613"/>
<text text-anchor="middle" x="1385" y="-298" font-family="Helvetica,sans-Serif" font-size="10.00"> c_fit</text>
<text text-anchor="middle" x="1385" y="-285" font-family="Helvetica,sans-Serif" font-size="10.00">c_extra</text>
</g>
<!-- Node13 -->
<g id="node23" class="node"><title>Node13</title>
<polygon fill="white" stroke="#bfbfbf" points="1034,-341.5 1034,-362.5 1090,-362.5 1090,-341.5 1034,-341.5"/>
<text text-anchor="middle" x="1062" y="-349.5" font-family="Helvetica,sans-Serif" font-size="10.00">TCanvas</text>
</g>
<!-- Node13&#45;&gt;Node12 -->
<g id="edge26" class="edge"><title>Node13&#45;&gt;Node12</title>
<path fill="none" stroke="midnightblue" d="M1100.49,-352C1138.68,-352 1197.39,-352 1239.14,-352"/>
<polygon fill="midnightblue" stroke="midnightblue" points="1100.29,-348.5 1090.29,-352 1100.29,-355.5 1100.29,-348.5"/>
</g>
<!-- Node14 -->
<g id="node25" class="node"><title>Node14</title>
<a xlink:href="classant_1_1calibration_1_1gui_1_1update__notify__traits.html" target="_top" xlink:title="ant::calibration::gui\l::update_notify_traits">
<polygon fill="white" stroke="black" points="592,-353 592,-387 700,-387 700,-353 592,-353"/>
<text text-anchor="start" x="600" y="-374" font-family="Helvetica,sans-Serif" font-size="10.00">ant::calibration::gui</text>
<text text-anchor="middle" x="646" y="-361" font-family="Helvetica,sans-Serif" font-size="10.00">::update_notify_traits</text>
</a>
</g>
<!-- Node14&#45;&gt;Node12 -->
<g id="edge28" class="edge"><title>Node14&#45;&gt;Node12</title>
<path fill="none" stroke="midnightblue" d="M710.32,-371.963C803.692,-374.426 982.216,-377.684 1134,-372 1169.63,-370.666 1178.64,-370.612 1214,-366 1222.14,-364.938 1230.74,-363.569 1239.1,-362.104"/>
<polygon fill="midnightblue" stroke="midnightblue" points="710.275,-368.46 700.185,-371.69 710.087,-375.458 710.275,-368.46"/>
</g>
<!-- Node16 -->
<g id="node29" class="node"><title>Node16</title>
<a xlink:href="classant_1_1calibration_1_1gui_1_1_indicator.html" target="_top" xlink:title="ant::calibration::gui\l::Indicator">
<polygon fill="white" stroke="black" points="800.5,-329 800.5,-363 899.5,-363 899.5,-329 800.5,-329"/>
<text text-anchor="start" x="808.5" y="-350" font-family="Helvetica,sans-Serif" font-size="10.00">ant::calibration::gui</text>
<text text-anchor="middle" x="850" y="-337" font-family="Helvetica,sans-Serif" font-size="10.00">::Indicator</text>
</a>
</g>
<!-- Node14&#45;&gt;Node16 -->
<g id="edge34" class="edge"><title>Node14&#45;&gt;Node16</title>
<path fill="none" stroke="midnightblue" d="M710.192,-362.448C739.246,-359.03 773.067,-355.051 800.166,-351.863"/>
<polygon fill="midnightblue" stroke="midnightblue" points="709.655,-358.987 700.133,-363.631 710.473,-365.939 709.655,-358.987"/>
</g>
<!-- Node15 -->
<g id="node27" class="node"><title>Node15</title>
<polygon fill="white" stroke="#bfbfbf" points="1001,-289 1001,-323 1123,-323 1123,-289 1001,-289"/>
<text text-anchor="start" x="1009" y="-310" font-family="Helvetica,sans-Serif" font-size="10.00">std::list&lt; ant::calibration</text>
<text text-anchor="middle" x="1062" y="-297" font-family="Helvetica,sans-Serif" font-size="10.00">::gui::Indicator *&gt;</text>
</g>
<!-- Node15&#45;&gt;Node12 -->
<g id="edge30" class="edge"><title>Node15&#45;&gt;Node12</title>
<path fill="none" stroke="#9a32cd" stroke-dasharray="5,2" d="M1133.09,-319.04C1158.64,-323.865 1187.65,-329.502 1214,-335 1222.23,-336.718 1230.96,-338.62 1239.43,-340.512"/>
<polygon fill="#9a32cd" stroke="#9a32cd" points="1133.59,-315.572 1123.11,-317.164 1132.29,-322.452 1133.59,-315.572"/>
<text text-anchor="middle" x="1183" y="-339" font-family="Helvetica,sans-Serif" font-size="10.00"> indicators</text>
</g>
<!-- Node16&#45;&gt;Node15 -->
<g id="edge32" class="edge"><title>Node16&#45;&gt;Node15</title>
<path fill="none" stroke="#9a32cd" stroke-dasharray="5,2" d="M909.538,-334.766C938.05,-329.387 972.153,-322.952 1000.87,-317.534"/>
<polygon fill="#9a32cd" stroke="#9a32cd" points="908.882,-331.328 899.705,-336.622 910.18,-338.207 908.882,-331.328"/>
<text text-anchor="middle" x="950" y="-334" font-family="Helvetica,sans-Serif" font-size="10.00"> elements</text>
</g>
<!-- Node17 -->
<g id="node32" class="node"><title>Node17</title>
<polygon fill="white" stroke="#bfbfbf" points="1003,-471 1003,-505 1121,-505 1121,-471 1003,-471"/>
<text text-anchor="start" x="1011" y="-492" font-family="Helvetica,sans-Serif" font-size="10.00">std::stack&lt; FitFunction</text>
<text text-anchor="middle" x="1062" y="-479" font-family="Helvetica,sans-Serif" font-size="10.00">::SavedState_t &gt;</text>
</g>
<!-- Node17&#45;&gt;Node12 -->
<g id="edge36" class="edge"><title>Node17&#45;&gt;Node12</title>
<path fill="none" stroke="#9a32cd" stroke-dasharray="5,2" d="M1131.21,-474.841C1158.53,-467.498 1189.25,-456.411 1214,-440 1242.28,-421.255 1265.9,-388.908 1278.7,-369.087"/>
<polygon fill="#9a32cd" stroke="#9a32cd" points="1130.13,-471.504 1121.31,-477.379 1131.87,-478.285 1130.13,-471.504"/>
<text text-anchor="middle" x="1183" y="-471" font-family="Helvetica,sans-Serif" font-size="10.00"> UndoStack</text>
</g>
<!-- Node18 -->
<g id="node34" class="node"><title>Node18</title>
<a xlink:title="STL class. ">
<polygon fill="white" stroke="#bfbfbf" points="806.5,-477.5 806.5,-498.5 893.5,-498.5 893.5,-477.5 806.5,-477.5"/>
<text text-anchor="middle" x="850" y="-485.5" font-family="Helvetica,sans-Serif" font-size="10.00">std::vector&lt; T &gt;</text>
</a>
</g>
<!-- Node18&#45;&gt;Node17 -->
<g id="edge38" class="edge"><title>Node18&#45;&gt;Node17</title>
<path fill="none" stroke="#9a32cd" stroke-dasharray="5,2" d="M903.998,-488C934.145,-488 971.75,-488 1002.71,-488"/>
<polygon fill="#9a32cd" stroke="#9a32cd" points="903.67,-484.5 893.669,-488 903.669,-491.5 903.67,-484.5"/>
<text text-anchor="middle" x="950" y="-492" font-family="Helvetica,sans-Serif" font-size="10.00"> elements</text>
</g>
<!-- Node19 -->
<g id="node36" class="node"><title>Node19</title>
<polygon fill="white" stroke="#bfbfbf" points="631.5,-477.5 631.5,-498.5 660.5,-498.5 660.5,-477.5 631.5,-477.5"/>
<text text-anchor="middle" x="646" y="-485.5" font-family="Helvetica,sans-Serif" font-size="10.00">T</text>
</g>
<!-- Node19&#45;&gt;Node18 -->
<g id="edge40" class="edge"><title>Node19&#45;&gt;Node18</title>
<path fill="none" stroke="#9a32cd" stroke-dasharray="5,2" d="M670.987,-488C704.622,-488 764.996,-488 806.249,-488"/>
<polygon fill="#9a32cd" stroke="#9a32cd" points="670.671,-484.5 660.671,-488 670.671,-491.5 670.671,-484.5"/>
<text text-anchor="middle" x="750" y="-492" font-family="Helvetica,sans-Serif" font-size="10.00"> elements</text>
</g>
<!-- Node20 -->
<g id="node38" class="node"><title>Node20</title>
<a xlink:href="structant_1_1calibration_1_1gui_1_1_cal_canvas_1_1axis__settings__t.html" target="_top" xlink:title="ant::calibration::gui\l::CalCanvas::axis_settings_t">
<polygon fill="white" stroke="black" points="990.5,-419 990.5,-453 1133.5,-453 1133.5,-419 990.5,-419"/>
<text text-anchor="start" x="998.5" y="-440" font-family="Helvetica,sans-Serif" font-size="10.00">ant::calibration::gui</text>
<text text-anchor="middle" x="1062" y="-427" font-family="Helvetica,sans-Serif" font-size="10.00">::CalCanvas::axis_settings_t</text>
</a>
</g>
<!-- Node20&#45;&gt;Node12 -->
<g id="edge42" class="edge"><title>Node20&#45;&gt;Node12</title>
<path fill="none" stroke="#9a32cd" stroke-dasharray="5,2" d="M1143.72,-425.753C1167.03,-421.132 1192.05,-414.495 1214,-405 1234.63,-396.076 1255.29,-380.905 1269.68,-369.074"/>
<polygon fill="#9a32cd" stroke="#9a32cd" points="1143.03,-422.322 1133.85,-427.612 1144.32,-429.201 1143.03,-422.322"/>
<text text-anchor="middle" x="1183" y="-427" font-family="Helvetica,sans-Serif" font-size="10.00"> axis_settings</text>
</g>
<!-- Node21&#45;&gt;Node12 -->
<g id="edge44" class="edge"><title>Node21&#45;&gt;Node12</title>
<path fill="none" stroke="#9a32cd" stroke-dasharray="5,2" d="M1121.53,-271.011C1150.08,-280.01 1184.43,-292.082 1214,-306 1231.41,-314.196 1249.85,-325.467 1264.09,-334.802"/>
<polygon fill="#9a32cd" stroke="#9a32cd" points="1122.27,-267.578 1111.68,-267.958 1120.2,-274.263 1122.27,-267.578"/>
<text text-anchor="middle" x="1183" y="-310" font-family="Helvetica,sans-Serif" font-size="10.00"> func</text>
</g>
<!-- Node22 -->
<g id="node42" class="node"><title>Node22</title>
<polygon fill="white" stroke="#bfbfbf" points="790,-277 790,-311 910,-311 910,-277 790,-277"/>
<text text-anchor="start" x="798" y="-298" font-family="Helvetica,sans-Serif" font-size="10.00">std::list&lt; std::unique</text>
<text text-anchor="middle" x="850" y="-285" font-family="Helvetica,sans-Serif" font-size="10.00">_ptr&lt; IndicatorKnob &gt; &gt;</text>
</g>
<!-- Node22&#45;&gt;Node21 -->
<g id="edge46" class="edge"><title>Node22&#45;&gt;Node21</title>
<path fill="none" stroke="#9a32cd" stroke-dasharray="5,2" d="M920.231,-280.749C950.404,-275.056 984.956,-268.537 1012.4,-263.359"/>
<polygon fill="#9a32cd" stroke="#9a32cd" points="919.361,-277.351 910.184,-282.645 920.659,-284.23 919.361,-277.351"/>
<text text-anchor="middle" x="950" y="-282" font-family="Helvetica,sans-Serif" font-size="10.00"> knobs</text>
</g>
<!-- Node23 -->
<g id="node44" class="node"><title>Node23</title>
<polygon fill="white" stroke="#bfbfbf" points="582,-280 582,-314 710,-314 710,-280 582,-280"/>
<text text-anchor="start" x="590" y="-301" font-family="Helvetica,sans-Serif" font-size="10.00">std::unique_ptr&lt; Indicator</text>
<text text-anchor="middle" x="646" y="-288" font-family="Helvetica,sans-Serif" font-size="10.00">Knob &gt;</text>
</g>
<!-- Node23&#45;&gt;Node22 -->
<g id="edge48" class="edge"><title>Node23&#45;&gt;Node22</title>
<path fill="none" stroke="#9a32cd" stroke-dasharray="5,2" d="M720.278,-295.908C743.165,-295.571 768.066,-295.205 789.876,-294.884"/>
<polygon fill="#9a32cd" stroke="#9a32cd" points="720.214,-292.408 710.267,-296.055 720.317,-299.407 720.214,-292.408"/>
<text text-anchor="middle" x="750" y="-299" font-family="Helvetica,sans-Serif" font-size="10.00"> elements</text>
</g>
<!-- Node24&#45;&gt;Node23 -->
<g id="edge50" class="edge"><title>Node24&#45;&gt;Node23</title>
<path fill="none" stroke="#9a32cd" stroke-dasharray="5,2" d="M477.837,-297C509.749,-297 549.036,-297 581.61,-297"/>
<polygon fill="#9a32cd" stroke="#9a32cd" points="477.754,-293.5 467.754,-297 477.754,-300.5 477.754,-293.5"/>
<text text-anchor="middle" x="533" y="-301" font-family="Helvetica,sans-Serif" font-size="10.00"> ptr</text>
</g>
<!-- Node25 -->
<g id="node49" class="node"><title>Node25</title>
<a xlink:href="structant_1_1calibration_1_1gui_1_1_indicator_properties.html" target="_top" xlink:title="ant::calibration::gui\l::IndicatorProperties">
<polygon fill="white" stroke="black" points="137,-301 137,-335 241,-335 241,-301 137,-301"/>
<text text-anchor="start" x="145" y="-322" font-family="Helvetica,sans-Serif" font-size="10.00">ant::calibration::gui</text>
<text text-anchor="middle" x="189" y="-309" font-family="Helvetica,sans-Serif" font-size="10.00">::IndicatorProperties</text>
</a>
</g>
<!-- Node25&#45;&gt;Node24 -->
<g id="edge54" class="edge"><title>Node25&#45;&gt;Node24</title>
<path fill="none" stroke="#9a32cd" stroke-dasharray="5,2" d="M251.362,-312.281C288.131,-308.909 334.022,-304.701 368.33,-301.555"/>
<polygon fill="#9a32cd" stroke="#9a32cd" points="250.889,-308.81 241.25,-313.208 251.528,-315.781 250.889,-308.81"/>
<text text-anchor="middle" x="298" y="-315" font-family="Helvetica,sans-Serif" font-size="10.00"> gui</text>
</g>
</g>
</svg>
