<?xml version="1.0" encoding="UTF-8" standalone="no"?>
<!DOCTYPE svg PUBLIC "-//W3C//DTD SVG 1.1//EN"
 "http://www.w3.org/Graphics/SVG/1.1/DTD/svg11.dtd">
<!-- Generated by graphviz version 2.26.3 (20100126.1600)
 -->
<!-- Title: ant::calibration::converter::CATCH_TDC Pages: 1 -->
<svg width="632pt" height="94pt"
 viewBox="0.00 0.00 632.00 94.00" xmlns="http://www.w3.org/2000/svg" xmlns:xlink="http://www.w3.org/1999/xlink">
<g id="graph1" class="graph" transform="scale(1 1) rotate(0) translate(4 90)">
<title>ant::calibration::converter::CATCH_TDC</title>
<polygon fill="white" stroke="white" points="-4,5 -4,-90 629,-90 629,5 -4,5"/>
<!-- Node0 -->
<g id="node1" class="node"><title>Node0</title>
<polygon fill="#bfbfbf" stroke="black" points="496.5,-26 496.5,-60 623.5,-60 623.5,-26 496.5,-26"/>
<text text-anchor="start" x="504.5" y="-47" font-family="Helvetica,sans-Serif" font-size="10.00">ant::calibration::converter</text>
<text text-anchor="middle" x="560" y="-34" font-family="Helvetica,sans-Serif" font-size="10.00">::CATCH_TDC</text>
</g>
<!-- Node1 -->
<g id="node2" class="node"><title>Node1</title>
<a xlink:href="structant_1_1calibration_1_1converter_1_1_multi_hit_reference.html" target="_top" xlink:title="ant::calibration::converter\l::MultiHitReference\&lt; std\l::uint16_t \&gt;">
<polygon fill="white" stroke="black" points="332.5,-19.5 332.5,-66.5 459.5,-66.5 459.5,-19.5 332.5,-19.5"/>
<text text-anchor="start" x="340.5" y="-53.5" font-family="Helvetica,sans-Serif" font-size="10.00">ant::calibration::converter</text>
<text text-anchor="start" x="340.5" y="-40.5" font-family="Helvetica,sans-Serif" font-size="10.00">::MultiHitReference&lt; std</text>
<text text-anchor="middle" x="396" y="-27.5" font-family="Helvetica,sans-Serif" font-size="10.00">::uint16_t &gt;</text>
</a>
</g>
<!-- Node1&#45;&gt;Node0 -->
<g id="edge2" class="edge"><title>Node1&#45;&gt;Node0</title>
<path fill="none" stroke="midnightblue" d="M470.073,-43C478.828,-43 487.704,-43 496.298,-43"/>
<polygon fill="midnightblue" stroke="midnightblue" points="469.876,-39.5001 459.876,-43 469.876,-46.5001 469.876,-39.5001"/>
</g>
<!-- Node2 -->
<g id="node4" class="node"><title>Node2</title>
<a xlink:href="structant_1_1calibration_1_1converter_1_1_multi_hit.html" target="_top" xlink:title="ant::calibration::converter\l::MultiHit\&lt; std::uint16_t \&gt;">
<polygon fill="white" stroke="black" points="168,-52 168,-86 296,-86 296,-52 168,-52"/>
<text text-anchor="start" x="176" y="-73" font-family="Helvetica,sans-Serif" font-size="10.00">ant::calibration::converter</text>
<text text-anchor="middle" x="232" y="-60" font-family="Helvetica,sans-Serif" font-size="10.00">::MultiHit&lt; std::uint16_t &gt;</text>
</a>
</g>
<!-- Node2&#45;&gt;Node1 -->
<g id="edge4" class="edge"><title>Node2&#45;&gt;Node1</title>
<path fill="none" stroke="midnightblue" d="M306.44,-57.1985C315.102,-55.8252 323.879,-54.4339 332.377,-53.0866"/>
<polygon fill="midnightblue" stroke="midnightblue" points="305.675,-53.776 296.346,-58.7987 306.771,-60.6897 305.675,-53.776"/>
</g>
<!-- Node3 -->
<g id="node6" class="node"><title>Node3</title>
<a xlink:href="structant_1_1_calibration_1_1_converter.html" target="_top" xlink:title="The Converter struct handles the transition from raw bytes to somewhat meaningful values (not necessa...">
<polygon fill="white" stroke="black" points="0.5,-58.5 0.5,-79.5 131.5,-79.5 131.5,-58.5 0.5,-58.5"/>
<text text-anchor="middle" x="66" y="-66.5" font-family="Helvetica,sans-Serif" font-size="10.00">ant::Calibration::Converter</text>
</a>
</g>
<!-- Node3&#45;&gt;Node2 -->
<g id="edge6" class="edge"><title>Node3&#45;&gt;Node2</title>
<path fill="none" stroke="midnightblue" d="M141.797,-69C150.539,-69 159.389,-69 167.954,-69"/>
<polygon fill="midnightblue" stroke="midnightblue" points="141.608,-65.5001 131.608,-69 141.608,-72.5001 141.608,-65.5001"/>
</g>
<!-- Node4 -->
<g id="node8" class="node"><title>Node4</title>
<a xlink:href="structant_1_1_reconstruct_hook_1_1_detector_read_hits.html" target="_top" xlink:title="The DetectorReadHits struct instances are applied before hit matching. ">
<polygon fill="white" stroke="black" points="175.5,-0 175.5,-34 288.5,-34 288.5,-0 175.5,-0"/>
<text text-anchor="start" x="183.5" y="-21" font-family="Helvetica,sans-Serif" font-size="10.00">ant::ReconstructHook</text>
<text text-anchor="middle" x="232" y="-8" font-family="Helvetica,sans-Serif" font-size="10.00">::DetectorReadHits</text>
</a>
</g>
<!-- Node4&#45;&gt;Node1 -->
<g id="edge8" class="edge"><title>Node4&#45;&gt;Node1</title>
<path fill="none" stroke="midnightblue" d="M298.942,-27.6127C310.02,-29.369 321.478,-31.1855 332.469,-32.928"/>
<polygon fill="midnightblue" stroke="midnightblue" points="299.324,-24.1296 288.899,-26.0206 298.228,-31.0433 299.324,-24.1296"/>
</g>
<!-- Node5 -->
<g id="node10" class="node"><title>Node5</title>
<a xlink:href="structant_1_1_reconstruct_hook_1_1_base.html" target="_top" xlink:title="The Base struct just defines some useful types. ">
<polygon fill="white" stroke="black" points="9.5,-0 9.5,-34 122.5,-34 122.5,-0 9.5,-0"/>
<text text-anchor="start" x="17.5" y="-21" font-family="Helvetica,sans-Serif" font-size="10.00">ant::ReconstructHook</text>
<text text-anchor="middle" x="66" y="-8" font-family="Helvetica,sans-Serif" font-size="10.00">::Base</text>
</a>
</g>
<!-- Node5&#45;&gt;Node4 -->
<g id="edge10" class="edge"><title>Node5&#45;&gt;Node4</title>
<path fill="none" stroke="midnightblue" d="M132.788,-17C146.884,-17 161.629,-17 175.31,-17"/>
<polygon fill="midnightblue" stroke="midnightblue" points="132.664,-13.5001 122.663,-17 132.663,-20.5001 132.664,-13.5001"/>
</g>
</g>
</svg>
