<?xml version="1.0" encoding="UTF-8" standalone="no"?>
<!DOCTYPE svg PUBLIC "-//W3C//DTD SVG 1.1//EN"
 "http://www.w3.org/Graphics/SVG/1.1/DTD/svg11.dtd">
<!-- Generated by graphviz version 2.26.3 (20100126.1600)
 -->
<!-- Title: ant::analysis::physics::Etap3pi0::branches::kinFitReturn_t Pages: 1 -->
<svg width="157pt" height="166pt"
 viewBox="0.00 0.00 157.00 166.00" xmlns="http://www.w3.org/2000/svg" xmlns:xlink="http://www.w3.org/1999/xlink">
<g id="graph1" class="graph" transform="scale(1 1) rotate(0) translate(4 162)">
<title>ant::analysis::physics::Etap3pi0::branches::kinFitReturn_t</title>
<polygon fill="white" stroke="white" points="-4,5 -4,-162 154,-162 154,5 -4,5"/>
<!-- Node1 -->
<g id="node1" class="node"><title>Node1</title>
<polygon fill="#bfbfbf" stroke="black" points="17.5,-0.5 17.5,-47.5 130.5,-47.5 130.5,-0.5 17.5,-0.5"/>
<text text-anchor="start" x="25.5" y="-34.5" font-family="Helvetica,sans-Serif" font-size="10.00">ant::analysis::physics</text>
<text text-anchor="start" x="25.5" y="-21.5" font-family="Helvetica,sans-Serif" font-size="10.00">::Etap3pi0::branches::</text>
<text text-anchor="middle" x="74" y="-8.5" font-family="Helvetica,sans-Serif" font-size="10.00">kinFitReturn_t</text>
</g>
<!-- Node2 -->
<g id="node2" class="node"><title>Node2</title>
<polygon fill="white" stroke="#bfbfbf" points="0,-136.5 0,-157.5 148,-157.5 148,-136.5 0,-136.5"/>
<text text-anchor="middle" x="74" y="-144.5" font-family="Helvetica,sans-Serif" font-size="10.00">std::vector&lt; TLorentzVector &gt;</text>
</g>
<!-- Node2&#45;&gt;Node1 -->
<g id="edge2" class="edge"><title>Node2&#45;&gt;Node1</title>
<path fill="none" stroke="#9a32cd" stroke-dasharray="5,2" d="M74,-125.934C74,-104.173 74,-70.2827 74,-47.6246"/>
<polygon fill="#9a32cd" stroke="#9a32cd" points="70.5001,-126.085 74,-136.085 77.5001,-126.085 70.5001,-126.085"/>
<text text-anchor="middle" x="111.5" y="-109" font-family="Helvetica,sans-Serif" font-size="10.00"> gammasRef</text>
<text text-anchor="middle" x="111.5" y="-96" font-family="Helvetica,sans-Serif" font-size="10.00">intermediatesRef</text>
<text text-anchor="middle" x="111.5" y="-83" font-family="Helvetica,sans-Serif" font-size="10.00">intermediatesSig</text>
<text text-anchor="middle" x="111.5" y="-70" font-family="Helvetica,sans-Serif" font-size="10.00">gammasSig</text>
</g>
</g>
</svg>
