<?xml version="1.0" encoding="UTF-8" standalone="no"?>
<!DOCTYPE svg PUBLIC "-//W3C//DTD SVG 1.1//EN"
 "http://www.w3.org/Graphics/SVG/1.1/DTD/svg11.dtd">
<!-- Generated by graphviz version 2.26.3 (20100126.1600)
 -->
<!-- Title: ant::expconfig::detector::TAPSVeto::PbWO4_Element_t Pages: 1 -->
<svg width="231pt" height="248pt"
 viewBox="0.00 0.00 231.00 248.00" xmlns="http://www.w3.org/2000/svg" xmlns:xlink="http://www.w3.org/1999/xlink">
<g id="graph1" class="graph" transform="scale(1 1) rotate(0) translate(4 244)">
<title>ant::expconfig::detector::TAPSVeto::PbWO4_Element_t</title>
<polygon fill="white" stroke="white" points="-4,5 -4,-244 228,-244 228,5 -4,5"/>
<!-- Node2 -->
<g id="node1" class="node"><title>Node2</title>
<polygon fill="#bfbfbf" stroke="black" points="-0.5,-1 -0.5,-35 158.5,-35 158.5,-1 -0.5,-1"/>
<text text-anchor="start" x="7.5" y="-22" font-family="Helvetica,sans-Serif" font-size="10.00">ant::expconfig::detector</text>
<text text-anchor="middle" x="79" y="-9" font-family="Helvetica,sans-Serif" font-size="10.00">::TAPSVeto::PbWO4_Element_t</text>
</g>
<!-- Node3 -->
<g id="node2" class="node"><title>Node3</title>
<a xlink:href="structant_1_1_detector__t_1_1_element__t.html" target="_top" xlink:title="TAPSVeto_Element_t">
<polygon fill="white" stroke="black" points="22.5,-74.5 22.5,-95.5 135.5,-95.5 135.5,-74.5 22.5,-74.5"/>
<text text-anchor="middle" x="79" y="-82.5" font-family="Helvetica,sans-Serif" font-size="10.00">TAPSVeto_Element_t</text>
</a>
</g>
<!-- Node3&#45;&gt;Node2 -->
<g id="edge2" class="edge"><title>Node3&#45;&gt;Node2</title>
<path fill="none" stroke="midnightblue" d="M79,-64.1655C79,-54.7973 79,-43.8796 79,-35.0139"/>
<polygon fill="midnightblue" stroke="midnightblue" points="75.5001,-64.2353 79,-74.2353 82.5001,-64.2353 75.5001,-64.2353"/>
</g>
<!-- Node4 -->
<g id="node4" class="node"><title>Node4</title>
<a xlink:href="structant_1_1vec3.html" target="_top" xlink:title="ant::vec3">
<polygon fill="white" stroke="black" points="6.5,-146.5 6.5,-167.5 63.5,-167.5 63.5,-146.5 6.5,-146.5"/>
<text text-anchor="middle" x="35" y="-154.5" font-family="Helvetica,sans-Serif" font-size="10.00">ant::vec3</text>
</a>
</g>
<!-- Node4&#45;&gt;Node3 -->
<g id="edge4" class="edge"><title>Node4&#45;&gt;Node3</title>
<path fill="none" stroke="#9a32cd" stroke-dasharray="5,2" d="M46.7273,-137.81C54.9769,-124.311 65.7115,-106.745 72.481,-95.6674"/>
<polygon fill="#9a32cd" stroke="#9a32cd" points="43.7204,-136.018 41.4924,-146.376 49.6934,-139.668 43.7204,-136.018"/>
<text text-anchor="middle" x="79.5" y="-118.5" font-family="Helvetica,sans-Serif" font-size="10.00"> Position</text>
</g>
<!-- Node5 -->
<g id="node6" class="node"><title>Node5</title>
<a xlink:href="classant_1_1bitflag.html" target="_top" xlink:title="ant::bitflag\&lt; ElementFlag_t \&gt;">
<polygon fill="white" stroke="black" points="80.5,-146.5 80.5,-167.5 223.5,-167.5 223.5,-146.5 80.5,-146.5"/>
<text text-anchor="middle" x="152" y="-154.5" font-family="Helvetica,sans-Serif" font-size="10.00">ant::bitflag&lt; ElementFlag_t &gt;</text>
</a>
</g>
<!-- Node5&#45;&gt;Node3 -->
<g id="edge6" class="edge"><title>Node5&#45;&gt;Node3</title>
<path fill="none" stroke="#9a32cd" stroke-dasharray="5,2" d="M134.104,-139.349C120.236,-125.671 101.479,-107.171 89.8156,-95.6674"/>
<polygon fill="#9a32cd" stroke="#9a32cd" points="131.651,-141.846 141.229,-146.376 136.567,-136.862 131.651,-141.846"/>
<text text-anchor="middle" x="136" y="-118.5" font-family="Helvetica,sans-Serif" font-size="10.00"> Flags</text>
</g>
<!-- Node6 -->
<g id="node8" class="node"><title>Node6</title>
<polygon fill="white" stroke="#bfbfbf" points="107.5,-218.5 107.5,-239.5 196.5,-239.5 196.5,-218.5 107.5,-218.5"/>
<text text-anchor="middle" x="152" y="-226.5" font-family="Helvetica,sans-Serif" font-size="10.00">std::bitset&lt; 32 &gt;</text>
</g>
<!-- Node6&#45;&gt;Node5 -->
<g id="edge8" class="edge"><title>Node6&#45;&gt;Node5</title>
<path fill="none" stroke="#9a32cd" stroke-dasharray="5,2" d="M152,-208.235C152,-194.969 152,-178.319 152,-167.667"/>
<polygon fill="#9a32cd" stroke="#9a32cd" points="148.5,-208.376 152,-218.376 155.5,-208.376 148.5,-208.376"/>
<text text-anchor="middle" x="161.5" y="-190.5" font-family="Helvetica,sans-Serif" font-size="10.00"> bits</text>
</g>
</g>
</svg>
