<?xml version="1.0" encoding="UTF-8" standalone="no"?>
<!DOCTYPE svg PUBLIC "-//W3C//DTD SVG 1.1//EN"
 "http://www.w3.org/Graphics/SVG/1.1/DTD/svg11.dtd">
<!-- Generated by graphviz version 2.26.3 (20100126.1600)
 -->
<!-- Title: ant::analysis::physics::EtapDalitz::common_tree Pages: 1 -->
<svg width="418pt" height="94pt"
 viewBox="0.00 0.00 418.00 94.00" xmlns="http://www.w3.org/2000/svg" xmlns:xlink="http://www.w3.org/1999/xlink">
<g id="graph1" class="graph" transform="scale(1 1) rotate(0) translate(4 90)">
<title>ant::analysis::physics::EtapDalitz::common_tree</title>
<polygon fill="white" stroke="white" points="-4,5 -4,-90 415,-90 415,5 -4,5"/>
<!-- Node0 -->
<g id="node1" class="node"><title>Node0</title>
<polygon fill="#bfbfbf" stroke="black" points="122,-26 122,-60 256,-60 256,-26 122,-26"/>
<text text-anchor="start" x="130" y="-47" font-family="Helvetica,sans-Serif" font-size="10.00">ant::analysis::physics</text>
<text text-anchor="middle" x="189" y="-34" font-family="Helvetica,sans-Serif" font-size="10.00">::EtapDalitz::common_tree</text>
</g>
<!-- Node2 -->
<g id="node5" class="node"><title>Node2</title>
<a xlink:href="structant_1_1analysis_1_1physics_1_1_etap_dalitz_1_1_ref_tree__t.html" target="_top" xlink:title="ant::analysis::physics\l::EtapDalitz::RefTree_t">
<polygon fill="white" stroke="black" points="292,-52 292,-86 410,-86 410,-52 292,-52"/>
<text text-anchor="start" x="300" y="-73" font-family="Helvetica,sans-Serif" font-size="10.00">ant::analysis::physics</text>
<text text-anchor="middle" x="351" y="-60" font-family="Helvetica,sans-Serif" font-size="10.00">::EtapDalitz::RefTree_t</text>
</a>
</g>
<!-- Node0&#45;&gt;Node2 -->
<g id="edge4" class="edge"><title>Node0&#45;&gt;Node2</title>
<path fill="none" stroke="midnightblue" d="M266.343,-55.413C274.943,-56.7933 283.598,-58.1824 291.92,-59.518"/>
<polygon fill="midnightblue" stroke="midnightblue" points="266.724,-51.9294 256.295,-53.8005 265.614,-58.841 266.724,-51.9294"/>
</g>
<!-- Node3 -->
<g id="node7" class="node"><title>Node3</title>
<a xlink:href="structant_1_1analysis_1_1physics_1_1_etap_dalitz_1_1_sig_tree__t.html" target="_top" xlink:title="ant::analysis::physics\l::EtapDalitz::SigTree_t">
<polygon fill="white" stroke="black" points="293,-0 293,-34 409,-34 409,-0 293,-0"/>
<text text-anchor="start" x="301" y="-21" font-family="Helvetica,sans-Serif" font-size="10.00">ant::analysis::physics</text>
<text text-anchor="middle" x="351" y="-8" font-family="Helvetica,sans-Serif" font-size="10.00">::EtapDalitz::SigTree_t</text>
</a>
</g>
<!-- Node0&#45;&gt;Node3 -->
<g id="edge6" class="edge"><title>Node0&#45;&gt;Node3</title>
<path fill="none" stroke="midnightblue" d="M266.351,-30.5857C275.3,-29.1493 284.309,-27.7034 292.94,-26.3183"/>
<polygon fill="midnightblue" stroke="midnightblue" points="265.614,-27.159 256.295,-32.1995 266.724,-34.0706 265.614,-27.159"/>
</g>
<!-- Node1 -->
<g id="node2" class="node"><title>Node1</title>
<a xlink:href="classant_1_1_wrap_t_tree.html" target="_top" xlink:title="The WrapTTree struct simplifies TTree handling in physics classes. ">
<polygon fill="white" stroke="black" points="0.5,-32.5 0.5,-53.5 85.5,-53.5 85.5,-32.5 0.5,-32.5"/>
<text text-anchor="middle" x="43" y="-40.5" font-family="Helvetica,sans-Serif" font-size="10.00">ant::WrapTTree</text>
</a>
</g>
<!-- Node1&#45;&gt;Node0 -->
<g id="edge2" class="edge"><title>Node1&#45;&gt;Node0</title>
<path fill="none" stroke="midnightblue" d="M95.7406,-43C104.226,-43 113.107,-43 121.875,-43"/>
<polygon fill="midnightblue" stroke="midnightblue" points="95.6218,-39.5001 85.6217,-43 95.6217,-46.5001 95.6218,-39.5001"/>
</g>
</g>
</svg>
