<?xml version="1.0" encoding="UTF-8" standalone="no"?>
<!DOCTYPE svg PUBLIC "-//W3C//DTD SVG 1.1//EN"
 "http://www.w3.org/Graphics/SVG/1.1/DTD/svg11.dtd">
<!-- Generated by graphviz version 2.26.3 (20100126.1600)
 -->
<!-- Title: ant::analysis::physics::singlePi0::named_channel_t Pages: 1 -->
<svg width="152pt" height="190pt"
 viewBox="0.00 0.00 152.00 190.00" xmlns="http://www.w3.org/2000/svg" xmlns:xlink="http://www.w3.org/1999/xlink">
<g id="graph1" class="graph" transform="scale(1 1) rotate(0) translate(4 186)">
<title>ant::analysis::physics::singlePi0::named_channel_t</title>
<polygon fill="white" stroke="white" points="-4,5 -4,-186 149,-186 149,5 -4,5"/>
<!-- Node1 -->
<g id="node1" class="node"><title>Node1</title>
<polygon fill="#bfbfbf" stroke="black" points="-0.5,-1 -0.5,-35 144.5,-35 144.5,-1 -0.5,-1"/>
<text text-anchor="start" x="7.5" y="-22" font-family="Helvetica,sans-Serif" font-size="10.00">ant::analysis::physics</text>
<text text-anchor="middle" x="72" y="-9" font-family="Helvetica,sans-Serif" font-size="10.00">::singlePi0::named_channel_t</text>
</g>
<!-- Node2 -->
<g id="node2" class="node"><title>Node2</title>
<a xlink:title="STL class. ">
<polygon fill="white" stroke="#bfbfbf" points="42,-86.5 42,-107.5 102,-107.5 102,-86.5 42,-86.5"/>
<text text-anchor="middle" x="72" y="-94.5" font-family="Helvetica,sans-Serif" font-size="10.00">std::string</text>
</a>
</g>
<!-- Node2&#45;&gt;Node1 -->
<g id="edge2" class="edge"><title>Node2&#45;&gt;Node1</title>
<path fill="none" stroke="#9a32cd" stroke-dasharray="5,2" d="M72,-76.1618C72,-63.3635 72,-47.1713 72,-35.1236"/>
<polygon fill="#9a32cd" stroke="#9a32cd" points="68.5001,-76.3457 72,-86.3457 75.5001,-76.3457 68.5001,-76.3457"/>
<text text-anchor="middle" x="87" y="-58.5" font-family="Helvetica,sans-Serif" font-size="10.00"> Name</text>
</g>
<!-- Node3 -->
<g id="node4" class="node"><title>Node3</title>
<a xlink:title="STL class. ">
<polygon fill="white" stroke="#bfbfbf" points="24.5,-147 24.5,-181 119.5,-181 119.5,-147 24.5,-147"/>
<text text-anchor="start" x="32.5" y="-168" font-family="Helvetica,sans-Serif" font-size="10.00">std::basic_string&lt;</text>
<text text-anchor="middle" x="72" y="-155" font-family="Helvetica,sans-Serif" font-size="10.00"> char &gt;</text>
</a>
</g>
<!-- Node3&#45;&gt;Node2 -->
<g id="edge4" class="edge"><title>Node3&#45;&gt;Node2</title>
<path fill="none" stroke="midnightblue" d="M72,-136.534C72,-126.306 72,-115.301 72,-107.506"/>
<polygon fill="midnightblue" stroke="midnightblue" points="68.5001,-136.746 72,-146.746 75.5001,-136.746 68.5001,-136.746"/>
</g>
</g>
</svg>
