<?xml version="1.0" encoding="UTF-8" standalone="no"?>
<!DOCTYPE svg PUBLIC "-//W3C//DTD SVG 1.1//EN"
 "http://www.w3.org/Graphics/SVG/1.1/DTD/svg11.dtd">
<!-- Generated by graphviz version 2.26.3 (20100126.1600)
 -->
<!-- Title: ant::analysis::physics::singlePi0 Pages: 1 -->
<svg width="1170pt" height="631pt"
 viewBox="0.00 0.00 1170.00 631.00" xmlns="http://www.w3.org/2000/svg" xmlns:xlink="http://www.w3.org/1999/xlink">
<g id="graph1" class="graph" transform="scale(1 1) rotate(0) translate(4 627)">
<title>ant::analysis::physics::singlePi0</title>
<polygon fill="white" stroke="white" points="-4,5 -4,-627 1167,-627 1167,5 -4,5"/>
<!-- Node2 -->
<g id="node1" class="node"><title>Node2</title>
<polygon fill="#bfbfbf" stroke="black" points="1050,-243 1050,-277 1162,-277 1162,-243 1050,-243"/>
<text text-anchor="start" x="1058" y="-264" font-family="Helvetica,sans-Serif" font-size="10.00">ant::analysis::physics</text>
<text text-anchor="middle" x="1106" y="-251" font-family="Helvetica,sans-Serif" font-size="10.00">::singlePi0</text>
</g>
<!-- Node3 -->
<g id="node2" class="node"><title>Node3</title>
<a xlink:href="classant_1_1analysis_1_1_physics.html" target="_top" xlink:title="ant::analysis::Physics">
<polygon fill="white" stroke="black" points="802.5,-566.5 802.5,-587.5 915.5,-587.5 915.5,-566.5 802.5,-566.5"/>
<text text-anchor="middle" x="859" y="-574.5" font-family="Helvetica,sans-Serif" font-size="10.00">ant::analysis::Physics</text>
</a>
</g>
<!-- Node3&#45;&gt;Node2 -->
<g id="edge2" class="edge"><title>Node3&#45;&gt;Node2</title>
<path fill="none" stroke="midnightblue" d="M920.638,-563.707C957.669,-552.726 1003.07,-533.502 1032,-501 1062.56,-466.674 1092.78,-326.492 1102.65,-277.223"/>
<polygon fill="midnightblue" stroke="midnightblue" points="919.597,-560.364 910.929,-566.457 921.504,-567.099 919.597,-560.364"/>
</g>
<!-- Node4 -->
<g id="node4" class="node"><title>Node4</title>
<a xlink:href="classant_1_1analysis_1_1_histogram_factory.html" target="_top" xlink:title="ant::analysis::Histogram\lFactory">
<polygon fill="white" stroke="black" points="487.5,-589 487.5,-623 610.5,-623 610.5,-589 487.5,-589"/>
<text text-anchor="start" x="495.5" y="-610" font-family="Helvetica,sans-Serif" font-size="10.00">ant::analysis::Histogram</text>
<text text-anchor="middle" x="549" y="-597" font-family="Helvetica,sans-Serif" font-size="10.00">Factory</text>
</a>
</g>
<!-- Node4&#45;&gt;Node3 -->
<g id="edge4" class="edge"><title>Node4&#45;&gt;Node3</title>
<path fill="none" stroke="#9a32cd" stroke-dasharray="5,2" d="M620.695,-599.293C675.983,-594.121 751.387,-587.067 802.458,-582.289"/>
<polygon fill="#9a32cd" stroke="#9a32cd" points="620.247,-595.82 610.617,-600.236 620.899,-602.789 620.247,-595.82"/>
<text text-anchor="middle" x="704" y="-601" font-family="Helvetica,sans-Serif" font-size="10.00"> HistFac</text>
</g>
<!-- Node5 -->
<g id="node6" class="node"><title>Node5</title>
<a xlink:href="classant_1_1analysis_1_1utils_1_1_a2_simple_geometry.html" target="_top" xlink:title="ant::analysis::utils\l::A2SimpleGeometry">
<polygon fill="white" stroke="black" points="350.5,-198 350.5,-232 457.5,-232 457.5,-198 350.5,-198"/>
<text text-anchor="start" x="358.5" y="-219" font-family="Helvetica,sans-Serif" font-size="10.00">ant::analysis::utils</text>
<text text-anchor="middle" x="404" y="-206" font-family="Helvetica,sans-Serif" font-size="10.00">::A2SimpleGeometry</text>
</a>
</g>
<!-- Node5&#45;&gt;Node2 -->
<g id="edge6" class="edge"><title>Node5&#45;&gt;Node2</title>
<path fill="none" stroke="#9a32cd" stroke-dasharray="5,2" d="M467.898,-214.988C567.338,-215.489 765.053,-218.572 932,-234 971.538,-237.654 1015.79,-244.301 1049.77,-249.96"/>
<polygon fill="#9a32cd" stroke="#9a32cd" points="467.731,-211.487 457.716,-214.944 467.7,-218.487 467.731,-211.487"/>
<text text-anchor="middle" x="704" y="-226" font-family="Helvetica,sans-Serif" font-size="10.00"> geometry</text>
</g>
<!-- Node6 -->
<g id="node8" class="node"><title>Node6</title>
<a xlink:href="classant_1_1interval.html" target="_top" xlink:title="ant::interval\&lt; double \&gt;">
<polygon fill="white" stroke="black" points="0,-266.5 0,-287.5 114,-287.5 114,-266.5 0,-266.5"/>
<text text-anchor="middle" x="57" y="-274.5" font-family="Helvetica,sans-Serif" font-size="10.00">ant::interval&lt; double &gt;</text>
</a>
</g>
<!-- Node6&#45;&gt;Node5 -->
<g id="edge8" class="edge"><title>Node6&#45;&gt;Node5</title>
<path fill="none" stroke="#9a32cd" stroke-dasharray="5,2" d="M74.445,-259.338C88.594,-246.313 109.775,-229.594 132,-222 204.527,-197.219 294.38,-201.038 350.463,-207.159"/>
<polygon fill="#9a32cd" stroke="#9a32cd" points="71.7816,-257.042 66.9721,-266.482 76.6189,-262.101 71.7816,-257.042"/>
<text text-anchor="middle" x="167" y="-252" font-family="Helvetica,sans-Serif" font-size="10.00"> cb_phi_hem1</text>
<text text-anchor="middle" x="167" y="-239" font-family="Helvetica,sans-Serif" font-size="10.00">cb_theta_region</text>
<text text-anchor="middle" x="167" y="-226" font-family="Helvetica,sans-Serif" font-size="10.00">taps_region</text>
</g>
<!-- Node16 -->
<g id="node28" class="node"><title>Node16</title>
<a xlink:href="structant_1_1analysis_1_1physics_1_1single_pi0_1_1settings__t.html" target="_top" xlink:title="ant::analysis::physics\l::singlePi0::settings_t">
<polygon fill="white" stroke="black" points="493,-296 493,-330 605,-330 605,-296 493,-296"/>
<text text-anchor="start" x="501" y="-317" font-family="Helvetica,sans-Serif" font-size="10.00">ant::analysis::physics</text>
<text text-anchor="middle" x="549" y="-304" font-family="Helvetica,sans-Serif" font-size="10.00">::singlePi0::settings_t</text>
</a>
</g>
<!-- Node6&#45;&gt;Node16 -->
<g id="edge34" class="edge"><title>Node6&#45;&gt;Node16</title>
<path fill="none" stroke="#9a32cd" stroke-dasharray="5,2" d="M124.326,-287.156C126.915,-287.457 129.48,-287.74 132,-288 260.776,-301.279 412.706,-308.195 492.894,-311.165"/>
<polygon fill="#9a32cd" stroke="#9a32cd" points="124.618,-283.666 114.265,-285.915 123.761,-290.613 124.618,-283.666"/>
<text text-anchor="middle" x="276" y="-372" font-family="Helvetica,sans-Serif" font-size="10.00"> Range_Prompt</text>
<text text-anchor="middle" x="276" y="-359" font-family="Helvetica,sans-Serif" font-size="10.00">Cut_EMB_prob</text>
<text text-anchor="middle" x="276" y="-346" font-family="Helvetica,sans-Serif" font-size="10.00">Cut_MMAngle</text>
<text text-anchor="middle" x="276" y="-333" font-family="Helvetica,sans-Serif" font-size="10.00">Cut_MM</text>
<text text-anchor="middle" x="276" y="-320" font-family="Helvetica,sans-Serif" font-size="10.00">Cut_ProtonCopl</text>
<text text-anchor="middle" x="276" y="-307" font-family="Helvetica,sans-Serif" font-size="10.00">Cut_IM</text>
</g>
<!-- Node17 -->
<g id="node30" class="node"><title>Node17</title>
<polygon fill="white" stroke="#bfbfbf" points="224,-243 224,-277 328,-277 328,-243 224,-243"/>
<text text-anchor="start" x="232" y="-264" font-family="Helvetica,sans-Serif" font-size="10.00">std::vector&lt; interval</text>
<text text-anchor="middle" x="276" y="-251" font-family="Helvetica,sans-Serif" font-size="10.00">&lt; double &gt; &gt;</text>
</g>
<!-- Node6&#45;&gt;Node17 -->
<g id="edge32" class="edge"><title>Node6&#45;&gt;Node17</title>
<path fill="none" stroke="#9a32cd" stroke-dasharray="5,2" d="M124.438,-271.765C156.47,-269.279 194.166,-266.352 223.95,-264.04"/>
<polygon fill="#9a32cd" stroke="#9a32cd" points="123.953,-268.292 114.254,-272.556 124.495,-275.271 123.953,-268.292"/>
<text text-anchor="middle" x="167" y="-275" font-family="Helvetica,sans-Serif" font-size="10.00"> elements</text>
</g>
<!-- Node7 -->
<g id="node10" class="node"><title>Node7</title>
<a xlink:href="classant_1_1analysis_1_1utils_1_1_kin_fitter.html" target="_top" xlink:title="ant::analysis::utils\l::KinFitter">
<polygon fill="white" stroke="black" points="811,-481 811,-515 907,-515 907,-481 811,-481"/>
<text text-anchor="start" x="819" y="-502" font-family="Helvetica,sans-Serif" font-size="10.00">ant::analysis::utils</text>
<text text-anchor="middle" x="859" y="-489" font-family="Helvetica,sans-Serif" font-size="10.00">::KinFitter</text>
</a>
</g>
<!-- Node7&#45;&gt;Node2 -->
<g id="edge10" class="edge"><title>Node7&#45;&gt;Node2</title>
<path fill="none" stroke="#9a32cd" stroke-dasharray="5,2" d="M917.259,-491.782C954.187,-485.059 1000.72,-471.074 1032,-442 1081.22,-396.254 1098.51,-313.138 1103.86,-277.256"/>
<polygon fill="#9a32cd" stroke="#9a32cd" points="916.397,-488.378 907.119,-493.492 917.561,-495.28 916.397,-488.378"/>
<text text-anchor="middle" x="991" y="-488" font-family="Helvetica,sans-Serif" font-size="10.00"> fitterEMB</text>
</g>
<!-- Node8 -->
<g id="node12" class="node"><title>Node8</title>
<a xlink:href="classant_1_1analysis_1_1utils_1_1_fitter.html" target="_top" xlink:title="ant::analysis::utils\l::Fitter">
<polygon fill="white" stroke="black" points="501,-485 501,-519 597,-519 597,-485 501,-485"/>
<text text-anchor="start" x="509" y="-506" font-family="Helvetica,sans-Serif" font-size="10.00">ant::analysis::utils</text>
<text text-anchor="middle" x="549" y="-493" font-family="Helvetica,sans-Serif" font-size="10.00">::Fitter</text>
</a>
</g>
<!-- Node8&#45;&gt;Node7 -->
<g id="edge12" class="edge"><title>Node8&#45;&gt;Node7</title>
<path fill="none" stroke="midnightblue" d="M607.343,-501.247C666.158,-500.488 755.874,-499.331 810.79,-498.622"/>
<polygon fill="midnightblue" stroke="midnightblue" points="607.051,-497.751 597.097,-501.379 607.142,-504.75 607.051,-497.751"/>
</g>
<!-- Node9 -->
<g id="node14" class="node"><title>Node9</title>
<a xlink:href="structant_1_1analysis_1_1utils_1_1_kin_fitter_1_1_beam_e__t.html" target="_top" xlink:title="ant::analysis::utils\l::KinFitter::BeamE_t">
<polygon fill="white" stroke="black" points="496,-537 496,-571 602,-571 602,-537 496,-537"/>
<text text-anchor="start" x="504" y="-558" font-family="Helvetica,sans-Serif" font-size="10.00">ant::analysis::utils</text>
<text text-anchor="middle" x="549" y="-545" font-family="Helvetica,sans-Serif" font-size="10.00">::KinFitter::BeamE_t</text>
</a>
</g>
<!-- Node9&#45;&gt;Node7 -->
<g id="edge14" class="edge"><title>Node9&#45;&gt;Node7</title>
<path fill="none" stroke="#9a32cd" stroke-dasharray="5,2" d="M612.22,-542.58C671.093,-531.944 757.577,-516.322 810.981,-506.674"/>
<polygon fill="#9a32cd" stroke="#9a32cd" points="611.509,-539.151 602.291,-544.373 612.754,-546.04 611.509,-539.151"/>
<text text-anchor="middle" x="704" y="-541" font-family="Helvetica,sans-Serif" font-size="10.00"> BeamE</text>
</g>
<!-- Node10 -->
<g id="node16" class="node"><title>Node10</title>
<a xlink:href="structant_1_1analysis_1_1utils_1_1_fitter_1_1_v___s___p__t.html" target="_top" xlink:title="ant::analysis::utils\l::Fitter::V_S_P_t">
<polygon fill="white" stroke="black" points="228,-537 228,-571 324,-571 324,-537 228,-537"/>
<text text-anchor="start" x="236" y="-558" font-family="Helvetica,sans-Serif" font-size="10.00">ant::analysis::utils</text>
<text text-anchor="middle" x="276" y="-545" font-family="Helvetica,sans-Serif" font-size="10.00">::Fitter::V_S_P_t</text>
</a>
</g>
<!-- Node10&#45;&gt;Node9 -->
<g id="edge16" class="edge"><title>Node10&#45;&gt;Node9</title>
<path fill="none" stroke="midnightblue" d="M334.379,-554C382.203,-554 449.316,-554 495.702,-554"/>
<polygon fill="midnightblue" stroke="midnightblue" points="334.179,-550.5 324.178,-554 334.178,-557.5 334.179,-550.5"/>
</g>
<!-- Node11 -->
<g id="node18" class="node"><title>Node11</title>
<a xlink:href="structant_1_1analysis_1_1utils_1_1_fitter_1_1_v___s__t.html" target="_top" xlink:title="ant::analysis::utils\l::Fitter::V_S_t">
<polygon fill="white" stroke="black" points="9,-537 9,-571 105,-571 105,-537 9,-537"/>
<text text-anchor="start" x="17" y="-558" font-family="Helvetica,sans-Serif" font-size="10.00">ant::analysis::utils</text>
<text text-anchor="middle" x="57" y="-545" font-family="Helvetica,sans-Serif" font-size="10.00">::Fitter::V_S_t</text>
</a>
</g>
<!-- Node11&#45;&gt;Node10 -->
<g id="edge18" class="edge"><title>Node11&#45;&gt;Node10</title>
<path fill="none" stroke="midnightblue" d="M115.173,-554C150.285,-554 194.496,-554 227.674,-554"/>
<polygon fill="midnightblue" stroke="midnightblue" points="115.061,-550.5 105.06,-554 115.06,-557.5 115.061,-550.5"/>
</g>
<!-- Node12 -->
<g id="node20" class="node"><title>Node12</title>
<polygon fill="white" stroke="#bfbfbf" points="486.5,-445.5 486.5,-466.5 611.5,-466.5 611.5,-445.5 486.5,-445.5"/>
<text text-anchor="middle" x="549" y="-453.5" font-family="Helvetica,sans-Serif" font-size="10.00">std::vector&lt; FitParticle &gt;</text>
</g>
<!-- Node12&#45;&gt;Node7 -->
<g id="edge20" class="edge"><title>Node12&#45;&gt;Node7</title>
<path fill="none" stroke="#9a32cd" stroke-dasharray="5,2" d="M621.915,-463.624C664.575,-468.343 719.43,-474.853 768,-482 781.966,-484.055 797.083,-486.588 810.91,-489.027"/>
<polygon fill="#9a32cd" stroke="#9a32cd" points="622.222,-460.137 611.9,-462.525 621.458,-467.095 622.222,-460.137"/>
<text text-anchor="middle" x="704" y="-486" font-family="Helvetica,sans-Serif" font-size="10.00"> Photons</text>
</g>
<!-- Node13 -->
<g id="node22" class="node"><title>Node13</title>
<a xlink:href="structant_1_1analysis_1_1physics_1_1single_pi0_1_1named__channel__t.html" target="_top" xlink:title="ant::analysis::physics\l::singlePi0::named_channel_t">
<polygon fill="white" stroke="black" points="476.5,-393 476.5,-427 621.5,-427 621.5,-393 476.5,-393"/>
<text text-anchor="start" x="484.5" y="-414" font-family="Helvetica,sans-Serif" font-size="10.00">ant::analysis::physics</text>
<text text-anchor="middle" x="549" y="-401" font-family="Helvetica,sans-Serif" font-size="10.00">::singlePi0::named_channel_t</text>
</a>
</g>
<!-- Node13&#45;&gt;Node2 -->
<g id="edge22" class="edge"><title>Node13&#45;&gt;Node2</title>
<path fill="none" stroke="#9a32cd" stroke-dasharray="5,2" d="M631.957,-427.738C736.089,-444.989 915.184,-457.453 1032,-371 1065.32,-346.337 1088.23,-301.895 1098.99,-277.392"/>
<polygon fill="#9a32cd" stroke="#9a32cd" points="632.256,-424.239 621.809,-426.003 631.076,-431.139 632.256,-424.239"/>
<text text-anchor="middle" x="859" y="-457" font-family="Helvetica,sans-Serif" font-size="10.00"> signal</text>
<text text-anchor="middle" x="859" y="-444" font-family="Helvetica,sans-Serif" font-size="10.00">mainBackground</text>
</g>
<!-- Node22 -->
<g id="node43" class="node"><title>Node22</title>
<polygon fill="white" stroke="#bfbfbf" points="790.5,-344.5 790.5,-391.5 927.5,-391.5 927.5,-344.5 790.5,-344.5"/>
<text text-anchor="start" x="798.5" y="-378.5" font-family="Helvetica,sans-Serif" font-size="10.00">std::vector&lt; ant::analysis</text>
<text text-anchor="start" x="798.5" y="-365.5" font-family="Helvetica,sans-Serif" font-size="10.00">::physics::singlePi0::named</text>
<text text-anchor="middle" x="859" y="-352.5" font-family="Helvetica,sans-Serif" font-size="10.00">_channel_t &gt;</text>
</g>
<!-- Node13&#45;&gt;Node22 -->
<g id="edge48" class="edge"><title>Node13&#45;&gt;Node22</title>
<path fill="none" stroke="#9a32cd" stroke-dasharray="5,2" d="M631.743,-398.79C681.345,-392.069 743.666,-383.626 790.494,-377.281"/>
<polygon fill="#9a32cd" stroke="#9a32cd" points="631.121,-395.342 621.681,-400.153 632.061,-402.279 631.121,-395.342"/>
<text text-anchor="middle" x="704" y="-401" font-family="Helvetica,sans-Serif" font-size="10.00"> elements</text>
</g>
<!-- Node14 -->
<g id="node24" class="node"><title>Node14</title>
<a xlink:title="STL class. ">
<polygon fill="white" stroke="#bfbfbf" points="246,-449.5 246,-470.5 306,-470.5 306,-449.5 246,-449.5"/>
<text text-anchor="middle" x="276" y="-457.5" font-family="Helvetica,sans-Serif" font-size="10.00">std::string</text>
</a>
</g>
<!-- Node14&#45;&gt;Node13 -->
<g id="edge24" class="edge"><title>Node14&#45;&gt;Node13</title>
<path fill="none" stroke="#9a32cd" stroke-dasharray="5,2" d="M316.625,-457.174C353.736,-454.101 409.972,-448.207 458,-438 471.582,-435.114 486.048,-431.107 499.356,-427.026"/>
<polygon fill="#9a32cd" stroke="#9a32cd" points="315.911,-453.72 306.221,-458.003 316.467,-460.698 315.911,-453.72"/>
<text text-anchor="middle" x="404" y="-458" font-family="Helvetica,sans-Serif" font-size="10.00"> Name</text>
</g>
<!-- Node14&#45;&gt;Node16 -->
<g id="edge36" class="edge"><title>Node14&#45;&gt;Node16</title>
<path fill="none" stroke="#9a32cd" stroke-dasharray="5,2" d="M315.778,-448.44C321.433,-446.052 327.014,-443.251 332,-440 341.744,-433.647 339.755,-426.508 350,-421 392.927,-397.922 414.765,-424.496 458,-402 468.036,-396.778 467.945,-391.944 476,-384 494.756,-365.503 516.408,-344.486 531.232,-330.148"/>
<polygon fill="#9a32cd" stroke="#9a32cd" points="314.37,-445.232 306.284,-452.078 316.875,-451.768 314.37,-445.232"/>
<text text-anchor="middle" x="404" y="-425" font-family="Helvetica,sans-Serif" font-size="10.00"> Tree_Name</text>
</g>
<!-- Node15 -->
<g id="node26" class="node"><title>Node15</title>
<a xlink:title="STL class. ">
<polygon fill="white" stroke="#bfbfbf" points="9.5,-443 9.5,-477 104.5,-477 104.5,-443 9.5,-443"/>
<text text-anchor="start" x="17.5" y="-464" font-family="Helvetica,sans-Serif" font-size="10.00">std::basic_string&lt;</text>
<text text-anchor="middle" x="57" y="-451" font-family="Helvetica,sans-Serif" font-size="10.00"> char &gt;</text>
</a>
</g>
<!-- Node15&#45;&gt;Node14 -->
<g id="edge26" class="edge"><title>Node15&#45;&gt;Node14</title>
<path fill="none" stroke="midnightblue" d="M114.632,-460C156.689,-460 212.02,-460 245.748,-460"/>
<polygon fill="midnightblue" stroke="midnightblue" points="114.52,-456.5 104.52,-460 114.52,-463.5 114.52,-456.5"/>
</g>
<!-- Node16&#45;&gt;Node2 -->
<g id="edge28" class="edge"><title>Node16&#45;&gt;Node2</title>
<path fill="none" stroke="#9a32cd" stroke-dasharray="5,2" d="M615.289,-311.552C708.743,-308.721 884.323,-300.497 1032,-277 1037.86,-276.068 1043.94,-274.938 1049.99,-273.709"/>
<polygon fill="#9a32cd" stroke="#9a32cd" points="615.024,-308.059 605.131,-311.849 615.228,-315.056 615.024,-308.059"/>
<text text-anchor="middle" x="859" y="-306" font-family="Helvetica,sans-Serif" font-size="10.00"> phSettings</text>
</g>
<!-- Node17&#45;&gt;Node16 -->
<g id="edge30" class="edge"><title>Node17&#45;&gt;Node16</title>
<path fill="none" stroke="#9a32cd" stroke-dasharray="5,2" d="M338.308,-266.609C373.644,-270.929 418.551,-277.379 458,-286 470.557,-288.744 483.911,-292.323 496.409,-295.973"/>
<polygon fill="#9a32cd" stroke="#9a32cd" points="338.483,-263.105 328.138,-265.393 337.652,-270.056 338.483,-263.105"/>
<text text-anchor="middle" x="404" y="-290" font-family="Helvetica,sans-Serif" font-size="10.00"> Ranges_Random</text>
</g>
<!-- Node26 -->
<g id="node54" class="node"><title>Node26</title>
<a xlink:href="classant_1_1_piecewise_interval.html" target="_top" xlink:title="ant::PiecewiseInterval\l\&lt; double \&gt;">
<polygon fill="white" stroke="black" points="492.5,-243 492.5,-277 605.5,-277 605.5,-243 492.5,-243"/>
<text text-anchor="start" x="500.5" y="-264" font-family="Helvetica,sans-Serif" font-size="10.00">ant::PiecewiseInterval</text>
<text text-anchor="middle" x="549" y="-251" font-family="Helvetica,sans-Serif" font-size="10.00">&lt; double &gt;</text>
</a>
</g>
<!-- Node17&#45;&gt;Node26 -->
<g id="edge62" class="edge"><title>Node17&#45;&gt;Node26</title>
<path fill="none" stroke="midnightblue" d="M338.518,-260C384.783,-260 447.295,-260 492.154,-260"/>
<polygon fill="midnightblue" stroke="midnightblue" points="338.314,-256.5 328.314,-260 338.314,-263.5 338.314,-256.5"/>
</g>
<!-- Node18 -->
<g id="node35" class="node"><title>Node18</title>
<a xlink:href="classant_1_1interval.html" target="_top" xlink:title="ant::interval\&lt; size_t \&gt;">
<polygon fill="white" stroke="black" points="220,-409.5 220,-430.5 332,-430.5 332,-409.5 220,-409.5"/>
<text text-anchor="middle" x="276" y="-417.5" font-family="Helvetica,sans-Serif" font-size="10.00">ant::interval&lt; size_t &gt;</text>
</a>
</g>
<!-- Node18&#45;&gt;Node16 -->
<g id="edge38" class="edge"><title>Node18&#45;&gt;Node16</title>
<path fill="none" stroke="#9a32cd" stroke-dasharray="5,2" d="M309.799,-405.574C322.383,-400.274 336.81,-394.28 350,-389 402.187,-368.11 462.558,-345.234 502.995,-330.095"/>
<polygon fill="#9a32cd" stroke="#9a32cd" points="308.434,-402.352 300.586,-409.469 311.159,-408.799 308.434,-402.352"/>
<text text-anchor="middle" x="404" y="-393" font-family="Helvetica,sans-Serif" font-size="10.00"> Cut_NCands</text>
</g>
<!-- Node19 -->
<g id="node37" class="node"><title>Node19</title>
<a xlink:href="structant_1_1analysis_1_1physics_1_1single_pi0_1_1_seen_tree.html" target="_top" xlink:title="ant::analysis::physics\l::singlePi0::SeenTree">
<polygon fill="white" stroke="black" points="803,-52 803,-86 915,-86 915,-52 803,-52"/>
<text text-anchor="start" x="811" y="-73" font-family="Helvetica,sans-Serif" font-size="10.00">ant::analysis::physics</text>
<text text-anchor="middle" x="859" y="-60" font-family="Helvetica,sans-Serif" font-size="10.00">::singlePi0::SeenTree</text>
</a>
</g>
<!-- Node19&#45;&gt;Node2 -->
<g id="edge40" class="edge"><title>Node19&#45;&gt;Node2</title>
<path fill="none" stroke="#9a32cd" stroke-dasharray="5,2" d="M925.479,-68.167C960.384,-70.9235 1002.01,-79.6185 1032,-103 1077.98,-138.85 1096.73,-210.203 1103.14,-242.906"/>
<polygon fill="#9a32cd" stroke="#9a32cd" points="925.561,-64.6651 915.357,-67.5159 925.111,-71.6507 925.561,-64.6651"/>
<text text-anchor="middle" x="991" y="-107" font-family="Helvetica,sans-Serif" font-size="10.00"> seenSignal</text>
</g>
<!-- Node20 -->
<g id="node39" class="node"><title>Node20</title>
<a xlink:href="structant_1_1analysis_1_1physics_1_1single_pi0_1_1eff_tree__t.html" target="_top" xlink:title="ant::analysis::physics\l::singlePi0::effTree_t">
<polygon fill="white" stroke="black" points="493,-104 493,-138 605,-138 605,-104 493,-104"/>
<text text-anchor="start" x="501" y="-125" font-family="Helvetica,sans-Serif" font-size="10.00">ant::analysis::physics</text>
<text text-anchor="middle" x="549" y="-112" font-family="Helvetica,sans-Serif" font-size="10.00">::singlePi0::effTree_t</text>
</a>
</g>
<!-- Node20&#45;&gt;Node19 -->
<g id="edge42" class="edge"><title>Node20&#45;&gt;Node19</title>
<path fill="none" stroke="midnightblue" d="M615.276,-109.883C671.072,-100.523 749.995,-87.2847 802.756,-78.4345"/>
<polygon fill="midnightblue" stroke="midnightblue" points="614.422,-106.477 605.139,-111.583 615.58,-113.381 614.422,-106.477"/>
</g>
<!-- Node23 -->
<g id="node46" class="node"><title>Node23</title>
<a xlink:href="structant_1_1analysis_1_1physics_1_1single_pi0_1_1_rec_tree.html" target="_top" xlink:title="ant::analysis::physics\l::singlePi0::RecTree">
<polygon fill="white" stroke="black" points="803,-104 803,-138 915,-138 915,-104 803,-104"/>
<text text-anchor="start" x="811" y="-125" font-family="Helvetica,sans-Serif" font-size="10.00">ant::analysis::physics</text>
<text text-anchor="middle" x="859" y="-112" font-family="Helvetica,sans-Serif" font-size="10.00">::singlePi0::RecTree</text>
</a>
</g>
<!-- Node20&#45;&gt;Node23 -->
<g id="edge52" class="edge"><title>Node20&#45;&gt;Node23</title>
<path fill="none" stroke="midnightblue" d="M615.276,-121C671.072,-121 749.995,-121 802.756,-121"/>
<polygon fill="midnightblue" stroke="midnightblue" points="615.139,-117.5 605.139,-121 615.139,-124.5 615.139,-117.5"/>
</g>
<!-- Node21 -->
<g id="node41" class="node"><title>Node21</title>
<a xlink:href="classant_1_1_wrap_t_tree.html" target="_top" xlink:title="The WrapTTree struct simplifies TTree handling in physics classes. ">
<polygon fill="white" stroke="black" points="233.5,-139.5 233.5,-160.5 318.5,-160.5 318.5,-139.5 233.5,-139.5"/>
<text text-anchor="middle" x="276" y="-147.5" font-family="Helvetica,sans-Serif" font-size="10.00">ant::WrapTTree</text>
</a>
</g>
<!-- Node21&#45;&gt;Node20 -->
<g id="edge44" class="edge"><title>Node21&#45;&gt;Node20</title>
<path fill="none" stroke="midnightblue" d="M328.668,-144.405C375.823,-139.396 444.763,-132.073 492.931,-126.956"/>
<polygon fill="midnightblue" stroke="midnightblue" points="328.231,-140.932 318.656,-145.469 328.97,-147.893 328.231,-140.932"/>
</g>
<!-- Node24 -->
<g id="node49" class="node"><title>Node24</title>
<a xlink:href="structant_1_1analysis_1_1physics_1_1single_pi0_1_1_pion_prod_tree.html" target="_top" xlink:title="ant::analysis::physics\l::singlePi0::PionProdTree">
<polygon fill="white" stroke="black" points="640,-153 640,-187 768,-187 768,-153 640,-153"/>
<text text-anchor="start" x="648" y="-174" font-family="Helvetica,sans-Serif" font-size="10.00">ant::analysis::physics</text>
<text text-anchor="middle" x="704" y="-161" font-family="Helvetica,sans-Serif" font-size="10.00">::singlePi0::PionProdTree</text>
</a>
</g>
<!-- Node21&#45;&gt;Node24 -->
<g id="edge56" class="edge"><title>Node21&#45;&gt;Node24</title>
<path fill="none" stroke="midnightblue" d="M328.761,-152.465C407.369,-156.139 555.043,-163.039 639.805,-167"/>
<polygon fill="midnightblue" stroke="midnightblue" points="328.756,-148.961 318.603,-151.991 328.429,-155.954 328.756,-148.961"/>
</g>
<!-- Node22&#45;&gt;Node2 -->
<g id="edge46" class="edge"><title>Node22&#45;&gt;Node2</title>
<path fill="none" stroke="#9a32cd" stroke-dasharray="5,2" d="M937.343,-358.037C968.094,-351.966 1002.91,-342.3 1032,-327 1055.77,-314.494 1077.89,-292.571 1091.64,-277.218"/>
<polygon fill="#9a32cd" stroke="#9a32cd" points="936.696,-354.597 927.515,-359.884 937.989,-361.477 936.696,-354.597"/>
<text text-anchor="middle" x="991" y="-358" font-family="Helvetica,sans-Serif" font-size="10.00"> otherBackgrounds</text>
</g>
<!-- Node23&#45;&gt;Node2 -->
<g id="edge50" class="edge"><title>Node23&#45;&gt;Node2</title>
<path fill="none" stroke="#9a32cd" stroke-dasharray="5,2" d="M925.649,-118.462C959.824,-120.121 1000.72,-126.945 1032,-147 1067.93,-170.035 1090.17,-217.431 1100.03,-242.907"/>
<polygon fill="#9a32cd" stroke="#9a32cd" points="925.392,-114.951 915.277,-118.103 925.15,-121.946 925.392,-114.951"/>
<text text-anchor="middle" x="991" y="-151" font-family="Helvetica,sans-Serif" font-size="10.00"> recSignal</text>
</g>
<!-- Node24&#45;&gt;Node2 -->
<g id="edge54" class="edge"><title>Node24&#45;&gt;Node2</title>
<path fill="none" stroke="#9a32cd" stroke-dasharray="5,2" d="M778.397,-164.513C846.985,-162.303 950.235,-166.316 1032,-201 1054.69,-210.625 1076.2,-229.226 1090.12,-242.981"/>
<polygon fill="#9a32cd" stroke="#9a32cd" points="777.977,-161.027 768.115,-164.9 778.24,-168.022 777.977,-161.027"/>
<text text-anchor="middle" x="859" y="-176" font-family="Helvetica,sans-Serif" font-size="10.00"> tree</text>
</g>
<!-- Node25 -->
<g id="node52" class="node"><title>Node25</title>
<a xlink:href="classant_1_1analysis_1_1_prompt_random_1_1_switch.html" target="_top" xlink:title="ant::analysis::PromptRandom\l::Switch">
<polygon fill="white" stroke="black" points="786,-243 786,-277 932,-277 932,-243 786,-243"/>
<text text-anchor="start" x="794" y="-264" font-family="Helvetica,sans-Serif" font-size="10.00">ant::analysis::PromptRandom</text>
<text text-anchor="middle" x="859" y="-251" font-family="Helvetica,sans-Serif" font-size="10.00">::Switch</text>
</a>
</g>
<!-- Node25&#45;&gt;Node2 -->
<g id="edge58" class="edge"><title>Node25&#45;&gt;Node2</title>
<path fill="none" stroke="#9a32cd" stroke-dasharray="5,2" d="M942.436,-260C977.852,-260 1018.2,-260 1049.96,-260"/>
<polygon fill="#9a32cd" stroke="#9a32cd" points="942.106,-256.5 932.106,-260 942.106,-263.5 942.106,-256.5"/>
<text text-anchor="middle" x="991" y="-264" font-family="Helvetica,sans-Serif" font-size="10.00"> promptrandom</text>
</g>
<!-- Node26&#45;&gt;Node25 -->
<g id="edge60" class="edge"><title>Node26&#45;&gt;Node25</title>
<path fill="none" stroke="#9a32cd" stroke-dasharray="5,2" d="M615.927,-260C665.96,-260 734.318,-260 785.801,-260"/>
<polygon fill="#9a32cd" stroke="#9a32cd" points="615.859,-256.5 605.859,-260 615.859,-263.5 615.859,-256.5"/>
<text text-anchor="middle" x="704" y="-277" font-family="Helvetica,sans-Serif" font-size="10.00"> promptw</text>
<text text-anchor="middle" x="704" y="-264" font-family="Helvetica,sans-Serif" font-size="10.00">randomw</text>
</g>
<!-- Node27 -->
<g id="node57" class="node"><title>Node27</title>
<a xlink:href="classant_1_1analysis_1_1utils_1_1_trigger_simulation.html" target="_top" xlink:title="ant::analysis::utils\l::TriggerSimulation">
<polygon fill="white" stroke="black" points="810,-0 810,-34 908,-34 908,-0 810,-0"/>
<text text-anchor="start" x="818" y="-21" font-family="Helvetica,sans-Serif" font-size="10.00">ant::analysis::utils</text>
<text text-anchor="middle" x="859" y="-8" font-family="Helvetica,sans-Serif" font-size="10.00">::TriggerSimulation</text>
</a>
</g>
<!-- Node27&#45;&gt;Node2 -->
<g id="edge64" class="edge"><title>Node27&#45;&gt;Node2</title>
<path fill="none" stroke="#9a32cd" stroke-dasharray="5,2" d="M918.395,-16.1516C955.143,-18.695 1001.05,-27.8384 1032,-55 1089.31,-105.291 1102.25,-203.419 1105.16,-242.921"/>
<polygon fill="#9a32cd" stroke="#9a32cd" points="918.469,-12.6505 908.293,-15.5997 918.087,-19.6401 918.469,-12.6505"/>
<text text-anchor="middle" x="991" y="-59" font-family="Helvetica,sans-Serif" font-size="10.00"> triggersimu</text>
</g>
</g>
</svg>
