<?xml version="1.0" encoding="UTF-8" standalone="no"?>
<!DOCTYPE svg PUBLIC "-//W3C//DTD SVG 1.1//EN"
 "http://www.w3.org/Graphics/SVG/1.1/DTD/svg11.dtd">
<!-- Generated by graphviz version 2.26.3 (20100126.1600)
 -->
<!-- Title: ant::analysis::physics::EtapDalitz::ReactionChannelList_t Pages: 1 -->
<svg width="174pt" height="386pt"
 viewBox="0.00 0.00 174.00 386.00" xmlns="http://www.w3.org/2000/svg" xmlns:xlink="http://www.w3.org/1999/xlink">
<g id="graph1" class="graph" transform="scale(1 1) rotate(0) translate(4 382)">
<title>ant::analysis::physics::EtapDalitz::ReactionChannelList_t</title>
<polygon fill="white" stroke="white" points="-4,5 -4,-382 171,-382 171,5 -4,5"/>
<!-- Node1 -->
<g id="node1" class="node"><title>Node1</title>
<polygon fill="#bfbfbf" stroke="black" points="8.5,-0.5 8.5,-47.5 157.5,-47.5 157.5,-0.5 8.5,-0.5"/>
<text text-anchor="start" x="16.5" y="-34.5" font-family="Helvetica,sans-Serif" font-size="10.00">ant::analysis::physics</text>
<text text-anchor="start" x="16.5" y="-21.5" font-family="Helvetica,sans-Serif" font-size="10.00">::EtapDalitz::ReactionChannel</text>
<text text-anchor="middle" x="83" y="-8.5" font-family="Helvetica,sans-Serif" font-size="10.00">List_t</text>
</g>
<!-- Node2 -->
<g id="node2" class="node"><title>Node2</title>
<polygon fill="white" stroke="#bfbfbf" points="-0.5,-98.5 -0.5,-145.5 166.5,-145.5 166.5,-98.5 -0.5,-98.5"/>
<text text-anchor="start" x="7.5" y="-132.5" font-family="Helvetica,sans-Serif" font-size="10.00">std::map&lt; unsigned,</text>
<text text-anchor="start" x="7.5" y="-119.5" font-family="Helvetica,sans-Serif" font-size="10.00"> ant::analysis::physics</text>
<text text-anchor="middle" x="83" y="-106.5" font-family="Helvetica,sans-Serif" font-size="10.00">::EtapDalitz::ReactionChannel_t &gt;</text>
</g>
<!-- Node2&#45;&gt;Node1 -->
<g id="edge2" class="edge"><title>Node2&#45;&gt;Node1</title>
<path fill="none" stroke="#9a32cd" stroke-dasharray="5,2" d="M83,-88.0002C83,-74.6377 83,-59.628 83,-47.5046"/>
<polygon fill="#9a32cd" stroke="#9a32cd" points="79.5001,-88.2769 83,-98.2769 86.5001,-88.277 79.5001,-88.2769"/>
<text text-anchor="middle" x="104.5" y="-70.5" font-family="Helvetica,sans-Serif" font-size="10.00"> channels</text>
</g>
<!-- Node3 -->
<g id="node4" class="node"><title>Node3</title>
<a xlink:href="structant_1_1analysis_1_1physics_1_1_etap_dalitz_1_1_reaction_channel__t.html" target="_top" xlink:title="ant::analysis::physics\l::EtapDalitz::ReactionChannel_t">
<polygon fill="white" stroke="black" points="4,-197 4,-231 162,-231 162,-197 4,-197"/>
<text text-anchor="start" x="12" y="-218" font-family="Helvetica,sans-Serif" font-size="10.00">ant::analysis::physics</text>
<text text-anchor="middle" x="83" y="-205" font-family="Helvetica,sans-Serif" font-size="10.00">::EtapDalitz::ReactionChannel_t</text>
</a>
</g>
<!-- Node3&#45;&gt;Node2 -->
<g id="edge4" class="edge"><title>Node3&#45;&gt;Node2</title>
<path fill="none" stroke="#9a32cd" stroke-dasharray="5,2" d="M83,-186.489C83,-173.547 83,-158.263 83,-145.823"/>
<polygon fill="#9a32cd" stroke="#9a32cd" points="79.5001,-186.695 83,-196.696 86.5001,-186.696 79.5001,-186.695"/>
<text text-anchor="middle" x="104.5" y="-168.5" font-family="Helvetica,sans-Serif" font-size="10.00"> elements</text>
</g>
<!-- Node4 -->
<g id="node6" class="node"><title>Node4</title>
<a xlink:title="STL class. ">
<polygon fill="white" stroke="#bfbfbf" points="53,-282.5 53,-303.5 113,-303.5 113,-282.5 53,-282.5"/>
<text text-anchor="middle" x="83" y="-290.5" font-family="Helvetica,sans-Serif" font-size="10.00">std::string</text>
</a>
</g>
<!-- Node4&#45;&gt;Node3 -->
<g id="edge6" class="edge"><title>Node4&#45;&gt;Node3</title>
<path fill="none" stroke="#9a32cd" stroke-dasharray="5,2" d="M83,-272.162C83,-259.363 83,-243.171 83,-231.124"/>
<polygon fill="#9a32cd" stroke="#9a32cd" points="79.5001,-272.346 83,-282.346 86.5001,-272.346 79.5001,-272.346"/>
<text text-anchor="middle" x="97" y="-254.5" font-family="Helvetica,sans-Serif" font-size="10.00"> name</text>
</g>
<!-- Node5 -->
<g id="node8" class="node"><title>Node5</title>
<a xlink:title="STL class. ">
<polygon fill="white" stroke="#bfbfbf" points="35.5,-343 35.5,-377 130.5,-377 130.5,-343 35.5,-343"/>
<text text-anchor="start" x="43.5" y="-364" font-family="Helvetica,sans-Serif" font-size="10.00">std::basic_string&lt;</text>
<text text-anchor="middle" x="83" y="-351" font-family="Helvetica,sans-Serif" font-size="10.00"> char &gt;</text>
</a>
</g>
<!-- Node5&#45;&gt;Node4 -->
<g id="edge8" class="edge"><title>Node5&#45;&gt;Node4</title>
<path fill="none" stroke="midnightblue" d="M83,-332.534C83,-322.306 83,-311.301 83,-303.506"/>
<polygon fill="midnightblue" stroke="midnightblue" points="79.5001,-332.746 83,-342.746 86.5001,-332.746 79.5001,-332.746"/>
</g>
</g>
</svg>
