<?xml version="1.0" encoding="UTF-8" standalone="no"?>
<!DOCTYPE svg PUBLIC "-//W3C//DTD SVG 1.1//EN"
 "http://www.w3.org/Graphics/SVG/1.1/DTD/svg11.dtd">
<!-- Generated by graphviz version 2.26.3 (20100126.1600)
 -->
<!-- Title: ant::analysis::physics::EtapOmegaG::Sig_t::OmegaPi0_t Pages: 1 -->
<svg width="1720pt" height="439pt"
 viewBox="0.00 0.00 1720.00 439.00" xmlns="http://www.w3.org/2000/svg" xmlns:xlink="http://www.w3.org/1999/xlink">
<g id="graph1" class="graph" transform="scale(1 1) rotate(0) translate(4 435)">
<title>ant::analysis::physics::EtapOmegaG::Sig_t::OmegaPi0_t</title>
<polygon fill="white" stroke="white" points="-4,5 -4,-435 1717,-435 1717,5 -4,5"/>
<!-- Node2 -->
<g id="node1" class="node"><title>Node2</title>
<polygon fill="#bfbfbf" stroke="black" points="1542,-138 1542,-172 1712,-172 1712,-138 1542,-138"/>
<text text-anchor="start" x="1550" y="-159" font-family="Helvetica,sans-Serif" font-size="10.00">ant::analysis::physics</text>
<text text-anchor="middle" x="1627" y="-146" font-family="Helvetica,sans-Serif" font-size="10.00">::EtapOmegaG::Sig_t::OmegaPi0_t</text>
</g>
<!-- Node3 -->
<g id="node2" class="node"><title>Node3</title>
<a xlink:href="structant_1_1analysis_1_1physics_1_1_etap_omega_g_1_1_sig__t_1_1_fit__t.html" target="_top" xlink:title="ant::analysis::physics\l::EtapOmegaG::Sig_t::Fit_t">
<polygon fill="white" stroke="black" points="1349,-169 1349,-203 1485,-203 1485,-169 1349,-169"/>
<text text-anchor="start" x="1357" y="-190" font-family="Helvetica,sans-Serif" font-size="10.00">ant::analysis::physics</text>
<text text-anchor="middle" x="1417" y="-177" font-family="Helvetica,sans-Serif" font-size="10.00">::EtapOmegaG::Sig_t::Fit_t</text>
</a>
</g>
<!-- Node3&#45;&gt;Node2 -->
<g id="edge2" class="edge"><title>Node3&#45;&gt;Node2</title>
<path fill="none" stroke="midnightblue" d="M1495.08,-174.474C1510.34,-172.222 1526.41,-169.849 1541.88,-167.565"/>
<polygon fill="midnightblue" stroke="midnightblue" points="1494.56,-171.012 1485.18,-175.935 1495.58,-177.937 1494.56,-171.012"/>
</g>
<!-- Node4 -->
<g id="node4" class="node"><title>Node4</title>
<a xlink:href="classant_1_1_tree.html" target="_top" xlink:title="ant::Tree\&lt; node_t \&gt;">
<polygon fill="white" stroke="black" points="1102.5,-359.5 1102.5,-380.5 1205.5,-380.5 1205.5,-359.5 1102.5,-359.5"/>
<text text-anchor="middle" x="1154" y="-367.5" font-family="Helvetica,sans-Serif" font-size="10.00">ant::Tree&lt; node_t &gt;</text>
</a>
</g>
<!-- Node4&#45;&gt;Node3 -->
<g id="edge4" class="edge"><title>Node4&#45;&gt;Node3</title>
<path fill="none" stroke="#9a32cd" stroke-dasharray="5,2" d="M1177.47,-353.578C1227.06,-318.885 1342.06,-238.431 1392.52,-203.128"/>
<polygon fill="#9a32cd" stroke="#9a32cd" points="1175.46,-350.712 1169.28,-359.312 1179.48,-356.447 1175.46,-350.712"/>
<text text-anchor="middle" x="1277" y="-392" font-family="Helvetica,sans-Serif" font-size="10.00"> fitted_g_EtaPrime</text>
<text text-anchor="middle" x="1277" y="-379" font-family="Helvetica,sans-Serif" font-size="10.00">fitted_EtaPrime</text>
<text text-anchor="middle" x="1277" y="-366" font-family="Helvetica,sans-Serif" font-size="10.00">fitted_Omega</text>
<text text-anchor="middle" x="1277" y="-353" font-family="Helvetica,sans-Serif" font-size="10.00">fitted_Pi0</text>
<text text-anchor="middle" x="1277" y="-340" font-family="Helvetica,sans-Serif" font-size="10.00">fitted_g_Omega</text>
<text text-anchor="middle" x="1277" y="-327" font-family="Helvetica,sans-Serif" font-size="10.00">fitted_g2_Pi0</text>
<text text-anchor="middle" x="1277" y="-314" font-family="Helvetica,sans-Serif" font-size="10.00">fitted_g1_Pi0</text>
</g>
<!-- Node5 -->
<g id="node6" class="node"><title>Node5</title>
<polygon fill="white" stroke="#bfbfbf" points="397,-395.5 397,-416.5 493,-416.5 493,-395.5 397,-395.5"/>
<text text-anchor="middle" x="445" y="-403.5" font-family="Helvetica,sans-Serif" font-size="10.00">std::list&lt; node_t &gt;</text>
</g>
<!-- Node5&#45;&gt;Node4 -->
<g id="edge6" class="edge"><title>Node5&#45;&gt;Node4</title>
<path fill="none" stroke="#9a32cd" stroke-dasharray="5,2" d="M503.253,-411.536C511.553,-412.143 519.988,-412.663 528,-413 548.426,-413.86 553.557,-413.267 574,-413 795.39,-410.111 854.51,-441.47 1072,-400 1092.7,-396.053 1115.09,-387.548 1131.24,-380.598"/>
<polygon fill="#9a32cd" stroke="#9a32cd" points="503.475,-408.043 493.235,-410.758 502.934,-415.022 503.475,-408.043"/>
<text text-anchor="middle" x="759" y="-422" font-family="Helvetica,sans-Serif" font-size="10.00"> daughters</text>
</g>
<!-- Node7 -->
<g id="node10" class="node"><title>Node7</title>
<a xlink:href="classant_1_1_tree.html" target="_top" xlink:title="ant::Tree\&lt; T \&gt;">
<polygon fill="white" stroke="black" points="615,-372.5 615,-393.5 695,-393.5 695,-372.5 615,-372.5"/>
<text text-anchor="middle" x="655" y="-380.5" font-family="Helvetica,sans-Serif" font-size="10.00">ant::Tree&lt; T &gt;</text>
</a>
</g>
<!-- Node5&#45;&gt;Node7 -->
<g id="edge12" class="edge"><title>Node5&#45;&gt;Node7</title>
<path fill="none" stroke="#9a32cd" stroke-dasharray="5,2" d="M503.402,-399.604C538.876,-395.718 583.251,-390.858 614.805,-387.402"/>
<polygon fill="#9a32cd" stroke="#9a32cd" points="502.738,-396.155 493.178,-400.723 503.5,-403.114 502.738,-396.155"/>
<text text-anchor="middle" x="551" y="-400" font-family="Helvetica,sans-Serif" font-size="10.00"> daughters</text>
</g>
<!-- Node6 -->
<g id="node8" class="node"><title>Node6</title>
<polygon fill="white" stroke="#bfbfbf" points="831.5,-359.5 831.5,-380.5 944.5,-380.5 944.5,-359.5 831.5,-359.5"/>
<text text-anchor="middle" x="888" y="-367.5" font-family="Helvetica,sans-Serif" font-size="10.00">std::weak_ptr&lt; Tree &gt;</text>
</g>
<!-- Node6&#45;&gt;Node4 -->
<g id="edge8" class="edge"><title>Node6&#45;&gt;Node4</title>
<path fill="none" stroke="#9a32cd" stroke-dasharray="5,2" d="M954.853,-370C1000.56,-370 1060.24,-370 1102.31,-370"/>
<polygon fill="#9a32cd" stroke="#9a32cd" points="954.737,-366.5 944.737,-370 954.737,-373.5 954.737,-366.5"/>
<text text-anchor="middle" x="1033" y="-387" font-family="Helvetica,sans-Serif" font-size="10.00"> parent</text>
<text text-anchor="middle" x="1033" y="-374" font-family="Helvetica,sans-Serif" font-size="10.00">self</text>
</g>
<!-- Node6&#45;&gt;Node7 -->
<g id="edge14" class="edge"><title>Node6&#45;&gt;Node7</title>
<path fill="none" stroke="#9a32cd" stroke-dasharray="5,2" d="M850.167,-356.262C819.276,-346.903 774.581,-337.605 736,-346 723.915,-348.63 695.295,-362.425 675.53,-372.402"/>
<polygon fill="#9a32cd" stroke="#9a32cd" points="849.494,-359.721 860.085,-359.413 851.614,-353.049 849.494,-359.721"/>
<text text-anchor="middle" x="759" y="-363" font-family="Helvetica,sans-Serif" font-size="10.00"> parent</text>
<text text-anchor="middle" x="759" y="-350" font-family="Helvetica,sans-Serif" font-size="10.00">self</text>
</g>
<!-- Node7&#45;&gt;Node6 -->
<g id="edge10" class="edge"><title>Node7&#45;&gt;Node6</title>
<path fill="none" stroke="#9a32cd" stroke-dasharray="5,2" d="M705.149,-380.202C742.283,-378.13 792.91,-375.305 831.478,-373.154"/>
<polygon fill="#9a32cd" stroke="#9a32cd" points="704.844,-376.713 695.054,-380.765 705.234,-383.703 704.844,-376.713"/>
<text text-anchor="middle" x="759" y="-382" font-family="Helvetica,sans-Serif" font-size="10.00"> ptr</text>
</g>
<!-- Node8 -->
<g id="node14" class="node"><title>Node8</title>
<polygon fill="white" stroke="#bfbfbf" points="430.5,-338.5 430.5,-359.5 459.5,-359.5 459.5,-338.5 430.5,-338.5"/>
<text text-anchor="middle" x="445" y="-346.5" font-family="Helvetica,sans-Serif" font-size="10.00">T</text>
</g>
<!-- Node8&#45;&gt;Node7 -->
<g id="edge16" class="edge"><title>Node8&#45;&gt;Node7</title>
<path fill="none" stroke="#9a32cd" stroke-dasharray="5,2" d="M469.826,-353.019C505.605,-358.812 572.061,-369.572 614.868,-376.502"/>
<polygon fill="#9a32cd" stroke="#9a32cd" points="470.198,-349.534 459.767,-351.391 469.079,-356.444 470.198,-349.534"/>
<text text-anchor="middle" x="551" y="-373" font-family="Helvetica,sans-Serif" font-size="10.00"> data</text>
</g>
<!-- Node24 -->
<g id="node46" class="node"><title>Node24</title>
<a xlink:title="STL class. ">
<polygon fill="white" stroke="#bfbfbf" points="611.5,-321.5 611.5,-342.5 698.5,-342.5 698.5,-321.5 611.5,-321.5"/>
<text text-anchor="middle" x="655" y="-329.5" font-family="Helvetica,sans-Serif" font-size="10.00">std::vector&lt; T &gt;</text>
</a>
</g>
<!-- Node8&#45;&gt;Node24 -->
<g id="edge50" class="edge"><title>Node8&#45;&gt;Node24</title>
<path fill="none" stroke="#9a32cd" stroke-dasharray="5,2" d="M469.461,-343.065C485.9,-339.379 508.115,-334.978 528,-333 555.646,-330.25 586.843,-329.965 611.399,-330.384"/>
<polygon fill="#9a32cd" stroke="#9a32cd" points="468.528,-339.689 459.574,-345.352 470.106,-346.508 468.528,-339.689"/>
<text text-anchor="middle" x="551" y="-337" font-family="Helvetica,sans-Serif" font-size="10.00"> elements</text>
</g>
<!-- Node9 -->
<g id="node16" class="node"><title>Node9</title>
<a xlink:href="classant_1_1analysis_1_1utils_1_1_tree_fitter.html" target="_top" xlink:title="ant::analysis::utils\l::TreeFitter">
<polygon fill="white" stroke="black" points="1106,-169 1106,-203 1202,-203 1202,-169 1106,-169"/>
<text text-anchor="start" x="1114" y="-190" font-family="Helvetica,sans-Serif" font-size="10.00">ant::analysis::utils</text>
<text text-anchor="middle" x="1154" y="-177" font-family="Helvetica,sans-Serif" font-size="10.00">::TreeFitter</text>
</a>
</g>
<!-- Node9&#45;&gt;Node3 -->
<g id="edge18" class="edge"><title>Node9&#45;&gt;Node3</title>
<path fill="none" stroke="#9a32cd" stroke-dasharray="5,2" d="M1212.44,-186C1252.76,-186 1306.49,-186 1348.76,-186"/>
<polygon fill="#9a32cd" stroke="#9a32cd" points="1212.24,-182.5 1202.24,-186 1212.24,-189.5 1212.24,-182.5"/>
<text text-anchor="middle" x="1277" y="-190" font-family="Helvetica,sans-Serif" font-size="10.00"> treefitter</text>
</g>
<!-- Node10 -->
<g id="node18" class="node"><title>Node10</title>
<a xlink:href="classant_1_1analysis_1_1utils_1_1_kin_fitter.html" target="_top" xlink:title="ant::analysis::utils\l::KinFitter">
<polygon fill="white" stroke="black" points="840,-236 840,-270 936,-270 936,-236 840,-236"/>
<text text-anchor="start" x="848" y="-257" font-family="Helvetica,sans-Serif" font-size="10.00">ant::analysis::utils</text>
<text text-anchor="middle" x="888" y="-244" font-family="Helvetica,sans-Serif" font-size="10.00">::KinFitter</text>
</a>
</g>
<!-- Node10&#45;&gt;Node9 -->
<g id="edge20" class="edge"><title>Node10&#45;&gt;Node9</title>
<path fill="none" stroke="midnightblue" d="M946.05,-243.108C982.511,-236.38 1030.35,-226.606 1072,-215 1084.22,-211.595 1097.25,-207.302 1109.24,-203.071"/>
<polygon fill="midnightblue" stroke="midnightblue" points="945.294,-239.689 936.083,-244.924 946.548,-246.575 945.294,-239.689"/>
</g>
<!-- Node11 -->
<g id="node20" class="node"><title>Node11</title>
<a xlink:href="classant_1_1analysis_1_1utils_1_1_fitter.html" target="_top" xlink:title="ant::analysis::utils\l::Fitter">
<polygon fill="white" stroke="black" points="607,-269 607,-303 703,-303 703,-269 607,-269"/>
<text text-anchor="start" x="615" y="-290" font-family="Helvetica,sans-Serif" font-size="10.00">ant::analysis::utils</text>
<text text-anchor="middle" x="655" y="-277" font-family="Helvetica,sans-Serif" font-size="10.00">::Fitter</text>
</a>
</g>
<!-- Node11&#45;&gt;Node10 -->
<g id="edge22" class="edge"><title>Node11&#45;&gt;Node10</title>
<path fill="none" stroke="midnightblue" d="M713.435,-277.724C752.432,-272.201 803.092,-265.026 839.784,-259.829"/>
<polygon fill="midnightblue" stroke="midnightblue" points="712.688,-274.295 703.278,-279.162 713.67,-281.225 712.688,-274.295"/>
</g>
<!-- Node12 -->
<g id="node22" class="node"><title>Node12</title>
<a xlink:href="structant_1_1analysis_1_1utils_1_1_kin_fitter_1_1_beam_e__t.html" target="_top" xlink:title="ant::analysis::utils\l::KinFitter::BeamE_t">
<polygon fill="white" stroke="black" points="602,-217 602,-251 708,-251 708,-217 602,-217"/>
<text text-anchor="start" x="610" y="-238" font-family="Helvetica,sans-Serif" font-size="10.00">ant::analysis::utils</text>
<text text-anchor="middle" x="655" y="-225" font-family="Helvetica,sans-Serif" font-size="10.00">::KinFitter::BeamE_t</text>
</a>
</g>
<!-- Node12&#45;&gt;Node10 -->
<g id="edge24" class="edge"><title>Node12&#45;&gt;Node10</title>
<path fill="none" stroke="#9a32cd" stroke-dasharray="5,2" d="M718.181,-239.152C756.486,-242.276 804.598,-246.199 839.822,-249.071"/>
<polygon fill="#9a32cd" stroke="#9a32cd" points="718.414,-235.66 708.163,-238.335 717.845,-242.636 718.414,-235.66"/>
<text text-anchor="middle" x="759" y="-248" font-family="Helvetica,sans-Serif" font-size="10.00"> BeamE</text>
</g>
<!-- Node13 -->
<g id="node24" class="node"><title>Node13</title>
<a xlink:href="structant_1_1analysis_1_1utils_1_1_fitter_1_1_v___s___p__t.html" target="_top" xlink:title="ant::analysis::utils\l::Fitter::V_S_P_t">
<polygon fill="white" stroke="black" points="397,-217 397,-251 493,-251 493,-217 397,-217"/>
<text text-anchor="start" x="405" y="-238" font-family="Helvetica,sans-Serif" font-size="10.00">ant::analysis::utils</text>
<text text-anchor="middle" x="445" y="-225" font-family="Helvetica,sans-Serif" font-size="10.00">::Fitter::V_S_P_t</text>
</a>
</g>
<!-- Node13&#45;&gt;Node12 -->
<g id="edge26" class="edge"><title>Node13&#45;&gt;Node12</title>
<path fill="none" stroke="midnightblue" d="M503.366,-234C534.231,-234 571.843,-234 601.885,-234"/>
<polygon fill="midnightblue" stroke="midnightblue" points="503.178,-230.5 493.178,-234 503.178,-237.5 503.178,-230.5"/>
</g>
<!-- Node14 -->
<g id="node26" class="node"><title>Node14</title>
<a xlink:href="structant_1_1analysis_1_1utils_1_1_fitter_1_1_v___s__t.html" target="_top" xlink:title="ant::analysis::utils\l::Fitter::V_S_t">
<polygon fill="white" stroke="black" points="199,-217 199,-251 295,-251 295,-217 199,-217"/>
<text text-anchor="start" x="207" y="-238" font-family="Helvetica,sans-Serif" font-size="10.00">ant::analysis::utils</text>
<text text-anchor="middle" x="247" y="-225" font-family="Helvetica,sans-Serif" font-size="10.00">::Fitter::V_S_t</text>
</a>
</g>
<!-- Node14&#45;&gt;Node13 -->
<g id="edge28" class="edge"><title>Node14&#45;&gt;Node13</title>
<path fill="none" stroke="midnightblue" d="M305.243,-234C334.42,-234 369.32,-234 396.944,-234"/>
<polygon fill="midnightblue" stroke="midnightblue" points="305.183,-230.5 295.183,-234 305.183,-237.5 305.183,-230.5"/>
</g>
<!-- Node15 -->
<g id="node28" class="node"><title>Node15</title>
<polygon fill="white" stroke="#bfbfbf" points="592.5,-177.5 592.5,-198.5 717.5,-198.5 717.5,-177.5 592.5,-177.5"/>
<text text-anchor="middle" x="655" y="-185.5" font-family="Helvetica,sans-Serif" font-size="10.00">std::vector&lt; FitParticle &gt;</text>
</g>
<!-- Node15&#45;&gt;Node10 -->
<g id="edge30" class="edge"><title>Node15&#45;&gt;Node10</title>
<path fill="none" stroke="#9a32cd" stroke-dasharray="5,2" d="M703.456,-201.27C727.148,-207.779 756.076,-215.759 782,-223 800.881,-228.274 821.636,-234.133 839.737,-239.265"/>
<polygon fill="#9a32cd" stroke="#9a32cd" points="704.216,-197.849 693.646,-198.576 702.363,-204.599 704.216,-197.849"/>
<text text-anchor="middle" x="759" y="-227" font-family="Helvetica,sans-Serif" font-size="10.00"> Photons</text>
</g>
<!-- Node16 -->
<g id="node30" class="node"><title>Node16</title>
<polygon fill="white" stroke="#bfbfbf" points="835,-196.5 835,-217.5 941,-217.5 941,-196.5 835,-196.5"/>
<text text-anchor="middle" x="888" y="-204.5" font-family="Helvetica,sans-Serif" font-size="10.00">std::vector&lt; tree_t &gt;</text>
</g>
<!-- Node16&#45;&gt;Node9 -->
<g id="edge32" class="edge"><title>Node16&#45;&gt;Node9</title>
<path fill="none" stroke="#9a32cd" stroke-dasharray="5,2" d="M951.341,-201.999C998.728,-198.258 1062.55,-193.22 1105.82,-189.804"/>
<polygon fill="#9a32cd" stroke="#9a32cd" points="950.883,-198.525 941.19,-202.801 951.434,-205.503 950.883,-198.525"/>
<text text-anchor="middle" x="1033" y="-202" font-family="Helvetica,sans-Serif" font-size="10.00"> tree_leaves</text>
</g>
<!-- Node17 -->
<g id="node32" class="node"><title>Node17</title>
<polygon fill="white" stroke="#bfbfbf" points="815,-144 815,-178 961,-178 961,-144 815,-144"/>
<text text-anchor="start" x="823" y="-165" font-family="Helvetica,sans-Serif" font-size="10.00">std::list&lt; ant::analysis</text>
<text text-anchor="middle" x="888" y="-152" font-family="Helvetica,sans-Serif" font-size="10.00">::utils::TreeFitter::iteration_t &gt;</text>
</g>
<!-- Node17&#45;&gt;Node9 -->
<g id="edge34" class="edge"><title>Node17&#45;&gt;Node9</title>
<path fill="none" stroke="#9a32cd" stroke-dasharray="5,2" d="M971.152,-166.31C1002.76,-168.596 1039.08,-171.543 1072,-175 1083,-176.155 1094.8,-177.611 1105.93,-179.081"/>
<polygon fill="#9a32cd" stroke="#9a32cd" points="971.287,-162.811 961.064,-165.591 970.79,-169.793 971.287,-162.811"/>
<text text-anchor="middle" x="1033" y="-179" font-family="Helvetica,sans-Serif" font-size="10.00"> iterations</text>
</g>
<!-- Node18 -->
<g id="node34" class="node"><title>Node18</title>
<a xlink:href="structant_1_1analysis_1_1utils_1_1_tree_fitter_1_1iteration__t.html" target="_top" xlink:title="ant::analysis::utils\l::TreeFitter::iteration_t">
<polygon fill="white" stroke="black" points="598.5,-125 598.5,-159 711.5,-159 711.5,-125 598.5,-125"/>
<text text-anchor="start" x="606.5" y="-146" font-family="Helvetica,sans-Serif" font-size="10.00">ant::analysis::utils</text>
<text text-anchor="middle" x="655" y="-133" font-family="Helvetica,sans-Serif" font-size="10.00">::TreeFitter::iteration_t</text>
</a>
</g>
<!-- Node18&#45;&gt;Node17 -->
<g id="edge36" class="edge"><title>Node18&#45;&gt;Node17</title>
<path fill="none" stroke="#9a32cd" stroke-dasharray="5,2" d="M721.746,-147.443C750.79,-149.811 784.913,-152.594 814.663,-155.02"/>
<polygon fill="#9a32cd" stroke="#9a32cd" points="721.952,-143.948 711.7,-146.624 721.383,-150.925 721.952,-143.948"/>
<text text-anchor="middle" x="759" y="-156" font-family="Helvetica,sans-Serif" font-size="10.00"> elements</text>
</g>
<!-- Node19 -->
<g id="node36" class="node"><title>Node19</title>
<polygon fill="white" stroke="#bfbfbf" points="380.5,-118.5 380.5,-165.5 509.5,-165.5 509.5,-118.5 380.5,-118.5"/>
<text text-anchor="start" x="388.5" y="-152.5" font-family="Helvetica,sans-Serif" font-size="10.00">std::vector&lt; ant::analysis</text>
<text text-anchor="start" x="388.5" y="-139.5" font-family="Helvetica,sans-Serif" font-size="10.00">::utils::TreeFitter::iteration</text>
<text text-anchor="middle" x="445" y="-126.5" font-family="Helvetica,sans-Serif" font-size="10.00">_t::photon_t &gt;</text>
</g>
<!-- Node19&#45;&gt;Node18 -->
<g id="edge38" class="edge"><title>Node19&#45;&gt;Node18</title>
<path fill="none" stroke="#9a32cd" stroke-dasharray="5,2" d="M519.85,-142C545.682,-142 574.174,-142 598.31,-142"/>
<polygon fill="#9a32cd" stroke="#9a32cd" points="519.72,-138.5 509.72,-142 519.72,-145.5 519.72,-138.5"/>
<text text-anchor="middle" x="551" y="-146" font-family="Helvetica,sans-Serif" font-size="10.00"> Photons</text>
</g>
<!-- Node20 -->
<g id="node38" class="node"><title>Node20</title>
<a xlink:href="structant_1_1analysis_1_1utils_1_1_tree_fitter_1_1iteration__t_1_1photon__t.html" target="_top" xlink:title="ant::analysis::utils\l::TreeFitter::iteration\l_t::photon_t">
<polygon fill="white" stroke="black" points="194.5,-118.5 194.5,-165.5 299.5,-165.5 299.5,-118.5 194.5,-118.5"/>
<text text-anchor="start" x="202.5" y="-152.5" font-family="Helvetica,sans-Serif" font-size="10.00">ant::analysis::utils</text>
<text text-anchor="start" x="202.5" y="-139.5" font-family="Helvetica,sans-Serif" font-size="10.00">::TreeFitter::iteration</text>
<text text-anchor="middle" x="247" y="-126.5" font-family="Helvetica,sans-Serif" font-size="10.00">_t::photon_t</text>
</a>
</g>
<!-- Node20&#45;&gt;Node19 -->
<g id="edge40" class="edge"><title>Node20&#45;&gt;Node19</title>
<path fill="none" stroke="#9a32cd" stroke-dasharray="5,2" d="M309.645,-142C332.127,-142 357.513,-142 380.176,-142"/>
<polygon fill="#9a32cd" stroke="#9a32cd" points="309.541,-138.5 299.541,-142 309.54,-145.5 309.541,-138.5"/>
<text text-anchor="middle" x="340" y="-146" font-family="Helvetica,sans-Serif" font-size="10.00"> elements</text>
</g>
<!-- Node21 -->
<g id="node40" class="node"><title>Node21</title>
<a xlink:href="structant_1_1std__ext_1_1cc__shared__ptr.html" target="_top" xlink:title="ant::std_ext::cc_shared\l_ptr\&lt; TParticle \&gt;">
<polygon fill="white" stroke="black" points="0.5,-125 0.5,-159 119.5,-159 119.5,-125 0.5,-125"/>
<text text-anchor="start" x="8.5" y="-146" font-family="Helvetica,sans-Serif" font-size="10.00">ant::std_ext::cc_shared</text>
<text text-anchor="middle" x="60" y="-133" font-family="Helvetica,sans-Serif" font-size="10.00">_ptr&lt; TParticle &gt;</text>
</a>
</g>
<!-- Node21&#45;&gt;Node20 -->
<g id="edge42" class="edge"><title>Node21&#45;&gt;Node20</title>
<path fill="none" stroke="#9a32cd" stroke-dasharray="5,2" d="M129.965,-142C151.239,-142 174.251,-142 194.194,-142"/>
<polygon fill="#9a32cd" stroke="#9a32cd" points="129.682,-138.5 119.682,-142 129.682,-145.5 129.682,-138.5"/>
<text text-anchor="middle" x="157" y="-146" font-family="Helvetica,sans-Serif" font-size="10.00"> Particle</text>
</g>
<!-- Node22 -->
<g id="node42" class="node"><title>Node22</title>
<polygon fill="white" stroke="#bfbfbf" points="825,-92 825,-126 951,-126 951,-92 825,-92"/>
<text text-anchor="start" x="833" y="-113" font-family="Helvetica,sans-Serif" font-size="10.00">std::vector&lt; std::function</text>
<text text-anchor="middle" x="888" y="-100" font-family="Helvetica,sans-Serif" font-size="10.00">&lt; void()&gt; &gt;</text>
</g>
<!-- Node22&#45;&gt;Node9 -->
<g id="edge44" class="edge"><title>Node22&#45;&gt;Node9</title>
<path fill="none" stroke="#9a32cd" stroke-dasharray="5,2" d="M961.231,-122.574C995.294,-129.685 1036.12,-139.351 1072,-151 1087.31,-155.971 1103.72,-162.679 1117.8,-168.893"/>
<polygon fill="#9a32cd" stroke="#9a32cd" points="961.852,-119.129 951.352,-120.544 960.443,-125.985 961.852,-119.129"/>
<text text-anchor="middle" x="1033" y="-155" font-family="Helvetica,sans-Serif" font-size="10.00"> sum_daughters</text>
</g>
<!-- Node23 -->
<g id="node44" class="node"><title>Node23</title>
<polygon fill="white" stroke="#bfbfbf" points="818,-298.5 818,-319.5 958,-319.5 958,-298.5 818,-298.5"/>
<text text-anchor="middle" x="888" y="-306.5" font-family="Helvetica,sans-Serif" font-size="10.00">std::vector&lt; permutation_t &gt;</text>
</g>
<!-- Node23&#45;&gt;Node9 -->
<g id="edge46" class="edge"><title>Node23&#45;&gt;Node9</title>
<path fill="none" stroke="#9a32cd" stroke-dasharray="5,2" d="M930.53,-295.219C945.039,-290.328 961.305,-284.634 976,-279 1019.32,-262.392 1030.94,-259.605 1072,-238 1091.99,-227.481 1113.52,-213.727 1129.5,-203.006"/>
<polygon fill="#9a32cd" stroke="#9a32cd" points="929.183,-291.979 920.807,-298.466 931.4,-298.618 929.183,-291.979"/>
<text text-anchor="middle" x="1033" y="-275" font-family="Helvetica,sans-Serif" font-size="10.00"> permutations</text>
</g>
<!-- Node24&#45;&gt;Node23 -->
<g id="edge48" class="edge"><title>Node24&#45;&gt;Node23</title>
<path fill="none" stroke="#9a32cd" stroke-dasharray="5,2" d="M708.718,-326.697C741.088,-323.502 782.679,-319.396 817.652,-315.944"/>
<polygon fill="#9a32cd" stroke="#9a32cd" points="708.16,-323.235 698.552,-327.701 708.848,-330.201 708.16,-323.235"/>
<text text-anchor="middle" x="759" y="-327" font-family="Helvetica,sans-Serif" font-size="10.00"> elements</text>
</g>
<!-- Node25 -->
<g id="node49" class="node"><title>Node25</title>
<polygon fill="white" stroke="#bfbfbf" points="809,-52.5 809,-73.5 967,-73.5 967,-52.5 809,-52.5"/>
<text text-anchor="middle" x="888" y="-60.5" font-family="Helvetica,sans-Serif" font-size="10.00">std::vector&lt; node_constraint_t &gt;</text>
</g>
<!-- Node25&#45;&gt;Node9 -->
<g id="edge52" class="edge"><title>Node25&#45;&gt;Node9</title>
<path fill="none" stroke="#9a32cd" stroke-dasharray="5,2" d="M968.241,-75.7075C1001.79,-83.2789 1040.28,-95.0397 1072,-113 1098.37,-127.93 1123.62,-152.475 1138.96,-168.931"/>
<polygon fill="#9a32cd" stroke="#9a32cd" points="968.974,-72.2853 958.46,-73.5859 967.49,-79.1262 968.974,-72.2853"/>
<text text-anchor="middle" x="1033" y="-117" font-family="Helvetica,sans-Serif" font-size="10.00"> node_constraints</text>
</g>
<!-- Node26 -->
<g id="node51" class="node"><title>Node26</title>
<a xlink:href="structant_1_1analysis_1_1physics_1_1_etap_omega_g_1_1_sig__t_1_1_omega_pi0__t_1_1_tree__t.html" target="_top" xlink:title="ant::analysis::physics\l::EtapOmegaG::Sig_t::OmegaPi0\l_t::Tree_t">
<polygon fill="white" stroke="black" points="1336,-90.5 1336,-137.5 1498,-137.5 1498,-90.5 1336,-90.5"/>
<text text-anchor="start" x="1344" y="-124.5" font-family="Helvetica,sans-Serif" font-size="10.00">ant::analysis::physics</text>
<text text-anchor="start" x="1344" y="-111.5" font-family="Helvetica,sans-Serif" font-size="10.00">::EtapOmegaG::Sig_t::OmegaPi0</text>
<text text-anchor="middle" x="1417" y="-98.5" font-family="Helvetica,sans-Serif" font-size="10.00">_t::Tree_t</text>
</a>
</g>
<!-- Node26&#45;&gt;Node2 -->
<g id="edge54" class="edge"><title>Node26&#45;&gt;Node2</title>
<path fill="none" stroke="#9a32cd" stroke-dasharray="5,2" d="M1508.34,-131.834C1519.48,-134.007 1530.82,-136.221 1541.85,-138.376"/>
<polygon fill="#9a32cd" stroke="#9a32cd" points="1508.68,-128.333 1498.19,-129.852 1507.34,-135.203 1508.68,-128.333"/>
<text text-anchor="middle" x="1520" y="-138" font-family="Helvetica,sans-Serif" font-size="10.00"> t</text>
</g>
<!-- Node27 -->
<g id="node53" class="node"><title>Node27</title>
<a xlink:href="structant_1_1analysis_1_1physics_1_1_etap_omega_g_1_1_sig__t_1_1_fit__t_1_1_base_tree__t.html" target="_top" xlink:title="ant::analysis::physics\l::EtapOmegaG::Sig_t::Fit\l_t::BaseTree_t">
<polygon fill="white" stroke="black" points="1090,-13.5 1090,-60.5 1218,-60.5 1218,-13.5 1090,-13.5"/>
<text text-anchor="start" x="1098" y="-47.5" font-family="Helvetica,sans-Serif" font-size="10.00">ant::analysis::physics</text>
<text text-anchor="start" x="1098" y="-34.5" font-family="Helvetica,sans-Serif" font-size="10.00">::EtapOmegaG::Sig_t::Fit</text>
<text text-anchor="middle" x="1154" y="-21.5" font-family="Helvetica,sans-Serif" font-size="10.00">_t::BaseTree_t</text>
</a>
</g>
<!-- Node27&#45;&gt;Node26 -->
<g id="edge56" class="edge"><title>Node27&#45;&gt;Node26</title>
<path fill="none" stroke="midnightblue" d="M1227.84,-58.6188C1261.74,-68.5428 1302.01,-80.3327 1336.66,-90.4785"/>
<polygon fill="midnightblue" stroke="midnightblue" points="1228.58,-55.1887 1218,-55.7379 1226.61,-61.9067 1228.58,-55.1887"/>
</g>
<!-- Node28 -->
<g id="node55" class="node"><title>Node28</title>
<a xlink:href="structant_1_1analysis_1_1physics_1_1_etap_omega_g_1_1_proton_photon_tree__t.html" target="_top" xlink:title="ant::analysis::physics\l::EtapOmegaG::ProtonPhotonTree_t">
<polygon fill="white" stroke="black" points="800.5,-0 800.5,-34 975.5,-34 975.5,-0 800.5,-0"/>
<text text-anchor="start" x="808.5" y="-21" font-family="Helvetica,sans-Serif" font-size="10.00">ant::analysis::physics</text>
<text text-anchor="middle" x="888" y="-8" font-family="Helvetica,sans-Serif" font-size="10.00">::EtapOmegaG::ProtonPhotonTree_t</text>
</a>
</g>
<!-- Node28&#45;&gt;Node27 -->
<g id="edge58" class="edge"><title>Node28&#45;&gt;Node27</title>
<path fill="none" stroke="midnightblue" d="M985.989,-24.3676C1020.65,-26.9734 1058.72,-29.836 1089.84,-32.1763"/>
<polygon fill="midnightblue" stroke="midnightblue" points="986.07,-20.8639 975.836,-23.6042 985.545,-27.8442 986.07,-20.8639"/>
</g>
<!-- Node29 -->
<g id="node57" class="node"><title>Node29</title>
<a xlink:href="classant_1_1_wrap_t_tree.html" target="_top" xlink:title="The WrapTTree struct simplifies TTree handling in physics classes. ">
<polygon fill="white" stroke="black" points="612.5,-6.5 612.5,-27.5 697.5,-27.5 697.5,-6.5 612.5,-6.5"/>
<text text-anchor="middle" x="655" y="-14.5" font-family="Helvetica,sans-Serif" font-size="10.00">ant::WrapTTree</text>
</a>
</g>
<!-- Node29&#45;&gt;Node28 -->
<g id="edge60" class="edge"><title>Node29&#45;&gt;Node28</title>
<path fill="none" stroke="midnightblue" d="M707.838,-17C735.107,-17 769.091,-17 800.172,-17"/>
<polygon fill="midnightblue" stroke="midnightblue" points="707.736,-13.5001 697.736,-17 707.736,-20.5001 707.736,-13.5001"/>
</g>
</g>
</svg>
