<?xml version="1.0" encoding="UTF-8" standalone="no"?>
<!DOCTYPE svg PUBLIC "-//W3C//DTD SVG 1.1//EN"
 "http://www.w3.org/Graphics/SVG/1.1/DTD/svg11.dtd">
<!-- Generated by graphviz version 2.26.3 (20100126.1600)
 -->
<!-- Title: ant::analysis::physics::OmegaEtaG2::MyTreeFitter_t Pages: 1 -->
<svg width="1442pt" height="395pt"
 viewBox="0.00 0.00 1442.00 395.00" xmlns="http://www.w3.org/2000/svg" xmlns:xlink="http://www.w3.org/1999/xlink">
<g id="graph1" class="graph" transform="scale(1 1) rotate(0) translate(4 391)">
<title>ant::analysis::physics::OmegaEtaG2::MyTreeFitter_t</title>
<polygon fill="white" stroke="white" points="-4,5 -4,-391 1439,-391 1439,5 -4,5"/>
<!-- Node1 -->
<g id="node1" class="node"><title>Node1</title>
<polygon fill="#bfbfbf" stroke="black" points="1282,-237 1282,-271 1434,-271 1434,-237 1282,-237"/>
<text text-anchor="start" x="1290" y="-258" font-family="Helvetica,sans-Serif" font-size="10.00">ant::analysis::physics</text>
<text text-anchor="middle" x="1358" y="-245" font-family="Helvetica,sans-Serif" font-size="10.00">::OmegaEtaG2::MyTreeFitter_t</text>
</g>
<!-- Node2 -->
<g id="node2" class="node"><title>Node2</title>
<a xlink:href="classant_1_1_tree.html" target="_top" xlink:title="ant::Tree\&lt; node_t \&gt;">
<polygon fill="white" stroke="black" points="1072.5,-311.5 1072.5,-332.5 1175.5,-332.5 1175.5,-311.5 1072.5,-311.5"/>
<text text-anchor="middle" x="1124" y="-319.5" font-family="Helvetica,sans-Serif" font-size="10.00">ant::Tree&lt; node_t &gt;</text>
</a>
</g>
<!-- Node2&#45;&gt;Node1 -->
<g id="edge2" class="edge"><title>Node2&#45;&gt;Node1</title>
<path fill="none" stroke="#9a32cd" stroke-dasharray="5,2" d="M1170.32,-308.541C1207.3,-297.793 1259.36,-282.664 1299.27,-271.066"/>
<polygon fill="#9a32cd" stroke="#9a32cd" points="1168.93,-305.298 1160.31,-311.45 1170.89,-312.02 1168.93,-305.298"/>
<text text-anchor="middle" x="1229" y="-356" font-family="Helvetica,sans-Serif" font-size="10.00"> fitted_g2_X</text>
<text text-anchor="middle" x="1229" y="-343" font-family="Helvetica,sans-Serif" font-size="10.00">fitted_g1_X</text>
<text text-anchor="middle" x="1229" y="-330" font-family="Helvetica,sans-Serif" font-size="10.00">fitted_Omega</text>
<text text-anchor="middle" x="1229" y="-317" font-family="Helvetica,sans-Serif" font-size="10.00">fitted_X</text>
<text text-anchor="middle" x="1229" y="-304" font-family="Helvetica,sans-Serif" font-size="10.00">fitted_g_Omega</text>
</g>
<!-- Node3 -->
<g id="node4" class="node"><title>Node3</title>
<polygon fill="white" stroke="#bfbfbf" points="397,-350.5 397,-371.5 493,-371.5 493,-350.5 397,-350.5"/>
<text text-anchor="middle" x="445" y="-358.5" font-family="Helvetica,sans-Serif" font-size="10.00">std::list&lt; node_t &gt;</text>
</g>
<!-- Node3&#45;&gt;Node2 -->
<g id="edge4" class="edge"><title>Node3&#45;&gt;Node2</title>
<path fill="none" stroke="#9a32cd" stroke-dasharray="5,2" d="M503.253,-366.536C511.553,-367.143 519.988,-367.663 528,-368 548.426,-368.86 553.558,-368.341 574,-368 787.422,-364.444 845.651,-398.395 1054,-352 1071.94,-348.005 1091.03,-339.504 1104.74,-332.568"/>
<polygon fill="#9a32cd" stroke="#9a32cd" points="503.475,-363.043 493.235,-365.758 502.934,-370.022 503.475,-363.043"/>
<text text-anchor="middle" x="759" y="-378" font-family="Helvetica,sans-Serif" font-size="10.00"> daughters</text>
</g>
<!-- Node5 -->
<g id="node8" class="node"><title>Node5</title>
<a xlink:href="classant_1_1_tree.html" target="_top" xlink:title="ant::Tree\&lt; T \&gt;">
<polygon fill="white" stroke="black" points="615,-327.5 615,-348.5 695,-348.5 695,-327.5 615,-327.5"/>
<text text-anchor="middle" x="655" y="-335.5" font-family="Helvetica,sans-Serif" font-size="10.00">ant::Tree&lt; T &gt;</text>
</a>
</g>
<!-- Node3&#45;&gt;Node5 -->
<g id="edge10" class="edge"><title>Node3&#45;&gt;Node5</title>
<path fill="none" stroke="#9a32cd" stroke-dasharray="5,2" d="M503.402,-354.604C538.876,-350.718 583.251,-345.858 614.805,-342.402"/>
<polygon fill="#9a32cd" stroke="#9a32cd" points="502.738,-351.155 493.178,-355.723 503.5,-358.114 502.738,-351.155"/>
<text text-anchor="middle" x="551" y="-355" font-family="Helvetica,sans-Serif" font-size="10.00"> daughters</text>
</g>
<!-- Node4 -->
<g id="node6" class="node"><title>Node4</title>
<polygon fill="white" stroke="#bfbfbf" points="822.5,-311.5 822.5,-332.5 935.5,-332.5 935.5,-311.5 822.5,-311.5"/>
<text text-anchor="middle" x="879" y="-319.5" font-family="Helvetica,sans-Serif" font-size="10.00">std::weak_ptr&lt; Tree &gt;</text>
</g>
<!-- Node4&#45;&gt;Node2 -->
<g id="edge6" class="edge"><title>Node4&#45;&gt;Node2</title>
<path fill="none" stroke="#9a32cd" stroke-dasharray="5,2" d="M945.687,-322C985.57,-322 1035.49,-322 1072.36,-322"/>
<polygon fill="#9a32cd" stroke="#9a32cd" points="945.516,-318.5 935.516,-322 945.516,-325.5 945.516,-318.5"/>
<text text-anchor="middle" x="1015" y="-339" font-family="Helvetica,sans-Serif" font-size="10.00"> parent</text>
<text text-anchor="middle" x="1015" y="-326" font-family="Helvetica,sans-Serif" font-size="10.00">self</text>
</g>
<!-- Node4&#45;&gt;Node5 -->
<g id="edge12" class="edge"><title>Node4&#45;&gt;Node5</title>
<path fill="none" stroke="#9a32cd" stroke-dasharray="5,2" d="M842.193,-308.351C813.162,-299.439 771.745,-290.843 736,-299 732.824,-299.725 699.322,-316.101 676.411,-327.399"/>
<polygon fill="#9a32cd" stroke="#9a32cd" points="841.324,-311.748 851.916,-311.489 843.475,-305.086 841.324,-311.748"/>
<text text-anchor="middle" x="759" y="-316" font-family="Helvetica,sans-Serif" font-size="10.00"> parent</text>
<text text-anchor="middle" x="759" y="-303" font-family="Helvetica,sans-Serif" font-size="10.00">self</text>
</g>
<!-- Node5&#45;&gt;Node4 -->
<g id="edge8" class="edge"><title>Node5&#45;&gt;Node4</title>
<path fill="none" stroke="#9a32cd" stroke-dasharray="5,2" d="M705.075,-334.466C728.45,-332.813 756.649,-330.813 782,-329 795.052,-328.067 809.091,-327.057 822.324,-326.102"/>
<polygon fill="#9a32cd" stroke="#9a32cd" points="704.768,-330.979 695.04,-335.176 705.262,-337.962 704.768,-330.979"/>
<text text-anchor="middle" x="759" y="-336" font-family="Helvetica,sans-Serif" font-size="10.00"> ptr</text>
</g>
<!-- Node6 -->
<g id="node12" class="node"><title>Node6</title>
<polygon fill="white" stroke="#bfbfbf" points="430.5,-293.5 430.5,-314.5 459.5,-314.5 459.5,-293.5 430.5,-293.5"/>
<text text-anchor="middle" x="445" y="-301.5" font-family="Helvetica,sans-Serif" font-size="10.00">T</text>
</g>
<!-- Node6&#45;&gt;Node5 -->
<g id="edge14" class="edge"><title>Node6&#45;&gt;Node5</title>
<path fill="none" stroke="#9a32cd" stroke-dasharray="5,2" d="M469.826,-308.019C505.605,-313.812 572.061,-324.572 614.868,-331.502"/>
<polygon fill="#9a32cd" stroke="#9a32cd" points="470.198,-304.534 459.767,-306.391 469.079,-311.444 470.198,-304.534"/>
<text text-anchor="middle" x="551" y="-328" font-family="Helvetica,sans-Serif" font-size="10.00"> data</text>
</g>
<!-- Node22 -->
<g id="node44" class="node"><title>Node22</title>
<a xlink:title="STL class. ">
<polygon fill="white" stroke="#bfbfbf" points="611.5,-276.5 611.5,-297.5 698.5,-297.5 698.5,-276.5 611.5,-276.5"/>
<text text-anchor="middle" x="655" y="-284.5" font-family="Helvetica,sans-Serif" font-size="10.00">std::vector&lt; T &gt;</text>
</a>
</g>
<!-- Node6&#45;&gt;Node22 -->
<g id="edge48" class="edge"><title>Node6&#45;&gt;Node22</title>
<path fill="none" stroke="#9a32cd" stroke-dasharray="5,2" d="M469.461,-298.065C485.9,-294.379 508.115,-289.978 528,-288 555.646,-285.25 586.843,-284.965 611.399,-285.384"/>
<polygon fill="#9a32cd" stroke="#9a32cd" points="468.528,-294.689 459.574,-300.352 470.106,-301.508 468.528,-294.689"/>
<text text-anchor="middle" x="551" y="-292" font-family="Helvetica,sans-Serif" font-size="10.00"> elements</text>
</g>
<!-- Node7 -->
<g id="node14" class="node"><title>Node7</title>
<a xlink:href="classant_1_1analysis_1_1utils_1_1_tree_fitter.html" target="_top" xlink:title="ant::analysis::utils\l::TreeFitter">
<polygon fill="white" stroke="black" points="1076,-138 1076,-172 1172,-172 1172,-138 1076,-138"/>
<text text-anchor="start" x="1084" y="-159" font-family="Helvetica,sans-Serif" font-size="10.00">ant::analysis::utils</text>
<text text-anchor="middle" x="1124" y="-146" font-family="Helvetica,sans-Serif" font-size="10.00">::TreeFitter</text>
</a>
</g>
<!-- Node7&#45;&gt;Node1 -->
<g id="edge16" class="edge"><title>Node7&#45;&gt;Node1</title>
<path fill="none" stroke="#9a32cd" stroke-dasharray="5,2" d="M1173.61,-175.991C1216.45,-194.115 1277.58,-219.975 1317.52,-236.872"/>
<polygon fill="#9a32cd" stroke="#9a32cd" points="1174.8,-172.692 1164.23,-172.019 1172.07,-179.139 1174.8,-172.692"/>
<text text-anchor="middle" x="1229" y="-217" font-family="Helvetica,sans-Serif" font-size="10.00"> treefitter</text>
</g>
<!-- Node8 -->
<g id="node16" class="node"><title>Node8</title>
<a xlink:href="classant_1_1analysis_1_1utils_1_1_kin_fitter.html" target="_top" xlink:title="ant::analysis::utils\l::KinFitter">
<polygon fill="white" stroke="black" points="831,-184 831,-218 927,-218 927,-184 831,-184"/>
<text text-anchor="start" x="839" y="-205" font-family="Helvetica,sans-Serif" font-size="10.00">ant::analysis::utils</text>
<text text-anchor="middle" x="879" y="-192" font-family="Helvetica,sans-Serif" font-size="10.00">::KinFitter</text>
</a>
</g>
<!-- Node8&#45;&gt;Node7 -->
<g id="edge18" class="edge"><title>Node8&#45;&gt;Node7</title>
<path fill="none" stroke="midnightblue" d="M937.345,-192.438C971.466,-187.156 1015.31,-179.893 1054,-172 1061.11,-170.55 1068.59,-168.885 1075.91,-167.176"/>
<polygon fill="midnightblue" stroke="midnightblue" points="936.438,-189.036 927.084,-194.013 937.499,-195.955 936.438,-189.036"/>
</g>
<!-- Node9 -->
<g id="node18" class="node"><title>Node9</title>
<a xlink:href="classant_1_1analysis_1_1utils_1_1_fitter.html" target="_top" xlink:title="ant::analysis::utils\l::Fitter">
<polygon fill="white" stroke="black" points="607,-224 607,-258 703,-258 703,-224 607,-224"/>
<text text-anchor="start" x="615" y="-245" font-family="Helvetica,sans-Serif" font-size="10.00">ant::analysis::utils</text>
<text text-anchor="middle" x="655" y="-232" font-family="Helvetica,sans-Serif" font-size="10.00">::Fitter</text>
</a>
</g>
<!-- Node9&#45;&gt;Node8 -->
<g id="edge20" class="edge"><title>Node9&#45;&gt;Node8</title>
<path fill="none" stroke="midnightblue" d="M713.067,-230.631C749.581,-224.111 796.139,-215.797 830.64,-209.636"/>
<polygon fill="midnightblue" stroke="midnightblue" points="712.283,-227.216 703.054,-232.419 713.513,-234.107 712.283,-227.216"/>
</g>
<!-- Node10 -->
<g id="node20" class="node"><title>Node10</title>
<a xlink:href="structant_1_1analysis_1_1utils_1_1_kin_fitter_1_1_beam_e__t.html" target="_top" xlink:title="ant::analysis::utils\l::KinFitter::BeamE_t">
<polygon fill="white" stroke="black" points="602,-172 602,-206 708,-206 708,-172 602,-172"/>
<text text-anchor="start" x="610" y="-193" font-family="Helvetica,sans-Serif" font-size="10.00">ant::analysis::utils</text>
<text text-anchor="middle" x="655" y="-180" font-family="Helvetica,sans-Serif" font-size="10.00">::KinFitter::BeamE_t</text>
</a>
</g>
<!-- Node10&#45;&gt;Node8 -->
<g id="edge22" class="edge"><title>Node10&#45;&gt;Node8</title>
<path fill="none" stroke="#9a32cd" stroke-dasharray="5,2" d="M718.404,-192.397C754.118,-194.31 798.01,-196.661 830.878,-198.422"/>
<polygon fill="#9a32cd" stroke="#9a32cd" points="718.258,-188.884 708.085,-191.844 717.883,-195.874 718.258,-188.884"/>
<text text-anchor="middle" x="759" y="-199" font-family="Helvetica,sans-Serif" font-size="10.00"> BeamE</text>
</g>
<!-- Node11 -->
<g id="node22" class="node"><title>Node11</title>
<a xlink:href="structant_1_1analysis_1_1utils_1_1_fitter_1_1_v___s___p__t.html" target="_top" xlink:title="ant::analysis::utils\l::Fitter::V_S_P_t">
<polygon fill="white" stroke="black" points="397,-172 397,-206 493,-206 493,-172 397,-172"/>
<text text-anchor="start" x="405" y="-193" font-family="Helvetica,sans-Serif" font-size="10.00">ant::analysis::utils</text>
<text text-anchor="middle" x="445" y="-180" font-family="Helvetica,sans-Serif" font-size="10.00">::Fitter::V_S_P_t</text>
</a>
</g>
<!-- Node11&#45;&gt;Node10 -->
<g id="edge24" class="edge"><title>Node11&#45;&gt;Node10</title>
<path fill="none" stroke="midnightblue" d="M503.366,-189C534.231,-189 571.843,-189 601.885,-189"/>
<polygon fill="midnightblue" stroke="midnightblue" points="503.178,-185.5 493.178,-189 503.178,-192.5 503.178,-185.5"/>
</g>
<!-- Node12 -->
<g id="node24" class="node"><title>Node12</title>
<a xlink:href="structant_1_1analysis_1_1utils_1_1_fitter_1_1_v___s__t.html" target="_top" xlink:title="ant::analysis::utils\l::Fitter::V_S_t">
<polygon fill="white" stroke="black" points="199,-172 199,-206 295,-206 295,-172 199,-172"/>
<text text-anchor="start" x="207" y="-193" font-family="Helvetica,sans-Serif" font-size="10.00">ant::analysis::utils</text>
<text text-anchor="middle" x="247" y="-180" font-family="Helvetica,sans-Serif" font-size="10.00">::Fitter::V_S_t</text>
</a>
</g>
<!-- Node12&#45;&gt;Node11 -->
<g id="edge26" class="edge"><title>Node12&#45;&gt;Node11</title>
<path fill="none" stroke="midnightblue" d="M305.243,-189C334.42,-189 369.32,-189 396.944,-189"/>
<polygon fill="midnightblue" stroke="midnightblue" points="305.183,-185.5 295.183,-189 305.183,-192.5 305.183,-185.5"/>
</g>
<!-- Node13 -->
<g id="node26" class="node"><title>Node13</title>
<polygon fill="white" stroke="#bfbfbf" points="592.5,-132.5 592.5,-153.5 717.5,-153.5 717.5,-132.5 592.5,-132.5"/>
<text text-anchor="middle" x="655" y="-140.5" font-family="Helvetica,sans-Serif" font-size="10.00">std::vector&lt; FitParticle &gt;</text>
</g>
<!-- Node13&#45;&gt;Node8 -->
<g id="edge28" class="edge"><title>Node13&#45;&gt;Node8</title>
<path fill="none" stroke="#9a32cd" stroke-dasharray="5,2" d="M705.297,-156.023C742.876,-165.753 793.927,-178.972 830.953,-188.559"/>
<polygon fill="#9a32cd" stroke="#9a32cd" points="706.123,-152.622 695.565,-153.503 704.368,-159.398 706.123,-152.622"/>
<text text-anchor="middle" x="759" y="-179" font-family="Helvetica,sans-Serif" font-size="10.00"> Photons</text>
</g>
<!-- Node14 -->
<g id="node28" class="node"><title>Node14</title>
<polygon fill="white" stroke="#bfbfbf" points="826,-144.5 826,-165.5 932,-165.5 932,-144.5 826,-144.5"/>
<text text-anchor="middle" x="879" y="-152.5" font-family="Helvetica,sans-Serif" font-size="10.00">std::vector&lt; tree_t &gt;</text>
</g>
<!-- Node14&#45;&gt;Node7 -->
<g id="edge30" class="edge"><title>Node14&#45;&gt;Node7</title>
<path fill="none" stroke="#9a32cd" stroke-dasharray="5,2" d="M942.215,-155C983.92,-155 1037.7,-155 1075.92,-155"/>
<polygon fill="#9a32cd" stroke="#9a32cd" points="942.161,-151.5 932.161,-155 942.161,-158.5 942.161,-151.5"/>
<text text-anchor="middle" x="1015" y="-159" font-family="Helvetica,sans-Serif" font-size="10.00"> tree_leaves</text>
</g>
<!-- Node15 -->
<g id="node30" class="node"><title>Node15</title>
<polygon fill="white" stroke="#bfbfbf" points="806,-92 806,-126 952,-126 952,-92 806,-92"/>
<text text-anchor="start" x="814" y="-113" font-family="Helvetica,sans-Serif" font-size="10.00">std::list&lt; ant::analysis</text>
<text text-anchor="middle" x="879" y="-100" font-family="Helvetica,sans-Serif" font-size="10.00">::utils::TreeFitter::iteration_t &gt;</text>
</g>
<!-- Node15&#45;&gt;Node7 -->
<g id="edge32" class="edge"><title>Node15&#45;&gt;Node7</title>
<path fill="none" stroke="#9a32cd" stroke-dasharray="5,2" d="M962.157,-121.489C991.29,-126.206 1024.17,-131.916 1054,-138 1061.11,-139.45 1068.59,-141.115 1075.91,-142.824"/>
<polygon fill="#9a32cd" stroke="#9a32cd" points="962.448,-117.991 952.02,-119.863 961.339,-124.903 962.448,-117.991"/>
<text text-anchor="middle" x="1015" y="-142" font-family="Helvetica,sans-Serif" font-size="10.00"> iterations</text>
</g>
<!-- Node16 -->
<g id="node32" class="node"><title>Node16</title>
<a xlink:href="structant_1_1analysis_1_1utils_1_1_tree_fitter_1_1iteration__t.html" target="_top" xlink:title="ant::analysis::utils\l::TreeFitter::iteration_t">
<polygon fill="white" stroke="black" points="598.5,-80 598.5,-114 711.5,-114 711.5,-80 598.5,-80"/>
<text text-anchor="start" x="606.5" y="-101" font-family="Helvetica,sans-Serif" font-size="10.00">ant::analysis::utils</text>
<text text-anchor="middle" x="655" y="-88" font-family="Helvetica,sans-Serif" font-size="10.00">::TreeFitter::iteration_t</text>
</a>
</g>
<!-- Node16&#45;&gt;Node15 -->
<g id="edge34" class="edge"><title>Node16&#45;&gt;Node15</title>
<path fill="none" stroke="#9a32cd" stroke-dasharray="5,2" d="M721.844,-100.581C748.337,-102 778.88,-103.636 805.954,-105.087"/>
<polygon fill="#9a32cd" stroke="#9a32cd" points="721.698,-97.0682 711.525,-100.028 721.323,-104.058 721.698,-97.0682"/>
<text text-anchor="middle" x="759" y="-107" font-family="Helvetica,sans-Serif" font-size="10.00"> elements</text>
</g>
<!-- Node17 -->
<g id="node34" class="node"><title>Node17</title>
<polygon fill="white" stroke="#bfbfbf" points="380.5,-73.5 380.5,-120.5 509.5,-120.5 509.5,-73.5 380.5,-73.5"/>
<text text-anchor="start" x="388.5" y="-107.5" font-family="Helvetica,sans-Serif" font-size="10.00">std::vector&lt; ant::analysis</text>
<text text-anchor="start" x="388.5" y="-94.5" font-family="Helvetica,sans-Serif" font-size="10.00">::utils::TreeFitter::iteration</text>
<text text-anchor="middle" x="445" y="-81.5" font-family="Helvetica,sans-Serif" font-size="10.00">_t::photon_t &gt;</text>
</g>
<!-- Node17&#45;&gt;Node16 -->
<g id="edge36" class="edge"><title>Node17&#45;&gt;Node16</title>
<path fill="none" stroke="#9a32cd" stroke-dasharray="5,2" d="M519.85,-97C545.682,-97 574.174,-97 598.31,-97"/>
<polygon fill="#9a32cd" stroke="#9a32cd" points="519.72,-93.5001 509.72,-97 519.72,-100.5 519.72,-93.5001"/>
<text text-anchor="middle" x="551" y="-101" font-family="Helvetica,sans-Serif" font-size="10.00"> Photons</text>
</g>
<!-- Node18 -->
<g id="node36" class="node"><title>Node18</title>
<a xlink:href="structant_1_1analysis_1_1utils_1_1_tree_fitter_1_1iteration__t_1_1photon__t.html" target="_top" xlink:title="ant::analysis::utils\l::TreeFitter::iteration\l_t::photon_t">
<polygon fill="white" stroke="black" points="194.5,-73.5 194.5,-120.5 299.5,-120.5 299.5,-73.5 194.5,-73.5"/>
<text text-anchor="start" x="202.5" y="-107.5" font-family="Helvetica,sans-Serif" font-size="10.00">ant::analysis::utils</text>
<text text-anchor="start" x="202.5" y="-94.5" font-family="Helvetica,sans-Serif" font-size="10.00">::TreeFitter::iteration</text>
<text text-anchor="middle" x="247" y="-81.5" font-family="Helvetica,sans-Serif" font-size="10.00">_t::photon_t</text>
</a>
</g>
<!-- Node18&#45;&gt;Node17 -->
<g id="edge38" class="edge"><title>Node18&#45;&gt;Node17</title>
<path fill="none" stroke="#9a32cd" stroke-dasharray="5,2" d="M309.645,-97C332.127,-97 357.513,-97 380.176,-97"/>
<polygon fill="#9a32cd" stroke="#9a32cd" points="309.541,-93.5001 299.541,-97 309.54,-100.5 309.541,-93.5001"/>
<text text-anchor="middle" x="340" y="-101" font-family="Helvetica,sans-Serif" font-size="10.00"> elements</text>
</g>
<!-- Node19 -->
<g id="node38" class="node"><title>Node19</title>
<a xlink:href="structant_1_1std__ext_1_1cc__shared__ptr.html" target="_top" xlink:title="ant::std_ext::cc_shared\l_ptr\&lt; TParticle \&gt;">
<polygon fill="white" stroke="black" points="0.5,-80 0.5,-114 119.5,-114 119.5,-80 0.5,-80"/>
<text text-anchor="start" x="8.5" y="-101" font-family="Helvetica,sans-Serif" font-size="10.00">ant::std_ext::cc_shared</text>
<text text-anchor="middle" x="60" y="-88" font-family="Helvetica,sans-Serif" font-size="10.00">_ptr&lt; TParticle &gt;</text>
</a>
</g>
<!-- Node19&#45;&gt;Node18 -->
<g id="edge40" class="edge"><title>Node19&#45;&gt;Node18</title>
<path fill="none" stroke="#9a32cd" stroke-dasharray="5,2" d="M129.965,-97C151.239,-97 174.251,-97 194.194,-97"/>
<polygon fill="#9a32cd" stroke="#9a32cd" points="129.682,-93.5001 119.682,-97 129.682,-100.5 129.682,-93.5001"/>
<text text-anchor="middle" x="157" y="-101" font-family="Helvetica,sans-Serif" font-size="10.00"> Particle</text>
</g>
<!-- Node20 -->
<g id="node40" class="node"><title>Node20</title>
<polygon fill="white" stroke="#bfbfbf" points="816,-40 816,-74 942,-74 942,-40 816,-40"/>
<text text-anchor="start" x="824" y="-61" font-family="Helvetica,sans-Serif" font-size="10.00">std::vector&lt; std::function</text>
<text text-anchor="middle" x="879" y="-48" font-family="Helvetica,sans-Serif" font-size="10.00">&lt; void()&gt; &gt;</text>
</g>
<!-- Node20&#45;&gt;Node7 -->
<g id="edge42" class="edge"><title>Node20&#45;&gt;Node7</title>
<path fill="none" stroke="#9a32cd" stroke-dasharray="5,2" d="M952.178,-71.6471C984.317,-79.5459 1021.95,-90.8385 1054,-106 1071.83,-114.437 1090.03,-127.333 1103.4,-137.778"/>
<polygon fill="#9a32cd" stroke="#9a32cd" points="952.933,-68.2289 942.393,-69.3042 951.303,-75.0365 952.933,-68.2289"/>
<text text-anchor="middle" x="1015" y="-110" font-family="Helvetica,sans-Serif" font-size="10.00"> sum_daughters</text>
</g>
<!-- Node21 -->
<g id="node42" class="node"><title>Node21</title>
<polygon fill="white" stroke="#bfbfbf" points="809,-251.5 809,-272.5 949,-272.5 949,-251.5 809,-251.5"/>
<text text-anchor="middle" x="879" y="-259.5" font-family="Helvetica,sans-Serif" font-size="10.00">std::vector&lt; permutation_t &gt;</text>
</g>
<!-- Node21&#45;&gt;Node7 -->
<g id="edge44" class="edge"><title>Node21&#45;&gt;Node7</title>
<path fill="none" stroke="#9a32cd" stroke-dasharray="5,2" d="M918.486,-247.998C954.337,-234.917 1008.42,-214.263 1054,-193 1067.53,-186.687 1082.11,-178.937 1094.43,-172.087"/>
<polygon fill="#9a32cd" stroke="#9a32cd" points="917.087,-244.782 908.879,-251.481 919.473,-251.362 917.087,-244.782"/>
<text text-anchor="middle" x="1015" y="-229" font-family="Helvetica,sans-Serif" font-size="10.00"> permutations</text>
</g>
<!-- Node22&#45;&gt;Node21 -->
<g id="edge46" class="edge"><title>Node22&#45;&gt;Node21</title>
<path fill="none" stroke="#9a32cd" stroke-dasharray="5,2" d="M708.994,-280.974C739.003,-277.625 776.686,-273.419 808.943,-269.819"/>
<polygon fill="#9a32cd" stroke="#9a32cd" points="708.271,-277.533 698.721,-282.12 709.048,-284.49 708.271,-277.533"/>
<text text-anchor="middle" x="759" y="-281" font-family="Helvetica,sans-Serif" font-size="10.00"> elements</text>
</g>
<!-- Node23 -->
<g id="node47" class="node"><title>Node23</title>
<polygon fill="white" stroke="#bfbfbf" points="800,-0.5 800,-21.5 958,-21.5 958,-0.5 800,-0.5"/>
<text text-anchor="middle" x="879" y="-8.5" font-family="Helvetica,sans-Serif" font-size="10.00">std::vector&lt; node_constraint_t &gt;</text>
</g>
<!-- Node23&#45;&gt;Node7 -->
<g id="edge50" class="edge"><title>Node23&#45;&gt;Node7</title>
<path fill="none" stroke="#9a32cd" stroke-dasharray="5,2" d="M966.686,-23.8723C996.35,-31.264 1028.41,-42.8552 1054,-61 1082.55,-81.2434 1104.33,-116.718 1115.56,-137.818"/>
<polygon fill="#9a32cd" stroke="#9a32cd" points="967.267,-20.4134 956.731,-21.5232 965.66,-27.2263 967.267,-20.4134"/>
<text text-anchor="middle" x="1015" y="-65" font-family="Helvetica,sans-Serif" font-size="10.00"> node_constraints</text>
</g>
</g>
</svg>
