<?xml version="1.0" encoding="UTF-8" standalone="no"?>
<!DOCTYPE svg PUBLIC "-//W3C//DTD SVG 1.1//EN"
 "http://www.w3.org/Graphics/SVG/1.1/DTD/svg11.dtd">
<!-- Generated by graphviz version 2.26.3 (20100126.1600)
 -->
<!-- Title: ant::unpacker::acqu::FileFormatBase::Info Pages: 1 -->
<svg width="806pt" height="110pt"
 viewBox="0.00 0.00 806.00 110.00" xmlns="http://www.w3.org/2000/svg" xmlns:xlink="http://www.w3.org/1999/xlink">
<g id="graph1" class="graph" transform="scale(1 1) rotate(0) translate(4 106)">
<title>ant::unpacker::acqu::FileFormatBase::Info</title>
<polygon fill="white" stroke="white" points="-4,5 -4,-106 803,-106 803,5 -4,5"/>
<!-- Node1 -->
<g id="node1" class="node"><title>Node1</title>
<polygon fill="#bfbfbf" stroke="black" points="684,-39 684,-73 798,-73 798,-39 684,-39"/>
<text text-anchor="start" x="692" y="-60" font-family="Helvetica,sans-Serif" font-size="10.00">ant::unpacker::acqu</text>
<text text-anchor="middle" x="741" y="-47" font-family="Helvetica,sans-Serif" font-size="10.00">::FileFormatBase::Info</text>
</g>
<!-- Node2 -->
<g id="node2" class="node"><title>Node2</title>
<polygon fill="white" stroke="#bfbfbf" points="476.5,-0.5 476.5,-47.5 607.5,-47.5 607.5,-0.5 476.5,-0.5"/>
<text text-anchor="start" x="484.5" y="-34.5" font-family="Helvetica,sans-Serif" font-size="10.00">std::vector&lt; ant::unpacker</text>
<text text-anchor="start" x="484.5" y="-21.5" font-family="Helvetica,sans-Serif" font-size="10.00">::acqu::FileFormatBase::</text>
<text text-anchor="middle" x="542" y="-8.5" font-family="Helvetica,sans-Serif" font-size="10.00">Info::HardwareModule &gt;</text>
</g>
<!-- Node2&#45;&gt;Node1 -->
<g id="edge2" class="edge"><title>Node2&#45;&gt;Node1</title>
<path fill="none" stroke="#9a32cd" stroke-dasharray="5,2" d="M617.648,-36.1646C639.563,-39.6885 663.118,-43.4762 683.711,-46.7877"/>
<polygon fill="#9a32cd" stroke="#9a32cd" points="618.14,-32.6988 607.712,-34.5667 617.029,-39.61 618.14,-32.6988"/>
<text text-anchor="middle" x="646" y="-48" font-family="Helvetica,sans-Serif" font-size="10.00"> Modules</text>
</g>
<!-- Node3 -->
<g id="node4" class="node"><title>Node3</title>
<a xlink:href="structant_1_1unpacker_1_1acqu_1_1_file_format_base_1_1_info_1_1_hardware_module.html" target="_top" xlink:title="ant::unpacker::acqu\l::FileFormatBase::Info\l::HardwareModule">
<polygon fill="white" stroke="black" points="272,-0.5 272,-47.5 386,-47.5 386,-0.5 272,-0.5"/>
<text text-anchor="start" x="280" y="-34.5" font-family="Helvetica,sans-Serif" font-size="10.00">ant::unpacker::acqu</text>
<text text-anchor="start" x="280" y="-21.5" font-family="Helvetica,sans-Serif" font-size="10.00">::FileFormatBase::Info</text>
<text text-anchor="middle" x="329" y="-8.5" font-family="Helvetica,sans-Serif" font-size="10.00">::HardwareModule</text>
</a>
</g>
<!-- Node3&#45;&gt;Node2 -->
<g id="edge4" class="edge"><title>Node3&#45;&gt;Node2</title>
<path fill="none" stroke="#9a32cd" stroke-dasharray="5,2" d="M396.093,-24C421.75,-24 450.959,-24 476.468,-24"/>
<polygon fill="#9a32cd" stroke="#9a32cd" points="396.08,-20.5001 386.08,-24 396.08,-27.5001 396.08,-20.5001"/>
<text text-anchor="middle" x="431" y="-28" font-family="Helvetica,sans-Serif" font-size="10.00"> elements</text>
</g>
<!-- Node4 -->
<g id="node6" class="node"><title>Node4</title>
<a xlink:title="STL class. ">
<polygon fill="white" stroke="#bfbfbf" points="134,-51.5 134,-72.5 194,-72.5 194,-51.5 134,-51.5"/>
<text text-anchor="middle" x="164" y="-59.5" font-family="Helvetica,sans-Serif" font-size="10.00">std::string</text>
</a>
</g>
<!-- Node4&#45;&gt;Node1 -->
<g id="edge10" class="edge"><title>Node4&#45;&gt;Node1</title>
<path fill="none" stroke="#9a32cd" stroke-dasharray="5,2" d="M204.322,-62.0209C219.85,-62.0234 237.75,-62.0197 254,-62 437.112,-61.7778 482.997,-67.3157 666,-61 671.738,-60.802 677.72,-60.5243 683.691,-60.2002"/>
<polygon fill="#9a32cd" stroke="#9a32cd" points="204.001,-58.5209 194,-62.0182 203.999,-65.5209 204.001,-58.5209"/>
<text text-anchor="middle" x="431" y="-93" font-family="Helvetica,sans-Serif" font-size="10.00"> Description</text>
<text text-anchor="middle" x="431" y="-80" font-family="Helvetica,sans-Serif" font-size="10.00">OutFile</text>
<text text-anchor="middle" x="431" y="-67" font-family="Helvetica,sans-Serif" font-size="10.00">RunNote</text>
</g>
<!-- Node4&#45;&gt;Node3 -->
<g id="edge6" class="edge"><title>Node4&#45;&gt;Node3</title>
<path fill="none" stroke="#9a32cd" stroke-dasharray="5,2" d="M203.961,-51.0026C206.678,-50.3089 209.376,-49.6351 212,-49 231.38,-44.3086 252.679,-39.6202 271.731,-35.5921"/>
<polygon fill="#9a32cd" stroke="#9a32cd" points="202.94,-47.652 194.15,-53.5677 204.71,-54.4244 202.94,-47.652"/>
<text text-anchor="middle" x="233" y="-53" font-family="Helvetica,sans-Serif" font-size="10.00"> Identifier</text>
</g>
<!-- Node5 -->
<g id="node8" class="node"><title>Node5</title>
<a xlink:title="STL class. ">
<polygon fill="white" stroke="#bfbfbf" points="0.5,-45 0.5,-79 95.5,-79 95.5,-45 0.5,-45"/>
<text text-anchor="start" x="8.5" y="-66" font-family="Helvetica,sans-Serif" font-size="10.00">std::basic_string&lt;</text>
<text text-anchor="middle" x="48" y="-53" font-family="Helvetica,sans-Serif" font-size="10.00"> char &gt;</text>
</a>
</g>
<!-- Node5&#45;&gt;Node4 -->
<g id="edge8" class="edge"><title>Node5&#45;&gt;Node4</title>
<path fill="none" stroke="midnightblue" d="M105.582,-62C115.29,-62 125.014,-62 133.666,-62"/>
<polygon fill="midnightblue" stroke="midnightblue" points="105.516,-58.5001 95.5163,-62 105.516,-65.5001 105.516,-58.5001"/>
</g>
</g>
</svg>
