<?xml version="1.0" encoding="UTF-8" standalone="no"?>
<!DOCTYPE svg PUBLIC "-//W3C//DTD SVG 1.1//EN"
 "http://www.w3.org/Graphics/SVG/1.1/DTD/svg11.dtd">
<!-- Generated by graphviz version 2.26.3 (20100126.1600)
 -->
<!-- Title: ant::expconfig::detector::Trigger_2014 Pages: 1 -->
<svg width="950pt" height="294pt"
 viewBox="0.00 0.00 950.00 294.00" xmlns="http://www.w3.org/2000/svg" xmlns:xlink="http://www.w3.org/1999/xlink">
<g id="graph1" class="graph" transform="scale(1 1) rotate(0) translate(4 290)">
<title>ant::expconfig::detector::Trigger_2014</title>
<polygon fill="white" stroke="white" points="-4,5 -4,-290 947,-290 947,5 -4,5"/>
<!-- Node6 -->
<g id="node1" class="node"><title>Node6</title>
<polygon fill="#bfbfbf" stroke="black" points="822.5,-96 822.5,-130 941.5,-130 941.5,-96 822.5,-96"/>
<text text-anchor="start" x="830.5" y="-117" font-family="Helvetica,sans-Serif" font-size="10.00">ant::expconfig::detector</text>
<text text-anchor="middle" x="882" y="-104" font-family="Helvetica,sans-Serif" font-size="10.00">::Trigger_2014</text>
</g>
<!-- Node7 -->
<g id="node2" class="node"><title>Node7</title>
<a xlink:href="structant_1_1expconfig_1_1detector_1_1_trigger.html" target="_top" xlink:title="ant::expconfig::detector\l::Trigger">
<polygon fill="white" stroke="black" points="594.5,-172 594.5,-206 713.5,-206 713.5,-172 594.5,-172"/>
<text text-anchor="start" x="602.5" y="-193" font-family="Helvetica,sans-Serif" font-size="10.00">ant::expconfig::detector</text>
<text text-anchor="middle" x="654" y="-180" font-family="Helvetica,sans-Serif" font-size="10.00">::Trigger</text>
</a>
</g>
<!-- Node7&#45;&gt;Node6 -->
<g id="edge2" class="edge"><title>Node7&#45;&gt;Node6</title>
<path fill="none" stroke="midnightblue" d="M715.089,-168.637C751.178,-156.607 796.359,-141.547 830.609,-130.13"/>
<polygon fill="midnightblue" stroke="midnightblue" points="713.548,-165.461 705.168,-171.944 715.761,-172.102 713.548,-165.461"/>
</g>
<!-- Node8 -->
<g id="node4" class="node"><title>Node8</title>
<a xlink:href="structant_1_1_detector__t.html" target="_top" xlink:title="The Detector_t struct is the minimal base class for all detectors. ">
<polygon fill="white" stroke="black" points="273,-264.5 273,-285.5 355,-285.5 355,-264.5 273,-264.5"/>
<text text-anchor="middle" x="314" y="-272.5" font-family="Helvetica,sans-Serif" font-size="10.00">ant::Detector_t</text>
</a>
</g>
<!-- Node8&#45;&gt;Node7 -->
<g id="edge4" class="edge"><title>Node8&#45;&gt;Node7</title>
<path fill="none" stroke="midnightblue" d="M365.363,-275.174C419.423,-273.806 506.194,-267.158 576,-241 597.489,-232.948 618.968,-217.991 633.93,-206.178"/>
<polygon fill="midnightblue" stroke="midnightblue" points="365.259,-271.675 355.332,-275.376 365.4,-278.674 365.259,-271.675"/>
</g>
<!-- Node9 -->
<g id="node6" class="node"><title>Node9</title>
<a xlink:href="classant_1_1_unpacker_acqu_config.html" target="_top" xlink:title="ant::UnpackerAcquConfig">
<polygon fill="white" stroke="black" points="249.5,-224.5 249.5,-245.5 378.5,-245.5 378.5,-224.5 249.5,-224.5"/>
<text text-anchor="middle" x="314" y="-232.5" font-family="Helvetica,sans-Serif" font-size="10.00">ant::UnpackerAcquConfig</text>
</a>
</g>
<!-- Node9&#45;&gt;Node7 -->
<g id="edge6" class="edge"><title>Node9&#45;&gt;Node7</title>
<path fill="none" stroke="midnightblue" d="M388.852,-236.466C441.711,-236.041 513.901,-232.501 576,-219 589.61,-216.041 603.982,-211.082 616.629,-206.04"/>
<polygon fill="midnightblue" stroke="midnightblue" points="388.531,-232.967 378.547,-236.511 388.562,-239.967 388.531,-232.967"/>
</g>
<!-- Node10 -->
<g id="node8" class="node"><title>Node10</title>
<a xlink:href="structant_1_1expconfig_1_1detector_1_1_trigger_1_1_reference_timing_hit_mapping__t.html" target="_top" xlink:title="ant::expconfig::detector\l::Trigger::ReferenceTimingHitMapping_t">
<polygon fill="white" stroke="black" points="218.5,-172 218.5,-206 409.5,-206 409.5,-172 218.5,-172"/>
<text text-anchor="start" x="226.5" y="-193" font-family="Helvetica,sans-Serif" font-size="10.00">ant::expconfig::detector</text>
<text text-anchor="middle" x="314" y="-180" font-family="Helvetica,sans-Serif" font-size="10.00">::Trigger::ReferenceTimingHitMapping_t</text>
</a>
</g>
<!-- Node10&#45;&gt;Node7 -->
<g id="edge8" class="edge"><title>Node10&#45;&gt;Node7</title>
<path fill="none" stroke="#9a32cd" stroke-dasharray="5,2" d="M419.831,-189C477.28,-189 546.188,-189 594.324,-189"/>
<polygon fill="#9a32cd" stroke="#9a32cd" points="419.614,-185.5 409.614,-189 419.614,-192.5 419.614,-185.5"/>
<text text-anchor="middle" x="502" y="-206" font-family="Helvetica,sans-Serif" font-size="10.00"> Reference_CATCH_TaggerCrate</text>
<text text-anchor="middle" x="502" y="-193" font-family="Helvetica,sans-Serif" font-size="10.00">Reference_CATCH_CBCrate</text>
</g>
<!-- Node11 -->
<g id="node10" class="node"><title>Node11</title>
<a xlink:href="structant_1_1_logical_channel__t.html" target="_top" xlink:title="The LogicalChannel_t struct uniquely identifies detector element within setup. ">
<polygon fill="white" stroke="black" points="0.5,-178.5 0.5,-199.5 111.5,-199.5 111.5,-178.5 0.5,-178.5"/>
<text text-anchor="middle" x="56" y="-186.5" font-family="Helvetica,sans-Serif" font-size="10.00">ant::LogicalChannel_t</text>
</a>
</g>
<!-- Node11&#45;&gt;Node10 -->
<g id="edge10" class="edge"><title>Node11&#45;&gt;Node10</title>
<path fill="none" stroke="#9a32cd" stroke-dasharray="5,2" d="M121.777,-189C151.091,-189 186.19,-189 218.327,-189"/>
<polygon fill="#9a32cd" stroke="#9a32cd" points="121.665,-185.5 111.665,-189 121.664,-192.5 121.665,-185.5"/>
<text text-anchor="middle" x="165" y="-193" font-family="Helvetica,sans-Serif" font-size="10.00"> LogicalChannel</text>
</g>
<!-- Node12 -->
<g id="node12" class="node"><title>Node12</title>
<a xlink:href="structant_1_1_reconstruct_hook_1_1_detector_read_hits.html" target="_top" xlink:title="The DetectorReadHits struct instances are applied before hit matching. ">
<polygon fill="white" stroke="black" points="597.5,-120 597.5,-154 710.5,-154 710.5,-120 597.5,-120"/>
<text text-anchor="start" x="605.5" y="-141" font-family="Helvetica,sans-Serif" font-size="10.00">ant::ReconstructHook</text>
<text text-anchor="middle" x="654" y="-128" font-family="Helvetica,sans-Serif" font-size="10.00">::DetectorReadHits</text>
</a>
</g>
<!-- Node12&#45;&gt;Node6 -->
<g id="edge12" class="edge"><title>Node12&#45;&gt;Node6</title>
<path fill="none" stroke="midnightblue" d="M720.868,-129.961C753.042,-126.575 791.294,-122.548 822.453,-119.268"/>
<polygon fill="midnightblue" stroke="midnightblue" points="720.231,-126.509 710.652,-131.037 720.964,-133.47 720.231,-126.509"/>
</g>
<!-- Node13 -->
<g id="node14" class="node"><title>Node13</title>
<a xlink:href="structant_1_1_reconstruct_hook_1_1_base.html" target="_top" xlink:title="The Base struct just defines some useful types. ">
<polygon fill="white" stroke="black" points="257.5,-120 257.5,-154 370.5,-154 370.5,-120 257.5,-120"/>
<text text-anchor="start" x="265.5" y="-141" font-family="Helvetica,sans-Serif" font-size="10.00">ant::ReconstructHook</text>
<text text-anchor="middle" x="314" y="-128" font-family="Helvetica,sans-Serif" font-size="10.00">::Base</text>
</a>
</g>
<!-- Node13&#45;&gt;Node12 -->
<g id="edge14" class="edge"><title>Node13&#45;&gt;Node12</title>
<path fill="none" stroke="midnightblue" d="M380.78,-137C443.952,-137 537.723,-137 597.339,-137"/>
<polygon fill="midnightblue" stroke="midnightblue" points="380.526,-133.5 370.526,-137 380.526,-140.5 380.526,-133.5"/>
</g>
<!-- Node14 -->
<g id="node16" class="node"><title>Node14</title>
<a xlink:title="STL class. ">
<polygon fill="white" stroke="#bfbfbf" points="608,-80.5 608,-101.5 700,-101.5 700,-80.5 608,-80.5"/>
<text text-anchor="middle" x="654" y="-88.5" font-family="Helvetica,sans-Serif" font-size="10.00">std::map&lt; K, T &gt;</text>
</a>
</g>
<!-- Node14&#45;&gt;Node6 -->
<g id="edge16" class="edge"><title>Node14&#45;&gt;Node6</title>
<path fill="none" stroke="#9a32cd" stroke-dasharray="5,2" d="M710.355,-96.137C738.493,-98.7331 773.05,-101.969 804,-105 809.961,-105.584 816.177,-106.203 822.385,-106.829"/>
<polygon fill="#9a32cd" stroke="#9a32cd" points="710.577,-92.6426 700.298,-95.211 709.935,-99.6132 710.577,-92.6426"/>
<text text-anchor="middle" x="768" y="-109" font-family="Helvetica,sans-Serif" font-size="10.00"> scaler_mapping</text>
</g>
<!-- Node15 -->
<g id="node18" class="node"><title>Node15</title>
<polygon fill="white" stroke="#bfbfbf" points="299.5,-80.5 299.5,-101.5 328.5,-101.5 328.5,-80.5 299.5,-80.5"/>
<text text-anchor="middle" x="314" y="-88.5" font-family="Helvetica,sans-Serif" font-size="10.00">K</text>
</g>
<!-- Node15&#45;&gt;Node14 -->
<g id="edge18" class="edge"><title>Node15&#45;&gt;Node14</title>
<path fill="none" stroke="#9a32cd" stroke-dasharray="5,2" d="M338.775,-91C395.348,-91 534.757,-91 607.748,-91"/>
<polygon fill="#9a32cd" stroke="#9a32cd" points="338.609,-87.5001 328.609,-91 338.609,-94.5001 338.609,-87.5001"/>
<text text-anchor="middle" x="502" y="-95" font-family="Helvetica,sans-Serif" font-size="10.00"> keys</text>
</g>
<!-- Node16 -->
<g id="node20" class="node"><title>Node16</title>
<polygon fill="white" stroke="#bfbfbf" points="299.5,-40.5 299.5,-61.5 328.5,-61.5 328.5,-40.5 299.5,-40.5"/>
<text text-anchor="middle" x="314" y="-48.5" font-family="Helvetica,sans-Serif" font-size="10.00">T</text>
</g>
<!-- Node16&#45;&gt;Node14 -->
<g id="edge20" class="edge"><title>Node16&#45;&gt;Node14</title>
<path fill="none" stroke="#9a32cd" stroke-dasharray="5,2" d="M338.614,-52.1161C385.182,-54.4587 489.284,-60.7987 576,-74 587.235,-75.7104 599.276,-78.0693 610.453,-80.4858"/>
<polygon fill="#9a32cd" stroke="#9a32cd" points="338.72,-48.6173 328.562,-51.6283 338.381,-55.609 338.72,-48.6173"/>
<text text-anchor="middle" x="502" y="-78" font-family="Helvetica,sans-Serif" font-size="10.00"> elements</text>
</g>
<!-- Node17 -->
<g id="node22" class="node"><title>Node17</title>
<polygon fill="white" stroke="#bfbfbf" points="596,-11 596,-45 712,-45 712,-11 596,-11"/>
<text text-anchor="start" x="604" y="-32" font-family="Helvetica,sans-Serif" font-size="10.00">std::vector&lt; std::bitset</text>
<text text-anchor="middle" x="654" y="-19" font-family="Helvetica,sans-Serif" font-size="10.00">&lt; 16 &gt; &gt;</text>
</g>
<!-- Node17&#45;&gt;Node6 -->
<g id="edge22" class="edge"><title>Node17&#45;&gt;Node6</title>
<path fill="none" stroke="#9a32cd" stroke-dasharray="5,2" d="M712.368,-48.5123C740.193,-58.4183 773.899,-70.6037 804,-82 815.584,-86.3856 828.074,-91.2765 839.592,-95.8536"/>
<polygon fill="#9a32cd" stroke="#9a32cd" points="713.382,-45.1581 702.787,-45.1085 711.039,-51.7543 713.382,-45.1581"/>
<text text-anchor="middle" x="768" y="-86" font-family="Helvetica,sans-Serif" font-size="10.00"> patterns</text>
</g>
<!-- Node18 -->
<g id="node24" class="node"><title>Node18</title>
<polygon fill="white" stroke="#bfbfbf" points="269.5,-0.5 269.5,-21.5 358.5,-21.5 358.5,-0.5 269.5,-0.5"/>
<text text-anchor="middle" x="314" y="-8.5" font-family="Helvetica,sans-Serif" font-size="10.00">std::bitset&lt; 16 &gt;</text>
</g>
<!-- Node18&#45;&gt;Node17 -->
<g id="edge24" class="edge"><title>Node18&#45;&gt;Node17</title>
<path fill="none" stroke="#9a32cd" stroke-dasharray="5,2" d="M368.808,-9.92183C421.893,-9.37865 504.61,-9.85498 576,-16 582.416,-16.5522 589.105,-17.3062 595.751,-18.1692"/>
<polygon fill="#9a32cd" stroke="#9a32cd" points="368.556,-6.42447 358.598,-10.0427 368.639,-13.424 368.556,-6.42447"/>
<text text-anchor="middle" x="502" y="-20" font-family="Helvetica,sans-Serif" font-size="10.00"> elements</text>
</g>
</g>
</svg>
