<?xml version="1.0" encoding="UTF-8" standalone="no"?>
<!DOCTYPE svg PUBLIC "-//W3C//DTD SVG 1.1//EN"
 "http://www.w3.org/Graphics/SVG/1.1/DTD/svg11.dtd">
<!-- Generated by graphviz version 2.26.3 (20100126.1600)
 -->
<!-- Title: ant::WrapTTree::ROOTArray&lt; T &gt; Pages: 1 -->
<svg width="254pt" height="176pt"
 viewBox="0.00 0.00 254.00 176.00" xmlns="http://www.w3.org/2000/svg" xmlns:xlink="http://www.w3.org/1999/xlink">
<g id="graph1" class="graph" transform="scale(1 1) rotate(0) translate(4 172)">
<title>ant::WrapTTree::ROOTArray&lt; T &gt;</title>
<polygon fill="white" stroke="white" points="-4,5 -4,-172 251,-172 251,5 -4,5"/>
<!-- Node3 -->
<g id="node1" class="node"><title>Node3</title>
<polygon fill="#bfbfbf" stroke="black" points="58.5,-0.5 58.5,-21.5 225.5,-21.5 225.5,-0.5 58.5,-0.5"/>
<text text-anchor="middle" x="142" y="-8.5" font-family="Helvetica,sans-Serif" font-size="10.00">ant::WrapTTree::ROOTArray&lt; T &gt;</text>
</g>
<!-- Node4 -->
<g id="node2" class="node"><title>Node4</title>
<a xlink:title="STL class. ">
<polygon fill="white" stroke="#bfbfbf" points="-0.5,-67.5 -0.5,-88.5 86.5,-88.5 86.5,-67.5 -0.5,-67.5"/>
<text text-anchor="middle" x="43" y="-75.5" font-family="Helvetica,sans-Serif" font-size="10.00">std::vector&lt; T &gt;</text>
</a>
</g>
<!-- Node4&#45;&gt;Node3 -->
<g id="edge2" class="edge"><title>Node4&#45;&gt;Node3</title>
<path fill="none" stroke="midnightblue" d="M67.3887,-61.4945C85.8409,-49.0066 110.626,-32.2331 126.46,-21.5171"/>
<polygon fill="midnightblue" stroke="midnightblue" points="65.2261,-58.7319 58.9061,-67.2353 69.1495,-64.5291 65.2261,-58.7319"/>
</g>
<!-- Node5 -->
<g id="node4" class="node"><title>Node5</title>
<polygon fill="white" stroke="#bfbfbf" points="28.5,-146.5 28.5,-167.5 57.5,-167.5 57.5,-146.5 28.5,-146.5"/>
<text text-anchor="middle" x="43" y="-154.5" font-family="Helvetica,sans-Serif" font-size="10.00">T</text>
</g>
<!-- Node5&#45;&gt;Node4 -->
<g id="edge4" class="edge"><title>Node5&#45;&gt;Node4</title>
<path fill="none" stroke="#9a32cd" stroke-dasharray="5,2" d="M43,-136.284C43,-121.031 43,-100.907 43,-88.7378"/>
<polygon fill="#9a32cd" stroke="#9a32cd" points="39.5001,-136.346 43,-146.346 46.5001,-136.346 39.5001,-136.346"/>
<text text-anchor="middle" x="64.5" y="-118.5" font-family="Helvetica,sans-Serif" font-size="10.00"> elements</text>
</g>
<!-- Node6 -->
<g id="node6" class="node"><title>Node6</title>
<polygon fill="white" stroke="#bfbfbf" points="103.5,-61 103.5,-95 246.5,-95 246.5,-61 103.5,-61"/>
<text text-anchor="start" x="111.5" y="-82" font-family="Helvetica,sans-Serif" font-size="10.00">ant::WrapTTree::ROOTArray</text>
<text text-anchor="middle" x="175" y="-69" font-family="Helvetica,sans-Serif" font-size="10.00">_traits</text>
</g>
<!-- Node6&#45;&gt;Node3 -->
<g id="edge6" class="edge"><title>Node6&#45;&gt;Node3</title>
<path fill="none" stroke="midnightblue" d="M161.948,-51.501C156.778,-41.0039 151.135,-29.5468 147.174,-21.5056"/>
<polygon fill="midnightblue" stroke="midnightblue" points="158.943,-53.3214 166.502,-60.7458 165.223,-50.2284 158.943,-53.3214"/>
</g>
</g>
</svg>
