<?xml version="1.0" encoding="UTF-8" standalone="no"?>
<!DOCTYPE svg PUBLIC "-//W3C//DTD SVG 1.1//EN"
 "http://www.w3.org/Graphics/SVG/1.1/DTD/svg11.dtd">
<!-- Generated by graphviz version 2.26.3 (20100126.1600)
 -->
<!-- Title: ant::TClusterHit::Datum Pages: 1 -->
<svg width="130pt" height="116pt"
 viewBox="0.00 0.00 130.00 116.00" xmlns="http://www.w3.org/2000/svg" xmlns:xlink="http://www.w3.org/1999/xlink">
<g id="graph1" class="graph" transform="scale(1 1) rotate(0) translate(4 112)">
<title>ant::TClusterHit::Datum</title>
<polygon fill="white" stroke="white" points="-4,5 -4,-112 127,-112 127,5 -4,5"/>
<!-- Node1 -->
<g id="node1" class="node"><title>Node1</title>
<polygon fill="#bfbfbf" stroke="black" points="0,-0.5 0,-21.5 122,-21.5 122,-0.5 0,-0.5"/>
<text text-anchor="middle" x="61" y="-8.5" font-family="Helvetica,sans-Serif" font-size="10.00">ant::TClusterHit::Datum</text>
</g>
<!-- Node2 -->
<g id="node2" class="node"><title>Node2</title>
<a xlink:href="structant_1_1_t_detector_read_hit_1_1_value__t.html" target="_top" xlink:title="ant::TDetectorReadHit\l::Value_t">
<polygon fill="white" stroke="black" points="3,-73 3,-107 119,-107 119,-73 3,-73"/>
<text text-anchor="start" x="11" y="-94" font-family="Helvetica,sans-Serif" font-size="10.00">ant::TDetectorReadHit</text>
<text text-anchor="middle" x="61" y="-81" font-family="Helvetica,sans-Serif" font-size="10.00">::Value_t</text>
</a>
</g>
<!-- Node2&#45;&gt;Node1 -->
<g id="edge2" class="edge"><title>Node2&#45;&gt;Node1</title>
<path fill="none" stroke="#9a32cd" stroke-dasharray="5,2" d="M61,-62.6228C61,-48.4727 61,-32.0243 61,-21.5672"/>
<polygon fill="#9a32cd" stroke="#9a32cd" points="57.5001,-62.8581 61,-72.8582 64.5001,-62.8582 57.5001,-62.8581"/>
<text text-anchor="middle" x="75" y="-44.5" font-family="Helvetica,sans-Serif" font-size="10.00"> Value</text>
</g>
</g>
</svg>
