<?xml version="1.0" encoding="UTF-8" standalone="no"?>
<!DOCTYPE svg PUBLIC "-//W3C//DTD SVG 1.1//EN"
 "http://www.w3.org/Graphics/SVG/1.1/DTD/svg11.dtd">
<!-- Generated by graphviz version 2.26.3 (20100126.1600)
 -->
<!-- Title: ant::analysis::physics::MCReconstructCheck::histgroup Pages: 1 -->
<svg width="1388pt" height="433pt"
 viewBox="0.00 0.00 1388.00 433.08" xmlns="http://www.w3.org/2000/svg" xmlns:xlink="http://www.w3.org/1999/xlink">
<g id="graph1" class="graph" transform="scale(1 1) rotate(0) translate(4 429.08)">
<title>ant::analysis::physics::MCReconstructCheck::histgroup</title>
<polygon fill="white" stroke="white" points="-4,5 -4,-429.08 1385,-429.08 1385,5 -4,5"/>
<!-- Node1 -->
<g id="node1" class="node"><title>Node1</title>
<polygon fill="#bfbfbf" stroke="black" points="1254,-156.58 1254,-203.58 1380,-203.58 1380,-156.58 1254,-156.58"/>
<text text-anchor="start" x="1262" y="-190.58" font-family="Helvetica,sans-Serif" font-size="10.00">ant::analysis::physics</text>
<text text-anchor="start" x="1262" y="-177.58" font-family="Helvetica,sans-Serif" font-size="10.00">::MCReconstructCheck::</text>
<text text-anchor="middle" x="1317" y="-164.58" font-family="Helvetica,sans-Serif" font-size="10.00">histgroup</text>
</g>
<!-- Node2 -->
<g id="node2" class="node"><title>Node2</title>
<a xlink:title="STL class. ">
<polygon fill="white" stroke="#bfbfbf" points="134,-127.58 134,-148.58 194,-148.58 194,-127.58 134,-127.58"/>
<text text-anchor="middle" x="164" y="-135.58" font-family="Helvetica,sans-Serif" font-size="10.00">std::string</text>
</a>
</g>
<!-- Node2&#45;&gt;Node1 -->
<g id="edge2" class="edge"><title>Node2&#45;&gt;Node1</title>
<path fill="none" stroke="#9a32cd" stroke-dasharray="5,2" d="M167.488,-158.92C179.499,-222.882 225.312,-412.08 347,-412.08 347,-412.08 347,-412.08 1076,-412.08 1195.35,-412.08 1278.38,-262.584 1306.5,-203.602"/>
<polygon fill="#9a32cd" stroke="#9a32cd" points="170.888,-158.048 165.681,-148.821 163.997,-159.282 170.888,-158.048"/>
<text text-anchor="middle" x="717" y="-416.08" font-family="Helvetica,sans-Serif" font-size="10.00"> Prefix</text>
</g>
<!-- Node5 -->
<g id="node8" class="node"><title>Node5</title>
<a xlink:href="structant_1_1hstack.html" target="_top" xlink:title="ant::hstack">
<polygon fill="white" stroke="black" points="1043.5,-169.58 1043.5,-190.58 1108.5,-190.58 1108.5,-169.58 1043.5,-169.58"/>
<text text-anchor="middle" x="1076" y="-177.58" font-family="Helvetica,sans-Serif" font-size="10.00">ant::hstack</text>
</a>
</g>
<!-- Node2&#45;&gt;Node5 -->
<g id="edge24" class="edge"><title>Node2&#45;&gt;Node5</title>
<path fill="none" stroke="#9a32cd" stroke-dasharray="5,2" d="M203.865,-124.891C240.609,-113.917 296.875,-100.08 347,-100.08 347,-100.08 347,-100.08 844,-100.08 849.259,-100.08 984.487,-147.695 1046.02,-169.457"/>
<polygon fill="#9a32cd" stroke="#9a32cd" points="202.579,-121.625 194.04,-127.897 204.627,-128.318 202.579,-121.625"/>
<text text-anchor="middle" x="609" y="-104.08" font-family="Helvetica,sans-Serif" font-size="10.00"> origtitle</text>
</g>
<!-- Node9 -->
<g id="node16" class="node"><title>Node9</title>
<a xlink:href="structant_1_1hstack_1_1hist__t.html" target="_top" xlink:title="ant::hstack::hist_t">
<polygon fill="white" stroke="black" points="561.5,-4.58024 561.5,-25.5802 656.5,-25.5802 656.5,-4.58024 561.5,-4.58024"/>
<text text-anchor="middle" x="609" y="-12.5802" font-family="Helvetica,sans-Serif" font-size="10.00">ant::hstack::hist_t</text>
</a>
</g>
<!-- Node2&#45;&gt;Node9 -->
<g id="edge22" class="edge"><title>Node2&#45;&gt;Node9</title>
<path fill="none" stroke="#9a32cd" stroke-dasharray="5,2" d="M171.061,-117.766C178.624,-98.5125 192.266,-69.8255 212,-51.0802 238.518,-25.8913 250.449,-23.6711 286,-15.0802 381.524,8.00297 497.632,-0.517979 561.375,-8.19019"/>
<polygon fill="#9a32cd" stroke="#9a32cd" points="167.694,-116.776 167.484,-127.368 174.254,-119.219 167.694,-116.776"/>
<text text-anchor="middle" x="347" y="-19.0802" font-family="Helvetica,sans-Serif" font-size="10.00"> Path</text>
</g>
<!-- Node10 -->
<g id="node18" class="node"><title>Node10</title>
<a xlink:href="structant_1_1analysis_1_1plot_1_1histstyle_1_1_mod_option__t.html" target="_top" xlink:title="ant::analysis::plot\l::histstyle::ModOption_t">
<polygon fill="white" stroke="black" points="286.5,-37.0802 286.5,-71.0802 407.5,-71.0802 407.5,-37.0802 286.5,-37.0802"/>
<text text-anchor="start" x="294.5" y="-58.0802" font-family="Helvetica,sans-Serif" font-size="10.00">ant::analysis::plot</text>
<text text-anchor="middle" x="347" y="-45.0802" font-family="Helvetica,sans-Serif" font-size="10.00">::histstyle::ModOption_t</text>
</a>
</g>
<!-- Node2&#45;&gt;Node10 -->
<g id="edge20" class="edge"><title>Node2&#45;&gt;Node10</title>
<path fill="none" stroke="#9a32cd" stroke-dasharray="5,2" d="M173.222,-118.201C181.264,-103.234 194.403,-83.5635 212,-73.0802 234.062,-59.9372 261.673,-54.522 286.167,-52.6449"/>
<polygon fill="#9a32cd" stroke="#9a32cd" points="170.055,-116.709 168.678,-127.214 176.306,-119.86 170.055,-116.709"/>
<text text-anchor="middle" x="240" y="-77.0802" font-family="Helvetica,sans-Serif" font-size="10.00"> DrawOption</text>
</g>
<!-- Node15 -->
<g id="node32" class="node"><title>Node15</title>
<polygon fill="white" stroke="#bfbfbf" points="554,-169.58 554,-216.58 664,-216.58 664,-169.58 554,-169.58"/>
<text text-anchor="start" x="562" y="-203.58" font-family="Helvetica,sans-Serif" font-size="10.00">std::map&lt; std::string,</text>
<text text-anchor="start" x="562" y="-190.58" font-family="Helvetica,sans-Serif" font-size="10.00"> ant::hstack::options</text>
<text text-anchor="middle" x="609" y="-177.58" font-family="Helvetica,sans-Serif" font-size="10.00">_t::hist_t &gt;</text>
</g>
<!-- Node2&#45;&gt;Node15 -->
<g id="edge42" class="edge"><title>Node2&#45;&gt;Node15</title>
<path fill="none" stroke="#9a32cd" stroke-dasharray="5,2" d="M198.262,-152.177C202.825,-153.684 207.487,-155.043 212,-156.08 331.749,-183.595 476.297,-190.742 553.685,-192.538"/>
<polygon fill="#9a32cd" stroke="#9a32cd" points="199.121,-148.767 188.526,-148.708 196.771,-155.361 199.121,-148.767"/>
<text text-anchor="middle" x="347" y="-188.08" font-family="Helvetica,sans-Serif" font-size="10.00"> keys</text>
</g>
<!-- Node16 -->
<g id="node34" class="node"><title>Node16</title>
<a xlink:href="structant_1_1hstack_1_1options__t_1_1hist__t.html" target="_top" xlink:title="ant::hstack::options\l_t::hist_t">
<polygon fill="white" stroke="black" points="295.5,-215.08 295.5,-249.08 398.5,-249.08 398.5,-215.08 295.5,-215.08"/>
<text text-anchor="start" x="303.5" y="-236.08" font-family="Helvetica,sans-Serif" font-size="10.00">ant::hstack::options</text>
<text text-anchor="middle" x="347" y="-223.08" font-family="Helvetica,sans-Serif" font-size="10.00">_t::hist_t</text>
</a>
</g>
<!-- Node2&#45;&gt;Node16 -->
<g id="edge40" class="edge"><title>Node2&#45;&gt;Node16</title>
<path fill="none" stroke="#9a32cd" stroke-dasharray="5,2" d="M174.956,-157.648C183.405,-170.979 196.289,-187.979 212,-198.08 236.904,-214.092 268.886,-222.565 295.47,-227.048"/>
<polygon fill="#9a32cd" stroke="#9a32cd" points="177.757,-155.514 169.61,-148.741 171.755,-159.116 177.757,-155.514"/>
<text text-anchor="middle" x="240" y="-225.08" font-family="Helvetica,sans-Serif" font-size="10.00"> AddTo</text>
</g>
<!-- Node19 -->
<g id="node43" class="node"><title>Node19</title>
<polygon fill="white" stroke="#bfbfbf" points="426,-128.58 426,-149.58 536,-149.58 536,-128.58 426,-128.58"/>
<text text-anchor="middle" x="481" y="-136.58" font-family="Helvetica,sans-Serif" font-size="10.00">std::list&lt; std::string &gt;</text>
</g>
<!-- Node2&#45;&gt;Node19 -->
<g id="edge52" class="edge"><title>Node2&#45;&gt;Node19</title>
<path fill="none" stroke="#9a32cd" stroke-dasharray="5,2" d="M204.381,-138.208C260.581,-138.385 362.578,-138.707 425.777,-138.906"/>
<polygon fill="#9a32cd" stroke="#9a32cd" points="204.119,-134.707 194.108,-138.175 204.097,-141.707 204.119,-134.707"/>
<text text-anchor="middle" x="240" y="-143.08" font-family="Helvetica,sans-Serif" font-size="10.00"> elements</text>
</g>
<!-- Node3 -->
<g id="node4" class="node"><title>Node3</title>
<a xlink:title="STL class. ">
<polygon fill="white" stroke="#bfbfbf" points="0.5,-121.08 0.5,-155.08 95.5,-155.08 95.5,-121.08 0.5,-121.08"/>
<text text-anchor="start" x="8.5" y="-142.08" font-family="Helvetica,sans-Serif" font-size="10.00">std::basic_string&lt;</text>
<text text-anchor="middle" x="48" y="-129.08" font-family="Helvetica,sans-Serif" font-size="10.00"> char &gt;</text>
</a>
</g>
<!-- Node3&#45;&gt;Node2 -->
<g id="edge4" class="edge"><title>Node3&#45;&gt;Node2</title>
<path fill="none" stroke="midnightblue" d="M105.582,-138.08C115.29,-138.08 125.014,-138.08 133.666,-138.08"/>
<polygon fill="midnightblue" stroke="midnightblue" points="105.516,-134.58 95.5163,-138.08 105.516,-141.58 105.516,-134.58"/>
</g>
<!-- Node4 -->
<g id="node6" class="node"><title>Node4</title>
<polygon fill="white" stroke="#bfbfbf" points="1020.5,-129.58 1020.5,-150.58 1131.5,-150.58 1131.5,-129.58 1020.5,-129.58"/>
<text text-anchor="middle" x="1076" y="-137.58" font-family="Helvetica,sans-Serif" font-size="10.00">std::vector&lt; TH1D *&gt;</text>
</g>
<!-- Node4&#45;&gt;Node1 -->
<g id="edge6" class="edge"><title>Node4&#45;&gt;Node1</title>
<path fill="none" stroke="#9a32cd" stroke-dasharray="5,2" d="M1141.68,-148.556C1170.67,-152.544 1205.1,-157.622 1236,-163.08 1241.8,-164.105 1247.82,-165.237 1253.84,-166.417"/>
<polygon fill="#9a32cd" stroke="#9a32cd" points="1142.06,-145.074 1131.67,-147.191 1141.11,-152.01 1142.06,-145.074"/>
<text text-anchor="middle" x="1193" y="-167.08" font-family="Helvetica,sans-Serif" font-size="10.00"> mult2_split_angles</text>
</g>
<!-- Node5&#45;&gt;Node1 -->
<g id="edge8" class="edge"><title>Node5&#45;&gt;Node1</title>
<path fill="none" stroke="#9a32cd" stroke-dasharray="5,2" d="M1118.59,-180.08C1156.12,-180.08 1211.29,-180.08 1253.93,-180.08"/>
<polygon fill="#9a32cd" stroke="#9a32cd" points="1118.5,-176.58 1108.5,-180.08 1118.5,-183.58 1118.5,-176.58"/>
<text text-anchor="middle" x="1193" y="-184.08" font-family="Helvetica,sans-Serif" font-size="10.00"> mult2_split_stack</text>
</g>
<!-- Node6 -->
<g id="node10" class="node"><title>Node6</title>
<polygon fill="white" stroke="#bfbfbf" points="816,-289.58 816,-310.58 872,-310.58 872,-289.58 816,-289.58"/>
<text text-anchor="middle" x="844" y="-297.58" font-family="Helvetica,sans-Serif" font-size="10.00">THStack</text>
</g>
<!-- Node6&#45;&gt;Node5 -->
<g id="edge10" class="edge"><title>Node6&#45;&gt;Node5</title>
<path fill="none" stroke="midnightblue" d="M882.377,-296.216C915.89,-291.475 964.844,-281.15 1002,-259.08 1031.89,-241.326 1057.23,-207.976 1068.98,-190.843"/>
<polygon fill="midnightblue" stroke="midnightblue" points="881.534,-292.797 872.074,-297.567 882.444,-299.737 881.534,-292.797"/>
</g>
<!-- Node7 -->
<g id="node12" class="node"><title>Node7</title>
<polygon fill="white" stroke="#bfbfbf" points="770.5,-249.58 770.5,-270.58 917.5,-270.58 917.5,-249.58 770.5,-249.58"/>
<text text-anchor="middle" x="844" y="-257.58" font-family="Helvetica,sans-Serif" font-size="10.00">std::unique_ptr&lt; TPaveText &gt;</text>
</g>
<!-- Node7&#45;&gt;Node5 -->
<g id="edge12" class="edge"><title>Node7&#45;&gt;Node5</title>
<path fill="none" stroke="#9a32cd" stroke-dasharray="5,2" d="M918.475,-247.384C945.334,-241.576 975.534,-233.596 1002,-223.08 1023.54,-214.521 1046.31,-200.426 1060.81,-190.72"/>
<polygon fill="#9a32cd" stroke="#9a32cd" points="917.429,-244.027 908.359,-249.504 918.865,-250.878 917.429,-244.027"/>
<text text-anchor="middle" x="969" y="-246.08" font-family="Helvetica,sans-Serif" font-size="10.00"> intellititle</text>
</g>
<!-- Node8 -->
<g id="node14" class="node"><title>Node8</title>
<polygon fill="white" stroke="#bfbfbf" points="791.5,-4.58024 791.5,-25.5802 896.5,-25.5802 896.5,-4.58024 791.5,-4.58024"/>
<text text-anchor="middle" x="844" y="-12.5802" font-family="Helvetica,sans-Serif" font-size="10.00">std::vector&lt; hist_t &gt;</text>
</g>
<!-- Node8&#45;&gt;Node5 -->
<g id="edge14" class="edge"><title>Node8&#45;&gt;Node5</title>
<path fill="none" stroke="#9a32cd" stroke-dasharray="5,2" d="M900.463,-3.28953C934.204,0.255081 975.518,-2.10916 1002,-27.0802 1045.4,-68.0029 982.439,-113.741 1020,-160.08 1025.85,-167.298 1034.51,-171.913 1043.28,-174.863"/>
<polygon fill="#9a32cd" stroke="#9a32cd" points="899.751,0.148823 890.26,-4.5608 900.616,-6.79747 899.751,0.148823"/>
<text text-anchor="middle" x="969" y="-31.0802" font-family="Helvetica,sans-Serif" font-size="10.00"> hists</text>
</g>
<!-- Node9&#45;&gt;Node8 -->
<g id="edge16" class="edge"><title>Node9&#45;&gt;Node8</title>
<path fill="none" stroke="#9a32cd" stroke-dasharray="5,2" d="M666.957,-15.0802C704.964,-15.0802 754.27,-15.0802 791.193,-15.0802"/>
<polygon fill="#9a32cd" stroke="#9a32cd" points="666.556,-11.5803 656.556,-15.0802 666.556,-18.5803 666.556,-11.5803"/>
<text text-anchor="middle" x="717" y="-19.0802" font-family="Helvetica,sans-Serif" font-size="10.00"> elements</text>
</g>
<!-- Node10&#45;&gt;Node5 -->
<g id="edge26" class="edge"><title>Node10&#45;&gt;Node5</title>
<path fill="none" stroke="#9a32cd" stroke-dasharray="5,2" d="M417.821,-52.832C578.043,-50.67 957.88,-49.5128 1002,-86.0802 1028.06,-107.68 997.348,-134.93 1020,-160.08 1026.15,-166.907 1034.79,-171.405 1043.45,-174.367"/>
<polygon fill="#9a32cd" stroke="#9a32cd" points="417.541,-49.3355 407.591,-52.9755 417.639,-56.3348 417.541,-49.3355"/>
<text text-anchor="middle" x="717" y="-59.0802" font-family="Helvetica,sans-Serif" font-size="10.00"> current_option</text>
</g>
<!-- Node10&#45;&gt;Node9 -->
<g id="edge18" class="edge"><title>Node10&#45;&gt;Node9</title>
<path fill="none" stroke="#9a32cd" stroke-dasharray="5,2" d="M399.888,-33.8744C408.512,-31.1994 417.429,-28.7945 426,-27.0802 471.27,-18.0259 523.967,-15.3786 561.154,-14.7852"/>
<polygon fill="#9a32cd" stroke="#9a32cd" points="398.739,-30.5677 390.31,-36.9869 400.902,-37.225 398.739,-30.5677"/>
<text text-anchor="middle" x="481" y="-31.0802" font-family="Helvetica,sans-Serif" font-size="10.00"> Option</text>
</g>
<!-- Node11 -->
<g id="node24" class="node"><title>Node11</title>
<a xlink:href="structant_1_1hstack_1_1options__t.html" target="_top" xlink:title="ant::hstack::options_t">
<polygon fill="white" stroke="black" points="788.5,-209.58 788.5,-230.58 899.5,-230.58 899.5,-209.58 788.5,-209.58"/>
<text text-anchor="middle" x="844" y="-217.58" font-family="Helvetica,sans-Serif" font-size="10.00">ant::hstack::options_t</text>
</a>
</g>
<!-- Node11&#45;&gt;Node5 -->
<g id="edge28" class="edge"><title>Node11&#45;&gt;Node5</title>
<path fill="none" stroke="#9a32cd" stroke-dasharray="5,2" d="M909.927,-211.001C938.325,-206.848 971.864,-201.621 1002,-196.08 1015.57,-193.584 1030.46,-190.444 1043.3,-187.608"/>
<polygon fill="#9a32cd" stroke="#9a32cd" points="909.108,-207.583 899.713,-212.48 910.112,-214.51 909.108,-207.583"/>
<text text-anchor="middle" x="969" y="-210.08" font-family="Helvetica,sans-Serif" font-size="10.00"> GlobalOptions</text>
</g>
<!-- Node12 -->
<g id="node26" class="node"><title>Node12</title>
<a xlink:href="classant_1_1interval.html" target="_top" xlink:title="ant::interval\&lt; double \&gt;">
<polygon fill="white" stroke="black" points="290,-334.58 290,-355.58 404,-355.58 404,-334.58 290,-334.58"/>
<text text-anchor="middle" x="347" y="-342.58" font-family="Helvetica,sans-Serif" font-size="10.00">ant::interval&lt; double &gt;</text>
</a>
</g>
<!-- Node12&#45;&gt;Node11 -->
<g id="edge30" class="edge"><title>Node12&#45;&gt;Node11</title>
<path fill="none" stroke="#9a32cd" stroke-dasharray="5,2" d="M414.368,-338.034C514.968,-326.429 698.374,-300.764 752,-263.08 762.621,-255.617 759.181,-247.252 770,-240.08 775.768,-236.257 782.246,-233.161 788.908,-230.656"/>
<polygon fill="#9a32cd" stroke="#9a32cd" points="413.844,-334.571 404.305,-339.18 414.636,-341.526 413.844,-334.571"/>
<text text-anchor="middle" x="609" y="-321.08" font-family="Helvetica,sans-Serif" font-size="10.00"> YAxisRange</text>
</g>
<!-- Node17 -->
<g id="node38" class="node"><title>Node17</title>
<a xlink:href="classant_1_1interval.html" target="_top" xlink:title="ant::interval\&lt; ant\l::interval\&lt; double \&gt; \&gt;">
<polygon fill="white" stroke="black" points="554,-350.08 554,-384.08 664,-384.08 664,-350.08 554,-350.08"/>
<text text-anchor="start" x="562" y="-371.08" font-family="Helvetica,sans-Serif" font-size="10.00">ant::interval&lt; ant</text>
<text text-anchor="middle" x="609" y="-358.08" font-family="Helvetica,sans-Serif" font-size="10.00">::interval&lt; double &gt; &gt;</text>
</a>
</g>
<!-- Node12&#45;&gt;Node17 -->
<g id="edge46" class="edge"><title>Node12&#45;&gt;Node17</title>
<path fill="none" stroke="#9a32cd" stroke-dasharray="5,2" d="M414.327,-350.734C457.584,-354.366 513.081,-359.026 553.745,-362.44"/>
<polygon fill="#9a32cd" stroke="#9a32cd" points="414.431,-347.23 404.173,-349.881 413.845,-354.206 414.431,-347.23"/>
<text text-anchor="middle" x="481" y="-377.08" font-family="Helvetica,sans-Serif" font-size="10.00"> _start</text>
<text text-anchor="middle" x="481" y="-364.08" font-family="Helvetica,sans-Serif" font-size="10.00">_stop</text>
</g>
<!-- Node13 -->
<g id="node28" class="node"><title>Node13</title>
<polygon fill="white" stroke="#bfbfbf" points="554.5,-235.58 554.5,-282.58 663.5,-282.58 663.5,-235.58 554.5,-235.58"/>
<text text-anchor="start" x="562.5" y="-269.58" font-family="Helvetica,sans-Serif" font-size="10.00">std::map&lt; TH1 *, ant</text>
<text text-anchor="start" x="562.5" y="-256.58" font-family="Helvetica,sans-Serif" font-size="10.00">::hstack::options_t::</text>
<text text-anchor="middle" x="609" y="-243.58" font-family="Helvetica,sans-Serif" font-size="10.00">scale_t &gt;</text>
</g>
<!-- Node13&#45;&gt;Node11 -->
<g id="edge32" class="edge"><title>Node13&#45;&gt;Node11</title>
<path fill="none" stroke="#9a32cd" stroke-dasharray="5,2" d="M673.405,-248.392C709.352,-242.426 753.694,-235.067 788.159,-229.347"/>
<polygon fill="#9a32cd" stroke="#9a32cd" points="672.796,-244.945 663.504,-250.035 673.943,-251.85 672.796,-244.945"/>
<text text-anchor="middle" x="717" y="-250.08" font-family="Helvetica,sans-Serif" font-size="10.00"> AppliedScale</text>
</g>
<!-- Node14 -->
<g id="node30" class="node"><title>Node14</title>
<a xlink:href="structant_1_1hstack_1_1options__t_1_1scale__t.html" target="_top" xlink:title="ant::hstack::options\l_t::scale_t">
<polygon fill="white" stroke="black" points="295.5,-267.08 295.5,-301.08 398.5,-301.08 398.5,-267.08 295.5,-267.08"/>
<text text-anchor="start" x="303.5" y="-288.08" font-family="Helvetica,sans-Serif" font-size="10.00">ant::hstack::options</text>
<text text-anchor="middle" x="347" y="-275.08" font-family="Helvetica,sans-Serif" font-size="10.00">_t::scale_t</text>
</a>
</g>
<!-- Node14&#45;&gt;Node13 -->
<g id="edge34" class="edge"><title>Node14&#45;&gt;Node13</title>
<path fill="none" stroke="#9a32cd" stroke-dasharray="5,2" d="M408.791,-278.184C452.913,-273.974 511.729,-268.362 554.183,-264.311"/>
<polygon fill="#9a32cd" stroke="#9a32cd" points="408.385,-274.707 398.763,-279.141 409.05,-281.675 408.385,-274.707"/>
<text text-anchor="middle" x="481" y="-279.08" font-family="Helvetica,sans-Serif" font-size="10.00"> elements</text>
</g>
<!-- Node15&#45;&gt;Node11 -->
<g id="edge36" class="edge"><title>Node15&#45;&gt;Node11</title>
<path fill="none" stroke="#9a32cd" stroke-dasharray="5,2" d="M674.46,-200.601C710.312,-204.72 754.265,-209.77 788.434,-213.696"/>
<polygon fill="#9a32cd" stroke="#9a32cd" points="674.431,-197.075 664.097,-199.411 673.632,-204.029 674.431,-197.075"/>
<text text-anchor="middle" x="717" y="-212.08" font-family="Helvetica,sans-Serif" font-size="10.00"> PerHist</text>
</g>
<!-- Node16&#45;&gt;Node15 -->
<g id="edge38" class="edge"><title>Node16&#45;&gt;Node15</title>
<path fill="none" stroke="#9a32cd" stroke-dasharray="5,2" d="M408.757,-222.887C452.725,-216.343 511.297,-207.624 553.727,-201.308"/>
<polygon fill="#9a32cd" stroke="#9a32cd" points="408.138,-219.441 398.763,-224.375 409.169,-226.365 408.138,-219.441"/>
<text text-anchor="middle" x="481" y="-223.08" font-family="Helvetica,sans-Serif" font-size="10.00"> elements</text>
</g>
<!-- Node17&#45;&gt;Node11 -->
<g id="edge44" class="edge"><title>Node17&#45;&gt;Node11</title>
<path fill="none" stroke="#9a32cd" stroke-dasharray="5,2" d="M674.252,-366.602C701.786,-362.978 732.026,-353.917 752,-333.08 781.134,-302.689 741.333,-270.913 770,-240.08 775.075,-234.622 781.47,-230.595 788.366,-227.634"/>
<polygon fill="#9a32cd" stroke="#9a32cd" points="673.811,-363.129 664.254,-367.703 674.577,-370.087 673.811,-363.129"/>
<text text-anchor="middle" x="717" y="-369.08" font-family="Helvetica,sans-Serif" font-size="10.00"> LegendPosition</text>
</g>
<!-- Node18 -->
<g id="node41" class="node"><title>Node18</title>
<polygon fill="white" stroke="#bfbfbf" points="775.5,-169.58 775.5,-190.58 912.5,-190.58 912.5,-169.58 775.5,-169.58"/>
<text text-anchor="middle" x="844" y="-177.58" font-family="Helvetica,sans-Serif" font-size="10.00">std::unique_ptr&lt; TLegend &gt;</text>
</g>
<!-- Node18&#45;&gt;Node5 -->
<g id="edge48" class="edge"><title>Node18&#45;&gt;Node5</title>
<path fill="none" stroke="#9a32cd" stroke-dasharray="5,2" d="M922.698,-180.08C963.89,-180.08 1012.11,-180.08 1043.3,-180.08"/>
<polygon fill="#9a32cd" stroke="#9a32cd" points="922.666,-176.58 912.666,-180.08 922.666,-183.58 922.666,-176.58"/>
<text text-anchor="middle" x="969" y="-184.08" font-family="Helvetica,sans-Serif" font-size="10.00"> intellilegend</text>
</g>
<!-- Node19&#45;&gt;Node5 -->
<g id="edge50" class="edge"><title>Node19&#45;&gt;Node5</title>
<path fill="none" stroke="#9a32cd" stroke-dasharray="5,2" d="M546.363,-140.633C631.895,-143.029 786.39,-148.606 918,-160.08 961.521,-163.875 1011.51,-170.604 1043.4,-175.2"/>
<polygon fill="#9a32cd" stroke="#9a32cd" points="546.373,-137.132 536.281,-140.357 546.181,-144.13 546.373,-137.132"/>
<text text-anchor="middle" x="717" y="-153.08" font-family="Helvetica,sans-Serif" font-size="10.00"> cutnames</text>
</g>
</g>
</svg>
