<?xml version="1.0" encoding="UTF-8" standalone="no"?>
<!DOCTYPE svg PUBLIC "-//W3C//DTD SVG 1.1//EN"
 "http://www.w3.org/Graphics/SVG/1.1/DTD/svg11.dtd">
<!-- Generated by graphviz version 2.26.3 (20100126.1600)
 -->
<!-- Title: CommonHist_t Pages: 1 -->
<svg width="199pt" height="146pt"
 viewBox="0.00 0.00 199.00 146.00" xmlns="http://www.w3.org/2000/svg" xmlns:xlink="http://www.w3.org/1999/xlink">
<g id="graph1" class="graph" transform="scale(1 1) rotate(0) translate(4 142)">
<title>CommonHist_t</title>
<polygon fill="white" stroke="white" points="-4,5 -4,-142 196,-142 196,5 -4,5"/>
<!-- Node0 -->
<g id="node1" class="node"><title>Node0</title>
<polygon fill="#bfbfbf" stroke="black" points="24.5,-116.5 24.5,-137.5 107.5,-137.5 107.5,-116.5 24.5,-116.5"/>
<text text-anchor="middle" x="66" y="-124.5" font-family="Helvetica,sans-Serif" font-size="10.00">CommonHist_t</text>
</g>
<!-- Node1 -->
<g id="node3" class="node"><title>Node1</title>
<a xlink:href="struct_ref_hist__t.html" target="_top" xlink:title="RefHist_t">
<polygon fill="white" stroke="black" points="-0.5,-58.5 -0.5,-79.5 58.5,-79.5 58.5,-58.5 -0.5,-58.5"/>
<text text-anchor="middle" x="29" y="-66.5" font-family="Helvetica,sans-Serif" font-size="10.00">RefHist_t</text>
</a>
</g>
<!-- Node0&#45;&gt;Node1 -->
<g id="edge2" class="edge"><title>Node0&#45;&gt;Node1</title>
<path fill="none" stroke="midnightblue" d="M53.6667,-107.667C47.688,-98.2948 40.7392,-87.4019 35.7433,-79.5707"/>
<polygon fill="midnightblue" stroke="midnightblue" points="50.8847,-109.814 59.2136,-116.362 56.7862,-106.049 50.8847,-109.814"/>
</g>
<!-- Node2 -->
<g id="node5" class="node"><title>Node2</title>
<a xlink:href="struct_sig_hist__t.html" target="_top" xlink:title="SigHist_t">
<polygon fill="white" stroke="black" points="75.5,-58.5 75.5,-79.5 132.5,-79.5 132.5,-58.5 75.5,-58.5"/>
<text text-anchor="middle" x="104" y="-66.5" font-family="Helvetica,sans-Serif" font-size="10.00">SigHist_t</text>
</a>
</g>
<!-- Node0&#45;&gt;Node2 -->
<g id="edge4" class="edge"><title>Node0&#45;&gt;Node2</title>
<path fill="none" stroke="midnightblue" d="M78.4751,-107.959C84.658,-98.522 91.8901,-87.4835 97.0744,-79.5707"/>
<polygon fill="midnightblue" stroke="midnightblue" points="75.5225,-106.079 72.9698,-116.362 81.3777,-109.915 75.5225,-106.079"/>
</g>
<!-- Node3 -->
<g id="node7" class="node"><title>Node3</title>
<a xlink:href="struct_sig_omega_pi0_hist__t.html" target="_top" xlink:title="SigOmegaPi0Hist_t">
<polygon fill="white" stroke="black" points="0.5,-0.5 0.5,-21.5 103.5,-21.5 103.5,-0.5 0.5,-0.5"/>
<text text-anchor="middle" x="52" y="-8.5" font-family="Helvetica,sans-Serif" font-size="10.00">SigOmegaPi0Hist_t</text>
</a>
</g>
<!-- Node2&#45;&gt;Node3 -->
<g id="edge6" class="edge"><title>Node2&#45;&gt;Node3</title>
<path fill="none" stroke="midnightblue" d="M87.7096,-50.8299C79.0829,-41.2078 68.7908,-29.7282 61.4771,-21.5707"/>
<polygon fill="midnightblue" stroke="midnightblue" points="85.1809,-53.2526 94.4624,-58.3619 90.3929,-48.5798 85.1809,-53.2526"/>
</g>
<!-- Node4 -->
<g id="node9" class="node"><title>Node4</title>
<a xlink:href="struct_sig_pi0_hist__t.html" target="_top" xlink:title="SigPi0Hist_t">
<polygon fill="white" stroke="black" points="120.5,-0.5 120.5,-21.5 191.5,-21.5 191.5,-0.5 120.5,-0.5"/>
<text text-anchor="middle" x="156" y="-8.5" font-family="Helvetica,sans-Serif" font-size="10.00">SigPi0Hist_t</text>
</a>
</g>
<!-- Node2&#45;&gt;Node4 -->
<g id="edge8" class="edge"><title>Node2&#45;&gt;Node4</title>
<path fill="none" stroke="midnightblue" d="M120.29,-50.8299C128.917,-41.2078 139.209,-29.7282 146.523,-21.5707"/>
<polygon fill="midnightblue" stroke="midnightblue" points="117.607,-48.5798 113.538,-58.3619 122.819,-53.2526 117.607,-48.5798"/>
</g>
</g>
</svg>
