<?xml version="1.0" encoding="UTF-8" standalone="no"?>
<!DOCTYPE svg PUBLIC "-//W3C//DTD SVG 1.1//EN"
 "http://www.w3.org/Graphics/SVG/1.1/DTD/svg11.dtd">
<!-- Generated by graphviz version 2.26.3 (20100126.1600)
 -->
<!-- Title: triplePi0_Plot::TriplePi0Hist_t::HistMgr&lt; Hist &gt; Pages: 1 -->
<svg width="126pt" height="116pt"
 viewBox="0.00 0.00 126.00 116.00" xmlns="http://www.w3.org/2000/svg" xmlns:xlink="http://www.w3.org/1999/xlink">
<g id="graph1" class="graph" transform="scale(1 1) rotate(0) translate(4 112)">
<title>triplePi0_Plot::TriplePi0Hist_t::HistMgr&lt; Hist &gt;</title>
<polygon fill="white" stroke="white" points="-4,5 -4,-112 123,-112 123,5 -4,5"/>
<!-- Node0 -->
<g id="node1" class="node"><title>Node0</title>
<polygon fill="#bfbfbf" stroke="black" points="-0.5,-1 -0.5,-35 118.5,-35 118.5,-1 -0.5,-1"/>
<text text-anchor="start" x="7.5" y="-22" font-family="Helvetica,sans-Serif" font-size="10.00">triplePi0_Plot::TriplePi0</text>
<text text-anchor="middle" x="59" y="-9" font-family="Helvetica,sans-Serif" font-size="10.00">Hist_t::HistMgr&lt; Hist &gt;</text>
</g>
<!-- Node1 -->
<g id="node2" class="node"><title>Node1</title>
<a xlink:title="STL class. ">
<polygon fill="white" stroke="#bfbfbf" points="10.5,-73 10.5,-107 107.5,-107 107.5,-73 10.5,-73"/>
<text text-anchor="start" x="18.5" y="-94" font-family="Helvetica,sans-Serif" font-size="10.00">std::list&lt; HistFiller</text>
<text text-anchor="middle" x="59" y="-81" font-family="Helvetica,sans-Serif" font-size="10.00">_t&lt; Hist &gt; &gt;</text>
</a>
</g>
<!-- Node1&#45;&gt;Node0 -->
<g id="edge2" class="edge"><title>Node1&#45;&gt;Node0</title>
<path fill="none" stroke="midnightblue" d="M59,-62.7193C59,-53.572 59,-43.6255 59,-35.4407"/>
<polygon fill="midnightblue" stroke="midnightblue" points="55.5001,-62.937 59,-72.937 62.5001,-62.937 55.5001,-62.937"/>
</g>
</g>
</svg>
