<?xml version="1.0" encoding="UTF-8" standalone="no"?>
<!DOCTYPE svg PUBLIC "-//W3C//DTD SVG 1.1//EN"
 "http://www.w3.org/Graphics/SVG/1.1/DTD/svg11.dtd">
<!-- Generated by graphviz version 2.26.3 (20100126.1600)
 -->
<!-- Title: ant::expconfig::detector::TAPSVeto_2013 Pages: 1 -->
<svg width="236pt" height="246pt"
 viewBox="0.00 0.00 236.00 246.00" xmlns="http://www.w3.org/2000/svg" xmlns:xlink="http://www.w3.org/1999/xlink">
<g id="graph1" class="graph" transform="scale(1 1) rotate(0) translate(4 242)">
<title>ant::expconfig::detector::TAPSVeto_2013</title>
<polygon fill="white" stroke="white" points="-4,5 -4,-242 233,-242 233,5 -4,5"/>
<!-- Node0 -->
<g id="node1" class="node"><title>Node0</title>
<polygon fill="#bfbfbf" stroke="black" points="42.5,-73 42.5,-107 161.5,-107 161.5,-73 42.5,-73"/>
<text text-anchor="start" x="50.5" y="-94" font-family="Helvetica,sans-Serif" font-size="10.00">ant::expconfig::detector</text>
<text text-anchor="middle" x="102" y="-81" font-family="Helvetica,sans-Serif" font-size="10.00">::TAPSVeto_2013</text>
</g>
<!-- Node4 -->
<g id="node9" class="node"><title>Node4</title>
<a xlink:href="structant_1_1expconfig_1_1detector_1_1_t_a_p_s_veto__2014.html" target="_top" xlink:title="ant::expconfig::detector\l::TAPSVeto_2014">
<polygon fill="white" stroke="black" points="42.5,-1 42.5,-35 161.5,-35 161.5,-1 42.5,-1"/>
<text text-anchor="start" x="50.5" y="-22" font-family="Helvetica,sans-Serif" font-size="10.00">ant::expconfig::detector</text>
<text text-anchor="middle" x="102" y="-9" font-family="Helvetica,sans-Serif" font-size="10.00">::TAPSVeto_2014</text>
</a>
</g>
<!-- Node0&#45;&gt;Node4 -->
<g id="edge8" class="edge"><title>Node0&#45;&gt;Node4</title>
<path fill="none" stroke="midnightblue" d="M102,-62.7193C102,-53.572 102,-43.6255 102,-35.4407"/>
<polygon fill="midnightblue" stroke="midnightblue" points="98.5001,-62.937 102,-72.937 105.5,-62.937 98.5001,-62.937"/>
</g>
<!-- Node1 -->
<g id="node2" class="node"><title>Node1</title>
<a xlink:href="structant_1_1expconfig_1_1detector_1_1_t_a_p_s_veto.html" target="_top" xlink:title="ant::expconfig::detector\l::TAPSVeto">
<polygon fill="white" stroke="black" points="42.5,-145 42.5,-179 161.5,-179 161.5,-145 42.5,-145"/>
<text text-anchor="start" x="50.5" y="-166" font-family="Helvetica,sans-Serif" font-size="10.00">ant::expconfig::detector</text>
<text text-anchor="middle" x="102" y="-153" font-family="Helvetica,sans-Serif" font-size="10.00">::TAPSVeto</text>
</a>
</g>
<!-- Node1&#45;&gt;Node0 -->
<g id="edge2" class="edge"><title>Node1&#45;&gt;Node0</title>
<path fill="none" stroke="midnightblue" d="M102,-134.719C102,-125.572 102,-115.625 102,-107.441"/>
<polygon fill="midnightblue" stroke="midnightblue" points="98.5001,-134.937 102,-144.937 105.5,-134.937 98.5001,-134.937"/>
</g>
<!-- Node2 -->
<g id="node4" class="node"><title>Node2</title>
<a xlink:href="structant_1_1_detector__t.html" target="_top" xlink:title="The Detector_t struct is the minimal base class for all detectors. ">
<polygon fill="white" stroke="black" points="0,-216.5 0,-237.5 82,-237.5 82,-216.5 0,-216.5"/>
<text text-anchor="middle" x="41" y="-224.5" font-family="Helvetica,sans-Serif" font-size="10.00">ant::Detector_t</text>
</a>
</g>
<!-- Node2&#45;&gt;Node1 -->
<g id="edge4" class="edge"><title>Node2&#45;&gt;Node1</title>
<path fill="none" stroke="midnightblue" d="M58.1676,-208.707C66.878,-199.425 77.3946,-188.219 85.9431,-179.11"/>
<polygon fill="midnightblue" stroke="midnightblue" points="55.3639,-206.58 51.0729,-216.267 60.4682,-211.37 55.3639,-206.58"/>
</g>
<!-- Node3 -->
<g id="node6" class="node"><title>Node3</title>
<a xlink:href="classant_1_1_unpacker_acqu_config.html" target="_top" xlink:title="ant::UnpackerAcquConfig">
<polygon fill="white" stroke="black" points="99.5,-216.5 99.5,-237.5 228.5,-237.5 228.5,-216.5 99.5,-216.5"/>
<text text-anchor="middle" x="164" y="-224.5" font-family="Helvetica,sans-Serif" font-size="10.00">ant::UnpackerAcquConfig</text>
</a>
</g>
<!-- Node3&#45;&gt;Node1 -->
<g id="edge6" class="edge"><title>Node3&#45;&gt;Node1</title>
<path fill="none" stroke="midnightblue" d="M146.819,-208.987C137.914,-199.652 127.097,-188.311 118.32,-179.11"/>
<polygon fill="midnightblue" stroke="midnightblue" points="144.327,-211.446 153.762,-216.267 149.392,-206.615 144.327,-211.446"/>
</g>
</g>
</svg>
