<?xml version="1.0" encoding="UTF-8" standalone="no"?>
<!DOCTYPE svg PUBLIC "-//W3C//DTD SVG 1.1//EN"
 "http://www.w3.org/Graphics/SVG/1.1/DTD/svg11.dtd">
<!-- Generated by graphviz version 2.26.3 (20100126.1600)
 -->
<!-- Title: ant::analysis::physics::triplePi0::effTree_t Pages: 1 -->
<svg width="390pt" height="94pt"
 viewBox="0.00 0.00 390.00 94.00" xmlns="http://www.w3.org/2000/svg" xmlns:xlink="http://www.w3.org/1999/xlink">
<g id="graph1" class="graph" transform="scale(1 1) rotate(0) translate(4 90)">
<title>ant::analysis::physics::triplePi0::effTree_t</title>
<polygon fill="white" stroke="white" points="-4,5 -4,-90 387,-90 387,5 -4,5"/>
<!-- Node0 -->
<g id="node1" class="node"><title>Node0</title>
<polygon fill="#bfbfbf" stroke="black" points="122,-26 122,-60 234,-60 234,-26 122,-26"/>
<text text-anchor="start" x="130" y="-47" font-family="Helvetica,sans-Serif" font-size="10.00">ant::analysis::physics</text>
<text text-anchor="middle" x="178" y="-34" font-family="Helvetica,sans-Serif" font-size="10.00">::triplePi0::effTree_t</text>
</g>
<!-- Node2 -->
<g id="node5" class="node"><title>Node2</title>
<a xlink:href="structant_1_1analysis_1_1physics_1_1triple_pi0_1_1_rec_tree.html" target="_top" xlink:title="ant::analysis::physics\l::triplePi0::RecTree">
<polygon fill="white" stroke="black" points="270,-52 270,-86 382,-86 382,-52 270,-52"/>
<text text-anchor="start" x="278" y="-73" font-family="Helvetica,sans-Serif" font-size="10.00">ant::analysis::physics</text>
<text text-anchor="middle" x="326" y="-60" font-family="Helvetica,sans-Serif" font-size="10.00">::triplePi0::RecTree</text>
</a>
</g>
<!-- Node0&#45;&gt;Node2 -->
<g id="edge4" class="edge"><title>Node0&#45;&gt;Node2</title>
<path fill="none" stroke="midnightblue" d="M244.28,-54.6438C252.796,-56.1398 261.449,-57.6599 269.782,-59.1239"/>
<polygon fill="midnightblue" stroke="midnightblue" points="244.829,-51.1868 234.375,-52.9037 243.618,-58.0812 244.829,-51.1868"/>
</g>
<!-- Node3 -->
<g id="node7" class="node"><title>Node3</title>
<a xlink:href="structant_1_1analysis_1_1physics_1_1triple_pi0_1_1_seen_tree.html" target="_top" xlink:title="ant::analysis::physics\l::triplePi0::SeenTree">
<polygon fill="white" stroke="black" points="270,-0 270,-34 382,-34 382,-0 270,-0"/>
<text text-anchor="start" x="278" y="-21" font-family="Helvetica,sans-Serif" font-size="10.00">ant::analysis::physics</text>
<text text-anchor="middle" x="326" y="-8" font-family="Helvetica,sans-Serif" font-size="10.00">::triplePi0::SeenTree</text>
</a>
</g>
<!-- Node0&#45;&gt;Node3 -->
<g id="edge6" class="edge"><title>Node0&#45;&gt;Node3</title>
<path fill="none" stroke="midnightblue" d="M244.28,-31.3562C252.796,-29.8602 261.449,-28.3401 269.782,-26.8761"/>
<polygon fill="midnightblue" stroke="midnightblue" points="243.618,-27.9188 234.375,-33.0963 244.829,-34.8132 243.618,-27.9188"/>
</g>
<!-- Node1 -->
<g id="node2" class="node"><title>Node1</title>
<a xlink:href="classant_1_1_wrap_t_tree.html" target="_top" xlink:title="The WrapTTree struct simplifies TTree handling in physics classes. ">
<polygon fill="white" stroke="black" points="0.5,-32.5 0.5,-53.5 85.5,-53.5 85.5,-32.5 0.5,-32.5"/>
<text text-anchor="middle" x="43" y="-40.5" font-family="Helvetica,sans-Serif" font-size="10.00">ant::WrapTTree</text>
</a>
</g>
<!-- Node1&#45;&gt;Node0 -->
<g id="edge2" class="edge"><title>Node1&#45;&gt;Node0</title>
<path fill="none" stroke="midnightblue" d="M95.8668,-43C104.353,-43 113.163,-43 121.725,-43"/>
<polygon fill="midnightblue" stroke="midnightblue" points="95.7149,-39.5001 85.7148,-43 95.7148,-46.5001 95.7149,-39.5001"/>
</g>
</g>
</svg>
