<?xml version="1.0" encoding="UTF-8" standalone="no"?>
<!DOCTYPE svg PUBLIC "-//W3C//DTD SVG 1.1//EN"
 "http://www.w3.org/Graphics/SVG/1.1/DTD/svg11.dtd">
<!-- Generated by graphviz version 2.26.3 (20100126.1600)
 -->
<!-- Title: ant::analysis::physics::Etap3pi0::settings_t Pages: 1 -->
<svg width="120pt" height="276pt"
 viewBox="0.00 0.00 120.00 276.00" xmlns="http://www.w3.org/2000/svg" xmlns:xlink="http://www.w3.org/1999/xlink">
<g id="graph1" class="graph" transform="scale(1 1) rotate(0) translate(4 272)">
<title>ant::analysis::physics::Etap3pi0::settings_t</title>
<polygon fill="white" stroke="white" points="-4,5 -4,-272 117,-272 117,5 -4,5"/>
<!-- Node1 -->
<g id="node1" class="node"><title>Node1</title>
<polygon fill="#bfbfbf" stroke="black" points="0,-1 0,-35 112,-35 112,-1 0,-1"/>
<text text-anchor="start" x="8" y="-22" font-family="Helvetica,sans-Serif" font-size="10.00">ant::analysis::physics</text>
<text text-anchor="middle" x="56" y="-9" font-family="Helvetica,sans-Serif" font-size="10.00">::Etap3pi0::settings_t</text>
</g>
<!-- Node2 -->
<g id="node2" class="node"><title>Node2</title>
<polygon fill="white" stroke="#bfbfbf" points="9,-87 9,-121 103,-121 103,-87 9,-87"/>
<text text-anchor="start" x="17" y="-108" font-family="Helvetica,sans-Serif" font-size="10.00">std::map&lt; int, std</text>
<text text-anchor="middle" x="56" y="-95" font-family="Helvetica,sans-Serif" font-size="10.00">::string &gt;</text>
</g>
<!-- Node2&#45;&gt;Node1 -->
<g id="edge2" class="edge"><title>Node2&#45;&gt;Node1</title>
<path fill="none" stroke="#9a32cd" stroke-dasharray="5,2" d="M56,-76.342C56,-62.7741 56,-46.8607 56,-35.084"/>
<polygon fill="#9a32cd" stroke="#9a32cd" points="52.5001,-76.5966 56,-86.5966 59.5001,-76.5967 52.5001,-76.5966"/>
<text text-anchor="middle" x="84" y="-58.5" font-family="Helvetica,sans-Serif" font-size="10.00"> EventTypes</text>
</g>
<!-- Node3 -->
<g id="node4" class="node"><title>Node3</title>
<a xlink:title="STL class. ">
<polygon fill="white" stroke="#bfbfbf" points="26,-172.5 26,-193.5 86,-193.5 86,-172.5 26,-172.5"/>
<text text-anchor="middle" x="56" y="-180.5" font-family="Helvetica,sans-Serif" font-size="10.00">std::string</text>
</a>
</g>
<!-- Node3&#45;&gt;Node2 -->
<g id="edge4" class="edge"><title>Node3&#45;&gt;Node2</title>
<path fill="none" stroke="#9a32cd" stroke-dasharray="5,2" d="M56,-162.162C56,-149.363 56,-133.171 56,-121.124"/>
<polygon fill="#9a32cd" stroke="#9a32cd" points="52.5001,-162.346 56,-172.346 59.5001,-162.346 52.5001,-162.346"/>
<text text-anchor="middle" x="77.5" y="-144.5" font-family="Helvetica,sans-Serif" font-size="10.00"> elements</text>
</g>
<!-- Node4 -->
<g id="node6" class="node"><title>Node4</title>
<a xlink:title="STL class. ">
<polygon fill="white" stroke="#bfbfbf" points="8.5,-233 8.5,-267 103.5,-267 103.5,-233 8.5,-233"/>
<text text-anchor="start" x="16.5" y="-254" font-family="Helvetica,sans-Serif" font-size="10.00">std::basic_string&lt;</text>
<text text-anchor="middle" x="56" y="-241" font-family="Helvetica,sans-Serif" font-size="10.00"> char &gt;</text>
</a>
</g>
<!-- Node4&#45;&gt;Node3 -->
<g id="edge6" class="edge"><title>Node4&#45;&gt;Node3</title>
<path fill="none" stroke="midnightblue" d="M56,-222.534C56,-212.306 56,-201.301 56,-193.506"/>
<polygon fill="midnightblue" stroke="midnightblue" points="52.5001,-222.746 56,-232.746 59.5001,-222.746 52.5001,-222.746"/>
</g>
</g>
</svg>
