<?xml version="1.0" encoding="UTF-8" standalone="no"?>
<!DOCTYPE svg PUBLIC "-//W3C//DTD SVG 1.1//EN"
 "http://www.w3.org/Graphics/SVG/1.1/DTD/svg11.dtd">
<!-- Generated by graphviz version 2.26.3 (20100126.1600)
 -->
<!-- Title: ant::analysis::physics::triplePi0::fitRatings_t Pages: 1 -->
<svg width="416pt" height="176pt"
 viewBox="0.00 0.00 416.00 176.00" xmlns="http://www.w3.org/2000/svg" xmlns:xlink="http://www.w3.org/1999/xlink">
<g id="graph1" class="graph" transform="scale(1 1) rotate(0) translate(4 172)">
<title>ant::analysis::physics::triplePi0::fitRatings_t</title>
<polygon fill="white" stroke="white" points="-4,5 -4,-172 413,-172 413,5 -4,5"/>
<!-- Node1 -->
<g id="node1" class="node"><title>Node1</title>
<polygon fill="#bfbfbf" stroke="black" points="155,-1 155,-35 269,-35 269,-1 155,-1"/>
<text text-anchor="start" x="163" y="-22" font-family="Helvetica,sans-Serif" font-size="10.00">ant::analysis::physics</text>
<text text-anchor="middle" x="212" y="-9" font-family="Helvetica,sans-Serif" font-size="10.00">::triplePi0::fitRatings_t</text>
</g>
<!-- Node2 -->
<g id="node2" class="node"><title>Node2</title>
<polygon fill="white" stroke="#bfbfbf" points="0,-86.5 0,-107.5 120,-107.5 120,-86.5 0,-86.5"/>
<text text-anchor="middle" x="60" y="-94.5" font-family="Helvetica,sans-Serif" font-size="10.00">std::vector&lt; unsigned &gt;</text>
</g>
<!-- Node2&#45;&gt;Node1 -->
<g id="edge2" class="edge"><title>Node2&#45;&gt;Node1</title>
<path fill="none" stroke="#9a32cd" stroke-dasharray="5,2" d="M80.5467,-79.9762C91.5021,-71.4404 105.48,-61.3782 119,-54 132.07,-46.8673 146.854,-40.4641 160.725,-35.1053"/>
<polygon fill="#9a32cd" stroke="#9a32cd" points="78.1107,-77.4422 72.4753,-86.414 82.4755,-82.9147 78.1107,-77.4422"/>
<text text-anchor="middle" x="163.5" y="-58.5" font-family="Helvetica,sans-Serif" font-size="10.00"> PhotonCombination</text>
</g>
<!-- Node3 -->
<g id="node4" class="node"><title>Node3</title>
<polygon fill="white" stroke="#bfbfbf" points="138,-86.5 138,-107.5 286,-107.5 286,-86.5 138,-86.5"/>
<text text-anchor="middle" x="212" y="-94.5" font-family="Helvetica,sans-Serif" font-size="10.00">std::vector&lt; TLorentzVector &gt;</text>
</g>
<!-- Node3&#45;&gt;Node1 -->
<g id="edge4" class="edge"><title>Node3&#45;&gt;Node1</title>
<path fill="none" stroke="#9a32cd" stroke-dasharray="5,2" d="M212,-76.1618C212,-63.3635 212,-47.1713 212,-35.1236"/>
<polygon fill="#9a32cd" stroke="#9a32cd" points="208.5,-76.3457 212,-86.3457 215.5,-76.3457 208.5,-76.3457"/>
<text text-anchor="middle" x="243.5" y="-58.5" font-family="Helvetica,sans-Serif" font-size="10.00"> Intermediates</text>
</g>
<!-- Node4 -->
<g id="node6" class="node"><title>Node4</title>
<a xlink:href="structant_1_1_t_simple_particle.html" target="_top" xlink:title="Base TSimpleParticle class. ">
<polygon fill="white" stroke="black" points="303.5,-86.5 303.5,-107.5 408.5,-107.5 408.5,-86.5 303.5,-86.5"/>
<text text-anchor="middle" x="356" y="-94.5" font-family="Helvetica,sans-Serif" font-size="10.00">ant::TSimpleParticle</text>
</a>
</g>
<!-- Node4&#45;&gt;Node1 -->
<g id="edge6" class="edge"><title>Node4&#45;&gt;Node1</title>
<path fill="none" stroke="#9a32cd" stroke-dasharray="5,2" d="M328.342,-81.412C313.706,-73.1992 295.413,-62.9915 279,-54 267.651,-47.7826 255.172,-41.0497 244.092,-35.1072"/>
<polygon fill="#9a32cd" stroke="#9a32cd" points="326.943,-84.6406 337.376,-86.4882 330.372,-78.5381 326.943,-84.6406"/>
<text text-anchor="middle" x="318" y="-58.5" font-family="Helvetica,sans-Serif" font-size="10.00"> Proton</text>
</g>
<!-- Node5 -->
<g id="node8" class="node"><title>Node5</title>
<polygon fill="white" stroke="#bfbfbf" points="314.5,-146.5 314.5,-167.5 397.5,-167.5 397.5,-146.5 314.5,-146.5"/>
<text text-anchor="middle" x="356" y="-154.5" font-family="Helvetica,sans-Serif" font-size="10.00">TLorentzVector</text>
</g>
<!-- Node5&#45;&gt;Node4 -->
<g id="edge8" class="edge"><title>Node5&#45;&gt;Node4</title>
<path fill="none" stroke="midnightblue" d="M356,-136.231C356,-126.592 356,-115.544 356,-107.634"/>
<polygon fill="midnightblue" stroke="midnightblue" points="352.5,-136.273 356,-146.273 359.5,-136.273 352.5,-136.273"/>
</g>
</g>
</svg>
