<?xml version="1.0" encoding="UTF-8" standalone="no"?>
<!DOCTYPE svg PUBLIC "-//W3C//DTD SVG 1.1//EN"
 "http://www.w3.org/Graphics/SVG/1.1/DTD/svg11.dtd">
<!-- Generated by graphviz version 2.26.3 (20100126.1600)
 -->
<!-- Title: Pulls_t Pages: 1 -->
<svg width="136pt" height="224pt"
 viewBox="0.00 0.00 136.00 224.00" xmlns="http://www.w3.org/2000/svg" xmlns:xlink="http://www.w3.org/1999/xlink">
<g id="graph1" class="graph" transform="scale(1 1) rotate(0) translate(4 220)">
<title>Pulls_t</title>
<polygon fill="white" stroke="white" points="-4,5 -4,-220 133,-220 133,5 -4,5"/>
<!-- Node1 -->
<g id="node1" class="node"><title>Node1</title>
<polygon fill="#bfbfbf" stroke="black" points="40.5,-0.5 40.5,-21.5 87.5,-21.5 87.5,-0.5 40.5,-0.5"/>
<text text-anchor="middle" x="64" y="-8.5" font-family="Helvetica,sans-Serif" font-size="10.00">Pulls_t</text>
</g>
<!-- Node2 -->
<g id="node2" class="node"><title>Node2</title>
<a xlink:href="structant_1_1std__ext_1_1_r_m_s__t.html" target="_top" xlink:title="ant::std_ext::RMS_t\&lt; T \&gt;">
<polygon fill="white" stroke="black" points="-0.5,-110.5 -0.5,-131.5 128.5,-131.5 128.5,-110.5 -0.5,-110.5"/>
<text text-anchor="middle" x="64" y="-118.5" font-family="Helvetica,sans-Serif" font-size="10.00">ant::std_ext::RMS_t&lt; T &gt;</text>
</a>
</g>
<!-- Node2&#45;&gt;Node1 -->
<g id="edge2" class="edge"><title>Node2&#45;&gt;Node1</title>
<path fill="none" stroke="#9a32cd" stroke-dasharray="5,2" d="M64,-100.22C64,-76.8464 64,-39.7904 64,-21.677"/>
<polygon fill="#9a32cd" stroke="#9a32cd" points="60.5001,-100.453 64,-110.453 67.5001,-100.453 60.5001,-100.453"/>
<text text-anchor="middle" x="90" y="-83" font-family="Helvetica,sans-Serif" font-size="10.00"> Theta_Rxy</text>
<text text-anchor="middle" x="90" y="-70" font-family="Helvetica,sans-Serif" font-size="10.00">Ek</text>
<text text-anchor="middle" x="90" y="-57" font-family="Helvetica,sans-Serif" font-size="10.00">R_L</text>
<text text-anchor="middle" x="90" y="-44" font-family="Helvetica,sans-Serif" font-size="10.00">Phi</text>
</g>
<!-- Node3 -->
<g id="node4" class="node"><title>Node3</title>
<polygon fill="white" stroke="#bfbfbf" points="49.5,-194.5 49.5,-215.5 78.5,-215.5 78.5,-194.5 49.5,-194.5"/>
<text text-anchor="middle" x="64" y="-202.5" font-family="Helvetica,sans-Serif" font-size="10.00">T</text>
</g>
<!-- Node3&#45;&gt;Node2 -->
<g id="edge4" class="edge"><title>Node3&#45;&gt;Node2</title>
<path fill="none" stroke="#9a32cd" stroke-dasharray="5,2" d="M64,-183.945C64,-167.257 64,-144.639 64,-131.552"/>
<polygon fill="#9a32cd" stroke="#9a32cd" points="60.5001,-184.361 64,-194.361 67.5001,-184.361 60.5001,-184.361"/>
<text text-anchor="middle" x="76.5" y="-167" font-family="Helvetica,sans-Serif" font-size="10.00"> sum</text>
<text text-anchor="middle" x="76.5" y="-154" font-family="Helvetica,sans-Serif" font-size="10.00">sum2</text>
</g>
</g>
</svg>
