<?xml version="1.0" encoding="UTF-8" standalone="no"?>
<!DOCTYPE svg PUBLIC "-//W3C//DTD SVG 1.1//EN"
 "http://www.w3.org/Graphics/SVG/1.1/DTD/svg11.dtd">
<!-- Generated by graphviz version 2.26.3 (20100126.1600)
 -->
<!-- Title: ant::expconfig::detector::TAPS::TAPS_Element_t Pages: 1 -->
<svg width="278pt" height="334pt"
 viewBox="0.00 0.00 278.00 334.00" xmlns="http://www.w3.org/2000/svg" xmlns:xlink="http://www.w3.org/1999/xlink">
<g id="graph1" class="graph" transform="scale(1 1) rotate(0) translate(4 330)">
<title>ant::expconfig::detector::TAPS::TAPS_Element_t</title>
<polygon fill="white" stroke="white" points="-4,5 -4,-330 275,-330 275,5 -4,5"/>
<!-- Node5 -->
<g id="node1" class="node"><title>Node5</title>
<polygon fill="#bfbfbf" stroke="black" points="108.5,-1 108.5,-35 239.5,-35 239.5,-1 108.5,-1"/>
<text text-anchor="start" x="116.5" y="-22" font-family="Helvetica,sans-Serif" font-size="10.00">ant::expconfig::detector</text>
<text text-anchor="middle" x="174" y="-9" font-family="Helvetica,sans-Serif" font-size="10.00">::TAPS::TAPS_Element_t</text>
</g>
<!-- Node6 -->
<g id="node2" class="node"><title>Node6</title>
<a xlink:href="structant_1_1_cluster_detector__t_1_1_element__t.html" target="_top" xlink:title="ant::ClusterDetector\l_t::Element_t">
<polygon fill="white" stroke="black" points="121.5,-75 121.5,-109 226.5,-109 226.5,-75 121.5,-75"/>
<text text-anchor="start" x="129.5" y="-96" font-family="Helvetica,sans-Serif" font-size="10.00">ant::ClusterDetector</text>
<text text-anchor="middle" x="174" y="-83" font-family="Helvetica,sans-Serif" font-size="10.00">_t::Element_t</text>
</a>
</g>
<!-- Node6&#45;&gt;Node5 -->
<g id="edge2" class="edge"><title>Node6&#45;&gt;Node5</title>
<path fill="none" stroke="midnightblue" d="M174,-64.6275C174,-54.7253 174,-43.8344 174,-35.07"/>
<polygon fill="midnightblue" stroke="midnightblue" points="170.5,-64.8369 174,-74.8369 177.5,-64.8369 170.5,-64.8369"/>
</g>
<!-- Node7 -->
<g id="node4" class="node"><title>Node7</title>
<a xlink:href="structant_1_1_detector__t_1_1_element__t.html" target="_top" xlink:title="ant::Detector_t::Element_t">
<polygon fill="white" stroke="black" points="0,-160.5 0,-181.5 132,-181.5 132,-160.5 0,-160.5"/>
<text text-anchor="middle" x="66" y="-168.5" font-family="Helvetica,sans-Serif" font-size="10.00">ant::Detector_t::Element_t</text>
</a>
</g>
<!-- Node7&#45;&gt;Node6 -->
<g id="edge4" class="edge"><title>Node7&#45;&gt;Node6</title>
<path fill="none" stroke="midnightblue" d="M88.8415,-154.292C106.995,-141.013 132.29,-122.51 150.591,-109.124"/>
<polygon fill="midnightblue" stroke="midnightblue" points="86.5702,-151.617 80.5654,-160.346 90.7029,-157.267 86.5702,-151.617"/>
</g>
<!-- Node8 -->
<g id="node6" class="node"><title>Node8</title>
<a xlink:href="structant_1_1vec3.html" target="_top" xlink:title="ant::vec3">
<polygon fill="white" stroke="black" points="6.5,-232.5 6.5,-253.5 63.5,-253.5 63.5,-232.5 6.5,-232.5"/>
<text text-anchor="middle" x="35" y="-240.5" font-family="Helvetica,sans-Serif" font-size="10.00">ant::vec3</text>
</a>
</g>
<!-- Node8&#45;&gt;Node7 -->
<g id="edge6" class="edge"><title>Node8&#45;&gt;Node7</title>
<path fill="none" stroke="#9a32cd" stroke-dasharray="5,2" d="M43.5996,-223.027C49.3645,-209.637 56.7293,-192.532 61.4071,-181.667"/>
<polygon fill="#9a32cd" stroke="#9a32cd" points="40.3141,-221.807 39.5742,-232.376 46.7435,-224.575 40.3141,-221.807"/>
<text text-anchor="middle" x="73.5" y="-204.5" font-family="Helvetica,sans-Serif" font-size="10.00"> Position</text>
</g>
<!-- Node9 -->
<g id="node8" class="node"><title>Node9</title>
<a xlink:href="classant_1_1bitflag.html" target="_top" xlink:title="ant::bitflag\&lt; ElementFlag_t \&gt;">
<polygon fill="white" stroke="black" points="80.5,-232.5 80.5,-253.5 223.5,-253.5 223.5,-232.5 80.5,-232.5"/>
<text text-anchor="middle" x="152" y="-240.5" font-family="Helvetica,sans-Serif" font-size="10.00">ant::bitflag&lt; ElementFlag_t &gt;</text>
</a>
</g>
<!-- Node9&#45;&gt;Node7 -->
<g id="edge8" class="edge"><title>Node9&#45;&gt;Node7</title>
<path fill="none" stroke="#9a32cd" stroke-dasharray="5,2" d="M131.369,-225.728C114.99,-212.015 92.6092,-193.277 78.7417,-181.667"/>
<polygon fill="#9a32cd" stroke="#9a32cd" points="129.396,-228.64 139.31,-232.376 133.89,-223.273 129.396,-228.64"/>
<text text-anchor="middle" x="131" y="-204.5" font-family="Helvetica,sans-Serif" font-size="10.00"> Flags</text>
</g>
<!-- Node10 -->
<g id="node10" class="node"><title>Node10</title>
<polygon fill="white" stroke="#bfbfbf" points="107.5,-304.5 107.5,-325.5 196.5,-325.5 196.5,-304.5 107.5,-304.5"/>
<text text-anchor="middle" x="152" y="-312.5" font-family="Helvetica,sans-Serif" font-size="10.00">std::bitset&lt; 32 &gt;</text>
</g>
<!-- Node10&#45;&gt;Node9 -->
<g id="edge10" class="edge"><title>Node10&#45;&gt;Node9</title>
<path fill="none" stroke="#9a32cd" stroke-dasharray="5,2" d="M152,-294.235C152,-280.969 152,-264.319 152,-253.667"/>
<polygon fill="#9a32cd" stroke="#9a32cd" points="148.5,-294.376 152,-304.376 155.5,-294.376 148.5,-294.376"/>
<text text-anchor="middle" x="161.5" y="-276.5" font-family="Helvetica,sans-Serif" font-size="10.00"> bits</text>
</g>
<!-- Node11 -->
<g id="node12" class="node"><title>Node11</title>
<polygon fill="white" stroke="#bfbfbf" points="150,-160.5 150,-181.5 270,-181.5 270,-160.5 150,-160.5"/>
<text text-anchor="middle" x="210" y="-168.5" font-family="Helvetica,sans-Serif" font-size="10.00">std::vector&lt; unsigned &gt;</text>
</g>
<!-- Node11&#45;&gt;Node6 -->
<g id="edge12" class="edge"><title>Node11&#45;&gt;Node6</title>
<path fill="none" stroke="#9a32cd" stroke-dasharray="5,2" d="M200.856,-150.933C194.971,-138.019 187.404,-121.415 181.803,-109.124"/>
<polygon fill="#9a32cd" stroke="#9a32cd" points="197.813,-152.697 205.145,-160.346 204.183,-149.795 197.813,-152.697"/>
<text text-anchor="middle" x="223.5" y="-132.5" font-family="Helvetica,sans-Serif" font-size="10.00"> Neighbours</text>
</g>
</g>
</svg>
