<?xml version="1.0" encoding="UTF-8" standalone="no"?>
<!DOCTYPE svg PUBLIC "-//W3C//DTD SVG 1.1//EN"
 "http://www.w3.org/Graphics/SVG/1.1/DTD/svg11.dtd">
<!-- Generated by graphviz version 2.26.3 (20100126.1600)
 -->
<!-- Title: ant::expconfig::setup::ImprovedTimeFct2015 Pages: 1 -->
<svg width="259pt" height="684pt"
 viewBox="0.00 0.00 259.00 684.00" xmlns="http://www.w3.org/2000/svg" xmlns:xlink="http://www.w3.org/1999/xlink">
<g id="graph1" class="graph" transform="scale(1 1) rotate(0) translate(4 680)">
<title>ant::expconfig::setup::ImprovedTimeFct2015</title>
<polygon fill="white" stroke="white" points="-4,5 -4,-680 256,-680 256,5 -4,5"/>
<!-- Node4 -->
<g id="node1" class="node"><title>Node4</title>
<polygon fill="#bfbfbf" stroke="black" points="1,-1 1,-35 121,-35 121,-1 1,-1"/>
<text text-anchor="start" x="9" y="-22" font-family="Helvetica,sans-Serif" font-size="10.00">ant::expconfig::setup</text>
<text text-anchor="middle" x="61" y="-9" font-family="Helvetica,sans-Serif" font-size="10.00">::ImprovedTimeFct2015</text>
</g>
<!-- Node5 -->
<g id="node2" class="node"><title>Node5</title>
<a xlink:href="classant_1_1calibration_1_1gui_1_1_fit_gaus_pol0.html" target="_top" xlink:title="ant::calibration::gui\l::FitGausPol0">
<polygon fill="white" stroke="black" points="11.5,-75 11.5,-109 110.5,-109 110.5,-75 11.5,-75"/>
<text text-anchor="start" x="19.5" y="-96" font-family="Helvetica,sans-Serif" font-size="10.00">ant::calibration::gui</text>
<text text-anchor="middle" x="61" y="-83" font-family="Helvetica,sans-Serif" font-size="10.00">::FitGausPol0</text>
</a>
</g>
<!-- Node5&#45;&gt;Node4 -->
<g id="edge2" class="edge"><title>Node5&#45;&gt;Node4</title>
<path fill="none" stroke="midnightblue" d="M61,-64.6275C61,-54.7253 61,-43.8344 61,-35.07"/>
<polygon fill="midnightblue" stroke="midnightblue" points="57.5001,-64.8369 61,-74.8369 64.5001,-64.8369 57.5001,-64.8369"/>
</g>
<!-- Node6 -->
<g id="node4" class="node"><title>Node6</title>
<a xlink:href="classant_1_1calibration_1_1gui_1_1_peaking_fit_function.html" target="_top" xlink:title="Fit functions describing peak shapes, like Gaus or Lorentz with optional background function...">
<polygon fill="white" stroke="black" points="7.5,-149 7.5,-183 114.5,-183 114.5,-149 7.5,-149"/>
<text text-anchor="start" x="15.5" y="-170" font-family="Helvetica,sans-Serif" font-size="10.00">ant::calibration::gui</text>
<text text-anchor="middle" x="61" y="-157" font-family="Helvetica,sans-Serif" font-size="10.00">::PeakingFitFunction</text>
</a>
</g>
<!-- Node6&#45;&gt;Node5 -->
<g id="edge4" class="edge"><title>Node6&#45;&gt;Node5</title>
<path fill="none" stroke="midnightblue" d="M61,-138.627C61,-128.725 61,-117.834 61,-109.07"/>
<polygon fill="midnightblue" stroke="midnightblue" points="57.5001,-138.837 61,-148.837 64.5001,-138.837 57.5001,-138.837"/>
</g>
<!-- Node7 -->
<g id="node6" class="node"><title>Node7</title>
<a xlink:href="classant_1_1calibration_1_1gui_1_1_fit_function.html" target="_top" xlink:title="ant::calibration::gui\l::FitFunction">
<polygon fill="white" stroke="black" points="11.5,-223 11.5,-257 110.5,-257 110.5,-223 11.5,-223"/>
<text text-anchor="start" x="19.5" y="-244" font-family="Helvetica,sans-Serif" font-size="10.00">ant::calibration::gui</text>
<text text-anchor="middle" x="61" y="-231" font-family="Helvetica,sans-Serif" font-size="10.00">::FitFunction</text>
</a>
</g>
<!-- Node7&#45;&gt;Node6 -->
<g id="edge6" class="edge"><title>Node7&#45;&gt;Node6</title>
<path fill="none" stroke="midnightblue" d="M61,-212.627C61,-202.725 61,-191.834 61,-183.07"/>
<polygon fill="midnightblue" stroke="midnightblue" points="57.5001,-212.837 61,-222.837 64.5001,-212.837 57.5001,-212.837"/>
</g>
<!-- Node8 -->
<g id="node8" class="node"><title>Node8</title>
<polygon fill="white" stroke="#bfbfbf" points="73,-309 73,-343 193,-343 193,-309 73,-309"/>
<text text-anchor="start" x="81" y="-330" font-family="Helvetica,sans-Serif" font-size="10.00">std::list&lt; std::unique</text>
<text text-anchor="middle" x="133" y="-317" font-family="Helvetica,sans-Serif" font-size="10.00">_ptr&lt; IndicatorKnob &gt; &gt;</text>
</g>
<!-- Node8&#45;&gt;Node7 -->
<g id="edge8" class="edge"><title>Node8&#45;&gt;Node7</title>
<path fill="none" stroke="#9a32cd" stroke-dasharray="5,2" d="M111.847,-300.734C100.08,-286.679 85.7482,-269.56 75.3029,-257.084"/>
<polygon fill="#9a32cd" stroke="#9a32cd" points="109.327,-303.176 118.43,-308.597 114.694,-298.682 109.327,-303.176"/>
<text text-anchor="middle" x="116" y="-280.5" font-family="Helvetica,sans-Serif" font-size="10.00"> knobs</text>
</g>
<!-- Node9 -->
<g id="node10" class="node"><title>Node9</title>
<polygon fill="white" stroke="#bfbfbf" points="123,-395 123,-429 251,-429 251,-395 123,-395"/>
<text text-anchor="start" x="131" y="-416" font-family="Helvetica,sans-Serif" font-size="10.00">std::unique_ptr&lt; Indicator</text>
<text text-anchor="middle" x="187" y="-403" font-family="Helvetica,sans-Serif" font-size="10.00">Knob &gt;</text>
</g>
<!-- Node9&#45;&gt;Node8 -->
<g id="edge10" class="edge"><title>Node9&#45;&gt;Node8</title>
<path fill="none" stroke="#9a32cd" stroke-dasharray="5,2" d="M170.638,-385.943C161.909,-372.041 151.415,-355.327 143.727,-343.084"/>
<polygon fill="#9a32cd" stroke="#9a32cd" points="167.79,-387.989 176.072,-394.597 173.719,-384.266 167.79,-387.989"/>
<text text-anchor="middle" x="184.5" y="-366.5" font-family="Helvetica,sans-Serif" font-size="10.00"> elements</text>
</g>
<!-- Node10 -->
<g id="node12" class="node"><title>Node10</title>
<a xlink:href="classant_1_1calibration_1_1gui_1_1_indicator_knob.html" target="_top" xlink:title="ant::calibration::gui\l::IndicatorKnob">
<polygon fill="white" stroke="black" points="117.5,-481 117.5,-515 216.5,-515 216.5,-481 117.5,-481"/>
<text text-anchor="start" x="125.5" y="-502" font-family="Helvetica,sans-Serif" font-size="10.00">ant::calibration::gui</text>
<text text-anchor="middle" x="167" y="-489" font-family="Helvetica,sans-Serif" font-size="10.00">::IndicatorKnob</text>
</a>
</g>
<!-- Node10&#45;&gt;Node9 -->
<g id="edge12" class="edge"><title>Node10&#45;&gt;Node9</title>
<path fill="none" stroke="#9a32cd" stroke-dasharray="5,2" d="M173.339,-470.744C176.514,-457.09 180.261,-440.977 183.027,-429.084"/>
<polygon fill="#9a32cd" stroke="#9a32cd" points="169.903,-470.064 171.047,-480.597 176.722,-471.649 169.903,-470.064"/>
<text text-anchor="middle" x="185.5" y="-452.5" font-family="Helvetica,sans-Serif" font-size="10.00"> ptr</text>
</g>
<!-- Node11 -->
<g id="node14" class="node"><title>Node11</title>
<a xlink:title="STL class. ">
<polygon fill="white" stroke="#bfbfbf" points="17,-573.5 17,-594.5 77,-594.5 77,-573.5 17,-573.5"/>
<text text-anchor="middle" x="47" y="-581.5" font-family="Helvetica,sans-Serif" font-size="10.00">std::string</text>
</a>
</g>
<!-- Node11&#45;&gt;Node7 -->
<g id="edge20" class="edge"><title>Node11&#45;&gt;Node7</title>
<path fill="none" stroke="#9a32cd" stroke-dasharray="5,2" d="M39.5403,-563.766C33.8564,-546.53 27,-520.977 27,-498 27,-498 27,-498 27,-326 27,-300.633 39.9513,-273.819 49.8671,-257.007"/>
<polygon fill="#9a32cd" stroke="#9a32cd" points="36.2722,-565.024 42.856,-573.325 42.8857,-562.73 36.2722,-565.024"/>
<text text-anchor="middle" x="66" y="-409.5" font-family="Helvetica,sans-Serif" font-size="10.00"> AdditionalFitArgs</text>
</g>
<!-- Node11&#45;&gt;Node10 -->
<g id="edge14" class="edge"><title>Node11&#45;&gt;Node10</title>
<path fill="none" stroke="#9a32cd" stroke-dasharray="5,2" d="M70.0351,-567.491C90.9904,-552.474 121.802,-530.392 143.041,-515.171"/>
<polygon fill="#9a32cd" stroke="#9a32cd" points="67.8037,-564.785 61.7144,-573.455 71.8814,-570.474 67.8037,-564.785"/>
<text text-anchor="middle" x="128" y="-538.5" font-family="Helvetica,sans-Serif" font-size="10.00"> name</text>
</g>
<!-- Node12 -->
<g id="node16" class="node"><title>Node12</title>
<a xlink:title="STL class. ">
<polygon fill="white" stroke="#bfbfbf" points="-0.5,-641 -0.5,-675 94.5,-675 94.5,-641 -0.5,-641"/>
<text text-anchor="start" x="7.5" y="-662" font-family="Helvetica,sans-Serif" font-size="10.00">std::basic_string&lt;</text>
<text text-anchor="middle" x="47" y="-649" font-family="Helvetica,sans-Serif" font-size="10.00"> char &gt;</text>
</a>
</g>
<!-- Node12&#45;&gt;Node11 -->
<g id="edge16" class="edge"><title>Node12&#45;&gt;Node11</title>
<path fill="none" stroke="midnightblue" d="M47,-630.506C47,-618.13 47,-604.232 47,-594.879"/>
<polygon fill="midnightblue" stroke="midnightblue" points="43.5001,-630.837 47,-640.837 50.5001,-630.837 43.5001,-630.837"/>
</g>
<!-- Node13 -->
<g id="node18" class="node"><title>Node13</title>
<a xlink:href="structant_1_1calibration_1_1gui_1_1_indicator_properties.html" target="_top" xlink:title="ant::calibration::gui\l::IndicatorProperties">
<polygon fill="white" stroke="black" points="115,-567 115,-601 219,-601 219,-567 115,-567"/>
<text text-anchor="start" x="123" y="-588" font-family="Helvetica,sans-Serif" font-size="10.00">ant::calibration::gui</text>
<text text-anchor="middle" x="167" y="-575" font-family="Helvetica,sans-Serif" font-size="10.00">::IndicatorProperties</text>
</a>
</g>
<!-- Node13&#45;&gt;Node10 -->
<g id="edge18" class="edge"><title>Node13&#45;&gt;Node10</title>
<path fill="none" stroke="#9a32cd" stroke-dasharray="5,2" d="M167,-556.342C167,-542.774 167,-526.861 167,-515.084"/>
<polygon fill="#9a32cd" stroke="#9a32cd" points="163.5,-556.597 167,-566.597 170.5,-556.597 163.5,-556.597"/>
<text text-anchor="middle" x="175" y="-538.5" font-family="Helvetica,sans-Serif" font-size="10.00"> gui</text>
</g>
</g>
</svg>
