<?xml version="1.0" encoding="UTF-8" standalone="no"?>
<!DOCTYPE svg PUBLIC "-//W3C//DTD SVG 1.1//EN"
 "http://www.w3.org/Graphics/SVG/1.1/DTD/svg11.dtd">
<!-- Generated by graphviz version 2.26.3 (20100126.1600)
 -->
<!-- Title: ant::analysis::physics::EtapDalitz::RefTree_t Pages: 1 -->
<svg width="418pt" height="146pt"
 viewBox="0.00 0.00 418.00 146.00" xmlns="http://www.w3.org/2000/svg" xmlns:xlink="http://www.w3.org/1999/xlink">
<g id="graph1" class="graph" transform="scale(1 1) rotate(0) translate(4 142)">
<title>ant::analysis::physics::EtapDalitz::RefTree_t</title>
<polygon fill="white" stroke="white" points="-4,5 -4,-142 415,-142 415,5 -4,5"/>
<!-- Node5 -->
<g id="node1" class="node"><title>Node5</title>
<polygon fill="#bfbfbf" stroke="black" points="292,-52 292,-86 410,-86 410,-52 292,-52"/>
<text text-anchor="start" x="300" y="-73" font-family="Helvetica,sans-Serif" font-size="10.00">ant::analysis::physics</text>
<text text-anchor="middle" x="351" y="-60" font-family="Helvetica,sans-Serif" font-size="10.00">::EtapDalitz::RefTree_t</text>
</g>
<!-- Node6 -->
<g id="node2" class="node"><title>Node6</title>
<a xlink:href="structant_1_1analysis_1_1physics_1_1_etap_dalitz_1_1common__tree.html" target="_top" xlink:title="ant::analysis::physics\l::EtapDalitz::common_tree">
<polygon fill="white" stroke="black" points="122,-104 122,-138 256,-138 256,-104 122,-104"/>
<text text-anchor="start" x="130" y="-125" font-family="Helvetica,sans-Serif" font-size="10.00">ant::analysis::physics</text>
<text text-anchor="middle" x="189" y="-112" font-family="Helvetica,sans-Serif" font-size="10.00">::EtapDalitz::common_tree</text>
</a>
</g>
<!-- Node6&#45;&gt;Node5 -->
<g id="edge2" class="edge"><title>Node6&#45;&gt;Node5</title>
<path fill="none" stroke="midnightblue" d="M251.872,-100.819C267.06,-95.9438 283.143,-90.7811 297.836,-86.065"/>
<polygon fill="midnightblue" stroke="midnightblue" points="250.497,-97.5844 242.045,-103.973 252.636,-104.249 250.497,-97.5844"/>
</g>
<!-- Node7 -->
<g id="node4" class="node"><title>Node7</title>
<a xlink:href="classant_1_1_wrap_t_tree.html" target="_top" xlink:title="The WrapTTree struct simplifies TTree handling in physics classes. ">
<polygon fill="white" stroke="black" points="0.5,-58.5 0.5,-79.5 85.5,-79.5 85.5,-58.5 0.5,-58.5"/>
<text text-anchor="middle" x="43" y="-66.5" font-family="Helvetica,sans-Serif" font-size="10.00">ant::WrapTTree</text>
</a>
</g>
<!-- Node7&#45;&gt;Node6 -->
<g id="edge4" class="edge"><title>Node7&#45;&gt;Node6</title>
<path fill="none" stroke="midnightblue" d="M82.2082,-82.9646C100.332,-89.4197 122.022,-97.1449 141.106,-103.942"/>
<polygon fill="midnightblue" stroke="midnightblue" points="83.14,-79.5811 72.5453,-79.523 80.7913,-86.1753 83.14,-79.5811"/>
</g>
<!-- Node8 -->
<g id="node6" class="node"><title>Node8</title>
<a xlink:href="structant_1_1analysis_1_1physics_1_1_etap_dalitz_1_1proton__tree.html" target="_top" xlink:title="ant::analysis::physics\l::EtapDalitz::proton_tree">
<polygon fill="white" stroke="black" points="127.5,-52 127.5,-86 250.5,-86 250.5,-52 127.5,-52"/>
<text text-anchor="start" x="135.5" y="-73" font-family="Helvetica,sans-Serif" font-size="10.00">ant::analysis::physics</text>
<text text-anchor="middle" x="189" y="-60" font-family="Helvetica,sans-Serif" font-size="10.00">::EtapDalitz::proton_tree</text>
</a>
</g>
<!-- Node7&#45;&gt;Node8 -->
<g id="edge8" class="edge"><title>Node7&#45;&gt;Node8</title>
<path fill="none" stroke="midnightblue" d="M95.668,-69C105.943,-69 116.801,-69 127.337,-69"/>
<polygon fill="midnightblue" stroke="midnightblue" points="95.6218,-65.5001 85.6217,-69 95.6217,-72.5001 95.6218,-65.5001"/>
</g>
<!-- Node9 -->
<g id="node9" class="node"><title>Node9</title>
<a xlink:href="structant_1_1analysis_1_1physics_1_1_etap_dalitz_1_1fit__tree.html" target="_top" xlink:title="ant::analysis::physics\l::EtapDalitz::fit_tree">
<polygon fill="white" stroke="black" points="133,-0 133,-34 245,-34 245,-0 133,-0"/>
<text text-anchor="start" x="141" y="-21" font-family="Helvetica,sans-Serif" font-size="10.00">ant::analysis::physics</text>
<text text-anchor="middle" x="189" y="-8" font-family="Helvetica,sans-Serif" font-size="10.00">::EtapDalitz::fit_tree</text>
</a>
</g>
<!-- Node7&#45;&gt;Node9 -->
<g id="edge12" class="edge"><title>Node7&#45;&gt;Node9</title>
<path fill="none" stroke="midnightblue" d="M82.2082,-55.0354C100.332,-48.5803 122.022,-40.8551 141.106,-34.0582"/>
<polygon fill="midnightblue" stroke="midnightblue" points="80.7913,-51.8247 72.5453,-58.477 83.14,-58.4189 80.7913,-51.8247"/>
</g>
<!-- Node8&#45;&gt;Node5 -->
<g id="edge6" class="edge"><title>Node8&#45;&gt;Node5</title>
<path fill="none" stroke="midnightblue" d="M260.951,-69C271.286,-69 281.82,-69 291.869,-69"/>
<polygon fill="midnightblue" stroke="midnightblue" points="260.707,-65.5001 250.707,-69 260.707,-72.5001 260.707,-65.5001"/>
</g>
<!-- Node9&#45;&gt;Node5 -->
<g id="edge10" class="edge"><title>Node9&#45;&gt;Node5</title>
<path fill="none" stroke="midnightblue" d="M251.872,-37.1812C267.06,-42.0562 283.143,-47.2189 297.836,-51.935"/>
<polygon fill="midnightblue" stroke="midnightblue" points="252.636,-33.7506 242.045,-34.0267 250.497,-40.4156 252.636,-33.7506"/>
</g>
</g>
</svg>
