<?xml version="1.0" encoding="UTF-8" standalone="no"?>
<!DOCTYPE svg PUBLIC "-//W3C//DTD SVG 1.1//EN"
 "http://www.w3.org/Graphics/SVG/1.1/DTD/svg11.dtd">
<!-- Generated by graphviz version 2.26.3 (20100126.1600)
 -->
<!-- Title: ant::analysis::physics::ExtractScalers::medians_t Pages: 1 -->
<svg width="146pt" height="312pt"
 viewBox="0.00 0.00 146.00 312.00" xmlns="http://www.w3.org/2000/svg" xmlns:xlink="http://www.w3.org/1999/xlink">
<g id="graph1" class="graph" transform="scale(1 1) rotate(0) translate(4 308)">
<title>ant::analysis::physics::ExtractScalers::medians_t</title>
<polygon fill="white" stroke="white" points="-4,5 -4,-308 143,-308 143,5 -4,5"/>
<!-- Node1 -->
<g id="node1" class="node"><title>Node1</title>
<polygon fill="#bfbfbf" stroke="black" points="0,-1 0,-35 138,-35 138,-1 0,-1"/>
<text text-anchor="start" x="8" y="-22" font-family="Helvetica,sans-Serif" font-size="10.00">ant::analysis::physics</text>
<text text-anchor="middle" x="69" y="-9" font-family="Helvetica,sans-Serif" font-size="10.00">::ExtractScalers::medians_t</text>
</g>
<!-- Node2 -->
<g id="node2" class="node"><title>Node2</title>
<polygon fill="white" stroke="#bfbfbf" points="16.5,-113 16.5,-147 121.5,-147 121.5,-113 16.5,-113"/>
<text text-anchor="start" x="24.5" y="-134" font-family="Helvetica,sans-Serif" font-size="10.00">std::vector&lt; ant::std</text>
<text text-anchor="middle" x="69" y="-121" font-family="Helvetica,sans-Serif" font-size="10.00">_ext::RMS_t &gt;</text>
</g>
<!-- Node2&#45;&gt;Node1 -->
<g id="edge2" class="edge"><title>Node2&#45;&gt;Node1</title>
<path fill="none" stroke="#9a32cd" stroke-dasharray="5,2" d="M69,-102.746C69,-81.6769 69,-53.1594 69,-35.1705"/>
<polygon fill="#9a32cd" stroke="#9a32cd" points="65.5001,-102.99 69,-112.99 72.5001,-102.99 65.5001,-102.99"/>
<text text-anchor="middle" x="95" y="-84.5" font-family="Helvetica,sans-Serif" font-size="10.00"> TaggRates</text>
<text text-anchor="middle" x="95" y="-71.5" font-family="Helvetica,sans-Serif" font-size="10.00">EPTOrs</text>
<text text-anchor="middle" x="95" y="-58.5" font-family="Helvetica,sans-Serif" font-size="10.00">TDCRates</text>
</g>
<!-- Node3 -->
<g id="node4" class="node"><title>Node3</title>
<a xlink:href="structant_1_1std__ext_1_1_r_m_s__t.html" target="_top" xlink:title="ant::std_ext::RMS_t\&lt; T \&gt;">
<polygon fill="white" stroke="black" points="4.5,-198.5 4.5,-219.5 133.5,-219.5 133.5,-198.5 4.5,-198.5"/>
<text text-anchor="middle" x="69" y="-206.5" font-family="Helvetica,sans-Serif" font-size="10.00">ant::std_ext::RMS_t&lt; T &gt;</text>
</a>
</g>
<!-- Node3&#45;&gt;Node2 -->
<g id="edge4" class="edge"><title>Node3&#45;&gt;Node2</title>
<path fill="none" stroke="#9a32cd" stroke-dasharray="5,2" d="M69,-188.162C69,-175.363 69,-159.171 69,-147.124"/>
<polygon fill="#9a32cd" stroke="#9a32cd" points="65.5001,-188.346 69,-198.346 72.5001,-188.346 65.5001,-188.346"/>
<text text-anchor="middle" x="90.5" y="-170.5" font-family="Helvetica,sans-Serif" font-size="10.00"> elements</text>
</g>
<!-- Node4 -->
<g id="node6" class="node"><title>Node4</title>
<polygon fill="white" stroke="#bfbfbf" points="54.5,-282.5 54.5,-303.5 83.5,-303.5 83.5,-282.5 54.5,-282.5"/>
<text text-anchor="middle" x="69" y="-290.5" font-family="Helvetica,sans-Serif" font-size="10.00">T</text>
</g>
<!-- Node4&#45;&gt;Node3 -->
<g id="edge6" class="edge"><title>Node4&#45;&gt;Node3</title>
<path fill="none" stroke="#9a32cd" stroke-dasharray="5,2" d="M69,-271.945C69,-255.257 69,-232.639 69,-219.552"/>
<polygon fill="#9a32cd" stroke="#9a32cd" points="65.5001,-272.361 69,-282.361 72.5001,-272.361 65.5001,-272.361"/>
<text text-anchor="middle" x="81.5" y="-255" font-family="Helvetica,sans-Serif" font-size="10.00"> sum</text>
<text text-anchor="middle" x="81.5" y="-242" font-family="Helvetica,sans-Serif" font-size="10.00">sum2</text>
</g>
</g>
</svg>
