<?xml version="1.0" encoding="UTF-8" standalone="no"?>
<!DOCTYPE svg PUBLIC "-//W3C//DTD SVG 1.1//EN"
 "http://www.w3.org/Graphics/SVG/1.1/DTD/svg11.dtd">
<!-- Generated by graphviz version 2.26.3 (20100126.1600)
 -->
<!-- Title: ant::reconstruct::clustering::bump_t Pages: 1 -->
<svg width="192pt" height="116pt"
 viewBox="0.00 0.00 192.00 116.00" xmlns="http://www.w3.org/2000/svg" xmlns:xlink="http://www.w3.org/1999/xlink">
<g id="graph1" class="graph" transform="scale(1 1) rotate(0) translate(4 112)">
<title>ant::reconstruct::clustering::bump_t</title>
<polygon fill="white" stroke="white" points="-4,5 -4,-112 189,-112 189,5 -4,5"/>
<!-- Node1 -->
<g id="node1" class="node"><title>Node1</title>
<polygon fill="#bfbfbf" stroke="black" points="11.5,-1 11.5,-35 144.5,-35 144.5,-1 11.5,-1"/>
<text text-anchor="start" x="19.5" y="-22" font-family="Helvetica,sans-Serif" font-size="10.00">ant::reconstruct::clustering</text>
<text text-anchor="middle" x="78" y="-9" font-family="Helvetica,sans-Serif" font-size="10.00">::bump_t</text>
</g>
<!-- Node2 -->
<g id="node2" class="node"><title>Node2</title>
<a xlink:href="structant_1_1vec3.html" target="_top" xlink:title="ant::vec3">
<polygon fill="white" stroke="black" points="-0.5,-86.5 -0.5,-107.5 56.5,-107.5 56.5,-86.5 -0.5,-86.5"/>
<text text-anchor="middle" x="28" y="-94.5" font-family="Helvetica,sans-Serif" font-size="10.00">ant::vec3</text>
</a>
</g>
<!-- Node2&#45;&gt;Node1 -->
<g id="edge2" class="edge"><title>Node2&#45;&gt;Node1</title>
<path fill="none" stroke="#9a32cd" stroke-dasharray="5,2" d="M40.2177,-77.696C48.4565,-64.6787 59.229,-47.6581 67.1623,-35.1236"/>
<polygon fill="#9a32cd" stroke="#9a32cd" points="37.1338,-76.0241 34.7432,-86.3457 43.0487,-79.7677 37.1338,-76.0241"/>
<text text-anchor="middle" x="74.5" y="-58.5" font-family="Helvetica,sans-Serif" font-size="10.00"> Position</text>
</g>
<!-- Node3 -->
<g id="node4" class="node"><title>Node3</title>
<polygon fill="white" stroke="#bfbfbf" points="74,-86.5 74,-107.5 184,-107.5 184,-86.5 74,-86.5"/>
<text text-anchor="middle" x="129" y="-94.5" font-family="Helvetica,sans-Serif" font-size="10.00">std::vector&lt; double &gt;</text>
</g>
<!-- Node3&#45;&gt;Node1 -->
<g id="edge4" class="edge"><title>Node3&#45;&gt;Node1</title>
<path fill="none" stroke="#9a32cd" stroke-dasharray="5,2" d="M116.538,-77.696C108.134,-64.6787 97.1464,-47.6581 89.0545,-35.1236"/>
<polygon fill="#9a32cd" stroke="#9a32cd" points="113.758,-79.8426 122.122,-86.3457 119.639,-76.046 113.758,-79.8426"/>
<text text-anchor="middle" x="129" y="-58.5" font-family="Helvetica,sans-Serif" font-size="10.00"> Weights</text>
</g>
</g>
</svg>
