<?xml version="1.0" encoding="UTF-8" standalone="no"?>
<!DOCTYPE svg PUBLIC "-//W3C//DTD SVG 1.1//EN"
 "http://www.w3.org/Graphics/SVG/1.1/DTD/svg11.dtd">
<!-- Generated by graphviz version 2.26.3 (20100126.1600)
 -->
<!-- Title: ant::hstack Pages: 1 -->
<svg width="1094pt" height="436pt"
 viewBox="0.00 0.00 1094.00 436.00" xmlns="http://www.w3.org/2000/svg" xmlns:xlink="http://www.w3.org/1999/xlink">
<g id="graph1" class="graph" transform="scale(1 1) rotate(0) translate(4 432)">
<title>ant::hstack</title>
<polygon fill="white" stroke="white" points="-4,5 -4,-432 1091,-432 1091,5 -4,5"/>
<!-- Node2 -->
<g id="node1" class="node"><title>Node2</title>
<polygon fill="#bfbfbf" stroke="black" points="1020.5,-160.5 1020.5,-181.5 1085.5,-181.5 1085.5,-160.5 1020.5,-160.5"/>
<text text-anchor="middle" x="1053" y="-168.5" font-family="Helvetica,sans-Serif" font-size="10.00">ant::hstack</text>
</g>
<!-- Node3 -->
<g id="node2" class="node"><title>Node3</title>
<polygon fill="white" stroke="#bfbfbf" points="816,-313.5 816,-334.5 872,-334.5 872,-313.5 816,-313.5"/>
<text text-anchor="middle" x="844" y="-321.5" font-family="Helvetica,sans-Serif" font-size="10.00">THStack</text>
</g>
<!-- Node3&#45;&gt;Node2 -->
<g id="edge2" class="edge"><title>Node3&#45;&gt;Node2</title>
<path fill="none" stroke="midnightblue" d="M882.402,-324.011C917.293,-322.063 968.313,-314.07 1002,-286 1035.22,-258.317 1047.56,-204.662 1051.45,-181.771"/>
<polygon fill="midnightblue" stroke="midnightblue" points="881.976,-320.525 872.129,-324.437 882.266,-327.519 881.976,-320.525"/>
</g>
<!-- Node4 -->
<g id="node4" class="node"><title>Node4</title>
<polygon fill="white" stroke="#bfbfbf" points="770.5,-273.5 770.5,-294.5 917.5,-294.5 917.5,-273.5 770.5,-273.5"/>
<text text-anchor="middle" x="844" y="-281.5" font-family="Helvetica,sans-Serif" font-size="10.00">std::unique_ptr&lt; TPaveText &gt;</text>
</g>
<!-- Node4&#45;&gt;Node2 -->
<g id="edge4" class="edge"><title>Node4&#45;&gt;Node2</title>
<path fill="none" stroke="#9a32cd" stroke-dasharray="5,2" d="M927.661,-272.287C953.108,-265.923 980.107,-256.113 1002,-241 1024.4,-225.539 1040.62,-196.948 1048.2,-181.523"/>
<polygon fill="#9a32cd" stroke="#9a32cd" points="926.56,-268.951 917.625,-274.644 928.16,-275.765 926.56,-268.951"/>
<text text-anchor="middle" x="969" y="-273" font-family="Helvetica,sans-Serif" font-size="10.00"> intellititle</text>
</g>
<!-- Node5 -->
<g id="node6" class="node"><title>Node5</title>
<polygon fill="white" stroke="#bfbfbf" points="791.5,-135.5 791.5,-156.5 896.5,-156.5 896.5,-135.5 791.5,-135.5"/>
<text text-anchor="middle" x="844" y="-143.5" font-family="Helvetica,sans-Serif" font-size="10.00">std::vector&lt; hist_t &gt;</text>
</g>
<!-- Node5&#45;&gt;Node2 -->
<g id="edge6" class="edge"><title>Node5&#45;&gt;Node2</title>
<path fill="none" stroke="#9a32cd" stroke-dasharray="5,2" d="M906.792,-151.287C935.825,-154.006 970.731,-157.664 1002,-162 1007.97,-162.827 1014.3,-163.838 1020.41,-164.88"/>
<polygon fill="#9a32cd" stroke="#9a32cd" points="907.062,-147.797 896.783,-150.364 906.42,-154.767 907.062,-147.797"/>
<text text-anchor="middle" x="969" y="-166" font-family="Helvetica,sans-Serif" font-size="10.00"> hists</text>
</g>
<!-- Node6 -->
<g id="node8" class="node"><title>Node6</title>
<a xlink:href="structant_1_1hstack_1_1hist__t.html" target="_top" xlink:title="ant::hstack::hist_t">
<polygon fill="white" stroke="black" points="561.5,-131.5 561.5,-152.5 656.5,-152.5 656.5,-131.5 561.5,-131.5"/>
<text text-anchor="middle" x="609" y="-139.5" font-family="Helvetica,sans-Serif" font-size="10.00">ant::hstack::hist_t</text>
</a>
</g>
<!-- Node6&#45;&gt;Node5 -->
<g id="edge8" class="edge"><title>Node6&#45;&gt;Node5</title>
<path fill="none" stroke="#9a32cd" stroke-dasharray="5,2" d="M666.957,-142.986C704.964,-143.633 754.27,-144.473 791.193,-145.101"/>
<polygon fill="#9a32cd" stroke="#9a32cd" points="666.614,-139.48 656.556,-142.809 666.495,-146.479 666.614,-139.48"/>
<text text-anchor="middle" x="717" y="-148" font-family="Helvetica,sans-Serif" font-size="10.00"> elements</text>
</g>
<!-- Node7 -->
<g id="node10" class="node"><title>Node7</title>
<a xlink:href="structant_1_1analysis_1_1plot_1_1histstyle_1_1_mod_option__t.html" target="_top" xlink:title="ant::analysis::plot\l::histstyle::ModOption_t">
<polygon fill="white" stroke="black" points="286.5,-78 286.5,-112 407.5,-112 407.5,-78 286.5,-78"/>
<text text-anchor="start" x="294.5" y="-99" font-family="Helvetica,sans-Serif" font-size="10.00">ant::analysis::plot</text>
<text text-anchor="middle" x="347" y="-86" font-family="Helvetica,sans-Serif" font-size="10.00">::histstyle::ModOption_t</text>
</a>
</g>
<!-- Node7&#45;&gt;Node2 -->
<g id="edge20" class="edge"><title>Node7&#45;&gt;Node2</title>
<path fill="none" stroke="#9a32cd" stroke-dasharray="5,2" d="M417.701,-93.5313C526.184,-92.4674 739.853,-95.0848 918,-126 957.92,-132.928 1002.1,-149.447 1028.69,-160.426"/>
<polygon fill="#9a32cd" stroke="#9a32cd" points="417.496,-90.0332 407.536,-93.6449 417.574,-97.0328 417.496,-90.0332"/>
<text text-anchor="middle" x="717" y="-109" font-family="Helvetica,sans-Serif" font-size="10.00"> current_option</text>
</g>
<!-- Node7&#45;&gt;Node6 -->
<g id="edge10" class="edge"><title>Node7&#45;&gt;Node6</title>
<path fill="none" stroke="#9a32cd" stroke-dasharray="5,2" d="M418.112,-102.337C453.719,-106.63 497.364,-112.829 536,-121 549.289,-123.81 563.702,-127.759 576.183,-131.475"/>
<polygon fill="#9a32cd" stroke="#9a32cd" points="418.157,-98.8184 407.816,-101.122 417.336,-105.77 418.157,-98.8184"/>
<text text-anchor="middle" x="481" y="-125" font-family="Helvetica,sans-Serif" font-size="10.00"> Option</text>
</g>
<!-- Node8 -->
<g id="node12" class="node"><title>Node8</title>
<a xlink:title="STL class. ">
<polygon fill="white" stroke="#bfbfbf" points="134,-157.5 134,-178.5 194,-178.5 194,-157.5 134,-157.5"/>
<text text-anchor="middle" x="164" y="-165.5" font-family="Helvetica,sans-Serif" font-size="10.00">std::string</text>
</a>
</g>
<!-- Node8&#45;&gt;Node2 -->
<g id="edge18" class="edge"><title>Node8&#45;&gt;Node2</title>
<path fill="none" stroke="#9a32cd" stroke-dasharray="5,2" d="M204.207,-175.289C241.184,-181.353 297.599,-189 347,-189 347,-189 347,-189 844,-189 906.641,-189 979.454,-180.875 1020.49,-175.542"/>
<polygon fill="#9a32cd" stroke="#9a32cd" points="204.757,-171.832 194.315,-173.628 203.597,-178.735 204.757,-171.832"/>
<text text-anchor="middle" x="609" y="-193" font-family="Helvetica,sans-Serif" font-size="10.00"> origtitle</text>
</g>
<!-- Node8&#45;&gt;Node6 -->
<g id="edge16" class="edge"><title>Node8&#45;&gt;Node6</title>
<path fill="none" stroke="#9a32cd" stroke-dasharray="5,2" d="M204.433,-165.638C286.666,-160.833 473.053,-149.943 561.156,-144.795"/>
<polygon fill="#9a32cd" stroke="#9a32cd" points="204.016,-162.156 194.237,-166.233 204.424,-169.144 204.016,-162.156"/>
<text text-anchor="middle" x="347" y="-164" font-family="Helvetica,sans-Serif" font-size="10.00"> Path</text>
</g>
<!-- Node8&#45;&gt;Node7 -->
<g id="edge12" class="edge"><title>Node8&#45;&gt;Node7</title>
<path fill="none" stroke="#9a32cd" stroke-dasharray="5,2" d="M178.376,-149.358C187.046,-139.414 198.925,-127.85 212,-121 234.728,-109.093 262.174,-102.601 286.366,-99.0767"/>
<polygon fill="#9a32cd" stroke="#9a32cd" points="175.574,-147.255 171.893,-157.19 180.966,-151.718 175.574,-147.255"/>
<text text-anchor="middle" x="240" y="-125" font-family="Helvetica,sans-Serif" font-size="10.00"> DrawOption</text>
</g>
<!-- Node14 -->
<g id="node27" class="node"><title>Node14</title>
<polygon fill="white" stroke="#bfbfbf" points="554,-220.5 554,-267.5 664,-267.5 664,-220.5 554,-220.5"/>
<text text-anchor="start" x="562" y="-254.5" font-family="Helvetica,sans-Serif" font-size="10.00">std::map&lt; std::string,</text>
<text text-anchor="start" x="562" y="-241.5" font-family="Helvetica,sans-Serif" font-size="10.00"> ant::hstack::options</text>
<text text-anchor="middle" x="609" y="-228.5" font-family="Helvetica,sans-Serif" font-size="10.00">_t::hist_t &gt;</text>
</g>
<!-- Node8&#45;&gt;Node14 -->
<g id="edge36" class="edge"><title>Node8&#45;&gt;Node14</title>
<path fill="none" stroke="#9a32cd" stroke-dasharray="5,2" d="M173.175,-187.774C181.318,-203.268 194.617,-224.268 212,-237 239.785,-257.351 251.949,-254.83 286,-260 395.856,-276.679 425.469,-269.375 536,-258 541.777,-257.406 547.778,-256.587 553.747,-255.643"/>
<polygon fill="#9a32cd" stroke="#9a32cd" points="176.164,-185.924 168.577,-178.529 169.896,-189.042 176.164,-185.924"/>
<text text-anchor="middle" x="347" y="-273" font-family="Helvetica,sans-Serif" font-size="10.00"> keys</text>
</g>
<!-- Node15 -->
<g id="node29" class="node"><title>Node15</title>
<a xlink:href="structant_1_1hstack_1_1options__t_1_1hist__t.html" target="_top" xlink:title="ant::hstack::options\l_t::hist_t">
<polygon fill="white" stroke="black" points="295.5,-217 295.5,-251 398.5,-251 398.5,-217 295.5,-217"/>
<text text-anchor="start" x="303.5" y="-238" font-family="Helvetica,sans-Serif" font-size="10.00">ant::hstack::options</text>
<text text-anchor="middle" x="347" y="-225" font-family="Helvetica,sans-Serif" font-size="10.00">_t::hist_t</text>
</a>
</g>
<!-- Node8&#45;&gt;Node15 -->
<g id="edge34" class="edge"><title>Node8&#45;&gt;Node15</title>
<path fill="none" stroke="#9a32cd" stroke-dasharray="5,2" d="M183.678,-185.137C191.95,-191.571 201.971,-198.426 212,-203 238.256,-214.974 269.56,-222.534 295.41,-227.187"/>
<polygon fill="#9a32cd" stroke="#9a32cd" points="185.73,-182.294 175.764,-178.697 181.312,-187.724 185.73,-182.294"/>
<text text-anchor="middle" x="240" y="-224" font-family="Helvetica,sans-Serif" font-size="10.00"> AddTo</text>
</g>
<!-- Node18 -->
<g id="node38" class="node"><title>Node18</title>
<polygon fill="white" stroke="#bfbfbf" points="426,-39.5 426,-60.5 536,-60.5 536,-39.5 426,-39.5"/>
<text text-anchor="middle" x="481" y="-47.5" font-family="Helvetica,sans-Serif" font-size="10.00">std::list&lt; std::string &gt;</text>
</g>
<!-- Node8&#45;&gt;Node18 -->
<g id="edge46" class="edge"><title>Node8&#45;&gt;Node18</title>
<path fill="none" stroke="#9a32cd" stroke-dasharray="5,2" d="M170.288,-147.859C177.337,-128.696 190.66,-100.55 212,-85 274.422,-39.5152 367.264,-37.9438 425.932,-42.6887"/>
<polygon fill="#9a32cd" stroke="#9a32cd" points="166.935,-146.849 167.007,-157.443 173.558,-149.116 166.935,-146.849"/>
<text text-anchor="middle" x="240" y="-89" font-family="Helvetica,sans-Serif" font-size="10.00"> elements</text>
</g>
<!-- Node9 -->
<g id="node14" class="node"><title>Node9</title>
<a xlink:title="STL class. ">
<polygon fill="white" stroke="#bfbfbf" points="0.5,-151 0.5,-185 95.5,-185 95.5,-151 0.5,-151"/>
<text text-anchor="start" x="8.5" y="-172" font-family="Helvetica,sans-Serif" font-size="10.00">std::basic_string&lt;</text>
<text text-anchor="middle" x="48" y="-159" font-family="Helvetica,sans-Serif" font-size="10.00"> char &gt;</text>
</a>
</g>
<!-- Node9&#45;&gt;Node8 -->
<g id="edge14" class="edge"><title>Node9&#45;&gt;Node8</title>
<path fill="none" stroke="midnightblue" d="M105.582,-168C115.29,-168 125.014,-168 133.666,-168"/>
<polygon fill="midnightblue" stroke="midnightblue" points="105.516,-164.5 95.5163,-168 105.516,-171.5 105.516,-164.5"/>
</g>
<!-- Node10 -->
<g id="node19" class="node"><title>Node10</title>
<a xlink:href="structant_1_1hstack_1_1options__t.html" target="_top" xlink:title="ant::hstack::options_t">
<polygon fill="white" stroke="black" points="788.5,-233.5 788.5,-254.5 899.5,-254.5 899.5,-233.5 788.5,-233.5"/>
<text text-anchor="middle" x="844" y="-241.5" font-family="Helvetica,sans-Serif" font-size="10.00">ant::hstack::options_t</text>
</a>
</g>
<!-- Node10&#45;&gt;Node2 -->
<g id="edge22" class="edge"><title>Node10&#45;&gt;Node2</title>
<path fill="none" stroke="#9a32cd" stroke-dasharray="5,2" d="M909.866,-231.653C938.81,-225.031 972.786,-215.598 1002,-203 1015.05,-197.371 1028.63,-188.692 1038.49,-181.791"/>
<polygon fill="#9a32cd" stroke="#9a32cd" points="908.856,-228.292 899.854,-233.878 910.375,-235.125 908.856,-228.292"/>
<text text-anchor="middle" x="969" y="-228" font-family="Helvetica,sans-Serif" font-size="10.00"> GlobalOptions</text>
</g>
<!-- Node11 -->
<g id="node21" class="node"><title>Node11</title>
<a xlink:href="classant_1_1interval.html" target="_top" xlink:title="ant::interval\&lt; double \&gt;">
<polygon fill="white" stroke="black" points="290,-372.5 290,-393.5 404,-393.5 404,-372.5 290,-372.5"/>
<text text-anchor="middle" x="347" y="-380.5" font-family="Helvetica,sans-Serif" font-size="10.00">ant::interval&lt; double &gt;</text>
</a>
</g>
<!-- Node11&#45;&gt;Node10 -->
<g id="edge24" class="edge"><title>Node11&#45;&gt;Node10</title>
<path fill="none" stroke="#9a32cd" stroke-dasharray="5,2" d="M382.941,-396.93C396.253,-401.405 411.612,-405.778 426,-408 530.694,-424.17 560.617,-418.114 664,-395 704.468,-385.952 725.125,-395.579 752,-364 781.268,-329.609 739.468,-297.273 770,-264 775.039,-258.509 781.414,-254.463 788.3,-251.493"/>
<polygon fill="#9a32cd" stroke="#9a32cd" points="383.804,-393.524 373.209,-393.522 381.49,-400.131 383.804,-393.524"/>
<text text-anchor="middle" x="609" y="-419" font-family="Helvetica,sans-Serif" font-size="10.00"> YAxisRange</text>
</g>
<!-- Node16 -->
<g id="node33" class="node"><title>Node16</title>
<a xlink:href="classant_1_1interval.html" target="_top" xlink:title="ant::interval\&lt; ant\l::interval\&lt; double \&gt; \&gt;">
<polygon fill="white" stroke="black" points="554,-352 554,-386 664,-386 664,-352 554,-352"/>
<text text-anchor="start" x="562" y="-373" font-family="Helvetica,sans-Serif" font-size="10.00">ant::interval&lt; ant</text>
<text text-anchor="middle" x="609" y="-360" font-family="Helvetica,sans-Serif" font-size="10.00">::interval&lt; double &gt; &gt;</text>
</a>
</g>
<!-- Node11&#45;&gt;Node16 -->
<g id="edge40" class="edge"><title>Node11&#45;&gt;Node16</title>
<path fill="none" stroke="#9a32cd" stroke-dasharray="5,2" d="M414.327,-379.402C457.584,-377.091 513.081,-374.125 553.745,-371.953"/>
<polygon fill="#9a32cd" stroke="#9a32cd" points="413.972,-375.916 404.173,-379.945 414.346,-382.906 413.972,-375.916"/>
<text text-anchor="middle" x="481" y="-395" font-family="Helvetica,sans-Serif" font-size="10.00"> _start</text>
<text text-anchor="middle" x="481" y="-382" font-family="Helvetica,sans-Serif" font-size="10.00">_stop</text>
</g>
<!-- Node12 -->
<g id="node23" class="node"><title>Node12</title>
<polygon fill="white" stroke="#bfbfbf" points="554.5,-286.5 554.5,-333.5 663.5,-333.5 663.5,-286.5 554.5,-286.5"/>
<text text-anchor="start" x="562.5" y="-320.5" font-family="Helvetica,sans-Serif" font-size="10.00">std::map&lt; TH1 *, ant</text>
<text text-anchor="start" x="562.5" y="-307.5" font-family="Helvetica,sans-Serif" font-size="10.00">::hstack::options_t::</text>
<text text-anchor="middle" x="609" y="-294.5" font-family="Helvetica,sans-Serif" font-size="10.00">scale_t &gt;</text>
</g>
<!-- Node12&#45;&gt;Node10 -->
<g id="edge26" class="edge"><title>Node12&#45;&gt;Node10</title>
<path fill="none" stroke="#9a32cd" stroke-dasharray="5,2" d="M673.453,-291.357C702.868,-282.907 738.168,-272.848 770,-264 781.155,-260.899 793.275,-257.596 804.415,-254.586"/>
<polygon fill="#9a32cd" stroke="#9a32cd" points="672.359,-288.029 663.716,-294.156 674.294,-294.756 672.359,-288.029"/>
<text text-anchor="middle" x="717" y="-292" font-family="Helvetica,sans-Serif" font-size="10.00"> AppliedScale</text>
</g>
<!-- Node13 -->
<g id="node25" class="node"><title>Node13</title>
<a xlink:href="structant_1_1hstack_1_1options__t_1_1scale__t.html" target="_top" xlink:title="ant::hstack::options\l_t::scale_t">
<polygon fill="white" stroke="black" points="295.5,-318 295.5,-352 398.5,-352 398.5,-318 295.5,-318"/>
<text text-anchor="start" x="303.5" y="-339" font-family="Helvetica,sans-Serif" font-size="10.00">ant::hstack::options</text>
<text text-anchor="middle" x="347" y="-326" font-family="Helvetica,sans-Serif" font-size="10.00">_t::scale_t</text>
</a>
</g>
<!-- Node13&#45;&gt;Node12 -->
<g id="edge28" class="edge"><title>Node13&#45;&gt;Node12</title>
<path fill="none" stroke="#9a32cd" stroke-dasharray="5,2" d="M408.791,-329.104C452.913,-324.894 511.729,-319.282 554.183,-315.231"/>
<polygon fill="#9a32cd" stroke="#9a32cd" points="408.385,-325.627 398.763,-330.061 409.05,-332.595 408.385,-325.627"/>
<text text-anchor="middle" x="481" y="-330" font-family="Helvetica,sans-Serif" font-size="10.00"> elements</text>
</g>
<!-- Node14&#45;&gt;Node10 -->
<g id="edge30" class="edge"><title>Node14&#45;&gt;Node10</title>
<path fill="none" stroke="#9a32cd" stroke-dasharray="5,2" d="M674.46,-244C710.312,-244 754.265,-244 788.434,-244"/>
<polygon fill="#9a32cd" stroke="#9a32cd" points="674.097,-240.5 664.097,-244 674.097,-247.5 674.097,-240.5"/>
<text text-anchor="middle" x="717" y="-248" font-family="Helvetica,sans-Serif" font-size="10.00"> PerHist</text>
</g>
<!-- Node15&#45;&gt;Node14 -->
<g id="edge32" class="edge"><title>Node15&#45;&gt;Node14</title>
<path fill="none" stroke="#9a32cd" stroke-dasharray="5,2" d="M408.757,-236.357C452.725,-238.035 511.297,-240.271 553.727,-241.89"/>
<polygon fill="#9a32cd" stroke="#9a32cd" points="408.889,-232.86 398.763,-235.976 408.622,-239.855 408.889,-232.86"/>
<text text-anchor="middle" x="481" y="-245" font-family="Helvetica,sans-Serif" font-size="10.00"> elements</text>
</g>
<!-- Node16&#45;&gt;Node10 -->
<g id="edge38" class="edge"><title>Node16&#45;&gt;Node10</title>
<path fill="none" stroke="#9a32cd" stroke-dasharray="5,2" d="M673.949,-351.371C700.842,-341.39 730.665,-326.488 752,-305 766.022,-290.878 754.915,-276.98 770,-264 775.347,-259.4 781.651,-255.847 788.288,-253.105"/>
<polygon fill="#9a32cd" stroke="#9a32cd" points="672.451,-348.188 664.195,-354.828 674.789,-354.786 672.451,-348.188"/>
<text text-anchor="middle" x="717" y="-351" font-family="Helvetica,sans-Serif" font-size="10.00"> LegendPosition</text>
</g>
<!-- Node17 -->
<g id="node36" class="node"><title>Node17</title>
<polygon fill="white" stroke="#bfbfbf" points="775.5,-0.5 775.5,-21.5 912.5,-21.5 912.5,-0.5 775.5,-0.5"/>
<text text-anchor="middle" x="844" y="-8.5" font-family="Helvetica,sans-Serif" font-size="10.00">std::unique_ptr&lt; TLegend &gt;</text>
</g>
<!-- Node17&#45;&gt;Node2 -->
<g id="edge42" class="edge"><title>Node17&#45;&gt;Node2</title>
<path fill="none" stroke="#9a32cd" stroke-dasharray="5,2" d="M918.31,-0.186624C947.072,0.065635 978.624,-4.9561 1002,-23 1024.59,-40.4367 1044.44,-128.857 1050.84,-160.071"/>
<polygon fill="#9a32cd" stroke="#9a32cd" points="918.164,3.31067 908.271,-0.483098 918.37,-3.68628 918.164,3.31067"/>
<text text-anchor="middle" x="969" y="-27" font-family="Helvetica,sans-Serif" font-size="10.00"> intellilegend</text>
</g>
<!-- Node18&#45;&gt;Node2 -->
<g id="edge44" class="edge"><title>Node18&#45;&gt;Node2</title>
<path fill="none" stroke="#9a32cd" stroke-dasharray="5,2" d="M546.293,-44.9156C669.181,-36.6368 929.046,-25.651 1002,-74 1032.77,-94.3904 1046.19,-139.582 1050.89,-160.275"/>
<polygon fill="#9a32cd" stroke="#9a32cd" points="545.997,-41.4276 536.261,-45.606 546.478,-48.4111 545.997,-41.4276"/>
<text text-anchor="middle" x="717" y="-42" font-family="Helvetica,sans-Serif" font-size="10.00"> cutnames</text>
</g>
</g>
</svg>
