<?xml version="1.0" encoding="UTF-8" standalone="no"?>
<!DOCTYPE svg PUBLIC "-//W3C//DTD SVG 1.1//EN"
 "http://www.w3.org/Graphics/SVG/1.1/DTD/svg11.dtd">
<!-- Generated by graphviz version 2.26.3 (20100126.1600)
 -->
<!-- Title: ant::reconstruct::clustering::crystal_t Pages: 1 -->
<svg width="950pt" height="122pt"
 viewBox="0.00 0.00 950.00 122.00" xmlns="http://www.w3.org/2000/svg" xmlns:xlink="http://www.w3.org/1999/xlink">
<g id="graph1" class="graph" transform="scale(1 1) rotate(0) translate(4 118)">
<title>ant::reconstruct::clustering::crystal_t</title>
<polygon fill="white" stroke="white" points="-4,5 -4,-118 947,-118 947,5 -4,5"/>
<!-- Node1 -->
<g id="node1" class="node"><title>Node1</title>
<polygon fill="#bfbfbf" stroke="black" points="808.5,-58 808.5,-92 941.5,-92 941.5,-58 808.5,-58"/>
<text text-anchor="start" x="816.5" y="-79" font-family="Helvetica,sans-Serif" font-size="10.00">ant::reconstruct::clustering</text>
<text text-anchor="middle" x="875" y="-66" font-family="Helvetica,sans-Serif" font-size="10.00">::crystal_t</text>
</g>
<!-- Node2 -->
<g id="node2" class="node"><title>Node2</title>
<a xlink:href="structant_1_1_t_cluster_hit.html" target="_top" xlink:title="ant::TClusterHit">
<polygon fill="white" stroke="black" points="636,-86.5 636,-107.5 722,-107.5 722,-86.5 636,-86.5"/>
<text text-anchor="middle" x="679" y="-94.5" font-family="Helvetica,sans-Serif" font-size="10.00">ant::TClusterHit</text>
</a>
</g>
<!-- Node2&#45;&gt;Node1 -->
<g id="edge2" class="edge"><title>Node2&#45;&gt;Node1</title>
<path fill="none" stroke="#9a32cd" stroke-dasharray="5,2" d="M732.109,-91.0387C755.553,-88.4074 783.367,-85.2853 808.199,-82.4981"/>
<polygon fill="#9a32cd" stroke="#9a32cd" points="731.56,-87.5783 722.013,-92.172 732.341,-94.5346 731.56,-87.5783"/>
<text text-anchor="middle" x="770" y="-92" font-family="Helvetica,sans-Serif" font-size="10.00"> Hit</text>
</g>
<!-- Node3 -->
<g id="node4" class="node"><title>Node3</title>
<polygon fill="white" stroke="#bfbfbf" points="405.5,-80 405.5,-114 534.5,-114 534.5,-80 405.5,-80"/>
<text text-anchor="start" x="413.5" y="-101" font-family="Helvetica,sans-Serif" font-size="10.00">std::vector&lt; ant::TCluster</text>
<text text-anchor="middle" x="470" y="-88" font-family="Helvetica,sans-Serif" font-size="10.00">Hit::Datum &gt;</text>
</g>
<!-- Node3&#45;&gt;Node2 -->
<g id="edge4" class="edge"><title>Node3&#45;&gt;Node2</title>
<path fill="none" stroke="#9a32cd" stroke-dasharray="5,2" d="M544.88,-97C575.37,-97 609.527,-97 635.74,-97"/>
<polygon fill="#9a32cd" stroke="#9a32cd" points="544.698,-93.5001 534.698,-97 544.698,-100.5 544.698,-93.5001"/>
<text text-anchor="middle" x="581" y="-101" font-family="Helvetica,sans-Serif" font-size="10.00"> Data</text>
</g>
<!-- Node4 -->
<g id="node6" class="node"><title>Node4</title>
<a xlink:href="structant_1_1_t_cluster_hit_1_1_datum.html" target="_top" xlink:title="ant::TClusterHit::Datum">
<polygon fill="white" stroke="black" points="191,-86.5 191,-107.5 313,-107.5 313,-86.5 191,-86.5"/>
<text text-anchor="middle" x="252" y="-94.5" font-family="Helvetica,sans-Serif" font-size="10.00">ant::TClusterHit::Datum</text>
</a>
</g>
<!-- Node4&#45;&gt;Node3 -->
<g id="edge6" class="edge"><title>Node4&#45;&gt;Node3</title>
<path fill="none" stroke="#9a32cd" stroke-dasharray="5,2" d="M323.323,-97C349.697,-97 379.426,-97 405.19,-97"/>
<polygon fill="#9a32cd" stroke="#9a32cd" points="323.015,-93.5001 313.015,-97 323.015,-100.5 323.015,-93.5001"/>
<text text-anchor="middle" x="364" y="-101" font-family="Helvetica,sans-Serif" font-size="10.00"> elements</text>
</g>
<!-- Node5 -->
<g id="node8" class="node"><title>Node5</title>
<a xlink:href="structant_1_1_t_detector_read_hit_1_1_value__t.html" target="_top" xlink:title="ant::TDetectorReadHit\l::Value_t">
<polygon fill="white" stroke="black" points="0,-80 0,-114 116,-114 116,-80 0,-80"/>
<text text-anchor="start" x="8" y="-101" font-family="Helvetica,sans-Serif" font-size="10.00">ant::TDetectorReadHit</text>
<text text-anchor="middle" x="58" y="-88" font-family="Helvetica,sans-Serif" font-size="10.00">::Value_t</text>
</a>
</g>
<!-- Node5&#45;&gt;Node4 -->
<g id="edge8" class="edge"><title>Node5&#45;&gt;Node4</title>
<path fill="none" stroke="#9a32cd" stroke-dasharray="5,2" d="M126.339,-97C147.34,-97 170.311,-97 190.802,-97"/>
<polygon fill="#9a32cd" stroke="#9a32cd" points="126.206,-93.5001 116.206,-97 126.206,-100.5 126.206,-93.5001"/>
<text text-anchor="middle" x="148" y="-101" font-family="Helvetica,sans-Serif" font-size="10.00"> Value</text>
</g>
<!-- Node6 -->
<g id="node10" class="node"><title>Node6</title>
<a xlink:href="structant_1_1_cluster_detector__t_1_1_element__t.html" target="_top" xlink:title="ant::ClusterDetector\l_t::Element_t">
<polygon fill="white" stroke="black" points="626.5,-34 626.5,-68 731.5,-68 731.5,-34 626.5,-34"/>
<text text-anchor="start" x="634.5" y="-55" font-family="Helvetica,sans-Serif" font-size="10.00">ant::ClusterDetector</text>
<text text-anchor="middle" x="679" y="-42" font-family="Helvetica,sans-Serif" font-size="10.00">_t::Element_t</text>
</a>
</g>
<!-- Node6&#45;&gt;Node1 -->
<g id="edge10" class="edge"><title>Node6&#45;&gt;Node1</title>
<path fill="none" stroke="#9a32cd" stroke-dasharray="5,2" d="M741.722,-58.6802C762.954,-61.28 786.735,-64.1921 808.267,-66.8286"/>
<polygon fill="#9a32cd" stroke="#9a32cd" points="741.876,-55.173 731.524,-57.4316 741.025,-62.1211 741.876,-55.173"/>
<text text-anchor="middle" x="770" y="-68" font-family="Helvetica,sans-Serif" font-size="10.00"> Element</text>
</g>
<!-- Node7 -->
<g id="node12" class="node"><title>Node7</title>
<a xlink:href="structant_1_1_detector__t_1_1_element__t.html" target="_top" xlink:title="ant::Detector_t::Element_t">
<polygon fill="white" stroke="black" points="404,-40.5 404,-61.5 536,-61.5 536,-40.5 404,-40.5"/>
<text text-anchor="middle" x="470" y="-48.5" font-family="Helvetica,sans-Serif" font-size="10.00">ant::Detector_t::Element_t</text>
</a>
</g>
<!-- Node7&#45;&gt;Node6 -->
<g id="edge12" class="edge"><title>Node7&#45;&gt;Node6</title>
<path fill="none" stroke="midnightblue" d="M546.166,-51C572.734,-51 601.945,-51 626.193,-51"/>
<polygon fill="midnightblue" stroke="midnightblue" points="546.129,-47.5001 536.129,-51 546.129,-54.5001 546.129,-47.5001"/>
</g>
<!-- Node8 -->
<g id="node14" class="node"><title>Node8</title>
<a xlink:href="structant_1_1vec3.html" target="_top" xlink:title="ant::vec3">
<polygon fill="white" stroke="black" points="223.5,-43.5 223.5,-64.5 280.5,-64.5 280.5,-43.5 223.5,-43.5"/>
<text text-anchor="middle" x="252" y="-51.5" font-family="Helvetica,sans-Serif" font-size="10.00">ant::vec3</text>
</a>
</g>
<!-- Node8&#45;&gt;Node7 -->
<g id="edge14" class="edge"><title>Node8&#45;&gt;Node7</title>
<path fill="none" stroke="#9a32cd" stroke-dasharray="5,2" d="M291.013,-53.4631C322.284,-53.0328 366.873,-52.4192 403.722,-51.9121"/>
<polygon fill="#9a32cd" stroke="#9a32cd" points="290.9,-49.9643 280.949,-53.6016 290.996,-56.9636 290.9,-49.9643"/>
<text text-anchor="middle" x="364" y="-56" font-family="Helvetica,sans-Serif" font-size="10.00"> Position</text>
</g>
<!-- Node9 -->
<g id="node16" class="node"><title>Node9</title>
<a xlink:href="classant_1_1bitflag.html" target="_top" xlink:title="ant::bitflag\&lt; ElementFlag_t \&gt;">
<polygon fill="white" stroke="black" points="180.5,-3.5 180.5,-24.5 323.5,-24.5 323.5,-3.5 180.5,-3.5"/>
<text text-anchor="middle" x="252" y="-11.5" font-family="Helvetica,sans-Serif" font-size="10.00">ant::bitflag&lt; ElementFlag_t &gt;</text>
</a>
</g>
<!-- Node9&#45;&gt;Node7 -->
<g id="edge16" class="edge"><title>Node9&#45;&gt;Node7</title>
<path fill="none" stroke="#9a32cd" stroke-dasharray="5,2" d="M332.27,-26.1406C349.984,-28.9422 368.642,-31.9875 386,-35 395.8,-36.7008 406.224,-38.6072 416.274,-40.4953"/>
<polygon fill="#9a32cd" stroke="#9a32cd" points="332.388,-22.6162 321.966,-24.5212 331.301,-29.5314 332.388,-22.6162"/>
<text text-anchor="middle" x="364" y="-39" font-family="Helvetica,sans-Serif" font-size="10.00"> Flags</text>
</g>
<!-- Node10 -->
<g id="node18" class="node"><title>Node10</title>
<polygon fill="white" stroke="#bfbfbf" points="13.5,-3.5 13.5,-24.5 102.5,-24.5 102.5,-3.5 13.5,-3.5"/>
<text text-anchor="middle" x="58" y="-11.5" font-family="Helvetica,sans-Serif" font-size="10.00">std::bitset&lt; 32 &gt;</text>
</g>
<!-- Node10&#45;&gt;Node9 -->
<g id="edge18" class="edge"><title>Node10&#45;&gt;Node9</title>
<path fill="none" stroke="#9a32cd" stroke-dasharray="5,2" d="M112.542,-14C133.572,-14 157.92,-14 180.328,-14"/>
<polygon fill="#9a32cd" stroke="#9a32cd" points="112.508,-10.5001 102.508,-14 112.507,-17.5001 112.508,-10.5001"/>
<text text-anchor="middle" x="148" y="-18" font-family="Helvetica,sans-Serif" font-size="10.00"> bits</text>
</g>
<!-- Node11 -->
<g id="node20" class="node"><title>Node11</title>
<polygon fill="white" stroke="#bfbfbf" points="410,-0.5 410,-21.5 530,-21.5 530,-0.5 410,-0.5"/>
<text text-anchor="middle" x="470" y="-8.5" font-family="Helvetica,sans-Serif" font-size="10.00">std::vector&lt; unsigned &gt;</text>
</g>
<!-- Node11&#45;&gt;Node6 -->
<g id="edge20" class="edge"><title>Node11&#45;&gt;Node6</title>
<path fill="none" stroke="#9a32cd" stroke-dasharray="5,2" d="M540.422,-21.7627C562.15,-25.3448 586.114,-29.5618 608,-34 613.963,-35.2092 620.185,-36.5625 626.361,-37.9636"/>
<polygon fill="#9a32cd" stroke="#9a32cd" points="540.717,-18.2647 530.284,-20.1102 539.59,-25.1735 540.717,-18.2647"/>
<text text-anchor="middle" x="581" y="-38" font-family="Helvetica,sans-Serif" font-size="10.00"> Neighbours</text>
</g>
</g>
</svg>
