<?xml version="1.0" encoding="UTF-8" standalone="no"?>
<!DOCTYPE svg PUBLIC "-//W3C//DTD SVG 1.1//EN"
 "http://www.w3.org/Graphics/SVG/1.1/DTD/svg11.dtd">
<!-- Generated by graphviz version 2.26.3 (20100126.1600)
 -->
<!-- Title: EtapDalitz_plot&lt; Hist_t &gt; Pages: 1 -->
<svg width="136pt" height="176pt"
 viewBox="0.00 0.00 136.00 176.00" xmlns="http://www.w3.org/2000/svg" xmlns:xlink="http://www.w3.org/1999/xlink">
<g id="graph1" class="graph" transform="scale(1 1) rotate(0) translate(4 172)">
<title>EtapDalitz_plot&lt; Hist_t &gt;</title>
<polygon fill="white" stroke="white" points="-4,5 -4,-172 133,-172 133,5 -4,5"/>
<!-- Node2 -->
<g id="node1" class="node"><title>Node2</title>
<polygon fill="#bfbfbf" stroke="black" points="0,-0.5 0,-21.5 128,-21.5 128,-0.5 0,-0.5"/>
<text text-anchor="middle" x="64" y="-8.5" font-family="Helvetica,sans-Serif" font-size="10.00">EtapDalitz_plot&lt; Hist_t &gt;</text>
</g>
<!-- Node3 -->
<g id="node2" class="node"><title>Node3</title>
<a xlink:href="classant_1_1analysis_1_1_plotter.html" target="_top" xlink:title="ant::analysis::Plotter">
<polygon fill="white" stroke="black" points="10.5,-60.5 10.5,-81.5 117.5,-81.5 117.5,-60.5 10.5,-60.5"/>
<text text-anchor="middle" x="64" y="-68.5" font-family="Helvetica,sans-Serif" font-size="10.00">ant::analysis::Plotter</text>
</a>
</g>
<!-- Node3&#45;&gt;Node2 -->
<g id="edge2" class="edge"><title>Node3&#45;&gt;Node2</title>
<path fill="none" stroke="midnightblue" d="M64,-50.2312C64,-40.5922 64,-29.5444 64,-21.6339"/>
<polygon fill="midnightblue" stroke="midnightblue" points="60.5001,-50.2732 64,-60.2732 67.5001,-50.2732 60.5001,-50.2732"/>
</g>
<!-- Node4 -->
<g id="node4" class="node"><title>Node4</title>
<a xlink:href="classant_1_1analysis_1_1_histogram_factory.html" target="_top" xlink:title="ant::analysis::Histogram\lFactory">
<polygon fill="white" stroke="black" points="2.5,-133 2.5,-167 125.5,-167 125.5,-133 2.5,-133"/>
<text text-anchor="start" x="10.5" y="-154" font-family="Helvetica,sans-Serif" font-size="10.00">ant::analysis::Histogram</text>
<text text-anchor="middle" x="64" y="-141" font-family="Helvetica,sans-Serif" font-size="10.00">Factory</text>
</a>
</g>
<!-- Node4&#45;&gt;Node3 -->
<g id="edge4" class="edge"><title>Node4&#45;&gt;Node3</title>
<path fill="none" stroke="#9a32cd" stroke-dasharray="5,2" d="M64,-122.623C64,-108.473 64,-92.0243 64,-81.5672"/>
<polygon fill="#9a32cd" stroke="#9a32cd" points="60.5001,-122.858 64,-132.858 67.5001,-122.858 60.5001,-122.858"/>
<text text-anchor="middle" x="83" y="-104.5" font-family="Helvetica,sans-Serif" font-size="10.00"> HistFac</text>
</g>
</g>
</svg>
