<?xml version="1.0" encoding="UTF-8" standalone="no"?>
<!DOCTYPE svg PUBLIC "-//W3C//DTD SVG 1.1//EN"
 "http://www.w3.org/Graphics/SVG/1.1/DTD/svg11.dtd">
<!-- Generated by graphviz version 2.26.3 (20100126.1600)
 -->
<!-- Title: Hist_t&lt; Tree_t &gt;::HistMgr&lt; Hist &gt; Pages: 1 -->
<svg width="136pt" height="190pt"
 viewBox="0.00 0.00 136.00 190.00" xmlns="http://www.w3.org/2000/svg" xmlns:xlink="http://www.w3.org/1999/xlink">
<g id="graph1" class="graph" transform="scale(1 1) rotate(0) translate(4 186)">
<title>Hist_t&lt; Tree_t &gt;::HistMgr&lt; Hist &gt;</title>
<polygon fill="white" stroke="white" points="-4,5 -4,-186 133,-186 133,5 -4,5"/>
<!-- Node2 -->
<g id="node1" class="node"><title>Node2</title>
<polygon fill="#bfbfbf" stroke="black" points="-0.5,-1 -0.5,-35 128.5,-35 128.5,-1 -0.5,-1"/>
<text text-anchor="start" x="7.5" y="-22" font-family="Helvetica,sans-Serif" font-size="10.00">Hist_t&lt; Tree_t &gt;::HistMgr</text>
<text text-anchor="middle" x="64" y="-9" font-family="Helvetica,sans-Serif" font-size="10.00">&lt; Hist &gt;</text>
</g>
<!-- Node3 -->
<g id="node2" class="node"><title>Node3</title>
<a xlink:title="STL class. ">
<polygon fill="white" stroke="#bfbfbf" points="15.5,-75 15.5,-109 112.5,-109 112.5,-75 15.5,-75"/>
<text text-anchor="start" x="23.5" y="-96" font-family="Helvetica,sans-Serif" font-size="10.00">std::list&lt; HistFiller</text>
<text text-anchor="middle" x="64" y="-83" font-family="Helvetica,sans-Serif" font-size="10.00">_t&lt; Hist &gt; &gt;</text>
</a>
</g>
<!-- Node3&#45;&gt;Node2 -->
<g id="edge2" class="edge"><title>Node3&#45;&gt;Node2</title>
<path fill="none" stroke="midnightblue" d="M57.4573,-64.6275C57.0218,-54.7253 57.2724,-43.8344 58.2091,-35.07"/>
<polygon fill="midnightblue" stroke="midnightblue" points="53.9836,-65.1169 58.1992,-74.8369 60.9652,-64.6095 53.9836,-65.1169"/>
</g>
<!-- Node3&#45;&gt;Node2 -->
<g id="edge6" class="edge"><title>Node3&#45;&gt;Node2</title>
<path fill="none" stroke="midnightblue" d="M70.5427,-64.6275C70.9782,-54.7253 70.7276,-43.8344 69.7909,-35.07"/>
<polygon fill="midnightblue" stroke="midnightblue" points="67.0348,-64.6095 69.8008,-74.8369 74.0164,-65.1169 67.0348,-64.6095"/>
</g>
<!-- Node4 -->
<g id="node4" class="node"><title>Node4</title>
<polygon fill="white" stroke="#bfbfbf" points="49.5,-160.5 49.5,-181.5 78.5,-181.5 78.5,-160.5 49.5,-160.5"/>
<text text-anchor="middle" x="64" y="-168.5" font-family="Helvetica,sans-Serif" font-size="10.00">T</text>
</g>
<!-- Node4&#45;&gt;Node3 -->
<g id="edge4" class="edge"><title>Node4&#45;&gt;Node3</title>
<path fill="none" stroke="#9a32cd" stroke-dasharray="5,2" d="M64,-150.162C64,-137.363 64,-121.171 64,-109.124"/>
<polygon fill="#9a32cd" stroke="#9a32cd" points="60.5001,-150.346 64,-160.346 67.5001,-150.346 60.5001,-150.346"/>
<text text-anchor="middle" x="85.5" y="-132.5" font-family="Helvetica,sans-Serif" font-size="10.00"> elements</text>
</g>
</g>
</svg>
