<?xml version="1.0" encoding="UTF-8" standalone="no"?>
<!DOCTYPE svg PUBLIC "-//W3C//DTD SVG 1.1//EN"
 "http://www.w3.org/Graphics/SVG/1.1/DTD/svg11.dtd">
<!-- Generated by graphviz version 2.26.3 (20100126.1600)
 -->
<!-- Title: ant::TUnpackerMessage Pages: 1 -->
<svg width="213pt" height="176pt"
 viewBox="0.00 0.00 213.00 176.00" xmlns="http://www.w3.org/2000/svg" xmlns:xlink="http://www.w3.org/1999/xlink">
<g id="graph1" class="graph" transform="scale(1 1) rotate(0) translate(4 172)">
<title>ant::TUnpackerMessage</title>
<polygon fill="white" stroke="white" points="-4,5 -4,-172 210,-172 210,5 -4,5"/>
<!-- Node1 -->
<g id="node1" class="node"><title>Node1</title>
<polygon fill="#bfbfbf" stroke="black" points="54,-0.5 54,-21.5 178,-21.5 178,-0.5 54,-0.5"/>
<text text-anchor="middle" x="116" y="-8.5" font-family="Helvetica,sans-Serif" font-size="10.00">ant::TUnpackerMessage</text>
</g>
<!-- Node2 -->
<g id="node2" class="node"><title>Node2</title>
<a xlink:title="STL class. ">
<polygon fill="white" stroke="#bfbfbf" points="17,-72.5 17,-93.5 77,-93.5 77,-72.5 17,-72.5"/>
<text text-anchor="middle" x="47" y="-80.5" font-family="Helvetica,sans-Serif" font-size="10.00">std::string</text>
</a>
</g>
<!-- Node2&#45;&gt;Node1 -->
<g id="edge2" class="edge"><title>Node2&#45;&gt;Node1</title>
<path fill="none" stroke="#9a32cd" stroke-dasharray="5,2" d="M61.1167,-64.1673C67.2354,-56.4105 74.668,-47.5027 82,-40 88.2901,-33.5635 95.8607,-27.0058 102.26,-21.7582"/>
<polygon fill="#9a32cd" stroke="#9a32cd" points="58.1798,-62.2442 54.8423,-72.2996 63.722,-66.5203 58.1798,-62.2442"/>
<text text-anchor="middle" x="103.5" y="-44.5" font-family="Helvetica,sans-Serif" font-size="10.00"> Message</text>
</g>
<!-- Node3 -->
<g id="node4" class="node"><title>Node3</title>
<a xlink:title="STL class. ">
<polygon fill="white" stroke="#bfbfbf" points="-0.5,-133 -0.5,-167 94.5,-167 94.5,-133 -0.5,-133"/>
<text text-anchor="start" x="7.5" y="-154" font-family="Helvetica,sans-Serif" font-size="10.00">std::basic_string&lt;</text>
<text text-anchor="middle" x="47" y="-141" font-family="Helvetica,sans-Serif" font-size="10.00"> char &gt;</text>
</a>
</g>
<!-- Node3&#45;&gt;Node2 -->
<g id="edge4" class="edge"><title>Node3&#45;&gt;Node2</title>
<path fill="none" stroke="midnightblue" d="M47,-122.534C47,-112.306 47,-101.301 47,-93.5056"/>
<polygon fill="midnightblue" stroke="midnightblue" points="43.5001,-122.746 47,-132.746 50.5001,-122.746 43.5001,-122.746"/>
</g>
<!-- Node4 -->
<g id="node6" class="node"><title>Node4</title>
<polygon fill="white" stroke="#bfbfbf" points="95,-72.5 95,-93.5 205,-93.5 205,-72.5 95,-72.5"/>
<text text-anchor="middle" x="150" y="-80.5" font-family="Helvetica,sans-Serif" font-size="10.00">std::vector&lt; double &gt;</text>
</g>
<!-- Node4&#45;&gt;Node1 -->
<g id="edge6" class="edge"><title>Node4&#45;&gt;Node1</title>
<path fill="none" stroke="#9a32cd" stroke-dasharray="5,2" d="M140.568,-63.0266C134.245,-49.6374 126.168,-32.5318 121.037,-21.6674"/>
<polygon fill="#9a32cd" stroke="#9a32cd" points="137.548,-64.8282 144.983,-72.3762 143.878,-61.8391 137.548,-64.8282"/>
<text text-anchor="middle" x="155.5" y="-44.5" font-family="Helvetica,sans-Serif" font-size="10.00"> Payload</text>
</g>
</g>
</svg>
