<?xml version="1.0" encoding="UTF-8" standalone="no"?>
<!DOCTYPE svg PUBLIC "-//W3C//DTD SVG 1.1//EN"
 "http://www.w3.org/Graphics/SVG/1.1/DTD/svg11.dtd">
<!-- Generated by graphviz version 2.26.3 (20100126.1600)
 -->
<!-- Title: EtapOmegaG_plot Pages: 1 -->
<svg width="568pt" height="140pt"
 viewBox="0.00 0.00 568.00 140.00" xmlns="http://www.w3.org/2000/svg" xmlns:xlink="http://www.w3.org/1999/xlink">
<g id="graph1" class="graph" transform="scale(1 1) rotate(0) translate(4 136)">
<title>EtapOmegaG_plot</title>
<polygon fill="white" stroke="white" points="-4,5 -4,-136 565,-136 565,5 -4,5"/>
<!-- Node4 -->
<g id="node1" class="node"><title>Node4</title>
<polygon fill="#bfbfbf" stroke="black" points="462.5,-58.5 462.5,-79.5 559.5,-79.5 559.5,-58.5 462.5,-58.5"/>
<text text-anchor="middle" x="511" y="-66.5" font-family="Helvetica,sans-Serif" font-size="10.00">EtapOmegaG_plot</text>
</g>
<!-- Node5 -->
<g id="node2" class="node"><title>Node5</title>
<a xlink:href="classant_1_1analysis_1_1_plotter.html" target="_top" xlink:title="ant::analysis::Plotter">
<polygon fill="white" stroke="black" points="218.5,-104.5 218.5,-125.5 325.5,-125.5 325.5,-104.5 218.5,-104.5"/>
<text text-anchor="middle" x="272" y="-112.5" font-family="Helvetica,sans-Serif" font-size="10.00">ant::analysis::Plotter</text>
</a>
</g>
<!-- Node5&#45;&gt;Node4 -->
<g id="edge2" class="edge"><title>Node5&#45;&gt;Node4</title>
<path fill="none" stroke="midnightblue" d="M335.937,-105.49C368.419,-100.338 408.439,-93.4964 444,-86 453.042,-84.094 462.706,-81.7966 471.8,-79.5157"/>
<polygon fill="midnightblue" stroke="midnightblue" points="335.006,-102.093 325.67,-107.103 336.092,-109.009 335.006,-102.093"/>
</g>
<!-- Node6 -->
<g id="node4" class="node"><title>Node6</title>
<a xlink:href="classant_1_1analysis_1_1_histogram_factory.html" target="_top" xlink:title="ant::analysis::Histogram\lFactory">
<polygon fill="white" stroke="black" points="0.5,-98 0.5,-132 123.5,-132 123.5,-98 0.5,-98"/>
<text text-anchor="start" x="8.5" y="-119" font-family="Helvetica,sans-Serif" font-size="10.00">ant::analysis::Histogram</text>
<text text-anchor="middle" x="62" y="-106" font-family="Helvetica,sans-Serif" font-size="10.00">Factory</text>
</a>
</g>
<!-- Node6&#45;&gt;Node5 -->
<g id="edge4" class="edge"><title>Node6&#45;&gt;Node5</title>
<path fill="none" stroke="#9a32cd" stroke-dasharray="5,2" d="M133.626,-115C161.342,-115 192.521,-115 218.256,-115"/>
<polygon fill="#9a32cd" stroke="#9a32cd" points="133.588,-111.5 123.588,-115 133.588,-118.5 133.588,-111.5"/>
<text text-anchor="middle" x="161" y="-119" font-family="Helvetica,sans-Serif" font-size="10.00"> HistFac</text>
</g>
<!-- Node7 -->
<g id="node6" class="node"><title>Node7</title>
<a xlink:href="structant_1_1analysis_1_1utils_1_1_m_c_weighting_1_1tree__t.html" target="_top" xlink:title="ant::analysis::utils\l::MCWeighting::tree_t">
<polygon fill="white" stroke="black" points="215.5,-52 215.5,-86 328.5,-86 328.5,-52 215.5,-52"/>
<text text-anchor="start" x="223.5" y="-73" font-family="Helvetica,sans-Serif" font-size="10.00">ant::analysis::utils</text>
<text text-anchor="middle" x="272" y="-60" font-family="Helvetica,sans-Serif" font-size="10.00">::MCWeighting::tree_t</text>
</a>
</g>
<!-- Node7&#45;&gt;Node4 -->
<g id="edge6" class="edge"><title>Node7&#45;&gt;Node4</title>
<path fill="none" stroke="#9a32cd" stroke-dasharray="5,2" d="M338.669,-69C377.963,-69 426.799,-69 462.439,-69"/>
<polygon fill="#9a32cd" stroke="#9a32cd" points="338.64,-65.5001 328.64,-69 338.64,-72.5001 338.64,-65.5001"/>
<text text-anchor="middle" x="404" y="-73" font-family="Helvetica,sans-Serif" font-size="10.00"> treeMCWeighting</text>
</g>
<!-- Node8 -->
<g id="node8" class="node"><title>Node8</title>
<a xlink:href="classant_1_1_wrap_t_tree.html" target="_top" xlink:title="The WrapTTree struct simplifies TTree handling in physics classes. ">
<polygon fill="white" stroke="black" points="19.5,-39.5 19.5,-60.5 104.5,-60.5 104.5,-39.5 19.5,-39.5"/>
<text text-anchor="middle" x="62" y="-47.5" font-family="Helvetica,sans-Serif" font-size="10.00">ant::WrapTTree</text>
</a>
</g>
<!-- Node8&#45;&gt;Node7 -->
<g id="edge8" class="edge"><title>Node8&#45;&gt;Node7</title>
<path fill="none" stroke="midnightblue" d="M114.818,-54.7788C145.472,-57.5523 184.083,-61.0456 215.364,-63.8758"/>
<polygon fill="midnightblue" stroke="midnightblue" points="115.024,-51.2832 104.75,-53.8678 114.394,-58.2548 115.024,-51.2832"/>
</g>
<!-- Node9 -->
<g id="node10" class="node"><title>Node9</title>
<a xlink:href="structant_1_1analysis_1_1physics_1_1_etap_omega_g_1_1_tree_common.html" target="_top" xlink:title="ant::analysis::physics\l::EtapOmegaG::TreeCommon">
<polygon fill="white" stroke="black" points="198.5,-0 198.5,-34 345.5,-34 345.5,-0 198.5,-0"/>
<text text-anchor="start" x="206.5" y="-21" font-family="Helvetica,sans-Serif" font-size="10.00">ant::analysis::physics</text>
<text text-anchor="middle" x="272" y="-8" font-family="Helvetica,sans-Serif" font-size="10.00">::EtapOmegaG::TreeCommon</text>
</a>
</g>
<!-- Node8&#45;&gt;Node9 -->
<g id="edge12" class="edge"><title>Node8&#45;&gt;Node9</title>
<path fill="none" stroke="midnightblue" d="M114.86,-41.6934C140.119,-37.7241 170.773,-32.9072 198.276,-28.5853"/>
<polygon fill="midnightblue" stroke="midnightblue" points="114.085,-38.2722 104.75,-43.2822 115.172,-45.1873 114.085,-38.2722"/>
</g>
<!-- Node9&#45;&gt;Node4 -->
<g id="edge10" class="edge"><title>Node9&#45;&gt;Node4</title>
<path fill="none" stroke="#9a32cd" stroke-dasharray="5,2" d="M355.993,-33.2569C384.041,-38.9077 415.425,-45.4714 444,-52 452.657,-53.978 461.908,-56.2329 470.686,-58.4394"/>
<polygon fill="#9a32cd" stroke="#9a32cd" points="356.315,-29.7519 345.822,-31.2181 354.939,-36.6153 356.315,-29.7519"/>
<text text-anchor="middle" x="404" y="-56" font-family="Helvetica,sans-Serif" font-size="10.00"> treeCommon</text>
</g>
</g>
</svg>
