<?xml version="1.0" encoding="UTF-8" standalone="no"?>
<!DOCTYPE svg PUBLIC "-//W3C//DTD SVG 1.1//EN"
 "http://www.w3.org/Graphics/SVG/1.1/DTD/svg11.dtd">
<!-- Generated by graphviz version 2.26.3 (20100126.1600)
 -->
<!-- Title: ant::calibration::converter::MultiHit&lt; T &gt; Pages: 1 -->
<svg width="138pt" height="174pt"
 viewBox="0.00 0.00 138.00 174.00" xmlns="http://www.w3.org/2000/svg" xmlns:xlink="http://www.w3.org/1999/xlink">
<g id="graph1" class="graph" transform="scale(1 1) rotate(0) translate(4 170)">
<title>ant::calibration::converter::MultiHit&lt; T &gt;</title>
<polygon fill="white" stroke="white" points="-4,5 -4,-170 135,-170 135,5 -4,5"/>
<!-- Node0 -->
<g id="node1" class="node"><title>Node0</title>
<polygon fill="#bfbfbf" stroke="black" points="1.5,-73 1.5,-107 128.5,-107 128.5,-73 1.5,-73"/>
<text text-anchor="start" x="9.5" y="-94" font-family="Helvetica,sans-Serif" font-size="10.00">ant::calibration::converter</text>
<text text-anchor="middle" x="65" y="-81" font-family="Helvetica,sans-Serif" font-size="10.00">::MultiHit&lt; T &gt;</text>
</g>
<!-- Node2 -->
<g id="node5" class="node"><title>Node2</title>
<a xlink:href="structant_1_1calibration_1_1converter_1_1_multi_hit_reference.html" target="_top" xlink:title="ant::calibration::converter\l::MultiHitReference\&lt; T \&gt;">
<polygon fill="white" stroke="black" points="1.5,-1 1.5,-35 128.5,-35 128.5,-1 1.5,-1"/>
<text text-anchor="start" x="9.5" y="-22" font-family="Helvetica,sans-Serif" font-size="10.00">ant::calibration::converter</text>
<text text-anchor="middle" x="65" y="-9" font-family="Helvetica,sans-Serif" font-size="10.00">::MultiHitReference&lt; T &gt;</text>
</a>
</g>
<!-- Node0&#45;&gt;Node2 -->
<g id="edge4" class="edge"><title>Node0&#45;&gt;Node2</title>
<path fill="none" stroke="midnightblue" d="M65,-62.7193C65,-53.572 65,-43.6255 65,-35.4407"/>
<polygon fill="midnightblue" stroke="midnightblue" points="61.5001,-62.937 65,-72.937 68.5001,-62.937 61.5001,-62.937"/>
</g>
<!-- Node1 -->
<g id="node2" class="node"><title>Node1</title>
<a xlink:href="structant_1_1_calibration_1_1_converter.html" target="_top" xlink:title="The Converter struct handles the transition from raw bytes to somewhat meaningful values (not necessa...">
<polygon fill="white" stroke="black" points="-0.5,-144.5 -0.5,-165.5 130.5,-165.5 130.5,-144.5 -0.5,-144.5"/>
<text text-anchor="middle" x="65" y="-152.5" font-family="Helvetica,sans-Serif" font-size="10.00">ant::Calibration::Converter</text>
</a>
</g>
<!-- Node1&#45;&gt;Node0 -->
<g id="edge2" class="edge"><title>Node1&#45;&gt;Node0</title>
<path fill="none" stroke="midnightblue" d="M65,-134.131C65,-125.405 65,-115.391 65,-107.11"/>
<polygon fill="midnightblue" stroke="midnightblue" points="61.5001,-134.267 65,-144.267 68.5001,-134.267 61.5001,-134.267"/>
</g>
</g>
</svg>
