<?xml version="1.0" encoding="UTF-8" standalone="no"?>
<!DOCTYPE svg PUBLIC "-//W3C//DTD SVG 1.1//EN"
 "http://www.w3.org/Graphics/SVG/1.1/DTD/svg11.dtd">
<!-- Generated by graphviz version 2.26.3 (20100126.1600)
 -->
<!-- Title: channelHistTime_t Pages: 1 -->
<svg width="106pt" height="176pt"
 viewBox="0.00 0.00 106.00 176.00" xmlns="http://www.w3.org/2000/svg" xmlns:xlink="http://www.w3.org/1999/xlink">
<g id="graph1" class="graph" transform="scale(1 1) rotate(0) translate(4 172)">
<title>channelHistTime_t</title>
<polygon fill="white" stroke="white" points="-4,5 -4,-172 103,-172 103,5 -4,5"/>
<!-- Node1 -->
<g id="node1" class="node"><title>Node1</title>
<polygon fill="#bfbfbf" stroke="black" points="0,-0.5 0,-21.5 98,-21.5 98,-0.5 0,-0.5"/>
<text text-anchor="middle" x="49" y="-8.5" font-family="Helvetica,sans-Serif" font-size="10.00">channelHistTime_t</text>
</g>
<!-- Node2 -->
<g id="node2" class="node"><title>Node2</title>
<a xlink:title="STL class. ">
<polygon fill="white" stroke="#bfbfbf" points="19,-72.5 19,-93.5 79,-93.5 79,-72.5 19,-72.5"/>
<text text-anchor="middle" x="49" y="-80.5" font-family="Helvetica,sans-Serif" font-size="10.00">std::string</text>
</a>
</g>
<!-- Node2&#45;&gt;Node1 -->
<g id="edge2" class="edge"><title>Node2&#45;&gt;Node1</title>
<path fill="none" stroke="#9a32cd" stroke-dasharray="5,2" d="M49,-62.2348C49,-48.969 49,-32.3188 49,-21.6674"/>
<polygon fill="#9a32cd" stroke="#9a32cd" points="45.5001,-62.3761 49,-72.3762 52.5001,-62.3762 45.5001,-62.3761"/>
<text text-anchor="middle" x="60" y="-44.5" font-family="Helvetica,sans-Serif" font-size="10.00"> Title</text>
</g>
<!-- Node3 -->
<g id="node4" class="node"><title>Node3</title>
<a xlink:title="STL class. ">
<polygon fill="white" stroke="#bfbfbf" points="1.5,-133 1.5,-167 96.5,-167 96.5,-133 1.5,-133"/>
<text text-anchor="start" x="9.5" y="-154" font-family="Helvetica,sans-Serif" font-size="10.00">std::basic_string&lt;</text>
<text text-anchor="middle" x="49" y="-141" font-family="Helvetica,sans-Serif" font-size="10.00"> char &gt;</text>
</a>
</g>
<!-- Node3&#45;&gt;Node2 -->
<g id="edge4" class="edge"><title>Node3&#45;&gt;Node2</title>
<path fill="none" stroke="midnightblue" d="M49,-122.534C49,-112.306 49,-101.301 49,-93.5056"/>
<polygon fill="midnightblue" stroke="midnightblue" points="45.5001,-122.746 49,-132.746 52.5001,-122.746 45.5001,-122.746"/>
</g>
</g>
</svg>
