<?xml version="1.0" encoding="UTF-8" standalone="no"?>
<!DOCTYPE svg PUBLIC "-//W3C//DTD SVG 1.1//EN"
 "http://www.w3.org/Graphics/SVG/1.1/DTD/svg11.dtd">
<!-- Generated by graphviz version 2.26.3 (20100126.1600)
 -->
<!-- Title: ant::analysis::physics::PID_TAPSVeto_Kinfit::MultiPi0 Pages: 1 -->
<svg width="1444pt" height="429pt"
 viewBox="0.00 0.00 1444.00 429.00" xmlns="http://www.w3.org/2000/svg" xmlns:xlink="http://www.w3.org/1999/xlink">
<g id="graph1" class="graph" transform="scale(1 1) rotate(0) translate(4 425)">
<title>ant::analysis::physics::PID_TAPSVeto_Kinfit::MultiPi0</title>
<polygon fill="white" stroke="white" points="-4,5 -4,-425 1441,-425 1441,5 -4,5"/>
<!-- Node1 -->
<g id="node1" class="node"><title>Node1</title>
<polygon fill="#bfbfbf" stroke="black" points="1316.5,-164.5 1316.5,-211.5 1435.5,-211.5 1435.5,-164.5 1316.5,-164.5"/>
<text text-anchor="start" x="1324.5" y="-198.5" font-family="Helvetica,sans-Serif" font-size="10.00">ant::analysis::physics</text>
<text text-anchor="start" x="1324.5" y="-185.5" font-family="Helvetica,sans-Serif" font-size="10.00">::PID_TAPSVeto_Kinfit</text>
<text text-anchor="middle" x="1376" y="-172.5" font-family="Helvetica,sans-Serif" font-size="10.00">::MultiPi0</text>
</g>
<!-- Node2 -->
<g id="node2" class="node"><title>Node2</title>
<polygon fill="white" stroke="#bfbfbf" points="1068,-373.5 1068,-420.5 1214,-420.5 1214,-373.5 1068,-373.5"/>
<text text-anchor="start" x="1076" y="-407.5" font-family="Helvetica,sans-Serif" font-size="10.00">std::vector&lt; std::pair</text>
<text text-anchor="start" x="1076" y="-394.5" font-family="Helvetica,sans-Serif" font-size="10.00">&lt; utils::TreeFitter::tree</text>
<text text-anchor="middle" x="1141" y="-381.5" font-family="Helvetica,sans-Serif" font-size="10.00">_t, utils::TreeFitter::tree_t &gt; &gt;</text>
</g>
<!-- Node2&#45;&gt;Node1 -->
<g id="edge2" class="edge"><title>Node2&#45;&gt;Node1</title>
<path fill="none" stroke="#9a32cd" stroke-dasharray="5,2" d="M1224.19,-389.244C1250.11,-383.385 1277.29,-373.293 1298,-356 1343.29,-318.177 1363.73,-248.259 1371.67,-211.69"/>
<polygon fill="#9a32cd" stroke="#9a32cd" points="1223.41,-385.83 1214.33,-391.289 1224.84,-392.684 1223.41,-385.83"/>
<text text-anchor="middle" x="1265" y="-390" font-family="Helvetica,sans-Serif" font-size="10.00"> pions</text>
</g>
<!-- Node3 -->
<g id="node4" class="node"><title>Node3</title>
<a xlink:href="classant_1_1analysis_1_1utils_1_1_tree_fitter.html" target="_top" xlink:title="ant::analysis::utils\l::TreeFitter">
<polygon fill="white" stroke="black" points="1093,-223 1093,-257 1189,-257 1189,-223 1093,-223"/>
<text text-anchor="start" x="1101" y="-244" font-family="Helvetica,sans-Serif" font-size="10.00">ant::analysis::utils</text>
<text text-anchor="middle" x="1141" y="-231" font-family="Helvetica,sans-Serif" font-size="10.00">::TreeFitter</text>
</a>
</g>
<!-- Node3&#45;&gt;Node1 -->
<g id="edge4" class="edge"><title>Node3&#45;&gt;Node1</title>
<path fill="none" stroke="#9a32cd" stroke-dasharray="5,2" d="M1198.91,-227.187C1234.59,-219.292 1280.24,-209.19 1316.25,-201.221"/>
<polygon fill="#9a32cd" stroke="#9a32cd" points="1198.13,-223.774 1189.12,-229.352 1199.64,-230.608 1198.13,-223.774"/>
<text text-anchor="middle" x="1265" y="-222" font-family="Helvetica,sans-Serif" font-size="10.00"> treefitter</text>
</g>
<!-- Node4 -->
<g id="node6" class="node"><title>Node4</title>
<a xlink:href="classant_1_1analysis_1_1utils_1_1_kin_fitter.html" target="_top" xlink:title="ant::analysis::utils\l::KinFitter">
<polygon fill="white" stroke="black" points="827,-327 827,-361 923,-361 923,-327 827,-327"/>
<text text-anchor="start" x="835" y="-348" font-family="Helvetica,sans-Serif" font-size="10.00">ant::analysis::utils</text>
<text text-anchor="middle" x="875" y="-335" font-family="Helvetica,sans-Serif" font-size="10.00">::KinFitter</text>
</a>
</g>
<!-- Node4&#45;&gt;Node1 -->
<g id="edge40" class="edge"><title>Node4&#45;&gt;Node1</title>
<path fill="none" stroke="#9a32cd" stroke-dasharray="5,2" d="M933.327,-340.159C967.616,-337.12 1011.63,-331.861 1050,-323 1163.96,-296.683 1192.58,-285.653 1298,-235 1312.11,-228.221 1326.97,-219.657 1339.89,-211.701"/>
<polygon fill="#9a32cd" stroke="#9a32cd" points="932.684,-336.701 923.015,-341.033 933.275,-343.676 932.684,-336.701"/>
<text text-anchor="middle" x="1141" y="-322" font-family="Helvetica,sans-Serif" font-size="10.00"> fitter</text>
</g>
<!-- Node4&#45;&gt;Node3 -->
<g id="edge6" class="edge"><title>Node4&#45;&gt;Node3</title>
<path fill="none" stroke="midnightblue" d="M933.081,-332.952C967.863,-325.231 1012.47,-313.358 1050,-297 1074.61,-286.275 1100.33,-269.581 1118.12,-257.026"/>
<polygon fill="midnightblue" stroke="midnightblue" points="932.117,-329.579 923.084,-335.117 933.598,-336.421 932.117,-329.579"/>
</g>
<!-- Node5 -->
<g id="node8" class="node"><title>Node5</title>
<a xlink:href="classant_1_1analysis_1_1utils_1_1_fitter.html" target="_top" xlink:title="ant::analysis::utils\l::Fitter">
<polygon fill="white" stroke="black" points="605,-379 605,-413 701,-413 701,-379 605,-379"/>
<text text-anchor="start" x="613" y="-400" font-family="Helvetica,sans-Serif" font-size="10.00">ant::analysis::utils</text>
<text text-anchor="middle" x="653" y="-387" font-family="Helvetica,sans-Serif" font-size="10.00">::Fitter</text>
</a>
</g>
<!-- Node5&#45;&gt;Node4 -->
<g id="edge8" class="edge"><title>Node5&#45;&gt;Node4</title>
<path fill="none" stroke="midnightblue" d="M711.065,-382.399C747.121,-373.954 792.908,-363.229 826.923,-355.261"/>
<polygon fill="midnightblue" stroke="midnightblue" points="710.109,-379.028 701.171,-384.717 711.705,-385.844 710.109,-379.028"/>
</g>
<!-- Node6 -->
<g id="node10" class="node"><title>Node6</title>
<a xlink:href="structant_1_1analysis_1_1utils_1_1_kin_fitter_1_1_beam_e__t.html" target="_top" xlink:title="ant::analysis::utils\l::KinFitter::BeamE_t">
<polygon fill="white" stroke="black" points="600,-327 600,-361 706,-361 706,-327 600,-327"/>
<text text-anchor="start" x="608" y="-348" font-family="Helvetica,sans-Serif" font-size="10.00">ant::analysis::utils</text>
<text text-anchor="middle" x="653" y="-335" font-family="Helvetica,sans-Serif" font-size="10.00">::KinFitter::BeamE_t</text>
</a>
</g>
<!-- Node6&#45;&gt;Node4 -->
<g id="edge10" class="edge"><title>Node6&#45;&gt;Node4</title>
<path fill="none" stroke="#9a32cd" stroke-dasharray="5,2" d="M716.328,-344C751.451,-344 794.435,-344 826.802,-344"/>
<polygon fill="#9a32cd" stroke="#9a32cd" points="716.175,-340.5 706.175,-344 716.174,-347.5 716.175,-340.5"/>
<text text-anchor="middle" x="756" y="-348" font-family="Helvetica,sans-Serif" font-size="10.00"> BeamE</text>
</g>
<!-- Node7 -->
<g id="node12" class="node"><title>Node7</title>
<a xlink:href="structant_1_1analysis_1_1utils_1_1_fitter_1_1_v___s___p__t.html" target="_top" xlink:title="ant::analysis::utils\l::Fitter::V_S_P_t">
<polygon fill="white" stroke="black" points="397,-327 397,-361 493,-361 493,-327 397,-327"/>
<text text-anchor="start" x="405" y="-348" font-family="Helvetica,sans-Serif" font-size="10.00">ant::analysis::utils</text>
<text text-anchor="middle" x="445" y="-335" font-family="Helvetica,sans-Serif" font-size="10.00">::Fitter::V_S_P_t</text>
</a>
</g>
<!-- Node7&#45;&gt;Node6 -->
<g id="edge12" class="edge"><title>Node7&#45;&gt;Node6</title>
<path fill="none" stroke="midnightblue" d="M503.257,-344C533.578,-344 570.377,-344 599.907,-344"/>
<polygon fill="midnightblue" stroke="midnightblue" points="503.242,-340.5 493.242,-344 503.242,-347.5 503.242,-340.5"/>
</g>
<!-- Node8 -->
<g id="node14" class="node"><title>Node8</title>
<a xlink:href="structant_1_1analysis_1_1utils_1_1_fitter_1_1_v___s__t.html" target="_top" xlink:title="ant::analysis::utils\l::Fitter::V_S_t">
<polygon fill="white" stroke="black" points="199,-327 199,-361 295,-361 295,-327 199,-327"/>
<text text-anchor="start" x="207" y="-348" font-family="Helvetica,sans-Serif" font-size="10.00">ant::analysis::utils</text>
<text text-anchor="middle" x="247" y="-335" font-family="Helvetica,sans-Serif" font-size="10.00">::Fitter::V_S_t</text>
</a>
</g>
<!-- Node8&#45;&gt;Node7 -->
<g id="edge14" class="edge"><title>Node8&#45;&gt;Node7</title>
<path fill="none" stroke="midnightblue" d="M305.243,-344C334.42,-344 369.32,-344 396.944,-344"/>
<polygon fill="midnightblue" stroke="midnightblue" points="305.183,-340.5 295.183,-344 305.183,-347.5 305.183,-340.5"/>
</g>
<!-- Node9 -->
<g id="node16" class="node"><title>Node9</title>
<polygon fill="white" stroke="#bfbfbf" points="590.5,-287.5 590.5,-308.5 715.5,-308.5 715.5,-287.5 590.5,-287.5"/>
<text text-anchor="middle" x="653" y="-295.5" font-family="Helvetica,sans-Serif" font-size="10.00">std::vector&lt; FitParticle &gt;</text>
</g>
<!-- Node9&#45;&gt;Node4 -->
<g id="edge16" class="edge"><title>Node9&#45;&gt;Node4</title>
<path fill="none" stroke="#9a32cd" stroke-dasharray="5,2" d="M713.735,-310.585C749.376,-317.97 793.781,-327.171 826.967,-334.047"/>
<polygon fill="#9a32cd" stroke="#9a32cd" points="714.433,-307.155 703.931,-308.553 713.013,-314.01 714.433,-307.155"/>
<text text-anchor="middle" x="756" y="-327" font-family="Helvetica,sans-Serif" font-size="10.00"> Photons</text>
</g>
<!-- Node10 -->
<g id="node18" class="node"><title>Node10</title>
<polygon fill="white" stroke="#bfbfbf" points="822,-287.5 822,-308.5 928,-308.5 928,-287.5 822,-287.5"/>
<text text-anchor="middle" x="875" y="-295.5" font-family="Helvetica,sans-Serif" font-size="10.00">std::vector&lt; tree_t &gt;</text>
</g>
<!-- Node10&#45;&gt;Node3 -->
<g id="edge18" class="edge"><title>Node10&#45;&gt;Node3</title>
<path fill="none" stroke="#9a32cd" stroke-dasharray="5,2" d="M938.111,-286.779C971.488,-280.582 1013.09,-272.444 1050,-264 1064.02,-260.794 1079.15,-256.956 1092.97,-253.3"/>
<polygon fill="#9a32cd" stroke="#9a32cd" points="937.231,-283.382 928.031,-288.638 938.5,-290.266 937.231,-283.382"/>
<text text-anchor="middle" x="1011" y="-284" font-family="Helvetica,sans-Serif" font-size="10.00"> tree_leaves</text>
</g>
<!-- Node11 -->
<g id="node20" class="node"><title>Node11</title>
<polygon fill="white" stroke="#bfbfbf" points="802,-235 802,-269 948,-269 948,-235 802,-235"/>
<text text-anchor="start" x="810" y="-256" font-family="Helvetica,sans-Serif" font-size="10.00">std::list&lt; ant::analysis</text>
<text text-anchor="middle" x="875" y="-243" font-family="Helvetica,sans-Serif" font-size="10.00">::utils::TreeFitter::iteration_t &gt;</text>
</g>
<!-- Node11&#45;&gt;Node3 -->
<g id="edge20" class="edge"><title>Node11&#45;&gt;Node3</title>
<path fill="none" stroke="#9a32cd" stroke-dasharray="5,2" d="M958.22,-248.246C1002.51,-246.248 1055.41,-243.861 1092.88,-242.171"/>
<polygon fill="#9a32cd" stroke="#9a32cd" points="957.87,-244.758 948.038,-248.705 958.185,-251.751 957.87,-244.758"/>
<text text-anchor="middle" x="1011" y="-251" font-family="Helvetica,sans-Serif" font-size="10.00"> iterations</text>
</g>
<!-- Node12 -->
<g id="node22" class="node"><title>Node12</title>
<a xlink:href="structant_1_1analysis_1_1utils_1_1_tree_fitter_1_1iteration__t.html" target="_top" xlink:title="ant::analysis::utils\l::TreeFitter::iteration_t">
<polygon fill="white" stroke="black" points="596.5,-235 596.5,-269 709.5,-269 709.5,-235 596.5,-235"/>
<text text-anchor="start" x="604.5" y="-256" font-family="Helvetica,sans-Serif" font-size="10.00">ant::analysis::utils</text>
<text text-anchor="middle" x="653" y="-243" font-family="Helvetica,sans-Serif" font-size="10.00">::TreeFitter::iteration_t</text>
</a>
</g>
<!-- Node12&#45;&gt;Node11 -->
<g id="edge22" class="edge"><title>Node12&#45;&gt;Node11</title>
<path fill="none" stroke="#9a32cd" stroke-dasharray="5,2" d="M719.676,-252C745.544,-252 775.256,-252 801.72,-252"/>
<polygon fill="#9a32cd" stroke="#9a32cd" points="719.594,-248.5 709.594,-252 719.594,-255.5 719.594,-248.5"/>
<text text-anchor="middle" x="756" y="-256" font-family="Helvetica,sans-Serif" font-size="10.00"> elements</text>
</g>
<!-- Node13 -->
<g id="node24" class="node"><title>Node13</title>
<polygon fill="white" stroke="#bfbfbf" points="380.5,-228.5 380.5,-275.5 509.5,-275.5 509.5,-228.5 380.5,-228.5"/>
<text text-anchor="start" x="388.5" y="-262.5" font-family="Helvetica,sans-Serif" font-size="10.00">std::vector&lt; ant::analysis</text>
<text text-anchor="start" x="388.5" y="-249.5" font-family="Helvetica,sans-Serif" font-size="10.00">::utils::TreeFitter::iteration</text>
<text text-anchor="middle" x="445" y="-236.5" font-family="Helvetica,sans-Serif" font-size="10.00">_t::photon_t &gt;</text>
</g>
<!-- Node13&#45;&gt;Node12 -->
<g id="edge24" class="edge"><title>Node13&#45;&gt;Node12</title>
<path fill="none" stroke="#9a32cd" stroke-dasharray="5,2" d="M519.943,-252C545.174,-252 572.886,-252 596.457,-252"/>
<polygon fill="#9a32cd" stroke="#9a32cd" points="519.672,-248.5 509.672,-252 519.672,-255.5 519.672,-248.5"/>
<text text-anchor="middle" x="550" y="-256" font-family="Helvetica,sans-Serif" font-size="10.00"> Photons</text>
</g>
<!-- Node14 -->
<g id="node26" class="node"><title>Node14</title>
<a xlink:href="structant_1_1analysis_1_1utils_1_1_tree_fitter_1_1iteration__t_1_1photon__t.html" target="_top" xlink:title="ant::analysis::utils\l::TreeFitter::iteration\l_t::photon_t">
<polygon fill="white" stroke="black" points="194.5,-228.5 194.5,-275.5 299.5,-275.5 299.5,-228.5 194.5,-228.5"/>
<text text-anchor="start" x="202.5" y="-262.5" font-family="Helvetica,sans-Serif" font-size="10.00">ant::analysis::utils</text>
<text text-anchor="start" x="202.5" y="-249.5" font-family="Helvetica,sans-Serif" font-size="10.00">::TreeFitter::iteration</text>
<text text-anchor="middle" x="247" y="-236.5" font-family="Helvetica,sans-Serif" font-size="10.00">_t::photon_t</text>
</a>
</g>
<!-- Node14&#45;&gt;Node13 -->
<g id="edge26" class="edge"><title>Node14&#45;&gt;Node13</title>
<path fill="none" stroke="#9a32cd" stroke-dasharray="5,2" d="M309.645,-252C332.127,-252 357.513,-252 380.176,-252"/>
<polygon fill="#9a32cd" stroke="#9a32cd" points="309.541,-248.5 299.541,-252 309.54,-255.5 309.541,-248.5"/>
<text text-anchor="middle" x="340" y="-256" font-family="Helvetica,sans-Serif" font-size="10.00"> elements</text>
</g>
<!-- Node15 -->
<g id="node28" class="node"><title>Node15</title>
<a xlink:href="structant_1_1std__ext_1_1cc__shared__ptr.html" target="_top" xlink:title="ant::std_ext::cc_shared\l_ptr\&lt; TParticle \&gt;">
<polygon fill="white" stroke="black" points="0.5,-235 0.5,-269 119.5,-269 119.5,-235 0.5,-235"/>
<text text-anchor="start" x="8.5" y="-256" font-family="Helvetica,sans-Serif" font-size="10.00">ant::std_ext::cc_shared</text>
<text text-anchor="middle" x="60" y="-243" font-family="Helvetica,sans-Serif" font-size="10.00">_ptr&lt; TParticle &gt;</text>
</a>
</g>
<!-- Node15&#45;&gt;Node14 -->
<g id="edge28" class="edge"><title>Node15&#45;&gt;Node14</title>
<path fill="none" stroke="#9a32cd" stroke-dasharray="5,2" d="M129.965,-252C151.239,-252 174.251,-252 194.194,-252"/>
<polygon fill="#9a32cd" stroke="#9a32cd" points="129.682,-248.5 119.682,-252 129.682,-255.5 129.682,-248.5"/>
<text text-anchor="middle" x="157" y="-256" font-family="Helvetica,sans-Serif" font-size="10.00"> Particle</text>
</g>
<!-- Node16 -->
<g id="node30" class="node"><title>Node16</title>
<polygon fill="white" stroke="#bfbfbf" points="812,-183 812,-217 938,-217 938,-183 812,-183"/>
<text text-anchor="start" x="820" y="-204" font-family="Helvetica,sans-Serif" font-size="10.00">std::vector&lt; std::function</text>
<text text-anchor="middle" x="875" y="-191" font-family="Helvetica,sans-Serif" font-size="10.00">&lt; void()&gt; &gt;</text>
</g>
<!-- Node16&#45;&gt;Node3 -->
<g id="edge30" class="edge"><title>Node16&#45;&gt;Node3</title>
<path fill="none" stroke="#9a32cd" stroke-dasharray="5,2" d="M947.995,-210.977C994.177,-217.921 1052.57,-226.703 1092.97,-232.778"/>
<polygon fill="#9a32cd" stroke="#9a32cd" points="948.448,-207.505 938.038,-209.479 947.407,-214.428 948.448,-207.505"/>
<text text-anchor="middle" x="1011" y="-229" font-family="Helvetica,sans-Serif" font-size="10.00"> sum_daughters</text>
</g>
<!-- Node17 -->
<g id="node32" class="node"><title>Node17</title>
<polygon fill="white" stroke="#bfbfbf" points="805,-143.5 805,-164.5 945,-164.5 945,-143.5 805,-143.5"/>
<text text-anchor="middle" x="875" y="-151.5" font-family="Helvetica,sans-Serif" font-size="10.00">std::vector&lt; permutation_t &gt;</text>
</g>
<!-- Node17&#45;&gt;Node3 -->
<g id="edge32" class="edge"><title>Node17&#45;&gt;Node3</title>
<path fill="none" stroke="#9a32cd" stroke-dasharray="5,2" d="M954.976,-165.706C985.878,-172.345 1020.76,-182.537 1050,-198 1059.46,-203.004 1058.79,-208.548 1068,-214 1075.64,-218.522 1084.19,-222.441 1092.68,-225.767"/>
<polygon fill="#9a32cd" stroke="#9a32cd" points="955.595,-162.26 945.095,-163.673 954.184,-169.116 955.595,-162.26"/>
<text text-anchor="middle" x="1011" y="-202" font-family="Helvetica,sans-Serif" font-size="10.00"> permutations</text>
</g>
<!-- Node18 -->
<g id="node34" class="node"><title>Node18</title>
<a xlink:title="STL class. ">
<polygon fill="white" stroke="#bfbfbf" points="609.5,-113.5 609.5,-134.5 696.5,-134.5 696.5,-113.5 609.5,-113.5"/>
<text text-anchor="middle" x="653" y="-121.5" font-family="Helvetica,sans-Serif" font-size="10.00">std::vector&lt; T &gt;</text>
</a>
</g>
<!-- Node18&#45;&gt;Node17 -->
<g id="edge34" class="edge"><title>Node18&#45;&gt;Node17</title>
<path fill="none" stroke="#9a32cd" stroke-dasharray="5,2" d="M706.695,-131.256C736.185,-135.241 773.111,-140.231 804.855,-144.521"/>
<polygon fill="#9a32cd" stroke="#9a32cd" points="706.974,-127.762 696.595,-129.891 706.036,-134.699 706.974,-127.762"/>
<text text-anchor="middle" x="756" y="-144" font-family="Helvetica,sans-Serif" font-size="10.00"> elements</text>
</g>
<!-- Node19 -->
<g id="node36" class="node"><title>Node19</title>
<polygon fill="white" stroke="#bfbfbf" points="430.5,-89.5 430.5,-110.5 459.5,-110.5 459.5,-89.5 430.5,-89.5"/>
<text text-anchor="middle" x="445" y="-97.5" font-family="Helvetica,sans-Serif" font-size="10.00">T</text>
</g>
<!-- Node19&#45;&gt;Node18 -->
<g id="edge36" class="edge"><title>Node19&#45;&gt;Node18</title>
<path fill="none" stroke="#9a32cd" stroke-dasharray="5,2" d="M469.745,-102.855C504.186,-106.829 567.107,-114.089 609.487,-118.979"/>
<polygon fill="#9a32cd" stroke="#9a32cd" points="469.961,-99.357 459.626,-101.688 469.159,-106.311 469.961,-99.357"/>
<text text-anchor="middle" x="550" y="-119" font-family="Helvetica,sans-Serif" font-size="10.00"> elements</text>
</g>
<!-- Node23 -->
<g id="node45" class="node"><title>Node23</title>
<a xlink:title="STL class. ">
<polygon fill="white" stroke="#bfbfbf" points="601,-59 601,-93 705,-93 705,-59 601,-59"/>
<text text-anchor="start" x="609" y="-80" font-family="Helvetica,sans-Serif" font-size="10.00">std::vector&lt; interval</text>
<text text-anchor="middle" x="653" y="-67" font-family="Helvetica,sans-Serif" font-size="10.00">&lt; double &gt; &gt;</text>
</a>
</g>
<!-- Node19&#45;&gt;Node23 -->
<g id="edge48" class="edge"><title>Node19&#45;&gt;Node23</title>
<path fill="none" stroke="#9a32cd" stroke-dasharray="5,2" d="M469.913,-97.1255C502.084,-93.4133 558.905,-86.8571 600.739,-82.0301"/>
<polygon fill="#9a32cd" stroke="#9a32cd" points="469.159,-93.6891 459.626,-98.3124 469.961,-100.643 469.159,-93.6891"/>
<text text-anchor="middle" x="550" y="-95" font-family="Helvetica,sans-Serif" font-size="10.00"> elements</text>
</g>
<!-- Node20 -->
<g id="node38" class="node"><title>Node20</title>
<polygon fill="white" stroke="#bfbfbf" points="796,-103.5 796,-124.5 954,-124.5 954,-103.5 796,-103.5"/>
<text text-anchor="middle" x="875" y="-111.5" font-family="Helvetica,sans-Serif" font-size="10.00">std::vector&lt; node_constraint_t &gt;</text>
</g>
<!-- Node20&#45;&gt;Node3 -->
<g id="edge38" class="edge"><title>Node20&#45;&gt;Node3</title>
<path fill="none" stroke="#9a32cd" stroke-dasharray="5,2" d="M964.446,-115.96C994.898,-120.92 1027.01,-131.519 1050,-153 1070.65,-172.3 1048.57,-193.468 1068,-214 1074.75,-221.134 1083.59,-226.313 1092.77,-230.073"/>
<polygon fill="#9a32cd" stroke="#9a32cd" points="964.595,-112.445 954.198,-114.486 963.598,-119.374 964.595,-112.445"/>
<text text-anchor="middle" x="1011" y="-157" font-family="Helvetica,sans-Serif" font-size="10.00"> node_constraints</text>
</g>
<!-- Node21 -->
<g id="node41" class="node"><title>Node21</title>
<a xlink:href="classant_1_1analysis_1_1_prompt_random_1_1_switch.html" target="_top" xlink:title="ant::analysis::PromptRandom\l::Switch">
<polygon fill="white" stroke="black" points="1068,-171 1068,-205 1214,-205 1214,-171 1068,-171"/>
<text text-anchor="start" x="1076" y="-192" font-family="Helvetica,sans-Serif" font-size="10.00">ant::analysis::PromptRandom</text>
<text text-anchor="middle" x="1141" y="-179" font-family="Helvetica,sans-Serif" font-size="10.00">::Switch</text>
</a>
</g>
<!-- Node21&#45;&gt;Node1 -->
<g id="edge42" class="edge"><title>Node21&#45;&gt;Node1</title>
<path fill="none" stroke="#9a32cd" stroke-dasharray="5,2" d="M1224.24,-188C1254.65,-188 1288.42,-188 1316.37,-188"/>
<polygon fill="#9a32cd" stroke="#9a32cd" points="1224.07,-184.5 1214.07,-188 1224.07,-191.5 1224.07,-184.5"/>
<text text-anchor="middle" x="1265" y="-192" font-family="Helvetica,sans-Serif" font-size="10.00"> promptrandom</text>
</g>
<!-- Node22 -->
<g id="node43" class="node"><title>Node22</title>
<a xlink:href="classant_1_1_piecewise_interval.html" target="_top" xlink:title="ant::PiecewiseInterval\l\&lt; double \&gt;">
<polygon fill="white" stroke="black" points="818.5,-51 818.5,-85 931.5,-85 931.5,-51 818.5,-51"/>
<text text-anchor="start" x="826.5" y="-72" font-family="Helvetica,sans-Serif" font-size="10.00">ant::PiecewiseInterval</text>
<text text-anchor="middle" x="875" y="-59" font-family="Helvetica,sans-Serif" font-size="10.00">&lt; double &gt;</text>
</a>
</g>
<!-- Node22&#45;&gt;Node21 -->
<g id="edge44" class="edge"><title>Node22&#45;&gt;Node21</title>
<path fill="none" stroke="#9a32cd" stroke-dasharray="5,2" d="M941.64,-49.6185C977.591,-43.928 1020.51,-44.5263 1050,-69 1082.4,-95.8848 1040.56,-130.07 1068,-162 1070.89,-165.367 1074.25,-168.298 1077.91,-170.85"/>
<polygon fill="#9a32cd" stroke="#9a32cd" points="940.939,-46.188 931.701,-51.3757 942.158,-53.0811 940.939,-46.188"/>
<text text-anchor="middle" x="1011" y="-86" font-family="Helvetica,sans-Serif" font-size="10.00"> promptw</text>
<text text-anchor="middle" x="1011" y="-73" font-family="Helvetica,sans-Serif" font-size="10.00">randomw</text>
</g>
<!-- Node23&#45;&gt;Node22 -->
<g id="edge46" class="edge"><title>Node23&#45;&gt;Node22</title>
<path fill="none" stroke="midnightblue" d="M715.277,-73.7558C747.579,-72.5917 786.75,-71.1802 818.216,-70.0463"/>
<polygon fill="midnightblue" stroke="midnightblue" points="714.917,-70.2664 705.049,-74.1244 715.169,-77.2619 714.917,-70.2664"/>
</g>
<!-- Node24 -->
<g id="node48" class="node"><title>Node24</title>
<a xlink:href="classant_1_1analysis_1_1utils_1_1_trigger_simulation.html" target="_top" xlink:title="ant::analysis::utils\l::TriggerSimulation">
<polygon fill="white" stroke="black" points="1092,-119 1092,-153 1190,-153 1190,-119 1092,-119"/>
<text text-anchor="start" x="1100" y="-140" font-family="Helvetica,sans-Serif" font-size="10.00">ant::analysis::utils</text>
<text text-anchor="middle" x="1141" y="-127" font-family="Helvetica,sans-Serif" font-size="10.00">::TriggerSimulation</text>
</a>
</g>
<!-- Node24&#45;&gt;Node1 -->
<g id="edge50" class="edge"><title>Node24&#45;&gt;Node1</title>
<path fill="none" stroke="#9a32cd" stroke-dasharray="5,2" d="M1200.48,-149.161C1235.96,-157.014 1280.88,-166.952 1316.39,-174.809"/>
<polygon fill="#9a32cd" stroke="#9a32cd" points="1200.78,-145.644 1190.26,-146.901 1199.27,-152.479 1200.78,-145.644"/>
<text text-anchor="middle" x="1265" y="-173" font-family="Helvetica,sans-Serif" font-size="10.00"> triggersimu</text>
</g>
<!-- Node25 -->
<g id="node50" class="node"><title>Node25</title>
<a xlink:href="classant_1_1analysis_1_1_histogram_factory.html" target="_top" xlink:title="ant::analysis::Histogram\lFactory">
<polygon fill="white" stroke="black" points="1079.5,-67 1079.5,-101 1202.5,-101 1202.5,-67 1079.5,-67"/>
<text text-anchor="start" x="1087.5" y="-88" font-family="Helvetica,sans-Serif" font-size="10.00">ant::analysis::Histogram</text>
<text text-anchor="middle" x="1141" y="-75" font-family="Helvetica,sans-Serif" font-size="10.00">Factory</text>
</a>
</g>
<!-- Node25&#45;&gt;Node1 -->
<g id="edge52" class="edge"><title>Node25&#45;&gt;Node1</title>
<path fill="none" stroke="#9a32cd" stroke-dasharray="5,2" d="M1198.38,-104.433C1203.66,-106.315 1208.93,-108.192 1214,-110 1251.34,-123.317 1262.26,-122.852 1298,-140 1312.62,-147.016 1327.98,-156.061 1341.16,-164.404"/>
<polygon fill="#9a32cd" stroke="#9a32cd" points="1199.5,-101.116 1188.91,-101.057 1197.15,-107.71 1199.5,-101.116"/>
<text text-anchor="middle" x="1265" y="-144" font-family="Helvetica,sans-Serif" font-size="10.00"> HistFac</text>
</g>
<!-- Node26 -->
<g id="node52" class="node"><title>Node26</title>
<a xlink:href="structant_1_1analysis_1_1physics_1_1_p_i_d___t_a_p_s_veto___kinfit_1_1_multi_pi0_1_1_multi_pi0_tree.html" target="_top" xlink:title="ant::analysis::physics\l::PID_TAPSVeto_Kinfit\l::MultiPi0::MultiPi0Tree">
<polygon fill="white" stroke="black" points="1081.5,-0.5 1081.5,-47.5 1200.5,-47.5 1200.5,-0.5 1081.5,-0.5"/>
<text text-anchor="start" x="1089.5" y="-34.5" font-family="Helvetica,sans-Serif" font-size="10.00">ant::analysis::physics</text>
<text text-anchor="start" x="1089.5" y="-21.5" font-family="Helvetica,sans-Serif" font-size="10.00">::PID_TAPSVeto_Kinfit</text>
<text text-anchor="middle" x="1141" y="-8.5" font-family="Helvetica,sans-Serif" font-size="10.00">::MultiPi0::MultiPi0Tree</text>
</a>
</g>
<!-- Node26&#45;&gt;Node1 -->
<g id="edge54" class="edge"><title>Node26&#45;&gt;Node1</title>
<path fill="none" stroke="#9a32cd" stroke-dasharray="5,2" d="M1209.74,-49.9878C1238.55,-62.67 1271.45,-79.6198 1298,-100 1322.13,-118.52 1344.6,-145.293 1359.16,-164.437"/>
<polygon fill="#9a32cd" stroke="#9a32cd" points="1211.12,-46.768 1200.55,-46.0213 1208.34,-53.1956 1211.12,-46.768"/>
<text text-anchor="middle" x="1265" y="-104" font-family="Helvetica,sans-Serif" font-size="10.00"> t</text>
</g>
<!-- Node27 -->
<g id="node54" class="node"><title>Node27</title>
<a xlink:href="classant_1_1_wrap_t_tree.html" target="_top" xlink:title="The WrapTTree struct simplifies TTree handling in physics classes. ">
<polygon fill="white" stroke="black" points="832.5,-11.5 832.5,-32.5 917.5,-32.5 917.5,-11.5 832.5,-11.5"/>
<text text-anchor="middle" x="875" y="-19.5" font-family="Helvetica,sans-Serif" font-size="10.00">ant::WrapTTree</text>
</a>
</g>
<!-- Node27&#45;&gt;Node26 -->
<g id="edge56" class="edge"><title>Node27&#45;&gt;Node26</title>
<path fill="none" stroke="midnightblue" d="M927.978,-22.3983C972.134,-22.7303 1035.02,-23.2032 1081.02,-23.549"/>
<polygon fill="midnightblue" stroke="midnightblue" points="927.764,-18.8967 917.738,-22.3213 927.711,-25.8965 927.764,-18.8967"/>
</g>
</g>
</svg>
