<?xml version="1.0" encoding="UTF-8" standalone="no"?>
<!DOCTYPE svg PUBLIC "-//W3C//DTD SVG 1.1//EN"
 "http://www.w3.org/Graphics/SVG/1.1/DTD/svg11.dtd">
<!-- Generated by graphviz version 2.26.3 (20100126.1600)
 -->
<!-- Title: Hist_t&lt; Tree_t &gt;::Fill_t Pages: 1 -->
<svg width="126pt" height="188pt"
 viewBox="0.00 0.00 126.00 188.00" xmlns="http://www.w3.org/2000/svg" xmlns:xlink="http://www.w3.org/1999/xlink">
<g id="graph1" class="graph" transform="scale(1 1) rotate(0) translate(4 184)">
<title>Hist_t&lt; Tree_t &gt;::Fill_t</title>
<polygon fill="white" stroke="white" points="-4,5 -4,-184 123,-184 123,5 -4,5"/>
<!-- Node1 -->
<g id="node1" class="node"><title>Node1</title>
<polygon fill="#bfbfbf" stroke="black" points="1,-0.5 1,-21.5 117,-21.5 117,-0.5 1,-0.5"/>
<text text-anchor="middle" x="59" y="-8.5" font-family="Helvetica,sans-Serif" font-size="10.00">Hist_t&lt; Tree_t &gt;::Fill_t</text>
</g>
<!-- Node2 -->
<g id="node2" class="node"><title>Node2</title>
<a xlink:href="structant_1_1analysis_1_1physics_1_1_p_i_d_efficiency_check_1_1_tree__t.html" target="_top" xlink:title="ant::analysis::physics\l::PIDEfficiencyCheck::\lTree_t">
<polygon fill="white" stroke="black" points="0,-72.5 0,-119.5 118,-119.5 118,-72.5 0,-72.5"/>
<text text-anchor="start" x="8" y="-106.5" font-family="Helvetica,sans-Serif" font-size="10.00">ant::analysis::physics</text>
<text text-anchor="start" x="8" y="-93.5" font-family="Helvetica,sans-Serif" font-size="10.00">::PIDEfficiencyCheck::</text>
<text text-anchor="middle" x="59" y="-80.5" font-family="Helvetica,sans-Serif" font-size="10.00">Tree_t</text>
</a>
</g>
<!-- Node2&#45;&gt;Node1 -->
<g id="edge2" class="edge"><title>Node2&#45;&gt;Node1</title>
<path fill="none" stroke="#9a32cd" stroke-dasharray="5,2" d="M59,-62.2079C59,-47.8439 59,-32.0932 59,-21.9057"/>
<polygon fill="#9a32cd" stroke="#9a32cd" points="55.5001,-62.3227 59,-72.3228 62.5001,-62.3228 55.5001,-62.3227"/>
<text text-anchor="middle" x="70.5" y="-44.5" font-family="Helvetica,sans-Serif" font-size="10.00"> Tree</text>
</g>
<!-- Node3 -->
<g id="node4" class="node"><title>Node3</title>
<a xlink:href="classant_1_1_wrap_t_tree.html" target="_top" xlink:title="The WrapTTree struct simplifies TTree handling in physics classes. ">
<polygon fill="white" stroke="black" points="16.5,-158.5 16.5,-179.5 101.5,-179.5 101.5,-158.5 16.5,-158.5"/>
<text text-anchor="middle" x="59" y="-166.5" font-family="Helvetica,sans-Serif" font-size="10.00">ant::WrapTTree</text>
</a>
</g>
<!-- Node3&#45;&gt;Node2 -->
<g id="edge4" class="edge"><title>Node3&#45;&gt;Node2</title>
<path fill="none" stroke="midnightblue" d="M59,-148.053C59,-139.23 59,-128.915 59,-119.805"/>
<polygon fill="midnightblue" stroke="midnightblue" points="55.5001,-148.229 59,-158.229 62.5001,-148.229 55.5001,-148.229"/>
</g>
</g>
</svg>
