<?xml version="1.0" encoding="UTF-8" standalone="no"?>
<!DOCTYPE svg PUBLIC "-//W3C//DTD SVG 1.1//EN"
 "http://www.w3.org/Graphics/SVG/1.1/DTD/svg11.dtd">
<!-- Generated by graphviz version 2.26.3 (20100126.1600)
 -->
<!-- Title: ant::TParticle Pages: 1 -->
<svg width="584pt" height="167pt"
 viewBox="0.00 0.00 584.00 167.00" xmlns="http://www.w3.org/2000/svg" xmlns:xlink="http://www.w3.org/1999/xlink">
<g id="graph1" class="graph" transform="scale(1 1) rotate(0) translate(4 163)">
<title>ant::TParticle</title>
<polygon fill="white" stroke="white" points="-4,5 -4,-163 581,-163 581,5 -4,5"/>
<!-- Node2 -->
<g id="node1" class="node"><title>Node2</title>
<polygon fill="#bfbfbf" stroke="black" points="500.5,-58.5 500.5,-79.5 575.5,-79.5 575.5,-58.5 500.5,-58.5"/>
<text text-anchor="middle" x="538" y="-66.5" font-family="Helvetica,sans-Serif" font-size="10.00">ant::TParticle</text>
</g>
<!-- Node3 -->
<g id="node2" class="node"><title>Node3</title>
<a xlink:href="structant_1_1_lorentz_vec.html" target="_top" xlink:title="A Lorentz vector (x,y,z,E), diag(&#45;1,&#45;1,&#45;1, 1) ">
<polygon fill="white" stroke="black" points="306,-135.5 306,-156.5 392,-156.5 392,-135.5 306,-135.5"/>
<text text-anchor="middle" x="349" y="-143.5" font-family="Helvetica,sans-Serif" font-size="10.00">ant::LorentzVec</text>
</a>
</g>
<!-- Node3&#45;&gt;Node2 -->
<g id="edge2" class="edge"><title>Node3&#45;&gt;Node2</title>
<path fill="none" stroke="midnightblue" d="M397.647,-132.399C403.871,-130.39 410.118,-128.238 416,-126 452.708,-112.033 493.778,-91.8496 517.676,-79.6242"/>
<polygon fill="midnightblue" stroke="midnightblue" points="396.445,-129.107 387.943,-135.429 398.531,-135.789 396.445,-129.107"/>
</g>
<!-- Node4 -->
<g id="node4" class="node"><title>Node4</title>
<a xlink:href="structant_1_1vec3.html" target="_top" xlink:title="ant::vec3">
<polygon fill="white" stroke="black" points="135.5,-135.5 135.5,-156.5 192.5,-156.5 192.5,-135.5 135.5,-135.5"/>
<text text-anchor="middle" x="164" y="-143.5" font-family="Helvetica,sans-Serif" font-size="10.00">ant::vec3</text>
</a>
</g>
<!-- Node4&#45;&gt;Node3 -->
<g id="edge4" class="edge"><title>Node4&#45;&gt;Node3</title>
<path fill="none" stroke="#9a32cd" stroke-dasharray="5,2" d="M202.617,-146C232.696,-146 274.446,-146 305.664,-146"/>
<polygon fill="#9a32cd" stroke="#9a32cd" points="202.501,-142.5 192.501,-146 202.501,-149.5 202.501,-142.5"/>
<text text-anchor="middle" x="238" y="-150" font-family="Helvetica,sans-Serif" font-size="10.00"> p</text>
</g>
<!-- Node5 -->
<g id="node6" class="node"><title>Node5</title>
<a xlink:href="classant_1_1_particle_type_database_1_1_type.html" target="_top" xlink:title="ant::ParticleTypeDatabase\l::Type">
<polygon fill="white" stroke="black" points="282.5,-52 282.5,-86 415.5,-86 415.5,-52 282.5,-52"/>
<text text-anchor="start" x="290.5" y="-73" font-family="Helvetica,sans-Serif" font-size="10.00">ant::ParticleTypeDatabase</text>
<text text-anchor="middle" x="349" y="-60" font-family="Helvetica,sans-Serif" font-size="10.00">::Type</text>
</a>
</g>
<!-- Node5&#45;&gt;Node2 -->
<g id="edge6" class="edge"><title>Node5&#45;&gt;Node2</title>
<path fill="none" stroke="#9a32cd" stroke-dasharray="5,2" d="M425.743,-69C451.416,-69 478.902,-69 500.251,-69"/>
<polygon fill="#9a32cd" stroke="#9a32cd" points="425.634,-65.5001 415.634,-69 425.634,-72.5001 425.634,-65.5001"/>
<text text-anchor="middle" x="458" y="-73" font-family="Helvetica,sans-Serif" font-size="10.00"> type</text>
</g>
<!-- Node5&#45;&gt;Node5 -->
<g id="edge12" class="edge"><title>Node5&#45;&gt;Node5</title>
<path fill="none" stroke="#9a32cd" stroke-dasharray="5,2" d="M330.192,-96.3176C332.833,-100.864 339.102,-104 349,-104 365.242,-104 371.714,-95.5562 368.414,-86.2878"/>
<polygon fill="#9a32cd" stroke="#9a32cd" points="333.683,-96.0583 329.586,-86.2878 326.696,-96.4808 333.683,-96.0583"/>
<text text-anchor="middle" x="349" y="-108" font-family="Helvetica,sans-Serif" font-size="10.00"> sametype</text>
</g>
<!-- Node6 -->
<g id="node8" class="node"><title>Node6</title>
<a xlink:title="STL class. ">
<polygon fill="white" stroke="#bfbfbf" points="134,-58.5 134,-79.5 194,-79.5 194,-58.5 134,-58.5"/>
<text text-anchor="middle" x="164" y="-66.5" font-family="Helvetica,sans-Serif" font-size="10.00">std::string</text>
</a>
</g>
<!-- Node6&#45;&gt;Node5 -->
<g id="edge8" class="edge"><title>Node6&#45;&gt;Node5</title>
<path fill="none" stroke="#9a32cd" stroke-dasharray="5,2" d="M204.155,-69C227.009,-69 256.218,-69 282.412,-69"/>
<polygon fill="#9a32cd" stroke="#9a32cd" points="204.135,-65.5001 194.135,-69 204.135,-72.5001 204.135,-65.5001"/>
<text text-anchor="middle" x="238" y="-86" font-family="Helvetica,sans-Serif" font-size="10.00"> print_name</text>
<text text-anchor="middle" x="238" y="-73" font-family="Helvetica,sans-Serif" font-size="10.00">name</text>
</g>
<!-- Node7 -->
<g id="node10" class="node"><title>Node7</title>
<a xlink:title="STL class. ">
<polygon fill="white" stroke="#bfbfbf" points="0.5,-52 0.5,-86 95.5,-86 95.5,-52 0.5,-52"/>
<text text-anchor="start" x="8.5" y="-73" font-family="Helvetica,sans-Serif" font-size="10.00">std::basic_string&lt;</text>
<text text-anchor="middle" x="48" y="-60" font-family="Helvetica,sans-Serif" font-size="10.00"> char &gt;</text>
</a>
</g>
<!-- Node7&#45;&gt;Node6 -->
<g id="edge10" class="edge"><title>Node7&#45;&gt;Node6</title>
<path fill="none" stroke="midnightblue" d="M105.582,-69C115.29,-69 125.014,-69 133.666,-69"/>
<polygon fill="midnightblue" stroke="midnightblue" points="105.516,-65.5001 95.5163,-69 105.516,-72.5001 105.516,-65.5001"/>
</g>
<!-- Node8 -->
<g id="node13" class="node"><title>Node8</title>
<a xlink:href="structant_1_1std__ext_1_1cc__shared__ptr.html" target="_top" xlink:title="ant::std_ext::cc_shared\l_ptr\&lt; TCandidate \&gt;">
<polygon fill="white" stroke="black" points="289.5,-0 289.5,-34 408.5,-34 408.5,-0 289.5,-0"/>
<text text-anchor="start" x="297.5" y="-21" font-family="Helvetica,sans-Serif" font-size="10.00">ant::std_ext::cc_shared</text>
<text text-anchor="middle" x="349" y="-8" font-family="Helvetica,sans-Serif" font-size="10.00">_ptr&lt; TCandidate &gt;</text>
</a>
</g>
<!-- Node8&#45;&gt;Node2 -->
<g id="edge14" class="edge"><title>Node8&#45;&gt;Node2</title>
<path fill="none" stroke="#9a32cd" stroke-dasharray="5,2" d="M418.592,-34.7893C439.062,-40.1633 461.468,-46.1842 482,-52 489.136,-54.0214 496.756,-56.2723 504.004,-58.4575"/>
<polygon fill="#9a32cd" stroke="#9a32cd" points="419.276,-31.3505 408.716,-32.2068 417.505,-38.1228 419.276,-31.3505"/>
<text text-anchor="middle" x="458" y="-56" font-family="Helvetica,sans-Serif" font-size="10.00"> Candidate</text>
</g>
</g>
</svg>
