<?xml version="1.0" encoding="UTF-8" standalone="no"?>
<!DOCTYPE svg PUBLIC "-//W3C//DTD SVG 1.1//EN"
 "http://www.w3.org/Graphics/SVG/1.1/DTD/svg11.dtd">
<!-- Generated by graphviz version 2.26.3 (20100126.1600)
 -->
<!-- Title: ant::analysis::utils::UncertaintyModels::Optimized Pages: 1 -->
<svg width="444pt" height="140pt"
 viewBox="0.00 0.00 444.00 140.00" xmlns="http://www.w3.org/2000/svg" xmlns:xlink="http://www.w3.org/1999/xlink">
<g id="graph1" class="graph" transform="scale(1 1) rotate(0) translate(4 136)">
<title>ant::analysis::utils::UncertaintyModels::Optimized</title>
<polygon fill="white" stroke="white" points="-4,5 -4,-136 441,-136 441,5 -4,5"/>
<!-- Node3 -->
<g id="node1" class="node"><title>Node3</title>
<polygon fill="#bfbfbf" stroke="black" points="326,-39.5 326,-86.5 436,-86.5 436,-39.5 326,-39.5"/>
<text text-anchor="start" x="334" y="-73.5" font-family="Helvetica,sans-Serif" font-size="10.00">ant::analysis::utils</text>
<text text-anchor="start" x="334" y="-60.5" font-family="Helvetica,sans-Serif" font-size="10.00">::UncertaintyModels::</text>
<text text-anchor="middle" x="381" y="-47.5" font-family="Helvetica,sans-Serif" font-size="10.00">Optimized</text>
</g>
<!-- Node4 -->
<g id="node2" class="node"><title>Node4</title>
<a xlink:href="classant_1_1analysis_1_1utils_1_1_uncertainty_model.html" target="_top" xlink:title="Virtual base class for different Uncertainty Models for fitter. Implement at least the GetSigmas() me...">
<polygon fill="white" stroke="black" points="134.5,-98 134.5,-132 233.5,-132 233.5,-98 134.5,-98"/>
<text text-anchor="start" x="142.5" y="-119" font-family="Helvetica,sans-Serif" font-size="10.00">ant::analysis::utils</text>
<text text-anchor="middle" x="184" y="-106" font-family="Helvetica,sans-Serif" font-size="10.00">::UncertaintyModel</text>
</a>
</g>
<!-- Node4&#45;&gt;Node3 -->
<g id="edge2" class="edge"><title>Node4&#45;&gt;Node3</title>
<path fill="none" stroke="midnightblue" d="M243.634,-107.077C264.243,-103.641 287.34,-99.0024 308,-93 314.316,-91.165 320.83,-88.9634 327.245,-86.5973"/>
<polygon fill="midnightblue" stroke="midnightblue" points="243.056,-103.625 233.738,-108.668 244.167,-110.536 243.056,-103.625"/>
</g>
<!-- Node5 -->
<g id="node4" class="node"><title>Node5</title>
<a xlink:href="structant_1_1analysis_1_1utils_1_1_uncertainties__t.html" target="_top" xlink:title="Uncertainties for E, theta, and phi and some CB/TAPS specific values. ">
<polygon fill="white" stroke="black" points="136,-46 136,-80 232,-80 232,-46 136,-46"/>
<text text-anchor="start" x="144" y="-67" font-family="Helvetica,sans-Serif" font-size="10.00">ant::analysis::utils</text>
<text text-anchor="middle" x="184" y="-54" font-family="Helvetica,sans-Serif" font-size="10.00">::Uncertainties_t</text>
</a>
</g>
<!-- Node5&#45;&gt;Node3 -->
<g id="edge4" class="edge"><title>Node5&#45;&gt;Node3</title>
<path fill="none" stroke="#9a32cd" stroke-dasharray="5,2" d="M242.454,-63C268.896,-63 299.98,-63 325.997,-63"/>
<polygon fill="#9a32cd" stroke="#9a32cd" points="242.192,-59.5001 232.192,-63 242.192,-66.5001 242.192,-59.5001"/>
<text text-anchor="middle" x="280" y="-80" font-family="Helvetica,sans-Serif" font-size="10.00"> taps_proton</text>
<text text-anchor="middle" x="280" y="-67" font-family="Helvetica,sans-Serif" font-size="10.00">cb_proton</text>
</g>
<!-- Node6 -->
<g id="node6" class="node"><title>Node6</title>
<a xlink:title="STL class. ">
<polygon fill="white" stroke="#bfbfbf" points="154,-6.5 154,-27.5 214,-27.5 214,-6.5 154,-6.5"/>
<text text-anchor="middle" x="184" y="-14.5" font-family="Helvetica,sans-Serif" font-size="10.00">std::string</text>
</a>
</g>
<!-- Node6&#45;&gt;Node3 -->
<g id="edge6" class="edge"><title>Node6&#45;&gt;Node3</title>
<path fill="none" stroke="#9a32cd" stroke-dasharray="5,2" d="M224.213,-26.3898C253.444,-33.2154 293.372,-42.5387 325.619,-50.0683"/>
<polygon fill="#9a32cd" stroke="#9a32cd" points="224.883,-22.9523 214.35,-24.0867 223.292,-29.7689 224.883,-22.9523"/>
<text text-anchor="middle" x="280" y="-49" font-family="Helvetica,sans-Serif" font-size="10.00"> separator</text>
</g>
<!-- Node7 -->
<g id="node8" class="node"><title>Node7</title>
<a xlink:title="STL class. ">
<polygon fill="white" stroke="#bfbfbf" points="0.5,-0 0.5,-34 95.5,-34 95.5,-0 0.5,-0"/>
<text text-anchor="start" x="8.5" y="-21" font-family="Helvetica,sans-Serif" font-size="10.00">std::basic_string&lt;</text>
<text text-anchor="middle" x="48" y="-8" font-family="Helvetica,sans-Serif" font-size="10.00"> char &gt;</text>
</a>
</g>
<!-- Node7&#45;&gt;Node6 -->
<g id="edge8" class="edge"><title>Node7&#45;&gt;Node6</title>
<path fill="none" stroke="midnightblue" d="M105.698,-17C122.2,-17 139.53,-17 153.68,-17"/>
<polygon fill="midnightblue" stroke="midnightblue" points="105.566,-13.5001 95.5662,-17 105.566,-20.5001 105.566,-13.5001"/>
</g>
</g>
</svg>
