<?xml version="1.0" encoding="UTF-8" standalone="no"?>
<!DOCTYPE svg PUBLIC "-//W3C//DTD SVG 1.1//EN"
 "http://www.w3.org/Graphics/SVG/1.1/DTD/svg11.dtd">
<!-- Generated by graphviz version 2.26.3 (20100126.1600)
 -->
<!-- Title: ant::analysis::utils::TreeFitter::node_t Pages: 1 -->
<svg width="108pt" height="188pt"
 viewBox="0.00 0.00 108.00 188.00" xmlns="http://www.w3.org/2000/svg" xmlns:xlink="http://www.w3.org/1999/xlink">
<g id="graph1" class="graph" transform="scale(1 1) rotate(0) translate(4 184)">
<title>ant::analysis::utils::TreeFitter::node_t</title>
<polygon fill="white" stroke="white" points="-4,5 -4,-184 105,-184 105,5 -4,5"/>
<!-- Node1 -->
<g id="node1" class="node"><title>Node1</title>
<polygon fill="#bfbfbf" stroke="black" points="0,-1 0,-35 100,-35 100,-1 0,-1"/>
<text text-anchor="start" x="8" y="-22" font-family="Helvetica,sans-Serif" font-size="10.00">ant::analysis::utils</text>
<text text-anchor="middle" x="50" y="-9" font-family="Helvetica,sans-Serif" font-size="10.00">::TreeFitter::node_t</text>
</g>
<!-- Node2 -->
<g id="node2" class="node"><title>Node2</title>
<a xlink:href="structant_1_1_lorentz_vec.html" target="_top" xlink:title="A Lorentz vector (x,y,z,E), diag(&#45;1,&#45;1,&#45;1, 1) ">
<polygon fill="white" stroke="black" points="7,-86.5 7,-107.5 93,-107.5 93,-86.5 7,-86.5"/>
<text text-anchor="middle" x="50" y="-94.5" font-family="Helvetica,sans-Serif" font-size="10.00">ant::LorentzVec</text>
</a>
</g>
<!-- Node2&#45;&gt;Node1 -->
<g id="edge2" class="edge"><title>Node2&#45;&gt;Node1</title>
<path fill="none" stroke="#9a32cd" stroke-dasharray="5,2" d="M50,-76.1618C50,-63.3635 50,-47.1713 50,-35.1236"/>
<polygon fill="#9a32cd" stroke="#9a32cd" points="46.5001,-76.3457 50,-86.3457 53.5001,-76.3457 46.5001,-76.3457"/>
<text text-anchor="middle" x="68" y="-58.5" font-family="Helvetica,sans-Serif" font-size="10.00"> LVSum</text>
</g>
<!-- Node3 -->
<g id="node4" class="node"><title>Node3</title>
<a xlink:href="structant_1_1vec3.html" target="_top" xlink:title="ant::vec3">
<polygon fill="white" stroke="black" points="21.5,-158.5 21.5,-179.5 78.5,-179.5 78.5,-158.5 21.5,-158.5"/>
<text text-anchor="middle" x="50" y="-166.5" font-family="Helvetica,sans-Serif" font-size="10.00">ant::vec3</text>
</a>
</g>
<!-- Node3&#45;&gt;Node2 -->
<g id="edge4" class="edge"><title>Node3&#45;&gt;Node2</title>
<path fill="none" stroke="#9a32cd" stroke-dasharray="5,2" d="M50,-148.235C50,-134.969 50,-118.319 50,-107.667"/>
<polygon fill="#9a32cd" stroke="#9a32cd" points="46.5001,-148.376 50,-158.376 53.5001,-148.376 46.5001,-148.376"/>
<text text-anchor="middle" x="54.5" y="-130.5" font-family="Helvetica,sans-Serif" font-size="10.00"> p</text>
</g>
</g>
</svg>
