<?xml version="1.0" encoding="UTF-8" standalone="no"?>
<!DOCTYPE svg PUBLIC "-//W3C//DTD SVG 1.1//EN"
 "http://www.w3.org/Graphics/SVG/1.1/DTD/svg11.dtd">
<!-- Generated by graphviz version 2.26.3 (20100126.1600)
 -->
<!-- Title: RefHist_t::Fill_t Pages: 1 -->
<svg width="672pt" height="302pt"
 viewBox="0.00 0.00 672.00 302.00" xmlns="http://www.w3.org/2000/svg" xmlns:xlink="http://www.w3.org/1999/xlink">
<g id="graph1" class="graph" transform="scale(1 1) rotate(0) translate(4 298)">
<title>RefHist_t::Fill_t</title>
<polygon fill="white" stroke="white" points="-4,5 -4,-298 669,-298 669,5 -4,5"/>
<!-- Node2 -->
<g id="node1" class="node"><title>Node2</title>
<polygon fill="#bfbfbf" stroke="black" points="578,-150.5 578,-171.5 664,-171.5 664,-150.5 578,-150.5"/>
<text text-anchor="middle" x="621" y="-158.5" font-family="Helvetica,sans-Serif" font-size="10.00">RefHist_t::Fill_t</text>
</g>
<!-- Node3 -->
<g id="node2" class="node"><title>Node3</title>
<a xlink:href="struct_common_hist__t_1_1_fill__t.html" target="_top" xlink:title="CommonHist_t::Fill_t">
<polygon fill="white" stroke="black" points="404,-188.5 404,-209.5 514,-209.5 514,-188.5 404,-188.5"/>
<text text-anchor="middle" x="459" y="-196.5" font-family="Helvetica,sans-Serif" font-size="10.00">CommonHist_t::Fill_t</text>
</a>
</g>
<!-- Node3&#45;&gt;Node2 -->
<g id="edge2" class="edge"><title>Node3&#45;&gt;Node2</title>
<path fill="none" stroke="midnightblue" d="M514.102,-186.075C534.897,-181.197 558.237,-175.722 577.79,-171.136"/>
<polygon fill="midnightblue" stroke="midnightblue" points="513.062,-182.724 504.126,-188.415 514.661,-189.539 513.062,-182.724"/>
</g>
<!-- Node4 -->
<g id="node4" class="node"><title>Node4</title>
<a xlink:href="structant_1_1analysis_1_1physics_1_1_etap_omega_g_1_1_proton_photon_tree__t.html" target="_top" xlink:title="ant::analysis::physics\l::EtapOmegaG::ProtonPhotonTree_t">
<polygon fill="white" stroke="black" points="124.5,-260 124.5,-294 299.5,-294 299.5,-260 124.5,-260"/>
<text text-anchor="start" x="132.5" y="-281" font-family="Helvetica,sans-Serif" font-size="10.00">ant::analysis::physics</text>
<text text-anchor="middle" x="212" y="-268" font-family="Helvetica,sans-Serif" font-size="10.00">::EtapOmegaG::ProtonPhotonTree_t</text>
</a>
</g>
<!-- Node4&#45;&gt;Node3 -->
<g id="edge4" class="edge"><title>Node4&#45;&gt;Node3</title>
<path fill="none" stroke="#9a32cd" stroke-dasharray="5,2" d="M290.063,-257.402C319.143,-249.583 352.292,-240.051 382,-230 399.882,-223.95 419.626,-215.974 434.644,-209.628"/>
<polygon fill="#9a32cd" stroke="#9a32cd" points="289.129,-254.029 280.368,-259.986 290.932,-260.792 289.129,-254.029"/>
<text text-anchor="middle" x="350" y="-252" font-family="Helvetica,sans-Serif" font-size="10.00"> ProtonPhoton</text>
</g>
<!-- Node5 -->
<g id="node6" class="node"><title>Node5</title>
<a xlink:href="classant_1_1_wrap_t_tree.html" target="_top" xlink:title="The WrapTTree struct simplifies TTree handling in physics classes. ">
<polygon fill="white" stroke="black" points="0.5,-136.5 0.5,-157.5 85.5,-157.5 85.5,-136.5 0.5,-136.5"/>
<text text-anchor="middle" x="43" y="-144.5" font-family="Helvetica,sans-Serif" font-size="10.00">ant::WrapTTree</text>
</a>
</g>
<!-- Node5&#45;&gt;Node4 -->
<g id="edge6" class="edge"><title>Node5&#45;&gt;Node4</title>
<path fill="none" stroke="midnightblue" d="M53.251,-166.648C66.4949,-190.133 91.7317,-229.01 124,-251 129.002,-254.409 134.459,-257.379 140.124,-259.965"/>
<polygon fill="midnightblue" stroke="midnightblue" points="56.1865,-164.721 48.3237,-157.62 50.042,-168.075 56.1865,-164.721"/>
</g>
<!-- Node6 -->
<g id="node8" class="node"><title>Node6</title>
<a xlink:href="structant_1_1analysis_1_1utils_1_1_m_c_weighting_1_1tree__t.html" target="_top" xlink:title="ant::analysis::utils\l::MCWeighting::tree_t">
<polygon fill="white" stroke="black" points="155.5,-208 155.5,-242 268.5,-242 268.5,-208 155.5,-208"/>
<text text-anchor="start" x="163.5" y="-229" font-family="Helvetica,sans-Serif" font-size="10.00">ant::analysis::utils</text>
<text text-anchor="middle" x="212" y="-216" font-family="Helvetica,sans-Serif" font-size="10.00">::MCWeighting::tree_t</text>
</a>
</g>
<!-- Node5&#45;&gt;Node6 -->
<g id="edge10" class="edge"><title>Node5&#45;&gt;Node6</title>
<path fill="none" stroke="midnightblue" d="M65.4207,-163.862C81.1517,-175.061 103.039,-189.412 124,-199 133.851,-203.506 144.678,-207.453 155.267,-210.819"/>
<polygon fill="midnightblue" stroke="midnightblue" points="67.0719,-160.736 56.9235,-157.693 62.9592,-166.4 67.0719,-160.736"/>
</g>
<!-- Node7 -->
<g id="node11" class="node"><title>Node7</title>
<a xlink:href="structant_1_1analysis_1_1physics_1_1_etap_omega_g_1_1_tree_common.html" target="_top" xlink:title="ant::analysis::physics\l::EtapOmegaG::TreeCommon">
<polygon fill="white" stroke="black" points="138.5,-156 138.5,-190 285.5,-190 285.5,-156 138.5,-156"/>
<text text-anchor="start" x="146.5" y="-177" font-family="Helvetica,sans-Serif" font-size="10.00">ant::analysis::physics</text>
<text text-anchor="middle" x="212" y="-164" font-family="Helvetica,sans-Serif" font-size="10.00">::EtapOmegaG::TreeCommon</text>
</a>
</g>
<!-- Node5&#45;&gt;Node7 -->
<g id="edge14" class="edge"><title>Node5&#45;&gt;Node7</title>
<path fill="none" stroke="midnightblue" d="M95.7228,-155.111C109.262,-157.194 124.075,-159.473 138.458,-161.686"/>
<polygon fill="midnightblue" stroke="midnightblue" points="96.0618,-151.622 85.6458,-153.561 94.9973,-158.541 96.0618,-151.622"/>
</g>
<!-- Node9 -->
<g id="node16" class="node"><title>Node9</title>
<a xlink:href="structant_1_1analysis_1_1physics_1_1_etap_dalitz_1_1common__tree.html" target="_top" xlink:title="ant::analysis::physics\l::EtapDalitz::common_tree">
<polygon fill="white" stroke="black" points="145,-104 145,-138 279,-138 279,-104 145,-104"/>
<text text-anchor="start" x="153" y="-125" font-family="Helvetica,sans-Serif" font-size="10.00">ant::analysis::physics</text>
<text text-anchor="middle" x="212" y="-112" font-family="Helvetica,sans-Serif" font-size="10.00">::EtapDalitz::common_tree</text>
</a>
</g>
<!-- Node5&#45;&gt;Node9 -->
<g id="edge20" class="edge"><title>Node5&#45;&gt;Node9</title>
<path fill="none" stroke="midnightblue" d="M95.5893,-138.909C111.132,-136.518 128.363,-133.867 144.698,-131.354"/>
<polygon fill="midnightblue" stroke="midnightblue" points="94.9973,-135.459 85.6458,-140.439 96.0618,-142.378 94.9973,-135.459"/>
</g>
<!-- Node10 -->
<g id="node19" class="node"><title>Node10</title>
<a xlink:href="structant_1_1analysis_1_1physics_1_1_etap_dalitz_1_1proton__tree.html" target="_top" xlink:title="ant::analysis::physics\l::EtapDalitz::proton_tree">
<polygon fill="white" stroke="black" points="150.5,-52 150.5,-86 273.5,-86 273.5,-52 150.5,-52"/>
<text text-anchor="start" x="158.5" y="-73" font-family="Helvetica,sans-Serif" font-size="10.00">ant::analysis::physics</text>
<text text-anchor="middle" x="212" y="-60" font-family="Helvetica,sans-Serif" font-size="10.00">::EtapDalitz::proton_tree</text>
</a>
</g>
<!-- Node5&#45;&gt;Node10 -->
<g id="edge24" class="edge"><title>Node5&#45;&gt;Node10</title>
<path fill="none" stroke="midnightblue" d="M65.4207,-130.138C81.1517,-118.939 103.039,-104.588 124,-95 132.258,-91.2229 141.201,-87.8388 150.115,-84.86"/>
<polygon fill="midnightblue" stroke="midnightblue" points="62.9592,-127.6 56.9235,-136.307 67.0719,-133.264 62.9592,-127.6"/>
</g>
<!-- Node11 -->
<g id="node22" class="node"><title>Node11</title>
<a xlink:href="structant_1_1analysis_1_1physics_1_1_etap_dalitz_1_1fit__tree.html" target="_top" xlink:title="ant::analysis::physics\l::EtapDalitz::fit_tree">
<polygon fill="white" stroke="black" points="156,-0 156,-34 268,-34 268,-0 156,-0"/>
<text text-anchor="start" x="164" y="-21" font-family="Helvetica,sans-Serif" font-size="10.00">ant::analysis::physics</text>
<text text-anchor="middle" x="212" y="-8" font-family="Helvetica,sans-Serif" font-size="10.00">::EtapDalitz::fit_tree</text>
</a>
</g>
<!-- Node5&#45;&gt;Node11 -->
<g id="edge28" class="edge"><title>Node5&#45;&gt;Node11</title>
<path fill="none" stroke="midnightblue" d="M53.251,-127.352C66.4949,-103.867 91.7317,-64.9901 124,-43 133.478,-36.5407 144.586,-31.6581 155.657,-27.9763"/>
<polygon fill="midnightblue" stroke="midnightblue" points="50.042,-125.925 48.3237,-136.38 56.1865,-129.279 50.042,-125.925"/>
</g>
<!-- Node6&#45;&gt;Node3 -->
<g id="edge8" class="edge"><title>Node6&#45;&gt;Node3</title>
<path fill="none" stroke="#9a32cd" stroke-dasharray="5,2" d="M278.669,-217.982C317.877,-213.855 366.857,-208.699 403.872,-204.803"/>
<polygon fill="#9a32cd" stroke="#9a32cd" points="278.245,-214.507 268.667,-219.035 278.978,-221.469 278.245,-214.507"/>
<text text-anchor="middle" x="350" y="-217" font-family="Helvetica,sans-Serif" font-size="10.00"> MCWeighting</text>
</g>
<!-- Node7&#45;&gt;Node3 -->
<g id="edge12" class="edge"><title>Node7&#45;&gt;Node3</title>
<path fill="none" stroke="#9a32cd" stroke-dasharray="5,2" d="M295.645,-181.084C323.162,-183.819 353.899,-186.953 382,-190 389.092,-190.769 396.547,-191.605 403.912,-192.448"/>
<polygon fill="#9a32cd" stroke="#9a32cd" points="295.96,-177.599 285.664,-180.096 295.271,-184.564 295.96,-177.599"/>
<text text-anchor="middle" x="350" y="-194" font-family="Helvetica,sans-Serif" font-size="10.00"> Common</text>
</g>
<!-- Node8 -->
<g id="node14" class="node"><title>Node8</title>
<a xlink:href="structant_1_1analysis_1_1physics_1_1_etap_dalitz_1_1_ref_tree__t.html" target="_top" xlink:title="ant::analysis::physics\l::EtapDalitz::RefTree_t">
<polygon fill="white" stroke="black" points="400,-71 400,-105 518,-105 518,-71 400,-71"/>
<text text-anchor="start" x="408" y="-92" font-family="Helvetica,sans-Serif" font-size="10.00">ant::analysis::physics</text>
<text text-anchor="middle" x="459" y="-79" font-family="Helvetica,sans-Serif" font-size="10.00">::EtapDalitz::RefTree_t</text>
</a>
</g>
<!-- Node8&#45;&gt;Node2 -->
<g id="edge16" class="edge"><title>Node8&#45;&gt;Node2</title>
<path fill="none" stroke="#9a32cd" stroke-dasharray="5,2" d="M506.391,-109.355C536.257,-122.813 573.532,-139.61 597.306,-150.323"/>
<polygon fill="#9a32cd" stroke="#9a32cd" points="507.537,-106.033 496.982,-105.115 504.661,-112.415 507.537,-106.033"/>
<text text-anchor="middle" x="548" y="-137" font-family="Helvetica,sans-Serif" font-size="10.00"> Tree</text>
</g>
<!-- Node9&#45;&gt;Node8 -->
<g id="edge18" class="edge"><title>Node9&#45;&gt;Node8</title>
<path fill="none" stroke="midnightblue" d="M289.535,-110.641C325.177,-105.879 366.778,-100.321 399.842,-95.9037"/>
<polygon fill="midnightblue" stroke="midnightblue" points="288.616,-107.233 279.168,-112.026 289.543,-114.171 288.616,-107.233"/>
</g>
<!-- Node10&#45;&gt;Node8 -->
<g id="edge22" class="edge"><title>Node10&#45;&gt;Node8</title>
<path fill="none" stroke="midnightblue" d="M283.864,-74.528C320.683,-77.3602 364.969,-80.7668 399.796,-83.4458"/>
<polygon fill="midnightblue" stroke="midnightblue" points="283.93,-71.0229 273.691,-73.7455 283.393,-78.0022 283.93,-71.0229"/>
</g>
<!-- Node11&#45;&gt;Node8 -->
<g id="edge26" class="edge"><title>Node11&#45;&gt;Node8</title>
<path fill="none" stroke="midnightblue" d="M277.967,-35.9621C315.849,-46.8513 363.031,-60.4138 399.729,-70.9627"/>
<polygon fill="midnightblue" stroke="midnightblue" points="278.626,-32.5099 268.048,-33.111 276.692,-39.2375 278.626,-32.5099"/>
</g>
</g>
</svg>
