<?xml version="1.0" encoding="UTF-8" standalone="no"?>
<!DOCTYPE svg PUBLIC "-//W3C//DTD SVG 1.1//EN"
 "http://www.w3.org/Graphics/SVG/1.1/DTD/svg11.dtd">
<!-- Generated by graphviz version 2.26.3 (20100126.1600)
 -->
<!-- Title: ant::ReconstructHook::Base Pages: 1 -->
<svg width="648pt" height="597pt"
 viewBox="0.00 0.00 648.00 597.00" xmlns="http://www.w3.org/2000/svg" xmlns:xlink="http://www.w3.org/1999/xlink">
<g id="graph1" class="graph" transform="scale(1 1) rotate(0) translate(4 593)">
<title>ant::ReconstructHook::Base</title>
<polygon fill="white" stroke="white" points="-4,5 -4,-593 645,-593 645,5 -4,5"/>
<!-- Node0 -->
<g id="node1" class="node"><title>Node0</title>
<polygon fill="#bfbfbf" stroke="black" points="0.5,-370 0.5,-404 113.5,-404 113.5,-370 0.5,-370"/>
<text text-anchor="start" x="8.5" y="-391" font-family="Helvetica,sans-Serif" font-size="10.00">ant::ReconstructHook</text>
<text text-anchor="middle" x="57" y="-378" font-family="Helvetica,sans-Serif" font-size="10.00">::Base</text>
</g>
<!-- Node1 -->
<g id="node3" class="node"><title>Node1</title>
<a xlink:href="structant_1_1_reconstruct_hook_1_1_cluster_hits.html" target="_top" xlink:title="The ClusterHits struct instances are applied before clustering and after hit matching. ">
<polygon fill="white" stroke="black" points="150.5,-529 150.5,-563 263.5,-563 263.5,-529 150.5,-529"/>
<text text-anchor="start" x="158.5" y="-550" font-family="Helvetica,sans-Serif" font-size="10.00">ant::ReconstructHook</text>
<text text-anchor="middle" x="207" y="-537" font-family="Helvetica,sans-Serif" font-size="10.00">::ClusterHits</text>
</a>
</g>
<!-- Node0&#45;&gt;Node1 -->
<g id="edge2" class="edge"><title>Node0&#45;&gt;Node1</title>
<path fill="none" stroke="midnightblue" d="M77.4496,-412.15C95.7912,-434.306 123.778,-467.14 150,-494 161.884,-506.173 176.005,-519.066 187.219,-528.968"/>
<polygon fill="midnightblue" stroke="midnightblue" points="79.9749,-409.711 70.9161,-404.216 74.5712,-414.161 79.9749,-409.711"/>
</g>
<!-- Node3 -->
<g id="node7" class="node"><title>Node3</title>
<a xlink:href="structant_1_1_reconstruct_hook_1_1_clusters.html" target="_top" xlink:title="The Clusters struct instances are applied before candidate matching and after clustering. ">
<polygon fill="white" stroke="black" points="150.5,-451 150.5,-485 263.5,-485 263.5,-451 150.5,-451"/>
<text text-anchor="start" x="158.5" y="-472" font-family="Helvetica,sans-Serif" font-size="10.00">ant::ReconstructHook</text>
<text text-anchor="middle" x="207" y="-459" font-family="Helvetica,sans-Serif" font-size="10.00">::Clusters</text>
</a>
</g>
<!-- Node0&#45;&gt;Node3 -->
<g id="edge6" class="edge"><title>Node0&#45;&gt;Node3</title>
<path fill="none" stroke="midnightblue" d="M97.8519,-409.06C122.305,-422.265 152.916,-438.794 175.492,-450.986"/>
<polygon fill="midnightblue" stroke="midnightblue" points="99.2732,-405.85 88.8111,-404.178 95.9472,-412.009 99.2732,-405.85"/>
</g>
<!-- Node8 -->
<g id="node17" class="node"><title>Node8</title>
<a xlink:href="structant_1_1_reconstruct_hook_1_1_detector_read_hits.html" target="_top" xlink:title="The DetectorReadHits struct instances are applied before hit matching. ">
<polygon fill="white" stroke="black" points="150.5,-289 150.5,-323 263.5,-323 263.5,-289 150.5,-289"/>
<text text-anchor="start" x="158.5" y="-310" font-family="Helvetica,sans-Serif" font-size="10.00">ant::ReconstructHook</text>
<text text-anchor="middle" x="207" y="-297" font-family="Helvetica,sans-Serif" font-size="10.00">::DetectorReadHits</text>
</a>
</g>
<!-- Node0&#45;&gt;Node8 -->
<g id="edge16" class="edge"><title>Node0&#45;&gt;Node8</title>
<path fill="none" stroke="midnightblue" d="M97.8519,-364.94C122.305,-351.735 152.916,-335.206 175.492,-323.014"/>
<polygon fill="midnightblue" stroke="midnightblue" points="95.9472,-361.991 88.8111,-369.822 99.2732,-368.15 95.9472,-361.991"/>
</g>
<!-- Node24 -->
<g id="node49" class="node"><title>Node24</title>
<a xlink:href="structant_1_1_reconstruct_hook_1_1_event_data.html" target="_top" xlink:title="The EventData struct instances are applied after candidate building. ">
<polygon fill="white" stroke="black" points="150.5,-149 150.5,-183 263.5,-183 263.5,-149 150.5,-149"/>
<text text-anchor="start" x="158.5" y="-170" font-family="Helvetica,sans-Serif" font-size="10.00">ant::ReconstructHook</text>
<text text-anchor="middle" x="207" y="-157" font-family="Helvetica,sans-Serif" font-size="10.00">::EventData</text>
</a>
</g>
<!-- Node0&#45;&gt;Node24 -->
<g id="edge48" class="edge"><title>Node0&#45;&gt;Node24</title>
<path fill="none" stroke="midnightblue" d="M74.5045,-361.21C105.456,-315.609 169.049,-221.915 195.284,-183.261"/>
<polygon fill="midnightblue" stroke="midnightblue" points="71.4903,-359.419 68.7702,-369.659 77.2822,-363.35 71.4903,-359.419"/>
</g>
<!-- Node2 -->
<g id="node5" class="node"><title>Node2</title>
<a xlink:href="classant_1_1calibration_1_1_c_b___time_walk.html" target="_top" xlink:title="ant::calibration::CB\l_TimeWalk">
<polygon fill="white" stroke="black" points="321.5,-555 321.5,-589 422.5,-589 422.5,-555 321.5,-555"/>
<text text-anchor="start" x="329.5" y="-576" font-family="Helvetica,sans-Serif" font-size="10.00">ant::calibration::CB</text>
<text text-anchor="middle" x="372" y="-563" font-family="Helvetica,sans-Serif" font-size="10.00">_TimeWalk</text>
</a>
</g>
<!-- Node1&#45;&gt;Node2 -->
<g id="edge4" class="edge"><title>Node1&#45;&gt;Node2</title>
<path fill="none" stroke="midnightblue" d="M274.049,-556.565C289.882,-559.06 306.502,-561.679 321.463,-564.037"/>
<polygon fill="midnightblue" stroke="midnightblue" points="274.207,-553.047 263.784,-554.948 273.117,-559.962 274.207,-553.047"/>
</g>
<!-- Node4 -->
<g id="node9" class="node"><title>Node4</title>
<a xlink:href="classant_1_1calibration_1_1_cluster_correction.html" target="_top" xlink:title="ant::calibration::Cluster\lCorrection">
<polygon fill="white" stroke="black" points="313,-451 313,-485 431,-485 431,-451 313,-451"/>
<text text-anchor="start" x="321" y="-472" font-family="Helvetica,sans-Serif" font-size="10.00">ant::calibration::Cluster</text>
<text text-anchor="middle" x="372" y="-459" font-family="Helvetica,sans-Serif" font-size="10.00">Correction</text>
</a>
</g>
<!-- Node3&#45;&gt;Node4 -->
<g id="edge8" class="edge"><title>Node3&#45;&gt;Node4</title>
<path fill="none" stroke="midnightblue" d="M273.975,-468C286.853,-468 300.256,-468 312.865,-468"/>
<polygon fill="midnightblue" stroke="midnightblue" points="273.784,-464.5 263.784,-468 273.784,-471.5 273.784,-464.5"/>
</g>
<!-- Node7 -->
<g id="node15" class="node"><title>Node7</title>
<a xlink:href="classant_1_1calibration_1_1_t_a_p_s___shower_correction.html" target="_top" xlink:title="ant::calibration::TAPS\l_ShowerCorrection">
<polygon fill="white" stroke="black" points="315.5,-503 315.5,-537 428.5,-537 428.5,-503 315.5,-503"/>
<text text-anchor="start" x="323.5" y="-524" font-family="Helvetica,sans-Serif" font-size="10.00">ant::calibration::TAPS</text>
<text text-anchor="middle" x="372" y="-511" font-family="Helvetica,sans-Serif" font-size="10.00">_ShowerCorrection</text>
</a>
</g>
<!-- Node3&#45;&gt;Node7 -->
<g id="edge14" class="edge"><title>Node3&#45;&gt;Node7</title>
<path fill="none" stroke="midnightblue" d="M270.595,-488.042C286.193,-492.958 302.744,-498.174 317.851,-502.935"/>
<polygon fill="midnightblue" stroke="midnightblue" points="271.617,-484.694 261.027,-485.027 269.513,-491.371 271.617,-484.694"/>
</g>
<!-- Node5 -->
<g id="node11" class="node"><title>Node5</title>
<a xlink:href="classant_1_1calibration_1_1_cluster_e_corr.html" target="_top" xlink:title="Cluster energy correction based on energy and cluster size. ">
<polygon fill="white" stroke="black" points="501,-493 501,-527 619,-527 619,-493 501,-493"/>
<text text-anchor="start" x="509" y="-514" font-family="Helvetica,sans-Serif" font-size="10.00">ant::calibration::Cluster</text>
<text text-anchor="middle" x="560" y="-501" font-family="Helvetica,sans-Serif" font-size="10.00">ECorr</text>
</a>
</g>
<!-- Node4&#45;&gt;Node5 -->
<g id="edge10" class="edge"><title>Node4&#45;&gt;Node5</title>
<path fill="none" stroke="midnightblue" d="M441.01,-483.417C460.613,-487.797 481.779,-492.525 500.748,-496.763"/>
<polygon fill="midnightblue" stroke="midnightblue" points="441.749,-479.996 431.226,-481.231 440.223,-486.828 441.749,-479.996"/>
</g>
<!-- Node6 -->
<g id="node13" class="node"><title>Node6</title>
<a xlink:href="classant_1_1calibration_1_1_cluster_smearing.html" target="_top" xlink:title="Cluster energy smearing based on energy and cos(theta) ">
<polygon fill="white" stroke="black" points="501,-441 501,-475 619,-475 619,-441 501,-441"/>
<text text-anchor="start" x="509" y="-462" font-family="Helvetica,sans-Serif" font-size="10.00">ant::calibration::Cluster</text>
<text text-anchor="middle" x="560" y="-449" font-family="Helvetica,sans-Serif" font-size="10.00">Smearing</text>
</a>
</g>
<!-- Node4&#45;&gt;Node6 -->
<g id="edge12" class="edge"><title>Node4&#45;&gt;Node6</title>
<path fill="none" stroke="midnightblue" d="M441.279,-464.315C460.806,-463.276 481.866,-462.156 500.748,-461.152"/>
<polygon fill="midnightblue" stroke="midnightblue" points="441.026,-460.823 431.226,-464.85 441.398,-467.813 441.026,-460.823"/>
</g>
<!-- Node9 -->
<g id="node19" class="node"><title>Node9</title>
<a xlink:href="classant_1_1calibration_1_1_c_b___source_calib.html" target="_top" xlink:title="ant::calibration::CB\l_SourceCalib">
<polygon fill="white" stroke="black" points="321.5,-201 321.5,-235 422.5,-235 422.5,-201 321.5,-201"/>
<text text-anchor="start" x="329.5" y="-222" font-family="Helvetica,sans-Serif" font-size="10.00">ant::calibration::CB</text>
<text text-anchor="middle" x="372" y="-209" font-family="Helvetica,sans-Serif" font-size="10.00">_SourceCalib</text>
</a>
</g>
<!-- Node8&#45;&gt;Node9 -->
<g id="edge18" class="edge"><title>Node8&#45;&gt;Node9</title>
<path fill="none" stroke="midnightblue" d="M237.565,-282.892C255.182,-270.284 278.114,-255.042 300,-244 306.763,-240.588 314.084,-237.406 321.379,-234.521"/>
<polygon fill="midnightblue" stroke="midnightblue" points="235.408,-280.133 229.372,-288.84 239.52,-285.798 235.408,-280.133"/>
</g>
<!-- Node10 -->
<g id="node21" class="node"><title>Node10</title>
<a xlink:href="structant_1_1calibration_1_1converter_1_1_multi_hit_reference.html" target="_top" xlink:title="ant::calibration::converter\l::MultiHitReference\&lt; T \&gt;">
<polygon fill="white" stroke="black" points="308.5,-149 308.5,-183 435.5,-183 435.5,-149 308.5,-149"/>
<text text-anchor="start" x="316.5" y="-170" font-family="Helvetica,sans-Serif" font-size="10.00">ant::calibration::converter</text>
<text text-anchor="middle" x="372" y="-157" font-family="Helvetica,sans-Serif" font-size="10.00">::MultiHitReference&lt; T &gt;</text>
</a>
</g>
<!-- Node8&#45;&gt;Node10 -->
<g id="edge20" class="edge"><title>Node8&#45;&gt;Node10</title>
<path fill="none" stroke="midnightblue" d="M222.264,-280.048C238.555,-254.404 266.591,-215.676 300,-192 304.771,-188.619 310.029,-185.632 315.466,-183.004"/>
<polygon fill="midnightblue" stroke="midnightblue" points="219.1,-278.509 216.805,-288.852 225.049,-282.198 219.1,-278.509"/>
</g>
<!-- Node11 -->
<g id="node23" class="node"><title>Node11</title>
<a xlink:href="classant_1_1calibration_1_1_energy.html" target="_top" xlink:title="ant::calibration::Energy">
<polygon fill="white" stroke="black" points="313.5,-109.5 313.5,-130.5 430.5,-130.5 430.5,-109.5 313.5,-109.5"/>
<text text-anchor="middle" x="372" y="-117.5" font-family="Helvetica,sans-Serif" font-size="10.00">ant::calibration::Energy</text>
</a>
</g>
<!-- Node8&#45;&gt;Node11 -->
<g id="edge22" class="edge"><title>Node8&#45;&gt;Node11</title>
<path fill="none" stroke="midnightblue" d="M220.209,-279.907C242.825,-235.637 287.715,-149.644 300,-140 304.898,-136.155 310.491,-133.048 316.345,-130.539"/>
<polygon fill="midnightblue" stroke="midnightblue" points="217.032,-278.433 215.612,-288.932 223.27,-281.61 217.032,-278.433"/>
</g>
<!-- Node17 -->
<g id="node35" class="node"><title>Node17</title>
<a xlink:href="classant_1_1calibration_1_1_tagger___q_d_c.html" target="_top" xlink:title="ant::calibration::Tagger_QDC">
<polygon fill="white" stroke="black" points="300,-411.5 300,-432.5 444,-432.5 444,-411.5 300,-411.5"/>
<text text-anchor="middle" x="372" y="-419.5" font-family="Helvetica,sans-Serif" font-size="10.00">ant::calibration::Tagger_QDC</text>
</a>
</g>
<!-- Node8&#45;&gt;Node17 -->
<g id="edge34" class="edge"><title>Node8&#45;&gt;Node17</title>
<path fill="none" stroke="midnightblue" d="M225.318,-331.426C242.317,-353.226 269.532,-383.897 300,-402 306.357,-405.777 313.453,-408.864 320.643,-411.38"/>
<polygon fill="midnightblue" stroke="midnightblue" points="227.947,-329.101 219.105,-323.264 222.377,-333.341 227.947,-329.101"/>
</g>
<!-- Node18 -->
<g id="node37" class="node"><title>Node18</title>
<a xlink:href="classant_1_1calibration_1_1_time.html" target="_top" xlink:title="ant::calibration::Time">
<polygon fill="white" stroke="black" points="318,-371.5 318,-392.5 426,-392.5 426,-371.5 318,-371.5"/>
<text text-anchor="middle" x="372" y="-379.5" font-family="Helvetica,sans-Serif" font-size="10.00">ant::calibration::Time</text>
</a>
</g>
<!-- Node8&#45;&gt;Node18 -->
<g id="edge36" class="edge"><title>Node8&#45;&gt;Node18</title>
<path fill="none" stroke="midnightblue" d="M239.869,-328.794C257.159,-339.997 279.067,-352.989 300,-362 308.461,-365.642 317.766,-368.802 326.798,-371.467"/>
<polygon fill="midnightblue" stroke="midnightblue" points="241.553,-325.712 231.277,-323.13 237.7,-331.556 241.553,-325.712"/>
</g>
<!-- Node21 -->
<g id="node43" class="node"><title>Node21</title>
<a xlink:href="structant_1_1expconfig_1_1detector_1_1_trigger__2014.html" target="_top" xlink:title="ant::expconfig::detector\l::Trigger_2014">
<polygon fill="white" stroke="black" points="312.5,-319 312.5,-353 431.5,-353 431.5,-319 312.5,-319"/>
<text text-anchor="start" x="320.5" y="-340" font-family="Helvetica,sans-Serif" font-size="10.00">ant::expconfig::detector</text>
<text text-anchor="middle" x="372" y="-327" font-family="Helvetica,sans-Serif" font-size="10.00">::Trigger_2014</text>
</a>
</g>
<!-- Node8&#45;&gt;Node21 -->
<g id="edge42" class="edge"><title>Node8&#45;&gt;Node21</title>
<path fill="none" stroke="midnightblue" d="M273.853,-318.155C286.577,-320.469 299.816,-322.876 312.3,-325.145"/>
<polygon fill="midnightblue" stroke="midnightblue" points="274.248,-314.67 263.784,-316.324 272.996,-321.557 274.248,-314.67"/>
</g>
<!-- Node22 -->
<g id="node45" class="node"><title>Node22</title>
<a xlink:href="structant_1_1calibration_1_1converter_1_1_multi_hit_reference.html" target="_top" xlink:title="ant::calibration::converter\l::MultiHitReference\&lt; std\l::uint16_t \&gt;">
<polygon fill="white" stroke="black" points="308.5,-253.5 308.5,-300.5 435.5,-300.5 435.5,-253.5 308.5,-253.5"/>
<text text-anchor="start" x="316.5" y="-287.5" font-family="Helvetica,sans-Serif" font-size="10.00">ant::calibration::converter</text>
<text text-anchor="start" x="316.5" y="-274.5" font-family="Helvetica,sans-Serif" font-size="10.00">::MultiHitReference&lt; std</text>
<text text-anchor="middle" x="372" y="-261.5" font-family="Helvetica,sans-Serif" font-size="10.00">::uint16_t &gt;</text>
</a>
</g>
<!-- Node8&#45;&gt;Node22 -->
<g id="edge44" class="edge"><title>Node8&#45;&gt;Node22</title>
<path fill="none" stroke="midnightblue" d="M273.696,-294.278C285.125,-292.269 296.974,-290.186 308.321,-288.192"/>
<polygon fill="midnightblue" stroke="midnightblue" points="273.027,-290.842 263.784,-296.02 274.239,-297.736 273.027,-290.842"/>
</g>
<!-- Node12 -->
<g id="node25" class="node"><title>Node12</title>
<a xlink:href="classant_1_1calibration_1_1_c_b___energy.html" target="_top" xlink:title="ant::calibration::CB\l_Energy">
<polygon fill="white" stroke="black" points="509.5,-52 509.5,-86 610.5,-86 610.5,-52 509.5,-52"/>
<text text-anchor="start" x="517.5" y="-73" font-family="Helvetica,sans-Serif" font-size="10.00">ant::calibration::CB</text>
<text text-anchor="middle" x="560" y="-60" font-family="Helvetica,sans-Serif" font-size="10.00">_Energy</text>
</a>
</g>
<!-- Node11&#45;&gt;Node12 -->
<g id="edge24" class="edge"><title>Node11&#45;&gt;Node12</title>
<path fill="none" stroke="midnightblue" d="M420.656,-106.801C447.874,-99.4171 481.763,-90.2239 509.304,-82.7525"/>
<polygon fill="midnightblue" stroke="midnightblue" points="419.689,-103.437 410.954,-109.433 421.521,-110.192 419.689,-103.437"/>
</g>
<!-- Node13 -->
<g id="node27" class="node"><title>Node13</title>
<a xlink:href="classant_1_1calibration_1_1_p_i_d___energy.html" target="_top" xlink:title="ant::calibration::PID\l_Energy">
<polygon fill="white" stroke="black" points="508,-0 508,-34 612,-34 612,-0 508,-0"/>
<text text-anchor="start" x="516" y="-21" font-family="Helvetica,sans-Serif" font-size="10.00">ant::calibration::PID</text>
<text text-anchor="middle" x="560" y="-8" font-family="Helvetica,sans-Serif" font-size="10.00">_Energy</text>
</a>
</g>
<!-- Node11&#45;&gt;Node13 -->
<g id="edge26" class="edge"><title>Node11&#45;&gt;Node13</title>
<path fill="none" stroke="midnightblue" d="M391.964,-102.901C412.779,-85.7864 446.925,-59.6681 480,-43 488.738,-38.5966 498.382,-34.7172 507.859,-31.3891"/>
<polygon fill="midnightblue" stroke="midnightblue" points="389.594,-100.32 384.157,-109.414 394.078,-105.695 389.594,-100.32"/>
</g>
<!-- Node14 -->
<g id="node29" class="node"><title>Node14</title>
<a xlink:href="classant_1_1calibration_1_1_t_a_p_s___energy.html" target="_top" xlink:title="ant::calibration::TAPS\l_Energy">
<polygon fill="white" stroke="black" points="503.5,-208 503.5,-242 616.5,-242 616.5,-208 503.5,-208"/>
<text text-anchor="start" x="511.5" y="-229" font-family="Helvetica,sans-Serif" font-size="10.00">ant::calibration::TAPS</text>
<text text-anchor="middle" x="560" y="-216" font-family="Helvetica,sans-Serif" font-size="10.00">_Energy</text>
</a>
</g>
<!-- Node11&#45;&gt;Node14 -->
<g id="edge28" class="edge"><title>Node11&#45;&gt;Node14</title>
<path fill="none" stroke="midnightblue" d="M436.191,-134.933C438.923,-136.46 441.543,-138.144 444,-140 468.511,-158.515 455.895,-179.959 480,-199 486.876,-204.432 494.923,-208.745 503.215,-212.167"/>
<polygon fill="midnightblue" stroke="midnightblue" points="437.674,-131.763 427.147,-130.567 434.631,-138.066 437.674,-131.763"/>
</g>
<!-- Node15 -->
<g id="node31" class="node"><title>Node15</title>
<a xlink:href="classant_1_1calibration_1_1_t_a_p_s___short_energy.html" target="_top" xlink:title="ant::calibration::TAPS\l_ShortEnergy">
<polygon fill="white" stroke="black" points="503.5,-156 503.5,-190 616.5,-190 616.5,-156 503.5,-156"/>
<text text-anchor="start" x="511.5" y="-177" font-family="Helvetica,sans-Serif" font-size="10.00">ant::calibration::TAPS</text>
<text text-anchor="middle" x="560" y="-164" font-family="Helvetica,sans-Serif" font-size="10.00">_ShortEnergy</text>
</a>
</g>
<!-- Node11&#45;&gt;Node15 -->
<g id="edge30" class="edge"><title>Node11&#45;&gt;Node15</title>
<path fill="none" stroke="midnightblue" d="M419.818,-133.238C427.892,-135.486 436.186,-137.803 444,-140 463.35,-145.44 484.5,-151.441 503.379,-156.816"/>
<polygon fill="midnightblue" stroke="midnightblue" points="420.698,-129.85 410.126,-130.543 418.823,-136.594 420.698,-129.85"/>
</g>
<!-- Node16 -->
<g id="node33" class="node"><title>Node16</title>
<a xlink:href="classant_1_1calibration_1_1_t_a_p_s_veto___energy.html" target="_top" xlink:title="ant::calibration::TAPSVeto\l_Energy">
<polygon fill="white" stroke="black" points="493.5,-104 493.5,-138 626.5,-138 626.5,-104 493.5,-104"/>
<text text-anchor="start" x="501.5" y="-125" font-family="Helvetica,sans-Serif" font-size="10.00">ant::calibration::TAPSVeto</text>
<text text-anchor="middle" x="560" y="-112" font-family="Helvetica,sans-Serif" font-size="10.00">_Energy</text>
</a>
</g>
<!-- Node11&#45;&gt;Node16 -->
<g id="edge32" class="edge"><title>Node11&#45;&gt;Node16</title>
<path fill="none" stroke="midnightblue" d="M441.128,-120.368C458.136,-120.458 476.314,-120.555 493.21,-120.645"/>
<polygon fill="midnightblue" stroke="midnightblue" points="440.73,-116.866 430.711,-120.312 440.692,-123.866 440.73,-116.866"/>
</g>
<!-- Node19 -->
<g id="node39" class="node"><title>Node19</title>
<a xlink:href="classant_1_1calibration_1_1_t_a_p_s___time.html" target="_top" xlink:title="ant::calibration::TAPS_Time">
<polygon fill="white" stroke="black" points="490,-381.5 490,-402.5 630,-402.5 630,-381.5 490,-381.5"/>
<text text-anchor="middle" x="560" y="-389.5" font-family="Helvetica,sans-Serif" font-size="10.00">ant::calibration::TAPS_Time</text>
</a>
</g>
<!-- Node18&#45;&gt;Node19 -->
<g id="edge38" class="edge"><title>Node18&#45;&gt;Node19</title>
<path fill="none" stroke="midnightblue" d="M436.595,-385.436C453.75,-386.348 472.358,-387.338 489.797,-388.266"/>
<polygon fill="midnightblue" stroke="midnightblue" points="436.297,-381.915 426.125,-384.879 435.925,-388.905 436.297,-381.915"/>
</g>
<!-- Node20 -->
<g id="node41" class="node"><title>Node20</title>
<a xlink:href="classant_1_1calibration_1_1_t_a_p_s_veto___time.html" target="_top" xlink:title="ant::calibration::TAPSVeto_Time">
<polygon fill="white" stroke="black" points="480,-341.5 480,-362.5 640,-362.5 640,-341.5 480,-341.5"/>
<text text-anchor="middle" x="560" y="-349.5" font-family="Helvetica,sans-Serif" font-size="10.00">ant::calibration::TAPSVeto_Time</text>
</a>
</g>
<!-- Node18&#45;&gt;Node20 -->
<g id="edge40" class="edge"><title>Node18&#45;&gt;Node20</title>
<path fill="none" stroke="midnightblue" d="M436.003,-371.787C454.677,-368.807 475.116,-365.545 493.916,-362.545"/>
<polygon fill="midnightblue" stroke="midnightblue" points="435.449,-368.331 426.125,-373.363 436.552,-375.243 435.449,-368.331"/>
</g>
<!-- Node23 -->
<g id="node47" class="node"><title>Node23</title>
<a xlink:href="structant_1_1calibration_1_1converter_1_1_c_a_t_c_h___t_d_c.html" target="_top" xlink:title="ant::calibration::converter\l::CATCH_TDC">
<polygon fill="white" stroke="black" points="496.5,-260 496.5,-294 623.5,-294 623.5,-260 496.5,-260"/>
<text text-anchor="start" x="504.5" y="-281" font-family="Helvetica,sans-Serif" font-size="10.00">ant::calibration::converter</text>
<text text-anchor="middle" x="560" y="-268" font-family="Helvetica,sans-Serif" font-size="10.00">::CATCH_TDC</text>
</a>
</g>
<!-- Node22&#45;&gt;Node23 -->
<g id="edge46" class="edge"><title>Node22&#45;&gt;Node23</title>
<path fill="none" stroke="midnightblue" d="M445.909,-277C462.606,-277 480.189,-277 496.417,-277"/>
<polygon fill="midnightblue" stroke="midnightblue" points="445.648,-273.5 435.648,-277 445.648,-280.5 445.648,-273.5"/>
</g>
<!-- Node24&#45;&gt;Node13 -->
<g id="edge50" class="edge"><title>Node24&#45;&gt;Node13</title>
<path fill="none" stroke="midnightblue" d="M235.421,-142.328C253.123,-128.5 276.862,-111.553 300,-100 368.464,-65.8152 454.021,-41.7293 507.857,-28.6054"/>
<polygon fill="midnightblue" stroke="midnightblue" points="232.894,-139.866 227.245,-148.829 237.25,-145.345 232.894,-139.866"/>
</g>
</g>
</svg>
