<?xml version="1.0" encoding="UTF-8" standalone="no"?>
<!DOCTYPE svg PUBLIC "-//W3C//DTD SVG 1.1//EN"
 "http://www.w3.org/Graphics/SVG/1.1/DTD/svg11.dtd">
<!-- Generated by graphviz version 2.26.3 (20100126.1600)
 -->
<!-- Title: ant::TDetectorReadHit Pages: 1 -->
<svg width="538pt" height="122pt"
 viewBox="0.00 0.00 538.00 122.00" xmlns="http://www.w3.org/2000/svg" xmlns:xlink="http://www.w3.org/1999/xlink">
<g id="graph1" class="graph" transform="scale(1 1) rotate(0) translate(4 118)">
<title>ant::TDetectorReadHit</title>
<polygon fill="white" stroke="white" points="-4,5 -4,-118 535,-118 535,5 -4,5"/>
<!-- Node1 -->
<g id="node1" class="node"><title>Node1</title>
<polygon fill="#bfbfbf" stroke="black" points="414,-40.5 414,-61.5 530,-61.5 530,-40.5 414,-40.5"/>
<text text-anchor="middle" x="472" y="-48.5" font-family="Helvetica,sans-Serif" font-size="10.00">ant::TDetectorReadHit</text>
</g>
<!-- Node2 -->
<g id="node2" class="node"><title>Node2</title>
<polygon fill="white" stroke="#bfbfbf" points="196.5,-80 196.5,-114 331.5,-114 331.5,-80 196.5,-80"/>
<text text-anchor="start" x="204.5" y="-101" font-family="Helvetica,sans-Serif" font-size="10.00">std::vector&lt; ant::TDetector</text>
<text text-anchor="middle" x="264" y="-88" font-family="Helvetica,sans-Serif" font-size="10.00">ReadHit::Value_t &gt;</text>
</g>
<!-- Node2&#45;&gt;Node1 -->
<g id="edge2" class="edge"><title>Node2&#45;&gt;Node1</title>
<path fill="none" stroke="#9a32cd" stroke-dasharray="5,2" d="M341.346,-80.059C359.292,-76.1139 378.315,-71.9206 396,-68 405.372,-65.9223 415.391,-63.6895 424.978,-61.5473"/>
<polygon fill="#9a32cd" stroke="#9a32cd" points="340.518,-76.6573 331.502,-82.2218 342.02,-83.4942 340.518,-76.6573"/>
<text text-anchor="middle" x="373" y="-82" font-family="Helvetica,sans-Serif" font-size="10.00"> Values</text>
</g>
<!-- Node3 -->
<g id="node4" class="node"><title>Node3</title>
<a xlink:href="structant_1_1_t_detector_read_hit_1_1_value__t.html" target="_top" xlink:title="ant::TDetectorReadHit\l::Value_t">
<polygon fill="white" stroke="black" points="0,-80 0,-114 116,-114 116,-80 0,-80"/>
<text text-anchor="start" x="8" y="-101" font-family="Helvetica,sans-Serif" font-size="10.00">ant::TDetectorReadHit</text>
<text text-anchor="middle" x="58" y="-88" font-family="Helvetica,sans-Serif" font-size="10.00">::Value_t</text>
</a>
</g>
<!-- Node3&#45;&gt;Node2 -->
<g id="edge4" class="edge"><title>Node3&#45;&gt;Node2</title>
<path fill="none" stroke="#9a32cd" stroke-dasharray="5,2" d="M126.373,-97C148.927,-97 173.988,-97 196.478,-97"/>
<polygon fill="#9a32cd" stroke="#9a32cd" points="126.205,-93.5001 116.205,-97 126.205,-100.5 126.205,-93.5001"/>
<text text-anchor="middle" x="156" y="-101" font-family="Helvetica,sans-Serif" font-size="10.00"> elements</text>
</g>
<!-- Node4 -->
<g id="node6" class="node"><title>Node4</title>
<polygon fill="white" stroke="#bfbfbf" points="214.5,-40.5 214.5,-61.5 313.5,-61.5 313.5,-40.5 214.5,-40.5"/>
<text text-anchor="middle" x="264" y="-48.5" font-family="Helvetica,sans-Serif" font-size="10.00">std::vector&lt; bool &gt;</text>
</g>
<!-- Node4&#45;&gt;Node1 -->
<g id="edge6" class="edge"><title>Node4&#45;&gt;Node1</title>
<path fill="none" stroke="#9a32cd" stroke-dasharray="5,2" d="M323.738,-51C352.091,-51 385.839,-51 413.97,-51"/>
<polygon fill="#9a32cd" stroke="#9a32cd" points="323.557,-47.5001 313.557,-51 323.557,-54.5001 323.557,-47.5001"/>
<text text-anchor="middle" x="373" y="-55" font-family="Helvetica,sans-Serif" font-size="10.00"> ValueBits</text>
</g>
<!-- Node5 -->
<g id="node8" class="node"><title>Node5</title>
<polygon fill="white" stroke="#bfbfbf" points="199,-0.5 199,-21.5 329,-21.5 329,-0.5 199,-0.5"/>
<text text-anchor="middle" x="264" y="-8.5" font-family="Helvetica,sans-Serif" font-size="10.00">std::vector&lt; std::uint8_t &gt;</text>
</g>
<!-- Node5&#45;&gt;Node1 -->
<g id="edge8" class="edge"><title>Node5&#45;&gt;Node1</title>
<path fill="none" stroke="#9a32cd" stroke-dasharray="5,2" d="M337.964,-23.2496C356.915,-26.5631 377.241,-30.2698 396,-34 405.946,-35.9777 416.587,-38.2557 426.663,-40.4883"/>
<polygon fill="#9a32cd" stroke="#9a32cd" points="338.347,-19.764 327.896,-21.5033 337.151,-26.661 338.347,-19.764"/>
<text text-anchor="middle" x="373" y="-38" font-family="Helvetica,sans-Serif" font-size="10.00"> RawData</text>
</g>
</g>
</svg>
