<?xml version="1.0" encoding="UTF-8" standalone="no"?>
<!DOCTYPE svg PUBLIC "-//W3C//DTD SVG 1.1//EN"
 "http://www.w3.org/Graphics/SVG/1.1/DTD/svg11.dtd">
<!-- Generated by graphviz version 2.26.3 (20100126.1600)
 -->
<!-- Title: ant::analysis::physics::EtapDalitz::fit_tree Pages: 1 -->
<svg width="396pt" height="94pt"
 viewBox="0.00 0.00 396.00 94.00" xmlns="http://www.w3.org/2000/svg" xmlns:xlink="http://www.w3.org/1999/xlink">
<g id="graph1" class="graph" transform="scale(1 1) rotate(0) translate(4 90)">
<title>ant::analysis::physics::EtapDalitz::fit_tree</title>
<polygon fill="white" stroke="white" points="-4,5 -4,-90 393,-90 393,5 -4,5"/>
<!-- Node0 -->
<g id="node1" class="node"><title>Node0</title>
<polygon fill="#bfbfbf" stroke="black" points="122,-26 122,-60 234,-60 234,-26 122,-26"/>
<text text-anchor="start" x="130" y="-47" font-family="Helvetica,sans-Serif" font-size="10.00">ant::analysis::physics</text>
<text text-anchor="middle" x="178" y="-34" font-family="Helvetica,sans-Serif" font-size="10.00">::EtapDalitz::fit_tree</text>
</g>
<!-- Node2 -->
<g id="node5" class="node"><title>Node2</title>
<a xlink:href="structant_1_1analysis_1_1physics_1_1_etap_dalitz_1_1_ref_tree__t.html" target="_top" xlink:title="ant::analysis::physics\l::EtapDalitz::RefTree_t">
<polygon fill="white" stroke="black" points="270,-52 270,-86 388,-86 388,-52 270,-52"/>
<text text-anchor="start" x="278" y="-73" font-family="Helvetica,sans-Serif" font-size="10.00">ant::analysis::physics</text>
<text text-anchor="middle" x="329" y="-60" font-family="Helvetica,sans-Serif" font-size="10.00">::EtapDalitz::RefTree_t</text>
</a>
</g>
<!-- Node0&#45;&gt;Node2 -->
<g id="edge4" class="edge"><title>Node0&#45;&gt;Node2</title>
<path fill="none" stroke="midnightblue" d="M244.19,-54.3969C252.763,-55.8732 261.5,-57.3774 269.947,-58.8319"/>
<polygon fill="midnightblue" stroke="midnightblue" points="244.676,-50.9292 234.227,-52.6814 243.488,-57.8276 244.676,-50.9292"/>
</g>
<!-- Node3 -->
<g id="node7" class="node"><title>Node3</title>
<a xlink:href="structant_1_1analysis_1_1physics_1_1_etap_dalitz_1_1_sig_tree__t.html" target="_top" xlink:title="ant::analysis::physics\l::EtapDalitz::SigTree_t">
<polygon fill="white" stroke="black" points="271,-0 271,-34 387,-34 387,-0 271,-0"/>
<text text-anchor="start" x="279" y="-21" font-family="Helvetica,sans-Serif" font-size="10.00">ant::analysis::physics</text>
<text text-anchor="middle" x="329" y="-8" font-family="Helvetica,sans-Serif" font-size="10.00">::EtapDalitz::SigTree_t</text>
</a>
</g>
<!-- Node0&#45;&gt;Node3 -->
<g id="edge6" class="edge"><title>Node0&#45;&gt;Node3</title>
<path fill="none" stroke="midnightblue" d="M244.192,-31.6027C253.108,-30.0675 262.2,-28.502 270.96,-26.9936"/>
<polygon fill="midnightblue" stroke="midnightblue" points="243.488,-28.1724 234.227,-33.3186 244.676,-35.0708 243.488,-28.1724"/>
</g>
<!-- Node1 -->
<g id="node2" class="node"><title>Node1</title>
<a xlink:href="classant_1_1_wrap_t_tree.html" target="_top" xlink:title="The WrapTTree struct simplifies TTree handling in physics classes. ">
<polygon fill="white" stroke="black" points="0.5,-32.5 0.5,-53.5 85.5,-53.5 85.5,-32.5 0.5,-32.5"/>
<text text-anchor="middle" x="43" y="-40.5" font-family="Helvetica,sans-Serif" font-size="10.00">ant::WrapTTree</text>
</a>
</g>
<!-- Node1&#45;&gt;Node0 -->
<g id="edge2" class="edge"><title>Node1&#45;&gt;Node0</title>
<path fill="none" stroke="midnightblue" d="M95.8668,-43C104.353,-43 113.163,-43 121.725,-43"/>
<polygon fill="midnightblue" stroke="midnightblue" points="95.7149,-39.5001 85.7148,-43 95.7148,-46.5001 95.7149,-39.5001"/>
</g>
</g>
</svg>
