<?xml version="1.0" encoding="UTF-8" standalone="no"?>
<!DOCTYPE svg PUBLIC "-//W3C//DTD SVG 1.1//EN"
 "http://www.w3.org/Graphics/SVG/1.1/DTD/svg11.dtd">
<!-- Generated by graphviz version 2.26.3 (20100126.1600)
 -->
<!-- Title: ant::ClusterDetector_t Pages: 1 -->
<svg width="352pt" height="232pt"
 viewBox="0.00 0.00 352.00 232.00" xmlns="http://www.w3.org/2000/svg" xmlns:xlink="http://www.w3.org/1999/xlink">
<g id="graph1" class="graph" transform="scale(1 1) rotate(0) translate(4 228)">
<title>ant::ClusterDetector_t</title>
<polygon fill="white" stroke="white" points="-4,5 -4,-228 349,-228 349,5 -4,5"/>
<!-- Node0 -->
<g id="node1" class="node"><title>Node0</title>
<polygon fill="#bfbfbf" stroke="black" points="86.5,-144.5 86.5,-165.5 199.5,-165.5 199.5,-144.5 86.5,-144.5"/>
<text text-anchor="middle" x="143" y="-152.5" font-family="Helvetica,sans-Serif" font-size="10.00">ant::ClusterDetector_t</text>
</g>
<!-- Node2 -->
<g id="node5" class="node"><title>Node2</title>
<a xlink:href="structant_1_1expconfig_1_1detector_1_1_c_b.html" target="_top" xlink:title="ant::expconfig::detector::CB">
<polygon fill="white" stroke="black" points="0,-79.5 0,-100.5 140,-100.5 140,-79.5 0,-79.5"/>
<text text-anchor="middle" x="70" y="-87.5" font-family="Helvetica,sans-Serif" font-size="10.00">ant::expconfig::detector::CB</text>
</a>
</g>
<!-- Node0&#45;&gt;Node2 -->
<g id="edge4" class="edge"><title>Node0&#45;&gt;Node2</title>
<path fill="none" stroke="midnightblue" d="M123.272,-137.434C110.029,-125.642 93.0212,-110.498 81.8302,-100.534"/>
<polygon fill="midnightblue" stroke="midnightblue" points="121.15,-140.231 130.946,-144.267 125.805,-135.003 121.15,-140.231"/>
</g>
<!-- Node3 -->
<g id="node7" class="node"><title>Node3</title>
<a xlink:href="structant_1_1expconfig_1_1detector_1_1_t_a_p_s.html" target="_top" xlink:title="ant::expconfig::detector\l::TAPS">
<polygon fill="white" stroke="black" points="157.5,-73 157.5,-107 276.5,-107 276.5,-73 157.5,-73"/>
<text text-anchor="start" x="165.5" y="-94" font-family="Helvetica,sans-Serif" font-size="10.00">ant::expconfig::detector</text>
<text text-anchor="middle" x="217" y="-81" font-family="Helvetica,sans-Serif" font-size="10.00">::TAPS</text>
</a>
</g>
<!-- Node0&#45;&gt;Node3 -->
<g id="edge6" class="edge"><title>Node0&#45;&gt;Node3</title>
<path fill="none" stroke="midnightblue" d="M162.872,-137.545C173.618,-128.106 186.837,-116.495 197.521,-107.11"/>
<polygon fill="midnightblue" stroke="midnightblue" points="160.423,-135.038 155.22,-144.267 165.043,-140.297 160.423,-135.038"/>
</g>
<!-- Node1 -->
<g id="node2" class="node"><title>Node1</title>
<a xlink:href="structant_1_1_detector__t.html" target="_top" xlink:title="The Detector_t struct is the minimal base class for all detectors. ">
<polygon fill="white" stroke="black" points="102,-202.5 102,-223.5 184,-223.5 184,-202.5 102,-202.5"/>
<text text-anchor="middle" x="143" y="-210.5" font-family="Helvetica,sans-Serif" font-size="10.00">ant::Detector_t</text>
</a>
</g>
<!-- Node1&#45;&gt;Node0 -->
<g id="edge2" class="edge"><title>Node1&#45;&gt;Node0</title>
<path fill="none" stroke="midnightblue" d="M143,-192.191C143,-183.168 143,-172.994 143,-165.571"/>
<polygon fill="midnightblue" stroke="midnightblue" points="139.5,-192.362 143,-202.362 146.5,-192.362 139.5,-192.362"/>
</g>
<!-- Node4 -->
<g id="node9" class="node"><title>Node4</title>
<a xlink:href="structant_1_1expconfig_1_1detector_1_1_t_a_p_s__2007.html" target="_top" xlink:title="ant::expconfig::detector\l::TAPS_2007">
<polygon fill="white" stroke="black" points="89.5,-1 89.5,-35 208.5,-35 208.5,-1 89.5,-1"/>
<text text-anchor="start" x="97.5" y="-22" font-family="Helvetica,sans-Serif" font-size="10.00">ant::expconfig::detector</text>
<text text-anchor="middle" x="149" y="-9" font-family="Helvetica,sans-Serif" font-size="10.00">::TAPS_2007</text>
</a>
</g>
<!-- Node3&#45;&gt;Node4 -->
<g id="edge8" class="edge"><title>Node3&#45;&gt;Node4</title>
<path fill="none" stroke="midnightblue" d="M193.746,-65.3785C184.45,-55.5349 173.958,-44.4262 165.472,-35.4407"/>
<polygon fill="midnightblue" stroke="midnightblue" points="191.474,-68.07 200.885,-72.937 196.563,-63.2637 191.474,-68.07"/>
</g>
<!-- Node5 -->
<g id="node11" class="node"><title>Node5</title>
<a xlink:href="structant_1_1expconfig_1_1detector_1_1_t_a_p_s__2013.html" target="_top" xlink:title="ant::expconfig::detector\l::TAPS_2013">
<polygon fill="white" stroke="black" points="225.5,-1 225.5,-35 344.5,-35 344.5,-1 225.5,-1"/>
<text text-anchor="start" x="233.5" y="-22" font-family="Helvetica,sans-Serif" font-size="10.00">ant::expconfig::detector</text>
<text text-anchor="middle" x="285" y="-9" font-family="Helvetica,sans-Serif" font-size="10.00">::TAPS_2013</text>
</a>
</g>
<!-- Node3&#45;&gt;Node5 -->
<g id="edge10" class="edge"><title>Node3&#45;&gt;Node5</title>
<path fill="none" stroke="midnightblue" d="M240.254,-65.3785C249.55,-55.5349 260.042,-44.4262 268.528,-35.4407"/>
<polygon fill="midnightblue" stroke="midnightblue" points="237.437,-63.2637 233.115,-72.937 242.526,-68.07 237.437,-63.2637"/>
</g>
</g>
</svg>
