<?xml version="1.0" encoding="UTF-8" standalone="no"?>
<!DOCTYPE svg PUBLIC "-//W3C//DTD SVG 1.1//EN"
 "http://www.w3.org/Graphics/SVG/1.1/DTD/svg11.dtd">
<!-- Generated by graphviz version 2.26.3 (20100126.1600)
 -->
<!-- Title: ant::expconfig::detector::TAPSVeto Pages: 1 -->
<svg width="236pt" height="102pt"
 viewBox="0.00 0.00 236.00 102.00" xmlns="http://www.w3.org/2000/svg" xmlns:xlink="http://www.w3.org/1999/xlink">
<g id="graph1" class="graph" transform="scale(1 1) rotate(0) translate(4 98)">
<title>ant::expconfig::detector::TAPSVeto</title>
<polygon fill="white" stroke="white" points="-4,5 -4,-98 233,-98 233,5 -4,5"/>
<!-- Node6 -->
<g id="node1" class="node"><title>Node6</title>
<polygon fill="#bfbfbf" stroke="black" points="42.5,-1 42.5,-35 161.5,-35 161.5,-1 42.5,-1"/>
<text text-anchor="start" x="50.5" y="-22" font-family="Helvetica,sans-Serif" font-size="10.00">ant::expconfig::detector</text>
<text text-anchor="middle" x="102" y="-9" font-family="Helvetica,sans-Serif" font-size="10.00">::TAPSVeto</text>
</g>
<!-- Node7 -->
<g id="node2" class="node"><title>Node7</title>
<a xlink:href="structant_1_1_detector__t.html" target="_top" xlink:title="The Detector_t struct is the minimal base class for all detectors. ">
<polygon fill="white" stroke="black" points="0,-72.5 0,-93.5 82,-93.5 82,-72.5 0,-72.5"/>
<text text-anchor="middle" x="41" y="-80.5" font-family="Helvetica,sans-Serif" font-size="10.00">ant::Detector_t</text>
</a>
</g>
<!-- Node7&#45;&gt;Node6 -->
<g id="edge2" class="edge"><title>Node7&#45;&gt;Node6</title>
<path fill="none" stroke="midnightblue" d="M58.1676,-64.7066C66.878,-55.4251 77.3946,-44.2189 85.9431,-35.1099"/>
<polygon fill="midnightblue" stroke="midnightblue" points="55.3639,-62.5796 51.0729,-72.2666 60.4682,-67.3698 55.3639,-62.5796"/>
</g>
<!-- Node8 -->
<g id="node4" class="node"><title>Node8</title>
<a xlink:href="classant_1_1_unpacker_acqu_config.html" target="_top" xlink:title="ant::UnpackerAcquConfig">
<polygon fill="white" stroke="black" points="99.5,-72.5 99.5,-93.5 228.5,-93.5 228.5,-72.5 99.5,-72.5"/>
<text text-anchor="middle" x="164" y="-80.5" font-family="Helvetica,sans-Serif" font-size="10.00">ant::UnpackerAcquConfig</text>
</a>
</g>
<!-- Node8&#45;&gt;Node6 -->
<g id="edge4" class="edge"><title>Node8&#45;&gt;Node6</title>
<path fill="none" stroke="midnightblue" d="M146.819,-64.9873C137.914,-55.6517 127.097,-44.3109 118.32,-35.1099"/>
<polygon fill="midnightblue" stroke="midnightblue" points="144.327,-67.4462 153.762,-72.2666 149.392,-62.6147 144.327,-67.4462"/>
</g>
</g>
</svg>
