<?xml version="1.0" encoding="UTF-8" standalone="no"?>
<!DOCTYPE svg PUBLIC "-//W3C//DTD SVG 1.1//EN"
 "http://www.w3.org/Graphics/SVG/1.1/DTD/svg11.dtd">
<!-- Generated by graphviz version 2.26.3 (20100126.1600)
 -->
<!-- Title: ant::calibration::CB_Energy::GUI_Gains Pages: 1 -->
<svg width="114pt" height="188pt"
 viewBox="0.00 0.00 114.00 188.00" xmlns="http://www.w3.org/2000/svg" xmlns:xlink="http://www.w3.org/1999/xlink">
<g id="graph1" class="graph" transform="scale(1 1) rotate(0) translate(4 184)">
<title>ant::calibration::CB_Energy::GUI_Gains</title>
<polygon fill="white" stroke="white" points="-4,5 -4,-184 111,-184 111,5 -4,5"/>
<!-- Node0 -->
<g id="node1" class="node"><title>Node0</title>
<polygon fill="#bfbfbf" stroke="black" points="-0.5,-1 -0.5,-35 106.5,-35 106.5,-1 -0.5,-1"/>
<text text-anchor="start" x="7.5" y="-22" font-family="Helvetica,sans-Serif" font-size="10.00">ant::calibration::CB</text>
<text text-anchor="middle" x="53" y="-9" font-family="Helvetica,sans-Serif" font-size="10.00">_Energy::GUI_Gains</text>
</g>
<!-- Node1 -->
<g id="node2" class="node"><title>Node1</title>
<a xlink:href="structant_1_1calibration_1_1_g_u_i___calib_type.html" target="_top" xlink:title="The GUI_CalibType struct is an abstract base class for handling the data storage for a provided Calib...">
<polygon fill="white" stroke="black" points="1,-73 1,-107 105,-107 105,-73 1,-73"/>
<text text-anchor="start" x="9" y="-94" font-family="Helvetica,sans-Serif" font-size="10.00">ant::calibration::GUI</text>
<text text-anchor="middle" x="53" y="-81" font-family="Helvetica,sans-Serif" font-size="10.00">_CalibType</text>
</a>
</g>
<!-- Node1&#45;&gt;Node0 -->
<g id="edge2" class="edge"><title>Node1&#45;&gt;Node0</title>
<path fill="none" stroke="midnightblue" d="M53,-62.7193C53,-53.572 53,-43.6255 53,-35.4407"/>
<polygon fill="midnightblue" stroke="midnightblue" points="49.5001,-62.937 53,-72.937 56.5001,-62.937 49.5001,-62.937"/>
</g>
<!-- Node2 -->
<g id="node4" class="node"><title>Node2</title>
<a xlink:href="classant_1_1calibration_1_1gui_1_1_calib_module__traits.html" target="_top" xlink:title="ant::calibration::gui\l::CalibModule_traits">
<polygon fill="white" stroke="black" points="1,-145 1,-179 105,-179 105,-145 1,-145"/>
<text text-anchor="start" x="9" y="-166" font-family="Helvetica,sans-Serif" font-size="10.00">ant::calibration::gui</text>
<text text-anchor="middle" x="53" y="-153" font-family="Helvetica,sans-Serif" font-size="10.00">::CalibModule_traits</text>
</a>
</g>
<!-- Node2&#45;&gt;Node1 -->
<g id="edge4" class="edge"><title>Node2&#45;&gt;Node1</title>
<path fill="none" stroke="midnightblue" d="M53,-134.719C53,-125.572 53,-115.625 53,-107.441"/>
<polygon fill="midnightblue" stroke="midnightblue" points="49.5001,-134.937 53,-144.937 56.5001,-134.937 49.5001,-134.937"/>
</g>
</g>
</svg>
