<?xml version="1.0" encoding="UTF-8" standalone="no"?>
<!DOCTYPE svg PUBLIC "-//W3C//DTD SVG 1.1//EN"
 "http://www.w3.org/Graphics/SVG/1.1/DTD/svg11.dtd">
<!-- Generated by graphviz version 2.26.3 (20100126.1600)
 -->
<!-- Title: FitTAPS_Energy Pages: 1 -->
<svg width="259pt" height="670pt"
 viewBox="0.00 0.00 259.00 670.00" xmlns="http://www.w3.org/2000/svg" xmlns:xlink="http://www.w3.org/1999/xlink">
<g id="graph1" class="graph" transform="scale(1 1) rotate(0) translate(4 666)">
<title>FitTAPS_Energy</title>
<polygon fill="white" stroke="white" points="-4,5 -4,-666 256,-666 256,5 -4,5"/>
<!-- Node4 -->
<g id="node1" class="node"><title>Node4</title>
<polygon fill="#bfbfbf" stroke="black" points="16,-0.5 16,-21.5 106,-21.5 106,-0.5 16,-0.5"/>
<text text-anchor="middle" x="61" y="-8.5" font-family="Helvetica,sans-Serif" font-size="10.00">FitTAPS_Energy</text>
</g>
<!-- Node5 -->
<g id="node2" class="node"><title>Node5</title>
<a xlink:href="classant_1_1calibration_1_1gui_1_1_fit_gaus_pol3.html" target="_top" xlink:title="ant::calibration::gui\l::FitGausPol3">
<polygon fill="white" stroke="black" points="11.5,-61 11.5,-95 110.5,-95 110.5,-61 11.5,-61"/>
<text text-anchor="start" x="19.5" y="-82" font-family="Helvetica,sans-Serif" font-size="10.00">ant::calibration::gui</text>
<text text-anchor="middle" x="61" y="-69" font-family="Helvetica,sans-Serif" font-size="10.00">::FitGausPol3</text>
</a>
</g>
<!-- Node5&#45;&gt;Node4 -->
<g id="edge2" class="edge"><title>Node5&#45;&gt;Node4</title>
<path fill="none" stroke="midnightblue" d="M61,-50.5344C61,-40.3057 61,-29.3007 61,-21.5056"/>
<polygon fill="midnightblue" stroke="midnightblue" points="57.5001,-50.7458 61,-60.7458 64.5001,-50.7459 57.5001,-50.7458"/>
</g>
<!-- Node6 -->
<g id="node4" class="node"><title>Node6</title>
<a xlink:href="classant_1_1calibration_1_1gui_1_1_peaking_fit_function.html" target="_top" xlink:title="Fit functions describing peak shapes, like Gaus or Lorentz with optional background function...">
<polygon fill="white" stroke="black" points="7.5,-135 7.5,-169 114.5,-169 114.5,-135 7.5,-135"/>
<text text-anchor="start" x="15.5" y="-156" font-family="Helvetica,sans-Serif" font-size="10.00">ant::calibration::gui</text>
<text text-anchor="middle" x="61" y="-143" font-family="Helvetica,sans-Serif" font-size="10.00">::PeakingFitFunction</text>
</a>
</g>
<!-- Node6&#45;&gt;Node5 -->
<g id="edge4" class="edge"><title>Node6&#45;&gt;Node5</title>
<path fill="none" stroke="midnightblue" d="M61,-124.627C61,-114.725 61,-103.834 61,-95.07"/>
<polygon fill="midnightblue" stroke="midnightblue" points="57.5001,-124.837 61,-134.837 64.5001,-124.837 57.5001,-124.837"/>
</g>
<!-- Node7 -->
<g id="node6" class="node"><title>Node7</title>
<a xlink:href="classant_1_1calibration_1_1gui_1_1_fit_function.html" target="_top" xlink:title="ant::calibration::gui\l::FitFunction">
<polygon fill="white" stroke="black" points="11.5,-209 11.5,-243 110.5,-243 110.5,-209 11.5,-209"/>
<text text-anchor="start" x="19.5" y="-230" font-family="Helvetica,sans-Serif" font-size="10.00">ant::calibration::gui</text>
<text text-anchor="middle" x="61" y="-217" font-family="Helvetica,sans-Serif" font-size="10.00">::FitFunction</text>
</a>
</g>
<!-- Node7&#45;&gt;Node6 -->
<g id="edge6" class="edge"><title>Node7&#45;&gt;Node6</title>
<path fill="none" stroke="midnightblue" d="M61,-198.627C61,-188.725 61,-177.834 61,-169.07"/>
<polygon fill="midnightblue" stroke="midnightblue" points="57.5001,-198.837 61,-208.837 64.5001,-198.837 57.5001,-198.837"/>
</g>
<!-- Node8 -->
<g id="node8" class="node"><title>Node8</title>
<polygon fill="white" stroke="#bfbfbf" points="73,-295 73,-329 193,-329 193,-295 73,-295"/>
<text text-anchor="start" x="81" y="-316" font-family="Helvetica,sans-Serif" font-size="10.00">std::list&lt; std::unique</text>
<text text-anchor="middle" x="133" y="-303" font-family="Helvetica,sans-Serif" font-size="10.00">_ptr&lt; IndicatorKnob &gt; &gt;</text>
</g>
<!-- Node8&#45;&gt;Node7 -->
<g id="edge8" class="edge"><title>Node8&#45;&gt;Node7</title>
<path fill="none" stroke="#9a32cd" stroke-dasharray="5,2" d="M111.847,-286.734C100.08,-272.679 85.7482,-255.56 75.3029,-243.084"/>
<polygon fill="#9a32cd" stroke="#9a32cd" points="109.327,-289.176 118.43,-294.597 114.694,-284.682 109.327,-289.176"/>
<text text-anchor="middle" x="116" y="-266.5" font-family="Helvetica,sans-Serif" font-size="10.00"> knobs</text>
</g>
<!-- Node9 -->
<g id="node10" class="node"><title>Node9</title>
<polygon fill="white" stroke="#bfbfbf" points="123,-381 123,-415 251,-415 251,-381 123,-381"/>
<text text-anchor="start" x="131" y="-402" font-family="Helvetica,sans-Serif" font-size="10.00">std::unique_ptr&lt; Indicator</text>
<text text-anchor="middle" x="187" y="-389" font-family="Helvetica,sans-Serif" font-size="10.00">Knob &gt;</text>
</g>
<!-- Node9&#45;&gt;Node8 -->
<g id="edge10" class="edge"><title>Node9&#45;&gt;Node8</title>
<path fill="none" stroke="#9a32cd" stroke-dasharray="5,2" d="M170.638,-371.943C161.909,-358.041 151.415,-341.327 143.727,-329.084"/>
<polygon fill="#9a32cd" stroke="#9a32cd" points="167.79,-373.989 176.072,-380.597 173.719,-370.266 167.79,-373.989"/>
<text text-anchor="middle" x="184.5" y="-352.5" font-family="Helvetica,sans-Serif" font-size="10.00"> elements</text>
</g>
<!-- Node10 -->
<g id="node12" class="node"><title>Node10</title>
<a xlink:href="classant_1_1calibration_1_1gui_1_1_indicator_knob.html" target="_top" xlink:title="ant::calibration::gui\l::IndicatorKnob">
<polygon fill="white" stroke="black" points="117.5,-467 117.5,-501 216.5,-501 216.5,-467 117.5,-467"/>
<text text-anchor="start" x="125.5" y="-488" font-family="Helvetica,sans-Serif" font-size="10.00">ant::calibration::gui</text>
<text text-anchor="middle" x="167" y="-475" font-family="Helvetica,sans-Serif" font-size="10.00">::IndicatorKnob</text>
</a>
</g>
<!-- Node10&#45;&gt;Node9 -->
<g id="edge12" class="edge"><title>Node10&#45;&gt;Node9</title>
<path fill="none" stroke="#9a32cd" stroke-dasharray="5,2" d="M173.339,-456.744C176.514,-443.09 180.261,-426.977 183.027,-415.084"/>
<polygon fill="#9a32cd" stroke="#9a32cd" points="169.903,-456.064 171.047,-466.597 176.722,-457.649 169.903,-456.064"/>
<text text-anchor="middle" x="185.5" y="-438.5" font-family="Helvetica,sans-Serif" font-size="10.00"> ptr</text>
</g>
<!-- Node11 -->
<g id="node14" class="node"><title>Node11</title>
<a xlink:title="STL class. ">
<polygon fill="white" stroke="#bfbfbf" points="17,-559.5 17,-580.5 77,-580.5 77,-559.5 17,-559.5"/>
<text text-anchor="middle" x="47" y="-567.5" font-family="Helvetica,sans-Serif" font-size="10.00">std::string</text>
</a>
</g>
<!-- Node11&#45;&gt;Node7 -->
<g id="edge20" class="edge"><title>Node11&#45;&gt;Node7</title>
<path fill="none" stroke="#9a32cd" stroke-dasharray="5,2" d="M39.5403,-549.766C33.8564,-532.53 27,-506.977 27,-484 27,-484 27,-484 27,-312 27,-286.633 39.9513,-259.819 49.8671,-243.007"/>
<polygon fill="#9a32cd" stroke="#9a32cd" points="36.2722,-551.024 42.856,-559.325 42.8857,-548.73 36.2722,-551.024"/>
<text text-anchor="middle" x="66" y="-395.5" font-family="Helvetica,sans-Serif" font-size="10.00"> AdditionalFitArgs</text>
</g>
<!-- Node11&#45;&gt;Node10 -->
<g id="edge14" class="edge"><title>Node11&#45;&gt;Node10</title>
<path fill="none" stroke="#9a32cd" stroke-dasharray="5,2" d="M70.0351,-553.491C90.9904,-538.474 121.802,-516.392 143.041,-501.171"/>
<polygon fill="#9a32cd" stroke="#9a32cd" points="67.8037,-550.785 61.7144,-559.455 71.8814,-556.474 67.8037,-550.785"/>
<text text-anchor="middle" x="128" y="-524.5" font-family="Helvetica,sans-Serif" font-size="10.00"> name</text>
</g>
<!-- Node12 -->
<g id="node16" class="node"><title>Node12</title>
<a xlink:title="STL class. ">
<polygon fill="white" stroke="#bfbfbf" points="-0.5,-627 -0.5,-661 94.5,-661 94.5,-627 -0.5,-627"/>
<text text-anchor="start" x="7.5" y="-648" font-family="Helvetica,sans-Serif" font-size="10.00">std::basic_string&lt;</text>
<text text-anchor="middle" x="47" y="-635" font-family="Helvetica,sans-Serif" font-size="10.00"> char &gt;</text>
</a>
</g>
<!-- Node12&#45;&gt;Node11 -->
<g id="edge16" class="edge"><title>Node12&#45;&gt;Node11</title>
<path fill="none" stroke="midnightblue" d="M47,-616.506C47,-604.13 47,-590.232 47,-580.879"/>
<polygon fill="midnightblue" stroke="midnightblue" points="43.5001,-616.837 47,-626.837 50.5001,-616.837 43.5001,-616.837"/>
</g>
<!-- Node13 -->
<g id="node18" class="node"><title>Node13</title>
<a xlink:href="structant_1_1calibration_1_1gui_1_1_indicator_properties.html" target="_top" xlink:title="ant::calibration::gui\l::IndicatorProperties">
<polygon fill="white" stroke="black" points="115,-553 115,-587 219,-587 219,-553 115,-553"/>
<text text-anchor="start" x="123" y="-574" font-family="Helvetica,sans-Serif" font-size="10.00">ant::calibration::gui</text>
<text text-anchor="middle" x="167" y="-561" font-family="Helvetica,sans-Serif" font-size="10.00">::IndicatorProperties</text>
</a>
</g>
<!-- Node13&#45;&gt;Node10 -->
<g id="edge18" class="edge"><title>Node13&#45;&gt;Node10</title>
<path fill="none" stroke="#9a32cd" stroke-dasharray="5,2" d="M167,-542.342C167,-528.774 167,-512.861 167,-501.084"/>
<polygon fill="#9a32cd" stroke="#9a32cd" points="163.5,-542.597 167,-552.597 170.5,-542.597 163.5,-542.597"/>
<text text-anchor="middle" x="175" y="-524.5" font-family="Helvetica,sans-Serif" font-size="10.00"> gui</text>
</g>
</g>
</svg>
