<?xml version="1.0" encoding="UTF-8" standalone="no"?>
<!DOCTYPE svg PUBLIC "-//W3C//DTD SVG 1.1//EN"
 "http://www.w3.org/Graphics/SVG/1.1/DTD/svg11.dtd">
<!-- Generated by graphviz version 2.26.3 (20100126.1600)
 -->
<!-- Title: ant::expconfig::detector::TAPS::BaF2_Element_t Pages: 1 -->
<svg width="140pt" height="246pt"
 viewBox="0.00 0.00 140.00 246.00" xmlns="http://www.w3.org/2000/svg" xmlns:xlink="http://www.w3.org/1999/xlink">
<g id="graph1" class="graph" transform="scale(1 1) rotate(0) translate(4 242)">
<title>ant::expconfig::detector::TAPS::BaF2_Element_t</title>
<polygon fill="white" stroke="white" points="-4,5 -4,-242 137,-242 137,5 -4,5"/>
<!-- Node0 -->
<g id="node1" class="node"><title>Node0</title>
<polygon fill="#bfbfbf" stroke="black" points="2,-1 2,-35 130,-35 130,-1 2,-1"/>
<text text-anchor="start" x="10" y="-22" font-family="Helvetica,sans-Serif" font-size="10.00">ant::expconfig::detector</text>
<text text-anchor="middle" x="66" y="-9" font-family="Helvetica,sans-Serif" font-size="10.00">::TAPS::BaF2_Element_t</text>
</g>
<!-- Node1 -->
<g id="node2" class="node"><title>Node1</title>
<a xlink:href="structant_1_1expconfig_1_1detector_1_1_t_a_p_s_1_1_t_a_p_s___element__t.html" target="_top" xlink:title="ant::expconfig::detector\l::TAPS::TAPS_Element_t">
<polygon fill="white" stroke="black" points="0.5,-73 0.5,-107 131.5,-107 131.5,-73 0.5,-73"/>
<text text-anchor="start" x="8.5" y="-94" font-family="Helvetica,sans-Serif" font-size="10.00">ant::expconfig::detector</text>
<text text-anchor="middle" x="66" y="-81" font-family="Helvetica,sans-Serif" font-size="10.00">::TAPS::TAPS_Element_t</text>
</a>
</g>
<!-- Node1&#45;&gt;Node0 -->
<g id="edge2" class="edge"><title>Node1&#45;&gt;Node0</title>
<path fill="none" stroke="midnightblue" d="M66,-62.7193C66,-53.572 66,-43.6255 66,-35.4407"/>
<polygon fill="midnightblue" stroke="midnightblue" points="62.5001,-62.937 66,-72.937 69.5001,-62.937 62.5001,-62.937"/>
</g>
<!-- Node2 -->
<g id="node4" class="node"><title>Node2</title>
<a xlink:href="structant_1_1_cluster_detector__t_1_1_element__t.html" target="_top" xlink:title="ant::ClusterDetector\l_t::Element_t">
<polygon fill="white" stroke="black" points="13.5,-145 13.5,-179 118.5,-179 118.5,-145 13.5,-145"/>
<text text-anchor="start" x="21.5" y="-166" font-family="Helvetica,sans-Serif" font-size="10.00">ant::ClusterDetector</text>
<text text-anchor="middle" x="66" y="-153" font-family="Helvetica,sans-Serif" font-size="10.00">_t::Element_t</text>
</a>
</g>
<!-- Node2&#45;&gt;Node1 -->
<g id="edge4" class="edge"><title>Node2&#45;&gt;Node1</title>
<path fill="none" stroke="midnightblue" d="M66,-134.719C66,-125.572 66,-115.625 66,-107.441"/>
<polygon fill="midnightblue" stroke="midnightblue" points="62.5001,-134.937 66,-144.937 69.5001,-134.937 62.5001,-134.937"/>
</g>
<!-- Node3 -->
<g id="node6" class="node"><title>Node3</title>
<a xlink:href="structant_1_1_detector__t_1_1_element__t.html" target="_top" xlink:title="ant::Detector_t::Element_t">
<polygon fill="white" stroke="black" points="0,-216.5 0,-237.5 132,-237.5 132,-216.5 0,-216.5"/>
<text text-anchor="middle" x="66" y="-224.5" font-family="Helvetica,sans-Serif" font-size="10.00">ant::Detector_t::Element_t</text>
</a>
</g>
<!-- Node3&#45;&gt;Node2 -->
<g id="edge6" class="edge"><title>Node3&#45;&gt;Node2</title>
<path fill="none" stroke="midnightblue" d="M66,-206.131C66,-197.405 66,-187.391 66,-179.11"/>
<polygon fill="midnightblue" stroke="midnightblue" points="62.5001,-206.267 66,-216.267 69.5001,-206.267 62.5001,-206.267"/>
</g>
</g>
</svg>
