<?xml version="1.0" encoding="UTF-8" standalone="no"?>
<!DOCTYPE svg PUBLIC "-//W3C//DTD SVG 1.1//EN"
 "http://www.w3.org/Graphics/SVG/1.1/DTD/svg11.dtd">
<!-- Generated by graphviz version 2.26.3 (20100126.1600)
 -->
<!-- Title: SigOmegaPi0Hist_t Pages: 1 -->
<svg width="886pt" height="382pt"
 viewBox="0.00 0.00 886.00 382.00" xmlns="http://www.w3.org/2000/svg" xmlns:xlink="http://www.w3.org/1999/xlink">
<g id="graph1" class="graph" transform="scale(1 1) rotate(0) translate(4 378)">
<title>SigOmegaPi0Hist_t</title>
<polygon fill="white" stroke="white" points="-4,5 -4,-378 883,-378 883,5 -4,5"/>
<!-- Node4 -->
<g id="node1" class="node"><title>Node4</title>
<polygon fill="#bfbfbf" stroke="black" points="774.5,-47.5 774.5,-68.5 877.5,-68.5 877.5,-47.5 774.5,-47.5"/>
<text text-anchor="middle" x="826" y="-55.5" font-family="Helvetica,sans-Serif" font-size="10.00">SigOmegaPi0Hist_t</text>
</g>
<!-- Node5 -->
<g id="node2" class="node"><title>Node5</title>
<a xlink:href="struct_sig_hist__t.html" target="_top" xlink:title="SigHist_t">
<polygon fill="white" stroke="black" points="678.5,-47.5 678.5,-68.5 735.5,-68.5 735.5,-47.5 678.5,-47.5"/>
<text text-anchor="middle" x="707" y="-55.5" font-family="Helvetica,sans-Serif" font-size="10.00">SigHist_t</text>
</a>
</g>
<!-- Node5&#45;&gt;Node4 -->
<g id="edge2" class="edge"><title>Node5&#45;&gt;Node4</title>
<path fill="none" stroke="midnightblue" d="M745.533,-58C754.755,-58 764.749,-58 774.455,-58"/>
<polygon fill="midnightblue" stroke="midnightblue" points="745.503,-54.5001 735.503,-58 745.503,-61.5001 745.503,-54.5001"/>
</g>
<!-- Node6 -->
<g id="node4" class="node"><title>Node6</title>
<a xlink:href="struct_common_hist__t.html" target="_top" xlink:title="CommonHist_t">
<polygon fill="white" stroke="black" points="529.5,-0.5 529.5,-21.5 612.5,-21.5 612.5,-0.5 529.5,-0.5"/>
<text text-anchor="middle" x="571" y="-8.5" font-family="Helvetica,sans-Serif" font-size="10.00">CommonHist_t</text>
</a>
</g>
<!-- Node6&#45;&gt;Node5 -->
<g id="edge4" class="edge"><title>Node6&#45;&gt;Node5</title>
<path fill="none" stroke="midnightblue" d="M611.096,-24.8567C632.72,-32.3298 658.9,-41.3771 678.439,-48.1298"/>
<polygon fill="midnightblue" stroke="midnightblue" points="612.116,-21.5061 601.521,-21.5477 609.829,-28.1221 612.116,-21.5061"/>
</g>
<!-- Node7 -->
<g id="node6" class="node"><title>Node7</title>
<a xlink:href="classant_1_1_bin_settings.html" target="_top" xlink:title="ant::BinSettings">
<polygon fill="white" stroke="black" points="284,-47.5 284,-68.5 370,-68.5 370,-47.5 284,-47.5"/>
<text text-anchor="middle" x="327" y="-55.5" font-family="Helvetica,sans-Serif" font-size="10.00">ant::BinSettings</text>
</a>
</g>
<!-- Node7&#45;&gt;Node5 -->
<g id="edge32" class="edge"><title>Node7&#45;&gt;Node5</title>
<path fill="none" stroke="#9a32cd" stroke-dasharray="5,2" d="M380.285,-58C461.874,-58 614.96,-58 678.367,-58"/>
<polygon fill="#9a32cd" stroke="#9a32cd" points="380.221,-54.5001 370.221,-58 380.221,-61.5001 380.221,-54.5001"/>
<text text-anchor="middle" x="571" y="-192" font-family="Helvetica,sans-Serif" font-size="10.00"> bins_IM_Etap</text>
<text text-anchor="middle" x="571" y="-179" font-family="Helvetica,sans-Serif" font-size="10.00">TaggTime</text>
<text text-anchor="middle" x="571" y="-166" font-family="Helvetica,sans-Serif" font-size="10.00">Chi2Bins</text>
<text text-anchor="middle" x="571" y="-153" font-family="Helvetica,sans-Serif" font-size="10.00">bins_ZVertex</text>
<text text-anchor="middle" x="571" y="-140" font-family="Helvetica,sans-Serif" font-size="10.00">bins_IM_Omega</text>
<text text-anchor="middle" x="571" y="-127" font-family="Helvetica,sans-Serif" font-size="10.00">CoplBins</text>
<text text-anchor="middle" x="571" y="-114" font-family="Helvetica,sans-Serif" font-size="10.00">free_vz</text>
<text text-anchor="middle" x="571" y="-101" font-family="Helvetica,sans-Serif" font-size="10.00">MMbins</text>
<text text-anchor="middle" x="571" y="-88" font-family="Helvetica,sans-Serif" font-size="10.00">zVertex</text>
<text text-anchor="middle" x="571" y="-75" font-family="Helvetica,sans-Serif" font-size="10.00">TaggChBins</text>
<text text-anchor="middle" x="571" y="-62" font-family="Helvetica,sans-Serif" font-size="10.00">...</text>
</g>
<!-- Node7&#45;&gt;Node6 -->
<g id="edge6" class="edge"><title>Node7&#45;&gt;Node6</title>
<path fill="none" stroke="#9a32cd" stroke-dasharray="5,2" d="M352.417,-42.4061C368.341,-33.5012 389.64,-23.1179 410,-18 449.615,-8.04191 496.411,-7.16547 529.311,-8.25086"/>
<polygon fill="#9a32cd" stroke="#9a32cd" points="350.625,-39.3996 343.711,-47.4274 354.122,-45.4635 350.625,-39.3996"/>
<text text-anchor="middle" x="447" y="-35" font-family="Helvetica,sans-Serif" font-size="10.00"> bins_LogFitProb</text>
<text text-anchor="middle" x="447" y="-22" font-family="Helvetica,sans-Serif" font-size="10.00">bins_FitProb</text>
</g>
<!-- Node9 -->
<g id="node10" class="node"><title>Node9</title>
<a xlink:href="struct_hist__t.html" target="_top" xlink:title="Hist_t\&lt; physics::EtapDalitz\l::SigTree_t \&gt;">
<polygon fill="white" stroke="black" points="502.5,-240 502.5,-274 639.5,-274 639.5,-240 502.5,-240"/>
<text text-anchor="start" x="510.5" y="-261" font-family="Helvetica,sans-Serif" font-size="10.00">Hist_t&lt; physics::EtapDalitz</text>
<text text-anchor="middle" x="571" y="-248" font-family="Helvetica,sans-Serif" font-size="10.00">::SigTree_t &gt;</text>
</a>
</g>
<!-- Node7&#45;&gt;Node9 -->
<g id="edge30" class="edge"><title>Node7&#45;&gt;Node9</title>
<path fill="none" stroke="#9a32cd" stroke-dasharray="5,2" d="M380.175,-68.4503C420.043,-77.372 470.036,-91.2373 484,-107 513.365,-140.148 478.728,-167.324 502,-205 510.907,-219.421 525.395,-231.242 538.801,-239.95"/>
<polygon fill="#9a32cd" stroke="#9a32cd" points="380.802,-65.0048 370.286,-66.2905 379.308,-71.8436 380.802,-65.0048"/>
<text text-anchor="middle" x="447" y="-241" font-family="Helvetica,sans-Serif" font-size="10.00"> vetoEbins</text>
<text text-anchor="middle" x="447" y="-228" font-family="Helvetica,sans-Serif" font-size="10.00">TaggTime</text>
<text text-anchor="middle" x="447" y="-215" font-family="Helvetica,sans-Serif" font-size="10.00">pEbins</text>
<text text-anchor="middle" x="447" y="-202" font-family="Helvetica,sans-Serif" font-size="10.00">Chi2Bins</text>
<text text-anchor="middle" x="447" y="-189" font-family="Helvetica,sans-Serif" font-size="10.00">pThetaBins</text>
<text text-anchor="middle" x="447" y="-176" font-family="Helvetica,sans-Serif" font-size="10.00">CoplBins</text>
<text text-anchor="middle" x="447" y="-163" font-family="Helvetica,sans-Serif" font-size="10.00">MMbins</text>
<text text-anchor="middle" x="447" y="-150" font-family="Helvetica,sans-Serif" font-size="10.00">zVertex</text>
<text text-anchor="middle" x="447" y="-137" font-family="Helvetica,sans-Serif" font-size="10.00">TaggChBins</text>
<text text-anchor="middle" x="447" y="-124" font-family="Helvetica,sans-Serif" font-size="10.00">PSARBins</text>
<text text-anchor="middle" x="447" y="-111" font-family="Helvetica,sans-Serif" font-size="10.00">...</text>
</g>
<!-- Node8 -->
<g id="node8" class="node"><title>Node8</title>
<a xlink:href="classant_1_1interval.html" target="_top" xlink:title="ant::interval\&lt; double \&gt;">
<polygon fill="white" stroke="black" points="110,-47.5 110,-68.5 224,-68.5 224,-47.5 110,-47.5"/>
<text text-anchor="middle" x="167" y="-55.5" font-family="Helvetica,sans-Serif" font-size="10.00">ant::interval&lt; double &gt;</text>
</a>
</g>
<!-- Node8&#45;&gt;Node7 -->
<g id="edge8" class="edge"><title>Node8&#45;&gt;Node7</title>
<path fill="none" stroke="midnightblue" d="M234.587,-58C251.285,-58 268.724,-58 283.895,-58"/>
<polygon fill="midnightblue" stroke="midnightblue" points="234.312,-54.5001 224.312,-58 234.312,-61.5001 234.312,-54.5001"/>
</g>
<!-- Node9&#45;&gt;Node5 -->
<g id="edge10" class="edge"><title>Node9&#45;&gt;Node5</title>
<path fill="none" stroke="midnightblue" d="M608.309,-234.103C619.519,-225.935 631.172,-216 640,-205 675.637,-160.598 696.885,-94.1811 704.156,-68.5837"/>
<polygon fill="midnightblue" stroke="midnightblue" points="606.07,-231.397 599.877,-239.993 610.079,-237.136 606.07,-231.397"/>
</g>
<!-- Node10 -->
<g id="node12" class="node"><title>Node10</title>
<a xlink:href="struct_hist__t_1_1_hist_mgr.html" target="_top" xlink:title="Hist_t\&lt; Tree_t \&gt;::HistMgr\l\&lt; TH1D \&gt;">
<polygon fill="white" stroke="black" points="262.5,-340 262.5,-374 391.5,-374 391.5,-340 262.5,-340"/>
<text text-anchor="start" x="270.5" y="-361" font-family="Helvetica,sans-Serif" font-size="10.00">Hist_t&lt; Tree_t &gt;::HistMgr</text>
<text text-anchor="middle" x="327" y="-348" font-family="Helvetica,sans-Serif" font-size="10.00">&lt; TH1D &gt;</text>
</a>
</g>
<!-- Node10&#45;&gt;Node9 -->
<g id="edge12" class="edge"><title>Node10&#45;&gt;Node9</title>
<path fill="none" stroke="#9a32cd" stroke-dasharray="5,2" d="M396.813,-336.917C424.399,-328.198 456.11,-317.188 484,-305 504.391,-296.089 526.323,-283.97 543.065,-274.139"/>
<polygon fill="#9a32cd" stroke="#9a32cd" points="395.744,-333.583 387.24,-339.903 397.829,-340.266 395.744,-333.583"/>
<text text-anchor="middle" x="447" y="-336" font-family="Helvetica,sans-Serif" font-size="10.00"> h1</text>
</g>
<!-- Node11 -->
<g id="node14" class="node"><title>Node11</title>
<a xlink:title="STL class. ">
<polygon fill="white" stroke="#bfbfbf" points="118.5,-340 118.5,-374 215.5,-374 215.5,-340 118.5,-340"/>
<text text-anchor="start" x="126.5" y="-361" font-family="Helvetica,sans-Serif" font-size="10.00">std::list&lt; HistFiller</text>
<text text-anchor="middle" x="167" y="-348" font-family="Helvetica,sans-Serif" font-size="10.00">_t&lt; TH1D &gt; &gt;</text>
</a>
</g>
<!-- Node11&#45;&gt;Node10 -->
<g id="edge14" class="edge"><title>Node11&#45;&gt;Node10</title>
<path fill="none" stroke="midnightblue" d="M226.096,-350.459C237.953,-350.217 250.469,-350.185 262.498,-350.364"/>
<polygon fill="midnightblue" stroke="midnightblue" points="225.78,-346.966 215.875,-350.726 225.963,-353.964 225.78,-346.966"/>
</g>
<!-- Node11&#45;&gt;Node10 -->
<g id="edge18" class="edge"><title>Node11&#45;&gt;Node10</title>
<path fill="none" stroke="midnightblue" d="M226.096,-363.541C237.953,-363.783 250.469,-363.815 262.498,-363.636"/>
<polygon fill="midnightblue" stroke="midnightblue" points="225.963,-360.036 215.875,-363.274 225.78,-367.034 225.963,-360.036"/>
</g>
<!-- Node12 -->
<g id="node16" class="node"><title>Node12</title>
<polygon fill="white" stroke="#bfbfbf" points="0.5,-322.5 0.5,-343.5 29.5,-343.5 29.5,-322.5 0.5,-322.5"/>
<text text-anchor="middle" x="15" y="-330.5" font-family="Helvetica,sans-Serif" font-size="10.00">T</text>
</g>
<!-- Node12&#45;&gt;Node11 -->
<g id="edge16" class="edge"><title>Node12&#45;&gt;Node11</title>
<path fill="none" stroke="#9a32cd" stroke-dasharray="5,2" d="M39.6807,-336.897C60.9064,-340.248 92.1552,-345.182 118.382,-349.323"/>
<polygon fill="#9a32cd" stroke="#9a32cd" points="39.9979,-333.404 29.5744,-335.301 38.9061,-340.318 39.9979,-333.404"/>
<text text-anchor="middle" x="70" y="-349" font-family="Helvetica,sans-Serif" font-size="10.00"> elements</text>
</g>
<!-- Node14 -->
<g id="node21" class="node"><title>Node14</title>
<a xlink:title="STL class. ">
<polygon fill="white" stroke="#bfbfbf" points="118.5,-288 118.5,-322 215.5,-322 215.5,-288 118.5,-288"/>
<text text-anchor="start" x="126.5" y="-309" font-family="Helvetica,sans-Serif" font-size="10.00">std::list&lt; HistFiller</text>
<text text-anchor="middle" x="167" y="-296" font-family="Helvetica,sans-Serif" font-size="10.00">_t&lt; TH2D &gt; &gt;</text>
</a>
</g>
<!-- Node12&#45;&gt;Node14 -->
<g id="edge24" class="edge"><title>Node12&#45;&gt;Node14</title>
<path fill="none" stroke="#9a32cd" stroke-dasharray="5,2" d="M39.1915,-323.536C42.1307,-322.585 45.1141,-321.71 48,-321 70.7724,-315.398 96.5112,-311.63 118.211,-309.165"/>
<polygon fill="#9a32cd" stroke="#9a32cd" points="37.8374,-320.302 29.575,-326.934 40.1698,-326.902 37.8374,-320.302"/>
<text text-anchor="middle" x="70" y="-325" font-family="Helvetica,sans-Serif" font-size="10.00"> elements</text>
</g>
<!-- Node13 -->
<g id="node19" class="node"><title>Node13</title>
<a xlink:href="struct_hist__t_1_1_hist_mgr.html" target="_top" xlink:title="Hist_t\&lt; Tree_t \&gt;::HistMgr\l\&lt; TH2D \&gt;">
<polygon fill="white" stroke="black" points="262.5,-288 262.5,-322 391.5,-322 391.5,-288 262.5,-288"/>
<text text-anchor="start" x="270.5" y="-309" font-family="Helvetica,sans-Serif" font-size="10.00">Hist_t&lt; Tree_t &gt;::HistMgr</text>
<text text-anchor="middle" x="327" y="-296" font-family="Helvetica,sans-Serif" font-size="10.00">&lt; TH2D &gt;</text>
</a>
</g>
<!-- Node13&#45;&gt;Node9 -->
<g id="edge20" class="edge"><title>Node13&#45;&gt;Node9</title>
<path fill="none" stroke="#9a32cd" stroke-dasharray="5,2" d="M401.921,-290.261C433.851,-283.98 470.862,-276.699 502.102,-270.554"/>
<polygon fill="#9a32cd" stroke="#9a32cd" points="400.883,-286.898 391.747,-292.263 402.234,-293.767 400.883,-286.898"/>
<text text-anchor="middle" x="447" y="-292" font-family="Helvetica,sans-Serif" font-size="10.00"> h2</text>
</g>
<!-- Node14&#45;&gt;Node13 -->
<g id="edge22" class="edge"><title>Node14&#45;&gt;Node13</title>
<path fill="none" stroke="midnightblue" d="M226.096,-298.459C237.953,-298.217 250.469,-298.185 262.498,-298.364"/>
<polygon fill="midnightblue" stroke="midnightblue" points="225.78,-294.966 215.875,-298.726 225.963,-301.964 225.78,-294.966"/>
</g>
<!-- Node14&#45;&gt;Node13 -->
<g id="edge26" class="edge"><title>Node14&#45;&gt;Node13</title>
<path fill="none" stroke="midnightblue" d="M226.096,-311.541C237.953,-311.783 250.469,-311.815 262.498,-311.636"/>
<polygon fill="midnightblue" stroke="midnightblue" points="225.963,-308.036 215.875,-311.274 225.78,-315.034 225.963,-308.036"/>
</g>
<!-- Node15 -->
<g id="node25" class="node"><title>Node15</title>
<a xlink:href="classant_1_1analysis_1_1_histogram_factory.html" target="_top" xlink:title="ant::analysis::Histogram\lFactory">
<polygon fill="white" stroke="black" points="265.5,-236 265.5,-270 388.5,-270 388.5,-236 265.5,-236"/>
<text text-anchor="start" x="273.5" y="-257" font-family="Helvetica,sans-Serif" font-size="10.00">ant::analysis::Histogram</text>
<text text-anchor="middle" x="327" y="-244" font-family="Helvetica,sans-Serif" font-size="10.00">Factory</text>
</a>
</g>
<!-- Node15&#45;&gt;Node9 -->
<g id="edge28" class="edge"><title>Node15&#45;&gt;Node9</title>
<path fill="none" stroke="#9a32cd" stroke-dasharray="5,2" d="M398.938,-254.179C431.537,-254.714 469.906,-255.343 502.129,-255.871"/>
<polygon fill="#9a32cd" stroke="#9a32cd" points="398.628,-250.674 388.572,-254.009 398.513,-257.673 398.628,-250.674"/>
<text text-anchor="middle" x="447" y="-259" font-family="Helvetica,sans-Serif" font-size="10.00"> HistFac</text>
</g>
</g>
</svg>
