<?xml version="1.0" encoding="UTF-8" standalone="no"?>
<!DOCTYPE svg PUBLIC "-//W3C//DTD SVG 1.1//EN"
 "http://www.w3.org/Graphics/SVG/1.1/DTD/svg11.dtd">
<!-- Generated by graphviz version 2.26.3 (20100126.1600)
 -->
<!-- Title: ant::TCluster Pages: 1 -->
<svg width="212pt" height="418pt"
 viewBox="0.00 0.00 212.00 418.00" xmlns="http://www.w3.org/2000/svg" xmlns:xlink="http://www.w3.org/1999/xlink">
<g id="graph1" class="graph" transform="scale(1 1) rotate(0) translate(4 414)">
<title>ant::TCluster</title>
<polygon fill="white" stroke="white" points="-4,5 -4,-414 209,-414 209,5 -4,5"/>
<!-- Node1 -->
<g id="node1" class="node"><title>Node1</title>
<polygon fill="#bfbfbf" stroke="black" points="34,-0.5 34,-21.5 108,-21.5 108,-0.5 34,-0.5"/>
<text text-anchor="middle" x="71" y="-8.5" font-family="Helvetica,sans-Serif" font-size="10.00">ant::TCluster</text>
</g>
<!-- Node2 -->
<g id="node2" class="node"><title>Node2</title>
<a xlink:href="structant_1_1vec3.html" target="_top" xlink:title="ant::vec3">
<polygon fill="white" stroke="black" points="-0.5,-72.5 -0.5,-93.5 56.5,-93.5 56.5,-72.5 -0.5,-72.5"/>
<text text-anchor="middle" x="28" y="-80.5" font-family="Helvetica,sans-Serif" font-size="10.00">ant::vec3</text>
</a>
</g>
<!-- Node2&#45;&gt;Node1 -->
<g id="edge2" class="edge"><title>Node2&#45;&gt;Node1</title>
<path fill="none" stroke="#9a32cd" stroke-dasharray="5,2" d="M39.0747,-63.6788C43.3753,-56.2482 48.3717,-47.7026 53,-40 56.6624,-33.9048 60.8464,-27.1518 64.2582,-21.697"/>
<polygon fill="#9a32cd" stroke="#9a32cd" points="36.0399,-61.9353 34.0796,-72.3472 42.105,-65.4303 36.0399,-61.9353"/>
<text text-anchor="middle" x="72.5" y="-44.5" font-family="Helvetica,sans-Serif" font-size="10.00"> Position</text>
</g>
<!-- Node3 -->
<g id="node4" class="node"><title>Node3</title>
<polygon fill="white" stroke="#bfbfbf" points="73.5,-72.5 73.5,-93.5 204.5,-93.5 204.5,-72.5 73.5,-72.5"/>
<text text-anchor="middle" x="139" y="-80.5" font-family="Helvetica,sans-Serif" font-size="10.00">std::vector&lt; TClusterHit &gt;</text>
</g>
<!-- Node3&#45;&gt;Node1 -->
<g id="edge4" class="edge"><title>Node3&#45;&gt;Node1</title>
<path fill="none" stroke="#9a32cd" stroke-dasharray="5,2" d="M121.969,-64.9677C109.089,-51.3294 91.8386,-33.0644 81.0748,-21.6674"/>
<polygon fill="#9a32cd" stroke="#9a32cd" points="119.556,-67.5092 128.966,-72.3762 124.645,-62.7028 119.556,-67.5092"/>
<text text-anchor="middle" x="122" y="-44.5" font-family="Helvetica,sans-Serif" font-size="10.00"> Hits</text>
</g>
<!-- Node4 -->
<g id="node6" class="node"><title>Node4</title>
<a xlink:href="structant_1_1_t_cluster_hit.html" target="_top" xlink:title="ant::TClusterHit">
<polygon fill="white" stroke="black" points="96,-144.5 96,-165.5 182,-165.5 182,-144.5 96,-144.5"/>
<text text-anchor="middle" x="139" y="-152.5" font-family="Helvetica,sans-Serif" font-size="10.00">ant::TClusterHit</text>
</a>
</g>
<!-- Node4&#45;&gt;Node3 -->
<g id="edge6" class="edge"><title>Node4&#45;&gt;Node3</title>
<path fill="none" stroke="#9a32cd" stroke-dasharray="5,2" d="M139,-134.235C139,-120.969 139,-104.319 139,-93.6674"/>
<polygon fill="#9a32cd" stroke="#9a32cd" points="135.5,-134.376 139,-144.376 142.5,-134.376 135.5,-134.376"/>
<text text-anchor="middle" x="160.5" y="-116.5" font-family="Helvetica,sans-Serif" font-size="10.00"> elements</text>
</g>
<!-- Node5 -->
<g id="node8" class="node"><title>Node5</title>
<polygon fill="white" stroke="#bfbfbf" points="74.5,-217 74.5,-251 203.5,-251 203.5,-217 74.5,-217"/>
<text text-anchor="start" x="82.5" y="-238" font-family="Helvetica,sans-Serif" font-size="10.00">std::vector&lt; ant::TCluster</text>
<text text-anchor="middle" x="139" y="-225" font-family="Helvetica,sans-Serif" font-size="10.00">Hit::Datum &gt;</text>
</g>
<!-- Node5&#45;&gt;Node4 -->
<g id="edge8" class="edge"><title>Node5&#45;&gt;Node4</title>
<path fill="none" stroke="#9a32cd" stroke-dasharray="5,2" d="M139,-206.623C139,-192.473 139,-176.024 139,-165.567"/>
<polygon fill="#9a32cd" stroke="#9a32cd" points="135.5,-206.858 139,-216.858 142.5,-206.858 135.5,-206.858"/>
<text text-anchor="middle" x="151.5" y="-188.5" font-family="Helvetica,sans-Serif" font-size="10.00"> Data</text>
</g>
<!-- Node6 -->
<g id="node10" class="node"><title>Node6</title>
<a xlink:href="structant_1_1_t_cluster_hit_1_1_datum.html" target="_top" xlink:title="ant::TClusterHit::Datum">
<polygon fill="white" stroke="black" points="78,-302.5 78,-323.5 200,-323.5 200,-302.5 78,-302.5"/>
<text text-anchor="middle" x="139" y="-310.5" font-family="Helvetica,sans-Serif" font-size="10.00">ant::TClusterHit::Datum</text>
</a>
</g>
<!-- Node6&#45;&gt;Node5 -->
<g id="edge10" class="edge"><title>Node6&#45;&gt;Node5</title>
<path fill="none" stroke="#9a32cd" stroke-dasharray="5,2" d="M139,-292.162C139,-279.363 139,-263.171 139,-251.124"/>
<polygon fill="#9a32cd" stroke="#9a32cd" points="135.5,-292.346 139,-302.346 142.5,-292.346 135.5,-292.346"/>
<text text-anchor="middle" x="160.5" y="-274.5" font-family="Helvetica,sans-Serif" font-size="10.00"> elements</text>
</g>
<!-- Node7 -->
<g id="node12" class="node"><title>Node7</title>
<a xlink:href="structant_1_1_t_detector_read_hit_1_1_value__t.html" target="_top" xlink:title="ant::TDetectorReadHit\l::Value_t">
<polygon fill="white" stroke="black" points="81,-375 81,-409 197,-409 197,-375 81,-375"/>
<text text-anchor="start" x="89" y="-396" font-family="Helvetica,sans-Serif" font-size="10.00">ant::TDetectorReadHit</text>
<text text-anchor="middle" x="139" y="-383" font-family="Helvetica,sans-Serif" font-size="10.00">::Value_t</text>
</a>
</g>
<!-- Node7&#45;&gt;Node6 -->
<g id="edge12" class="edge"><title>Node7&#45;&gt;Node6</title>
<path fill="none" stroke="#9a32cd" stroke-dasharray="5,2" d="M139,-364.623C139,-350.473 139,-334.024 139,-323.567"/>
<polygon fill="#9a32cd" stroke="#9a32cd" points="135.5,-364.858 139,-374.858 142.5,-364.858 135.5,-364.858"/>
<text text-anchor="middle" x="153" y="-346.5" font-family="Helvetica,sans-Serif" font-size="10.00"> Value</text>
</g>
</g>
</svg>
