<?xml version="1.0" encoding="UTF-8" standalone="no"?>
<!DOCTYPE svg PUBLIC "-//W3C//DTD SVG 1.1//EN"
 "http://www.w3.org/Graphics/SVG/1.1/DTD/svg11.dtd">
<!-- Generated by graphviz version 2.26.3 (20100126.1600)
 -->
<!-- Title: PIDEfficiencyCheck_plot Pages: 1 -->
<svg width="258pt" height="214pt"
 viewBox="0.00 0.00 258.00 214.00" xmlns="http://www.w3.org/2000/svg" xmlns:xlink="http://www.w3.org/1999/xlink">
<g id="graph1" class="graph" transform="scale(1 1) rotate(0) translate(4 210)">
<title>PIDEfficiencyCheck_plot</title>
<polygon fill="white" stroke="white" points="-4,5 -4,-210 255,-210 255,5 -4,5"/>
<!-- Node2 -->
<g id="node1" class="node"><title>Node2</title>
<polygon fill="#bfbfbf" stroke="black" points="73.5,-0.5 73.5,-21.5 200.5,-21.5 200.5,-0.5 73.5,-0.5"/>
<text text-anchor="middle" x="137" y="-8.5" font-family="Helvetica,sans-Serif" font-size="10.00">PIDEfficiencyCheck_plot</text>
</g>
<!-- Node3 -->
<g id="node2" class="node"><title>Node3</title>
<a xlink:href="classant_1_1analysis_1_1_plotter.html" target="_top" xlink:title="ant::analysis::Plotter">
<polygon fill="white" stroke="black" points="7.5,-85.5 7.5,-106.5 114.5,-106.5 114.5,-85.5 7.5,-85.5"/>
<text text-anchor="middle" x="61" y="-93.5" font-family="Helvetica,sans-Serif" font-size="10.00">ant::analysis::Plotter</text>
</a>
</g>
<!-- Node3&#45;&gt;Node2 -->
<g id="edge2" class="edge"><title>Node3&#45;&gt;Node2</title>
<path fill="none" stroke="midnightblue" d="M77.4925,-77.5544C92.7587,-60.4804 114.93,-35.684 127.453,-21.6779"/>
<polygon fill="midnightblue" stroke="midnightblue" points="74.6817,-75.4471 70.6255,-85.2347 79.9,-80.1129 74.6817,-75.4471"/>
</g>
<!-- Node4 -->
<g id="node4" class="node"><title>Node4</title>
<a xlink:href="classant_1_1analysis_1_1_histogram_factory.html" target="_top" xlink:title="ant::analysis::Histogram\lFactory">
<polygon fill="white" stroke="black" points="-0.5,-171 -0.5,-205 122.5,-205 122.5,-171 -0.5,-171"/>
<text text-anchor="start" x="7.5" y="-192" font-family="Helvetica,sans-Serif" font-size="10.00">ant::analysis::Histogram</text>
<text text-anchor="middle" x="61" y="-179" font-family="Helvetica,sans-Serif" font-size="10.00">Factory</text>
</a>
</g>
<!-- Node4&#45;&gt;Node3 -->
<g id="edge4" class="edge"><title>Node4&#45;&gt;Node3</title>
<path fill="none" stroke="#9a32cd" stroke-dasharray="5,2" d="M61,-160.666C61,-142.534 61,-119.741 61,-106.625"/>
<polygon fill="#9a32cd" stroke="#9a32cd" points="57.5001,-160.695 61,-170.696 64.5001,-160.696 57.5001,-160.695"/>
<text text-anchor="middle" x="80" y="-142.5" font-family="Helvetica,sans-Serif" font-size="10.00"> HistFac</text>
</g>
<!-- Node5 -->
<g id="node6" class="node"><title>Node5</title>
<a xlink:href="structant_1_1analysis_1_1physics_1_1_p_i_d_efficiency_check_1_1_tree__t.html" target="_top" xlink:title="ant::analysis::physics\l::PIDEfficiencyCheck::\lTree_t">
<polygon fill="white" stroke="black" points="132,-72.5 132,-119.5 250,-119.5 250,-72.5 132,-72.5"/>
<text text-anchor="start" x="140" y="-106.5" font-family="Helvetica,sans-Serif" font-size="10.00">ant::analysis::physics</text>
<text text-anchor="start" x="140" y="-93.5" font-family="Helvetica,sans-Serif" font-size="10.00">::PIDEfficiencyCheck::</text>
<text text-anchor="middle" x="191" y="-80.5" font-family="Helvetica,sans-Serif" font-size="10.00">Tree_t</text>
</a>
</g>
<!-- Node5&#45;&gt;Node2 -->
<g id="edge6" class="edge"><title>Node5&#45;&gt;Node2</title>
<path fill="none" stroke="#9a32cd" stroke-dasharray="5,2" d="M170.591,-63.8747C161.189,-49.0756 150.652,-32.4889 143.928,-21.9057"/>
<polygon fill="#9a32cd" stroke="#9a32cd" points="167.641,-65.7589 175.958,-72.3228 173.55,-62.0052 167.641,-65.7589"/>
<text text-anchor="middle" x="174" y="-44.5" font-family="Helvetica,sans-Serif" font-size="10.00"> tree</text>
</g>
<!-- Node6 -->
<g id="node8" class="node"><title>Node6</title>
<a xlink:href="classant_1_1_wrap_t_tree.html" target="_top" xlink:title="The WrapTTree struct simplifies TTree handling in physics classes. ">
<polygon fill="white" stroke="black" points="148.5,-177.5 148.5,-198.5 233.5,-198.5 233.5,-177.5 148.5,-177.5"/>
<text text-anchor="middle" x="191" y="-185.5" font-family="Helvetica,sans-Serif" font-size="10.00">ant::WrapTTree</text>
</a>
</g>
<!-- Node6&#45;&gt;Node5 -->
<g id="edge8" class="edge"><title>Node6&#45;&gt;Node5</title>
<path fill="none" stroke="midnightblue" d="M191,-167.292C191,-153.197 191,-134.505 191,-119.797"/>
<polygon fill="midnightblue" stroke="midnightblue" points="187.5,-167.446 191,-177.446 194.5,-167.446 187.5,-167.446"/>
</g>
</g>
</svg>
