<?xml version="1.0" encoding="UTF-8" standalone="no"?>
<!DOCTYPE svg PUBLIC "-//W3C//DTD SVG 1.1//EN"
 "http://www.w3.org/Graphics/SVG/1.1/DTD/svg11.dtd">
<!-- Generated by graphviz version 2.26.3 (20100126.1600)
 -->
<!-- Title: ant::TSlowControl Pages: 1 -->
<svg width="830pt" height="184pt"
 viewBox="0.00 0.00 830.00 184.00" xmlns="http://www.w3.org/2000/svg" xmlns:xlink="http://www.w3.org/1999/xlink">
<g id="graph1" class="graph" transform="scale(1 1) rotate(0) translate(4 180)">
<title>ant::TSlowControl</title>
<polygon fill="white" stroke="white" points="-4,5 -4,-180 827,-180 827,5 -4,5"/>
<!-- Node1 -->
<g id="node1" class="node"><title>Node1</title>
<polygon fill="#bfbfbf" stroke="black" points="726.5,-70.5 726.5,-91.5 821.5,-91.5 821.5,-70.5 726.5,-70.5"/>
<text text-anchor="middle" x="774" y="-78.5" font-family="Helvetica,sans-Serif" font-size="10.00">ant::TSlowControl</text>
</g>
<!-- Node2 -->
<g id="node2" class="node"><title>Node2</title>
<polygon fill="white" stroke="#bfbfbf" points="480,-142 480,-176 620,-176 620,-142 480,-142"/>
<text text-anchor="start" x="488" y="-163" font-family="Helvetica,sans-Serif" font-size="10.00">std::vector&lt; ant::TKeyValue</text>
<text text-anchor="middle" x="550" y="-150" font-family="Helvetica,sans-Serif" font-size="10.00">&lt; double &gt; &gt;</text>
</g>
<!-- Node2&#45;&gt;Node1 -->
<g id="edge2" class="edge"><title>Node2&#45;&gt;Node1</title>
<path fill="none" stroke="#9a32cd" stroke-dasharray="5,2" d="M627.487,-139.248C653.397,-131.904 682.23,-122.918 708,-113 724.044,-106.825 741.521,-98.2642 754.457,-91.5506"/>
<polygon fill="#9a32cd" stroke="#9a32cd" points="626.401,-135.917 617.712,-141.98 628.285,-142.659 626.401,-135.917"/>
<text text-anchor="middle" x="673" y="-139" font-family="Helvetica,sans-Serif" font-size="10.00"> Payload_Float</text>
</g>
<!-- Node3 -->
<g id="node4" class="node"><title>Node3</title>
<a xlink:href="structant_1_1_t_key_value.html" target="_top" xlink:title="ant::TKeyValue\&lt; double \&gt;">
<polygon fill="white" stroke="black" points="258.5,-148.5 258.5,-169.5 389.5,-169.5 389.5,-148.5 258.5,-148.5"/>
<text text-anchor="middle" x="324" y="-156.5" font-family="Helvetica,sans-Serif" font-size="10.00">ant::TKeyValue&lt; double &gt;</text>
</a>
</g>
<!-- Node3&#45;&gt;Node2 -->
<g id="edge4" class="edge"><title>Node3&#45;&gt;Node2</title>
<path fill="none" stroke="#9a32cd" stroke-dasharray="5,2" d="M399.799,-159C425.653,-159 454.432,-159 479.825,-159"/>
<polygon fill="#9a32cd" stroke="#9a32cd" points="399.672,-155.5 389.672,-159 399.672,-162.5 399.672,-155.5"/>
<text text-anchor="middle" x="435" y="-163" font-family="Helvetica,sans-Serif" font-size="10.00"> elements</text>
</g>
<!-- Node4 -->
<g id="node6" class="node"><title>Node4</title>
<polygon fill="white" stroke="#bfbfbf" points="480,-90 480,-124 620,-124 620,-90 480,-90"/>
<text text-anchor="start" x="488" y="-111" font-family="Helvetica,sans-Serif" font-size="10.00">std::vector&lt; ant::TKeyValue</text>
<text text-anchor="middle" x="550" y="-98" font-family="Helvetica,sans-Serif" font-size="10.00">&lt; std::int64_t &gt; &gt;</text>
</g>
<!-- Node4&#45;&gt;Node1 -->
<g id="edge6" class="edge"><title>Node4&#45;&gt;Node1</title>
<path fill="none" stroke="#9a32cd" stroke-dasharray="5,2" d="M630.534,-97.6524C662.627,-93.9273 698.471,-89.7667 726.304,-86.5362"/>
<polygon fill="#9a32cd" stroke="#9a32cd" points="629.79,-94.2151 620.26,-98.8448 630.597,-101.168 629.79,-94.2151"/>
<text text-anchor="middle" x="673" y="-100" font-family="Helvetica,sans-Serif" font-size="10.00"> Payload_Int</text>
</g>
<!-- Node5 -->
<g id="node8" class="node"><title>Node5</title>
<a xlink:href="structant_1_1_t_key_value.html" target="_top" xlink:title="ant::TKeyValue\&lt; std\l::int64_t \&gt;">
<polygon fill="white" stroke="black" points="270.5,-94 270.5,-128 377.5,-128 377.5,-94 270.5,-94"/>
<text text-anchor="start" x="278.5" y="-115" font-family="Helvetica,sans-Serif" font-size="10.00">ant::TKeyValue&lt; std</text>
<text text-anchor="middle" x="324" y="-102" font-family="Helvetica,sans-Serif" font-size="10.00">::int64_t &gt;</text>
</a>
</g>
<!-- Node5&#45;&gt;Node4 -->
<g id="edge8" class="edge"><title>Node5&#45;&gt;Node4</title>
<path fill="none" stroke="#9a32cd" stroke-dasharray="5,2" d="M387.854,-109.87C416.488,-109.363 450.352,-108.764 479.707,-108.244"/>
<polygon fill="#9a32cd" stroke="#9a32cd" points="387.495,-106.376 377.559,-110.052 387.619,-113.374 387.495,-106.376"/>
<text text-anchor="middle" x="435" y="-113" font-family="Helvetica,sans-Serif" font-size="10.00"> elements</text>
</g>
<!-- Node6 -->
<g id="node10" class="node"><title>Node6</title>
<a xlink:title="STL class. ">
<polygon fill="white" stroke="#bfbfbf" points="134,-36.5 134,-57.5 194,-57.5 194,-36.5 134,-36.5"/>
<text text-anchor="middle" x="164" y="-44.5" font-family="Helvetica,sans-Serif" font-size="10.00">std::string</text>
</a>
</g>
<!-- Node6&#45;&gt;Node1 -->
<g id="edge10" class="edge"><title>Node6&#45;&gt;Node1</title>
<path fill="none" stroke="#9a32cd" stroke-dasharray="5,2" d="M204.445,-49.2543C312.916,-55.3002 609.925,-71.8548 726.316,-78.3422"/>
<polygon fill="#9a32cd" stroke="#9a32cd" points="204.429,-45.7481 194.25,-48.6861 204.04,-52.7372 204.429,-45.7481"/>
<text text-anchor="middle" x="435" y="-80" font-family="Helvetica,sans-Serif" font-size="10.00"> Description</text>
<text text-anchor="middle" x="435" y="-67" font-family="Helvetica,sans-Serif" font-size="10.00">Name</text>
</g>
<!-- Node9 -->
<g id="node16" class="node"><title>Node9</title>
<a xlink:href="structant_1_1_t_key_value.html" target="_top" xlink:title="ant::TKeyValue\&lt; std\l::string \&gt;">
<polygon fill="white" stroke="black" points="270.5,-0 270.5,-34 377.5,-34 377.5,-0 270.5,-0"/>
<text text-anchor="start" x="278.5" y="-21" font-family="Helvetica,sans-Serif" font-size="10.00">ant::TKeyValue&lt; std</text>
<text text-anchor="middle" x="324" y="-8" font-family="Helvetica,sans-Serif" font-size="10.00">::string &gt;</text>
</a>
</g>
<!-- Node6&#45;&gt;Node9 -->
<g id="edge18" class="edge"><title>Node6&#45;&gt;Node9</title>
<path fill="none" stroke="#9a32cd" stroke-dasharray="5,2" d="M203.944,-36.74C206.665,-36.1258 209.369,-35.5393 212,-35 230.907,-31.1247 251.751,-27.5786 270.279,-24.6776"/>
<polygon fill="#9a32cd" stroke="#9a32cd" points="203.057,-33.3531 194.124,-39.0504 204.66,-40.1671 203.057,-33.3531"/>
<text text-anchor="middle" x="226" y="-39" font-family="Helvetica,sans-Serif" font-size="10.00"> Value</text>
</g>
<!-- Node7 -->
<g id="node12" class="node"><title>Node7</title>
<a xlink:title="STL class. ">
<polygon fill="white" stroke="#bfbfbf" points="0.5,-30 0.5,-64 95.5,-64 95.5,-30 0.5,-30"/>
<text text-anchor="start" x="8.5" y="-51" font-family="Helvetica,sans-Serif" font-size="10.00">std::basic_string&lt;</text>
<text text-anchor="middle" x="48" y="-38" font-family="Helvetica,sans-Serif" font-size="10.00"> char &gt;</text>
</a>
</g>
<!-- Node7&#45;&gt;Node6 -->
<g id="edge12" class="edge"><title>Node7&#45;&gt;Node6</title>
<path fill="none" stroke="midnightblue" d="M105.582,-47C115.29,-47 125.014,-47 133.666,-47"/>
<polygon fill="midnightblue" stroke="midnightblue" points="105.516,-43.5001 95.5163,-47 105.516,-50.5001 105.516,-43.5001"/>
</g>
<!-- Node8 -->
<g id="node14" class="node"><title>Node8</title>
<polygon fill="white" stroke="#bfbfbf" points="480,-0 480,-34 620,-34 620,-0 480,-0"/>
<text text-anchor="start" x="488" y="-21" font-family="Helvetica,sans-Serif" font-size="10.00">std::vector&lt; ant::TKeyValue</text>
<text text-anchor="middle" x="550" y="-8" font-family="Helvetica,sans-Serif" font-size="10.00">&lt; std::string &gt; &gt;</text>
</g>
<!-- Node8&#45;&gt;Node1 -->
<g id="edge14" class="edge"><title>Node8&#45;&gt;Node1</title>
<path fill="none" stroke="#9a32cd" stroke-dasharray="5,2" d="M630.196,-18.4514C655.698,-20.9225 683.603,-25.7872 708,-35 729.167,-42.9931 749.975,-59.2907 762.401,-70.1816"/>
<polygon fill="#9a32cd" stroke="#9a32cd" points="630.445,-14.96 620.181,-17.5893 629.844,-21.9342 630.445,-14.96"/>
<text text-anchor="middle" x="673" y="-39" font-family="Helvetica,sans-Serif" font-size="10.00"> Payload_String</text>
</g>
<!-- Node9&#45;&gt;Node8 -->
<g id="edge16" class="edge"><title>Node9&#45;&gt;Node8</title>
<path fill="none" stroke="#9a32cd" stroke-dasharray="5,2" d="M387.854,-17C416.488,-17 450.352,-17 479.707,-17"/>
<polygon fill="#9a32cd" stroke="#9a32cd" points="387.559,-13.5001 377.559,-17 387.559,-20.5001 387.559,-13.5001"/>
<text text-anchor="middle" x="435" y="-21" font-family="Helvetica,sans-Serif" font-size="10.00"> elements</text>
</g>
</g>
</svg>
