<?xml version="1.0" encoding="UTF-8" standalone="no"?>
<!DOCTYPE svg PUBLIC "-//W3C//DTD SVG 1.1//EN"
 "http://www.w3.org/Graphics/SVG/1.1/DTD/svg11.dtd">
<!-- Generated by graphviz version 2.26.3 (20100126.1600)
 -->
<!-- Title: ant::analysis::utils::MCWeighting::item_t Pages: 1 -->
<svg width="462pt" height="314pt"
 viewBox="0.00 0.00 462.00 314.00" xmlns="http://www.w3.org/2000/svg" xmlns:xlink="http://www.w3.org/1999/xlink">
<g id="graph1" class="graph" transform="scale(1 1) rotate(0) translate(4 310)">
<title>ant::analysis::utils::MCWeighting::item_t</title>
<polygon fill="white" stroke="white" points="-4,5 -4,-310 459,-310 459,5 -4,5"/>
<!-- Node1 -->
<g id="node1" class="node"><title>Node1</title>
<polygon fill="#bfbfbf" stroke="black" points="199.5,-1 199.5,-35 314.5,-35 314.5,-1 199.5,-1"/>
<text text-anchor="start" x="207.5" y="-22" font-family="Helvetica,sans-Serif" font-size="10.00">ant::analysis::utils</text>
<text text-anchor="middle" x="257" y="-9" font-family="Helvetica,sans-Serif" font-size="10.00">::MCWeighting::item_t</text>
</g>
<!-- Node2 -->
<g id="node2" class="node"><title>Node2</title>
<polygon fill="white" stroke="#bfbfbf" points="100,-93.5 100,-114.5 240,-114.5 240,-93.5 100,-93.5"/>
<text text-anchor="middle" x="170" y="-101.5" font-family="Helvetica,sans-Serif" font-size="10.00">std::vector&lt; coefficients_t &gt;</text>
</g>
<!-- Node2&#45;&gt;Node1 -->
<g id="edge2" class="edge"><title>Node2&#45;&gt;Node1</title>
<path fill="none" stroke="#9a32cd" stroke-dasharray="5,2" d="M187.936,-86.2698C203.085,-71.2955 224.644,-49.9845 239.629,-35.1709"/>
<polygon fill="#9a32cd" stroke="#9a32cd" points="185.319,-83.9355 180.668,-93.4547 190.24,-88.9138 185.319,-83.9355"/>
<text text-anchor="middle" x="241" y="-58.5" font-family="Helvetica,sans-Serif" font-size="10.00"> Database</text>
</g>
<!-- Node3 -->
<g id="node4" class="node"><title>Node3</title>
<polygon fill="white" stroke="#bfbfbf" points="97,-185 97,-219 243,-219 243,-185 97,-185"/>
<text text-anchor="start" x="105" y="-206" font-family="Helvetica,sans-Serif" font-size="10.00">ant::analysis::utils</text>
<text text-anchor="middle" x="170" y="-193" font-family="Helvetica,sans-Serif" font-size="10.00">::MCWeighting::coefficients_t</text>
</g>
<!-- Node3&#45;&gt;Node2 -->
<g id="edge4" class="edge"><title>Node3&#45;&gt;Node2</title>
<path fill="none" stroke="#9a32cd" stroke-dasharray="5,2" d="M170,-174.859C170,-154.895 170,-128.841 170,-114.54"/>
<polygon fill="#9a32cd" stroke="#9a32cd" points="166.5,-174.93 170,-184.93 173.5,-174.93 166.5,-174.93"/>
<text text-anchor="middle" x="191.5" y="-150.5" font-family="Helvetica,sans-Serif" font-size="10.00"> elements</text>
</g>
<!-- Node4 -->
<g id="node6" class="node"><title>Node4</title>
<a xlink:href="classant_1_1interval.html" target="_top" xlink:title="ant::interval\&lt; double \&gt;">
<polygon fill="white" stroke="black" points="0,-277.5 0,-298.5 114,-298.5 114,-277.5 0,-277.5"/>
<text text-anchor="middle" x="57" y="-285.5" font-family="Helvetica,sans-Serif" font-size="10.00">ant::interval&lt; double &gt;</text>
</a>
</g>
<!-- Node4&#45;&gt;Node3 -->
<g id="edge6" class="edge"><title>Node4&#45;&gt;Node3</title>
<path fill="none" stroke="#9a32cd" stroke-dasharray="5,2" d="M78.9562,-271.29C98.6832,-256.277 127.527,-234.324 147.438,-219.171"/>
<polygon fill="#9a32cd" stroke="#9a32cd" points="76.6939,-268.613 70.856,-277.455 80.9333,-274.184 76.6939,-268.613"/>
<text text-anchor="middle" x="139" y="-242.5" font-family="Helvetica,sans-Serif" font-size="10.00"> BeamE</text>
</g>
<!-- Node5 -->
<g id="node8" class="node"><title>Node5</title>
<polygon fill="white" stroke="#bfbfbf" points="132,-277.5 132,-298.5 242,-298.5 242,-277.5 132,-277.5"/>
<text text-anchor="middle" x="187" y="-285.5" font-family="Helvetica,sans-Serif" font-size="10.00">std::vector&lt; double &gt;</text>
</g>
<!-- Node5&#45;&gt;Node3 -->
<g id="edge8" class="edge"><title>Node5&#45;&gt;Node3</title>
<path fill="none" stroke="#9a32cd" stroke-dasharray="5,2" d="M182.91,-267.31C179.999,-252.585 176.134,-233.033 173.394,-219.171"/>
<polygon fill="#9a32cd" stroke="#9a32cd" points="179.543,-268.323 184.915,-277.455 186.41,-266.966 179.543,-268.323"/>
<text text-anchor="middle" x="227" y="-242.5" font-family="Helvetica,sans-Serif" font-size="10.00"> LegendreCoefficients</text>
</g>
<!-- Node6 -->
<g id="node10" class="node"><title>Node6</title>
<a xlink:href="classant_1_1_particle_type_database_1_1_type.html" target="_top" xlink:title="ant::ParticleTypeDatabase\l::Type">
<polygon fill="white" stroke="black" points="257.5,-87 257.5,-121 390.5,-121 390.5,-87 257.5,-87"/>
<text text-anchor="start" x="265.5" y="-108" font-family="Helvetica,sans-Serif" font-size="10.00">ant::ParticleTypeDatabase</text>
<text text-anchor="middle" x="324" y="-95" font-family="Helvetica,sans-Serif" font-size="10.00">::Type</text>
</a>
</g>
<!-- Node6&#45;&gt;Node1 -->
<g id="edge10" class="edge"><title>Node6&#45;&gt;Node1</title>
<path fill="none" stroke="#9a32cd" stroke-dasharray="5,2" d="M304.008,-78.3391C293.118,-64.3598 279.939,-47.4437 270.31,-35.084"/>
<polygon fill="#9a32cd" stroke="#9a32cd" points="301.535,-80.859 310.442,-86.5966 307.057,-76.557 301.535,-80.859"/>
<text text-anchor="middle" x="306.5" y="-58.5" font-family="Helvetica,sans-Serif" font-size="10.00"> Type</text>
</g>
<!-- Node6&#45;&gt;Node6 -->
<g id="edge16" class="edge"><title>Node6&#45;&gt;Node6</title>
<path fill="none" stroke="#9a32cd" stroke-dasharray="5,2" d="M400.629,-109.443C405.236,-108.147 408,-106.333 408,-104 408,-100.268 400.924,-97.8619 390.545,-96.783"/>
<polygon fill="#9a32cd" stroke="#9a32cd" points="399.787,-106.038 390.545,-111.217 401,-112.932 399.787,-106.038"/>
<text text-anchor="middle" x="431" y="-101.5" font-family="Helvetica,sans-Serif" font-size="10.00"> sametype</text>
</g>
<!-- Node7 -->
<g id="node12" class="node"><title>Node7</title>
<a xlink:title="STL class. ">
<polygon fill="white" stroke="#bfbfbf" points="294,-191.5 294,-212.5 354,-212.5 354,-191.5 294,-191.5"/>
<text text-anchor="middle" x="324" y="-199.5" font-family="Helvetica,sans-Serif" font-size="10.00">std::string</text>
</a>
</g>
<!-- Node7&#45;&gt;Node6 -->
<g id="edge12" class="edge"><title>Node7&#45;&gt;Node6</title>
<path fill="none" stroke="#9a32cd" stroke-dasharray="5,2" d="M324,-181.135C324,-163.271 324,-137.861 324,-121.158"/>
<polygon fill="#9a32cd" stroke="#9a32cd" points="320.5,-181.138 324,-191.138 327.5,-181.138 320.5,-181.138"/>
<text text-anchor="middle" x="350" y="-157" font-family="Helvetica,sans-Serif" font-size="10.00"> print_name</text>
<text text-anchor="middle" x="350" y="-144" font-family="Helvetica,sans-Serif" font-size="10.00">name</text>
</g>
<!-- Node8 -->
<g id="node14" class="node"><title>Node8</title>
<a xlink:title="STL class. ">
<polygon fill="white" stroke="#bfbfbf" points="276.5,-271 276.5,-305 371.5,-305 371.5,-271 276.5,-271"/>
<text text-anchor="start" x="284.5" y="-292" font-family="Helvetica,sans-Serif" font-size="10.00">std::basic_string&lt;</text>
<text text-anchor="middle" x="324" y="-279" font-family="Helvetica,sans-Serif" font-size="10.00"> char &gt;</text>
</a>
</g>
<!-- Node8&#45;&gt;Node7 -->
<g id="edge14" class="edge"><title>Node8&#45;&gt;Node7</title>
<path fill="none" stroke="midnightblue" d="M324,-260.56C324,-244.365 324,-224.766 324,-212.848"/>
<polygon fill="midnightblue" stroke="midnightblue" points="320.5,-260.597 324,-270.597 327.5,-260.597 320.5,-260.597"/>
</g>
</g>
</svg>
