<?xml version="1.0" encoding="UTF-8" standalone="no"?>
<!DOCTYPE svg PUBLIC "-//W3C//DTD SVG 1.1//EN"
 "http://www.w3.org/Graphics/SVG/1.1/DTD/svg11.dtd">
<!-- Generated by graphviz version 2.26.3 (20100126.1600)
 -->
<!-- Title: ant::WrapTFile::ENotARootFile Pages: 1 -->
<svg width="160pt" height="204pt"
 viewBox="0.00 0.00 160.00 204.00" xmlns="http://www.w3.org/2000/svg" xmlns:xlink="http://www.w3.org/1999/xlink">
<g id="graph1" class="graph" transform="scale(1 1) rotate(0) translate(4 200)">
<title>ant::WrapTFile::ENotARootFile</title>
<polygon fill="white" stroke="white" points="-4,5 -4,-200 157,-200 157,5 -4,5"/>
<!-- Node4 -->
<g id="node1" class="node"><title>Node4</title>
<polygon fill="#bfbfbf" stroke="black" points="-0.5,-0.5 -0.5,-21.5 152.5,-21.5 152.5,-0.5 -0.5,-0.5"/>
<text text-anchor="middle" x="76" y="-8.5" font-family="Helvetica,sans-Serif" font-size="10.00">ant::WrapTFile::ENotARootFile</text>
</g>
<!-- Node5 -->
<g id="node2" class="node"><title>Node5</title>
<a xlink:href="structant_1_1_wrap_t_file_1_1_exception.html" target="_top" xlink:title="ant::WrapTFile::Exception">
<polygon fill="white" stroke="black" points="10.5,-58.5 10.5,-79.5 141.5,-79.5 141.5,-58.5 10.5,-58.5"/>
<text text-anchor="middle" x="76" y="-66.5" font-family="Helvetica,sans-Serif" font-size="10.00">ant::WrapTFile::Exception</text>
</a>
</g>
<!-- Node5&#45;&gt;Node4 -->
<g id="edge2" class="edge"><title>Node5&#45;&gt;Node4</title>
<path fill="none" stroke="midnightblue" d="M76,-48.1906C76,-39.1684 76,-28.9941 76,-21.5707"/>
<polygon fill="midnightblue" stroke="midnightblue" points="72.5001,-48.3619 76,-58.3619 79.5001,-48.3619 72.5001,-48.3619"/>
</g>
<!-- Node6 -->
<g id="node4" class="node"><title>Node6</title>
<a xlink:title="STL class. ">
<polygon fill="white" stroke="#bfbfbf" points="29.5,-116.5 29.5,-137.5 122.5,-137.5 122.5,-116.5 29.5,-116.5"/>
<text text-anchor="middle" x="76" y="-124.5" font-family="Helvetica,sans-Serif" font-size="10.00">std::runtime_error</text>
</a>
</g>
<!-- Node6&#45;&gt;Node5 -->
<g id="edge4" class="edge"><title>Node6&#45;&gt;Node5</title>
<path fill="none" stroke="midnightblue" d="M76,-106.191C76,-97.1684 76,-86.9941 76,-79.5707"/>
<polygon fill="midnightblue" stroke="midnightblue" points="72.5001,-106.362 76,-116.362 79.5001,-106.362 72.5001,-106.362"/>
</g>
<!-- Node7 -->
<g id="node6" class="node"><title>Node7</title>
<a xlink:title="STL class. ">
<polygon fill="white" stroke="#bfbfbf" points="37,-174.5 37,-195.5 115,-195.5 115,-174.5 37,-174.5"/>
<text text-anchor="middle" x="76" y="-182.5" font-family="Helvetica,sans-Serif" font-size="10.00">std::exception</text>
</a>
</g>
<!-- Node7&#45;&gt;Node6 -->
<g id="edge6" class="edge"><title>Node7&#45;&gt;Node6</title>
<path fill="none" stroke="midnightblue" d="M76,-164.191C76,-155.168 76,-144.994 76,-137.571"/>
<polygon fill="midnightblue" stroke="midnightblue" points="72.5001,-164.362 76,-174.362 79.5001,-164.362 72.5001,-164.362"/>
</g>
</g>
</svg>
