<?xml version="1.0" encoding="UTF-8" standalone="no"?>
<!DOCTYPE svg PUBLIC "-//W3C//DTD SVG 1.1//EN"
 "http://www.w3.org/Graphics/SVG/1.1/DTD/svg11.dtd">
<!-- Generated by graphviz version 2.26.3 (20100126.1600)
 -->
<!-- Title: triplePi0_Plot::TriplePi0Hist_t::Fill_t Pages: 1 -->
<svg width="704pt" height="94pt"
 viewBox="0.00 0.00 704.00 94.00" xmlns="http://www.w3.org/2000/svg" xmlns:xlink="http://www.w3.org/1999/xlink">
<g id="graph1" class="graph" transform="scale(1 1) rotate(0) translate(4 90)">
<title>triplePi0_Plot::TriplePi0Hist_t::Fill_t</title>
<polygon fill="white" stroke="white" points="-4,5 -4,-90 701,-90 701,5 -4,5"/>
<!-- Node1 -->
<g id="node1" class="node"><title>Node1</title>
<polygon fill="#bfbfbf" stroke="black" points="576.5,-32 576.5,-66 695.5,-66 695.5,-32 576.5,-32"/>
<text text-anchor="start" x="584.5" y="-53" font-family="Helvetica,sans-Serif" font-size="10.00">triplePi0_Plot::TriplePi0</text>
<text text-anchor="middle" x="636" y="-40" font-family="Helvetica,sans-Serif" font-size="10.00">Hist_t::Fill_t</text>
</g>
<!-- Node2 -->
<g id="node2" class="node"><title>Node2</title>
<a xlink:href="structant_1_1analysis_1_1physics_1_1triple_pi0_1_1_pion_prod_tree.html" target="_top" xlink:title="ant::analysis::physics\l::triplePi0::PionProdTree">
<polygon fill="white" stroke="black" points="254.5,-52 254.5,-86 377.5,-86 377.5,-52 254.5,-52"/>
<text text-anchor="start" x="262.5" y="-73" font-family="Helvetica,sans-Serif" font-size="10.00">ant::analysis::physics</text>
<text text-anchor="middle" x="316" y="-60" font-family="Helvetica,sans-Serif" font-size="10.00">::triplePi0::PionProdTree</text>
</a>
</g>
<!-- Node2&#45;&gt;Node1 -->
<g id="edge2" class="edge"><title>Node2&#45;&gt;Node1</title>
<path fill="none" stroke="#9a32cd" stroke-dasharray="5,2" d="M387.69,-64.5194C444.511,-60.968 522.97,-56.0644 576.385,-52.7259"/>
<polygon fill="#9a32cd" stroke="#9a32cd" points="387.461,-61.0267 377.699,-65.1438 387.898,-68.0131 387.461,-61.0267"/>
<text text-anchor="middle" x="452" y="-67" font-family="Helvetica,sans-Serif" font-size="10.00"> Tree</text>
</g>
<!-- Node3 -->
<g id="node4" class="node"><title>Node3</title>
<a xlink:href="classant_1_1_wrap_t_tree.html" target="_top" xlink:title="The WrapTTree struct simplifies TTree handling in physics classes. ">
<polygon fill="white" stroke="black" points="0.5,-38.5 0.5,-59.5 85.5,-59.5 85.5,-38.5 0.5,-38.5"/>
<text text-anchor="middle" x="43" y="-46.5" font-family="Helvetica,sans-Serif" font-size="10.00">ant::WrapTTree</text>
</a>
</g>
<!-- Node3&#45;&gt;Node2 -->
<g id="edge4" class="edge"><title>Node3&#45;&gt;Node2</title>
<path fill="none" stroke="midnightblue" d="M95.8754,-52.8737C141.244,-56.1974 206.665,-60.9901 254.393,-64.4867"/>
<polygon fill="midnightblue" stroke="midnightblue" points="95.8853,-49.3651 85.6562,-52.125 95.3738,-56.3464 95.8853,-49.3651"/>
</g>
<!-- Node5 -->
<g id="node8" class="node"><title>Node5</title>
<a xlink:href="structant_1_1analysis_1_1physics_1_1triple_pi0_1_1eff_tree__t.html" target="_top" xlink:title="ant::analysis::physics\l::triplePi0::effTree_t">
<polygon fill="white" stroke="black" points="124,-5 124,-39 236,-39 236,-5 124,-5"/>
<text text-anchor="start" x="132" y="-26" font-family="Helvetica,sans-Serif" font-size="10.00">ant::analysis::physics</text>
<text text-anchor="middle" x="180" y="-13" font-family="Helvetica,sans-Serif" font-size="10.00">::triplePi0::effTree_t</text>
</a>
</g>
<!-- Node3&#45;&gt;Node5 -->
<g id="edge10" class="edge"><title>Node3&#45;&gt;Node5</title>
<path fill="none" stroke="midnightblue" d="M95.4688,-38.6594C104.749,-36.8305 114.445,-34.9195 123.823,-33.0714"/>
<polygon fill="midnightblue" stroke="midnightblue" points="94.7312,-35.2374 85.5967,-40.605 96.0847,-42.1053 94.7312,-35.2374"/>
</g>
<!-- Node4 -->
<g id="node6" class="node"><title>Node4</title>
<a xlink:href="structant_1_1analysis_1_1physics_1_1triple_pi0_1_1_rec_tree.html" target="_top" xlink:title="ant::analysis::physics\l::triplePi0::RecTree">
<polygon fill="white" stroke="black" points="396,-0 396,-34 508,-34 508,-0 396,-0"/>
<text text-anchor="start" x="404" y="-21" font-family="Helvetica,sans-Serif" font-size="10.00">ant::analysis::physics</text>
<text text-anchor="middle" x="452" y="-8" font-family="Helvetica,sans-Serif" font-size="10.00">::triplePi0::RecTree</text>
</a>
</g>
<!-- Node4&#45;&gt;Node1 -->
<g id="edge6" class="edge"><title>Node4&#45;&gt;Node1</title>
<path fill="none" stroke="#9a32cd" stroke-dasharray="5,2" d="M518.255,-28.5226C537.217,-31.8203 557.765,-35.394 576.308,-38.6188"/>
<polygon fill="#9a32cd" stroke="#9a32cd" points="518.658,-25.0402 508.206,-26.7749 517.458,-31.9367 518.658,-25.0402"/>
<text text-anchor="middle" x="542" y="-38" font-family="Helvetica,sans-Serif" font-size="10.00"> RTree</text>
</g>
<!-- Node5&#45;&gt;Node4 -->
<g id="edge8" class="edge"><title>Node5&#45;&gt;Node4</title>
<path fill="none" stroke="midnightblue" d="M246.145,-20.7841C291.887,-19.9432 352.101,-18.8364 395.577,-18.0372"/>
<polygon fill="midnightblue" stroke="midnightblue" points="245.963,-17.2868 236.029,-20.9701 246.091,-24.2856 245.963,-17.2868"/>
</g>
</g>
</svg>
