<?xml version="1.0" encoding="UTF-8" standalone="no"?>
<!DOCTYPE svg PUBLIC "-//W3C//DTD SVG 1.1//EN"
 "http://www.w3.org/Graphics/SVG/1.1/DTD/svg11.dtd">
<!-- Generated by graphviz version 2.26.3 (20100126.1600)
 -->
<!-- Title: ant::analysis::physics::EtapOmegaG::Sig_t::Fit_t::BaseTree_t Pages: 1 -->
<svg width="182pt" height="186pt"
 viewBox="0.00 0.00 182.00 186.00" xmlns="http://www.w3.org/2000/svg" xmlns:xlink="http://www.w3.org/1999/xlink">
<g id="graph1" class="graph" transform="scale(1 1) rotate(0) translate(4 182)">
<title>ant::analysis::physics::EtapOmegaG::Sig_t::Fit_t::BaseTree_t</title>
<polygon fill="white" stroke="white" points="-4,5 -4,-182 179,-182 179,5 -4,5"/>
<!-- Node5 -->
<g id="node1" class="node"><title>Node5</title>
<polygon fill="#bfbfbf" stroke="black" points="23,-0.5 23,-47.5 151,-47.5 151,-0.5 23,-0.5"/>
<text text-anchor="start" x="31" y="-34.5" font-family="Helvetica,sans-Serif" font-size="10.00">ant::analysis::physics</text>
<text text-anchor="start" x="31" y="-21.5" font-family="Helvetica,sans-Serif" font-size="10.00">::EtapOmegaG::Sig_t::Fit</text>
<text text-anchor="middle" x="87" y="-8.5" font-family="Helvetica,sans-Serif" font-size="10.00">_t::BaseTree_t</text>
</g>
<!-- Node6 -->
<g id="node2" class="node"><title>Node6</title>
<a xlink:href="structant_1_1analysis_1_1physics_1_1_etap_omega_g_1_1_proton_photon_tree__t.html" target="_top" xlink:title="ant::analysis::physics\l::EtapOmegaG::ProtonPhotonTree_t">
<polygon fill="white" stroke="black" points="-0.5,-85 -0.5,-119 174.5,-119 174.5,-85 -0.5,-85"/>
<text text-anchor="start" x="7.5" y="-106" font-family="Helvetica,sans-Serif" font-size="10.00">ant::analysis::physics</text>
<text text-anchor="middle" x="87" y="-93" font-family="Helvetica,sans-Serif" font-size="10.00">::EtapOmegaG::ProtonPhotonTree_t</text>
</a>
</g>
<!-- Node6&#45;&gt;Node5 -->
<g id="edge2" class="edge"><title>Node6&#45;&gt;Node5</title>
<path fill="none" stroke="midnightblue" d="M87,-74.5793C87,-65.8339 87,-56.2342 87,-47.77"/>
<polygon fill="midnightblue" stroke="midnightblue" points="83.5001,-74.6892 87,-84.6893 90.5001,-74.6893 83.5001,-74.6892"/>
</g>
<!-- Node7 -->
<g id="node4" class="node"><title>Node7</title>
<a xlink:href="classant_1_1_wrap_t_tree.html" target="_top" xlink:title="The WrapTTree struct simplifies TTree handling in physics classes. ">
<polygon fill="white" stroke="black" points="44.5,-156.5 44.5,-177.5 129.5,-177.5 129.5,-156.5 44.5,-156.5"/>
<text text-anchor="middle" x="87" y="-164.5" font-family="Helvetica,sans-Serif" font-size="10.00">ant::WrapTTree</text>
</a>
</g>
<!-- Node7&#45;&gt;Node6 -->
<g id="edge4" class="edge"><title>Node7&#45;&gt;Node6</title>
<path fill="none" stroke="midnightblue" d="M87,-146.131C87,-137.405 87,-127.391 87,-119.11"/>
<polygon fill="midnightblue" stroke="midnightblue" points="83.5001,-146.267 87,-156.267 90.5001,-146.267 83.5001,-146.267"/>
</g>
</g>
</svg>
