<?xml version="1.0" encoding="UTF-8" standalone="no"?>
<!DOCTYPE svg PUBLIC "-//W3C//DTD SVG 1.1//EN"
 "http://www.w3.org/Graphics/SVG/1.1/DTD/svg11.dtd">
<!-- Generated by graphviz version 2.26.3 (20100126.1600)
 -->
<!-- Title: ant::analysis::input::GoatReader::treeDetectorHitInput_t Pages: 1 -->
<svg width="894pt" height="156pt"
 viewBox="0.00 0.00 894.00 156.00" xmlns="http://www.w3.org/2000/svg" xmlns:xlink="http://www.w3.org/1999/xlink">
<g id="graph1" class="graph" transform="scale(1 1) rotate(0) translate(4 152)">
<title>ant::analysis::input::GoatReader::treeDetectorHitInput_t</title>
<polygon fill="white" stroke="white" points="-4,5 -4,-152 891,-152 891,5 -4,5"/>
<!-- Node1 -->
<g id="node1" class="node"><title>Node1</title>
<polygon fill="#bfbfbf" stroke="black" points="738,-60.5 738,-107.5 886,-107.5 886,-60.5 738,-60.5"/>
<text text-anchor="start" x="746" y="-94.5" font-family="Helvetica,sans-Serif" font-size="10.00">ant::analysis::input</text>
<text text-anchor="start" x="746" y="-81.5" font-family="Helvetica,sans-Serif" font-size="10.00">::GoatReader::treeDetectorHit</text>
<text text-anchor="middle" x="812" y="-68.5" font-family="Helvetica,sans-Serif" font-size="10.00">Input_t</text>
</g>
<!-- Node2 -->
<g id="node2" class="node"><title>Node2</title>
<a xlink:href="structant_1_1analysis_1_1input_1_1_goat_reader_1_1tree_detector_hit_input__t_1_1tree_cluster__t.html" target="_top" xlink:title="ant::analysis::input\l::GoatReader::treeDetectorHit\lInput_t::treeCluster_t">
<polygon fill="white" stroke="black" points="530,-0.5 530,-47.5 678,-47.5 678,-0.5 530,-0.5"/>
<text text-anchor="start" x="538" y="-34.5" font-family="Helvetica,sans-Serif" font-size="10.00">ant::analysis::input</text>
<text text-anchor="start" x="538" y="-21.5" font-family="Helvetica,sans-Serif" font-size="10.00">::GoatReader::treeDetectorHit</text>
<text text-anchor="middle" x="604" y="-8.5" font-family="Helvetica,sans-Serif" font-size="10.00">Input_t::treeCluster_t</text>
</a>
</g>
<!-- Node2&#45;&gt;Node1 -->
<g id="edge2" class="edge"><title>Node2&#45;&gt;Node1</title>
<path fill="none" stroke="#9a32cd" stroke-dasharray="5,2" d="M688.151,-36.0542C698.961,-38.3185 709.806,-40.9532 720,-44 734.518,-48.3391 749.794,-54.3488 763.635,-60.3923"/>
<polygon fill="#9a32cd" stroke="#9a32cd" points="688.744,-32.6038 678.253,-34.0778 687.374,-39.4683 688.744,-32.6038"/>
<text text-anchor="middle" x="708" y="-61" font-family="Helvetica,sans-Serif" font-size="10.00"> NaI</text>
<text text-anchor="middle" x="708" y="-48" font-family="Helvetica,sans-Serif" font-size="10.00">BaF2</text>
</g>
<!-- Node3 -->
<g id="node4" class="node"><title>Node3</title>
<a xlink:href="structant_1_1analysis_1_1input_1_1_goat_reader_1_1tree_detector_hit_input__t_1_1tree_energy_time__t.html" target="_top" xlink:title="ant::analysis::input\l::GoatReader::treeDetectorHit\lInput_t::treeEnergyTime_t">
<polygon fill="white" stroke="black" points="310,-60.5 310,-107.5 458,-107.5 458,-60.5 310,-60.5"/>
<text text-anchor="start" x="318" y="-94.5" font-family="Helvetica,sans-Serif" font-size="10.00">ant::analysis::input</text>
<text text-anchor="start" x="318" y="-81.5" font-family="Helvetica,sans-Serif" font-size="10.00">::GoatReader::treeDetectorHit</text>
<text text-anchor="middle" x="384" y="-68.5" font-family="Helvetica,sans-Serif" font-size="10.00">Input_t::treeEnergyTime_t</text>
</a>
</g>
<!-- Node3&#45;&gt;Node1 -->
<g id="edge10" class="edge"><title>Node3&#45;&gt;Node1</title>
<path fill="none" stroke="#9a32cd" stroke-dasharray="5,2" d="M468.404,-84C546.902,-84 662.718,-84 737.768,-84"/>
<polygon fill="#9a32cd" stroke="#9a32cd" points="468.063,-80.5001 458.063,-84 468.063,-87.5001 468.063,-80.5001"/>
<text text-anchor="middle" x="604" y="-101" font-family="Helvetica,sans-Serif" font-size="10.00"> PID</text>
<text text-anchor="middle" x="604" y="-88" font-family="Helvetica,sans-Serif" font-size="10.00">Veto</text>
</g>
<!-- Node3&#45;&gt;Node2 -->
<g id="edge4" class="edge"><title>Node3&#45;&gt;Node2</title>
<path fill="none" stroke="midnightblue" d="M468.038,-61.0805C488.361,-55.538 509.937,-49.6534 529.773,-44.2438"/>
<polygon fill="midnightblue" stroke="midnightblue" points="466.902,-57.7625 458.175,-63.7704 468.744,-64.5158 466.902,-57.7625"/>
</g>
<!-- Node4 -->
<g id="node6" class="node"><title>Node4</title>
<a xlink:href="structant_1_1analysis_1_1input_1_1_goat_reader_1_1tree_detector_hit_input__t_1_1tree_hits__t.html" target="_top" xlink:title="ant::analysis::input\l::GoatReader::treeDetectorHit\lInput_t::treeHits_t">
<polygon fill="white" stroke="black" points="124,-100.5 124,-147.5 272,-147.5 272,-100.5 124,-100.5"/>
<text text-anchor="start" x="132" y="-134.5" font-family="Helvetica,sans-Serif" font-size="10.00">ant::analysis::input</text>
<text text-anchor="start" x="132" y="-121.5" font-family="Helvetica,sans-Serif" font-size="10.00">::GoatReader::treeDetectorHit</text>
<text text-anchor="middle" x="198" y="-108.5" font-family="Helvetica,sans-Serif" font-size="10.00">Input_t::treeHits_t</text>
</a>
</g>
<!-- Node4&#45;&gt;Node1 -->
<g id="edge12" class="edge"><title>Node4&#45;&gt;Node1</title>
<path fill="none" stroke="#9a32cd" stroke-dasharray="5,2" d="M282.577,-127.31C378.748,-129.899 540.28,-130.682 678,-114 697.525,-111.635 718.382,-107.679 737.685,-103.402"/>
<polygon fill="#9a32cd" stroke="#9a32cd" points="282.424,-123.804 272.329,-127.021 282.226,-130.802 282.424,-123.804"/>
<text text-anchor="middle" x="494" y="-131" font-family="Helvetica,sans-Serif" font-size="10.00"> MWPC</text>
</g>
<!-- Node4&#45;&gt;Node3 -->
<g id="edge6" class="edge"><title>Node4&#45;&gt;Node3</title>
<path fill="none" stroke="midnightblue" d="M282.059,-105.923C291.346,-103.926 300.753,-101.903 309.904,-99.9345"/>
<polygon fill="midnightblue" stroke="midnightblue" points="281.087,-102.552 272.047,-108.076 282.559,-109.395 281.087,-102.552"/>
</g>
<!-- Node5 -->
<g id="node8" class="node"><title>Node5</title>
<a xlink:href="classant_1_1_wrap_t_tree.html" target="_top" xlink:title="The WrapTTree struct simplifies TTree handling in physics classes. ">
<polygon fill="white" stroke="black" points="0.5,-113.5 0.5,-134.5 85.5,-134.5 85.5,-113.5 0.5,-113.5"/>
<text text-anchor="middle" x="43" y="-121.5" font-family="Helvetica,sans-Serif" font-size="10.00">ant::WrapTTree</text>
</a>
</g>
<!-- Node5&#45;&gt;Node4 -->
<g id="edge8" class="edge"><title>Node5&#45;&gt;Node4</title>
<path fill="none" stroke="midnightblue" d="M96.0347,-124C105.002,-124 114.456,-124 123.845,-124"/>
<polygon fill="midnightblue" stroke="midnightblue" points="95.7648,-120.5 85.7647,-124 95.7647,-127.5 95.7648,-120.5"/>
</g>
</g>
</svg>
