<?xml version="1.0" encoding="UTF-8" standalone="no"?>
<!DOCTYPE svg PUBLIC "-//W3C//DTD SVG 1.1//EN"
 "http://www.w3.org/Graphics/SVG/1.1/DTD/svg11.dtd">
<!-- Generated by graphviz version 2.26.3 (20100126.1600)
 -->
<!-- Title: ant::expconfig::detector::PID_2007 Pages: 1 -->
<svg width="236pt" height="160pt"
 viewBox="0.00 0.00 236.00 160.00" xmlns="http://www.w3.org/2000/svg" xmlns:xlink="http://www.w3.org/1999/xlink">
<g id="graph1" class="graph" transform="scale(1 1) rotate(0) translate(4 156)">
<title>ant::expconfig::detector::PID_2007</title>
<polygon fill="white" stroke="white" points="-4,5 -4,-156 233,-156 233,5 -4,5"/>
<!-- Node0 -->
<g id="node1" class="node"><title>Node0</title>
<polygon fill="#bfbfbf" stroke="black" points="42.5,-1 42.5,-35 161.5,-35 161.5,-1 42.5,-1"/>
<text text-anchor="start" x="50.5" y="-22" font-family="Helvetica,sans-Serif" font-size="10.00">ant::expconfig::detector</text>
<text text-anchor="middle" x="102" y="-9" font-family="Helvetica,sans-Serif" font-size="10.00">::PID_2007</text>
</g>
<!-- Node1 -->
<g id="node2" class="node"><title>Node1</title>
<a xlink:href="structant_1_1expconfig_1_1detector_1_1_p_i_d.html" target="_top" xlink:title="ant::expconfig::detector::PID">
<polygon fill="white" stroke="black" points="30.5,-72.5 30.5,-93.5 173.5,-93.5 173.5,-72.5 30.5,-72.5"/>
<text text-anchor="middle" x="102" y="-80.5" font-family="Helvetica,sans-Serif" font-size="10.00">ant::expconfig::detector::PID</text>
</a>
</g>
<!-- Node1&#45;&gt;Node0 -->
<g id="edge2" class="edge"><title>Node1&#45;&gt;Node0</title>
<path fill="none" stroke="midnightblue" d="M102,-62.1306C102,-53.4049 102,-43.3908 102,-35.1099"/>
<polygon fill="midnightblue" stroke="midnightblue" points="98.5001,-62.2665 102,-72.2666 105.5,-62.2666 98.5001,-62.2665"/>
</g>
<!-- Node2 -->
<g id="node4" class="node"><title>Node2</title>
<a xlink:href="structant_1_1_detector__t.html" target="_top" xlink:title="The Detector_t struct is the minimal base class for all detectors. ">
<polygon fill="white" stroke="black" points="0,-130.5 0,-151.5 82,-151.5 82,-130.5 0,-130.5"/>
<text text-anchor="middle" x="41" y="-138.5" font-family="Helvetica,sans-Serif" font-size="10.00">ant::Detector_t</text>
</a>
</g>
<!-- Node2&#45;&gt;Node1 -->
<g id="edge4" class="edge"><title>Node2&#45;&gt;Node1</title>
<path fill="none" stroke="midnightblue" d="M59.5051,-123.405C69.7454,-113.668 82.1315,-101.891 90.8826,-93.5707"/>
<polygon fill="midnightblue" stroke="midnightblue" points="57.0237,-120.935 52.1883,-130.362 61.8471,-126.008 57.0237,-120.935"/>
</g>
<!-- Node3 -->
<g id="node6" class="node"><title>Node3</title>
<a xlink:href="classant_1_1_unpacker_acqu_config.html" target="_top" xlink:title="ant::UnpackerAcquConfig">
<polygon fill="white" stroke="black" points="99.5,-130.5 99.5,-151.5 228.5,-151.5 228.5,-130.5 99.5,-130.5"/>
<text text-anchor="middle" x="164" y="-138.5" font-family="Helvetica,sans-Serif" font-size="10.00">ant::UnpackerAcquConfig</text>
</a>
</g>
<!-- Node3&#45;&gt;Node1 -->
<g id="edge6" class="edge"><title>Node3&#45;&gt;Node1</title>
<path fill="none" stroke="midnightblue" d="M145.192,-123.405C134.783,-113.668 122.194,-101.891 113.3,-93.5707"/>
<polygon fill="midnightblue" stroke="midnightblue" points="142.934,-126.086 152.628,-130.362 147.717,-120.974 142.934,-126.086"/>
</g>
</g>
</svg>
