<?xml version="1.0" encoding="UTF-8" standalone="no"?>
<!DOCTYPE svg PUBLIC "-//W3C//DTD SVG 1.1//EN"
 "http://www.w3.org/Graphics/SVG/1.1/DTD/svg11.dtd">
<!-- Generated by graphviz version 2.26.3 (20100126.1600)
 -->
<!-- Title: ant::expconfig::detector::Tagger_2015 Pages: 1 -->
<svg width="1306pt" height="189pt"
 viewBox="0.00 0.00 1306.00 189.00" xmlns="http://www.w3.org/2000/svg" xmlns:xlink="http://www.w3.org/1999/xlink">
<g id="graph1" class="graph" transform="scale(1 1) rotate(0) translate(4 185)">
<title>ant::expconfig::detector::Tagger_2015</title>
<polygon fill="white" stroke="white" points="-4,5 -4,-185 1303,-185 1303,5 -4,5"/>
<!-- Node5 -->
<g id="node1" class="node"><title>Node5</title>
<polygon fill="#bfbfbf" stroke="black" points="1178.5,-71 1178.5,-105 1297.5,-105 1297.5,-71 1178.5,-71"/>
<text text-anchor="start" x="1186.5" y="-92" font-family="Helvetica,sans-Serif" font-size="10.00">ant::expconfig::detector</text>
<text text-anchor="middle" x="1238" y="-79" font-family="Helvetica,sans-Serif" font-size="10.00">::Tagger_2015</text>
</g>
<!-- Node6 -->
<g id="node2" class="node"><title>Node6</title>
<a xlink:href="structant_1_1expconfig_1_1detector_1_1_tagger.html" target="_top" xlink:title="ant::expconfig::detector\l::Tagger">
<polygon fill="white" stroke="black" points="957.5,-99 957.5,-133 1076.5,-133 1076.5,-99 957.5,-99"/>
<text text-anchor="start" x="965.5" y="-120" font-family="Helvetica,sans-Serif" font-size="10.00">ant::expconfig::detector</text>
<text text-anchor="middle" x="1017" y="-107" font-family="Helvetica,sans-Serif" font-size="10.00">::Tagger</text>
</a>
</g>
<!-- Node6&#45;&gt;Node5 -->
<g id="edge2" class="edge"><title>Node6&#45;&gt;Node5</title>
<path fill="none" stroke="midnightblue" d="M1086.73,-107.166C1116.18,-103.435 1150.12,-99.1344 1178.38,-95.5538"/>
<polygon fill="midnightblue" stroke="midnightblue" points="1086,-103.73 1076.51,-108.46 1086.88,-110.675 1086,-103.73"/>
</g>
<!-- Node7 -->
<g id="node4" class="node"><title>Node7</title>
<a xlink:href="structant_1_1_tagger_detector__t.html" target="_top" xlink:title="ant::TaggerDetector_t">
<polygon fill="white" stroke="black" points="727,-159.5 727,-180.5 839,-180.5 839,-159.5 727,-159.5"/>
<text text-anchor="middle" x="783" y="-167.5" font-family="Helvetica,sans-Serif" font-size="10.00">ant::TaggerDetector_t</text>
</a>
</g>
<!-- Node7&#45;&gt;Node6 -->
<g id="edge4" class="edge"><title>Node7&#45;&gt;Node6</title>
<path fill="none" stroke="midnightblue" d="M841.464,-157.344C870.009,-151.079 904.838,-143.309 936,-136 942.91,-134.379 950.142,-132.646 957.321,-130.903"/>
<polygon fill="midnightblue" stroke="midnightblue" points="840.665,-153.936 831.645,-159.494 842.162,-160.774 840.665,-153.936"/>
</g>
<!-- Node8 -->
<g id="node6" class="node"><title>Node8</title>
<a xlink:href="structant_1_1_detector__t.html" target="_top" xlink:title="The Detector_t struct is the minimal base class for all detectors. ">
<polygon fill="white" stroke="black" points="525,-159.5 525,-180.5 607,-180.5 607,-159.5 525,-159.5"/>
<text text-anchor="middle" x="566" y="-167.5" font-family="Helvetica,sans-Serif" font-size="10.00">ant::Detector_t</text>
</a>
</g>
<!-- Node8&#45;&gt;Node7 -->
<g id="edge6" class="edge"><title>Node8&#45;&gt;Node7</title>
<path fill="none" stroke="midnightblue" d="M617.399,-170C650.347,-170 693.118,-170 726.939,-170"/>
<polygon fill="midnightblue" stroke="midnightblue" points="617.071,-166.5 607.071,-170 617.071,-173.5 617.071,-166.5"/>
</g>
<!-- Node9 -->
<g id="node8" class="node"><title>Node9</title>
<a xlink:href="classant_1_1_unpacker_acqu_config.html" target="_top" xlink:title="ant::UnpackerAcquConfig">
<polygon fill="white" stroke="black" points="718.5,-119.5 718.5,-140.5 847.5,-140.5 847.5,-119.5 718.5,-119.5"/>
<text text-anchor="middle" x="783" y="-127.5" font-family="Helvetica,sans-Serif" font-size="10.00">ant::UnpackerAcquConfig</text>
</a>
</g>
<!-- Node9&#45;&gt;Node6 -->
<g id="edge8" class="edge"><title>Node9&#45;&gt;Node6</title>
<path fill="none" stroke="midnightblue" d="M857.83,-125.523C890.039,-123.596 927.169,-121.374 957.462,-119.562"/>
<polygon fill="midnightblue" stroke="midnightblue" points="857.334,-122.046 847.561,-126.137 857.752,-129.034 857.334,-122.046"/>
</g>
<!-- Node10 -->
<g id="node10" class="node"><title>Node10</title>
<a xlink:title="STL class. ">
<polygon fill="white" stroke="#bfbfbf" points="753,-79.5 753,-100.5 813,-100.5 813,-79.5 753,-79.5"/>
<text text-anchor="middle" x="783" y="-87.5" font-family="Helvetica,sans-Serif" font-size="10.00">std::string</text>
</a>
</g>
<!-- Node10&#45;&gt;Node6 -->
<g id="edge10" class="edge"><title>Node10&#45;&gt;Node6</title>
<path fill="none" stroke="#9a32cd" stroke-dasharray="5,2" d="M823.627,-92.6257C854.509,-94.8216 898.01,-98.3441 936,-103 942.927,-103.849 950.17,-104.849 957.354,-105.912"/>
<polygon fill="#9a32cd" stroke="#9a32cd" points="823.479,-89.107 813.26,-91.9046 822.993,-96.0901 823.479,-89.107"/>
<text text-anchor="middle" x="907" y="-107" font-family="Helvetica,sans-Serif" font-size="10.00"> ScalerName</text>
</g>
<!-- Node11 -->
<g id="node12" class="node"><title>Node11</title>
<a xlink:title="STL class. ">
<polygon fill="white" stroke="#bfbfbf" points="518.5,-74 518.5,-108 613.5,-108 613.5,-74 518.5,-74"/>
<text text-anchor="start" x="526.5" y="-95" font-family="Helvetica,sans-Serif" font-size="10.00">std::basic_string&lt;</text>
<text text-anchor="middle" x="566" y="-82" font-family="Helvetica,sans-Serif" font-size="10.00"> char &gt;</text>
</a>
</g>
<!-- Node11&#45;&gt;Node10 -->
<g id="edge12" class="edge"><title>Node11&#45;&gt;Node10</title>
<path fill="none" stroke="midnightblue" d="M623.879,-90.7333C665.385,-90.542 719.63,-90.292 752.859,-90.1389"/>
<polygon fill="midnightblue" stroke="midnightblue" points="623.605,-87.2344 613.622,-90.7805 623.638,-94.2343 623.605,-87.2344"/>
</g>
<!-- Node12 -->
<g id="node14" class="node"><title>Node12</title>
<polygon fill="white" stroke="#bfbfbf" points="706.5,-24 706.5,-58 859.5,-58 859.5,-24 706.5,-24"/>
<text text-anchor="start" x="714.5" y="-45" font-family="Helvetica,sans-Serif" font-size="10.00">std::vector&lt; ant::expconfig</text>
<text text-anchor="middle" x="783" y="-32" font-family="Helvetica,sans-Serif" font-size="10.00">::detector::Tagger::Element_t &gt;</text>
</g>
<!-- Node12&#45;&gt;Node6 -->
<g id="edge14" class="edge"><title>Node12&#45;&gt;Node6</title>
<path fill="none" stroke="#9a32cd" stroke-dasharray="5,2" d="M869.707,-58.9729C891.691,-64.6467 915.014,-71.6584 936,-80 944.504,-83.3805 945.756,-86.0255 954,-90 960.288,-93.0318 967.024,-96.0472 973.668,-98.8926"/>
<polygon fill="#9a32cd" stroke="#9a32cd" points="870.266,-55.5044 859.714,-56.4602 868.559,-62.2931 870.266,-55.5044"/>
<text text-anchor="middle" x="907" y="-84" font-family="Helvetica,sans-Serif" font-size="10.00"> elements</text>
</g>
<!-- Node13 -->
<g id="node16" class="node"><title>Node13</title>
<a xlink:href="structant_1_1expconfig_1_1detector_1_1_tagger_1_1_element__t.html" target="_top" xlink:title="ant::expconfig::detector\l::Tagger::Element_t">
<polygon fill="white" stroke="black" points="506.5,-22 506.5,-56 625.5,-56 625.5,-22 506.5,-22"/>
<text text-anchor="start" x="514.5" y="-43" font-family="Helvetica,sans-Serif" font-size="10.00">ant::expconfig::detector</text>
<text text-anchor="middle" x="566" y="-30" font-family="Helvetica,sans-Serif" font-size="10.00">::Tagger::Element_t</text>
</a>
</g>
<!-- Node13&#45;&gt;Node12 -->
<g id="edge16" class="edge"><title>Node13&#45;&gt;Node12</title>
<path fill="none" stroke="#9a32cd" stroke-dasharray="5,2" d="M635.746,-39.6428C658.296,-39.8507 683.416,-40.0822 706.433,-40.2943"/>
<polygon fill="#9a32cd" stroke="#9a32cd" points="635.615,-36.1416 625.583,-39.5492 635.551,-43.1413 635.615,-36.1416"/>
<text text-anchor="middle" x="666" y="-45" font-family="Helvetica,sans-Serif" font-size="10.00"> elements</text>
</g>
<!-- Node14 -->
<g id="node18" class="node"><title>Node14</title>
<a xlink:href="structant_1_1_tagger_detector__t_1_1_element__t.html" target="_top" xlink:title="ant::TaggerDetector\l_t::Element_t">
<polygon fill="white" stroke="black" points="364,-22 364,-56 468,-56 468,-22 364,-22"/>
<text text-anchor="start" x="372" y="-43" font-family="Helvetica,sans-Serif" font-size="10.00">ant::TaggerDetector</text>
<text text-anchor="middle" x="416" y="-30" font-family="Helvetica,sans-Serif" font-size="10.00">_t::Element_t</text>
</a>
</g>
<!-- Node14&#45;&gt;Node13 -->
<g id="edge18" class="edge"><title>Node14&#45;&gt;Node13</title>
<path fill="none" stroke="midnightblue" d="M478.052,-39C487.404,-39 497.033,-39 506.334,-39"/>
<polygon fill="midnightblue" stroke="midnightblue" points="478.042,-35.5001 468.042,-39 478.042,-42.5001 478.042,-35.5001"/>
</g>
<!-- Node15 -->
<g id="node20" class="node"><title>Node15</title>
<a xlink:href="structant_1_1_tagger_detector__t_1_1taggeff__t.html" target="_top" xlink:title="ant::TaggerDetector\l_t::taggeff_t">
<polygon fill="white" stroke="black" points="166,-40 166,-74 270,-74 270,-40 166,-40"/>
<text text-anchor="start" x="174" y="-61" font-family="Helvetica,sans-Serif" font-size="10.00">ant::TaggerDetector</text>
<text text-anchor="middle" x="218" y="-48" font-family="Helvetica,sans-Serif" font-size="10.00">_t::taggeff_t</text>
</a>
</g>
<!-- Node15&#45;&gt;Node14 -->
<g id="edge20" class="edge"><title>Node15&#45;&gt;Node14</title>
<path fill="none" stroke="#9a32cd" stroke-dasharray="5,2" d="M280.123,-51.3525C307.073,-48.9024 338.278,-46.0656 363.982,-43.7289"/>
<polygon fill="#9a32cd" stroke="#9a32cd" points="279.664,-47.8796 270.022,-52.2707 280.298,-54.8509 279.664,-47.8796"/>
<text text-anchor="middle" x="327" y="-53" font-family="Helvetica,sans-Serif" font-size="10.00"> TaggEff</text>
</g>
<!-- Node16 -->
<g id="node22" class="node"><title>Node16</title>
<a xlink:href="classant_1_1bitflag.html" target="_top" xlink:title="ant::bitflag\&lt; ElementFlag_t \&gt;">
<polygon fill="white" stroke="black" points="146.5,-0.5 146.5,-21.5 289.5,-21.5 289.5,-0.5 146.5,-0.5"/>
<text text-anchor="middle" x="218" y="-8.5" font-family="Helvetica,sans-Serif" font-size="10.00">ant::bitflag&lt; ElementFlag_t &gt;</text>
</a>
</g>
<!-- Node16&#45;&gt;Node14 -->
<g id="edge22" class="edge"><title>Node16&#45;&gt;Node14</title>
<path fill="none" stroke="#9a32cd" stroke-dasharray="5,2" d="M299.762,-22.4706C315.126,-24.6337 331.054,-26.8816 346,-29 351.713,-29.8097 357.687,-30.6592 363.635,-31.5065"/>
<polygon fill="#9a32cd" stroke="#9a32cd" points="300.154,-18.9914 289.764,-21.0636 299.179,-25.9231 300.154,-18.9914"/>
<text text-anchor="middle" x="327" y="-33" font-family="Helvetica,sans-Serif" font-size="10.00"> Flags</text>
</g>
<!-- Node17 -->
<g id="node24" class="node"><title>Node17</title>
<polygon fill="white" stroke="#bfbfbf" points="0.5,-0.5 0.5,-21.5 89.5,-21.5 89.5,-0.5 0.5,-0.5"/>
<text text-anchor="middle" x="45" y="-8.5" font-family="Helvetica,sans-Serif" font-size="10.00">std::bitset&lt; 32 &gt;</text>
</g>
<!-- Node17&#45;&gt;Node16 -->
<g id="edge24" class="edge"><title>Node17&#45;&gt;Node16</title>
<path fill="none" stroke="#9a32cd" stroke-dasharray="5,2" d="M99.5802,-11C114.441,-11 130.764,-11 146.415,-11"/>
<polygon fill="#9a32cd" stroke="#9a32cd" points="99.5518,-7.5001 89.5518,-11 99.5518,-14.5001 99.5518,-7.5001"/>
<text text-anchor="middle" x="118" y="-15" font-family="Helvetica,sans-Serif" font-size="10.00"> bits</text>
</g>
<!-- Node18 -->
<g id="node26" class="node"><title>Node18</title>
<polygon fill="white" stroke="#bfbfbf" points="954.5,-59.5 954.5,-80.5 1079.5,-80.5 1079.5,-59.5 954.5,-59.5"/>
<text text-anchor="middle" x="1017" y="-67.5" font-family="Helvetica,sans-Serif" font-size="10.00">std::vector&lt; Element_t &gt;</text>
</g>
<!-- Node18&#45;&gt;Node5 -->
<g id="edge26" class="edge"><title>Node18&#45;&gt;Node5</title>
<path fill="none" stroke="#9a32cd" stroke-dasharray="5,2" d="M1089.84,-74.6361C1112.35,-76.1915 1137.21,-78.0348 1160,-80 1165.97,-80.5145 1172.19,-81.0885 1178.4,-81.6863"/>
<polygon fill="#9a32cd" stroke="#9a32cd" points="1089.9,-71.1319 1079.68,-73.9422 1089.42,-78.1156 1089.9,-71.1319"/>
<text text-anchor="middle" x="1129" y="-84" font-family="Helvetica,sans-Serif" font-size="10.00"> elements_init</text>
</g>
</g>
</svg>
