<?xml version="1.0" encoding="UTF-8" standalone="no"?>
<!DOCTYPE svg PUBLIC "-//W3C//DTD SVG 1.1//EN"
 "http://www.w3.org/Graphics/SVG/1.1/DTD/svg11.dtd">
<!-- Generated by graphviz version 2.26.3 (20100126.1600)
 -->
<!-- Title: CommonHist_t Pages: 1 -->
<svg width="139pt" height="174pt"
 viewBox="0.00 0.00 139.00 174.00" xmlns="http://www.w3.org/2000/svg" xmlns:xlink="http://www.w3.org/1999/xlink">
<g id="graph1" class="graph" transform="scale(1 1) rotate(0) translate(4 170)">
<title>CommonHist_t</title>
<polygon fill="white" stroke="white" points="-4,5 -4,-170 136,-170 136,5 -4,5"/>
<!-- Node5 -->
<g id="node1" class="node"><title>Node5</title>
<polygon fill="#bfbfbf" stroke="black" points="15.5,-0.5 15.5,-21.5 98.5,-21.5 98.5,-0.5 15.5,-0.5"/>
<text text-anchor="middle" x="57" y="-8.5" font-family="Helvetica,sans-Serif" font-size="10.00">CommonHist_t</text>
</g>
<!-- Node6 -->
<g id="node2" class="node"><title>Node6</title>
<a xlink:href="classant_1_1_bin_settings.html" target="_top" xlink:title="ant::BinSettings">
<polygon fill="white" stroke="black" points="14,-84.5 14,-105.5 100,-105.5 100,-84.5 14,-84.5"/>
<text text-anchor="middle" x="57" y="-92.5" font-family="Helvetica,sans-Serif" font-size="10.00">ant::BinSettings</text>
</a>
</g>
<!-- Node6&#45;&gt;Node5 -->
<g id="edge2" class="edge"><title>Node6&#45;&gt;Node5</title>
<path fill="none" stroke="#9a32cd" stroke-dasharray="5,2" d="M57,-73.9452C57,-57.2568 57,-34.6387 57,-21.5523"/>
<polygon fill="#9a32cd" stroke="#9a32cd" points="53.5001,-74.3613 57,-84.3613 60.5001,-74.3614 53.5001,-74.3613"/>
<text text-anchor="middle" x="94" y="-57" font-family="Helvetica,sans-Serif" font-size="10.00"> bins_LogFitProb</text>
<text text-anchor="middle" x="94" y="-44" font-family="Helvetica,sans-Serif" font-size="10.00">bins_FitProb</text>
</g>
<!-- Node7 -->
<g id="node4" class="node"><title>Node7</title>
<a xlink:href="classant_1_1interval.html" target="_top" xlink:title="ant::interval\&lt; double \&gt;">
<polygon fill="white" stroke="black" points="0,-144.5 0,-165.5 114,-165.5 114,-144.5 0,-144.5"/>
<text text-anchor="middle" x="57" y="-152.5" font-family="Helvetica,sans-Serif" font-size="10.00">ant::interval&lt; double &gt;</text>
</a>
</g>
<!-- Node7&#45;&gt;Node6 -->
<g id="edge4" class="edge"><title>Node7&#45;&gt;Node6</title>
<path fill="none" stroke="midnightblue" d="M57,-134.231C57,-124.592 57,-113.544 57,-105.634"/>
<polygon fill="midnightblue" stroke="midnightblue" points="53.5001,-134.273 57,-144.273 60.5001,-134.273 53.5001,-134.273"/>
</g>
</g>
</svg>
