<?xml version="1.0" encoding="UTF-8" standalone="no"?>
<!DOCTYPE svg PUBLIC "-//W3C//DTD SVG 1.1//EN"
 "http://www.w3.org/Graphics/SVG/1.1/DTD/svg11.dtd">
<!-- Generated by graphviz version 2.26.3 (20100126.1600)
 -->
<!-- Title: ant::analysis::utils::UncertaintyModels::ConstantRelativeEpow Pages: 1 -->
<svg width="124pt" height="212pt"
 viewBox="0.00 0.00 124.00 212.00" xmlns="http://www.w3.org/2000/svg" xmlns:xlink="http://www.w3.org/1999/xlink">
<g id="graph1" class="graph" transform="scale(1 1) rotate(0) translate(4 208)">
<title>ant::analysis::utils::UncertaintyModels::ConstantRelativeEpow</title>
<polygon fill="white" stroke="white" points="-4,5 -4,-208 121,-208 121,5 -4,5"/>
<!-- Node0 -->
<g id="node1" class="node"><title>Node0</title>
<polygon fill="#bfbfbf" stroke="black" points="-0.5,-0.5 -0.5,-47.5 116.5,-47.5 116.5,-0.5 -0.5,-0.5"/>
<text text-anchor="start" x="7.5" y="-34.5" font-family="Helvetica,sans-Serif" font-size="10.00">ant::analysis::utils</text>
<text text-anchor="start" x="7.5" y="-21.5" font-family="Helvetica,sans-Serif" font-size="10.00">::UncertaintyModels::</text>
<text text-anchor="middle" x="58" y="-8.5" font-family="Helvetica,sans-Serif" font-size="10.00">ConstantRelativeEpow</text>
</g>
<!-- Node1 -->
<g id="node2" class="node"><title>Node1</title>
<a xlink:href="structant_1_1analysis_1_1utils_1_1_uncertainty_models_1_1_constant.html" target="_top" xlink:title="Constant/static kin fitter uncertainty model. has a fixed value for {cb,taps}{photon,proton}{E,theta,phi}. ">
<polygon fill="white" stroke="black" points="3,-84.5 3,-131.5 113,-131.5 113,-84.5 3,-84.5"/>
<text text-anchor="start" x="11" y="-118.5" font-family="Helvetica,sans-Serif" font-size="10.00">ant::analysis::utils</text>
<text text-anchor="start" x="11" y="-105.5" font-family="Helvetica,sans-Serif" font-size="10.00">::UncertaintyModels::</text>
<text text-anchor="middle" x="58" y="-92.5" font-family="Helvetica,sans-Serif" font-size="10.00">Constant</text>
</a>
</g>
<!-- Node1&#45;&gt;Node0 -->
<g id="edge2" class="edge"><title>Node1&#45;&gt;Node0</title>
<path fill="none" stroke="midnightblue" d="M58,-74.0664C58,-65.1933 58,-55.821 58,-47.6152"/>
<polygon fill="midnightblue" stroke="midnightblue" points="54.5001,-74.1536 58,-84.1537 61.5001,-74.1537 54.5001,-74.1536"/>
</g>
<!-- Node2 -->
<g id="node4" class="node"><title>Node2</title>
<a xlink:href="classant_1_1analysis_1_1utils_1_1_uncertainty_model.html" target="_top" xlink:title="Virtual base class for different Uncertainty Models for fitter. Implement at least the GetSigmas() me...">
<polygon fill="white" stroke="black" points="8.5,-169 8.5,-203 107.5,-203 107.5,-169 8.5,-169"/>
<text text-anchor="start" x="16.5" y="-190" font-family="Helvetica,sans-Serif" font-size="10.00">ant::analysis::utils</text>
<text text-anchor="middle" x="58" y="-177" font-family="Helvetica,sans-Serif" font-size="10.00">::UncertaintyModel</text>
</a>
</g>
<!-- Node2&#45;&gt;Node1 -->
<g id="edge4" class="edge"><title>Node2&#45;&gt;Node1</title>
<path fill="none" stroke="midnightblue" d="M58,-158.579C58,-149.834 58,-140.234 58,-131.77"/>
<polygon fill="midnightblue" stroke="midnightblue" points="54.5001,-158.689 58,-168.689 61.5001,-158.689 54.5001,-158.689"/>
</g>
</g>
</svg>
