<?xml version="1.0" encoding="UTF-8" standalone="no"?>
<!DOCTYPE svg PUBLIC "-//W3C//DTD SVG 1.1//EN"
 "http://www.w3.org/Graphics/SVG/1.1/DTD/svg11.dtd">
<!-- Generated by graphviz version 2.26.3 (20100126.1600)
 -->
<!-- Title: ant::Detector_t::Element_t Pages: 1 -->
<svg width="224pt" height="174pt"
 viewBox="0.00 0.00 224.00 174.00" xmlns="http://www.w3.org/2000/svg" xmlns:xlink="http://www.w3.org/1999/xlink">
<g id="graph1" class="graph" transform="scale(1 1) rotate(0) translate(4 170)">
<title>ant::Detector_t::Element_t</title>
<polygon fill="white" stroke="white" points="-4,5 -4,-170 221,-170 221,5 -4,5"/>
<!-- Node10 -->
<g id="node1" class="node"><title>Node10</title>
<polygon fill="#bfbfbf" stroke="black" points="6,-0.5 6,-21.5 138,-21.5 138,-0.5 6,-0.5"/>
<text text-anchor="middle" x="72" y="-8.5" font-family="Helvetica,sans-Serif" font-size="10.00">ant::Detector_t::Element_t</text>
</g>
<!-- Node11 -->
<g id="node2" class="node"><title>Node11</title>
<a xlink:href="structant_1_1vec3.html" target="_top" xlink:title="ant::vec3">
<polygon fill="white" stroke="black" points="-0.5,-72.5 -0.5,-93.5 56.5,-93.5 56.5,-72.5 -0.5,-72.5"/>
<text text-anchor="middle" x="28" y="-80.5" font-family="Helvetica,sans-Serif" font-size="10.00">ant::vec3</text>
</a>
</g>
<!-- Node11&#45;&gt;Node10 -->
<g id="edge2" class="edge"><title>Node11&#45;&gt;Node10</title>
<path fill="none" stroke="#9a32cd" stroke-dasharray="5,2" d="M39.7273,-63.8099C47.9769,-50.3106 58.7115,-32.7449 65.481,-21.6674"/>
<polygon fill="#9a32cd" stroke="#9a32cd" points="36.7204,-62.0182 34.4924,-72.3762 42.6934,-65.6684 36.7204,-62.0182"/>
<text text-anchor="middle" x="72.5" y="-44.5" font-family="Helvetica,sans-Serif" font-size="10.00"> Position</text>
</g>
<!-- Node12 -->
<g id="node4" class="node"><title>Node12</title>
<a xlink:href="classant_1_1bitflag.html" target="_top" xlink:title="ant::bitflag\&lt; ElementFlag_t \&gt;">
<polygon fill="white" stroke="black" points="73.5,-72.5 73.5,-93.5 216.5,-93.5 216.5,-72.5 73.5,-72.5"/>
<text text-anchor="middle" x="145" y="-80.5" font-family="Helvetica,sans-Serif" font-size="10.00">ant::bitflag&lt; ElementFlag_t &gt;</text>
</a>
</g>
<!-- Node12&#45;&gt;Node10 -->
<g id="edge4" class="edge"><title>Node12&#45;&gt;Node10</title>
<path fill="none" stroke="#9a32cd" stroke-dasharray="5,2" d="M127.104,-65.3488C113.236,-51.6714 94.4789,-33.1709 82.8156,-21.6674"/>
<polygon fill="#9a32cd" stroke="#9a32cd" points="124.651,-67.8459 134.229,-72.3762 129.567,-62.8621 124.651,-67.8459"/>
<text text-anchor="middle" x="129" y="-44.5" font-family="Helvetica,sans-Serif" font-size="10.00"> Flags</text>
</g>
<!-- Node13 -->
<g id="node6" class="node"><title>Node13</title>
<polygon fill="white" stroke="#bfbfbf" points="100.5,-144.5 100.5,-165.5 189.5,-165.5 189.5,-144.5 100.5,-144.5"/>
<text text-anchor="middle" x="145" y="-152.5" font-family="Helvetica,sans-Serif" font-size="10.00">std::bitset&lt; 32 &gt;</text>
</g>
<!-- Node13&#45;&gt;Node12 -->
<g id="edge6" class="edge"><title>Node13&#45;&gt;Node12</title>
<path fill="none" stroke="#9a32cd" stroke-dasharray="5,2" d="M145,-134.235C145,-120.969 145,-104.319 145,-93.6674"/>
<polygon fill="#9a32cd" stroke="#9a32cd" points="141.5,-134.376 145,-144.376 148.5,-134.376 141.5,-134.376"/>
<text text-anchor="middle" x="154.5" y="-116.5" font-family="Helvetica,sans-Serif" font-size="10.00"> bits</text>
</g>
</g>
</svg>
