<?xml version="1.0" encoding="UTF-8" standalone="no"?>
<!DOCTYPE svg PUBLIC "-//W3C//DTD SVG 1.1//EN"
 "http://www.w3.org/Graphics/SVG/1.1/DTD/svg11.dtd">
<!-- Generated by graphviz version 2.26.3 (20100126.1600)
 -->
<!-- Title: ant::expconfig::detector::TAPS::BaF2_Element_t Pages: 1 -->
<svg width="278pt" height="408pt"
 viewBox="0.00 0.00 278.00 408.00" xmlns="http://www.w3.org/2000/svg" xmlns:xlink="http://www.w3.org/1999/xlink">
<g id="graph1" class="graph" transform="scale(1 1) rotate(0) translate(4 404)">
<title>ant::expconfig::detector::TAPS::BaF2_Element_t</title>
<polygon fill="white" stroke="white" points="-4,5 -4,-404 275,-404 275,5 -4,5"/>
<!-- Node4 -->
<g id="node1" class="node"><title>Node4</title>
<polygon fill="#bfbfbf" stroke="black" points="110,-1 110,-35 238,-35 238,-1 110,-1"/>
<text text-anchor="start" x="118" y="-22" font-family="Helvetica,sans-Serif" font-size="10.00">ant::expconfig::detector</text>
<text text-anchor="middle" x="174" y="-9" font-family="Helvetica,sans-Serif" font-size="10.00">::TAPS::BaF2_Element_t</text>
</g>
<!-- Node5 -->
<g id="node2" class="node"><title>Node5</title>
<a xlink:href="structant_1_1expconfig_1_1detector_1_1_t_a_p_s_1_1_t_a_p_s___element__t.html" target="_top" xlink:title="ant::expconfig::detector\l::TAPS::TAPS_Element_t">
<polygon fill="white" stroke="black" points="108.5,-75 108.5,-109 239.5,-109 239.5,-75 108.5,-75"/>
<text text-anchor="start" x="116.5" y="-96" font-family="Helvetica,sans-Serif" font-size="10.00">ant::expconfig::detector</text>
<text text-anchor="middle" x="174" y="-83" font-family="Helvetica,sans-Serif" font-size="10.00">::TAPS::TAPS_Element_t</text>
</a>
</g>
<!-- Node5&#45;&gt;Node4 -->
<g id="edge2" class="edge"><title>Node5&#45;&gt;Node4</title>
<path fill="none" stroke="midnightblue" d="M174,-64.6275C174,-54.7253 174,-43.8344 174,-35.07"/>
<polygon fill="midnightblue" stroke="midnightblue" points="170.5,-64.8369 174,-74.8369 177.5,-64.8369 170.5,-64.8369"/>
</g>
<!-- Node6 -->
<g id="node4" class="node"><title>Node6</title>
<a xlink:href="structant_1_1_cluster_detector__t_1_1_element__t.html" target="_top" xlink:title="ant::ClusterDetector\l_t::Element_t">
<polygon fill="white" stroke="black" points="121.5,-149 121.5,-183 226.5,-183 226.5,-149 121.5,-149"/>
<text text-anchor="start" x="129.5" y="-170" font-family="Helvetica,sans-Serif" font-size="10.00">ant::ClusterDetector</text>
<text text-anchor="middle" x="174" y="-157" font-family="Helvetica,sans-Serif" font-size="10.00">_t::Element_t</text>
</a>
</g>
<!-- Node6&#45;&gt;Node5 -->
<g id="edge4" class="edge"><title>Node6&#45;&gt;Node5</title>
<path fill="none" stroke="midnightblue" d="M174,-138.627C174,-128.725 174,-117.834 174,-109.07"/>
<polygon fill="midnightblue" stroke="midnightblue" points="170.5,-138.837 174,-148.837 177.5,-138.837 170.5,-138.837"/>
</g>
<!-- Node7 -->
<g id="node6" class="node"><title>Node7</title>
<a xlink:href="structant_1_1_detector__t_1_1_element__t.html" target="_top" xlink:title="ant::Detector_t::Element_t">
<polygon fill="white" stroke="black" points="0,-234.5 0,-255.5 132,-255.5 132,-234.5 0,-234.5"/>
<text text-anchor="middle" x="66" y="-242.5" font-family="Helvetica,sans-Serif" font-size="10.00">ant::Detector_t::Element_t</text>
</a>
</g>
<!-- Node7&#45;&gt;Node6 -->
<g id="edge6" class="edge"><title>Node7&#45;&gt;Node6</title>
<path fill="none" stroke="midnightblue" d="M88.8415,-228.292C106.995,-215.013 132.29,-196.51 150.591,-183.124"/>
<polygon fill="midnightblue" stroke="midnightblue" points="86.5702,-225.617 80.5654,-234.346 90.7029,-231.267 86.5702,-225.617"/>
</g>
<!-- Node8 -->
<g id="node8" class="node"><title>Node8</title>
<a xlink:href="structant_1_1vec3.html" target="_top" xlink:title="ant::vec3">
<polygon fill="white" stroke="black" points="6.5,-306.5 6.5,-327.5 63.5,-327.5 63.5,-306.5 6.5,-306.5"/>
<text text-anchor="middle" x="35" y="-314.5" font-family="Helvetica,sans-Serif" font-size="10.00">ant::vec3</text>
</a>
</g>
<!-- Node8&#45;&gt;Node7 -->
<g id="edge8" class="edge"><title>Node8&#45;&gt;Node7</title>
<path fill="none" stroke="#9a32cd" stroke-dasharray="5,2" d="M43.5996,-297.027C49.3645,-283.637 56.7293,-266.532 61.4071,-255.667"/>
<polygon fill="#9a32cd" stroke="#9a32cd" points="40.3141,-295.807 39.5742,-306.376 46.7435,-298.575 40.3141,-295.807"/>
<text text-anchor="middle" x="73.5" y="-278.5" font-family="Helvetica,sans-Serif" font-size="10.00"> Position</text>
</g>
<!-- Node9 -->
<g id="node10" class="node"><title>Node9</title>
<a xlink:href="classant_1_1bitflag.html" target="_top" xlink:title="ant::bitflag\&lt; ElementFlag_t \&gt;">
<polygon fill="white" stroke="black" points="80.5,-306.5 80.5,-327.5 223.5,-327.5 223.5,-306.5 80.5,-306.5"/>
<text text-anchor="middle" x="152" y="-314.5" font-family="Helvetica,sans-Serif" font-size="10.00">ant::bitflag&lt; ElementFlag_t &gt;</text>
</a>
</g>
<!-- Node9&#45;&gt;Node7 -->
<g id="edge10" class="edge"><title>Node9&#45;&gt;Node7</title>
<path fill="none" stroke="#9a32cd" stroke-dasharray="5,2" d="M131.369,-299.728C114.99,-286.015 92.6092,-267.277 78.7417,-255.667"/>
<polygon fill="#9a32cd" stroke="#9a32cd" points="129.396,-302.64 139.31,-306.376 133.89,-297.273 129.396,-302.64"/>
<text text-anchor="middle" x="131" y="-278.5" font-family="Helvetica,sans-Serif" font-size="10.00"> Flags</text>
</g>
<!-- Node10 -->
<g id="node12" class="node"><title>Node10</title>
<polygon fill="white" stroke="#bfbfbf" points="107.5,-378.5 107.5,-399.5 196.5,-399.5 196.5,-378.5 107.5,-378.5"/>
<text text-anchor="middle" x="152" y="-386.5" font-family="Helvetica,sans-Serif" font-size="10.00">std::bitset&lt; 32 &gt;</text>
</g>
<!-- Node10&#45;&gt;Node9 -->
<g id="edge12" class="edge"><title>Node10&#45;&gt;Node9</title>
<path fill="none" stroke="#9a32cd" stroke-dasharray="5,2" d="M152,-368.235C152,-354.969 152,-338.319 152,-327.667"/>
<polygon fill="#9a32cd" stroke="#9a32cd" points="148.5,-368.376 152,-378.376 155.5,-368.376 148.5,-368.376"/>
<text text-anchor="middle" x="161.5" y="-350.5" font-family="Helvetica,sans-Serif" font-size="10.00"> bits</text>
</g>
<!-- Node11 -->
<g id="node14" class="node"><title>Node11</title>
<polygon fill="white" stroke="#bfbfbf" points="150,-234.5 150,-255.5 270,-255.5 270,-234.5 150,-234.5"/>
<text text-anchor="middle" x="210" y="-242.5" font-family="Helvetica,sans-Serif" font-size="10.00">std::vector&lt; unsigned &gt;</text>
</g>
<!-- Node11&#45;&gt;Node6 -->
<g id="edge14" class="edge"><title>Node11&#45;&gt;Node6</title>
<path fill="none" stroke="#9a32cd" stroke-dasharray="5,2" d="M200.856,-224.933C194.971,-212.019 187.404,-195.415 181.803,-183.124"/>
<polygon fill="#9a32cd" stroke="#9a32cd" points="197.813,-226.697 205.145,-234.346 204.183,-223.795 197.813,-226.697"/>
<text text-anchor="middle" x="223.5" y="-206.5" font-family="Helvetica,sans-Serif" font-size="10.00"> Neighbours</text>
</g>
</g>
</svg>
