<?xml version="1.0" encoding="UTF-8" standalone="no"?>
<!DOCTYPE svg PUBLIC "-//W3C//DTD SVG 1.1//EN"
 "http://www.w3.org/Graphics/SVG/1.1/DTD/svg11.dtd">
<!-- Generated by graphviz version 2.26.3 (20100126.1600)
 -->
<!-- Title: ant::Detector_t::Element_t Pages: 1 -->
<svg width="680pt" height="276pt"
 viewBox="0.00 0.00 680.00 276.00" xmlns="http://www.w3.org/2000/svg" xmlns:xlink="http://www.w3.org/1999/xlink">
<g id="graph1" class="graph" transform="scale(1 1) rotate(0) translate(4 272)">
<title>ant::Detector_t::Element_t</title>
<polygon fill="white" stroke="white" points="-4,5 -4,-272 677,-272 677,5 -4,5"/>
<!-- Node0 -->
<g id="node1" class="node"><title>Node0</title>
<polygon fill="#bfbfbf" stroke="black" points="0,-110.5 0,-131.5 132,-131.5 132,-110.5 0,-110.5"/>
<text text-anchor="middle" x="66" y="-118.5" font-family="Helvetica,sans-Serif" font-size="10.00">ant::Detector_t::Element_t</text>
</g>
<!-- Node1 -->
<g id="node3" class="node"><title>Node1</title>
<a xlink:href="structant_1_1_cluster_detector__t_1_1_element__t.html" target="_top" xlink:title="ant::ClusterDetector\l_t::Element_t">
<polygon fill="white" stroke="black" points="195.5,-208 195.5,-242 300.5,-242 300.5,-208 195.5,-208"/>
<text text-anchor="start" x="203.5" y="-229" font-family="Helvetica,sans-Serif" font-size="10.00">ant::ClusterDetector</text>
<text text-anchor="middle" x="248" y="-216" font-family="Helvetica,sans-Serif" font-size="10.00">_t::Element_t</text>
</a>
</g>
<!-- Node0&#45;&gt;Node1 -->
<g id="edge2" class="edge"><title>Node0&#45;&gt;Node1</title>
<path fill="none" stroke="midnightblue" d="M84.5865,-138.358C104.073,-155.765 136.224,-182.314 168,-199 176.534,-203.481 185.984,-207.38 195.312,-210.699"/>
<polygon fill="midnightblue" stroke="midnightblue" points="86.8048,-135.645 77.0487,-131.514 82.099,-140.827 86.8048,-135.645"/>
</g>
<!-- Node6 -->
<g id="node13" class="node"><title>Node6</title>
<a xlink:href="structant_1_1expconfig_1_1detector_1_1_cherenkov_1_1_element__t.html" target="_top" xlink:title="ant::expconfig::detector\l::Cherenkov::Element_t">
<polygon fill="white" stroke="black" points="188,-156 188,-190 308,-190 308,-156 188,-156"/>
<text text-anchor="start" x="196" y="-177" font-family="Helvetica,sans-Serif" font-size="10.00">ant::expconfig::detector</text>
<text text-anchor="middle" x="248" y="-164" font-family="Helvetica,sans-Serif" font-size="10.00">::Cherenkov::Element_t</text>
</a>
</g>
<!-- Node0&#45;&gt;Node6 -->
<g id="edge12" class="edge"><title>Node0&#45;&gt;Node6</title>
<path fill="none" stroke="midnightblue" d="M112.694,-134.341C135.713,-140.918 163.736,-148.925 188.296,-155.942"/>
<polygon fill="midnightblue" stroke="midnightblue" points="113.407,-130.905 102.83,-131.523 111.484,-137.636 113.407,-130.905"/>
</g>
<!-- Node7 -->
<g id="node15" class="node"><title>Node7</title>
<a xlink:href="structant_1_1expconfig_1_1detector_1_1_p_i_d_1_1_element__t.html" target="_top" xlink:title="ant::expconfig::detector\l::PID::Element_t">
<polygon fill="white" stroke="black" points="188.5,-104 188.5,-138 307.5,-138 307.5,-104 188.5,-104"/>
<text text-anchor="start" x="196.5" y="-125" font-family="Helvetica,sans-Serif" font-size="10.00">ant::expconfig::detector</text>
<text text-anchor="middle" x="248" y="-112" font-family="Helvetica,sans-Serif" font-size="10.00">::PID::Element_t</text>
</a>
</g>
<!-- Node0&#45;&gt;Node7 -->
<g id="edge14" class="edge"><title>Node0&#45;&gt;Node7</title>
<path fill="none" stroke="midnightblue" d="M142.26,-121C157.694,-121 173.708,-121 188.464,-121"/>
<polygon fill="midnightblue" stroke="midnightblue" points="142.221,-117.5 132.221,-121 142.221,-124.5 142.221,-117.5"/>
</g>
<!-- Node8 -->
<g id="node17" class="node"><title>Node8</title>
<a xlink:href="structant_1_1expconfig_1_1detector_1_1_t_a_p_s_veto_1_1_ba_f2___element__t.html" target="_top" xlink:title="ant::expconfig::detector\l::TAPSVeto::BaF2_Element_t">
<polygon fill="white" stroke="black" points="174,-52 174,-86 322,-86 322,-52 174,-52"/>
<text text-anchor="start" x="182" y="-73" font-family="Helvetica,sans-Serif" font-size="10.00">ant::expconfig::detector</text>
<text text-anchor="middle" x="248" y="-60" font-family="Helvetica,sans-Serif" font-size="10.00">::TAPSVeto::BaF2_Element_t</text>
</a>
</g>
<!-- Node0&#45;&gt;Node8 -->
<g id="edge16" class="edge"><title>Node0&#45;&gt;Node8</title>
<path fill="none" stroke="midnightblue" d="M112.694,-107.659C135.713,-101.082 163.736,-93.0754 188.296,-86.0582"/>
<polygon fill="midnightblue" stroke="midnightblue" points="111.484,-104.364 102.83,-110.477 113.407,-111.095 111.484,-104.364"/>
</g>
<!-- Node9 -->
<g id="node19" class="node"><title>Node9</title>
<a xlink:href="structant_1_1expconfig_1_1detector_1_1_t_a_p_s_veto_1_1_pb_w_o4___element__t.html" target="_top" xlink:title="ant::expconfig::detector\l::TAPSVeto::PbWO4_Element_t">
<polygon fill="white" stroke="black" points="168.5,-0 168.5,-34 327.5,-34 327.5,-0 168.5,-0"/>
<text text-anchor="start" x="176.5" y="-21" font-family="Helvetica,sans-Serif" font-size="10.00">ant::expconfig::detector</text>
<text text-anchor="middle" x="248" y="-8" font-family="Helvetica,sans-Serif" font-size="10.00">::TAPSVeto::PbWO4_Element_t</text>
</a>
</g>
<!-- Node0&#45;&gt;Node9 -->
<g id="edge18" class="edge"><title>Node0&#45;&gt;Node9</title>
<path fill="none" stroke="midnightblue" d="M84.5865,-103.642C104.073,-86.2352 136.224,-59.6864 168,-43 174.206,-39.741 180.898,-36.79 187.674,-34.1462"/>
<polygon fill="midnightblue" stroke="midnightblue" points="82.099,-101.173 77.0487,-110.486 86.8048,-106.355 82.099,-101.173"/>
</g>
<!-- Node2 -->
<g id="node5" class="node"><title>Node2</title>
<a xlink:href="structant_1_1expconfig_1_1detector_1_1_c_b_1_1_element__t.html" target="_top" xlink:title="ant::expconfig::detector\l::CB::Element_t">
<polygon fill="white" stroke="black" points="370.5,-234 370.5,-268 489.5,-268 489.5,-234 370.5,-234"/>
<text text-anchor="start" x="378.5" y="-255" font-family="Helvetica,sans-Serif" font-size="10.00">ant::expconfig::detector</text>
<text text-anchor="middle" x="430" y="-242" font-family="Helvetica,sans-Serif" font-size="10.00">::CB::Element_t</text>
</a>
</g>
<!-- Node1&#45;&gt;Node2 -->
<g id="edge4" class="edge"><title>Node1&#45;&gt;Node2</title>
<path fill="none" stroke="midnightblue" d="M310.583,-233.94C329.968,-236.71 351.264,-239.752 370.438,-242.491"/>
<polygon fill="midnightblue" stroke="midnightblue" points="311.036,-230.47 300.642,-232.52 310.046,-237.399 311.036,-230.47"/>
</g>
<!-- Node3 -->
<g id="node7" class="node"><title>Node3</title>
<a xlink:href="structant_1_1expconfig_1_1detector_1_1_t_a_p_s_1_1_t_a_p_s___element__t.html" target="_top" xlink:title="ant::expconfig::detector\l::TAPS::TAPS_Element_t">
<polygon fill="white" stroke="black" points="364.5,-182 364.5,-216 495.5,-216 495.5,-182 364.5,-182"/>
<text text-anchor="start" x="372.5" y="-203" font-family="Helvetica,sans-Serif" font-size="10.00">ant::expconfig::detector</text>
<text text-anchor="middle" x="430" y="-190" font-family="Helvetica,sans-Serif" font-size="10.00">::TAPS::TAPS_Element_t</text>
</a>
</g>
<!-- Node1&#45;&gt;Node3 -->
<g id="edge6" class="edge"><title>Node1&#45;&gt;Node3</title>
<path fill="none" stroke="midnightblue" d="M310.627,-216.053C327.92,-213.583 346.732,-210.895 364.199,-208.4"/>
<polygon fill="midnightblue" stroke="midnightblue" points="310.046,-212.601 300.642,-217.48 311.036,-219.53 310.046,-212.601"/>
</g>
<!-- Node4 -->
<g id="node9" class="node"><title>Node4</title>
<a xlink:href="structant_1_1expconfig_1_1detector_1_1_t_a_p_s_1_1_ba_f2___element__t.html" target="_top" xlink:title="ant::expconfig::detector\l::TAPS::BaF2_Element_t">
<polygon fill="white" stroke="black" points="538,-208 538,-242 666,-242 666,-208 538,-208"/>
<text text-anchor="start" x="546" y="-229" font-family="Helvetica,sans-Serif" font-size="10.00">ant::expconfig::detector</text>
<text text-anchor="middle" x="602" y="-216" font-family="Helvetica,sans-Serif" font-size="10.00">::TAPS::BaF2_Element_t</text>
</a>
</g>
<!-- Node3&#45;&gt;Node4 -->
<g id="edge8" class="edge"><title>Node3&#45;&gt;Node4</title>
<path fill="none" stroke="midnightblue" d="M505.698,-210.443C516.409,-212.062 527.336,-213.714 537.803,-215.296"/>
<polygon fill="midnightblue" stroke="midnightblue" points="505.927,-206.938 495.516,-208.904 504.881,-213.859 505.927,-206.938"/>
</g>
<!-- Node5 -->
<g id="node11" class="node"><title>Node5</title>
<a xlink:href="structant_1_1expconfig_1_1detector_1_1_t_a_p_s_1_1_pb_w_o4___element__t.html" target="_top" xlink:title="ant::expconfig::detector\l::TAPS::PbWO4_Element_t">
<polygon fill="white" stroke="black" points="532.5,-156 532.5,-190 671.5,-190 671.5,-156 532.5,-156"/>
<text text-anchor="start" x="540.5" y="-177" font-family="Helvetica,sans-Serif" font-size="10.00">ant::expconfig::detector</text>
<text text-anchor="middle" x="602" y="-164" font-family="Helvetica,sans-Serif" font-size="10.00">::TAPS::PbWO4_Element_t</text>
</a>
</g>
<!-- Node3&#45;&gt;Node5 -->
<g id="edge10" class="edge"><title>Node3&#45;&gt;Node5</title>
<path fill="none" stroke="midnightblue" d="M505.514,-187.585C514.445,-186.235 523.529,-184.862 532.373,-183.525"/>
<polygon fill="midnightblue" stroke="midnightblue" points="504.881,-184.141 495.516,-189.096 505.927,-191.062 504.881,-184.141"/>
</g>
</g>
</svg>
