<?xml version="1.0" encoding="UTF-8" standalone="no"?>
<!DOCTYPE svg PUBLIC "-//W3C//DTD SVG 1.1//EN"
 "http://www.w3.org/Graphics/SVG/1.1/DTD/svg11.dtd">
<!-- Generated by graphviz version 2.26.3 (20100126.1600)
 -->
<!-- Title: ant::analysis::Physics::ExceptionOptionNeeded Pages: 1 -->
<svg width="136pt" height="232pt"
 viewBox="0.00 0.00 136.00 232.00" xmlns="http://www.w3.org/2000/svg" xmlns:xlink="http://www.w3.org/1999/xlink">
<g id="graph1" class="graph" transform="scale(1 1) rotate(0) translate(4 228)">
<title>ant::analysis::Physics::ExceptionOptionNeeded</title>
<polygon fill="white" stroke="white" points="-4,5 -4,-228 133,-228 133,5 -4,5"/>
<!-- Node4 -->
<g id="node1" class="node"><title>Node4</title>
<polygon fill="#bfbfbf" stroke="black" points="0,-1 0,-35 128,-35 128,-1 0,-1"/>
<text text-anchor="start" x="8" y="-22" font-family="Helvetica,sans-Serif" font-size="10.00">ant::analysis::Physics</text>
<text text-anchor="middle" x="64" y="-9" font-family="Helvetica,sans-Serif" font-size="10.00">::ExceptionOptionNeeded</text>
</g>
<!-- Node5 -->
<g id="node2" class="node"><title>Node5</title>
<a xlink:href="structant_1_1analysis_1_1_physics_1_1_exception.html" target="_top" xlink:title="ant::analysis::Physics\l::Exception">
<polygon fill="white" stroke="black" points="7.5,-73 7.5,-107 120.5,-107 120.5,-73 7.5,-73"/>
<text text-anchor="start" x="15.5" y="-94" font-family="Helvetica,sans-Serif" font-size="10.00">ant::analysis::Physics</text>
<text text-anchor="middle" x="64" y="-81" font-family="Helvetica,sans-Serif" font-size="10.00">::Exception</text>
</a>
</g>
<!-- Node5&#45;&gt;Node4 -->
<g id="edge2" class="edge"><title>Node5&#45;&gt;Node4</title>
<path fill="none" stroke="midnightblue" d="M64,-62.7193C64,-53.572 64,-43.6255 64,-35.4407"/>
<polygon fill="midnightblue" stroke="midnightblue" points="60.5001,-62.937 64,-72.937 67.5001,-62.937 60.5001,-62.937"/>
</g>
<!-- Node6 -->
<g id="node4" class="node"><title>Node6</title>
<a xlink:title="STL class. ">
<polygon fill="white" stroke="#bfbfbf" points="17.5,-144.5 17.5,-165.5 110.5,-165.5 110.5,-144.5 17.5,-144.5"/>
<text text-anchor="middle" x="64" y="-152.5" font-family="Helvetica,sans-Serif" font-size="10.00">std::runtime_error</text>
</a>
</g>
<!-- Node6&#45;&gt;Node5 -->
<g id="edge4" class="edge"><title>Node6&#45;&gt;Node5</title>
<path fill="none" stroke="midnightblue" d="M64,-134.131C64,-125.405 64,-115.391 64,-107.11"/>
<polygon fill="midnightblue" stroke="midnightblue" points="60.5001,-134.267 64,-144.267 67.5001,-134.267 60.5001,-134.267"/>
</g>
<!-- Node7 -->
<g id="node6" class="node"><title>Node7</title>
<a xlink:title="STL class. ">
<polygon fill="white" stroke="#bfbfbf" points="25,-202.5 25,-223.5 103,-223.5 103,-202.5 25,-202.5"/>
<text text-anchor="middle" x="64" y="-210.5" font-family="Helvetica,sans-Serif" font-size="10.00">std::exception</text>
</a>
</g>
<!-- Node7&#45;&gt;Node6 -->
<g id="edge6" class="edge"><title>Node7&#45;&gt;Node6</title>
<path fill="none" stroke="midnightblue" d="M64,-192.191C64,-183.168 64,-172.994 64,-165.571"/>
<polygon fill="midnightblue" stroke="midnightblue" points="60.5001,-192.362 64,-202.362 67.5001,-192.362 60.5001,-192.362"/>
</g>
</g>
</svg>
