<?xml version="1.0" encoding="UTF-8" standalone="no"?>
<!DOCTYPE svg PUBLIC "-//W3C//DTD SVG 1.1//EN"
 "http://www.w3.org/Graphics/SVG/1.1/DTD/svg11.dtd">
<!-- Generated by graphviz version 2.26.3 (20100126.1600)
 -->
<!-- Title: ant::expconfig::detector::TAPS::TAPS_Element_t Pages: 1 -->
<svg width="626pt" height="94pt"
 viewBox="0.00 0.00 626.00 94.00" xmlns="http://www.w3.org/2000/svg" xmlns:xlink="http://www.w3.org/1999/xlink">
<g id="graph1" class="graph" transform="scale(1 1) rotate(0) translate(4 90)">
<title>ant::expconfig::detector::TAPS::TAPS_Element_t</title>
<polygon fill="white" stroke="white" points="-4,5 -4,-90 623,-90 623,5 -4,5"/>
<!-- Node0 -->
<g id="node1" class="node"><title>Node0</title>
<polygon fill="#bfbfbf" stroke="black" points="310.5,-26 310.5,-60 441.5,-60 441.5,-26 310.5,-26"/>
<text text-anchor="start" x="318.5" y="-47" font-family="Helvetica,sans-Serif" font-size="10.00">ant::expconfig::detector</text>
<text text-anchor="middle" x="376" y="-34" font-family="Helvetica,sans-Serif" font-size="10.00">::TAPS::TAPS_Element_t</text>
</g>
<!-- Node3 -->
<g id="node7" class="node"><title>Node3</title>
<a xlink:href="structant_1_1expconfig_1_1detector_1_1_t_a_p_s_1_1_ba_f2___element__t.html" target="_top" xlink:title="ant::expconfig::detector\l::TAPS::BaF2_Element_t">
<polygon fill="white" stroke="black" points="484,-52 484,-86 612,-86 612,-52 484,-52"/>
<text text-anchor="start" x="492" y="-73" font-family="Helvetica,sans-Serif" font-size="10.00">ant::expconfig::detector</text>
<text text-anchor="middle" x="548" y="-60" font-family="Helvetica,sans-Serif" font-size="10.00">::TAPS::BaF2_Element_t</text>
</a>
</g>
<!-- Node0&#45;&gt;Node3 -->
<g id="edge6" class="edge"><title>Node0&#45;&gt;Node3</title>
<path fill="none" stroke="midnightblue" d="M451.698,-54.4427C462.409,-56.0618 473.336,-57.7136 483.803,-59.2957"/>
<polygon fill="midnightblue" stroke="midnightblue" points="451.927,-50.9377 441.516,-52.9037 450.881,-57.8591 451.927,-50.9377"/>
</g>
<!-- Node4 -->
<g id="node9" class="node"><title>Node4</title>
<a xlink:href="structant_1_1expconfig_1_1detector_1_1_t_a_p_s_1_1_pb_w_o4___element__t.html" target="_top" xlink:title="ant::expconfig::detector\l::TAPS::PbWO4_Element_t">
<polygon fill="white" stroke="black" points="478.5,-0 478.5,-34 617.5,-34 617.5,-0 478.5,-0"/>
<text text-anchor="start" x="486.5" y="-21" font-family="Helvetica,sans-Serif" font-size="10.00">ant::expconfig::detector</text>
<text text-anchor="middle" x="548" y="-8" font-family="Helvetica,sans-Serif" font-size="10.00">::TAPS::PbWO4_Element_t</text>
</a>
</g>
<!-- Node0&#45;&gt;Node4 -->
<g id="edge8" class="edge"><title>Node0&#45;&gt;Node4</title>
<path fill="none" stroke="midnightblue" d="M451.514,-31.5851C460.445,-30.2351 469.529,-28.8619 478.373,-27.525"/>
<polygon fill="midnightblue" stroke="midnightblue" points="450.881,-28.1409 441.516,-33.0963 451.927,-35.0623 450.881,-28.1409"/>
</g>
<!-- Node1 -->
<g id="node2" class="node"><title>Node1</title>
<a xlink:href="structant_1_1_cluster_detector__t_1_1_element__t.html" target="_top" xlink:title="ant::ClusterDetector\l_t::Element_t">
<polygon fill="white" stroke="black" points="168.5,-26 168.5,-60 273.5,-60 273.5,-26 168.5,-26"/>
<text text-anchor="start" x="176.5" y="-47" font-family="Helvetica,sans-Serif" font-size="10.00">ant::ClusterDetector</text>
<text text-anchor="middle" x="221" y="-34" font-family="Helvetica,sans-Serif" font-size="10.00">_t::Element_t</text>
</a>
</g>
<!-- Node1&#45;&gt;Node0 -->
<g id="edge2" class="edge"><title>Node1&#45;&gt;Node0</title>
<path fill="none" stroke="midnightblue" d="M283.996,-43C292.712,-43 301.682,-43 310.443,-43"/>
<polygon fill="midnightblue" stroke="midnightblue" points="283.909,-39.5001 273.909,-43 283.909,-46.5001 283.909,-39.5001"/>
</g>
<!-- Node2 -->
<g id="node4" class="node"><title>Node2</title>
<a xlink:href="structant_1_1_detector__t_1_1_element__t.html" target="_top" xlink:title="ant::Detector_t::Element_t">
<polygon fill="white" stroke="black" points="0,-32.5 0,-53.5 132,-53.5 132,-32.5 0,-32.5"/>
<text text-anchor="middle" x="66" y="-40.5" font-family="Helvetica,sans-Serif" font-size="10.00">ant::Detector_t::Element_t</text>
</a>
</g>
<!-- Node2&#45;&gt;Node1 -->
<g id="edge4" class="edge"><title>Node2&#45;&gt;Node1</title>
<path fill="none" stroke="midnightblue" d="M142.381,-43C151.098,-43 159.834,-43 168.147,-43"/>
<polygon fill="midnightblue" stroke="midnightblue" points="142.184,-39.5001 132.184,-43 142.184,-46.5001 142.184,-39.5001"/>
</g>
</g>
</svg>
