<?xml version="1.0" encoding="UTF-8" standalone="no"?>
<!DOCTYPE svg PUBLIC "-//W3C//DTD SVG 1.1//EN"
 "http://www.w3.org/Graphics/SVG/1.1/DTD/svg11.dtd">
<!-- Generated by graphviz version 2.26.3 (20100126.1600)
 -->
<!-- Title: ant::TTrigger Pages: 1 -->
<svg width="156pt" height="320pt"
 viewBox="0.00 0.00 156.00 320.00" xmlns="http://www.w3.org/2000/svg" xmlns:xlink="http://www.w3.org/1999/xlink">
<g id="graph1" class="graph" transform="scale(1 1) rotate(0) translate(4 316)">
<title>ant::TTrigger</title>
<polygon fill="white" stroke="white" points="-4,5 -4,-316 153,-316 153,5 -4,5"/>
<!-- Node1 -->
<g id="node1" class="node"><title>Node1</title>
<polygon fill="#bfbfbf" stroke="black" points="38,-0.5 38,-21.5 110,-21.5 110,-0.5 38,-0.5"/>
<text text-anchor="middle" x="74" y="-8.5" font-family="Helvetica,sans-Serif" font-size="10.00">ant::TTrigger</text>
</g>
<!-- Node2 -->
<g id="node2" class="node"><title>Node2</title>
<polygon fill="white" stroke="#bfbfbf" points="-0.5,-72.5 -0.5,-93.5 148.5,-93.5 148.5,-72.5 -0.5,-72.5"/>
<text text-anchor="middle" x="74" y="-80.5" font-family="Helvetica,sans-Serif" font-size="10.00">std::vector&lt; ant::TDAQError &gt;</text>
</g>
<!-- Node2&#45;&gt;Node1 -->
<g id="edge2" class="edge"><title>Node2&#45;&gt;Node1</title>
<path fill="none" stroke="#9a32cd" stroke-dasharray="5,2" d="M74,-62.2348C74,-48.969 74,-32.3188 74,-21.6674"/>
<polygon fill="#9a32cd" stroke="#9a32cd" points="70.5001,-62.3761 74,-72.3762 77.5001,-62.3762 70.5001,-62.3761"/>
<text text-anchor="middle" x="100" y="-44.5" font-family="Helvetica,sans-Serif" font-size="10.00"> DAQErrors</text>
</g>
<!-- Node3 -->
<g id="node4" class="node"><title>Node3</title>
<a xlink:href="structant_1_1_t_d_a_q_error.html" target="_top" xlink:title="ant::TDAQError">
<polygon fill="white" stroke="black" points="31.5,-144.5 31.5,-165.5 116.5,-165.5 116.5,-144.5 31.5,-144.5"/>
<text text-anchor="middle" x="74" y="-152.5" font-family="Helvetica,sans-Serif" font-size="10.00">ant::TDAQError</text>
</a>
</g>
<!-- Node3&#45;&gt;Node2 -->
<g id="edge4" class="edge"><title>Node3&#45;&gt;Node2</title>
<path fill="none" stroke="#9a32cd" stroke-dasharray="5,2" d="M74,-134.235C74,-120.969 74,-104.319 74,-93.6674"/>
<polygon fill="#9a32cd" stroke="#9a32cd" points="70.5001,-134.376 74,-144.376 77.5001,-134.376 70.5001,-134.376"/>
<text text-anchor="middle" x="95.5" y="-116.5" font-family="Helvetica,sans-Serif" font-size="10.00"> elements</text>
</g>
<!-- Node4 -->
<g id="node6" class="node"><title>Node4</title>
<a xlink:title="STL class. ">
<polygon fill="white" stroke="#bfbfbf" points="44,-216.5 44,-237.5 104,-237.5 104,-216.5 44,-216.5"/>
<text text-anchor="middle" x="74" y="-224.5" font-family="Helvetica,sans-Serif" font-size="10.00">std::string</text>
</a>
</g>
<!-- Node4&#45;&gt;Node3 -->
<g id="edge6" class="edge"><title>Node4&#45;&gt;Node3</title>
<path fill="none" stroke="#9a32cd" stroke-dasharray="5,2" d="M74,-206.235C74,-192.969 74,-176.319 74,-165.667"/>
<polygon fill="#9a32cd" stroke="#9a32cd" points="70.5001,-206.376 74,-216.376 77.5001,-206.376 70.5001,-206.376"/>
<text text-anchor="middle" x="104.5" y="-188.5" font-family="Helvetica,sans-Serif" font-size="10.00"> ModuleName</text>
</g>
<!-- Node5 -->
<g id="node8" class="node"><title>Node5</title>
<a xlink:title="STL class. ">
<polygon fill="white" stroke="#bfbfbf" points="26.5,-277 26.5,-311 121.5,-311 121.5,-277 26.5,-277"/>
<text text-anchor="start" x="34.5" y="-298" font-family="Helvetica,sans-Serif" font-size="10.00">std::basic_string&lt;</text>
<text text-anchor="middle" x="74" y="-285" font-family="Helvetica,sans-Serif" font-size="10.00"> char &gt;</text>
</a>
</g>
<!-- Node5&#45;&gt;Node4 -->
<g id="edge8" class="edge"><title>Node5&#45;&gt;Node4</title>
<path fill="none" stroke="midnightblue" d="M74,-266.534C74,-256.306 74,-245.301 74,-237.506"/>
<polygon fill="midnightblue" stroke="midnightblue" points="70.5001,-266.746 74,-276.746 77.5001,-266.746 70.5001,-266.746"/>
</g>
</g>
</svg>
