<?xml version="1.0" encoding="UTF-8" standalone="no"?>
<!DOCTYPE svg PUBLIC "-//W3C//DTD SVG 1.1//EN"
 "http://www.w3.org/Graphics/SVG/1.1/DTD/svg11.dtd">
<!-- Generated by graphviz version 2.26.3 (20100126.1600)
 -->
<!-- Title: ant::analysis::utils::ProtonPhotonCombs::Combinations_t Pages: 1 -->
<svg width="126pt" height="188pt"
 viewBox="0.00 0.00 126.00 188.00" xmlns="http://www.w3.org/2000/svg" xmlns:xlink="http://www.w3.org/1999/xlink">
<g id="graph1" class="graph" transform="scale(1 1) rotate(0) translate(4 184)">
<title>ant::analysis::utils::ProtonPhotonCombs::Combinations_t</title>
<polygon fill="white" stroke="white" points="-4,5 -4,-184 123,-184 123,5 -4,5"/>
<!-- Node2 -->
<g id="node1" class="node"><title>Node2</title>
<polygon fill="#bfbfbf" stroke="black" points="-0.5,-0.5 -0.5,-47.5 118.5,-47.5 118.5,-0.5 -0.5,-0.5"/>
<text text-anchor="start" x="7.5" y="-34.5" font-family="Helvetica,sans-Serif" font-size="10.00">ant::analysis::utils</text>
<text text-anchor="start" x="7.5" y="-21.5" font-family="Helvetica,sans-Serif" font-size="10.00">::ProtonPhotonCombs::</text>
<text text-anchor="middle" x="59" y="-8.5" font-family="Helvetica,sans-Serif" font-size="10.00">Combinations_t</text>
</g>
<!-- Node3 -->
<g id="node2" class="node"><title>Node3</title>
<a xlink:title="STL class. ">
<polygon fill="white" stroke="#bfbfbf" points="9.5,-86.5 9.5,-107.5 108.5,-107.5 108.5,-86.5 9.5,-86.5"/>
<text text-anchor="middle" x="59" y="-94.5" font-family="Helvetica,sans-Serif" font-size="10.00">std::list&lt; comb_t &gt;</text>
</a>
</g>
<!-- Node3&#45;&gt;Node2 -->
<g id="edge2" class="edge"><title>Node3&#45;&gt;Node2</title>
<path fill="none" stroke="midnightblue" d="M59,-76.053C59,-67.2297 59,-56.9148 59,-47.8051"/>
<polygon fill="midnightblue" stroke="midnightblue" points="55.5001,-76.2286 59,-86.2286 62.5001,-76.2286 55.5001,-76.2286"/>
</g>
<!-- Node4 -->
<g id="node4" class="node"><title>Node4</title>
<polygon fill="white" stroke="#bfbfbf" points="44.5,-158.5 44.5,-179.5 73.5,-179.5 73.5,-158.5 44.5,-158.5"/>
<text text-anchor="middle" x="59" y="-166.5" font-family="Helvetica,sans-Serif" font-size="10.00">T</text>
</g>
<!-- Node4&#45;&gt;Node3 -->
<g id="edge4" class="edge"><title>Node4&#45;&gt;Node3</title>
<path fill="none" stroke="#9a32cd" stroke-dasharray="5,2" d="M59,-148.235C59,-134.969 59,-118.319 59,-107.667"/>
<polygon fill="#9a32cd" stroke="#9a32cd" points="55.5001,-148.376 59,-158.376 62.5001,-148.376 55.5001,-148.376"/>
<text text-anchor="middle" x="80.5" y="-130.5" font-family="Helvetica,sans-Serif" font-size="10.00"> elements</text>
</g>
</g>
</svg>
