<?xml version="1.0" encoding="UTF-8" standalone="no"?>
<!DOCTYPE svg PUBLIC "-//W3C//DTD SVG 1.1//EN"
 "http://www.w3.org/Graphics/SVG/1.1/DTD/svg11.dtd">
<!-- Generated by graphviz version 2.26.3 (20100126.1600)
 -->
<!-- Title: ant::analysis::utils::UncertaintyModels::ConstantRelativeE Pages: 1 -->
<svg width="220pt" height="266pt"
 viewBox="0.00 0.00 220.00 266.00" xmlns="http://www.w3.org/2000/svg" xmlns:xlink="http://www.w3.org/1999/xlink">
<g id="graph1" class="graph" transform="scale(1 1) rotate(0) translate(4 262)">
<title>ant::analysis::utils::UncertaintyModels::ConstantRelativeE</title>
<polygon fill="white" stroke="white" points="-4,5 -4,-262 217,-262 217,5 -4,5"/>
<!-- Node3 -->
<g id="node1" class="node"><title>Node3</title>
<polygon fill="#bfbfbf" stroke="black" points="51,-0.5 51,-47.5 161,-47.5 161,-0.5 51,-0.5"/>
<text text-anchor="start" x="59" y="-34.5" font-family="Helvetica,sans-Serif" font-size="10.00">ant::analysis::utils</text>
<text text-anchor="start" x="59" y="-21.5" font-family="Helvetica,sans-Serif" font-size="10.00">::UncertaintyModels::</text>
<text text-anchor="middle" x="106" y="-8.5" font-family="Helvetica,sans-Serif" font-size="10.00">ConstantRelativeE</text>
</g>
<!-- Node4 -->
<g id="node2" class="node"><title>Node4</title>
<a xlink:href="structant_1_1analysis_1_1utils_1_1_uncertainty_models_1_1_constant.html" target="_top" xlink:title="Constant/static kin fitter uncertainty model. has a fixed value for {cb,taps}{photon,proton}{E,theta,phi}. ">
<polygon fill="white" stroke="black" points="51,-86.5 51,-133.5 161,-133.5 161,-86.5 51,-86.5"/>
<text text-anchor="start" x="59" y="-120.5" font-family="Helvetica,sans-Serif" font-size="10.00">ant::analysis::utils</text>
<text text-anchor="start" x="59" y="-107.5" font-family="Helvetica,sans-Serif" font-size="10.00">::UncertaintyModels::</text>
<text text-anchor="middle" x="106" y="-94.5" font-family="Helvetica,sans-Serif" font-size="10.00">Constant</text>
</a>
</g>
<!-- Node4&#45;&gt;Node3 -->
<g id="edge2" class="edge"><title>Node4&#45;&gt;Node3</title>
<path fill="none" stroke="midnightblue" d="M106,-76.027C106,-66.4836 106,-56.319 106,-47.5301"/>
<polygon fill="midnightblue" stroke="midnightblue" points="102.5,-76.0442 106,-86.0442 109.5,-76.0442 102.5,-76.0442"/>
</g>
<!-- Node5 -->
<g id="node4" class="node"><title>Node5</title>
<a xlink:href="classant_1_1analysis_1_1utils_1_1_uncertainty_model.html" target="_top" xlink:title="Virtual base class for different Uncertainty Models for fitter. Implement at least the GetSigmas() me...">
<polygon fill="white" stroke="black" points="-0.5,-223 -0.5,-257 98.5,-257 98.5,-223 -0.5,-223"/>
<text text-anchor="start" x="7.5" y="-244" font-family="Helvetica,sans-Serif" font-size="10.00">ant::analysis::utils</text>
<text text-anchor="middle" x="49" y="-231" font-family="Helvetica,sans-Serif" font-size="10.00">::UncertaintyModel</text>
</a>
</g>
<!-- Node5&#45;&gt;Node4 -->
<g id="edge4" class="edge"><title>Node5&#45;&gt;Node4</title>
<path fill="none" stroke="midnightblue" d="M60.6746,-213.374C70.9711,-189.89 85.8318,-155.998 95.6953,-133.502"/>
<polygon fill="midnightblue" stroke="midnightblue" points="57.3794,-212.173 56.5692,-222.737 63.7902,-214.984 57.3794,-212.173"/>
</g>
<!-- Node6 -->
<g id="node6" class="node"><title>Node6</title>
<a xlink:href="structant_1_1analysis_1_1utils_1_1_uncertainties__t.html" target="_top" xlink:title="Uncertainties for E, theta, and phi and some CB/TAPS specific values. ">
<polygon fill="white" stroke="black" points="116,-223 116,-257 212,-257 212,-223 116,-223"/>
<text text-anchor="start" x="124" y="-244" font-family="Helvetica,sans-Serif" font-size="10.00">ant::analysis::utils</text>
<text text-anchor="middle" x="164" y="-231" font-family="Helvetica,sans-Serif" font-size="10.00">::Uncertainties_t</text>
</a>
</g>
<!-- Node6&#45;&gt;Node4 -->
<g id="edge6" class="edge"><title>Node6&#45;&gt;Node4</title>
<path fill="none" stroke="#9a32cd" stroke-dasharray="5,2" d="M152.121,-213.374C141.643,-189.89 126.522,-155.998 116.486,-133.502"/>
<polygon fill="#9a32cd" stroke="#9a32cd" points="149.027,-215.031 156.298,-222.737 155.42,-212.179 149.027,-215.031"/>
<text text-anchor="middle" x="173" y="-195" font-family="Helvetica,sans-Serif" font-size="10.00"> proton_cb</text>
<text text-anchor="middle" x="173" y="-182" font-family="Helvetica,sans-Serif" font-size="10.00">photon_taps</text>
<text text-anchor="middle" x="173" y="-169" font-family="Helvetica,sans-Serif" font-size="10.00">proton_taps</text>
<text text-anchor="middle" x="173" y="-156" font-family="Helvetica,sans-Serif" font-size="10.00">photon_cb</text>
</g>
</g>
</svg>
