<?xml version="1.0" encoding="UTF-8" standalone="no"?>
<!DOCTYPE svg PUBLIC "-//W3C//DTD SVG 1.1//EN"
 "http://www.w3.org/Graphics/SVG/1.1/DTD/svg11.dtd">
<!-- Generated by graphviz version 2.26.3 (20100126.1600)
 -->
<!-- Title: ant::analysis::utils::Fitter::Z_Vertex_t Pages: 1 -->
<svg width="106pt" height="188pt"
 viewBox="0.00 0.00 106.00 188.00" xmlns="http://www.w3.org/2000/svg" xmlns:xlink="http://www.w3.org/1999/xlink">
<g id="graph1" class="graph" transform="scale(1 1) rotate(0) translate(4 184)">
<title>ant::analysis::utils::Fitter::Z_Vertex_t</title>
<polygon fill="white" stroke="white" points="-4,5 -4,-184 103,-184 103,5 -4,5"/>
<!-- Node3 -->
<g id="node1" class="node"><title>Node3</title>
<polygon fill="#bfbfbf" stroke="black" points="-0.5,-1 -0.5,-35 98.5,-35 98.5,-1 -0.5,-1"/>
<text text-anchor="start" x="7.5" y="-22" font-family="Helvetica,sans-Serif" font-size="10.00">ant::analysis::utils</text>
<text text-anchor="middle" x="49" y="-9" font-family="Helvetica,sans-Serif" font-size="10.00">::Fitter::Z_Vertex_t</text>
</g>
<!-- Node4 -->
<g id="node2" class="node"><title>Node4</title>
<a xlink:href="structant_1_1analysis_1_1utils_1_1_fitter_1_1_v___s___p__t.html" target="_top" xlink:title="ant::analysis::utils\l::Fitter::V_S_P_t">
<polygon fill="white" stroke="black" points="1,-73 1,-107 97,-107 97,-73 1,-73"/>
<text text-anchor="start" x="9" y="-94" font-family="Helvetica,sans-Serif" font-size="10.00">ant::analysis::utils</text>
<text text-anchor="middle" x="49" y="-81" font-family="Helvetica,sans-Serif" font-size="10.00">::Fitter::V_S_P_t</text>
</a>
</g>
<!-- Node4&#45;&gt;Node3 -->
<g id="edge2" class="edge"><title>Node4&#45;&gt;Node3</title>
<path fill="none" stroke="midnightblue" d="M49,-62.7193C49,-53.572 49,-43.6255 49,-35.4407"/>
<polygon fill="midnightblue" stroke="midnightblue" points="45.5001,-62.937 49,-72.937 52.5001,-62.937 45.5001,-62.937"/>
</g>
<!-- Node5 -->
<g id="node4" class="node"><title>Node5</title>
<a xlink:href="structant_1_1analysis_1_1utils_1_1_fitter_1_1_v___s__t.html" target="_top" xlink:title="ant::analysis::utils\l::Fitter::V_S_t">
<polygon fill="white" stroke="black" points="1,-145 1,-179 97,-179 97,-145 1,-145"/>
<text text-anchor="start" x="9" y="-166" font-family="Helvetica,sans-Serif" font-size="10.00">ant::analysis::utils</text>
<text text-anchor="middle" x="49" y="-153" font-family="Helvetica,sans-Serif" font-size="10.00">::Fitter::V_S_t</text>
</a>
</g>
<!-- Node5&#45;&gt;Node4 -->
<g id="edge4" class="edge"><title>Node5&#45;&gt;Node4</title>
<path fill="none" stroke="midnightblue" d="M49,-134.719C49,-125.572 49,-115.625 49,-107.441"/>
<polygon fill="midnightblue" stroke="midnightblue" points="45.5001,-134.937 49,-144.937 52.5001,-134.937 45.5001,-134.937"/>
</g>
</g>
</svg>
