<?xml version="1.0" encoding="UTF-8" standalone="no"?>
<!DOCTYPE svg PUBLIC "-//W3C//DTD SVG 1.1//EN"
 "http://www.w3.org/Graphics/SVG/1.1/DTD/svg11.dtd">
<!-- Generated by graphviz version 2.26.3 (20100126.1600)
 -->
<!-- Title: ant::expconfig::detector::CB Pages: 1 -->
<svg width="1316pt" height="133pt"
 viewBox="0.00 0.00 1316.00 133.00" xmlns="http://www.w3.org/2000/svg" xmlns:xlink="http://www.w3.org/1999/xlink">
<g id="graph1" class="graph" transform="scale(1 1) rotate(0) translate(4 129)">
<title>ant::expconfig::detector::CB</title>
<polygon fill="white" stroke="white" points="-4,5 -4,-129 1313,-129 1313,5 -4,5"/>
<!-- Node4 -->
<g id="node1" class="node"><title>Node4</title>
<polygon fill="#bfbfbf" stroke="black" points="1168,-63.5 1168,-84.5 1308,-84.5 1308,-63.5 1168,-63.5"/>
<text text-anchor="middle" x="1238" y="-71.5" font-family="Helvetica,sans-Serif" font-size="10.00">ant::expconfig::detector::CB</text>
</g>
<!-- Node5 -->
<g id="node2" class="node"><title>Node5</title>
<a xlink:href="structant_1_1_cluster_detector__t.html" target="_top" xlink:title="ant::ClusterDetector_t">
<polygon fill="white" stroke="black" points="944.5,-103.5 944.5,-124.5 1057.5,-124.5 1057.5,-103.5 944.5,-103.5"/>
<text text-anchor="middle" x="1001" y="-111.5" font-family="Helvetica,sans-Serif" font-size="10.00">ant::ClusterDetector_t</text>
</a>
</g>
<!-- Node5&#45;&gt;Node4 -->
<g id="edge2" class="edge"><title>Node5&#45;&gt;Node4</title>
<path fill="none" stroke="midnightblue" d="M1068,-102.693C1101.72,-97.0001 1142.36,-90.1413 1175.45,-84.5571"/>
<polygon fill="midnightblue" stroke="midnightblue" points="1067.05,-99.3035 1057.77,-104.419 1068.21,-106.206 1067.05,-99.3035"/>
</g>
<!-- Node6 -->
<g id="node4" class="node"><title>Node6</title>
<a xlink:href="structant_1_1_detector__t.html" target="_top" xlink:title="The Detector_t struct is the minimal base class for all detectors. ">
<polygon fill="white" stroke="black" points="751,-103.5 751,-124.5 833,-124.5 833,-103.5 751,-103.5"/>
<text text-anchor="middle" x="792" y="-111.5" font-family="Helvetica,sans-Serif" font-size="10.00">ant::Detector_t</text>
</a>
</g>
<!-- Node6&#45;&gt;Node5 -->
<g id="edge4" class="edge"><title>Node6&#45;&gt;Node5</title>
<path fill="none" stroke="midnightblue" d="M843.333,-114C873.947,-114 912.859,-114 944.366,-114"/>
<polygon fill="midnightblue" stroke="midnightblue" points="843.292,-110.5 833.292,-114 843.292,-117.5 843.292,-110.5"/>
</g>
<!-- Node7 -->
<g id="node6" class="node"><title>Node7</title>
<a xlink:href="classant_1_1_unpacker_acqu_config.html" target="_top" xlink:title="ant::UnpackerAcquConfig">
<polygon fill="white" stroke="black" points="936.5,-63.5 936.5,-84.5 1065.5,-84.5 1065.5,-63.5 936.5,-63.5"/>
<text text-anchor="middle" x="1001" y="-71.5" font-family="Helvetica,sans-Serif" font-size="10.00">ant::UnpackerAcquConfig</text>
</a>
</g>
<!-- Node7&#45;&gt;Node4 -->
<g id="edge6" class="edge"><title>Node7&#45;&gt;Node4</title>
<path fill="none" stroke="midnightblue" d="M1075.98,-74C1105.4,-74 1138.98,-74 1167.91,-74"/>
<polygon fill="midnightblue" stroke="midnightblue" points="1075.76,-70.5001 1065.76,-74 1075.76,-77.5001 1075.76,-70.5001"/>
</g>
<!-- Node8 -->
<g id="node8" class="node"><title>Node8</title>
<polygon fill="white" stroke="#bfbfbf" points="932.5,-11 932.5,-45 1069.5,-45 1069.5,-11 932.5,-11"/>
<text text-anchor="start" x="940.5" y="-32" font-family="Helvetica,sans-Serif" font-size="10.00">std::vector&lt; ant::expconfig</text>
<text text-anchor="middle" x="1001" y="-19" font-family="Helvetica,sans-Serif" font-size="10.00">::detector::CB::Element_t &gt;</text>
</g>
<!-- Node8&#45;&gt;Node4 -->
<g id="edge8" class="edge"><title>Node8&#45;&gt;Node4</title>
<path fill="none" stroke="#9a32cd" stroke-dasharray="5,2" d="M1079.75,-33.1685C1102.58,-35.551 1127.43,-39.0058 1150,-44 1171.28,-48.7078 1194.58,-56.7931 1211.87,-63.3844"/>
<polygon fill="#9a32cd" stroke="#9a32cd" points="1080.05,-29.6819 1069.76,-32.1798 1079.36,-36.6479 1080.05,-29.6819"/>
<text text-anchor="middle" x="1119" y="-61" font-family="Helvetica,sans-Serif" font-size="10.00"> elements_init</text>
<text text-anchor="middle" x="1119" y="-48" font-family="Helvetica,sans-Serif" font-size="10.00">elements</text>
</g>
<!-- Node9 -->
<g id="node10" class="node"><title>Node9</title>
<a xlink:href="structant_1_1expconfig_1_1detector_1_1_c_b_1_1_element__t.html" target="_top" xlink:title="ant::expconfig::detector\l::CB::Element_t">
<polygon fill="white" stroke="black" points="732.5,-11 732.5,-45 851.5,-45 851.5,-11 732.5,-11"/>
<text text-anchor="start" x="740.5" y="-32" font-family="Helvetica,sans-Serif" font-size="10.00">ant::expconfig::detector</text>
<text text-anchor="middle" x="792" y="-19" font-family="Helvetica,sans-Serif" font-size="10.00">::CB::Element_t</text>
</a>
</g>
<!-- Node9&#45;&gt;Node8 -->
<g id="edge10" class="edge"><title>Node9&#45;&gt;Node8</title>
<path fill="none" stroke="#9a32cd" stroke-dasharray="5,2" d="M861.868,-28C884.61,-28 909.818,-28 932.461,-28"/>
<polygon fill="#9a32cd" stroke="#9a32cd" points="861.611,-24.5001 851.611,-28 861.611,-31.5001 861.611,-24.5001"/>
<text text-anchor="middle" x="892" y="-32" font-family="Helvetica,sans-Serif" font-size="10.00"> elements</text>
</g>
<!-- Node10 -->
<g id="node12" class="node"><title>Node10</title>
<a xlink:href="structant_1_1_cluster_detector__t_1_1_element__t.html" target="_top" xlink:title="ant::ClusterDetector\l_t::Element_t">
<polygon fill="white" stroke="black" points="588.5,-11 588.5,-45 693.5,-45 693.5,-11 588.5,-11"/>
<text text-anchor="start" x="596.5" y="-32" font-family="Helvetica,sans-Serif" font-size="10.00">ant::ClusterDetector</text>
<text text-anchor="middle" x="641" y="-19" font-family="Helvetica,sans-Serif" font-size="10.00">_t::Element_t</text>
</a>
</g>
<!-- Node10&#45;&gt;Node9 -->
<g id="edge12" class="edge"><title>Node10&#45;&gt;Node9</title>
<path fill="none" stroke="midnightblue" d="M703.87,-28C713.261,-28 722.922,-28 732.246,-28"/>
<polygon fill="midnightblue" stroke="midnightblue" points="703.813,-24.5001 693.812,-28 703.812,-31.5001 703.813,-24.5001"/>
</g>
<!-- Node11 -->
<g id="node14" class="node"><title>Node11</title>
<a xlink:href="structant_1_1_detector__t_1_1_element__t.html" target="_top" xlink:title="ant::Detector_t::Element_t">
<polygon fill="white" stroke="black" points="366,-40.5 366,-61.5 498,-61.5 498,-40.5 366,-40.5"/>
<text text-anchor="middle" x="432" y="-48.5" font-family="Helvetica,sans-Serif" font-size="10.00">ant::Detector_t::Element_t</text>
</a>
</g>
<!-- Node11&#45;&gt;Node10 -->
<g id="edge14" class="edge"><title>Node11&#45;&gt;Node10</title>
<path fill="none" stroke="midnightblue" d="M508.166,-42.6181C534.734,-39.6943 563.945,-36.4797 588.193,-33.8113"/>
<polygon fill="midnightblue" stroke="midnightblue" points="507.686,-39.1497 498.129,-43.7227 508.452,-46.1077 507.686,-39.1497"/>
</g>
<!-- Node12 -->
<g id="node16" class="node"><title>Node12</title>
<a xlink:href="structant_1_1vec3.html" target="_top" xlink:title="ant::vec3">
<polygon fill="white" stroke="black" points="189.5,-60.5 189.5,-81.5 246.5,-81.5 246.5,-60.5 189.5,-60.5"/>
<text text-anchor="middle" x="218" y="-68.5" font-family="Helvetica,sans-Serif" font-size="10.00">ant::vec3</text>
</a>
</g>
<!-- Node12&#45;&gt;Node11 -->
<g id="edge16" class="edge"><title>Node12&#45;&gt;Node11</title>
<path fill="none" stroke="#9a32cd" stroke-dasharray="5,2" d="M257.046,-67.3508C287.4,-64.514 330.2,-60.514 365.869,-57.1805"/>
<polygon fill="#9a32cd" stroke="#9a32cd" points="256.492,-63.8873 246.861,-68.3027 257.143,-70.8569 256.492,-63.8873"/>
<text text-anchor="middle" x="328" y="-66" font-family="Helvetica,sans-Serif" font-size="10.00"> Position</text>
</g>
<!-- Node13 -->
<g id="node18" class="node"><title>Node13</title>
<a xlink:href="classant_1_1bitflag.html" target="_top" xlink:title="ant::bitflag\&lt; ElementFlag_t \&gt;">
<polygon fill="white" stroke="black" points="146.5,-20.5 146.5,-41.5 289.5,-41.5 289.5,-20.5 146.5,-20.5"/>
<text text-anchor="middle" x="218" y="-28.5" font-family="Helvetica,sans-Serif" font-size="10.00">ant::bitflag&lt; ElementFlag_t &gt;</text>
</a>
</g>
<!-- Node13&#45;&gt;Node11 -->
<g id="edge18" class="edge"><title>Node13&#45;&gt;Node11</title>
<path fill="none" stroke="#9a32cd" stroke-dasharray="5,2" d="M299.92,-37.6516C315.873,-39.026 332.464,-40.5106 348,-42 353.84,-42.5599 359.906,-43.1645 365.984,-43.7862"/>
<polygon fill="#9a32cd" stroke="#9a32cd" points="299.809,-34.1294 289.547,-36.7654 299.213,-41.104 299.809,-34.1294"/>
<text text-anchor="middle" x="328" y="-46" font-family="Helvetica,sans-Serif" font-size="10.00"> Flags</text>
</g>
<!-- Node14 -->
<g id="node20" class="node"><title>Node14</title>
<polygon fill="white" stroke="#bfbfbf" points="0.5,-20.5 0.5,-41.5 89.5,-41.5 89.5,-20.5 0.5,-20.5"/>
<text text-anchor="middle" x="45" y="-28.5" font-family="Helvetica,sans-Serif" font-size="10.00">std::bitset&lt; 32 &gt;</text>
</g>
<!-- Node14&#45;&gt;Node13 -->
<g id="edge20" class="edge"><title>Node14&#45;&gt;Node13</title>
<path fill="none" stroke="#9a32cd" stroke-dasharray="5,2" d="M99.5802,-31C114.441,-31 130.764,-31 146.415,-31"/>
<polygon fill="#9a32cd" stroke="#9a32cd" points="99.5518,-27.5001 89.5518,-31 99.5518,-34.5001 99.5518,-27.5001"/>
<text text-anchor="middle" x="118" y="-35" font-family="Helvetica,sans-Serif" font-size="10.00"> bits</text>
</g>
<!-- Node15 -->
<g id="node22" class="node"><title>Node15</title>
<polygon fill="white" stroke="#bfbfbf" points="372,-0.5 372,-21.5 492,-21.5 492,-0.5 372,-0.5"/>
<text text-anchor="middle" x="432" y="-8.5" font-family="Helvetica,sans-Serif" font-size="10.00">std::vector&lt; unsigned &gt;</text>
</g>
<!-- Node15&#45;&gt;Node10 -->
<g id="edge22" class="edge"><title>Node15&#45;&gt;Node10</title>
<path fill="none" stroke="#9a32cd" stroke-dasharray="5,2" d="M502.335,-13.354C524.06,-14.4071 548.045,-15.9012 570,-18 575.948,-18.5686 582.162,-19.2755 588.332,-20.0489"/>
<polygon fill="#9a32cd" stroke="#9a32cd" points="502.352,-9.85112 492.201,-12.8862 502.029,-16.8437 502.352,-9.85112"/>
<text text-anchor="middle" x="543" y="-22" font-family="Helvetica,sans-Serif" font-size="10.00"> Neighbours</text>
</g>
</g>
</svg>
