<?xml version="1.0" encoding="UTF-8" standalone="no"?>
<!DOCTYPE svg PUBLIC "-//W3C//DTD SVG 1.1//EN"
 "http://www.w3.org/Graphics/SVG/1.1/DTD/svg11.dtd">
<!-- Generated by graphviz version 2.26.3 (20100126.1600)
 -->
<!-- Title: ant::analysis::physics::PIDEfficiencyCheck::Tree_t Pages: 1 -->
<svg width="126pt" height="114pt"
 viewBox="0.00 0.00 126.00 114.00" xmlns="http://www.w3.org/2000/svg" xmlns:xlink="http://www.w3.org/1999/xlink">
<g id="graph1" class="graph" transform="scale(1 1) rotate(0) translate(4 110)">
<title>ant::analysis::physics::PIDEfficiencyCheck::Tree_t</title>
<polygon fill="white" stroke="white" points="-4,5 -4,-110 123,-110 123,5 -4,5"/>
<!-- Node2 -->
<g id="node1" class="node"><title>Node2</title>
<polygon fill="#bfbfbf" stroke="black" points="0,-0.5 0,-47.5 118,-47.5 118,-0.5 0,-0.5"/>
<text text-anchor="start" x="8" y="-34.5" font-family="Helvetica,sans-Serif" font-size="10.00">ant::analysis::physics</text>
<text text-anchor="start" x="8" y="-21.5" font-family="Helvetica,sans-Serif" font-size="10.00">::PIDEfficiencyCheck::</text>
<text text-anchor="middle" x="59" y="-8.5" font-family="Helvetica,sans-Serif" font-size="10.00">Tree_t</text>
</g>
<!-- Node3 -->
<g id="node2" class="node"><title>Node3</title>
<a xlink:href="classant_1_1_wrap_t_tree.html" target="_top" xlink:title="The WrapTTree struct simplifies TTree handling in physics classes. ">
<polygon fill="white" stroke="black" points="16.5,-84.5 16.5,-105.5 101.5,-105.5 101.5,-84.5 16.5,-84.5"/>
<text text-anchor="middle" x="59" y="-92.5" font-family="Helvetica,sans-Serif" font-size="10.00">ant::WrapTTree</text>
</a>
</g>
<!-- Node3&#45;&gt;Node2 -->
<g id="edge2" class="edge"><title>Node3&#45;&gt;Node2</title>
<path fill="none" stroke="midnightblue" d="M59,-74.1915C59,-65.8352 59,-56.1603 59,-47.548"/>
<polygon fill="midnightblue" stroke="midnightblue" points="55.5001,-74.2166 59,-84.2166 62.5001,-74.2167 55.5001,-74.2166"/>
</g>
</g>
</svg>
