<?xml version="1.0" encoding="UTF-8" standalone="no"?>
<!DOCTYPE svg PUBLIC "-//W3C//DTD SVG 1.1//EN"
 "http://www.w3.org/Graphics/SVG/1.1/DTD/svg11.dtd">
<!-- Generated by graphviz version 2.26.3 (20100126.1600)
 -->
<!-- Title: ant::analysis::physics::OmegaEtaG2::DebugCounters Pages: 1 -->
<svg width="164pt" height="142pt"
 viewBox="0.00 0.00 164.00 142.00" xmlns="http://www.w3.org/2000/svg" xmlns:xlink="http://www.w3.org/1999/xlink">
<g id="graph1" class="graph" transform="scale(1 1) rotate(0) translate(4 138)">
<title>ant::analysis::physics::OmegaEtaG2::DebugCounters</title>
<polygon fill="white" stroke="white" points="-4,5 -4,-138 161,-138 161,5 -4,5"/>
<!-- Node1 -->
<g id="node1" class="node"><title>Node1</title>
<polygon fill="#bfbfbf" stroke="black" points="0,-1 0,-35 156,-35 156,-1 0,-1"/>
<text text-anchor="start" x="8" y="-22" font-family="Helvetica,sans-Serif" font-size="10.00">ant::analysis::physics</text>
<text text-anchor="middle" x="78" y="-9" font-family="Helvetica,sans-Serif" font-size="10.00">::OmegaEtaG2::DebugCounters</text>
</g>
<!-- Node2 -->
<g id="node2" class="node"><title>Node2</title>
<a xlink:href="structant_1_1analysis_1_1physics_1_1_omega_eta_g2_1_1_debug_counters_1_1_values.html" target="_top" xlink:title="ant::analysis::physics\l::OmegaEtaG2::DebugCounters\l::Values">
<polygon fill="white" stroke="black" points="0,-86.5 0,-133.5 156,-133.5 156,-86.5 0,-86.5"/>
<text text-anchor="start" x="8" y="-120.5" font-family="Helvetica,sans-Serif" font-size="10.00">ant::analysis::physics</text>
<text text-anchor="start" x="8" y="-107.5" font-family="Helvetica,sans-Serif" font-size="10.00">::OmegaEtaG2::DebugCounters</text>
<text text-anchor="middle" x="78" y="-94.5" font-family="Helvetica,sans-Serif" font-size="10.00">::Values</text>
</a>
</g>
<!-- Node2&#45;&gt;Node1 -->
<g id="edge2" class="edge"><title>Node2&#45;&gt;Node1</title>
<path fill="none" stroke="#9a32cd" stroke-dasharray="5,2" d="M78,-76.0812C78,-62.1835 78,-46.7024 78,-35.2202"/>
<polygon fill="#9a32cd" stroke="#9a32cd" points="74.5001,-76.3077 78,-86.3077 81.5001,-76.3077 74.5001,-76.3077"/>
<text text-anchor="middle" x="82.5" y="-58.5" font-family="Helvetica,sans-Serif" font-size="10.00"> v</text>
</g>
</g>
</svg>
