<?xml version="1.0" encoding="UTF-8" standalone="no"?>
<!DOCTYPE svg PUBLIC "-//W3C//DTD SVG 1.1//EN"
 "http://www.w3.org/Graphics/SVG/1.1/DTD/svg11.dtd">
<!-- Generated by graphviz version 2.26.3 (20100126.1600)
 -->
<!-- Title: ant::analysis::utils::TreeFitter::nodesetup_t::getter Pages: 1 -->
<svg width="132pt" height="128pt"
 viewBox="0.00 0.00 132.00 128.00" xmlns="http://www.w3.org/2000/svg" xmlns:xlink="http://www.w3.org/1999/xlink">
<g id="graph1" class="graph" transform="scale(1 1) rotate(0) translate(4 124)">
<title>ant::analysis::utils::TreeFitter::nodesetup_t::getter</title>
<polygon fill="white" stroke="white" points="-4,5 -4,-124 129,-124 129,5 -4,5"/>
<!-- Node0 -->
<g id="node1" class="node"><title>Node0</title>
<polygon fill="#bfbfbf" stroke="black" points="4,-0.5 4,-47.5 120,-47.5 120,-0.5 4,-0.5"/>
<text text-anchor="start" x="12" y="-34.5" font-family="Helvetica,sans-Serif" font-size="10.00">ant::analysis::utils</text>
<text text-anchor="start" x="12" y="-21.5" font-family="Helvetica,sans-Serif" font-size="10.00">::TreeFitter::nodesetup</text>
<text text-anchor="middle" x="62" y="-8.5" font-family="Helvetica,sans-Serif" font-size="10.00">_t::getter</text>
</g>
<!-- Node1 -->
<g id="node2" class="node"><title>Node1</title>
<polygon fill="white" stroke="#bfbfbf" points="-0.5,-85 -0.5,-119 124.5,-119 124.5,-85 -0.5,-85"/>
<text text-anchor="start" x="7.5" y="-106" font-family="Helvetica,sans-Serif" font-size="10.00">std::function&lt; nodesetup</text>
<text text-anchor="middle" x="62" y="-93" font-family="Helvetica,sans-Serif" font-size="10.00">_t(ParticleTypeTree)&gt;</text>
</g>
<!-- Node1&#45;&gt;Node0 -->
<g id="edge2" class="edge"><title>Node1&#45;&gt;Node0</title>
<path fill="none" stroke="midnightblue" d="M62,-74.5793C62,-65.8339 62,-56.2342 62,-47.77"/>
<polygon fill="midnightblue" stroke="midnightblue" points="58.5001,-74.6892 62,-84.6893 65.5001,-74.6893 58.5001,-74.6892"/>
</g>
</g>
</svg>
