<?xml version="1.0" encoding="UTF-8" standalone="no"?>
<!DOCTYPE svg PUBLIC "-//W3C//DTD SVG 1.1//EN"
 "http://www.w3.org/Graphics/SVG/1.1/DTD/svg11.dtd">
<!-- Generated by graphviz version 2.26.3 (20100126.1600)
 -->
<!-- Title: SigFctWrapper Pages: 1 -->
<svg width="186pt" height="88pt"
 viewBox="0.00 0.00 186.00 88.00" xmlns="http://www.w3.org/2000/svg" xmlns:xlink="http://www.w3.org/1999/xlink">
<g id="graph1" class="graph" transform="scale(1 1) rotate(0) translate(4 84)">
<title>SigFctWrapper</title>
<polygon fill="white" stroke="white" points="-4,5 -4,-84 183,-84 183,5 -4,5"/>
<!-- Node0 -->
<g id="node1" class="node"><title>Node0</title>
<polygon fill="#bfbfbf" stroke="black" points="54,-58.5 54,-79.5 136,-79.5 136,-58.5 54,-58.5"/>
<text text-anchor="middle" x="95" y="-66.5" font-family="Helvetica,sans-Serif" font-size="10.00">SigFctWrapper</text>
</g>
<!-- Node1 -->
<g id="node3" class="node"><title>Node1</title>
<a xlink:href="struct_sig_fct_crystal_ball.html" target="_top" xlink:title="SigFctCrystalBall">
<polygon fill="white" stroke="black" points="-0.5,-0.5 -0.5,-21.5 92.5,-21.5 92.5,-0.5 -0.5,-0.5"/>
<text text-anchor="middle" x="46" y="-8.5" font-family="Helvetica,sans-Serif" font-size="10.00">SigFctCrystalBall</text>
</a>
</g>
<!-- Node0&#45;&gt;Node1 -->
<g id="edge2" class="edge"><title>Node0&#45;&gt;Node1</title>
<path fill="none" stroke="midnightblue" d="M79.4051,-50.5407C71.3267,-40.9786 61.7532,-29.6467 54.9304,-21.5707"/>
<polygon fill="midnightblue" stroke="midnightblue" points="76.8855,-52.9818 86.0126,-58.3619 82.2327,-48.4643 76.8855,-52.9818"/>
</g>
<!-- Node2 -->
<g id="node5" class="node"><title>Node2</title>
<a xlink:href="struct_sig_fct_gaus.html" target="_top" xlink:title="SigFctGaus">
<polygon fill="white" stroke="black" points="110,-0.5 110,-21.5 178,-21.5 178,-0.5 110,-0.5"/>
<text text-anchor="middle" x="144" y="-8.5" font-family="Helvetica,sans-Serif" font-size="10.00">SigFctGaus</text>
</a>
</g>
<!-- Node0&#45;&gt;Node2 -->
<g id="edge4" class="edge"><title>Node0&#45;&gt;Node2</title>
<path fill="none" stroke="midnightblue" d="M110.595,-50.5407C118.673,-40.9786 128.247,-29.6467 135.07,-21.5707"/>
<polygon fill="midnightblue" stroke="midnightblue" points="107.767,-48.4643 103.987,-58.3619 113.115,-52.9818 107.767,-48.4643"/>
</g>
</g>
</svg>
