<?xml version="1.0" encoding="UTF-8" standalone="no"?>
<!DOCTYPE svg PUBLIC "-//W3C//DTD SVG 1.1//EN"
 "http://www.w3.org/Graphics/SVG/1.1/DTD/svg11.dtd">
<!-- Generated by graphviz version 2.26.3 (20100126.1600)
 -->
<!-- Title: ant::calibration::DataBase::OnDiskLayout::Range_t Pages: 1 -->
<svg width="205pt" height="214pt"
 viewBox="0.00 0.00 205.00 214.00" xmlns="http://www.w3.org/2000/svg" xmlns:xlink="http://www.w3.org/1999/xlink">
<g id="graph1" class="graph" transform="scale(1 1) rotate(0) translate(4 210)">
<title>ant::calibration::DataBase::OnDiskLayout::Range_t</title>
<polygon fill="white" stroke="white" points="-4,5 -4,-210 202,-210 202,5 -4,5"/>
<!-- Node2 -->
<g id="node1" class="node"><title>Node2</title>
<polygon fill="#bfbfbf" stroke="black" points="43,-1 43,-35 173,-35 173,-1 43,-1"/>
<text text-anchor="start" x="51" y="-22" font-family="Helvetica,sans-Serif" font-size="10.00">ant::calibration::DataBase</text>
<text text-anchor="middle" x="108" y="-9" font-family="Helvetica,sans-Serif" font-size="10.00">::OnDiskLayout::Range_t</text>
</g>
<!-- Node3 -->
<g id="node2" class="node"><title>Node3</title>
<a xlink:href="classant_1_1interval.html" target="_top" xlink:title="ant::interval\&lt; TID \&gt;">
<polygon fill="white" stroke="black" points="0,-86.5 0,-107.5 102,-107.5 102,-86.5 0,-86.5"/>
<text text-anchor="middle" x="51" y="-94.5" font-family="Helvetica,sans-Serif" font-size="10.00">ant::interval&lt; TID &gt;</text>
</a>
</g>
<!-- Node3&#45;&gt;Node2 -->
<g id="edge2" class="edge"><title>Node3&#45;&gt;Node2</title>
<path fill="none" stroke="midnightblue" d="M64.6555,-78.074C74.0817,-65.0096 86.5133,-47.7798 95.645,-35.1236"/>
<polygon fill="midnightblue" stroke="midnightblue" points="61.7001,-76.1883 58.6873,-86.3457 67.3768,-80.2841 61.7001,-76.1883"/>
</g>
<!-- Node4 -->
<g id="node4" class="node"><title>Node4</title>
<a xlink:href="structant_1_1_t_i_d.html" target="_top" xlink:title="ant::TID">
<polygon fill="white" stroke="black" points="24.5,-177.5 24.5,-198.5 77.5,-198.5 77.5,-177.5 24.5,-177.5"/>
<text text-anchor="middle" x="51" y="-185.5" font-family="Helvetica,sans-Serif" font-size="10.00">ant::TID</text>
</a>
</g>
<!-- Node4&#45;&gt;Node3 -->
<g id="edge4" class="edge"><title>Node4&#45;&gt;Node3</title>
<path fill="none" stroke="#9a32cd" stroke-dasharray="5,2" d="M51,-167.049C51,-148.433 51,-121.991 51,-107.501"/>
<polygon fill="#9a32cd" stroke="#9a32cd" points="47.5001,-167.204 51,-177.204 54.5001,-167.204 47.5001,-167.204"/>
<text text-anchor="middle" x="65" y="-143" font-family="Helvetica,sans-Serif" font-size="10.00"> _start</text>
<text text-anchor="middle" x="65" y="-130" font-family="Helvetica,sans-Serif" font-size="10.00">_stop</text>
</g>
<!-- Node5 -->
<g id="node6" class="node"><title>Node5</title>
<a xlink:title="STL class. ">
<polygon fill="white" stroke="#bfbfbf" points="120,-86.5 120,-107.5 180,-107.5 180,-86.5 120,-86.5"/>
<text text-anchor="middle" x="150" y="-94.5" font-family="Helvetica,sans-Serif" font-size="10.00">std::string</text>
</a>
</g>
<!-- Node5&#45;&gt;Node2 -->
<g id="edge6" class="edge"><title>Node5&#45;&gt;Node2</title>
<path fill="none" stroke="#9a32cd" stroke-dasharray="5,2" d="M139.535,-77.3157C132.641,-64.3486 123.703,-47.5364 117.104,-35.1236"/>
<polygon fill="#9a32cd" stroke="#9a32cd" points="136.551,-79.159 144.336,-86.3457 142.732,-75.873 136.551,-79.159"/>
<text text-anchor="middle" x="158.5" y="-58.5" font-family="Helvetica,sans-Serif" font-size="10.00"> FolderPath</text>
</g>
<!-- Node6 -->
<g id="node8" class="node"><title>Node6</title>
<a xlink:title="STL class. ">
<polygon fill="white" stroke="#bfbfbf" points="102.5,-171 102.5,-205 197.5,-205 197.5,-171 102.5,-171"/>
<text text-anchor="start" x="110.5" y="-192" font-family="Helvetica,sans-Serif" font-size="10.00">std::basic_string&lt;</text>
<text text-anchor="middle" x="150" y="-179" font-family="Helvetica,sans-Serif" font-size="10.00"> char &gt;</text>
</a>
</g>
<!-- Node6&#45;&gt;Node5 -->
<g id="edge8" class="edge"><title>Node6&#45;&gt;Node5</title>
<path fill="none" stroke="midnightblue" d="M150,-160.712C150,-142.817 150,-120.422 150,-107.51"/>
<polygon fill="midnightblue" stroke="midnightblue" points="146.5,-160.884 150,-170.884 153.5,-160.884 146.5,-160.884"/>
</g>
</g>
</svg>
