<?xml version="1.0" encoding="UTF-8" standalone="no"?>
<!DOCTYPE svg PUBLIC "-//W3C//DTD SVG 1.1//EN"
 "http://www.w3.org/Graphics/SVG/1.1/DTD/svg11.dtd">
<!-- Generated by graphviz version 2.26.3 (20100126.1600)
 -->
<!-- Title: ant::UnpackerAcquConfig::scaler_mapping_t::entry_t Pages: 1 -->
<svg width="166pt" height="130pt"
 viewBox="0.00 0.00 166.00 130.00" xmlns="http://www.w3.org/2000/svg" xmlns:xlink="http://www.w3.org/1999/xlink">
<g id="graph1" class="graph" transform="scale(1 1) rotate(0) translate(4 126)">
<title>ant::UnpackerAcquConfig::scaler_mapping_t::entry_t</title>
<polygon fill="white" stroke="white" points="-4,5 -4,-126 163,-126 163,5 -4,5"/>
<!-- Node1 -->
<g id="node1" class="node"><title>Node1</title>
<polygon fill="#bfbfbf" stroke="black" points="11.5,-1 11.5,-35 146.5,-35 146.5,-1 11.5,-1"/>
<text text-anchor="start" x="19.5" y="-22" font-family="Helvetica,sans-Serif" font-size="10.00">ant::UnpackerAcquConfig</text>
<text text-anchor="middle" x="79" y="-9" font-family="Helvetica,sans-Serif" font-size="10.00">::scaler_mapping_t::entry_t</text>
</g>
<!-- Node2 -->
<g id="node2" class="node"><title>Node2</title>
<a xlink:href="structant_1_1_unpacker_acqu_config_1_1_raw_channel__t.html" target="_top" xlink:title="ant::UnpackerAcquConfig\l::RawChannel_t\&lt; std::uint32_t \&gt;">
<polygon fill="white" stroke="black" points="-0.5,-87 -0.5,-121 158.5,-121 158.5,-87 -0.5,-87"/>
<text text-anchor="start" x="7.5" y="-108" font-family="Helvetica,sans-Serif" font-size="10.00">ant::UnpackerAcquConfig</text>
<text text-anchor="middle" x="79" y="-95" font-family="Helvetica,sans-Serif" font-size="10.00">::RawChannel_t&lt; std::uint32_t &gt;</text>
</a>
</g>
<!-- Node2&#45;&gt;Node1 -->
<g id="edge2" class="edge"><title>Node2&#45;&gt;Node1</title>
<path fill="none" stroke="#9a32cd" stroke-dasharray="5,2" d="M79,-76.342C79,-62.7741 79,-46.8607 79,-35.084"/>
<polygon fill="#9a32cd" stroke="#9a32cd" points="75.5001,-76.5966 79,-86.5966 82.5001,-76.5967 75.5001,-76.5966"/>
<text text-anchor="middle" x="109" y="-58.5" font-family="Helvetica,sans-Serif" font-size="10.00"> RawChannel</text>
</g>
</g>
</svg>
