<?xml version="1.0" encoding="UTF-8" standalone="no"?>
<!DOCTYPE svg PUBLIC "-//W3C//DTD SVG 1.1//EN"
 "http://www.w3.org/Graphics/SVG/1.1/DTD/svg11.dtd">
<!-- Generated by graphviz version 2.26.3 (20100126.1600)
 -->
<!-- Title: triplePi0_Plot::TriplePi0Hist_t Pages: 1 -->
<svg width="248pt" height="294pt"
 viewBox="0.00 0.00 248.00 294.00" xmlns="http://www.w3.org/2000/svg" xmlns:xlink="http://www.w3.org/1999/xlink">
<g id="graph1" class="graph" transform="scale(1 1) rotate(0) translate(4 290)">
<title>triplePi0_Plot::TriplePi0Hist_t</title>
<polygon fill="white" stroke="white" points="-4,5 -4,-290 245,-290 245,5 -4,5"/>
<!-- Node1 -->
<g id="node1" class="node"><title>Node1</title>
<polygon fill="#bfbfbf" stroke="black" points="46.5,-1 46.5,-35 165.5,-35 165.5,-1 46.5,-1"/>
<text text-anchor="start" x="54.5" y="-22" font-family="Helvetica,sans-Serif" font-size="10.00">triplePi0_Plot::TriplePi0</text>
<text text-anchor="middle" x="106" y="-9" font-family="Helvetica,sans-Serif" font-size="10.00">Hist_t</text>
</g>
<!-- Node2 -->
<g id="node2" class="node"><title>Node2</title>
<a xlink:href="classant_1_1analysis_1_1_histogram_factory.html" target="_top" xlink:title="ant::analysis::Histogram\lFactory">
<polygon fill="white" stroke="black" points="-0.5,-191 -0.5,-225 122.5,-225 122.5,-191 -0.5,-191"/>
<text text-anchor="start" x="7.5" y="-212" font-family="Helvetica,sans-Serif" font-size="10.00">ant::analysis::Histogram</text>
<text text-anchor="middle" x="61" y="-199" font-family="Helvetica,sans-Serif" font-size="10.00">Factory</text>
</a>
</g>
<!-- Node2&#45;&gt;Node1 -->
<g id="edge2" class="edge"><title>Node2&#45;&gt;Node1</title>
<path fill="none" stroke="#9a32cd" stroke-dasharray="5,2" d="M65.0505,-180.607C69.98,-149.542 79.2521,-97.5492 92,-54 93.8463,-47.6928 96.3306,-40.9389 98.694,-35.0046"/>
<polygon fill="#9a32cd" stroke="#9a32cd" points="61.5631,-180.256 63.4893,-190.674 68.4805,-181.328 61.5631,-180.256"/>
<text text-anchor="middle" x="111" y="-110.5" font-family="Helvetica,sans-Serif" font-size="10.00"> HistFac</text>
</g>
<!-- Node3 -->
<g id="node4" class="node"><title>Node3</title>
<a xlink:href="classant_1_1_bin_settings.html" target="_top" xlink:title="ant::BinSettings">
<polygon fill="white" stroke="black" points="140,-197.5 140,-218.5 226,-218.5 226,-197.5 140,-197.5"/>
<text text-anchor="middle" x="183" y="-205.5" font-family="Helvetica,sans-Serif" font-size="10.00">ant::BinSettings</text>
</a>
</g>
<!-- Node3&#45;&gt;Node1 -->
<g id="edge4" class="edge"><title>Node3&#45;&gt;Node1</title>
<path fill="none" stroke="#9a32cd" stroke-dasharray="5,2" d="M177.718,-187.353C169.593,-157.157 152.571,-99.5872 130,-54 126.8,-47.5376 122.625,-40.8595 118.657,-35.0363"/>
<polygon fill="#9a32cd" stroke="#9a32cd" points="174.371,-188.388 180.303,-197.167 181.141,-186.605 174.371,-188.388"/>
<text text-anchor="middle" x="202" y="-162.5" font-family="Helvetica,sans-Serif" font-size="10.00"> pEbins</text>
<text text-anchor="middle" x="202" y="-149.5" font-family="Helvetica,sans-Serif" font-size="10.00">Chi2Bins</text>
<text text-anchor="middle" x="202" y="-136.5" font-family="Helvetica,sans-Serif" font-size="10.00">taggerBins</text>
<text text-anchor="middle" x="202" y="-123.5" font-family="Helvetica,sans-Serif" font-size="10.00">pThetaBins</text>
<text text-anchor="middle" x="202" y="-110.5" font-family="Helvetica,sans-Serif" font-size="10.00">IM2g</text>
<text text-anchor="middle" x="202" y="-97.5" font-family="Helvetica,sans-Serif" font-size="10.00">IMProtonBins</text>
<text text-anchor="middle" x="202" y="-84.5" font-family="Helvetica,sans-Serif" font-size="10.00">Ebins</text>
<text text-anchor="middle" x="202" y="-71.5" font-family="Helvetica,sans-Serif" font-size="10.00">probbins</text>
<text text-anchor="middle" x="202" y="-58.5" font-family="Helvetica,sans-Serif" font-size="10.00">IMbins</text>
</g>
<!-- Node4 -->
<g id="node6" class="node"><title>Node4</title>
<a xlink:href="classant_1_1interval.html" target="_top" xlink:title="ant::interval\&lt; double \&gt;">
<polygon fill="white" stroke="black" points="126,-264.5 126,-285.5 240,-285.5 240,-264.5 126,-264.5"/>
<text text-anchor="middle" x="183" y="-272.5" font-family="Helvetica,sans-Serif" font-size="10.00">ant::interval&lt; double &gt;</text>
</a>
</g>
<!-- Node4&#45;&gt;Node3 -->
<g id="edge6" class="edge"><title>Node4&#45;&gt;Node3</title>
<path fill="none" stroke="midnightblue" d="M183,-253.904C183,-242.127 183,-227.967 183,-218.517"/>
<polygon fill="midnightblue" stroke="midnightblue" points="179.5,-254.235 183,-264.235 186.5,-254.235 179.5,-254.235"/>
</g>
</g>
</svg>
