<?xml version="1.0" encoding="UTF-8" standalone="no"?>
<!DOCTYPE svg PUBLIC "-//W3C//DTD SVG 1.1//EN"
 "http://www.w3.org/Graphics/SVG/1.1/DTD/svg11.dtd">
<!-- Generated by graphviz version 2.26.3 (20100126.1600)
 -->
<!-- Title: ant::calibration::converter::CATCH_TDC Pages: 1 -->
<svg width="730pt" height="174pt"
 viewBox="0.00 0.00 730.00 174.00" xmlns="http://www.w3.org/2000/svg" xmlns:xlink="http://www.w3.org/1999/xlink">
<g id="graph1" class="graph" transform="scale(1 1) rotate(0) translate(4 170)">
<title>ant::calibration::converter::CATCH_TDC</title>
<polygon fill="white" stroke="white" points="-4,5 -4,-170 727,-170 727,5 -4,5"/>
<!-- Node6 -->
<g id="node1" class="node"><title>Node6</title>
<polygon fill="#bfbfbf" stroke="black" points="594.5,-52 594.5,-86 721.5,-86 721.5,-52 594.5,-52"/>
<text text-anchor="start" x="602.5" y="-73" font-family="Helvetica,sans-Serif" font-size="10.00">ant::calibration::converter</text>
<text text-anchor="middle" x="658" y="-60" font-family="Helvetica,sans-Serif" font-size="10.00">::CATCH_TDC</text>
</g>
<!-- Node7 -->
<g id="node2" class="node"><title>Node7</title>
<a xlink:href="structant_1_1calibration_1_1converter_1_1_multi_hit_reference.html" target="_top" xlink:title="ant::calibration::converter\l::MultiHitReference\&lt; std\l::uint16_t \&gt;">
<polygon fill="white" stroke="black" points="428.5,-45.5 428.5,-92.5 555.5,-92.5 555.5,-45.5 428.5,-45.5"/>
<text text-anchor="start" x="436.5" y="-79.5" font-family="Helvetica,sans-Serif" font-size="10.00">ant::calibration::converter</text>
<text text-anchor="start" x="436.5" y="-66.5" font-family="Helvetica,sans-Serif" font-size="10.00">::MultiHitReference&lt; std</text>
<text text-anchor="middle" x="492" y="-53.5" font-family="Helvetica,sans-Serif" font-size="10.00">::uint16_t &gt;</text>
</a>
</g>
<!-- Node7&#45;&gt;Node6 -->
<g id="edge2" class="edge"><title>Node7&#45;&gt;Node6</title>
<path fill="none" stroke="midnightblue" d="M565.944,-69C575.46,-69 585.136,-69 594.465,-69"/>
<polygon fill="midnightblue" stroke="midnightblue" points="565.705,-65.5001 555.705,-69 565.705,-72.5001 565.705,-65.5001"/>
</g>
<!-- Node8 -->
<g id="node4" class="node"><title>Node8</title>
<a xlink:href="structant_1_1calibration_1_1converter_1_1_multi_hit.html" target="_top" xlink:title="ant::calibration::converter\l::MultiHit\&lt; std::uint16_t \&gt;">
<polygon fill="white" stroke="black" points="174,-132 174,-166 302,-166 302,-132 174,-132"/>
<text text-anchor="start" x="182" y="-153" font-family="Helvetica,sans-Serif" font-size="10.00">ant::calibration::converter</text>
<text text-anchor="middle" x="238" y="-140" font-family="Helvetica,sans-Serif" font-size="10.00">::MultiHit&lt; std::uint16_t &gt;</text>
</a>
</g>
<!-- Node8&#45;&gt;Node7 -->
<g id="edge4" class="edge"><title>Node8&#45;&gt;Node7</title>
<path fill="none" stroke="midnightblue" d="M305.899,-129.077C337.609,-119.618 375.821,-107.998 410,-97 415.871,-95.1107 421.965,-93.1084 428.06,-91.0778"/>
<polygon fill="midnightblue" stroke="midnightblue" points="304.865,-125.733 296.278,-131.94 306.861,-132.442 304.865,-125.733"/>
</g>
<!-- Node9 -->
<g id="node6" class="node"><title>Node9</title>
<a xlink:href="structant_1_1_calibration_1_1_converter.html" target="_top" xlink:title="The Converter struct handles the transition from raw bytes to somewhat meaningful values (not necessa...">
<polygon fill="white" stroke="black" points="0.5,-138.5 0.5,-159.5 131.5,-159.5 131.5,-138.5 0.5,-138.5"/>
<text text-anchor="middle" x="66" y="-146.5" font-family="Helvetica,sans-Serif" font-size="10.00">ant::Calibration::Converter</text>
</a>
</g>
<!-- Node9&#45;&gt;Node8 -->
<g id="edge6" class="edge"><title>Node9&#45;&gt;Node8</title>
<path fill="none" stroke="midnightblue" d="M141.698,-149C152.409,-149 163.336,-149 173.803,-149"/>
<polygon fill="midnightblue" stroke="midnightblue" points="141.517,-145.5 131.516,-149 141.516,-152.5 141.517,-145.5"/>
</g>
<!-- Node10 -->
<g id="node8" class="node"><title>Node10</title>
<a xlink:href="structant_1_1_reconstruct_hook_1_1_detector_read_hits.html" target="_top" xlink:title="The DetectorReadHits struct instances are applied before hit matching. ">
<polygon fill="white" stroke="black" points="181.5,-80 181.5,-114 294.5,-114 294.5,-80 181.5,-80"/>
<text text-anchor="start" x="189.5" y="-101" font-family="Helvetica,sans-Serif" font-size="10.00">ant::ReconstructHook</text>
<text text-anchor="middle" x="238" y="-88" font-family="Helvetica,sans-Serif" font-size="10.00">::DetectorReadHits</text>
</a>
</g>
<!-- Node10&#45;&gt;Node7 -->
<g id="edge8" class="edge"><title>Node10&#45;&gt;Node7</title>
<path fill="none" stroke="midnightblue" d="M304.693,-89.6481C342.918,-85.4343 390.636,-80.174 428.341,-76.0175"/>
<polygon fill="midnightblue" stroke="midnightblue" points="304.243,-86.1764 294.686,-90.7511 305.01,-93.1342 304.243,-86.1764"/>
</g>
<!-- Node11 -->
<g id="node10" class="node"><title>Node11</title>
<a xlink:href="structant_1_1_reconstruct_hook_1_1_base.html" target="_top" xlink:title="The Base struct just defines some useful types. ">
<polygon fill="white" stroke="black" points="9.5,-80 9.5,-114 122.5,-114 122.5,-80 9.5,-80"/>
<text text-anchor="start" x="17.5" y="-101" font-family="Helvetica,sans-Serif" font-size="10.00">ant::ReconstructHook</text>
<text text-anchor="middle" x="66" y="-88" font-family="Helvetica,sans-Serif" font-size="10.00">::Base</text>
</a>
</g>
<!-- Node11&#45;&gt;Node10 -->
<g id="edge10" class="edge"><title>Node11&#45;&gt;Node10</title>
<path fill="none" stroke="midnightblue" d="M133.103,-97C149.025,-97 165.856,-97 181.264,-97"/>
<polygon fill="midnightblue" stroke="midnightblue" points="132.796,-93.5001 122.796,-97 132.796,-100.5 132.796,-93.5001"/>
</g>
<!-- Node12 -->
<g id="node12" class="node"><title>Node12</title>
<a xlink:href="structant_1_1_logical_channel__t.html" target="_top" xlink:title="The LogicalChannel_t struct uniquely identifies detector element within setup. ">
<polygon fill="white" stroke="black" points="182.5,-40.5 182.5,-61.5 293.5,-61.5 293.5,-40.5 182.5,-40.5"/>
<text text-anchor="middle" x="238" y="-48.5" font-family="Helvetica,sans-Serif" font-size="10.00">ant::LogicalChannel_t</text>
</a>
</g>
<!-- Node12&#45;&gt;Node7 -->
<g id="edge12" class="edge"><title>Node12&#45;&gt;Node7</title>
<path fill="none" stroke="#9a32cd" stroke-dasharray="5,2" d="M303.95,-54.228C335.981,-55.9506 375.018,-58.2777 410,-61 415.989,-61.4661 422.221,-61.9946 428.453,-62.5525"/>
<polygon fill="#9a32cd" stroke="#9a32cd" points="303.982,-50.7249 293.81,-53.6903 303.611,-57.7151 303.982,-50.7249"/>
<text text-anchor="middle" x="367" y="-65" font-family="Helvetica,sans-Serif" font-size="10.00"> ReferenceChannel</text>
</g>
<!-- Node13 -->
<g id="node14" class="node"><title>Node13</title>
<polygon fill="white" stroke="#bfbfbf" points="170.5,-0.5 170.5,-21.5 305.5,-21.5 305.5,-0.5 170.5,-0.5"/>
<text text-anchor="middle" x="238" y="-8.5" font-family="Helvetica,sans-Serif" font-size="10.00">std::vector&lt; std::uint16_t &gt;</text>
</g>
<!-- Node13&#45;&gt;Node7 -->
<g id="edge14" class="edge"><title>Node13&#45;&gt;Node7</title>
<path fill="none" stroke="#9a32cd" stroke-dasharray="5,2" d="M315.524,-20.4354C345.324,-24.8903 379.497,-31.0145 410,-39 417.039,-40.8428 424.321,-43.0493 431.508,-45.4182"/>
<polygon fill="#9a32cd" stroke="#9a32cd" points="315.998,-16.9675 305.597,-18.9883 314.988,-23.8943 315.998,-16.9675"/>
<text text-anchor="middle" x="367" y="-43" font-family="Helvetica,sans-Serif" font-size="10.00"> ReferenceHits</text>
</g>
</g>
</svg>
