<?xml version="1.0" encoding="UTF-8" standalone="no"?>
<!DOCTYPE svg PUBLIC "-//W3C//DTD SVG 1.1//EN"
 "http://www.w3.org/Graphics/SVG/1.1/DTD/svg11.dtd">
<!-- Generated by graphviz version 2.26.3 (20100126.1600)
 -->
<!-- Title: HAxis_t Pages: 1 -->
<svg width="234pt" height="176pt"
 viewBox="0.00 0.00 234.00 176.00" xmlns="http://www.w3.org/2000/svg" xmlns:xlink="http://www.w3.org/1999/xlink">
<g id="graph1" class="graph" transform="scale(1 1) rotate(0) translate(4 172)">
<title>HAxis_t</title>
<polygon fill="white" stroke="white" points="-4,5 -4,-172 231,-172 231,5 -4,5"/>
<!-- Node1 -->
<g id="node1" class="node"><title>Node1</title>
<polygon fill="#bfbfbf" stroke="black" points="89,-0.5 89,-21.5 141,-21.5 141,-0.5 89,-0.5"/>
<text text-anchor="middle" x="115" y="-8.5" font-family="Helvetica,sans-Serif" font-size="10.00">HAxis_t</text>
</g>
<!-- Node2 -->
<g id="node2" class="node"><title>Node2</title>
<a xlink:title="STL class. ">
<polygon fill="white" stroke="#bfbfbf" points="25,-72.5 25,-93.5 85,-93.5 85,-72.5 25,-72.5"/>
<text text-anchor="middle" x="55" y="-80.5" font-family="Helvetica,sans-Serif" font-size="10.00">std::string</text>
</a>
</g>
<!-- Node2&#45;&gt;Node1 -->
<g id="edge2" class="edge"><title>Node2&#45;&gt;Node1</title>
<path fill="none" stroke="#9a32cd" stroke-dasharray="5,2" d="M70.3466,-64.5841C81.6762,-50.9886 96.7017,-32.9579 106.11,-21.6674"/>
<polygon fill="#9a32cd" stroke="#9a32cd" points="67.5663,-62.4533 63.8532,-72.3762 72.9439,-66.9346 67.5663,-62.4533"/>
<text text-anchor="middle" x="102" y="-44.5" font-family="Helvetica,sans-Serif" font-size="10.00"> Title</text>
</g>
<!-- Node3 -->
<g id="node4" class="node"><title>Node3</title>
<a xlink:title="STL class. ">
<polygon fill="white" stroke="#bfbfbf" points="-0.5,-133 -0.5,-167 94.5,-167 94.5,-133 -0.5,-133"/>
<text text-anchor="start" x="7.5" y="-154" font-family="Helvetica,sans-Serif" font-size="10.00">std::basic_string&lt;</text>
<text text-anchor="middle" x="47" y="-141" font-family="Helvetica,sans-Serif" font-size="10.00"> char &gt;</text>
</a>
</g>
<!-- Node3&#45;&gt;Node2 -->
<g id="edge4" class="edge"><title>Node3&#45;&gt;Node2</title>
<path fill="none" stroke="midnightblue" d="M50.2795,-122.534C51.5008,-112.306 52.8148,-101.301 53.7456,-93.5056"/>
<polygon fill="midnightblue" stroke="midnightblue" points="46.7706,-122.401 49.0602,-132.746 53.7212,-123.231 46.7706,-122.401"/>
</g>
<!-- Node4 -->
<g id="node6" class="node"><title>Node4</title>
<a xlink:href="classant_1_1_bin_settings.html" target="_top" xlink:title="ant::BinSettings">
<polygon fill="white" stroke="black" points="118,-72.5 118,-93.5 204,-93.5 204,-72.5 118,-72.5"/>
<text text-anchor="middle" x="161" y="-80.5" font-family="Helvetica,sans-Serif" font-size="10.00">ant::BinSettings</text>
</a>
</g>
<!-- Node4&#45;&gt;Node1 -->
<g id="edge6" class="edge"><title>Node4&#45;&gt;Node1</title>
<path fill="none" stroke="#9a32cd" stroke-dasharray="5,2" d="M148.74,-63.8099C140.115,-50.3106 128.893,-32.7449 121.815,-21.6674"/>
<polygon fill="#9a32cd" stroke="#9a32cd" points="145.879,-65.8336 154.213,-72.3762 151.778,-62.0648 145.879,-65.8336"/>
<text text-anchor="middle" x="154" y="-44.5" font-family="Helvetica,sans-Serif" font-size="10.00"> bins</text>
</g>
<!-- Node5 -->
<g id="node8" class="node"><title>Node5</title>
<a xlink:href="classant_1_1interval.html" target="_top" xlink:title="ant::interval\&lt; double \&gt;">
<polygon fill="white" stroke="black" points="112,-139.5 112,-160.5 226,-160.5 226,-139.5 112,-139.5"/>
<text text-anchor="middle" x="169" y="-147.5" font-family="Helvetica,sans-Serif" font-size="10.00">ant::interval&lt; double &gt;</text>
</a>
</g>
<!-- Node5&#45;&gt;Node4 -->
<g id="edge8" class="edge"><title>Node5&#45;&gt;Node4</title>
<path fill="none" stroke="midnightblue" d="M166.525,-129.268C165.11,-117.419 163.396,-103.064 162.256,-93.5171"/>
<polygon fill="midnightblue" stroke="midnightblue" points="163.054,-129.721 167.715,-139.235 170.004,-128.891 163.054,-129.721"/>
</g>
</g>
</svg>
