<?xml version="1.0" encoding="UTF-8" standalone="no"?>
<!DOCTYPE svg PUBLIC "-//W3C//DTD SVG 1.1//EN"
 "http://www.w3.org/Graphics/SVG/1.1/DTD/svg11.dtd">
<!-- Generated by graphviz version 2.26.3 (20100126.1600)
 -->
<!-- Title: ant::expconfig::detector::TAPSVeto::BaF2_Element_t Pages: 1 -->
<svg width="226pt" height="248pt"
 viewBox="0.00 0.00 226.00 248.00" xmlns="http://www.w3.org/2000/svg" xmlns:xlink="http://www.w3.org/1999/xlink">
<g id="graph1" class="graph" transform="scale(1 1) rotate(0) translate(4 244)">
<title>ant::expconfig::detector::TAPSVeto::BaF2_Element_t</title>
<polygon fill="white" stroke="white" points="-4,5 -4,-244 223,-244 223,5 -4,5"/>
<!-- Node2 -->
<g id="node1" class="node"><title>Node2</title>
<polygon fill="#bfbfbf" stroke="black" points="0,-1 0,-35 148,-35 148,-1 0,-1"/>
<text text-anchor="start" x="8" y="-22" font-family="Helvetica,sans-Serif" font-size="10.00">ant::expconfig::detector</text>
<text text-anchor="middle" x="74" y="-9" font-family="Helvetica,sans-Serif" font-size="10.00">::TAPSVeto::BaF2_Element_t</text>
</g>
<!-- Node3 -->
<g id="node2" class="node"><title>Node3</title>
<a xlink:href="structant_1_1_detector__t_1_1_element__t.html" target="_top" xlink:title="TAPSVeto_Element_t">
<polygon fill="white" stroke="black" points="17.5,-74.5 17.5,-95.5 130.5,-95.5 130.5,-74.5 17.5,-74.5"/>
<text text-anchor="middle" x="74" y="-82.5" font-family="Helvetica,sans-Serif" font-size="10.00">TAPSVeto_Element_t</text>
</a>
</g>
<!-- Node3&#45;&gt;Node2 -->
<g id="edge2" class="edge"><title>Node3&#45;&gt;Node2</title>
<path fill="none" stroke="midnightblue" d="M74,-64.1655C74,-54.7973 74,-43.8796 74,-35.0139"/>
<polygon fill="midnightblue" stroke="midnightblue" points="70.5001,-64.2353 74,-74.2353 77.5001,-64.2353 70.5001,-64.2353"/>
</g>
<!-- Node4 -->
<g id="node4" class="node"><title>Node4</title>
<a xlink:href="structant_1_1vec3.html" target="_top" xlink:title="ant::vec3">
<polygon fill="white" stroke="black" points="1.5,-146.5 1.5,-167.5 58.5,-167.5 58.5,-146.5 1.5,-146.5"/>
<text text-anchor="middle" x="30" y="-154.5" font-family="Helvetica,sans-Serif" font-size="10.00">ant::vec3</text>
</a>
</g>
<!-- Node4&#45;&gt;Node3 -->
<g id="edge4" class="edge"><title>Node4&#45;&gt;Node3</title>
<path fill="none" stroke="#9a32cd" stroke-dasharray="5,2" d="M41.7273,-137.81C49.9769,-124.311 60.7115,-106.745 67.481,-95.6674"/>
<polygon fill="#9a32cd" stroke="#9a32cd" points="38.7204,-136.018 36.4924,-146.376 44.6934,-139.668 38.7204,-136.018"/>
<text text-anchor="middle" x="74.5" y="-118.5" font-family="Helvetica,sans-Serif" font-size="10.00"> Position</text>
</g>
<!-- Node5 -->
<g id="node6" class="node"><title>Node5</title>
<a xlink:href="classant_1_1bitflag.html" target="_top" xlink:title="ant::bitflag\&lt; ElementFlag_t \&gt;">
<polygon fill="white" stroke="black" points="75.5,-146.5 75.5,-167.5 218.5,-167.5 218.5,-146.5 75.5,-146.5"/>
<text text-anchor="middle" x="147" y="-154.5" font-family="Helvetica,sans-Serif" font-size="10.00">ant::bitflag&lt; ElementFlag_t &gt;</text>
</a>
</g>
<!-- Node5&#45;&gt;Node3 -->
<g id="edge6" class="edge"><title>Node5&#45;&gt;Node3</title>
<path fill="none" stroke="#9a32cd" stroke-dasharray="5,2" d="M129.104,-139.349C115.236,-125.671 96.4789,-107.171 84.8156,-95.6674"/>
<polygon fill="#9a32cd" stroke="#9a32cd" points="126.651,-141.846 136.229,-146.376 131.567,-136.862 126.651,-141.846"/>
<text text-anchor="middle" x="131" y="-118.5" font-family="Helvetica,sans-Serif" font-size="10.00"> Flags</text>
</g>
<!-- Node6 -->
<g id="node8" class="node"><title>Node6</title>
<polygon fill="white" stroke="#bfbfbf" points="102.5,-218.5 102.5,-239.5 191.5,-239.5 191.5,-218.5 102.5,-218.5"/>
<text text-anchor="middle" x="147" y="-226.5" font-family="Helvetica,sans-Serif" font-size="10.00">std::bitset&lt; 32 &gt;</text>
</g>
<!-- Node6&#45;&gt;Node5 -->
<g id="edge8" class="edge"><title>Node6&#45;&gt;Node5</title>
<path fill="none" stroke="#9a32cd" stroke-dasharray="5,2" d="M147,-208.235C147,-194.969 147,-178.319 147,-167.667"/>
<polygon fill="#9a32cd" stroke="#9a32cd" points="143.5,-208.376 147,-218.376 150.5,-208.376 143.5,-208.376"/>
<text text-anchor="middle" x="156.5" y="-190.5" font-family="Helvetica,sans-Serif" font-size="10.00"> bits</text>
</g>
</g>
</svg>
