<?xml version="1.0" encoding="UTF-8" standalone="no"?>
<!DOCTYPE svg PUBLIC "-//W3C//DTD SVG 1.1//EN"
 "http://www.w3.org/Graphics/SVG/1.1/DTD/svg11.dtd">
<!-- Generated by graphviz version 2.26.3 (20100126.1600)
 -->
<!-- Title: ant::expconfig::detector::Tagger_2007 Pages: 1 -->
<svg width="266pt" height="232pt"
 viewBox="0.00 0.00 266.00 232.00" xmlns="http://www.w3.org/2000/svg" xmlns:xlink="http://www.w3.org/1999/xlink">
<g id="graph1" class="graph" transform="scale(1 1) rotate(0) translate(4 228)">
<title>ant::expconfig::detector::Tagger_2007</title>
<polygon fill="white" stroke="white" points="-4,5 -4,-228 263,-228 263,5 -4,5"/>
<!-- Node0 -->
<g id="node1" class="node"><title>Node0</title>
<polygon fill="#bfbfbf" stroke="black" points="65.5,-1 65.5,-35 184.5,-35 184.5,-1 65.5,-1"/>
<text text-anchor="start" x="73.5" y="-22" font-family="Helvetica,sans-Serif" font-size="10.00">ant::expconfig::detector</text>
<text text-anchor="middle" x="125" y="-9" font-family="Helvetica,sans-Serif" font-size="10.00">::Tagger_2007</text>
</g>
<!-- Node1 -->
<g id="node2" class="node"><title>Node1</title>
<a xlink:href="structant_1_1expconfig_1_1detector_1_1_tagger.html" target="_top" xlink:title="ant::expconfig::detector\l::Tagger">
<polygon fill="white" stroke="black" points="65.5,-73 65.5,-107 184.5,-107 184.5,-73 65.5,-73"/>
<text text-anchor="start" x="73.5" y="-94" font-family="Helvetica,sans-Serif" font-size="10.00">ant::expconfig::detector</text>
<text text-anchor="middle" x="125" y="-81" font-family="Helvetica,sans-Serif" font-size="10.00">::Tagger</text>
</a>
</g>
<!-- Node1&#45;&gt;Node0 -->
<g id="edge2" class="edge"><title>Node1&#45;&gt;Node0</title>
<path fill="none" stroke="midnightblue" d="M125,-62.7193C125,-53.572 125,-43.6255 125,-35.4407"/>
<polygon fill="midnightblue" stroke="midnightblue" points="121.5,-62.937 125,-72.937 128.5,-62.937 121.5,-62.937"/>
</g>
<!-- Node2 -->
<g id="node4" class="node"><title>Node2</title>
<a xlink:href="structant_1_1_tagger_detector__t.html" target="_top" xlink:title="ant::TaggerDetector_t">
<polygon fill="white" stroke="black" points="0,-144.5 0,-165.5 112,-165.5 112,-144.5 0,-144.5"/>
<text text-anchor="middle" x="56" y="-152.5" font-family="Helvetica,sans-Serif" font-size="10.00">ant::TaggerDetector_t</text>
</a>
</g>
<!-- Node2&#45;&gt;Node1 -->
<g id="edge4" class="edge"><title>Node2&#45;&gt;Node1</title>
<path fill="none" stroke="midnightblue" d="M74.8245,-137.267C84.7903,-127.879 96.9723,-116.403 106.837,-107.11"/>
<polygon fill="midnightblue" stroke="midnightblue" points="72.2729,-134.862 67.3939,-144.267 77.0728,-139.957 72.2729,-134.862"/>
</g>
<!-- Node3 -->
<g id="node6" class="node"><title>Node3</title>
<a xlink:href="structant_1_1_detector__t.html" target="_top" xlink:title="The Detector_t struct is the minimal base class for all detectors. ">
<polygon fill="white" stroke="black" points="15,-202.5 15,-223.5 97,-223.5 97,-202.5 15,-202.5"/>
<text text-anchor="middle" x="56" y="-210.5" font-family="Helvetica,sans-Serif" font-size="10.00">ant::Detector_t</text>
</a>
</g>
<!-- Node3&#45;&gt;Node2 -->
<g id="edge6" class="edge"><title>Node3&#45;&gt;Node2</title>
<path fill="none" stroke="midnightblue" d="M56,-192.191C56,-183.168 56,-172.994 56,-165.571"/>
<polygon fill="midnightblue" stroke="midnightblue" points="52.5001,-192.362 56,-202.362 59.5001,-192.362 52.5001,-192.362"/>
</g>
<!-- Node4 -->
<g id="node8" class="node"><title>Node4</title>
<a xlink:href="classant_1_1_unpacker_acqu_config.html" target="_top" xlink:title="ant::UnpackerAcquConfig">
<polygon fill="white" stroke="black" points="129.5,-144.5 129.5,-165.5 258.5,-165.5 258.5,-144.5 129.5,-144.5"/>
<text text-anchor="middle" x="194" y="-152.5" font-family="Helvetica,sans-Serif" font-size="10.00">ant::UnpackerAcquConfig</text>
</a>
</g>
<!-- Node4&#45;&gt;Node1 -->
<g id="edge8" class="edge"><title>Node4&#45;&gt;Node1</title>
<path fill="none" stroke="midnightblue" d="M175.175,-137.267C165.21,-127.879 153.028,-116.403 143.163,-107.11"/>
<polygon fill="midnightblue" stroke="midnightblue" points="172.927,-139.957 182.606,-144.267 177.727,-134.862 172.927,-139.957"/>
</g>
</g>
</svg>
