<?xml version="1.0" encoding="UTF-8" standalone="no"?>
<!DOCTYPE svg PUBLIC "-//W3C//DTD SVG 1.1//EN"
 "http://www.w3.org/Graphics/SVG/1.1/DTD/svg11.dtd">
<!-- Generated by graphviz version 2.26.3 (20100126.1600)
 -->
<!-- Title: EtapOmegaG_plot_Ref Pages: 1 -->
<svg width="126pt" height="146pt"
 viewBox="0.00 0.00 126.00 146.00" xmlns="http://www.w3.org/2000/svg" xmlns:xlink="http://www.w3.org/1999/xlink">
<g id="graph1" class="graph" transform="scale(1 1) rotate(0) translate(4 142)">
<title>EtapOmegaG_plot_Ref</title>
<polygon fill="white" stroke="white" points="-4,5 -4,-142 123,-142 123,5 -4,5"/>
<!-- Node0 -->
<g id="node1" class="node"><title>Node0</title>
<polygon fill="#bfbfbf" stroke="black" points="0,-0.5 0,-21.5 118,-21.5 118,-0.5 0,-0.5"/>
<text text-anchor="middle" x="59" y="-8.5" font-family="Helvetica,sans-Serif" font-size="10.00">EtapOmegaG_plot_Ref</text>
</g>
<!-- Node1 -->
<g id="node2" class="node"><title>Node1</title>
<a xlink:href="struct_etap_omega_g__plot.html" target="_top" xlink:title="EtapOmegaG_plot">
<polygon fill="white" stroke="black" points="10.5,-58.5 10.5,-79.5 107.5,-79.5 107.5,-58.5 10.5,-58.5"/>
<text text-anchor="middle" x="59" y="-66.5" font-family="Helvetica,sans-Serif" font-size="10.00">EtapOmegaG_plot</text>
</a>
</g>
<!-- Node1&#45;&gt;Node0 -->
<g id="edge2" class="edge"><title>Node1&#45;&gt;Node0</title>
<path fill="none" stroke="midnightblue" d="M59,-48.1906C59,-39.1684 59,-28.9941 59,-21.5707"/>
<polygon fill="midnightblue" stroke="midnightblue" points="55.5001,-48.3619 59,-58.3619 62.5001,-48.3619 55.5001,-48.3619"/>
</g>
<!-- Node2 -->
<g id="node4" class="node"><title>Node2</title>
<a xlink:href="classant_1_1analysis_1_1_plotter.html" target="_top" xlink:title="ant::analysis::Plotter">
<polygon fill="white" stroke="black" points="5.5,-116.5 5.5,-137.5 112.5,-137.5 112.5,-116.5 5.5,-116.5"/>
<text text-anchor="middle" x="59" y="-124.5" font-family="Helvetica,sans-Serif" font-size="10.00">ant::analysis::Plotter</text>
</a>
</g>
<!-- Node2&#45;&gt;Node1 -->
<g id="edge4" class="edge"><title>Node2&#45;&gt;Node1</title>
<path fill="none" stroke="midnightblue" d="M59,-106.191C59,-97.1684 59,-86.9941 59,-79.5707"/>
<polygon fill="midnightblue" stroke="midnightblue" points="55.5001,-106.362 59,-116.362 62.5001,-106.362 55.5001,-106.362"/>
</g>
</g>
</svg>
