<?xml version="1.0" encoding="UTF-8" standalone="no"?>
<!DOCTYPE svg PUBLIC "-//W3C//DTD SVG 1.1//EN"
 "http://www.w3.org/Graphics/SVG/1.1/DTD/svg11.dtd">
<!-- Generated by graphviz version 2.26.3 (20100126.1600)
 -->
<!-- Title: ant::analysis::physics::MesonDalitzDecays::ReactionChannelList_t Pages: 1 -->
<svg width="948pt" height="56pt"
 viewBox="0.00 0.00 948.00 56.00" xmlns="http://www.w3.org/2000/svg" xmlns:xlink="http://www.w3.org/1999/xlink">
<g id="graph1" class="graph" transform="scale(1 1) rotate(0) translate(4 52)">
<title>ant::analysis::physics::MesonDalitzDecays::ReactionChannelList_t</title>
<polygon fill="white" stroke="white" points="-4,5 -4,-52 945,-52 945,5 -4,5"/>
<!-- Node1 -->
<g id="node1" class="node"><title>Node1</title>
<polygon fill="#bfbfbf" stroke="black" points="784,-0.5 784,-47.5 940,-47.5 940,-0.5 784,-0.5"/>
<text text-anchor="start" x="792" y="-34.5" font-family="Helvetica,sans-Serif" font-size="10.00">ant::analysis::physics</text>
<text text-anchor="start" x="792" y="-21.5" font-family="Helvetica,sans-Serif" font-size="10.00">::MesonDalitzDecays::Reaction</text>
<text text-anchor="middle" x="862" y="-8.5" font-family="Helvetica,sans-Serif" font-size="10.00">ChannelList_t</text>
</g>
<!-- Node2 -->
<g id="node2" class="node"><title>Node2</title>
<polygon fill="white" stroke="#bfbfbf" points="494.5,-0.5 494.5,-47.5 703.5,-47.5 703.5,-0.5 494.5,-0.5"/>
<text text-anchor="start" x="502.5" y="-34.5" font-family="Helvetica,sans-Serif" font-size="10.00">std::map&lt; unsigned,</text>
<text text-anchor="start" x="502.5" y="-21.5" font-family="Helvetica,sans-Serif" font-size="10.00"> ant::analysis::physics</text>
<text text-anchor="middle" x="599" y="-8.5" font-family="Helvetica,sans-Serif" font-size="10.00">::MesonDalitzDecays::ReactionChannel_t &gt;</text>
</g>
<!-- Node2&#45;&gt;Node1 -->
<g id="edge2" class="edge"><title>Node2&#45;&gt;Node1</title>
<path fill="none" stroke="#9a32cd" stroke-dasharray="5,2" d="M713.755,-24C737.34,-24 761.656,-24 783.601,-24"/>
<polygon fill="#9a32cd" stroke="#9a32cd" points="713.7,-20.5001 703.7,-24 713.7,-27.5001 713.7,-20.5001"/>
<text text-anchor="middle" x="744" y="-28" font-family="Helvetica,sans-Serif" font-size="10.00"> channels</text>
</g>
<!-- Node3 -->
<g id="node4" class="node"><title>Node3</title>
<a xlink:href="structant_1_1analysis_1_1physics_1_1_meson_dalitz_decays_1_1_reaction_channel__t.html" target="_top" xlink:title="ant::analysis::physics\l::MesonDalitzDecays::Reaction\lChannel_t">
<polygon fill="white" stroke="black" points="258,-0.5 258,-47.5 414,-47.5 414,-0.5 258,-0.5"/>
<text text-anchor="start" x="266" y="-34.5" font-family="Helvetica,sans-Serif" font-size="10.00">ant::analysis::physics</text>
<text text-anchor="start" x="266" y="-21.5" font-family="Helvetica,sans-Serif" font-size="10.00">::MesonDalitzDecays::Reaction</text>
<text text-anchor="middle" x="336" y="-8.5" font-family="Helvetica,sans-Serif" font-size="10.00">Channel_t</text>
</a>
</g>
<!-- Node3&#45;&gt;Node2 -->
<g id="edge4" class="edge"><title>Node3&#45;&gt;Node2</title>
<path fill="none" stroke="#9a32cd" stroke-dasharray="5,2" d="M424.366,-24C446.812,-24 471.143,-24 494.315,-24"/>
<polygon fill="#9a32cd" stroke="#9a32cd" points="424.197,-20.5001 414.197,-24 424.197,-27.5001 424.197,-20.5001"/>
<text text-anchor="middle" x="454" y="-28" font-family="Helvetica,sans-Serif" font-size="10.00"> elements</text>
</g>
<!-- Node4 -->
<g id="node6" class="node"><title>Node4</title>
<a xlink:title="STL class. ">
<polygon fill="white" stroke="#bfbfbf" points="134,-13.5 134,-34.5 194,-34.5 194,-13.5 134,-13.5"/>
<text text-anchor="middle" x="164" y="-21.5" font-family="Helvetica,sans-Serif" font-size="10.00">std::string</text>
</a>
</g>
<!-- Node4&#45;&gt;Node3 -->
<g id="edge6" class="edge"><title>Node4&#45;&gt;Node3</title>
<path fill="none" stroke="#9a32cd" stroke-dasharray="5,2" d="M204.42,-24C220.444,-24 239.436,-24 257.934,-24"/>
<polygon fill="#9a32cd" stroke="#9a32cd" points="204.354,-20.5001 194.354,-24 204.354,-27.5001 204.354,-20.5001"/>
<text text-anchor="middle" x="226" y="-28" font-family="Helvetica,sans-Serif" font-size="10.00"> name</text>
</g>
<!-- Node5 -->
<g id="node8" class="node"><title>Node5</title>
<a xlink:title="STL class. ">
<polygon fill="white" stroke="#bfbfbf" points="0.5,-7 0.5,-41 95.5,-41 95.5,-7 0.5,-7"/>
<text text-anchor="start" x="8.5" y="-28" font-family="Helvetica,sans-Serif" font-size="10.00">std::basic_string&lt;</text>
<text text-anchor="middle" x="48" y="-15" font-family="Helvetica,sans-Serif" font-size="10.00"> char &gt;</text>
</a>
</g>
<!-- Node5&#45;&gt;Node4 -->
<g id="edge8" class="edge"><title>Node5&#45;&gt;Node4</title>
<path fill="none" stroke="midnightblue" d="M105.582,-24C115.29,-24 125.014,-24 133.666,-24"/>
<polygon fill="midnightblue" stroke="midnightblue" points="105.516,-20.5001 95.5163,-24 105.516,-27.5001 105.516,-20.5001"/>
</g>
</g>
</svg>
