<?xml version="1.0" encoding="UTF-8" standalone="no"?>
<!DOCTYPE svg PUBLIC "-//W3C//DTD SVG 1.1//EN"
 "http://www.w3.org/Graphics/SVG/1.1/DTD/svg11.dtd">
<!-- Generated by graphviz version 2.26.3 (20100126.1600)
 -->
<!-- Title: ant::calibration::TAPS_Energy::GUI_Gains Pages: 1 -->
<svg width="1572pt" height="350pt"
 viewBox="0.00 0.00 1572.00 350.00" xmlns="http://www.w3.org/2000/svg" xmlns:xlink="http://www.w3.org/1999/xlink">
<g id="graph1" class="graph" transform="scale(1 1) rotate(0) translate(4 346)">
<title>ant::calibration::TAPS_Energy::GUI_Gains</title>
<polygon fill="white" stroke="white" points="-4,5 -4,-346 1569,-346 1569,5 -4,5"/>
<!-- Node3 -->
<g id="node1" class="node"><title>Node3</title>
<polygon fill="#bfbfbf" stroke="black" points="1450.5,-261 1450.5,-295 1563.5,-295 1563.5,-261 1450.5,-261"/>
<text text-anchor="start" x="1458.5" y="-282" font-family="Helvetica,sans-Serif" font-size="10.00">ant::calibration::TAPS</text>
<text text-anchor="middle" x="1507" y="-269" font-family="Helvetica,sans-Serif" font-size="10.00">_Energy::GUI_Gains</text>
</g>
<!-- Node4 -->
<g id="node2" class="node"><title>Node4</title>
<a xlink:href="structant_1_1calibration_1_1_g_u_i___calib_type.html" target="_top" xlink:title="The GUI_CalibType struct is an abstract base class for handling the data storage for a provided Calib...">
<polygon fill="white" stroke="black" points="594,-237 594,-271 698,-271 698,-237 594,-237"/>
<text text-anchor="start" x="602" y="-258" font-family="Helvetica,sans-Serif" font-size="10.00">ant::calibration::GUI</text>
<text text-anchor="middle" x="646" y="-245" font-family="Helvetica,sans-Serif" font-size="10.00">_CalibType</text>
</a>
</g>
<!-- Node4&#45;&gt;Node3 -->
<g id="edge2" class="edge"><title>Node4&#45;&gt;Node3</title>
<path fill="none" stroke="midnightblue" d="M677.48,-277.176C716.08,-303.248 784.475,-342 850,-342 850,-342 850,-342 1289,-342 1355.66,-342 1429.31,-314.108 1471.68,-295.151"/>
<polygon fill="midnightblue" stroke="midnightblue" points="679.006,-273.976 668.787,-271.176 675.029,-279.737 679.006,-273.976"/>
</g>
<!-- Node5 -->
<g id="node4" class="node"><title>Node5</title>
<a xlink:href="classant_1_1calibration_1_1gui_1_1_calib_module__traits.html" target="_top" xlink:title="ant::calibration::gui\l::CalibModule_traits">
<polygon fill="white" stroke="black" points="366,-289 366,-323 470,-323 470,-289 366,-289"/>
<text text-anchor="start" x="374" y="-310" font-family="Helvetica,sans-Serif" font-size="10.00">ant::calibration::gui</text>
<text text-anchor="middle" x="418" y="-297" font-family="Helvetica,sans-Serif" font-size="10.00">::CalibModule_traits</text>
</a>
</g>
<!-- Node5&#45;&gt;Node4 -->
<g id="edge4" class="edge"><title>Node5&#45;&gt;Node4</title>
<path fill="none" stroke="midnightblue" d="M479.84,-291.896C515.521,-283.758 559.894,-273.638 593.807,-265.904"/>
<polygon fill="midnightblue" stroke="midnightblue" points="478.993,-288.499 470.022,-294.135 480.55,-295.324 478.993,-288.499"/>
</g>
<!-- Node6 -->
<g id="node6" class="node"><title>Node6</title>
<a xlink:href="structant_1_1calibration_1_1_calib_type.html" target="_top" xlink:title="The CalibType struct stores the data for the Updateable interface and for the GUI. ">
<polygon fill="white" stroke="black" points="352.5,-148.5 352.5,-169.5 483.5,-169.5 483.5,-148.5 352.5,-148.5"/>
<text text-anchor="middle" x="418" y="-156.5" font-family="Helvetica,sans-Serif" font-size="10.00">ant::calibration::CalibType</text>
</a>
</g>
<!-- Node6&#45;&gt;Node4 -->
<g id="edge6" class="edge"><title>Node6&#45;&gt;Node4</title>
<path fill="none" stroke="#9a32cd" stroke-dasharray="5,2" d="M493.618,-154.812C518.217,-157.016 544.243,-163.564 564,-179 580.974,-192.262 567.215,-208.334 582,-224 586.717,-228.998 592.432,-233.244 598.484,-236.83"/>
<polygon fill="#9a32cd" stroke="#9a32cd" points="493.763,-151.314 483.551,-154.137 493.294,-158.298 493.763,-151.314"/>
<text text-anchor="middle" x="533" y="-183" font-family="Helvetica,sans-Serif" font-size="10.00"> calibType</text>
</g>
<!-- Node7 -->
<g id="node8" class="node"><title>Node7</title>
<a xlink:title="STL class. ">
<polygon fill="white" stroke="#bfbfbf" points="159,-70.5 159,-91.5 219,-91.5 219,-70.5 159,-70.5"/>
<text text-anchor="middle" x="189" y="-78.5" font-family="Helvetica,sans-Serif" font-size="10.00">std::string</text>
</a>
</g>
<!-- Node7&#45;&gt;Node6 -->
<g id="edge8" class="edge"><title>Node7&#45;&gt;Node6</title>
<path fill="none" stroke="#9a32cd" stroke-dasharray="5,2" d="M229.137,-94.6712C274.167,-110.009 346.239,-134.558 387.098,-148.475"/>
<polygon fill="#9a32cd" stroke="#9a32cd" points="230.004,-91.269 219.409,-91.3578 227.747,-97.8952 230.004,-91.269"/>
<text text-anchor="middle" x="298" y="-147" font-family="Helvetica,sans-Serif" font-size="10.00"> Name</text>
<text text-anchor="middle" x="298" y="-134" font-family="Helvetica,sans-Serif" font-size="10.00">HistogramName</text>
</g>
<!-- Node24 -->
<g id="node45" class="node"><title>Node24</title>
<a xlink:href="classant_1_1calibration_1_1gui_1_1_fit_function.html" target="_top" xlink:title="ant::calibration::gui\l::FitFunction">
<polygon fill="white" stroke="black" points="1012.5,-6 1012.5,-40 1111.5,-40 1111.5,-6 1012.5,-6"/>
<text text-anchor="start" x="1020.5" y="-27" font-family="Helvetica,sans-Serif" font-size="10.00">ant::calibration::gui</text>
<text text-anchor="middle" x="1062" y="-14" font-family="Helvetica,sans-Serif" font-size="10.00">::FitFunction</text>
</a>
</g>
<!-- Node7&#45;&gt;Node24 -->
<g id="edge60" class="edge"><title>Node7&#45;&gt;Node24</title>
<path fill="none" stroke="#9a32cd" stroke-dasharray="5,2" d="M229.103,-81C274.82,-81 351.793,-81 418,-81 418,-81 418,-81 850,-81 881.385,-81 959.972,-57.0514 1012.14,-39.9319"/>
<polygon fill="#9a32cd" stroke="#9a32cd" points="229.008,-77.5001 219.008,-81 229.008,-84.5001 229.008,-77.5001"/>
<text text-anchor="middle" x="646" y="-85" font-family="Helvetica,sans-Serif" font-size="10.00"> AdditionalFitArgs</text>
</g>
<!-- Node27 -->
<g id="node51" class="node"><title>Node27</title>
<a xlink:href="classant_1_1calibration_1_1gui_1_1_indicator_knob.html" target="_top" xlink:title="ant::calibration::gui\l::IndicatorKnob">
<polygon fill="white" stroke="black" points="368.5,-6 368.5,-40 467.5,-40 467.5,-6 368.5,-6"/>
<text text-anchor="start" x="376.5" y="-27" font-family="Helvetica,sans-Serif" font-size="10.00">ant::calibration::gui</text>
<text text-anchor="middle" x="418" y="-14" font-family="Helvetica,sans-Serif" font-size="10.00">::IndicatorKnob</text>
</a>
</g>
<!-- Node7&#45;&gt;Node27 -->
<g id="edge56" class="edge"><title>Node7&#45;&gt;Node27</title>
<path fill="none" stroke="#9a32cd" stroke-dasharray="5,2" d="M223.949,-66.7962C235.885,-62.2887 249.402,-57.5573 262,-54 297.077,-44.095 337.457,-36.1626 368.345,-30.802"/>
<polygon fill="#9a32cd" stroke="#9a32cd" points="222.419,-63.6348 214.349,-70.4992 224.938,-70.1658 222.419,-63.6348"/>
<text text-anchor="middle" x="298" y="-58" font-family="Helvetica,sans-Serif" font-size="10.00"> name</text>
</g>
<!-- Node8 -->
<g id="node10" class="node"><title>Node8</title>
<a xlink:title="STL class. ">
<polygon fill="white" stroke="#bfbfbf" points="0.5,-64 0.5,-98 95.5,-98 95.5,-64 0.5,-64"/>
<text text-anchor="start" x="8.5" y="-85" font-family="Helvetica,sans-Serif" font-size="10.00">std::basic_string&lt;</text>
<text text-anchor="middle" x="48" y="-72" font-family="Helvetica,sans-Serif" font-size="10.00"> char &gt;</text>
</a>
</g>
<!-- Node8&#45;&gt;Node7 -->
<g id="edge10" class="edge"><title>Node8&#45;&gt;Node7</title>
<path fill="none" stroke="midnightblue" d="M105.989,-81C124.191,-81 143.543,-81 158.979,-81"/>
<polygon fill="midnightblue" stroke="midnightblue" points="105.736,-77.5001 95.7362,-81 105.736,-84.5001 105.736,-77.5001"/>
</g>
<!-- Node9 -->
<g id="node12" class="node"><title>Node9</title>
<polygon fill="white" stroke="#bfbfbf" points="134,-195.5 134,-216.5 244,-216.5 244,-195.5 134,-195.5"/>
<text text-anchor="middle" x="189" y="-203.5" font-family="Helvetica,sans-Serif" font-size="10.00">std::vector&lt; double &gt;</text>
</g>
<!-- Node9&#45;&gt;Node4 -->
<g id="edge18" class="edge"><title>Node9&#45;&gt;Node4</title>
<path fill="none" stroke="#9a32cd" stroke-dasharray="5,2" d="M254.278,-204.159C314.265,-203.373 405.509,-204.469 484,-215 521.273,-220.001 562.466,-229.98 593.986,-238.591"/>
<polygon fill="#9a32cd" stroke="#9a32cd" points="254.135,-200.661 244.19,-204.313 254.242,-207.66 254.135,-200.661"/>
<text text-anchor="middle" x="418" y="-219" font-family="Helvetica,sans-Serif" font-size="10.00"> previousValues</text>
</g>
<!-- Node9&#45;&gt;Node6 -->
<g id="edge12" class="edge"><title>Node9&#45;&gt;Node6</title>
<path fill="none" stroke="#9a32cd" stroke-dasharray="5,2" d="M222.59,-191.762C234.809,-187.069 248.85,-182.23 262,-179 291.301,-171.802 324.372,-167.092 352.499,-164.063"/>
<polygon fill="#9a32cd" stroke="#9a32cd" points="221.246,-188.529 213.232,-195.46 223.819,-195.039 221.246,-188.529"/>
<text text-anchor="middle" x="298" y="-183" font-family="Helvetica,sans-Serif" font-size="10.00"> Values</text>
</g>
<!-- Node10 -->
<g id="node14" class="node"><title>Node10</title>
<polygon fill="white" stroke="#bfbfbf" points="357,-237 357,-271 479,-271 479,-237 357,-237"/>
<text text-anchor="start" x="365" y="-258" font-family="Helvetica,sans-Serif" font-size="10.00">std::map&lt; unsigned,</text>
<text text-anchor="middle" x="418" y="-245" font-family="Helvetica,sans-Serif" font-size="10.00"> std::vector&lt; double &gt; &gt;</text>
</g>
<!-- Node9&#45;&gt;Node10 -->
<g id="edge16" class="edge"><title>Node9&#45;&gt;Node10</title>
<path fill="none" stroke="#9a32cd" stroke-dasharray="5,2" d="M249.282,-218.636C282.464,-225.591 323.545,-234.202 356.861,-241.185"/>
<polygon fill="#9a32cd" stroke="#9a32cd" points="249.76,-215.16 239.255,-216.534 248.324,-222.011 249.76,-215.16"/>
<text text-anchor="middle" x="298" y="-239" font-family="Helvetica,sans-Serif" font-size="10.00"> elements</text>
</g>
<!-- Node10&#45;&gt;Node4 -->
<g id="edge14" class="edge"><title>Node10&#45;&gt;Node4</title>
<path fill="none" stroke="#9a32cd" stroke-dasharray="5,2" d="M489.373,-254C523.128,-254 562.709,-254 593.636,-254"/>
<polygon fill="#9a32cd" stroke="#9a32cd" points="489.1,-250.5 479.1,-254 489.1,-257.5 489.1,-250.5"/>
<text text-anchor="middle" x="533" y="-258" font-family="Helvetica,sans-Serif" font-size="10.00"> fitParameters</text>
</g>
<!-- Node11 -->
<g id="node18" class="node"><title>Node11</title>
<a xlink:href="classant_1_1interval.html" target="_top" xlink:title="ant::interval\&lt; double \&gt;">
<polygon fill="white" stroke="black" points="1232,-292.5 1232,-313.5 1346,-313.5 1346,-292.5 1232,-292.5"/>
<text text-anchor="middle" x="1289" y="-300.5" font-family="Helvetica,sans-Serif" font-size="10.00">ant::interval&lt; double &gt;</text>
</a>
</g>
<!-- Node11&#45;&gt;Node3 -->
<g id="edge20" class="edge"><title>Node11&#45;&gt;Node3</title>
<path fill="none" stroke="#9a32cd" stroke-dasharray="5,2" d="M1356.3,-295.282C1386.49,-291.82 1421.69,-287.783 1450.48,-284.481"/>
<polygon fill="#9a32cd" stroke="#9a32cd" points="1355.81,-291.815 1346.28,-296.432 1356.61,-298.769 1355.81,-291.815"/>
<text text-anchor="middle" x="1398" y="-298" font-family="Helvetica,sans-Serif" font-size="10.00"> FitRange</text>
</g>
<!-- Node12 -->
<g id="node20" class="node"><title>Node12</title>
<a xlink:href="classant_1_1_t_h2_t_a_p_s.html" target="_top" xlink:title="ant::TH2TAPS">
<polygon fill="white" stroke="black" points="1248.5,-248.5 1248.5,-269.5 1329.5,-269.5 1329.5,-248.5 1248.5,-248.5"/>
<text text-anchor="middle" x="1289" y="-256.5" font-family="Helvetica,sans-Serif" font-size="10.00">ant::TH2TAPS</text>
</a>
</g>
<!-- Node12&#45;&gt;Node3 -->
<g id="edge22" class="edge"><title>Node12&#45;&gt;Node3</title>
<path fill="none" stroke="#9a32cd" stroke-dasharray="5,2" d="M1339.76,-253.25C1367.21,-251.227 1401.62,-250.446 1432,-255 1440.89,-256.332 1450.18,-258.507 1459.07,-261"/>
<polygon fill="#9a32cd" stroke="#9a32cd" points="1339.29,-249.777 1329.6,-254.078 1339.85,-256.754 1339.29,-249.777"/>
<text text-anchor="middle" x="1398" y="-272" font-family="Helvetica,sans-Serif" font-size="10.00"> h_peaks_taps</text>
<text text-anchor="middle" x="1398" y="-259" font-family="Helvetica,sans-Serif" font-size="10.00">h_relative_taps</text>
</g>
<!-- Node13 -->
<g id="node22" class="node"><title>Node13</title>
<a xlink:href="classant_1_1_t_h2_crystals.html" target="_top" xlink:title="Base class for A2 Calorimeter display classes. ">
<polygon fill="white" stroke="black" points="1016,-292.5 1016,-313.5 1108,-313.5 1108,-292.5 1016,-292.5"/>
<text text-anchor="middle" x="1062" y="-300.5" font-family="Helvetica,sans-Serif" font-size="10.00">ant::TH2Crystals</text>
</a>
</g>
<!-- Node13&#45;&gt;Node12 -->
<g id="edge24" class="edge"><title>Node13&#45;&gt;Node12</title>
<path fill="none" stroke="midnightblue" d="M1117.92,-294.342C1146.72,-289.655 1182.33,-283.502 1214,-277 1225.15,-274.711 1237.16,-271.958 1248.24,-269.301"/>
<polygon fill="midnightblue" stroke="midnightblue" points="1117.36,-290.888 1108.04,-295.937 1118.47,-297.798 1117.36,-290.888"/>
</g>
<!-- Node14 -->
<g id="node24" class="node"><title>Node14</title>
<polygon fill="white" stroke="#bfbfbf" points="822.5,-292.5 822.5,-313.5 877.5,-313.5 877.5,-292.5 822.5,-292.5"/>
<text text-anchor="middle" x="850" y="-300.5" font-family="Helvetica,sans-Serif" font-size="10.00">TH2Poly</text>
</g>
<!-- Node14&#45;&gt;Node13 -->
<g id="edge26" class="edge"><title>Node14&#45;&gt;Node13</title>
<path fill="none" stroke="midnightblue" d="M887.745,-303C923.503,-303 977.29,-303 1015.64,-303"/>
<polygon fill="midnightblue" stroke="midnightblue" points="887.715,-299.5 877.715,-303 887.715,-306.5 887.715,-299.5"/>
</g>
<!-- Node15 -->
<g id="node26" class="node"><title>Node15</title>
<a xlink:href="classant_1_1calibration_1_1gui_1_1_cal_canvas.html" target="_top" xlink:title="ant::calibration::gui\l::CalCanvas">
<polygon fill="white" stroke="black" points="1239.5,-162 1239.5,-196 1338.5,-196 1338.5,-162 1239.5,-162"/>
<text text-anchor="start" x="1247.5" y="-183" font-family="Helvetica,sans-Serif" font-size="10.00">ant::calibration::gui</text>
<text text-anchor="middle" x="1289" y="-170" font-family="Helvetica,sans-Serif" font-size="10.00">::CalCanvas</text>
</a>
</g>
<!-- Node15&#45;&gt;Node3 -->
<g id="edge28" class="edge"><title>Node15&#45;&gt;Node3</title>
<path fill="none" stroke="#9a32cd" stroke-dasharray="5,2" d="M1348.55,-199.428C1374.58,-208.988 1405.23,-221.104 1432,-234 1448.46,-241.927 1466.11,-252.19 1480.16,-260.81"/>
<polygon fill="#9a32cd" stroke="#9a32cd" points="1349.41,-196.017 1338.82,-195.893 1347.02,-202.596 1349.41,-196.017"/>
<text text-anchor="middle" x="1398" y="-238" font-family="Helvetica,sans-Serif" font-size="10.00"> canvas</text>
</g>
<!-- Node16 -->
<g id="node28" class="node"><title>Node16</title>
<polygon fill="white" stroke="#bfbfbf" points="1034,-252.5 1034,-273.5 1090,-273.5 1090,-252.5 1034,-252.5"/>
<text text-anchor="middle" x="1062" y="-260.5" font-family="Helvetica,sans-Serif" font-size="10.00">TCanvas</text>
</g>
<!-- Node16&#45;&gt;Node15 -->
<g id="edge30" class="edge"><title>Node16&#45;&gt;Node15</title>
<path fill="none" stroke="midnightblue" d="M1100.26,-261.971C1131.94,-259.904 1177.5,-254.074 1214,-238 1236.59,-228.052 1258.29,-209.697 1272.49,-196.092"/>
<polygon fill="midnightblue" stroke="midnightblue" points="1099.88,-258.487 1090.09,-262.536 1100.26,-265.476 1099.88,-258.487"/>
</g>
<!-- Node17 -->
<g id="node30" class="node"><title>Node17</title>
<a xlink:href="classant_1_1calibration_1_1gui_1_1update__notify__traits.html" target="_top" xlink:title="ant::calibration::gui\l::update_notify_traits">
<polygon fill="white" stroke="black" points="592,-181 592,-215 700,-215 700,-181 592,-181"/>
<text text-anchor="start" x="600" y="-202" font-family="Helvetica,sans-Serif" font-size="10.00">ant::calibration::gui</text>
<text text-anchor="middle" x="646" y="-189" font-family="Helvetica,sans-Serif" font-size="10.00">::update_notify_traits</text>
</a>
</g>
<!-- Node17&#45;&gt;Node15 -->
<g id="edge32" class="edge"><title>Node17&#45;&gt;Node15</title>
<path fill="none" stroke="midnightblue" d="M710.289,-202.096C716.275,-202.424 722.25,-202.732 728,-203 755.54,-204.284 762.434,-204.555 790,-205 942.869,-207.465 981.351,-213.56 1134,-205 1169.72,-202.997 1178.72,-201.964 1214,-196 1222.16,-194.62 1230.77,-192.912 1239.13,-191.115"/>
<polygon fill="midnightblue" stroke="midnightblue" points="710.423,-198.598 700.241,-201.527 710.028,-205.587 710.423,-198.598"/>
</g>
<!-- Node19 -->
<g id="node34" class="node"><title>Node19</title>
<a xlink:href="classant_1_1calibration_1_1gui_1_1_indicator.html" target="_top" xlink:title="ant::calibration::gui\l::Indicator">
<polygon fill="white" stroke="black" points="800.5,-162 800.5,-196 899.5,-196 899.5,-162 800.5,-162"/>
<text text-anchor="start" x="808.5" y="-183" font-family="Helvetica,sans-Serif" font-size="10.00">ant::calibration::gui</text>
<text text-anchor="middle" x="850" y="-170" font-family="Helvetica,sans-Serif" font-size="10.00">::Indicator</text>
</a>
</g>
<!-- Node17&#45;&gt;Node19 -->
<g id="edge38" class="edge"><title>Node17&#45;&gt;Node19</title>
<path fill="none" stroke="midnightblue" d="M710.192,-192.021C739.246,-189.315 773.067,-186.165 800.166,-183.641"/>
<polygon fill="midnightblue" stroke="midnightblue" points="709.765,-188.546 700.133,-192.958 710.414,-195.516 709.765,-188.546"/>
</g>
<!-- Node18 -->
<g id="node32" class="node"><title>Node18</title>
<polygon fill="white" stroke="#bfbfbf" points="1001,-162 1001,-196 1123,-196 1123,-162 1001,-162"/>
<text text-anchor="start" x="1009" y="-183" font-family="Helvetica,sans-Serif" font-size="10.00">std::list&lt; ant::calibration</text>
<text text-anchor="middle" x="1062" y="-170" font-family="Helvetica,sans-Serif" font-size="10.00">::gui::Indicator *&gt;</text>
</g>
<!-- Node18&#45;&gt;Node15 -->
<g id="edge34" class="edge"><title>Node18&#45;&gt;Node15</title>
<path fill="none" stroke="#9a32cd" stroke-dasharray="5,2" d="M1133.14,-179C1167.6,-179 1208.14,-179 1239.24,-179"/>
<polygon fill="#9a32cd" stroke="#9a32cd" points="1133.13,-175.5 1123.13,-179 1133.13,-182.5 1133.13,-175.5"/>
<text text-anchor="middle" x="1183" y="-183" font-family="Helvetica,sans-Serif" font-size="10.00"> indicators</text>
</g>
<!-- Node19&#45;&gt;Node18 -->
<g id="edge36" class="edge"><title>Node19&#45;&gt;Node18</title>
<path fill="none" stroke="#9a32cd" stroke-dasharray="5,2" d="M909.912,-179C938.348,-179 972.278,-179 1000.87,-179"/>
<polygon fill="#9a32cd" stroke="#9a32cd" points="909.705,-175.5 899.705,-179 909.705,-182.5 909.705,-175.5"/>
<text text-anchor="middle" x="950" y="-183" font-family="Helvetica,sans-Serif" font-size="10.00"> elements</text>
</g>
<!-- Node20 -->
<g id="node37" class="node"><title>Node20</title>
<polygon fill="white" stroke="#bfbfbf" points="1003,-110 1003,-144 1121,-144 1121,-110 1003,-110"/>
<text text-anchor="start" x="1011" y="-131" font-family="Helvetica,sans-Serif" font-size="10.00">std::stack&lt; FitFunction</text>
<text text-anchor="middle" x="1062" y="-118" font-family="Helvetica,sans-Serif" font-size="10.00">::SavedState_t &gt;</text>
</g>
<!-- Node20&#45;&gt;Node15 -->
<g id="edge40" class="edge"><title>Node20&#45;&gt;Node15</title>
<path fill="none" stroke="#9a32cd" stroke-dasharray="5,2" d="M1131.19,-142.85C1166.14,-150.856 1207.74,-160.386 1239.46,-167.651"/>
<polygon fill="#9a32cd" stroke="#9a32cd" points="1131.58,-139.348 1121.05,-140.527 1130.01,-146.171 1131.58,-139.348"/>
<text text-anchor="middle" x="1183" y="-165" font-family="Helvetica,sans-Serif" font-size="10.00"> UndoStack</text>
</g>
<!-- Node21 -->
<g id="node39" class="node"><title>Node21</title>
<a xlink:title="STL class. ">
<polygon fill="white" stroke="#bfbfbf" points="806.5,-116.5 806.5,-137.5 893.5,-137.5 893.5,-116.5 806.5,-116.5"/>
<text text-anchor="middle" x="850" y="-124.5" font-family="Helvetica,sans-Serif" font-size="10.00">std::vector&lt; T &gt;</text>
</a>
</g>
<!-- Node21&#45;&gt;Node20 -->
<g id="edge42" class="edge"><title>Node21&#45;&gt;Node20</title>
<path fill="none" stroke="#9a32cd" stroke-dasharray="5,2" d="M903.998,-127C934.145,-127 971.75,-127 1002.71,-127"/>
<polygon fill="#9a32cd" stroke="#9a32cd" points="903.67,-123.5 893.669,-127 903.669,-130.5 903.67,-123.5"/>
<text text-anchor="middle" x="950" y="-131" font-family="Helvetica,sans-Serif" font-size="10.00"> elements</text>
</g>
<!-- Node22 -->
<g id="node41" class="node"><title>Node22</title>
<polygon fill="white" stroke="#bfbfbf" points="631.5,-116.5 631.5,-137.5 660.5,-137.5 660.5,-116.5 631.5,-116.5"/>
<text text-anchor="middle" x="646" y="-124.5" font-family="Helvetica,sans-Serif" font-size="10.00">T</text>
</g>
<!-- Node22&#45;&gt;Node21 -->
<g id="edge44" class="edge"><title>Node22&#45;&gt;Node21</title>
<path fill="none" stroke="#9a32cd" stroke-dasharray="5,2" d="M670.987,-127C704.622,-127 764.996,-127 806.249,-127"/>
<polygon fill="#9a32cd" stroke="#9a32cd" points="670.671,-123.5 660.671,-127 670.671,-130.5 670.671,-123.5"/>
<text text-anchor="middle" x="750" y="-131" font-family="Helvetica,sans-Serif" font-size="10.00"> elements</text>
</g>
<!-- Node23 -->
<g id="node43" class="node"><title>Node23</title>
<a xlink:href="structant_1_1calibration_1_1gui_1_1_cal_canvas_1_1axis__settings__t.html" target="_top" xlink:title="ant::calibration::gui\l::CalCanvas::axis_settings_t">
<polygon fill="white" stroke="black" points="990.5,-58 990.5,-92 1133.5,-92 1133.5,-58 990.5,-58"/>
<text text-anchor="start" x="998.5" y="-79" font-family="Helvetica,sans-Serif" font-size="10.00">ant::calibration::gui</text>
<text text-anchor="middle" x="1062" y="-66" font-family="Helvetica,sans-Serif" font-size="10.00">::CalCanvas::axis_settings_t</text>
</a>
</g>
<!-- Node23&#45;&gt;Node15 -->
<g id="edge46" class="edge"><title>Node23&#45;&gt;Node15</title>
<path fill="none" stroke="#9a32cd" stroke-dasharray="5,2" d="M1119.27,-95.5447C1124.26,-97.375 1129.22,-99.2117 1134,-101 1169.71,-114.365 1179.91,-114.91 1214,-132 1231.45,-140.747 1250.04,-152.382 1264.35,-161.887"/>
<polygon fill="#9a32cd" stroke="#9a32cd" points="1120.29,-92.1904 1109.69,-92.0471 1117.89,-98.7656 1120.29,-92.1904"/>
<text text-anchor="middle" x="1183" y="-136" font-family="Helvetica,sans-Serif" font-size="10.00"> axis_settings</text>
</g>
<!-- Node24&#45;&gt;Node15 -->
<g id="edge48" class="edge"><title>Node24&#45;&gt;Node15</title>
<path fill="none" stroke="#9a32cd" stroke-dasharray="5,2" d="M1121.16,-41.4664C1151.01,-52.6778 1186.59,-69.0965 1214,-91 1240.03,-111.803 1263.84,-142.628 1277.36,-161.731"/>
<polygon fill="#9a32cd" stroke="#9a32cd" points="1122.28,-38.1503 1111.69,-38.0089 1119.88,-44.7259 1122.28,-38.1503"/>
<text text-anchor="middle" x="1183" y="-95" font-family="Helvetica,sans-Serif" font-size="10.00"> func</text>
</g>
<!-- Node25 -->
<g id="node47" class="node"><title>Node25</title>
<polygon fill="white" stroke="#bfbfbf" points="790,-6 790,-40 910,-40 910,-6 790,-6"/>
<text text-anchor="start" x="798" y="-27" font-family="Helvetica,sans-Serif" font-size="10.00">std::list&lt; std::unique</text>
<text text-anchor="middle" x="850" y="-14" font-family="Helvetica,sans-Serif" font-size="10.00">_ptr&lt; IndicatorKnob &gt; &gt;</text>
</g>
<!-- Node25&#45;&gt;Node24 -->
<g id="edge50" class="edge"><title>Node25&#45;&gt;Node24</title>
<path fill="none" stroke="#9a32cd" stroke-dasharray="5,2" d="M920.231,-23C950.404,-23 984.956,-23 1012.4,-23"/>
<polygon fill="#9a32cd" stroke="#9a32cd" points="920.184,-19.5001 910.184,-23 920.184,-26.5001 920.184,-19.5001"/>
<text text-anchor="middle" x="950" y="-27" font-family="Helvetica,sans-Serif" font-size="10.00"> knobs</text>
</g>
<!-- Node26 -->
<g id="node49" class="node"><title>Node26</title>
<polygon fill="white" stroke="#bfbfbf" points="582,-6 582,-40 710,-40 710,-6 582,-6"/>
<text text-anchor="start" x="590" y="-27" font-family="Helvetica,sans-Serif" font-size="10.00">std::unique_ptr&lt; Indicator</text>
<text text-anchor="middle" x="646" y="-14" font-family="Helvetica,sans-Serif" font-size="10.00">Knob &gt;</text>
</g>
<!-- Node26&#45;&gt;Node25 -->
<g id="edge52" class="edge"><title>Node26&#45;&gt;Node25</title>
<path fill="none" stroke="#9a32cd" stroke-dasharray="5,2" d="M720.278,-23C743.165,-23 768.066,-23 789.876,-23"/>
<polygon fill="#9a32cd" stroke="#9a32cd" points="720.267,-19.5001 710.267,-23 720.267,-26.5001 720.267,-19.5001"/>
<text text-anchor="middle" x="750" y="-27" font-family="Helvetica,sans-Serif" font-size="10.00"> elements</text>
</g>
<!-- Node27&#45;&gt;Node26 -->
<g id="edge54" class="edge"><title>Node27&#45;&gt;Node26</title>
<path fill="none" stroke="#9a32cd" stroke-dasharray="5,2" d="M477.837,-23C509.749,-23 549.036,-23 581.61,-23"/>
<polygon fill="#9a32cd" stroke="#9a32cd" points="477.754,-19.5001 467.754,-23 477.754,-26.5001 477.754,-19.5001"/>
<text text-anchor="middle" x="533" y="-27" font-family="Helvetica,sans-Serif" font-size="10.00"> ptr</text>
</g>
<!-- Node28 -->
<g id="node54" class="node"><title>Node28</title>
<a xlink:href="structant_1_1calibration_1_1gui_1_1_indicator_properties.html" target="_top" xlink:title="ant::calibration::gui\l::IndicatorProperties">
<polygon fill="white" stroke="black" points="137,-0 137,-34 241,-34 241,-0 137,-0"/>
<text text-anchor="start" x="145" y="-21" font-family="Helvetica,sans-Serif" font-size="10.00">ant::calibration::gui</text>
<text text-anchor="middle" x="189" y="-8" font-family="Helvetica,sans-Serif" font-size="10.00">::IndicatorProperties</text>
</a>
</g>
<!-- Node28&#45;&gt;Node27 -->
<g id="edge58" class="edge"><title>Node28&#45;&gt;Node27</title>
<path fill="none" stroke="#9a32cd" stroke-dasharray="5,2" d="M251.346,-16.7126C276.96,-16.7813 306.911,-17.101 334,-18 345.097,-18.3683 357.008,-18.9586 368.273,-19.6066"/>
<polygon fill="#9a32cd" stroke="#9a32cd" points="251.03,-13.2123 241.025,-16.6977 251.02,-20.2123 251.03,-13.2123"/>
<text text-anchor="middle" x="298" y="-22" font-family="Helvetica,sans-Serif" font-size="10.00"> gui</text>
</g>
</g>
</svg>
