<?xml version="1.0" encoding="UTF-8" standalone="no"?>
<!DOCTYPE svg PUBLIC "-//W3C//DTD SVG 1.1//EN"
 "http://www.w3.org/Graphics/SVG/1.1/DTD/svg11.dtd">
<!-- Generated by graphviz version 2.26.3 (20100126.1600)
 -->
<!-- Title: pair_t&lt; T &gt; Pages: 1 -->
<svg width="131pt" height="176pt"
 viewBox="0.00 0.00 131.00 176.00" xmlns="http://www.w3.org/2000/svg" xmlns:xlink="http://www.w3.org/1999/xlink">
<g id="graph1" class="graph" transform="scale(1 1) rotate(0) translate(4 172)">
<title>pair_t&lt; T &gt;</title>
<polygon fill="white" stroke="white" points="-4,5 -4,-172 128,-172 128,5 -4,5"/>
<!-- Node1 -->
<g id="node1" class="node"><title>Node1</title>
<polygon fill="#bfbfbf" stroke="black" points="49.5,-0.5 49.5,-21.5 114.5,-21.5 114.5,-0.5 49.5,-0.5"/>
<text text-anchor="middle" x="82" y="-8.5" font-family="Helvetica,sans-Serif" font-size="10.00">pair_t&lt; T &gt;</text>
</g>
<!-- Node2 -->
<g id="node2" class="node"><title>Node2</title>
<a xlink:title="STL class. ">
<polygon fill="white" stroke="#bfbfbf" points="17,-72.5 17,-93.5 77,-93.5 77,-72.5 17,-72.5"/>
<text text-anchor="middle" x="47" y="-80.5" font-family="Helvetica,sans-Serif" font-size="10.00">std::string</text>
</a>
</g>
<!-- Node2&#45;&gt;Node1 -->
<g id="edge2" class="edge"><title>Node2&#45;&gt;Node1</title>
<path fill="none" stroke="#9a32cd" stroke-dasharray="5,2" d="M50.9732,-62.4209C52.8392,-55.1035 55.4532,-46.9594 59,-40 62.3847,-33.3587 67.4245,-26.7817 71.9244,-21.5744"/>
<polygon fill="#9a32cd" stroke="#9a32cd" points="47.5273,-61.7924 48.7531,-72.316 54.3575,-63.3249 47.5273,-61.7924"/>
<text text-anchor="middle" x="74" y="-44.5" font-family="Helvetica,sans-Serif" font-size="10.00"> Name</text>
</g>
<!-- Node3 -->
<g id="node4" class="node"><title>Node3</title>
<a xlink:title="STL class. ">
<polygon fill="white" stroke="#bfbfbf" points="-0.5,-133 -0.5,-167 94.5,-167 94.5,-133 -0.5,-133"/>
<text text-anchor="start" x="7.5" y="-154" font-family="Helvetica,sans-Serif" font-size="10.00">std::basic_string&lt;</text>
<text text-anchor="middle" x="47" y="-141" font-family="Helvetica,sans-Serif" font-size="10.00"> char &gt;</text>
</a>
</g>
<!-- Node3&#45;&gt;Node2 -->
<g id="edge4" class="edge"><title>Node3&#45;&gt;Node2</title>
<path fill="none" stroke="midnightblue" d="M47,-122.534C47,-112.306 47,-101.301 47,-93.5056"/>
<polygon fill="midnightblue" stroke="midnightblue" points="43.5001,-122.746 47,-132.746 50.5001,-122.746 43.5001,-122.746"/>
</g>
<!-- Node4 -->
<g id="node6" class="node"><title>Node4</title>
<polygon fill="white" stroke="#bfbfbf" points="94.5,-72.5 94.5,-93.5 123.5,-93.5 123.5,-72.5 94.5,-72.5"/>
<text text-anchor="middle" x="109" y="-80.5" font-family="Helvetica,sans-Serif" font-size="10.00">T</text>
</g>
<!-- Node4&#45;&gt;Node1 -->
<g id="edge6" class="edge"><title>Node4&#45;&gt;Node1</title>
<path fill="none" stroke="#9a32cd" stroke-dasharray="5,2" d="M101.362,-62.6318C96.3635,-49.3026 90.0345,-32.4253 86.0003,-21.6674"/>
<polygon fill="#9a32cd" stroke="#9a32cd" points="98.2276,-64.2418 105.016,-72.3762 104.782,-61.7839 98.2276,-64.2418"/>
<text text-anchor="middle" x="108.5" y="-44.5" font-family="Helvetica,sans-Serif" font-size="10.00"> Item</text>
</g>
</g>
</svg>
