<?xml version="1.0" encoding="UTF-8" standalone="no"?>
<!DOCTYPE svg PUBLIC "-//W3C//DTD SVG 1.1//EN"
 "http://www.w3.org/Graphics/SVG/1.1/DTD/svg11.dtd">
<!-- Generated by graphviz version 2.26.3 (20100126.1600)
 -->
<!-- Title: ant::expconfig::detector::Trigger::ReferenceTimingHitMapping_t Pages: 1 -->
<svg width="198pt" height="116pt"
 viewBox="0.00 0.00 198.00 116.00" xmlns="http://www.w3.org/2000/svg" xmlns:xlink="http://www.w3.org/1999/xlink">
<g id="graph1" class="graph" transform="scale(1 1) rotate(0) translate(4 112)">
<title>ant::expconfig::detector::Trigger::ReferenceTimingHitMapping_t</title>
<polygon fill="white" stroke="white" points="-4,5 -4,-112 195,-112 195,5 -4,5"/>
<!-- Node1 -->
<g id="node1" class="node"><title>Node1</title>
<polygon fill="#bfbfbf" stroke="black" points="-0.5,-1 -0.5,-35 190.5,-35 190.5,-1 -0.5,-1"/>
<text text-anchor="start" x="7.5" y="-22" font-family="Helvetica,sans-Serif" font-size="10.00">ant::expconfig::detector</text>
<text text-anchor="middle" x="95" y="-9" font-family="Helvetica,sans-Serif" font-size="10.00">::Trigger::ReferenceTimingHitMapping_t</text>
</g>
<!-- Node2 -->
<g id="node2" class="node"><title>Node2</title>
<a xlink:href="structant_1_1_logical_channel__t.html" target="_top" xlink:title="The LogicalChannel_t struct uniquely identifies detector element within setup. ">
<polygon fill="white" stroke="black" points="39.5,-86.5 39.5,-107.5 150.5,-107.5 150.5,-86.5 39.5,-86.5"/>
<text text-anchor="middle" x="95" y="-94.5" font-family="Helvetica,sans-Serif" font-size="10.00">ant::LogicalChannel_t</text>
</a>
</g>
<!-- Node2&#45;&gt;Node1 -->
<g id="edge2" class="edge"><title>Node2&#45;&gt;Node1</title>
<path fill="none" stroke="#9a32cd" stroke-dasharray="5,2" d="M95,-76.1618C95,-63.3635 95,-47.1713 95,-35.1236"/>
<polygon fill="#9a32cd" stroke="#9a32cd" points="91.5001,-76.3457 95,-86.3457 98.5001,-76.3457 91.5001,-76.3457"/>
<text text-anchor="middle" x="130" y="-58.5" font-family="Helvetica,sans-Serif" font-size="10.00"> LogicalChannel</text>
</g>
</g>
</svg>
