<?xml version="1.0" encoding="UTF-8" standalone="no"?>
<!DOCTYPE svg PUBLIC "-//W3C//DTD SVG 1.1//EN"
 "http://www.w3.org/Graphics/SVG/1.1/DTD/svg11.dtd">
<!-- Generated by graphviz version 2.26.3 (20100126.1600)
 -->
<!-- Title: ant::padoption Pages: 1 -->
<svg width="162pt" height="133pt"
 viewBox="0.00 0.00 162.00 132.50" xmlns="http://www.w3.org/2000/svg" xmlns:xlink="http://www.w3.org/1999/xlink">
<g id="graph1" class="graph" transform="scale(1 1) rotate(0) translate(4 128.5)">
<title>ant::padoption</title>
<polygon fill="white" stroke="white" points="-4,5 -4,-128.5 159,-128.5 159,5 -4,5"/>
<!-- Node2 -->
<g id="node1" class="node"><title>Node2</title>
<polygon fill="#bfbfbf" stroke="black" points="0,-22 0,-43 78,-43 78,-22 0,-22"/>
<text text-anchor="middle" x="39" y="-30" font-family="Helvetica,sans-Serif" font-size="10.00">ant::padoption</text>
</g>
<!-- Node2&#45;&gt;Node2 -->
<g id="edge4" class="edge"><title>Node2&#45;&gt;Node2</title>
<path fill="none" stroke="#9a32cd" stroke-dasharray="5,2" d="M88.2752,-40.0725C93.0046,-38.5337 96,-36.0095 96,-32.5 96,-26.8848 88.3317,-23.792 78.1622,-23.2217"/>
<polygon fill="#9a32cd" stroke="#9a32cd" points="87.4408,-36.6638 78.1622,-41.7783 88.6051,-43.5663 87.4408,-36.6638"/>
<text text-anchor="middle" x="125" y="-56" font-family="Helvetica,sans-Serif" font-size="10.00"> MakeSquare</text>
<text text-anchor="middle" x="125" y="-43" font-family="Helvetica,sans-Serif" font-size="10.00">LogX</text>
<text text-anchor="middle" x="125" y="-30" font-family="Helvetica,sans-Serif" font-size="10.00">LogY</text>
<text text-anchor="middle" x="125" y="-17" font-family="Helvetica,sans-Serif" font-size="10.00">LogZ</text>
<text text-anchor="middle" x="125" y="-4" font-family="Helvetica,sans-Serif" font-size="10.00">Legend</text>
</g>
<!-- Node3 -->
<g id="node2" class="node"><title>Node3</title>
<polygon fill="white" stroke="#bfbfbf" points="1.5,-103 1.5,-124 76.5,-124 76.5,-103 1.5,-103"/>
<text text-anchor="middle" x="39" y="-111" font-family="Helvetica,sans-Serif" font-size="10.00">padmodifier_t</text>
</g>
<!-- Node3&#45;&gt;Node2 -->
<g id="edge2" class="edge"><title>Node3&#45;&gt;Node2</title>
<path fill="none" stroke="midnightblue" d="M39,-92.4962C39,-76.654 39,-55.5848 39,-43.0919"/>
<polygon fill="midnightblue" stroke="midnightblue" points="35.5001,-92.9106 39,-102.911 42.5001,-92.9107 35.5001,-92.9106"/>
</g>
</g>
</svg>
