<?xml version="1.0" encoding="UTF-8" standalone="no"?>
<!DOCTYPE svg PUBLIC "-//W3C//DTD SVG 1.1//EN"
 "http://www.w3.org/Graphics/SVG/1.1/DTD/svg11.dtd">
<!-- Generated by graphviz version 2.26.3 (20100126.1600)
 -->
<!-- Title: ant::hstack::hist_t Pages: 1 -->
<svg width="201pt" height="262pt"
 viewBox="0.00 0.00 201.00 262.00" xmlns="http://www.w3.org/2000/svg" xmlns:xlink="http://www.w3.org/1999/xlink">
<g id="graph1" class="graph" transform="scale(1 1) rotate(0) translate(4 258)">
<title>ant::hstack::hist_t</title>
<polygon fill="white" stroke="white" points="-4,5 -4,-258 198,-258 198,5 -4,5"/>
<!-- Node1 -->
<g id="node1" class="node"><title>Node1</title>
<polygon fill="#bfbfbf" stroke="black" points="16.5,-0.5 16.5,-21.5 111.5,-21.5 111.5,-0.5 16.5,-0.5"/>
<text text-anchor="middle" x="64" y="-8.5" font-family="Helvetica,sans-Serif" font-size="10.00">ant::hstack::hist_t</text>
</g>
<!-- Node2 -->
<g id="node2" class="node"><title>Node2</title>
<a xlink:href="structant_1_1analysis_1_1plot_1_1histstyle_1_1_mod_option__t.html" target="_top" xlink:title="ant::analysis::plot\l::histstyle::ModOption_t">
<polygon fill="white" stroke="black" points="72.5,-73 72.5,-107 193.5,-107 193.5,-73 72.5,-73"/>
<text text-anchor="start" x="80.5" y="-94" font-family="Helvetica,sans-Serif" font-size="10.00">ant::analysis::plot</text>
<text text-anchor="middle" x="133" y="-81" font-family="Helvetica,sans-Serif" font-size="10.00">::histstyle::ModOption_t</text>
</a>
</g>
<!-- Node2&#45;&gt;Node1 -->
<g id="edge2" class="edge"><title>Node2&#45;&gt;Node1</title>
<path fill="none" stroke="#9a32cd" stroke-dasharray="5,2" d="M111.247,-65.0943C98.4376,-50.4286 82.9003,-32.6395 73.2296,-21.5672"/>
<polygon fill="#9a32cd" stroke="#9a32cd" points="108.814,-67.6289 118.028,-72.8582 114.086,-63.0241 108.814,-67.6289"/>
<text text-anchor="middle" x="116" y="-44.5" font-family="Helvetica,sans-Serif" font-size="10.00"> Option</text>
</g>
<!-- Node3 -->
<g id="node4" class="node"><title>Node3</title>
<a xlink:title="STL class. ">
<polygon fill="white" stroke="#bfbfbf" points="17,-158.5 17,-179.5 77,-179.5 77,-158.5 17,-158.5"/>
<text text-anchor="middle" x="47" y="-166.5" font-family="Helvetica,sans-Serif" font-size="10.00">std::string</text>
</a>
</g>
<!-- Node3&#45;&gt;Node1 -->
<g id="edge8" class="edge"><title>Node3&#45;&gt;Node1</title>
<path fill="none" stroke="#9a32cd" stroke-dasharray="5,2" d="M42.4567,-148.404C38.8151,-128.646 35.0593,-98.0522 40,-72 43.4776,-53.6629 52.3491,-33.7858 58.2764,-21.8673"/>
<polygon fill="#9a32cd" stroke="#9a32cd" points="39.0672,-149.303 44.4664,-158.419 45.9304,-147.926 39.0672,-149.303"/>
<text text-anchor="middle" x="52" y="-87.5" font-family="Helvetica,sans-Serif" font-size="10.00"> Path</text>
</g>
<!-- Node3&#45;&gt;Node2 -->
<g id="edge4" class="edge"><title>Node3&#45;&gt;Node2</title>
<path fill="none" stroke="#9a32cd" stroke-dasharray="5,2" d="M65.9827,-151.562C80.3748,-138.342 100.052,-120.267 114.359,-107.124"/>
<polygon fill="#9a32cd" stroke="#9a32cd" points="63.595,-149.003 58.5983,-158.346 68.3306,-154.158 63.595,-149.003"/>
<text text-anchor="middle" x="119.5" y="-130.5" font-family="Helvetica,sans-Serif" font-size="10.00"> DrawOption</text>
</g>
<!-- Node4 -->
<g id="node6" class="node"><title>Node4</title>
<a xlink:title="STL class. ">
<polygon fill="white" stroke="#bfbfbf" points="-0.5,-219 -0.5,-253 94.5,-253 94.5,-219 -0.5,-219"/>
<text text-anchor="start" x="7.5" y="-240" font-family="Helvetica,sans-Serif" font-size="10.00">std::basic_string&lt;</text>
<text text-anchor="middle" x="47" y="-227" font-family="Helvetica,sans-Serif" font-size="10.00"> char &gt;</text>
</a>
</g>
<!-- Node4&#45;&gt;Node3 -->
<g id="edge6" class="edge"><title>Node4&#45;&gt;Node3</title>
<path fill="none" stroke="midnightblue" d="M47,-208.534C47,-198.306 47,-187.301 47,-179.506"/>
<polygon fill="midnightblue" stroke="midnightblue" points="43.5001,-208.746 47,-218.746 50.5001,-208.746 43.5001,-208.746"/>
</g>
</g>
</svg>
