<?xml version="1.0" encoding="UTF-8" standalone="no"?>
<!DOCTYPE svg PUBLIC "-//W3C//DTD SVG 1.1//EN"
 "http://www.w3.org/Graphics/SVG/1.1/DTD/svg11.dtd">
<!-- Generated by graphviz version 2.26.3 (20100126.1600)
 -->
<!-- Title: SigHist_t::Fill_t Pages: 1 -->
<svg width="232pt" height="160pt"
 viewBox="0.00 0.00 232.00 160.00" xmlns="http://www.w3.org/2000/svg" xmlns:xlink="http://www.w3.org/1999/xlink">
<g id="graph1" class="graph" transform="scale(1 1) rotate(0) translate(4 156)">
<title>SigHist_t::Fill_t</title>
<polygon fill="white" stroke="white" points="-4,5 -4,-156 229,-156 229,5 -4,5"/>
<!-- Node0 -->
<g id="node1" class="node"><title>Node0</title>
<polygon fill="#bfbfbf" stroke="black" points="72,-72.5 72,-93.5 156,-93.5 156,-72.5 72,-72.5"/>
<text text-anchor="middle" x="114" y="-80.5" font-family="Helvetica,sans-Serif" font-size="10.00">SigHist_t::Fill_t</text>
</g>
<!-- Node2 -->
<g id="node5" class="node"><title>Node2</title>
<a xlink:href="struct_sig_omega_pi0_hist__t_1_1_fill__t.html" target="_top" xlink:title="SigOmegaPi0Hist_t::\lFill_t">
<polygon fill="white" stroke="black" points="-0.5,-1 -0.5,-35 108.5,-35 108.5,-1 -0.5,-1"/>
<text text-anchor="start" x="7.5" y="-22" font-family="Helvetica,sans-Serif" font-size="10.00">SigOmegaPi0Hist_t::</text>
<text text-anchor="middle" x="54" y="-9" font-family="Helvetica,sans-Serif" font-size="10.00">Fill_t</text>
</a>
</g>
<!-- Node0&#45;&gt;Node2 -->
<g id="edge4" class="edge"><title>Node0&#45;&gt;Node2</title>
<path fill="none" stroke="midnightblue" d="M97.1138,-64.7066C88.5462,-55.4251 78.202,-44.2189 69.7937,-35.1099"/>
<polygon fill="midnightblue" stroke="midnightblue" points="94.7376,-67.2925 104.092,-72.2666 99.8812,-62.5445 94.7376,-67.2925"/>
</g>
<!-- Node3 -->
<g id="node7" class="node"><title>Node3</title>
<a xlink:href="struct_sig_pi0_hist__t_1_1_fill__t.html" target="_top" xlink:title="SigPi0Hist_t::Fill_t">
<polygon fill="white" stroke="black" points="126,-7.5 126,-28.5 224,-28.5 224,-7.5 126,-7.5"/>
<text text-anchor="middle" x="175" y="-15.5" font-family="Helvetica,sans-Serif" font-size="10.00">SigPi0Hist_t::Fill_t</text>
</a>
</g>
<!-- Node0&#45;&gt;Node3 -->
<g id="edge6" class="edge"><title>Node0&#45;&gt;Node3</title>
<path fill="none" stroke="midnightblue" d="M131.115,-64.7628C142.086,-53.0723 155.94,-38.3103 165.115,-28.5337"/>
<polygon fill="midnightblue" stroke="midnightblue" points="128.364,-62.5796 124.073,-72.2666 133.468,-67.3698 128.364,-62.5796"/>
</g>
<!-- Node1 -->
<g id="node2" class="node"><title>Node1</title>
<a xlink:href="struct_common_hist__t_1_1_fill__t.html" target="_top" xlink:title="CommonHist_t::Fill_t">
<polygon fill="white" stroke="black" points="59,-130.5 59,-151.5 169,-151.5 169,-130.5 59,-130.5"/>
<text text-anchor="middle" x="114" y="-138.5" font-family="Helvetica,sans-Serif" font-size="10.00">CommonHist_t::Fill_t</text>
</a>
</g>
<!-- Node1&#45;&gt;Node0 -->
<g id="edge2" class="edge"><title>Node1&#45;&gt;Node0</title>
<path fill="none" stroke="midnightblue" d="M114,-120.191C114,-111.168 114,-100.994 114,-93.5707"/>
<polygon fill="midnightblue" stroke="midnightblue" points="110.5,-120.362 114,-130.362 117.5,-120.362 110.5,-120.362"/>
</g>
</g>
</svg>
