<?xml version="1.0" encoding="UTF-8" standalone="no"?>
<!DOCTYPE svg PUBLIC "-//W3C//DTD SVG 1.1//EN"
 "http://www.w3.org/Graphics/SVG/1.1/DTD/svg11.dtd">
<!-- Generated by graphviz version 2.26.3 (20100126.1600)
 -->
<!-- Title: ant::TClusterHit Pages: 1 -->
<svg width="136pt" height="274pt"
 viewBox="0.00 0.00 136.00 274.00" xmlns="http://www.w3.org/2000/svg" xmlns:xlink="http://www.w3.org/1999/xlink">
<g id="graph1" class="graph" transform="scale(1 1) rotate(0) translate(4 270)">
<title>ant::TClusterHit</title>
<polygon fill="white" stroke="white" points="-4,5 -4,-270 133,-270 133,5 -4,5"/>
<!-- Node1 -->
<g id="node1" class="node"><title>Node1</title>
<polygon fill="#bfbfbf" stroke="black" points="21,-0.5 21,-21.5 107,-21.5 107,-0.5 21,-0.5"/>
<text text-anchor="middle" x="64" y="-8.5" font-family="Helvetica,sans-Serif" font-size="10.00">ant::TClusterHit</text>
</g>
<!-- Node2 -->
<g id="node2" class="node"><title>Node2</title>
<polygon fill="white" stroke="#bfbfbf" points="-0.5,-73 -0.5,-107 128.5,-107 128.5,-73 -0.5,-73"/>
<text text-anchor="start" x="7.5" y="-94" font-family="Helvetica,sans-Serif" font-size="10.00">std::vector&lt; ant::TCluster</text>
<text text-anchor="middle" x="64" y="-81" font-family="Helvetica,sans-Serif" font-size="10.00">Hit::Datum &gt;</text>
</g>
<!-- Node2&#45;&gt;Node1 -->
<g id="edge2" class="edge"><title>Node2&#45;&gt;Node1</title>
<path fill="none" stroke="#9a32cd" stroke-dasharray="5,2" d="M64,-62.6228C64,-48.4727 64,-32.0243 64,-21.5672"/>
<polygon fill="#9a32cd" stroke="#9a32cd" points="60.5001,-62.8581 64,-72.8582 67.5001,-62.8582 60.5001,-62.8581"/>
<text text-anchor="middle" x="76.5" y="-44.5" font-family="Helvetica,sans-Serif" font-size="10.00"> Data</text>
</g>
<!-- Node3 -->
<g id="node4" class="node"><title>Node3</title>
<a xlink:href="structant_1_1_t_cluster_hit_1_1_datum.html" target="_top" xlink:title="ant::TClusterHit::Datum">
<polygon fill="white" stroke="black" points="3,-158.5 3,-179.5 125,-179.5 125,-158.5 3,-158.5"/>
<text text-anchor="middle" x="64" y="-166.5" font-family="Helvetica,sans-Serif" font-size="10.00">ant::TClusterHit::Datum</text>
</a>
</g>
<!-- Node3&#45;&gt;Node2 -->
<g id="edge4" class="edge"><title>Node3&#45;&gt;Node2</title>
<path fill="none" stroke="#9a32cd" stroke-dasharray="5,2" d="M64,-148.162C64,-135.363 64,-119.171 64,-107.124"/>
<polygon fill="#9a32cd" stroke="#9a32cd" points="60.5001,-148.346 64,-158.346 67.5001,-148.346 60.5001,-148.346"/>
<text text-anchor="middle" x="85.5" y="-130.5" font-family="Helvetica,sans-Serif" font-size="10.00"> elements</text>
</g>
<!-- Node4 -->
<g id="node6" class="node"><title>Node4</title>
<a xlink:href="structant_1_1_t_detector_read_hit_1_1_value__t.html" target="_top" xlink:title="ant::TDetectorReadHit\l::Value_t">
<polygon fill="white" stroke="black" points="6,-231 6,-265 122,-265 122,-231 6,-231"/>
<text text-anchor="start" x="14" y="-252" font-family="Helvetica,sans-Serif" font-size="10.00">ant::TDetectorReadHit</text>
<text text-anchor="middle" x="64" y="-239" font-family="Helvetica,sans-Serif" font-size="10.00">::Value_t</text>
</a>
</g>
<!-- Node4&#45;&gt;Node3 -->
<g id="edge6" class="edge"><title>Node4&#45;&gt;Node3</title>
<path fill="none" stroke="#9a32cd" stroke-dasharray="5,2" d="M64,-220.623C64,-206.473 64,-190.024 64,-179.567"/>
<polygon fill="#9a32cd" stroke="#9a32cd" points="60.5001,-220.858 64,-230.858 67.5001,-220.858 60.5001,-220.858"/>
<text text-anchor="middle" x="78" y="-202.5" font-family="Helvetica,sans-Serif" font-size="10.00"> Value</text>
</g>
</g>
</svg>
