<?xml version="1.0" encoding="UTF-8" standalone="no"?>
<!DOCTYPE svg PUBLIC "-//W3C//DTD SVG 1.1//EN"
 "http://www.w3.org/Graphics/SVG/1.1/DTD/svg11.dtd">
<!-- Generated by graphviz version 2.26.3 (20100126.1600)
 -->
<!-- Title: ant::Interpolator2D::Exception Pages: 1 -->
<svg width="106pt" height="160pt"
 viewBox="0.00 0.00 106.00 160.00" xmlns="http://www.w3.org/2000/svg" xmlns:xlink="http://www.w3.org/1999/xlink">
<g id="graph1" class="graph" transform="scale(1 1) rotate(0) translate(4 156)">
<title>ant::Interpolator2D::Exception</title>
<polygon fill="white" stroke="white" points="-4,5 -4,-156 103,-156 103,5 -4,5"/>
<!-- Node3 -->
<g id="node1" class="node"><title>Node3</title>
<polygon fill="#bfbfbf" stroke="black" points="0,-1 0,-35 98,-35 98,-1 0,-1"/>
<text text-anchor="start" x="8" y="-22" font-family="Helvetica,sans-Serif" font-size="10.00">ant::Interpolator2D</text>
<text text-anchor="middle" x="49" y="-9" font-family="Helvetica,sans-Serif" font-size="10.00">::Exception</text>
</g>
<!-- Node4 -->
<g id="node2" class="node"><title>Node4</title>
<a xlink:title="STL class. ">
<polygon fill="white" stroke="#bfbfbf" points="2.5,-72.5 2.5,-93.5 95.5,-93.5 95.5,-72.5 2.5,-72.5"/>
<text text-anchor="middle" x="49" y="-80.5" font-family="Helvetica,sans-Serif" font-size="10.00">std::runtime_error</text>
</a>
</g>
<!-- Node4&#45;&gt;Node3 -->
<g id="edge2" class="edge"><title>Node4&#45;&gt;Node3</title>
<path fill="none" stroke="midnightblue" d="M49,-62.1306C49,-53.4049 49,-43.3908 49,-35.1099"/>
<polygon fill="midnightblue" stroke="midnightblue" points="45.5001,-62.2665 49,-72.2666 52.5001,-62.2666 45.5001,-62.2665"/>
</g>
<!-- Node5 -->
<g id="node4" class="node"><title>Node5</title>
<a xlink:title="STL class. ">
<polygon fill="white" stroke="#bfbfbf" points="10,-130.5 10,-151.5 88,-151.5 88,-130.5 10,-130.5"/>
<text text-anchor="middle" x="49" y="-138.5" font-family="Helvetica,sans-Serif" font-size="10.00">std::exception</text>
</a>
</g>
<!-- Node5&#45;&gt;Node4 -->
<g id="edge4" class="edge"><title>Node5&#45;&gt;Node4</title>
<path fill="none" stroke="midnightblue" d="M49,-120.191C49,-111.168 49,-100.994 49,-93.5707"/>
<polygon fill="midnightblue" stroke="midnightblue" points="45.5001,-120.362 49,-130.362 52.5001,-120.362 45.5001,-120.362"/>
</g>
</g>
</svg>
