<?xml version="1.0" encoding="UTF-8" standalone="no"?>
<!DOCTYPE svg PUBLIC "-//W3C//DTD SVG 1.1//EN"
 "http://www.w3.org/Graphics/SVG/1.1/DTD/svg11.dtd">
<!-- Generated by graphviz version 2.26.3 (20100126.1600)
 -->
<!-- Title: ant::calibration::converter::MultiHitReference&lt; T &gt; Pages: 1 -->
<svg width="556pt" height="134pt"
 viewBox="0.00 0.00 556.00 134.00" xmlns="http://www.w3.org/2000/svg" xmlns:xlink="http://www.w3.org/1999/xlink">
<g id="graph1" class="graph" transform="scale(1 1) rotate(0) translate(4 130)">
<title>ant::calibration::converter::MultiHitReference&lt; T &gt;</title>
<polygon fill="white" stroke="white" points="-4,5 -4,-130 553,-130 553,5 -4,5"/>
<!-- Node5 -->
<g id="node1" class="node"><title>Node5</title>
<polygon fill="#bfbfbf" stroke="black" points="420.5,-40 420.5,-74 547.5,-74 547.5,-40 420.5,-40"/>
<text text-anchor="start" x="428.5" y="-61" font-family="Helvetica,sans-Serif" font-size="10.00">ant::calibration::converter</text>
<text text-anchor="middle" x="484" y="-48" font-family="Helvetica,sans-Serif" font-size="10.00">::MultiHitReference&lt; T &gt;</text>
</g>
<!-- Node6 -->
<g id="node2" class="node"><title>Node6</title>
<a xlink:href="structant_1_1calibration_1_1converter_1_1_multi_hit.html" target="_top" xlink:title="ant::calibration::converter\l::MultiHit\&lt; T \&gt;">
<polygon fill="white" stroke="black" points="170.5,-92 170.5,-126 297.5,-126 297.5,-92 170.5,-92"/>
<text text-anchor="start" x="178.5" y="-113" font-family="Helvetica,sans-Serif" font-size="10.00">ant::calibration::converter</text>
<text text-anchor="middle" x="234" y="-100" font-family="Helvetica,sans-Serif" font-size="10.00">::MultiHit&lt; T &gt;</text>
</a>
</g>
<!-- Node6&#45;&gt;Node5 -->
<g id="edge2" class="edge"><title>Node6&#45;&gt;Node5</title>
<path fill="none" stroke="midnightblue" d="M307.635,-93.6839C343.427,-86.2391 386.022,-77.3795 420.384,-70.2321"/>
<polygon fill="midnightblue" stroke="midnightblue" points="306.81,-90.2805 297.732,-95.7437 308.236,-97.1338 306.81,-90.2805"/>
</g>
<!-- Node7 -->
<g id="node4" class="node"><title>Node7</title>
<a xlink:href="structant_1_1_calibration_1_1_converter.html" target="_top" xlink:title="The Converter struct handles the transition from raw bytes to somewhat meaningful values (not necessa...">
<polygon fill="white" stroke="black" points="0.5,-98.5 0.5,-119.5 131.5,-119.5 131.5,-98.5 0.5,-98.5"/>
<text text-anchor="middle" x="66" y="-106.5" font-family="Helvetica,sans-Serif" font-size="10.00">ant::Calibration::Converter</text>
</a>
</g>
<!-- Node7&#45;&gt;Node6 -->
<g id="edge4" class="edge"><title>Node7&#45;&gt;Node6</title>
<path fill="none" stroke="midnightblue" d="M142.124,-109C151.602,-109 161.214,-109 170.473,-109"/>
<polygon fill="midnightblue" stroke="midnightblue" points="141.916,-105.5 131.916,-109 141.916,-112.5 141.916,-105.5"/>
</g>
<!-- Node8 -->
<g id="node6" class="node"><title>Node8</title>
<a xlink:href="structant_1_1_reconstruct_hook_1_1_detector_read_hits.html" target="_top" xlink:title="The DetectorReadHits struct instances are applied before hit matching. ">
<polygon fill="white" stroke="black" points="177.5,-40 177.5,-74 290.5,-74 290.5,-40 177.5,-40"/>
<text text-anchor="start" x="185.5" y="-61" font-family="Helvetica,sans-Serif" font-size="10.00">ant::ReconstructHook</text>
<text text-anchor="middle" x="234" y="-48" font-family="Helvetica,sans-Serif" font-size="10.00">::DetectorReadHits</text>
</a>
</g>
<!-- Node8&#45;&gt;Node5 -->
<g id="edge6" class="edge"><title>Node8&#45;&gt;Node5</title>
<path fill="none" stroke="midnightblue" d="M300.945,-57C338.046,-57 383.917,-57 420.46,-57"/>
<polygon fill="midnightblue" stroke="midnightblue" points="300.729,-53.5001 290.729,-57 300.729,-60.5001 300.729,-53.5001"/>
</g>
<!-- Node9 -->
<g id="node8" class="node"><title>Node9</title>
<a xlink:href="structant_1_1_reconstruct_hook_1_1_base.html" target="_top" xlink:title="The Base struct just defines some useful types. ">
<polygon fill="white" stroke="black" points="9.5,-40 9.5,-74 122.5,-74 122.5,-40 9.5,-40"/>
<text text-anchor="start" x="17.5" y="-61" font-family="Helvetica,sans-Serif" font-size="10.00">ant::ReconstructHook</text>
<text text-anchor="middle" x="66" y="-48" font-family="Helvetica,sans-Serif" font-size="10.00">::Base</text>
</a>
</g>
<!-- Node9&#45;&gt;Node8 -->
<g id="edge8" class="edge"><title>Node9&#45;&gt;Node8</title>
<path fill="none" stroke="midnightblue" d="M132.947,-57C147.696,-57 163.177,-57 177.467,-57"/>
<polygon fill="midnightblue" stroke="midnightblue" points="132.877,-53.5001 122.877,-57 132.877,-60.5001 132.877,-53.5001"/>
</g>
<!-- Node10 -->
<g id="node10" class="node"><title>Node10</title>
<a xlink:href="structant_1_1_logical_channel__t.html" target="_top" xlink:title="The LogicalChannel_t struct uniquely identifies detector element within setup. ">
<polygon fill="white" stroke="black" points="178.5,-0.5 178.5,-21.5 289.5,-21.5 289.5,-0.5 178.5,-0.5"/>
<text text-anchor="middle" x="234" y="-8.5" font-family="Helvetica,sans-Serif" font-size="10.00">ant::LogicalChannel_t</text>
</a>
</g>
<!-- Node10&#45;&gt;Node5 -->
<g id="edge10" class="edge"><title>Node10&#45;&gt;Node5</title>
<path fill="none" stroke="#9a32cd" stroke-dasharray="5,2" d="M299.957,-21.8605C330.97,-27.1014 368.429,-33.6245 402,-40 407.999,-41.1393 414.237,-42.3624 420.474,-43.611"/>
<polygon fill="#9a32cd" stroke="#9a32cd" points="300.144,-18.3428 289.702,-20.1344 298.982,-25.2457 300.144,-18.3428"/>
<text text-anchor="middle" x="359" y="-44" font-family="Helvetica,sans-Serif" font-size="10.00"> ReferenceChannel</text>
</g>
</g>
</svg>
