<?xml version="1.0" encoding="UTF-8" standalone="no"?>
<!DOCTYPE svg PUBLIC "-//W3C//DTD SVG 1.1//EN"
 "http://www.w3.org/Graphics/SVG/1.1/DTD/svg11.dtd">
<!-- Generated by graphviz version 2.26.3 (20100126.1600)
 -->
<!-- Title: ant::calibration::gui::AvgBuffer_SavitzkyGolay&lt; AvgBufferItem &gt;::buffer_t Pages: 1 -->
<svg width="144pt" height="114pt"
 viewBox="0.00 0.00 144.00 114.00" xmlns="http://www.w3.org/2000/svg" xmlns:xlink="http://www.w3.org/1999/xlink">
<g id="graph1" class="graph" transform="scale(1 1) rotate(0) translate(4 110)">
<title>ant::calibration::gui::AvgBuffer_SavitzkyGolay&lt; AvgBufferItem &gt;::buffer_t</title>
<polygon fill="white" stroke="white" points="-4,5 -4,-110 141,-110 141,5 -4,5"/>
<!-- Node0 -->
<g id="node1" class="node"><title>Node0</title>
<polygon fill="#bfbfbf" stroke="black" points="-0.5,-0.5 -0.5,-47.5 136.5,-47.5 136.5,-0.5 -0.5,-0.5"/>
<text text-anchor="start" x="7.5" y="-34.5" font-family="Helvetica,sans-Serif" font-size="10.00">ant::calibration::gui</text>
<text text-anchor="start" x="7.5" y="-21.5" font-family="Helvetica,sans-Serif" font-size="10.00">::AvgBuffer_SavitzkyGolay</text>
<text text-anchor="middle" x="68" y="-8.5" font-family="Helvetica,sans-Serif" font-size="10.00">&lt; AvgBufferItem &gt;::buffer_t</text>
</g>
<!-- Node1 -->
<g id="node2" class="node"><title>Node1</title>
<a xlink:title="STL class. ">
<polygon fill="white" stroke="#bfbfbf" points="8.5,-84.5 8.5,-105.5 127.5,-105.5 127.5,-84.5 8.5,-84.5"/>
<text text-anchor="middle" x="68" y="-92.5" font-family="Helvetica,sans-Serif" font-size="10.00">std::list&lt; buffer_entry &gt;</text>
</a>
</g>
<!-- Node1&#45;&gt;Node0 -->
<g id="edge2" class="edge"><title>Node1&#45;&gt;Node0</title>
<path fill="none" stroke="midnightblue" d="M68,-74.1915C68,-65.8352 68,-56.1603 68,-47.548"/>
<polygon fill="midnightblue" stroke="midnightblue" points="64.5001,-74.2166 68,-84.2166 71.5001,-74.2167 64.5001,-74.2166"/>
</g>
</g>
</svg>
