<?xml version="1.0" encoding="UTF-8" standalone="no"?>
<!DOCTYPE svg PUBLIC "-//W3C//DTD SVG 1.1//EN"
 "http://www.w3.org/Graphics/SVG/1.1/DTD/svg11.dtd">
<!-- Generated by graphviz version 2.26.3 (20100126.1600)
 -->
<!-- Title: ant::expconfig::detector::EPT_2014 Pages: 1 -->
<svg width="1316pt" height="172pt"
 viewBox="0.00 0.00 1316.00 172.00" xmlns="http://www.w3.org/2000/svg" xmlns:xlink="http://www.w3.org/1999/xlink">
<g id="graph1" class="graph" transform="scale(1 1) rotate(0) translate(4 168)">
<title>ant::expconfig::detector::EPT_2014</title>
<polygon fill="white" stroke="white" points="-4,5 -4,-168 1313,-168 1313,5 -4,5"/>
<!-- Node5 -->
<g id="node1" class="node"><title>Node5</title>
<polygon fill="#bfbfbf" stroke="black" points="1188.5,-59 1188.5,-93 1307.5,-93 1307.5,-59 1188.5,-59"/>
<text text-anchor="start" x="1196.5" y="-80" font-family="Helvetica,sans-Serif" font-size="10.00">ant::expconfig::detector</text>
<text text-anchor="middle" x="1248" y="-67" font-family="Helvetica,sans-Serif" font-size="10.00">::EPT_2014</text>
</g>
<!-- Node6 -->
<g id="node2" class="node"><title>Node6</title>
<a xlink:href="structant_1_1expconfig_1_1detector_1_1_e_p_t.html" target="_top" xlink:title="ant::expconfig::detector::EPT">
<polygon fill="white" stroke="black" points="944.5,-88.5 944.5,-109.5 1089.5,-109.5 1089.5,-88.5 944.5,-88.5"/>
<text text-anchor="middle" x="1017" y="-96.5" font-family="Helvetica,sans-Serif" font-size="10.00">ant::expconfig::detector::EPT</text>
</a>
</g>
<!-- Node6&#45;&gt;Node5 -->
<g id="edge2" class="edge"><title>Node6&#45;&gt;Node5</title>
<path fill="none" stroke="midnightblue" d="M1099.97,-90.739C1129.19,-87.8296 1161.44,-84.6189 1188.35,-81.939"/>
<polygon fill="midnightblue" stroke="midnightblue" points="1099.38,-87.2806 1089.77,-91.7542 1100.07,-94.2461 1099.38,-87.2806"/>
</g>
<!-- Node7 -->
<g id="node4" class="node"><title>Node7</title>
<a xlink:href="structant_1_1_tagger_detector__t.html" target="_top" xlink:title="ant::TaggerDetector_t">
<polygon fill="white" stroke="black" points="722,-142.5 722,-163.5 834,-163.5 834,-142.5 722,-142.5"/>
<text text-anchor="middle" x="778" y="-150.5" font-family="Helvetica,sans-Serif" font-size="10.00">ant::TaggerDetector_t</text>
</a>
</g>
<!-- Node7&#45;&gt;Node6 -->
<g id="edge4" class="edge"><title>Node7&#45;&gt;Node6</title>
<path fill="none" stroke="midnightblue" d="M835.496,-140.284C862.91,-134.194 896.161,-126.769 926,-120 940.863,-116.628 957.081,-112.901 971.654,-109.534"/>
<polygon fill="midnightblue" stroke="midnightblue" points="834.681,-136.88 825.677,-142.463 836.198,-143.713 834.681,-136.88"/>
</g>
<!-- Node8 -->
<g id="node6" class="node"><title>Node8</title>
<a xlink:href="structant_1_1_detector__t.html" target="_top" xlink:title="The Detector_t struct is the minimal base class for all detectors. ">
<polygon fill="white" stroke="black" points="525,-142.5 525,-163.5 607,-163.5 607,-142.5 525,-142.5"/>
<text text-anchor="middle" x="566" y="-150.5" font-family="Helvetica,sans-Serif" font-size="10.00">ant::Detector_t</text>
</a>
</g>
<!-- Node8&#45;&gt;Node7 -->
<g id="edge6" class="edge"><title>Node8&#45;&gt;Node7</title>
<path fill="none" stroke="midnightblue" d="M617.458,-153C648.992,-153 689.378,-153 721.754,-153"/>
<polygon fill="midnightblue" stroke="midnightblue" points="617.127,-149.5 607.127,-153 617.127,-156.5 617.127,-149.5"/>
</g>
<!-- Node9 -->
<g id="node8" class="node"><title>Node9</title>
<a xlink:href="classant_1_1_unpacker_acqu_config.html" target="_top" xlink:title="ant::UnpackerAcquConfig">
<polygon fill="white" stroke="black" points="713.5,-102.5 713.5,-123.5 842.5,-123.5 842.5,-102.5 713.5,-102.5"/>
<text text-anchor="middle" x="778" y="-110.5" font-family="Helvetica,sans-Serif" font-size="10.00">ant::UnpackerAcquConfig</text>
</a>
</g>
<!-- Node9&#45;&gt;Node6 -->
<g id="edge8" class="edge"><title>Node9&#45;&gt;Node6</title>
<path fill="none" stroke="midnightblue" d="M852.807,-108.618C881.976,-106.909 915.295,-104.958 944.262,-103.261"/>
<polygon fill="midnightblue" stroke="midnightblue" points="852.455,-105.133 842.677,-109.211 852.864,-112.121 852.455,-105.133"/>
</g>
<!-- Node10 -->
<g id="node10" class="node"><title>Node10</title>
<polygon fill="white" stroke="#bfbfbf" points="706.5,-50 706.5,-84 849.5,-84 849.5,-50 706.5,-50"/>
<text text-anchor="start" x="714.5" y="-71" font-family="Helvetica,sans-Serif" font-size="10.00">std::vector&lt; ant::expconfig</text>
<text text-anchor="middle" x="778" y="-58" font-family="Helvetica,sans-Serif" font-size="10.00">::detector::EPT::Element_t &gt;</text>
</g>
<!-- Node10&#45;&gt;Node6 -->
<g id="edge10" class="edge"><title>Node10&#45;&gt;Node6</title>
<path fill="none" stroke="#9a32cd" stroke-dasharray="5,2" d="M859.657,-77.9331C887.057,-81.6018 917.418,-85.6669 944.103,-89.2397"/>
<polygon fill="#9a32cd" stroke="#9a32cd" points="860.084,-74.4592 849.708,-76.6011 859.155,-81.3973 860.084,-74.4592"/>
<text text-anchor="middle" x="897" y="-91" font-family="Helvetica,sans-Serif" font-size="10.00"> elements</text>
</g>
<!-- Node11 -->
<g id="node12" class="node"><title>Node11</title>
<a xlink:href="structant_1_1expconfig_1_1detector_1_1_e_p_t_1_1_element__t.html" target="_top" xlink:title="ant::expconfig::detector\l::EPT::Element_t">
<polygon fill="white" stroke="black" points="506.5,-52 506.5,-86 625.5,-86 625.5,-52 506.5,-52"/>
<text text-anchor="start" x="514.5" y="-73" font-family="Helvetica,sans-Serif" font-size="10.00">ant::expconfig::detector</text>
<text text-anchor="middle" x="566" y="-60" font-family="Helvetica,sans-Serif" font-size="10.00">::EPT::Element_t</text>
</a>
</g>
<!-- Node11&#45;&gt;Node10 -->
<g id="edge12" class="edge"><title>Node11&#45;&gt;Node10</title>
<path fill="none" stroke="#9a32cd" stroke-dasharray="5,2" d="M635.833,-68.3412C658.486,-68.1275 683.643,-67.8902 706.422,-67.6753"/>
<polygon fill="#9a32cd" stroke="#9a32cd" points="635.584,-64.8433 625.618,-68.4376 635.651,-71.843 635.584,-64.8433"/>
<text text-anchor="middle" x="666" y="-73" font-family="Helvetica,sans-Serif" font-size="10.00"> elements</text>
</g>
<!-- Node12 -->
<g id="node14" class="node"><title>Node12</title>
<a xlink:href="structant_1_1_tagger_detector__t_1_1_element__t.html" target="_top" xlink:title="ant::TaggerDetector\l_t::Element_t">
<polygon fill="white" stroke="black" points="364,-52 364,-86 468,-86 468,-52 364,-52"/>
<text text-anchor="start" x="372" y="-73" font-family="Helvetica,sans-Serif" font-size="10.00">ant::TaggerDetector</text>
<text text-anchor="middle" x="416" y="-60" font-family="Helvetica,sans-Serif" font-size="10.00">_t::Element_t</text>
</a>
</g>
<!-- Node12&#45;&gt;Node11 -->
<g id="edge14" class="edge"><title>Node12&#45;&gt;Node11</title>
<path fill="none" stroke="midnightblue" d="M478.052,-69C487.404,-69 497.033,-69 506.334,-69"/>
<polygon fill="midnightblue" stroke="midnightblue" points="478.042,-65.5001 468.042,-69 478.042,-72.5001 478.042,-65.5001"/>
</g>
<!-- Node13 -->
<g id="node16" class="node"><title>Node13</title>
<a xlink:href="structant_1_1_tagger_detector__t_1_1taggeff__t.html" target="_top" xlink:title="ant::TaggerDetector\l_t::taggeff_t">
<polygon fill="white" stroke="black" points="166,-70 166,-104 270,-104 270,-70 166,-70"/>
<text text-anchor="start" x="174" y="-91" font-family="Helvetica,sans-Serif" font-size="10.00">ant::TaggerDetector</text>
<text text-anchor="middle" x="218" y="-78" font-family="Helvetica,sans-Serif" font-size="10.00">_t::taggeff_t</text>
</a>
</g>
<!-- Node13&#45;&gt;Node12 -->
<g id="edge16" class="edge"><title>Node13&#45;&gt;Node12</title>
<path fill="none" stroke="#9a32cd" stroke-dasharray="5,2" d="M280.123,-81.3525C307.073,-78.9024 338.278,-76.0656 363.982,-73.7289"/>
<polygon fill="#9a32cd" stroke="#9a32cd" points="279.664,-77.8796 270.022,-82.2707 280.298,-84.8509 279.664,-77.8796"/>
<text text-anchor="middle" x="327" y="-83" font-family="Helvetica,sans-Serif" font-size="10.00"> TaggEff</text>
</g>
<!-- Node14 -->
<g id="node18" class="node"><title>Node14</title>
<a xlink:href="classant_1_1bitflag.html" target="_top" xlink:title="ant::bitflag\&lt; ElementFlag_t \&gt;">
<polygon fill="white" stroke="black" points="146.5,-30.5 146.5,-51.5 289.5,-51.5 289.5,-30.5 146.5,-30.5"/>
<text text-anchor="middle" x="218" y="-38.5" font-family="Helvetica,sans-Serif" font-size="10.00">ant::bitflag&lt; ElementFlag_t &gt;</text>
</a>
</g>
<!-- Node14&#45;&gt;Node12 -->
<g id="edge18" class="edge"><title>Node14&#45;&gt;Node12</title>
<path fill="none" stroke="#9a32cd" stroke-dasharray="5,2" d="M299.762,-52.4706C315.126,-54.6337 331.054,-56.8816 346,-59 351.713,-59.8097 357.687,-60.6592 363.635,-61.5065"/>
<polygon fill="#9a32cd" stroke="#9a32cd" points="300.154,-48.9914 289.764,-51.0636 299.179,-55.9231 300.154,-48.9914"/>
<text text-anchor="middle" x="327" y="-63" font-family="Helvetica,sans-Serif" font-size="10.00"> Flags</text>
</g>
<!-- Node15 -->
<g id="node20" class="node"><title>Node15</title>
<polygon fill="white" stroke="#bfbfbf" points="0.5,-30.5 0.5,-51.5 89.5,-51.5 89.5,-30.5 0.5,-30.5"/>
<text text-anchor="middle" x="45" y="-38.5" font-family="Helvetica,sans-Serif" font-size="10.00">std::bitset&lt; 32 &gt;</text>
</g>
<!-- Node15&#45;&gt;Node14 -->
<g id="edge20" class="edge"><title>Node15&#45;&gt;Node14</title>
<path fill="none" stroke="#9a32cd" stroke-dasharray="5,2" d="M99.5802,-41C114.441,-41 130.764,-41 146.415,-41"/>
<polygon fill="#9a32cd" stroke="#9a32cd" points="99.5518,-37.5001 89.5518,-41 99.5518,-44.5001 99.5518,-37.5001"/>
<text text-anchor="middle" x="118" y="-45" font-family="Helvetica,sans-Serif" font-size="10.00"> bits</text>
</g>
<!-- Node16 -->
<g id="node22" class="node"><title>Node16</title>
<a xlink:title="STL class. ">
<polygon fill="white" stroke="#bfbfbf" points="748,-7.5 748,-28.5 808,-28.5 808,-7.5 748,-7.5"/>
<text text-anchor="middle" x="778" y="-15.5" font-family="Helvetica,sans-Serif" font-size="10.00">std::string</text>
</a>
</g>
<!-- Node16&#45;&gt;Node6 -->
<g id="edge22" class="edge"><title>Node16&#45;&gt;Node6</title>
<path fill="none" stroke="#9a32cd" stroke-dasharray="5,2" d="M818.124,-25.291C849.004,-32.0352 892.009,-43.9462 926,-63 935.337,-68.2337 934.591,-73.8964 944,-79 950.93,-82.7594 958.622,-85.8552 966.338,-88.392"/>
<polygon fill="#9a32cd" stroke="#9a32cd" points="818.652,-21.8257 808.146,-23.1991 817.215,-28.6767 818.652,-21.8257"/>
<text text-anchor="middle" x="897" y="-67" font-family="Helvetica,sans-Serif" font-size="10.00"> ScalerName</text>
</g>
<!-- Node17 -->
<g id="node24" class="node"><title>Node17</title>
<a xlink:title="STL class. ">
<polygon fill="white" stroke="#bfbfbf" points="518.5,-0 518.5,-34 613.5,-34 613.5,-0 518.5,-0"/>
<text text-anchor="start" x="526.5" y="-21" font-family="Helvetica,sans-Serif" font-size="10.00">std::basic_string&lt;</text>
<text text-anchor="middle" x="566" y="-8" font-family="Helvetica,sans-Serif" font-size="10.00"> char &gt;</text>
</a>
</g>
<!-- Node17&#45;&gt;Node16 -->
<g id="edge24" class="edge"><title>Node17&#45;&gt;Node16</title>
<path fill="none" stroke="midnightblue" d="M623.768,-17.2725C663.892,-17.4618 715.736,-17.7063 747.924,-17.8581"/>
<polygon fill="midnightblue" stroke="midnightblue" points="623.593,-13.7717 613.577,-17.2244 623.56,-20.7716 623.593,-13.7717"/>
</g>
<!-- Node18 -->
<g id="node26" class="node"><title>Node18</title>
<polygon fill="white" stroke="#bfbfbf" points="954.5,-48.5 954.5,-69.5 1079.5,-69.5 1079.5,-48.5 954.5,-48.5"/>
<text text-anchor="middle" x="1017" y="-56.5" font-family="Helvetica,sans-Serif" font-size="10.00">std::vector&lt; Element_t &gt;</text>
</g>
<!-- Node18&#45;&gt;Node5 -->
<g id="edge26" class="edge"><title>Node18&#45;&gt;Node5</title>
<path fill="none" stroke="#9a32cd" stroke-dasharray="5,2" d="M1089.9,-61.1177C1115.28,-62.1778 1143.92,-63.7357 1170,-66 1175.98,-66.5197 1182.22,-67.1561 1188.43,-67.8538"/>
<polygon fill="#9a32cd" stroke="#9a32cd" points="1089.74,-57.6087 1079.61,-60.7074 1089.46,-64.6032 1089.74,-57.6087"/>
<text text-anchor="middle" x="1139" y="-70" font-family="Helvetica,sans-Serif" font-size="10.00"> elements_init</text>
</g>
</g>
</svg>
