<?xml version="1.0" encoding="UTF-8" standalone="no"?>
<!DOCTYPE svg PUBLIC "-//W3C//DTD SVG 1.1//EN"
 "http://www.w3.org/Graphics/SVG/1.1/DTD/svg11.dtd">
<!-- Generated by graphviz version 2.26.3 (20100126.1600)
 -->
<!-- Title: ant::analysis::slowcontrol::processor::EPT_Scalers Pages: 1 -->
<svg width="158pt" height="188pt"
 viewBox="0.00 0.00 158.00 188.00" xmlns="http://www.w3.org/2000/svg" xmlns:xlink="http://www.w3.org/1999/xlink">
<g id="graph1" class="graph" transform="scale(1 1) rotate(0) translate(4 184)">
<title>ant::analysis::slowcontrol::processor::EPT_Scalers</title>
<polygon fill="white" stroke="white" points="-4,5 -4,-184 155,-184 155,5 -4,5"/>
<!-- Node3 -->
<g id="node1" class="node"><title>Node3</title>
<polygon fill="#bfbfbf" stroke="black" points="10.5,-1 10.5,-35 139.5,-35 139.5,-1 10.5,-1"/>
<text text-anchor="start" x="18.5" y="-22" font-family="Helvetica,sans-Serif" font-size="10.00">ant::analysis::slowcontrol</text>
<text text-anchor="middle" x="75" y="-9" font-family="Helvetica,sans-Serif" font-size="10.00">::processor::EPT_Scalers</text>
</g>
<!-- Node4 -->
<g id="node2" class="node"><title>Node4</title>
<a xlink:href="structant_1_1analysis_1_1slowcontrol_1_1processor_1_1_acqu_scaler_vector.html" target="_top" xlink:title="ant::analysis::slowcontrol\l::processor::AcquScalerVector">
<polygon fill="white" stroke="black" points="0,-73 0,-107 150,-107 150,-73 0,-73"/>
<text text-anchor="start" x="8" y="-94" font-family="Helvetica,sans-Serif" font-size="10.00">ant::analysis::slowcontrol</text>
<text text-anchor="middle" x="75" y="-81" font-family="Helvetica,sans-Serif" font-size="10.00">::processor::AcquScalerVector</text>
</a>
</g>
<!-- Node4&#45;&gt;Node3 -->
<g id="edge2" class="edge"><title>Node4&#45;&gt;Node3</title>
<path fill="none" stroke="midnightblue" d="M75,-62.7193C75,-53.572 75,-43.6255 75,-35.4407"/>
<polygon fill="midnightblue" stroke="midnightblue" points="71.5001,-62.937 75,-72.937 78.5001,-62.937 71.5001,-62.937"/>
</g>
<!-- Node5 -->
<g id="node4" class="node"><title>Node5</title>
<a xlink:href="structant_1_1analysis_1_1slowcontrol_1_1_processor.html" target="_top" xlink:title="ant::analysis::slowcontrol\l::Processor">
<polygon fill="white" stroke="black" points="11,-145 11,-179 139,-179 139,-145 11,-145"/>
<text text-anchor="start" x="19" y="-166" font-family="Helvetica,sans-Serif" font-size="10.00">ant::analysis::slowcontrol</text>
<text text-anchor="middle" x="75" y="-153" font-family="Helvetica,sans-Serif" font-size="10.00">::Processor</text>
</a>
</g>
<!-- Node5&#45;&gt;Node4 -->
<g id="edge4" class="edge"><title>Node5&#45;&gt;Node4</title>
<path fill="none" stroke="midnightblue" d="M75,-134.719C75,-125.572 75,-115.625 75,-107.441"/>
<polygon fill="midnightblue" stroke="midnightblue" points="71.5001,-134.937 75,-144.937 78.5001,-134.937 71.5001,-134.937"/>
</g>
</g>
</svg>
