<?xml version="1.0" encoding="UTF-8" standalone="no"?>
<!DOCTYPE svg PUBLIC "-//W3C//DTD SVG 1.1//EN"
 "http://www.w3.org/Graphics/SVG/1.1/DTD/svg11.dtd">
<!-- Generated by graphviz version 2.26.3 (20100126.1600)
 -->
<!-- Title: ant::analysis::utils::UncertaintyModels::MCSmearingAdlarson Pages: 1 -->
<svg width="266pt" height="142pt"
 viewBox="0.00 0.00 266.00 142.00" xmlns="http://www.w3.org/2000/svg" xmlns:xlink="http://www.w3.org/1999/xlink">
<g id="graph1" class="graph" transform="scale(1 1) rotate(0) translate(4 138)">
<title>ant::analysis::utils::UncertaintyModels::MCSmearingAdlarson</title>
<polygon fill="white" stroke="white" points="-4,5 -4,-138 263,-138 263,5 -4,5"/>
<!-- Node2 -->
<g id="node1" class="node"><title>Node2</title>
<polygon fill="#bfbfbf" stroke="black" points="62,-0.5 62,-47.5 174,-47.5 174,-0.5 62,-0.5"/>
<text text-anchor="start" x="70" y="-34.5" font-family="Helvetica,sans-Serif" font-size="10.00">ant::analysis::utils</text>
<text text-anchor="start" x="70" y="-21.5" font-family="Helvetica,sans-Serif" font-size="10.00">::UncertaintyModels::</text>
<text text-anchor="middle" x="118" y="-8.5" font-family="Helvetica,sans-Serif" font-size="10.00">MCSmearingAdlarson</text>
</g>
<!-- Node3 -->
<g id="node2" class="node"><title>Node3</title>
<a xlink:href="classant_1_1analysis_1_1utils_1_1_uncertainty_model.html" target="_top" xlink:title="Virtual base class for different Uncertainty Models for fitter. Implement at least the GetSigmas() me...">
<polygon fill="white" stroke="black" points="-0.5,-99 -0.5,-133 98.5,-133 98.5,-99 -0.5,-99"/>
<text text-anchor="start" x="7.5" y="-120" font-family="Helvetica,sans-Serif" font-size="10.00">ant::analysis::utils</text>
<text text-anchor="middle" x="49" y="-107" font-family="Helvetica,sans-Serif" font-size="10.00">::UncertaintyModel</text>
</a>
</g>
<!-- Node3&#45;&gt;Node2 -->
<g id="edge2" class="edge"><title>Node3&#45;&gt;Node2</title>
<path fill="none" stroke="midnightblue" d="M68.1909,-90.4122C78.1879,-77.0828 90.3363,-60.885 100.133,-47.8232"/>
<polygon fill="midnightblue" stroke="midnightblue" points="65.1784,-88.5955 61.9784,-98.6955 70.7784,-92.7955 65.1784,-88.5955"/>
</g>
<!-- Node4 -->
<g id="node4" class="node"><title>Node4</title>
<polygon fill="white" stroke="#bfbfbf" points="116,-105.5 116,-126.5 258,-126.5 258,-105.5 116,-105.5"/>
<text text-anchor="middle" x="187" y="-113.5" font-family="Helvetica,sans-Serif" font-size="10.00">std::unique_ptr&lt; TRandom &gt;</text>
</g>
<!-- Node4&#45;&gt;Node2 -->
<g id="edge4" class="edge"><title>Node4&#45;&gt;Node2</title>
<path fill="none" stroke="#9a32cd" stroke-dasharray="5,2" d="M173.013,-97.3506C162.293,-83.0577 147.425,-63.2332 135.848,-47.797"/>
<polygon fill="#9a32cd" stroke="#9a32cd" points="170.285,-99.5464 179.085,-105.446 175.885,-95.3464 170.285,-99.5464"/>
<text text-anchor="middle" x="166.5" y="-70.5" font-family="Helvetica,sans-Serif" font-size="10.00"> rng</text>
</g>
</g>
</svg>
