<?xml version="1.0" encoding="UTF-8" standalone="no"?>
<!DOCTYPE svg PUBLIC "-//W3C//DTD SVG 1.1//EN"
 "http://www.w3.org/Graphics/SVG/1.1/DTD/svg11.dtd">
<!-- Generated by graphviz version 2.26.3 (20100126.1600)
 -->
<!-- Title: McAction Pages: 1 -->
<svg width="154pt" height="88pt"
 viewBox="0.00 0.00 154.00 88.00" xmlns="http://www.w3.org/2000/svg" xmlns:xlink="http://www.w3.org/1999/xlink">
<g id="graph1" class="graph" transform="scale(1 1) rotate(0) translate(4 84)">
<title>McAction</title>
<polygon fill="white" stroke="white" points="-4,5 -4,-84 151,-84 151,5 -4,5"/>
<!-- Node0 -->
<g id="node1" class="node"><title>Node0</title>
<polygon fill="#bfbfbf" stroke="black" points="43,-58.5 43,-79.5 101,-79.5 101,-58.5 43,-58.5"/>
<text text-anchor="middle" x="72" y="-66.5" font-family="Helvetica,sans-Serif" font-size="10.00">McAction</text>
</g>
<!-- Node1 -->
<g id="node3" class="node"><title>Node1</title>
<a xlink:href="struct_gun_action.html" target="_top" xlink:title="GunAction">
<polygon fill="white" stroke="black" points="0,-0.5 0,-21.5 62,-21.5 62,-0.5 0,-0.5"/>
<text text-anchor="middle" x="31" y="-8.5" font-family="Helvetica,sans-Serif" font-size="10.00">GunAction</text>
</a>
</g>
<!-- Node0&#45;&gt;Node1 -->
<g id="edge2" class="edge"><title>Node0&#45;&gt;Node1</title>
<path fill="none" stroke="midnightblue" d="M58.54,-49.9591C51.869,-40.522 44.0659,-29.4835 38.4724,-21.5707"/>
<polygon fill="midnightblue" stroke="midnightblue" points="55.8495,-52.2165 64.48,-58.3619 61.5656,-48.1758 55.8495,-52.2165"/>
</g>
<!-- Node2 -->
<g id="node5" class="node"><title>Node2</title>
<a xlink:href="struct_pluto_action.html" target="_top" xlink:title="PlutoAction">
<polygon fill="white" stroke="black" points="79.5,-0.5 79.5,-21.5 146.5,-21.5 146.5,-0.5 79.5,-0.5"/>
<text text-anchor="middle" x="113" y="-8.5" font-family="Helvetica,sans-Serif" font-size="10.00">PlutoAction</text>
</a>
</g>
<!-- Node0&#45;&gt;Node2 -->
<g id="edge4" class="edge"><title>Node0&#45;&gt;Node2</title>
<path fill="none" stroke="midnightblue" d="M85.46,-49.9591C92.131,-40.522 99.9341,-29.4835 105.528,-21.5707"/>
<polygon fill="midnightblue" stroke="midnightblue" points="82.4344,-48.1758 79.52,-58.3619 88.1505,-52.2165 82.4344,-48.1758"/>
</g>
</g>
</svg>
