<?xml version="1.0" encoding="UTF-8" standalone="no"?>
<!DOCTYPE svg PUBLIC "-//W3C//DTD SVG 1.1//EN"
 "http://www.w3.org/Graphics/SVG/1.1/DTD/svg11.dtd">
<!-- Generated by graphviz version 2.26.3 (20100126.1600)
 -->
<!-- Title: TAPSVeto_Thresholds Pages: 1 -->
<svg width="124pt" height="160pt"
 viewBox="0.00 0.00 124.00 160.00" xmlns="http://www.w3.org/2000/svg" xmlns:xlink="http://www.w3.org/1999/xlink">
<g id="graph1" class="graph" transform="scale(1 1) rotate(0) translate(4 156)">
<title>TAPSVeto_Thresholds</title>
<polygon fill="white" stroke="white" points="-4,5 -4,-156 121,-156 121,5 -4,5"/>
<!-- Node0 -->
<g id="node1" class="node"><title>Node0</title>
<polygon fill="#bfbfbf" stroke="black" points="0,-0.5 0,-21.5 116,-21.5 116,-0.5 0,-0.5"/>
<text text-anchor="middle" x="58" y="-8.5" font-family="Helvetica,sans-Serif" font-size="10.00">TAPSVeto_Thresholds</text>
</g>
<!-- Node1 -->
<g id="node2" class="node"><title>Node1</title>
<a xlink:href="classant_1_1analysis_1_1physics_1_1_thresholds.html" target="_top" xlink:title="ant::analysis::physics\l::Thresholds">
<polygon fill="white" stroke="black" points="2,-59 2,-93 114,-93 114,-59 2,-59"/>
<text text-anchor="start" x="10" y="-80" font-family="Helvetica,sans-Serif" font-size="10.00">ant::analysis::physics</text>
<text text-anchor="middle" x="58" y="-67" font-family="Helvetica,sans-Serif" font-size="10.00">::Thresholds</text>
</a>
</g>
<!-- Node1&#45;&gt;Node0 -->
<g id="edge2" class="edge"><title>Node1&#45;&gt;Node0</title>
<path fill="none" stroke="midnightblue" d="M58,-48.6879C58,-39.2415 58,-29.1949 58,-21.8521"/>
<polygon fill="midnightblue" stroke="midnightblue" points="54.5001,-48.922 58,-58.922 61.5001,-48.922 54.5001,-48.922"/>
</g>
<!-- Node2 -->
<g id="node4" class="node"><title>Node2</title>
<a xlink:href="classant_1_1analysis_1_1_physics.html" target="_top" xlink:title="ant::analysis::Physics">
<polygon fill="white" stroke="black" points="1.5,-130.5 1.5,-151.5 114.5,-151.5 114.5,-130.5 1.5,-130.5"/>
<text text-anchor="middle" x="58" y="-138.5" font-family="Helvetica,sans-Serif" font-size="10.00">ant::analysis::Physics</text>
</a>
</g>
<!-- Node2&#45;&gt;Node1 -->
<g id="edge4" class="edge"><title>Node2&#45;&gt;Node1</title>
<path fill="none" stroke="midnightblue" d="M58,-120.131C58,-111.405 58,-101.391 58,-93.1099"/>
<polygon fill="midnightblue" stroke="midnightblue" points="54.5001,-120.267 58,-130.267 61.5001,-120.267 54.5001,-120.267"/>
</g>
</g>
</svg>
