<?xml version="1.0" encoding="UTF-8" standalone="no"?>
<!DOCTYPE svg PUBLIC "-//W3C//DTD SVG 1.1//EN"
 "http://www.w3.org/Graphics/SVG/1.1/DTD/svg11.dtd">
<!-- Generated by graphviz version 2.26.3 (20100126.1600)
 -->
<!-- Title: RefHist_t Pages: 1 -->
<svg width="244pt" height="102pt"
 viewBox="0.00 0.00 244.00 102.00" xmlns="http://www.w3.org/2000/svg" xmlns:xlink="http://www.w3.org/1999/xlink">
<g id="graph1" class="graph" transform="scale(1 1) rotate(0) translate(4 98)">
<title>RefHist_t</title>
<polygon fill="white" stroke="white" points="-4,5 -4,-98 241,-98 241,5 -4,5"/>
<!-- Node0 -->
<g id="node1" class="node"><title>Node0</title>
<polygon fill="#bfbfbf" stroke="black" points="74.5,-0.5 74.5,-21.5 133.5,-21.5 133.5,-0.5 74.5,-0.5"/>
<text text-anchor="middle" x="104" y="-8.5" font-family="Helvetica,sans-Serif" font-size="10.00">RefHist_t</text>
</g>
<!-- Node1 -->
<g id="node2" class="node"><title>Node1</title>
<a xlink:href="struct_common_hist__t.html" target="_top" xlink:title="CommonHist_t">
<polygon fill="white" stroke="black" points="-0.5,-65.5 -0.5,-86.5 82.5,-86.5 82.5,-65.5 -0.5,-65.5"/>
<text text-anchor="middle" x="41" y="-73.5" font-family="Helvetica,sans-Serif" font-size="10.00">CommonHist_t</text>
</a>
</g>
<!-- Node1&#45;&gt;Node0 -->
<g id="edge2" class="edge"><title>Node1&#45;&gt;Node0</title>
<path fill="none" stroke="midnightblue" d="M58.676,-57.7628C70.0069,-46.0723 84.3146,-31.3103 93.7904,-21.5337"/>
<polygon fill="midnightblue" stroke="midnightblue" points="55.8497,-55.65 51.4032,-65.2666 60.8762,-60.5218 55.8497,-55.65"/>
</g>
<!-- Node2 -->
<g id="node4" class="node"><title>Node2</title>
<a xlink:href="struct_hist__t.html" target="_top" xlink:title="Hist_t\&lt; physics::EtapDalitz\l::RefTree_t \&gt;">
<polygon fill="white" stroke="black" points="99.5,-59 99.5,-93 236.5,-93 236.5,-59 99.5,-59"/>
<text text-anchor="start" x="107.5" y="-80" font-family="Helvetica,sans-Serif" font-size="10.00">Hist_t&lt; physics::EtapDalitz</text>
<text text-anchor="middle" x="168" y="-67" font-family="Helvetica,sans-Serif" font-size="10.00">::RefTree_t &gt;</text>
</a>
</g>
<!-- Node2&#45;&gt;Node0 -->
<g id="edge4" class="edge"><title>Node2&#45;&gt;Node0</title>
<path fill="none" stroke="midnightblue" d="M144.084,-51.7102C133.965,-41.4333 122.692,-29.9845 114.685,-21.8521"/>
<polygon fill="midnightblue" stroke="midnightblue" points="141.675,-54.2519 151.185,-58.922 146.663,-49.3407 141.675,-54.2519"/>
</g>
</g>
</svg>
