<?xml version="1.0" encoding="UTF-8" standalone="no"?>
<!DOCTYPE svg PUBLIC "-//W3C//DTD SVG 1.1//EN"
 "http://www.w3.org/Graphics/SVG/1.1/DTD/svg11.dtd">
<!-- Generated by graphviz version 2.26.3 (20100126.1600)
 -->
<!-- Title: ClusteringTester Pages: 1 -->
<svg width="142pt" height="174pt"
 viewBox="0.00 0.00 142.00 174.00" xmlns="http://www.w3.org/2000/svg" xmlns:xlink="http://www.w3.org/1999/xlink">
<g id="graph1" class="graph" transform="scale(1 1) rotate(0) translate(4 170)">
<title>ClusteringTester</title>
<polygon fill="white" stroke="white" points="-4,5 -4,-170 139,-170 139,5 -4,5"/>
<!-- Node3 -->
<g id="node1" class="node"><title>Node3</title>
<polygon fill="#bfbfbf" stroke="black" points="22.5,-0.5 22.5,-21.5 111.5,-21.5 111.5,-0.5 22.5,-0.5"/>
<text text-anchor="middle" x="67" y="-8.5" font-family="Helvetica,sans-Serif" font-size="10.00">ClusteringTester</text>
</g>
<!-- Node4 -->
<g id="node2" class="node"><title>Node4</title>
<a xlink:href="classant_1_1reconstruct_1_1_clustering___next_gen.html" target="_top" xlink:title="ant::reconstruct::Clustering\l_NextGen">
<polygon fill="white" stroke="black" points="-0.5,-59 -0.5,-93 134.5,-93 134.5,-59 -0.5,-59"/>
<text text-anchor="start" x="7.5" y="-80" font-family="Helvetica,sans-Serif" font-size="10.00">ant::reconstruct::Clustering</text>
<text text-anchor="middle" x="67" y="-67" font-family="Helvetica,sans-Serif" font-size="10.00">_NextGen</text>
</a>
</g>
<!-- Node4&#45;&gt;Node3 -->
<g id="edge2" class="edge"><title>Node4&#45;&gt;Node3</title>
<path fill="none" stroke="midnightblue" d="M67,-48.6879C67,-39.2415 67,-29.1949 67,-21.8521"/>
<polygon fill="midnightblue" stroke="midnightblue" points="63.5001,-48.922 67,-58.922 70.5001,-48.922 63.5001,-48.922"/>
</g>
<!-- Node5 -->
<g id="node4" class="node"><title>Node5</title>
<a xlink:href="structant_1_1reconstruct_1_1_clustering__traits.html" target="_top" xlink:title="ant::reconstruct::Clustering\l_traits">
<polygon fill="white" stroke="black" points="-0.5,-131 -0.5,-165 134.5,-165 134.5,-131 -0.5,-131"/>
<text text-anchor="start" x="7.5" y="-152" font-family="Helvetica,sans-Serif" font-size="10.00">ant::reconstruct::Clustering</text>
<text text-anchor="middle" x="67" y="-139" font-family="Helvetica,sans-Serif" font-size="10.00">_traits</text>
</a>
</g>
<!-- Node5&#45;&gt;Node4 -->
<g id="edge4" class="edge"><title>Node5&#45;&gt;Node4</title>
<path fill="none" stroke="midnightblue" d="M67,-120.719C67,-111.572 67,-101.625 67,-93.4407"/>
<polygon fill="midnightblue" stroke="midnightblue" points="63.5001,-120.937 67,-130.937 70.5001,-120.937 63.5001,-120.937"/>
</g>
</g>
</svg>
