<?xml version="1.0" encoding="UTF-8" standalone="no"?>
<!DOCTYPE svg PUBLIC "-//W3C//DTD SVG 1.1//EN"
 "http://www.w3.org/Graphics/SVG/1.1/DTD/svg11.dtd">
<!-- Generated by graphviz version 2.26.3 (20100126.1600)
 -->
<!-- Title: ant::expconfig::detector::Trigger::ScalerName Pages: 1 -->
<svg width="159pt" height="320pt"
 viewBox="0.00 0.00 159.00 320.00" xmlns="http://www.w3.org/2000/svg" xmlns:xlink="http://www.w3.org/1999/xlink">
<g id="graph1" class="graph" transform="scale(1 1) rotate(0) translate(4 316)">
<title>ant::expconfig::detector::Trigger::ScalerName</title>
<polygon fill="white" stroke="white" points="-4,5 -4,-316 156,-316 156,5 -4,5"/>
<!-- Node1 -->
<g id="node1" class="node"><title>Node1</title>
<polygon fill="#bfbfbf" stroke="black" points="-0.5,-1 -0.5,-35 118.5,-35 118.5,-1 -0.5,-1"/>
<text text-anchor="start" x="7.5" y="-22" font-family="Helvetica,sans-Serif" font-size="10.00">ant::expconfig::detector</text>
<text text-anchor="middle" x="59" y="-9" font-family="Helvetica,sans-Serif" font-size="10.00">::Trigger::ScalerName</text>
</g>
<!-- Node2 -->
<g id="node2" class="node"><title>Node2</title>
<a xlink:title="STL class. ">
<polygon fill="white" stroke="#bfbfbf" points="29,-216.5 29,-237.5 89,-237.5 89,-216.5 29,-216.5"/>
<text text-anchor="middle" x="59" y="-224.5" font-family="Helvetica,sans-Serif" font-size="10.00">std::string</text>
</a>
</g>
<!-- Node2&#45;&gt;Node1 -->
<g id="edge2" class="edge"><title>Node2&#45;&gt;Node1</title>
<path fill="none" stroke="#9a32cd" stroke-dasharray="5,2" d="M59,-206.093C59,-164.699 59,-73.0341 59,-35.0258"/>
<polygon fill="#9a32cd" stroke="#9a32cd" points="55.5001,-206.348 59,-216.348 62.5001,-206.348 55.5001,-206.348"/>
<text text-anchor="middle" x="105" y="-188.5" font-family="Helvetica,sans-Serif" font-size="10.00"> Beampolmon_1MHz</text>
<text text-anchor="middle" x="105" y="-175.5" font-family="Helvetica,sans-Serif" font-size="10.00">TaggerReferenceOR</text>
<text text-anchor="middle" x="105" y="-162.5" font-family="Helvetica,sans-Serif" font-size="10.00">L1Trigger</text>
<text text-anchor="middle" x="105" y="-149.5" font-family="Helvetica,sans-Serif" font-size="10.00">EPTReferenceOR</text>
<text text-anchor="middle" x="105" y="-136.5" font-family="Helvetica,sans-Serif" font-size="10.00">FaradayCup</text>
<text text-anchor="middle" x="105" y="-123.5" font-family="Helvetica,sans-Serif" font-size="10.00">Exptrigger_1MHz</text>
<text text-anchor="middle" x="105" y="-110.5" font-family="Helvetica,sans-Serif" font-size="10.00">PbGlass</text>
<text text-anchor="middle" x="105" y="-97.5" font-family="Helvetica,sans-Serif" font-size="10.00">ExpTrigger</text>
<text text-anchor="middle" x="105" y="-84.5" font-family="Helvetica,sans-Serif" font-size="10.00">Paddle</text>
<text text-anchor="middle" x="105" y="-71.5" font-family="Helvetica,sans-Serif" font-size="10.00">PairSpecGate</text>
<text text-anchor="middle" x="105" y="-58.5" font-family="Helvetica,sans-Serif" font-size="10.00">...</text>
</g>
<!-- Node3 -->
<g id="node4" class="node"><title>Node3</title>
<a xlink:title="STL class. ">
<polygon fill="white" stroke="#bfbfbf" points="11.5,-277 11.5,-311 106.5,-311 106.5,-277 11.5,-277"/>
<text text-anchor="start" x="19.5" y="-298" font-family="Helvetica,sans-Serif" font-size="10.00">std::basic_string&lt;</text>
<text text-anchor="middle" x="59" y="-285" font-family="Helvetica,sans-Serif" font-size="10.00"> char &gt;</text>
</a>
</g>
<!-- Node3&#45;&gt;Node2 -->
<g id="edge4" class="edge"><title>Node3&#45;&gt;Node2</title>
<path fill="none" stroke="midnightblue" d="M59,-266.534C59,-256.306 59,-245.301 59,-237.506"/>
<polygon fill="midnightblue" stroke="midnightblue" points="55.5001,-266.746 59,-276.746 62.5001,-266.746 55.5001,-266.746"/>
</g>
</g>
</svg>
