<?xml version="1.0" encoding="UTF-8" standalone="no"?>
<!DOCTYPE svg PUBLIC "-//W3C//DTD SVG 1.1//EN"
 "http://www.w3.org/Graphics/SVG/1.1/DTD/svg11.dtd">
<!-- Generated by graphviz version 2.26.3 (20100126.1600)
 -->
<!-- Title: ant::analysis::physics::EtapOmegaG::ProtonPhotonTree_t Pages: 1 -->
<svg width="686pt" height="141pt"
 viewBox="0.00 0.00 686.00 141.00" xmlns="http://www.w3.org/2000/svg" xmlns:xlink="http://www.w3.org/1999/xlink">
<g id="graph1" class="graph" transform="scale(1 1) rotate(0) translate(4 137)">
<title>ant::analysis::physics::EtapOmegaG::ProtonPhotonTree_t</title>
<polygon fill="white" stroke="white" points="-4,5 -4,-137 683,-137 683,5 -4,5"/>
<!-- Node0 -->
<g id="node1" class="node"><title>Node0</title>
<polygon fill="#bfbfbf" stroke="black" points="122.5,-69 122.5,-103 297.5,-103 297.5,-69 122.5,-69"/>
<text text-anchor="start" x="130.5" y="-90" font-family="Helvetica,sans-Serif" font-size="10.00">ant::analysis::physics</text>
<text text-anchor="middle" x="210" y="-77" font-family="Helvetica,sans-Serif" font-size="10.00">::EtapOmegaG::ProtonPhotonTree_t</text>
</g>
<!-- Node2 -->
<g id="node5" class="node"><title>Node2</title>
<a xlink:href="structant_1_1analysis_1_1physics_1_1_etap_omega_g_1_1_ref__t_1_1_tree__t.html" target="_top" xlink:title="ant::analysis::physics\l::EtapOmegaG::Ref_t::Tree_t">
<polygon fill="white" stroke="black" points="334,-99 334,-133 480,-133 480,-99 334,-99"/>
<text text-anchor="start" x="342" y="-120" font-family="Helvetica,sans-Serif" font-size="10.00">ant::analysis::physics</text>
<text text-anchor="middle" x="407" y="-107" font-family="Helvetica,sans-Serif" font-size="10.00">::EtapOmegaG::Ref_t::Tree_t</text>
</a>
</g>
<!-- Node0&#45;&gt;Node2 -->
<g id="edge4" class="edge"><title>Node0&#45;&gt;Node2</title>
<path fill="none" stroke="midnightblue" d="M307.536,-100.853C316.395,-102.202 325.264,-103.553 333.857,-104.861"/>
<polygon fill="midnightblue" stroke="midnightblue" points="307.967,-97.3786 297.554,-99.3331 306.913,-104.299 307.967,-97.3786"/>
</g>
<!-- Node3 -->
<g id="node7" class="node"><title>Node3</title>
<a xlink:href="structant_1_1analysis_1_1physics_1_1_etap_omega_g_1_1_sig__t_1_1_fit__t_1_1_base_tree__t.html" target="_top" xlink:title="ant::analysis::physics\l::EtapOmegaG::Sig_t::Fit\l_t::BaseTree_t">
<polygon fill="white" stroke="black" points="343,-33.5 343,-80.5 471,-80.5 471,-33.5 343,-33.5"/>
<text text-anchor="start" x="351" y="-67.5" font-family="Helvetica,sans-Serif" font-size="10.00">ant::analysis::physics</text>
<text text-anchor="start" x="351" y="-54.5" font-family="Helvetica,sans-Serif" font-size="10.00">::EtapOmegaG::Sig_t::Fit</text>
<text text-anchor="middle" x="407" y="-41.5" font-family="Helvetica,sans-Serif" font-size="10.00">_t::BaseTree_t</text>
</a>
</g>
<!-- Node0&#45;&gt;Node3 -->
<g id="edge6" class="edge"><title>Node0&#45;&gt;Node3</title>
<path fill="none" stroke="midnightblue" d="M307.57,-71.6369C319.517,-69.8782 331.483,-68.1168 342.763,-66.4562"/>
<polygon fill="midnightblue" stroke="midnightblue" points="306.938,-68.1921 297.554,-73.1113 307.957,-75.1175 306.938,-68.1921"/>
</g>
<!-- Node1 -->
<g id="node2" class="node"><title>Node1</title>
<a xlink:href="classant_1_1_wrap_t_tree.html" target="_top" xlink:title="The WrapTTree struct simplifies TTree handling in physics classes. ">
<polygon fill="white" stroke="black" points="0.5,-75.5 0.5,-96.5 85.5,-96.5 85.5,-75.5 0.5,-75.5"/>
<text text-anchor="middle" x="43" y="-83.5" font-family="Helvetica,sans-Serif" font-size="10.00">ant::WrapTTree</text>
</a>
</g>
<!-- Node1&#45;&gt;Node0 -->
<g id="edge2" class="edge"><title>Node1&#45;&gt;Node0</title>
<path fill="none" stroke="midnightblue" d="M95.6826,-86C104.196,-86 113.207,-86 122.285,-86"/>
<polygon fill="midnightblue" stroke="midnightblue" points="95.5733,-82.5001 85.5733,-86 95.5732,-89.5001 95.5733,-82.5001"/>
</g>
<!-- Node4 -->
<g id="node9" class="node"><title>Node4</title>
<a xlink:href="structant_1_1analysis_1_1physics_1_1_etap_omega_g_1_1_sig__t_1_1_omega_pi0__t_1_1_tree__t.html" target="_top" xlink:title="ant::analysis::physics\l::EtapOmegaG::Sig_t::OmegaPi0\l_t::Tree_t">
<polygon fill="white" stroke="black" points="516,-66.5 516,-113.5 678,-113.5 678,-66.5 516,-66.5"/>
<text text-anchor="start" x="524" y="-100.5" font-family="Helvetica,sans-Serif" font-size="10.00">ant::analysis::physics</text>
<text text-anchor="start" x="524" y="-87.5" font-family="Helvetica,sans-Serif" font-size="10.00">::EtapOmegaG::Sig_t::OmegaPi0</text>
<text text-anchor="middle" x="597" y="-74.5" font-family="Helvetica,sans-Serif" font-size="10.00">_t::Tree_t</text>
</a>
</g>
<!-- Node3&#45;&gt;Node4 -->
<g id="edge8" class="edge"><title>Node3&#45;&gt;Node4</title>
<path fill="none" stroke="midnightblue" d="M480.944,-69.8429C492.335,-71.8214 504.152,-73.8738 515.694,-75.8784"/>
<polygon fill="midnightblue" stroke="midnightblue" points="481.512,-66.3892 471.06,-68.1263 480.314,-73.286 481.512,-66.3892"/>
</g>
<!-- Node5 -->
<g id="node11" class="node"><title>Node5</title>
<a xlink:href="structant_1_1analysis_1_1physics_1_1_etap_omega_g_1_1_sig__t_1_1_pi0__t_1_1_tree__t.html" target="_top" xlink:title="ant::analysis::physics\l::EtapOmegaG::Sig_t::Pi0\l_t::Tree_t">
<polygon fill="white" stroke="black" points="531.5,-0.5 531.5,-47.5 662.5,-47.5 662.5,-0.5 531.5,-0.5"/>
<text text-anchor="start" x="539.5" y="-34.5" font-family="Helvetica,sans-Serif" font-size="10.00">ant::analysis::physics</text>
<text text-anchor="start" x="539.5" y="-21.5" font-family="Helvetica,sans-Serif" font-size="10.00">::EtapOmegaG::Sig_t::Pi0</text>
<text text-anchor="middle" x="597" y="-8.5" font-family="Helvetica,sans-Serif" font-size="10.00">_t::Tree_t</text>
</a>
</g>
<!-- Node3&#45;&gt;Node5 -->
<g id="edge10" class="edge"><title>Node3&#45;&gt;Node5</title>
<path fill="none" stroke="midnightblue" d="M481.211,-44.1106C497.728,-41.242 515.126,-38.2202 531.274,-35.4156"/>
<polygon fill="midnightblue" stroke="midnightblue" points="480.314,-40.714 471.06,-45.8737 481.512,-47.6108 480.314,-40.714"/>
</g>
</g>
</svg>
