<?xml version="1.0" encoding="UTF-8" standalone="no"?>
<!DOCTYPE svg PUBLIC "-//W3C//DTD SVG 1.1//EN"
 "http://www.w3.org/Graphics/SVG/1.1/DTD/svg11.dtd">
<!-- Generated by graphviz version 2.26.3 (20100126.1600)
 -->
<!-- Title: ant::TTree_drawable Pages: 1 -->
<svg width="199pt" height="254pt"
 viewBox="0.00 0.00 199.00 254.00" xmlns="http://www.w3.org/2000/svg" xmlns:xlink="http://www.w3.org/1999/xlink">
<g id="graph1" class="graph" transform="scale(1 1) rotate(0) translate(4 250)">
<title>ant::TTree_drawable</title>
<polygon fill="white" stroke="white" points="-4,5 -4,-250 196,-250 196,5 -4,5"/>
<!-- Node2 -->
<g id="node1" class="node"><title>Node2</title>
<polygon fill="#bfbfbf" stroke="black" points="27,-0.5 27,-21.5 133,-21.5 133,-0.5 27,-0.5"/>
<text text-anchor="middle" x="80" y="-8.5" font-family="Helvetica,sans-Serif" font-size="10.00">ant::TTree_drawable</text>
</g>
<!-- Node3 -->
<g id="node2" class="node"><title>Node3</title>
<a xlink:href="structant_1_1root__drawable__traits.html" target="_top" xlink:title="ant::root_drawable\l_traits">
<polygon fill="white" stroke="black" points="-0.5,-137 -0.5,-171 96.5,-171 96.5,-137 -0.5,-137"/>
<text text-anchor="start" x="7.5" y="-158" font-family="Helvetica,sans-Serif" font-size="10.00">ant::root_drawable</text>
<text text-anchor="middle" x="48" y="-145" font-family="Helvetica,sans-Serif" font-size="10.00">_traits</text>
</a>
</g>
<!-- Node3&#45;&gt;Node2 -->
<g id="edge2" class="edge"><title>Node3&#45;&gt;Node2</title>
<path fill="none" stroke="midnightblue" d="M54.0925,-126.774C61.2092,-94.9714 72.6382,-43.8979 77.5868,-21.7839"/>
<polygon fill="midnightblue" stroke="midnightblue" points="50.6282,-126.228 51.8599,-136.751 57.4593,-127.757 50.6282,-126.228"/>
</g>
<!-- Node4 -->
<g id="node4" class="node"><title>Node4</title>
<a xlink:title="STL class. ">
<polygon fill="white" stroke="#bfbfbf" points="114,-143.5 114,-164.5 174,-164.5 174,-143.5 114,-143.5"/>
<text text-anchor="middle" x="144" y="-151.5" font-family="Helvetica,sans-Serif" font-size="10.00">std::string</text>
</a>
</g>
<!-- Node4&#45;&gt;Node2 -->
<g id="edge4" class="edge"><title>Node4&#45;&gt;Node2</title>
<path fill="none" stroke="#9a32cd" stroke-dasharray="5,2" d="M135.037,-133.973C121.317,-103.317 95.5747,-45.7998 84.8662,-21.873"/>
<polygon fill="#9a32cd" stroke="#9a32cd" points="131.91,-135.554 139.19,-143.252 138.299,-132.694 131.91,-135.554"/>
<text text-anchor="middle" x="145.5" y="-109" font-family="Helvetica,sans-Serif" font-size="10.00"> Formula</text>
<text text-anchor="middle" x="145.5" y="-96" font-family="Helvetica,sans-Serif" font-size="10.00">Title</text>
<text text-anchor="middle" x="145.5" y="-83" font-family="Helvetica,sans-Serif" font-size="10.00">Ylabel</text>
<text text-anchor="middle" x="145.5" y="-70" font-family="Helvetica,sans-Serif" font-size="10.00">Xlabel</text>
<text text-anchor="middle" x="145.5" y="-57" font-family="Helvetica,sans-Serif" font-size="10.00">Name</text>
<text text-anchor="middle" x="145.5" y="-44" font-family="Helvetica,sans-Serif" font-size="10.00">Cut</text>
</g>
<!-- Node5 -->
<g id="node6" class="node"><title>Node5</title>
<a xlink:title="STL class. ">
<polygon fill="white" stroke="#bfbfbf" points="96.5,-211 96.5,-245 191.5,-245 191.5,-211 96.5,-211"/>
<text text-anchor="start" x="104.5" y="-232" font-family="Helvetica,sans-Serif" font-size="10.00">std::basic_string&lt;</text>
<text text-anchor="middle" x="144" y="-219" font-family="Helvetica,sans-Serif" font-size="10.00"> char &gt;</text>
</a>
</g>
<!-- Node5&#45;&gt;Node4 -->
<g id="edge6" class="edge"><title>Node5&#45;&gt;Node4</title>
<path fill="none" stroke="midnightblue" d="M144,-200.506C144,-188.13 144,-174.232 144,-164.879"/>
<polygon fill="midnightblue" stroke="midnightblue" points="140.5,-200.837 144,-210.837 147.5,-200.837 140.5,-200.837"/>
</g>
</g>
</svg>
