<?xml version="1.0" encoding="UTF-8" standalone="no"?>
<!DOCTYPE svg PUBLIC "-//W3C//DTD SVG 1.1//EN"
 "http://www.w3.org/Graphics/SVG/1.1/DTD/svg11.dtd">
<!-- Generated by graphviz version 2.26.3 (20100126.1600)
 -->
<!-- Title: ant::expconfig::detector::Trigger Pages: 1 -->
<svg width="262pt" height="174pt"
 viewBox="0.00 0.00 262.00 174.00" xmlns="http://www.w3.org/2000/svg" xmlns:xlink="http://www.w3.org/1999/xlink">
<g id="graph1" class="graph" transform="scale(1 1) rotate(0) translate(4 170)">
<title>ant::expconfig::detector::Trigger</title>
<polygon fill="white" stroke="white" points="-4,5 -4,-170 259,-170 259,5 -4,5"/>
<!-- Node0 -->
<g id="node1" class="node"><title>Node0</title>
<polygon fill="#bfbfbf" stroke="black" points="67.5,-73 67.5,-107 186.5,-107 186.5,-73 67.5,-73"/>
<text text-anchor="start" x="75.5" y="-94" font-family="Helvetica,sans-Serif" font-size="10.00">ant::expconfig::detector</text>
<text text-anchor="middle" x="127" y="-81" font-family="Helvetica,sans-Serif" font-size="10.00">::Trigger</text>
</g>
<!-- Node3 -->
<g id="node7" class="node"><title>Node3</title>
<a xlink:href="structant_1_1expconfig_1_1detector_1_1_trigger__2007.html" target="_top" xlink:title="ant::expconfig::detector\l::Trigger_2007">
<polygon fill="white" stroke="black" points="-0.5,-1 -0.5,-35 118.5,-35 118.5,-1 -0.5,-1"/>
<text text-anchor="start" x="7.5" y="-22" font-family="Helvetica,sans-Serif" font-size="10.00">ant::expconfig::detector</text>
<text text-anchor="middle" x="59" y="-9" font-family="Helvetica,sans-Serif" font-size="10.00">::Trigger_2007</text>
</a>
</g>
<!-- Node0&#45;&gt;Node3 -->
<g id="edge6" class="edge"><title>Node0&#45;&gt;Node3</title>
<path fill="none" stroke="midnightblue" d="M103.746,-65.3785C94.4496,-55.5349 83.958,-44.4262 75.4717,-35.4407"/>
<polygon fill="midnightblue" stroke="midnightblue" points="101.474,-68.07 110.885,-72.937 106.563,-63.2637 101.474,-68.07"/>
</g>
<!-- Node4 -->
<g id="node9" class="node"><title>Node4</title>
<a xlink:href="structant_1_1expconfig_1_1detector_1_1_trigger__2014.html" target="_top" xlink:title="ant::expconfig::detector\l::Trigger_2014">
<polygon fill="white" stroke="black" points="135.5,-1 135.5,-35 254.5,-35 254.5,-1 135.5,-1"/>
<text text-anchor="start" x="143.5" y="-22" font-family="Helvetica,sans-Serif" font-size="10.00">ant::expconfig::detector</text>
<text text-anchor="middle" x="195" y="-9" font-family="Helvetica,sans-Serif" font-size="10.00">::Trigger_2014</text>
</a>
</g>
<!-- Node0&#45;&gt;Node4 -->
<g id="edge8" class="edge"><title>Node0&#45;&gt;Node4</title>
<path fill="none" stroke="midnightblue" d="M150.254,-65.3785C159.55,-55.5349 170.042,-44.4262 178.528,-35.4407"/>
<polygon fill="midnightblue" stroke="midnightblue" points="147.437,-63.2637 143.115,-72.937 152.526,-68.07 147.437,-63.2637"/>
</g>
<!-- Node1 -->
<g id="node2" class="node"><title>Node1</title>
<a xlink:href="structant_1_1_detector__t.html" target="_top" xlink:title="The Detector_t struct is the minimal base class for all detectors. ">
<polygon fill="white" stroke="black" points="25,-144.5 25,-165.5 107,-165.5 107,-144.5 25,-144.5"/>
<text text-anchor="middle" x="66" y="-152.5" font-family="Helvetica,sans-Serif" font-size="10.00">ant::Detector_t</text>
</a>
</g>
<!-- Node1&#45;&gt;Node0 -->
<g id="edge2" class="edge"><title>Node1&#45;&gt;Node0</title>
<path fill="none" stroke="midnightblue" d="M83.1676,-136.707C91.878,-127.425 102.395,-116.219 110.943,-107.11"/>
<polygon fill="midnightblue" stroke="midnightblue" points="80.3639,-134.58 76.0729,-144.267 85.4682,-139.37 80.3639,-134.58"/>
</g>
<!-- Node2 -->
<g id="node4" class="node"><title>Node2</title>
<a xlink:href="classant_1_1_unpacker_acqu_config.html" target="_top" xlink:title="ant::UnpackerAcquConfig">
<polygon fill="white" stroke="black" points="124.5,-144.5 124.5,-165.5 253.5,-165.5 253.5,-144.5 124.5,-144.5"/>
<text text-anchor="middle" x="189" y="-152.5" font-family="Helvetica,sans-Serif" font-size="10.00">ant::UnpackerAcquConfig</text>
</a>
</g>
<!-- Node2&#45;&gt;Node0 -->
<g id="edge4" class="edge"><title>Node2&#45;&gt;Node0</title>
<path fill="none" stroke="midnightblue" d="M171.819,-136.987C162.914,-127.652 152.097,-116.311 143.32,-107.11"/>
<polygon fill="midnightblue" stroke="midnightblue" points="169.327,-139.446 178.762,-144.267 174.392,-134.615 169.327,-139.446"/>
</g>
</g>
</svg>
