<?xml version="1.0" encoding="UTF-8" standalone="no"?>
<!DOCTYPE svg PUBLIC "-//W3C//DTD SVG 1.1//EN"
 "http://www.w3.org/Graphics/SVG/1.1/DTD/svg11.dtd">
<!-- Generated by graphviz version 2.26.3 (20100126.1600)
 -->
<!-- Title: ant::calibration::GUI_CalibType Pages: 1 -->
<svg width="694pt" height="183pt"
 viewBox="0.00 0.00 694.00 183.00" xmlns="http://www.w3.org/2000/svg" xmlns:xlink="http://www.w3.org/1999/xlink">
<g id="graph1" class="graph" transform="scale(1 1) rotate(0) translate(4 179)">
<title>ant::calibration::GUI_CalibType</title>
<polygon fill="white" stroke="white" points="-4,5 -4,-179 691,-179 691,5 -4,5"/>
<!-- Node10 -->
<g id="node1" class="node"><title>Node10</title>
<polygon fill="#bfbfbf" stroke="black" points="582,-72 582,-106 686,-106 686,-72 582,-72"/>
<text text-anchor="start" x="590" y="-93" font-family="Helvetica,sans-Serif" font-size="10.00">ant::calibration::GUI</text>
<text text-anchor="middle" x="634" y="-80" font-family="Helvetica,sans-Serif" font-size="10.00">_CalibType</text>
</g>
<!-- Node11 -->
<g id="node2" class="node"><title>Node11</title>
<a xlink:href="classant_1_1calibration_1_1gui_1_1_calib_module__traits.html" target="_top" xlink:title="ant::calibration::gui\l::CalibModule_traits">
<polygon fill="white" stroke="black" points="366,-141 366,-175 470,-175 470,-141 366,-141"/>
<text text-anchor="start" x="374" y="-162" font-family="Helvetica,sans-Serif" font-size="10.00">ant::calibration::gui</text>
<text text-anchor="middle" x="418" y="-149" font-family="Helvetica,sans-Serif" font-size="10.00">::CalibModule_traits</text>
</a>
</g>
<!-- Node11&#45;&gt;Node10 -->
<g id="edge2" class="edge"><title>Node11&#45;&gt;Node10</title>
<path fill="none" stroke="midnightblue" d="M480.034,-143.529C506.208,-136.884 536.847,-128.39 564,-119 574.871,-115.24 586.438,-110.571 596.972,-106.045"/>
<polygon fill="midnightblue" stroke="midnightblue" points="479.088,-140.158 470.238,-145.983 480.789,-146.948 479.088,-140.158"/>
</g>
<!-- Node12 -->
<g id="node4" class="node"><title>Node12</title>
<a xlink:href="structant_1_1calibration_1_1_calib_type.html" target="_top" xlink:title="The CalibType struct stores the data for the Updateable interface and for the GUI. ">
<polygon fill="white" stroke="black" points="352.5,-101.5 352.5,-122.5 483.5,-122.5 483.5,-101.5 352.5,-101.5"/>
<text text-anchor="middle" x="418" y="-109.5" font-family="Helvetica,sans-Serif" font-size="10.00">ant::calibration::CalibType</text>
</a>
</g>
<!-- Node12&#45;&gt;Node10 -->
<g id="edge4" class="edge"><title>Node12&#45;&gt;Node10</title>
<path fill="none" stroke="#9a32cd" stroke-dasharray="5,2" d="M493.837,-103.925C522.982,-100.821 555.567,-97.3517 581.978,-94.5394"/>
<polygon fill="#9a32cd" stroke="#9a32cd" points="493.26,-100.466 483.687,-105.006 494.001,-107.427 493.26,-100.466"/>
<text text-anchor="middle" x="533" y="-106" font-family="Helvetica,sans-Serif" font-size="10.00"> calibType</text>
</g>
<!-- Node13 -->
<g id="node6" class="node"><title>Node13</title>
<a xlink:title="STL class. ">
<polygon fill="white" stroke="#bfbfbf" points="159,-128.5 159,-149.5 219,-149.5 219,-128.5 159,-128.5"/>
<text text-anchor="middle" x="189" y="-136.5" font-family="Helvetica,sans-Serif" font-size="10.00">std::string</text>
</a>
</g>
<!-- Node13&#45;&gt;Node12 -->
<g id="edge6" class="edge"><title>Node13&#45;&gt;Node12</title>
<path fill="none" stroke="#9a32cd" stroke-dasharray="5,2" d="M229.432,-134.233C263.389,-130.229 312.572,-124.43 352.194,-119.759"/>
<polygon fill="#9a32cd" stroke="#9a32cd" points="228.931,-130.768 219.409,-135.415 229.75,-137.72 228.931,-130.768"/>
<text text-anchor="middle" x="298" y="-147" font-family="Helvetica,sans-Serif" font-size="10.00"> Name</text>
<text text-anchor="middle" x="298" y="-134" font-family="Helvetica,sans-Serif" font-size="10.00">HistogramName</text>
</g>
<!-- Node14 -->
<g id="node8" class="node"><title>Node14</title>
<a xlink:title="STL class. ">
<polygon fill="white" stroke="#bfbfbf" points="0.5,-122 0.5,-156 95.5,-156 95.5,-122 0.5,-122"/>
<text text-anchor="start" x="8.5" y="-143" font-family="Helvetica,sans-Serif" font-size="10.00">std::basic_string&lt;</text>
<text text-anchor="middle" x="48" y="-130" font-family="Helvetica,sans-Serif" font-size="10.00"> char &gt;</text>
</a>
</g>
<!-- Node14&#45;&gt;Node13 -->
<g id="edge8" class="edge"><title>Node14&#45;&gt;Node13</title>
<path fill="none" stroke="midnightblue" d="M105.989,-139C124.191,-139 143.543,-139 158.979,-139"/>
<polygon fill="midnightblue" stroke="midnightblue" points="105.736,-135.5 95.7362,-139 105.736,-142.5 105.736,-135.5"/>
</g>
<!-- Node15 -->
<g id="node10" class="node"><title>Node15</title>
<polygon fill="white" stroke="#bfbfbf" points="134,-59.5 134,-80.5 244,-80.5 244,-59.5 134,-59.5"/>
<text text-anchor="middle" x="189" y="-67.5" font-family="Helvetica,sans-Serif" font-size="10.00">std::vector&lt; double &gt;</text>
</g>
<!-- Node15&#45;&gt;Node10 -->
<g id="edge16" class="edge"><title>Node15&#45;&gt;Node10</title>
<path fill="none" stroke="#9a32cd" stroke-dasharray="5,2" d="M254.265,-71.316C314.06,-72.6821 405.02,-75.1638 484,-79 516.586,-80.5828 553.112,-83.004 581.962,-85.0676"/>
<polygon fill="#9a32cd" stroke="#9a32cd" points="254.285,-67.8156 244.209,-71.09 254.128,-74.8139 254.285,-67.8156"/>
<text text-anchor="middle" x="418" y="-83" font-family="Helvetica,sans-Serif" font-size="10.00"> previousValues</text>
</g>
<!-- Node15&#45;&gt;Node12 -->
<g id="edge10" class="edge"><title>Node15&#45;&gt;Node12</title>
<path fill="none" stroke="#9a32cd" stroke-dasharray="5,2" d="M254.3,-81.9764C287.8,-88.1206 328.239,-95.5374 360.543,-101.462"/>
<polygon fill="#9a32cd" stroke="#9a32cd" points="254.61,-78.475 244.143,-80.1135 253.347,-85.3601 254.61,-78.475"/>
<text text-anchor="middle" x="298" y="-99" font-family="Helvetica,sans-Serif" font-size="10.00"> Values</text>
</g>
<!-- Node16 -->
<g id="node12" class="node"><title>Node16</title>
<polygon fill="white" stroke="#bfbfbf" points="357,-0 357,-34 479,-34 479,-0 357,-0"/>
<text text-anchor="start" x="365" y="-21" font-family="Helvetica,sans-Serif" font-size="10.00">std::map&lt; unsigned,</text>
<text text-anchor="middle" x="418" y="-8" font-family="Helvetica,sans-Serif" font-size="10.00"> std::vector&lt; double &gt; &gt;</text>
</g>
<!-- Node15&#45;&gt;Node16 -->
<g id="edge14" class="edge"><title>Node15&#45;&gt;Node16</title>
<path fill="none" stroke="#9a32cd" stroke-dasharray="5,2" d="M223.598,-55.6787C235.6,-51.121 249.247,-46.3887 262,-43 292.782,-34.8211 327.698,-28.7159 356.681,-24.4845"/>
<polygon fill="#9a32cd" stroke="#9a32cd" points="222.007,-52.5423 213.959,-59.4329 224.547,-59.0651 222.007,-52.5423"/>
<text text-anchor="middle" x="298" y="-47" font-family="Helvetica,sans-Serif" font-size="10.00"> elements</text>
</g>
<!-- Node16&#45;&gt;Node10 -->
<g id="edge12" class="edge"><title>Node16&#45;&gt;Node10</title>
<path fill="none" stroke="#9a32cd" stroke-dasharray="5,2" d="M489.08,-23.7724C513.428,-27.6187 540.453,-33.6276 564,-43 581.699,-50.0449 599.615,-61.9252 612.89,-71.8474"/>
<polygon fill="#9a32cd" stroke="#9a32cd" points="489.591,-20.3099 479.185,-22.3026 488.563,-27.234 489.591,-20.3099"/>
<text text-anchor="middle" x="533" y="-47" font-family="Helvetica,sans-Serif" font-size="10.00"> fitParameters</text>
</g>
</g>
</svg>
