<?xml version="1.0" encoding="UTF-8" standalone="no"?>
<!DOCTYPE svg PUBLIC "-//W3C//DTD SVG 1.1//EN"
 "http://www.w3.org/Graphics/SVG/1.1/DTD/svg11.dtd">
<!-- Generated by graphviz version 2.26.3 (20100126.1600)
 -->
<!-- Title: ant::Array2D Pages: 1 -->
<svg width="230pt" height="102pt"
 viewBox="0.00 0.00 230.00 102.00" xmlns="http://www.w3.org/2000/svg" xmlns:xlink="http://www.w3.org/1999/xlink">
<g id="graph1" class="graph" transform="scale(1 1) rotate(0) translate(4 98)">
<title>ant::Array2D</title>
<polygon fill="white" stroke="white" points="-4,5 -4,-98 227,-98 227,5 -4,5"/>
<!-- Node2 -->
<g id="node1" class="node"><title>Node2</title>
<polygon fill="#bfbfbf" stroke="black" points="71,-0.5 71,-21.5 143,-21.5 143,-0.5 71,-0.5"/>
<text text-anchor="middle" x="107" y="-8.5" font-family="Helvetica,sans-Serif" font-size="10.00">ant::Array2D</text>
</g>
<!-- Node3 -->
<g id="node2" class="node"><title>Node3</title>
<a xlink:href="structant_1_1_array2_d_base.html" target="_top" xlink:title="ant::Array2DBase">
<polygon fill="white" stroke="black" points="-0.5,-72.5 -0.5,-93.5 94.5,-93.5 94.5,-72.5 -0.5,-72.5"/>
<text text-anchor="middle" x="47" y="-80.5" font-family="Helvetica,sans-Serif" font-size="10.00">ant::Array2DBase</text>
</a>
</g>
<!-- Node3&#45;&gt;Node2 -->
<g id="edge2" class="edge"><title>Node3&#45;&gt;Node2</title>
<path fill="none" stroke="midnightblue" d="M62.3466,-64.5841C73.6762,-50.9886 88.7017,-32.9579 98.1105,-21.6674"/>
<polygon fill="midnightblue" stroke="midnightblue" points="59.5663,-62.4533 55.8532,-72.3762 64.9439,-66.9346 59.5663,-62.4533"/>
</g>
<!-- Node4 -->
<g id="node4" class="node"><title>Node4</title>
<polygon fill="white" stroke="#bfbfbf" points="112,-72.5 112,-93.5 222,-93.5 222,-72.5 112,-72.5"/>
<text text-anchor="middle" x="167" y="-80.5" font-family="Helvetica,sans-Serif" font-size="10.00">std::vector&lt; double &gt;</text>
</g>
<!-- Node4&#45;&gt;Node2 -->
<g id="edge4" class="edge"><title>Node4&#45;&gt;Node2</title>
<path fill="none" stroke="#9a32cd" stroke-dasharray="5,2" d="M151.653,-64.5841C140.324,-50.9886 125.298,-32.9579 115.89,-21.6674"/>
<polygon fill="#9a32cd" stroke="#9a32cd" points="149.056,-66.9346 158.147,-72.3762 154.434,-62.4533 149.056,-66.9346"/>
<text text-anchor="middle" x="153" y="-44.5" font-family="Helvetica,sans-Serif" font-size="10.00"> data</text>
</g>
</g>
</svg>
