<?xml version="1.0" encoding="UTF-8" standalone="no"?>
<!DOCTYPE svg PUBLIC "-//W3C//DTD SVG 1.1//EN"
 "http://www.w3.org/Graphics/SVG/1.1/DTD/svg11.dtd">
<!-- Generated by graphviz version 2.26.3 (20100126.1600)
 -->
<!-- Title: triplePi0_Plot::TriplePi0Hist_t::HistMgr&lt; Hist &gt; Pages: 1 -->
<svg width="126pt" height="190pt"
 viewBox="0.00 0.00 126.00 190.00" xmlns="http://www.w3.org/2000/svg" xmlns:xlink="http://www.w3.org/1999/xlink">
<g id="graph1" class="graph" transform="scale(1 1) rotate(0) translate(4 186)">
<title>triplePi0_Plot::TriplePi0Hist_t::HistMgr&lt; Hist &gt;</title>
<polygon fill="white" stroke="white" points="-4,5 -4,-186 123,-186 123,5 -4,5"/>
<!-- Node2 -->
<g id="node1" class="node"><title>Node2</title>
<polygon fill="#bfbfbf" stroke="black" points="-0.5,-1 -0.5,-35 118.5,-35 118.5,-1 -0.5,-1"/>
<text text-anchor="start" x="7.5" y="-22" font-family="Helvetica,sans-Serif" font-size="10.00">triplePi0_Plot::TriplePi0</text>
<text text-anchor="middle" x="59" y="-9" font-family="Helvetica,sans-Serif" font-size="10.00">Hist_t::HistMgr&lt; Hist &gt;</text>
</g>
<!-- Node3 -->
<g id="node2" class="node"><title>Node3</title>
<a xlink:title="STL class. ">
<polygon fill="white" stroke="#bfbfbf" points="10.5,-75 10.5,-109 107.5,-109 107.5,-75 10.5,-75"/>
<text text-anchor="start" x="18.5" y="-96" font-family="Helvetica,sans-Serif" font-size="10.00">std::list&lt; HistFiller</text>
<text text-anchor="middle" x="59" y="-83" font-family="Helvetica,sans-Serif" font-size="10.00">_t&lt; Hist &gt; &gt;</text>
</a>
</g>
<!-- Node3&#45;&gt;Node2 -->
<g id="edge2" class="edge"><title>Node3&#45;&gt;Node2</title>
<path fill="none" stroke="midnightblue" d="M59,-64.6275C59,-54.7253 59,-43.8344 59,-35.07"/>
<polygon fill="midnightblue" stroke="midnightblue" points="55.5001,-64.8369 59,-74.8369 62.5001,-64.8369 55.5001,-64.8369"/>
</g>
<!-- Node4 -->
<g id="node4" class="node"><title>Node4</title>
<polygon fill="white" stroke="#bfbfbf" points="44.5,-160.5 44.5,-181.5 73.5,-181.5 73.5,-160.5 44.5,-160.5"/>
<text text-anchor="middle" x="59" y="-168.5" font-family="Helvetica,sans-Serif" font-size="10.00">T</text>
</g>
<!-- Node4&#45;&gt;Node3 -->
<g id="edge4" class="edge"><title>Node4&#45;&gt;Node3</title>
<path fill="none" stroke="#9a32cd" stroke-dasharray="5,2" d="M59,-150.162C59,-137.363 59,-121.171 59,-109.124"/>
<polygon fill="#9a32cd" stroke="#9a32cd" points="55.5001,-150.346 59,-160.346 62.5001,-150.346 55.5001,-150.346"/>
<text text-anchor="middle" x="80.5" y="-132.5" font-family="Helvetica,sans-Serif" font-size="10.00"> elements</text>
</g>
</g>
</svg>
