<?xml version="1.0" encoding="UTF-8" standalone="no"?>
<!DOCTYPE svg PUBLIC "-//W3C//DTD SVG 1.1//EN"
 "http://www.w3.org/Graphics/SVG/1.1/DTD/svg11.dtd">
<!-- Generated by graphviz version 2.26.3 (20100126.1600)
 -->
<!-- Title: ant::analysis::utils::ProtonPhotonCombs::comb_t Pages: 1 -->
<svg width="554pt" height="126pt"
 viewBox="0.00 0.00 554.00 126.00" xmlns="http://www.w3.org/2000/svg" xmlns:xlink="http://www.w3.org/1999/xlink">
<g id="graph1" class="graph" transform="scale(1 1) rotate(0) translate(4 122)">
<title>ant::analysis::utils::ProtonPhotonCombs::comb_t</title>
<polygon fill="white" stroke="white" points="-4,5 -4,-122 551,-122 551,5 -4,5"/>
<!-- Node1 -->
<g id="node1" class="node"><title>Node1</title>
<polygon fill="#bfbfbf" stroke="black" points="426.5,-31.5 426.5,-78.5 545.5,-78.5 545.5,-31.5 426.5,-31.5"/>
<text text-anchor="start" x="434.5" y="-65.5" font-family="Helvetica,sans-Serif" font-size="10.00">ant::analysis::utils</text>
<text text-anchor="start" x="434.5" y="-52.5" font-family="Helvetica,sans-Serif" font-size="10.00">::ProtonPhotonCombs::</text>
<text text-anchor="middle" x="486" y="-39.5" font-family="Helvetica,sans-Serif" font-size="10.00">comb_t</text>
</g>
<!-- Node2 -->
<g id="node2" class="node"><title>Node2</title>
<a xlink:href="structant_1_1std__ext_1_1cc__shared__ptr.html" target="_top" xlink:title="ant::std_ext::cc_shared\l_ptr\&lt; TParticle \&gt;">
<polygon fill="white" stroke="black" points="207.5,-84 207.5,-118 326.5,-118 326.5,-84 207.5,-84"/>
<text text-anchor="start" x="215.5" y="-105" font-family="Helvetica,sans-Serif" font-size="10.00">ant::std_ext::cc_shared</text>
<text text-anchor="middle" x="267" y="-92" font-family="Helvetica,sans-Serif" font-size="10.00">_ptr&lt; TParticle &gt;</text>
</a>
</g>
<!-- Node2&#45;&gt;Node1 -->
<g id="edge2" class="edge"><title>Node2&#45;&gt;Node1</title>
<path fill="none" stroke="#9a32cd" stroke-dasharray="5,2" d="M336.636,-86.8466C359.395,-82.1758 384.786,-76.9169 408,-72 413.966,-70.7364 420.185,-69.405 426.395,-68.0664"/>
<polygon fill="#9a32cd" stroke="#9a32cd" points="335.814,-83.4422 326.721,-88.8786 337.22,-90.2997 335.814,-83.4422"/>
<text text-anchor="middle" x="380" y="-87" font-family="Helvetica,sans-Serif" font-size="10.00"> Proton</text>
</g>
<!-- Node3 -->
<g id="node4" class="node"><title>Node3</title>
<polygon fill="white" stroke="#bfbfbf" points="200.5,-44.5 200.5,-65.5 333.5,-65.5 333.5,-44.5 200.5,-44.5"/>
<text text-anchor="middle" x="267" y="-52.5" font-family="Helvetica,sans-Serif" font-size="10.00">std::vector&lt; TParticlePtr &gt;</text>
</g>
<!-- Node3&#45;&gt;Node1 -->
<g id="edge4" class="edge"><title>Node3&#45;&gt;Node1</title>
<path fill="none" stroke="#9a32cd" stroke-dasharray="5,2" d="M343.825,-55C370.921,-55 400.956,-55 426.412,-55"/>
<polygon fill="#9a32cd" stroke="#9a32cd" points="343.599,-51.5001 333.599,-55 343.599,-58.5001 343.599,-51.5001"/>
<text text-anchor="middle" x="380" y="-59" font-family="Helvetica,sans-Serif" font-size="10.00"> Photons</text>
</g>
<!-- Node4 -->
<g id="node6" class="node"><title>Node4</title>
<a xlink:href="structant_1_1std__ext_1_1cc__shared__ptr.html" target="_top" xlink:title="ant::std_ext::cc_shared\l_ptr\&lt; T \&gt;">
<polygon fill="white" stroke="black" points="0.5,-40 0.5,-74 119.5,-74 119.5,-40 0.5,-40"/>
<text text-anchor="start" x="8.5" y="-61" font-family="Helvetica,sans-Serif" font-size="10.00">ant::std_ext::cc_shared</text>
<text text-anchor="middle" x="60" y="-48" font-family="Helvetica,sans-Serif" font-size="10.00">_ptr&lt; T &gt;</text>
</a>
</g>
<!-- Node4&#45;&gt;Node3 -->
<g id="edge6" class="edge"><title>Node4&#45;&gt;Node3</title>
<path fill="none" stroke="#9a32cd" stroke-dasharray="5,2" d="M129.844,-56.3252C152.561,-56.1057 177.705,-55.8628 200.194,-55.6455"/>
<polygon fill="#9a32cd" stroke="#9a32cd" points="129.561,-52.8277 119.595,-56.4242 129.629,-59.8273 129.561,-52.8277"/>
<text text-anchor="middle" x="160" y="-60" font-family="Helvetica,sans-Serif" font-size="10.00"> elements</text>
</g>
<!-- Node5 -->
<g id="node8" class="node"><title>Node5</title>
<a xlink:href="structant_1_1_lorentz_vec.html" target="_top" xlink:title="A Lorentz vector (x,y,z,E), diag(&#45;1,&#45;1,&#45;1, 1) ">
<polygon fill="white" stroke="black" points="224,-3.5 224,-24.5 310,-24.5 310,-3.5 224,-3.5"/>
<text text-anchor="middle" x="267" y="-11.5" font-family="Helvetica,sans-Serif" font-size="10.00">ant::LorentzVec</text>
</a>
</g>
<!-- Node5&#45;&gt;Node1 -->
<g id="edge8" class="edge"><title>Node5&#45;&gt;Node1</title>
<path fill="none" stroke="#9a32cd" stroke-dasharray="5,2" d="M320.47,-22.5065C346.869,-26.8575 379.163,-32.4063 408,-38 413.987,-39.1613 420.22,-40.4255 426.437,-41.7231"/>
<polygon fill="#9a32cd" stroke="#9a32cd" points="320.725,-19.0017 310.291,-20.8398 319.594,-25.9097 320.725,-19.0017"/>
<text text-anchor="middle" x="380" y="-42" font-family="Helvetica,sans-Serif" font-size="10.00"> PhotonSum</text>
</g>
<!-- Node6 -->
<g id="node10" class="node"><title>Node6</title>
<a xlink:href="structant_1_1vec3.html" target="_top" xlink:title="ant::vec3">
<polygon fill="white" stroke="black" points="31.5,-0.5 31.5,-21.5 88.5,-21.5 88.5,-0.5 31.5,-0.5"/>
<text text-anchor="middle" x="60" y="-8.5" font-family="Helvetica,sans-Serif" font-size="10.00">ant::vec3</text>
</a>
</g>
<!-- Node6&#45;&gt;Node5 -->
<g id="edge10" class="edge"><title>Node6&#45;&gt;Node5</title>
<path fill="none" stroke="#9a32cd" stroke-dasharray="5,2" d="M99.232,-11.5686C134.746,-12.0833 186.968,-12.8401 223.693,-13.3724"/>
<polygon fill="#9a32cd" stroke="#9a32cd" points="98.8322,-8.06251 88.7825,-11.4171 98.7307,-15.0618 98.8322,-8.06251"/>
<text text-anchor="middle" x="160" y="-16" font-family="Helvetica,sans-Serif" font-size="10.00"> p</text>
</g>
</g>
</svg>
