<?xml version="1.0" encoding="UTF-8" standalone="no"?>
<!DOCTYPE svg PUBLIC "-//W3C//DTD SVG 1.1//EN"
 "http://www.w3.org/Graphics/SVG/1.1/DTD/svg11.dtd">
<!-- Generated by graphviz version 2.26.3 (20100126.1600)
 -->
<!-- Title: ant::TaggerDetector_t Pages: 1 -->
<svg width="576pt" height="146pt"
 viewBox="0.00 0.00 576.00 146.00" xmlns="http://www.w3.org/2000/svg" xmlns:xlink="http://www.w3.org/1999/xlink">
<g id="graph1" class="graph" transform="scale(1 1) rotate(0) translate(4 142)">
<title>ant::TaggerDetector_t</title>
<polygon fill="white" stroke="white" points="-4,5 -4,-142 573,-142 573,5 -4,5"/>
<!-- Node0 -->
<g id="node1" class="node"><title>Node0</title>
<polygon fill="#bfbfbf" stroke="black" points="118,-81.5 118,-102.5 230,-102.5 230,-81.5 118,-81.5"/>
<text text-anchor="middle" x="174" y="-89.5" font-family="Helvetica,sans-Serif" font-size="10.00">ant::TaggerDetector_t</text>
</g>
<!-- Node2 -->
<g id="node5" class="node"><title>Node2</title>
<a xlink:href="structant_1_1expconfig_1_1detector_1_1_e_p_t.html" target="_top" xlink:title="ant::expconfig::detector::EPT">
<polygon fill="white" stroke="black" points="266.5,-107.5 266.5,-128.5 411.5,-128.5 411.5,-107.5 266.5,-107.5"/>
<text text-anchor="middle" x="339" y="-115.5" font-family="Helvetica,sans-Serif" font-size="10.00">ant::expconfig::detector::EPT</text>
</a>
</g>
<!-- Node0&#45;&gt;Node2 -->
<g id="edge4" class="edge"><title>Node0&#45;&gt;Node2</title>
<path fill="none" stroke="midnightblue" d="M240.248,-102.439C250.743,-104.093 261.602,-105.804 272.111,-107.46"/>
<polygon fill="midnightblue" stroke="midnightblue" points="240.745,-98.9743 230.322,-100.875 239.655,-105.889 240.745,-98.9743"/>
</g>
<!-- Node4 -->
<g id="node9" class="node"><title>Node4</title>
<a xlink:href="structant_1_1expconfig_1_1detector_1_1_tagger.html" target="_top" xlink:title="ant::expconfig::detector\l::Tagger">
<polygon fill="white" stroke="black" points="279.5,-52 279.5,-86 398.5,-86 398.5,-52 279.5,-52"/>
<text text-anchor="start" x="287.5" y="-73" font-family="Helvetica,sans-Serif" font-size="10.00">ant::expconfig::detector</text>
<text text-anchor="middle" x="339" y="-60" font-family="Helvetica,sans-Serif" font-size="10.00">::Tagger</text>
</a>
</g>
<!-- Node0&#45;&gt;Node4 -->
<g id="edge8" class="edge"><title>Node0&#45;&gt;Node4</title>
<path fill="none" stroke="midnightblue" d="M240.472,-82.7343C253.302,-80.9458 266.67,-79.0823 279.27,-77.326"/>
<polygon fill="midnightblue" stroke="midnightblue" points="239.743,-79.3019 230.322,-84.149 240.71,-86.2348 239.743,-79.3019"/>
</g>
<!-- Node1 -->
<g id="node2" class="node"><title>Node1</title>
<a xlink:href="structant_1_1_detector__t.html" target="_top" xlink:title="The Detector_t struct is the minimal base class for all detectors. ">
<polygon fill="white" stroke="black" points="0,-81.5 0,-102.5 82,-102.5 82,-81.5 0,-81.5"/>
<text text-anchor="middle" x="41" y="-89.5" font-family="Helvetica,sans-Serif" font-size="10.00">ant::Detector_t</text>
</a>
</g>
<!-- Node1&#45;&gt;Node0 -->
<g id="edge2" class="edge"><title>Node1&#45;&gt;Node0</title>
<path fill="none" stroke="midnightblue" d="M92.5199,-92C100.713,-92 109.227,-92 117.527,-92"/>
<polygon fill="midnightblue" stroke="midnightblue" points="92.353,-88.5001 82.353,-92 92.3529,-95.5001 92.353,-88.5001"/>
</g>
<!-- Node3 -->
<g id="node7" class="node"><title>Node3</title>
<a xlink:href="structant_1_1expconfig_1_1detector_1_1_e_p_t__2014.html" target="_top" xlink:title="ant::expconfig::detector\l::EPT_2014">
<polygon fill="white" stroke="black" points="448.5,-104 448.5,-138 567.5,-138 567.5,-104 448.5,-104"/>
<text text-anchor="start" x="456.5" y="-125" font-family="Helvetica,sans-Serif" font-size="10.00">ant::expconfig::detector</text>
<text text-anchor="middle" x="508" y="-112" font-family="Helvetica,sans-Serif" font-size="10.00">::EPT_2014</text>
</a>
</g>
<!-- Node2&#45;&gt;Node3 -->
<g id="edge6" class="edge"><title>Node2&#45;&gt;Node3</title>
<path fill="none" stroke="midnightblue" d="M421.76,-119.469C430.743,-119.629 439.751,-119.788 448.38,-119.942"/>
<polygon fill="midnightblue" stroke="midnightblue" points="421.713,-115.968 411.652,-119.29 421.588,-122.967 421.713,-115.968"/>
</g>
<!-- Node5 -->
<g id="node11" class="node"><title>Node5</title>
<a xlink:href="structant_1_1expconfig_1_1detector_1_1_tagger__2007.html" target="_top" xlink:title="ant::expconfig::detector\l::Tagger_2007">
<polygon fill="white" stroke="black" points="448.5,-52 448.5,-86 567.5,-86 567.5,-52 448.5,-52"/>
<text text-anchor="start" x="456.5" y="-73" font-family="Helvetica,sans-Serif" font-size="10.00">ant::expconfig::detector</text>
<text text-anchor="middle" x="508" y="-60" font-family="Helvetica,sans-Serif" font-size="10.00">::Tagger_2007</text>
</a>
</g>
<!-- Node4&#45;&gt;Node5 -->
<g id="edge10" class="edge"><title>Node4&#45;&gt;Node5</title>
<path fill="none" stroke="midnightblue" d="M408.959,-69C422.058,-69 435.636,-69 448.385,-69"/>
<polygon fill="midnightblue" stroke="midnightblue" points="408.583,-65.5001 398.583,-69 408.583,-72.5001 408.583,-65.5001"/>
</g>
<!-- Node6 -->
<g id="node13" class="node"><title>Node6</title>
<a xlink:href="structant_1_1expconfig_1_1detector_1_1_tagger__2015.html" target="_top" xlink:title="ant::expconfig::detector\l::Tagger_2015">
<polygon fill="white" stroke="black" points="448.5,-0 448.5,-34 567.5,-34 567.5,-0 448.5,-0"/>
<text text-anchor="start" x="456.5" y="-21" font-family="Helvetica,sans-Serif" font-size="10.00">ant::expconfig::detector</text>
<text text-anchor="middle" x="508" y="-8" font-family="Helvetica,sans-Serif" font-size="10.00">::Tagger_2015</text>
</a>
</g>
<!-- Node4&#45;&gt;Node6 -->
<g id="edge12" class="edge"><title>Node4&#45;&gt;Node6</title>
<path fill="none" stroke="midnightblue" d="M404.136,-48.958C420.113,-44.0422 437.065,-38.8261 452.539,-34.065"/>
<polygon fill="midnightblue" stroke="midnightblue" points="402.865,-45.6871 394.337,-51.9733 404.924,-52.3776 402.865,-45.6871"/>
</g>
</g>
</svg>
