<?xml version="1.0" encoding="UTF-8" standalone="no"?>
<!DOCTYPE svg PUBLIC "-//W3C//DTD SVG 1.1//EN"
 "http://www.w3.org/Graphics/SVG/1.1/DTD/svg11.dtd">
<!-- Generated by graphviz version 2.26.3 (20100126.1600)
 -->
<!-- Title: ant::analysis::slowcontrol::processor::ExpTrigger Pages: 1 -->
<svg width="754pt" height="88pt"
 viewBox="0.00 0.00 754.00 88.00" xmlns="http://www.w3.org/2000/svg" xmlns:xlink="http://www.w3.org/1999/xlink">
<g id="graph1" class="graph" transform="scale(1 1) rotate(0) translate(4 84)">
<title>ant::analysis::slowcontrol::processor::ExpTrigger</title>
<polygon fill="white" stroke="white" points="-4,5 -4,-84 751,-84 751,5 -4,5"/>
<!-- Node2 -->
<g id="node1" class="node"><title>Node2</title>
<polygon fill="#bfbfbf" stroke="black" points="618,-30 618,-64 746,-64 746,-30 618,-30"/>
<text text-anchor="start" x="626" y="-51" font-family="Helvetica,sans-Serif" font-size="10.00">ant::analysis::slowcontrol</text>
<text text-anchor="middle" x="682" y="-38" font-family="Helvetica,sans-Serif" font-size="10.00">::processor::ExpTrigger</text>
</g>
<!-- Node3 -->
<g id="node2" class="node"><title>Node3</title>
<a xlink:href="structant_1_1analysis_1_1slowcontrol_1_1_processor.html" target="_top" xlink:title="ant::analysis::slowcontrol\l::Processor">
<polygon fill="white" stroke="black" points="0,-46 0,-80 128,-80 128,-46 0,-46"/>
<text text-anchor="start" x="8" y="-67" font-family="Helvetica,sans-Serif" font-size="10.00">ant::analysis::slowcontrol</text>
<text text-anchor="middle" x="64" y="-54" font-family="Helvetica,sans-Serif" font-size="10.00">::Processor</text>
</a>
</g>
<!-- Node3&#45;&gt;Node2 -->
<g id="edge2" class="edge"><title>Node3&#45;&gt;Node2</title>
<path fill="none" stroke="midnightblue" d="M138.263,-63.8478C228.855,-64.836 386.671,-66.4091 522,-67 556.666,-67.1514 565.581,-71.1368 600,-67 606.11,-66.2656 612.423,-65.2338 618.707,-64.022"/>
<polygon fill="midnightblue" stroke="midnightblue" points="138.131,-60.3462 128.094,-63.7362 138.055,-67.3458 138.131,-60.3462"/>
</g>
<!-- Node5 -->
<g id="node6" class="node"><title>Node5</title>
<a xlink:href="structant_1_1analysis_1_1slowcontrol_1_1processor_1_1_acqu_scaler_vector.html" target="_top" xlink:title="ant::analysis::slowcontrol\l::processor::AcquScalerVector">
<polygon fill="white" stroke="black" points="166,-16 166,-50 316,-50 316,-16 166,-16"/>
<text text-anchor="start" x="174" y="-37" font-family="Helvetica,sans-Serif" font-size="10.00">ant::analysis::slowcontrol</text>
<text text-anchor="middle" x="241" y="-24" font-family="Helvetica,sans-Serif" font-size="10.00">::processor::AcquScalerVector</text>
</a>
</g>
<!-- Node3&#45;&gt;Node5 -->
<g id="edge8" class="edge"><title>Node3&#45;&gt;Node5</title>
<path fill="none" stroke="midnightblue" d="M138.051,-50.449C147.27,-48.8865 156.704,-47.2875 165.938,-45.7224"/>
<polygon fill="midnightblue" stroke="midnightblue" points="137.426,-47.0049 128.151,-52.1269 138.596,-53.9065 137.426,-47.0049"/>
</g>
<!-- Node4 -->
<g id="node4" class="node"><title>Node4</title>
<a xlink:href="structant_1_1analysis_1_1slowcontrol_1_1processor_1_1_acqu_scaler_scalar.html" target="_top" xlink:title="ant::analysis::slowcontrol\l::processor::AcquScalerScalar">
<polygon fill="white" stroke="black" points="354.5,-0 354.5,-34 503.5,-34 503.5,-0 354.5,-0"/>
<text text-anchor="start" x="362.5" y="-21" font-family="Helvetica,sans-Serif" font-size="10.00">ant::analysis::slowcontrol</text>
<text text-anchor="middle" x="429" y="-8" font-family="Helvetica,sans-Serif" font-size="10.00">::processor::AcquScalerScalar</text>
</a>
</g>
<!-- Node4&#45;&gt;Node2 -->
<g id="edge4" class="edge"><title>Node4&#45;&gt;Node2</title>
<path fill="none" stroke="#9a32cd" stroke-dasharray="5,2" d="M513.683,-9.43844C541.395,-8.70692 572.195,-9.76682 600,-15 615.769,-17.9679 632.397,-23.8845 646.527,-29.8316"/>
<polygon fill="#9a32cd" stroke="#9a32cd" points="513.498,-5.94264 503.624,-9.78459 513.739,-12.9385 513.498,-5.94264"/>
<text text-anchor="middle" x="561" y="-58" font-family="Helvetica,sans-Serif" font-size="10.00"> L1Trigger</text>
<text text-anchor="middle" x="561" y="-45" font-family="Helvetica,sans-Serif" font-size="10.00">Trigger</text>
<text text-anchor="middle" x="561" y="-32" font-family="Helvetica,sans-Serif" font-size="10.00">LiveCounter</text>
<text text-anchor="middle" x="561" y="-19" font-family="Helvetica,sans-Serif" font-size="10.00">Reference_1MHz</text>
</g>
<!-- Node5&#45;&gt;Node4 -->
<g id="edge6" class="edge"><title>Node5&#45;&gt;Node4</title>
<path fill="none" stroke="midnightblue" d="M326.22,-25.7473C335.592,-24.9496 345.082,-24.1419 354.313,-23.3563"/>
<polygon fill="midnightblue" stroke="midnightblue" points="325.78,-22.2719 316.113,-26.6074 326.374,-29.2467 325.78,-22.2719"/>
</g>
</g>
</svg>
