<?xml version="1.0" encoding="UTF-8" standalone="no"?>
<!DOCTYPE svg PUBLIC "-//W3C//DTD SVG 1.1//EN"
 "http://www.w3.org/Graphics/SVG/1.1/DTD/svg11.dtd">
<!-- Generated by graphviz version 2.26.3 (20100126.1600)
 -->
<!-- Title: EtapOmegaG_plot Pages: 1 -->
<svg width="260pt" height="146pt"
 viewBox="0.00 0.00 260.00 146.00" xmlns="http://www.w3.org/2000/svg" xmlns:xlink="http://www.w3.org/1999/xlink">
<g id="graph1" class="graph" transform="scale(1 1) rotate(0) translate(4 142)">
<title>EtapOmegaG_plot</title>
<polygon fill="white" stroke="white" points="-4,5 -4,-142 257,-142 257,5 -4,5"/>
<!-- Node0 -->
<g id="node1" class="node"><title>Node0</title>
<polygon fill="#bfbfbf" stroke="black" points="77.5,-58.5 77.5,-79.5 174.5,-79.5 174.5,-58.5 77.5,-58.5"/>
<text text-anchor="middle" x="126" y="-66.5" font-family="Helvetica,sans-Serif" font-size="10.00">EtapOmegaG_plot</text>
</g>
<!-- Node2 -->
<g id="node5" class="node"><title>Node2</title>
<a xlink:href="struct_etap_omega_g__plot___ref.html" target="_top" xlink:title="EtapOmegaG_plot_Ref">
<polygon fill="white" stroke="black" points="0,-0.5 0,-21.5 118,-21.5 118,-0.5 0,-0.5"/>
<text text-anchor="middle" x="59" y="-8.5" font-family="Helvetica,sans-Serif" font-size="10.00">EtapOmegaG_plot_Ref</text>
</a>
</g>
<!-- Node0&#45;&gt;Node2 -->
<g id="edge4" class="edge"><title>Node0&#45;&gt;Node2</title>
<path fill="none" stroke="midnightblue" d="M106.005,-51.6908C94.6944,-41.8996 80.917,-29.973 71.2109,-21.5707"/>
<polygon fill="midnightblue" stroke="midnightblue" points="103.86,-54.4631 113.711,-58.3619 108.441,-49.1706 103.86,-54.4631"/>
</g>
<!-- Node3 -->
<g id="node7" class="node"><title>Node3</title>
<a xlink:href="struct_etap_omega_g__plot___sig.html" target="_top" xlink:title="EtapOmegaG_plot_Sig">
<polygon fill="white" stroke="black" points="136,-0.5 136,-21.5 252,-21.5 252,-0.5 136,-0.5"/>
<text text-anchor="middle" x="194" y="-8.5" font-family="Helvetica,sans-Serif" font-size="10.00">EtapOmegaG_plot_Sig</text>
</a>
</g>
<!-- Node0&#45;&gt;Node3 -->
<g id="edge6" class="edge"><title>Node0&#45;&gt;Node3</title>
<path fill="none" stroke="midnightblue" d="M146.294,-51.6908C157.773,-41.8996 171.756,-29.973 181.607,-21.5707"/>
<polygon fill="midnightblue" stroke="midnightblue" points="143.809,-49.2095 138.472,-58.3619 148.352,-54.5353 143.809,-49.2095"/>
</g>
<!-- Node1 -->
<g id="node2" class="node"><title>Node1</title>
<a xlink:href="classant_1_1analysis_1_1_plotter.html" target="_top" xlink:title="ant::analysis::Plotter">
<polygon fill="white" stroke="black" points="72.5,-116.5 72.5,-137.5 179.5,-137.5 179.5,-116.5 72.5,-116.5"/>
<text text-anchor="middle" x="126" y="-124.5" font-family="Helvetica,sans-Serif" font-size="10.00">ant::analysis::Plotter</text>
</a>
</g>
<!-- Node1&#45;&gt;Node0 -->
<g id="edge2" class="edge"><title>Node1&#45;&gt;Node0</title>
<path fill="none" stroke="midnightblue" d="M126,-106.191C126,-97.1684 126,-86.9941 126,-79.5707"/>
<polygon fill="midnightblue" stroke="midnightblue" points="122.5,-106.362 126,-116.362 129.5,-106.362 122.5,-106.362"/>
</g>
</g>
</svg>
