<?xml version="1.0" encoding="UTF-8" standalone="no"?>
<!DOCTYPE svg PUBLIC "-//W3C//DTD SVG 1.1//EN"
 "http://www.w3.org/Graphics/SVG/1.1/DTD/svg11.dtd">
<!-- Generated by graphviz version 2.26.3 (20100126.1600)
 -->
<!-- Title: ant::calibration::gui::Manager::state_t Pages: 1 -->
<svg width="193pt" height="400pt"
 viewBox="0.00 0.00 193.00 400.00" xmlns="http://www.w3.org/2000/svg" xmlns:xlink="http://www.w3.org/1999/xlink">
<g id="graph1" class="graph" transform="scale(1 1) rotate(0) translate(4 396)">
<title>ant::calibration::gui::Manager::state_t</title>
<polygon fill="white" stroke="white" points="-4,5 -4,-396 190,-396 190,5 -4,5"/>
<!-- Node1 -->
<g id="node1" class="node"><title>Node1</title>
<polygon fill="#bfbfbf" stroke="black" points="47.5,-1 47.5,-35 146.5,-35 146.5,-1 47.5,-1"/>
<text text-anchor="start" x="55.5" y="-22" font-family="Helvetica,sans-Serif" font-size="10.00">ant::calibration::gui</text>
<text text-anchor="middle" x="97" y="-9" font-family="Helvetica,sans-Serif" font-size="10.00">::Manager::state_t</text>
</g>
<!-- Node2 -->
<g id="node2" class="node"><title>Node2</title>
<polygon fill="white" stroke="#bfbfbf" points="26.5,-87 26.5,-121 167.5,-121 167.5,-87 26.5,-87"/>
<text text-anchor="start" x="34.5" y="-108" font-family="Helvetica,sans-Serif" font-size="10.00">std::list&lt; ant::calibration</text>
<text text-anchor="middle" x="97" y="-95" font-family="Helvetica,sans-Serif" font-size="10.00">::gui::Manager::input_file_t &gt;</text>
</g>
<!-- Node2&#45;&gt;Node1 -->
<g id="edge2" class="edge"><title>Node2&#45;&gt;Node1</title>
<path fill="none" stroke="#9a32cd" stroke-dasharray="5,2" d="M97,-76.342C97,-62.7741 97,-46.8607 97,-35.084"/>
<polygon fill="#9a32cd" stroke="#9a32cd" points="93.5001,-76.5966 97,-86.5966 100.5,-76.5967 93.5001,-76.5966"/>
<text text-anchor="middle" x="110.5" y="-58.5" font-family="Helvetica,sans-Serif" font-size="10.00"> it_file</text>
</g>
<!-- Node3 -->
<g id="node4" class="node"><title>Node3</title>
<a xlink:href="structant_1_1calibration_1_1gui_1_1_manager_1_1input__file__t.html" target="_top" xlink:title="ant::calibration::gui\l::Manager::input_file_t">
<polygon fill="white" stroke="black" points="40.5,-173 40.5,-207 153.5,-207 153.5,-173 40.5,-173"/>
<text text-anchor="start" x="48.5" y="-194" font-family="Helvetica,sans-Serif" font-size="10.00">ant::calibration::gui</text>
<text text-anchor="middle" x="97" y="-181" font-family="Helvetica,sans-Serif" font-size="10.00">::Manager::input_file_t</text>
</a>
</g>
<!-- Node3&#45;&gt;Node2 -->
<g id="edge4" class="edge"><title>Node3&#45;&gt;Node2</title>
<path fill="none" stroke="#9a32cd" stroke-dasharray="5,2" d="M97,-162.342C97,-148.774 97,-132.861 97,-121.084"/>
<polygon fill="#9a32cd" stroke="#9a32cd" points="93.5001,-162.597 97,-172.597 100.5,-162.597 93.5001,-162.597"/>
<text text-anchor="middle" x="118.5" y="-144.5" font-family="Helvetica,sans-Serif" font-size="10.00"> elements</text>
</g>
<!-- Node4 -->
<g id="node6" class="node"><title>Node4</title>
<a xlink:title="STL class. ">
<polygon fill="white" stroke="#bfbfbf" points="17,-265.5 17,-286.5 77,-286.5 77,-265.5 17,-265.5"/>
<text text-anchor="middle" x="47" y="-273.5" font-family="Helvetica,sans-Serif" font-size="10.00">std::string</text>
</a>
</g>
<!-- Node4&#45;&gt;Node3 -->
<g id="edge6" class="edge"><title>Node4&#45;&gt;Node3</title>
<path fill="none" stroke="#9a32cd" stroke-dasharray="5,2" d="M55.5569,-256.116C59.8251,-246.772 65.2894,-235.603 71,-226 74.783,-219.639 79.385,-212.986 83.6598,-207.155"/>
<polygon fill="#9a32cd" stroke="#9a32cd" points="52.3038,-254.817 51.4398,-265.377 58.7003,-257.661 52.3038,-254.817"/>
<text text-anchor="middle" x="91" y="-230.5" font-family="Helvetica,sans-Serif" font-size="10.00"> filename</text>
</g>
<!-- Node5 -->
<g id="node8" class="node"><title>Node5</title>
<a xlink:title="STL class. ">
<polygon fill="white" stroke="#bfbfbf" points="-0.5,-357 -0.5,-391 94.5,-391 94.5,-357 -0.5,-357"/>
<text text-anchor="start" x="7.5" y="-378" font-family="Helvetica,sans-Serif" font-size="10.00">std::basic_string&lt;</text>
<text text-anchor="middle" x="47" y="-365" font-family="Helvetica,sans-Serif" font-size="10.00"> char &gt;</text>
</a>
</g>
<!-- Node5&#45;&gt;Node4 -->
<g id="edge8" class="edge"><title>Node5&#45;&gt;Node4</title>
<path fill="none" stroke="midnightblue" d="M47,-346.859C47,-326.895 47,-300.841 47,-286.54"/>
<polygon fill="midnightblue" stroke="midnightblue" points="43.5001,-346.93 47,-356.93 50.5001,-346.93 43.5001,-346.93"/>
</g>
<!-- Node6 -->
<g id="node10" class="node"><title>Node6</title>
<a xlink:href="classant_1_1interval.html" target="_top" xlink:title="ant::interval\&lt; ant\l::TID \&gt;">
<polygon fill="white" stroke="black" points="95,-259 95,-293 185,-293 185,-259 95,-259"/>
<text text-anchor="start" x="103" y="-280" font-family="Helvetica,sans-Serif" font-size="10.00">ant::interval&lt; ant</text>
<text text-anchor="middle" x="140" y="-267" font-family="Helvetica,sans-Serif" font-size="10.00">::TID &gt;</text>
</a>
</g>
<!-- Node6&#45;&gt;Node3 -->
<g id="edge10" class="edge"><title>Node6&#45;&gt;Node3</title>
<path fill="none" stroke="#9a32cd" stroke-dasharray="5,2" d="M126.772,-249.545C119.862,-235.723 111.605,-219.211 105.542,-207.084"/>
<polygon fill="#9a32cd" stroke="#9a32cd" points="123.696,-251.218 131.298,-258.597 129.957,-248.087 123.696,-251.218"/>
<text text-anchor="middle" x="135" y="-230.5" font-family="Helvetica,sans-Serif" font-size="10.00"> range</text>
</g>
<!-- Node7 -->
<g id="node12" class="node"><title>Node7</title>
<a xlink:href="structant_1_1_t_i_d.html" target="_top" xlink:title="ant::TID">
<polygon fill="white" stroke="black" points="113.5,-363.5 113.5,-384.5 166.5,-384.5 166.5,-363.5 113.5,-363.5"/>
<text text-anchor="middle" x="140" y="-371.5" font-family="Helvetica,sans-Serif" font-size="10.00">ant::TID</text>
</a>
</g>
<!-- Node7&#45;&gt;Node6 -->
<g id="edge12" class="edge"><title>Node7&#45;&gt;Node6</title>
<path fill="none" stroke="#9a32cd" stroke-dasharray="5,2" d="M140,-353.135C140,-335.271 140,-309.861 140,-293.158"/>
<polygon fill="#9a32cd" stroke="#9a32cd" points="136.5,-353.138 140,-363.138 143.5,-353.138 136.5,-353.138"/>
<text text-anchor="middle" x="154" y="-329" font-family="Helvetica,sans-Serif" font-size="10.00"> _start</text>
<text text-anchor="middle" x="154" y="-316" font-family="Helvetica,sans-Serif" font-size="10.00">_stop</text>
</g>
</g>
</svg>
