<?xml version="1.0" encoding="UTF-8" standalone="no"?>
<!DOCTYPE svg PUBLIC "-//W3C//DTD SVG 1.1//EN"
 "http://www.w3.org/Graphics/SVG/1.1/DTD/svg11.dtd">
<!-- Generated by graphviz version 2.26.3 (20100126.1600)
 -->
<!-- Title: FitOmegaPeak Pages: 1 -->
<svg width="107pt" height="232pt"
 viewBox="0.00 0.00 107.00 232.00" xmlns="http://www.w3.org/2000/svg" xmlns:xlink="http://www.w3.org/1999/xlink">
<g id="graph1" class="graph" transform="scale(1 1) rotate(0) translate(4 228)">
<title>FitOmegaPeak</title>
<polygon fill="white" stroke="white" points="-4,5 -4,-228 104,-228 104,5 -4,5"/>
<!-- Node1 -->
<g id="node1" class="node"><title>Node1</title>
<polygon fill="#bfbfbf" stroke="black" points="0,-0.5 0,-21.5 82,-21.5 82,-0.5 0,-0.5"/>
<text text-anchor="middle" x="41" y="-8.5" font-family="Helvetica,sans-Serif" font-size="10.00">FitOmegaPeak</text>
</g>
<!-- Node2 -->
<g id="node2" class="node"><title>Node2</title>
<a xlink:href="struct_val_error.html" target="_top" xlink:title="ValError">
<polygon fill="white" stroke="black" points="15,-202.5 15,-223.5 67,-223.5 67,-202.5 15,-202.5"/>
<text text-anchor="middle" x="41" y="-210.5" font-family="Helvetica,sans-Serif" font-size="10.00">ValError</text>
</a>
</g>
<!-- Node2&#45;&gt;Node1 -->
<g id="edge2" class="edge"><title>Node2&#45;&gt;Node1</title>
<path fill="none" stroke="#9a32cd" stroke-dasharray="5,2" d="M41,-192.158C41,-149.662 41,-54.2937 41,-21.9612"/>
<polygon fill="#9a32cd" stroke="#9a32cd" points="37.5001,-192.424 41,-202.424 44.5001,-192.424 37.5001,-192.424"/>
<text text-anchor="middle" x="70" y="-174.5" font-family="Helvetica,sans-Serif" font-size="10.00"> vnbkg</text>
<text text-anchor="middle" x="70" y="-161.5" font-family="Helvetica,sans-Serif" font-size="10.00">vnsig</text>
<text text-anchor="middle" x="70" y="-148.5" font-family="Helvetica,sans-Serif" font-size="10.00">mshift</text>
<text text-anchor="middle" x="70" y="-135.5" font-family="Helvetica,sans-Serif" font-size="10.00">rec_eff</text>
<text text-anchor="middle" x="70" y="-122.5" font-family="Helvetica,sans-Serif" font-size="10.00">sigmaOmega</text>
<text text-anchor="middle" x="70" y="-109.5" font-family="Helvetica,sans-Serif" font-size="10.00">argus_p</text>
<text text-anchor="middle" x="70" y="-96.5" font-family="Helvetica,sans-Serif" font-size="10.00">argus_c</text>
<text text-anchor="middle" x="70" y="-83.5" font-family="Helvetica,sans-Serif" font-size="10.00">argus_f</text>
<text text-anchor="middle" x="70" y="-70.5" font-family="Helvetica,sans-Serif" font-size="10.00">vn_corr</text>
<text text-anchor="middle" x="70" y="-57.5" font-family="Helvetica,sans-Serif" font-size="10.00">sigma</text>
<text text-anchor="middle" x="70" y="-44.5" font-family="Helvetica,sans-Serif" font-size="10.00">...</text>
</g>
</g>
</svg>
