<?xml version="1.0" encoding="UTF-8" standalone="no"?>
<!DOCTYPE svg PUBLIC "-//W3C//DTD SVG 1.1//EN"
 "http://www.w3.org/Graphics/SVG/1.1/DTD/svg11.dtd">
<!-- Generated by graphviz version 2.26.3 (20100126.1600)
 -->
<!-- Title: ant::analysis::PromptRandom::Hist1 Pages: 1 -->
<svg width="154pt" height="374pt"
 viewBox="0.00 0.00 154.00 374.00" xmlns="http://www.w3.org/2000/svg" xmlns:xlink="http://www.w3.org/1999/xlink">
<g id="graph1" class="graph" transform="scale(1 1) rotate(0) translate(4 370)">
<title>ant::analysis::PromptRandom::Hist1</title>
<polygon fill="white" stroke="white" points="-4,5 -4,-370 151,-370 151,5 -4,5"/>
<!-- Node1 -->
<g id="node1" class="node"><title>Node1</title>
<polygon fill="#bfbfbf" stroke="black" points="0,-1 0,-35 146,-35 146,-1 0,-1"/>
<text text-anchor="start" x="8" y="-22" font-family="Helvetica,sans-Serif" font-size="10.00">ant::analysis::PromptRandom</text>
<text text-anchor="middle" x="73" y="-9" font-family="Helvetica,sans-Serif" font-size="10.00">::Hist1</text>
</g>
<!-- Node2 -->
<g id="node2" class="node"><title>Node2</title>
<a xlink:href="classant_1_1analysis_1_1_prompt_random_1_1_switch.html" target="_top" xlink:title="ant::analysis::PromptRandom\l::Switch">
<polygon fill="white" stroke="black" points="0,-87 0,-121 146,-121 146,-87 0,-87"/>
<text text-anchor="start" x="8" y="-108" font-family="Helvetica,sans-Serif" font-size="10.00">ant::analysis::PromptRandom</text>
<text text-anchor="middle" x="73" y="-95" font-family="Helvetica,sans-Serif" font-size="10.00">::Switch</text>
</a>
</g>
<!-- Node2&#45;&gt;Node1 -->
<g id="edge2" class="edge"><title>Node2&#45;&gt;Node1</title>
<path fill="none" stroke="#9a32cd" stroke-dasharray="5,2" d="M73,-76.342C73,-62.7741 73,-46.8607 73,-35.084"/>
<polygon fill="#9a32cd" stroke="#9a32cd" points="69.5001,-76.5966 73,-86.5966 76.5001,-76.5967 69.5001,-76.5966"/>
<text text-anchor="middle" x="77.5" y="-58.5" font-family="Helvetica,sans-Serif" font-size="10.00"> d</text>
</g>
<!-- Node3 -->
<g id="node4" class="node"><title>Node3</title>
<a xlink:href="classant_1_1_piecewise_interval.html" target="_top" xlink:title="ant::PiecewiseInterval\l\&lt; double \&gt;">
<polygon fill="white" stroke="black" points="16.5,-185 16.5,-219 129.5,-219 129.5,-185 16.5,-185"/>
<text text-anchor="start" x="24.5" y="-206" font-family="Helvetica,sans-Serif" font-size="10.00">ant::PiecewiseInterval</text>
<text text-anchor="middle" x="73" y="-193" font-family="Helvetica,sans-Serif" font-size="10.00">&lt; double &gt;</text>
</a>
</g>
<!-- Node3&#45;&gt;Node2 -->
<g id="edge4" class="edge"><title>Node3&#45;&gt;Node2</title>
<path fill="none" stroke="#9a32cd" stroke-dasharray="5,2" d="M73,-174.923C73,-157.749 73,-136.05 73,-121.203"/>
<polygon fill="#9a32cd" stroke="#9a32cd" points="69.5001,-174.93 73,-184.93 76.5001,-174.93 69.5001,-174.93"/>
<text text-anchor="middle" x="93.5" y="-157" font-family="Helvetica,sans-Serif" font-size="10.00"> promptw</text>
<text text-anchor="middle" x="93.5" y="-144" font-family="Helvetica,sans-Serif" font-size="10.00">randomw</text>
</g>
<!-- Node4 -->
<g id="node6" class="node"><title>Node4</title>
<a xlink:title="STL class. ">
<polygon fill="white" stroke="#bfbfbf" points="21,-259 21,-293 125,-293 125,-259 21,-259"/>
<text text-anchor="start" x="29" y="-280" font-family="Helvetica,sans-Serif" font-size="10.00">std::vector&lt; interval</text>
<text text-anchor="middle" x="73" y="-267" font-family="Helvetica,sans-Serif" font-size="10.00">&lt; double &gt; &gt;</text>
</a>
</g>
<!-- Node4&#45;&gt;Node3 -->
<g id="edge6" class="edge"><title>Node4&#45;&gt;Node3</title>
<path fill="none" stroke="midnightblue" d="M73,-248.627C73,-238.725 73,-227.834 73,-219.07"/>
<polygon fill="midnightblue" stroke="midnightblue" points="69.5001,-248.837 73,-258.837 76.5001,-248.837 69.5001,-248.837"/>
</g>
<!-- Node5 -->
<g id="node8" class="node"><title>Node5</title>
<polygon fill="white" stroke="#bfbfbf" points="58.5,-344.5 58.5,-365.5 87.5,-365.5 87.5,-344.5 58.5,-344.5"/>
<text text-anchor="middle" x="73" y="-352.5" font-family="Helvetica,sans-Serif" font-size="10.00">T</text>
</g>
<!-- Node5&#45;&gt;Node4 -->
<g id="edge8" class="edge"><title>Node5&#45;&gt;Node4</title>
<path fill="none" stroke="#9a32cd" stroke-dasharray="5,2" d="M73,-334.162C73,-321.363 73,-305.171 73,-293.124"/>
<polygon fill="#9a32cd" stroke="#9a32cd" points="69.5001,-334.346 73,-344.346 76.5001,-334.346 69.5001,-334.346"/>
<text text-anchor="middle" x="94.5" y="-316.5" font-family="Helvetica,sans-Serif" font-size="10.00"> elements</text>
</g>
</g>
</svg>
