<?xml version="1.0" encoding="UTF-8" standalone="no"?>
<!DOCTYPE svg PUBLIC "-//W3C//DTD SVG 1.1//EN"
 "http://www.w3.org/Graphics/SVG/1.1/DTD/svg11.dtd">
<!-- Generated by graphviz version 2.26.3 (20100126.1600)
 -->
<!-- Title: ant::analysis::physics::tools::protonSelection_t Pages: 1 -->
<svg width="572pt" height="213pt"
 viewBox="0.00 0.00 572.00 213.00" xmlns="http://www.w3.org/2000/svg" xmlns:xlink="http://www.w3.org/1999/xlink">
<g id="graph1" class="graph" transform="scale(1 1) rotate(0) translate(4 209)">
<title>ant::analysis::physics::tools::protonSelection_t</title>
<polygon fill="white" stroke="white" points="-4,5 -4,-209 569,-209 569,5 -4,5"/>
<!-- Node1 -->
<g id="node1" class="node"><title>Node1</title>
<polygon fill="#bfbfbf" stroke="black" points="438.5,-92 438.5,-126 563.5,-126 563.5,-92 438.5,-92"/>
<text text-anchor="start" x="446.5" y="-113" font-family="Helvetica,sans-Serif" font-size="10.00">ant::analysis::physics</text>
<text text-anchor="middle" x="501" y="-100" font-family="Helvetica,sans-Serif" font-size="10.00">::tools::protonSelection_t</text>
</g>
<!-- Node2 -->
<g id="node2" class="node"><title>Node2</title>
<polygon fill="white" stroke="#bfbfbf" points="200,-144.5 200,-165.5 344,-165.5 344,-144.5 200,-144.5"/>
<text text-anchor="middle" x="272" y="-152.5" font-family="Helvetica,sans-Serif" font-size="10.00">std::vector&lt; TCandidatePtr &gt;</text>
</g>
<!-- Node2&#45;&gt;Node1 -->
<g id="edge2" class="edge"><title>Node2&#45;&gt;Node1</title>
<path fill="none" stroke="#9a32cd" stroke-dasharray="5,2" d="M336.598,-142.537C362.536,-137.482 392.703,-131.539 420,-126 425.914,-124.8 432.068,-123.536 438.224,-122.262"/>
<polygon fill="#9a32cd" stroke="#9a32cd" points="335.656,-139.154 326.509,-144.5 336.993,-146.026 335.656,-139.154"/>
<text text-anchor="middle" x="391" y="-141" font-family="Helvetica,sans-Serif" font-size="10.00"> CandsG</text>
</g>
<!-- Node3 -->
<g id="node4" class="node"><title>Node3</title>
<a xlink:href="structant_1_1std__ext_1_1cc__shared__ptr.html" target="_top" xlink:title="ant::std_ext::cc_shared\l_ptr\&lt; TCandidate \&gt;">
<polygon fill="white" stroke="black" points="0.5,-170 0.5,-204 119.5,-204 119.5,-170 0.5,-170"/>
<text text-anchor="start" x="8.5" y="-191" font-family="Helvetica,sans-Serif" font-size="10.00">ant::std_ext::cc_shared</text>
<text text-anchor="middle" x="60" y="-178" font-family="Helvetica,sans-Serif" font-size="10.00">_ptr&lt; TCandidate &gt;</text>
</a>
</g>
<!-- Node3&#45;&gt;Node1 -->
<g id="edge8" class="edge"><title>Node3&#45;&gt;Node1</title>
<path fill="none" stroke="#9a32cd" stroke-dasharray="5,2" d="M129.76,-192.404C204.437,-195.542 324.992,-192.87 420,-154 438.76,-146.325 458.675,-135.304 474.064,-126.09"/>
<polygon fill="#9a32cd" stroke="#9a32cd" points="129.687,-188.897 119.534,-191.926 129.36,-195.889 129.687,-188.897"/>
<text text-anchor="middle" x="272" y="-196" font-family="Helvetica,sans-Serif" font-size="10.00"> CandP</text>
</g>
<!-- Node3&#45;&gt;Node2 -->
<g id="edge4" class="edge"><title>Node3&#45;&gt;Node2</title>
<path fill="none" stroke="#9a32cd" stroke-dasharray="5,2" d="M129.765,-176.251C132.546,-175.828 135.299,-175.409 138,-175 158.465,-171.898 180.695,-168.566 201.057,-165.528"/>
<polygon fill="#9a32cd" stroke="#9a32cd" points="128.974,-172.831 119.617,-177.8 130.03,-179.751 128.974,-172.831"/>
<text text-anchor="middle" x="160" y="-179" font-family="Helvetica,sans-Serif" font-size="10.00"> elements</text>
</g>
<!-- Node4 -->
<g id="node6" class="node"><title>Node4</title>
<a xlink:href="structant_1_1std__ext_1_1cc__shared__ptr.html" target="_top" xlink:title="ant::std_ext::cc_shared\l_ptr\&lt; TParticle \&gt;">
<polygon fill="white" stroke="black" points="212.5,-92 212.5,-126 331.5,-126 331.5,-92 212.5,-92"/>
<text text-anchor="start" x="220.5" y="-113" font-family="Helvetica,sans-Serif" font-size="10.00">ant::std_ext::cc_shared</text>
<text text-anchor="middle" x="272" y="-100" font-family="Helvetica,sans-Serif" font-size="10.00">_ptr&lt; TParticle &gt;</text>
</a>
</g>
<!-- Node4&#45;&gt;Node1 -->
<g id="edge6" class="edge"><title>Node4&#45;&gt;Node1</title>
<path fill="none" stroke="#9a32cd" stroke-dasharray="5,2" d="M341.77,-109C372.47,-109 408.261,-109 438.125,-109"/>
<polygon fill="#9a32cd" stroke="#9a32cd" points="341.569,-105.5 331.569,-109 341.569,-112.5 341.569,-105.5"/>
<text text-anchor="middle" x="391" y="-113" font-family="Helvetica,sans-Serif" font-size="10.00"> Proton</text>
</g>
<!-- Node5 -->
<g id="node9" class="node"><title>Node5</title>
<polygon fill="white" stroke="#bfbfbf" points="205.5,-52.5 205.5,-73.5 338.5,-73.5 338.5,-52.5 205.5,-52.5"/>
<text text-anchor="middle" x="272" y="-60.5" font-family="Helvetica,sans-Serif" font-size="10.00">std::vector&lt; TParticlePtr &gt;</text>
</g>
<!-- Node5&#45;&gt;Node1 -->
<g id="edge10" class="edge"><title>Node5&#45;&gt;Node1</title>
<path fill="none" stroke="#9a32cd" stroke-dasharray="5,2" d="M336.598,-75.4631C362.536,-80.5182 392.703,-86.4614 420,-92 425.914,-93.2 432.068,-94.4639 438.224,-95.7383"/>
<polygon fill="#9a32cd" stroke="#9a32cd" points="336.993,-71.9745 326.509,-73.5 335.656,-78.8456 336.993,-71.9745"/>
<text text-anchor="middle" x="391" y="-96" font-family="Helvetica,sans-Serif" font-size="10.00"> Photons</text>
</g>
<!-- Node6 -->
<g id="node11" class="node"><title>Node6</title>
<a xlink:href="structant_1_1std__ext_1_1cc__shared__ptr.html" target="_top" xlink:title="ant::std_ext::cc_shared\l_ptr\&lt; T \&gt;">
<polygon fill="white" stroke="black" points="0.5,-46 0.5,-80 119.5,-80 119.5,-46 0.5,-46"/>
<text text-anchor="start" x="8.5" y="-67" font-family="Helvetica,sans-Serif" font-size="10.00">ant::std_ext::cc_shared</text>
<text text-anchor="middle" x="60" y="-54" font-family="Helvetica,sans-Serif" font-size="10.00">_ptr&lt; T &gt;</text>
</a>
</g>
<!-- Node6&#45;&gt;Node5 -->
<g id="edge12" class="edge"><title>Node6&#45;&gt;Node5</title>
<path fill="none" stroke="#9a32cd" stroke-dasharray="5,2" d="M129.841,-63C154.149,-63 181.339,-63 205.379,-63"/>
<polygon fill="#9a32cd" stroke="#9a32cd" points="129.618,-59.5001 119.618,-63 129.618,-66.5001 129.618,-59.5001"/>
<text text-anchor="middle" x="160" y="-67" font-family="Helvetica,sans-Serif" font-size="10.00"> elements</text>
</g>
<!-- Node7 -->
<g id="node13" class="node"><title>Node7</title>
<a xlink:href="structant_1_1_lorentz_vec.html" target="_top" xlink:title="A Lorentz vector (x,y,z,E), diag(&#45;1,&#45;1,&#45;1, 1) ">
<polygon fill="white" stroke="black" points="229,-0.5 229,-21.5 315,-21.5 315,-0.5 229,-0.5"/>
<text text-anchor="middle" x="272" y="-8.5" font-family="Helvetica,sans-Serif" font-size="10.00">ant::LorentzVec</text>
</a>
</g>
<!-- Node7&#45;&gt;Node1 -->
<g id="edge14" class="edge"><title>Node7&#45;&gt;Node1</title>
<path fill="none" stroke="#9a32cd" stroke-dasharray="5,2" d="M325.061,-13.2598C354.274,-16.2053 390.48,-22.7304 420,-37 447.103,-50.1016 471.968,-74.9512 486.805,-91.746"/>
<polygon fill="#9a32cd" stroke="#9a32cd" points="325.315,-9.76862 315.042,-12.3604 324.689,-16.7406 325.315,-9.76862"/>
<text text-anchor="middle" x="391" y="-67" font-family="Helvetica,sans-Serif" font-size="10.00"> Proton_MM</text>
<text text-anchor="middle" x="391" y="-54" font-family="Helvetica,sans-Serif" font-size="10.00">PhotonBeam</text>
<text text-anchor="middle" x="391" y="-41" font-family="Helvetica,sans-Serif" font-size="10.00">PhotonSum</text>
</g>
<!-- Node8 -->
<g id="node15" class="node"><title>Node8</title>
<a xlink:href="structant_1_1vec3.html" target="_top" xlink:title="ant::vec3">
<polygon fill="white" stroke="black" points="31.5,-0.5 31.5,-21.5 88.5,-21.5 88.5,-0.5 31.5,-0.5"/>
<text text-anchor="middle" x="60" y="-8.5" font-family="Helvetica,sans-Serif" font-size="10.00">ant::vec3</text>
</a>
</g>
<!-- Node8&#45;&gt;Node7 -->
<g id="edge16" class="edge"><title>Node8&#45;&gt;Node7</title>
<path fill="none" stroke="#9a32cd" stroke-dasharray="5,2" d="M98.9112,-11C135.679,-11 190.731,-11 228.833,-11"/>
<polygon fill="#9a32cd" stroke="#9a32cd" points="98.5913,-7.5001 88.5913,-11 98.5912,-14.5001 98.5913,-7.5001"/>
<text text-anchor="middle" x="160" y="-15" font-family="Helvetica,sans-Serif" font-size="10.00"> p</text>
</g>
</g>
</svg>
