<?xml version="1.0" encoding="UTF-8" standalone="no"?>
<!DOCTYPE svg PUBLIC "-//W3C//DTD SVG 1.1//EN"
 "http://www.w3.org/Graphics/SVG/1.1/DTD/svg11.dtd">
<!-- Generated by graphviz version 2.26.3 (20100126.1600)
 -->
<!-- Title: OmegaEtaG_Plot::OmegaHist_t Pages: 1 -->
<svg width="266pt" height="116pt"
 viewBox="0.00 0.00 266.00 116.00" xmlns="http://www.w3.org/2000/svg" xmlns:xlink="http://www.w3.org/1999/xlink">
<g id="graph1" class="graph" transform="scale(1 1) rotate(0) translate(4 112)">
<title>OmegaEtaG_Plot::OmegaHist_t</title>
<polygon fill="white" stroke="white" points="-4,5 -4,-112 263,-112 263,5 -4,5"/>
<!-- Node1 -->
<g id="node1" class="node"><title>Node1</title>
<polygon fill="#bfbfbf" stroke="black" points="49.5,-0.5 49.5,-21.5 206.5,-21.5 206.5,-0.5 49.5,-0.5"/>
<text text-anchor="middle" x="128" y="-8.5" font-family="Helvetica,sans-Serif" font-size="10.00">OmegaEtaG_Plot::OmegaHist_t</text>
</g>
<!-- Node2 -->
<g id="node2" class="node"><title>Node2</title>
<polygon fill="white" stroke="#bfbfbf" points="0,-79.5 0,-100.5 118,-100.5 118,-79.5 0,-79.5"/>
<text text-anchor="middle" x="59" y="-87.5" font-family="Helvetica,sans-Serif" font-size="10.00">std::map&lt; int, double &gt;</text>
</g>
<!-- Node2&#45;&gt;Node1 -->
<g id="edge2" class="edge"><title>Node2&#45;&gt;Node1</title>
<path fill="none" stroke="#9a32cd" stroke-dasharray="5,2" d="M75.1854,-71.4689C88.6934,-56.0032 107.477,-34.4979 118.621,-21.7378"/>
<polygon fill="#9a32cd" stroke="#9a32cd" points="72.2479,-69.5116 68.3056,-79.3457 77.5201,-74.1164 72.2479,-69.5116"/>
<text text-anchor="middle" x="125" y="-44.5" font-family="Helvetica,sans-Serif" font-size="10.00"> mc_scale</text>
</g>
<!-- Node3 -->
<g id="node4" class="node"><title>Node3</title>
<a xlink:href="classant_1_1analysis_1_1_histogram_factory.html" target="_top" xlink:title="ant::analysis::Histogram\lFactory">
<polygon fill="white" stroke="black" points="135.5,-73 135.5,-107 258.5,-107 258.5,-73 135.5,-73"/>
<text text-anchor="start" x="143.5" y="-94" font-family="Helvetica,sans-Serif" font-size="10.00">ant::analysis::Histogram</text>
<text text-anchor="middle" x="197" y="-81" font-family="Helvetica,sans-Serif" font-size="10.00">Factory</text>
</a>
</g>
<!-- Node3&#45;&gt;Node1 -->
<g id="edge4" class="edge"><title>Node3&#45;&gt;Node1</title>
<path fill="none" stroke="#9a32cd" stroke-dasharray="5,2" d="M175.247,-65.0943C162.438,-50.4286 146.9,-32.6395 137.23,-21.5672"/>
<polygon fill="#9a32cd" stroke="#9a32cd" points="172.814,-67.6289 182.028,-72.8582 178.086,-63.0241 172.814,-67.6289"/>
<text text-anchor="middle" x="183" y="-44.5" font-family="Helvetica,sans-Serif" font-size="10.00"> HistFac</text>
</g>
</g>
</svg>
