<?xml version="1.0" encoding="UTF-8" standalone="no"?>
<!DOCTYPE svg PUBLIC "-//W3C//DTD SVG 1.1//EN"
 "http://www.w3.org/Graphics/SVG/1.1/DTD/svg11.dtd">
<!-- Generated by graphviz version 2.26.3 (20100126.1600)
 -->
<!-- Title: ant::WrapTTree::ROOTArray&lt; T &gt; Pages: 1 -->
<svg width="254pt" height="102pt"
 viewBox="0.00 0.00 254.00 102.00" xmlns="http://www.w3.org/2000/svg" xmlns:xlink="http://www.w3.org/1999/xlink">
<g id="graph1" class="graph" transform="scale(1 1) rotate(0) translate(4 98)">
<title>ant::WrapTTree::ROOTArray&lt; T &gt;</title>
<polygon fill="white" stroke="white" points="-4,5 -4,-98 251,-98 251,5 -4,5"/>
<!-- Node0 -->
<g id="node1" class="node"><title>Node0</title>
<polygon fill="#bfbfbf" stroke="black" points="25.5,-0.5 25.5,-21.5 192.5,-21.5 192.5,-0.5 25.5,-0.5"/>
<text text-anchor="middle" x="109" y="-8.5" font-family="Helvetica,sans-Serif" font-size="10.00">ant::WrapTTree::ROOTArray&lt; T &gt;</text>
</g>
<!-- Node1 -->
<g id="node2" class="node"><title>Node1</title>
<a xlink:title="STL class. ">
<polygon fill="white" stroke="#bfbfbf" points="-0.5,-65.5 -0.5,-86.5 86.5,-86.5 86.5,-65.5 -0.5,-65.5"/>
<text text-anchor="middle" x="43" y="-73.5" font-family="Helvetica,sans-Serif" font-size="10.00">std::vector&lt; T &gt;</text>
</a>
</g>
<!-- Node1&#45;&gt;Node0 -->
<g id="edge2" class="edge"><title>Node1&#45;&gt;Node0</title>
<path fill="none" stroke="midnightblue" d="M61.1762,-58.0992C73.0994,-46.3566 88.2818,-31.4043 98.3042,-21.5337"/>
<polygon fill="midnightblue" stroke="midnightblue" points="58.5675,-55.756 53.8986,-65.2666 63.4793,-60.7434 58.5675,-55.756"/>
</g>
<!-- Node2 -->
<g id="node4" class="node"><title>Node2</title>
<polygon fill="white" stroke="#bfbfbf" points="103.5,-59 103.5,-93 246.5,-93 246.5,-59 103.5,-59"/>
<text text-anchor="start" x="111.5" y="-80" font-family="Helvetica,sans-Serif" font-size="10.00">ant::WrapTTree::ROOTArray</text>
<text text-anchor="middle" x="175" y="-67" font-family="Helvetica,sans-Serif" font-size="10.00">_traits</text>
</g>
<!-- Node2&#45;&gt;Node0 -->
<g id="edge4" class="edge"><title>Node2&#45;&gt;Node0</title>
<path fill="none" stroke="midnightblue" d="M150.337,-51.7102C139.902,-41.4333 128.277,-29.9845 120.019,-21.8521"/>
<polygon fill="midnightblue" stroke="midnightblue" points="148.078,-54.3988 157.659,-58.922 152.99,-49.4114 148.078,-54.3988"/>
</g>
</g>
</svg>
