<?xml version="1.0" encoding="UTF-8" standalone="no"?>
<!DOCTYPE svg PUBLIC "-//W3C//DTD SVG 1.1//EN"
 "http://www.w3.org/Graphics/SVG/1.1/DTD/svg11.dtd">
<!-- Generated by graphviz version 2.26.3 (20100126.1600)
 -->
<!-- Title: ant::analysis::physics::Pi0Eta::ReactionChannel_t Pages: 1 -->
<svg width="148pt" height="190pt"
 viewBox="0.00 0.00 148.00 190.00" xmlns="http://www.w3.org/2000/svg" xmlns:xlink="http://www.w3.org/1999/xlink">
<g id="graph1" class="graph" transform="scale(1 1) rotate(0) translate(4 186)">
<title>ant::analysis::physics::Pi0Eta::ReactionChannel_t</title>
<polygon fill="white" stroke="white" points="-4,5 -4,-186 145,-186 145,5 -4,5"/>
<!-- Node1 -->
<g id="node1" class="node"><title>Node1</title>
<polygon fill="#bfbfbf" stroke="black" points="-0.5,-1 -0.5,-35 140.5,-35 140.5,-1 -0.5,-1"/>
<text text-anchor="start" x="7.5" y="-22" font-family="Helvetica,sans-Serif" font-size="10.00">ant::analysis::physics</text>
<text text-anchor="middle" x="70" y="-9" font-family="Helvetica,sans-Serif" font-size="10.00">::Pi0Eta::ReactionChannel_t</text>
</g>
<!-- Node2 -->
<g id="node2" class="node"><title>Node2</title>
<a xlink:title="STL class. ">
<polygon fill="white" stroke="#bfbfbf" points="40,-86.5 40,-107.5 100,-107.5 100,-86.5 40,-86.5"/>
<text text-anchor="middle" x="70" y="-94.5" font-family="Helvetica,sans-Serif" font-size="10.00">std::string</text>
</a>
</g>
<!-- Node2&#45;&gt;Node1 -->
<g id="edge2" class="edge"><title>Node2&#45;&gt;Node1</title>
<path fill="none" stroke="#9a32cd" stroke-dasharray="5,2" d="M70,-76.1618C70,-63.3635 70,-47.1713 70,-35.1236"/>
<polygon fill="#9a32cd" stroke="#9a32cd" points="66.5001,-76.3457 70,-86.3457 73.5001,-76.3457 66.5001,-76.3457"/>
<text text-anchor="middle" x="84" y="-58.5" font-family="Helvetica,sans-Serif" font-size="10.00"> name</text>
</g>
<!-- Node3 -->
<g id="node4" class="node"><title>Node3</title>
<a xlink:title="STL class. ">
<polygon fill="white" stroke="#bfbfbf" points="22.5,-147 22.5,-181 117.5,-181 117.5,-147 22.5,-147"/>
<text text-anchor="start" x="30.5" y="-168" font-family="Helvetica,sans-Serif" font-size="10.00">std::basic_string&lt;</text>
<text text-anchor="middle" x="70" y="-155" font-family="Helvetica,sans-Serif" font-size="10.00"> char &gt;</text>
</a>
</g>
<!-- Node3&#45;&gt;Node2 -->
<g id="edge4" class="edge"><title>Node3&#45;&gt;Node2</title>
<path fill="none" stroke="midnightblue" d="M70,-136.534C70,-126.306 70,-115.301 70,-107.506"/>
<polygon fill="midnightblue" stroke="midnightblue" points="66.5001,-136.746 70,-146.746 73.5001,-136.746 66.5001,-136.746"/>
</g>
</g>
</svg>
