<?xml version="1.0" encoding="UTF-8" standalone="no"?>
<!DOCTYPE svg PUBLIC "-//W3C//DTD SVG 1.1//EN"
 "http://www.w3.org/Graphics/SVG/1.1/DTD/svg11.dtd">
<!-- Generated by graphviz version 2.26.3 (20100126.1600)
 -->
<!-- Title: src/base/std_ext/system.cc Pages: 1 -->
<svg width="633pt" height="146pt"
 viewBox="0.00 0.00 633.00 146.00" xmlns="http://www.w3.org/2000/svg" xmlns:xlink="http://www.w3.org/1999/xlink">
<g id="graph1" class="graph" transform="scale(1 1) rotate(0) translate(4 142)">
<title>src/base/std_ext/system.cc</title>
<polygon fill="white" stroke="white" points="-4,5 -4,-142 630,-142 630,5 -4,5"/>
<!-- Node0 -->
<g id="node1" class="node"><title>Node0</title>
<polygon fill="#bfbfbf" stroke="black" points="261,-116.5 261,-137.5 399,-137.5 399,-116.5 261,-116.5"/>
<text text-anchor="middle" x="330" y="-124.5" font-family="Helvetica,sans-Serif" font-size="10.00">src/base/std_ext/system.cc</text>
</g>
<!-- Node1 -->
<g id="node3" class="node"><title>Node1</title>
<a xlink:href="system_8h.html" target="_top" xlink:title="system.h">
<polygon fill="white" stroke="black" points="34.5,-58.5 34.5,-79.5 91.5,-79.5 91.5,-58.5 34.5,-58.5"/>
<text text-anchor="middle" x="63" y="-66.5" font-family="Helvetica,sans-Serif" font-size="10.00">system.h</text>
</a>
</g>
<!-- Node0&#45;&gt;Node1 -->
<g id="edge2" class="edge"><title>Node0&#45;&gt;Node1</title>
<path fill="none" stroke="midnightblue" d="M271.07,-116.427C226.783,-108.147 164.444,-95.7833 101.688,-80.2895"/>
<polygon fill="midnightblue" stroke="midnightblue" points="102.165,-76.8013 91.6151,-77.7761 100.47,-83.5931 102.165,-76.8013"/>
</g>
<!-- Node4 -->
<g id="node9" class="node"><title>Node4</title>
<a xlink:href="string_8h.html" target="_top" xlink:title="string.h">
<polygon fill="white" stroke="black" points="108.5,-58.5 108.5,-79.5 157.5,-79.5 157.5,-58.5 108.5,-58.5"/>
<text text-anchor="middle" x="133" y="-66.5" font-family="Helvetica,sans-Serif" font-size="10.00">string.h</text>
</a>
</g>
<!-- Node0&#45;&gt;Node4 -->
<g id="edge8" class="edge"><title>Node0&#45;&gt;Node4</title>
<path fill="none" stroke="midnightblue" d="M291.424,-116.445C260.25,-107.804 215.019,-95.0167 167.647,-80.44"/>
<polygon fill="midnightblue" stroke="midnightblue" points="168.417,-77.0147 157.83,-77.4026 166.348,-83.7019 168.417,-77.0147"/>
</g>
<!-- Node8 -->
<g id="node18" class="node"><title>Node8</title>
<polygon fill="white" stroke="#bfbfbf" points="174.5,-58.5 174.5,-79.5 225.5,-79.5 225.5,-58.5 174.5,-58.5"/>
<text text-anchor="middle" x="200" y="-66.5" font-family="Helvetica,sans-Serif" font-size="10.00">unistd.h</text>
</g>
<!-- Node0&#45;&gt;Node8 -->
<g id="edge18" class="edge"><title>Node0&#45;&gt;Node8</title>
<path fill="none" stroke="midnightblue" d="M306.458,-116.497C285.971,-107.356 256.053,-94.0082 233.146,-83.7883"/>
<polygon fill="midnightblue" stroke="midnightblue" points="234.365,-80.4994 223.806,-79.6212 231.512,-86.892 234.365,-80.4994"/>
</g>
<!-- Node9 -->
<g id="node20" class="node"><title>Node9</title>
<polygon fill="white" stroke="#bfbfbf" points="242.5,-58.5 242.5,-79.5 291.5,-79.5 291.5,-58.5 242.5,-58.5"/>
<text text-anchor="middle" x="267" y="-66.5" font-family="Helvetica,sans-Serif" font-size="10.00">dirent.h</text>
</g>
<!-- Node0&#45;&gt;Node9 -->
<g id="edge20" class="edge"><title>Node0&#45;&gt;Node9</title>
<path fill="none" stroke="midnightblue" d="M318.445,-116.362C309.387,-108.023 296.59,-96.2418 286.026,-86.5162"/>
<polygon fill="midnightblue" stroke="midnightblue" points="288.21,-83.7688 278.482,-79.5707 283.468,-88.9187 288.21,-83.7688"/>
</g>
<!-- Node10 -->
<g id="node22" class="node"><title>Node10</title>
<polygon fill="white" stroke="#bfbfbf" points="308.5,-58.5 308.5,-79.5 351.5,-79.5 351.5,-58.5 308.5,-58.5"/>
<text text-anchor="middle" x="330" y="-66.5" font-family="Helvetica,sans-Serif" font-size="10.00">cstdio</text>
</g>
<!-- Node0&#45;&gt;Node10 -->
<g id="edge22" class="edge"><title>Node0&#45;&gt;Node10</title>
<path fill="none" stroke="midnightblue" d="M330,-116.362C330,-108.922 330,-98.7427 330,-89.7276"/>
<polygon fill="midnightblue" stroke="midnightblue" points="333.5,-89.5706 330,-79.5707 326.5,-89.5707 333.5,-89.5706"/>
</g>
<!-- Node11 -->
<g id="node24" class="node"><title>Node11</title>
<polygon fill="white" stroke="#bfbfbf" points="369,-58.5 369,-79.5 415,-79.5 415,-58.5 369,-58.5"/>
<text text-anchor="middle" x="392" y="-66.5" font-family="Helvetica,sans-Serif" font-size="10.00">cstring</text>
</g>
<!-- Node0&#45;&gt;Node11 -->
<g id="edge24" class="edge"><title>Node0&#45;&gt;Node11</title>
<path fill="none" stroke="midnightblue" d="M341.372,-116.362C350.286,-108.023 362.879,-96.2418 373.276,-86.5162"/>
<polygon fill="midnightblue" stroke="midnightblue" points="375.789,-88.9582 380.7,-79.5707 371.007,-83.8463 375.789,-88.9582"/>
</g>
<!-- Node12 -->
<g id="node26" class="node"><title>Node12</title>
<polygon fill="white" stroke="#bfbfbf" points="432.5,-58.5 432.5,-79.5 491.5,-79.5 491.5,-58.5 432.5,-58.5"/>
<text text-anchor="middle" x="462" y="-66.5" font-family="Helvetica,sans-Serif" font-size="10.00">stdexcept</text>
</g>
<!-- Node0&#45;&gt;Node12 -->
<g id="edge26" class="edge"><title>Node0&#45;&gt;Node12</title>
<path fill="none" stroke="midnightblue" d="M353.904,-116.497C374.8,-107.315 405.356,-93.8889 428.655,-83.6516"/>
<polygon fill="midnightblue" stroke="midnightblue" points="430.08,-86.8483 437.828,-79.6212 427.264,-80.4397 430.08,-86.8483"/>
</g>
<!-- Node13 -->
<g id="node28" class="node"><title>Node13</title>
<polygon fill="white" stroke="#bfbfbf" points="509,-58.5 509,-79.5 569,-79.5 569,-58.5 509,-58.5"/>
<text text-anchor="middle" x="539" y="-66.5" font-family="Helvetica,sans-Serif" font-size="10.00">sys/stat.h</text>
</g>
<!-- Node0&#45;&gt;Node13 -->
<g id="edge28" class="edge"><title>Node0&#45;&gt;Node13</title>
<path fill="none" stroke="midnightblue" d="M368.5,-116.417C400.88,-107.503 448.654,-94.3184 499.007,-80.2691"/>
<polygon fill="midnightblue" stroke="midnightblue" points="500.08,-83.6033 508.771,-77.5429 498.198,-76.8611 500.08,-83.6033"/>
</g>
<!-- Node14 -->
<g id="node30" class="node"><title>Node14</title>
<polygon fill="white" stroke="#bfbfbf" points="587,-58.5 587,-79.5 625,-79.5 625,-58.5 587,-58.5"/>
<text text-anchor="middle" x="606" y="-66.5" font-family="Helvetica,sans-Serif" font-size="10.00">array</text>
</g>
<!-- Node0&#45;&gt;Node14 -->
<g id="edge30" class="edge"><title>Node0&#45;&gt;Node14</title>
<path fill="none" stroke="midnightblue" d="M399.233,-117.435C446.977,-110.023 511.918,-98.3353 576.881,-79.9414"/>
<polygon fill="midnightblue" stroke="midnightblue" points="578.246,-83.1905 586.884,-77.0553 576.305,-76.4649 578.246,-83.1905"/>
</g>
<!-- Node2 -->
<g id="node5" class="node"><title>Node2</title>
<polygon fill="white" stroke="#bfbfbf" points="-0.5,-0.5 -0.5,-21.5 28.5,-21.5 28.5,-0.5 -0.5,-0.5"/>
<text text-anchor="middle" x="14" y="-8.5" font-family="Helvetica,sans-Serif" font-size="10.00">list</text>
</g>
<!-- Node1&#45;&gt;Node2 -->
<g id="edge4" class="edge"><title>Node1&#45;&gt;Node2</title>
<path fill="none" stroke="midnightblue" d="M54.0126,-58.3619C47.1745,-50.2678 37.5976,-38.9318 29.5276,-29.3796"/>
<polygon fill="midnightblue" stroke="midnightblue" points="32.0575,-26.9508 22.9304,-21.5707 26.7103,-31.4683 32.0575,-26.9508"/>
</g>
<!-- Node3 -->
<g id="node7" class="node"><title>Node3</title>
<polygon fill="white" stroke="#bfbfbf" points="45.5,-0.5 45.5,-21.5 86.5,-21.5 86.5,-0.5 45.5,-0.5"/>
<text text-anchor="middle" x="66" y="-8.5" font-family="Helvetica,sans-Serif" font-size="10.00">string</text>
</g>
<!-- Node1&#45;&gt;Node3 -->
<g id="edge6" class="edge"><title>Node1&#45;&gt;Node3</title>
<path fill="none" stroke="midnightblue" d="M63.5502,-58.3619C63.9351,-50.9219 64.4616,-40.7427 64.9279,-31.7276"/>
<polygon fill="midnightblue" stroke="midnightblue" points="68.4319,-31.7381 65.4532,-21.5707 61.4413,-31.3765 68.4319,-31.7381"/>
</g>
<!-- Node4&#45;&gt;Node3 -->
<g id="edge10" class="edge"><title>Node4&#45;&gt;Node3</title>
<path fill="none" stroke="midnightblue" d="M120.711,-58.3619C110.983,-49.9408 97.2018,-38.0105 85.9045,-28.2308"/>
<polygon fill="midnightblue" stroke="midnightblue" points="88.0623,-25.4695 78.2109,-21.5707 83.4808,-30.7619 88.0623,-25.4695"/>
</g>
<!-- Node5 -->
<g id="node12" class="node"><title>Node5</title>
<polygon fill="white" stroke="#bfbfbf" points="104,-0.5 104,-21.5 156,-21.5 156,-0.5 104,-0.5"/>
<text text-anchor="middle" x="130" y="-8.5" font-family="Helvetica,sans-Serif" font-size="10.00">sstream</text>
</g>
<!-- Node4&#45;&gt;Node5 -->
<g id="edge12" class="edge"><title>Node4&#45;&gt;Node5</title>
<path fill="none" stroke="midnightblue" d="M132.45,-58.3619C132.065,-50.9219 131.538,-40.7427 131.072,-31.7276"/>
<polygon fill="midnightblue" stroke="midnightblue" points="134.559,-31.3765 130.547,-21.5707 127.568,-31.7381 134.559,-31.3765"/>
</g>
<!-- Node6 -->
<g id="node14" class="node"><title>Node6</title>
<polygon fill="white" stroke="#bfbfbf" points="174,-0.5 174,-21.5 230,-21.5 230,-0.5 174,-0.5"/>
<text text-anchor="middle" x="202" y="-8.5" font-family="Helvetica,sans-Serif" font-size="10.00">algorithm</text>
</g>
<!-- Node4&#45;&gt;Node6 -->
<g id="edge14" class="edge"><title>Node4&#45;&gt;Node6</title>
<path fill="none" stroke="midnightblue" d="M145.656,-58.3619C155.674,-49.9408 169.867,-38.0105 181.501,-28.2308"/>
<polygon fill="midnightblue" stroke="midnightblue" points="184.022,-30.6844 189.425,-21.5707 179.518,-25.326 184.022,-30.6844"/>
</g>
<!-- Node7 -->
<g id="node16" class="node"><title>Node7</title>
<polygon fill="white" stroke="#bfbfbf" points="248,-0.5 248,-21.5 292,-21.5 292,-0.5 248,-0.5"/>
<text text-anchor="middle" x="270" y="-8.5" font-family="Helvetica,sans-Serif" font-size="10.00">vector</text>
</g>
<!-- Node4&#45;&gt;Node7 -->
<g id="edge16" class="edge"><title>Node4&#45;&gt;Node7</title>
<path fill="none" stroke="midnightblue" d="M157.81,-58.4966C180.41,-48.9287 213.9,-34.7506 238.405,-24.3758"/>
<polygon fill="midnightblue" stroke="midnightblue" points="239.799,-27.5867 247.643,-20.465 237.07,-21.1406 239.799,-27.5867"/>
</g>
</g>
</svg>
