<?xml version="1.0" encoding="UTF-8" standalone="no"?>
<!DOCTYPE svg PUBLIC "-//W3C//DTD SVG 1.1//EN"
 "http://www.w3.org/Graphics/SVG/1.1/DTD/svg11.dtd">
<!-- Generated by graphviz version 2.26.3 (20100126.1600)
 -->
<!-- Title: src/base/std_ext/system.h Pages: 1 -->
<svg width="3820pt" height="102pt"
 viewBox="0.00 0.00 3820.00 102.00" xmlns="http://www.w3.org/2000/svg" xmlns:xlink="http://www.w3.org/1999/xlink">
<g id="graph1" class="graph" transform="scale(1 1) rotate(0) translate(4 98)">
<title>src/base/std_ext/system.h</title>
<polygon fill="white" stroke="white" points="-4,5 -4,-98 3817,-98 3817,5 -4,5"/>
<!-- Node3 -->
<g id="node1" class="node"><title>Node3</title>
<polygon fill="#bfbfbf" stroke="black" points="1851.5,-72.5 1851.5,-93.5 1984.5,-93.5 1984.5,-72.5 1851.5,-72.5"/>
<text text-anchor="middle" x="1918" y="-80.5" font-family="Helvetica,sans-Serif" font-size="10.00">src/base/std_ext/system.h</text>
</g>
<!-- Node4 -->
<g id="node3" class="node"><title>Node4</title>
<a xlink:href="_ant-alt_veto_cal_tool_8cc.html" target="_top" xlink:title="progs/Ant&#45;altVetoCalTool.cc">
<polygon fill="white" stroke="black" points="0,-7.5 0,-28.5 140,-28.5 140,-7.5 0,-7.5"/>
<text text-anchor="middle" x="70" y="-15.5" font-family="Helvetica,sans-Serif" font-size="10.00">progs/Ant&#45;altVetoCalTool.cc</text>
</a>
</g>
<!-- Node3&#45;&gt;Node4 -->
<g id="edge2" class="edge"><title>Node3&#45;&gt;Node4</title>
<path fill="none" stroke="midnightblue" d="M1841.21,-81.8543C1523.19,-76.9874 318.1,-57.2986 149,-36 135.881,-34.3476 121.745,-31.4818 109.107,-28.5165"/>
<polygon fill="midnightblue" stroke="midnightblue" points="1841.2,-85.3545 1851.26,-82.0076 1841.31,-78.3553 1841.2,-85.3545"/>
</g>
<!-- Node5 -->
<g id="node5" class="node"><title>Node5</title>
<a xlink:href="_ant-calib-dump_8cc.html" target="_top" xlink:title="progs/Ant&#45;calib&#45;dump.cc">
<polygon fill="white" stroke="black" points="158,-7.5 158,-28.5 280,-28.5 280,-7.5 158,-7.5"/>
<text text-anchor="middle" x="219" y="-15.5" font-family="Helvetica,sans-Serif" font-size="10.00">progs/Ant&#45;calib&#45;dump.cc</text>
</a>
</g>
<!-- Node3&#45;&gt;Node5 -->
<g id="edge4" class="edge"><title>Node3&#45;&gt;Node5</title>
<path fill="none" stroke="midnightblue" d="M1840.65,-81.7814C1538.01,-76.8751 443.268,-57.7817 289,-36 277.321,-34.3509 264.78,-31.486 253.586,-28.5205"/>
<polygon fill="midnightblue" stroke="midnightblue" points="1841.02,-85.2878 1851.08,-81.9499 1841.13,-78.2887 1841.02,-85.2878"/>
</g>
<!-- Node6 -->
<g id="node7" class="node"><title>Node6</title>
<a xlink:href="_ant-calib-readin_8cc.html" target="_top" xlink:title="progs/Ant&#45;calib&#45;readin.cc">
<polygon fill="white" stroke="black" points="297.5,-7.5 297.5,-28.5 422.5,-28.5 422.5,-7.5 297.5,-7.5"/>
<text text-anchor="middle" x="360" y="-15.5" font-family="Helvetica,sans-Serif" font-size="10.00">progs/Ant&#45;calib&#45;readin.cc</text>
</a>
</g>
<!-- Node3&#45;&gt;Node6 -->
<g id="edge6" class="edge"><title>Node3&#45;&gt;Node6</title>
<path fill="none" stroke="midnightblue" d="M1841.08,-82.7679C1576.84,-81.6264 707.369,-74.9305 431,-36 419.289,-34.3504 406.717,-31.5238 395.455,-28.5931"/>
<polygon fill="midnightblue" stroke="midnightblue" points="1841.33,-86.2688 1851.34,-82.8107 1841.36,-79.2689 1841.33,-86.2688"/>
</g>
<!-- Node7 -->
<g id="node9" class="node"><title>Node7</title>
<a xlink:href="_ant-calib-regedit_8cc.html" target="_top" xlink:title="progs/Ant&#45;calib&#45;regedit.cc">
<polygon fill="white" stroke="black" points="440,-7.5 440,-28.5 568,-28.5 568,-7.5 440,-7.5"/>
<text text-anchor="middle" x="504" y="-15.5" font-family="Helvetica,sans-Serif" font-size="10.00">progs/Ant&#45;calib&#45;regedit.cc</text>
</a>
</g>
<!-- Node3&#45;&gt;Node7 -->
<g id="edge8" class="edge"><title>Node3&#45;&gt;Node7</title>
<path fill="none" stroke="midnightblue" d="M1840.82,-82.3903C1593.67,-80.1083 823.653,-70.3548 577,-36 564.977,-34.3253 552.055,-31.4919 540.474,-28.5626"/>
<polygon fill="midnightblue" stroke="midnightblue" points="1841.11,-85.893 1851.14,-82.4841 1841.17,-78.8933 1841.11,-85.893"/>
</g>
<!-- Node8 -->
<g id="node11" class="node"><title>Node8</title>
<a xlink:href="_ant-calib-smooth_8cc.html" target="_top" xlink:title="progs/Ant&#45;calib&#45;smooth.cc">
<polygon fill="white" stroke="black" points="585.5,-7.5 585.5,-28.5 716.5,-28.5 716.5,-7.5 585.5,-7.5"/>
<text text-anchor="middle" x="651" y="-15.5" font-family="Helvetica,sans-Serif" font-size="10.00">progs/Ant&#45;calib&#45;smooth.cc</text>
</a>
</g>
<!-- Node3&#45;&gt;Node8 -->
<g id="edge10" class="edge"><title>Node3&#45;&gt;Node8</title>
<path fill="none" stroke="midnightblue" d="M1841.27,-81.9744C1613.19,-78.6096 941.83,-66.3334 725,-36 712.822,-34.2964 699.726,-31.4551 687.987,-28.5274"/>
<polygon fill="midnightblue" stroke="midnightblue" points="1841.42,-85.4768 1851.47,-82.1232 1841.52,-78.4776 1841.42,-85.4768"/>
</g>
<!-- Node9 -->
<g id="node13" class="node"><title>Node9</title>
<a xlink:href="_ant-calib-viewer_8cc.html" target="_top" xlink:title="progs/Ant&#45;calib&#45;viewer.cc">
<polygon fill="white" stroke="black" points="733.5,-7.5 733.5,-28.5 860.5,-28.5 860.5,-7.5 733.5,-7.5"/>
<text text-anchor="middle" x="797" y="-15.5" font-family="Helvetica,sans-Serif" font-size="10.00">progs/Ant&#45;calib&#45;viewer.cc</text>
</a>
</g>
<!-- Node3&#45;&gt;Node9 -->
<g id="edge12" class="edge"><title>Node3&#45;&gt;Node9</title>
<path fill="none" stroke="midnightblue" d="M1840.95,-81.5488C1631.79,-77.2902 1056.6,-63.3701 869,-36 857.27,-34.2886 844.672,-31.4826 833.345,-28.5897"/>
<polygon fill="midnightblue" stroke="midnightblue" points="1841.15,-85.0536 1851.22,-81.7562 1841.29,-78.055 1841.15,-85.0536"/>
</g>
<!-- Node10 -->
<g id="node15" class="node"><title>Node10</title>
<a xlink:href="_ant-chain_8cc.html" target="_top" xlink:title="hadd like tool to concatenate TTrees in ROOT files using TChains. ">
<polygon fill="white" stroke="black" points="878,-7.5 878,-28.5 976,-28.5 976,-7.5 878,-7.5"/>
<text text-anchor="middle" x="927" y="-15.5" font-family="Helvetica,sans-Serif" font-size="10.00">progs/Ant&#45;chain.cc</text>
</a>
</g>
<!-- Node3&#45;&gt;Node10 -->
<g id="edge14" class="edge"><title>Node3&#45;&gt;Node10</title>
<path fill="none" stroke="midnightblue" d="M1841.38,-81.6101C1648.9,-77.7218 1148.75,-65.0575 985,-36 975.346,-34.2868 965.051,-31.4428 955.856,-28.5157"/>
<polygon fill="midnightblue" stroke="midnightblue" points="1841.35,-85.11 1851.42,-81.8105 1841.49,-78.1114 1841.35,-85.11"/>
</g>
<!-- Node11 -->
<g id="node17" class="node"><title>Node11</title>
<a xlink:href="_ant-fake_raw_8cc.html" target="_top" xlink:title="progs/Ant&#45;fakeRaw.cc">
<polygon fill="white" stroke="black" points="994,-7.5 994,-28.5 1108,-28.5 1108,-7.5 994,-7.5"/>
<text text-anchor="middle" x="1051" y="-15.5" font-family="Helvetica,sans-Serif" font-size="10.00">progs/Ant&#45;fakeRaw.cc</text>
</a>
</g>
<!-- Node3&#45;&gt;Node11 -->
<g id="edge16" class="edge"><title>Node3&#45;&gt;Node11</title>
<path fill="none" stroke="midnightblue" d="M1841.46,-80.5372C1669.13,-74.6625 1254.98,-58.6121 1117,-36 1106.22,-34.233 1094.66,-31.4113 1084.28,-28.5212"/>
<polygon fill="midnightblue" stroke="midnightblue" points="1841.35,-84.0355 1851.47,-80.8761 1841.59,-77.0395 1841.35,-84.0355"/>
</g>
<!-- Node12 -->
<g id="node19" class="node"><title>Node12</title>
<a xlink:href="_ant-hadd_8cc.html" target="_top" xlink:title="progs/Ant&#45;hadd.cc">
<polygon fill="white" stroke="black" points="1126,-7.5 1126,-28.5 1222,-28.5 1222,-7.5 1126,-7.5"/>
<text text-anchor="middle" x="1174" y="-15.5" font-family="Helvetica,sans-Serif" font-size="10.00">progs/Ant&#45;hadd.cc</text>
</a>
</g>
<!-- Node3&#45;&gt;Node12 -->
<g id="edge18" class="edge"><title>Node3&#45;&gt;Node12</title>
<path fill="none" stroke="midnightblue" d="M1841.15,-80.0439C1687.23,-73.745 1346.04,-57.7779 1231,-36 1221.62,-34.2242 1211.62,-31.4 1202.66,-28.5104"/>
<polygon fill="midnightblue" stroke="midnightblue" points="1841.32,-83.5538 1851.46,-80.4628 1841.61,-76.5596 1841.32,-83.5538"/>
</g>
<!-- Node13 -->
<g id="node21" class="node"><title>Node13</title>
<a xlink:href="_ant-make_sigmas_8cc.html" target="_top" xlink:title="progs/Ant&#45;makeSigmas.cc">
<polygon fill="white" stroke="black" points="1240,-7.5 1240,-28.5 1372,-28.5 1372,-7.5 1240,-7.5"/>
<text text-anchor="middle" x="1306" y="-15.5" font-family="Helvetica,sans-Serif" font-size="10.00">progs/Ant&#45;makeSigmas.cc</text>
</a>
</g>
<!-- Node3&#45;&gt;Node13 -->
<g id="edge20" class="edge"><title>Node3&#45;&gt;Node13</title>
<path fill="none" stroke="midnightblue" d="M1841.32,-79.8665C1736.72,-74.7791 1543.69,-62.493 1381,-36 1369.24,-34.0846 1356.59,-31.3254 1345.09,-28.5406"/>
<polygon fill="midnightblue" stroke="midnightblue" points="1841.32,-83.3702 1851.47,-80.351 1841.65,-76.3781 1841.32,-83.3702"/>
</g>
<!-- Node14 -->
<g id="node23" class="node"><title>Node14</title>
<a xlink:href="_ant-make_tagg_eff_8cc.html" target="_top" xlink:title="progs/Ant&#45;makeTaggEff.cc">
<polygon fill="white" stroke="black" points="1390,-7.5 1390,-28.5 1524,-28.5 1524,-7.5 1390,-7.5"/>
<text text-anchor="middle" x="1457" y="-15.5" font-family="Helvetica,sans-Serif" font-size="10.00">progs/Ant&#45;makeTaggEff.cc</text>
</a>
</g>
<!-- Node3&#45;&gt;Node14 -->
<g id="edge22" class="edge"><title>Node3&#45;&gt;Node14</title>
<path fill="none" stroke="midnightblue" d="M1841.02,-76.1417C1763.03,-68.5992 1639.1,-54.9796 1533,-36 1521.52,-33.9465 1509.18,-31.2414 1497.85,-28.5541"/>
<polygon fill="midnightblue" stroke="midnightblue" points="1840.95,-79.6512 1851.24,-77.1208 1841.62,-72.6831 1840.95,-79.6512"/>
</g>
<!-- Node15 -->
<g id="node25" class="node"><title>Node15</title>
<a xlink:href="_ant-mc-pi0gun_8cc.html" target="_top" xlink:title="progs/Ant&#45;mc&#45;pi0gun.cc">
<polygon fill="white" stroke="black" points="1542,-7.5 1542,-28.5 1662,-28.5 1662,-7.5 1542,-7.5"/>
<text text-anchor="middle" x="1602" y="-15.5" font-family="Helvetica,sans-Serif" font-size="10.00">progs/Ant&#45;mc&#45;pi0gun.cc</text>
</a>
</g>
<!-- Node3&#45;&gt;Node15 -->
<g id="edge24" class="edge"><title>Node3&#45;&gt;Node15</title>
<path fill="none" stroke="midnightblue" d="M1846.64,-70.7312C1797.17,-61.9053 1729.86,-49.2623 1671,-36 1661.1,-33.7687 1650.46,-31.12 1640.57,-28.5502"/>
<polygon fill="midnightblue" stroke="midnightblue" points="1846.15,-74.1979 1856.61,-72.4999 1847.37,-67.3057 1846.15,-74.1979"/>
</g>
<!-- Node16 -->
<g id="node27" class="node"><title>Node16</title>
<a xlink:href="_ant-plot_8cc.html" target="_top" xlink:title="progs/Ant&#45;plot.cc">
<polygon fill="white" stroke="black" points="1679.5,-7.5 1679.5,-28.5 1770.5,-28.5 1770.5,-7.5 1679.5,-7.5"/>
<text text-anchor="middle" x="1725" y="-15.5" font-family="Helvetica,sans-Serif" font-size="10.00">progs/Ant&#45;plot.cc</text>
</a>
</g>
<!-- Node3&#45;&gt;Node16 -->
<g id="edge26" class="edge"><title>Node3&#45;&gt;Node16</title>
<path fill="none" stroke="midnightblue" d="M1876.84,-69.1377C1840.81,-57.0023 1789.23,-39.6302 1756.42,-28.5835"/>
<polygon fill="midnightblue" stroke="midnightblue" points="1875.97,-72.5371 1886.56,-72.412 1878.2,-65.9032 1875.97,-72.5371"/>
</g>
<!-- Node17 -->
<g id="node29" class="node"><title>Node17</title>
<a xlink:href="_ant-rawdump_8cc.html" target="_top" xlink:title="progs/Ant&#45;rawdump.cc">
<polygon fill="white" stroke="black" points="1787.5,-7.5 1787.5,-28.5 1902.5,-28.5 1902.5,-7.5 1787.5,-7.5"/>
<text text-anchor="middle" x="1845" y="-15.5" font-family="Helvetica,sans-Serif" font-size="10.00">progs/Ant&#45;rawdump.cc</text>
</a>
</g>
<!-- Node3&#45;&gt;Node17 -->
<g id="edge28" class="edge"><title>Node3&#45;&gt;Node17</title>
<path fill="none" stroke="midnightblue" d="M1898.27,-65.4338C1885.03,-53.6419 1868.02,-38.4983 1856.83,-28.5337"/>
<polygon fill="midnightblue" stroke="midnightblue" points="1896.15,-68.2305 1905.95,-72.2666 1900.8,-63.0026 1896.15,-68.2305"/>
</g>
<!-- Node18 -->
<g id="node31" class="node"><title>Node18</title>
<a xlink:href="_ant-smooth_tagg_eff_8cc.html" target="_top" xlink:title="progs/Ant&#45;smoothTaggEff.cc">
<polygon fill="white" stroke="black" points="1920,-7.5 1920,-28.5 2062,-28.5 2062,-7.5 1920,-7.5"/>
<text text-anchor="middle" x="1991" y="-15.5" font-family="Helvetica,sans-Serif" font-size="10.00">progs/Ant&#45;smoothTaggEff.cc</text>
</a>
</g>
<!-- Node3&#45;&gt;Node18 -->
<g id="edge30" class="edge"><title>Node3&#45;&gt;Node18</title>
<path fill="none" stroke="midnightblue" d="M1937.73,-65.4338C1950.97,-53.6419 1967.98,-38.4983 1979.17,-28.5337"/>
<polygon fill="midnightblue" stroke="midnightblue" points="1935.2,-63.0026 1930.05,-72.2666 1939.85,-68.2305 1935.2,-63.0026"/>
</g>
<!-- Node19 -->
<g id="node33" class="node"><title>Node19</title>
<a xlink:href="_ant_8cc.html" target="_top" xlink:title="Main Ant executable. ">
<polygon fill="white" stroke="black" points="2080,-7.5 2080,-28.5 2152,-28.5 2152,-7.5 2080,-7.5"/>
<text text-anchor="middle" x="2116" y="-15.5" font-family="Helvetica,sans-Serif" font-size="10.00">progs/Ant.cc</text>
</a>
</g>
<!-- Node3&#45;&gt;Node19 -->
<g id="edge32" class="edge"><title>Node3&#45;&gt;Node19</title>
<path fill="none" stroke="midnightblue" d="M1965.29,-69.5677C1995.69,-60.6641 2035.92,-48.3797 2071,-36 2077.35,-33.7598 2084.12,-31.1619 2090.44,-28.6486"/>
<polygon fill="midnightblue" stroke="midnightblue" points="1964,-66.2974 1955.38,-72.4529 1965.96,-73.0184 1964,-66.2974"/>
</g>
<!-- Node20 -->
<g id="node35" class="node"><title>Node20</title>
<a xlink:href="_etap_omega_g__fit_8cc.html" target="_top" xlink:title="progs/EtapOmegaG_fit.cc">
<polygon fill="white" stroke="black" points="2170,-7.5 2170,-28.5 2300,-28.5 2300,-7.5 2170,-7.5"/>
<text text-anchor="middle" x="2235" y="-15.5" font-family="Helvetica,sans-Serif" font-size="10.00">progs/EtapOmegaG_fit.cc</text>
</a>
</g>
<!-- Node3&#45;&gt;Node20 -->
<g id="edge34" class="edge"><title>Node3&#45;&gt;Node20</title>
<path fill="none" stroke="midnightblue" d="M1986.71,-70.6118C2035.47,-61.6001 2102.41,-48.7854 2161,-36 2171.46,-33.7169 2182.71,-31.0765 2193.21,-28.5335"/>
<polygon fill="midnightblue" stroke="midnightblue" points="1985.79,-67.2221 1976.59,-72.4756 1987.06,-74.1064 1985.79,-67.2221"/>
</g>
<!-- Node21 -->
<g id="node37" class="node"><title>Node21</title>
<a xlink:href="_omega_eta_g__fit_8cc.html" target="_top" xlink:title="progs/OmegaEtaG_fit.cc">
<polygon fill="white" stroke="black" points="2317.5,-7.5 2317.5,-28.5 2442.5,-28.5 2442.5,-7.5 2317.5,-7.5"/>
<text text-anchor="middle" x="2380" y="-15.5" font-family="Helvetica,sans-Serif" font-size="10.00">progs/OmegaEtaG_fit.cc</text>
</a>
</g>
<!-- Node3&#45;&gt;Node21 -->
<g id="edge36" class="edge"><title>Node3&#45;&gt;Node21</title>
<path fill="none" stroke="midnightblue" d="M1995.19,-76.676C2074.38,-69.4976 2200.93,-56.1084 2309,-36 2319.88,-33.9763 2331.56,-31.2492 2342.25,-28.5305"/>
<polygon fill="midnightblue" stroke="midnightblue" points="1994.46,-73.2269 1984.81,-77.6053 1995.08,-80.199 1994.46,-73.2269"/>
</g>
<!-- Node22 -->
<g id="node39" class="node"><title>Node22</title>
<a xlink:href="_single_pi0__fit_8cc.html" target="_top" xlink:title="progs/SinglePi0_fit.cc">
<polygon fill="white" stroke="black" points="2460,-7.5 2460,-28.5 2572,-28.5 2572,-7.5 2460,-7.5"/>
<text text-anchor="middle" x="2516" y="-15.5" font-family="Helvetica,sans-Serif" font-size="10.00">progs/SinglePi0_fit.cc</text>
</a>
</g>
<!-- Node3&#45;&gt;Node22 -->
<g id="edge38" class="edge"><title>Node3&#45;&gt;Node22</title>
<path fill="none" stroke="midnightblue" d="M1994.68,-80.622C2098.76,-76.3997 2290.22,-65.1 2451,-36 2461.37,-34.1231 2472.48,-31.3412 2482.53,-28.5225"/>
<polygon fill="midnightblue" stroke="midnightblue" points="1994.43,-77.129 1984.58,-81.0207 1994.71,-84.1235 1994.43,-77.129"/>
</g>
<!-- Node23 -->
<g id="node41" class="node"><title>Node23</title>
<a xlink:href="tagg_eff_plot_8cc.html" target="_top" xlink:title="progs/taggEffPlot.cc">
<polygon fill="white" stroke="black" points="2590,-7.5 2590,-28.5 2696,-28.5 2696,-7.5 2590,-7.5"/>
<text text-anchor="middle" x="2643" y="-15.5" font-family="Helvetica,sans-Serif" font-size="10.00">progs/taggEffPlot.cc</text>
</a>
</g>
<!-- Node3&#45;&gt;Node23 -->
<g id="edge40" class="edge"><title>Node3&#45;&gt;Node23</title>
<path fill="none" stroke="midnightblue" d="M1994.64,-79.6099C2144.29,-72.654 2470.37,-55.75 2581,-36 2591.04,-34.2075 2601.78,-31.4149 2611.45,-28.5597"/>
<polygon fill="midnightblue" stroke="midnightblue" points="1994.44,-76.1155 1984.61,-80.0736 1994.76,-83.108 1994.44,-76.1155"/>
</g>
<!-- Node24 -->
<g id="node43" class="node"><title>Node24</title>
<a xlink:href="tagger_energies_8cc.html" target="_top" xlink:title="progs/taggerEnergies.cc">
<polygon fill="white" stroke="black" points="2714,-7.5 2714,-28.5 2836,-28.5 2836,-7.5 2714,-7.5"/>
<text text-anchor="middle" x="2775" y="-15.5" font-family="Helvetica,sans-Serif" font-size="10.00">progs/taggerEnergies.cc</text>
</a>
</g>
<!-- Node3&#45;&gt;Node24 -->
<g id="edge42" class="edge"><title>Node3&#45;&gt;Node24</title>
<path fill="none" stroke="midnightblue" d="M1994.68,-80.2985C2164.84,-73.9979 2569.67,-57.2385 2705,-36 2716.28,-34.2296 2728.39,-31.4434 2739.31,-28.5873"/>
<polygon fill="midnightblue" stroke="midnightblue" points="1994.41,-76.8059 1984.55,-80.6715 1994.67,-83.8011 1994.41,-76.8059"/>
</g>
<!-- Node25 -->
<g id="node45" class="node"><title>Node25</title>
<a xlink:href="_particle_i_d_8cc.html" target="_top" xlink:title="src/analysis/utils\l/ParticleID.cc">
<polygon fill="white" stroke="black" points="2854,-1 2854,-35 2944,-35 2944,-1 2854,-1"/>
<text text-anchor="start" x="2862" y="-22" font-family="Helvetica,sans-Serif" font-size="10.00">src/analysis/utils</text>
<text text-anchor="middle" x="2899" y="-9" font-family="Helvetica,sans-Serif" font-size="10.00">/ParticleID.cc</text>
</a>
</g>
<!-- Node3&#45;&gt;Node25 -->
<g id="edge44" class="edge"><title>Node3&#45;&gt;Node25</title>
<path fill="none" stroke="midnightblue" d="M1994.79,-81.7807C2186.59,-78.3059 2682.8,-66.557 2845,-36 2847.91,-35.4512 2850.89,-34.7838 2853.86,-34.0331"/>
<polygon fill="midnightblue" stroke="midnightblue" points="1994.45,-78.2861 1984.52,-81.9641 1994.58,-85.2849 1994.45,-78.2861"/>
</g>
<!-- Node26 -->
<g id="node47" class="node"><title>Node26</title>
<a xlink:href="_m_c_extracted_8cc.html" target="_top" xlink:title="src/analysis/utils\l/uncertainties/MCExtracted.cc">
<polygon fill="white" stroke="black" points="2961.5,-1 2961.5,-35 3110.5,-35 3110.5,-1 2961.5,-1"/>
<text text-anchor="start" x="2969.5" y="-22" font-family="Helvetica,sans-Serif" font-size="10.00">src/analysis/utils</text>
<text text-anchor="middle" x="3036" y="-9" font-family="Helvetica,sans-Serif" font-size="10.00">/uncertainties/MCExtracted.cc</text>
</a>
</g>
<!-- Node3&#45;&gt;Node26 -->
<g id="edge46" class="edge"><title>Node3&#45;&gt;Node26</title>
<path fill="none" stroke="midnightblue" d="M1994.72,-81.1908C2201.58,-76.045 2767.73,-60.1222 2953,-36 2955.78,-35.6383 2958.6,-35.2311 2961.45,-34.7873"/>
<polygon fill="midnightblue" stroke="midnightblue" points="1994.46,-77.696 1984.55,-81.4422 1994.63,-84.6938 1994.46,-77.696"/>
</g>
<!-- Node27 -->
<g id="node49" class="node"><title>Node27</title>
<a xlink:href="_git_info_8cc.html" target="_top" xlink:title="src/base/GitInfo.cc">
<polygon fill="white" stroke="black" points="3128,-7.5 3128,-28.5 3228,-28.5 3228,-7.5 3128,-7.5"/>
<text text-anchor="middle" x="3178" y="-15.5" font-family="Helvetica,sans-Serif" font-size="10.00">src/base/GitInfo.cc</text>
</a>
</g>
<!-- Node3&#45;&gt;Node27 -->
<g id="edge48" class="edge"><title>Node3&#45;&gt;Node27</title>
<path fill="none" stroke="midnightblue" d="M1994.93,-82.5674C2224.4,-80.8694 2901.55,-72.7922 3119,-36 3128.82,-34.3384 3139.29,-31.5086 3148.65,-28.5786"/>
<polygon fill="midnightblue" stroke="midnightblue" points="1994.65,-79.0692 1984.67,-82.6412 1994.7,-86.0691 1994.65,-79.0692"/>
</g>
<!-- Node28 -->
<g id="node51" class="node"><title>Node28</title>
<a xlink:href="system_8cc.html" target="_top" xlink:title="src/base/std_ext/system.cc">
<polygon fill="white" stroke="black" points="3246,-7.5 3246,-28.5 3384,-28.5 3384,-7.5 3246,-7.5"/>
<text text-anchor="middle" x="3315" y="-15.5" font-family="Helvetica,sans-Serif" font-size="10.00">src/base/std_ext/system.cc</text>
</a>
</g>
<!-- Node3&#45;&gt;Node28 -->
<g id="edge50" class="edge"><title>Node3&#45;&gt;Node28</title>
<path fill="none" stroke="midnightblue" d="M1994.74,-82.1924C2238.67,-79.3218 2994.43,-68.0109 3237,-36 3249.81,-34.309 3263.61,-31.4711 3275.99,-28.5428"/>
<polygon fill="midnightblue" stroke="midnightblue" points="1994.51,-78.6947 1984.55,-82.3109 1994.59,-85.6943 1994.51,-78.6947"/>
</g>
<!-- Node29 -->
<g id="node53" class="node"><title>Node29</title>
<a xlink:href="_wrap_t_file_8cc.html" target="_top" xlink:title="src/base/WrapTFile.cc">
<polygon fill="white" stroke="black" points="3402,-7.5 3402,-28.5 3518,-28.5 3518,-7.5 3402,-7.5"/>
<text text-anchor="middle" x="3460" y="-15.5" font-family="Helvetica,sans-Serif" font-size="10.00">src/base/WrapTFile.cc</text>
</a>
</g>
<!-- Node3&#45;&gt;Node29 -->
<g id="edge52" class="edge"><title>Node3&#45;&gt;Node29</title>
<path fill="none" stroke="midnightblue" d="M1995.05,-81.5855C2278.58,-76.2375 3254.61,-56.5137 3393,-36 3404.2,-34.3399 3416.21,-31.4721 3426.92,-28.5073"/>
<polygon fill="midnightblue" stroke="midnightblue" points="1994.8,-78.0896 1984.86,-81.7771 1994.93,-85.0884 1994.8,-78.0896"/>
</g>
<!-- Node30 -->
<g id="node55" class="node"><title>Node30</title>
<a xlink:href="_data_base_8cc.html" target="_top" xlink:title="src/calibration/DataBase.cc">
<polygon fill="white" stroke="black" points="3535.5,-7.5 3535.5,-28.5 3672.5,-28.5 3672.5,-7.5 3535.5,-7.5"/>
<text text-anchor="middle" x="3604" y="-15.5" font-family="Helvetica,sans-Serif" font-size="10.00">src/calibration/DataBase.cc</text>
</a>
</g>
<!-- Node3&#45;&gt;Node30 -->
<g id="edge54" class="edge"><title>Node3&#45;&gt;Node30</title>
<path fill="none" stroke="midnightblue" d="M1995.01,-82.795C2273.16,-81.7359 3225.35,-75.2595 3527,-36 3539.8,-34.3345 3553.58,-31.4652 3565.89,-28.5007"/>
<polygon fill="midnightblue" stroke="midnightblue" points="1994.6,-79.2964 1984.62,-82.8332 1994.63,-86.2963 1994.6,-79.2964"/>
</g>
<!-- Node31 -->
<g id="node57" class="node"><title>Node31</title>
<a xlink:href="_test_std_ext_8cc.html" target="_top" xlink:title="test/base/TestStdExt.cc">
<polygon fill="white" stroke="black" points="3689.5,-7.5 3689.5,-28.5 3812.5,-28.5 3812.5,-7.5 3689.5,-7.5"/>
<text text-anchor="middle" x="3751" y="-15.5" font-family="Helvetica,sans-Serif" font-size="10.00">test/base/TestStdExt.cc</text>
</a>
</g>
<!-- Node3&#45;&gt;Node31 -->
<g id="edge56" class="edge"><title>Node3&#45;&gt;Node31</title>
<path fill="none" stroke="midnightblue" d="M1994.54,-81.9748C2311.55,-77.5906 3512.78,-59.5632 3681,-36 3692.68,-34.3637 3705.22,-31.5022 3716.42,-28.5359"/>
<polygon fill="midnightblue" stroke="midnightblue" points="1994.48,-78.4752 1984.53,-82.1128 1994.58,-85.4745 1994.48,-78.4752"/>
</g>
</g>
</svg>
