<?xml version="1.0" encoding="UTF-8" standalone="no"?>
<!DOCTYPE svg PUBLIC "-//W3C//DTD SVG 1.1//EN"
 "http://www.w3.org/Graphics/SVG/1.1/DTD/svg11.dtd">
<!-- Generated by graphviz version 2.26.3 (20100126.1600)
 -->
<!-- Title: src/base/tmpfile_t.h Pages: 1 -->
<svg width="2742pt" height="102pt"
 viewBox="0.00 0.00 2742.00 102.00" xmlns="http://www.w3.org/2000/svg" xmlns:xlink="http://www.w3.org/1999/xlink">
<g id="graph1" class="graph" transform="scale(1 1) rotate(0) translate(4 98)">
<title>src/base/tmpfile_t.h</title>
<polygon fill="white" stroke="white" points="-4,5 -4,-98 2739,-98 2739,5 -4,5"/>
<!-- Node4 -->
<g id="node1" class="node"><title>Node4</title>
<polygon fill="#bfbfbf" stroke="black" points="1276.5,-72.5 1276.5,-93.5 1379.5,-93.5 1379.5,-72.5 1276.5,-72.5"/>
<text text-anchor="middle" x="1328" y="-80.5" font-family="Helvetica,sans-Serif" font-size="10.00">src/base/tmpfile_t.h</text>
</g>
<!-- Node5 -->
<g id="node3" class="node"><title>Node5</title>
<a xlink:href="tmpfile__t_8cc.html" target="_top" xlink:title="src/base/tmpfile_t.cc">
<polygon fill="white" stroke="black" points="0,-7.5 0,-28.5 108,-28.5 108,-7.5 0,-7.5"/>
<text text-anchor="middle" x="54" y="-15.5" font-family="Helvetica,sans-Serif" font-size="10.00">src/base/tmpfile_t.cc</text>
</a>
</g>
<!-- Node4&#45;&gt;Node5 -->
<g id="edge2" class="edge"><title>Node4&#45;&gt;Node5</title>
<path fill="none" stroke="midnightblue" d="M1266.33,-82.5556C1052.23,-80.7082 341.856,-71.9517 117,-36 106.554,-34.3298 95.3831,-31.4976 85.3929,-28.568"/>
<polygon fill="midnightblue" stroke="midnightblue" points="1266.42,-86.0563 1276.45,-82.6409 1266.48,-79.0566 1266.42,-86.0563"/>
</g>
<!-- Node6 -->
<g id="node5" class="node"><title>Node6</title>
<a xlink:href="_test_ant_reader_8cc.html" target="_top" xlink:title="test/analysis/TestAntReader.cc">
<polygon fill="white" stroke="black" points="125.5,-7.5 125.5,-28.5 280.5,-28.5 280.5,-7.5 125.5,-7.5"/>
<text text-anchor="middle" x="203" y="-15.5" font-family="Helvetica,sans-Serif" font-size="10.00">test/analysis/TestAntReader.cc</text>
</a>
</g>
<!-- Node4&#45;&gt;Node6 -->
<g id="edge4" class="edge"><title>Node4&#45;&gt;Node6</title>
<path fill="none" stroke="midnightblue" d="M1266.23,-81.5133C1072.72,-76.6499 479.841,-60.1283 289,-36 275.077,-34.2397 260.054,-31.4199 246.52,-28.5295"/>
<polygon fill="midnightblue" stroke="midnightblue" points="1266.14,-85.0122 1276.22,-81.7631 1266.31,-78.0143 1266.14,-85.0122"/>
</g>
<!-- Node7 -->
<g id="node7" class="node"><title>Node7</title>
<a xlink:href="_test_histogram_factory_8cc.html" target="_top" xlink:title="test/analysis/TestHistogram\lFactory.cc">
<polygon fill="white" stroke="black" points="298,-1 298,-35 438,-35 438,-1 298,-1"/>
<text text-anchor="start" x="306" y="-22" font-family="Helvetica,sans-Serif" font-size="10.00">test/analysis/TestHistogram</text>
<text text-anchor="middle" x="368" y="-9" font-family="Helvetica,sans-Serif" font-size="10.00">Factory.cc</text>
</a>
</g>
<!-- Node4&#45;&gt;Node7 -->
<g id="edge6" class="edge"><title>Node4&#45;&gt;Node7</title>
<path fill="none" stroke="midnightblue" d="M1266.1,-81.0745C1092.89,-75.4669 605.604,-58.1341 447,-36 444.074,-35.5917 441.097,-35.1293 438.096,-34.6243"/>
<polygon fill="midnightblue" stroke="midnightblue" points="1266.21,-84.5797 1276.32,-81.4034 1266.44,-77.5833 1266.21,-84.5797"/>
</g>
<!-- Node8 -->
<g id="node9" class="node"><title>Node8</title>
<a xlink:href="_test_physics_manager_8cc.html" target="_top" xlink:title="test/analysis/TestPhysics\lManager.cc">
<polygon fill="white" stroke="black" points="456,-1 456,-35 586,-35 586,-1 456,-1"/>
<text text-anchor="start" x="464" y="-22" font-family="Helvetica,sans-Serif" font-size="10.00">test/analysis/TestPhysics</text>
<text text-anchor="middle" x="521" y="-9" font-family="Helvetica,sans-Serif" font-size="10.00">Manager.cc</text>
</a>
</g>
<!-- Node4&#45;&gt;Node8 -->
<g id="edge8" class="edge"><title>Node4&#45;&gt;Node8</title>
<path fill="none" stroke="midnightblue" d="M1266.16,-80.4267C1113.87,-73.8654 723.775,-55.6364 595,-36 592.124,-35.5615 589.197,-35.0655 586.247,-34.525"/>
<polygon fill="midnightblue" stroke="midnightblue" points="1266.13,-83.9287 1276.27,-80.8603 1266.43,-76.9351 1266.13,-83.9287"/>
</g>
<!-- Node9 -->
<g id="node11" class="node"><title>Node9</title>
<a xlink:href="_test_physics_registry_8cc.html" target="_top" xlink:title="test/analysis/TestPhysics\lRegistry.cc">
<polygon fill="white" stroke="black" points="604,-1 604,-35 734,-35 734,-1 604,-1"/>
<text text-anchor="start" x="612" y="-22" font-family="Helvetica,sans-Serif" font-size="10.00">test/analysis/TestPhysics</text>
<text text-anchor="middle" x="669" y="-9" font-family="Helvetica,sans-Serif" font-size="10.00">Registry.cc</text>
</a>
</g>
<!-- Node4&#45;&gt;Node9 -->
<g id="edge10" class="edge"><title>Node4&#45;&gt;Node9</title>
<path fill="none" stroke="midnightblue" d="M1266.12,-81.2479C1158.94,-77.4975 932.115,-66.4008 743,-36 740.128,-35.5383 737.203,-35.0231 734.256,-34.4668"/>
<polygon fill="midnightblue" stroke="midnightblue" points="1266.3,-84.7563 1276.42,-81.5986 1266.54,-77.7603 1266.3,-84.7563"/>
</g>
<!-- Node10 -->
<g id="node13" class="node"><title>Node10</title>
<a xlink:href="_test_slow_control_manager_8cc.html" target="_top" xlink:title="test/analysis/TestSlowControl\lManager.cc">
<polygon fill="white" stroke="black" points="752,-1 752,-35 900,-35 900,-1 752,-1"/>
<text text-anchor="start" x="760" y="-22" font-family="Helvetica,sans-Serif" font-size="10.00">test/analysis/TestSlowControl</text>
<text text-anchor="middle" x="826" y="-9" font-family="Helvetica,sans-Serif" font-size="10.00">Manager.cc</text>
</a>
</g>
<!-- Node4&#45;&gt;Node10 -->
<g id="edge12" class="edge"><title>Node4&#45;&gt;Node10</title>
<path fill="none" stroke="midnightblue" d="M1266.35,-78.064C1184.41,-71.0516 1035.25,-56.7146 909,-36 906.09,-35.5225 903.128,-35.0098 900.14,-34.4702"/>
<polygon fill="midnightblue" stroke="midnightblue" points="1266.23,-81.5662 1276.49,-78.9235 1266.82,-74.5912 1266.23,-81.5662"/>
</g>
<!-- Node11 -->
<g id="node15" class="node"><title>Node11</title>
<a xlink:href="_test_hadd_8cc.html" target="_top" xlink:title="test/analysis_codes\l/TestHadd.cc">
<polygon fill="white" stroke="black" points="918,-1 918,-35 1022,-35 1022,-1 918,-1"/>
<text text-anchor="start" x="926" y="-22" font-family="Helvetica,sans-Serif" font-size="10.00">test/analysis_codes</text>
<text text-anchor="middle" x="970" y="-9" font-family="Helvetica,sans-Serif" font-size="10.00">/TestHadd.cc</text>
</a>
</g>
<!-- Node4&#45;&gt;Node11 -->
<g id="edge14" class="edge"><title>Node4&#45;&gt;Node11</title>
<path fill="none" stroke="midnightblue" d="M1266.24,-75.608C1205.86,-67.8222 1111.51,-54.1684 1031,-36 1028.09,-35.3437 1025.12,-34.6257 1022.13,-33.8662"/>
<polygon fill="midnightblue" stroke="midnightblue" points="1266.01,-79.1066 1276.37,-76.9001 1266.9,-72.1628 1266.01,-79.1066"/>
</g>
<!-- Node12 -->
<g id="node17" class="node"><title>Node12</title>
<a xlink:href="_test_std_ext_8cc.html" target="_top" xlink:title="test/base/TestStdExt.cc">
<polygon fill="white" stroke="black" points="1039.5,-7.5 1039.5,-28.5 1162.5,-28.5 1162.5,-7.5 1039.5,-7.5"/>
<text text-anchor="middle" x="1101" y="-15.5" font-family="Helvetica,sans-Serif" font-size="10.00">test/base/TestStdExt.cc</text>
</a>
</g>
<!-- Node4&#45;&gt;Node12 -->
<g id="edge16" class="edge"><title>Node4&#45;&gt;Node12</title>
<path fill="none" stroke="midnightblue" d="M1281.44,-69.6679C1238.89,-57.483 1176.8,-39.7045 1137.67,-28.5005"/>
<polygon fill="midnightblue" stroke="midnightblue" points="1280.7,-73.0963 1291.28,-72.4844 1282.63,-66.3667 1280.7,-73.0963"/>
</g>
<!-- Node13 -->
<g id="node19" class="node"><title>Node13</title>
<a xlink:href="_test_wrap_t_file_8cc.html" target="_top" xlink:title="test/base/TestWrapTFile.cc">
<polygon fill="white" stroke="black" points="1180,-7.5 1180,-28.5 1318,-28.5 1318,-7.5 1180,-7.5"/>
<text text-anchor="middle" x="1249" y="-15.5" font-family="Helvetica,sans-Serif" font-size="10.00">test/base/TestWrapTFile.cc</text>
</a>
</g>
<!-- Node4&#45;&gt;Node13 -->
<g id="edge18" class="edge"><title>Node4&#45;&gt;Node13</title>
<path fill="none" stroke="midnightblue" d="M1307.05,-65.7667C1292.67,-53.9281 1274.03,-38.5923 1261.8,-28.5337"/>
<polygon fill="midnightblue" stroke="midnightblue" points="1305.01,-68.6156 1314.95,-72.2666 1309.46,-63.2101 1305.01,-68.6156"/>
</g>
<!-- Node14 -->
<g id="node21" class="node"><title>Node14</title>
<a xlink:href="_test_wrap_t_tree_8cc.html" target="_top" xlink:title="test/base/TestWrapTTree.cc">
<polygon fill="white" stroke="black" points="1336,-7.5 1336,-28.5 1478,-28.5 1478,-7.5 1336,-7.5"/>
<text text-anchor="middle" x="1407" y="-15.5" font-family="Helvetica,sans-Serif" font-size="10.00">test/base/TestWrapTTree.cc</text>
</a>
</g>
<!-- Node4&#45;&gt;Node14 -->
<g id="edge20" class="edge"><title>Node4&#45;&gt;Node14</title>
<path fill="none" stroke="midnightblue" d="M1348.95,-65.7667C1363.33,-53.9281 1381.97,-38.5923 1394.2,-28.5337"/>
<polygon fill="midnightblue" stroke="midnightblue" points="1346.54,-63.2101 1341.05,-72.2666 1350.99,-68.6156 1346.54,-63.2101"/>
</g>
<!-- Node15 -->
<g id="node23" class="node"><title>Node15</title>
<a xlink:href="_test_calibration_modules_8cc.html" target="_top" xlink:title="test/calibration/TestCalibration\lModules.cc">
<polygon fill="white" stroke="black" points="1495.5,-1 1495.5,-35 1644.5,-35 1644.5,-1 1495.5,-1"/>
<text text-anchor="start" x="1503.5" y="-22" font-family="Helvetica,sans-Serif" font-size="10.00">test/calibration/TestCalibration</text>
<text text-anchor="middle" x="1570" y="-9" font-family="Helvetica,sans-Serif" font-size="10.00">Modules.cc</text>
</a>
</g>
<!-- Node4&#45;&gt;Node15 -->
<g id="edge22" class="edge"><title>Node4&#45;&gt;Node15</title>
<path fill="none" stroke="midnightblue" d="M1377.26,-69.769C1414.51,-59.763 1465.97,-45.943 1506.34,-35.0987"/>
<polygon fill="midnightblue" stroke="midnightblue" points="1375.9,-66.5101 1367.15,-72.4844 1377.72,-73.2705 1375.9,-66.5101"/>
</g>
<!-- Node16 -->
<g id="node25" class="node"><title>Node16</title>
<a xlink:href="_test_data_manager_8cc.html" target="_top" xlink:title="test/calibration/TestData\lManager.cc">
<polygon fill="white" stroke="black" points="1662,-1 1662,-35 1786,-35 1786,-1 1662,-1"/>
<text text-anchor="start" x="1670" y="-22" font-family="Helvetica,sans-Serif" font-size="10.00">test/calibration/TestData</text>
<text text-anchor="middle" x="1724" y="-9" font-family="Helvetica,sans-Serif" font-size="10.00">Manager.cc</text>
</a>
</g>
<!-- Node4&#45;&gt;Node16 -->
<g id="edge24" class="edge"><title>Node4&#45;&gt;Node16</title>
<path fill="none" stroke="midnightblue" d="M1389.68,-76.0316C1455.29,-68.164 1561.97,-54.07 1653,-36 1655.87,-35.4305 1658.8,-34.8181 1661.75,-34.175"/>
<polygon fill="midnightblue" stroke="midnightblue" points="1389.02,-72.5845 1379.51,-77.2406 1389.85,-79.5355 1389.02,-72.5845"/>
</g>
<!-- Node17 -->
<g id="node27" class="node"><title>Node17</title>
<a xlink:href="_test_g_u_i_manager_8cc.html" target="_top" xlink:title="test/calibration/TestGUIManager.cc">
<polygon fill="white" stroke="black" points="1804,-7.5 1804,-28.5 1976,-28.5 1976,-7.5 1804,-7.5"/>
<text text-anchor="middle" x="1890" y="-15.5" font-family="Helvetica,sans-Serif" font-size="10.00">test/calibration/TestGUIManager.cc</text>
</a>
</g>
<!-- Node4&#45;&gt;Node17 -->
<g id="edge26" class="edge"><title>Node4&#45;&gt;Node17</title>
<path fill="none" stroke="midnightblue" d="M1389.65,-78.5132C1479.2,-71.6063 1650.37,-56.939 1795,-36 1809.29,-33.9315 1824.7,-31.2214 1838.86,-28.5342"/>
<polygon fill="midnightblue" stroke="midnightblue" points="1389.37,-75.0243 1379.66,-79.2771 1389.9,-82.0039 1389.37,-75.0243"/>
</g>
<!-- Node18 -->
<g id="node29" class="node"><title>Node18</title>
<a xlink:href="expconfig__helpers_8cc.html" target="_top" xlink:title="test/expconfig_helpers.cc">
<polygon fill="white" stroke="black" points="1994,-7.5 1994,-28.5 2122,-28.5 2122,-7.5 1994,-7.5"/>
<text text-anchor="middle" x="2058" y="-15.5" font-family="Helvetica,sans-Serif" font-size="10.00">test/expconfig_helpers.cc</text>
</a>
</g>
<!-- Node4&#45;&gt;Node18 -->
<g id="edge28" class="edge"><title>Node4&#45;&gt;Node18</title>
<path fill="none" stroke="midnightblue" d="M1390.07,-82.0744C1507.12,-79.5529 1768.18,-70.2315 1985,-36 1996.6,-34.168 2009.07,-31.3994 2020.36,-28.5791"/>
<polygon fill="midnightblue" stroke="midnightblue" points="1389.8,-78.5792 1379.87,-82.2846 1389.94,-85.5777 1389.8,-78.5792"/>
</g>
<!-- Node19 -->
<g id="node31" class="node"><title>Node19</title>
<a xlink:href="_test_t_calibration_data_8cc.html" target="_top" xlink:title="test/tree/TestTCalibration\lData.cc">
<polygon fill="white" stroke="black" points="2140,-1 2140,-35 2268,-35 2268,-1 2140,-1"/>
<text text-anchor="start" x="2148" y="-22" font-family="Helvetica,sans-Serif" font-size="10.00">test/tree/TestTCalibration</text>
<text text-anchor="middle" x="2204" y="-9" font-family="Helvetica,sans-Serif" font-size="10.00">Data.cc</text>
</a>
</g>
<!-- Node4&#45;&gt;Node19 -->
<g id="edge30" class="edge"><title>Node4&#45;&gt;Node19</title>
<path fill="none" stroke="midnightblue" d="M1389.97,-80.8445C1552.49,-74.9556 1988.29,-57.5845 2131,-36 2133.84,-35.5706 2136.73,-35.082 2139.64,-34.5476"/>
<polygon fill="midnightblue" stroke="midnightblue" points="1389.53,-77.3578 1379.66,-81.2157 1389.78,-84.3533 1389.53,-77.3578"/>
</g>
<!-- Node20 -->
<g id="node33" class="node"><title>Node20</title>
<a xlink:href="_test_t_event_8cc.html" target="_top" xlink:title="test/tree/TestTEvent.cc">
<polygon fill="white" stroke="black" points="2286,-7.5 2286,-28.5 2406,-28.5 2406,-7.5 2286,-7.5"/>
<text text-anchor="middle" x="2346" y="-15.5" font-family="Helvetica,sans-Serif" font-size="10.00">test/tree/TestTEvent.cc</text>
</a>
</g>
<!-- Node4&#45;&gt;Node20 -->
<g id="edge32" class="edge"><title>Node4&#45;&gt;Node20</title>
<path fill="none" stroke="midnightblue" d="M1389.96,-81.5959C1572.31,-77.1998 2105.06,-62.3967 2277,-36 2288.26,-34.2717 2300.34,-31.4609 2311.19,-28.5688"/>
<polygon fill="midnightblue" stroke="midnightblue" points="1389.65,-78.1021 1379.74,-81.8402 1389.82,-85.1001 1389.65,-78.1021"/>
</g>
<!-- Node21 -->
<g id="node35" class="node"><title>Node21</title>
<a xlink:href="_test_raw_file_reader_8cc.html" target="_top" xlink:title="test/unpacker/TestRawFile\lReader.cc">
<polygon fill="white" stroke="black" points="2424,-1 2424,-35 2558,-35 2558,-1 2424,-1"/>
<text text-anchor="start" x="2432" y="-22" font-family="Helvetica,sans-Serif" font-size="10.00">test/unpacker/TestRawFile</text>
<text text-anchor="middle" x="2491" y="-9" font-family="Helvetica,sans-Serif" font-size="10.00">Reader.cc</text>
</a>
</g>
<!-- Node4&#45;&gt;Node21 -->
<g id="edge34" class="edge"><title>Node4&#45;&gt;Node21</title>
<path fill="none" stroke="midnightblue" d="M1389.58,-81.8714C1588.84,-77.9786 2214.66,-63.7998 2415,-36 2417.95,-35.59 2420.96,-35.1175 2423.99,-34.5963"/>
<polygon fill="midnightblue" stroke="midnightblue" points="1389.51,-78.372 1379.58,-82.0651 1389.65,-85.3707 1389.51,-78.372"/>
</g>
<!-- Node22 -->
<g id="node37" class="node"><title>Node22</title>
<a xlink:href="_test_tree_writer_8cc.html" target="_top" xlink:title="test/unpacker/TestTreeWriter.cc">
<polygon fill="white" stroke="black" points="2576,-7.5 2576,-28.5 2734,-28.5 2734,-7.5 2576,-7.5"/>
<text text-anchor="middle" x="2655" y="-15.5" font-family="Helvetica,sans-Serif" font-size="10.00">test/unpacker/TestTreeWriter.cc</text>
</a>
</g>
<!-- Node4&#45;&gt;Node22 -->
<g id="edge36" class="edge"><title>Node4&#45;&gt;Node22</title>
<path fill="none" stroke="midnightblue" d="M1389.89,-81.995C1607.28,-78.2547 2335.31,-63.8995 2567,-36 2581.24,-34.2848 2596.61,-31.4777 2610.46,-28.585"/>
<polygon fill="midnightblue" stroke="midnightblue" points="1389.56,-78.4999 1379.62,-82.1702 1389.68,-85.4989 1389.56,-78.4999"/>
</g>
</g>
</svg>
