<?xml version="1.0" encoding="UTF-8" standalone="no"?>
<!DOCTYPE svg PUBLIC "-//W3C//DTD SVG 1.1//EN"
 "http://www.w3.org/Graphics/SVG/1.1/DTD/svg11.dtd">
<!-- Generated by graphviz version 2.26.3 (20100126.1600)
 -->
<!-- Title: src/base/std_ext/variadic.h Pages: 1 -->
<svg width="142pt" height="88pt"
 viewBox="0.00 0.00 142.00 88.00" xmlns="http://www.w3.org/2000/svg" xmlns:xlink="http://www.w3.org/1999/xlink">
<g id="graph1" class="graph" transform="scale(1 1) rotate(0) translate(4 84)">
<title>src/base/std_ext/variadic.h</title>
<polygon fill="white" stroke="white" points="-4,5 -4,-84 139,-84 139,5 -4,5"/>
<!-- Node0 -->
<g id="node1" class="node"><title>Node0</title>
<polygon fill="#bfbfbf" stroke="black" points="0,-58.5 0,-79.5 134,-79.5 134,-58.5 0,-58.5"/>
<text text-anchor="middle" x="67" y="-66.5" font-family="Helvetica,sans-Serif" font-size="10.00">src/base/std_ext/variadic.h</text>
</g>
<!-- Node1 -->
<g id="node3" class="node"><title>Node1</title>
<polygon fill="white" stroke="#bfbfbf" points="12.5,-0.5 12.5,-21.5 61.5,-21.5 61.5,-0.5 12.5,-0.5"/>
<text text-anchor="middle" x="37" y="-8.5" font-family="Helvetica,sans-Serif" font-size="10.00">cstddef</text>
</g>
<!-- Node0&#45;&gt;Node1 -->
<g id="edge2" class="edge"><title>Node0&#45;&gt;Node1</title>
<path fill="none" stroke="midnightblue" d="M61.4975,-58.3619C57.4801,-50.5949 51.9186,-39.8426 47.1099,-30.5458"/>
<polygon fill="midnightblue" stroke="midnightblue" points="50.1706,-28.8448 42.4676,-21.5707 43.9531,-32.0608 50.1706,-28.8448"/>
</g>
<!-- Node2 -->
<g id="node5" class="node"><title>Node2</title>
<polygon fill="white" stroke="#bfbfbf" points="79,-0.5 79,-21.5 117,-21.5 117,-0.5 79,-0.5"/>
<text text-anchor="middle" x="98" y="-8.5" font-family="Helvetica,sans-Serif" font-size="10.00">tuple</text>
</g>
<!-- Node0&#45;&gt;Node2 -->
<g id="edge4" class="edge"><title>Node0&#45;&gt;Node2</title>
<path fill="none" stroke="midnightblue" d="M72.6859,-58.3619C76.8372,-50.5949 82.5841,-39.8426 87.5531,-30.5458"/>
<polygon fill="midnightblue" stroke="midnightblue" points="90.7231,-32.0398 92.3502,-21.5707 84.5496,-28.7401 90.7231,-32.0398"/>
</g>
</g>
</svg>
